<?xml version="1.0" encoding="UTF-8" standalone="no"?>
<svg xmlns:ffdec="https://www.free-decompiler.com/flash" xmlns:xlink="http://www.w3.org/1999/xlink" ffdec:objectType="shape" height="42.45px" width="39.0px" xmlns="http://www.w3.org/2000/svg">
  <g transform="matrix(1.0, 0.0, 0.0, 1.0, -0.35, 1.4)">
    <path d="M11.5 -1.1 L11.7 -0.9 Q12.3 -0.1 13.5 0.65 L13.45 0.65 Q14.95 1.5 16.85 1.9 L17.05 1.95 17.15 1.95 17.3 2.0 19.75 2.15 Q23.45 2.15 26.05 0.65 L27.85 -0.85 27.85 -0.9 28.0 -1.1 28.05 -1.15 28.15 -1.2 28.5 -1.35 28.55 -1.35 29.05 -1.35 29.25 -1.25 29.3 -1.2 Q31.5 0.2 33.4 2.35 L33.5 2.45 33.85 2.8 34.05 3.15 34.1 3.45 34.1 3.65 33.95 4.05 Q32.8 6.25 32.8 9.0 32.8 13.25 35.4 16.3 L35.35 16.3 Q36.75 17.95 38.55 18.7 L38.8 18.75 39.0 18.9 39.15 19.05 39.2 19.15 39.25 19.25 39.3 19.35 39.3 20.0 Q39.05 24.25 37.7 27.85 L37.65 27.95 37.25 28.95 37.2 29.0 35.55 31.9 35.5 32.0 35.0 32.8 34.85 32.95 33.7 34.35 Q32.2 36.15 30.55 37.45 L30.5 37.45 Q27.55 39.7 24.1 40.6 L24.0 40.6 24.05 40.55 23.25 40.75 23.15 40.75 23.05 40.75 19.9 41.05 19.85 41.05 Q13.9 41.05 9.25 37.45 L6.0 34.35 4.2 32.0 4.15 31.85 4.05 31.7 4.0 31.7 Q0.65 26.5 0.35 19.85 L0.35 19.8 0.35 19.65 0.4 19.55 0.45 19.4 0.45 19.35 0.6 19.1 0.65 19.05 0.75 19.0 0.8 19.0 0.85 18.95 1.0 18.85 1.1 18.8 Q2.8 18.05 4.2 16.4 6.8 13.4 6.8 9.15 6.8 6.35 5.7 4.15 L5.5 3.55 5.5 3.4 5.55 3.25 5.8 2.85 5.95 2.7 6.0 2.6 Q8.0 0.3 10.3 -1.15 L10.35 -1.2 10.55 -1.3 11.1 -1.3 11.45 -1.15 11.5 -1.1" fill="#f2eeba" fill-rule="evenodd" stroke="none"/>
  </g>
</svg>
