<?xml version="1.0" encoding="UTF-8" standalone="no"?>
<svg xmlns:ffdec="https://www.free-decompiler.com/flash" xmlns:xlink="http://www.w3.org/1999/xlink" ffdec:objectType="shape" height="42.45px" width="39.0px" xmlns="http://www.w3.org/2000/svg">
  <g transform="matrix(1.0, 0.0, 0.0, 1.0, -0.2, 2.3)">
    <path d="M31.55 6.0 L31.25 6.25 Q28.0 8.3 23.8 8.9 L20.9 9.05 20.4 9.05 17.65 8.55 16.55 8.25 Q15.05 7.55 14.4 6.75 L12.3 8.5 10.65 10.4 10.25 10.9 10.0 11.2 10.1 11.4 Q11.2 13.55 11.2 16.4 11.1 20.85 8.35 24.05 L6.0 26.2 5.05 26.75 Q5.1 28.65 5.55 30.4 3.0 27.4 1.75 23.7 0.85 21.05 0.7 17.9 L1.75 17.45 Q3.2 16.7 4.35 15.35 7.25 12.3 7.25 7.85 7.25 5.05 6.05 2.8 L5.95 2.55 6.2 2.25 6.65 1.85 8.35 0.25 10.4 -1.15 Q11.1 -0.25 12.5 0.6 L13.6 1.1 Q14.9 1.6 16.3 1.9 L16.8 2.0 19.45 2.2 Q23.3 2.2 26.1 0.75 L26.35 0.6 Q27.85 -0.3 28.55 -1.2 30.75 0.05 32.6 2.1 L32.9 2.25 33.05 2.45 32.45 3.75 Q32.1 4.7 31.9 5.85 L31.55 6.0" fill="#000000" fill-opacity="0.12156863" fill-rule="evenodd" stroke="none"/>
    <path d="M31.75 2.75 L31.85 2.8 31.85 2.85 31.8 2.8 31.75 2.75" fill="#cccccc" fill-rule="evenodd" stroke="none"/>
    <path d="M10.55 0.1 L10.55 0.15 10.5 0.1 10.55 0.1 M31.75 2.75 L31.8 2.8 31.75 2.8 31.75 2.75 M37.05 19.35 L37.1 19.35 37.15 19.4 37.05 19.35 M7.5 2.85 L7.55 2.8 7.6 2.9 7.5 2.85 M5.55 16.8 L5.6 16.8 5.6 16.85 5.55 16.8" fill="#959595" fill-rule="evenodd" stroke="none"/>
    <path d="M38.4 17.8 L38.65 17.85 38.85 18.0 38.55 17.85 38.4 17.8 M0.7 18.05 L0.85 17.95 0.7 18.05 M2.25 19.5 L2.25 19.55 2.25 19.5" fill="#666666" fill-rule="evenodd" stroke="none"/>
    <path d="M4.1 31.15 L4.05 31.1 4.0 30.95 4.1 31.1 4.1 31.15 M33.3 30.6 L33.65 30.05 33.75 29.95 33.7 30.0 Q33.45 30.35 33.55 30.75 L33.3 30.6" fill="#454545" fill-rule="evenodd" stroke="none"/>
    <path d="M23.95 39.7 L23.85 39.7 23.9 39.65 23.95 39.7 M22.5 37.9 L22.75 37.85 22.75 37.9 22.65 37.9 22.5 37.9" fill="#363636" fill-rule="evenodd" stroke="none"/>
    <path d="M10.95 -2.2 L10.55 0.1 10.5 0.1 Q8.95 1.2 7.55 2.8 L7.5 2.85 5.4 2.5 5.35 2.65 5.35 2.5 5.4 2.35 5.65 1.95 5.8 1.8 5.85 1.7 Q7.85 -0.6 10.15 -2.05 L10.2 -2.1 10.4 -2.2 10.95 -2.2 M28.75 0.05 L28.4 -2.25 28.35 -2.25 28.4 -2.25 28.9 -2.25 29.1 -2.15 29.15 -2.1 Q31.35 -0.7 33.25 1.45 L33.35 1.55 33.7 1.9 33.9 2.25 33.95 2.55 33.95 2.75 31.85 2.8 31.75 2.75 Q30.35 1.15 28.75 0.05" fill="#dddddd" fill-rule="evenodd" stroke="none"/>
    <path d="M10.95 -2.2 L11.3 -2.05 11.35 -2.0 11.55 -1.8 Q12.15 -1.0 13.35 -0.25 L13.3 -0.25 Q14.8 0.6 16.7 1.0 L16.9 1.05 17.0 1.05 17.15 1.1 19.6 1.25 Q23.3 1.25 25.9 -0.25 27.0 -0.95 27.7 -1.75 L27.7 -1.8 27.85 -2.0 27.9 -2.05 28.0 -2.1 28.35 -2.25 28.4 -2.25 28.75 0.05 Q28.05 0.75 26.95 1.45 L26.9 1.45 Q23.9 3.25 19.6 3.25 L16.85 3.05 16.2 2.9 Q14.05 2.5 12.3 1.5 L12.3 1.45 Q11.2 0.8 10.55 0.15 L10.55 0.1 10.95 -2.2 M33.95 2.75 L33.8 3.15 Q32.65 5.35 32.65 8.1 32.65 12.35 35.25 15.4 L35.2 15.4 Q36.6 17.05 38.4 17.8 L38.55 17.85 38.85 18.0 39.0 18.15 37.1 19.35 37.05 19.35 Q35.2 18.4 33.7 16.7 30.65 13.15 30.65 8.1 30.65 5.25 31.75 2.8 L31.8 2.8 31.85 2.85 31.85 2.8 33.95 2.75 M0.25 18.65 L0.3 18.5 0.3 18.45 0.45 18.2 0.5 18.15 0.6 18.1 0.65 18.1 0.7 18.05 0.85 17.95 0.95 17.9 Q2.65 17.15 4.05 15.5 6.65 12.5 6.65 8.25 6.65 5.45 5.55 3.25 L5.35 2.65 5.4 2.5 7.5 2.85 7.6 2.9 Q8.65 5.3 8.65 8.25 8.65 13.3 5.55 16.8 L5.6 16.85 Q4.05 18.6 2.25 19.5 L0.35 18.55 0.25 18.65" fill="#b7b7b7" fill-rule="evenodd" stroke="none"/>
    <path d="M39.0 18.15 L39.05 18.25 39.1 18.35 39.15 18.45 39.15 19.1 Q38.9 23.35 37.55 26.95 L37.5 27.05 37.1 28.05 37.05 28.1 35.4 31.0 35.35 31.1 34.7 31.55 33.95 31.4 33.55 30.75 Q33.45 30.35 33.7 30.0 L33.75 29.95 33.75 29.9 35.25 27.3 35.25 27.25 35.7 26.2 Q36.9 23.0 37.15 19.4 L37.1 19.35 39.0 18.15 M4.0 30.95 L3.9 30.8 3.85 30.8 Q0.5 25.6 0.2 18.95 L0.2 18.9 0.2 18.75 0.25 18.65 0.35 18.55 2.25 19.5 2.25 19.55 Q2.65 25.2 5.55 29.7 L5.65 29.85 5.75 30.0 5.9 30.75 5.45 31.4 4.7 31.55 4.1 31.1 4.0 30.95" fill="#949494" fill-rule="evenodd" stroke="none"/>
    <path d="M35.35 31.1 L34.85 31.9 34.7 32.05 33.55 33.45 Q32.05 35.25 30.4 36.55 L30.35 36.55 Q27.4 38.8 23.95 39.7 L23.9 39.65 23.1 39.85 23.0 39.85 22.9 39.85 19.75 40.15 19.7 40.15 Q13.75 40.15 9.1 36.55 7.35 35.25 5.85 33.45 L4.1 31.15 4.1 31.1 4.7 31.55 5.45 31.4 5.9 30.75 5.75 30.0 7.35 32.15 Q8.75 33.75 10.3 34.95 14.45 38.15 19.7 38.15 L19.75 38.15 22.5 37.9 22.65 37.9 22.75 37.9 22.75 37.85 23.35 37.75 23.4 37.75 Q26.45 36.95 29.15 34.95 L32.05 32.15 33.15 30.75 33.2 30.75 33.3 30.6 33.55 30.75 33.95 31.4 34.7 31.55 35.35 31.1" fill="#808080" fill-rule="evenodd" stroke="none"/>
  </g>
</svg>
