<?xml version="1.0" encoding="UTF-8" standalone="no"?>
<svg xmlns:ffdec="https://www.free-decompiler.com/flash" xmlns:xlink="http://www.w3.org/1999/xlink" ffdec:objectType="shape" height="39.95px" width="40.0px" xmlns="http://www.w3.org/2000/svg">
  <g transform="matrix(1.0, 0.0, 0.0, 1.0, -5.35, -0.7)">
    <path d="M44.35 12.1 L44.9 12.25 45.25 12.65 45.35 13.2 45.3 14.25 Q44.3 24.3 40.15 30.3 35.6 36.8 25.7 40.6 L25.0 40.6 23.4 39.95 23.4 39.85 Q14.75 36.15 10.6 30.2 6.4 24.2 5.4 14.15 L5.35 13.1 Q5.35 12.7 5.65 12.4 5.95 12.1 6.35 12.1 L9.4 12.1 9.5 11.15 Q9.75 9.85 10.35 8.65 L10.4 8.55 Q11.55 6.15 14.1 4.25 17.2 1.85 21.2 1.15 L21.25 1.15 24.35 0.75 25.35 0.7 Q31.9 0.7 36.55 4.25 40.45 7.2 41.2 11.25 L41.35 12.1 44.35 12.1 M40.85 24.7 L40.95 24.45 40.8 24.7 Q42.15 21.4 42.85 17.3 L42.85 17.1 43.25 14.2 40.35 14.2 39.85 14.05 39.5 13.7 39.35 13.2 39.35 13.1 Q39.3 8.85 35.35 5.85 L34.25 5.1 33.3 5.1 32.45 5.1 Q26.8 5.3 22.7 8.4 18.3 11.75 18.35 16.45 L14.3 16.45 14.4 17.4 Q15.35 27.15 19.4 32.95 21.4 35.8 24.4 38.1 L25.35 38.5 26.9 37.85 27.3 37.65 Q30.95 35.95 33.75 33.9 L33.75 33.85 33.8 33.85 Q33.95 33.7 34.2 33.65 36.75 31.6 38.5 29.15 39.85 27.15 40.85 24.7 39.85 27.15 38.5 29.15 36.75 31.6 34.2 33.65 33.95 33.7 33.8 33.85 L33.75 33.85 33.75 33.9 Q30.95 35.95 27.3 37.65 L26.9 37.85 25.35 38.5 24.4 38.1 Q21.4 35.8 19.4 32.95 15.35 27.15 14.4 17.4 L14.3 16.45 18.35 16.45 Q18.3 11.75 22.7 8.4 26.8 5.3 32.45 5.1 L33.3 5.1 34.25 5.1 35.35 5.85 Q39.3 8.85 39.35 13.1 L39.35 13.2 39.5 13.7 39.85 14.05 40.35 14.2 43.25 14.2 42.85 17.1 42.85 17.3 Q42.15 21.4 40.8 24.7 L40.85 24.7" fill="#f3efba" fill-rule="evenodd" stroke="none"/>
  </g>
</svg>
