<?xml version="1.0" encoding="UTF-8" standalone="no"?>
<svg xmlns:ffdec="https://www.free-decompiler.com/flash" xmlns:xlink="http://www.w3.org/1999/xlink" ffdec:objectType="shape" height="39.85px" width="40.0px" xmlns="http://www.w3.org/2000/svg">
  <g transform="matrix(1.0, 0.0, 0.0, 1.0, 1.0, 1.0)">
    <path d="M26.3 3.65 L25.4 3.7 Q19.75 3.85 15.65 6.95 11.25 10.3 11.25 15.05 L7.3 15.05 7.4 16.0 Q8.3 25.75 12.35 31.55 14.85 35.1 18.9 37.85 L18.5 38.0 Q8.95 34.35 4.6 28.05 0.5 22.25 -0.4 12.45 L-0.5 11.5 3.5 11.5 Q3.5 6.75 7.85 3.45 11.95 0.35 17.6 0.15 L18.5 0.1 Q24.65 0.1 29.1 3.45 L29.7 3.9 26.3 3.65" fill="#000000" fill-opacity="0.12156863" fill-rule="evenodd" stroke="none"/>
    <path d="M27.65 32.05 L27.85 31.95 27.65 32.05" fill="#4f4f4f" fill-rule="evenodd" stroke="none"/>
    <path d="M36.5 15.6 L36.5 15.7 36.5 15.6 M27.4 32.2 L27.4 32.15 27.45 32.15 27.4 32.2" fill="#666666" fill-rule="evenodd" stroke="none"/>
    <path d="M15.6 -0.7 L16.05 0.25 15.9 1.0 15.3 1.4 15.2 1.4 Q11.7 2.05 8.95 4.15 6.85 5.75 5.9 7.7 L5.8 7.85 5.25 8.35 4.5 8.3 3.95 7.75 Q3.8 7.35 4.0 7.0 L4.05 6.85 Q5.2 4.45 7.75 2.55 10.85 0.15 14.85 -0.55 L14.9 -0.55 15.6 -0.7" fill="#dddddd" fill-rule="evenodd" stroke="none"/>
    <path d="M15.6 -0.7 L18.0 -0.95 19.0 -1.0 Q25.55 -1.0 30.2 2.55 34.1 5.5 34.85 9.55 L34.95 10.4 38.0 10.4 38.55 10.55 38.9 10.95 39.0 11.5 38.5 15.7 38.5 15.75 38.1 16.35 37.35 16.55 36.7 16.15 36.5 15.7 36.5 15.6 36.5 15.4 36.9 12.5 36.9 12.4 34.0 12.4 33.3 12.1 33.0 11.5 33.0 11.4 Q32.95 7.15 29.0 4.15 24.85 1.0 19.0 1.0 L18.25 1.05 18.15 1.05 15.3 1.4 15.9 1.0 16.05 0.25 15.6 -0.7 M21.4 38.0 L21.35 38.0 20.95 38.15 19.4 38.8 18.65 38.8 17.05 38.15 Q8.4 34.45 4.25 28.5 0.05 22.5 -0.95 12.45 L-1.0 11.4 -0.7 10.7 Q-0.4 10.4 0.0 10.4 L3.05 10.4 3.15 9.45 Q3.4 8.15 4.0 6.95 L4.05 6.85 4.0 7.0 Q3.8 7.35 3.95 7.75 L4.5 8.3 5.25 8.35 5.8 7.85 5.9 7.7 5.8 7.85 5.2 9.45 5.0 11.4 4.9 11.9 4.5 12.25 4.0 12.4 1.1 12.4 Q2.0 21.75 5.9 27.35 10.05 33.25 19.0 36.8 L20.55 36.15 20.95 36.05 21.35 36.15 21.9 36.7 21.9 37.45 21.4 38.0" fill="#b7b7b7" fill-rule="evenodd" stroke="none"/>
    <path d="M36.5 15.7 L36.7 16.15 37.35 16.55 38.1 16.35 38.5 15.75 Q37.75 20.25 36.3 23.8 L36.25 23.9 36.3 23.8 36.3 23.0 35.75 22.5 Q35.35 22.3 34.95 22.5 L34.6 22.75 34.45 23.0 Q35.8 19.75 36.5 15.7 M28.6 33.75 L28.55 33.8 Q25.5 36.15 21.4 38.0 L21.9 37.45 21.9 36.7 21.35 36.15 20.95 36.05 Q24.6 34.25 27.4 32.2 L27.45 32.15 27.65 32.05 27.85 31.95 28.15 31.95 28.8 32.35 29.0 33.1 28.65 33.75 28.6 33.75" fill="#949494" fill-rule="evenodd" stroke="none"/>
    <path d="M36.3 23.8 Q35.25 26.5 33.8 28.6 31.75 31.45 28.55 33.8 L28.6 33.75 28.65 33.75 29.0 33.1 28.8 32.35 28.15 31.95 27.85 31.95 27.65 32.05 Q30.5 29.7 32.15 27.45 33.55 25.35 34.6 22.75 L34.95 22.5 Q35.35 22.3 35.75 22.5 L36.3 23.0 36.3 23.8 36.25 23.9 36.3 23.8" fill="#808080" fill-rule="evenodd" stroke="none"/>
  </g>
</svg>
