<?xml version="1.0" encoding="UTF-8" standalone="no"?>
<svg xmlns:ffdec="https://www.free-decompiler.com/flash" xmlns:xlink="http://www.w3.org/1999/xlink" ffdec:objectType="shape" height="41.1px" width="41.1px" xmlns="http://www.w3.org/2000/svg">
  <g transform="matrix(1.0, 0.0, 0.0, 1.0, -1.7, -2.05)">
    <path d="M28.05 9.0 L23.95 13.15 17.2 13.2 17.2 20.05 11.1 26.4 17.2 32.5 17.2 36.55 9.2 36.65 9.2 28.7 3.05 22.55 9.2 16.25 9.2 9.4 15.95 9.35 22.1 3.05 28.05 9.0" fill="#000000" fill-opacity="0.12156863" fill-rule="evenodd" stroke="none"/>
    <path d="M40.4 22.6 L40.4 22.55 40.4 22.65 40.4 22.6 M10.0 35.95 L10.0 36.0 9.95 35.95 10.0 35.95 M17.1 36.0 L17.25 36.0 17.25 36.05 17.1 36.0 M37.45 16.85 L37.4 16.85 37.35 16.75 37.45 16.85" fill="#828282" fill-rule="evenodd" stroke="none"/>
    <path d="M42.75 22.35 L42.5 21.95 42.4 21.85 42.5 21.95 42.75 22.35 M42.8 22.65 L42.55 23.35 42.55 23.4 42.5 23.35 42.8 22.65" fill="#484848" fill-rule="evenodd" stroke="none"/>
    <path d="M16.7 38.0 L16.65 38.0 16.65 37.95 16.7 38.0" fill="#4f4f4f" fill-rule="evenodd" stroke="none"/>
    <path d="M35.6 10.3 L35.65 10.35 35.6 10.35 35.6 10.3 M22.25 4.45 L22.25 4.5 22.25 4.45 M4.15 22.6 L4.1 22.6 4.1 22.55 4.15 22.6 M8.25 15.7 L8.3 15.6 8.25 15.7" fill="#cccccc" fill-rule="evenodd" stroke="none"/>
    <path d="M8.0 29.3 L7.95 29.25 8.0 29.2 8.0 29.3" fill="#a3a3a3" fill-rule="evenodd" stroke="none"/>
    <path d="M15.5 8.35 L15.55 8.35 15.5 8.45 15.5 8.35" fill="#b8b8b8" fill-rule="evenodd" stroke="none"/>
    <path d="M37.65 28.25 L37.65 28.3 37.6 28.3 37.65 28.25 M35.65 36.0 L35.65 35.95 35.75 36.0 35.65 36.0" fill="#090909" fill-rule="evenodd" stroke="none"/>
    <path d="M28.0 38.0 L27.85 38.0 27.95 37.95 28.0 38.0" fill="#545454" fill-rule="evenodd" stroke="none"/>
    <path d="M37.3 8.6 L35.6 10.3 35.6 10.35 28.5 10.35 27.95 10.2 28.7 8.35 28.9 8.35 36.65 8.35 Q37.0 8.35 37.3 8.6 M1.7 22.55 Q1.7 22.15 2.0 21.9 L8.0 15.9 8.25 15.7 10.0 16.55 9.7 17.0 4.15 22.6 4.1 22.55 1.7 22.55 M15.55 8.35 L21.55 2.35 22.15 2.05 22.25 4.45 22.25 4.5 16.65 10.05 16.35 10.3 16.3 10.3 15.5 8.45 15.55 8.35" fill="#dddddd" fill-rule="evenodd" stroke="none"/>
    <path d="M7.95 29.25 L2.0 23.3 Q1.7 23.0 1.7 22.6 L1.7 22.55 4.1 22.55 4.1 22.6 9.6 28.1 8.0 29.2 7.95 29.25 M8.3 8.7 L8.3 8.65 Q8.6 8.35 9.0 8.35 L15.5 8.35 15.5 8.45 16.3 10.3 15.95 10.35 10.0 10.35 9.95 10.35 8.3 8.7 M22.15 2.05 L22.25 2.05 22.95 2.35 28.75 8.2 28.9 8.35 28.7 8.35 27.95 10.2 27.8 10.05 22.25 4.45 22.15 2.05" fill="#b7b7b7" fill-rule="evenodd" stroke="none"/>
    <path d="M42.75 22.35 L42.8 22.65 40.4 22.55 40.4 22.6 35.95 18.15 35.7 17.75 35.7 17.7 35.65 17.45 35.65 10.35 35.6 10.3 37.3 8.6 37.35 8.65 37.65 9.35 37.65 17.05 42.4 21.85 42.5 21.95 42.75 22.35 M22.35 43.15 L22.25 43.15 Q21.85 43.15 21.55 42.85 L16.7 38.0 16.65 37.95 17.25 36.05 17.25 36.0 17.8 36.3 22.25 40.75 22.3 40.8 22.35 43.15 M8.3 37.7 Q8.0 37.4 8.0 37.0 L8.0 29.3 8.0 29.2 9.6 28.1 9.7 28.2 10.0 28.9 10.0 35.95 9.95 35.95 8.3 37.7 M8.0 15.9 L8.0 9.35 Q8.0 8.95 8.3 8.7 L9.95 10.35 10.0 10.35 10.0 16.3 10.0 16.55 8.25 15.7 8.0 15.9 M37.45 16.85 L37.35 16.75 37.4 16.85 37.45 16.85 M8.25 15.7 L8.3 15.6 8.25 15.7" fill="#949494" fill-rule="evenodd" stroke="none"/>
    <path d="M40.4 22.55 L42.8 22.65 42.5 23.35 42.55 23.4 37.65 28.25 37.6 28.3 37.65 28.3 37.65 37.0 37.4 37.7 37.35 37.7 36.65 38.0 28.0 38.0 27.95 37.95 27.85 38.0 22.95 42.85 Q22.7 43.1 22.35 43.15 L22.3 40.8 22.25 40.75 26.75 36.3 27.0 36.1 27.45 36.0 35.65 36.0 35.75 36.0 35.65 35.95 35.65 27.8 35.7 27.55 35.95 27.1 40.4 22.65 40.4 22.55 M16.65 38.0 L9.0 38.0 8.3 37.7 9.95 35.95 10.0 36.0 17.1 36.0 17.25 36.05 16.65 37.95 16.65 38.0" fill="#808080" fill-rule="evenodd" stroke="none"/>
  </g>
</svg>
