<?xml version="1.0" encoding="UTF-8" standalone="no"?>
<svg xmlns:ffdec="https://www.free-decompiler.com/flash" xmlns:xlink="http://www.w3.org/1999/xlink" ffdec:objectType="shape" height="40.0px" width="40.0px" xmlns="http://www.w3.org/2000/svg">
  <g transform="matrix(1.0, 0.0, 0.0, 1.0, -16.5, -4.95)">
    <path d="M56.45 11.3 L56.45 11.9 56.1 12.4 55.85 12.65 55.8 12.65 54.85 14.15 54.85 14.1 Q53.4 16.95 53.45 21.25 L53.75 24.15 54.0 27.4 54.0 27.75 54.0 27.8 53.65 31.3 53.65 31.35 53.65 31.4 Q52.85 35.25 50.5 37.6 48.35 39.75 44.9 40.55 44.35 42.65 40.85 43.35 L38.9 43.55 38.45 43.85 Q37.9 43.95 37.45 44.45 L37.4 44.5 37.2 44.65 36.5 44.95 Q36.1 44.95 35.8 44.65 35.15 44.0 34.55 43.8 L34.35 43.75 32.25 43.4 31.95 43.3 Q28.6 42.6 28.1 40.55 26.25 40.15 24.9 39.4 L24.85 39.4 22.45 37.55 Q19.15 34.3 19.0 27.8 18.95 26.35 19.25 24.1 L19.55 21.25 Q19.55 18.85 19.2 16.95 L18.15 14.1 18.2 14.15 17.2 12.7 17.05 12.55 16.9 12.4 16.55 11.9 16.55 11.3 16.95 10.8 17.5 10.6 17.75 10.6 Q19.45 10.35 24.95 8.0 L26.55 7.3 26.6 7.3 Q29.1 6.1 31.8 5.55 L32.25 5.45 33.55 5.2 33.55 5.25 35.05 5.0 35.1 5.0 35.15 5.0 35.2 5.0 35.4 5.0 36.5 4.95 37.25 5.0 37.3 5.0 39.5 5.2 39.5 5.25 Q43.1 5.8 46.45 7.3 53.8 10.55 55.5 10.6 L56.1 10.8 56.45 11.3 M46.1 11.8 L44.05 11.55 43.3 11.55 42.25 11.55 41.95 11.6 40.5 11.8 39.2 12.0 38.85 12.1 Q36.2 12.65 33.7 13.75 L32.1 14.45 Q26.45 16.9 24.6 17.15 L24.3 17.2 24.65 17.5 Q25.25 18.1 25.85 19.25 L26.9 22.35 Q27.35 24.35 27.35 26.8 L27.05 29.85 Q26.75 31.95 26.8 33.3 26.85 36.15 27.55 38.35 L29.2 38.75 29.75 39.05 30.0 39.65 Q30.2 40.95 32.55 41.4 L32.8 41.45 35.25 41.95 36.5 42.65 Q37.2 42.05 37.95 41.9 L37.75 42.0 40.5 41.4 Q42.75 40.95 43.0 39.65 43.05 39.25 43.35 39.0 43.6 38.7 44.0 38.7 L44.05 38.7 Q47.2 38.1 49.1 36.2 51.0 34.25 51.7 31.0 L51.7 30.95 52.0 27.75 52.0 27.4 51.75 24.4 51.45 21.25 Q51.4 16.75 52.8 13.75 49.55 12.3 46.1 11.8 49.55 12.3 52.8 13.75 51.4 16.75 51.45 21.25 L51.75 24.4 52.0 27.4 52.0 27.75 51.7 30.95 51.7 31.0 Q51.0 34.25 49.1 36.2 47.2 38.1 44.05 38.7 L44.0 38.7 Q43.6 38.7 43.35 39.0 43.05 39.25 43.0 39.65 42.75 40.95 40.5 41.4 L37.75 42.0 37.95 41.9 Q37.2 42.05 36.5 42.65 L35.25 41.95 32.8 41.45 32.55 41.4 Q30.2 40.95 30.0 39.65 L29.75 39.05 29.2 38.75 27.55 38.35 Q26.85 36.15 26.8 33.3 26.75 31.95 27.05 29.85 L27.35 26.8 Q27.35 24.35 26.9 22.35 L25.85 19.25 Q25.25 18.1 24.65 17.5 L24.3 17.2 24.6 17.15 Q26.45 16.9 32.1 14.45 L33.7 13.75 Q36.2 12.65 38.85 12.1 L39.2 12.0 40.5 11.8 41.95 11.6 42.25 11.55 43.3 11.55 44.05 11.55 46.1 11.8" fill="#f3efba" fill-rule="evenodd" stroke="none"/>
  </g>
</svg>
