<?xml version="1.0" encoding="UTF-8" standalone="no"?>
<svg xmlns:ffdec="https://www.free-decompiler.com/flash" xmlns:xlink="http://www.w3.org/1999/xlink" ffdec:objectType="shape" height="40.0px" width="40.0px" xmlns="http://www.w3.org/2000/svg">
  <g transform="matrix(1.0, 0.0, 0.0, 1.0, 1.0, 1.0)">
    <path d="M-0.5 5.6 L-0.15 5.55 Q1.7 5.3 7.35 2.9 L9.0 2.2 Q11.5 1.1 14.1 0.5 L14.45 0.45 15.7 0.2 17.2 0.0 17.5 0.0 18.5 -0.05 19.3 0.0 21.35 0.2 Q24.8 0.75 28.1 2.2 35.75 5.55 37.5 5.6 36.75 6.15 36.0 7.65 L35.85 7.9 34.85 7.45 Q31.55 6.0 28.1 5.45 L26.05 5.25 25.25 5.2 24.2 5.25 23.95 5.25 22.45 5.45 21.2 5.7 20.85 5.75 Q18.25 6.35 15.7 7.45 L14.1 8.15 Q8.45 10.6 6.6 10.85 L6.25 10.9 6.65 11.2 7.85 12.95 Q8.5 14.3 8.95 16.0 9.35 18.0 9.35 20.5 L9.0 23.5 Q8.75 25.65 8.8 27.0 8.85 30.9 10.1 33.5 L7.35 32.5 5.2 30.9 Q2.2 27.8 2.05 21.75 2.0 20.4 2.3 18.25 L2.6 15.2 Q2.6 12.75 2.2 10.75 1.75 9.05 1.1 7.65 L-0.1 5.9 -0.5 5.6" fill="#000000" fill-opacity="0.12156863" fill-rule="evenodd" stroke="none"/>
    <path d="M16.05 -0.7 L16.05 -0.75 16.05 -0.7" fill="#cccccc" fill-rule="evenodd" stroke="none"/>
    <path d="M0.25 4.65 L0.05 4.7 0.0 4.65 0.25 4.65 M17.75 1.05 L18.0 1.0 18.05 1.05 17.95 1.05 17.75 1.05 M17.9 -0.9 L17.7 -0.95 17.9 -0.95 17.9 -0.9" fill="#959595" fill-rule="evenodd" stroke="none"/>
    <path d="M20.25 36.0 L20.45 35.95 20.25 36.05 20.25 36.0" fill="#666666" fill-rule="evenodd" stroke="none"/>
    <path d="M0.25 4.65 Q1.95 4.4 7.45 2.05 L9.05 1.35 9.1 1.35 Q11.6 0.15 14.3 -0.4 L14.75 -0.5 16.05 -0.75 16.05 -0.7 17.55 -0.95 17.6 -0.95 17.65 -0.95 17.7 -0.95 17.9 -0.9 18.3 -0.7 18.65 0.0 18.4 0.7 18.0 1.0 17.75 1.05 17.65 1.05 16.4 1.25 16.35 1.25 15.15 1.5 14.95 1.5 14.8 1.55 Q12.25 2.05 9.9 3.15 L9.85 3.2 8.3 3.85 8.25 3.9 1.9 6.35 0.5 6.65 -0.25 6.45 -0.65 5.8 -0.45 5.05 Q-0.25 4.8 0.05 4.7 L0.25 4.65" fill="#dddddd" fill-rule="evenodd" stroke="none"/>
    <path d="M0.05 4.7 Q-0.25 4.8 -0.45 5.05 L-0.65 5.8 -0.25 6.45 0.5 6.65 1.9 6.35 2.45 7.25 Q3.2 8.75 3.65 10.6 4.05 12.7 4.05 15.3 L3.75 18.45 Q3.45 20.5 3.5 21.8 3.65 27.35 6.4 30.2 L6.35 30.2 Q7.2 31.05 8.35 31.7 9.75 32.45 11.7 32.8 12.0 32.8 12.25 33.1 L12.5 33.7 Q12.7 35.0 15.05 35.45 L15.3 35.5 17.75 36.0 19.0 36.7 19.15 36.8 19.2 36.8 Q19.6 36.8 19.9 37.1 L20.2 37.8 19.95 38.5 19.9 38.55 19.7 38.7 19.0 39.0 Q18.6 39.0 18.3 38.7 L17.05 37.85 16.85 37.8 14.75 37.45 14.45 37.35 Q11.1 36.65 10.6 34.6 8.75 34.2 7.4 33.45 L7.35 33.45 4.95 31.6 Q1.65 28.35 1.5 21.85 1.45 20.4 1.75 18.15 L2.05 15.3 Q2.05 12.9 1.7 11.0 L0.65 8.15 0.7 8.2 -0.3 6.75 -0.45 6.6 -0.6 6.45 -0.95 5.95 -0.95 5.35 -0.55 4.85 0.0 4.65 0.05 4.7 M18.0 1.0 L18.4 0.7 18.65 0.0 18.3 -0.7 17.9 -0.9 17.9 -0.95 19.0 -1.0 19.75 -0.95 19.8 -0.95 22.0 -0.75 22.0 -0.7 Q25.6 -0.15 28.95 1.35 36.3 4.6 38.0 4.65 L38.6 4.85 38.95 5.35 38.95 5.95 38.6 6.45 38.35 6.7 38.3 6.7 37.6 7.0 36.9 6.7 36.75 6.5 36.15 6.3 Q33.5 5.55 28.15 3.2 25.05 1.8 21.75 1.25 L19.75 1.05 19.0 1.0 18.05 1.05 18.0 1.0" fill="#b7b7b7" fill-rule="evenodd" stroke="none"/>
    <path d="M36.15 6.3 L36.75 6.5 36.9 6.7 37.6 7.0 38.3 6.7 37.35 8.2 37.35 8.15 Q35.9 11.0 35.95 15.3 L36.25 18.2 36.5 21.45 36.5 21.8 36.5 21.85 36.15 25.35 36.15 25.4 36.15 25.45 35.7 26.05 34.95 26.2 34.35 25.75 Q34.1 25.45 34.2 25.05 L34.2 25.0 34.5 21.8 34.5 21.45 34.25 18.45 33.95 15.3 Q33.9 10.4 35.55 7.25 L35.6 7.25 36.15 6.3 M19.95 38.5 L20.2 37.8 19.9 37.1 Q19.6 36.8 19.2 36.8 L19.15 36.8 19.0 36.7 Q19.6 36.2 20.25 36.0 L20.25 36.05 23.0 35.45 Q25.25 35.0 25.5 33.7 25.55 33.3 25.85 33.05 26.1 32.75 26.5 32.75 L26.55 32.75 26.6 32.75 Q27.0 32.75 27.3 33.05 L27.6 33.75 27.5 34.25 27.4 34.6 Q26.85 36.7 23.35 37.4 L21.4 37.6 20.95 37.9 Q20.4 38.0 19.95 38.5" fill="#949494" fill-rule="evenodd" stroke="none"/>
    <path d="M34.2 25.05 Q34.1 25.45 34.35 25.75 L34.95 26.2 35.7 26.05 36.15 25.45 Q35.35 29.3 33.0 31.65 30.85 33.8 27.4 34.6 L27.5 34.25 27.6 33.75 27.3 33.05 Q27.0 32.75 26.6 32.75 L26.55 32.75 Q29.7 32.15 31.6 30.25 33.5 28.3 34.2 25.05" fill="#808080" fill-rule="evenodd" stroke="none"/>
  </g>
</svg>
