<?xml version="1.0" encoding="UTF-8" standalone="no"?>
<svg xmlns:ffdec="https://www.free-decompiler.com/flash" xmlns:xlink="http://www.w3.org/1999/xlink" ffdec:objectType="shape" height="40.55px" width="37.9px" xmlns="http://www.w3.org/2000/svg">
  <g transform="matrix(1.0, 0.0, 0.0, 1.0, -2.05, -0.2)">
    <path d="M7.65 1.85 L7.7 1.8 7.75 1.9 7.65 1.85 M33.85 2.0 L33.95 2.2 33.9 2.15 Q34.55 4.15 36.35 6.6 L36.35 6.65 38.9 8.45 39.85 8.95 39.95 9.1 39.95 9.15 39.7 9.6 39.85 9.5 Q36.55 12.9 36.55 16.5 36.55 20.2 39.25 22.75 L39.5 23.05 39.55 23.25 39.6 23.6 39.6 23.85 39.6 23.9 39.6 24.0 39.55 25.0 39.55 25.05 39.55 25.2 39.2 27.0 39.35 26.5 38.85 28.3 Q36.85 32.35 35.55 33.6 L33.2 35.25 31.05 36.15 31.15 36.2 31.05 36.2 29.55 36.75 29.2 36.9 29.15 36.9 28.45 37.15 28.35 37.2 28.25 37.25 28.2 37.25 27.8 37.4 Q25.45 38.25 23.95 39.2 L23.65 39.35 22.4 40.2 22.35 40.3 21.35 40.75 21.15 40.75 21.0 40.75 20.9 40.75 20.75 40.75 Q20.1 40.8 19.5 40.3 L19.5 40.25 Q18.9 39.7 18.1 39.3 L17.95 39.2 Q16.35 38.25 14.0 37.4 L13.65 37.3 13.55 37.2 13.45 37.2 13.35 37.15 12.95 37.05 12.15 36.7 11.0 36.3 11.3 36.35 10.3 36.05 Q7.35 34.5 6.35 33.6 L6.3 33.6 Q4.1 31.45 3.05 28.55 L3.05 28.45 3.0 28.4 2.9 27.95 2.4 25.85 2.4 25.7 2.3 25.2 2.3 25.0 2.2 24.3 2.45 24.0 Q4.95 21.1 5.15 17.55 L5.2 16.5 Q5.2 13.15 3.1 10.7 L2.05 9.0 2.05 8.95 2.1 9.0 5.75 6.3 Q7.05 4.95 7.7 2.05 L9.45 1.2 9.65 1.15 11.25 0.55 11.3 0.55 15.15 0.25 Q17.3 0.25 20.5 2.6 L20.75 2.75 20.8 2.8 20.85 2.75 22.25 1.85 Q22.55 1.6 24.55 0.7 L25.05 0.6 25.15 0.6 26.35 0.35 30.35 0.5 30.4 0.5 30.85 0.6 31.35 0.75 31.7 0.85 32.2 1.15 32.35 1.2 33.35 1.65 33.4 1.65 33.85 2.0" fill="#f3efba" fill-rule="evenodd" stroke="none"/>
  </g>
</svg>
