<?xml version="1.0" encoding="UTF-8" standalone="no"?>
<svg xmlns:ffdec="https://www.free-decompiler.com/flash" xmlns:xlink="http://www.w3.org/1999/xlink" ffdec:objectType="shape" height="40.55px" width="37.9px" xmlns="http://www.w3.org/2000/svg">
  <g transform="matrix(1.0, 0.0, 0.0, 1.0, -1.6, 0.5)">
    <path d="M31.1 1.3 L31.75 1.65 31.8 1.65 33.0 2.2 33.45 2.2 Q33.55 4.5 35.1 6.25 L31.5 6.15 31.0 6.25 30.65 6.3 30.5 6.3 30.45 6.3 Q29.35 6.65 28.35 7.2 L28.2 7.25 28.0 7.35 28.05 7.3 Q27.9 7.35 27.8 7.45 L26.3 8.4 25.8 8.85 25.75 8.95 25.65 8.85 25.2 8.4 23.65 7.45 23.45 7.3 23.5 7.35 23.3 7.25 23.15 7.2 Q22.2 6.65 21.1 6.3 L21.0 6.3 20.9 6.3 20.5 6.25 20.05 6.15 16.1 6.3 16.0 6.3 15.1 6.55 14.55 6.9 14.5 6.9 13.25 7.45 12.8 7.45 Q12.75 9.95 10.8 11.8 L10.75 11.85 10.55 12.0 Q9.05 13.3 7.15 13.55 L7.0 13.55 7.0 13.6 7.65 14.1 Q10.65 16.95 10.65 20.95 10.65 25.0 7.65 27.75 L7.55 27.9 7.55 28.15 7.65 29.3 7.65 29.35 8.3 32.0 8.35 32.25 8.8 33.35 6.25 31.7 Q4.05 29.7 3.1 27.05 L3.05 26.8 2.4 24.1 2.4 24.05 2.3 22.9 2.3 22.65 2.4 22.5 Q5.4 19.75 5.4 15.7 5.4 11.7 2.4 8.9 L1.75 8.4 1.75 8.35 1.9 8.35 Q3.8 8.1 5.3 6.8 L5.5 6.65 5.55 6.6 Q7.5 4.75 7.55 2.2 L8.0 2.2 9.25 1.65 9.3 1.65 9.85 1.3 10.75 1.05 10.85 1.05 14.8 0.9 15.25 1.0 15.65 1.05 15.75 1.05 15.85 1.05 17.9 1.95 18.05 2.0 18.25 2.1 18.2 2.05 18.4 2.2 19.95 3.15 20.4 3.6 20.5 3.7 20.55 3.6 21.05 3.15 22.55 2.2 Q22.65 2.1 22.8 2.05 L22.75 2.1 22.95 2.0 23.1 1.95 Q24.1 1.4 25.2 1.05 L25.4 1.05 25.75 1.0 26.25 0.9 30.1 1.05 30.2 1.05 31.1 1.3" fill="#000000" fill-opacity="0.12156863" fill-rule="evenodd" stroke="none"/>
    <path d="M8.75 2.85 L8.8 2.8 8.8 2.9 8.75 2.85 M20.3 2.2 L20.35 2.1 20.3 2.2 M33.5 1.45 L33.5 1.5 Q33.6 1.75 33.45 1.45 L33.5 1.45 M39.4 8.25 L39.5 8.4 39.4 8.4 39.4 8.25 M1.6 8.3 L1.6 8.25 1.65 8.3 1.6 8.3 M34.2 7.0 L34.25 7.0 34.25 7.05 34.2 7.0 M35.85 8.2 L35.85 8.15 35.85 8.2 M39.35 7.7 L39.4 7.8 39.35 7.7" fill="#959595" fill-rule="evenodd" stroke="none"/>
    <path d="M21.8 1.15 L21.9 1.1 21.8 1.15 M7.25 1.35 L7.25 1.3 7.25 1.35 M7.15 1.2 L7.2 1.3 7.1 1.25 7.15 1.2" fill="#cccccc" fill-rule="evenodd" stroke="none"/>
    <path d="M31.15 2.35 L30.85 2.25 31.0 2.3 31.15 2.35 M29.55 1.8 L29.4 1.75 29.55 1.75 29.55 1.8 M37.1 23.15 L37.15 23.15 37.15 23.2 37.1 23.15" fill="#000000" fill-rule="evenodd" stroke="none"/>
    <path d="M39.25 8.9 L39.4 8.8 39.3 8.95 39.25 8.9 M27.5 34.5 L28.0 34.3 27.5 34.5" fill="#454545" fill-rule="evenodd" stroke="none"/>
    <path d="M38.75 26.3 L38.9 25.8 38.75 26.35 38.75 26.3 M30.6 35.45 L30.7 35.5 30.6 35.5 30.6 35.45 M4.45 26.95 L4.55 27.3 4.45 27.15 4.45 27.05 4.45 26.95" fill="#666666" fill-rule="evenodd" stroke="none"/>
    <path d="M7.25 1.35 L8.75 2.85 8.8 2.9 Q8.4 5.35 6.6 7.15 L6.55 7.2 4.4 8.65 4.2 8.75 1.65 8.3 5.3 5.6 Q6.6 4.25 7.25 1.35 M20.35 4.45 L20.3 2.2 20.35 2.1 20.4 2.05 21.8 1.15 Q22.1 0.9 24.1 0.0 L24.6 -0.1 24.7 -0.1 24.8 -0.15 24.7 -0.1 24.35 0.0 24.7 -0.1 25.9 -0.35 29.9 -0.2 29.95 -0.2 30.4 -0.1 30.9 0.05 31.25 0.15 31.75 0.45 31.9 0.5 32.9 0.95 32.95 0.95 Q33.25 1.05 33.4 1.3 L32.1 2.8 31.15 2.35 31.0 2.3 30.85 2.25 30.5 2.05 29.7 1.8 29.55 1.8 29.55 1.75 29.4 1.75 26.35 1.55 26.25 1.5 25.0 1.8 24.95 1.8 23.15 2.6 23.05 2.75 21.55 3.75 20.5 4.45 20.45 4.45 20.35 4.45" fill="#dddddd" fill-rule="evenodd" stroke="none"/>
    <path d="M7.25 1.35 L9.0 0.5 9.2 0.45 10.8 -0.15 10.85 -0.15 14.7 -0.45 Q16.85 -0.45 20.05 1.9 L20.3 2.05 20.35 2.1 20.3 2.2 20.35 4.45 Q20.05 4.45 19.85 4.25 16.6 1.65 14.65 1.55 L14.6 1.55 11.4 1.8 11.4 1.75 10.2 2.1 9.8 2.35 8.8 2.8 8.75 2.85 7.25 1.35 M33.4 1.3 L33.5 1.45 33.45 1.45 Q34.1 3.45 35.9 5.9 L35.9 5.95 38.45 7.75 39.4 8.25 39.4 8.4 37.0 8.75 36.85 8.7 35.85 8.15 35.85 8.2 34.25 7.0 34.2 7.0 Q32.5 4.55 32.15 2.8 L32.1 2.8 33.4 1.3 M1.75 23.6 L2.0 23.3 Q4.5 20.4 4.7 16.85 L4.75 15.8 Q4.75 12.45 2.65 10.0 L1.6 8.3 1.65 8.3 4.2 8.75 Q6.75 11.75 6.75 15.8 6.75 20.35 3.75 23.7 L3.65 23.5 3.6 23.6 3.55 23.6 3.4 23.6 2.3 23.6 2.25 23.55 2.25 23.6 1.75 23.6" fill="#b7b7b7" fill-rule="evenodd" stroke="none"/>
    <path d="M39.05 22.35 L39.1 22.55 39.15 22.9 39.15 23.15 39.15 23.2 39.15 23.3 39.1 24.3 39.1 24.35 39.1 24.5 38.75 26.3 38.75 26.35 38.75 26.4 38.4 27.6 Q36.4 31.65 35.1 32.9 L32.75 34.55 30.6 35.45 30.6 35.5 29.1 36.05 28.75 36.2 28.7 36.2 28.0 36.45 28.0 34.35 28.15 34.3 28.1 34.3 28.2 34.25 28.3 34.25 29.95 33.65 30.55 33.45 31.5 32.95 31.55 32.9 31.5 33.0 31.7 32.85 33.7 31.45 33.75 31.4 Q35.7 29.5 36.8 26.0 L37.1 24.2 37.15 23.2 39.05 22.35 M12.5 36.35 L11.7 36.0 10.55 35.6 10.85 35.65 9.85 35.35 Q6.9 33.8 5.9 32.9 L5.85 32.9 Q3.65 30.75 2.6 27.85 L2.6 27.75 2.55 27.7 2.45 27.25 1.95 25.15 1.95 25.0 1.85 24.5 1.85 24.3 1.75 23.6 2.25 23.6 2.25 23.55 2.3 23.6 3.4 23.6 3.55 23.6 3.5 23.6 3.6 23.6 3.65 23.5 3.75 23.7 3.85 24.25 4.4 26.9 4.45 26.95 4.45 27.15 4.55 27.3 Q5.4 29.65 7.25 31.4 L7.25 31.45 10.65 33.5 11.25 33.75 11.2 33.75 12.35 34.1 12.4 34.15 12.5 34.2 12.5 36.35" fill="#949494" fill-rule="evenodd" stroke="none"/>
    <path d="M39.5 8.4 L39.5 8.45 39.25 8.9 39.3 8.95 Q36.1 12.3 36.1 15.8 36.1 19.5 38.8 22.05 L39.05 22.35 37.15 23.2 37.15 23.15 37.1 23.15 Q34.1 20.15 34.1 15.8 34.1 11.75 36.75 8.8 L36.85 8.7 37.0 8.75 39.4 8.4 39.5 8.4 M28.0 36.45 L27.9 36.5 27.8 36.55 27.75 36.55 27.35 36.7 Q25.0 37.55 23.5 38.5 L23.2 38.65 21.95 39.5 21.9 39.6 20.9 40.05 20.7 40.05 20.55 40.05 20.45 40.05 20.3 40.05 Q19.65 40.1 19.05 39.6 L19.05 39.55 17.65 38.6 17.5 38.5 Q15.9 37.55 13.55 36.7 L13.2 36.6 13.1 36.5 13.0 36.5 12.9 36.45 12.5 36.35 12.5 34.2 13.4 34.5 13.75 34.65 13.9 34.7 14.1 34.75 14.15 34.8 Q16.65 35.65 18.4 36.7 L18.6 36.85 18.65 36.9 20.35 38.05 20.3 38.05 20.35 38.05 20.45 38.05 20.55 38.05 22.6 36.7 Q24.05 35.8 27.05 34.65 L27.45 34.5 27.5 34.5 28.0 34.35 28.0 36.45" fill="#808080" fill-rule="evenodd" stroke="none"/>
  </g>
</svg>
