<?xml version="1.0" encoding="UTF-8" standalone="no"?>
<svg xmlns:ffdec="https://www.free-decompiler.com/flash" xmlns:xlink="http://www.w3.org/1999/xlink" ffdec:objectType="shape" height="40.0px" width="39.4px" xmlns="http://www.w3.org/2000/svg">
  <g transform="matrix(1.0, 0.0, 0.0, 1.0, 1.0, 1.0)">
    <path d="M30.0 4.55 L27.55 5.2 Q18.65 9.4 8.65 11.7 8.45 22.6 12.0 29.65 14.45 34.55 18.9 38.15 L18.85 38.2 Q7.75 33.65 3.25 24.65 -0.3 17.65 -0.1 6.7 9.9 4.4 18.85 0.2 24.2 2.7 30.0 4.55" fill="#000000" fill-opacity="0.12156863" fill-rule="evenodd" stroke="none"/>
    <path d="M18.2 -0.85 L18.4 -0.95 18.3 -0.9 18.2 -0.85 M-1.0 6.75 L-1.0 6.55 -0.95 6.75 -1.0 6.75 M-0.95 6.2 L-0.7 5.8 Q-0.5 5.6 -0.2 5.55 -0.65 5.6 -0.85 6.0 L-0.95 6.2" fill="#959595" fill-rule="evenodd" stroke="none"/>
    <path d="M38.2 12.85 Q37.75 17.25 36.6 20.95 L36.55 21.05 36.05 21.65 35.3 21.7 34.75 21.2 Q34.55 20.85 34.65 20.45 L34.7 20.35 Q35.75 16.85 36.2 12.65 36.15 13.05 36.45 13.35 36.7 13.65 37.15 13.7 L37.85 13.5 38.2 12.85 M27.75 33.9 L27.6 34.05 Q24.4 36.5 20.35 38.4 L20.65 38.0 20.7 37.2 20.2 36.65 19.5 36.6 Q23.35 34.8 26.35 32.45 L26.5 32.35 27.1 32.25 Q27.5 32.3 27.75 32.65 L27.95 33.4 27.75 33.9" fill="#949494" fill-rule="evenodd" stroke="none"/>
    <path d="M36.6 20.95 L36.55 21.1 35.0 24.9 Q32.4 30.1 27.75 33.9 L27.95 33.4 27.75 32.65 Q27.5 32.3 27.1 32.25 L26.5 32.35 Q30.8 28.85 33.2 24.0 L33.2 24.05 34.65 20.45 34.7 20.35 34.65 20.45 Q34.55 20.85 34.75 21.2 L35.3 21.7 36.05 21.65 36.55 21.05 36.6 20.95" fill="#808080" fill-rule="evenodd" stroke="none"/>
    <path d="M19.25 -0.85 Q27.9 3.25 37.65 5.55 L38.2 5.9 38.4 6.5 38.2 12.75 38.2 12.85 37.85 13.5 37.15 13.7 Q36.7 13.65 36.45 13.35 36.15 13.05 36.2 12.65 L36.2 12.6 36.4 7.3 Q27.05 5.05 18.7 1.1 L19.15 0.9 19.65 0.35 19.6 -0.4 19.25 -0.85 M20.35 38.4 L20.1 38.5 19.15 38.9 18.75 39.0 18.35 38.95 Q7.0 34.2 2.45 24.9 -1.1 17.75 -1.0 6.75 L-0.95 6.75 Q-0.9 7.15 -0.5 7.35 L0.25 7.5 1.0 7.3 Q1.0 17.4 4.25 24.0 8.4 32.5 18.7 36.9 L19.4 36.6 19.5 36.6 20.2 36.65 20.7 37.2 20.65 38.0 20.35 38.4" fill="#b7b7b7" fill-rule="evenodd" stroke="none"/>
    <path d="M18.2 -0.85 L18.3 -0.9 18.4 -0.95 19.05 -0.95 19.25 -0.85 19.6 -0.4 19.65 0.35 19.15 0.9 18.7 1.1 11.45 4.15 4.15 6.5 4.1 6.55 1.0 7.3 0.25 7.5 -0.5 7.35 Q-0.9 7.15 -0.95 6.75 L-1.0 6.55 -1.0 6.5 -0.95 6.3 -0.95 6.2 -0.85 6.0 Q-0.65 5.6 -0.2 5.55 L-0.15 5.55 -0.1 5.5 3.6 4.6 10.75 2.25 10.75 2.3 18.2 -0.85" fill="#dddddd" fill-rule="evenodd" stroke="none"/>
  </g>
</svg>
