<?xml version="1.0" encoding="UTF-8" standalone="no"?>
<svg xmlns:ffdec="https://www.free-decompiler.com/flash" xmlns:xlink="http://www.w3.org/1999/xlink" ffdec:objectType="shape" height="40.0px" width="39.95px" xmlns="http://www.w3.org/2000/svg">
  <g transform="matrix(1.0, 0.0, 0.0, 1.0, 2.45, -0.65)">
    <path d="M34.4 11.1 L32.0 11.1 Q31.6 11.1 31.3 10.8 31.0 10.5 31.0 10.1 30.95 8.05 29.15 6.4 L24.05 5.85 Q21.05 5.85 18.45 6.55 17.65 6.7 16.95 7.0 15.35 7.55 13.9 8.35 9.5 10.85 9.55 14.35 L5.45 14.35 5.8 14.95 6.15 15.55 Q11.05 24.4 6.8 32.95 L9.45 34.0 Q13.35 35.65 17.5 38.45 L18.1 38.1 Q21.85 35.5 25.6 34.0 L25.55 34.0 Q29.05 32.45 34.85 31.0 L34.75 30.85 Q29.8 22.5 33.15 13.95 L33.15 13.8 34.4 11.1 33.15 13.8 33.15 13.95 Q29.8 22.5 34.75 30.85 L34.85 31.0 Q29.05 32.45 25.55 34.0 L25.6 34.0 Q21.85 35.5 18.1 38.1 L17.5 38.45 Q13.35 35.65 9.45 34.0 L6.8 32.95 Q11.05 24.4 6.15 15.55 L5.8 14.95 5.45 14.35 9.55 14.35 Q9.5 10.85 13.9 8.35 15.35 7.55 16.95 7.0 17.65 6.7 18.45 6.55 21.05 5.85 24.05 5.85 L29.15 6.4 Q30.95 8.05 31.0 10.1 31.0 10.5 31.3 10.8 31.6 11.1 32.0 11.1 L34.4 11.1 M37.1 9.95 L36.95 10.65 36.55 11.35 36.4 11.6 Q35.6 13.0 35.05 14.5 L35.0 14.7 Q32.0 22.35 36.45 29.8 L36.5 29.85 36.85 30.35 36.9 30.4 37.25 30.95 37.5 31.6 37.3 32.2 36.75 32.6 Q30.15 34.2 26.35 35.85 22.8 37.3 19.15 39.75 L19.1 39.8 19.05 39.85 18.3 40.35 18.35 40.25 17.95 40.55 17.45 40.65 16.95 40.5 Q12.65 37.55 8.65 35.85 4.85 34.2 -1.7 32.6 L-2.2 32.25 -2.45 31.65 -2.25 31.05 Q3.0 23.35 0.3 15.45 L0.3 15.4 Q-0.25 13.6 -1.25 11.85 L-1.65 11.15 -1.9 10.65 -2.1 10.0 -1.75 9.35 Q-1.45 9.1 -1.1 9.1 L2.05 9.1 Q2.25 7.6 3.3 6.3 L3.3 6.25 3.35 6.25 Q4.5 4.65 6.85 3.3 8.35 2.45 10.05 1.85 L10.1 1.85 11.75 1.4 11.65 1.4 Q14.35 0.65 17.5 0.65 23.65 0.65 28.2 3.3 32.5 5.75 32.95 9.1 L36.1 9.1 36.75 9.35 37.1 9.95" fill="#f3efba" fill-rule="evenodd" stroke="none"/>
  </g>
</svg>
