<?xml version="1.0" encoding="UTF-8" standalone="no"?>
<svg xmlns:ffdec="https://www.free-decompiler.com/flash" xmlns:xlink="http://www.w3.org/1999/xlink" ffdec:objectType="shape" height="40.0px" width="39.95px" xmlns="http://www.w3.org/2000/svg">
  <g transform="matrix(1.0, 0.0, 0.0, 1.0, 1.0, 1.0)">
    <path d="M31.9 4.85 Q28.95 4.0 25.55 4.0 L19.9 4.65 18.4 5.1 Q16.8 5.6 15.4 6.45 10.95 8.95 10.95 12.4 L6.9 12.4 7.25 13.0 7.6 13.6 Q12.85 23.15 7.55 32.3 4.35 31.2 -0.1 30.1 6.7 20.15 0.95 9.8 L0.65 9.2 0.25 8.6 4.35 8.6 Q4.35 5.1 8.75 2.6 10.15 1.8 11.75 1.25 L13.25 0.8 18.9 0.15 Q24.7 0.15 29.05 2.6 30.85 3.65 31.9 4.85" fill="#000000" fill-opacity="0.12156863" fill-rule="evenodd" stroke="none"/>
    <path d="M13.2 -0.3 L13.2 -0.25 13.1 -0.25 13.2 -0.3 M4.35 5.25 L4.75 4.65 Q4.5 4.95 4.55 5.35 L4.35 5.25" fill="#959595" fill-rule="evenodd" stroke="none"/>
    <path d="M36.5 12.85 L36.45 13.05 36.5 12.9 36.5 12.85 M21.1 37.75 L20.6 38.1 20.95 37.6 21.1 37.75 M34.65 12.15 L34.6 12.3 34.6 12.15 34.65 12.15" fill="#454545" fill-rule="evenodd" stroke="none"/>
    <path d="M4.75 4.65 L4.75 4.6 4.8 4.6 4.75 4.65 M12.2 2.1 L12.15 2.1 12.1 2.1 12.2 2.1" fill="#cccccc" fill-rule="evenodd" stroke="none"/>
    <path d="M11.55 0.2 L12.25 0.25 12.75 0.85 12.7 1.6 12.25 2.05 12.2 2.1 12.1 2.1 Q10.6 2.65 9.3 3.4 7.4 4.5 6.4 5.75 L6.35 5.8 6.35 5.85 5.7 6.2 4.95 6.0 Q4.6 5.75 4.55 5.35 4.5 4.95 4.75 4.65 L4.8 4.6 Q5.95 3.0 8.3 1.65 9.8 0.8 11.5 0.2 L11.55 0.2" fill="#dddddd" fill-rule="evenodd" stroke="none"/>
    <path d="M13.2 -0.3 L18.95 -1.0 Q25.1 -1.0 29.65 1.65 33.95 4.1 34.4 7.45 L37.55 7.45 38.2 7.7 38.55 8.3 38.4 9.0 38.0 9.7 37.85 9.95 37.45 10.2 36.65 10.15 36.15 9.6 36.15 9.45 35.85 9.45 33.45 9.45 Q33.05 9.45 32.75 9.15 32.45 8.85 32.45 8.45 32.4 5.5 28.65 3.4 24.5 1.0 18.95 1.0 16.1 1.0 13.6 1.7 L13.55 1.7 Q12.85 1.8 12.25 2.05 L12.7 1.6 12.75 0.85 12.25 0.25 11.55 0.2 13.2 -0.25 13.2 -0.3 M20.6 38.1 L20.55 38.15 20.5 38.2 19.75 38.7 19.8 38.6 19.4 38.9 18.9 39.0 18.4 38.85 Q14.1 35.9 10.1 34.2 6.3 32.55 -0.25 30.95 L-0.75 30.6 -1.0 30.0 -0.8 29.4 Q4.45 21.7 1.75 13.8 L1.75 13.75 Q1.2 11.95 0.2 10.2 L-0.2 9.5 -0.45 9.0 -0.65 8.35 -0.3 7.7 Q0.0 7.45 0.35 7.45 L3.5 7.45 Q3.65 6.3 4.35 5.25 L4.55 5.35 Q4.6 5.75 4.95 6.0 L5.7 6.2 6.35 5.85 Q5.4 7.05 5.4 8.45 L5.1 9.15 4.4 9.45 2.1 9.45 3.65 13.15 Q6.45 21.35 1.6 29.35 7.4 30.8 10.9 32.35 14.8 34.0 18.95 36.8 L19.55 36.45 20.3 36.35 20.9 36.85 20.95 37.6 20.6 38.1" fill="#b7b7b7" fill-rule="evenodd" stroke="none"/>
    <path d="M35.85 9.45 L36.15 9.45 36.15 9.6 36.65 10.15 37.45 10.2 37.85 9.95 36.5 12.85 36.5 12.1 Q36.3 11.7 35.95 11.6 35.55 11.4 35.15 11.6 34.75 11.75 34.65 12.15 L34.6 12.15 Q35.1 10.75 35.85 9.45 M37.95 28.2 L38.3 28.7 38.35 28.75 38.7 29.3 38.95 29.95 38.75 30.55 38.2 30.95 Q31.6 32.55 27.8 34.2 24.45 35.55 21.1 37.75 L20.95 37.6 20.9 36.85 20.3 36.35 19.55 36.45 Q23.3 33.85 27.05 32.35 L27.0 32.35 Q30.5 30.8 36.3 29.35 L36.8 29.65 37.55 29.5 38.05 28.9 37.95 28.2" fill="#949494" fill-rule="evenodd" stroke="none"/>
    <path d="M36.45 13.05 Q33.45 20.7 37.9 28.15 L37.95 28.2 38.05 28.9 37.55 29.5 36.8 29.65 36.3 29.35 36.2 29.2 Q31.25 20.85 34.6 12.3 L34.65 12.15 Q34.75 11.75 35.15 11.6 35.55 11.4 35.95 11.6 36.3 11.7 36.5 12.1 L36.5 12.85 36.5 12.9 36.45 13.05" fill="#808080" fill-rule="evenodd" stroke="none"/>
  </g>
</svg>
