<?xml version="1.0" encoding="UTF-8" standalone="no"?>
<svg xmlns:ffdec="https://www.free-decompiler.com/flash" xmlns:xlink="http://www.w3.org/1999/xlink" ffdec:objectType="shape" height="54.05px" width="53.9px" xmlns="http://www.w3.org/2000/svg">
  <g transform="matrix(1.0, 0.0, 0.0, 1.0, 0.0, 0.0)">
    <path d="M48.5 10.9 L49.35 12.0 Q50.4 13.45 51.1 15.25 53.9 20.85 53.9 27.0 53.9 32.95 51.1 38.55 49.8 41.3 48.5 43.05 47.3 41.1 44.65 38.9 39.4 34.4 32.45 32.65 34.15 39.5 38.8 44.75 41.0 47.4 43.0 48.65 41.35 49.95 38.55 51.4 32.95 54.05 26.95 54.05 20.8 54.05 15.2 51.4 13.45 50.5 12.0 49.45 L10.8 48.65 Q12.75 47.4 15.05 44.75 19.55 39.5 21.35 32.65 14.35 34.4 9.05 38.9 6.45 41.1 5.3 43.05 4.0 41.3 2.65 38.55 0.0 32.95 0.0 27.0 0.0 20.85 2.65 15.25 4.0 12.45 5.3 10.9 6.45 12.8 9.05 15.1 14.35 19.6 21.35 21.4 19.55 14.4 15.05 9.25 12.75 6.45 10.8 5.3 12.3 4.0 15.2 2.65 20.8 0.0 26.95 0.0 32.95 0.0 38.55 2.65 41.35 4.0 43.0 5.3 41.0 6.45 38.8 9.25 34.15 14.4 32.45 21.4 39.4 19.6 44.65 15.1 47.3 12.8 48.5 10.9 M43.0 21.15 Q36.2 24.95 28.4 25.45 28.85 17.75 32.75 10.9 34.8 7.5 36.75 5.75 35.65 5.0 33.9 4.5 30.3 3.35 26.95 3.35 23.55 3.35 20.0 4.5 L17.15 5.75 Q19.0 7.5 20.95 10.9 24.9 17.75 25.4 25.45 17.7 24.95 10.9 21.15 7.45 19.05 5.6 17.2 L4.5 20.05 Q3.3 23.6 3.3 27.0 3.3 30.3 4.5 33.95 5.0 35.75 5.6 36.85 7.45 34.9 10.9 32.85 17.7 28.9 25.4 28.55 24.9 36.3 20.95 43.05 19.0 46.4 17.15 48.25 L20.0 49.45 Q23.55 50.7 26.95 50.6 30.3 50.7 33.9 49.45 L36.75 48.25 Q34.8 46.4 32.75 43.05 28.85 36.3 28.4 28.55 36.2 28.9 43.0 32.85 46.3 34.9 48.15 36.85 L49.35 33.95 Q50.5 30.3 50.5 27.0 50.5 23.6 49.35 20.05 L48.15 17.2 43.0 21.15" fill="#000000" fill-rule="evenodd" stroke="none"/>
  </g>
</svg>
