<?xml version="1.0" encoding="UTF-8" standalone="no"?>
<svg xmlns:ffdec="https://www.free-decompiler.com/flash" xmlns:xlink="http://www.w3.org/1999/xlink" ffdec:objectType="frame" height="56.0px" width="56.0px" xmlns="http://www.w3.org/2000/svg">
  <g transform="matrix(1.0, 0.0, 0.0, 1.0, 0.0, 0.0)">
    <use ffdec:characterId="11" ffdec:characterName="10_fla.Symbole30_1" height="56.0" id="back" transform="matrix(1.0, 0.0, 0.0, 1.0, 0.0, 0.0)" width="56.0" xlink:href="#sprite0"/>
    <use ffdec:characterId="13" height="55.55" id="back" transform="matrix(1.0, 0.0, 0.0, 1.0, 0.4, 0.45)" width="55.4" xlink:href="#sprite10"/>
    <use ffdec:characterId="15" height="54.05" id="up" transform="matrix(1.0, 0.0, 0.0, 1.0, 1.15, 1.2)" width="53.9" xlink:href="#sprite11"/>
  </g>
  <defs>
    <g id="sprite0" transform="matrix(1.0, 0.0, 0.0, 1.0, 0.0, 0.0)">
      <use ffdec:characterId="10" ffdec:characterName="10_fla.Symbole27_2" height="56.0" id="back" transform="matrix(1.0, 0.0, 0.0, 1.0, 0.0, 0.0)" width="56.0" xlink:href="#sprite1"/>
    </g>
    <g id="sprite1" transform="matrix(1.0, 0.0, 0.0, 1.0, 0.0, 0.0)">
      <use ffdec:characterId="9" ffdec:characterName="10_fla.Symbole24_3" height="56.0" id="back" transform="matrix(1.0, 0.0, 0.0, 1.0, 0.0, 0.0)" width="56.0" xlink:href="#sprite2"/>
    </g>
    <g id="sprite2" transform="matrix(1.0, 0.0, 0.0, 1.0, 0.0, 0.0)">
      <use ffdec:characterId="8" ffdec:characterName="10_fla.Symbole21_4" height="56.0" id="back" transform="matrix(1.0, 0.0, 0.0, 1.0, 0.0, 0.0)" width="56.0" xlink:href="#sprite3"/>
    </g>
    <g id="sprite3" transform="matrix(1.0, 0.0, 0.0, 1.0, 0.0, 0.0)">
      <use ffdec:characterId="7" ffdec:characterName="10_fla.Symbole18_5" height="56.0" id="back" transform="matrix(1.0, 0.0, 0.0, 1.0, 0.0, 0.0)" width="56.0" xlink:href="#sprite4"/>
    </g>
    <g id="sprite4" transform="matrix(1.0, 0.0, 0.0, 1.0, 0.0, 0.0)">
      <use ffdec:characterId="6" ffdec:characterName="10_fla.Symbole15_6" height="56.0" id="back" transform="matrix(1.0, 0.0, 0.0, 1.0, 0.0, 0.0)" width="56.0" xlink:href="#sprite5"/>
    </g>
    <g id="sprite5" transform="matrix(1.0, 0.0, 0.0, 1.0, 0.0, 0.0)">
      <use ffdec:characterId="5" ffdec:characterName="10_fla.Symbole12_7" height="56.0" id="back" transform="matrix(1.0, 0.0, 0.0, 1.0, 0.0, 0.0)" width="56.0" xlink:href="#sprite6"/>
    </g>
    <g id="sprite6" transform="matrix(1.0, 0.0, 0.0, 1.0, 0.0, 0.0)">
      <use ffdec:characterId="4" ffdec:characterName="10_fla.Symbole9_8" height="56.0" id="back" transform="matrix(1.0, 0.0, 0.0, 1.0, 0.0, 0.0)" width="56.0" xlink:href="#sprite7"/>
    </g>
    <g id="sprite7" transform="matrix(1.0, 0.0, 0.0, 1.0, 0.0, 0.0)">
      <use ffdec:characterId="3" ffdec:characterName="10_fla.Symbole6_9" height="56.0" id="back" transform="matrix(1.0, 0.0, 0.0, 1.0, 0.0, 0.0)" width="56.0" xlink:href="#sprite8"/>
    </g>
    <g id="sprite8" transform="matrix(1.0, 0.0, 0.0, 1.0, 0.0, 0.0)">
      <use ffdec:characterId="2" height="56.0" id="back" transform="matrix(1.0, 0.0, 0.0, 1.0, 0.0, 0.0)" width="56.0" xlink:href="#sprite9"/>
    </g>
    <g id="sprite9" transform="matrix(1.0, 0.0, 0.0, 1.0, 0.0, 0.0)">
      <use ffdec:characterId="1" height="56.0" transform="matrix(1.0, 0.0, 0.0, 1.0, 0.0, 0.0)" width="56.0" xlink:href="#shape0"/>
    </g>
    <g id="shape0" transform="matrix(1.0, 0.0, 0.0, 1.0, 0.0, 0.0)">
      <path d="M56.0 56.0 L0.0 56.0 0.0 0.0 56.0 0.0 56.0 56.0" fill="#010101" fill-opacity="0.0" fill-rule="evenodd" stroke="none"/>
    </g>
    <g id="sprite10" transform="matrix(1.0, 0.0, 0.0, 1.0, 0.75, 0.75)">
      <use ffdec:characterId="12" height="55.55" transform="matrix(1.0, 0.0, 0.0, 1.0, -0.75, -0.75)" width="55.4" xlink:href="#shape1"/>
    </g>
    <g id="shape1" transform="matrix(1.0, 0.0, 0.0, 1.0, 0.75, 0.75)">
      <path d="M45.75 7.15 L46.2 7.05 Q46.2 6.9 45.9 6.85 39.85 4.1 35.75 6.85 32.6 8.8 31.1 13.3 30.85 13.55 30.8 13.15 28.3 8.8 29.8 4.7 30.35 3.05 31.45 1.9 32.3 0.75 33.25 0.4 L33.6 0.15 Q33.6 -0.05 33.25 0.0 26.7 0.65 24.55 5.1 22.8 8.35 23.7 13.1 23.75 13.3 23.35 13.1 19.0 10.35 18.3 6.25 17.95 4.55 18.3 3.05 18.55 1.65 19.15 0.75 L19.25 0.4 18.95 0.45 Q13.6 4.25 13.85 9.3 14.05 12.9 17.25 16.6 L17.0 16.8 Q11.9 16.65 9.1 13.4 7.95 12.1 7.5 10.6 6.95 9.2 7.05 8.2 L7.05 7.75 6.75 8.0 Q4.05 14.0 6.9 18.15 8.8 21.2 13.35 22.8 13.6 22.9 13.2 23.1 8.65 25.5 4.7 24.1 3.1 23.55 1.95 22.65 0.65 21.6 0.4 20.7 L0.05 20.3 0.05 20.7 Q0.65 27.25 5.15 29.55 8.25 31.1 13.0 30.25 L13.15 30.65 Q10.4 34.95 6.2 35.65 2.85 36.35 0.8 34.8 L0.4 34.75 Q0.2 34.75 0.5 35.05 4.3 40.35 9.25 40.15 12.9 39.9 16.55 36.75 16.8 36.5 16.8 37.1 16.55 42.05 13.35 44.85 12.05 46.0 10.6 46.45 9.25 47.05 8.2 46.9 L7.75 46.9 8.05 47.3 Q13.95 49.85 18.15 47.3 21.2 45.15 22.8 40.75 22.9 40.45 23.1 40.75 25.45 45.15 24.1 49.25 23.55 50.95 22.45 52.1 21.6 53.15 20.65 53.6 20.3 53.75 20.3 54.0 L20.65 54.05 Q27.15 53.3 29.35 48.85 31.0 45.6 30.2 41.0 30.15 40.6 30.55 40.85 34.75 43.6 35.6 47.75 35.95 49.4 35.6 51.0 35.4 52.3 34.75 53.15 34.55 53.55 34.7 53.6 L35.0 53.55 Q40.3 49.65 40.1 44.7 39.85 41.05 36.65 37.4 36.5 37.1 36.9 37.2 41.85 37.35 44.8 40.6 45.9 41.9 46.4 43.35 46.95 44.7 46.85 45.85 L46.85 46.25 47.15 46.0 Q49.75 40.0 47.0 35.8 45.05 32.65 40.55 31.1 40.3 31.05 40.7 30.85 45.1 28.45 49.2 29.8 50.75 30.4 52.0 31.5 53.1 32.35 53.5 33.3 L53.85 33.7 53.85 33.3 Q53.25 26.75 48.75 24.55 45.55 22.8 40.9 23.7 40.55 23.7 40.8 23.35 43.5 19.0 47.7 18.3 49.35 17.95 50.85 18.3 52.2 18.55 53.1 19.15 L53.5 19.4 Q53.65 19.25 53.4 18.95 49.55 13.6 44.6 14.0 40.9 14.05 37.35 17.2 37.1 17.4 37.1 17.0 37.25 11.85 40.55 9.05 41.75 8.0 43.3 7.5 44.65 7.05 45.75 7.15 M36.8 17.2 Q40.8 21.2 40.8 27.0 40.8 32.8 36.8 36.9 32.75 40.85 27.0 40.85 21.2 40.85 17.1 36.9 13.0 32.8 13.15 27.0 13.0 21.2 17.1 17.2 21.2 13.1 27.0 13.1 32.75 13.1 36.8 17.2 Z" fill="none" stroke="#000000" stroke-linecap="round" stroke-linejoin="round" stroke-opacity="0.2" stroke-width="1.5"/>
    </g>
    <g id="sprite11" transform="matrix(1.0, 0.0, 0.0, 1.0, 0.0, 0.0)">
      <use ffdec:characterId="14" height="54.05" transform="matrix(1.0, 0.0, 0.0, 1.0, 0.0, 0.0)" width="53.9" xlink:href="#shape2"/>
    </g>
    <g id="shape2" transform="matrix(1.0, 0.0, 0.0, 1.0, 0.0, 0.0)">
      <path d="M36.8 17.2 Q32.75 13.1 27.0 13.1 21.2 13.1 17.1 17.2 13.0 21.2 13.15 27.0 13.0 32.8 17.1 36.9 21.2 40.85 27.0 40.85 32.75 40.85 36.8 36.9 40.8 32.8 40.8 27.0 40.8 21.2 36.8 17.2 M45.75 7.15 Q44.65 7.05 43.3 7.5 41.75 8.0 40.55 9.05 37.25 11.85 37.1 17.0 37.1 17.4 37.35 17.2 40.9 14.05 44.6 14.0 49.55 13.6 53.4 18.95 53.65 19.25 53.5 19.4 L53.1 19.15 Q52.2 18.55 50.85 18.3 49.35 17.95 47.7 18.3 43.5 19.0 40.8 23.35 40.55 23.7 40.9 23.7 45.55 22.8 48.75 24.55 53.25 26.75 53.85 33.3 L53.85 33.7 53.5 33.3 Q53.1 32.35 52.0 31.5 50.75 30.4 49.2 29.8 45.1 28.45 40.7 30.85 40.3 31.05 40.55 31.1 45.05 32.65 47.0 35.8 49.75 40.0 47.15 46.0 L46.85 46.25 46.85 45.85 Q46.95 44.7 46.4 43.35 45.9 41.9 44.8 40.6 41.85 37.35 36.9 37.2 36.5 37.1 36.65 37.4 39.85 41.05 40.1 44.7 40.3 49.65 35.0 53.55 L34.7 53.6 Q34.55 53.55 34.75 53.15 35.4 52.3 35.6 51.0 35.95 49.4 35.6 47.75 34.75 43.6 30.55 40.85 30.15 40.6 30.2 41.0 31.0 45.6 29.35 48.85 27.15 53.3 20.65 54.05 L20.3 54.0 Q20.3 53.75 20.65 53.6 21.6 53.15 22.45 52.1 23.55 50.95 24.1 49.25 25.45 45.15 23.1 40.75 22.9 40.45 22.8 40.75 21.2 45.15 18.15 47.3 13.95 49.85 8.05 47.3 L7.75 46.9 8.2 46.9 Q9.25 47.05 10.6 46.45 12.05 46.0 13.35 44.85 16.55 42.05 16.8 37.1 16.8 36.5 16.55 36.75 12.9 39.9 9.25 40.15 4.3 40.35 0.5 35.05 0.2 34.75 0.4 34.75 L0.8 34.8 Q2.85 36.35 6.2 35.65 10.4 34.95 13.15 30.65 L13.0 30.25 Q8.25 31.1 5.15 29.55 0.65 27.25 0.05 20.7 L0.05 20.3 0.4 20.7 Q0.65 21.6 1.95 22.65 3.1 23.55 4.7 24.1 8.65 25.5 13.2 23.1 13.6 22.9 13.35 22.8 8.8 21.2 6.9 18.15 4.05 14.0 6.75 8.0 L7.05 7.75 7.05 8.2 Q6.95 9.2 7.5 10.6 7.95 12.1 9.1 13.4 11.9 16.65 17.0 16.8 L17.25 16.6 Q14.05 12.9 13.85 9.3 13.6 4.25 18.95 0.45 L19.25 0.4 19.15 0.75 Q18.55 1.65 18.3 3.05 17.95 4.55 18.3 6.25 19.0 10.35 23.35 13.1 23.75 13.3 23.7 13.1 22.8 8.35 24.55 5.1 26.7 0.65 33.25 0.0 33.6 -0.05 33.6 0.15 L33.25 0.4 Q32.3 0.75 31.45 1.9 30.35 3.05 29.8 4.7 28.3 8.8 30.8 13.15 30.85 13.55 31.1 13.3 32.6 8.8 35.75 6.85 39.85 4.1 45.9 6.85 46.2 6.9 46.2 7.05 L45.75 7.15" fill="#000000" fill-rule="evenodd" stroke="none"/>
    </g>
  </defs>
</svg>
