<?xml version="1.0" encoding="UTF-8" standalone="no"?>
<svg xmlns:ffdec="https://www.free-decompiler.com/flash" xmlns:xlink="http://www.w3.org/1999/xlink" ffdec:objectType="frame" height="56.0px" width="56.0px" xmlns="http://www.w3.org/2000/svg">
  <g transform="matrix(1.0, 0.0, 0.0, 1.0, 0.0, 0.0)">
    <use ffdec:characterId="9" ffdec:characterName="100_fla.Symbole24_1" height="56.0" id="back" transform="matrix(1.0, 0.0, 0.0, 1.0, 0.0, 0.0)" width="56.0" xlink:href="#sprite0"/>
    <use ffdec:characterId="11" height="54.0" id="back" transform="matrix(1.0, 0.0, 0.0, 1.0, 0.4, 1.05)" width="55.4" xlink:href="#sprite8"/>
    <use ffdec:characterId="13" height="52.5" id="up" transform="matrix(1.0, 0.0, 0.0, 1.0, 1.15, 1.8)" width="53.9" xlink:href="#sprite9"/>
  </g>
  <defs>
    <g id="sprite0" transform="matrix(1.0, 0.0, 0.0, 1.0, 0.0, 0.0)">
      <use ffdec:characterId="8" ffdec:characterName="100_fla.Symbole21_2" height="56.0" id="back" transform="matrix(1.0, 0.0, 0.0, 1.0, 0.0, 0.0)" width="56.0" xlink:href="#sprite1"/>
    </g>
    <g id="sprite1" transform="matrix(1.0, 0.0, 0.0, 1.0, 0.0, 0.0)">
      <use ffdec:characterId="7" ffdec:characterName="100_fla.Symbole18_3" height="56.0" id="back" transform="matrix(1.0, 0.0, 0.0, 1.0, 0.0, 0.0)" width="56.0" xlink:href="#sprite2"/>
    </g>
    <g id="sprite2" transform="matrix(1.0, 0.0, 0.0, 1.0, 0.0, 0.0)">
      <use ffdec:characterId="6" ffdec:characterName="100_fla.Symbole15_4" height="56.0" id="back" transform="matrix(1.0, 0.0, 0.0, 1.0, 0.0, 0.0)" width="56.0" xlink:href="#sprite3"/>
    </g>
    <g id="sprite3" transform="matrix(1.0, 0.0, 0.0, 1.0, 0.0, 0.0)">
      <use ffdec:characterId="5" ffdec:characterName="100_fla.Symbole12_5" height="56.0" id="back" transform="matrix(1.0, 0.0, 0.0, 1.0, 0.0, 0.0)" width="56.0" xlink:href="#sprite4"/>
    </g>
    <g id="sprite4" transform="matrix(1.0, 0.0, 0.0, 1.0, 0.0, 0.0)">
      <use ffdec:characterId="4" ffdec:characterName="100_fla.Symbole9_6" height="56.0" id="back" transform="matrix(1.0, 0.0, 0.0, 1.0, 0.0, 0.0)" width="56.0" xlink:href="#sprite5"/>
    </g>
    <g id="sprite5" transform="matrix(1.0, 0.0, 0.0, 1.0, 0.0, 0.0)">
      <use ffdec:characterId="3" ffdec:characterName="100_fla.Symbole6_7" height="56.0" id="back" transform="matrix(1.0, 0.0, 0.0, 1.0, 0.0, 0.0)" width="56.0" xlink:href="#sprite6"/>
    </g>
    <g id="sprite6" transform="matrix(1.0, 0.0, 0.0, 1.0, 0.0, 0.0)">
      <use ffdec:characterId="2" height="56.0" id="back" transform="matrix(1.0, 0.0, 0.0, 1.0, 0.0, 0.0)" width="56.0" xlink:href="#sprite7"/>
    </g>
    <g id="sprite7" transform="matrix(1.0, 0.0, 0.0, 1.0, 0.0, 0.0)">
      <use ffdec:characterId="1" height="56.0" transform="matrix(1.0, 0.0, 0.0, 1.0, 0.0, 0.0)" width="56.0" xlink:href="#shape0"/>
    </g>
    <g id="shape0" transform="matrix(1.0, 0.0, 0.0, 1.0, 0.0, 0.0)">
      <path d="M56.0 56.0 L0.0 56.0 0.0 0.0 56.0 0.0 56.0 56.0" fill="#010101" fill-opacity="0.0" fill-rule="evenodd" stroke="none"/>
    </g>
    <g id="sprite8" transform="matrix(1.0, 0.0, 0.0, 1.0, 0.75, 0.75)">
      <use ffdec:characterId="10" height="54.0" transform="matrix(1.0, 0.0, 0.0, 1.0, -0.75, -0.75)" width="55.4" xlink:href="#shape1"/>
    </g>
    <g id="shape1" transform="matrix(1.0, 0.0, 0.0, 1.0, 0.75, 0.75)">
      <path d="M41.9 3.45 L43.25 5.3 Q46.2 9.25 47.05 14.6 47.6 18.05 47.05 21.3 46.3 26.05 43.25 30.3 L40.95 33.05 Q36.3 37.65 29.45 38.7 L28.45 38.95 28.6 38.95 30.65 38.7 Q36.45 37.8 40.6 34.35 L43.85 30.9 44.15 30.4 Q49.2 23.55 47.8 15.2 46.8 8.8 42.7 4.4 L41.9 3.45 M40.95 2.15 L42.85 3.45 46.75 6.85 48.45 8.95 Q52.4 14.0 53.5 21.1 55.3 32.15 48.75 41.3 42.1 50.3 31.1 52.15 20.05 53.85 11.15 47.25 2.05 40.6 0.35 29.55 -1.4 18.4 5.25 9.45 L5.55 8.95 5.95 8.4 6.25 8.0 6.3 7.85 Q7.75 6.1 9.45 4.7 L9.9 4.35 9.2 5.35 Q8.05 6.8 7.25 8.4 4.3 14.2 5.3 21.1 6.7 29.7 13.8 34.95 L16.3 36.55 Q11.95 31.85 9.2 27.75 7.75 24.9 7.25 21.55 6.55 17.2 7.55 13.35 7.0 16.35 7.45 19.5 8.0 23.45 9.9 26.45 L9.5 24.9 Q9.2 23.2 9.65 21.75 9.5 22.45 9.7 23.2 10.15 26.2 12.65 28.1 13.65 28.85 14.85 29.1 13.65 28.35 13.15 27.2 L14.4 28.5 Q15.6 29.35 16.9 29.4 L18.15 29.35 20.45 28.7 21.75 27.25 Q23.0 25.5 22.7 23.45 22.35 21.25 20.6 19.85 L19.75 19.3 20.2 19.35 21.45 20.1 Q23.25 21.45 23.7 23.75 L23.75 25.15 Q24.6 23.2 24.25 20.85 L24.0 20.0 23.55 18.65 24.7 20.55 Q24.4 18.25 23.25 16.1 21.05 12.0 16.6 10.9 14.8 10.3 13.15 10.45 L12.2 10.55 12.2 10.45 13.15 10.3 Q15.0 10.15 17.05 10.75 21.8 12.0 24.4 16.55 L24.45 16.6 Q24.25 13.5 25.9 11.0 25.4 12.75 25.7 14.95 26.35 18.8 29.3 20.85 32.05 22.85 35.3 22.7 33.7 22.3 32.1 21.3 29.8 19.55 29.35 16.65 28.9 13.85 30.6 11.45 L30.8 11.2 Q29.6 13.2 30.05 15.45 30.3 17.95 32.35 19.35 34.25 20.8 36.7 20.4 39.15 20.1 40.65 18.05 42.1 15.95 41.7 13.5 41.35 11.05 39.35 9.7 38.2 8.95 37.15 8.55 38.9 8.8 40.4 9.95 42.7 11.7 43.25 14.6 L43.35 16.2 43.55 15.35 43.4 14.35 43.35 12.7 Q43.05 10.7 42.35 8.8 41.1 5.4 38.75 2.85 43.4 6.85 45.35 14.0 47.3 21.25 41.9 30.05 L42.2 29.65 Q47.5 22.25 46.3 13.5 L45.6 10.55 Q44.55 7.85 43.05 5.75 41.1 3.15 38.35 1.15 L36.6 0.0 38.35 0.7 39.65 1.45 40.95 2.15 M51.2 17.85 Q52.5 26.75 48.1 34.25 52.0 26.9 51.2 20.85 L49.65 12.15 Q50.7 14.75 51.2 17.85 M4.5 11.55 L5.05 10.05 Q1.15 17.15 2.4 25.5 3.85 34.95 11.2 40.9 L8.2 36.8 Q5.1 32.5 3.55 22.75 2.65 16.8 4.5 11.55 Z" fill="none" stroke="#000000" stroke-linecap="round" stroke-linejoin="round" stroke-opacity="0.2" stroke-width="1.5"/>
    </g>
    <g id="sprite9" transform="matrix(1.0, 0.0, 0.0, 1.0, 0.0, 0.0)">
      <use ffdec:characterId="12" height="52.5" transform="matrix(1.0, 0.0, 0.0, 1.0, 0.0, 0.0)" width="53.9" xlink:href="#shape2"/>
    </g>
    <g id="shape2" transform="matrix(1.0, 0.0, 0.0, 1.0, 0.0, 0.0)">
      <path d="M41.9 3.45 L43.25 5.3 Q46.2 9.25 47.05 14.6 47.6 18.05 47.05 21.3 46.3 26.05 43.25 30.3 L40.95 33.05 Q36.3 37.65 29.45 38.7 L28.45 38.95 28.6 38.95 30.65 38.7 Q36.45 37.8 40.6 34.35 L43.85 30.9 44.15 30.4 Q49.2 23.55 47.8 15.2 46.8 8.8 42.7 4.4 L41.9 3.45 M48.45 8.95 Q52.4 14.0 53.5 21.1 55.3 32.15 48.75 41.3 42.1 50.3 31.1 52.15 20.05 53.85 11.15 47.25 2.05 40.6 0.35 29.55 -1.4 18.4 5.25 9.45 L5.55 8.95 5.95 8.4 6.25 8.0 6.3 7.85 Q7.75 6.1 9.45 4.7 L9.9 4.35 9.2 5.35 Q8.05 6.8 7.25 8.4 4.3 14.2 5.3 21.1 6.7 29.7 13.8 34.95 L16.3 36.55 Q11.95 31.85 9.2 27.75 7.75 24.9 7.25 21.55 6.55 17.2 7.55 13.35 7.0 16.35 7.45 19.5 8.0 23.45 9.9 26.45 L9.5 24.9 Q9.2 23.2 9.65 21.75 9.5 22.45 9.7 23.2 10.15 26.2 12.65 28.1 13.65 28.85 14.85 29.1 13.65 28.35 13.15 27.2 L14.4 28.5 Q15.6 29.35 16.9 29.4 L18.15 29.35 20.45 28.7 21.75 27.25 Q23.0 25.5 22.7 23.45 22.35 21.25 20.6 19.85 L19.75 19.3 20.2 19.35 21.45 20.1 Q23.25 21.45 23.7 23.75 L23.75 25.15 Q24.6 23.2 24.25 20.85 L24.0 20.0 23.55 18.65 24.7 20.55 Q24.4 18.25 23.25 16.1 21.05 12.0 16.6 10.9 14.8 10.3 13.15 10.45 L12.2 10.55 12.2 10.45 13.15 10.3 Q15.0 10.15 17.05 10.75 21.8 12.0 24.4 16.55 L24.45 16.6 Q24.25 13.5 25.9 11.0 25.4 12.75 25.7 14.95 26.35 18.8 29.3 20.85 32.05 22.85 35.3 22.7 33.7 22.3 32.1 21.3 29.8 19.55 29.35 16.65 28.9 13.85 30.6 11.45 L30.8 11.2 Q29.6 13.2 30.05 15.45 30.3 17.95 32.35 19.35 34.25 20.8 36.7 20.4 39.15 20.1 40.65 18.05 42.1 15.95 41.7 13.5 41.35 11.05 39.35 9.7 38.2 8.95 37.15 8.55 38.9 8.8 40.4 9.95 42.7 11.7 43.25 14.6 L43.35 16.2 43.55 15.35 43.4 14.35 43.35 12.7 Q43.05 10.7 42.35 8.8 41.1 5.4 38.75 2.85 43.4 6.85 45.35 14.0 47.3 21.25 41.9 30.05 L42.2 29.65 Q47.5 22.25 46.3 13.5 L45.6 10.55 Q44.55 7.85 43.05 5.75 41.1 3.15 38.35 1.15 L36.6 0.0 38.35 0.7 39.65 1.45 40.95 2.15 42.85 3.45 46.75 6.85 48.45 8.95 M51.2 17.85 Q50.7 14.75 49.65 12.15 L51.2 20.85 Q52.0 26.9 48.1 34.25 52.5 26.75 51.2 17.85 M4.5 11.55 L5.05 10.05 Q1.15 17.15 2.4 25.5 3.85 34.95 11.2 40.9 L8.2 36.8 Q5.1 32.5 3.55 22.75 2.65 16.8 4.5 11.55" fill="#000000" fill-rule="evenodd" stroke="none"/>
    </g>
  </defs>
</svg>
