<?xml version="1.0" encoding="UTF-8" standalone="no"?>
<svg xmlns:ffdec="https://www.free-decompiler.com/flash" xmlns:xlink="http://www.w3.org/1999/xlink" ffdec:objectType="frame" height="56.0px" width="56.0px" xmlns="http://www.w3.org/2000/svg">
  <g transform="matrix(1.0, 0.0, 0.0, 1.0, 0.0, 0.0)">
    <use ffdec:characterId="10" ffdec:characterName="101_fla.Symbole27_1" height="56.0" id="back" transform="matrix(1.0, 0.0, 0.0, 1.0, 0.0, 0.0)" width="56.0" xlink:href="#sprite0"/>
    <use ffdec:characterId="12" height="55.55" id="back" transform="matrix(1.0, 0.0, 0.0, 1.0, 10.2, 0.45)" width="35.3" xlink:href="#sprite9"/>
    <use ffdec:characterId="14" height="54.0" id="up" transform="matrix(1.0, 0.0, 0.0, 1.0, 11.0, 1.2)" width="33.8" xlink:href="#sprite10"/>
  </g>
  <defs>
    <g id="sprite0" transform="matrix(1.0, 0.0, 0.0, 1.0, 0.0, 0.0)">
      <use ffdec:characterId="9" ffdec:characterName="101_fla.Symbole24_2" height="56.0" id="back" transform="matrix(1.0, 0.0, 0.0, 1.0, 0.0, 0.0)" width="56.0" xlink:href="#sprite1"/>
    </g>
    <g id="sprite1" transform="matrix(1.0, 0.0, 0.0, 1.0, 0.0, 0.0)">
      <use ffdec:characterId="8" ffdec:characterName="101_fla.Symbole21_3" height="56.0" id="back" transform="matrix(1.0, 0.0, 0.0, 1.0, 0.0, 0.0)" width="56.0" xlink:href="#sprite2"/>
    </g>
    <g id="sprite2" transform="matrix(1.0, 0.0, 0.0, 1.0, 0.0, 0.0)">
      <use ffdec:characterId="7" ffdec:characterName="101_fla.Symbole18_4" height="56.0" id="back" transform="matrix(1.0, 0.0, 0.0, 1.0, 0.0, 0.0)" width="56.0" xlink:href="#sprite3"/>
    </g>
    <g id="sprite3" transform="matrix(1.0, 0.0, 0.0, 1.0, 0.0, 0.0)">
      <use ffdec:characterId="6" ffdec:characterName="101_fla.Symbole15_5" height="56.0" id="back" transform="matrix(1.0, 0.0, 0.0, 1.0, 0.0, 0.0)" width="56.0" xlink:href="#sprite4"/>
    </g>
    <g id="sprite4" transform="matrix(1.0, 0.0, 0.0, 1.0, 0.0, 0.0)">
      <use ffdec:characterId="5" ffdec:characterName="101_fla.Symbole12_6" height="56.0" id="back" transform="matrix(1.0, 0.0, 0.0, 1.0, 0.0, 0.0)" width="56.0" xlink:href="#sprite5"/>
    </g>
    <g id="sprite5" transform="matrix(1.0, 0.0, 0.0, 1.0, 0.0, 0.0)">
      <use ffdec:characterId="4" ffdec:characterName="101_fla.Symbole9_7" height="56.0" id="back" transform="matrix(1.0, 0.0, 0.0, 1.0, 0.0, 0.0)" width="56.0" xlink:href="#sprite6"/>
    </g>
    <g id="sprite6" transform="matrix(1.0, 0.0, 0.0, 1.0, 0.0, 0.0)">
      <use ffdec:characterId="3" ffdec:characterName="101_fla.Symbole6_8" height="56.0" id="back" transform="matrix(1.0, 0.0, 0.0, 1.0, 0.0, 0.0)" width="56.0" xlink:href="#sprite7"/>
    </g>
    <g id="sprite7" transform="matrix(1.0, 0.0, 0.0, 1.0, 0.0, 0.0)">
      <use ffdec:characterId="2" height="56.0" id="back" transform="matrix(1.0, 0.0, 0.0, 1.0, 0.0, 0.0)" width="56.0" xlink:href="#sprite8"/>
    </g>
    <g id="sprite8" transform="matrix(1.0, 0.0, 0.0, 1.0, 0.0, 0.0)">
      <use ffdec:characterId="1" height="56.0" transform="matrix(1.0, 0.0, 0.0, 1.0, 0.0, 0.0)" width="56.0" xlink:href="#shape0"/>
    </g>
    <g id="shape0" transform="matrix(1.0, 0.0, 0.0, 1.0, 0.0, 0.0)">
      <path d="M56.0 56.0 L0.0 56.0 0.0 0.0 56.0 0.0 56.0 56.0" fill="#010101" fill-opacity="0.0" fill-rule="evenodd" stroke="none"/>
    </g>
    <g id="sprite9" transform="matrix(1.0, 0.0, 0.0, 1.0, 0.75, 0.75)">
      <use ffdec:characterId="11" height="55.55" transform="matrix(1.0, 0.0, 0.0, 1.0, -0.75, -0.75)" width="35.3" xlink:href="#shape1"/>
    </g>
    <g id="shape1" transform="matrix(1.0, 0.0, 0.0, 1.0, 0.75, 0.75)">
      <path d="M30.05 21.0 Q28.95 20.7 28.1 19.85 27.35 19.2 27.65 18.9 L28.9 17.05 29.75 16.65 Q31.2 17.65 31.1 19.25 L30.9 20.6 30.75 20.85 Q30.4 21.2 30.05 21.0 M30.35 22.9 L30.1 22.7 Q29.35 22.5 28.8 22.0 L27.45 20.85 26.85 20.05 26.15 21.0 Q26.25 22.2 27.45 22.9 L29.35 24.45 29.45 24.8 Q29.1 25.45 27.9 25.1 26.55 24.5 25.55 23.35 L25.15 22.6 25.65 20.85 Q24.5 19.85 22.95 19.35 L20.1 18.5 17.85 18.2 18.15 8.75 22.05 10.9 17.0 0.0 12.1 10.9 15.9 8.75 16.2 18.2 12.9 18.75 Q11.2 19.2 9.8 19.95 L9.2 20.55 9.0 21.05 9.15 21.7 Q9.05 23.35 8.3 24.35 7.2 25.65 5.7 25.35 L4.75 24.9 6.85 22.75 8.15 21.15 7.3 19.85 6.05 21.7 Q5.15 22.65 3.75 22.65 L3.95 24.05 2.05 27.9 Q1.05 29.75 0.45 31.9 -0.25 34.3 0.2 36.75 0.8 39.25 1.9 41.6 3.2 44.35 5.25 46.55 L6.15 47.55 Q4.2 48.4 2.45 49.9 1.75 50.55 1.35 51.4 L1.05 52.35 Q1.5 53.5 2.75 53.85 L5.45 53.65 7.55 52.95 9.45 52.2 Q10.8 51.75 12.2 50.65 L22.5 51.05 26.15 52.8 30.05 53.55 31.85 53.4 32.85 52.95 33.15 52.25 Q32.5 50.15 30.9 49.15 L27.75 47.5 30.1 45.2 Q31.8 43.45 32.85 41.1 33.8 38.7 33.8 36.2 L33.65 32.95 Q33.15 29.0 30.9 25.65 30.4 24.8 30.25 24.05 30.25 23.75 30.4 23.6 L30.4 23.2 30.35 22.9 M4.5 16.65 L4.1 16.8 Q2.4 18.4 3.2 20.6 L3.35 20.85 Q4.4 21.3 5.3 20.55 L6.0 19.85 6.45 18.9 5.15 17.05 4.5 16.65 M9.2 34.25 L11.95 35.25 11.5 36.15 Q11.35 37.3 11.95 38.3 L12.35 38.7 12.9 39.0 Q13.95 39.15 14.5 38.2 L15.25 36.85 15.25 36.7 Q15.75 37.85 14.95 39.25 L13.8 40.7 Q12.35 41.75 10.5 41.1 8.45 40.55 8.2 38.2 7.9 36.4 8.65 35.1 L9.2 34.25 M22.2 35.3 L22.7 37.5 Q22.4 38.5 21.65 38.8 L20.5 39.0 Q19.45 38.65 19.05 37.6 L18.8 36.45 Q18.35 38.65 19.9 40.25 L21.1 41.0 22.5 41.55 Q24.25 41.55 25.4 39.95 L26.15 38.3 Q26.6 36.9 25.8 35.55 L25.15 34.6 22.2 35.3 M11.75 46.25 L11.05 44.65 13.95 45.55 13.4 48.6 Q12.95 48.25 12.65 47.7 L11.75 46.25 M20.2 45.55 L20.75 48.6 22.95 44.65 20.2 45.55 Z" fill="none" stroke="#000000" stroke-linecap="round" stroke-linejoin="round" stroke-opacity="0.2" stroke-width="1.5"/>
    </g>
    <g id="sprite10" transform="matrix(1.0, 0.0, 0.0, 1.0, 0.0, 0.0)">
      <use ffdec:characterId="13" height="54.0" transform="matrix(1.0, 0.0, 0.0, 1.0, 0.0, 0.0)" width="33.8" xlink:href="#shape2"/>
    </g>
    <g id="shape2" transform="matrix(1.0, 0.0, 0.0, 1.0, 0.0, 0.0)">
      <path d="M30.9 20.6 L30.75 20.8 Q30.4 21.2 30.05 20.95 28.95 20.7 28.1 19.8 27.35 19.15 27.65 18.9 L28.9 17.0 29.75 16.65 Q31.2 17.65 31.1 19.25 L30.9 20.6 M9.2 34.25 L8.65 35.1 Q7.9 36.4 8.2 38.2 8.4 40.55 10.5 41.1 12.3 41.75 13.75 40.7 L14.9 39.3 Q15.75 37.85 15.25 36.7 L15.25 36.85 14.5 38.2 Q13.9 39.15 12.9 39.0 L12.3 38.7 11.95 38.25 Q11.3 37.25 11.5 36.1 L11.95 35.25 9.2 34.25 M4.45 16.65 L5.2 17.0 6.5 18.9 6.0 19.8 5.35 20.55 Q4.4 21.35 3.3 20.8 L3.15 20.6 Q2.35 18.35 4.1 16.8 L4.45 16.65 M30.3 22.9 L30.4 23.2 30.4 23.55 Q30.25 23.7 30.25 24.0 30.4 24.8 30.9 25.65 33.15 28.95 33.65 32.95 L33.8 36.2 Q33.8 38.7 32.85 41.1 31.75 43.45 30.1 45.2 L27.75 47.5 30.9 49.15 Q32.5 50.1 33.15 52.25 L32.85 52.95 31.85 53.4 30.05 53.55 26.15 52.75 22.45 51.05 12.15 50.65 9.45 52.2 7.55 52.95 5.45 53.6 2.75 53.85 Q1.5 53.5 1.0 52.3 1.1 51.8 1.35 51.4 1.75 50.5 2.45 49.85 4.15 48.35 6.1 47.55 L5.25 46.55 Q3.15 44.3 1.85 41.6 0.8 39.3 0.2 36.75 -0.3 34.3 0.45 31.85 1.0 29.75 2.0 27.9 L3.95 24.0 3.75 22.65 Q5.2 22.65 6.05 21.7 L7.25 19.8 8.15 21.1 6.85 22.75 4.75 24.85 5.7 25.3 Q7.2 25.65 8.3 24.35 9.05 23.35 9.15 21.7 L9.0 21.05 9.2 20.55 9.8 19.95 Q11.15 19.15 12.9 18.75 L16.2 18.15 15.9 8.7 12.1 10.9 17.0 0.0 22.05 10.9 18.15 8.7 17.85 18.15 20.1 18.45 23.0 19.3 Q24.5 19.8 25.65 20.8 L25.15 22.55 25.55 23.35 Q26.5 24.5 27.85 25.1 29.1 25.45 29.45 24.8 L29.3 24.45 27.45 22.9 Q26.2 22.2 26.15 20.95 L26.85 20.05 27.45 20.8 28.8 22.0 Q29.4 22.5 30.1 22.7 L30.3 22.9 M25.15 34.6 L22.2 35.3 22.7 37.45 Q22.4 38.5 21.7 38.75 L20.55 39.0 Q19.45 38.65 19.0 37.55 L18.8 36.45 Q18.35 38.65 19.9 40.2 L21.1 41.0 22.45 41.5 Q24.25 41.5 25.35 39.95 L26.15 38.25 Q26.6 36.9 25.8 35.55 L25.15 34.6 M11.75 46.25 L12.65 47.7 13.4 48.55 13.9 45.55 11.0 44.7 11.75 46.25 M20.15 45.55 L20.75 48.55 23.0 44.7 20.15 45.55" fill="#000000" fill-rule="evenodd" stroke="none"/>
    </g>
  </defs>
</svg>
