<?xml version="1.0" encoding="UTF-8" standalone="no"?>
<svg xmlns:ffdec="https://www.free-decompiler.com/flash" xmlns:xlink="http://www.w3.org/1999/xlink" ffdec:objectType="frame" height="56.0px" width="56.0px" xmlns="http://www.w3.org/2000/svg">
  <g transform="matrix(1.0, 0.0, 0.0, 1.0, 0.0, 0.0)">
    <use ffdec:characterId="11" ffdec:characterName="102_fla.Symbole30_1" height="56.0" id="back" transform="matrix(1.0, 0.0, 0.0, 1.0, 0.0, 0.0)" width="56.0" xlink:href="#sprite0"/>
    <use ffdec:characterId="13" height="54.2" id="back" transform="matrix(1.0, 0.0, 0.0, 1.0, 0.4, 1.0)" width="55.4" xlink:href="#sprite10"/>
    <use ffdec:characterId="15" height="52.7" id="up" transform="matrix(1.0, 0.0, 0.0, 1.0, 1.2, 1.75)" width="53.9" xlink:href="#sprite11"/>
  </g>
  <defs>
    <g id="sprite0" transform="matrix(1.0, 0.0, 0.0, 1.0, 0.0, 0.0)">
      <use ffdec:characterId="10" ffdec:characterName="102_fla.Symbole27_2" height="56.0" id="back" transform="matrix(1.0, 0.0, 0.0, 1.0, 0.0, 0.0)" width="56.0" xlink:href="#sprite1"/>
    </g>
    <g id="sprite1" transform="matrix(1.0, 0.0, 0.0, 1.0, 0.0, 0.0)">
      <use ffdec:characterId="9" ffdec:characterName="102_fla.Symbole24_3" height="56.0" id="back" transform="matrix(1.0, 0.0, 0.0, 1.0, 0.0, 0.0)" width="56.0" xlink:href="#sprite2"/>
    </g>
    <g id="sprite2" transform="matrix(1.0, 0.0, 0.0, 1.0, 0.0, 0.0)">
      <use ffdec:characterId="8" ffdec:characterName="102_fla.Symbole21_4" height="56.0" id="back" transform="matrix(1.0, 0.0, 0.0, 1.0, 0.0, 0.0)" width="56.0" xlink:href="#sprite3"/>
    </g>
    <g id="sprite3" transform="matrix(1.0, 0.0, 0.0, 1.0, 0.0, 0.0)">
      <use ffdec:characterId="7" ffdec:characterName="102_fla.Symbole18_5" height="56.0" id="back" transform="matrix(1.0, 0.0, 0.0, 1.0, 0.0, 0.0)" width="56.0" xlink:href="#sprite4"/>
    </g>
    <g id="sprite4" transform="matrix(1.0, 0.0, 0.0, 1.0, 0.0, 0.0)">
      <use ffdec:characterId="6" ffdec:characterName="102_fla.Symbole15_6" height="56.0" id="back" transform="matrix(1.0, 0.0, 0.0, 1.0, 0.0, 0.0)" width="56.0" xlink:href="#sprite5"/>
    </g>
    <g id="sprite5" transform="matrix(1.0, 0.0, 0.0, 1.0, 0.0, 0.0)">
      <use ffdec:characterId="5" ffdec:characterName="102_fla.Symbole12_7" height="56.0" id="back" transform="matrix(1.0, 0.0, 0.0, 1.0, 0.0, 0.0)" width="56.0" xlink:href="#sprite6"/>
    </g>
    <g id="sprite6" transform="matrix(1.0, 0.0, 0.0, 1.0, 0.0, 0.0)">
      <use ffdec:characterId="4" ffdec:characterName="102_fla.Symbole9_8" height="56.0" id="back" transform="matrix(1.0, 0.0, 0.0, 1.0, 0.0, 0.0)" width="56.0" xlink:href="#sprite7"/>
    </g>
    <g id="sprite7" transform="matrix(1.0, 0.0, 0.0, 1.0, 0.0, 0.0)">
      <use ffdec:characterId="3" ffdec:characterName="102_fla.Symbole6_9" height="56.0" id="back" transform="matrix(1.0, 0.0, 0.0, 1.0, 0.0, 0.0)" width="56.0" xlink:href="#sprite8"/>
    </g>
    <g id="sprite8" transform="matrix(1.0, 0.0, 0.0, 1.0, 0.0, 0.0)">
      <use ffdec:characterId="2" height="56.0" id="back" transform="matrix(1.0, 0.0, 0.0, 1.0, 0.0, 0.0)" width="56.0" xlink:href="#sprite9"/>
    </g>
    <g id="sprite9" transform="matrix(1.0, 0.0, 0.0, 1.0, 0.0, 0.0)">
      <use ffdec:characterId="1" height="56.0" transform="matrix(1.0, 0.0, 0.0, 1.0, 0.0, 0.0)" width="56.0" xlink:href="#shape0"/>
    </g>
    <g id="shape0" transform="matrix(1.0, 0.0, 0.0, 1.0, 0.0, 0.0)">
      <path d="M56.0 56.0 L0.0 56.0 0.0 0.0 56.0 0.0 56.0 56.0" fill="#010101" fill-opacity="0.0" fill-rule="evenodd" stroke="none"/>
    </g>
    <g id="sprite10" transform="matrix(1.0, 0.0, 0.0, 1.0, 0.75, 0.75)">
      <use ffdec:characterId="12" height="54.2" transform="matrix(1.0, 0.0, 0.0, 1.0, -0.75, -0.75)" width="55.4" xlink:href="#shape1"/>
    </g>
    <g id="shape1" transform="matrix(1.0, 0.0, 0.0, 1.0, 0.75, 0.75)">
      <path d="M42.45 28.95 Q43.3 33.1 46.0 36.15 46.75 36.9 47.75 37.3 49.7 38.35 52.25 40.35 53.55 41.35 53.8 42.25 L53.7 42.25 53.55 42.45 Q53.5 42.9 52.85 43.35 L50.35 44.65 50.2 44.8 48.0 43.35 Q46.95 42.9 46.25 42.25 43.5 39.1 42.6 34.95 42.3 33.6 41.65 23.15 L41.0 31.15 35.35 31.15 35.35 27.9 24.7 27.9 24.7 31.15 17.0 31.15 17.0 27.9 6.15 27.9 6.15 31.15 0.7 31.15 Q-0.25 22.8 0.05 13.7 L5.55 10.8 Q20.65 9.85 35.65 10.8 L41.65 14.15 41.65 23.1 41.65 23.15 Q42.2 27.95 42.45 28.95 M50.75 45.1 L50.6 45.2 Q43.05 48.3 33.6 45.8 L38.45 45.4 38.45 32.9 35.35 32.9 35.35 36.85 31.85 36.85 31.85 38.3 28.1 38.3 28.1 36.85 24.7 36.85 24.7 32.9 17.0 32.9 17.0 36.85 13.45 36.85 13.45 38.3 9.65 38.3 9.65 36.85 6.15 36.85 6.15 32.9 2.6 32.9 2.6 45.4 21.2 46.25 Q40.6 57.2 53.25 49.6 L53.85 48.85 53.85 48.2 53.8 43.15 53.25 43.8 50.75 45.1 M27.2 9.6 L25.05 9.6 24.7 5.65 Q19.85 4.35 14.95 5.65 L14.6 9.6 12.2 9.6 12.65 0.95 Q19.7 -0.9 26.8 0.95 L27.2 9.6 M9.65 33.8 L9.65 35.55 7.6 35.55 7.6 29.2 15.6 29.2 15.6 35.55 13.45 35.55 13.45 33.8 9.65 33.8 M25.95 35.55 L25.95 29.2 34.05 29.2 34.05 35.55 31.85 35.55 31.85 33.8 28.1 33.8 28.1 35.55 25.95 35.55 Z" fill="none" stroke="#000000" stroke-linecap="round" stroke-linejoin="round" stroke-opacity="0.2" stroke-width="1.5"/>
    </g>
    <g id="sprite11" transform="matrix(1.0, 0.0, 0.0, 1.0, 0.0, 0.0)">
      <use ffdec:characterId="14" height="52.7" transform="matrix(1.0, 0.0, 0.0, 1.0, 0.0, 0.0)" width="53.9" xlink:href="#shape2"/>
    </g>
    <g id="shape2" transform="matrix(1.0, 0.0, 0.0, 1.0, 0.0, 0.0)">
      <path d="M42.4 28.85 Q43.3 33.05 46.0 36.15 46.75 36.85 47.75 37.3 49.7 38.3 52.25 40.3 53.55 41.3 53.8 42.2 L53.7 42.2 53.55 42.4 Q53.5 42.9 52.85 43.35 51.7 44.05 50.35 44.6 L50.2 44.75 47.95 43.35 46.25 42.2 Q43.5 39.1 42.55 34.9 42.25 33.55 41.6 23.1 L41.0 31.1 35.35 31.1 35.35 27.85 24.65 27.85 24.65 31.1 16.95 31.1 16.95 27.85 6.15 27.85 6.15 31.1 0.7 31.1 Q-0.25 22.75 0.05 13.6 L5.5 10.75 Q20.6 9.8 35.65 10.75 L41.6 14.1 41.6 23.05 41.6 23.1 42.4 28.85 M53.2 43.75 L53.8 43.1 53.85 48.15 53.85 48.8 53.2 49.6 Q40.6 57.15 21.2 46.2 L2.55 45.35 2.55 32.8 6.15 32.8 6.15 36.8 9.6 36.8 9.6 38.2 13.45 38.2 13.45 36.8 16.95 36.8 16.95 32.8 24.65 32.8 24.65 36.8 28.1 36.8 28.1 38.2 31.85 38.2 31.85 36.8 35.35 36.8 35.35 32.8 38.45 32.8 38.45 45.35 33.55 45.75 Q43.05 48.3 50.55 45.1 L50.7 45.05 53.2 43.75 M27.15 9.5 L25.0 9.5 24.65 5.55 Q19.85 4.35 14.95 5.55 L14.6 9.5 12.2 9.5 12.65 0.9 Q19.7 -0.9 26.8 0.9 L27.15 9.5 M9.6 33.75 L9.6 35.5 7.6 35.5 7.6 29.15 15.6 29.15 15.6 35.5 13.45 35.5 13.45 33.75 9.6 33.75 M25.95 35.5 L25.95 29.15 34.0 29.15 34.0 35.5 31.85 35.5 31.85 33.75 28.1 33.75 28.1 35.5 25.95 35.5" fill="#000000" fill-rule="evenodd" stroke="none"/>
    </g>
  </defs>
</svg>
