<?xml version="1.0" encoding="UTF-8" standalone="no"?>
<svg xmlns:ffdec="https://www.free-decompiler.com/flash" xmlns:xlink="http://www.w3.org/1999/xlink" ffdec:objectType="frame" height="56.0px" width="56.0px" xmlns="http://www.w3.org/2000/svg">
  <g transform="matrix(1.0, 0.0, 0.0, 1.0, 0.0, 0.0)">
    <use ffdec:characterId="12" ffdec:characterName="103_fla.Symbole33_1" height="56.0" id="back" transform="matrix(1.0, 0.0, 0.0, 1.0, 0.0, 0.0)" width="56.0" xlink:href="#sprite0"/>
    <use ffdec:characterId="14" height="55.55" id="back" transform="matrix(1.0, 0.0, 0.0, 1.0, 8.05, 0.45)" width="40.0" xlink:href="#sprite11"/>
    <use ffdec:characterId="16" height="54.05" id="up" transform="matrix(1.0, 0.0, 0.0, 1.0, 8.8, 1.2)" width="38.5" xlink:href="#sprite12"/>
  </g>
  <defs>
    <g id="sprite0" transform="matrix(1.0, 0.0, 0.0, 1.0, 0.0, 0.0)">
      <use ffdec:characterId="11" ffdec:characterName="103_fla.Symbole30_2" height="56.0" id="back" transform="matrix(1.0, 0.0, 0.0, 1.0, 0.0, 0.0)" width="56.0" xlink:href="#sprite1"/>
    </g>
    <g id="sprite1" transform="matrix(1.0, 0.0, 0.0, 1.0, 0.0, 0.0)">
      <use ffdec:characterId="10" ffdec:characterName="103_fla.Symbole27_3" height="56.0" id="back" transform="matrix(1.0, 0.0, 0.0, 1.0, 0.0, 0.0)" width="56.0" xlink:href="#sprite2"/>
    </g>
    <g id="sprite2" transform="matrix(1.0, 0.0, 0.0, 1.0, 0.0, 0.0)">
      <use ffdec:characterId="9" ffdec:characterName="103_fla.Symbole24_4" height="56.0" id="back" transform="matrix(1.0, 0.0, 0.0, 1.0, 0.0, 0.0)" width="56.0" xlink:href="#sprite3"/>
    </g>
    <g id="sprite3" transform="matrix(1.0, 0.0, 0.0, 1.0, 0.0, 0.0)">
      <use ffdec:characterId="8" ffdec:characterName="103_fla.Symbole21_5" height="56.0" id="back" transform="matrix(1.0, 0.0, 0.0, 1.0, 0.0, 0.0)" width="56.0" xlink:href="#sprite4"/>
    </g>
    <g id="sprite4" transform="matrix(1.0, 0.0, 0.0, 1.0, 0.0, 0.0)">
      <use ffdec:characterId="7" ffdec:characterName="103_fla.Symbole18_6" height="56.0" id="back" transform="matrix(1.0, 0.0, 0.0, 1.0, 0.0, 0.0)" width="56.0" xlink:href="#sprite5"/>
    </g>
    <g id="sprite5" transform="matrix(1.0, 0.0, 0.0, 1.0, 0.0, 0.0)">
      <use ffdec:characterId="6" ffdec:characterName="103_fla.Symbole15_7" height="56.0" id="back" transform="matrix(1.0, 0.0, 0.0, 1.0, 0.0, 0.0)" width="56.0" xlink:href="#sprite6"/>
    </g>
    <g id="sprite6" transform="matrix(1.0, 0.0, 0.0, 1.0, 0.0, 0.0)">
      <use ffdec:characterId="5" ffdec:characterName="103_fla.Symbole12_8" height="56.0" id="back" transform="matrix(1.0, 0.0, 0.0, 1.0, 0.0, 0.0)" width="56.0" xlink:href="#sprite7"/>
    </g>
    <g id="sprite7" transform="matrix(1.0, 0.0, 0.0, 1.0, 0.0, 0.0)">
      <use ffdec:characterId="4" ffdec:characterName="103_fla.Symbole9_9" height="56.0" id="back" transform="matrix(1.0, 0.0, 0.0, 1.0, 0.0, 0.0)" width="56.0" xlink:href="#sprite8"/>
    </g>
    <g id="sprite8" transform="matrix(1.0, 0.0, 0.0, 1.0, 0.0, 0.0)">
      <use ffdec:characterId="3" ffdec:characterName="103_fla.Symbole6_10" height="56.0" id="back" transform="matrix(1.0, 0.0, 0.0, 1.0, 0.0, 0.0)" width="56.0" xlink:href="#sprite9"/>
    </g>
    <g id="sprite9" transform="matrix(1.0, 0.0, 0.0, 1.0, 0.0, 0.0)">
      <use ffdec:characterId="2" height="56.0" id="back" transform="matrix(1.0, 0.0, 0.0, 1.0, 0.0, 0.0)" width="56.0" xlink:href="#sprite10"/>
    </g>
    <g id="sprite10" transform="matrix(1.0, 0.0, 0.0, 1.0, 0.0, 0.0)">
      <use ffdec:characterId="1" height="56.0" transform="matrix(1.0, 0.0, 0.0, 1.0, 0.0, 0.0)" width="56.0" xlink:href="#shape0"/>
    </g>
    <g id="shape0" transform="matrix(1.0, 0.0, 0.0, 1.0, 0.0, 0.0)">
      <path d="M56.0 56.0 L0.0 56.0 0.0 0.0 56.0 0.0 56.0 56.0" fill="#010101" fill-opacity="0.0" fill-rule="evenodd" stroke="none"/>
    </g>
    <g id="sprite11" transform="matrix(1.0, 0.0, 0.0, 1.0, 0.75, 0.75)">
      <use ffdec:characterId="13" height="55.55" transform="matrix(1.0, 0.0, 0.0, 1.0, -0.75, -0.75)" width="40.0" xlink:href="#shape1"/>
    </g>
    <g id="shape1" transform="matrix(1.0, 0.0, 0.0, 1.0, 0.75, 0.75)">
      <path d="M33.0 10.65 L32.45 27.4 21.6 29.4 Q23.05 28.65 24.45 27.55 28.65 24.05 29.1 18.7 29.55 13.7 26.75 9.8 L32.8 10.65 33.0 10.65 M35.85 28.7 Q29.65 39.95 13.7 52.6 L13.15 52.0 13.55 52.85 15.7 54.05 Q30.0 43.0 37.2 30.55 L37.35 30.3 38.5 11.55 36.45 8.4 35.9 28.5 35.85 28.7 M18.3 0.15 Q27.1 4.45 32.0 9.1 L25.35 8.2 Q22.15 4.8 17.35 4.45 L16.55 4.35 17.35 0.45 17.35 0.25 18.15 0.0 18.3 0.15 M15.1 4.2 L15.15 4.2 15.1 4.45 Q10.95 4.65 7.75 7.4 L6.05 8.95 1.25 10.4 Q6.35 4.2 15.9 0.6 L15.1 4.2 M14.1 9.95 Q13.4 14.0 13.0 18.0 12.15 17.5 11.05 17.35 9.05 17.1 7.35 18.3 5.75 19.45 5.5 21.45 5.2 23.5 6.45 25.1 7.6 26.8 9.65 27.05 L10.35 27.1 Q8.9 26.9 8.05 25.75 7.1 24.6 7.35 23.2 7.6 21.75 8.75 20.85 9.9 20.0 11.35 20.25 12.1 20.3 12.8 20.7 L12.7 21.3 Q12.35 24.75 12.25 28.2 L11.4 28.2 Q8.2 27.85 5.9 25.8 8.45 28.95 12.25 30.0 L12.25 30.15 12.25 30.55 1.0 26.9 0.4 26.7 0.0 12.3 0.0 12.15 4.75 10.7 Q3.3 13.25 3.05 16.25 2.9 17.35 3.0 18.4 L3.05 18.15 Q3.3 14.35 6.35 11.85 9.35 9.4 13.15 9.8 L14.1 9.95 M21.5 19.85 Q21.2 23.65 18.2 26.2 16.05 27.85 13.55 28.15 L13.7 25.8 Q14.95 24.65 15.25 22.9 15.55 20.9 14.3 19.25 L14.3 18.65 14.3 18.55 15.45 10.25 Q17.7 11.0 19.45 13.05 21.85 15.95 21.5 19.85 M13.7 25.5 L14.0 22.2 Q14.4 23.15 14.3 24.15 L13.7 25.5 M12.15 31.9 Q12.0 39.5 12.85 46.95 6.2 38.65 1.25 28.4 L11.95 31.9 12.15 31.9 M13.55 30.4 L14.85 30.55 15.15 30.6 13.55 30.85 13.55 30.4 M14.0 44.75 L14.4 48.7 Q27.25 38.05 32.7 28.7 L13.55 32.3 Q13.45 40.15 14.0 44.75 Z" fill="none" stroke="#000000" stroke-linecap="round" stroke-linejoin="round" stroke-opacity="0.2" stroke-width="1.5"/>
    </g>
    <g id="sprite12" transform="matrix(1.0, 0.0, 0.0, 1.0, 0.0, 0.0)">
      <use ffdec:characterId="15" height="54.05" transform="matrix(1.0, 0.0, 0.0, 1.0, 0.0, 0.0)" width="38.5" xlink:href="#shape2"/>
    </g>
    <g id="shape2" transform="matrix(1.0, 0.0, 0.0, 1.0, 0.0, 0.0)">
      <path d="M35.85 28.7 L35.9 28.5 36.45 8.4 38.5 11.55 37.35 30.3 37.2 30.55 Q30.0 43.0 15.7 54.05 L13.55 52.85 13.15 52.0 13.7 52.6 Q29.65 39.95 35.85 28.7 M33.0 10.65 L32.45 27.4 21.6 29.4 Q23.05 28.65 24.45 27.55 28.65 24.05 29.1 18.7 29.55 13.7 26.75 9.8 L32.8 10.65 33.0 10.65 M18.15 0.0 L18.3 0.15 Q27.1 4.45 32.0 9.1 L25.35 8.2 Q22.15 4.8 17.35 4.45 L16.55 4.35 17.35 0.45 17.35 0.25 18.15 0.0 M15.15 4.2 L15.1 4.45 Q10.95 4.65 7.75 7.4 L6.05 8.95 1.25 10.4 Q6.35 4.2 15.9 0.6 L15.1 4.2 15.15 4.2 M14.1 9.95 Q13.4 14.0 13.0 18.0 12.15 17.5 11.05 17.35 9.05 17.1 7.35 18.3 5.75 19.45 5.5 21.45 5.2 23.5 6.45 25.1 7.6 26.8 9.65 27.05 L10.35 27.1 Q8.9 26.9 8.05 25.75 7.1 24.6 7.35 23.2 7.6 21.75 8.75 20.85 9.9 20.0 11.35 20.25 12.1 20.3 12.8 20.7 L12.7 21.3 Q12.35 24.75 12.25 28.2 L11.4 28.2 Q8.2 27.85 5.9 25.8 8.45 28.95 12.25 30.0 L12.25 30.15 12.25 30.55 1.0 26.9 0.4 26.7 0.0 12.3 0.0 12.15 4.75 10.7 Q3.3 13.25 3.05 16.25 2.9 17.35 3.0 18.4 L3.05 18.15 Q3.3 14.35 6.35 11.85 9.35 9.4 13.15 9.8 L14.1 9.95 M21.5 19.85 Q21.2 23.65 18.2 26.2 16.05 27.85 13.55 28.15 L13.7 25.8 Q14.95 24.65 15.25 22.9 15.55 20.9 14.3 19.25 L14.3 18.65 14.3 18.55 15.45 10.25 Q17.7 11.0 19.45 13.05 21.85 15.95 21.5 19.85 M13.7 25.5 L14.0 22.2 Q14.4 23.15 14.3 24.15 L13.7 25.5 M12.15 31.9 Q12.0 39.5 12.85 46.95 6.2 38.65 1.25 28.4 L11.95 31.9 12.15 31.9 M13.55 30.4 L14.85 30.55 15.15 30.6 13.55 30.85 13.55 30.4 M14.0 44.75 Q13.45 40.15 13.55 32.3 L32.7 28.7 Q27.25 38.05 14.4 48.7 L14.0 44.75" fill="#000000" fill-rule="evenodd" stroke="none"/>
    </g>
  </defs>
</svg>
