<?xml version="1.0" encoding="UTF-8" standalone="no"?>
<svg xmlns:ffdec="https://www.free-decompiler.com/flash" xmlns:xlink="http://www.w3.org/1999/xlink" ffdec:objectType="frame" height="56.0px" width="56.0px" xmlns="http://www.w3.org/2000/svg">
  <g transform="matrix(1.0, 0.0, 0.0, 1.0, 0.0, 0.0)">
    <use ffdec:characterId="13" ffdec:characterName="104_fla.Symbole36_1" height="56.0" id="back" transform="matrix(1.0, 0.0, 0.0, 1.0, 0.0, 0.0)" width="56.0" xlink:href="#sprite0"/>
    <use ffdec:characterId="15" height="55.55" id="back" transform="matrix(1.0, 0.0, 0.0, 1.0, 1.25, 0.45)" width="53.85" xlink:href="#sprite12"/>
    <use ffdec:characterId="17" height="54.05" id="up" transform="matrix(1.0, 0.0, 0.0, 1.0, 2.0, 1.2)" width="52.4" xlink:href="#sprite13"/>
  </g>
  <defs>
    <g id="sprite0" transform="matrix(1.0, 0.0, 0.0, 1.0, 0.0, 0.0)">
      <use ffdec:characterId="12" ffdec:characterName="104_fla.Symbole33_2" height="56.0" id="back" transform="matrix(1.0, 0.0, 0.0, 1.0, 0.0, 0.0)" width="56.0" xlink:href="#sprite1"/>
    </g>
    <g id="sprite1" transform="matrix(1.0, 0.0, 0.0, 1.0, 0.0, 0.0)">
      <use ffdec:characterId="11" ffdec:characterName="104_fla.Symbole30_3" height="56.0" id="back" transform="matrix(1.0, 0.0, 0.0, 1.0, 0.0, 0.0)" width="56.0" xlink:href="#sprite2"/>
    </g>
    <g id="sprite2" transform="matrix(1.0, 0.0, 0.0, 1.0, 0.0, 0.0)">
      <use ffdec:characterId="10" ffdec:characterName="104_fla.Symbole27_4" height="56.0" id="back" transform="matrix(1.0, 0.0, 0.0, 1.0, 0.0, 0.0)" width="56.0" xlink:href="#sprite3"/>
    </g>
    <g id="sprite3" transform="matrix(1.0, 0.0, 0.0, 1.0, 0.0, 0.0)">
      <use ffdec:characterId="9" ffdec:characterName="104_fla.Symbole24_5" height="56.0" id="back" transform="matrix(1.0, 0.0, 0.0, 1.0, 0.0, 0.0)" width="56.0" xlink:href="#sprite4"/>
    </g>
    <g id="sprite4" transform="matrix(1.0, 0.0, 0.0, 1.0, 0.0, 0.0)">
      <use ffdec:characterId="8" ffdec:characterName="104_fla.Symbole21_6" height="56.0" id="back" transform="matrix(1.0, 0.0, 0.0, 1.0, 0.0, 0.0)" width="56.0" xlink:href="#sprite5"/>
    </g>
    <g id="sprite5" transform="matrix(1.0, 0.0, 0.0, 1.0, 0.0, 0.0)">
      <use ffdec:characterId="7" ffdec:characterName="104_fla.Symbole18_7" height="56.0" id="back" transform="matrix(1.0, 0.0, 0.0, 1.0, 0.0, 0.0)" width="56.0" xlink:href="#sprite6"/>
    </g>
    <g id="sprite6" transform="matrix(1.0, 0.0, 0.0, 1.0, 0.0, 0.0)">
      <use ffdec:characterId="6" ffdec:characterName="104_fla.Symbole15_8" height="56.0" id="back" transform="matrix(1.0, 0.0, 0.0, 1.0, 0.0, 0.0)" width="56.0" xlink:href="#sprite7"/>
    </g>
    <g id="sprite7" transform="matrix(1.0, 0.0, 0.0, 1.0, 0.0, 0.0)">
      <use ffdec:characterId="5" ffdec:characterName="104_fla.Symbole12_9" height="56.0" id="back" transform="matrix(1.0, 0.0, 0.0, 1.0, 0.0, 0.0)" width="56.0" xlink:href="#sprite8"/>
    </g>
    <g id="sprite8" transform="matrix(1.0, 0.0, 0.0, 1.0, 0.0, 0.0)">
      <use ffdec:characterId="4" ffdec:characterName="104_fla.Symbole9_10" height="56.0" id="back" transform="matrix(1.0, 0.0, 0.0, 1.0, 0.0, 0.0)" width="56.0" xlink:href="#sprite9"/>
    </g>
    <g id="sprite9" transform="matrix(1.0, 0.0, 0.0, 1.0, 0.0, 0.0)">
      <use ffdec:characterId="3" ffdec:characterName="104_fla.Symbole6_11" height="56.0" id="back" transform="matrix(1.0, 0.0, 0.0, 1.0, 0.0, 0.0)" width="56.0" xlink:href="#sprite10"/>
    </g>
    <g id="sprite10" transform="matrix(1.0, 0.0, 0.0, 1.0, 0.0, 0.0)">
      <use ffdec:characterId="2" height="56.0" id="back" transform="matrix(1.0, 0.0, 0.0, 1.0, 0.0, 0.0)" width="56.0" xlink:href="#sprite11"/>
    </g>
    <g id="sprite11" transform="matrix(1.0, 0.0, 0.0, 1.0, 0.0, 0.0)">
      <use ffdec:characterId="1" height="56.0" transform="matrix(1.0, 0.0, 0.0, 1.0, 0.0, 0.0)" width="56.0" xlink:href="#shape0"/>
    </g>
    <g id="shape0" transform="matrix(1.0, 0.0, 0.0, 1.0, 0.0, 0.0)">
      <path d="M56.0 56.0 L0.0 56.0 0.0 0.0 56.0 0.0 56.0 56.0" fill="#010101" fill-opacity="0.0" fill-rule="evenodd" stroke="none"/>
    </g>
    <g id="sprite12" transform="matrix(1.0, 0.0, 0.0, 1.0, 0.75, 0.75)">
      <use ffdec:characterId="14" height="55.55" transform="matrix(1.0, 0.0, 0.0, 1.0, -0.75, -0.75)" width="53.85" xlink:href="#shape1"/>
    </g>
    <g id="shape1" transform="matrix(1.0, 0.0, 0.0, 1.0, 0.75, 0.75)">
      <path d="M42.1 6.9 Q48.75 15.8 48.45 24.75 45.65 10.8 42.95 19.3 44.35 12.75 42.1 6.9 M52.1 33.65 Q51.65 37.35 50.15 41.2 L49.65 42.55 48.85 44.25 48.5 45.1 48.0 46.0 47.65 46.45 47.15 47.15 Q42.95 52.25 41.15 52.2 L39.4 51.85 35.85 52.9 31.35 54.05 Q34.55 46.9 34.1 40.5 29.4 54.4 28.95 44.0 L28.9 41.65 28.9 41.4 28.8 41.8 Q27.6 45.5 26.6 47.55 23.6 53.85 22.55 44.05 24.5 43.55 26.6 41.4 L28.35 39.4 31.0 35.4 32.3 32.95 34.25 26.65 37.2 15.35 Q37.2 56.4 45.9 29.55 45.9 47.6 52.35 28.25 L52.1 33.65 M27.2 0.0 Q27.45 4.3 28.8 7.85 L32.95 18.9 33.05 19.75 Q33.05 21.75 31.75 23.25 L31.5 23.45 Q30.0 25.05 27.8 25.1 25.55 25.05 24.05 23.45 22.55 21.95 22.55 19.75 L22.6 19.55 Q22.6 17.9 25.25 9.4 25.3 8.95 25.25 9.9 26.75 4.85 27.2 0.0 M29.65 16.55 Q30.25 16.55 30.7 17.25 L31.25 18.9 30.7 20.6 Q30.25 21.25 29.65 21.25 28.95 21.25 28.5 20.6 28.05 19.85 28.15 18.9 28.05 17.9 28.5 17.25 28.95 16.55 29.65 16.55 M12.7 9.1 Q3.95 16.9 1.3 28.95 -2.1 22.1 3.4 16.25 L12.7 9.1 M16.1 43.55 Q12.4 40.05 12.95 24.55 9.75 36.95 11.05 44.25 8.4 41.65 4.6 34.65 L4.9 36.3 Q8.75 49.4 12.85 49.65 L15.1 48.8 16.7 47.6 16.7 48.05 17.1 46.85 18.7 42.3 Q17.3 38.6 17.1 32.95 17.1 40.35 16.1 43.55 Z" fill="none" stroke="#000000" stroke-linecap="round" stroke-linejoin="round" stroke-opacity="0.2" stroke-width="1.5"/>
    </g>
    <g id="sprite13" transform="matrix(1.0, 0.0, 0.0, 1.0, 0.0, 0.0)">
      <use ffdec:characterId="16" height="54.05" transform="matrix(1.0, 0.0, 0.0, 1.0, 0.0, 0.0)" width="52.4" xlink:href="#shape2"/>
    </g>
    <g id="shape2" transform="matrix(1.0, 0.0, 0.0, 1.0, 0.0, 0.0)">
      <path d="M42.05 6.85 Q48.75 15.8 48.4 24.75 45.65 10.8 42.9 19.3 44.35 12.7 42.05 6.85 M52.05 33.65 Q51.65 37.3 50.15 41.15 L49.65 42.5 48.85 44.25 48.5 45.1 48.0 45.95 47.65 46.45 47.15 47.1 Q42.9 52.25 41.15 52.15 L39.35 51.8 35.85 52.9 31.35 54.05 Q34.55 46.9 34.05 40.45 29.45 54.4 28.95 43.95 L28.85 41.6 28.85 41.4 28.8 41.75 Q27.6 45.45 26.6 47.55 23.6 53.8 22.5 44.05 24.5 43.55 26.6 41.4 L28.35 39.4 31.0 35.4 32.3 32.95 34.2 26.6 37.2 15.3 Q37.2 56.4 45.85 29.5 45.85 47.6 52.35 28.25 52.5 30.85 52.05 33.65 M27.2 0.0 Q27.45 4.3 28.8 7.85 L32.95 18.85 33.0 19.7 Q33.0 21.75 31.7 23.25 L31.5 23.45 Q30.0 25.0 27.8 25.1 25.6 25.0 24.0 23.45 22.5 21.95 22.5 19.7 L22.6 19.5 Q22.6 17.85 25.2 9.35 25.3 8.95 25.2 9.85 26.7 4.85 27.2 0.0 M30.7 17.2 Q30.2 16.5 29.65 16.5 28.95 16.5 28.5 17.2 28.1 17.85 28.15 18.85 28.1 19.8 28.5 20.6 28.95 21.25 29.65 21.25 30.2 21.25 30.7 20.6 L31.2 18.85 Q31.05 17.85 30.7 17.2 M12.75 9.1 Q3.95 16.85 1.3 28.95 -2.1 22.1 3.4 16.2 L12.75 9.1 M12.95 24.5 Q12.4 40.0 16.1 43.55 17.1 40.3 17.1 32.95 17.3 38.6 18.65 42.3 L17.1 46.8 16.75 48.05 16.75 47.6 15.1 48.8 12.85 49.6 Q8.75 49.4 4.9 36.25 L4.6 34.6 Q8.4 41.6 11.0 44.25 9.75 36.95 12.95 24.5" fill="#000000" fill-rule="evenodd" stroke="none"/>
    </g>
  </defs>
</svg>
