<?xml version="1.0" encoding="UTF-8" standalone="no"?>
<svg xmlns:ffdec="https://www.free-decompiler.com/flash" xmlns:xlink="http://www.w3.org/1999/xlink" ffdec:objectType="frame" height="56.0px" width="56.0px" xmlns="http://www.w3.org/2000/svg">
  <g transform="matrix(1.0, 0.0, 0.0, 1.0, 0.0, 0.0)">
    <use ffdec:characterId="14" ffdec:characterName="105_fla.Symbole39_1" height="56.0" id="back" transform="matrix(1.0, 0.0, 0.0, 1.0, 0.0, 0.0)" width="56.0" xlink:href="#sprite0"/>
    <use ffdec:characterId="16" height="51.1" id="back" transform="matrix(1.0, 0.0, 0.0, 1.0, 0.4, 2.6)" width="55.4" xlink:href="#sprite13"/>
    <use ffdec:characterId="18" height="49.6" id="up" transform="matrix(1.0, 0.0, 0.0, 1.0, 1.15, 3.4)" width="53.9" xlink:href="#sprite14"/>
  </g>
  <defs>
    <g id="sprite0" transform="matrix(1.0, 0.0, 0.0, 1.0, 0.0, 0.0)">
      <use ffdec:characterId="13" ffdec:characterName="105_fla.Symbole36_2" height="56.0" id="back" transform="matrix(1.0, 0.0, 0.0, 1.0, 0.0, 0.0)" width="56.0" xlink:href="#sprite1"/>
    </g>
    <g id="sprite1" transform="matrix(1.0, 0.0, 0.0, 1.0, 0.0, 0.0)">
      <use ffdec:characterId="12" ffdec:characterName="105_fla.Symbole33_3" height="56.0" id="back" transform="matrix(1.0, 0.0, 0.0, 1.0, 0.0, 0.0)" width="56.0" xlink:href="#sprite2"/>
    </g>
    <g id="sprite2" transform="matrix(1.0, 0.0, 0.0, 1.0, 0.0, 0.0)">
      <use ffdec:characterId="11" ffdec:characterName="105_fla.Symbole30_4" height="56.0" id="back" transform="matrix(1.0, 0.0, 0.0, 1.0, 0.0, 0.0)" width="56.0" xlink:href="#sprite3"/>
    </g>
    <g id="sprite3" transform="matrix(1.0, 0.0, 0.0, 1.0, 0.0, 0.0)">
      <use ffdec:characterId="10" ffdec:characterName="105_fla.Symbole27_5" height="56.0" id="back" transform="matrix(1.0, 0.0, 0.0, 1.0, 0.0, 0.0)" width="56.0" xlink:href="#sprite4"/>
    </g>
    <g id="sprite4" transform="matrix(1.0, 0.0, 0.0, 1.0, 0.0, 0.0)">
      <use ffdec:characterId="9" ffdec:characterName="105_fla.Symbole24_6" height="56.0" id="back" transform="matrix(1.0, 0.0, 0.0, 1.0, 0.0, 0.0)" width="56.0" xlink:href="#sprite5"/>
    </g>
    <g id="sprite5" transform="matrix(1.0, 0.0, 0.0, 1.0, 0.0, 0.0)">
      <use ffdec:characterId="8" ffdec:characterName="105_fla.Symbole21_7" height="56.0" id="back" transform="matrix(1.0, 0.0, 0.0, 1.0, 0.0, 0.0)" width="56.0" xlink:href="#sprite6"/>
    </g>
    <g id="sprite6" transform="matrix(1.0, 0.0, 0.0, 1.0, 0.0, 0.0)">
      <use ffdec:characterId="7" ffdec:characterName="105_fla.Symbole18_8" height="56.0" id="back" transform="matrix(1.0, 0.0, 0.0, 1.0, 0.0, 0.0)" width="56.0" xlink:href="#sprite7"/>
    </g>
    <g id="sprite7" transform="matrix(1.0, 0.0, 0.0, 1.0, 0.0, 0.0)">
      <use ffdec:characterId="6" ffdec:characterName="105_fla.Symbole15_9" height="56.0" id="back" transform="matrix(1.0, 0.0, 0.0, 1.0, 0.0, 0.0)" width="56.0" xlink:href="#sprite8"/>
    </g>
    <g id="sprite8" transform="matrix(1.0, 0.0, 0.0, 1.0, 0.0, 0.0)">
      <use ffdec:characterId="5" ffdec:characterName="105_fla.Symbole12_10" height="56.0" id="back" transform="matrix(1.0, 0.0, 0.0, 1.0, 0.0, 0.0)" width="56.0" xlink:href="#sprite9"/>
    </g>
    <g id="sprite9" transform="matrix(1.0, 0.0, 0.0, 1.0, 0.0, 0.0)">
      <use ffdec:characterId="4" ffdec:characterName="105_fla.Symbole9_11" height="56.0" id="back" transform="matrix(1.0, 0.0, 0.0, 1.0, 0.0, 0.0)" width="56.0" xlink:href="#sprite10"/>
    </g>
    <g id="sprite10" transform="matrix(1.0, 0.0, 0.0, 1.0, 0.0, 0.0)">
      <use ffdec:characterId="3" ffdec:characterName="105_fla.Symbole6_12" height="56.0" id="back" transform="matrix(1.0, 0.0, 0.0, 1.0, 0.0, 0.0)" width="56.0" xlink:href="#sprite11"/>
    </g>
    <g id="sprite11" transform="matrix(1.0, 0.0, 0.0, 1.0, 0.0, 0.0)">
      <use ffdec:characterId="2" height="56.0" id="back" transform="matrix(1.0, 0.0, 0.0, 1.0, 0.0, 0.0)" width="56.0" xlink:href="#sprite12"/>
    </g>
    <g id="sprite12" transform="matrix(1.0, 0.0, 0.0, 1.0, 0.0, 0.0)">
      <use ffdec:characterId="1" height="56.0" transform="matrix(1.0, 0.0, 0.0, 1.0, 0.0, 0.0)" width="56.0" xlink:href="#shape0"/>
    </g>
    <g id="shape0" transform="matrix(1.0, 0.0, 0.0, 1.0, 0.0, 0.0)">
      <path d="M56.0 56.0 L0.0 56.0 0.0 0.0 56.0 0.0 56.0 56.0" fill="#010101" fill-opacity="0.0" fill-rule="evenodd" stroke="none"/>
    </g>
    <g id="sprite13" transform="matrix(1.0, 0.0, 0.0, 1.0, 0.75, 0.75)">
      <use ffdec:characterId="15" height="51.1" transform="matrix(1.0, 0.0, 0.0, 1.0, -0.75, -0.75)" width="55.4" xlink:href="#shape1"/>
    </g>
    <g id="shape1" transform="matrix(1.0, 0.0, 0.0, 1.0, 0.75, 0.75)">
      <path d="M45.5 21.25 Q46.05 23.55 46.05 26.2 L45.9 28.2 Q47.25 27.45 48.65 27.45 50.75 27.45 52.4 28.95 53.9 30.5 53.9 32.75 53.9 34.85 52.4 36.4 50.75 37.9 48.65 37.9 46.85 37.9 45.5 36.85 L44.95 36.4 43.95 35.05 Q42.7 37.6 40.45 39.75 L40.3 39.9 37.75 42.1 Q33.4 47.3 27.0 49.6 20.5 47.3 16.25 42.1 L13.65 39.9 13.4 39.75 Q11.25 37.6 9.9 35.05 L8.9 36.4 Q7.4 37.9 5.2 37.9 3.1 37.9 1.55 36.4 0.0 34.85 0.0 32.75 0.0 30.5 1.55 28.95 3.1 27.45 5.2 27.45 6.75 27.45 7.95 28.2 7.8 27.2 7.8 26.2 7.8 21.2 10.05 17.05 L12.0 13.65 Q13.6 10.9 17.85 5.35 L17.85 10.25 Q20.85 4.0 27.0 0.0 33.05 4.0 36.0 10.25 L36.0 5.35 Q40.45 10.9 41.85 13.65 L43.85 17.05 Q44.9 19.1 45.5 21.25 M25.9 35.45 Q18.1 42.45 12.55 32.9 19.25 35.3 25.9 35.45 M27.95 35.45 Q35.75 42.45 41.35 32.9 34.6 35.3 27.95 35.45 Z" fill="none" stroke="#000000" stroke-linecap="round" stroke-linejoin="round" stroke-opacity="0.2" stroke-width="1.5"/>
    </g>
    <g id="sprite14" transform="matrix(1.0, 0.0, 0.0, 1.0, 0.0, 0.0)">
      <use ffdec:characterId="17" height="49.6" transform="matrix(1.0, 0.0, 0.0, 1.0, 0.0, 0.0)" width="53.9" xlink:href="#shape2"/>
    </g>
    <g id="shape2" transform="matrix(1.0, 0.0, 0.0, 1.0, 0.0, 0.0)">
      <path d="M45.5 21.25 Q46.1 23.55 46.1 26.2 L45.95 28.2 Q47.25 27.45 48.65 27.45 50.8 27.45 52.4 28.9 53.9 30.45 53.9 32.7 53.9 34.85 52.4 36.4 50.8 37.85 48.65 37.85 46.8 37.85 45.5 36.8 L45.0 36.4 43.95 35.05 Q42.7 37.55 40.5 39.7 L40.25 39.9 37.75 42.05 Q33.4 47.3 27.0 49.6 20.55 47.3 16.25 42.05 14.85 41.1 13.7 39.9 L13.4 39.7 Q11.25 37.55 9.95 35.05 L8.9 36.4 Q7.4 37.85 5.2 37.85 3.1 37.85 1.55 36.4 0.0 34.85 0.0 32.7 0.0 30.45 1.55 28.9 3.1 27.45 5.2 27.45 6.75 27.45 7.95 28.2 L7.8 26.2 Q7.8 21.15 10.1 17.05 L12.0 13.65 Q13.6 10.85 17.9 5.3 L17.9 10.25 Q20.85 4.0 27.0 0.0 33.05 4.0 36.0 10.25 L36.0 5.3 Q40.4 10.85 41.9 13.65 L43.85 17.05 Q44.9 19.05 45.5 21.25 M25.9 35.4 Q19.3 35.25 12.6 32.9 18.1 42.45 25.9 35.4 M27.95 35.4 Q35.75 42.45 41.35 32.9 34.6 35.25 27.95 35.4" fill="#000000" fill-rule="evenodd" stroke="none"/>
    </g>
  </defs>
</svg>
