<?xml version="1.0" encoding="UTF-8" standalone="no"?>
<svg xmlns:ffdec="https://www.free-decompiler.com/flash" xmlns:xlink="http://www.w3.org/1999/xlink" ffdec:objectType="frame" height="56.0px" width="56.0px" xmlns="http://www.w3.org/2000/svg">
  <g transform="matrix(1.0, 0.0, 0.0, 1.0, 0.0, 0.0)">
    <use ffdec:characterId="15" ffdec:characterName="106_fla.Symbole42_1" height="56.0" id="back" transform="matrix(1.0, 0.0, 0.0, 1.0, 0.0, 0.0)" width="56.0" xlink:href="#sprite0"/>
    <use ffdec:characterId="17" height="51.1" id="back" transform="matrix(1.0, 0.0, 0.0, 1.0, 0.4, 2.6)" width="55.4" xlink:href="#sprite14"/>
    <use ffdec:characterId="19" height="49.6" id="up" transform="matrix(1.0, 0.0, 0.0, 1.0, 1.1, 3.4)" width="53.9" xlink:href="#sprite15"/>
  </g>
  <defs>
    <g id="sprite0" transform="matrix(1.0, 0.0, 0.0, 1.0, 0.0, 0.0)">
      <use ffdec:characterId="14" ffdec:characterName="106_fla.Symbole39_2" height="56.0" id="back" transform="matrix(1.0, 0.0, 0.0, 1.0, 0.0, 0.0)" width="56.0" xlink:href="#sprite1"/>
    </g>
    <g id="sprite1" transform="matrix(1.0, 0.0, 0.0, 1.0, 0.0, 0.0)">
      <use ffdec:characterId="13" ffdec:characterName="106_fla.Symbole36_3" height="56.0" id="back" transform="matrix(1.0, 0.0, 0.0, 1.0, 0.0, 0.0)" width="56.0" xlink:href="#sprite2"/>
    </g>
    <g id="sprite2" transform="matrix(1.0, 0.0, 0.0, 1.0, 0.0, 0.0)">
      <use ffdec:characterId="12" ffdec:characterName="106_fla.Symbole33_4" height="56.0" id="back" transform="matrix(1.0, 0.0, 0.0, 1.0, 0.0, 0.0)" width="56.0" xlink:href="#sprite3"/>
    </g>
    <g id="sprite3" transform="matrix(1.0, 0.0, 0.0, 1.0, 0.0, 0.0)">
      <use ffdec:characterId="11" ffdec:characterName="106_fla.Symbole30_5" height="56.0" id="back" transform="matrix(1.0, 0.0, 0.0, 1.0, 0.0, 0.0)" width="56.0" xlink:href="#sprite4"/>
    </g>
    <g id="sprite4" transform="matrix(1.0, 0.0, 0.0, 1.0, 0.0, 0.0)">
      <use ffdec:characterId="10" ffdec:characterName="106_fla.Symbole27_6" height="56.0" id="back" transform="matrix(1.0, 0.0, 0.0, 1.0, 0.0, 0.0)" width="56.0" xlink:href="#sprite5"/>
    </g>
    <g id="sprite5" transform="matrix(1.0, 0.0, 0.0, 1.0, 0.0, 0.0)">
      <use ffdec:characterId="9" ffdec:characterName="106_fla.Symbole24_7" height="56.0" id="back" transform="matrix(1.0, 0.0, 0.0, 1.0, 0.0, 0.0)" width="56.0" xlink:href="#sprite6"/>
    </g>
    <g id="sprite6" transform="matrix(1.0, 0.0, 0.0, 1.0, 0.0, 0.0)">
      <use ffdec:characterId="8" ffdec:characterName="106_fla.Symbole21_8" height="56.0" id="back" transform="matrix(1.0, 0.0, 0.0, 1.0, 0.0, 0.0)" width="56.0" xlink:href="#sprite7"/>
    </g>
    <g id="sprite7" transform="matrix(1.0, 0.0, 0.0, 1.0, 0.0, 0.0)">
      <use ffdec:characterId="7" ffdec:characterName="106_fla.Symbole18_9" height="56.0" id="back" transform="matrix(1.0, 0.0, 0.0, 1.0, 0.0, 0.0)" width="56.0" xlink:href="#sprite8"/>
    </g>
    <g id="sprite8" transform="matrix(1.0, 0.0, 0.0, 1.0, 0.0, 0.0)">
      <use ffdec:characterId="6" ffdec:characterName="106_fla.Symbole15_10" height="56.0" id="back" transform="matrix(1.0, 0.0, 0.0, 1.0, 0.0, 0.0)" width="56.0" xlink:href="#sprite9"/>
    </g>
    <g id="sprite9" transform="matrix(1.0, 0.0, 0.0, 1.0, 0.0, 0.0)">
      <use ffdec:characterId="5" ffdec:characterName="106_fla.Symbole12_11" height="56.0" id="back" transform="matrix(1.0, 0.0, 0.0, 1.0, 0.0, 0.0)" width="56.0" xlink:href="#sprite10"/>
    </g>
    <g id="sprite10" transform="matrix(1.0, 0.0, 0.0, 1.0, 0.0, 0.0)">
      <use ffdec:characterId="4" ffdec:characterName="106_fla.Symbole9_12" height="56.0" id="back" transform="matrix(1.0, 0.0, 0.0, 1.0, 0.0, 0.0)" width="56.0" xlink:href="#sprite11"/>
    </g>
    <g id="sprite11" transform="matrix(1.0, 0.0, 0.0, 1.0, 0.0, 0.0)">
      <use ffdec:characterId="3" ffdec:characterName="106_fla.Symbole6_13" height="56.0" id="back" transform="matrix(1.0, 0.0, 0.0, 1.0, 0.0, 0.0)" width="56.0" xlink:href="#sprite12"/>
    </g>
    <g id="sprite12" transform="matrix(1.0, 0.0, 0.0, 1.0, 0.0, 0.0)">
      <use ffdec:characterId="2" height="56.0" id="back" transform="matrix(1.0, 0.0, 0.0, 1.0, 0.0, 0.0)" width="56.0" xlink:href="#sprite13"/>
    </g>
    <g id="sprite13" transform="matrix(1.0, 0.0, 0.0, 1.0, 0.0, 0.0)">
      <use ffdec:characterId="1" height="56.0" transform="matrix(1.0, 0.0, 0.0, 1.0, 0.0, 0.0)" width="56.0" xlink:href="#shape0"/>
    </g>
    <g id="shape0" transform="matrix(1.0, 0.0, 0.0, 1.0, 0.0, 0.0)">
      <path d="M56.0 56.0 L0.0 56.0 0.0 0.0 56.0 0.0 56.0 56.0" fill="#010101" fill-opacity="0.0" fill-rule="evenodd" stroke="none"/>
    </g>
    <g id="sprite14" transform="matrix(1.0, 0.0, 0.0, 1.0, 0.75, 0.75)">
      <use ffdec:characterId="16" height="51.1" transform="matrix(1.0, 0.0, 0.0, 1.0, -0.75, -0.75)" width="55.4" xlink:href="#shape1"/>
    </g>
    <g id="shape1" transform="matrix(1.0, 0.0, 0.0, 1.0, 0.75, 0.75)">
      <path d="M43.85 17.1 Q44.95 19.1 45.45 21.35 46.1 23.6 46.1 26.2 L45.95 28.25 Q47.25 27.5 48.7 27.5 50.8 27.5 52.45 28.95 53.9 30.45 53.9 32.75 53.9 34.9 52.45 36.45 50.8 37.9 48.7 37.9 46.9 37.9 45.45 36.9 L45.0 36.45 44.0 35.05 Q42.7 37.6 40.5 39.75 L40.3 40.0 37.75 42.15 Q33.45 47.3 27.0 49.6 20.5 47.3 16.2 42.15 L13.65 40.0 13.4 39.75 Q11.25 37.6 9.95 35.05 L8.85 36.45 Q7.4 37.9 5.25 37.9 3.05 37.9 1.55 36.45 0.0 34.9 0.0 32.75 0.0 30.45 1.55 28.95 3.05 27.5 5.25 27.5 6.75 27.5 7.95 28.25 L7.8 26.2 Q7.8 21.2 10.1 17.1 L12.0 13.65 Q13.55 10.85 17.9 5.3 L17.9 10.25 Q20.9 4.05 27.0 0.0 33.0 4.05 36.0 10.25 L36.0 5.3 Q40.45 10.85 41.85 13.65 L43.85 17.1 M14.75 26.65 Q16.4 24.65 18.9 24.5 21.35 24.25 23.1 26.0 25.05 27.9 25.15 30.65 25.3 33.6 23.75 35.65 22.2 37.65 19.7 38.05 17.25 38.2 15.4 36.2 13.5 34.5 13.4 31.65 13.3 28.9 14.75 26.65 M35.15 24.5 Q32.65 24.25 30.85 26.0 28.9 27.9 28.9 30.65 28.65 33.6 30.3 35.65 31.85 37.65 34.3 38.05 36.8 38.2 38.7 36.2 40.45 34.5 40.65 31.65 40.7 28.9 39.15 26.65 37.6 24.65 35.15 24.5 M31.0 30.5 Q30.45 30.5 30.15 30.9 29.75 31.2 29.75 31.75 29.6 32.45 30.0 32.8 30.3 33.15 30.85 33.3 31.3 33.3 31.7 32.9 L32.05 31.9 31.75 31.05 31.0 30.5 M22.8 30.45 Q23.35 30.45 23.75 30.75 L24.05 31.65 Q24.15 32.25 23.85 32.65 23.5 33.05 22.95 33.15 L22.1 32.9 21.65 31.8 Q21.65 31.4 22.05 30.95 22.4 30.5 22.8 30.45 Z" fill="none" stroke="#000000" stroke-linecap="round" stroke-linejoin="round" stroke-opacity="0.2" stroke-width="1.5"/>
    </g>
    <g id="sprite15" transform="matrix(1.0, 0.0, 0.0, 1.0, 0.0, 0.0)">
      <use ffdec:characterId="18" height="49.6" transform="matrix(1.0, 0.0, 0.0, 1.0, 0.0, 0.0)" width="53.9" xlink:href="#shape2"/>
    </g>
    <g id="shape2" transform="matrix(1.0, 0.0, 0.0, 1.0, 0.0, 0.0)">
      <path d="M43.9 17.05 Q44.95 19.05 45.5 21.3 46.15 23.55 46.15 26.2 L46.0 28.25 Q47.3 27.5 48.75 27.5 50.85 27.5 52.45 28.95 53.9 30.4 53.9 32.7 53.9 34.85 52.45 36.4 50.85 37.85 48.75 37.85 46.95 37.85 45.5 36.85 L45.05 36.4 44.0 35.0 Q42.7 37.55 40.55 39.75 L40.3 39.95 37.75 42.1 Q33.5 47.25 27.0 49.6 20.55 47.25 16.25 42.1 L13.7 39.95 13.4 39.75 Q11.3 37.55 10.0 35.0 L8.9 36.4 Q7.45 37.85 5.25 37.85 3.05 37.85 1.55 36.4 0.0 34.85 0.0 32.7 0.0 30.4 1.55 28.95 3.05 27.5 5.25 27.5 6.8 27.5 7.95 28.25 L7.8 26.2 Q7.8 21.15 10.15 17.05 L12.0 13.65 Q13.6 10.8 17.9 5.25 L17.9 10.2 Q20.9 4.0 27.0 0.0 33.05 4.0 36.0 10.2 L36.0 5.25 Q40.45 10.8 41.9 13.65 L43.9 17.05 M14.8 26.6 Q13.35 28.9 13.4 31.65 13.55 34.5 15.45 36.2 17.25 38.15 19.75 38.0 22.2 37.65 23.75 35.6 25.35 33.55 25.2 30.65 25.1 27.85 23.15 25.95 21.4 24.2 18.95 24.45 16.45 24.6 14.8 26.6 M35.15 24.45 Q32.7 24.2 30.85 25.95 28.95 27.85 28.9 30.65 28.65 33.55 30.35 35.6 31.9 37.65 34.35 38.0 36.8 38.15 38.7 36.2 40.45 34.5 40.7 31.65 40.75 28.9 39.2 26.6 37.6 24.6 35.15 24.45 M31.8 31.0 L32.1 31.9 31.75 32.9 30.85 33.25 Q30.35 33.1 30.0 32.75 29.6 32.4 29.75 31.75 29.75 31.15 30.15 30.85 30.5 30.5 31.0 30.5 L31.8 31.0 M22.15 32.8 Q21.75 32.4 21.7 31.8 21.7 31.35 22.05 30.95 22.4 30.5 22.85 30.4 23.35 30.4 23.75 30.7 24.1 31.05 24.1 31.65 L23.85 32.6 23.0 33.1 22.15 32.8" fill="#000000" fill-rule="evenodd" stroke="none"/>
    </g>
  </defs>
</svg>
