<?xml version="1.0" encoding="UTF-8" standalone="no"?>
<svg xmlns:ffdec="https://www.free-decompiler.com/flash" xmlns:xlink="http://www.w3.org/1999/xlink" ffdec:objectType="frame" height="56.0px" width="56.0px" xmlns="http://www.w3.org/2000/svg">
  <g transform="matrix(1.0, 0.0, 0.0, 1.0, 0.0, 0.0)">
    <use ffdec:characterId="16" ffdec:characterName="107_fla.Symbole45_1" height="56.0" id="back" transform="matrix(1.0, 0.0, 0.0, 1.0, 0.0, 0.0)" width="56.0" xlink:href="#sprite0"/>
    <use ffdec:characterId="18" height="54.95" id="back" transform="matrix(1.0, 0.0, 0.0, 1.0, 0.4, 0.75)" width="55.4" xlink:href="#sprite15"/>
    <use ffdec:characterId="20" height="53.45" id="up" transform="matrix(1.0, 0.0, 0.0, 1.0, 1.1, 1.5)" width="53.95" xlink:href="#sprite16"/>
  </g>
  <defs>
    <g id="sprite0" transform="matrix(1.0, 0.0, 0.0, 1.0, 0.0, 0.0)">
      <use ffdec:characterId="15" ffdec:characterName="107_fla.Symbole42_2" height="56.0" id="back" transform="matrix(1.0, 0.0, 0.0, 1.0, 0.0, 0.0)" width="56.0" xlink:href="#sprite1"/>
    </g>
    <g id="sprite1" transform="matrix(1.0, 0.0, 0.0, 1.0, 0.0, 0.0)">
      <use ffdec:characterId="14" ffdec:characterName="107_fla.Symbole39_3" height="56.0" id="back" transform="matrix(1.0, 0.0, 0.0, 1.0, 0.0, 0.0)" width="56.0" xlink:href="#sprite2"/>
    </g>
    <g id="sprite2" transform="matrix(1.0, 0.0, 0.0, 1.0, 0.0, 0.0)">
      <use ffdec:characterId="13" ffdec:characterName="107_fla.Symbole36_4" height="56.0" id="back" transform="matrix(1.0, 0.0, 0.0, 1.0, 0.0, 0.0)" width="56.0" xlink:href="#sprite3"/>
    </g>
    <g id="sprite3" transform="matrix(1.0, 0.0, 0.0, 1.0, 0.0, 0.0)">
      <use ffdec:characterId="12" ffdec:characterName="107_fla.Symbole33_5" height="56.0" id="back" transform="matrix(1.0, 0.0, 0.0, 1.0, 0.0, 0.0)" width="56.0" xlink:href="#sprite4"/>
    </g>
    <g id="sprite4" transform="matrix(1.0, 0.0, 0.0, 1.0, 0.0, 0.0)">
      <use ffdec:characterId="11" ffdec:characterName="107_fla.Symbole30_6" height="56.0" id="back" transform="matrix(1.0, 0.0, 0.0, 1.0, 0.0, 0.0)" width="56.0" xlink:href="#sprite5"/>
    </g>
    <g id="sprite5" transform="matrix(1.0, 0.0, 0.0, 1.0, 0.0, 0.0)">
      <use ffdec:characterId="10" ffdec:characterName="107_fla.Symbole27_7" height="56.0" id="back" transform="matrix(1.0, 0.0, 0.0, 1.0, 0.0, 0.0)" width="56.0" xlink:href="#sprite6"/>
    </g>
    <g id="sprite6" transform="matrix(1.0, 0.0, 0.0, 1.0, 0.0, 0.0)">
      <use ffdec:characterId="9" ffdec:characterName="107_fla.Symbole24_8" height="56.0" id="back" transform="matrix(1.0, 0.0, 0.0, 1.0, 0.0, 0.0)" width="56.0" xlink:href="#sprite7"/>
    </g>
    <g id="sprite7" transform="matrix(1.0, 0.0, 0.0, 1.0, 0.0, 0.0)">
      <use ffdec:characterId="8" ffdec:characterName="107_fla.Symbole21_9" height="56.0" id="back" transform="matrix(1.0, 0.0, 0.0, 1.0, 0.0, 0.0)" width="56.0" xlink:href="#sprite8"/>
    </g>
    <g id="sprite8" transform="matrix(1.0, 0.0, 0.0, 1.0, 0.0, 0.0)">
      <use ffdec:characterId="7" ffdec:characterName="107_fla.Symbole18_10" height="56.0" id="back" transform="matrix(1.0, 0.0, 0.0, 1.0, 0.0, 0.0)" width="56.0" xlink:href="#sprite9"/>
    </g>
    <g id="sprite9" transform="matrix(1.0, 0.0, 0.0, 1.0, 0.0, 0.0)">
      <use ffdec:characterId="6" ffdec:characterName="107_fla.Symbole15_11" height="56.0" id="back" transform="matrix(1.0, 0.0, 0.0, 1.0, 0.0, 0.0)" width="56.0" xlink:href="#sprite10"/>
    </g>
    <g id="sprite10" transform="matrix(1.0, 0.0, 0.0, 1.0, 0.0, 0.0)">
      <use ffdec:characterId="5" ffdec:characterName="107_fla.Symbole12_12" height="56.0" id="back" transform="matrix(1.0, 0.0, 0.0, 1.0, 0.0, 0.0)" width="56.0" xlink:href="#sprite11"/>
    </g>
    <g id="sprite11" transform="matrix(1.0, 0.0, 0.0, 1.0, 0.0, 0.0)">
      <use ffdec:characterId="4" ffdec:characterName="107_fla.Symbole9_13" height="56.0" id="back" transform="matrix(1.0, 0.0, 0.0, 1.0, 0.0, 0.0)" width="56.0" xlink:href="#sprite12"/>
    </g>
    <g id="sprite12" transform="matrix(1.0, 0.0, 0.0, 1.0, 0.0, 0.0)">
      <use ffdec:characterId="3" ffdec:characterName="107_fla.Symbole6_14" height="56.0" id="back" transform="matrix(1.0, 0.0, 0.0, 1.0, 0.0, 0.0)" width="56.0" xlink:href="#sprite13"/>
    </g>
    <g id="sprite13" transform="matrix(1.0, 0.0, 0.0, 1.0, 0.0, 0.0)">
      <use ffdec:characterId="2" height="56.0" id="back" transform="matrix(1.0, 0.0, 0.0, 1.0, 0.0, 0.0)" width="56.0" xlink:href="#sprite14"/>
    </g>
    <g id="sprite14" transform="matrix(1.0, 0.0, 0.0, 1.0, 0.0, 0.0)">
      <use ffdec:characterId="1" height="56.0" transform="matrix(1.0, 0.0, 0.0, 1.0, 0.0, 0.0)" width="56.0" xlink:href="#shape0"/>
    </g>
    <g id="shape0" transform="matrix(1.0, 0.0, 0.0, 1.0, 0.0, 0.0)">
      <path d="M56.0 56.0 L0.0 56.0 0.0 0.0 56.0 0.0 56.0 56.0" fill="#010101" fill-opacity="0.0" fill-rule="evenodd" stroke="none"/>
    </g>
    <g id="sprite15" transform="matrix(1.0, 0.0, 0.0, 1.0, 0.75, 0.75)">
      <use ffdec:characterId="17" height="54.95" transform="matrix(1.0, 0.0, 0.0, 1.0, -0.75, -0.75)" width="55.4" xlink:href="#shape1"/>
    </g>
    <g id="shape1" transform="matrix(1.0, 0.0, 0.0, 1.0, 0.75, 0.75)">
      <path d="M43.65 24.6 Q42.8 22.35 40.95 22.55 41.95 27.45 40.05 34.75 39.8 36.95 41.75 37.55 44.3 38.25 49.8 31.45 49.9 50.2 38.0 48.5 32.1 46.9 26.9 47.0 21.8 46.9 15.9 48.5 3.95 50.2 4.2 31.45 9.65 38.25 12.15 37.55 13.95 36.95 13.85 34.75 11.9 27.45 12.9 22.55 10.95 22.35 10.25 24.6 5.65 24.0 4.5 22.8 -3.85 14.5 3.3 0.0 7.25 9.1 18.6 15.0 19.35 14.5 20.25 14.3 22.2 12.45 22.9 10.1 23.6 11.8 22.9 13.7 L23.75 13.45 Q27.9 11.25 30.55 6.0 L29.35 11.75 Q30.95 11.8 31.6 10.6 32.1 12.6 30.95 13.7 33.45 14.1 35.3 15.0 46.6 9.1 50.6 0.0 57.75 14.5 49.45 22.8 48.15 24.0 43.65 24.6 M15.2 40.65 Q14.6 39.7 14.25 38.4 13.45 34.4 17.2 29.0 18.35 28.25 19.75 28.35 22.9 28.9 24.95 34.0 L25.45 37.1 Q26.0 40.4 25.75 41.45 20.6 44.15 15.9 41.35 L15.2 40.65 M33.85 28.5 Q30.75 29.0 28.8 34.0 L28.2 37.2 Q27.65 40.55 27.9 41.6 33.15 44.2 37.8 41.45 L38.5 40.7 Q39.1 39.8 39.4 38.5 40.25 34.55 36.6 29.15 35.35 28.25 33.85 28.5 M24.55 40.45 Q24.2 41.25 23.75 41.35 23.2 41.45 22.75 40.7 22.2 40.1 22.2 39.0 22.0 38.0 22.2 37.2 22.55 36.45 23.05 36.3 23.6 36.2 24.15 36.95 24.6 37.55 24.7 38.65 24.85 39.65 24.55 40.45 M30.75 36.3 Q30.3 36.2 29.85 36.95 29.3 37.55 29.2 38.65 29.05 39.65 29.3 40.45 29.6 41.25 30.2 41.35 30.7 41.45 31.15 40.7 31.6 40.1 31.75 39.0 31.85 38.0 31.5 37.2 31.35 36.45 30.75 36.3 M18.65 49.05 L21.8 53.45 23.4 48.45 Q21.05 48.3 18.65 49.05 M35.2 49.05 L32.1 53.45 30.45 48.45 Q32.85 48.3 35.2 49.05 Z" fill="none" stroke="#000000" stroke-linecap="round" stroke-linejoin="round" stroke-opacity="0.2" stroke-width="1.5"/>
    </g>
    <g id="sprite16" transform="matrix(1.0, 0.0, 0.0, 1.0, 0.0, 0.0)">
      <use ffdec:characterId="19" height="53.45" transform="matrix(1.0, 0.0, 0.0, 1.0, 0.0, 0.0)" width="53.95" xlink:href="#shape2"/>
    </g>
    <g id="shape2" transform="matrix(1.0, 0.0, 0.0, 1.0, 0.0, 0.0)">
      <path d="M43.7 24.55 Q42.85 22.3 41.0 22.55 42.0 27.4 40.05 34.75 39.8 36.9 41.75 37.55 44.3 38.25 49.85 31.45 49.9 50.2 38.05 48.5 32.1 46.9 26.95 46.95 21.85 46.9 15.9 48.5 3.95 50.2 4.2 31.45 9.65 38.25 12.15 37.55 14.0 36.9 13.9 34.75 11.9 27.4 12.9 22.55 11.0 22.3 10.3 24.55 5.65 24.0 4.5 22.8 -3.85 14.5 3.35 0.0 7.3 9.1 18.6 15.0 19.4 14.5 20.3 14.3 22.25 12.45 22.95 10.1 23.65 11.8 22.95 13.65 L23.8 13.45 Q27.95 11.2 30.55 6.0 L29.4 11.75 Q30.95 11.8 31.65 10.6 32.1 12.6 30.95 13.65 33.5 14.05 35.35 15.0 46.6 9.1 50.6 0.0 57.8 14.5 49.45 22.8 48.25 24.0 43.7 24.55 M15.2 40.65 L15.9 41.35 Q20.6 44.1 25.8 41.4 26.0 40.4 25.5 37.1 L24.95 34.0 Q22.95 28.9 19.75 28.35 18.4 28.25 17.25 28.95 13.45 34.35 14.3 38.4 14.6 39.7 15.2 40.65 M33.9 28.5 Q30.8 28.95 28.8 34.0 L28.25 37.15 Q27.7 40.55 27.95 41.55 33.2 44.2 37.8 41.4 L38.5 40.7 Q39.15 39.8 39.45 38.45 40.3 34.55 36.6 29.1 35.45 28.25 33.9 28.5 M24.55 40.5 Q24.25 41.25 23.8 41.35 23.25 41.4 22.8 40.7 22.25 40.1 22.25 39.0 22.0 38.0 22.25 37.15 22.6 36.45 23.1 36.3 23.65 36.25 24.15 36.9 24.65 37.55 24.7 38.6 24.85 39.65 24.55 40.5 M30.8 36.3 Q31.35 36.45 31.55 37.15 31.9 38.0 31.8 39.0 L31.2 40.7 Q30.7 41.4 30.2 41.35 29.65 41.25 29.35 40.5 29.1 39.65 29.25 38.6 29.35 37.55 29.85 36.9 30.35 36.25 30.8 36.3 M35.2 49.05 L32.1 53.45 30.5 48.45 Q32.9 48.3 35.2 49.05 M18.7 49.05 Q21.1 48.3 23.4 48.45 L21.85 53.45 18.7 49.05" fill="#000000" fill-rule="evenodd" stroke="none"/>
    </g>
  </defs>
</svg>
