<?xml version="1.0" encoding="UTF-8" standalone="no"?>
<svg xmlns:ffdec="https://www.free-decompiler.com/flash" xmlns:xlink="http://www.w3.org/1999/xlink" ffdec:objectType="frame" height="56.0px" width="56.0px" xmlns="http://www.w3.org/2000/svg">
  <g transform="matrix(1.0, 0.0, 0.0, 1.0, 0.0, 0.0)">
    <use ffdec:characterId="17" ffdec:characterName="108_fla.Symbole48_1" height="56.0" id="back" transform="matrix(1.0, 0.0, 0.0, 1.0, 0.0, 0.0)" width="56.0" xlink:href="#sprite0"/>
    <use ffdec:characterId="19" height="48.7" id="back" transform="matrix(1.0, 0.0, 0.0, 1.0, 0.4, 3.75)" width="55.4" xlink:href="#sprite16"/>
    <use ffdec:characterId="21" height="47.25" id="up" transform="matrix(1.0, 0.0, 0.0, 1.0, 1.2, 4.45)" width="53.9" xlink:href="#sprite17"/>
  </g>
  <defs>
    <g id="sprite0" transform="matrix(1.0, 0.0, 0.0, 1.0, 0.0, 0.0)">
      <use ffdec:characterId="16" ffdec:characterName="108_fla.Symbole45_2" height="56.0" id="back" transform="matrix(1.0, 0.0, 0.0, 1.0, 0.0, 0.0)" width="56.0" xlink:href="#sprite1"/>
    </g>
    <g id="sprite1" transform="matrix(1.0, 0.0, 0.0, 1.0, 0.0, 0.0)">
      <use ffdec:characterId="15" ffdec:characterName="108_fla.Symbole42_3" height="56.0" id="back" transform="matrix(1.0, 0.0, 0.0, 1.0, 0.0, 0.0)" width="56.0" xlink:href="#sprite2"/>
    </g>
    <g id="sprite2" transform="matrix(1.0, 0.0, 0.0, 1.0, 0.0, 0.0)">
      <use ffdec:characterId="14" ffdec:characterName="108_fla.Symbole39_4" height="56.0" id="back" transform="matrix(1.0, 0.0, 0.0, 1.0, 0.0, 0.0)" width="56.0" xlink:href="#sprite3"/>
    </g>
    <g id="sprite3" transform="matrix(1.0, 0.0, 0.0, 1.0, 0.0, 0.0)">
      <use ffdec:characterId="13" ffdec:characterName="108_fla.Symbole36_5" height="56.0" id="back" transform="matrix(1.0, 0.0, 0.0, 1.0, 0.0, 0.0)" width="56.0" xlink:href="#sprite4"/>
    </g>
    <g id="sprite4" transform="matrix(1.0, 0.0, 0.0, 1.0, 0.0, 0.0)">
      <use ffdec:characterId="12" ffdec:characterName="108_fla.Symbole33_6" height="56.0" id="back" transform="matrix(1.0, 0.0, 0.0, 1.0, 0.0, 0.0)" width="56.0" xlink:href="#sprite5"/>
    </g>
    <g id="sprite5" transform="matrix(1.0, 0.0, 0.0, 1.0, 0.0, 0.0)">
      <use ffdec:characterId="11" ffdec:characterName="108_fla.Symbole30_7" height="56.0" id="back" transform="matrix(1.0, 0.0, 0.0, 1.0, 0.0, 0.0)" width="56.0" xlink:href="#sprite6"/>
    </g>
    <g id="sprite6" transform="matrix(1.0, 0.0, 0.0, 1.0, 0.0, 0.0)">
      <use ffdec:characterId="10" ffdec:characterName="108_fla.Symbole27_8" height="56.0" id="back" transform="matrix(1.0, 0.0, 0.0, 1.0, 0.0, 0.0)" width="56.0" xlink:href="#sprite7"/>
    </g>
    <g id="sprite7" transform="matrix(1.0, 0.0, 0.0, 1.0, 0.0, 0.0)">
      <use ffdec:characterId="9" ffdec:characterName="108_fla.Symbole24_9" height="56.0" id="back" transform="matrix(1.0, 0.0, 0.0, 1.0, 0.0, 0.0)" width="56.0" xlink:href="#sprite8"/>
    </g>
    <g id="sprite8" transform="matrix(1.0, 0.0, 0.0, 1.0, 0.0, 0.0)">
      <use ffdec:characterId="8" ffdec:characterName="108_fla.Symbole21_10" height="56.0" id="back" transform="matrix(1.0, 0.0, 0.0, 1.0, 0.0, 0.0)" width="56.0" xlink:href="#sprite9"/>
    </g>
    <g id="sprite9" transform="matrix(1.0, 0.0, 0.0, 1.0, 0.0, 0.0)">
      <use ffdec:characterId="7" ffdec:characterName="108_fla.Symbole18_11" height="56.0" id="back" transform="matrix(1.0, 0.0, 0.0, 1.0, 0.0, 0.0)" width="56.0" xlink:href="#sprite10"/>
    </g>
    <g id="sprite10" transform="matrix(1.0, 0.0, 0.0, 1.0, 0.0, 0.0)">
      <use ffdec:characterId="6" ffdec:characterName="108_fla.Symbole15_12" height="56.0" id="back" transform="matrix(1.0, 0.0, 0.0, 1.0, 0.0, 0.0)" width="56.0" xlink:href="#sprite11"/>
    </g>
    <g id="sprite11" transform="matrix(1.0, 0.0, 0.0, 1.0, 0.0, 0.0)">
      <use ffdec:characterId="5" ffdec:characterName="108_fla.Symbole12_13" height="56.0" id="back" transform="matrix(1.0, 0.0, 0.0, 1.0, 0.0, 0.0)" width="56.0" xlink:href="#sprite12"/>
    </g>
    <g id="sprite12" transform="matrix(1.0, 0.0, 0.0, 1.0, 0.0, 0.0)">
      <use ffdec:characterId="4" ffdec:characterName="108_fla.Symbole9_14" height="56.0" id="back" transform="matrix(1.0, 0.0, 0.0, 1.0, 0.0, 0.0)" width="56.0" xlink:href="#sprite13"/>
    </g>
    <g id="sprite13" transform="matrix(1.0, 0.0, 0.0, 1.0, 0.0, 0.0)">
      <use ffdec:characterId="3" ffdec:characterName="108_fla.Symbole6_15" height="56.0" id="back" transform="matrix(1.0, 0.0, 0.0, 1.0, 0.0, 0.0)" width="56.0" xlink:href="#sprite14"/>
    </g>
    <g id="sprite14" transform="matrix(1.0, 0.0, 0.0, 1.0, 0.0, 0.0)">
      <use ffdec:characterId="2" height="56.0" id="back" transform="matrix(1.0, 0.0, 0.0, 1.0, 0.0, 0.0)" width="56.0" xlink:href="#sprite15"/>
    </g>
    <g id="sprite15" transform="matrix(1.0, 0.0, 0.0, 1.0, 0.0, 0.0)">
      <use ffdec:characterId="1" height="56.0" transform="matrix(1.0, 0.0, 0.0, 1.0, 0.0, 0.0)" width="56.0" xlink:href="#shape0"/>
    </g>
    <g id="shape0" transform="matrix(1.0, 0.0, 0.0, 1.0, 0.0, 0.0)">
      <path d="M56.0 56.0 L0.0 56.0 0.0 0.0 56.0 0.0 56.0 56.0" fill="#010101" fill-opacity="0.0" fill-rule="evenodd" stroke="none"/>
    </g>
    <g id="sprite16" transform="matrix(1.0, 0.0, 0.0, 1.0, 0.75, 0.75)">
      <use ffdec:characterId="18" height="48.7" transform="matrix(1.0, 0.0, 0.0, 1.0, -0.75, -0.75)" width="55.4" xlink:href="#shape1"/>
    </g>
    <g id="shape1" transform="matrix(1.0, 0.0, 0.0, 1.0, 0.75, 0.75)">
      <path d="M51.2 7.2 L50.05 8.2 Q47.0 6.35 43.1 6.2 L43.35 4.9 43.2 3.85 42.45 2.55 Q41.35 1.55 40.05 1.55 38.6 1.55 37.6 2.55 L37.45 2.75 Q33.1 -0.95 31.4 0.35 L31.25 0.55 31.3 0.8 33.6 5.65 31.25 13.55 31.3 13.8 31.4 13.85 31.45 13.9 31.65 13.9 34.95 13.3 Q35.1 18.3 36.75 22.2 L36.75 22.5 Q36.35 23.4 34.0 23.65 L23.85 23.05 24.0 23.25 Q20.35 21.85 17.55 18.85 L17.55 13.85 17.55 13.6 17.3 13.4 Q17.1 13.4 17.05 13.55 L14.0 15.25 11.65 14.85 9.45 12.15 Q9.4 12.0 9.2 12.0 L8.8 12.1 8.65 12.4 8.3 15.75 Q7.05 16.7 5.8 18.25 4.05 20.5 3.35 22.9 L0.5 22.2 0.25 22.3 Q0.1 22.3 0.1 22.45 L0.0 22.65 1.45 29.35 1.45 29.45 1.55 29.7 1.85 29.75 2.0 29.7 7.45 25.4 7.55 25.1 7.55 24.85 7.4 24.75 5.1 23.65 5.85 22.65 Q8.1 20.15 10.75 20.55 14.75 21.95 15.65 28.95 16.25 32.65 18.7 34.5 L19.05 34.8 20.9 35.65 20.85 35.65 23.85 37.25 21.05 39.0 20.9 39.05 20.85 39.3 21.0 39.45 26.5 43.15 26.1 44.45 23.5 44.8 23.35 44.95 22.05 47.05 28.65 47.05 28.8 47.05 29.0 46.85 29.55 46.65 31.6 47.2 35.3 47.2 35.2 46.85 33.5 44.3 33.25 44.25 30.85 44.25 28.75 42.65 25.55 39.35 Q27.65 37.75 29.65 36.85 L30.2 36.55 30.6 36.25 32.7 34.8 33.1 34.45 33.2 34.35 33.25 34.8 33.5 34.1 Q34.8 33.0 35.75 31.2 L38.2 31.4 38.35 31.4 Q41.85 29.3 39.15 20.75 37.55 16.35 39.05 12.5 L40.2 12.25 Q45.05 11.85 46.5 14.3 L46.65 14.45 46.8 14.45 Q51.35 14.35 53.85 12.0 L53.9 11.7 53.85 11.45 52.25 9.75 52.15 9.75 51.75 7.4 51.6 7.2 51.35 7.1 Q51.2 7.1 51.2 7.2 Z" fill="none" stroke="#000000" stroke-linecap="round" stroke-linejoin="round" stroke-opacity="0.2" stroke-width="1.5"/>
    </g>
    <g id="sprite17" transform="matrix(1.0, 0.0, 0.0, 1.0, 0.0, 0.0)">
      <use ffdec:characterId="20" height="47.25" transform="matrix(1.0, 0.0, 0.0, 1.0, 0.0, 0.0)" width="53.9" xlink:href="#shape2"/>
    </g>
    <g id="shape2" transform="matrix(1.0, 0.0, 0.0, 1.0, 0.0, 0.0)">
      <path d="M51.15 7.2 L51.3 7.15 51.55 7.2 51.7 7.45 52.15 9.8 52.2 9.8 53.8 11.5 53.9 11.7 53.8 12.0 Q51.3 14.4 46.75 14.45 L46.6 14.45 46.45 14.3 Q45.0 11.85 40.15 12.25 L39.0 12.55 Q37.5 16.35 39.1 20.8 41.8 29.3 38.3 31.4 L38.15 31.4 35.75 31.25 Q34.75 33.0 33.45 34.15 L33.25 34.8 Q33.15 34.9 33.15 34.35 L33.1 34.45 32.6 34.8 30.55 36.25 30.1 36.55 29.6 36.85 Q27.6 37.8 25.5 39.4 L28.65 42.65 30.8 44.25 33.25 44.25 33.45 44.35 35.15 46.85 35.3 47.25 31.55 47.25 29.5 46.65 29.0 46.85 28.75 47.1 28.6 47.1 22.0 47.1 23.3 44.95 23.45 44.8 26.0 44.5 26.45 43.2 20.95 39.45 20.8 39.3 20.85 39.1 Q20.85 39.0 21.0 39.0 L23.8 37.25 20.8 35.65 20.85 35.65 Q19.8 35.35 19.05 34.8 18.8 34.75 18.65 34.5 16.2 32.7 15.6 28.95 14.7 21.95 10.7 20.55 8.05 20.2 5.8 22.7 5.35 23.05 5.05 23.7 L7.35 24.75 7.5 24.9 7.5 25.15 7.4 25.45 1.95 29.7 1.8 29.8 1.5 29.7 1.4 29.5 1.4 29.4 0.0 22.7 0.05 22.45 Q0.05 22.3 0.2 22.3 L0.45 22.25 3.3 22.9 Q4.0 20.5 5.75 18.25 6.95 16.75 8.25 15.75 L8.65 12.4 8.8 12.1 9.15 12.0 9.4 12.15 11.6 14.85 13.95 15.2 17.0 13.55 17.2 13.4 Q17.45 13.4 17.5 13.6 L17.5 13.85 17.5 18.9 Q20.3 21.85 23.95 23.25 L23.8 23.05 33.9 23.7 Q36.25 23.4 36.7 22.55 L36.7 22.25 Q35.05 18.35 34.9 13.3 L31.65 13.95 31.4 13.95 31.35 13.85 31.25 13.75 31.2 13.55 33.55 5.7 31.25 0.8 31.2 0.6 31.35 0.35 Q33.1 -0.95 37.4 2.7 L37.55 2.55 Q38.55 1.6 40.0 1.6 41.3 1.6 42.4 2.55 L43.2 3.85 43.35 4.95 43.1 6.25 Q46.95 6.4 50.0 8.2 L51.15 7.2" fill="#000000" fill-rule="evenodd" stroke="none"/>
    </g>
  </defs>
</svg>
