<?xml version="1.0" encoding="UTF-8" standalone="no"?>
<svg xmlns:ffdec="https://www.free-decompiler.com/flash" xmlns:xlink="http://www.w3.org/1999/xlink" ffdec:objectType="frame" height="56.0px" width="56.0px" xmlns="http://www.w3.org/2000/svg">
  <g transform="matrix(1.0, 0.0, 0.0, 1.0, 0.0, 0.0)">
    <use ffdec:characterId="18" ffdec:characterName="109_fla.Symbole51_1" height="56.0" id="back" transform="matrix(1.0, 0.0, 0.0, 1.0, 0.0, 0.0)" width="56.0" xlink:href="#sprite0"/>
    <use ffdec:characterId="20" height="55.55" id="back" transform="matrix(1.0, 0.0, 0.0, 1.0, 10.1, 0.45)" width="37.65" xlink:href="#sprite17"/>
    <use ffdec:characterId="22" height="54.0" id="up" transform="matrix(1.0, 0.0, 0.0, 1.0, 10.8, 1.25)" width="36.2" xlink:href="#sprite18"/>
  </g>
  <defs>
    <g id="sprite0" transform="matrix(1.0, 0.0, 0.0, 1.0, 0.0, 0.0)">
      <use ffdec:characterId="17" ffdec:characterName="109_fla.Symbole48_2" height="56.0" id="back" transform="matrix(1.0, 0.0, 0.0, 1.0, 0.0, 0.0)" width="56.0" xlink:href="#sprite1"/>
    </g>
    <g id="sprite1" transform="matrix(1.0, 0.0, 0.0, 1.0, 0.0, 0.0)">
      <use ffdec:characterId="16" ffdec:characterName="109_fla.Symbole45_3" height="56.0" id="back" transform="matrix(1.0, 0.0, 0.0, 1.0, 0.0, 0.0)" width="56.0" xlink:href="#sprite2"/>
    </g>
    <g id="sprite2" transform="matrix(1.0, 0.0, 0.0, 1.0, 0.0, 0.0)">
      <use ffdec:characterId="15" ffdec:characterName="109_fla.Symbole42_4" height="56.0" id="back" transform="matrix(1.0, 0.0, 0.0, 1.0, 0.0, 0.0)" width="56.0" xlink:href="#sprite3"/>
    </g>
    <g id="sprite3" transform="matrix(1.0, 0.0, 0.0, 1.0, 0.0, 0.0)">
      <use ffdec:characterId="14" ffdec:characterName="109_fla.Symbole39_5" height="56.0" id="back" transform="matrix(1.0, 0.0, 0.0, 1.0, 0.0, 0.0)" width="56.0" xlink:href="#sprite4"/>
    </g>
    <g id="sprite4" transform="matrix(1.0, 0.0, 0.0, 1.0, 0.0, 0.0)">
      <use ffdec:characterId="13" ffdec:characterName="109_fla.Symbole36_6" height="56.0" id="back" transform="matrix(1.0, 0.0, 0.0, 1.0, 0.0, 0.0)" width="56.0" xlink:href="#sprite5"/>
    </g>
    <g id="sprite5" transform="matrix(1.0, 0.0, 0.0, 1.0, 0.0, 0.0)">
      <use ffdec:characterId="12" ffdec:characterName="109_fla.Symbole33_7" height="56.0" id="back" transform="matrix(1.0, 0.0, 0.0, 1.0, 0.0, 0.0)" width="56.0" xlink:href="#sprite6"/>
    </g>
    <g id="sprite6" transform="matrix(1.0, 0.0, 0.0, 1.0, 0.0, 0.0)">
      <use ffdec:characterId="11" ffdec:characterName="109_fla.Symbole30_8" height="56.0" id="back" transform="matrix(1.0, 0.0, 0.0, 1.0, 0.0, 0.0)" width="56.0" xlink:href="#sprite7"/>
    </g>
    <g id="sprite7" transform="matrix(1.0, 0.0, 0.0, 1.0, 0.0, 0.0)">
      <use ffdec:characterId="10" ffdec:characterName="109_fla.Symbole27_9" height="56.0" id="back" transform="matrix(1.0, 0.0, 0.0, 1.0, 0.0, 0.0)" width="56.0" xlink:href="#sprite8"/>
    </g>
    <g id="sprite8" transform="matrix(1.0, 0.0, 0.0, 1.0, 0.0, 0.0)">
      <use ffdec:characterId="9" ffdec:characterName="109_fla.Symbole24_10" height="56.0" id="back" transform="matrix(1.0, 0.0, 0.0, 1.0, 0.0, 0.0)" width="56.0" xlink:href="#sprite9"/>
    </g>
    <g id="sprite9" transform="matrix(1.0, 0.0, 0.0, 1.0, 0.0, 0.0)">
      <use ffdec:characterId="8" ffdec:characterName="109_fla.Symbole21_11" height="56.0" id="back" transform="matrix(1.0, 0.0, 0.0, 1.0, 0.0, 0.0)" width="56.0" xlink:href="#sprite10"/>
    </g>
    <g id="sprite10" transform="matrix(1.0, 0.0, 0.0, 1.0, 0.0, 0.0)">
      <use ffdec:characterId="7" ffdec:characterName="109_fla.Symbole18_12" height="56.0" id="back" transform="matrix(1.0, 0.0, 0.0, 1.0, 0.0, 0.0)" width="56.0" xlink:href="#sprite11"/>
    </g>
    <g id="sprite11" transform="matrix(1.0, 0.0, 0.0, 1.0, 0.0, 0.0)">
      <use ffdec:characterId="6" ffdec:characterName="109_fla.Symbole15_13" height="56.0" id="back" transform="matrix(1.0, 0.0, 0.0, 1.0, 0.0, 0.0)" width="56.0" xlink:href="#sprite12"/>
    </g>
    <g id="sprite12" transform="matrix(1.0, 0.0, 0.0, 1.0, 0.0, 0.0)">
      <use ffdec:characterId="5" ffdec:characterName="109_fla.Symbole12_14" height="56.0" id="back" transform="matrix(1.0, 0.0, 0.0, 1.0, 0.0, 0.0)" width="56.0" xlink:href="#sprite13"/>
    </g>
    <g id="sprite13" transform="matrix(1.0, 0.0, 0.0, 1.0, 0.0, 0.0)">
      <use ffdec:characterId="4" ffdec:characterName="109_fla.Symbole9_15" height="56.0" id="back" transform="matrix(1.0, 0.0, 0.0, 1.0, 0.0, 0.0)" width="56.0" xlink:href="#sprite14"/>
    </g>
    <g id="sprite14" transform="matrix(1.0, 0.0, 0.0, 1.0, 0.0, 0.0)">
      <use ffdec:characterId="3" ffdec:characterName="109_fla.Symbole6_16" height="56.0" id="back" transform="matrix(1.0, 0.0, 0.0, 1.0, 0.0, 0.0)" width="56.0" xlink:href="#sprite15"/>
    </g>
    <g id="sprite15" transform="matrix(1.0, 0.0, 0.0, 1.0, 0.0, 0.0)">
      <use ffdec:characterId="2" height="56.0" id="back" transform="matrix(1.0, 0.0, 0.0, 1.0, 0.0, 0.0)" width="56.0" xlink:href="#sprite16"/>
    </g>
    <g id="sprite16" transform="matrix(1.0, 0.0, 0.0, 1.0, 0.0, 0.0)">
      <use ffdec:characterId="1" height="56.0" transform="matrix(1.0, 0.0, 0.0, 1.0, 0.0, 0.0)" width="56.0" xlink:href="#shape0"/>
    </g>
    <g id="shape0" transform="matrix(1.0, 0.0, 0.0, 1.0, 0.0, 0.0)">
      <path d="M56.0 56.0 L0.0 56.0 0.0 0.0 56.0 0.0 56.0 56.0" fill="#010101" fill-opacity="0.0" fill-rule="evenodd" stroke="none"/>
    </g>
    <g id="sprite17" transform="matrix(1.0, 0.0, 0.0, 1.0, 0.75, 0.75)">
      <use ffdec:characterId="19" height="55.55" transform="matrix(1.0, 0.0, 0.0, 1.0, -0.75, -0.75)" width="37.65" xlink:href="#shape1"/>
    </g>
    <g id="shape1" transform="matrix(1.0, 0.0, 0.0, 1.0, 0.75, 0.75)">
      <path d="M32.7 16.4 Q33.4 17.5 33.75 18.85 L33.9 19.55 33.9 20.4 Q33.9 22.1 33.2 23.5 L33.15 23.5 32.2 24.35 Q31.0 25.4 29.5 25.75 L27.65 20.75 Q26.1 20.05 24.2 18.55 22.7 17.2 21.55 15.65 L21.75 15.35 Q23.85 13.25 26.8 13.25 29.05 13.25 30.8 14.45 L31.5 14.95 31.65 15.1 32.7 16.4 M31.8 14.95 L31.65 14.85 Q29.35 12.65 26.1 12.5 22.85 12.3 20.55 14.2 L20.55 14.3 Q19.3 12.2 18.65 9.85 L18.65 9.75 10.3 4.95 Q1.55 0.1 0.6 0.0 L0.15 3.55 Q-0.15 8.2 0.15 13.25 L1.7 16.15 Q3.55 19.15 6.5 22.25 L6.65 22.45 6.5 23.35 6.4 24.5 Q6.4 26.25 7.1 27.7 L7.3 28.1 2.25 34.3 8.65 35.4 13.35 35.8 15.65 35.85 14.25 38.45 Q21.4 42.35 32.5 43.6 33.55 39.0 33.95 35.35 L33.95 35.2 35.6 32.75 36.15 31.5 34.95 30.8 33.9 30.35 33.75 29.1 31.95 27.4 Q33.0 26.5 33.2 24.55 L33.2 23.75 33.3 23.65 Q34.05 22.2 34.1 20.4 L34.05 19.55 33.9 18.85 Q33.55 17.45 32.85 16.4 L31.8 14.95 M31.0 19.7 Q30.45 20.2 29.6 20.05 28.75 19.85 28.15 19.15 27.5 18.55 27.5 17.6 27.5 16.75 28.0 16.25 28.55 15.8 29.4 15.85 30.3 16.0 30.85 16.8 31.5 17.5 31.5 18.3 31.6 19.2 31.0 19.7 M11.85 16.95 Q13.35 16.25 15.2 16.25 17.95 16.25 20.1 18.0 L20.7 18.55 Q23.05 20.9 23.05 24.2 L22.8 26.35 Q22.3 28.2 20.7 29.75 19.3 31.2 17.6 31.75 L15.2 32.15 Q11.85 32.15 9.45 29.75 8.35 28.75 7.85 27.4 7.15 26.0 7.15 24.2 L7.3 23.0 Q7.65 20.45 9.45 18.55 10.45 17.65 11.5 17.1 11.65 17.05 11.85 16.95 M8.35 36.55 L5.75 44.7 12.45 54.05 13.25 37.0 8.65 36.6 8.35 36.55 M21.9 33.1 L21.6 33.5 Q21.3 33.95 21.4 34.75 21.9 34.15 22.85 34.15 24.65 34.0 26.3 36.55 26.1 35.35 25.45 34.4 24.2 32.4 21.9 33.1 M12.0 27.6 Q11.05 27.6 10.3 26.95 9.7 26.35 9.7 25.35 9.7 24.4 10.3 23.75 11.05 23.0 12.0 23.0 12.9 23.0 13.65 23.75 14.25 24.4 14.25 25.35 14.25 26.35 13.65 26.95 12.9 27.6 12.0 27.6 Z" fill="none" stroke="#000000" stroke-linecap="round" stroke-linejoin="round" stroke-opacity="0.2" stroke-width="1.5"/>
    </g>
    <g id="sprite18" transform="matrix(1.0, 0.0, 0.0, 1.0, 0.0, 0.0)">
      <use ffdec:characterId="21" height="54.0" transform="matrix(1.0, 0.0, 0.0, 1.0, 0.0, 0.0)" width="36.2" xlink:href="#shape2"/>
    </g>
    <g id="shape2" transform="matrix(1.0, 0.0, 0.0, 1.0, 0.0, 0.0)">
      <path d="M32.75 16.35 L31.7 15.1 31.55 14.95 30.85 14.45 Q29.1 13.25 26.85 13.25 23.9 13.25 21.85 15.3 L21.55 15.55 Q22.75 17.1 24.25 18.45 L27.7 20.7 29.6 25.75 Q31.05 25.35 32.25 24.3 L33.15 23.45 33.25 23.45 Q33.95 22.05 33.95 20.35 L33.95 19.5 33.8 18.8 Q33.45 17.45 32.75 16.35 M31.85 14.95 L32.9 16.35 Q33.6 17.4 33.95 18.8 L34.1 19.5 34.15 20.35 Q34.1 22.15 33.4 23.6 L33.25 23.7 33.25 24.55 Q33.05 26.45 31.95 27.35 L33.8 29.05 33.95 30.3 35.0 30.75 36.2 31.45 35.65 32.7 34.0 35.2 34.0 35.3 Q33.6 38.9 32.55 43.55 21.4 42.3 14.3 38.4 L15.7 35.8 13.4 35.75 8.65 35.4 2.25 34.25 7.35 28.05 7.1 27.65 Q6.5 26.2 6.5 24.45 L6.55 23.35 6.7 22.4 6.55 22.2 Q3.6 19.1 1.75 16.15 L0.2 13.25 Q-0.15 8.15 0.2 3.5 L0.65 0.0 Q1.65 0.05 10.35 4.9 L18.65 9.7 18.65 9.8 Q19.35 12.2 20.65 14.25 L20.65 14.15 Q22.9 12.25 26.15 12.45 29.35 12.6 31.7 14.8 L31.85 14.95 M31.05 19.65 Q30.5 20.15 29.65 20.0 L28.15 19.1 Q27.55 18.45 27.55 17.55 27.55 16.7 28.05 16.2 28.6 15.7 29.45 15.85 30.35 16.0 30.9 16.75 31.55 17.45 31.55 18.25 31.6 19.15 31.05 19.65 M8.4 36.5 L8.65 36.6 13.3 36.95 12.45 54.0 5.8 44.7 8.4 36.5 M11.55 17.05 L9.5 18.55 Q7.7 20.45 7.35 23.0 7.2 23.55 7.2 24.15 7.2 25.95 7.9 27.35 8.4 28.7 9.5 29.75 11.9 32.1 15.2 32.1 L17.6 31.7 Q19.35 31.15 20.8 29.75 22.35 28.2 22.8 26.3 L23.1 24.15 Q23.1 20.85 20.8 18.55 L20.15 17.95 Q18.05 16.2 15.2 16.2 13.4 16.2 11.9 16.9 L11.55 17.05 M21.95 33.05 L21.6 33.4 Q21.35 33.9 21.4 34.7 21.95 34.1 22.9 34.1 24.7 34.0 26.35 36.5 26.15 35.3 25.5 34.35 24.25 32.35 21.95 33.05 M10.35 26.95 Q9.7 26.3 9.7 25.3 9.7 24.4 10.35 23.7 11.05 23.0 12.05 23.0 12.95 23.0 13.65 23.7 14.3 24.4 14.3 25.3 14.3 26.3 13.65 26.95 12.95 27.55 12.05 27.55 11.05 27.55 10.35 26.95" fill="#000000" fill-rule="evenodd" stroke="none"/>
    </g>
  </defs>
</svg>
