<?xml version="1.0" encoding="UTF-8" standalone="no"?>
<svg xmlns:ffdec="https://www.free-decompiler.com/flash" xmlns:xlink="http://www.w3.org/1999/xlink" ffdec:objectType="frame" height="56.0px" width="56.0px" xmlns="http://www.w3.org/2000/svg">
  <g transform="matrix(1.0, 0.0, 0.0, 1.0, 0.0, 0.0)">
    <use ffdec:characterId="12" ffdec:characterName="11_fla.Symbole33_1" height="56.0" id="back" transform="matrix(1.0, 0.0, 0.0, 1.0, 0.0, 0.0)" width="56.0" xlink:href="#sprite0"/>
    <use ffdec:characterId="14" height="55.55" id="back" transform="matrix(1.0, 0.0, 0.0, 1.0, 0.4, 0.45)" width="55.4" xlink:href="#sprite11"/>
    <use ffdec:characterId="16" height="54.05" id="up" transform="matrix(1.0, 0.0, 0.0, 1.0, 1.15, 1.2)" width="53.9" xlink:href="#sprite12"/>
  </g>
  <defs>
    <g id="sprite0" transform="matrix(1.0, 0.0, 0.0, 1.0, 0.0, 0.0)">
      <use ffdec:characterId="11" ffdec:characterName="11_fla.Symbole30_2" height="56.0" id="back" transform="matrix(1.0, 0.0, 0.0, 1.0, 0.0, 0.0)" width="56.0" xlink:href="#sprite1"/>
    </g>
    <g id="sprite1" transform="matrix(1.0, 0.0, 0.0, 1.0, 0.0, 0.0)">
      <use ffdec:characterId="10" ffdec:characterName="11_fla.Symbole27_3" height="56.0" id="back" transform="matrix(1.0, 0.0, 0.0, 1.0, 0.0, 0.0)" width="56.0" xlink:href="#sprite2"/>
    </g>
    <g id="sprite2" transform="matrix(1.0, 0.0, 0.0, 1.0, 0.0, 0.0)">
      <use ffdec:characterId="9" ffdec:characterName="11_fla.Symbole24_4" height="56.0" id="back" transform="matrix(1.0, 0.0, 0.0, 1.0, 0.0, 0.0)" width="56.0" xlink:href="#sprite3"/>
    </g>
    <g id="sprite3" transform="matrix(1.0, 0.0, 0.0, 1.0, 0.0, 0.0)">
      <use ffdec:characterId="8" ffdec:characterName="11_fla.Symbole21_5" height="56.0" id="back" transform="matrix(1.0, 0.0, 0.0, 1.0, 0.0, 0.0)" width="56.0" xlink:href="#sprite4"/>
    </g>
    <g id="sprite4" transform="matrix(1.0, 0.0, 0.0, 1.0, 0.0, 0.0)">
      <use ffdec:characterId="7" ffdec:characterName="11_fla.Symbole18_6" height="56.0" id="back" transform="matrix(1.0, 0.0, 0.0, 1.0, 0.0, 0.0)" width="56.0" xlink:href="#sprite5"/>
    </g>
    <g id="sprite5" transform="matrix(1.0, 0.0, 0.0, 1.0, 0.0, 0.0)">
      <use ffdec:characterId="6" ffdec:characterName="11_fla.Symbole15_7" height="56.0" id="back" transform="matrix(1.0, 0.0, 0.0, 1.0, 0.0, 0.0)" width="56.0" xlink:href="#sprite6"/>
    </g>
    <g id="sprite6" transform="matrix(1.0, 0.0, 0.0, 1.0, 0.0, 0.0)">
      <use ffdec:characterId="5" ffdec:characterName="11_fla.Symbole12_8" height="56.0" id="back" transform="matrix(1.0, 0.0, 0.0, 1.0, 0.0, 0.0)" width="56.0" xlink:href="#sprite7"/>
    </g>
    <g id="sprite7" transform="matrix(1.0, 0.0, 0.0, 1.0, 0.0, 0.0)">
      <use ffdec:characterId="4" ffdec:characterName="11_fla.Symbole9_9" height="56.0" id="back" transform="matrix(1.0, 0.0, 0.0, 1.0, 0.0, 0.0)" width="56.0" xlink:href="#sprite8"/>
    </g>
    <g id="sprite8" transform="matrix(1.0, 0.0, 0.0, 1.0, 0.0, 0.0)">
      <use ffdec:characterId="3" ffdec:characterName="11_fla.Symbole6_10" height="56.0" id="back" transform="matrix(1.0, 0.0, 0.0, 1.0, 0.0, 0.0)" width="56.0" xlink:href="#sprite9"/>
    </g>
    <g id="sprite9" transform="matrix(1.0, 0.0, 0.0, 1.0, 0.0, 0.0)">
      <use ffdec:characterId="2" height="56.0" id="back" transform="matrix(1.0, 0.0, 0.0, 1.0, 0.0, 0.0)" width="56.0" xlink:href="#sprite10"/>
    </g>
    <g id="sprite10" transform="matrix(1.0, 0.0, 0.0, 1.0, 0.0, 0.0)">
      <use ffdec:characterId="1" height="56.0" transform="matrix(1.0, 0.0, 0.0, 1.0, 0.0, 0.0)" width="56.0" xlink:href="#shape0"/>
    </g>
    <g id="shape0" transform="matrix(1.0, 0.0, 0.0, 1.0, 0.0, 0.0)">
      <path d="M56.0 56.0 L0.0 56.0 0.0 0.0 56.0 0.0 56.0 56.0" fill="#010101" fill-opacity="0.0" fill-rule="evenodd" stroke="none"/>
    </g>
    <g id="sprite11" transform="matrix(1.0, 0.0, 0.0, 1.0, 0.75, 0.75)">
      <use ffdec:characterId="13" height="55.55" transform="matrix(1.0, 0.0, 0.0, 1.0, -0.75, -0.75)" width="55.4" xlink:href="#shape1"/>
    </g>
    <g id="shape1" transform="matrix(1.0, 0.0, 0.0, 1.0, 0.75, 0.75)">
      <path d="M48.35 16.05 Q49.9 17.1 50.45 19.1 50.95 21.3 49.9 23.1 48.6 25.1 46.35 25.5 44.1 25.95 42.55 24.65 40.6 22.75 39.5 22.35 38.45 21.9 37.3 22.35 L36.55 22.9 Q36.25 23.2 36.3 23.65 L36.7 25.15 36.95 25.7 37.6 25.5 Q41.8 22.95 44.25 29.2 45.35 32.1 47.3 32.25 49.25 32.3 50.25 29.6 50.45 28.8 50.55 28.95 50.7 28.95 50.85 29.5 51.55 31.1 50.95 33.05 50.25 35.2 48.3 36.1 46.2 37.2 44.1 36.35 41.8 35.45 41.4 33.35 40.6 30.9 39.95 29.9 39.3 29.05 38.15 28.75 37.6 28.5 37.15 28.75 36.65 28.8 36.65 29.25 L36.25 30.8 Q36.0 31.2 36.1 31.35 L36.65 31.55 Q41.65 31.65 40.35 38.1 39.65 41.3 41.25 42.45 42.8 43.5 45.05 41.8 L45.75 41.35 45.7 42.0 Q45.35 43.7 43.85 45.15 42.05 46.55 39.95 46.25 37.6 45.9 36.3 44.1 34.95 42.15 35.55 40.2 36.3 37.8 36.3 36.5 36.25 35.45 35.4 34.45 35.15 34.15 34.7 34.0 34.1 33.75 33.85 34.15 L32.65 35.05 32.2 35.5 Q32.2 35.75 32.65 36.1 36.65 38.9 32.15 43.65 29.85 45.9 30.6 47.75 31.35 49.55 34.1 49.25 L34.95 49.35 34.55 49.8 Q33.3 51.1 31.3 51.45 28.95 51.65 27.4 50.2 25.65 48.75 25.5 46.45 25.3 44.1 27.05 42.8 28.95 41.15 29.6 40.05 30.05 39.15 30.0 37.9 L29.55 37.05 Q29.15 36.6 28.75 36.75 L27.25 36.95 Q26.8 36.95 26.75 37.2 26.6 37.25 26.75 37.7 28.55 42.35 22.25 43.7 19.05 44.4 18.75 46.45 18.35 48.3 20.95 49.7 21.55 50.0 21.55 50.15 L21.0 50.35 Q19.2 50.8 17.35 49.95 15.3 48.8 14.75 46.9 14.0 44.6 15.15 42.6 16.4 40.5 18.4 40.3 L22.1 39.4 Q23.05 38.9 23.6 37.8 L23.75 36.95 Q23.6 36.4 23.15 36.2 L21.85 35.5 21.2 35.45 21.0 35.95 Q20.05 40.85 13.85 38.55 10.9 37.5 9.6 38.9 8.2 40.3 9.6 42.8 L9.9 43.5 9.35 43.4 Q7.55 42.8 6.55 41.05 5.4 39.15 6.05 37.05 6.55 34.8 8.6 33.75 L12.55 33.6 16.05 34.9 Q17.15 34.9 18.2 34.2 L18.8 33.6 Q18.95 33.05 18.75 32.7 L17.95 31.4 17.65 30.95 17.15 31.35 Q13.65 34.9 9.7 29.65 7.75 27.1 5.8 27.65 3.95 28.1 3.9 30.9 L3.65 31.65 3.2 31.2 Q2.0 29.8 2.15 27.75 2.2 25.5 3.9 24.05 5.5 22.55 7.85 22.75 10.2 22.9 11.3 24.7 12.55 26.85 13.55 27.75 14.45 28.35 15.75 28.35 L16.6 28.15 16.9 27.45 Q16.9 26.7 17.05 25.95 L16.9 25.3 Q16.85 25.15 16.25 25.3 11.45 26.45 11.0 19.9 10.65 16.7 8.85 16.05 7.0 15.45 5.4 17.7 L4.8 18.4 4.6 17.7 Q4.4 15.85 5.65 14.3 6.9 12.4 9.05 12.1 11.2 11.7 13.15 13.15 14.95 14.55 14.95 16.65 14.85 19.25 15.3 20.4 15.6 21.4 16.7 22.1 L17.55 22.35 Q17.95 22.35 18.35 21.9 18.6 21.4 19.2 20.75 L19.4 20.15 18.8 19.75 Q14.25 18.15 17.3 12.4 18.75 9.5 17.55 8.0 16.25 6.45 13.8 7.55 L12.95 7.75 13.15 7.15 Q13.85 5.5 15.85 4.8 17.9 3.9 19.85 4.8 22.0 5.6 22.7 7.85 23.5 10.05 22.45 11.7 20.95 13.85 20.7 15.15 20.35 16.05 20.95 17.25 L21.55 18.0 Q22.0 18.25 22.3 18.0 22.95 17.7 23.75 17.5 L24.2 17.15 24.0 16.65 Q20.95 12.6 26.6 9.5 29.4 7.85 29.15 5.9 28.95 3.95 26.35 3.45 L25.5 3.25 25.95 2.8 Q27.6 1.8 29.6 2.2 31.75 2.65 33.0 4.4 34.25 6.3 33.75 8.65 33.2 10.9 31.3 11.7 28.9 12.75 28.05 13.6 27.25 14.3 27.05 15.6 L27.25 16.5 Q27.5 16.95 27.9 16.95 L29.3 17.25 30.0 17.25 30.05 16.65 Q29.55 11.7 36.1 12.1 39.2 12.3 40.2 10.45 41.05 8.75 39.05 6.9 L38.6 6.25 39.15 6.15 Q40.95 6.15 42.5 7.6 44.1 9.05 44.25 11.25 44.25 13.6 42.55 15.2 40.8 16.85 38.85 16.5 L35.0 16.3 Q33.95 16.5 33.2 17.5 32.85 17.8 32.75 18.25 32.75 18.8 33.05 19.1 L34.1 20.1 34.7 20.4 35.15 19.95 Q37.3 15.6 42.7 19.45 45.15 21.3 47.0 20.3 48.6 19.3 47.95 16.65 47.75 15.85 47.9 15.8 L48.35 16.05 M51.1 16.7 Q53.15 21.6 53.15 27.0 53.15 32.3 51.1 37.2 49.05 41.9 45.35 45.6 41.7 49.1 37.1 51.25 32.2 53.25 26.95 53.25 21.55 53.25 16.7 51.25 12.1 49.1 8.4 45.6 4.75 41.9 2.8 37.2 0.7 32.3 0.7 27.0 0.7 21.6 2.8 16.7 4.75 12.1 8.4 8.45 12.1 4.8 16.7 2.8 21.55 0.7 26.95 0.7 32.2 0.7 37.1 2.8 41.7 4.8 45.35 8.45 49.05 12.1 51.1 16.7 M46.0 7.85 Q42.25 4.1 37.4 2.15 32.45 0.0 26.95 0.0 21.4 0.0 16.45 2.15 11.65 4.1 7.85 7.85 4.1 11.7 2.15 16.5 0.0 21.45 0.0 27.0 0.0 32.5 2.15 37.5 4.1 42.35 7.85 46.1 11.65 49.8 16.45 51.85 21.4 54.05 26.95 54.05 32.45 54.05 37.4 51.85 42.25 49.8 46.0 46.1 49.65 42.35 51.75 37.5 53.9 32.5 53.9 27.0 53.9 21.45 51.75 16.5 49.65 11.7 46.0 7.85 Z" fill="none" stroke="#000000" stroke-linecap="round" stroke-linejoin="round" stroke-opacity="0.2" stroke-width="1.5"/>
    </g>
    <g id="sprite12" transform="matrix(1.0, 0.0, 0.0, 1.0, 0.0, 0.0)">
      <use ffdec:characterId="15" height="54.05" transform="matrix(1.0, 0.0, 0.0, 1.0, 0.0, 0.0)" width="53.9" xlink:href="#shape2"/>
    </g>
    <g id="shape2" transform="matrix(1.0, 0.0, 0.0, 1.0, 0.0, 0.0)">
      <path d="M48.35 16.05 Q49.9 17.1 50.45 19.1 50.95 21.3 49.9 23.1 48.6 25.1 46.35 25.5 44.1 25.95 42.55 24.65 40.6 22.75 39.5 22.35 38.45 21.9 37.3 22.35 L36.55 22.9 Q36.25 23.2 36.3 23.65 L36.7 25.15 36.95 25.7 37.6 25.5 Q41.8 22.95 44.25 29.2 45.35 32.1 47.3 32.25 49.25 32.3 50.25 29.6 50.45 28.8 50.55 28.95 50.7 28.95 50.85 29.5 51.55 31.1 50.95 33.05 50.25 35.2 48.3 36.1 46.2 37.2 44.1 36.35 41.8 35.45 41.4 33.35 40.6 30.9 39.95 29.9 39.3 29.05 38.15 28.75 37.6 28.5 37.15 28.75 36.65 28.8 36.65 29.25 L36.25 30.8 Q36.0 31.2 36.1 31.35 L36.65 31.55 Q41.65 31.65 40.35 38.1 39.65 41.3 41.25 42.45 42.8 43.5 45.05 41.8 L45.75 41.35 45.7 42.0 Q45.35 43.7 43.85 45.15 42.05 46.55 39.95 46.25 37.6 45.9 36.3 44.1 34.95 42.15 35.55 40.2 36.3 37.8 36.3 36.5 36.25 35.45 35.4 34.45 35.15 34.15 34.7 34.0 34.1 33.75 33.85 34.15 L32.65 35.05 32.2 35.5 Q32.2 35.75 32.65 36.1 36.65 38.9 32.15 43.65 29.85 45.9 30.6 47.75 31.35 49.55 34.1 49.25 L34.95 49.35 34.55 49.8 Q33.3 51.1 31.3 51.45 28.95 51.65 27.4 50.2 25.65 48.75 25.5 46.45 25.3 44.1 27.05 42.8 28.95 41.15 29.6 40.05 30.05 39.15 30.0 37.9 L29.55 37.05 Q29.15 36.6 28.75 36.75 L27.25 36.95 Q26.8 36.95 26.75 37.2 26.6 37.25 26.75 37.7 28.55 42.35 22.25 43.7 19.05 44.4 18.75 46.45 18.35 48.3 20.95 49.7 21.55 50.0 21.55 50.15 L21.0 50.35 Q19.2 50.8 17.35 49.95 15.3 48.8 14.75 46.9 14.0 44.6 15.15 42.6 16.4 40.5 18.4 40.3 L22.1 39.4 Q23.05 38.9 23.6 37.8 L23.75 36.95 Q23.6 36.4 23.15 36.2 L21.85 35.5 21.2 35.45 21.0 35.95 Q20.05 40.85 13.85 38.55 10.9 37.5 9.6 38.9 8.2 40.3 9.6 42.8 L9.9 43.5 9.35 43.4 Q7.55 42.8 6.55 41.05 5.4 39.15 6.05 37.05 6.55 34.8 8.6 33.75 L12.55 33.6 16.05 34.9 Q17.15 34.9 18.2 34.2 L18.8 33.6 Q18.95 33.05 18.75 32.7 L17.95 31.4 17.65 30.95 17.15 31.35 Q13.65 34.9 9.7 29.65 7.75 27.1 5.8 27.65 3.95 28.1 3.9 30.9 L3.65 31.65 3.2 31.2 Q2.0 29.8 2.15 27.75 2.2 25.5 3.9 24.05 5.5 22.55 7.85 22.75 10.2 22.9 11.3 24.7 12.55 26.85 13.55 27.75 14.45 28.35 15.75 28.35 L16.6 28.15 16.9 27.45 Q16.9 26.7 17.05 25.95 L16.9 25.3 Q16.85 25.15 16.25 25.3 11.45 26.45 11.0 19.9 10.65 16.7 8.85 16.05 7.0 15.45 5.4 17.7 L4.8 18.4 4.6 17.7 Q4.4 15.85 5.65 14.3 6.9 12.4 9.05 12.1 11.2 11.7 13.15 13.15 14.95 14.55 14.95 16.65 14.85 19.25 15.3 20.4 15.6 21.4 16.7 22.1 L17.55 22.35 Q17.95 22.35 18.35 21.9 18.6 21.4 19.2 20.75 L19.4 20.15 18.8 19.75 Q14.25 18.15 17.3 12.4 18.75 9.5 17.55 8.0 16.25 6.45 13.8 7.55 L12.95 7.75 13.15 7.15 Q13.85 5.5 15.85 4.8 17.9 3.9 19.85 4.8 22.0 5.6 22.7 7.85 23.5 10.05 22.45 11.7 20.95 13.85 20.7 15.15 20.35 16.05 20.95 17.25 L21.55 18.0 Q22.0 18.25 22.3 18.0 22.95 17.7 23.75 17.5 L24.2 17.15 24.0 16.65 Q20.95 12.6 26.6 9.5 29.4 7.85 29.15 5.9 28.95 3.95 26.35 3.45 L25.5 3.25 25.95 2.8 Q27.6 1.8 29.6 2.2 31.75 2.65 33.0 4.4 34.25 6.3 33.75 8.65 33.2 10.9 31.3 11.7 28.9 12.75 28.05 13.6 27.25 14.3 27.05 15.6 L27.25 16.5 Q27.5 16.95 27.9 16.95 L29.3 17.25 30.0 17.25 30.05 16.65 Q29.55 11.7 36.1 12.1 39.2 12.3 40.2 10.45 41.05 8.75 39.05 6.9 L38.6 6.25 39.15 6.15 Q40.95 6.15 42.5 7.6 44.1 9.05 44.25 11.25 44.25 13.6 42.55 15.2 40.8 16.85 38.85 16.5 L35.0 16.3 Q33.95 16.5 33.2 17.5 32.85 17.8 32.75 18.25 32.75 18.8 33.05 19.1 L34.1 20.1 34.7 20.4 35.15 19.95 Q37.3 15.6 42.7 19.45 45.15 21.3 47.0 20.3 48.6 19.3 47.95 16.65 47.75 15.85 47.9 15.8 L48.35 16.05 M51.1 16.7 Q49.05 12.1 45.35 8.45 41.7 4.8 37.1 2.8 32.2 0.7 26.95 0.7 21.55 0.7 16.7 2.8 12.1 4.8 8.4 8.45 4.75 12.1 2.8 16.7 0.7 21.6 0.7 27.0 0.7 32.3 2.8 37.2 4.75 41.9 8.4 45.6 12.1 49.1 16.7 51.25 21.55 53.25 26.95 53.25 32.2 53.25 37.1 51.25 41.7 49.1 45.35 45.6 49.05 41.9 51.1 37.2 53.15 32.3 53.15 27.0 53.15 21.6 51.1 16.7 M46.0 7.85 Q49.65 11.7 51.75 16.5 53.9 21.45 53.9 27.0 53.9 32.5 51.75 37.5 49.65 42.35 46.0 46.1 42.25 49.8 37.4 51.85 32.45 54.05 26.95 54.05 21.4 54.05 16.45 51.85 11.65 49.8 7.85 46.1 4.1 42.35 2.15 37.5 0.0 32.5 0.0 27.0 0.0 21.45 2.15 16.5 4.1 11.7 7.85 7.85 11.65 4.1 16.45 2.15 21.4 0.0 26.95 0.0 32.45 0.0 37.4 2.15 42.25 4.1 46.0 7.85" fill="#000000" fill-rule="evenodd" stroke="none"/>
    </g>
  </defs>
</svg>
