<?xml version="1.0" encoding="UTF-8" standalone="no"?>
<svg xmlns:ffdec="https://www.free-decompiler.com/flash" xmlns:xlink="http://www.w3.org/1999/xlink" ffdec:objectType="frame" height="56.0px" width="56.0px" xmlns="http://www.w3.org/2000/svg">
  <g transform="matrix(1.0, 0.0, 0.0, 1.0, 0.0, 0.0)">
    <use ffdec:characterId="19" ffdec:characterName="110_fla.Symbole54_1" height="56.0" id="back" transform="matrix(1.0, 0.0, 0.0, 1.0, 0.0, 0.0)" width="56.0" xlink:href="#sprite0"/>
    <use ffdec:characterId="21" height="55.55" id="back" transform="matrix(1.0, 0.0, 0.0, 1.0, 16.45, 0.45)" width="23.15" xlink:href="#sprite18"/>
    <use ffdec:characterId="23" height="54.05" id="up" transform="matrix(1.0, 0.0, 0.0, 1.0, 17.2, 1.2)" width="21.65" xlink:href="#sprite19"/>
  </g>
  <defs>
    <g id="sprite0" transform="matrix(1.0, 0.0, 0.0, 1.0, 0.0, 0.0)">
      <use ffdec:characterId="18" ffdec:characterName="110_fla.Symbole51_2" height="56.0" id="back" transform="matrix(1.0, 0.0, 0.0, 1.0, 0.0, 0.0)" width="56.0" xlink:href="#sprite1"/>
    </g>
    <g id="sprite1" transform="matrix(1.0, 0.0, 0.0, 1.0, 0.0, 0.0)">
      <use ffdec:characterId="17" ffdec:characterName="110_fla.Symbole48_3" height="56.0" id="back" transform="matrix(1.0, 0.0, 0.0, 1.0, 0.0, 0.0)" width="56.0" xlink:href="#sprite2"/>
    </g>
    <g id="sprite2" transform="matrix(1.0, 0.0, 0.0, 1.0, 0.0, 0.0)">
      <use ffdec:characterId="16" ffdec:characterName="110_fla.Symbole45_4" height="56.0" id="back" transform="matrix(1.0, 0.0, 0.0, 1.0, 0.0, 0.0)" width="56.0" xlink:href="#sprite3"/>
    </g>
    <g id="sprite3" transform="matrix(1.0, 0.0, 0.0, 1.0, 0.0, 0.0)">
      <use ffdec:characterId="15" ffdec:characterName="110_fla.Symbole42_5" height="56.0" id="back" transform="matrix(1.0, 0.0, 0.0, 1.0, 0.0, 0.0)" width="56.0" xlink:href="#sprite4"/>
    </g>
    <g id="sprite4" transform="matrix(1.0, 0.0, 0.0, 1.0, 0.0, 0.0)">
      <use ffdec:characterId="14" ffdec:characterName="110_fla.Symbole39_6" height="56.0" id="back" transform="matrix(1.0, 0.0, 0.0, 1.0, 0.0, 0.0)" width="56.0" xlink:href="#sprite5"/>
    </g>
    <g id="sprite5" transform="matrix(1.0, 0.0, 0.0, 1.0, 0.0, 0.0)">
      <use ffdec:characterId="13" ffdec:characterName="110_fla.Symbole36_7" height="56.0" id="back" transform="matrix(1.0, 0.0, 0.0, 1.0, 0.0, 0.0)" width="56.0" xlink:href="#sprite6"/>
    </g>
    <g id="sprite6" transform="matrix(1.0, 0.0, 0.0, 1.0, 0.0, 0.0)">
      <use ffdec:characterId="12" ffdec:characterName="110_fla.Symbole33_8" height="56.0" id="back" transform="matrix(1.0, 0.0, 0.0, 1.0, 0.0, 0.0)" width="56.0" xlink:href="#sprite7"/>
    </g>
    <g id="sprite7" transform="matrix(1.0, 0.0, 0.0, 1.0, 0.0, 0.0)">
      <use ffdec:characterId="11" ffdec:characterName="110_fla.Symbole30_9" height="56.0" id="back" transform="matrix(1.0, 0.0, 0.0, 1.0, 0.0, 0.0)" width="56.0" xlink:href="#sprite8"/>
    </g>
    <g id="sprite8" transform="matrix(1.0, 0.0, 0.0, 1.0, 0.0, 0.0)">
      <use ffdec:characterId="10" ffdec:characterName="110_fla.Symbole27_10" height="56.0" id="back" transform="matrix(1.0, 0.0, 0.0, 1.0, 0.0, 0.0)" width="56.0" xlink:href="#sprite9"/>
    </g>
    <g id="sprite9" transform="matrix(1.0, 0.0, 0.0, 1.0, 0.0, 0.0)">
      <use ffdec:characterId="9" ffdec:characterName="110_fla.Symbole24_11" height="56.0" id="back" transform="matrix(1.0, 0.0, 0.0, 1.0, 0.0, 0.0)" width="56.0" xlink:href="#sprite10"/>
    </g>
    <g id="sprite10" transform="matrix(1.0, 0.0, 0.0, 1.0, 0.0, 0.0)">
      <use ffdec:characterId="8" ffdec:characterName="110_fla.Symbole21_12" height="56.0" id="back" transform="matrix(1.0, 0.0, 0.0, 1.0, 0.0, 0.0)" width="56.0" xlink:href="#sprite11"/>
    </g>
    <g id="sprite11" transform="matrix(1.0, 0.0, 0.0, 1.0, 0.0, 0.0)">
      <use ffdec:characterId="7" ffdec:characterName="110_fla.Symbole18_13" height="56.0" id="back" transform="matrix(1.0, 0.0, 0.0, 1.0, 0.0, 0.0)" width="56.0" xlink:href="#sprite12"/>
    </g>
    <g id="sprite12" transform="matrix(1.0, 0.0, 0.0, 1.0, 0.0, 0.0)">
      <use ffdec:characterId="6" ffdec:characterName="110_fla.Symbole15_14" height="56.0" id="back" transform="matrix(1.0, 0.0, 0.0, 1.0, 0.0, 0.0)" width="56.0" xlink:href="#sprite13"/>
    </g>
    <g id="sprite13" transform="matrix(1.0, 0.0, 0.0, 1.0, 0.0, 0.0)">
      <use ffdec:characterId="5" ffdec:characterName="110_fla.Symbole12_15" height="56.0" id="back" transform="matrix(1.0, 0.0, 0.0, 1.0, 0.0, 0.0)" width="56.0" xlink:href="#sprite14"/>
    </g>
    <g id="sprite14" transform="matrix(1.0, 0.0, 0.0, 1.0, 0.0, 0.0)">
      <use ffdec:characterId="4" ffdec:characterName="110_fla.Symbole9_16" height="56.0" id="back" transform="matrix(1.0, 0.0, 0.0, 1.0, 0.0, 0.0)" width="56.0" xlink:href="#sprite15"/>
    </g>
    <g id="sprite15" transform="matrix(1.0, 0.0, 0.0, 1.0, 0.0, 0.0)">
      <use ffdec:characterId="3" ffdec:characterName="110_fla.Symbole6_17" height="56.0" id="back" transform="matrix(1.0, 0.0, 0.0, 1.0, 0.0, 0.0)" width="56.0" xlink:href="#sprite16"/>
    </g>
    <g id="sprite16" transform="matrix(1.0, 0.0, 0.0, 1.0, 0.0, 0.0)">
      <use ffdec:characterId="2" height="56.0" id="back" transform="matrix(1.0, 0.0, 0.0, 1.0, 0.0, 0.0)" width="56.0" xlink:href="#sprite17"/>
    </g>
    <g id="sprite17" transform="matrix(1.0, 0.0, 0.0, 1.0, 0.0, 0.0)">
      <use ffdec:characterId="1" height="56.0" transform="matrix(1.0, 0.0, 0.0, 1.0, 0.0, 0.0)" width="56.0" xlink:href="#shape0"/>
    </g>
    <g id="shape0" transform="matrix(1.0, 0.0, 0.0, 1.0, 0.0, 0.0)">
      <path d="M56.0 56.0 L0.0 56.0 0.0 0.0 56.0 0.0 56.0 56.0" fill="#010101" fill-opacity="0.0" fill-rule="evenodd" stroke="none"/>
    </g>
    <g id="sprite18" transform="matrix(1.0, 0.0, 0.0, 1.0, 0.75, 0.75)">
      <use ffdec:characterId="20" height="55.55" transform="matrix(1.0, 0.0, 0.0, 1.0, -0.75, -0.75)" width="23.15" xlink:href="#shape1"/>
    </g>
    <g id="shape1" transform="matrix(1.0, 0.0, 0.0, 1.0, 0.75, 0.75)">
      <path d="M18.5 10.95 Q22.05 22.95 21.6 32.55 L21.65 34.0 Q21.65 39.85 18.5 43.2 15.3 46.3 10.75 46.15 6.3 46.05 3.85 43.8 1.3 41.65 0.55 38.65 0.05 36.6 0.0 34.3 L0.0 34.0 0.1 31.5 Q-0.15 22.35 3.3 10.95 5.45 3.8 8.55 0.0 L8.55 20.2 10.75 20.0 13.2 20.25 13.2 0.0 Q16.35 3.8 18.5 10.95 M2.55 31.05 L2.85 31.45 5.65 32.45 6.15 32.45 6.5 32.15 6.5 31.6 6.1 31.3 3.35 30.25 Q3.05 30.1 2.85 30.25 2.55 30.3 2.55 30.6 2.4 30.9 2.55 31.05 M2.15 33.05 Q1.95 33.2 1.95 33.5 L2.0 33.95 Q2.15 34.15 2.45 34.15 L5.35 34.75 5.9 34.6 6.15 34.15 6.0 33.65 5.6 33.4 2.65 32.9 2.15 33.05 M13.6 28.7 Q13.6 29.4 13.2 29.8 L12.55 30.45 Q12.2 30.45 11.9 29.8 L11.65 29.5 11.55 28.75 11.55 28.6 Q11.55 27.85 11.9 27.3 12.2 26.85 12.55 26.85 13.0 26.85 13.2 27.3 13.6 27.85 13.6 28.7 M15.3 31.6 Q15.15 31.85 15.3 32.15 L15.55 32.45 16.05 32.45 18.8 31.45 19.2 31.05 19.2 30.6 Q19.15 30.3 18.9 30.25 18.65 30.1 18.35 30.25 L15.6 31.3 Q15.35 31.3 15.3 31.6 M16.35 34.75 L19.25 34.15 Q19.55 34.15 19.65 33.95 L19.8 33.5 19.55 33.05 19.05 32.9 16.1 33.4 15.65 33.65 Q15.45 33.9 15.6 34.15 L15.8 34.6 16.35 34.75 M9.15 26.95 Q8.85 26.95 8.45 27.45 8.2 27.95 8.2 28.75 L8.25 29.6 8.45 29.95 Q8.85 30.55 9.15 30.55 9.65 30.55 9.9 29.95 L10.15 28.75 10.15 28.35 10.1 28.25 9.9 27.45 Q9.65 26.95 9.15 26.95 M11.05 47.15 L11.05 54.05 11.55 54.0 11.9 54.0 Q12.95 53.7 13.8 51.85 L14.4 49.6 14.85 47.4 14.85 46.75 15.0 46.35 14.2 46.65 11.65 47.15 11.5 47.15 11.05 47.15 M6.5 46.8 L7.0 49.7 7.7 51.85 Q8.6 53.9 10.0 54.05 L10.35 54.05 10.35 47.1 10.1 47.1 6.5 46.35 6.5 46.8 Z" fill="none" stroke="#000000" stroke-linecap="round" stroke-linejoin="round" stroke-opacity="0.2" stroke-width="1.5"/>
    </g>
    <g id="sprite19" transform="matrix(1.0, 0.0, 0.0, 1.0, 0.0, 0.0)">
      <use ffdec:characterId="22" height="54.05" transform="matrix(1.0, 0.0, 0.0, 1.0, 0.0, 0.0)" width="21.65" xlink:href="#shape2"/>
    </g>
    <g id="shape2" transform="matrix(1.0, 0.0, 0.0, 1.0, 0.0, 0.0)">
      <path d="M18.5 10.95 Q22.05 22.95 21.6 32.55 L21.65 34.0 Q21.65 39.85 18.5 43.2 15.3 46.3 10.75 46.15 6.3 46.05 3.85 43.8 1.3 41.65 0.55 38.65 0.05 36.6 0.0 34.3 L0.0 34.0 0.1 31.5 Q-0.15 22.35 3.3 10.95 5.45 3.8 8.55 0.0 L8.55 20.2 10.75 20.0 13.2 20.25 13.2 0.0 Q16.35 3.8 18.5 10.95 M2.55 30.6 Q2.4 30.9 2.55 31.05 L2.85 31.45 5.65 32.45 6.15 32.45 6.5 32.15 6.5 31.6 6.1 31.3 3.35 30.25 Q3.05 30.1 2.85 30.25 2.55 30.3 2.55 30.6 M2.15 33.05 Q1.95 33.2 1.95 33.5 L2.0 33.95 Q2.15 34.15 2.45 34.15 L5.35 34.75 5.9 34.6 6.15 34.15 6.0 33.65 5.6 33.4 2.65 32.9 2.15 33.05 M13.6 28.7 Q13.6 27.85 13.2 27.3 13.0 26.85 12.55 26.85 12.2 26.85 11.9 27.3 11.55 27.85 11.55 28.6 L11.55 28.75 11.65 29.5 11.9 29.8 Q12.2 30.45 12.55 30.45 L13.2 29.8 Q13.6 29.4 13.6 28.7 M16.35 34.75 L19.25 34.15 Q19.55 34.15 19.65 33.95 L19.8 33.5 19.55 33.05 19.05 32.9 16.1 33.4 15.65 33.65 Q15.45 33.9 15.6 34.15 L15.8 34.6 16.35 34.75 M15.3 31.6 Q15.15 31.85 15.3 32.15 L15.55 32.45 16.05 32.45 18.8 31.45 19.2 31.05 19.2 30.6 Q19.15 30.3 18.9 30.25 18.65 30.1 18.35 30.25 L15.6 31.3 Q15.35 31.3 15.3 31.6 M9.15 26.95 Q8.85 26.95 8.45 27.45 8.2 27.95 8.2 28.75 L8.25 29.6 8.45 29.95 Q8.85 30.55 9.15 30.55 9.65 30.55 9.9 29.95 L10.15 28.75 10.15 28.35 10.1 28.25 9.9 27.45 Q9.65 26.95 9.15 26.95 M11.05 47.15 L11.5 47.15 11.65 47.15 14.2 46.65 15.0 46.35 14.85 46.75 14.85 47.4 14.4 49.6 13.8 51.85 Q12.95 53.7 11.9 54.0 L11.55 54.0 11.05 54.05 11.05 47.15 M6.5 46.8 L6.5 46.35 10.1 47.1 10.35 47.1 10.35 54.05 10.0 54.05 Q8.6 53.9 7.7 51.85 L7.0 49.7 6.5 46.8" fill="#000000" fill-rule="evenodd" stroke="none"/>
    </g>
  </defs>
</svg>
