<?xml version="1.0" encoding="UTF-8" standalone="no"?>
<svg xmlns:ffdec="https://www.free-decompiler.com/flash" xmlns:xlink="http://www.w3.org/1999/xlink" ffdec:objectType="frame" height="56.0px" width="56.0px" xmlns="http://www.w3.org/2000/svg">
  <g transform="matrix(1.0, 0.0, 0.0, 1.0, 0.0, 0.0)">
    <use ffdec:characterId="21" ffdec:characterName="112_fla.Symbole60_1" height="56.0" id="back" transform="matrix(1.0, 0.0, 0.0, 1.0, 0.0, 0.0)" width="56.0" xlink:href="#sprite0"/>
    <use ffdec:characterId="23" height="50.05" id="back" transform="matrix(1.0, 0.0, 0.0, 1.0, 0.4, 3.2)" width="55.4" xlink:href="#sprite20"/>
    <use ffdec:characterId="25" height="48.55" id="up" transform="matrix(1.0, 0.0, 0.0, 1.0, 1.15, 3.95)" width="53.9" xlink:href="#sprite21"/>
  </g>
  <defs>
    <g id="sprite0" transform="matrix(1.0, 0.0, 0.0, 1.0, 0.0, 0.0)">
      <use ffdec:characterId="20" ffdec:characterName="112_fla.Symbole57_2" height="56.0" id="back" transform="matrix(1.0, 0.0, 0.0, 1.0, 0.0, 0.0)" width="56.0" xlink:href="#sprite1"/>
    </g>
    <g id="sprite1" transform="matrix(1.0, 0.0, 0.0, 1.0, 0.0, 0.0)">
      <use ffdec:characterId="19" ffdec:characterName="112_fla.Symbole54_3" height="56.0" id="back" transform="matrix(1.0, 0.0, 0.0, 1.0, 0.0, 0.0)" width="56.0" xlink:href="#sprite2"/>
    </g>
    <g id="sprite2" transform="matrix(1.0, 0.0, 0.0, 1.0, 0.0, 0.0)">
      <use ffdec:characterId="18" ffdec:characterName="112_fla.Symbole51_4" height="56.0" id="back" transform="matrix(1.0, 0.0, 0.0, 1.0, 0.0, 0.0)" width="56.0" xlink:href="#sprite3"/>
    </g>
    <g id="sprite3" transform="matrix(1.0, 0.0, 0.0, 1.0, 0.0, 0.0)">
      <use ffdec:characterId="17" ffdec:characterName="112_fla.Symbole48_5" height="56.0" id="back" transform="matrix(1.0, 0.0, 0.0, 1.0, 0.0, 0.0)" width="56.0" xlink:href="#sprite4"/>
    </g>
    <g id="sprite4" transform="matrix(1.0, 0.0, 0.0, 1.0, 0.0, 0.0)">
      <use ffdec:characterId="16" ffdec:characterName="112_fla.Symbole45_6" height="56.0" id="back" transform="matrix(1.0, 0.0, 0.0, 1.0, 0.0, 0.0)" width="56.0" xlink:href="#sprite5"/>
    </g>
    <g id="sprite5" transform="matrix(1.0, 0.0, 0.0, 1.0, 0.0, 0.0)">
      <use ffdec:characterId="15" ffdec:characterName="112_fla.Symbole42_7" height="56.0" id="back" transform="matrix(1.0, 0.0, 0.0, 1.0, 0.0, 0.0)" width="56.0" xlink:href="#sprite6"/>
    </g>
    <g id="sprite6" transform="matrix(1.0, 0.0, 0.0, 1.0, 0.0, 0.0)">
      <use ffdec:characterId="14" ffdec:characterName="112_fla.Symbole39_8" height="56.0" id="back" transform="matrix(1.0, 0.0, 0.0, 1.0, 0.0, 0.0)" width="56.0" xlink:href="#sprite7"/>
    </g>
    <g id="sprite7" transform="matrix(1.0, 0.0, 0.0, 1.0, 0.0, 0.0)">
      <use ffdec:characterId="13" ffdec:characterName="112_fla.Symbole36_9" height="56.0" id="back" transform="matrix(1.0, 0.0, 0.0, 1.0, 0.0, 0.0)" width="56.0" xlink:href="#sprite8"/>
    </g>
    <g id="sprite8" transform="matrix(1.0, 0.0, 0.0, 1.0, 0.0, 0.0)">
      <use ffdec:characterId="12" ffdec:characterName="112_fla.Symbole33_10" height="56.0" id="back" transform="matrix(1.0, 0.0, 0.0, 1.0, 0.0, 0.0)" width="56.0" xlink:href="#sprite9"/>
    </g>
    <g id="sprite9" transform="matrix(1.0, 0.0, 0.0, 1.0, 0.0, 0.0)">
      <use ffdec:characterId="11" ffdec:characterName="112_fla.Symbole30_11" height="56.0" id="back" transform="matrix(1.0, 0.0, 0.0, 1.0, 0.0, 0.0)" width="56.0" xlink:href="#sprite10"/>
    </g>
    <g id="sprite10" transform="matrix(1.0, 0.0, 0.0, 1.0, 0.0, 0.0)">
      <use ffdec:characterId="10" ffdec:characterName="112_fla.Symbole27_12" height="56.0" id="back" transform="matrix(1.0, 0.0, 0.0, 1.0, 0.0, 0.0)" width="56.0" xlink:href="#sprite11"/>
    </g>
    <g id="sprite11" transform="matrix(1.0, 0.0, 0.0, 1.0, 0.0, 0.0)">
      <use ffdec:characterId="9" ffdec:characterName="112_fla.Symbole24_13" height="56.0" id="back" transform="matrix(1.0, 0.0, 0.0, 1.0, 0.0, 0.0)" width="56.0" xlink:href="#sprite12"/>
    </g>
    <g id="sprite12" transform="matrix(1.0, 0.0, 0.0, 1.0, 0.0, 0.0)">
      <use ffdec:characterId="8" ffdec:characterName="112_fla.Symbole21_14" height="56.0" id="back" transform="matrix(1.0, 0.0, 0.0, 1.0, 0.0, 0.0)" width="56.0" xlink:href="#sprite13"/>
    </g>
    <g id="sprite13" transform="matrix(1.0, 0.0, 0.0, 1.0, 0.0, 0.0)">
      <use ffdec:characterId="7" ffdec:characterName="112_fla.Symbole18_15" height="56.0" id="back" transform="matrix(1.0, 0.0, 0.0, 1.0, 0.0, 0.0)" width="56.0" xlink:href="#sprite14"/>
    </g>
    <g id="sprite14" transform="matrix(1.0, 0.0, 0.0, 1.0, 0.0, 0.0)">
      <use ffdec:characterId="6" ffdec:characterName="112_fla.Symbole15_16" height="56.0" id="back" transform="matrix(1.0, 0.0, 0.0, 1.0, 0.0, 0.0)" width="56.0" xlink:href="#sprite15"/>
    </g>
    <g id="sprite15" transform="matrix(1.0, 0.0, 0.0, 1.0, 0.0, 0.0)">
      <use ffdec:characterId="5" ffdec:characterName="112_fla.Symbole12_17" height="56.0" id="back" transform="matrix(1.0, 0.0, 0.0, 1.0, 0.0, 0.0)" width="56.0" xlink:href="#sprite16"/>
    </g>
    <g id="sprite16" transform="matrix(1.0, 0.0, 0.0, 1.0, 0.0, 0.0)">
      <use ffdec:characterId="4" ffdec:characterName="112_fla.Symbole9_18" height="56.0" id="back" transform="matrix(1.0, 0.0, 0.0, 1.0, 0.0, 0.0)" width="56.0" xlink:href="#sprite17"/>
    </g>
    <g id="sprite17" transform="matrix(1.0, 0.0, 0.0, 1.0, 0.0, 0.0)">
      <use ffdec:characterId="3" ffdec:characterName="112_fla.Symbole6_19" height="56.0" id="back" transform="matrix(1.0, 0.0, 0.0, 1.0, 0.0, 0.0)" width="56.0" xlink:href="#sprite18"/>
    </g>
    <g id="sprite18" transform="matrix(1.0, 0.0, 0.0, 1.0, 0.0, 0.0)">
      <use ffdec:characterId="2" height="56.0" id="back" transform="matrix(1.0, 0.0, 0.0, 1.0, 0.0, 0.0)" width="56.0" xlink:href="#sprite19"/>
    </g>
    <g id="sprite19" transform="matrix(1.0, 0.0, 0.0, 1.0, 0.0, 0.0)">
      <use ffdec:characterId="1" height="56.0" transform="matrix(1.0, 0.0, 0.0, 1.0, 0.0, 0.0)" width="56.0" xlink:href="#shape0"/>
    </g>
    <g id="shape0" transform="matrix(1.0, 0.0, 0.0, 1.0, 0.0, 0.0)">
      <path d="M56.0 56.0 L0.0 56.0 0.0 0.0 56.0 0.0 56.0 56.0" fill="#010101" fill-opacity="0.0" fill-rule="evenodd" stroke="none"/>
    </g>
    <g id="sprite20" transform="matrix(1.0, 0.0, 0.0, 1.0, 0.75, 0.75)">
      <use ffdec:characterId="22" height="50.05" transform="matrix(1.0, 0.0, 0.0, 1.0, -0.75, -0.75)" width="55.4" xlink:href="#shape1"/>
    </g>
    <g id="shape1" transform="matrix(1.0, 0.0, 0.0, 1.0, 0.75, 0.75)">
      <path d="M43.95 8.35 Q43.55 10.35 42.45 11.75 L45.7 12.0 Q48.85 12.4 49.9 13.1 L49.0 15.3 Q47.75 17.85 46.35 19.65 L48.0 20.25 51.15 22.1 49.5 23.0 Q47.6 23.95 45.7 23.95 L47.9 25.8 Q50.15 27.85 50.75 28.95 L48.5 30.25 Q45.95 31.65 43.7 32.35 L44.6 33.7 46.1 36.95 44.25 36.8 Q42.3 36.55 40.75 35.9 L41.15 38.55 Q41.6 41.5 41.2 42.7 L38.65 42.25 Q35.7 41.95 33.35 41.1 L33.3 42.7 32.2 46.05 30.85 44.85 Q29.7 43.7 29.05 42.45 L28.65 41.65 27.6 43.15 Q25.75 45.5 24.75 46.15 L23.0 44.25 Q21.15 42.05 20.05 40.2 L18.7 41.1 15.65 42.9 15.45 41.25 Q15.45 39.2 16.25 37.8 L12.8 38.8 8.45 39.4 8.35 36.9 Q8.55 34.15 9.1 32.1 L7.35 32.0 3.7 31.5 4.8 30.1 Q6.2 28.55 7.95 27.7 L5.75 26.8 Q3.05 25.5 2.15 24.5 L3.95 22.65 Q6.05 20.75 7.95 19.6 L6.75 18.45 Q5.35 17.1 4.45 15.8 L6.2 15.35 10.1 15.6 8.85 12.8 Q7.6 10.05 7.6 8.85 L10.25 8.5 Q13.25 8.25 15.55 8.5 L15.3 6.95 Q15.25 5.15 15.45 3.8 L15.45 3.5 16.05 3.8 17.05 4.3 18.7 5.55 19.6 3.65 Q20.95 0.85 21.85 0.0 L23.55 1.65 25.5 3.8 26.4 5.2 27.6 3.95 27.8 3.8 Q29.05 2.55 30.2 1.65 L30.45 3.3 30.55 3.8 Q30.65 5.05 30.4 6.2 L32.2 4.45 32.95 3.8 Q34.75 2.3 35.75 1.9 L37.0 3.95 Q38.5 6.45 39.15 8.65 L40.55 7.8 Q42.45 7.0 44.2 6.55 L43.95 8.35 M46.85 38.55 Q47.35 39.45 48.0 39.95 48.75 40.5 50.55 39.55 52.3 38.7 53.2 37.4 54.2 36.05 53.75 35.1 53.3 34.15 51.95 34.0 50.55 33.85 49.15 34.55 47.75 35.25 47.1 36.5 46.45 37.6 46.85 38.55 M41.0 44.15 Q39.8 44.9 39.8 45.95 39.8 47.05 40.2 47.75 40.55 48.55 42.6 48.55 44.55 48.55 46.05 47.75 47.45 47.05 47.45 45.95 47.45 44.9 46.35 44.15 45.2 43.45 43.6 43.45 42.05 43.45 41.0 44.15 M33.7 16.85 Q30.55 17.2 28.55 22.1 28.2 23.5 28.0 25.05 27.55 28.3 27.75 29.25 32.95 31.85 37.65 29.2 L38.25 28.45 Q38.9 27.55 39.15 26.35 40.05 22.65 36.35 17.35 35.25 16.6 33.7 16.85 M14.05 26.3 Q13.25 22.4 16.95 17.2 18.05 16.55 19.6 16.6 22.7 17.15 24.75 22.0 L25.25 25.05 Q25.75 28.15 25.5 29.2 20.3 31.75 15.65 29.0 L15.0 28.4 Q14.3 27.45 14.05 26.3 M7.0 38.55 Q6.55 39.45 5.9 39.95 5.1 40.5 3.3 39.55 1.55 38.7 0.65 37.4 -0.35 36.05 0.15 35.1 0.65 34.15 1.95 34.0 3.3 33.85 4.7 34.55 6.1 35.25 6.75 36.5 7.45 37.6 7.0 38.55 M13.75 43.9 Q14.9 44.7 14.9 45.75 14.9 46.8 14.55 47.5 14.15 48.3 12.15 48.3 10.2 48.3 8.7 47.5 7.3 46.8 7.3 45.75 7.3 44.7 8.35 43.9 9.6 43.25 11.1 43.25 12.65 43.25 13.75 43.9 M31.25 25.75 Q31.35 26.55 31.05 27.15 30.7 27.7 30.2 27.85 29.7 28.0 29.3 27.55 29.0 27.15 28.85 26.35 L29.05 25.05 Q29.4 24.5 29.85 24.3 30.4 24.15 30.8 24.55 31.2 25.05 31.25 25.75 M22.45 24.5 Q22.0 24.95 22.0 25.65 21.85 26.35 22.25 26.95 22.45 27.6 23.0 27.8 23.55 27.95 23.85 27.45 L24.35 26.3 24.15 24.95 23.35 24.15 Q22.85 24.1 22.45 24.5 M26.15 33.0 L23.35 36.75 22.0 32.35 Q24.0 32.3 26.15 33.0 M30.55 36.75 L31.95 32.35 Q29.8 32.3 27.8 33.0 L30.55 36.75 Z" fill="none" stroke="#000000" stroke-linecap="round" stroke-linejoin="round" stroke-opacity="0.2" stroke-width="1.5"/>
    </g>
    <g id="sprite21" transform="matrix(1.0, 0.0, 0.0, 1.0, 0.0, 0.0)">
      <use ffdec:characterId="24" height="48.55" transform="matrix(1.0, 0.0, 0.0, 1.0, 0.0, 0.0)" width="53.9" xlink:href="#shape2"/>
    </g>
    <g id="shape2" transform="matrix(1.0, 0.0, 0.0, 1.0, 0.0, 0.0)">
      <path d="M44.2 6.55 L43.95 8.35 Q43.55 10.35 42.45 11.75 L45.7 12.0 Q48.85 12.4 49.9 13.1 L49.0 15.3 Q47.75 17.85 46.35 19.65 L48.0 20.25 51.15 22.1 49.5 23.0 Q47.6 23.95 45.7 23.95 L47.9 25.8 Q50.15 27.85 50.75 28.95 L48.5 30.25 Q45.95 31.65 43.7 32.35 L44.6 33.7 46.1 36.95 44.25 36.8 Q42.3 36.55 40.75 35.9 L41.15 38.55 Q41.6 41.5 41.2 42.7 L38.65 42.25 Q35.7 41.95 33.35 41.1 L33.3 42.7 32.2 46.05 30.85 44.85 Q29.7 43.7 29.05 42.45 L28.65 41.65 27.6 43.15 Q25.75 45.5 24.75 46.15 L23.0 44.25 Q21.15 42.05 20.05 40.2 L18.7 41.1 15.65 42.9 15.45 41.25 Q15.45 39.2 16.25 37.8 L12.8 38.8 8.45 39.4 8.35 36.9 Q8.55 34.15 9.1 32.1 L7.35 32.0 3.7 31.5 4.8 30.1 Q6.2 28.55 7.95 27.7 L5.75 26.8 Q3.05 25.5 2.15 24.5 L3.95 22.65 Q6.05 20.75 7.95 19.6 L6.75 18.45 Q5.35 17.1 4.45 15.8 L6.2 15.35 10.1 15.6 8.85 12.8 Q7.6 10.05 7.6 8.85 L10.25 8.5 Q13.25 8.25 15.55 8.5 L15.3 6.95 Q15.25 5.15 15.45 3.8 L15.45 3.5 16.05 3.8 17.05 4.3 18.7 5.55 19.6 3.65 Q20.95 0.85 21.85 0.0 L23.55 1.65 25.5 3.8 26.4 5.2 27.6 3.95 27.8 3.8 Q29.05 2.55 30.2 1.65 L30.45 3.3 30.55 3.8 Q30.65 5.05 30.4 6.2 L32.2 4.45 32.95 3.8 Q34.75 2.3 35.75 1.9 L37.0 3.95 Q38.5 6.45 39.15 8.65 L40.55 7.8 Q42.45 7.0 44.2 6.55 M41.0 44.15 Q42.05 43.45 43.6 43.45 45.2 43.45 46.35 44.15 47.45 44.9 47.45 45.95 47.45 47.05 46.05 47.75 44.55 48.55 42.6 48.55 40.55 48.55 40.2 47.75 39.8 47.05 39.8 45.95 39.8 44.9 41.0 44.15 M46.85 38.55 Q46.45 37.6 47.1 36.5 47.75 35.25 49.15 34.55 50.55 33.85 51.95 34.0 53.3 34.15 53.75 35.1 54.2 36.05 53.2 37.4 52.3 38.7 50.55 39.55 48.75 40.5 48.0 39.95 47.35 39.45 46.85 38.55 M33.7 16.85 Q30.55 17.2 28.55 22.1 28.2 23.5 28.0 25.05 27.55 28.3 27.75 29.25 32.95 31.85 37.65 29.2 L38.25 28.45 Q38.9 27.55 39.15 26.35 40.05 22.65 36.35 17.35 35.25 16.6 33.7 16.85 M14.05 26.3 Q14.3 27.45 15.0 28.4 L15.65 29.0 Q20.3 31.75 25.5 29.2 25.75 28.15 25.25 25.05 L24.75 22.0 Q22.7 17.15 19.6 16.6 18.05 16.55 16.95 17.2 13.25 22.4 14.05 26.3 M7.0 38.55 Q6.55 39.45 5.9 39.95 5.1 40.5 3.3 39.55 1.55 38.7 0.65 37.4 -0.35 36.05 0.15 35.1 0.65 34.15 1.95 34.0 3.3 33.85 4.7 34.55 6.1 35.25 6.75 36.5 7.45 37.6 7.0 38.55 M13.75 43.9 Q14.9 44.7 14.9 45.75 14.9 46.8 14.55 47.5 14.15 48.3 12.15 48.3 10.2 48.3 8.7 47.5 7.3 46.8 7.3 45.75 7.3 44.7 8.35 43.9 9.6 43.25 11.1 43.25 12.65 43.25 13.75 43.9 M31.25 25.75 Q31.35 26.55 31.05 27.15 30.7 27.7 30.2 27.85 29.7 28.0 29.3 27.55 29.0 27.15 28.85 26.35 L29.05 25.05 Q29.4 24.5 29.85 24.3 30.4 24.15 30.8 24.55 31.2 25.05 31.25 25.75 M26.15 33.0 Q24.0 32.3 22.0 32.35 L23.35 36.75 26.15 33.0 M22.45 24.5 Q22.85 24.1 23.35 24.15 L24.15 24.95 24.35 26.3 23.85 27.45 Q23.55 27.95 23.0 27.8 22.45 27.6 22.25 26.95 21.85 26.35 22.0 25.65 22.0 24.95 22.45 24.5 M30.55 36.75 L31.95 32.35 Q29.8 32.3 27.8 33.0 L30.55 36.75" fill="#000000" fill-rule="evenodd" stroke="none"/>
    </g>
  </defs>
</svg>
