<?xml version="1.0" encoding="UTF-8" standalone="no"?>
<svg xmlns:ffdec="https://www.free-decompiler.com/flash" xmlns:xlink="http://www.w3.org/1999/xlink" ffdec:objectType="frame" height="56.0px" width="56.0px" xmlns="http://www.w3.org/2000/svg">
  <g transform="matrix(1.0, 0.0, 0.0, 1.0, 0.0, 0.0)">
    <use ffdec:characterId="23" ffdec:characterName="114_fla.Symbole66_1" height="56.0" id="back" transform="matrix(1.0, 0.0, 0.0, 1.0, 0.0, 0.0)" width="56.0" xlink:href="#sprite0"/>
    <use ffdec:characterId="25" height="55.55" id="back" transform="matrix(1.0, 0.0, 0.0, 1.0, 1.4, 0.45)" width="53.0" xlink:href="#sprite22"/>
    <use ffdec:characterId="27" height="54.05" id="up" transform="matrix(1.0, 0.0, 0.0, 1.0, 2.15, 1.2)" width="51.55" xlink:href="#sprite23"/>
  </g>
  <defs>
    <g id="sprite0" transform="matrix(1.0, 0.0, 0.0, 1.0, 0.0, 0.0)">
      <use ffdec:characterId="22" ffdec:characterName="114_fla.Symbole63_2" height="56.0" id="back" transform="matrix(1.0, 0.0, 0.0, 1.0, 0.0, 0.0)" width="56.0" xlink:href="#sprite1"/>
    </g>
    <g id="sprite1" transform="matrix(1.0, 0.0, 0.0, 1.0, 0.0, 0.0)">
      <use ffdec:characterId="21" ffdec:characterName="114_fla.Symbole60_3" height="56.0" id="back" transform="matrix(1.0, 0.0, 0.0, 1.0, 0.0, 0.0)" width="56.0" xlink:href="#sprite2"/>
    </g>
    <g id="sprite2" transform="matrix(1.0, 0.0, 0.0, 1.0, 0.0, 0.0)">
      <use ffdec:characterId="20" ffdec:characterName="114_fla.Symbole57_4" height="56.0" id="back" transform="matrix(1.0, 0.0, 0.0, 1.0, 0.0, 0.0)" width="56.0" xlink:href="#sprite3"/>
    </g>
    <g id="sprite3" transform="matrix(1.0, 0.0, 0.0, 1.0, 0.0, 0.0)">
      <use ffdec:characterId="19" ffdec:characterName="114_fla.Symbole54_5" height="56.0" id="back" transform="matrix(1.0, 0.0, 0.0, 1.0, 0.0, 0.0)" width="56.0" xlink:href="#sprite4"/>
    </g>
    <g id="sprite4" transform="matrix(1.0, 0.0, 0.0, 1.0, 0.0, 0.0)">
      <use ffdec:characterId="18" ffdec:characterName="114_fla.Symbole51_6" height="56.0" id="back" transform="matrix(1.0, 0.0, 0.0, 1.0, 0.0, 0.0)" width="56.0" xlink:href="#sprite5"/>
    </g>
    <g id="sprite5" transform="matrix(1.0, 0.0, 0.0, 1.0, 0.0, 0.0)">
      <use ffdec:characterId="17" ffdec:characterName="114_fla.Symbole48_7" height="56.0" id="back" transform="matrix(1.0, 0.0, 0.0, 1.0, 0.0, 0.0)" width="56.0" xlink:href="#sprite6"/>
    </g>
    <g id="sprite6" transform="matrix(1.0, 0.0, 0.0, 1.0, 0.0, 0.0)">
      <use ffdec:characterId="16" ffdec:characterName="114_fla.Symbole45_8" height="56.0" id="back" transform="matrix(1.0, 0.0, 0.0, 1.0, 0.0, 0.0)" width="56.0" xlink:href="#sprite7"/>
    </g>
    <g id="sprite7" transform="matrix(1.0, 0.0, 0.0, 1.0, 0.0, 0.0)">
      <use ffdec:characterId="15" ffdec:characterName="114_fla.Symbole42_9" height="56.0" id="back" transform="matrix(1.0, 0.0, 0.0, 1.0, 0.0, 0.0)" width="56.0" xlink:href="#sprite8"/>
    </g>
    <g id="sprite8" transform="matrix(1.0, 0.0, 0.0, 1.0, 0.0, 0.0)">
      <use ffdec:characterId="14" ffdec:characterName="114_fla.Symbole39_10" height="56.0" id="back" transform="matrix(1.0, 0.0, 0.0, 1.0, 0.0, 0.0)" width="56.0" xlink:href="#sprite9"/>
    </g>
    <g id="sprite9" transform="matrix(1.0, 0.0, 0.0, 1.0, 0.0, 0.0)">
      <use ffdec:characterId="13" ffdec:characterName="114_fla.Symbole36_11" height="56.0" id="back" transform="matrix(1.0, 0.0, 0.0, 1.0, 0.0, 0.0)" width="56.0" xlink:href="#sprite10"/>
    </g>
    <g id="sprite10" transform="matrix(1.0, 0.0, 0.0, 1.0, 0.0, 0.0)">
      <use ffdec:characterId="12" ffdec:characterName="114_fla.Symbole33_12" height="56.0" id="back" transform="matrix(1.0, 0.0, 0.0, 1.0, 0.0, 0.0)" width="56.0" xlink:href="#sprite11"/>
    </g>
    <g id="sprite11" transform="matrix(1.0, 0.0, 0.0, 1.0, 0.0, 0.0)">
      <use ffdec:characterId="11" ffdec:characterName="114_fla.Symbole30_13" height="56.0" id="back" transform="matrix(1.0, 0.0, 0.0, 1.0, 0.0, 0.0)" width="56.0" xlink:href="#sprite12"/>
    </g>
    <g id="sprite12" transform="matrix(1.0, 0.0, 0.0, 1.0, 0.0, 0.0)">
      <use ffdec:characterId="10" ffdec:characterName="114_fla.Symbole27_14" height="56.0" id="back" transform="matrix(1.0, 0.0, 0.0, 1.0, 0.0, 0.0)" width="56.0" xlink:href="#sprite13"/>
    </g>
    <g id="sprite13" transform="matrix(1.0, 0.0, 0.0, 1.0, 0.0, 0.0)">
      <use ffdec:characterId="9" ffdec:characterName="114_fla.Symbole24_15" height="56.0" id="back" transform="matrix(1.0, 0.0, 0.0, 1.0, 0.0, 0.0)" width="56.0" xlink:href="#sprite14"/>
    </g>
    <g id="sprite14" transform="matrix(1.0, 0.0, 0.0, 1.0, 0.0, 0.0)">
      <use ffdec:characterId="8" ffdec:characterName="114_fla.Symbole21_16" height="56.0" id="back" transform="matrix(1.0, 0.0, 0.0, 1.0, 0.0, 0.0)" width="56.0" xlink:href="#sprite15"/>
    </g>
    <g id="sprite15" transform="matrix(1.0, 0.0, 0.0, 1.0, 0.0, 0.0)">
      <use ffdec:characterId="7" ffdec:characterName="114_fla.Symbole18_17" height="56.0" id="back" transform="matrix(1.0, 0.0, 0.0, 1.0, 0.0, 0.0)" width="56.0" xlink:href="#sprite16"/>
    </g>
    <g id="sprite16" transform="matrix(1.0, 0.0, 0.0, 1.0, 0.0, 0.0)">
      <use ffdec:characterId="6" ffdec:characterName="114_fla.Symbole15_18" height="56.0" id="back" transform="matrix(1.0, 0.0, 0.0, 1.0, 0.0, 0.0)" width="56.0" xlink:href="#sprite17"/>
    </g>
    <g id="sprite17" transform="matrix(1.0, 0.0, 0.0, 1.0, 0.0, 0.0)">
      <use ffdec:characterId="5" ffdec:characterName="114_fla.Symbole12_19" height="56.0" id="back" transform="matrix(1.0, 0.0, 0.0, 1.0, 0.0, 0.0)" width="56.0" xlink:href="#sprite18"/>
    </g>
    <g id="sprite18" transform="matrix(1.0, 0.0, 0.0, 1.0, 0.0, 0.0)">
      <use ffdec:characterId="4" ffdec:characterName="114_fla.Symbole9_20" height="56.0" id="back" transform="matrix(1.0, 0.0, 0.0, 1.0, 0.0, 0.0)" width="56.0" xlink:href="#sprite19"/>
    </g>
    <g id="sprite19" transform="matrix(1.0, 0.0, 0.0, 1.0, 0.0, 0.0)">
      <use ffdec:characterId="3" ffdec:characterName="114_fla.Symbole6_21" height="56.0" id="back" transform="matrix(1.0, 0.0, 0.0, 1.0, 0.0, 0.0)" width="56.0" xlink:href="#sprite20"/>
    </g>
    <g id="sprite20" transform="matrix(1.0, 0.0, 0.0, 1.0, 0.0, 0.0)">
      <use ffdec:characterId="2" height="56.0" id="back" transform="matrix(1.0, 0.0, 0.0, 1.0, 0.0, 0.0)" width="56.0" xlink:href="#sprite21"/>
    </g>
    <g id="sprite21" transform="matrix(1.0, 0.0, 0.0, 1.0, 0.0, 0.0)">
      <use ffdec:characterId="1" height="56.0" transform="matrix(1.0, 0.0, 0.0, 1.0, 0.0, 0.0)" width="56.0" xlink:href="#shape0"/>
    </g>
    <g id="shape0" transform="matrix(1.0, 0.0, 0.0, 1.0, 0.0, 0.0)">
      <path d="M56.0 56.0 L0.0 56.0 0.0 0.0 56.0 0.0 56.0 56.0" fill="#010101" fill-opacity="0.0" fill-rule="evenodd" stroke="none"/>
    </g>
    <g id="sprite22" transform="matrix(1.0, 0.0, 0.0, 1.0, 0.75, 0.75)">
      <use ffdec:characterId="24" height="55.55" transform="matrix(1.0, 0.0, 0.0, 1.0, -0.75, -0.75)" width="53.0" xlink:href="#shape1"/>
    </g>
    <g id="shape1" transform="matrix(1.0, 0.0, 0.0, 1.0, 0.75, 0.75)">
      <path d="M51.25 10.8 Q52.5 22.4 47.5 31.1 47.65 30.3 47.4 29.65 47.15 28.45 46.05 29.3 45.65 29.55 45.4 30.1 44.9 31.15 45.7 32.4 L37.9 36.1 38.35 35.65 39.9 33.65 40.05 33.4 40.2 30.3 Q46.5 18.45 48.45 7.95 L49.05 1.9 49.05 1.1 49.05 0.8 50.0 3.6 Q50.95 7.15 51.25 10.8 M45.95 8.95 Q42.85 19.4 38.0 29.4 L38.45 32.0 36.85 34.25 Q35.25 33.05 34.25 32.9 L33.75 32.85 Q31.8 27.65 25.85 25.75 19.75 27.8 17.9 32.85 L17.35 32.9 Q16.5 33.05 15.3 33.9 13.7 32.4 13.1 31.3 L13.6 28.75 Q8.7 18.7 5.5 8.3 4.0 3.3 3.35 0.0 L3.3 0.8 Q3.45 3.6 4.0 6.85 5.9 17.35 12.2 29.3 L12.4 32.3 12.5 32.6 13.95 34.55 14.75 35.35 14.7 36.3 Q14.7 38.95 15.1 41.05 16.25 46.55 20.05 46.4 21.3 47.7 22.9 48.3 L24.2 48.55 24.1 48.1 Q24.55 45.95 25.7 44.3 L25.9 44.15 26.5 44.85 Q27.15 45.95 27.6 48.1 L27.5 48.55 28.65 48.3 Q30.4 47.7 31.6 46.4 35.4 46.55 36.55 41.05 36.95 38.95 36.95 35.95 L36.9 35.85 37.55 35.2 39.05 33.35 39.2 33.05 39.35 29.95 Q45.65 18.0 47.55 7.55 48.15 4.25 48.2 1.45 L48.2 0.7 Q47.55 3.9 45.95 8.95 M1.55 3.05 Q0.65 6.65 0.25 10.25 -0.95 21.9 4.0 30.55 3.9 29.7 4.05 29.15 4.35 27.95 5.5 28.8 L6.15 29.55 Q6.65 30.6 5.9 31.9 L13.7 35.65 13.15 35.05 11.75 33.2 11.5 32.9 11.3 29.8 Q5.05 17.85 3.15 7.45 2.55 4.1 2.5 1.3 L2.5 0.55 2.5 0.3 1.55 3.05 M16.45 39.6 Q16.9 43.2 18.85 44.6 L19.4 45.0 20.2 45.35 Q21.3 45.6 22.55 44.9 L24.4 44.85 24.5 44.85 24.5 44.45 Q24.25 41.7 23.65 39.15 22.4 34.65 20.25 34.1 L19.4 34.1 18.55 34.2 Q17.5 34.5 16.45 35.65 L16.35 36.8 16.45 39.6 M33.05 34.2 L32.15 34.1 31.3 34.1 Q29.2 34.65 28.0 39.15 27.35 41.7 27.15 44.45 L27.15 44.85 29.0 44.9 Q30.4 45.6 31.4 45.35 L32.15 45.0 32.8 44.6 Q34.65 43.2 35.1 39.6 L35.25 36.8 35.2 35.65 Q34.2 34.5 33.05 34.2 M21.45 38.65 Q21.2 40.8 21.85 44.0 L22.2 41.75 Q22.4 39.75 21.75 37.1 L21.45 38.65 M25.9 45.2 L26.3 45.8 27.15 48.25 26.6 51.35 Q26.3 53.35 25.85 54.05 25.35 53.35 25.0 51.35 L24.55 48.25 Q24.85 46.55 25.85 45.2 L25.9 45.2 M30.15 38.65 Q30.45 40.8 29.8 44.0 L29.35 41.75 Q29.15 39.75 29.85 37.1 L30.15 38.65 Z" fill="none" stroke="#000000" stroke-linecap="round" stroke-linejoin="round" stroke-opacity="0.2" stroke-width="1.5"/>
    </g>
    <g id="sprite23" transform="matrix(1.0, 0.0, 0.0, 1.0, 0.0, 0.0)">
      <use ffdec:characterId="26" height="54.05" transform="matrix(1.0, 0.0, 0.0, 1.0, 0.0, 0.0)" width="51.55" xlink:href="#shape2"/>
    </g>
    <g id="shape2" transform="matrix(1.0, 0.0, 0.0, 1.0, 0.0, 0.0)">
      <path d="M51.3 10.8 Q52.5 22.4 47.5 31.1 47.65 30.3 47.4 29.65 47.1 28.45 46.05 29.3 45.6 29.6 45.4 30.1 44.9 31.2 45.7 32.4 40.45 34.85 37.9 36.05 L38.4 35.65 39.9 33.7 40.05 33.4 40.15 30.3 Q46.5 18.45 48.4 7.95 L49.05 1.9 49.05 1.1 49.05 0.8 50.0 3.6 Q50.9 7.15 51.3 10.8 M1.55 3.05 L2.5 0.3 2.5 0.55 2.5 1.3 Q2.55 4.1 3.15 7.45 5.05 17.85 11.3 29.8 L11.5 32.9 11.75 33.2 13.15 35.05 13.65 35.65 5.85 31.9 Q6.65 30.6 6.15 29.6 L5.5 28.8 Q4.35 27.95 4.05 29.15 3.9 29.75 4.0 30.55 -0.95 21.9 0.25 10.25 0.6 6.65 1.55 3.05 M46.0 8.95 L48.2 0.65 48.2 1.45 Q48.15 4.25 47.55 7.5 45.6 18.0 39.3 29.95 L39.15 33.05 39.05 33.35 37.5 35.2 36.9 35.85 36.95 35.95 Q36.95 38.95 36.5 41.05 35.35 46.55 31.6 46.45 30.35 47.75 28.65 48.3 L27.5 48.5 27.55 48.1 Q27.15 45.95 26.5 44.85 L25.9 44.15 25.7 44.25 Q24.55 45.95 24.1 48.1 L24.2 48.5 22.9 48.3 Q21.25 47.75 20.05 46.45 16.25 46.55 15.1 41.05 14.65 38.95 14.65 36.3 L14.75 35.35 13.95 34.55 12.5 32.6 12.35 32.35 12.15 29.3 Q5.85 17.35 4.0 6.85 3.4 3.6 3.25 0.8 L3.35 0.0 Q4.0 3.25 5.5 8.3 8.7 18.75 13.6 28.75 L13.1 31.3 Q13.65 32.4 15.3 33.9 16.55 33.05 17.3 32.9 L17.9 32.85 Q19.75 27.8 25.85 25.8 31.8 27.65 33.75 32.85 L34.25 32.9 Q35.25 33.05 36.8 34.25 L38.45 31.95 37.95 29.4 Q42.85 19.4 46.0 8.95 M16.45 39.6 Q16.9 43.2 18.8 44.55 L19.4 45.0 20.2 45.35 Q21.25 45.55 22.55 44.9 L24.4 44.85 24.5 44.85 24.5 44.4 Q24.25 41.7 23.6 39.15 22.4 34.65 20.25 34.15 L19.4 34.15 18.55 34.2 Q17.45 34.5 16.45 35.65 L16.4 36.8 Q16.3 38.3 16.45 39.6 M33.1 34.2 L32.15 34.15 31.3 34.15 Q29.2 34.65 28.0 39.15 27.35 41.7 27.15 44.4 L27.15 44.85 29.0 44.9 31.35 45.35 32.15 45.0 32.8 44.55 Q34.65 43.2 35.1 39.6 L35.25 36.8 35.15 35.65 Q34.15 34.5 33.1 34.2 M21.4 38.65 L21.75 37.1 Q22.4 39.75 22.2 41.75 L21.85 44.0 Q21.2 40.8 21.4 38.65 M25.9 45.2 L26.25 45.8 Q26.8 46.55 27.15 48.25 L26.65 51.3 Q26.25 53.35 25.85 54.05 25.35 53.35 25.0 51.3 L24.55 48.25 Q24.85 46.55 25.85 45.2 L25.9 45.2 M30.15 38.65 Q30.45 40.8 29.8 44.0 L29.35 41.75 Q29.15 39.75 29.85 37.1 L30.15 38.65" fill="#000000" fill-rule="evenodd" stroke="none"/>
    </g>
  </defs>
</svg>
