<?xml version="1.0" encoding="UTF-8" standalone="no"?>
<svg xmlns:ffdec="https://www.free-decompiler.com/flash" xmlns:xlink="http://www.w3.org/1999/xlink" ffdec:objectType="frame" height="56.0px" width="56.0px" xmlns="http://www.w3.org/2000/svg">
  <g transform="matrix(1.0, 0.0, 0.0, 1.0, 0.0, 0.0)">
    <use ffdec:characterId="24" ffdec:characterName="115_fla.Symbole69_1" height="56.0" id="back" transform="matrix(1.0, 0.0, 0.0, 1.0, 0.0, 0.0)" width="56.0" xlink:href="#sprite0"/>
    <use ffdec:characterId="26" height="36.25" id="back" transform="matrix(1.0, 0.0, 0.0, 1.0, 0.4, 10.1)" width="55.4" xlink:href="#sprite23"/>
    <use ffdec:characterId="28" height="34.75" id="up" transform="matrix(1.0, 0.0, 0.0, 1.0, 1.15, 10.85)" width="53.9" xlink:href="#sprite24"/>
  </g>
  <defs>
    <g id="sprite0" transform="matrix(1.0, 0.0, 0.0, 1.0, 0.0, 0.0)">
      <use ffdec:characterId="23" ffdec:characterName="115_fla.Symbole66_2" height="56.0" id="back" transform="matrix(1.0, 0.0, 0.0, 1.0, 0.0, 0.0)" width="56.0" xlink:href="#sprite1"/>
    </g>
    <g id="sprite1" transform="matrix(1.0, 0.0, 0.0, 1.0, 0.0, 0.0)">
      <use ffdec:characterId="22" ffdec:characterName="115_fla.Symbole63_3" height="56.0" id="back" transform="matrix(1.0, 0.0, 0.0, 1.0, 0.0, 0.0)" width="56.0" xlink:href="#sprite2"/>
    </g>
    <g id="sprite2" transform="matrix(1.0, 0.0, 0.0, 1.0, 0.0, 0.0)">
      <use ffdec:characterId="21" ffdec:characterName="115_fla.Symbole60_4" height="56.0" id="back" transform="matrix(1.0, 0.0, 0.0, 1.0, 0.0, 0.0)" width="56.0" xlink:href="#sprite3"/>
    </g>
    <g id="sprite3" transform="matrix(1.0, 0.0, 0.0, 1.0, 0.0, 0.0)">
      <use ffdec:characterId="20" ffdec:characterName="115_fla.Symbole57_5" height="56.0" id="back" transform="matrix(1.0, 0.0, 0.0, 1.0, 0.0, 0.0)" width="56.0" xlink:href="#sprite4"/>
    </g>
    <g id="sprite4" transform="matrix(1.0, 0.0, 0.0, 1.0, 0.0, 0.0)">
      <use ffdec:characterId="19" ffdec:characterName="115_fla.Symbole54_6" height="56.0" id="back" transform="matrix(1.0, 0.0, 0.0, 1.0, 0.0, 0.0)" width="56.0" xlink:href="#sprite5"/>
    </g>
    <g id="sprite5" transform="matrix(1.0, 0.0, 0.0, 1.0, 0.0, 0.0)">
      <use ffdec:characterId="18" ffdec:characterName="115_fla.Symbole51_7" height="56.0" id="back" transform="matrix(1.0, 0.0, 0.0, 1.0, 0.0, 0.0)" width="56.0" xlink:href="#sprite6"/>
    </g>
    <g id="sprite6" transform="matrix(1.0, 0.0, 0.0, 1.0, 0.0, 0.0)">
      <use ffdec:characterId="17" ffdec:characterName="115_fla.Symbole48_8" height="56.0" id="back" transform="matrix(1.0, 0.0, 0.0, 1.0, 0.0, 0.0)" width="56.0" xlink:href="#sprite7"/>
    </g>
    <g id="sprite7" transform="matrix(1.0, 0.0, 0.0, 1.0, 0.0, 0.0)">
      <use ffdec:characterId="16" ffdec:characterName="115_fla.Symbole45_9" height="56.0" id="back" transform="matrix(1.0, 0.0, 0.0, 1.0, 0.0, 0.0)" width="56.0" xlink:href="#sprite8"/>
    </g>
    <g id="sprite8" transform="matrix(1.0, 0.0, 0.0, 1.0, 0.0, 0.0)">
      <use ffdec:characterId="15" ffdec:characterName="115_fla.Symbole42_10" height="56.0" id="back" transform="matrix(1.0, 0.0, 0.0, 1.0, 0.0, 0.0)" width="56.0" xlink:href="#sprite9"/>
    </g>
    <g id="sprite9" transform="matrix(1.0, 0.0, 0.0, 1.0, 0.0, 0.0)">
      <use ffdec:characterId="14" ffdec:characterName="115_fla.Symbole39_11" height="56.0" id="back" transform="matrix(1.0, 0.0, 0.0, 1.0, 0.0, 0.0)" width="56.0" xlink:href="#sprite10"/>
    </g>
    <g id="sprite10" transform="matrix(1.0, 0.0, 0.0, 1.0, 0.0, 0.0)">
      <use ffdec:characterId="13" ffdec:characterName="115_fla.Symbole36_12" height="56.0" id="back" transform="matrix(1.0, 0.0, 0.0, 1.0, 0.0, 0.0)" width="56.0" xlink:href="#sprite11"/>
    </g>
    <g id="sprite11" transform="matrix(1.0, 0.0, 0.0, 1.0, 0.0, 0.0)">
      <use ffdec:characterId="12" ffdec:characterName="115_fla.Symbole33_13" height="56.0" id="back" transform="matrix(1.0, 0.0, 0.0, 1.0, 0.0, 0.0)" width="56.0" xlink:href="#sprite12"/>
    </g>
    <g id="sprite12" transform="matrix(1.0, 0.0, 0.0, 1.0, 0.0, 0.0)">
      <use ffdec:characterId="11" ffdec:characterName="115_fla.Symbole30_14" height="56.0" id="back" transform="matrix(1.0, 0.0, 0.0, 1.0, 0.0, 0.0)" width="56.0" xlink:href="#sprite13"/>
    </g>
    <g id="sprite13" transform="matrix(1.0, 0.0, 0.0, 1.0, 0.0, 0.0)">
      <use ffdec:characterId="10" ffdec:characterName="115_fla.Symbole27_15" height="56.0" id="back" transform="matrix(1.0, 0.0, 0.0, 1.0, 0.0, 0.0)" width="56.0" xlink:href="#sprite14"/>
    </g>
    <g id="sprite14" transform="matrix(1.0, 0.0, 0.0, 1.0, 0.0, 0.0)">
      <use ffdec:characterId="9" ffdec:characterName="115_fla.Symbole24_16" height="56.0" id="back" transform="matrix(1.0, 0.0, 0.0, 1.0, 0.0, 0.0)" width="56.0" xlink:href="#sprite15"/>
    </g>
    <g id="sprite15" transform="matrix(1.0, 0.0, 0.0, 1.0, 0.0, 0.0)">
      <use ffdec:characterId="8" ffdec:characterName="115_fla.Symbole21_17" height="56.0" id="back" transform="matrix(1.0, 0.0, 0.0, 1.0, 0.0, 0.0)" width="56.0" xlink:href="#sprite16"/>
    </g>
    <g id="sprite16" transform="matrix(1.0, 0.0, 0.0, 1.0, 0.0, 0.0)">
      <use ffdec:characterId="7" ffdec:characterName="115_fla.Symbole18_18" height="56.0" id="back" transform="matrix(1.0, 0.0, 0.0, 1.0, 0.0, 0.0)" width="56.0" xlink:href="#sprite17"/>
    </g>
    <g id="sprite17" transform="matrix(1.0, 0.0, 0.0, 1.0, 0.0, 0.0)">
      <use ffdec:characterId="6" ffdec:characterName="115_fla.Symbole15_19" height="56.0" id="back" transform="matrix(1.0, 0.0, 0.0, 1.0, 0.0, 0.0)" width="56.0" xlink:href="#sprite18"/>
    </g>
    <g id="sprite18" transform="matrix(1.0, 0.0, 0.0, 1.0, 0.0, 0.0)">
      <use ffdec:characterId="5" ffdec:characterName="115_fla.Symbole12_20" height="56.0" id="back" transform="matrix(1.0, 0.0, 0.0, 1.0, 0.0, 0.0)" width="56.0" xlink:href="#sprite19"/>
    </g>
    <g id="sprite19" transform="matrix(1.0, 0.0, 0.0, 1.0, 0.0, 0.0)">
      <use ffdec:characterId="4" ffdec:characterName="115_fla.Symbole9_21" height="56.0" id="back" transform="matrix(1.0, 0.0, 0.0, 1.0, 0.0, 0.0)" width="56.0" xlink:href="#sprite20"/>
    </g>
    <g id="sprite20" transform="matrix(1.0, 0.0, 0.0, 1.0, 0.0, 0.0)">
      <use ffdec:characterId="3" ffdec:characterName="115_fla.Symbole6_22" height="56.0" id="back" transform="matrix(1.0, 0.0, 0.0, 1.0, 0.0, 0.0)" width="56.0" xlink:href="#sprite21"/>
    </g>
    <g id="sprite21" transform="matrix(1.0, 0.0, 0.0, 1.0, 0.0, 0.0)">
      <use ffdec:characterId="2" height="56.0" id="back" transform="matrix(1.0, 0.0, 0.0, 1.0, 0.0, 0.0)" width="56.0" xlink:href="#sprite22"/>
    </g>
    <g id="sprite22" transform="matrix(1.0, 0.0, 0.0, 1.0, 0.0, 0.0)">
      <use ffdec:characterId="1" height="56.0" transform="matrix(1.0, 0.0, 0.0, 1.0, 0.0, 0.0)" width="56.0" xlink:href="#shape0"/>
    </g>
    <g id="shape0" transform="matrix(1.0, 0.0, 0.0, 1.0, 0.0, 0.0)">
      <path d="M56.0 56.0 L0.0 56.0 0.0 0.0 56.0 0.0 56.0 56.0" fill="#010101" fill-opacity="0.0" fill-rule="evenodd" stroke="none"/>
    </g>
    <g id="sprite23" transform="matrix(1.0, 0.0, 0.0, 1.0, 0.75, 0.75)">
      <use ffdec:characterId="25" height="36.25" transform="matrix(1.0, 0.0, 0.0, 1.0, -0.75, -0.75)" width="55.4" xlink:href="#shape1"/>
    </g>
    <g id="shape1" transform="matrix(1.0, 0.0, 0.0, 1.0, 0.75, 0.75)">
      <path d="M48.8 4.25 Q50.75 5.3 52.3 9.0 L50.75 9.65 51.95 10.85 Q53.25 12.55 53.9 14.4 L51.4 13.4 51.6 14.4 Q51.8 15.7 51.6 16.8 50.9 20.4 47.1 22.2 L47.1 20.1 45.85 20.75 45.25 20.8 43.95 23.9 Q45.4 24.45 46.9 25.6 L48.8 27.3 44.7 27.5 45.7 32.4 43.15 29.9 42.4 29.05 38.4 31.75 Q34.2 34.2 31.2 34.35 L27.1 34.75 23.15 34.35 Q19.95 34.2 15.9 31.75 L12.1 28.8 11.05 29.9 8.6 32.4 9.55 27.5 5.45 27.3 7.35 25.6 Q8.8 24.6 10.2 23.95 L8.75 20.8 8.0 20.75 6.7 20.1 6.8 22.2 Q3.0 20.4 2.4 16.8 2.15 15.7 2.3 14.4 L2.45 13.4 0.0 14.4 Q0.65 12.55 2.0 10.85 L3.2 9.65 1.7 9.0 Q3.2 5.3 5.1 4.25 5.7 3.85 6.25 3.85 L6.7 3.95 5.1 1.6 Q8.35 -0.7 11.35 0.85 12.8 1.7 13.6 2.85 L14.15 0.0 Q16.2 2.55 16.75 8.0 L17.0 9.95 Q24.55 6.35 31.65 7.7 34.95 8.3 37.0 9.55 L37.05 8.0 Q37.65 2.55 39.75 0.0 L40.2 2.85 Q41.1 1.7 42.6 0.85 45.55 -0.7 48.8 1.6 L47.2 3.95 47.65 3.85 Q48.2 3.85 48.8 4.25 M46.4 5.1 L45.7 5.25 45.6 5.3 Q44.8 5.45 44.0 6.05 41.55 7.7 40.3 11.85 40.15 12.1 40.3 12.35 L40.55 12.65 41.0 12.55 41.25 12.25 41.4 11.65 Q41.95 11.55 42.75 12.25 L42.6 13.1 41.75 15.65 Q41.25 16.85 45.4 16.65 48.1 15.75 48.7 13.8 48.25 9.2 46.55 6.7 L46.25 6.25 46.55 6.2 46.85 6.0 46.9 5.6 46.8 5.25 46.4 5.1 M40.6 15.35 L40.6 14.95 40.35 14.65 Q40.15 14.5 39.9 14.65 L31.6 19.65 31.25 19.9 Q30.65 20.25 30.05 20.55 L29.55 19.7 30.95 14.65 30.95 14.3 30.6 14.0 30.3 14.0 Q30.1 14.15 30.05 14.4 L28.7 18.8 Q28.2 18.35 27.65 18.2 L26.95 18.2 Q26.55 18.25 26.25 18.5 L25.0 14.15 24.8 13.8 Q24.55 13.65 24.3 13.8 L24.0 14.1 Q23.85 14.25 24.0 14.4 L25.4 19.4 24.45 20.8 24.3 20.55 14.75 15.05 14.3 14.95 14.0 15.2 Q13.85 15.4 14.0 15.65 L14.15 15.9 17.7 17.95 Q17.15 19.2 17.15 20.8 17.15 22.8 18.15 24.2 19.15 25.65 20.55 25.65 22.0 25.65 23.0 24.2 L23.6 23.2 23.7 23.05 23.7 23.2 Q22.85 25.65 22.3 29.25 23.4 32.2 27.5 32.2 31.45 32.05 32.4 28.95 31.75 25.45 30.95 23.05 L31.05 23.05 31.5 23.95 Q32.55 25.45 34.05 25.45 35.45 25.45 36.5 23.95 37.5 22.55 37.5 20.4 37.5 18.95 36.9 17.7 L40.45 15.7 40.6 15.35 M7.55 5.1 Q7.35 5.1 7.2 5.25 7.05 5.3 7.0 5.6 L7.05 6.0 Q7.2 6.2 7.4 6.2 L7.7 6.25 7.35 6.7 Q5.6 9.2 5.15 13.8 5.8 15.75 8.6 16.65 12.75 16.85 12.2 15.65 L11.3 13.1 11.05 12.25 Q11.95 11.55 12.6 11.65 L12.75 12.25 13.05 12.55 13.4 12.65 13.65 12.35 13.75 11.85 Q12.35 7.7 9.95 6.05 L9.9 6.05 Q9.1 5.45 8.25 5.3 L8.25 5.25 7.55 5.1 M33.45 22.9 Q33.05 23.65 32.55 23.65 32.05 23.65 31.65 22.9 31.35 22.25 31.35 21.3 L31.35 20.95 31.6 20.8 31.75 20.8 33.45 19.7 33.75 21.3 33.45 22.9 M29.55 21.2 L30.3 22.8 Q30.95 25.1 31.6 28.75 30.9 31.5 27.35 31.6 23.95 31.6 23.0 29.05 24.1 22.05 25.95 19.7 L26.15 19.55 26.15 19.5 Q26.55 19.05 26.95 18.95 L27.4 18.95 Q28.85 19.55 29.25 20.55 L29.55 21.2 M23.25 21.25 L21.15 20.05 Q20.85 20.75 20.85 21.6 20.85 22.55 21.2 23.2 21.6 23.9 22.1 23.9 L22.95 23.2 23.25 21.6 23.25 21.25 Z" fill="none" stroke="#000000" stroke-linecap="round" stroke-linejoin="round" stroke-opacity="0.2" stroke-width="1.5"/>
    </g>
    <g id="sprite24" transform="matrix(1.0, 0.0, 0.0, 1.0, 0.0, 0.0)">
      <use ffdec:characterId="27" height="34.75" transform="matrix(1.0, 0.0, 0.0, 1.0, 0.0, 0.0)" width="53.9" xlink:href="#shape2"/>
    </g>
    <g id="shape2" transform="matrix(1.0, 0.0, 0.0, 1.0, 0.0, 0.0)">
      <path d="M47.2 3.95 L47.6 3.85 Q48.2 3.85 48.8 4.25 50.75 5.35 52.25 9.05 L50.75 9.65 51.9 10.85 Q53.2 12.55 53.9 14.4 L51.4 13.45 51.55 14.4 Q51.75 15.7 51.55 16.8 50.9 20.45 47.1 22.2 L47.1 20.15 45.85 20.75 45.2 20.8 43.9 23.85 Q45.35 24.45 46.9 25.6 L48.8 27.3 44.7 27.5 45.7 32.4 43.15 29.9 42.35 29.05 38.35 31.75 Q34.2 34.25 31.15 34.35 L27.05 34.75 23.15 34.35 Q19.95 34.25 15.85 31.75 L12.05 28.85 11.05 29.9 8.55 32.4 9.5 27.5 5.45 27.3 Q6.15 26.5 7.35 25.6 8.8 24.6 10.15 23.95 L8.7 20.8 8.0 20.75 6.7 20.15 6.75 22.2 Q2.95 20.45 2.4 16.8 2.15 15.7 2.3 14.4 L2.45 13.45 0.0 14.4 Q0.65 12.55 2.0 10.85 L3.2 9.65 1.65 9.05 Q3.2 5.35 5.05 4.25 5.65 3.85 6.25 3.85 L6.7 3.95 5.05 1.6 Q8.35 -0.65 11.35 0.9 12.8 1.7 13.6 2.85 L14.1 0.0 Q16.2 2.55 16.75 8.05 L16.95 9.95 Q24.5 6.35 31.65 7.75 34.95 8.3 37.0 9.55 L37.05 8.05 Q37.65 2.55 39.75 0.0 L40.2 2.85 Q41.05 1.7 42.6 0.9 45.5 -0.65 48.8 1.6 L47.2 3.95 M46.5 6.2 L46.8 6.0 46.9 5.6 46.75 5.25 46.35 5.1 45.7 5.25 45.55 5.35 Q44.75 5.45 43.95 6.05 41.5 7.75 40.25 11.9 40.1 12.1 40.25 12.35 L40.55 12.65 41.0 12.55 41.2 12.25 41.35 11.7 Q41.95 11.55 42.75 12.25 L42.6 13.15 41.7 15.6 Q41.2 16.85 45.35 16.65 48.05 15.75 48.7 13.8 48.25 9.2 46.5 6.7 L46.25 6.3 46.5 6.2 M40.6 15.35 L40.6 14.95 40.35 14.65 Q40.1 14.5 39.9 14.65 L31.6 19.65 31.2 19.9 30.0 20.6 29.55 19.7 30.95 14.65 30.95 14.3 30.55 14.0 30.3 14.0 30.0 14.4 28.65 18.85 27.65 18.15 26.95 18.15 26.2 18.55 24.95 14.15 24.75 13.8 Q24.5 13.65 24.3 13.8 L24.0 14.1 Q23.85 14.25 24.0 14.45 L25.4 19.4 24.45 20.8 24.3 20.6 14.7 15.05 14.25 14.95 13.95 15.2 Q13.8 15.4 13.95 15.6 13.95 15.85 14.1 15.9 L17.7 17.95 Q17.1 19.2 17.1 20.8 17.1 22.85 18.1 24.25 19.15 25.7 20.5 25.7 21.95 25.7 23.0 24.25 L23.6 23.2 23.65 23.1 23.65 23.2 Q22.85 25.7 22.25 29.25 23.35 32.2 27.45 32.2 31.45 32.05 32.4 28.95 31.75 25.45 30.95 23.05 L31.0 23.05 31.5 23.95 Q32.55 25.45 34.0 25.45 35.45 25.45 36.45 23.95 37.5 22.55 37.5 20.45 37.5 18.95 36.9 17.75 L40.4 15.7 40.6 15.35 M7.55 5.1 Q7.35 5.1 7.2 5.25 L6.95 5.6 7.05 6.0 Q7.2 6.2 7.4 6.2 L7.7 6.3 7.35 6.7 Q5.6 9.2 5.15 13.8 5.8 15.75 8.55 16.65 12.7 16.85 12.15 15.6 L11.25 13.15 11.05 12.25 Q11.9 11.55 12.6 11.7 L12.7 12.25 13.0 12.55 13.4 12.65 13.65 12.35 13.75 11.9 Q12.35 7.75 9.95 6.05 L9.9 6.05 Q9.1 5.45 8.2 5.35 L8.2 5.25 7.55 5.1 M33.4 22.9 Q33.05 23.65 32.55 23.65 32.05 23.65 31.65 22.9 31.3 22.25 31.3 21.3 L31.3 20.95 31.6 20.8 31.75 20.8 33.4 19.7 33.7 21.3 33.4 22.9 M29.55 21.15 L30.3 22.85 Q30.95 25.1 31.6 28.75 30.85 31.55 27.3 31.6 23.95 31.6 23.0 29.05 24.1 22.05 25.9 19.7 L26.15 19.55 26.15 19.5 Q26.55 19.05 26.95 18.95 L27.35 18.95 Q28.8 19.55 29.25 20.6 L29.55 21.15 M23.2 21.25 L23.2 21.6 22.9 23.2 Q22.55 23.85 22.05 23.85 21.6 23.85 21.15 23.2 20.8 22.55 20.8 21.6 20.8 20.75 21.1 20.05 L23.2 21.25" fill="#000000" fill-rule="evenodd" stroke="none"/>
    </g>
  </defs>
</svg>
