<?xml version="1.0" encoding="UTF-8" standalone="no"?>
<svg xmlns:ffdec="https://www.free-decompiler.com/flash" xmlns:xlink="http://www.w3.org/1999/xlink" ffdec:objectType="frame" height="56.0px" width="56.0px" xmlns="http://www.w3.org/2000/svg">
  <g transform="matrix(1.0, 0.0, 0.0, 1.0, 0.0, 0.0)">
    <use ffdec:characterId="25" ffdec:characterName="116_fla.Symbole72_1" height="56.0" id="back" transform="matrix(1.0, 0.0, 0.0, 1.0, 0.0, 0.0)" width="56.0" xlink:href="#sprite0"/>
    <use ffdec:characterId="27" height="55.55" id="back" transform="matrix(1.0, 0.0, 0.0, 1.0, 1.55, 0.45)" width="53.3" xlink:href="#sprite24"/>
    <use ffdec:characterId="29" height="54.05" id="up" transform="matrix(1.0, 0.0, 0.0, 1.0, 2.3, 1.25)" width="51.8" xlink:href="#sprite25"/>
  </g>
  <defs>
    <g id="sprite0" transform="matrix(1.0, 0.0, 0.0, 1.0, 0.0, 0.0)">
      <use ffdec:characterId="24" ffdec:characterName="116_fla.Symbole69_2" height="56.0" id="back" transform="matrix(1.0, 0.0, 0.0, 1.0, 0.0, 0.0)" width="56.0" xlink:href="#sprite1"/>
    </g>
    <g id="sprite1" transform="matrix(1.0, 0.0, 0.0, 1.0, 0.0, 0.0)">
      <use ffdec:characterId="23" ffdec:characterName="116_fla.Symbole66_3" height="56.0" id="back" transform="matrix(1.0, 0.0, 0.0, 1.0, 0.0, 0.0)" width="56.0" xlink:href="#sprite2"/>
    </g>
    <g id="sprite2" transform="matrix(1.0, 0.0, 0.0, 1.0, 0.0, 0.0)">
      <use ffdec:characterId="22" ffdec:characterName="116_fla.Symbole63_4" height="56.0" id="back" transform="matrix(1.0, 0.0, 0.0, 1.0, 0.0, 0.0)" width="56.0" xlink:href="#sprite3"/>
    </g>
    <g id="sprite3" transform="matrix(1.0, 0.0, 0.0, 1.0, 0.0, 0.0)">
      <use ffdec:characterId="21" ffdec:characterName="116_fla.Symbole60_5" height="56.0" id="back" transform="matrix(1.0, 0.0, 0.0, 1.0, 0.0, 0.0)" width="56.0" xlink:href="#sprite4"/>
    </g>
    <g id="sprite4" transform="matrix(1.0, 0.0, 0.0, 1.0, 0.0, 0.0)">
      <use ffdec:characterId="20" ffdec:characterName="116_fla.Symbole57_6" height="56.0" id="back" transform="matrix(1.0, 0.0, 0.0, 1.0, 0.0, 0.0)" width="56.0" xlink:href="#sprite5"/>
    </g>
    <g id="sprite5" transform="matrix(1.0, 0.0, 0.0, 1.0, 0.0, 0.0)">
      <use ffdec:characterId="19" ffdec:characterName="116_fla.Symbole54_7" height="56.0" id="back" transform="matrix(1.0, 0.0, 0.0, 1.0, 0.0, 0.0)" width="56.0" xlink:href="#sprite6"/>
    </g>
    <g id="sprite6" transform="matrix(1.0, 0.0, 0.0, 1.0, 0.0, 0.0)">
      <use ffdec:characterId="18" ffdec:characterName="116_fla.Symbole51_8" height="56.0" id="back" transform="matrix(1.0, 0.0, 0.0, 1.0, 0.0, 0.0)" width="56.0" xlink:href="#sprite7"/>
    </g>
    <g id="sprite7" transform="matrix(1.0, 0.0, 0.0, 1.0, 0.0, 0.0)">
      <use ffdec:characterId="17" ffdec:characterName="116_fla.Symbole48_9" height="56.0" id="back" transform="matrix(1.0, 0.0, 0.0, 1.0, 0.0, 0.0)" width="56.0" xlink:href="#sprite8"/>
    </g>
    <g id="sprite8" transform="matrix(1.0, 0.0, 0.0, 1.0, 0.0, 0.0)">
      <use ffdec:characterId="16" ffdec:characterName="116_fla.Symbole45_10" height="56.0" id="back" transform="matrix(1.0, 0.0, 0.0, 1.0, 0.0, 0.0)" width="56.0" xlink:href="#sprite9"/>
    </g>
    <g id="sprite9" transform="matrix(1.0, 0.0, 0.0, 1.0, 0.0, 0.0)">
      <use ffdec:characterId="15" ffdec:characterName="116_fla.Symbole42_11" height="56.0" id="back" transform="matrix(1.0, 0.0, 0.0, 1.0, 0.0, 0.0)" width="56.0" xlink:href="#sprite10"/>
    </g>
    <g id="sprite10" transform="matrix(1.0, 0.0, 0.0, 1.0, 0.0, 0.0)">
      <use ffdec:characterId="14" ffdec:characterName="116_fla.Symbole39_12" height="56.0" id="back" transform="matrix(1.0, 0.0, 0.0, 1.0, 0.0, 0.0)" width="56.0" xlink:href="#sprite11"/>
    </g>
    <g id="sprite11" transform="matrix(1.0, 0.0, 0.0, 1.0, 0.0, 0.0)">
      <use ffdec:characterId="13" ffdec:characterName="116_fla.Symbole36_13" height="56.0" id="back" transform="matrix(1.0, 0.0, 0.0, 1.0, 0.0, 0.0)" width="56.0" xlink:href="#sprite12"/>
    </g>
    <g id="sprite12" transform="matrix(1.0, 0.0, 0.0, 1.0, 0.0, 0.0)">
      <use ffdec:characterId="12" ffdec:characterName="116_fla.Symbole33_14" height="56.0" id="back" transform="matrix(1.0, 0.0, 0.0, 1.0, 0.0, 0.0)" width="56.0" xlink:href="#sprite13"/>
    </g>
    <g id="sprite13" transform="matrix(1.0, 0.0, 0.0, 1.0, 0.0, 0.0)">
      <use ffdec:characterId="11" ffdec:characterName="116_fla.Symbole30_15" height="56.0" id="back" transform="matrix(1.0, 0.0, 0.0, 1.0, 0.0, 0.0)" width="56.0" xlink:href="#sprite14"/>
    </g>
    <g id="sprite14" transform="matrix(1.0, 0.0, 0.0, 1.0, 0.0, 0.0)">
      <use ffdec:characterId="10" ffdec:characterName="116_fla.Symbole27_16" height="56.0" id="back" transform="matrix(1.0, 0.0, 0.0, 1.0, 0.0, 0.0)" width="56.0" xlink:href="#sprite15"/>
    </g>
    <g id="sprite15" transform="matrix(1.0, 0.0, 0.0, 1.0, 0.0, 0.0)">
      <use ffdec:characterId="9" ffdec:characterName="116_fla.Symbole24_17" height="56.0" id="back" transform="matrix(1.0, 0.0, 0.0, 1.0, 0.0, 0.0)" width="56.0" xlink:href="#sprite16"/>
    </g>
    <g id="sprite16" transform="matrix(1.0, 0.0, 0.0, 1.0, 0.0, 0.0)">
      <use ffdec:characterId="8" ffdec:characterName="116_fla.Symbole21_18" height="56.0" id="back" transform="matrix(1.0, 0.0, 0.0, 1.0, 0.0, 0.0)" width="56.0" xlink:href="#sprite17"/>
    </g>
    <g id="sprite17" transform="matrix(1.0, 0.0, 0.0, 1.0, 0.0, 0.0)">
      <use ffdec:characterId="7" ffdec:characterName="116_fla.Symbole18_19" height="56.0" id="back" transform="matrix(1.0, 0.0, 0.0, 1.0, 0.0, 0.0)" width="56.0" xlink:href="#sprite18"/>
    </g>
    <g id="sprite18" transform="matrix(1.0, 0.0, 0.0, 1.0, 0.0, 0.0)">
      <use ffdec:characterId="6" ffdec:characterName="116_fla.Symbole15_20" height="56.0" id="back" transform="matrix(1.0, 0.0, 0.0, 1.0, 0.0, 0.0)" width="56.0" xlink:href="#sprite19"/>
    </g>
    <g id="sprite19" transform="matrix(1.0, 0.0, 0.0, 1.0, 0.0, 0.0)">
      <use ffdec:characterId="5" ffdec:characterName="116_fla.Symbole12_21" height="56.0" id="back" transform="matrix(1.0, 0.0, 0.0, 1.0, 0.0, 0.0)" width="56.0" xlink:href="#sprite20"/>
    </g>
    <g id="sprite20" transform="matrix(1.0, 0.0, 0.0, 1.0, 0.0, 0.0)">
      <use ffdec:characterId="4" ffdec:characterName="116_fla.Symbole9_22" height="56.0" id="back" transform="matrix(1.0, 0.0, 0.0, 1.0, 0.0, 0.0)" width="56.0" xlink:href="#sprite21"/>
    </g>
    <g id="sprite21" transform="matrix(1.0, 0.0, 0.0, 1.0, 0.0, 0.0)">
      <use ffdec:characterId="3" ffdec:characterName="116_fla.Symbole6_23" height="56.0" id="back" transform="matrix(1.0, 0.0, 0.0, 1.0, 0.0, 0.0)" width="56.0" xlink:href="#sprite22"/>
    </g>
    <g id="sprite22" transform="matrix(1.0, 0.0, 0.0, 1.0, 0.0, 0.0)">
      <use ffdec:characterId="2" height="56.0" id="back" transform="matrix(1.0, 0.0, 0.0, 1.0, 0.0, 0.0)" width="56.0" xlink:href="#sprite23"/>
    </g>
    <g id="sprite23" transform="matrix(1.0, 0.0, 0.0, 1.0, 0.0, 0.0)">
      <use ffdec:characterId="1" height="56.0" transform="matrix(1.0, 0.0, 0.0, 1.0, 0.0, 0.0)" width="56.0" xlink:href="#shape0"/>
    </g>
    <g id="shape0" transform="matrix(1.0, 0.0, 0.0, 1.0, 0.0, 0.0)">
      <path d="M56.0 56.0 L0.0 56.0 0.0 0.0 56.0 0.0 56.0 56.0" fill="#010101" fill-opacity="0.0" fill-rule="evenodd" stroke="none"/>
    </g>
    <g id="sprite24" transform="matrix(1.0, 0.0, 0.0, 1.0, 0.75, 0.75)">
      <use ffdec:characterId="26" height="55.55" transform="matrix(1.0, 0.0, 0.0, 1.0, -0.75, -0.75)" width="53.3" xlink:href="#shape1"/>
    </g>
    <g id="shape1" transform="matrix(1.0, 0.0, 0.0, 1.0, 0.75, 0.75)">
      <path d="M39.35 10.25 L37.7 10.2 Q36.9 10.25 36.45 10.65 35.95 11.05 36.2 11.65 L36.7 12.1 37.15 12.35 38.85 12.45 Q39.6 12.35 40.15 11.85 40.55 11.55 40.3 11.05 40.15 10.45 39.35 10.25 M39.25 10.0 L37.15 9.95 Q36.0 10.0 35.4 10.55 34.75 11.05 35.05 11.75 35.4 12.35 36.35 12.75 L38.4 12.85 Q39.55 12.7 40.15 12.15 40.75 11.65 40.55 10.95 L39.95 10.25 39.25 10.0 M41.25 14.85 Q34.05 17.4 28.9 20.65 L26.95 21.7 26.05 22.0 Q24.0 22.5 22.2 21.7 L22.05 21.6 Q12.75 16.6 9.35 15.6 L4.25 13.8 Q3.05 13.2 2.4 12.7 1.7 12.0 1.95 11.4 L2.05 11.05 2.05 10.95 9.85 6.7 14.3 4.35 Q20.05 1.45 22.9 0.4 L24.95 0.0 Q27.5 0.1 30.55 1.95 L37.55 5.15 47.7 9.6 49.45 10.45 Q50.25 11.2 49.15 11.9 L48.95 12.15 48.9 12.15 47.5 12.85 Q44.85 13.45 41.25 14.85 M45.45 20.05 Q47.45 19.55 48.8 20.9 L49.85 22.35 Q50.4 23.55 50.5 25.1 50.6 27.85 49.3 30.15 48.1 32.5 45.95 33.15 44.15 33.7 42.6 32.3 41.1 30.9 40.9 28.15 40.85 25.4 42.05 23.05 L42.55 22.35 Q43.75 20.65 45.45 20.05 M41.65 16.85 Q34.5 19.55 29.25 22.7 L27.35 23.8 26.5 24.1 Q25.1 25.2 25.1 26.9 L25.1 27.65 25.2 28.8 25.2 29.15 25.1 48.75 25.1 49.35 25.1 49.45 Q25.4 52.75 26.85 53.65 L26.95 53.7 27.35 53.9 28.05 54.05 28.55 53.9 28.9 53.8 30.85 53.05 Q32.8 51.75 39.15 48.4 L45.7 45.4 Q47.95 44.35 49.9 43.55 51.6 42.4 51.8 39.5 L51.6 36.75 51.35 32.3 51.1 29.45 51.3 16.55 Q51.3 14.75 50.75 13.3 50.5 13.9 47.95 14.85 L41.65 16.85 M38.85 29.65 Q39.0 30.15 38.65 30.5 38.4 30.9 38.0 30.95 L37.3 30.9 Q37.05 30.65 36.95 30.15 36.95 29.75 37.3 29.4 37.45 29.05 37.9 28.8 L38.6 29.05 38.85 29.65 M43.15 27.25 L43.15 27.75 43.05 28.55 42.45 29.15 41.85 28.95 41.5 28.2 Q41.5 27.75 41.75 27.4 L41.85 27.25 Q42.05 27.0 42.3 26.9 L42.95 27.0 43.15 27.25 M43.1 34.45 L42.8 34.1 42.35 34.1 42.05 34.55 41.1 36.4 Q40.65 36.45 40.3 36.0 L39.9 35.75 Q39.55 35.75 39.45 35.9 L39.25 36.3 39.35 36.7 Q40.6 37.95 41.65 37.35 42.55 36.85 43.15 34.85 L43.1 34.45 M26.6 4.1 L24.1 3.95 Q22.65 4.1 22.05 4.8 21.25 5.3 21.6 6.15 22.05 6.85 23.15 7.3 L25.65 7.55 Q27.0 7.3 27.7 6.7 28.45 6.05 28.05 5.25 L27.45 4.55 26.6 4.1 M23.25 4.9 Q22.6 5.4 22.9 6.0 L23.4 6.5 24.1 6.85 25.95 7.05 Q27.0 6.85 27.6 6.35 28.15 5.9 27.9 5.3 27.7 4.8 26.75 4.45 L24.75 4.3 Q23.75 4.35 23.25 4.9 M18.6 9.35 L17.3 8.75 13.35 8.55 Q11.25 8.75 10.3 9.75 9.15 10.65 9.65 11.85 10.2 13.05 11.9 13.65 L12.0 13.65 15.85 13.9 Q17.85 13.55 18.85 12.7 19.95 11.65 19.45 10.45 L18.6 9.35 M19.1 10.65 Q18.75 9.75 17.45 9.25 L14.5 9.0 Q12.95 9.25 12.05 10.0 11.25 10.7 11.65 11.65 L12.35 12.5 13.45 13.0 16.3 13.2 Q17.9 12.95 18.8 12.15 19.6 11.45 19.1 10.65 M0.4 13.8 Q-0.35 17.3 0.4 24.0 L0.55 28.7 Q0.75 34.2 0.4 37.45 L0.4 39.85 Q0.75 42.4 2.25 43.35 L15.0 50.4 19.3 52.7 21.0 53.4 21.85 53.7 22.2 53.65 22.3 53.55 22.55 53.45 Q23.25 52.95 23.3 51.0 L23.3 49.35 23.3 49.2 23.3 48.65 23.5 29.05 23.5 28.65 23.4 27.6 23.3 26.85 23.3 26.15 22.8 25.25 Q22.05 24.25 20.75 23.55 11.5 18.6 8.05 17.5 6.25 17.2 3.0 15.75 L1.55 15.0 Q0.4 14.15 0.65 13.3 L0.4 13.8 M11.05 23.15 Q12.5 24.35 13.35 26.3 14.3 28.2 14.05 29.6 13.8 31.05 12.6 31.2 L11.05 31.05 9.85 30.35 Q8.45 29.2 7.45 27.1 6.5 25.25 6.85 23.8 7.1 22.35 8.3 22.2 9.6 22.0 11.05 23.15 M13.6 29.65 Q13.45 30.85 12.45 30.9 11.5 31.05 10.35 30.25 9.35 29.3 8.6 27.85 7.9 26.4 8.05 25.25 8.2 24.1 9.15 24.0 L10.35 24.1 11.3 24.7 Q12.35 25.55 13.1 27.1 13.7 28.55 13.6 29.65 M6.25 37.95 Q7.3 38.8 7.9 40.2 8.5 41.45 8.4 42.4 8.2 43.45 7.3 43.55 L6.25 43.45 5.45 43.0 Q4.5 42.15 3.75 40.7 3.15 39.45 3.3 38.45 3.45 37.45 4.45 37.25 5.2 37.2 6.15 37.9 L6.25 37.95 M4.2 39.45 Q4.25 38.65 4.95 38.45 L5.8 38.65 6.4 39.05 Q7.15 39.6 7.65 40.7 8.15 41.7 8.05 42.5 7.9 43.3 7.2 43.35 6.6 43.45 5.8 42.9 5.05 42.25 4.6 41.2 4.1 40.2 4.2 39.45 M15.6 38.15 Q16.3 38.05 17.2 38.9 L17.3 39.05 Q18.1 39.75 18.5 41.15 18.85 42.4 18.65 43.25 18.4 44.2 17.6 44.2 17.15 44.3 16.65 43.95 L16.0 43.35 Q15.1 42.65 14.65 41.2 14.25 40.0 14.5 39.05 14.65 38.15 15.6 38.15 M17.3 40.0 Q17.85 40.55 18.25 41.7 18.6 42.6 18.35 43.3 18.15 43.95 17.5 43.95 16.95 44.05 16.2 43.35 15.7 42.75 15.35 41.7 14.95 40.7 15.2 40.1 15.35 39.35 15.95 39.35 L16.7 39.6 17.3 40.0 M37.55 26.55 Q39.35 28.1 39.45 30.75 39.6 33.4 38.0 35.65 36.6 37.95 34.25 38.65 31.8 39.15 30.1 37.75 28.3 36.4 28.15 33.7 28.05 31.05 29.5 28.65 31.1 26.4 33.45 25.8 35.75 25.2 37.55 26.55 Z" fill="none" stroke="#000000" stroke-linecap="round" stroke-linejoin="round" stroke-opacity="0.2" stroke-width="1.5"/>
    </g>
    <g id="sprite25" transform="matrix(1.0, 0.0, 0.0, 1.0, 0.0, 0.0)">
      <use ffdec:characterId="28" height="54.05" transform="matrix(1.0, 0.0, 0.0, 1.0, 0.0, 0.0)" width="51.8" xlink:href="#shape2"/>
    </g>
    <g id="shape2" transform="matrix(1.0, 0.0, 0.0, 1.0, 0.0, 0.0)">
      <path d="M39.25 10.0 L37.15 9.9 Q36.0 10.0 35.35 10.55 34.75 11.05 35.05 11.75 35.35 12.35 36.35 12.75 L38.45 12.8 Q39.55 12.65 40.1 12.15 40.75 11.6 40.5 10.95 L39.95 10.25 39.25 10.0 M39.4 10.25 Q40.1 10.5 40.3 11.05 40.5 11.5 40.1 11.85 39.65 12.35 38.85 12.4 L37.15 12.35 36.65 12.1 36.2 11.6 Q35.95 11.05 36.4 10.65 36.9 10.25 37.7 10.15 L39.4 10.25 M41.25 14.85 Q34.0 17.4 28.85 20.65 L26.95 21.7 26.05 22.0 Q24.05 22.5 22.2 21.7 L22.05 21.6 Q12.8 16.6 9.3 15.55 7.45 15.15 4.25 13.8 3.05 13.2 2.4 12.65 1.7 12.0 1.9 11.35 L2.0 11.05 2.0 10.95 2.1 10.95 9.9 6.7 14.3 4.35 Q20.0 1.45 22.9 0.4 L24.9 0.0 Q27.5 0.05 30.55 1.95 L37.55 5.15 47.7 9.6 49.45 10.5 Q50.25 11.2 49.1 11.95 L48.95 12.15 48.9 12.15 47.5 12.8 Q44.85 13.45 41.25 14.85 M41.65 16.85 Q45.35 15.55 47.9 14.85 50.5 13.85 50.75 13.3 51.3 14.75 51.3 16.5 L51.15 29.45 51.4 32.25 51.6 36.75 51.8 39.5 Q51.6 42.4 49.95 43.55 L45.65 45.4 39.15 48.4 Q32.8 51.75 30.85 53.05 L28.85 53.8 28.55 53.85 28.05 54.05 27.35 53.85 26.95 53.7 26.85 53.6 Q25.4 52.75 25.1 49.45 L25.1 49.35 25.1 48.7 25.15 29.1 25.15 28.8 25.1 27.65 25.1 26.95 Q25.1 25.15 26.55 24.1 L27.35 23.8 29.25 22.75 Q34.5 19.5 41.65 16.85 M45.4 20.05 Q43.75 20.65 42.55 22.35 L42.05 23.05 Q40.85 25.4 40.9 28.15 41.1 30.9 42.6 32.25 44.15 33.7 46.0 33.15 48.1 32.5 49.3 30.15 50.55 27.8 50.5 25.05 50.4 23.55 49.85 22.35 L48.8 20.9 Q47.45 19.5 45.4 20.05 M38.85 29.65 Q39.0 30.15 38.65 30.5 L38.05 30.95 37.3 30.9 37.0 30.15 Q37.0 29.75 37.3 29.35 37.45 29.0 37.85 28.8 L38.6 29.0 38.85 29.65 M43.15 27.25 L43.15 27.75 43.0 28.55 42.45 29.1 41.8 28.95 41.5 28.2 Q41.5 27.75 41.75 27.4 L41.8 27.25 42.3 26.95 42.95 27.0 43.15 27.25 M42.35 34.1 L42.05 34.5 41.1 36.35 Q40.7 36.45 40.3 35.95 L39.9 35.7 Q39.55 35.7 39.45 35.9 L39.25 36.3 39.4 36.7 Q40.6 38.0 41.65 37.35 42.55 36.85 43.15 34.85 L43.1 34.45 42.75 34.1 42.35 34.1 M23.25 4.9 Q23.7 4.35 24.75 4.25 L26.75 4.45 Q27.65 4.75 27.9 5.3 28.15 5.9 27.55 6.35 27.0 6.85 25.95 7.0 L24.1 6.85 23.4 6.5 22.9 5.95 Q22.6 5.4 23.25 4.9 M26.6 4.1 L24.1 3.95 Q22.65 4.1 22.05 4.75 21.2 5.3 21.6 6.1 22.05 6.85 23.15 7.25 L25.65 7.5 Q27.0 7.25 27.65 6.7 28.45 6.05 28.05 5.25 27.9 4.75 27.4 4.5 27.1 4.25 26.6 4.1 M18.55 9.35 L17.3 8.7 13.35 8.55 Q11.25 8.7 10.3 9.75 9.15 10.65 9.65 11.85 10.2 13.05 11.9 13.6 L11.95 13.6 15.85 13.85 Q17.85 13.55 18.9 12.65 19.95 11.6 19.45 10.5 L18.55 9.35 M11.1 23.15 Q9.55 22.0 8.3 22.15 7.05 22.35 6.85 23.8 6.5 25.25 7.45 27.1 8.45 29.2 9.9 30.3 L11.1 31.05 12.6 31.2 Q13.8 31.05 14.05 29.6 14.3 28.2 13.35 26.3 12.55 24.35 11.1 23.15 M1.5 15.0 L2.95 15.7 Q6.25 17.15 8.05 17.5 11.5 18.6 20.75 23.55 22.05 24.25 22.85 25.25 L23.3 26.1 23.3 26.85 23.4 27.55 23.45 28.6 23.45 29.0 23.3 48.6 23.3 49.2 23.3 49.35 23.3 50.95 Q23.25 53.0 22.5 53.45 L22.25 53.55 22.2 53.6 21.85 53.7 21.0 53.4 19.3 52.65 Q17.2 51.7 15.05 50.4 L2.25 43.4 Q0.7 42.4 0.4 39.85 L0.4 37.4 Q0.7 34.2 0.55 28.7 L0.4 23.95 Q-0.35 17.35 0.4 13.8 L0.65 13.3 Q0.4 14.1 1.5 15.0 M19.15 10.65 Q19.6 11.45 18.8 12.15 17.9 12.9 16.3 13.2 L13.4 13.0 12.4 12.5 11.65 11.6 Q11.25 10.7 12.05 10.0 12.95 9.25 14.45 9.0 L17.45 9.25 Q18.75 9.75 19.15 10.65 M13.6 29.65 Q13.4 30.8 12.45 30.9 11.5 31.05 10.35 30.25 9.3 29.25 8.6 27.8 7.85 26.35 8.05 25.25 8.2 24.1 9.15 23.95 L10.35 24.1 Q10.75 24.45 11.35 24.65 12.4 25.55 13.1 27.1 13.75 28.55 13.6 29.65 M6.25 38.0 L6.2 37.9 Q5.2 37.15 4.4 37.25 3.45 37.4 3.3 38.45 3.15 39.45 3.75 40.7 4.5 42.15 5.45 43.0 L6.25 43.45 7.3 43.55 Q8.2 43.45 8.35 42.4 8.5 41.45 7.85 40.15 7.3 38.8 6.25 38.0 M4.15 39.45 Q4.25 38.6 5.0 38.45 L5.8 38.6 6.45 39.0 Q7.15 39.6 7.65 40.7 8.1 41.7 8.05 42.5 7.85 43.3 7.25 43.4 6.6 43.45 5.8 42.9 5.05 42.25 4.6 41.2 4.1 40.15 4.15 39.45 M17.2 38.85 Q16.3 38.05 15.6 38.15 14.65 38.15 14.45 39.0 14.25 40.0 14.65 41.2 15.1 42.65 16.0 43.4 L16.65 43.95 Q17.1 44.25 17.6 44.2 18.4 44.2 18.65 43.2 18.9 42.4 18.5 41.1 18.1 39.75 17.3 39.0 L17.2 38.85 M17.3 40.0 Q17.85 40.55 18.25 41.7 18.55 42.55 18.35 43.3 18.15 43.95 17.5 43.95 16.95 44.0 16.25 43.4 15.65 42.75 15.35 41.7 14.95 40.7 15.2 40.05 15.35 39.35 15.9 39.35 16.3 39.35 16.7 39.6 L17.3 40.0 M33.45 25.8 Q31.1 26.35 29.5 28.6 28.05 31.05 28.15 33.7 28.3 36.35 30.05 37.75 31.85 39.2 34.25 38.6 36.6 38.0 38.05 35.65 39.65 33.4 39.45 30.7 39.4 28.05 37.55 26.5 35.8 25.15 33.45 25.8" fill="#000000" fill-rule="evenodd" stroke="none"/>
    </g>
  </defs>
</svg>
