<?xml version="1.0" encoding="UTF-8" standalone="no"?>
<svg xmlns:ffdec="https://www.free-decompiler.com/flash" xmlns:xlink="http://www.w3.org/1999/xlink" ffdec:objectType="frame" height="56.0px" width="56.0px" xmlns="http://www.w3.org/2000/svg">
  <g transform="matrix(1.0, 0.0, 0.0, 1.0, 0.0, 0.0)">
    <use ffdec:characterId="26" ffdec:characterName="117_fla.Symbole75_1" height="56.0" id="back" transform="matrix(1.0, 0.0, 0.0, 1.0, 0.0, 0.0)" width="56.0" xlink:href="#sprite0"/>
    <use ffdec:characterId="28" height="55.55" id="back" transform="matrix(1.0, 0.0, 0.0, 1.0, 0.4, 0.45)" width="55.4" xlink:href="#sprite25"/>
    <use ffdec:characterId="30" height="54.0" id="up" transform="matrix(1.0, 0.0, 0.0, 1.0, 1.15, 1.2)" width="53.9" xlink:href="#sprite26"/>
  </g>
  <defs>
    <g id="sprite0" transform="matrix(1.0, 0.0, 0.0, 1.0, 0.0, 0.0)">
      <use ffdec:characterId="25" ffdec:characterName="117_fla.Symbole72_2" height="56.0" id="back" transform="matrix(1.0, 0.0, 0.0, 1.0, 0.0, 0.0)" width="56.0" xlink:href="#sprite1"/>
    </g>
    <g id="sprite1" transform="matrix(1.0, 0.0, 0.0, 1.0, 0.0, 0.0)">
      <use ffdec:characterId="24" ffdec:characterName="117_fla.Symbole69_3" height="56.0" id="back" transform="matrix(1.0, 0.0, 0.0, 1.0, 0.0, 0.0)" width="56.0" xlink:href="#sprite2"/>
    </g>
    <g id="sprite2" transform="matrix(1.0, 0.0, 0.0, 1.0, 0.0, 0.0)">
      <use ffdec:characterId="23" ffdec:characterName="117_fla.Symbole66_4" height="56.0" id="back" transform="matrix(1.0, 0.0, 0.0, 1.0, 0.0, 0.0)" width="56.0" xlink:href="#sprite3"/>
    </g>
    <g id="sprite3" transform="matrix(1.0, 0.0, 0.0, 1.0, 0.0, 0.0)">
      <use ffdec:characterId="22" ffdec:characterName="117_fla.Symbole63_5" height="56.0" id="back" transform="matrix(1.0, 0.0, 0.0, 1.0, 0.0, 0.0)" width="56.0" xlink:href="#sprite4"/>
    </g>
    <g id="sprite4" transform="matrix(1.0, 0.0, 0.0, 1.0, 0.0, 0.0)">
      <use ffdec:characterId="21" ffdec:characterName="117_fla.Symbole60_6" height="56.0" id="back" transform="matrix(1.0, 0.0, 0.0, 1.0, 0.0, 0.0)" width="56.0" xlink:href="#sprite5"/>
    </g>
    <g id="sprite5" transform="matrix(1.0, 0.0, 0.0, 1.0, 0.0, 0.0)">
      <use ffdec:characterId="20" ffdec:characterName="117_fla.Symbole57_7" height="56.0" id="back" transform="matrix(1.0, 0.0, 0.0, 1.0, 0.0, 0.0)" width="56.0" xlink:href="#sprite6"/>
    </g>
    <g id="sprite6" transform="matrix(1.0, 0.0, 0.0, 1.0, 0.0, 0.0)">
      <use ffdec:characterId="19" ffdec:characterName="117_fla.Symbole54_8" height="56.0" id="back" transform="matrix(1.0, 0.0, 0.0, 1.0, 0.0, 0.0)" width="56.0" xlink:href="#sprite7"/>
    </g>
    <g id="sprite7" transform="matrix(1.0, 0.0, 0.0, 1.0, 0.0, 0.0)">
      <use ffdec:characterId="18" ffdec:characterName="117_fla.Symbole51_9" height="56.0" id="back" transform="matrix(1.0, 0.0, 0.0, 1.0, 0.0, 0.0)" width="56.0" xlink:href="#sprite8"/>
    </g>
    <g id="sprite8" transform="matrix(1.0, 0.0, 0.0, 1.0, 0.0, 0.0)">
      <use ffdec:characterId="17" ffdec:characterName="117_fla.Symbole48_10" height="56.0" id="back" transform="matrix(1.0, 0.0, 0.0, 1.0, 0.0, 0.0)" width="56.0" xlink:href="#sprite9"/>
    </g>
    <g id="sprite9" transform="matrix(1.0, 0.0, 0.0, 1.0, 0.0, 0.0)">
      <use ffdec:characterId="16" ffdec:characterName="117_fla.Symbole45_11" height="56.0" id="back" transform="matrix(1.0, 0.0, 0.0, 1.0, 0.0, 0.0)" width="56.0" xlink:href="#sprite10"/>
    </g>
    <g id="sprite10" transform="matrix(1.0, 0.0, 0.0, 1.0, 0.0, 0.0)">
      <use ffdec:characterId="15" ffdec:characterName="117_fla.Symbole42_12" height="56.0" id="back" transform="matrix(1.0, 0.0, 0.0, 1.0, 0.0, 0.0)" width="56.0" xlink:href="#sprite11"/>
    </g>
    <g id="sprite11" transform="matrix(1.0, 0.0, 0.0, 1.0, 0.0, 0.0)">
      <use ffdec:characterId="14" ffdec:characterName="117_fla.Symbole39_13" height="56.0" id="back" transform="matrix(1.0, 0.0, 0.0, 1.0, 0.0, 0.0)" width="56.0" xlink:href="#sprite12"/>
    </g>
    <g id="sprite12" transform="matrix(1.0, 0.0, 0.0, 1.0, 0.0, 0.0)">
      <use ffdec:characterId="13" ffdec:characterName="117_fla.Symbole36_14" height="56.0" id="back" transform="matrix(1.0, 0.0, 0.0, 1.0, 0.0, 0.0)" width="56.0" xlink:href="#sprite13"/>
    </g>
    <g id="sprite13" transform="matrix(1.0, 0.0, 0.0, 1.0, 0.0, 0.0)">
      <use ffdec:characterId="12" ffdec:characterName="117_fla.Symbole33_15" height="56.0" id="back" transform="matrix(1.0, 0.0, 0.0, 1.0, 0.0, 0.0)" width="56.0" xlink:href="#sprite14"/>
    </g>
    <g id="sprite14" transform="matrix(1.0, 0.0, 0.0, 1.0, 0.0, 0.0)">
      <use ffdec:characterId="11" ffdec:characterName="117_fla.Symbole30_16" height="56.0" id="back" transform="matrix(1.0, 0.0, 0.0, 1.0, 0.0, 0.0)" width="56.0" xlink:href="#sprite15"/>
    </g>
    <g id="sprite15" transform="matrix(1.0, 0.0, 0.0, 1.0, 0.0, 0.0)">
      <use ffdec:characterId="10" ffdec:characterName="117_fla.Symbole27_17" height="56.0" id="back" transform="matrix(1.0, 0.0, 0.0, 1.0, 0.0, 0.0)" width="56.0" xlink:href="#sprite16"/>
    </g>
    <g id="sprite16" transform="matrix(1.0, 0.0, 0.0, 1.0, 0.0, 0.0)">
      <use ffdec:characterId="9" ffdec:characterName="117_fla.Symbole24_18" height="56.0" id="back" transform="matrix(1.0, 0.0, 0.0, 1.0, 0.0, 0.0)" width="56.0" xlink:href="#sprite17"/>
    </g>
    <g id="sprite17" transform="matrix(1.0, 0.0, 0.0, 1.0, 0.0, 0.0)">
      <use ffdec:characterId="8" ffdec:characterName="117_fla.Symbole21_19" height="56.0" id="back" transform="matrix(1.0, 0.0, 0.0, 1.0, 0.0, 0.0)" width="56.0" xlink:href="#sprite18"/>
    </g>
    <g id="sprite18" transform="matrix(1.0, 0.0, 0.0, 1.0, 0.0, 0.0)">
      <use ffdec:characterId="7" ffdec:characterName="117_fla.Symbole18_20" height="56.0" id="back" transform="matrix(1.0, 0.0, 0.0, 1.0, 0.0, 0.0)" width="56.0" xlink:href="#sprite19"/>
    </g>
    <g id="sprite19" transform="matrix(1.0, 0.0, 0.0, 1.0, 0.0, 0.0)">
      <use ffdec:characterId="6" ffdec:characterName="117_fla.Symbole15_21" height="56.0" id="back" transform="matrix(1.0, 0.0, 0.0, 1.0, 0.0, 0.0)" width="56.0" xlink:href="#sprite20"/>
    </g>
    <g id="sprite20" transform="matrix(1.0, 0.0, 0.0, 1.0, 0.0, 0.0)">
      <use ffdec:characterId="5" ffdec:characterName="117_fla.Symbole12_22" height="56.0" id="back" transform="matrix(1.0, 0.0, 0.0, 1.0, 0.0, 0.0)" width="56.0" xlink:href="#sprite21"/>
    </g>
    <g id="sprite21" transform="matrix(1.0, 0.0, 0.0, 1.0, 0.0, 0.0)">
      <use ffdec:characterId="4" ffdec:characterName="117_fla.Symbole9_23" height="56.0" id="back" transform="matrix(1.0, 0.0, 0.0, 1.0, 0.0, 0.0)" width="56.0" xlink:href="#sprite22"/>
    </g>
    <g id="sprite22" transform="matrix(1.0, 0.0, 0.0, 1.0, 0.0, 0.0)">
      <use ffdec:characterId="3" ffdec:characterName="117_fla.Symbole6_24" height="56.0" id="back" transform="matrix(1.0, 0.0, 0.0, 1.0, 0.0, 0.0)" width="56.0" xlink:href="#sprite23"/>
    </g>
    <g id="sprite23" transform="matrix(1.0, 0.0, 0.0, 1.0, 0.0, 0.0)">
      <use ffdec:characterId="2" height="56.0" id="back" transform="matrix(1.0, 0.0, 0.0, 1.0, 0.0, 0.0)" width="56.0" xlink:href="#sprite24"/>
    </g>
    <g id="sprite24" transform="matrix(1.0, 0.0, 0.0, 1.0, 0.0, 0.0)">
      <use ffdec:characterId="1" height="56.0" transform="matrix(1.0, 0.0, 0.0, 1.0, 0.0, 0.0)" width="56.0" xlink:href="#shape0"/>
    </g>
    <g id="shape0" transform="matrix(1.0, 0.0, 0.0, 1.0, 0.0, 0.0)">
      <path d="M56.0 56.0 L0.0 56.0 0.0 0.0 56.0 0.0 56.0 56.0" fill="#010101" fill-opacity="0.0" fill-rule="evenodd" stroke="none"/>
    </g>
    <g id="sprite25" transform="matrix(1.0, 0.0, 0.0, 1.0, 0.75, 0.75)">
      <use ffdec:characterId="27" height="55.55" transform="matrix(1.0, 0.0, 0.0, 1.0, -0.75, -0.75)" width="55.4" xlink:href="#shape1"/>
    </g>
    <g id="shape1" transform="matrix(1.0, 0.0, 0.0, 1.0, 0.75, 0.75)">
      <path d="M46.75 0.0 L7.2 0.0 Q0.0 0.0 0.0 7.2 L0.0 46.8 Q0.0 54.05 7.2 54.05 L46.75 54.05 Q53.9 54.05 53.9 46.8 L53.9 7.2 Q53.9 0.0 46.75 0.0 M41.1 16.0 Q39.15 13.5 36.1 13.25 33.05 13.05 30.8 15.2 28.5 17.5 28.45 20.85 28.2 24.45 30.2 26.9 32.0 29.55 35.05 29.85 38.05 30.0 40.35 27.75 42.65 25.7 42.8 22.1 43.0 18.7 41.1 16.0 M44.4 35.95 Q45.6 35.85 45.7 35.1 45.9 34.45 45.2 33.65 44.2 32.9 42.75 32.4 L40.05 32.1 Q38.75 32.3 38.55 32.9 38.4 33.65 39.25 34.35 40.3 35.25 41.75 35.7 L44.4 35.95 M51.55 45.5 Q51.55 51.7 45.35 51.7 L12.85 51.7 43.55 50.4 Q49.75 50.15 50.25 43.95 L51.55 28.65 51.55 45.5 M21.2 18.7 Q21.2 18.25 21.55 17.65 21.9 17.2 22.45 17.05 23.1 17.05 23.65 17.4 24.0 17.9 24.0 18.5 24.15 19.3 23.7 19.75 23.3 20.3 22.7 20.35 22.05 20.35 21.65 19.95 21.2 19.55 21.2 18.7 M25.4 20.85 Q25.65 24.45 23.65 26.9 21.8 29.55 18.75 29.85 15.8 30.0 13.4 27.75 11.2 25.7 11.0 22.1 10.9 18.7 12.75 16.0 14.75 13.5 17.7 13.25 20.75 13.05 23.05 15.2 25.3 17.5 25.4 20.85 M30.1 19.9 L31.05 20.55 Q31.7 20.55 32.1 20.1 32.6 19.75 32.6 18.9 L32.2 17.85 Q31.85 17.25 31.3 17.2 30.65 17.2 30.2 17.6 29.75 18.0 29.75 18.65 29.55 19.5 30.1 19.9 M8.65 2.85 L41.25 2.85 10.45 4.1 Q4.35 4.4 3.85 10.6 L2.55 25.95 2.55 8.95 Q2.55 2.85 8.65 2.85 M13.7 34.45 Q12.85 35.25 11.25 35.75 L8.65 36.0 Q7.45 35.95 7.25 35.15 7.1 34.55 7.95 33.7 8.8 33.0 10.4 32.45 L13.0 32.2 Q14.3 32.3 14.5 33.0 14.65 33.7 13.7 34.45 M30.35 43.5 Q28.9 46.55 26.7 46.55 24.6 46.55 23.05 43.5 21.55 40.55 21.55 36.25 L31.95 36.4 Q31.95 40.55 30.35 43.5 Z" fill="none" stroke="#000000" stroke-linecap="round" stroke-linejoin="round" stroke-opacity="0.2" stroke-width="1.5"/>
    </g>
    <g id="sprite26" transform="matrix(1.0, 0.0, 0.0, 1.0, 0.0, 0.0)">
      <use ffdec:characterId="29" height="54.0" transform="matrix(1.0, 0.0, 0.0, 1.0, 0.0, 0.0)" width="53.9" xlink:href="#shape2"/>
    </g>
    <g id="shape2" transform="matrix(1.0, 0.0, 0.0, 1.0, 0.0, 0.0)">
      <path d="M46.7 0.0 Q53.9 0.0 53.9 7.2 L53.9 46.8 Q53.9 54.0 46.7 54.0 L7.15 54.0 Q0.0 54.0 0.0 46.8 L0.0 7.2 Q0.0 0.0 7.15 0.0 L46.7 0.0 M41.05 16.05 Q39.1 13.5 36.1 13.25 33.05 13.1 30.75 15.2 28.5 17.5 28.4 20.85 28.15 24.45 30.2 26.9 32.0 29.55 35.0 29.85 38.05 30.05 40.3 27.75 42.6 25.7 42.75 22.1 42.95 18.75 41.05 16.05 M44.4 35.95 Q45.55 35.85 45.7 35.1 45.9 34.45 45.15 33.65 44.15 32.9 42.7 32.4 L40.0 32.1 Q38.7 32.3 38.55 32.9 38.35 33.65 39.25 34.35 40.25 35.25 41.7 35.7 L44.4 35.95 M51.5 45.5 L51.5 28.65 50.2 43.95 Q49.7 50.15 43.5 50.4 L12.8 51.75 45.3 51.75 Q51.5 51.75 51.5 45.5 M24.0 18.5 Q24.15 19.3 23.65 19.7 L22.7 20.35 Q22.05 20.35 21.6 19.95 21.2 19.55 21.15 18.75 21.15 18.25 21.55 17.65 21.85 17.2 22.45 17.0 23.1 17.0 23.6 17.4 24.0 17.9 24.0 18.5 M30.35 43.55 Q31.9 40.6 31.9 36.4 L21.55 36.25 Q21.55 40.5 23.0 43.55 24.55 46.55 26.7 46.55 28.9 46.55 30.35 43.55 M14.45 33.0 Q14.25 32.3 12.95 32.15 L10.35 32.5 Q8.8 33.0 7.9 33.7 7.1 34.55 7.25 35.2 7.4 35.95 8.65 36.0 L11.25 35.75 Q12.8 35.25 13.7 34.45 14.6 33.7 14.45 33.0 M8.65 2.85 Q2.5 2.85 2.5 9.0 L2.5 25.95 3.8 10.65 Q4.3 4.4 10.45 4.1 L41.2 2.85 8.65 2.85 M32.55 18.9 Q32.55 19.7 32.1 20.15 31.65 20.55 31.0 20.55 30.45 20.35 30.05 19.9 29.55 19.45 29.7 18.65 29.7 18.0 30.2 17.6 30.6 17.2 31.25 17.2 31.85 17.25 32.15 17.85 32.55 18.4 32.55 18.9 M25.4 20.85 Q25.3 17.5 23.0 15.2 20.7 13.1 17.7 13.25 14.7 13.5 12.7 16.05 10.85 18.75 11.0 22.1 11.15 25.7 13.35 27.75 15.75 30.05 18.75 29.85 21.8 29.55 23.6 26.9 25.6 24.45 25.4 20.85" fill="#000000" fill-rule="evenodd" stroke="none"/>
    </g>
  </defs>
</svg>
