<?xml version="1.0" encoding="UTF-8" standalone="no"?>
<svg xmlns:ffdec="https://www.free-decompiler.com/flash" xmlns:xlink="http://www.w3.org/1999/xlink" ffdec:objectType="frame" height="56.0px" width="56.0px" xmlns="http://www.w3.org/2000/svg">
  <g transform="matrix(1.0, 0.0, 0.0, 1.0, 0.0, 0.0)">
    <use ffdec:characterId="13" ffdec:characterName="12_fla.Symbole36_1" height="56.0" id="back" transform="matrix(1.0, 0.0, 0.0, 1.0, 0.0, 0.0)" width="56.0" xlink:href="#sprite0"/>
    <use ffdec:characterId="15" height="54.25" id="back" transform="matrix(1.0, 0.0, 0.0, 1.0, 0.4, 1.05)" width="55.4" xlink:href="#sprite12"/>
    <use ffdec:characterId="17" height="52.8" id="up" transform="matrix(1.0, 0.0, 0.0, 1.0, 1.15, 1.8)" width="53.9" xlink:href="#sprite13"/>
  </g>
  <defs>
    <g id="sprite0" transform="matrix(1.0, 0.0, 0.0, 1.0, 0.0, 0.0)">
      <use ffdec:characterId="12" ffdec:characterName="12_fla.Symbole33_2" height="56.0" id="back" transform="matrix(1.0, 0.0, 0.0, 1.0, 0.0, 0.0)" width="56.0" xlink:href="#sprite1"/>
    </g>
    <g id="sprite1" transform="matrix(1.0, 0.0, 0.0, 1.0, 0.0, 0.0)">
      <use ffdec:characterId="11" ffdec:characterName="12_fla.Symbole30_3" height="56.0" id="back" transform="matrix(1.0, 0.0, 0.0, 1.0, 0.0, 0.0)" width="56.0" xlink:href="#sprite2"/>
    </g>
    <g id="sprite2" transform="matrix(1.0, 0.0, 0.0, 1.0, 0.0, 0.0)">
      <use ffdec:characterId="10" ffdec:characterName="12_fla.Symbole27_4" height="56.0" id="back" transform="matrix(1.0, 0.0, 0.0, 1.0, 0.0, 0.0)" width="56.0" xlink:href="#sprite3"/>
    </g>
    <g id="sprite3" transform="matrix(1.0, 0.0, 0.0, 1.0, 0.0, 0.0)">
      <use ffdec:characterId="9" ffdec:characterName="12_fla.Symbole24_5" height="56.0" id="back" transform="matrix(1.0, 0.0, 0.0, 1.0, 0.0, 0.0)" width="56.0" xlink:href="#sprite4"/>
    </g>
    <g id="sprite4" transform="matrix(1.0, 0.0, 0.0, 1.0, 0.0, 0.0)">
      <use ffdec:characterId="8" ffdec:characterName="12_fla.Symbole21_6" height="56.0" id="back" transform="matrix(1.0, 0.0, 0.0, 1.0, 0.0, 0.0)" width="56.0" xlink:href="#sprite5"/>
    </g>
    <g id="sprite5" transform="matrix(1.0, 0.0, 0.0, 1.0, 0.0, 0.0)">
      <use ffdec:characterId="7" ffdec:characterName="12_fla.Symbole18_7" height="56.0" id="back" transform="matrix(1.0, 0.0, 0.0, 1.0, 0.0, 0.0)" width="56.0" xlink:href="#sprite6"/>
    </g>
    <g id="sprite6" transform="matrix(1.0, 0.0, 0.0, 1.0, 0.0, 0.0)">
      <use ffdec:characterId="6" ffdec:characterName="12_fla.Symbole15_8" height="56.0" id="back" transform="matrix(1.0, 0.0, 0.0, 1.0, 0.0, 0.0)" width="56.0" xlink:href="#sprite7"/>
    </g>
    <g id="sprite7" transform="matrix(1.0, 0.0, 0.0, 1.0, 0.0, 0.0)">
      <use ffdec:characterId="5" ffdec:characterName="12_fla.Symbole12_9" height="56.0" id="back" transform="matrix(1.0, 0.0, 0.0, 1.0, 0.0, 0.0)" width="56.0" xlink:href="#sprite8"/>
    </g>
    <g id="sprite8" transform="matrix(1.0, 0.0, 0.0, 1.0, 0.0, 0.0)">
      <use ffdec:characterId="4" ffdec:characterName="12_fla.Symbole9_10" height="56.0" id="back" transform="matrix(1.0, 0.0, 0.0, 1.0, 0.0, 0.0)" width="56.0" xlink:href="#sprite9"/>
    </g>
    <g id="sprite9" transform="matrix(1.0, 0.0, 0.0, 1.0, 0.0, 0.0)">
      <use ffdec:characterId="3" ffdec:characterName="12_fla.Symbole6_11" height="56.0" id="back" transform="matrix(1.0, 0.0, 0.0, 1.0, 0.0, 0.0)" width="56.0" xlink:href="#sprite10"/>
    </g>
    <g id="sprite10" transform="matrix(1.0, 0.0, 0.0, 1.0, 0.0, 0.0)">
      <use ffdec:characterId="2" height="56.0" id="back" transform="matrix(1.0, 0.0, 0.0, 1.0, 0.0, 0.0)" width="56.0" xlink:href="#sprite11"/>
    </g>
    <g id="sprite11" transform="matrix(1.0, 0.0, 0.0, 1.0, 0.0, 0.0)">
      <use ffdec:characterId="1" height="56.0" transform="matrix(1.0, 0.0, 0.0, 1.0, 0.0, 0.0)" width="56.0" xlink:href="#shape0"/>
    </g>
    <g id="shape0" transform="matrix(1.0, 0.0, 0.0, 1.0, 0.0, 0.0)">
      <path d="M56.0 56.0 L0.0 56.0 0.0 0.0 56.0 0.0 56.0 56.0" fill="#010101" fill-opacity="0.0" fill-rule="evenodd" stroke="none"/>
    </g>
    <g id="sprite12" transform="matrix(1.0, 0.0, 0.0, 1.0, 0.75, 0.75)">
      <use ffdec:characterId="14" height="54.25" transform="matrix(1.0, 0.0, 0.0, 1.0, -0.75, -0.75)" width="55.4" xlink:href="#shape1"/>
    </g>
    <g id="shape1" transform="matrix(1.0, 0.0, 0.0, 1.0, 0.75, 0.75)">
      <path d="M39.85 5.3 L36.85 5.55 Q27.6 4.45 27.1 13.7 29.35 13.7 32.15 14.75 34.05 15.45 36.6 15.4 39.25 15.25 41.15 14.1 43.25 12.65 43.7 10.45 44.15 7.6 42.2 3.95 40.75 5.0 39.85 5.3 M45.1 7.9 Q45.65 12.4 42.65 14.85 39.9 17.0 35.5 16.9 L37.25 18.95 Q41.0 16.75 44.65 17.65 48.3 18.5 50.2 22.15 51.35 24.7 52.1 25.4 52.8 26.1 53.7 26.1 52.35 23.9 51.95 21.45 51.1 17.45 46.95 16.15 49.6 13.95 48.5 11.15 48.05 10.0 47.0 9.15 46.1 8.15 45.1 7.9 M52.0 32.95 Q48.45 35.55 44.85 34.25 41.6 32.95 39.4 29.0 L38.6 31.65 Q42.25 33.8 43.35 37.3 44.4 41.0 42.2 44.45 40.55 46.65 40.35 47.7 40.05 48.7 40.55 49.45 41.75 47.2 43.7 45.45 46.75 42.85 45.85 38.6 48.95 39.95 50.9 37.45 51.7 36.45 52.0 35.15 52.2 33.85 52.0 32.95 M51.55 26.95 Q50.7 26.2 49.95 24.55 46.15 16.05 38.1 20.0 39.15 22.0 39.6 25.1 39.85 27.15 41.2 29.25 42.7 31.5 44.65 32.5 46.95 33.65 49.2 32.95 51.7 31.9 53.9 28.4 L51.55 26.95 M38.75 4.2 L40.15 3.05 Q37.45 3.15 35.1 2.3 31.3 0.9 28.05 3.95 27.6 0.45 24.6 0.05 L22.15 0.25 Q20.85 0.7 20.05 1.45 24.15 3.05 24.85 6.95 25.4 10.45 23.1 14.3 24.15 13.85 25.7 13.75 25.7 9.45 28.25 6.75 30.85 3.8 34.95 4.2 L38.75 4.2 M21.5 3.95 Q19.35 2.05 15.25 2.0 15.45 3.75 15.25 4.8 L13.95 7.25 Q8.4 14.85 16.0 19.95 17.2 17.95 19.6 16.05 21.15 14.75 22.4 12.55 23.55 10.05 23.45 7.9 23.3 5.3 21.5 3.95 M13.4 3.3 Q12.2 5.65 10.3 7.25 7.1 9.85 8.15 14.15 4.95 12.8 3.05 15.25 2.3 16.3 1.95 17.65 1.7 18.85 1.95 19.95 5.55 17.2 9.25 18.65 12.45 19.8 14.65 23.7 14.8 22.55 15.45 21.25 11.65 18.95 10.6 15.4 9.55 11.7 11.8 8.35 13.35 6.1 13.6 5.0 13.95 4.05 13.4 3.3 M4.9 19.95 Q2.3 20.8 0.0 24.5 1.7 24.95 2.55 25.8 3.25 26.5 4.05 28.15 7.8 36.7 16.0 32.7 14.8 30.75 14.4 27.7 14.05 25.55 12.75 23.45 11.2 21.25 9.3 20.25 7.05 19.1 4.9 19.95 M2.15 31.4 Q2.85 35.3 7.05 36.7 4.3 38.75 5.4 41.65 5.8 42.7 6.95 43.75 7.8 44.6 8.85 44.9 8.35 40.5 11.35 37.95 14.05 35.75 18.5 35.8 L16.75 33.85 Q12.95 35.95 9.3 35.15 5.55 34.25 3.85 30.55 2.6 28.0 1.9 27.3 1.25 26.5 0.4 26.65 1.7 28.85 2.15 31.4 M12.9 38.75 Q10.75 40.05 10.3 42.45 9.85 45.1 11.8 48.8 13.1 47.7 14.25 47.4 L17.05 47.25 Q26.25 48.25 26.9 39.2 24.6 39.05 21.8 37.95 19.9 37.25 17.4 37.3 14.7 37.45 12.9 38.75 M31.6 40.1 Q30.4 42.55 30.55 44.8 30.65 47.25 32.5 48.95 34.5 50.7 38.75 50.75 38.55 49.0 38.75 48.1 39.0 46.8 40.05 45.45 45.45 37.9 37.95 32.8 36.8 34.85 34.45 36.7 32.75 37.9 31.6 40.1 M28.25 39.05 Q28.2 43.4 25.7 46.1 23.1 48.95 19.0 48.55 L15.25 48.7 Q14.25 48.95 13.8 49.65 16.4 49.55 18.9 50.55 22.55 51.8 25.9 48.95 26.25 52.25 29.35 52.65 L31.9 52.45 Q33.15 52.05 33.9 51.35 29.8 49.65 29.1 45.75 28.65 42.3 31.0 38.55 L28.25 39.05 Z" fill="none" stroke="#000000" stroke-linecap="round" stroke-linejoin="round" stroke-opacity="0.2" stroke-width="1.5"/>
    </g>
    <g id="sprite13" transform="matrix(1.0, 0.0, 0.0, 1.0, 0.0, 0.0)">
      <use ffdec:characterId="16" height="52.8" transform="matrix(1.0, 0.0, 0.0, 1.0, 0.0, 0.0)" width="53.9" xlink:href="#shape2"/>
    </g>
    <g id="shape2" transform="matrix(1.0, 0.0, 0.0, 1.0, 0.0, 0.0)">
      <path d="M31.6 40.15 Q32.75 37.95 34.4 36.7 36.8 34.9 37.95 32.8 45.4 37.95 40.0 45.5 38.95 46.85 38.75 48.1 38.5 49.05 38.75 50.75 34.5 50.7 32.45 48.95 30.6 47.3 30.55 44.85 30.4 42.55 31.6 40.15 M28.25 39.1 L30.95 38.6 Q28.6 42.35 29.1 45.8 29.75 49.7 33.85 51.4 33.1 52.05 31.9 52.5 L29.3 52.7 Q26.2 52.3 25.85 48.95 22.55 51.85 18.9 50.55 16.35 49.6 13.8 49.7 14.2 48.95 15.2 48.75 L18.95 48.6 Q23.05 48.95 25.65 46.15 28.15 43.4 28.25 39.1 M17.0 47.3 L14.2 47.45 Q13.05 47.75 11.75 48.8 9.85 45.15 10.25 42.45 10.7 40.1 12.85 38.8 14.65 37.5 17.4 37.35 19.8 37.3 21.75 38.0 24.55 39.1 26.85 39.25 26.2 48.3 17.0 47.3 M2.15 31.45 Q1.65 28.85 0.35 26.7 1.2 26.55 1.85 27.35 2.6 28.05 3.8 30.55 5.5 34.25 9.25 35.2 12.9 36.0 16.75 33.9 L18.45 35.85 Q14.0 35.75 11.35 38.0 8.35 40.5 8.85 44.9 7.75 44.65 6.9 43.75 5.8 42.75 5.4 41.7 4.25 38.8 7.05 36.7 2.8 35.35 2.15 31.45 M4.9 20.0 Q7.05 19.1 9.25 20.25 11.2 21.25 12.7 23.5 14.0 25.6 14.35 27.75 14.8 30.8 15.95 32.75 7.75 36.7 4.0 28.2 3.2 26.55 2.5 25.8 1.65 25.0 0.0 24.5 2.3 20.85 4.9 20.0 M13.35 3.3 Q13.95 4.05 13.55 5.05 13.3 6.15 11.75 8.35 9.5 11.75 10.55 15.45 11.65 18.95 15.45 21.25 14.8 22.55 14.6 23.7 12.4 19.85 9.2 18.7 5.5 17.25 1.95 20.0 1.65 18.9 1.95 17.65 2.3 16.3 3.0 15.3 4.95 12.85 8.1 14.2 7.1 9.9 10.25 7.3 12.2 5.7 13.35 3.3 M21.5 3.95 Q23.25 5.35 23.4 7.95 23.5 10.1 22.35 12.6 21.1 14.8 19.55 16.1 17.15 18.05 15.95 20.0 8.4 14.85 13.95 7.3 L15.2 4.85 Q15.45 3.75 15.2 2.0 19.3 2.1 21.5 3.95 M38.75 4.2 Q37.65 4.4 34.9 4.2 30.8 3.8 28.25 6.8 25.65 9.45 25.65 13.75 24.15 13.9 23.05 14.35 25.35 10.45 24.8 7.0 24.15 3.1 20.05 1.45 20.85 0.7 22.1 0.3 L24.55 0.05 Q27.6 0.5 28.0 3.95 31.25 0.95 35.05 2.3 37.45 3.2 40.1 3.1 39.65 3.8 38.75 4.2 M51.95 32.95 Q52.15 33.9 51.95 35.2 51.65 36.5 50.85 37.5 48.95 39.95 45.85 38.65 46.7 42.9 43.7 45.5 41.75 47.25 40.5 49.45 40.0 48.75 40.3 47.75 40.5 46.65 42.2 44.5 44.4 41.05 43.3 37.35 42.25 33.8 38.6 31.65 L39.35 29.05 Q41.55 32.95 44.85 34.25 48.45 35.55 51.95 32.95 M49.95 24.6 Q50.65 26.25 51.5 26.95 52.3 27.75 53.9 28.4 51.65 31.95 49.15 32.95 46.9 33.65 44.6 32.5 42.7 31.5 41.15 29.3 39.8 27.2 39.6 25.15 39.15 22.0 38.1 20.05 46.15 16.1 49.95 24.6 M45.05 7.95 Q46.05 8.15 47.0 9.15 48.0 10.05 48.5 11.2 49.6 14.0 46.9 16.15 51.1 17.45 51.9 21.5 52.3 23.95 53.65 26.1 52.75 26.1 52.1 25.45 51.3 24.75 50.15 22.2 48.3 18.55 44.6 17.65 40.95 16.8 37.2 18.95 36.35 17.65 35.5 16.95 39.9 17.0 42.6 14.85 45.6 12.4 45.05 7.95 M42.2 3.95 Q44.1 7.65 43.7 10.45 43.25 12.7 41.1 14.15 39.25 15.3 36.55 15.45 34.05 15.5 32.1 14.8 29.3 13.7 27.1 13.7 27.6 4.45 36.85 5.55 L39.8 5.35 Q40.75 5.05 42.2 3.95" fill="#000000" fill-rule="evenodd" stroke="none"/>
    </g>
  </defs>
</svg>
