<?xml version="1.0" encoding="UTF-8" standalone="no"?>
<svg xmlns:ffdec="https://www.free-decompiler.com/flash" xmlns:xlink="http://www.w3.org/1999/xlink" ffdec:objectType="frame" height="56.0px" width="56.0px" xmlns="http://www.w3.org/2000/svg">
  <g transform="matrix(1.0, 0.0, 0.0, 1.0, 0.0, 0.0)">
    <use ffdec:characterId="31" ffdec:characterName="122_fla.Symbole90_1" height="56.0" id="back" transform="matrix(1.0, 0.0, 0.0, 1.0, 0.0, 0.0)" width="56.0" xlink:href="#sprite0"/>
    <use ffdec:characterId="33" height="51.0" id="back" transform="matrix(1.0, 0.0, 0.0, 1.0, 0.4, 2.2)" width="55.4" xlink:href="#sprite30"/>
    <use ffdec:characterId="35" height="49.5" id="up" transform="matrix(1.0, 0.0, 0.0, 1.0, 1.15, 2.9)" width="53.9" xlink:href="#sprite31"/>
  </g>
  <defs>
    <g id="sprite0" transform="matrix(1.0, 0.0, 0.0, 1.0, 0.0, 0.0)">
      <use ffdec:characterId="30" ffdec:characterName="122_fla.Symbole87_2" height="56.0" id="back" transform="matrix(1.0, 0.0, 0.0, 1.0, 0.0, 0.0)" width="56.0" xlink:href="#sprite1"/>
    </g>
    <g id="sprite1" transform="matrix(1.0, 0.0, 0.0, 1.0, 0.0, 0.0)">
      <use ffdec:characterId="29" ffdec:characterName="122_fla.Symbole84_3" height="56.0" id="back" transform="matrix(1.0, 0.0, 0.0, 1.0, 0.0, 0.0)" width="56.0" xlink:href="#sprite2"/>
    </g>
    <g id="sprite2" transform="matrix(1.0, 0.0, 0.0, 1.0, 0.0, 0.0)">
      <use ffdec:characterId="28" ffdec:characterName="122_fla.Symbole81_4" height="56.0" id="back" transform="matrix(1.0, 0.0, 0.0, 1.0, 0.0, 0.0)" width="56.0" xlink:href="#sprite3"/>
    </g>
    <g id="sprite3" transform="matrix(1.0, 0.0, 0.0, 1.0, 0.0, 0.0)">
      <use ffdec:characterId="27" ffdec:characterName="122_fla.Symbole78_5" height="56.0" id="back" transform="matrix(1.0, 0.0, 0.0, 1.0, 0.0, 0.0)" width="56.0" xlink:href="#sprite4"/>
    </g>
    <g id="sprite4" transform="matrix(1.0, 0.0, 0.0, 1.0, 0.0, 0.0)">
      <use ffdec:characterId="26" ffdec:characterName="122_fla.Symbole75_6" height="56.0" id="back" transform="matrix(1.0, 0.0, 0.0, 1.0, 0.0, 0.0)" width="56.0" xlink:href="#sprite5"/>
    </g>
    <g id="sprite5" transform="matrix(1.0, 0.0, 0.0, 1.0, 0.0, 0.0)">
      <use ffdec:characterId="25" ffdec:characterName="122_fla.Symbole72_7" height="56.0" id="back" transform="matrix(1.0, 0.0, 0.0, 1.0, 0.0, 0.0)" width="56.0" xlink:href="#sprite6"/>
    </g>
    <g id="sprite6" transform="matrix(1.0, 0.0, 0.0, 1.0, 0.0, 0.0)">
      <use ffdec:characterId="24" ffdec:characterName="122_fla.Symbole69_8" height="56.0" id="back" transform="matrix(1.0, 0.0, 0.0, 1.0, 0.0, 0.0)" width="56.0" xlink:href="#sprite7"/>
    </g>
    <g id="sprite7" transform="matrix(1.0, 0.0, 0.0, 1.0, 0.0, 0.0)">
      <use ffdec:characterId="23" ffdec:characterName="122_fla.Symbole66_9" height="56.0" id="back" transform="matrix(1.0, 0.0, 0.0, 1.0, 0.0, 0.0)" width="56.0" xlink:href="#sprite8"/>
    </g>
    <g id="sprite8" transform="matrix(1.0, 0.0, 0.0, 1.0, 0.0, 0.0)">
      <use ffdec:characterId="22" ffdec:characterName="122_fla.Symbole63_10" height="56.0" id="back" transform="matrix(1.0, 0.0, 0.0, 1.0, 0.0, 0.0)" width="56.0" xlink:href="#sprite9"/>
    </g>
    <g id="sprite9" transform="matrix(1.0, 0.0, 0.0, 1.0, 0.0, 0.0)">
      <use ffdec:characterId="21" ffdec:characterName="122_fla.Symbole60_11" height="56.0" id="back" transform="matrix(1.0, 0.0, 0.0, 1.0, 0.0, 0.0)" width="56.0" xlink:href="#sprite10"/>
    </g>
    <g id="sprite10" transform="matrix(1.0, 0.0, 0.0, 1.0, 0.0, 0.0)">
      <use ffdec:characterId="20" ffdec:characterName="122_fla.Symbole57_12" height="56.0" id="back" transform="matrix(1.0, 0.0, 0.0, 1.0, 0.0, 0.0)" width="56.0" xlink:href="#sprite11"/>
    </g>
    <g id="sprite11" transform="matrix(1.0, 0.0, 0.0, 1.0, 0.0, 0.0)">
      <use ffdec:characterId="19" ffdec:characterName="122_fla.Symbole54_13" height="56.0" id="back" transform="matrix(1.0, 0.0, 0.0, 1.0, 0.0, 0.0)" width="56.0" xlink:href="#sprite12"/>
    </g>
    <g id="sprite12" transform="matrix(1.0, 0.0, 0.0, 1.0, 0.0, 0.0)">
      <use ffdec:characterId="18" ffdec:characterName="122_fla.Symbole51_14" height="56.0" id="back" transform="matrix(1.0, 0.0, 0.0, 1.0, 0.0, 0.0)" width="56.0" xlink:href="#sprite13"/>
    </g>
    <g id="sprite13" transform="matrix(1.0, 0.0, 0.0, 1.0, 0.0, 0.0)">
      <use ffdec:characterId="17" ffdec:characterName="122_fla.Symbole48_15" height="56.0" id="back" transform="matrix(1.0, 0.0, 0.0, 1.0, 0.0, 0.0)" width="56.0" xlink:href="#sprite14"/>
    </g>
    <g id="sprite14" transform="matrix(1.0, 0.0, 0.0, 1.0, 0.0, 0.0)">
      <use ffdec:characterId="16" ffdec:characterName="122_fla.Symbole45_16" height="56.0" id="back" transform="matrix(1.0, 0.0, 0.0, 1.0, 0.0, 0.0)" width="56.0" xlink:href="#sprite15"/>
    </g>
    <g id="sprite15" transform="matrix(1.0, 0.0, 0.0, 1.0, 0.0, 0.0)">
      <use ffdec:characterId="15" ffdec:characterName="122_fla.Symbole42_17" height="56.0" id="back" transform="matrix(1.0, 0.0, 0.0, 1.0, 0.0, 0.0)" width="56.0" xlink:href="#sprite16"/>
    </g>
    <g id="sprite16" transform="matrix(1.0, 0.0, 0.0, 1.0, 0.0, 0.0)">
      <use ffdec:characterId="14" ffdec:characterName="122_fla.Symbole39_18" height="56.0" id="back" transform="matrix(1.0, 0.0, 0.0, 1.0, 0.0, 0.0)" width="56.0" xlink:href="#sprite17"/>
    </g>
    <g id="sprite17" transform="matrix(1.0, 0.0, 0.0, 1.0, 0.0, 0.0)">
      <use ffdec:characterId="13" ffdec:characterName="122_fla.Symbole36_19" height="56.0" id="back" transform="matrix(1.0, 0.0, 0.0, 1.0, 0.0, 0.0)" width="56.0" xlink:href="#sprite18"/>
    </g>
    <g id="sprite18" transform="matrix(1.0, 0.0, 0.0, 1.0, 0.0, 0.0)">
      <use ffdec:characterId="12" ffdec:characterName="122_fla.Symbole33_20" height="56.0" id="back" transform="matrix(1.0, 0.0, 0.0, 1.0, 0.0, 0.0)" width="56.0" xlink:href="#sprite19"/>
    </g>
    <g id="sprite19" transform="matrix(1.0, 0.0, 0.0, 1.0, 0.0, 0.0)">
      <use ffdec:characterId="11" ffdec:characterName="122_fla.Symbole30_21" height="56.0" id="back" transform="matrix(1.0, 0.0, 0.0, 1.0, 0.0, 0.0)" width="56.0" xlink:href="#sprite20"/>
    </g>
    <g id="sprite20" transform="matrix(1.0, 0.0, 0.0, 1.0, 0.0, 0.0)">
      <use ffdec:characterId="10" ffdec:characterName="122_fla.Symbole27_22" height="56.0" id="back" transform="matrix(1.0, 0.0, 0.0, 1.0, 0.0, 0.0)" width="56.0" xlink:href="#sprite21"/>
    </g>
    <g id="sprite21" transform="matrix(1.0, 0.0, 0.0, 1.0, 0.0, 0.0)">
      <use ffdec:characterId="9" ffdec:characterName="122_fla.Symbole24_23" height="56.0" id="back" transform="matrix(1.0, 0.0, 0.0, 1.0, 0.0, 0.0)" width="56.0" xlink:href="#sprite22"/>
    </g>
    <g id="sprite22" transform="matrix(1.0, 0.0, 0.0, 1.0, 0.0, 0.0)">
      <use ffdec:characterId="8" ffdec:characterName="122_fla.Symbole21_24" height="56.0" id="back" transform="matrix(1.0, 0.0, 0.0, 1.0, 0.0, 0.0)" width="56.0" xlink:href="#sprite23"/>
    </g>
    <g id="sprite23" transform="matrix(1.0, 0.0, 0.0, 1.0, 0.0, 0.0)">
      <use ffdec:characterId="7" ffdec:characterName="122_fla.Symbole18_25" height="56.0" id="back" transform="matrix(1.0, 0.0, 0.0, 1.0, 0.0, 0.0)" width="56.0" xlink:href="#sprite24"/>
    </g>
    <g id="sprite24" transform="matrix(1.0, 0.0, 0.0, 1.0, 0.0, 0.0)">
      <use ffdec:characterId="6" ffdec:characterName="122_fla.Symbole15_26" height="56.0" id="back" transform="matrix(1.0, 0.0, 0.0, 1.0, 0.0, 0.0)" width="56.0" xlink:href="#sprite25"/>
    </g>
    <g id="sprite25" transform="matrix(1.0, 0.0, 0.0, 1.0, 0.0, 0.0)">
      <use ffdec:characterId="5" ffdec:characterName="122_fla.Symbole12_27" height="56.0" id="back" transform="matrix(1.0, 0.0, 0.0, 1.0, 0.0, 0.0)" width="56.0" xlink:href="#sprite26"/>
    </g>
    <g id="sprite26" transform="matrix(1.0, 0.0, 0.0, 1.0, 0.0, 0.0)">
      <use ffdec:characterId="4" ffdec:characterName="122_fla.Symbole9_28" height="56.0" id="back" transform="matrix(1.0, 0.0, 0.0, 1.0, 0.0, 0.0)" width="56.0" xlink:href="#sprite27"/>
    </g>
    <g id="sprite27" transform="matrix(1.0, 0.0, 0.0, 1.0, 0.0, 0.0)">
      <use ffdec:characterId="3" ffdec:characterName="122_fla.Symbole6_29" height="56.0" id="back" transform="matrix(1.0, 0.0, 0.0, 1.0, 0.0, 0.0)" width="56.0" xlink:href="#sprite28"/>
    </g>
    <g id="sprite28" transform="matrix(1.0, 0.0, 0.0, 1.0, 0.0, 0.0)">
      <use ffdec:characterId="2" height="56.0" id="back" transform="matrix(1.0, 0.0, 0.0, 1.0, 0.0, 0.0)" width="56.0" xlink:href="#sprite29"/>
    </g>
    <g id="sprite29" transform="matrix(1.0, 0.0, 0.0, 1.0, 0.0, 0.0)">
      <use ffdec:characterId="1" height="56.0" transform="matrix(1.0, 0.0, 0.0, 1.0, 0.0, 0.0)" width="56.0" xlink:href="#shape0"/>
    </g>
    <g id="shape0" transform="matrix(1.0, 0.0, 0.0, 1.0, 0.0, 0.0)">
      <path d="M56.0 56.0 L0.0 56.0 0.0 0.0 56.0 0.0 56.0 56.0" fill="#010101" fill-opacity="0.0" fill-rule="evenodd" stroke="none"/>
    </g>
    <g id="sprite30" transform="matrix(1.0, 0.0, 0.0, 1.0, 0.75, 0.75)">
      <use ffdec:characterId="32" height="51.0" transform="matrix(1.0, 0.0, 0.0, 1.0, -0.75, -0.75)" width="55.4" xlink:href="#shape1"/>
    </g>
    <g id="shape1" transform="matrix(1.0, 0.0, 0.0, 1.0, 0.75, 0.75)">
      <path d="M50.55 1.9 L50.4 0.0 48.15 1.8 Q44.9 4.05 41.3 3.6 L36.9 2.75 36.05 2.6 35.15 2.7 31.8 3.25 Q26.05 4.95 21.7 10.0 23.5 10.8 25.05 11.95 L26.95 10.15 Q30.15 8.15 33.8 8.15 L35.9 8.35 37.9 8.55 41.0 9.0 48.85 8.75 Q50.3 8.25 50.75 7.55 L50.55 3.35 Q49.7 4.05 48.5 4.6 46.4 5.65 44.15 5.45 46.4 5.2 48.5 3.75 L50.55 2.05 50.55 1.9 M41.35 23.3 L43.8 23.7 47.85 24.1 Q51.85 24.3 53.9 21.7 L52.85 27.9 Q50.4 29.05 46.9 27.5 L47.0 27.7 Q45.35 26.9 44.05 25.9 L41.35 23.3 M22.4 16.85 Q23.25 17.6 23.25 18.6 23.25 19.6 22.4 20.5 21.7 21.25 20.65 21.25 19.6 21.25 18.85 20.5 18.0 19.6 18.0 18.6 18.0 17.6 18.85 16.85 19.6 16.0 20.65 16.0 21.7 16.0 22.4 16.85 M24.25 19.55 Q24.25 21.35 23.05 22.75 L25.5 25.0 21.65 28.1 20.3 24.8 Q18.2 25.65 15.55 25.65 13.15 25.65 11.1 24.9 L9.75 27.9 5.85 24.8 8.15 22.75 7.9 22.5 Q6.8 21.25 6.8 19.55 6.8 17.1 9.35 15.25 11.95 13.5 15.55 13.5 19.2 13.5 21.7 15.25 24.25 17.1 24.25 19.55 M32.0 21.5 L32.0 22.05 32.1 25.55 Q32.75 24.8 34.1 24.2 36.95 22.75 41.3 23.3 38.85 19.95 34.1 18.9 L30.55 18.55 32.0 21.5 M13.4 18.6 Q13.4 19.6 12.6 20.5 11.95 21.25 10.85 21.25 9.75 21.25 9.0 20.5 8.25 19.6 8.25 18.6 8.25 17.6 9.0 16.85 9.75 16.0 10.85 16.0 11.95 16.0 12.6 16.85 13.4 17.6 13.4 18.6 M9.6 33.4 Q11.15 37.05 13.95 40.3 L14.95 41.6 15.75 43.0 16.5 41.6 Q17.0 40.65 17.5 40.3 20.3 37.05 21.9 33.4 L22.15 32.55 21.65 35.0 Q20.55 38.65 18.2 40.95 19.9 39.85 21.35 39.3 L19.6 40.6 Q17.35 42.35 17.1 43.8 16.9 44.7 18.9 44.0 L19.55 43.7 27.45 38.3 26.5 39.85 Q27.3 40.4 27.3 41.45 27.4 42.7 26.2 44.0 25.05 45.25 23.25 45.8 21.45 46.35 20.3 45.8 L19.6 45.5 17.25 45.4 16.65 44.9 16.55 44.8 Q16.2 44.35 15.85 44.35 15.3 44.3 14.85 44.8 L14.8 44.9 14.2 45.4 11.85 45.5 11.15 45.8 Q10.0 46.35 8.25 45.8 6.45 45.25 5.3 44.0 4.1 42.7 4.2 41.45 4.2 40.4 4.85 39.85 L4.0 38.3 11.95 43.7 12.5 44.0 Q14.55 44.7 14.4 43.8 14.15 42.35 11.85 40.6 L10.1 39.3 Q11.6 39.85 13.3 40.95 10.9 38.65 9.8 35.0 L9.25 32.55 9.6 33.4 M0.05 22.85 Q-0.2 29.8 0.7 36.95 L0.95 39.25 1.6 40.6 2.6 42.45 Q1.4 41.6 0.25 39.05 0.25 41.35 2.05 43.8 4.5 46.95 9.5 48.4 L13.6 49.2 15.4 49.4 15.65 49.5 15.9 49.4 Q25.4 48.5 29.1 43.8 31.1 41.35 30.9 39.05 L30.65 39.85 Q29.65 41.75 28.65 42.45 L29.65 40.6 30.15 39.25 30.45 36.95 Q31.45 29.8 31.15 22.85 L31.15 22.35 Q26.7 11.35 15.65 9.1 4.6 11.35 0.05 22.35 L0.05 22.85 Z" fill="none" stroke="#000000" stroke-linecap="round" stroke-linejoin="round" stroke-opacity="0.2" stroke-width="1.5"/>
    </g>
    <g id="sprite31" transform="matrix(1.0, 0.0, 0.0, 1.0, 0.0, 0.0)">
      <use ffdec:characterId="34" height="49.5" transform="matrix(1.0, 0.0, 0.0, 1.0, 0.0, 0.0)" width="53.9" xlink:href="#shape2"/>
    </g>
    <g id="shape2" transform="matrix(1.0, 0.0, 0.0, 1.0, 0.0, 0.0)">
      <path d="M50.55 1.95 L50.55 2.1 48.5 3.8 Q46.4 5.25 44.15 5.5 46.4 5.65 48.5 4.65 L50.55 3.35 50.7 7.6 Q50.3 8.25 48.85 8.8 L41.0 9.05 37.9 8.6 35.9 8.35 33.75 8.2 Q30.15 8.2 26.95 10.2 L25.0 12.0 Q23.5 10.8 21.7 10.05 26.0 4.95 31.85 3.3 L35.1 2.7 36.05 2.6 36.9 2.8 41.25 3.6 Q44.9 4.05 48.2 1.85 L50.4 0.0 50.55 1.95 M41.35 23.3 L43.8 23.75 47.85 24.15 Q51.8 24.3 53.9 21.7 L52.8 27.95 Q50.4 29.05 46.9 27.55 L47.0 27.7 Q45.3 26.95 44.05 25.9 L41.35 23.3 M24.25 19.6 Q24.25 17.15 21.7 15.3 19.2 13.5 15.55 13.5 11.95 13.5 9.35 15.3 6.8 17.15 6.8 19.6 6.8 21.3 7.9 22.55 L8.15 22.8 5.85 24.85 9.75 27.95 11.1 24.9 Q13.1 25.65 15.55 25.65 18.2 25.65 20.3 24.85 L21.65 28.1 25.5 25.0 23.05 22.8 Q24.25 21.35 24.25 19.6 M22.4 16.9 Q23.25 17.65 23.25 18.65 23.25 19.65 22.4 20.5 21.7 21.3 20.6 21.3 19.6 21.3 18.85 20.5 18.0 19.65 18.0 18.65 18.0 17.65 18.85 16.9 19.6 16.05 20.6 16.05 21.7 16.05 22.4 16.9 M32.0 21.55 L30.55 18.55 34.1 18.9 Q38.85 20.0 41.25 23.3 36.95 22.8 34.1 24.25 32.75 24.85 32.1 25.6 L32.0 22.05 32.0 21.55 M9.0 20.5 Q8.25 19.65 8.25 18.65 8.25 17.65 9.0 16.9 9.75 16.05 10.85 16.05 11.95 16.05 12.6 16.9 13.35 17.65 13.35 18.65 13.35 19.65 12.6 20.5 11.95 21.3 10.85 21.3 9.75 21.3 9.0 20.5 M0.05 22.9 L0.05 22.4 Q4.6 11.4 15.65 9.1 26.7 11.4 31.15 22.4 L31.15 22.9 Q31.5 29.8 30.5 37.0 L30.15 39.25 29.65 40.6 28.65 42.5 Q29.65 41.8 30.65 39.85 L30.9 39.1 Q31.05 41.4 29.15 43.85 25.45 48.55 15.9 49.4 L15.65 49.5 15.4 49.4 13.6 49.25 9.5 48.4 Q4.5 46.95 2.1 43.85 0.2 41.4 0.2 39.1 1.4 41.65 2.6 42.5 L1.55 40.6 1.0 39.25 0.75 37.0 Q-0.2 29.8 0.05 22.9 M9.6 33.45 L9.25 32.6 9.85 35.05 Q10.95 38.7 13.3 40.95 11.6 39.85 10.1 39.35 L11.85 40.6 Q14.15 42.4 14.4 43.85 14.55 44.75 12.55 44.0 L11.95 43.75 4.0 38.35 4.85 39.85 Q4.2 40.45 4.2 41.45 4.1 42.75 5.3 44.0 6.45 45.25 8.25 45.85 10.0 46.35 11.2 45.85 L11.85 45.5 14.2 45.45 14.8 44.95 14.9 44.85 Q15.3 44.35 15.8 44.4 16.25 44.4 16.6 44.85 L16.65 44.95 17.25 45.45 19.6 45.5 20.3 45.85 Q21.45 46.35 23.25 45.85 25.0 45.25 26.2 44.0 27.35 42.75 27.3 41.45 27.3 40.45 26.5 39.85 L27.45 38.35 19.55 43.75 18.95 44.0 Q16.9 44.75 17.1 43.85 17.35 42.4 19.6 40.6 L21.4 39.35 Q19.85 39.85 18.2 40.95 20.55 38.7 21.65 35.05 L22.15 32.6 21.9 33.45 Q20.3 37.05 17.5 40.35 17.0 40.7 16.5 41.65 L15.75 43.05 14.95 41.65 13.95 40.35 Q11.2 37.05 9.6 33.45" fill="#000000" fill-rule="evenodd" stroke="none"/>
    </g>
  </defs>
</svg>
