<?xml version="1.0" encoding="UTF-8" standalone="no"?>
<svg xmlns:ffdec="https://www.free-decompiler.com/flash" xmlns:xlink="http://www.w3.org/1999/xlink" ffdec:objectType="frame" height="56.0px" width="56.0px" xmlns="http://www.w3.org/2000/svg">
  <g transform="matrix(1.0, 0.0, 0.0, 1.0, 0.0, 0.0)">
    <use ffdec:characterId="32" ffdec:characterName="123_fla.Symbole93_1" height="56.0" id="back" transform="matrix(1.0, 0.0, 0.0, 1.0, 0.0, 0.0)" width="56.0" xlink:href="#sprite0"/>
    <use ffdec:characterId="34" height="55.55" id="back" transform="matrix(1.0, 0.0, 0.0, 1.0, 2.3, 0.45)" width="51.6" xlink:href="#sprite31"/>
    <use ffdec:characterId="36" height="54.05" id="up" transform="matrix(1.0, 0.0, 0.0, 1.0, 3.05, 1.2)" width="50.15" xlink:href="#sprite32"/>
  </g>
  <defs>
    <g id="sprite0" transform="matrix(1.0, 0.0, 0.0, 1.0, 0.0, 0.0)">
      <use ffdec:characterId="31" ffdec:characterName="123_fla.Symbole90_2" height="56.0" id="back" transform="matrix(1.0, 0.0, 0.0, 1.0, 0.0, 0.0)" width="56.0" xlink:href="#sprite1"/>
    </g>
    <g id="sprite1" transform="matrix(1.0, 0.0, 0.0, 1.0, 0.0, 0.0)">
      <use ffdec:characterId="30" ffdec:characterName="123_fla.Symbole87_3" height="56.0" id="back" transform="matrix(1.0, 0.0, 0.0, 1.0, 0.0, 0.0)" width="56.0" xlink:href="#sprite2"/>
    </g>
    <g id="sprite2" transform="matrix(1.0, 0.0, 0.0, 1.0, 0.0, 0.0)">
      <use ffdec:characterId="29" ffdec:characterName="123_fla.Symbole84_4" height="56.0" id="back" transform="matrix(1.0, 0.0, 0.0, 1.0, 0.0, 0.0)" width="56.0" xlink:href="#sprite3"/>
    </g>
    <g id="sprite3" transform="matrix(1.0, 0.0, 0.0, 1.0, 0.0, 0.0)">
      <use ffdec:characterId="28" ffdec:characterName="123_fla.Symbole81_5" height="56.0" id="back" transform="matrix(1.0, 0.0, 0.0, 1.0, 0.0, 0.0)" width="56.0" xlink:href="#sprite4"/>
    </g>
    <g id="sprite4" transform="matrix(1.0, 0.0, 0.0, 1.0, 0.0, 0.0)">
      <use ffdec:characterId="27" ffdec:characterName="123_fla.Symbole78_6" height="56.0" id="back" transform="matrix(1.0, 0.0, 0.0, 1.0, 0.0, 0.0)" width="56.0" xlink:href="#sprite5"/>
    </g>
    <g id="sprite5" transform="matrix(1.0, 0.0, 0.0, 1.0, 0.0, 0.0)">
      <use ffdec:characterId="26" ffdec:characterName="123_fla.Symbole75_7" height="56.0" id="back" transform="matrix(1.0, 0.0, 0.0, 1.0, 0.0, 0.0)" width="56.0" xlink:href="#sprite6"/>
    </g>
    <g id="sprite6" transform="matrix(1.0, 0.0, 0.0, 1.0, 0.0, 0.0)">
      <use ffdec:characterId="25" ffdec:characterName="123_fla.Symbole72_8" height="56.0" id="back" transform="matrix(1.0, 0.0, 0.0, 1.0, 0.0, 0.0)" width="56.0" xlink:href="#sprite7"/>
    </g>
    <g id="sprite7" transform="matrix(1.0, 0.0, 0.0, 1.0, 0.0, 0.0)">
      <use ffdec:characterId="24" ffdec:characterName="123_fla.Symbole69_9" height="56.0" id="back" transform="matrix(1.0, 0.0, 0.0, 1.0, 0.0, 0.0)" width="56.0" xlink:href="#sprite8"/>
    </g>
    <g id="sprite8" transform="matrix(1.0, 0.0, 0.0, 1.0, 0.0, 0.0)">
      <use ffdec:characterId="23" ffdec:characterName="123_fla.Symbole66_10" height="56.0" id="back" transform="matrix(1.0, 0.0, 0.0, 1.0, 0.0, 0.0)" width="56.0" xlink:href="#sprite9"/>
    </g>
    <g id="sprite9" transform="matrix(1.0, 0.0, 0.0, 1.0, 0.0, 0.0)">
      <use ffdec:characterId="22" ffdec:characterName="123_fla.Symbole63_11" height="56.0" id="back" transform="matrix(1.0, 0.0, 0.0, 1.0, 0.0, 0.0)" width="56.0" xlink:href="#sprite10"/>
    </g>
    <g id="sprite10" transform="matrix(1.0, 0.0, 0.0, 1.0, 0.0, 0.0)">
      <use ffdec:characterId="21" ffdec:characterName="123_fla.Symbole60_12" height="56.0" id="back" transform="matrix(1.0, 0.0, 0.0, 1.0, 0.0, 0.0)" width="56.0" xlink:href="#sprite11"/>
    </g>
    <g id="sprite11" transform="matrix(1.0, 0.0, 0.0, 1.0, 0.0, 0.0)">
      <use ffdec:characterId="20" ffdec:characterName="123_fla.Symbole57_13" height="56.0" id="back" transform="matrix(1.0, 0.0, 0.0, 1.0, 0.0, 0.0)" width="56.0" xlink:href="#sprite12"/>
    </g>
    <g id="sprite12" transform="matrix(1.0, 0.0, 0.0, 1.0, 0.0, 0.0)">
      <use ffdec:characterId="19" ffdec:characterName="123_fla.Symbole54_14" height="56.0" id="back" transform="matrix(1.0, 0.0, 0.0, 1.0, 0.0, 0.0)" width="56.0" xlink:href="#sprite13"/>
    </g>
    <g id="sprite13" transform="matrix(1.0, 0.0, 0.0, 1.0, 0.0, 0.0)">
      <use ffdec:characterId="18" ffdec:characterName="123_fla.Symbole51_15" height="56.0" id="back" transform="matrix(1.0, 0.0, 0.0, 1.0, 0.0, 0.0)" width="56.0" xlink:href="#sprite14"/>
    </g>
    <g id="sprite14" transform="matrix(1.0, 0.0, 0.0, 1.0, 0.0, 0.0)">
      <use ffdec:characterId="17" ffdec:characterName="123_fla.Symbole48_16" height="56.0" id="back" transform="matrix(1.0, 0.0, 0.0, 1.0, 0.0, 0.0)" width="56.0" xlink:href="#sprite15"/>
    </g>
    <g id="sprite15" transform="matrix(1.0, 0.0, 0.0, 1.0, 0.0, 0.0)">
      <use ffdec:characterId="16" ffdec:characterName="123_fla.Symbole45_17" height="56.0" id="back" transform="matrix(1.0, 0.0, 0.0, 1.0, 0.0, 0.0)" width="56.0" xlink:href="#sprite16"/>
    </g>
    <g id="sprite16" transform="matrix(1.0, 0.0, 0.0, 1.0, 0.0, 0.0)">
      <use ffdec:characterId="15" ffdec:characterName="123_fla.Symbole42_18" height="56.0" id="back" transform="matrix(1.0, 0.0, 0.0, 1.0, 0.0, 0.0)" width="56.0" xlink:href="#sprite17"/>
    </g>
    <g id="sprite17" transform="matrix(1.0, 0.0, 0.0, 1.0, 0.0, 0.0)">
      <use ffdec:characterId="14" ffdec:characterName="123_fla.Symbole39_19" height="56.0" id="back" transform="matrix(1.0, 0.0, 0.0, 1.0, 0.0, 0.0)" width="56.0" xlink:href="#sprite18"/>
    </g>
    <g id="sprite18" transform="matrix(1.0, 0.0, 0.0, 1.0, 0.0, 0.0)">
      <use ffdec:characterId="13" ffdec:characterName="123_fla.Symbole36_20" height="56.0" id="back" transform="matrix(1.0, 0.0, 0.0, 1.0, 0.0, 0.0)" width="56.0" xlink:href="#sprite19"/>
    </g>
    <g id="sprite19" transform="matrix(1.0, 0.0, 0.0, 1.0, 0.0, 0.0)">
      <use ffdec:characterId="12" ffdec:characterName="123_fla.Symbole33_21" height="56.0" id="back" transform="matrix(1.0, 0.0, 0.0, 1.0, 0.0, 0.0)" width="56.0" xlink:href="#sprite20"/>
    </g>
    <g id="sprite20" transform="matrix(1.0, 0.0, 0.0, 1.0, 0.0, 0.0)">
      <use ffdec:characterId="11" ffdec:characterName="123_fla.Symbole30_22" height="56.0" id="back" transform="matrix(1.0, 0.0, 0.0, 1.0, 0.0, 0.0)" width="56.0" xlink:href="#sprite21"/>
    </g>
    <g id="sprite21" transform="matrix(1.0, 0.0, 0.0, 1.0, 0.0, 0.0)">
      <use ffdec:characterId="10" ffdec:characterName="123_fla.Symbole27_23" height="56.0" id="back" transform="matrix(1.0, 0.0, 0.0, 1.0, 0.0, 0.0)" width="56.0" xlink:href="#sprite22"/>
    </g>
    <g id="sprite22" transform="matrix(1.0, 0.0, 0.0, 1.0, 0.0, 0.0)">
      <use ffdec:characterId="9" ffdec:characterName="123_fla.Symbole24_24" height="56.0" id="back" transform="matrix(1.0, 0.0, 0.0, 1.0, 0.0, 0.0)" width="56.0" xlink:href="#sprite23"/>
    </g>
    <g id="sprite23" transform="matrix(1.0, 0.0, 0.0, 1.0, 0.0, 0.0)">
      <use ffdec:characterId="8" ffdec:characterName="123_fla.Symbole21_25" height="56.0" id="back" transform="matrix(1.0, 0.0, 0.0, 1.0, 0.0, 0.0)" width="56.0" xlink:href="#sprite24"/>
    </g>
    <g id="sprite24" transform="matrix(1.0, 0.0, 0.0, 1.0, 0.0, 0.0)">
      <use ffdec:characterId="7" ffdec:characterName="123_fla.Symbole18_26" height="56.0" id="back" transform="matrix(1.0, 0.0, 0.0, 1.0, 0.0, 0.0)" width="56.0" xlink:href="#sprite25"/>
    </g>
    <g id="sprite25" transform="matrix(1.0, 0.0, 0.0, 1.0, 0.0, 0.0)">
      <use ffdec:characterId="6" ffdec:characterName="123_fla.Symbole15_27" height="56.0" id="back" transform="matrix(1.0, 0.0, 0.0, 1.0, 0.0, 0.0)" width="56.0" xlink:href="#sprite26"/>
    </g>
    <g id="sprite26" transform="matrix(1.0, 0.0, 0.0, 1.0, 0.0, 0.0)">
      <use ffdec:characterId="5" ffdec:characterName="123_fla.Symbole12_28" height="56.0" id="back" transform="matrix(1.0, 0.0, 0.0, 1.0, 0.0, 0.0)" width="56.0" xlink:href="#sprite27"/>
    </g>
    <g id="sprite27" transform="matrix(1.0, 0.0, 0.0, 1.0, 0.0, 0.0)">
      <use ffdec:characterId="4" ffdec:characterName="123_fla.Symbole9_29" height="56.0" id="back" transform="matrix(1.0, 0.0, 0.0, 1.0, 0.0, 0.0)" width="56.0" xlink:href="#sprite28"/>
    </g>
    <g id="sprite28" transform="matrix(1.0, 0.0, 0.0, 1.0, 0.0, 0.0)">
      <use ffdec:characterId="3" ffdec:characterName="123_fla.Symbole6_30" height="56.0" id="back" transform="matrix(1.0, 0.0, 0.0, 1.0, 0.0, 0.0)" width="56.0" xlink:href="#sprite29"/>
    </g>
    <g id="sprite29" transform="matrix(1.0, 0.0, 0.0, 1.0, 0.0, 0.0)">
      <use ffdec:characterId="2" height="56.0" id="back" transform="matrix(1.0, 0.0, 0.0, 1.0, 0.0, 0.0)" width="56.0" xlink:href="#sprite30"/>
    </g>
    <g id="sprite30" transform="matrix(1.0, 0.0, 0.0, 1.0, 0.0, 0.0)">
      <use ffdec:characterId="1" height="56.0" transform="matrix(1.0, 0.0, 0.0, 1.0, 0.0, 0.0)" width="56.0" xlink:href="#shape0"/>
    </g>
    <g id="shape0" transform="matrix(1.0, 0.0, 0.0, 1.0, 0.0, 0.0)">
      <path d="M56.0 56.0 L0.0 56.0 0.0 0.0 56.0 0.0 56.0 56.0" fill="#010101" fill-opacity="0.0" fill-rule="evenodd" stroke="none"/>
    </g>
    <g id="sprite31" transform="matrix(1.0, 0.0, 0.0, 1.0, 0.75, 0.75)">
      <use ffdec:characterId="33" height="55.55" transform="matrix(1.0, 0.0, 0.0, 1.0, -0.75, -0.75)" width="51.6" xlink:href="#shape1"/>
    </g>
    <g id="shape1" transform="matrix(1.0, 0.0, 0.0, 1.0, 0.75, 0.75)">
      <path d="M48.0 29.55 L44.1 30.55 Q40.95 31.45 37.9 33.0 L37.9 34.3 38.0 34.2 Q38.7 33.7 39.5 33.3 L42.5 32.0 44.1 31.4 45.8 30.95 47.8 30.55 Q46.4 30.85 45.1 31.3 L44.1 31.7 Q40.9 32.9 37.9 34.9 L38.05 35.65 39.15 35.8 41.35 35.75 39.9 35.95 38.85 36.2 38.2 36.2 38.15 36.2 38.35 36.65 40.3 36.35 40.45 36.35 Q42.4 36.2 44.1 35.5 45.95 34.9 47.45 33.7 L48.0 33.0 Q49.4 31.15 50.1 29.1 L48.0 29.55 M37.6 33.05 L37.6 32.9 37.45 32.7 37.45 37.4 37.4 37.55 36.55 38.4 Q36.0 40.65 34.85 42.4 36.0 42.15 36.85 41.15 L37.2 43.0 37.15 43.6 37.7 43.0 Q38.15 42.45 38.2 41.75 L39.05 43.0 40.6 44.0 40.5 43.85 40.0 43.0 39.3 41.1 39.2 40.55 39.2 40.45 41.5 40.55 Q38.85 39.4 38.0 36.75 L37.85 36.2 Q37.6 35.35 37.6 34.5 L37.6 33.05 M34.4 0.1 L34.3 2.4 34.3 2.85 34.95 2.75 36.15 2.9 36.0 2.4 35.4 0.0 34.7 0.0 34.4 0.1 M37.2 9.1 L36.85 6.5 35.25 6.2 34.15 6.25 33.95 9.1 33.95 9.25 35.1 10.0 37.2 10.15 37.2 9.1 M18.35 15.65 L19.95 15.4 20.0 15.35 20.1 15.35 Q20.1 15.25 20.25 15.25 21.3 14.9 21.6 15.9 L21.7 17.55 21.55 18.3 21.45 18.8 Q21.0 20.55 19.7 21.85 L19.65 21.85 19.35 22.05 18.5 22.65 18.2 22.75 17.5 23.05 16.9 23.05 16.1 23.05 15.5 22.5 15.6 22.3 15.6 21.85 Q15.6 20.55 13.95 19.55 L13.3 18.8 Q15.6 20.4 16.9 18.55 L17.05 18.3 17.1 18.25 18.05 15.9 18.2 15.4 18.35 15.65 M21.85 18.15 L24.7 17.7 24.85 17.7 25.05 17.7 25.2 17.7 25.35 17.7 28.1 18.15 28.2 18.85 28.1 18.85 27.35 19.0 Q27.0 19.3 26.95 19.9 27.15 22.0 29.1 22.85 L30.35 22.75 30.55 22.5 Q31.85 23.8 34.25 23.45 L34.25 23.5 Q36.15 26.7 36.55 30.75 L36.6 31.75 Q35.9 31.7 35.7 32.45 L35.7 37.55 35.9 37.95 Q35.25 40.7 33.7 43.0 L33.15 43.75 33.0 44.05 Q31.05 46.65 28.65 47.65 L29.05 46.9 29.35 46.75 29.25 46.75 28.2 43.2 27.95 43.3 26.75 43.45 26.95 46.05 26.95 46.15 27.35 46.2 Q27.9 46.35 28.35 46.9 L28.65 47.2 28.3 47.8 Q27.3 49.95 26.8 52.55 26.5 53.55 25.7 53.85 L25.35 54.0 25.05 54.05 24.7 54.0 Q24.45 54.0 24.35 53.85 23.55 53.55 23.25 52.55 22.75 49.95 21.75 47.8 L21.4 47.2 21.75 46.9 Q22.15 46.35 22.7 46.2 L23.15 46.15 23.3 43.45 22.15 43.3 21.85 43.2 20.8 46.75 20.7 46.75 21.0 46.9 21.4 47.65 Q19.0 46.65 17.1 44.05 L16.8 43.75 16.35 43.0 Q14.8 40.7 14.15 37.95 L14.35 37.55 14.35 32.45 Q14.15 31.7 13.45 31.75 L13.5 30.75 Q13.9 26.7 15.8 23.5 L15.9 23.45 Q18.2 23.8 19.5 22.5 L19.8 22.75 20.95 22.85 Q22.9 22.0 23.05 19.9 L23.05 20.0 Q23.15 19.4 22.7 19.0 L21.85 18.85 21.85 18.15 M20.1 22.15 L20.55 22.6 Q22.6 21.55 22.75 19.85 L21.95 19.15 Q21.7 20.7 20.8 21.55 L20.1 22.15 M37.25 13.65 L37.2 15.9 37.2 16.25 37.2 16.65 Q36.15 16.95 35.3 16.25 L34.85 15.9 34.4 15.35 33.3 13.65 33.15 13.3 33.8 11.75 34.8 12.65 Q36.1 13.5 37.3 13.3 L37.25 13.65 M31.7 15.65 L30.1 15.4 30.05 15.35 29.8 15.25 Q28.75 14.9 28.45 15.9 28.25 16.5 28.35 17.55 L28.45 18.3 28.6 18.8 Q29.05 20.55 30.35 21.85 L30.65 22.05 31.55 22.65 31.85 22.75 32.65 23.05 33.15 23.05 33.95 23.05 Q34.45 22.9 34.55 22.5 L34.45 22.3 34.45 21.85 Q34.45 20.55 36.1 19.55 L36.75 18.8 Q34.45 20.4 33.15 18.55 L33.0 18.3 32.95 18.25 Q32.25 17.1 32.0 15.9 L31.85 15.4 31.7 15.65 M15.1 2.75 L13.9 2.9 14.05 2.4 14.65 0.0 15.4 0.0 15.65 0.1 15.75 2.4 15.75 2.85 15.1 2.75 M16.1 9.25 L14.95 10.0 12.8 10.15 12.85 9.1 13.2 6.5 14.9 6.2 15.9 6.25 16.1 9.1 16.1 9.25 M16.75 13.65 L15.65 15.35 15.2 15.9 14.75 16.25 Q13.9 16.95 12.85 16.65 L12.85 16.25 12.85 15.9 12.8 13.65 12.75 13.3 Q14.05 13.5 15.25 12.65 L16.25 11.75 16.9 13.3 16.75 13.65 M12.05 34.2 L12.15 34.3 12.15 33.0 Q9.1 31.45 5.95 30.55 L5.15 30.25 3.15 29.7 2.05 29.55 0.0 29.1 Q0.7 31.15 2.05 33.0 L2.7 33.7 3.15 34.05 Q4.05 34.75 5.15 35.15 L5.95 35.5 Q7.7 36.2 9.6 36.35 L9.85 36.35 11.7 36.65 11.9 36.2 11.85 36.2 11.2 36.2 10.15 35.95 8.7 35.75 10.9 35.8 12.0 35.65 12.15 34.9 Q9.15 32.9 5.95 31.7 L5.15 31.4 4.95 31.3 Q4.05 30.95 3.15 30.75 L1.95 30.45 2.05 30.45 3.15 30.7 4.25 30.95 5.15 31.15 5.95 31.4 7.55 32.0 10.45 33.3 12.05 34.2 M16.1 32.15 L16.2 33.5 16.1 33.5 15.05 33.6 15.35 32.15 16.1 32.15 M16.25 30.75 L16.2 31.75 15.4 31.75 15.75 30.75 16.4 29.45 Q17.65 27.4 19.8 26.55 21.3 26.1 22.3 27.1 21.3 26.5 20.0 26.8 17.8 27.5 16.25 30.7 L16.25 30.75 M12.85 32.6 L12.85 37.35 13.05 37.8 13.3 37.9 13.5 37.9 13.95 37.8 14.05 37.7 14.15 37.35 14.15 32.7 13.95 32.3 13.5 32.15 13.45 32.15 13.3 32.15 13.05 32.3 12.85 32.6 M12.45 32.9 Q12.45 32.75 12.6 32.7 L12.6 37.4 12.65 37.55 Q12.8 38.1 13.5 38.4 14.05 40.65 15.2 42.4 14.05 42.15 13.2 41.15 12.9 42.15 12.9 43.0 L12.9 43.6 12.3 43.0 Q11.9 42.45 11.85 41.75 L11.0 43.0 Q10.4 43.55 9.4 44.0 L9.55 43.85 10.05 43.0 10.75 41.1 10.85 40.55 10.85 40.45 8.55 40.55 Q11.2 39.4 12.05 36.75 L12.2 36.2 12.45 34.5 12.45 33.05 12.45 32.9 M16.25 34.6 L16.4 35.75 16.4 35.8 14.8 36.45 Q14.8 35.15 14.95 33.9 L15.05 33.9 16.2 33.75 16.25 34.6 M16.7 36.65 L17.25 38.5 17.2 38.5 15.6 39.55 Q15.1 38.25 14.9 36.9 L14.9 36.8 16.55 36.2 16.7 36.65 M15.75 39.85 L17.4 38.85 18.4 40.65 18.35 40.65 16.8 42.55 15.65 39.85 15.75 39.85 M17.1 42.85 L18.55 40.95 18.95 41.4 19.95 42.15 18.55 44.85 17.85 44.0 17.1 43.0 17.05 42.9 17.1 42.85 M30.05 26.8 Q32.25 27.5 33.8 30.7 L33.8 30.75 33.85 31.75 34.7 31.75 34.3 30.75 33.65 29.45 Q32.4 27.4 30.2 26.55 28.75 26.1 27.75 27.1 28.75 26.5 30.05 26.8 M27.5 29.4 Q26.95 29.95 26.8 30.75 26.65 31.1 26.65 31.55 L26.75 32.0 26.9 32.75 Q27.05 33.3 27.5 33.7 28.35 34.6 29.6 34.6 L29.65 34.6 Q30.8 34.6 31.65 33.7 32.5 32.75 32.5 31.55 L32.35 30.75 Q32.2 29.95 31.65 29.4 30.95 28.7 30.1 28.55 L29.6 28.5 Q28.35 28.5 27.5 29.4 M36.75 32.15 L36.6 32.15 36.55 32.15 Q36.3 32.15 36.1 32.3 L35.9 32.7 35.9 37.35 36.0 37.7 36.1 37.8 36.55 37.9 36.75 37.9 37.0 37.8 37.2 37.35 37.2 32.6 37.0 32.3 36.75 32.15 M33.85 32.15 L33.85 33.5 35.0 33.6 34.7 32.15 33.85 32.15 M33.8 34.6 L33.55 35.75 35.25 36.45 35.1 33.9 35.0 33.9 33.85 33.75 33.8 34.6 M19.95 28.55 L20.45 28.5 Q21.7 28.5 22.55 29.4 23.15 29.95 23.25 30.75 L23.4 31.55 23.3 32.0 23.15 32.75 22.55 33.7 Q21.7 34.6 20.45 34.6 L20.4 34.6 Q19.3 34.6 18.4 33.7 17.55 32.75 17.55 31.55 17.55 31.1 17.7 30.75 17.85 29.95 18.4 29.4 19.1 28.7 19.95 28.55 M24.7 33.75 L24.85 33.75 25.05 33.7 25.2 33.75 25.35 33.75 25.7 34.05 Q26.45 34.6 26.95 35.9 L26.95 36.65 26.9 37.35 Q26.6 37.9 25.85 38.1 L25.7 38.1 25.35 38.25 25.2 38.25 Q25.15 38.25 25.05 38.35 L24.85 38.25 24.7 38.25 24.35 38.1 24.2 38.1 Q23.45 37.9 23.25 37.35 L23.05 36.65 23.15 35.9 Q23.6 34.6 24.35 34.05 L24.7 33.75 M21.55 43.05 L20.45 46.6 18.8 45.15 20.3 42.45 21.4 43.0 21.55 43.05 M26.35 43.55 L26.6 46.15 26.15 46.2 25.7 46.35 25.5 46.5 25.35 46.6 Q25.05 47.6 25.05 48.95 L24.7 46.6 24.55 46.5 24.35 46.35 23.9 46.2 23.45 46.15 23.7 43.55 24.35 43.55 24.7 43.55 25.05 43.55 25.35 43.55 25.7 43.55 26.35 43.55 M35.15 36.8 L33.5 36.2 33.4 36.65 32.8 38.5 32.85 38.5 34.45 39.55 35.25 36.9 35.15 36.8 M34.3 39.85 L32.65 38.85 31.65 40.65 31.7 40.65 33.15 42.55 34.4 39.85 34.3 39.85 M31.1 41.4 L30.05 42.15 31.5 44.85 32.2 44.0 32.95 43.0 33.0 42.9 32.95 42.85 31.5 40.95 31.1 41.4 M31.2 45.05 L29.75 42.45 28.65 43.0 28.5 43.05 29.6 46.6 31.2 45.15 31.2 45.05 Z" fill="none" stroke="#000000" stroke-linecap="round" stroke-linejoin="round" stroke-opacity="0.2" stroke-width="1.5"/>
    </g>
    <g id="sprite32" transform="matrix(1.0, 0.0, 0.0, 1.0, 0.0, 0.0)">
      <use ffdec:characterId="35" height="54.05" transform="matrix(1.0, 0.0, 0.0, 1.0, 0.0, 0.0)" width="50.15" xlink:href="#shape2"/>
    </g>
    <g id="shape2" transform="matrix(1.0, 0.0, 0.0, 1.0, 0.0, 0.0)">
      <path d="M34.0 9.3 L34.0 9.15 34.2 6.3 35.3 6.25 36.85 6.55 37.25 9.15 37.25 10.15 35.15 10.0 Q34.55 9.8 34.0 9.3 M34.4 0.1 L34.8 0.0 35.45 0.0 36.1 2.4 36.2 2.9 35.0 2.75 34.35 2.85 34.35 2.4 34.4 0.1 M37.65 33.1 L37.65 34.5 37.9 36.2 38.05 36.75 Q38.9 39.45 41.55 40.6 L39.25 40.45 39.25 40.55 39.3 41.1 40.05 43.0 40.55 43.85 40.6 44.0 39.1 43.0 38.25 41.75 37.75 43.0 37.15 43.65 37.25 43.0 36.85 41.2 Q36.1 42.2 34.9 42.4 36.1 40.65 36.6 38.45 L37.45 37.55 37.5 37.4 37.5 32.7 37.65 32.95 37.65 33.1 M48.05 29.55 L50.15 29.1 Q49.45 31.2 48.05 33.0 L47.5 33.75 Q45.95 34.9 44.15 35.55 L40.5 36.35 40.35 36.35 38.4 36.7 38.15 36.2 38.25 36.2 38.9 36.2 39.95 35.95 41.4 35.75 39.2 35.85 38.1 35.7 37.95 34.9 Q40.9 32.95 44.15 31.7 L45.15 31.35 47.85 30.55 45.8 31.0 44.15 31.4 42.55 32.0 39.55 33.3 38.05 34.25 37.95 34.3 37.95 33.0 Q41.0 31.5 44.15 30.55 L48.05 29.55 M21.65 15.95 L21.7 17.6 21.55 18.3 21.5 18.85 Q21.05 20.55 19.75 21.85 L19.7 21.85 19.4 22.1 18.55 22.65 18.25 22.8 17.55 23.1 16.95 23.1 16.15 23.1 Q15.65 22.95 15.6 22.5 L15.65 22.3 15.65 21.85 Q15.65 20.55 14.0 19.55 L13.35 18.85 Q15.65 20.4 16.95 18.55 L17.1 18.3 17.15 18.25 18.1 15.95 18.25 15.45 18.4 15.65 20.0 15.45 20.05 15.35 20.15 15.35 20.3 15.3 Q21.35 14.9 21.65 15.95 M21.95 18.2 Q23.3 17.75 24.75 17.75 L24.9 17.75 25.1 17.75 25.25 17.75 25.4 17.75 28.15 18.2 28.2 18.9 28.15 18.9 27.4 19.05 Q27.05 19.35 27.0 19.9 27.2 22.0 29.15 22.9 L30.4 22.8 30.6 22.5 Q31.9 23.8 34.25 23.45 L34.25 23.55 Q36.2 26.7 36.6 30.75 L36.65 31.75 Q35.95 31.7 35.7 32.5 L35.7 37.55 35.95 38.0 Q35.3 40.75 33.75 43.0 L33.2 43.8 33.05 44.05 Q31.1 46.7 28.7 47.7 L29.1 46.9 29.35 46.75 29.3 46.75 28.2 43.2 28.0 43.3 26.75 43.5 27.0 46.1 27.0 46.15 27.4 46.25 28.45 46.9 28.7 47.2 28.35 47.85 Q27.35 49.95 26.85 52.55 26.55 53.55 25.75 53.85 L25.4 54.0 25.1 54.05 24.75 54.0 24.4 53.85 Q23.6 53.55 23.3 52.55 22.8 49.95 21.8 47.85 L21.45 47.2 21.8 46.9 Q22.2 46.4 22.75 46.25 L23.15 46.15 23.15 46.1 23.4 43.5 22.2 43.3 21.95 43.2 20.85 46.75 20.8 46.75 21.05 46.9 21.45 47.7 Q19.05 46.7 17.15 44.05 L16.9 43.8 16.4 43.0 Q14.85 40.75 14.2 38.0 L14.45 37.55 14.45 32.5 Q14.2 31.7 13.5 31.75 L13.55 30.75 Q13.95 26.7 15.85 23.55 L15.95 23.45 Q18.25 23.8 19.55 22.5 L19.85 22.8 21.0 22.9 Q22.95 22.0 23.1 19.9 23.1 19.35 22.75 19.05 L21.95 18.9 21.95 18.2 M20.65 22.6 L20.15 22.15 20.85 21.6 Q21.7 20.7 22.0 19.2 L22.8 19.85 Q22.65 21.6 20.65 22.6 M37.3 13.7 L37.25 15.95 37.25 16.3 37.25 16.65 Q36.2 16.95 35.35 16.3 L34.9 15.95 34.4 15.35 33.35 13.7 33.2 13.35 33.85 11.8 34.85 12.7 Q36.15 13.55 37.4 13.35 L37.3 13.7 M27.35 19.85 L28.15 19.2 Q28.45 20.7 29.3 21.6 L30.1 22.15 29.5 22.6 Q27.5 21.6 27.35 19.85 M29.85 15.3 L30.1 15.35 30.15 15.45 31.75 15.65 31.9 15.45 32.05 15.95 Q32.3 17.1 32.95 18.25 L33.05 18.3 33.2 18.55 Q34.5 20.4 36.8 18.85 L36.15 19.55 Q34.5 20.55 34.5 21.85 L34.5 22.3 34.55 22.5 34.0 23.1 33.2 23.1 32.7 23.1 31.9 22.8 31.6 22.65 30.65 22.1 30.4 21.85 Q29.1 20.55 28.65 18.85 L28.5 18.3 28.45 17.6 Q28.3 16.5 28.5 15.95 28.8 14.9 29.85 15.3 M15.8 2.85 L15.15 2.75 13.95 2.9 14.05 2.4 14.7 0.0 15.45 0.0 15.75 0.1 15.8 2.4 15.8 2.85 M15.0 10.0 L12.85 10.15 12.9 9.15 13.3 6.55 14.95 6.25 15.95 6.3 16.15 9.15 16.15 9.3 15.0 10.0 M16.8 13.7 L15.75 15.35 15.2 15.95 14.8 16.3 Q13.95 16.95 12.9 16.65 L12.9 16.3 12.9 15.95 12.85 13.7 12.75 13.35 Q14.05 13.55 15.3 12.7 L16.3 11.8 16.95 13.35 16.8 13.7 M13.55 32.15 Q13.85 32.15 14.0 32.3 L14.2 32.7 14.2 37.35 14.05 37.7 14.0 37.8 13.55 37.9 13.35 37.9 13.15 37.8 12.9 37.35 12.9 32.65 13.15 32.3 13.35 32.15 13.5 32.15 13.55 32.15 M16.15 32.15 L15.35 32.15 Q15.15 32.8 15.1 33.6 L16.15 33.5 16.25 33.5 16.15 32.15 M15.8 30.75 L15.45 31.75 16.25 31.75 16.3 30.75 16.3 30.7 Q17.8 27.5 20.05 26.85 21.35 26.5 22.35 27.15 21.35 26.15 19.85 26.55 17.7 27.45 16.45 29.45 L15.8 30.75 M12.05 35.7 L10.95 35.85 8.75 35.75 10.15 35.95 11.25 36.2 11.9 36.2 12.0 36.2 11.75 36.7 9.9 36.35 9.65 36.35 6.0 35.55 5.2 35.15 3.15 34.1 2.75 33.75 2.1 33.0 Q0.7 31.2 0.0 29.1 L2.1 29.55 3.15 29.75 5.2 30.25 6.0 30.55 Q9.15 31.5 12.2 33.0 L12.2 34.3 12.1 34.25 10.55 33.3 7.6 32.0 6.0 31.4 5.2 31.2 4.35 31.0 3.15 30.7 2.1 30.45 1.45 30.35 3.15 30.75 5.0 31.35 5.2 31.4 6.0 31.7 Q9.25 32.95 12.2 34.9 L12.05 35.7 M12.5 32.95 L12.65 32.7 12.65 37.4 12.7 37.55 Q12.85 38.15 13.55 38.45 14.05 40.65 15.2 42.4 14.05 42.2 13.3 41.2 13.0 42.2 13.0 43.0 L13.0 43.65 12.35 43.0 Q12.0 42.5 11.9 41.75 L11.05 43.0 9.55 44.0 9.6 43.85 10.1 43.0 10.8 41.1 10.9 40.55 10.9 40.45 8.6 40.6 Q11.25 39.45 12.1 36.75 L12.25 36.2 12.5 34.5 12.5 33.1 12.5 32.95 M17.15 42.85 L17.1 42.9 17.15 43.0 17.9 44.0 18.6 44.85 20.0 42.2 19.0 41.4 18.6 40.95 17.15 42.85 M15.8 39.9 L15.75 39.9 16.9 42.55 18.4 40.65 18.45 40.65 17.45 38.85 15.8 39.9 M16.6 36.2 L14.95 36.85 14.95 36.9 Q15.15 38.3 15.65 39.6 L17.25 38.5 17.3 38.5 16.75 36.7 16.6 36.2 M16.3 34.6 L16.25 33.8 15.1 33.95 15.0 33.95 Q14.85 35.15 14.85 36.5 L16.45 35.85 16.45 35.75 16.3 34.6 M27.55 29.4 Q27.0 29.95 26.85 30.75 26.7 31.1 26.7 31.55 L26.75 32.0 26.9 32.8 27.55 33.75 Q28.45 34.6 29.65 34.6 L29.75 34.6 Q30.8 34.6 31.7 33.75 32.55 32.8 32.55 31.55 L32.4 30.75 Q32.25 29.95 31.7 29.4 31.05 28.75 30.15 28.6 L29.65 28.5 Q28.45 28.5 27.55 29.4 M30.1 26.85 Q32.3 27.5 33.85 30.7 L33.85 30.75 33.9 31.75 34.7 31.75 34.35 30.75 33.7 29.45 Q32.45 27.45 30.25 26.55 28.8 26.15 27.8 27.15 28.8 26.5 30.1 26.85 M36.8 32.15 L37.0 32.3 37.25 32.65 37.25 37.35 37.0 37.8 36.8 37.9 36.6 37.9 36.15 37.8 36.1 37.7 35.95 37.35 35.95 32.7 36.15 32.3 Q36.35 32.15 36.6 32.15 L36.65 32.15 36.8 32.15 M33.9 32.15 L33.9 33.5 35.05 33.6 34.8 32.15 33.9 32.15 M33.85 34.6 L33.6 35.75 33.7 35.85 35.3 36.5 35.15 33.95 35.05 33.95 33.9 33.8 33.85 34.6 M26.4 43.55 L25.75 43.55 25.4 43.55 25.1 43.55 24.75 43.55 24.4 43.55 23.75 43.55 23.5 46.15 23.95 46.25 24.4 46.4 24.6 46.55 24.75 46.6 25.1 49.0 Q25.1 47.6 25.4 46.6 L25.55 46.55 25.75 46.4 26.2 46.25 26.6 46.15 26.4 43.55 M21.55 43.05 L21.45 43.0 20.35 42.5 18.9 45.1 18.85 45.15 20.5 46.6 21.55 43.05 M24.4 34.1 Q23.65 34.6 23.15 35.9 L23.1 36.7 23.3 37.35 Q23.5 37.9 24.25 38.15 L24.4 38.15 24.75 38.3 24.9 38.3 25.1 38.35 25.25 38.3 25.4 38.3 25.75 38.15 25.9 38.15 Q26.6 37.9 26.9 37.35 L27.0 36.7 27.0 35.9 Q26.5 34.6 25.75 34.1 L25.4 33.8 25.25 33.8 25.1 33.75 24.9 33.8 24.75 33.8 24.4 34.1 M20.0 28.6 Q19.1 28.75 18.45 29.4 17.9 29.95 17.75 30.75 17.6 31.1 17.6 31.55 17.6 32.8 18.45 33.75 19.35 34.6 20.4 34.6 L20.5 34.6 Q21.7 34.6 22.6 33.75 L23.25 32.8 23.4 32.0 23.45 31.55 23.3 30.75 Q23.15 29.95 22.6 29.4 21.7 28.5 20.5 28.5 L20.0 28.6 M35.2 36.85 L33.55 36.2 33.5 36.7 32.85 38.5 32.9 38.5 34.5 39.6 35.3 36.9 35.2 36.85 M34.35 39.9 L32.7 38.85 31.7 40.65 31.75 40.65 33.2 42.55 34.4 39.9 34.35 39.9 M31.15 41.4 L30.1 42.2 31.55 44.85 32.25 44.0 32.95 43.0 33.05 42.9 32.95 42.85 31.55 40.95 31.15 41.4 M31.25 45.1 L29.8 42.5 28.7 43.0 28.55 43.05 29.65 46.6 31.25 45.15 31.25 45.1" fill="#000000" fill-rule="evenodd" stroke="none"/>
    </g>
  </defs>
</svg>
