<?xml version="1.0" encoding="UTF-8" standalone="no"?>
<svg xmlns:ffdec="https://www.free-decompiler.com/flash" xmlns:xlink="http://www.w3.org/1999/xlink" ffdec:objectType="frame" height="56.0px" width="56.0px" xmlns="http://www.w3.org/2000/svg">
  <g transform="matrix(1.0, 0.0, 0.0, 1.0, 0.0, 0.0)">
    <use ffdec:characterId="33" ffdec:characterName="124_fla.Symbole96_1" height="56.0" id="back" transform="matrix(1.0, 0.0, 0.0, 1.0, 0.0, 0.0)" width="56.0" xlink:href="#sprite0"/>
    <use ffdec:characterId="35" height="55.55" id="back" transform="matrix(1.0, 0.0, 0.0, 1.0, 1.55, 0.45)" width="53.0" xlink:href="#sprite32"/>
    <use ffdec:characterId="37" height="54.05" id="up" transform="matrix(1.0, 0.0, 0.0, 1.0, 2.3, 1.15)" width="51.5" xlink:href="#sprite33"/>
  </g>
  <defs>
    <g id="sprite0" transform="matrix(1.0, 0.0, 0.0, 1.0, 0.0, 0.0)">
      <use ffdec:characterId="32" ffdec:characterName="124_fla.Symbole93_2" height="56.0" id="back" transform="matrix(1.0, 0.0, 0.0, 1.0, 0.0, 0.0)" width="56.0" xlink:href="#sprite1"/>
    </g>
    <g id="sprite1" transform="matrix(1.0, 0.0, 0.0, 1.0, 0.0, 0.0)">
      <use ffdec:characterId="31" ffdec:characterName="124_fla.Symbole90_3" height="56.0" id="back" transform="matrix(1.0, 0.0, 0.0, 1.0, 0.0, 0.0)" width="56.0" xlink:href="#sprite2"/>
    </g>
    <g id="sprite2" transform="matrix(1.0, 0.0, 0.0, 1.0, 0.0, 0.0)">
      <use ffdec:characterId="30" ffdec:characterName="124_fla.Symbole87_4" height="56.0" id="back" transform="matrix(1.0, 0.0, 0.0, 1.0, 0.0, 0.0)" width="56.0" xlink:href="#sprite3"/>
    </g>
    <g id="sprite3" transform="matrix(1.0, 0.0, 0.0, 1.0, 0.0, 0.0)">
      <use ffdec:characterId="29" ffdec:characterName="124_fla.Symbole84_5" height="56.0" id="back" transform="matrix(1.0, 0.0, 0.0, 1.0, 0.0, 0.0)" width="56.0" xlink:href="#sprite4"/>
    </g>
    <g id="sprite4" transform="matrix(1.0, 0.0, 0.0, 1.0, 0.0, 0.0)">
      <use ffdec:characterId="28" ffdec:characterName="124_fla.Symbole81_6" height="56.0" id="back" transform="matrix(1.0, 0.0, 0.0, 1.0, 0.0, 0.0)" width="56.0" xlink:href="#sprite5"/>
    </g>
    <g id="sprite5" transform="matrix(1.0, 0.0, 0.0, 1.0, 0.0, 0.0)">
      <use ffdec:characterId="27" ffdec:characterName="124_fla.Symbole78_7" height="56.0" id="back" transform="matrix(1.0, 0.0, 0.0, 1.0, 0.0, 0.0)" width="56.0" xlink:href="#sprite6"/>
    </g>
    <g id="sprite6" transform="matrix(1.0, 0.0, 0.0, 1.0, 0.0, 0.0)">
      <use ffdec:characterId="26" ffdec:characterName="124_fla.Symbole75_8" height="56.0" id="back" transform="matrix(1.0, 0.0, 0.0, 1.0, 0.0, 0.0)" width="56.0" xlink:href="#sprite7"/>
    </g>
    <g id="sprite7" transform="matrix(1.0, 0.0, 0.0, 1.0, 0.0, 0.0)">
      <use ffdec:characterId="25" ffdec:characterName="124_fla.Symbole72_9" height="56.0" id="back" transform="matrix(1.0, 0.0, 0.0, 1.0, 0.0, 0.0)" width="56.0" xlink:href="#sprite8"/>
    </g>
    <g id="sprite8" transform="matrix(1.0, 0.0, 0.0, 1.0, 0.0, 0.0)">
      <use ffdec:characterId="24" ffdec:characterName="124_fla.Symbole69_10" height="56.0" id="back" transform="matrix(1.0, 0.0, 0.0, 1.0, 0.0, 0.0)" width="56.0" xlink:href="#sprite9"/>
    </g>
    <g id="sprite9" transform="matrix(1.0, 0.0, 0.0, 1.0, 0.0, 0.0)">
      <use ffdec:characterId="23" ffdec:characterName="124_fla.Symbole66_11" height="56.0" id="back" transform="matrix(1.0, 0.0, 0.0, 1.0, 0.0, 0.0)" width="56.0" xlink:href="#sprite10"/>
    </g>
    <g id="sprite10" transform="matrix(1.0, 0.0, 0.0, 1.0, 0.0, 0.0)">
      <use ffdec:characterId="22" ffdec:characterName="124_fla.Symbole63_12" height="56.0" id="back" transform="matrix(1.0, 0.0, 0.0, 1.0, 0.0, 0.0)" width="56.0" xlink:href="#sprite11"/>
    </g>
    <g id="sprite11" transform="matrix(1.0, 0.0, 0.0, 1.0, 0.0, 0.0)">
      <use ffdec:characterId="21" ffdec:characterName="124_fla.Symbole60_13" height="56.0" id="back" transform="matrix(1.0, 0.0, 0.0, 1.0, 0.0, 0.0)" width="56.0" xlink:href="#sprite12"/>
    </g>
    <g id="sprite12" transform="matrix(1.0, 0.0, 0.0, 1.0, 0.0, 0.0)">
      <use ffdec:characterId="20" ffdec:characterName="124_fla.Symbole57_14" height="56.0" id="back" transform="matrix(1.0, 0.0, 0.0, 1.0, 0.0, 0.0)" width="56.0" xlink:href="#sprite13"/>
    </g>
    <g id="sprite13" transform="matrix(1.0, 0.0, 0.0, 1.0, 0.0, 0.0)">
      <use ffdec:characterId="19" ffdec:characterName="124_fla.Symbole54_15" height="56.0" id="back" transform="matrix(1.0, 0.0, 0.0, 1.0, 0.0, 0.0)" width="56.0" xlink:href="#sprite14"/>
    </g>
    <g id="sprite14" transform="matrix(1.0, 0.0, 0.0, 1.0, 0.0, 0.0)">
      <use ffdec:characterId="18" ffdec:characterName="124_fla.Symbole51_16" height="56.0" id="back" transform="matrix(1.0, 0.0, 0.0, 1.0, 0.0, 0.0)" width="56.0" xlink:href="#sprite15"/>
    </g>
    <g id="sprite15" transform="matrix(1.0, 0.0, 0.0, 1.0, 0.0, 0.0)">
      <use ffdec:characterId="17" ffdec:characterName="124_fla.Symbole48_17" height="56.0" id="back" transform="matrix(1.0, 0.0, 0.0, 1.0, 0.0, 0.0)" width="56.0" xlink:href="#sprite16"/>
    </g>
    <g id="sprite16" transform="matrix(1.0, 0.0, 0.0, 1.0, 0.0, 0.0)">
      <use ffdec:characterId="16" ffdec:characterName="124_fla.Symbole45_18" height="56.0" id="back" transform="matrix(1.0, 0.0, 0.0, 1.0, 0.0, 0.0)" width="56.0" xlink:href="#sprite17"/>
    </g>
    <g id="sprite17" transform="matrix(1.0, 0.0, 0.0, 1.0, 0.0, 0.0)">
      <use ffdec:characterId="15" ffdec:characterName="124_fla.Symbole42_19" height="56.0" id="back" transform="matrix(1.0, 0.0, 0.0, 1.0, 0.0, 0.0)" width="56.0" xlink:href="#sprite18"/>
    </g>
    <g id="sprite18" transform="matrix(1.0, 0.0, 0.0, 1.0, 0.0, 0.0)">
      <use ffdec:characterId="14" ffdec:characterName="124_fla.Symbole39_20" height="56.0" id="back" transform="matrix(1.0, 0.0, 0.0, 1.0, 0.0, 0.0)" width="56.0" xlink:href="#sprite19"/>
    </g>
    <g id="sprite19" transform="matrix(1.0, 0.0, 0.0, 1.0, 0.0, 0.0)">
      <use ffdec:characterId="13" ffdec:characterName="124_fla.Symbole36_21" height="56.0" id="back" transform="matrix(1.0, 0.0, 0.0, 1.0, 0.0, 0.0)" width="56.0" xlink:href="#sprite20"/>
    </g>
    <g id="sprite20" transform="matrix(1.0, 0.0, 0.0, 1.0, 0.0, 0.0)">
      <use ffdec:characterId="12" ffdec:characterName="124_fla.Symbole33_22" height="56.0" id="back" transform="matrix(1.0, 0.0, 0.0, 1.0, 0.0, 0.0)" width="56.0" xlink:href="#sprite21"/>
    </g>
    <g id="sprite21" transform="matrix(1.0, 0.0, 0.0, 1.0, 0.0, 0.0)">
      <use ffdec:characterId="11" ffdec:characterName="124_fla.Symbole30_23" height="56.0" id="back" transform="matrix(1.0, 0.0, 0.0, 1.0, 0.0, 0.0)" width="56.0" xlink:href="#sprite22"/>
    </g>
    <g id="sprite22" transform="matrix(1.0, 0.0, 0.0, 1.0, 0.0, 0.0)">
      <use ffdec:characterId="10" ffdec:characterName="124_fla.Symbole27_24" height="56.0" id="back" transform="matrix(1.0, 0.0, 0.0, 1.0, 0.0, 0.0)" width="56.0" xlink:href="#sprite23"/>
    </g>
    <g id="sprite23" transform="matrix(1.0, 0.0, 0.0, 1.0, 0.0, 0.0)">
      <use ffdec:characterId="9" ffdec:characterName="124_fla.Symbole24_25" height="56.0" id="back" transform="matrix(1.0, 0.0, 0.0, 1.0, 0.0, 0.0)" width="56.0" xlink:href="#sprite24"/>
    </g>
    <g id="sprite24" transform="matrix(1.0, 0.0, 0.0, 1.0, 0.0, 0.0)">
      <use ffdec:characterId="8" ffdec:characterName="124_fla.Symbole21_26" height="56.0" id="back" transform="matrix(1.0, 0.0, 0.0, 1.0, 0.0, 0.0)" width="56.0" xlink:href="#sprite25"/>
    </g>
    <g id="sprite25" transform="matrix(1.0, 0.0, 0.0, 1.0, 0.0, 0.0)">
      <use ffdec:characterId="7" ffdec:characterName="124_fla.Symbole18_27" height="56.0" id="back" transform="matrix(1.0, 0.0, 0.0, 1.0, 0.0, 0.0)" width="56.0" xlink:href="#sprite26"/>
    </g>
    <g id="sprite26" transform="matrix(1.0, 0.0, 0.0, 1.0, 0.0, 0.0)">
      <use ffdec:characterId="6" ffdec:characterName="124_fla.Symbole15_28" height="56.0" id="back" transform="matrix(1.0, 0.0, 0.0, 1.0, 0.0, 0.0)" width="56.0" xlink:href="#sprite27"/>
    </g>
    <g id="sprite27" transform="matrix(1.0, 0.0, 0.0, 1.0, 0.0, 0.0)">
      <use ffdec:characterId="5" ffdec:characterName="124_fla.Symbole12_29" height="56.0" id="back" transform="matrix(1.0, 0.0, 0.0, 1.0, 0.0, 0.0)" width="56.0" xlink:href="#sprite28"/>
    </g>
    <g id="sprite28" transform="matrix(1.0, 0.0, 0.0, 1.0, 0.0, 0.0)">
      <use ffdec:characterId="4" ffdec:characterName="124_fla.Symbole9_30" height="56.0" id="back" transform="matrix(1.0, 0.0, 0.0, 1.0, 0.0, 0.0)" width="56.0" xlink:href="#sprite29"/>
    </g>
    <g id="sprite29" transform="matrix(1.0, 0.0, 0.0, 1.0, 0.0, 0.0)">
      <use ffdec:characterId="3" ffdec:characterName="124_fla.Symbole6_31" height="56.0" id="back" transform="matrix(1.0, 0.0, 0.0, 1.0, 0.0, 0.0)" width="56.0" xlink:href="#sprite30"/>
    </g>
    <g id="sprite30" transform="matrix(1.0, 0.0, 0.0, 1.0, 0.0, 0.0)">
      <use ffdec:characterId="2" height="56.0" id="back" transform="matrix(1.0, 0.0, 0.0, 1.0, 0.0, 0.0)" width="56.0" xlink:href="#sprite31"/>
    </g>
    <g id="sprite31" transform="matrix(1.0, 0.0, 0.0, 1.0, 0.0, 0.0)">
      <use ffdec:characterId="1" height="56.0" transform="matrix(1.0, 0.0, 0.0, 1.0, 0.0, 0.0)" width="56.0" xlink:href="#shape0"/>
    </g>
    <g id="shape0" transform="matrix(1.0, 0.0, 0.0, 1.0, 0.0, 0.0)">
      <path d="M56.0 56.0 L0.0 56.0 0.0 0.0 56.0 0.0 56.0 56.0" fill="#010101" fill-opacity="0.0" fill-rule="evenodd" stroke="none"/>
    </g>
    <g id="sprite32" transform="matrix(1.0, 0.0, 0.0, 1.0, 0.75, 0.75)">
      <use ffdec:characterId="34" height="55.55" transform="matrix(1.0, 0.0, 0.0, 1.0, -0.75, -0.75)" width="53.0" xlink:href="#shape1"/>
    </g>
    <g id="shape1" transform="matrix(1.0, 0.0, 0.0, 1.0, 0.75, 0.75)">
      <path d="M39.1 8.7 Q35.1 3.1 29.8 1.0 27.95 0.3 25.9 0.0 L25.75 0.0 25.6 0.0 Q17.95 1.1 12.4 8.7 L10.95 10.9 10.65 11.5 10.3 11.85 10.3 11.9 10.25 12.1 8.85 15.15 Q7.65 18.1 7.25 21.0 L7.15 23.0 7.35 25.0 7.8 27.4 7.95 27.7 8.05 27.85 8.6 29.6 Q9.3 31.25 10.25 32.6 L11.45 33.9 Q12.6 35.1 14.1 35.8 L14.7 36.0 14.9 36.15 16.55 36.5 16.85 36.6 16.85 34.85 Q16.85 34.3 17.0 33.9 17.15 33.65 17.45 33.35 L17.5 33.35 Q18.2 32.9 19.6 32.9 L31.85 32.9 Q33.35 32.9 34.05 33.35 L34.55 33.9 34.7 34.85 34.7 36.5 34.85 36.5 35.0 36.5 36.55 36.15 37.6 35.7 Q39.0 35.05 40.1 33.9 L40.4 33.65 41.2 32.65 41.3 32.6 41.6 32.1 42.65 30.15 43.5 27.85 43.6 27.7 43.65 27.4 44.2 25.0 Q44.45 23.0 44.3 21.0 43.9 18.1 42.7 15.15 L41.2 11.85 41.15 11.75 40.9 11.5 40.6 10.9 40.4 10.5 39.1 8.7 M40.85 35.65 L40.6 35.8 40.6 35.95 39.4 36.65 Q37.85 37.6 35.65 37.6 L35.4 37.5 35.25 37.5 34.45 37.35 34.45 40.5 Q35.1 42.1 36.25 43.4 L39.4 42.75 Q43.0 41.3 44.3 38.6 45.45 36.1 47.35 35.95 L47.6 35.95 Q49.25 35.85 49.9 36.95 L49.95 37.2 50.2 37.9 Q50.1 38.75 50.5 38.85 L51.2 38.25 51.5 36.75 Q51.5 35.95 51.0 35.05 49.65 32.8 47.05 32.75 L45.4 32.95 43.65 33.5 43.35 33.6 42.8 33.9 41.95 34.55 40.85 35.65 M43.8 37.35 L44.1 37.6 44.55 37.35 44.85 36.9 44.75 36.4 44.55 36.15 44.05 36.4 43.8 36.9 43.8 37.35 M41.95 38.6 L41.45 39.2 Q41.3 39.55 41.45 39.85 L41.85 40.2 42.55 40.05 43.1 39.4 43.1 38.75 42.65 38.4 41.95 38.6 M38.3 41.65 Q38.45 42.1 39.0 42.15 L39.95 42.1 40.6 41.45 Q40.85 41.0 40.6 40.6 L40.05 40.1 39.1 40.25 Q38.55 40.4 38.3 40.8 38.15 41.3 38.3 41.65 M9.6 34.55 L10.7 35.65 10.95 35.8 11.0 35.95 Q11.5 36.4 12.1 36.65 13.7 37.6 15.9 37.6 L16.2 37.5 16.3 37.5 17.1 37.35 17.1 40.5 Q16.4 42.1 15.3 43.4 L12.1 42.75 Q8.5 41.3 7.25 38.6 6.1 36.1 4.1 35.95 L4.05 35.95 3.85 35.95 3.65 35.95 Q2.15 36.0 1.5 37.2 L1.35 37.9 Q1.45 38.75 0.95 38.85 0.55 38.75 0.35 38.25 0.0 37.5 0.0 36.75 0.0 35.95 0.5 35.05 1.9 32.8 4.5 32.75 L6.1 32.95 Q7.0 33.1 7.9 33.5 L8.2 33.6 8.75 33.9 9.6 34.55 M7.4 36.4 L7.75 36.9 7.75 37.35 7.4 37.6 7.0 37.35 6.7 36.9 6.8 36.4 Q6.85 36.15 7.0 36.15 L7.4 36.4 M13.2 41.65 L12.55 42.15 11.6 42.1 Q11.1 41.9 10.95 41.45 10.7 41.0 10.95 40.6 L11.5 40.1 12.45 40.25 Q13.0 40.4 13.2 40.8 13.4 41.3 13.2 41.65 M9.6 38.6 L10.1 39.2 10.1 39.85 9.7 40.2 9.0 40.05 8.5 39.4 Q8.35 39.05 8.5 38.75 L8.9 38.4 9.6 38.6 M16.15 43.4 Q17.1 42.3 17.65 40.75 19.35 40.9 20.25 42.0 L20.3 42.1 20.25 42.15 19.65 43.75 19.6 44.05 19.5 46.85 19.5 47.1 18.65 47.65 18.7 47.75 18.8 48.35 18.75 48.45 18.4 48.9 17.7 49.0 17.25 48.65 17.15 48.45 16.2 48.8 15.35 49.0 15.35 49.15 14.9 49.7 14.25 49.75 13.7 49.4 13.7 49.3 11.9 49.75 11.9 50.15 11.45 50.65 10.95 50.8 10.55 51.35 Q10.25 52.15 10.85 52.6 11.8 53.4 11.75 53.75 11.75 54.25 10.65 53.9 8.7 53.25 8.6 51.35 L8.6 50.55 8.7 50.35 Q8.7 50.0 8.85 49.55 L9.3 48.35 Q10.3 46.7 13.05 45.6 L15.3 44.25 16.15 43.4 M17.65 34.9 Q17.7 34.2 18.25 33.9 L19.6 33.7 31.85 33.7 33.3 33.9 Q33.8 34.2 33.8 34.9 L33.9 40.1 Q31.85 40.25 30.75 41.6 30.1 41.05 29.2 41.05 L29.0 41.05 29.0 41.15 Q27.75 41.3 27.15 41.95 L27.0 42.1 Q26.7 42.45 26.6 43.1 L26.55 43.15 26.55 43.55 26.55 43.75 26.55 43.8 25.0 43.8 25.0 43.75 25.0 43.55 25.0 43.35 24.95 43.3 24.95 43.1 Q24.85 42.45 24.55 42.1 L24.4 41.95 Q23.85 41.3 22.55 41.15 L22.55 41.05 22.35 41.05 Q21.4 41.05 20.8 41.6 19.65 40.25 17.65 40.1 L17.65 34.9 M23.45 35.65 Q22.5 36.6 22.5 37.9 L22.5 38.05 22.5 38.4 22.6 39.0 22.7 39.15 22.75 39.35 23.0 39.7 23.3 40.1 23.45 40.25 Q24.15 41.0 25.2 41.15 L25.25 41.15 25.65 41.2 25.75 41.2 Q27.05 41.15 27.95 40.25 L28.7 39.15 28.85 38.4 28.95 38.0 28.95 37.9 28.8 37.05 28.55 36.5 28.55 36.45 28.5 36.25 27.95 35.65 Q27.05 34.75 25.75 34.7 L25.65 34.7 25.2 34.75 Q24.15 34.9 23.45 35.65 M25.75 36.65 L26.7 37.05 27.05 38.0 27.05 38.05 27.05 38.4 26.7 39.05 Q26.6 39.05 26.55 39.15 L25.75 39.4 25.65 39.4 24.8 39.15 24.7 39.05 24.3 38.4 24.25 38.05 24.25 38.0 Q24.25 37.5 24.7 37.05 25.1 36.65 25.65 36.65 L25.75 36.65 M22.5 41.8 L23.7 42.25 23.75 42.3 23.85 42.3 23.9 42.4 Q24.3 42.95 24.25 43.8 L24.25 43.95 24.25 44.5 23.95 45.45 Q23.7 46.8 23.6 48.35 23.5 50.0 23.7 51.95 23.6 53.55 22.35 52.6 L21.55 51.25 Q20.85 49.9 20.45 48.35 L20.15 46.65 20.15 45.15 20.15 44.85 20.15 44.75 20.15 44.65 20.25 44.4 20.25 44.2 Q20.45 43.1 20.95 42.45 21.4 41.8 22.25 41.8 L22.5 41.8 M27.75 42.3 L27.7 42.4 Q27.2 42.95 27.2 43.8 L27.2 43.95 27.2 44.5 27.55 45.45 27.95 48.35 27.85 51.95 Q27.95 53.55 29.1 52.6 L29.95 51.25 31.1 48.35 31.4 46.65 31.4 45.15 31.4 44.85 31.4 44.75 31.4 44.65 31.3 44.4 31.3 44.2 Q31.1 43.1 30.6 42.45 30.1 41.8 29.3 41.8 L29.05 41.8 27.85 42.25 27.8 42.3 27.75 42.3 M31.25 42.1 L31.3 42.15 31.85 43.75 31.95 44.05 32.05 46.85 32.05 47.1 32.9 47.65 32.85 47.75 32.7 48.35 32.8 48.45 33.15 48.9 33.8 49.0 34.3 48.65 34.4 48.45 35.4 48.8 36.2 49.0 36.2 49.15 36.65 49.7 37.3 49.75 37.85 49.4 37.85 49.3 Q38.95 49.4 39.65 49.75 L39.65 50.15 40.05 50.65 40.6 50.8 41.0 51.35 Q41.3 52.15 40.7 52.6 39.75 53.4 39.75 53.75 39.8 54.25 40.9 53.9 42.85 53.25 42.95 51.35 L42.95 50.55 42.85 50.35 42.7 49.55 42.25 48.35 Q41.2 46.7 38.4 45.6 L36.25 44.25 35.1 43.15 Q34.4 42.3 33.9 40.75 32.2 40.9 31.3 42.0 L31.25 42.1 Z" fill="none" stroke="#000000" stroke-linecap="round" stroke-linejoin="round" stroke-opacity="0.2" stroke-width="1.5"/>
    </g>
    <g id="sprite33" transform="matrix(1.0, 0.0, 0.0, 1.0, 0.0, 0.0)">
      <use ffdec:characterId="36" height="54.05" transform="matrix(1.0, 0.0, 0.0, 1.0, 0.0, 0.0)" width="51.5" xlink:href="#shape2"/>
    </g>
    <g id="shape2" transform="matrix(1.0, 0.0, 0.0, 1.0, 0.0, 0.0)">
      <path d="M40.55 35.95 L40.6 35.8 40.85 35.65 41.95 34.55 42.75 33.95 43.35 33.6 43.65 33.5 45.35 33.0 47.05 32.75 Q49.65 32.85 51.0 35.05 51.5 35.95 51.5 36.8 L51.2 38.25 Q51.0 38.8 50.45 38.85 50.1 38.8 50.15 37.95 L49.95 37.2 49.9 37.0 Q49.2 35.9 47.6 35.95 L47.35 35.95 Q45.45 36.1 44.25 38.65 43.0 41.3 39.45 42.8 L36.25 43.45 Q35.05 42.15 34.45 40.5 L34.45 37.35 35.2 37.5 35.35 37.5 35.65 37.6 Q37.8 37.6 39.45 36.7 L40.55 35.95 M39.05 8.7 L40.4 10.55 40.6 10.95 40.9 11.5 41.15 11.8 41.2 11.9 42.7 15.15 Q43.9 18.15 44.25 21.05 44.45 23.05 44.15 25.05 L43.65 27.4 43.6 27.7 43.5 27.85 42.6 30.15 41.6 32.1 41.3 32.6 41.2 32.7 40.4 33.65 40.1 33.95 Q39.0 35.05 37.6 35.75 L36.55 36.2 35.0 36.55 34.85 36.55 34.7 36.55 34.7 34.85 34.55 33.95 34.0 33.35 Q33.35 32.9 31.85 32.9 L19.55 32.9 Q18.15 32.9 17.5 33.35 L17.4 33.35 17.0 33.95 Q16.85 34.35 16.85 34.85 L16.85 36.65 16.55 36.55 14.9 36.2 14.7 36.05 14.1 35.8 Q12.6 35.15 11.4 33.95 L10.25 32.6 Q9.25 31.3 8.6 29.65 L8.0 27.85 7.95 27.7 7.8 27.4 7.35 25.05 7.15 23.05 7.25 21.05 Q7.65 18.15 8.85 15.15 9.4 13.6 10.25 12.1 L10.3 11.95 10.3 11.9 10.6 11.5 10.9 10.95 12.4 8.7 Q17.95 1.1 25.55 0.0 L25.7 0.0 25.85 0.0 Q27.95 0.3 29.8 1.05 35.05 3.15 39.05 8.7 M44.55 37.35 L44.85 36.95 44.75 36.4 44.55 36.2 44.0 36.4 43.8 36.95 43.8 37.35 44.1 37.6 44.55 37.35 M41.95 38.65 L41.45 39.25 Q41.3 39.6 41.45 39.9 L41.9 40.2 42.55 40.05 43.05 39.45 43.05 38.8 42.6 38.4 Q42.25 38.4 41.95 38.65 M38.3 41.7 Q38.45 42.15 39.0 42.2 L39.95 42.15 40.6 41.45 Q40.85 41.0 40.6 40.65 40.45 40.25 40.0 40.1 L39.05 40.25 Q38.55 40.4 38.3 40.85 38.15 41.3 38.3 41.7 M10.9 35.8 L11.0 35.95 12.1 36.7 Q13.7 37.6 15.85 37.6 L16.15 37.5 16.3 37.5 17.05 37.35 17.05 40.5 Q16.4 42.15 15.3 43.45 L12.1 42.8 Q8.45 41.3 7.25 38.65 6.1 36.1 4.1 35.95 L4.0 35.95 3.85 35.95 3.65 35.95 Q2.15 36.05 1.5 37.2 L1.35 37.95 Q1.4 38.8 1.0 38.85 L0.3 38.25 Q0.0 37.5 0.0 36.8 0.0 35.95 0.45 35.05 1.85 32.85 4.45 32.75 L6.1 33.0 7.85 33.5 8.15 33.6 8.75 33.95 9.55 34.55 10.7 35.65 10.9 35.8 M8.9 38.4 Q8.6 38.5 8.45 38.8 8.3 39.1 8.45 39.45 L9.0 40.05 9.65 40.2 10.1 39.9 10.1 39.25 9.55 38.65 Q9.25 38.4 8.9 38.4 M13.2 41.7 L13.2 40.85 Q13.0 40.4 12.45 40.25 L11.5 40.1 Q11.05 40.25 10.9 40.65 10.7 41.0 10.9 41.45 L11.55 42.15 12.55 42.2 13.2 41.7 M7.0 37.35 L7.4 37.6 7.7 37.35 7.7 36.95 7.4 36.4 7.0 36.2 Q6.85 36.2 6.75 36.4 L6.7 36.95 7.0 37.35 M16.1 43.45 Q17.05 42.35 17.65 40.8 19.35 40.95 20.25 42.05 L20.3 42.15 20.25 42.2 Q19.85 42.8 19.65 43.75 L19.55 44.05 19.5 46.9 19.5 47.1 18.6 47.7 18.7 47.75 18.85 48.35 18.75 48.45 18.4 48.95 17.7 49.05 17.2 48.65 17.15 48.45 16.15 48.8 15.35 49.05 15.35 49.2 14.9 49.7 14.25 49.8 13.7 49.4 13.7 49.35 Q12.6 49.4 11.85 49.8 L11.85 50.15 11.4 50.65 10.9 50.8 10.55 51.35 Q10.25 52.15 10.85 52.6 11.8 53.4 11.7 53.8 11.7 54.25 10.6 53.95 8.7 53.25 8.6 51.35 L8.6 50.6 8.7 50.35 Q8.7 50.0 8.85 49.55 L9.25 48.35 Q10.3 46.75 13.05 45.6 L15.3 44.3 16.1 43.45 M17.65 34.9 Q17.7 34.25 18.25 33.95 L19.55 33.75 31.85 33.75 33.3 33.95 Q33.8 34.25 33.8 34.9 L33.85 40.1 Q31.85 40.25 30.75 41.6 30.1 41.1 29.2 41.1 L29.0 41.1 29.0 41.15 Q27.7 41.3 27.15 42.0 L27.0 42.15 26.6 43.1 26.55 43.15 26.55 43.6 26.55 43.75 26.55 43.85 25.0 43.85 25.0 43.75 25.0 43.6 25.0 43.4 24.9 43.3 24.9 43.1 24.55 42.15 24.4 42.0 Q23.8 41.3 22.55 41.15 L22.55 41.1 22.3 41.1 Q21.45 41.1 20.75 41.6 19.65 40.25 17.65 40.1 L17.65 34.9 M25.2 34.75 Q24.15 34.9 23.45 35.65 22.45 36.65 22.45 37.95 L22.45 38.1 22.45 38.4 22.6 39.0 22.7 39.15 22.75 39.4 23.0 39.75 23.3 40.1 23.45 40.25 Q24.15 41.0 25.2 41.15 L25.3 41.15 25.65 41.25 25.7 41.25 Q27.05 41.15 27.95 40.25 L28.7 39.15 28.85 38.4 28.9 38.05 28.9 37.95 28.75 37.1 28.55 36.55 28.55 36.5 28.45 36.25 27.95 35.65 Q27.05 34.75 25.7 34.7 L25.65 34.7 25.2 34.75 M25.7 36.7 Q26.25 36.7 26.7 37.1 27.05 37.5 27.05 38.05 L27.05 38.1 27.05 38.4 26.7 39.1 26.55 39.15 25.7 39.45 25.65 39.45 24.75 39.15 24.7 39.1 24.3 38.4 24.25 38.1 24.25 38.05 Q24.25 37.5 24.7 37.1 25.05 36.7 25.65 36.7 L25.7 36.7 M22.45 41.85 L23.65 42.3 23.7 42.35 23.8 42.35 23.85 42.4 Q24.3 42.95 24.25 43.85 L24.25 44.0 24.25 44.5 23.95 45.45 23.55 48.35 23.65 52.0 Q23.55 53.55 22.3 52.6 L21.55 51.25 Q20.85 49.95 20.45 48.35 L20.15 46.65 20.15 45.15 20.15 44.9 20.15 44.8 20.15 44.65 20.25 44.45 20.25 44.2 Q20.45 43.1 20.9 42.5 21.45 41.85 22.25 41.85 L22.45 41.85 M31.2 42.15 L31.3 42.05 Q32.15 40.95 33.85 40.8 34.4 42.35 35.05 43.15 L36.25 44.3 Q37.15 45.1 38.4 45.6 41.2 46.75 42.25 48.35 L42.7 49.55 42.85 50.35 42.9 50.6 42.9 51.35 Q42.85 53.25 40.9 53.95 39.8 54.25 39.75 53.8 39.75 53.4 40.7 52.6 41.3 52.15 41.0 51.35 L40.6 50.8 40.0 50.65 39.65 50.15 39.65 49.8 Q38.9 49.4 37.8 49.35 L37.8 49.4 37.3 49.8 36.6 49.7 36.15 49.2 36.15 49.05 35.35 48.8 34.4 48.45 34.3 48.65 33.8 49.05 33.15 48.95 32.75 48.45 32.7 48.35 32.85 47.75 32.9 47.7 32.0 47.1 32.0 46.9 31.95 44.05 31.85 43.75 31.3 42.2 31.2 42.15 M27.8 42.35 L27.85 42.3 29.05 41.85 29.3 41.85 Q30.1 41.85 30.6 42.5 31.05 43.1 31.3 44.2 L31.3 44.45 31.35 44.65 31.35 44.8 31.35 44.9 31.35 45.15 31.35 46.65 31.05 48.35 Q30.7 49.95 29.95 51.25 L29.15 52.6 Q27.95 53.55 27.85 52.0 L27.95 48.35 27.5 45.45 27.2 44.5 27.2 44.0 27.2 43.85 Q27.2 42.95 27.65 42.4 L27.7 42.35 27.8 42.35" fill="#000000" fill-rule="evenodd" stroke="none"/>
    </g>
  </defs>
</svg>
