<?xml version="1.0" encoding="UTF-8" standalone="no"?>
<svg xmlns:ffdec="https://www.free-decompiler.com/flash" xmlns:xlink="http://www.w3.org/1999/xlink" ffdec:objectType="frame" height="56.0px" width="56.0px" xmlns="http://www.w3.org/2000/svg">
  <g transform="matrix(1.0, 0.0, 0.0, 1.0, 0.0, 0.0)">
    <use ffdec:characterId="34" ffdec:characterName="125_fla.Symbole99_1" height="56.0" id="back" transform="matrix(1.0, 0.0, 0.0, 1.0, 0.0, 0.0)" width="56.0" xlink:href="#sprite0"/>
    <use ffdec:characterId="36" height="55.55" id="back" transform="matrix(1.0, 0.0, 0.0, 1.0, 10.05, 0.45)" width="36.15" xlink:href="#sprite33"/>
    <use ffdec:characterId="38" height="54.0" id="up" transform="matrix(1.0, 0.0, 0.0, 1.0, 10.85, 1.25)" width="34.65" xlink:href="#sprite34"/>
  </g>
  <defs>
    <g id="sprite0" transform="matrix(1.0, 0.0, 0.0, 1.0, 0.0, 0.0)">
      <use ffdec:characterId="33" ffdec:characterName="125_fla.Symbole96_2" height="56.0" id="back" transform="matrix(1.0, 0.0, 0.0, 1.0, 0.0, 0.0)" width="56.0" xlink:href="#sprite1"/>
    </g>
    <g id="sprite1" transform="matrix(1.0, 0.0, 0.0, 1.0, 0.0, 0.0)">
      <use ffdec:characterId="32" ffdec:characterName="125_fla.Symbole93_3" height="56.0" id="back" transform="matrix(1.0, 0.0, 0.0, 1.0, 0.0, 0.0)" width="56.0" xlink:href="#sprite2"/>
    </g>
    <g id="sprite2" transform="matrix(1.0, 0.0, 0.0, 1.0, 0.0, 0.0)">
      <use ffdec:characterId="31" ffdec:characterName="125_fla.Symbole90_4" height="56.0" id="back" transform="matrix(1.0, 0.0, 0.0, 1.0, 0.0, 0.0)" width="56.0" xlink:href="#sprite3"/>
    </g>
    <g id="sprite3" transform="matrix(1.0, 0.0, 0.0, 1.0, 0.0, 0.0)">
      <use ffdec:characterId="30" ffdec:characterName="125_fla.Symbole87_5" height="56.0" id="back" transform="matrix(1.0, 0.0, 0.0, 1.0, 0.0, 0.0)" width="56.0" xlink:href="#sprite4"/>
    </g>
    <g id="sprite4" transform="matrix(1.0, 0.0, 0.0, 1.0, 0.0, 0.0)">
      <use ffdec:characterId="29" ffdec:characterName="125_fla.Symbole84_6" height="56.0" id="back" transform="matrix(1.0, 0.0, 0.0, 1.0, 0.0, 0.0)" width="56.0" xlink:href="#sprite5"/>
    </g>
    <g id="sprite5" transform="matrix(1.0, 0.0, 0.0, 1.0, 0.0, 0.0)">
      <use ffdec:characterId="28" ffdec:characterName="125_fla.Symbole81_7" height="56.0" id="back" transform="matrix(1.0, 0.0, 0.0, 1.0, 0.0, 0.0)" width="56.0" xlink:href="#sprite6"/>
    </g>
    <g id="sprite6" transform="matrix(1.0, 0.0, 0.0, 1.0, 0.0, 0.0)">
      <use ffdec:characterId="27" ffdec:characterName="125_fla.Symbole78_8" height="56.0" id="back" transform="matrix(1.0, 0.0, 0.0, 1.0, 0.0, 0.0)" width="56.0" xlink:href="#sprite7"/>
    </g>
    <g id="sprite7" transform="matrix(1.0, 0.0, 0.0, 1.0, 0.0, 0.0)">
      <use ffdec:characterId="26" ffdec:characterName="125_fla.Symbole75_9" height="56.0" id="back" transform="matrix(1.0, 0.0, 0.0, 1.0, 0.0, 0.0)" width="56.0" xlink:href="#sprite8"/>
    </g>
    <g id="sprite8" transform="matrix(1.0, 0.0, 0.0, 1.0, 0.0, 0.0)">
      <use ffdec:characterId="25" ffdec:characterName="125_fla.Symbole72_10" height="56.0" id="back" transform="matrix(1.0, 0.0, 0.0, 1.0, 0.0, 0.0)" width="56.0" xlink:href="#sprite9"/>
    </g>
    <g id="sprite9" transform="matrix(1.0, 0.0, 0.0, 1.0, 0.0, 0.0)">
      <use ffdec:characterId="24" ffdec:characterName="125_fla.Symbole69_11" height="56.0" id="back" transform="matrix(1.0, 0.0, 0.0, 1.0, 0.0, 0.0)" width="56.0" xlink:href="#sprite10"/>
    </g>
    <g id="sprite10" transform="matrix(1.0, 0.0, 0.0, 1.0, 0.0, 0.0)">
      <use ffdec:characterId="23" ffdec:characterName="125_fla.Symbole66_12" height="56.0" id="back" transform="matrix(1.0, 0.0, 0.0, 1.0, 0.0, 0.0)" width="56.0" xlink:href="#sprite11"/>
    </g>
    <g id="sprite11" transform="matrix(1.0, 0.0, 0.0, 1.0, 0.0, 0.0)">
      <use ffdec:characterId="22" ffdec:characterName="125_fla.Symbole63_13" height="56.0" id="back" transform="matrix(1.0, 0.0, 0.0, 1.0, 0.0, 0.0)" width="56.0" xlink:href="#sprite12"/>
    </g>
    <g id="sprite12" transform="matrix(1.0, 0.0, 0.0, 1.0, 0.0, 0.0)">
      <use ffdec:characterId="21" ffdec:characterName="125_fla.Symbole60_14" height="56.0" id="back" transform="matrix(1.0, 0.0, 0.0, 1.0, 0.0, 0.0)" width="56.0" xlink:href="#sprite13"/>
    </g>
    <g id="sprite13" transform="matrix(1.0, 0.0, 0.0, 1.0, 0.0, 0.0)">
      <use ffdec:characterId="20" ffdec:characterName="125_fla.Symbole57_15" height="56.0" id="back" transform="matrix(1.0, 0.0, 0.0, 1.0, 0.0, 0.0)" width="56.0" xlink:href="#sprite14"/>
    </g>
    <g id="sprite14" transform="matrix(1.0, 0.0, 0.0, 1.0, 0.0, 0.0)">
      <use ffdec:characterId="19" ffdec:characterName="125_fla.Symbole54_16" height="56.0" id="back" transform="matrix(1.0, 0.0, 0.0, 1.0, 0.0, 0.0)" width="56.0" xlink:href="#sprite15"/>
    </g>
    <g id="sprite15" transform="matrix(1.0, 0.0, 0.0, 1.0, 0.0, 0.0)">
      <use ffdec:characterId="18" ffdec:characterName="125_fla.Symbole51_17" height="56.0" id="back" transform="matrix(1.0, 0.0, 0.0, 1.0, 0.0, 0.0)" width="56.0" xlink:href="#sprite16"/>
    </g>
    <g id="sprite16" transform="matrix(1.0, 0.0, 0.0, 1.0, 0.0, 0.0)">
      <use ffdec:characterId="17" ffdec:characterName="125_fla.Symbole48_18" height="56.0" id="back" transform="matrix(1.0, 0.0, 0.0, 1.0, 0.0, 0.0)" width="56.0" xlink:href="#sprite17"/>
    </g>
    <g id="sprite17" transform="matrix(1.0, 0.0, 0.0, 1.0, 0.0, 0.0)">
      <use ffdec:characterId="16" ffdec:characterName="125_fla.Symbole45_19" height="56.0" id="back" transform="matrix(1.0, 0.0, 0.0, 1.0, 0.0, 0.0)" width="56.0" xlink:href="#sprite18"/>
    </g>
    <g id="sprite18" transform="matrix(1.0, 0.0, 0.0, 1.0, 0.0, 0.0)">
      <use ffdec:characterId="15" ffdec:characterName="125_fla.Symbole42_20" height="56.0" id="back" transform="matrix(1.0, 0.0, 0.0, 1.0, 0.0, 0.0)" width="56.0" xlink:href="#sprite19"/>
    </g>
    <g id="sprite19" transform="matrix(1.0, 0.0, 0.0, 1.0, 0.0, 0.0)">
      <use ffdec:characterId="14" ffdec:characterName="125_fla.Symbole39_21" height="56.0" id="back" transform="matrix(1.0, 0.0, 0.0, 1.0, 0.0, 0.0)" width="56.0" xlink:href="#sprite20"/>
    </g>
    <g id="sprite20" transform="matrix(1.0, 0.0, 0.0, 1.0, 0.0, 0.0)">
      <use ffdec:characterId="13" ffdec:characterName="125_fla.Symbole36_22" height="56.0" id="back" transform="matrix(1.0, 0.0, 0.0, 1.0, 0.0, 0.0)" width="56.0" xlink:href="#sprite21"/>
    </g>
    <g id="sprite21" transform="matrix(1.0, 0.0, 0.0, 1.0, 0.0, 0.0)">
      <use ffdec:characterId="12" ffdec:characterName="125_fla.Symbole33_23" height="56.0" id="back" transform="matrix(1.0, 0.0, 0.0, 1.0, 0.0, 0.0)" width="56.0" xlink:href="#sprite22"/>
    </g>
    <g id="sprite22" transform="matrix(1.0, 0.0, 0.0, 1.0, 0.0, 0.0)">
      <use ffdec:characterId="11" ffdec:characterName="125_fla.Symbole30_24" height="56.0" id="back" transform="matrix(1.0, 0.0, 0.0, 1.0, 0.0, 0.0)" width="56.0" xlink:href="#sprite23"/>
    </g>
    <g id="sprite23" transform="matrix(1.0, 0.0, 0.0, 1.0, 0.0, 0.0)">
      <use ffdec:characterId="10" ffdec:characterName="125_fla.Symbole27_25" height="56.0" id="back" transform="matrix(1.0, 0.0, 0.0, 1.0, 0.0, 0.0)" width="56.0" xlink:href="#sprite24"/>
    </g>
    <g id="sprite24" transform="matrix(1.0, 0.0, 0.0, 1.0, 0.0, 0.0)">
      <use ffdec:characterId="9" ffdec:characterName="125_fla.Symbole24_26" height="56.0" id="back" transform="matrix(1.0, 0.0, 0.0, 1.0, 0.0, 0.0)" width="56.0" xlink:href="#sprite25"/>
    </g>
    <g id="sprite25" transform="matrix(1.0, 0.0, 0.0, 1.0, 0.0, 0.0)">
      <use ffdec:characterId="8" ffdec:characterName="125_fla.Symbole21_27" height="56.0" id="back" transform="matrix(1.0, 0.0, 0.0, 1.0, 0.0, 0.0)" width="56.0" xlink:href="#sprite26"/>
    </g>
    <g id="sprite26" transform="matrix(1.0, 0.0, 0.0, 1.0, 0.0, 0.0)">
      <use ffdec:characterId="7" ffdec:characterName="125_fla.Symbole18_28" height="56.0" id="back" transform="matrix(1.0, 0.0, 0.0, 1.0, 0.0, 0.0)" width="56.0" xlink:href="#sprite27"/>
    </g>
    <g id="sprite27" transform="matrix(1.0, 0.0, 0.0, 1.0, 0.0, 0.0)">
      <use ffdec:characterId="6" ffdec:characterName="125_fla.Symbole15_29" height="56.0" id="back" transform="matrix(1.0, 0.0, 0.0, 1.0, 0.0, 0.0)" width="56.0" xlink:href="#sprite28"/>
    </g>
    <g id="sprite28" transform="matrix(1.0, 0.0, 0.0, 1.0, 0.0, 0.0)">
      <use ffdec:characterId="5" ffdec:characterName="125_fla.Symbole12_30" height="56.0" id="back" transform="matrix(1.0, 0.0, 0.0, 1.0, 0.0, 0.0)" width="56.0" xlink:href="#sprite29"/>
    </g>
    <g id="sprite29" transform="matrix(1.0, 0.0, 0.0, 1.0, 0.0, 0.0)">
      <use ffdec:characterId="4" ffdec:characterName="125_fla.Symbole9_31" height="56.0" id="back" transform="matrix(1.0, 0.0, 0.0, 1.0, 0.0, 0.0)" width="56.0" xlink:href="#sprite30"/>
    </g>
    <g id="sprite30" transform="matrix(1.0, 0.0, 0.0, 1.0, 0.0, 0.0)">
      <use ffdec:characterId="3" ffdec:characterName="125_fla.Symbole6_32" height="56.0" id="back" transform="matrix(1.0, 0.0, 0.0, 1.0, 0.0, 0.0)" width="56.0" xlink:href="#sprite31"/>
    </g>
    <g id="sprite31" transform="matrix(1.0, 0.0, 0.0, 1.0, 0.0, 0.0)">
      <use ffdec:characterId="2" height="56.0" id="back" transform="matrix(1.0, 0.0, 0.0, 1.0, 0.0, 0.0)" width="56.0" xlink:href="#sprite32"/>
    </g>
    <g id="sprite32" transform="matrix(1.0, 0.0, 0.0, 1.0, 0.0, 0.0)">
      <use ffdec:characterId="1" height="56.0" transform="matrix(1.0, 0.0, 0.0, 1.0, 0.0, 0.0)" width="56.0" xlink:href="#shape0"/>
    </g>
    <g id="shape0" transform="matrix(1.0, 0.0, 0.0, 1.0, 0.0, 0.0)">
      <path d="M56.0 56.0 L0.0 56.0 0.0 0.0 56.0 0.0 56.0 56.0" fill="#010101" fill-opacity="0.0" fill-rule="evenodd" stroke="none"/>
    </g>
    <g id="sprite33" transform="matrix(1.0, 0.0, 0.0, 1.0, 0.75, 0.75)">
      <use ffdec:characterId="35" height="55.55" transform="matrix(1.0, 0.0, 0.0, 1.0, -0.75, -0.75)" width="36.15" xlink:href="#shape1"/>
    </g>
    <g id="shape1" transform="matrix(1.0, 0.0, 0.0, 1.0, 0.75, 0.75)">
      <path d="M32.3 28.15 Q32.3 29.7 31.4 31.3 30.6 32.8 28.45 33.6 28.25 33.65 28.2 33.8 L27.25 35.05 26.4 34.05 25.8 34.2 Q22.05 35.3 17.55 35.35 L17.35 35.35 17.1 35.35 Q12.5 35.3 8.85 34.2 L8.3 34.05 7.45 35.05 6.5 33.8 6.25 33.6 Q4.0 32.8 3.15 31.3 2.4 29.7 2.4 28.15 L2.4 27.6 Q2.55 28.95 3.85 30.45 5.2 31.9 8.6 31.8 L26.1 31.8 Q29.35 31.9 30.8 30.45 32.15 28.95 32.3 27.6 L32.3 28.15 M32.65 24.05 Q32.9 21.3 31.1 19.05 29.25 17.15 26.45 16.95 23.75 16.75 21.7 18.55 20.65 19.5 20.15 20.6 19.45 21.8 19.4 23.2 19.3 24.55 19.75 25.8 L21.05 27.95 Q23.0 30.1 25.65 30.2 28.45 30.45 30.55 28.55 32.6 26.8 32.65 24.05 M30.75 33.8 Q26.85 37.75 21.4 37.75 L20.65 37.75 20.55 37.75 19.7 38.0 Q19.45 38.3 19.45 38.8 22.05 40.0 22.7 40.65 23.55 41.45 20.5 44.65 L19.75 45.55 18.85 44.55 Q18.3 44.15 18.1 43.5 L18.85 49.15 19.2 49.45 Q20.0 50.2 20.0 51.35 20.0 52.4 19.3 53.1 L19.2 53.25 18.25 53.9 17.5 54.05 17.25 54.05 16.35 53.9 15.45 53.25 15.35 53.1 Q14.7 52.4 14.7 51.35 14.7 50.2 15.45 49.45 L15.85 49.15 16.55 43.5 15.85 44.55 14.9 45.55 14.2 44.65 Q11.15 41.45 11.9 40.65 12.65 40.0 15.2 38.8 L14.9 38.0 Q14.7 37.75 14.1 37.75 L14.0 37.75 13.35 37.75 Q8.0 37.75 4.2 34.15 L4.0 33.8 3.85 33.8 Q1.85 31.8 0.95 29.4 0.0 27.05 0.0 24.4 L0.0 23.65 Q0.2 20.6 1.55 18.1 L3.15 15.75 3.85 14.9 4.0 14.9 5.1 13.85 5.7 13.5 6.15 13.1 6.65 12.9 9.5 10.8 Q12.15 8.65 13.65 6.4 L14.0 5.8 17.2 0.0 20.65 5.8 21.05 6.4 Q23.15 9.8 28.05 12.9 L28.5 13.1 28.95 13.5 30.75 14.9 31.4 15.75 Q34.65 19.35 34.65 24.4 34.65 29.95 30.75 33.8 M11.6 20.05 Q10.15 18.75 8.3 19.0 6.4 19.05 5.1 20.35 L5.1 20.5 Q3.85 21.95 4.0 23.95 4.0 25.8 5.5 27.05 6.9 28.25 8.85 28.25 10.6 28.1 11.9 26.65 L12.0 26.6 Q13.35 25.1 13.2 23.3 12.95 21.35 11.6 20.05 M14.6 20.6 Q15.2 21.8 15.3 23.2 15.3 24.55 14.9 25.8 L13.65 27.95 13.5 27.95 Q11.75 30.1 8.95 30.2 6.25 30.45 4.15 28.55 2.1 26.8 1.85 24.05 1.8 21.3 3.6 19.05 5.4 17.15 8.15 16.95 10.9 16.75 12.95 18.55 14.0 19.5 14.6 20.6 M29.65 20.5 Q30.8 21.95 30.6 23.95 30.55 25.8 29.2 27.05 27.7 28.25 25.8 28.25 23.85 28.1 22.7 26.6 21.4 25.1 21.5 23.3 21.55 21.35 23.05 20.05 24.5 18.75 26.4 19.0 28.25 19.05 29.5 20.35 L29.65 20.5 M18.05 50.75 L18.3 51.45 18.05 52.1 17.7 52.3 16.9 52.3 16.65 52.1 Q16.35 51.8 16.35 51.45 16.35 50.95 16.65 50.75 L16.9 50.45 17.7 50.45 18.05 50.75 Z" fill="none" stroke="#000000" stroke-linecap="round" stroke-linejoin="round" stroke-opacity="0.2" stroke-width="1.5"/>
    </g>
    <g id="sprite34" transform="matrix(1.0, 0.0, 0.0, 1.0, 0.0, 0.0)">
      <use ffdec:characterId="37" height="54.0" transform="matrix(1.0, 0.0, 0.0, 1.0, 0.0, 0.0)" width="34.65" xlink:href="#shape2"/>
    </g>
    <g id="shape2" transform="matrix(1.0, 0.0, 0.0, 1.0, 0.0, 0.0)">
      <path d="M31.35 15.7 Q34.65 19.35 34.65 24.4 34.65 29.9 30.7 33.8 26.8 37.7 21.4 37.7 L20.65 37.7 20.5 37.7 Q19.95 37.7 19.65 38.0 L19.45 38.8 Q22.0 40.0 22.65 40.65 23.5 41.45 20.45 44.65 L19.75 45.5 18.8 44.5 Q18.3 44.15 18.1 43.5 L18.8 49.15 19.15 49.45 Q19.95 50.2 19.95 51.3 19.95 52.35 19.3 53.1 L19.15 53.2 18.25 53.85 17.45 54.0 17.25 54.0 16.3 53.85 Q15.8 53.65 15.45 53.2 L15.3 53.1 Q14.7 52.35 14.7 51.3 14.7 50.2 15.45 49.45 L15.8 49.15 16.55 43.5 15.8 44.5 14.9 45.5 14.2 44.65 Q11.1 41.45 11.9 40.65 L15.2 38.8 14.9 38.0 Q14.7 37.7 14.1 37.7 L13.95 37.7 13.3 37.7 Q7.95 37.7 4.2 34.15 L4.0 33.8 3.85 33.8 Q1.85 31.8 0.9 29.35 0.0 27.05 0.0 24.4 L0.0 23.65 Q0.2 20.55 1.55 18.05 L3.15 15.7 3.85 14.9 4.0 14.9 5.1 13.85 5.7 13.5 6.1 13.15 6.6 12.85 9.45 10.75 Q12.1 8.6 13.6 6.4 L13.95 5.75 17.15 0.0 20.65 5.75 21.0 6.4 Q23.15 9.75 28.0 12.85 L28.5 13.15 28.95 13.5 30.7 14.9 31.35 15.7 M32.3 27.55 Q32.15 28.9 30.8 30.4 29.3 31.85 26.1 31.8 L8.55 31.8 Q5.2 31.85 3.85 30.4 2.5 28.9 2.35 27.55 L2.35 28.15 Q2.35 29.7 3.15 31.3 4.0 32.8 6.2 33.55 L6.5 33.8 7.4 35.05 8.25 34.05 8.85 34.2 Q12.45 35.3 17.1 35.35 L17.3 35.35 17.55 35.35 Q22.0 35.3 25.8 34.2 L26.35 34.05 27.2 35.05 28.15 33.8 28.45 33.55 Q30.6 32.8 31.35 31.3 32.3 29.7 32.3 28.15 L32.3 27.55 M32.65 24.0 Q32.85 21.25 31.05 19.05 29.2 17.15 26.45 16.9 23.75 16.7 21.65 18.5 20.65 19.5 20.1 20.55 19.45 21.75 19.4 23.2 19.3 24.55 19.75 25.8 20.15 27.0 21.0 27.9 22.95 30.05 25.65 30.2 28.45 30.4 30.5 28.55 32.55 26.8 32.65 24.0 M30.6 23.9 Q30.5 25.8 29.15 27.05 27.65 28.3 25.8 28.3 23.8 28.05 22.65 26.55 21.4 25.05 21.45 23.3 21.5 21.35 23.0 20.05 24.5 18.75 26.35 19.0 28.2 19.05 29.5 20.35 L29.65 20.5 Q30.8 21.9 30.6 23.9 M18.05 50.7 L17.65 50.45 16.9 50.45 16.6 50.7 Q16.3 50.95 16.3 51.45 L16.6 52.1 16.9 52.3 17.65 52.3 18.05 52.1 18.3 51.45 18.05 50.7 M14.6 20.55 L12.95 18.5 Q10.9 16.7 8.1 16.9 5.4 17.15 3.55 19.05 1.75 21.25 1.85 24.0 2.05 26.8 4.1 28.55 6.2 30.4 8.95 30.2 11.75 30.05 13.45 27.9 L13.6 27.9 Q14.45 27.0 14.9 25.8 L15.25 23.2 Q15.2 21.75 14.6 20.55 M11.6 20.05 Q12.95 21.35 13.2 23.3 13.3 25.05 11.95 26.55 L11.9 26.65 Q10.6 28.05 8.85 28.3 6.9 28.3 5.5 27.05 4.0 25.8 4.0 23.9 3.85 21.9 5.05 20.5 L5.1 20.35 Q6.4 19.05 8.25 19.0 10.1 18.75 11.6 20.05" fill="#000000" fill-rule="evenodd" stroke="none"/>
    </g>
  </defs>
</svg>
