<?xml version="1.0" encoding="UTF-8" standalone="no"?>
<svg xmlns:ffdec="https://www.free-decompiler.com/flash" xmlns:xlink="http://www.w3.org/1999/xlink" ffdec:objectType="frame" height="56.0px" width="56.0px" xmlns="http://www.w3.org/2000/svg">
  <g transform="matrix(1.0, 0.0, 0.0, 1.0, 0.0, 0.0)">
    <use ffdec:characterId="36" ffdec:characterName="127_fla.Symbole105_1" height="56.0" id="back" transform="matrix(1.0, 0.0, 0.0, 1.0, 0.0, 0.0)" width="56.0" xlink:href="#sprite0"/>
    <use ffdec:characterId="38" height="47.05" id="back" transform="matrix(1.0, 0.0, 0.0, 1.0, 0.4, 4.5)" width="55.4" xlink:href="#sprite35"/>
    <use ffdec:characterId="40" height="45.55" id="up" transform="matrix(1.0, 0.0, 0.0, 1.0, 1.1, 5.2)" width="53.95" xlink:href="#sprite36"/>
  </g>
  <defs>
    <g id="sprite0" transform="matrix(1.0, 0.0, 0.0, 1.0, 0.0, 0.0)">
      <use ffdec:characterId="35" ffdec:characterName="127_fla.Symbole102_2" height="56.0" id="back" transform="matrix(1.0, 0.0, 0.0, 1.0, 0.0, 0.0)" width="56.0" xlink:href="#sprite1"/>
    </g>
    <g id="sprite1" transform="matrix(1.0, 0.0, 0.0, 1.0, 0.0, 0.0)">
      <use ffdec:characterId="34" ffdec:characterName="127_fla.Symbole99_3" height="56.0" id="back" transform="matrix(1.0, 0.0, 0.0, 1.0, 0.0, 0.0)" width="56.0" xlink:href="#sprite2"/>
    </g>
    <g id="sprite2" transform="matrix(1.0, 0.0, 0.0, 1.0, 0.0, 0.0)">
      <use ffdec:characterId="33" ffdec:characterName="127_fla.Symbole96_4" height="56.0" id="back" transform="matrix(1.0, 0.0, 0.0, 1.0, 0.0, 0.0)" width="56.0" xlink:href="#sprite3"/>
    </g>
    <g id="sprite3" transform="matrix(1.0, 0.0, 0.0, 1.0, 0.0, 0.0)">
      <use ffdec:characterId="32" ffdec:characterName="127_fla.Symbole93_5" height="56.0" id="back" transform="matrix(1.0, 0.0, 0.0, 1.0, 0.0, 0.0)" width="56.0" xlink:href="#sprite4"/>
    </g>
    <g id="sprite4" transform="matrix(1.0, 0.0, 0.0, 1.0, 0.0, 0.0)">
      <use ffdec:characterId="31" ffdec:characterName="127_fla.Symbole90_6" height="56.0" id="back" transform="matrix(1.0, 0.0, 0.0, 1.0, 0.0, 0.0)" width="56.0" xlink:href="#sprite5"/>
    </g>
    <g id="sprite5" transform="matrix(1.0, 0.0, 0.0, 1.0, 0.0, 0.0)">
      <use ffdec:characterId="30" ffdec:characterName="127_fla.Symbole87_7" height="56.0" id="back" transform="matrix(1.0, 0.0, 0.0, 1.0, 0.0, 0.0)" width="56.0" xlink:href="#sprite6"/>
    </g>
    <g id="sprite6" transform="matrix(1.0, 0.0, 0.0, 1.0, 0.0, 0.0)">
      <use ffdec:characterId="29" ffdec:characterName="127_fla.Symbole84_8" height="56.0" id="back" transform="matrix(1.0, 0.0, 0.0, 1.0, 0.0, 0.0)" width="56.0" xlink:href="#sprite7"/>
    </g>
    <g id="sprite7" transform="matrix(1.0, 0.0, 0.0, 1.0, 0.0, 0.0)">
      <use ffdec:characterId="28" ffdec:characterName="127_fla.Symbole81_9" height="56.0" id="back" transform="matrix(1.0, 0.0, 0.0, 1.0, 0.0, 0.0)" width="56.0" xlink:href="#sprite8"/>
    </g>
    <g id="sprite8" transform="matrix(1.0, 0.0, 0.0, 1.0, 0.0, 0.0)">
      <use ffdec:characterId="27" ffdec:characterName="127_fla.Symbole78_10" height="56.0" id="back" transform="matrix(1.0, 0.0, 0.0, 1.0, 0.0, 0.0)" width="56.0" xlink:href="#sprite9"/>
    </g>
    <g id="sprite9" transform="matrix(1.0, 0.0, 0.0, 1.0, 0.0, 0.0)">
      <use ffdec:characterId="26" ffdec:characterName="127_fla.Symbole75_11" height="56.0" id="back" transform="matrix(1.0, 0.0, 0.0, 1.0, 0.0, 0.0)" width="56.0" xlink:href="#sprite10"/>
    </g>
    <g id="sprite10" transform="matrix(1.0, 0.0, 0.0, 1.0, 0.0, 0.0)">
      <use ffdec:characterId="25" ffdec:characterName="127_fla.Symbole72_12" height="56.0" id="back" transform="matrix(1.0, 0.0, 0.0, 1.0, 0.0, 0.0)" width="56.0" xlink:href="#sprite11"/>
    </g>
    <g id="sprite11" transform="matrix(1.0, 0.0, 0.0, 1.0, 0.0, 0.0)">
      <use ffdec:characterId="24" ffdec:characterName="127_fla.Symbole69_13" height="56.0" id="back" transform="matrix(1.0, 0.0, 0.0, 1.0, 0.0, 0.0)" width="56.0" xlink:href="#sprite12"/>
    </g>
    <g id="sprite12" transform="matrix(1.0, 0.0, 0.0, 1.0, 0.0, 0.0)">
      <use ffdec:characterId="23" ffdec:characterName="127_fla.Symbole66_14" height="56.0" id="back" transform="matrix(1.0, 0.0, 0.0, 1.0, 0.0, 0.0)" width="56.0" xlink:href="#sprite13"/>
    </g>
    <g id="sprite13" transform="matrix(1.0, 0.0, 0.0, 1.0, 0.0, 0.0)">
      <use ffdec:characterId="22" ffdec:characterName="127_fla.Symbole63_15" height="56.0" id="back" transform="matrix(1.0, 0.0, 0.0, 1.0, 0.0, 0.0)" width="56.0" xlink:href="#sprite14"/>
    </g>
    <g id="sprite14" transform="matrix(1.0, 0.0, 0.0, 1.0, 0.0, 0.0)">
      <use ffdec:characterId="21" ffdec:characterName="127_fla.Symbole60_16" height="56.0" id="back" transform="matrix(1.0, 0.0, 0.0, 1.0, 0.0, 0.0)" width="56.0" xlink:href="#sprite15"/>
    </g>
    <g id="sprite15" transform="matrix(1.0, 0.0, 0.0, 1.0, 0.0, 0.0)">
      <use ffdec:characterId="20" ffdec:characterName="127_fla.Symbole57_17" height="56.0" id="back" transform="matrix(1.0, 0.0, 0.0, 1.0, 0.0, 0.0)" width="56.0" xlink:href="#sprite16"/>
    </g>
    <g id="sprite16" transform="matrix(1.0, 0.0, 0.0, 1.0, 0.0, 0.0)">
      <use ffdec:characterId="19" ffdec:characterName="127_fla.Symbole54_18" height="56.0" id="back" transform="matrix(1.0, 0.0, 0.0, 1.0, 0.0, 0.0)" width="56.0" xlink:href="#sprite17"/>
    </g>
    <g id="sprite17" transform="matrix(1.0, 0.0, 0.0, 1.0, 0.0, 0.0)">
      <use ffdec:characterId="18" ffdec:characterName="127_fla.Symbole51_19" height="56.0" id="back" transform="matrix(1.0, 0.0, 0.0, 1.0, 0.0, 0.0)" width="56.0" xlink:href="#sprite18"/>
    </g>
    <g id="sprite18" transform="matrix(1.0, 0.0, 0.0, 1.0, 0.0, 0.0)">
      <use ffdec:characterId="17" ffdec:characterName="127_fla.Symbole48_20" height="56.0" id="back" transform="matrix(1.0, 0.0, 0.0, 1.0, 0.0, 0.0)" width="56.0" xlink:href="#sprite19"/>
    </g>
    <g id="sprite19" transform="matrix(1.0, 0.0, 0.0, 1.0, 0.0, 0.0)">
      <use ffdec:characterId="16" ffdec:characterName="127_fla.Symbole45_21" height="56.0" id="back" transform="matrix(1.0, 0.0, 0.0, 1.0, 0.0, 0.0)" width="56.0" xlink:href="#sprite20"/>
    </g>
    <g id="sprite20" transform="matrix(1.0, 0.0, 0.0, 1.0, 0.0, 0.0)">
      <use ffdec:characterId="15" ffdec:characterName="127_fla.Symbole42_22" height="56.0" id="back" transform="matrix(1.0, 0.0, 0.0, 1.0, 0.0, 0.0)" width="56.0" xlink:href="#sprite21"/>
    </g>
    <g id="sprite21" transform="matrix(1.0, 0.0, 0.0, 1.0, 0.0, 0.0)">
      <use ffdec:characterId="14" ffdec:characterName="127_fla.Symbole39_23" height="56.0" id="back" transform="matrix(1.0, 0.0, 0.0, 1.0, 0.0, 0.0)" width="56.0" xlink:href="#sprite22"/>
    </g>
    <g id="sprite22" transform="matrix(1.0, 0.0, 0.0, 1.0, 0.0, 0.0)">
      <use ffdec:characterId="13" ffdec:characterName="127_fla.Symbole36_24" height="56.0" id="back" transform="matrix(1.0, 0.0, 0.0, 1.0, 0.0, 0.0)" width="56.0" xlink:href="#sprite23"/>
    </g>
    <g id="sprite23" transform="matrix(1.0, 0.0, 0.0, 1.0, 0.0, 0.0)">
      <use ffdec:characterId="12" ffdec:characterName="127_fla.Symbole33_25" height="56.0" id="back" transform="matrix(1.0, 0.0, 0.0, 1.0, 0.0, 0.0)" width="56.0" xlink:href="#sprite24"/>
    </g>
    <g id="sprite24" transform="matrix(1.0, 0.0, 0.0, 1.0, 0.0, 0.0)">
      <use ffdec:characterId="11" ffdec:characterName="127_fla.Symbole30_26" height="56.0" id="back" transform="matrix(1.0, 0.0, 0.0, 1.0, 0.0, 0.0)" width="56.0" xlink:href="#sprite25"/>
    </g>
    <g id="sprite25" transform="matrix(1.0, 0.0, 0.0, 1.0, 0.0, 0.0)">
      <use ffdec:characterId="10" ffdec:characterName="127_fla.Symbole27_27" height="56.0" id="back" transform="matrix(1.0, 0.0, 0.0, 1.0, 0.0, 0.0)" width="56.0" xlink:href="#sprite26"/>
    </g>
    <g id="sprite26" transform="matrix(1.0, 0.0, 0.0, 1.0, 0.0, 0.0)">
      <use ffdec:characterId="9" ffdec:characterName="127_fla.Symbole24_28" height="56.0" id="back" transform="matrix(1.0, 0.0, 0.0, 1.0, 0.0, 0.0)" width="56.0" xlink:href="#sprite27"/>
    </g>
    <g id="sprite27" transform="matrix(1.0, 0.0, 0.0, 1.0, 0.0, 0.0)">
      <use ffdec:characterId="8" ffdec:characterName="127_fla.Symbole21_29" height="56.0" id="back" transform="matrix(1.0, 0.0, 0.0, 1.0, 0.0, 0.0)" width="56.0" xlink:href="#sprite28"/>
    </g>
    <g id="sprite28" transform="matrix(1.0, 0.0, 0.0, 1.0, 0.0, 0.0)">
      <use ffdec:characterId="7" ffdec:characterName="127_fla.Symbole18_30" height="56.0" id="back" transform="matrix(1.0, 0.0, 0.0, 1.0, 0.0, 0.0)" width="56.0" xlink:href="#sprite29"/>
    </g>
    <g id="sprite29" transform="matrix(1.0, 0.0, 0.0, 1.0, 0.0, 0.0)">
      <use ffdec:characterId="6" ffdec:characterName="127_fla.Symbole15_31" height="56.0" id="back" transform="matrix(1.0, 0.0, 0.0, 1.0, 0.0, 0.0)" width="56.0" xlink:href="#sprite30"/>
    </g>
    <g id="sprite30" transform="matrix(1.0, 0.0, 0.0, 1.0, 0.0, 0.0)">
      <use ffdec:characterId="5" ffdec:characterName="127_fla.Symbole12_32" height="56.0" id="back" transform="matrix(1.0, 0.0, 0.0, 1.0, 0.0, 0.0)" width="56.0" xlink:href="#sprite31"/>
    </g>
    <g id="sprite31" transform="matrix(1.0, 0.0, 0.0, 1.0, 0.0, 0.0)">
      <use ffdec:characterId="4" ffdec:characterName="127_fla.Symbole9_33" height="56.0" id="back" transform="matrix(1.0, 0.0, 0.0, 1.0, 0.0, 0.0)" width="56.0" xlink:href="#sprite32"/>
    </g>
    <g id="sprite32" transform="matrix(1.0, 0.0, 0.0, 1.0, 0.0, 0.0)">
      <use ffdec:characterId="3" ffdec:characterName="127_fla.Symbole6_34" height="56.0" id="back" transform="matrix(1.0, 0.0, 0.0, 1.0, 0.0, 0.0)" width="56.0" xlink:href="#sprite33"/>
    </g>
    <g id="sprite33" transform="matrix(1.0, 0.0, 0.0, 1.0, 0.0, 0.0)">
      <use ffdec:characterId="2" height="56.0" id="back" transform="matrix(1.0, 0.0, 0.0, 1.0, 0.0, 0.0)" width="56.0" xlink:href="#sprite34"/>
    </g>
    <g id="sprite34" transform="matrix(1.0, 0.0, 0.0, 1.0, 0.0, 0.0)">
      <use ffdec:characterId="1" height="56.0" transform="matrix(1.0, 0.0, 0.0, 1.0, 0.0, 0.0)" width="56.0" xlink:href="#shape0"/>
    </g>
    <g id="shape0" transform="matrix(1.0, 0.0, 0.0, 1.0, 0.0, 0.0)">
      <path d="M56.0 56.0 L0.0 56.0 0.0 0.0 56.0 0.0 56.0 56.0" fill="#010101" fill-opacity="0.0" fill-rule="evenodd" stroke="none"/>
    </g>
    <g id="sprite35" transform="matrix(1.0, 0.0, 0.0, 1.0, 0.75, 0.75)">
      <use ffdec:characterId="37" height="47.05" transform="matrix(1.0, 0.0, 0.0, 1.0, -0.75, -0.75)" width="55.4" xlink:href="#shape1"/>
    </g>
    <g id="shape1" transform="matrix(1.0, 0.0, 0.0, 1.0, 0.75, 0.75)">
      <path d="M39.9 41.3 Q34.45 45.55 27.0 45.55 19.4 45.55 14.05 41.3 8.75 37.35 8.75 31.65 8.75 25.9 14.05 21.85 16.45 20.0 19.25 19.05 L24.7 19.3 Q26.1 20.35 26.2 23.65 L26.2 23.75 26.2 24.1 Q26.2 26.2 24.6 26.8 22.95 27.35 21.55 26.3 20.8 25.65 20.8 24.8 20.8 23.95 21.7 22.75 22.05 22.55 22.6 22.75 23.1 22.9 23.1 23.5 L23.3 24.0 Q23.45 24.2 23.7 24.2 L24.25 24.1 24.45 23.6 Q24.6 22.0 23.0 21.4 L23.0 21.5 Q21.6 20.95 20.75 21.85 L20.65 21.95 Q19.4 23.5 19.4 24.8 19.3 26.2 20.65 27.35 L20.75 27.35 Q22.6 28.95 25.05 28.15 26.35 27.7 27.0 26.55 27.6 27.7 28.95 28.15 31.3 28.95 33.15 27.35 34.55 26.2 34.45 24.8 34.45 23.5 33.25 21.95 L33.15 21.85 Q32.25 20.95 30.85 21.5 L30.85 21.4 Q29.35 22.0 29.45 23.6 L29.7 24.1 30.2 24.2 30.6 24.0 30.75 23.5 Q30.75 22.9 31.35 22.75 31.85 22.55 32.25 22.75 33.05 23.95 33.15 24.8 33.15 25.65 32.35 26.3 L32.45 26.3 Q31.0 27.35 29.35 26.8 27.7 26.2 27.7 24.1 L27.7 23.75 27.7 23.65 27.8 22.45 Q28.15 20.2 29.2 19.3 L34.65 19.05 Q37.45 20.0 39.9 21.85 45.1 25.9 45.1 31.65 45.1 37.35 39.9 41.3 M51.35 9.3 Q47.9 6.55 44.15 8.4 40.65 10.15 38.1 14.9 45.1 17.45 48.4 23.6 52.85 20.0 53.65 16.15 54.65 12.0 51.35 9.3 M34.2 13.35 L27.0 12.6 19.65 13.35 Q18.6 7.7 20.4 4.0 22.4 0.0 27.0 0.0 31.55 0.0 33.5 4.0 35.35 7.7 34.2 13.35 M9.65 8.4 Q13.35 10.15 15.8 14.9 8.75 17.45 5.5 23.6 1.05 20.0 0.2 16.15 -0.75 12.0 2.6 9.3 6.05 6.55 9.65 8.4 Z" fill="none" stroke="#000000" stroke-linecap="round" stroke-linejoin="round" stroke-opacity="0.2" stroke-width="1.5"/>
    </g>
    <g id="sprite36" transform="matrix(1.0, 0.0, 0.0, 1.0, 0.0, 0.0)">
      <use ffdec:characterId="39" height="45.55" transform="matrix(1.0, 0.0, 0.0, 1.0, 0.0, 0.0)" width="53.95" xlink:href="#shape2"/>
    </g>
    <g id="shape2" transform="matrix(1.0, 0.0, 0.0, 1.0, 0.0, 0.0)">
      <path d="M51.4 9.35 Q54.7 12.05 53.7 16.2 52.9 20.0 48.45 23.6 45.15 17.5 38.15 14.95 40.7 10.15 44.15 8.45 47.95 6.6 51.4 9.35 M39.95 41.35 Q34.5 45.55 27.0 45.55 19.45 45.55 14.1 41.35 8.8 37.4 8.8 31.7 8.8 25.9 14.1 21.85 16.45 20.05 19.25 19.05 L24.7 19.3 Q26.1 20.4 26.2 23.7 L26.2 23.75 26.2 24.1 Q26.2 26.25 24.65 26.8 23.0 27.4 21.6 26.35 20.85 25.65 20.85 24.85 20.85 23.95 21.75 22.8 22.05 22.55 22.65 22.8 23.15 22.95 23.15 23.5 23.15 23.85 23.3 24.0 L23.7 24.25 24.3 24.1 24.45 23.6 Q24.65 22.05 23.05 21.45 L23.05 21.55 Q21.65 20.95 20.75 21.85 L20.65 21.95 Q19.45 23.5 19.45 24.85 19.35 26.25 20.65 27.4 L20.75 27.4 Q22.65 28.95 25.05 28.15 26.35 27.75 27.0 26.6 27.6 27.75 29.0 28.15 31.3 28.95 33.2 27.4 34.6 26.25 34.5 24.85 34.5 23.5 33.25 21.95 L33.2 21.85 Q32.3 20.95 30.9 21.55 L30.9 21.45 Q29.4 22.05 29.5 23.6 L29.75 24.1 30.25 24.25 30.65 24.0 30.8 23.5 Q30.8 22.95 31.4 22.8 31.85 22.55 32.3 22.8 33.1 23.95 33.2 24.85 33.2 25.65 32.35 26.35 L32.45 26.35 Q31.05 27.4 29.4 26.8 27.75 26.25 27.75 24.1 L27.75 23.75 27.75 23.7 27.85 22.45 Q28.15 20.2 29.25 19.3 L34.65 19.05 Q37.45 20.05 39.95 21.85 45.15 25.9 45.15 31.7 45.15 37.4 39.95 41.35 M34.25 13.4 Q30.8 12.55 27.0 12.65 23.15 12.55 19.7 13.4 18.6 7.75 20.4 4.05 22.4 0.0 27.0 0.0 31.65 0.0 33.5 4.05 35.4 7.75 34.25 13.4 M9.7 8.45 Q13.35 10.15 15.8 14.95 8.8 17.5 5.5 23.6 1.05 20.0 0.25 16.2 -0.75 12.05 2.65 9.35 6.1 6.6 9.7 8.45" fill="#000000" fill-rule="evenodd" stroke="none"/>
    </g>
  </defs>
</svg>
