<?xml version="1.0" encoding="UTF-8" standalone="no"?>
<svg xmlns:ffdec="https://www.free-decompiler.com/flash" xmlns:xlink="http://www.w3.org/1999/xlink" ffdec:objectType="frame" height="56.0px" width="56.0px" xmlns="http://www.w3.org/2000/svg">
  <g transform="matrix(1.0, 0.0, 0.0, 1.0, 0.0, 0.0)">
    <use ffdec:characterId="37" ffdec:characterName="128_fla.Symbole108_1" height="56.0" id="back" transform="matrix(1.0, 0.0, 0.0, 1.0, 0.0, 0.0)" width="56.0" xlink:href="#sprite0"/>
    <use ffdec:characterId="39" height="49.2" id="back" transform="matrix(1.0, 0.0, 0.0, 1.0, 0.4, 3.65)" width="55.4" xlink:href="#sprite36"/>
    <use ffdec:characterId="41" height="47.7" id="up" transform="matrix(1.0, 0.0, 0.0, 1.0, 1.1, 4.4)" width="53.9" xlink:href="#sprite37"/>
  </g>
  <defs>
    <g id="sprite0" transform="matrix(1.0, 0.0, 0.0, 1.0, 0.0, 0.0)">
      <use ffdec:characterId="36" ffdec:characterName="128_fla.Symbole105_2" height="56.0" id="back" transform="matrix(1.0, 0.0, 0.0, 1.0, 0.0, 0.0)" width="56.0" xlink:href="#sprite1"/>
    </g>
    <g id="sprite1" transform="matrix(1.0, 0.0, 0.0, 1.0, 0.0, 0.0)">
      <use ffdec:characterId="35" ffdec:characterName="128_fla.Symbole102_3" height="56.0" id="back" transform="matrix(1.0, 0.0, 0.0, 1.0, 0.0, 0.0)" width="56.0" xlink:href="#sprite2"/>
    </g>
    <g id="sprite2" transform="matrix(1.0, 0.0, 0.0, 1.0, 0.0, 0.0)">
      <use ffdec:characterId="34" ffdec:characterName="128_fla.Symbole99_4" height="56.0" id="back" transform="matrix(1.0, 0.0, 0.0, 1.0, 0.0, 0.0)" width="56.0" xlink:href="#sprite3"/>
    </g>
    <g id="sprite3" transform="matrix(1.0, 0.0, 0.0, 1.0, 0.0, 0.0)">
      <use ffdec:characterId="33" ffdec:characterName="128_fla.Symbole96_5" height="56.0" id="back" transform="matrix(1.0, 0.0, 0.0, 1.0, 0.0, 0.0)" width="56.0" xlink:href="#sprite4"/>
    </g>
    <g id="sprite4" transform="matrix(1.0, 0.0, 0.0, 1.0, 0.0, 0.0)">
      <use ffdec:characterId="32" ffdec:characterName="128_fla.Symbole93_6" height="56.0" id="back" transform="matrix(1.0, 0.0, 0.0, 1.0, 0.0, 0.0)" width="56.0" xlink:href="#sprite5"/>
    </g>
    <g id="sprite5" transform="matrix(1.0, 0.0, 0.0, 1.0, 0.0, 0.0)">
      <use ffdec:characterId="31" ffdec:characterName="128_fla.Symbole90_7" height="56.0" id="back" transform="matrix(1.0, 0.0, 0.0, 1.0, 0.0, 0.0)" width="56.0" xlink:href="#sprite6"/>
    </g>
    <g id="sprite6" transform="matrix(1.0, 0.0, 0.0, 1.0, 0.0, 0.0)">
      <use ffdec:characterId="30" ffdec:characterName="128_fla.Symbole87_8" height="56.0" id="back" transform="matrix(1.0, 0.0, 0.0, 1.0, 0.0, 0.0)" width="56.0" xlink:href="#sprite7"/>
    </g>
    <g id="sprite7" transform="matrix(1.0, 0.0, 0.0, 1.0, 0.0, 0.0)">
      <use ffdec:characterId="29" ffdec:characterName="128_fla.Symbole84_9" height="56.0" id="back" transform="matrix(1.0, 0.0, 0.0, 1.0, 0.0, 0.0)" width="56.0" xlink:href="#sprite8"/>
    </g>
    <g id="sprite8" transform="matrix(1.0, 0.0, 0.0, 1.0, 0.0, 0.0)">
      <use ffdec:characterId="28" ffdec:characterName="128_fla.Symbole81_10" height="56.0" id="back" transform="matrix(1.0, 0.0, 0.0, 1.0, 0.0, 0.0)" width="56.0" xlink:href="#sprite9"/>
    </g>
    <g id="sprite9" transform="matrix(1.0, 0.0, 0.0, 1.0, 0.0, 0.0)">
      <use ffdec:characterId="27" ffdec:characterName="128_fla.Symbole78_11" height="56.0" id="back" transform="matrix(1.0, 0.0, 0.0, 1.0, 0.0, 0.0)" width="56.0" xlink:href="#sprite10"/>
    </g>
    <g id="sprite10" transform="matrix(1.0, 0.0, 0.0, 1.0, 0.0, 0.0)">
      <use ffdec:characterId="26" ffdec:characterName="128_fla.Symbole75_12" height="56.0" id="back" transform="matrix(1.0, 0.0, 0.0, 1.0, 0.0, 0.0)" width="56.0" xlink:href="#sprite11"/>
    </g>
    <g id="sprite11" transform="matrix(1.0, 0.0, 0.0, 1.0, 0.0, 0.0)">
      <use ffdec:characterId="25" ffdec:characterName="128_fla.Symbole72_13" height="56.0" id="back" transform="matrix(1.0, 0.0, 0.0, 1.0, 0.0, 0.0)" width="56.0" xlink:href="#sprite12"/>
    </g>
    <g id="sprite12" transform="matrix(1.0, 0.0, 0.0, 1.0, 0.0, 0.0)">
      <use ffdec:characterId="24" ffdec:characterName="128_fla.Symbole69_14" height="56.0" id="back" transform="matrix(1.0, 0.0, 0.0, 1.0, 0.0, 0.0)" width="56.0" xlink:href="#sprite13"/>
    </g>
    <g id="sprite13" transform="matrix(1.0, 0.0, 0.0, 1.0, 0.0, 0.0)">
      <use ffdec:characterId="23" ffdec:characterName="128_fla.Symbole66_15" height="56.0" id="back" transform="matrix(1.0, 0.0, 0.0, 1.0, 0.0, 0.0)" width="56.0" xlink:href="#sprite14"/>
    </g>
    <g id="sprite14" transform="matrix(1.0, 0.0, 0.0, 1.0, 0.0, 0.0)">
      <use ffdec:characterId="22" ffdec:characterName="128_fla.Symbole63_16" height="56.0" id="back" transform="matrix(1.0, 0.0, 0.0, 1.0, 0.0, 0.0)" width="56.0" xlink:href="#sprite15"/>
    </g>
    <g id="sprite15" transform="matrix(1.0, 0.0, 0.0, 1.0, 0.0, 0.0)">
      <use ffdec:characterId="21" ffdec:characterName="128_fla.Symbole60_17" height="56.0" id="back" transform="matrix(1.0, 0.0, 0.0, 1.0, 0.0, 0.0)" width="56.0" xlink:href="#sprite16"/>
    </g>
    <g id="sprite16" transform="matrix(1.0, 0.0, 0.0, 1.0, 0.0, 0.0)">
      <use ffdec:characterId="20" ffdec:characterName="128_fla.Symbole57_18" height="56.0" id="back" transform="matrix(1.0, 0.0, 0.0, 1.0, 0.0, 0.0)" width="56.0" xlink:href="#sprite17"/>
    </g>
    <g id="sprite17" transform="matrix(1.0, 0.0, 0.0, 1.0, 0.0, 0.0)">
      <use ffdec:characterId="19" ffdec:characterName="128_fla.Symbole54_19" height="56.0" id="back" transform="matrix(1.0, 0.0, 0.0, 1.0, 0.0, 0.0)" width="56.0" xlink:href="#sprite18"/>
    </g>
    <g id="sprite18" transform="matrix(1.0, 0.0, 0.0, 1.0, 0.0, 0.0)">
      <use ffdec:characterId="18" ffdec:characterName="128_fla.Symbole51_20" height="56.0" id="back" transform="matrix(1.0, 0.0, 0.0, 1.0, 0.0, 0.0)" width="56.0" xlink:href="#sprite19"/>
    </g>
    <g id="sprite19" transform="matrix(1.0, 0.0, 0.0, 1.0, 0.0, 0.0)">
      <use ffdec:characterId="17" ffdec:characterName="128_fla.Symbole48_21" height="56.0" id="back" transform="matrix(1.0, 0.0, 0.0, 1.0, 0.0, 0.0)" width="56.0" xlink:href="#sprite20"/>
    </g>
    <g id="sprite20" transform="matrix(1.0, 0.0, 0.0, 1.0, 0.0, 0.0)">
      <use ffdec:characterId="16" ffdec:characterName="128_fla.Symbole45_22" height="56.0" id="back" transform="matrix(1.0, 0.0, 0.0, 1.0, 0.0, 0.0)" width="56.0" xlink:href="#sprite21"/>
    </g>
    <g id="sprite21" transform="matrix(1.0, 0.0, 0.0, 1.0, 0.0, 0.0)">
      <use ffdec:characterId="15" ffdec:characterName="128_fla.Symbole42_23" height="56.0" id="back" transform="matrix(1.0, 0.0, 0.0, 1.0, 0.0, 0.0)" width="56.0" xlink:href="#sprite22"/>
    </g>
    <g id="sprite22" transform="matrix(1.0, 0.0, 0.0, 1.0, 0.0, 0.0)">
      <use ffdec:characterId="14" ffdec:characterName="128_fla.Symbole39_24" height="56.0" id="back" transform="matrix(1.0, 0.0, 0.0, 1.0, 0.0, 0.0)" width="56.0" xlink:href="#sprite23"/>
    </g>
    <g id="sprite23" transform="matrix(1.0, 0.0, 0.0, 1.0, 0.0, 0.0)">
      <use ffdec:characterId="13" ffdec:characterName="128_fla.Symbole36_25" height="56.0" id="back" transform="matrix(1.0, 0.0, 0.0, 1.0, 0.0, 0.0)" width="56.0" xlink:href="#sprite24"/>
    </g>
    <g id="sprite24" transform="matrix(1.0, 0.0, 0.0, 1.0, 0.0, 0.0)">
      <use ffdec:characterId="12" ffdec:characterName="128_fla.Symbole33_26" height="56.0" id="back" transform="matrix(1.0, 0.0, 0.0, 1.0, 0.0, 0.0)" width="56.0" xlink:href="#sprite25"/>
    </g>
    <g id="sprite25" transform="matrix(1.0, 0.0, 0.0, 1.0, 0.0, 0.0)">
      <use ffdec:characterId="11" ffdec:characterName="128_fla.Symbole30_27" height="56.0" id="back" transform="matrix(1.0, 0.0, 0.0, 1.0, 0.0, 0.0)" width="56.0" xlink:href="#sprite26"/>
    </g>
    <g id="sprite26" transform="matrix(1.0, 0.0, 0.0, 1.0, 0.0, 0.0)">
      <use ffdec:characterId="10" ffdec:characterName="128_fla.Symbole27_28" height="56.0" id="back" transform="matrix(1.0, 0.0, 0.0, 1.0, 0.0, 0.0)" width="56.0" xlink:href="#sprite27"/>
    </g>
    <g id="sprite27" transform="matrix(1.0, 0.0, 0.0, 1.0, 0.0, 0.0)">
      <use ffdec:characterId="9" ffdec:characterName="128_fla.Symbole24_29" height="56.0" id="back" transform="matrix(1.0, 0.0, 0.0, 1.0, 0.0, 0.0)" width="56.0" xlink:href="#sprite28"/>
    </g>
    <g id="sprite28" transform="matrix(1.0, 0.0, 0.0, 1.0, 0.0, 0.0)">
      <use ffdec:characterId="8" ffdec:characterName="128_fla.Symbole21_30" height="56.0" id="back" transform="matrix(1.0, 0.0, 0.0, 1.0, 0.0, 0.0)" width="56.0" xlink:href="#sprite29"/>
    </g>
    <g id="sprite29" transform="matrix(1.0, 0.0, 0.0, 1.0, 0.0, 0.0)">
      <use ffdec:characterId="7" ffdec:characterName="128_fla.Symbole18_31" height="56.0" id="back" transform="matrix(1.0, 0.0, 0.0, 1.0, 0.0, 0.0)" width="56.0" xlink:href="#sprite30"/>
    </g>
    <g id="sprite30" transform="matrix(1.0, 0.0, 0.0, 1.0, 0.0, 0.0)">
      <use ffdec:characterId="6" ffdec:characterName="128_fla.Symbole15_32" height="56.0" id="back" transform="matrix(1.0, 0.0, 0.0, 1.0, 0.0, 0.0)" width="56.0" xlink:href="#sprite31"/>
    </g>
    <g id="sprite31" transform="matrix(1.0, 0.0, 0.0, 1.0, 0.0, 0.0)">
      <use ffdec:characterId="5" ffdec:characterName="128_fla.Symbole12_33" height="56.0" id="back" transform="matrix(1.0, 0.0, 0.0, 1.0, 0.0, 0.0)" width="56.0" xlink:href="#sprite32"/>
    </g>
    <g id="sprite32" transform="matrix(1.0, 0.0, 0.0, 1.0, 0.0, 0.0)">
      <use ffdec:characterId="4" ffdec:characterName="128_fla.Symbole9_34" height="56.0" id="back" transform="matrix(1.0, 0.0, 0.0, 1.0, 0.0, 0.0)" width="56.0" xlink:href="#sprite33"/>
    </g>
    <g id="sprite33" transform="matrix(1.0, 0.0, 0.0, 1.0, 0.0, 0.0)">
      <use ffdec:characterId="3" ffdec:characterName="128_fla.Symbole6_35" height="56.0" id="back" transform="matrix(1.0, 0.0, 0.0, 1.0, 0.0, 0.0)" width="56.0" xlink:href="#sprite34"/>
    </g>
    <g id="sprite34" transform="matrix(1.0, 0.0, 0.0, 1.0, 0.0, 0.0)">
      <use ffdec:characterId="2" height="56.0" id="back" transform="matrix(1.0, 0.0, 0.0, 1.0, 0.0, 0.0)" width="56.0" xlink:href="#sprite35"/>
    </g>
    <g id="sprite35" transform="matrix(1.0, 0.0, 0.0, 1.0, 0.0, 0.0)">
      <use ffdec:characterId="1" height="56.0" transform="matrix(1.0, 0.0, 0.0, 1.0, 0.0, 0.0)" width="56.0" xlink:href="#shape0"/>
    </g>
    <g id="shape0" transform="matrix(1.0, 0.0, 0.0, 1.0, 0.0, 0.0)">
      <path d="M56.0 56.0 L0.0 56.0 0.0 0.0 56.0 0.0 56.0 56.0" fill="#010101" fill-opacity="0.0" fill-rule="evenodd" stroke="none"/>
    </g>
    <g id="sprite36" transform="matrix(1.0, 0.0, 0.0, 1.0, 0.75, 0.75)">
      <use ffdec:characterId="38" height="49.2" transform="matrix(1.0, 0.0, 0.0, 1.0, -0.75, -0.75)" width="55.4" xlink:href="#shape1"/>
    </g>
    <g id="shape1" transform="matrix(1.0, 0.0, 0.0, 1.0, 0.75, 0.75)">
      <path d="M51.65 26.35 L26.2 35.9 1.1 10.25 27.6 0.2 Q28.85 -0.3 30.05 0.45 L53.5 24.2 Q54.3 25.05 53.4 25.55 L53.35 25.55 53.35 25.65 52.0 26.15 51.95 33.85 52.8 33.5 53.3 33.5 53.3 33.6 53.4 33.75 Q54.15 34.7 53.3 35.25 L37.6 41.2 37.35 40.8 36.5 39.75 51.55 34.0 51.55 32.4 43.3 35.4 35.0 38.45 43.2 35.1 51.55 31.85 51.55 30.25 41.65 33.6 31.65 37.1 41.65 33.35 51.55 29.75 51.55 28.15 47.3 29.55 43.0 31.1 Q43.0 31.0 47.3 29.35 L51.55 27.65 51.65 26.35 M19.7 13.6 Q19.75 14.85 21.3 16.35 L22.95 17.95 23.05 17.95 22.45 18.1 22.25 18.3 Q21.85 18.35 21.7 18.55 21.45 18.8 22.1 19.35 L27.45 24.2 Q28.2 25.0 28.85 24.6 L39.1 20.5 Q40.0 20.2 39.15 19.55 L33.8 14.7 Q33.25 14.1 32.65 14.1 32.5 14.1 32.3 14.25 L32.25 14.25 Q31.85 14.45 31.4 14.6 L31.3 14.6 30.5 13.85 29.7 13.0 Q26.05 9.75 21.8 11.25 19.7 12.25 19.7 13.6 M28.3 17.25 L29.95 17.2 Q30.9 17.35 31.5 17.95 32.05 18.35 31.9 19.1 L31.65 19.45 33.5 20.95 31.75 21.6 30.05 20.05 29.4 20.05 Q28.45 19.85 27.9 19.45 27.3 18.85 27.35 18.3 27.6 17.7 28.3 17.25 M24.45 17.25 L23.1 16.1 Q20.7 13.85 23.1 12.55 26.1 11.6 28.55 13.85 L29.9 15.15 24.55 17.25 24.45 17.25 M4.75 14.2 L4.2 13.75 3.4 13.85 Q3.1 13.9 2.95 14.35 1.45 19.0 3.3 24.45 L3.9 25.0 4.55 25.0 Q4.95 24.85 5.15 24.55 L5.15 23.8 Q3.45 19.0 4.8 15.0 L4.75 14.2 M2.85 13.65 L2.45 14.2 Q1.45 17.45 2.05 21.15 L0.9 19.95 Q-0.75 15.35 0.6 11.35 L2.85 13.65 M5.8 24.45 Q4.2 19.95 5.3 16.2 L19.7 30.9 19.25 31.5 Q18.25 34.55 18.85 38.1 L5.8 25.0 5.8 24.45 M20.2 31.1 Q19.9 31.15 19.75 31.65 18.25 36.25 20.1 41.7 L20.7 42.3 21.35 42.3 21.95 41.8 21.95 41.1 Q20.3 36.25 21.6 32.25 L21.55 31.5 21.0 31.0 20.2 31.1 M25.85 37.1 L25.8 37.35 Q25.55 37.95 25.45 38.65 L25.3 39.7 25.3 40.8 25.4 41.7 25.55 42.7 25.7 43.85 26.3 45.55 26.2 45.55 22.65 41.95 22.55 41.7 Q21.0 37.35 22.1 33.45 L25.65 37.0 25.85 37.1 M28.45 40.0 Q31.75 42.1 34.4 47.7 L35.35 43.85 Q38.35 44.95 39.15 45.8 L39.2 45.75 Q36.55 40.3 33.25 38.25 L37.65 36.2 26.35 40.3 28.45 40.0 M27.45 45.05 L30.9 43.8 30.8 43.6 29.8 42.3 26.9 43.4 27.45 45.05 Z" fill="none" stroke="#000000" stroke-linecap="round" stroke-linejoin="round" stroke-opacity="0.2" stroke-width="1.5"/>
    </g>
    <g id="sprite37" transform="matrix(1.0, 0.0, 0.0, 1.0, 0.0, 0.0)">
      <use ffdec:characterId="40" height="47.7" transform="matrix(1.0, 0.0, 0.0, 1.0, 0.0, 0.0)" width="53.9" xlink:href="#shape2"/>
    </g>
    <g id="shape2" transform="matrix(1.0, 0.0, 0.0, 1.0, 0.0, 0.0)">
      <path d="M51.65 26.35 L26.2 35.9 1.15 10.25 27.6 0.15 Q28.85 -0.3 30.05 0.45 L53.5 24.2 Q54.3 25.05 53.45 25.55 L53.35 25.55 53.35 25.6 52.05 26.1 51.95 33.85 52.8 33.5 53.3 33.5 53.3 33.6 53.45 33.75 Q54.15 34.7 53.3 35.25 L37.6 41.15 37.35 40.75 36.5 39.75 51.55 34.0 51.55 32.4 43.3 35.4 35.0 38.4 43.25 35.1 51.55 31.85 51.55 30.2 41.65 33.6 31.7 37.05 41.65 33.35 51.55 29.7 51.55 28.15 47.3 29.55 43.0 31.05 47.3 29.35 Q49.45 28.4 51.55 27.6 L51.65 26.35 M19.7 13.55 Q19.75 14.8 21.35 16.3 L23.0 17.9 23.05 17.9 22.45 18.15 22.25 18.3 Q21.9 18.35 21.7 18.55 21.5 18.75 22.1 19.3 L27.45 24.2 Q28.25 25.0 28.85 24.6 L39.1 20.5 Q40.0 20.2 39.15 19.55 L33.8 14.65 Q33.25 14.1 32.65 14.1 32.5 14.1 32.3 14.25 L32.25 14.25 Q31.85 14.45 31.4 14.6 L31.3 14.6 30.5 13.8 29.75 13.0 Q26.05 9.7 21.8 11.2 19.7 12.2 19.7 13.55 M24.45 17.25 L23.15 16.1 Q20.7 13.8 23.15 12.55 26.1 11.6 28.55 13.8 L29.9 15.15 24.55 17.25 24.45 17.25 M27.35 18.3 Q27.6 17.65 28.3 17.25 L29.95 17.2 Q30.9 17.35 31.55 17.9 32.1 18.35 31.95 19.1 L31.7 19.4 33.5 20.95 31.75 21.6 30.05 20.0 29.4 20.0 Q28.45 19.85 27.9 19.4 27.3 18.85 27.35 18.3 M4.75 14.2 L4.85 15.0 Q3.5 19.0 5.15 23.8 L5.15 24.5 4.6 25.0 3.9 25.0 3.35 24.45 Q1.45 19.0 2.95 14.35 3.1 13.85 3.4 13.8 L4.2 13.7 4.75 14.2 M2.85 13.65 L2.5 14.2 Q1.45 17.4 2.1 21.15 L0.9 19.95 Q-0.75 15.3 0.6 11.35 L2.85 13.65 M5.85 24.45 Q4.2 19.95 5.3 16.15 L19.7 30.9 Q19.45 31.05 19.3 31.45 18.25 34.55 18.9 38.1 L5.85 25.0 5.85 24.45 M20.25 31.05 L21.0 31.0 Q21.4 31.05 21.55 31.45 L21.65 32.25 Q20.3 36.25 21.95 41.1 L21.95 41.8 21.4 42.25 20.7 42.25 20.15 41.7 Q18.25 36.25 19.75 31.6 19.9 31.15 20.25 31.05 M25.8 37.3 L25.5 38.65 25.35 39.65 25.35 40.75 25.4 41.7 25.55 42.65 25.75 43.85 26.25 45.5 26.2 45.5 22.65 41.95 22.6 41.7 Q21.0 37.3 22.1 33.45 L25.65 37.0 25.9 37.05 25.8 37.3 M27.45 45.0 L26.9 43.35 29.8 42.25 30.85 43.6 30.9 43.75 27.45 45.0 M28.45 40.0 L26.35 40.3 37.65 36.2 33.25 38.25 Q36.55 40.3 39.25 45.75 L39.15 45.8 Q38.35 44.95 35.4 43.85 L34.45 47.7 Q31.75 42.1 28.45 40.0" fill="#000000" fill-rule="evenodd" stroke="none"/>
    </g>
  </defs>
</svg>
