<?xml version="1.0" encoding="UTF-8" standalone="no"?>
<svg xmlns:ffdec="https://www.free-decompiler.com/flash" xmlns:xlink="http://www.w3.org/1999/xlink" ffdec:objectType="frame" height="56.0px" width="56.0px" xmlns="http://www.w3.org/2000/svg">
  <g transform="matrix(1.0, 0.0, 0.0, 1.0, 0.0, 0.0)">
    <use ffdec:characterId="38" ffdec:characterName="129_fla.Symbole111_1" height="56.0" id="back" transform="matrix(1.0, 0.0, 0.0, 1.0, 0.0, 0.0)" width="56.0" xlink:href="#sprite0"/>
    <use ffdec:characterId="40" height="55.55" id="back" transform="matrix(1.0, 0.0, 0.0, 1.0, 10.95, 0.45)" width="34.1" xlink:href="#sprite37"/>
    <use ffdec:characterId="42" height="54.05" id="up" transform="matrix(1.0, 0.0, 0.0, 1.0, 11.65, 1.2)" width="32.65" xlink:href="#sprite38"/>
  </g>
  <defs>
    <g id="sprite0" transform="matrix(1.0, 0.0, 0.0, 1.0, 0.0, 0.0)">
      <use ffdec:characterId="37" ffdec:characterName="129_fla.Symbole108_2" height="56.0" id="back" transform="matrix(1.0, 0.0, 0.0, 1.0, 0.0, 0.0)" width="56.0" xlink:href="#sprite1"/>
    </g>
    <g id="sprite1" transform="matrix(1.0, 0.0, 0.0, 1.0, 0.0, 0.0)">
      <use ffdec:characterId="36" ffdec:characterName="129_fla.Symbole105_3" height="56.0" id="back" transform="matrix(1.0, 0.0, 0.0, 1.0, 0.0, 0.0)" width="56.0" xlink:href="#sprite2"/>
    </g>
    <g id="sprite2" transform="matrix(1.0, 0.0, 0.0, 1.0, 0.0, 0.0)">
      <use ffdec:characterId="35" ffdec:characterName="129_fla.Symbole102_4" height="56.0" id="back" transform="matrix(1.0, 0.0, 0.0, 1.0, 0.0, 0.0)" width="56.0" xlink:href="#sprite3"/>
    </g>
    <g id="sprite3" transform="matrix(1.0, 0.0, 0.0, 1.0, 0.0, 0.0)">
      <use ffdec:characterId="34" ffdec:characterName="129_fla.Symbole99_5" height="56.0" id="back" transform="matrix(1.0, 0.0, 0.0, 1.0, 0.0, 0.0)" width="56.0" xlink:href="#sprite4"/>
    </g>
    <g id="sprite4" transform="matrix(1.0, 0.0, 0.0, 1.0, 0.0, 0.0)">
      <use ffdec:characterId="33" ffdec:characterName="129_fla.Symbole96_6" height="56.0" id="back" transform="matrix(1.0, 0.0, 0.0, 1.0, 0.0, 0.0)" width="56.0" xlink:href="#sprite5"/>
    </g>
    <g id="sprite5" transform="matrix(1.0, 0.0, 0.0, 1.0, 0.0, 0.0)">
      <use ffdec:characterId="32" ffdec:characterName="129_fla.Symbole93_7" height="56.0" id="back" transform="matrix(1.0, 0.0, 0.0, 1.0, 0.0, 0.0)" width="56.0" xlink:href="#sprite6"/>
    </g>
    <g id="sprite6" transform="matrix(1.0, 0.0, 0.0, 1.0, 0.0, 0.0)">
      <use ffdec:characterId="31" ffdec:characterName="129_fla.Symbole90_8" height="56.0" id="back" transform="matrix(1.0, 0.0, 0.0, 1.0, 0.0, 0.0)" width="56.0" xlink:href="#sprite7"/>
    </g>
    <g id="sprite7" transform="matrix(1.0, 0.0, 0.0, 1.0, 0.0, 0.0)">
      <use ffdec:characterId="30" ffdec:characterName="129_fla.Symbole87_9" height="56.0" id="back" transform="matrix(1.0, 0.0, 0.0, 1.0, 0.0, 0.0)" width="56.0" xlink:href="#sprite8"/>
    </g>
    <g id="sprite8" transform="matrix(1.0, 0.0, 0.0, 1.0, 0.0, 0.0)">
      <use ffdec:characterId="29" ffdec:characterName="129_fla.Symbole84_10" height="56.0" id="back" transform="matrix(1.0, 0.0, 0.0, 1.0, 0.0, 0.0)" width="56.0" xlink:href="#sprite9"/>
    </g>
    <g id="sprite9" transform="matrix(1.0, 0.0, 0.0, 1.0, 0.0, 0.0)">
      <use ffdec:characterId="28" ffdec:characterName="129_fla.Symbole81_11" height="56.0" id="back" transform="matrix(1.0, 0.0, 0.0, 1.0, 0.0, 0.0)" width="56.0" xlink:href="#sprite10"/>
    </g>
    <g id="sprite10" transform="matrix(1.0, 0.0, 0.0, 1.0, 0.0, 0.0)">
      <use ffdec:characterId="27" ffdec:characterName="129_fla.Symbole78_12" height="56.0" id="back" transform="matrix(1.0, 0.0, 0.0, 1.0, 0.0, 0.0)" width="56.0" xlink:href="#sprite11"/>
    </g>
    <g id="sprite11" transform="matrix(1.0, 0.0, 0.0, 1.0, 0.0, 0.0)">
      <use ffdec:characterId="26" ffdec:characterName="129_fla.Symbole75_13" height="56.0" id="back" transform="matrix(1.0, 0.0, 0.0, 1.0, 0.0, 0.0)" width="56.0" xlink:href="#sprite12"/>
    </g>
    <g id="sprite12" transform="matrix(1.0, 0.0, 0.0, 1.0, 0.0, 0.0)">
      <use ffdec:characterId="25" ffdec:characterName="129_fla.Symbole72_14" height="56.0" id="back" transform="matrix(1.0, 0.0, 0.0, 1.0, 0.0, 0.0)" width="56.0" xlink:href="#sprite13"/>
    </g>
    <g id="sprite13" transform="matrix(1.0, 0.0, 0.0, 1.0, 0.0, 0.0)">
      <use ffdec:characterId="24" ffdec:characterName="129_fla.Symbole69_15" height="56.0" id="back" transform="matrix(1.0, 0.0, 0.0, 1.0, 0.0, 0.0)" width="56.0" xlink:href="#sprite14"/>
    </g>
    <g id="sprite14" transform="matrix(1.0, 0.0, 0.0, 1.0, 0.0, 0.0)">
      <use ffdec:characterId="23" ffdec:characterName="129_fla.Symbole66_16" height="56.0" id="back" transform="matrix(1.0, 0.0, 0.0, 1.0, 0.0, 0.0)" width="56.0" xlink:href="#sprite15"/>
    </g>
    <g id="sprite15" transform="matrix(1.0, 0.0, 0.0, 1.0, 0.0, 0.0)">
      <use ffdec:characterId="22" ffdec:characterName="129_fla.Symbole63_17" height="56.0" id="back" transform="matrix(1.0, 0.0, 0.0, 1.0, 0.0, 0.0)" width="56.0" xlink:href="#sprite16"/>
    </g>
    <g id="sprite16" transform="matrix(1.0, 0.0, 0.0, 1.0, 0.0, 0.0)">
      <use ffdec:characterId="21" ffdec:characterName="129_fla.Symbole60_18" height="56.0" id="back" transform="matrix(1.0, 0.0, 0.0, 1.0, 0.0, 0.0)" width="56.0" xlink:href="#sprite17"/>
    </g>
    <g id="sprite17" transform="matrix(1.0, 0.0, 0.0, 1.0, 0.0, 0.0)">
      <use ffdec:characterId="20" ffdec:characterName="129_fla.Symbole57_19" height="56.0" id="back" transform="matrix(1.0, 0.0, 0.0, 1.0, 0.0, 0.0)" width="56.0" xlink:href="#sprite18"/>
    </g>
    <g id="sprite18" transform="matrix(1.0, 0.0, 0.0, 1.0, 0.0, 0.0)">
      <use ffdec:characterId="19" ffdec:characterName="129_fla.Symbole54_20" height="56.0" id="back" transform="matrix(1.0, 0.0, 0.0, 1.0, 0.0, 0.0)" width="56.0" xlink:href="#sprite19"/>
    </g>
    <g id="sprite19" transform="matrix(1.0, 0.0, 0.0, 1.0, 0.0, 0.0)">
      <use ffdec:characterId="18" ffdec:characterName="129_fla.Symbole51_21" height="56.0" id="back" transform="matrix(1.0, 0.0, 0.0, 1.0, 0.0, 0.0)" width="56.0" xlink:href="#sprite20"/>
    </g>
    <g id="sprite20" transform="matrix(1.0, 0.0, 0.0, 1.0, 0.0, 0.0)">
      <use ffdec:characterId="17" ffdec:characterName="129_fla.Symbole48_22" height="56.0" id="back" transform="matrix(1.0, 0.0, 0.0, 1.0, 0.0, 0.0)" width="56.0" xlink:href="#sprite21"/>
    </g>
    <g id="sprite21" transform="matrix(1.0, 0.0, 0.0, 1.0, 0.0, 0.0)">
      <use ffdec:characterId="16" ffdec:characterName="129_fla.Symbole45_23" height="56.0" id="back" transform="matrix(1.0, 0.0, 0.0, 1.0, 0.0, 0.0)" width="56.0" xlink:href="#sprite22"/>
    </g>
    <g id="sprite22" transform="matrix(1.0, 0.0, 0.0, 1.0, 0.0, 0.0)">
      <use ffdec:characterId="15" ffdec:characterName="129_fla.Symbole42_24" height="56.0" id="back" transform="matrix(1.0, 0.0, 0.0, 1.0, 0.0, 0.0)" width="56.0" xlink:href="#sprite23"/>
    </g>
    <g id="sprite23" transform="matrix(1.0, 0.0, 0.0, 1.0, 0.0, 0.0)">
      <use ffdec:characterId="14" ffdec:characterName="129_fla.Symbole39_25" height="56.0" id="back" transform="matrix(1.0, 0.0, 0.0, 1.0, 0.0, 0.0)" width="56.0" xlink:href="#sprite24"/>
    </g>
    <g id="sprite24" transform="matrix(1.0, 0.0, 0.0, 1.0, 0.0, 0.0)">
      <use ffdec:characterId="13" ffdec:characterName="129_fla.Symbole36_26" height="56.0" id="back" transform="matrix(1.0, 0.0, 0.0, 1.0, 0.0, 0.0)" width="56.0" xlink:href="#sprite25"/>
    </g>
    <g id="sprite25" transform="matrix(1.0, 0.0, 0.0, 1.0, 0.0, 0.0)">
      <use ffdec:characterId="12" ffdec:characterName="129_fla.Symbole33_27" height="56.0" id="back" transform="matrix(1.0, 0.0, 0.0, 1.0, 0.0, 0.0)" width="56.0" xlink:href="#sprite26"/>
    </g>
    <g id="sprite26" transform="matrix(1.0, 0.0, 0.0, 1.0, 0.0, 0.0)">
      <use ffdec:characterId="11" ffdec:characterName="129_fla.Symbole30_28" height="56.0" id="back" transform="matrix(1.0, 0.0, 0.0, 1.0, 0.0, 0.0)" width="56.0" xlink:href="#sprite27"/>
    </g>
    <g id="sprite27" transform="matrix(1.0, 0.0, 0.0, 1.0, 0.0, 0.0)">
      <use ffdec:characterId="10" ffdec:characterName="129_fla.Symbole27_29" height="56.0" id="back" transform="matrix(1.0, 0.0, 0.0, 1.0, 0.0, 0.0)" width="56.0" xlink:href="#sprite28"/>
    </g>
    <g id="sprite28" transform="matrix(1.0, 0.0, 0.0, 1.0, 0.0, 0.0)">
      <use ffdec:characterId="9" ffdec:characterName="129_fla.Symbole24_30" height="56.0" id="back" transform="matrix(1.0, 0.0, 0.0, 1.0, 0.0, 0.0)" width="56.0" xlink:href="#sprite29"/>
    </g>
    <g id="sprite29" transform="matrix(1.0, 0.0, 0.0, 1.0, 0.0, 0.0)">
      <use ffdec:characterId="8" ffdec:characterName="129_fla.Symbole21_31" height="56.0" id="back" transform="matrix(1.0, 0.0, 0.0, 1.0, 0.0, 0.0)" width="56.0" xlink:href="#sprite30"/>
    </g>
    <g id="sprite30" transform="matrix(1.0, 0.0, 0.0, 1.0, 0.0, 0.0)">
      <use ffdec:characterId="7" ffdec:characterName="129_fla.Symbole18_32" height="56.0" id="back" transform="matrix(1.0, 0.0, 0.0, 1.0, 0.0, 0.0)" width="56.0" xlink:href="#sprite31"/>
    </g>
    <g id="sprite31" transform="matrix(1.0, 0.0, 0.0, 1.0, 0.0, 0.0)">
      <use ffdec:characterId="6" ffdec:characterName="129_fla.Symbole15_33" height="56.0" id="back" transform="matrix(1.0, 0.0, 0.0, 1.0, 0.0, 0.0)" width="56.0" xlink:href="#sprite32"/>
    </g>
    <g id="sprite32" transform="matrix(1.0, 0.0, 0.0, 1.0, 0.0, 0.0)">
      <use ffdec:characterId="5" ffdec:characterName="129_fla.Symbole12_34" height="56.0" id="back" transform="matrix(1.0, 0.0, 0.0, 1.0, 0.0, 0.0)" width="56.0" xlink:href="#sprite33"/>
    </g>
    <g id="sprite33" transform="matrix(1.0, 0.0, 0.0, 1.0, 0.0, 0.0)">
      <use ffdec:characterId="4" ffdec:characterName="129_fla.Symbole9_35" height="56.0" id="back" transform="matrix(1.0, 0.0, 0.0, 1.0, 0.0, 0.0)" width="56.0" xlink:href="#sprite34"/>
    </g>
    <g id="sprite34" transform="matrix(1.0, 0.0, 0.0, 1.0, 0.0, 0.0)">
      <use ffdec:characterId="3" ffdec:characterName="129_fla.Symbole6_36" height="56.0" id="back" transform="matrix(1.0, 0.0, 0.0, 1.0, 0.0, 0.0)" width="56.0" xlink:href="#sprite35"/>
    </g>
    <g id="sprite35" transform="matrix(1.0, 0.0, 0.0, 1.0, 0.0, 0.0)">
      <use ffdec:characterId="2" height="56.0" id="back" transform="matrix(1.0, 0.0, 0.0, 1.0, 0.0, 0.0)" width="56.0" xlink:href="#sprite36"/>
    </g>
    <g id="sprite36" transform="matrix(1.0, 0.0, 0.0, 1.0, 0.0, 0.0)">
      <use ffdec:characterId="1" height="56.0" transform="matrix(1.0, 0.0, 0.0, 1.0, 0.0, 0.0)" width="56.0" xlink:href="#shape0"/>
    </g>
    <g id="shape0" transform="matrix(1.0, 0.0, 0.0, 1.0, 0.0, 0.0)">
      <path d="M56.0 56.0 L0.0 56.0 0.0 0.0 56.0 0.0 56.0 56.0" fill="#010101" fill-opacity="0.0" fill-rule="evenodd" stroke="none"/>
    </g>
    <g id="sprite37" transform="matrix(1.0, 0.0, 0.0, 1.0, 0.75, 0.75)">
      <use ffdec:characterId="39" height="55.55" transform="matrix(1.0, 0.0, 0.0, 1.0, -0.75, -0.75)" width="34.1" xlink:href="#shape1"/>
    </g>
    <g id="shape1" transform="matrix(1.0, 0.0, 0.0, 1.0, 0.75, 0.75)">
      <path d="M30.1 12.75 Q29.75 7.7 26.1 4.1 22.0 0.05 16.3 0.0 L16.05 0.0 Q10.35 0.0 6.2 4.1 2.5 7.7 2.1 12.75 L2.1 12.95 2.1 14.55 2.1 14.7 2.1 17.05 2.1 18.75 2.2 19.15 2.2 19.25 Q0.0 19.45 0.0 21.8 L0.0 40.55 Q0.25 42.55 1.05 44.65 1.95 46.85 3.85 48.75 L3.95 48.8 4.55 49.5 Q7.0 51.8 10.0 52.9 13.25 54.2 16.15 54.05 L16.3 54.05 Q23.05 54.05 27.75 49.5 31.85 45.7 32.45 40.45 L32.5 40.35 32.6 21.7 32.5 21.15 32.35 20.5 Q32.1 19.9 31.5 19.6 L31.2 19.35 30.65 19.35 30.2 19.25 30.2 18.75 30.2 14.55 30.1 14.55 30.1 12.95 30.1 12.75 M28.9 24.5 L28.9 24.25 28.65 24.25 27.9 24.35 27.8 23.65 27.65 23.45 27.55 23.45 Q27.4 23.3 27.35 23.45 L27.35 23.7 27.4 24.35 26.6 24.5 26.4 24.5 26.35 24.8 26.4 24.85 26.6 24.95 27.5 24.85 27.5 25.65 27.55 25.9 27.75 25.9 28.0 25.85 28.0 24.85 28.7 24.8 28.9 24.7 28.9 24.5 M29.3 27.0 Q28.35 27.65 27.3 27.4 26.1 27.25 25.35 26.35 24.75 25.35 24.85 24.2 25.0 23.1 25.95 22.4 26.95 21.65 28.0 21.9 29.25 22.05 29.9 22.95 30.65 23.9 30.45 25.05 30.3 26.25 29.3 27.0 M19.1 1.65 L18.6 1.65 18.35 2.0 18.35 2.35 18.7 2.7 19.85 3.1 20.25 3.1 20.6 2.8 20.5 2.35 20.25 2.05 19.1 1.65 M16.9 1.7 L16.75 1.4 16.3 1.2 Q10.8 1.2 6.95 5.25 3.4 8.75 3.05 13.5 L3.05 13.75 3.05 15.2 3.05 15.4 3.05 16.6 3.05 18.75 3.25 19.15 4.0 19.15 4.2 18.75 4.2 16.6 4.2 15.4 4.2 15.2 4.2 13.75 4.2 13.55 4.2 13.5 Q4.45 9.2 7.8 6.0 11.3 2.35 16.3 2.25 L16.75 2.1 16.9 1.7 M16.3 5.0 Q19.95 5.05 22.45 7.7 24.75 9.95 25.0 13.15 L25.0 14.7 25.1 14.7 25.1 18.75 25.2 19.15 7.1 19.15 7.1 18.75 7.1 17.05 7.1 14.7 7.1 14.55 7.1 13.15 Q7.45 9.95 9.8 7.7 12.35 5.0 16.05 5.0 L16.3 5.0 M2.5 20.15 L2.7 20.4 Q1.45 21.15 0.85 22.5 0.85 20.5 2.5 20.15 M7.0 22.65 Q7.85 23.45 7.85 24.6 7.85 25.75 7.0 26.7 6.2 27.4 5.05 27.4 3.85 27.4 3.0 26.7 2.25 25.75 2.25 24.6 2.25 23.45 3.0 22.65 3.85 21.8 5.05 21.8 6.2 21.8 7.0 22.65 M6.2 25.1 L6.15 24.95 5.4 24.5 5.8 23.9 5.8 23.65 5.6 23.55 5.5 23.45 5.35 23.65 4.9 24.2 4.3 23.9 4.1 23.9 4.0 23.95 Q3.85 24.05 3.95 24.2 L4.1 24.35 4.75 24.7 4.2 25.4 4.2 25.6 4.4 25.75 4.45 25.75 Q4.55 25.65 4.75 25.65 L5.15 24.95 5.8 25.35 5.95 25.4 6.2 25.3 6.2 25.1 M1.75 37.3 L1.55 37.85 1.55 39.15 1.75 39.6 Q1.95 39.85 2.25 39.85 L2.85 39.6 3.0 39.15 3.0 37.85 2.85 37.3 2.25 37.15 Q1.95 37.15 1.75 37.3 M1.85 40.55 Q2.0 42.3 2.85 44.15 3.65 46.1 5.35 47.85 L5.4 47.9 5.95 48.6 Q8.15 50.65 10.8 51.6 13.75 52.8 16.4 52.65 L16.5 52.65 20.9 52.05 17.55 52.35 17.45 52.35 Q14.9 52.55 11.95 51.4 9.35 50.3 7.1 48.25 L6.55 47.55 6.45 47.55 Q4.75 45.9 3.95 43.9 3.15 42.2 3.0 40.55 2.25 41.1 1.85 40.55 M20.35 29.5 L20.25 30.3 20.0 30.95 19.2 32.05 18.85 32.35 18.8 32.35 18.8 32.4 20.9 43.25 12.35 43.25 14.5 32.6 13.75 32.05 Q12.65 30.95 12.65 29.5 12.65 28.0 13.75 26.9 14.85 25.85 16.5 25.85 L17.7 26.0 Q18.05 26.1 18.3 26.35 L19.2 26.9 20.0 28.1 Q20.35 28.7 20.35 29.5 M18.55 25.3 L18.7 25.4 18.6 25.35 18.55 25.3 Q17.35 24.5 15.8 24.5 13.85 24.5 12.55 25.75 11.15 27.05 11.15 28.9 11.15 30.55 12.2 31.7 L12.05 31.6 Q10.65 30.2 10.65 28.45 10.65 26.7 12.05 25.35 13.35 24.05 15.35 24.05 17.25 24.05 18.55 25.3 M13.15 44.5 L13.05 44.65 13.15 44.75 13.25 44.75 13.75 44.75 13.95 44.75 13.95 44.65 13.95 44.5 13.75 44.4 13.25 44.4 13.15 44.5 M15.0 44.65 L15.15 44.75 15.35 44.75 21.75 44.75 22.0 44.75 22.1 44.65 22.0 44.5 21.75 44.4 15.35 44.4 15.15 44.5 Q15.0 44.5 15.0 44.65 Z" fill="none" stroke="#000000" stroke-linecap="round" stroke-linejoin="round" stroke-opacity="0.2" stroke-width="1.5"/>
    </g>
    <g id="sprite38" transform="matrix(1.0, 0.0, 0.0, 1.0, 0.0, 0.0)">
      <use ffdec:characterId="41" height="54.05" transform="matrix(1.0, 0.0, 0.0, 1.0, 0.0, 0.0)" width="32.65" xlink:href="#shape2"/>
    </g>
    <g id="shape2" transform="matrix(1.0, 0.0, 0.0, 1.0, 0.0, 0.0)">
      <path d="M30.2 12.75 L30.2 12.9 30.2 14.55 30.25 14.55 30.25 18.75 30.25 19.25 30.7 19.35 31.25 19.35 31.6 19.6 32.4 20.5 32.55 21.15 32.65 21.75 32.55 40.35 32.5 40.45 Q31.9 45.7 27.8 49.5 23.1 54.0 16.4 54.0 L16.2 54.0 Q13.35 54.2 10.05 52.95 7.1 51.8 4.6 49.5 L3.95 48.85 3.9 48.75 Q2.0 46.85 1.1 44.65 0.25 42.55 0.0 40.5 L0.0 21.8 Q0.0 19.45 2.25 19.25 L2.25 19.2 2.15 18.75 2.15 17.05 2.15 14.75 2.15 14.55 2.15 12.9 2.15 12.75 Q2.55 7.75 6.25 4.1 10.4 0.0 16.15 0.0 L16.4 0.0 Q22.05 0.05 26.15 4.1 29.75 7.75 30.2 12.75 M28.85 26.35 Q28.2 26.85 27.4 26.7 26.55 26.6 26.0 25.85 25.6 25.2 25.65 24.35 25.75 23.45 26.5 22.95 27.15 22.45 28.05 22.65 28.85 22.7 29.35 23.4 29.85 24.1 29.75 24.95 29.55 25.85 28.85 26.35 M29.35 27.0 Q30.35 26.25 30.5 25.05 30.7 23.85 29.95 22.95 29.3 22.05 28.05 21.9 27.0 21.65 26.0 22.4 25.1 23.15 24.9 24.2 24.75 25.35 25.4 26.35 26.15 27.25 27.3 27.4 28.4 27.65 29.35 27.0 M28.95 24.55 L28.95 24.3 28.7 24.3 27.95 24.35 27.9 23.65 27.7 23.45 27.65 23.45 Q27.45 23.3 27.4 23.45 L27.4 23.7 27.45 24.35 26.65 24.55 26.5 24.55 26.4 24.8 26.5 24.85 26.65 24.95 27.55 24.85 27.55 25.7 27.65 25.95 27.8 25.95 28.05 25.85 28.05 24.85 28.8 24.8 28.95 24.7 28.95 24.55 M20.3 2.05 L19.15 1.65 18.7 1.65 18.45 1.95 18.45 2.4 18.75 2.7 19.9 3.1 20.3 3.1 20.65 2.8 20.55 2.4 20.3 2.05 M16.8 2.15 L16.95 1.7 16.8 1.4 16.4 1.2 Q10.85 1.2 7.0 5.25 3.45 8.7 3.15 13.5 L3.15 13.75 3.15 15.25 3.15 15.4 3.15 16.65 3.15 18.75 3.3 19.2 4.05 19.2 4.2 18.75 4.2 16.65 4.2 15.4 4.2 15.25 4.2 13.75 4.2 13.6 4.2 13.5 Q4.55 9.2 7.85 6.0 11.35 2.4 16.4 2.3 L16.8 2.15 M7.1 22.65 Q6.25 21.8 5.1 21.8 3.9 21.8 3.05 22.65 2.3 23.45 2.3 24.6 2.3 25.75 3.05 26.7 3.9 27.4 5.1 27.4 6.25 27.4 7.1 26.7 7.9 25.75 7.9 24.6 7.9 23.45 7.1 22.65 M2.55 20.15 Q0.95 20.5 0.95 22.45 1.5 21.15 2.75 20.4 L2.55 20.15 M16.4 5.0 L16.15 5.0 Q12.45 5.0 9.9 7.75 7.5 9.95 7.15 13.15 L7.15 14.55 7.15 14.75 7.15 17.05 7.15 18.75 7.15 19.2 25.25 19.2 25.15 18.75 25.15 14.75 25.1 14.75 25.1 13.15 Q24.75 9.95 22.55 7.75 20.0 5.1 16.4 5.0 M6.6 23.2 Q7.1 23.8 7.1 24.6 7.1 25.5 6.6 26.1 5.95 26.7 5.05 26.7 4.2 26.7 3.65 26.1 3.0 25.5 3.0 24.6 3.0 23.8 3.65 23.2 4.2 22.55 5.05 22.55 5.95 22.55 6.6 23.2 M6.2 24.95 L5.45 24.55 5.85 23.85 5.85 23.65 5.7 23.55 5.55 23.45 5.35 23.65 4.95 24.2 4.4 23.85 4.15 23.85 4.05 23.95 3.95 24.2 4.15 24.35 4.8 24.7 4.3 25.45 4.3 25.6 4.45 25.75 4.55 25.75 4.8 25.7 5.2 24.95 5.85 25.35 6.0 25.45 6.25 25.3 6.25 25.1 6.2 24.95 M2.3 37.15 Q2.0 37.15 1.85 37.3 1.6 37.55 1.6 37.9 L1.6 39.1 Q1.6 39.45 1.85 39.6 2.0 39.85 2.3 39.85 L2.9 39.6 3.05 39.1 3.05 37.9 2.9 37.3 2.3 37.15 M1.9 40.5 Q2.1 42.35 2.9 44.15 3.7 46.1 5.35 47.85 L5.45 47.95 6.0 48.6 Q8.25 50.65 10.85 51.65 13.85 52.8 16.45 52.6 L16.55 52.6 21.0 52.05 17.6 52.35 17.55 52.35 Q15.0 52.55 12.0 51.4 9.4 50.3 7.15 48.25 L6.6 47.6 6.5 47.6 Q4.8 45.85 3.95 43.9 3.25 42.25 3.05 40.5 2.3 41.1 1.9 40.5 M18.7 25.35 Q17.35 24.05 15.4 24.05 13.4 24.05 12.1 25.35 10.7 26.7 10.7 28.5 10.7 30.2 12.1 31.6 L12.25 31.7 Q11.2 30.55 11.2 28.9 11.2 27.1 12.6 25.75 13.9 24.55 15.9 24.55 17.55 24.55 18.75 25.45 L18.7 25.35 M20.4 29.5 L20.1 28.1 19.25 26.9 18.35 26.35 Q18.1 26.1 17.75 26.0 L16.55 25.85 Q14.9 25.85 13.85 26.9 12.7 28.0 12.7 29.5 12.7 30.95 13.85 32.05 L14.55 32.6 12.45 43.25 21.0 43.25 18.85 32.45 18.85 32.35 18.9 32.35 19.25 32.05 20.1 30.95 20.3 30.3 20.4 29.5 M13.15 44.8 L13.35 44.8 13.85 44.8 14.0 44.8 14.0 44.65 14.0 44.45 13.85 44.4 13.35 44.4 13.15 44.45 13.1 44.65 13.15 44.8 M15.25 44.45 L15.05 44.65 15.25 44.8 15.4 44.8 21.8 44.8 22.05 44.8 22.15 44.65 22.05 44.45 21.8 44.4 15.4 44.4 15.25 44.45" fill="#000000" fill-rule="evenodd" stroke="none"/>
    </g>
  </defs>
</svg>
