<?xml version="1.0" encoding="UTF-8" standalone="no"?>
<svg xmlns:ffdec="https://www.free-decompiler.com/flash" xmlns:xlink="http://www.w3.org/1999/xlink" ffdec:objectType="frame" height="56.0px" width="56.0px" xmlns="http://www.w3.org/2000/svg">
  <g transform="matrix(1.0, 0.0, 0.0, 1.0, 0.0, 0.0)">
    <use ffdec:characterId="14" ffdec:characterName="13_fla.Symbole39_1" height="56.0" id="back" transform="matrix(1.0, 0.0, 0.0, 1.0, 0.0, 0.0)" width="56.0" xlink:href="#sprite0"/>
    <use ffdec:characterId="16" height="52.75" id="back" transform="matrix(1.0, 0.0, 0.0, 1.0, 0.4, 1.9)" width="55.4" xlink:href="#sprite13"/>
    <use ffdec:characterId="18" height="51.25" id="up" transform="matrix(1.0, 0.0, 0.0, 1.0, 1.15, 2.6)" width="53.9" xlink:href="#sprite14"/>
  </g>
  <defs>
    <g id="sprite0" transform="matrix(1.0, 0.0, 0.0, 1.0, 0.0, 0.0)">
      <use ffdec:characterId="13" ffdec:characterName="13_fla.Symbole36_2" height="56.0" id="back" transform="matrix(1.0, 0.0, 0.0, 1.0, 0.0, 0.0)" width="56.0" xlink:href="#sprite1"/>
    </g>
    <g id="sprite1" transform="matrix(1.0, 0.0, 0.0, 1.0, 0.0, 0.0)">
      <use ffdec:characterId="12" ffdec:characterName="13_fla.Symbole33_3" height="56.0" id="back" transform="matrix(1.0, 0.0, 0.0, 1.0, 0.0, 0.0)" width="56.0" xlink:href="#sprite2"/>
    </g>
    <g id="sprite2" transform="matrix(1.0, 0.0, 0.0, 1.0, 0.0, 0.0)">
      <use ffdec:characterId="11" ffdec:characterName="13_fla.Symbole30_4" height="56.0" id="back" transform="matrix(1.0, 0.0, 0.0, 1.0, 0.0, 0.0)" width="56.0" xlink:href="#sprite3"/>
    </g>
    <g id="sprite3" transform="matrix(1.0, 0.0, 0.0, 1.0, 0.0, 0.0)">
      <use ffdec:characterId="10" ffdec:characterName="13_fla.Symbole27_5" height="56.0" id="back" transform="matrix(1.0, 0.0, 0.0, 1.0, 0.0, 0.0)" width="56.0" xlink:href="#sprite4"/>
    </g>
    <g id="sprite4" transform="matrix(1.0, 0.0, 0.0, 1.0, 0.0, 0.0)">
      <use ffdec:characterId="9" ffdec:characterName="13_fla.Symbole24_6" height="56.0" id="back" transform="matrix(1.0, 0.0, 0.0, 1.0, 0.0, 0.0)" width="56.0" xlink:href="#sprite5"/>
    </g>
    <g id="sprite5" transform="matrix(1.0, 0.0, 0.0, 1.0, 0.0, 0.0)">
      <use ffdec:characterId="8" ffdec:characterName="13_fla.Symbole21_7" height="56.0" id="back" transform="matrix(1.0, 0.0, 0.0, 1.0, 0.0, 0.0)" width="56.0" xlink:href="#sprite6"/>
    </g>
    <g id="sprite6" transform="matrix(1.0, 0.0, 0.0, 1.0, 0.0, 0.0)">
      <use ffdec:characterId="7" ffdec:characterName="13_fla.Symbole18_8" height="56.0" id="back" transform="matrix(1.0, 0.0, 0.0, 1.0, 0.0, 0.0)" width="56.0" xlink:href="#sprite7"/>
    </g>
    <g id="sprite7" transform="matrix(1.0, 0.0, 0.0, 1.0, 0.0, 0.0)">
      <use ffdec:characterId="6" ffdec:characterName="13_fla.Symbole15_9" height="56.0" id="back" transform="matrix(1.0, 0.0, 0.0, 1.0, 0.0, 0.0)" width="56.0" xlink:href="#sprite8"/>
    </g>
    <g id="sprite8" transform="matrix(1.0, 0.0, 0.0, 1.0, 0.0, 0.0)">
      <use ffdec:characterId="5" ffdec:characterName="13_fla.Symbole12_10" height="56.0" id="back" transform="matrix(1.0, 0.0, 0.0, 1.0, 0.0, 0.0)" width="56.0" xlink:href="#sprite9"/>
    </g>
    <g id="sprite9" transform="matrix(1.0, 0.0, 0.0, 1.0, 0.0, 0.0)">
      <use ffdec:characterId="4" ffdec:characterName="13_fla.Symbole9_11" height="56.0" id="back" transform="matrix(1.0, 0.0, 0.0, 1.0, 0.0, 0.0)" width="56.0" xlink:href="#sprite10"/>
    </g>
    <g id="sprite10" transform="matrix(1.0, 0.0, 0.0, 1.0, 0.0, 0.0)">
      <use ffdec:characterId="3" ffdec:characterName="13_fla.Symbole6_12" height="56.0" id="back" transform="matrix(1.0, 0.0, 0.0, 1.0, 0.0, 0.0)" width="56.0" xlink:href="#sprite11"/>
    </g>
    <g id="sprite11" transform="matrix(1.0, 0.0, 0.0, 1.0, 0.0, 0.0)">
      <use ffdec:characterId="2" height="56.0" id="back" transform="matrix(1.0, 0.0, 0.0, 1.0, 0.0, 0.0)" width="56.0" xlink:href="#sprite12"/>
    </g>
    <g id="sprite12" transform="matrix(1.0, 0.0, 0.0, 1.0, 0.0, 0.0)">
      <use ffdec:characterId="1" height="56.0" transform="matrix(1.0, 0.0, 0.0, 1.0, 0.0, 0.0)" width="56.0" xlink:href="#shape0"/>
    </g>
    <g id="shape0" transform="matrix(1.0, 0.0, 0.0, 1.0, 0.0, 0.0)">
      <path d="M56.0 56.0 L0.0 56.0 0.0 0.0 56.0 0.0 56.0 56.0" fill="#010101" fill-opacity="0.0" fill-rule="evenodd" stroke="none"/>
    </g>
    <g id="sprite13" transform="matrix(1.0, 0.0, 0.0, 1.0, 0.75, 0.75)">
      <use ffdec:characterId="15" height="52.75" transform="matrix(1.0, 0.0, 0.0, 1.0, -0.75, -0.75)" width="55.4" xlink:href="#shape1"/>
    </g>
    <g id="shape1" transform="matrix(1.0, 0.0, 0.0, 1.0, 0.75, 0.75)">
      <path d="M43.8 8.65 Q42.95 7.35 41.5 6.7 40.2 6.0 38.6 6.0 35.05 6.0 33.2 8.8 39.45 11.15 42.7 17.0 45.55 17.2 48.1 18.7 50.55 20.05 52.05 22.4 53.7 24.65 53.9 27.2 54.0 29.95 52.6 32.4 51.4 34.35 49.45 35.0 47.45 35.65 45.95 34.5 45.1 33.85 44.85 32.85 44.65 31.75 45.15 30.85 45.7 29.95 46.8 29.6 47.75 29.35 48.75 29.95 49.65 30.5 50.05 31.7 51.55 28.95 49.8 25.9 48.1 22.8 44.65 22.6 45.8 29.35 42.35 34.95 43.55 37.55 43.55 40.55 43.55 43.35 42.35 45.85 41.2 48.35 39.15 49.7 36.7 51.25 33.9 51.25 31.55 51.25 30.1 49.85 28.5 48.35 28.8 46.6 28.95 45.55 29.8 44.7 30.5 44.0 31.55 44.0 32.6 44.0 33.45 44.85 34.15 45.6 34.15 46.7 34.15 47.75 33.3 48.65 36.3 48.55 38.15 45.6 40.0 42.5 38.45 39.45 33.2 43.8 26.6 43.65 25.05 46.0 22.45 47.45 19.9 48.8 17.3 49.05 14.45 49.25 12.2 48.2 9.7 47.05 8.3 44.45 7.2 42.5 7.65 40.55 8.1 38.4 9.75 37.7 L11.75 37.6 Q12.8 37.8 13.4 38.85 13.9 39.75 13.6 40.85 13.25 41.85 12.35 42.35 L10.2 42.55 Q11.9 45.3 15.3 45.3 18.85 45.3 20.7 42.5 14.35 40.15 11.2 34.35 8.3 34.05 5.8 32.6 3.3 31.25 1.85 28.95 0.25 26.7 0.0 24.1 -0.2 21.3 1.3 18.8 2.45 16.85 4.4 16.35 6.5 15.7 8.0 16.85 8.7 17.4 9.05 18.5 9.3 19.45 8.7 20.45 8.25 21.3 7.2 21.6 6.1 21.95 5.2 21.35 4.2 20.75 3.9 19.6 3.15 20.9 3.25 22.5 3.3 23.95 4.1 25.4 5.8 28.5 9.3 28.65 8.1 21.95 11.5 16.35 10.2 13.75 10.35 10.8 10.35 8.0 11.5 5.55 12.75 3.0 14.85 1.5 17.15 0.0 20.05 0.0 22.25 0.0 23.8 1.5 25.3 2.95 25.1 4.75 24.9 5.75 24.25 6.45 23.4 7.3 22.45 7.3 21.2 7.3 20.5 6.45 19.75 5.75 19.75 4.7 19.75 3.4 20.7 2.55 17.55 2.7 15.75 5.75 13.9 8.8 15.55 11.8 20.7 7.5 27.25 7.7 28.9 5.3 31.45 3.8 33.95 2.35 36.65 2.15 39.45 1.95 41.7 3.0 44.25 4.25 45.7 6.85 46.7 8.8 46.25 10.8 45.8 12.9 44.1 13.6 L42.1 13.75 Q41.05 13.4 40.6 12.55 40.0 11.6 40.35 10.5 40.55 9.4 41.5 8.85 L43.8 8.65 Z" fill="none" stroke="#000000" stroke-linecap="round" stroke-linejoin="round" stroke-opacity="0.2" stroke-width="1.5"/>
    </g>
    <g id="sprite14" transform="matrix(1.0, 0.0, 0.0, 1.0, 0.0, 0.0)">
      <use ffdec:characterId="17" height="51.25" transform="matrix(1.0, 0.0, 0.0, 1.0, 0.0, 0.0)" width="53.9" xlink:href="#shape2"/>
    </g>
    <g id="shape2" transform="matrix(1.0, 0.0, 0.0, 1.0, 0.0, 0.0)">
      <path d="M43.75 8.65 Q42.9 7.35 41.45 6.7 40.15 6.0 38.6 6.0 35.0 6.0 33.2 8.8 39.45 11.2 42.7 17.0 45.5 17.25 48.1 18.75 50.5 20.1 52.05 22.45 53.7 24.65 53.9 27.25 53.95 30.0 52.6 32.45 51.4 34.4 49.45 35.05 47.45 35.7 45.9 34.55 45.05 33.9 44.85 32.85 44.65 31.8 45.15 30.95 45.7 30.0 46.8 29.65 47.7 29.35 48.7 30.0 49.65 30.5 50.0 31.7 51.55 29.0 49.8 25.95 48.1 22.85 44.65 22.65 45.8 29.35 42.35 34.95 43.55 37.55 43.55 40.6 43.55 43.4 42.35 45.85 41.2 48.35 39.1 49.75 36.7 51.25 33.85 51.25 31.55 51.25 30.05 49.9 28.45 48.35 28.75 46.65 28.95 45.55 29.75 44.75 30.45 44.05 31.55 44.05 32.55 44.05 33.4 44.9 34.15 45.65 34.15 46.7 34.15 47.8 33.25 48.65 36.3 48.6 38.15 45.65 39.95 42.55 38.45 39.5 33.2 43.85 26.6 43.7 25.0 46.05 22.4 47.5 19.9 48.85 17.25 49.1 14.45 49.3 12.15 48.2 9.7 47.05 8.25 44.5 7.2 42.55 7.6 40.6 8.05 38.4 9.75 37.75 L11.7 37.65 Q12.8 37.85 13.35 38.85 13.85 39.8 13.6 40.85 13.2 41.9 12.35 42.4 L10.2 42.6 Q11.85 45.35 15.3 45.35 18.85 45.35 20.7 42.55 14.3 40.15 11.2 34.4 8.25 34.1 5.8 32.65 3.3 31.3 1.8 29.0 0.2 26.75 0.0 24.15 -0.2 21.35 1.3 18.8 2.45 16.9 4.4 16.35 6.45 15.7 7.95 16.9 8.7 17.45 9.05 18.55 9.25 19.45 8.7 20.5 8.2 21.35 7.2 21.65 6.1 22.0 5.15 21.4 4.15 20.75 3.9 19.6 3.1 20.9 3.25 22.5 3.3 24.0 4.1 25.45 5.8 28.55 9.25 28.7 8.05 22.0 11.5 16.35 10.2 13.8 10.35 10.8 10.35 8.0 11.5 5.55 12.7 3.05 14.85 1.55 17.1 0.0 20.05 0.0 22.2 0.0 23.8 1.55 25.3 2.95 25.1 4.75 24.85 5.8 24.2 6.5 23.35 7.3 22.4 7.3 21.2 7.3 20.5 6.5 19.7 5.8 19.7 4.7 19.7 3.45 20.7 2.6 17.55 2.75 15.75 5.8 13.85 8.8 15.5 11.85 20.7 7.5 27.25 7.75 28.9 5.35 31.45 3.85 33.9 2.4 36.65 2.2 39.45 1.95 41.7 3.05 44.2 4.25 45.7 6.85 46.65 8.8 46.2 10.8 45.8 12.9 44.05 13.65 L42.1 13.8 Q41.05 13.4 40.6 12.55 39.95 11.6 40.3 10.55 40.55 9.45 41.45 8.9 L43.75 8.65" fill="#000000" fill-rule="evenodd" stroke="none"/>
    </g>
  </defs>
</svg>
