<?xml version="1.0" encoding="UTF-8" standalone="no"?>
<svg xmlns:ffdec="https://www.free-decompiler.com/flash" xmlns:xlink="http://www.w3.org/1999/xlink" ffdec:objectType="frame" height="56.0px" width="56.0px" xmlns="http://www.w3.org/2000/svg">
  <g transform="matrix(1.0, 0.0, 0.0, 1.0, 0.0, 0.0)">
    <use ffdec:characterId="39" ffdec:characterName="130_fla.Symbole114_1" height="56.0" id="back" transform="matrix(1.0, 0.0, 0.0, 1.0, 0.0, 0.0)" width="56.0" xlink:href="#sprite0"/>
    <use ffdec:characterId="41" height="55.5" id="back" transform="matrix(1.0, 0.0, 0.0, 1.0, 11.95, 0.5)" width="31.95" xlink:href="#sprite38"/>
    <use ffdec:characterId="43" height="54.0" id="up" transform="matrix(1.0, 0.0, 0.0, 1.0, 12.65, 1.2)" width="30.45" xlink:href="#sprite39"/>
  </g>
  <defs>
    <g id="sprite0" transform="matrix(1.0, 0.0, 0.0, 1.0, 0.0, 0.0)">
      <use ffdec:characterId="38" ffdec:characterName="130_fla.Symbole111_2" height="56.0" id="back" transform="matrix(1.0, 0.0, 0.0, 1.0, 0.0, 0.0)" width="56.0" xlink:href="#sprite1"/>
    </g>
    <g id="sprite1" transform="matrix(1.0, 0.0, 0.0, 1.0, 0.0, 0.0)">
      <use ffdec:characterId="37" ffdec:characterName="130_fla.Symbole108_3" height="56.0" id="back" transform="matrix(1.0, 0.0, 0.0, 1.0, 0.0, 0.0)" width="56.0" xlink:href="#sprite2"/>
    </g>
    <g id="sprite2" transform="matrix(1.0, 0.0, 0.0, 1.0, 0.0, 0.0)">
      <use ffdec:characterId="36" ffdec:characterName="130_fla.Symbole105_4" height="56.0" id="back" transform="matrix(1.0, 0.0, 0.0, 1.0, 0.0, 0.0)" width="56.0" xlink:href="#sprite3"/>
    </g>
    <g id="sprite3" transform="matrix(1.0, 0.0, 0.0, 1.0, 0.0, 0.0)">
      <use ffdec:characterId="35" ffdec:characterName="130_fla.Symbole102_5" height="56.0" id="back" transform="matrix(1.0, 0.0, 0.0, 1.0, 0.0, 0.0)" width="56.0" xlink:href="#sprite4"/>
    </g>
    <g id="sprite4" transform="matrix(1.0, 0.0, 0.0, 1.0, 0.0, 0.0)">
      <use ffdec:characterId="34" ffdec:characterName="130_fla.Symbole99_6" height="56.0" id="back" transform="matrix(1.0, 0.0, 0.0, 1.0, 0.0, 0.0)" width="56.0" xlink:href="#sprite5"/>
    </g>
    <g id="sprite5" transform="matrix(1.0, 0.0, 0.0, 1.0, 0.0, 0.0)">
      <use ffdec:characterId="33" ffdec:characterName="130_fla.Symbole96_7" height="56.0" id="back" transform="matrix(1.0, 0.0, 0.0, 1.0, 0.0, 0.0)" width="56.0" xlink:href="#sprite6"/>
    </g>
    <g id="sprite6" transform="matrix(1.0, 0.0, 0.0, 1.0, 0.0, 0.0)">
      <use ffdec:characterId="32" ffdec:characterName="130_fla.Symbole93_8" height="56.0" id="back" transform="matrix(1.0, 0.0, 0.0, 1.0, 0.0, 0.0)" width="56.0" xlink:href="#sprite7"/>
    </g>
    <g id="sprite7" transform="matrix(1.0, 0.0, 0.0, 1.0, 0.0, 0.0)">
      <use ffdec:characterId="31" ffdec:characterName="130_fla.Symbole90_9" height="56.0" id="back" transform="matrix(1.0, 0.0, 0.0, 1.0, 0.0, 0.0)" width="56.0" xlink:href="#sprite8"/>
    </g>
    <g id="sprite8" transform="matrix(1.0, 0.0, 0.0, 1.0, 0.0, 0.0)">
      <use ffdec:characterId="30" ffdec:characterName="130_fla.Symbole87_10" height="56.0" id="back" transform="matrix(1.0, 0.0, 0.0, 1.0, 0.0, 0.0)" width="56.0" xlink:href="#sprite9"/>
    </g>
    <g id="sprite9" transform="matrix(1.0, 0.0, 0.0, 1.0, 0.0, 0.0)">
      <use ffdec:characterId="29" ffdec:characterName="130_fla.Symbole84_11" height="56.0" id="back" transform="matrix(1.0, 0.0, 0.0, 1.0, 0.0, 0.0)" width="56.0" xlink:href="#sprite10"/>
    </g>
    <g id="sprite10" transform="matrix(1.0, 0.0, 0.0, 1.0, 0.0, 0.0)">
      <use ffdec:characterId="28" ffdec:characterName="130_fla.Symbole81_12" height="56.0" id="back" transform="matrix(1.0, 0.0, 0.0, 1.0, 0.0, 0.0)" width="56.0" xlink:href="#sprite11"/>
    </g>
    <g id="sprite11" transform="matrix(1.0, 0.0, 0.0, 1.0, 0.0, 0.0)">
      <use ffdec:characterId="27" ffdec:characterName="130_fla.Symbole78_13" height="56.0" id="back" transform="matrix(1.0, 0.0, 0.0, 1.0, 0.0, 0.0)" width="56.0" xlink:href="#sprite12"/>
    </g>
    <g id="sprite12" transform="matrix(1.0, 0.0, 0.0, 1.0, 0.0, 0.0)">
      <use ffdec:characterId="26" ffdec:characterName="130_fla.Symbole75_14" height="56.0" id="back" transform="matrix(1.0, 0.0, 0.0, 1.0, 0.0, 0.0)" width="56.0" xlink:href="#sprite13"/>
    </g>
    <g id="sprite13" transform="matrix(1.0, 0.0, 0.0, 1.0, 0.0, 0.0)">
      <use ffdec:characterId="25" ffdec:characterName="130_fla.Symbole72_15" height="56.0" id="back" transform="matrix(1.0, 0.0, 0.0, 1.0, 0.0, 0.0)" width="56.0" xlink:href="#sprite14"/>
    </g>
    <g id="sprite14" transform="matrix(1.0, 0.0, 0.0, 1.0, 0.0, 0.0)">
      <use ffdec:characterId="24" ffdec:characterName="130_fla.Symbole69_16" height="56.0" id="back" transform="matrix(1.0, 0.0, 0.0, 1.0, 0.0, 0.0)" width="56.0" xlink:href="#sprite15"/>
    </g>
    <g id="sprite15" transform="matrix(1.0, 0.0, 0.0, 1.0, 0.0, 0.0)">
      <use ffdec:characterId="23" ffdec:characterName="130_fla.Symbole66_17" height="56.0" id="back" transform="matrix(1.0, 0.0, 0.0, 1.0, 0.0, 0.0)" width="56.0" xlink:href="#sprite16"/>
    </g>
    <g id="sprite16" transform="matrix(1.0, 0.0, 0.0, 1.0, 0.0, 0.0)">
      <use ffdec:characterId="22" ffdec:characterName="130_fla.Symbole63_18" height="56.0" id="back" transform="matrix(1.0, 0.0, 0.0, 1.0, 0.0, 0.0)" width="56.0" xlink:href="#sprite17"/>
    </g>
    <g id="sprite17" transform="matrix(1.0, 0.0, 0.0, 1.0, 0.0, 0.0)">
      <use ffdec:characterId="21" ffdec:characterName="130_fla.Symbole60_19" height="56.0" id="back" transform="matrix(1.0, 0.0, 0.0, 1.0, 0.0, 0.0)" width="56.0" xlink:href="#sprite18"/>
    </g>
    <g id="sprite18" transform="matrix(1.0, 0.0, 0.0, 1.0, 0.0, 0.0)">
      <use ffdec:characterId="20" ffdec:characterName="130_fla.Symbole57_20" height="56.0" id="back" transform="matrix(1.0, 0.0, 0.0, 1.0, 0.0, 0.0)" width="56.0" xlink:href="#sprite19"/>
    </g>
    <g id="sprite19" transform="matrix(1.0, 0.0, 0.0, 1.0, 0.0, 0.0)">
      <use ffdec:characterId="19" ffdec:characterName="130_fla.Symbole54_21" height="56.0" id="back" transform="matrix(1.0, 0.0, 0.0, 1.0, 0.0, 0.0)" width="56.0" xlink:href="#sprite20"/>
    </g>
    <g id="sprite20" transform="matrix(1.0, 0.0, 0.0, 1.0, 0.0, 0.0)">
      <use ffdec:characterId="18" ffdec:characterName="130_fla.Symbole51_22" height="56.0" id="back" transform="matrix(1.0, 0.0, 0.0, 1.0, 0.0, 0.0)" width="56.0" xlink:href="#sprite21"/>
    </g>
    <g id="sprite21" transform="matrix(1.0, 0.0, 0.0, 1.0, 0.0, 0.0)">
      <use ffdec:characterId="17" ffdec:characterName="130_fla.Symbole48_23" height="56.0" id="back" transform="matrix(1.0, 0.0, 0.0, 1.0, 0.0, 0.0)" width="56.0" xlink:href="#sprite22"/>
    </g>
    <g id="sprite22" transform="matrix(1.0, 0.0, 0.0, 1.0, 0.0, 0.0)">
      <use ffdec:characterId="16" ffdec:characterName="130_fla.Symbole45_24" height="56.0" id="back" transform="matrix(1.0, 0.0, 0.0, 1.0, 0.0, 0.0)" width="56.0" xlink:href="#sprite23"/>
    </g>
    <g id="sprite23" transform="matrix(1.0, 0.0, 0.0, 1.0, 0.0, 0.0)">
      <use ffdec:characterId="15" ffdec:characterName="130_fla.Symbole42_25" height="56.0" id="back" transform="matrix(1.0, 0.0, 0.0, 1.0, 0.0, 0.0)" width="56.0" xlink:href="#sprite24"/>
    </g>
    <g id="sprite24" transform="matrix(1.0, 0.0, 0.0, 1.0, 0.0, 0.0)">
      <use ffdec:characterId="14" ffdec:characterName="130_fla.Symbole39_26" height="56.0" id="back" transform="matrix(1.0, 0.0, 0.0, 1.0, 0.0, 0.0)" width="56.0" xlink:href="#sprite25"/>
    </g>
    <g id="sprite25" transform="matrix(1.0, 0.0, 0.0, 1.0, 0.0, 0.0)">
      <use ffdec:characterId="13" ffdec:characterName="130_fla.Symbole36_27" height="56.0" id="back" transform="matrix(1.0, 0.0, 0.0, 1.0, 0.0, 0.0)" width="56.0" xlink:href="#sprite26"/>
    </g>
    <g id="sprite26" transform="matrix(1.0, 0.0, 0.0, 1.0, 0.0, 0.0)">
      <use ffdec:characterId="12" ffdec:characterName="130_fla.Symbole33_28" height="56.0" id="back" transform="matrix(1.0, 0.0, 0.0, 1.0, 0.0, 0.0)" width="56.0" xlink:href="#sprite27"/>
    </g>
    <g id="sprite27" transform="matrix(1.0, 0.0, 0.0, 1.0, 0.0, 0.0)">
      <use ffdec:characterId="11" ffdec:characterName="130_fla.Symbole30_29" height="56.0" id="back" transform="matrix(1.0, 0.0, 0.0, 1.0, 0.0, 0.0)" width="56.0" xlink:href="#sprite28"/>
    </g>
    <g id="sprite28" transform="matrix(1.0, 0.0, 0.0, 1.0, 0.0, 0.0)">
      <use ffdec:characterId="10" ffdec:characterName="130_fla.Symbole27_30" height="56.0" id="back" transform="matrix(1.0, 0.0, 0.0, 1.0, 0.0, 0.0)" width="56.0" xlink:href="#sprite29"/>
    </g>
    <g id="sprite29" transform="matrix(1.0, 0.0, 0.0, 1.0, 0.0, 0.0)">
      <use ffdec:characterId="9" ffdec:characterName="130_fla.Symbole24_31" height="56.0" id="back" transform="matrix(1.0, 0.0, 0.0, 1.0, 0.0, 0.0)" width="56.0" xlink:href="#sprite30"/>
    </g>
    <g id="sprite30" transform="matrix(1.0, 0.0, 0.0, 1.0, 0.0, 0.0)">
      <use ffdec:characterId="8" ffdec:characterName="130_fla.Symbole21_32" height="56.0" id="back" transform="matrix(1.0, 0.0, 0.0, 1.0, 0.0, 0.0)" width="56.0" xlink:href="#sprite31"/>
    </g>
    <g id="sprite31" transform="matrix(1.0, 0.0, 0.0, 1.0, 0.0, 0.0)">
      <use ffdec:characterId="7" ffdec:characterName="130_fla.Symbole18_33" height="56.0" id="back" transform="matrix(1.0, 0.0, 0.0, 1.0, 0.0, 0.0)" width="56.0" xlink:href="#sprite32"/>
    </g>
    <g id="sprite32" transform="matrix(1.0, 0.0, 0.0, 1.0, 0.0, 0.0)">
      <use ffdec:characterId="6" ffdec:characterName="130_fla.Symbole15_34" height="56.0" id="back" transform="matrix(1.0, 0.0, 0.0, 1.0, 0.0, 0.0)" width="56.0" xlink:href="#sprite33"/>
    </g>
    <g id="sprite33" transform="matrix(1.0, 0.0, 0.0, 1.0, 0.0, 0.0)">
      <use ffdec:characterId="5" ffdec:characterName="130_fla.Symbole12_35" height="56.0" id="back" transform="matrix(1.0, 0.0, 0.0, 1.0, 0.0, 0.0)" width="56.0" xlink:href="#sprite34"/>
    </g>
    <g id="sprite34" transform="matrix(1.0, 0.0, 0.0, 1.0, 0.0, 0.0)">
      <use ffdec:characterId="4" ffdec:characterName="130_fla.Symbole9_36" height="56.0" id="back" transform="matrix(1.0, 0.0, 0.0, 1.0, 0.0, 0.0)" width="56.0" xlink:href="#sprite35"/>
    </g>
    <g id="sprite35" transform="matrix(1.0, 0.0, 0.0, 1.0, 0.0, 0.0)">
      <use ffdec:characterId="3" ffdec:characterName="130_fla.Symbole6_37" height="56.0" id="back" transform="matrix(1.0, 0.0, 0.0, 1.0, 0.0, 0.0)" width="56.0" xlink:href="#sprite36"/>
    </g>
    <g id="sprite36" transform="matrix(1.0, 0.0, 0.0, 1.0, 0.0, 0.0)">
      <use ffdec:characterId="2" height="56.0" id="back" transform="matrix(1.0, 0.0, 0.0, 1.0, 0.0, 0.0)" width="56.0" xlink:href="#sprite37"/>
    </g>
    <g id="sprite37" transform="matrix(1.0, 0.0, 0.0, 1.0, 0.0, 0.0)">
      <use ffdec:characterId="1" height="56.0" transform="matrix(1.0, 0.0, 0.0, 1.0, 0.0, 0.0)" width="56.0" xlink:href="#shape0"/>
    </g>
    <g id="shape0" transform="matrix(1.0, 0.0, 0.0, 1.0, 0.0, 0.0)">
      <path d="M56.0 56.0 L0.0 56.0 0.0 0.0 56.0 0.0 56.0 56.0" fill="#010101" fill-opacity="0.0" fill-rule="evenodd" stroke="none"/>
    </g>
    <g id="sprite38" transform="matrix(1.0, 0.0, 0.0, 1.0, 0.75, 0.75)">
      <use ffdec:characterId="40" height="55.5" transform="matrix(1.0, 0.0, 0.0, 1.0, -0.75, -0.75)" width="31.95" xlink:href="#shape1"/>
    </g>
    <g id="shape1" transform="matrix(1.0, 0.0, 0.0, 1.0, 0.75, 0.75)">
      <path d="M28.35 8.75 Q25.25 5.0 21.0 5.0 19.9 5.0 18.35 6.0 L17.75 6.35 17.3 6.7 17.25 6.75 16.5 7.45 Q15.75 6.2 16.65 4.6 L17.55 4.6 Q18.05 4.45 17.85 3.95 L15.95 0.55 Q15.3 -0.55 14.7 0.55 L12.8 4.1 Q12.7 4.45 13.1 4.6 L14.0 4.6 Q14.85 6.1 14.05 7.3 L13.7 7.0 Q11.1 4.75 9.45 4.75 L8.95 4.75 Q4.95 4.85 2.15 8.45 0.1 10.9 0.05 13.8 -0.1 15.15 0.35 16.65 0.85 18.7 2.4 20.35 3.95 22.1 6.65 23.25 9.25 24.35 10.8 25.55 L12.35 27.25 12.65 27.8 13.3 28.65 13.75 28.65 13.75 29.5 13.0 29.5 12.2 29.75 Q11.95 30.05 11.95 30.55 L12.2 31.25 Q12.5 31.55 12.95 31.55 L13.75 31.55 13.75 51.4 13.3 51.8 13.1 52.75 13.3 53.55 13.75 53.95 17.25 54.0 17.6 53.7 17.85 52.8 17.7 51.8 Q17.45 51.45 17.25 51.45 L17.0 51.45 17.0 50.3 19.65 50.3 20.35 50.3 21.7 50.05 Q23.1 49.55 24.05 48.2 24.7 47.1 24.7 45.85 25.0 43.1 23.0 41.4 L22.95 41.55 Q22.5 42.35 21.0 42.95 L20.65 43.0 Q20.2 43.15 20.0 43.4 19.15 44.2 19.75 45.5 L20.55 45.7 Q21.75 45.5 21.7 44.6 L21.45 44.05 21.85 44.3 22.2 45.1 Q22.6 46.35 20.95 47.55 L20.4 47.85 19.1 48.0 17.0 47.85 17.0 40.15 20.65 40.15 21.3 39.9 Q21.7 39.55 21.7 39.2 L21.4 38.45 Q21.15 38.05 20.7 38.05 L17.0 38.05 17.0 31.6 17.9 31.6 Q18.25 31.6 18.65 31.3 L18.85 30.65 18.65 29.85 Q18.35 29.55 17.9 29.55 L17.0 29.55 17.0 28.65 17.4 28.65 17.75 28.15 17.9 27.8 18.55 26.95 Q20.0 25.15 23.75 23.55 28.9 21.3 30.1 16.9 31.3 12.55 28.35 8.75 M20.15 8.85 L18.8 9.1 Q18.4 9.2 17.9 9.45 L17.1 10.05 17.0 10.1 16.7 10.25 16.15 10.65 Q17.0 10.9 17.85 11.65 18.5 12.35 18.65 13.0 19.15 14.65 18.65 15.35 L18.65 15.5 16.5 14.65 Q14.35 13.8 14.05 13.4 L14.1 13.25 14.5 12.85 15.8 12.9 15.95 13.15 15.95 13.3 16.05 13.25 15.75 12.35 15.4 11.8 14.0 11.65 13.3 11.8 Q12.45 12.4 12.65 13.25 L12.85 14.1 Q14.1 15.3 17.25 15.75 18.55 15.9 20.15 17.15 L20.2 17.15 Q22.1 19.9 20.95 22.4 21.6 22.05 22.5 21.75 26.7 20.2 27.75 17.15 28.8 14.05 26.25 11.45 23.75 8.95 20.4 8.85 L20.15 8.85 M22.5 7.15 L22.85 7.05 23.1 6.75 23.0 6.5 22.7 6.2 Q21.15 5.65 18.85 6.75 L18.8 6.85 17.15 7.95 16.95 8.25 17.0 8.6 17.3 8.75 17.6 8.75 19.3 7.6 Q21.15 6.65 22.5 7.15 M24.4 7.65 L25.45 8.6 25.75 8.75 26.1 8.6 26.2 8.25 26.05 7.95 25.0 7.05 Q24.85 6.9 24.65 6.9 L24.35 7.15 Q24.2 7.2 24.2 7.45 L24.4 7.65 M15.75 1.2 L15.6 0.9 15.25 0.9 15.0 1.15 14.0 3.2 Q13.85 3.35 14.0 3.5 L14.1 3.75 14.5 3.75 14.7 3.5 15.75 1.5 15.75 1.2 M10.8 8.6 L10.4 8.6 Q8.7 8.6 7.3 9.2 5.75 9.9 4.35 11.2 L4.1 11.6 Q2.65 13.1 2.55 14.95 L2.65 15.9 2.7 16.5 2.85 16.9 Q3.85 20.0 8.1 21.45 L10.05 22.35 9.7 21.15 Q9.1 18.05 11.0 15.85 L11.1 16.05 Q11.75 16.85 13.5 17.25 L13.9 17.3 Q14.4 17.45 14.7 17.75 15.9 18.5 15.4 19.9 L14.35 20.35 Q13.1 20.25 13.1 19.15 L13.15 18.55 12.8 19.0 12.45 19.9 Q12.2 21.45 14.25 22.4 L14.85 22.5 16.95 22.35 Q18.35 22.05 18.75 20.25 18.75 19.35 18.35 18.55 17.45 16.9 15.45 16.85 14.05 16.65 12.85 15.95 10.4 14.5 11.55 12.1 L12.05 11.6 13.15 10.7 14.35 10.35 14.05 10.25 Q12.65 9.15 11.55 8.85 L10.8 8.6 M9.3 5.6 L9.0 5.5 Q5.5 6.1 3.0 9.2 L2.95 9.2 Q1.1 11.6 0.75 14.05 L0.85 14.4 1.15 14.5 1.55 14.4 1.65 14.2 Q2.0 11.9 3.6 9.8 5.9 7.0 9.15 6.35 L9.45 6.2 9.5 5.85 9.3 5.6 M13.9 18.5 L13.55 18.5 13.45 18.8 13.5 19.15 13.85 19.6 14.1 19.75 14.5 19.75 14.65 19.35 14.55 19.0 14.25 18.55 13.9 18.5 M13.75 22.95 L13.55 23.25 13.55 23.55 13.85 23.8 Q16.95 25.0 18.95 23.25 L20.35 21.2 20.3 20.85 20.05 20.65 Q19.9 20.5 19.75 20.65 L19.55 20.95 18.35 22.55 Q16.65 23.95 14.1 22.95 L13.75 22.95 M19.8 18.2 L19.45 18.1 19.15 18.35 Q19.0 18.5 19.15 18.65 L19.4 19.35 19.55 19.65 19.9 19.75 20.2 19.45 20.2 19.15 20.0 18.5 19.8 18.2 M18.1 30.4 L18.05 30.15 17.7 30.0 17.35 30.0 17.15 30.15 17.0 30.3 17.0 30.65 17.15 30.7 17.35 30.85 17.7 30.85 18.05 30.7 18.1 30.4 M16.05 30.0 L13.1 30.0 12.85 30.15 12.7 30.4 12.85 30.7 13.1 30.85 16.05 30.85 16.3 30.7 16.4 30.4 16.3 30.15 16.05 30.0 M20.35 38.6 L17.9 38.6 Q17.75 38.6 17.7 38.75 17.55 38.8 17.55 39.0 L17.7 39.25 17.9 39.35 20.35 39.35 20.65 39.25 20.8 39.0 20.65 38.75 20.35 38.6 M20.55 43.85 Q20.35 43.7 20.2 43.85 20.05 43.85 20.05 44.05 L19.9 44.45 19.9 44.65 20.2 44.9 20.5 44.8 20.7 44.6 20.8 44.35 20.8 44.05 20.55 43.85 M22.6 46.1 Q22.5 48.05 20.05 48.5 L17.55 48.6 17.25 48.65 17.0 48.9 17.15 49.2 17.35 49.35 20.2 49.25 Q23.3 48.75 23.45 46.15 L23.3 45.85 23.1 45.7 Q22.85 45.7 22.7 45.85 L22.6 46.1 M13.55 53.05 L13.75 53.35 14.0 53.4 15.95 53.4 16.2 53.35 16.3 53.05 16.2 52.8 Q16.05 52.65 15.95 52.65 L14.0 52.65 13.75 52.8 Q13.55 52.85 13.55 53.05 Z" fill="none" stroke="#000000" stroke-linecap="round" stroke-linejoin="round" stroke-opacity="0.2" stroke-width="1.5"/>
    </g>
    <g id="sprite39" transform="matrix(1.0, 0.0, 0.0, 1.0, 0.0, 0.0)">
      <use ffdec:characterId="42" height="54.0" transform="matrix(1.0, 0.0, 0.0, 1.0, 0.0, 0.0)" width="30.45" xlink:href="#shape2"/>
    </g>
    <g id="shape2" transform="matrix(1.0, 0.0, 0.0, 1.0, 0.0, 0.0)">
      <path d="M28.35 8.75 Q31.3 12.55 30.1 16.95 28.9 21.35 23.8 23.55 20.0 25.15 18.55 27.0 L17.9 27.85 17.8 28.2 17.45 28.7 17.0 28.7 17.0 29.6 17.9 29.6 Q18.35 29.6 18.6 29.9 18.9 30.15 18.9 30.65 L18.6 31.35 17.9 31.65 17.0 31.65 17.0 38.1 20.7 38.1 Q21.15 38.1 21.4 38.45 L21.7 39.25 21.35 39.95 20.65 40.15 17.0 40.15 17.0 47.9 19.1 48.05 20.45 47.9 20.95 47.6 Q22.6 46.4 22.2 45.15 L21.85 44.3 21.5 44.1 21.7 44.6 Q21.75 45.5 20.6 45.7 20.1 45.8 19.75 45.5 19.2 44.25 20.0 43.45 20.25 43.2 20.65 43.05 L21.0 42.95 Q22.55 42.4 22.95 41.55 L23.05 41.4 Q25.0 43.1 24.7 45.85 24.7 47.1 24.1 48.25 23.1 49.6 21.7 50.05 L20.35 50.35 19.65 50.35 17.0 50.35 17.0 51.5 17.2 51.5 Q17.5 51.5 17.7 51.85 L17.85 52.8 17.65 53.75 17.2 54.0 13.8 53.95 13.3 53.6 13.1 52.75 13.3 51.85 13.8 51.4 13.8 31.55 12.95 31.55 12.25 31.3 Q11.95 30.95 11.95 30.6 11.95 30.1 12.25 29.8 12.5 29.55 13.0 29.55 L13.8 29.55 13.8 28.7 13.3 28.7 12.65 27.85 12.4 27.3 10.75 25.6 Q9.25 24.4 6.65 23.25 4.0 22.15 2.45 20.4 0.9 18.75 0.35 16.65 -0.1 15.2 0.05 13.85 0.15 10.95 2.15 8.5 4.95 4.9 8.95 4.75 L9.45 4.75 Q11.1 4.75 13.7 7.0 L14.05 7.3 Q14.9 6.1 14.0 4.6 L13.1 4.6 12.8 4.15 14.7 0.55 Q15.3 -0.5 15.95 0.55 L17.85 4.0 Q18.05 4.5 17.55 4.6 L16.65 4.6 Q15.75 6.25 16.5 7.45 L17.2 6.8 17.3 6.75 17.8 6.4 Q18.05 6.15 18.35 6.05 19.9 5.05 21.0 5.05 25.25 5.05 28.35 8.75 M18.85 6.85 L17.15 8.0 16.95 8.3 17.0 8.65 17.3 8.75 17.65 8.75 19.3 7.65 Q21.15 6.65 22.55 7.15 L22.9 7.1 23.1 6.8 23.05 6.5 Q22.95 6.3 22.75 6.25 21.15 5.7 18.9 6.8 L18.85 6.85 M17.9 9.5 L17.05 10.05 17.0 10.1 16.7 10.25 16.15 10.65 Q17.0 10.95 17.85 11.65 L18.7 13.05 Q19.2 14.7 18.6 15.4 L18.6 15.55 16.5 14.7 Q14.35 13.85 14.05 13.4 L14.15 13.3 Q14.25 13.0 14.5 12.85 L15.8 12.9 15.95 13.2 15.95 13.35 16.0 13.3 Q16.1 12.8 15.75 12.35 L15.4 11.85 14.0 11.65 13.3 11.85 Q12.45 12.45 12.65 13.3 L12.85 14.1 Q14.15 15.3 17.2 15.75 18.55 15.95 20.15 17.15 L20.25 17.2 Q22.1 19.95 20.95 22.4 L22.55 21.8 Q26.75 20.25 27.8 17.15 28.75 14.05 26.25 11.45 23.8 9.0 20.45 8.85 L20.15 8.85 18.85 9.1 Q18.4 9.25 17.9 9.5 M24.65 6.95 Q24.5 6.95 24.35 7.15 24.2 7.2 24.2 7.45 L24.45 7.7 25.5 8.65 25.75 8.75 26.1 8.65 26.2 8.3 26.05 8.0 25.0 7.1 Q24.85 6.95 24.65 6.95 M15.75 1.25 L15.6 0.95 15.25 0.95 15.05 1.15 14.0 3.2 Q13.85 3.35 14.0 3.55 L14.15 3.8 14.5 3.8 14.7 3.55 15.75 1.55 15.75 1.25 M9.5 5.9 L9.3 5.6 9.0 5.55 Q5.5 6.1 3.0 9.25 L2.95 9.25 Q1.1 11.6 0.75 14.05 L0.9 14.4 1.2 14.55 1.55 14.45 1.65 14.2 Q2.0 11.95 3.65 9.85 5.95 7.0 9.15 6.4 L9.45 6.25 9.5 5.9 M10.75 8.65 L10.4 8.65 Q8.75 8.65 7.35 9.25 5.75 9.9 4.35 11.25 L4.1 11.6 Q2.65 13.15 2.6 14.95 L2.65 15.95 2.7 16.5 2.85 16.95 Q3.85 20.05 8.1 21.5 L10.05 22.35 9.7 21.15 Q9.1 18.05 11.05 15.9 L11.1 16.1 Q11.75 16.85 13.5 17.3 L13.9 17.35 Q14.4 17.5 14.7 17.8 15.9 18.5 15.4 19.95 L14.35 20.4 Q13.1 20.3 13.1 19.2 L13.15 18.6 12.8 19.05 Q12.5 19.45 12.45 19.95 12.25 21.5 14.25 22.4 L14.9 22.5 16.95 22.35 Q18.35 22.05 18.75 20.3 18.75 19.4 18.35 18.6 17.5 16.95 15.45 16.85 14.05 16.65 12.85 16.0 10.4 14.55 11.55 12.15 L12.05 11.6 Q12.5 11.0 13.15 10.75 L14.35 10.4 14.05 10.25 Q12.65 9.2 11.55 8.85 L10.75 8.65 M13.55 18.55 L13.45 18.85 13.5 19.2 13.85 19.6 14.15 19.75 14.5 19.75 14.6 19.4 14.55 19.05 14.25 18.6 13.9 18.5 13.55 18.55 M13.8 23.0 Q13.55 23.05 13.55 23.25 L13.55 23.55 13.85 23.85 Q16.95 25.05 18.95 23.25 19.95 22.35 20.35 21.25 L20.3 20.85 20.1 20.65 Q19.9 20.5 19.75 20.65 L19.55 20.95 18.35 22.55 Q16.65 23.95 14.15 23.0 L13.8 23.0 M19.8 18.2 L19.45 18.15 19.2 18.35 Q19.05 18.55 19.2 18.7 L19.4 19.4 19.55 19.7 19.9 19.75 20.25 19.45 20.25 19.2 20.0 18.5 19.8 18.2 M18.05 30.15 L17.7 30.0 17.35 30.0 17.15 30.15 17.0 30.3 17.0 30.65 17.15 30.7 17.35 30.85 17.7 30.85 18.05 30.7 18.15 30.45 18.05 30.15 M16.3 30.15 Q16.15 30.0 16.0 30.0 L13.1 30.0 12.85 30.15 12.75 30.45 12.85 30.7 13.1 30.85 16.0 30.85 16.3 30.7 16.45 30.45 16.3 30.15 M17.7 39.3 L17.9 39.4 20.35 39.4 20.65 39.3 20.8 39.05 20.65 38.75 20.35 38.6 17.9 38.6 17.7 38.75 17.55 39.05 17.7 39.3 M20.6 43.9 Q20.35 43.75 20.25 43.9 L20.1 44.1 19.95 44.45 19.95 44.75 20.25 44.95 20.5 44.85 20.7 44.65 20.8 44.35 20.8 44.1 20.6 43.9 M22.6 46.15 Q22.55 48.1 20.1 48.5 L17.55 48.6 17.2 48.65 17.0 48.95 17.15 49.25 17.35 49.35 20.25 49.3 Q23.3 48.8 23.45 46.2 L23.3 45.85 23.1 45.7 Q22.9 45.7 22.75 45.85 22.6 45.9 22.6 46.15 M13.55 53.1 L13.8 53.4 14.0 53.45 15.95 53.45 16.25 53.4 16.3 53.1 16.25 52.8 15.95 52.7 14.0 52.7 Q13.85 52.7 13.8 52.8 L13.55 53.1" fill="#000000" fill-rule="evenodd" stroke="none"/>
    </g>
  </defs>
</svg>
