<?xml version="1.0" encoding="UTF-8" standalone="no"?>
<svg xmlns:ffdec="https://www.free-decompiler.com/flash" xmlns:xlink="http://www.w3.org/1999/xlink" ffdec:objectType="frame" height="56.0px" width="56.0px" xmlns="http://www.w3.org/2000/svg">
  <g transform="matrix(1.0, 0.0, 0.0, 1.0, 0.0, 0.0)">
    <use ffdec:characterId="40" ffdec:characterName="131_fla.Symbole117_1" height="56.0" id="back" transform="matrix(1.0, 0.0, 0.0, 1.0, 0.0, 0.0)" width="56.0" xlink:href="#sprite0"/>
    <use ffdec:characterId="42" height="47.25" id="back" transform="matrix(1.0, 0.0, 0.0, 1.0, 0.4, 4.9)" width="55.4" xlink:href="#sprite39"/>
    <use ffdec:characterId="44" height="45.75" id="up" transform="matrix(1.0, 0.0, 0.0, 1.0, 1.15, 5.7)" width="53.9" xlink:href="#sprite40"/>
  </g>
  <defs>
    <g id="sprite0" transform="matrix(1.0, 0.0, 0.0, 1.0, 0.0, 0.0)">
      <use ffdec:characterId="39" ffdec:characterName="131_fla.Symbole114_2" height="56.0" id="back" transform="matrix(1.0, 0.0, 0.0, 1.0, 0.0, 0.0)" width="56.0" xlink:href="#sprite1"/>
    </g>
    <g id="sprite1" transform="matrix(1.0, 0.0, 0.0, 1.0, 0.0, 0.0)">
      <use ffdec:characterId="38" ffdec:characterName="131_fla.Symbole111_3" height="56.0" id="back" transform="matrix(1.0, 0.0, 0.0, 1.0, 0.0, 0.0)" width="56.0" xlink:href="#sprite2"/>
    </g>
    <g id="sprite2" transform="matrix(1.0, 0.0, 0.0, 1.0, 0.0, 0.0)">
      <use ffdec:characterId="37" ffdec:characterName="131_fla.Symbole108_4" height="56.0" id="back" transform="matrix(1.0, 0.0, 0.0, 1.0, 0.0, 0.0)" width="56.0" xlink:href="#sprite3"/>
    </g>
    <g id="sprite3" transform="matrix(1.0, 0.0, 0.0, 1.0, 0.0, 0.0)">
      <use ffdec:characterId="36" ffdec:characterName="131_fla.Symbole105_5" height="56.0" id="back" transform="matrix(1.0, 0.0, 0.0, 1.0, 0.0, 0.0)" width="56.0" xlink:href="#sprite4"/>
    </g>
    <g id="sprite4" transform="matrix(1.0, 0.0, 0.0, 1.0, 0.0, 0.0)">
      <use ffdec:characterId="35" ffdec:characterName="131_fla.Symbole102_6" height="56.0" id="back" transform="matrix(1.0, 0.0, 0.0, 1.0, 0.0, 0.0)" width="56.0" xlink:href="#sprite5"/>
    </g>
    <g id="sprite5" transform="matrix(1.0, 0.0, 0.0, 1.0, 0.0, 0.0)">
      <use ffdec:characterId="34" ffdec:characterName="131_fla.Symbole99_7" height="56.0" id="back" transform="matrix(1.0, 0.0, 0.0, 1.0, 0.0, 0.0)" width="56.0" xlink:href="#sprite6"/>
    </g>
    <g id="sprite6" transform="matrix(1.0, 0.0, 0.0, 1.0, 0.0, 0.0)">
      <use ffdec:characterId="33" ffdec:characterName="131_fla.Symbole96_8" height="56.0" id="back" transform="matrix(1.0, 0.0, 0.0, 1.0, 0.0, 0.0)" width="56.0" xlink:href="#sprite7"/>
    </g>
    <g id="sprite7" transform="matrix(1.0, 0.0, 0.0, 1.0, 0.0, 0.0)">
      <use ffdec:characterId="32" ffdec:characterName="131_fla.Symbole93_9" height="56.0" id="back" transform="matrix(1.0, 0.0, 0.0, 1.0, 0.0, 0.0)" width="56.0" xlink:href="#sprite8"/>
    </g>
    <g id="sprite8" transform="matrix(1.0, 0.0, 0.0, 1.0, 0.0, 0.0)">
      <use ffdec:characterId="31" ffdec:characterName="131_fla.Symbole90_10" height="56.0" id="back" transform="matrix(1.0, 0.0, 0.0, 1.0, 0.0, 0.0)" width="56.0" xlink:href="#sprite9"/>
    </g>
    <g id="sprite9" transform="matrix(1.0, 0.0, 0.0, 1.0, 0.0, 0.0)">
      <use ffdec:characterId="30" ffdec:characterName="131_fla.Symbole87_11" height="56.0" id="back" transform="matrix(1.0, 0.0, 0.0, 1.0, 0.0, 0.0)" width="56.0" xlink:href="#sprite10"/>
    </g>
    <g id="sprite10" transform="matrix(1.0, 0.0, 0.0, 1.0, 0.0, 0.0)">
      <use ffdec:characterId="29" ffdec:characterName="131_fla.Symbole84_12" height="56.0" id="back" transform="matrix(1.0, 0.0, 0.0, 1.0, 0.0, 0.0)" width="56.0" xlink:href="#sprite11"/>
    </g>
    <g id="sprite11" transform="matrix(1.0, 0.0, 0.0, 1.0, 0.0, 0.0)">
      <use ffdec:characterId="28" ffdec:characterName="131_fla.Symbole81_13" height="56.0" id="back" transform="matrix(1.0, 0.0, 0.0, 1.0, 0.0, 0.0)" width="56.0" xlink:href="#sprite12"/>
    </g>
    <g id="sprite12" transform="matrix(1.0, 0.0, 0.0, 1.0, 0.0, 0.0)">
      <use ffdec:characterId="27" ffdec:characterName="131_fla.Symbole78_14" height="56.0" id="back" transform="matrix(1.0, 0.0, 0.0, 1.0, 0.0, 0.0)" width="56.0" xlink:href="#sprite13"/>
    </g>
    <g id="sprite13" transform="matrix(1.0, 0.0, 0.0, 1.0, 0.0, 0.0)">
      <use ffdec:characterId="26" ffdec:characterName="131_fla.Symbole75_15" height="56.0" id="back" transform="matrix(1.0, 0.0, 0.0, 1.0, 0.0, 0.0)" width="56.0" xlink:href="#sprite14"/>
    </g>
    <g id="sprite14" transform="matrix(1.0, 0.0, 0.0, 1.0, 0.0, 0.0)">
      <use ffdec:characterId="25" ffdec:characterName="131_fla.Symbole72_16" height="56.0" id="back" transform="matrix(1.0, 0.0, 0.0, 1.0, 0.0, 0.0)" width="56.0" xlink:href="#sprite15"/>
    </g>
    <g id="sprite15" transform="matrix(1.0, 0.0, 0.0, 1.0, 0.0, 0.0)">
      <use ffdec:characterId="24" ffdec:characterName="131_fla.Symbole69_17" height="56.0" id="back" transform="matrix(1.0, 0.0, 0.0, 1.0, 0.0, 0.0)" width="56.0" xlink:href="#sprite16"/>
    </g>
    <g id="sprite16" transform="matrix(1.0, 0.0, 0.0, 1.0, 0.0, 0.0)">
      <use ffdec:characterId="23" ffdec:characterName="131_fla.Symbole66_18" height="56.0" id="back" transform="matrix(1.0, 0.0, 0.0, 1.0, 0.0, 0.0)" width="56.0" xlink:href="#sprite17"/>
    </g>
    <g id="sprite17" transform="matrix(1.0, 0.0, 0.0, 1.0, 0.0, 0.0)">
      <use ffdec:characterId="22" ffdec:characterName="131_fla.Symbole63_19" height="56.0" id="back" transform="matrix(1.0, 0.0, 0.0, 1.0, 0.0, 0.0)" width="56.0" xlink:href="#sprite18"/>
    </g>
    <g id="sprite18" transform="matrix(1.0, 0.0, 0.0, 1.0, 0.0, 0.0)">
      <use ffdec:characterId="21" ffdec:characterName="131_fla.Symbole60_20" height="56.0" id="back" transform="matrix(1.0, 0.0, 0.0, 1.0, 0.0, 0.0)" width="56.0" xlink:href="#sprite19"/>
    </g>
    <g id="sprite19" transform="matrix(1.0, 0.0, 0.0, 1.0, 0.0, 0.0)">
      <use ffdec:characterId="20" ffdec:characterName="131_fla.Symbole57_21" height="56.0" id="back" transform="matrix(1.0, 0.0, 0.0, 1.0, 0.0, 0.0)" width="56.0" xlink:href="#sprite20"/>
    </g>
    <g id="sprite20" transform="matrix(1.0, 0.0, 0.0, 1.0, 0.0, 0.0)">
      <use ffdec:characterId="19" ffdec:characterName="131_fla.Symbole54_22" height="56.0" id="back" transform="matrix(1.0, 0.0, 0.0, 1.0, 0.0, 0.0)" width="56.0" xlink:href="#sprite21"/>
    </g>
    <g id="sprite21" transform="matrix(1.0, 0.0, 0.0, 1.0, 0.0, 0.0)">
      <use ffdec:characterId="18" ffdec:characterName="131_fla.Symbole51_23" height="56.0" id="back" transform="matrix(1.0, 0.0, 0.0, 1.0, 0.0, 0.0)" width="56.0" xlink:href="#sprite22"/>
    </g>
    <g id="sprite22" transform="matrix(1.0, 0.0, 0.0, 1.0, 0.0, 0.0)">
      <use ffdec:characterId="17" ffdec:characterName="131_fla.Symbole48_24" height="56.0" id="back" transform="matrix(1.0, 0.0, 0.0, 1.0, 0.0, 0.0)" width="56.0" xlink:href="#sprite23"/>
    </g>
    <g id="sprite23" transform="matrix(1.0, 0.0, 0.0, 1.0, 0.0, 0.0)">
      <use ffdec:characterId="16" ffdec:characterName="131_fla.Symbole45_25" height="56.0" id="back" transform="matrix(1.0, 0.0, 0.0, 1.0, 0.0, 0.0)" width="56.0" xlink:href="#sprite24"/>
    </g>
    <g id="sprite24" transform="matrix(1.0, 0.0, 0.0, 1.0, 0.0, 0.0)">
      <use ffdec:characterId="15" ffdec:characterName="131_fla.Symbole42_26" height="56.0" id="back" transform="matrix(1.0, 0.0, 0.0, 1.0, 0.0, 0.0)" width="56.0" xlink:href="#sprite25"/>
    </g>
    <g id="sprite25" transform="matrix(1.0, 0.0, 0.0, 1.0, 0.0, 0.0)">
      <use ffdec:characterId="14" ffdec:characterName="131_fla.Symbole39_27" height="56.0" id="back" transform="matrix(1.0, 0.0, 0.0, 1.0, 0.0, 0.0)" width="56.0" xlink:href="#sprite26"/>
    </g>
    <g id="sprite26" transform="matrix(1.0, 0.0, 0.0, 1.0, 0.0, 0.0)">
      <use ffdec:characterId="13" ffdec:characterName="131_fla.Symbole36_28" height="56.0" id="back" transform="matrix(1.0, 0.0, 0.0, 1.0, 0.0, 0.0)" width="56.0" xlink:href="#sprite27"/>
    </g>
    <g id="sprite27" transform="matrix(1.0, 0.0, 0.0, 1.0, 0.0, 0.0)">
      <use ffdec:characterId="12" ffdec:characterName="131_fla.Symbole33_29" height="56.0" id="back" transform="matrix(1.0, 0.0, 0.0, 1.0, 0.0, 0.0)" width="56.0" xlink:href="#sprite28"/>
    </g>
    <g id="sprite28" transform="matrix(1.0, 0.0, 0.0, 1.0, 0.0, 0.0)">
      <use ffdec:characterId="11" ffdec:characterName="131_fla.Symbole30_30" height="56.0" id="back" transform="matrix(1.0, 0.0, 0.0, 1.0, 0.0, 0.0)" width="56.0" xlink:href="#sprite29"/>
    </g>
    <g id="sprite29" transform="matrix(1.0, 0.0, 0.0, 1.0, 0.0, 0.0)">
      <use ffdec:characterId="10" ffdec:characterName="131_fla.Symbole27_31" height="56.0" id="back" transform="matrix(1.0, 0.0, 0.0, 1.0, 0.0, 0.0)" width="56.0" xlink:href="#sprite30"/>
    </g>
    <g id="sprite30" transform="matrix(1.0, 0.0, 0.0, 1.0, 0.0, 0.0)">
      <use ffdec:characterId="9" ffdec:characterName="131_fla.Symbole24_32" height="56.0" id="back" transform="matrix(1.0, 0.0, 0.0, 1.0, 0.0, 0.0)" width="56.0" xlink:href="#sprite31"/>
    </g>
    <g id="sprite31" transform="matrix(1.0, 0.0, 0.0, 1.0, 0.0, 0.0)">
      <use ffdec:characterId="8" ffdec:characterName="131_fla.Symbole21_33" height="56.0" id="back" transform="matrix(1.0, 0.0, 0.0, 1.0, 0.0, 0.0)" width="56.0" xlink:href="#sprite32"/>
    </g>
    <g id="sprite32" transform="matrix(1.0, 0.0, 0.0, 1.0, 0.0, 0.0)">
      <use ffdec:characterId="7" ffdec:characterName="131_fla.Symbole18_34" height="56.0" id="back" transform="matrix(1.0, 0.0, 0.0, 1.0, 0.0, 0.0)" width="56.0" xlink:href="#sprite33"/>
    </g>
    <g id="sprite33" transform="matrix(1.0, 0.0, 0.0, 1.0, 0.0, 0.0)">
      <use ffdec:characterId="6" ffdec:characterName="131_fla.Symbole15_35" height="56.0" id="back" transform="matrix(1.0, 0.0, 0.0, 1.0, 0.0, 0.0)" width="56.0" xlink:href="#sprite34"/>
    </g>
    <g id="sprite34" transform="matrix(1.0, 0.0, 0.0, 1.0, 0.0, 0.0)">
      <use ffdec:characterId="5" ffdec:characterName="131_fla.Symbole12_36" height="56.0" id="back" transform="matrix(1.0, 0.0, 0.0, 1.0, 0.0, 0.0)" width="56.0" xlink:href="#sprite35"/>
    </g>
    <g id="sprite35" transform="matrix(1.0, 0.0, 0.0, 1.0, 0.0, 0.0)">
      <use ffdec:characterId="4" ffdec:characterName="131_fla.Symbole9_37" height="56.0" id="back" transform="matrix(1.0, 0.0, 0.0, 1.0, 0.0, 0.0)" width="56.0" xlink:href="#sprite36"/>
    </g>
    <g id="sprite36" transform="matrix(1.0, 0.0, 0.0, 1.0, 0.0, 0.0)">
      <use ffdec:characterId="3" ffdec:characterName="131_fla.Symbole6_38" height="56.0" id="back" transform="matrix(1.0, 0.0, 0.0, 1.0, 0.0, 0.0)" width="56.0" xlink:href="#sprite37"/>
    </g>
    <g id="sprite37" transform="matrix(1.0, 0.0, 0.0, 1.0, 0.0, 0.0)">
      <use ffdec:characterId="2" height="56.0" id="back" transform="matrix(1.0, 0.0, 0.0, 1.0, 0.0, 0.0)" width="56.0" xlink:href="#sprite38"/>
    </g>
    <g id="sprite38" transform="matrix(1.0, 0.0, 0.0, 1.0, 0.0, 0.0)">
      <use ffdec:characterId="1" height="56.0" transform="matrix(1.0, 0.0, 0.0, 1.0, 0.0, 0.0)" width="56.0" xlink:href="#shape0"/>
    </g>
    <g id="shape0" transform="matrix(1.0, 0.0, 0.0, 1.0, 0.0, 0.0)">
      <path d="M56.0 56.0 L0.0 56.0 0.0 0.0 56.0 0.0 56.0 56.0" fill="#010101" fill-opacity="0.0" fill-rule="evenodd" stroke="none"/>
    </g>
    <g id="sprite39" transform="matrix(1.0, 0.0, 0.0, 1.0, 0.75, 0.75)">
      <use ffdec:characterId="41" height="47.25" transform="matrix(1.0, 0.0, 0.0, 1.0, -0.75, -0.75)" width="55.4" xlink:href="#shape1"/>
    </g>
    <g id="shape1" transform="matrix(1.0, 0.0, 0.0, 1.0, 0.75, 0.75)">
      <path d="M46.75 5.4 L46.75 7.15 46.75 7.35 46.45 7.5 46.75 8.0 46.85 8.35 Q47.35 9.5 47.1 11.4 L47.2 11.55 Q51.25 13.25 50.6 17.9 L50.75 17.65 Q53.3 16.2 53.9 13.65 53.4 9.45 52.2 6.9 L51.1 5.15 Q49.15 2.5 48.1 2.5 46.85 3.0 46.75 5.4 M45.4 12.3 Q49.65 14.1 48.75 18.75 L48.9 19.1 Q53.4 27.85 45.55 34.45 46.35 40.2 39.65 40.4 34.35 48.45 25.1 44.4 L24.8 44.45 Q16.35 47.2 13.9 39.9 L13.75 39.9 Q9.55 40.4 6.6 35.4 4.85 30.75 7.4 26.95 L7.0 26.1 Q4.5 22.65 5.35 18.75 L5.35 18.4 5.5 17.9 Q6.35 13.75 10.6 11.05 L11.25 10.55 11.05 9.25 Q10.5 4.7 14.3 1.55 19.25 -1.15 24.9 2.6 28.15 -1.25 35.15 0.65 40.0 2.2 41.2 6.75 43.65 6.9 44.6 8.15 45.7 9.5 45.4 12.15 L45.4 12.3 M42.2 15.45 L42.35 15.7 42.3 16.45 41.7 17.15 Q40.4 17.65 38.65 18.85 L40.05 22.4 Q40.3 22.9 40.05 23.4 L39.35 24.0 Q38.8 24.25 38.4 24.0 L37.7 23.4 36.5 20.35 33.8 22.2 32.8 22.4 31.95 21.8 Q31.7 21.45 31.8 20.95 31.95 20.45 32.35 20.1 L35.35 18.05 35.5 17.9 35.7 17.8 34.05 14.95 Q33.8 14.45 33.95 13.9 33.95 13.4 34.5 13.15 L35.45 13.0 36.25 13.6 37.85 16.45 Q39.35 15.35 40.5 14.85 41.0 14.6 41.5 14.85 L42.2 15.45 M40.7 28.9 L42.7 31.95 Q43.0 32.45 43.55 32.55 L44.5 32.35 Q45.0 32.05 45.1 31.6 45.25 31.0 44.85 30.55 L42.85 27.45 42.05 26.85 41.1 27.05 Q40.6 27.35 40.5 27.9 40.4 28.4 40.7 28.9 M20.25 12.3 Q19.75 12.3 19.5 12.75 18.9 13.4 17.8 15.65 L17.8 15.55 Q16.2 14.45 15.0 13.85 L14.05 13.75 Q13.5 13.9 13.35 14.3 L13.2 14.5 13.2 15.35 Q13.35 15.8 13.8 16.05 L16.7 18.05 16.75 18.15 15.1 21.6 Q14.75 22.1 15.0 22.55 L15.65 23.4 Q16.2 23.65 16.7 23.4 L17.45 22.65 18.9 19.75 21.35 21.8 22.35 22.05 23.2 21.45 23.4 20.5 22.95 19.6 19.95 17.3 20.0 17.3 19.8 17.25 19.8 17.15 21.55 14.3 21.8 13.25 21.2 12.5 Q20.75 12.15 20.25 12.3 M5.8 2.4 Q4.75 2.4 2.7 5.05 2.1 5.8 1.7 6.9 0.5 9.35 0.0 13.6 0.65 16.2 3.1 17.65 L3.4 17.9 3.65 17.15 Q4.6 13.0 8.75 10.3 L9.45 9.85 9.25 8.15 Q8.2 7.6 7.05 7.35 L7.05 7.05 7.05 5.3 Q7.05 3.0 5.8 2.4 M12.65 24.6 L10.5 26.8 Q10.15 27.2 10.15 27.8 10.15 28.25 10.5 28.65 L11.45 28.95 12.3 28.65 14.5 26.45 14.85 25.45 Q14.85 24.9 14.5 24.6 14.05 24.15 13.5 24.15 13.05 24.15 12.65 24.6 M18.3 35.15 L22.2 29.9 22.45 28.95 21.85 28.05 20.9 27.9 Q20.35 27.9 20.0 28.4 L16.2 33.65 Q15.9 34.05 16.0 34.65 16.05 35.1 16.45 35.4 16.85 35.75 17.45 35.75 L18.3 35.15 M36.1 29.05 L35.05 28.95 Q34.55 29.15 34.35 29.65 34.1 30.15 34.35 30.6 L36.25 36.25 36.85 37.0 37.9 37.1 38.65 36.35 38.7 35.4 36.8 29.75 36.1 29.05 M28.15 29.9 Q27.7 29.5 27.2 29.5 26.7 29.5 26.35 29.9 25.9 30.4 25.9 30.85 L25.9 37.85 Q25.9 38.35 26.35 38.8 26.7 39.15 27.2 39.15 27.7 39.15 28.15 38.8 L28.55 37.85 28.55 30.85 Q28.55 30.4 28.15 29.9 Z" fill="none" stroke="#000000" stroke-linecap="round" stroke-linejoin="round" stroke-opacity="0.2" stroke-width="1.5"/>
    </g>
    <g id="sprite40" transform="matrix(1.0, 0.0, 0.0, 1.0, 0.0, 0.0)">
      <use ffdec:characterId="43" height="45.75" transform="matrix(1.0, 0.0, 0.0, 1.0, 0.0, 0.0)" width="53.9" xlink:href="#shape2"/>
    </g>
    <g id="shape2" transform="matrix(1.0, 0.0, 0.0, 1.0, 0.0, 0.0)">
      <path d="M46.75 5.35 Q46.8 2.95 48.1 2.5 49.1 2.5 51.1 5.1 L52.2 6.85 Q53.4 9.4 53.9 13.65 53.25 16.2 50.8 17.65 50.7 17.7 50.55 17.85 51.25 13.25 47.2 11.55 L47.15 11.4 Q47.35 9.5 46.8 8.3 L46.75 8.0 46.4 7.5 46.75 7.35 46.75 7.1 46.75 5.35 M45.4 12.15 L45.4 12.3 Q49.7 14.05 48.7 18.75 L48.9 19.05 Q53.4 27.85 45.55 34.45 46.35 40.2 39.65 40.4 34.35 48.45 25.1 44.4 L24.8 44.5 Q16.35 47.2 13.9 39.85 L13.75 39.85 Q9.55 40.4 6.6 35.4 4.85 30.75 7.4 26.95 L7.0 26.05 Q4.5 22.65 5.3 18.75 L5.3 18.4 5.5 17.85 Q6.35 13.7 10.55 11.0 L11.3 10.55 Q11.1 10.0 11.05 9.25 10.5 4.7 14.3 1.55 19.25 -1.2 24.85 2.55 28.15 -1.25 35.15 0.65 40.0 2.15 41.15 6.7 43.65 6.85 44.6 8.15 45.7 9.5 45.4 12.15 M42.3 16.45 L42.35 15.7 42.2 15.45 41.5 14.85 Q41.0 14.6 40.55 14.85 39.35 15.3 37.85 16.45 L36.25 13.55 Q35.9 13.1 35.45 13.0 L34.5 13.15 Q33.95 13.4 33.95 13.9 33.8 14.45 34.0 14.9 L35.7 17.8 35.55 17.85 35.35 18.0 32.35 20.1 31.8 20.9 Q31.7 21.45 31.95 21.75 L32.8 22.4 33.8 22.15 36.5 20.35 37.65 23.35 38.4 24.0 Q38.8 24.25 39.35 24.0 L40.05 23.35 Q40.3 22.9 40.05 22.4 L38.65 18.8 41.65 17.15 42.3 16.45 M40.7 28.85 L42.7 31.95 Q43.0 32.45 43.55 32.55 L44.5 32.35 45.05 31.55 Q45.25 31.0 44.85 30.55 L42.85 27.45 42.05 26.85 41.1 27.05 Q40.6 27.35 40.55 27.9 40.4 28.4 40.7 28.85 M21.55 14.3 L21.75 13.25 21.2 12.45 20.25 12.3 Q19.7 12.3 19.45 12.75 18.9 13.4 17.8 15.65 L17.8 15.55 15.0 13.8 14.05 13.7 Q13.5 13.9 13.35 14.3 L13.2 14.5 13.2 15.3 13.8 16.05 Q15.1 16.75 16.7 18.0 L16.75 18.1 15.1 21.6 Q14.8 22.1 15.0 22.55 15.15 23.05 15.65 23.35 16.2 23.6 16.7 23.35 L17.5 22.65 18.9 19.8 21.4 21.75 22.35 22.0 23.2 21.45 23.35 20.5 Q23.35 20.0 22.95 19.6 L19.95 17.3 20.0 17.3 19.8 17.25 19.8 17.15 21.55 14.3 M5.8 2.4 Q7.05 2.95 7.05 5.3 L7.05 7.05 7.05 7.35 Q8.2 7.6 9.2 8.15 L9.45 9.8 8.75 10.3 Q4.6 13.0 3.65 17.15 L3.4 17.85 3.1 17.65 Q0.65 16.2 0.0 13.55 0.45 9.35 1.65 6.85 L2.7 5.05 Q4.75 2.4 5.8 2.4 M12.65 24.55 L10.5 26.8 Q10.15 27.2 10.15 27.75 10.15 28.2 10.5 28.6 10.9 28.95 11.45 28.95 L12.3 28.6 14.45 26.4 Q14.85 25.9 14.85 25.45 14.85 24.9 14.45 24.55 14.05 24.15 13.5 24.15 13.05 24.15 12.65 24.55 M18.3 35.15 L22.15 29.9 22.4 28.95 Q22.35 28.4 21.85 28.05 L20.9 27.9 Q20.35 27.9 20.0 28.4 L16.2 33.65 Q15.9 34.05 15.95 34.6 16.05 35.1 16.45 35.4 L17.5 35.7 18.3 35.15 M34.35 29.65 Q34.1 30.15 34.35 30.6 L36.25 36.25 36.9 37.0 37.9 37.05 38.65 36.35 38.7 35.4 36.8 29.75 36.1 29.0 35.05 28.95 Q34.55 29.1 34.35 29.65 M28.15 29.9 Q27.75 29.5 27.2 29.5 26.7 29.5 26.3 29.9 25.9 30.35 25.9 30.85 L25.9 37.85 Q25.9 38.35 26.3 38.75 26.7 39.15 27.2 39.15 27.75 39.15 28.15 38.75 28.55 38.35 28.55 37.85 L28.55 30.85 Q28.55 30.35 28.15 29.9" fill="#000000" fill-rule="evenodd" stroke="none"/>
    </g>
  </defs>
</svg>
