<?xml version="1.0" encoding="UTF-8" standalone="no"?>
<svg xmlns:ffdec="https://www.free-decompiler.com/flash" xmlns:xlink="http://www.w3.org/1999/xlink" ffdec:objectType="frame" height="56.0px" width="56.0px" xmlns="http://www.w3.org/2000/svg">
  <g transform="matrix(1.0, 0.0, 0.0, 1.0, 0.0, 0.0)">
    <use ffdec:characterId="41" ffdec:characterName="132_fla.Symbole120_1" height="56.0" id="back" transform="matrix(1.0, 0.0, 0.0, 1.0, 0.0, 0.0)" width="56.0" xlink:href="#sprite0"/>
    <use ffdec:characterId="43" height="55.55" id="back" transform="matrix(1.0, 0.0, 0.0, 1.0, 1.35, 0.45)" width="53.5" xlink:href="#sprite40"/>
    <use ffdec:characterId="45" height="54.05" id="up" transform="matrix(1.0, 0.0, 0.0, 1.0, 2.05, 1.15)" width="52.0" xlink:href="#sprite41"/>
  </g>
  <defs>
    <g id="sprite0" transform="matrix(1.0, 0.0, 0.0, 1.0, 0.0, 0.0)">
      <use ffdec:characterId="40" ffdec:characterName="132_fla.Symbole117_2" height="56.0" id="back" transform="matrix(1.0, 0.0, 0.0, 1.0, 0.0, 0.0)" width="56.0" xlink:href="#sprite1"/>
    </g>
    <g id="sprite1" transform="matrix(1.0, 0.0, 0.0, 1.0, 0.0, 0.0)">
      <use ffdec:characterId="39" ffdec:characterName="132_fla.Symbole114_3" height="56.0" id="back" transform="matrix(1.0, 0.0, 0.0, 1.0, 0.0, 0.0)" width="56.0" xlink:href="#sprite2"/>
    </g>
    <g id="sprite2" transform="matrix(1.0, 0.0, 0.0, 1.0, 0.0, 0.0)">
      <use ffdec:characterId="38" ffdec:characterName="132_fla.Symbole111_4" height="56.0" id="back" transform="matrix(1.0, 0.0, 0.0, 1.0, 0.0, 0.0)" width="56.0" xlink:href="#sprite3"/>
    </g>
    <g id="sprite3" transform="matrix(1.0, 0.0, 0.0, 1.0, 0.0, 0.0)">
      <use ffdec:characterId="37" ffdec:characterName="132_fla.Symbole108_5" height="56.0" id="back" transform="matrix(1.0, 0.0, 0.0, 1.0, 0.0, 0.0)" width="56.0" xlink:href="#sprite4"/>
    </g>
    <g id="sprite4" transform="matrix(1.0, 0.0, 0.0, 1.0, 0.0, 0.0)">
      <use ffdec:characterId="36" ffdec:characterName="132_fla.Symbole105_6" height="56.0" id="back" transform="matrix(1.0, 0.0, 0.0, 1.0, 0.0, 0.0)" width="56.0" xlink:href="#sprite5"/>
    </g>
    <g id="sprite5" transform="matrix(1.0, 0.0, 0.0, 1.0, 0.0, 0.0)">
      <use ffdec:characterId="35" ffdec:characterName="132_fla.Symbole102_7" height="56.0" id="back" transform="matrix(1.0, 0.0, 0.0, 1.0, 0.0, 0.0)" width="56.0" xlink:href="#sprite6"/>
    </g>
    <g id="sprite6" transform="matrix(1.0, 0.0, 0.0, 1.0, 0.0, 0.0)">
      <use ffdec:characterId="34" ffdec:characterName="132_fla.Symbole99_8" height="56.0" id="back" transform="matrix(1.0, 0.0, 0.0, 1.0, 0.0, 0.0)" width="56.0" xlink:href="#sprite7"/>
    </g>
    <g id="sprite7" transform="matrix(1.0, 0.0, 0.0, 1.0, 0.0, 0.0)">
      <use ffdec:characterId="33" ffdec:characterName="132_fla.Symbole96_9" height="56.0" id="back" transform="matrix(1.0, 0.0, 0.0, 1.0, 0.0, 0.0)" width="56.0" xlink:href="#sprite8"/>
    </g>
    <g id="sprite8" transform="matrix(1.0, 0.0, 0.0, 1.0, 0.0, 0.0)">
      <use ffdec:characterId="32" ffdec:characterName="132_fla.Symbole93_10" height="56.0" id="back" transform="matrix(1.0, 0.0, 0.0, 1.0, 0.0, 0.0)" width="56.0" xlink:href="#sprite9"/>
    </g>
    <g id="sprite9" transform="matrix(1.0, 0.0, 0.0, 1.0, 0.0, 0.0)">
      <use ffdec:characterId="31" ffdec:characterName="132_fla.Symbole90_11" height="56.0" id="back" transform="matrix(1.0, 0.0, 0.0, 1.0, 0.0, 0.0)" width="56.0" xlink:href="#sprite10"/>
    </g>
    <g id="sprite10" transform="matrix(1.0, 0.0, 0.0, 1.0, 0.0, 0.0)">
      <use ffdec:characterId="30" ffdec:characterName="132_fla.Symbole87_12" height="56.0" id="back" transform="matrix(1.0, 0.0, 0.0, 1.0, 0.0, 0.0)" width="56.0" xlink:href="#sprite11"/>
    </g>
    <g id="sprite11" transform="matrix(1.0, 0.0, 0.0, 1.0, 0.0, 0.0)">
      <use ffdec:characterId="29" ffdec:characterName="132_fla.Symbole84_13" height="56.0" id="back" transform="matrix(1.0, 0.0, 0.0, 1.0, 0.0, 0.0)" width="56.0" xlink:href="#sprite12"/>
    </g>
    <g id="sprite12" transform="matrix(1.0, 0.0, 0.0, 1.0, 0.0, 0.0)">
      <use ffdec:characterId="28" ffdec:characterName="132_fla.Symbole81_14" height="56.0" id="back" transform="matrix(1.0, 0.0, 0.0, 1.0, 0.0, 0.0)" width="56.0" xlink:href="#sprite13"/>
    </g>
    <g id="sprite13" transform="matrix(1.0, 0.0, 0.0, 1.0, 0.0, 0.0)">
      <use ffdec:characterId="27" ffdec:characterName="132_fla.Symbole78_15" height="56.0" id="back" transform="matrix(1.0, 0.0, 0.0, 1.0, 0.0, 0.0)" width="56.0" xlink:href="#sprite14"/>
    </g>
    <g id="sprite14" transform="matrix(1.0, 0.0, 0.0, 1.0, 0.0, 0.0)">
      <use ffdec:characterId="26" ffdec:characterName="132_fla.Symbole75_16" height="56.0" id="back" transform="matrix(1.0, 0.0, 0.0, 1.0, 0.0, 0.0)" width="56.0" xlink:href="#sprite15"/>
    </g>
    <g id="sprite15" transform="matrix(1.0, 0.0, 0.0, 1.0, 0.0, 0.0)">
      <use ffdec:characterId="25" ffdec:characterName="132_fla.Symbole72_17" height="56.0" id="back" transform="matrix(1.0, 0.0, 0.0, 1.0, 0.0, 0.0)" width="56.0" xlink:href="#sprite16"/>
    </g>
    <g id="sprite16" transform="matrix(1.0, 0.0, 0.0, 1.0, 0.0, 0.0)">
      <use ffdec:characterId="24" ffdec:characterName="132_fla.Symbole69_18" height="56.0" id="back" transform="matrix(1.0, 0.0, 0.0, 1.0, 0.0, 0.0)" width="56.0" xlink:href="#sprite17"/>
    </g>
    <g id="sprite17" transform="matrix(1.0, 0.0, 0.0, 1.0, 0.0, 0.0)">
      <use ffdec:characterId="23" ffdec:characterName="132_fla.Symbole66_19" height="56.0" id="back" transform="matrix(1.0, 0.0, 0.0, 1.0, 0.0, 0.0)" width="56.0" xlink:href="#sprite18"/>
    </g>
    <g id="sprite18" transform="matrix(1.0, 0.0, 0.0, 1.0, 0.0, 0.0)">
      <use ffdec:characterId="22" ffdec:characterName="132_fla.Symbole63_20" height="56.0" id="back" transform="matrix(1.0, 0.0, 0.0, 1.0, 0.0, 0.0)" width="56.0" xlink:href="#sprite19"/>
    </g>
    <g id="sprite19" transform="matrix(1.0, 0.0, 0.0, 1.0, 0.0, 0.0)">
      <use ffdec:characterId="21" ffdec:characterName="132_fla.Symbole60_21" height="56.0" id="back" transform="matrix(1.0, 0.0, 0.0, 1.0, 0.0, 0.0)" width="56.0" xlink:href="#sprite20"/>
    </g>
    <g id="sprite20" transform="matrix(1.0, 0.0, 0.0, 1.0, 0.0, 0.0)">
      <use ffdec:characterId="20" ffdec:characterName="132_fla.Symbole57_22" height="56.0" id="back" transform="matrix(1.0, 0.0, 0.0, 1.0, 0.0, 0.0)" width="56.0" xlink:href="#sprite21"/>
    </g>
    <g id="sprite21" transform="matrix(1.0, 0.0, 0.0, 1.0, 0.0, 0.0)">
      <use ffdec:characterId="19" ffdec:characterName="132_fla.Symbole54_23" height="56.0" id="back" transform="matrix(1.0, 0.0, 0.0, 1.0, 0.0, 0.0)" width="56.0" xlink:href="#sprite22"/>
    </g>
    <g id="sprite22" transform="matrix(1.0, 0.0, 0.0, 1.0, 0.0, 0.0)">
      <use ffdec:characterId="18" ffdec:characterName="132_fla.Symbole51_24" height="56.0" id="back" transform="matrix(1.0, 0.0, 0.0, 1.0, 0.0, 0.0)" width="56.0" xlink:href="#sprite23"/>
    </g>
    <g id="sprite23" transform="matrix(1.0, 0.0, 0.0, 1.0, 0.0, 0.0)">
      <use ffdec:characterId="17" ffdec:characterName="132_fla.Symbole48_25" height="56.0" id="back" transform="matrix(1.0, 0.0, 0.0, 1.0, 0.0, 0.0)" width="56.0" xlink:href="#sprite24"/>
    </g>
    <g id="sprite24" transform="matrix(1.0, 0.0, 0.0, 1.0, 0.0, 0.0)">
      <use ffdec:characterId="16" ffdec:characterName="132_fla.Symbole45_26" height="56.0" id="back" transform="matrix(1.0, 0.0, 0.0, 1.0, 0.0, 0.0)" width="56.0" xlink:href="#sprite25"/>
    </g>
    <g id="sprite25" transform="matrix(1.0, 0.0, 0.0, 1.0, 0.0, 0.0)">
      <use ffdec:characterId="15" ffdec:characterName="132_fla.Symbole42_27" height="56.0" id="back" transform="matrix(1.0, 0.0, 0.0, 1.0, 0.0, 0.0)" width="56.0" xlink:href="#sprite26"/>
    </g>
    <g id="sprite26" transform="matrix(1.0, 0.0, 0.0, 1.0, 0.0, 0.0)">
      <use ffdec:characterId="14" ffdec:characterName="132_fla.Symbole39_28" height="56.0" id="back" transform="matrix(1.0, 0.0, 0.0, 1.0, 0.0, 0.0)" width="56.0" xlink:href="#sprite27"/>
    </g>
    <g id="sprite27" transform="matrix(1.0, 0.0, 0.0, 1.0, 0.0, 0.0)">
      <use ffdec:characterId="13" ffdec:characterName="132_fla.Symbole36_29" height="56.0" id="back" transform="matrix(1.0, 0.0, 0.0, 1.0, 0.0, 0.0)" width="56.0" xlink:href="#sprite28"/>
    </g>
    <g id="sprite28" transform="matrix(1.0, 0.0, 0.0, 1.0, 0.0, 0.0)">
      <use ffdec:characterId="12" ffdec:characterName="132_fla.Symbole33_30" height="56.0" id="back" transform="matrix(1.0, 0.0, 0.0, 1.0, 0.0, 0.0)" width="56.0" xlink:href="#sprite29"/>
    </g>
    <g id="sprite29" transform="matrix(1.0, 0.0, 0.0, 1.0, 0.0, 0.0)">
      <use ffdec:characterId="11" ffdec:characterName="132_fla.Symbole30_31" height="56.0" id="back" transform="matrix(1.0, 0.0, 0.0, 1.0, 0.0, 0.0)" width="56.0" xlink:href="#sprite30"/>
    </g>
    <g id="sprite30" transform="matrix(1.0, 0.0, 0.0, 1.0, 0.0, 0.0)">
      <use ffdec:characterId="10" ffdec:characterName="132_fla.Symbole27_32" height="56.0" id="back" transform="matrix(1.0, 0.0, 0.0, 1.0, 0.0, 0.0)" width="56.0" xlink:href="#sprite31"/>
    </g>
    <g id="sprite31" transform="matrix(1.0, 0.0, 0.0, 1.0, 0.0, 0.0)">
      <use ffdec:characterId="9" ffdec:characterName="132_fla.Symbole24_33" height="56.0" id="back" transform="matrix(1.0, 0.0, 0.0, 1.0, 0.0, 0.0)" width="56.0" xlink:href="#sprite32"/>
    </g>
    <g id="sprite32" transform="matrix(1.0, 0.0, 0.0, 1.0, 0.0, 0.0)">
      <use ffdec:characterId="8" ffdec:characterName="132_fla.Symbole21_34" height="56.0" id="back" transform="matrix(1.0, 0.0, 0.0, 1.0, 0.0, 0.0)" width="56.0" xlink:href="#sprite33"/>
    </g>
    <g id="sprite33" transform="matrix(1.0, 0.0, 0.0, 1.0, 0.0, 0.0)">
      <use ffdec:characterId="7" ffdec:characterName="132_fla.Symbole18_35" height="56.0" id="back" transform="matrix(1.0, 0.0, 0.0, 1.0, 0.0, 0.0)" width="56.0" xlink:href="#sprite34"/>
    </g>
    <g id="sprite34" transform="matrix(1.0, 0.0, 0.0, 1.0, 0.0, 0.0)">
      <use ffdec:characterId="6" ffdec:characterName="132_fla.Symbole15_36" height="56.0" id="back" transform="matrix(1.0, 0.0, 0.0, 1.0, 0.0, 0.0)" width="56.0" xlink:href="#sprite35"/>
    </g>
    <g id="sprite35" transform="matrix(1.0, 0.0, 0.0, 1.0, 0.0, 0.0)">
      <use ffdec:characterId="5" ffdec:characterName="132_fla.Symbole12_37" height="56.0" id="back" transform="matrix(1.0, 0.0, 0.0, 1.0, 0.0, 0.0)" width="56.0" xlink:href="#sprite36"/>
    </g>
    <g id="sprite36" transform="matrix(1.0, 0.0, 0.0, 1.0, 0.0, 0.0)">
      <use ffdec:characterId="4" ffdec:characterName="132_fla.Symbole9_38" height="56.0" id="back" transform="matrix(1.0, 0.0, 0.0, 1.0, 0.0, 0.0)" width="56.0" xlink:href="#sprite37"/>
    </g>
    <g id="sprite37" transform="matrix(1.0, 0.0, 0.0, 1.0, 0.0, 0.0)">
      <use ffdec:characterId="3" ffdec:characterName="132_fla.Symbole6_39" height="56.0" id="back" transform="matrix(1.0, 0.0, 0.0, 1.0, 0.0, 0.0)" width="56.0" xlink:href="#sprite38"/>
    </g>
    <g id="sprite38" transform="matrix(1.0, 0.0, 0.0, 1.0, 0.0, 0.0)">
      <use ffdec:characterId="2" height="56.0" id="back" transform="matrix(1.0, 0.0, 0.0, 1.0, 0.0, 0.0)" width="56.0" xlink:href="#sprite39"/>
    </g>
    <g id="sprite39" transform="matrix(1.0, 0.0, 0.0, 1.0, 0.0, 0.0)">
      <use ffdec:characterId="1" height="56.0" transform="matrix(1.0, 0.0, 0.0, 1.0, 0.0, 0.0)" width="56.0" xlink:href="#shape0"/>
    </g>
    <g id="shape0" transform="matrix(1.0, 0.0, 0.0, 1.0, 0.0, 0.0)">
      <path d="M56.0 56.0 L0.0 56.0 0.0 0.0 56.0 0.0 56.0 56.0" fill="#010101" fill-opacity="0.0" fill-rule="evenodd" stroke="none"/>
    </g>
    <g id="sprite40" transform="matrix(1.0, 0.0, 0.0, 1.0, 0.75, 0.75)">
      <use ffdec:characterId="42" height="55.55" transform="matrix(1.0, 0.0, 0.0, 1.0, -0.75, -0.75)" width="53.5" xlink:href="#shape1"/>
    </g>
    <g id="shape1" transform="matrix(1.0, 0.0, 0.0, 1.0, 0.75, 0.75)">
      <path d="M42.9 10.6 L47.1 9.15 Q48.45 10.95 49.4 12.9 L46.1 15.65 Q46.95 17.35 47.3 19.25 L51.5 19.25 Q52.0 21.5 52.0 23.85 L52.0 24.05 47.9 24.4 47.45 28.05 51.15 30.35 49.4 34.8 45.15 33.8 43.35 36.35 45.55 40.0 45.05 40.65 42.5 42.9 39.3 40.1 Q37.7 41.15 35.9 41.9 L35.8 41.9 31.1 37.6 Q35.1 36.85 38.2 33.7 42.25 29.75 42.25 24.15 42.25 18.45 38.2 14.45 35.45 11.7 31.8 10.85 L28.6 10.45 27.65 10.45 Q22.7 10.85 18.95 14.45 15.35 18.1 15.05 23.1 L9.55 18.1 Q10.0 16.1 11.2 14.2 L7.95 11.45 Q9.15 9.5 10.95 7.55 L14.4 9.9 Q16.0 8.45 17.65 7.25 L16.4 3.05 Q18.3 2.05 20.4 1.3 L22.6 4.9 26.65 4.25 26.65 0.1 28.25 0.0 31.75 0.25 31.75 4.45 35.65 5.55 38.1 2.05 Q40.35 3.05 42.35 4.7 L40.4 8.45 42.1 9.9 42.9 10.6 M22.75 23.35 Q22.8 25.75 21.75 27.3 L9.5 40.25 Q8.3 41.2 7.4 41.2 4.1 41.7 2.3 43.45 -0.7 47.5 1.95 50.4 L5.3 45.4 9.55 48.4 6.65 53.45 Q11.8 52.35 12.55 47.5 12.6 44.65 13.95 42.75 L19.1 37.3 19.2 37.3 25.35 30.7 Q26.55 29.75 28.2 29.85 30.9 30.0 33.1 28.1 L33.75 27.05 Q35.1 23.95 33.5 20.85 L29.95 25.85 25.95 22.55 28.85 18.05 Q26.55 17.6 23.8 20.25 22.7 21.25 22.75 23.35 M20.95 16.4 Q17.8 19.55 17.8 24.15 L17.9 25.75 16.25 24.2 16.25 24.15 Q16.25 19.0 19.75 15.3 23.15 12.05 27.65 11.75 L28.6 11.75 31.5 12.05 Q34.7 12.8 37.25 15.3 40.85 19.0 40.85 24.15 40.85 29.3 37.25 32.85 34.15 36.1 29.7 36.45 L28.2 35.05 28.7 35.05 Q33.15 35.05 36.3 31.7 39.5 28.55 39.5 24.15 39.5 19.55 36.3 16.4 34.55 14.65 32.55 13.95 30.65 13.25 28.7 13.25 L26.55 13.45 Q23.3 14.0 20.95 16.4 M1.95 22.0 L5.65 25.85 7.1 26.25 7.95 26.15 14.95 33.1 15.9 32.05 9.05 25.15 9.15 24.15 8.75 22.75 4.9 18.9 1.95 22.0 M8.35 29.5 L2.8 29.5 1.45 31.7 1.35 32.05 0.0 34.3 2.9 39.15 5.55 39.15 5.8 39.15 8.35 39.15 9.75 36.85 9.95 36.45 11.25 34.3 8.35 29.5 M5.55 31.65 Q6.75 31.65 7.55 32.35 8.3 33.1 8.3 34.3 8.3 35.4 7.55 36.25 6.75 36.95 5.55 36.95 4.45 36.95 3.7 36.25 2.9 35.4 2.9 34.3 2.9 33.1 3.7 32.35 4.45 31.65 5.55 31.65 M24.85 37.2 L23.55 35.9 21.75 37.8 20.7 36.85 19.75 37.8 20.65 38.8 18.75 40.65 20.0 41.9 Q21.75 42.85 21.95 43.8 23.05 48.65 27.65 52.6 30.15 54.5 31.95 53.6 L32.3 53.3 33.1 54.05 36.8 50.15 36.15 49.45 36.4 49.1 Q37.45 47.3 35.55 44.65 31.4 40.25 26.65 39.0 25.6 39.0 24.85 37.2 M25.35 41.9 L25.0 42.15 24.9 42.15 Q24.5 42.65 24.5 43.25 L24.9 44.3 25.0 44.3 Q25.4 44.65 26.05 44.65 26.6 44.65 27.05 44.3 L27.55 43.25 Q27.55 42.65 27.05 42.15 26.6 41.7 26.05 41.7 L25.35 41.9 M26.05 44.15 L25.4 43.9 25.15 43.25 Q25.15 42.9 25.4 42.6 25.45 42.5 25.55 42.5 25.7 42.25 26.05 42.25 L26.65 42.6 26.9 43.25 26.65 43.9 26.05 44.15 Z" fill="none" stroke="#000000" stroke-linecap="round" stroke-linejoin="round" stroke-opacity="0.2" stroke-width="1.5"/>
    </g>
    <g id="sprite41" transform="matrix(1.0, 0.0, 0.0, 1.0, 0.0, 0.0)">
      <use ffdec:characterId="44" height="54.05" transform="matrix(1.0, 0.0, 0.0, 1.0, 0.0, 0.0)" width="52.0" xlink:href="#shape2"/>
    </g>
    <g id="shape2" transform="matrix(1.0, 0.0, 0.0, 1.0, 0.0, 0.0)">
      <path d="M49.4 12.9 L46.15 15.65 Q46.95 17.4 47.35 19.25 L51.5 19.25 Q52.0 21.5 52.0 23.85 L52.0 24.1 47.9 24.4 47.5 28.05 51.2 30.4 49.4 34.8 45.15 33.85 43.3 36.35 45.55 40.05 45.1 40.7 42.5 42.95 39.3 40.1 35.95 41.9 35.85 41.95 31.1 37.6 Q35.1 36.9 38.25 33.75 42.25 29.8 42.25 24.2 42.25 18.45 38.25 14.5 35.45 11.7 31.85 10.9 L28.6 10.5 27.65 10.5 Q22.65 10.9 18.95 14.5 15.35 18.15 15.05 23.15 L9.6 18.15 Q10.05 16.1 11.2 14.2 L7.95 11.45 Q9.15 9.5 10.95 7.6 L14.4 9.9 Q16.0 8.45 17.7 7.25 L16.4 3.1 Q18.35 2.05 20.4 1.3 L22.6 4.95 26.7 4.3 26.7 0.1 28.3 0.0 31.75 0.25 31.75 4.45 Q33.75 4.85 35.7 5.55 L38.1 2.1 Q40.35 3.1 42.35 4.7 L40.4 8.45 42.1 9.9 42.9 10.65 47.1 9.2 Q48.45 10.95 49.4 12.9 M22.75 23.35 Q22.65 21.3 23.8 20.3 26.55 17.65 28.85 18.05 L25.95 22.55 30.0 25.85 33.5 20.85 Q35.1 23.95 33.75 27.1 L33.1 28.1 Q30.95 30.05 28.2 29.9 26.55 29.8 25.3 30.7 L19.2 37.3 19.15 37.3 14.0 42.8 Q12.65 44.65 12.55 47.55 11.85 52.35 6.7 53.5 L9.6 48.4 5.3 45.45 1.95 50.45 Q-0.7 47.55 2.35 43.5 4.1 41.75 7.4 41.25 8.3 41.25 9.5 40.3 L21.8 27.3 Q22.85 25.8 22.75 23.35 M21.0 16.45 Q17.85 19.6 17.85 24.2 L17.95 25.8 16.25 24.25 16.25 24.2 Q16.25 19.0 19.8 15.3 23.15 12.1 27.65 11.8 L28.6 11.8 31.5 12.1 Q34.7 12.8 37.3 15.3 40.9 19.0 40.9 24.2 40.9 29.35 37.3 32.85 34.15 36.1 29.75 36.5 L28.2 35.05 28.7 35.05 Q33.2 35.05 36.35 31.75 39.55 28.6 39.55 24.2 39.55 19.6 36.35 16.45 34.55 14.65 32.55 13.95 30.7 13.3 28.7 13.3 L26.55 13.45 Q23.3 14.05 21.0 16.45 M5.55 31.65 Q4.45 31.65 3.7 32.4 2.9 33.1 2.9 34.3 2.9 35.45 3.7 36.25 4.45 37.0 5.55 37.0 6.75 37.0 7.55 36.25 8.3 35.45 8.3 34.3 8.3 33.1 7.55 32.4 6.75 31.65 5.55 31.65 M8.35 29.5 L11.25 34.3 10.0 36.5 9.75 36.9 8.35 39.15 5.8 39.15 5.55 39.15 2.9 39.15 0.0 34.3 1.4 32.05 1.45 31.75 2.85 29.5 8.35 29.5 M1.95 22.0 L4.9 18.95 8.75 22.8 9.15 24.2 9.1 25.15 15.9 32.05 14.95 33.1 7.95 26.2 7.1 26.25 5.65 25.85 1.95 22.0 M25.3 41.95 L25.0 42.2 24.9 42.2 Q24.5 42.7 24.5 43.25 L24.9 44.3 25.0 44.3 Q25.4 44.7 26.05 44.7 26.6 44.7 27.1 44.3 L27.55 43.25 27.1 42.2 Q26.6 41.75 26.05 41.75 L25.3 41.95 M24.85 37.2 Q25.65 39.0 26.7 39.0 31.45 40.3 35.5 44.7 37.45 47.3 36.4 49.15 L36.15 49.45 36.8 50.2 33.1 54.05 32.3 53.35 32.0 53.65 Q30.15 54.55 27.65 52.6 23.05 48.65 21.95 43.8 21.8 42.85 20.0 41.95 L18.75 40.7 20.65 38.85 19.8 37.85 20.75 36.9 21.8 37.8 23.55 35.95 24.85 37.2 M26.05 44.15 L25.4 43.9 25.15 43.25 Q25.15 42.95 25.4 42.6 L25.55 42.55 Q25.7 42.3 26.05 42.3 26.35 42.3 26.7 42.6 L26.95 43.25 26.7 43.9 26.05 44.15" fill="#000000" fill-rule="evenodd" stroke="none"/>
    </g>
  </defs>
</svg>
