<?xml version="1.0" encoding="UTF-8" standalone="no"?>
<svg xmlns:ffdec="https://www.free-decompiler.com/flash" xmlns:xlink="http://www.w3.org/1999/xlink" ffdec:objectType="frame" height="56.0px" width="56.0px" xmlns="http://www.w3.org/2000/svg">
  <g transform="matrix(1.0, 0.0, 0.0, 1.0, 0.0, 0.0)">
    <use ffdec:characterId="42" ffdec:characterName="133_fla.Symbole123_1" height="56.0" id="back" transform="matrix(1.0, 0.0, 0.0, 1.0, 0.0, 0.0)" width="56.0" xlink:href="#sprite0"/>
    <use ffdec:characterId="44" height="55.55" id="back" transform="matrix(1.0, 0.0, 0.0, 1.0, 2.15, 0.45)" width="51.9" xlink:href="#sprite41"/>
    <use ffdec:characterId="46" height="54.05" id="up" transform="matrix(1.0, 0.0, 0.0, 1.0, 2.9, 1.2)" width="50.45" xlink:href="#sprite42"/>
  </g>
  <defs>
    <g id="sprite0" transform="matrix(1.0, 0.0, 0.0, 1.0, 0.0, 0.0)">
      <use ffdec:characterId="41" ffdec:characterName="133_fla.Symbole120_2" height="56.0" id="back" transform="matrix(1.0, 0.0, 0.0, 1.0, 0.0, 0.0)" width="56.0" xlink:href="#sprite1"/>
    </g>
    <g id="sprite1" transform="matrix(1.0, 0.0, 0.0, 1.0, 0.0, 0.0)">
      <use ffdec:characterId="40" ffdec:characterName="133_fla.Symbole117_3" height="56.0" id="back" transform="matrix(1.0, 0.0, 0.0, 1.0, 0.0, 0.0)" width="56.0" xlink:href="#sprite2"/>
    </g>
    <g id="sprite2" transform="matrix(1.0, 0.0, 0.0, 1.0, 0.0, 0.0)">
      <use ffdec:characterId="39" ffdec:characterName="133_fla.Symbole114_4" height="56.0" id="back" transform="matrix(1.0, 0.0, 0.0, 1.0, 0.0, 0.0)" width="56.0" xlink:href="#sprite3"/>
    </g>
    <g id="sprite3" transform="matrix(1.0, 0.0, 0.0, 1.0, 0.0, 0.0)">
      <use ffdec:characterId="38" ffdec:characterName="133_fla.Symbole111_5" height="56.0" id="back" transform="matrix(1.0, 0.0, 0.0, 1.0, 0.0, 0.0)" width="56.0" xlink:href="#sprite4"/>
    </g>
    <g id="sprite4" transform="matrix(1.0, 0.0, 0.0, 1.0, 0.0, 0.0)">
      <use ffdec:characterId="37" ffdec:characterName="133_fla.Symbole108_6" height="56.0" id="back" transform="matrix(1.0, 0.0, 0.0, 1.0, 0.0, 0.0)" width="56.0" xlink:href="#sprite5"/>
    </g>
    <g id="sprite5" transform="matrix(1.0, 0.0, 0.0, 1.0, 0.0, 0.0)">
      <use ffdec:characterId="36" ffdec:characterName="133_fla.Symbole105_7" height="56.0" id="back" transform="matrix(1.0, 0.0, 0.0, 1.0, 0.0, 0.0)" width="56.0" xlink:href="#sprite6"/>
    </g>
    <g id="sprite6" transform="matrix(1.0, 0.0, 0.0, 1.0, 0.0, 0.0)">
      <use ffdec:characterId="35" ffdec:characterName="133_fla.Symbole102_8" height="56.0" id="back" transform="matrix(1.0, 0.0, 0.0, 1.0, 0.0, 0.0)" width="56.0" xlink:href="#sprite7"/>
    </g>
    <g id="sprite7" transform="matrix(1.0, 0.0, 0.0, 1.0, 0.0, 0.0)">
      <use ffdec:characterId="34" ffdec:characterName="133_fla.Symbole99_9" height="56.0" id="back" transform="matrix(1.0, 0.0, 0.0, 1.0, 0.0, 0.0)" width="56.0" xlink:href="#sprite8"/>
    </g>
    <g id="sprite8" transform="matrix(1.0, 0.0, 0.0, 1.0, 0.0, 0.0)">
      <use ffdec:characterId="33" ffdec:characterName="133_fla.Symbole96_10" height="56.0" id="back" transform="matrix(1.0, 0.0, 0.0, 1.0, 0.0, 0.0)" width="56.0" xlink:href="#sprite9"/>
    </g>
    <g id="sprite9" transform="matrix(1.0, 0.0, 0.0, 1.0, 0.0, 0.0)">
      <use ffdec:characterId="32" ffdec:characterName="133_fla.Symbole93_11" height="56.0" id="back" transform="matrix(1.0, 0.0, 0.0, 1.0, 0.0, 0.0)" width="56.0" xlink:href="#sprite10"/>
    </g>
    <g id="sprite10" transform="matrix(1.0, 0.0, 0.0, 1.0, 0.0, 0.0)">
      <use ffdec:characterId="31" ffdec:characterName="133_fla.Symbole90_12" height="56.0" id="back" transform="matrix(1.0, 0.0, 0.0, 1.0, 0.0, 0.0)" width="56.0" xlink:href="#sprite11"/>
    </g>
    <g id="sprite11" transform="matrix(1.0, 0.0, 0.0, 1.0, 0.0, 0.0)">
      <use ffdec:characterId="30" ffdec:characterName="133_fla.Symbole87_13" height="56.0" id="back" transform="matrix(1.0, 0.0, 0.0, 1.0, 0.0, 0.0)" width="56.0" xlink:href="#sprite12"/>
    </g>
    <g id="sprite12" transform="matrix(1.0, 0.0, 0.0, 1.0, 0.0, 0.0)">
      <use ffdec:characterId="29" ffdec:characterName="133_fla.Symbole84_14" height="56.0" id="back" transform="matrix(1.0, 0.0, 0.0, 1.0, 0.0, 0.0)" width="56.0" xlink:href="#sprite13"/>
    </g>
    <g id="sprite13" transform="matrix(1.0, 0.0, 0.0, 1.0, 0.0, 0.0)">
      <use ffdec:characterId="28" ffdec:characterName="133_fla.Symbole81_15" height="56.0" id="back" transform="matrix(1.0, 0.0, 0.0, 1.0, 0.0, 0.0)" width="56.0" xlink:href="#sprite14"/>
    </g>
    <g id="sprite14" transform="matrix(1.0, 0.0, 0.0, 1.0, 0.0, 0.0)">
      <use ffdec:characterId="27" ffdec:characterName="133_fla.Symbole78_16" height="56.0" id="back" transform="matrix(1.0, 0.0, 0.0, 1.0, 0.0, 0.0)" width="56.0" xlink:href="#sprite15"/>
    </g>
    <g id="sprite15" transform="matrix(1.0, 0.0, 0.0, 1.0, 0.0, 0.0)">
      <use ffdec:characterId="26" ffdec:characterName="133_fla.Symbole75_17" height="56.0" id="back" transform="matrix(1.0, 0.0, 0.0, 1.0, 0.0, 0.0)" width="56.0" xlink:href="#sprite16"/>
    </g>
    <g id="sprite16" transform="matrix(1.0, 0.0, 0.0, 1.0, 0.0, 0.0)">
      <use ffdec:characterId="25" ffdec:characterName="133_fla.Symbole72_18" height="56.0" id="back" transform="matrix(1.0, 0.0, 0.0, 1.0, 0.0, 0.0)" width="56.0" xlink:href="#sprite17"/>
    </g>
    <g id="sprite17" transform="matrix(1.0, 0.0, 0.0, 1.0, 0.0, 0.0)">
      <use ffdec:characterId="24" ffdec:characterName="133_fla.Symbole69_19" height="56.0" id="back" transform="matrix(1.0, 0.0, 0.0, 1.0, 0.0, 0.0)" width="56.0" xlink:href="#sprite18"/>
    </g>
    <g id="sprite18" transform="matrix(1.0, 0.0, 0.0, 1.0, 0.0, 0.0)">
      <use ffdec:characterId="23" ffdec:characterName="133_fla.Symbole66_20" height="56.0" id="back" transform="matrix(1.0, 0.0, 0.0, 1.0, 0.0, 0.0)" width="56.0" xlink:href="#sprite19"/>
    </g>
    <g id="sprite19" transform="matrix(1.0, 0.0, 0.0, 1.0, 0.0, 0.0)">
      <use ffdec:characterId="22" ffdec:characterName="133_fla.Symbole63_21" height="56.0" id="back" transform="matrix(1.0, 0.0, 0.0, 1.0, 0.0, 0.0)" width="56.0" xlink:href="#sprite20"/>
    </g>
    <g id="sprite20" transform="matrix(1.0, 0.0, 0.0, 1.0, 0.0, 0.0)">
      <use ffdec:characterId="21" ffdec:characterName="133_fla.Symbole60_22" height="56.0" id="back" transform="matrix(1.0, 0.0, 0.0, 1.0, 0.0, 0.0)" width="56.0" xlink:href="#sprite21"/>
    </g>
    <g id="sprite21" transform="matrix(1.0, 0.0, 0.0, 1.0, 0.0, 0.0)">
      <use ffdec:characterId="20" ffdec:characterName="133_fla.Symbole57_23" height="56.0" id="back" transform="matrix(1.0, 0.0, 0.0, 1.0, 0.0, 0.0)" width="56.0" xlink:href="#sprite22"/>
    </g>
    <g id="sprite22" transform="matrix(1.0, 0.0, 0.0, 1.0, 0.0, 0.0)">
      <use ffdec:characterId="19" ffdec:characterName="133_fla.Symbole54_24" height="56.0" id="back" transform="matrix(1.0, 0.0, 0.0, 1.0, 0.0, 0.0)" width="56.0" xlink:href="#sprite23"/>
    </g>
    <g id="sprite23" transform="matrix(1.0, 0.0, 0.0, 1.0, 0.0, 0.0)">
      <use ffdec:characterId="18" ffdec:characterName="133_fla.Symbole51_25" height="56.0" id="back" transform="matrix(1.0, 0.0, 0.0, 1.0, 0.0, 0.0)" width="56.0" xlink:href="#sprite24"/>
    </g>
    <g id="sprite24" transform="matrix(1.0, 0.0, 0.0, 1.0, 0.0, 0.0)">
      <use ffdec:characterId="17" ffdec:characterName="133_fla.Symbole48_26" height="56.0" id="back" transform="matrix(1.0, 0.0, 0.0, 1.0, 0.0, 0.0)" width="56.0" xlink:href="#sprite25"/>
    </g>
    <g id="sprite25" transform="matrix(1.0, 0.0, 0.0, 1.0, 0.0, 0.0)">
      <use ffdec:characterId="16" ffdec:characterName="133_fla.Symbole45_27" height="56.0" id="back" transform="matrix(1.0, 0.0, 0.0, 1.0, 0.0, 0.0)" width="56.0" xlink:href="#sprite26"/>
    </g>
    <g id="sprite26" transform="matrix(1.0, 0.0, 0.0, 1.0, 0.0, 0.0)">
      <use ffdec:characterId="15" ffdec:characterName="133_fla.Symbole42_28" height="56.0" id="back" transform="matrix(1.0, 0.0, 0.0, 1.0, 0.0, 0.0)" width="56.0" xlink:href="#sprite27"/>
    </g>
    <g id="sprite27" transform="matrix(1.0, 0.0, 0.0, 1.0, 0.0, 0.0)">
      <use ffdec:characterId="14" ffdec:characterName="133_fla.Symbole39_29" height="56.0" id="back" transform="matrix(1.0, 0.0, 0.0, 1.0, 0.0, 0.0)" width="56.0" xlink:href="#sprite28"/>
    </g>
    <g id="sprite28" transform="matrix(1.0, 0.0, 0.0, 1.0, 0.0, 0.0)">
      <use ffdec:characterId="13" ffdec:characterName="133_fla.Symbole36_30" height="56.0" id="back" transform="matrix(1.0, 0.0, 0.0, 1.0, 0.0, 0.0)" width="56.0" xlink:href="#sprite29"/>
    </g>
    <g id="sprite29" transform="matrix(1.0, 0.0, 0.0, 1.0, 0.0, 0.0)">
      <use ffdec:characterId="12" ffdec:characterName="133_fla.Symbole33_31" height="56.0" id="back" transform="matrix(1.0, 0.0, 0.0, 1.0, 0.0, 0.0)" width="56.0" xlink:href="#sprite30"/>
    </g>
    <g id="sprite30" transform="matrix(1.0, 0.0, 0.0, 1.0, 0.0, 0.0)">
      <use ffdec:characterId="11" ffdec:characterName="133_fla.Symbole30_32" height="56.0" id="back" transform="matrix(1.0, 0.0, 0.0, 1.0, 0.0, 0.0)" width="56.0" xlink:href="#sprite31"/>
    </g>
    <g id="sprite31" transform="matrix(1.0, 0.0, 0.0, 1.0, 0.0, 0.0)">
      <use ffdec:characterId="10" ffdec:characterName="133_fla.Symbole27_33" height="56.0" id="back" transform="matrix(1.0, 0.0, 0.0, 1.0, 0.0, 0.0)" width="56.0" xlink:href="#sprite32"/>
    </g>
    <g id="sprite32" transform="matrix(1.0, 0.0, 0.0, 1.0, 0.0, 0.0)">
      <use ffdec:characterId="9" ffdec:characterName="133_fla.Symbole24_34" height="56.0" id="back" transform="matrix(1.0, 0.0, 0.0, 1.0, 0.0, 0.0)" width="56.0" xlink:href="#sprite33"/>
    </g>
    <g id="sprite33" transform="matrix(1.0, 0.0, 0.0, 1.0, 0.0, 0.0)">
      <use ffdec:characterId="8" ffdec:characterName="133_fla.Symbole21_35" height="56.0" id="back" transform="matrix(1.0, 0.0, 0.0, 1.0, 0.0, 0.0)" width="56.0" xlink:href="#sprite34"/>
    </g>
    <g id="sprite34" transform="matrix(1.0, 0.0, 0.0, 1.0, 0.0, 0.0)">
      <use ffdec:characterId="7" ffdec:characterName="133_fla.Symbole18_36" height="56.0" id="back" transform="matrix(1.0, 0.0, 0.0, 1.0, 0.0, 0.0)" width="56.0" xlink:href="#sprite35"/>
    </g>
    <g id="sprite35" transform="matrix(1.0, 0.0, 0.0, 1.0, 0.0, 0.0)">
      <use ffdec:characterId="6" ffdec:characterName="133_fla.Symbole15_37" height="56.0" id="back" transform="matrix(1.0, 0.0, 0.0, 1.0, 0.0, 0.0)" width="56.0" xlink:href="#sprite36"/>
    </g>
    <g id="sprite36" transform="matrix(1.0, 0.0, 0.0, 1.0, 0.0, 0.0)">
      <use ffdec:characterId="5" ffdec:characterName="133_fla.Symbole12_38" height="56.0" id="back" transform="matrix(1.0, 0.0, 0.0, 1.0, 0.0, 0.0)" width="56.0" xlink:href="#sprite37"/>
    </g>
    <g id="sprite37" transform="matrix(1.0, 0.0, 0.0, 1.0, 0.0, 0.0)">
      <use ffdec:characterId="4" ffdec:characterName="133_fla.Symbole9_39" height="56.0" id="back" transform="matrix(1.0, 0.0, 0.0, 1.0, 0.0, 0.0)" width="56.0" xlink:href="#sprite38"/>
    </g>
    <g id="sprite38" transform="matrix(1.0, 0.0, 0.0, 1.0, 0.0, 0.0)">
      <use ffdec:characterId="3" ffdec:characterName="133_fla.Symbole6_40" height="56.0" id="back" transform="matrix(1.0, 0.0, 0.0, 1.0, 0.0, 0.0)" width="56.0" xlink:href="#sprite39"/>
    </g>
    <g id="sprite39" transform="matrix(1.0, 0.0, 0.0, 1.0, 0.0, 0.0)">
      <use ffdec:characterId="2" height="56.0" id="back" transform="matrix(1.0, 0.0, 0.0, 1.0, 0.0, 0.0)" width="56.0" xlink:href="#sprite40"/>
    </g>
    <g id="sprite40" transform="matrix(1.0, 0.0, 0.0, 1.0, 0.0, 0.0)">
      <use ffdec:characterId="1" height="56.0" transform="matrix(1.0, 0.0, 0.0, 1.0, 0.0, 0.0)" width="56.0" xlink:href="#shape0"/>
    </g>
    <g id="shape0" transform="matrix(1.0, 0.0, 0.0, 1.0, 0.0, 0.0)">
      <path d="M56.0 56.0 L0.0 56.0 0.0 0.0 56.0 0.0 56.0 56.0" fill="#010101" fill-opacity="0.0" fill-rule="evenodd" stroke="none"/>
    </g>
    <g id="sprite41" transform="matrix(1.0, 0.0, 0.0, 1.0, 0.75, 0.75)">
      <use ffdec:characterId="43" height="55.55" transform="matrix(1.0, 0.0, 0.0, 1.0, -0.75, -0.75)" width="51.9" xlink:href="#shape1"/>
    </g>
    <g id="shape1" transform="matrix(1.0, 0.0, 0.0, 1.0, 0.75, 0.75)">
      <path d="M38.0 34.95 Q36.1 34.95 34.45 35.6 34.15 34.95 33.65 34.65 L33.55 34.65 32.3 34.6 Q31.6 34.75 31.35 35.4 L31.1 35.95 Q31.1 35.25 30.7 34.75 L30.6 34.75 Q30.05 34.3 29.4 34.3 L28.1 34.5 Q28.05 34.5 27.95 34.6 L27.3 33.1 Q28.5 32.7 29.15 31.65 29.6 31.05 29.5 30.45 29.4 29.65 28.85 29.3 28.3 28.85 27.65 28.95 26.9 29.0 26.55 29.6 L26.5 27.0 Q28.05 26.7 28.95 25.4 29.3 24.8 29.2 24.2 29.2 23.45 28.6 23.0 27.95 22.6 27.3 22.65 L26.75 22.9 26.9 20.7 27.0 20.6 Q28.45 20.35 29.2 19.15 29.65 18.55 29.5 17.95 29.4 17.2 28.85 16.75 28.4 16.35 27.65 16.4 L27.85 15.8 27.75 15.65 28.4 15.6 25.65 15.65 25.45 15.6 25.4 15.3 25.45 15.05 25.65 14.95 28.4 14.85 28.6 14.95 28.7 15.25 28.6 15.5 28.5 15.6 Q29.95 15.15 31.1 13.25 32.6 10.85 32.55 7.65 32.55 4.35 30.85 2.2 29.2 0.0 27.1 0.0 L5.3 0.4 Q2.95 0.5 1.45 2.9 0.0 5.2 0.0 8.55 0.1 11.8 1.75 14.05 3.2 16.25 5.35 16.25 L5.9 46.1 Q23.9 47.4 49.1 46.3 L49.1 45.65 Q49.05 43.9 48.65 42.35 47.7 39.9 45.8 37.8 42.55 34.75 38.0 34.95 M49.05 47.85 L49.1 47.55 Q23.9 48.8 5.95 47.4 5.35 47.65 5.05 48.2 4.0 49.2 4.0 50.6 4.05 52.05 5.15 52.95 L5.5 53.3 5.7 53.4 Q5.8 53.6 6.05 53.6 L6.15 53.6 Q6.25 53.05 6.65 52.65 7.15 52.05 7.85 52.05 8.55 52.05 9.15 52.55 9.65 53.15 9.65 53.85 L13.1 53.85 Q13.1 53.15 13.65 52.5 14.2 51.85 14.85 51.85 15.6 51.85 16.15 52.5 16.65 53.05 16.65 53.75 L19.45 53.65 Q19.45 52.95 20.0 52.4 20.5 51.75 21.15 51.75 21.95 51.75 22.45 52.4 22.9 52.85 23.0 53.4 L23.85 53.05 24.45 52.65 24.65 52.3 25.3 50.85 29.7 50.75 29.7 51.45 Q29.7 52.55 30.5 53.4 31.1 54.05 31.95 54.05 L31.95 53.85 31.95 53.6 Q32.05 53.05 32.45 52.55 33.0 52.05 33.65 52.05 34.45 52.05 34.9 52.55 35.45 53.15 35.45 53.85 L35.45 54.05 38.95 53.95 38.95 53.75 Q38.95 53.05 39.5 52.5 40.05 51.95 40.65 51.95 41.4 51.85 41.95 52.4 42.55 52.95 42.55 53.65 L42.55 53.85 45.25 53.85 45.25 53.65 Q45.25 52.95 45.8 52.3 46.35 51.75 47.0 51.75 47.75 51.75 48.3 52.3 48.8 52.85 48.8 53.5 L48.8 53.6 49.75 53.05 Q50.4 52.15 50.4 51.0 50.4 50.2 50.0 49.75 L50.25 48.95 Q50.25 48.45 49.85 48.1 L49.05 47.85 M28.45 1.9 L28.4 1.7 28.1 1.55 25.4 1.6 25.2 1.8 25.1 1.95 25.2 2.3 25.4 2.3 28.1 2.2 28.4 2.2 28.45 1.9 M22.7 1.6 L20.05 1.7 Q19.9 1.7 19.8 1.9 L19.7 2.05 19.8 2.35 20.05 2.35 22.7 2.3 23.0 2.3 23.1 1.95 23.0 1.8 22.7 1.6 M17.7 2.05 L17.6 1.9 17.35 1.7 14.65 1.8 Q14.5 1.8 14.4 1.95 L14.3 2.1 14.4 2.45 14.65 2.45 17.35 2.35 17.6 2.35 17.7 2.05 M23.75 14.95 L21.1 15.05 Q20.9 15.05 20.9 15.15 L20.75 15.4 20.9 15.65 21.1 15.75 23.75 15.65 24.1 15.6 24.1 15.3 24.1 15.05 23.75 14.95 M18.7 15.15 L18.45 15.05 15.7 15.15 15.55 15.25 Q15.4 15.3 15.4 15.5 L15.55 15.75 15.7 15.8 18.45 15.75 18.7 15.65 18.8 15.4 18.7 15.15 M21.95 17.25 L22.7 17.25 Q25.95 18.65 27.0 17.5 27.25 17.2 27.65 17.15 L27.75 17.15 28.45 17.25 Q28.8 17.5 28.8 18.05 28.95 18.5 28.7 18.7 28.05 19.7 26.9 20.0 25.0 20.45 21.95 19.15 21.6 19.05 21.55 18.65 21.25 18.25 21.45 17.95 L21.45 17.9 Q21.6 17.45 21.9 17.25 L21.95 17.25 M12.3 2.2 L12.3 2.05 11.95 1.9 9.3 1.9 Q9.15 1.9 9.15 2.05 L8.95 2.2 9.15 2.55 11.95 2.55 12.3 2.55 12.3 2.2 M3.75 2.65 L3.95 2.65 6.65 2.65 6.9 2.65 7.0 2.3 6.9 2.1 6.65 1.95 3.95 1.95 3.75 2.1 3.6 2.3 3.75 2.65 M5.8 15.4 L5.6 15.65 5.8 15.9 5.95 16.0 8.7 15.9 8.95 15.8 9.05 15.6 8.95 15.3 8.7 15.25 5.95 15.3 5.8 15.4 M13.3 15.75 L13.4 15.5 13.3 15.25 13.05 15.15 10.35 15.25 10.15 15.3 10.1 15.6 10.15 15.8 10.35 15.9 13.05 15.8 13.3 15.75 M12.55 34.5 Q14.1 34.4 15.1 35.5 16.2 36.5 16.3 38.05 16.3 39.6 15.2 40.7 14.3 41.9 12.75 41.9 11.2 41.9 10.0 40.8 8.9 39.7 8.9 38.15 8.8 36.6 9.9 35.6 11.0 34.5 12.55 34.5 M28.4 25.0 Q27.65 26.0 26.4 26.35 24.6 26.7 21.7 25.5 21.25 25.35 21.15 24.9 21.0 24.45 21.15 24.2 L21.15 24.1 Q21.35 23.7 21.7 23.6 L21.8 23.6 22.45 23.55 Q25.65 24.9 26.75 23.8 L26.85 23.8 26.9 23.7 Q27.1 23.45 27.5 23.35 L28.3 23.55 28.6 24.3 28.4 25.0 M28.6 31.2 Q28.1 32.2 27.1 32.5 L27.15 32.5 Q25.2 33.05 21.9 31.75 L21.45 31.15 Q21.15 30.75 21.45 30.45 L21.45 30.4 Q21.55 29.95 21.9 29.85 L21.95 29.85 22.7 29.75 Q25.65 31.05 26.85 30.3 L26.85 30.2 27.0 30.05 Q27.25 29.65 27.75 29.6 L28.45 29.75 28.8 30.55 28.6 31.2 M28.3 35.15 L29.4 35.05 30.15 35.25 30.4 35.95 30.4 36.3 30.35 36.7 30.25 36.7 29.6 36.95 Q27.25 37.25 26.4 40.05 L26.4 39.95 25.85 40.55 25.1 40.65 24.55 40.15 Q24.35 39.7 24.55 39.35 25.55 35.85 28.2 35.15 L28.3 35.15 M31.95 35.7 Q32.25 35.25 32.55 35.15 L33.35 35.25 33.8 35.85 33.9 36.5 Q32.7 38.8 33.25 40.15 L33.25 40.9 32.7 41.5 32.05 41.5 31.35 41.0 Q30.6 39.25 31.6 36.45 L31.95 35.6 31.95 35.7 Z" fill="none" stroke="#000000" stroke-linecap="round" stroke-linejoin="round" stroke-opacity="0.2" stroke-width="1.5"/>
    </g>
    <g id="sprite42" transform="matrix(1.0, 0.0, 0.0, 1.0, 0.0, 0.0)">
      <use ffdec:characterId="45" height="54.05" transform="matrix(1.0, 0.0, 0.0, 1.0, 0.0, 0.0)" width="50.45" xlink:href="#shape2"/>
    </g>
    <g id="shape2" transform="matrix(1.0, 0.0, 0.0, 1.0, 0.0, 0.0)">
      <path d="M38.05 34.95 Q42.6 34.8 45.85 37.85 47.7 39.95 48.65 42.4 49.1 43.95 49.15 45.65 L49.15 46.35 Q23.95 47.45 5.9 46.2 L5.4 16.3 Q3.25 16.3 1.8 14.05 0.1 11.85 0.0 8.6 0.0 5.25 1.45 2.95 3.0 0.55 5.3 0.45 L27.1 0.0 Q29.25 0.0 30.9 2.25 32.6 4.4 32.6 7.75 32.7 10.9 31.15 13.3 30.05 15.2 28.55 15.6 L28.65 15.5 28.75 15.25 28.65 15.0 28.4 14.9 25.65 15.0 25.5 15.1 25.4 15.35 25.5 15.6 25.65 15.7 28.4 15.6 27.8 15.7 27.9 15.85 27.7 16.45 Q28.4 16.4 28.9 16.8 29.45 17.25 29.5 18.0 29.7 18.6 29.25 19.2 28.5 20.4 27.05 20.65 L26.95 20.75 26.8 22.95 27.4 22.7 Q27.95 22.65 28.65 23.05 29.25 23.5 29.25 24.25 L29.0 25.45 Q28.05 26.75 26.5 27.1 L26.6 29.65 Q26.95 29.05 27.7 28.95 L28.9 29.3 Q29.45 29.75 29.5 30.5 29.6 31.1 29.15 31.7 28.55 32.75 27.4 33.15 L27.95 34.6 28.15 34.55 29.45 34.35 Q30.1 34.35 30.6 34.8 L30.7 34.8 Q31.15 35.3 31.15 36.0 L31.4 35.45 Q31.65 34.8 32.35 34.6 L33.6 34.7 33.7 34.7 Q34.2 34.95 34.45 35.65 36.1 34.95 38.05 34.95 M49.15 47.65 L49.1 47.9 49.85 48.15 Q50.3 48.5 50.3 49.0 L50.05 49.75 Q50.45 50.3 50.45 51.05 50.45 52.15 49.75 53.1 L48.85 53.65 48.85 53.55 Q48.85 52.85 48.3 52.35 47.8 51.85 47.05 51.85 46.35 51.85 45.85 52.35 45.35 53.05 45.35 53.7 L45.35 53.9 42.6 53.9 42.6 53.7 Q42.6 53.05 42.0 52.45 41.5 51.9 40.7 52.0 40.1 52.0 39.5 52.5 39.0 53.1 39.0 53.8 L39.0 53.95 35.5 54.05 35.5 53.9 Q35.5 53.2 35.0 52.6 34.45 52.1 33.7 52.1 33.0 52.1 32.5 52.6 32.1 53.1 32.0 53.65 L32.0 53.9 32.0 54.05 Q31.15 54.05 30.55 53.45 29.75 52.6 29.75 51.5 L29.75 50.8 25.3 50.9 24.75 52.35 24.45 52.7 23.85 53.1 23.0 53.45 Q22.95 52.85 22.5 52.45 22.0 51.85 21.2 51.85 20.55 51.85 20.0 52.45 19.5 53.05 19.5 53.7 L16.7 53.8 Q16.7 53.1 16.2 52.5 15.65 51.9 14.9 51.9 14.2 51.9 13.7 52.5 13.2 53.2 13.2 53.9 L9.7 53.9 Q9.7 53.2 9.15 52.6 8.55 52.1 7.9 52.1 7.2 52.1 6.7 52.7 6.25 53.1 6.15 53.65 L6.1 53.65 5.75 53.45 5.6 53.35 5.15 53.05 Q4.1 52.1 4.05 50.65 4.05 49.25 5.05 48.25 5.4 47.7 6.0 47.45 23.95 48.85 49.15 47.65 M28.5 1.9 L28.4 1.75 28.15 1.55 25.4 1.65 25.25 1.8 25.15 2.0 25.25 2.35 25.4 2.35 28.15 2.25 28.4 2.25 28.5 1.9 M23.0 2.35 L23.1 2.0 23.0 1.8 22.75 1.65 20.1 1.75 Q19.95 1.75 19.85 1.9 L19.75 2.1 19.85 2.4 20.1 2.4 22.75 2.35 23.0 2.35 M17.7 2.1 L17.65 1.9 17.35 1.75 14.7 1.8 14.45 2.0 14.4 2.15 14.45 2.5 14.7 2.5 17.35 2.4 17.65 2.4 17.7 2.1 M23.8 15.0 L21.15 15.1 20.95 15.2 Q20.8 15.25 20.8 15.45 L20.95 15.7 21.15 15.8 23.8 15.7 24.15 15.6 24.15 15.35 24.15 15.1 23.8 15.0 M18.75 15.2 L18.5 15.1 15.75 15.2 15.6 15.25 15.4 15.5 15.6 15.8 15.75 15.85 18.5 15.8 18.75 15.7 18.85 15.45 18.75 15.2 M22.0 17.3 L21.9 17.3 21.5 17.9 21.5 18.0 Q21.3 18.25 21.55 18.7 21.65 19.1 22.0 19.2 25.05 20.5 26.95 20.05 28.05 19.7 28.75 18.75 29.0 18.5 28.85 18.1 L28.5 17.3 Q28.25 17.05 27.8 17.15 L27.7 17.15 Q27.3 17.25 27.05 17.6 26.0 18.7 22.75 17.3 22.4 17.15 22.0 17.3 M12.35 2.1 L12.0 1.9 9.35 1.9 9.15 2.1 9.0 2.25 9.15 2.6 12.0 2.6 12.35 2.6 12.35 2.25 12.35 2.1 M3.8 2.15 L3.6 2.35 3.8 2.7 3.95 2.7 6.7 2.7 6.95 2.7 7.05 2.35 6.95 2.15 6.7 2.0 3.95 2.0 3.8 2.15 M5.85 15.45 L5.65 15.7 5.85 15.95 6.0 16.05 8.75 15.95 9.0 15.85 9.1 15.6 9.0 15.35 8.75 15.25 6.0 15.35 Q5.9 15.35 5.85 15.45 M13.35 15.8 L13.45 15.5 13.35 15.25 13.1 15.2 10.35 15.25 10.2 15.35 10.1 15.6 10.2 15.85 10.35 15.95 13.1 15.85 13.35 15.8 M32.0 35.75 L32.0 35.65 31.65 36.5 Q30.6 39.35 31.4 41.05 L32.1 41.55 32.75 41.55 33.25 40.95 Q33.45 40.55 33.25 40.2 32.75 38.8 33.95 36.6 L33.85 35.9 Q33.7 35.45 33.35 35.3 L32.6 35.2 Q32.25 35.3 32.0 35.75 M28.3 35.2 L28.25 35.2 Q25.6 35.9 24.55 39.4 24.4 39.75 24.55 40.2 L25.15 40.7 25.9 40.6 26.45 40.0 26.45 40.1 Q27.3 37.25 29.6 37.0 L30.3 36.75 30.35 36.75 30.45 36.35 30.45 36.0 30.2 35.3 29.45 35.05 28.3 35.2 M28.85 30.6 L28.5 29.8 Q28.15 29.55 27.8 29.65 L27.05 30.1 26.85 30.25 26.85 30.35 Q25.65 31.1 22.75 29.8 L22.0 29.9 21.9 29.9 Q21.55 30.0 21.5 30.4 L21.5 30.5 Q21.2 30.75 21.5 31.2 21.55 31.6 21.9 31.8 25.25 33.1 27.2 32.55 L27.1 32.55 Q28.15 32.2 28.65 31.3 L28.85 30.6 M28.4 25.05 L28.65 24.35 28.3 23.55 27.55 23.4 Q27.1 23.5 26.95 23.75 L26.85 23.85 26.8 23.85 Q25.65 24.95 22.5 23.55 L21.8 23.65 21.75 23.65 Q21.4 23.75 21.2 24.15 L21.2 24.25 Q21.05 24.5 21.2 24.95 21.3 25.35 21.75 25.55 24.65 26.75 26.45 26.4 27.7 26.05 28.4 25.05 M12.6 34.55 Q11.05 34.55 9.95 35.65 8.8 36.65 8.9 38.2 8.9 39.75 10.0 40.85 11.2 42.0 12.75 42.0 14.3 41.9 15.25 40.8 16.35 39.65 16.35 38.15 16.25 36.6 15.15 35.55 14.1 34.45 12.6 34.55" fill="#000000" fill-rule="evenodd" stroke="none"/>
    </g>
  </defs>
</svg>
