<?xml version="1.0" encoding="UTF-8" standalone="no"?>
<svg xmlns:ffdec="https://www.free-decompiler.com/flash" xmlns:xlink="http://www.w3.org/1999/xlink" ffdec:objectType="frame" height="56.0px" width="56.0px" xmlns="http://www.w3.org/2000/svg">
  <g transform="matrix(1.0, 0.0, 0.0, 1.0, 0.0, 0.0)">
    <use ffdec:characterId="48" ffdec:characterName="139_fla.Symbole141_1" height="56.0" id="back" transform="matrix(1.0, 0.0, 0.0, 1.0, 0.0, 0.0)" width="56.0" xlink:href="#sprite0"/>
    <use ffdec:characterId="50" height="55.45" id="back" transform="matrix(1.0, 0.0, 0.0, 1.0, 1.0, 0.45)" width="54.3" xlink:href="#sprite47"/>
    <use ffdec:characterId="52" height="53.95" id="up" transform="matrix(1.0, 0.0, 0.0, 1.0, 1.75, 1.2)" width="52.8" xlink:href="#sprite48"/>
  </g>
  <defs>
    <g id="sprite0" transform="matrix(1.0, 0.0, 0.0, 1.0, 0.0, 0.0)">
      <use ffdec:characterId="47" ffdec:characterName="139_fla.Symbole138_2" height="56.0" id="back" transform="matrix(1.0, 0.0, 0.0, 1.0, 0.0, 0.0)" width="56.0" xlink:href="#sprite1"/>
    </g>
    <g id="sprite1" transform="matrix(1.0, 0.0, 0.0, 1.0, 0.0, 0.0)">
      <use ffdec:characterId="46" ffdec:characterName="139_fla.Symbole135_3" height="56.0" id="back" transform="matrix(1.0, 0.0, 0.0, 1.0, 0.0, 0.0)" width="56.0" xlink:href="#sprite2"/>
    </g>
    <g id="sprite2" transform="matrix(1.0, 0.0, 0.0, 1.0, 0.0, 0.0)">
      <use ffdec:characterId="45" ffdec:characterName="139_fla.Symbole132_4" height="56.0" id="back" transform="matrix(1.0, 0.0, 0.0, 1.0, 0.0, 0.0)" width="56.0" xlink:href="#sprite3"/>
    </g>
    <g id="sprite3" transform="matrix(1.0, 0.0, 0.0, 1.0, 0.0, 0.0)">
      <use ffdec:characterId="44" ffdec:characterName="139_fla.Symbole129_5" height="56.0" id="back" transform="matrix(1.0, 0.0, 0.0, 1.0, 0.0, 0.0)" width="56.0" xlink:href="#sprite4"/>
    </g>
    <g id="sprite4" transform="matrix(1.0, 0.0, 0.0, 1.0, 0.0, 0.0)">
      <use ffdec:characterId="43" ffdec:characterName="139_fla.Symbole126_6" height="56.0" id="back" transform="matrix(1.0, 0.0, 0.0, 1.0, 0.0, 0.0)" width="56.0" xlink:href="#sprite5"/>
    </g>
    <g id="sprite5" transform="matrix(1.0, 0.0, 0.0, 1.0, 0.0, 0.0)">
      <use ffdec:characterId="42" ffdec:characterName="139_fla.Symbole123_7" height="56.0" id="back" transform="matrix(1.0, 0.0, 0.0, 1.0, 0.0, 0.0)" width="56.0" xlink:href="#sprite6"/>
    </g>
    <g id="sprite6" transform="matrix(1.0, 0.0, 0.0, 1.0, 0.0, 0.0)">
      <use ffdec:characterId="41" ffdec:characterName="139_fla.Symbole120_8" height="56.0" id="back" transform="matrix(1.0, 0.0, 0.0, 1.0, 0.0, 0.0)" width="56.0" xlink:href="#sprite7"/>
    </g>
    <g id="sprite7" transform="matrix(1.0, 0.0, 0.0, 1.0, 0.0, 0.0)">
      <use ffdec:characterId="40" ffdec:characterName="139_fla.Symbole117_9" height="56.0" id="back" transform="matrix(1.0, 0.0, 0.0, 1.0, 0.0, 0.0)" width="56.0" xlink:href="#sprite8"/>
    </g>
    <g id="sprite8" transform="matrix(1.0, 0.0, 0.0, 1.0, 0.0, 0.0)">
      <use ffdec:characterId="39" ffdec:characterName="139_fla.Symbole114_10" height="56.0" id="back" transform="matrix(1.0, 0.0, 0.0, 1.0, 0.0, 0.0)" width="56.0" xlink:href="#sprite9"/>
    </g>
    <g id="sprite9" transform="matrix(1.0, 0.0, 0.0, 1.0, 0.0, 0.0)">
      <use ffdec:characterId="38" ffdec:characterName="139_fla.Symbole111_11" height="56.0" id="back" transform="matrix(1.0, 0.0, 0.0, 1.0, 0.0, 0.0)" width="56.0" xlink:href="#sprite10"/>
    </g>
    <g id="sprite10" transform="matrix(1.0, 0.0, 0.0, 1.0, 0.0, 0.0)">
      <use ffdec:characterId="37" ffdec:characterName="139_fla.Symbole108_12" height="56.0" id="back" transform="matrix(1.0, 0.0, 0.0, 1.0, 0.0, 0.0)" width="56.0" xlink:href="#sprite11"/>
    </g>
    <g id="sprite11" transform="matrix(1.0, 0.0, 0.0, 1.0, 0.0, 0.0)">
      <use ffdec:characterId="36" ffdec:characterName="139_fla.Symbole105_13" height="56.0" id="back" transform="matrix(1.0, 0.0, 0.0, 1.0, 0.0, 0.0)" width="56.0" xlink:href="#sprite12"/>
    </g>
    <g id="sprite12" transform="matrix(1.0, 0.0, 0.0, 1.0, 0.0, 0.0)">
      <use ffdec:characterId="35" ffdec:characterName="139_fla.Symbole102_14" height="56.0" id="back" transform="matrix(1.0, 0.0, 0.0, 1.0, 0.0, 0.0)" width="56.0" xlink:href="#sprite13"/>
    </g>
    <g id="sprite13" transform="matrix(1.0, 0.0, 0.0, 1.0, 0.0, 0.0)">
      <use ffdec:characterId="34" ffdec:characterName="139_fla.Symbole99_15" height="56.0" id="back" transform="matrix(1.0, 0.0, 0.0, 1.0, 0.0, 0.0)" width="56.0" xlink:href="#sprite14"/>
    </g>
    <g id="sprite14" transform="matrix(1.0, 0.0, 0.0, 1.0, 0.0, 0.0)">
      <use ffdec:characterId="33" ffdec:characterName="139_fla.Symbole96_16" height="56.0" id="back" transform="matrix(1.0, 0.0, 0.0, 1.0, 0.0, 0.0)" width="56.0" xlink:href="#sprite15"/>
    </g>
    <g id="sprite15" transform="matrix(1.0, 0.0, 0.0, 1.0, 0.0, 0.0)">
      <use ffdec:characterId="32" ffdec:characterName="139_fla.Symbole93_17" height="56.0" id="back" transform="matrix(1.0, 0.0, 0.0, 1.0, 0.0, 0.0)" width="56.0" xlink:href="#sprite16"/>
    </g>
    <g id="sprite16" transform="matrix(1.0, 0.0, 0.0, 1.0, 0.0, 0.0)">
      <use ffdec:characterId="31" ffdec:characterName="139_fla.Symbole90_18" height="56.0" id="back" transform="matrix(1.0, 0.0, 0.0, 1.0, 0.0, 0.0)" width="56.0" xlink:href="#sprite17"/>
    </g>
    <g id="sprite17" transform="matrix(1.0, 0.0, 0.0, 1.0, 0.0, 0.0)">
      <use ffdec:characterId="30" ffdec:characterName="139_fla.Symbole87_19" height="56.0" id="back" transform="matrix(1.0, 0.0, 0.0, 1.0, 0.0, 0.0)" width="56.0" xlink:href="#sprite18"/>
    </g>
    <g id="sprite18" transform="matrix(1.0, 0.0, 0.0, 1.0, 0.0, 0.0)">
      <use ffdec:characterId="29" ffdec:characterName="139_fla.Symbole84_20" height="56.0" id="back" transform="matrix(1.0, 0.0, 0.0, 1.0, 0.0, 0.0)" width="56.0" xlink:href="#sprite19"/>
    </g>
    <g id="sprite19" transform="matrix(1.0, 0.0, 0.0, 1.0, 0.0, 0.0)">
      <use ffdec:characterId="28" ffdec:characterName="139_fla.Symbole81_21" height="56.0" id="back" transform="matrix(1.0, 0.0, 0.0, 1.0, 0.0, 0.0)" width="56.0" xlink:href="#sprite20"/>
    </g>
    <g id="sprite20" transform="matrix(1.0, 0.0, 0.0, 1.0, 0.0, 0.0)">
      <use ffdec:characterId="27" ffdec:characterName="139_fla.Symbole78_22" height="56.0" id="back" transform="matrix(1.0, 0.0, 0.0, 1.0, 0.0, 0.0)" width="56.0" xlink:href="#sprite21"/>
    </g>
    <g id="sprite21" transform="matrix(1.0, 0.0, 0.0, 1.0, 0.0, 0.0)">
      <use ffdec:characterId="26" ffdec:characterName="139_fla.Symbole75_23" height="56.0" id="back" transform="matrix(1.0, 0.0, 0.0, 1.0, 0.0, 0.0)" width="56.0" xlink:href="#sprite22"/>
    </g>
    <g id="sprite22" transform="matrix(1.0, 0.0, 0.0, 1.0, 0.0, 0.0)">
      <use ffdec:characterId="25" ffdec:characterName="139_fla.Symbole72_24" height="56.0" id="back" transform="matrix(1.0, 0.0, 0.0, 1.0, 0.0, 0.0)" width="56.0" xlink:href="#sprite23"/>
    </g>
    <g id="sprite23" transform="matrix(1.0, 0.0, 0.0, 1.0, 0.0, 0.0)">
      <use ffdec:characterId="24" ffdec:characterName="139_fla.Symbole69_25" height="56.0" id="back" transform="matrix(1.0, 0.0, 0.0, 1.0, 0.0, 0.0)" width="56.0" xlink:href="#sprite24"/>
    </g>
    <g id="sprite24" transform="matrix(1.0, 0.0, 0.0, 1.0, 0.0, 0.0)">
      <use ffdec:characterId="23" ffdec:characterName="139_fla.Symbole66_26" height="56.0" id="back" transform="matrix(1.0, 0.0, 0.0, 1.0, 0.0, 0.0)" width="56.0" xlink:href="#sprite25"/>
    </g>
    <g id="sprite25" transform="matrix(1.0, 0.0, 0.0, 1.0, 0.0, 0.0)">
      <use ffdec:characterId="22" ffdec:characterName="139_fla.Symbole63_27" height="56.0" id="back" transform="matrix(1.0, 0.0, 0.0, 1.0, 0.0, 0.0)" width="56.0" xlink:href="#sprite26"/>
    </g>
    <g id="sprite26" transform="matrix(1.0, 0.0, 0.0, 1.0, 0.0, 0.0)">
      <use ffdec:characterId="21" ffdec:characterName="139_fla.Symbole60_28" height="56.0" id="back" transform="matrix(1.0, 0.0, 0.0, 1.0, 0.0, 0.0)" width="56.0" xlink:href="#sprite27"/>
    </g>
    <g id="sprite27" transform="matrix(1.0, 0.0, 0.0, 1.0, 0.0, 0.0)">
      <use ffdec:characterId="20" ffdec:characterName="139_fla.Symbole57_29" height="56.0" id="back" transform="matrix(1.0, 0.0, 0.0, 1.0, 0.0, 0.0)" width="56.0" xlink:href="#sprite28"/>
    </g>
    <g id="sprite28" transform="matrix(1.0, 0.0, 0.0, 1.0, 0.0, 0.0)">
      <use ffdec:characterId="19" ffdec:characterName="139_fla.Symbole54_30" height="56.0" id="back" transform="matrix(1.0, 0.0, 0.0, 1.0, 0.0, 0.0)" width="56.0" xlink:href="#sprite29"/>
    </g>
    <g id="sprite29" transform="matrix(1.0, 0.0, 0.0, 1.0, 0.0, 0.0)">
      <use ffdec:characterId="18" ffdec:characterName="139_fla.Symbole51_31" height="56.0" id="back" transform="matrix(1.0, 0.0, 0.0, 1.0, 0.0, 0.0)" width="56.0" xlink:href="#sprite30"/>
    </g>
    <g id="sprite30" transform="matrix(1.0, 0.0, 0.0, 1.0, 0.0, 0.0)">
      <use ffdec:characterId="17" ffdec:characterName="139_fla.Symbole48_32" height="56.0" id="back" transform="matrix(1.0, 0.0, 0.0, 1.0, 0.0, 0.0)" width="56.0" xlink:href="#sprite31"/>
    </g>
    <g id="sprite31" transform="matrix(1.0, 0.0, 0.0, 1.0, 0.0, 0.0)">
      <use ffdec:characterId="16" ffdec:characterName="139_fla.Symbole45_33" height="56.0" id="back" transform="matrix(1.0, 0.0, 0.0, 1.0, 0.0, 0.0)" width="56.0" xlink:href="#sprite32"/>
    </g>
    <g id="sprite32" transform="matrix(1.0, 0.0, 0.0, 1.0, 0.0, 0.0)">
      <use ffdec:characterId="15" ffdec:characterName="139_fla.Symbole42_34" height="56.0" id="back" transform="matrix(1.0, 0.0, 0.0, 1.0, 0.0, 0.0)" width="56.0" xlink:href="#sprite33"/>
    </g>
    <g id="sprite33" transform="matrix(1.0, 0.0, 0.0, 1.0, 0.0, 0.0)">
      <use ffdec:characterId="14" ffdec:characterName="139_fla.Symbole39_35" height="56.0" id="back" transform="matrix(1.0, 0.0, 0.0, 1.0, 0.0, 0.0)" width="56.0" xlink:href="#sprite34"/>
    </g>
    <g id="sprite34" transform="matrix(1.0, 0.0, 0.0, 1.0, 0.0, 0.0)">
      <use ffdec:characterId="13" ffdec:characterName="139_fla.Symbole36_36" height="56.0" id="back" transform="matrix(1.0, 0.0, 0.0, 1.0, 0.0, 0.0)" width="56.0" xlink:href="#sprite35"/>
    </g>
    <g id="sprite35" transform="matrix(1.0, 0.0, 0.0, 1.0, 0.0, 0.0)">
      <use ffdec:characterId="12" ffdec:characterName="139_fla.Symbole33_37" height="56.0" id="back" transform="matrix(1.0, 0.0, 0.0, 1.0, 0.0, 0.0)" width="56.0" xlink:href="#sprite36"/>
    </g>
    <g id="sprite36" transform="matrix(1.0, 0.0, 0.0, 1.0, 0.0, 0.0)">
      <use ffdec:characterId="11" ffdec:characterName="139_fla.Symbole30_38" height="56.0" id="back" transform="matrix(1.0, 0.0, 0.0, 1.0, 0.0, 0.0)" width="56.0" xlink:href="#sprite37"/>
    </g>
    <g id="sprite37" transform="matrix(1.0, 0.0, 0.0, 1.0, 0.0, 0.0)">
      <use ffdec:characterId="10" ffdec:characterName="139_fla.Symbole27_39" height="56.0" id="back" transform="matrix(1.0, 0.0, 0.0, 1.0, 0.0, 0.0)" width="56.0" xlink:href="#sprite38"/>
    </g>
    <g id="sprite38" transform="matrix(1.0, 0.0, 0.0, 1.0, 0.0, 0.0)">
      <use ffdec:characterId="9" ffdec:characterName="139_fla.Symbole24_40" height="56.0" id="back" transform="matrix(1.0, 0.0, 0.0, 1.0, 0.0, 0.0)" width="56.0" xlink:href="#sprite39"/>
    </g>
    <g id="sprite39" transform="matrix(1.0, 0.0, 0.0, 1.0, 0.0, 0.0)">
      <use ffdec:characterId="8" ffdec:characterName="139_fla.Symbole21_41" height="56.0" id="back" transform="matrix(1.0, 0.0, 0.0, 1.0, 0.0, 0.0)" width="56.0" xlink:href="#sprite40"/>
    </g>
    <g id="sprite40" transform="matrix(1.0, 0.0, 0.0, 1.0, 0.0, 0.0)">
      <use ffdec:characterId="7" ffdec:characterName="139_fla.Symbole18_42" height="56.0" id="back" transform="matrix(1.0, 0.0, 0.0, 1.0, 0.0, 0.0)" width="56.0" xlink:href="#sprite41"/>
    </g>
    <g id="sprite41" transform="matrix(1.0, 0.0, 0.0, 1.0, 0.0, 0.0)">
      <use ffdec:characterId="6" ffdec:characterName="139_fla.Symbole15_43" height="56.0" id="back" transform="matrix(1.0, 0.0, 0.0, 1.0, 0.0, 0.0)" width="56.0" xlink:href="#sprite42"/>
    </g>
    <g id="sprite42" transform="matrix(1.0, 0.0, 0.0, 1.0, 0.0, 0.0)">
      <use ffdec:characterId="5" ffdec:characterName="139_fla.Symbole12_44" height="56.0" id="back" transform="matrix(1.0, 0.0, 0.0, 1.0, 0.0, 0.0)" width="56.0" xlink:href="#sprite43"/>
    </g>
    <g id="sprite43" transform="matrix(1.0, 0.0, 0.0, 1.0, 0.0, 0.0)">
      <use ffdec:characterId="4" ffdec:characterName="139_fla.Symbole9_45" height="56.0" id="back" transform="matrix(1.0, 0.0, 0.0, 1.0, 0.0, 0.0)" width="56.0" xlink:href="#sprite44"/>
    </g>
    <g id="sprite44" transform="matrix(1.0, 0.0, 0.0, 1.0, 0.0, 0.0)">
      <use ffdec:characterId="3" ffdec:characterName="139_fla.Symbole6_46" height="56.0" id="back" transform="matrix(1.0, 0.0, 0.0, 1.0, 0.0, 0.0)" width="56.0" xlink:href="#sprite45"/>
    </g>
    <g id="sprite45" transform="matrix(1.0, 0.0, 0.0, 1.0, 0.0, 0.0)">
      <use ffdec:characterId="2" height="56.0" id="back" transform="matrix(1.0, 0.0, 0.0, 1.0, 0.0, 0.0)" width="56.0" xlink:href="#sprite46"/>
    </g>
    <g id="sprite46" transform="matrix(1.0, 0.0, 0.0, 1.0, 0.0, 0.0)">
      <use ffdec:characterId="1" height="56.0" transform="matrix(1.0, 0.0, 0.0, 1.0, 0.0, 0.0)" width="56.0" xlink:href="#shape0"/>
    </g>
    <g id="shape0" transform="matrix(1.0, 0.0, 0.0, 1.0, 0.0, 0.0)">
      <path d="M56.0 56.0 L0.0 56.0 0.0 0.0 56.0 0.0 56.0 56.0" fill="#010101" fill-opacity="0.0" fill-rule="evenodd" stroke="none"/>
    </g>
    <g id="sprite47" transform="matrix(1.0, 0.0, 0.0, 1.0, 0.75, 0.75)">
      <use ffdec:characterId="49" height="55.45" transform="matrix(1.0, 0.0, 0.0, 1.0, -0.75, -0.75)" width="54.3" xlink:href="#shape1"/>
    </g>
    <g id="shape1" transform="matrix(1.0, 0.0, 0.0, 1.0, 0.75, 0.75)">
      <path d="M43.4 13.55 L52.8 11.15 Q47.15 17.0 44.45 20.7 L41.8 24.5 41.65 24.65 41.8 19.75 38.65 20.25 37.25 21.15 39.1 25.45 Q37.3 26.1 35.6 27.2 L33.85 23.1 22.15 30.0 22.7 31.0 23.55 30.5 23.95 30.45 Q24.1 30.45 24.25 30.65 L24.3 31.0 24.05 31.3 23.15 31.85 32.7 49.5 Q32.7 48.5 33.2 47.5 L33.6 46.55 34.25 45.8 34.4 45.5 34.55 45.35 34.55 45.2 35.55 43.1 36.55 39.25 Q37.3 34.8 36.35 29.65 39.0 28.55 41.6 27.4 40.05 29.5 39.85 30.2 L39.7 31.35 39.8 32.25 Q40.1 40.05 36.4 45.55 L36.35 45.65 36.25 45.8 36.0 46.05 36.0 46.1 Q34.6 48.9 35.3 50.3 L36.0 51.4 Q36.55 51.8 37.0 51.65 L37.5 51.55 37.65 51.35 37.85 50.95 37.7 50.45 37.1 50.2 Q36.55 50.3 36.35 49.8 36.15 49.4 36.5 48.95 L36.5 48.9 37.4 48.35 38.4 48.2 Q39.1 48.1 39.8 48.9 40.8 50.15 40.25 51.65 L40.1 52.05 39.95 52.25 38.4 53.65 37.85 53.75 Q35.9 54.45 34.15 52.8 L33.55 52.05 33.2 51.5 33.0 50.9 32.75 50.0 32.65 49.9 23.0 31.95 22.4 32.3 22.05 32.35 21.75 32.2 21.65 31.85 Q21.7 31.6 21.85 31.5 L22.5 31.1 21.95 30.1 13.75 34.95 13.9 35.15 13.9 35.3 13.9 35.6 13.75 35.75 13.6 36.05 10.75 41.1 Q9.65 42.4 9.15 42.15 L9.65 39.9 Q7.4 43.55 6.45 43.4 8.05 40.0 7.75 39.9 5.15 44.6 3.7 44.3 L6.1 40.15 6.6 39.25 6.75 39.0 6.8 39.0 6.25 38.15 6.2 38.15 5.8 38.1 4.7 38.1 0.0 38.15 Q0.45 36.75 5.8 36.75 5.85 36.4 2.15 36.2 2.45 35.25 6.75 35.05 L4.5 34.5 Q4.55 33.9 6.25 33.65 L12.0 33.65 12.45 33.65 12.5 33.65 12.8 33.75 12.9 33.85 13.05 34.05 21.45 29.05 21.4 29.0 20.8 27.95 20.1 28.35 19.75 28.4 19.45 28.15 Q19.3 28.0 19.4 27.85 L19.6 27.55 20.4 27.05 9.95 7.65 9.95 7.6 9.95 7.55 9.8 7.5 9.9 7.5 8.8 6.45 8.5 6.05 8.2 5.25 7.95 4.35 Q7.65 2.0 9.3 0.7 L9.75 0.45 Q10.6 -0.05 11.75 0.0 L12.05 0.0 12.35 0.0 Q14.0 0.55 14.4 2.05 14.6 3.0 14.15 3.6 L13.45 4.25 12.5 4.7 12.45 4.7 Q11.9 4.7 11.7 4.35 11.45 3.9 11.7 3.5 12.0 3.15 11.9 2.85 11.85 2.55 11.6 2.4 L11.2 2.35 10.95 2.35 10.45 2.65 Q10.2 2.95 10.25 3.6 10.25 4.2 10.6 4.9 11.35 6.3 14.4 6.8 21.5 6.6 27.95 11.75 L28.65 12.45 29.7 12.95 32.9 13.1 28.1 16.1 Q24.45 12.3 20.45 10.35 18.6 9.5 16.75 8.95 L14.45 8.6 14.05 8.5 12.75 8.45 12.0 8.3 11.7 8.3 Q10.85 8.1 10.25 7.7 L20.6 26.95 21.3 26.55 21.7 26.5 21.95 26.7 22.0 27.05 21.8 27.35 21.0 27.8 21.6 28.9 21.65 28.95 33.2 21.95 Q32.0 19.85 30.45 17.9 32.05 16.75 33.95 16.0 35.4 17.85 36.65 19.95 L37.35 19.55 38.1 19.0 39.95 16.75 35.7 14.85 36.5 14.7 37.8 14.45 41.25 14.0 43.4 13.55 M40.95 18.1 L43.2 17.2 44.9 16.1 49.4 13.15 49.3 13.15 44.6 15.6 42.8 16.6 40.95 18.1 M40.55 26.5 L40.55 26.4 40.2 26.05 40.05 26.05 39.7 26.1 38.95 26.4 39.8 26.7 40.65 26.95 40.65 26.55 40.55 26.5 M39.35 27.65 L39.25 27.65 39.25 27.55 Q39.2 27.35 38.4 27.2 L37.55 26.9 38.55 26.55 Q38.8 26.8 39.55 27.05 L40.25 27.25 40.2 27.35 39.35 27.65 M32.7 14.15 L32.0 14.45 32.75 14.7 33.7 14.85 33.6 14.45 33.45 14.35 Q33.45 14.15 33.15 14.15 L33.05 14.05 32.7 14.15 M29.05 17.05 L28.9 16.55 29.05 16.3 29.05 16.25 Q29.45 16.6 30.2 16.6 L30.9 16.75 29.9 17.3 29.85 17.4 29.5 17.4 29.45 17.3 29.15 17.15 29.05 17.05 M30.3 16.25 L31.3 16.45 32.15 16.0 31.45 15.85 30.3 15.5 29.5 15.95 30.3 16.25 M33.35 15.35 L32.45 15.8 32.45 15.75 Q32.3 15.5 31.55 15.45 30.9 15.5 30.75 15.2 L31.6 14.7 Q31.9 15.05 32.7 15.15 L33.45 15.2 33.45 15.3 33.35 15.35 M12.6 34.35 L11.85 34.75 11.85 34.65 Q11.75 34.35 11.9 34.35 L12.15 34.05 12.15 34.15 12.35 34.2 Q12.5 34.2 12.6 34.35 M13.2 35.7 L13.3 35.4 13.3 35.25 12.6 35.7 12.6 35.75 12.9 35.85 13.2 35.75 13.2 35.7 M35.85 27.65 Q36.1 28.05 36.95 28.15 L37.65 28.35 36.55 28.75 36.5 28.8 36.1 28.8 36.0 28.8 35.75 28.5 35.6 28.45 35.7 27.9 35.85 27.55 35.85 27.65 M36.25 27.4 L37.1 27.8 38.0 28.15 38.95 27.8 38.15 27.55 Q37.4 27.5 37.15 27.05 L36.25 27.4 M32.75 49.5 L32.7 49.5 32.75 49.6 32.75 49.5 Z" fill="none" stroke="#000000" stroke-linecap="round" stroke-linejoin="round" stroke-opacity="0.2" stroke-width="1.5"/>
    </g>
    <g id="sprite48" transform="matrix(1.0, 0.0, 0.0, 1.0, 0.0, 0.0)">
      <use ffdec:characterId="51" height="53.95" transform="matrix(1.0, 0.0, 0.0, 1.0, 0.0, 0.0)" width="52.8" xlink:href="#shape2"/>
    </g>
    <g id="shape2" transform="matrix(1.0, 0.0, 0.0, 1.0, 0.0, 0.0)">
      <path d="M43.4 13.55 L52.8 11.15 Q47.15 17.0 44.45 20.7 L41.8 24.5 41.65 24.65 41.8 19.75 38.65 20.25 37.25 21.15 39.1 25.45 Q37.3 26.1 35.6 27.2 L33.85 23.1 22.15 30.0 22.7 31.0 23.55 30.5 23.95 30.45 Q24.1 30.45 24.25 30.65 L24.3 31.0 24.05 31.3 23.15 31.85 32.7 49.5 Q32.7 48.5 33.2 47.5 L33.6 46.55 34.25 45.8 34.4 45.5 34.55 45.35 34.55 45.2 35.55 43.1 36.55 39.25 Q37.3 34.8 36.35 29.65 39.0 28.55 41.6 27.4 40.05 29.5 39.85 30.2 L39.7 31.35 39.8 32.25 Q40.1 40.05 36.4 45.55 L36.35 45.65 36.25 45.8 36.0 46.05 36.0 46.1 Q34.6 48.9 35.3 50.3 L36.0 51.4 Q36.55 51.8 37.0 51.65 L37.5 51.55 37.65 51.35 37.85 50.95 37.7 50.45 37.1 50.2 Q36.55 50.3 36.35 49.8 36.15 49.4 36.5 48.95 L36.5 48.9 37.4 48.35 38.4 48.2 Q39.1 48.1 39.8 48.9 40.8 50.15 40.25 51.65 L40.1 52.05 39.95 52.25 38.4 53.65 37.85 53.75 Q35.9 54.45 34.15 52.8 L33.55 52.05 33.2 51.5 33.0 50.9 32.75 50.0 32.65 49.9 23.0 31.95 22.4 32.3 22.05 32.35 21.75 32.2 21.65 31.85 Q21.7 31.6 21.85 31.5 L22.5 31.1 21.95 30.1 13.75 34.95 13.9 35.15 13.9 35.3 13.9 35.6 13.75 35.75 13.6 36.05 10.75 41.1 Q9.65 42.4 9.15 42.15 L9.65 39.9 Q7.4 43.55 6.45 43.4 8.05 40.0 7.75 39.9 5.15 44.6 3.7 44.3 L6.1 40.15 6.6 39.25 6.75 39.0 6.8 39.0 6.25 38.15 6.2 38.15 5.8 38.1 4.7 38.1 0.0 38.15 Q0.45 36.75 5.8 36.75 5.85 36.4 2.15 36.2 2.45 35.25 6.75 35.05 L4.5 34.5 Q4.55 33.9 6.25 33.65 L12.0 33.65 12.45 33.65 12.5 33.65 12.8 33.75 12.9 33.85 13.05 34.05 21.45 29.05 21.4 29.0 20.8 27.95 20.1 28.35 19.75 28.4 19.45 28.15 Q19.3 28.0 19.4 27.85 L19.6 27.55 20.4 27.05 9.95 7.65 9.95 7.6 9.95 7.55 9.8 7.5 9.9 7.5 8.8 6.45 8.5 6.05 8.2 5.25 7.95 4.35 Q7.65 2.0 9.3 0.7 L9.75 0.45 Q10.6 -0.05 11.75 0.0 L12.05 0.0 12.35 0.0 Q14.0 0.55 14.4 2.05 14.6 3.0 14.15 3.6 L13.45 4.25 12.5 4.7 12.45 4.7 Q11.9 4.7 11.7 4.35 11.45 3.9 11.7 3.5 12.0 3.15 11.9 2.85 11.85 2.55 11.6 2.4 L11.2 2.35 10.95 2.35 10.45 2.65 Q10.2 2.95 10.25 3.6 10.25 4.2 10.6 4.9 11.35 6.3 14.4 6.8 21.5 6.6 27.95 11.75 L28.65 12.45 29.7 12.95 32.9 13.1 28.1 16.1 Q24.45 12.3 20.45 10.35 18.6 9.5 16.75 8.95 L14.45 8.6 14.05 8.5 12.75 8.45 12.0 8.3 11.7 8.3 Q10.85 8.1 10.25 7.7 L20.6 26.95 21.3 26.55 21.7 26.5 21.95 26.7 22.0 27.05 21.8 27.35 21.0 27.8 21.6 28.9 21.65 28.95 33.2 21.95 Q32.0 19.85 30.45 17.9 32.05 16.75 33.95 16.0 35.4 17.85 36.65 19.95 L37.35 19.55 38.1 19.0 39.95 16.75 35.7 14.85 36.5 14.7 37.8 14.45 41.25 14.0 43.4 13.55 M44.9 16.1 L49.4 13.15 49.3 13.15 44.6 15.6 42.8 16.6 40.95 18.1 43.2 17.2 44.9 16.1 M40.55 26.5 L40.65 26.55 40.65 26.95 39.8 26.7 38.95 26.4 39.7 26.1 40.05 26.05 40.2 26.05 40.55 26.4 40.55 26.5 M39.35 27.65 L39.25 27.65 39.25 27.55 Q39.2 27.35 38.4 27.2 L37.55 26.9 38.55 26.55 Q38.8 26.8 39.55 27.05 L40.25 27.25 40.2 27.35 39.35 27.65 M32.7 14.15 L33.05 14.05 33.15 14.15 Q33.45 14.15 33.45 14.35 L33.6 14.45 33.7 14.85 32.75 14.7 32.0 14.45 32.7 14.15 M29.05 17.05 L28.9 16.55 29.05 16.3 29.05 16.25 Q29.45 16.6 30.2 16.6 L30.9 16.75 29.9 17.3 29.85 17.4 29.5 17.4 29.45 17.3 29.15 17.15 29.05 17.05 M30.3 16.25 L29.5 15.95 30.3 15.5 31.45 15.85 32.15 16.0 31.3 16.45 30.3 16.25 M33.35 15.35 L32.45 15.8 32.45 15.75 Q32.3 15.5 31.55 15.45 30.9 15.5 30.75 15.2 L31.6 14.7 Q31.9 15.05 32.7 15.15 L33.45 15.2 33.45 15.3 33.35 15.35 M12.6 34.35 Q12.5 34.2 12.35 34.2 L12.15 34.15 12.15 34.05 11.9 34.35 Q11.75 34.35 11.85 34.65 L11.85 34.75 12.6 34.35 M13.2 35.7 L13.3 35.4 13.3 35.25 12.6 35.7 12.6 35.75 12.9 35.85 13.2 35.75 13.2 35.7 M35.85 27.65 Q36.1 28.05 36.95 28.15 L37.65 28.35 36.55 28.75 36.5 28.8 36.1 28.8 36.0 28.8 35.75 28.5 35.6 28.45 35.7 27.9 35.85 27.55 35.85 27.65 M36.25 27.4 L37.15 27.05 Q37.4 27.5 38.15 27.55 L38.95 27.8 38.0 28.15 37.1 27.8 36.25 27.4 M32.75 49.5 L32.7 49.5 32.75 49.6 32.75 49.5" fill="#000000" fill-rule="evenodd" stroke="none"/>
    </g>
  </defs>
</svg>
