<?xml version="1.0" encoding="UTF-8" standalone="no"?>
<svg xmlns:ffdec="https://www.free-decompiler.com/flash" xmlns:xlink="http://www.w3.org/1999/xlink" ffdec:objectType="frame" height="56.0px" width="56.0px" xmlns="http://www.w3.org/2000/svg">
  <g transform="matrix(1.0, 0.0, 0.0, 1.0, 0.0, 0.0)">
    <use ffdec:characterId="15" ffdec:characterName="14_fla.Symbole42_1" height="56.0" id="back" transform="matrix(1.0, 0.0, 0.0, 1.0, 0.0, 0.0)" width="56.0" xlink:href="#sprite0"/>
    <use ffdec:characterId="17" height="53.6" id="back" transform="matrix(1.0, 0.0, 0.0, 1.0, 0.4, 1.45)" width="55.4" xlink:href="#sprite14"/>
    <use ffdec:characterId="19" height="52.1" id="up" transform="matrix(1.0, 0.0, 0.0, 1.0, 1.15, 2.2)" width="53.9" xlink:href="#sprite15"/>
  </g>
  <defs>
    <g id="sprite0" transform="matrix(1.0, 0.0, 0.0, 1.0, 0.0, 0.0)">
      <use ffdec:characterId="14" ffdec:characterName="14_fla.Symbole39_2" height="56.0" id="back" transform="matrix(1.0, 0.0, 0.0, 1.0, 0.0, 0.0)" width="56.0" xlink:href="#sprite1"/>
    </g>
    <g id="sprite1" transform="matrix(1.0, 0.0, 0.0, 1.0, 0.0, 0.0)">
      <use ffdec:characterId="13" ffdec:characterName="14_fla.Symbole36_3" height="56.0" id="back" transform="matrix(1.0, 0.0, 0.0, 1.0, 0.0, 0.0)" width="56.0" xlink:href="#sprite2"/>
    </g>
    <g id="sprite2" transform="matrix(1.0, 0.0, 0.0, 1.0, 0.0, 0.0)">
      <use ffdec:characterId="12" ffdec:characterName="14_fla.Symbole33_4" height="56.0" id="back" transform="matrix(1.0, 0.0, 0.0, 1.0, 0.0, 0.0)" width="56.0" xlink:href="#sprite3"/>
    </g>
    <g id="sprite3" transform="matrix(1.0, 0.0, 0.0, 1.0, 0.0, 0.0)">
      <use ffdec:characterId="11" ffdec:characterName="14_fla.Symbole30_5" height="56.0" id="back" transform="matrix(1.0, 0.0, 0.0, 1.0, 0.0, 0.0)" width="56.0" xlink:href="#sprite4"/>
    </g>
    <g id="sprite4" transform="matrix(1.0, 0.0, 0.0, 1.0, 0.0, 0.0)">
      <use ffdec:characterId="10" ffdec:characterName="14_fla.Symbole27_6" height="56.0" id="back" transform="matrix(1.0, 0.0, 0.0, 1.0, 0.0, 0.0)" width="56.0" xlink:href="#sprite5"/>
    </g>
    <g id="sprite5" transform="matrix(1.0, 0.0, 0.0, 1.0, 0.0, 0.0)">
      <use ffdec:characterId="9" ffdec:characterName="14_fla.Symbole24_7" height="56.0" id="back" transform="matrix(1.0, 0.0, 0.0, 1.0, 0.0, 0.0)" width="56.0" xlink:href="#sprite6"/>
    </g>
    <g id="sprite6" transform="matrix(1.0, 0.0, 0.0, 1.0, 0.0, 0.0)">
      <use ffdec:characterId="8" ffdec:characterName="14_fla.Symbole21_8" height="56.0" id="back" transform="matrix(1.0, 0.0, 0.0, 1.0, 0.0, 0.0)" width="56.0" xlink:href="#sprite7"/>
    </g>
    <g id="sprite7" transform="matrix(1.0, 0.0, 0.0, 1.0, 0.0, 0.0)">
      <use ffdec:characterId="7" ffdec:characterName="14_fla.Symbole18_9" height="56.0" id="back" transform="matrix(1.0, 0.0, 0.0, 1.0, 0.0, 0.0)" width="56.0" xlink:href="#sprite8"/>
    </g>
    <g id="sprite8" transform="matrix(1.0, 0.0, 0.0, 1.0, 0.0, 0.0)">
      <use ffdec:characterId="6" ffdec:characterName="14_fla.Symbole15_10" height="56.0" id="back" transform="matrix(1.0, 0.0, 0.0, 1.0, 0.0, 0.0)" width="56.0" xlink:href="#sprite9"/>
    </g>
    <g id="sprite9" transform="matrix(1.0, 0.0, 0.0, 1.0, 0.0, 0.0)">
      <use ffdec:characterId="5" ffdec:characterName="14_fla.Symbole12_11" height="56.0" id="back" transform="matrix(1.0, 0.0, 0.0, 1.0, 0.0, 0.0)" width="56.0" xlink:href="#sprite10"/>
    </g>
    <g id="sprite10" transform="matrix(1.0, 0.0, 0.0, 1.0, 0.0, 0.0)">
      <use ffdec:characterId="4" ffdec:characterName="14_fla.Symbole9_12" height="56.0" id="back" transform="matrix(1.0, 0.0, 0.0, 1.0, 0.0, 0.0)" width="56.0" xlink:href="#sprite11"/>
    </g>
    <g id="sprite11" transform="matrix(1.0, 0.0, 0.0, 1.0, 0.0, 0.0)">
      <use ffdec:characterId="3" ffdec:characterName="14_fla.Symbole6_13" height="56.0" id="back" transform="matrix(1.0, 0.0, 0.0, 1.0, 0.0, 0.0)" width="56.0" xlink:href="#sprite12"/>
    </g>
    <g id="sprite12" transform="matrix(1.0, 0.0, 0.0, 1.0, 0.0, 0.0)">
      <use ffdec:characterId="2" height="56.0" id="back" transform="matrix(1.0, 0.0, 0.0, 1.0, 0.0, 0.0)" width="56.0" xlink:href="#sprite13"/>
    </g>
    <g id="sprite13" transform="matrix(1.0, 0.0, 0.0, 1.0, 0.0, 0.0)">
      <use ffdec:characterId="1" height="56.0" transform="matrix(1.0, 0.0, 0.0, 1.0, 0.0, 0.0)" width="56.0" xlink:href="#shape0"/>
    </g>
    <g id="shape0" transform="matrix(1.0, 0.0, 0.0, 1.0, 0.0, 0.0)">
      <path d="M56.0 56.0 L0.0 56.0 0.0 0.0 56.0 0.0 56.0 56.0" fill="#010101" fill-opacity="0.0" fill-rule="evenodd" stroke="none"/>
    </g>
    <g id="sprite14" transform="matrix(1.0, 0.0, 0.0, 1.0, 0.75, 0.75)">
      <use ffdec:characterId="16" height="53.6" transform="matrix(1.0, 0.0, 0.0, 1.0, -0.75, -0.75)" width="55.4" xlink:href="#shape1"/>
    </g>
    <g id="shape1" transform="matrix(1.0, 0.0, 0.0, 1.0, 0.75, 0.75)">
      <path d="M40.05 2.9 L39.45 2.85 39.05 2.6 38.3 3.75 38.15 4.35 Q37.75 4.6 37.55 5.3 L36.85 6.35 36.65 6.6 Q36.45 6.8 36.65 7.05 L36.4 7.5 35.95 7.9 35.5 8.55 34.9 9.55 Q34.5 9.75 34.3 10.45 L33.8 11.05 33.0 11.05 32.35 10.5 Q32.05 10.7 31.85 10.5 L31.2 10.45 30.6 10.05 30.0 10.05 Q29.5 10.2 29.25 9.85 28.9 9.4 29.25 9.2 29.1 9.15 29.1 8.9 L29.1 8.55 29.25 8.1 29.1 7.6 29.1 7.2 Q29.25 6.8 29.05 6.75 L29.05 6.2 Q28.9 6.1 29.05 5.95 L29.1 5.75 28.9 5.45 28.85 5.1 28.85 4.65 28.7 4.2 28.85 4.0 28.7 3.8 28.65 3.6 Q28.85 3.35 28.5 3.05 L28.4 2.45 Q28.2 2.1 28.4 1.85 L28.2 1.65 28.05 1.2 28.2 1.2 Q27.95 1.1 28.05 0.7 L27.75 0.1 27.35 0.1 Q26.9 -0.1 26.05 0.1 L25.65 0.1 Q25.35 0.1 25.45 0.5 L25.35 0.95 Q25.6 1.1 25.45 1.55 L25.65 1.65 25.8 2.85 25.8 3.5 25.9 3.9 Q25.8 4.15 26.05 4.2 L26.25 5.9 26.25 6.4 Q26.1 6.6 26.25 6.8 26.1 6.95 26.25 7.2 L26.25 7.4 26.25 9.55 25.6 9.75 Q25.45 9.55 25.2 9.75 L25.0 10.0 23.95 9.85 23.0 10.0 22.65 10.05 22.25 10.05 21.7 10.3 21.15 10.5 20.95 10.45 20.7 10.05 20.4 9.6 20.2 9.15 18.7 7.25 17.7 6.35 Q17.45 6.2 17.6 5.95 L17.3 5.65 17.0 5.3 16.4 4.9 Q16.1 4.45 15.9 4.6 L15.3 4.2 14.8 3.9 14.25 3.5 13.1 4.35 Q12.9 4.2 12.75 4.45 L12.5 4.8 13.35 5.5 14.2 6.4 14.2 6.6 14.25 6.75 14.45 6.95 14.6 6.95 15.55 8.1 16.4 8.9 16.75 9.3 16.75 9.6 17.6 10.85 17.9 11.35 18.05 12.05 16.4 13.45 15.7 13.7 15.0 14.3 Q14.25 14.6 13.95 15.25 L13.6 15.45 Q12.65 15.4 11.9 15.0 L11.45 14.75 10.9 14.75 Q10.8 14.4 10.35 14.55 9.9 14.55 9.85 14.3 L9.2 14.1 8.4 13.95 Q8.25 13.7 7.95 13.7 L7.35 13.5 6.25 13.3 5.65 13.25 4.75 12.85 4.25 12.85 Q3.9 12.65 3.8 12.85 L3.2 14.15 3.2 14.8 Q3.25 15.15 3.8 15.4 L4.5 15.45 4.95 15.6 Q5.1 15.85 5.65 15.9 6.05 15.9 6.25 16.15 L7.05 16.25 7.7 16.55 8.25 16.75 Q8.55 16.75 9.2 17.2 9.7 17.55 10.05 17.55 L11.45 18.25 Q11.65 18.5 11.45 18.85 L11.15 19.5 Q11.45 19.7 11.0 20.15 10.8 20.15 10.9 20.4 L10.8 20.85 Q10.6 21.0 10.6 21.45 L10.35 21.95 10.35 22.6 10.3 23.2 10.15 23.45 Q10.35 23.8 10.05 24.45 L9.9 24.75 9.7 25.1 8.55 24.95 7.25 24.95 6.5 25.1 5.65 24.95 4.9 24.75 4.1 24.9 Q4.05 24.75 3.8 24.9 3.45 24.9 3.4 24.75 L3.05 24.9 1.55 24.9 0.8 25.2 Q0.4 25.2 0.4 25.65 0.15 25.8 0.15 26.65 -0.05 26.65 0.15 26.95 L0.0 27.15 Q-0.05 27.35 0.25 27.55 L1.0 27.55 1.3 27.5 1.7 27.35 2.1 27.35 2.55 27.5 Q2.55 27.35 2.85 27.5 L3.25 27.35 5.55 27.35 6.5 27.55 7.5 27.55 7.8 27.55 8.15 27.55 9.45 27.8 9.7 27.8 10.15 27.95 10.5 28.75 10.75 29.75 10.6 30.05 10.8 30.3 10.9 30.95 10.9 31.45 Q11.45 32.1 11.45 32.65 L10.3 33.55 10.05 33.75 9.85 33.85 9.3 34.4 8.65 34.9 Q7.8 35.3 6.2 37.2 5.55 37.5 4.5 38.8 4.25 39.0 4.5 39.4 L4.65 40.0 5.2 40.75 6.2 40.3 6.2 40.25 7.5 39.25 Q7.95 39.25 8.35 38.6 8.4 38.35 9.0 38.3 L9.65 37.9 Q9.7 37.5 10.3 37.2 L11.0 36.8 Q11.2 36.45 11.8 36.2 12.2 36.0 12.45 35.9 12.65 35.7 13.1 36.15 L13.35 36.35 13.4 36.6 14.45 37.65 15.3 38.8 15.45 38.8 16.75 40.0 Q16.85 40.55 16.55 40.95 L16.3 41.85 Q16.15 42.0 16.15 42.3 L16.0 42.7 15.7 43.9 Q15.45 43.9 15.55 44.1 L15.55 44.35 Q15.25 44.4 15.3 45.2 L15.25 45.85 Q14.85 45.95 14.85 46.5 L14.85 47.25 Q14.7 47.4 14.7 47.85 L14.45 48.45 14.6 48.9 14.45 49.15 14.8 49.5 16.3 49.6 16.75 49.15 16.85 48.55 17.05 48.0 Q17.05 47.7 17.2 47.6 L17.4 47.25 17.45 46.95 Q17.3 46.7 17.45 46.55 L17.7 46.15 Q17.6 45.95 17.85 45.65 L18.05 44.85 18.3 44.55 Q18.35 44.2 18.6 44.2 18.35 43.9 18.6 43.6 L19.0 43.05 Q18.9 42.6 19.2 42.3 L19.8 41.75 20.4 42.0 20.95 42.2 21.15 42.3 21.35 42.3 Q21.7 42.3 21.8 42.45 L22.85 42.9 23.45 42.9 23.95 43.05 24.4 43.3 Q24.75 43.5 25.0 43.3 L25.35 43.35 25.8 43.6 25.9 44.0 25.8 44.4 25.8 45.0 Q25.65 45.2 25.9 45.25 25.9 46.15 26.05 46.4 L25.9 46.7 26.05 47.4 26.05 47.8 26.25 48.1 26.35 49.3 Q26.25 50.2 26.5 50.6 L26.65 51.25 26.65 51.9 26.9 51.95 27.1 52.1 Q27.1 51.95 27.4 51.9 L27.95 51.9 29.05 51.25 28.9 50.65 Q28.7 50.5 28.85 50.25 L28.85 49.8 Q28.7 49.75 28.85 49.6 L28.5 48.3 28.7 47.7 28.5 46.55 28.5 45.25 Q28.4 44.55 28.7 44.4 L28.65 44.35 Q28.4 44.0 28.65 43.9 L28.5 43.6 Q28.65 43.35 29.05 43.3 L29.7 43.15 29.8 43.3 30.2 43.15 30.75 42.9 Q31.0 43.05 31.45 42.7 31.7 42.4 32.05 42.6 L32.6 42.3 33.2 42.3 33.45 42.4 33.9 43.05 34.3 43.7 Q34.45 44.35 35.1 45.0 L36.25 46.15 Q36.4 46.8 37.45 47.7 37.95 48.0 38.85 49.0 39.15 48.7 39.6 48.55 L40.3 48.0 40.05 47.25 39.45 46.7 39.45 46.3 39.4 46.3 39.25 46.1 38.55 45.2 38.3 44.4 37.75 43.75 37.55 43.3 37.1 42.7 Q37.3 42.4 37.0 42.2 L36.6 41.6 36.4 40.9 37.75 39.55 38.3 39.4 38.75 38.95 39.25 38.35 39.9 37.75 40.35 37.2 40.75 36.8 41.55 37.2 Q42.05 37.05 42.95 37.75 43.35 37.75 44.15 38.35 L44.8 38.5 45.45 38.75 46.4 39.45 46.8 39.45 Q46.9 39.65 47.6 39.85 48.2 40.0 48.45 40.3 L49.1 40.3 49.5 39.8 Q49.6 39.45 50.2 39.15 L50.2 38.5 49.8 38.15 49.4 37.95 Q48.95 38.1 48.45 37.45 48.1 37.45 47.45 37.05 47.2 36.8 47.0 36.8 L46.75 36.6 46.4 36.6 45.7 36.0 Q45.45 35.7 45.1 35.7 44.15 34.85 43.5 34.9 L42.25 33.85 42.25 33.75 42.4 33.1 42.7 32.5 Q42.7 31.9 43.05 31.8 L42.95 31.45 43.05 30.95 43.25 30.3 Q43.05 30.05 43.35 29.65 43.55 29.3 43.35 29.2 L43.5 28.55 43.55 27.7 Q43.55 27.1 43.8 26.85 L44.8 26.85 Q45.1 26.7 45.7 26.85 L46.8 26.85 49.6 26.95 50.4 27.1 51.1 27.15 53.2 27.35 53.45 27.15 53.4 26.85 53.7 26.25 Q53.45 25.95 53.9 25.4 L53.85 24.9 53.3 24.65 Q53.05 24.45 52.85 24.65 L51.35 24.45 50.7 24.35 50.2 24.25 49.6 24.05 49.2 24.1 48.45 24.05 Q47.8 24.1 47.6 23.8 46.9 24.05 46.4 23.8 L45.3 23.8 Q44.4 23.65 44.15 23.8 L43.95 23.65 43.7 23.6 Q43.35 23.35 43.25 22.85 L43.1 22.1 43.1 21.95 42.85 21.3 42.85 21.0 42.65 20.8 42.65 20.25 Q42.2 20.0 42.25 19.25 42.4 18.9 42.85 18.85 43.5 18.2 44.25 18.0 44.4 17.6 45.1 17.35 45.3 17.45 45.65 17.15 46.15 16.3 46.8 16.3 L47.65 15.45 48.65 14.8 Q48.65 14.55 48.95 14.6 L50.5 13.1 Q49.95 12.65 49.75 12.05 L49.2 11.5 47.65 12.35 46.9 12.85 46.3 13.3 45.55 13.5 45.0 13.95 44.4 14.15 44.0 14.4 43.5 14.75 Q42.95 14.8 42.7 15.15 42.4 15.15 41.65 15.7 L41.2 15.9 40.45 16.15 40.15 15.9 39.9 15.7 39.05 14.8 38.85 14.4 38.4 13.95 38.4 14.1 38.15 13.85 37.25 13.3 36.45 12.65 36.65 12.05 Q37.0 11.35 37.75 10.7 L37.75 10.2 38.3 9.55 38.55 9.2 38.55 8.9 39.4 7.85 Q39.4 7.4 39.7 6.8 L40.35 6.1 40.35 5.65 Q40.45 5.2 40.7 5.3 40.55 5.05 40.75 4.6 L40.9 3.8 40.7 3.5 40.05 2.9 M40.35 22.1 L40.45 22.6 Q40.45 23.0 40.7 23.05 L40.7 23.45 Q40.55 23.65 40.75 23.8 40.55 23.9 40.75 24.25 L40.75 24.65 40.75 25.1 Q40.7 25.35 40.9 25.4 40.7 25.55 40.75 25.8 L40.75 26.4 40.75 26.85 Q40.75 27.15 40.9 27.25 40.55 27.95 40.7 28.15 L40.45 29.05 40.45 29.75 40.3 30.35 39.85 31.6 39.45 32.5 39.4 32.75 Q39.25 32.9 39.4 33.1 L39.05 33.65 Q38.75 34.0 38.75 34.25 L37.3 36.15 35.75 37.95 34.95 38.35 Q34.65 38.35 34.05 39.0 33.45 39.55 33.0 39.55 L32.75 39.65 32.5 39.65 Q32.05 40.1 31.7 39.85 L31.2 40.1 30.75 40.3 30.2 40.55 Q29.95 40.45 29.8 40.7 29.55 40.55 29.35 40.7 29.05 40.9 28.85 40.7 L28.4 40.7 28.05 40.75 27.75 40.7 27.4 40.75 26.5 40.7 26.05 40.75 Q25.35 40.75 25.2 40.45 25.05 40.45 25.0 40.55 L24.15 40.3 Q23.75 40.25 23.55 40.0 23.3 39.8 23.25 40.0 L22.55 39.85 22.4 39.85 21.7 39.65 20.95 39.4 20.7 39.15 20.4 39.15 19.65 38.6 Q19.2 38.15 18.9 38.3 L16.85 36.35 16.0 35.3 15.55 34.6 15.1 34.0 14.85 33.35 Q14.6 32.95 14.8 32.75 L14.25 32.1 14.05 31.45 Q13.75 31.05 13.8 30.75 L13.75 30.3 13.5 29.9 13.4 29.0 13.35 28.55 Q13.1 28.4 13.2 28.25 L13.2 24.35 13.35 23.9 13.4 23.45 13.5 23.35 Q13.35 23.0 13.5 23.0 L13.8 21.3 14.05 21.0 Q14.2 20.8 14.4 20.8 14.4 20.0 14.85 19.5 14.8 19.1 15.45 18.4 15.3 18.25 15.55 18.2 L15.75 18.0 15.9 17.55 16.75 16.3 Q17.7 15.6 17.85 15.6 L18.05 15.45 19.65 14.15 20.05 13.95 Q20.25 13.7 20.5 13.7 L21.1 13.45 Q21.25 13.25 21.55 13.3 21.95 13.0 23.25 12.8 L24.6 12.6 Q24.75 12.35 25.15 12.45 L27.35 12.35 28.7 12.45 29.5 12.45 30.35 12.6 30.6 12.6 31.2 12.8 31.6 12.8 Q31.85 12.85 32.15 13.25 L32.75 13.3 Q33.2 13.65 33.6 13.65 34.05 13.85 34.9 14.55 L36.15 15.25 38.4 17.6 38.55 18.05 Q38.4 18.25 38.75 18.25 39.15 18.7 39.05 19.1 L39.4 19.55 39.6 20.0 39.7 20.4 40.35 22.1 M25.2 15.85 Q25.45 15.7 25.65 15.85 25.65 15.7 26.1 15.85 L26.5 15.6 26.95 15.7 28.25 15.9 29.5 16.15 29.7 16.15 29.7 16.05 Q29.8 16.25 29.95 16.05 L30.55 16.3 31.2 16.55 31.7 16.9 32.05 16.75 32.5 17.2 32.9 17.55 33.45 17.75 33.9 18.05 34.45 18.5 35.35 19.55 35.75 20.4 36.4 21.0 Q36.25 21.25 36.65 21.7 L36.8 22.15 36.85 22.6 37.3 23.65 Q37.1 23.8 37.45 24.1 37.3 24.75 37.7 24.95 37.45 25.2 37.7 25.8 L37.55 25.8 37.7 26.25 Q37.45 27.35 37.55 27.55 37.3 27.7 37.45 28.0 37.55 28.4 37.3 28.45 L37.3 29.05 37.0 29.45 Q36.85 29.65 37.0 29.9 36.65 30.05 36.6 30.75 L36.0 31.45 35.2 32.65 Q34.9 32.75 34.65 33.2 L34.05 33.65 33.8 33.85 Q33.45 33.85 33.0 34.4 L32.3 34.85 Q32.05 34.85 31.7 35.15 L31.2 35.35 30.55 35.7 Q30.15 35.7 29.95 35.9 29.35 35.9 29.05 36.2 L28.25 36.35 26.95 36.45 24.4 36.45 Q23.85 36.15 23.7 36.2 22.8 35.7 22.25 35.7 22.15 35.45 21.7 35.35 21.15 35.3 21.1 35.05 L19.8 34.0 19.6 33.85 19.35 33.75 Q19.2 33.2 18.75 33.2 L18.5 32.9 17.4 31.45 Q17.3 30.5 16.85 30.35 L17.0 29.9 Q16.6 29.75 16.55 29.2 L16.4 28.25 16.3 28.25 16.1 26.4 16.0 25.95 16.15 25.4 16.15 24.9 Q16.0 24.1 16.3 23.9 16.15 22.6 16.75 22.15 L17.0 21.45 17.2 21.1 17.4 20.8 18.6 19.35 Q18.5 19.1 19.15 18.7 L19.85 18.05 Q20.25 17.55 20.7 17.55 L21.15 17.2 Q21.5 16.9 21.7 17.0 L22.15 16.75 Q22.45 16.3 23.45 16.15 L24.1 16.05 24.85 15.85 25.2 15.85 M23.3 18.9 L23.95 18.65 Q24.1 18.4 24.55 18.4 L25.05 18.25 25.45 18.2 26.05 18.05 26.65 18.2 27.2 18.05 27.55 18.2 Q27.6 18.05 27.95 18.2 L28.4 18.2 29.1 18.25 29.55 18.5 30.6 19.05 Q31.05 19.05 31.6 19.55 L32.6 20.35 33.2 21.3 33.6 21.7 33.8 22.15 33.9 22.6 34.05 23.0 34.05 23.35 34.65 25.2 Q34.45 25.35 34.5 25.65 L34.5 25.95 Q34.75 26.2 34.5 26.95 L34.45 27.25 Q34.3 27.5 34.45 27.7 L34.2 28.45 33.9 29.05 32.35 31.45 Q32.15 31.35 32.15 31.65 L31.9 31.9 31.9 32.05 Q31.05 32.95 30.4 32.9 L29.8 33.2 Q29.25 33.35 29.05 33.65 L27.75 33.85 27.35 33.85 26.65 34.0 25.2 33.85 24.55 33.75 Q23.75 33.75 23.7 33.4 L23.0 33.35 21.7 32.25 Q21.25 32.1 21.25 31.8 L20.85 31.25 19.85 30.3 19.8 29.75 19.65 29.2 19.45 28.55 19.15 28.0 Q19.0 27.8 19.15 27.55 L19.0 27.15 19.0 26.7 19.0 26.25 19.0 25.8 19.0 25.4 Q18.9 24.5 19.2 24.35 L19.2 24.05 Q19.2 23.8 19.35 23.65 L19.6 23.15 Q19.45 22.75 19.65 22.6 L19.95 21.95 20.25 21.55 21.55 20.0 22.25 19.8 22.65 19.35 Q22.8 19.05 23.3 18.9 Z" fill="none" stroke="#000000" stroke-linecap="round" stroke-linejoin="round" stroke-opacity="0.2" stroke-width="1.5"/>
    </g>
    <g id="sprite15" transform="matrix(1.0, 0.0, 0.0, 1.0, 0.0, 0.0)">
      <use ffdec:characterId="18" height="52.1" transform="matrix(1.0, 0.0, 0.0, 1.0, 0.0, 0.0)" width="53.9" xlink:href="#shape2"/>
    </g>
    <g id="shape2" transform="matrix(1.0, 0.0, 0.0, 1.0, 0.0, 0.0)">
      <path d="M40.35 22.1 L39.7 20.4 39.6 20.0 39.4 19.55 39.05 19.1 Q39.15 18.7 38.75 18.25 38.4 18.25 38.55 18.05 L38.4 17.6 36.15 15.25 34.9 14.55 Q34.05 13.85 33.6 13.65 33.2 13.65 32.75 13.3 L32.15 13.25 Q31.85 12.85 31.6 12.8 L31.2 12.8 30.6 12.6 30.35 12.6 29.5 12.45 28.7 12.45 27.35 12.35 25.15 12.45 Q24.75 12.35 24.6 12.6 L23.25 12.8 Q21.95 13.0 21.55 13.3 21.25 13.25 21.1 13.45 L20.5 13.7 Q20.25 13.7 20.05 13.95 L19.65 14.15 18.05 15.45 17.85 15.6 Q17.7 15.6 16.75 16.3 L15.9 17.55 15.75 18.0 15.55 18.2 Q15.3 18.25 15.45 18.4 14.8 19.1 14.85 19.5 14.4 20.0 14.4 20.8 14.2 20.8 14.05 21.0 L13.8 21.3 13.5 23.0 Q13.35 23.0 13.5 23.35 L13.4 23.45 13.35 23.9 13.2 24.35 13.2 28.25 Q13.1 28.4 13.35 28.55 L13.4 29.0 13.5 29.9 13.75 30.3 13.8 30.75 Q13.75 31.05 14.05 31.45 L14.25 32.1 14.8 32.75 Q14.6 32.95 14.85 33.35 L15.1 34.0 15.55 34.6 16.0 35.3 16.85 36.35 18.9 38.3 Q19.2 38.15 19.65 38.6 L20.4 39.15 20.7 39.15 20.95 39.4 21.7 39.65 22.4 39.85 22.55 39.85 23.25 40.0 Q23.3 39.8 23.55 40.0 23.75 40.25 24.15 40.3 L25.0 40.55 Q25.05 40.45 25.2 40.45 25.35 40.75 26.05 40.75 L26.5 40.7 27.4 40.75 27.75 40.7 28.05 40.75 28.4 40.7 28.85 40.7 Q29.05 40.9 29.35 40.7 29.55 40.55 29.8 40.7 29.95 40.45 30.2 40.55 L30.75 40.3 31.2 40.1 31.7 39.85 Q32.05 40.1 32.5 39.65 L32.75 39.65 33.0 39.55 Q33.45 39.55 34.05 39.0 34.65 38.35 34.95 38.35 L35.75 37.95 37.3 36.15 38.75 34.25 Q38.75 34.0 39.05 33.65 L39.4 33.1 Q39.25 32.9 39.4 32.75 L39.45 32.5 39.85 31.6 40.3 30.35 40.45 29.75 40.45 29.05 40.7 28.15 Q40.55 27.95 40.9 27.25 40.75 27.15 40.75 26.85 L40.75 26.4 40.75 25.8 Q40.7 25.55 40.9 25.4 40.7 25.35 40.75 25.1 L40.75 24.65 40.75 24.25 Q40.55 23.9 40.75 23.8 40.55 23.65 40.7 23.45 L40.7 23.05 Q40.45 23.0 40.45 22.6 L40.35 22.1 M40.05 2.9 L40.7 3.5 40.9 3.8 40.75 4.6 Q40.55 5.05 40.7 5.3 40.45 5.2 40.35 5.65 L40.35 6.1 39.7 6.8 Q39.4 7.4 39.4 7.85 L38.55 8.9 38.55 9.2 38.3 9.55 37.75 10.2 37.75 10.7 Q37.0 11.35 36.65 12.05 L36.45 12.65 37.25 13.3 38.15 13.85 38.4 14.1 38.4 13.95 38.85 14.4 39.05 14.8 39.9 15.7 40.15 15.9 40.45 16.15 41.2 15.9 41.65 15.7 Q42.4 15.15 42.7 15.15 42.95 14.8 43.5 14.75 L44.0 14.4 44.4 14.15 45.0 13.95 45.55 13.5 46.3 13.3 46.9 12.85 47.65 12.35 49.2 11.5 49.75 12.05 Q49.95 12.65 50.5 13.1 L48.95 14.6 Q48.65 14.55 48.65 14.8 L47.65 15.45 46.8 16.3 Q46.15 16.3 45.65 17.15 45.3 17.45 45.1 17.35 44.4 17.6 44.25 18.0 43.5 18.2 42.85 18.85 42.4 18.9 42.25 19.25 42.2 20.0 42.65 20.25 L42.65 20.8 42.85 21.0 42.85 21.3 43.1 21.95 43.1 22.1 43.25 22.85 Q43.35 23.35 43.7 23.6 L43.95 23.65 44.15 23.8 Q44.4 23.65 45.3 23.8 L46.4 23.8 Q46.9 24.05 47.6 23.8 47.8 24.1 48.45 24.05 L49.2 24.1 49.6 24.05 50.2 24.25 50.7 24.35 51.35 24.45 52.85 24.65 Q53.05 24.45 53.3 24.65 L53.85 24.9 53.9 25.4 Q53.45 25.95 53.7 26.25 L53.4 26.85 53.45 27.15 53.2 27.35 51.1 27.15 50.4 27.1 49.6 26.95 46.8 26.85 45.7 26.85 Q45.1 26.7 44.8 26.85 L43.8 26.85 Q43.55 27.1 43.55 27.7 L43.5 28.55 43.35 29.2 Q43.55 29.3 43.35 29.65 43.05 30.05 43.25 30.3 L43.05 30.95 42.95 31.45 43.05 31.8 Q42.7 31.9 42.7 32.5 L42.4 33.1 42.25 33.75 42.25 33.85 43.5 34.9 Q44.15 34.85 45.1 35.7 45.45 35.7 45.7 36.0 L46.4 36.6 46.75 36.6 47.0 36.8 Q47.2 36.8 47.45 37.05 48.1 37.45 48.45 37.45 48.95 38.1 49.4 37.95 L49.8 38.15 50.2 38.5 50.2 39.15 Q49.6 39.45 49.5 39.8 L49.1 40.3 48.45 40.3 Q48.2 40.0 47.6 39.85 46.9 39.65 46.8 39.45 L46.4 39.45 45.45 38.75 44.8 38.5 44.15 38.35 Q43.35 37.75 42.95 37.75 42.05 37.05 41.55 37.2 L40.75 36.8 40.35 37.2 39.9 37.75 39.25 38.35 38.75 38.95 38.3 39.4 37.75 39.55 36.4 40.9 36.6 41.6 37.0 42.2 Q37.3 42.4 37.1 42.7 L37.55 43.3 37.75 43.75 38.3 44.4 38.55 45.2 39.25 46.1 39.4 46.3 39.45 46.3 39.45 46.7 40.05 47.25 40.3 48.0 39.6 48.55 Q39.15 48.7 38.85 49.0 37.95 48.0 37.45 47.7 36.4 46.8 36.25 46.15 L35.1 45.0 Q34.45 44.35 34.3 43.7 L33.9 43.05 33.45 42.4 33.2 42.3 32.6 42.3 32.05 42.6 Q31.7 42.4 31.45 42.7 31.0 43.05 30.75 42.9 L30.2 43.15 29.8 43.3 29.7 43.15 29.05 43.3 Q28.65 43.35 28.5 43.6 L28.65 43.9 Q28.4 44.0 28.65 44.35 L28.7 44.4 Q28.4 44.55 28.5 45.25 L28.5 46.55 28.7 47.7 28.5 48.3 28.85 49.6 Q28.7 49.75 28.85 49.8 L28.85 50.25 Q28.7 50.5 28.9 50.65 L29.05 51.25 27.95 51.9 27.4 51.9 Q27.1 51.95 27.1 52.1 L26.9 51.95 26.65 51.9 26.65 51.25 26.5 50.6 Q26.25 50.2 26.35 49.3 L26.25 48.1 26.05 47.8 26.05 47.4 25.9 46.7 26.05 46.4 Q25.9 46.15 25.9 45.25 25.65 45.2 25.8 45.0 L25.8 44.4 25.9 44.0 25.8 43.6 25.35 43.35 25.0 43.3 Q24.75 43.5 24.4 43.3 L23.95 43.05 23.45 42.9 22.85 42.9 21.8 42.45 Q21.7 42.3 21.35 42.3 L21.15 42.3 20.95 42.2 20.4 42.0 19.8 41.75 19.2 42.3 Q18.9 42.6 19.0 43.05 L18.6 43.6 Q18.35 43.9 18.6 44.2 18.35 44.2 18.3 44.55 L18.05 44.85 17.85 45.65 Q17.6 45.95 17.7 46.15 L17.45 46.55 Q17.3 46.7 17.45 46.95 L17.4 47.25 17.2 47.6 Q17.05 47.7 17.05 48.0 L16.85 48.55 16.75 49.15 16.3 49.6 14.8 49.5 14.45 49.15 14.6 48.9 14.45 48.45 14.7 47.85 Q14.7 47.4 14.85 47.25 L14.85 46.5 Q14.85 45.95 15.25 45.85 L15.3 45.2 Q15.25 44.4 15.55 44.35 L15.55 44.1 Q15.45 43.9 15.7 43.9 L16.0 42.7 16.15 42.3 Q16.15 42.0 16.3 41.85 L16.55 40.95 Q16.85 40.55 16.75 40.0 L15.45 38.8 15.3 38.8 14.45 37.65 13.4 36.6 13.35 36.35 13.1 36.15 Q12.65 35.7 12.45 35.9 12.2 36.0 11.8 36.2 11.2 36.45 11.0 36.8 L10.3 37.2 Q9.7 37.5 9.65 37.9 L9.0 38.3 Q8.4 38.35 8.35 38.6 7.95 39.25 7.5 39.25 L6.2 40.25 6.2 40.3 5.2 40.75 4.65 40.0 4.5 39.4 Q4.25 39.0 4.5 38.8 5.55 37.5 6.2 37.2 7.8 35.3 8.65 34.9 L9.3 34.4 9.85 33.85 10.05 33.75 10.3 33.55 11.45 32.65 Q11.45 32.1 10.9 31.45 L10.9 30.95 10.8 30.3 10.6 30.05 10.75 29.75 10.5 28.75 10.15 27.95 9.7 27.8 9.45 27.8 8.15 27.55 7.8 27.55 7.5 27.55 6.5 27.55 5.55 27.35 3.25 27.35 2.85 27.5 Q2.55 27.35 2.55 27.5 L2.1 27.35 1.7 27.35 1.3 27.5 1.0 27.55 0.25 27.55 Q-0.05 27.35 0.0 27.15 L0.15 26.95 Q-0.05 26.65 0.15 26.65 0.15 25.8 0.4 25.65 0.4 25.2 0.8 25.2 L1.55 24.9 3.05 24.9 3.4 24.75 Q3.45 24.9 3.8 24.9 4.05 24.75 4.1 24.9 L4.9 24.75 5.65 24.95 6.5 25.1 7.25 24.95 8.55 24.95 9.7 25.1 9.9 24.75 10.05 24.45 Q10.35 23.8 10.15 23.45 L10.3 23.2 10.35 22.6 10.35 21.95 10.6 21.45 Q10.6 21.0 10.8 20.85 L10.9 20.4 Q10.8 20.15 11.0 20.15 11.45 19.7 11.15 19.5 L11.45 18.85 Q11.65 18.5 11.45 18.25 L10.05 17.55 Q9.7 17.55 9.2 17.2 8.55 16.75 8.25 16.75 L7.7 16.55 7.05 16.25 6.25 16.15 Q6.05 15.9 5.65 15.9 5.1 15.85 4.95 15.6 L4.5 15.45 3.8 15.4 Q3.25 15.15 3.2 14.8 L3.2 14.15 3.8 12.85 Q3.9 12.65 4.25 12.85 L4.75 12.85 5.65 13.25 6.25 13.3 7.35 13.5 7.95 13.7 Q8.25 13.7 8.4 13.95 L9.2 14.1 9.85 14.3 Q9.9 14.55 10.35 14.55 10.8 14.4 10.9 14.75 L11.45 14.75 11.9 15.0 Q12.65 15.4 13.6 15.45 L13.95 15.25 Q14.25 14.6 15.0 14.3 L15.7 13.7 16.4 13.45 18.05 12.05 17.9 11.35 17.6 10.85 16.75 9.6 16.75 9.3 16.4 8.9 15.55 8.1 14.6 6.95 14.45 6.95 14.25 6.75 14.2 6.6 14.2 6.4 13.35 5.5 12.5 4.8 12.75 4.45 Q12.9 4.2 13.1 4.35 L14.25 3.5 14.8 3.9 15.3 4.2 15.9 4.6 Q16.1 4.45 16.4 4.9 L17.0 5.3 17.3 5.65 17.6 5.95 Q17.45 6.2 17.7 6.35 L18.7 7.25 20.2 9.15 20.4 9.6 20.7 10.05 20.95 10.45 21.15 10.5 21.7 10.3 22.25 10.05 22.65 10.05 23.0 10.0 23.95 9.85 25.0 10.0 25.2 9.75 Q25.45 9.55 25.6 9.75 L26.25 9.55 26.25 7.4 26.25 7.2 Q26.1 6.95 26.25 6.8 26.1 6.6 26.25 6.4 L26.25 5.9 26.05 4.2 Q25.8 4.15 25.9 3.9 L25.8 3.5 25.8 2.85 25.65 1.65 25.45 1.55 Q25.6 1.1 25.35 0.95 L25.45 0.5 Q25.35 0.1 25.65 0.1 L26.05 0.1 Q26.9 -0.1 27.35 0.1 L27.75 0.1 28.05 0.7 Q27.95 1.1 28.2 1.2 L28.05 1.2 28.2 1.65 28.4 1.85 Q28.2 2.1 28.4 2.45 L28.5 3.05 Q28.85 3.35 28.65 3.6 L28.7 3.8 28.85 4.0 28.7 4.2 28.85 4.65 28.85 5.1 28.9 5.45 29.1 5.75 29.05 5.95 Q28.9 6.1 29.05 6.2 L29.05 6.75 Q29.25 6.8 29.1 7.2 L29.1 7.6 29.25 8.1 29.1 8.55 29.1 8.9 Q29.1 9.15 29.25 9.2 28.9 9.4 29.25 9.85 29.5 10.2 30.0 10.05 L30.6 10.05 31.2 10.45 31.85 10.5 Q32.05 10.7 32.35 10.5 L33.0 11.05 33.8 11.05 34.3 10.45 Q34.5 9.75 34.9 9.55 L35.5 8.55 35.95 7.9 36.4 7.5 36.65 7.05 Q36.45 6.8 36.65 6.6 L36.85 6.35 37.55 5.3 Q37.75 4.6 38.15 4.35 L38.3 3.75 39.05 2.6 39.45 2.85 40.05 2.9 M26.5 15.6 L26.95 15.7 28.25 15.9 29.5 16.15 29.7 16.15 29.7 16.05 Q29.8 16.25 29.95 16.05 L30.55 16.3 31.2 16.55 31.7 16.9 32.05 16.75 32.5 17.2 32.9 17.55 33.45 17.75 33.9 18.05 34.45 18.5 35.35 19.55 35.75 20.4 36.4 21.0 Q36.25 21.25 36.65 21.7 L36.8 22.15 36.85 22.6 37.3 23.65 Q37.1 23.8 37.45 24.1 37.3 24.75 37.7 24.95 37.45 25.2 37.7 25.8 L37.55 25.8 37.7 26.25 Q37.45 27.35 37.55 27.55 37.3 27.7 37.45 28.0 37.55 28.4 37.3 28.45 L37.3 29.05 37.0 29.45 Q36.85 29.65 37.0 29.9 36.65 30.05 36.6 30.75 L36.0 31.45 35.2 32.65 Q34.9 32.75 34.65 33.2 L34.05 33.65 33.8 33.85 Q33.45 33.85 33.0 34.4 L32.3 34.85 Q32.05 34.85 31.7 35.15 L31.2 35.35 30.55 35.7 Q30.15 35.7 29.95 35.9 29.35 35.9 29.05 36.2 L28.25 36.35 26.95 36.45 24.4 36.45 Q23.85 36.15 23.7 36.2 22.8 35.7 22.25 35.7 22.15 35.45 21.7 35.35 21.15 35.3 21.1 35.05 L19.8 34.0 19.6 33.85 19.35 33.75 Q19.2 33.2 18.75 33.2 L18.5 32.9 17.4 31.45 Q17.3 30.5 16.85 30.35 L17.0 29.9 Q16.6 29.75 16.55 29.2 L16.4 28.25 16.3 28.25 16.1 26.4 16.0 25.95 16.15 25.4 16.15 24.9 Q16.0 24.1 16.3 23.9 16.15 22.6 16.75 22.15 L17.0 21.45 17.2 21.1 17.4 20.8 18.6 19.35 Q18.5 19.1 19.15 18.7 L19.85 18.05 Q20.25 17.55 20.7 17.55 L21.15 17.2 Q21.5 16.9 21.7 17.0 L22.15 16.75 Q22.45 16.3 23.45 16.15 L24.1 16.05 24.85 15.85 25.2 15.85 Q25.45 15.7 25.65 15.85 25.65 15.7 26.1 15.85 L26.5 15.6 M23.3 18.9 Q22.8 19.05 22.65 19.35 L22.25 19.8 21.55 20.0 20.25 21.55 19.95 21.95 19.65 22.6 Q19.45 22.75 19.6 23.15 L19.35 23.65 Q19.2 23.8 19.2 24.05 L19.2 24.35 Q18.9 24.5 19.0 25.4 L19.0 25.8 19.0 26.25 19.0 26.7 19.0 27.15 19.15 27.55 Q19.0 27.8 19.15 28.0 L19.45 28.55 19.65 29.2 19.8 29.75 19.85 30.3 20.85 31.25 21.25 31.8 Q21.25 32.1 21.7 32.25 L23.0 33.35 23.7 33.4 Q23.75 33.75 24.55 33.75 L25.2 33.85 26.65 34.0 27.35 33.85 27.75 33.85 29.05 33.65 Q29.25 33.35 29.8 33.2 L30.4 32.9 Q31.05 32.95 31.9 32.05 L31.9 31.9 32.15 31.65 Q32.15 31.35 32.35 31.45 L33.9 29.05 34.2 28.45 34.45 27.7 Q34.3 27.5 34.45 27.25 L34.5 26.95 Q34.75 26.2 34.5 25.95 L34.5 25.65 Q34.45 25.35 34.65 25.2 L34.05 23.35 34.05 23.0 33.9 22.6 33.8 22.15 33.6 21.7 33.2 21.3 32.6 20.35 31.6 19.55 Q31.05 19.05 30.6 19.05 L29.55 18.5 29.1 18.25 28.4 18.2 27.95 18.2 Q27.6 18.05 27.55 18.2 L27.2 18.05 26.65 18.2 26.05 18.05 25.45 18.2 25.05 18.25 24.55 18.4 Q24.1 18.4 23.95 18.65 L23.3 18.9" fill="#000000" fill-rule="evenodd" stroke="none"/>
    </g>
  </defs>
</svg>
