<?xml version="1.0" encoding="UTF-8" standalone="no"?>
<svg xmlns:ffdec="https://www.free-decompiler.com/flash" xmlns:xlink="http://www.w3.org/1999/xlink" ffdec:objectType="frame" height="56.0px" width="56.0px" xmlns="http://www.w3.org/2000/svg">
  <g transform="matrix(1.0, 0.0, 0.0, 1.0, 0.0, 0.0)">
    <use ffdec:characterId="49" ffdec:characterName="140_fla.Symbole144_1" height="56.0" id="back" transform="matrix(1.0, 0.0, 0.0, 1.0, 0.0, 0.0)" width="56.0" xlink:href="#sprite0"/>
    <use ffdec:characterId="51" height="49.25" id="back" transform="matrix(1.0, 0.0, 0.0, 1.0, 0.4, 3.3)" width="55.4" xlink:href="#sprite48"/>
    <use ffdec:characterId="53" height="47.75" id="up" transform="matrix(1.0, 0.0, 0.0, 1.0, 1.2, 4.05)" width="53.9" xlink:href="#sprite49"/>
  </g>
  <defs>
    <g id="sprite0" transform="matrix(1.0, 0.0, 0.0, 1.0, 0.0, 0.0)">
      <use ffdec:characterId="48" ffdec:characterName="140_fla.Symbole141_2" height="56.0" id="back" transform="matrix(1.0, 0.0, 0.0, 1.0, 0.0, 0.0)" width="56.0" xlink:href="#sprite1"/>
    </g>
    <g id="sprite1" transform="matrix(1.0, 0.0, 0.0, 1.0, 0.0, 0.0)">
      <use ffdec:characterId="47" ffdec:characterName="140_fla.Symbole138_3" height="56.0" id="back" transform="matrix(1.0, 0.0, 0.0, 1.0, 0.0, 0.0)" width="56.0" xlink:href="#sprite2"/>
    </g>
    <g id="sprite2" transform="matrix(1.0, 0.0, 0.0, 1.0, 0.0, 0.0)">
      <use ffdec:characterId="46" ffdec:characterName="140_fla.Symbole135_4" height="56.0" id="back" transform="matrix(1.0, 0.0, 0.0, 1.0, 0.0, 0.0)" width="56.0" xlink:href="#sprite3"/>
    </g>
    <g id="sprite3" transform="matrix(1.0, 0.0, 0.0, 1.0, 0.0, 0.0)">
      <use ffdec:characterId="45" ffdec:characterName="140_fla.Symbole132_5" height="56.0" id="back" transform="matrix(1.0, 0.0, 0.0, 1.0, 0.0, 0.0)" width="56.0" xlink:href="#sprite4"/>
    </g>
    <g id="sprite4" transform="matrix(1.0, 0.0, 0.0, 1.0, 0.0, 0.0)">
      <use ffdec:characterId="44" ffdec:characterName="140_fla.Symbole129_6" height="56.0" id="back" transform="matrix(1.0, 0.0, 0.0, 1.0, 0.0, 0.0)" width="56.0" xlink:href="#sprite5"/>
    </g>
    <g id="sprite5" transform="matrix(1.0, 0.0, 0.0, 1.0, 0.0, 0.0)">
      <use ffdec:characterId="43" ffdec:characterName="140_fla.Symbole126_7" height="56.0" id="back" transform="matrix(1.0, 0.0, 0.0, 1.0, 0.0, 0.0)" width="56.0" xlink:href="#sprite6"/>
    </g>
    <g id="sprite6" transform="matrix(1.0, 0.0, 0.0, 1.0, 0.0, 0.0)">
      <use ffdec:characterId="42" ffdec:characterName="140_fla.Symbole123_8" height="56.0" id="back" transform="matrix(1.0, 0.0, 0.0, 1.0, 0.0, 0.0)" width="56.0" xlink:href="#sprite7"/>
    </g>
    <g id="sprite7" transform="matrix(1.0, 0.0, 0.0, 1.0, 0.0, 0.0)">
      <use ffdec:characterId="41" ffdec:characterName="140_fla.Symbole120_9" height="56.0" id="back" transform="matrix(1.0, 0.0, 0.0, 1.0, 0.0, 0.0)" width="56.0" xlink:href="#sprite8"/>
    </g>
    <g id="sprite8" transform="matrix(1.0, 0.0, 0.0, 1.0, 0.0, 0.0)">
      <use ffdec:characterId="40" ffdec:characterName="140_fla.Symbole117_10" height="56.0" id="back" transform="matrix(1.0, 0.0, 0.0, 1.0, 0.0, 0.0)" width="56.0" xlink:href="#sprite9"/>
    </g>
    <g id="sprite9" transform="matrix(1.0, 0.0, 0.0, 1.0, 0.0, 0.0)">
      <use ffdec:characterId="39" ffdec:characterName="140_fla.Symbole114_11" height="56.0" id="back" transform="matrix(1.0, 0.0, 0.0, 1.0, 0.0, 0.0)" width="56.0" xlink:href="#sprite10"/>
    </g>
    <g id="sprite10" transform="matrix(1.0, 0.0, 0.0, 1.0, 0.0, 0.0)">
      <use ffdec:characterId="38" ffdec:characterName="140_fla.Symbole111_12" height="56.0" id="back" transform="matrix(1.0, 0.0, 0.0, 1.0, 0.0, 0.0)" width="56.0" xlink:href="#sprite11"/>
    </g>
    <g id="sprite11" transform="matrix(1.0, 0.0, 0.0, 1.0, 0.0, 0.0)">
      <use ffdec:characterId="37" ffdec:characterName="140_fla.Symbole108_13" height="56.0" id="back" transform="matrix(1.0, 0.0, 0.0, 1.0, 0.0, 0.0)" width="56.0" xlink:href="#sprite12"/>
    </g>
    <g id="sprite12" transform="matrix(1.0, 0.0, 0.0, 1.0, 0.0, 0.0)">
      <use ffdec:characterId="36" ffdec:characterName="140_fla.Symbole105_14" height="56.0" id="back" transform="matrix(1.0, 0.0, 0.0, 1.0, 0.0, 0.0)" width="56.0" xlink:href="#sprite13"/>
    </g>
    <g id="sprite13" transform="matrix(1.0, 0.0, 0.0, 1.0, 0.0, 0.0)">
      <use ffdec:characterId="35" ffdec:characterName="140_fla.Symbole102_15" height="56.0" id="back" transform="matrix(1.0, 0.0, 0.0, 1.0, 0.0, 0.0)" width="56.0" xlink:href="#sprite14"/>
    </g>
    <g id="sprite14" transform="matrix(1.0, 0.0, 0.0, 1.0, 0.0, 0.0)">
      <use ffdec:characterId="34" ffdec:characterName="140_fla.Symbole99_16" height="56.0" id="back" transform="matrix(1.0, 0.0, 0.0, 1.0, 0.0, 0.0)" width="56.0" xlink:href="#sprite15"/>
    </g>
    <g id="sprite15" transform="matrix(1.0, 0.0, 0.0, 1.0, 0.0, 0.0)">
      <use ffdec:characterId="33" ffdec:characterName="140_fla.Symbole96_17" height="56.0" id="back" transform="matrix(1.0, 0.0, 0.0, 1.0, 0.0, 0.0)" width="56.0" xlink:href="#sprite16"/>
    </g>
    <g id="sprite16" transform="matrix(1.0, 0.0, 0.0, 1.0, 0.0, 0.0)">
      <use ffdec:characterId="32" ffdec:characterName="140_fla.Symbole93_18" height="56.0" id="back" transform="matrix(1.0, 0.0, 0.0, 1.0, 0.0, 0.0)" width="56.0" xlink:href="#sprite17"/>
    </g>
    <g id="sprite17" transform="matrix(1.0, 0.0, 0.0, 1.0, 0.0, 0.0)">
      <use ffdec:characterId="31" ffdec:characterName="140_fla.Symbole90_19" height="56.0" id="back" transform="matrix(1.0, 0.0, 0.0, 1.0, 0.0, 0.0)" width="56.0" xlink:href="#sprite18"/>
    </g>
    <g id="sprite18" transform="matrix(1.0, 0.0, 0.0, 1.0, 0.0, 0.0)">
      <use ffdec:characterId="30" ffdec:characterName="140_fla.Symbole87_20" height="56.0" id="back" transform="matrix(1.0, 0.0, 0.0, 1.0, 0.0, 0.0)" width="56.0" xlink:href="#sprite19"/>
    </g>
    <g id="sprite19" transform="matrix(1.0, 0.0, 0.0, 1.0, 0.0, 0.0)">
      <use ffdec:characterId="29" ffdec:characterName="140_fla.Symbole84_21" height="56.0" id="back" transform="matrix(1.0, 0.0, 0.0, 1.0, 0.0, 0.0)" width="56.0" xlink:href="#sprite20"/>
    </g>
    <g id="sprite20" transform="matrix(1.0, 0.0, 0.0, 1.0, 0.0, 0.0)">
      <use ffdec:characterId="28" ffdec:characterName="140_fla.Symbole81_22" height="56.0" id="back" transform="matrix(1.0, 0.0, 0.0, 1.0, 0.0, 0.0)" width="56.0" xlink:href="#sprite21"/>
    </g>
    <g id="sprite21" transform="matrix(1.0, 0.0, 0.0, 1.0, 0.0, 0.0)">
      <use ffdec:characterId="27" ffdec:characterName="140_fla.Symbole78_23" height="56.0" id="back" transform="matrix(1.0, 0.0, 0.0, 1.0, 0.0, 0.0)" width="56.0" xlink:href="#sprite22"/>
    </g>
    <g id="sprite22" transform="matrix(1.0, 0.0, 0.0, 1.0, 0.0, 0.0)">
      <use ffdec:characterId="26" ffdec:characterName="140_fla.Symbole75_24" height="56.0" id="back" transform="matrix(1.0, 0.0, 0.0, 1.0, 0.0, 0.0)" width="56.0" xlink:href="#sprite23"/>
    </g>
    <g id="sprite23" transform="matrix(1.0, 0.0, 0.0, 1.0, 0.0, 0.0)">
      <use ffdec:characterId="25" ffdec:characterName="140_fla.Symbole72_25" height="56.0" id="back" transform="matrix(1.0, 0.0, 0.0, 1.0, 0.0, 0.0)" width="56.0" xlink:href="#sprite24"/>
    </g>
    <g id="sprite24" transform="matrix(1.0, 0.0, 0.0, 1.0, 0.0, 0.0)">
      <use ffdec:characterId="24" ffdec:characterName="140_fla.Symbole69_26" height="56.0" id="back" transform="matrix(1.0, 0.0, 0.0, 1.0, 0.0, 0.0)" width="56.0" xlink:href="#sprite25"/>
    </g>
    <g id="sprite25" transform="matrix(1.0, 0.0, 0.0, 1.0, 0.0, 0.0)">
      <use ffdec:characterId="23" ffdec:characterName="140_fla.Symbole66_27" height="56.0" id="back" transform="matrix(1.0, 0.0, 0.0, 1.0, 0.0, 0.0)" width="56.0" xlink:href="#sprite26"/>
    </g>
    <g id="sprite26" transform="matrix(1.0, 0.0, 0.0, 1.0, 0.0, 0.0)">
      <use ffdec:characterId="22" ffdec:characterName="140_fla.Symbole63_28" height="56.0" id="back" transform="matrix(1.0, 0.0, 0.0, 1.0, 0.0, 0.0)" width="56.0" xlink:href="#sprite27"/>
    </g>
    <g id="sprite27" transform="matrix(1.0, 0.0, 0.0, 1.0, 0.0, 0.0)">
      <use ffdec:characterId="21" ffdec:characterName="140_fla.Symbole60_29" height="56.0" id="back" transform="matrix(1.0, 0.0, 0.0, 1.0, 0.0, 0.0)" width="56.0" xlink:href="#sprite28"/>
    </g>
    <g id="sprite28" transform="matrix(1.0, 0.0, 0.0, 1.0, 0.0, 0.0)">
      <use ffdec:characterId="20" ffdec:characterName="140_fla.Symbole57_30" height="56.0" id="back" transform="matrix(1.0, 0.0, 0.0, 1.0, 0.0, 0.0)" width="56.0" xlink:href="#sprite29"/>
    </g>
    <g id="sprite29" transform="matrix(1.0, 0.0, 0.0, 1.0, 0.0, 0.0)">
      <use ffdec:characterId="19" ffdec:characterName="140_fla.Symbole54_31" height="56.0" id="back" transform="matrix(1.0, 0.0, 0.0, 1.0, 0.0, 0.0)" width="56.0" xlink:href="#sprite30"/>
    </g>
    <g id="sprite30" transform="matrix(1.0, 0.0, 0.0, 1.0, 0.0, 0.0)">
      <use ffdec:characterId="18" ffdec:characterName="140_fla.Symbole51_32" height="56.0" id="back" transform="matrix(1.0, 0.0, 0.0, 1.0, 0.0, 0.0)" width="56.0" xlink:href="#sprite31"/>
    </g>
    <g id="sprite31" transform="matrix(1.0, 0.0, 0.0, 1.0, 0.0, 0.0)">
      <use ffdec:characterId="17" ffdec:characterName="140_fla.Symbole48_33" height="56.0" id="back" transform="matrix(1.0, 0.0, 0.0, 1.0, 0.0, 0.0)" width="56.0" xlink:href="#sprite32"/>
    </g>
    <g id="sprite32" transform="matrix(1.0, 0.0, 0.0, 1.0, 0.0, 0.0)">
      <use ffdec:characterId="16" ffdec:characterName="140_fla.Symbole45_34" height="56.0" id="back" transform="matrix(1.0, 0.0, 0.0, 1.0, 0.0, 0.0)" width="56.0" xlink:href="#sprite33"/>
    </g>
    <g id="sprite33" transform="matrix(1.0, 0.0, 0.0, 1.0, 0.0, 0.0)">
      <use ffdec:characterId="15" ffdec:characterName="140_fla.Symbole42_35" height="56.0" id="back" transform="matrix(1.0, 0.0, 0.0, 1.0, 0.0, 0.0)" width="56.0" xlink:href="#sprite34"/>
    </g>
    <g id="sprite34" transform="matrix(1.0, 0.0, 0.0, 1.0, 0.0, 0.0)">
      <use ffdec:characterId="14" ffdec:characterName="140_fla.Symbole39_36" height="56.0" id="back" transform="matrix(1.0, 0.0, 0.0, 1.0, 0.0, 0.0)" width="56.0" xlink:href="#sprite35"/>
    </g>
    <g id="sprite35" transform="matrix(1.0, 0.0, 0.0, 1.0, 0.0, 0.0)">
      <use ffdec:characterId="13" ffdec:characterName="140_fla.Symbole36_37" height="56.0" id="back" transform="matrix(1.0, 0.0, 0.0, 1.0, 0.0, 0.0)" width="56.0" xlink:href="#sprite36"/>
    </g>
    <g id="sprite36" transform="matrix(1.0, 0.0, 0.0, 1.0, 0.0, 0.0)">
      <use ffdec:characterId="12" ffdec:characterName="140_fla.Symbole33_38" height="56.0" id="back" transform="matrix(1.0, 0.0, 0.0, 1.0, 0.0, 0.0)" width="56.0" xlink:href="#sprite37"/>
    </g>
    <g id="sprite37" transform="matrix(1.0, 0.0, 0.0, 1.0, 0.0, 0.0)">
      <use ffdec:characterId="11" ffdec:characterName="140_fla.Symbole30_39" height="56.0" id="back" transform="matrix(1.0, 0.0, 0.0, 1.0, 0.0, 0.0)" width="56.0" xlink:href="#sprite38"/>
    </g>
    <g id="sprite38" transform="matrix(1.0, 0.0, 0.0, 1.0, 0.0, 0.0)">
      <use ffdec:characterId="10" ffdec:characterName="140_fla.Symbole27_40" height="56.0" id="back" transform="matrix(1.0, 0.0, 0.0, 1.0, 0.0, 0.0)" width="56.0" xlink:href="#sprite39"/>
    </g>
    <g id="sprite39" transform="matrix(1.0, 0.0, 0.0, 1.0, 0.0, 0.0)">
      <use ffdec:characterId="9" ffdec:characterName="140_fla.Symbole24_41" height="56.0" id="back" transform="matrix(1.0, 0.0, 0.0, 1.0, 0.0, 0.0)" width="56.0" xlink:href="#sprite40"/>
    </g>
    <g id="sprite40" transform="matrix(1.0, 0.0, 0.0, 1.0, 0.0, 0.0)">
      <use ffdec:characterId="8" ffdec:characterName="140_fla.Symbole21_42" height="56.0" id="back" transform="matrix(1.0, 0.0, 0.0, 1.0, 0.0, 0.0)" width="56.0" xlink:href="#sprite41"/>
    </g>
    <g id="sprite41" transform="matrix(1.0, 0.0, 0.0, 1.0, 0.0, 0.0)">
      <use ffdec:characterId="7" ffdec:characterName="140_fla.Symbole18_43" height="56.0" id="back" transform="matrix(1.0, 0.0, 0.0, 1.0, 0.0, 0.0)" width="56.0" xlink:href="#sprite42"/>
    </g>
    <g id="sprite42" transform="matrix(1.0, 0.0, 0.0, 1.0, 0.0, 0.0)">
      <use ffdec:characterId="6" ffdec:characterName="140_fla.Symbole15_44" height="56.0" id="back" transform="matrix(1.0, 0.0, 0.0, 1.0, 0.0, 0.0)" width="56.0" xlink:href="#sprite43"/>
    </g>
    <g id="sprite43" transform="matrix(1.0, 0.0, 0.0, 1.0, 0.0, 0.0)">
      <use ffdec:characterId="5" ffdec:characterName="140_fla.Symbole12_45" height="56.0" id="back" transform="matrix(1.0, 0.0, 0.0, 1.0, 0.0, 0.0)" width="56.0" xlink:href="#sprite44"/>
    </g>
    <g id="sprite44" transform="matrix(1.0, 0.0, 0.0, 1.0, 0.0, 0.0)">
      <use ffdec:characterId="4" ffdec:characterName="140_fla.Symbole9_46" height="56.0" id="back" transform="matrix(1.0, 0.0, 0.0, 1.0, 0.0, 0.0)" width="56.0" xlink:href="#sprite45"/>
    </g>
    <g id="sprite45" transform="matrix(1.0, 0.0, 0.0, 1.0, 0.0, 0.0)">
      <use ffdec:characterId="3" ffdec:characterName="140_fla.Symbole6_47" height="56.0" id="back" transform="matrix(1.0, 0.0, 0.0, 1.0, 0.0, 0.0)" width="56.0" xlink:href="#sprite46"/>
    </g>
    <g id="sprite46" transform="matrix(1.0, 0.0, 0.0, 1.0, 0.0, 0.0)">
      <use ffdec:characterId="2" height="56.0" id="back" transform="matrix(1.0, 0.0, 0.0, 1.0, 0.0, 0.0)" width="56.0" xlink:href="#sprite47"/>
    </g>
    <g id="sprite47" transform="matrix(1.0, 0.0, 0.0, 1.0, 0.0, 0.0)">
      <use ffdec:characterId="1" height="56.0" transform="matrix(1.0, 0.0, 0.0, 1.0, 0.0, 0.0)" width="56.0" xlink:href="#shape0"/>
    </g>
    <g id="shape0" transform="matrix(1.0, 0.0, 0.0, 1.0, 0.0, 0.0)">
      <path d="M56.0 56.0 L0.0 56.0 0.0 0.0 56.0 0.0 56.0 56.0" fill="#010101" fill-opacity="0.0" fill-rule="evenodd" stroke="none"/>
    </g>
    <g id="sprite48" transform="matrix(1.0, 0.0, 0.0, 1.0, 0.75, 0.75)">
      <use ffdec:characterId="50" height="49.25" transform="matrix(1.0, 0.0, 0.0, 1.0, -0.75, -0.75)" width="55.4" xlink:href="#shape1"/>
    </g>
    <g id="shape1" transform="matrix(1.0, 0.0, 0.0, 1.0, 0.75, 0.75)">
      <path d="M40.45 13.8 Q40.95 15.5 40.95 17.45 40.95 20.85 39.65 23.65 L40.05 23.9 40.85 24.6 40.95 24.4 41.05 24.5 Q44.2 25.2 46.85 26.4 L46.85 26.45 47.7 26.7 49.75 27.85 49.75 27.95 Q51.85 29.15 53.05 30.45 L53.35 30.8 53.4 30.8 53.9 31.55 53.9 34.15 52.8 32.5 Q51.5 31.05 49.4 29.85 48.4 29.15 47.2 28.65 46.8 28.4 46.3 28.3 44.05 27.35 41.45 26.65 L40.85 28.0 Q40.25 29.0 39.0 29.25 37.8 29.45 36.8 28.9 L36.0 28.15 Q33.35 30.35 30.1 31.05 L30.2 32.2 Q30.05 33.45 28.95 34.05 27.95 34.9 26.85 34.75 25.65 34.55 24.75 33.55 24.1 32.45 24.25 31.3 L24.35 31.05 21.1 30.0 20.8 29.85 Q19.5 29.25 18.35 28.3 L17.5 29.05 Q16.55 29.6 15.35 29.4 14.1 29.15 13.5 28.15 12.9 27.45 13.0 26.55 10.05 27.2 7.55 28.3 7.15 28.4 6.65 28.65 5.55 29.15 4.55 29.85 2.45 31.0 1.25 32.35 L0.0 33.9 0.1 31.05 0.65 30.45 0.75 30.25 0.8 30.25 Q2.0 29.05 4.0 27.95 L4.0 27.85 Q4.85 27.25 6.0 26.7 L6.1 26.7 6.85 26.45 6.95 26.4 Q9.9 25.1 13.5 24.35 L13.55 24.35 13.6 24.25 13.8 24.5 14.3 24.0 14.75 23.8 14.55 23.3 14.45 23.1 Q13.35 20.7 13.35 17.7 L13.35 17.45 Q13.35 15.5 13.85 13.75 L13.85 13.65 14.45 12.2 14.9 11.05 14.3 10.7 Q13.25 10.0 13.0 8.85 12.75 7.55 13.5 6.6 14.1 5.6 15.35 5.35 16.55 5.1 17.5 5.7 18.2 6.1 18.5 6.65 21.2 4.6 24.4 4.0 L24.15 3.4 Q24.0 2.3 24.65 1.25 25.55 0.2 26.75 0.0 27.9 -0.15 28.9 0.65 29.95 1.3 30.1 2.55 30.2 3.35 29.95 4.05 33.15 4.65 35.85 6.85 36.2 6.25 36.7 5.95 37.75 5.35 38.95 5.6 40.15 5.85 40.8 6.85 41.55 7.8 41.3 9.1 41.05 10.2 40.0 10.95 L39.5 11.2 40.15 12.7 40.45 13.8 M46.05 15.7 Q53.35 18.75 53.9 23.1 L53.9 23.65 53.9 29.25 Q52.7 27.85 50.55 26.65 L50.6 26.65 Q49.5 25.9 48.3 25.4 L48.4 25.4 47.35 25.0 Q44.6 23.9 41.55 23.1 42.5 20.55 42.5 17.45 42.5 15.75 42.05 14.25 L43.2 14.6 Q44.15 14.85 45.0 15.25 L46.05 15.7 M48.2 31.75 L48.55 32.0 Q51.15 33.45 52.35 35.2 L52.3 35.45 Q51.15 38.7 45.45 41.15 39.3 43.8 31.05 44.3 L26.95 44.4 26.65 44.4 25.0 44.4 23.35 44.3 Q14.75 43.8 8.45 41.15 2.6 38.7 1.65 35.55 L1.55 35.3 Q2.6 33.45 5.3 32.0 5.55 31.8 5.7 31.75 L7.9 32.7 Q15.75 36.1 26.95 36.1 L29.35 36.1 31.05 36.05 32.75 35.85 37.15 35.3 Q42.0 34.4 46.05 32.7 L48.2 31.75 M45.7 44.5 Q37.95 47.75 26.95 47.75 15.9 47.75 8.2 44.5 1.5 41.7 0.75 37.8 L0.75 37.65 0.65 37.5 0.65 37.1 Q2.3 40.1 7.9 42.5 15.75 45.95 26.95 45.95 L29.75 45.85 Q39.15 45.45 46.05 42.5 51.5 40.15 53.2 37.1 52.85 41.45 45.7 44.5 M37.45 7.95 Q38.2 8.15 38.5 8.65 L38.75 9.95 38.75 10.1 37.05 7.95 37.45 7.95 M27.1 5.6 Q31.85 5.6 35.3 9.0 L35.35 9.1 35.4 9.4 35.5 9.25 Q37.3 11.15 38.1 13.2 L38.45 14.15 Q38.85 15.7 38.85 17.35 38.85 21.25 36.7 24.1 L35.65 25.3 35.6 25.45 35.5 25.4 35.5 25.45 35.3 25.65 Q31.85 29.05 27.1 29.05 L24.15 28.65 23.55 28.45 Q20.95 27.7 18.9 25.8 L18.8 25.55 18.7 25.65 17.4 24.1 Q16.45 22.6 15.9 20.95 L15.85 21.05 Q15.35 19.3 15.35 17.45 L15.35 17.35 Q15.35 15.7 15.85 14.05 16.65 11.4 18.7 9.0 L18.8 9.15 18.9 8.85 Q21.9 6.1 25.9 5.7 L27.1 5.6 M28.55 3.8 L28.05 3.35 Q27.5 2.85 26.85 2.95 26.2 3.2 25.8 3.65 L25.7 3.8 27.1 3.75 28.55 3.8 M24.65 14.0 Q23.7 14.85 22.55 15.1 21.5 15.35 20.85 14.75 20.25 14.05 20.5 13.05 20.8 11.95 21.65 10.95 22.6 10.0 23.7 9.85 24.85 9.6 25.4 10.2 25.95 10.8 25.8 11.95 25.65 12.95 24.65 14.0 M22.45 17.55 Q22.4 18.2 21.8 18.75 L20.6 19.5 19.65 19.25 Q19.25 18.8 19.4 18.2 19.55 17.55 20.0 17.05 20.7 16.5 21.25 16.4 L22.35 16.55 22.45 17.55 M36.45 13.4 Q37.2 15.25 37.2 17.45 37.2 21.65 34.2 24.65 L34.05 24.85 Q31.15 27.7 27.0 27.7 22.85 27.7 19.95 24.85 L19.8 24.65 Q16.8 21.65 16.8 17.45 16.8 15.25 17.6 13.4 18.35 11.65 19.8 10.2 22.8 7.35 27.0 7.35 31.25 7.35 34.2 10.2 35.65 11.65 36.45 13.4 M16.8 7.7 Q16.05 7.85 15.75 8.4 15.4 9.1 15.5 9.65 L15.6 9.85 Q16.2 8.8 17.15 7.95 L17.3 7.7 16.8 7.7 M12.2 17.7 L12.25 19.15 Q12.4 21.2 13.1 22.95 9.5 23.7 6.4 25.0 L5.45 25.4 Q4.15 25.9 3.2 26.65 1.4 27.7 0.1 28.9 L0.25 22.1 Q1.5 18.35 7.9 15.7 10.05 14.75 12.5 14.05 12.2 15.7 12.2 17.45 L12.2 17.7 M15.75 26.4 Q16.05 26.85 16.8 27.0 L17.05 27.0 16.0 25.8 15.75 25.45 15.5 25.2 Q15.4 25.65 15.75 26.4 M37.3 26.85 L37.55 26.85 Q38.25 26.7 38.6 26.2 L38.85 25.0 38.45 25.55 38.2 25.9 37.3 26.85 M28.4 31.3 L28.15 31.4 Q27.6 31.9 26.95 31.8 26.4 31.65 26.15 31.3 L27.1 31.3 28.4 31.3 Z" fill="none" stroke="#000000" stroke-linecap="round" stroke-linejoin="round" stroke-opacity="0.2" stroke-width="1.5"/>
    </g>
    <g id="sprite49" transform="matrix(1.0, 0.0, 0.0, 1.0, 0.0, 0.0)">
      <use ffdec:characterId="52" height="47.75" transform="matrix(1.0, 0.0, 0.0, 1.0, 0.0, 0.0)" width="53.9" xlink:href="#shape2"/>
    </g>
    <g id="shape2" transform="matrix(1.0, 0.0, 0.0, 1.0, 0.0, 0.0)">
      <path d="M40.45 13.8 Q40.9 15.5 40.9 17.45 40.9 20.85 39.6 23.6 L40.05 23.85 40.85 24.6 40.9 24.4 41.0 24.5 Q44.15 25.15 46.85 26.35 L46.85 26.45 47.65 26.7 49.75 27.8 49.75 27.9 Q51.8 29.1 53.0 30.4 L53.3 30.8 53.4 30.8 53.9 31.55 53.9 34.15 Q53.5 33.25 52.75 32.5 51.45 31.05 49.35 29.85 48.4 29.1 47.15 28.65 L46.25 28.3 Q44.0 27.35 41.4 26.6 L40.85 28.0 Q40.2 28.95 38.95 29.2 37.75 29.45 36.8 28.9 L36.0 28.15 Q33.3 30.35 30.05 31.05 L30.15 32.2 Q30.0 33.4 28.9 34.05 27.95 34.9 26.8 34.7 25.6 34.55 24.7 33.5 24.05 32.45 24.2 31.3 L24.3 31.05 Q22.6 30.75 21.05 30.0 L20.75 29.85 18.3 28.3 17.5 29.05 15.3 29.35 Q14.1 29.1 13.45 28.15 12.85 27.4 12.95 26.5 10.05 27.15 7.55 28.3 7.1 28.4 6.65 28.65 5.5 29.1 4.55 29.85 2.4 31.0 1.2 32.35 0.45 33.1 0.0 33.9 L0.05 31.05 0.65 30.4 0.7 30.25 0.8 30.25 Q2.0 29.05 3.95 27.9 L3.95 27.8 6.0 26.7 6.05 26.7 6.8 26.45 6.9 26.35 Q9.9 25.05 13.45 24.35 L13.5 24.35 13.6 24.25 13.75 24.5 14.25 24.0 14.75 23.75 14.5 23.3 14.4 23.1 Q13.3 20.7 13.3 17.7 L13.3 17.45 Q13.3 15.5 13.85 13.7 L13.85 13.65 14.4 12.15 14.9 11.05 14.25 10.7 Q13.2 10.0 12.95 8.85 12.7 7.55 13.45 6.6 14.1 5.6 15.3 5.35 16.5 5.1 17.5 5.7 L18.45 6.65 Q21.15 4.55 24.4 4.0 L24.15 3.4 Q24.0 2.3 24.65 1.2 25.5 0.15 26.75 0.0 27.85 -0.15 28.85 0.65 29.9 1.3 30.05 2.5 30.15 3.35 29.9 4.05 33.15 4.65 35.8 6.8 L36.7 5.95 Q37.7 5.35 38.9 5.6 40.1 5.85 40.75 6.8 41.5 7.8 41.25 9.1 41.0 10.2 39.95 10.95 L39.45 11.2 40.1 12.65 40.45 13.8 M46.05 15.65 Q53.3 18.75 53.9 23.1 L53.9 23.6 53.9 29.2 Q52.65 27.8 50.5 26.6 L50.55 26.6 Q49.5 25.9 48.3 25.4 L48.4 25.4 47.3 25.0 Q44.55 23.85 41.5 23.1 42.45 20.5 42.45 17.45 42.45 15.75 42.05 14.2 L43.2 14.6 44.95 15.25 46.05 15.65 M48.2 31.7 L48.55 31.95 Q51.15 33.4 52.35 35.2 L52.25 35.45 Q51.15 38.7 45.4 41.1 39.3 43.8 31.05 44.3 L26.9 44.35 26.65 44.35 24.95 44.35 23.35 44.3 Q14.75 43.8 8.4 41.1 2.6 38.7 1.6 35.5 L1.55 35.3 Q2.6 33.4 5.25 31.95 L5.65 31.7 7.85 32.7 Q15.7 36.1 26.9 36.1 L29.35 36.1 31.05 36.0 32.75 35.85 37.1 35.3 Q41.95 34.4 46.05 32.7 L48.2 31.7 M45.7 44.45 Q37.9 47.75 26.9 47.75 15.85 47.75 8.15 44.45 1.45 41.7 0.7 37.8 L0.7 37.65 0.65 37.45 0.65 37.05 Q2.25 40.05 7.85 42.5 15.7 45.9 26.9 45.9 L29.75 45.8 Q39.15 45.4 46.05 42.5 51.45 40.15 53.15 37.05 52.85 41.45 45.7 44.45 M27.05 5.6 L25.85 5.7 Q21.85 6.1 18.85 8.85 L18.8 9.15 18.7 9.0 Q16.6 11.35 15.8 14.05 15.3 15.65 15.3 17.35 L15.3 17.45 Q15.3 19.3 15.8 21.0 L15.85 20.95 Q16.45 22.65 17.4 24.1 L18.7 25.65 18.8 25.55 18.85 25.8 Q20.9 27.65 23.5 28.45 L24.15 28.65 27.05 29.05 Q31.85 29.05 35.25 25.65 L35.5 25.45 35.5 25.4 35.55 25.45 35.65 25.3 36.7 24.1 Q38.8 21.25 38.8 17.35 38.8 15.65 38.4 14.1 L38.1 13.25 Q37.25 11.1 35.5 9.25 L35.4 9.4 35.35 9.1 35.25 9.0 Q31.85 5.6 27.05 5.6 M37.45 7.95 L37.05 7.95 38.75 10.05 38.75 9.9 38.5 8.6 Q38.15 8.1 37.45 7.95 M27.05 3.75 L28.5 3.8 28.05 3.35 Q27.45 2.85 26.8 2.95 26.15 3.15 25.75 3.65 L25.7 3.8 27.05 3.75 M22.45 17.5 L22.3 16.55 Q21.85 16.15 21.2 16.4 20.65 16.45 20.0 17.05 19.5 17.5 19.35 18.15 19.2 18.8 19.6 19.25 L20.6 19.45 Q21.2 19.3 21.8 18.75 L22.45 17.5 M24.65 13.95 Q25.6 13.0 25.75 11.95 25.9 10.8 25.35 10.2 24.8 9.6 23.65 9.8 22.6 10.0 21.65 10.95 20.75 11.95 20.5 13.05 20.25 14.05 20.8 14.75 21.45 15.35 22.5 15.1 L24.65 13.95 M37.2 17.45 Q37.2 21.65 34.2 24.65 L34.05 24.8 Q31.1 27.65 27.0 27.65 22.85 27.65 19.95 24.8 L19.75 24.65 Q16.75 21.65 16.75 17.45 16.75 15.25 17.6 13.4 18.3 11.7 19.75 10.2 22.75 7.3 27.0 7.3 31.2 7.3 34.2 10.2 35.65 11.7 36.4 13.4 37.2 15.25 37.2 17.45 M16.75 7.7 Q16.05 7.85 15.7 8.35 15.4 9.1 15.45 9.65 L15.55 9.8 17.1 7.95 17.25 7.7 16.75 7.7 M12.15 17.7 L12.25 19.15 Q12.4 21.15 13.05 22.95 9.45 23.7 6.4 25.0 L5.4 25.4 Q4.1 25.9 3.15 26.6 1.35 27.65 0.05 28.9 L0.25 22.05 Q1.45 18.35 7.85 15.65 10.05 14.75 12.45 14.05 12.15 15.65 12.15 17.45 L12.15 17.7 M15.7 26.35 Q16.05 26.85 16.75 27.0 L17.0 27.0 15.95 25.8 15.7 25.45 15.45 25.15 Q15.4 25.65 15.7 26.35 M38.55 26.2 L38.8 25.0 38.4 25.55 38.15 25.9 37.25 26.85 37.5 26.85 Q38.25 26.7 38.55 26.2 M28.35 31.3 L27.05 31.3 26.1 31.3 26.9 31.8 Q27.55 31.9 28.1 31.4 L28.35 31.3" fill="#000000" fill-rule="evenodd" stroke="none"/>
    </g>
  </defs>
</svg>
