<?xml version="1.0" encoding="UTF-8" standalone="no"?>
<svg xmlns:ffdec="https://www.free-decompiler.com/flash" xmlns:xlink="http://www.w3.org/1999/xlink" ffdec:objectType="frame" height="56.0px" width="56.0px" xmlns="http://www.w3.org/2000/svg">
  <g transform="matrix(1.0, 0.0, 0.0, 1.0, 0.0, 0.0)">
    <use ffdec:characterId="50" ffdec:characterName="141_fla.Symbole147_1" height="56.0" id="back" transform="matrix(1.0, 0.0, 0.0, 1.0, 0.0, 0.0)" width="56.0" xlink:href="#sprite0"/>
    <use ffdec:characterId="52" height="51.55" id="back" transform="matrix(1.0, 0.0, 0.0, 1.0, 0.4, 2.2)" width="55.4" xlink:href="#sprite49"/>
    <use ffdec:characterId="54" height="50.1" id="up" transform="matrix(1.0, 0.0, 0.0, 1.0, 1.15, 2.9)" width="53.9" xlink:href="#sprite50"/>
  </g>
  <defs>
    <g id="sprite0" transform="matrix(1.0, 0.0, 0.0, 1.0, 0.0, 0.0)">
      <use ffdec:characterId="49" ffdec:characterName="141_fla.Symbole144_2" height="56.0" id="back" transform="matrix(1.0, 0.0, 0.0, 1.0, 0.0, 0.0)" width="56.0" xlink:href="#sprite1"/>
    </g>
    <g id="sprite1" transform="matrix(1.0, 0.0, 0.0, 1.0, 0.0, 0.0)">
      <use ffdec:characterId="48" ffdec:characterName="141_fla.Symbole141_3" height="56.0" id="back" transform="matrix(1.0, 0.0, 0.0, 1.0, 0.0, 0.0)" width="56.0" xlink:href="#sprite2"/>
    </g>
    <g id="sprite2" transform="matrix(1.0, 0.0, 0.0, 1.0, 0.0, 0.0)">
      <use ffdec:characterId="47" ffdec:characterName="141_fla.Symbole138_4" height="56.0" id="back" transform="matrix(1.0, 0.0, 0.0, 1.0, 0.0, 0.0)" width="56.0" xlink:href="#sprite3"/>
    </g>
    <g id="sprite3" transform="matrix(1.0, 0.0, 0.0, 1.0, 0.0, 0.0)">
      <use ffdec:characterId="46" ffdec:characterName="141_fla.Symbole135_5" height="56.0" id="back" transform="matrix(1.0, 0.0, 0.0, 1.0, 0.0, 0.0)" width="56.0" xlink:href="#sprite4"/>
    </g>
    <g id="sprite4" transform="matrix(1.0, 0.0, 0.0, 1.0, 0.0, 0.0)">
      <use ffdec:characterId="45" ffdec:characterName="141_fla.Symbole132_6" height="56.0" id="back" transform="matrix(1.0, 0.0, 0.0, 1.0, 0.0, 0.0)" width="56.0" xlink:href="#sprite5"/>
    </g>
    <g id="sprite5" transform="matrix(1.0, 0.0, 0.0, 1.0, 0.0, 0.0)">
      <use ffdec:characterId="44" ffdec:characterName="141_fla.Symbole129_7" height="56.0" id="back" transform="matrix(1.0, 0.0, 0.0, 1.0, 0.0, 0.0)" width="56.0" xlink:href="#sprite6"/>
    </g>
    <g id="sprite6" transform="matrix(1.0, 0.0, 0.0, 1.0, 0.0, 0.0)">
      <use ffdec:characterId="43" ffdec:characterName="141_fla.Symbole126_8" height="56.0" id="back" transform="matrix(1.0, 0.0, 0.0, 1.0, 0.0, 0.0)" width="56.0" xlink:href="#sprite7"/>
    </g>
    <g id="sprite7" transform="matrix(1.0, 0.0, 0.0, 1.0, 0.0, 0.0)">
      <use ffdec:characterId="42" ffdec:characterName="141_fla.Symbole123_9" height="56.0" id="back" transform="matrix(1.0, 0.0, 0.0, 1.0, 0.0, 0.0)" width="56.0" xlink:href="#sprite8"/>
    </g>
    <g id="sprite8" transform="matrix(1.0, 0.0, 0.0, 1.0, 0.0, 0.0)">
      <use ffdec:characterId="41" ffdec:characterName="141_fla.Symbole120_10" height="56.0" id="back" transform="matrix(1.0, 0.0, 0.0, 1.0, 0.0, 0.0)" width="56.0" xlink:href="#sprite9"/>
    </g>
    <g id="sprite9" transform="matrix(1.0, 0.0, 0.0, 1.0, 0.0, 0.0)">
      <use ffdec:characterId="40" ffdec:characterName="141_fla.Symbole117_11" height="56.0" id="back" transform="matrix(1.0, 0.0, 0.0, 1.0, 0.0, 0.0)" width="56.0" xlink:href="#sprite10"/>
    </g>
    <g id="sprite10" transform="matrix(1.0, 0.0, 0.0, 1.0, 0.0, 0.0)">
      <use ffdec:characterId="39" ffdec:characterName="141_fla.Symbole114_12" height="56.0" id="back" transform="matrix(1.0, 0.0, 0.0, 1.0, 0.0, 0.0)" width="56.0" xlink:href="#sprite11"/>
    </g>
    <g id="sprite11" transform="matrix(1.0, 0.0, 0.0, 1.0, 0.0, 0.0)">
      <use ffdec:characterId="38" ffdec:characterName="141_fla.Symbole111_13" height="56.0" id="back" transform="matrix(1.0, 0.0, 0.0, 1.0, 0.0, 0.0)" width="56.0" xlink:href="#sprite12"/>
    </g>
    <g id="sprite12" transform="matrix(1.0, 0.0, 0.0, 1.0, 0.0, 0.0)">
      <use ffdec:characterId="37" ffdec:characterName="141_fla.Symbole108_14" height="56.0" id="back" transform="matrix(1.0, 0.0, 0.0, 1.0, 0.0, 0.0)" width="56.0" xlink:href="#sprite13"/>
    </g>
    <g id="sprite13" transform="matrix(1.0, 0.0, 0.0, 1.0, 0.0, 0.0)">
      <use ffdec:characterId="36" ffdec:characterName="141_fla.Symbole105_15" height="56.0" id="back" transform="matrix(1.0, 0.0, 0.0, 1.0, 0.0, 0.0)" width="56.0" xlink:href="#sprite14"/>
    </g>
    <g id="sprite14" transform="matrix(1.0, 0.0, 0.0, 1.0, 0.0, 0.0)">
      <use ffdec:characterId="35" ffdec:characterName="141_fla.Symbole102_16" height="56.0" id="back" transform="matrix(1.0, 0.0, 0.0, 1.0, 0.0, 0.0)" width="56.0" xlink:href="#sprite15"/>
    </g>
    <g id="sprite15" transform="matrix(1.0, 0.0, 0.0, 1.0, 0.0, 0.0)">
      <use ffdec:characterId="34" ffdec:characterName="141_fla.Symbole99_17" height="56.0" id="back" transform="matrix(1.0, 0.0, 0.0, 1.0, 0.0, 0.0)" width="56.0" xlink:href="#sprite16"/>
    </g>
    <g id="sprite16" transform="matrix(1.0, 0.0, 0.0, 1.0, 0.0, 0.0)">
      <use ffdec:characterId="33" ffdec:characterName="141_fla.Symbole96_18" height="56.0" id="back" transform="matrix(1.0, 0.0, 0.0, 1.0, 0.0, 0.0)" width="56.0" xlink:href="#sprite17"/>
    </g>
    <g id="sprite17" transform="matrix(1.0, 0.0, 0.0, 1.0, 0.0, 0.0)">
      <use ffdec:characterId="32" ffdec:characterName="141_fla.Symbole93_19" height="56.0" id="back" transform="matrix(1.0, 0.0, 0.0, 1.0, 0.0, 0.0)" width="56.0" xlink:href="#sprite18"/>
    </g>
    <g id="sprite18" transform="matrix(1.0, 0.0, 0.0, 1.0, 0.0, 0.0)">
      <use ffdec:characterId="31" ffdec:characterName="141_fla.Symbole90_20" height="56.0" id="back" transform="matrix(1.0, 0.0, 0.0, 1.0, 0.0, 0.0)" width="56.0" xlink:href="#sprite19"/>
    </g>
    <g id="sprite19" transform="matrix(1.0, 0.0, 0.0, 1.0, 0.0, 0.0)">
      <use ffdec:characterId="30" ffdec:characterName="141_fla.Symbole87_21" height="56.0" id="back" transform="matrix(1.0, 0.0, 0.0, 1.0, 0.0, 0.0)" width="56.0" xlink:href="#sprite20"/>
    </g>
    <g id="sprite20" transform="matrix(1.0, 0.0, 0.0, 1.0, 0.0, 0.0)">
      <use ffdec:characterId="29" ffdec:characterName="141_fla.Symbole84_22" height="56.0" id="back" transform="matrix(1.0, 0.0, 0.0, 1.0, 0.0, 0.0)" width="56.0" xlink:href="#sprite21"/>
    </g>
    <g id="sprite21" transform="matrix(1.0, 0.0, 0.0, 1.0, 0.0, 0.0)">
      <use ffdec:characterId="28" ffdec:characterName="141_fla.Symbole81_23" height="56.0" id="back" transform="matrix(1.0, 0.0, 0.0, 1.0, 0.0, 0.0)" width="56.0" xlink:href="#sprite22"/>
    </g>
    <g id="sprite22" transform="matrix(1.0, 0.0, 0.0, 1.0, 0.0, 0.0)">
      <use ffdec:characterId="27" ffdec:characterName="141_fla.Symbole78_24" height="56.0" id="back" transform="matrix(1.0, 0.0, 0.0, 1.0, 0.0, 0.0)" width="56.0" xlink:href="#sprite23"/>
    </g>
    <g id="sprite23" transform="matrix(1.0, 0.0, 0.0, 1.0, 0.0, 0.0)">
      <use ffdec:characterId="26" ffdec:characterName="141_fla.Symbole75_25" height="56.0" id="back" transform="matrix(1.0, 0.0, 0.0, 1.0, 0.0, 0.0)" width="56.0" xlink:href="#sprite24"/>
    </g>
    <g id="sprite24" transform="matrix(1.0, 0.0, 0.0, 1.0, 0.0, 0.0)">
      <use ffdec:characterId="25" ffdec:characterName="141_fla.Symbole72_26" height="56.0" id="back" transform="matrix(1.0, 0.0, 0.0, 1.0, 0.0, 0.0)" width="56.0" xlink:href="#sprite25"/>
    </g>
    <g id="sprite25" transform="matrix(1.0, 0.0, 0.0, 1.0, 0.0, 0.0)">
      <use ffdec:characterId="24" ffdec:characterName="141_fla.Symbole69_27" height="56.0" id="back" transform="matrix(1.0, 0.0, 0.0, 1.0, 0.0, 0.0)" width="56.0" xlink:href="#sprite26"/>
    </g>
    <g id="sprite26" transform="matrix(1.0, 0.0, 0.0, 1.0, 0.0, 0.0)">
      <use ffdec:characterId="23" ffdec:characterName="141_fla.Symbole66_28" height="56.0" id="back" transform="matrix(1.0, 0.0, 0.0, 1.0, 0.0, 0.0)" width="56.0" xlink:href="#sprite27"/>
    </g>
    <g id="sprite27" transform="matrix(1.0, 0.0, 0.0, 1.0, 0.0, 0.0)">
      <use ffdec:characterId="22" ffdec:characterName="141_fla.Symbole63_29" height="56.0" id="back" transform="matrix(1.0, 0.0, 0.0, 1.0, 0.0, 0.0)" width="56.0" xlink:href="#sprite28"/>
    </g>
    <g id="sprite28" transform="matrix(1.0, 0.0, 0.0, 1.0, 0.0, 0.0)">
      <use ffdec:characterId="21" ffdec:characterName="141_fla.Symbole60_30" height="56.0" id="back" transform="matrix(1.0, 0.0, 0.0, 1.0, 0.0, 0.0)" width="56.0" xlink:href="#sprite29"/>
    </g>
    <g id="sprite29" transform="matrix(1.0, 0.0, 0.0, 1.0, 0.0, 0.0)">
      <use ffdec:characterId="20" ffdec:characterName="141_fla.Symbole57_31" height="56.0" id="back" transform="matrix(1.0, 0.0, 0.0, 1.0, 0.0, 0.0)" width="56.0" xlink:href="#sprite30"/>
    </g>
    <g id="sprite30" transform="matrix(1.0, 0.0, 0.0, 1.0, 0.0, 0.0)">
      <use ffdec:characterId="19" ffdec:characterName="141_fla.Symbole54_32" height="56.0" id="back" transform="matrix(1.0, 0.0, 0.0, 1.0, 0.0, 0.0)" width="56.0" xlink:href="#sprite31"/>
    </g>
    <g id="sprite31" transform="matrix(1.0, 0.0, 0.0, 1.0, 0.0, 0.0)">
      <use ffdec:characterId="18" ffdec:characterName="141_fla.Symbole51_33" height="56.0" id="back" transform="matrix(1.0, 0.0, 0.0, 1.0, 0.0, 0.0)" width="56.0" xlink:href="#sprite32"/>
    </g>
    <g id="sprite32" transform="matrix(1.0, 0.0, 0.0, 1.0, 0.0, 0.0)">
      <use ffdec:characterId="17" ffdec:characterName="141_fla.Symbole48_34" height="56.0" id="back" transform="matrix(1.0, 0.0, 0.0, 1.0, 0.0, 0.0)" width="56.0" xlink:href="#sprite33"/>
    </g>
    <g id="sprite33" transform="matrix(1.0, 0.0, 0.0, 1.0, 0.0, 0.0)">
      <use ffdec:characterId="16" ffdec:characterName="141_fla.Symbole45_35" height="56.0" id="back" transform="matrix(1.0, 0.0, 0.0, 1.0, 0.0, 0.0)" width="56.0" xlink:href="#sprite34"/>
    </g>
    <g id="sprite34" transform="matrix(1.0, 0.0, 0.0, 1.0, 0.0, 0.0)">
      <use ffdec:characterId="15" ffdec:characterName="141_fla.Symbole42_36" height="56.0" id="back" transform="matrix(1.0, 0.0, 0.0, 1.0, 0.0, 0.0)" width="56.0" xlink:href="#sprite35"/>
    </g>
    <g id="sprite35" transform="matrix(1.0, 0.0, 0.0, 1.0, 0.0, 0.0)">
      <use ffdec:characterId="14" ffdec:characterName="141_fla.Symbole39_37" height="56.0" id="back" transform="matrix(1.0, 0.0, 0.0, 1.0, 0.0, 0.0)" width="56.0" xlink:href="#sprite36"/>
    </g>
    <g id="sprite36" transform="matrix(1.0, 0.0, 0.0, 1.0, 0.0, 0.0)">
      <use ffdec:characterId="13" ffdec:characterName="141_fla.Symbole36_38" height="56.0" id="back" transform="matrix(1.0, 0.0, 0.0, 1.0, 0.0, 0.0)" width="56.0" xlink:href="#sprite37"/>
    </g>
    <g id="sprite37" transform="matrix(1.0, 0.0, 0.0, 1.0, 0.0, 0.0)">
      <use ffdec:characterId="12" ffdec:characterName="141_fla.Symbole33_39" height="56.0" id="back" transform="matrix(1.0, 0.0, 0.0, 1.0, 0.0, 0.0)" width="56.0" xlink:href="#sprite38"/>
    </g>
    <g id="sprite38" transform="matrix(1.0, 0.0, 0.0, 1.0, 0.0, 0.0)">
      <use ffdec:characterId="11" ffdec:characterName="141_fla.Symbole30_40" height="56.0" id="back" transform="matrix(1.0, 0.0, 0.0, 1.0, 0.0, 0.0)" width="56.0" xlink:href="#sprite39"/>
    </g>
    <g id="sprite39" transform="matrix(1.0, 0.0, 0.0, 1.0, 0.0, 0.0)">
      <use ffdec:characterId="10" ffdec:characterName="141_fla.Symbole27_41" height="56.0" id="back" transform="matrix(1.0, 0.0, 0.0, 1.0, 0.0, 0.0)" width="56.0" xlink:href="#sprite40"/>
    </g>
    <g id="sprite40" transform="matrix(1.0, 0.0, 0.0, 1.0, 0.0, 0.0)">
      <use ffdec:characterId="9" ffdec:characterName="141_fla.Symbole24_42" height="56.0" id="back" transform="matrix(1.0, 0.0, 0.0, 1.0, 0.0, 0.0)" width="56.0" xlink:href="#sprite41"/>
    </g>
    <g id="sprite41" transform="matrix(1.0, 0.0, 0.0, 1.0, 0.0, 0.0)">
      <use ffdec:characterId="8" ffdec:characterName="141_fla.Symbole21_43" height="56.0" id="back" transform="matrix(1.0, 0.0, 0.0, 1.0, 0.0, 0.0)" width="56.0" xlink:href="#sprite42"/>
    </g>
    <g id="sprite42" transform="matrix(1.0, 0.0, 0.0, 1.0, 0.0, 0.0)">
      <use ffdec:characterId="7" ffdec:characterName="141_fla.Symbole18_44" height="56.0" id="back" transform="matrix(1.0, 0.0, 0.0, 1.0, 0.0, 0.0)" width="56.0" xlink:href="#sprite43"/>
    </g>
    <g id="sprite43" transform="matrix(1.0, 0.0, 0.0, 1.0, 0.0, 0.0)">
      <use ffdec:characterId="6" ffdec:characterName="141_fla.Symbole15_45" height="56.0" id="back" transform="matrix(1.0, 0.0, 0.0, 1.0, 0.0, 0.0)" width="56.0" xlink:href="#sprite44"/>
    </g>
    <g id="sprite44" transform="matrix(1.0, 0.0, 0.0, 1.0, 0.0, 0.0)">
      <use ffdec:characterId="5" ffdec:characterName="141_fla.Symbole12_46" height="56.0" id="back" transform="matrix(1.0, 0.0, 0.0, 1.0, 0.0, 0.0)" width="56.0" xlink:href="#sprite45"/>
    </g>
    <g id="sprite45" transform="matrix(1.0, 0.0, 0.0, 1.0, 0.0, 0.0)">
      <use ffdec:characterId="4" ffdec:characterName="141_fla.Symbole9_47" height="56.0" id="back" transform="matrix(1.0, 0.0, 0.0, 1.0, 0.0, 0.0)" width="56.0" xlink:href="#sprite46"/>
    </g>
    <g id="sprite46" transform="matrix(1.0, 0.0, 0.0, 1.0, 0.0, 0.0)">
      <use ffdec:characterId="3" ffdec:characterName="141_fla.Symbole6_48" height="56.0" id="back" transform="matrix(1.0, 0.0, 0.0, 1.0, 0.0, 0.0)" width="56.0" xlink:href="#sprite47"/>
    </g>
    <g id="sprite47" transform="matrix(1.0, 0.0, 0.0, 1.0, 0.0, 0.0)">
      <use ffdec:characterId="2" height="56.0" id="back" transform="matrix(1.0, 0.0, 0.0, 1.0, 0.0, 0.0)" width="56.0" xlink:href="#sprite48"/>
    </g>
    <g id="sprite48" transform="matrix(1.0, 0.0, 0.0, 1.0, 0.0, 0.0)">
      <use ffdec:characterId="1" height="56.0" transform="matrix(1.0, 0.0, 0.0, 1.0, 0.0, 0.0)" width="56.0" xlink:href="#shape0"/>
    </g>
    <g id="shape0" transform="matrix(1.0, 0.0, 0.0, 1.0, 0.0, 0.0)">
      <path d="M56.0 56.0 L0.0 56.0 0.0 0.0 56.0 0.0 56.0 56.0" fill="#010101" fill-opacity="0.0" fill-rule="evenodd" stroke="none"/>
    </g>
    <g id="sprite49" transform="matrix(1.0, 0.0, 0.0, 1.0, 0.75, 0.75)">
      <use ffdec:characterId="51" height="51.55" transform="matrix(1.0, 0.0, 0.0, 1.0, -0.75, -0.75)" width="55.4" xlink:href="#shape1"/>
    </g>
    <g id="shape1" transform="matrix(1.0, 0.0, 0.0, 1.0, 0.75, 0.75)">
      <path d="M52.5 3.65 Q51.65 2.9 50.45 2.9 50.45 1.65 49.5 0.75 48.7 -0.1 47.45 0.0 46.2 0.0 45.35 0.8 44.55 1.65 44.55 2.9 44.5 4.05 45.3 4.9 L45.8 5.4 39.8 11.5 39.8 11.55 41.7 14.05 48.05 7.75 48.3 7.9 Q49.2 8.75 50.45 8.75 51.65 8.75 52.5 7.9 53.35 7.05 53.35 5.8 53.35 4.5 52.5 3.65 M41.95 19.55 Q41.55 15.35 38.85 12.4 36.1 9.3 31.7 8.2 L27.35 7.75 25.7 7.75 22.0 8.2 Q17.7 9.3 14.95 12.4 12.1 15.5 11.85 20.05 L11.85 22.2 13.4 29.65 13.1 36.45 13.0 36.8 13.0 36.95 14.35 38.45 13.1 40.7 Q12.7 41.25 12.95 42.1 13.0 42.95 13.7 43.35 L14.65 43.95 16.2 44.1 17.45 43.1 18.6 41.55 20.2 42.1 20.75 42.35 20.45 43.95 Q20.2 44.7 20.75 45.45 21.2 46.2 22.0 46.35 L23.1 46.5 24.5 46.25 25.45 45.0 25.8 43.1 27.35 43.1 28.05 43.1 28.5 45.0 Q28.75 45.8 29.35 46.25 L30.8 46.5 31.95 46.35 Q32.8 46.2 33.2 45.45 33.6 44.7 33.45 43.95 L33.05 42.35 33.55 42.1 35.3 41.35 36.45 43.1 37.8 44.1 39.25 43.95 40.3 43.35 41.15 42.1 Q41.2 41.25 40.8 40.7 L39.45 38.35 40.65 36.95 40.8 36.8 40.65 36.45 40.35 29.65 41.9 22.2 41.95 20.05 41.95 19.55 M41.45 39.7 L46.4 44.6 Q46.05 44.7 45.8 45.0 45.05 45.85 45.15 47.1 45.15 48.35 45.9 49.2 46.8 50.05 47.95 50.05 49.3 50.05 50.05 49.2 50.9 48.35 50.9 47.05 52.15 47.05 53.05 46.25 53.9 45.45 53.9 44.2 53.9 42.9 53.05 42.05 52.15 41.25 51.0 41.25 49.75 41.2 48.9 42.05 L48.55 42.25 42.55 36.15 42.55 37.35 42.3 37.45 41.15 38.95 41.45 39.7 M8.7 0.8 Q9.5 1.65 9.4 2.9 9.6 4.05 8.7 4.9 L8.25 5.4 14.25 11.55 Q13.15 12.75 12.45 14.15 L5.95 7.75 5.65 7.9 Q4.75 8.75 3.5 8.75 2.35 8.75 1.5 7.9 0.65 7.05 0.55 5.8 0.55 4.5 1.4 3.65 2.35 2.9 3.6 2.9 3.6 1.65 4.5 0.75 5.25 -0.1 6.5 0.0 7.75 0.0 8.7 0.8 M16.45 28.2 Q15.7 29.15 15.35 30.5 14.8 32.05 15.85 35.3 19.05 37.4 22.7 36.95 L24.2 35.3 24.2 33.2 16.7 28.2 16.45 28.2 M5.4 42.25 L11.6 36.0 11.6 37.35 11.75 37.45 13.0 38.95 13.0 39.2 7.6 44.6 8.25 45.0 Q9.0 45.85 8.85 47.1 8.95 48.35 8.15 49.2 7.2 50.05 5.95 50.05 4.75 50.05 3.9 49.2 3.05 48.35 3.05 47.05 1.8 47.05 0.85 46.25 0.0 45.45 0.0 44.2 0.1 42.9 0.9 42.05 1.8 41.25 3.0 41.25 4.25 41.2 5.1 42.05 L5.4 42.25 M29.45 33.25 L36.95 28.2 37.15 28.2 38.55 30.5 Q38.95 32.05 37.9 35.3 34.7 37.4 31.05 36.95 L29.6 35.3 29.45 33.7 29.45 33.25 M27.35 37.4 Q29.45 38.8 30.2 40.35 30.0 41.8 28.05 40.6 27.35 39.85 27.35 37.4 M23.75 40.35 Q23.75 41.8 25.8 40.6 26.55 39.85 26.45 37.4 24.35 38.8 23.75 40.35 Z" fill="none" stroke="#000000" stroke-linecap="round" stroke-linejoin="round" stroke-opacity="0.2" stroke-width="1.5"/>
    </g>
    <g id="sprite50" transform="matrix(1.0, 0.0, 0.0, 1.0, 0.0, 0.0)">
      <use ffdec:characterId="53" height="50.1" transform="matrix(1.0, 0.0, 0.0, 1.0, 0.0, 0.0)" width="53.9" xlink:href="#shape2"/>
    </g>
    <g id="shape2" transform="matrix(1.0, 0.0, 0.0, 1.0, 0.0, 0.0)">
      <path d="M41.45 39.7 L41.15 39.0 42.3 37.5 42.55 37.35 42.55 36.2 48.6 42.3 48.9 42.05 Q49.75 41.2 51.0 41.3 52.2 41.3 53.05 42.05 53.9 42.95 53.9 44.2 53.9 45.45 53.05 46.3 52.2 47.1 50.95 47.1 50.95 48.35 50.05 49.2 49.3 50.1 47.95 50.1 46.8 50.1 45.9 49.2 45.15 48.35 45.15 47.15 45.05 45.9 45.85 45.05 46.05 44.75 46.4 44.65 L41.45 39.7 M42.0 19.55 L42.0 20.1 41.9 22.2 40.35 29.65 40.65 36.5 40.85 36.8 40.65 36.95 39.5 38.4 40.85 40.75 Q41.2 41.3 41.15 42.15 L40.3 43.4 39.25 43.95 37.75 44.1 Q36.9 43.8 36.45 43.15 L35.35 41.35 33.55 42.15 33.05 42.4 33.45 43.95 Q33.6 44.75 33.25 45.45 32.85 46.25 31.95 46.4 L30.8 46.55 29.4 46.3 Q28.75 45.85 28.55 45.05 L28.05 43.15 27.35 43.15 25.8 43.15 25.45 45.05 24.55 46.3 23.1 46.55 22.0 46.4 Q21.25 46.25 20.75 45.45 20.2 44.75 20.45 43.95 L20.75 42.4 20.2 42.15 18.6 41.6 17.5 43.15 Q17.0 43.8 16.2 44.1 L14.65 43.95 13.7 43.4 Q13.0 43.0 12.95 42.15 12.7 41.3 13.1 40.75 L14.35 38.45 13.0 36.95 13.0 36.8 13.1 36.5 13.4 29.65 11.85 22.2 11.85 20.1 Q12.05 15.55 14.95 12.4 17.7 9.35 22.0 8.25 L25.7 7.75 27.35 7.75 31.75 8.25 Q36.1 9.35 38.85 12.4 41.55 15.4 42.0 19.55 M52.5 3.7 Q53.35 4.55 53.35 5.8 53.35 7.05 52.5 7.95 51.65 8.8 50.45 8.8 49.2 8.8 48.35 7.95 L48.05 7.75 41.7 14.15 Q40.9 12.7 39.8 11.6 L39.8 11.55 45.85 5.4 45.3 4.95 Q44.5 4.1 44.6 2.9 44.6 1.65 45.35 0.85 46.25 0.0 47.5 0.0 48.75 -0.1 49.5 0.8 50.45 1.65 50.45 2.9 51.65 2.9 52.5 3.7 M8.7 0.85 Q9.5 1.65 9.4 2.9 9.55 4.1 8.7 4.95 L8.25 5.4 14.25 11.6 Q13.15 12.8 12.45 14.2 L5.95 7.75 5.65 7.95 Q4.8 8.8 3.55 8.8 2.35 8.8 1.5 7.95 0.65 7.05 0.55 5.8 0.55 4.55 1.4 3.7 2.35 2.9 3.6 2.9 3.6 1.65 4.45 0.8 5.25 -0.1 6.5 0.0 7.75 0.0 8.7 0.85 M16.45 28.25 Q15.7 29.2 15.35 30.55 14.8 32.1 15.85 35.3 19.05 37.45 22.75 36.95 L24.2 35.3 24.2 33.2 16.7 28.25 16.45 28.25 M5.4 42.3 L11.6 36.05 11.6 37.35 11.75 37.5 13.0 39.0 13.0 39.25 7.6 44.65 8.25 45.05 Q9.0 45.9 8.85 47.15 8.95 48.35 8.15 49.2 7.2 50.1 5.95 50.1 4.8 50.1 3.9 49.2 3.05 48.35 3.05 47.1 1.8 47.1 0.85 46.3 0.0 45.45 0.0 44.2 0.1 42.95 0.95 42.05 1.8 41.3 3.0 41.3 4.25 41.2 5.1 42.05 L5.4 42.3 M29.45 33.3 L29.45 33.75 29.6 35.3 31.05 36.95 Q34.7 37.45 37.95 35.3 38.95 32.1 38.55 30.55 L37.15 28.25 37.0 28.25 29.45 33.3 M23.75 40.4 Q23.75 41.85 25.8 40.65 26.55 39.85 26.5 37.45 24.35 38.85 23.75 40.4 M27.35 37.45 Q27.35 39.85 28.05 40.65 30.0 41.85 30.15 40.4 29.45 38.85 27.35 37.45" fill="#000000" fill-rule="evenodd" stroke="none"/>
    </g>
  </defs>
</svg>
