<?xml version="1.0" encoding="UTF-8" standalone="no"?>
<svg xmlns:ffdec="https://www.free-decompiler.com/flash" xmlns:xlink="http://www.w3.org/1999/xlink" ffdec:objectType="frame" height="56.0px" width="56.0px" xmlns="http://www.w3.org/2000/svg">
  <g transform="matrix(1.0, 0.0, 0.0, 1.0, 0.0, 0.0)">
    <use ffdec:characterId="52" ffdec:characterName="143_fla.Symbole153_1" height="56.0" id="back" transform="matrix(1.0, 0.0, 0.0, 1.0, 0.0, 0.0)" width="56.0" xlink:href="#sprite0"/>
    <use ffdec:characterId="54" height="55.55" id="back" transform="matrix(1.0, 0.0, 0.0, 1.0, 10.05, 0.45)" width="32.8" xlink:href="#sprite51"/>
    <use ffdec:characterId="56" height="54.05" id="up" transform="matrix(1.0, 0.0, 0.0, 1.0, 10.8, 1.2)" width="31.3" xlink:href="#sprite52"/>
  </g>
  <defs>
    <g id="sprite0" transform="matrix(1.0, 0.0, 0.0, 1.0, 0.0, 0.0)">
      <use ffdec:characterId="51" ffdec:characterName="143_fla.Symbole150_2" height="56.0" id="back" transform="matrix(1.0, 0.0, 0.0, 1.0, 0.0, 0.0)" width="56.0" xlink:href="#sprite1"/>
    </g>
    <g id="sprite1" transform="matrix(1.0, 0.0, 0.0, 1.0, 0.0, 0.0)">
      <use ffdec:characterId="50" ffdec:characterName="143_fla.Symbole147_3" height="56.0" id="back" transform="matrix(1.0, 0.0, 0.0, 1.0, 0.0, 0.0)" width="56.0" xlink:href="#sprite2"/>
    </g>
    <g id="sprite2" transform="matrix(1.0, 0.0, 0.0, 1.0, 0.0, 0.0)">
      <use ffdec:characterId="49" ffdec:characterName="143_fla.Symbole144_4" height="56.0" id="back" transform="matrix(1.0, 0.0, 0.0, 1.0, 0.0, 0.0)" width="56.0" xlink:href="#sprite3"/>
    </g>
    <g id="sprite3" transform="matrix(1.0, 0.0, 0.0, 1.0, 0.0, 0.0)">
      <use ffdec:characterId="48" ffdec:characterName="143_fla.Symbole141_5" height="56.0" id="back" transform="matrix(1.0, 0.0, 0.0, 1.0, 0.0, 0.0)" width="56.0" xlink:href="#sprite4"/>
    </g>
    <g id="sprite4" transform="matrix(1.0, 0.0, 0.0, 1.0, 0.0, 0.0)">
      <use ffdec:characterId="47" ffdec:characterName="143_fla.Symbole138_6" height="56.0" id="back" transform="matrix(1.0, 0.0, 0.0, 1.0, 0.0, 0.0)" width="56.0" xlink:href="#sprite5"/>
    </g>
    <g id="sprite5" transform="matrix(1.0, 0.0, 0.0, 1.0, 0.0, 0.0)">
      <use ffdec:characterId="46" ffdec:characterName="143_fla.Symbole135_7" height="56.0" id="back" transform="matrix(1.0, 0.0, 0.0, 1.0, 0.0, 0.0)" width="56.0" xlink:href="#sprite6"/>
    </g>
    <g id="sprite6" transform="matrix(1.0, 0.0, 0.0, 1.0, 0.0, 0.0)">
      <use ffdec:characterId="45" ffdec:characterName="143_fla.Symbole132_8" height="56.0" id="back" transform="matrix(1.0, 0.0, 0.0, 1.0, 0.0, 0.0)" width="56.0" xlink:href="#sprite7"/>
    </g>
    <g id="sprite7" transform="matrix(1.0, 0.0, 0.0, 1.0, 0.0, 0.0)">
      <use ffdec:characterId="44" ffdec:characterName="143_fla.Symbole129_9" height="56.0" id="back" transform="matrix(1.0, 0.0, 0.0, 1.0, 0.0, 0.0)" width="56.0" xlink:href="#sprite8"/>
    </g>
    <g id="sprite8" transform="matrix(1.0, 0.0, 0.0, 1.0, 0.0, 0.0)">
      <use ffdec:characterId="43" ffdec:characterName="143_fla.Symbole126_10" height="56.0" id="back" transform="matrix(1.0, 0.0, 0.0, 1.0, 0.0, 0.0)" width="56.0" xlink:href="#sprite9"/>
    </g>
    <g id="sprite9" transform="matrix(1.0, 0.0, 0.0, 1.0, 0.0, 0.0)">
      <use ffdec:characterId="42" ffdec:characterName="143_fla.Symbole123_11" height="56.0" id="back" transform="matrix(1.0, 0.0, 0.0, 1.0, 0.0, 0.0)" width="56.0" xlink:href="#sprite10"/>
    </g>
    <g id="sprite10" transform="matrix(1.0, 0.0, 0.0, 1.0, 0.0, 0.0)">
      <use ffdec:characterId="41" ffdec:characterName="143_fla.Symbole120_12" height="56.0" id="back" transform="matrix(1.0, 0.0, 0.0, 1.0, 0.0, 0.0)" width="56.0" xlink:href="#sprite11"/>
    </g>
    <g id="sprite11" transform="matrix(1.0, 0.0, 0.0, 1.0, 0.0, 0.0)">
      <use ffdec:characterId="40" ffdec:characterName="143_fla.Symbole117_13" height="56.0" id="back" transform="matrix(1.0, 0.0, 0.0, 1.0, 0.0, 0.0)" width="56.0" xlink:href="#sprite12"/>
    </g>
    <g id="sprite12" transform="matrix(1.0, 0.0, 0.0, 1.0, 0.0, 0.0)">
      <use ffdec:characterId="39" ffdec:characterName="143_fla.Symbole114_14" height="56.0" id="back" transform="matrix(1.0, 0.0, 0.0, 1.0, 0.0, 0.0)" width="56.0" xlink:href="#sprite13"/>
    </g>
    <g id="sprite13" transform="matrix(1.0, 0.0, 0.0, 1.0, 0.0, 0.0)">
      <use ffdec:characterId="38" ffdec:characterName="143_fla.Symbole111_15" height="56.0" id="back" transform="matrix(1.0, 0.0, 0.0, 1.0, 0.0, 0.0)" width="56.0" xlink:href="#sprite14"/>
    </g>
    <g id="sprite14" transform="matrix(1.0, 0.0, 0.0, 1.0, 0.0, 0.0)">
      <use ffdec:characterId="37" ffdec:characterName="143_fla.Symbole108_16" height="56.0" id="back" transform="matrix(1.0, 0.0, 0.0, 1.0, 0.0, 0.0)" width="56.0" xlink:href="#sprite15"/>
    </g>
    <g id="sprite15" transform="matrix(1.0, 0.0, 0.0, 1.0, 0.0, 0.0)">
      <use ffdec:characterId="36" ffdec:characterName="143_fla.Symbole105_17" height="56.0" id="back" transform="matrix(1.0, 0.0, 0.0, 1.0, 0.0, 0.0)" width="56.0" xlink:href="#sprite16"/>
    </g>
    <g id="sprite16" transform="matrix(1.0, 0.0, 0.0, 1.0, 0.0, 0.0)">
      <use ffdec:characterId="35" ffdec:characterName="143_fla.Symbole102_18" height="56.0" id="back" transform="matrix(1.0, 0.0, 0.0, 1.0, 0.0, 0.0)" width="56.0" xlink:href="#sprite17"/>
    </g>
    <g id="sprite17" transform="matrix(1.0, 0.0, 0.0, 1.0, 0.0, 0.0)">
      <use ffdec:characterId="34" ffdec:characterName="143_fla.Symbole99_19" height="56.0" id="back" transform="matrix(1.0, 0.0, 0.0, 1.0, 0.0, 0.0)" width="56.0" xlink:href="#sprite18"/>
    </g>
    <g id="sprite18" transform="matrix(1.0, 0.0, 0.0, 1.0, 0.0, 0.0)">
      <use ffdec:characterId="33" ffdec:characterName="143_fla.Symbole96_20" height="56.0" id="back" transform="matrix(1.0, 0.0, 0.0, 1.0, 0.0, 0.0)" width="56.0" xlink:href="#sprite19"/>
    </g>
    <g id="sprite19" transform="matrix(1.0, 0.0, 0.0, 1.0, 0.0, 0.0)">
      <use ffdec:characterId="32" ffdec:characterName="143_fla.Symbole93_21" height="56.0" id="back" transform="matrix(1.0, 0.0, 0.0, 1.0, 0.0, 0.0)" width="56.0" xlink:href="#sprite20"/>
    </g>
    <g id="sprite20" transform="matrix(1.0, 0.0, 0.0, 1.0, 0.0, 0.0)">
      <use ffdec:characterId="31" ffdec:characterName="143_fla.Symbole90_22" height="56.0" id="back" transform="matrix(1.0, 0.0, 0.0, 1.0, 0.0, 0.0)" width="56.0" xlink:href="#sprite21"/>
    </g>
    <g id="sprite21" transform="matrix(1.0, 0.0, 0.0, 1.0, 0.0, 0.0)">
      <use ffdec:characterId="30" ffdec:characterName="143_fla.Symbole87_23" height="56.0" id="back" transform="matrix(1.0, 0.0, 0.0, 1.0, 0.0, 0.0)" width="56.0" xlink:href="#sprite22"/>
    </g>
    <g id="sprite22" transform="matrix(1.0, 0.0, 0.0, 1.0, 0.0, 0.0)">
      <use ffdec:characterId="29" ffdec:characterName="143_fla.Symbole84_24" height="56.0" id="back" transform="matrix(1.0, 0.0, 0.0, 1.0, 0.0, 0.0)" width="56.0" xlink:href="#sprite23"/>
    </g>
    <g id="sprite23" transform="matrix(1.0, 0.0, 0.0, 1.0, 0.0, 0.0)">
      <use ffdec:characterId="28" ffdec:characterName="143_fla.Symbole81_25" height="56.0" id="back" transform="matrix(1.0, 0.0, 0.0, 1.0, 0.0, 0.0)" width="56.0" xlink:href="#sprite24"/>
    </g>
    <g id="sprite24" transform="matrix(1.0, 0.0, 0.0, 1.0, 0.0, 0.0)">
      <use ffdec:characterId="27" ffdec:characterName="143_fla.Symbole78_26" height="56.0" id="back" transform="matrix(1.0, 0.0, 0.0, 1.0, 0.0, 0.0)" width="56.0" xlink:href="#sprite25"/>
    </g>
    <g id="sprite25" transform="matrix(1.0, 0.0, 0.0, 1.0, 0.0, 0.0)">
      <use ffdec:characterId="26" ffdec:characterName="143_fla.Symbole75_27" height="56.0" id="back" transform="matrix(1.0, 0.0, 0.0, 1.0, 0.0, 0.0)" width="56.0" xlink:href="#sprite26"/>
    </g>
    <g id="sprite26" transform="matrix(1.0, 0.0, 0.0, 1.0, 0.0, 0.0)">
      <use ffdec:characterId="25" ffdec:characterName="143_fla.Symbole72_28" height="56.0" id="back" transform="matrix(1.0, 0.0, 0.0, 1.0, 0.0, 0.0)" width="56.0" xlink:href="#sprite27"/>
    </g>
    <g id="sprite27" transform="matrix(1.0, 0.0, 0.0, 1.0, 0.0, 0.0)">
      <use ffdec:characterId="24" ffdec:characterName="143_fla.Symbole69_29" height="56.0" id="back" transform="matrix(1.0, 0.0, 0.0, 1.0, 0.0, 0.0)" width="56.0" xlink:href="#sprite28"/>
    </g>
    <g id="sprite28" transform="matrix(1.0, 0.0, 0.0, 1.0, 0.0, 0.0)">
      <use ffdec:characterId="23" ffdec:characterName="143_fla.Symbole66_30" height="56.0" id="back" transform="matrix(1.0, 0.0, 0.0, 1.0, 0.0, 0.0)" width="56.0" xlink:href="#sprite29"/>
    </g>
    <g id="sprite29" transform="matrix(1.0, 0.0, 0.0, 1.0, 0.0, 0.0)">
      <use ffdec:characterId="22" ffdec:characterName="143_fla.Symbole63_31" height="56.0" id="back" transform="matrix(1.0, 0.0, 0.0, 1.0, 0.0, 0.0)" width="56.0" xlink:href="#sprite30"/>
    </g>
    <g id="sprite30" transform="matrix(1.0, 0.0, 0.0, 1.0, 0.0, 0.0)">
      <use ffdec:characterId="21" ffdec:characterName="143_fla.Symbole60_32" height="56.0" id="back" transform="matrix(1.0, 0.0, 0.0, 1.0, 0.0, 0.0)" width="56.0" xlink:href="#sprite31"/>
    </g>
    <g id="sprite31" transform="matrix(1.0, 0.0, 0.0, 1.0, 0.0, 0.0)">
      <use ffdec:characterId="20" ffdec:characterName="143_fla.Symbole57_33" height="56.0" id="back" transform="matrix(1.0, 0.0, 0.0, 1.0, 0.0, 0.0)" width="56.0" xlink:href="#sprite32"/>
    </g>
    <g id="sprite32" transform="matrix(1.0, 0.0, 0.0, 1.0, 0.0, 0.0)">
      <use ffdec:characterId="19" ffdec:characterName="143_fla.Symbole54_34" height="56.0" id="back" transform="matrix(1.0, 0.0, 0.0, 1.0, 0.0, 0.0)" width="56.0" xlink:href="#sprite33"/>
    </g>
    <g id="sprite33" transform="matrix(1.0, 0.0, 0.0, 1.0, 0.0, 0.0)">
      <use ffdec:characterId="18" ffdec:characterName="143_fla.Symbole51_35" height="56.0" id="back" transform="matrix(1.0, 0.0, 0.0, 1.0, 0.0, 0.0)" width="56.0" xlink:href="#sprite34"/>
    </g>
    <g id="sprite34" transform="matrix(1.0, 0.0, 0.0, 1.0, 0.0, 0.0)">
      <use ffdec:characterId="17" ffdec:characterName="143_fla.Symbole48_36" height="56.0" id="back" transform="matrix(1.0, 0.0, 0.0, 1.0, 0.0, 0.0)" width="56.0" xlink:href="#sprite35"/>
    </g>
    <g id="sprite35" transform="matrix(1.0, 0.0, 0.0, 1.0, 0.0, 0.0)">
      <use ffdec:characterId="16" ffdec:characterName="143_fla.Symbole45_37" height="56.0" id="back" transform="matrix(1.0, 0.0, 0.0, 1.0, 0.0, 0.0)" width="56.0" xlink:href="#sprite36"/>
    </g>
    <g id="sprite36" transform="matrix(1.0, 0.0, 0.0, 1.0, 0.0, 0.0)">
      <use ffdec:characterId="15" ffdec:characterName="143_fla.Symbole42_38" height="56.0" id="back" transform="matrix(1.0, 0.0, 0.0, 1.0, 0.0, 0.0)" width="56.0" xlink:href="#sprite37"/>
    </g>
    <g id="sprite37" transform="matrix(1.0, 0.0, 0.0, 1.0, 0.0, 0.0)">
      <use ffdec:characterId="14" ffdec:characterName="143_fla.Symbole39_39" height="56.0" id="back" transform="matrix(1.0, 0.0, 0.0, 1.0, 0.0, 0.0)" width="56.0" xlink:href="#sprite38"/>
    </g>
    <g id="sprite38" transform="matrix(1.0, 0.0, 0.0, 1.0, 0.0, 0.0)">
      <use ffdec:characterId="13" ffdec:characterName="143_fla.Symbole36_40" height="56.0" id="back" transform="matrix(1.0, 0.0, 0.0, 1.0, 0.0, 0.0)" width="56.0" xlink:href="#sprite39"/>
    </g>
    <g id="sprite39" transform="matrix(1.0, 0.0, 0.0, 1.0, 0.0, 0.0)">
      <use ffdec:characterId="12" ffdec:characterName="143_fla.Symbole33_41" height="56.0" id="back" transform="matrix(1.0, 0.0, 0.0, 1.0, 0.0, 0.0)" width="56.0" xlink:href="#sprite40"/>
    </g>
    <g id="sprite40" transform="matrix(1.0, 0.0, 0.0, 1.0, 0.0, 0.0)">
      <use ffdec:characterId="11" ffdec:characterName="143_fla.Symbole30_42" height="56.0" id="back" transform="matrix(1.0, 0.0, 0.0, 1.0, 0.0, 0.0)" width="56.0" xlink:href="#sprite41"/>
    </g>
    <g id="sprite41" transform="matrix(1.0, 0.0, 0.0, 1.0, 0.0, 0.0)">
      <use ffdec:characterId="10" ffdec:characterName="143_fla.Symbole27_43" height="56.0" id="back" transform="matrix(1.0, 0.0, 0.0, 1.0, 0.0, 0.0)" width="56.0" xlink:href="#sprite42"/>
    </g>
    <g id="sprite42" transform="matrix(1.0, 0.0, 0.0, 1.0, 0.0, 0.0)">
      <use ffdec:characterId="9" ffdec:characterName="143_fla.Symbole24_44" height="56.0" id="back" transform="matrix(1.0, 0.0, 0.0, 1.0, 0.0, 0.0)" width="56.0" xlink:href="#sprite43"/>
    </g>
    <g id="sprite43" transform="matrix(1.0, 0.0, 0.0, 1.0, 0.0, 0.0)">
      <use ffdec:characterId="8" ffdec:characterName="143_fla.Symbole21_45" height="56.0" id="back" transform="matrix(1.0, 0.0, 0.0, 1.0, 0.0, 0.0)" width="56.0" xlink:href="#sprite44"/>
    </g>
    <g id="sprite44" transform="matrix(1.0, 0.0, 0.0, 1.0, 0.0, 0.0)">
      <use ffdec:characterId="7" ffdec:characterName="143_fla.Symbole18_46" height="56.0" id="back" transform="matrix(1.0, 0.0, 0.0, 1.0, 0.0, 0.0)" width="56.0" xlink:href="#sprite45"/>
    </g>
    <g id="sprite45" transform="matrix(1.0, 0.0, 0.0, 1.0, 0.0, 0.0)">
      <use ffdec:characterId="6" ffdec:characterName="143_fla.Symbole15_47" height="56.0" id="back" transform="matrix(1.0, 0.0, 0.0, 1.0, 0.0, 0.0)" width="56.0" xlink:href="#sprite46"/>
    </g>
    <g id="sprite46" transform="matrix(1.0, 0.0, 0.0, 1.0, 0.0, 0.0)">
      <use ffdec:characterId="5" ffdec:characterName="143_fla.Symbole12_48" height="56.0" id="back" transform="matrix(1.0, 0.0, 0.0, 1.0, 0.0, 0.0)" width="56.0" xlink:href="#sprite47"/>
    </g>
    <g id="sprite47" transform="matrix(1.0, 0.0, 0.0, 1.0, 0.0, 0.0)">
      <use ffdec:characterId="4" ffdec:characterName="143_fla.Symbole9_49" height="56.0" id="back" transform="matrix(1.0, 0.0, 0.0, 1.0, 0.0, 0.0)" width="56.0" xlink:href="#sprite48"/>
    </g>
    <g id="sprite48" transform="matrix(1.0, 0.0, 0.0, 1.0, 0.0, 0.0)">
      <use ffdec:characterId="3" ffdec:characterName="143_fla.Symbole6_50" height="56.0" id="back" transform="matrix(1.0, 0.0, 0.0, 1.0, 0.0, 0.0)" width="56.0" xlink:href="#sprite49"/>
    </g>
    <g id="sprite49" transform="matrix(1.0, 0.0, 0.0, 1.0, 0.0, 0.0)">
      <use ffdec:characterId="2" height="56.0" id="back" transform="matrix(1.0, 0.0, 0.0, 1.0, 0.0, 0.0)" width="56.0" xlink:href="#sprite50"/>
    </g>
    <g id="sprite50" transform="matrix(1.0, 0.0, 0.0, 1.0, 0.0, 0.0)">
      <use ffdec:characterId="1" height="56.0" transform="matrix(1.0, 0.0, 0.0, 1.0, 0.0, 0.0)" width="56.0" xlink:href="#shape0"/>
    </g>
    <g id="shape0" transform="matrix(1.0, 0.0, 0.0, 1.0, 0.0, 0.0)">
      <path d="M56.0 56.0 L0.0 56.0 0.0 0.0 56.0 0.0 56.0 56.0" fill="#010101" fill-opacity="0.0" fill-rule="evenodd" stroke="none"/>
    </g>
    <g id="sprite51" transform="matrix(1.0, 0.0, 0.0, 1.0, 0.75, 0.75)">
      <use ffdec:characterId="53" height="55.55" transform="matrix(1.0, 0.0, 0.0, 1.0, -0.75, -0.75)" width="32.8" xlink:href="#shape1"/>
    </g>
    <g id="shape1" transform="matrix(1.0, 0.0, 0.0, 1.0, 0.75, 0.75)">
      <path d="M29.85 23.65 Q27.35 23.95 26.45 27.55 24.7 33.9 16.95 32.7 9.15 33.95 7.55 27.6 6.6 23.9 4.1 23.6 L2.65 23.75 3.25 23.3 Q3.7 22.9 4.3 22.7 6.5 21.95 8.9 23.45 6.8 21.7 6.5 18.0 6.45 14.55 9.1 13.1 L9.15 13.15 Q8.55 13.9 8.6 14.75 8.75 15.8 9.45 16.55 10.25 17.25 11.25 17.25 12.35 17.25 13.0 16.65 L13.15 16.4 13.4 16.1 13.55 15.05 13.3 14.2 Q12.7 12.8 11.25 11.35 10.15 9.85 10.15 7.9 10.15 6.1 11.75 4.3 11.25 5.6 11.25 6.2 11.25 8.45 13.55 8.45 15.15 8.45 16.2 6.95 L16.9 5.7 Q17.5 2.6 15.2 0.9 14.1 0.3 13.0 0.0 L14.6 0.1 15.35 0.25 15.7 0.3 17.25 1.0 18.5 2.05 18.85 2.35 19.3 3.05 Q21.65 5.75 21.65 9.7 L21.35 12.4 Q20.9 14.35 20.0 15.3 23.5 15.8 24.0 12.5 25.6 15.0 24.15 16.4 22.65 17.85 23.0 18.7 23.35 19.65 23.8 19.9 L24.85 20.05 26.05 19.75 Q26.75 19.45 26.75 18.75 26.75 17.55 25.6 17.5 27.8 17.55 27.8 19.9 27.8 20.8 26.35 22.1 L25.15 23.35 Q27.35 21.95 29.65 22.7 L30.65 23.3 31.3 23.75 29.85 23.65 M23.85 4.15 Q24.3 4.3 24.6 4.8 24.85 5.25 24.7 5.7 L24.15 6.45 23.2 6.5 22.5 6.05 22.35 5.4 22.2 5.75 Q21.95 6.6 22.4 7.4 22.85 8.2 23.7 8.45 L25.45 8.25 Q26.2 7.75 26.45 6.9 26.75 6.05 26.2 5.25 25.75 4.45 24.85 4.15 24.4 4.0 23.7 4.15 L23.85 4.15 M27.65 10.0 Q27.15 10.3 27.0 10.8 26.9 11.5 27.15 11.95 27.5 12.55 28.1 12.65 L29.15 12.55 29.65 11.95 29.55 12.05 29.0 12.1 28.55 11.75 28.4 11.2 28.8 10.65 29.45 10.55 29.8 10.75 29.65 10.55 Q29.4 10.05 28.8 9.85 L27.65 10.0 M17.7 20.05 L17.95 20.35 18.4 21.1 18.65 21.65 18.85 22.25 19.05 22.65 19.3 24.05 19.4 24.3 Q19.85 23.65 20.55 23.15 21.5 22.45 22.8 21.85 20.6 23.35 21.65 27.1 21.8 29.2 20.45 30.25 L19.75 30.55 17.05 30.3 16.9 30.3 16.75 30.25 14.05 30.45 Q10.2 29.35 12.9 25.2 L13.3 24.5 13.55 24.05 Q14.05 22.4 13.15 20.15 14.25 21.1 15.05 23.35 L15.2 23.3 15.7 22.65 15.9 22.4 16.35 20.65 Q16.55 19.2 15.9 18.5 L15.45 18.0 15.9 18.3 16.35 18.55 16.9 19.05 17.05 19.2 17.5 19.8 17.7 20.05 M4.6 3.2 Q3.7 3.2 2.95 3.7 2.4 4.45 2.4 5.4 2.4 6.2 2.95 6.9 3.7 7.55 4.6 7.55 L5.65 7.25 5.5 7.25 4.65 6.9 4.4 6.05 Q4.4 5.55 4.65 5.15 5.05 4.85 5.5 4.85 6.1 4.85 6.45 5.15 L6.75 5.75 6.75 5.4 Q6.75 4.45 6.1 3.7 5.5 3.2 4.6 3.2 M1.8 16.85 L2.55 17.5 Q2.95 18.0 2.7 18.55 L2.1 19.45 1.05 19.6 Q0.45 19.45 0.15 18.9 L0.0 18.7 0.35 18.9 0.95 18.75 1.35 18.35 1.3 17.8 Q1.2 17.5 0.8 17.35 L0.2 17.4 0.65 17.0 1.8 16.85 M4.15 32.3 L4.25 32.4 3.85 31.85 Q3.7 31.25 4.0 30.7 4.25 30.2 4.9 30.05 L5.9 30.2 Q6.45 30.45 6.5 31.0 6.75 31.6 6.45 32.15 L5.6 32.8 5.4 32.85 5.6 32.6 5.65 32.0 5.3 31.55 4.75 31.4 Q4.45 31.45 4.25 31.75 L4.15 32.3 M24.15 34.65 Q23.8 34.2 23.1 34.2 L11.55 34.2 Q10.95 34.2 10.35 34.65 L10.2 34.95 10.05 35.2 10.05 35.4 10.0 35.55 10.0 35.75 24.55 35.75 24.55 35.55 24.55 35.4 24.45 35.2 24.4 34.95 24.15 34.65 M15.55 42.05 Q16.1 42.35 16.2 42.55 L14.75 42.55 14.4 42.35 14.25 42.35 14.1 41.9 14.05 41.75 14.25 41.15 14.55 41.0 14.6 41.0 Q14.75 41.6 15.55 42.05 M15.15 40.9 L15.9 41.75 16.75 42.5 17.95 42.55 17.2 42.0 Q16.4 41.5 16.25 40.9 L15.15 40.9 M19.0 41.9 L19.6 42.5 19.6 42.55 19.45 42.55 18.4 42.55 18.4 42.45 17.55 41.65 16.8 40.9 18.05 40.9 Q18.2 41.45 19.0 41.9 M19.25 41.6 L20.15 42.3 20.3 41.9 20.3 41.75 20.05 41.15 19.9 41.05 19.45 40.9 18.55 40.9 19.25 41.6 M10.0 36.35 L10.35 37.3 Q10.9 37.7 11.5 37.7 L23.1 37.7 Q23.7 37.7 24.15 37.3 24.55 36.9 24.55 36.35 L24.55 36.05 10.0 36.05 10.0 36.35 M14.05 46.6 Q14.05 46.2 14.3 46.05 L14.6 45.8 Q14.75 46.35 15.6 46.9 L16.25 47.4 14.75 47.4 14.4 47.25 14.3 47.2 14.1 46.75 14.05 46.6 M14.6 44.55 Q14.6 45.0 14.9 45.35 L19.6 45.35 19.75 45.35 20.05 44.55 20.05 43.85 19.85 43.15 14.85 43.15 Q14.6 43.4 14.6 43.8 L14.6 44.55 M14.75 47.7 L14.55 48.4 14.55 49.0 Q14.55 49.55 15.0 49.95 L15.05 49.85 15.15 49.75 Q16.05 48.95 17.4 48.95 18.7 48.95 19.6 49.75 L19.7 49.75 19.75 49.85 20.05 49.0 20.05 48.4 19.85 47.65 19.6 47.7 15.05 47.7 14.9 47.7 14.75 47.65 14.75 47.7 M15.15 45.75 L16.25 45.75 Q16.4 46.3 17.25 46.8 L17.95 47.4 16.75 47.4 15.9 46.5 15.15 45.75 M18.65 45.75 L19.25 46.35 20.15 47.1 20.35 46.75 20.35 46.6 20.35 46.5 20.05 46.05 19.9 45.9 19.55 45.75 18.65 45.75 M19.0 46.8 L19.6 47.4 18.4 47.4 18.4 47.35 17.55 46.45 16.8 45.75 18.05 45.75 Q18.2 46.3 19.0 46.8 M14.75 40.5 L19.6 40.5 Q20.45 39.1 21.9 38.1 L12.55 38.1 Q14.05 39.1 14.75 40.5 M19.7 51.9 Q19.7 52.75 19.0 53.4 18.25 54.05 17.25 54.05 16.2 54.05 15.45 53.4 14.85 52.85 14.75 52.05 L14.75 51.9 Q14.75 50.95 15.4 50.35 L15.45 50.2 Q16.2 49.7 17.25 49.7 18.25 49.7 19.0 50.2 L19.05 50.3 19.6 51.2 19.7 51.9 Z" fill="none" stroke="#000000" stroke-linecap="round" stroke-linejoin="round" stroke-opacity="0.2" stroke-width="1.5"/>
    </g>
    <g id="sprite52" transform="matrix(1.0, 0.0, 0.0, 1.0, 0.0, 0.0)">
      <use ffdec:characterId="55" height="54.05" transform="matrix(1.0, 0.0, 0.0, 1.0, 0.0, 0.0)" width="31.3" xlink:href="#shape2"/>
    </g>
    <g id="shape2" transform="matrix(1.0, 0.0, 0.0, 1.0, 0.0, 0.0)">
      <path d="M29.85 23.65 Q27.35 23.95 26.4 27.5 24.7 33.9 16.95 32.7 9.15 33.95 7.5 27.6 6.6 23.85 4.1 23.6 L2.65 23.7 3.2 23.3 4.3 22.7 Q6.5 21.95 8.9 23.45 6.8 21.7 6.5 18.0 6.45 14.55 9.1 13.1 L9.15 13.2 Q8.5 13.9 8.6 14.75 8.75 15.85 9.45 16.55 10.25 17.25 11.25 17.25 12.3 17.25 13.05 16.6 L13.15 16.4 13.4 16.1 13.55 15.05 13.3 14.2 Q12.65 12.75 11.25 11.3 10.1 9.8 10.1 7.9 10.1 6.1 11.75 4.3 11.25 5.6 11.25 6.15 11.25 8.45 13.55 8.45 15.1 8.45 16.2 6.95 L16.9 5.65 Q17.45 2.6 15.15 0.95 14.1 0.3 13.05 0.0 L14.6 0.05 15.3 0.2 15.7 0.3 Q16.55 0.5 17.25 1.0 17.95 1.5 18.45 2.1 L18.85 2.35 19.35 3.0 Q21.6 5.75 21.6 9.65 L21.35 12.4 Q20.9 14.35 19.95 15.25 23.5 15.75 24.0 12.45 25.55 15.0 24.1 16.4 22.6 17.85 23.0 18.7 23.35 19.65 23.75 19.85 L24.85 20.05 26.05 19.7 Q26.7 19.4 26.7 18.75 26.7 17.55 25.55 17.5 27.75 17.55 27.75 19.9 27.75 20.8 26.35 22.05 L25.1 23.35 Q27.35 21.95 29.65 22.7 L30.65 23.3 31.3 23.7 29.85 23.65 M4.6 3.15 Q5.5 3.15 6.1 3.7 6.75 4.45 6.75 5.35 L6.75 5.75 6.45 5.15 Q6.1 4.85 5.5 4.85 5.0 4.85 4.65 5.15 4.35 5.5 4.35 6.0 4.35 6.5 4.65 6.9 5.0 7.25 5.5 7.25 L5.65 7.25 4.6 7.5 Q3.65 7.5 2.95 6.9 2.35 6.25 2.35 5.35 2.35 4.45 2.95 3.7 3.65 3.15 4.6 3.15 M17.45 19.8 L17.05 19.2 16.9 19.05 16.3 18.55 Q16.1 18.5 15.9 18.25 L15.45 18.0 15.9 18.5 Q16.55 19.2 16.3 20.65 L15.9 22.35 15.7 22.65 15.15 23.3 15.05 23.35 Q14.25 21.05 13.15 20.15 14.05 22.35 13.55 24.0 L13.3 24.5 12.9 25.15 Q10.15 29.3 14.05 30.45 L16.75 30.25 16.9 30.3 17.05 30.3 19.75 30.55 20.4 30.25 Q21.85 29.15 21.6 27.1 20.6 23.35 22.75 21.85 21.45 22.45 20.55 23.15 19.85 23.65 19.4 24.3 L19.35 24.0 19.05 22.65 18.85 22.2 18.6 21.65 18.4 21.05 17.95 20.35 17.7 20.05 17.45 19.8 M28.8 9.8 L29.65 10.55 29.8 10.75 29.4 10.55 Q29.15 10.45 28.8 10.7 28.5 10.8 28.4 11.2 L28.55 11.75 29.0 12.1 29.55 12.05 29.65 11.95 29.15 12.55 28.05 12.6 27.15 11.95 Q26.85 11.45 27.0 10.8 27.15 10.25 27.65 9.95 L28.8 9.8 M23.85 4.15 L23.7 4.15 Q24.35 4.0 24.85 4.15 25.75 4.45 26.2 5.25 26.7 6.0 26.4 6.9 26.2 7.75 25.4 8.25 L23.7 8.45 Q22.85 8.15 22.4 7.4 22.0 6.6 22.2 5.75 L22.35 5.35 Q22.35 5.75 22.5 6.0 L23.2 6.5 24.1 6.45 24.7 5.65 Q24.85 5.25 24.6 4.8 L23.85 4.15 M1.8 16.85 Q2.3 16.9 2.6 17.5 2.95 18.0 2.7 18.55 2.6 19.15 2.05 19.4 L1.0 19.55 0.15 18.9 0.0 18.7 0.35 18.9 0.95 18.75 1.35 18.35 1.3 17.75 Q1.15 17.5 0.8 17.35 L0.2 17.4 0.65 17.0 1.8 16.85 M4.2 32.4 L3.8 31.8 Q3.65 31.25 4.0 30.65 4.2 30.15 4.85 30.05 L5.85 30.15 Q6.45 30.45 6.5 31.05 6.75 31.6 6.45 32.1 L5.6 32.8 5.4 32.85 5.6 32.6 5.65 31.95 5.3 31.55 4.7 31.4 Q4.45 31.45 4.2 31.75 L4.15 32.3 4.2 32.4 M24.1 34.6 L24.4 34.9 24.5 35.2 24.55 35.4 24.55 35.55 24.55 35.75 9.95 35.75 9.95 35.55 10.0 35.4 10.0 35.2 10.15 34.9 10.4 34.6 Q10.95 34.2 11.5 34.2 L23.1 34.2 Q23.75 34.2 24.1 34.6 M14.6 41.0 Q14.75 41.55 15.55 42.05 16.1 42.35 16.2 42.55 L14.75 42.55 14.4 42.35 14.25 42.35 14.1 41.9 14.05 41.7 14.25 41.15 14.55 41.0 14.6 41.0 M15.1 40.9 L16.25 40.9 Q16.4 41.5 17.2 42.0 L17.9 42.55 16.75 42.5 15.9 41.7 Q15.25 41.3 15.1 40.9 M18.95 41.9 L19.6 42.5 19.6 42.55 19.45 42.55 18.4 42.55 18.4 42.4 17.55 41.65 16.8 40.9 18.05 40.9 18.95 41.9 M9.95 36.35 L9.95 36.05 24.55 36.05 24.55 36.35 Q24.55 36.9 24.1 37.25 23.7 37.7 23.05 37.7 L11.45 37.7 Q10.9 37.7 10.4 37.25 10.0 36.9 9.95 36.35 M18.55 40.9 L19.45 40.9 19.9 41.05 20.05 41.15 20.25 41.7 20.25 41.8 20.25 41.9 20.1 42.3 19.25 41.55 18.55 40.9 M14.05 46.6 Q14.05 46.2 14.3 46.0 L14.6 45.8 Q14.75 46.35 15.6 46.85 L16.25 47.35 14.75 47.35 14.4 47.2 14.3 47.15 14.1 46.7 14.05 46.6 M14.9 47.75 L15.05 47.75 19.6 47.75 19.85 47.65 20.05 48.35 20.05 49.0 19.75 49.8 19.7 49.75 19.6 49.75 Q18.7 48.95 17.4 48.95 16.05 48.95 15.1 49.75 L15.05 49.8 14.95 49.95 14.55 49.0 14.55 48.35 14.75 47.75 14.75 47.65 14.9 47.75 M14.6 44.5 L14.6 43.8 14.8 43.15 19.85 43.15 20.05 43.85 20.05 44.5 19.75 45.35 19.6 45.35 14.9 45.35 Q14.6 45.0 14.6 44.5 M15.9 46.5 L15.1 45.7 16.25 45.7 Q16.4 46.3 17.25 46.8 L17.9 47.35 16.75 47.35 15.9 46.5 M18.95 46.8 L19.6 47.35 18.4 47.35 18.4 47.3 17.55 46.45 16.8 45.7 18.05 45.7 Q18.2 46.3 18.95 46.8 M14.75 40.5 Q14.05 39.05 12.55 38.1 L21.9 38.1 Q20.4 39.05 19.6 40.5 L14.75 40.5 M18.6 45.7 L19.55 45.7 19.9 45.85 20.05 46.0 20.35 46.5 20.35 46.6 20.35 46.7 20.1 47.1 19.25 46.35 Q18.75 46.1 18.6 45.7 M19.7 51.9 Q19.7 52.75 18.95 53.4 18.25 54.05 17.25 54.05 16.2 54.05 15.45 53.4 14.8 52.8 14.75 52.05 L14.75 51.9 Q14.75 50.95 15.4 50.4 L15.45 50.25 Q16.2 49.65 17.25 49.65 18.25 49.65 18.95 50.25 L19.05 50.3 19.6 51.15 19.7 51.9" fill="#000000" fill-rule="evenodd" stroke="none"/>
    </g>
  </defs>
</svg>
