<?xml version="1.0" encoding="UTF-8" standalone="no"?>
<svg xmlns:ffdec="https://www.free-decompiler.com/flash" xmlns:xlink="http://www.w3.org/1999/xlink" ffdec:objectType="frame" height="56.0px" width="56.0px" xmlns="http://www.w3.org/2000/svg">
  <g transform="matrix(1.0, 0.0, 0.0, 1.0, 0.0, 0.0)">
    <use ffdec:characterId="54" ffdec:characterName="145_fla.Symbole159_1" height="56.0" id="back" transform="matrix(1.0, 0.0, 0.0, 1.0, 0.0, 0.0)" width="56.0" xlink:href="#sprite0"/>
    <use ffdec:characterId="56" height="50.75" id="back" transform="matrix(1.0, 0.0, 0.0, 1.0, 0.4, 2.9)" width="55.4" xlink:href="#sprite53"/>
    <use ffdec:characterId="58" height="49.2" id="up" transform="matrix(1.0, 0.0, 0.0, 1.0, 1.15, 3.7)" width="53.9" xlink:href="#sprite54"/>
  </g>
  <defs>
    <g id="sprite0" transform="matrix(1.0, 0.0, 0.0, 1.0, 0.0, 0.0)">
      <use ffdec:characterId="53" ffdec:characterName="145_fla.Symbole156_2" height="56.0" id="back" transform="matrix(1.0, 0.0, 0.0, 1.0, 0.0, 0.0)" width="56.0" xlink:href="#sprite1"/>
    </g>
    <g id="sprite1" transform="matrix(1.0, 0.0, 0.0, 1.0, 0.0, 0.0)">
      <use ffdec:characterId="52" ffdec:characterName="145_fla.Symbole153_3" height="56.0" id="back" transform="matrix(1.0, 0.0, 0.0, 1.0, 0.0, 0.0)" width="56.0" xlink:href="#sprite2"/>
    </g>
    <g id="sprite2" transform="matrix(1.0, 0.0, 0.0, 1.0, 0.0, 0.0)">
      <use ffdec:characterId="51" ffdec:characterName="145_fla.Symbole150_4" height="56.0" id="back" transform="matrix(1.0, 0.0, 0.0, 1.0, 0.0, 0.0)" width="56.0" xlink:href="#sprite3"/>
    </g>
    <g id="sprite3" transform="matrix(1.0, 0.0, 0.0, 1.0, 0.0, 0.0)">
      <use ffdec:characterId="50" ffdec:characterName="145_fla.Symbole147_5" height="56.0" id="back" transform="matrix(1.0, 0.0, 0.0, 1.0, 0.0, 0.0)" width="56.0" xlink:href="#sprite4"/>
    </g>
    <g id="sprite4" transform="matrix(1.0, 0.0, 0.0, 1.0, 0.0, 0.0)">
      <use ffdec:characterId="49" ffdec:characterName="145_fla.Symbole144_6" height="56.0" id="back" transform="matrix(1.0, 0.0, 0.0, 1.0, 0.0, 0.0)" width="56.0" xlink:href="#sprite5"/>
    </g>
    <g id="sprite5" transform="matrix(1.0, 0.0, 0.0, 1.0, 0.0, 0.0)">
      <use ffdec:characterId="48" ffdec:characterName="145_fla.Symbole141_7" height="56.0" id="back" transform="matrix(1.0, 0.0, 0.0, 1.0, 0.0, 0.0)" width="56.0" xlink:href="#sprite6"/>
    </g>
    <g id="sprite6" transform="matrix(1.0, 0.0, 0.0, 1.0, 0.0, 0.0)">
      <use ffdec:characterId="47" ffdec:characterName="145_fla.Symbole138_8" height="56.0" id="back" transform="matrix(1.0, 0.0, 0.0, 1.0, 0.0, 0.0)" width="56.0" xlink:href="#sprite7"/>
    </g>
    <g id="sprite7" transform="matrix(1.0, 0.0, 0.0, 1.0, 0.0, 0.0)">
      <use ffdec:characterId="46" ffdec:characterName="145_fla.Symbole135_9" height="56.0" id="back" transform="matrix(1.0, 0.0, 0.0, 1.0, 0.0, 0.0)" width="56.0" xlink:href="#sprite8"/>
    </g>
    <g id="sprite8" transform="matrix(1.0, 0.0, 0.0, 1.0, 0.0, 0.0)">
      <use ffdec:characterId="45" ffdec:characterName="145_fla.Symbole132_10" height="56.0" id="back" transform="matrix(1.0, 0.0, 0.0, 1.0, 0.0, 0.0)" width="56.0" xlink:href="#sprite9"/>
    </g>
    <g id="sprite9" transform="matrix(1.0, 0.0, 0.0, 1.0, 0.0, 0.0)">
      <use ffdec:characterId="44" ffdec:characterName="145_fla.Symbole129_11" height="56.0" id="back" transform="matrix(1.0, 0.0, 0.0, 1.0, 0.0, 0.0)" width="56.0" xlink:href="#sprite10"/>
    </g>
    <g id="sprite10" transform="matrix(1.0, 0.0, 0.0, 1.0, 0.0, 0.0)">
      <use ffdec:characterId="43" ffdec:characterName="145_fla.Symbole126_12" height="56.0" id="back" transform="matrix(1.0, 0.0, 0.0, 1.0, 0.0, 0.0)" width="56.0" xlink:href="#sprite11"/>
    </g>
    <g id="sprite11" transform="matrix(1.0, 0.0, 0.0, 1.0, 0.0, 0.0)">
      <use ffdec:characterId="42" ffdec:characterName="145_fla.Symbole123_13" height="56.0" id="back" transform="matrix(1.0, 0.0, 0.0, 1.0, 0.0, 0.0)" width="56.0" xlink:href="#sprite12"/>
    </g>
    <g id="sprite12" transform="matrix(1.0, 0.0, 0.0, 1.0, 0.0, 0.0)">
      <use ffdec:characterId="41" ffdec:characterName="145_fla.Symbole120_14" height="56.0" id="back" transform="matrix(1.0, 0.0, 0.0, 1.0, 0.0, 0.0)" width="56.0" xlink:href="#sprite13"/>
    </g>
    <g id="sprite13" transform="matrix(1.0, 0.0, 0.0, 1.0, 0.0, 0.0)">
      <use ffdec:characterId="40" ffdec:characterName="145_fla.Symbole117_15" height="56.0" id="back" transform="matrix(1.0, 0.0, 0.0, 1.0, 0.0, 0.0)" width="56.0" xlink:href="#sprite14"/>
    </g>
    <g id="sprite14" transform="matrix(1.0, 0.0, 0.0, 1.0, 0.0, 0.0)">
      <use ffdec:characterId="39" ffdec:characterName="145_fla.Symbole114_16" height="56.0" id="back" transform="matrix(1.0, 0.0, 0.0, 1.0, 0.0, 0.0)" width="56.0" xlink:href="#sprite15"/>
    </g>
    <g id="sprite15" transform="matrix(1.0, 0.0, 0.0, 1.0, 0.0, 0.0)">
      <use ffdec:characterId="38" ffdec:characterName="145_fla.Symbole111_17" height="56.0" id="back" transform="matrix(1.0, 0.0, 0.0, 1.0, 0.0, 0.0)" width="56.0" xlink:href="#sprite16"/>
    </g>
    <g id="sprite16" transform="matrix(1.0, 0.0, 0.0, 1.0, 0.0, 0.0)">
      <use ffdec:characterId="37" ffdec:characterName="145_fla.Symbole108_18" height="56.0" id="back" transform="matrix(1.0, 0.0, 0.0, 1.0, 0.0, 0.0)" width="56.0" xlink:href="#sprite17"/>
    </g>
    <g id="sprite17" transform="matrix(1.0, 0.0, 0.0, 1.0, 0.0, 0.0)">
      <use ffdec:characterId="36" ffdec:characterName="145_fla.Symbole105_19" height="56.0" id="back" transform="matrix(1.0, 0.0, 0.0, 1.0, 0.0, 0.0)" width="56.0" xlink:href="#sprite18"/>
    </g>
    <g id="sprite18" transform="matrix(1.0, 0.0, 0.0, 1.0, 0.0, 0.0)">
      <use ffdec:characterId="35" ffdec:characterName="145_fla.Symbole102_20" height="56.0" id="back" transform="matrix(1.0, 0.0, 0.0, 1.0, 0.0, 0.0)" width="56.0" xlink:href="#sprite19"/>
    </g>
    <g id="sprite19" transform="matrix(1.0, 0.0, 0.0, 1.0, 0.0, 0.0)">
      <use ffdec:characterId="34" ffdec:characterName="145_fla.Symbole99_21" height="56.0" id="back" transform="matrix(1.0, 0.0, 0.0, 1.0, 0.0, 0.0)" width="56.0" xlink:href="#sprite20"/>
    </g>
    <g id="sprite20" transform="matrix(1.0, 0.0, 0.0, 1.0, 0.0, 0.0)">
      <use ffdec:characterId="33" ffdec:characterName="145_fla.Symbole96_22" height="56.0" id="back" transform="matrix(1.0, 0.0, 0.0, 1.0, 0.0, 0.0)" width="56.0" xlink:href="#sprite21"/>
    </g>
    <g id="sprite21" transform="matrix(1.0, 0.0, 0.0, 1.0, 0.0, 0.0)">
      <use ffdec:characterId="32" ffdec:characterName="145_fla.Symbole93_23" height="56.0" id="back" transform="matrix(1.0, 0.0, 0.0, 1.0, 0.0, 0.0)" width="56.0" xlink:href="#sprite22"/>
    </g>
    <g id="sprite22" transform="matrix(1.0, 0.0, 0.0, 1.0, 0.0, 0.0)">
      <use ffdec:characterId="31" ffdec:characterName="145_fla.Symbole90_24" height="56.0" id="back" transform="matrix(1.0, 0.0, 0.0, 1.0, 0.0, 0.0)" width="56.0" xlink:href="#sprite23"/>
    </g>
    <g id="sprite23" transform="matrix(1.0, 0.0, 0.0, 1.0, 0.0, 0.0)">
      <use ffdec:characterId="30" ffdec:characterName="145_fla.Symbole87_25" height="56.0" id="back" transform="matrix(1.0, 0.0, 0.0, 1.0, 0.0, 0.0)" width="56.0" xlink:href="#sprite24"/>
    </g>
    <g id="sprite24" transform="matrix(1.0, 0.0, 0.0, 1.0, 0.0, 0.0)">
      <use ffdec:characterId="29" ffdec:characterName="145_fla.Symbole84_26" height="56.0" id="back" transform="matrix(1.0, 0.0, 0.0, 1.0, 0.0, 0.0)" width="56.0" xlink:href="#sprite25"/>
    </g>
    <g id="sprite25" transform="matrix(1.0, 0.0, 0.0, 1.0, 0.0, 0.0)">
      <use ffdec:characterId="28" ffdec:characterName="145_fla.Symbole81_27" height="56.0" id="back" transform="matrix(1.0, 0.0, 0.0, 1.0, 0.0, 0.0)" width="56.0" xlink:href="#sprite26"/>
    </g>
    <g id="sprite26" transform="matrix(1.0, 0.0, 0.0, 1.0, 0.0, 0.0)">
      <use ffdec:characterId="27" ffdec:characterName="145_fla.Symbole78_28" height="56.0" id="back" transform="matrix(1.0, 0.0, 0.0, 1.0, 0.0, 0.0)" width="56.0" xlink:href="#sprite27"/>
    </g>
    <g id="sprite27" transform="matrix(1.0, 0.0, 0.0, 1.0, 0.0, 0.0)">
      <use ffdec:characterId="26" ffdec:characterName="145_fla.Symbole75_29" height="56.0" id="back" transform="matrix(1.0, 0.0, 0.0, 1.0, 0.0, 0.0)" width="56.0" xlink:href="#sprite28"/>
    </g>
    <g id="sprite28" transform="matrix(1.0, 0.0, 0.0, 1.0, 0.0, 0.0)">
      <use ffdec:characterId="25" ffdec:characterName="145_fla.Symbole72_30" height="56.0" id="back" transform="matrix(1.0, 0.0, 0.0, 1.0, 0.0, 0.0)" width="56.0" xlink:href="#sprite29"/>
    </g>
    <g id="sprite29" transform="matrix(1.0, 0.0, 0.0, 1.0, 0.0, 0.0)">
      <use ffdec:characterId="24" ffdec:characterName="145_fla.Symbole69_31" height="56.0" id="back" transform="matrix(1.0, 0.0, 0.0, 1.0, 0.0, 0.0)" width="56.0" xlink:href="#sprite30"/>
    </g>
    <g id="sprite30" transform="matrix(1.0, 0.0, 0.0, 1.0, 0.0, 0.0)">
      <use ffdec:characterId="23" ffdec:characterName="145_fla.Symbole66_32" height="56.0" id="back" transform="matrix(1.0, 0.0, 0.0, 1.0, 0.0, 0.0)" width="56.0" xlink:href="#sprite31"/>
    </g>
    <g id="sprite31" transform="matrix(1.0, 0.0, 0.0, 1.0, 0.0, 0.0)">
      <use ffdec:characterId="22" ffdec:characterName="145_fla.Symbole63_33" height="56.0" id="back" transform="matrix(1.0, 0.0, 0.0, 1.0, 0.0, 0.0)" width="56.0" xlink:href="#sprite32"/>
    </g>
    <g id="sprite32" transform="matrix(1.0, 0.0, 0.0, 1.0, 0.0, 0.0)">
      <use ffdec:characterId="21" ffdec:characterName="145_fla.Symbole60_34" height="56.0" id="back" transform="matrix(1.0, 0.0, 0.0, 1.0, 0.0, 0.0)" width="56.0" xlink:href="#sprite33"/>
    </g>
    <g id="sprite33" transform="matrix(1.0, 0.0, 0.0, 1.0, 0.0, 0.0)">
      <use ffdec:characterId="20" ffdec:characterName="145_fla.Symbole57_35" height="56.0" id="back" transform="matrix(1.0, 0.0, 0.0, 1.0, 0.0, 0.0)" width="56.0" xlink:href="#sprite34"/>
    </g>
    <g id="sprite34" transform="matrix(1.0, 0.0, 0.0, 1.0, 0.0, 0.0)">
      <use ffdec:characterId="19" ffdec:characterName="145_fla.Symbole54_36" height="56.0" id="back" transform="matrix(1.0, 0.0, 0.0, 1.0, 0.0, 0.0)" width="56.0" xlink:href="#sprite35"/>
    </g>
    <g id="sprite35" transform="matrix(1.0, 0.0, 0.0, 1.0, 0.0, 0.0)">
      <use ffdec:characterId="18" ffdec:characterName="145_fla.Symbole51_37" height="56.0" id="back" transform="matrix(1.0, 0.0, 0.0, 1.0, 0.0, 0.0)" width="56.0" xlink:href="#sprite36"/>
    </g>
    <g id="sprite36" transform="matrix(1.0, 0.0, 0.0, 1.0, 0.0, 0.0)">
      <use ffdec:characterId="17" ffdec:characterName="145_fla.Symbole48_38" height="56.0" id="back" transform="matrix(1.0, 0.0, 0.0, 1.0, 0.0, 0.0)" width="56.0" xlink:href="#sprite37"/>
    </g>
    <g id="sprite37" transform="matrix(1.0, 0.0, 0.0, 1.0, 0.0, 0.0)">
      <use ffdec:characterId="16" ffdec:characterName="145_fla.Symbole45_39" height="56.0" id="back" transform="matrix(1.0, 0.0, 0.0, 1.0, 0.0, 0.0)" width="56.0" xlink:href="#sprite38"/>
    </g>
    <g id="sprite38" transform="matrix(1.0, 0.0, 0.0, 1.0, 0.0, 0.0)">
      <use ffdec:characterId="15" ffdec:characterName="145_fla.Symbole42_40" height="56.0" id="back" transform="matrix(1.0, 0.0, 0.0, 1.0, 0.0, 0.0)" width="56.0" xlink:href="#sprite39"/>
    </g>
    <g id="sprite39" transform="matrix(1.0, 0.0, 0.0, 1.0, 0.0, 0.0)">
      <use ffdec:characterId="14" ffdec:characterName="145_fla.Symbole39_41" height="56.0" id="back" transform="matrix(1.0, 0.0, 0.0, 1.0, 0.0, 0.0)" width="56.0" xlink:href="#sprite40"/>
    </g>
    <g id="sprite40" transform="matrix(1.0, 0.0, 0.0, 1.0, 0.0, 0.0)">
      <use ffdec:characterId="13" ffdec:characterName="145_fla.Symbole36_42" height="56.0" id="back" transform="matrix(1.0, 0.0, 0.0, 1.0, 0.0, 0.0)" width="56.0" xlink:href="#sprite41"/>
    </g>
    <g id="sprite41" transform="matrix(1.0, 0.0, 0.0, 1.0, 0.0, 0.0)">
      <use ffdec:characterId="12" ffdec:characterName="145_fla.Symbole33_43" height="56.0" id="back" transform="matrix(1.0, 0.0, 0.0, 1.0, 0.0, 0.0)" width="56.0" xlink:href="#sprite42"/>
    </g>
    <g id="sprite42" transform="matrix(1.0, 0.0, 0.0, 1.0, 0.0, 0.0)">
      <use ffdec:characterId="11" ffdec:characterName="145_fla.Symbole30_44" height="56.0" id="back" transform="matrix(1.0, 0.0, 0.0, 1.0, 0.0, 0.0)" width="56.0" xlink:href="#sprite43"/>
    </g>
    <g id="sprite43" transform="matrix(1.0, 0.0, 0.0, 1.0, 0.0, 0.0)">
      <use ffdec:characterId="10" ffdec:characterName="145_fla.Symbole27_45" height="56.0" id="back" transform="matrix(1.0, 0.0, 0.0, 1.0, 0.0, 0.0)" width="56.0" xlink:href="#sprite44"/>
    </g>
    <g id="sprite44" transform="matrix(1.0, 0.0, 0.0, 1.0, 0.0, 0.0)">
      <use ffdec:characterId="9" ffdec:characterName="145_fla.Symbole24_46" height="56.0" id="back" transform="matrix(1.0, 0.0, 0.0, 1.0, 0.0, 0.0)" width="56.0" xlink:href="#sprite45"/>
    </g>
    <g id="sprite45" transform="matrix(1.0, 0.0, 0.0, 1.0, 0.0, 0.0)">
      <use ffdec:characterId="8" ffdec:characterName="145_fla.Symbole21_47" height="56.0" id="back" transform="matrix(1.0, 0.0, 0.0, 1.0, 0.0, 0.0)" width="56.0" xlink:href="#sprite46"/>
    </g>
    <g id="sprite46" transform="matrix(1.0, 0.0, 0.0, 1.0, 0.0, 0.0)">
      <use ffdec:characterId="7" ffdec:characterName="145_fla.Symbole18_48" height="56.0" id="back" transform="matrix(1.0, 0.0, 0.0, 1.0, 0.0, 0.0)" width="56.0" xlink:href="#sprite47"/>
    </g>
    <g id="sprite47" transform="matrix(1.0, 0.0, 0.0, 1.0, 0.0, 0.0)">
      <use ffdec:characterId="6" ffdec:characterName="145_fla.Symbole15_49" height="56.0" id="back" transform="matrix(1.0, 0.0, 0.0, 1.0, 0.0, 0.0)" width="56.0" xlink:href="#sprite48"/>
    </g>
    <g id="sprite48" transform="matrix(1.0, 0.0, 0.0, 1.0, 0.0, 0.0)">
      <use ffdec:characterId="5" ffdec:characterName="145_fla.Symbole12_50" height="56.0" id="back" transform="matrix(1.0, 0.0, 0.0, 1.0, 0.0, 0.0)" width="56.0" xlink:href="#sprite49"/>
    </g>
    <g id="sprite49" transform="matrix(1.0, 0.0, 0.0, 1.0, 0.0, 0.0)">
      <use ffdec:characterId="4" ffdec:characterName="145_fla.Symbole9_51" height="56.0" id="back" transform="matrix(1.0, 0.0, 0.0, 1.0, 0.0, 0.0)" width="56.0" xlink:href="#sprite50"/>
    </g>
    <g id="sprite50" transform="matrix(1.0, 0.0, 0.0, 1.0, 0.0, 0.0)">
      <use ffdec:characterId="3" ffdec:characterName="145_fla.Symbole6_52" height="56.0" id="back" transform="matrix(1.0, 0.0, 0.0, 1.0, 0.0, 0.0)" width="56.0" xlink:href="#sprite51"/>
    </g>
    <g id="sprite51" transform="matrix(1.0, 0.0, 0.0, 1.0, 0.0, 0.0)">
      <use ffdec:characterId="2" height="56.0" id="back" transform="matrix(1.0, 0.0, 0.0, 1.0, 0.0, 0.0)" width="56.0" xlink:href="#sprite52"/>
    </g>
    <g id="sprite52" transform="matrix(1.0, 0.0, 0.0, 1.0, 0.0, 0.0)">
      <use ffdec:characterId="1" height="56.0" transform="matrix(1.0, 0.0, 0.0, 1.0, 0.0, 0.0)" width="56.0" xlink:href="#shape0"/>
    </g>
    <g id="shape0" transform="matrix(1.0, 0.0, 0.0, 1.0, 0.0, 0.0)">
      <path d="M56.0 56.0 L0.0 56.0 0.0 0.0 56.0 0.0 56.0 56.0" fill="#010101" fill-opacity="0.0" fill-rule="evenodd" stroke="none"/>
    </g>
    <g id="sprite53" transform="matrix(1.0, 0.0, 0.0, 1.0, 0.75, 0.75)">
      <use ffdec:characterId="55" height="50.75" transform="matrix(1.0, 0.0, 0.0, 1.0, -0.75, -0.75)" width="55.4" xlink:href="#shape1"/>
    </g>
    <g id="shape1" transform="matrix(1.0, 0.0, 0.0, 1.0, 0.75, 0.75)">
      <path d="M41.6 0.4 Q41.5 1.75 41.65 2.85 41.8 4.15 42.35 5.1 L42.3 5.1 41.75 5.1 40.05 5.5 Q39.1 5.85 38.05 6.55 39.1 7.3 40.05 7.6 L42.1 8.0 42.45 8.0 Q43.4 7.85 44.0 7.3 L44.05 7.1 44.15 7.05 44.3 6.7 44.5 6.7 44.85 6.1 Q45.2 5.15 44.75 4.2 L44.7 4.15 44.7 3.9 44.35 3.35 43.3 1.9 41.6 0.4 M39.65 3.95 L39.75 3.95 40.25 3.7 40.15 2.75 Q39.9 1.85 39.05 1.1 L38.95 1.1 38.8 1.0 38.2 0.7 Q37.4 0.2 36.4 0.15 L33.9 0.05 Q34.6 1.35 35.4 2.25 L37.35 3.8 37.65 3.95 39.5 4.15 39.65 3.95 M46.3 7.3 Q46.05 8.8 46.2 10.0 L46.2 10.1 45.6 9.85 43.65 9.5 41.25 9.85 43.0 11.8 Q44.05 12.65 45.1 13.05 L45.45 13.25 47.25 13.05 47.4 13.0 47.4 12.9 47.9 12.5 48.05 12.55 48.5 12.05 Q49.2 11.3 49.1 10.0 L49.2 9.95 49.1 9.7 49.0 9.0 48.35 6.95 Q47.9 5.85 46.9 4.65 46.35 6.1 46.3 7.3 M47.4 19.3 L47.65 19.55 Q48.6 20.25 49.45 20.15 L49.65 20.05 50.2 19.9 50.3 20.0 50.9 19.65 Q51.75 19.15 52.0 17.85 L52.0 17.8 52.0 17.55 52.2 16.85 52.1 14.7 Q52.0 13.5 51.4 12.0 50.55 13.15 50.05 14.35 49.45 15.7 49.25 16.9 L48.75 16.4 47.0 15.45 44.6 14.9 45.7 17.4 47.4 19.3 M50.4 24.45 L50.3 24.35 49.95 23.75 48.7 22.2 46.6 20.7 Q46.6 22.2 46.9 23.5 47.15 24.95 47.8 25.95 L48.0 26.2 Q48.7 27.25 49.55 27.4 L49.65 27.4 49.8 27.5 50.2 27.6 50.3 27.75 51.1 27.65 Q52.0 27.5 52.6 26.45 L52.7 26.4 52.75 26.2 53.1 25.6 53.7 23.5 53.9 20.75 51.9 22.35 Q50.85 23.4 50.4 24.45 M53.8 29.55 Q52.35 29.9 51.35 30.55 50.05 31.25 49.25 32.25 L49.0 31.5 48.05 29.45 46.2 27.25 Q45.8 28.85 45.8 30.25 45.8 31.9 46.1 33.2 L46.35 33.55 Q46.8 34.8 47.65 35.3 L47.75 35.35 47.8 35.35 48.45 35.6 48.45 35.75 49.2 35.85 Q50.15 36.0 51.15 35.15 L51.15 35.05 51.35 35.0 51.8 34.3 52.95 32.35 53.8 29.55 M46.35 37.55 L46.05 35.25 44.95 32.35 Q44.15 33.7 43.65 35.05 43.05 36.7 43.05 38.05 L43.05 38.5 Q43.15 39.85 43.8 40.6 L44.0 40.85 44.05 40.9 44.45 41.2 44.35 41.45 45.1 41.95 47.25 41.9 47.3 41.9 47.5 41.9 Q47.8 41.65 48.2 41.45 L49.8 39.95 51.55 37.55 Q50.15 37.4 48.85 37.55 47.4 37.8 46.35 38.35 L46.35 37.55 M40.05 38.9 Q39.15 40.35 38.85 41.65 L38.85 42.15 Q38.6 43.6 39.15 44.45 L39.25 44.6 39.3 44.7 39.25 44.7 38.95 45.4 39.5 46.15 Q40.25 46.85 41.5 46.85 L41.6 46.95 41.8 46.95 42.55 46.85 Q43.5 46.7 44.5 46.15 L46.9 44.55 Q45.6 43.7 44.35 43.5 L41.85 43.25 41.85 43.1 42.05 42.85 42.2 42.05 42.3 39.55 41.75 36.5 Q40.65 37.7 40.05 38.9 M26.6 4.55 Q28.8 4.65 30.45 6.1 35.2 10.2 37.35 16.15 L38.35 19.0 Q40.6 25.25 38.55 31.6 37.65 34.0 35.7 35.85 33.75 37.8 31.0 38.65 27.2 40.05 23.25 39.15 19.25 38.25 16.45 35.3 14.65 33.35 13.9 30.9 12.6 25.95 13.9 21.1 14.65 18.1 16.0 15.45 17.8 10.5 21.5 6.8 23.6 4.7 26.35 4.7 L26.6 4.55 M25.75 12.65 Q27.0 12.55 27.95 13.3 L28.55 14.1 Q28.9 14.9 28.8 15.65 L28.7 15.9 28.7 15.65 28.55 15.15 Q27.25 13.85 26.25 14.7 L25.65 15.3 25.5 15.65 Q25.8 16.35 29.35 18.3 L32.65 20.0 32.7 19.8 Q33.65 18.7 33.25 16.05 33.0 14.7 32.05 13.35 28.3 9.6 24.6 10.9 23.45 11.3 22.45 12.05 L21.75 12.9 Q19.35 16.75 23.0 19.55 24.8 20.95 27.1 21.6 30.45 22.1 31.45 25.0 31.8 26.45 31.65 27.85 30.6 30.75 28.3 30.9 L24.95 30.75 23.95 30.5 Q20.8 28.35 21.4 25.9 21.65 25.2 22.25 24.45 L22.75 23.9 22.5 24.85 Q22.4 26.65 24.45 27.05 25.5 27.15 26.15 26.55 27.35 24.15 25.65 22.8 25.15 22.3 24.45 21.95 L23.8 21.8 Q20.85 20.75 20.1 19.25 L20.05 18.9 Q16.3 22.1 16.7 27.25 16.85 29.8 18.0 31.6 L18.05 31.85 Q19.75 34.3 22.5 35.25 L25.05 35.7 29.6 35.35 31.25 34.75 32.9 33.85 Q38.1 29.35 34.6 23.0 L34.55 22.85 Q32.4 20.7 30.15 20.0 25.3 18.6 23.45 16.4 23.1 15.8 23.1 14.95 23.0 13.45 24.6 12.9 L25.75 12.65 M15.35 1.1 L15.9 0.8 Q16.7 0.3 17.75 0.2 L20.2 0.15 18.7 2.3 Q17.75 3.45 16.8 3.9 L16.45 4.05 14.65 4.15 14.45 4.05 14.4 3.95 13.8 3.7 13.95 2.85 Q14.2 1.9 15.1 1.15 L15.15 1.15 15.35 1.1 M12.45 0.45 Q12.55 1.85 12.3 2.95 12.1 4.3 11.6 5.25 L11.65 5.25 12.2 5.25 Q13.05 5.25 13.9 5.65 14.85 6.0 15.9 6.7 14.85 7.45 13.9 7.8 12.8 8.25 11.85 8.15 L11.5 8.15 Q10.55 8.0 9.95 7.45 L9.9 7.3 9.8 7.2 9.65 6.8 9.45 6.8 9.1 6.15 Q8.75 5.25 9.2 4.3 L9.2 4.15 9.25 3.95 9.6 3.45 Q9.95 2.7 10.65 2.0 L12.45 0.45 M7.1 4.65 L7.85 7.3 7.85 10.0 7.75 10.2 Q8.1 10.0 8.35 9.95 9.2 9.6 10.3 9.6 L12.7 9.95 10.9 11.85 Q9.9 12.75 8.85 13.15 L8.5 13.3 6.7 13.05 6.55 13.05 6.45 13.0 5.95 12.55 5.45 12.05 Q4.85 11.3 4.95 10.0 L4.85 9.95 4.85 9.7 5.0 9.0 5.75 6.95 Q6.2 5.85 7.1 4.65 M2.45 12.0 L3.9 14.35 Q4.5 15.7 4.6 16.9 L4.6 17.1 4.7 17.0 5.2 16.5 Q5.95 15.95 6.95 15.55 L9.35 14.95 8.25 17.45 6.55 19.4 6.3 19.65 Q5.35 20.25 4.5 20.15 L4.3 20.15 4.25 20.15 3.65 19.9 3.55 20.0 2.95 19.65 Q2.15 19.15 1.95 17.85 L1.85 17.8 1.75 17.55 1.7 16.85 Q1.6 15.9 1.85 14.7 1.95 13.5 2.45 12.0 M5.8 26.4 Q5.2 27.35 4.3 27.5 L4.15 27.5 4.05 27.6 3.65 27.6 3.5 27.85 2.8 27.75 Q1.95 27.5 1.25 26.55 L1.2 26.45 1.1 26.2 0.75 25.6 0.15 23.5 0.05 20.75 1.95 22.35 Q3.05 23.4 3.55 24.45 L3.9 23.8 Q4.4 23.0 5.25 22.3 5.95 21.5 7.25 20.75 L7.05 23.55 Q6.65 25.0 6.05 26.05 L5.8 26.4 M2.45 30.55 Q3.75 31.25 4.5 32.35 L4.5 32.25 4.75 31.4 5.75 29.45 7.65 27.25 7.9 30.25 Q8.0 31.9 7.65 33.2 L7.4 33.6 Q6.95 34.8 6.15 35.3 L6.05 35.35 5.9 35.35 5.45 35.6 5.35 35.75 4.5 35.95 Q3.55 36.0 2.65 35.15 L2.55 35.05 2.45 34.9 1.95 34.25 Q1.25 33.55 0.85 32.35 0.3 31.2 0.0 29.45 1.45 29.9 2.45 30.55 M7.35 37.55 Q7.35 36.45 7.65 35.25 L8.75 32.35 Q9.65 33.8 10.05 35.05 10.65 36.7 10.65 38.05 L10.65 38.5 Q10.45 39.85 9.9 40.7 L9.7 40.85 9.65 40.9 9.35 41.2 9.35 41.45 8.6 41.95 Q7.65 42.35 6.45 41.95 L6.4 41.9 6.2 41.9 5.5 41.45 3.8 39.95 Q2.95 39.0 2.15 37.55 3.55 37.4 4.85 37.55 L7.4 38.25 7.35 37.55 M13.8 39.1 Q14.65 40.55 14.9 41.8 L14.9 42.35 Q15.15 43.7 14.65 44.6 L14.55 44.8 14.55 44.85 14.75 45.5 14.2 46.25 Q13.5 46.95 12.2 47.0 L12.15 47.0 11.9 47.0 11.15 46.95 9.1 46.25 Q8.1 45.65 6.8 44.55 8.15 43.8 9.45 43.6 L12.0 43.35 11.9 43.25 11.9 43.15 11.75 43.0 11.6 42.2 Q11.4 41.05 11.6 39.7 11.6 38.4 12.1 36.7 L13.8 39.1 M17.55 44.55 Q16.85 43.4 16.3 41.95 15.65 40.45 15.35 38.4 L18.25 40.05 20.7 42.5 20.95 42.9 20.95 42.2 21.4 39.85 22.75 41.7 23.7 43.8 23.7 44.1 Q23.8 45.15 23.45 45.8 L23.35 45.9 23.35 46.0 23.2 46.15 23.25 46.25 23.8 46.95 23.25 47.7 Q22.5 48.7 21.05 49.1 L20.85 49.1 20.6 49.15 19.75 49.25 17.2 48.95 Q15.85 48.7 14.05 47.8 15.6 46.7 16.95 46.05 L18.4 45.55 18.3 45.5 18.15 45.3 17.55 44.55 M32.75 42.65 L32.75 41.95 32.3 39.7 Q31.45 40.6 30.95 41.45 30.25 42.5 30.05 43.6 L30.05 43.85 Q29.9 44.95 30.25 45.65 L30.35 45.75 30.35 45.8 30.5 46.0 30.45 46.05 29.9 46.7 30.35 47.6 Q31.1 48.55 32.65 48.95 L32.75 48.95 33.0 49.05 33.9 49.1 36.55 48.9 Q37.9 48.55 39.65 47.7 38.1 46.5 36.65 46.0 L35.3 45.4 35.4 45.3 35.55 45.15 36.15 44.35 37.4 41.8 38.45 38.25 35.45 39.95 Q34.05 41.05 33.0 42.35 L32.75 42.65 Z" fill="none" stroke="#000000" stroke-linecap="round" stroke-linejoin="round" stroke-opacity="0.2" stroke-width="1.5"/>
    </g>
    <g id="sprite54" transform="matrix(1.0, 0.0, 0.0, 1.0, 0.0, 0.0)">
      <use ffdec:characterId="57" height="49.2" transform="matrix(1.0, 0.0, 0.0, 1.0, 0.0, 0.0)" width="53.9" xlink:href="#shape2"/>
    </g>
    <g id="shape2" transform="matrix(1.0, 0.0, 0.0, 1.0, 0.0, 0.0)">
      <path d="M41.75 36.45 L42.3 39.5 42.25 42.0 42.05 42.8 41.9 43.05 41.9 43.2 44.4 43.45 Q45.6 43.7 46.95 44.5 L44.55 46.1 42.55 46.8 41.85 46.9 41.6 46.9 41.5 46.8 Q40.25 46.8 39.5 46.1 L38.95 45.35 39.25 44.65 39.35 44.65 39.25 44.55 39.2 44.4 Q38.65 43.5 38.85 42.05 L38.85 41.6 Q39.2 40.3 40.05 38.85 L41.75 36.45 M46.4 37.5 L46.4 38.3 Q47.45 37.75 48.85 37.5 50.15 37.35 51.6 37.5 L49.85 39.9 48.25 41.45 Q47.85 41.6 47.5 41.85 L47.35 41.85 47.25 41.85 45.1 41.9 44.4 41.45 44.45 41.2 44.05 40.85 44.0 40.8 43.85 40.55 Q43.2 39.85 43.1 38.45 L43.1 38.0 Q43.1 36.6 43.65 35.0 44.15 33.65 44.95 32.3 L46.05 35.15 46.4 37.5 M53.85 29.45 L52.95 32.3 Q52.55 33.5 51.85 34.3 L51.35 34.95 51.2 35.0 51.2 35.1 Q50.15 35.95 49.2 35.8 L48.45 35.75 48.45 35.55 47.85 35.35 47.75 35.35 47.65 35.25 Q46.8 34.75 46.4 33.5 L46.15 33.15 Q45.85 31.9 45.85 30.2 45.85 28.85 46.25 27.2 L48.05 29.4 49.05 31.5 49.25 32.2 51.35 30.5 Q52.4 29.85 53.85 29.45 M53.1 25.55 L52.8 26.2 52.7 26.35 52.65 26.4 Q52.0 27.45 51.1 27.65 L50.3 27.7 50.25 27.55 49.85 27.45 49.65 27.4 49.6 27.4 Q48.7 27.2 48.0 26.2 L47.85 25.95 Q47.2 24.9 46.95 23.45 46.65 22.15 46.65 20.65 L48.7 22.15 50.0 23.7 50.3 24.35 50.4 24.4 Q50.85 23.35 51.9 22.35 L53.9 20.7 53.75 23.45 53.1 25.55 M47.45 19.3 Q46.55 18.55 45.75 17.35 L44.65 14.85 47.05 15.4 Q48.05 15.8 48.8 16.4 L49.25 16.85 Q49.45 15.65 50.05 14.3 L51.45 11.95 52.15 14.6 52.25 16.8 52.05 17.5 52.05 17.75 52.0 17.85 Q51.75 19.1 50.95 19.6 L50.3 19.9 50.25 19.85 49.65 20.0 Q49.5 20.0 49.5 20.1 48.65 20.25 47.65 19.5 L47.45 19.3 M46.3 7.25 Q46.4 6.05 46.95 4.6 L48.4 6.9 49.05 8.9 49.1 9.65 49.2 9.9 49.1 9.95 Q49.2 11.25 48.55 12.05 L48.05 12.55 47.9 12.45 47.45 12.85 47.45 12.95 47.25 13.0 45.45 13.2 45.1 13.0 43.05 11.75 41.25 9.8 43.65 9.5 45.6 9.8 46.25 10.05 46.25 9.95 Q46.05 8.75 46.3 7.25 M39.75 3.95 L39.65 3.95 39.5 4.1 37.65 3.95 37.35 3.8 35.45 2.2 33.9 0.0 36.4 0.1 Q37.45 0.15 38.25 0.65 L38.8 0.95 38.95 1.05 39.05 1.05 Q39.9 1.8 40.15 2.75 L40.25 3.6 39.75 3.95 M41.6 0.35 L43.35 1.85 44.4 3.3 44.7 3.85 44.7 4.1 44.8 4.2 Q45.2 5.15 44.85 6.05 L44.55 6.65 44.3 6.65 44.15 7.0 44.05 7.1 44.0 7.25 Q43.45 7.8 42.45 7.95 L42.15 7.95 Q41.2 8.05 40.05 7.55 39.1 7.25 38.05 6.5 39.1 5.8 40.05 5.45 L41.75 5.05 42.3 5.05 42.4 5.05 Q41.85 4.1 41.65 2.8 41.5 1.7 41.6 0.35 M26.65 4.5 Q28.8 4.6 30.45 6.05 35.2 10.15 37.35 16.15 L38.4 18.95 Q40.65 25.2 38.55 31.55 37.65 33.95 35.75 35.8 33.75 37.75 31.05 38.6 27.2 40.0 23.3 39.1 19.3 38.2 16.5 35.25 14.65 33.3 13.9 30.85 12.65 25.95 13.9 21.05 14.65 18.05 16.0 15.4 17.85 10.45 21.5 6.75 23.6 4.65 26.4 4.65 L26.65 4.5 M25.75 12.6 Q27.05 12.55 28.0 13.25 L28.55 14.05 Q28.95 14.85 28.8 15.6 L28.7 15.8 28.7 15.6 28.55 15.1 Q27.25 13.8 26.25 14.6 L25.7 15.25 25.5 15.6 Q25.85 16.3 29.35 18.25 L32.65 19.9 32.7 19.75 Q33.65 18.65 33.25 16.0 33.05 14.6 32.05 13.35 28.3 9.55 24.65 10.85 23.45 11.25 22.5 12.05 L21.75 12.85 Q19.35 16.7 23.05 19.5 24.8 20.9 27.1 21.5 30.45 22.1 31.45 25.0 31.85 26.4 31.65 27.8 30.65 30.7 28.3 30.85 L24.95 30.7 24.0 30.45 Q20.8 28.25 21.45 25.85 21.7 25.15 22.25 24.4 L22.8 23.85 22.55 24.8 Q22.4 26.6 24.5 27.0 25.5 27.15 26.15 26.5 27.35 24.1 25.7 22.75 L24.5 21.95 23.85 21.75 Q20.9 20.7 20.15 19.2 L20.1 18.9 Q16.3 22.1 16.7 27.2 16.9 29.7 18.0 31.55 L18.1 31.8 Q19.75 34.3 22.55 35.15 23.9 35.75 25.05 35.65 L29.6 35.35 31.25 34.7 32.95 33.8 Q38.15 29.3 34.65 22.95 L34.55 22.8 Q32.4 20.65 30.15 19.9 25.35 18.55 23.45 16.4 23.1 15.75 23.1 14.95 23.05 13.4 24.65 12.85 L25.75 12.6 M15.35 1.05 L15.9 0.75 Q16.7 0.25 17.75 0.15 L20.25 0.1 18.7 2.25 Q17.75 3.4 16.8 3.85 L16.5 4.0 14.65 4.1 Q14.65 4.0 14.5 4.0 L14.4 3.95 13.85 3.6 14.0 2.8 Q14.25 1.85 15.1 1.15 L15.2 1.15 Q15.3 1.05 15.35 1.05 M12.5 0.4 L12.3 2.9 11.6 5.25 11.7 5.25 12.25 5.25 13.9 5.65 Q14.9 5.95 15.9 6.65 L13.9 7.7 Q12.8 8.2 11.85 8.1 L11.5 8.1 Q10.55 7.95 10.0 7.4 L9.9 7.25 9.85 7.15 9.7 6.75 9.45 6.75 9.1 6.1 Q8.8 5.25 9.2 4.25 L9.2 4.1 9.3 3.95 9.6 3.4 10.65 1.95 Q11.35 1.2 12.5 0.4 M7.85 7.25 L7.85 9.95 7.75 10.15 Q8.1 9.95 8.4 9.9 L10.3 9.55 12.7 9.9 10.95 11.8 8.9 13.1 8.55 13.25 6.7 13.0 6.55 13.0 6.5 12.95 6.0 12.55 5.45 12.05 Q4.9 11.25 4.95 9.95 L4.9 9.9 4.9 9.65 5.05 8.9 5.75 6.9 Q6.25 5.8 7.1 4.6 L7.85 7.25 M2.5 11.95 L3.9 14.3 4.65 16.85 4.65 17.05 4.7 16.95 5.2 16.45 Q6.0 15.9 6.95 15.5 L9.35 14.95 8.25 17.45 6.55 19.35 6.3 19.6 Q5.35 20.25 4.5 20.1 L4.3 20.1 4.25 20.1 3.7 19.85 3.6 19.9 Q3.1 19.75 2.95 19.6 2.15 19.1 1.9 17.85 L1.85 17.75 1.75 17.5 1.7 16.8 Q1.6 15.8 1.85 14.6 2.0 13.5 2.5 11.95 M5.85 26.35 Q5.2 27.3 4.3 27.45 L4.15 27.45 4.1 27.55 3.7 27.55 3.5 27.8 2.8 27.7 Q1.9 27.45 1.3 26.5 L1.2 26.4 1.1 26.2 0.8 25.55 Q0.4 24.65 0.15 23.45 0.0 22.35 0.1 20.7 1.3 21.45 2.0 22.35 3.05 23.35 3.6 24.4 L3.9 23.75 Q4.4 22.95 5.3 22.25 L7.3 20.7 7.05 23.55 6.1 26.0 5.85 26.35 M2.5 30.5 Q3.75 31.25 4.55 32.3 L4.55 32.2 4.8 31.4 Q5.1 30.45 5.75 29.4 L7.7 27.2 Q8.0 28.85 7.9 30.2 8.0 31.9 7.7 33.15 L7.45 33.55 Q6.95 34.75 6.15 35.25 L6.1 35.35 5.9 35.35 5.45 35.55 5.35 35.75 4.55 35.9 Q3.6 35.95 2.65 35.1 L2.55 35.0 2.5 34.85 1.9 34.2 0.9 32.3 Q0.3 31.15 0.0 29.4 1.45 29.85 2.5 30.5 M7.35 37.5 Q7.35 36.4 7.7 35.15 8.1 33.8 8.8 32.3 L10.1 35.0 Q10.65 36.6 10.65 38.0 L10.65 38.45 Q10.5 39.85 9.9 40.65 L9.75 40.8 9.7 40.85 9.35 41.2 9.35 41.45 8.65 41.9 Q7.7 42.3 6.5 41.9 L6.4 41.85 6.25 41.85 5.5 41.45 3.85 39.9 Q2.95 38.95 2.15 37.5 3.6 37.35 4.9 37.5 L7.45 38.2 7.35 37.5 M13.85 39.0 L14.95 41.75 14.95 42.3 Q15.2 43.7 14.65 44.55 L14.55 44.7 14.55 44.8 14.8 45.45 14.25 46.15 Q13.5 46.9 12.25 46.95 L12.15 46.95 11.9 46.95 11.2 46.9 9.1 46.15 6.8 44.5 Q8.15 43.75 9.45 43.5 L12.0 43.3 11.9 43.2 11.9 43.1 11.75 42.95 11.6 42.15 Q11.45 41.05 11.6 39.65 11.6 38.4 12.1 36.6 L13.85 39.0 M18.3 45.45 L18.15 45.3 17.6 44.5 16.3 41.9 Q15.7 40.4 15.35 38.4 16.95 39.1 18.25 40.0 19.7 41.2 20.7 42.5 L20.95 42.9 20.95 42.15 Q21.05 41.1 21.45 39.85 L22.8 41.65 Q23.45 42.7 23.7 43.75 L23.7 44.1 Q23.85 45.15 23.45 45.75 L23.35 45.85 23.35 45.95 23.2 46.1 23.3 46.15 23.85 46.9 23.3 47.7 Q22.55 48.65 21.05 49.05 L20.9 49.05 20.65 49.15 19.75 49.2 17.2 48.9 Q15.85 48.65 14.1 47.75 15.6 46.65 16.95 46.0 L18.4 45.55 18.3 45.45 M32.3 39.65 L32.8 41.9 32.8 42.65 33.05 42.3 Q34.05 41.05 35.5 39.9 36.8 38.95 38.45 38.2 38.05 40.3 37.45 41.75 L36.15 44.3 35.6 45.15 35.45 45.3 35.35 45.35 36.7 45.95 Q38.15 46.5 39.65 47.6 37.9 48.5 36.55 48.8 L33.9 49.05 33.05 49.0 32.8 48.9 32.65 48.9 Q31.1 48.5 30.4 47.55 L29.9 46.65 30.45 46.0 30.55 45.95 30.4 45.75 30.4 45.7 30.3 45.6 Q29.9 44.9 30.05 43.85 L30.05 43.5 Q30.3 42.5 30.95 41.45 L32.3 39.65" fill="#000000" fill-rule="evenodd" stroke="none"/>
    </g>
  </defs>
</svg>
