<?xml version="1.0" encoding="UTF-8" standalone="no"?>
<svg xmlns:ffdec="https://www.free-decompiler.com/flash" xmlns:xlink="http://www.w3.org/1999/xlink" ffdec:objectType="frame" height="56.0px" width="56.0px" xmlns="http://www.w3.org/2000/svg">
  <g transform="matrix(1.0, 0.0, 0.0, 1.0, 0.0, 0.0)">
    <use ffdec:characterId="56" ffdec:characterName="147_fla.Symbole165_1" height="56.0" id="back" transform="matrix(1.0, 0.0, 0.0, 1.0, 0.0, 0.0)" width="56.0" xlink:href="#sprite0"/>
    <use ffdec:characterId="58" height="50.15" id="back" transform="matrix(1.0, 0.0, 0.0, 1.0, 0.4, 3.05)" width="55.4" xlink:href="#sprite55"/>
    <use ffdec:characterId="60" height="48.65" id="up" transform="matrix(1.0, 0.0, 0.0, 1.0, 1.15, 3.8)" width="53.9" xlink:href="#sprite56"/>
  </g>
  <defs>
    <g id="sprite0" transform="matrix(1.0, 0.0, 0.0, 1.0, 0.0, 0.0)">
      <use ffdec:characterId="55" ffdec:characterName="147_fla.Symbole162_2" height="56.0" id="back" transform="matrix(1.0, 0.0, 0.0, 1.0, 0.0, 0.0)" width="56.0" xlink:href="#sprite1"/>
    </g>
    <g id="sprite1" transform="matrix(1.0, 0.0, 0.0, 1.0, 0.0, 0.0)">
      <use ffdec:characterId="54" ffdec:characterName="147_fla.Symbole159_3" height="56.0" id="back" transform="matrix(1.0, 0.0, 0.0, 1.0, 0.0, 0.0)" width="56.0" xlink:href="#sprite2"/>
    </g>
    <g id="sprite2" transform="matrix(1.0, 0.0, 0.0, 1.0, 0.0, 0.0)">
      <use ffdec:characterId="53" ffdec:characterName="147_fla.Symbole156_4" height="56.0" id="back" transform="matrix(1.0, 0.0, 0.0, 1.0, 0.0, 0.0)" width="56.0" xlink:href="#sprite3"/>
    </g>
    <g id="sprite3" transform="matrix(1.0, 0.0, 0.0, 1.0, 0.0, 0.0)">
      <use ffdec:characterId="52" ffdec:characterName="147_fla.Symbole153_5" height="56.0" id="back" transform="matrix(1.0, 0.0, 0.0, 1.0, 0.0, 0.0)" width="56.0" xlink:href="#sprite4"/>
    </g>
    <g id="sprite4" transform="matrix(1.0, 0.0, 0.0, 1.0, 0.0, 0.0)">
      <use ffdec:characterId="51" ffdec:characterName="147_fla.Symbole150_6" height="56.0" id="back" transform="matrix(1.0, 0.0, 0.0, 1.0, 0.0, 0.0)" width="56.0" xlink:href="#sprite5"/>
    </g>
    <g id="sprite5" transform="matrix(1.0, 0.0, 0.0, 1.0, 0.0, 0.0)">
      <use ffdec:characterId="50" ffdec:characterName="147_fla.Symbole147_7" height="56.0" id="back" transform="matrix(1.0, 0.0, 0.0, 1.0, 0.0, 0.0)" width="56.0" xlink:href="#sprite6"/>
    </g>
    <g id="sprite6" transform="matrix(1.0, 0.0, 0.0, 1.0, 0.0, 0.0)">
      <use ffdec:characterId="49" ffdec:characterName="147_fla.Symbole144_8" height="56.0" id="back" transform="matrix(1.0, 0.0, 0.0, 1.0, 0.0, 0.0)" width="56.0" xlink:href="#sprite7"/>
    </g>
    <g id="sprite7" transform="matrix(1.0, 0.0, 0.0, 1.0, 0.0, 0.0)">
      <use ffdec:characterId="48" ffdec:characterName="147_fla.Symbole141_9" height="56.0" id="back" transform="matrix(1.0, 0.0, 0.0, 1.0, 0.0, 0.0)" width="56.0" xlink:href="#sprite8"/>
    </g>
    <g id="sprite8" transform="matrix(1.0, 0.0, 0.0, 1.0, 0.0, 0.0)">
      <use ffdec:characterId="47" ffdec:characterName="147_fla.Symbole138_10" height="56.0" id="back" transform="matrix(1.0, 0.0, 0.0, 1.0, 0.0, 0.0)" width="56.0" xlink:href="#sprite9"/>
    </g>
    <g id="sprite9" transform="matrix(1.0, 0.0, 0.0, 1.0, 0.0, 0.0)">
      <use ffdec:characterId="46" ffdec:characterName="147_fla.Symbole135_11" height="56.0" id="back" transform="matrix(1.0, 0.0, 0.0, 1.0, 0.0, 0.0)" width="56.0" xlink:href="#sprite10"/>
    </g>
    <g id="sprite10" transform="matrix(1.0, 0.0, 0.0, 1.0, 0.0, 0.0)">
      <use ffdec:characterId="45" ffdec:characterName="147_fla.Symbole132_12" height="56.0" id="back" transform="matrix(1.0, 0.0, 0.0, 1.0, 0.0, 0.0)" width="56.0" xlink:href="#sprite11"/>
    </g>
    <g id="sprite11" transform="matrix(1.0, 0.0, 0.0, 1.0, 0.0, 0.0)">
      <use ffdec:characterId="44" ffdec:characterName="147_fla.Symbole129_13" height="56.0" id="back" transform="matrix(1.0, 0.0, 0.0, 1.0, 0.0, 0.0)" width="56.0" xlink:href="#sprite12"/>
    </g>
    <g id="sprite12" transform="matrix(1.0, 0.0, 0.0, 1.0, 0.0, 0.0)">
      <use ffdec:characterId="43" ffdec:characterName="147_fla.Symbole126_14" height="56.0" id="back" transform="matrix(1.0, 0.0, 0.0, 1.0, 0.0, 0.0)" width="56.0" xlink:href="#sprite13"/>
    </g>
    <g id="sprite13" transform="matrix(1.0, 0.0, 0.0, 1.0, 0.0, 0.0)">
      <use ffdec:characterId="42" ffdec:characterName="147_fla.Symbole123_15" height="56.0" id="back" transform="matrix(1.0, 0.0, 0.0, 1.0, 0.0, 0.0)" width="56.0" xlink:href="#sprite14"/>
    </g>
    <g id="sprite14" transform="matrix(1.0, 0.0, 0.0, 1.0, 0.0, 0.0)">
      <use ffdec:characterId="41" ffdec:characterName="147_fla.Symbole120_16" height="56.0" id="back" transform="matrix(1.0, 0.0, 0.0, 1.0, 0.0, 0.0)" width="56.0" xlink:href="#sprite15"/>
    </g>
    <g id="sprite15" transform="matrix(1.0, 0.0, 0.0, 1.0, 0.0, 0.0)">
      <use ffdec:characterId="40" ffdec:characterName="147_fla.Symbole117_17" height="56.0" id="back" transform="matrix(1.0, 0.0, 0.0, 1.0, 0.0, 0.0)" width="56.0" xlink:href="#sprite16"/>
    </g>
    <g id="sprite16" transform="matrix(1.0, 0.0, 0.0, 1.0, 0.0, 0.0)">
      <use ffdec:characterId="39" ffdec:characterName="147_fla.Symbole114_18" height="56.0" id="back" transform="matrix(1.0, 0.0, 0.0, 1.0, 0.0, 0.0)" width="56.0" xlink:href="#sprite17"/>
    </g>
    <g id="sprite17" transform="matrix(1.0, 0.0, 0.0, 1.0, 0.0, 0.0)">
      <use ffdec:characterId="38" ffdec:characterName="147_fla.Symbole111_19" height="56.0" id="back" transform="matrix(1.0, 0.0, 0.0, 1.0, 0.0, 0.0)" width="56.0" xlink:href="#sprite18"/>
    </g>
    <g id="sprite18" transform="matrix(1.0, 0.0, 0.0, 1.0, 0.0, 0.0)">
      <use ffdec:characterId="37" ffdec:characterName="147_fla.Symbole108_20" height="56.0" id="back" transform="matrix(1.0, 0.0, 0.0, 1.0, 0.0, 0.0)" width="56.0" xlink:href="#sprite19"/>
    </g>
    <g id="sprite19" transform="matrix(1.0, 0.0, 0.0, 1.0, 0.0, 0.0)">
      <use ffdec:characterId="36" ffdec:characterName="147_fla.Symbole105_21" height="56.0" id="back" transform="matrix(1.0, 0.0, 0.0, 1.0, 0.0, 0.0)" width="56.0" xlink:href="#sprite20"/>
    </g>
    <g id="sprite20" transform="matrix(1.0, 0.0, 0.0, 1.0, 0.0, 0.0)">
      <use ffdec:characterId="35" ffdec:characterName="147_fla.Symbole102_22" height="56.0" id="back" transform="matrix(1.0, 0.0, 0.0, 1.0, 0.0, 0.0)" width="56.0" xlink:href="#sprite21"/>
    </g>
    <g id="sprite21" transform="matrix(1.0, 0.0, 0.0, 1.0, 0.0, 0.0)">
      <use ffdec:characterId="34" ffdec:characterName="147_fla.Symbole99_23" height="56.0" id="back" transform="matrix(1.0, 0.0, 0.0, 1.0, 0.0, 0.0)" width="56.0" xlink:href="#sprite22"/>
    </g>
    <g id="sprite22" transform="matrix(1.0, 0.0, 0.0, 1.0, 0.0, 0.0)">
      <use ffdec:characterId="33" ffdec:characterName="147_fla.Symbole96_24" height="56.0" id="back" transform="matrix(1.0, 0.0, 0.0, 1.0, 0.0, 0.0)" width="56.0" xlink:href="#sprite23"/>
    </g>
    <g id="sprite23" transform="matrix(1.0, 0.0, 0.0, 1.0, 0.0, 0.0)">
      <use ffdec:characterId="32" ffdec:characterName="147_fla.Symbole93_25" height="56.0" id="back" transform="matrix(1.0, 0.0, 0.0, 1.0, 0.0, 0.0)" width="56.0" xlink:href="#sprite24"/>
    </g>
    <g id="sprite24" transform="matrix(1.0, 0.0, 0.0, 1.0, 0.0, 0.0)">
      <use ffdec:characterId="31" ffdec:characterName="147_fla.Symbole90_26" height="56.0" id="back" transform="matrix(1.0, 0.0, 0.0, 1.0, 0.0, 0.0)" width="56.0" xlink:href="#sprite25"/>
    </g>
    <g id="sprite25" transform="matrix(1.0, 0.0, 0.0, 1.0, 0.0, 0.0)">
      <use ffdec:characterId="30" ffdec:characterName="147_fla.Symbole87_27" height="56.0" id="back" transform="matrix(1.0, 0.0, 0.0, 1.0, 0.0, 0.0)" width="56.0" xlink:href="#sprite26"/>
    </g>
    <g id="sprite26" transform="matrix(1.0, 0.0, 0.0, 1.0, 0.0, 0.0)">
      <use ffdec:characterId="29" ffdec:characterName="147_fla.Symbole84_28" height="56.0" id="back" transform="matrix(1.0, 0.0, 0.0, 1.0, 0.0, 0.0)" width="56.0" xlink:href="#sprite27"/>
    </g>
    <g id="sprite27" transform="matrix(1.0, 0.0, 0.0, 1.0, 0.0, 0.0)">
      <use ffdec:characterId="28" ffdec:characterName="147_fla.Symbole81_29" height="56.0" id="back" transform="matrix(1.0, 0.0, 0.0, 1.0, 0.0, 0.0)" width="56.0" xlink:href="#sprite28"/>
    </g>
    <g id="sprite28" transform="matrix(1.0, 0.0, 0.0, 1.0, 0.0, 0.0)">
      <use ffdec:characterId="27" ffdec:characterName="147_fla.Symbole78_30" height="56.0" id="back" transform="matrix(1.0, 0.0, 0.0, 1.0, 0.0, 0.0)" width="56.0" xlink:href="#sprite29"/>
    </g>
    <g id="sprite29" transform="matrix(1.0, 0.0, 0.0, 1.0, 0.0, 0.0)">
      <use ffdec:characterId="26" ffdec:characterName="147_fla.Symbole75_31" height="56.0" id="back" transform="matrix(1.0, 0.0, 0.0, 1.0, 0.0, 0.0)" width="56.0" xlink:href="#sprite30"/>
    </g>
    <g id="sprite30" transform="matrix(1.0, 0.0, 0.0, 1.0, 0.0, 0.0)">
      <use ffdec:characterId="25" ffdec:characterName="147_fla.Symbole72_32" height="56.0" id="back" transform="matrix(1.0, 0.0, 0.0, 1.0, 0.0, 0.0)" width="56.0" xlink:href="#sprite31"/>
    </g>
    <g id="sprite31" transform="matrix(1.0, 0.0, 0.0, 1.0, 0.0, 0.0)">
      <use ffdec:characterId="24" ffdec:characterName="147_fla.Symbole69_33" height="56.0" id="back" transform="matrix(1.0, 0.0, 0.0, 1.0, 0.0, 0.0)" width="56.0" xlink:href="#sprite32"/>
    </g>
    <g id="sprite32" transform="matrix(1.0, 0.0, 0.0, 1.0, 0.0, 0.0)">
      <use ffdec:characterId="23" ffdec:characterName="147_fla.Symbole66_34" height="56.0" id="back" transform="matrix(1.0, 0.0, 0.0, 1.0, 0.0, 0.0)" width="56.0" xlink:href="#sprite33"/>
    </g>
    <g id="sprite33" transform="matrix(1.0, 0.0, 0.0, 1.0, 0.0, 0.0)">
      <use ffdec:characterId="22" ffdec:characterName="147_fla.Symbole63_35" height="56.0" id="back" transform="matrix(1.0, 0.0, 0.0, 1.0, 0.0, 0.0)" width="56.0" xlink:href="#sprite34"/>
    </g>
    <g id="sprite34" transform="matrix(1.0, 0.0, 0.0, 1.0, 0.0, 0.0)">
      <use ffdec:characterId="21" ffdec:characterName="147_fla.Symbole60_36" height="56.0" id="back" transform="matrix(1.0, 0.0, 0.0, 1.0, 0.0, 0.0)" width="56.0" xlink:href="#sprite35"/>
    </g>
    <g id="sprite35" transform="matrix(1.0, 0.0, 0.0, 1.0, 0.0, 0.0)">
      <use ffdec:characterId="20" ffdec:characterName="147_fla.Symbole57_37" height="56.0" id="back" transform="matrix(1.0, 0.0, 0.0, 1.0, 0.0, 0.0)" width="56.0" xlink:href="#sprite36"/>
    </g>
    <g id="sprite36" transform="matrix(1.0, 0.0, 0.0, 1.0, 0.0, 0.0)">
      <use ffdec:characterId="19" ffdec:characterName="147_fla.Symbole54_38" height="56.0" id="back" transform="matrix(1.0, 0.0, 0.0, 1.0, 0.0, 0.0)" width="56.0" xlink:href="#sprite37"/>
    </g>
    <g id="sprite37" transform="matrix(1.0, 0.0, 0.0, 1.0, 0.0, 0.0)">
      <use ffdec:characterId="18" ffdec:characterName="147_fla.Symbole51_39" height="56.0" id="back" transform="matrix(1.0, 0.0, 0.0, 1.0, 0.0, 0.0)" width="56.0" xlink:href="#sprite38"/>
    </g>
    <g id="sprite38" transform="matrix(1.0, 0.0, 0.0, 1.0, 0.0, 0.0)">
      <use ffdec:characterId="17" ffdec:characterName="147_fla.Symbole48_40" height="56.0" id="back" transform="matrix(1.0, 0.0, 0.0, 1.0, 0.0, 0.0)" width="56.0" xlink:href="#sprite39"/>
    </g>
    <g id="sprite39" transform="matrix(1.0, 0.0, 0.0, 1.0, 0.0, 0.0)">
      <use ffdec:characterId="16" ffdec:characterName="147_fla.Symbole45_41" height="56.0" id="back" transform="matrix(1.0, 0.0, 0.0, 1.0, 0.0, 0.0)" width="56.0" xlink:href="#sprite40"/>
    </g>
    <g id="sprite40" transform="matrix(1.0, 0.0, 0.0, 1.0, 0.0, 0.0)">
      <use ffdec:characterId="15" ffdec:characterName="147_fla.Symbole42_42" height="56.0" id="back" transform="matrix(1.0, 0.0, 0.0, 1.0, 0.0, 0.0)" width="56.0" xlink:href="#sprite41"/>
    </g>
    <g id="sprite41" transform="matrix(1.0, 0.0, 0.0, 1.0, 0.0, 0.0)">
      <use ffdec:characterId="14" ffdec:characterName="147_fla.Symbole39_43" height="56.0" id="back" transform="matrix(1.0, 0.0, 0.0, 1.0, 0.0, 0.0)" width="56.0" xlink:href="#sprite42"/>
    </g>
    <g id="sprite42" transform="matrix(1.0, 0.0, 0.0, 1.0, 0.0, 0.0)">
      <use ffdec:characterId="13" ffdec:characterName="147_fla.Symbole36_44" height="56.0" id="back" transform="matrix(1.0, 0.0, 0.0, 1.0, 0.0, 0.0)" width="56.0" xlink:href="#sprite43"/>
    </g>
    <g id="sprite43" transform="matrix(1.0, 0.0, 0.0, 1.0, 0.0, 0.0)">
      <use ffdec:characterId="12" ffdec:characterName="147_fla.Symbole33_45" height="56.0" id="back" transform="matrix(1.0, 0.0, 0.0, 1.0, 0.0, 0.0)" width="56.0" xlink:href="#sprite44"/>
    </g>
    <g id="sprite44" transform="matrix(1.0, 0.0, 0.0, 1.0, 0.0, 0.0)">
      <use ffdec:characterId="11" ffdec:characterName="147_fla.Symbole30_46" height="56.0" id="back" transform="matrix(1.0, 0.0, 0.0, 1.0, 0.0, 0.0)" width="56.0" xlink:href="#sprite45"/>
    </g>
    <g id="sprite45" transform="matrix(1.0, 0.0, 0.0, 1.0, 0.0, 0.0)">
      <use ffdec:characterId="10" ffdec:characterName="147_fla.Symbole27_47" height="56.0" id="back" transform="matrix(1.0, 0.0, 0.0, 1.0, 0.0, 0.0)" width="56.0" xlink:href="#sprite46"/>
    </g>
    <g id="sprite46" transform="matrix(1.0, 0.0, 0.0, 1.0, 0.0, 0.0)">
      <use ffdec:characterId="9" ffdec:characterName="147_fla.Symbole24_48" height="56.0" id="back" transform="matrix(1.0, 0.0, 0.0, 1.0, 0.0, 0.0)" width="56.0" xlink:href="#sprite47"/>
    </g>
    <g id="sprite47" transform="matrix(1.0, 0.0, 0.0, 1.0, 0.0, 0.0)">
      <use ffdec:characterId="8" ffdec:characterName="147_fla.Symbole21_49" height="56.0" id="back" transform="matrix(1.0, 0.0, 0.0, 1.0, 0.0, 0.0)" width="56.0" xlink:href="#sprite48"/>
    </g>
    <g id="sprite48" transform="matrix(1.0, 0.0, 0.0, 1.0, 0.0, 0.0)">
      <use ffdec:characterId="7" ffdec:characterName="147_fla.Symbole18_50" height="56.0" id="back" transform="matrix(1.0, 0.0, 0.0, 1.0, 0.0, 0.0)" width="56.0" xlink:href="#sprite49"/>
    </g>
    <g id="sprite49" transform="matrix(1.0, 0.0, 0.0, 1.0, 0.0, 0.0)">
      <use ffdec:characterId="6" ffdec:characterName="147_fla.Symbole15_51" height="56.0" id="back" transform="matrix(1.0, 0.0, 0.0, 1.0, 0.0, 0.0)" width="56.0" xlink:href="#sprite50"/>
    </g>
    <g id="sprite50" transform="matrix(1.0, 0.0, 0.0, 1.0, 0.0, 0.0)">
      <use ffdec:characterId="5" ffdec:characterName="147_fla.Symbole12_52" height="56.0" id="back" transform="matrix(1.0, 0.0, 0.0, 1.0, 0.0, 0.0)" width="56.0" xlink:href="#sprite51"/>
    </g>
    <g id="sprite51" transform="matrix(1.0, 0.0, 0.0, 1.0, 0.0, 0.0)">
      <use ffdec:characterId="4" ffdec:characterName="147_fla.Symbole9_53" height="56.0" id="back" transform="matrix(1.0, 0.0, 0.0, 1.0, 0.0, 0.0)" width="56.0" xlink:href="#sprite52"/>
    </g>
    <g id="sprite52" transform="matrix(1.0, 0.0, 0.0, 1.0, 0.0, 0.0)">
      <use ffdec:characterId="3" ffdec:characterName="147_fla.Symbole6_54" height="56.0" id="back" transform="matrix(1.0, 0.0, 0.0, 1.0, 0.0, 0.0)" width="56.0" xlink:href="#sprite53"/>
    </g>
    <g id="sprite53" transform="matrix(1.0, 0.0, 0.0, 1.0, 0.0, 0.0)">
      <use ffdec:characterId="2" height="56.0" id="back" transform="matrix(1.0, 0.0, 0.0, 1.0, 0.0, 0.0)" width="56.0" xlink:href="#sprite54"/>
    </g>
    <g id="sprite54" transform="matrix(1.0, 0.0, 0.0, 1.0, 0.0, 0.0)">
      <use ffdec:characterId="1" height="56.0" transform="matrix(1.0, 0.0, 0.0, 1.0, 0.0, 0.0)" width="56.0" xlink:href="#shape0"/>
    </g>
    <g id="shape0" transform="matrix(1.0, 0.0, 0.0, 1.0, 0.0, 0.0)">
      <path d="M56.0 56.0 L0.0 56.0 0.0 0.0 56.0 0.0 56.0 56.0" fill="#010101" fill-opacity="0.0" fill-rule="evenodd" stroke="none"/>
    </g>
    <g id="sprite55" transform="matrix(1.0, 0.0, 0.0, 1.0, 0.75, 0.75)">
      <use ffdec:characterId="57" height="50.15" transform="matrix(1.0, 0.0, 0.0, 1.0, -0.75, -0.75)" width="55.4" xlink:href="#shape1"/>
    </g>
    <g id="shape1" transform="matrix(1.0, 0.0, 0.0, 1.0, 0.75, 0.75)">
      <path d="M40.95 7.35 Q45.45 11.0 48.35 23.25 L48.3 23.2 49.6 29.65 49.7 29.75 Q48.65 30.95 48.1 32.45 46.95 36.05 50.55 38.5 L48.15 40.7 53.9 40.6 51.45 38.45 Q54.85 35.75 53.5 32.35 52.85 30.75 50.55 29.7 L50.6 29.45 49.3 23.0 Q46.05 9.55 41.0 6.2 L40.75 6.1 Q40.7 4.75 39.45 4.3 L39.25 4.9 38.35 6.95 Q36.45 11.75 34.45 18.0 L33.7 20.8 32.5 20.5 31.75 20.6 Q31.4 20.8 31.35 21.25 31.25 21.55 31.45 21.95 L32.05 22.4 33.2 22.65 Q31.6 28.15 30.8 33.25 L30.2 33.45 Q28.7 34.15 28.1 35.65 27.55 37.15 28.35 38.75 28.75 39.8 29.85 40.45 29.45 43.55 29.4 46.55 29.4 47.45 30.1 48.0 30.75 48.65 31.55 48.65 32.4 48.65 33.1 48.0 33.65 47.45 33.65 46.55 33.65 43.55 33.95 40.55 35.15 39.8 35.55 38.3 L35.7 37.95 35.75 37.95 36.1 37.9 Q42.7 33.8 40.3 28.3 L40.35 28.3 Q39.55 26.45 37.8 24.75 L36.6 23.7 36.35 23.55 36.35 23.35 37.3 23.6 38.0 23.45 38.45 22.85 38.3 22.15 37.75 21.7 36.75 21.45 36.85 21.1 37.0 21.1 37.35 20.9 Q45.25 17.85 43.5 11.85 43.0 10.25 42.1 8.85 L41.45 7.9 40.95 7.35 M40.7 8.55 L41.25 9.3 41.3 9.35 Q42.15 10.6 42.6 12.1 43.95 17.3 37.05 19.95 39.05 11.65 40.0 8.5 L40.2 7.9 40.7 8.55 M50.45 32.9 L50.55 32.6 50.75 32.45 51.0 32.45 51.2 32.75 51.2 32.95 51.0 33.25 50.65 33.15 50.45 32.9 M51.6 31.25 Q52.25 31.5 52.55 32.35 52.8 33.0 52.35 33.75 52.05 34.45 51.35 34.6 L49.85 34.55 Q49.25 34.15 49.0 33.45 48.8 32.65 49.1 32.05 49.45 31.3 50.25 31.1 L51.6 31.25 M20.65 0.85 L30.65 0.0 26.75 4.15 Q33.2 8.15 31.5 14.35 30.65 17.4 26.15 19.95 23.65 18.0 22.2 15.15 19.5 9.25 25.15 4.3 L20.65 0.85 M26.2 13.75 L26.3 14.35 26.75 14.6 27.2 14.5 27.55 14.05 27.4 13.55 27.05 13.25 26.4 13.4 26.2 13.75 M24.85 11.15 Q23.75 11.9 23.6 13.2 23.3 14.6 24.05 15.65 24.85 16.7 26.15 17.0 27.4 17.2 28.55 16.55 29.6 15.8 29.9 14.45 30.1 13.15 29.4 11.95 28.6 10.9 27.4 10.6 26.05 10.45 24.85 11.15 M19.5 18.0 L15.6 6.95 14.7 4.9 14.45 4.3 Q13.25 4.75 13.25 6.1 L13.0 6.2 Q7.9 9.55 4.7 23.0 L4.65 23.0 3.45 29.45 3.5 29.7 Q1.1 30.75 0.45 32.35 -0.9 35.75 2.5 38.45 L0.0 40.6 5.8 40.7 3.4 38.5 Q7.0 36.05 5.85 32.45 5.3 31.0 4.35 29.8 L4.45 29.6 Q4.9 26.5 5.65 23.2 L5.65 23.25 Q8.55 10.75 13.2 7.25 L12.55 7.9 11.85 8.9 Q10.9 10.25 10.45 11.85 8.7 17.85 16.65 20.9 L16.95 21.1 17.15 21.1 17.2 21.4 16.15 21.6 Q15.75 21.65 15.55 22.05 15.35 22.4 15.45 22.8 15.5 23.15 15.9 23.35 L16.6 23.5 17.6 23.25 17.65 23.55 Q17.5 23.55 17.4 23.7 L16.2 24.75 16.15 24.75 Q14.4 26.45 13.65 28.3 11.25 33.8 17.85 37.9 L18.25 37.95 18.4 38.3 Q18.8 39.7 20.05 40.55 L20.3 46.55 Q20.3 47.45 20.85 48.0 21.55 48.65 22.35 48.65 23.2 48.65 23.8 48.0 24.55 47.45 24.55 46.55 L24.2 40.45 Q25.15 39.8 25.6 38.75 26.4 37.15 25.85 35.65 25.25 34.15 23.75 33.45 L23.2 33.25 Q22.3 28.1 20.75 22.55 L21.9 22.3 22.45 21.85 22.6 21.15 22.2 20.5 21.45 20.4 20.25 20.65 19.5 18.0 M13.8 7.95 L13.95 8.5 16.95 19.95 Q9.95 17.3 11.35 12.1 11.75 10.6 12.65 9.35 L12.7 9.3 13.25 8.55 13.8 7.95 M16.85 25.45 L17.85 24.55 Q18.85 29.3 19.45 34.0 L18.45 35.3 Q18.1 36.1 18.1 36.85 12.55 33.4 14.55 28.7 L14.6 28.7 Q15.25 27.0 16.85 25.5 L16.85 25.45 M3.5 32.9 L3.4 32.6 3.2 32.45 2.95 32.45 2.75 32.75 2.75 32.95 2.95 33.25 3.25 33.15 3.5 32.9 M1.4 32.35 Q1.15 33.0 1.6 33.75 1.9 34.45 2.6 34.6 L4.1 34.55 Q4.7 34.15 4.9 33.45 5.15 32.65 4.85 32.05 4.5 31.3 3.7 31.1 L2.35 31.25 Q1.65 31.5 1.4 32.35 M19.0 37.95 L19.45 38.9 Q19.65 39.2 20.0 39.35 21.1 40.25 22.35 39.95 L22.2 39.95 Q20.65 39.1 19.9 38.0 19.05 36.95 18.9 35.65 18.65 36.85 19.0 37.95 M37.15 25.5 Q38.7 27.0 39.4 28.7 41.4 33.4 35.9 36.85 L35.5 35.3 34.6 34.0 Q35.1 29.3 36.15 24.55 L37.15 25.5 M28.95 35.45 Q29.25 34.9 29.85 34.6 L30.8 34.45 Q31.4 34.45 31.5 34.8 L31.55 34.95 30.9 35.65 Q30.05 36.05 29.95 36.85 L29.6 37.75 29.25 37.7 Q28.7 37.3 28.6 36.65 28.55 36.05 28.95 35.45 M25.3 36.65 Q25.4 36.05 25.0 35.45 L24.1 34.6 23.15 34.45 Q22.55 34.45 22.45 34.8 L22.35 34.95 Q22.3 35.2 23.05 35.65 23.9 36.05 23.95 36.85 L24.35 37.75 24.7 37.7 Q25.25 37.3 25.3 36.65 M34.5 38.9 L33.95 39.35 Q32.85 40.25 31.55 39.95 L31.7 39.95 Q33.3 39.1 34.05 38.0 34.85 36.95 35.0 35.65 35.3 36.85 35.0 37.95 L34.5 38.9 Z" fill="none" stroke="#000000" stroke-linecap="round" stroke-linejoin="round" stroke-opacity="0.2" stroke-width="1.5"/>
    </g>
    <g id="sprite56" transform="matrix(1.0, 0.0, 0.0, 1.0, 0.0, 0.0)">
      <use ffdec:characterId="59" height="48.65" transform="matrix(1.0, 0.0, 0.0, 1.0, 0.0, 0.0)" width="53.9" xlink:href="#shape2"/>
    </g>
    <g id="shape2" transform="matrix(1.0, 0.0, 0.0, 1.0, 0.0, 0.0)">
      <path d="M40.95 7.35 L41.45 7.9 42.1 8.85 Q43.0 10.25 43.5 11.85 45.25 17.85 37.35 20.9 L37.0 21.1 36.85 21.1 36.75 21.45 37.75 21.7 38.3 22.15 38.45 22.85 38.0 23.45 37.3 23.6 36.35 23.35 36.35 23.55 36.6 23.7 37.8 24.75 Q39.55 26.45 40.35 28.3 L40.3 28.3 Q42.7 33.8 36.1 37.9 L35.75 37.95 35.7 37.95 35.55 38.3 Q35.15 39.8 33.95 40.55 33.65 43.55 33.65 46.55 33.65 47.45 33.1 48.0 32.4 48.65 31.55 48.65 30.75 48.65 30.1 48.0 29.4 47.45 29.4 46.55 29.45 43.55 29.85 40.45 28.75 39.8 28.35 38.75 27.55 37.15 28.1 35.65 28.7 34.15 30.2 33.45 L30.8 33.25 Q31.6 28.15 33.2 22.65 L32.05 22.4 31.45 21.95 Q31.25 21.55 31.35 21.25 31.4 20.8 31.75 20.6 L32.5 20.5 33.7 20.8 34.45 18.0 Q36.45 11.75 38.35 6.95 L39.25 4.9 39.45 4.3 Q40.7 4.75 40.75 6.1 L41.0 6.2 Q46.05 9.55 49.3 23.0 L50.6 29.45 50.55 29.7 Q52.85 30.75 53.5 32.35 54.85 35.75 51.45 38.45 L53.9 40.6 48.15 40.7 50.55 38.5 Q46.95 36.05 48.1 32.45 48.65 30.95 49.7 29.75 L49.6 29.65 48.3 23.2 48.35 23.25 Q45.45 11.0 40.95 7.35 M40.7 8.55 L40.2 7.9 40.0 8.5 Q39.05 11.65 37.05 19.95 43.95 17.3 42.6 12.1 42.15 10.6 41.3 9.35 L41.25 9.3 40.7 8.55 M50.45 32.9 L50.55 32.6 50.75 32.45 51.0 32.45 51.2 32.75 51.2 32.95 51.0 33.25 50.65 33.15 50.45 32.9 M51.6 31.25 L50.25 31.1 Q49.45 31.3 49.1 32.05 48.8 32.65 49.0 33.45 49.25 34.15 49.85 34.55 L51.35 34.6 Q52.05 34.45 52.35 33.75 52.8 33.0 52.55 32.35 52.25 31.5 51.6 31.25 M20.65 0.85 L30.65 0.0 26.75 4.15 Q33.2 8.15 31.5 14.35 30.65 17.4 26.15 19.95 23.65 18.0 22.2 15.15 19.5 9.25 25.15 4.3 L20.65 0.85 M26.2 13.75 L26.4 13.4 27.05 13.25 27.4 13.55 27.55 14.05 27.2 14.5 26.75 14.6 26.3 14.35 26.2 13.75 M24.85 11.15 Q23.75 11.9 23.6 13.2 23.3 14.6 24.05 15.65 24.85 16.7 26.15 17.0 27.4 17.2 28.55 16.55 29.6 15.8 29.9 14.45 30.1 13.15 29.4 11.95 28.6 10.9 27.4 10.6 26.05 10.45 24.85 11.15 M3.5 32.9 L3.25 33.15 2.95 33.25 2.75 32.95 2.75 32.75 2.95 32.45 3.2 32.45 3.4 32.6 3.5 32.9 M16.85 25.45 L16.85 25.5 Q15.25 27.0 14.6 28.7 L14.55 28.7 Q12.55 33.4 18.1 36.85 18.1 36.1 18.45 35.3 L19.45 34.0 Q18.85 29.3 17.85 24.55 L16.85 25.45 M13.95 8.5 L13.8 7.95 13.25 8.55 12.7 9.3 12.65 9.35 Q11.75 10.6 11.35 12.1 9.95 17.3 16.95 19.95 L13.95 8.5 M19.5 18.0 L20.25 20.65 21.45 20.4 22.2 20.5 22.6 21.15 22.45 21.85 21.9 22.3 20.75 22.55 Q22.3 28.1 23.2 33.25 L23.75 33.45 Q25.25 34.15 25.85 35.65 26.4 37.15 25.6 38.75 25.15 39.8 24.2 40.45 L24.55 46.55 Q24.55 47.45 23.8 48.0 23.2 48.65 22.35 48.65 21.55 48.65 20.85 48.0 20.3 47.45 20.3 46.55 L20.05 40.55 Q18.8 39.7 18.4 38.3 L18.25 37.95 17.85 37.9 Q11.25 33.8 13.65 28.3 14.4 26.45 16.15 24.75 L16.2 24.75 17.4 23.7 Q17.5 23.55 17.65 23.55 L17.6 23.25 16.6 23.5 15.9 23.35 Q15.5 23.15 15.45 22.8 15.35 22.4 15.55 22.05 15.75 21.65 16.15 21.6 L17.2 21.4 17.15 21.1 16.95 21.1 16.65 20.9 Q8.7 17.85 10.45 11.85 10.9 10.25 11.85 8.9 L12.55 7.9 13.2 7.25 Q8.55 10.75 5.65 23.25 L5.65 23.2 Q4.9 26.5 4.45 29.6 L4.35 29.8 Q5.3 31.0 5.85 32.45 7.0 36.05 3.4 38.5 L5.8 40.7 0.0 40.6 2.5 38.45 Q-0.9 35.75 0.45 32.35 1.1 30.75 3.5 29.7 L3.45 29.45 4.65 23.0 4.7 23.0 Q7.9 9.55 13.0 6.2 L13.25 6.1 Q13.25 4.75 14.45 4.3 L14.7 4.9 15.6 6.95 19.5 18.0 M1.4 32.35 Q1.15 33.0 1.6 33.75 1.9 34.45 2.6 34.6 L4.1 34.55 Q4.7 34.15 4.9 33.45 5.15 32.65 4.85 32.05 4.5 31.3 3.7 31.1 L2.35 31.25 Q1.65 31.5 1.4 32.35 M19.0 37.95 L19.45 38.9 Q19.65 39.2 20.0 39.35 21.1 40.25 22.35 39.95 L22.2 39.95 Q20.65 39.1 19.9 38.0 19.05 36.95 18.9 35.65 18.65 36.85 19.0 37.95 M37.15 25.5 L36.15 24.55 Q35.1 29.3 34.6 34.0 L35.5 35.3 35.9 36.85 Q41.4 33.4 39.4 28.7 38.7 27.0 37.15 25.5 M25.3 36.65 Q25.4 36.05 25.0 35.45 L24.1 34.6 23.15 34.45 Q22.55 34.45 22.45 34.8 L22.35 34.95 Q22.3 35.2 23.05 35.65 23.9 36.05 23.95 36.85 L24.35 37.75 24.7 37.7 Q25.25 37.3 25.3 36.65 M34.5 38.9 L35.0 37.95 Q35.3 36.85 35.0 35.65 34.85 36.95 34.05 38.0 33.3 39.1 31.7 39.95 L31.55 39.95 Q32.85 40.25 33.95 39.35 L34.5 38.9 M28.95 35.45 Q28.55 36.05 28.6 36.65 28.7 37.3 29.25 37.7 L29.6 37.75 29.95 36.85 Q30.05 36.05 30.9 35.65 L31.55 34.95 31.5 34.8 Q31.4 34.45 30.8 34.45 L29.85 34.6 Q29.25 34.9 28.95 35.45" fill="#000000" fill-rule="evenodd" stroke="none"/>
    </g>
  </defs>
</svg>
