<?xml version="1.0" encoding="UTF-8" standalone="no"?>
<svg xmlns:ffdec="https://www.free-decompiler.com/flash" xmlns:xlink="http://www.w3.org/1999/xlink" ffdec:objectType="frame" height="56.0px" width="56.0px" xmlns="http://www.w3.org/2000/svg">
  <g transform="matrix(1.0, 0.0, 0.0, 1.0, 0.0, 0.0)">
    <use ffdec:characterId="57" ffdec:characterName="148_fla.Symbole168_1" height="56.0" id="back" transform="matrix(1.0, 0.0, 0.0, 1.0, 0.0, 0.0)" width="56.0" xlink:href="#sprite0"/>
    <use ffdec:characterId="59" height="53.6" id="back" transform="matrix(1.0, 0.0, 0.0, 1.0, 0.4, 1.4)" width="55.4" xlink:href="#sprite56"/>
    <use ffdec:characterId="61" height="52.15" id="up" transform="matrix(1.0, 0.0, 0.0, 1.0, 1.2, 2.15)" width="53.9" xlink:href="#sprite57"/>
  </g>
  <defs>
    <g id="sprite0" transform="matrix(1.0, 0.0, 0.0, 1.0, 0.0, 0.0)">
      <use ffdec:characterId="56" ffdec:characterName="148_fla.Symbole165_2" height="56.0" id="back" transform="matrix(1.0, 0.0, 0.0, 1.0, 0.0, 0.0)" width="56.0" xlink:href="#sprite1"/>
    </g>
    <g id="sprite1" transform="matrix(1.0, 0.0, 0.0, 1.0, 0.0, 0.0)">
      <use ffdec:characterId="55" ffdec:characterName="148_fla.Symbole162_3" height="56.0" id="back" transform="matrix(1.0, 0.0, 0.0, 1.0, 0.0, 0.0)" width="56.0" xlink:href="#sprite2"/>
    </g>
    <g id="sprite2" transform="matrix(1.0, 0.0, 0.0, 1.0, 0.0, 0.0)">
      <use ffdec:characterId="54" ffdec:characterName="148_fla.Symbole159_4" height="56.0" id="back" transform="matrix(1.0, 0.0, 0.0, 1.0, 0.0, 0.0)" width="56.0" xlink:href="#sprite3"/>
    </g>
    <g id="sprite3" transform="matrix(1.0, 0.0, 0.0, 1.0, 0.0, 0.0)">
      <use ffdec:characterId="53" ffdec:characterName="148_fla.Symbole156_5" height="56.0" id="back" transform="matrix(1.0, 0.0, 0.0, 1.0, 0.0, 0.0)" width="56.0" xlink:href="#sprite4"/>
    </g>
    <g id="sprite4" transform="matrix(1.0, 0.0, 0.0, 1.0, 0.0, 0.0)">
      <use ffdec:characterId="52" ffdec:characterName="148_fla.Symbole153_6" height="56.0" id="back" transform="matrix(1.0, 0.0, 0.0, 1.0, 0.0, 0.0)" width="56.0" xlink:href="#sprite5"/>
    </g>
    <g id="sprite5" transform="matrix(1.0, 0.0, 0.0, 1.0, 0.0, 0.0)">
      <use ffdec:characterId="51" ffdec:characterName="148_fla.Symbole150_7" height="56.0" id="back" transform="matrix(1.0, 0.0, 0.0, 1.0, 0.0, 0.0)" width="56.0" xlink:href="#sprite6"/>
    </g>
    <g id="sprite6" transform="matrix(1.0, 0.0, 0.0, 1.0, 0.0, 0.0)">
      <use ffdec:characterId="50" ffdec:characterName="148_fla.Symbole147_8" height="56.0" id="back" transform="matrix(1.0, 0.0, 0.0, 1.0, 0.0, 0.0)" width="56.0" xlink:href="#sprite7"/>
    </g>
    <g id="sprite7" transform="matrix(1.0, 0.0, 0.0, 1.0, 0.0, 0.0)">
      <use ffdec:characterId="49" ffdec:characterName="148_fla.Symbole144_9" height="56.0" id="back" transform="matrix(1.0, 0.0, 0.0, 1.0, 0.0, 0.0)" width="56.0" xlink:href="#sprite8"/>
    </g>
    <g id="sprite8" transform="matrix(1.0, 0.0, 0.0, 1.0, 0.0, 0.0)">
      <use ffdec:characterId="48" ffdec:characterName="148_fla.Symbole141_10" height="56.0" id="back" transform="matrix(1.0, 0.0, 0.0, 1.0, 0.0, 0.0)" width="56.0" xlink:href="#sprite9"/>
    </g>
    <g id="sprite9" transform="matrix(1.0, 0.0, 0.0, 1.0, 0.0, 0.0)">
      <use ffdec:characterId="47" ffdec:characterName="148_fla.Symbole138_11" height="56.0" id="back" transform="matrix(1.0, 0.0, 0.0, 1.0, 0.0, 0.0)" width="56.0" xlink:href="#sprite10"/>
    </g>
    <g id="sprite10" transform="matrix(1.0, 0.0, 0.0, 1.0, 0.0, 0.0)">
      <use ffdec:characterId="46" ffdec:characterName="148_fla.Symbole135_12" height="56.0" id="back" transform="matrix(1.0, 0.0, 0.0, 1.0, 0.0, 0.0)" width="56.0" xlink:href="#sprite11"/>
    </g>
    <g id="sprite11" transform="matrix(1.0, 0.0, 0.0, 1.0, 0.0, 0.0)">
      <use ffdec:characterId="45" ffdec:characterName="148_fla.Symbole132_13" height="56.0" id="back" transform="matrix(1.0, 0.0, 0.0, 1.0, 0.0, 0.0)" width="56.0" xlink:href="#sprite12"/>
    </g>
    <g id="sprite12" transform="matrix(1.0, 0.0, 0.0, 1.0, 0.0, 0.0)">
      <use ffdec:characterId="44" ffdec:characterName="148_fla.Symbole129_14" height="56.0" id="back" transform="matrix(1.0, 0.0, 0.0, 1.0, 0.0, 0.0)" width="56.0" xlink:href="#sprite13"/>
    </g>
    <g id="sprite13" transform="matrix(1.0, 0.0, 0.0, 1.0, 0.0, 0.0)">
      <use ffdec:characterId="43" ffdec:characterName="148_fla.Symbole126_15" height="56.0" id="back" transform="matrix(1.0, 0.0, 0.0, 1.0, 0.0, 0.0)" width="56.0" xlink:href="#sprite14"/>
    </g>
    <g id="sprite14" transform="matrix(1.0, 0.0, 0.0, 1.0, 0.0, 0.0)">
      <use ffdec:characterId="42" ffdec:characterName="148_fla.Symbole123_16" height="56.0" id="back" transform="matrix(1.0, 0.0, 0.0, 1.0, 0.0, 0.0)" width="56.0" xlink:href="#sprite15"/>
    </g>
    <g id="sprite15" transform="matrix(1.0, 0.0, 0.0, 1.0, 0.0, 0.0)">
      <use ffdec:characterId="41" ffdec:characterName="148_fla.Symbole120_17" height="56.0" id="back" transform="matrix(1.0, 0.0, 0.0, 1.0, 0.0, 0.0)" width="56.0" xlink:href="#sprite16"/>
    </g>
    <g id="sprite16" transform="matrix(1.0, 0.0, 0.0, 1.0, 0.0, 0.0)">
      <use ffdec:characterId="40" ffdec:characterName="148_fla.Symbole117_18" height="56.0" id="back" transform="matrix(1.0, 0.0, 0.0, 1.0, 0.0, 0.0)" width="56.0" xlink:href="#sprite17"/>
    </g>
    <g id="sprite17" transform="matrix(1.0, 0.0, 0.0, 1.0, 0.0, 0.0)">
      <use ffdec:characterId="39" ffdec:characterName="148_fla.Symbole114_19" height="56.0" id="back" transform="matrix(1.0, 0.0, 0.0, 1.0, 0.0, 0.0)" width="56.0" xlink:href="#sprite18"/>
    </g>
    <g id="sprite18" transform="matrix(1.0, 0.0, 0.0, 1.0, 0.0, 0.0)">
      <use ffdec:characterId="38" ffdec:characterName="148_fla.Symbole111_20" height="56.0" id="back" transform="matrix(1.0, 0.0, 0.0, 1.0, 0.0, 0.0)" width="56.0" xlink:href="#sprite19"/>
    </g>
    <g id="sprite19" transform="matrix(1.0, 0.0, 0.0, 1.0, 0.0, 0.0)">
      <use ffdec:characterId="37" ffdec:characterName="148_fla.Symbole108_21" height="56.0" id="back" transform="matrix(1.0, 0.0, 0.0, 1.0, 0.0, 0.0)" width="56.0" xlink:href="#sprite20"/>
    </g>
    <g id="sprite20" transform="matrix(1.0, 0.0, 0.0, 1.0, 0.0, 0.0)">
      <use ffdec:characterId="36" ffdec:characterName="148_fla.Symbole105_22" height="56.0" id="back" transform="matrix(1.0, 0.0, 0.0, 1.0, 0.0, 0.0)" width="56.0" xlink:href="#sprite21"/>
    </g>
    <g id="sprite21" transform="matrix(1.0, 0.0, 0.0, 1.0, 0.0, 0.0)">
      <use ffdec:characterId="35" ffdec:characterName="148_fla.Symbole102_23" height="56.0" id="back" transform="matrix(1.0, 0.0, 0.0, 1.0, 0.0, 0.0)" width="56.0" xlink:href="#sprite22"/>
    </g>
    <g id="sprite22" transform="matrix(1.0, 0.0, 0.0, 1.0, 0.0, 0.0)">
      <use ffdec:characterId="34" ffdec:characterName="148_fla.Symbole99_24" height="56.0" id="back" transform="matrix(1.0, 0.0, 0.0, 1.0, 0.0, 0.0)" width="56.0" xlink:href="#sprite23"/>
    </g>
    <g id="sprite23" transform="matrix(1.0, 0.0, 0.0, 1.0, 0.0, 0.0)">
      <use ffdec:characterId="33" ffdec:characterName="148_fla.Symbole96_25" height="56.0" id="back" transform="matrix(1.0, 0.0, 0.0, 1.0, 0.0, 0.0)" width="56.0" xlink:href="#sprite24"/>
    </g>
    <g id="sprite24" transform="matrix(1.0, 0.0, 0.0, 1.0, 0.0, 0.0)">
      <use ffdec:characterId="32" ffdec:characterName="148_fla.Symbole93_26" height="56.0" id="back" transform="matrix(1.0, 0.0, 0.0, 1.0, 0.0, 0.0)" width="56.0" xlink:href="#sprite25"/>
    </g>
    <g id="sprite25" transform="matrix(1.0, 0.0, 0.0, 1.0, 0.0, 0.0)">
      <use ffdec:characterId="31" ffdec:characterName="148_fla.Symbole90_27" height="56.0" id="back" transform="matrix(1.0, 0.0, 0.0, 1.0, 0.0, 0.0)" width="56.0" xlink:href="#sprite26"/>
    </g>
    <g id="sprite26" transform="matrix(1.0, 0.0, 0.0, 1.0, 0.0, 0.0)">
      <use ffdec:characterId="30" ffdec:characterName="148_fla.Symbole87_28" height="56.0" id="back" transform="matrix(1.0, 0.0, 0.0, 1.0, 0.0, 0.0)" width="56.0" xlink:href="#sprite27"/>
    </g>
    <g id="sprite27" transform="matrix(1.0, 0.0, 0.0, 1.0, 0.0, 0.0)">
      <use ffdec:characterId="29" ffdec:characterName="148_fla.Symbole84_29" height="56.0" id="back" transform="matrix(1.0, 0.0, 0.0, 1.0, 0.0, 0.0)" width="56.0" xlink:href="#sprite28"/>
    </g>
    <g id="sprite28" transform="matrix(1.0, 0.0, 0.0, 1.0, 0.0, 0.0)">
      <use ffdec:characterId="28" ffdec:characterName="148_fla.Symbole81_30" height="56.0" id="back" transform="matrix(1.0, 0.0, 0.0, 1.0, 0.0, 0.0)" width="56.0" xlink:href="#sprite29"/>
    </g>
    <g id="sprite29" transform="matrix(1.0, 0.0, 0.0, 1.0, 0.0, 0.0)">
      <use ffdec:characterId="27" ffdec:characterName="148_fla.Symbole78_31" height="56.0" id="back" transform="matrix(1.0, 0.0, 0.0, 1.0, 0.0, 0.0)" width="56.0" xlink:href="#sprite30"/>
    </g>
    <g id="sprite30" transform="matrix(1.0, 0.0, 0.0, 1.0, 0.0, 0.0)">
      <use ffdec:characterId="26" ffdec:characterName="148_fla.Symbole75_32" height="56.0" id="back" transform="matrix(1.0, 0.0, 0.0, 1.0, 0.0, 0.0)" width="56.0" xlink:href="#sprite31"/>
    </g>
    <g id="sprite31" transform="matrix(1.0, 0.0, 0.0, 1.0, 0.0, 0.0)">
      <use ffdec:characterId="25" ffdec:characterName="148_fla.Symbole72_33" height="56.0" id="back" transform="matrix(1.0, 0.0, 0.0, 1.0, 0.0, 0.0)" width="56.0" xlink:href="#sprite32"/>
    </g>
    <g id="sprite32" transform="matrix(1.0, 0.0, 0.0, 1.0, 0.0, 0.0)">
      <use ffdec:characterId="24" ffdec:characterName="148_fla.Symbole69_34" height="56.0" id="back" transform="matrix(1.0, 0.0, 0.0, 1.0, 0.0, 0.0)" width="56.0" xlink:href="#sprite33"/>
    </g>
    <g id="sprite33" transform="matrix(1.0, 0.0, 0.0, 1.0, 0.0, 0.0)">
      <use ffdec:characterId="23" ffdec:characterName="148_fla.Symbole66_35" height="56.0" id="back" transform="matrix(1.0, 0.0, 0.0, 1.0, 0.0, 0.0)" width="56.0" xlink:href="#sprite34"/>
    </g>
    <g id="sprite34" transform="matrix(1.0, 0.0, 0.0, 1.0, 0.0, 0.0)">
      <use ffdec:characterId="22" ffdec:characterName="148_fla.Symbole63_36" height="56.0" id="back" transform="matrix(1.0, 0.0, 0.0, 1.0, 0.0, 0.0)" width="56.0" xlink:href="#sprite35"/>
    </g>
    <g id="sprite35" transform="matrix(1.0, 0.0, 0.0, 1.0, 0.0, 0.0)">
      <use ffdec:characterId="21" ffdec:characterName="148_fla.Symbole60_37" height="56.0" id="back" transform="matrix(1.0, 0.0, 0.0, 1.0, 0.0, 0.0)" width="56.0" xlink:href="#sprite36"/>
    </g>
    <g id="sprite36" transform="matrix(1.0, 0.0, 0.0, 1.0, 0.0, 0.0)">
      <use ffdec:characterId="20" ffdec:characterName="148_fla.Symbole57_38" height="56.0" id="back" transform="matrix(1.0, 0.0, 0.0, 1.0, 0.0, 0.0)" width="56.0" xlink:href="#sprite37"/>
    </g>
    <g id="sprite37" transform="matrix(1.0, 0.0, 0.0, 1.0, 0.0, 0.0)">
      <use ffdec:characterId="19" ffdec:characterName="148_fla.Symbole54_39" height="56.0" id="back" transform="matrix(1.0, 0.0, 0.0, 1.0, 0.0, 0.0)" width="56.0" xlink:href="#sprite38"/>
    </g>
    <g id="sprite38" transform="matrix(1.0, 0.0, 0.0, 1.0, 0.0, 0.0)">
      <use ffdec:characterId="18" ffdec:characterName="148_fla.Symbole51_40" height="56.0" id="back" transform="matrix(1.0, 0.0, 0.0, 1.0, 0.0, 0.0)" width="56.0" xlink:href="#sprite39"/>
    </g>
    <g id="sprite39" transform="matrix(1.0, 0.0, 0.0, 1.0, 0.0, 0.0)">
      <use ffdec:characterId="17" ffdec:characterName="148_fla.Symbole48_41" height="56.0" id="back" transform="matrix(1.0, 0.0, 0.0, 1.0, 0.0, 0.0)" width="56.0" xlink:href="#sprite40"/>
    </g>
    <g id="sprite40" transform="matrix(1.0, 0.0, 0.0, 1.0, 0.0, 0.0)">
      <use ffdec:characterId="16" ffdec:characterName="148_fla.Symbole45_42" height="56.0" id="back" transform="matrix(1.0, 0.0, 0.0, 1.0, 0.0, 0.0)" width="56.0" xlink:href="#sprite41"/>
    </g>
    <g id="sprite41" transform="matrix(1.0, 0.0, 0.0, 1.0, 0.0, 0.0)">
      <use ffdec:characterId="15" ffdec:characterName="148_fla.Symbole42_43" height="56.0" id="back" transform="matrix(1.0, 0.0, 0.0, 1.0, 0.0, 0.0)" width="56.0" xlink:href="#sprite42"/>
    </g>
    <g id="sprite42" transform="matrix(1.0, 0.0, 0.0, 1.0, 0.0, 0.0)">
      <use ffdec:characterId="14" ffdec:characterName="148_fla.Symbole39_44" height="56.0" id="back" transform="matrix(1.0, 0.0, 0.0, 1.0, 0.0, 0.0)" width="56.0" xlink:href="#sprite43"/>
    </g>
    <g id="sprite43" transform="matrix(1.0, 0.0, 0.0, 1.0, 0.0, 0.0)">
      <use ffdec:characterId="13" ffdec:characterName="148_fla.Symbole36_45" height="56.0" id="back" transform="matrix(1.0, 0.0, 0.0, 1.0, 0.0, 0.0)" width="56.0" xlink:href="#sprite44"/>
    </g>
    <g id="sprite44" transform="matrix(1.0, 0.0, 0.0, 1.0, 0.0, 0.0)">
      <use ffdec:characterId="12" ffdec:characterName="148_fla.Symbole33_46" height="56.0" id="back" transform="matrix(1.0, 0.0, 0.0, 1.0, 0.0, 0.0)" width="56.0" xlink:href="#sprite45"/>
    </g>
    <g id="sprite45" transform="matrix(1.0, 0.0, 0.0, 1.0, 0.0, 0.0)">
      <use ffdec:characterId="11" ffdec:characterName="148_fla.Symbole30_47" height="56.0" id="back" transform="matrix(1.0, 0.0, 0.0, 1.0, 0.0, 0.0)" width="56.0" xlink:href="#sprite46"/>
    </g>
    <g id="sprite46" transform="matrix(1.0, 0.0, 0.0, 1.0, 0.0, 0.0)">
      <use ffdec:characterId="10" ffdec:characterName="148_fla.Symbole27_48" height="56.0" id="back" transform="matrix(1.0, 0.0, 0.0, 1.0, 0.0, 0.0)" width="56.0" xlink:href="#sprite47"/>
    </g>
    <g id="sprite47" transform="matrix(1.0, 0.0, 0.0, 1.0, 0.0, 0.0)">
      <use ffdec:characterId="9" ffdec:characterName="148_fla.Symbole24_49" height="56.0" id="back" transform="matrix(1.0, 0.0, 0.0, 1.0, 0.0, 0.0)" width="56.0" xlink:href="#sprite48"/>
    </g>
    <g id="sprite48" transform="matrix(1.0, 0.0, 0.0, 1.0, 0.0, 0.0)">
      <use ffdec:characterId="8" ffdec:characterName="148_fla.Symbole21_50" height="56.0" id="back" transform="matrix(1.0, 0.0, 0.0, 1.0, 0.0, 0.0)" width="56.0" xlink:href="#sprite49"/>
    </g>
    <g id="sprite49" transform="matrix(1.0, 0.0, 0.0, 1.0, 0.0, 0.0)">
      <use ffdec:characterId="7" ffdec:characterName="148_fla.Symbole18_51" height="56.0" id="back" transform="matrix(1.0, 0.0, 0.0, 1.0, 0.0, 0.0)" width="56.0" xlink:href="#sprite50"/>
    </g>
    <g id="sprite50" transform="matrix(1.0, 0.0, 0.0, 1.0, 0.0, 0.0)">
      <use ffdec:characterId="6" ffdec:characterName="148_fla.Symbole15_52" height="56.0" id="back" transform="matrix(1.0, 0.0, 0.0, 1.0, 0.0, 0.0)" width="56.0" xlink:href="#sprite51"/>
    </g>
    <g id="sprite51" transform="matrix(1.0, 0.0, 0.0, 1.0, 0.0, 0.0)">
      <use ffdec:characterId="5" ffdec:characterName="148_fla.Symbole12_53" height="56.0" id="back" transform="matrix(1.0, 0.0, 0.0, 1.0, 0.0, 0.0)" width="56.0" xlink:href="#sprite52"/>
    </g>
    <g id="sprite52" transform="matrix(1.0, 0.0, 0.0, 1.0, 0.0, 0.0)">
      <use ffdec:characterId="4" ffdec:characterName="148_fla.Symbole9_54" height="56.0" id="back" transform="matrix(1.0, 0.0, 0.0, 1.0, 0.0, 0.0)" width="56.0" xlink:href="#sprite53"/>
    </g>
    <g id="sprite53" transform="matrix(1.0, 0.0, 0.0, 1.0, 0.0, 0.0)">
      <use ffdec:characterId="3" ffdec:characterName="148_fla.Symbole6_55" height="56.0" id="back" transform="matrix(1.0, 0.0, 0.0, 1.0, 0.0, 0.0)" width="56.0" xlink:href="#sprite54"/>
    </g>
    <g id="sprite54" transform="matrix(1.0, 0.0, 0.0, 1.0, 0.0, 0.0)">
      <use ffdec:characterId="2" height="56.0" id="back" transform="matrix(1.0, 0.0, 0.0, 1.0, 0.0, 0.0)" width="56.0" xlink:href="#sprite55"/>
    </g>
    <g id="sprite55" transform="matrix(1.0, 0.0, 0.0, 1.0, 0.0, 0.0)">
      <use ffdec:characterId="1" height="56.0" transform="matrix(1.0, 0.0, 0.0, 1.0, 0.0, 0.0)" width="56.0" xlink:href="#shape0"/>
    </g>
    <g id="shape0" transform="matrix(1.0, 0.0, 0.0, 1.0, 0.0, 0.0)">
      <path d="M56.0 56.0 L0.0 56.0 0.0 0.0 56.0 0.0 56.0 56.0" fill="#010101" fill-opacity="0.0" fill-rule="evenodd" stroke="none"/>
    </g>
    <g id="sprite56" transform="matrix(1.0, 0.0, 0.0, 1.0, 0.75, 0.75)">
      <use ffdec:characterId="58" height="53.6" transform="matrix(1.0, 0.0, 0.0, 1.0, -0.75, -0.75)" width="55.4" xlink:href="#shape1"/>
    </g>
    <g id="shape1" transform="matrix(1.0, 0.0, 0.0, 1.0, 0.75, 0.75)">
      <path d="M39.35 7.9 L39.2 7.95 39.2 8.15 39.25 8.2 40.7 9.15 40.95 9.3 41.0 9.15 41.1 9.0 40.95 8.75 39.5 7.9 39.35 7.9 M42.15 10.15 L43.6 11.1 43.85 11.2 44.0 11.05 44.0 10.9 43.85 10.75 42.4 9.75 42.3 9.75 Q42.15 9.75 42.15 9.85 L42.15 10.05 42.15 10.15 M45.2 11.75 L45.05 11.8 45.05 12.05 45.1 12.05 46.55 13.05 46.8 13.1 46.85 13.05 46.9 12.8 46.8 12.65 45.35 11.65 Q45.3 11.65 45.2 11.75 M48.15 13.6 Q48.0 13.6 48.0 13.7 L48.0 13.95 48.0 14.0 49.45 15.0 49.65 15.05 49.8 14.9 49.8 14.8 49.65 14.65 48.2 13.6 48.15 13.6 M39.65 18.6 L39.65 18.4 39.5 18.25 38.05 17.3 37.9 17.3 37.85 17.35 37.7 17.6 37.85 17.65 39.25 18.65 39.4 18.75 39.65 18.6 M40.85 19.15 L40.7 19.3 40.6 19.45 40.7 19.55 42.25 20.5 42.3 20.6 42.55 20.5 42.55 20.35 42.45 20.2 40.95 19.15 40.85 19.15 M43.6 21.25 L43.5 21.45 43.65 21.55 45.1 22.45 45.3 22.6 45.45 22.45 45.5 22.3 45.35 22.05 43.9 21.15 43.75 21.15 Q43.6 21.15 43.6 21.25 M50.85 15.7 L50.85 15.85 50.85 15.9 52.4 16.9 52.6 16.95 52.7 16.9 52.75 16.65 52.6 16.5 51.1 15.55 51.0 15.55 50.85 15.7 M53.9 17.85 Q53.85 16.15 52.6 15.3 L40.8 7.5 37.9 7.4 Q36.15 8.05 35.05 9.85 33.9 11.65 33.9 13.5 33.9 15.2 35.05 16.0 L24.35 32.15 Q33.5 39.55 47.4 48.25 L47.6 47.85 48.6 46.0 Q49.0 44.3 48.65 42.55 48.1 39.65 45.6 38.1 44.55 37.3 43.5 37.1 43.6 36.65 43.35 36.35 L43.35 36.25 42.8 35.8 41.9 35.9 41.7 36.05 41.75 35.3 41.7 35.2 41.15 34.5 40.45 34.2 40.35 34.2 40.55 33.2 42.05 33.05 42.8 32.55 42.85 31.6 42.3 31.1 41.5 30.95 42.4 29.6 42.4 29.65 Q43.3 30.0 44.2 29.65 L44.9 29.1 45.05 28.3 44.4 27.6 44.0 27.5 44.95 26.4 Q45.85 26.8 46.7 26.4 47.15 26.25 47.4 25.9 47.6 25.4 47.4 25.0 47.3 24.55 46.9 24.35 L47.2 24.1 47.2 23.95 47.7 24.2 47.6 24.1 46.1 23.1 46.0 23.05 46.1 22.9 46.25 22.75 46.35 22.75 47.85 23.75 48.0 23.9 47.95 24.1 47.8 24.2 47.7 24.2 Q48.65 24.45 49.95 23.9 51.65 23.25 52.75 21.55 54.0 19.7 53.9 17.85 M46.15 24.7 L46.7 24.7 47.05 25.2 46.9 25.65 46.65 25.9 45.2 26.0 Q44.0 25.55 42.8 23.8 L42.8 23.2 43.05 22.85 43.45 22.75 43.5 22.75 43.9 23.0 Q45.2 24.85 46.15 24.8 L46.15 24.7 M40.55 26.0 Q40.8 25.85 41.1 26.0 L41.5 26.25 Q42.7 28.05 43.65 28.0 L43.75 28.0 43.85 27.9 44.2 28.0 44.55 28.4 44.5 28.9 44.15 29.2 Q43.35 29.5 42.55 29.2 41.5 28.65 40.45 27.0 L40.35 26.45 40.55 26.05 40.55 26.0 M42.45 31.75 L42.3 32.35 42.0 32.7 40.6 32.75 40.7 32.75 Q39.5 32.4 38.2 30.4 L38.1 29.95 38.1 29.9 38.35 29.5 38.45 29.5 38.9 29.45 38.9 29.5 Q39.2 29.5 39.25 29.75 40.45 31.4 41.35 31.45 L41.4 31.45 41.55 31.35 42.05 31.45 42.45 31.75 M40.35 34.6 L40.95 34.9 41.35 35.35 41.25 35.8 41.1 35.95 40.85 36.1 40.8 36.1 40.35 36.05 Q39.05 35.35 37.55 36.6 L37.6 36.5 37.05 36.6 36.7 36.45 36.5 35.9 Q36.55 35.55 36.75 35.5 38.6 34.0 40.3 34.6 L40.35 34.6 M42.05 36.35 L42.6 36.25 Q42.95 36.25 43.05 36.5 L43.1 37.1 42.8 37.4 Q41.4 38.2 41.15 39.1 L40.95 39.55 40.35 39.65 39.95 39.4 39.9 38.9 Q40.1 37.7 41.7 36.6 L42.15 36.25 42.05 36.35 M21.5 9.5 L20.7 10.15 18.2 8.55 18.5 8.2 Q18.95 7.55 18.8 6.85 L18.3 5.95 18.2 6.1 18.15 6.2 17.4 6.6 16.6 6.45 16.05 5.7 Q16.0 5.2 16.2 4.85 L16.3 4.65 14.4 3.45 14.35 3.6 13.65 4.05 12.8 3.95 Q12.4 3.7 12.25 3.25 12.2 2.7 12.4 2.35 L12.5 2.15 11.0 1.15 10.9 1.3 10.15 1.85 9.4 1.7 8.8 0.95 Q8.8 0.5 8.95 0.2 L9.05 0.1 Q8.65 -0.05 8.35 0.1 7.65 0.2 7.2 0.9 L6.9 1.7 6.6 2.0 6.55 2.7 6.75 3.05 6.7 3.25 Q20.7 11.75 29.8 18.95 L30.6 18.95 Q31.5 18.8 32.0 18.05 32.55 17.3 32.3 16.35 L32.15 16.0 32.15 15.85 32.05 15.7 32.0 15.6 31.4 16.0 30.45 15.85 Q30.1 15.6 30.05 15.05 29.95 14.65 30.2 14.25 L28.3 12.95 27.55 13.5 26.6 13.35 Q26.25 13.1 26.2 12.55 26.1 12.1 26.35 11.75 L24.9 10.75 24.1 11.2 23.2 11.1 Q22.8 10.8 22.75 10.4 22.65 9.9 22.8 9.5 L22.3 9.45 21.75 9.5 21.5 9.5 M20.85 20.25 Q21.35 19.4 22.4 19.15 23.35 18.95 24.2 19.55 25.05 20.1 25.25 21.1 25.4 22.05 24.9 22.9 24.35 23.75 23.45 23.95 22.45 24.1 21.6 23.55 20.8 23.0 20.55 22.05 20.3 21.1 20.85 20.25 M35.45 16.1 L36.9 17.05 37.05 17.15 37.25 16.95 37.3 16.8 37.15 16.65 35.7 15.7 35.55 15.7 35.4 15.85 35.3 16.0 35.45 16.1 M5.1 6.2 Q4.6 7.9 5.0 9.6 5.55 12.5 8.05 14.1 9.1 14.8 10.15 15.0 L10.25 15.85 10.3 15.85 Q10.55 16.25 11.0 16.25 L11.75 16.25 12.1 16.0 12.1 16.1 Q11.85 16.4 12.0 16.8 L11.9 16.9 12.5 17.55 13.2 17.85 13.35 17.85 13.15 18.9 11.6 19.0 11.0 19.55 Q10.8 20.0 10.9 20.45 L11.35 21.0 12.25 21.15 11.35 22.5 11.3 22.45 Q10.4 22.05 9.5 22.45 L8.85 23.05 Q8.65 23.4 8.8 23.8 8.95 24.3 9.25 24.45 L9.85 24.65 8.85 25.75 8.8 25.75 Q8.0 25.35 7.05 25.75 6.6 25.85 6.45 26.25 6.2 26.7 6.35 27.15 L6.9 27.75 6.6 28.05 6.6 28.15 6.2 28.0 7.65 28.95 7.75 29.05 7.75 29.2 7.6 29.35 7.4 29.35 6.0 28.4 5.9 28.2 5.9 28.05 6.05 28.0 3.85 28.2 Q2.2 28.95 1.05 30.65 -0.15 32.5 0.0 34.25 0.1 36.1 1.2 36.85 L13.2 44.55 16.05 44.65 Q17.75 43.85 18.85 42.15 20.0 40.35 19.9 38.45 19.9 36.75 18.7 35.95 L29.25 19.7 Q20.15 12.5 6.2 3.9 L6.0 4.3 Q5.4 5.2 5.1 6.2 M16.55 15.45 Q16.85 15.45 17.1 15.7 L17.15 16.15 17.0 16.6 Q15.0 18.1 13.45 17.45 L12.75 17.2 12.35 16.75 Q12.25 16.5 12.4 16.25 L12.6 16.1 12.9 15.9 13.35 16.0 Q14.75 16.75 16.15 15.55 L16.55 15.45 M13.65 12.65 L13.8 13.25 Q13.65 14.5 12.1 15.55 L11.55 15.85 11.05 15.9 10.65 15.55 10.65 15.05 10.85 14.7 Q12.25 13.95 12.4 12.95 L12.75 12.55 Q12.95 12.4 13.3 12.4 L13.65 12.65 M13.05 19.25 Q14.25 19.7 15.55 21.65 L15.55 22.15 15.3 22.5 15.25 22.6 14.85 22.6 14.75 22.6 14.4 22.35 Q13.3 20.6 12.4 20.6 L12.25 20.6 12.2 20.7 12.15 20.7 11.7 20.6 11.35 20.35 11.35 19.7 11.75 19.4 13.05 19.3 13.05 19.25 M13.45 25.55 L13.2 25.9 13.15 26.0 12.75 26.05 12.65 26.05 12.25 25.8 Q11.0 23.95 10.1 24.1 L10.0 24.1 9.9 24.2 9.5 24.1 9.2 23.65 9.25 23.2 Q9.4 22.9 9.65 22.9 10.4 22.6 11.15 22.9 12.2 23.4 13.45 25.0 L13.45 25.55 M10.3 29.35 L10.25 29.35 9.85 29.05 Q8.65 27.2 7.6 27.3 L7.6 27.35 7.1 27.35 7.05 27.35 6.75 26.95 6.85 26.45 7.2 26.15 8.65 26.05 Q9.75 26.55 11.0 28.3 L11.0 28.8 Q11.0 29.1 10.7 29.2 10.45 29.45 10.3 29.35 M10.1 30.95 L10.25 30.9 10.25 30.65 10.15 30.55 8.65 29.6 8.55 29.5 8.4 29.65 8.4 29.85 8.4 29.95 9.9 30.95 10.1 30.95 M11.35 31.55 L11.3 31.7 11.35 31.85 12.8 32.85 13.05 32.85 13.2 32.75 13.2 32.55 13.05 32.5 11.6 31.45 11.45 31.4 11.35 31.55 M14.25 33.6 L14.35 33.85 15.8 34.75 15.95 34.75 16.05 34.65 16.05 34.45 16.0 34.35 14.6 33.45 14.4 33.3 14.25 33.45 14.25 33.6 M4.1 37.25 L4.1 37.3 4.2 37.5 5.7 38.45 5.8 38.45 5.9 38.35 6.0 38.2 5.9 38.1 4.4 37.1 4.25 37.1 4.1 37.25 M7.1 39.4 L8.55 40.35 8.8 40.35 8.8 40.3 8.95 40.15 8.8 40.0 7.35 39.0 7.2 39.0 7.0 39.15 7.05 39.25 7.1 39.4 M3.05 36.35 L3.0 36.2 1.55 35.2 1.35 35.2 1.15 35.35 1.2 35.45 1.3 35.55 2.75 36.6 2.9 36.6 3.0 36.5 3.05 36.35 M18.5 36.2 L18.5 35.95 18.35 35.9 16.9 35.0 16.75 34.9 Q16.6 34.9 16.6 35.0 L16.6 35.2 16.7 35.35 18.15 36.25 18.35 36.25 18.5 36.2 M9.9 41.05 L9.9 41.1 10.0 41.25 11.55 42.3 11.7 42.3 11.75 42.2 11.85 42.05 11.75 41.9 10.25 40.9 10.1 40.9 9.9 41.05 M12.95 43.2 L14.4 44.15 14.65 44.15 14.75 44.1 14.75 43.9 14.65 43.75 13.2 42.8 13.05 42.8 Q12.9 42.85 12.8 42.95 L12.9 43.0 12.95 43.2 M32.15 28.4 Q32.95 28.95 33.2 29.95 33.35 30.95 32.8 31.75 32.25 32.65 31.35 32.75 30.3 33.0 29.5 32.4 28.7 31.85 28.45 30.9 28.2 29.95 28.85 29.1 29.35 28.3 30.3 28.05 31.35 27.85 32.15 28.4 M23.05 32.9 Q22.15 33.15 21.7 33.95 21.2 34.65 21.3 35.5 L21.45 35.95 21.5 36.05 21.6 36.25 21.7 36.35 Q21.85 36.05 22.3 35.95 L23.15 36.1 23.7 36.85 23.5 37.7 25.4 39.0 26.2 38.45 Q26.5 38.35 26.9 38.6 27.4 38.85 27.45 39.4 L27.3 40.3 28.85 41.25 29.55 40.75 30.3 40.9 Q30.8 41.1 30.95 41.65 L30.7 42.4 31.35 42.55 31.75 42.45 32.05 42.4 Q32.6 42.3 32.9 41.9 L35.3 43.6 35.05 43.85 Q34.65 44.45 34.8 45.2 34.9 45.75 35.3 46.15 L35.3 46.0 Q35.4 45.9 35.55 45.85 35.7 45.6 36.1 45.45 L37.0 45.6 37.45 46.4 Q37.6 46.95 37.3 47.3 L37.25 47.45 39.15 48.65 39.2 48.5 39.9 48.0 40.8 48.1 41.25 48.95 41.1 49.8 41.0 49.95 42.55 50.9 42.6 50.75 Q42.95 50.5 43.35 50.35 L44.2 50.4 Q44.65 50.65 44.65 51.15 44.8 51.7 44.55 51.95 L44.5 52.05 45.2 52.1 Q45.95 51.95 46.35 51.4 L46.65 50.5 47.0 50.15 47.05 49.45 46.85 49.1 46.9 49.05 Q32.95 40.3 23.8 32.9 L23.05 32.9 Z" fill="none" stroke="#000000" stroke-linecap="round" stroke-linejoin="round" stroke-opacity="0.2" stroke-width="1.5"/>
    </g>
    <g id="sprite57" transform="matrix(1.0, 0.0, 0.0, 1.0, 0.0, 0.0)">
      <use ffdec:characterId="60" height="52.15" transform="matrix(1.0, 0.0, 0.0, 1.0, 0.0, 0.0)" width="53.9" xlink:href="#shape2"/>
    </g>
    <g id="shape2" transform="matrix(1.0, 0.0, 0.0, 1.0, 0.0, 0.0)">
      <path d="M39.35 7.85 Q39.2 7.85 39.2 7.95 L39.2 8.15 39.25 8.25 40.7 9.15 40.95 9.3 41.0 9.15 41.1 9.0 40.95 8.75 39.5 7.85 39.35 7.85 M42.15 10.05 L42.15 10.15 43.6 11.1 43.8 11.2 43.95 11.05 43.95 10.9 43.8 10.75 42.35 9.75 42.3 9.75 Q42.15 9.75 42.15 9.85 L42.15 10.05 M45.2 11.7 Q45.0 11.7 45.0 11.8 L45.0 12.05 45.1 12.05 46.55 13.0 46.75 13.1 46.85 13.0 46.9 12.8 46.75 12.65 45.35 11.65 45.2 11.7 M49.4 15.0 L49.65 15.05 49.8 14.9 49.8 14.75 49.65 14.6 48.2 13.6 48.15 13.6 Q48.0 13.6 48.0 13.7 L48.0 13.95 48.0 14.0 49.4 15.0 M39.5 18.25 L38.05 17.25 37.9 17.25 37.8 17.35 37.65 17.55 37.8 17.65 39.25 18.65 39.4 18.7 39.65 18.55 39.65 18.4 39.5 18.25 M40.85 19.15 L40.7 19.3 40.65 19.45 40.7 19.55 42.2 20.55 42.3 20.6 42.5 20.55 42.5 20.3 42.45 20.15 40.95 19.15 40.85 19.15 M43.5 21.45 L43.65 21.5 45.1 22.45 45.25 22.6 45.4 22.45 45.5 22.3 45.35 22.05 43.9 21.15 43.75 21.15 43.6 21.2 43.5 21.45 M50.85 15.9 L52.4 16.9 52.6 16.95 52.7 16.9 52.75 16.65 52.6 16.5 51.1 15.5 51.0 15.5 50.85 15.65 50.85 15.85 50.85 15.9 M22.35 19.15 Q21.35 19.4 20.85 20.25 20.3 21.05 20.55 22.05 20.75 22.95 21.6 23.55 22.45 24.1 23.4 23.95 24.35 23.7 24.85 22.9 25.4 22.05 25.25 21.05 25.0 20.1 24.2 19.55 23.35 18.95 22.35 19.15 M21.75 9.5 L22.3 9.45 22.8 9.5 Q22.65 9.9 22.75 10.35 22.8 10.8 23.2 11.1 L24.1 11.2 24.85 10.75 26.3 11.7 Q26.05 12.1 26.15 12.55 26.2 13.1 26.6 13.3 L27.5 13.45 28.25 12.95 30.15 14.25 Q29.95 14.6 30.0 15.05 30.1 15.6 30.45 15.85 L31.4 16.0 32.0 15.6 32.05 15.65 32.15 15.85 32.15 16.0 32.3 16.35 Q32.5 17.25 32.0 18.05 31.55 18.8 30.6 18.95 L29.8 18.95 Q20.7 11.7 6.65 3.2 L6.75 3.05 6.5 2.7 6.6 2.0 6.9 1.7 7.2 0.85 Q7.65 0.2 8.35 0.1 8.65 -0.05 9.0 0.1 L8.95 0.2 Q8.8 0.5 8.8 0.95 L9.4 1.7 10.15 1.85 10.9 1.3 11.0 1.15 12.5 2.15 12.45 2.3 Q12.2 2.7 12.25 3.2 L12.8 4.0 13.65 4.05 14.3 3.6 14.4 3.45 16.3 4.65 16.2 4.8 Q16.0 5.2 16.05 5.7 L16.6 6.4 17.45 6.55 18.1 6.2 18.2 6.1 18.25 5.95 18.8 6.85 Q18.95 7.55 18.5 8.25 L18.2 8.55 20.7 10.15 21.5 9.5 21.75 9.5 M43.05 36.5 Q42.9 36.25 42.6 36.25 L42.05 36.35 42.15 36.25 41.7 36.55 Q40.1 37.7 39.85 38.9 L39.95 39.35 40.3 39.7 40.95 39.5 41.15 39.05 Q41.4 38.25 42.75 37.4 L43.15 37.1 43.05 36.5 M40.95 34.9 L40.3 34.6 40.25 34.6 Q38.6 34.0 36.75 35.5 L36.45 35.9 36.7 36.4 37.05 36.55 37.55 36.5 Q39.05 35.35 40.3 36.05 L40.8 36.1 40.85 36.1 41.1 35.95 41.25 35.8 41.3 35.35 40.95 34.9 M42.45 31.8 L42.05 31.45 Q41.75 31.3 41.55 31.3 L41.4 31.45 41.3 31.45 Q40.4 31.4 39.25 29.75 39.2 29.5 38.9 29.5 L38.9 29.4 38.45 29.5 38.35 29.5 Q38.2 29.55 38.15 29.9 L38.15 29.95 38.2 30.4 Q39.5 32.4 40.7 32.75 L40.65 32.75 42.0 32.7 42.3 32.3 42.45 31.8 M40.55 26.0 L40.55 26.1 40.3 26.45 40.4 27.0 Q41.45 28.65 42.5 29.2 43.35 29.5 44.1 29.2 44.4 29.2 44.5 28.9 L44.55 28.35 44.2 28.0 43.8 27.9 43.75 28.0 43.65 28.0 Q42.65 28.05 41.45 26.25 L41.1 26.0 Q40.8 25.85 40.55 26.0 M46.9 25.6 L47.05 25.15 46.7 24.7 46.15 24.7 46.15 24.8 Q45.2 24.85 43.9 22.95 43.8 22.8 43.5 22.75 L43.45 22.75 43.05 22.8 42.75 23.2 42.75 23.8 Q43.95 25.55 45.2 26.0 L46.6 25.95 46.9 25.6 M53.9 17.9 Q53.95 19.7 52.75 21.5 51.6 23.25 49.95 23.9 48.65 24.5 47.7 24.2 L47.75 24.2 47.9 24.1 48.0 23.9 47.85 23.7 46.3 22.75 46.25 22.75 46.1 22.9 46.0 23.05 46.1 23.1 47.6 24.1 47.7 24.2 47.2 23.95 47.2 24.1 46.9 24.35 47.35 25.0 Q47.6 25.4 47.35 25.95 L46.7 26.4 Q45.85 26.75 44.95 26.4 L43.95 27.5 44.4 27.6 45.0 28.3 44.85 29.1 44.2 29.65 Q43.3 30.05 42.35 29.65 L42.35 29.55 41.45 30.95 42.3 31.1 42.85 31.6 42.75 32.55 42.05 33.05 40.55 33.2 Q40.3 33.65 40.3 34.2 L40.4 34.2 41.15 34.5 41.7 35.2 41.75 35.25 41.7 36.05 41.9 35.9 42.75 35.8 Q43.15 35.8 43.35 36.25 L43.35 36.35 Q43.6 36.65 43.5 37.1 44.55 37.3 45.65 38.1 48.05 39.7 48.65 42.55 48.95 44.3 48.6 46.0 L47.6 47.9 47.35 48.25 Q33.5 39.5 24.35 32.15 L35.0 16.0 Q33.9 15.2 33.9 13.45 33.9 11.65 35.0 9.85 36.15 8.1 37.9 7.4 L40.8 7.45 52.6 15.3 Q53.8 16.15 53.9 17.9 M35.45 16.05 L36.9 17.05 37.05 17.1 37.2 16.95 37.3 16.8 37.15 16.65 35.7 15.65 35.55 15.65 35.4 15.85 35.3 16.0 35.45 16.05 M10.25 29.35 L10.3 29.35 10.7 29.2 Q11.0 29.1 11.0 28.8 L11.0 28.3 Q9.75 26.55 8.65 26.1 L7.2 26.15 Q6.95 26.25 6.8 26.45 6.65 26.7 6.75 26.9 L7.05 27.35 7.1 27.35 7.55 27.35 7.55 27.3 Q8.65 27.2 9.85 29.05 L10.25 29.35 M13.4 25.55 L13.4 25.0 Q12.2 23.4 11.15 22.9 10.4 22.6 9.6 22.9 9.4 22.9 9.25 23.2 L9.15 23.65 9.45 24.1 9.9 24.2 10.0 24.1 10.1 24.1 Q11.0 23.95 12.25 25.8 L12.65 26.1 12.75 26.1 13.1 26.0 13.2 25.95 13.4 25.55 M13.05 19.25 L13.05 19.3 11.75 19.4 11.35 19.7 11.35 20.3 Q11.35 20.55 11.65 20.6 L12.1 20.7 12.2 20.7 12.25 20.6 12.45 20.6 Q13.25 20.6 14.4 22.35 L14.8 22.6 14.85 22.6 15.25 22.6 15.3 22.5 15.55 22.15 15.55 21.6 Q14.25 19.7 13.05 19.25 M13.65 12.65 L13.25 12.4 Q12.95 12.4 12.75 12.55 L12.45 12.95 Q12.25 13.95 10.85 14.7 L10.6 15.05 10.6 15.5 11.05 15.9 11.5 15.85 12.05 15.5 Q13.65 14.45 13.8 13.25 L13.65 12.65 M16.5 15.45 L16.15 15.5 Q14.7 16.75 13.35 16.0 L12.9 15.9 12.6 16.05 12.45 16.3 Q12.25 16.5 12.35 16.75 L12.75 17.2 13.4 17.4 Q15.0 18.1 16.95 16.6 L17.15 16.15 17.05 15.65 16.5 15.45 M5.05 6.2 L6.0 4.3 6.2 3.9 Q20.15 12.5 29.25 19.7 L18.7 35.95 Q19.95 36.7 19.95 38.45 20.0 40.35 18.85 42.1 17.75 43.85 16.05 44.6 L13.2 44.55 1.2 36.85 Q0.05 36.1 0.0 34.3 -0.15 32.45 1.05 30.65 2.2 28.95 3.85 28.2 L6.05 28.0 5.9 28.05 5.9 28.2 6.0 28.35 7.4 29.35 7.55 29.35 7.75 29.2 7.75 29.05 7.65 28.95 6.2 28.0 6.6 28.15 6.6 28.05 6.9 27.75 6.35 27.15 Q6.2 26.7 6.45 26.25 L7.05 25.7 Q7.95 25.3 8.8 25.7 L8.85 25.7 9.85 24.65 9.25 24.5 Q8.95 24.25 8.8 23.8 8.65 23.4 8.85 23.05 9.0 22.6 9.45 22.45 10.4 22.05 11.3 22.45 L11.35 22.5 12.25 21.15 11.35 21.0 10.9 20.45 Q10.75 20.0 11.0 19.55 L11.6 19.0 13.1 18.85 13.35 17.9 13.2 17.9 12.5 17.5 11.9 16.9 11.95 16.8 Q11.8 16.45 12.05 16.05 L12.05 16.0 Q11.9 16.05 11.75 16.2 L11.0 16.3 10.3 15.85 10.25 15.85 10.15 15.0 Q9.1 14.75 8.05 14.1 5.55 12.5 5.0 9.6 4.6 7.85 5.05 6.2 M10.1 30.95 L10.25 30.85 10.25 30.65 10.15 30.55 8.65 29.55 8.55 29.5 8.4 29.65 8.4 29.8 8.4 29.95 9.9 30.95 10.1 30.95 M11.35 31.55 L11.3 31.7 11.35 31.85 12.8 32.85 13.05 32.85 13.2 32.75 13.2 32.55 13.05 32.45 11.6 31.45 11.45 31.4 11.35 31.55 M14.25 33.6 L14.3 33.85 15.75 34.75 15.9 34.75 16.05 34.65 16.05 34.45 16.0 34.35 14.55 33.45 14.4 33.3 14.25 33.45 14.25 33.6 M16.75 34.9 L16.6 34.95 16.6 35.2 16.65 35.35 18.1 36.25 18.35 36.25 18.5 36.2 18.5 35.95 18.35 35.9 16.9 34.95 16.75 34.9 M4.25 37.1 L4.1 37.25 4.1 37.3 4.15 37.45 5.7 38.45 5.85 38.45 5.9 38.4 6.0 38.25 5.9 38.1 4.4 37.1 4.25 37.1 M7.2 39.0 L6.95 39.15 7.05 39.2 7.1 39.35 8.55 40.35 8.8 40.35 8.8 40.3 8.95 40.15 8.8 40.0 7.35 39.0 7.2 39.0 M1.35 35.2 L1.15 35.35 1.2 35.4 1.3 35.55 2.7 36.55 2.85 36.55 2.95 36.5 3.05 36.35 2.95 36.2 1.5 35.2 1.35 35.2 M10.1 40.9 L9.9 41.05 9.9 41.1 10.0 41.25 11.5 42.25 11.65 42.25 11.75 42.2 11.8 42.05 11.75 41.9 10.25 40.9 10.1 40.9 M13.05 42.8 Q12.9 42.85 12.8 42.95 L12.9 43.0 12.95 43.15 14.4 44.15 14.6 44.15 14.7 44.1 14.8 43.95 14.6 43.8 13.2 42.8 13.05 42.8 M23.05 32.9 L23.8 32.9 Q32.95 40.3 46.9 49.0 L46.85 49.1 47.05 49.45 47.0 50.15 46.6 50.45 46.3 51.35 Q45.95 52.0 45.2 52.15 L44.5 52.05 44.55 52.0 Q44.8 51.7 44.65 51.15 44.65 50.7 44.2 50.4 L43.35 50.3 Q42.9 50.45 42.6 50.75 L42.5 50.9 41.0 49.95 41.1 49.8 41.25 48.95 40.8 48.1 39.85 48.05 Q39.5 48.2 39.2 48.5 L39.1 48.65 37.2 47.4 37.3 47.25 Q37.6 46.95 37.45 46.35 L37.0 45.6 36.1 45.45 Q35.7 45.6 35.55 45.85 35.4 45.9 35.3 46.0 L35.25 46.15 Q34.85 45.75 34.8 45.2 34.65 44.45 35.0 43.85 L35.3 43.55 32.9 41.9 Q32.6 42.25 32.05 42.4 L31.75 42.5 31.3 42.55 30.7 42.4 30.9 41.65 Q30.75 41.1 30.3 40.9 30.0 40.65 29.55 40.75 29.05 40.9 28.8 41.25 L27.3 40.3 27.45 39.35 26.9 38.6 26.15 38.45 Q25.6 38.6 25.4 39.0 L23.5 37.7 23.65 36.85 23.1 36.1 22.3 35.95 21.65 36.35 21.6 36.25 21.5 36.05 21.45 35.95 21.3 35.5 Q21.15 34.65 21.65 33.9 22.15 33.15 23.05 32.9 M32.15 28.35 Q31.3 27.85 30.3 28.05 29.35 28.3 28.8 29.1 28.2 29.95 28.4 30.85 28.65 31.85 29.5 32.4 30.3 33.0 31.3 32.75 32.2 32.6 32.8 31.8 33.35 30.95 33.2 29.95 32.95 28.95 32.15 28.35" fill="#000000" fill-rule="evenodd" stroke="none"/>
    </g>
  </defs>
</svg>
