<?xml version="1.0" encoding="UTF-8" standalone="no"?>
<svg xmlns:ffdec="https://www.free-decompiler.com/flash" xmlns:xlink="http://www.w3.org/1999/xlink" ffdec:objectType="frame" height="56.0px" width="56.0px" xmlns="http://www.w3.org/2000/svg">
  <g transform="matrix(1.0, 0.0, 0.0, 1.0, 0.0, 0.0)">
    <use ffdec:characterId="16" ffdec:characterName="15_fla.Symbole45_1" height="56.0" id="back" transform="matrix(1.0, 0.0, 0.0, 1.0, 0.0, 0.0)" width="56.0" xlink:href="#sprite0"/>
    <use ffdec:characterId="18" height="55.55" id="back" transform="matrix(1.0, 0.0, 0.0, 1.0, 0.4, 0.45)" width="55.4" xlink:href="#sprite15"/>
    <use ffdec:characterId="20" height="54.05" id="up" transform="matrix(1.0, 0.0, 0.0, 1.0, 1.15, 1.2)" width="53.9" xlink:href="#sprite16"/>
  </g>
  <defs>
    <g id="sprite0" transform="matrix(1.0, 0.0, 0.0, 1.0, 0.0, 0.0)">
      <use ffdec:characterId="15" ffdec:characterName="15_fla.Symbole42_2" height="56.0" id="back" transform="matrix(1.0, 0.0, 0.0, 1.0, 0.0, 0.0)" width="56.0" xlink:href="#sprite1"/>
    </g>
    <g id="sprite1" transform="matrix(1.0, 0.0, 0.0, 1.0, 0.0, 0.0)">
      <use ffdec:characterId="14" ffdec:characterName="15_fla.Symbole39_3" height="56.0" id="back" transform="matrix(1.0, 0.0, 0.0, 1.0, 0.0, 0.0)" width="56.0" xlink:href="#sprite2"/>
    </g>
    <g id="sprite2" transform="matrix(1.0, 0.0, 0.0, 1.0, 0.0, 0.0)">
      <use ffdec:characterId="13" ffdec:characterName="15_fla.Symbole36_4" height="56.0" id="back" transform="matrix(1.0, 0.0, 0.0, 1.0, 0.0, 0.0)" width="56.0" xlink:href="#sprite3"/>
    </g>
    <g id="sprite3" transform="matrix(1.0, 0.0, 0.0, 1.0, 0.0, 0.0)">
      <use ffdec:characterId="12" ffdec:characterName="15_fla.Symbole33_5" height="56.0" id="back" transform="matrix(1.0, 0.0, 0.0, 1.0, 0.0, 0.0)" width="56.0" xlink:href="#sprite4"/>
    </g>
    <g id="sprite4" transform="matrix(1.0, 0.0, 0.0, 1.0, 0.0, 0.0)">
      <use ffdec:characterId="11" ffdec:characterName="15_fla.Symbole30_6" height="56.0" id="back" transform="matrix(1.0, 0.0, 0.0, 1.0, 0.0, 0.0)" width="56.0" xlink:href="#sprite5"/>
    </g>
    <g id="sprite5" transform="matrix(1.0, 0.0, 0.0, 1.0, 0.0, 0.0)">
      <use ffdec:characterId="10" ffdec:characterName="15_fla.Symbole27_7" height="56.0" id="back" transform="matrix(1.0, 0.0, 0.0, 1.0, 0.0, 0.0)" width="56.0" xlink:href="#sprite6"/>
    </g>
    <g id="sprite6" transform="matrix(1.0, 0.0, 0.0, 1.0, 0.0, 0.0)">
      <use ffdec:characterId="9" ffdec:characterName="15_fla.Symbole24_8" height="56.0" id="back" transform="matrix(1.0, 0.0, 0.0, 1.0, 0.0, 0.0)" width="56.0" xlink:href="#sprite7"/>
    </g>
    <g id="sprite7" transform="matrix(1.0, 0.0, 0.0, 1.0, 0.0, 0.0)">
      <use ffdec:characterId="8" ffdec:characterName="15_fla.Symbole21_9" height="56.0" id="back" transform="matrix(1.0, 0.0, 0.0, 1.0, 0.0, 0.0)" width="56.0" xlink:href="#sprite8"/>
    </g>
    <g id="sprite8" transform="matrix(1.0, 0.0, 0.0, 1.0, 0.0, 0.0)">
      <use ffdec:characterId="7" ffdec:characterName="15_fla.Symbole18_10" height="56.0" id="back" transform="matrix(1.0, 0.0, 0.0, 1.0, 0.0, 0.0)" width="56.0" xlink:href="#sprite9"/>
    </g>
    <g id="sprite9" transform="matrix(1.0, 0.0, 0.0, 1.0, 0.0, 0.0)">
      <use ffdec:characterId="6" ffdec:characterName="15_fla.Symbole15_11" height="56.0" id="back" transform="matrix(1.0, 0.0, 0.0, 1.0, 0.0, 0.0)" width="56.0" xlink:href="#sprite10"/>
    </g>
    <g id="sprite10" transform="matrix(1.0, 0.0, 0.0, 1.0, 0.0, 0.0)">
      <use ffdec:characterId="5" ffdec:characterName="15_fla.Symbole12_12" height="56.0" id="back" transform="matrix(1.0, 0.0, 0.0, 1.0, 0.0, 0.0)" width="56.0" xlink:href="#sprite11"/>
    </g>
    <g id="sprite11" transform="matrix(1.0, 0.0, 0.0, 1.0, 0.0, 0.0)">
      <use ffdec:characterId="4" ffdec:characterName="15_fla.Symbole9_13" height="56.0" id="back" transform="matrix(1.0, 0.0, 0.0, 1.0, 0.0, 0.0)" width="56.0" xlink:href="#sprite12"/>
    </g>
    <g id="sprite12" transform="matrix(1.0, 0.0, 0.0, 1.0, 0.0, 0.0)">
      <use ffdec:characterId="3" ffdec:characterName="15_fla.Symbole6_14" height="56.0" id="back" transform="matrix(1.0, 0.0, 0.0, 1.0, 0.0, 0.0)" width="56.0" xlink:href="#sprite13"/>
    </g>
    <g id="sprite13" transform="matrix(1.0, 0.0, 0.0, 1.0, 0.0, 0.0)">
      <use ffdec:characterId="2" height="56.0" id="back" transform="matrix(1.0, 0.0, 0.0, 1.0, 0.0, 0.0)" width="56.0" xlink:href="#sprite14"/>
    </g>
    <g id="sprite14" transform="matrix(1.0, 0.0, 0.0, 1.0, 0.0, 0.0)">
      <use ffdec:characterId="1" height="56.0" transform="matrix(1.0, 0.0, 0.0, 1.0, 0.0, 0.0)" width="56.0" xlink:href="#shape0"/>
    </g>
    <g id="shape0" transform="matrix(1.0, 0.0, 0.0, 1.0, 0.0, 0.0)">
      <path d="M56.0 56.0 L0.0 56.0 0.0 0.0 56.0 0.0 56.0 56.0" fill="#010101" fill-opacity="0.0" fill-rule="evenodd" stroke="none"/>
    </g>
    <g id="sprite15" transform="matrix(1.0, 0.0, 0.0, 1.0, 0.75, 0.75)">
      <use ffdec:characterId="17" height="55.55" transform="matrix(1.0, 0.0, 0.0, 1.0, -0.75, -0.75)" width="55.4" xlink:href="#shape1"/>
    </g>
    <g id="shape1" transform="matrix(1.0, 0.0, 0.0, 1.0, 0.75, 0.75)">
      <path d="M42.95 7.75 Q42.6 8.0 42.75 8.45 42.6 8.9 42.95 9.05 43.7 9.75 44.3 9.05 44.85 8.3 44.25 7.65 43.55 7.05 42.95 7.75 M42.15 5.95 Q41.3 5.4 40.75 6.2 40.25 6.9 41.0 7.55 41.75 8.1 42.4 7.35 42.95 6.45 42.15 5.95 M46.15 9.6 Q45.55 8.9 44.85 9.5 44.55 9.75 44.55 10.2 44.4 10.6 44.75 10.9 45.45 11.6 46.05 10.9 46.7 10.3 46.15 9.6 M39.9 4.55 Q39.05 4.0 38.6 4.85 38.05 5.6 38.95 6.2 39.7 6.6 40.25 5.85 40.65 4.95 39.9 4.55 M48.15 13.6 Q47.25 14.15 47.7 14.9 48.15 15.7 48.95 15.25 49.7 14.8 49.3 14.05 48.85 13.15 48.15 13.6 M47.25 11.35 Q46.85 11.25 46.6 11.6 45.7 12.0 46.4 12.9 46.85 13.5 47.7 13.05 48.4 12.45 47.9 11.75 L47.25 11.35 M48.85 17.2 Q49.2 18.05 50.05 17.6 50.9 17.2 50.6 16.4 50.15 15.6 49.3 16.0 48.4 16.3 48.85 17.2 M41.2 15.35 L42.05 14.15 Q42.3 13.4 41.95 12.65 41.55 11.85 40.65 11.75 39.9 11.6 39.15 12.0 38.4 12.3 38.3 13.15 38.05 13.95 38.5 14.7 38.85 15.35 39.7 15.6 L41.2 15.35 M43.0 22.05 Q43.0 22.9 43.7 23.45 44.25 24.0 45.1 24.1 L46.5 23.45 Q47.0 22.9 47.0 22.05 47.0 21.3 46.5 20.75 45.8 20.1 45.1 20.1 44.25 20.1 43.7 20.75 43.0 21.3 43.0 22.05 M50.4 18.4 Q49.4 18.55 49.7 19.55 49.8 19.9 50.25 20.1 L50.9 20.1 Q51.8 19.8 51.55 18.9 51.2 18.05 50.4 18.4 M50.4 21.95 Q50.6 22.9 51.55 22.65 52.4 22.5 52.2 21.6 52.0 20.65 51.1 20.85 50.15 21.0 50.4 21.95 M48.15 18.05 Q49.8 22.25 49.8 27.0 49.8 31.65 48.15 35.9 46.25 40.0 43.1 43.25 40.95 45.35 38.4 46.9 L35.8 48.2 Q31.6 49.95 26.95 49.95 22.25 49.95 18.05 48.2 L15.45 46.9 Q12.8 45.35 10.7 43.25 7.55 40.0 5.8 35.9 4.0 31.65 4.0 27.0 4.0 22.25 5.8 18.05 7.55 13.85 10.7 10.7 13.8 7.55 18.05 5.85 22.25 4.0 26.95 4.0 31.6 4.0 35.8 5.85 39.9 7.55 43.1 10.7 46.25 13.85 48.15 18.05 M51.8 16.4 Q53.8 21.4 53.9 27.0 53.8 32.4 51.8 37.5 49.7 42.25 45.95 46.05 42.15 49.85 37.45 51.85 32.35 54.05 26.95 54.05 21.45 54.05 16.4 51.85 11.55 49.85 7.9 46.05 4.15 42.25 2.05 37.5 -0.1 32.4 0.0 27.0 -0.1 21.5 2.05 16.4 4.15 11.6 7.9 7.9 11.55 4.1 16.4 2.05 21.45 -0.1 26.95 0.0 32.35 -0.1 37.45 2.05 42.15 4.1 45.95 7.9 49.7 11.6 51.8 16.4 M45.55 8.45 Q41.85 4.8 37.1 2.7 32.25 0.65 26.95 0.65 21.55 0.65 16.75 2.7 12.0 4.8 8.4 8.45 4.75 12.0 2.7 16.75 0.65 21.6 0.65 27.0 0.65 32.3 2.7 37.2 4.75 41.9 8.4 45.6 12.0 49.15 16.75 51.25 21.55 53.25 26.95 53.25 32.25 53.25 37.1 51.25 41.85 49.15 45.55 45.6 49.1 41.9 51.1 37.2 53.2 32.3 53.2 27.0 53.2 21.6 51.1 16.75 49.1 12.0 45.55 8.45 M43.7 10.3 Q40.35 6.9 36.15 5.2 31.7 3.25 26.95 3.35 22.15 3.25 17.7 5.2 13.5 6.9 10.25 10.3 6.95 13.5 5.2 17.7 3.25 22.15 3.25 27.0 3.25 31.8 5.2 36.2 6.95 40.45 10.25 43.75 13.5 47.0 17.7 48.8 22.15 50.7 26.95 50.7 31.7 50.7 36.15 48.8 40.35 47.0 43.7 43.75 46.9 40.45 48.65 36.2 50.5 31.8 50.6 27.0 50.5 22.15 48.65 17.7 46.9 13.5 43.7 10.3 M51.9 27.9 Q52.75 27.9 52.85 27.0 52.75 26.05 51.9 26.05 50.9 26.05 50.9 27.0 50.9 27.9 51.9 27.9 M50.8 29.55 Q50.7 30.35 51.65 30.5 52.5 30.6 52.65 29.7 52.75 28.75 51.9 28.65 50.9 28.5 50.8 29.55 M51.9 25.3 Q52.75 25.2 52.65 24.2 52.5 23.35 51.65 23.45 50.7 23.45 50.8 24.4 50.9 25.4 51.9 25.3 M50.4 32.0 Q50.15 32.85 51.1 33.05 52.0 33.3 52.2 32.4 L52.05 31.65 51.55 31.2 Q50.6 31.0 50.4 32.0 M43.1 32.3 Q43.35 33.2 44.15 33.65 L45.6 33.7 Q46.4 33.5 46.85 32.85 47.1 32.1 46.9 31.35 46.7 30.5 46.05 30.15 L44.55 29.9 Q43.7 30.05 43.35 30.8 42.95 31.55 43.1 32.3 M47.7 39.05 Q47.25 39.75 48.15 40.35 48.85 40.7 49.3 40.0 49.7 39.15 48.95 38.7 48.15 38.15 47.7 39.05 M46.4 41.15 Q45.7 41.85 46.6 42.45 L47.25 42.6 47.9 42.25 Q48.4 41.5 47.7 40.95 46.85 40.35 46.4 41.15 M49.3 38.0 Q50.15 38.35 50.6 37.5 50.9 36.6 50.05 36.35 49.2 35.9 48.85 36.75 48.4 37.65 49.3 38.0 M41.95 39.2 Q41.45 38.45 40.65 38.35 39.9 38.15 39.15 38.6 38.4 38.9 38.3 39.75 38.05 40.55 38.5 41.3 38.85 41.9 39.7 42.25 L41.2 42.0 42.15 40.7 Q42.3 40.0 41.95 39.2 M42.95 46.1 Q43.45 46.9 44.25 46.25 44.85 45.6 44.3 44.95 L42.95 44.85 Q42.3 45.5 42.95 46.1 M41.0 46.45 Q40.65 46.7 40.65 47.0 40.55 47.4 40.75 47.75 41.3 48.55 42.15 48.0 42.95 47.4 42.4 46.7 41.75 45.95 41.0 46.45 M46.15 44.3 Q46.7 43.65 46.05 43.05 45.45 42.35 44.75 43.15 44.15 43.75 44.85 44.45 L45.55 44.65 Q45.95 44.65 46.15 44.3 M37.45 3.25 Q36.6 2.9 36.25 3.75 35.8 4.55 36.65 4.95 37.55 5.4 37.95 4.55 38.3 3.65 37.45 3.25 M34.95 2.25 Q34.0 1.95 33.8 2.9 33.45 3.75 34.3 4.1 35.2 4.35 35.45 3.45 35.8 2.6 34.95 2.25 M31.2 2.35 Q30.95 3.25 31.95 3.45 32.75 3.55 33.0 2.7 33.2 1.75 32.25 1.65 31.4 1.4 31.2 2.35 M30.4 2.15 Q30.5 1.2 29.65 1.2 28.7 1.05 28.6 2.05 28.5 2.9 29.45 3.05 30.3 3.15 30.4 2.15 M33.45 9.85 Q33.9 9.05 33.65 8.3 33.45 7.5 32.75 7.15 32.05 6.6 31.3 6.9 30.4 7.05 30.1 7.75 29.55 8.55 29.9 9.3 30.0 10.05 30.75 10.45 L32.25 10.7 33.45 9.85 M26.95 2.9 Q27.8 2.9 27.8 1.95 27.8 0.95 26.95 1.05 26.0 0.95 26.0 1.95 26.0 2.9 26.95 2.9 M25.25 2.05 Q25.1 1.05 24.15 1.2 23.3 1.3 23.45 2.25 23.45 3.15 24.4 3.05 25.35 2.9 25.25 2.05 M20.05 2.9 Q19.75 1.95 18.85 2.25 18.05 2.6 18.35 3.45 18.6 4.35 19.55 4.1 20.4 3.75 20.05 2.9 M22.65 2.35 Q22.45 1.4 21.55 1.65 20.6 1.85 20.85 2.7 20.95 3.55 21.9 3.45 22.75 3.25 22.65 2.35 M23.45 10.3 Q23.95 9.6 24.05 8.9 23.95 8.0 23.45 7.5 22.85 6.8 22.0 6.8 21.2 6.8 20.6 7.5 20.05 8.0 20.05 8.9 20.05 9.6 20.6 10.3 21.2 10.8 22.0 10.8 22.85 10.8 23.45 10.3 M22.75 20.4 Q23.3 21.2 24.05 20.65 24.85 20.1 24.25 19.35 23.85 18.55 23.1 19.1 22.25 19.55 22.75 20.4 M20.85 20.75 Q20.15 21.4 20.95 22.05 21.7 22.6 22.25 21.8 22.75 21.1 22.15 20.55 L21.45 20.3 20.85 20.75 M19.2 22.9 Q18.75 23.7 19.75 24.1 20.5 24.4 20.95 23.55 21.2 22.65 20.4 22.4 19.45 21.95 19.2 22.9 M28.25 20.2 Q29.1 20.2 29.25 19.35 29.35 18.4 28.4 18.4 27.4 18.3 27.4 19.25 27.3 20.1 28.25 20.2 M26.75 18.9 Q26.55 18.05 25.7 18.3 24.7 18.5 25.05 19.45 25.25 20.3 26.15 20.1 26.95 19.8 26.75 18.9 M19.95 20.1 Q18.15 21.95 17.45 24.4 16.85 27.0 17.45 29.55 18.15 32.0 19.95 33.9 21.8 35.75 24.4 36.4 26.85 37.05 29.45 36.4 31.95 35.75 33.9 33.9 35.7 32.1 36.35 29.55 37.0 26.9 36.35 24.4 35.7 21.95 33.9 20.1 31.95 18.15 29.45 17.5 26.85 16.75 24.4 17.5 21.8 18.15 19.95 20.1 L7.1 15.45 17.45 24.4 4.0 27.0 17.45 29.55 7.1 38.45 19.95 33.9 15.45 46.9 24.4 36.4 26.95 49.95 29.45 36.4 38.4 46.9 33.9 33.9 46.7 38.45 36.35 29.55 49.8 27.0 36.35 24.4 46.7 15.45 33.9 20.1 38.4 7.15 29.45 17.5 26.95 4.0 24.4 17.5 15.45 7.15 19.95 20.1 M22.65 22.65 Q20.85 24.4 20.95 27.0 20.85 29.55 22.65 31.2 24.4 32.95 26.95 33.05 29.45 32.95 31.2 31.2 32.9 29.55 33.0 27.0 32.9 24.4 31.2 22.65 29.45 21.0 26.95 21.0 24.4 21.0 22.65 22.65 M30.95 19.25 Q30.1 18.8 29.8 19.8 29.45 20.65 30.3 21.0 31.2 21.3 31.5 20.4 31.8 19.55 30.95 19.25 M33.35 22.15 Q33.9 21.4 33.2 20.85 32.5 20.2 31.95 21.0 31.3 21.7 32.05 22.25 32.7 22.9 33.35 22.15 M33.45 22.8 Q32.7 23.35 33.2 24.1 33.65 24.85 34.5 24.4 35.3 23.9 34.75 23.1 34.2 22.25 33.45 22.8 M14.05 4.55 Q13.2 4.95 13.6 5.85 14.05 6.6 14.9 6.2 15.65 5.6 15.2 4.85 14.75 4.0 14.05 4.55 M15.9 4.55 Q16.3 5.3 17.2 4.95 18.05 4.55 17.6 3.75 17.2 2.9 16.4 3.25 15.55 3.65 15.9 4.55 M11.65 5.95 Q10.9 6.45 11.45 7.35 12.0 8.1 12.85 7.55 13.6 6.9 13.1 6.2 12.4 5.4 11.65 5.95 M9.65 7.65 Q8.85 8.3 9.55 9.05 10.15 9.75 10.9 9.05 L11.1 8.45 10.9 7.75 Q10.25 7.05 9.65 7.65 M8.35 9.3 Q7.9 9.3 7.7 9.6 7.05 10.3 7.8 10.9 8.4 11.6 9.1 10.9 9.7 10.2 8.95 9.5 L8.35 9.3 M7.25 11.6 Q6.95 11.25 6.6 11.35 6.15 11.45 5.95 11.75 5.4 12.45 6.15 13.05 6.95 13.6 7.45 12.9 8.0 12.0 7.25 11.6 M4.55 14.05 Q4.0 14.8 4.85 15.25 5.65 15.7 6.15 14.9 6.6 14.05 5.8 13.6 5.0 13.15 4.55 14.05 M4.55 16.0 Q3.7 15.6 3.25 16.4 2.95 17.2 3.8 17.6 4.55 18.05 5.0 17.2 5.3 16.3 4.55 16.0 M2.3 18.9 Q1.95 19.8 2.95 20.1 3.8 20.4 4.15 19.55 4.35 18.55 3.45 18.4 2.6 18.05 2.3 18.9 M1.75 22.25 L2.3 22.65 Q3.25 22.9 3.45 21.95 3.55 21.1 2.7 20.85 1.75 20.65 1.65 21.6 1.55 21.95 1.75 22.25 M6.95 22.65 Q7.05 23.45 7.8 23.9 L9.3 24.1 10.5 23.1 Q10.9 22.4 10.7 21.6 10.5 20.75 9.8 20.4 9.1 19.9 8.35 20.2 7.45 20.4 7.05 21.2 6.6 21.8 6.95 22.65 M15.55 14.15 Q15.8 13.4 15.35 12.65 14.9 11.85 14.15 11.75 13.4 11.6 12.65 12.0 11.9 12.3 11.8 13.15 11.45 13.95 11.9 14.7 12.3 15.35 13.2 15.6 L14.7 15.45 15.55 14.15 M18.25 28.2 Q18.5 29.1 19.45 28.85 20.3 28.65 20.05 27.8 19.9 26.8 18.85 27.1 18.05 27.35 18.25 28.2 M10.15 30.5 Q9.65 29.8 8.75 29.8 7.9 29.8 7.35 30.5 6.85 31.0 6.85 31.9 6.85 32.6 7.35 33.3 7.9 33.8 8.75 33.8 9.65 33.8 10.15 33.3 L10.8 31.9 Q10.7 31.0 10.15 30.5 M2.05 25.3 Q2.95 25.4 3.05 24.4 3.15 23.45 2.15 23.45 1.2 23.35 1.2 24.3 1.1 25.2 2.05 25.3 M1.2 29.7 Q1.2 30.6 2.15 30.5 3.15 30.35 3.05 29.55 2.95 28.5 2.05 28.65 1.1 28.75 1.2 29.7 M1.0 27.0 Q1.0 27.9 1.95 27.9 2.95 27.9 2.95 27.0 2.95 26.05 1.95 26.05 1.0 26.05 1.0 27.0 M2.3 35.05 Q2.6 35.9 3.45 35.55 4.35 35.2 4.15 34.35 3.8 33.5 2.95 33.8 1.95 34.05 2.3 35.05 M2.3 31.2 Q1.9 31.35 1.75 31.65 1.55 32.0 1.65 32.4 1.75 33.3 2.7 33.05 3.55 32.85 3.45 32.0 3.25 31.0 2.3 31.2 M5.8 40.35 Q6.6 39.75 6.15 39.05 5.65 38.15 4.85 38.7 4.0 39.15 4.55 40.0 5.0 40.7 5.8 40.35 M6.15 40.95 Q5.4 41.5 5.95 42.25 6.5 43.05 7.25 42.45 8.0 41.85 7.45 41.15 6.95 40.35 6.15 40.95 M4.45 36.35 Q4.15 36.1 3.8 36.35 2.85 36.6 3.25 37.5 3.7 38.35 4.55 38.0 5.4 37.65 5.0 36.75 L4.45 36.35 M8.95 44.45 Q9.7 43.75 9.1 43.15 8.4 42.35 7.8 43.05 7.05 43.65 7.7 44.3 8.35 44.95 8.95 44.45 M14.15 38.35 Q13.4 38.15 12.65 38.6 11.9 38.9 11.8 39.75 11.55 40.55 12.0 41.3 12.3 41.9 13.2 42.25 L14.7 42.0 15.55 40.85 Q15.8 40.0 15.35 39.3 14.9 38.6 14.15 38.35 M9.65 46.25 Q10.25 46.9 10.9 46.1 11.55 45.5 10.9 44.85 L9.55 44.95 Q8.85 45.6 9.65 46.25 M12.85 46.45 Q12.0 45.85 11.45 46.7 10.9 47.35 11.65 48.0 12.4 48.55 13.1 47.75 13.6 47.0 12.85 46.45 M13.6 48.2 Q13.2 48.95 14.05 49.5 14.75 49.95 15.2 49.05 15.65 48.3 14.9 47.75 14.05 47.35 13.6 48.2 M35.6 28.4 Q35.6 27.55 34.65 27.45 33.8 27.45 33.65 28.3 33.65 29.3 34.65 29.4 35.45 29.4 35.6 28.4 M35.45 26.5 L35.6 25.7 Q35.3 24.75 34.4 25.1 33.55 25.3 33.8 26.15 34.0 27.0 34.95 26.8 L35.45 26.5 M32.9 30.35 Q32.75 30.7 33.0 31.1 L33.45 31.55 Q34.3 31.9 34.65 31.0 34.95 30.15 34.05 29.8 L33.45 29.9 Q33.0 30.05 32.9 30.35 M31.4 32.75 Q31.4 33.2 31.7 33.4 L33.0 33.3 Q33.55 32.5 32.9 32.0 32.15 31.35 31.6 32.1 31.3 32.3 31.4 32.75 M29.8 33.3 Q29.0 33.8 29.55 34.6 30.0 35.3 30.85 34.8 31.6 34.25 31.1 33.65 30.5 32.75 29.8 33.3 M20.15 25.6 Q20.15 24.65 19.3 24.65 18.35 24.5 18.25 25.5 18.25 26.4 19.2 26.5 20.05 26.5 20.15 25.6 M20.6 29.8 Q20.05 29.1 19.3 29.6 18.6 30.05 19.1 30.9 19.55 31.65 20.4 31.1 21.2 30.6 20.6 29.8 M23.55 33.05 Q22.55 32.6 22.35 33.5 22.0 34.35 22.85 34.7 23.75 35.05 24.05 34.25 24.4 33.3 23.55 33.05 M20.5 31.8 Q19.9 32.5 20.6 33.05 21.35 33.7 21.9 32.95 22.45 32.25 21.8 31.65 21.05 31.0 20.5 31.8 M26.4 34.7 Q26.4 33.8 25.55 33.8 24.6 33.7 24.6 34.7 24.5 35.55 25.45 35.65 26.35 35.65 26.4 34.7 M28.15 35.65 Q29.0 35.45 28.85 34.6 28.6 33.65 27.7 33.8 26.75 34.05 27.1 35.05 27.3 35.9 28.15 35.65 M21.55 43.25 Q20.75 43.4 20.4 44.2 19.95 44.85 20.15 45.75 20.3 46.45 21.05 46.9 L22.55 47.15 Q23.3 46.9 23.75 46.1 24.15 45.4 23.95 44.65 23.75 43.85 23.1 43.4 L21.55 43.25 M29.8 45.15 Q29.8 45.95 30.4 46.55 30.95 47.15 31.8 47.15 32.6 47.15 33.2 46.55 33.8 45.95 33.8 45.15 33.8 44.3 33.2 43.75 32.6 43.15 31.8 43.15 30.95 43.15 30.4 43.75 29.8 44.3 29.8 45.15 M34.3 49.85 Q33.45 50.15 33.8 51.0 34.0 51.85 34.95 51.65 35.8 51.35 35.45 50.45 35.2 49.5 34.3 49.85 M36.25 50.25 Q36.6 51.0 37.45 50.7 38.3 50.25 37.95 49.4 37.55 48.55 36.65 48.95 35.8 49.4 36.25 50.25 M29.45 50.9 Q28.5 51.0 28.6 51.95 28.7 52.85 29.65 52.75 30.5 52.65 30.4 51.75 30.3 50.8 29.45 50.9 M31.2 51.65 Q31.4 52.55 32.35 52.3 L32.9 51.95 33.0 51.25 Q32.75 50.25 31.95 50.45 30.95 50.7 31.2 51.65 M26.95 52.95 Q27.8 52.95 27.8 51.95 27.8 51.0 26.95 51.0 26.0 51.0 26.0 51.95 26.0 52.95 26.95 52.95 M25.05 51.25 Q24.85 50.9 24.4 50.9 23.95 50.8 23.75 51.15 23.45 51.35 23.45 51.75 23.3 52.1 23.65 52.4 23.85 52.75 24.15 52.75 25.1 52.85 25.25 51.95 L25.05 51.25 M19.55 49.85 Q18.6 49.5 18.35 50.45 18.05 51.35 18.85 51.65 19.75 51.85 20.05 51.0 20.4 50.15 19.55 49.85 M20.85 51.25 Q20.6 52.1 21.55 52.3 22.45 52.55 22.65 51.65 22.75 50.7 21.9 50.45 20.95 50.25 20.85 51.25 M16.4 50.7 L17.2 50.7 17.6 50.25 Q18.05 49.4 17.2 48.95 16.3 48.55 15.9 49.5 15.45 50.25 16.4 50.7 M38.6 49.05 Q39.05 49.95 39.9 49.5 40.65 48.95 40.25 48.2 39.7 47.35 38.95 47.75 38.05 48.3 38.6 49.05 Z" fill="none" stroke="#000000" stroke-linecap="round" stroke-linejoin="round" stroke-opacity="0.2" stroke-width="1.5"/>
    </g>
    <g id="sprite16" transform="matrix(1.0, 0.0, 0.0, 1.0, 0.0, 0.0)">
      <use ffdec:characterId="19" height="54.05" transform="matrix(1.0, 0.0, 0.0, 1.0, 0.0, 0.0)" width="53.9" xlink:href="#shape2"/>
    </g>
    <g id="shape2" transform="matrix(1.0, 0.0, 0.0, 1.0, 0.0, 0.0)">
      <path d="M43.7 10.3 Q46.9 13.5 48.65 17.7 50.5 22.15 50.6 27.0 50.5 31.8 48.65 36.2 46.9 40.45 43.7 43.75 40.35 47.0 36.15 48.8 31.7 50.7 26.95 50.7 22.15 50.7 17.7 48.8 13.5 47.0 10.25 43.75 6.95 40.45 5.2 36.2 3.25 31.8 3.25 27.0 3.25 22.15 5.2 17.7 6.95 13.5 10.25 10.3 13.5 6.9 17.7 5.2 22.15 3.25 26.95 3.35 31.7 3.25 36.15 5.2 40.35 6.9 43.7 10.3 M50.4 21.95 Q50.15 21.0 51.1 20.85 52.0 20.65 52.2 21.6 52.4 22.5 51.55 22.65 50.6 22.9 50.4 21.95 M50.4 18.4 Q51.2 18.05 51.55 18.9 51.8 19.8 50.9 20.1 L50.25 20.1 Q49.8 19.9 49.7 19.55 49.4 18.55 50.4 18.4 M43.0 22.05 Q43.0 21.3 43.7 20.75 44.25 20.1 45.1 20.1 45.8 20.1 46.5 20.75 47.0 21.3 47.0 22.05 47.0 22.9 46.5 23.45 L45.1 24.1 Q44.25 24.0 43.7 23.45 43.0 22.9 43.0 22.05 M41.2 15.35 L39.7 15.6 Q38.85 15.35 38.5 14.7 38.05 13.95 38.3 13.15 38.4 12.3 39.15 12.0 39.9 11.6 40.65 11.75 41.55 11.85 41.95 12.65 42.3 13.4 42.05 14.15 L41.2 15.35 M48.85 17.2 Q48.4 16.3 49.3 16.0 50.15 15.6 50.6 16.4 50.9 17.2 50.05 17.6 49.2 18.05 48.85 17.2 M47.9 11.75 Q48.4 12.45 47.7 13.05 46.85 13.5 46.4 12.9 45.7 12.0 46.6 11.6 46.85 11.25 47.25 11.35 L47.9 11.75 M48.15 13.6 Q48.85 13.15 49.3 14.05 49.7 14.8 48.95 15.25 48.15 15.7 47.7 14.9 47.25 14.15 48.15 13.6 M39.9 4.55 Q40.65 4.95 40.25 5.85 39.7 6.6 38.95 6.2 38.05 5.6 38.6 4.85 39.05 4.0 39.9 4.55 M44.85 9.5 Q45.55 8.9 46.15 9.6 46.7 10.3 46.05 10.9 45.45 11.6 44.75 10.9 44.4 10.6 44.55 10.2 44.55 9.75 44.85 9.5 M42.95 7.75 Q43.55 7.05 44.25 7.65 44.85 8.3 44.3 9.05 43.7 9.75 42.95 9.05 42.6 8.9 42.75 8.45 42.6 8.0 42.95 7.75 M40.75 6.2 Q41.3 5.4 42.15 5.95 42.95 6.45 42.4 7.35 41.75 8.1 41.0 7.55 40.25 6.9 40.75 6.2 M45.55 8.45 Q41.85 4.8 37.1 2.7 32.25 0.65 26.95 0.65 21.55 0.65 16.75 2.7 12.0 4.8 8.4 8.45 4.75 12.0 2.7 16.75 0.65 21.6 0.65 27.0 0.65 32.3 2.7 37.2 4.75 41.9 8.4 45.6 12.0 49.15 16.75 51.25 21.55 53.25 26.95 53.25 32.25 53.25 37.1 51.25 41.85 49.15 45.55 45.6 49.1 41.9 51.1 37.2 53.2 32.3 53.2 27.0 53.2 21.6 51.1 16.75 49.1 12.0 45.55 8.45 M51.8 16.4 Q53.8 21.4 53.9 27.0 53.8 32.4 51.8 37.5 49.7 42.25 45.95 46.05 42.15 49.85 37.45 51.85 32.35 54.05 26.95 54.05 21.45 54.05 16.4 51.85 11.55 49.85 7.9 46.05 4.15 42.25 2.05 37.5 -0.1 32.4 0.0 27.0 -0.1 21.5 2.05 16.4 4.15 11.6 7.9 7.9 11.55 4.1 16.4 2.05 21.45 -0.1 26.95 0.0 32.35 -0.1 37.45 2.05 42.15 4.1 45.95 7.9 49.7 11.6 51.8 16.4 M24.4 17.5 Q21.8 18.15 19.95 20.1 L15.45 7.15 24.4 17.5 26.95 4.0 29.45 17.5 38.4 7.15 33.9 20.1 46.7 15.45 36.35 24.4 49.8 27.0 36.35 29.55 46.7 38.45 33.9 33.9 38.4 46.9 29.45 36.4 26.95 49.95 24.4 36.4 15.45 46.9 19.95 33.9 7.1 38.45 17.45 29.55 4.0 27.0 17.45 24.4 7.1 15.45 19.95 20.1 Q18.15 21.95 17.45 24.4 16.85 27.0 17.45 29.55 18.15 32.0 19.95 33.9 21.8 35.75 24.4 36.4 26.85 37.05 29.45 36.4 31.95 35.75 33.9 33.9 35.7 32.1 36.35 29.55 37.0 26.9 36.35 24.4 35.7 21.95 33.9 20.1 31.95 18.15 29.45 17.5 26.85 16.75 24.4 17.5 M28.25 20.2 Q27.3 20.1 27.4 19.25 27.4 18.3 28.4 18.4 29.35 18.4 29.25 19.35 29.1 20.2 28.25 20.2 M26.75 18.9 Q26.95 19.8 26.15 20.1 25.25 20.3 25.05 19.45 24.7 18.5 25.7 18.3 26.55 18.05 26.75 18.9 M19.2 22.9 Q19.45 21.95 20.4 22.4 21.2 22.65 20.95 23.55 20.5 24.4 19.75 24.1 18.75 23.7 19.2 22.9 M20.85 20.75 L21.45 20.3 22.15 20.55 Q22.75 21.1 22.25 21.8 21.7 22.6 20.95 22.05 20.15 21.4 20.85 20.75 M22.75 20.4 Q22.25 19.55 23.1 19.1 23.85 18.55 24.25 19.35 24.85 20.1 24.05 20.65 23.3 21.2 22.75 20.4 M23.45 10.3 Q22.85 10.8 22.0 10.8 21.2 10.8 20.6 10.3 20.05 9.6 20.05 8.9 20.05 8.0 20.6 7.5 21.2 6.8 22.0 6.8 22.85 6.8 23.45 7.5 23.95 8.0 24.05 8.9 23.95 9.6 23.45 10.3 M21.55 1.65 Q22.45 1.4 22.65 2.35 22.75 3.25 21.9 3.45 20.95 3.55 20.85 2.7 20.6 1.85 21.55 1.65 M20.05 2.9 Q20.4 3.75 19.55 4.1 18.6 4.35 18.35 3.45 18.05 2.6 18.85 2.25 19.75 1.95 20.05 2.9 M25.25 2.05 Q25.35 2.9 24.4 3.05 23.45 3.15 23.45 2.25 23.3 1.3 24.15 1.2 25.1 1.05 25.25 2.05 M26.0 1.95 Q26.0 0.95 26.95 1.05 27.8 0.95 27.8 1.95 27.8 2.9 26.95 2.9 26.0 2.9 26.0 1.95 M33.45 9.85 L32.25 10.7 30.75 10.45 Q30.0 10.05 29.9 9.3 29.55 8.55 30.1 7.75 30.4 7.05 31.3 6.9 32.05 6.6 32.75 7.15 33.45 7.5 33.65 8.3 33.9 9.05 33.45 9.85 M30.4 2.15 Q30.3 3.15 29.45 3.05 28.5 2.9 28.6 2.05 28.7 1.05 29.65 1.2 30.5 1.2 30.4 2.15 M33.0 2.7 Q32.75 3.55 31.95 3.45 30.95 3.25 31.2 2.35 31.4 1.4 32.25 1.65 33.2 1.75 33.0 2.7 M35.45 3.45 Q35.2 4.35 34.3 4.1 33.45 3.75 33.8 2.9 34.0 1.95 34.95 2.25 35.8 2.6 35.45 3.45 M37.45 3.25 Q38.3 3.65 37.95 4.55 37.55 5.4 36.65 4.95 35.8 4.55 36.25 3.75 36.6 2.9 37.45 3.25 M46.15 44.3 Q45.95 44.65 45.55 44.65 L44.85 44.45 Q44.15 43.75 44.75 43.15 45.45 42.35 46.05 43.05 46.7 43.65 46.15 44.3 M41.0 46.45 Q41.75 45.95 42.4 46.7 42.95 47.4 42.15 48.0 41.3 48.55 40.75 47.75 40.55 47.4 40.65 47.0 40.65 46.7 41.0 46.45 M42.95 46.1 Q42.3 45.5 42.95 44.85 L44.3 44.95 Q44.85 45.6 44.25 46.25 43.45 46.9 42.95 46.1 M41.95 39.2 Q42.3 40.0 42.15 40.7 L41.2 42.0 39.7 42.25 Q38.85 41.9 38.5 41.3 38.05 40.55 38.3 39.75 38.4 38.9 39.15 38.6 39.9 38.15 40.65 38.35 41.45 38.45 41.95 39.2 M49.3 38.0 Q48.4 37.65 48.85 36.75 49.2 35.9 50.05 36.35 50.9 36.6 50.6 37.5 50.15 38.35 49.3 38.0 M46.4 41.15 Q46.85 40.35 47.7 40.95 48.4 41.5 47.9 42.25 L47.25 42.6 46.6 42.45 Q45.7 41.85 46.4 41.15 M47.7 39.05 Q48.15 38.15 48.95 38.7 49.7 39.15 49.3 40.0 48.85 40.7 48.15 40.35 47.25 39.75 47.7 39.05 M43.1 32.3 Q42.95 31.55 43.35 30.8 43.7 30.05 44.55 29.9 L46.05 30.15 Q46.7 30.5 46.9 31.35 47.1 32.1 46.85 32.85 46.4 33.5 45.6 33.7 L44.15 33.65 Q43.35 33.2 43.1 32.3 M51.55 35.05 Q51.2 35.9 50.4 35.55 49.4 35.2 49.7 34.35 50.05 33.5 50.9 33.8 51.8 34.05 51.55 35.05 M52.05 31.65 L52.2 32.4 Q52.0 33.3 51.1 33.05 50.15 32.85 50.4 32.0 50.6 31.0 51.55 31.2 L52.05 31.65 M50.8 29.55 Q50.9 28.5 51.9 28.65 52.75 28.75 52.65 29.7 52.5 30.6 51.65 30.5 50.7 30.35 50.8 29.55 M51.9 26.05 Q52.75 26.05 52.85 27.0 52.75 27.9 51.9 27.9 50.9 27.9 50.9 27.0 50.9 26.05 51.9 26.05 M51.9 25.3 Q50.9 25.4 50.8 24.4 50.7 23.45 51.65 23.45 52.5 23.35 52.65 24.2 52.75 25.2 51.9 25.3 M48.15 18.05 Q46.25 13.85 43.1 10.7 39.9 7.55 35.8 5.85 31.6 4.0 26.95 4.0 22.25 4.0 18.05 5.85 13.8 7.55 10.7 10.7 7.55 13.85 5.8 18.05 4.0 22.25 4.0 27.0 4.0 31.65 5.8 35.9 7.55 40.0 10.7 43.25 12.8 45.35 15.45 46.9 L18.05 48.2 Q22.25 49.95 26.95 49.95 31.6 49.95 35.8 48.2 L38.4 46.9 Q40.95 45.35 43.1 43.25 46.25 40.0 48.15 35.9 49.8 31.65 49.8 27.0 49.8 22.25 48.15 18.05 M38.6 49.05 Q38.05 48.3 38.95 47.75 39.7 47.35 40.25 48.2 40.65 48.95 39.9 49.5 39.05 49.95 38.6 49.05 M16.4 50.7 Q15.45 50.25 15.9 49.5 16.3 48.55 17.2 48.95 18.05 49.4 17.6 50.25 L17.2 50.7 16.4 50.7 M21.55 52.3 Q20.6 52.1 20.85 51.25 20.95 50.25 21.9 50.45 22.75 50.7 22.65 51.65 22.45 52.55 21.55 52.3 M19.55 49.85 Q20.4 50.15 20.05 51.0 19.75 51.85 18.85 51.65 18.05 51.35 18.35 50.45 18.6 49.5 19.55 49.85 M26.95 52.95 Q26.0 52.95 26.0 51.95 26.0 51.0 26.95 51.0 27.8 51.0 27.8 51.95 27.8 52.95 26.95 52.95 M24.4 50.9 Q24.85 50.9 25.05 51.25 L25.25 51.95 Q25.1 52.85 24.15 52.75 23.85 52.75 23.65 52.4 23.3 52.1 23.45 51.75 23.45 51.35 23.75 51.15 23.95 50.8 24.4 50.9 M31.95 50.45 Q32.75 50.25 33.0 51.25 L32.9 51.95 32.35 52.3 Q31.4 52.55 31.2 51.65 30.95 50.7 31.95 50.45 M30.4 51.75 Q30.5 52.65 29.65 52.75 28.7 52.85 28.6 51.95 28.5 51.0 29.45 50.9 30.3 50.8 30.4 51.75 M36.65 48.95 Q37.55 48.55 37.95 49.4 38.3 50.25 37.45 50.7 36.6 51.0 36.25 50.25 35.8 49.4 36.65 48.95 M34.3 49.85 Q35.2 49.5 35.45 50.45 35.8 51.35 34.95 51.65 34.0 51.85 33.8 51.0 33.45 50.15 34.3 49.85 M29.8 45.15 Q29.8 44.3 30.4 43.75 30.95 43.15 31.8 43.15 32.6 43.15 33.2 43.75 33.8 44.3 33.8 45.15 33.8 45.95 33.2 46.55 32.6 47.15 31.8 47.15 30.95 47.15 30.4 46.55 29.8 45.95 29.8 45.15 M21.55 43.25 L23.1 43.4 Q23.75 43.85 23.95 44.65 24.15 45.4 23.75 46.1 23.3 46.9 22.55 47.15 L21.05 46.9 Q20.3 46.45 20.15 45.75 19.95 44.85 20.4 44.2 20.75 43.4 21.55 43.25 M28.15 35.65 Q27.3 35.9 27.1 35.05 26.75 34.05 27.7 33.8 28.6 33.65 28.85 34.6 29.0 35.45 28.15 35.65 M26.4 34.7 Q26.35 35.65 25.45 35.65 24.5 35.55 24.6 34.7 24.6 33.7 25.55 33.8 26.4 33.8 26.4 34.7 M20.6 33.05 Q19.9 32.5 20.5 31.8 21.05 31.0 21.8 31.65 22.45 32.25 21.9 32.95 21.35 33.7 20.6 33.05 M22.85 34.7 Q22.0 34.35 22.35 33.5 22.55 32.6 23.55 33.05 24.4 33.3 24.05 34.25 23.75 35.05 22.85 34.7 M20.6 29.8 Q21.2 30.6 20.4 31.1 19.55 31.65 19.1 30.9 18.6 30.05 19.3 29.6 20.05 29.1 20.6 29.8 M20.15 25.6 Q20.05 26.5 19.2 26.5 18.25 26.4 18.25 25.5 18.35 24.5 19.3 24.65 20.15 24.65 20.15 25.6 M29.8 33.3 Q30.5 32.75 31.1 33.65 31.6 34.25 30.85 34.8 30.0 35.3 29.55 34.6 29.0 33.8 29.8 33.3 M31.4 32.75 Q31.3 32.3 31.6 32.1 32.15 31.35 32.9 32.0 33.55 32.5 33.0 33.3 L31.7 33.4 Q31.4 33.2 31.4 32.75 M33.45 29.9 L34.05 29.8 Q34.95 30.15 34.65 31.0 34.3 31.9 33.45 31.55 L33.0 31.1 Q32.75 30.7 32.9 30.35 33.0 30.05 33.45 29.9 M35.6 25.7 L35.45 26.5 34.95 26.8 Q34.0 27.0 33.8 26.15 33.55 25.3 34.4 25.1 35.3 24.75 35.6 25.7 M35.6 28.4 Q35.45 29.4 34.65 29.4 33.65 29.3 33.65 28.3 33.8 27.45 34.65 27.45 35.6 27.55 35.6 28.4 M13.6 48.2 Q14.05 47.35 14.9 47.75 15.65 48.3 15.2 49.05 14.75 49.95 14.05 49.5 13.2 48.95 13.6 48.2 M12.85 46.45 Q13.6 47.0 13.1 47.75 12.4 48.55 11.65 48.0 10.9 47.35 11.45 46.7 12.0 45.85 12.85 46.45 M9.65 46.25 Q8.85 45.6 9.55 44.95 L10.9 44.85 Q11.55 45.5 10.9 46.1 10.25 46.9 9.65 46.25 M14.15 38.35 Q14.9 38.6 15.35 39.3 15.8 40.0 15.55 40.85 L14.7 42.0 13.2 42.25 Q12.3 41.9 12.0 41.3 11.55 40.55 11.8 39.75 11.9 38.9 12.65 38.6 13.4 38.15 14.15 38.35 M8.95 44.45 Q8.35 44.95 7.7 44.3 7.05 43.65 7.8 43.05 8.4 42.35 9.1 43.15 9.7 43.75 8.95 44.45 M4.45 36.35 L5.0 36.75 Q5.4 37.65 4.55 38.0 3.7 38.35 3.25 37.5 2.85 36.6 3.8 36.35 4.15 36.1 4.45 36.35 M6.15 39.05 Q6.6 39.75 5.8 40.35 5.0 40.7 4.55 40.0 4.0 39.15 4.85 38.7 5.65 38.15 6.15 39.05 M6.15 40.95 Q6.95 40.35 7.45 41.15 8.0 41.85 7.25 42.45 6.5 43.05 5.95 42.25 5.4 41.5 6.15 40.95 M2.3 31.2 Q3.25 31.0 3.45 32.0 3.55 32.85 2.7 33.05 1.75 33.3 1.65 32.4 1.55 32.0 1.75 31.65 1.9 31.35 2.3 31.2 M2.3 35.05 Q1.95 34.05 2.95 33.8 3.8 33.5 4.15 34.35 4.35 35.2 3.45 35.55 2.6 35.9 2.3 35.05 M1.2 29.7 Q1.1 28.75 2.05 28.65 2.95 28.5 3.05 29.55 3.15 30.35 2.15 30.5 1.2 30.6 1.2 29.7 M1.0 27.0 Q1.0 26.05 1.95 26.05 2.95 26.05 2.95 27.0 2.95 27.9 1.95 27.9 1.0 27.9 1.0 27.0 M3.05 24.4 Q2.95 25.4 2.05 25.3 1.1 25.2 1.2 24.3 1.2 23.35 2.15 23.45 3.15 23.45 3.05 24.4 M10.15 30.5 Q10.7 31.0 10.8 31.9 L10.15 33.3 Q9.65 33.8 8.75 33.8 7.9 33.8 7.35 33.3 6.85 32.6 6.85 31.9 6.85 31.0 7.35 30.5 7.9 29.8 8.75 29.8 9.65 29.8 10.15 30.5 M18.25 28.2 Q18.05 27.35 18.85 27.1 19.9 26.8 20.05 27.8 20.3 28.65 19.45 28.85 18.5 29.1 18.25 28.2 M15.55 14.15 L14.7 15.45 13.2 15.6 Q12.3 15.35 11.9 14.7 11.45 13.95 11.8 13.15 11.9 12.3 12.65 12.0 13.4 11.6 14.15 11.75 14.9 11.85 15.35 12.65 15.8 13.4 15.55 14.15 M6.95 22.65 Q6.6 21.8 7.05 21.2 7.45 20.4 8.35 20.2 9.1 19.9 9.8 20.4 10.5 20.75 10.7 21.6 10.9 22.4 10.5 23.1 L9.3 24.1 7.8 23.9 Q7.05 23.45 6.95 22.65 M1.75 22.25 Q1.55 21.95 1.65 21.6 1.75 20.65 2.7 20.85 3.55 21.1 3.45 21.95 3.25 22.9 2.3 22.65 L1.75 22.25 M2.3 18.9 Q2.6 18.05 3.45 18.4 4.35 18.55 4.15 19.55 3.8 20.4 2.95 20.1 1.95 19.8 2.3 18.9 M4.55 16.0 Q5.3 16.3 5.0 17.2 4.55 18.05 3.8 17.6 2.95 17.2 3.25 16.4 3.7 15.6 4.55 16.0 M4.55 14.05 Q5.0 13.15 5.8 13.6 6.6 14.05 6.15 14.9 5.65 15.7 4.85 15.25 4.0 14.8 4.55 14.05 M7.25 11.6 Q8.0 12.0 7.45 12.9 6.95 13.6 6.15 13.05 5.4 12.45 5.95 11.75 6.15 11.45 6.6 11.35 6.95 11.25 7.25 11.6 M8.35 9.3 L8.95 9.5 Q9.7 10.2 9.1 10.9 8.4 11.6 7.8 10.9 7.05 10.3 7.7 9.6 7.9 9.3 8.35 9.3 M9.65 7.65 Q10.25 7.05 10.9 7.75 L11.1 8.45 10.9 9.05 Q10.15 9.75 9.55 9.05 8.85 8.3 9.65 7.65 M11.65 5.95 Q12.4 5.4 13.1 6.2 13.6 6.9 12.85 7.55 12.0 8.1 11.45 7.35 10.9 6.45 11.65 5.95 M16.4 3.25 Q17.2 2.9 17.6 3.75 18.05 4.55 17.2 4.95 16.3 5.3 15.9 4.55 15.55 3.65 16.4 3.25 M14.05 4.55 Q14.75 4.0 15.2 4.85 15.65 5.6 14.9 6.2 14.05 6.6 13.6 5.85 13.2 4.95 14.05 4.55 M33.45 22.8 Q34.2 22.25 34.75 23.1 35.3 23.9 34.5 24.4 33.65 24.85 33.2 24.1 32.7 23.35 33.45 22.8 M33.2 20.85 Q33.9 21.4 33.35 22.15 32.7 22.9 32.05 22.25 31.3 21.7 31.95 21.0 32.5 20.2 33.2 20.85 M29.8 19.8 Q30.1 18.8 30.95 19.25 31.8 19.55 31.5 20.4 31.2 21.3 30.3 21.0 29.45 20.65 29.8 19.8 M22.65 22.65 Q24.4 21.0 26.95 21.0 29.45 21.0 31.2 22.65 32.9 24.4 33.0 27.0 32.9 29.55 31.2 31.2 29.45 32.95 26.95 33.05 24.4 32.95 22.65 31.2 20.85 29.55 20.95 27.0 20.85 24.4 22.65 22.65" fill="#000000" fill-rule="evenodd" stroke="none"/>
    </g>
  </defs>
</svg>
