<?xml version="1.0" encoding="UTF-8" standalone="no"?>
<svg xmlns:ffdec="https://www.free-decompiler.com/flash" xmlns:xlink="http://www.w3.org/1999/xlink" ffdec:objectType="frame" height="56.0px" width="56.0px" xmlns="http://www.w3.org/2000/svg">
  <g transform="matrix(1.0, 0.0, 0.0, 1.0, 0.0, 0.0)">
    <use ffdec:characterId="63" ffdec:characterName="154_fla.Symbole186_1" height="56.0" id="back" transform="matrix(1.0, 0.0, 0.0, 1.0, 0.0, 0.0)" width="56.0" xlink:href="#sprite0"/>
    <use ffdec:characterId="65" height="55.25" id="back" transform="matrix(1.0, 0.0, 0.0, 1.0, 0.4, 0.6)" width="55.4" xlink:href="#sprite62"/>
    <use ffdec:characterId="67" height="53.75" id="up" transform="matrix(1.0, 0.0, 0.0, 1.0, 1.1, 1.35)" width="53.9" xlink:href="#sprite63"/>
  </g>
  <defs>
    <g id="sprite0" transform="matrix(1.0, 0.0, 0.0, 1.0, 0.0, 0.0)">
      <use ffdec:characterId="62" ffdec:characterName="154_fla.Symbole183_2" height="56.0" id="back" transform="matrix(1.0, 0.0, 0.0, 1.0, 0.0, 0.0)" width="56.0" xlink:href="#sprite1"/>
    </g>
    <g id="sprite1" transform="matrix(1.0, 0.0, 0.0, 1.0, 0.0, 0.0)">
      <use ffdec:characterId="61" ffdec:characterName="154_fla.Symbole180_3" height="56.0" id="back" transform="matrix(1.0, 0.0, 0.0, 1.0, 0.0, 0.0)" width="56.0" xlink:href="#sprite2"/>
    </g>
    <g id="sprite2" transform="matrix(1.0, 0.0, 0.0, 1.0, 0.0, 0.0)">
      <use ffdec:characterId="60" ffdec:characterName="154_fla.Symbole177_4" height="56.0" id="back" transform="matrix(1.0, 0.0, 0.0, 1.0, 0.0, 0.0)" width="56.0" xlink:href="#sprite3"/>
    </g>
    <g id="sprite3" transform="matrix(1.0, 0.0, 0.0, 1.0, 0.0, 0.0)">
      <use ffdec:characterId="59" ffdec:characterName="154_fla.Symbole174_5" height="56.0" id="back" transform="matrix(1.0, 0.0, 0.0, 1.0, 0.0, 0.0)" width="56.0" xlink:href="#sprite4"/>
    </g>
    <g id="sprite4" transform="matrix(1.0, 0.0, 0.0, 1.0, 0.0, 0.0)">
      <use ffdec:characterId="58" ffdec:characterName="154_fla.Symbole171_6" height="56.0" id="back" transform="matrix(1.0, 0.0, 0.0, 1.0, 0.0, 0.0)" width="56.0" xlink:href="#sprite5"/>
    </g>
    <g id="sprite5" transform="matrix(1.0, 0.0, 0.0, 1.0, 0.0, 0.0)">
      <use ffdec:characterId="57" ffdec:characterName="154_fla.Symbole168_7" height="56.0" id="back" transform="matrix(1.0, 0.0, 0.0, 1.0, 0.0, 0.0)" width="56.0" xlink:href="#sprite6"/>
    </g>
    <g id="sprite6" transform="matrix(1.0, 0.0, 0.0, 1.0, 0.0, 0.0)">
      <use ffdec:characterId="56" ffdec:characterName="154_fla.Symbole165_8" height="56.0" id="back" transform="matrix(1.0, 0.0, 0.0, 1.0, 0.0, 0.0)" width="56.0" xlink:href="#sprite7"/>
    </g>
    <g id="sprite7" transform="matrix(1.0, 0.0, 0.0, 1.0, 0.0, 0.0)">
      <use ffdec:characterId="55" ffdec:characterName="154_fla.Symbole162_9" height="56.0" id="back" transform="matrix(1.0, 0.0, 0.0, 1.0, 0.0, 0.0)" width="56.0" xlink:href="#sprite8"/>
    </g>
    <g id="sprite8" transform="matrix(1.0, 0.0, 0.0, 1.0, 0.0, 0.0)">
      <use ffdec:characterId="54" ffdec:characterName="154_fla.Symbole159_10" height="56.0" id="back" transform="matrix(1.0, 0.0, 0.0, 1.0, 0.0, 0.0)" width="56.0" xlink:href="#sprite9"/>
    </g>
    <g id="sprite9" transform="matrix(1.0, 0.0, 0.0, 1.0, 0.0, 0.0)">
      <use ffdec:characterId="53" ffdec:characterName="154_fla.Symbole156_11" height="56.0" id="back" transform="matrix(1.0, 0.0, 0.0, 1.0, 0.0, 0.0)" width="56.0" xlink:href="#sprite10"/>
    </g>
    <g id="sprite10" transform="matrix(1.0, 0.0, 0.0, 1.0, 0.0, 0.0)">
      <use ffdec:characterId="52" ffdec:characterName="154_fla.Symbole153_12" height="56.0" id="back" transform="matrix(1.0, 0.0, 0.0, 1.0, 0.0, 0.0)" width="56.0" xlink:href="#sprite11"/>
    </g>
    <g id="sprite11" transform="matrix(1.0, 0.0, 0.0, 1.0, 0.0, 0.0)">
      <use ffdec:characterId="51" ffdec:characterName="154_fla.Symbole150_13" height="56.0" id="back" transform="matrix(1.0, 0.0, 0.0, 1.0, 0.0, 0.0)" width="56.0" xlink:href="#sprite12"/>
    </g>
    <g id="sprite12" transform="matrix(1.0, 0.0, 0.0, 1.0, 0.0, 0.0)">
      <use ffdec:characterId="50" ffdec:characterName="154_fla.Symbole147_14" height="56.0" id="back" transform="matrix(1.0, 0.0, 0.0, 1.0, 0.0, 0.0)" width="56.0" xlink:href="#sprite13"/>
    </g>
    <g id="sprite13" transform="matrix(1.0, 0.0, 0.0, 1.0, 0.0, 0.0)">
      <use ffdec:characterId="49" ffdec:characterName="154_fla.Symbole144_15" height="56.0" id="back" transform="matrix(1.0, 0.0, 0.0, 1.0, 0.0, 0.0)" width="56.0" xlink:href="#sprite14"/>
    </g>
    <g id="sprite14" transform="matrix(1.0, 0.0, 0.0, 1.0, 0.0, 0.0)">
      <use ffdec:characterId="48" ffdec:characterName="154_fla.Symbole141_16" height="56.0" id="back" transform="matrix(1.0, 0.0, 0.0, 1.0, 0.0, 0.0)" width="56.0" xlink:href="#sprite15"/>
    </g>
    <g id="sprite15" transform="matrix(1.0, 0.0, 0.0, 1.0, 0.0, 0.0)">
      <use ffdec:characterId="47" ffdec:characterName="154_fla.Symbole138_17" height="56.0" id="back" transform="matrix(1.0, 0.0, 0.0, 1.0, 0.0, 0.0)" width="56.0" xlink:href="#sprite16"/>
    </g>
    <g id="sprite16" transform="matrix(1.0, 0.0, 0.0, 1.0, 0.0, 0.0)">
      <use ffdec:characterId="46" ffdec:characterName="154_fla.Symbole135_18" height="56.0" id="back" transform="matrix(1.0, 0.0, 0.0, 1.0, 0.0, 0.0)" width="56.0" xlink:href="#sprite17"/>
    </g>
    <g id="sprite17" transform="matrix(1.0, 0.0, 0.0, 1.0, 0.0, 0.0)">
      <use ffdec:characterId="45" ffdec:characterName="154_fla.Symbole132_19" height="56.0" id="back" transform="matrix(1.0, 0.0, 0.0, 1.0, 0.0, 0.0)" width="56.0" xlink:href="#sprite18"/>
    </g>
    <g id="sprite18" transform="matrix(1.0, 0.0, 0.0, 1.0, 0.0, 0.0)">
      <use ffdec:characterId="44" ffdec:characterName="154_fla.Symbole129_20" height="56.0" id="back" transform="matrix(1.0, 0.0, 0.0, 1.0, 0.0, 0.0)" width="56.0" xlink:href="#sprite19"/>
    </g>
    <g id="sprite19" transform="matrix(1.0, 0.0, 0.0, 1.0, 0.0, 0.0)">
      <use ffdec:characterId="43" ffdec:characterName="154_fla.Symbole126_21" height="56.0" id="back" transform="matrix(1.0, 0.0, 0.0, 1.0, 0.0, 0.0)" width="56.0" xlink:href="#sprite20"/>
    </g>
    <g id="sprite20" transform="matrix(1.0, 0.0, 0.0, 1.0, 0.0, 0.0)">
      <use ffdec:characterId="42" ffdec:characterName="154_fla.Symbole123_22" height="56.0" id="back" transform="matrix(1.0, 0.0, 0.0, 1.0, 0.0, 0.0)" width="56.0" xlink:href="#sprite21"/>
    </g>
    <g id="sprite21" transform="matrix(1.0, 0.0, 0.0, 1.0, 0.0, 0.0)">
      <use ffdec:characterId="41" ffdec:characterName="154_fla.Symbole120_23" height="56.0" id="back" transform="matrix(1.0, 0.0, 0.0, 1.0, 0.0, 0.0)" width="56.0" xlink:href="#sprite22"/>
    </g>
    <g id="sprite22" transform="matrix(1.0, 0.0, 0.0, 1.0, 0.0, 0.0)">
      <use ffdec:characterId="40" ffdec:characterName="154_fla.Symbole117_24" height="56.0" id="back" transform="matrix(1.0, 0.0, 0.0, 1.0, 0.0, 0.0)" width="56.0" xlink:href="#sprite23"/>
    </g>
    <g id="sprite23" transform="matrix(1.0, 0.0, 0.0, 1.0, 0.0, 0.0)">
      <use ffdec:characterId="39" ffdec:characterName="154_fla.Symbole114_25" height="56.0" id="back" transform="matrix(1.0, 0.0, 0.0, 1.0, 0.0, 0.0)" width="56.0" xlink:href="#sprite24"/>
    </g>
    <g id="sprite24" transform="matrix(1.0, 0.0, 0.0, 1.0, 0.0, 0.0)">
      <use ffdec:characterId="38" ffdec:characterName="154_fla.Symbole111_26" height="56.0" id="back" transform="matrix(1.0, 0.0, 0.0, 1.0, 0.0, 0.0)" width="56.0" xlink:href="#sprite25"/>
    </g>
    <g id="sprite25" transform="matrix(1.0, 0.0, 0.0, 1.0, 0.0, 0.0)">
      <use ffdec:characterId="37" ffdec:characterName="154_fla.Symbole108_27" height="56.0" id="back" transform="matrix(1.0, 0.0, 0.0, 1.0, 0.0, 0.0)" width="56.0" xlink:href="#sprite26"/>
    </g>
    <g id="sprite26" transform="matrix(1.0, 0.0, 0.0, 1.0, 0.0, 0.0)">
      <use ffdec:characterId="36" ffdec:characterName="154_fla.Symbole105_28" height="56.0" id="back" transform="matrix(1.0, 0.0, 0.0, 1.0, 0.0, 0.0)" width="56.0" xlink:href="#sprite27"/>
    </g>
    <g id="sprite27" transform="matrix(1.0, 0.0, 0.0, 1.0, 0.0, 0.0)">
      <use ffdec:characterId="35" ffdec:characterName="154_fla.Symbole102_29" height="56.0" id="back" transform="matrix(1.0, 0.0, 0.0, 1.0, 0.0, 0.0)" width="56.0" xlink:href="#sprite28"/>
    </g>
    <g id="sprite28" transform="matrix(1.0, 0.0, 0.0, 1.0, 0.0, 0.0)">
      <use ffdec:characterId="34" ffdec:characterName="154_fla.Symbole99_30" height="56.0" id="back" transform="matrix(1.0, 0.0, 0.0, 1.0, 0.0, 0.0)" width="56.0" xlink:href="#sprite29"/>
    </g>
    <g id="sprite29" transform="matrix(1.0, 0.0, 0.0, 1.0, 0.0, 0.0)">
      <use ffdec:characterId="33" ffdec:characterName="154_fla.Symbole96_31" height="56.0" id="back" transform="matrix(1.0, 0.0, 0.0, 1.0, 0.0, 0.0)" width="56.0" xlink:href="#sprite30"/>
    </g>
    <g id="sprite30" transform="matrix(1.0, 0.0, 0.0, 1.0, 0.0, 0.0)">
      <use ffdec:characterId="32" ffdec:characterName="154_fla.Symbole93_32" height="56.0" id="back" transform="matrix(1.0, 0.0, 0.0, 1.0, 0.0, 0.0)" width="56.0" xlink:href="#sprite31"/>
    </g>
    <g id="sprite31" transform="matrix(1.0, 0.0, 0.0, 1.0, 0.0, 0.0)">
      <use ffdec:characterId="31" ffdec:characterName="154_fla.Symbole90_33" height="56.0" id="back" transform="matrix(1.0, 0.0, 0.0, 1.0, 0.0, 0.0)" width="56.0" xlink:href="#sprite32"/>
    </g>
    <g id="sprite32" transform="matrix(1.0, 0.0, 0.0, 1.0, 0.0, 0.0)">
      <use ffdec:characterId="30" ffdec:characterName="154_fla.Symbole87_34" height="56.0" id="back" transform="matrix(1.0, 0.0, 0.0, 1.0, 0.0, 0.0)" width="56.0" xlink:href="#sprite33"/>
    </g>
    <g id="sprite33" transform="matrix(1.0, 0.0, 0.0, 1.0, 0.0, 0.0)">
      <use ffdec:characterId="29" ffdec:characterName="154_fla.Symbole84_35" height="56.0" id="back" transform="matrix(1.0, 0.0, 0.0, 1.0, 0.0, 0.0)" width="56.0" xlink:href="#sprite34"/>
    </g>
    <g id="sprite34" transform="matrix(1.0, 0.0, 0.0, 1.0, 0.0, 0.0)">
      <use ffdec:characterId="28" ffdec:characterName="154_fla.Symbole81_36" height="56.0" id="back" transform="matrix(1.0, 0.0, 0.0, 1.0, 0.0, 0.0)" width="56.0" xlink:href="#sprite35"/>
    </g>
    <g id="sprite35" transform="matrix(1.0, 0.0, 0.0, 1.0, 0.0, 0.0)">
      <use ffdec:characterId="27" ffdec:characterName="154_fla.Symbole78_37" height="56.0" id="back" transform="matrix(1.0, 0.0, 0.0, 1.0, 0.0, 0.0)" width="56.0" xlink:href="#sprite36"/>
    </g>
    <g id="sprite36" transform="matrix(1.0, 0.0, 0.0, 1.0, 0.0, 0.0)">
      <use ffdec:characterId="26" ffdec:characterName="154_fla.Symbole75_38" height="56.0" id="back" transform="matrix(1.0, 0.0, 0.0, 1.0, 0.0, 0.0)" width="56.0" xlink:href="#sprite37"/>
    </g>
    <g id="sprite37" transform="matrix(1.0, 0.0, 0.0, 1.0, 0.0, 0.0)">
      <use ffdec:characterId="25" ffdec:characterName="154_fla.Symbole72_39" height="56.0" id="back" transform="matrix(1.0, 0.0, 0.0, 1.0, 0.0, 0.0)" width="56.0" xlink:href="#sprite38"/>
    </g>
    <g id="sprite38" transform="matrix(1.0, 0.0, 0.0, 1.0, 0.0, 0.0)">
      <use ffdec:characterId="24" ffdec:characterName="154_fla.Symbole69_40" height="56.0" id="back" transform="matrix(1.0, 0.0, 0.0, 1.0, 0.0, 0.0)" width="56.0" xlink:href="#sprite39"/>
    </g>
    <g id="sprite39" transform="matrix(1.0, 0.0, 0.0, 1.0, 0.0, 0.0)">
      <use ffdec:characterId="23" ffdec:characterName="154_fla.Symbole66_41" height="56.0" id="back" transform="matrix(1.0, 0.0, 0.0, 1.0, 0.0, 0.0)" width="56.0" xlink:href="#sprite40"/>
    </g>
    <g id="sprite40" transform="matrix(1.0, 0.0, 0.0, 1.0, 0.0, 0.0)">
      <use ffdec:characterId="22" ffdec:characterName="154_fla.Symbole63_42" height="56.0" id="back" transform="matrix(1.0, 0.0, 0.0, 1.0, 0.0, 0.0)" width="56.0" xlink:href="#sprite41"/>
    </g>
    <g id="sprite41" transform="matrix(1.0, 0.0, 0.0, 1.0, 0.0, 0.0)">
      <use ffdec:characterId="21" ffdec:characterName="154_fla.Symbole60_43" height="56.0" id="back" transform="matrix(1.0, 0.0, 0.0, 1.0, 0.0, 0.0)" width="56.0" xlink:href="#sprite42"/>
    </g>
    <g id="sprite42" transform="matrix(1.0, 0.0, 0.0, 1.0, 0.0, 0.0)">
      <use ffdec:characterId="20" ffdec:characterName="154_fla.Symbole57_44" height="56.0" id="back" transform="matrix(1.0, 0.0, 0.0, 1.0, 0.0, 0.0)" width="56.0" xlink:href="#sprite43"/>
    </g>
    <g id="sprite43" transform="matrix(1.0, 0.0, 0.0, 1.0, 0.0, 0.0)">
      <use ffdec:characterId="19" ffdec:characterName="154_fla.Symbole54_45" height="56.0" id="back" transform="matrix(1.0, 0.0, 0.0, 1.0, 0.0, 0.0)" width="56.0" xlink:href="#sprite44"/>
    </g>
    <g id="sprite44" transform="matrix(1.0, 0.0, 0.0, 1.0, 0.0, 0.0)">
      <use ffdec:characterId="18" ffdec:characterName="154_fla.Symbole51_46" height="56.0" id="back" transform="matrix(1.0, 0.0, 0.0, 1.0, 0.0, 0.0)" width="56.0" xlink:href="#sprite45"/>
    </g>
    <g id="sprite45" transform="matrix(1.0, 0.0, 0.0, 1.0, 0.0, 0.0)">
      <use ffdec:characterId="17" ffdec:characterName="154_fla.Symbole48_47" height="56.0" id="back" transform="matrix(1.0, 0.0, 0.0, 1.0, 0.0, 0.0)" width="56.0" xlink:href="#sprite46"/>
    </g>
    <g id="sprite46" transform="matrix(1.0, 0.0, 0.0, 1.0, 0.0, 0.0)">
      <use ffdec:characterId="16" ffdec:characterName="154_fla.Symbole45_48" height="56.0" id="back" transform="matrix(1.0, 0.0, 0.0, 1.0, 0.0, 0.0)" width="56.0" xlink:href="#sprite47"/>
    </g>
    <g id="sprite47" transform="matrix(1.0, 0.0, 0.0, 1.0, 0.0, 0.0)">
      <use ffdec:characterId="15" ffdec:characterName="154_fla.Symbole42_49" height="56.0" id="back" transform="matrix(1.0, 0.0, 0.0, 1.0, 0.0, 0.0)" width="56.0" xlink:href="#sprite48"/>
    </g>
    <g id="sprite48" transform="matrix(1.0, 0.0, 0.0, 1.0, 0.0, 0.0)">
      <use ffdec:characterId="14" ffdec:characterName="154_fla.Symbole39_50" height="56.0" id="back" transform="matrix(1.0, 0.0, 0.0, 1.0, 0.0, 0.0)" width="56.0" xlink:href="#sprite49"/>
    </g>
    <g id="sprite49" transform="matrix(1.0, 0.0, 0.0, 1.0, 0.0, 0.0)">
      <use ffdec:characterId="13" ffdec:characterName="154_fla.Symbole36_51" height="56.0" id="back" transform="matrix(1.0, 0.0, 0.0, 1.0, 0.0, 0.0)" width="56.0" xlink:href="#sprite50"/>
    </g>
    <g id="sprite50" transform="matrix(1.0, 0.0, 0.0, 1.0, 0.0, 0.0)">
      <use ffdec:characterId="12" ffdec:characterName="154_fla.Symbole33_52" height="56.0" id="back" transform="matrix(1.0, 0.0, 0.0, 1.0, 0.0, 0.0)" width="56.0" xlink:href="#sprite51"/>
    </g>
    <g id="sprite51" transform="matrix(1.0, 0.0, 0.0, 1.0, 0.0, 0.0)">
      <use ffdec:characterId="11" ffdec:characterName="154_fla.Symbole30_53" height="56.0" id="back" transform="matrix(1.0, 0.0, 0.0, 1.0, 0.0, 0.0)" width="56.0" xlink:href="#sprite52"/>
    </g>
    <g id="sprite52" transform="matrix(1.0, 0.0, 0.0, 1.0, 0.0, 0.0)">
      <use ffdec:characterId="10" ffdec:characterName="154_fla.Symbole27_54" height="56.0" id="back" transform="matrix(1.0, 0.0, 0.0, 1.0, 0.0, 0.0)" width="56.0" xlink:href="#sprite53"/>
    </g>
    <g id="sprite53" transform="matrix(1.0, 0.0, 0.0, 1.0, 0.0, 0.0)">
      <use ffdec:characterId="9" ffdec:characterName="154_fla.Symbole24_55" height="56.0" id="back" transform="matrix(1.0, 0.0, 0.0, 1.0, 0.0, 0.0)" width="56.0" xlink:href="#sprite54"/>
    </g>
    <g id="sprite54" transform="matrix(1.0, 0.0, 0.0, 1.0, 0.0, 0.0)">
      <use ffdec:characterId="8" ffdec:characterName="154_fla.Symbole21_56" height="56.0" id="back" transform="matrix(1.0, 0.0, 0.0, 1.0, 0.0, 0.0)" width="56.0" xlink:href="#sprite55"/>
    </g>
    <g id="sprite55" transform="matrix(1.0, 0.0, 0.0, 1.0, 0.0, 0.0)">
      <use ffdec:characterId="7" ffdec:characterName="154_fla.Symbole18_57" height="56.0" id="back" transform="matrix(1.0, 0.0, 0.0, 1.0, 0.0, 0.0)" width="56.0" xlink:href="#sprite56"/>
    </g>
    <g id="sprite56" transform="matrix(1.0, 0.0, 0.0, 1.0, 0.0, 0.0)">
      <use ffdec:characterId="6" ffdec:characterName="154_fla.Symbole15_58" height="56.0" id="back" transform="matrix(1.0, 0.0, 0.0, 1.0, 0.0, 0.0)" width="56.0" xlink:href="#sprite57"/>
    </g>
    <g id="sprite57" transform="matrix(1.0, 0.0, 0.0, 1.0, 0.0, 0.0)">
      <use ffdec:characterId="5" ffdec:characterName="154_fla.Symbole12_59" height="56.0" id="back" transform="matrix(1.0, 0.0, 0.0, 1.0, 0.0, 0.0)" width="56.0" xlink:href="#sprite58"/>
    </g>
    <g id="sprite58" transform="matrix(1.0, 0.0, 0.0, 1.0, 0.0, 0.0)">
      <use ffdec:characterId="4" ffdec:characterName="154_fla.Symbole9_60" height="56.0" id="back" transform="matrix(1.0, 0.0, 0.0, 1.0, 0.0, 0.0)" width="56.0" xlink:href="#sprite59"/>
    </g>
    <g id="sprite59" transform="matrix(1.0, 0.0, 0.0, 1.0, 0.0, 0.0)">
      <use ffdec:characterId="3" ffdec:characterName="154_fla.Symbole6_61" height="56.0" id="back" transform="matrix(1.0, 0.0, 0.0, 1.0, 0.0, 0.0)" width="56.0" xlink:href="#sprite60"/>
    </g>
    <g id="sprite60" transform="matrix(1.0, 0.0, 0.0, 1.0, 0.0, 0.0)">
      <use ffdec:characterId="2" height="56.0" id="back" transform="matrix(1.0, 0.0, 0.0, 1.0, 0.0, 0.0)" width="56.0" xlink:href="#sprite61"/>
    </g>
    <g id="sprite61" transform="matrix(1.0, 0.0, 0.0, 1.0, 0.0, 0.0)">
      <use ffdec:characterId="1" height="56.0" transform="matrix(1.0, 0.0, 0.0, 1.0, 0.0, 0.0)" width="56.0" xlink:href="#shape0"/>
    </g>
    <g id="shape0" transform="matrix(1.0, 0.0, 0.0, 1.0, 0.0, 0.0)">
      <path d="M56.0 56.0 L0.0 56.0 0.0 0.0 56.0 0.0 56.0 56.0" fill="#010101" fill-opacity="0.0" fill-rule="evenodd" stroke="none"/>
    </g>
    <g id="sprite62" transform="matrix(1.0, 0.0, 0.0, 1.0, 0.75, 0.75)">
      <use ffdec:characterId="64" height="55.25" transform="matrix(1.0, 0.0, 0.0, 1.0, -0.75, -0.75)" width="55.4" xlink:href="#shape1"/>
    </g>
    <g id="shape1" transform="matrix(1.0, 0.0, 0.0, 1.0, 0.75, 0.75)">
      <path d="M41.0 23.85 L40.65 24.65 40.1 25.75 Q38.65 27.9 35.6 27.9 38.4 28.1 41.0 31.3 43.0 34.4 41.65 37.25 L41.4 37.15 Q41.65 36.2 41.0 35.35 40.25 34.55 39.15 34.4 37.95 34.2 37.1 34.8 36.2 35.45 35.95 36.5 L35.85 36.75 35.85 37.15 36.45 38.2 Q36.65 38.6 37.15 38.85 38.55 39.65 40.55 40.1 41.4 40.35 42.05 40.8 L43.75 42.5 Q44.8 44.15 44.45 46.75 L43.75 44.7 Q42.35 42.7 40.35 44.15 38.95 45.05 38.9 47.0 38.8 47.95 39.05 48.65 40.35 51.7 43.3 51.7 L45.85 51.3 44.45 52.2 43.75 52.55 43.3 52.6 41.55 52.9 39.75 52.75 39.25 52.7 38.4 52.45 Q34.75 51.4 32.4 47.9 L31.65 46.6 31.1 45.3 Q30.25 43.15 30.5 41.85 27.0 43.5 28.6 46.75 25.7 45.45 26.15 43.3 26.6 41.15 25.7 40.55 24.95 39.9 24.35 40.1 23.75 40.15 23.3 40.55 L22.4 41.55 Q22.1 42.2 22.45 42.7 23.2 43.75 24.1 43.3 22.25 44.4 20.8 42.25 20.25 41.65 20.8 39.6 L21.2 37.6 21.1 37.6 Q19.95 40.35 17.4 40.95 L16.1 41.15 15.4 41.05 16.65 40.25 Q18.8 38.55 17.4 34.75 16.55 32.15 17.15 30.15 L18.65 28.95 32.75 38.55 27.8 22.5 29.6 21.2 Q32.05 21.25 34.3 23.35 37.35 26.1 39.75 24.9 L41.0 23.85 M47.15 41.95 Q47.8 42.7 48.85 42.7 L50.0 42.35 49.9 42.35 Q49.35 42.35 48.95 41.95 48.6 41.65 48.6 41.05 48.6 40.45 48.95 40.15 49.35 39.75 49.9 39.75 50.5 39.75 50.8 40.15 L51.2 40.7 51.2 40.35 Q51.2 39.35 50.5 38.6 49.8 37.95 48.85 37.95 47.8 37.95 47.15 38.6 46.5 39.35 46.5 40.35 46.5 41.3 47.15 41.95 M26.35 22.1 L30.6 35.6 18.9 27.75 7.35 35.85 11.25 22.3 0.0 13.9 14.05 13.3 18.65 0.0 23.4 13.25 37.5 13.5 26.35 22.1 M21.4 20.55 L22.85 25.15 18.95 22.45 15.1 25.15 16.35 20.65 12.65 17.8 17.35 17.65 18.9 13.15 20.45 17.55 25.15 17.7 21.4 20.55 M29.7 50.55 Q29.05 50.65 28.65 51.15 28.25 51.6 28.3 52.3 L28.6 53.0 28.6 52.9 28.75 52.35 Q28.95 52.05 29.35 52.05 29.7 51.95 29.95 52.2 L30.25 52.75 30.15 53.4 29.8 53.75 30.05 53.65 Q30.65 53.65 31.1 53.05 31.45 52.6 31.45 51.95 31.35 51.3 30.9 50.9 30.35 50.55 29.7 50.55 M52.5 49.95 L53.1 49.6 53.55 49.7 53.3 49.5 Q52.85 49.0 52.1 49.1 51.55 49.1 51.05 49.7 50.65 50.15 50.75 50.8 50.8 51.45 51.3 51.95 51.8 52.35 52.5 52.2 53.1 52.2 53.45 51.7 L53.9 50.9 53.8 51.0 53.25 51.3 52.6 51.15 Q52.25 50.9 52.25 50.55 52.25 50.15 52.5 49.95 Z" fill="none" stroke="#000000" stroke-linecap="round" stroke-linejoin="round" stroke-opacity="0.2" stroke-width="1.5"/>
    </g>
    <g id="sprite63" transform="matrix(1.0, 0.0, 0.0, 1.0, 0.0, 0.0)">
      <use ffdec:characterId="66" height="53.75" transform="matrix(1.0, 0.0, 0.0, 1.0, 0.0, 0.0)" width="53.9" xlink:href="#shape2"/>
    </g>
    <g id="shape2" transform="matrix(1.0, 0.0, 0.0, 1.0, 0.0, 0.0)">
      <path d="M41.0 23.8 L40.7 24.65 40.1 25.75 Q38.65 27.9 35.65 27.9 38.4 28.15 41.0 31.3 43.05 34.4 41.65 37.25 L41.4 37.15 Q41.65 36.2 41.0 35.35 40.3 34.55 39.2 34.4 38.0 34.25 37.1 34.8 36.2 35.45 36.0 36.5 L35.9 36.75 35.9 37.15 36.45 38.2 37.2 38.85 Q38.55 39.7 40.6 40.1 41.4 40.35 42.05 40.8 L43.75 42.5 Q44.8 44.15 44.5 46.75 L43.75 44.7 Q42.4 42.7 40.35 44.15 39.0 45.05 38.9 47.0 38.8 47.95 39.05 48.6 40.35 51.7 43.35 51.7 L45.9 51.3 44.5 52.2 43.75 52.5 43.35 52.6 41.6 52.95 39.8 52.75 39.3 52.7 38.4 52.45 Q34.75 51.4 32.4 47.9 L31.65 46.6 31.1 45.3 Q30.3 43.15 30.55 41.85 27.05 43.5 28.6 46.75 25.75 45.45 26.15 43.35 26.65 41.15 25.75 40.55 24.95 39.9 24.35 40.1 23.8 40.15 23.3 40.55 L22.4 41.55 Q22.1 42.2 22.5 42.7 23.25 43.75 24.1 43.35 22.25 44.4 20.8 42.3 20.3 41.65 20.8 39.6 L21.2 37.55 21.1 37.55 Q20.0 40.35 17.45 41.0 L16.15 41.15 15.45 41.05 16.65 40.25 Q18.85 38.55 17.45 34.7 16.55 32.2 17.15 30.15 L18.7 28.95 32.8 38.55 27.85 22.5 29.65 21.2 Q32.1 21.3 34.35 23.35 37.35 26.1 39.8 24.9 L41.0 23.8 M21.45 20.55 L25.2 17.7 20.45 17.55 18.95 13.15 17.4 17.65 12.7 17.8 16.4 20.65 15.1 25.1 19.0 22.45 22.9 25.1 21.45 20.55 M47.2 38.6 Q47.85 37.95 48.9 37.95 49.85 37.95 50.5 38.6 51.25 39.35 51.25 40.35 L51.25 40.75 50.85 40.15 Q50.5 39.75 49.95 39.75 49.35 39.75 48.95 40.15 48.65 40.5 48.65 41.05 48.65 41.65 48.95 41.95 49.35 42.35 49.95 42.35 L50.0 42.35 Q49.55 42.7 48.9 42.7 47.85 42.7 47.2 41.95 46.55 41.3 46.55 40.35 46.55 39.35 47.2 38.6 M26.4 22.1 L30.6 35.6 18.95 27.7 7.4 35.85 11.3 22.3 0.0 13.9 14.05 13.35 18.7 0.0 23.4 13.25 37.5 13.5 26.4 22.1 M53.6 49.7 L53.1 49.6 Q52.8 49.6 52.55 49.9 52.3 50.15 52.3 50.55 52.3 50.9 52.6 51.15 L53.25 51.3 53.85 51.0 53.9 50.9 53.5 51.7 Q53.1 52.2 52.55 52.2 51.8 52.35 51.3 51.95 50.85 51.45 50.75 50.8 50.65 50.15 51.1 49.7 51.55 49.1 52.15 49.1 52.85 49.05 53.35 49.5 L53.6 49.7 M29.75 50.55 Q30.4 50.55 30.95 50.9 L31.45 51.95 31.1 53.1 Q30.7 53.65 30.05 53.65 L29.8 53.75 30.15 53.4 30.3 52.75 Q30.3 52.45 29.95 52.2 29.75 51.95 29.4 52.05 29.0 52.05 28.75 52.35 28.6 52.6 28.6 52.95 L28.6 53.0 28.35 52.3 Q28.25 51.65 28.65 51.15 29.1 50.65 29.75 50.55" fill="#000000" fill-rule="evenodd" stroke="none"/>
    </g>
  </defs>
</svg>
