<?xml version="1.0" encoding="UTF-8" standalone="no"?>
<svg xmlns:ffdec="https://www.free-decompiler.com/flash" xmlns:xlink="http://www.w3.org/1999/xlink" ffdec:objectType="frame" height="56.0px" width="56.0px" xmlns="http://www.w3.org/2000/svg">
  <g transform="matrix(1.0, 0.0, 0.0, 1.0, 0.0, 0.0)">
    <use ffdec:characterId="2" height="56.0" id="back" transform="matrix(1.0, 0.0, 0.0, 1.0, 0.0, 0.0)" width="56.0" xlink:href="#sprite0"/>
    <use ffdec:characterId="4" height="55.25" id="back" transform="matrix(1.0, 0.0, 0.0, 1.0, 1.65, 0.3)" width="52.2" xlink:href="#sprite1"/>
    <use ffdec:characterId="6" height="53.75" id="up" transform="matrix(1.0, 0.0, 0.0, 1.0, 2.4, 1.1)" width="50.7" xlink:href="#sprite2"/>
  </g>
  <defs>
    <g id="sprite0" transform="matrix(1.0, 0.0, 0.0, 1.0, 0.0, 0.0)">
      <use ffdec:characterId="1" height="56.0" transform="matrix(1.0, 0.0, 0.0, 1.0, 0.0, 0.0)" width="56.0" xlink:href="#shape0"/>
    </g>
    <g id="shape0" transform="matrix(1.0, 0.0, 0.0, 1.0, 0.0, 0.0)">
      <path d="M56.0 56.0 L0.0 56.0 0.0 0.0 56.0 0.0 56.0 56.0" fill="#010101" fill-opacity="0.0" fill-rule="evenodd" stroke="none"/>
    </g>
    <g id="sprite1" transform="matrix(1.0, 0.0, 0.0, 1.0, 0.75, 0.75)">
      <use ffdec:characterId="3" height="55.25" transform="matrix(1.0, 0.0, 0.0, 1.0, -0.75, -0.75)" width="52.2" xlink:href="#shape1"/>
    </g>
    <g id="shape1" transform="matrix(1.0, 0.0, 0.0, 1.0, 0.75, 0.75)">
      <path d="M43.5 0.6 L43.35 0.55 43.1 0.6 43.0 0.8 43.0 8.55 43.1 8.7 43.35 8.85 43.5 8.7 43.55 8.55 43.55 0.8 43.5 0.6 M42.85 9.8 Q37.2 11.8 36.05 20.1 L43.0 11.5 43.0 9.75 42.85 9.8 M43.85 9.8 Q49.55 11.8 50.7 20.1 L43.7 11.5 49.95 21.9 49.4 29.45 Q46.95 27.3 43.7 27.15 L43.7 11.5 43.7 9.75 43.85 9.8 M48.45 35.05 L47.45 38.8 Q45.85 36.2 43.7 34.6 L43.7 31.75 Q45.8 31.95 47.35 33.45 L48.3 34.75 48.45 35.05 M49.4 30.05 L48.75 34.3 47.75 33.1 Q46.05 31.5 43.7 31.25 L43.7 27.7 Q46.9 27.85 49.25 29.9 L49.25 29.95 49.4 30.05 M38.55 33.1 L38.0 33.85 37.35 29.9 37.5 29.75 Q39.85 27.75 43.0 27.7 L43.0 31.25 Q40.45 31.25 38.55 33.1 M38.25 34.3 L38.95 33.45 Q40.65 31.75 43.0 31.75 L43.0 34.6 Q40.9 35.9 39.3 38.8 38.55 36.9 38.1 34.45 L38.25 34.3 M43.95 35.95 Q45.85 37.55 47.15 40.15 46.15 46.9 43.4 52.55 L43.35 52.75 Q40.3 46.6 39.75 40.1 40.5 38.05 43.1 35.7 43.5 35.55 43.95 35.95 M43.0 11.5 L36.8 21.9 37.25 29.25 Q39.75 27.25 43.0 27.15 L43.0 11.5 M25.55 1.45 Q28.6 7.6 29.15 14.1 28.3 16.2 25.8 18.6 25.4 18.65 24.95 18.35 23.0 16.75 21.75 14.1 22.75 7.3 25.5 1.75 L25.55 1.45 M20.65 19.45 L20.4 19.25 Q20.8 17.1 21.45 15.55 23.0 18.1 25.2 19.7 L25.2 22.45 Q23.05 22.3 21.55 20.85 L20.65 19.45 M21.15 21.1 Q22.85 22.75 25.2 22.95 L25.2 26.6 Q22.0 26.45 19.65 24.35 L19.5 24.2 20.2 19.85 21.15 21.1 M25.9 19.7 Q28.0 18.35 29.6 15.55 L30.8 19.75 30.65 19.85 30.0 20.85 Q28.25 22.45 25.9 22.45 L25.9 19.7 M30.9 20.45 L31.55 24.35 31.35 24.5 Q29.05 26.45 25.9 26.6 L25.9 22.95 Q28.45 22.95 30.25 21.1 L30.9 20.45 M7.75 9.15 L7.9 9.2 Q13.5 11.35 14.65 19.55 L7.75 10.95 13.9 21.3 13.35 28.9 Q10.95 26.75 7.75 26.6 L7.75 10.95 7.75 9.15 M7.05 0.0 L7.0 0.25 7.0 7.95 7.05 8.1 7.3 8.25 7.45 8.1 7.5 7.95 7.5 0.25 7.45 0.0 7.3 0.0 7.05 0.0 M6.8 9.2 Q1.2 11.35 0.0 19.55 L6.9 10.95 0.75 21.3 Q0.9 25.4 1.3 28.75 3.7 26.7 7.0 26.6 L7.0 9.15 6.8 9.2 M13.3 29.45 L12.65 33.75 11.65 32.6 Q10.0 30.9 7.75 30.65 L7.75 27.1 Q10.85 27.25 13.15 29.35 L13.3 29.45 M12.3 34.15 L12.45 34.45 11.45 38.2 Q9.85 35.6 7.75 34.05 L7.75 31.2 Q9.8 31.4 11.35 32.9 L12.3 34.15 M1.5 29.25 Q3.85 27.15 7.0 27.1 L7.0 30.65 Q4.4 30.65 2.55 32.6 L1.9 33.25 1.35 29.35 Q1.45 29.25 1.5 29.25 M2.2 33.75 L2.95 32.9 Q4.55 31.2 7.0 31.2 L7.0 34.05 Q4.9 35.3 3.25 38.2 2.55 36.35 2.05 33.9 L2.2 33.75 M7.9 35.4 Q9.85 36.95 11.1 39.6 10.1 46.3 7.35 52.0 L7.3 52.2 Q4.25 46.05 3.7 39.55 4.5 37.5 7.05 35.15 7.45 35.0 7.9 35.4 M31.65 25.05 Q29.15 26.95 25.9 27.0 L25.9 42.65 32.1 32.35 31.65 25.05 M18.95 32.35 L25.1 42.65 18.15 34.1 Q19.4 42.45 24.95 44.4 L25.2 44.5 25.2 27.0 Q21.9 26.95 19.5 24.8 19.1 28.15 18.95 32.35 M25.8 45.55 L25.55 45.5 25.4 45.55 25.35 45.8 25.35 53.4 25.4 53.6 25.55 53.75 25.8 53.6 25.9 53.4 25.9 45.8 25.8 45.55 M25.9 44.5 L26.05 44.4 Q31.7 42.45 32.85 34.1 L25.9 42.65 25.9 44.5 Z" fill="none" stroke="#000000" stroke-linecap="round" stroke-linejoin="round" stroke-opacity="0.2" stroke-width="1.5"/>
    </g>
    <g id="sprite2" transform="matrix(1.0, 0.0, 0.0, 1.0, 0.0, 0.0)">
      <use ffdec:characterId="5" height="53.75" transform="matrix(1.0, 0.0, 0.0, 1.0, 0.0, 0.0)" width="50.7" xlink:href="#shape2"/>
    </g>
    <g id="shape2" transform="matrix(1.0, 0.0, 0.0, 1.0, 0.0, 0.0)">
      <path d="M42.9 9.8 L43.0 9.75 43.0 11.55 36.1 20.1 Q37.25 11.8 42.9 9.8 M43.55 0.6 L43.6 0.8 43.6 8.55 43.55 8.65 43.4 8.8 43.1 8.65 43.0 8.55 43.0 0.8 43.1 0.6 43.4 0.5 43.55 0.6 M43.9 9.8 Q49.55 11.8 50.7 20.1 L43.75 11.55 49.95 21.9 49.4 29.45 Q46.95 27.35 43.75 27.2 L43.75 11.55 43.75 9.75 43.9 9.8 M49.25 29.95 L49.4 30.05 48.75 34.35 47.75 33.1 Q46.1 31.45 43.75 31.25 L43.75 27.7 Q46.9 27.85 49.25 29.9 L49.25 29.95 M48.45 35.05 Q48.05 37.1 47.45 38.75 45.9 36.2 43.75 34.6 L43.75 31.75 Q45.8 31.95 47.4 33.45 L48.3 34.75 48.45 35.05 M38.6 33.1 L38.0 33.85 37.35 29.9 37.5 29.75 Q39.85 27.75 43.0 27.7 L43.0 31.25 Q40.45 31.25 38.6 33.1 M43.0 31.75 L43.0 34.6 Q40.95 35.9 39.3 38.75 38.6 36.9 38.1 34.45 L38.25 34.35 38.95 33.45 Q40.65 31.75 43.0 31.75 M43.95 36.0 Q45.9 37.55 47.2 40.2 46.15 46.9 43.45 52.55 L43.4 52.75 Q40.3 46.65 39.8 40.1 40.5 38.05 43.1 35.7 43.55 35.55 43.95 36.0 M43.0 11.55 L43.0 27.2 Q39.8 27.25 37.3 29.25 L36.8 21.9 43.0 11.55 M25.55 1.45 Q28.65 7.6 29.15 14.1 28.35 16.25 25.85 18.6 L25.0 18.3 Q23.0 16.75 21.75 14.1 22.75 7.3 25.5 1.75 L25.55 1.45 M21.2 21.1 Q22.85 22.75 25.2 22.95 L25.2 26.6 Q22.05 26.45 19.7 24.3 L19.55 24.2 Q19.75 21.9 20.2 19.9 L21.2 21.1 M20.6 19.45 L20.4 19.25 Q20.85 17.1 21.5 15.55 23.0 18.1 25.2 19.7 L25.2 22.45 Q23.05 22.3 21.55 20.8 L20.6 19.45 M25.9 19.7 Q28.0 18.3 29.65 15.55 L30.85 19.75 30.65 19.9 30.0 20.8 Q28.3 22.45 25.9 22.45 L25.9 19.7 M30.95 20.45 L31.55 24.3 31.35 24.45 Q29.05 26.45 25.9 26.6 L25.9 22.95 Q28.5 22.95 30.3 21.1 L30.95 20.45 M7.9 9.25 Q13.55 11.3 14.7 19.55 L7.75 10.95 13.9 21.3 13.4 28.9 Q10.95 26.75 7.75 26.6 L7.75 10.95 7.75 9.15 7.9 9.25 M6.8 9.25 L7.0 9.15 7.0 26.6 Q3.7 26.7 1.3 28.75 L0.8 21.3 6.95 10.95 0.0 19.55 Q1.2 11.3 6.8 9.25 M7.3 0.0 L7.45 0.0 7.5 0.25 7.5 7.95 7.45 8.1 7.3 8.25 7.1 8.1 7.0 7.95 7.0 0.25 7.1 0.0 7.3 0.0 M13.15 29.4 L13.3 29.45 12.65 33.75 11.65 32.6 Q10.0 30.9 7.75 30.7 L7.75 27.1 Q10.9 27.25 13.15 29.35 L13.15 29.4 M12.45 34.45 L11.45 38.2 Q9.9 35.6 7.75 34.05 L7.75 31.2 Q9.8 31.4 11.4 32.9 L12.3 34.2 12.45 34.45 M1.5 29.25 Q3.85 27.2 7.0 27.1 L7.0 30.7 Q4.45 30.7 2.6 32.6 L1.95 33.25 1.35 29.35 Q1.45 29.25 1.5 29.25 M2.2 33.75 L2.95 32.9 Q4.6 31.2 7.0 31.2 L7.0 34.05 Q4.95 35.35 3.3 38.2 2.6 36.35 2.1 33.9 L2.2 33.75 M7.9 35.4 Q9.9 37.0 11.1 39.6 10.1 46.35 7.4 52.0 L7.3 52.2 Q4.25 46.05 3.7 39.55 4.5 37.5 7.1 35.1 7.45 34.95 7.9 35.4 M25.85 45.55 L25.9 45.75 25.9 53.4 25.85 53.65 25.55 53.75 25.4 53.65 25.35 53.4 25.35 45.75 25.4 45.55 25.55 45.5 25.85 45.55 M26.05 44.4 L25.9 44.5 25.9 42.7 32.85 34.1 Q31.7 42.4 26.05 44.4 M18.95 32.35 Q19.1 28.2 19.55 24.8 21.9 26.95 25.2 27.05 L25.2 44.5 25.0 44.4 Q19.4 42.4 18.2 34.1 L25.15 42.7 18.95 32.35 M31.65 25.05 L32.15 32.35 25.9 42.7 25.9 27.05 Q29.15 26.95 31.65 25.05" fill="#000000" fill-rule="evenodd" stroke="none"/>
    </g>
  </defs>
</svg>
