<?xml version="1.0" encoding="UTF-8" standalone="no"?>
<svg xmlns:ffdec="https://www.free-decompiler.com/flash" xmlns:xlink="http://www.w3.org/1999/xlink" ffdec:objectType="frame" height="56.0px" width="56.0px" xmlns="http://www.w3.org/2000/svg">
  <g transform="matrix(1.0, 0.0, 0.0, 1.0, 0.0, 0.0)">
    <use ffdec:characterId="3" ffdec:characterName="157_fla.Symbole192_1" height="56.0" id="back" transform="matrix(1.0, 0.0, 0.0, 1.0, 0.0, 0.0)" width="56.0" xlink:href="#sprite0"/>
    <use ffdec:characterId="5" height="55.3" id="back" transform="matrix(1.0, 0.0, 0.0, 1.0, 9.0, 0.3)" width="38.35" xlink:href="#sprite2"/>
    <use ffdec:characterId="7" height="53.75" id="up" transform="matrix(1.0, 0.0, 0.0, 1.0, 9.75, 1.05)" width="36.85" xlink:href="#sprite3"/>
  </g>
  <defs>
    <g id="sprite0" transform="matrix(1.0, 0.0, 0.0, 1.0, 0.0, 0.0)">
      <use ffdec:characterId="2" height="56.0" id="back" transform="matrix(1.0, 0.0, 0.0, 1.0, 0.0, 0.0)" width="56.0" xlink:href="#sprite1"/>
    </g>
    <g id="sprite1" transform="matrix(1.0, 0.0, 0.0, 1.0, 0.0, 0.0)">
      <use ffdec:characterId="1" height="56.0" transform="matrix(1.0, 0.0, 0.0, 1.0, 0.0, 0.0)" width="56.0" xlink:href="#shape0"/>
    </g>
    <g id="shape0" transform="matrix(1.0, 0.0, 0.0, 1.0, 0.0, 0.0)">
      <path d="M56.0 56.0 L0.0 56.0 0.0 0.0 56.0 0.0 56.0 56.0" fill="#010101" fill-opacity="0.0" fill-rule="evenodd" stroke="none"/>
    </g>
    <g id="sprite2" transform="matrix(1.0, 0.0, 0.0, 1.0, 0.75, 0.75)">
      <use ffdec:characterId="4" height="55.3" transform="matrix(1.0, 0.0, 0.0, 1.0, -0.75, -0.75)" width="38.35" xlink:href="#shape1"/>
    </g>
    <g id="shape1" transform="matrix(1.0, 0.0, 0.0, 1.0, 0.75, 0.75)">
      <path d="M33.1 26.5 L33.75 28.4 32.05 27.35 30.4 28.45 30.9 26.5 29.35 25.4 31.3 25.3 32.05 23.4 32.7 25.3 34.7 25.3 33.1 26.5 M34.45 29.75 L34.45 29.5 Q37.85 34.9 36.4 40.95 34.8 47.55 28.4 51.1 26.1 52.5 23.6 53.2 19.3 54.3 14.65 53.35 L13.35 53.2 Q6.7 51.5 3.1 46.35 -1.15 40.85 0.45 34.2 2.05 27.75 8.45 24.1 L11.25 22.8 Q11.65 22.5 11.9 22.35 15.45 18.7 11.65 14.2 L24.55 14.1 Q20.65 18.65 24.55 22.25 L24.85 22.5 Q27.55 23.4 29.7 24.85 L27.6 24.9 30.1 26.85 29.3 29.85 31.85 28.05 34.45 29.75 M33.6 35.95 L33.65 36.1 33.75 36.25 Q32.9 37.3 29.45 38.15 L18.3 39.05 Q11.95 38.9 7.4 37.8 3.25 36.7 3.25 35.4 L3.3 35.05 Q3.9 34.0 7.6 33.05 12.05 32.1 18.5 32.15 24.85 32.35 29.45 33.45 32.7 34.2 33.6 35.3 L33.6 35.95 M31.1 44.8 Q27.45 49.3 21.3 50.4 15.1 51.5 9.9 48.45 4.55 45.3 3.3 39.9 L3.1 37.4 Q4.15 38.35 7.15 39.2 11.7 40.3 18.3 40.4 24.85 40.65 29.6 39.5 32.35 38.9 33.65 38.0 33.45 41.5 31.1 44.8 M22.85 1.3 Q23.45 1.3 23.9 1.8 24.35 2.25 24.35 2.9 24.35 3.5 23.9 3.95 23.45 4.4 22.85 4.4 22.2 4.4 21.7 3.95 21.3 3.5 21.3 2.9 21.3 2.25 21.7 1.8 22.2 1.3 22.85 1.3 M22.55 10.75 L22.35 10.2 21.95 10.0 20.8 10.0 Q20.6 10.0 20.35 10.2 20.2 10.4 20.2 10.75 20.2 11.05 20.35 11.2 20.6 11.4 20.8 11.4 L21.95 11.4 Q22.15 11.4 22.35 11.2 L22.55 10.75 M26.55 9.2 Q25.65 8.55 24.55 8.55 L11.95 8.45 Q10.75 8.4 9.9 9.15 9.0 9.85 9.0 10.75 9.0 11.7 9.9 12.4 10.8 13.05 11.95 13.15 L24.55 13.15 Q25.75 13.15 26.55 12.55 27.35 11.8 27.35 10.9 27.35 10.0 26.55 9.2 M26.55 0.0 L9.8 0.0 10.6 2.35 11.25 2.2 Q11.95 2.2 12.4 2.75 12.95 3.25 12.95 3.95 12.95 4.6 12.4 5.15 L11.65 5.6 12.3 7.6 24.35 7.6 26.55 0.0 M17.45 2.8 Q17.95 2.8 18.25 3.1 L18.5 3.85 18.25 4.6 Q17.95 4.95 17.45 4.95 17.05 4.95 16.7 4.6 16.4 4.2 16.4 3.85 16.4 3.4 16.7 3.1 17.05 2.8 17.45 2.8 M18.3 9.9 L10.85 9.9 Q10.6 9.9 10.45 10.15 L10.2 10.55 Q10.2 10.9 10.45 11.05 10.6 11.3 10.85 11.3 L18.3 11.3 18.75 11.05 18.9 10.55 18.75 10.15 Q18.6 9.9 18.3 9.9 M17.95 23.4 L16.0 23.55 Q15.75 23.55 15.6 23.8 15.45 23.95 15.45 24.2 L15.65 24.55 16.1 24.6 17.95 24.5 18.35 24.35 18.5 23.95 18.3 23.55 17.95 23.4 M9.15 16.15 L6.25 17.25 6.25 20.3 4.3 17.9 1.4 18.8 3.15 16.3 1.4 13.8 4.4 14.6 6.15 12.25 6.15 15.25 9.15 16.15 M4.55 32.5 Q6.0 29.15 9.55 26.95 11.15 25.9 12.55 25.55 L12.85 25.3 12.95 24.85 12.6 24.5 12.05 24.5 Q10.6 24.9 8.75 26.05 5.05 28.45 3.45 32.1 3.3 32.25 3.45 32.5 L3.85 32.9 4.3 32.8 4.55 32.5 M9.2 45.0 L7.2 45.55 8.5 43.85 7.45 42.15 9.45 42.9 10.65 41.35 10.65 43.45 12.45 44.2 10.5 44.65 10.45 46.75 9.2 45.0 Z" fill="none" stroke="#000000" stroke-linecap="round" stroke-linejoin="round" stroke-opacity="0.2" stroke-width="1.5"/>
    </g>
    <g id="sprite3" transform="matrix(1.0, 0.0, 0.0, 1.0, 0.0, 0.0)">
      <use ffdec:characterId="6" height="53.75" transform="matrix(1.0, 0.0, 0.0, 1.0, 0.0, 0.0)" width="36.85" xlink:href="#shape2"/>
    </g>
    <g id="shape2" transform="matrix(1.0, 0.0, 0.0, 1.0, 0.0, 0.0)">
      <path d="M33.65 36.05 L33.6 35.9 33.6 35.3 Q32.7 34.2 29.45 33.4 24.9 32.3 18.5 32.15 12.0 32.05 7.6 33.05 3.9 33.95 3.3 35.0 L3.25 35.4 Q3.25 36.65 7.4 37.8 11.95 38.85 18.3 39.0 24.65 39.25 29.45 38.1 32.9 37.3 33.75 36.2 L33.65 36.05 M33.75 28.35 L32.0 27.3 30.4 28.45 30.95 26.5 29.35 25.35 31.3 25.25 32.0 23.4 32.7 25.25 34.65 25.25 33.05 26.5 33.75 28.35 M34.45 29.5 Q37.85 34.85 36.4 40.9 34.8 47.55 28.45 51.1 26.1 52.45 23.6 53.15 19.3 54.25 14.65 53.35 L13.35 53.15 Q6.7 51.45 3.1 46.35 -1.15 40.8 0.4 34.2 2.0 27.7 8.45 24.05 L11.25 22.8 11.85 22.35 Q15.4 18.7 11.65 14.15 L24.5 14.1 Q20.65 18.65 24.5 22.25 L24.9 22.5 Q27.55 23.4 29.75 24.8 L27.6 24.9 30.1 26.8 29.3 29.8 31.85 28.0 34.45 29.75 34.45 29.5 M23.9 3.9 Q24.35 3.45 24.35 2.85 24.35 2.25 23.9 1.8 23.45 1.25 22.85 1.25 22.25 1.25 21.7 1.8 21.35 2.25 21.35 2.85 21.35 3.45 21.7 3.9 22.25 4.35 22.85 4.35 23.45 4.35 23.9 3.9 M31.1 44.75 Q33.45 41.5 33.65 37.95 32.4 38.85 29.6 39.45 24.9 40.6 18.3 40.35 11.7 40.3 7.15 39.15 4.15 38.35 3.1 37.35 L3.3 39.85 Q4.6 45.3 9.9 48.35 15.1 51.45 21.35 50.35 27.45 49.3 31.1 44.75 M22.55 10.7 L22.4 10.15 21.95 9.95 20.8 9.95 Q20.55 9.95 20.35 10.15 L20.2 10.7 Q20.2 11.0 20.35 11.15 L20.8 11.4 21.95 11.4 22.4 11.15 22.55 10.7 M17.45 4.9 L18.2 4.6 18.5 3.85 18.2 3.05 17.45 2.75 Q17.0 2.75 16.7 3.05 16.4 3.4 16.4 3.85 16.4 4.2 16.7 4.6 17.0 4.9 17.45 4.9 M26.55 0.0 L24.35 7.55 12.3 7.55 11.65 5.55 12.4 5.1 Q12.9 4.6 12.9 3.9 12.9 3.2 12.4 2.7 11.95 2.15 11.25 2.15 L10.55 2.3 9.8 0.0 26.55 0.0 M26.55 9.2 Q27.4 9.95 27.4 10.85 27.4 11.75 26.55 12.5 25.7 13.1 24.5 13.1 L11.95 13.1 Q10.8 13.05 9.9 12.35 9.0 11.7 9.0 10.7 9.0 9.8 9.9 9.1 10.7 8.35 11.95 8.45 L24.5 8.5 Q25.65 8.5 26.55 9.2 M18.3 9.85 L10.9 9.85 Q10.55 9.85 10.4 10.1 L10.2 10.55 10.4 11.0 10.9 11.25 18.3 11.25 18.75 11.0 18.9 10.55 18.75 10.1 Q18.6 9.85 18.3 9.85 M17.9 23.4 L16.05 23.55 15.55 23.75 15.4 24.15 15.65 24.5 16.1 24.6 17.9 24.45 18.35 24.3 18.5 23.9 18.3 23.55 17.9 23.4 M9.15 16.15 L6.25 17.2 6.25 20.3 4.3 17.85 1.4 18.8 3.15 16.3 1.4 13.8 4.35 14.55 6.2 12.2 6.2 15.25 9.15 16.15 M3.45 32.45 L3.85 32.8 4.3 32.75 4.6 32.45 Q6.05 29.1 9.5 26.95 11.2 25.85 12.55 25.5 L12.85 25.25 12.9 24.8 12.6 24.45 12.1 24.45 Q10.55 24.9 8.75 26.05 5.05 28.45 3.45 32.05 3.3 32.2 3.45 32.45 M9.45 42.85 L10.65 41.35 10.65 43.4 12.45 44.15 10.5 44.6 10.4 46.7 9.2 45.0 7.25 45.5 8.55 43.85 7.45 42.1 9.45 42.85" fill="#000000" fill-rule="evenodd" stroke="none"/>
    </g>
  </defs>
</svg>
