<?xml version="1.0" encoding="UTF-8" standalone="no"?>
<svg xmlns:ffdec="https://www.free-decompiler.com/flash" xmlns:xlink="http://www.w3.org/1999/xlink" ffdec:objectType="frame" height="56.0px" width="56.0px" xmlns="http://www.w3.org/2000/svg">
  <g transform="matrix(1.0, 0.0, 0.0, 1.0, 0.0, 0.0)">
    <use ffdec:characterId="4" ffdec:characterName="158_fla.Symbole195_1" height="56.0" id="back" transform="matrix(1.0, 0.0, 0.0, 1.0, 0.0, 0.0)" width="56.0" xlink:href="#sprite0"/>
    <use ffdec:characterId="6" height="55.25" id="back" transform="matrix(1.0, 0.0, 0.0, 1.0, 4.25, 0.3)" width="47.1" xlink:href="#sprite3"/>
    <use ffdec:characterId="8" height="53.75" id="up" transform="matrix(1.0, 0.0, 0.0, 1.0, 5.0, 1.05)" width="45.6" xlink:href="#sprite4"/>
  </g>
  <defs>
    <g id="sprite0" transform="matrix(1.0, 0.0, 0.0, 1.0, 0.0, 0.0)">
      <use ffdec:characterId="3" ffdec:characterName="158_fla.Symbole192_2" height="56.0" id="back" transform="matrix(1.0, 0.0, 0.0, 1.0, 0.0, 0.0)" width="56.0" xlink:href="#sprite1"/>
    </g>
    <g id="sprite1" transform="matrix(1.0, 0.0, 0.0, 1.0, 0.0, 0.0)">
      <use ffdec:characterId="2" height="56.0" id="back" transform="matrix(1.0, 0.0, 0.0, 1.0, 0.0, 0.0)" width="56.0" xlink:href="#sprite2"/>
    </g>
    <g id="sprite2" transform="matrix(1.0, 0.0, 0.0, 1.0, 0.0, 0.0)">
      <use ffdec:characterId="1" height="56.0" transform="matrix(1.0, 0.0, 0.0, 1.0, 0.0, 0.0)" width="56.0" xlink:href="#shape0"/>
    </g>
    <g id="shape0" transform="matrix(1.0, 0.0, 0.0, 1.0, 0.0, 0.0)">
      <path d="M56.0 56.0 L0.0 56.0 0.0 0.0 56.0 0.0 56.0 56.0" fill="#010101" fill-opacity="0.0" fill-rule="evenodd" stroke="none"/>
    </g>
    <g id="sprite3" transform="matrix(1.0, 0.0, 0.0, 1.0, 0.75, 0.75)">
      <use ffdec:characterId="5" height="55.25" transform="matrix(1.0, 0.0, 0.0, 1.0, -0.75, -0.75)" width="47.1" xlink:href="#shape1"/>
    </g>
    <g id="shape1" transform="matrix(1.0, 0.0, 0.0, 1.0, 0.75, 0.75)">
      <path d="M40.6 2.85 Q41.35 1.2 40.05 0.0 39.65 0.15 39.3 0.55 38.05 1.55 36.75 2.7 31.3 7.75 24.75 14.9 L22.05 17.8 20.65 16.7 Q20.15 16.25 19.5 16.3 18.95 16.4 18.55 16.95 18.1 17.4 18.15 18.0 18.2 18.6 18.8 19.1 L20.1 20.15 Q14.7 26.4 10.4 32.55 L9.4 32.45 Q7.05 32.45 5.25 34.1 3.55 35.8 3.55 38.35 3.55 40.15 4.55 41.5 2.25 45.45 0.35 49.35 -0.3 50.5 0.2 51.8 0.65 52.95 1.75 53.45 L4.2 53.6 Q5.35 53.15 5.85 52.1 L10.05 44.15 Q12.1 43.95 13.55 42.4 L13.95 42.0 14.45 42.15 Q25.95 41.0 26.1 32.2 26.2 29.25 24.95 25.85 L24.05 23.6 24.0 23.4 23.85 23.25 23.9 23.15 24.9 24.0 Q25.35 24.4 25.95 24.3 26.6 24.2 27.0 23.75 27.4 23.25 27.35 22.6 L26.85 21.6 25.7 20.8 26.1 20.3 26.1 20.4 26.65 20.65 Q39.3 21.55 40.65 12.4 41.1 10.1 40.65 7.5 L40.45 5.95 40.05 4.75 Q44.6 12.15 42.4 30.4 L41.65 36.05 Q39.5 37.2 37.9 39.3 34.75 43.6 38.75 48.6 L34.45 50.8 42.65 53.1 40.05 49.0 Q46.0 46.75 45.55 41.35 45.3 39.1 43.1 36.85 L43.2 36.5 43.2 36.45 43.95 30.6 43.95 30.55 Q46.4 10.45 40.7 3.0 L40.6 2.85 M38.65 5.15 L38.95 6.35 38.9 6.25 39.15 7.75 39.15 7.8 Q39.55 10.1 39.15 12.05 L39.15 12.15 Q37.75 19.75 26.95 19.1 34.65 9.25 38.0 5.7 L38.65 5.15 M42.0 40.55 L42.15 41.0 42.0 41.3 41.65 41.5 Q41.4 41.5 41.25 41.3 L41.1 41.0 Q41.1 40.8 41.25 40.55 L41.65 40.4 Q41.95 40.4 42.0 40.55 M44.25 41.1 Q44.25 42.15 43.45 42.9 42.65 43.75 41.5 43.75 40.45 43.75 39.55 42.9 38.8 42.15 38.8 41.1 38.8 39.95 39.55 39.1 40.45 38.4 41.5 38.4 42.65 38.4 43.45 39.1 44.25 39.95 44.25 41.1 M9.75 34.2 Q10.4 34.65 10.4 35.2 L10.4 35.35 Q10.3 35.9 9.0 35.9 7.6 35.8 7.05 36.95 L6.0 37.8 5.6 37.5 Q5.0 36.65 5.4 35.75 5.7 34.9 6.55 34.35 7.4 33.9 8.2 33.9 L9.75 34.2 M14.3 38.5 Q14.05 40.4 13.0 41.5 L11.8 42.5 10.75 42.65 Q8.85 43.15 7.3 42.0 L7.4 42.0 Q10.0 41.9 11.8 40.95 13.4 40.1 14.3 38.5 M23.5 26.4 Q24.65 29.4 24.55 32.15 24.3 39.4 14.85 40.6 15.25 39.55 15.25 38.35 15.25 37.05 14.8 35.95 18.55 30.15 22.75 24.55 L23.5 26.4 Z" fill="none" stroke="#000000" stroke-linecap="round" stroke-linejoin="round" stroke-opacity="0.2" stroke-width="1.5"/>
    </g>
    <g id="sprite4" transform="matrix(1.0, 0.0, 0.0, 1.0, 0.0, 0.0)">
      <use ffdec:characterId="7" height="53.75" transform="matrix(1.0, 0.0, 0.0, 1.0, 0.0, 0.0)" width="45.6" xlink:href="#shape2"/>
    </g>
    <g id="shape2" transform="matrix(1.0, 0.0, 0.0, 1.0, 0.0, 0.0)">
      <path d="M39.15 7.75 L39.15 7.7 38.9 6.25 39.0 6.3 38.7 5.1 38.0 5.7 Q34.7 9.2 26.95 19.05 37.75 19.75 39.15 12.1 L39.15 12.05 Q39.6 10.05 39.15 7.75 M40.6 2.8 L40.75 2.95 Q46.4 10.45 43.95 30.5 L43.95 30.6 43.2 36.4 43.2 36.5 43.1 36.85 Q45.35 39.05 45.55 41.35 46.0 46.7 40.05 49.0 L42.65 53.05 34.45 50.75 38.75 48.6 Q34.8 43.6 37.9 39.3 39.5 37.15 41.65 36.0 L42.4 30.35 Q44.65 12.1 40.05 4.7 L40.45 5.95 40.65 7.45 Q41.1 10.05 40.65 12.35 39.3 21.5 26.65 20.6 26.3 20.6 26.15 20.35 L26.15 20.3 25.75 20.75 26.8 21.6 Q27.3 21.95 27.35 22.6 27.45 23.2 27.05 23.75 26.6 24.2 26.0 24.25 25.35 24.35 24.9 23.95 L23.9 23.1 23.85 23.2 24.0 23.4 24.05 23.55 25.0 25.85 Q26.2 29.2 26.15 32.2 26.0 41.0 14.5 42.15 L13.95 42.0 13.6 42.35 Q12.15 43.95 10.05 44.1 L5.85 52.05 Q5.35 53.1 4.2 53.6 L1.8 53.45 Q0.65 52.9 0.2 51.75 -0.25 50.45 0.35 49.3 L4.55 41.5 Q3.55 40.15 3.55 38.3 3.55 35.8 5.25 34.1 7.1 32.45 9.45 32.45 L10.4 32.5 Q14.75 26.4 20.1 20.15 L18.8 19.05 Q18.25 18.6 18.2 18.0 18.1 17.4 18.55 16.95 18.95 16.4 19.55 16.3 20.15 16.25 20.7 16.7 L22.1 17.75 24.75 14.85 Q31.35 7.7 36.75 2.65 38.05 1.5 39.3 0.5 L40.05 0.0 Q41.35 1.2 40.6 2.8 M41.3 40.5 Q41.45 40.35 41.65 40.35 41.95 40.35 42.05 40.5 L42.2 41.0 42.05 41.3 Q41.95 41.5 41.65 41.5 L41.3 41.3 41.1 41.0 41.3 40.5 M24.6 32.15 Q24.7 29.4 23.55 26.4 L22.75 24.55 Q18.55 30.15 14.8 35.95 15.25 37.0 15.25 38.3 15.25 39.55 14.9 40.6 24.3 39.4 24.6 32.15 M14.35 38.45 Q13.45 40.05 11.85 40.9 10.0 41.9 7.4 42.0 L7.3 42.0 Q8.85 43.1 10.75 42.65 L11.85 42.45 13.0 41.5 Q14.05 40.35 14.35 38.45 M9.75 34.2 Q9.1 33.8 8.25 33.9 7.4 33.9 6.55 34.35 5.7 34.85 5.4 35.7 5.0 36.65 5.65 37.45 L6.0 37.8 7.1 36.95 Q7.6 35.8 9.0 35.85 10.3 35.85 10.4 35.35 L10.4 35.2 Q10.4 34.65 9.75 34.2 M44.25 41.05 Q44.25 39.9 43.5 39.05 42.65 38.4 41.5 38.4 40.45 38.4 39.6 39.05 38.85 39.9 38.85 41.05 38.85 42.15 39.6 42.9 40.45 43.75 41.5 43.75 42.65 43.75 43.5 42.9 44.25 42.15 44.25 41.05" fill="#000000" fill-rule="evenodd" stroke="none"/>
    </g>
  </defs>
</svg>
