<?xml version="1.0" encoding="UTF-8" standalone="no"?>
<svg xmlns:ffdec="https://www.free-decompiler.com/flash" xmlns:xlink="http://www.w3.org/1999/xlink" ffdec:objectType="frame" height="56.0px" width="56.0px" xmlns="http://www.w3.org/2000/svg">
  <g transform="matrix(1.0, 0.0, 0.0, 1.0, 0.0, 0.0)">
    <use ffdec:characterId="5" ffdec:characterName="159_fla.Symbole198_1" height="56.0" id="back" transform="matrix(1.0, 0.0, 0.0, 1.0, 0.0, 0.0)" width="56.0" xlink:href="#sprite0"/>
    <use ffdec:characterId="7" height="45.25" id="back" transform="matrix(1.0, 0.0, 0.0, 1.0, 0.35, 5.05)" width="55.35" xlink:href="#sprite4"/>
    <use ffdec:characterId="9" height="43.8" id="up" transform="matrix(1.0, 0.0, 0.0, 1.0, 1.1, 5.8)" width="53.85" xlink:href="#sprite5"/>
  </g>
  <defs>
    <g id="sprite0" transform="matrix(1.0, 0.0, 0.0, 1.0, 0.0, 0.0)">
      <use ffdec:characterId="4" ffdec:characterName="159_fla.Symbole195_2" height="56.0" id="back" transform="matrix(1.0, 0.0, 0.0, 1.0, 0.0, 0.0)" width="56.0" xlink:href="#sprite1"/>
    </g>
    <g id="sprite1" transform="matrix(1.0, 0.0, 0.0, 1.0, 0.0, 0.0)">
      <use ffdec:characterId="3" ffdec:characterName="159_fla.Symbole192_3" height="56.0" id="back" transform="matrix(1.0, 0.0, 0.0, 1.0, 0.0, 0.0)" width="56.0" xlink:href="#sprite2"/>
    </g>
    <g id="sprite2" transform="matrix(1.0, 0.0, 0.0, 1.0, 0.0, 0.0)">
      <use ffdec:characterId="2" height="56.0" id="back" transform="matrix(1.0, 0.0, 0.0, 1.0, 0.0, 0.0)" width="56.0" xlink:href="#sprite3"/>
    </g>
    <g id="sprite3" transform="matrix(1.0, 0.0, 0.0, 1.0, 0.0, 0.0)">
      <use ffdec:characterId="1" height="56.0" transform="matrix(1.0, 0.0, 0.0, 1.0, 0.0, 0.0)" width="56.0" xlink:href="#shape0"/>
    </g>
    <g id="shape0" transform="matrix(1.0, 0.0, 0.0, 1.0, 0.0, 0.0)">
      <path d="M56.0 56.0 L0.0 56.0 0.0 0.0 56.0 0.0 56.0 56.0" fill="#010101" fill-opacity="0.0" fill-rule="evenodd" stroke="none"/>
    </g>
    <g id="sprite4" transform="matrix(1.0, 0.0, 0.0, 1.0, 0.75, 0.75)">
      <use ffdec:characterId="6" height="45.25" transform="matrix(1.0, 0.0, 0.0, 1.0, -0.75, -0.75)" width="55.35" xlink:href="#shape1"/>
    </g>
    <g id="shape1" transform="matrix(1.0, 0.0, 0.0, 1.0, 0.75, 0.75)">
      <path d="M42.3 13.95 L42.4 13.4 Q42.65 11.1 42.2 9.15 41.95 6.35 40.4 4.05 38.0 0.45 34.15 0.0 L33.3 0.0 31.65 0.1 Q28.25 0.75 25.3 4.05 22.0 7.5 21.3 12.7 20.8 9.9 19.6 7.5 L18.7 6.1 17.2 4.05 Q13.6 0.0 9.2 0.0 5.95 0.0 3.7 2.15 2.85 2.95 2.1 4.05 -0.4 7.8 0.1 13.4 0.85 17.7 4.5 22.9 11.55 30.15 18.0 34.95 L18.1 34.95 Q18.8 35.6 19.6 36.1 L20.8 36.95 21.3 37.2 21.7 36.95 25.1 34.55 25.25 34.65 25.25 34.7 Q29.5 38.85 33.5 41.85 L34.7 42.75 35.5 43.35 35.95 43.6 36.4 43.75 36.95 43.7 37.2 43.6 37.55 43.45 40.85 40.95 40.8 40.95 Q45.3 37.55 49.5 33.05 50.3 32.85 50.3 32.25 53.35 28.05 53.8 24.6 53.95 22.8 53.6 21.2 53.4 18.7 52.1 16.7 L52.1 16.75 Q49.95 13.5 46.5 13.25 L46.4 13.25 45.8 13.25 44.5 13.3 44.4 13.3 Q43.3 13.55 42.3 13.95 M42.6 16.25 Q43.55 15.65 44.65 15.4 L45.8 15.35 46.3 15.35 Q48.7 15.55 50.3 17.95 51.35 19.45 51.5 21.35 L51.5 21.45 Q51.8 22.85 51.7 24.35 51.2 27.35 48.45 31.2 L48.15 31.45 Q43.95 35.85 39.55 39.25 L39.5 39.3 36.55 41.5 35.85 41.0 35.9 41.05 34.8 40.15 34.75 40.15 Q30.8 37.2 26.75 33.15 L26.7 33.15 24.55 31.1 Q21.95 27.35 21.35 24.3 L21.4 24.4 Q21.0 20.55 22.85 17.95 L23.9 16.65 23.95 16.6 Q25.3 15.35 27.3 15.35 30.25 15.35 32.55 18.05 L32.6 18.1 33.7 19.5 33.85 19.65 34.35 20.5 34.35 20.6 Q35.15 22.1 35.5 24.1 L35.85 24.7 Q36.15 24.95 36.5 25.0 L37.2 24.7 37.55 24.1 Q38.2 20.6 40.5 18.05 L40.5 18.1 Q41.45 16.95 42.55 16.3 L42.6 16.25 M28.25 18.75 Q30.0 19.25 30.95 20.05 L32.15 21.2 32.65 21.8 32.75 21.75 Q32.65 21.1 32.05 20.15 L31.45 19.0 30.5 17.9 Q29.5 17.1 28.0 17.1 L25.8 17.4 Q24.8 17.9 24.15 18.9 23.7 19.5 23.55 20.15 L23.35 20.55 23.6 20.2 Q24.5 19.05 25.6 18.6 L28.25 18.75 M38.3 11.2 Q37.8 13.8 35.95 16.2 L37.05 17.95 Q39.65 14.5 39.7 12.4 39.8 10.2 39.25 8.5 L37.4 4.6 Q38.0 5.9 38.15 7.35 L38.3 11.2 M15.3 5.25 L16.55 6.65 Q16.8 7.35 17.2 7.75 L17.8 9.75 17.75 9.75 17.0 8.6 15.65 7.15 Q12.8 4.2 9.15 4.2 L6.3 4.65 Q4.5 5.45 3.25 7.15 L2.85 7.75 Q3.25 6.45 4.05 5.25 5.3 3.45 6.8 2.7 8.05 2.15 9.4 2.15 12.7 2.15 15.3 5.25 M36.6 41.55 L36.65 41.55 36.75 41.6 37.1 41.85 36.15 41.7 36.45 41.55 36.3 41.7 36.55 41.55 36.9 41.75 36.75 41.6 36.6 41.55 M47.55 18.6 Q55.9 26.25 37.4 38.35 53.4 25.85 47.55 18.6 Z" fill="none" stroke="#000000" stroke-linecap="round" stroke-linejoin="round" stroke-opacity="0.2" stroke-width="1.5"/>
    </g>
    <g id="sprite5" transform="matrix(1.0, 0.0, 0.0, 1.0, 0.0, 0.0)">
      <use ffdec:characterId="8" height="43.8" transform="matrix(1.0, 0.0, 0.0, 1.0, 0.0, 0.0)" width="53.85" xlink:href="#shape2"/>
    </g>
    <g id="shape2" transform="matrix(1.0, 0.0, 0.0, 1.0, 0.0, 0.0)">
      <path d="M25.8 17.4 L28.0 17.1 Q29.5 17.1 30.5 17.9 L31.45 19.05 32.1 20.15 32.75 21.75 32.65 21.8 32.2 21.2 30.95 20.1 Q30.0 19.3 28.2 18.75 L25.6 18.6 Q24.45 19.1 23.6 20.2 L23.35 20.55 23.55 20.15 Q23.7 19.5 24.1 18.95 24.85 17.9 25.8 17.4 M42.3 14.0 L44.4 13.3 44.5 13.3 45.8 13.25 46.4 13.25 46.5 13.25 Q49.95 13.5 52.05 16.8 L52.05 16.75 Q53.45 18.7 53.6 21.2 53.95 22.8 53.8 24.6 L53.8 24.65 Q53.35 28.05 50.3 32.3 50.3 32.85 49.45 33.1 45.3 37.55 40.8 40.95 L40.85 40.95 37.55 43.45 37.2 43.6 36.95 43.7 36.4 43.8 35.95 43.6 35.5 43.35 34.75 42.8 33.5 41.85 Q29.5 38.85 25.25 34.75 L25.25 34.7 25.1 34.6 21.65 37.0 21.3 37.25 20.85 37.0 19.6 36.1 Q18.8 35.65 18.1 34.95 L18.0 34.95 Q11.55 30.15 4.5 22.9 0.85 17.7 0.1 13.4 -0.4 7.85 2.1 4.05 2.85 2.95 3.7 2.15 6.0 0.0 9.2 0.0 13.6 0.0 17.2 4.05 L18.7 6.15 19.6 7.5 Q20.85 9.9 21.3 12.75 22.0 7.5 25.3 4.05 28.2 0.8 31.65 0.1 L33.3 0.0 34.15 0.0 Q38.0 0.45 40.4 4.05 41.95 6.35 42.2 9.2 42.65 11.1 42.4 13.4 L42.3 14.0 M42.6 16.3 L42.55 16.35 Q41.45 16.95 40.45 18.1 L40.45 18.05 Q38.15 20.6 37.55 24.15 L37.2 24.75 36.5 25.0 35.85 24.75 35.5 24.15 Q35.15 22.1 34.35 20.6 L34.35 20.5 33.85 19.65 33.7 19.5 32.6 18.1 32.55 18.05 Q30.25 15.35 27.35 15.35 25.3 15.35 23.95 16.65 L23.9 16.7 22.85 17.95 Q21.0 20.55 21.4 24.4 L21.35 24.3 Q21.9 27.4 24.55 31.1 L26.65 33.15 26.7 33.15 Q30.8 37.25 34.75 40.15 L34.8 40.2 35.9 41.05 35.85 41.0 36.55 41.5 39.5 39.3 39.55 39.25 Q43.95 35.85 48.15 31.45 48.3 31.25 48.5 31.2 51.2 27.4 51.7 24.35 51.8 22.85 51.5 21.5 L51.5 21.35 Q51.35 19.45 50.3 17.95 L50.25 17.95 Q48.7 15.55 46.3 15.35 L45.8 15.35 44.65 15.4 Q43.6 15.65 42.6 16.3 M35.95 16.2 L37.1 17.95 Q39.65 14.5 39.7 12.4 39.8 10.25 39.25 8.5 L37.4 4.6 Q38.0 5.9 38.1 7.35 L38.3 11.2 Q37.8 13.8 35.95 16.2 M36.45 41.55 L36.15 41.7 37.15 41.85 36.75 41.6 36.65 41.55 36.6 41.55 36.75 41.6 36.9 41.75 36.55 41.55 36.35 41.7 36.45 41.55 M15.3 5.25 Q12.65 2.15 9.4 2.15 8.0 2.15 6.8 2.7 5.3 3.5 4.05 5.25 3.25 6.45 2.85 7.75 L3.25 7.15 Q4.5 5.4 6.3 4.65 L9.15 4.2 Q12.75 4.2 15.65 7.15 L17.0 8.65 Q17.25 9.3 17.75 9.75 L17.8 9.75 17.2 7.75 16.55 6.7 15.3 5.25 M47.55 18.6 Q55.95 26.25 37.4 38.35 53.45 25.85 47.55 18.6" fill="#000000" fill-rule="evenodd" stroke="none"/>
    </g>
  </defs>
</svg>
