<?xml version="1.0" encoding="UTF-8" standalone="no"?>
<svg xmlns:ffdec="https://www.free-decompiler.com/flash" xmlns:xlink="http://www.w3.org/1999/xlink" ffdec:objectType="frame" height="56.0px" width="56.0px" xmlns="http://www.w3.org/2000/svg">
  <g transform="matrix(1.0, 0.0, 0.0, 1.0, 0.0, 0.0)">
    <use ffdec:characterId="6" ffdec:characterName="160_fla.Symbole201_1" height="56.0" id="back" transform="matrix(1.0, 0.0, 0.0, 1.0, 0.0, 0.0)" width="56.0" xlink:href="#sprite0"/>
    <use ffdec:characterId="8" height="55.25" id="back" transform="matrix(1.0, 0.0, 0.0, 1.0, 6.7, 0.3)" width="42.25" xlink:href="#sprite5"/>
    <use ffdec:characterId="10" height="53.75" id="up" transform="matrix(1.0, 0.0, 0.0, 1.0, 7.45, 1.05)" width="40.8" xlink:href="#sprite6"/>
  </g>
  <defs>
    <g id="sprite0" transform="matrix(1.0, 0.0, 0.0, 1.0, 0.0, 0.0)">
      <use ffdec:characterId="5" ffdec:characterName="160_fla.Symbole198_2" height="56.0" id="back" transform="matrix(1.0, 0.0, 0.0, 1.0, 0.0, 0.0)" width="56.0" xlink:href="#sprite1"/>
    </g>
    <g id="sprite1" transform="matrix(1.0, 0.0, 0.0, 1.0, 0.0, 0.0)">
      <use ffdec:characterId="4" ffdec:characterName="160_fla.Symbole195_3" height="56.0" id="back" transform="matrix(1.0, 0.0, 0.0, 1.0, 0.0, 0.0)" width="56.0" xlink:href="#sprite2"/>
    </g>
    <g id="sprite2" transform="matrix(1.0, 0.0, 0.0, 1.0, 0.0, 0.0)">
      <use ffdec:characterId="3" ffdec:characterName="160_fla.Symbole192_4" height="56.0" id="back" transform="matrix(1.0, 0.0, 0.0, 1.0, 0.0, 0.0)" width="56.0" xlink:href="#sprite3"/>
    </g>
    <g id="sprite3" transform="matrix(1.0, 0.0, 0.0, 1.0, 0.0, 0.0)">
      <use ffdec:characterId="2" height="56.0" id="back" transform="matrix(1.0, 0.0, 0.0, 1.0, 0.0, 0.0)" width="56.0" xlink:href="#sprite4"/>
    </g>
    <g id="sprite4" transform="matrix(1.0, 0.0, 0.0, 1.0, 0.0, 0.0)">
      <use ffdec:characterId="1" height="56.0" transform="matrix(1.0, 0.0, 0.0, 1.0, 0.0, 0.0)" width="56.0" xlink:href="#shape0"/>
    </g>
    <g id="shape0" transform="matrix(1.0, 0.0, 0.0, 1.0, 0.0, 0.0)">
      <path d="M56.0 56.0 L0.0 56.0 0.0 0.0 56.0 0.0 56.0 56.0" fill="#010101" fill-opacity="0.0" fill-rule="evenodd" stroke="none"/>
    </g>
    <g id="sprite5" transform="matrix(1.0, 0.0, 0.0, 1.0, 0.75, 0.75)">
      <use ffdec:characterId="7" height="55.25" transform="matrix(1.0, 0.0, 0.0, 1.0, -0.75, -0.75)" width="42.25" xlink:href="#shape1"/>
    </g>
    <g id="shape1" transform="matrix(1.0, 0.0, 0.0, 1.0, 0.75, 0.75)">
      <path d="M37.6 14.95 Q37.6 15.8 36.85 16.3 36.4 16.9 35.6 16.9 34.7 16.9 34.2 16.3 33.6 15.8 33.6 14.95 33.6 14.1 34.2 13.45 34.7 12.9 35.6 12.9 36.4 12.9 36.85 13.45 37.6 14.1 37.6 14.95 M35.7 18.0 Q36.65 18.15 37.35 17.7 39.6 16.35 38.3 12.9 L35.6 7.1 32.85 12.9 Q31.55 16.35 33.8 17.7 34.55 18.15 35.7 18.0 M39.95 19.1 L39.95 18.95 30.95 18.95 30.95 19.1 Q30.95 19.75 31.4 20.5 31.6 20.95 32.1 20.95 L32.4 20.95 32.55 21.15 32.95 22.4 31.6 22.4 30.5 22.65 Q30.05 23.15 30.05 23.65 30.05 24.2 30.5 24.5 L30.85 24.75 31.6 25.0 33.1 25.0 33.1 25.5 33.8 25.5 33.8 26.1 34.55 26.1 Q33.6 29.55 30.95 32.2 29.25 33.9 27.25 34.9 24.75 36.15 22.0 36.4 L22.0 34.05 22.0 26.1 22.15 26.1 22.15 25.3 23.0 25.3 Q22.9 25.3 22.9 24.9 L22.9 24.5 24.6 24.5 25.45 24.2 26.0 23.8 Q26.55 23.35 26.55 22.55 26.55 21.9 26.0 21.15 L24.6 20.9 23.15 20.9 23.7 18.95 23.8 18.65 24.15 18.65 Q24.75 18.65 25.05 18.1 25.6 17.05 25.6 16.1 L25.6 15.8 14.8 15.8 14.8 16.1 Q14.8 17.05 15.3 18.1 L16.2 18.65 16.5 18.65 16.75 19.0 17.15 20.9 15.65 20.9 14.3 21.15 Q13.7 21.9 13.7 22.55 13.7 23.35 14.3 23.8 L14.7 24.2 Q15.15 24.5 15.65 24.5 L17.3 24.5 17.3 24.9 17.3 25.3 18.15 25.3 18.15 26.1 18.8 26.1 18.8 34.05 18.8 36.4 Q16.05 36.15 13.55 34.9 11.55 33.9 9.75 32.2 7.2 29.55 6.3 26.1 L7.05 26.1 7.05 25.5 7.75 25.5 7.75 25.0 9.05 25.0 9.7 24.75 10.25 24.5 Q10.65 24.2 10.65 23.65 10.65 23.15 10.25 22.65 L9.05 22.4 7.9 22.4 8.35 21.05 8.35 20.95 8.65 20.95 9.4 20.5 9.85 19.1 9.85 18.95 0.85 18.95 0.85 19.1 Q0.85 19.75 1.3 20.5 L2.0 20.95 2.35 20.95 2.5 21.15 2.85 22.4 1.55 22.4 0.45 22.65 Q0.0 23.15 0.0 23.65 0.0 24.2 0.45 24.5 L0.75 24.75 1.55 25.0 3.0 25.0 3.0 25.5 3.75 25.5 3.75 26.1 4.25 26.1 Q5.3 30.3 8.45 33.5 L8.45 33.6 10.0 34.9 Q12.9 37.1 16.2 37.9 15.9 38.3 15.9 38.9 15.9 39.4 16.25 39.85 16.75 40.2 17.2 40.2 L18.55 40.2 18.05 46.75 17.45 47.95 16.35 49.05 16.25 49.1 15.9 49.1 Q15.3 49.1 14.95 49.5 14.5 50.0 14.5 50.5 L14.55 50.8 10.95 50.8 10.85 50.9 10.55 50.9 Q10.0 50.9 9.6 51.25 9.2 51.75 9.3 52.25 9.3 52.8 9.6 53.15 L9.7 53.3 Q10.1 53.75 10.65 53.75 L30.3 53.75 31.0 53.3 31.1 53.15 31.4 52.25 Q31.4 51.75 31.0 51.25 30.65 50.9 30.2 50.9 L29.85 50.9 29.85 50.8 26.35 50.8 26.35 50.5 Q26.35 50.0 25.85 49.5 L24.9 49.1 24.5 49.1 24.45 49.05 23.35 47.95 Q22.9 47.4 22.75 46.75 22.4 43.45 22.4 40.2 L23.65 40.2 24.65 39.85 25.1 38.9 Q25.1 38.2 24.75 37.9 28.0 37.1 30.75 34.9 L32.25 33.6 32.25 33.5 Q35.55 30.3 36.5 26.1 L37.1 26.1 37.1 25.5 37.8 25.5 37.8 25.0 39.15 25.0 39.8 24.75 40.3 24.5 Q40.75 24.2 40.75 23.65 L40.3 22.65 39.15 22.4 37.95 22.4 38.45 21.05 38.45 20.95 38.75 20.95 Q39.3 20.95 39.5 20.5 L39.95 19.1 M16.9 7.85 Q15.0 12.55 18.15 14.3 19.15 14.95 20.65 14.8 21.9 14.95 22.9 14.3 26.0 12.55 24.25 7.85 L20.55 0.0 Q17.85 5.3 16.9 7.85 M20.55 7.85 Q21.6 7.85 22.25 8.6 23.2 9.45 23.2 10.55 23.2 11.75 22.25 12.5 21.6 13.2 20.55 13.2 19.4 13.2 18.55 12.5 17.85 11.75 17.85 10.55 17.85 9.45 18.55 8.6 19.4 7.85 20.55 7.85 M3.75 13.45 Q4.25 12.9 5.15 12.9 5.95 12.9 6.4 13.45 7.1 14.1 7.1 14.95 7.1 15.8 6.4 16.3 5.95 16.9 5.15 16.9 4.25 16.9 3.75 16.3 3.1 15.8 3.1 14.95 3.1 14.1 3.75 13.45 M6.9 17.7 Q9.2 16.35 7.9 12.9 L5.15 7.1 Q3.1 11.0 2.4 12.9 1.1 16.35 3.35 17.7 4.1 18.15 5.2 18.0 6.15 18.15 6.9 17.7 Z" fill="none" stroke="#000000" stroke-linecap="round" stroke-linejoin="round" stroke-opacity="0.2" stroke-width="1.5"/>
    </g>
    <g id="sprite6" transform="matrix(1.0, 0.0, 0.0, 1.0, 0.0, 0.0)">
      <use ffdec:characterId="9" height="53.75" transform="matrix(1.0, 0.0, 0.0, 1.0, 0.0, 0.0)" width="40.8" xlink:href="#shape2"/>
    </g>
    <g id="shape2" transform="matrix(1.0, 0.0, 0.0, 1.0, 0.0, 0.0)">
      <path d="M6.95 17.7 L5.25 18.0 Q4.15 18.15 3.4 17.7 1.1 16.4 2.45 12.95 3.15 11.0 5.15 7.15 L7.9 12.95 Q9.2 16.4 6.95 17.7 M3.75 16.3 Q4.3 16.9 5.15 16.9 5.95 16.9 6.4 16.3 7.15 15.8 7.15 14.9 7.15 14.1 6.4 13.45 5.95 12.95 5.15 12.95 4.3 12.95 3.75 13.45 3.15 14.1 3.15 14.9 3.15 15.8 3.75 16.3 M16.9 7.85 Q17.85 5.3 20.55 0.0 L24.25 7.85 Q26.05 12.55 22.95 14.35 21.95 15.0 20.65 14.75 19.15 15.0 18.2 14.35 15.05 12.55 16.9 7.85 M20.55 7.85 Q19.4 7.85 18.6 8.6 17.85 9.5 17.85 10.6 17.85 11.75 18.6 12.5 19.4 13.25 20.55 13.25 21.6 13.25 22.25 12.5 23.25 11.75 23.25 10.6 23.25 9.5 22.25 8.6 21.6 7.85 20.55 7.85 M39.15 22.4 L40.35 22.65 40.8 23.65 Q40.8 24.2 40.35 24.5 L39.8 24.8 39.15 25.0 37.85 25.0 37.85 25.5 37.15 25.5 37.15 26.1 36.5 26.1 Q35.55 30.3 32.3 33.55 L32.3 33.6 30.8 34.9 Q28.0 37.15 24.75 37.95 25.15 38.25 25.15 38.9 L24.7 39.85 23.65 40.2 22.4 40.2 Q22.4 43.45 22.8 46.75 22.95 47.45 23.35 47.95 L24.5 49.05 24.55 49.1 24.9 49.1 Q25.5 49.1 25.9 49.5 L26.4 50.5 26.4 50.8 29.85 50.8 29.85 50.9 30.25 50.9 Q30.65 50.9 31.05 51.25 L31.4 52.3 31.1 53.15 31.05 53.3 30.3 53.75 10.7 53.75 Q10.1 53.75 9.75 53.3 L9.65 53.15 Q9.3 52.8 9.3 52.3 9.2 51.75 9.65 51.25 10.05 50.9 10.55 50.9 L10.9 50.9 11.0 50.8 14.6 50.8 14.55 50.5 14.95 49.5 Q15.35 49.1 15.95 49.1 L16.3 49.1 16.35 49.05 17.45 47.95 18.05 46.75 18.6 40.2 17.25 40.2 16.3 39.85 Q15.95 39.4 15.95 38.9 15.95 38.3 16.2 37.95 12.9 37.15 10.05 34.9 9.2 34.35 8.5 33.6 L8.5 33.55 Q5.3 30.3 4.3 26.1 L3.75 26.1 3.75 25.5 3.0 25.5 3.0 25.0 1.55 25.0 0.8 24.8 0.45 24.5 Q0.0 24.2 0.0 23.65 0.0 23.15 0.45 22.65 L1.55 22.4 2.85 22.4 2.5 21.15 2.35 20.95 2.05 20.95 1.35 20.5 Q0.9 19.8 0.9 19.1 L0.9 18.95 9.9 18.95 9.9 19.1 9.45 20.5 8.7 20.95 8.4 20.95 8.4 21.1 7.9 22.4 9.05 22.4 10.25 22.65 10.7 23.65 10.25 24.5 9.75 24.8 9.05 25.0 7.75 25.0 7.75 25.5 7.1 25.5 7.1 26.1 6.35 26.1 Q7.25 29.55 9.8 32.2 11.6 33.9 13.55 34.9 16.05 36.15 18.8 36.4 L18.8 34.05 18.8 26.1 18.2 26.1 18.2 25.3 17.35 25.3 17.35 24.9 17.35 24.5 15.65 24.5 14.75 24.2 14.3 23.8 Q13.7 23.4 13.7 22.55 13.7 21.9 14.3 21.15 L15.65 20.9 17.2 20.9 16.75 19.05 16.5 18.65 16.2 18.65 Q15.65 18.65 15.35 18.1 14.8 17.05 14.8 16.1 L14.8 15.8 25.6 15.8 25.6 16.1 Q25.6 17.05 25.05 18.1 24.75 18.65 24.2 18.65 L23.8 18.65 23.75 18.95 23.15 20.9 24.65 20.9 26.05 21.15 Q26.55 21.9 26.55 22.55 26.55 23.4 26.05 23.8 L25.45 24.2 24.65 24.5 22.95 24.5 22.95 24.9 23.0 25.3 22.2 25.3 22.2 26.1 22.05 26.1 22.05 34.05 22.05 36.4 Q24.75 36.15 27.3 34.9 29.25 33.9 30.95 32.2 33.6 29.55 34.6 26.1 L33.85 26.1 33.85 25.5 33.1 25.5 33.1 25.0 31.65 25.0 30.9 24.8 30.55 24.5 Q30.1 24.2 30.1 23.65 30.1 23.15 30.55 22.65 L31.65 22.4 32.95 22.4 32.6 21.15 32.45 20.95 32.15 20.95 31.4 20.5 Q30.95 19.8 30.95 19.1 L30.95 18.95 39.95 18.95 39.95 19.1 39.5 20.5 Q39.3 20.95 38.8 20.95 L38.5 20.95 38.5 21.1 37.95 22.4 39.15 22.4 M37.4 17.7 Q36.65 18.15 35.7 18.0 34.6 18.15 33.85 17.7 31.55 16.4 32.9 12.95 33.6 11.0 35.6 7.15 L38.35 12.95 Q39.65 16.4 37.4 17.7 M34.2 13.45 Q33.6 14.1 33.6 14.9 33.6 15.8 34.2 16.3 34.75 16.9 35.6 16.9 36.45 16.9 36.85 16.3 37.6 15.8 37.6 14.9 37.6 14.1 36.85 13.45 36.45 12.95 35.6 12.95 34.75 12.95 34.2 13.45" fill="#000000" fill-rule="evenodd" stroke="none"/>
    </g>
  </defs>
</svg>
