<?xml version="1.0" encoding="UTF-8" standalone="no"?>
<svg xmlns:ffdec="https://www.free-decompiler.com/flash" xmlns:xlink="http://www.w3.org/1999/xlink" ffdec:objectType="frame" height="56.0px" width="56.0px" xmlns="http://www.w3.org/2000/svg">
  <g transform="matrix(1.0, 0.0, 0.0, 1.0, 0.0, 0.0)">
    <use ffdec:characterId="7" ffdec:characterName="161_fla.Symbole204_1" height="56.0" id="back" transform="matrix(1.0, 0.0, 0.0, 1.0, 0.0, 0.0)" width="56.0" xlink:href="#sprite0"/>
    <use ffdec:characterId="9" height="53.85" id="back" transform="matrix(1.0, 0.0, 0.0, 1.0, 0.35, 0.85)" width="55.35" xlink:href="#sprite6"/>
    <use ffdec:characterId="11" height="52.3" id="up" transform="matrix(1.0, 0.0, 0.0, 1.0, 1.1, 1.65)" width="53.85" xlink:href="#sprite7"/>
  </g>
  <defs>
    <g id="sprite0" transform="matrix(1.0, 0.0, 0.0, 1.0, 0.0, 0.0)">
      <use ffdec:characterId="6" ffdec:characterName="161_fla.Symbole201_2" height="56.0" id="back" transform="matrix(1.0, 0.0, 0.0, 1.0, 0.0, 0.0)" width="56.0" xlink:href="#sprite1"/>
    </g>
    <g id="sprite1" transform="matrix(1.0, 0.0, 0.0, 1.0, 0.0, 0.0)">
      <use ffdec:characterId="5" ffdec:characterName="161_fla.Symbole198_3" height="56.0" id="back" transform="matrix(1.0, 0.0, 0.0, 1.0, 0.0, 0.0)" width="56.0" xlink:href="#sprite2"/>
    </g>
    <g id="sprite2" transform="matrix(1.0, 0.0, 0.0, 1.0, 0.0, 0.0)">
      <use ffdec:characterId="4" ffdec:characterName="161_fla.Symbole195_4" height="56.0" id="back" transform="matrix(1.0, 0.0, 0.0, 1.0, 0.0, 0.0)" width="56.0" xlink:href="#sprite3"/>
    </g>
    <g id="sprite3" transform="matrix(1.0, 0.0, 0.0, 1.0, 0.0, 0.0)">
      <use ffdec:characterId="3" ffdec:characterName="161_fla.Symbole192_5" height="56.0" id="back" transform="matrix(1.0, 0.0, 0.0, 1.0, 0.0, 0.0)" width="56.0" xlink:href="#sprite4"/>
    </g>
    <g id="sprite4" transform="matrix(1.0, 0.0, 0.0, 1.0, 0.0, 0.0)">
      <use ffdec:characterId="2" height="56.0" id="back" transform="matrix(1.0, 0.0, 0.0, 1.0, 0.0, 0.0)" width="56.0" xlink:href="#sprite5"/>
    </g>
    <g id="sprite5" transform="matrix(1.0, 0.0, 0.0, 1.0, 0.0, 0.0)">
      <use ffdec:characterId="1" height="56.0" transform="matrix(1.0, 0.0, 0.0, 1.0, 0.0, 0.0)" width="56.0" xlink:href="#shape0"/>
    </g>
    <g id="shape0" transform="matrix(1.0, 0.0, 0.0, 1.0, 0.0, 0.0)">
      <path d="M56.0 56.0 L0.0 56.0 0.0 0.0 56.0 0.0 56.0 56.0" fill="#010101" fill-opacity="0.0" fill-rule="evenodd" stroke="none"/>
    </g>
    <g id="sprite6" transform="matrix(1.0, 0.0, 0.0, 1.0, 0.75, 0.75)">
      <use ffdec:characterId="8" height="53.85" transform="matrix(1.0, 0.0, 0.0, 1.0, -0.75, -0.75)" width="55.35" xlink:href="#shape1"/>
    </g>
    <g id="shape1" transform="matrix(1.0, 0.0, 0.0, 1.0, 0.75, 0.75)">
      <path d="M43.8 16.8 Q46.65 10.0 49.95 10.2 L25.65 0.55 25.4 0.45 24.2 0.1 Q19.05 -0.7 17.35 5.75 L17.1 6.7 16.75 9.0 16.7 9.2 20.85 12.65 16.55 11.0 16.55 14.0 16.75 16.4 19.0 28.9 Q19.65 34.05 19.5 36.45 24.5 39.45 29.2 40.75 L29.5 40.8 Q30.55 40.7 31.35 41.25 32.25 41.9 32.95 46.25 L27.3 43.5 Q26.5 44.35 26.6 45.55 26.35 48.0 27.8 50.45 28.6 51.65 29.45 52.2 L29.5 52.2 30.65 52.35 31.75 52.1 Q35.95 51.25 37.75 47.7 L39.05 43.4 39.6 39.45 40.0 36.45 33.8 31.7 40.2 33.5 40.75 28.2 Q41.5 22.55 43.55 17.35 L43.8 16.8 M53.85 17.95 L53.55 14.95 Q52.95 11.95 51.4 11.25 L50.6 11.0 Q47.2 10.8 44.4 17.65 L53.55 21.95 53.85 19.15 53.85 17.95 M6.0 29.0 L6.85 29.25 Q13.7 34.45 18.85 37.15 L22.2 38.95 Q25.55 40.6 28.1 41.25 27.55 41.65 27.3 41.9 25.4 44.05 25.5 45.55 25.25 48.95 26.65 50.85 L6.7 41.9 Q4.4 40.95 2.85 39.35 0.25 36.65 0.0 32.55 -0.15 30.9 1.55 29.6 3.0 28.5 4.4 28.75 L6.0 29.0 M29.45 41.95 L29.55 41.95 30.7 42.15 Q31.45 42.85 31.8 44.45 L28.15 42.6 Q28.75 42.0 29.3 41.95 L29.45 41.95 Z" fill="none" stroke="#000000" stroke-linecap="round" stroke-linejoin="round" stroke-opacity="0.2" stroke-width="1.5"/>
    </g>
    <g id="sprite7" transform="matrix(1.0, 0.0, 0.0, 1.0, 0.0, 0.0)">
      <use ffdec:characterId="10" height="52.3" transform="matrix(1.0, 0.0, 0.0, 1.0, 0.0, 0.0)" width="53.85" xlink:href="#shape2"/>
    </g>
    <g id="shape2" transform="matrix(1.0, 0.0, 0.0, 1.0, 0.0, 0.0)">
      <path d="M53.85 17.9 L53.85 19.1 53.55 21.9 44.4 17.6 Q47.25 10.8 50.6 11.0 L51.4 11.2 Q52.95 11.9 53.55 14.95 L53.85 17.9 M43.8 16.8 L43.6 17.3 Q41.5 22.5 40.75 28.15 L40.25 33.45 33.85 31.65 40.0 36.4 39.65 39.4 39.05 43.4 37.8 47.65 Q36.0 51.2 31.75 52.1 L30.6 52.3 29.5 52.15 29.45 52.15 Q28.6 51.65 27.8 50.45 26.4 48.0 26.6 45.55 L26.6 45.5 Q26.55 44.35 27.35 43.5 L32.95 46.2 Q32.25 41.85 31.35 41.25 30.55 40.65 29.5 40.8 L29.2 40.75 Q24.5 39.4 19.55 36.4 19.7 34.05 19.0 28.9 L16.75 16.35 16.55 13.95 16.55 11.0 20.85 12.65 16.7 9.15 16.75 9.0 17.15 6.7 17.35 5.7 Q19.1 -0.75 24.2 0.1 L25.4 0.45 25.65 0.5 50.0 10.2 Q46.65 9.95 43.8 16.8 M1.55 29.6 Q3.0 28.45 4.4 28.7 L6.05 29.0 6.85 29.2 Q13.7 34.4 18.85 37.15 L22.2 38.95 Q25.55 40.6 28.1 41.25 L27.35 41.85 Q25.4 44.0 25.5 45.5 L25.5 45.55 Q25.25 48.9 26.7 50.85 L6.7 41.85 Q4.4 40.95 2.85 39.3 0.25 36.65 0.0 32.55 -0.15 30.85 1.55 29.6 M30.7 42.15 Q31.45 42.8 31.8 44.45 L28.15 42.6 Q28.75 42.0 29.3 41.9 L29.45 41.9 29.6 41.9 Q30.2 41.75 30.7 42.15" fill="#000000" fill-rule="evenodd" stroke="none"/>
    </g>
  </defs>
</svg>
