<?xml version="1.0" encoding="UTF-8" standalone="no"?>
<svg xmlns:ffdec="https://www.free-decompiler.com/flash" xmlns:xlink="http://www.w3.org/1999/xlink" ffdec:objectType="frame" height="56.0px" width="56.0px" xmlns="http://www.w3.org/2000/svg">
  <g transform="matrix(1.0, 0.0, 0.0, 1.0, 0.0, 0.0)">
    <use ffdec:characterId="8" ffdec:characterName="162_fla.Symbole207_1" height="56.0" id="back" transform="matrix(1.0, 0.0, 0.0, 1.0, 0.0, 0.0)" width="56.0" xlink:href="#sprite0"/>
    <use ffdec:characterId="10" height="55.15" id="back" transform="matrix(1.0, 0.0, 0.0, 1.0, 0.35, 0.3)" width="55.35" xlink:href="#sprite7"/>
    <use ffdec:characterId="12" height="53.65" id="up" transform="matrix(1.0, 0.0, 0.0, 1.0, 1.1, 1.05)" width="53.85" xlink:href="#sprite8"/>
  </g>
  <defs>
    <g id="sprite0" transform="matrix(1.0, 0.0, 0.0, 1.0, 0.0, 0.0)">
      <use ffdec:characterId="7" ffdec:characterName="162_fla.Symbole204_2" height="56.0" id="back" transform="matrix(1.0, 0.0, 0.0, 1.0, 0.0, 0.0)" width="56.0" xlink:href="#sprite1"/>
    </g>
    <g id="sprite1" transform="matrix(1.0, 0.0, 0.0, 1.0, 0.0, 0.0)">
      <use ffdec:characterId="6" ffdec:characterName="162_fla.Symbole201_3" height="56.0" id="back" transform="matrix(1.0, 0.0, 0.0, 1.0, 0.0, 0.0)" width="56.0" xlink:href="#sprite2"/>
    </g>
    <g id="sprite2" transform="matrix(1.0, 0.0, 0.0, 1.0, 0.0, 0.0)">
      <use ffdec:characterId="5" ffdec:characterName="162_fla.Symbole198_4" height="56.0" id="back" transform="matrix(1.0, 0.0, 0.0, 1.0, 0.0, 0.0)" width="56.0" xlink:href="#sprite3"/>
    </g>
    <g id="sprite3" transform="matrix(1.0, 0.0, 0.0, 1.0, 0.0, 0.0)">
      <use ffdec:characterId="4" ffdec:characterName="162_fla.Symbole195_5" height="56.0" id="back" transform="matrix(1.0, 0.0, 0.0, 1.0, 0.0, 0.0)" width="56.0" xlink:href="#sprite4"/>
    </g>
    <g id="sprite4" transform="matrix(1.0, 0.0, 0.0, 1.0, 0.0, 0.0)">
      <use ffdec:characterId="3" ffdec:characterName="162_fla.Symbole192_6" height="56.0" id="back" transform="matrix(1.0, 0.0, 0.0, 1.0, 0.0, 0.0)" width="56.0" xlink:href="#sprite5"/>
    </g>
    <g id="sprite5" transform="matrix(1.0, 0.0, 0.0, 1.0, 0.0, 0.0)">
      <use ffdec:characterId="2" height="56.0" id="back" transform="matrix(1.0, 0.0, 0.0, 1.0, 0.0, 0.0)" width="56.0" xlink:href="#sprite6"/>
    </g>
    <g id="sprite6" transform="matrix(1.0, 0.0, 0.0, 1.0, 0.0, 0.0)">
      <use ffdec:characterId="1" height="56.0" transform="matrix(1.0, 0.0, 0.0, 1.0, 0.0, 0.0)" width="56.0" xlink:href="#shape0"/>
    </g>
    <g id="shape0" transform="matrix(1.0, 0.0, 0.0, 1.0, 0.0, 0.0)">
      <path d="M56.0 56.0 L0.0 56.0 0.0 0.0 56.0 0.0 56.0 56.0" fill="#010101" fill-opacity="0.0" fill-rule="evenodd" stroke="none"/>
    </g>
    <g id="sprite7" transform="matrix(1.0, 0.0, 0.0, 1.0, 0.75, 0.75)">
      <use ffdec:characterId="9" height="55.15" transform="matrix(1.0, 0.0, 0.0, 1.0, -0.75, -0.75)" width="55.35" xlink:href="#shape1"/>
    </g>
    <g id="shape1" transform="matrix(1.0, 0.0, 0.0, 1.0, 0.75, 0.75)">
      <path d="M45.85 7.75 Q38.65 0.6 28.55 0.1 L26.95 0.0 Q15.7 0.0 7.8 7.75 0.0 15.7 0.0 26.8 0.0 29.35 0.45 31.8 1.8 39.8 7.8 45.7 L7.8 45.8 Q15.65 53.65 26.95 53.65 38.05 53.65 45.85 45.8 L45.9 45.7 Q53.85 37.9 53.85 26.8 53.85 15.65 45.9 7.75 L45.85 7.75 M45.45 17.5 L42.5 17.5 Q41.4 15.7 39.8 14.05 34.5 8.85 26.85 8.85 19.4 8.85 14.1 14.05 10.65 17.5 9.45 21.8 L6.8 21.8 Q7.55 18.55 9.4 15.7 10.55 13.8 12.2 12.2 L12.25 12.15 Q18.3 6.2 26.95 6.2 35.55 6.2 41.55 12.2 43.95 14.65 45.45 17.5 M51.5 31.85 L50.85 31.2 Q50.4 31.0 50.0 31.2 L49.3 31.85 46.65 38.05 Q42.7 44.45 36.7 47.55 36.2 47.75 36.05 48.2 35.9 48.65 36.15 49.15 L36.8 49.7 37.7 49.7 Q44.45 46.3 48.65 39.2 L48.75 39.05 51.5 32.75 51.5 31.85 M43.35 29.5 L42.9 31.2 Q41.7 34.75 39.05 37.8 34.1 43.3 26.75 43.3 19.7 43.3 14.7 37.8 11.8 34.7 10.7 30.6 L10.65 30.25 10.4 30.15 8.9 29.6 Q9.65 35.55 14.1 39.95 19.4 45.25 26.85 45.25 34.5 45.25 39.8 39.95 43.9 35.85 44.9 30.6 L45.15 28.75 43.35 29.5 M44.45 26.25 Q39.55 28.5 34.45 29.5 L26.85 30.25 Q18.3 30.35 9.25 27.0 L8.85 26.95 6.25 26.95 Q6.25 28.2 6.4 29.35 7.15 36.25 12.25 41.4 18.3 47.4 26.95 47.4 35.45 47.4 41.55 41.4 47.55 35.3 47.55 26.8 L47.55 25.75 44.45 26.25 M27.3 2.1 L25.75 2.1 Q15.85 2.25 9.0 9.45 L8.9 9.45 Q2.0 16.5 2.0 26.35 2.0 28.5 2.5 30.7 2.55 31.2 2.95 31.5 L3.8 31.65 4.6 31.2 4.75 30.35 Q4.4 28.35 4.4 26.35 4.4 17.4 10.65 11.1 16.85 4.6 25.8 4.35 L25.85 4.35 27.05 4.35 27.85 4.2 28.25 3.35 Q28.3 2.85 28.0 2.5 L27.3 2.1 M20.1 17.5 Q19.25 18.4 18.1 18.55 16.95 18.65 16.4 18.05 15.75 17.5 15.85 16.3 16.2 15.3 17.0 14.45 18.1 13.45 19.0 13.3 20.2 13.05 20.8 13.7 21.45 14.3 21.1 15.3 21.0 16.5 20.1 17.5 M13.0 20.4 Q13.5 19.9 14.15 19.75 14.7 19.7 15.1 20.0 15.4 20.3 15.25 20.95 15.25 21.55 14.7 22.15 L13.5 22.65 12.65 22.4 Q12.35 22.15 12.4 21.5 L13.0 20.4 M3.65 34.95 L4.75 37.8 Q4.9 38.3 5.4 38.55 L6.25 38.55 6.9 37.95 Q7.1 37.5 6.9 37.05 L5.85 34.1 5.3 33.5 4.4 33.45 Q3.9 33.6 3.75 34.1 3.5 34.45 3.65 34.95 M21.1 35.25 Q19.6 33.75 18.85 31.8 23.1 32.75 27.1 32.7 L34.55 31.8 36.3 31.25 Q35.8 33.5 33.85 35.25 31.35 38.05 27.6 38.05 23.95 38.05 21.1 35.25 Z" fill="none" stroke="#000000" stroke-linecap="round" stroke-linejoin="round" stroke-opacity="0.2" stroke-width="1.5"/>
    </g>
    <g id="sprite8" transform="matrix(1.0, 0.0, 0.0, 1.0, 0.0, 0.0)">
      <use ffdec:characterId="11" height="53.65" transform="matrix(1.0, 0.0, 0.0, 1.0, 0.0, 0.0)" width="53.85" xlink:href="#shape2"/>
    </g>
    <g id="shape2" transform="matrix(1.0, 0.0, 0.0, 1.0, 0.0, 0.0)">
      <path d="M39.85 14.05 L42.5 17.5 45.5 17.5 Q44.0 14.6 41.55 12.15 35.55 6.15 26.95 6.15 18.3 6.15 12.3 12.1 L12.2 12.15 Q10.55 13.8 9.4 15.7 7.6 18.5 6.8 21.8 L9.5 21.8 Q10.65 17.5 14.1 14.05 19.4 8.8 26.85 8.8 34.55 8.8 39.85 14.05 M45.9 7.7 L45.95 7.7 Q53.85 15.6 53.85 26.75 53.85 37.85 45.95 45.7 L45.9 45.75 Q38.05 53.65 26.95 53.65 15.65 53.65 7.85 45.75 L7.85 45.7 Q1.8 39.75 0.45 31.75 0.0 29.35 0.0 26.75 0.0 15.7 7.85 7.7 15.75 0.0 26.95 0.0 L28.6 0.05 Q38.65 0.6 45.9 7.7 M50.0 31.15 L49.3 31.85 46.65 38.0 Q42.75 44.45 36.7 47.55 36.25 47.7 36.1 48.2 35.95 48.65 36.15 49.1 36.35 49.5 36.8 49.65 L37.75 49.65 Q44.45 46.3 48.7 39.2 L48.75 39.05 51.5 32.7 51.5 31.85 50.9 31.15 Q50.4 31.0 50.0 31.15 M42.9 31.15 L43.35 29.5 45.15 28.75 44.95 30.6 Q43.9 35.85 39.85 39.9 34.55 45.2 26.85 45.2 19.4 45.2 14.1 39.9 9.7 35.5 8.95 29.6 L10.4 30.15 10.65 30.2 10.75 30.6 Q11.8 34.65 14.7 37.8 19.75 43.25 26.8 43.25 34.15 43.25 39.05 37.8 41.75 34.75 42.9 31.15 M44.45 26.25 Q39.55 28.5 34.45 29.5 L26.85 30.2 Q18.3 30.3 9.25 27.0 L8.85 26.95 6.25 26.95 Q6.25 28.2 6.4 29.35 7.2 36.25 12.3 41.4 18.3 47.4 26.95 47.4 35.45 47.4 41.55 41.4 47.6 35.3 47.6 26.75 L47.6 25.7 44.45 26.25 M28.05 2.5 Q27.7 2.15 27.3 2.1 L25.75 2.1 Q15.9 2.25 9.0 9.45 L8.95 9.45 Q2.05 16.45 2.05 26.3 2.05 28.5 2.5 30.7 L3.0 31.45 3.85 31.6 4.6 31.15 4.8 30.3 Q4.4 28.35 4.4 26.3 4.4 17.4 10.65 11.1 16.85 4.6 25.85 4.35 L25.9 4.35 27.1 4.35 27.85 4.1 28.25 3.35 Q28.35 2.8 28.05 2.5 M13.0 20.35 L12.45 21.45 Q12.35 22.1 12.7 22.4 L13.55 22.65 Q14.15 22.65 14.7 22.1 15.25 21.55 15.25 20.9 15.45 20.3 15.1 20.0 14.7 19.65 14.15 19.75 13.55 19.9 13.0 20.35 M20.1 17.5 Q21.05 16.45 21.15 15.3 21.45 14.3 20.85 13.65 20.2 13.05 19.05 13.25 18.1 13.4 17.05 14.45 16.2 15.3 15.9 16.3 15.8 17.5 16.45 18.05 17.0 18.65 18.1 18.5 19.25 18.35 20.1 17.5 M3.7 34.9 L4.8 37.8 Q4.95 38.25 5.4 38.5 L6.25 38.5 6.95 37.95 Q7.15 37.5 6.95 37.0 L5.9 34.1 5.35 33.5 4.4 33.4 Q3.9 33.55 3.75 34.05 3.55 34.45 3.7 34.9 M21.15 35.2 Q19.65 33.75 18.85 31.75 L27.15 32.65 34.6 31.75 36.35 31.25 Q35.8 33.5 33.9 35.2 31.4 38.0 27.65 38.0 23.95 38.0 21.15 35.2" fill="#000000" fill-rule="evenodd" stroke="none"/>
    </g>
  </defs>
</svg>
