<?xml version="1.0" encoding="UTF-8" standalone="no"?>
<svg xmlns:ffdec="https://www.free-decompiler.com/flash" xmlns:xlink="http://www.w3.org/1999/xlink" ffdec:objectType="frame" height="56.0px" width="56.0px" xmlns="http://www.w3.org/2000/svg">
  <g transform="matrix(1.0, 0.0, 0.0, 1.0, 0.0, 0.0)">
    <use ffdec:characterId="9" ffdec:characterName="163_fla.Symbole210_1" height="56.0" id="back" transform="matrix(1.0, 0.0, 0.0, 1.0, 0.0, 0.0)" width="56.0" xlink:href="#sprite0"/>
    <use ffdec:characterId="11" height="55.15" id="back" transform="matrix(1.0, 0.0, 0.0, 1.0, 0.35, 0.3)" width="55.35" xlink:href="#sprite8"/>
    <use ffdec:characterId="13" height="53.65" id="up" transform="matrix(1.0, 0.0, 0.0, 1.0, 1.15, 1.05)" width="53.85" xlink:href="#sprite9"/>
  </g>
  <defs>
    <g id="sprite0" transform="matrix(1.0, 0.0, 0.0, 1.0, 0.0, 0.0)">
      <use ffdec:characterId="8" ffdec:characterName="163_fla.Symbole207_2" height="56.0" id="back" transform="matrix(1.0, 0.0, 0.0, 1.0, 0.0, 0.0)" width="56.0" xlink:href="#sprite1"/>
    </g>
    <g id="sprite1" transform="matrix(1.0, 0.0, 0.0, 1.0, 0.0, 0.0)">
      <use ffdec:characterId="7" ffdec:characterName="163_fla.Symbole204_3" height="56.0" id="back" transform="matrix(1.0, 0.0, 0.0, 1.0, 0.0, 0.0)" width="56.0" xlink:href="#sprite2"/>
    </g>
    <g id="sprite2" transform="matrix(1.0, 0.0, 0.0, 1.0, 0.0, 0.0)">
      <use ffdec:characterId="6" ffdec:characterName="163_fla.Symbole201_4" height="56.0" id="back" transform="matrix(1.0, 0.0, 0.0, 1.0, 0.0, 0.0)" width="56.0" xlink:href="#sprite3"/>
    </g>
    <g id="sprite3" transform="matrix(1.0, 0.0, 0.0, 1.0, 0.0, 0.0)">
      <use ffdec:characterId="5" ffdec:characterName="163_fla.Symbole198_5" height="56.0" id="back" transform="matrix(1.0, 0.0, 0.0, 1.0, 0.0, 0.0)" width="56.0" xlink:href="#sprite4"/>
    </g>
    <g id="sprite4" transform="matrix(1.0, 0.0, 0.0, 1.0, 0.0, 0.0)">
      <use ffdec:characterId="4" ffdec:characterName="163_fla.Symbole195_6" height="56.0" id="back" transform="matrix(1.0, 0.0, 0.0, 1.0, 0.0, 0.0)" width="56.0" xlink:href="#sprite5"/>
    </g>
    <g id="sprite5" transform="matrix(1.0, 0.0, 0.0, 1.0, 0.0, 0.0)">
      <use ffdec:characterId="3" ffdec:characterName="163_fla.Symbole192_7" height="56.0" id="back" transform="matrix(1.0, 0.0, 0.0, 1.0, 0.0, 0.0)" width="56.0" xlink:href="#sprite6"/>
    </g>
    <g id="sprite6" transform="matrix(1.0, 0.0, 0.0, 1.0, 0.0, 0.0)">
      <use ffdec:characterId="2" height="56.0" id="back" transform="matrix(1.0, 0.0, 0.0, 1.0, 0.0, 0.0)" width="56.0" xlink:href="#sprite7"/>
    </g>
    <g id="sprite7" transform="matrix(1.0, 0.0, 0.0, 1.0, 0.0, 0.0)">
      <use ffdec:characterId="1" height="56.0" transform="matrix(1.0, 0.0, 0.0, 1.0, 0.0, 0.0)" width="56.0" xlink:href="#shape0"/>
    </g>
    <g id="shape0" transform="matrix(1.0, 0.0, 0.0, 1.0, 0.0, 0.0)">
      <path d="M56.0 56.0 L0.0 56.0 0.0 0.0 56.0 0.0 56.0 56.0" fill="#010101" fill-opacity="0.0" fill-rule="evenodd" stroke="none"/>
    </g>
    <g id="sprite8" transform="matrix(1.0, 0.0, 0.0, 1.0, 0.75, 0.75)">
      <use ffdec:characterId="10" height="55.15" transform="matrix(1.0, 0.0, 0.0, 1.0, -0.75, -0.75)" width="55.35" xlink:href="#shape1"/>
    </g>
    <g id="shape1" transform="matrix(1.0, 0.0, 0.0, 1.0, 0.75, 0.75)">
      <path d="M45.85 7.8 Q38.65 0.6 28.55 0.1 L26.95 0.0 Q15.7 0.0 7.85 7.8 0.0 15.75 0.0 26.85 0.0 29.35 0.5 31.8 1.85 39.8 7.85 45.7 L7.85 45.8 Q15.7 53.65 26.95 53.65 38.05 53.65 45.85 45.8 L45.95 45.7 Q53.85 37.9 53.85 26.85 53.85 15.65 45.95 7.8 L45.85 7.8 M51.5 31.85 L50.85 31.2 Q50.45 31.05 50.0 31.2 49.6 31.45 49.35 31.85 L46.65 38.05 Q42.75 44.45 36.75 47.6 36.25 47.75 36.1 48.25 35.9 48.65 36.15 49.15 36.35 49.55 36.8 49.7 L37.75 49.7 Q44.5 46.3 48.7 39.2 L48.75 39.05 51.5 32.75 Q51.7 32.3 51.5 31.85 M40.15 39.85 Q34.65 45.3 26.95 45.3 19.3 45.3 13.8 39.85 8.3 34.4 8.3 26.65 8.3 19.0 13.8 13.55 19.3 8.15 26.95 8.15 34.65 8.15 40.15 13.55 45.65 19.0 45.65 26.65 45.65 34.4 40.15 39.85 M41.6 41.4 Q35.5 47.4 26.95 47.4 18.3 47.4 12.3 41.4 7.2 36.3 6.45 29.35 L6.25 26.85 Q6.25 20.55 9.4 15.75 10.6 13.85 12.2 12.2 L12.3 12.15 Q18.3 6.2 26.95 6.2 35.55 6.2 41.6 12.2 47.6 18.25 47.6 26.85 47.6 35.3 41.6 41.4 M28.05 2.55 L27.3 2.1 25.75 2.1 Q15.9 2.3 9.0 9.45 L8.95 9.45 Q2.05 16.5 2.05 26.35 2.05 28.5 2.5 30.7 2.6 31.2 3.0 31.5 L3.85 31.7 4.6 31.2 4.8 30.35 Q4.4 28.35 4.4 26.35 4.4 17.4 10.7 11.15 16.85 4.6 25.8 4.4 L25.9 4.4 27.05 4.4 27.9 4.2 28.25 3.35 Q28.35 2.85 28.05 2.55 M24.55 17.15 Q25.15 17.65 25.4 18.25 L25.4 18.3 25.7 20.0 Q25.7 21.65 24.65 22.65 L24.55 22.65 Q23.4 23.9 21.85 23.9 20.35 23.9 19.3 22.85 L19.1 22.65 Q17.95 21.65 17.95 20.0 17.95 18.4 19.1 17.2 L19.2 17.15 Q20.3 16.05 21.85 16.05 23.4 16.05 24.55 17.2 L24.55 17.15 M27.3 17.9 Q31.0 17.9 34.0 20.55 36.55 23.35 36.55 27.35 36.55 31.25 34.0 33.85 31.0 36.65 27.3 36.65 23.55 36.65 20.6 33.85 17.95 31.25 17.95 27.35 17.95 25.75 18.45 24.15 L18.2 23.9 18.1 23.85 18.05 23.75 Q16.35 22.35 16.35 20.0 16.35 17.75 18.05 16.05 19.65 14.5 21.85 14.5 24.05 14.5 25.7 16.05 L26.9 17.75 26.95 17.9 27.3 17.9 M38.75 15.0 Q43.6 19.85 43.6 26.85 43.6 33.75 38.75 38.7 33.75 43.55 26.8 43.55 19.8 43.55 14.95 38.7 10.05 33.75 10.05 26.85 10.05 19.85 14.95 15.0 19.8 10.05 26.8 10.05 33.75 10.05 38.75 15.0 M3.7 34.95 L4.8 37.8 Q4.95 38.3 5.45 38.55 L6.25 38.55 6.95 37.95 6.95 37.05 5.85 34.15 Q5.7 33.7 5.35 33.55 L4.4 33.45 Q3.95 33.6 3.75 34.1 3.5 34.45 3.7 34.95 Z" fill="none" stroke="#000000" stroke-linecap="round" stroke-linejoin="round" stroke-opacity="0.2" stroke-width="1.5"/>
    </g>
    <g id="sprite9" transform="matrix(1.0, 0.0, 0.0, 1.0, 0.0, 0.0)">
      <use ffdec:characterId="12" height="53.65" transform="matrix(1.0, 0.0, 0.0, 1.0, 0.0, 0.0)" width="53.85" xlink:href="#shape2"/>
    </g>
    <g id="shape2" transform="matrix(1.0, 0.0, 0.0, 1.0, 0.0, 0.0)">
      <path d="M45.85 7.75 L45.95 7.75 Q53.85 15.65 53.85 26.8 53.85 37.9 45.95 45.7 L45.85 45.8 Q38.0 53.65 26.9 53.65 15.65 53.65 7.8 45.8 L7.8 45.7 Q1.8 39.75 0.45 31.8 0.0 29.35 0.0 26.8 0.0 15.7 7.8 7.75 15.7 0.0 26.9 0.0 L28.55 0.1 Q38.65 0.65 45.85 7.75 M50.0 31.15 L49.3 31.85 46.65 38.05 Q42.7 44.45 36.7 47.55 36.2 47.75 36.05 48.2 35.9 48.65 36.15 49.15 L36.75 49.7 37.7 49.7 Q44.45 46.3 48.65 39.2 L48.75 39.05 51.5 32.75 51.5 31.85 50.85 31.15 Q50.4 31.0 50.0 31.15 M41.55 41.4 Q47.55 35.3 47.55 26.8 47.55 18.2 41.55 12.2 35.5 6.2 26.9 6.2 18.3 6.2 12.25 12.1 L12.2 12.2 Q10.55 13.85 9.35 15.7 6.25 20.55 6.25 26.8 L6.4 29.35 Q7.2 36.25 12.25 41.4 18.3 47.4 26.9 47.4 35.45 47.4 41.55 41.4 M40.15 39.85 Q34.65 45.3 26.9 45.3 19.25 45.3 13.75 39.85 8.3 34.35 8.3 26.65 8.3 19.0 13.75 13.5 19.25 8.15 26.9 8.15 34.65 8.15 40.15 13.5 45.6 19.0 45.6 26.65 45.6 34.35 40.15 39.85 M28.25 3.35 Q28.3 2.8 28.0 2.5 L27.3 2.1 25.75 2.1 Q15.85 2.25 9.0 9.45 L8.9 9.45 Q2.0 16.5 2.0 26.35 2.0 28.5 2.5 30.7 2.55 31.15 2.95 31.5 L3.8 31.65 Q4.3 31.5 4.6 31.15 L4.75 30.3 Q4.35 28.35 4.35 26.35 4.35 17.4 10.65 11.1 16.8 4.6 25.8 4.4 L25.9 4.4 27.05 4.4 Q27.55 4.45 27.85 4.15 L28.25 3.35 M24.55 17.1 L24.55 17.2 Q23.4 16.0 21.8 16.0 20.25 16.0 19.15 17.1 L19.1 17.2 Q17.9 18.35 17.9 20.0 17.9 21.65 19.1 22.65 L19.25 22.8 Q20.35 23.9 21.8 23.9 23.4 23.9 24.55 22.65 L24.65 22.65 Q25.65 21.65 25.65 20.0 L25.35 18.3 25.35 18.2 24.55 17.1 M26.9 17.9 L27.3 17.9 Q31.0 17.9 33.95 20.55 36.55 23.35 36.55 27.35 36.55 31.25 33.95 33.85 31.0 36.65 27.3 36.65 23.55 36.65 20.55 33.85 17.9 31.25 17.9 27.35 17.9 25.7 18.45 24.15 L18.15 23.9 18.05 23.85 18.0 23.75 Q16.35 22.35 16.35 20.0 16.35 17.75 18.0 16.0 19.65 14.45 21.8 14.45 24.0 14.45 25.65 16.0 26.5 16.9 26.85 17.75 L26.9 17.9 M38.75 15.0 Q33.7 10.0 26.75 10.0 19.8 10.0 14.95 15.0 10.0 19.85 10.0 26.8 10.0 33.75 14.95 38.65 19.8 43.5 26.75 43.5 33.7 43.5 38.75 38.65 43.6 33.75 43.6 26.8 43.6 19.85 38.75 15.0 M3.65 34.9 L4.75 37.8 Q4.9 38.3 5.4 38.5 L6.25 38.5 6.95 37.95 6.95 37.05 5.85 34.15 Q5.7 33.65 5.3 33.5 L4.35 33.45 Q3.9 33.6 3.75 34.05 3.5 34.45 3.65 34.9" fill="#000000" fill-rule="evenodd" stroke="none"/>
    </g>
  </defs>
</svg>
