<?xml version="1.0" encoding="UTF-8" standalone="no"?>
<svg xmlns:ffdec="https://www.free-decompiler.com/flash" xmlns:xlink="http://www.w3.org/1999/xlink" ffdec:objectType="frame" height="56.0px" width="56.0px" xmlns="http://www.w3.org/2000/svg">
  <g transform="matrix(1.0, 0.0, 0.0, 1.0, 0.0, 0.0)">
    <use ffdec:characterId="10" ffdec:characterName="164_fla.Symbole213_1" height="56.0" id="back" transform="matrix(1.0, 0.0, 0.0, 1.0, 0.0, 0.0)" width="56.0" xlink:href="#sprite0"/>
    <use ffdec:characterId="12" height="52.75" id="back" transform="matrix(1.0, 0.0, 0.0, 1.0, 0.35, 1.6)" width="55.35" xlink:href="#sprite9"/>
    <use ffdec:characterId="14" height="51.25" id="up" transform="matrix(1.0, 0.0, 0.0, 1.0, 1.1, 2.35)" width="53.85" xlink:href="#sprite10"/>
  </g>
  <defs>
    <g id="sprite0" transform="matrix(1.0, 0.0, 0.0, 1.0, 0.0, 0.0)">
      <use ffdec:characterId="9" ffdec:characterName="164_fla.Symbole210_2" height="56.0" id="back" transform="matrix(1.0, 0.0, 0.0, 1.0, 0.0, 0.0)" width="56.0" xlink:href="#sprite1"/>
    </g>
    <g id="sprite1" transform="matrix(1.0, 0.0, 0.0, 1.0, 0.0, 0.0)">
      <use ffdec:characterId="8" ffdec:characterName="164_fla.Symbole207_3" height="56.0" id="back" transform="matrix(1.0, 0.0, 0.0, 1.0, 0.0, 0.0)" width="56.0" xlink:href="#sprite2"/>
    </g>
    <g id="sprite2" transform="matrix(1.0, 0.0, 0.0, 1.0, 0.0, 0.0)">
      <use ffdec:characterId="7" ffdec:characterName="164_fla.Symbole204_4" height="56.0" id="back" transform="matrix(1.0, 0.0, 0.0, 1.0, 0.0, 0.0)" width="56.0" xlink:href="#sprite3"/>
    </g>
    <g id="sprite3" transform="matrix(1.0, 0.0, 0.0, 1.0, 0.0, 0.0)">
      <use ffdec:characterId="6" ffdec:characterName="164_fla.Symbole201_5" height="56.0" id="back" transform="matrix(1.0, 0.0, 0.0, 1.0, 0.0, 0.0)" width="56.0" xlink:href="#sprite4"/>
    </g>
    <g id="sprite4" transform="matrix(1.0, 0.0, 0.0, 1.0, 0.0, 0.0)">
      <use ffdec:characterId="5" ffdec:characterName="164_fla.Symbole198_6" height="56.0" id="back" transform="matrix(1.0, 0.0, 0.0, 1.0, 0.0, 0.0)" width="56.0" xlink:href="#sprite5"/>
    </g>
    <g id="sprite5" transform="matrix(1.0, 0.0, 0.0, 1.0, 0.0, 0.0)">
      <use ffdec:characterId="4" ffdec:characterName="164_fla.Symbole195_7" height="56.0" id="back" transform="matrix(1.0, 0.0, 0.0, 1.0, 0.0, 0.0)" width="56.0" xlink:href="#sprite6"/>
    </g>
    <g id="sprite6" transform="matrix(1.0, 0.0, 0.0, 1.0, 0.0, 0.0)">
      <use ffdec:characterId="3" ffdec:characterName="164_fla.Symbole192_8" height="56.0" id="back" transform="matrix(1.0, 0.0, 0.0, 1.0, 0.0, 0.0)" width="56.0" xlink:href="#sprite7"/>
    </g>
    <g id="sprite7" transform="matrix(1.0, 0.0, 0.0, 1.0, 0.0, 0.0)">
      <use ffdec:characterId="2" height="56.0" id="back" transform="matrix(1.0, 0.0, 0.0, 1.0, 0.0, 0.0)" width="56.0" xlink:href="#sprite8"/>
    </g>
    <g id="sprite8" transform="matrix(1.0, 0.0, 0.0, 1.0, 0.0, 0.0)">
      <use ffdec:characterId="1" height="56.0" transform="matrix(1.0, 0.0, 0.0, 1.0, 0.0, 0.0)" width="56.0" xlink:href="#shape0"/>
    </g>
    <g id="shape0" transform="matrix(1.0, 0.0, 0.0, 1.0, 0.0, 0.0)">
      <path d="M56.0 56.0 L0.0 56.0 0.0 0.0 56.0 0.0 56.0 56.0" fill="#010101" fill-opacity="0.0" fill-rule="evenodd" stroke="none"/>
    </g>
    <g id="sprite9" transform="matrix(1.0, 0.0, 0.0, 1.0, 0.75, 0.75)">
      <use ffdec:characterId="11" height="52.75" transform="matrix(1.0, 0.0, 0.0, 1.0, -0.75, -0.75)" width="55.35" xlink:href="#shape1"/>
    </g>
    <g id="shape1" transform="matrix(1.0, 0.0, 0.0, 1.0, 0.75, 0.75)">
      <path d="M45.55 21.1 L45.4 20.8 45.0 20.6 34.25 20.6 Q34.1 20.6 33.95 20.8 33.8 20.85 33.8 21.1 L33.95 21.45 34.25 21.55 45.0 21.55 45.4 21.45 45.55 21.1 M46.5 21.55 L46.8 21.7 47.7 21.7 48.05 21.55 48.15 21.15 48.05 20.85 47.7 20.75 46.8 20.75 46.5 20.85 46.35 21.15 46.5 21.55 M26.1 6.0 L25.85 6.3 22.55 18.55 22.55 18.95 22.85 19.15 23.2 19.15 23.4 18.85 26.8 6.5 26.8 6.15 26.45 6.0 Q26.25 5.85 26.1 6.0 M33.65 18.85 L53.85 19.25 37.95 31.65 43.9 50.95 27.1 39.7 10.6 51.25 16.2 31.9 0.0 19.75 20.25 19.0 26.8 0.0 33.65 18.85 M4.5 21.85 L4.8 22.0 5.9 22.0 6.3 21.85 6.45 21.45 6.45 21.3 6.3 21.15 Q6.15 21.0 5.9 21.0 L4.8 21.0 Q4.55 21.0 4.5 21.15 L4.4 21.3 4.3 21.45 4.5 21.85 M7.65 21.15 L7.45 21.45 7.65 21.8 7.95 21.95 18.65 21.7 19.05 21.6 19.15 21.25 19.05 20.95 18.65 20.8 7.95 20.95 7.65 21.15 M17.95 32.3 Q17.8 32.15 17.65 32.3 17.4 32.35 17.4 32.6 L14.1 44.2 Q13.95 44.35 14.1 44.5 L14.4 44.8 14.75 44.75 14.95 44.45 18.3 32.8 18.2 32.45 17.95 32.3 Z" fill="none" stroke="#000000" stroke-linecap="round" stroke-linejoin="round" stroke-opacity="0.2" stroke-width="1.5"/>
    </g>
    <g id="sprite10" transform="matrix(1.0, 0.0, 0.0, 1.0, 0.0, 0.0)">
      <use ffdec:characterId="13" height="51.25" transform="matrix(1.0, 0.0, 0.0, 1.0, 0.0, 0.0)" width="53.85" xlink:href="#shape2"/>
    </g>
    <g id="shape2" transform="matrix(1.0, 0.0, 0.0, 1.0, 0.0, 0.0)">
      <path d="M45.55 21.1 L45.4 20.8 45.0 20.6 34.25 20.6 Q34.1 20.6 33.95 20.8 33.8 20.85 33.8 21.1 L33.95 21.45 34.25 21.55 45.0 21.55 45.4 21.45 45.55 21.1 M46.5 21.55 L46.8 21.7 47.7 21.7 48.05 21.55 48.15 21.15 48.05 20.85 47.7 20.75 46.8 20.75 46.5 20.85 46.35 21.15 46.5 21.55 M26.1 6.0 L25.85 6.3 22.55 18.55 22.55 18.95 22.85 19.15 23.2 19.15 23.4 18.85 26.8 6.5 26.8 6.15 26.45 6.0 Q26.25 5.85 26.1 6.0 M33.65 18.85 L53.85 19.25 37.95 31.65 43.9 50.95 27.1 39.7 10.6 51.25 16.2 31.9 0.0 19.75 20.25 19.0 26.8 0.0 33.65 18.85 M4.5 21.85 L4.8 22.0 5.9 22.0 6.3 21.85 6.45 21.45 6.45 21.3 6.3 21.15 Q6.15 21.0 5.9 21.0 L4.8 21.0 Q4.55 21.0 4.5 21.15 L4.4 21.3 4.3 21.45 4.5 21.85 M7.95 21.95 L18.65 21.7 19.05 21.6 19.15 21.25 19.05 20.95 18.65 20.8 7.95 20.95 7.65 21.15 7.45 21.45 7.65 21.8 7.95 21.95 M17.95 32.3 Q17.8 32.15 17.65 32.3 17.4 32.35 17.4 32.6 L14.1 44.2 Q13.95 44.35 14.1 44.5 L14.4 44.8 14.75 44.75 14.95 44.45 18.3 32.8 18.2 32.45 17.95 32.3" fill="#000000" fill-rule="evenodd" stroke="none"/>
    </g>
  </defs>
</svg>
