<?xml version="1.0" encoding="UTF-8" standalone="no"?>
<svg xmlns:ffdec="https://www.free-decompiler.com/flash" xmlns:xlink="http://www.w3.org/1999/xlink" ffdec:objectType="frame" height="56.0px" width="56.0px" xmlns="http://www.w3.org/2000/svg">
  <g transform="matrix(1.0, 0.0, 0.0, 1.0, 0.0, 0.0)">
    <use ffdec:characterId="12" ffdec:characterName="166_fla.Symbole219_1" height="56.0" id="back" transform="matrix(1.0, 0.0, 0.0, 1.0, 0.0, 0.0)" width="56.0" xlink:href="#sprite0"/>
    <use ffdec:characterId="14" height="42.85" id="back" transform="matrix(1.0, 0.0, 0.0, 1.0, 0.35, 6.35)" width="55.35" xlink:href="#sprite11"/>
    <use ffdec:characterId="16" height="41.35" id="up" transform="matrix(1.0, 0.0, 0.0, 1.0, 1.1, 7.05)" width="53.85" xlink:href="#sprite12"/>
  </g>
  <defs>
    <g id="sprite0" transform="matrix(1.0, 0.0, 0.0, 1.0, 0.0, 0.0)">
      <use ffdec:characterId="11" ffdec:characterName="166_fla.Symbole216_2" height="56.0" id="back" transform="matrix(1.0, 0.0, 0.0, 1.0, 0.0, 0.0)" width="56.0" xlink:href="#sprite1"/>
    </g>
    <g id="sprite1" transform="matrix(1.0, 0.0, 0.0, 1.0, 0.0, 0.0)">
      <use ffdec:characterId="10" ffdec:characterName="166_fla.Symbole213_3" height="56.0" id="back" transform="matrix(1.0, 0.0, 0.0, 1.0, 0.0, 0.0)" width="56.0" xlink:href="#sprite2"/>
    </g>
    <g id="sprite2" transform="matrix(1.0, 0.0, 0.0, 1.0, 0.0, 0.0)">
      <use ffdec:characterId="9" ffdec:characterName="166_fla.Symbole210_4" height="56.0" id="back" transform="matrix(1.0, 0.0, 0.0, 1.0, 0.0, 0.0)" width="56.0" xlink:href="#sprite3"/>
    </g>
    <g id="sprite3" transform="matrix(1.0, 0.0, 0.0, 1.0, 0.0, 0.0)">
      <use ffdec:characterId="8" ffdec:characterName="166_fla.Symbole207_5" height="56.0" id="back" transform="matrix(1.0, 0.0, 0.0, 1.0, 0.0, 0.0)" width="56.0" xlink:href="#sprite4"/>
    </g>
    <g id="sprite4" transform="matrix(1.0, 0.0, 0.0, 1.0, 0.0, 0.0)">
      <use ffdec:characterId="7" ffdec:characterName="166_fla.Symbole204_6" height="56.0" id="back" transform="matrix(1.0, 0.0, 0.0, 1.0, 0.0, 0.0)" width="56.0" xlink:href="#sprite5"/>
    </g>
    <g id="sprite5" transform="matrix(1.0, 0.0, 0.0, 1.0, 0.0, 0.0)">
      <use ffdec:characterId="6" ffdec:characterName="166_fla.Symbole201_7" height="56.0" id="back" transform="matrix(1.0, 0.0, 0.0, 1.0, 0.0, 0.0)" width="56.0" xlink:href="#sprite6"/>
    </g>
    <g id="sprite6" transform="matrix(1.0, 0.0, 0.0, 1.0, 0.0, 0.0)">
      <use ffdec:characterId="5" ffdec:characterName="166_fla.Symbole198_8" height="56.0" id="back" transform="matrix(1.0, 0.0, 0.0, 1.0, 0.0, 0.0)" width="56.0" xlink:href="#sprite7"/>
    </g>
    <g id="sprite7" transform="matrix(1.0, 0.0, 0.0, 1.0, 0.0, 0.0)">
      <use ffdec:characterId="4" ffdec:characterName="166_fla.Symbole195_9" height="56.0" id="back" transform="matrix(1.0, 0.0, 0.0, 1.0, 0.0, 0.0)" width="56.0" xlink:href="#sprite8"/>
    </g>
    <g id="sprite8" transform="matrix(1.0, 0.0, 0.0, 1.0, 0.0, 0.0)">
      <use ffdec:characterId="3" ffdec:characterName="166_fla.Symbole192_10" height="56.0" id="back" transform="matrix(1.0, 0.0, 0.0, 1.0, 0.0, 0.0)" width="56.0" xlink:href="#sprite9"/>
    </g>
    <g id="sprite9" transform="matrix(1.0, 0.0, 0.0, 1.0, 0.0, 0.0)">
      <use ffdec:characterId="2" height="56.0" id="back" transform="matrix(1.0, 0.0, 0.0, 1.0, 0.0, 0.0)" width="56.0" xlink:href="#sprite10"/>
    </g>
    <g id="sprite10" transform="matrix(1.0, 0.0, 0.0, 1.0, 0.0, 0.0)">
      <use ffdec:characterId="1" height="56.0" transform="matrix(1.0, 0.0, 0.0, 1.0, 0.0, 0.0)" width="56.0" xlink:href="#shape0"/>
    </g>
    <g id="shape0" transform="matrix(1.0, 0.0, 0.0, 1.0, 0.0, 0.0)">
      <path d="M56.0 56.0 L0.0 56.0 0.0 0.0 56.0 0.0 56.0 56.0" fill="#010101" fill-opacity="0.0" fill-rule="evenodd" stroke="none"/>
    </g>
    <g id="sprite11" transform="matrix(1.0, 0.0, 0.0, 1.0, 0.75, 0.75)">
      <use ffdec:characterId="13" height="42.85" transform="matrix(1.0, 0.0, 0.0, 1.0, -0.75, -0.75)" width="55.35" xlink:href="#shape1"/>
    </g>
    <g id="shape1" transform="matrix(1.0, 0.0, 0.0, 1.0, 0.75, 0.75)">
      <path d="M50.25 1.75 L50.8 1.4 51.05 0.95 51.05 0.0 53.65 0.0 53.75 3.35 51.75 4.85 38.45 4.85 36.35 3.35 36.35 0.0 39.0 0.0 39.0 0.95 39.15 1.4 39.65 1.75 39.7 1.75 40.25 1.4 40.55 0.95 40.55 0.0 42.25 0.0 42.25 0.95 42.5 1.4 Q42.8 1.75 43.15 1.75 43.4 1.75 43.6 1.4 L43.85 0.95 43.85 0.0 45.85 0.0 45.85 0.95 46.1 1.4 46.65 1.75 46.7 1.75 47.15 1.4 47.45 0.95 47.45 0.0 49.45 0.0 49.45 0.95 49.6 1.4 50.25 1.75 M43.05 15.9 L43.05 21.0 47.1 21.0 47.1 15.9 Q47.1 14.9 46.65 14.0 46.1 13.25 45.45 13.25 L44.65 13.25 Q44.1 13.25 43.55 14.0 43.05 14.9 43.05 15.9 M51.75 33.8 L51.75 5.8 38.3 5.8 38.3 33.8 38.3 34.45 51.75 34.45 51.75 33.8 M51.75 35.25 L38.3 35.25 38.3 36.55 38.3 37.1 51.75 37.1 51.75 36.55 51.75 35.25 M51.9 37.9 L38.0 37.9 36.2 41.35 53.85 41.35 51.9 37.9 M26.25 10.1 L26.7 10.4 27.05 10.1 27.35 9.65 27.35 8.7 29.5 8.7 29.5 9.65 29.6 10.1 30.2 10.4 30.3 10.4 30.8 10.1 31.0 9.65 31.0 8.7 33.15 8.7 33.15 9.65 33.35 10.1 Q33.55 10.4 33.9 10.4 L34.35 10.1 34.6 9.65 34.6 8.7 36.75 8.7 36.75 9.65 36.9 10.1 37.15 10.3 37.15 13.5 16.65 13.5 16.65 9.9 16.7 9.65 16.7 8.7 18.5 8.7 18.5 9.65 18.8 10.1 Q19.05 10.4 19.45 10.4 L19.95 10.1 20.25 9.65 20.25 8.7 22.3 8.7 22.3 9.65 22.5 10.1 23.1 10.4 23.2 10.4 23.7 10.1 23.9 9.65 23.9 8.7 26.0 8.7 26.0 9.65 26.25 10.1 M13.2 0.95 L13.4 1.4 14.0 1.75 Q14.4 1.75 14.5 1.4 L14.8 0.95 14.8 0.0 17.45 0.0 17.45 3.35 15.5 4.85 2.2 4.85 0.15 3.35 0.15 0.0 2.75 0.0 2.75 0.95 2.9 1.4 3.4 1.75 3.5 1.75 4.05 1.4 4.35 0.95 4.35 0.0 6.05 0.0 6.05 0.95 6.3 1.4 6.9 1.75 7.4 1.4 7.65 0.95 7.65 0.0 9.65 0.0 9.65 0.95 9.85 1.4 10.4 1.75 10.5 1.75 10.9 1.4 11.25 0.95 11.25 0.0 13.2 0.0 13.2 0.95 M7.3 14.0 Q6.85 14.9 6.85 15.9 L6.85 21.0 10.85 21.0 10.85 15.9 Q10.85 14.9 10.4 14.0 9.85 13.25 9.15 13.25 L8.45 13.25 Q7.85 13.25 7.3 14.0 M2.05 5.8 L2.05 33.8 2.05 34.45 15.5 34.45 15.5 33.8 15.5 5.8 2.05 5.8 M0.0 41.35 L17.6 41.35 15.7 37.9 1.8 37.9 0.0 41.35 M2.05 36.55 L2.05 37.1 15.5 37.1 15.5 36.55 15.5 35.25 2.05 35.25 2.05 36.55 M16.65 37.9 L16.65 14.3 37.15 14.3 37.15 26.15 37.25 26.15 37.25 29.25 37.15 29.25 37.15 37.9 35.15 41.25 30.45 41.25 30.45 32.35 Q30.45 30.55 29.6 29.05 28.7 27.7 27.5 27.7 L26.3 27.7 Q25.2 27.7 24.3 29.05 23.35 30.55 23.35 32.35 L23.35 41.25 18.65 41.25 16.65 37.9 Z" fill="none" stroke="#000000" stroke-linecap="round" stroke-linejoin="round" stroke-opacity="0.2" stroke-width="1.5"/>
    </g>
    <g id="sprite12" transform="matrix(1.0, 0.0, 0.0, 1.0, 0.0, 0.0)">
      <use ffdec:characterId="15" height="41.35" transform="matrix(1.0, 0.0, 0.0, 1.0, 0.0, 0.0)" width="53.85" xlink:href="#shape2"/>
    </g>
    <g id="shape2" transform="matrix(1.0, 0.0, 0.0, 1.0, 0.0, 0.0)">
      <path d="M50.8 1.4 L51.1 0.95 51.1 0.0 53.7 0.0 53.8 3.35 51.75 4.85 38.5 4.85 36.4 3.35 36.4 0.0 39.0 0.0 39.0 0.95 39.15 1.4 39.7 1.7 39.75 1.7 40.3 1.4 40.6 0.95 40.6 0.0 42.3 0.0 42.3 0.95 42.55 1.4 Q42.85 1.7 43.15 1.7 L43.65 1.4 43.9 0.95 43.9 0.0 45.9 0.0 45.9 0.95 46.15 1.4 Q46.35 1.7 46.65 1.7 L46.75 1.7 47.2 1.4 47.5 0.95 47.5 0.0 49.45 0.0 49.45 0.95 49.65 1.4 Q49.95 1.7 50.25 1.7 L50.8 1.4 M43.05 15.85 L43.05 21.05 47.1 21.05 47.1 15.85 Q47.1 14.9 46.65 14.0 46.15 13.25 45.45 13.25 L44.7 13.25 Q44.1 13.25 43.6 14.0 43.05 14.9 43.05 15.85 M51.75 33.8 L51.75 34.45 38.35 34.45 38.35 33.8 38.35 5.85 51.75 5.85 51.75 33.8 M51.75 35.3 L51.75 36.55 51.75 37.1 38.35 37.1 38.35 36.55 38.35 35.3 51.75 35.3 M51.9 37.9 L53.85 41.35 36.25 41.35 38.05 37.9 51.9 37.9 M26.05 9.65 L26.25 10.1 26.7 10.4 27.1 10.1 27.4 9.65 27.4 8.7 29.5 8.7 29.5 9.65 29.65 10.1 Q29.95 10.4 30.25 10.4 L30.3 10.4 30.85 10.1 31.05 9.65 31.05 8.7 33.15 8.7 33.15 9.65 33.4 10.1 Q33.6 10.4 33.9 10.4 L34.35 10.1 34.65 9.65 34.65 8.7 36.75 8.7 36.75 9.65 36.9 10.1 37.2 10.35 37.2 13.5 16.65 13.5 16.65 9.9 16.75 9.65 16.75 8.7 18.55 8.7 18.55 9.65 18.85 10.1 Q19.05 10.4 19.45 10.4 L19.95 10.1 20.25 9.65 20.25 8.7 22.35 8.7 22.35 9.65 22.5 10.1 23.1 10.4 23.2 10.4 23.7 10.1 23.95 9.65 23.95 8.7 26.05 8.7 26.05 9.65 M14.05 1.7 L14.55 1.4 14.85 0.95 14.85 0.0 17.5 0.0 17.5 3.35 15.55 4.85 2.25 4.85 0.15 3.35 0.15 0.0 2.8 0.0 2.8 0.95 2.95 1.4 3.45 1.7 3.55 1.7 4.05 1.4 4.35 0.95 4.35 0.0 6.1 0.0 6.1 0.95 6.3 1.4 6.9 1.7 7.45 1.4 7.65 0.95 7.65 0.0 9.7 0.0 9.7 0.95 9.9 1.4 10.45 1.7 10.5 1.7 10.95 1.4 11.25 0.95 11.25 0.0 13.2 0.0 13.2 0.95 13.45 1.4 Q13.75 1.7 14.05 1.7 M7.35 14.0 Q6.85 14.9 6.85 15.85 L6.85 21.05 10.9 21.05 10.9 15.85 Q10.9 14.9 10.45 14.0 9.9 13.25 9.15 13.25 L8.5 13.25 Q7.9 13.25 7.35 14.0 M0.0 41.35 L1.8 37.9 15.7 37.9 17.65 41.35 0.0 41.35 M2.1 36.55 L2.1 35.3 15.55 35.3 15.55 36.55 15.55 37.1 2.1 37.1 2.1 36.55 M2.1 5.85 L15.55 5.85 15.55 33.8 15.55 34.45 2.1 34.45 2.1 33.8 2.1 5.85 M16.65 37.9 L16.65 14.3 37.2 14.3 37.2 26.15 37.3 26.15 37.3 29.3 37.2 29.3 37.2 37.9 35.2 41.3 30.45 41.3 30.45 32.35 Q30.45 30.55 29.65 29.05 28.75 27.7 27.55 27.7 L26.35 27.7 Q25.2 27.7 24.3 29.05 23.4 30.55 23.4 32.35 L23.4 41.3 18.7 41.3 16.65 37.9" fill="#000000" fill-rule="evenodd" stroke="none"/>
    </g>
  </defs>
</svg>
