<?xml version="1.0" encoding="UTF-8" standalone="no"?>
<svg xmlns:ffdec="https://www.free-decompiler.com/flash" xmlns:xlink="http://www.w3.org/1999/xlink" ffdec:objectType="frame" height="56.0px" width="56.0px" xmlns="http://www.w3.org/2000/svg">
  <g transform="matrix(1.0, 0.0, 0.0, 1.0, 0.0, 0.0)">
    <use ffdec:characterId="13" ffdec:characterName="167_fla.Symbole222_1" height="56.0" id="back" transform="matrix(1.0, 0.0, 0.0, 1.0, 0.0, 0.0)" width="56.0" xlink:href="#sprite0"/>
    <use ffdec:characterId="15" height="53.25" id="back" transform="matrix(1.0, 0.0, 0.0, 1.0, 0.35, 1.0)" width="55.35" xlink:href="#sprite12"/>
    <use ffdec:characterId="17" height="51.75" id="up" transform="matrix(1.0, 0.0, 0.0, 1.0, 1.1, 1.7)" width="53.85" xlink:href="#sprite13"/>
  </g>
  <defs>
    <g id="sprite0" transform="matrix(1.0, 0.0, 0.0, 1.0, 0.0, 0.0)">
      <use ffdec:characterId="12" ffdec:characterName="167_fla.Symbole219_2" height="56.0" id="back" transform="matrix(1.0, 0.0, 0.0, 1.0, 0.0, 0.0)" width="56.0" xlink:href="#sprite1"/>
    </g>
    <g id="sprite1" transform="matrix(1.0, 0.0, 0.0, 1.0, 0.0, 0.0)">
      <use ffdec:characterId="11" ffdec:characterName="167_fla.Symbole216_3" height="56.0" id="back" transform="matrix(1.0, 0.0, 0.0, 1.0, 0.0, 0.0)" width="56.0" xlink:href="#sprite2"/>
    </g>
    <g id="sprite2" transform="matrix(1.0, 0.0, 0.0, 1.0, 0.0, 0.0)">
      <use ffdec:characterId="10" ffdec:characterName="167_fla.Symbole213_4" height="56.0" id="back" transform="matrix(1.0, 0.0, 0.0, 1.0, 0.0, 0.0)" width="56.0" xlink:href="#sprite3"/>
    </g>
    <g id="sprite3" transform="matrix(1.0, 0.0, 0.0, 1.0, 0.0, 0.0)">
      <use ffdec:characterId="9" ffdec:characterName="167_fla.Symbole210_5" height="56.0" id="back" transform="matrix(1.0, 0.0, 0.0, 1.0, 0.0, 0.0)" width="56.0" xlink:href="#sprite4"/>
    </g>
    <g id="sprite4" transform="matrix(1.0, 0.0, 0.0, 1.0, 0.0, 0.0)">
      <use ffdec:characterId="8" ffdec:characterName="167_fla.Symbole207_6" height="56.0" id="back" transform="matrix(1.0, 0.0, 0.0, 1.0, 0.0, 0.0)" width="56.0" xlink:href="#sprite5"/>
    </g>
    <g id="sprite5" transform="matrix(1.0, 0.0, 0.0, 1.0, 0.0, 0.0)">
      <use ffdec:characterId="7" ffdec:characterName="167_fla.Symbole204_7" height="56.0" id="back" transform="matrix(1.0, 0.0, 0.0, 1.0, 0.0, 0.0)" width="56.0" xlink:href="#sprite6"/>
    </g>
    <g id="sprite6" transform="matrix(1.0, 0.0, 0.0, 1.0, 0.0, 0.0)">
      <use ffdec:characterId="6" ffdec:characterName="167_fla.Symbole201_8" height="56.0" id="back" transform="matrix(1.0, 0.0, 0.0, 1.0, 0.0, 0.0)" width="56.0" xlink:href="#sprite7"/>
    </g>
    <g id="sprite7" transform="matrix(1.0, 0.0, 0.0, 1.0, 0.0, 0.0)">
      <use ffdec:characterId="5" ffdec:characterName="167_fla.Symbole198_9" height="56.0" id="back" transform="matrix(1.0, 0.0, 0.0, 1.0, 0.0, 0.0)" width="56.0" xlink:href="#sprite8"/>
    </g>
    <g id="sprite8" transform="matrix(1.0, 0.0, 0.0, 1.0, 0.0, 0.0)">
      <use ffdec:characterId="4" ffdec:characterName="167_fla.Symbole195_10" height="56.0" id="back" transform="matrix(1.0, 0.0, 0.0, 1.0, 0.0, 0.0)" width="56.0" xlink:href="#sprite9"/>
    </g>
    <g id="sprite9" transform="matrix(1.0, 0.0, 0.0, 1.0, 0.0, 0.0)">
      <use ffdec:characterId="3" ffdec:characterName="167_fla.Symbole192_11" height="56.0" id="back" transform="matrix(1.0, 0.0, 0.0, 1.0, 0.0, 0.0)" width="56.0" xlink:href="#sprite10"/>
    </g>
    <g id="sprite10" transform="matrix(1.0, 0.0, 0.0, 1.0, 0.0, 0.0)">
      <use ffdec:characterId="2" height="56.0" id="back" transform="matrix(1.0, 0.0, 0.0, 1.0, 0.0, 0.0)" width="56.0" xlink:href="#sprite11"/>
    </g>
    <g id="sprite11" transform="matrix(1.0, 0.0, 0.0, 1.0, 0.0, 0.0)">
      <use ffdec:characterId="1" height="56.0" transform="matrix(1.0, 0.0, 0.0, 1.0, 0.0, 0.0)" width="56.0" xlink:href="#shape0"/>
    </g>
    <g id="shape0" transform="matrix(1.0, 0.0, 0.0, 1.0, 0.0, 0.0)">
      <path d="M56.0 56.0 L0.0 56.0 0.0 0.0 56.0 0.0 56.0 56.0" fill="#010101" fill-opacity="0.0" fill-rule="evenodd" stroke="none"/>
    </g>
    <g id="sprite12" transform="matrix(1.0, 0.0, 0.0, 1.0, 0.75, 0.75)">
      <use ffdec:characterId="14" height="53.25" transform="matrix(1.0, 0.0, 0.0, 1.0, -0.75, -0.75)" width="55.35" xlink:href="#shape1"/>
    </g>
    <g id="shape1" transform="matrix(1.0, 0.0, 0.0, 1.0, 0.75, 0.75)">
      <path d="M45.1 35.9 L36.8 30.95 36.95 21.2 45.45 16.4 53.85 21.45 53.7 31.2 45.1 35.9 M44.75 15.2 L36.15 19.9 27.75 14.95 27.95 5.25 36.45 0.35 44.85 5.45 44.75 15.2 M44.25 47.25 L35.9 51.75 35.6 51.75 27.3 46.95 27.5 37.2 35.9 32.5 44.35 37.35 44.25 47.25 M35.5 21.3 L35.3 30.95 26.75 35.75 18.45 30.8 18.55 21.1 27.05 16.2 35.5 21.3 M27.0 17.7 L34.1 21.95 34.05 30.25 26.75 34.2 19.65 29.9 19.75 21.75 27.0 17.7 M26.45 14.75 L18.0 19.55 9.6 14.6 9.7 4.8 18.3 0.0 26.55 5.0 26.45 14.75 M8.7 15.7 L17.1 20.65 16.95 30.45 8.4 35.25 0.0 30.15 0.2 20.5 8.7 15.7 M17.7 32.1 L26.05 37.0 25.95 46.8 17.35 51.5 8.95 46.55 9.15 36.9 17.7 32.1 Z" fill="none" stroke="#000000" stroke-linecap="round" stroke-linejoin="round" stroke-opacity="0.2" stroke-width="1.5"/>
    </g>
    <g id="sprite13" transform="matrix(1.0, 0.0, 0.0, 1.0, 0.0, 0.0)">
      <use ffdec:characterId="16" height="51.75" transform="matrix(1.0, 0.0, 0.0, 1.0, 0.0, 0.0)" width="53.85" xlink:href="#shape2"/>
    </g>
    <g id="shape2" transform="matrix(1.0, 0.0, 0.0, 1.0, 0.0, 0.0)">
      <path d="M44.75 15.2 L36.15 19.9 27.75 14.9 27.9 5.25 36.4 0.35 44.85 5.4 44.75 15.2 M44.2 47.2 L35.9 51.75 35.55 51.75 27.3 46.95 27.45 37.2 35.9 32.5 44.3 37.35 44.2 47.2 M45.1 35.9 L36.75 30.95 36.9 21.15 45.45 16.35 53.85 21.45 53.65 31.2 45.1 35.9 M26.45 14.75 L17.95 19.55 9.6 14.6 9.7 4.8 18.3 0.0 26.55 5.0 26.45 14.75 M26.95 17.65 L19.75 21.75 19.65 29.9 26.7 34.2 34.0 30.25 34.1 21.95 26.95 17.65 M35.45 21.25 L35.3 30.95 26.7 35.75 18.45 30.75 18.55 21.1 27.05 16.2 35.45 21.25 M17.1 20.65 L16.9 30.4 8.4 35.2 0.0 30.15 0.15 20.5 8.65 15.7 17.1 20.65 M17.7 32.05 L26.0 37.0 25.95 46.8 17.35 51.5 8.9 46.55 9.1 36.85 17.7 32.05" fill="#000000" fill-rule="evenodd" stroke="none"/>
    </g>
  </defs>
</svg>
