<?xml version="1.0" encoding="UTF-8" standalone="no"?>
<svg xmlns:ffdec="https://www.free-decompiler.com/flash" xmlns:xlink="http://www.w3.org/1999/xlink" ffdec:objectType="frame" height="56.0px" width="56.0px" xmlns="http://www.w3.org/2000/svg">
  <g transform="matrix(1.0, 0.0, 0.0, 1.0, 0.0, 0.0)">
    <use ffdec:characterId="14" ffdec:characterName="168_fla.Symbole225_1" height="56.0" id="back" transform="matrix(1.0, 0.0, 0.0, 1.0, 0.0, 0.0)" width="56.0" xlink:href="#sprite0"/>
    <use ffdec:characterId="16" height="55.25" id="back" transform="matrix(1.0, 0.0, 0.0, 1.0, 0.35, 0.3)" width="55.25" xlink:href="#sprite13"/>
    <use ffdec:characterId="18" height="53.75" id="up" transform="matrix(1.0, 0.0, 0.0, 1.0, 1.1, 1.05)" width="53.75" xlink:href="#sprite14"/>
  </g>
  <defs>
    <g id="sprite0" transform="matrix(1.0, 0.0, 0.0, 1.0, 0.0, 0.0)">
      <use ffdec:characterId="13" ffdec:characterName="168_fla.Symbole222_2" height="56.0" id="back" transform="matrix(1.0, 0.0, 0.0, 1.0, 0.0, 0.0)" width="56.0" xlink:href="#sprite1"/>
    </g>
    <g id="sprite1" transform="matrix(1.0, 0.0, 0.0, 1.0, 0.0, 0.0)">
      <use ffdec:characterId="12" ffdec:characterName="168_fla.Symbole219_3" height="56.0" id="back" transform="matrix(1.0, 0.0, 0.0, 1.0, 0.0, 0.0)" width="56.0" xlink:href="#sprite2"/>
    </g>
    <g id="sprite2" transform="matrix(1.0, 0.0, 0.0, 1.0, 0.0, 0.0)">
      <use ffdec:characterId="11" ffdec:characterName="168_fla.Symbole216_4" height="56.0" id="back" transform="matrix(1.0, 0.0, 0.0, 1.0, 0.0, 0.0)" width="56.0" xlink:href="#sprite3"/>
    </g>
    <g id="sprite3" transform="matrix(1.0, 0.0, 0.0, 1.0, 0.0, 0.0)">
      <use ffdec:characterId="10" ffdec:characterName="168_fla.Symbole213_5" height="56.0" id="back" transform="matrix(1.0, 0.0, 0.0, 1.0, 0.0, 0.0)" width="56.0" xlink:href="#sprite4"/>
    </g>
    <g id="sprite4" transform="matrix(1.0, 0.0, 0.0, 1.0, 0.0, 0.0)">
      <use ffdec:characterId="9" ffdec:characterName="168_fla.Symbole210_6" height="56.0" id="back" transform="matrix(1.0, 0.0, 0.0, 1.0, 0.0, 0.0)" width="56.0" xlink:href="#sprite5"/>
    </g>
    <g id="sprite5" transform="matrix(1.0, 0.0, 0.0, 1.0, 0.0, 0.0)">
      <use ffdec:characterId="8" ffdec:characterName="168_fla.Symbole207_7" height="56.0" id="back" transform="matrix(1.0, 0.0, 0.0, 1.0, 0.0, 0.0)" width="56.0" xlink:href="#sprite6"/>
    </g>
    <g id="sprite6" transform="matrix(1.0, 0.0, 0.0, 1.0, 0.0, 0.0)">
      <use ffdec:characterId="7" ffdec:characterName="168_fla.Symbole204_8" height="56.0" id="back" transform="matrix(1.0, 0.0, 0.0, 1.0, 0.0, 0.0)" width="56.0" xlink:href="#sprite7"/>
    </g>
    <g id="sprite7" transform="matrix(1.0, 0.0, 0.0, 1.0, 0.0, 0.0)">
      <use ffdec:characterId="6" ffdec:characterName="168_fla.Symbole201_9" height="56.0" id="back" transform="matrix(1.0, 0.0, 0.0, 1.0, 0.0, 0.0)" width="56.0" xlink:href="#sprite8"/>
    </g>
    <g id="sprite8" transform="matrix(1.0, 0.0, 0.0, 1.0, 0.0, 0.0)">
      <use ffdec:characterId="5" ffdec:characterName="168_fla.Symbole198_10" height="56.0" id="back" transform="matrix(1.0, 0.0, 0.0, 1.0, 0.0, 0.0)" width="56.0" xlink:href="#sprite9"/>
    </g>
    <g id="sprite9" transform="matrix(1.0, 0.0, 0.0, 1.0, 0.0, 0.0)">
      <use ffdec:characterId="4" ffdec:characterName="168_fla.Symbole195_11" height="56.0" id="back" transform="matrix(1.0, 0.0, 0.0, 1.0, 0.0, 0.0)" width="56.0" xlink:href="#sprite10"/>
    </g>
    <g id="sprite10" transform="matrix(1.0, 0.0, 0.0, 1.0, 0.0, 0.0)">
      <use ffdec:characterId="3" ffdec:characterName="168_fla.Symbole192_12" height="56.0" id="back" transform="matrix(1.0, 0.0, 0.0, 1.0, 0.0, 0.0)" width="56.0" xlink:href="#sprite11"/>
    </g>
    <g id="sprite11" transform="matrix(1.0, 0.0, 0.0, 1.0, 0.0, 0.0)">
      <use ffdec:characterId="2" height="56.0" id="back" transform="matrix(1.0, 0.0, 0.0, 1.0, 0.0, 0.0)" width="56.0" xlink:href="#sprite12"/>
    </g>
    <g id="sprite12" transform="matrix(1.0, 0.0, 0.0, 1.0, 0.0, 0.0)">
      <use ffdec:characterId="1" height="56.0" transform="matrix(1.0, 0.0, 0.0, 1.0, 0.0, 0.0)" width="56.0" xlink:href="#shape0"/>
    </g>
    <g id="shape0" transform="matrix(1.0, 0.0, 0.0, 1.0, 0.0, 0.0)">
      <path d="M56.0 56.0 L0.0 56.0 0.0 0.0 56.0 0.0 56.0 56.0" fill="#010101" fill-opacity="0.0" fill-rule="evenodd" stroke="none"/>
    </g>
    <g id="sprite13" transform="matrix(1.0, 0.0, 0.0, 1.0, 0.75, 0.75)">
      <use ffdec:characterId="15" height="55.25" transform="matrix(1.0, 0.0, 0.0, 1.0, -0.75, -0.75)" width="55.25" xlink:href="#shape1"/>
    </g>
    <g id="shape1" transform="matrix(1.0, 0.0, 0.0, 1.0, 0.75, 0.75)">
      <path d="M45.85 25.3 Q45.05 25.3 44.55 25.85 43.85 26.5 43.85 27.3 43.85 28.05 44.55 28.65 45.05 29.3 45.85 29.3 L53.65 29.3 Q52.85 38.9 45.85 45.9 38.35 53.3 28.2 53.75 L28.3 44.65 Q28.3 43.8 27.8 43.2 27.1 42.6 26.45 42.6 25.55 42.6 25.0 43.2 24.45 43.75 24.45 44.65 L24.3 53.7 Q14.8 52.9 7.8 45.9 0.75 38.9 0.05 29.3 L9.15 29.3 Q9.95 29.3 10.6 28.65 11.15 28.05 11.15 27.3 11.15 26.5 10.6 25.85 9.95 25.3 9.15 25.3 L0.0 25.3 Q0.55 15.1 7.8 7.8 14.8 0.95 24.3 0.1 L24.45 8.05 Q24.45 8.8 25.0 9.4 25.65 9.9 26.45 9.9 27.1 9.9 27.8 9.25 28.3 8.7 28.3 7.8 L28.2 0.0 Q38.35 0.5 45.85 7.8 53.1 15.1 53.75 25.3 L45.85 25.3 Z" fill="none" stroke="#000000" stroke-linecap="round" stroke-linejoin="round" stroke-opacity="0.2" stroke-width="1.5"/>
    </g>
    <g id="sprite14" transform="matrix(1.0, 0.0, 0.0, 1.0, 0.0, 0.0)">
      <use ffdec:characterId="17" height="53.75" transform="matrix(1.0, 0.0, 0.0, 1.0, 0.0, 0.0)" width="53.75" xlink:href="#shape2"/>
    </g>
    <g id="shape2" transform="matrix(1.0, 0.0, 0.0, 1.0, 0.0, 0.0)">
      <path d="M44.55 25.85 Q43.9 26.5 43.9 27.3 43.9 28.0 44.55 28.65 45.1 29.25 45.9 29.25 L53.7 29.25 Q52.9 38.9 45.9 45.9 38.4 53.3 28.2 53.75 L28.35 44.6 Q28.35 43.8 27.8 43.2 27.15 42.65 26.45 42.65 25.55 42.65 25.0 43.2 24.45 43.75 24.45 44.6 L24.3 53.7 Q14.8 52.9 7.8 45.9 0.8 38.9 0.1 29.25 L9.15 29.25 Q9.95 29.25 10.6 28.65 11.15 28.0 11.15 27.3 11.15 26.5 10.6 25.85 9.95 25.3 9.15 25.3 L0.0 25.3 Q0.55 15.1 7.8 7.8 14.8 0.95 24.3 0.1 L24.45 8.05 Q24.45 8.75 25.0 9.4 25.65 9.85 26.45 9.85 27.15 9.85 27.8 9.25 28.35 8.65 28.35 7.8 L28.2 0.0 Q38.4 0.5 45.9 7.8 53.15 15.1 53.75 25.3 L45.9 25.3 Q45.1 25.3 44.55 25.85" fill="#000000" fill-rule="evenodd" stroke="none"/>
    </g>
  </defs>
</svg>
