<?xml version="1.0" encoding="UTF-8" standalone="no"?>
<svg xmlns:ffdec="https://www.free-decompiler.com/flash" xmlns:xlink="http://www.w3.org/1999/xlink" ffdec:objectType="frame" height="56.0px" width="56.0px" xmlns="http://www.w3.org/2000/svg">
  <g transform="matrix(1.0, 0.0, 0.0, 1.0, 0.0, 0.0)">
    <use ffdec:characterId="15" ffdec:characterName="169_fla.Symbole228_1" height="56.0" id="back" transform="matrix(1.0, 0.0, 0.0, 1.0, 0.0, 0.0)" width="56.0" xlink:href="#sprite0"/>
    <use ffdec:characterId="17" height="55.25" id="back" transform="matrix(1.0, 0.0, 0.0, 1.0, 0.35, 0.45)" width="54.8" xlink:href="#sprite14"/>
    <use ffdec:characterId="19" height="53.75" id="up" transform="matrix(1.0, 0.0, 0.0, 1.0, 1.15, 1.25)" width="53.2" xlink:href="#sprite15"/>
  </g>
  <defs>
    <g id="sprite0" transform="matrix(1.0, 0.0, 0.0, 1.0, 0.0, 0.0)">
      <use ffdec:characterId="14" ffdec:characterName="169_fla.Symbole225_2" height="56.0" id="back" transform="matrix(1.0, 0.0, 0.0, 1.0, 0.0, 0.0)" width="56.0" xlink:href="#sprite1"/>
    </g>
    <g id="sprite1" transform="matrix(1.0, 0.0, 0.0, 1.0, 0.0, 0.0)">
      <use ffdec:characterId="13" ffdec:characterName="169_fla.Symbole222_3" height="56.0" id="back" transform="matrix(1.0, 0.0, 0.0, 1.0, 0.0, 0.0)" width="56.0" xlink:href="#sprite2"/>
    </g>
    <g id="sprite2" transform="matrix(1.0, 0.0, 0.0, 1.0, 0.0, 0.0)">
      <use ffdec:characterId="12" ffdec:characterName="169_fla.Symbole219_4" height="56.0" id="back" transform="matrix(1.0, 0.0, 0.0, 1.0, 0.0, 0.0)" width="56.0" xlink:href="#sprite3"/>
    </g>
    <g id="sprite3" transform="matrix(1.0, 0.0, 0.0, 1.0, 0.0, 0.0)">
      <use ffdec:characterId="11" ffdec:characterName="169_fla.Symbole216_5" height="56.0" id="back" transform="matrix(1.0, 0.0, 0.0, 1.0, 0.0, 0.0)" width="56.0" xlink:href="#sprite4"/>
    </g>
    <g id="sprite4" transform="matrix(1.0, 0.0, 0.0, 1.0, 0.0, 0.0)">
      <use ffdec:characterId="10" ffdec:characterName="169_fla.Symbole213_6" height="56.0" id="back" transform="matrix(1.0, 0.0, 0.0, 1.0, 0.0, 0.0)" width="56.0" xlink:href="#sprite5"/>
    </g>
    <g id="sprite5" transform="matrix(1.0, 0.0, 0.0, 1.0, 0.0, 0.0)">
      <use ffdec:characterId="9" ffdec:characterName="169_fla.Symbole210_7" height="56.0" id="back" transform="matrix(1.0, 0.0, 0.0, 1.0, 0.0, 0.0)" width="56.0" xlink:href="#sprite6"/>
    </g>
    <g id="sprite6" transform="matrix(1.0, 0.0, 0.0, 1.0, 0.0, 0.0)">
      <use ffdec:characterId="8" ffdec:characterName="169_fla.Symbole207_8" height="56.0" id="back" transform="matrix(1.0, 0.0, 0.0, 1.0, 0.0, 0.0)" width="56.0" xlink:href="#sprite7"/>
    </g>
    <g id="sprite7" transform="matrix(1.0, 0.0, 0.0, 1.0, 0.0, 0.0)">
      <use ffdec:characterId="7" ffdec:characterName="169_fla.Symbole204_9" height="56.0" id="back" transform="matrix(1.0, 0.0, 0.0, 1.0, 0.0, 0.0)" width="56.0" xlink:href="#sprite8"/>
    </g>
    <g id="sprite8" transform="matrix(1.0, 0.0, 0.0, 1.0, 0.0, 0.0)">
      <use ffdec:characterId="6" ffdec:characterName="169_fla.Symbole201_10" height="56.0" id="back" transform="matrix(1.0, 0.0, 0.0, 1.0, 0.0, 0.0)" width="56.0" xlink:href="#sprite9"/>
    </g>
    <g id="sprite9" transform="matrix(1.0, 0.0, 0.0, 1.0, 0.0, 0.0)">
      <use ffdec:characterId="5" ffdec:characterName="169_fla.Symbole198_11" height="56.0" id="back" transform="matrix(1.0, 0.0, 0.0, 1.0, 0.0, 0.0)" width="56.0" xlink:href="#sprite10"/>
    </g>
    <g id="sprite10" transform="matrix(1.0, 0.0, 0.0, 1.0, 0.0, 0.0)">
      <use ffdec:characterId="4" ffdec:characterName="169_fla.Symbole195_12" height="56.0" id="back" transform="matrix(1.0, 0.0, 0.0, 1.0, 0.0, 0.0)" width="56.0" xlink:href="#sprite11"/>
    </g>
    <g id="sprite11" transform="matrix(1.0, 0.0, 0.0, 1.0, 0.0, 0.0)">
      <use ffdec:characterId="3" ffdec:characterName="169_fla.Symbole192_13" height="56.0" id="back" transform="matrix(1.0, 0.0, 0.0, 1.0, 0.0, 0.0)" width="56.0" xlink:href="#sprite12"/>
    </g>
    <g id="sprite12" transform="matrix(1.0, 0.0, 0.0, 1.0, 0.0, 0.0)">
      <use ffdec:characterId="2" height="56.0" id="back" transform="matrix(1.0, 0.0, 0.0, 1.0, 0.0, 0.0)" width="56.0" xlink:href="#sprite13"/>
    </g>
    <g id="sprite13" transform="matrix(1.0, 0.0, 0.0, 1.0, 0.0, 0.0)">
      <use ffdec:characterId="1" height="56.0" transform="matrix(1.0, 0.0, 0.0, 1.0, 0.0, 0.0)" width="56.0" xlink:href="#shape0"/>
    </g>
    <g id="shape0" transform="matrix(1.0, 0.0, 0.0, 1.0, 0.0, 0.0)">
      <path d="M56.0 56.0 L0.0 56.0 0.0 0.0 56.0 0.0 56.0 56.0" fill="#010101" fill-opacity="0.0" fill-rule="evenodd" stroke="none"/>
    </g>
    <g id="sprite14" transform="matrix(1.0, 0.0, 0.0, 1.0, 0.75, 0.75)">
      <use ffdec:characterId="16" height="55.25" transform="matrix(1.0, 0.0, 0.0, 1.0, -0.75, -0.75)" width="54.8" xlink:href="#shape1"/>
    </g>
    <g id="shape1" transform="matrix(1.0, 0.0, 0.0, 1.0, 0.75, 0.75)">
      <path d="M53.3 16.75 Q45.7 10.2 35.05 11.75 L34.95 9.15 33.45 9.1 33.55 38.5 33.2 39.15 32.45 39.35 31.8 39.65 31.35 39.65 30.3 39.65 29.45 39.65 28.4 39.15 27.95 38.1 27.95 37.85 27.95 9.2 26.3 9.2 26.4 11.8 Q15.5 10.4 8.25 16.95 L8.25 16.8 Q8.95 14.5 13.45 10.9 17.9 7.1 22.1 5.85 26.2 4.45 26.5 0.05 L26.3 6.35 27.8 6.4 27.8 3.7 Q27.75 2.9 28.2 2.35 L29.15 1.8 30.2 1.8 31.05 1.8 31.65 1.8 32.15 1.85 Q32.75 2.0 32.9 2.3 L33.35 2.8 33.45 6.25 34.9 6.35 34.75 0.0 Q35.1 4.3 39.25 5.6 43.35 7.0 47.85 10.6 52.15 14.1 53.05 16.45 L53.3 16.75 M45.0 36.95 Q44.25 39.15 39.75 42.85 35.4 46.65 31.05 47.9 27.0 49.3 26.8 53.75 L26.85 47.25 25.4 47.25 25.4 50.05 Q25.45 50.8 24.95 51.3 24.6 51.7 24.05 51.95 L23.1 51.9 22.1 51.95 21.65 51.9 21.0 51.85 20.4 51.3 19.8 50.75 19.8 47.25 18.35 47.35 18.25 47.55 18.5 53.7 Q18.2 49.4 14.05 48.15 9.7 46.75 5.3 43.05 0.95 39.6 0.05 37.15 L0.0 37.0 Q7.55 43.5 18.2 42.0 L18.25 44.6 19.8 44.6 19.65 15.2 20.1 14.5 20.7 14.15 21.4 14.0 21.9 14.1 22.9 14.1 23.85 14.1 24.9 14.6 25.3 15.65 25.3 44.55 26.95 44.45 26.85 41.9 Q37.7 43.15 45.0 36.7 L45.0 36.95 Z" fill="none" stroke="#000000" stroke-linecap="round" stroke-linejoin="round" stroke-opacity="0.2" stroke-width="1.5"/>
    </g>
    <g id="sprite15" transform="matrix(1.0, 0.0, 0.0, 1.0, 0.0, 0.0)">
      <use ffdec:characterId="18" height="53.75" transform="matrix(1.0, 0.0, 0.0, 1.0, 0.0, 0.0)" width="53.2" xlink:href="#shape2"/>
    </g>
    <g id="shape2" transform="matrix(1.0, 0.0, 0.0, 1.0, 0.0, 0.0)">
      <path d="M44.9 36.9 Q44.15 39.15 39.7 42.85 35.3 46.65 31.0 47.9 26.9 49.3 26.7 53.75 L26.75 47.25 25.3 47.25 25.3 50.05 Q25.4 50.8 24.9 51.3 L24.0 51.95 23.0 51.85 22.05 51.95 21.55 51.85 20.9 51.8 20.3 51.3 19.75 50.75 19.75 47.25 18.3 47.35 18.2 47.55 18.4 53.65 Q18.15 49.35 13.95 48.1 9.65 46.7 5.2 43.05 0.9 39.55 0.0 37.15 L0.0 37.1 Q7.55 43.45 18.15 42.0 L18.2 44.55 19.75 44.55 19.6 15.2 20.0 14.5 20.65 14.15 21.35 14.0 21.85 14.05 22.8 14.05 23.8 14.05 24.8 14.55 25.25 15.6 25.25 44.5 26.85 44.4 26.75 41.85 Q37.6 43.1 44.9 36.7 L44.9 36.9 M53.2 16.7 Q45.6 10.2 34.95 11.7 L34.9 9.15 33.4 9.05 33.5 38.45 33.1 39.15 32.4 39.35 31.7 39.65 31.3 39.65 30.25 39.65 29.35 39.65 28.35 39.15 Q27.95 38.6 27.9 38.1 L27.9 37.85 27.9 9.2 26.2 9.2 26.35 11.8 Q15.45 10.4 8.2 16.9 L8.2 16.8 Q8.9 14.5 13.4 10.9 17.8 7.05 22.05 5.8 26.15 4.4 26.4 0.05 L26.2 6.3 27.75 6.35 27.75 3.65 Q27.65 2.9 28.1 2.35 L29.05 1.8 30.1 1.8 31.0 1.8 31.55 1.8 32.1 1.85 Q32.7 2.0 32.8 2.25 L33.3 2.75 33.4 6.25 34.85 6.3 34.7 0.0 Q35.05 4.3 39.15 5.6 43.3 7.0 47.75 10.6 52.1 14.05 53.0 16.45 L53.2 16.7" fill="#000000" fill-rule="evenodd" stroke="none"/>
    </g>
  </defs>
</svg>
