<?xml version="1.0" encoding="UTF-8" standalone="no"?>
<svg xmlns:ffdec="https://www.free-decompiler.com/flash" xmlns:xlink="http://www.w3.org/1999/xlink" ffdec:objectType="frame" height="56.0px" width="56.0px" xmlns="http://www.w3.org/2000/svg">
  <g transform="matrix(1.0, 0.0, 0.0, 1.0, 0.0, 0.0)">
    <use ffdec:characterId="16" ffdec:characterName="170_fla.Symbole231_1" height="56.0" id="back" transform="matrix(1.0, 0.0, 0.0, 1.0, 0.0, 0.0)" width="56.0" xlink:href="#sprite0"/>
    <use ffdec:characterId="18" height="55.25" id="back" transform="matrix(1.0, 0.0, 0.0, 1.0, 9.65, 0.3)" width="37.5" xlink:href="#sprite15"/>
    <use ffdec:characterId="20" height="53.75" id="up" transform="matrix(1.0, 0.0, 0.0, 1.0, 10.4, 1.05)" width="36.0" xlink:href="#sprite16"/>
  </g>
  <defs>
    <g id="sprite0" transform="matrix(1.0, 0.0, 0.0, 1.0, 0.0, 0.0)">
      <use ffdec:characterId="15" ffdec:characterName="170_fla.Symbole228_2" height="56.0" id="back" transform="matrix(1.0, 0.0, 0.0, 1.0, 0.0, 0.0)" width="56.0" xlink:href="#sprite1"/>
    </g>
    <g id="sprite1" transform="matrix(1.0, 0.0, 0.0, 1.0, 0.0, 0.0)">
      <use ffdec:characterId="14" ffdec:characterName="170_fla.Symbole225_3" height="56.0" id="back" transform="matrix(1.0, 0.0, 0.0, 1.0, 0.0, 0.0)" width="56.0" xlink:href="#sprite2"/>
    </g>
    <g id="sprite2" transform="matrix(1.0, 0.0, 0.0, 1.0, 0.0, 0.0)">
      <use ffdec:characterId="13" ffdec:characterName="170_fla.Symbole222_4" height="56.0" id="back" transform="matrix(1.0, 0.0, 0.0, 1.0, 0.0, 0.0)" width="56.0" xlink:href="#sprite3"/>
    </g>
    <g id="sprite3" transform="matrix(1.0, 0.0, 0.0, 1.0, 0.0, 0.0)">
      <use ffdec:characterId="12" ffdec:characterName="170_fla.Symbole219_5" height="56.0" id="back" transform="matrix(1.0, 0.0, 0.0, 1.0, 0.0, 0.0)" width="56.0" xlink:href="#sprite4"/>
    </g>
    <g id="sprite4" transform="matrix(1.0, 0.0, 0.0, 1.0, 0.0, 0.0)">
      <use ffdec:characterId="11" ffdec:characterName="170_fla.Symbole216_6" height="56.0" id="back" transform="matrix(1.0, 0.0, 0.0, 1.0, 0.0, 0.0)" width="56.0" xlink:href="#sprite5"/>
    </g>
    <g id="sprite5" transform="matrix(1.0, 0.0, 0.0, 1.0, 0.0, 0.0)">
      <use ffdec:characterId="10" ffdec:characterName="170_fla.Symbole213_7" height="56.0" id="back" transform="matrix(1.0, 0.0, 0.0, 1.0, 0.0, 0.0)" width="56.0" xlink:href="#sprite6"/>
    </g>
    <g id="sprite6" transform="matrix(1.0, 0.0, 0.0, 1.0, 0.0, 0.0)">
      <use ffdec:characterId="9" ffdec:characterName="170_fla.Symbole210_8" height="56.0" id="back" transform="matrix(1.0, 0.0, 0.0, 1.0, 0.0, 0.0)" width="56.0" xlink:href="#sprite7"/>
    </g>
    <g id="sprite7" transform="matrix(1.0, 0.0, 0.0, 1.0, 0.0, 0.0)">
      <use ffdec:characterId="8" ffdec:characterName="170_fla.Symbole207_9" height="56.0" id="back" transform="matrix(1.0, 0.0, 0.0, 1.0, 0.0, 0.0)" width="56.0" xlink:href="#sprite8"/>
    </g>
    <g id="sprite8" transform="matrix(1.0, 0.0, 0.0, 1.0, 0.0, 0.0)">
      <use ffdec:characterId="7" ffdec:characterName="170_fla.Symbole204_10" height="56.0" id="back" transform="matrix(1.0, 0.0, 0.0, 1.0, 0.0, 0.0)" width="56.0" xlink:href="#sprite9"/>
    </g>
    <g id="sprite9" transform="matrix(1.0, 0.0, 0.0, 1.0, 0.0, 0.0)">
      <use ffdec:characterId="6" ffdec:characterName="170_fla.Symbole201_11" height="56.0" id="back" transform="matrix(1.0, 0.0, 0.0, 1.0, 0.0, 0.0)" width="56.0" xlink:href="#sprite10"/>
    </g>
    <g id="sprite10" transform="matrix(1.0, 0.0, 0.0, 1.0, 0.0, 0.0)">
      <use ffdec:characterId="5" ffdec:characterName="170_fla.Symbole198_12" height="56.0" id="back" transform="matrix(1.0, 0.0, 0.0, 1.0, 0.0, 0.0)" width="56.0" xlink:href="#sprite11"/>
    </g>
    <g id="sprite11" transform="matrix(1.0, 0.0, 0.0, 1.0, 0.0, 0.0)">
      <use ffdec:characterId="4" ffdec:characterName="170_fla.Symbole195_13" height="56.0" id="back" transform="matrix(1.0, 0.0, 0.0, 1.0, 0.0, 0.0)" width="56.0" xlink:href="#sprite12"/>
    </g>
    <g id="sprite12" transform="matrix(1.0, 0.0, 0.0, 1.0, 0.0, 0.0)">
      <use ffdec:characterId="3" ffdec:characterName="170_fla.Symbole192_14" height="56.0" id="back" transform="matrix(1.0, 0.0, 0.0, 1.0, 0.0, 0.0)" width="56.0" xlink:href="#sprite13"/>
    </g>
    <g id="sprite13" transform="matrix(1.0, 0.0, 0.0, 1.0, 0.0, 0.0)">
      <use ffdec:characterId="2" height="56.0" id="back" transform="matrix(1.0, 0.0, 0.0, 1.0, 0.0, 0.0)" width="56.0" xlink:href="#sprite14"/>
    </g>
    <g id="sprite14" transform="matrix(1.0, 0.0, 0.0, 1.0, 0.0, 0.0)">
      <use ffdec:characterId="1" height="56.0" transform="matrix(1.0, 0.0, 0.0, 1.0, 0.0, 0.0)" width="56.0" xlink:href="#shape0"/>
    </g>
    <g id="shape0" transform="matrix(1.0, 0.0, 0.0, 1.0, 0.0, 0.0)">
      <path d="M56.0 56.0 L0.0 56.0 0.0 0.0 56.0 0.0 56.0 56.0" fill="#010101" fill-opacity="0.0" fill-rule="evenodd" stroke="none"/>
    </g>
    <g id="sprite15" transform="matrix(1.0, 0.0, 0.0, 1.0, 0.75, 0.75)">
      <use ffdec:characterId="17" height="55.25" transform="matrix(1.0, 0.0, 0.0, 1.0, -0.75, -0.75)" width="37.5" xlink:href="#shape1"/>
    </g>
    <g id="shape1" transform="matrix(1.0, 0.0, 0.0, 1.0, 0.75, 0.75)">
      <path d="M32.4 0.0 L29.3 0.0 29.3 1.35 6.45 1.35 6.45 0.0 3.3 0.0 3.3 1.35 1.55 1.35 1.4 1.35 1.4 1.5 1.4 5.6 1.4 5.75 1.55 5.85 33.95 5.85 34.1 5.75 34.15 5.6 34.15 1.5 34.1 1.35 33.95 1.35 32.4 1.35 32.4 0.0 M35.9 47.2 L35.75 47.2 0.15 47.2 0.05 47.2 0.05 47.3 0.05 51.9 0.05 52.05 0.15 52.1 4.0 52.1 4.0 53.65 7.75 53.65 7.75 52.1 28.1 52.1 28.1 53.75 31.8 53.75 31.8 52.1 35.75 52.1 35.9 52.05 36.0 51.9 36.0 47.3 35.9 47.2 M10.7 21.0 Q5.5 17.95 5.6 7.2 L18.15 7.2 30.4 7.2 Q30.5 12.45 29.4 15.85 L29.15 16.25 Q27.9 19.55 25.3 21.0 23.2 22.15 22.15 23.4 21.25 24.75 21.25 26.5 21.25 28.2 22.15 29.5 L23.5 30.85 25.3 32.0 26.8 33.1 Q30.65 36.55 30.4 45.7 L17.9 45.7 5.6 45.7 Q5.5 37.05 8.9 33.5 L10.7 32.0 10.95 31.85 Q12.95 30.7 13.85 29.5 14.85 28.2 14.95 26.5 14.85 24.75 13.85 23.4 12.8 22.15 10.7 21.0 M27.75 15.45 Q23.2 18.2 17.9 19.55 15.05 14.3 8.1 13.3 7.4 11.95 7.4 9.0 L28.7 9.0 Q28.8 12.1 27.75 15.45 M22.5 31.85 Q20.6 30.55 20.0 28.25 17.9 27.65 16.35 25.25 16.9 28.05 15.25 30.35 L14.3 31.2 11.7 32.95 Q10.5 33.85 9.9 34.7 19.1 34.35 27.2 36.55 26.85 35.35 25.75 34.2 24.6 33.1 22.65 31.95 L22.5 31.85 Z" fill="none" stroke="#000000" stroke-linecap="round" stroke-linejoin="round" stroke-opacity="0.2" stroke-width="1.5"/>
    </g>
    <g id="sprite16" transform="matrix(1.0, 0.0, 0.0, 1.0, 0.0, 0.0)">
      <use ffdec:characterId="19" height="53.75" transform="matrix(1.0, 0.0, 0.0, 1.0, 0.0, 0.0)" width="36.0" xlink:href="#shape2"/>
    </g>
    <g id="shape2" transform="matrix(1.0, 0.0, 0.0, 1.0, 0.0, 0.0)">
      <path d="M27.75 15.45 Q28.8 12.1 28.7 9.0 L7.4 9.0 Q7.4 11.95 8.1 13.3 15.05 14.3 17.9 19.55 23.2 18.2 27.75 15.45 M35.75 47.2 L35.9 47.2 36.0 47.3 36.0 51.9 35.9 52.05 35.75 52.1 31.8 52.1 31.8 53.75 28.1 53.75 28.1 52.1 7.75 52.1 7.75 53.65 4.0 53.65 4.0 52.1 0.15 52.1 0.05 52.05 0.05 51.9 0.05 47.3 0.05 47.2 0.15 47.2 35.75 47.2 M32.4 1.35 L33.95 1.35 34.1 1.35 34.15 1.5 34.15 5.6 34.1 5.75 33.95 5.85 1.55 5.85 1.4 5.75 1.4 5.6 1.4 1.5 1.4 1.35 1.55 1.35 3.3 1.35 3.3 0.0 6.45 0.0 6.45 1.35 29.3 1.35 29.3 0.0 32.4 0.0 32.4 1.35 M10.7 21.0 Q5.5 17.95 5.6 7.2 L18.15 7.2 30.4 7.2 Q30.5 12.45 29.4 15.85 L29.15 16.25 Q27.9 19.55 25.3 21.0 23.2 22.15 22.15 23.4 21.25 24.75 21.25 26.5 21.25 28.2 22.15 29.5 L23.5 30.85 25.3 32.0 26.8 33.1 Q30.65 36.55 30.4 45.7 L17.9 45.7 5.6 45.7 Q5.5 37.05 8.9 33.5 L10.7 32.0 10.95 31.85 Q12.95 30.7 13.85 29.5 14.85 28.2 14.95 26.5 14.85 24.75 13.85 23.4 12.8 22.15 10.7 21.0 M22.5 31.85 Q20.6 30.55 20.0 28.25 17.9 27.65 16.35 25.25 16.9 28.05 15.25 30.35 L14.3 31.2 11.7 32.95 Q10.5 33.85 9.9 34.7 19.1 34.35 27.2 36.55 26.85 35.35 25.75 34.2 24.6 33.1 22.65 31.95 L22.5 31.85" fill="#000000" fill-rule="evenodd" stroke="none"/>
    </g>
  </defs>
</svg>
