<?xml version="1.0" encoding="UTF-8" standalone="no"?>
<svg xmlns:ffdec="https://www.free-decompiler.com/flash" xmlns:xlink="http://www.w3.org/1999/xlink" ffdec:objectType="frame" height="56.0px" width="56.0px" xmlns="http://www.w3.org/2000/svg">
  <g transform="matrix(1.0, 0.0, 0.0, 1.0, 0.0, 0.0)">
    <use ffdec:characterId="17" ffdec:characterName="171_fla.Symbole234_1" height="56.0" id="back" transform="matrix(1.0, 0.0, 0.0, 1.0, 0.0, 0.0)" width="56.0" xlink:href="#sprite0"/>
    <use ffdec:characterId="19" height="55.25" id="back" transform="matrix(1.0, 0.0, 0.0, 1.0, 2.25, 0.3)" width="51.0" xlink:href="#sprite16"/>
    <use ffdec:characterId="21" height="53.75" id="up" transform="matrix(1.0, 0.0, 0.0, 1.0, 3.0, 1.05)" width="49.5" xlink:href="#sprite17"/>
  </g>
  <defs>
    <g id="sprite0" transform="matrix(1.0, 0.0, 0.0, 1.0, 0.0, 0.0)">
      <use ffdec:characterId="16" ffdec:characterName="171_fla.Symbole231_2" height="56.0" id="back" transform="matrix(1.0, 0.0, 0.0, 1.0, 0.0, 0.0)" width="56.0" xlink:href="#sprite1"/>
    </g>
    <g id="sprite1" transform="matrix(1.0, 0.0, 0.0, 1.0, 0.0, 0.0)">
      <use ffdec:characterId="15" ffdec:characterName="171_fla.Symbole228_3" height="56.0" id="back" transform="matrix(1.0, 0.0, 0.0, 1.0, 0.0, 0.0)" width="56.0" xlink:href="#sprite2"/>
    </g>
    <g id="sprite2" transform="matrix(1.0, 0.0, 0.0, 1.0, 0.0, 0.0)">
      <use ffdec:characterId="14" ffdec:characterName="171_fla.Symbole225_4" height="56.0" id="back" transform="matrix(1.0, 0.0, 0.0, 1.0, 0.0, 0.0)" width="56.0" xlink:href="#sprite3"/>
    </g>
    <g id="sprite3" transform="matrix(1.0, 0.0, 0.0, 1.0, 0.0, 0.0)">
      <use ffdec:characterId="13" ffdec:characterName="171_fla.Symbole222_5" height="56.0" id="back" transform="matrix(1.0, 0.0, 0.0, 1.0, 0.0, 0.0)" width="56.0" xlink:href="#sprite4"/>
    </g>
    <g id="sprite4" transform="matrix(1.0, 0.0, 0.0, 1.0, 0.0, 0.0)">
      <use ffdec:characterId="12" ffdec:characterName="171_fla.Symbole219_6" height="56.0" id="back" transform="matrix(1.0, 0.0, 0.0, 1.0, 0.0, 0.0)" width="56.0" xlink:href="#sprite5"/>
    </g>
    <g id="sprite5" transform="matrix(1.0, 0.0, 0.0, 1.0, 0.0, 0.0)">
      <use ffdec:characterId="11" ffdec:characterName="171_fla.Symbole216_7" height="56.0" id="back" transform="matrix(1.0, 0.0, 0.0, 1.0, 0.0, 0.0)" width="56.0" xlink:href="#sprite6"/>
    </g>
    <g id="sprite6" transform="matrix(1.0, 0.0, 0.0, 1.0, 0.0, 0.0)">
      <use ffdec:characterId="10" ffdec:characterName="171_fla.Symbole213_8" height="56.0" id="back" transform="matrix(1.0, 0.0, 0.0, 1.0, 0.0, 0.0)" width="56.0" xlink:href="#sprite7"/>
    </g>
    <g id="sprite7" transform="matrix(1.0, 0.0, 0.0, 1.0, 0.0, 0.0)">
      <use ffdec:characterId="9" ffdec:characterName="171_fla.Symbole210_9" height="56.0" id="back" transform="matrix(1.0, 0.0, 0.0, 1.0, 0.0, 0.0)" width="56.0" xlink:href="#sprite8"/>
    </g>
    <g id="sprite8" transform="matrix(1.0, 0.0, 0.0, 1.0, 0.0, 0.0)">
      <use ffdec:characterId="8" ffdec:characterName="171_fla.Symbole207_10" height="56.0" id="back" transform="matrix(1.0, 0.0, 0.0, 1.0, 0.0, 0.0)" width="56.0" xlink:href="#sprite9"/>
    </g>
    <g id="sprite9" transform="matrix(1.0, 0.0, 0.0, 1.0, 0.0, 0.0)">
      <use ffdec:characterId="7" ffdec:characterName="171_fla.Symbole204_11" height="56.0" id="back" transform="matrix(1.0, 0.0, 0.0, 1.0, 0.0, 0.0)" width="56.0" xlink:href="#sprite10"/>
    </g>
    <g id="sprite10" transform="matrix(1.0, 0.0, 0.0, 1.0, 0.0, 0.0)">
      <use ffdec:characterId="6" ffdec:characterName="171_fla.Symbole201_12" height="56.0" id="back" transform="matrix(1.0, 0.0, 0.0, 1.0, 0.0, 0.0)" width="56.0" xlink:href="#sprite11"/>
    </g>
    <g id="sprite11" transform="matrix(1.0, 0.0, 0.0, 1.0, 0.0, 0.0)">
      <use ffdec:characterId="5" ffdec:characterName="171_fla.Symbole198_13" height="56.0" id="back" transform="matrix(1.0, 0.0, 0.0, 1.0, 0.0, 0.0)" width="56.0" xlink:href="#sprite12"/>
    </g>
    <g id="sprite12" transform="matrix(1.0, 0.0, 0.0, 1.0, 0.0, 0.0)">
      <use ffdec:characterId="4" ffdec:characterName="171_fla.Symbole195_14" height="56.0" id="back" transform="matrix(1.0, 0.0, 0.0, 1.0, 0.0, 0.0)" width="56.0" xlink:href="#sprite13"/>
    </g>
    <g id="sprite13" transform="matrix(1.0, 0.0, 0.0, 1.0, 0.0, 0.0)">
      <use ffdec:characterId="3" ffdec:characterName="171_fla.Symbole192_15" height="56.0" id="back" transform="matrix(1.0, 0.0, 0.0, 1.0, 0.0, 0.0)" width="56.0" xlink:href="#sprite14"/>
    </g>
    <g id="sprite14" transform="matrix(1.0, 0.0, 0.0, 1.0, 0.0, 0.0)">
      <use ffdec:characterId="2" height="56.0" id="back" transform="matrix(1.0, 0.0, 0.0, 1.0, 0.0, 0.0)" width="56.0" xlink:href="#sprite15"/>
    </g>
    <g id="sprite15" transform="matrix(1.0, 0.0, 0.0, 1.0, 0.0, 0.0)">
      <use ffdec:characterId="1" height="56.0" transform="matrix(1.0, 0.0, 0.0, 1.0, 0.0, 0.0)" width="56.0" xlink:href="#shape0"/>
    </g>
    <g id="shape0" transform="matrix(1.0, 0.0, 0.0, 1.0, 0.0, 0.0)">
      <path d="M56.0 56.0 L0.0 56.0 0.0 0.0 56.0 0.0 56.0 56.0" fill="#010101" fill-opacity="0.0" fill-rule="evenodd" stroke="none"/>
    </g>
    <g id="sprite16" transform="matrix(1.0, 0.0, 0.0, 1.0, 0.75, 0.75)">
      <use ffdec:characterId="18" height="55.25" transform="matrix(1.0, 0.0, 0.0, 1.0, -0.75, -0.75)" width="51.0" xlink:href="#shape1"/>
    </g>
    <g id="shape1" transform="matrix(1.0, 0.0, 0.0, 1.0, 0.75, 0.75)">
      <path d="M39.3 22.8 Q38.5 23.35 37.85 24.45 L37.05 25.75 36.75 23.55 Q36.45 22.0 37.85 18.6 L38.7 16.9 37.65 17.9 Q34.45 20.9 33.55 22.55 32.25 24.45 30.75 19.8 L30.75 19.25 29.55 16.15 Q28.6 14.0 25.9 11.85 L25.45 11.45 Q19.55 6.6 23.3 0.0 15.8 3.35 18.85 11.9 19.6 14.05 17.65 16.05 16.05 17.15 13.8 15.55 L10.7 13.5 13.1 17.9 Q14.45 20.9 14.2 22.55 13.8 24.55 12.35 27.2 L12.35 27.05 Q10.95 24.3 9.2 22.8 L8.9 22.65 Q6.25 20.6 6.75 17.9 6.9 16.7 7.5 15.55 5.7 16.45 4.95 17.9 3.7 19.8 4.8 22.9 5.2 24.45 4.1 25.45 3.15 26.1 1.8 25.1 L0.0 23.85 1.8 27.65 Q2.2 28.75 2.05 29.3 L1.8 30.5 1.5 31.25 Q0.05 34.35 1.55 39.05 L1.5 38.45 Q2.4 41.6 4.05 43.45 5.2 45.1 7.1 46.0 L8.65 46.45 8.7 46.6 Q10.55 49.6 14.15 51.3 18.1 53.25 25.65 53.75 33.7 53.25 37.85 50.8 40.65 49.15 42.25 46.6 L42.3 46.45 43.8 46.0 Q47.75 44.3 49.5 38.45 L49.5 37.3 48.65 34.8 48.2 33.0 Q46.7 30.9 46.45 29.3 46.3 27.8 48.65 23.75 L46.6 25.05 46.6 25.1 Q45.35 26.25 44.3 25.45 43.2 24.3 43.75 22.8 45.4 17.5 41.1 15.55 43.4 19.6 39.6 22.55 L39.3 22.8 M38.25 35.7 Q38.1 34.0 37.15 32.6 35.55 30.25 33.3 30.05 L32.75 30.05 31.75 30.2 Q30.7 30.35 29.65 31.1 L27.75 32.6 Q25.75 34.8 25.2 37.85 25.0 36.15 24.25 34.8 L23.65 33.85 Q23.35 33.15 22.65 32.6 20.5 30.05 17.8 30.05 15.8 30.05 14.45 31.4 L13.4 32.6 Q11.8 34.9 12.15 38.4 12.55 41.0 14.9 44.1 L16.7 46.0 Q20.1 49.2 23.3 51.65 L23.35 51.75 24.25 52.4 25.0 52.85 25.2 53.1 25.5 52.85 28.2 50.95 Q31.9 48.15 35.25 44.5 L35.45 44.45 Q37.95 41.0 38.35 38.4 38.5 36.95 38.25 35.7 Z" fill="none" stroke="#000000" stroke-linecap="round" stroke-linejoin="round" stroke-opacity="0.2" stroke-width="1.5"/>
    </g>
    <g id="sprite17" transform="matrix(1.0, 0.0, 0.0, 1.0, 0.0, 0.0)">
      <use ffdec:characterId="20" height="53.75" transform="matrix(1.0, 0.0, 0.0, 1.0, 0.0, 0.0)" width="49.5" xlink:href="#shape2"/>
    </g>
    <g id="shape2" transform="matrix(1.0, 0.0, 0.0, 1.0, 0.0, 0.0)">
      <path d="M39.3 22.85 L39.6 22.6 Q43.4 19.6 41.1 15.6 45.45 17.55 43.7 22.85 43.2 24.3 44.3 25.45 45.35 26.25 46.65 25.15 L46.65 25.05 48.65 23.8 Q46.25 27.8 46.4 29.3 46.7 30.95 48.2 33.05 L48.65 34.85 Q49.35 36.1 49.5 37.3 L49.5 38.5 Q47.75 44.3 43.8 46.0 L42.3 46.45 42.2 46.6 Q40.65 49.15 37.85 50.8 33.7 53.25 25.65 53.75 18.1 53.25 14.15 51.3 10.55 49.6 8.7 46.6 L8.6 46.45 7.1 46.0 Q5.25 45.1 4.05 43.5 2.4 41.6 1.5 38.5 L1.55 39.1 Q0.05 34.4 1.5 31.25 L1.8 30.5 2.0 29.3 Q2.15 28.8 1.8 27.65 L0.0 23.85 1.8 25.15 Q3.15 26.1 4.1 25.45 5.25 24.45 4.8 22.9 3.65 19.85 4.95 17.9 5.7 16.5 7.5 15.6 6.9 16.7 6.75 17.9 6.2 20.6 8.9 22.7 L9.2 22.85 Q10.9 24.3 12.35 27.1 L12.35 27.25 Q13.85 24.6 14.2 22.6 14.45 20.9 13.1 17.9 L10.7 13.5 13.85 15.6 Q16.0 17.15 17.65 16.05 19.6 14.1 18.85 11.95 15.8 3.35 23.3 0.0 19.55 6.65 25.45 11.5 L25.9 11.85 Q28.6 14.05 29.55 16.2 L30.75 19.25 30.75 19.85 Q32.25 24.45 33.55 22.6 34.45 20.9 37.65 17.9 L38.7 16.95 37.85 18.65 Q36.45 22.0 36.75 23.55 L37.05 25.8 37.85 24.45 Q38.45 23.35 39.3 22.85 M38.25 35.75 Q38.1 34.0 37.1 32.6 35.55 30.3 33.3 30.05 L32.8 30.05 31.75 30.2 Q30.7 30.35 29.65 31.1 L27.75 32.6 Q25.75 34.85 25.2 37.9 25.0 36.15 24.25 34.85 L23.65 33.85 Q23.35 33.2 22.7 32.6 20.5 30.05 17.8 30.05 15.8 30.05 14.45 31.4 L13.4 32.6 Q11.8 34.9 12.1 38.4 12.55 41.0 14.9 44.15 L16.7 46.0 23.3 51.7 23.35 51.75 24.25 52.45 25.0 52.85 25.2 53.1 25.5 52.85 28.2 51.0 Q31.9 48.2 35.25 44.5 L35.5 44.45 Q37.95 41.0 38.3 38.4 38.45 37.0 38.25 35.75" fill="#000000" fill-rule="evenodd" stroke="none"/>
    </g>
  </defs>
</svg>
