<?xml version="1.0" encoding="UTF-8" standalone="no"?>
<svg xmlns:ffdec="https://www.free-decompiler.com/flash" xmlns:xlink="http://www.w3.org/1999/xlink" ffdec:objectType="frame" height="56.0px" width="56.0px" xmlns="http://www.w3.org/2000/svg">
  <g transform="matrix(1.0, 0.0, 0.0, 1.0, 0.0, 0.0)">
    <use ffdec:characterId="18" ffdec:characterName="172_fla.Symbole237_1" height="56.0" id="back" transform="matrix(1.0, 0.0, 0.0, 1.0, 0.0, 0.0)" width="56.0" xlink:href="#sprite0"/>
    <use ffdec:characterId="20" height="50.55" id="back" transform="matrix(1.0, 0.0, 0.0, 1.0, 0.35, 2.6)" width="55.35" xlink:href="#sprite17"/>
    <use ffdec:characterId="22" height="49.05" id="up" transform="matrix(1.0, 0.0, 0.0, 1.0, 1.05, 3.3)" width="53.9" xlink:href="#sprite18"/>
  </g>
  <defs>
    <g id="sprite0" transform="matrix(1.0, 0.0, 0.0, 1.0, 0.0, 0.0)">
      <use ffdec:characterId="17" ffdec:characterName="172_fla.Symbole234_2" height="56.0" id="back" transform="matrix(1.0, 0.0, 0.0, 1.0, 0.0, 0.0)" width="56.0" xlink:href="#sprite1"/>
    </g>
    <g id="sprite1" transform="matrix(1.0, 0.0, 0.0, 1.0, 0.0, 0.0)">
      <use ffdec:characterId="16" ffdec:characterName="172_fla.Symbole231_3" height="56.0" id="back" transform="matrix(1.0, 0.0, 0.0, 1.0, 0.0, 0.0)" width="56.0" xlink:href="#sprite2"/>
    </g>
    <g id="sprite2" transform="matrix(1.0, 0.0, 0.0, 1.0, 0.0, 0.0)">
      <use ffdec:characterId="15" ffdec:characterName="172_fla.Symbole228_4" height="56.0" id="back" transform="matrix(1.0, 0.0, 0.0, 1.0, 0.0, 0.0)" width="56.0" xlink:href="#sprite3"/>
    </g>
    <g id="sprite3" transform="matrix(1.0, 0.0, 0.0, 1.0, 0.0, 0.0)">
      <use ffdec:characterId="14" ffdec:characterName="172_fla.Symbole225_5" height="56.0" id="back" transform="matrix(1.0, 0.0, 0.0, 1.0, 0.0, 0.0)" width="56.0" xlink:href="#sprite4"/>
    </g>
    <g id="sprite4" transform="matrix(1.0, 0.0, 0.0, 1.0, 0.0, 0.0)">
      <use ffdec:characterId="13" ffdec:characterName="172_fla.Symbole222_6" height="56.0" id="back" transform="matrix(1.0, 0.0, 0.0, 1.0, 0.0, 0.0)" width="56.0" xlink:href="#sprite5"/>
    </g>
    <g id="sprite5" transform="matrix(1.0, 0.0, 0.0, 1.0, 0.0, 0.0)">
      <use ffdec:characterId="12" ffdec:characterName="172_fla.Symbole219_7" height="56.0" id="back" transform="matrix(1.0, 0.0, 0.0, 1.0, 0.0, 0.0)" width="56.0" xlink:href="#sprite6"/>
    </g>
    <g id="sprite6" transform="matrix(1.0, 0.0, 0.0, 1.0, 0.0, 0.0)">
      <use ffdec:characterId="11" ffdec:characterName="172_fla.Symbole216_8" height="56.0" id="back" transform="matrix(1.0, 0.0, 0.0, 1.0, 0.0, 0.0)" width="56.0" xlink:href="#sprite7"/>
    </g>
    <g id="sprite7" transform="matrix(1.0, 0.0, 0.0, 1.0, 0.0, 0.0)">
      <use ffdec:characterId="10" ffdec:characterName="172_fla.Symbole213_9" height="56.0" id="back" transform="matrix(1.0, 0.0, 0.0, 1.0, 0.0, 0.0)" width="56.0" xlink:href="#sprite8"/>
    </g>
    <g id="sprite8" transform="matrix(1.0, 0.0, 0.0, 1.0, 0.0, 0.0)">
      <use ffdec:characterId="9" ffdec:characterName="172_fla.Symbole210_10" height="56.0" id="back" transform="matrix(1.0, 0.0, 0.0, 1.0, 0.0, 0.0)" width="56.0" xlink:href="#sprite9"/>
    </g>
    <g id="sprite9" transform="matrix(1.0, 0.0, 0.0, 1.0, 0.0, 0.0)">
      <use ffdec:characterId="8" ffdec:characterName="172_fla.Symbole207_11" height="56.0" id="back" transform="matrix(1.0, 0.0, 0.0, 1.0, 0.0, 0.0)" width="56.0" xlink:href="#sprite10"/>
    </g>
    <g id="sprite10" transform="matrix(1.0, 0.0, 0.0, 1.0, 0.0, 0.0)">
      <use ffdec:characterId="7" ffdec:characterName="172_fla.Symbole204_12" height="56.0" id="back" transform="matrix(1.0, 0.0, 0.0, 1.0, 0.0, 0.0)" width="56.0" xlink:href="#sprite11"/>
    </g>
    <g id="sprite11" transform="matrix(1.0, 0.0, 0.0, 1.0, 0.0, 0.0)">
      <use ffdec:characterId="6" ffdec:characterName="172_fla.Symbole201_13" height="56.0" id="back" transform="matrix(1.0, 0.0, 0.0, 1.0, 0.0, 0.0)" width="56.0" xlink:href="#sprite12"/>
    </g>
    <g id="sprite12" transform="matrix(1.0, 0.0, 0.0, 1.0, 0.0, 0.0)">
      <use ffdec:characterId="5" ffdec:characterName="172_fla.Symbole198_14" height="56.0" id="back" transform="matrix(1.0, 0.0, 0.0, 1.0, 0.0, 0.0)" width="56.0" xlink:href="#sprite13"/>
    </g>
    <g id="sprite13" transform="matrix(1.0, 0.0, 0.0, 1.0, 0.0, 0.0)">
      <use ffdec:characterId="4" ffdec:characterName="172_fla.Symbole195_15" height="56.0" id="back" transform="matrix(1.0, 0.0, 0.0, 1.0, 0.0, 0.0)" width="56.0" xlink:href="#sprite14"/>
    </g>
    <g id="sprite14" transform="matrix(1.0, 0.0, 0.0, 1.0, 0.0, 0.0)">
      <use ffdec:characterId="3" ffdec:characterName="172_fla.Symbole192_16" height="56.0" id="back" transform="matrix(1.0, 0.0, 0.0, 1.0, 0.0, 0.0)" width="56.0" xlink:href="#sprite15"/>
    </g>
    <g id="sprite15" transform="matrix(1.0, 0.0, 0.0, 1.0, 0.0, 0.0)">
      <use ffdec:characterId="2" height="56.0" id="back" transform="matrix(1.0, 0.0, 0.0, 1.0, 0.0, 0.0)" width="56.0" xlink:href="#sprite16"/>
    </g>
    <g id="sprite16" transform="matrix(1.0, 0.0, 0.0, 1.0, 0.0, 0.0)">
      <use ffdec:characterId="1" height="56.0" transform="matrix(1.0, 0.0, 0.0, 1.0, 0.0, 0.0)" width="56.0" xlink:href="#shape0"/>
    </g>
    <g id="shape0" transform="matrix(1.0, 0.0, 0.0, 1.0, 0.0, 0.0)">
      <path d="M56.0 56.0 L0.0 56.0 0.0 0.0 56.0 0.0 56.0 56.0" fill="#010101" fill-opacity="0.0" fill-rule="evenodd" stroke="none"/>
    </g>
    <g id="sprite17" transform="matrix(1.0, 0.0, 0.0, 1.0, 0.75, 0.75)">
      <use ffdec:characterId="19" height="50.55" transform="matrix(1.0, 0.0, 0.0, 1.0, -0.75, -0.75)" width="55.35" xlink:href="#shape1"/>
    </g>
    <g id="shape1" transform="matrix(1.0, 0.0, 0.0, 1.0, 0.75, 0.75)">
      <path d="M53.85 8.8 Q53.85 14.0 50.6 18.3 46.8 22.45 41.9 23.65 38.15 24.55 35.25 23.5 L31.5 24.75 Q31.35 26.25 31.35 27.85 L33.55 27.85 Q34.75 27.85 35.55 28.75 36.35 29.45 36.35 30.65 36.35 31.75 35.55 32.55 34.75 33.4 33.55 33.4 L31.1 33.4 31.2 36.85 31.5 40.75 33.0 40.75 33.2 41.6 33.4 42.65 Q34.55 44.4 37.95 45.6 L39.05 45.6 Q40.55 45.6 41.55 46.1 42.75 46.6 42.75 47.4 42.75 48.05 41.55 48.6 L39.05 49.05 15.7 49.05 13.0 48.6 Q11.95 48.05 11.95 47.4 11.95 46.6 13.0 46.1 L15.7 45.6 16.7 45.6 Q20.2 44.4 21.2 42.65 L21.45 41.6 21.7 40.75 23.15 40.75 23.55 36.85 23.65 33.4 21.3 33.4 Q20.25 33.4 19.3 32.55 18.5 31.75 18.5 30.65 18.5 29.45 19.3 28.75 20.25 27.85 21.3 27.85 L23.4 27.85 23.25 24.75 Q20.85 24.4 18.85 23.45 L11.95 23.65 Q7.0 22.45 3.2 18.3 0.0 14.0 0.0 8.8 0.0 3.9 3.15 1.1 4.35 0.35 6.95 0.0 L46.9 0.0 Q49.5 0.4 50.7 1.1 53.85 3.9 53.85 8.8 M45.8 4.0 L8.5 4.0 Q8.35 5.15 8.35 6.45 8.35 14.25 13.85 19.75 L14.6 20.5 11.9 20.15 Q8.45 19.3 5.65 16.3 3.35 13.2 3.35 9.5 3.3 6.35 7.25 3.1 L46.65 3.1 Q50.5 6.25 50.45 9.5 50.45 13.2 48.15 16.3 45.35 19.3 41.9 20.15 L39.65 20.5 40.45 19.75 Q45.85 14.25 45.85 6.45 L45.8 4.0 M29.45 6.7 L29.15 6.7 28.9 6.8 21.8 9.25 21.7 9.4 Q21.55 9.4 21.7 9.6 L21.8 10.05 22.0 10.15 22.2 10.05 23.55 9.75 24.3 9.6 24.9 9.6 25.6 9.85 25.75 10.5 25.75 15.2 25.75 16.15 25.75 17.2 25.75 18.4 25.6 19.4 25.35 20.1 24.65 20.5 23.4 20.5 22.7 20.5 22.45 20.6 22.2 20.6 22.2 21.35 22.55 21.45 23.25 21.35 24.65 21.35 26.5 21.35 27.8 21.35 28.55 21.35 30.05 21.35 31.5 21.35 32.35 21.45 32.55 21.35 32.55 20.6 32.35 20.5 31.35 20.5 30.25 20.5 Q29.85 20.35 29.75 19.95 L29.75 19.25 29.75 18.55 29.6 17.05 29.6 15.35 29.6 14.25 29.6 13.2 29.6 11.2 29.75 9.15 29.75 7.6 29.75 6.9 29.6 6.7 29.45 6.7 Z" fill="none" stroke="#000000" stroke-linecap="round" stroke-linejoin="round" stroke-opacity="0.2" stroke-width="1.5"/>
    </g>
    <g id="sprite18" transform="matrix(1.0, 0.0, 0.0, 1.0, 0.0, 0.0)">
      <use ffdec:characterId="21" height="49.05" transform="matrix(1.0, 0.0, 0.0, 1.0, 0.0, 0.0)" width="53.9" xlink:href="#shape2"/>
    </g>
    <g id="shape2" transform="matrix(1.0, 0.0, 0.0, 1.0, 0.0, 0.0)">
      <path d="M53.9 8.8 Q53.9 14.0 50.65 18.3 46.85 22.5 41.9 23.65 38.2 24.55 35.25 23.5 L31.55 24.8 Q31.4 26.3 31.4 27.85 L33.6 27.85 Q34.8 27.85 35.6 28.75 36.35 29.45 36.35 30.65 36.35 31.75 35.6 32.55 34.8 33.4 33.6 33.4 L31.15 33.4 31.25 36.9 31.55 40.75 33.05 40.75 33.2 41.65 33.45 42.65 Q34.55 44.4 37.95 45.6 L39.05 45.6 41.6 46.05 Q42.8 46.6 42.8 47.4 42.8 48.05 41.6 48.6 L39.05 49.05 15.7 49.05 13.0 48.6 Q12.0 48.05 12.0 47.4 12.0 46.6 13.0 46.05 L15.7 45.6 16.75 45.6 Q20.2 44.4 21.25 42.65 L21.5 41.65 21.7 40.75 23.15 40.75 23.6 36.9 23.7 33.4 21.3 33.4 Q20.3 33.4 19.35 32.55 18.55 31.75 18.55 30.65 18.55 29.45 19.35 28.75 20.3 27.85 21.3 27.85 L23.45 27.85 23.3 24.8 Q20.95 24.4 18.85 23.45 L12.0 23.65 Q7.05 22.5 3.25 18.3 0.0 14.0 0.0 8.8 0.0 3.9 3.2 1.15 4.4 0.35 7.0 0.0 L46.9 0.0 Q49.5 0.4 50.7 1.15 53.9 3.9 53.9 8.8 M45.8 3.95 L45.9 6.45 Q45.9 14.25 40.5 19.7 L39.7 20.5 41.9 20.2 Q45.4 19.3 48.15 16.3 50.45 13.25 50.45 9.5 50.55 6.25 46.65 3.1 L7.3 3.1 Q3.35 6.35 3.45 9.5 3.45 13.25 5.7 16.3 8.5 19.3 11.9 20.2 L14.65 20.5 13.9 19.7 Q8.4 14.25 8.4 6.45 8.4 5.15 8.55 3.95 L45.8 3.95 M29.5 6.65 L29.15 6.75 28.95 6.8 21.8 9.3 21.7 9.45 Q21.55 9.45 21.7 9.6 L21.8 10.05 22.05 10.15 22.3 10.05 23.6 9.75 24.35 9.6 24.95 9.6 25.6 9.85 25.75 10.55 25.75 15.2 25.75 16.15 25.75 17.2 25.75 18.35 25.6 19.4 25.35 20.1 24.75 20.5 23.45 20.5 22.75 20.5 22.5 20.6 22.3 20.6 22.3 21.4 22.6 21.45 23.3 21.4 24.75 21.4 26.55 21.4 27.8 21.4 28.6 21.4 30.1 21.4 31.55 21.4 32.4 21.45 32.55 21.4 32.55 20.6 Q32.55 20.5 32.4 20.5 L31.4 20.5 30.25 20.5 29.8 19.95 29.8 19.25 29.8 18.55 29.65 17.05 29.65 15.35 29.65 14.25 29.65 13.25 29.65 11.15 29.8 9.2 29.8 7.6 29.8 6.9 29.65 6.75 Q29.65 6.65 29.5 6.65" fill="#000000" fill-rule="evenodd" stroke="none"/>
    </g>
  </defs>
</svg>
