<?xml version="1.0" encoding="UTF-8" standalone="no"?>
<svg xmlns:ffdec="https://www.free-decompiler.com/flash" xmlns:xlink="http://www.w3.org/1999/xlink" ffdec:objectType="frame" height="56.0px" width="56.0px" xmlns="http://www.w3.org/2000/svg">
  <g transform="matrix(1.0, 0.0, 0.0, 1.0, 0.0, 0.0)">
    <use ffdec:characterId="20" ffdec:characterName="174_fla.Symbole243_1" height="56.0" id="back" transform="matrix(1.0, 0.0, 0.0, 1.0, 0.0, 0.0)" width="56.0" xlink:href="#sprite0"/>
    <use ffdec:characterId="22" height="47.65" id="back" transform="matrix(1.0, 0.0, 0.0, 1.0, 0.25, 4.05)" width="55.35" xlink:href="#sprite19"/>
    <use ffdec:characterId="24" height="46.15" id="up" transform="matrix(1.0, 0.0, 0.0, 1.0, 1.0, 4.75)" width="53.9" xlink:href="#sprite20"/>
  </g>
  <defs>
    <g id="sprite0" transform="matrix(1.0, 0.0, 0.0, 1.0, 0.0, 0.0)">
      <use ffdec:characterId="19" ffdec:characterName="174_fla.Symbole240_2" height="56.0" id="back" transform="matrix(1.0, 0.0, 0.0, 1.0, 0.0, 0.0)" width="56.0" xlink:href="#sprite1"/>
    </g>
    <g id="sprite1" transform="matrix(1.0, 0.0, 0.0, 1.0, 0.0, 0.0)">
      <use ffdec:characterId="18" ffdec:characterName="174_fla.Symbole237_3" height="56.0" id="back" transform="matrix(1.0, 0.0, 0.0, 1.0, 0.0, 0.0)" width="56.0" xlink:href="#sprite2"/>
    </g>
    <g id="sprite2" transform="matrix(1.0, 0.0, 0.0, 1.0, 0.0, 0.0)">
      <use ffdec:characterId="17" ffdec:characterName="174_fla.Symbole234_4" height="56.0" id="back" transform="matrix(1.0, 0.0, 0.0, 1.0, 0.0, 0.0)" width="56.0" xlink:href="#sprite3"/>
    </g>
    <g id="sprite3" transform="matrix(1.0, 0.0, 0.0, 1.0, 0.0, 0.0)">
      <use ffdec:characterId="16" ffdec:characterName="174_fla.Symbole231_5" height="56.0" id="back" transform="matrix(1.0, 0.0, 0.0, 1.0, 0.0, 0.0)" width="56.0" xlink:href="#sprite4"/>
    </g>
    <g id="sprite4" transform="matrix(1.0, 0.0, 0.0, 1.0, 0.0, 0.0)">
      <use ffdec:characterId="15" ffdec:characterName="174_fla.Symbole228_6" height="56.0" id="back" transform="matrix(1.0, 0.0, 0.0, 1.0, 0.0, 0.0)" width="56.0" xlink:href="#sprite5"/>
    </g>
    <g id="sprite5" transform="matrix(1.0, 0.0, 0.0, 1.0, 0.0, 0.0)">
      <use ffdec:characterId="14" ffdec:characterName="174_fla.Symbole225_7" height="56.0" id="back" transform="matrix(1.0, 0.0, 0.0, 1.0, 0.0, 0.0)" width="56.0" xlink:href="#sprite6"/>
    </g>
    <g id="sprite6" transform="matrix(1.0, 0.0, 0.0, 1.0, 0.0, 0.0)">
      <use ffdec:characterId="13" ffdec:characterName="174_fla.Symbole222_8" height="56.0" id="back" transform="matrix(1.0, 0.0, 0.0, 1.0, 0.0, 0.0)" width="56.0" xlink:href="#sprite7"/>
    </g>
    <g id="sprite7" transform="matrix(1.0, 0.0, 0.0, 1.0, 0.0, 0.0)">
      <use ffdec:characterId="12" ffdec:characterName="174_fla.Symbole219_9" height="56.0" id="back" transform="matrix(1.0, 0.0, 0.0, 1.0, 0.0, 0.0)" width="56.0" xlink:href="#sprite8"/>
    </g>
    <g id="sprite8" transform="matrix(1.0, 0.0, 0.0, 1.0, 0.0, 0.0)">
      <use ffdec:characterId="11" ffdec:characterName="174_fla.Symbole216_10" height="56.0" id="back" transform="matrix(1.0, 0.0, 0.0, 1.0, 0.0, 0.0)" width="56.0" xlink:href="#sprite9"/>
    </g>
    <g id="sprite9" transform="matrix(1.0, 0.0, 0.0, 1.0, 0.0, 0.0)">
      <use ffdec:characterId="10" ffdec:characterName="174_fla.Symbole213_11" height="56.0" id="back" transform="matrix(1.0, 0.0, 0.0, 1.0, 0.0, 0.0)" width="56.0" xlink:href="#sprite10"/>
    </g>
    <g id="sprite10" transform="matrix(1.0, 0.0, 0.0, 1.0, 0.0, 0.0)">
      <use ffdec:characterId="9" ffdec:characterName="174_fla.Symbole210_12" height="56.0" id="back" transform="matrix(1.0, 0.0, 0.0, 1.0, 0.0, 0.0)" width="56.0" xlink:href="#sprite11"/>
    </g>
    <g id="sprite11" transform="matrix(1.0, 0.0, 0.0, 1.0, 0.0, 0.0)">
      <use ffdec:characterId="8" ffdec:characterName="174_fla.Symbole207_13" height="56.0" id="back" transform="matrix(1.0, 0.0, 0.0, 1.0, 0.0, 0.0)" width="56.0" xlink:href="#sprite12"/>
    </g>
    <g id="sprite12" transform="matrix(1.0, 0.0, 0.0, 1.0, 0.0, 0.0)">
      <use ffdec:characterId="7" ffdec:characterName="174_fla.Symbole204_14" height="56.0" id="back" transform="matrix(1.0, 0.0, 0.0, 1.0, 0.0, 0.0)" width="56.0" xlink:href="#sprite13"/>
    </g>
    <g id="sprite13" transform="matrix(1.0, 0.0, 0.0, 1.0, 0.0, 0.0)">
      <use ffdec:characterId="6" ffdec:characterName="174_fla.Symbole201_15" height="56.0" id="back" transform="matrix(1.0, 0.0, 0.0, 1.0, 0.0, 0.0)" width="56.0" xlink:href="#sprite14"/>
    </g>
    <g id="sprite14" transform="matrix(1.0, 0.0, 0.0, 1.0, 0.0, 0.0)">
      <use ffdec:characterId="5" ffdec:characterName="174_fla.Symbole198_16" height="56.0" id="back" transform="matrix(1.0, 0.0, 0.0, 1.0, 0.0, 0.0)" width="56.0" xlink:href="#sprite15"/>
    </g>
    <g id="sprite15" transform="matrix(1.0, 0.0, 0.0, 1.0, 0.0, 0.0)">
      <use ffdec:characterId="4" ffdec:characterName="174_fla.Symbole195_17" height="56.0" id="back" transform="matrix(1.0, 0.0, 0.0, 1.0, 0.0, 0.0)" width="56.0" xlink:href="#sprite16"/>
    </g>
    <g id="sprite16" transform="matrix(1.0, 0.0, 0.0, 1.0, 0.0, 0.0)">
      <use ffdec:characterId="3" ffdec:characterName="174_fla.Symbole192_18" height="56.0" id="back" transform="matrix(1.0, 0.0, 0.0, 1.0, 0.0, 0.0)" width="56.0" xlink:href="#sprite17"/>
    </g>
    <g id="sprite17" transform="matrix(1.0, 0.0, 0.0, 1.0, 0.0, 0.0)">
      <use ffdec:characterId="2" height="56.0" id="back" transform="matrix(1.0, 0.0, 0.0, 1.0, 0.0, 0.0)" width="56.0" xlink:href="#sprite18"/>
    </g>
    <g id="sprite18" transform="matrix(1.0, 0.0, 0.0, 1.0, 0.0, 0.0)">
      <use ffdec:characterId="1" height="56.0" transform="matrix(1.0, 0.0, 0.0, 1.0, 0.0, 0.0)" width="56.0" xlink:href="#shape0"/>
    </g>
    <g id="shape0" transform="matrix(1.0, 0.0, 0.0, 1.0, 0.0, 0.0)">
      <path d="M56.0 56.0 L0.0 56.0 0.0 0.0 56.0 0.0 56.0 56.0" fill="#010101" fill-opacity="0.0" fill-rule="evenodd" stroke="none"/>
    </g>
    <g id="sprite19" transform="matrix(1.0, 0.0, 0.0, 1.0, 0.75, 0.75)">
      <use ffdec:characterId="21" height="47.65" transform="matrix(1.0, 0.0, 0.0, 1.0, -0.75, -0.75)" width="55.35" xlink:href="#shape1"/>
    </g>
    <g id="shape1" transform="matrix(1.0, 0.0, 0.0, 1.0, 0.75, 0.75)">
      <path d="M39.6 4.2 Q37.9 2.35 33.9 2.5 L33.5 2.5 20.45 2.5 19.95 2.5 Q16.05 2.35 14.4 4.2 12.1 -0.55 7.9 0.05 L7.25 0.05 Q0.85 0.25 0.1 8.55 L0.1 8.6 Q-0.05 10.55 0.1 13.35 1.25 22.1 8.2 26.75 10.3 28.15 13.05 29.1 13.95 29.7 14.25 30.4 14.25 30.65 14.4 30.9 L14.6 31.35 16.05 32.2 17.05 32.2 Q19.75 30.35 17.65 27.35 19.95 29.45 23.65 30.9 L23.65 36.8 23.5 36.8 Q21.35 37.15 19.65 38.05 16.8 39.45 16.5 41.3 L13.1 41.3 10.7 46.15 43.2 46.15 40.85 41.3 37.25 41.3 Q37.0 39.45 34.3 38.05 32.45 37.15 30.35 36.8 L30.25 36.8 30.25 30.9 Q33.9 29.45 36.15 27.35 34.1 30.35 36.75 32.2 L37.9 32.2 Q38.8 32.0 39.25 31.35 L39.6 30.9 39.65 30.4 Q39.9 29.7 40.7 29.1 43.55 28.15 45.6 26.75 52.6 22.1 53.65 13.35 L53.85 13.35 53.85 8.6 53.85 8.55 Q52.85 0.25 46.5 0.05 L46.05 0.05 Q41.75 -0.55 39.6 4.2 M45.55 4.6 Q43.8 4.6 42.95 8.05 42.8 8.95 41.9 9.45 41.45 9.8 40.85 9.8 L40.95 15.4 Q41.15 21.55 38.05 25.65 L38.35 25.3 38.85 25.1 Q41.35 24.2 43.2 23.05 48.45 19.5 49.25 12.65 L49.25 13.05 Q49.45 10.65 49.25 8.95 48.85 5.05 46.25 4.6 L46.2 4.6 45.55 4.6 M38.15 13.6 Q38.15 19.1 34.85 22.95 31.65 26.8 27.1 26.8 22.6 26.8 19.4 22.95 16.1 19.1 16.1 13.6 16.1 12.5 16.25 11.55 L38.0 11.55 38.15 13.6 M36.55 8.4 L17.4 8.4 17.4 5.2 36.55 5.2 36.55 8.4 M7.75 4.6 L8.2 4.6 Q10.1 4.6 10.8 8.05 11.15 8.95 11.9 9.45 12.4 9.8 12.9 9.8 L12.9 15.4 Q12.8 21.85 16.25 25.95 L15.55 25.3 14.9 25.1 10.7 23.05 Q5.25 19.5 4.5 12.65 4.35 10.55 4.5 8.95 4.95 5.05 7.6 4.6 L7.75 4.6 Z" fill="none" stroke="#000000" stroke-linecap="round" stroke-linejoin="round" stroke-opacity="0.2" stroke-width="1.5"/>
    </g>
    <g id="sprite20" transform="matrix(1.0, 0.0, 0.0, 1.0, 0.0, 0.0)">
      <use ffdec:characterId="23" height="46.15" transform="matrix(1.0, 0.0, 0.0, 1.0, 0.0, 0.0)" width="53.9" xlink:href="#shape2"/>
    </g>
    <g id="shape2" transform="matrix(1.0, 0.0, 0.0, 1.0, 0.0, 0.0)">
      <path d="M45.55 4.6 Q43.8 4.6 42.95 8.1 42.8 9.0 41.9 9.45 41.45 9.8 40.85 9.8 L41.0 15.4 Q41.15 21.55 38.05 25.7 L38.35 25.3 38.9 25.1 Q41.4 24.2 43.2 23.05 48.5 19.5 49.25 12.7 L49.25 13.05 Q49.45 10.65 49.25 9.0 48.85 5.05 46.3 4.6 L46.2 4.6 45.55 4.6 M8.2 4.6 L7.75 4.6 7.6 4.6 Q4.95 5.05 4.5 9.0 4.35 10.55 4.5 12.7 5.25 19.5 10.7 23.05 12.5 24.2 14.95 25.1 L15.55 25.3 16.3 26.0 Q12.8 21.85 12.9 15.4 L12.9 9.8 Q12.45 9.8 11.9 9.45 11.15 9.0 10.85 8.1 10.1 4.6 8.2 4.6 M38.15 13.6 L38.0 11.55 16.3 11.55 Q16.15 12.55 16.15 13.6 16.15 19.1 19.4 22.95 22.65 26.8 27.1 26.8 31.65 26.8 34.9 22.95 38.15 19.1 38.15 13.6 M36.55 8.4 L36.55 5.2 17.4 5.2 17.4 8.4 36.55 8.4 M46.05 0.05 L46.5 0.05 Q52.85 0.2 53.85 8.55 L53.85 8.6 53.85 13.35 53.7 13.35 Q52.65 22.15 45.6 26.75 43.55 28.2 40.7 29.1 39.95 29.7 39.65 30.45 L39.55 30.9 39.25 31.35 Q38.8 32.05 37.9 32.2 L36.75 32.2 Q34.15 30.35 36.15 27.35 33.9 29.45 30.25 30.9 L30.25 36.8 30.35 36.8 Q32.45 37.15 34.3 38.1 37.0 39.45 37.3 41.35 L40.85 41.35 43.2 46.15 10.7 46.15 13.1 41.35 16.5 41.35 Q16.8 39.45 19.7 38.1 21.35 37.15 23.55 36.8 L23.7 36.8 23.7 30.9 Q20.0 29.45 17.65 27.35 19.75 30.35 17.05 32.2 L16.05 32.2 Q15.15 32.05 14.65 31.35 L14.4 30.9 14.25 30.45 Q13.95 29.7 13.05 29.1 10.3 28.2 8.2 26.75 1.25 22.15 0.1 13.35 -0.05 10.55 0.1 8.6 L0.1 8.55 Q0.85 0.2 7.3 0.05 L7.9 0.05 Q12.15 -0.55 14.4 4.25 16.05 2.35 20.0 2.5 L20.45 2.5 33.5 2.5 33.9 2.5 Q37.9 2.35 39.55 4.25 41.75 -0.55 46.05 0.05" fill="#000000" fill-rule="evenodd" stroke="none"/>
    </g>
  </defs>
</svg>
