<?xml version="1.0" encoding="UTF-8" standalone="no"?>
<svg xmlns:ffdec="https://www.free-decompiler.com/flash" xmlns:xlink="http://www.w3.org/1999/xlink" ffdec:objectType="frame" height="56.0px" width="56.0px" xmlns="http://www.w3.org/2000/svg">
  <g transform="matrix(1.0, 0.0, 0.0, 1.0, 0.0, 0.0)">
    <use ffdec:characterId="24" ffdec:characterName="178_fla.Symbole255_1" height="56.0" id="back" transform="matrix(1.0, 0.0, 0.0, 1.0, 0.0, 0.0)" width="56.0" xlink:href="#sprite0"/>
    <use ffdec:characterId="26" height="55.15" id="back" transform="matrix(1.0, 0.0, 0.0, 1.0, 0.35, 0.3)" width="55.35" xlink:href="#sprite23"/>
    <use ffdec:characterId="28" height="53.7" id="up" transform="matrix(1.0, 0.0, 0.0, 1.0, 1.1, 0.95)" width="53.85" xlink:href="#sprite24"/>
  </g>
  <defs>
    <g id="sprite0" transform="matrix(1.0, 0.0, 0.0, 1.0, 0.0, 0.0)">
      <use ffdec:characterId="23" ffdec:characterName="178_fla.Symbole252_2" height="56.0" id="back" transform="matrix(1.0, 0.0, 0.0, 1.0, 0.0, 0.0)" width="56.0" xlink:href="#sprite1"/>
    </g>
    <g id="sprite1" transform="matrix(1.0, 0.0, 0.0, 1.0, 0.0, 0.0)">
      <use ffdec:characterId="22" ffdec:characterName="178_fla.Symbole249_3" height="56.0" id="back" transform="matrix(1.0, 0.0, 0.0, 1.0, 0.0, 0.0)" width="56.0" xlink:href="#sprite2"/>
    </g>
    <g id="sprite2" transform="matrix(1.0, 0.0, 0.0, 1.0, 0.0, 0.0)">
      <use ffdec:characterId="21" ffdec:characterName="178_fla.Symbole246_4" height="56.0" id="back" transform="matrix(1.0, 0.0, 0.0, 1.0, 0.0, 0.0)" width="56.0" xlink:href="#sprite3"/>
    </g>
    <g id="sprite3" transform="matrix(1.0, 0.0, 0.0, 1.0, 0.0, 0.0)">
      <use ffdec:characterId="20" ffdec:characterName="178_fla.Symbole243_5" height="56.0" id="back" transform="matrix(1.0, 0.0, 0.0, 1.0, 0.0, 0.0)" width="56.0" xlink:href="#sprite4"/>
    </g>
    <g id="sprite4" transform="matrix(1.0, 0.0, 0.0, 1.0, 0.0, 0.0)">
      <use ffdec:characterId="19" ffdec:characterName="178_fla.Symbole240_6" height="56.0" id="back" transform="matrix(1.0, 0.0, 0.0, 1.0, 0.0, 0.0)" width="56.0" xlink:href="#sprite5"/>
    </g>
    <g id="sprite5" transform="matrix(1.0, 0.0, 0.0, 1.0, 0.0, 0.0)">
      <use ffdec:characterId="18" ffdec:characterName="178_fla.Symbole237_7" height="56.0" id="back" transform="matrix(1.0, 0.0, 0.0, 1.0, 0.0, 0.0)" width="56.0" xlink:href="#sprite6"/>
    </g>
    <g id="sprite6" transform="matrix(1.0, 0.0, 0.0, 1.0, 0.0, 0.0)">
      <use ffdec:characterId="17" ffdec:characterName="178_fla.Symbole234_8" height="56.0" id="back" transform="matrix(1.0, 0.0, 0.0, 1.0, 0.0, 0.0)" width="56.0" xlink:href="#sprite7"/>
    </g>
    <g id="sprite7" transform="matrix(1.0, 0.0, 0.0, 1.0, 0.0, 0.0)">
      <use ffdec:characterId="16" ffdec:characterName="178_fla.Symbole231_9" height="56.0" id="back" transform="matrix(1.0, 0.0, 0.0, 1.0, 0.0, 0.0)" width="56.0" xlink:href="#sprite8"/>
    </g>
    <g id="sprite8" transform="matrix(1.0, 0.0, 0.0, 1.0, 0.0, 0.0)">
      <use ffdec:characterId="15" ffdec:characterName="178_fla.Symbole228_10" height="56.0" id="back" transform="matrix(1.0, 0.0, 0.0, 1.0, 0.0, 0.0)" width="56.0" xlink:href="#sprite9"/>
    </g>
    <g id="sprite9" transform="matrix(1.0, 0.0, 0.0, 1.0, 0.0, 0.0)">
      <use ffdec:characterId="14" ffdec:characterName="178_fla.Symbole225_11" height="56.0" id="back" transform="matrix(1.0, 0.0, 0.0, 1.0, 0.0, 0.0)" width="56.0" xlink:href="#sprite10"/>
    </g>
    <g id="sprite10" transform="matrix(1.0, 0.0, 0.0, 1.0, 0.0, 0.0)">
      <use ffdec:characterId="13" ffdec:characterName="178_fla.Symbole222_12" height="56.0" id="back" transform="matrix(1.0, 0.0, 0.0, 1.0, 0.0, 0.0)" width="56.0" xlink:href="#sprite11"/>
    </g>
    <g id="sprite11" transform="matrix(1.0, 0.0, 0.0, 1.0, 0.0, 0.0)">
      <use ffdec:characterId="12" ffdec:characterName="178_fla.Symbole219_13" height="56.0" id="back" transform="matrix(1.0, 0.0, 0.0, 1.0, 0.0, 0.0)" width="56.0" xlink:href="#sprite12"/>
    </g>
    <g id="sprite12" transform="matrix(1.0, 0.0, 0.0, 1.0, 0.0, 0.0)">
      <use ffdec:characterId="11" ffdec:characterName="178_fla.Symbole216_14" height="56.0" id="back" transform="matrix(1.0, 0.0, 0.0, 1.0, 0.0, 0.0)" width="56.0" xlink:href="#sprite13"/>
    </g>
    <g id="sprite13" transform="matrix(1.0, 0.0, 0.0, 1.0, 0.0, 0.0)">
      <use ffdec:characterId="10" ffdec:characterName="178_fla.Symbole213_15" height="56.0" id="back" transform="matrix(1.0, 0.0, 0.0, 1.0, 0.0, 0.0)" width="56.0" xlink:href="#sprite14"/>
    </g>
    <g id="sprite14" transform="matrix(1.0, 0.0, 0.0, 1.0, 0.0, 0.0)">
      <use ffdec:characterId="9" ffdec:characterName="178_fla.Symbole210_16" height="56.0" id="back" transform="matrix(1.0, 0.0, 0.0, 1.0, 0.0, 0.0)" width="56.0" xlink:href="#sprite15"/>
    </g>
    <g id="sprite15" transform="matrix(1.0, 0.0, 0.0, 1.0, 0.0, 0.0)">
      <use ffdec:characterId="8" ffdec:characterName="178_fla.Symbole207_17" height="56.0" id="back" transform="matrix(1.0, 0.0, 0.0, 1.0, 0.0, 0.0)" width="56.0" xlink:href="#sprite16"/>
    </g>
    <g id="sprite16" transform="matrix(1.0, 0.0, 0.0, 1.0, 0.0, 0.0)">
      <use ffdec:characterId="7" ffdec:characterName="178_fla.Symbole204_18" height="56.0" id="back" transform="matrix(1.0, 0.0, 0.0, 1.0, 0.0, 0.0)" width="56.0" xlink:href="#sprite17"/>
    </g>
    <g id="sprite17" transform="matrix(1.0, 0.0, 0.0, 1.0, 0.0, 0.0)">
      <use ffdec:characterId="6" ffdec:characterName="178_fla.Symbole201_19" height="56.0" id="back" transform="matrix(1.0, 0.0, 0.0, 1.0, 0.0, 0.0)" width="56.0" xlink:href="#sprite18"/>
    </g>
    <g id="sprite18" transform="matrix(1.0, 0.0, 0.0, 1.0, 0.0, 0.0)">
      <use ffdec:characterId="5" ffdec:characterName="178_fla.Symbole198_20" height="56.0" id="back" transform="matrix(1.0, 0.0, 0.0, 1.0, 0.0, 0.0)" width="56.0" xlink:href="#sprite19"/>
    </g>
    <g id="sprite19" transform="matrix(1.0, 0.0, 0.0, 1.0, 0.0, 0.0)">
      <use ffdec:characterId="4" ffdec:characterName="178_fla.Symbole195_21" height="56.0" id="back" transform="matrix(1.0, 0.0, 0.0, 1.0, 0.0, 0.0)" width="56.0" xlink:href="#sprite20"/>
    </g>
    <g id="sprite20" transform="matrix(1.0, 0.0, 0.0, 1.0, 0.0, 0.0)">
      <use ffdec:characterId="3" ffdec:characterName="178_fla.Symbole192_22" height="56.0" id="back" transform="matrix(1.0, 0.0, 0.0, 1.0, 0.0, 0.0)" width="56.0" xlink:href="#sprite21"/>
    </g>
    <g id="sprite21" transform="matrix(1.0, 0.0, 0.0, 1.0, 0.0, 0.0)">
      <use ffdec:characterId="2" height="56.0" id="back" transform="matrix(1.0, 0.0, 0.0, 1.0, 0.0, 0.0)" width="56.0" xlink:href="#sprite22"/>
    </g>
    <g id="sprite22" transform="matrix(1.0, 0.0, 0.0, 1.0, 0.0, 0.0)">
      <use ffdec:characterId="1" height="56.0" transform="matrix(1.0, 0.0, 0.0, 1.0, 0.0, 0.0)" width="56.0" xlink:href="#shape0"/>
    </g>
    <g id="shape0" transform="matrix(1.0, 0.0, 0.0, 1.0, 0.0, 0.0)">
      <path d="M56.0 56.0 L0.0 56.0 0.0 0.0 56.0 0.0 56.0 56.0" fill="#010101" fill-opacity="0.0" fill-rule="evenodd" stroke="none"/>
    </g>
    <g id="sprite23" transform="matrix(1.0, 0.0, 0.0, 1.0, 0.75, 0.75)">
      <use ffdec:characterId="25" height="55.15" transform="matrix(1.0, 0.0, 0.0, 1.0, -0.75, -0.75)" width="55.35" xlink:href="#shape1"/>
    </g>
    <g id="shape1" transform="matrix(1.0, 0.0, 0.0, 1.0, 0.75, 0.75)">
      <path d="M45.25 7.2 Q38.4 1.8 32.4 13.05 34.95 14.0 37.05 16.15 39.3 18.2 40.4 20.65 51.85 14.0 45.25 7.2 M40.75 32.25 Q39.6 34.85 37.5 37.05 35.5 39.3 33.15 40.35 39.6 51.6 46.55 45.0 52.0 38.35 40.75 32.25 M39.45 31.6 Q38.4 33.95 36.5 36.05 34.55 37.95 32.35 38.95 L32.3 39.0 Q29.85 40.1 27.1 40.1 24.45 40.25 22.0 39.3 L22.0 39.2 Q19.6 38.35 17.65 36.45 15.55 34.4 14.55 32.1 13.6 29.85 13.5 27.1 13.45 24.35 14.5 21.9 15.5 19.55 17.2 17.7 19.2 15.65 21.65 14.6 23.9 13.65 26.6 13.55 29.3 13.55 31.75 14.45 33.95 15.35 35.95 17.25 38.05 19.2 39.0 21.5 40.05 23.75 40.1 26.55 40.1 29.25 39.45 31.6 M40.85 32.05 Q53.65 35.3 53.85 25.8 52.9 17.25 40.6 20.95 41.65 23.5 41.7 26.55 41.8 29.45 40.85 32.05 M26.65 17.35 Q28.6 17.35 30.35 17.95 32.05 18.55 33.4 19.95 34.85 21.4 35.6 23.05 36.4 24.6 36.5 26.65 36.5 28.6 35.9 30.2 35.15 31.9 33.75 33.45 32.4 34.85 30.8 35.6 L30.75 35.6 Q29.0 36.3 27.05 36.4 25.1 36.5 23.25 35.8 21.65 35.15 20.25 33.75 18.75 32.35 18.1 30.65 17.3 29.0 17.3 27.1 17.2 25.05 18.0 23.3 18.6 21.65 19.95 20.3 21.35 18.75 23.1 18.0 24.65 17.35 26.65 17.35 M26.6 12.0 Q29.5 11.95 32.15 12.85 35.45 0.2 25.95 0.0 17.45 0.95 21.0 13.05 23.55 12.0 26.6 12.0 M16.15 16.55 Q18.2 14.3 20.85 13.25 14.25 2.25 7.8 7.95 1.55 15.05 13.15 21.1 14.1 18.7 16.15 16.55 M0.0 27.05 Q0.65 18.45 12.9 21.5 11.95 24.05 11.95 27.2 11.95 30.2 13.15 32.65 0.65 36.45 0.0 27.05 M7.95 45.95 Q15.05 52.1 21.2 40.6 18.7 39.65 16.55 37.6 14.4 35.3 13.25 32.9 2.35 39.35 7.95 45.95 M27.1 41.65 Q30.2 41.65 32.8 40.55 36.55 53.0 27.1 53.65 18.55 53.0 21.65 40.75 24.2 41.75 27.1 41.65 Z" fill="none" stroke="#000000" stroke-linecap="round" stroke-linejoin="round" stroke-opacity="0.2" stroke-width="1.5"/>
    </g>
    <g id="sprite24" transform="matrix(1.0, 0.0, 0.0, 1.0, 0.0, 0.0)">
      <use ffdec:characterId="27" height="53.7" transform="matrix(1.0, 0.0, 0.0, 1.0, 0.0, 0.0)" width="53.85" xlink:href="#shape2"/>
    </g>
    <g id="shape2" transform="matrix(1.0, 0.0, 0.0, 1.0, 0.0, 0.0)">
      <path d="M39.45 31.6 Q38.45 34.0 36.5 36.05 34.6 38.0 32.4 39.0 L32.3 39.05 Q29.85 40.1 27.15 40.2 24.45 40.3 22.0 39.35 L22.0 39.25 Q19.6 38.35 17.65 36.5 15.55 34.45 14.6 32.2 13.6 29.9 13.55 27.15 13.45 24.4 14.5 21.95 15.5 19.6 17.25 17.75 19.2 15.7 21.65 14.65 23.95 13.65 26.6 13.6 29.3 13.6 31.75 14.5 34.0 15.4 36.0 17.3 38.05 19.25 39.0 21.55 40.05 23.8 40.1 26.6 40.1 29.25 39.45 31.6 M7.95 45.95 Q2.4 39.4 13.25 32.95 14.4 35.4 16.55 37.6 18.7 39.7 21.2 40.65 15.1 52.15 7.95 45.95 M16.2 16.6 Q14.1 18.75 13.15 21.2 1.55 15.1 7.8 8.05 14.25 2.3 20.85 13.3 18.2 14.35 16.2 16.6 M23.1 18.05 Q21.35 18.8 19.95 20.35 18.65 21.65 18.0 23.35 17.25 25.1 17.3 27.15 17.3 29.05 18.1 30.7 18.8 32.4 20.25 33.8 21.65 35.15 23.3 35.85 L27.1 36.4 Q29.05 36.35 30.8 35.65 L30.85 35.65 Q32.45 34.9 33.8 33.5 35.15 31.95 35.95 30.25 36.5 28.65 36.5 26.7 36.45 24.65 35.6 23.05 34.9 21.45 33.45 20.0 32.05 18.6 30.35 18.0 28.6 17.35 26.65 17.35 24.7 17.4 23.1 18.05 M26.6 12.05 Q23.6 12.05 21.0 13.1 17.45 1.0 25.95 0.0 35.45 0.25 32.15 12.9 29.5 12.0 26.6 12.05 M53.85 25.85 Q53.65 35.3 40.9 32.1 41.8 29.55 41.75 26.6 41.65 23.55 40.6 20.95 52.9 17.3 53.85 25.85 M40.75 32.3 Q52.0 38.35 46.55 45.05 39.65 51.65 33.15 40.4 35.5 39.35 37.55 37.1 39.65 34.9 40.75 32.3 M45.3 7.25 Q51.85 14.1 40.4 20.7 39.3 18.25 37.05 16.15 34.95 14.1 32.45 13.1 38.45 1.85 45.3 7.25 M0.0 27.1 Q0.65 18.45 12.9 21.55 11.95 24.1 11.95 27.25 12.0 30.25 13.15 32.65 0.7 36.5 0.0 27.1 M27.15 41.7 Q30.2 41.7 32.8 40.6 36.55 53.05 27.15 53.7 18.55 53.05 21.65 40.8 24.2 41.8 27.15 41.7" fill="#000000" fill-rule="evenodd" stroke="none"/>
    </g>
  </defs>
</svg>
