<?xml version="1.0" encoding="UTF-8" standalone="no"?>
<svg xmlns:ffdec="https://www.free-decompiler.com/flash" xmlns:xlink="http://www.w3.org/1999/xlink" ffdec:objectType="frame" height="56.0px" width="56.0px" xmlns="http://www.w3.org/2000/svg">
  <g transform="matrix(1.0, 0.0, 0.0, 1.0, 0.0, 0.0)">
    <use ffdec:characterId="25" ffdec:characterName="179_fla.Symbole258_1" height="56.0" id="back" transform="matrix(1.0, 0.0, 0.0, 1.0, 0.0, 0.0)" width="56.0" xlink:href="#sprite0"/>
    <use ffdec:characterId="27" height="55.15" id="back" transform="matrix(1.0, 0.0, 0.0, 1.0, 0.35, 0.3)" width="55.35" xlink:href="#sprite24"/>
    <use ffdec:characterId="29" height="53.65" id="up" transform="matrix(1.0, 0.0, 0.0, 1.0, 1.1, 1.05)" width="53.85" xlink:href="#sprite25"/>
  </g>
  <defs>
    <g id="sprite0" transform="matrix(1.0, 0.0, 0.0, 1.0, 0.0, 0.0)">
      <use ffdec:characterId="24" ffdec:characterName="179_fla.Symbole255_2" height="56.0" id="back" transform="matrix(1.0, 0.0, 0.0, 1.0, 0.0, 0.0)" width="56.0" xlink:href="#sprite1"/>
    </g>
    <g id="sprite1" transform="matrix(1.0, 0.0, 0.0, 1.0, 0.0, 0.0)">
      <use ffdec:characterId="23" ffdec:characterName="179_fla.Symbole252_3" height="56.0" id="back" transform="matrix(1.0, 0.0, 0.0, 1.0, 0.0, 0.0)" width="56.0" xlink:href="#sprite2"/>
    </g>
    <g id="sprite2" transform="matrix(1.0, 0.0, 0.0, 1.0, 0.0, 0.0)">
      <use ffdec:characterId="22" ffdec:characterName="179_fla.Symbole249_4" height="56.0" id="back" transform="matrix(1.0, 0.0, 0.0, 1.0, 0.0, 0.0)" width="56.0" xlink:href="#sprite3"/>
    </g>
    <g id="sprite3" transform="matrix(1.0, 0.0, 0.0, 1.0, 0.0, 0.0)">
      <use ffdec:characterId="21" ffdec:characterName="179_fla.Symbole246_5" height="56.0" id="back" transform="matrix(1.0, 0.0, 0.0, 1.0, 0.0, 0.0)" width="56.0" xlink:href="#sprite4"/>
    </g>
    <g id="sprite4" transform="matrix(1.0, 0.0, 0.0, 1.0, 0.0, 0.0)">
      <use ffdec:characterId="20" ffdec:characterName="179_fla.Symbole243_6" height="56.0" id="back" transform="matrix(1.0, 0.0, 0.0, 1.0, 0.0, 0.0)" width="56.0" xlink:href="#sprite5"/>
    </g>
    <g id="sprite5" transform="matrix(1.0, 0.0, 0.0, 1.0, 0.0, 0.0)">
      <use ffdec:characterId="19" ffdec:characterName="179_fla.Symbole240_7" height="56.0" id="back" transform="matrix(1.0, 0.0, 0.0, 1.0, 0.0, 0.0)" width="56.0" xlink:href="#sprite6"/>
    </g>
    <g id="sprite6" transform="matrix(1.0, 0.0, 0.0, 1.0, 0.0, 0.0)">
      <use ffdec:characterId="18" ffdec:characterName="179_fla.Symbole237_8" height="56.0" id="back" transform="matrix(1.0, 0.0, 0.0, 1.0, 0.0, 0.0)" width="56.0" xlink:href="#sprite7"/>
    </g>
    <g id="sprite7" transform="matrix(1.0, 0.0, 0.0, 1.0, 0.0, 0.0)">
      <use ffdec:characterId="17" ffdec:characterName="179_fla.Symbole234_9" height="56.0" id="back" transform="matrix(1.0, 0.0, 0.0, 1.0, 0.0, 0.0)" width="56.0" xlink:href="#sprite8"/>
    </g>
    <g id="sprite8" transform="matrix(1.0, 0.0, 0.0, 1.0, 0.0, 0.0)">
      <use ffdec:characterId="16" ffdec:characterName="179_fla.Symbole231_10" height="56.0" id="back" transform="matrix(1.0, 0.0, 0.0, 1.0, 0.0, 0.0)" width="56.0" xlink:href="#sprite9"/>
    </g>
    <g id="sprite9" transform="matrix(1.0, 0.0, 0.0, 1.0, 0.0, 0.0)">
      <use ffdec:characterId="15" ffdec:characterName="179_fla.Symbole228_11" height="56.0" id="back" transform="matrix(1.0, 0.0, 0.0, 1.0, 0.0, 0.0)" width="56.0" xlink:href="#sprite10"/>
    </g>
    <g id="sprite10" transform="matrix(1.0, 0.0, 0.0, 1.0, 0.0, 0.0)">
      <use ffdec:characterId="14" ffdec:characterName="179_fla.Symbole225_12" height="56.0" id="back" transform="matrix(1.0, 0.0, 0.0, 1.0, 0.0, 0.0)" width="56.0" xlink:href="#sprite11"/>
    </g>
    <g id="sprite11" transform="matrix(1.0, 0.0, 0.0, 1.0, 0.0, 0.0)">
      <use ffdec:characterId="13" ffdec:characterName="179_fla.Symbole222_13" height="56.0" id="back" transform="matrix(1.0, 0.0, 0.0, 1.0, 0.0, 0.0)" width="56.0" xlink:href="#sprite12"/>
    </g>
    <g id="sprite12" transform="matrix(1.0, 0.0, 0.0, 1.0, 0.0, 0.0)">
      <use ffdec:characterId="12" ffdec:characterName="179_fla.Symbole219_14" height="56.0" id="back" transform="matrix(1.0, 0.0, 0.0, 1.0, 0.0, 0.0)" width="56.0" xlink:href="#sprite13"/>
    </g>
    <g id="sprite13" transform="matrix(1.0, 0.0, 0.0, 1.0, 0.0, 0.0)">
      <use ffdec:characterId="11" ffdec:characterName="179_fla.Symbole216_15" height="56.0" id="back" transform="matrix(1.0, 0.0, 0.0, 1.0, 0.0, 0.0)" width="56.0" xlink:href="#sprite14"/>
    </g>
    <g id="sprite14" transform="matrix(1.0, 0.0, 0.0, 1.0, 0.0, 0.0)">
      <use ffdec:characterId="10" ffdec:characterName="179_fla.Symbole213_16" height="56.0" id="back" transform="matrix(1.0, 0.0, 0.0, 1.0, 0.0, 0.0)" width="56.0" xlink:href="#sprite15"/>
    </g>
    <g id="sprite15" transform="matrix(1.0, 0.0, 0.0, 1.0, 0.0, 0.0)">
      <use ffdec:characterId="9" ffdec:characterName="179_fla.Symbole210_17" height="56.0" id="back" transform="matrix(1.0, 0.0, 0.0, 1.0, 0.0, 0.0)" width="56.0" xlink:href="#sprite16"/>
    </g>
    <g id="sprite16" transform="matrix(1.0, 0.0, 0.0, 1.0, 0.0, 0.0)">
      <use ffdec:characterId="8" ffdec:characterName="179_fla.Symbole207_18" height="56.0" id="back" transform="matrix(1.0, 0.0, 0.0, 1.0, 0.0, 0.0)" width="56.0" xlink:href="#sprite17"/>
    </g>
    <g id="sprite17" transform="matrix(1.0, 0.0, 0.0, 1.0, 0.0, 0.0)">
      <use ffdec:characterId="7" ffdec:characterName="179_fla.Symbole204_19" height="56.0" id="back" transform="matrix(1.0, 0.0, 0.0, 1.0, 0.0, 0.0)" width="56.0" xlink:href="#sprite18"/>
    </g>
    <g id="sprite18" transform="matrix(1.0, 0.0, 0.0, 1.0, 0.0, 0.0)">
      <use ffdec:characterId="6" ffdec:characterName="179_fla.Symbole201_20" height="56.0" id="back" transform="matrix(1.0, 0.0, 0.0, 1.0, 0.0, 0.0)" width="56.0" xlink:href="#sprite19"/>
    </g>
    <g id="sprite19" transform="matrix(1.0, 0.0, 0.0, 1.0, 0.0, 0.0)">
      <use ffdec:characterId="5" ffdec:characterName="179_fla.Symbole198_21" height="56.0" id="back" transform="matrix(1.0, 0.0, 0.0, 1.0, 0.0, 0.0)" width="56.0" xlink:href="#sprite20"/>
    </g>
    <g id="sprite20" transform="matrix(1.0, 0.0, 0.0, 1.0, 0.0, 0.0)">
      <use ffdec:characterId="4" ffdec:characterName="179_fla.Symbole195_22" height="56.0" id="back" transform="matrix(1.0, 0.0, 0.0, 1.0, 0.0, 0.0)" width="56.0" xlink:href="#sprite21"/>
    </g>
    <g id="sprite21" transform="matrix(1.0, 0.0, 0.0, 1.0, 0.0, 0.0)">
      <use ffdec:characterId="3" ffdec:characterName="179_fla.Symbole192_23" height="56.0" id="back" transform="matrix(1.0, 0.0, 0.0, 1.0, 0.0, 0.0)" width="56.0" xlink:href="#sprite22"/>
    </g>
    <g id="sprite22" transform="matrix(1.0, 0.0, 0.0, 1.0, 0.0, 0.0)">
      <use ffdec:characterId="2" height="56.0" id="back" transform="matrix(1.0, 0.0, 0.0, 1.0, 0.0, 0.0)" width="56.0" xlink:href="#sprite23"/>
    </g>
    <g id="sprite23" transform="matrix(1.0, 0.0, 0.0, 1.0, 0.0, 0.0)">
      <use ffdec:characterId="1" height="56.0" transform="matrix(1.0, 0.0, 0.0, 1.0, 0.0, 0.0)" width="56.0" xlink:href="#shape0"/>
    </g>
    <g id="shape0" transform="matrix(1.0, 0.0, 0.0, 1.0, 0.0, 0.0)">
      <path d="M56.0 56.0 L0.0 56.0 0.0 0.0 56.0 0.0 56.0 56.0" fill="#010101" fill-opacity="0.0" fill-rule="evenodd" stroke="none"/>
    </g>
    <g id="sprite24" transform="matrix(1.0, 0.0, 0.0, 1.0, 0.75, 0.75)">
      <use ffdec:characterId="26" height="55.15" transform="matrix(1.0, 0.0, 0.0, 1.0, -0.75, -0.75)" width="55.35" xlink:href="#shape1"/>
    </g>
    <g id="shape1" transform="matrix(1.0, 0.0, 0.0, 1.0, 0.75, 0.75)">
      <path d="M45.3 7.2 Q38.35 1.8 32.45 13.05 34.95 14.0 37.05 16.15 39.3 18.2 40.4 20.65 51.85 14.0 45.3 7.2 M39.4 31.6 Q38.35 33.95 36.45 36.05 34.6 37.95 32.35 38.95 L32.25 39.0 Q29.85 40.1 27.05 40.1 24.45 40.25 22.0 39.3 L22.0 39.2 Q19.6 38.35 17.65 36.45 15.6 34.4 14.55 32.1 13.6 29.85 13.55 27.1 13.45 24.35 14.5 21.9 15.45 19.55 17.25 17.7 19.2 15.65 21.6 14.6 23.95 13.65 26.6 13.55 29.35 13.55 31.7 14.45 34.0 15.35 36.0 17.25 38.0 19.2 38.95 21.5 40.05 23.75 40.1 26.55 40.1 29.25 39.4 31.6 M40.8 32.25 Q39.6 34.85 37.45 37.05 35.55 39.3 33.15 40.35 39.6 51.6 46.55 45.0 52.0 38.35 40.8 32.25 M40.85 32.05 Q53.65 35.3 53.85 25.75 52.85 17.25 40.65 20.95 41.65 23.5 41.75 26.55 41.8 29.45 40.85 32.05 M26.6 12.0 Q29.5 11.95 32.15 12.85 35.45 0.2 25.95 0.0 17.4 0.95 20.95 13.05 23.5 12.0 26.6 12.0 M13.15 21.1 Q14.1 18.7 16.2 16.55 18.2 14.3 20.85 13.25 14.25 2.25 7.75 7.95 1.55 15.05 13.15 21.1 M0.0 27.05 Q0.6 18.45 12.85 21.5 11.9 24.05 11.95 27.15 12.0 30.2 13.15 32.65 0.65 36.45 0.0 27.05 M8.0 45.95 Q15.1 52.1 21.2 40.6 18.7 39.65 16.55 37.6 14.35 35.3 13.25 32.9 2.4 39.35 8.0 45.95 M27.05 41.65 Q30.15 41.65 32.75 40.55 36.55 53.0 27.05 53.65 18.5 53.0 21.6 40.75 24.15 41.75 27.05 41.65 Z" fill="none" stroke="#000000" stroke-linecap="round" stroke-linejoin="round" stroke-opacity="0.2" stroke-width="1.5"/>
    </g>
    <g id="sprite25" transform="matrix(1.0, 0.0, 0.0, 1.0, 0.0, 0.0)">
      <use ffdec:characterId="28" height="53.65" transform="matrix(1.0, 0.0, 0.0, 1.0, 0.0, 0.0)" width="53.85" xlink:href="#shape2"/>
    </g>
    <g id="shape2" transform="matrix(1.0, 0.0, 0.0, 1.0, 0.0, 0.0)">
      <path d="M40.8 32.25 Q52.0 38.35 46.55 45.0 39.6 51.6 33.15 40.35 35.55 39.3 37.45 37.05 39.6 34.85 40.8 32.25 M45.3 7.2 Q51.85 14.0 40.4 20.65 39.3 18.2 37.05 16.15 34.95 14.0 32.45 13.05 38.35 1.8 45.3 7.2 M39.4 31.6 Q38.35 33.95 36.45 36.05 34.6 37.95 32.35 38.95 L32.25 39.0 Q29.85 40.1 27.05 40.1 24.45 40.25 22.0 39.3 L22.0 39.2 Q19.6 38.35 17.65 36.45 15.6 34.4 14.55 32.1 13.6 29.85 13.55 27.1 13.45 24.35 14.5 21.9 15.45 19.55 17.25 17.7 19.2 15.65 21.6 14.6 23.95 13.65 26.6 13.55 29.35 13.55 31.7 14.45 34.0 15.35 36.0 17.25 38.0 19.2 38.95 21.5 40.05 23.75 40.1 26.55 40.1 29.25 39.4 31.6 M8.0 45.95 Q2.4 39.35 13.25 32.9 14.35 35.3 16.55 37.6 18.7 39.65 21.2 40.6 15.1 52.1 8.0 45.95 M13.15 21.1 Q1.55 15.05 7.75 7.95 14.25 2.25 20.85 13.25 18.2 14.3 16.2 16.55 14.1 18.7 13.15 21.1 M26.6 12.0 Q23.5 12.0 20.95 13.05 17.4 0.95 25.95 0.0 35.45 0.2 32.15 12.85 29.5 11.95 26.6 12.0 M40.85 32.05 Q41.8 29.45 41.75 26.55 41.65 23.5 40.65 20.95 52.85 17.25 53.85 25.75 53.65 35.3 40.85 32.05 M0.0 27.05 Q0.6 18.45 12.85 21.5 11.9 24.05 11.95 27.15 12.0 30.2 13.15 32.65 0.65 36.45 0.0 27.05 M27.05 41.65 Q30.15 41.65 32.75 40.55 36.55 53.0 27.05 53.65 18.5 53.0 21.6 40.75 24.15 41.75 27.05 41.65" fill="#000000" fill-rule="evenodd" stroke="none"/>
    </g>
  </defs>
</svg>
