<?xml version="1.0" encoding="UTF-8" standalone="no"?>
<svg xmlns:ffdec="https://www.free-decompiler.com/flash" xmlns:xlink="http://www.w3.org/1999/xlink" ffdec:objectType="frame" height="56.0px" width="56.0px" xmlns="http://www.w3.org/2000/svg">
  <g transform="matrix(1.0, 0.0, 0.0, 1.0, 0.0, 0.0)">
    <use ffdec:characterId="19" ffdec:characterName="18_fla.Symbole54_1" height="56.0" id="back" transform="matrix(1.0, 0.0, 0.0, 1.0, 0.0, 0.0)" width="56.0" xlink:href="#sprite0"/>
    <use ffdec:characterId="21" height="55.55" id="back" transform="matrix(1.0, 0.0, 0.0, 1.0, 0.4, 0.45)" width="55.4" xlink:href="#sprite18"/>
    <use ffdec:characterId="23" height="54.05" id="up" transform="matrix(1.0, 0.0, 0.0, 1.0, 1.15, 1.2)" width="53.9" xlink:href="#sprite19"/>
  </g>
  <defs>
    <g id="sprite0" transform="matrix(1.0, 0.0, 0.0, 1.0, 0.0, 0.0)">
      <use ffdec:characterId="18" ffdec:characterName="18_fla.Symbole51_2" height="56.0" id="back" transform="matrix(1.0, 0.0, 0.0, 1.0, 0.0, 0.0)" width="56.0" xlink:href="#sprite1"/>
    </g>
    <g id="sprite1" transform="matrix(1.0, 0.0, 0.0, 1.0, 0.0, 0.0)">
      <use ffdec:characterId="17" ffdec:characterName="18_fla.Symbole48_3" height="56.0" id="back" transform="matrix(1.0, 0.0, 0.0, 1.0, 0.0, 0.0)" width="56.0" xlink:href="#sprite2"/>
    </g>
    <g id="sprite2" transform="matrix(1.0, 0.0, 0.0, 1.0, 0.0, 0.0)">
      <use ffdec:characterId="16" ffdec:characterName="18_fla.Symbole45_4" height="56.0" id="back" transform="matrix(1.0, 0.0, 0.0, 1.0, 0.0, 0.0)" width="56.0" xlink:href="#sprite3"/>
    </g>
    <g id="sprite3" transform="matrix(1.0, 0.0, 0.0, 1.0, 0.0, 0.0)">
      <use ffdec:characterId="15" ffdec:characterName="18_fla.Symbole42_5" height="56.0" id="back" transform="matrix(1.0, 0.0, 0.0, 1.0, 0.0, 0.0)" width="56.0" xlink:href="#sprite4"/>
    </g>
    <g id="sprite4" transform="matrix(1.0, 0.0, 0.0, 1.0, 0.0, 0.0)">
      <use ffdec:characterId="14" ffdec:characterName="18_fla.Symbole39_6" height="56.0" id="back" transform="matrix(1.0, 0.0, 0.0, 1.0, 0.0, 0.0)" width="56.0" xlink:href="#sprite5"/>
    </g>
    <g id="sprite5" transform="matrix(1.0, 0.0, 0.0, 1.0, 0.0, 0.0)">
      <use ffdec:characterId="13" ffdec:characterName="18_fla.Symbole36_7" height="56.0" id="back" transform="matrix(1.0, 0.0, 0.0, 1.0, 0.0, 0.0)" width="56.0" xlink:href="#sprite6"/>
    </g>
    <g id="sprite6" transform="matrix(1.0, 0.0, 0.0, 1.0, 0.0, 0.0)">
      <use ffdec:characterId="12" ffdec:characterName="18_fla.Symbole33_8" height="56.0" id="back" transform="matrix(1.0, 0.0, 0.0, 1.0, 0.0, 0.0)" width="56.0" xlink:href="#sprite7"/>
    </g>
    <g id="sprite7" transform="matrix(1.0, 0.0, 0.0, 1.0, 0.0, 0.0)">
      <use ffdec:characterId="11" ffdec:characterName="18_fla.Symbole30_9" height="56.0" id="back" transform="matrix(1.0, 0.0, 0.0, 1.0, 0.0, 0.0)" width="56.0" xlink:href="#sprite8"/>
    </g>
    <g id="sprite8" transform="matrix(1.0, 0.0, 0.0, 1.0, 0.0, 0.0)">
      <use ffdec:characterId="10" ffdec:characterName="18_fla.Symbole27_10" height="56.0" id="back" transform="matrix(1.0, 0.0, 0.0, 1.0, 0.0, 0.0)" width="56.0" xlink:href="#sprite9"/>
    </g>
    <g id="sprite9" transform="matrix(1.0, 0.0, 0.0, 1.0, 0.0, 0.0)">
      <use ffdec:characterId="9" ffdec:characterName="18_fla.Symbole24_11" height="56.0" id="back" transform="matrix(1.0, 0.0, 0.0, 1.0, 0.0, 0.0)" width="56.0" xlink:href="#sprite10"/>
    </g>
    <g id="sprite10" transform="matrix(1.0, 0.0, 0.0, 1.0, 0.0, 0.0)">
      <use ffdec:characterId="8" ffdec:characterName="18_fla.Symbole21_12" height="56.0" id="back" transform="matrix(1.0, 0.0, 0.0, 1.0, 0.0, 0.0)" width="56.0" xlink:href="#sprite11"/>
    </g>
    <g id="sprite11" transform="matrix(1.0, 0.0, 0.0, 1.0, 0.0, 0.0)">
      <use ffdec:characterId="7" ffdec:characterName="18_fla.Symbole18_13" height="56.0" id="back" transform="matrix(1.0, 0.0, 0.0, 1.0, 0.0, 0.0)" width="56.0" xlink:href="#sprite12"/>
    </g>
    <g id="sprite12" transform="matrix(1.0, 0.0, 0.0, 1.0, 0.0, 0.0)">
      <use ffdec:characterId="6" ffdec:characterName="18_fla.Symbole15_14" height="56.0" id="back" transform="matrix(1.0, 0.0, 0.0, 1.0, 0.0, 0.0)" width="56.0" xlink:href="#sprite13"/>
    </g>
    <g id="sprite13" transform="matrix(1.0, 0.0, 0.0, 1.0, 0.0, 0.0)">
      <use ffdec:characterId="5" ffdec:characterName="18_fla.Symbole12_15" height="56.0" id="back" transform="matrix(1.0, 0.0, 0.0, 1.0, 0.0, 0.0)" width="56.0" xlink:href="#sprite14"/>
    </g>
    <g id="sprite14" transform="matrix(1.0, 0.0, 0.0, 1.0, 0.0, 0.0)">
      <use ffdec:characterId="4" ffdec:characterName="18_fla.Symbole9_16" height="56.0" id="back" transform="matrix(1.0, 0.0, 0.0, 1.0, 0.0, 0.0)" width="56.0" xlink:href="#sprite15"/>
    </g>
    <g id="sprite15" transform="matrix(1.0, 0.0, 0.0, 1.0, 0.0, 0.0)">
      <use ffdec:characterId="3" ffdec:characterName="18_fla.Symbole6_17" height="56.0" id="back" transform="matrix(1.0, 0.0, 0.0, 1.0, 0.0, 0.0)" width="56.0" xlink:href="#sprite16"/>
    </g>
    <g id="sprite16" transform="matrix(1.0, 0.0, 0.0, 1.0, 0.0, 0.0)">
      <use ffdec:characterId="2" height="56.0" id="back" transform="matrix(1.0, 0.0, 0.0, 1.0, 0.0, 0.0)" width="56.0" xlink:href="#sprite17"/>
    </g>
    <g id="sprite17" transform="matrix(1.0, 0.0, 0.0, 1.0, 0.0, 0.0)">
      <use ffdec:characterId="1" height="56.0" transform="matrix(1.0, 0.0, 0.0, 1.0, 0.0, 0.0)" width="56.0" xlink:href="#shape0"/>
    </g>
    <g id="shape0" transform="matrix(1.0, 0.0, 0.0, 1.0, 0.0, 0.0)">
      <path d="M56.0 56.0 L0.0 56.0 0.0 0.0 56.0 0.0 56.0 56.0" fill="#010101" fill-opacity="0.0" fill-rule="evenodd" stroke="none"/>
    </g>
    <g id="sprite18" transform="matrix(1.0, 0.0, 0.0, 1.0, 0.75, 0.75)">
      <use ffdec:characterId="20" height="55.55" transform="matrix(1.0, 0.0, 0.0, 1.0, -0.75, -0.75)" width="55.4" xlink:href="#shape1"/>
    </g>
    <g id="shape1" transform="matrix(1.0, 0.0, 0.0, 1.0, 0.75, 0.75)">
      <path d="M43.65 9.7 Q43.1 9.2 42.35 9.2 41.65 9.2 41.2 9.7 40.6 10.3 40.6 11.0 L39.55 11.0 39.55 11.8 41.7 11.8 Q41.4 11.4 41.4 11.0 41.4 9.95 42.35 10.1 43.35 9.95 43.4 11.0 L43.1 11.8 45.15 11.8 45.15 11.0 44.1 11.0 Q44.25 10.3 43.65 9.7 M45.15 13.1 L39.55 13.1 39.55 12.25 45.15 12.25 45.15 13.1 M47.45 19.4 L46.6 19.0 Q46.15 19.0 45.8 19.4 45.4 19.0 44.95 19.0 44.5 19.0 44.25 19.4 L44.7 19.9 Q44.85 19.8 44.95 19.8 45.4 19.8 45.4 20.2 L45.4 23.05 46.15 23.05 46.15 20.2 Q46.15 19.8 46.6 19.8 47.0 19.8 47.0 20.2 L47.0 23.05 47.75 23.05 47.75 20.2 Q47.75 19.8 48.15 19.8 L48.6 20.0 Q48.1 21.3 49.4 22.9 L48.5 23.7 49.05 24.2 49.8 23.5 50.7 24.2 51.2 23.7 50.35 22.9 Q51.35 21.5 51.1 20.2 50.9 19.0 49.8 19.0 49.25 19.0 48.95 19.4 48.6 19.0 48.15 19.0 47.75 19.0 47.45 19.4 M50.1 13.15 L41.3 18.3 Q39.15 14.8 35.8 12.75 L40.85 3.85 Q46.7 7.35 50.1 13.15 M50.55 14.0 Q53.75 19.9 53.9 26.6 L43.8 26.6 Q43.65 22.65 41.7 19.0 L50.55 14.0 M50.25 33.65 Q50.05 34.15 49.45 34.3 48.6 34.15 48.6 33.45 48.6 33.0 48.95 32.3 L49.2 31.25 Q49.2 30.6 48.75 30.2 48.15 29.6 47.5 29.6 46.85 29.6 46.45 30.2 45.95 30.6 45.95 31.25 45.95 31.7 46.25 32.2 L46.6 33.0 Q46.6 33.45 46.0 33.5 45.55 33.45 45.6 33.0 45.55 32.6 45.7 32.55 L45.15 32.0 Q44.7 32.3 44.7 33.0 44.7 33.45 45.15 33.85 L46.0 34.3 47.0 33.85 47.3 33.0 47.05 32.0 46.8 31.25 Q46.7 30.4 47.5 30.5 48.3 30.4 48.35 31.25 L48.1 32.3 47.9 33.45 Q47.9 34.05 48.3 34.5 48.75 34.95 49.45 35.05 50.35 34.95 50.9 34.15 L50.25 33.65 M43.8 27.6 L53.9 27.6 Q53.7 34.35 50.5 40.2 L41.7 35.15 Q43.55 31.55 43.8 27.6 M40.2 41.05 L40.2 41.85 Q41.2 40.85 43.0 41.0 42.5 41.5 42.95 42.25 43.2 42.8 44.0 42.95 L44.7 42.55 45.15 41.7 Q45.1 40.45 43.1 40.2 41.2 40.0 40.2 41.05 M42.1 42.55 Q41.8 41.9 41.05 41.9 40.6 41.85 40.35 42.25 39.9 42.55 39.9 43.15 39.9 44.3 41.9 44.55 43.8 44.7 44.85 43.8 L44.85 42.95 Q43.8 43.85 42.05 43.8 42.5 43.25 42.1 42.55 M50.05 41.0 Q46.45 46.8 40.75 50.25 L35.65 41.4 Q39.15 39.3 41.3 35.9 L50.05 41.0 M29.65 4.1 Q30.1 4.1 30.1 4.55 L30.1 7.35 30.85 7.35 30.85 4.55 Q30.7 4.1 31.3 4.1 L31.7 4.55 31.7 7.35 32.45 7.35 32.45 4.55 Q32.35 4.1 32.85 4.1 L33.3 4.55 33.3 7.35 Q33.2 7.75 33.65 8.2 33.95 8.6 34.5 8.6 34.95 8.6 35.25 8.2 L35.65 7.35 35.65 6.85 36.1 7.15 36.0 6.2 35.25 5.4 34.5 6.2 34.5 7.15 34.95 6.85 34.95 7.35 Q34.95 7.75 34.5 7.75 34.05 7.75 34.05 7.35 L34.05 4.55 33.65 3.65 Q33.3 3.4 32.85 3.4 32.35 3.25 32.0 3.65 31.7 3.25 31.3 3.4 30.7 3.25 30.4 3.65 30.1 3.25 29.65 3.4 29.2 3.25 28.9 3.65 L29.4 4.25 Q29.55 4.1 29.65 4.1 M24.7 2.95 L23.1 2.95 22.3 3.65 23.55 3.65 21.4 5.75 20.55 4.85 20.05 5.4 20.95 6.25 18.6 8.6 19.65 8.6 21.4 6.7 22.25 7.55 22.7 7.05 22.0 6.2 24.0 4.1 24.0 5.3 24.7 4.7 24.7 2.95 M27.4 0.0 Q34.15 0.15 40.15 3.45 L35.05 12.25 Q31.45 10.3 27.4 10.15 L27.4 0.0 M26.5 10.15 Q22.5 10.3 19.0 12.25 L13.9 3.45 Q19.85 0.15 26.5 0.0 L26.5 10.15 M26.95 11.0 Q20.25 11.0 15.6 15.8 11.0 20.45 11.0 27.0 11.0 33.65 15.6 38.4 20.25 43.0 26.95 43.0 33.5 43.0 38.25 38.4 42.95 33.65 42.95 27.0 42.95 20.45 38.25 15.8 33.5 11.0 26.95 11.0 M12.95 8.0 Q12.3 7.9 11.95 8.35 11.5 8.8 11.5 9.25 11.5 9.7 11.75 9.95 L10.2 9.95 9.75 13.0 9.35 9.95 8.5 9.95 6.95 11.0 7.4 11.7 8.7 10.7 9.15 14.0 10.45 14.0 10.9 10.7 12.2 10.7 13.05 11.45 13.9 12.1 14.05 12.75 13.4 13.15 12.75 13.0 12.2 13.4 Q12.6 13.85 13.4 14.0 14.25 13.85 14.7 13.15 14.95 12.55 14.7 12.0 14.45 11.45 13.9 11.25 L13.2 10.55 Q14.25 10.5 14.25 9.25 L13.9 8.35 Q13.5 7.9 12.95 8.0 M3.25 20.2 L4.2 19.25 5.05 20.2 6.05 19.25 7.0 20.2 8.0 19.25 8.0 20.2 7.0 21.2 6.05 20.2 5.05 21.2 4.2 20.2 3.25 21.2 3.25 20.2 M3.25 22.25 L4.2 21.3 5.05 22.25 6.05 21.3 7.0 22.25 8.0 21.3 8.0 22.25 7.0 23.1 6.05 22.25 5.05 23.1 4.2 22.25 3.25 23.1 3.25 22.25 M12.6 18.3 L3.9 13.1 Q7.35 7.3 13.2 3.85 L18.2 12.7 Q14.75 14.65 12.6 18.3 M12.2 19.0 Q10.2 22.5 10.15 26.6 L0.0 26.6 Q0.1 19.8 3.45 14.0 L12.2 19.0 M12.2 35.05 L3.3 40.15 Q0.1 34.15 0.0 27.45 L10.15 27.45 Q10.2 31.45 12.2 35.05 M3.65 33.05 L4.6 33.05 Q4.5 34.3 3.65 35.15 L4.2 35.65 Q5.25 34.6 5.4 33.05 L6.5 33.05 Q6.55 34.6 7.65 35.65 L8.25 35.15 Q7.35 34.3 7.2 33.05 L8.3 33.05 8.3 32.3 7.2 32.3 Q7.35 31.1 8.25 30.25 L7.65 29.75 Q6.55 30.85 6.5 32.3 L5.4 32.3 Q5.25 30.85 4.2 29.75 L3.65 30.25 Q4.5 31.1 4.6 32.3 L3.65 32.3 3.65 33.05 M10.8 40.75 Q10.0 40.75 9.6 41.3 9.15 41.7 9.15 42.35 9.15 43.55 10.35 43.85 L10.6 43.15 Q9.9 42.95 10.0 42.35 9.9 41.5 10.8 41.65 11.5 41.5 11.5 42.35 L11.5 44.95 12.3 44.95 12.3 42.35 Q12.3 41.5 13.2 41.65 13.9 41.5 13.9 42.35 13.8 42.95 13.25 43.15 L13.5 43.85 Q14.7 43.55 14.7 42.35 14.7 41.7 14.25 41.3 13.65 40.75 13.2 40.75 12.35 40.75 11.95 41.3 11.45 40.75 10.8 40.75 M18.15 41.4 L13.05 50.25 Q7.2 46.7 3.75 41.0 L12.6 35.9 Q14.7 39.25 18.15 41.4 M20.05 45.75 L19.3 45.75 Q19.3 46.7 20.1 47.35 19.3 47.95 19.3 49.05 19.2 49.95 19.85 50.55 20.5 51.25 21.4 51.25 22.3 51.25 22.95 50.55 23.55 49.95 23.55 49.05 23.55 47.95 22.65 47.35 23.4 46.7 23.55 45.75 L22.7 45.75 Q22.5 46.9 21.4 46.9 20.25 46.9 20.05 45.75 M34.5 45.85 L30.4 45.85 30.4 46.7 31.15 46.7 31.15 49.4 30.4 49.4 30.4 50.15 34.5 50.15 34.5 49.4 33.65 49.4 33.65 46.7 34.5 46.7 34.5 45.85 M34.95 41.85 L40.0 50.7 Q34.05 53.95 27.4 54.05 L27.4 43.85 Q31.35 43.8 34.95 41.85 M26.5 43.85 L26.5 54.05 Q19.65 53.95 13.8 50.7 L19.0 41.85 Q22.45 43.8 26.5 43.85 Z" fill="none" stroke="#000000" stroke-linecap="round" stroke-linejoin="round" stroke-opacity="0.2" stroke-width="1.5"/>
    </g>
    <g id="sprite19" transform="matrix(1.0, 0.0, 0.0, 1.0, 0.0, 0.0)">
      <use ffdec:characterId="22" height="54.05" transform="matrix(1.0, 0.0, 0.0, 1.0, 0.0, 0.0)" width="53.9" xlink:href="#shape2"/>
    </g>
    <g id="shape2" transform="matrix(1.0, 0.0, 0.0, 1.0, 0.0, 0.0)">
      <path d="M43.65 9.7 Q43.1 9.2 42.35 9.2 41.65 9.2 41.2 9.7 40.6 10.3 40.6 11.0 L39.55 11.0 39.55 11.8 41.7 11.8 Q41.4 11.4 41.4 11.0 41.4 9.95 42.35 10.1 43.35 9.95 43.4 11.0 L43.1 11.8 45.15 11.8 45.15 11.0 44.1 11.0 Q44.25 10.3 43.65 9.7 M45.15 13.1 L45.15 12.25 39.55 12.25 39.55 13.1 45.15 13.1 M47.45 19.4 L46.6 19.0 Q46.15 19.0 45.8 19.4 45.4 19.0 44.95 19.0 44.5 19.0 44.25 19.4 L44.7 19.9 Q44.85 19.8 44.95 19.8 45.4 19.8 45.4 20.2 L45.4 23.05 46.15 23.05 46.15 20.2 Q46.15 19.8 46.6 19.8 47.0 19.8 47.0 20.2 L47.0 23.05 47.75 23.05 47.75 20.2 Q47.75 19.8 48.15 19.8 L48.6 20.0 Q48.1 21.3 49.4 22.9 L48.5 23.7 49.05 24.2 49.8 23.5 50.7 24.2 51.2 23.7 50.35 22.9 Q51.35 21.5 51.1 20.2 50.9 19.0 49.8 19.0 49.25 19.0 48.95 19.4 48.6 19.0 48.15 19.0 47.75 19.0 47.45 19.4 M49.8 22.25 Q49.2 21.3 49.25 20.5 49.4 19.8 49.8 19.8 50.35 19.8 50.5 20.5 50.5 21.3 49.8 22.25 M50.55 14.0 Q53.75 19.9 53.9 26.6 L43.8 26.6 Q43.65 22.65 41.7 19.0 L50.55 14.0 M50.1 13.15 L41.3 18.3 Q39.15 14.8 35.8 12.75 L40.85 3.85 Q46.7 7.35 50.1 13.15 M50.25 33.65 Q50.05 34.15 49.45 34.3 48.6 34.15 48.6 33.45 48.6 33.0 48.95 32.3 L49.2 31.25 Q49.2 30.6 48.75 30.2 48.15 29.6 47.5 29.6 46.85 29.6 46.45 30.2 45.95 30.6 45.95 31.25 45.95 31.7 46.25 32.2 L46.6 33.0 Q46.6 33.45 46.0 33.5 45.55 33.45 45.6 33.0 45.55 32.6 45.7 32.55 L45.15 32.0 Q44.7 32.3 44.7 33.0 44.7 33.45 45.15 33.85 L46.0 34.3 47.0 33.85 47.3 33.0 47.05 32.0 46.8 31.25 Q46.7 30.4 47.5 30.5 48.3 30.4 48.35 31.25 L48.1 32.3 47.9 33.45 Q47.9 34.05 48.3 34.5 48.75 34.95 49.45 35.05 50.35 34.95 50.9 34.15 L50.25 33.65 M43.8 27.6 L53.9 27.6 Q53.7 34.35 50.5 40.2 L41.7 35.15 Q43.55 31.55 43.8 27.6 M44.0 41.3 Q44.3 41.2 44.3 41.7 L44.0 42.1 43.55 41.7 Q43.55 41.2 44.0 41.3 M40.2 41.05 L40.2 41.85 Q41.2 40.85 43.0 41.0 42.5 41.5 42.95 42.25 43.2 42.8 44.0 42.95 L44.7 42.55 45.15 41.7 Q45.1 40.45 43.1 40.2 41.2 40.0 40.2 41.05 M40.6 43.15 Q40.6 42.7 41.05 42.7 41.5 42.7 41.5 43.15 L41.05 43.4 Q40.6 43.4 40.6 43.15 M42.1 42.55 Q41.8 41.9 41.05 41.9 40.6 41.85 40.35 42.25 39.9 42.55 39.9 43.15 39.9 44.3 41.9 44.55 43.8 44.7 44.85 43.8 L44.85 42.95 Q43.8 43.85 42.05 43.8 42.5 43.25 42.1 42.55 M50.05 41.0 Q46.45 46.8 40.75 50.25 L35.65 41.4 Q39.15 39.3 41.3 35.9 L50.05 41.0 M29.65 4.1 Q30.1 4.1 30.1 4.55 L30.1 7.35 30.85 7.35 30.85 4.55 Q30.7 4.1 31.3 4.1 L31.7 4.55 31.7 7.35 32.45 7.35 32.45 4.55 Q32.35 4.1 32.85 4.1 L33.3 4.55 33.3 7.35 Q33.2 7.75 33.65 8.2 33.95 8.6 34.5 8.6 34.95 8.6 35.25 8.2 L35.65 7.35 35.65 6.85 36.1 7.15 36.0 6.2 35.25 5.4 34.5 6.2 34.5 7.15 34.95 6.85 34.95 7.35 Q34.95 7.75 34.5 7.75 34.05 7.75 34.05 7.35 L34.05 4.55 33.65 3.65 Q33.3 3.4 32.85 3.4 32.35 3.25 32.0 3.65 31.7 3.25 31.3 3.4 30.7 3.25 30.4 3.65 30.1 3.25 29.65 3.4 29.2 3.25 28.9 3.65 L29.4 4.25 Q29.55 4.1 29.65 4.1 M24.7 2.95 L23.1 2.95 22.3 3.65 23.55 3.65 21.4 5.75 20.55 4.85 20.05 5.4 20.95 6.25 18.6 8.6 19.65 8.6 21.4 6.7 22.25 7.55 22.7 7.05 22.0 6.2 24.0 4.1 24.0 5.3 24.7 4.7 24.7 2.95 M26.5 10.15 Q22.5 10.3 19.0 12.25 L13.9 3.45 Q19.85 0.15 26.5 0.0 L26.5 10.15 M27.4 0.0 Q34.15 0.15 40.15 3.45 L35.05 12.25 Q31.45 10.3 27.4 10.15 L27.4 0.0 M26.95 11.0 Q33.5 11.0 38.25 15.8 42.95 20.45 42.95 27.0 42.95 33.65 38.25 38.4 33.5 43.0 26.95 43.0 20.25 43.0 15.6 38.4 11.0 33.65 11.0 27.0 11.0 20.45 15.6 15.8 20.25 11.0 26.95 11.0 M12.95 8.8 Q13.5 8.65 13.6 9.25 13.5 9.95 12.95 9.95 12.3 9.95 12.3 9.25 12.3 8.65 12.95 8.8 M11.75 9.95 L10.2 9.95 9.75 13.0 9.35 9.95 8.5 9.95 6.95 11.0 7.4 11.7 8.7 10.7 9.15 14.0 10.45 14.0 10.9 10.7 12.2 10.7 13.05 11.45 13.9 12.1 14.05 12.75 13.4 13.15 12.75 13.0 12.2 13.4 Q12.6 13.85 13.4 14.0 14.25 13.85 14.7 13.15 14.95 12.55 14.7 12.0 14.45 11.45 13.9 11.25 L13.2 10.55 Q14.25 10.5 14.25 9.25 L13.9 8.35 Q13.5 7.9 12.95 8.0 12.3 7.9 11.95 8.35 11.5 8.8 11.5 9.25 11.5 9.7 11.75 9.95 M3.25 20.2 L3.25 21.2 4.2 20.2 5.05 21.2 6.05 20.2 7.0 21.2 8.0 20.2 8.0 19.25 7.0 20.2 6.05 19.25 5.05 20.2 4.2 19.25 3.25 20.2 M3.25 22.25 L3.25 23.1 4.2 22.25 5.05 23.1 6.05 22.25 7.0 23.1 8.0 22.25 8.0 21.3 7.0 22.25 6.05 21.3 5.05 22.25 4.2 21.3 3.25 22.25 M12.6 18.3 L3.9 13.1 Q7.35 7.3 13.2 3.85 L18.2 12.7 Q14.75 14.65 12.6 18.3 M12.2 19.0 Q10.2 22.5 10.15 26.6 L0.0 26.6 Q0.1 19.8 3.45 14.0 L12.2 19.0 M12.2 35.05 L3.3 40.15 Q0.1 34.15 0.0 27.45 L10.15 27.45 Q10.2 31.45 12.2 35.05 M3.65 33.05 L4.6 33.05 Q4.5 34.3 3.65 35.15 L4.2 35.65 Q5.25 34.6 5.4 33.05 L6.5 33.05 Q6.55 34.6 7.65 35.65 L8.25 35.15 Q7.35 34.3 7.2 33.05 L8.3 33.05 8.3 32.3 7.2 32.3 Q7.35 31.1 8.25 30.25 L7.65 29.75 Q6.55 30.85 6.5 32.3 L5.4 32.3 Q5.25 30.85 4.2 29.75 L3.65 30.25 Q4.5 31.1 4.6 32.3 L3.65 32.3 3.65 33.05 M10.8 40.75 Q10.0 40.75 9.6 41.3 9.15 41.7 9.15 42.35 9.15 43.55 10.35 43.85 L10.6 43.15 Q9.9 42.95 10.0 42.35 9.9 41.5 10.8 41.65 11.5 41.5 11.5 42.35 L11.5 44.95 12.3 44.95 12.3 42.35 Q12.3 41.5 13.2 41.65 13.9 41.5 13.9 42.35 13.8 42.95 13.25 43.15 L13.5 43.85 Q14.7 43.55 14.7 42.35 14.7 41.7 14.25 41.3 13.65 40.75 13.2 40.75 12.35 40.75 11.95 41.3 11.45 40.75 10.8 40.75 M18.15 41.4 L13.05 50.25 Q7.2 46.7 3.75 41.0 L12.6 35.9 Q14.7 39.25 18.15 41.4 M21.4 46.9 Q20.25 46.9 20.05 45.75 L19.3 45.75 Q19.3 46.7 20.1 47.35 19.3 47.95 19.3 49.05 19.2 49.95 19.85 50.55 20.5 51.25 21.4 51.25 22.3 51.25 22.95 50.55 23.55 49.95 23.55 49.05 23.55 47.95 22.65 47.35 23.4 46.7 23.55 45.75 L22.7 45.75 Q22.5 46.9 21.4 46.9 M21.4 47.75 Q22.0 47.65 22.3 48.1 22.7 48.55 22.7 49.05 22.7 49.65 22.3 50.1 L21.4 50.5 20.5 50.1 Q20.05 49.65 20.05 49.05 20.05 48.55 20.5 48.1 20.8 47.65 21.4 47.75 M32.85 46.7 L32.85 49.4 31.9 49.4 31.9 46.7 32.85 46.7 M34.5 45.85 L30.4 45.85 30.4 46.7 31.15 46.7 31.15 49.4 30.4 49.4 30.4 50.15 34.5 50.15 34.5 49.4 33.65 49.4 33.65 46.7 34.5 46.7 34.5 45.85 M34.95 41.85 L40.0 50.7 Q34.05 53.95 27.4 54.05 L27.4 43.85 Q31.35 43.8 34.95 41.85 M26.5 43.85 L26.5 54.05 Q19.65 53.95 13.8 50.7 L19.0 41.85 Q22.45 43.8 26.5 43.85" fill="#000000" fill-rule="evenodd" stroke="none"/>
    </g>
  </defs>
</svg>
