<?xml version="1.0" encoding="UTF-8" standalone="no"?>
<svg xmlns:ffdec="https://www.free-decompiler.com/flash" xmlns:xlink="http://www.w3.org/1999/xlink" ffdec:objectType="frame" height="56.0px" width="56.0px" xmlns="http://www.w3.org/2000/svg">
  <g transform="matrix(1.0, 0.0, 0.0, 1.0, 0.0, 0.0)">
    <use ffdec:characterId="26" ffdec:characterName="180_fla.Symbole261_1" height="56.0" id="back" transform="matrix(1.0, 0.0, 0.0, 1.0, 0.0, 0.0)" width="56.0" xlink:href="#sprite0"/>
    <use ffdec:characterId="28" height="55.25" id="back" transform="matrix(1.0, 0.0, 0.0, 1.0, 2.65, 0.3)" width="50.55" xlink:href="#sprite25"/>
    <use ffdec:characterId="30" height="53.75" id="up" transform="matrix(1.0, 0.0, 0.0, 1.0, 3.4, 1.05)" width="49.05" xlink:href="#sprite26"/>
  </g>
  <defs>
    <g id="sprite0" transform="matrix(1.0, 0.0, 0.0, 1.0, 0.0, 0.0)">
      <use ffdec:characterId="25" ffdec:characterName="180_fla.Symbole258_2" height="56.0" id="back" transform="matrix(1.0, 0.0, 0.0, 1.0, 0.0, 0.0)" width="56.0" xlink:href="#sprite1"/>
    </g>
    <g id="sprite1" transform="matrix(1.0, 0.0, 0.0, 1.0, 0.0, 0.0)">
      <use ffdec:characterId="24" ffdec:characterName="180_fla.Symbole255_3" height="56.0" id="back" transform="matrix(1.0, 0.0, 0.0, 1.0, 0.0, 0.0)" width="56.0" xlink:href="#sprite2"/>
    </g>
    <g id="sprite2" transform="matrix(1.0, 0.0, 0.0, 1.0, 0.0, 0.0)">
      <use ffdec:characterId="23" ffdec:characterName="180_fla.Symbole252_4" height="56.0" id="back" transform="matrix(1.0, 0.0, 0.0, 1.0, 0.0, 0.0)" width="56.0" xlink:href="#sprite3"/>
    </g>
    <g id="sprite3" transform="matrix(1.0, 0.0, 0.0, 1.0, 0.0, 0.0)">
      <use ffdec:characterId="22" ffdec:characterName="180_fla.Symbole249_5" height="56.0" id="back" transform="matrix(1.0, 0.0, 0.0, 1.0, 0.0, 0.0)" width="56.0" xlink:href="#sprite4"/>
    </g>
    <g id="sprite4" transform="matrix(1.0, 0.0, 0.0, 1.0, 0.0, 0.0)">
      <use ffdec:characterId="21" ffdec:characterName="180_fla.Symbole246_6" height="56.0" id="back" transform="matrix(1.0, 0.0, 0.0, 1.0, 0.0, 0.0)" width="56.0" xlink:href="#sprite5"/>
    </g>
    <g id="sprite5" transform="matrix(1.0, 0.0, 0.0, 1.0, 0.0, 0.0)">
      <use ffdec:characterId="20" ffdec:characterName="180_fla.Symbole243_7" height="56.0" id="back" transform="matrix(1.0, 0.0, 0.0, 1.0, 0.0, 0.0)" width="56.0" xlink:href="#sprite6"/>
    </g>
    <g id="sprite6" transform="matrix(1.0, 0.0, 0.0, 1.0, 0.0, 0.0)">
      <use ffdec:characterId="19" ffdec:characterName="180_fla.Symbole240_8" height="56.0" id="back" transform="matrix(1.0, 0.0, 0.0, 1.0, 0.0, 0.0)" width="56.0" xlink:href="#sprite7"/>
    </g>
    <g id="sprite7" transform="matrix(1.0, 0.0, 0.0, 1.0, 0.0, 0.0)">
      <use ffdec:characterId="18" ffdec:characterName="180_fla.Symbole237_9" height="56.0" id="back" transform="matrix(1.0, 0.0, 0.0, 1.0, 0.0, 0.0)" width="56.0" xlink:href="#sprite8"/>
    </g>
    <g id="sprite8" transform="matrix(1.0, 0.0, 0.0, 1.0, 0.0, 0.0)">
      <use ffdec:characterId="17" ffdec:characterName="180_fla.Symbole234_10" height="56.0" id="back" transform="matrix(1.0, 0.0, 0.0, 1.0, 0.0, 0.0)" width="56.0" xlink:href="#sprite9"/>
    </g>
    <g id="sprite9" transform="matrix(1.0, 0.0, 0.0, 1.0, 0.0, 0.0)">
      <use ffdec:characterId="16" ffdec:characterName="180_fla.Symbole231_11" height="56.0" id="back" transform="matrix(1.0, 0.0, 0.0, 1.0, 0.0, 0.0)" width="56.0" xlink:href="#sprite10"/>
    </g>
    <g id="sprite10" transform="matrix(1.0, 0.0, 0.0, 1.0, 0.0, 0.0)">
      <use ffdec:characterId="15" ffdec:characterName="180_fla.Symbole228_12" height="56.0" id="back" transform="matrix(1.0, 0.0, 0.0, 1.0, 0.0, 0.0)" width="56.0" xlink:href="#sprite11"/>
    </g>
    <g id="sprite11" transform="matrix(1.0, 0.0, 0.0, 1.0, 0.0, 0.0)">
      <use ffdec:characterId="14" ffdec:characterName="180_fla.Symbole225_13" height="56.0" id="back" transform="matrix(1.0, 0.0, 0.0, 1.0, 0.0, 0.0)" width="56.0" xlink:href="#sprite12"/>
    </g>
    <g id="sprite12" transform="matrix(1.0, 0.0, 0.0, 1.0, 0.0, 0.0)">
      <use ffdec:characterId="13" ffdec:characterName="180_fla.Symbole222_14" height="56.0" id="back" transform="matrix(1.0, 0.0, 0.0, 1.0, 0.0, 0.0)" width="56.0" xlink:href="#sprite13"/>
    </g>
    <g id="sprite13" transform="matrix(1.0, 0.0, 0.0, 1.0, 0.0, 0.0)">
      <use ffdec:characterId="12" ffdec:characterName="180_fla.Symbole219_15" height="56.0" id="back" transform="matrix(1.0, 0.0, 0.0, 1.0, 0.0, 0.0)" width="56.0" xlink:href="#sprite14"/>
    </g>
    <g id="sprite14" transform="matrix(1.0, 0.0, 0.0, 1.0, 0.0, 0.0)">
      <use ffdec:characterId="11" ffdec:characterName="180_fla.Symbole216_16" height="56.0" id="back" transform="matrix(1.0, 0.0, 0.0, 1.0, 0.0, 0.0)" width="56.0" xlink:href="#sprite15"/>
    </g>
    <g id="sprite15" transform="matrix(1.0, 0.0, 0.0, 1.0, 0.0, 0.0)">
      <use ffdec:characterId="10" ffdec:characterName="180_fla.Symbole213_17" height="56.0" id="back" transform="matrix(1.0, 0.0, 0.0, 1.0, 0.0, 0.0)" width="56.0" xlink:href="#sprite16"/>
    </g>
    <g id="sprite16" transform="matrix(1.0, 0.0, 0.0, 1.0, 0.0, 0.0)">
      <use ffdec:characterId="9" ffdec:characterName="180_fla.Symbole210_18" height="56.0" id="back" transform="matrix(1.0, 0.0, 0.0, 1.0, 0.0, 0.0)" width="56.0" xlink:href="#sprite17"/>
    </g>
    <g id="sprite17" transform="matrix(1.0, 0.0, 0.0, 1.0, 0.0, 0.0)">
      <use ffdec:characterId="8" ffdec:characterName="180_fla.Symbole207_19" height="56.0" id="back" transform="matrix(1.0, 0.0, 0.0, 1.0, 0.0, 0.0)" width="56.0" xlink:href="#sprite18"/>
    </g>
    <g id="sprite18" transform="matrix(1.0, 0.0, 0.0, 1.0, 0.0, 0.0)">
      <use ffdec:characterId="7" ffdec:characterName="180_fla.Symbole204_20" height="56.0" id="back" transform="matrix(1.0, 0.0, 0.0, 1.0, 0.0, 0.0)" width="56.0" xlink:href="#sprite19"/>
    </g>
    <g id="sprite19" transform="matrix(1.0, 0.0, 0.0, 1.0, 0.0, 0.0)">
      <use ffdec:characterId="6" ffdec:characterName="180_fla.Symbole201_21" height="56.0" id="back" transform="matrix(1.0, 0.0, 0.0, 1.0, 0.0, 0.0)" width="56.0" xlink:href="#sprite20"/>
    </g>
    <g id="sprite20" transform="matrix(1.0, 0.0, 0.0, 1.0, 0.0, 0.0)">
      <use ffdec:characterId="5" ffdec:characterName="180_fla.Symbole198_22" height="56.0" id="back" transform="matrix(1.0, 0.0, 0.0, 1.0, 0.0, 0.0)" width="56.0" xlink:href="#sprite21"/>
    </g>
    <g id="sprite21" transform="matrix(1.0, 0.0, 0.0, 1.0, 0.0, 0.0)">
      <use ffdec:characterId="4" ffdec:characterName="180_fla.Symbole195_23" height="56.0" id="back" transform="matrix(1.0, 0.0, 0.0, 1.0, 0.0, 0.0)" width="56.0" xlink:href="#sprite22"/>
    </g>
    <g id="sprite22" transform="matrix(1.0, 0.0, 0.0, 1.0, 0.0, 0.0)">
      <use ffdec:characterId="3" ffdec:characterName="180_fla.Symbole192_24" height="56.0" id="back" transform="matrix(1.0, 0.0, 0.0, 1.0, 0.0, 0.0)" width="56.0" xlink:href="#sprite23"/>
    </g>
    <g id="sprite23" transform="matrix(1.0, 0.0, 0.0, 1.0, 0.0, 0.0)">
      <use ffdec:characterId="2" height="56.0" id="back" transform="matrix(1.0, 0.0, 0.0, 1.0, 0.0, 0.0)" width="56.0" xlink:href="#sprite24"/>
    </g>
    <g id="sprite24" transform="matrix(1.0, 0.0, 0.0, 1.0, 0.0, 0.0)">
      <use ffdec:characterId="1" height="56.0" transform="matrix(1.0, 0.0, 0.0, 1.0, 0.0, 0.0)" width="56.0" xlink:href="#shape0"/>
    </g>
    <g id="shape0" transform="matrix(1.0, 0.0, 0.0, 1.0, 0.0, 0.0)">
      <path d="M56.0 56.0 L0.0 56.0 0.0 0.0 56.0 0.0 56.0 56.0" fill="#010101" fill-opacity="0.0" fill-rule="evenodd" stroke="none"/>
    </g>
    <g id="sprite25" transform="matrix(1.0, 0.0, 0.0, 1.0, 0.75, 0.75)">
      <use ffdec:characterId="27" height="55.25" transform="matrix(1.0, 0.0, 0.0, 1.0, -0.75, -0.75)" width="50.55" xlink:href="#shape1"/>
    </g>
    <g id="shape1" transform="matrix(1.0, 0.0, 0.0, 1.0, 0.75, 0.75)">
      <path d="M48.05 22.55 L42.2 25.25 41.75 23.35 48.05 22.55 M44.85 15.6 L40.15 19.9 39.1 18.35 44.85 15.6 M42.55 29.0 L49.05 30.15 42.55 30.95 42.55 29.0 M37.85 41.05 L39.15 39.45 43.85 44.4 37.85 41.05 M41.75 34.55 L47.6 37.65 41.05 36.35 41.75 34.55 M28.35 1.5 L28.3 1.5 Q26.85 0.0 24.7 0.0 22.65 0.0 21.1 1.5 L21.05 1.55 Q19.65 3.05 19.65 5.1 19.65 7.25 21.05 8.7 L21.05 8.75 21.35 9.0 Q21.35 8.1 21.8 7.3 L21.95 7.15 Q21.25 6.3 21.25 5.1 21.25 3.7 22.2 2.7 L22.25 2.65 Q23.3 1.7 24.7 1.7 26.1 1.7 27.15 2.65 L27.15 2.7 Q28.15 3.7 28.15 5.1 28.15 6.1 27.7 6.85 L27.9 7.15 Q28.35 7.75 28.45 8.6 29.75 7.15 29.75 5.1 29.75 3.05 28.35 1.5 M25.0 7.8 L24.95 8.7 24.3 9.25 23.55 9.3 Q23.25 9.15 23.1 8.7 22.95 8.3 23.15 7.8 L23.8 7.25 Q24.15 7.0 24.55 7.25 L25.0 7.8 M26.6 7.15 Q27.45 7.95 27.45 9.0 27.45 10.15 26.6 10.85 25.95 11.6 24.85 11.6 23.8 11.6 22.95 10.85 22.2 10.15 22.2 9.0 22.2 7.95 22.95 7.15 23.8 6.45 24.85 6.45 25.95 6.45 26.6 7.15 M24.95 16.65 Q24.6 22.75 23.45 24.8 L23.35 24.8 21.8 21.65 21.7 21.6 21.6 21.6 21.55 21.65 21.55 21.75 23.15 24.9 22.1 25.7 Q20.8 26.95 20.8 28.65 20.8 29.7 21.3 30.55 L18.2 32.0 18.15 32.05 18.15 32.15 18.2 32.25 18.3 32.25 21.4 30.75 22.15 31.7 Q22.65 32.2 23.3 32.5 24.55 34.35 25.0 40.95 L24.85 40.95 Q19.75 40.95 16.2 37.45 12.7 33.9 12.7 28.85 12.7 25.95 13.85 23.5 14.35 22.4 15.15 21.5 L16.2 20.25 Q19.75 16.65 24.85 16.65 L24.95 16.65 M18.6 12.35 L17.75 5.8 20.5 11.75 18.6 12.35 M21.8 19.25 L22.35 20.55 22.2 20.65 19.55 19.1 19.9 19.8 20.25 20.55 Q20.55 21.1 20.95 20.95 L20.95 21.05 20.05 21.4 20.05 21.35 Q20.35 21.2 19.75 19.9 L19.5 19.25 19.35 19.1 19.05 19.1 19.05 19.05 19.7 18.75 21.95 19.95 21.65 19.4 Q21.05 18.25 20.7 18.35 L20.7 18.25 21.5 17.9 21.5 17.95 Q21.2 18.2 21.8 19.25 M35.05 14.35 L39.6 10.05 36.5 15.6 35.05 14.35 M36.4 17.25 Q41.25 22.1 41.25 28.85 41.25 35.7 36.4 40.45 31.65 45.25 24.85 45.25 18.05 45.25 13.3 40.45 8.5 35.7 8.5 28.85 L8.55 26.9 9.25 23.85 Q10.3 20.2 13.3 17.25 18.05 12.5 24.85 12.5 27.7 12.5 30.2 13.35 31.9 13.9 33.4 14.9 34.95 15.8 36.4 17.25 M29.75 11.9 L32.9 6.3 31.65 12.55 30.75 12.2 29.75 11.9 M30.2 15.0 Q27.75 14.05 24.95 14.05 18.75 14.05 14.35 18.4 11.4 21.35 10.45 25.25 L10.15 26.9 9.95 26.9 10.45 24.4 Q11.45 20.95 14.2 18.25 18.6 13.85 24.95 13.85 27.75 13.85 30.2 14.75 L30.9 15.0 30.8 15.2 30.2 15.0 M33.95 23.25 L34.35 23.95 34.2 23.95 Q33.9 23.35 33.35 23.7 L33.2 23.8 33.25 24.15 Q33.6 24.8 34.1 24.55 L34.35 24.45 34.4 24.55 33.75 24.95 34.25 26.0 34.4 25.85 Q35.05 25.6 34.8 25.0 L34.95 24.95 35.2 25.8 35.1 25.8 34.95 25.75 Q34.3 26.1 33.6 26.4 L33.6 26.3 33.75 26.1 33.75 25.85 32.95 24.3 32.8 24.0 32.5 24.1 32.5 24.0 33.8 23.35 33.9 23.25 33.95 23.25 M24.85 15.9 Q19.5 15.9 15.65 19.7 11.85 23.5 11.85 28.85 11.85 34.25 15.65 38.05 19.5 41.8 24.85 41.8 30.2 41.8 34.05 38.05 37.85 34.25 37.85 28.85 37.85 23.5 34.05 19.7 30.2 15.9 24.85 15.9 M33.5 20.25 Q37.1 23.8 37.1 28.85 37.1 33.9 33.5 37.45 30.0 40.9 25.1 40.95 25.55 34.55 26.75 32.7 L27.75 34.8 27.8 34.9 27.9 34.9 28.0 34.8 28.0 34.7 27.0 32.5 26.95 32.45 28.05 31.65 Q29.2 30.45 29.2 28.65 L28.95 27.35 32.1 25.85 32.2 25.75 32.2 25.7 32.1 25.65 32.0 25.65 28.85 27.05 28.05 25.7 Q27.25 25.0 26.5 24.7 25.5 22.6 25.0 16.65 30.0 16.75 33.5 20.25 M34.65 19.1 Q38.65 23.15 38.65 28.8 38.65 34.55 34.65 38.5 30.65 42.5 24.85 42.5 19.2 42.5 15.2 38.5 11.15 34.55 11.15 28.8 11.15 23.15 15.2 19.1 19.2 15.05 24.85 15.05 30.65 15.05 34.65 19.1 M13.7 15.15 L10.85 9.0 15.35 14.0 Q14.5 14.5 13.7 15.15 M9.95 19.35 L5.2 14.3 11.25 17.65 9.95 19.35 M7.95 23.55 L7.7 24.45 1.45 20.95 8.4 22.35 7.95 23.55 M7.2 29.85 L0.0 28.5 7.2 27.7 7.1 29.0 7.2 29.85 M8.25 35.2 L1.0 36.15 7.55 33.1 8.25 35.2 M15.0 33.25 Q15.2 33.75 15.75 34.0 L16.8 34.05 17.2 33.45 17.15 32.85 16.65 32.25 16.0 31.85 Q15.65 31.85 15.45 32.0 15.0 32.15 14.9 32.55 L15.0 33.25 M14.85 43.65 L9.45 48.65 13.05 42.25 14.85 43.65 M10.9 39.9 L4.2 43.05 9.65 38.15 10.9 39.9 M28.05 27.6 L28.25 28.65 Q28.25 30.05 27.35 30.95 26.35 31.9 25.0 31.9 23.7 31.9 22.75 30.95 L22.7 30.9 22.25 30.3 22.2 30.2 Q21.75 29.5 21.75 28.65 21.75 27.3 22.75 26.35 23.3 25.85 24.0 25.65 L24.25 25.4 24.3 25.15 25.85 25.15 25.9 25.35 26.15 25.65 Q26.8 25.85 27.35 26.35 L27.4 26.4 28.05 27.55 28.05 27.6 M29.2 35.55 L29.5 36.15 29.35 36.2 29.0 35.85 28.55 35.9 28.45 36.05 28.35 36.45 28.75 36.6 29.3 36.75 29.75 36.9 30.05 37.2 30.0 37.85 29.6 38.35 28.9 38.5 28.55 37.75 28.7 37.7 29.05 38.15 29.65 38.2 29.85 37.9 29.85 37.5 29.5 37.2 29.05 37.15 28.45 37.05 28.35 36.85 28.2 36.75 Q28.05 36.5 28.2 36.15 L28.7 35.6 29.2 35.55 M23.15 26.9 Q24.0 26.15 25.1 26.15 26.15 26.15 26.85 26.9 27.7 27.7 27.7 28.8 27.7 29.85 26.85 30.55 26.15 31.4 25.1 31.4 24.0 31.4 23.15 30.55 22.4 29.85 22.4 28.8 22.4 27.7 23.15 26.9 M23.4 27.55 Q23.55 27.15 24.0 26.95 24.4 26.75 24.7 26.95 L25.25 27.55 Q25.4 28.0 25.15 28.4 L24.55 29.0 23.8 29.1 Q23.45 28.95 23.3 28.4 23.15 28.1 23.4 27.55 M19.7 46.0 L16.15 52.3 17.6 45.2 19.7 46.0 M25.0 46.7 L23.65 53.75 22.85 46.65 24.85 46.7 25.0 46.7 M30.35 45.95 L31.3 52.85 28.35 46.35 30.35 45.95 M35.25 43.4 L38.3 49.6 33.5 44.5 35.25 43.4 Z" fill="none" stroke="#000000" stroke-linecap="round" stroke-linejoin="round" stroke-opacity="0.2" stroke-width="1.5"/>
    </g>
    <g id="sprite26" transform="matrix(1.0, 0.0, 0.0, 1.0, 0.0, 0.0)">
      <use ffdec:characterId="29" height="53.75" transform="matrix(1.0, 0.0, 0.0, 1.0, 0.0, 0.0)" width="49.05" xlink:href="#shape2"/>
    </g>
    <g id="shape2" transform="matrix(1.0, 0.0, 0.0, 1.0, 0.0, 0.0)">
      <path d="M48.05 22.55 L42.2 25.25 41.75 23.35 48.05 22.55 M39.1 18.35 L44.85 15.6 40.15 19.9 39.1 18.35 M42.55 29.0 L49.05 30.15 42.55 30.95 42.55 29.0 M43.85 44.4 L37.85 41.05 39.15 39.45 43.85 44.4 M41.05 36.35 L41.75 34.55 47.6 37.65 41.05 36.35 M28.35 1.5 Q29.75 3.05 29.75 5.1 29.75 7.15 28.45 8.6 28.35 7.75 27.9 7.15 L27.7 6.85 Q28.15 6.1 28.15 5.1 28.15 3.7 27.15 2.7 L27.15 2.65 Q26.1 1.7 24.7 1.7 23.3 1.7 22.25 2.65 L22.2 2.7 Q21.25 3.7 21.25 5.1 21.25 6.3 21.95 7.15 L21.8 7.3 Q21.35 8.1 21.35 9.0 L21.05 8.75 21.05 8.7 Q19.65 7.25 19.65 5.1 19.65 3.05 21.05 1.55 L21.1 1.5 Q22.65 0.0 24.7 0.0 26.85 0.0 28.3 1.5 L28.35 1.5 M26.6 7.15 Q27.45 7.95 27.45 9.0 27.45 10.15 26.6 10.85 25.95 11.6 24.85 11.6 23.8 11.6 22.95 10.85 22.2 10.15 22.2 9.0 22.2 7.95 22.95 7.15 23.8 6.45 24.85 6.45 25.95 6.45 26.6 7.15 M24.95 16.65 L24.85 16.65 Q19.75 16.65 16.2 20.25 L15.15 21.5 Q14.35 22.4 13.85 23.5 12.7 25.95 12.7 28.85 12.7 33.9 16.2 37.45 19.75 40.95 24.85 40.95 L25.0 40.95 Q24.55 34.35 23.3 32.5 22.65 32.2 22.15 31.7 L21.4 30.75 18.3 32.25 18.2 32.25 18.15 32.15 18.15 32.05 18.2 32.0 21.3 30.55 Q20.8 29.7 20.8 28.65 20.8 26.95 22.1 25.7 L23.15 24.9 21.55 21.75 21.55 21.65 21.6 21.6 21.7 21.6 21.8 21.65 23.35 24.8 23.45 24.8 Q24.6 22.75 24.95 16.65 M25.0 7.8 L24.55 7.25 Q24.15 7.0 23.8 7.25 L23.15 7.8 Q22.95 8.3 23.1 8.7 23.25 9.15 23.55 9.3 L24.3 9.25 24.95 8.7 25.0 7.8 M18.6 12.35 L17.75 5.8 20.5 11.75 18.6 12.35 M21.8 19.25 L22.35 20.55 22.2 20.65 19.55 19.1 19.9 19.8 20.25 20.55 Q20.55 21.1 20.95 20.95 L20.95 21.05 20.05 21.4 20.05 21.35 Q20.35 21.2 19.75 19.9 L19.5 19.25 19.35 19.1 19.05 19.1 19.05 19.05 19.7 18.75 21.95 19.95 21.65 19.4 Q21.05 18.25 20.7 18.35 L20.7 18.25 21.5 17.9 21.5 17.95 Q21.2 18.2 21.8 19.25 M35.05 14.35 L39.6 10.05 36.5 15.6 35.05 14.35 M36.4 17.25 Q41.25 22.1 41.25 28.85 41.25 35.7 36.4 40.45 31.65 45.25 24.85 45.25 18.05 45.25 13.3 40.45 8.5 35.7 8.5 28.85 L8.55 26.9 9.25 23.85 Q10.3 20.2 13.3 17.25 18.05 12.5 24.85 12.5 27.7 12.5 30.2 13.35 31.9 13.9 33.4 14.9 34.95 15.8 36.4 17.25 M30.75 12.2 L29.75 11.9 32.9 6.3 31.65 12.55 30.75 12.2 M30.8 15.2 L30.9 15.0 30.2 14.75 Q27.75 13.85 24.95 13.85 18.6 13.85 14.2 18.25 11.45 20.95 10.45 24.4 L9.95 26.9 10.15 26.9 10.45 25.25 Q11.4 21.35 14.35 18.4 18.75 14.05 24.95 14.05 27.75 14.05 30.2 15.0 L30.8 15.2 M33.95 23.25 L34.35 23.95 34.2 23.95 Q33.9 23.35 33.35 23.7 L33.2 23.8 33.25 24.15 Q33.6 24.8 34.1 24.55 L34.35 24.45 34.4 24.55 33.75 24.95 34.25 26.0 34.4 25.85 Q35.05 25.6 34.8 25.0 L34.95 24.95 35.2 25.8 35.1 25.8 34.95 25.75 Q34.3 26.1 33.6 26.4 L33.6 26.3 33.75 26.1 33.75 25.85 32.95 24.3 32.8 24.0 32.5 24.1 32.5 24.0 33.8 23.35 33.9 23.25 33.95 23.25 M24.85 15.9 Q30.2 15.9 34.05 19.7 37.85 23.5 37.85 28.85 37.85 34.25 34.05 38.05 30.2 41.8 24.85 41.8 19.5 41.8 15.65 38.05 11.85 34.25 11.85 28.85 11.85 23.5 15.65 19.7 19.5 15.9 24.85 15.9 M33.5 20.25 Q30.0 16.75 25.0 16.65 25.5 22.6 26.5 24.7 27.25 25.0 28.05 25.7 L28.85 27.05 32.0 25.65 32.1 25.65 32.2 25.7 32.2 25.75 32.1 25.85 28.95 27.35 29.2 28.65 Q29.2 30.45 28.05 31.65 L26.95 32.45 27.0 32.5 28.0 34.7 28.0 34.8 27.9 34.9 27.8 34.9 27.75 34.8 26.75 32.7 Q25.55 34.55 25.1 40.95 30.0 40.9 33.5 37.45 37.1 33.9 37.1 28.85 37.1 23.8 33.5 20.25 M34.65 19.1 Q30.65 15.05 24.85 15.05 19.2 15.05 15.2 19.1 11.15 23.15 11.15 28.8 11.15 34.55 15.2 38.5 19.2 42.5 24.85 42.5 30.65 42.5 34.65 38.5 38.65 34.55 38.65 28.8 38.65 23.15 34.65 19.1 M9.95 19.35 L5.2 14.3 11.25 17.65 9.95 19.35 M7.95 23.55 L7.7 24.45 1.45 20.95 8.4 22.35 7.95 23.55 M13.7 15.15 L10.85 9.0 15.35 14.0 Q14.5 14.5 13.7 15.15 M7.2 29.85 L0.0 28.5 7.2 27.7 7.1 29.0 7.2 29.85 M8.25 35.2 L1.0 36.15 7.55 33.1 8.25 35.2 M16.75 31.75 L17.3 32.3 17.35 33.1 17.1 33.9 16.6 34.3 15.5 34.4 14.85 33.7 Q14.65 33.15 14.85 32.55 15.0 31.95 15.6 31.7 L16.75 31.75 M14.9 32.55 L15.0 33.25 Q15.2 33.75 15.75 34.0 L16.8 34.05 17.2 33.45 17.15 32.85 16.65 32.25 16.0 31.85 Q15.65 31.85 15.45 32.0 15.0 32.15 14.9 32.55 M10.9 39.9 L4.2 43.05 9.65 38.15 10.9 39.9 M14.85 43.65 L9.45 48.65 13.05 42.25 14.85 43.65 M28.05 27.6 L28.05 27.55 27.4 26.4 27.35 26.35 Q26.8 25.85 26.15 25.65 L25.9 25.35 25.85 25.15 24.3 25.15 24.25 25.4 24.0 25.65 Q23.3 25.85 22.75 26.35 21.75 27.3 21.75 28.65 21.75 29.5 22.2 30.2 L22.25 30.3 22.7 30.9 22.75 30.95 Q23.7 31.9 25.0 31.9 26.35 31.9 27.35 30.95 28.25 30.05 28.25 28.65 L28.05 27.6 M29.2 35.55 L29.5 36.15 29.35 36.2 29.0 35.85 28.55 35.9 28.45 36.05 28.35 36.45 28.75 36.6 29.3 36.75 29.75 36.9 30.05 37.2 30.0 37.85 29.6 38.35 28.9 38.5 28.55 37.75 28.7 37.7 29.05 38.15 29.65 38.2 29.85 37.9 29.85 37.5 29.5 37.2 29.05 37.15 28.45 37.05 28.35 36.85 28.2 36.75 Q28.05 36.5 28.2 36.15 L28.7 35.6 29.2 35.55 M23.4 27.55 Q23.15 28.1 23.3 28.4 23.45 28.95 23.8 29.1 L24.55 29.0 25.15 28.4 Q25.4 28.0 25.25 27.55 L24.7 26.95 Q24.4 26.75 24.0 26.95 23.55 27.15 23.4 27.55 M23.15 26.9 Q24.0 26.15 25.1 26.15 26.15 26.15 26.85 26.9 27.7 27.7 27.7 28.8 27.7 29.85 26.85 30.55 26.15 31.4 25.1 31.4 24.0 31.4 23.15 30.55 22.4 29.85 22.4 28.8 22.4 27.7 23.15 26.9 M25.0 46.7 L23.65 53.75 22.85 46.65 24.85 46.7 25.0 46.7 M19.7 46.0 L16.15 52.3 17.6 45.2 19.7 46.0 M30.35 45.95 L31.3 52.85 28.35 46.35 30.35 45.95 M35.25 43.4 L38.3 49.6 33.5 44.5 35.25 43.4" fill="#000000" fill-rule="evenodd" stroke="none"/>
    </g>
  </defs>
</svg>
