<?xml version="1.0" encoding="UTF-8" standalone="no"?>
<svg xmlns:ffdec="https://www.free-decompiler.com/flash" xmlns:xlink="http://www.w3.org/1999/xlink" ffdec:objectType="frame" height="56.0px" width="56.0px" xmlns="http://www.w3.org/2000/svg">
  <g transform="matrix(1.0, 0.0, 0.0, 1.0, 0.0, 0.0)">
    <use ffdec:characterId="27" ffdec:characterName="181_fla.Symbole264_1" height="56.0" id="back" transform="matrix(1.0, 0.0, 0.0, 1.0, 0.0, 0.0)" width="56.0" xlink:href="#sprite0"/>
    <use ffdec:characterId="29" height="35.0" id="back" transform="matrix(1.0, 0.0, 0.0, 1.0, 0.35, 10.4)" width="55.4" xlink:href="#sprite26"/>
    <use ffdec:characterId="31" height="33.5" id="up" transform="matrix(1.0, 0.0, 0.0, 1.0, 1.05, 11.1)" width="53.9" xlink:href="#sprite27"/>
  </g>
  <defs>
    <g id="sprite0" transform="matrix(1.0, 0.0, 0.0, 1.0, 0.0, 0.0)">
      <use ffdec:characterId="26" ffdec:characterName="181_fla.Symbole261_2" height="56.0" id="back" transform="matrix(1.0, 0.0, 0.0, 1.0, 0.0, 0.0)" width="56.0" xlink:href="#sprite1"/>
    </g>
    <g id="sprite1" transform="matrix(1.0, 0.0, 0.0, 1.0, 0.0, 0.0)">
      <use ffdec:characterId="25" ffdec:characterName="181_fla.Symbole258_3" height="56.0" id="back" transform="matrix(1.0, 0.0, 0.0, 1.0, 0.0, 0.0)" width="56.0" xlink:href="#sprite2"/>
    </g>
    <g id="sprite2" transform="matrix(1.0, 0.0, 0.0, 1.0, 0.0, 0.0)">
      <use ffdec:characterId="24" ffdec:characterName="181_fla.Symbole255_4" height="56.0" id="back" transform="matrix(1.0, 0.0, 0.0, 1.0, 0.0, 0.0)" width="56.0" xlink:href="#sprite3"/>
    </g>
    <g id="sprite3" transform="matrix(1.0, 0.0, 0.0, 1.0, 0.0, 0.0)">
      <use ffdec:characterId="23" ffdec:characterName="181_fla.Symbole252_5" height="56.0" id="back" transform="matrix(1.0, 0.0, 0.0, 1.0, 0.0, 0.0)" width="56.0" xlink:href="#sprite4"/>
    </g>
    <g id="sprite4" transform="matrix(1.0, 0.0, 0.0, 1.0, 0.0, 0.0)">
      <use ffdec:characterId="22" ffdec:characterName="181_fla.Symbole249_6" height="56.0" id="back" transform="matrix(1.0, 0.0, 0.0, 1.0, 0.0, 0.0)" width="56.0" xlink:href="#sprite5"/>
    </g>
    <g id="sprite5" transform="matrix(1.0, 0.0, 0.0, 1.0, 0.0, 0.0)">
      <use ffdec:characterId="21" ffdec:characterName="181_fla.Symbole246_7" height="56.0" id="back" transform="matrix(1.0, 0.0, 0.0, 1.0, 0.0, 0.0)" width="56.0" xlink:href="#sprite6"/>
    </g>
    <g id="sprite6" transform="matrix(1.0, 0.0, 0.0, 1.0, 0.0, 0.0)">
      <use ffdec:characterId="20" ffdec:characterName="181_fla.Symbole243_8" height="56.0" id="back" transform="matrix(1.0, 0.0, 0.0, 1.0, 0.0, 0.0)" width="56.0" xlink:href="#sprite7"/>
    </g>
    <g id="sprite7" transform="matrix(1.0, 0.0, 0.0, 1.0, 0.0, 0.0)">
      <use ffdec:characterId="19" ffdec:characterName="181_fla.Symbole240_9" height="56.0" id="back" transform="matrix(1.0, 0.0, 0.0, 1.0, 0.0, 0.0)" width="56.0" xlink:href="#sprite8"/>
    </g>
    <g id="sprite8" transform="matrix(1.0, 0.0, 0.0, 1.0, 0.0, 0.0)">
      <use ffdec:characterId="18" ffdec:characterName="181_fla.Symbole237_10" height="56.0" id="back" transform="matrix(1.0, 0.0, 0.0, 1.0, 0.0, 0.0)" width="56.0" xlink:href="#sprite9"/>
    </g>
    <g id="sprite9" transform="matrix(1.0, 0.0, 0.0, 1.0, 0.0, 0.0)">
      <use ffdec:characterId="17" ffdec:characterName="181_fla.Symbole234_11" height="56.0" id="back" transform="matrix(1.0, 0.0, 0.0, 1.0, 0.0, 0.0)" width="56.0" xlink:href="#sprite10"/>
    </g>
    <g id="sprite10" transform="matrix(1.0, 0.0, 0.0, 1.0, 0.0, 0.0)">
      <use ffdec:characterId="16" ffdec:characterName="181_fla.Symbole231_12" height="56.0" id="back" transform="matrix(1.0, 0.0, 0.0, 1.0, 0.0, 0.0)" width="56.0" xlink:href="#sprite11"/>
    </g>
    <g id="sprite11" transform="matrix(1.0, 0.0, 0.0, 1.0, 0.0, 0.0)">
      <use ffdec:characterId="15" ffdec:characterName="181_fla.Symbole228_13" height="56.0" id="back" transform="matrix(1.0, 0.0, 0.0, 1.0, 0.0, 0.0)" width="56.0" xlink:href="#sprite12"/>
    </g>
    <g id="sprite12" transform="matrix(1.0, 0.0, 0.0, 1.0, 0.0, 0.0)">
      <use ffdec:characterId="14" ffdec:characterName="181_fla.Symbole225_14" height="56.0" id="back" transform="matrix(1.0, 0.0, 0.0, 1.0, 0.0, 0.0)" width="56.0" xlink:href="#sprite13"/>
    </g>
    <g id="sprite13" transform="matrix(1.0, 0.0, 0.0, 1.0, 0.0, 0.0)">
      <use ffdec:characterId="13" ffdec:characterName="181_fla.Symbole222_15" height="56.0" id="back" transform="matrix(1.0, 0.0, 0.0, 1.0, 0.0, 0.0)" width="56.0" xlink:href="#sprite14"/>
    </g>
    <g id="sprite14" transform="matrix(1.0, 0.0, 0.0, 1.0, 0.0, 0.0)">
      <use ffdec:characterId="12" ffdec:characterName="181_fla.Symbole219_16" height="56.0" id="back" transform="matrix(1.0, 0.0, 0.0, 1.0, 0.0, 0.0)" width="56.0" xlink:href="#sprite15"/>
    </g>
    <g id="sprite15" transform="matrix(1.0, 0.0, 0.0, 1.0, 0.0, 0.0)">
      <use ffdec:characterId="11" ffdec:characterName="181_fla.Symbole216_17" height="56.0" id="back" transform="matrix(1.0, 0.0, 0.0, 1.0, 0.0, 0.0)" width="56.0" xlink:href="#sprite16"/>
    </g>
    <g id="sprite16" transform="matrix(1.0, 0.0, 0.0, 1.0, 0.0, 0.0)">
      <use ffdec:characterId="10" ffdec:characterName="181_fla.Symbole213_18" height="56.0" id="back" transform="matrix(1.0, 0.0, 0.0, 1.0, 0.0, 0.0)" width="56.0" xlink:href="#sprite17"/>
    </g>
    <g id="sprite17" transform="matrix(1.0, 0.0, 0.0, 1.0, 0.0, 0.0)">
      <use ffdec:characterId="9" ffdec:characterName="181_fla.Symbole210_19" height="56.0" id="back" transform="matrix(1.0, 0.0, 0.0, 1.0, 0.0, 0.0)" width="56.0" xlink:href="#sprite18"/>
    </g>
    <g id="sprite18" transform="matrix(1.0, 0.0, 0.0, 1.0, 0.0, 0.0)">
      <use ffdec:characterId="8" ffdec:characterName="181_fla.Symbole207_20" height="56.0" id="back" transform="matrix(1.0, 0.0, 0.0, 1.0, 0.0, 0.0)" width="56.0" xlink:href="#sprite19"/>
    </g>
    <g id="sprite19" transform="matrix(1.0, 0.0, 0.0, 1.0, 0.0, 0.0)">
      <use ffdec:characterId="7" ffdec:characterName="181_fla.Symbole204_21" height="56.0" id="back" transform="matrix(1.0, 0.0, 0.0, 1.0, 0.0, 0.0)" width="56.0" xlink:href="#sprite20"/>
    </g>
    <g id="sprite20" transform="matrix(1.0, 0.0, 0.0, 1.0, 0.0, 0.0)">
      <use ffdec:characterId="6" ffdec:characterName="181_fla.Symbole201_22" height="56.0" id="back" transform="matrix(1.0, 0.0, 0.0, 1.0, 0.0, 0.0)" width="56.0" xlink:href="#sprite21"/>
    </g>
    <g id="sprite21" transform="matrix(1.0, 0.0, 0.0, 1.0, 0.0, 0.0)">
      <use ffdec:characterId="5" ffdec:characterName="181_fla.Symbole198_23" height="56.0" id="back" transform="matrix(1.0, 0.0, 0.0, 1.0, 0.0, 0.0)" width="56.0" xlink:href="#sprite22"/>
    </g>
    <g id="sprite22" transform="matrix(1.0, 0.0, 0.0, 1.0, 0.0, 0.0)">
      <use ffdec:characterId="4" ffdec:characterName="181_fla.Symbole195_24" height="56.0" id="back" transform="matrix(1.0, 0.0, 0.0, 1.0, 0.0, 0.0)" width="56.0" xlink:href="#sprite23"/>
    </g>
    <g id="sprite23" transform="matrix(1.0, 0.0, 0.0, 1.0, 0.0, 0.0)">
      <use ffdec:characterId="3" ffdec:characterName="181_fla.Symbole192_25" height="56.0" id="back" transform="matrix(1.0, 0.0, 0.0, 1.0, 0.0, 0.0)" width="56.0" xlink:href="#sprite24"/>
    </g>
    <g id="sprite24" transform="matrix(1.0, 0.0, 0.0, 1.0, 0.0, 0.0)">
      <use ffdec:characterId="2" height="56.0" id="back" transform="matrix(1.0, 0.0, 0.0, 1.0, 0.0, 0.0)" width="56.0" xlink:href="#sprite25"/>
    </g>
    <g id="sprite25" transform="matrix(1.0, 0.0, 0.0, 1.0, 0.0, 0.0)">
      <use ffdec:characterId="1" height="56.0" transform="matrix(1.0, 0.0, 0.0, 1.0, 0.0, 0.0)" width="56.0" xlink:href="#shape0"/>
    </g>
    <g id="shape0" transform="matrix(1.0, 0.0, 0.0, 1.0, 0.0, 0.0)">
      <path d="M56.0 56.0 L0.0 56.0 0.0 0.0 56.0 0.0 56.0 56.0" fill="#010101" fill-opacity="0.0" fill-rule="evenodd" stroke="none"/>
    </g>
    <g id="sprite26" transform="matrix(1.0, 0.0, 0.0, 1.0, 0.75, 0.75)">
      <use ffdec:characterId="28" height="35.0" transform="matrix(1.0, 0.0, 0.0, 1.0, -0.75, -0.75)" width="55.4" xlink:href="#shape1"/>
    </g>
    <g id="shape1" transform="matrix(1.0, 0.0, 0.0, 1.0, 0.75, 0.75)">
      <path d="M41.35 7.4 L44.0 7.8 46.15 8.45 Q45.8 5.65 44.3 3.55 42.0 0.0 37.95 0.0 33.95 0.0 30.75 3.55 27.8 6.75 27.0 11.35 26.25 6.75 23.3 3.55 20.05 0.0 16.15 0.0 12.2 0.0 9.75 3.55 8.15 5.95 7.95 9.1 L9.85 8.45 9.9 8.45 12.35 8.1 12.95 7.2 Q14.85 4.35 18.15 4.35 21.5 4.35 24.1 7.2 26.35 9.55 27.0 12.85 27.75 9.55 29.95 7.2 32.65 4.35 35.95 4.35 39.25 4.35 41.2 7.2 L41.35 7.4 M40.45 10.85 Q39.25 11.0 38.1 11.95 L38.1 12.3 38.15 12.4 Q39.4 11.8 40.2 12.1 41.45 12.4 42.25 13.65 43.0 14.8 44.9 15.75 46.8 16.8 49.45 14.25 46.2 14.8 43.5 12.25 42.15 10.5 40.45 10.85 M40.6 13.25 L41.35 14.25 42.1 15.1 42.85 15.8 Q43.5 16.35 44.4 16.35 43.35 17.65 42.0 16.85 40.8 16.1 40.65 15.1 40.45 13.25 40.05 13.2 L40.6 13.25 M42.6 10.75 Q43.35 11.05 43.95 11.95 L45.9 13.25 46.05 12.55 44.55 11.5 Q43.7 10.9 42.6 10.65 L42.6 10.75 M48.3 12.7 L50.8 12.4 52.5 11.0 Q54.6 8.4 53.5 4.8 51.85 0.85 48.55 2.8 51.25 3.55 50.15 6.05 L49.6 7.25 Q48.55 8.85 46.8 9.0 45.8 9.0 43.85 8.25 41.05 7.15 38.35 9.5 37.7 9.9 37.25 10.6 L37.85 11.45 Q39.6 9.55 41.7 9.9 43.55 10.2 44.8 11.05 46.45 12.45 48.3 12.7 M44.25 17.2 L42.0 20.65 41.6 21.0 Q34.75 28.25 27.45 33.25 27.2 33.3 27.0 33.5 L26.65 33.25 Q19.4 28.25 12.4 21.0 L12.2 20.65 10.55 18.3 12.2 17.95 12.55 17.65 Q13.2 19.0 14.2 20.1 L15.15 21.0 Q20.85 26.65 26.8 30.6 27.0 30.6 27.0 30.75 27.05 30.6 27.2 30.6 33.25 26.65 38.95 21.0 L39.9 20.1 41.75 17.3 44.25 17.2 M24.85 11.45 Q26.55 13.2 26.95 15.8 27.45 13.2 29.05 11.45 30.85 9.4 33.1 9.4 35.3 9.4 36.7 11.45 37.95 13.3 37.7 16.1 37.35 18.4 35.3 21.0 L35.15 21.25 Q31.25 25.25 27.2 28.05 L26.95 28.2 26.75 28.05 Q22.7 25.25 18.8 21.25 L18.65 21.0 Q16.6 18.4 16.25 16.1 16.0 13.3 17.25 11.45 18.65 9.4 20.85 9.4 23.05 9.4 24.85 11.45 M1.35 11.65 Q-0.7 9.0 0.35 5.45 2.05 1.5 5.4 3.5 2.6 4.2 3.7 6.75 L4.4 7.95 Q5.4 9.55 7.05 9.65 8.15 9.65 10.05 8.85 12.85 7.8 15.5 10.1 L16.6 11.3 16.05 12.1 Q14.35 10.2 12.2 10.6 10.3 10.85 9.05 11.8 7.5 13.15 5.65 13.3 L3.15 13.05 Q2.2 12.6 1.35 11.65 M13.45 11.5 Q14.7 11.65 15.75 12.6 L15.75 13.05 15.7 13.05 Q14.45 12.45 13.65 12.75 12.4 13.05 11.7 14.3 10.85 15.5 9.05 16.4 7.15 17.45 4.4 14.85 7.65 15.5 10.4 12.9 11.7 11.15 13.45 11.5 M11.45 11.3 L9.9 12.6 8.35 13.8 8.15 13.05 9.4 12.15 Q10.3 11.6 11.45 11.3 M13.8 13.85 L13.3 13.95 12.55 14.85 11.85 15.8 11.0 16.5 Q10.45 17.0 9.55 17.0 10.6 18.3 11.95 17.5 13.1 16.8 13.2 15.75 13.45 13.95 13.8 13.85 Z" fill="none" stroke="#000000" stroke-linecap="round" stroke-linejoin="round" stroke-opacity="0.2" stroke-width="1.5"/>
    </g>
    <g id="sprite27" transform="matrix(1.0, 0.0, 0.0, 1.0, 0.0, 0.0)">
      <use ffdec:characterId="30" height="33.5" transform="matrix(1.0, 0.0, 0.0, 1.0, 0.0, 0.0)" width="53.9" xlink:href="#shape2"/>
    </g>
    <g id="shape2" transform="matrix(1.0, 0.0, 0.0, 1.0, 0.0, 0.0)">
      <path d="M42.65 10.75 L42.65 10.65 Q43.75 10.95 44.55 11.55 45.3 12.2 46.1 12.55 L45.95 13.3 43.95 12.0 Q43.4 11.1 42.65 10.75 M41.4 7.45 L41.25 7.25 Q39.25 4.4 36.0 4.4 32.7 4.4 29.95 7.25 27.75 9.55 27.05 12.85 26.35 9.55 24.1 7.25 21.55 4.4 18.15 4.4 14.85 4.4 12.95 7.25 L12.35 8.1 9.95 8.45 9.9 8.45 7.95 9.15 Q8.2 6.0 9.8 3.55 12.2 0.0 16.2 0.0 20.05 0.0 23.35 3.55 26.3 6.8 27.05 11.4 27.85 6.8 30.75 3.55 34.0 0.0 37.95 0.0 42.0 0.0 44.35 3.55 45.8 5.7 46.15 8.45 L44.05 7.8 Q42.65 7.25 41.4 7.45 M40.6 13.3 L41.4 14.25 Q41.6 14.75 42.15 15.15 L42.85 15.85 Q43.55 16.35 44.4 16.35 43.4 17.7 42.0 16.9 40.8 16.15 40.65 15.15 40.45 13.3 40.1 13.25 L40.6 13.3 M48.3 12.7 Q46.45 12.5 44.85 11.1 43.6 10.25 41.7 9.95 39.65 9.55 37.9 11.45 L37.3 10.6 38.4 9.5 Q41.1 7.15 43.9 8.25 45.8 9.05 46.8 9.05 48.6 8.9 49.6 7.3 L50.2 6.05 Q51.3 3.55 48.6 2.85 51.9 0.85 53.55 4.8 54.6 8.4 52.55 11.05 L50.8 12.4 Q49.6 12.95 48.3 12.7 M40.45 10.9 Q42.2 10.5 43.55 12.3 46.25 14.85 49.45 14.25 46.8 16.8 44.9 15.8 43.0 14.85 42.3 13.65 41.45 12.4 40.25 12.15 L38.15 12.4 38.1 12.35 38.1 12.0 Q39.25 11.05 40.45 10.9 M44.25 17.25 L42.0 20.7 41.6 21.05 Q34.8 28.3 27.45 33.25 L27.05 33.5 26.65 33.25 Q19.4 28.3 12.45 21.05 L12.2 20.7 10.55 18.35 12.2 18.0 12.6 17.7 Q13.25 19.0 14.2 20.1 L15.15 21.05 Q20.85 26.7 26.8 30.65 L27.05 30.8 27.25 30.65 Q33.25 26.7 39.0 21.05 L39.95 20.1 Q41.1 18.8 41.75 17.3 L44.25 17.25 M24.9 11.45 Q26.6 13.25 26.95 15.85 27.45 13.25 29.1 11.45 30.9 9.4 33.1 9.4 35.3 9.4 36.7 11.45 37.95 13.35 37.75 16.15 37.35 18.4 35.3 21.05 L35.15 21.25 Q31.3 25.3 27.25 28.1 L26.95 28.2 26.75 28.1 Q22.7 25.3 18.8 21.25 L18.7 21.05 Q16.6 18.4 16.25 16.15 16.05 13.35 17.3 11.45 18.7 9.4 20.85 9.4 23.05 9.4 24.9 11.45 M1.4 11.7 Q-0.7 9.05 0.35 5.45 2.1 1.5 5.4 3.5 2.6 4.25 3.7 6.8 L4.4 7.95 Q5.4 9.55 7.1 9.7 8.2 9.7 10.1 8.9 12.9 7.8 15.5 10.15 16.2 10.6 16.6 11.35 16.25 11.6 16.1 12.15 14.35 10.25 12.2 10.6 10.3 10.9 9.05 11.85 7.55 13.15 5.7 13.35 L3.15 13.1 1.4 11.7 M9.95 12.65 L8.4 13.8 8.2 13.1 9.45 12.2 Q10.3 11.6 11.5 11.35 10.7 11.75 9.95 12.65 M13.45 11.55 Q14.7 11.7 15.8 12.65 L15.8 13.1 15.75 13.1 Q14.5 12.5 13.7 12.8 12.45 13.1 11.7 14.3 10.9 15.5 9.05 16.45 7.15 17.45 4.45 14.9 7.7 15.5 10.4 12.95 11.7 11.2 13.45 11.55 M11.85 15.85 L12.6 14.9 13.3 13.95 13.85 13.9 Q13.45 13.95 13.25 15.8 13.1 16.8 11.95 17.55 10.6 18.35 9.6 17.05 10.45 17.05 11.05 16.5 L11.85 15.85" fill="#000000" fill-rule="evenodd" stroke="none"/>
    </g>
  </defs>
</svg>
