<?xml version="1.0" encoding="UTF-8" standalone="no"?>
<svg xmlns:ffdec="https://www.free-decompiler.com/flash" xmlns:xlink="http://www.w3.org/1999/xlink" ffdec:objectType="frame" height="56.0px" width="56.0px" xmlns="http://www.w3.org/2000/svg">
  <g transform="matrix(1.0, 0.0, 0.0, 1.0, 0.0, 0.0)">
    <use ffdec:characterId="29" ffdec:characterName="183_fla.Symbole270_1" height="56.0" id="back" transform="matrix(1.0, 0.0, 0.0, 1.0, 0.0, 0.0)" width="56.0" xlink:href="#sprite0"/>
    <use ffdec:characterId="31" height="55.25" id="back" transform="matrix(1.0, 0.0, 0.0, 1.0, 1.5, 0.3)" width="52.85" xlink:href="#sprite28"/>
    <use ffdec:characterId="33" height="53.75" id="up" transform="matrix(1.0, 0.0, 0.0, 1.0, 2.2, 1.05)" width="51.4" xlink:href="#sprite29"/>
  </g>
  <defs>
    <g id="sprite0" transform="matrix(1.0, 0.0, 0.0, 1.0, 0.0, 0.0)">
      <use ffdec:characterId="28" ffdec:characterName="183_fla.Symbole267_2" height="56.0" id="back" transform="matrix(1.0, 0.0, 0.0, 1.0, 0.0, 0.0)" width="56.0" xlink:href="#sprite1"/>
    </g>
    <g id="sprite1" transform="matrix(1.0, 0.0, 0.0, 1.0, 0.0, 0.0)">
      <use ffdec:characterId="27" ffdec:characterName="183_fla.Symbole264_3" height="56.0" id="back" transform="matrix(1.0, 0.0, 0.0, 1.0, 0.0, 0.0)" width="56.0" xlink:href="#sprite2"/>
    </g>
    <g id="sprite2" transform="matrix(1.0, 0.0, 0.0, 1.0, 0.0, 0.0)">
      <use ffdec:characterId="26" ffdec:characterName="183_fla.Symbole261_4" height="56.0" id="back" transform="matrix(1.0, 0.0, 0.0, 1.0, 0.0, 0.0)" width="56.0" xlink:href="#sprite3"/>
    </g>
    <g id="sprite3" transform="matrix(1.0, 0.0, 0.0, 1.0, 0.0, 0.0)">
      <use ffdec:characterId="25" ffdec:characterName="183_fla.Symbole258_5" height="56.0" id="back" transform="matrix(1.0, 0.0, 0.0, 1.0, 0.0, 0.0)" width="56.0" xlink:href="#sprite4"/>
    </g>
    <g id="sprite4" transform="matrix(1.0, 0.0, 0.0, 1.0, 0.0, 0.0)">
      <use ffdec:characterId="24" ffdec:characterName="183_fla.Symbole255_6" height="56.0" id="back" transform="matrix(1.0, 0.0, 0.0, 1.0, 0.0, 0.0)" width="56.0" xlink:href="#sprite5"/>
    </g>
    <g id="sprite5" transform="matrix(1.0, 0.0, 0.0, 1.0, 0.0, 0.0)">
      <use ffdec:characterId="23" ffdec:characterName="183_fla.Symbole252_7" height="56.0" id="back" transform="matrix(1.0, 0.0, 0.0, 1.0, 0.0, 0.0)" width="56.0" xlink:href="#sprite6"/>
    </g>
    <g id="sprite6" transform="matrix(1.0, 0.0, 0.0, 1.0, 0.0, 0.0)">
      <use ffdec:characterId="22" ffdec:characterName="183_fla.Symbole249_8" height="56.0" id="back" transform="matrix(1.0, 0.0, 0.0, 1.0, 0.0, 0.0)" width="56.0" xlink:href="#sprite7"/>
    </g>
    <g id="sprite7" transform="matrix(1.0, 0.0, 0.0, 1.0, 0.0, 0.0)">
      <use ffdec:characterId="21" ffdec:characterName="183_fla.Symbole246_9" height="56.0" id="back" transform="matrix(1.0, 0.0, 0.0, 1.0, 0.0, 0.0)" width="56.0" xlink:href="#sprite8"/>
    </g>
    <g id="sprite8" transform="matrix(1.0, 0.0, 0.0, 1.0, 0.0, 0.0)">
      <use ffdec:characterId="20" ffdec:characterName="183_fla.Symbole243_10" height="56.0" id="back" transform="matrix(1.0, 0.0, 0.0, 1.0, 0.0, 0.0)" width="56.0" xlink:href="#sprite9"/>
    </g>
    <g id="sprite9" transform="matrix(1.0, 0.0, 0.0, 1.0, 0.0, 0.0)">
      <use ffdec:characterId="19" ffdec:characterName="183_fla.Symbole240_11" height="56.0" id="back" transform="matrix(1.0, 0.0, 0.0, 1.0, 0.0, 0.0)" width="56.0" xlink:href="#sprite10"/>
    </g>
    <g id="sprite10" transform="matrix(1.0, 0.0, 0.0, 1.0, 0.0, 0.0)">
      <use ffdec:characterId="18" ffdec:characterName="183_fla.Symbole237_12" height="56.0" id="back" transform="matrix(1.0, 0.0, 0.0, 1.0, 0.0, 0.0)" width="56.0" xlink:href="#sprite11"/>
    </g>
    <g id="sprite11" transform="matrix(1.0, 0.0, 0.0, 1.0, 0.0, 0.0)">
      <use ffdec:characterId="17" ffdec:characterName="183_fla.Symbole234_13" height="56.0" id="back" transform="matrix(1.0, 0.0, 0.0, 1.0, 0.0, 0.0)" width="56.0" xlink:href="#sprite12"/>
    </g>
    <g id="sprite12" transform="matrix(1.0, 0.0, 0.0, 1.0, 0.0, 0.0)">
      <use ffdec:characterId="16" ffdec:characterName="183_fla.Symbole231_14" height="56.0" id="back" transform="matrix(1.0, 0.0, 0.0, 1.0, 0.0, 0.0)" width="56.0" xlink:href="#sprite13"/>
    </g>
    <g id="sprite13" transform="matrix(1.0, 0.0, 0.0, 1.0, 0.0, 0.0)">
      <use ffdec:characterId="15" ffdec:characterName="183_fla.Symbole228_15" height="56.0" id="back" transform="matrix(1.0, 0.0, 0.0, 1.0, 0.0, 0.0)" width="56.0" xlink:href="#sprite14"/>
    </g>
    <g id="sprite14" transform="matrix(1.0, 0.0, 0.0, 1.0, 0.0, 0.0)">
      <use ffdec:characterId="14" ffdec:characterName="183_fla.Symbole225_16" height="56.0" id="back" transform="matrix(1.0, 0.0, 0.0, 1.0, 0.0, 0.0)" width="56.0" xlink:href="#sprite15"/>
    </g>
    <g id="sprite15" transform="matrix(1.0, 0.0, 0.0, 1.0, 0.0, 0.0)">
      <use ffdec:characterId="13" ffdec:characterName="183_fla.Symbole222_17" height="56.0" id="back" transform="matrix(1.0, 0.0, 0.0, 1.0, 0.0, 0.0)" width="56.0" xlink:href="#sprite16"/>
    </g>
    <g id="sprite16" transform="matrix(1.0, 0.0, 0.0, 1.0, 0.0, 0.0)">
      <use ffdec:characterId="12" ffdec:characterName="183_fla.Symbole219_18" height="56.0" id="back" transform="matrix(1.0, 0.0, 0.0, 1.0, 0.0, 0.0)" width="56.0" xlink:href="#sprite17"/>
    </g>
    <g id="sprite17" transform="matrix(1.0, 0.0, 0.0, 1.0, 0.0, 0.0)">
      <use ffdec:characterId="11" ffdec:characterName="183_fla.Symbole216_19" height="56.0" id="back" transform="matrix(1.0, 0.0, 0.0, 1.0, 0.0, 0.0)" width="56.0" xlink:href="#sprite18"/>
    </g>
    <g id="sprite18" transform="matrix(1.0, 0.0, 0.0, 1.0, 0.0, 0.0)">
      <use ffdec:characterId="10" ffdec:characterName="183_fla.Symbole213_20" height="56.0" id="back" transform="matrix(1.0, 0.0, 0.0, 1.0, 0.0, 0.0)" width="56.0" xlink:href="#sprite19"/>
    </g>
    <g id="sprite19" transform="matrix(1.0, 0.0, 0.0, 1.0, 0.0, 0.0)">
      <use ffdec:characterId="9" ffdec:characterName="183_fla.Symbole210_21" height="56.0" id="back" transform="matrix(1.0, 0.0, 0.0, 1.0, 0.0, 0.0)" width="56.0" xlink:href="#sprite20"/>
    </g>
    <g id="sprite20" transform="matrix(1.0, 0.0, 0.0, 1.0, 0.0, 0.0)">
      <use ffdec:characterId="8" ffdec:characterName="183_fla.Symbole207_22" height="56.0" id="back" transform="matrix(1.0, 0.0, 0.0, 1.0, 0.0, 0.0)" width="56.0" xlink:href="#sprite21"/>
    </g>
    <g id="sprite21" transform="matrix(1.0, 0.0, 0.0, 1.0, 0.0, 0.0)">
      <use ffdec:characterId="7" ffdec:characterName="183_fla.Symbole204_23" height="56.0" id="back" transform="matrix(1.0, 0.0, 0.0, 1.0, 0.0, 0.0)" width="56.0" xlink:href="#sprite22"/>
    </g>
    <g id="sprite22" transform="matrix(1.0, 0.0, 0.0, 1.0, 0.0, 0.0)">
      <use ffdec:characterId="6" ffdec:characterName="183_fla.Symbole201_24" height="56.0" id="back" transform="matrix(1.0, 0.0, 0.0, 1.0, 0.0, 0.0)" width="56.0" xlink:href="#sprite23"/>
    </g>
    <g id="sprite23" transform="matrix(1.0, 0.0, 0.0, 1.0, 0.0, 0.0)">
      <use ffdec:characterId="5" ffdec:characterName="183_fla.Symbole198_25" height="56.0" id="back" transform="matrix(1.0, 0.0, 0.0, 1.0, 0.0, 0.0)" width="56.0" xlink:href="#sprite24"/>
    </g>
    <g id="sprite24" transform="matrix(1.0, 0.0, 0.0, 1.0, 0.0, 0.0)">
      <use ffdec:characterId="4" ffdec:characterName="183_fla.Symbole195_26" height="56.0" id="back" transform="matrix(1.0, 0.0, 0.0, 1.0, 0.0, 0.0)" width="56.0" xlink:href="#sprite25"/>
    </g>
    <g id="sprite25" transform="matrix(1.0, 0.0, 0.0, 1.0, 0.0, 0.0)">
      <use ffdec:characterId="3" ffdec:characterName="183_fla.Symbole192_27" height="56.0" id="back" transform="matrix(1.0, 0.0, 0.0, 1.0, 0.0, 0.0)" width="56.0" xlink:href="#sprite26"/>
    </g>
    <g id="sprite26" transform="matrix(1.0, 0.0, 0.0, 1.0, 0.0, 0.0)">
      <use ffdec:characterId="2" height="56.0" id="back" transform="matrix(1.0, 0.0, 0.0, 1.0, 0.0, 0.0)" width="56.0" xlink:href="#sprite27"/>
    </g>
    <g id="sprite27" transform="matrix(1.0, 0.0, 0.0, 1.0, 0.0, 0.0)">
      <use ffdec:characterId="1" height="56.0" transform="matrix(1.0, 0.0, 0.0, 1.0, 0.0, 0.0)" width="56.0" xlink:href="#shape0"/>
    </g>
    <g id="shape0" transform="matrix(1.0, 0.0, 0.0, 1.0, 0.0, 0.0)">
      <path d="M56.0 56.0 L0.0 56.0 0.0 0.0 56.0 0.0 56.0 56.0" fill="#010101" fill-opacity="0.0" fill-rule="evenodd" stroke="none"/>
    </g>
    <g id="sprite28" transform="matrix(1.0, 0.0, 0.0, 1.0, 0.75, 0.75)">
      <use ffdec:characterId="30" height="55.25" transform="matrix(1.0, 0.0, 0.0, 1.0, -0.75, -0.75)" width="52.85" xlink:href="#shape1"/>
    </g>
    <g id="shape1" transform="matrix(1.0, 0.0, 0.0, 1.0, 0.75, 0.75)">
      <path d="M40.0 46.45 L38.8 46.2 Q30.5 44.4 25.85 38.75 L26.8 29.75 27.8 29.3 29.7 32.45 Q29.25 32.9 29.35 33.65 L29.5 34.05 Q29.4 34.65 29.85 35.15 L30.0 35.25 30.1 35.25 Q30.6 35.8 31.55 35.85 L32.05 35.85 32.1 35.85 Q32.45 35.6 33.15 35.3 L33.15 35.1 Q33.65 34.65 33.8 33.9 L33.8 33.65 Q33.8 32.95 33.4 32.45 L33.15 32.05 Q32.4 31.45 31.55 31.5 L30.7 31.7 28.65 28.5 Q29.5 27.65 29.6 26.55 L36.6 30.4 36.75 30.55 37.4 30.95 37.45 30.95 37.8 31.2 37.8 31.1 Q41.25 37.55 40.0 46.2 L40.0 46.45 M48.8 0.0 Q35.1 3.0 34.05 8.4 33.6 10.85 35.25 12.95 L46.1 2.95 35.9 13.7 Q38.2 15.5 40.8 14.9 45.95 13.75 48.8 0.1 L48.8 0.0 M23.6 16.95 Q23.5 17.55 24.1 18.15 L24.15 18.2 24.25 18.2 24.8 18.6 24.95 21.7 Q23.65 21.85 22.75 22.7 L22.65 22.8 22.55 22.9 19.1 17.7 18.85 17.65 18.7 17.4 Q18.05 7.9 25.6 0.15 33.3 8.05 32.7 17.65 L32.55 17.8 32.45 17.8 Q32.4 17.8 32.3 17.9 L28.75 23.15 28.5 22.7 Q27.55 21.8 26.2 21.7 L25.95 18.75 26.2 18.75 27.25 18.2 27.25 18.05 28.05 16.8 28.05 16.6 Q28.05 15.95 27.4 15.35 L27.25 14.95 Q26.6 14.35 25.75 14.4 24.7 14.35 24.1 14.95 L24.1 15.1 24.0 15.2 Q23.45 15.75 23.5 16.6 L23.6 16.95 M18.15 22.05 L17.9 21.6 Q17.25 20.95 16.4 21.05 15.45 20.95 14.7 21.6 L14.7 21.7 14.65 21.85 Q14.1 22.3 14.2 23.2 L14.25 23.5 Q14.2 24.15 14.7 24.7 L14.9 24.7 Q15.45 25.25 16.4 25.35 L16.9 25.35 17.9 24.75 17.9 24.7 18.0 24.7 18.0 24.6 18.45 24.15 21.55 24.95 21.55 25.75 21.65 26.35 13.6 30.25 13.55 30.35 13.35 30.55 Q7.95 28.75 4.2 24.75 1.75 22.2 0.0 18.85 2.05 17.8 4.2 17.3 11.65 15.2 18.5 18.05 L18.6 18.15 22.25 23.4 21.95 23.9 18.7 22.9 18.15 21.95 18.15 22.05 M32.9 18.45 L32.9 18.2 Q41.7 14.55 51.35 19.05 47.0 27.4 37.15 30.0 L37.1 30.0 29.7 25.85 29.7 25.75 29.6 24.95 33.15 23.9 33.6 24.7 33.75 24.7 Q34.25 25.25 35.15 25.35 L35.75 25.35 36.75 24.75 36.75 24.6 Q37.3 24.15 37.45 23.35 L37.45 23.2 Q37.45 22.45 37.0 21.95 L37.0 22.05 36.75 21.6 Q36.1 20.95 35.15 21.05 34.25 20.95 33.6 21.6 L33.6 21.7 33.5 21.85 Q33.15 22.15 33.05 22.7 L29.35 23.9 29.1 23.5 32.65 18.45 32.9 18.45 M13.85 30.95 L14.0 30.7 21.7 26.95 Q21.95 27.8 22.75 28.55 L21.05 30.5 20.6 30.4 Q19.55 30.4 18.95 31.05 L18.95 31.2 18.85 31.3 Q18.3 31.8 18.35 32.65 L18.45 32.95 Q18.45 33.65 18.95 34.1 L19.1 34.2 Q19.55 34.65 20.6 34.75 L21.05 34.75 21.15 34.75 22.1 34.25 22.1 34.05 Q22.75 33.65 22.9 32.8 L22.9 32.65 Q22.9 31.9 22.3 31.45 L22.1 31.05 23.5 29.3 25.7 29.75 26.2 29.75 25.25 38.75 25.35 38.9 23.75 40.55 Q19.85 44.5 14.1 46.2 L10.8 47.1 10.65 46.2 Q9.5 37.55 13.6 31.1 L13.7 31.1 13.85 30.95 M22.8 43.25 Q21.05 46.1 26.4 53.75 31.2 45.95 29.1 42.9 28.15 41.55 26.4 41.4 L26.2 51.15 25.75 41.4 Q23.75 41.65 22.8 43.25 M31.8 46.45 L35.4 51.85 31.35 46.8 Q30.45 47.65 30.5 48.85 30.7 51.15 36.5 53.2 L36.6 53.2 Q36.1 47.1 33.8 46.3 L31.8 46.45 Z" fill="none" stroke="#000000" stroke-linecap="round" stroke-linejoin="round" stroke-opacity="0.2" stroke-width="1.5"/>
    </g>
    <g id="sprite29" transform="matrix(1.0, 0.0, 0.0, 1.0, 0.0, 0.0)">
      <use ffdec:characterId="32" height="53.75" transform="matrix(1.0, 0.0, 0.0, 1.0, 0.0, 0.0)" width="51.4" xlink:href="#shape2"/>
    </g>
    <g id="shape2" transform="matrix(1.0, 0.0, 0.0, 1.0, 0.0, 0.0)">
      <path d="M48.85 0.0 L48.85 0.1 Q46.0 13.8 40.85 14.9 38.2 15.5 35.9 13.7 L46.15 2.95 35.3 13.0 Q33.6 10.85 34.1 8.4 35.15 3.0 48.85 0.0 M38.85 46.25 Q30.55 44.4 25.85 38.7 L26.8 29.75 27.85 29.3 29.75 32.45 Q29.25 32.85 29.35 33.65 L29.5 34.05 Q29.4 34.7 29.9 35.15 L30.05 35.25 30.15 35.25 Q30.6 35.8 31.55 35.85 L32.05 35.85 32.1 35.85 33.15 35.3 33.15 35.05 Q33.7 34.7 33.85 33.9 L33.85 33.65 Q33.85 32.95 33.4 32.45 L33.15 32.05 Q32.45 31.45 31.55 31.5 L30.7 31.65 28.7 28.5 Q29.5 27.65 29.65 26.5 L36.65 30.4 36.8 30.55 37.45 30.95 37.5 30.95 37.8 31.2 37.8 31.1 Q41.3 37.55 40.05 46.25 L40.05 46.45 38.85 46.25 M23.55 16.65 L23.65 16.95 Q23.55 17.6 24.1 18.15 L24.2 18.2 24.25 18.2 24.85 18.6 25.0 21.7 Q23.7 21.85 22.75 22.7 L22.7 22.8 22.6 22.9 19.1 17.75 18.9 17.65 18.7 17.4 Q18.1 7.9 25.6 0.15 33.3 8.1 32.75 17.65 L32.6 17.8 32.5 17.8 32.35 17.9 32.3 18.05 28.8 23.1 28.55 22.7 Q27.6 21.75 26.25 21.7 L26.0 18.75 26.25 18.75 27.3 18.2 27.3 18.05 Q27.85 17.6 28.1 16.8 L28.1 16.65 Q28.1 15.9 27.45 15.35 L27.3 14.95 Q26.65 14.35 25.8 14.4 24.75 14.35 24.1 14.95 L24.1 15.1 24.05 15.2 Q23.5 15.75 23.55 16.65 M18.15 21.95 L18.15 22.0 17.95 21.6 Q17.3 21.0 16.45 21.05 15.5 21.0 14.75 21.6 L14.75 21.7 14.7 21.85 Q14.15 22.35 14.2 23.2 L14.3 23.5 Q14.2 24.15 14.75 24.7 L14.9 24.7 Q15.5 25.25 16.45 25.35 L16.9 25.35 17.95 24.8 17.95 24.7 18.0 24.7 18.0 24.6 18.5 24.15 21.6 24.95 21.6 25.75 21.65 26.35 13.65 30.25 13.55 30.3 13.4 30.55 Q7.95 28.75 4.2 24.8 1.75 22.25 0.0 18.85 2.1 17.8 4.2 17.25 11.65 15.2 18.55 18.05 L18.65 18.15 22.3 23.45 21.95 23.9 18.7 22.9 18.15 21.95 M32.9 18.2 Q41.7 14.55 51.4 19.1 47.0 27.4 37.2 30.0 L37.1 30.0 29.75 25.9 29.75 25.75 29.65 24.95 33.15 23.9 33.6 24.7 33.8 24.7 Q34.25 25.25 35.2 25.35 L35.75 25.35 36.8 24.8 36.8 24.6 Q37.35 24.15 37.5 23.35 L37.5 23.2 Q37.5 22.5 37.05 21.95 L37.05 22.0 36.8 21.6 Q36.15 21.0 35.2 21.05 34.25 21.0 33.6 21.6 L33.6 21.7 33.55 21.85 Q33.15 22.15 33.05 22.7 L29.35 23.9 29.1 23.5 32.65 18.45 32.9 18.45 32.9 18.2 M13.75 31.1 L13.9 30.95 14.05 30.7 21.75 27.0 Q21.95 27.8 22.75 28.6 L21.1 30.5 20.65 30.4 Q19.6 30.4 18.95 31.05 L18.95 31.2 18.9 31.25 Q18.35 31.85 18.4 32.6 L18.5 32.95 Q18.5 33.65 18.95 34.1 L19.1 34.2 Q19.6 34.7 20.65 34.75 L21.1 34.75 21.2 34.75 22.15 34.3 22.15 34.05 Q22.75 33.65 22.95 32.8 L22.95 32.6 Q22.95 31.9 22.35 31.45 L22.15 31.05 23.55 29.3 25.7 29.75 26.25 29.75 25.3 38.7 25.4 38.85 23.8 40.55 Q19.9 44.5 14.15 46.25 L10.8 47.1 10.65 46.25 Q9.55 37.55 13.65 31.1 L13.75 31.1 M31.8 46.45 L33.85 46.3 Q36.15 47.1 36.65 53.2 L36.55 53.2 Q30.7 51.15 30.55 48.85 30.45 47.65 31.4 46.8 L35.45 51.85 31.8 46.45 M22.85 43.25 Q23.8 41.65 25.8 41.4 L26.25 51.15 26.4 41.4 Q28.15 41.55 29.1 42.9 31.25 45.9 26.4 53.75 21.1 46.1 22.85 43.25" fill="#000000" fill-rule="evenodd" stroke="none"/>
    </g>
  </defs>
</svg>
