<?xml version="1.0" encoding="UTF-8" standalone="no"?>
<svg xmlns:ffdec="https://www.free-decompiler.com/flash" xmlns:xlink="http://www.w3.org/1999/xlink" ffdec:objectType="frame" height="56.0px" width="56.0px" xmlns="http://www.w3.org/2000/svg">
  <g transform="matrix(1.0, 0.0, 0.0, 1.0, 0.0, 0.0)">
    <use ffdec:characterId="30" ffdec:characterName="184_fla.Symbole273_1" height="56.0" id="back" transform="matrix(1.0, 0.0, 0.0, 1.0, 0.0, 0.0)" width="56.0" xlink:href="#sprite0"/>
    <use ffdec:characterId="32" height="50.75" id="back" transform="matrix(1.0, 0.0, 0.0, 1.0, 0.35, 2.45)" width="55.35" xlink:href="#sprite29"/>
    <use ffdec:characterId="34" height="49.25" id="up" transform="matrix(1.0, 0.0, 0.0, 1.0, 1.1, 3.2)" width="53.85" xlink:href="#sprite30"/>
  </g>
  <defs>
    <g id="sprite0" transform="matrix(1.0, 0.0, 0.0, 1.0, 0.0, 0.0)">
      <use ffdec:characterId="29" ffdec:characterName="184_fla.Symbole270_2" height="56.0" id="back" transform="matrix(1.0, 0.0, 0.0, 1.0, 0.0, 0.0)" width="56.0" xlink:href="#sprite1"/>
    </g>
    <g id="sprite1" transform="matrix(1.0, 0.0, 0.0, 1.0, 0.0, 0.0)">
      <use ffdec:characterId="28" ffdec:characterName="184_fla.Symbole267_3" height="56.0" id="back" transform="matrix(1.0, 0.0, 0.0, 1.0, 0.0, 0.0)" width="56.0" xlink:href="#sprite2"/>
    </g>
    <g id="sprite2" transform="matrix(1.0, 0.0, 0.0, 1.0, 0.0, 0.0)">
      <use ffdec:characterId="27" ffdec:characterName="184_fla.Symbole264_4" height="56.0" id="back" transform="matrix(1.0, 0.0, 0.0, 1.0, 0.0, 0.0)" width="56.0" xlink:href="#sprite3"/>
    </g>
    <g id="sprite3" transform="matrix(1.0, 0.0, 0.0, 1.0, 0.0, 0.0)">
      <use ffdec:characterId="26" ffdec:characterName="184_fla.Symbole261_5" height="56.0" id="back" transform="matrix(1.0, 0.0, 0.0, 1.0, 0.0, 0.0)" width="56.0" xlink:href="#sprite4"/>
    </g>
    <g id="sprite4" transform="matrix(1.0, 0.0, 0.0, 1.0, 0.0, 0.0)">
      <use ffdec:characterId="25" ffdec:characterName="184_fla.Symbole258_6" height="56.0" id="back" transform="matrix(1.0, 0.0, 0.0, 1.0, 0.0, 0.0)" width="56.0" xlink:href="#sprite5"/>
    </g>
    <g id="sprite5" transform="matrix(1.0, 0.0, 0.0, 1.0, 0.0, 0.0)">
      <use ffdec:characterId="24" ffdec:characterName="184_fla.Symbole255_7" height="56.0" id="back" transform="matrix(1.0, 0.0, 0.0, 1.0, 0.0, 0.0)" width="56.0" xlink:href="#sprite6"/>
    </g>
    <g id="sprite6" transform="matrix(1.0, 0.0, 0.0, 1.0, 0.0, 0.0)">
      <use ffdec:characterId="23" ffdec:characterName="184_fla.Symbole252_8" height="56.0" id="back" transform="matrix(1.0, 0.0, 0.0, 1.0, 0.0, 0.0)" width="56.0" xlink:href="#sprite7"/>
    </g>
    <g id="sprite7" transform="matrix(1.0, 0.0, 0.0, 1.0, 0.0, 0.0)">
      <use ffdec:characterId="22" ffdec:characterName="184_fla.Symbole249_9" height="56.0" id="back" transform="matrix(1.0, 0.0, 0.0, 1.0, 0.0, 0.0)" width="56.0" xlink:href="#sprite8"/>
    </g>
    <g id="sprite8" transform="matrix(1.0, 0.0, 0.0, 1.0, 0.0, 0.0)">
      <use ffdec:characterId="21" ffdec:characterName="184_fla.Symbole246_10" height="56.0" id="back" transform="matrix(1.0, 0.0, 0.0, 1.0, 0.0, 0.0)" width="56.0" xlink:href="#sprite9"/>
    </g>
    <g id="sprite9" transform="matrix(1.0, 0.0, 0.0, 1.0, 0.0, 0.0)">
      <use ffdec:characterId="20" ffdec:characterName="184_fla.Symbole243_11" height="56.0" id="back" transform="matrix(1.0, 0.0, 0.0, 1.0, 0.0, 0.0)" width="56.0" xlink:href="#sprite10"/>
    </g>
    <g id="sprite10" transform="matrix(1.0, 0.0, 0.0, 1.0, 0.0, 0.0)">
      <use ffdec:characterId="19" ffdec:characterName="184_fla.Symbole240_12" height="56.0" id="back" transform="matrix(1.0, 0.0, 0.0, 1.0, 0.0, 0.0)" width="56.0" xlink:href="#sprite11"/>
    </g>
    <g id="sprite11" transform="matrix(1.0, 0.0, 0.0, 1.0, 0.0, 0.0)">
      <use ffdec:characterId="18" ffdec:characterName="184_fla.Symbole237_13" height="56.0" id="back" transform="matrix(1.0, 0.0, 0.0, 1.0, 0.0, 0.0)" width="56.0" xlink:href="#sprite12"/>
    </g>
    <g id="sprite12" transform="matrix(1.0, 0.0, 0.0, 1.0, 0.0, 0.0)">
      <use ffdec:characterId="17" ffdec:characterName="184_fla.Symbole234_14" height="56.0" id="back" transform="matrix(1.0, 0.0, 0.0, 1.0, 0.0, 0.0)" width="56.0" xlink:href="#sprite13"/>
    </g>
    <g id="sprite13" transform="matrix(1.0, 0.0, 0.0, 1.0, 0.0, 0.0)">
      <use ffdec:characterId="16" ffdec:characterName="184_fla.Symbole231_15" height="56.0" id="back" transform="matrix(1.0, 0.0, 0.0, 1.0, 0.0, 0.0)" width="56.0" xlink:href="#sprite14"/>
    </g>
    <g id="sprite14" transform="matrix(1.0, 0.0, 0.0, 1.0, 0.0, 0.0)">
      <use ffdec:characterId="15" ffdec:characterName="184_fla.Symbole228_16" height="56.0" id="back" transform="matrix(1.0, 0.0, 0.0, 1.0, 0.0, 0.0)" width="56.0" xlink:href="#sprite15"/>
    </g>
    <g id="sprite15" transform="matrix(1.0, 0.0, 0.0, 1.0, 0.0, 0.0)">
      <use ffdec:characterId="14" ffdec:characterName="184_fla.Symbole225_17" height="56.0" id="back" transform="matrix(1.0, 0.0, 0.0, 1.0, 0.0, 0.0)" width="56.0" xlink:href="#sprite16"/>
    </g>
    <g id="sprite16" transform="matrix(1.0, 0.0, 0.0, 1.0, 0.0, 0.0)">
      <use ffdec:characterId="13" ffdec:characterName="184_fla.Symbole222_18" height="56.0" id="back" transform="matrix(1.0, 0.0, 0.0, 1.0, 0.0, 0.0)" width="56.0" xlink:href="#sprite17"/>
    </g>
    <g id="sprite17" transform="matrix(1.0, 0.0, 0.0, 1.0, 0.0, 0.0)">
      <use ffdec:characterId="12" ffdec:characterName="184_fla.Symbole219_19" height="56.0" id="back" transform="matrix(1.0, 0.0, 0.0, 1.0, 0.0, 0.0)" width="56.0" xlink:href="#sprite18"/>
    </g>
    <g id="sprite18" transform="matrix(1.0, 0.0, 0.0, 1.0, 0.0, 0.0)">
      <use ffdec:characterId="11" ffdec:characterName="184_fla.Symbole216_20" height="56.0" id="back" transform="matrix(1.0, 0.0, 0.0, 1.0, 0.0, 0.0)" width="56.0" xlink:href="#sprite19"/>
    </g>
    <g id="sprite19" transform="matrix(1.0, 0.0, 0.0, 1.0, 0.0, 0.0)">
      <use ffdec:characterId="10" ffdec:characterName="184_fla.Symbole213_21" height="56.0" id="back" transform="matrix(1.0, 0.0, 0.0, 1.0, 0.0, 0.0)" width="56.0" xlink:href="#sprite20"/>
    </g>
    <g id="sprite20" transform="matrix(1.0, 0.0, 0.0, 1.0, 0.0, 0.0)">
      <use ffdec:characterId="9" ffdec:characterName="184_fla.Symbole210_22" height="56.0" id="back" transform="matrix(1.0, 0.0, 0.0, 1.0, 0.0, 0.0)" width="56.0" xlink:href="#sprite21"/>
    </g>
    <g id="sprite21" transform="matrix(1.0, 0.0, 0.0, 1.0, 0.0, 0.0)">
      <use ffdec:characterId="8" ffdec:characterName="184_fla.Symbole207_23" height="56.0" id="back" transform="matrix(1.0, 0.0, 0.0, 1.0, 0.0, 0.0)" width="56.0" xlink:href="#sprite22"/>
    </g>
    <g id="sprite22" transform="matrix(1.0, 0.0, 0.0, 1.0, 0.0, 0.0)">
      <use ffdec:characterId="7" ffdec:characterName="184_fla.Symbole204_24" height="56.0" id="back" transform="matrix(1.0, 0.0, 0.0, 1.0, 0.0, 0.0)" width="56.0" xlink:href="#sprite23"/>
    </g>
    <g id="sprite23" transform="matrix(1.0, 0.0, 0.0, 1.0, 0.0, 0.0)">
      <use ffdec:characterId="6" ffdec:characterName="184_fla.Symbole201_25" height="56.0" id="back" transform="matrix(1.0, 0.0, 0.0, 1.0, 0.0, 0.0)" width="56.0" xlink:href="#sprite24"/>
    </g>
    <g id="sprite24" transform="matrix(1.0, 0.0, 0.0, 1.0, 0.0, 0.0)">
      <use ffdec:characterId="5" ffdec:characterName="184_fla.Symbole198_26" height="56.0" id="back" transform="matrix(1.0, 0.0, 0.0, 1.0, 0.0, 0.0)" width="56.0" xlink:href="#sprite25"/>
    </g>
    <g id="sprite25" transform="matrix(1.0, 0.0, 0.0, 1.0, 0.0, 0.0)">
      <use ffdec:characterId="4" ffdec:characterName="184_fla.Symbole195_27" height="56.0" id="back" transform="matrix(1.0, 0.0, 0.0, 1.0, 0.0, 0.0)" width="56.0" xlink:href="#sprite26"/>
    </g>
    <g id="sprite26" transform="matrix(1.0, 0.0, 0.0, 1.0, 0.0, 0.0)">
      <use ffdec:characterId="3" ffdec:characterName="184_fla.Symbole192_28" height="56.0" id="back" transform="matrix(1.0, 0.0, 0.0, 1.0, 0.0, 0.0)" width="56.0" xlink:href="#sprite27"/>
    </g>
    <g id="sprite27" transform="matrix(1.0, 0.0, 0.0, 1.0, 0.0, 0.0)">
      <use ffdec:characterId="2" height="56.0" id="back" transform="matrix(1.0, 0.0, 0.0, 1.0, 0.0, 0.0)" width="56.0" xlink:href="#sprite28"/>
    </g>
    <g id="sprite28" transform="matrix(1.0, 0.0, 0.0, 1.0, 0.0, 0.0)">
      <use ffdec:characterId="1" height="56.0" transform="matrix(1.0, 0.0, 0.0, 1.0, 0.0, 0.0)" width="56.0" xlink:href="#shape0"/>
    </g>
    <g id="shape0" transform="matrix(1.0, 0.0, 0.0, 1.0, 0.0, 0.0)">
      <path d="M56.0 56.0 L0.0 56.0 0.0 0.0 56.0 0.0 56.0 56.0" fill="#010101" fill-opacity="0.0" fill-rule="evenodd" stroke="none"/>
    </g>
    <g id="sprite29" transform="matrix(1.0, 0.0, 0.0, 1.0, 0.75, 0.75)">
      <use ffdec:characterId="31" height="50.75" transform="matrix(1.0, 0.0, 0.0, 1.0, -0.75, -0.75)" width="55.35" xlink:href="#shape1"/>
    </g>
    <g id="shape1" transform="matrix(1.0, 0.0, 0.0, 1.0, 0.75, 0.75)">
      <path d="M42.35 37.5 Q41.75 34.4 40.25 31.85 L42.55 30.95 Q45.0 33.1 46.9 36.25 L42.35 37.5 M19.5 18.85 L23.3 24.4 23.05 24.95 19.5 23.9 Q19.45 23.3 19.05 22.9 L19.05 23.0 18.8 22.5 Q18.15 21.9 17.15 21.95 16.1 21.9 15.45 22.5 L15.45 22.65 15.35 22.75 Q14.8 23.3 14.85 24.15 L14.95 24.55 Q14.85 25.2 15.45 25.75 L15.6 25.85 Q16.1 26.35 17.15 26.35 L17.65 26.35 17.7 26.35 18.8 25.9 18.8 25.65 19.3 25.2 22.6 26.05 22.55 26.85 Q22.55 27.2 22.7 27.55 L14.35 31.6 14.15 31.65 14.1 31.9 Q8.3 30.0 4.35 25.9 1.85 23.2 0.0 19.7 2.1 18.55 4.35 18.0 12.15 15.8 19.45 18.8 L19.5 18.85 M19.5 18.1 Q19.0 8.1 26.8 0.0 34.85 8.3 34.4 18.4 L34.15 18.55 34.1 18.55 Q34.0 18.55 33.95 18.65 L33.85 18.8 30.2 24.1 29.9 23.65 Q28.95 22.75 27.45 22.55 L27.25 19.5 27.45 19.5 27.5 19.5 28.55 19.0 28.55 18.95 28.6 18.85 28.6 18.8 Q29.2 18.25 29.45 17.45 L29.45 17.3 Q29.45 16.55 28.8 15.95 L28.8 16.05 28.55 15.55 Q27.95 14.95 27.0 15.0 25.9 14.95 25.25 15.55 L25.25 15.7 25.15 15.8 Q24.55 16.4 24.65 17.3 L24.75 17.6 Q24.75 18.25 25.25 18.85 L25.4 18.95 25.5 18.95 26.0 19.35 26.25 22.55 Q24.8 22.75 23.8 23.65 L23.7 23.75 23.65 23.85 20.0 18.5 19.85 18.35 19.75 18.35 19.5 18.1 M39.25 11.3 Q39.55 14.05 39.25 16.55 37.15 16.8 35.2 17.55 35.2 15.0 34.7 12.65 36.8 11.75 39.25 11.3 M34.55 19.0 Q43.7 15.2 53.85 19.9 49.35 28.55 39.0 31.35 L38.9 31.35 31.15 27.0 31.15 26.85 31.15 26.05 34.8 24.95 Q34.85 25.45 35.25 25.75 L35.35 25.85 35.45 25.85 Q35.9 26.35 36.95 26.35 L37.5 26.35 37.55 26.35 38.6 25.9 38.6 25.65 Q39.15 25.2 39.3 24.4 L39.3 24.15 Q39.3 23.45 38.8 22.9 L38.8 23.0 38.6 22.5 Q37.9 21.9 36.95 21.95 35.9 21.9 35.25 22.5 L35.25 22.65 35.1 22.75 34.6 23.65 30.75 24.95 30.55 24.55 34.25 19.25 34.5 19.2 34.55 19.0 M13.15 16.2 Q12.9 13.85 13.2 11.3 L16.1 12.1 16.2 12.15 Q17.55 12.65 18.75 13.35 18.4 15.2 18.5 17.3 15.9 16.35 13.15 16.2 M13.05 32.45 Q11.95 34.3 11.25 36.4 L8.95 35.75 8.85 35.75 6.75 34.9 6.8 34.8 Q8.0 32.6 9.65 30.85 11.25 31.75 13.05 32.45 M14.4 32.55 L14.55 32.3 14.6 32.05 22.8 28.1 Q23.05 29.05 23.8 29.85 L22.05 31.85 21.6 31.85 Q20.6 31.75 19.85 32.45 L19.85 32.55 19.75 32.7 Q19.25 33.2 19.3 34.05 L19.4 34.4 Q19.3 35.15 19.85 35.65 L20.0 35.75 20.1 35.75 Q20.6 36.25 21.6 36.3 L22.05 36.3 22.1 36.3 23.2 35.75 23.25 35.65 23.25 35.6 24.05 34.3 24.05 34.05 Q24.05 33.3 23.4 32.75 L23.4 32.85 23.2 32.45 24.75 30.55 Q25.65 31.1 27.0 31.1 L27.45 31.1 26.5 40.4 26.6 40.65 25.0 42.4 Q20.85 46.55 14.8 48.4 L11.25 49.25 11.15 48.4 Q9.95 39.2 14.25 32.55 L14.4 32.55 M32.15 33.1 L30.05 29.75 Q30.9 28.9 31.15 27.65 L38.4 31.75 38.6 31.9 39.3 32.3 39.7 32.55 Q43.35 39.2 42.0 48.4 L42.0 48.65 40.8 48.4 Q32.05 46.5 27.1 40.4 L28.1 31.1 29.2 30.55 31.15 33.85 Q30.7 34.35 30.75 35.2 L30.9 35.55 Q30.8 36.25 31.4 36.75 L31.55 36.75 Q32.1 37.4 33.15 37.5 L33.6 37.5 34.7 36.85 34.7 36.75 34.8 36.75 Q35.35 36.25 35.5 35.4 L35.5 35.2 Q35.5 34.4 34.95 33.85 L34.95 33.95 34.7 33.55 Q34.0 32.85 33.15 32.95 L32.15 33.1 M25.9 42.4 L26.75 41.45 29.65 44.2 Q28.35 46.4 26.25 48.75 L26.0 48.4 23.3 44.7 25.7 42.65 25.9 42.4 Z" fill="none" stroke="#000000" stroke-linecap="round" stroke-linejoin="round" stroke-opacity="0.2" stroke-width="1.5"/>
    </g>
    <g id="sprite30" transform="matrix(1.0, 0.0, 0.0, 1.0, 0.0, 0.0)">
      <use ffdec:characterId="33" height="49.25" transform="matrix(1.0, 0.0, 0.0, 1.0, 0.0, 0.0)" width="53.85" xlink:href="#shape2"/>
    </g>
    <g id="shape2" transform="matrix(1.0, 0.0, 0.0, 1.0, 0.0, 0.0)">
      <path d="M42.4 37.5 Q41.75 34.45 40.25 31.85 L42.55 30.95 Q45.0 33.1 46.9 36.25 L42.4 37.5 M19.55 18.1 Q19.0 8.15 26.8 0.0 34.9 8.3 34.4 18.4 L34.15 18.55 34.1 18.55 Q34.0 18.55 33.95 18.65 L33.85 18.8 30.2 24.1 29.9 23.7 Q28.95 22.75 27.45 22.6 L27.3 19.5 27.45 19.5 27.5 19.5 28.55 19.05 28.55 18.95 28.65 18.9 28.65 18.8 Q29.2 18.25 29.4 17.45 L29.4 17.3 Q29.4 16.6 28.8 15.95 L28.8 16.05 28.55 15.55 Q27.9 14.95 26.95 15.0 25.95 14.95 25.25 15.55 L25.25 15.75 25.15 15.8 Q24.6 16.45 24.7 17.3 L24.75 17.6 Q24.75 18.25 25.25 18.9 L25.4 18.95 25.45 18.95 26.0 19.35 26.25 22.6 Q24.85 22.75 23.8 23.7 L23.75 23.8 23.65 23.85 20.0 18.5 19.85 18.35 19.75 18.35 19.55 18.1 M19.55 18.9 L23.35 24.4 23.0 24.95 19.55 23.95 Q19.45 23.3 19.05 22.9 L19.05 23.0 18.85 22.5 Q18.1 21.9 17.15 21.95 16.15 21.9 15.4 22.5 L15.4 22.65 15.35 22.75 Q14.8 23.3 14.85 24.15 L14.95 24.55 Q14.85 25.2 15.4 25.75 L15.6 25.85 Q16.15 26.4 17.15 26.4 L17.65 26.4 17.7 26.4 18.85 25.9 18.85 25.65 19.3 25.2 22.6 26.05 22.55 26.85 22.7 27.55 14.3 31.6 14.15 31.65 14.1 31.9 Q8.3 30.0 4.35 25.9 1.8 23.25 0.0 19.65 2.15 18.55 4.35 18.0 12.2 15.8 19.45 18.8 L19.55 18.9 M39.25 11.3 Q39.55 14.05 39.25 16.6 37.15 16.85 35.2 17.55 35.2 15.0 34.7 12.65 36.8 11.8 39.25 11.3 M34.55 19.05 Q43.75 15.2 53.85 19.9 49.35 28.6 39.0 31.35 L38.9 31.35 31.15 27.0 31.15 26.85 31.15 26.05 34.8 24.95 35.25 25.75 35.35 25.85 35.45 25.85 Q35.9 26.4 36.95 26.4 L37.5 26.4 37.55 26.4 38.6 25.9 38.6 25.65 Q39.15 25.2 39.3 24.4 L39.3 24.15 Q39.3 23.45 38.85 22.9 L38.85 23.0 38.6 22.5 Q37.9 21.9 36.95 21.95 35.9 21.9 35.25 22.5 L35.25 22.65 35.1 22.75 Q34.8 23.15 34.65 23.7 L30.75 24.95 30.55 24.55 34.25 19.3 34.5 19.2 34.55 19.05 M13.15 16.2 Q12.9 13.85 13.2 11.3 L16.15 12.1 16.2 12.2 Q17.55 12.65 18.75 13.35 18.45 15.25 18.5 17.3 15.9 16.35 13.15 16.2 M13.05 32.45 Q11.95 34.25 11.25 36.4 L8.95 35.75 8.85 35.75 6.75 34.9 6.8 34.85 Q8.0 32.6 9.65 30.9 L13.05 32.45 M14.4 32.55 L14.55 32.3 14.65 32.05 22.8 28.1 Q23.0 29.05 23.8 29.85 L22.05 31.85 21.6 31.85 Q20.55 31.75 19.85 32.45 L19.85 32.55 19.75 32.7 Q19.2 33.25 19.3 34.05 L19.4 34.45 Q19.3 35.15 19.85 35.7 L20.0 35.75 20.1 35.75 Q20.55 36.25 21.6 36.35 L22.05 36.35 22.15 36.35 23.15 35.75 23.25 35.7 23.25 35.6 24.05 34.25 24.05 34.05 Q24.05 33.35 23.4 32.8 L23.4 32.85 23.15 32.45 24.75 30.55 Q25.65 31.1 26.95 31.1 L27.45 31.1 26.5 40.45 26.6 40.65 25.0 42.4 Q20.9 46.6 14.8 48.4 L11.25 49.25 11.15 48.4 Q9.95 39.25 14.25 32.55 L14.4 32.55 M30.05 29.8 Q30.95 28.9 31.15 27.65 L38.45 31.75 38.6 31.9 39.3 32.3 39.7 32.55 Q43.35 39.25 42.0 48.4 L42.0 48.65 40.8 48.4 Q32.05 46.5 27.15 40.45 L28.1 31.1 29.2 30.55 31.15 33.9 Q30.7 34.35 30.75 35.2 L30.95 35.55 Q30.85 36.25 31.4 36.7 L31.5 36.8 31.55 36.8 Q32.1 37.45 33.15 37.5 L33.6 37.5 34.7 36.9 34.7 36.8 34.8 36.7 Q35.35 36.25 35.5 35.4 L35.5 35.2 Q35.5 34.45 34.95 33.9 L34.95 33.95 34.7 33.55 Q34.0 32.85 33.15 32.95 L32.2 33.1 30.05 29.8 M25.95 42.4 L26.75 41.45 29.65 44.2 Q28.4 46.45 26.25 48.7 L26.0 48.4 Q24.45 46.6 23.35 44.7 L25.7 42.65 25.95 42.4" fill="#000000" fill-rule="evenodd" stroke="none"/>
    </g>
  </defs>
</svg>
