<?xml version="1.0" encoding="UTF-8" standalone="no"?>
<svg xmlns:ffdec="https://www.free-decompiler.com/flash" xmlns:xlink="http://www.w3.org/1999/xlink" ffdec:objectType="frame" height="56.0px" width="56.0px" xmlns="http://www.w3.org/2000/svg">
  <g transform="matrix(1.0, 0.0, 0.0, 1.0, 0.0, 0.0)">
    <use ffdec:characterId="31" ffdec:characterName="185_fla.Symbole276_1" height="56.0" id="back" transform="matrix(1.0, 0.0, 0.0, 1.0, 0.0, 0.0)" width="56.0" xlink:href="#sprite0"/>
    <use ffdec:characterId="33" height="55.25" id="back" transform="matrix(1.0, 0.0, 0.0, 1.0, 0.35, 0.3)" width="55.35" xlink:href="#sprite30"/>
    <use ffdec:characterId="35" height="53.75" id="up" transform="matrix(1.0, 0.0, 0.0, 1.0, 1.1, 1.05)" width="53.85" xlink:href="#sprite31"/>
  </g>
  <defs>
    <g id="sprite0" transform="matrix(1.0, 0.0, 0.0, 1.0, 0.0, 0.0)">
      <use ffdec:characterId="30" ffdec:characterName="185_fla.Symbole273_2" height="56.0" id="back" transform="matrix(1.0, 0.0, 0.0, 1.0, 0.0, 0.0)" width="56.0" xlink:href="#sprite1"/>
    </g>
    <g id="sprite1" transform="matrix(1.0, 0.0, 0.0, 1.0, 0.0, 0.0)">
      <use ffdec:characterId="29" ffdec:characterName="185_fla.Symbole270_3" height="56.0" id="back" transform="matrix(1.0, 0.0, 0.0, 1.0, 0.0, 0.0)" width="56.0" xlink:href="#sprite2"/>
    </g>
    <g id="sprite2" transform="matrix(1.0, 0.0, 0.0, 1.0, 0.0, 0.0)">
      <use ffdec:characterId="28" ffdec:characterName="185_fla.Symbole267_4" height="56.0" id="back" transform="matrix(1.0, 0.0, 0.0, 1.0, 0.0, 0.0)" width="56.0" xlink:href="#sprite3"/>
    </g>
    <g id="sprite3" transform="matrix(1.0, 0.0, 0.0, 1.0, 0.0, 0.0)">
      <use ffdec:characterId="27" ffdec:characterName="185_fla.Symbole264_5" height="56.0" id="back" transform="matrix(1.0, 0.0, 0.0, 1.0, 0.0, 0.0)" width="56.0" xlink:href="#sprite4"/>
    </g>
    <g id="sprite4" transform="matrix(1.0, 0.0, 0.0, 1.0, 0.0, 0.0)">
      <use ffdec:characterId="26" ffdec:characterName="185_fla.Symbole261_6" height="56.0" id="back" transform="matrix(1.0, 0.0, 0.0, 1.0, 0.0, 0.0)" width="56.0" xlink:href="#sprite5"/>
    </g>
    <g id="sprite5" transform="matrix(1.0, 0.0, 0.0, 1.0, 0.0, 0.0)">
      <use ffdec:characterId="25" ffdec:characterName="185_fla.Symbole258_7" height="56.0" id="back" transform="matrix(1.0, 0.0, 0.0, 1.0, 0.0, 0.0)" width="56.0" xlink:href="#sprite6"/>
    </g>
    <g id="sprite6" transform="matrix(1.0, 0.0, 0.0, 1.0, 0.0, 0.0)">
      <use ffdec:characterId="24" ffdec:characterName="185_fla.Symbole255_8" height="56.0" id="back" transform="matrix(1.0, 0.0, 0.0, 1.0, 0.0, 0.0)" width="56.0" xlink:href="#sprite7"/>
    </g>
    <g id="sprite7" transform="matrix(1.0, 0.0, 0.0, 1.0, 0.0, 0.0)">
      <use ffdec:characterId="23" ffdec:characterName="185_fla.Symbole252_9" height="56.0" id="back" transform="matrix(1.0, 0.0, 0.0, 1.0, 0.0, 0.0)" width="56.0" xlink:href="#sprite8"/>
    </g>
    <g id="sprite8" transform="matrix(1.0, 0.0, 0.0, 1.0, 0.0, 0.0)">
      <use ffdec:characterId="22" ffdec:characterName="185_fla.Symbole249_10" height="56.0" id="back" transform="matrix(1.0, 0.0, 0.0, 1.0, 0.0, 0.0)" width="56.0" xlink:href="#sprite9"/>
    </g>
    <g id="sprite9" transform="matrix(1.0, 0.0, 0.0, 1.0, 0.0, 0.0)">
      <use ffdec:characterId="21" ffdec:characterName="185_fla.Symbole246_11" height="56.0" id="back" transform="matrix(1.0, 0.0, 0.0, 1.0, 0.0, 0.0)" width="56.0" xlink:href="#sprite10"/>
    </g>
    <g id="sprite10" transform="matrix(1.0, 0.0, 0.0, 1.0, 0.0, 0.0)">
      <use ffdec:characterId="20" ffdec:characterName="185_fla.Symbole243_12" height="56.0" id="back" transform="matrix(1.0, 0.0, 0.0, 1.0, 0.0, 0.0)" width="56.0" xlink:href="#sprite11"/>
    </g>
    <g id="sprite11" transform="matrix(1.0, 0.0, 0.0, 1.0, 0.0, 0.0)">
      <use ffdec:characterId="19" ffdec:characterName="185_fla.Symbole240_13" height="56.0" id="back" transform="matrix(1.0, 0.0, 0.0, 1.0, 0.0, 0.0)" width="56.0" xlink:href="#sprite12"/>
    </g>
    <g id="sprite12" transform="matrix(1.0, 0.0, 0.0, 1.0, 0.0, 0.0)">
      <use ffdec:characterId="18" ffdec:characterName="185_fla.Symbole237_14" height="56.0" id="back" transform="matrix(1.0, 0.0, 0.0, 1.0, 0.0, 0.0)" width="56.0" xlink:href="#sprite13"/>
    </g>
    <g id="sprite13" transform="matrix(1.0, 0.0, 0.0, 1.0, 0.0, 0.0)">
      <use ffdec:characterId="17" ffdec:characterName="185_fla.Symbole234_15" height="56.0" id="back" transform="matrix(1.0, 0.0, 0.0, 1.0, 0.0, 0.0)" width="56.0" xlink:href="#sprite14"/>
    </g>
    <g id="sprite14" transform="matrix(1.0, 0.0, 0.0, 1.0, 0.0, 0.0)">
      <use ffdec:characterId="16" ffdec:characterName="185_fla.Symbole231_16" height="56.0" id="back" transform="matrix(1.0, 0.0, 0.0, 1.0, 0.0, 0.0)" width="56.0" xlink:href="#sprite15"/>
    </g>
    <g id="sprite15" transform="matrix(1.0, 0.0, 0.0, 1.0, 0.0, 0.0)">
      <use ffdec:characterId="15" ffdec:characterName="185_fla.Symbole228_17" height="56.0" id="back" transform="matrix(1.0, 0.0, 0.0, 1.0, 0.0, 0.0)" width="56.0" xlink:href="#sprite16"/>
    </g>
    <g id="sprite16" transform="matrix(1.0, 0.0, 0.0, 1.0, 0.0, 0.0)">
      <use ffdec:characterId="14" ffdec:characterName="185_fla.Symbole225_18" height="56.0" id="back" transform="matrix(1.0, 0.0, 0.0, 1.0, 0.0, 0.0)" width="56.0" xlink:href="#sprite17"/>
    </g>
    <g id="sprite17" transform="matrix(1.0, 0.0, 0.0, 1.0, 0.0, 0.0)">
      <use ffdec:characterId="13" ffdec:characterName="185_fla.Symbole222_19" height="56.0" id="back" transform="matrix(1.0, 0.0, 0.0, 1.0, 0.0, 0.0)" width="56.0" xlink:href="#sprite18"/>
    </g>
    <g id="sprite18" transform="matrix(1.0, 0.0, 0.0, 1.0, 0.0, 0.0)">
      <use ffdec:characterId="12" ffdec:characterName="185_fla.Symbole219_20" height="56.0" id="back" transform="matrix(1.0, 0.0, 0.0, 1.0, 0.0, 0.0)" width="56.0" xlink:href="#sprite19"/>
    </g>
    <g id="sprite19" transform="matrix(1.0, 0.0, 0.0, 1.0, 0.0, 0.0)">
      <use ffdec:characterId="11" ffdec:characterName="185_fla.Symbole216_21" height="56.0" id="back" transform="matrix(1.0, 0.0, 0.0, 1.0, 0.0, 0.0)" width="56.0" xlink:href="#sprite20"/>
    </g>
    <g id="sprite20" transform="matrix(1.0, 0.0, 0.0, 1.0, 0.0, 0.0)">
      <use ffdec:characterId="10" ffdec:characterName="185_fla.Symbole213_22" height="56.0" id="back" transform="matrix(1.0, 0.0, 0.0, 1.0, 0.0, 0.0)" width="56.0" xlink:href="#sprite21"/>
    </g>
    <g id="sprite21" transform="matrix(1.0, 0.0, 0.0, 1.0, 0.0, 0.0)">
      <use ffdec:characterId="9" ffdec:characterName="185_fla.Symbole210_23" height="56.0" id="back" transform="matrix(1.0, 0.0, 0.0, 1.0, 0.0, 0.0)" width="56.0" xlink:href="#sprite22"/>
    </g>
    <g id="sprite22" transform="matrix(1.0, 0.0, 0.0, 1.0, 0.0, 0.0)">
      <use ffdec:characterId="8" ffdec:characterName="185_fla.Symbole207_24" height="56.0" id="back" transform="matrix(1.0, 0.0, 0.0, 1.0, 0.0, 0.0)" width="56.0" xlink:href="#sprite23"/>
    </g>
    <g id="sprite23" transform="matrix(1.0, 0.0, 0.0, 1.0, 0.0, 0.0)">
      <use ffdec:characterId="7" ffdec:characterName="185_fla.Symbole204_25" height="56.0" id="back" transform="matrix(1.0, 0.0, 0.0, 1.0, 0.0, 0.0)" width="56.0" xlink:href="#sprite24"/>
    </g>
    <g id="sprite24" transform="matrix(1.0, 0.0, 0.0, 1.0, 0.0, 0.0)">
      <use ffdec:characterId="6" ffdec:characterName="185_fla.Symbole201_26" height="56.0" id="back" transform="matrix(1.0, 0.0, 0.0, 1.0, 0.0, 0.0)" width="56.0" xlink:href="#sprite25"/>
    </g>
    <g id="sprite25" transform="matrix(1.0, 0.0, 0.0, 1.0, 0.0, 0.0)">
      <use ffdec:characterId="5" ffdec:characterName="185_fla.Symbole198_27" height="56.0" id="back" transform="matrix(1.0, 0.0, 0.0, 1.0, 0.0, 0.0)" width="56.0" xlink:href="#sprite26"/>
    </g>
    <g id="sprite26" transform="matrix(1.0, 0.0, 0.0, 1.0, 0.0, 0.0)">
      <use ffdec:characterId="4" ffdec:characterName="185_fla.Symbole195_28" height="56.0" id="back" transform="matrix(1.0, 0.0, 0.0, 1.0, 0.0, 0.0)" width="56.0" xlink:href="#sprite27"/>
    </g>
    <g id="sprite27" transform="matrix(1.0, 0.0, 0.0, 1.0, 0.0, 0.0)">
      <use ffdec:characterId="3" ffdec:characterName="185_fla.Symbole192_29" height="56.0" id="back" transform="matrix(1.0, 0.0, 0.0, 1.0, 0.0, 0.0)" width="56.0" xlink:href="#sprite28"/>
    </g>
    <g id="sprite28" transform="matrix(1.0, 0.0, 0.0, 1.0, 0.0, 0.0)">
      <use ffdec:characterId="2" height="56.0" id="back" transform="matrix(1.0, 0.0, 0.0, 1.0, 0.0, 0.0)" width="56.0" xlink:href="#sprite29"/>
    </g>
    <g id="sprite29" transform="matrix(1.0, 0.0, 0.0, 1.0, 0.0, 0.0)">
      <use ffdec:characterId="1" height="56.0" transform="matrix(1.0, 0.0, 0.0, 1.0, 0.0, 0.0)" width="56.0" xlink:href="#shape0"/>
    </g>
    <g id="shape0" transform="matrix(1.0, 0.0, 0.0, 1.0, 0.0, 0.0)">
      <path d="M56.0 56.0 L0.0 56.0 0.0 0.0 56.0 0.0 56.0 56.0" fill="#010101" fill-opacity="0.0" fill-rule="evenodd" stroke="none"/>
    </g>
    <g id="sprite30" transform="matrix(1.0, 0.0, 0.0, 1.0, 0.75, 0.75)">
      <use ffdec:characterId="32" height="55.25" transform="matrix(1.0, 0.0, 0.0, 1.0, -0.75, -0.75)" width="55.35" xlink:href="#shape1"/>
    </g>
    <g id="shape1" transform="matrix(1.0, 0.0, 0.0, 1.0, 0.75, 0.75)">
      <path d="M41.25 42.25 L37.8 41.3 37.4 44.65 37.3 45.25 37.4 45.35 37.4 45.5 Q31.65 43.6 28.15 39.25 L28.9 31.05 29.85 30.6 31.75 33.5 Q31.25 33.95 31.3 34.65 L31.4 34.95 Q31.4 35.5 31.8 36.0 L32.0 36.1 Q32.45 36.55 33.3 36.6 L33.8 36.6 34.75 36.15 34.75 36.1 34.85 36.0 35.5 34.8 35.5 34.65 Q35.5 34.0 35.0 33.5 L34.75 33.2 Q34.15 32.65 33.3 32.65 L32.5 32.8 30.7 29.9 Q31.4 29.15 31.65 28.1 L38.05 31.6 38.15 31.75 38.75 32.15 38.85 32.15 39.2 32.3 Q41.6 36.7 41.5 42.35 L41.25 42.25 M46.65 10.0 Q39.35 2.8 29.0 2.8 18.65 2.8 11.45 10.0 4.15 17.35 4.15 27.6 4.15 37.9 11.45 45.1 18.65 52.45 29.0 52.45 36.8 52.45 42.8 48.4 L42.85 48.55 Q36.05 53.75 26.95 53.75 15.75 53.75 7.95 45.85 0.0 38.0 0.0 26.9 0.0 15.75 7.95 7.9 15.75 0.0 26.95 0.0 38.05 0.0 45.9 7.9 53.4 15.25 53.85 25.35 53.15 16.55 46.65 10.0 M49.55 24.55 Q45.5 29.4 38.5 31.3 L38.45 31.3 31.75 27.45 31.75 27.35 31.65 26.65 34.85 25.7 35.25 26.4 35.4 26.4 Q35.8 26.9 36.7 26.95 L37.15 26.95 37.25 26.95 38.15 26.5 38.15 26.4 38.25 26.4 38.25 26.3 38.85 25.2 38.85 25.05 Q38.85 24.35 38.35 23.85 L38.35 23.9 38.15 23.5 Q37.55 22.95 36.7 23.05 35.8 22.95 35.25 23.5 L35.25 23.65 35.15 23.75 34.75 24.55 31.3 25.7 31.05 25.35 34.4 20.65 34.6 20.65 34.6 20.5 Q40.8 17.9 47.35 19.7 L47.25 19.75 45.6 23.5 49.55 24.55 M27.9 10.1 L30.55 6.95 Q34.85 12.95 34.45 19.9 L34.3 20.05 34.2 20.05 34.15 20.15 33.95 20.25 30.75 24.85 30.6 24.55 Q29.7 23.65 28.4 23.6 L28.25 20.95 28.4 20.95 28.5 20.95 29.4 20.5 29.4 20.3 Q29.95 19.8 30.1 19.1 L30.1 18.95 Q30.1 18.35 29.55 17.75 L29.55 17.85 29.4 17.4 Q28.75 16.9 28.05 16.95 27.05 16.9 26.5 17.4 L26.5 17.6 26.35 17.65 Q25.85 18.25 25.95 18.95 L26.0 19.3 Q26.0 19.8 26.5 20.3 L26.6 20.4 26.7 20.4 27.15 20.8 27.3 23.6 Q26.1 23.75 25.25 24.55 L25.15 24.6 25.05 24.7 21.9 20.0 21.7 19.9 21.65 19.9 21.45 19.7 Q21.05 12.8 25.3 6.95 L27.9 10.1 M21.4 20.25 Q15.05 17.6 8.15 19.6 L7.95 19.6 7.95 19.7 8.0 19.75 9.65 23.5 Q8.1 24.1 6.4 24.5 L8.15 26.5 Q11.6 30.1 16.65 31.75 L16.85 31.6 16.9 31.45 24.3 27.95 24.1 27.35 24.2 26.65 21.3 25.8 20.9 26.3 20.9 26.4 20.8 26.4 20.8 26.5 19.85 26.95 19.75 26.95 19.4 26.95 Q18.5 26.9 18.05 26.4 L17.85 26.4 Q17.35 25.9 17.45 25.35 L17.35 25.05 Q17.3 24.25 17.8 23.75 L17.85 23.65 17.85 23.5 Q18.5 22.95 19.4 23.05 20.2 22.95 20.8 23.5 L21.05 23.9 21.05 23.85 21.45 24.7 24.5 25.7 24.8 25.2 21.45 20.3 21.4 20.25 M17.05 32.15 L17.2 31.9 24.3 28.45 Q24.5 29.3 25.25 30.0 L23.7 31.75 23.3 31.7 Q22.35 31.6 21.8 32.25 L21.8 32.3 21.65 32.5 Q21.2 32.95 21.2 33.7 L21.3 34.0 Q21.3 34.65 21.8 35.05 L21.9 35.15 21.95 35.15 Q22.35 35.6 23.3 35.65 L23.7 35.65 23.8 35.65 24.65 35.2 24.65 35.05 Q25.25 34.65 25.4 33.85 L25.4 33.7 Q25.4 33.0 24.8 32.55 L24.8 32.65 24.65 32.25 26.0 30.6 27.95 31.1 28.4 31.1 27.55 39.25 27.65 39.45 26.2 40.95 Q22.85 44.5 17.7 46.15 L17.7 46.0 17.8 45.95 17.7 45.25 17.3 41.9 13.85 42.85 Q13.85 36.95 16.85 32.3 L16.9 32.3 17.05 32.15 Z" fill="none" stroke="#000000" stroke-linecap="round" stroke-linejoin="round" stroke-opacity="0.2" stroke-width="1.5"/>
    </g>
    <g id="sprite31" transform="matrix(1.0, 0.0, 0.0, 1.0, 0.0, 0.0)">
      <use ffdec:characterId="34" height="53.75" transform="matrix(1.0, 0.0, 0.0, 1.0, 0.0, 0.0)" width="53.85" xlink:href="#shape2"/>
    </g>
    <g id="shape2" transform="matrix(1.0, 0.0, 0.0, 1.0, 0.0, 0.0)">
      <path d="M49.5 24.55 Q45.5 29.45 38.55 31.25 L38.45 31.25 31.75 27.45 31.75 27.35 31.65 26.65 34.85 25.65 35.25 26.4 35.4 26.4 Q35.8 26.85 36.7 26.95 L37.2 26.95 37.25 26.95 38.15 26.45 38.15 26.4 38.2 26.4 38.2 26.3 Q38.7 25.9 38.85 25.2 L38.85 25.05 Q38.85 24.3 38.4 23.85 L38.4 23.9 38.15 23.5 Q37.6 22.95 36.7 23.05 35.8 22.95 35.25 23.5 L35.25 23.65 35.15 23.75 34.75 24.55 31.35 25.65 31.1 25.35 34.35 20.65 34.6 20.65 34.6 20.45 Q40.8 17.9 47.35 19.65 L47.25 19.75 45.6 23.5 49.5 24.55 M46.65 10.0 Q39.35 2.8 29.0 2.8 18.65 2.8 11.45 10.0 4.15 17.35 4.15 27.6 4.15 37.9 11.45 45.1 18.65 52.45 29.0 52.45 36.8 52.45 42.8 48.4 L42.85 48.55 Q36.05 53.75 26.9 53.75 15.8 53.75 7.9 45.85 0.0 38.0 0.0 26.85 0.0 15.75 7.9 7.9 15.8 0.0 26.9 0.0 38.05 0.0 45.9 7.9 53.35 15.25 53.85 25.35 53.1 16.55 46.65 10.0 M41.25 42.25 L37.8 41.25 37.4 44.65 37.35 45.25 37.4 45.35 37.4 45.5 Q31.65 43.6 28.1 39.25 L28.9 31.05 29.9 30.65 31.75 33.5 Q31.25 33.9 31.35 34.65 L31.4 34.95 Q31.4 35.5 31.8 36.0 L31.95 36.05 Q32.45 36.55 33.35 36.65 L33.8 36.65 34.75 36.15 34.75 36.05 34.85 36.0 35.5 34.8 35.5 34.65 Q35.5 34.0 35.0 33.5 L34.75 33.2 Q34.15 32.65 33.35 32.65 L32.55 32.8 30.7 29.9 31.65 28.05 38.05 31.6 38.15 31.75 38.8 32.15 38.85 32.15 39.2 32.3 Q41.6 36.7 41.5 42.3 L41.25 42.25 M27.9 10.05 Q29.4 8.55 30.5 6.95 34.85 12.95 34.45 19.9 L34.3 20.05 34.2 20.05 34.15 20.15 33.95 20.25 30.75 24.85 30.6 24.55 Q29.7 23.65 28.45 23.6 L28.3 20.95 28.45 20.95 28.5 20.95 29.4 20.45 29.4 20.3 Q29.95 19.85 30.1 19.1 L30.1 18.95 Q30.1 18.3 29.55 17.75 L29.55 17.85 29.4 17.45 Q28.75 16.85 28.05 16.95 27.1 16.85 26.5 17.45 L26.5 17.6 26.35 17.65 Q25.9 18.25 25.95 18.95 L26.05 19.25 Q26.05 19.85 26.5 20.3 L26.6 20.4 26.7 20.4 27.15 20.8 27.3 23.6 Q26.1 23.75 25.25 24.55 L25.15 24.65 25.05 24.7 21.85 20.0 21.7 19.9 21.65 19.9 21.45 19.65 Q21.05 12.8 25.3 6.95 L27.9 10.05 M21.4 20.25 L21.45 20.3 24.85 25.2 24.5 25.65 21.45 24.7 21.05 23.85 21.05 23.9 20.85 23.5 Q20.2 22.95 19.4 23.05 18.5 22.95 17.85 23.5 L17.85 23.65 17.8 23.75 Q17.3 24.25 17.4 25.05 L17.45 25.35 Q17.4 25.9 17.85 26.4 L18.0 26.4 Q18.5 26.85 19.4 26.95 L19.8 26.95 19.85 26.95 20.85 26.45 20.85 26.4 20.9 26.4 20.9 26.3 21.3 25.85 24.2 26.65 24.1 27.35 24.25 27.9 16.9 31.45 16.8 31.6 16.65 31.75 Q11.6 30.05 8.15 26.45 L6.4 24.45 9.7 23.5 8.0 19.75 7.9 19.65 7.9 19.6 8.15 19.6 Q15.05 17.6 21.4 20.25 M17.05 32.15 L17.2 31.9 24.25 28.45 Q24.5 29.25 25.25 30.0 L23.7 31.75 23.3 31.65 Q22.35 31.6 21.8 32.25 L21.8 32.3 21.65 32.45 Q21.25 32.95 21.25 33.65 L21.3 34.0 Q21.3 34.65 21.8 35.05 L21.85 35.1 21.95 35.1 Q22.35 35.6 23.3 35.65 L23.7 35.65 23.8 35.65 24.65 35.2 24.65 35.05 Q25.25 34.65 25.4 33.85 L25.4 33.65 Q25.4 33.05 24.85 32.55 L24.85 32.65 24.65 32.25 26.05 30.65 27.95 31.1 28.45 31.1 27.55 39.25 27.65 39.45 26.2 40.95 Q22.85 44.45 17.7 46.15 L17.7 46.0 17.8 45.9 17.7 45.25 17.3 41.9 13.85 42.85 Q13.85 36.95 16.8 32.3 L16.9 32.3 17.05 32.15" fill="#000000" fill-rule="evenodd" stroke="none"/>
    </g>
  </defs>
</svg>
