<?xml version="1.0" encoding="UTF-8" standalone="no"?>
<svg xmlns:ffdec="https://www.free-decompiler.com/flash" xmlns:xlink="http://www.w3.org/1999/xlink" ffdec:objectType="frame" height="56.0px" width="56.0px" xmlns="http://www.w3.org/2000/svg">
  <g transform="matrix(1.0, 0.0, 0.0, 1.0, 0.0, 0.0)">
    <use ffdec:characterId="32" ffdec:characterName="186_fla.Symbole279_1" height="56.0" id="back" transform="matrix(1.0, 0.0, 0.0, 1.0, 0.0, 0.0)" width="56.0" xlink:href="#sprite0"/>
    <use ffdec:characterId="34" height="36.45" id="back" transform="matrix(1.0, 0.0, 0.0, 1.0, 0.35, 9.65)" width="55.35" xlink:href="#sprite31"/>
    <use ffdec:characterId="36" height="34.95" id="up" transform="matrix(1.0, 0.0, 0.0, 1.0, 1.15, 10.4)" width="53.85" xlink:href="#sprite32"/>
  </g>
  <defs>
    <g id="sprite0" transform="matrix(1.0, 0.0, 0.0, 1.0, 0.0, 0.0)">
      <use ffdec:characterId="31" ffdec:characterName="186_fla.Symbole276_2" height="56.0" id="back" transform="matrix(1.0, 0.0, 0.0, 1.0, 0.0, 0.0)" width="56.0" xlink:href="#sprite1"/>
    </g>
    <g id="sprite1" transform="matrix(1.0, 0.0, 0.0, 1.0, 0.0, 0.0)">
      <use ffdec:characterId="30" ffdec:characterName="186_fla.Symbole273_3" height="56.0" id="back" transform="matrix(1.0, 0.0, 0.0, 1.0, 0.0, 0.0)" width="56.0" xlink:href="#sprite2"/>
    </g>
    <g id="sprite2" transform="matrix(1.0, 0.0, 0.0, 1.0, 0.0, 0.0)">
      <use ffdec:characterId="29" ffdec:characterName="186_fla.Symbole270_4" height="56.0" id="back" transform="matrix(1.0, 0.0, 0.0, 1.0, 0.0, 0.0)" width="56.0" xlink:href="#sprite3"/>
    </g>
    <g id="sprite3" transform="matrix(1.0, 0.0, 0.0, 1.0, 0.0, 0.0)">
      <use ffdec:characterId="28" ffdec:characterName="186_fla.Symbole267_5" height="56.0" id="back" transform="matrix(1.0, 0.0, 0.0, 1.0, 0.0, 0.0)" width="56.0" xlink:href="#sprite4"/>
    </g>
    <g id="sprite4" transform="matrix(1.0, 0.0, 0.0, 1.0, 0.0, 0.0)">
      <use ffdec:characterId="27" ffdec:characterName="186_fla.Symbole264_6" height="56.0" id="back" transform="matrix(1.0, 0.0, 0.0, 1.0, 0.0, 0.0)" width="56.0" xlink:href="#sprite5"/>
    </g>
    <g id="sprite5" transform="matrix(1.0, 0.0, 0.0, 1.0, 0.0, 0.0)">
      <use ffdec:characterId="26" ffdec:characterName="186_fla.Symbole261_7" height="56.0" id="back" transform="matrix(1.0, 0.0, 0.0, 1.0, 0.0, 0.0)" width="56.0" xlink:href="#sprite6"/>
    </g>
    <g id="sprite6" transform="matrix(1.0, 0.0, 0.0, 1.0, 0.0, 0.0)">
      <use ffdec:characterId="25" ffdec:characterName="186_fla.Symbole258_8" height="56.0" id="back" transform="matrix(1.0, 0.0, 0.0, 1.0, 0.0, 0.0)" width="56.0" xlink:href="#sprite7"/>
    </g>
    <g id="sprite7" transform="matrix(1.0, 0.0, 0.0, 1.0, 0.0, 0.0)">
      <use ffdec:characterId="24" ffdec:characterName="186_fla.Symbole255_9" height="56.0" id="back" transform="matrix(1.0, 0.0, 0.0, 1.0, 0.0, 0.0)" width="56.0" xlink:href="#sprite8"/>
    </g>
    <g id="sprite8" transform="matrix(1.0, 0.0, 0.0, 1.0, 0.0, 0.0)">
      <use ffdec:characterId="23" ffdec:characterName="186_fla.Symbole252_10" height="56.0" id="back" transform="matrix(1.0, 0.0, 0.0, 1.0, 0.0, 0.0)" width="56.0" xlink:href="#sprite9"/>
    </g>
    <g id="sprite9" transform="matrix(1.0, 0.0, 0.0, 1.0, 0.0, 0.0)">
      <use ffdec:characterId="22" ffdec:characterName="186_fla.Symbole249_11" height="56.0" id="back" transform="matrix(1.0, 0.0, 0.0, 1.0, 0.0, 0.0)" width="56.0" xlink:href="#sprite10"/>
    </g>
    <g id="sprite10" transform="matrix(1.0, 0.0, 0.0, 1.0, 0.0, 0.0)">
      <use ffdec:characterId="21" ffdec:characterName="186_fla.Symbole246_12" height="56.0" id="back" transform="matrix(1.0, 0.0, 0.0, 1.0, 0.0, 0.0)" width="56.0" xlink:href="#sprite11"/>
    </g>
    <g id="sprite11" transform="matrix(1.0, 0.0, 0.0, 1.0, 0.0, 0.0)">
      <use ffdec:characterId="20" ffdec:characterName="186_fla.Symbole243_13" height="56.0" id="back" transform="matrix(1.0, 0.0, 0.0, 1.0, 0.0, 0.0)" width="56.0" xlink:href="#sprite12"/>
    </g>
    <g id="sprite12" transform="matrix(1.0, 0.0, 0.0, 1.0, 0.0, 0.0)">
      <use ffdec:characterId="19" ffdec:characterName="186_fla.Symbole240_14" height="56.0" id="back" transform="matrix(1.0, 0.0, 0.0, 1.0, 0.0, 0.0)" width="56.0" xlink:href="#sprite13"/>
    </g>
    <g id="sprite13" transform="matrix(1.0, 0.0, 0.0, 1.0, 0.0, 0.0)">
      <use ffdec:characterId="18" ffdec:characterName="186_fla.Symbole237_15" height="56.0" id="back" transform="matrix(1.0, 0.0, 0.0, 1.0, 0.0, 0.0)" width="56.0" xlink:href="#sprite14"/>
    </g>
    <g id="sprite14" transform="matrix(1.0, 0.0, 0.0, 1.0, 0.0, 0.0)">
      <use ffdec:characterId="17" ffdec:characterName="186_fla.Symbole234_16" height="56.0" id="back" transform="matrix(1.0, 0.0, 0.0, 1.0, 0.0, 0.0)" width="56.0" xlink:href="#sprite15"/>
    </g>
    <g id="sprite15" transform="matrix(1.0, 0.0, 0.0, 1.0, 0.0, 0.0)">
      <use ffdec:characterId="16" ffdec:characterName="186_fla.Symbole231_17" height="56.0" id="back" transform="matrix(1.0, 0.0, 0.0, 1.0, 0.0, 0.0)" width="56.0" xlink:href="#sprite16"/>
    </g>
    <g id="sprite16" transform="matrix(1.0, 0.0, 0.0, 1.0, 0.0, 0.0)">
      <use ffdec:characterId="15" ffdec:characterName="186_fla.Symbole228_18" height="56.0" id="back" transform="matrix(1.0, 0.0, 0.0, 1.0, 0.0, 0.0)" width="56.0" xlink:href="#sprite17"/>
    </g>
    <g id="sprite17" transform="matrix(1.0, 0.0, 0.0, 1.0, 0.0, 0.0)">
      <use ffdec:characterId="14" ffdec:characterName="186_fla.Symbole225_19" height="56.0" id="back" transform="matrix(1.0, 0.0, 0.0, 1.0, 0.0, 0.0)" width="56.0" xlink:href="#sprite18"/>
    </g>
    <g id="sprite18" transform="matrix(1.0, 0.0, 0.0, 1.0, 0.0, 0.0)">
      <use ffdec:characterId="13" ffdec:characterName="186_fla.Symbole222_20" height="56.0" id="back" transform="matrix(1.0, 0.0, 0.0, 1.0, 0.0, 0.0)" width="56.0" xlink:href="#sprite19"/>
    </g>
    <g id="sprite19" transform="matrix(1.0, 0.0, 0.0, 1.0, 0.0, 0.0)">
      <use ffdec:characterId="12" ffdec:characterName="186_fla.Symbole219_21" height="56.0" id="back" transform="matrix(1.0, 0.0, 0.0, 1.0, 0.0, 0.0)" width="56.0" xlink:href="#sprite20"/>
    </g>
    <g id="sprite20" transform="matrix(1.0, 0.0, 0.0, 1.0, 0.0, 0.0)">
      <use ffdec:characterId="11" ffdec:characterName="186_fla.Symbole216_22" height="56.0" id="back" transform="matrix(1.0, 0.0, 0.0, 1.0, 0.0, 0.0)" width="56.0" xlink:href="#sprite21"/>
    </g>
    <g id="sprite21" transform="matrix(1.0, 0.0, 0.0, 1.0, 0.0, 0.0)">
      <use ffdec:characterId="10" ffdec:characterName="186_fla.Symbole213_23" height="56.0" id="back" transform="matrix(1.0, 0.0, 0.0, 1.0, 0.0, 0.0)" width="56.0" xlink:href="#sprite22"/>
    </g>
    <g id="sprite22" transform="matrix(1.0, 0.0, 0.0, 1.0, 0.0, 0.0)">
      <use ffdec:characterId="9" ffdec:characterName="186_fla.Symbole210_24" height="56.0" id="back" transform="matrix(1.0, 0.0, 0.0, 1.0, 0.0, 0.0)" width="56.0" xlink:href="#sprite23"/>
    </g>
    <g id="sprite23" transform="matrix(1.0, 0.0, 0.0, 1.0, 0.0, 0.0)">
      <use ffdec:characterId="8" ffdec:characterName="186_fla.Symbole207_25" height="56.0" id="back" transform="matrix(1.0, 0.0, 0.0, 1.0, 0.0, 0.0)" width="56.0" xlink:href="#sprite24"/>
    </g>
    <g id="sprite24" transform="matrix(1.0, 0.0, 0.0, 1.0, 0.0, 0.0)">
      <use ffdec:characterId="7" ffdec:characterName="186_fla.Symbole204_26" height="56.0" id="back" transform="matrix(1.0, 0.0, 0.0, 1.0, 0.0, 0.0)" width="56.0" xlink:href="#sprite25"/>
    </g>
    <g id="sprite25" transform="matrix(1.0, 0.0, 0.0, 1.0, 0.0, 0.0)">
      <use ffdec:characterId="6" ffdec:characterName="186_fla.Symbole201_27" height="56.0" id="back" transform="matrix(1.0, 0.0, 0.0, 1.0, 0.0, 0.0)" width="56.0" xlink:href="#sprite26"/>
    </g>
    <g id="sprite26" transform="matrix(1.0, 0.0, 0.0, 1.0, 0.0, 0.0)">
      <use ffdec:characterId="5" ffdec:characterName="186_fla.Symbole198_28" height="56.0" id="back" transform="matrix(1.0, 0.0, 0.0, 1.0, 0.0, 0.0)" width="56.0" xlink:href="#sprite27"/>
    </g>
    <g id="sprite27" transform="matrix(1.0, 0.0, 0.0, 1.0, 0.0, 0.0)">
      <use ffdec:characterId="4" ffdec:characterName="186_fla.Symbole195_29" height="56.0" id="back" transform="matrix(1.0, 0.0, 0.0, 1.0, 0.0, 0.0)" width="56.0" xlink:href="#sprite28"/>
    </g>
    <g id="sprite28" transform="matrix(1.0, 0.0, 0.0, 1.0, 0.0, 0.0)">
      <use ffdec:characterId="3" ffdec:characterName="186_fla.Symbole192_30" height="56.0" id="back" transform="matrix(1.0, 0.0, 0.0, 1.0, 0.0, 0.0)" width="56.0" xlink:href="#sprite29"/>
    </g>
    <g id="sprite29" transform="matrix(1.0, 0.0, 0.0, 1.0, 0.0, 0.0)">
      <use ffdec:characterId="2" height="56.0" id="back" transform="matrix(1.0, 0.0, 0.0, 1.0, 0.0, 0.0)" width="56.0" xlink:href="#sprite30"/>
    </g>
    <g id="sprite30" transform="matrix(1.0, 0.0, 0.0, 1.0, 0.0, 0.0)">
      <use ffdec:characterId="1" height="56.0" transform="matrix(1.0, 0.0, 0.0, 1.0, 0.0, 0.0)" width="56.0" xlink:href="#shape0"/>
    </g>
    <g id="shape0" transform="matrix(1.0, 0.0, 0.0, 1.0, 0.0, 0.0)">
      <path d="M56.0 56.0 L0.0 56.0 0.0 0.0 56.0 0.0 56.0 56.0" fill="#010101" fill-opacity="0.0" fill-rule="evenodd" stroke="none"/>
    </g>
    <g id="sprite31" transform="matrix(1.0, 0.0, 0.0, 1.0, 0.75, 0.75)">
      <use ffdec:characterId="33" height="36.45" transform="matrix(1.0, 0.0, 0.0, 1.0, -0.75, -0.75)" width="55.35" xlink:href="#shape1"/>
    </g>
    <g id="shape1" transform="matrix(1.0, 0.0, 0.0, 1.0, 0.75, 0.75)">
      <path d="M53.45 0.6 Q53.95 1.3 53.85 2.9 53.95 4.65 53.4 7.5 L53.1 9.15 52.85 10.35 52.45 11.6 51.55 13.35 Q49.5 16.85 45.25 19.45 L45.0 19.45 44.1 18.9 Q43.05 18.1 42.55 16.65 42.05 15.2 42.25 14.05 L42.4 13.35 42.8 12.85 43.05 12.8 44.15 12.05 Q50.45 8.45 52.2 0.2 L52.7 0.0 Q53.25 0.0 53.45 0.6 M42.05 12.4 L41.6 12.9 41.35 13.85 Q41.05 15.2 41.8 17.0 42.4 18.7 43.5 19.65 L44.7 20.25 45.0 20.35 44.4 20.75 41.7 22.2 40.85 22.45 Q39.9 22.65 38.9 21.8 37.6 20.85 36.95 18.95 36.2 17.1 36.5 15.45 36.75 14.2 37.45 13.75 L39.0 13.5 41.05 12.8 42.05 12.4 M40.85 23.15 L41.6 22.7 42.05 22.55 42.15 24.5 42.15 24.6 42.15 24.95 41.95 25.05 42.15 25.05 42.1 26.05 Q27.15 29.3 11.4 26.05 L11.4 25.05 11.4 24.85 11.4 24.4 11.4 24.35 11.6 22.45 12.1 22.7 12.95 23.15 13.0 23.15 Q14.2 23.45 15.55 22.35 16.95 21.2 17.7 19.2 18.5 17.15 18.2 15.45 L18.2 15.4 Q17.9 13.9 16.95 13.25 L16.7 13.15 16.6 13.15 Q20.85 9.2 26.8 9.2 32.7 9.2 37.05 13.25 L36.85 13.25 Q35.95 13.9 35.55 15.4 L35.55 15.45 Q35.25 17.15 36.0 19.2 36.85 21.2 38.2 22.35 39.6 23.45 40.75 23.15 L40.85 23.15 M43.35 28.55 Q43.2 28.0 42.7 27.75 42.3 27.4 41.85 27.6 27.1 30.7 11.65 27.6 11.15 27.4 10.7 27.75 10.3 28.0 10.2 28.55 10.05 29.05 10.4 29.45 L11.15 30.0 Q27.1 33.25 42.4 30.0 L43.15 29.45 43.35 28.55 M43.2 31.9 L42.65 31.1 Q42.25 30.75 41.8 30.9 27.0 34.15 11.5 30.9 11.0 30.75 10.65 31.1 10.15 31.4 10.05 31.9 L10.2 32.85 Q10.55 33.25 11.0 33.3 27.0 36.6 42.25 33.3 42.7 33.25 43.05 32.8 L43.2 31.9 M0.45 0.6 Q-0.05 1.3 0.0 2.9 -0.05 4.65 0.5 7.5 L0.8 9.15 1.05 10.35 1.45 11.6 2.3 13.35 Q4.4 16.85 8.6 19.45 L8.85 19.45 9.8 18.9 Q10.85 18.1 11.35 16.65 11.9 15.2 11.65 14.05 L11.5 13.35 11.1 12.85 10.85 12.8 9.75 12.05 Q3.45 8.45 1.7 0.2 L1.2 0.0 Q0.65 0.0 0.45 0.6 M11.9 12.4 L12.3 12.9 12.55 13.85 Q12.85 15.2 12.1 17.0 11.5 18.7 10.4 19.65 L9.2 20.25 8.85 20.35 9.5 20.75 12.2 22.2 13.0 22.45 Q13.95 22.65 15.0 21.8 16.25 20.85 16.95 18.95 17.7 17.1 17.4 15.45 17.15 14.2 16.45 13.75 L14.9 13.5 12.85 12.8 11.9 12.4 M29.65 20.65 L31.15 25.7 26.8 22.7 22.5 25.8 23.9 20.65 19.75 17.6 25.05 17.4 26.7 12.4 28.55 17.35 33.8 17.4 29.65 20.65 Z" fill="none" stroke="#000000" stroke-linecap="round" stroke-linejoin="round" stroke-opacity="0.2" stroke-width="1.5"/>
    </g>
    <g id="sprite32" transform="matrix(1.0, 0.0, 0.0, 1.0, 0.0, 0.0)">
      <use ffdec:characterId="35" height="34.95" transform="matrix(1.0, 0.0, 0.0, 1.0, 0.0, 0.0)" width="53.85" xlink:href="#shape2"/>
    </g>
    <g id="shape2" transform="matrix(1.0, 0.0, 0.0, 1.0, 0.0, 0.0)">
      <path d="M53.45 0.6 Q53.9 1.3 53.85 2.9 53.9 4.65 53.35 7.5 L53.05 9.1 52.8 10.3 52.4 11.55 51.55 13.3 Q49.45 16.85 45.25 19.45 L45.0 19.45 44.05 18.9 Q43.0 18.1 42.5 16.65 41.95 15.25 42.2 14.05 L42.35 13.3 Q42.5 13.0 42.75 12.85 L43.0 12.75 44.1 12.05 Q50.4 8.45 52.15 0.2 L52.65 0.0 Q53.2 0.0 53.45 0.6 M41.35 13.8 Q41.0 15.25 41.75 17.0 42.35 18.65 43.5 19.6 L44.65 20.25 45.0 20.35 Q44.65 20.5 44.35 20.75 L41.65 22.15 40.85 22.5 Q39.9 22.65 38.85 21.75 37.6 20.8 36.85 19.0 36.15 17.05 36.45 15.45 36.7 14.2 37.4 13.7 L38.95 13.5 41.0 12.75 41.95 12.35 41.55 12.95 41.35 13.8 M42.1 24.5 L42.1 24.55 42.1 24.95 41.9 25.05 42.1 25.05 42.05 26.05 Q27.15 29.25 11.35 26.05 L11.35 25.05 11.35 24.9 11.35 24.4 11.35 24.3 11.55 22.5 12.1 22.7 12.9 23.1 12.95 23.1 Q14.15 23.45 15.5 22.35 16.95 21.2 17.65 19.2 18.45 17.15 18.15 15.45 L18.15 15.4 Q17.85 13.9 16.95 13.25 L16.65 13.15 16.55 13.15 Q20.85 9.2 26.75 9.2 32.65 9.2 37.05 13.25 L36.8 13.25 Q35.9 13.9 35.5 15.4 L35.5 15.45 Q35.2 17.15 36.0 19.2 36.8 21.2 38.15 22.35 39.6 23.45 40.7 23.1 L40.85 23.1 41.55 22.7 41.95 22.55 42.1 24.5 M12.25 12.95 L11.85 12.35 12.8 12.75 14.9 13.5 16.4 13.7 Q17.1 14.2 17.35 15.45 17.65 17.05 16.95 19.0 16.25 20.8 14.95 21.75 13.9 22.65 12.95 22.5 L12.15 22.15 9.45 20.75 8.8 20.35 9.15 20.25 Q9.7 20.1 10.35 19.6 11.45 18.65 12.1 17.0 12.8 15.25 12.5 13.8 L12.25 12.95 M0.4 0.6 Q0.6 0.0 1.2 0.0 L1.65 0.2 Q3.4 8.45 9.7 12.05 L10.8 12.75 11.05 12.85 11.45 13.3 11.6 14.05 Q11.85 15.25 11.3 16.65 10.8 18.1 9.8 18.9 L8.8 19.45 8.6 19.45 Q4.35 16.85 2.3 13.3 L1.4 11.55 1.0 10.3 0.8 9.1 0.45 7.5 Q-0.1 4.65 0.0 2.9 -0.1 1.3 0.4 0.6 M43.3 28.55 Q43.4 29.0 43.1 29.4 L42.35 29.95 Q27.05 33.25 11.15 29.95 L10.35 29.4 Q10.0 29.0 10.2 28.55 10.25 28.0 10.65 27.75 11.15 27.4 11.6 27.6 27.05 30.7 41.8 27.6 42.3 27.4 42.7 27.75 L43.3 28.55 M43.0 32.75 Q42.7 33.25 42.2 33.3 27.0 36.6 10.95 33.3 10.5 33.25 10.2 32.85 9.95 32.35 10.0 31.9 10.1 31.4 10.6 31.1 10.95 30.75 11.45 30.95 27.0 34.1 41.75 30.95 42.2 30.75 42.6 31.1 L43.15 31.9 43.0 32.75 M29.6 20.65 L33.75 17.4 28.5 17.3 26.65 12.35 25.0 17.4 19.75 17.55 23.9 20.65 22.45 25.75 26.75 22.7 31.15 25.65 29.6 20.65" fill="#000000" fill-rule="evenodd" stroke="none"/>
      <path d="M42.1 24.5 L42.05 22.55 42.75 22.15 42.75 23.3 42.75 24.4 42.1 24.5 M11.35 24.4 L11.2 24.4 11.2 23.9 11.15 23.3 11.2 22.25 11.55 22.5 11.35 24.3 11.35 24.4" fill="#beb999" fill-rule="evenodd" stroke="none"/>
    </g>
  </defs>
</svg>
