<?xml version="1.0" encoding="UTF-8" standalone="no"?>
<svg xmlns:ffdec="https://www.free-decompiler.com/flash" xmlns:xlink="http://www.w3.org/1999/xlink" ffdec:objectType="frame" height="56.0px" width="56.0px" xmlns="http://www.w3.org/2000/svg">
  <g transform="matrix(1.0, 0.0, 0.0, 1.0, 0.0, 0.0)">
    <use ffdec:characterId="33" ffdec:characterName="187_fla.Symbole282_1" height="56.0" id="back" transform="matrix(1.0, 0.0, 0.0, 1.0, 0.0, 0.0)" width="56.0" xlink:href="#sprite0"/>
    <use ffdec:characterId="35" height="53.25" id="back" transform="matrix(1.0, 0.0, 0.0, 1.0, 0.35, 1.3)" width="55.35" xlink:href="#sprite32"/>
    <use ffdec:characterId="37" height="51.7" id="up" transform="matrix(1.0, 0.0, 0.0, 1.0, 1.1, 2.05)" width="53.85" xlink:href="#sprite33"/>
  </g>
  <defs>
    <g id="sprite0" transform="matrix(1.0, 0.0, 0.0, 1.0, 0.0, 0.0)">
      <use ffdec:characterId="32" ffdec:characterName="187_fla.Symbole279_2" height="56.0" id="back" transform="matrix(1.0, 0.0, 0.0, 1.0, 0.0, 0.0)" width="56.0" xlink:href="#sprite1"/>
    </g>
    <g id="sprite1" transform="matrix(1.0, 0.0, 0.0, 1.0, 0.0, 0.0)">
      <use ffdec:characterId="31" ffdec:characterName="187_fla.Symbole276_3" height="56.0" id="back" transform="matrix(1.0, 0.0, 0.0, 1.0, 0.0, 0.0)" width="56.0" xlink:href="#sprite2"/>
    </g>
    <g id="sprite2" transform="matrix(1.0, 0.0, 0.0, 1.0, 0.0, 0.0)">
      <use ffdec:characterId="30" ffdec:characterName="187_fla.Symbole273_4" height="56.0" id="back" transform="matrix(1.0, 0.0, 0.0, 1.0, 0.0, 0.0)" width="56.0" xlink:href="#sprite3"/>
    </g>
    <g id="sprite3" transform="matrix(1.0, 0.0, 0.0, 1.0, 0.0, 0.0)">
      <use ffdec:characterId="29" ffdec:characterName="187_fla.Symbole270_5" height="56.0" id="back" transform="matrix(1.0, 0.0, 0.0, 1.0, 0.0, 0.0)" width="56.0" xlink:href="#sprite4"/>
    </g>
    <g id="sprite4" transform="matrix(1.0, 0.0, 0.0, 1.0, 0.0, 0.0)">
      <use ffdec:characterId="28" ffdec:characterName="187_fla.Symbole267_6" height="56.0" id="back" transform="matrix(1.0, 0.0, 0.0, 1.0, 0.0, 0.0)" width="56.0" xlink:href="#sprite5"/>
    </g>
    <g id="sprite5" transform="matrix(1.0, 0.0, 0.0, 1.0, 0.0, 0.0)">
      <use ffdec:characterId="27" ffdec:characterName="187_fla.Symbole264_7" height="56.0" id="back" transform="matrix(1.0, 0.0, 0.0, 1.0, 0.0, 0.0)" width="56.0" xlink:href="#sprite6"/>
    </g>
    <g id="sprite6" transform="matrix(1.0, 0.0, 0.0, 1.0, 0.0, 0.0)">
      <use ffdec:characterId="26" ffdec:characterName="187_fla.Symbole261_8" height="56.0" id="back" transform="matrix(1.0, 0.0, 0.0, 1.0, 0.0, 0.0)" width="56.0" xlink:href="#sprite7"/>
    </g>
    <g id="sprite7" transform="matrix(1.0, 0.0, 0.0, 1.0, 0.0, 0.0)">
      <use ffdec:characterId="25" ffdec:characterName="187_fla.Symbole258_9" height="56.0" id="back" transform="matrix(1.0, 0.0, 0.0, 1.0, 0.0, 0.0)" width="56.0" xlink:href="#sprite8"/>
    </g>
    <g id="sprite8" transform="matrix(1.0, 0.0, 0.0, 1.0, 0.0, 0.0)">
      <use ffdec:characterId="24" ffdec:characterName="187_fla.Symbole255_10" height="56.0" id="back" transform="matrix(1.0, 0.0, 0.0, 1.0, 0.0, 0.0)" width="56.0" xlink:href="#sprite9"/>
    </g>
    <g id="sprite9" transform="matrix(1.0, 0.0, 0.0, 1.0, 0.0, 0.0)">
      <use ffdec:characterId="23" ffdec:characterName="187_fla.Symbole252_11" height="56.0" id="back" transform="matrix(1.0, 0.0, 0.0, 1.0, 0.0, 0.0)" width="56.0" xlink:href="#sprite10"/>
    </g>
    <g id="sprite10" transform="matrix(1.0, 0.0, 0.0, 1.0, 0.0, 0.0)">
      <use ffdec:characterId="22" ffdec:characterName="187_fla.Symbole249_12" height="56.0" id="back" transform="matrix(1.0, 0.0, 0.0, 1.0, 0.0, 0.0)" width="56.0" xlink:href="#sprite11"/>
    </g>
    <g id="sprite11" transform="matrix(1.0, 0.0, 0.0, 1.0, 0.0, 0.0)">
      <use ffdec:characterId="21" ffdec:characterName="187_fla.Symbole246_13" height="56.0" id="back" transform="matrix(1.0, 0.0, 0.0, 1.0, 0.0, 0.0)" width="56.0" xlink:href="#sprite12"/>
    </g>
    <g id="sprite12" transform="matrix(1.0, 0.0, 0.0, 1.0, 0.0, 0.0)">
      <use ffdec:characterId="20" ffdec:characterName="187_fla.Symbole243_14" height="56.0" id="back" transform="matrix(1.0, 0.0, 0.0, 1.0, 0.0, 0.0)" width="56.0" xlink:href="#sprite13"/>
    </g>
    <g id="sprite13" transform="matrix(1.0, 0.0, 0.0, 1.0, 0.0, 0.0)">
      <use ffdec:characterId="19" ffdec:characterName="187_fla.Symbole240_15" height="56.0" id="back" transform="matrix(1.0, 0.0, 0.0, 1.0, 0.0, 0.0)" width="56.0" xlink:href="#sprite14"/>
    </g>
    <g id="sprite14" transform="matrix(1.0, 0.0, 0.0, 1.0, 0.0, 0.0)">
      <use ffdec:characterId="18" ffdec:characterName="187_fla.Symbole237_16" height="56.0" id="back" transform="matrix(1.0, 0.0, 0.0, 1.0, 0.0, 0.0)" width="56.0" xlink:href="#sprite15"/>
    </g>
    <g id="sprite15" transform="matrix(1.0, 0.0, 0.0, 1.0, 0.0, 0.0)">
      <use ffdec:characterId="17" ffdec:characterName="187_fla.Symbole234_17" height="56.0" id="back" transform="matrix(1.0, 0.0, 0.0, 1.0, 0.0, 0.0)" width="56.0" xlink:href="#sprite16"/>
    </g>
    <g id="sprite16" transform="matrix(1.0, 0.0, 0.0, 1.0, 0.0, 0.0)">
      <use ffdec:characterId="16" ffdec:characterName="187_fla.Symbole231_18" height="56.0" id="back" transform="matrix(1.0, 0.0, 0.0, 1.0, 0.0, 0.0)" width="56.0" xlink:href="#sprite17"/>
    </g>
    <g id="sprite17" transform="matrix(1.0, 0.0, 0.0, 1.0, 0.0, 0.0)">
      <use ffdec:characterId="15" ffdec:characterName="187_fla.Symbole228_19" height="56.0" id="back" transform="matrix(1.0, 0.0, 0.0, 1.0, 0.0, 0.0)" width="56.0" xlink:href="#sprite18"/>
    </g>
    <g id="sprite18" transform="matrix(1.0, 0.0, 0.0, 1.0, 0.0, 0.0)">
      <use ffdec:characterId="14" ffdec:characterName="187_fla.Symbole225_20" height="56.0" id="back" transform="matrix(1.0, 0.0, 0.0, 1.0, 0.0, 0.0)" width="56.0" xlink:href="#sprite19"/>
    </g>
    <g id="sprite19" transform="matrix(1.0, 0.0, 0.0, 1.0, 0.0, 0.0)">
      <use ffdec:characterId="13" ffdec:characterName="187_fla.Symbole222_21" height="56.0" id="back" transform="matrix(1.0, 0.0, 0.0, 1.0, 0.0, 0.0)" width="56.0" xlink:href="#sprite20"/>
    </g>
    <g id="sprite20" transform="matrix(1.0, 0.0, 0.0, 1.0, 0.0, 0.0)">
      <use ffdec:characterId="12" ffdec:characterName="187_fla.Symbole219_22" height="56.0" id="back" transform="matrix(1.0, 0.0, 0.0, 1.0, 0.0, 0.0)" width="56.0" xlink:href="#sprite21"/>
    </g>
    <g id="sprite21" transform="matrix(1.0, 0.0, 0.0, 1.0, 0.0, 0.0)">
      <use ffdec:characterId="11" ffdec:characterName="187_fla.Symbole216_23" height="56.0" id="back" transform="matrix(1.0, 0.0, 0.0, 1.0, 0.0, 0.0)" width="56.0" xlink:href="#sprite22"/>
    </g>
    <g id="sprite22" transform="matrix(1.0, 0.0, 0.0, 1.0, 0.0, 0.0)">
      <use ffdec:characterId="10" ffdec:characterName="187_fla.Symbole213_24" height="56.0" id="back" transform="matrix(1.0, 0.0, 0.0, 1.0, 0.0, 0.0)" width="56.0" xlink:href="#sprite23"/>
    </g>
    <g id="sprite23" transform="matrix(1.0, 0.0, 0.0, 1.0, 0.0, 0.0)">
      <use ffdec:characterId="9" ffdec:characterName="187_fla.Symbole210_25" height="56.0" id="back" transform="matrix(1.0, 0.0, 0.0, 1.0, 0.0, 0.0)" width="56.0" xlink:href="#sprite24"/>
    </g>
    <g id="sprite24" transform="matrix(1.0, 0.0, 0.0, 1.0, 0.0, 0.0)">
      <use ffdec:characterId="8" ffdec:characterName="187_fla.Symbole207_26" height="56.0" id="back" transform="matrix(1.0, 0.0, 0.0, 1.0, 0.0, 0.0)" width="56.0" xlink:href="#sprite25"/>
    </g>
    <g id="sprite25" transform="matrix(1.0, 0.0, 0.0, 1.0, 0.0, 0.0)">
      <use ffdec:characterId="7" ffdec:characterName="187_fla.Symbole204_27" height="56.0" id="back" transform="matrix(1.0, 0.0, 0.0, 1.0, 0.0, 0.0)" width="56.0" xlink:href="#sprite26"/>
    </g>
    <g id="sprite26" transform="matrix(1.0, 0.0, 0.0, 1.0, 0.0, 0.0)">
      <use ffdec:characterId="6" ffdec:characterName="187_fla.Symbole201_28" height="56.0" id="back" transform="matrix(1.0, 0.0, 0.0, 1.0, 0.0, 0.0)" width="56.0" xlink:href="#sprite27"/>
    </g>
    <g id="sprite27" transform="matrix(1.0, 0.0, 0.0, 1.0, 0.0, 0.0)">
      <use ffdec:characterId="5" ffdec:characterName="187_fla.Symbole198_29" height="56.0" id="back" transform="matrix(1.0, 0.0, 0.0, 1.0, 0.0, 0.0)" width="56.0" xlink:href="#sprite28"/>
    </g>
    <g id="sprite28" transform="matrix(1.0, 0.0, 0.0, 1.0, 0.0, 0.0)">
      <use ffdec:characterId="4" ffdec:characterName="187_fla.Symbole195_30" height="56.0" id="back" transform="matrix(1.0, 0.0, 0.0, 1.0, 0.0, 0.0)" width="56.0" xlink:href="#sprite29"/>
    </g>
    <g id="sprite29" transform="matrix(1.0, 0.0, 0.0, 1.0, 0.0, 0.0)">
      <use ffdec:characterId="3" ffdec:characterName="187_fla.Symbole192_31" height="56.0" id="back" transform="matrix(1.0, 0.0, 0.0, 1.0, 0.0, 0.0)" width="56.0" xlink:href="#sprite30"/>
    </g>
    <g id="sprite30" transform="matrix(1.0, 0.0, 0.0, 1.0, 0.0, 0.0)">
      <use ffdec:characterId="2" height="56.0" id="back" transform="matrix(1.0, 0.0, 0.0, 1.0, 0.0, 0.0)" width="56.0" xlink:href="#sprite31"/>
    </g>
    <g id="sprite31" transform="matrix(1.0, 0.0, 0.0, 1.0, 0.0, 0.0)">
      <use ffdec:characterId="1" height="56.0" transform="matrix(1.0, 0.0, 0.0, 1.0, 0.0, 0.0)" width="56.0" xlink:href="#shape0"/>
    </g>
    <g id="shape0" transform="matrix(1.0, 0.0, 0.0, 1.0, 0.0, 0.0)">
      <path d="M56.0 56.0 L0.0 56.0 0.0 0.0 56.0 0.0 56.0 56.0" fill="#010101" fill-opacity="0.0" fill-rule="evenodd" stroke="none"/>
    </g>
    <g id="sprite32" transform="matrix(1.0, 0.0, 0.0, 1.0, 0.75, 0.75)">
      <use ffdec:characterId="34" height="53.25" transform="matrix(1.0, 0.0, 0.0, 1.0, -0.75, -0.75)" width="55.35" xlink:href="#shape1"/>
    </g>
    <g id="shape1" transform="matrix(1.0, 0.0, 0.0, 1.0, 0.75, 0.75)">
      <path d="M53.3 6.9 L53.1 7.85 52.75 8.85 52.1 10.2 Q50.5 12.85 47.2 14.9 L47.05 14.9 46.25 14.45 Q45.55 13.9 45.1 12.75 44.65 11.7 44.85 10.7 L45.0 10.2 45.35 9.85 45.55 9.75 46.35 9.25 Q51.25 6.5 52.6 0.1 L52.95 0.0 Q53.4 0.0 53.5 0.45 53.85 0.9 53.85 2.2 L53.4 5.7 53.3 6.9 M43.35 8.4 L44.45 7.95 44.0 8.6 43.65 9.6 Q43.35 11.3 44.1 13.3 44.9 15.2 46.2 16.35 L47.55 17.1 48.0 17.1 47.2 17.55 44.0 19.25 43.2 19.6 Q42.1 19.9 40.8 18.85 39.4 17.65 38.5 15.55 37.7 13.4 38.05 11.55 38.35 10.1 39.2 9.5 L40.95 9.2 43.35 8.4 M44.45 19.9 L44.55 20.25 44.55 20.6 44.65 22.05 44.65 22.15 44.65 22.55 44.45 22.6 44.65 22.6 44.6 23.9 Q27.2 27.6 9.05 23.9 L8.95 22.6 9.05 22.45 8.95 22.45 9.05 21.9 9.2 19.7 9.85 20.0 10.7 20.45 10.85 20.45 Q12.2 20.8 13.75 19.55 L13.85 19.55 Q15.45 18.25 16.35 16.0 17.2 13.55 16.8 11.6 L16.8 11.55 Q16.45 9.75 15.45 9.1 L15.1 8.95 15.0 8.95 Q20.0 4.4 26.85 4.4 33.65 4.4 38.7 9.05 L38.4 9.1 Q37.4 9.75 37.05 11.55 L37.05 11.6 Q36.7 13.55 37.6 16.0 38.4 18.25 40.05 19.55 41.65 20.8 43.0 20.45 L43.1 20.45 44.0 20.0 44.45 19.9 M45.8 27.4 Q45.8 28.35 45.1 29.05 44.45 29.7 43.5 29.7 42.5 29.7 41.85 29.05 41.15 28.35 41.15 27.4 41.15 26.4 41.85 25.75 42.5 25.05 43.5 25.05 44.45 25.05 45.1 25.75 45.8 26.4 45.8 27.4 M42.0 34.1 L41.9 42.6 Q41.15 44.6 38.3 45.6 L35.8 46.15 36.35 45.5 Q38.95 41.7 39.3 34.9 40.15 34.85 41.2 34.3 L42.0 34.1 M42.5 31.9 L41.9 31.15 Q41.5 30.85 41.05 30.95 27.05 34.0 12.3 30.95 L11.4 31.15 Q11.05 31.4 10.95 31.9 10.8 32.3 11.05 32.85 L11.85 33.3 17.2 34.2 17.2 34.3 19.8 34.75 Q23.25 35.9 24.05 39.9 24.4 44.0 24.1 49.65 L25.95 51.75 27.9 49.85 Q27.65 44.0 28.1 39.9 28.9 36.2 32.2 35.0 L34.9 34.55 34.9 34.4 41.55 33.3 42.2 32.75 42.5 31.9 M9.95 8.6 L10.3 9.6 Q10.65 11.3 9.85 13.3 9.05 15.2 7.75 16.35 L6.4 17.1 6.0 17.1 6.75 17.55 9.95 19.25 10.8 19.6 Q11.9 19.9 13.2 18.85 14.55 17.65 15.45 15.55 16.25 13.4 15.9 11.55 15.6 10.1 14.75 9.5 L13.0 9.2 10.65 8.4 9.5 7.95 9.95 8.6 M0.9 0.0 Q0.55 0.0 0.35 0.45 0.0 0.9 0.0 2.2 0.0 3.55 0.45 5.7 L0.6 6.9 0.75 7.85 1.1 8.85 1.8 10.2 Q3.35 12.85 6.7 14.9 L6.85 14.9 7.6 14.45 Q8.35 13.9 8.75 12.75 9.2 11.7 9.05 10.7 L8.85 10.2 8.5 9.85 Q8.5 9.75 8.35 9.75 L7.5 9.25 Q2.65 6.5 1.25 0.1 L0.9 0.0 M18.05 26.35 Q19.0 26.35 19.65 27.05 20.35 27.7 20.35 28.7 20.35 29.6 19.65 30.3 19.0 30.95 18.05 30.95 17.0 30.95 16.35 30.3 15.7 29.6 15.7 28.7 15.7 27.7 16.35 27.05 17.0 26.35 18.05 26.35 M12.85 27.4 Q12.85 28.35 12.15 29.05 11.5 29.7 10.55 29.7 9.5 29.7 8.85 29.05 8.15 28.35 8.15 27.4 8.15 26.4 8.85 25.75 9.5 25.05 10.55 25.05 11.5 25.05 12.15 25.75 12.85 26.4 12.85 27.4 M11.55 34.55 L11.65 43.05 Q12.4 45.1 15.25 46.15 L17.7 46.6 17.2 46.05 Q14.55 42.25 14.25 35.45 13.4 35.35 12.3 34.85 L11.55 34.55 M37.05 27.05 Q37.7 27.7 37.7 28.7 37.7 29.6 37.05 30.3 36.35 30.95 35.4 30.95 34.4 30.95 33.7 30.3 33.05 29.6 33.05 28.7 33.05 27.7 33.7 27.05 34.4 26.35 35.4 26.35 36.35 26.35 37.05 27.05 M28.5 27.35 Q29.2 28.05 29.2 29.05 29.2 29.95 28.5 30.65 27.85 31.3 26.9 31.3 25.85 31.3 25.2 30.65 24.5 29.95 24.5 29.05 24.5 28.05 25.2 27.35 25.85 26.7 26.9 26.7 27.85 26.7 28.5 27.35 Z" fill="none" stroke="#000000" stroke-linecap="round" stroke-linejoin="round" stroke-opacity="0.2" stroke-width="1.5"/>
    </g>
    <g id="sprite33" transform="matrix(1.0, 0.0, 0.0, 1.0, 0.0, 0.0)">
      <use ffdec:characterId="36" height="51.7" transform="matrix(1.0, 0.0, 0.0, 1.0, 0.0, 0.0)" width="53.85" xlink:href="#shape2"/>
    </g>
    <g id="shape2" transform="matrix(1.0, 0.0, 0.0, 1.0, 0.0, 0.0)">
      <path d="M53.1 7.8 L52.75 8.8 52.1 10.15 Q50.5 12.85 47.2 14.85 L47.05 14.85 46.3 14.45 Q45.5 13.85 45.1 12.75 44.65 11.65 44.85 10.65 L45.0 10.15 45.35 9.8 45.5 9.75 46.35 9.25 Q51.25 6.45 52.6 0.05 L52.95 0.0 53.5 0.4 Q53.85 0.9 53.85 2.15 53.85 3.5 53.45 5.7 L53.25 6.9 53.1 7.8 M43.35 8.4 L44.4 7.9 44.0 8.55 43.65 9.55 Q43.35 11.25 44.1 13.25 44.95 15.2 46.2 16.3 L47.55 17.05 47.95 17.05 47.2 17.55 44.0 19.25 43.15 19.6 Q42.05 19.85 40.8 18.8 39.35 17.65 38.5 15.55 37.7 13.35 38.0 11.5 38.35 10.05 39.2 9.5 L40.95 9.15 43.35 8.4 M44.65 22.0 L44.65 22.1 44.65 22.5 44.4 22.6 44.65 22.6 44.6 23.85 Q27.25 27.55 9.0 23.85 L8.95 22.6 9.0 22.45 8.95 22.45 9.0 21.85 9.2 19.65 9.85 20.0 Q10.2 20.25 10.7 20.4 L10.9 20.4 Q12.25 20.75 13.75 19.5 L13.85 19.5 Q15.45 18.25 16.35 15.95 17.2 13.5 16.8 11.6 L16.8 11.5 Q16.45 9.75 15.45 9.05 L15.1 8.9 15.0 8.9 Q20.0 4.35 26.8 4.35 33.65 4.35 38.7 9.0 L38.45 9.05 Q37.45 9.75 37.0 11.5 L37.0 11.6 Q36.65 13.5 37.6 15.95 38.45 18.25 40.05 19.5 41.65 20.75 43.0 20.4 L43.05 20.4 44.0 20.0 44.4 19.85 44.5 20.25 44.5 20.6 44.65 22.0 M45.75 27.4 Q45.75 28.35 45.1 29.0 44.4 29.7 43.5 29.7 42.5 29.7 41.8 29.0 41.15 28.35 41.15 27.4 41.15 26.4 41.8 25.7 42.5 25.05 43.5 25.05 44.4 25.05 45.1 25.7 45.75 26.4 45.75 27.4 M42.25 32.7 L41.55 33.3 34.9 34.4 34.9 34.55 32.2 35.0 Q28.9 36.15 28.05 39.85 27.65 44.0 27.9 49.8 L25.95 51.7 24.1 49.6 Q24.35 44.0 24.05 39.85 23.25 35.9 19.8 34.7 L17.2 34.3 17.2 34.15 11.8 33.3 11.05 32.8 Q10.8 32.3 10.95 31.85 11.05 31.35 11.4 31.1 L12.3 30.95 Q27.05 33.95 41.05 30.95 L41.9 31.1 42.5 31.85 42.25 32.7 M42.0 34.05 L41.9 42.55 Q41.15 44.55 38.25 45.6 L35.8 46.1 36.35 45.5 Q38.95 41.7 39.3 34.9 L41.2 34.3 42.0 34.05 M0.35 0.4 Q0.5 0.0 0.95 0.0 L1.25 0.05 Q2.6 6.45 7.5 9.25 L8.35 9.75 8.5 9.8 8.85 10.15 9.0 10.65 Q9.2 11.65 8.75 12.75 8.35 13.85 7.6 14.45 L6.85 14.85 6.65 14.85 Q3.4 12.85 1.8 10.15 L1.1 8.8 0.75 7.8 0.6 6.9 0.45 5.7 Q0.0 3.5 0.0 2.15 0.0 0.9 0.35 0.4 M10.3 9.55 L9.95 8.55 9.55 7.9 10.6 8.4 13.0 9.15 14.75 9.5 Q15.6 10.05 15.95 11.5 16.25 13.35 15.45 15.55 14.6 17.65 13.15 18.8 11.9 19.85 10.8 19.6 L9.95 19.25 6.75 17.55 6.0 17.05 6.4 17.05 7.75 16.3 Q9.0 15.2 9.85 13.25 10.6 11.25 10.3 9.55 M18.05 26.3 Q18.95 26.3 19.65 27.0 20.3 27.65 20.3 28.65 20.3 29.6 19.65 30.25 18.95 30.95 18.05 30.95 17.05 30.95 16.35 30.25 15.7 29.6 15.7 28.65 15.7 27.65 16.35 27.0 17.05 26.3 18.05 26.3 M12.8 27.4 Q12.8 28.35 12.15 29.0 11.45 29.7 10.55 29.7 9.55 29.7 8.85 29.0 8.2 28.35 8.2 27.4 8.2 26.4 8.85 25.7 9.55 25.05 10.55 25.05 11.45 25.05 12.15 25.7 12.8 26.4 12.8 27.4 M11.55 34.55 L12.3 34.8 Q13.4 35.3 14.25 35.4 14.6 42.2 17.2 46.0 L17.7 46.6 15.25 46.1 Q12.4 45.05 11.65 43.05 L11.55 34.55 M37.0 27.0 Q37.7 27.65 37.7 28.65 37.7 29.6 37.0 30.25 36.35 30.95 35.4 30.95 34.4 30.95 33.7 30.25 33.05 29.6 33.05 28.65 33.05 27.65 33.7 27.0 34.4 26.3 35.4 26.3 36.35 26.3 37.0 27.0 M28.5 27.3 Q29.15 28.0 29.15 29.0 29.15 29.95 28.5 30.6 27.8 31.25 26.9 31.25 25.9 31.25 25.2 30.6 24.55 29.95 24.55 29.0 24.55 28.0 25.2 27.3 25.9 26.65 26.9 26.65 27.8 26.65 28.5 27.3" fill="#000000" fill-rule="evenodd" stroke="none"/>
      <path d="M44.5 20.25 L44.4 19.75 Q44.85 19.5 45.25 19.35 L45.25 20.65 45.25 21.95 44.65 22.0 44.5 20.6 44.5 20.25 M8.95 21.25 L8.85 21.95 8.7 21.95 8.7 21.25 8.6 20.65 8.7 19.4 9.0 19.65 8.95 21.25" fill="#beb999" fill-rule="evenodd" stroke="none"/>
    </g>
  </defs>
</svg>
