<?xml version="1.0" encoding="UTF-8" standalone="no"?>
<svg xmlns:ffdec="https://www.free-decompiler.com/flash" xmlns:xlink="http://www.w3.org/1999/xlink" ffdec:objectType="frame" height="56.0px" width="56.0px" xmlns="http://www.w3.org/2000/svg">
  <g transform="matrix(1.0, 0.0, 0.0, 1.0, 0.0, 0.0)">
    <use ffdec:characterId="34" ffdec:characterName="188_fla.Symbole285_1" height="56.0" id="back" transform="matrix(1.0, 0.0, 0.0, 1.0, 0.0, 0.0)" width="56.0" xlink:href="#sprite0"/>
    <use ffdec:characterId="36" height="39.45" id="back" transform="matrix(1.0, 0.0, 0.0, 1.0, 0.35, 8.2)" width="55.35" xlink:href="#sprite33"/>
    <use ffdec:characterId="38" height="37.95" id="up" transform="matrix(1.0, 0.0, 0.0, 1.0, 1.1, 8.95)" width="53.85" xlink:href="#sprite34"/>
  </g>
  <defs>
    <g id="sprite0" transform="matrix(1.0, 0.0, 0.0, 1.0, 0.0, 0.0)">
      <use ffdec:characterId="33" ffdec:characterName="188_fla.Symbole282_2" height="56.0" id="back" transform="matrix(1.0, 0.0, 0.0, 1.0, 0.0, 0.0)" width="56.0" xlink:href="#sprite1"/>
    </g>
    <g id="sprite1" transform="matrix(1.0, 0.0, 0.0, 1.0, 0.0, 0.0)">
      <use ffdec:characterId="32" ffdec:characterName="188_fla.Symbole279_3" height="56.0" id="back" transform="matrix(1.0, 0.0, 0.0, 1.0, 0.0, 0.0)" width="56.0" xlink:href="#sprite2"/>
    </g>
    <g id="sprite2" transform="matrix(1.0, 0.0, 0.0, 1.0, 0.0, 0.0)">
      <use ffdec:characterId="31" ffdec:characterName="188_fla.Symbole276_4" height="56.0" id="back" transform="matrix(1.0, 0.0, 0.0, 1.0, 0.0, 0.0)" width="56.0" xlink:href="#sprite3"/>
    </g>
    <g id="sprite3" transform="matrix(1.0, 0.0, 0.0, 1.0, 0.0, 0.0)">
      <use ffdec:characterId="30" ffdec:characterName="188_fla.Symbole273_5" height="56.0" id="back" transform="matrix(1.0, 0.0, 0.0, 1.0, 0.0, 0.0)" width="56.0" xlink:href="#sprite4"/>
    </g>
    <g id="sprite4" transform="matrix(1.0, 0.0, 0.0, 1.0, 0.0, 0.0)">
      <use ffdec:characterId="29" ffdec:characterName="188_fla.Symbole270_6" height="56.0" id="back" transform="matrix(1.0, 0.0, 0.0, 1.0, 0.0, 0.0)" width="56.0" xlink:href="#sprite5"/>
    </g>
    <g id="sprite5" transform="matrix(1.0, 0.0, 0.0, 1.0, 0.0, 0.0)">
      <use ffdec:characterId="28" ffdec:characterName="188_fla.Symbole267_7" height="56.0" id="back" transform="matrix(1.0, 0.0, 0.0, 1.0, 0.0, 0.0)" width="56.0" xlink:href="#sprite6"/>
    </g>
    <g id="sprite6" transform="matrix(1.0, 0.0, 0.0, 1.0, 0.0, 0.0)">
      <use ffdec:characterId="27" ffdec:characterName="188_fla.Symbole264_8" height="56.0" id="back" transform="matrix(1.0, 0.0, 0.0, 1.0, 0.0, 0.0)" width="56.0" xlink:href="#sprite7"/>
    </g>
    <g id="sprite7" transform="matrix(1.0, 0.0, 0.0, 1.0, 0.0, 0.0)">
      <use ffdec:characterId="26" ffdec:characterName="188_fla.Symbole261_9" height="56.0" id="back" transform="matrix(1.0, 0.0, 0.0, 1.0, 0.0, 0.0)" width="56.0" xlink:href="#sprite8"/>
    </g>
    <g id="sprite8" transform="matrix(1.0, 0.0, 0.0, 1.0, 0.0, 0.0)">
      <use ffdec:characterId="25" ffdec:characterName="188_fla.Symbole258_10" height="56.0" id="back" transform="matrix(1.0, 0.0, 0.0, 1.0, 0.0, 0.0)" width="56.0" xlink:href="#sprite9"/>
    </g>
    <g id="sprite9" transform="matrix(1.0, 0.0, 0.0, 1.0, 0.0, 0.0)">
      <use ffdec:characterId="24" ffdec:characterName="188_fla.Symbole255_11" height="56.0" id="back" transform="matrix(1.0, 0.0, 0.0, 1.0, 0.0, 0.0)" width="56.0" xlink:href="#sprite10"/>
    </g>
    <g id="sprite10" transform="matrix(1.0, 0.0, 0.0, 1.0, 0.0, 0.0)">
      <use ffdec:characterId="23" ffdec:characterName="188_fla.Symbole252_12" height="56.0" id="back" transform="matrix(1.0, 0.0, 0.0, 1.0, 0.0, 0.0)" width="56.0" xlink:href="#sprite11"/>
    </g>
    <g id="sprite11" transform="matrix(1.0, 0.0, 0.0, 1.0, 0.0, 0.0)">
      <use ffdec:characterId="22" ffdec:characterName="188_fla.Symbole249_13" height="56.0" id="back" transform="matrix(1.0, 0.0, 0.0, 1.0, 0.0, 0.0)" width="56.0" xlink:href="#sprite12"/>
    </g>
    <g id="sprite12" transform="matrix(1.0, 0.0, 0.0, 1.0, 0.0, 0.0)">
      <use ffdec:characterId="21" ffdec:characterName="188_fla.Symbole246_14" height="56.0" id="back" transform="matrix(1.0, 0.0, 0.0, 1.0, 0.0, 0.0)" width="56.0" xlink:href="#sprite13"/>
    </g>
    <g id="sprite13" transform="matrix(1.0, 0.0, 0.0, 1.0, 0.0, 0.0)">
      <use ffdec:characterId="20" ffdec:characterName="188_fla.Symbole243_15" height="56.0" id="back" transform="matrix(1.0, 0.0, 0.0, 1.0, 0.0, 0.0)" width="56.0" xlink:href="#sprite14"/>
    </g>
    <g id="sprite14" transform="matrix(1.0, 0.0, 0.0, 1.0, 0.0, 0.0)">
      <use ffdec:characterId="19" ffdec:characterName="188_fla.Symbole240_16" height="56.0" id="back" transform="matrix(1.0, 0.0, 0.0, 1.0, 0.0, 0.0)" width="56.0" xlink:href="#sprite15"/>
    </g>
    <g id="sprite15" transform="matrix(1.0, 0.0, 0.0, 1.0, 0.0, 0.0)">
      <use ffdec:characterId="18" ffdec:characterName="188_fla.Symbole237_17" height="56.0" id="back" transform="matrix(1.0, 0.0, 0.0, 1.0, 0.0, 0.0)" width="56.0" xlink:href="#sprite16"/>
    </g>
    <g id="sprite16" transform="matrix(1.0, 0.0, 0.0, 1.0, 0.0, 0.0)">
      <use ffdec:characterId="17" ffdec:characterName="188_fla.Symbole234_18" height="56.0" id="back" transform="matrix(1.0, 0.0, 0.0, 1.0, 0.0, 0.0)" width="56.0" xlink:href="#sprite17"/>
    </g>
    <g id="sprite17" transform="matrix(1.0, 0.0, 0.0, 1.0, 0.0, 0.0)">
      <use ffdec:characterId="16" ffdec:characterName="188_fla.Symbole231_19" height="56.0" id="back" transform="matrix(1.0, 0.0, 0.0, 1.0, 0.0, 0.0)" width="56.0" xlink:href="#sprite18"/>
    </g>
    <g id="sprite18" transform="matrix(1.0, 0.0, 0.0, 1.0, 0.0, 0.0)">
      <use ffdec:characterId="15" ffdec:characterName="188_fla.Symbole228_20" height="56.0" id="back" transform="matrix(1.0, 0.0, 0.0, 1.0, 0.0, 0.0)" width="56.0" xlink:href="#sprite19"/>
    </g>
    <g id="sprite19" transform="matrix(1.0, 0.0, 0.0, 1.0, 0.0, 0.0)">
      <use ffdec:characterId="14" ffdec:characterName="188_fla.Symbole225_21" height="56.0" id="back" transform="matrix(1.0, 0.0, 0.0, 1.0, 0.0, 0.0)" width="56.0" xlink:href="#sprite20"/>
    </g>
    <g id="sprite20" transform="matrix(1.0, 0.0, 0.0, 1.0, 0.0, 0.0)">
      <use ffdec:characterId="13" ffdec:characterName="188_fla.Symbole222_22" height="56.0" id="back" transform="matrix(1.0, 0.0, 0.0, 1.0, 0.0, 0.0)" width="56.0" xlink:href="#sprite21"/>
    </g>
    <g id="sprite21" transform="matrix(1.0, 0.0, 0.0, 1.0, 0.0, 0.0)">
      <use ffdec:characterId="12" ffdec:characterName="188_fla.Symbole219_23" height="56.0" id="back" transform="matrix(1.0, 0.0, 0.0, 1.0, 0.0, 0.0)" width="56.0" xlink:href="#sprite22"/>
    </g>
    <g id="sprite22" transform="matrix(1.0, 0.0, 0.0, 1.0, 0.0, 0.0)">
      <use ffdec:characterId="11" ffdec:characterName="188_fla.Symbole216_24" height="56.0" id="back" transform="matrix(1.0, 0.0, 0.0, 1.0, 0.0, 0.0)" width="56.0" xlink:href="#sprite23"/>
    </g>
    <g id="sprite23" transform="matrix(1.0, 0.0, 0.0, 1.0, 0.0, 0.0)">
      <use ffdec:characterId="10" ffdec:characterName="188_fla.Symbole213_25" height="56.0" id="back" transform="matrix(1.0, 0.0, 0.0, 1.0, 0.0, 0.0)" width="56.0" xlink:href="#sprite24"/>
    </g>
    <g id="sprite24" transform="matrix(1.0, 0.0, 0.0, 1.0, 0.0, 0.0)">
      <use ffdec:characterId="9" ffdec:characterName="188_fla.Symbole210_26" height="56.0" id="back" transform="matrix(1.0, 0.0, 0.0, 1.0, 0.0, 0.0)" width="56.0" xlink:href="#sprite25"/>
    </g>
    <g id="sprite25" transform="matrix(1.0, 0.0, 0.0, 1.0, 0.0, 0.0)">
      <use ffdec:characterId="8" ffdec:characterName="188_fla.Symbole207_27" height="56.0" id="back" transform="matrix(1.0, 0.0, 0.0, 1.0, 0.0, 0.0)" width="56.0" xlink:href="#sprite26"/>
    </g>
    <g id="sprite26" transform="matrix(1.0, 0.0, 0.0, 1.0, 0.0, 0.0)">
      <use ffdec:characterId="7" ffdec:characterName="188_fla.Symbole204_28" height="56.0" id="back" transform="matrix(1.0, 0.0, 0.0, 1.0, 0.0, 0.0)" width="56.0" xlink:href="#sprite27"/>
    </g>
    <g id="sprite27" transform="matrix(1.0, 0.0, 0.0, 1.0, 0.0, 0.0)">
      <use ffdec:characterId="6" ffdec:characterName="188_fla.Symbole201_29" height="56.0" id="back" transform="matrix(1.0, 0.0, 0.0, 1.0, 0.0, 0.0)" width="56.0" xlink:href="#sprite28"/>
    </g>
    <g id="sprite28" transform="matrix(1.0, 0.0, 0.0, 1.0, 0.0, 0.0)">
      <use ffdec:characterId="5" ffdec:characterName="188_fla.Symbole198_30" height="56.0" id="back" transform="matrix(1.0, 0.0, 0.0, 1.0, 0.0, 0.0)" width="56.0" xlink:href="#sprite29"/>
    </g>
    <g id="sprite29" transform="matrix(1.0, 0.0, 0.0, 1.0, 0.0, 0.0)">
      <use ffdec:characterId="4" ffdec:characterName="188_fla.Symbole195_31" height="56.0" id="back" transform="matrix(1.0, 0.0, 0.0, 1.0, 0.0, 0.0)" width="56.0" xlink:href="#sprite30"/>
    </g>
    <g id="sprite30" transform="matrix(1.0, 0.0, 0.0, 1.0, 0.0, 0.0)">
      <use ffdec:characterId="3" ffdec:characterName="188_fla.Symbole192_32" height="56.0" id="back" transform="matrix(1.0, 0.0, 0.0, 1.0, 0.0, 0.0)" width="56.0" xlink:href="#sprite31"/>
    </g>
    <g id="sprite31" transform="matrix(1.0, 0.0, 0.0, 1.0, 0.0, 0.0)">
      <use ffdec:characterId="2" height="56.0" id="back" transform="matrix(1.0, 0.0, 0.0, 1.0, 0.0, 0.0)" width="56.0" xlink:href="#sprite32"/>
    </g>
    <g id="sprite32" transform="matrix(1.0, 0.0, 0.0, 1.0, 0.0, 0.0)">
      <use ffdec:characterId="1" height="56.0" transform="matrix(1.0, 0.0, 0.0, 1.0, 0.0, 0.0)" width="56.0" xlink:href="#shape0"/>
    </g>
    <g id="shape0" transform="matrix(1.0, 0.0, 0.0, 1.0, 0.0, 0.0)">
      <path d="M56.0 56.0 L0.0 56.0 0.0 0.0 56.0 0.0 56.0 56.0" fill="#010101" fill-opacity="0.0" fill-rule="evenodd" stroke="none"/>
    </g>
    <g id="sprite33" transform="matrix(1.0, 0.0, 0.0, 1.0, 0.75, 0.75)">
      <use ffdec:characterId="35" height="39.45" transform="matrix(1.0, 0.0, 0.0, 1.0, -0.75, -0.75)" width="55.35" xlink:href="#shape1"/>
    </g>
    <g id="shape1" transform="matrix(1.0, 0.0, 0.0, 1.0, 0.75, 0.75)">
      <path d="M46.85 5.25 L45.75 4.75 44.0 4.35 Q40.5 3.65 36.2 4.95 L36.05 5.1 35.85 6.1 Q35.8 7.2 36.5 8.4 37.05 9.65 38.1 10.15 38.45 10.45 38.75 10.45 L39.25 10.55 Q39.25 10.45 39.5 10.45 39.95 10.15 40.55 10.0 46.6 7.85 53.35 11.6 L53.7 11.4 Q54.0 10.85 53.75 10.45 53.55 9.7 52.45 8.8 L49.05 6.5 47.75 5.7 46.85 5.25 M39.55 12.4 L40.2 12.1 40.55 11.95 40.7 13.6 40.7 13.7 40.7 14.05 40.5 14.15 40.7 14.15 40.65 15.05 38.25 15.55 38.45 16.65 40.35 16.3 Q40.8 16.2 41.2 16.45 L41.7 17.15 Q41.8 17.6 41.5 17.9 41.25 18.35 40.8 18.45 L38.45 18.95 38.45 19.3 38.35 19.65 40.25 19.3 41.05 19.45 Q41.5 19.65 41.55 20.1 L41.4 20.95 40.7 21.45 37.9 22.05 37.2 25.0 37.5 30.25 37.6 30.5 37.5 30.55 36.6 31.7 37.6 33.4 Q37.95 33.95 37.9 34.6 L37.15 35.55 36.45 35.95 35.3 36.1 Q34.6 35.85 34.3 35.4 L33.45 34.0 31.95 34.6 31.65 34.7 31.95 35.95 Q32.05 36.55 31.8 37.0 31.45 37.7 30.75 37.75 L29.9 37.9 28.85 37.7 28.2 36.85 27.85 35.4 27.3 35.4 26.0 35.4 25.8 36.85 25.15 37.7 24.0 37.9 23.15 37.75 Q22.55 37.7 22.2 37.0 21.8 36.55 22.0 35.95 L22.2 34.7 21.8 34.6 20.55 34.1 19.65 35.4 18.75 36.1 17.6 35.95 16.8 35.55 Q16.2 35.25 16.2 34.6 16.05 33.95 16.3 33.4 L17.2 31.7 16.2 30.55 16.2 30.5 16.3 30.25 16.6 25.0 15.9 22.05 12.75 21.45 12.05 20.95 Q11.8 20.6 11.9 20.1 12.0 19.65 12.35 19.45 12.75 19.15 13.2 19.3 L15.4 19.75 15.35 18.95 12.9 18.45 12.15 17.9 Q11.9 17.6 12.0 17.15 12.05 16.7 12.5 16.45 L13.3 16.3 15.4 16.7 15.7 15.55 13.2 15.05 13.1 14.15 13.2 14.0 13.1 14.0 13.2 13.45 13.3 11.85 13.8 12.1 14.45 12.4 14.6 12.4 Q15.7 12.7 16.9 11.7 L16.95 11.7 Q18.1 10.7 18.8 8.95 19.45 7.05 19.2 5.65 L19.2 5.55 Q18.95 4.1 18.1 3.6 L17.9 3.5 17.8 3.5 Q21.65 0.0 26.9 0.0 32.2 0.0 36.15 3.6 L35.9 3.6 Q35.15 4.1 34.75 5.55 L34.75 5.65 Q34.55 7.05 35.2 8.95 35.9 10.7 37.05 11.7 L37.15 11.7 Q38.35 12.7 39.4 12.4 L39.55 12.4 M8.15 5.05 L9.85 4.65 Q13.35 3.95 17.65 5.25 L17.8 5.4 18.05 6.4 Q18.1 7.5 17.35 8.7 16.8 9.95 15.75 10.45 L15.1 10.7 14.6 10.8 Q14.6 10.7 14.4 10.7 L13.3 10.3 Q7.25 8.15 0.55 11.85 L0.2 11.7 Q-0.1 11.15 0.1 10.7 0.35 10.0 1.4 9.1 2.65 8.1 4.8 6.8 5.4 6.4 6.1 5.95 L7.0 5.55 8.15 5.05 M19.05 23.9 L18.9 23.9 Q18.3 24.65 18.05 25.65 17.65 26.9 18.35 29.4 20.8 31.0 23.7 30.55 L24.8 29.4 24.8 27.75 19.1 23.95 19.05 23.9 M34.75 23.9 Q35.5 24.8 35.85 25.65 36.2 26.9 35.45 29.4 32.9 31.0 30.05 30.55 L29.0 29.4 28.9 27.75 34.7 23.95 34.7 23.9 34.75 23.9 M27.3 31.0 Q28.9 32.1 29.45 33.25 29.3 34.3 27.85 33.4 27.25 32.85 27.3 31.0 M26.0 33.4 Q26.7 32.85 26.6 31.0 25.0 32.1 24.5 33.25 24.5 34.3 26.0 33.4 Z" fill="none" stroke="#000000" stroke-linecap="round" stroke-linejoin="round" stroke-opacity="0.2" stroke-width="1.5"/>
    </g>
    <g id="sprite34" transform="matrix(1.0, 0.0, 0.0, 1.0, 0.0, 0.0)">
      <use ffdec:characterId="37" height="37.95" transform="matrix(1.0, 0.0, 0.0, 1.0, 0.0, 0.0)" width="53.85" xlink:href="#shape2"/>
    </g>
    <g id="shape2" transform="matrix(1.0, 0.0, 0.0, 1.0, 0.0, 0.0)">
      <path d="M45.7 4.75 Q46.3 4.9 46.8 5.25 L47.75 5.7 49.05 6.5 52.45 8.8 Q53.55 9.75 53.75 10.45 53.95 10.9 53.65 11.4 L53.3 11.6 Q46.6 7.85 40.5 10.0 L39.45 10.45 39.2 10.5 38.7 10.45 38.05 10.15 Q37.05 9.65 36.5 8.45 35.75 7.2 35.85 6.15 L36.05 5.1 36.2 5.0 Q40.45 3.7 44.0 4.35 L45.7 4.75 M40.65 13.6 L40.65 13.7 40.65 14.05 40.45 14.1 40.65 14.1 40.6 15.05 38.2 15.55 38.45 16.65 40.3 16.3 Q40.8 16.2 41.15 16.45 L41.7 17.15 41.45 17.95 40.8 18.45 38.45 18.95 38.45 19.3 38.35 19.65 40.25 19.3 41.05 19.45 Q41.45 19.65 41.55 20.1 L41.4 20.95 40.65 21.45 37.85 22.05 37.2 25.0 37.5 30.25 37.55 30.5 37.5 30.55 36.55 31.7 37.55 33.45 Q37.9 33.95 37.85 34.6 L37.15 35.5 36.4 35.95 35.25 36.1 34.25 35.4 33.45 34.0 31.95 34.6 Q31.95 34.75 31.65 34.75 L31.95 35.95 31.8 37.05 Q31.4 37.7 30.75 37.75 L29.9 37.9 28.8 37.7 Q28.3 37.3 28.15 36.8 L27.8 35.4 27.3 35.4 26.0 35.4 25.8 36.8 25.15 37.7 24.0 37.9 23.1 37.75 Q22.55 37.7 22.2 37.05 21.75 36.55 21.95 35.95 L22.2 34.75 21.75 34.6 20.5 34.1 19.65 35.4 18.7 36.1 17.55 35.95 16.75 35.5 Q16.2 35.25 16.2 34.6 16.05 33.95 16.25 33.45 L17.2 31.7 16.2 30.55 16.2 30.5 16.25 30.25 16.55 25.0 15.9 22.05 12.7 21.45 12.05 20.95 Q11.8 20.6 11.85 20.1 L12.35 19.45 13.15 19.3 15.4 19.75 15.3 19.3 15.3 18.95 12.85 18.45 12.15 17.95 Q11.85 17.6 12.0 17.15 12.05 16.7 12.5 16.45 12.85 16.2 13.3 16.3 L15.4 16.7 15.7 15.55 13.15 15.05 13.1 14.1 13.15 14.0 13.1 14.0 13.15 13.5 Q13.15 12.6 13.3 11.8 L13.8 12.1 14.45 12.4 14.6 12.4 Q15.7 12.7 16.85 11.65 L16.9 11.65 Q18.05 10.75 18.8 8.95 19.45 7.05 19.15 5.6 L19.15 5.55 Q18.95 4.1 18.05 3.6 L17.85 3.55 17.75 3.55 Q21.6 0.0 26.85 0.0 32.2 0.0 36.1 3.6 L35.9 3.6 Q35.1 4.1 34.75 5.55 L34.75 5.6 Q34.55 7.05 35.2 8.95 35.9 10.75 37.05 11.65 L37.15 11.65 Q38.35 12.7 39.35 12.4 L39.5 12.4 40.15 12.1 40.5 11.95 40.65 13.6 M8.1 5.05 L9.85 4.6 Q13.35 3.95 17.65 5.25 L17.75 5.4 18.0 6.4 Q18.05 7.5 17.35 8.7 16.75 9.95 15.75 10.45 15.4 10.75 15.1 10.75 L14.6 10.8 14.4 10.75 Q13.85 10.45 13.3 10.3 7.25 8.15 0.5 11.9 L0.15 11.65 Q-0.15 11.15 0.1 10.75 0.3 10.0 1.4 9.1 L4.75 6.8 6.05 6.0 7.0 5.55 Q7.5 5.2 8.1 5.05 M19.0 23.9 L18.85 23.9 Q18.3 24.65 18.0 25.65 17.65 26.9 18.35 29.4 20.8 31.0 23.7 30.55 L24.8 29.4 24.8 27.75 Q21.9 25.8 19.05 24.0 L19.0 23.9 M27.3 31.0 Q27.25 32.85 27.8 33.35 29.25 34.3 29.4 33.2 28.9 32.05 27.3 31.0 M34.75 23.9 L34.65 23.9 34.65 24.0 28.9 27.75 28.95 29.4 30.05 30.55 Q32.85 31.0 35.4 29.4 36.2 26.9 35.85 25.65 L34.75 23.9 M26.0 33.35 Q26.65 32.85 26.6 31.0 25.0 32.05 24.5 33.2 24.5 34.3 26.0 33.35 M25.85 36.65 L25.95 36.6 26.0 36.65 25.85 36.65" fill="#000000" fill-rule="evenodd" stroke="none"/>
      <path d="M40.65 13.6 L40.5 11.9 41.15 11.6 41.15 12.55 41.15 13.55 40.65 13.6 M13.2 11.75 L13.15 13.05 13.1 13.55 12.95 13.55 12.95 13.05 12.85 12.55 12.95 11.6 13.2 11.75" fill="#beb999" fill-rule="evenodd" stroke="none"/>
    </g>
  </defs>
</svg>
