<?xml version="1.0" encoding="UTF-8" standalone="no"?>
<svg xmlns:ffdec="https://www.free-decompiler.com/flash" xmlns:xlink="http://www.w3.org/1999/xlink" ffdec:objectType="frame" height="56.0px" width="56.0px" xmlns="http://www.w3.org/2000/svg">
  <g transform="matrix(1.0, 0.0, 0.0, 1.0, 0.0, 0.0)">
    <use ffdec:characterId="35" ffdec:characterName="189_fla.Symbole288_1" height="56.0" id="back" transform="matrix(1.0, 0.0, 0.0, 1.0, 0.0, 0.0)" width="56.0" xlink:href="#sprite0"/>
    <use ffdec:characterId="37" height="49.75" id="back" transform="matrix(1.0, 0.0, 0.0, 1.0, 0.35, 3.05)" width="55.35" xlink:href="#sprite34"/>
    <use ffdec:characterId="39" height="48.25" id="up" transform="matrix(1.0, 0.0, 0.0, 1.0, 1.1, 3.8)" width="53.85" xlink:href="#sprite35"/>
  </g>
  <defs>
    <g id="sprite0" transform="matrix(1.0, 0.0, 0.0, 1.0, 0.0, 0.0)">
      <use ffdec:characterId="34" ffdec:characterName="189_fla.Symbole285_2" height="56.0" id="back" transform="matrix(1.0, 0.0, 0.0, 1.0, 0.0, 0.0)" width="56.0" xlink:href="#sprite1"/>
    </g>
    <g id="sprite1" transform="matrix(1.0, 0.0, 0.0, 1.0, 0.0, 0.0)">
      <use ffdec:characterId="33" ffdec:characterName="189_fla.Symbole282_3" height="56.0" id="back" transform="matrix(1.0, 0.0, 0.0, 1.0, 0.0, 0.0)" width="56.0" xlink:href="#sprite2"/>
    </g>
    <g id="sprite2" transform="matrix(1.0, 0.0, 0.0, 1.0, 0.0, 0.0)">
      <use ffdec:characterId="32" ffdec:characterName="189_fla.Symbole279_4" height="56.0" id="back" transform="matrix(1.0, 0.0, 0.0, 1.0, 0.0, 0.0)" width="56.0" xlink:href="#sprite3"/>
    </g>
    <g id="sprite3" transform="matrix(1.0, 0.0, 0.0, 1.0, 0.0, 0.0)">
      <use ffdec:characterId="31" ffdec:characterName="189_fla.Symbole276_5" height="56.0" id="back" transform="matrix(1.0, 0.0, 0.0, 1.0, 0.0, 0.0)" width="56.0" xlink:href="#sprite4"/>
    </g>
    <g id="sprite4" transform="matrix(1.0, 0.0, 0.0, 1.0, 0.0, 0.0)">
      <use ffdec:characterId="30" ffdec:characterName="189_fla.Symbole273_6" height="56.0" id="back" transform="matrix(1.0, 0.0, 0.0, 1.0, 0.0, 0.0)" width="56.0" xlink:href="#sprite5"/>
    </g>
    <g id="sprite5" transform="matrix(1.0, 0.0, 0.0, 1.0, 0.0, 0.0)">
      <use ffdec:characterId="29" ffdec:characterName="189_fla.Symbole270_7" height="56.0" id="back" transform="matrix(1.0, 0.0, 0.0, 1.0, 0.0, 0.0)" width="56.0" xlink:href="#sprite6"/>
    </g>
    <g id="sprite6" transform="matrix(1.0, 0.0, 0.0, 1.0, 0.0, 0.0)">
      <use ffdec:characterId="28" ffdec:characterName="189_fla.Symbole267_8" height="56.0" id="back" transform="matrix(1.0, 0.0, 0.0, 1.0, 0.0, 0.0)" width="56.0" xlink:href="#sprite7"/>
    </g>
    <g id="sprite7" transform="matrix(1.0, 0.0, 0.0, 1.0, 0.0, 0.0)">
      <use ffdec:characterId="27" ffdec:characterName="189_fla.Symbole264_9" height="56.0" id="back" transform="matrix(1.0, 0.0, 0.0, 1.0, 0.0, 0.0)" width="56.0" xlink:href="#sprite8"/>
    </g>
    <g id="sprite8" transform="matrix(1.0, 0.0, 0.0, 1.0, 0.0, 0.0)">
      <use ffdec:characterId="26" ffdec:characterName="189_fla.Symbole261_10" height="56.0" id="back" transform="matrix(1.0, 0.0, 0.0, 1.0, 0.0, 0.0)" width="56.0" xlink:href="#sprite9"/>
    </g>
    <g id="sprite9" transform="matrix(1.0, 0.0, 0.0, 1.0, 0.0, 0.0)">
      <use ffdec:characterId="25" ffdec:characterName="189_fla.Symbole258_11" height="56.0" id="back" transform="matrix(1.0, 0.0, 0.0, 1.0, 0.0, 0.0)" width="56.0" xlink:href="#sprite10"/>
    </g>
    <g id="sprite10" transform="matrix(1.0, 0.0, 0.0, 1.0, 0.0, 0.0)">
      <use ffdec:characterId="24" ffdec:characterName="189_fla.Symbole255_12" height="56.0" id="back" transform="matrix(1.0, 0.0, 0.0, 1.0, 0.0, 0.0)" width="56.0" xlink:href="#sprite11"/>
    </g>
    <g id="sprite11" transform="matrix(1.0, 0.0, 0.0, 1.0, 0.0, 0.0)">
      <use ffdec:characterId="23" ffdec:characterName="189_fla.Symbole252_13" height="56.0" id="back" transform="matrix(1.0, 0.0, 0.0, 1.0, 0.0, 0.0)" width="56.0" xlink:href="#sprite12"/>
    </g>
    <g id="sprite12" transform="matrix(1.0, 0.0, 0.0, 1.0, 0.0, 0.0)">
      <use ffdec:characterId="22" ffdec:characterName="189_fla.Symbole249_14" height="56.0" id="back" transform="matrix(1.0, 0.0, 0.0, 1.0, 0.0, 0.0)" width="56.0" xlink:href="#sprite13"/>
    </g>
    <g id="sprite13" transform="matrix(1.0, 0.0, 0.0, 1.0, 0.0, 0.0)">
      <use ffdec:characterId="21" ffdec:characterName="189_fla.Symbole246_15" height="56.0" id="back" transform="matrix(1.0, 0.0, 0.0, 1.0, 0.0, 0.0)" width="56.0" xlink:href="#sprite14"/>
    </g>
    <g id="sprite14" transform="matrix(1.0, 0.0, 0.0, 1.0, 0.0, 0.0)">
      <use ffdec:characterId="20" ffdec:characterName="189_fla.Symbole243_16" height="56.0" id="back" transform="matrix(1.0, 0.0, 0.0, 1.0, 0.0, 0.0)" width="56.0" xlink:href="#sprite15"/>
    </g>
    <g id="sprite15" transform="matrix(1.0, 0.0, 0.0, 1.0, 0.0, 0.0)">
      <use ffdec:characterId="19" ffdec:characterName="189_fla.Symbole240_17" height="56.0" id="back" transform="matrix(1.0, 0.0, 0.0, 1.0, 0.0, 0.0)" width="56.0" xlink:href="#sprite16"/>
    </g>
    <g id="sprite16" transform="matrix(1.0, 0.0, 0.0, 1.0, 0.0, 0.0)">
      <use ffdec:characterId="18" ffdec:characterName="189_fla.Symbole237_18" height="56.0" id="back" transform="matrix(1.0, 0.0, 0.0, 1.0, 0.0, 0.0)" width="56.0" xlink:href="#sprite17"/>
    </g>
    <g id="sprite17" transform="matrix(1.0, 0.0, 0.0, 1.0, 0.0, 0.0)">
      <use ffdec:characterId="17" ffdec:characterName="189_fla.Symbole234_19" height="56.0" id="back" transform="matrix(1.0, 0.0, 0.0, 1.0, 0.0, 0.0)" width="56.0" xlink:href="#sprite18"/>
    </g>
    <g id="sprite18" transform="matrix(1.0, 0.0, 0.0, 1.0, 0.0, 0.0)">
      <use ffdec:characterId="16" ffdec:characterName="189_fla.Symbole231_20" height="56.0" id="back" transform="matrix(1.0, 0.0, 0.0, 1.0, 0.0, 0.0)" width="56.0" xlink:href="#sprite19"/>
    </g>
    <g id="sprite19" transform="matrix(1.0, 0.0, 0.0, 1.0, 0.0, 0.0)">
      <use ffdec:characterId="15" ffdec:characterName="189_fla.Symbole228_21" height="56.0" id="back" transform="matrix(1.0, 0.0, 0.0, 1.0, 0.0, 0.0)" width="56.0" xlink:href="#sprite20"/>
    </g>
    <g id="sprite20" transform="matrix(1.0, 0.0, 0.0, 1.0, 0.0, 0.0)">
      <use ffdec:characterId="14" ffdec:characterName="189_fla.Symbole225_22" height="56.0" id="back" transform="matrix(1.0, 0.0, 0.0, 1.0, 0.0, 0.0)" width="56.0" xlink:href="#sprite21"/>
    </g>
    <g id="sprite21" transform="matrix(1.0, 0.0, 0.0, 1.0, 0.0, 0.0)">
      <use ffdec:characterId="13" ffdec:characterName="189_fla.Symbole222_23" height="56.0" id="back" transform="matrix(1.0, 0.0, 0.0, 1.0, 0.0, 0.0)" width="56.0" xlink:href="#sprite22"/>
    </g>
    <g id="sprite22" transform="matrix(1.0, 0.0, 0.0, 1.0, 0.0, 0.0)">
      <use ffdec:characterId="12" ffdec:characterName="189_fla.Symbole219_24" height="56.0" id="back" transform="matrix(1.0, 0.0, 0.0, 1.0, 0.0, 0.0)" width="56.0" xlink:href="#sprite23"/>
    </g>
    <g id="sprite23" transform="matrix(1.0, 0.0, 0.0, 1.0, 0.0, 0.0)">
      <use ffdec:characterId="11" ffdec:characterName="189_fla.Symbole216_25" height="56.0" id="back" transform="matrix(1.0, 0.0, 0.0, 1.0, 0.0, 0.0)" width="56.0" xlink:href="#sprite24"/>
    </g>
    <g id="sprite24" transform="matrix(1.0, 0.0, 0.0, 1.0, 0.0, 0.0)">
      <use ffdec:characterId="10" ffdec:characterName="189_fla.Symbole213_26" height="56.0" id="back" transform="matrix(1.0, 0.0, 0.0, 1.0, 0.0, 0.0)" width="56.0" xlink:href="#sprite25"/>
    </g>
    <g id="sprite25" transform="matrix(1.0, 0.0, 0.0, 1.0, 0.0, 0.0)">
      <use ffdec:characterId="9" ffdec:characterName="189_fla.Symbole210_27" height="56.0" id="back" transform="matrix(1.0, 0.0, 0.0, 1.0, 0.0, 0.0)" width="56.0" xlink:href="#sprite26"/>
    </g>
    <g id="sprite26" transform="matrix(1.0, 0.0, 0.0, 1.0, 0.0, 0.0)">
      <use ffdec:characterId="8" ffdec:characterName="189_fla.Symbole207_28" height="56.0" id="back" transform="matrix(1.0, 0.0, 0.0, 1.0, 0.0, 0.0)" width="56.0" xlink:href="#sprite27"/>
    </g>
    <g id="sprite27" transform="matrix(1.0, 0.0, 0.0, 1.0, 0.0, 0.0)">
      <use ffdec:characterId="7" ffdec:characterName="189_fla.Symbole204_29" height="56.0" id="back" transform="matrix(1.0, 0.0, 0.0, 1.0, 0.0, 0.0)" width="56.0" xlink:href="#sprite28"/>
    </g>
    <g id="sprite28" transform="matrix(1.0, 0.0, 0.0, 1.0, 0.0, 0.0)">
      <use ffdec:characterId="6" ffdec:characterName="189_fla.Symbole201_30" height="56.0" id="back" transform="matrix(1.0, 0.0, 0.0, 1.0, 0.0, 0.0)" width="56.0" xlink:href="#sprite29"/>
    </g>
    <g id="sprite29" transform="matrix(1.0, 0.0, 0.0, 1.0, 0.0, 0.0)">
      <use ffdec:characterId="5" ffdec:characterName="189_fla.Symbole198_31" height="56.0" id="back" transform="matrix(1.0, 0.0, 0.0, 1.0, 0.0, 0.0)" width="56.0" xlink:href="#sprite30"/>
    </g>
    <g id="sprite30" transform="matrix(1.0, 0.0, 0.0, 1.0, 0.0, 0.0)">
      <use ffdec:characterId="4" ffdec:characterName="189_fla.Symbole195_32" height="56.0" id="back" transform="matrix(1.0, 0.0, 0.0, 1.0, 0.0, 0.0)" width="56.0" xlink:href="#sprite31"/>
    </g>
    <g id="sprite31" transform="matrix(1.0, 0.0, 0.0, 1.0, 0.0, 0.0)">
      <use ffdec:characterId="3" ffdec:characterName="189_fla.Symbole192_33" height="56.0" id="back" transform="matrix(1.0, 0.0, 0.0, 1.0, 0.0, 0.0)" width="56.0" xlink:href="#sprite32"/>
    </g>
    <g id="sprite32" transform="matrix(1.0, 0.0, 0.0, 1.0, 0.0, 0.0)">
      <use ffdec:characterId="2" height="56.0" id="back" transform="matrix(1.0, 0.0, 0.0, 1.0, 0.0, 0.0)" width="56.0" xlink:href="#sprite33"/>
    </g>
    <g id="sprite33" transform="matrix(1.0, 0.0, 0.0, 1.0, 0.0, 0.0)">
      <use ffdec:characterId="1" height="56.0" transform="matrix(1.0, 0.0, 0.0, 1.0, 0.0, 0.0)" width="56.0" xlink:href="#shape0"/>
    </g>
    <g id="shape0" transform="matrix(1.0, 0.0, 0.0, 1.0, 0.0, 0.0)">
      <path d="M56.0 56.0 L0.0 56.0 0.0 0.0 56.0 0.0 56.0 56.0" fill="#010101" fill-opacity="0.0" fill-rule="evenodd" stroke="none"/>
    </g>
    <g id="sprite34" transform="matrix(1.0, 0.0, 0.0, 1.0, 0.75, 0.75)">
      <use ffdec:characterId="36" height="49.75" transform="matrix(1.0, 0.0, 0.0, 1.0, -0.75, -0.75)" width="55.35" xlink:href="#shape1"/>
    </g>
    <g id="shape1" transform="matrix(1.0, 0.0, 0.0, 1.0, 0.75, 0.75)">
      <path d="M46.1 14.55 L44.85 14.75 43.0 14.3 Q42.35 14.15 42.1 13.6 L41.9 13.3 42.0 13.3 42.7 13.15 42.9 12.6 42.9 12.05 Q42.7 11.75 42.35 11.65 L42.5 11.5 42.6 11.4 43.75 11.25 45.65 11.75 Q46.25 11.9 46.65 12.35 L46.9 13.05 46.75 13.05 46.15 13.15 45.85 13.75 46.0 14.3 46.15 14.55 46.1 14.55 M47.9 13.8 Q48.15 12.8 47.5 11.8 47.0 10.9 45.85 10.65 L44.0 10.15 Q42.9 9.9 42.0 10.5 L41.1 11.35 39.95 11.0 Q39.7 9.75 38.6 8.6 37.35 7.4 35.5 7.4 L33.65 7.4 Q31.8 7.4 30.55 8.6 L30.45 8.7 Q29.8 9.3 29.5 10.1 29.05 10.0 28.65 10.35 28.05 10.75 27.95 11.4 L27.9 11.5 25.0 12.75 Q21.1 13.9 15.6 13.9 10.1 13.9 6.2 12.75 L6.2 12.8 Q4.8 12.35 3.95 11.9 L3.2 11.4 Q3.1 10.65 2.55 10.35 1.95 9.9 1.4 10.1 0.6 10.15 0.3 10.75 -0.1 11.25 0.05 12.0 0.15 13.4 2.4 14.75 L5.3 15.9 Q9.55 17.15 15.6 17.15 21.65 17.15 25.9 15.9 28.5 15.15 29.75 14.25 L30.45 15.05 Q31.8 16.4 33.65 16.4 L35.5 16.4 Q37.35 16.4 38.6 15.15 L38.6 15.05 Q39.6 14.05 39.85 12.8 L40.75 13.0 41.1 14.25 Q41.65 15.15 42.75 15.4 L44.6 15.85 46.6 15.55 46.75 15.55 47.0 15.4 48.15 16.7 47.85 17.3 Q47.4 18.4 47.9 19.35 L48.65 21.15 Q49.15 22.15 50.15 22.55 L50.55 22.7 50.15 24.3 Q49.25 24.4 48.6 25.05 L47.2 26.45 Q46.5 27.2 46.5 28.3 46.5 29.0 46.9 29.6 L46.0 30.3 44.95 29.7 44.55 29.55 41.2 29.7 Q39.6 30.45 39.0 32.1 L38.95 32.2 38.8 32.85 38.85 32.85 38.95 33.05 39.0 33.05 39.1 33.2 Q39.95 33.8 40.25 34.85 L40.25 35.05 40.45 34.75 41.05 32.85 Q41.35 32.1 42.1 31.7 L43.85 31.6 44.15 31.7 44.35 31.8 Q44.1 32.0 44.1 32.35 L44.35 32.95 Q44.55 33.2 44.85 33.2 L45.4 33.1 Q45.75 33.75 45.4 34.5 L44.75 36.3 Q44.5 36.95 43.85 37.35 44.85 37.25 45.4 37.7 L46.0 38.4 46.8 37.15 46.8 37.1 47.5 35.3 Q48.15 33.6 47.25 32.0 L47.1 31.6 48.15 30.8 49.25 30.95 Q50.3 30.95 51.0 30.2 L52.4 28.75 Q53.2 27.95 53.2 26.9 53.2 25.8 52.4 25.05 L51.8 24.55 52.25 22.45 Q53.2 22.05 53.65 20.95 54.05 19.95 53.55 18.95 L52.8 17.15 Q52.35 16.25 51.3 15.8 50.4 15.55 49.55 15.8 L47.9 13.9 47.9 13.8 M49.0 17.7 L49.55 18.05 50.15 17.8 50.4 17.3 50.3 16.8 50.85 16.9 50.9 16.9 Q51.55 17.05 51.8 17.65 L52.55 19.4 Q52.9 20.05 52.65 20.6 L52.35 21.05 52.35 20.95 Q52.15 20.65 51.9 20.6 51.55 20.6 51.25 20.75 50.9 20.9 50.85 21.15 L50.8 21.6 50.55 21.55 Q50.0 21.4 49.65 20.75 L48.9 18.95 Q48.65 18.4 48.85 17.7 L48.9 17.65 49.0 17.7 M51.4 25.95 L51.5 25.65 51.65 25.8 Q52.1 26.3 52.1 26.9 L52.1 26.95 51.65 27.95 50.25 29.35 Q49.85 29.85 49.25 29.95 L49.05 29.95 49.15 29.55 48.9 29.0 Q48.65 28.7 48.35 28.7 L47.85 28.75 47.75 28.85 47.65 28.3 Q47.6 27.7 48.0 27.2 L49.4 25.8 Q49.6 25.55 49.9 25.45 L49.85 25.55 49.9 26.3 50.4 26.5 51.0 26.5 51.4 25.95 M45.15 38.5 Q44.75 38.25 44.35 38.35 43.85 38.4 43.6 38.85 43.35 39.2 43.5 39.65 L43.45 40.6 43.35 40.6 Q43.15 41.85 42.25 43.35 L42.2 43.45 42.1 43.65 41.9 44.0 40.2 45.75 39.8 45.9 39.55 46.0 39.35 46.1 Q38.95 46.25 38.7 46.65 L38.55 47.15 38.55 47.4 39.1 48.15 39.85 48.25 40.6 48.0 41.5 47.4 42.1 47.0 43.75 45.15 43.85 45.0 43.9 44.9 44.25 44.4 Q45.35 42.5 45.6 40.95 L45.75 40.0 45.65 39.2 Q45.6 38.6 45.15 38.5 M39.5 34.35 L38.7 33.45 Q38.3 33.1 37.95 33.1 37.45 33.2 37.2 33.6 36.85 33.85 36.95 34.35 L37.35 35.1 37.45 35.3 Q37.6 35.85 37.35 36.85 L37.35 36.95 Q37.05 38.85 35.6 41.25 L35.1 42.0 35.1 42.05 34.1 43.25 32.4 44.75 32.45 44.75 31.45 45.35 31.15 45.5 30.75 45.55 30.05 46.1 29.95 46.4 Q29.8 46.65 29.95 46.9 30.05 47.35 30.45 47.55 L31.3 47.75 31.7 47.55 31.85 47.55 32.2 47.4 33.25 46.9 33.7 46.65 33.8 46.55 36.85 43.3 36.95 43.3 37.45 42.35 37.55 42.35 Q39.25 39.6 39.55 37.25 L39.55 37.35 39.7 36.0 Q39.8 34.95 39.5 34.35 M40.25 36.45 L43.15 38.5 43.15 38.55 Q42.85 39.0 43.0 39.75 L43.0 40.35 42.85 40.5 Q42.7 41.6 42.0 42.9 L41.65 43.3 41.65 43.45 41.5 43.65 39.85 45.25 39.6 45.4 Q39.5 45.4 39.35 45.55 L39.1 45.65 Q38.55 45.75 38.25 46.35 L38.0 47.15 35.75 47.1 34.2 47.0 37.2 43.85 37.35 43.65 37.95 42.75 38.0 42.65 Q39.6 39.95 40.1 37.55 L40.1 37.45 40.25 36.45 M44.15 45.55 L43.0 47.0 51.5 45.65 Q54.65 43.45 48.6 41.5 L46.25 40.35 46.15 40.9 46.15 40.95 45.6 40.95 46.15 41.0 Q45.85 42.75 44.7 44.75 L44.7 44.7 44.5 45.15 44.35 45.35 44.15 45.55 M21.4 7.6 L19.25 8.0 15.85 8.1 10.25 7.65 8.85 7.3 8.45 7.3 Q6.3 6.35 6.1 5.4 L6.1 5.25 Q6.1 4.2 8.85 3.4 11.6 2.5 15.6 2.5 19.45 2.5 22.35 3.4 25.05 4.2 25.15 5.25 L25.15 5.5 Q24.8 6.5 22.35 7.3 L21.4 7.6 M29.05 4.35 Q28.7 5.9 25.15 7.0 L23.25 7.5 Q25.8 6.6 26.05 5.4 L26.05 5.2 Q26.05 3.8 22.9 2.85 19.85 1.75 15.5 1.85 11.2 1.75 8.15 2.85 L8.2 2.85 Q5.05 3.8 5.1 5.2 L5.1 5.35 5.1 5.4 Q5.2 6.25 6.75 7.05 L6.5 7.0 Q2.85 5.85 2.7 4.35 L2.7 4.1 Q2.7 2.4 6.5 1.25 10.45 0.0 15.85 0.0 21.25 0.0 25.15 1.25 29.05 2.4 29.05 4.1 L29.05 4.35 M28.9 8.55 Q28.1 8.6 27.45 9.1 L27.55 9.0 Q26.65 9.55 26.25 10.5 L24.3 11.15 Q20.55 12.35 15.35 12.35 10.2 12.35 6.5 11.15 L6.05 11.15 4.65 10.55 4.45 10.5 Q4.1 9.55 3.3 9.1 L2.85 8.75 2.7 6.75 Q2.85 8.3 6.5 9.5 10.45 10.65 15.85 10.65 21.25 10.65 25.15 9.5 28.7 8.4 29.05 6.85 L28.9 8.55 M37.35 10.8 Q37.0 10.9 36.95 11.15 36.85 11.55 37.1 11.9 L37.55 12.2 37.7 12.25 Q37.6 13.0 37.1 13.5 L37.05 13.6 Q36.45 14.25 35.5 14.25 L33.65 14.25 Q32.7 14.25 32.05 13.5 31.4 13.0 31.4 12.05 L31.4 11.75 Q31.4 10.9 32.05 10.25 L32.05 10.15 Q32.7 9.55 33.65 9.55 L35.5 9.55 Q36.45 9.55 37.05 10.15 L37.45 10.75 37.35 10.8 M29.3 16.4 Q30.35 24.8 34.95 30.95 L36.85 33.2 36.75 33.25 Q36.3 33.75 36.35 34.35 36.45 34.95 37.0 35.5 L36.95 36.5 36.85 36.85 Q36.55 38.7 35.2 40.95 L35.1 41.0 34.65 41.75 34.65 41.85 33.65 42.9 33.55 42.9 Q30.45 41.85 27.0 39.6 L28.2 38.7 Q28.7 38.35 28.9 37.6 28.95 37.0 28.55 36.45 28.1 35.85 27.45 35.75 26.9 35.6 26.25 36.1 L24.2 37.45 Q21.55 35.2 19.45 32.55 L21.1 31.0 21.55 29.85 Q21.55 29.15 21.1 28.7 20.65 28.1 19.9 28.1 19.25 28.1 18.75 28.7 L17.5 29.8 Q16.25 27.7 15.35 25.35 L15.95 25.4 17.2 25.1 Q17.75 24.7 17.9 24.05 18.0 23.4 17.6 22.85 L16.5 22.15 14.0 21.8 13.3 18.8 15.35 18.9 Q21.65 18.9 26.15 17.55 L29.3 16.4 M4.7 17.65 Q8.3 18.65 13.1 18.8 L13.1 18.9 Q13.3 20.3 13.75 21.7 L13.3 21.6 Q12.7 21.45 12.1 21.9 11.6 22.3 11.45 22.95 11.25 23.65 11.75 24.2 L12.75 24.85 14.95 25.3 Q15.95 27.75 17.35 30.0 L16.0 31.25 Q15.5 31.7 15.5 32.45 15.5 33.1 16.0 33.6 16.4 34.05 17.2 34.05 L18.25 33.7 19.25 32.7 Q21.3 35.35 24.05 37.6 L23.15 38.35 Q22.5 38.7 22.4 39.4 22.25 40.0 22.75 40.65 23.15 41.2 23.75 41.25 L25.0 41.0 26.9 39.75 Q30.2 42.05 33.4 43.15 L32.05 44.4 32.05 44.5 31.3 44.85 31.05 44.9 30.55 45.1 Q29.9 45.15 29.55 45.75 L29.45 46.25 Q23.65 45.0 19.15 42.0 L17.85 41.0 Q13.9 38.15 10.85 33.85 L8.6 30.3 Q5.45 24.55 3.95 17.4 L4.45 17.55 4.7 17.65 Z" fill="none" stroke="#000000" stroke-linecap="round" stroke-linejoin="round" stroke-opacity="0.2" stroke-width="1.5"/>
    </g>
    <g id="sprite35" transform="matrix(1.0, 0.0, 0.0, 1.0, 0.0, 0.0)">
      <use ffdec:characterId="38" height="48.25" transform="matrix(1.0, 0.0, 0.0, 1.0, 0.0, 0.0)" width="53.85" xlink:href="#shape2"/>
    </g>
    <g id="shape2" transform="matrix(1.0, 0.0, 0.0, 1.0, 0.0, 0.0)">
      <path d="M39.5 34.35 Q39.8 34.95 39.7 36.0 L39.55 37.35 39.55 37.25 Q39.25 39.6 37.55 42.35 L37.45 42.35 36.95 43.3 36.85 43.3 33.8 46.55 33.7 46.65 33.25 46.9 32.2 47.4 31.85 47.55 31.7 47.55 31.3 47.75 30.45 47.55 Q30.05 47.35 29.95 46.9 29.8 46.65 29.95 46.4 L30.05 46.1 30.75 45.55 31.15 45.5 31.45 45.35 32.45 44.75 32.4 44.75 34.1 43.25 35.1 42.05 35.1 42.0 35.6 41.25 Q37.05 38.85 37.35 36.95 L37.35 36.85 Q37.6 35.85 37.45 35.3 L37.35 35.1 36.95 34.35 Q36.85 33.85 37.2 33.6 37.45 33.2 37.95 33.1 38.3 33.1 38.7 33.45 L39.5 34.35 M45.15 38.5 Q45.6 38.6 45.65 39.2 L45.75 40.0 45.6 40.95 Q45.35 42.5 44.25 44.4 L43.9 44.9 43.85 45.0 43.75 45.15 42.1 47.0 41.5 47.4 40.6 48.0 39.85 48.25 39.1 48.15 38.55 47.4 38.55 47.15 38.7 46.65 Q38.95 46.25 39.35 46.1 L39.55 46.0 39.8 45.9 40.2 45.75 41.9 44.0 42.1 43.65 42.2 43.45 42.25 43.35 Q43.15 41.85 43.35 40.6 L43.45 40.6 43.5 39.65 Q43.35 39.2 43.6 38.85 43.85 38.4 44.35 38.35 44.75 38.25 45.15 38.5 M51.4 25.95 L51.0 26.5 50.4 26.5 49.9 26.3 49.85 25.55 49.9 25.45 Q49.6 25.55 49.4 25.8 L48.0 27.2 Q47.6 27.7 47.65 28.3 L47.75 28.85 47.85 28.75 48.35 28.7 Q48.65 28.7 48.9 29.0 L49.15 29.55 49.05 29.95 49.25 29.95 Q49.85 29.85 50.25 29.35 L51.65 27.95 52.1 26.95 52.1 26.9 Q52.1 26.3 51.65 25.8 L51.5 25.65 51.4 25.95 M49.0 17.7 L48.9 17.65 48.85 17.7 Q48.65 18.4 48.9 18.95 L49.65 20.75 Q50.0 21.4 50.55 21.55 L50.8 21.6 50.85 21.15 Q50.9 20.9 51.25 20.75 51.55 20.6 51.9 20.6 52.15 20.65 52.35 20.95 L52.35 21.05 52.65 20.6 Q52.9 20.05 52.55 19.4 L51.8 17.65 Q51.55 17.05 50.9 16.9 L50.85 16.9 50.3 16.8 50.4 17.3 50.15 17.8 49.55 18.05 49.0 17.7 M47.9 13.8 L47.9 13.9 49.55 15.8 Q50.4 15.55 51.3 15.8 52.35 16.25 52.8 17.15 L53.55 18.95 Q54.05 19.95 53.65 20.95 53.2 22.05 52.25 22.45 L51.8 24.55 52.4 25.05 Q53.2 25.8 53.2 26.9 53.2 27.95 52.4 28.75 L51.0 30.2 Q50.3 30.95 49.25 30.95 L48.15 30.8 47.1 31.6 47.25 32.0 Q48.15 33.6 47.5 35.3 L46.8 37.1 46.8 37.15 46.0 38.4 45.4 37.7 Q44.85 37.25 43.85 37.35 44.5 36.95 44.75 36.3 L45.4 34.5 Q45.75 33.75 45.4 33.1 L44.85 33.2 Q44.55 33.2 44.35 32.95 L44.1 32.35 Q44.1 32.0 44.35 31.8 L44.15 31.7 43.85 31.6 42.1 31.7 Q41.35 32.1 41.05 32.85 L40.45 34.75 40.25 35.05 40.25 34.85 Q39.95 33.8 39.1 33.2 L39.0 33.05 38.95 33.05 38.85 32.85 38.8 32.85 38.95 32.2 39.0 32.1 Q39.6 30.45 41.2 29.7 L44.55 29.55 44.95 29.7 46.0 30.3 46.9 29.6 Q46.5 29.0 46.5 28.3 46.5 27.2 47.2 26.45 L48.6 25.05 Q49.25 24.4 50.15 24.3 L50.55 22.7 50.15 22.55 Q49.15 22.15 48.65 21.15 L47.9 19.35 Q47.4 18.4 47.85 17.3 L48.15 16.7 47.0 15.4 46.75 15.55 46.6 15.55 44.6 15.85 42.75 15.4 Q41.65 15.15 41.1 14.25 L40.75 13.0 39.85 12.8 Q39.6 14.05 38.6 15.05 L38.6 15.15 Q37.35 16.4 35.5 16.4 L33.65 16.4 Q31.8 16.4 30.45 15.05 L29.75 14.25 Q28.5 15.15 25.9 15.9 21.65 17.15 15.6 17.15 9.55 17.15 5.3 15.9 L2.4 14.75 Q0.15 13.4 0.05 12.0 -0.1 11.25 0.3 10.75 0.6 10.15 1.4 10.1 1.95 9.9 2.55 10.35 3.1 10.65 3.2 11.4 L3.95 11.9 Q4.8 12.35 6.2 12.8 L6.2 12.75 Q10.1 13.9 15.6 13.9 21.1 13.9 25.0 12.75 L27.9 11.5 27.95 11.4 Q28.05 10.75 28.65 10.35 29.05 10.0 29.5 10.1 29.8 9.3 30.45 8.7 L30.55 8.6 Q31.8 7.4 33.65 7.4 L35.5 7.4 Q37.35 7.4 38.6 8.6 39.7 9.75 39.95 11.0 L41.1 11.35 42.0 10.5 Q42.9 9.9 44.0 10.15 L45.85 10.65 Q47.0 10.9 47.5 11.8 48.15 12.8 47.9 13.8 M46.1 14.55 L46.15 14.55 46.0 14.3 45.85 13.75 46.15 13.15 46.75 13.05 46.9 13.05 46.65 12.35 Q46.25 11.9 45.65 11.75 L43.75 11.25 42.6 11.4 42.5 11.5 42.35 11.65 Q42.7 11.75 42.9 12.05 L42.9 12.6 42.7 13.15 42.0 13.3 41.9 13.3 42.1 13.6 Q42.35 14.15 43.0 14.3 L44.85 14.75 46.1 14.55 M40.25 36.45 L43.15 38.5 43.15 38.55 Q42.85 39.0 43.0 39.75 L43.0 40.35 42.85 40.5 Q42.7 41.6 42.0 42.9 L41.65 43.3 41.65 43.45 41.5 43.65 39.85 45.25 39.6 45.4 Q39.5 45.4 39.35 45.55 L39.1 45.65 Q38.55 45.75 38.25 46.35 L38.0 47.15 35.75 47.1 34.2 47.0 37.2 43.85 37.35 43.65 37.95 42.75 38.0 42.65 Q39.6 39.95 40.1 37.55 L40.1 37.45 40.25 36.45 M44.15 45.55 L44.35 45.35 44.5 45.15 44.7 44.7 44.7 44.75 Q45.85 42.75 46.15 41.0 L45.6 40.95 46.15 40.95 46.15 40.9 46.25 40.35 48.6 41.5 Q54.65 43.45 51.5 45.65 L43.0 47.0 44.15 45.55 M21.4 7.6 L19.25 8.0 15.85 8.1 10.25 7.65 8.85 7.3 8.45 7.3 Q6.3 6.35 6.1 5.4 L6.1 5.25 Q6.1 4.2 8.85 3.4 11.6 2.5 15.6 2.5 19.45 2.5 22.35 3.4 25.05 4.2 25.15 5.25 L25.15 5.5 Q24.8 6.5 22.35 7.3 L21.4 7.6 M28.9 8.55 Q28.1 8.6 27.45 9.1 L27.55 9.0 Q26.65 9.55 26.25 10.5 L24.3 11.15 Q20.55 12.35 15.35 12.35 10.2 12.35 6.5 11.15 L6.05 11.15 4.65 10.55 4.45 10.5 Q4.1 9.55 3.3 9.1 L2.85 8.75 2.7 6.75 Q2.85 8.3 6.5 9.5 10.45 10.65 15.85 10.65 21.25 10.65 25.15 9.5 28.7 8.4 29.05 6.85 L28.9 8.55 M29.05 4.35 Q28.7 5.9 25.15 7.0 L23.25 7.5 Q25.8 6.6 26.05 5.4 L26.05 5.2 Q26.05 3.8 22.9 2.85 19.85 1.75 15.5 1.85 11.2 1.75 8.15 2.85 L8.2 2.85 Q5.05 3.8 5.1 5.2 L5.1 5.35 5.1 5.4 Q5.2 6.25 6.75 7.05 L6.5 7.0 Q2.85 5.85 2.7 4.35 L2.7 4.1 Q2.7 2.4 6.5 1.25 10.45 0.0 15.85 0.0 21.25 0.0 25.15 1.25 29.05 2.4 29.05 4.1 L29.05 4.35 M37.35 10.8 L37.45 10.75 37.05 10.15 Q36.45 9.55 35.5 9.55 L33.65 9.55 Q32.7 9.55 32.05 10.15 L32.05 10.25 Q31.4 10.9 31.4 11.75 L31.4 12.05 Q31.4 13.0 32.05 13.5 32.7 14.25 33.65 14.25 L35.5 14.25 Q36.45 14.25 37.05 13.6 L37.1 13.5 Q37.6 13.0 37.7 12.25 L37.55 12.2 37.1 11.9 Q36.85 11.55 36.95 11.15 37.0 10.9 37.35 10.8 M29.3 16.4 Q30.35 24.8 34.95 30.95 L36.85 33.2 36.75 33.25 Q36.3 33.75 36.35 34.35 36.45 34.95 37.0 35.5 L36.95 36.5 36.85 36.85 Q36.55 38.7 35.2 40.95 L35.1 41.0 34.65 41.75 34.65 41.85 33.65 42.9 33.55 42.9 Q30.45 41.85 27.0 39.6 L28.2 38.7 Q28.7 38.35 28.9 37.6 28.95 37.0 28.55 36.45 28.1 35.85 27.45 35.75 26.9 35.6 26.25 36.1 L24.2 37.45 Q21.55 35.2 19.45 32.55 L21.1 31.0 21.55 29.85 Q21.55 29.15 21.1 28.7 20.65 28.1 19.9 28.1 19.25 28.1 18.75 28.7 L17.5 29.8 Q16.25 27.7 15.35 25.35 L15.95 25.4 17.2 25.1 Q17.75 24.7 17.9 24.05 18.0 23.4 17.6 22.85 L16.5 22.15 14.0 21.8 13.3 18.8 15.35 18.9 Q21.65 18.9 26.15 17.55 L29.3 16.4 M4.7 17.65 Q8.3 18.65 13.1 18.8 L13.1 18.9 Q13.3 20.3 13.75 21.7 L13.3 21.6 Q12.7 21.45 12.1 21.9 11.6 22.3 11.45 22.95 11.25 23.65 11.75 24.2 L12.75 24.85 14.95 25.3 Q15.95 27.75 17.35 30.0 L16.0 31.25 Q15.5 31.7 15.5 32.45 15.5 33.1 16.0 33.6 16.4 34.05 17.2 34.05 L18.25 33.7 19.25 32.7 Q21.3 35.35 24.05 37.6 L23.15 38.35 Q22.5 38.7 22.4 39.4 22.25 40.0 22.75 40.65 23.15 41.2 23.75 41.25 L25.0 41.0 26.9 39.75 Q30.2 42.05 33.4 43.15 L32.05 44.4 32.05 44.5 31.3 44.85 31.05 44.9 30.55 45.1 Q29.9 45.15 29.55 45.75 L29.45 46.25 Q23.65 45.0 19.15 42.0 L17.85 41.0 Q13.9 38.15 10.85 33.85 L8.6 30.3 Q5.45 24.55 3.95 17.4 L4.45 17.55 4.7 17.65" fill="#000000" fill-rule="evenodd" stroke="none"/>
    </g>
  </defs>
</svg>
