<?xml version="1.0" encoding="UTF-8" standalone="no"?>
<svg xmlns:ffdec="https://www.free-decompiler.com/flash" xmlns:xlink="http://www.w3.org/1999/xlink" ffdec:objectType="frame" height="56.0px" width="56.0px" xmlns="http://www.w3.org/2000/svg">
  <g transform="matrix(1.0, 0.0, 0.0, 1.0, 0.0, 0.0)">
    <use ffdec:characterId="20" ffdec:characterName="19_fla.Symbole57_1" height="56.0" id="back" transform="matrix(1.0, 0.0, 0.0, 1.0, 0.0, 0.0)" width="56.0" xlink:href="#sprite0"/>
    <use ffdec:characterId="22" height="55.55" id="back" transform="matrix(1.0, 0.0, 0.0, 1.0, 1.0, 0.45)" width="54.15" xlink:href="#sprite19"/>
    <use ffdec:characterId="24" height="54.05" id="up" transform="matrix(1.0, 0.0, 0.0, 1.0, 1.75, 1.2)" width="52.65" xlink:href="#sprite20"/>
  </g>
  <defs>
    <g id="sprite0" transform="matrix(1.0, 0.0, 0.0, 1.0, 0.0, 0.0)">
      <use ffdec:characterId="19" ffdec:characterName="19_fla.Symbole54_2" height="56.0" id="back" transform="matrix(1.0, 0.0, 0.0, 1.0, 0.0, 0.0)" width="56.0" xlink:href="#sprite1"/>
    </g>
    <g id="sprite1" transform="matrix(1.0, 0.0, 0.0, 1.0, 0.0, 0.0)">
      <use ffdec:characterId="18" ffdec:characterName="19_fla.Symbole51_3" height="56.0" id="back" transform="matrix(1.0, 0.0, 0.0, 1.0, 0.0, 0.0)" width="56.0" xlink:href="#sprite2"/>
    </g>
    <g id="sprite2" transform="matrix(1.0, 0.0, 0.0, 1.0, 0.0, 0.0)">
      <use ffdec:characterId="17" ffdec:characterName="19_fla.Symbole48_4" height="56.0" id="back" transform="matrix(1.0, 0.0, 0.0, 1.0, 0.0, 0.0)" width="56.0" xlink:href="#sprite3"/>
    </g>
    <g id="sprite3" transform="matrix(1.0, 0.0, 0.0, 1.0, 0.0, 0.0)">
      <use ffdec:characterId="16" ffdec:characterName="19_fla.Symbole45_5" height="56.0" id="back" transform="matrix(1.0, 0.0, 0.0, 1.0, 0.0, 0.0)" width="56.0" xlink:href="#sprite4"/>
    </g>
    <g id="sprite4" transform="matrix(1.0, 0.0, 0.0, 1.0, 0.0, 0.0)">
      <use ffdec:characterId="15" ffdec:characterName="19_fla.Symbole42_6" height="56.0" id="back" transform="matrix(1.0, 0.0, 0.0, 1.0, 0.0, 0.0)" width="56.0" xlink:href="#sprite5"/>
    </g>
    <g id="sprite5" transform="matrix(1.0, 0.0, 0.0, 1.0, 0.0, 0.0)">
      <use ffdec:characterId="14" ffdec:characterName="19_fla.Symbole39_7" height="56.0" id="back" transform="matrix(1.0, 0.0, 0.0, 1.0, 0.0, 0.0)" width="56.0" xlink:href="#sprite6"/>
    </g>
    <g id="sprite6" transform="matrix(1.0, 0.0, 0.0, 1.0, 0.0, 0.0)">
      <use ffdec:characterId="13" ffdec:characterName="19_fla.Symbole36_8" height="56.0" id="back" transform="matrix(1.0, 0.0, 0.0, 1.0, 0.0, 0.0)" width="56.0" xlink:href="#sprite7"/>
    </g>
    <g id="sprite7" transform="matrix(1.0, 0.0, 0.0, 1.0, 0.0, 0.0)">
      <use ffdec:characterId="12" ffdec:characterName="19_fla.Symbole33_9" height="56.0" id="back" transform="matrix(1.0, 0.0, 0.0, 1.0, 0.0, 0.0)" width="56.0" xlink:href="#sprite8"/>
    </g>
    <g id="sprite8" transform="matrix(1.0, 0.0, 0.0, 1.0, 0.0, 0.0)">
      <use ffdec:characterId="11" ffdec:characterName="19_fla.Symbole30_10" height="56.0" id="back" transform="matrix(1.0, 0.0, 0.0, 1.0, 0.0, 0.0)" width="56.0" xlink:href="#sprite9"/>
    </g>
    <g id="sprite9" transform="matrix(1.0, 0.0, 0.0, 1.0, 0.0, 0.0)">
      <use ffdec:characterId="10" ffdec:characterName="19_fla.Symbole27_11" height="56.0" id="back" transform="matrix(1.0, 0.0, 0.0, 1.0, 0.0, 0.0)" width="56.0" xlink:href="#sprite10"/>
    </g>
    <g id="sprite10" transform="matrix(1.0, 0.0, 0.0, 1.0, 0.0, 0.0)">
      <use ffdec:characterId="9" ffdec:characterName="19_fla.Symbole24_12" height="56.0" id="back" transform="matrix(1.0, 0.0, 0.0, 1.0, 0.0, 0.0)" width="56.0" xlink:href="#sprite11"/>
    </g>
    <g id="sprite11" transform="matrix(1.0, 0.0, 0.0, 1.0, 0.0, 0.0)">
      <use ffdec:characterId="8" ffdec:characterName="19_fla.Symbole21_13" height="56.0" id="back" transform="matrix(1.0, 0.0, 0.0, 1.0, 0.0, 0.0)" width="56.0" xlink:href="#sprite12"/>
    </g>
    <g id="sprite12" transform="matrix(1.0, 0.0, 0.0, 1.0, 0.0, 0.0)">
      <use ffdec:characterId="7" ffdec:characterName="19_fla.Symbole18_14" height="56.0" id="back" transform="matrix(1.0, 0.0, 0.0, 1.0, 0.0, 0.0)" width="56.0" xlink:href="#sprite13"/>
    </g>
    <g id="sprite13" transform="matrix(1.0, 0.0, 0.0, 1.0, 0.0, 0.0)">
      <use ffdec:characterId="6" ffdec:characterName="19_fla.Symbole15_15" height="56.0" id="back" transform="matrix(1.0, 0.0, 0.0, 1.0, 0.0, 0.0)" width="56.0" xlink:href="#sprite14"/>
    </g>
    <g id="sprite14" transform="matrix(1.0, 0.0, 0.0, 1.0, 0.0, 0.0)">
      <use ffdec:characterId="5" ffdec:characterName="19_fla.Symbole12_16" height="56.0" id="back" transform="matrix(1.0, 0.0, 0.0, 1.0, 0.0, 0.0)" width="56.0" xlink:href="#sprite15"/>
    </g>
    <g id="sprite15" transform="matrix(1.0, 0.0, 0.0, 1.0, 0.0, 0.0)">
      <use ffdec:characterId="4" ffdec:characterName="19_fla.Symbole9_17" height="56.0" id="back" transform="matrix(1.0, 0.0, 0.0, 1.0, 0.0, 0.0)" width="56.0" xlink:href="#sprite16"/>
    </g>
    <g id="sprite16" transform="matrix(1.0, 0.0, 0.0, 1.0, 0.0, 0.0)">
      <use ffdec:characterId="3" ffdec:characterName="19_fla.Symbole6_18" height="56.0" id="back" transform="matrix(1.0, 0.0, 0.0, 1.0, 0.0, 0.0)" width="56.0" xlink:href="#sprite17"/>
    </g>
    <g id="sprite17" transform="matrix(1.0, 0.0, 0.0, 1.0, 0.0, 0.0)">
      <use ffdec:characterId="2" height="56.0" id="back" transform="matrix(1.0, 0.0, 0.0, 1.0, 0.0, 0.0)" width="56.0" xlink:href="#sprite18"/>
    </g>
    <g id="sprite18" transform="matrix(1.0, 0.0, 0.0, 1.0, 0.0, 0.0)">
      <use ffdec:characterId="1" height="56.0" transform="matrix(1.0, 0.0, 0.0, 1.0, 0.0, 0.0)" width="56.0" xlink:href="#shape0"/>
    </g>
    <g id="shape0" transform="matrix(1.0, 0.0, 0.0, 1.0, 0.0, 0.0)">
      <path d="M56.0 56.0 L0.0 56.0 0.0 0.0 56.0 0.0 56.0 56.0" fill="#010101" fill-opacity="0.0" fill-rule="evenodd" stroke="none"/>
    </g>
    <g id="sprite19" transform="matrix(1.0, 0.0, 0.0, 1.0, 0.75, 0.75)">
      <use ffdec:characterId="21" height="55.55" transform="matrix(1.0, 0.0, 0.0, 1.0, -0.75, -0.75)" width="54.15" xlink:href="#shape1"/>
    </g>
    <g id="shape1" transform="matrix(1.0, 0.0, 0.0, 1.0, 0.75, 0.75)">
      <path d="M42.0 20.05 L40.55 19.9 Q32.95 19.9 30.65 20.05 L29.2 20.4 Q28.95 20.5 28.7 21.3 L26.45 26.65 Q25.75 28.2 25.2 26.65 L23.3 20.7 Q23.1 19.8 22.45 19.6 22.15 19.45 21.35 19.6 L14.0 20.2 Q12.7 20.2 13.85 21.3 15.5 22.95 17.2 25.75 L20.75 32.75 Q23.3 37.95 21.0 42.85 18.9 47.3 14.15 48.95 10.2 50.2 6.45 48.6 3.25 47.15 0.95 44.1 0.1 43.05 0.05 42.45 -0.15 41.45 0.3 39.45 2.4 31.4 2.6 24.45 L2.45 19.65 Q2.15 17.65 1.2 16.65 0.05 15.15 0.1 13.3 0.25 11.4 1.95 10.45 3.7 9.3 5.6 10.45 7.45 11.4 7.45 13.05 7.45 15.35 9.15 15.15 L14.6 14.55 20.1 14.4 Q22.0 14.3 21.85 12.6 L20.75 6.7 Q20.3 3.95 22.4 1.85 24.15 -0.1 26.7 0.0 31.3 0.15 32.3 4.45 32.95 7.4 31.3 12.7 30.65 15.15 34.0 14.8 35.45 14.55 44.3 14.7 L45.15 14.5 45.45 13.75 Q45.9 12.25 47.7 11.8 49.45 11.35 50.95 12.4 52.15 13.05 52.55 14.55 52.95 16.2 51.55 18.1 50.2 19.9 48.4 20.2 47.3 20.4 48.1 22.75 50.85 30.0 50.05 36.45 49.4 41.85 45.9 48.1 42.85 53.6 37.65 54.05 32.8 54.3 28.3 50.4 24.1 46.7 24.5 40.9 24.7 38.25 25.8 36.3 27.0 34.15 28.95 33.2 34.0 30.8 36.5 28.9 40.3 25.75 42.1 21.7 42.5 20.4 42.0 20.05 M45.8 30.65 Q45.35 30.65 45.0 32.15 43.9 35.4 42.4 38.0 L38.6 43.45 Q38.0 44.3 38.85 45.15 L40.75 46.65 41.35 47.15 42.4 46.25 Q44.55 43.65 45.6 39.95 46.7 35.95 46.25 32.3 46.1 30.6 45.8 30.65 M39.8 30.95 L36.35 33.95 32.7 36.1 Q31.9 36.35 31.75 36.9 31.55 37.35 32.1 37.8 L33.6 39.5 34.5 40.3 35.45 39.7 Q37.05 38.7 38.7 36.3 40.55 33.6 40.95 31.4 41.15 30.15 40.8 30.15 40.4 30.0 39.8 30.95 M29.0 3.35 Q27.9 2.3 26.6 2.45 25.2 2.5 24.3 3.5 23.2 4.45 23.2 6.3 23.2 7.35 24.15 8.4 25.2 9.45 26.6 9.5 28.2 9.65 29.35 8.4 30.25 7.2 30.25 5.7 30.2 4.35 29.0 3.35 M10.4 24.3 Q10.05 24.3 10.55 25.15 L12.05 30.2 13.15 35.5 Q13.3 36.15 13.6 36.3 L14.35 36.15 16.6 35.05 17.2 34.45 16.9 33.35 Q14.85 28.3 11.6 25.1 10.8 24.05 10.4 24.3 M6.15 26.8 L5.8 32.45 5.0 37.8 Q4.25 39.85 5.75 39.65 7.3 39.3 8.75 38.45 L9.3 37.95 9.3 37.0 8.55 31.85 Q7.75 27.4 7.2 26.2 6.8 25.15 6.45 25.4 6.0 25.45 6.15 26.8 Z" fill="none" stroke="#000000" stroke-linecap="round" stroke-linejoin="round" stroke-opacity="0.2" stroke-width="1.5"/>
    </g>
    <g id="sprite20" transform="matrix(1.0, 0.0, 0.0, 1.0, 0.0, 0.0)">
      <use ffdec:characterId="23" height="54.05" transform="matrix(1.0, 0.0, 0.0, 1.0, 0.0, 0.0)" width="52.65" xlink:href="#shape2"/>
    </g>
    <g id="shape2" transform="matrix(1.0, 0.0, 0.0, 1.0, 0.0, 0.0)">
      <path d="M42.0 20.05 L40.55 19.9 Q32.95 19.9 30.65 20.05 L29.2 20.4 Q28.95 20.5 28.7 21.3 L26.45 26.65 Q25.75 28.2 25.2 26.65 L23.3 20.7 Q23.1 19.8 22.45 19.6 22.15 19.45 21.35 19.6 L14.0 20.2 Q12.7 20.2 13.85 21.3 15.5 22.95 17.2 25.75 L20.75 32.75 Q23.3 37.95 21.0 42.85 18.9 47.3 14.15 48.95 10.2 50.2 6.45 48.6 3.25 47.15 0.95 44.1 0.1 43.05 0.05 42.45 -0.15 41.45 0.3 39.45 2.4 31.4 2.6 24.45 L2.45 19.65 Q2.15 17.65 1.2 16.65 0.05 15.15 0.1 13.3 0.25 11.4 1.95 10.45 3.7 9.3 5.6 10.45 7.45 11.4 7.45 13.05 7.45 15.35 9.15 15.15 L14.6 14.55 20.1 14.4 Q22.0 14.3 21.85 12.6 L20.75 6.7 Q20.3 3.95 22.4 1.85 24.15 -0.1 26.7 0.0 31.3 0.15 32.3 4.45 32.95 7.4 31.3 12.7 30.65 15.15 34.0 14.8 35.45 14.55 44.3 14.7 L45.15 14.5 45.45 13.75 Q45.9 12.25 47.7 11.8 49.45 11.35 50.95 12.4 52.15 13.05 52.55 14.55 52.95 16.2 51.55 18.1 50.2 19.9 48.4 20.2 47.3 20.4 48.1 22.75 50.85 30.0 50.05 36.45 49.4 41.85 45.9 48.1 42.85 53.6 37.65 54.05 32.8 54.3 28.3 50.4 24.1 46.7 24.5 40.9 24.7 38.25 25.8 36.3 27.0 34.15 28.95 33.2 34.0 30.8 36.5 28.9 40.3 25.75 42.1 21.7 42.5 20.4 42.0 20.05 M40.8 30.15 Q40.4 30.0 39.8 30.95 L36.35 33.95 32.7 36.1 Q31.9 36.35 31.75 36.9 31.55 37.35 32.1 37.8 L33.6 39.5 34.5 40.3 35.45 39.7 Q37.05 38.7 38.7 36.3 40.55 33.6 40.95 31.4 41.15 30.15 40.8 30.15 M45.8 30.65 Q45.35 30.65 45.0 32.15 43.9 35.4 42.4 38.0 L38.6 43.45 Q38.0 44.3 38.85 45.15 L40.75 46.65 41.35 47.15 42.4 46.25 Q44.55 43.65 45.6 39.95 46.7 35.95 46.25 32.3 46.1 30.6 45.8 30.65 M29.0 3.35 Q27.9 2.3 26.6 2.45 25.2 2.5 24.3 3.5 23.2 4.45 23.2 6.3 23.2 7.35 24.15 8.4 25.2 9.45 26.6 9.5 28.2 9.65 29.35 8.4 30.25 7.2 30.25 5.7 30.2 4.35 29.0 3.35 M10.4 24.3 Q10.05 24.3 10.55 25.15 L12.05 30.2 13.15 35.5 Q13.3 36.15 13.6 36.3 L14.35 36.15 16.6 35.05 17.2 34.45 16.9 33.35 Q14.85 28.3 11.6 25.1 10.8 24.05 10.4 24.3 M6.15 26.8 L5.8 32.45 5.0 37.8 Q4.25 39.85 5.75 39.65 7.3 39.3 8.75 38.45 L9.3 37.95 9.3 37.0 8.55 31.85 Q7.75 27.4 7.2 26.2 6.8 25.15 6.45 25.4 6.0 25.45 6.15 26.8" fill="#000000" fill-rule="evenodd" stroke="none"/>
    </g>
  </defs>
</svg>
