<?xml version="1.0" encoding="UTF-8" standalone="no"?>
<svg xmlns:ffdec="https://www.free-decompiler.com/flash" xmlns:xlink="http://www.w3.org/1999/xlink" ffdec:objectType="frame" height="56.0px" width="56.0px" xmlns="http://www.w3.org/2000/svg">
  <g transform="matrix(1.0, 0.0, 0.0, 1.0, 0.0, 0.0)">
    <use ffdec:characterId="36" ffdec:characterName="190_fla.Symbole291_1" height="56.0" id="back" transform="matrix(1.0, 0.0, 0.0, 1.0, 0.0, 0.0)" width="56.0" xlink:href="#sprite0"/>
    <use ffdec:characterId="38" height="55.25" id="back" transform="matrix(1.0, 0.0, 0.0, 1.0, 1.35, 0.3)" width="53.05" xlink:href="#sprite35"/>
    <use ffdec:characterId="40" height="53.75" id="up" transform="matrix(1.0, 0.0, 0.0, 1.0, 2.1, 1.05)" width="51.55" xlink:href="#sprite36"/>
  </g>
  <defs>
    <g id="sprite0" transform="matrix(1.0, 0.0, 0.0, 1.0, 0.0, 0.0)">
      <use ffdec:characterId="35" ffdec:characterName="190_fla.Symbole288_2" height="56.0" id="back" transform="matrix(1.0, 0.0, 0.0, 1.0, 0.0, 0.0)" width="56.0" xlink:href="#sprite1"/>
    </g>
    <g id="sprite1" transform="matrix(1.0, 0.0, 0.0, 1.0, 0.0, 0.0)">
      <use ffdec:characterId="34" ffdec:characterName="190_fla.Symbole285_3" height="56.0" id="back" transform="matrix(1.0, 0.0, 0.0, 1.0, 0.0, 0.0)" width="56.0" xlink:href="#sprite2"/>
    </g>
    <g id="sprite2" transform="matrix(1.0, 0.0, 0.0, 1.0, 0.0, 0.0)">
      <use ffdec:characterId="33" ffdec:characterName="190_fla.Symbole282_4" height="56.0" id="back" transform="matrix(1.0, 0.0, 0.0, 1.0, 0.0, 0.0)" width="56.0" xlink:href="#sprite3"/>
    </g>
    <g id="sprite3" transform="matrix(1.0, 0.0, 0.0, 1.0, 0.0, 0.0)">
      <use ffdec:characterId="32" ffdec:characterName="190_fla.Symbole279_5" height="56.0" id="back" transform="matrix(1.0, 0.0, 0.0, 1.0, 0.0, 0.0)" width="56.0" xlink:href="#sprite4"/>
    </g>
    <g id="sprite4" transform="matrix(1.0, 0.0, 0.0, 1.0, 0.0, 0.0)">
      <use ffdec:characterId="31" ffdec:characterName="190_fla.Symbole276_6" height="56.0" id="back" transform="matrix(1.0, 0.0, 0.0, 1.0, 0.0, 0.0)" width="56.0" xlink:href="#sprite5"/>
    </g>
    <g id="sprite5" transform="matrix(1.0, 0.0, 0.0, 1.0, 0.0, 0.0)">
      <use ffdec:characterId="30" ffdec:characterName="190_fla.Symbole273_7" height="56.0" id="back" transform="matrix(1.0, 0.0, 0.0, 1.0, 0.0, 0.0)" width="56.0" xlink:href="#sprite6"/>
    </g>
    <g id="sprite6" transform="matrix(1.0, 0.0, 0.0, 1.0, 0.0, 0.0)">
      <use ffdec:characterId="29" ffdec:characterName="190_fla.Symbole270_8" height="56.0" id="back" transform="matrix(1.0, 0.0, 0.0, 1.0, 0.0, 0.0)" width="56.0" xlink:href="#sprite7"/>
    </g>
    <g id="sprite7" transform="matrix(1.0, 0.0, 0.0, 1.0, 0.0, 0.0)">
      <use ffdec:characterId="28" ffdec:characterName="190_fla.Symbole267_9" height="56.0" id="back" transform="matrix(1.0, 0.0, 0.0, 1.0, 0.0, 0.0)" width="56.0" xlink:href="#sprite8"/>
    </g>
    <g id="sprite8" transform="matrix(1.0, 0.0, 0.0, 1.0, 0.0, 0.0)">
      <use ffdec:characterId="27" ffdec:characterName="190_fla.Symbole264_10" height="56.0" id="back" transform="matrix(1.0, 0.0, 0.0, 1.0, 0.0, 0.0)" width="56.0" xlink:href="#sprite9"/>
    </g>
    <g id="sprite9" transform="matrix(1.0, 0.0, 0.0, 1.0, 0.0, 0.0)">
      <use ffdec:characterId="26" ffdec:characterName="190_fla.Symbole261_11" height="56.0" id="back" transform="matrix(1.0, 0.0, 0.0, 1.0, 0.0, 0.0)" width="56.0" xlink:href="#sprite10"/>
    </g>
    <g id="sprite10" transform="matrix(1.0, 0.0, 0.0, 1.0, 0.0, 0.0)">
      <use ffdec:characterId="25" ffdec:characterName="190_fla.Symbole258_12" height="56.0" id="back" transform="matrix(1.0, 0.0, 0.0, 1.0, 0.0, 0.0)" width="56.0" xlink:href="#sprite11"/>
    </g>
    <g id="sprite11" transform="matrix(1.0, 0.0, 0.0, 1.0, 0.0, 0.0)">
      <use ffdec:characterId="24" ffdec:characterName="190_fla.Symbole255_13" height="56.0" id="back" transform="matrix(1.0, 0.0, 0.0, 1.0, 0.0, 0.0)" width="56.0" xlink:href="#sprite12"/>
    </g>
    <g id="sprite12" transform="matrix(1.0, 0.0, 0.0, 1.0, 0.0, 0.0)">
      <use ffdec:characterId="23" ffdec:characterName="190_fla.Symbole252_14" height="56.0" id="back" transform="matrix(1.0, 0.0, 0.0, 1.0, 0.0, 0.0)" width="56.0" xlink:href="#sprite13"/>
    </g>
    <g id="sprite13" transform="matrix(1.0, 0.0, 0.0, 1.0, 0.0, 0.0)">
      <use ffdec:characterId="22" ffdec:characterName="190_fla.Symbole249_15" height="56.0" id="back" transform="matrix(1.0, 0.0, 0.0, 1.0, 0.0, 0.0)" width="56.0" xlink:href="#sprite14"/>
    </g>
    <g id="sprite14" transform="matrix(1.0, 0.0, 0.0, 1.0, 0.0, 0.0)">
      <use ffdec:characterId="21" ffdec:characterName="190_fla.Symbole246_16" height="56.0" id="back" transform="matrix(1.0, 0.0, 0.0, 1.0, 0.0, 0.0)" width="56.0" xlink:href="#sprite15"/>
    </g>
    <g id="sprite15" transform="matrix(1.0, 0.0, 0.0, 1.0, 0.0, 0.0)">
      <use ffdec:characterId="20" ffdec:characterName="190_fla.Symbole243_17" height="56.0" id="back" transform="matrix(1.0, 0.0, 0.0, 1.0, 0.0, 0.0)" width="56.0" xlink:href="#sprite16"/>
    </g>
    <g id="sprite16" transform="matrix(1.0, 0.0, 0.0, 1.0, 0.0, 0.0)">
      <use ffdec:characterId="19" ffdec:characterName="190_fla.Symbole240_18" height="56.0" id="back" transform="matrix(1.0, 0.0, 0.0, 1.0, 0.0, 0.0)" width="56.0" xlink:href="#sprite17"/>
    </g>
    <g id="sprite17" transform="matrix(1.0, 0.0, 0.0, 1.0, 0.0, 0.0)">
      <use ffdec:characterId="18" ffdec:characterName="190_fla.Symbole237_19" height="56.0" id="back" transform="matrix(1.0, 0.0, 0.0, 1.0, 0.0, 0.0)" width="56.0" xlink:href="#sprite18"/>
    </g>
    <g id="sprite18" transform="matrix(1.0, 0.0, 0.0, 1.0, 0.0, 0.0)">
      <use ffdec:characterId="17" ffdec:characterName="190_fla.Symbole234_20" height="56.0" id="back" transform="matrix(1.0, 0.0, 0.0, 1.0, 0.0, 0.0)" width="56.0" xlink:href="#sprite19"/>
    </g>
    <g id="sprite19" transform="matrix(1.0, 0.0, 0.0, 1.0, 0.0, 0.0)">
      <use ffdec:characterId="16" ffdec:characterName="190_fla.Symbole231_21" height="56.0" id="back" transform="matrix(1.0, 0.0, 0.0, 1.0, 0.0, 0.0)" width="56.0" xlink:href="#sprite20"/>
    </g>
    <g id="sprite20" transform="matrix(1.0, 0.0, 0.0, 1.0, 0.0, 0.0)">
      <use ffdec:characterId="15" ffdec:characterName="190_fla.Symbole228_22" height="56.0" id="back" transform="matrix(1.0, 0.0, 0.0, 1.0, 0.0, 0.0)" width="56.0" xlink:href="#sprite21"/>
    </g>
    <g id="sprite21" transform="matrix(1.0, 0.0, 0.0, 1.0, 0.0, 0.0)">
      <use ffdec:characterId="14" ffdec:characterName="190_fla.Symbole225_23" height="56.0" id="back" transform="matrix(1.0, 0.0, 0.0, 1.0, 0.0, 0.0)" width="56.0" xlink:href="#sprite22"/>
    </g>
    <g id="sprite22" transform="matrix(1.0, 0.0, 0.0, 1.0, 0.0, 0.0)">
      <use ffdec:characterId="13" ffdec:characterName="190_fla.Symbole222_24" height="56.0" id="back" transform="matrix(1.0, 0.0, 0.0, 1.0, 0.0, 0.0)" width="56.0" xlink:href="#sprite23"/>
    </g>
    <g id="sprite23" transform="matrix(1.0, 0.0, 0.0, 1.0, 0.0, 0.0)">
      <use ffdec:characterId="12" ffdec:characterName="190_fla.Symbole219_25" height="56.0" id="back" transform="matrix(1.0, 0.0, 0.0, 1.0, 0.0, 0.0)" width="56.0" xlink:href="#sprite24"/>
    </g>
    <g id="sprite24" transform="matrix(1.0, 0.0, 0.0, 1.0, 0.0, 0.0)">
      <use ffdec:characterId="11" ffdec:characterName="190_fla.Symbole216_26" height="56.0" id="back" transform="matrix(1.0, 0.0, 0.0, 1.0, 0.0, 0.0)" width="56.0" xlink:href="#sprite25"/>
    </g>
    <g id="sprite25" transform="matrix(1.0, 0.0, 0.0, 1.0, 0.0, 0.0)">
      <use ffdec:characterId="10" ffdec:characterName="190_fla.Symbole213_27" height="56.0" id="back" transform="matrix(1.0, 0.0, 0.0, 1.0, 0.0, 0.0)" width="56.0" xlink:href="#sprite26"/>
    </g>
    <g id="sprite26" transform="matrix(1.0, 0.0, 0.0, 1.0, 0.0, 0.0)">
      <use ffdec:characterId="9" ffdec:characterName="190_fla.Symbole210_28" height="56.0" id="back" transform="matrix(1.0, 0.0, 0.0, 1.0, 0.0, 0.0)" width="56.0" xlink:href="#sprite27"/>
    </g>
    <g id="sprite27" transform="matrix(1.0, 0.0, 0.0, 1.0, 0.0, 0.0)">
      <use ffdec:characterId="8" ffdec:characterName="190_fla.Symbole207_29" height="56.0" id="back" transform="matrix(1.0, 0.0, 0.0, 1.0, 0.0, 0.0)" width="56.0" xlink:href="#sprite28"/>
    </g>
    <g id="sprite28" transform="matrix(1.0, 0.0, 0.0, 1.0, 0.0, 0.0)">
      <use ffdec:characterId="7" ffdec:characterName="190_fla.Symbole204_30" height="56.0" id="back" transform="matrix(1.0, 0.0, 0.0, 1.0, 0.0, 0.0)" width="56.0" xlink:href="#sprite29"/>
    </g>
    <g id="sprite29" transform="matrix(1.0, 0.0, 0.0, 1.0, 0.0, 0.0)">
      <use ffdec:characterId="6" ffdec:characterName="190_fla.Symbole201_31" height="56.0" id="back" transform="matrix(1.0, 0.0, 0.0, 1.0, 0.0, 0.0)" width="56.0" xlink:href="#sprite30"/>
    </g>
    <g id="sprite30" transform="matrix(1.0, 0.0, 0.0, 1.0, 0.0, 0.0)">
      <use ffdec:characterId="5" ffdec:characterName="190_fla.Symbole198_32" height="56.0" id="back" transform="matrix(1.0, 0.0, 0.0, 1.0, 0.0, 0.0)" width="56.0" xlink:href="#sprite31"/>
    </g>
    <g id="sprite31" transform="matrix(1.0, 0.0, 0.0, 1.0, 0.0, 0.0)">
      <use ffdec:characterId="4" ffdec:characterName="190_fla.Symbole195_33" height="56.0" id="back" transform="matrix(1.0, 0.0, 0.0, 1.0, 0.0, 0.0)" width="56.0" xlink:href="#sprite32"/>
    </g>
    <g id="sprite32" transform="matrix(1.0, 0.0, 0.0, 1.0, 0.0, 0.0)">
      <use ffdec:characterId="3" ffdec:characterName="190_fla.Symbole192_34" height="56.0" id="back" transform="matrix(1.0, 0.0, 0.0, 1.0, 0.0, 0.0)" width="56.0" xlink:href="#sprite33"/>
    </g>
    <g id="sprite33" transform="matrix(1.0, 0.0, 0.0, 1.0, 0.0, 0.0)">
      <use ffdec:characterId="2" height="56.0" id="back" transform="matrix(1.0, 0.0, 0.0, 1.0, 0.0, 0.0)" width="56.0" xlink:href="#sprite34"/>
    </g>
    <g id="sprite34" transform="matrix(1.0, 0.0, 0.0, 1.0, 0.0, 0.0)">
      <use ffdec:characterId="1" height="56.0" transform="matrix(1.0, 0.0, 0.0, 1.0, 0.0, 0.0)" width="56.0" xlink:href="#shape0"/>
    </g>
    <g id="shape0" transform="matrix(1.0, 0.0, 0.0, 1.0, 0.0, 0.0)">
      <path d="M56.0 56.0 L0.0 56.0 0.0 0.0 56.0 0.0 56.0 56.0" fill="#010101" fill-opacity="0.0" fill-rule="evenodd" stroke="none"/>
    </g>
    <g id="sprite35" transform="matrix(1.0, 0.0, 0.0, 1.0, 0.75, 0.75)">
      <use ffdec:characterId="37" height="55.25" transform="matrix(1.0, 0.0, 0.0, 1.0, -0.75, -0.75)" width="53.05" xlink:href="#shape1"/>
    </g>
    <g id="shape1" transform="matrix(1.0, 0.0, 0.0, 1.0, 0.75, 0.75)">
      <path d="M39.6 23.35 Q39.3 23.7 38.85 23.7 38.25 23.8 37.9 23.4 37.5 23.1 37.5 22.45 37.5 22.05 37.8 21.7 38.2 21.3 38.7 21.2 L39.6 21.7 40.0 22.45 39.6 23.35 M50.65 17.15 L47.85 19.8 Q43.4 23.0 38.9 18.4 L34.8 22.75 Q40.0 27.15 37.0 31.75 35.55 34.2 32.95 35.6 46.85 35.0 50.35 24.55 51.55 21.2 51.55 17.4 L51.4 16.05 50.65 17.15 M33.1 0.8 L34.2 0.0 32.9 0.0 Q29.0 0.25 25.8 1.45 15.6 5.75 15.9 19.55 17.2 17.0 19.3 15.3 23.8 12.0 28.55 16.9 L32.65 12.55 Q27.85 8.4 30.65 3.65 31.5 2.2 33.1 0.8 M27.3 22.25 L29.8 24.6 Q30.65 25.35 31.35 24.6 L37.5 18.0 Q38.25 17.3 37.45 16.55 L34.95 14.2 Q34.2 13.5 33.5 14.2 L27.3 20.8 Q26.6 21.55 27.3 22.25 M25.65 22.95 L29.55 26.6 29.4 26.6 26.8 29.8 26.65 29.65 11.0 47.9 10.9 47.9 10.8 47.8 10.3 47.8 Q7.15 46.65 5.8 43.65 L5.6 43.15 5.6 42.75 22.75 26.0 22.6 25.9 25.65 23.1 25.65 22.95 M27.1 12.4 Q27.1 11.95 27.35 11.55 27.75 11.2 28.3 11.15 28.75 11.15 29.15 11.45 L29.6 12.3 29.15 13.2 Q28.85 13.55 28.45 13.55 27.9 13.65 27.45 13.25 27.1 12.85 27.1 12.4 M34.95 16.7 Q35.45 17.25 35.55 17.95 35.45 18.75 34.95 19.35 34.45 19.8 33.75 19.8 32.9 19.9 32.35 19.4 31.9 18.9 31.9 18.1 31.7 17.35 32.25 16.85 32.75 16.25 33.6 16.15 34.45 16.15 34.95 16.7 M3.45 42.2 L2.95 42.85 Q2.8 43.2 2.95 43.6 L3.1 44.4 3.25 44.45 3.4 44.85 Q5.15 48.7 9.05 50.15 L9.55 50.3 9.65 50.3 10.2 50.45 11.0 50.4 11.6 49.7 11.55 49.0 Q11.3 48.55 10.8 48.5 10.8 48.35 10.6 48.35 L10.05 48.25 Q6.6 47.1 5.2 43.7 L5.0 43.2 4.85 42.85 Q4.7 42.4 4.35 42.25 L3.45 42.2 M0.5 47.6 Q0.75 47.3 0.85 47.3 L3.1 45.15 Q4.85 49.0 8.75 50.55 L6.75 52.9 6.45 53.1 5.75 53.5 4.85 53.75 3.0 53.25 1.9 52.35 1.6 52.1 1.7 52.1 0.7 50.95 0.0 49.3 0.2 48.35 0.5 47.6 Z" fill="none" stroke="#000000" stroke-linecap="round" stroke-linejoin="round" stroke-opacity="0.2" stroke-width="1.5"/>
    </g>
    <g id="sprite36" transform="matrix(1.0, 0.0, 0.0, 1.0, 0.0, 0.0)">
      <use ffdec:characterId="39" height="53.75" transform="matrix(1.0, 0.0, 0.0, 1.0, 0.0, 0.0)" width="51.55" xlink:href="#shape2"/>
    </g>
    <g id="shape2" transform="matrix(1.0, 0.0, 0.0, 1.0, 0.0, 0.0)">
      <path d="M27.4 11.55 Q27.1 11.9 27.1 12.35 27.1 12.9 27.45 13.25 27.9 13.6 28.4 13.55 28.85 13.55 29.15 13.15 L29.6 12.3 Q29.6 11.85 29.15 11.5 28.8 11.1 28.25 11.1 27.75 11.2 27.4 11.55 M32.9 0.0 L34.2 0.0 33.1 0.8 Q31.5 2.2 30.6 3.65 27.85 8.4 32.65 12.5 L28.55 16.9 Q23.8 12.0 19.3 15.3 17.2 17.0 15.85 19.55 15.55 5.75 25.75 1.45 29.0 0.2 32.9 0.0 M50.65 17.1 L51.4 16.05 51.55 17.4 Q51.55 21.25 50.35 24.5 46.85 35.0 32.95 35.6 35.55 34.2 37.0 31.75 40.0 27.15 34.8 22.75 L38.9 18.35 Q43.4 23.0 47.85 19.85 49.35 18.8 50.65 17.1 M40.0 22.45 L39.6 21.65 Q39.2 21.3 38.7 21.25 38.2 21.3 37.8 21.65 37.5 22.05 37.5 22.45 37.5 23.05 37.9 23.4 38.25 23.8 38.85 23.7 39.3 23.7 39.6 23.35 L40.0 22.45 M34.95 16.7 Q34.45 16.15 33.65 16.15 32.75 16.25 32.25 16.85 31.7 17.35 31.85 18.1 31.85 18.9 32.4 19.4 32.9 19.9 33.75 19.85 34.45 19.85 34.95 19.3 35.45 18.75 35.55 17.95 35.45 17.2 34.95 16.7 M27.3 22.25 Q26.6 21.5 27.3 20.8 L33.5 14.2 Q34.2 13.45 34.95 14.2 L37.45 16.55 Q38.25 17.25 37.5 18.0 L31.35 24.6 Q30.6 25.35 29.8 24.6 L27.3 22.25" fill="#010101" fill-rule="evenodd" stroke="none"/>
      <path d="M25.6 22.9 L29.5 26.55 29.35 26.55 26.8 29.8 26.65 29.65 11.0 47.9 10.85 47.9 10.8 47.8 10.3 47.8 Q7.1 46.65 5.8 43.65 L5.6 43.1 5.6 42.75 22.75 26.0 22.6 25.9 25.6 23.05 25.6 22.9 M3.45 42.15 L4.35 42.25 Q4.7 42.4 4.85 42.85 L5.0 43.2 5.2 43.7 Q6.6 47.1 10.05 48.25 L10.55 48.3 10.8 48.45 Q11.3 48.55 11.55 49.0 L11.6 49.7 11.0 50.35 10.2 50.45 9.6 50.3 9.55 50.3 9.05 50.15 Q5.15 48.7 3.35 44.8 L3.25 44.45 3.1 44.35 2.95 43.55 Q2.8 43.2 2.95 42.85 L3.45 42.15 M0.8 47.3 L3.1 45.15 Q4.85 49.0 8.75 50.5 L6.75 52.85 6.45 53.1 5.7 53.5 4.85 53.75 3.0 53.25 1.9 52.35 1.6 52.05 1.7 52.05 0.65 50.95 0.0 49.25 0.2 48.3 0.5 47.6 0.8 47.3" fill="#000000" fill-rule="evenodd" stroke="none"/>
    </g>
  </defs>
</svg>
