<?xml version="1.0" encoding="UTF-8" standalone="no"?>
<svg xmlns:ffdec="https://www.free-decompiler.com/flash" xmlns:xlink="http://www.w3.org/1999/xlink" ffdec:objectType="frame" height="56.0px" width="56.0px" xmlns="http://www.w3.org/2000/svg">
  <g transform="matrix(1.0, 0.0, 0.0, 1.0, 0.0, 0.0)">
    <use ffdec:characterId="37" ffdec:characterName="191_fla.Symbole294_1" height="56.0" id="back" transform="matrix(1.0, 0.0, 0.0, 1.0, 0.0, 0.0)" width="56.0" xlink:href="#sprite0"/>
    <use ffdec:characterId="39" height="55.25" id="back" transform="matrix(1.0, 0.0, 0.0, 1.0, 1.95, 0.3)" width="52.0" xlink:href="#sprite36"/>
    <use ffdec:characterId="41" height="53.7" id="up" transform="matrix(1.0, 0.0, 0.0, 1.0, 2.7, 1.05)" width="50.45" xlink:href="#sprite37"/>
  </g>
  <defs>
    <g id="sprite0" transform="matrix(1.0, 0.0, 0.0, 1.0, 0.0, 0.0)">
      <use ffdec:characterId="36" ffdec:characterName="191_fla.Symbole291_2" height="56.0" id="back" transform="matrix(1.0, 0.0, 0.0, 1.0, 0.0, 0.0)" width="56.0" xlink:href="#sprite1"/>
    </g>
    <g id="sprite1" transform="matrix(1.0, 0.0, 0.0, 1.0, 0.0, 0.0)">
      <use ffdec:characterId="35" ffdec:characterName="191_fla.Symbole288_3" height="56.0" id="back" transform="matrix(1.0, 0.0, 0.0, 1.0, 0.0, 0.0)" width="56.0" xlink:href="#sprite2"/>
    </g>
    <g id="sprite2" transform="matrix(1.0, 0.0, 0.0, 1.0, 0.0, 0.0)">
      <use ffdec:characterId="34" ffdec:characterName="191_fla.Symbole285_4" height="56.0" id="back" transform="matrix(1.0, 0.0, 0.0, 1.0, 0.0, 0.0)" width="56.0" xlink:href="#sprite3"/>
    </g>
    <g id="sprite3" transform="matrix(1.0, 0.0, 0.0, 1.0, 0.0, 0.0)">
      <use ffdec:characterId="33" ffdec:characterName="191_fla.Symbole282_5" height="56.0" id="back" transform="matrix(1.0, 0.0, 0.0, 1.0, 0.0, 0.0)" width="56.0" xlink:href="#sprite4"/>
    </g>
    <g id="sprite4" transform="matrix(1.0, 0.0, 0.0, 1.0, 0.0, 0.0)">
      <use ffdec:characterId="32" ffdec:characterName="191_fla.Symbole279_6" height="56.0" id="back" transform="matrix(1.0, 0.0, 0.0, 1.0, 0.0, 0.0)" width="56.0" xlink:href="#sprite5"/>
    </g>
    <g id="sprite5" transform="matrix(1.0, 0.0, 0.0, 1.0, 0.0, 0.0)">
      <use ffdec:characterId="31" ffdec:characterName="191_fla.Symbole276_7" height="56.0" id="back" transform="matrix(1.0, 0.0, 0.0, 1.0, 0.0, 0.0)" width="56.0" xlink:href="#sprite6"/>
    </g>
    <g id="sprite6" transform="matrix(1.0, 0.0, 0.0, 1.0, 0.0, 0.0)">
      <use ffdec:characterId="30" ffdec:characterName="191_fla.Symbole273_8" height="56.0" id="back" transform="matrix(1.0, 0.0, 0.0, 1.0, 0.0, 0.0)" width="56.0" xlink:href="#sprite7"/>
    </g>
    <g id="sprite7" transform="matrix(1.0, 0.0, 0.0, 1.0, 0.0, 0.0)">
      <use ffdec:characterId="29" ffdec:characterName="191_fla.Symbole270_9" height="56.0" id="back" transform="matrix(1.0, 0.0, 0.0, 1.0, 0.0, 0.0)" width="56.0" xlink:href="#sprite8"/>
    </g>
    <g id="sprite8" transform="matrix(1.0, 0.0, 0.0, 1.0, 0.0, 0.0)">
      <use ffdec:characterId="28" ffdec:characterName="191_fla.Symbole267_10" height="56.0" id="back" transform="matrix(1.0, 0.0, 0.0, 1.0, 0.0, 0.0)" width="56.0" xlink:href="#sprite9"/>
    </g>
    <g id="sprite9" transform="matrix(1.0, 0.0, 0.0, 1.0, 0.0, 0.0)">
      <use ffdec:characterId="27" ffdec:characterName="191_fla.Symbole264_11" height="56.0" id="back" transform="matrix(1.0, 0.0, 0.0, 1.0, 0.0, 0.0)" width="56.0" xlink:href="#sprite10"/>
    </g>
    <g id="sprite10" transform="matrix(1.0, 0.0, 0.0, 1.0, 0.0, 0.0)">
      <use ffdec:characterId="26" ffdec:characterName="191_fla.Symbole261_12" height="56.0" id="back" transform="matrix(1.0, 0.0, 0.0, 1.0, 0.0, 0.0)" width="56.0" xlink:href="#sprite11"/>
    </g>
    <g id="sprite11" transform="matrix(1.0, 0.0, 0.0, 1.0, 0.0, 0.0)">
      <use ffdec:characterId="25" ffdec:characterName="191_fla.Symbole258_13" height="56.0" id="back" transform="matrix(1.0, 0.0, 0.0, 1.0, 0.0, 0.0)" width="56.0" xlink:href="#sprite12"/>
    </g>
    <g id="sprite12" transform="matrix(1.0, 0.0, 0.0, 1.0, 0.0, 0.0)">
      <use ffdec:characterId="24" ffdec:characterName="191_fla.Symbole255_14" height="56.0" id="back" transform="matrix(1.0, 0.0, 0.0, 1.0, 0.0, 0.0)" width="56.0" xlink:href="#sprite13"/>
    </g>
    <g id="sprite13" transform="matrix(1.0, 0.0, 0.0, 1.0, 0.0, 0.0)">
      <use ffdec:characterId="23" ffdec:characterName="191_fla.Symbole252_15" height="56.0" id="back" transform="matrix(1.0, 0.0, 0.0, 1.0, 0.0, 0.0)" width="56.0" xlink:href="#sprite14"/>
    </g>
    <g id="sprite14" transform="matrix(1.0, 0.0, 0.0, 1.0, 0.0, 0.0)">
      <use ffdec:characterId="22" ffdec:characterName="191_fla.Symbole249_16" height="56.0" id="back" transform="matrix(1.0, 0.0, 0.0, 1.0, 0.0, 0.0)" width="56.0" xlink:href="#sprite15"/>
    </g>
    <g id="sprite15" transform="matrix(1.0, 0.0, 0.0, 1.0, 0.0, 0.0)">
      <use ffdec:characterId="21" ffdec:characterName="191_fla.Symbole246_17" height="56.0" id="back" transform="matrix(1.0, 0.0, 0.0, 1.0, 0.0, 0.0)" width="56.0" xlink:href="#sprite16"/>
    </g>
    <g id="sprite16" transform="matrix(1.0, 0.0, 0.0, 1.0, 0.0, 0.0)">
      <use ffdec:characterId="20" ffdec:characterName="191_fla.Symbole243_18" height="56.0" id="back" transform="matrix(1.0, 0.0, 0.0, 1.0, 0.0, 0.0)" width="56.0" xlink:href="#sprite17"/>
    </g>
    <g id="sprite17" transform="matrix(1.0, 0.0, 0.0, 1.0, 0.0, 0.0)">
      <use ffdec:characterId="19" ffdec:characterName="191_fla.Symbole240_19" height="56.0" id="back" transform="matrix(1.0, 0.0, 0.0, 1.0, 0.0, 0.0)" width="56.0" xlink:href="#sprite18"/>
    </g>
    <g id="sprite18" transform="matrix(1.0, 0.0, 0.0, 1.0, 0.0, 0.0)">
      <use ffdec:characterId="18" ffdec:characterName="191_fla.Symbole237_20" height="56.0" id="back" transform="matrix(1.0, 0.0, 0.0, 1.0, 0.0, 0.0)" width="56.0" xlink:href="#sprite19"/>
    </g>
    <g id="sprite19" transform="matrix(1.0, 0.0, 0.0, 1.0, 0.0, 0.0)">
      <use ffdec:characterId="17" ffdec:characterName="191_fla.Symbole234_21" height="56.0" id="back" transform="matrix(1.0, 0.0, 0.0, 1.0, 0.0, 0.0)" width="56.0" xlink:href="#sprite20"/>
    </g>
    <g id="sprite20" transform="matrix(1.0, 0.0, 0.0, 1.0, 0.0, 0.0)">
      <use ffdec:characterId="16" ffdec:characterName="191_fla.Symbole231_22" height="56.0" id="back" transform="matrix(1.0, 0.0, 0.0, 1.0, 0.0, 0.0)" width="56.0" xlink:href="#sprite21"/>
    </g>
    <g id="sprite21" transform="matrix(1.0, 0.0, 0.0, 1.0, 0.0, 0.0)">
      <use ffdec:characterId="15" ffdec:characterName="191_fla.Symbole228_23" height="56.0" id="back" transform="matrix(1.0, 0.0, 0.0, 1.0, 0.0, 0.0)" width="56.0" xlink:href="#sprite22"/>
    </g>
    <g id="sprite22" transform="matrix(1.0, 0.0, 0.0, 1.0, 0.0, 0.0)">
      <use ffdec:characterId="14" ffdec:characterName="191_fla.Symbole225_24" height="56.0" id="back" transform="matrix(1.0, 0.0, 0.0, 1.0, 0.0, 0.0)" width="56.0" xlink:href="#sprite23"/>
    </g>
    <g id="sprite23" transform="matrix(1.0, 0.0, 0.0, 1.0, 0.0, 0.0)">
      <use ffdec:characterId="13" ffdec:characterName="191_fla.Symbole222_25" height="56.0" id="back" transform="matrix(1.0, 0.0, 0.0, 1.0, 0.0, 0.0)" width="56.0" xlink:href="#sprite24"/>
    </g>
    <g id="sprite24" transform="matrix(1.0, 0.0, 0.0, 1.0, 0.0, 0.0)">
      <use ffdec:characterId="12" ffdec:characterName="191_fla.Symbole219_26" height="56.0" id="back" transform="matrix(1.0, 0.0, 0.0, 1.0, 0.0, 0.0)" width="56.0" xlink:href="#sprite25"/>
    </g>
    <g id="sprite25" transform="matrix(1.0, 0.0, 0.0, 1.0, 0.0, 0.0)">
      <use ffdec:characterId="11" ffdec:characterName="191_fla.Symbole216_27" height="56.0" id="back" transform="matrix(1.0, 0.0, 0.0, 1.0, 0.0, 0.0)" width="56.0" xlink:href="#sprite26"/>
    </g>
    <g id="sprite26" transform="matrix(1.0, 0.0, 0.0, 1.0, 0.0, 0.0)">
      <use ffdec:characterId="10" ffdec:characterName="191_fla.Symbole213_28" height="56.0" id="back" transform="matrix(1.0, 0.0, 0.0, 1.0, 0.0, 0.0)" width="56.0" xlink:href="#sprite27"/>
    </g>
    <g id="sprite27" transform="matrix(1.0, 0.0, 0.0, 1.0, 0.0, 0.0)">
      <use ffdec:characterId="9" ffdec:characterName="191_fla.Symbole210_29" height="56.0" id="back" transform="matrix(1.0, 0.0, 0.0, 1.0, 0.0, 0.0)" width="56.0" xlink:href="#sprite28"/>
    </g>
    <g id="sprite28" transform="matrix(1.0, 0.0, 0.0, 1.0, 0.0, 0.0)">
      <use ffdec:characterId="8" ffdec:characterName="191_fla.Symbole207_30" height="56.0" id="back" transform="matrix(1.0, 0.0, 0.0, 1.0, 0.0, 0.0)" width="56.0" xlink:href="#sprite29"/>
    </g>
    <g id="sprite29" transform="matrix(1.0, 0.0, 0.0, 1.0, 0.0, 0.0)">
      <use ffdec:characterId="7" ffdec:characterName="191_fla.Symbole204_31" height="56.0" id="back" transform="matrix(1.0, 0.0, 0.0, 1.0, 0.0, 0.0)" width="56.0" xlink:href="#sprite30"/>
    </g>
    <g id="sprite30" transform="matrix(1.0, 0.0, 0.0, 1.0, 0.0, 0.0)">
      <use ffdec:characterId="6" ffdec:characterName="191_fla.Symbole201_32" height="56.0" id="back" transform="matrix(1.0, 0.0, 0.0, 1.0, 0.0, 0.0)" width="56.0" xlink:href="#sprite31"/>
    </g>
    <g id="sprite31" transform="matrix(1.0, 0.0, 0.0, 1.0, 0.0, 0.0)">
      <use ffdec:characterId="5" ffdec:characterName="191_fla.Symbole198_33" height="56.0" id="back" transform="matrix(1.0, 0.0, 0.0, 1.0, 0.0, 0.0)" width="56.0" xlink:href="#sprite32"/>
    </g>
    <g id="sprite32" transform="matrix(1.0, 0.0, 0.0, 1.0, 0.0, 0.0)">
      <use ffdec:characterId="4" ffdec:characterName="191_fla.Symbole195_34" height="56.0" id="back" transform="matrix(1.0, 0.0, 0.0, 1.0, 0.0, 0.0)" width="56.0" xlink:href="#sprite33"/>
    </g>
    <g id="sprite33" transform="matrix(1.0, 0.0, 0.0, 1.0, 0.0, 0.0)">
      <use ffdec:characterId="3" ffdec:characterName="191_fla.Symbole192_35" height="56.0" id="back" transform="matrix(1.0, 0.0, 0.0, 1.0, 0.0, 0.0)" width="56.0" xlink:href="#sprite34"/>
    </g>
    <g id="sprite34" transform="matrix(1.0, 0.0, 0.0, 1.0, 0.0, 0.0)">
      <use ffdec:characterId="2" height="56.0" id="back" transform="matrix(1.0, 0.0, 0.0, 1.0, 0.0, 0.0)" width="56.0" xlink:href="#sprite35"/>
    </g>
    <g id="sprite35" transform="matrix(1.0, 0.0, 0.0, 1.0, 0.0, 0.0)">
      <use ffdec:characterId="1" height="56.0" transform="matrix(1.0, 0.0, 0.0, 1.0, 0.0, 0.0)" width="56.0" xlink:href="#shape0"/>
    </g>
    <g id="shape0" transform="matrix(1.0, 0.0, 0.0, 1.0, 0.0, 0.0)">
      <path d="M56.0 56.0 L0.0 56.0 0.0 0.0 56.0 0.0 56.0 56.0" fill="#010101" fill-opacity="0.0" fill-rule="evenodd" stroke="none"/>
    </g>
    <g id="sprite36" transform="matrix(1.0, 0.0, 0.0, 1.0, 0.75, 0.75)">
      <use ffdec:characterId="38" height="55.25" transform="matrix(1.0, 0.0, 0.0, 1.0, -0.75, -0.75)" width="52.0" xlink:href="#shape1"/>
    </g>
    <g id="shape1" transform="matrix(1.0, 0.0, 0.0, 1.0, 0.75, 0.75)">
      <path d="M47.8 3.8 Q47.75 5.5 45.8 9.25 L45.5 9.95 Q42.05 8.95 41.35 6.05 L42.15 5.45 Q44.5 3.7 46.25 3.15 L46.25 3.1 47.5 3.0 Q47.8 3.15 47.8 3.8 M40.3 5.65 Q40.15 5.75 40.25 6.0 40.5 7.75 41.65 9.0 L43.0 10.1 Q44.15 10.75 45.65 11.15 L45.95 11.15 46.25 10.8 46.4 10.6 Q47.0 12.0 47.15 13.65 47.35 15.35 47.05 17.05 L46.65 16.7 46.35 16.55 46.05 16.7 Q44.4 17.3 43.3 18.65 42.8 19.35 42.5 20.3 42.15 21.45 42.15 23.0 42.05 23.25 42.2 23.3 L42.5 23.55 42.75 23.65 Q40.9 25.0 38.6 25.5 L38.75 24.9 38.7 24.6 38.55 24.35 Q37.2 23.25 35.55 22.95 L33.75 22.85 Q32.5 23.0 31.1 23.65 L30.8 23.9 30.7 24.35 30.7 24.4 29.15 23.3 Q27.5 21.9 26.55 20.15 L26.75 20.15 27.1 20.05 27.35 19.8 Q28.3 18.4 28.3 16.7 28.35 15.8 28.0 14.95 27.65 13.7 26.65 12.45 L26.5 12.25 26.1 12.25 25.4 12.45 Q25.8 10.05 27.6 7.75 L28.5 6.85 28.7 7.55 28.9 7.75 29.15 7.95 32.5 7.85 34.05 7.1 Q35.15 6.45 36.1 5.1 L36.2 4.9 36.1 4.5 35.45 3.7 Q38.55 3.5 41.05 4.9 L40.4 5.4 40.3 5.65 M46.75 18.3 Q49.15 20.3 50.0 22.0 L50.5 23.25 Q50.35 23.5 49.65 23.55 48.0 23.9 43.75 22.85 L43.15 22.65 Q43.45 18.95 46.1 17.8 L46.75 18.3 M35.0 4.9 Q32.65 7.55 29.75 7.0 L29.55 6.0 Q29.0 3.4 29.15 1.75 L29.15 1.35 Q29.15 0.4 29.55 0.1 L30.3 0.2 Q31.75 1.0 34.2 3.95 L35.0 4.9 M26.15 13.3 Q28.0 16.45 26.65 19.05 L25.95 18.95 Q22.75 18.8 21.0 17.85 L20.85 17.85 19.9 17.15 Q19.9 16.75 20.3 16.45 21.4 15.35 25.15 13.8 L26.15 13.3 M3.6 41.85 L3.05 42.5 2.95 43.4 3.2 44.2 3.25 44.2 3.45 44.6 Q5.05 48.5 8.8 49.85 L9.3 50.0 9.35 50.0 9.9 50.2 10.7 50.05 11.25 49.35 11.15 48.6 Q11.0 48.2 10.55 48.1 10.45 47.95 10.35 47.95 L9.75 47.85 Q6.45 46.85 5.2 43.5 L5.15 42.9 4.9 42.5 4.45 41.85 3.6 41.85 M0.55 47.5 Q0.75 47.25 0.85 47.3 L3.05 45.0 Q4.75 48.8 8.5 50.3 L6.45 52.65 6.25 53.0 5.3 53.45 4.5 53.75 2.8 53.2 1.7 52.35 1.7 52.25 1.45 52.1 1.55 52.1 0.55 50.95 0.0 49.3 0.2 48.35 Q0.3 47.85 0.55 47.5 M5.6 42.45 L22.9 24.6 22.9 24.55 25.85 21.55 Q27.05 24.05 29.55 25.15 L29.4 25.15 26.65 28.4 26.55 28.25 10.8 47.55 10.55 47.4 10.45 47.35 10.05 47.4 Q7.05 46.3 5.75 43.35 L5.6 42.8 5.6 42.45 M37.45 25.65 Q36.65 28.7 35.65 30.2 L35.55 30.3 34.7 31.15 34.0 30.6 Q33.0 29.35 32.05 25.05 L31.9 24.5 Q35.25 23.25 37.65 24.9 L37.45 25.65 Z" fill="none" stroke="#000000" stroke-linecap="round" stroke-linejoin="round" stroke-opacity="0.2" stroke-width="1.5"/>
    </g>
    <g id="sprite37" transform="matrix(1.0, 0.0, 0.0, 1.0, 0.0, 0.0)">
      <use ffdec:characterId="40" height="53.7" transform="matrix(1.0, 0.0, 0.0, 1.0, 0.0, 0.0)" width="50.45" xlink:href="#shape2"/>
    </g>
    <g id="shape2" transform="matrix(1.0, 0.0, 0.0, 1.0, 0.0, 0.0)">
      <path d="M46.3 3.1 L47.55 2.95 47.8 3.75 Q47.75 5.5 45.85 9.25 L45.55 9.9 Q42.1 8.9 41.35 6.0 41.7 5.75 42.15 5.45 44.5 3.7 46.3 3.15 L46.3 3.1 M40.25 5.95 Q40.55 7.7 41.65 8.95 42.15 9.55 43.05 10.05 44.15 10.7 45.7 11.1 L46.0 11.1 46.3 10.8 46.4 10.55 Q47.0 11.95 47.15 13.6 47.4 15.35 47.1 17.05 L46.65 16.65 46.35 16.5 46.05 16.65 Q44.45 17.25 43.35 18.65 42.8 19.3 42.5 20.25 42.15 21.45 42.15 22.95 L42.25 23.25 42.5 23.55 42.75 23.65 Q40.9 24.95 38.6 25.45 L38.75 24.9 38.7 24.6 38.55 24.3 Q37.2 23.2 35.6 22.9 L33.75 22.85 Q32.5 22.95 31.1 23.65 L30.8 23.85 30.75 24.3 30.75 24.35 29.2 23.25 Q27.5 21.85 26.55 20.1 L26.75 20.1 27.15 20.05 27.35 19.8 Q28.3 18.35 28.3 16.65 28.4 15.8 28.0 14.9 27.65 13.65 26.7 12.4 L26.5 12.2 26.1 12.2 25.35 12.4 Q25.8 10.0 27.6 7.7 28.0 7.2 28.55 6.85 L28.7 7.5 28.9 7.7 29.15 7.95 32.5 7.85 34.05 7.05 Q35.15 6.4 36.1 5.05 L36.2 4.85 36.1 4.5 35.45 3.7 Q38.55 3.45 41.05 4.85 L40.4 5.35 40.3 5.65 Q40.15 5.75 40.25 5.95 M46.15 17.75 L46.7 18.3 Q49.15 20.25 50.05 21.95 50.55 22.75 50.45 23.2 50.35 23.5 49.65 23.55 48.05 23.85 43.75 22.85 L43.2 22.6 Q43.5 18.95 46.15 17.75 M35.0 4.85 Q32.65 7.5 29.8 7.0 L29.55 5.95 Q29.0 3.4 29.15 1.7 L29.15 1.35 Q29.2 0.35 29.55 0.1 L30.3 0.15 Q31.8 0.95 34.2 3.9 L35.0 4.85 M26.2 13.3 Q28.0 16.45 26.65 19.0 L25.95 18.95 Q22.75 18.8 21.05 17.85 L20.9 17.85 Q20.15 17.55 19.95 17.1 19.95 16.75 20.3 16.45 21.4 15.35 25.15 13.8 L26.2 13.3 M3.6 41.85 L4.45 41.85 4.9 42.5 5.15 42.85 5.2 43.45 Q6.45 46.8 9.75 47.85 L10.35 47.9 10.6 48.05 11.15 48.6 11.25 49.3 Q11.1 49.85 10.75 50.05 L9.9 50.2 Q9.7 49.95 9.4 49.95 L9.35 49.95 8.8 49.85 Q5.05 48.5 3.45 44.55 L3.3 44.2 3.2 44.2 3.0 43.35 Q2.95 42.85 3.05 42.5 3.2 42.1 3.6 41.85 M0.55 47.5 L0.85 47.25 3.05 45.0 Q4.75 48.8 8.5 50.25 L6.45 52.6 6.25 53.0 5.35 53.4 4.55 53.7 2.8 53.15 1.75 52.3 1.75 52.25 1.45 52.1 1.6 52.1 0.55 50.95 Q0.2 50.2 0.0 49.25 L0.2 48.3 0.55 47.5 M5.65 42.4 L22.95 24.6 22.85 24.5 25.9 21.5 Q27.05 24.0 29.55 25.1 L29.4 25.1 26.7 28.4 26.55 28.25 10.8 47.55 10.6 47.4 10.5 47.35 10.05 47.4 Q7.05 46.3 5.8 43.3 L5.65 42.8 5.65 42.4 M37.45 25.6 Q36.65 28.7 35.7 30.15 L35.6 30.25 Q35.15 31.05 34.7 31.1 34.35 31.2 34.0 30.6 33.05 29.3 32.05 25.05 L31.95 24.45 Q35.25 23.2 37.65 24.9 L37.45 25.6" fill="#000000" fill-rule="evenodd" stroke="none"/>
    </g>
  </defs>
</svg>
