<?xml version="1.0" encoding="UTF-8" standalone="no"?>
<svg xmlns:ffdec="https://www.free-decompiler.com/flash" xmlns:xlink="http://www.w3.org/1999/xlink" ffdec:objectType="frame" height="56.0px" width="56.0px" xmlns="http://www.w3.org/2000/svg">
  <g transform="matrix(1.0, 0.0, 0.0, 1.0, 0.0, 0.0)">
    <use ffdec:characterId="38" ffdec:characterName="192_fla.Symbole297_1" height="56.0" id="back" transform="matrix(1.0, 0.0, 0.0, 1.0, 0.0, 0.0)" width="56.0" xlink:href="#sprite0"/>
    <use ffdec:characterId="40" height="43.25" id="back" transform="matrix(1.0, 0.0, 0.0, 1.0, 0.35, 6.2)" width="55.35" xlink:href="#sprite37"/>
    <use ffdec:characterId="42" height="41.75" id="up" transform="matrix(1.0, 0.0, 0.0, 1.0, 1.1, 6.95)" width="53.85" xlink:href="#sprite38"/>
  </g>
  <defs>
    <g id="sprite0" transform="matrix(1.0, 0.0, 0.0, 1.0, 0.0, 0.0)">
      <use ffdec:characterId="37" ffdec:characterName="192_fla.Symbole294_2" height="56.0" id="back" transform="matrix(1.0, 0.0, 0.0, 1.0, 0.0, 0.0)" width="56.0" xlink:href="#sprite1"/>
    </g>
    <g id="sprite1" transform="matrix(1.0, 0.0, 0.0, 1.0, 0.0, 0.0)">
      <use ffdec:characterId="36" ffdec:characterName="192_fla.Symbole291_3" height="56.0" id="back" transform="matrix(1.0, 0.0, 0.0, 1.0, 0.0, 0.0)" width="56.0" xlink:href="#sprite2"/>
    </g>
    <g id="sprite2" transform="matrix(1.0, 0.0, 0.0, 1.0, 0.0, 0.0)">
      <use ffdec:characterId="35" ffdec:characterName="192_fla.Symbole288_4" height="56.0" id="back" transform="matrix(1.0, 0.0, 0.0, 1.0, 0.0, 0.0)" width="56.0" xlink:href="#sprite3"/>
    </g>
    <g id="sprite3" transform="matrix(1.0, 0.0, 0.0, 1.0, 0.0, 0.0)">
      <use ffdec:characterId="34" ffdec:characterName="192_fla.Symbole285_5" height="56.0" id="back" transform="matrix(1.0, 0.0, 0.0, 1.0, 0.0, 0.0)" width="56.0" xlink:href="#sprite4"/>
    </g>
    <g id="sprite4" transform="matrix(1.0, 0.0, 0.0, 1.0, 0.0, 0.0)">
      <use ffdec:characterId="33" ffdec:characterName="192_fla.Symbole282_6" height="56.0" id="back" transform="matrix(1.0, 0.0, 0.0, 1.0, 0.0, 0.0)" width="56.0" xlink:href="#sprite5"/>
    </g>
    <g id="sprite5" transform="matrix(1.0, 0.0, 0.0, 1.0, 0.0, 0.0)">
      <use ffdec:characterId="32" ffdec:characterName="192_fla.Symbole279_7" height="56.0" id="back" transform="matrix(1.0, 0.0, 0.0, 1.0, 0.0, 0.0)" width="56.0" xlink:href="#sprite6"/>
    </g>
    <g id="sprite6" transform="matrix(1.0, 0.0, 0.0, 1.0, 0.0, 0.0)">
      <use ffdec:characterId="31" ffdec:characterName="192_fla.Symbole276_8" height="56.0" id="back" transform="matrix(1.0, 0.0, 0.0, 1.0, 0.0, 0.0)" width="56.0" xlink:href="#sprite7"/>
    </g>
    <g id="sprite7" transform="matrix(1.0, 0.0, 0.0, 1.0, 0.0, 0.0)">
      <use ffdec:characterId="30" ffdec:characterName="192_fla.Symbole273_9" height="56.0" id="back" transform="matrix(1.0, 0.0, 0.0, 1.0, 0.0, 0.0)" width="56.0" xlink:href="#sprite8"/>
    </g>
    <g id="sprite8" transform="matrix(1.0, 0.0, 0.0, 1.0, 0.0, 0.0)">
      <use ffdec:characterId="29" ffdec:characterName="192_fla.Symbole270_10" height="56.0" id="back" transform="matrix(1.0, 0.0, 0.0, 1.0, 0.0, 0.0)" width="56.0" xlink:href="#sprite9"/>
    </g>
    <g id="sprite9" transform="matrix(1.0, 0.0, 0.0, 1.0, 0.0, 0.0)">
      <use ffdec:characterId="28" ffdec:characterName="192_fla.Symbole267_11" height="56.0" id="back" transform="matrix(1.0, 0.0, 0.0, 1.0, 0.0, 0.0)" width="56.0" xlink:href="#sprite10"/>
    </g>
    <g id="sprite10" transform="matrix(1.0, 0.0, 0.0, 1.0, 0.0, 0.0)">
      <use ffdec:characterId="27" ffdec:characterName="192_fla.Symbole264_12" height="56.0" id="back" transform="matrix(1.0, 0.0, 0.0, 1.0, 0.0, 0.0)" width="56.0" xlink:href="#sprite11"/>
    </g>
    <g id="sprite11" transform="matrix(1.0, 0.0, 0.0, 1.0, 0.0, 0.0)">
      <use ffdec:characterId="26" ffdec:characterName="192_fla.Symbole261_13" height="56.0" id="back" transform="matrix(1.0, 0.0, 0.0, 1.0, 0.0, 0.0)" width="56.0" xlink:href="#sprite12"/>
    </g>
    <g id="sprite12" transform="matrix(1.0, 0.0, 0.0, 1.0, 0.0, 0.0)">
      <use ffdec:characterId="25" ffdec:characterName="192_fla.Symbole258_14" height="56.0" id="back" transform="matrix(1.0, 0.0, 0.0, 1.0, 0.0, 0.0)" width="56.0" xlink:href="#sprite13"/>
    </g>
    <g id="sprite13" transform="matrix(1.0, 0.0, 0.0, 1.0, 0.0, 0.0)">
      <use ffdec:characterId="24" ffdec:characterName="192_fla.Symbole255_15" height="56.0" id="back" transform="matrix(1.0, 0.0, 0.0, 1.0, 0.0, 0.0)" width="56.0" xlink:href="#sprite14"/>
    </g>
    <g id="sprite14" transform="matrix(1.0, 0.0, 0.0, 1.0, 0.0, 0.0)">
      <use ffdec:characterId="23" ffdec:characterName="192_fla.Symbole252_16" height="56.0" id="back" transform="matrix(1.0, 0.0, 0.0, 1.0, 0.0, 0.0)" width="56.0" xlink:href="#sprite15"/>
    </g>
    <g id="sprite15" transform="matrix(1.0, 0.0, 0.0, 1.0, 0.0, 0.0)">
      <use ffdec:characterId="22" ffdec:characterName="192_fla.Symbole249_17" height="56.0" id="back" transform="matrix(1.0, 0.0, 0.0, 1.0, 0.0, 0.0)" width="56.0" xlink:href="#sprite16"/>
    </g>
    <g id="sprite16" transform="matrix(1.0, 0.0, 0.0, 1.0, 0.0, 0.0)">
      <use ffdec:characterId="21" ffdec:characterName="192_fla.Symbole246_18" height="56.0" id="back" transform="matrix(1.0, 0.0, 0.0, 1.0, 0.0, 0.0)" width="56.0" xlink:href="#sprite17"/>
    </g>
    <g id="sprite17" transform="matrix(1.0, 0.0, 0.0, 1.0, 0.0, 0.0)">
      <use ffdec:characterId="20" ffdec:characterName="192_fla.Symbole243_19" height="56.0" id="back" transform="matrix(1.0, 0.0, 0.0, 1.0, 0.0, 0.0)" width="56.0" xlink:href="#sprite18"/>
    </g>
    <g id="sprite18" transform="matrix(1.0, 0.0, 0.0, 1.0, 0.0, 0.0)">
      <use ffdec:characterId="19" ffdec:characterName="192_fla.Symbole240_20" height="56.0" id="back" transform="matrix(1.0, 0.0, 0.0, 1.0, 0.0, 0.0)" width="56.0" xlink:href="#sprite19"/>
    </g>
    <g id="sprite19" transform="matrix(1.0, 0.0, 0.0, 1.0, 0.0, 0.0)">
      <use ffdec:characterId="18" ffdec:characterName="192_fla.Symbole237_21" height="56.0" id="back" transform="matrix(1.0, 0.0, 0.0, 1.0, 0.0, 0.0)" width="56.0" xlink:href="#sprite20"/>
    </g>
    <g id="sprite20" transform="matrix(1.0, 0.0, 0.0, 1.0, 0.0, 0.0)">
      <use ffdec:characterId="17" ffdec:characterName="192_fla.Symbole234_22" height="56.0" id="back" transform="matrix(1.0, 0.0, 0.0, 1.0, 0.0, 0.0)" width="56.0" xlink:href="#sprite21"/>
    </g>
    <g id="sprite21" transform="matrix(1.0, 0.0, 0.0, 1.0, 0.0, 0.0)">
      <use ffdec:characterId="16" ffdec:characterName="192_fla.Symbole231_23" height="56.0" id="back" transform="matrix(1.0, 0.0, 0.0, 1.0, 0.0, 0.0)" width="56.0" xlink:href="#sprite22"/>
    </g>
    <g id="sprite22" transform="matrix(1.0, 0.0, 0.0, 1.0, 0.0, 0.0)">
      <use ffdec:characterId="15" ffdec:characterName="192_fla.Symbole228_24" height="56.0" id="back" transform="matrix(1.0, 0.0, 0.0, 1.0, 0.0, 0.0)" width="56.0" xlink:href="#sprite23"/>
    </g>
    <g id="sprite23" transform="matrix(1.0, 0.0, 0.0, 1.0, 0.0, 0.0)">
      <use ffdec:characterId="14" ffdec:characterName="192_fla.Symbole225_25" height="56.0" id="back" transform="matrix(1.0, 0.0, 0.0, 1.0, 0.0, 0.0)" width="56.0" xlink:href="#sprite24"/>
    </g>
    <g id="sprite24" transform="matrix(1.0, 0.0, 0.0, 1.0, 0.0, 0.0)">
      <use ffdec:characterId="13" ffdec:characterName="192_fla.Symbole222_26" height="56.0" id="back" transform="matrix(1.0, 0.0, 0.0, 1.0, 0.0, 0.0)" width="56.0" xlink:href="#sprite25"/>
    </g>
    <g id="sprite25" transform="matrix(1.0, 0.0, 0.0, 1.0, 0.0, 0.0)">
      <use ffdec:characterId="12" ffdec:characterName="192_fla.Symbole219_27" height="56.0" id="back" transform="matrix(1.0, 0.0, 0.0, 1.0, 0.0, 0.0)" width="56.0" xlink:href="#sprite26"/>
    </g>
    <g id="sprite26" transform="matrix(1.0, 0.0, 0.0, 1.0, 0.0, 0.0)">
      <use ffdec:characterId="11" ffdec:characterName="192_fla.Symbole216_28" height="56.0" id="back" transform="matrix(1.0, 0.0, 0.0, 1.0, 0.0, 0.0)" width="56.0" xlink:href="#sprite27"/>
    </g>
    <g id="sprite27" transform="matrix(1.0, 0.0, 0.0, 1.0, 0.0, 0.0)">
      <use ffdec:characterId="10" ffdec:characterName="192_fla.Symbole213_29" height="56.0" id="back" transform="matrix(1.0, 0.0, 0.0, 1.0, 0.0, 0.0)" width="56.0" xlink:href="#sprite28"/>
    </g>
    <g id="sprite28" transform="matrix(1.0, 0.0, 0.0, 1.0, 0.0, 0.0)">
      <use ffdec:characterId="9" ffdec:characterName="192_fla.Symbole210_30" height="56.0" id="back" transform="matrix(1.0, 0.0, 0.0, 1.0, 0.0, 0.0)" width="56.0" xlink:href="#sprite29"/>
    </g>
    <g id="sprite29" transform="matrix(1.0, 0.0, 0.0, 1.0, 0.0, 0.0)">
      <use ffdec:characterId="8" ffdec:characterName="192_fla.Symbole207_31" height="56.0" id="back" transform="matrix(1.0, 0.0, 0.0, 1.0, 0.0, 0.0)" width="56.0" xlink:href="#sprite30"/>
    </g>
    <g id="sprite30" transform="matrix(1.0, 0.0, 0.0, 1.0, 0.0, 0.0)">
      <use ffdec:characterId="7" ffdec:characterName="192_fla.Symbole204_32" height="56.0" id="back" transform="matrix(1.0, 0.0, 0.0, 1.0, 0.0, 0.0)" width="56.0" xlink:href="#sprite31"/>
    </g>
    <g id="sprite31" transform="matrix(1.0, 0.0, 0.0, 1.0, 0.0, 0.0)">
      <use ffdec:characterId="6" ffdec:characterName="192_fla.Symbole201_33" height="56.0" id="back" transform="matrix(1.0, 0.0, 0.0, 1.0, 0.0, 0.0)" width="56.0" xlink:href="#sprite32"/>
    </g>
    <g id="sprite32" transform="matrix(1.0, 0.0, 0.0, 1.0, 0.0, 0.0)">
      <use ffdec:characterId="5" ffdec:characterName="192_fla.Symbole198_34" height="56.0" id="back" transform="matrix(1.0, 0.0, 0.0, 1.0, 0.0, 0.0)" width="56.0" xlink:href="#sprite33"/>
    </g>
    <g id="sprite33" transform="matrix(1.0, 0.0, 0.0, 1.0, 0.0, 0.0)">
      <use ffdec:characterId="4" ffdec:characterName="192_fla.Symbole195_35" height="56.0" id="back" transform="matrix(1.0, 0.0, 0.0, 1.0, 0.0, 0.0)" width="56.0" xlink:href="#sprite34"/>
    </g>
    <g id="sprite34" transform="matrix(1.0, 0.0, 0.0, 1.0, 0.0, 0.0)">
      <use ffdec:characterId="3" ffdec:characterName="192_fla.Symbole192_36" height="56.0" id="back" transform="matrix(1.0, 0.0, 0.0, 1.0, 0.0, 0.0)" width="56.0" xlink:href="#sprite35"/>
    </g>
    <g id="sprite35" transform="matrix(1.0, 0.0, 0.0, 1.0, 0.0, 0.0)">
      <use ffdec:characterId="2" height="56.0" id="back" transform="matrix(1.0, 0.0, 0.0, 1.0, 0.0, 0.0)" width="56.0" xlink:href="#sprite36"/>
    </g>
    <g id="sprite36" transform="matrix(1.0, 0.0, 0.0, 1.0, 0.0, 0.0)">
      <use ffdec:characterId="1" height="56.0" transform="matrix(1.0, 0.0, 0.0, 1.0, 0.0, 0.0)" width="56.0" xlink:href="#shape0"/>
    </g>
    <g id="shape0" transform="matrix(1.0, 0.0, 0.0, 1.0, 0.0, 0.0)">
      <path d="M56.0 56.0 L0.0 56.0 0.0 0.0 56.0 0.0 56.0 56.0" fill="#010101" fill-opacity="0.0" fill-rule="evenodd" stroke="none"/>
    </g>
    <g id="sprite37" transform="matrix(1.0, 0.0, 0.0, 1.0, 0.75, 0.75)">
      <use ffdec:characterId="39" height="43.25" transform="matrix(1.0, 0.0, 0.0, 1.0, -0.75, -0.75)" width="55.35" xlink:href="#shape1"/>
    </g>
    <g id="shape1" transform="matrix(1.0, 0.0, 0.0, 1.0, 0.75, 0.75)">
      <path d="M50.8 4.15 L51.75 4.0 51.95 4.55 Q51.9 5.8 50.4 8.7 L50.2 9.1 Q47.65 8.4 47.1 6.25 L47.65 5.8 Q49.45 4.55 50.7 4.15 L50.8 4.15 M42.35 5.35 Q40.7 7.3 38.45 6.9 L38.3 6.25 Q37.85 4.3 38.0 3.1 L38.1 2.75 38.3 1.85 39.0 1.95 Q39.95 2.45 41.8 4.6 L42.35 5.35 M43.2 5.2 L42.75 4.55 Q45.0 4.3 46.9 5.4 L46.4 5.8 46.25 5.95 46.2 6.15 Q46.5 7.5 47.3 8.4 L48.35 9.25 Q49.15 9.8 50.35 10.05 L50.55 10.05 50.8 9.8 50.9 9.65 51.4 11.85 Q51.6 13.15 51.4 14.45 L51.0 14.2 50.85 14.15 50.55 14.05 Q49.35 14.65 48.55 15.6 L47.95 16.8 Q47.65 17.7 47.65 18.9 L47.75 19.1 48.05 19.25 48.1 19.35 Q46.75 20.3 45.05 20.75 L45.15 20.25 45.15 20.0 45.0 19.85 Q44.05 19.05 42.85 18.75 L41.45 18.75 Q40.55 18.85 39.5 19.4 39.35 19.4 39.35 19.55 L39.2 19.85 39.25 19.85 39.2 19.85 38.1 19.05 Q36.8 18.1 36.1 16.75 L36.3 16.75 36.55 16.65 36.65 16.45 Q37.45 15.4 37.45 14.2 L37.2 12.9 36.25 10.95 36.0 10.8 35.8 10.8 35.25 11.1 Q35.65 9.25 36.95 7.6 L37.55 6.8 37.7 7.35 37.85 7.5 38.1 7.65 Q39.25 7.95 40.55 7.65 L41.7 7.0 43.2 5.6 43.3 5.4 43.2 5.2 M51.1 15.35 Q52.8 16.9 53.45 18.1 L53.55 18.15 Q53.9 18.7 53.85 19.0 L53.3 19.35 48.95 18.75 48.4 18.6 Q48.65 15.9 50.65 15.0 L51.1 15.35 M44.2 20.9 Q43.6 23.15 42.85 24.25 L42.85 24.3 42.1 24.95 41.65 24.55 Q40.9 23.5 40.25 20.45 L40.1 19.95 Q42.55 19.0 44.3 20.3 L44.2 20.9 M39.6 37.55 L39.4 36.9 39.15 36.75 37.45 35.1 Q36.0 38.1 33.05 39.2 L34.55 41.0 34.75 41.2 35.35 41.55 36.0 41.65 37.45 41.35 38.3 40.65 38.3 40.55 Q38.45 40.5 38.55 40.4 L38.45 40.4 39.25 39.6 39.75 38.25 39.6 37.55 M24.8 11.9 Q21.4 9.45 17.65 13.15 L14.5 9.75 Q18.25 6.6 16.1 2.95 15.45 1.75 14.15 0.7 L13.35 0.0 14.45 0.05 Q17.35 0.2 19.9 1.25 27.75 4.45 27.45 15.25 26.55 13.15 24.8 11.9 M31.5 13.9 Q32.25 13.15 35.05 12.0 L35.8 11.7 Q37.2 14.0 36.1 16.0 L35.65 15.9 Q33.3 15.75 32.05 15.05 L32.0 15.05 Q31.35 14.85 31.25 14.6 31.1 14.3 31.5 13.9 M2.8 15.4 Q6.25 17.85 9.65 14.3 L12.85 17.7 Q8.9 21.15 11.15 24.65 12.4 26.5 14.25 27.7 3.55 27.15 0.8 19.05 0.0 16.5 0.0 13.6 L0.05 12.5 0.65 13.4 2.8 15.4 M18.55 9.0 L17.95 8.6 Q17.5 8.7 17.25 9.0 L16.95 9.5 Q16.9 9.95 17.15 10.25 17.45 10.55 17.9 10.5 L18.55 10.25 18.85 9.6 18.55 9.0 M13.9 11.15 L18.65 16.25 Q19.2 16.8 18.65 17.4 L16.7 19.2 Q16.05 19.8 15.5 19.2 L10.7 14.05 Q10.15 13.45 10.75 12.9 L12.75 11.1 13.9 11.15 M12.3 14.05 Q12.25 14.65 12.7 15.05 13.05 15.5 13.65 15.55 L14.7 15.1 15.15 14.15 Q15.15 13.55 14.75 13.1 14.4 12.65 13.8 12.65 13.2 12.65 12.75 13.0 12.3 13.45 12.3 14.05 M9.2 16.8 Q8.9 17.1 8.9 17.45 8.9 17.85 9.2 18.15 9.45 18.45 9.8 18.45 10.15 18.5 10.45 18.2 L10.75 17.5 10.55 16.9 9.85 16.5 Q9.5 16.5 9.2 16.8 M18.05 21.85 L19.05 23.15 19.15 23.05 24.0 28.7 27.1 25.15 22.2 20.25 22.2 20.1 21.1 19.0 21.1 19.05 19.95 18.0 19.95 17.8 16.9 20.7 17.0 20.7 18.1 21.85 18.05 21.85 M18.95 34.65 L19.0 34.95 Q20.25 37.8 23.1 38.85 23.15 39.0 23.3 39.0 L23.4 39.0 23.85 39.05 24.4 39.05 24.8 38.45 24.8 37.95 24.35 37.55 24.1 37.5 23.75 37.5 Q21.3 36.7 20.35 34.15 L20.25 33.7 20.1 33.5 19.75 32.95 19.15 32.95 Q18.85 33.05 18.7 33.4 L18.7 34.05 18.85 34.65 18.95 34.65 M17.1 37.0 L18.8 35.25 Q20.05 38.1 22.8 39.2 L21.25 41.0 21.0 41.3 20.55 41.55 19.8 41.75 18.55 41.35 17.8 40.75 17.75 40.85 17.75 40.7 17.6 40.55 16.9 39.75 16.45 38.4 16.6 37.8 16.9 37.15 Q17.0 36.9 17.1 37.0 M36.25 22.85 L24.5 37.15 24.4 37.05 24.35 37.05 24.0 37.05 Q21.65 36.3 20.8 34.0 L20.7 33.65 20.7 33.35 33.5 20.15 33.4 20.1 35.7 17.8 Q36.55 19.7 38.3 20.45 L36.3 22.9 36.25 22.85 M37.5 33.25 L37.5 33.85 37.35 34.45 37.3 34.55 37.15 34.8 Q35.8 37.8 32.75 39.0 L32.4 39.0 32.3 39.0 31.9 39.15 31.2 39.15 30.75 38.6 30.8 38.05 Q30.95 37.7 31.4 37.65 31.4 37.55 31.55 37.55 L32.0 37.5 Q34.6 36.6 35.8 33.9 L35.85 33.55 36.0 33.25 Q36.1 32.95 36.45 32.8 36.75 32.65 37.05 32.8 L37.5 33.25 M35.4 33.5 L35.5 33.2 31.75 29.55 28.5 34.05 31.2 37.2 31.35 37.15 31.4 37.15 31.85 37.15 Q34.3 36.25 35.35 33.9 L35.4 33.5 Z" fill="none" stroke="#000000" stroke-linecap="round" stroke-linejoin="round" stroke-opacity="0.2" stroke-width="1.5"/>
    </g>
    <g id="sprite38" transform="matrix(1.0, 0.0, 0.0, 1.0, 0.0, 0.0)">
      <use ffdec:characterId="41" height="41.75" transform="matrix(1.0, 0.0, 0.0, 1.0, 0.0, 0.0)" width="53.85" xlink:href="#shape2"/>
    </g>
    <g id="shape2" transform="matrix(1.0, 0.0, 0.0, 1.0, 0.0, 0.0)">
      <path d="M50.75 4.1 L51.75 4.0 51.95 4.55 Q51.9 5.8 50.4 8.65 L50.2 9.1 Q47.7 8.4 47.1 6.2 L47.7 5.8 Q49.45 4.55 50.7 4.1 L50.75 4.1 M42.35 5.3 Q40.65 7.25 38.5 6.9 L38.3 6.2 Q37.85 4.25 38.0 3.05 L38.05 2.7 Q38.05 2.1 38.35 1.8 L39.0 1.95 Q39.95 2.45 41.8 4.6 L42.35 5.3 M43.2 5.15 L42.75 4.55 Q45.0 4.35 46.9 5.4 L46.4 5.8 46.25 5.95 46.2 6.15 Q46.5 7.5 47.35 8.4 L48.4 9.25 Q49.15 9.8 50.35 10.0 L50.55 10.0 50.75 9.8 50.9 9.65 51.4 11.85 Q51.6 13.15 51.4 14.4 L51.05 14.2 50.85 14.15 50.55 14.05 Q49.35 14.65 48.6 15.6 L47.95 16.8 Q47.7 17.7 47.7 18.9 L47.75 19.1 48.05 19.25 48.1 19.3 Q46.75 20.3 45.1 20.7 L45.15 20.25 45.15 20.0 45.0 19.8 Q44.05 19.05 42.85 18.75 L41.45 18.75 Q40.5 18.85 39.45 19.4 L39.35 19.55 39.2 19.8 39.25 19.9 38.05 19.05 Q36.8 18.05 36.1 16.75 L36.3 16.75 36.55 16.65 36.65 16.45 Q37.45 15.4 37.45 14.2 L37.25 12.9 36.25 10.9 36.05 10.75 35.85 10.75 35.25 11.05 Q35.6 9.25 36.95 7.55 L37.6 6.8 37.7 7.35 37.85 7.5 38.05 7.6 Q39.25 7.95 40.5 7.6 L41.7 7.0 43.2 5.6 43.25 5.4 43.2 5.15 M51.1 15.35 Q52.8 16.85 53.5 18.05 L53.55 18.15 53.85 18.95 53.3 19.3 48.95 18.75 48.45 18.55 Q48.65 15.9 50.6 15.0 50.85 15.1 51.1 15.35 M44.15 20.85 Q43.6 23.1 42.85 24.25 L42.85 24.3 42.15 24.95 41.65 24.5 Q40.95 23.55 40.25 20.45 L40.1 19.95 Q42.55 18.95 44.3 20.3 L44.15 20.85 M39.6 37.55 L39.75 38.25 39.25 39.55 38.5 40.4 38.55 40.4 38.35 40.55 38.35 40.6 38.3 40.6 37.45 41.3 36.05 41.65 35.35 41.55 34.75 41.2 34.55 40.95 33.0 39.2 Q36.05 38.1 37.45 35.1 L39.1 36.75 39.4 36.9 39.6 37.55 M31.5 13.95 Q32.25 13.15 35.05 11.95 L35.85 11.7 Q37.25 14.0 36.1 15.95 L35.6 15.9 Q33.3 15.75 32.05 15.05 L31.95 15.05 31.25 14.55 Q31.15 14.3 31.5 13.95 M18.85 34.65 L18.7 34.05 18.7 33.4 19.15 32.9 19.75 32.9 20.1 33.45 20.25 33.7 20.35 34.1 Q21.3 36.7 23.75 37.45 L24.1 37.45 24.35 37.55 24.8 37.95 24.8 38.45 24.4 39.1 23.85 39.1 23.4 38.95 23.35 39.0 23.05 38.8 Q20.25 37.8 19.0 34.95 L18.95 34.65 18.85 34.65 M18.1 21.85 L17.05 20.65 16.9 20.65 20.0 17.8 20.0 18.0 21.1 19.05 21.1 18.95 22.2 20.1 22.2 20.25 27.15 25.15 23.95 28.7 19.15 23.05 19.05 23.1 18.0 21.85 18.1 21.85 M17.1 37.0 L18.8 35.25 Q20.05 38.1 22.8 39.2 L21.25 40.95 21.05 41.25 20.55 41.55 19.85 41.75 18.6 41.3 17.8 40.75 17.75 40.85 17.75 40.7 17.6 40.55 16.9 39.7 16.45 38.4 16.6 37.75 16.9 37.1 Q17.05 36.9 17.1 37.0 M33.45 20.1 L35.7 17.8 Q36.55 19.65 38.35 20.45 L36.3 22.9 36.25 22.85 24.45 37.1 24.4 37.05 24.35 37.05 23.95 37.05 Q21.65 36.3 20.8 33.95 L20.7 33.6 20.7 33.35 33.5 20.15 33.45 20.1 M37.5 33.25 L37.5 33.85 37.35 34.45 37.3 34.55 37.15 34.8 Q35.85 37.8 32.75 38.95 L32.4 39.0 32.3 39.0 31.9 39.15 31.2 39.15 30.8 38.6 30.85 38.05 31.4 37.6 31.55 37.55 31.95 37.45 Q34.65 36.55 35.75 33.9 L35.9 33.55 36.05 33.25 36.45 32.75 37.1 32.75 37.5 33.25 M35.4 33.45 L35.35 33.9 Q34.3 36.2 31.85 37.1 L31.4 37.1 31.35 37.1 31.2 37.2 28.55 34.05 31.75 29.55 35.5 33.2 35.4 33.45" fill="#000000" fill-rule="evenodd" stroke="none"/>
      <path d="M24.8 11.9 Q21.4 9.45 17.65 13.15 L14.5 9.7 Q18.3 6.55 16.1 2.95 15.4 1.75 14.15 0.7 L13.4 0.0 14.45 0.05 Q17.4 0.2 19.9 1.25 27.75 4.45 27.5 15.25 26.55 13.15 24.8 11.9 M2.8 15.4 Q6.25 17.85 9.65 14.3 L12.8 17.7 Q8.9 21.15 11.15 24.65 12.4 26.45 14.25 27.65 3.55 27.15 0.85 19.05 0.0 16.5 0.0 13.6 L0.05 12.45 0.6 13.35 Q1.7 14.65 2.8 15.4 M17.15 10.2 Q17.45 10.55 17.85 10.5 L18.6 10.3 18.85 9.6 18.6 8.95 Q18.3 8.65 17.95 8.6 17.5 8.65 17.25 8.95 L16.95 9.5 Q16.9 9.95 17.15 10.2 M13.9 11.15 L18.65 16.25 Q19.2 16.8 18.65 17.35 L16.7 19.2 Q16.05 19.75 15.5 19.2 L10.7 14.05 Q10.15 13.45 10.8 12.9 L12.75 11.05 Q13.3 10.5 13.9 11.15 M12.75 13.0 Q12.35 13.45 12.35 14.05 12.25 14.65 12.7 15.05 13.05 15.45 13.65 15.55 L14.7 15.1 15.15 14.15 Q15.15 13.5 14.8 13.1 14.35 12.65 13.8 12.65 13.2 12.6 12.75 13.0 M9.2 16.8 Q8.9 17.1 8.9 17.45 8.9 17.85 9.2 18.15 9.45 18.4 9.8 18.4 10.15 18.5 10.45 18.2 L10.8 17.5 10.5 16.85 Q10.25 16.6 9.9 16.5 9.55 16.5 9.2 16.8" fill="#010101" fill-rule="evenodd" stroke="none"/>
    </g>
  </defs>
</svg>
