<?xml version="1.0" encoding="UTF-8" standalone="no"?>
<svg xmlns:ffdec="https://www.free-decompiler.com/flash" xmlns:xlink="http://www.w3.org/1999/xlink" ffdec:objectType="frame" height="56.0px" width="56.0px" xmlns="http://www.w3.org/2000/svg">
  <g transform="matrix(1.0, 0.0, 0.0, 1.0, 0.0, 0.0)">
    <use ffdec:characterId="39" ffdec:characterName="193_fla.Symbole300_1" height="56.0" id="back" transform="matrix(1.0, 0.0, 0.0, 1.0, 0.0, 0.0)" width="56.0" xlink:href="#sprite0"/>
    <use ffdec:characterId="41" height="55.25" id="back" transform="matrix(1.0, 0.0, 0.0, 1.0, 6.7, 0.3)" width="42.45" xlink:href="#sprite38"/>
    <use ffdec:characterId="43" height="53.8" id="up" transform="matrix(1.0, 0.0, 0.0, 1.0, 7.45, 1.05)" width="40.95" xlink:href="#sprite39"/>
  </g>
  <defs>
    <g id="sprite0" transform="matrix(1.0, 0.0, 0.0, 1.0, 0.0, 0.0)">
      <use ffdec:characterId="38" ffdec:characterName="193_fla.Symbole297_2" height="56.0" id="back" transform="matrix(1.0, 0.0, 0.0, 1.0, 0.0, 0.0)" width="56.0" xlink:href="#sprite1"/>
    </g>
    <g id="sprite1" transform="matrix(1.0, 0.0, 0.0, 1.0, 0.0, 0.0)">
      <use ffdec:characterId="37" ffdec:characterName="193_fla.Symbole294_3" height="56.0" id="back" transform="matrix(1.0, 0.0, 0.0, 1.0, 0.0, 0.0)" width="56.0" xlink:href="#sprite2"/>
    </g>
    <g id="sprite2" transform="matrix(1.0, 0.0, 0.0, 1.0, 0.0, 0.0)">
      <use ffdec:characterId="36" ffdec:characterName="193_fla.Symbole291_4" height="56.0" id="back" transform="matrix(1.0, 0.0, 0.0, 1.0, 0.0, 0.0)" width="56.0" xlink:href="#sprite3"/>
    </g>
    <g id="sprite3" transform="matrix(1.0, 0.0, 0.0, 1.0, 0.0, 0.0)">
      <use ffdec:characterId="35" ffdec:characterName="193_fla.Symbole288_5" height="56.0" id="back" transform="matrix(1.0, 0.0, 0.0, 1.0, 0.0, 0.0)" width="56.0" xlink:href="#sprite4"/>
    </g>
    <g id="sprite4" transform="matrix(1.0, 0.0, 0.0, 1.0, 0.0, 0.0)">
      <use ffdec:characterId="34" ffdec:characterName="193_fla.Symbole285_6" height="56.0" id="back" transform="matrix(1.0, 0.0, 0.0, 1.0, 0.0, 0.0)" width="56.0" xlink:href="#sprite5"/>
    </g>
    <g id="sprite5" transform="matrix(1.0, 0.0, 0.0, 1.0, 0.0, 0.0)">
      <use ffdec:characterId="33" ffdec:characterName="193_fla.Symbole282_7" height="56.0" id="back" transform="matrix(1.0, 0.0, 0.0, 1.0, 0.0, 0.0)" width="56.0" xlink:href="#sprite6"/>
    </g>
    <g id="sprite6" transform="matrix(1.0, 0.0, 0.0, 1.0, 0.0, 0.0)">
      <use ffdec:characterId="32" ffdec:characterName="193_fla.Symbole279_8" height="56.0" id="back" transform="matrix(1.0, 0.0, 0.0, 1.0, 0.0, 0.0)" width="56.0" xlink:href="#sprite7"/>
    </g>
    <g id="sprite7" transform="matrix(1.0, 0.0, 0.0, 1.0, 0.0, 0.0)">
      <use ffdec:characterId="31" ffdec:characterName="193_fla.Symbole276_9" height="56.0" id="back" transform="matrix(1.0, 0.0, 0.0, 1.0, 0.0, 0.0)" width="56.0" xlink:href="#sprite8"/>
    </g>
    <g id="sprite8" transform="matrix(1.0, 0.0, 0.0, 1.0, 0.0, 0.0)">
      <use ffdec:characterId="30" ffdec:characterName="193_fla.Symbole273_10" height="56.0" id="back" transform="matrix(1.0, 0.0, 0.0, 1.0, 0.0, 0.0)" width="56.0" xlink:href="#sprite9"/>
    </g>
    <g id="sprite9" transform="matrix(1.0, 0.0, 0.0, 1.0, 0.0, 0.0)">
      <use ffdec:characterId="29" ffdec:characterName="193_fla.Symbole270_11" height="56.0" id="back" transform="matrix(1.0, 0.0, 0.0, 1.0, 0.0, 0.0)" width="56.0" xlink:href="#sprite10"/>
    </g>
    <g id="sprite10" transform="matrix(1.0, 0.0, 0.0, 1.0, 0.0, 0.0)">
      <use ffdec:characterId="28" ffdec:characterName="193_fla.Symbole267_12" height="56.0" id="back" transform="matrix(1.0, 0.0, 0.0, 1.0, 0.0, 0.0)" width="56.0" xlink:href="#sprite11"/>
    </g>
    <g id="sprite11" transform="matrix(1.0, 0.0, 0.0, 1.0, 0.0, 0.0)">
      <use ffdec:characterId="27" ffdec:characterName="193_fla.Symbole264_13" height="56.0" id="back" transform="matrix(1.0, 0.0, 0.0, 1.0, 0.0, 0.0)" width="56.0" xlink:href="#sprite12"/>
    </g>
    <g id="sprite12" transform="matrix(1.0, 0.0, 0.0, 1.0, 0.0, 0.0)">
      <use ffdec:characterId="26" ffdec:characterName="193_fla.Symbole261_14" height="56.0" id="back" transform="matrix(1.0, 0.0, 0.0, 1.0, 0.0, 0.0)" width="56.0" xlink:href="#sprite13"/>
    </g>
    <g id="sprite13" transform="matrix(1.0, 0.0, 0.0, 1.0, 0.0, 0.0)">
      <use ffdec:characterId="25" ffdec:characterName="193_fla.Symbole258_15" height="56.0" id="back" transform="matrix(1.0, 0.0, 0.0, 1.0, 0.0, 0.0)" width="56.0" xlink:href="#sprite14"/>
    </g>
    <g id="sprite14" transform="matrix(1.0, 0.0, 0.0, 1.0, 0.0, 0.0)">
      <use ffdec:characterId="24" ffdec:characterName="193_fla.Symbole255_16" height="56.0" id="back" transform="matrix(1.0, 0.0, 0.0, 1.0, 0.0, 0.0)" width="56.0" xlink:href="#sprite15"/>
    </g>
    <g id="sprite15" transform="matrix(1.0, 0.0, 0.0, 1.0, 0.0, 0.0)">
      <use ffdec:characterId="23" ffdec:characterName="193_fla.Symbole252_17" height="56.0" id="back" transform="matrix(1.0, 0.0, 0.0, 1.0, 0.0, 0.0)" width="56.0" xlink:href="#sprite16"/>
    </g>
    <g id="sprite16" transform="matrix(1.0, 0.0, 0.0, 1.0, 0.0, 0.0)">
      <use ffdec:characterId="22" ffdec:characterName="193_fla.Symbole249_18" height="56.0" id="back" transform="matrix(1.0, 0.0, 0.0, 1.0, 0.0, 0.0)" width="56.0" xlink:href="#sprite17"/>
    </g>
    <g id="sprite17" transform="matrix(1.0, 0.0, 0.0, 1.0, 0.0, 0.0)">
      <use ffdec:characterId="21" ffdec:characterName="193_fla.Symbole246_19" height="56.0" id="back" transform="matrix(1.0, 0.0, 0.0, 1.0, 0.0, 0.0)" width="56.0" xlink:href="#sprite18"/>
    </g>
    <g id="sprite18" transform="matrix(1.0, 0.0, 0.0, 1.0, 0.0, 0.0)">
      <use ffdec:characterId="20" ffdec:characterName="193_fla.Symbole243_20" height="56.0" id="back" transform="matrix(1.0, 0.0, 0.0, 1.0, 0.0, 0.0)" width="56.0" xlink:href="#sprite19"/>
    </g>
    <g id="sprite19" transform="matrix(1.0, 0.0, 0.0, 1.0, 0.0, 0.0)">
      <use ffdec:characterId="19" ffdec:characterName="193_fla.Symbole240_21" height="56.0" id="back" transform="matrix(1.0, 0.0, 0.0, 1.0, 0.0, 0.0)" width="56.0" xlink:href="#sprite20"/>
    </g>
    <g id="sprite20" transform="matrix(1.0, 0.0, 0.0, 1.0, 0.0, 0.0)">
      <use ffdec:characterId="18" ffdec:characterName="193_fla.Symbole237_22" height="56.0" id="back" transform="matrix(1.0, 0.0, 0.0, 1.0, 0.0, 0.0)" width="56.0" xlink:href="#sprite21"/>
    </g>
    <g id="sprite21" transform="matrix(1.0, 0.0, 0.0, 1.0, 0.0, 0.0)">
      <use ffdec:characterId="17" ffdec:characterName="193_fla.Symbole234_23" height="56.0" id="back" transform="matrix(1.0, 0.0, 0.0, 1.0, 0.0, 0.0)" width="56.0" xlink:href="#sprite22"/>
    </g>
    <g id="sprite22" transform="matrix(1.0, 0.0, 0.0, 1.0, 0.0, 0.0)">
      <use ffdec:characterId="16" ffdec:characterName="193_fla.Symbole231_24" height="56.0" id="back" transform="matrix(1.0, 0.0, 0.0, 1.0, 0.0, 0.0)" width="56.0" xlink:href="#sprite23"/>
    </g>
    <g id="sprite23" transform="matrix(1.0, 0.0, 0.0, 1.0, 0.0, 0.0)">
      <use ffdec:characterId="15" ffdec:characterName="193_fla.Symbole228_25" height="56.0" id="back" transform="matrix(1.0, 0.0, 0.0, 1.0, 0.0, 0.0)" width="56.0" xlink:href="#sprite24"/>
    </g>
    <g id="sprite24" transform="matrix(1.0, 0.0, 0.0, 1.0, 0.0, 0.0)">
      <use ffdec:characterId="14" ffdec:characterName="193_fla.Symbole225_26" height="56.0" id="back" transform="matrix(1.0, 0.0, 0.0, 1.0, 0.0, 0.0)" width="56.0" xlink:href="#sprite25"/>
    </g>
    <g id="sprite25" transform="matrix(1.0, 0.0, 0.0, 1.0, 0.0, 0.0)">
      <use ffdec:characterId="13" ffdec:characterName="193_fla.Symbole222_27" height="56.0" id="back" transform="matrix(1.0, 0.0, 0.0, 1.0, 0.0, 0.0)" width="56.0" xlink:href="#sprite26"/>
    </g>
    <g id="sprite26" transform="matrix(1.0, 0.0, 0.0, 1.0, 0.0, 0.0)">
      <use ffdec:characterId="12" ffdec:characterName="193_fla.Symbole219_28" height="56.0" id="back" transform="matrix(1.0, 0.0, 0.0, 1.0, 0.0, 0.0)" width="56.0" xlink:href="#sprite27"/>
    </g>
    <g id="sprite27" transform="matrix(1.0, 0.0, 0.0, 1.0, 0.0, 0.0)">
      <use ffdec:characterId="11" ffdec:characterName="193_fla.Symbole216_29" height="56.0" id="back" transform="matrix(1.0, 0.0, 0.0, 1.0, 0.0, 0.0)" width="56.0" xlink:href="#sprite28"/>
    </g>
    <g id="sprite28" transform="matrix(1.0, 0.0, 0.0, 1.0, 0.0, 0.0)">
      <use ffdec:characterId="10" ffdec:characterName="193_fla.Symbole213_30" height="56.0" id="back" transform="matrix(1.0, 0.0, 0.0, 1.0, 0.0, 0.0)" width="56.0" xlink:href="#sprite29"/>
    </g>
    <g id="sprite29" transform="matrix(1.0, 0.0, 0.0, 1.0, 0.0, 0.0)">
      <use ffdec:characterId="9" ffdec:characterName="193_fla.Symbole210_31" height="56.0" id="back" transform="matrix(1.0, 0.0, 0.0, 1.0, 0.0, 0.0)" width="56.0" xlink:href="#sprite30"/>
    </g>
    <g id="sprite30" transform="matrix(1.0, 0.0, 0.0, 1.0, 0.0, 0.0)">
      <use ffdec:characterId="8" ffdec:characterName="193_fla.Symbole207_32" height="56.0" id="back" transform="matrix(1.0, 0.0, 0.0, 1.0, 0.0, 0.0)" width="56.0" xlink:href="#sprite31"/>
    </g>
    <g id="sprite31" transform="matrix(1.0, 0.0, 0.0, 1.0, 0.0, 0.0)">
      <use ffdec:characterId="7" ffdec:characterName="193_fla.Symbole204_33" height="56.0" id="back" transform="matrix(1.0, 0.0, 0.0, 1.0, 0.0, 0.0)" width="56.0" xlink:href="#sprite32"/>
    </g>
    <g id="sprite32" transform="matrix(1.0, 0.0, 0.0, 1.0, 0.0, 0.0)">
      <use ffdec:characterId="6" ffdec:characterName="193_fla.Symbole201_34" height="56.0" id="back" transform="matrix(1.0, 0.0, 0.0, 1.0, 0.0, 0.0)" width="56.0" xlink:href="#sprite33"/>
    </g>
    <g id="sprite33" transform="matrix(1.0, 0.0, 0.0, 1.0, 0.0, 0.0)">
      <use ffdec:characterId="5" ffdec:characterName="193_fla.Symbole198_35" height="56.0" id="back" transform="matrix(1.0, 0.0, 0.0, 1.0, 0.0, 0.0)" width="56.0" xlink:href="#sprite34"/>
    </g>
    <g id="sprite34" transform="matrix(1.0, 0.0, 0.0, 1.0, 0.0, 0.0)">
      <use ffdec:characterId="4" ffdec:characterName="193_fla.Symbole195_36" height="56.0" id="back" transform="matrix(1.0, 0.0, 0.0, 1.0, 0.0, 0.0)" width="56.0" xlink:href="#sprite35"/>
    </g>
    <g id="sprite35" transform="matrix(1.0, 0.0, 0.0, 1.0, 0.0, 0.0)">
      <use ffdec:characterId="3" ffdec:characterName="193_fla.Symbole192_37" height="56.0" id="back" transform="matrix(1.0, 0.0, 0.0, 1.0, 0.0, 0.0)" width="56.0" xlink:href="#sprite36"/>
    </g>
    <g id="sprite36" transform="matrix(1.0, 0.0, 0.0, 1.0, 0.0, 0.0)">
      <use ffdec:characterId="2" height="56.0" id="back" transform="matrix(1.0, 0.0, 0.0, 1.0, 0.0, 0.0)" width="56.0" xlink:href="#sprite37"/>
    </g>
    <g id="sprite37" transform="matrix(1.0, 0.0, 0.0, 1.0, 0.0, 0.0)">
      <use ffdec:characterId="1" height="56.0" transform="matrix(1.0, 0.0, 0.0, 1.0, 0.0, 0.0)" width="56.0" xlink:href="#shape0"/>
    </g>
    <g id="shape0" transform="matrix(1.0, 0.0, 0.0, 1.0, 0.0, 0.0)">
      <path d="M56.0 56.0 L0.0 56.0 0.0 0.0 56.0 0.0 56.0 56.0" fill="#010101" fill-opacity="0.0" fill-rule="evenodd" stroke="none"/>
    </g>
    <g id="sprite38" transform="matrix(1.0, 0.0, 0.0, 1.0, 0.75, 0.75)">
      <use ffdec:characterId="40" height="55.25" transform="matrix(1.0, 0.0, 0.0, 1.0, -0.75, -0.75)" width="42.45" xlink:href="#shape1"/>
    </g>
    <g id="shape1" transform="matrix(1.0, 0.0, 0.0, 1.0, 0.75, 0.75)">
      <path d="M36.5 10.2 L36.5 12.2 39.3 12.2 Q40.05 12.2 40.05 11.35 L35.6 1.3 Q34.65 -0.4 33.65 1.3 L29.2 11.35 Q29.2 12.2 30.0 12.2 L32.7 12.2 32.7 10.2 Q32.7 9.45 33.25 8.9 33.8 8.25 34.55 8.25 35.35 8.25 35.95 8.9 36.5 9.45 36.5 10.2 M34.5 9.25 Q34.05 9.25 33.75 9.55 33.4 9.85 33.4 10.3 L33.4 52.65 Q33.4 53.1 33.75 53.35 34.05 53.75 34.5 53.75 34.95 53.75 35.25 53.35 35.65 53.1 35.65 52.65 L35.65 10.3 Q35.65 9.85 35.25 9.55 34.95 9.25 34.5 9.25 M36.5 48.35 L36.5 52.55 Q36.5 53.2 37.05 53.2 L37.4 53.2 37.4 51.9 37.45 51.6 37.7 51.4 37.95 51.6 38.0 51.9 38.0 53.2 38.9 53.2 38.9 51.9 39.0 51.6 39.2 51.4 39.45 51.6 39.5 51.9 39.5 53.2 40.25 53.2 Q40.95 53.2 40.95 52.55 L40.95 50.3 37.05 47.6 Q36.5 47.6 36.5 48.35 M26.3 0.65 Q26.95 0.65 26.95 1.3 L26.95 3.55 23.15 6.25 Q22.5 6.25 22.5 5.5 L22.5 1.3 Q22.5 0.65 23.15 0.65 L23.4 0.65 23.4 1.95 23.5 2.3 23.75 2.45 23.95 2.3 24.05 1.95 24.05 0.65 24.95 0.65 24.95 1.95 25.0 2.3 25.25 2.45 25.5 2.3 25.55 1.95 25.55 0.65 26.3 0.65 M21.6 1.3 L21.6 43.65 21.2 44.4 20.5 44.7 19.7 44.4 Q19.4 44.05 19.4 43.65 L19.4 1.3 Q19.4 0.85 19.7 0.55 20.0 0.15 20.5 0.15 20.9 0.15 21.2 0.55 21.6 0.85 21.6 1.3 M18.0 0.85 L17.65 0.85 17.65 2.1 17.6 2.45 17.35 2.6 17.1 2.45 17.05 2.1 17.05 0.85 16.2 0.85 16.2 2.1 16.15 2.45 15.9 2.6 15.65 2.45 15.65 2.1 15.65 0.85 14.75 0.85 Q14.2 0.85 14.2 1.45 L14.2 3.75 18.0 6.4 Q18.65 6.4 18.65 5.7 L18.65 1.45 Q18.65 0.85 18.0 0.85 M5.55 0.85 L1.05 10.9 Q1.05 11.75 1.85 11.75 L4.5 11.75 4.5 9.8 Q4.5 9.0 5.15 8.4 5.65 7.8 6.45 7.8 7.2 7.8 7.8 8.4 8.3 9.0 8.3 9.8 L8.3 11.75 11.15 11.75 Q11.85 11.75 11.85 10.9 L7.4 0.85 Q6.5 -0.8 5.55 0.85 M7.1 9.1 Q6.85 8.8 6.35 8.8 5.9 8.8 5.6 9.1 5.3 9.4 5.3 9.85 L5.3 52.15 Q5.3 52.65 5.6 52.95 5.9 53.3 6.35 53.3 6.85 53.3 7.1 52.95 7.5 52.65 7.5 52.15 L7.5 9.85 Q7.5 9.4 7.1 9.1 M8.3 48.0 L8.3 52.25 Q8.3 52.85 8.95 52.85 L9.25 52.85 9.25 51.6 9.35 51.25 9.5 51.1 Q9.7 51.1 9.75 51.25 L9.85 51.6 9.85 52.85 10.75 52.85 10.75 51.6 10.8 51.25 Q10.9 51.1 11.05 51.1 L11.3 51.25 11.35 51.6 11.35 52.85 12.1 52.85 Q12.8 52.85 12.8 52.25 L12.8 49.95 8.95 47.3 Q8.3 47.3 8.3 48.0 M4.45 47.85 L4.45 52.1 Q4.45 52.7 3.8 52.7 L3.45 52.7 3.45 51.4 3.4 51.1 3.15 50.95 2.95 51.1 2.9 51.4 2.9 52.7 2.0 52.7 2.0 51.4 1.95 51.1 1.75 50.95 Q1.6 50.95 1.5 51.1 L1.45 51.4 1.45 52.7 0.55 52.7 Q0.0 52.7 0.0 52.1 L0.0 49.8 3.8 47.2 Q4.45 47.2 4.45 47.85 M21.9 45.05 Q22.45 44.45 22.45 43.7 L22.45 41.7 25.25 41.7 Q26.0 41.7 26.0 42.55 L21.55 52.65 Q20.65 54.3 19.6 52.65 L15.15 42.55 Q15.15 41.7 16.0 41.7 L18.65 41.7 18.65 43.7 Q18.65 44.45 19.25 45.05 19.75 45.65 20.55 45.65 21.3 45.65 21.9 45.05 M32.6 48.25 L32.6 52.45 Q32.6 53.1 31.95 53.1 L31.65 53.1 31.65 51.8 31.55 51.5 31.3 51.35 31.1 51.5 31.0 51.8 31.0 53.1 30.2 53.1 30.2 51.8 30.1 51.5 29.85 51.35 29.65 51.5 29.55 51.8 29.55 53.1 28.75 53.1 Q28.15 53.1 28.15 52.45 L28.15 50.2 31.95 47.55 Q32.6 47.55 32.6 48.25 Z" fill="none" stroke="#000000" stroke-linecap="round" stroke-linejoin="round" stroke-opacity="0.2" stroke-width="1.5"/>
    </g>
    <g id="sprite39" transform="matrix(1.0, 0.0, 0.0, 1.0, 0.0, 0.0)">
      <use ffdec:characterId="42" height="53.8" transform="matrix(1.0, 0.0, 0.0, 1.0, 0.0, 0.0)" width="40.95" xlink:href="#shape2"/>
    </g>
    <g id="shape2" transform="matrix(1.0, 0.0, 0.0, 1.0, 0.0, 0.0)">
      <path d="M36.5 48.35 Q36.5 47.65 37.1 47.65 L40.95 50.3 40.95 52.55 Q40.95 53.2 40.25 53.2 L39.5 53.2 39.5 51.9 39.45 51.6 Q39.3 51.45 39.2 51.45 39.05 51.45 39.0 51.6 L38.9 51.9 38.9 53.2 38.0 53.2 38.0 51.9 37.9 51.6 37.7 51.45 37.45 51.6 37.4 51.9 37.4 53.2 37.1 53.2 Q36.5 53.2 36.5 52.55 L36.5 48.35 M34.6 8.3 Q33.85 8.3 33.3 8.9 32.7 9.5 32.7 10.25 L32.7 12.2 30.05 12.2 Q29.2 12.2 29.2 11.4 L33.65 1.3 Q34.65 -0.35 35.55 1.3 L40.05 11.4 Q40.05 12.2 39.3 12.2 L36.5 12.2 36.5 10.25 Q36.5 9.5 35.95 8.9 35.35 8.3 34.6 8.3 M33.75 9.55 Q34.05 9.25 34.5 9.25 34.95 9.25 35.25 9.55 35.65 9.85 35.65 10.35 L35.65 52.65 Q35.65 53.1 35.25 53.4 34.95 53.8 34.5 53.8 34.05 53.8 33.75 53.4 33.45 53.1 33.45 52.65 L33.45 10.35 Q33.45 9.85 33.75 9.55 M26.3 0.7 Q27.0 0.7 27.0 1.3 L27.0 3.6 23.15 6.25 Q22.5 6.25 22.5 5.55 L22.5 1.3 Q22.5 0.7 23.15 0.7 L23.45 0.7 23.45 2.0 23.5 2.3 23.75 2.45 23.95 2.3 24.05 2.0 24.05 0.7 24.95 0.7 24.95 2.0 25.05 2.3 Q25.1 2.45 25.25 2.45 L25.5 2.3 25.55 2.0 25.55 0.7 26.3 0.7 M21.25 0.55 Q21.6 0.85 21.6 1.3 L21.6 43.65 21.25 44.4 20.45 44.7 Q20.0 44.7 19.7 44.4 19.4 44.1 19.4 43.65 L19.4 1.3 Q19.4 0.85 19.7 0.55 20.0 0.2 20.45 0.2 20.95 0.2 21.25 0.55 M8.35 48.05 Q8.35 47.35 8.95 47.35 L12.8 50.0 12.8 52.25 Q12.8 52.9 12.15 52.9 L11.35 52.9 11.35 51.6 11.3 51.3 11.05 51.15 10.85 51.3 10.75 51.6 10.75 52.9 9.85 52.9 9.85 51.6 9.8 51.3 9.55 51.15 Q9.45 51.15 9.3 51.3 L9.25 51.6 9.25 52.9 8.95 52.9 Q8.35 52.9 8.35 52.25 L8.35 48.05 M5.6 9.1 Q5.9 8.8 6.35 8.8 6.8 8.8 7.1 9.1 7.5 9.4 7.5 9.85 L7.5 52.2 Q7.5 52.65 7.1 52.95 6.8 53.35 6.35 53.35 5.9 53.35 5.6 52.95 5.3 52.65 5.3 52.2 L5.3 9.85 Q5.3 9.4 5.6 9.1 M5.55 0.85 Q6.5 -0.8 7.4 0.85 L11.9 10.95 Q11.9 11.75 11.15 11.75 L8.35 11.75 8.35 9.8 Q8.35 9.05 7.8 8.45 7.2 7.85 6.45 7.85 5.7 7.85 5.15 8.45 4.55 9.05 4.55 9.8 L4.55 11.75 1.9 11.75 Q1.05 11.75 1.05 10.95 L5.55 0.85 M17.95 0.85 Q18.65 0.85 18.65 1.45 L18.65 5.7 Q18.65 6.4 17.95 6.4 L14.2 3.75 14.2 1.45 Q14.2 0.85 14.8 0.85 L15.6 0.85 15.6 2.15 15.7 2.45 15.9 2.6 16.15 2.45 16.2 2.15 16.2 0.85 17.05 0.85 17.05 2.15 17.15 2.45 17.35 2.6 17.6 2.45 17.65 2.15 17.65 0.85 17.95 0.85 M4.45 47.9 L4.45 52.1 Q4.45 52.75 3.8 52.75 L3.5 52.75 3.5 51.45 3.4 51.15 3.2 51.0 Q3.0 51.0 2.95 51.15 L2.85 51.45 2.85 52.75 2.05 52.75 2.05 51.45 1.95 51.15 1.75 51.0 Q1.6 51.0 1.5 51.15 L1.45 51.45 1.45 52.75 0.6 52.75 Q0.0 52.75 0.0 52.1 L0.0 49.85 3.8 47.2 Q4.45 47.2 4.45 47.9 M20.55 45.7 Q21.3 45.7 21.9 45.1 22.45 44.45 22.45 43.7 L22.45 41.75 25.25 41.75 Q26.0 41.75 26.0 42.6 L21.55 52.65 Q20.6 54.3 19.65 52.65 L15.15 42.6 Q15.15 41.75 16.0 41.75 L18.65 41.75 18.65 43.7 Q18.65 44.45 19.25 45.1 19.8 45.7 20.55 45.7 M32.6 48.25 L32.6 52.5 Q32.6 53.1 31.95 53.1 L31.65 53.1 31.65 51.8 31.55 51.5 31.3 51.35 31.1 51.5 31.0 51.8 31.0 53.1 30.2 53.1 30.2 51.8 30.1 51.5 29.9 51.35 29.65 51.5 29.6 51.8 29.6 53.1 28.75 53.1 Q28.15 53.1 28.15 52.5 L28.15 50.25 31.95 47.6 Q32.6 47.6 32.6 48.25" fill="#000000" fill-rule="evenodd" stroke="none"/>
    </g>
  </defs>
</svg>
