<?xml version="1.0" encoding="UTF-8" standalone="no"?>
<svg xmlns:ffdec="https://www.free-decompiler.com/flash" xmlns:xlink="http://www.w3.org/1999/xlink" ffdec:objectType="frame" height="56.0px" width="56.0px" xmlns="http://www.w3.org/2000/svg">
  <g transform="matrix(1.0, 0.0, 0.0, 1.0, 0.0, 0.0)">
    <use ffdec:characterId="40" ffdec:characterName="194_fla.Symbole303_1" height="56.0" id="back" transform="matrix(1.0, 0.0, 0.0, 1.0, 0.0, 0.0)" width="56.0" xlink:href="#sprite0"/>
    <use ffdec:characterId="42" height="55.25" id="back" transform="matrix(1.0, 0.0, 0.0, 1.0, 1.65, 0.3)" width="52.45" xlink:href="#sprite39"/>
    <use ffdec:characterId="44" height="53.75" id="up" transform="matrix(1.0, 0.0, 0.0, 1.0, 2.4, 1.05)" width="50.95" xlink:href="#sprite40"/>
  </g>
  <defs>
    <g id="sprite0" transform="matrix(1.0, 0.0, 0.0, 1.0, 0.0, 0.0)">
      <use ffdec:characterId="39" ffdec:characterName="194_fla.Symbole300_2" height="56.0" id="back" transform="matrix(1.0, 0.0, 0.0, 1.0, 0.0, 0.0)" width="56.0" xlink:href="#sprite1"/>
    </g>
    <g id="sprite1" transform="matrix(1.0, 0.0, 0.0, 1.0, 0.0, 0.0)">
      <use ffdec:characterId="38" ffdec:characterName="194_fla.Symbole297_3" height="56.0" id="back" transform="matrix(1.0, 0.0, 0.0, 1.0, 0.0, 0.0)" width="56.0" xlink:href="#sprite2"/>
    </g>
    <g id="sprite2" transform="matrix(1.0, 0.0, 0.0, 1.0, 0.0, 0.0)">
      <use ffdec:characterId="37" ffdec:characterName="194_fla.Symbole294_4" height="56.0" id="back" transform="matrix(1.0, 0.0, 0.0, 1.0, 0.0, 0.0)" width="56.0" xlink:href="#sprite3"/>
    </g>
    <g id="sprite3" transform="matrix(1.0, 0.0, 0.0, 1.0, 0.0, 0.0)">
      <use ffdec:characterId="36" ffdec:characterName="194_fla.Symbole291_5" height="56.0" id="back" transform="matrix(1.0, 0.0, 0.0, 1.0, 0.0, 0.0)" width="56.0" xlink:href="#sprite4"/>
    </g>
    <g id="sprite4" transform="matrix(1.0, 0.0, 0.0, 1.0, 0.0, 0.0)">
      <use ffdec:characterId="35" ffdec:characterName="194_fla.Symbole288_6" height="56.0" id="back" transform="matrix(1.0, 0.0, 0.0, 1.0, 0.0, 0.0)" width="56.0" xlink:href="#sprite5"/>
    </g>
    <g id="sprite5" transform="matrix(1.0, 0.0, 0.0, 1.0, 0.0, 0.0)">
      <use ffdec:characterId="34" ffdec:characterName="194_fla.Symbole285_7" height="56.0" id="back" transform="matrix(1.0, 0.0, 0.0, 1.0, 0.0, 0.0)" width="56.0" xlink:href="#sprite6"/>
    </g>
    <g id="sprite6" transform="matrix(1.0, 0.0, 0.0, 1.0, 0.0, 0.0)">
      <use ffdec:characterId="33" ffdec:characterName="194_fla.Symbole282_8" height="56.0" id="back" transform="matrix(1.0, 0.0, 0.0, 1.0, 0.0, 0.0)" width="56.0" xlink:href="#sprite7"/>
    </g>
    <g id="sprite7" transform="matrix(1.0, 0.0, 0.0, 1.0, 0.0, 0.0)">
      <use ffdec:characterId="32" ffdec:characterName="194_fla.Symbole279_9" height="56.0" id="back" transform="matrix(1.0, 0.0, 0.0, 1.0, 0.0, 0.0)" width="56.0" xlink:href="#sprite8"/>
    </g>
    <g id="sprite8" transform="matrix(1.0, 0.0, 0.0, 1.0, 0.0, 0.0)">
      <use ffdec:characterId="31" ffdec:characterName="194_fla.Symbole276_10" height="56.0" id="back" transform="matrix(1.0, 0.0, 0.0, 1.0, 0.0, 0.0)" width="56.0" xlink:href="#sprite9"/>
    </g>
    <g id="sprite9" transform="matrix(1.0, 0.0, 0.0, 1.0, 0.0, 0.0)">
      <use ffdec:characterId="30" ffdec:characterName="194_fla.Symbole273_11" height="56.0" id="back" transform="matrix(1.0, 0.0, 0.0, 1.0, 0.0, 0.0)" width="56.0" xlink:href="#sprite10"/>
    </g>
    <g id="sprite10" transform="matrix(1.0, 0.0, 0.0, 1.0, 0.0, 0.0)">
      <use ffdec:characterId="29" ffdec:characterName="194_fla.Symbole270_12" height="56.0" id="back" transform="matrix(1.0, 0.0, 0.0, 1.0, 0.0, 0.0)" width="56.0" xlink:href="#sprite11"/>
    </g>
    <g id="sprite11" transform="matrix(1.0, 0.0, 0.0, 1.0, 0.0, 0.0)">
      <use ffdec:characterId="28" ffdec:characterName="194_fla.Symbole267_13" height="56.0" id="back" transform="matrix(1.0, 0.0, 0.0, 1.0, 0.0, 0.0)" width="56.0" xlink:href="#sprite12"/>
    </g>
    <g id="sprite12" transform="matrix(1.0, 0.0, 0.0, 1.0, 0.0, 0.0)">
      <use ffdec:characterId="27" ffdec:characterName="194_fla.Symbole264_14" height="56.0" id="back" transform="matrix(1.0, 0.0, 0.0, 1.0, 0.0, 0.0)" width="56.0" xlink:href="#sprite13"/>
    </g>
    <g id="sprite13" transform="matrix(1.0, 0.0, 0.0, 1.0, 0.0, 0.0)">
      <use ffdec:characterId="26" ffdec:characterName="194_fla.Symbole261_15" height="56.0" id="back" transform="matrix(1.0, 0.0, 0.0, 1.0, 0.0, 0.0)" width="56.0" xlink:href="#sprite14"/>
    </g>
    <g id="sprite14" transform="matrix(1.0, 0.0, 0.0, 1.0, 0.0, 0.0)">
      <use ffdec:characterId="25" ffdec:characterName="194_fla.Symbole258_16" height="56.0" id="back" transform="matrix(1.0, 0.0, 0.0, 1.0, 0.0, 0.0)" width="56.0" xlink:href="#sprite15"/>
    </g>
    <g id="sprite15" transform="matrix(1.0, 0.0, 0.0, 1.0, 0.0, 0.0)">
      <use ffdec:characterId="24" ffdec:characterName="194_fla.Symbole255_17" height="56.0" id="back" transform="matrix(1.0, 0.0, 0.0, 1.0, 0.0, 0.0)" width="56.0" xlink:href="#sprite16"/>
    </g>
    <g id="sprite16" transform="matrix(1.0, 0.0, 0.0, 1.0, 0.0, 0.0)">
      <use ffdec:characterId="23" ffdec:characterName="194_fla.Symbole252_18" height="56.0" id="back" transform="matrix(1.0, 0.0, 0.0, 1.0, 0.0, 0.0)" width="56.0" xlink:href="#sprite17"/>
    </g>
    <g id="sprite17" transform="matrix(1.0, 0.0, 0.0, 1.0, 0.0, 0.0)">
      <use ffdec:characterId="22" ffdec:characterName="194_fla.Symbole249_19" height="56.0" id="back" transform="matrix(1.0, 0.0, 0.0, 1.0, 0.0, 0.0)" width="56.0" xlink:href="#sprite18"/>
    </g>
    <g id="sprite18" transform="matrix(1.0, 0.0, 0.0, 1.0, 0.0, 0.0)">
      <use ffdec:characterId="21" ffdec:characterName="194_fla.Symbole246_20" height="56.0" id="back" transform="matrix(1.0, 0.0, 0.0, 1.0, 0.0, 0.0)" width="56.0" xlink:href="#sprite19"/>
    </g>
    <g id="sprite19" transform="matrix(1.0, 0.0, 0.0, 1.0, 0.0, 0.0)">
      <use ffdec:characterId="20" ffdec:characterName="194_fla.Symbole243_21" height="56.0" id="back" transform="matrix(1.0, 0.0, 0.0, 1.0, 0.0, 0.0)" width="56.0" xlink:href="#sprite20"/>
    </g>
    <g id="sprite20" transform="matrix(1.0, 0.0, 0.0, 1.0, 0.0, 0.0)">
      <use ffdec:characterId="19" ffdec:characterName="194_fla.Symbole240_22" height="56.0" id="back" transform="matrix(1.0, 0.0, 0.0, 1.0, 0.0, 0.0)" width="56.0" xlink:href="#sprite21"/>
    </g>
    <g id="sprite21" transform="matrix(1.0, 0.0, 0.0, 1.0, 0.0, 0.0)">
      <use ffdec:characterId="18" ffdec:characterName="194_fla.Symbole237_23" height="56.0" id="back" transform="matrix(1.0, 0.0, 0.0, 1.0, 0.0, 0.0)" width="56.0" xlink:href="#sprite22"/>
    </g>
    <g id="sprite22" transform="matrix(1.0, 0.0, 0.0, 1.0, 0.0, 0.0)">
      <use ffdec:characterId="17" ffdec:characterName="194_fla.Symbole234_24" height="56.0" id="back" transform="matrix(1.0, 0.0, 0.0, 1.0, 0.0, 0.0)" width="56.0" xlink:href="#sprite23"/>
    </g>
    <g id="sprite23" transform="matrix(1.0, 0.0, 0.0, 1.0, 0.0, 0.0)">
      <use ffdec:characterId="16" ffdec:characterName="194_fla.Symbole231_25" height="56.0" id="back" transform="matrix(1.0, 0.0, 0.0, 1.0, 0.0, 0.0)" width="56.0" xlink:href="#sprite24"/>
    </g>
    <g id="sprite24" transform="matrix(1.0, 0.0, 0.0, 1.0, 0.0, 0.0)">
      <use ffdec:characterId="15" ffdec:characterName="194_fla.Symbole228_26" height="56.0" id="back" transform="matrix(1.0, 0.0, 0.0, 1.0, 0.0, 0.0)" width="56.0" xlink:href="#sprite25"/>
    </g>
    <g id="sprite25" transform="matrix(1.0, 0.0, 0.0, 1.0, 0.0, 0.0)">
      <use ffdec:characterId="14" ffdec:characterName="194_fla.Symbole225_27" height="56.0" id="back" transform="matrix(1.0, 0.0, 0.0, 1.0, 0.0, 0.0)" width="56.0" xlink:href="#sprite26"/>
    </g>
    <g id="sprite26" transform="matrix(1.0, 0.0, 0.0, 1.0, 0.0, 0.0)">
      <use ffdec:characterId="13" ffdec:characterName="194_fla.Symbole222_28" height="56.0" id="back" transform="matrix(1.0, 0.0, 0.0, 1.0, 0.0, 0.0)" width="56.0" xlink:href="#sprite27"/>
    </g>
    <g id="sprite27" transform="matrix(1.0, 0.0, 0.0, 1.0, 0.0, 0.0)">
      <use ffdec:characterId="12" ffdec:characterName="194_fla.Symbole219_29" height="56.0" id="back" transform="matrix(1.0, 0.0, 0.0, 1.0, 0.0, 0.0)" width="56.0" xlink:href="#sprite28"/>
    </g>
    <g id="sprite28" transform="matrix(1.0, 0.0, 0.0, 1.0, 0.0, 0.0)">
      <use ffdec:characterId="11" ffdec:characterName="194_fla.Symbole216_30" height="56.0" id="back" transform="matrix(1.0, 0.0, 0.0, 1.0, 0.0, 0.0)" width="56.0" xlink:href="#sprite29"/>
    </g>
    <g id="sprite29" transform="matrix(1.0, 0.0, 0.0, 1.0, 0.0, 0.0)">
      <use ffdec:characterId="10" ffdec:characterName="194_fla.Symbole213_31" height="56.0" id="back" transform="matrix(1.0, 0.0, 0.0, 1.0, 0.0, 0.0)" width="56.0" xlink:href="#sprite30"/>
    </g>
    <g id="sprite30" transform="matrix(1.0, 0.0, 0.0, 1.0, 0.0, 0.0)">
      <use ffdec:characterId="9" ffdec:characterName="194_fla.Symbole210_32" height="56.0" id="back" transform="matrix(1.0, 0.0, 0.0, 1.0, 0.0, 0.0)" width="56.0" xlink:href="#sprite31"/>
    </g>
    <g id="sprite31" transform="matrix(1.0, 0.0, 0.0, 1.0, 0.0, 0.0)">
      <use ffdec:characterId="8" ffdec:characterName="194_fla.Symbole207_33" height="56.0" id="back" transform="matrix(1.0, 0.0, 0.0, 1.0, 0.0, 0.0)" width="56.0" xlink:href="#sprite32"/>
    </g>
    <g id="sprite32" transform="matrix(1.0, 0.0, 0.0, 1.0, 0.0, 0.0)">
      <use ffdec:characterId="7" ffdec:characterName="194_fla.Symbole204_34" height="56.0" id="back" transform="matrix(1.0, 0.0, 0.0, 1.0, 0.0, 0.0)" width="56.0" xlink:href="#sprite33"/>
    </g>
    <g id="sprite33" transform="matrix(1.0, 0.0, 0.0, 1.0, 0.0, 0.0)">
      <use ffdec:characterId="6" ffdec:characterName="194_fla.Symbole201_35" height="56.0" id="back" transform="matrix(1.0, 0.0, 0.0, 1.0, 0.0, 0.0)" width="56.0" xlink:href="#sprite34"/>
    </g>
    <g id="sprite34" transform="matrix(1.0, 0.0, 0.0, 1.0, 0.0, 0.0)">
      <use ffdec:characterId="5" ffdec:characterName="194_fla.Symbole198_36" height="56.0" id="back" transform="matrix(1.0, 0.0, 0.0, 1.0, 0.0, 0.0)" width="56.0" xlink:href="#sprite35"/>
    </g>
    <g id="sprite35" transform="matrix(1.0, 0.0, 0.0, 1.0, 0.0, 0.0)">
      <use ffdec:characterId="4" ffdec:characterName="194_fla.Symbole195_37" height="56.0" id="back" transform="matrix(1.0, 0.0, 0.0, 1.0, 0.0, 0.0)" width="56.0" xlink:href="#sprite36"/>
    </g>
    <g id="sprite36" transform="matrix(1.0, 0.0, 0.0, 1.0, 0.0, 0.0)">
      <use ffdec:characterId="3" ffdec:characterName="194_fla.Symbole192_38" height="56.0" id="back" transform="matrix(1.0, 0.0, 0.0, 1.0, 0.0, 0.0)" width="56.0" xlink:href="#sprite37"/>
    </g>
    <g id="sprite37" transform="matrix(1.0, 0.0, 0.0, 1.0, 0.0, 0.0)">
      <use ffdec:characterId="2" height="56.0" id="back" transform="matrix(1.0, 0.0, 0.0, 1.0, 0.0, 0.0)" width="56.0" xlink:href="#sprite38"/>
    </g>
    <g id="sprite38" transform="matrix(1.0, 0.0, 0.0, 1.0, 0.0, 0.0)">
      <use ffdec:characterId="1" height="56.0" transform="matrix(1.0, 0.0, 0.0, 1.0, 0.0, 0.0)" width="56.0" xlink:href="#shape0"/>
    </g>
    <g id="shape0" transform="matrix(1.0, 0.0, 0.0, 1.0, 0.0, 0.0)">
      <path d="M56.0 56.0 L0.0 56.0 0.0 0.0 56.0 0.0 56.0 56.0" fill="#010101" fill-opacity="0.0" fill-rule="evenodd" stroke="none"/>
    </g>
    <g id="sprite39" transform="matrix(1.0, 0.0, 0.0, 1.0, 0.75, 0.75)">
      <use ffdec:characterId="41" height="55.25" transform="matrix(1.0, 0.0, 0.0, 1.0, -0.75, -0.75)" width="52.45" xlink:href="#shape1"/>
    </g>
    <g id="shape1" transform="matrix(1.0, 0.0, 0.0, 1.0, 0.75, 0.75)">
      <path d="M48.8 0.2 L36.15 5.6 Q35.5 6.45 36.25 7.1 L38.65 9.35 40.3 7.5 Q41.0 6.8 42.05 6.8 42.95 6.7 43.65 7.35 44.4 8.05 44.45 9.05 44.55 10.0 43.8 10.7 L42.15 12.55 44.65 14.9 Q45.45 15.5 46.15 14.75 L50.55 1.75 Q51.15 -0.6 48.8 0.2 M40.9 8.3 L25.7 24.75 10.15 8.1 Q9.75 7.75 9.15 7.7 8.65 7.7 8.2 8.05 7.8 8.45 7.75 9.0 7.8 9.6 8.2 10.0 L23.95 26.8 5.0 47.3 Q4.6 47.65 4.7 48.2 4.6 48.8 5.1 49.2 5.5 49.55 6.1 49.55 L6.95 49.05 25.7 28.75 44.15 48.45 Q44.55 48.8 45.0 48.8 45.6 48.8 46.0 48.45 46.45 48.05 46.4 47.45 46.45 46.95 46.05 46.55 L27.5 26.75 42.9 10.1 Q43.3 9.7 43.3 9.1 43.3 8.5 42.9 8.2 42.4 7.8 41.95 7.8 41.3 7.85 40.9 8.3 M39.05 23.45 L36.55 19.85 36.25 24.4 32.0 25.85 36.15 27.25 36.25 31.75 38.8 28.25 43.3 29.6 40.7 25.85 43.3 22.2 39.05 23.45 M43.05 41.8 L46.7 45.7 Q47.15 46.25 47.7 45.7 L48.05 45.45 46.95 44.3 46.8 43.9 46.85 43.6 47.15 43.55 47.45 43.75 48.55 44.9 49.35 44.2 48.3 43.05 48.1 42.65 48.2 42.4 Q48.3 42.3 48.45 42.3 L48.8 42.5 49.9 43.7 50.7 42.95 Q51.2 42.45 50.75 41.9 L48.8 39.9 43.05 40.7 Q42.5 41.3 43.05 41.8 M39.5 45.2 L43.2 49.15 Q43.65 49.7 43.15 50.2 L42.8 50.55 41.7 49.35 41.4 49.15 41.0 49.2 41.0 49.45 41.15 49.8 42.25 50.95 41.5 51.8 40.4 50.6 40.05 50.35 39.65 50.45 39.6 50.8 39.75 51.15 40.85 52.3 40.15 53.05 39.05 52.95 37.1 50.9 38.4 45.2 Q39.0 44.7 39.5 45.2 M22.15 7.85 L23.7 12.0 20.2 14.9 24.7 14.75 26.45 18.85 27.7 14.6 32.1 14.2 28.45 11.85 29.55 7.35 25.95 10.2 22.15 7.85 M14.8 6.85 L12.4 9.1 10.75 7.35 Q10.05 6.65 9.05 6.65 8.1 6.6 7.4 7.2 6.75 7.85 6.65 8.95 6.55 9.95 7.25 10.6 L8.9 12.4 6.4 14.85 Q5.6 15.5 4.9 14.75 L0.6 1.75 Q-0.05 -0.6 2.25 0.2 L14.9 5.4 Q15.6 6.2 14.8 6.85 M10.85 26.55 L8.2 23.1 12.5 24.25 15.0 20.6 15.3 25.1 19.5 26.5 15.4 28.05 15.3 32.5 12.75 29.0 8.25 30.5 10.85 26.55 M0.25 42.65 L2.2 40.55 8.0 41.4 Q8.5 41.9 8.0 42.45 L4.3 46.4 3.25 46.45 3.0 46.15 4.1 45.0 4.25 44.65 4.15 44.3 3.85 44.3 3.5 44.55 2.45 45.7 1.65 45.0 2.75 43.8 2.9 43.45 2.85 43.05 2.5 43.05 2.2 43.3 1.1 44.45 0.35 43.75 Q-0.25 43.2 0.25 42.65 M11.5 45.7 L7.8 49.7 Q7.35 50.2 7.9 50.8 L8.2 50.95 9.3 49.8 9.6 49.6 10.0 49.7 10.0 49.95 9.85 50.35 8.75 51.55 9.5 52.2 10.65 51.05 10.9 50.85 11.3 50.9 11.4 51.2 11.25 51.6 10.15 52.8 10.85 53.45 Q11.5 54.05 11.9 53.45 L13.9 51.4 12.55 45.7 Q12.0 45.15 11.5 45.7 M19.9 37.8 L24.45 37.8 26.1 33.75 27.35 37.9 31.85 38.3 28.15 40.65 29.25 45.05 25.7 42.4 21.85 44.8 23.4 40.65 19.9 37.8 Z" fill="none" stroke="#000000" stroke-linecap="round" stroke-linejoin="round" stroke-opacity="0.2" stroke-width="1.5"/>
    </g>
    <g id="sprite40" transform="matrix(1.0, 0.0, 0.0, 1.0, 0.0, 0.0)">
      <use ffdec:characterId="43" height="53.75" transform="matrix(1.0, 0.0, 0.0, 1.0, 0.0, 0.0)" width="50.95" xlink:href="#shape2"/>
    </g>
    <g id="shape2" transform="matrix(1.0, 0.0, 0.0, 1.0, 0.0, 0.0)">
      <path d="M43.05 41.8 Q42.5 41.3 43.05 40.7 L48.8 39.9 50.75 41.9 Q51.2 42.45 50.7 42.95 L49.9 43.7 48.8 42.5 48.45 42.3 Q48.3 42.3 48.2 42.4 L48.1 42.65 48.3 43.05 49.35 44.2 48.55 44.9 47.45 43.75 47.15 43.55 46.85 43.6 46.8 43.9 46.95 44.3 48.05 45.45 47.7 45.7 Q47.15 46.25 46.7 45.7 L43.05 41.8 M39.05 23.45 L43.3 22.2 40.7 25.85 43.3 29.6 38.8 28.25 36.25 31.75 36.15 27.25 32.0 25.85 36.25 24.4 36.55 19.85 39.05 23.45 M40.9 8.3 Q41.3 7.85 41.95 7.8 42.4 7.8 42.9 8.2 43.3 8.5 43.3 9.1 43.3 9.7 42.9 10.1 L27.5 26.75 46.05 46.55 Q46.45 46.95 46.4 47.45 46.45 48.05 46.0 48.45 45.6 48.8 45.0 48.8 44.55 48.8 44.15 48.45 L25.7 28.75 6.95 49.05 6.1 49.55 Q5.5 49.55 5.1 49.2 4.6 48.8 4.7 48.2 4.6 47.65 5.0 47.3 L23.95 26.8 8.2 10.0 Q7.8 9.6 7.75 9.0 7.8 8.45 8.2 8.05 8.65 7.7 9.15 7.7 9.75 7.75 10.15 8.1 L25.7 24.75 40.9 8.3 M48.8 0.2 Q51.15 -0.6 50.55 1.75 L46.15 14.75 Q45.45 15.5 44.65 14.9 L42.15 12.55 43.8 10.7 Q44.55 10.0 44.45 9.05 44.4 8.05 43.65 7.35 42.95 6.7 42.05 6.8 41.0 6.8 40.3 7.5 L38.65 9.35 36.25 7.1 Q35.5 6.45 36.15 5.6 L48.8 0.2 M39.5 45.2 L43.2 49.15 Q43.65 49.7 43.15 50.2 L42.8 50.55 41.7 49.35 41.4 49.15 41.0 49.2 41.0 49.45 41.15 49.8 42.25 50.95 41.5 51.8 40.4 50.6 40.05 50.35 39.65 50.45 39.6 50.8 39.75 51.15 40.85 52.3 40.15 53.05 39.05 52.95 37.1 50.9 38.4 45.2 Q39.0 44.7 39.5 45.2 M22.15 7.85 L25.95 10.2 29.55 7.35 28.45 11.85 32.1 14.2 27.7 14.6 26.45 18.85 24.7 14.75 20.2 14.9 23.7 12.0 22.15 7.85 M14.8 6.85 L12.4 9.1 10.75 7.35 Q10.05 6.65 9.05 6.65 8.1 6.6 7.4 7.2 6.75 7.85 6.65 8.95 6.55 9.95 7.25 10.6 L8.9 12.4 6.4 14.85 Q5.6 15.5 4.9 14.75 L0.6 1.75 Q-0.05 -0.6 2.25 0.2 L14.9 5.4 Q15.6 6.2 14.8 6.85 M8.25 30.5 L10.85 26.55 8.2 23.1 12.5 24.25 15.0 20.6 15.3 25.1 19.5 26.5 15.4 28.05 15.3 32.5 12.75 29.0 8.25 30.5 M0.25 42.65 L2.2 40.55 8.0 41.4 Q8.5 41.9 8.0 42.45 L4.3 46.4 3.25 46.45 3.0 46.15 4.1 45.0 4.25 44.65 4.15 44.3 3.85 44.3 3.5 44.55 2.45 45.7 1.65 45.0 2.75 43.8 2.9 43.45 2.85 43.05 2.5 43.05 2.2 43.3 1.1 44.45 0.35 43.75 Q-0.25 43.2 0.25 42.65 M11.5 45.7 Q12.0 45.15 12.55 45.7 L13.9 51.4 11.9 53.45 Q11.5 54.05 10.85 53.45 L10.15 52.8 11.25 51.6 11.4 51.2 11.3 50.9 10.9 50.85 10.65 51.05 9.5 52.2 8.75 51.55 9.85 50.35 10.0 49.95 10.0 49.7 9.6 49.6 9.3 49.8 8.2 50.95 7.9 50.8 Q7.35 50.2 7.8 49.7 L11.5 45.7 M19.9 37.8 L24.45 37.8 26.1 33.75 27.35 37.9 31.85 38.3 28.15 40.65 29.25 45.05 25.7 42.4 21.85 44.8 23.4 40.65 19.9 37.8" fill="#000000" fill-rule="evenodd" stroke="none"/>
    </g>
  </defs>
</svg>
