<?xml version="1.0" encoding="UTF-8" standalone="no"?>
<svg xmlns:ffdec="https://www.free-decompiler.com/flash" xmlns:xlink="http://www.w3.org/1999/xlink" ffdec:objectType="frame" height="56.0px" width="56.0px" xmlns="http://www.w3.org/2000/svg">
  <g transform="matrix(1.0, 0.0, 0.0, 1.0, 0.0, 0.0)">
    <use ffdec:characterId="42" ffdec:characterName="196_fla.Symbole309_1" height="56.0" id="back" transform="matrix(1.0, 0.0, 0.0, 1.0, 0.0, 0.0)" width="56.0" xlink:href="#sprite0"/>
    <use ffdec:characterId="44" height="55.05" id="back" transform="matrix(1.0, 0.0, 0.0, 1.0, 0.35, 0.3)" width="55.35" xlink:href="#sprite41"/>
    <use ffdec:characterId="46" height="53.55" id="up" transform="matrix(1.0, 0.0, 0.0, 1.0, 1.1, 1.05)" width="53.85" xlink:href="#sprite42"/>
  </g>
  <defs>
    <g id="sprite0" transform="matrix(1.0, 0.0, 0.0, 1.0, 0.0, 0.0)">
      <use ffdec:characterId="41" ffdec:characterName="196_fla.Symbole306_2" height="56.0" id="back" transform="matrix(1.0, 0.0, 0.0, 1.0, 0.0, 0.0)" width="56.0" xlink:href="#sprite1"/>
    </g>
    <g id="sprite1" transform="matrix(1.0, 0.0, 0.0, 1.0, 0.0, 0.0)">
      <use ffdec:characterId="40" ffdec:characterName="196_fla.Symbole303_3" height="56.0" id="back" transform="matrix(1.0, 0.0, 0.0, 1.0, 0.0, 0.0)" width="56.0" xlink:href="#sprite2"/>
    </g>
    <g id="sprite2" transform="matrix(1.0, 0.0, 0.0, 1.0, 0.0, 0.0)">
      <use ffdec:characterId="39" ffdec:characterName="196_fla.Symbole300_4" height="56.0" id="back" transform="matrix(1.0, 0.0, 0.0, 1.0, 0.0, 0.0)" width="56.0" xlink:href="#sprite3"/>
    </g>
    <g id="sprite3" transform="matrix(1.0, 0.0, 0.0, 1.0, 0.0, 0.0)">
      <use ffdec:characterId="38" ffdec:characterName="196_fla.Symbole297_5" height="56.0" id="back" transform="matrix(1.0, 0.0, 0.0, 1.0, 0.0, 0.0)" width="56.0" xlink:href="#sprite4"/>
    </g>
    <g id="sprite4" transform="matrix(1.0, 0.0, 0.0, 1.0, 0.0, 0.0)">
      <use ffdec:characterId="37" ffdec:characterName="196_fla.Symbole294_6" height="56.0" id="back" transform="matrix(1.0, 0.0, 0.0, 1.0, 0.0, 0.0)" width="56.0" xlink:href="#sprite5"/>
    </g>
    <g id="sprite5" transform="matrix(1.0, 0.0, 0.0, 1.0, 0.0, 0.0)">
      <use ffdec:characterId="36" ffdec:characterName="196_fla.Symbole291_7" height="56.0" id="back" transform="matrix(1.0, 0.0, 0.0, 1.0, 0.0, 0.0)" width="56.0" xlink:href="#sprite6"/>
    </g>
    <g id="sprite6" transform="matrix(1.0, 0.0, 0.0, 1.0, 0.0, 0.0)">
      <use ffdec:characterId="35" ffdec:characterName="196_fla.Symbole288_8" height="56.0" id="back" transform="matrix(1.0, 0.0, 0.0, 1.0, 0.0, 0.0)" width="56.0" xlink:href="#sprite7"/>
    </g>
    <g id="sprite7" transform="matrix(1.0, 0.0, 0.0, 1.0, 0.0, 0.0)">
      <use ffdec:characterId="34" ffdec:characterName="196_fla.Symbole285_9" height="56.0" id="back" transform="matrix(1.0, 0.0, 0.0, 1.0, 0.0, 0.0)" width="56.0" xlink:href="#sprite8"/>
    </g>
    <g id="sprite8" transform="matrix(1.0, 0.0, 0.0, 1.0, 0.0, 0.0)">
      <use ffdec:characterId="33" ffdec:characterName="196_fla.Symbole282_10" height="56.0" id="back" transform="matrix(1.0, 0.0, 0.0, 1.0, 0.0, 0.0)" width="56.0" xlink:href="#sprite9"/>
    </g>
    <g id="sprite9" transform="matrix(1.0, 0.0, 0.0, 1.0, 0.0, 0.0)">
      <use ffdec:characterId="32" ffdec:characterName="196_fla.Symbole279_11" height="56.0" id="back" transform="matrix(1.0, 0.0, 0.0, 1.0, 0.0, 0.0)" width="56.0" xlink:href="#sprite10"/>
    </g>
    <g id="sprite10" transform="matrix(1.0, 0.0, 0.0, 1.0, 0.0, 0.0)">
      <use ffdec:characterId="31" ffdec:characterName="196_fla.Symbole276_12" height="56.0" id="back" transform="matrix(1.0, 0.0, 0.0, 1.0, 0.0, 0.0)" width="56.0" xlink:href="#sprite11"/>
    </g>
    <g id="sprite11" transform="matrix(1.0, 0.0, 0.0, 1.0, 0.0, 0.0)">
      <use ffdec:characterId="30" ffdec:characterName="196_fla.Symbole273_13" height="56.0" id="back" transform="matrix(1.0, 0.0, 0.0, 1.0, 0.0, 0.0)" width="56.0" xlink:href="#sprite12"/>
    </g>
    <g id="sprite12" transform="matrix(1.0, 0.0, 0.0, 1.0, 0.0, 0.0)">
      <use ffdec:characterId="29" ffdec:characterName="196_fla.Symbole270_14" height="56.0" id="back" transform="matrix(1.0, 0.0, 0.0, 1.0, 0.0, 0.0)" width="56.0" xlink:href="#sprite13"/>
    </g>
    <g id="sprite13" transform="matrix(1.0, 0.0, 0.0, 1.0, 0.0, 0.0)">
      <use ffdec:characterId="28" ffdec:characterName="196_fla.Symbole267_15" height="56.0" id="back" transform="matrix(1.0, 0.0, 0.0, 1.0, 0.0, 0.0)" width="56.0" xlink:href="#sprite14"/>
    </g>
    <g id="sprite14" transform="matrix(1.0, 0.0, 0.0, 1.0, 0.0, 0.0)">
      <use ffdec:characterId="27" ffdec:characterName="196_fla.Symbole264_16" height="56.0" id="back" transform="matrix(1.0, 0.0, 0.0, 1.0, 0.0, 0.0)" width="56.0" xlink:href="#sprite15"/>
    </g>
    <g id="sprite15" transform="matrix(1.0, 0.0, 0.0, 1.0, 0.0, 0.0)">
      <use ffdec:characterId="26" ffdec:characterName="196_fla.Symbole261_17" height="56.0" id="back" transform="matrix(1.0, 0.0, 0.0, 1.0, 0.0, 0.0)" width="56.0" xlink:href="#sprite16"/>
    </g>
    <g id="sprite16" transform="matrix(1.0, 0.0, 0.0, 1.0, 0.0, 0.0)">
      <use ffdec:characterId="25" ffdec:characterName="196_fla.Symbole258_18" height="56.0" id="back" transform="matrix(1.0, 0.0, 0.0, 1.0, 0.0, 0.0)" width="56.0" xlink:href="#sprite17"/>
    </g>
    <g id="sprite17" transform="matrix(1.0, 0.0, 0.0, 1.0, 0.0, 0.0)">
      <use ffdec:characterId="24" ffdec:characterName="196_fla.Symbole255_19" height="56.0" id="back" transform="matrix(1.0, 0.0, 0.0, 1.0, 0.0, 0.0)" width="56.0" xlink:href="#sprite18"/>
    </g>
    <g id="sprite18" transform="matrix(1.0, 0.0, 0.0, 1.0, 0.0, 0.0)">
      <use ffdec:characterId="23" ffdec:characterName="196_fla.Symbole252_20" height="56.0" id="back" transform="matrix(1.0, 0.0, 0.0, 1.0, 0.0, 0.0)" width="56.0" xlink:href="#sprite19"/>
    </g>
    <g id="sprite19" transform="matrix(1.0, 0.0, 0.0, 1.0, 0.0, 0.0)">
      <use ffdec:characterId="22" ffdec:characterName="196_fla.Symbole249_21" height="56.0" id="back" transform="matrix(1.0, 0.0, 0.0, 1.0, 0.0, 0.0)" width="56.0" xlink:href="#sprite20"/>
    </g>
    <g id="sprite20" transform="matrix(1.0, 0.0, 0.0, 1.0, 0.0, 0.0)">
      <use ffdec:characterId="21" ffdec:characterName="196_fla.Symbole246_22" height="56.0" id="back" transform="matrix(1.0, 0.0, 0.0, 1.0, 0.0, 0.0)" width="56.0" xlink:href="#sprite21"/>
    </g>
    <g id="sprite21" transform="matrix(1.0, 0.0, 0.0, 1.0, 0.0, 0.0)">
      <use ffdec:characterId="20" ffdec:characterName="196_fla.Symbole243_23" height="56.0" id="back" transform="matrix(1.0, 0.0, 0.0, 1.0, 0.0, 0.0)" width="56.0" xlink:href="#sprite22"/>
    </g>
    <g id="sprite22" transform="matrix(1.0, 0.0, 0.0, 1.0, 0.0, 0.0)">
      <use ffdec:characterId="19" ffdec:characterName="196_fla.Symbole240_24" height="56.0" id="back" transform="matrix(1.0, 0.0, 0.0, 1.0, 0.0, 0.0)" width="56.0" xlink:href="#sprite23"/>
    </g>
    <g id="sprite23" transform="matrix(1.0, 0.0, 0.0, 1.0, 0.0, 0.0)">
      <use ffdec:characterId="18" ffdec:characterName="196_fla.Symbole237_25" height="56.0" id="back" transform="matrix(1.0, 0.0, 0.0, 1.0, 0.0, 0.0)" width="56.0" xlink:href="#sprite24"/>
    </g>
    <g id="sprite24" transform="matrix(1.0, 0.0, 0.0, 1.0, 0.0, 0.0)">
      <use ffdec:characterId="17" ffdec:characterName="196_fla.Symbole234_26" height="56.0" id="back" transform="matrix(1.0, 0.0, 0.0, 1.0, 0.0, 0.0)" width="56.0" xlink:href="#sprite25"/>
    </g>
    <g id="sprite25" transform="matrix(1.0, 0.0, 0.0, 1.0, 0.0, 0.0)">
      <use ffdec:characterId="16" ffdec:characterName="196_fla.Symbole231_27" height="56.0" id="back" transform="matrix(1.0, 0.0, 0.0, 1.0, 0.0, 0.0)" width="56.0" xlink:href="#sprite26"/>
    </g>
    <g id="sprite26" transform="matrix(1.0, 0.0, 0.0, 1.0, 0.0, 0.0)">
      <use ffdec:characterId="15" ffdec:characterName="196_fla.Symbole228_28" height="56.0" id="back" transform="matrix(1.0, 0.0, 0.0, 1.0, 0.0, 0.0)" width="56.0" xlink:href="#sprite27"/>
    </g>
    <g id="sprite27" transform="matrix(1.0, 0.0, 0.0, 1.0, 0.0, 0.0)">
      <use ffdec:characterId="14" ffdec:characterName="196_fla.Symbole225_29" height="56.0" id="back" transform="matrix(1.0, 0.0, 0.0, 1.0, 0.0, 0.0)" width="56.0" xlink:href="#sprite28"/>
    </g>
    <g id="sprite28" transform="matrix(1.0, 0.0, 0.0, 1.0, 0.0, 0.0)">
      <use ffdec:characterId="13" ffdec:characterName="196_fla.Symbole222_30" height="56.0" id="back" transform="matrix(1.0, 0.0, 0.0, 1.0, 0.0, 0.0)" width="56.0" xlink:href="#sprite29"/>
    </g>
    <g id="sprite29" transform="matrix(1.0, 0.0, 0.0, 1.0, 0.0, 0.0)">
      <use ffdec:characterId="12" ffdec:characterName="196_fla.Symbole219_31" height="56.0" id="back" transform="matrix(1.0, 0.0, 0.0, 1.0, 0.0, 0.0)" width="56.0" xlink:href="#sprite30"/>
    </g>
    <g id="sprite30" transform="matrix(1.0, 0.0, 0.0, 1.0, 0.0, 0.0)">
      <use ffdec:characterId="11" ffdec:characterName="196_fla.Symbole216_32" height="56.0" id="back" transform="matrix(1.0, 0.0, 0.0, 1.0, 0.0, 0.0)" width="56.0" xlink:href="#sprite31"/>
    </g>
    <g id="sprite31" transform="matrix(1.0, 0.0, 0.0, 1.0, 0.0, 0.0)">
      <use ffdec:characterId="10" ffdec:characterName="196_fla.Symbole213_33" height="56.0" id="back" transform="matrix(1.0, 0.0, 0.0, 1.0, 0.0, 0.0)" width="56.0" xlink:href="#sprite32"/>
    </g>
    <g id="sprite32" transform="matrix(1.0, 0.0, 0.0, 1.0, 0.0, 0.0)">
      <use ffdec:characterId="9" ffdec:characterName="196_fla.Symbole210_34" height="56.0" id="back" transform="matrix(1.0, 0.0, 0.0, 1.0, 0.0, 0.0)" width="56.0" xlink:href="#sprite33"/>
    </g>
    <g id="sprite33" transform="matrix(1.0, 0.0, 0.0, 1.0, 0.0, 0.0)">
      <use ffdec:characterId="8" ffdec:characterName="196_fla.Symbole207_35" height="56.0" id="back" transform="matrix(1.0, 0.0, 0.0, 1.0, 0.0, 0.0)" width="56.0" xlink:href="#sprite34"/>
    </g>
    <g id="sprite34" transform="matrix(1.0, 0.0, 0.0, 1.0, 0.0, 0.0)">
      <use ffdec:characterId="7" ffdec:characterName="196_fla.Symbole204_36" height="56.0" id="back" transform="matrix(1.0, 0.0, 0.0, 1.0, 0.0, 0.0)" width="56.0" xlink:href="#sprite35"/>
    </g>
    <g id="sprite35" transform="matrix(1.0, 0.0, 0.0, 1.0, 0.0, 0.0)">
      <use ffdec:characterId="6" ffdec:characterName="196_fla.Symbole201_37" height="56.0" id="back" transform="matrix(1.0, 0.0, 0.0, 1.0, 0.0, 0.0)" width="56.0" xlink:href="#sprite36"/>
    </g>
    <g id="sprite36" transform="matrix(1.0, 0.0, 0.0, 1.0, 0.0, 0.0)">
      <use ffdec:characterId="5" ffdec:characterName="196_fla.Symbole198_38" height="56.0" id="back" transform="matrix(1.0, 0.0, 0.0, 1.0, 0.0, 0.0)" width="56.0" xlink:href="#sprite37"/>
    </g>
    <g id="sprite37" transform="matrix(1.0, 0.0, 0.0, 1.0, 0.0, 0.0)">
      <use ffdec:characterId="4" ffdec:characterName="196_fla.Symbole195_39" height="56.0" id="back" transform="matrix(1.0, 0.0, 0.0, 1.0, 0.0, 0.0)" width="56.0" xlink:href="#sprite38"/>
    </g>
    <g id="sprite38" transform="matrix(1.0, 0.0, 0.0, 1.0, 0.0, 0.0)">
      <use ffdec:characterId="3" ffdec:characterName="196_fla.Symbole192_40" height="56.0" id="back" transform="matrix(1.0, 0.0, 0.0, 1.0, 0.0, 0.0)" width="56.0" xlink:href="#sprite39"/>
    </g>
    <g id="sprite39" transform="matrix(1.0, 0.0, 0.0, 1.0, 0.0, 0.0)">
      <use ffdec:characterId="2" height="56.0" id="back" transform="matrix(1.0, 0.0, 0.0, 1.0, 0.0, 0.0)" width="56.0" xlink:href="#sprite40"/>
    </g>
    <g id="sprite40" transform="matrix(1.0, 0.0, 0.0, 1.0, 0.0, 0.0)">
      <use ffdec:characterId="1" height="56.0" transform="matrix(1.0, 0.0, 0.0, 1.0, 0.0, 0.0)" width="56.0" xlink:href="#shape0"/>
    </g>
    <g id="shape0" transform="matrix(1.0, 0.0, 0.0, 1.0, 0.0, 0.0)">
      <path d="M56.0 56.0 L0.0 56.0 0.0 0.0 56.0 0.0 56.0 56.0" fill="#010101" fill-opacity="0.0" fill-rule="evenodd" stroke="none"/>
    </g>
    <g id="sprite41" transform="matrix(1.0, 0.0, 0.0, 1.0, 0.75, 0.75)">
      <use ffdec:characterId="43" height="55.05" transform="matrix(1.0, 0.0, 0.0, 1.0, -0.75, -0.75)" width="55.35" xlink:href="#shape1"/>
    </g>
    <g id="shape1" transform="matrix(1.0, 0.0, 0.0, 1.0, 0.75, 0.75)">
      <path d="M44.2 7.3 Q45.2 7.25 45.85 7.95 46.55 8.65 46.55 9.6 46.6 10.6 45.85 11.3 L45.3 11.8 45.3 12.1 44.9 13.05 Q44.5 13.45 43.85 13.5 L42.9 13.05 42.7 12.8 42.7 13.35 Q42.75 14.25 42.15 14.75 L41.9 15.1 Q45.2 19.25 45.8 24.6 L46.4 24.6 Q47.2 24.6 47.7 25.2 L48.1 25.75 48.1 25.0 Q48.1 24.4 48.45 23.95 48.8 23.6 49.45 23.6 50.0 23.6 50.4 23.95 L50.75 24.5 51.5 24.35 Q52.45 24.35 53.2 25.0 53.85 25.75 53.85 26.7 53.85 27.65 53.2 28.3 52.45 29.05 51.4 29.05 L50.7 28.9 50.4 29.2 Q50.0 29.6 49.45 29.6 48.8 29.6 48.45 29.2 48.1 28.85 48.1 28.2 L48.1 27.9 47.7 28.3 Q47.2 28.9 46.4 28.9 L45.8 28.9 Q45.2 34.2 41.95 38.5 L42.55 39.05 Q43.1 39.65 43.1 40.4 L43.1 41.05 43.4 40.6 Q43.8 40.15 44.4 40.1 44.95 40.1 45.35 40.55 45.8 40.9 45.8 41.5 L45.75 42.0 46.25 42.4 Q46.9 43.1 46.9 44.05 47.0 45.1 46.25 45.8 45.6 46.4 44.6 46.4 43.55 46.5 42.9 45.8 L42.45 45.25 42.1 45.25 41.15 44.9 40.7 43.85 Q40.7 43.35 41.15 42.9 L41.5 42.6 40.9 42.6 Q40.05 42.65 39.55 42.1 L38.9 41.55 Q34.55 45.1 28.95 45.7 L28.95 46.25 Q28.95 47.1 28.35 47.6 L27.95 48.0 28.4 48.0 Q29.05 48.0 29.4 48.35 29.85 48.7 29.85 49.3 29.85 49.9 29.4 50.25 L29.05 50.55 29.1 51.15 Q29.1 52.15 28.35 52.9 27.7 53.55 26.75 53.55 25.75 53.55 25.05 52.9 24.4 52.15 24.4 51.2 L24.45 50.55 24.15 50.25 Q23.8 49.9 23.8 49.3 23.8 48.7 24.15 48.35 24.55 48.0 25.2 48.0 L25.75 48.0 25.25 47.6 Q24.65 47.1 24.65 46.25 L24.65 45.7 Q19.45 45.1 15.35 41.95 L14.9 42.4 Q14.35 42.9 13.5 42.9 L13.1 42.9 13.2 43.05 Q13.65 43.5 13.75 44.05 13.75 44.6 13.25 44.95 12.95 45.4 12.3 45.45 L12.0 45.45 11.6 46.0 Q10.85 46.65 9.9 46.65 8.85 46.75 8.15 46.1 7.55 45.3 7.55 44.35 7.45 43.35 8.15 42.65 L8.7 42.3 8.55 41.8 Q8.55 41.2 8.95 40.75 9.4 40.4 9.95 40.4 10.5 40.4 10.9 40.75 L11.35 41.2 11.3 40.75 Q11.3 39.9 11.9 39.35 L12.25 38.95 Q8.5 34.55 8.0 29.0 L7.35 29.0 Q6.6 29.0 6.05 28.35 L5.65 27.95 5.65 28.3 Q5.65 28.9 5.3 29.3 4.95 29.7 4.35 29.7 3.75 29.7 3.4 29.3 L3.15 29.05 2.45 29.15 Q1.4 29.15 0.65 28.35 0.0 27.7 0.0 26.8 0.0 25.8 0.65 25.05 1.4 24.4 2.35 24.4 L3.1 24.5 3.4 24.05 Q3.75 23.65 4.35 23.65 4.95 23.65 5.3 24.05 5.65 24.5 5.65 25.05 L5.65 25.8 6.05 25.3 Q6.6 24.7 7.35 24.7 L8.0 24.7 Q8.5 19.3 11.9 15.1 L11.7 14.9 Q11.15 14.3 11.15 13.5 L11.15 13.15 11.0 13.3 Q10.6 13.75 9.95 13.75 9.4 13.75 9.1 13.35 8.65 12.95 8.55 12.4 L8.65 11.85 8.15 11.5 Q7.45 10.75 7.45 9.8 7.35 8.8 8.05 8.1 8.8 7.45 9.75 7.45 10.75 7.4 11.45 8.1 L11.9 8.7 12.25 8.65 Q12.85 8.65 13.25 9.0 13.65 9.45 13.65 10.05 13.65 10.55 13.25 11.0 L13.0 11.35 13.25 11.3 Q14.2 11.3 14.7 11.85 L14.9 12.1 Q19.2 8.55 24.65 8.05 L24.65 7.4 Q24.65 6.6 25.25 6.05 L25.75 5.7 25.2 5.7 Q24.55 5.7 24.15 5.35 23.8 4.95 23.8 4.35 23.8 3.8 24.15 3.4 L24.5 3.15 24.4 2.35 Q24.4 1.4 25.05 0.65 25.75 0.0 26.75 0.0 27.7 0.0 28.35 0.65 29.1 1.4 29.1 2.45 L29.05 3.1 29.4 3.4 Q29.85 3.8 29.85 4.35 29.85 4.95 29.4 5.35 29.05 5.7 28.4 5.7 L27.95 5.7 28.35 6.05 Q28.95 6.6 28.95 7.4 L28.95 8.05 Q34.5 8.55 38.85 12.1 L39.15 11.7 Q39.7 11.25 40.5 11.25 L41.15 11.3 40.65 10.75 Q40.2 10.4 40.1 9.8 40.1 9.2 40.55 8.9 40.9 8.4 41.5 8.4 L42.1 8.55 42.45 7.95 Q43.25 7.3 44.2 7.3 M42.05 24.6 Q41.5 20.8 39.25 17.85 L39.55 17.55 Q41.9 20.65 42.4 24.6 L42.05 24.6 M39.95 24.25 Q39.55 23.9 39.0 23.9 38.4 23.9 38.05 24.25 37.65 24.7 37.65 25.3 L37.65 25.45 37.6 25.35 Q37.05 24.75 36.25 24.75 L32.5 24.75 35.15 22.05 Q35.75 21.55 35.7 20.65 L35.7 20.6 35.8 20.75 Q36.25 21.15 36.8 21.15 L37.8 20.75 Q38.2 20.25 38.2 19.75 38.2 19.15 37.75 18.7 L37.45 18.45 37.65 18.45 Q39.85 21.3 40.4 24.9 L39.95 24.25 M40.35 29.0 Q39.85 32.0 38.2 34.65 L38.2 34.35 Q38.2 33.75 37.75 33.4 37.35 32.95 36.8 32.95 36.2 33.0 35.8 33.45 35.8 32.75 35.3 32.15 L32.1 29.05 36.25 29.05 Q37.05 29.05 37.6 28.45 L37.65 28.35 37.65 28.5 Q37.65 29.15 38.05 29.45 38.4 29.95 39.0 29.95 39.55 29.95 39.95 29.45 L40.35 29.0 M42.45 28.9 Q41.95 32.9 39.55 36.1 L39.4 35.95 39.3 35.9 Q41.6 32.75 42.1 28.9 L42.45 28.9 M28.95 11.35 Q33.2 11.8 36.5 14.45 L36.2 14.75 Q33.05 12.25 28.95 11.7 L28.95 11.35 M28.25 13.3 Q32.35 13.65 35.45 16.3 L35.55 16.5 35.45 16.45 Q35.0 16.1 34.45 16.1 33.8 16.1 33.45 16.5 33.05 16.9 33.05 17.45 33.1 18.05 33.5 18.45 L33.6 18.55 33.45 18.55 Q32.7 18.55 32.1 19.0 L29.1 22.15 29.1 22.0 29.1 17.55 Q29.1 16.75 28.5 16.2 L28.55 16.2 Q29.2 16.2 29.5 15.85 30.0 15.5 30.0 14.9 30.0 14.3 29.5 13.9 29.2 13.5 28.55 13.5 L28.1 13.5 28.25 13.3 M24.65 11.35 Q20.6 11.85 17.25 14.45 L17.55 14.7 Q20.7 12.25 24.65 11.7 L24.65 11.35 M25.35 13.3 Q21.5 13.65 18.35 16.1 L18.35 16.3 18.35 16.9 18.6 16.6 Q19.0 16.15 19.55 16.15 20.15 16.15 20.6 16.5 20.95 16.95 20.95 17.55 L20.6 18.55 Q21.4 18.55 21.9 19.1 L24.8 22.0 24.8 17.55 Q24.8 16.75 25.4 16.2 L25.35 16.2 Q24.75 16.2 24.3 15.85 23.95 15.5 23.95 14.9 23.95 14.3 24.3 13.9 24.75 13.5 25.35 13.5 L25.65 13.5 25.35 13.3 M28.4 23.6 Q28.5 24.4 29.1 25.0 L29.35 25.3 Q29.65 25.7 30.15 25.75 29.85 26.15 29.85 26.8 L29.85 27.1 Q29.85 27.95 30.45 28.45 L30.5 28.5 Q29.85 28.6 29.35 29.15 L29.05 29.35 Q28.55 29.75 28.55 30.4 L28.5 30.3 Q28.0 29.7 27.15 29.7 L26.85 29.7 Q26.15 29.7 25.7 30.1 L25.2 29.4 24.95 29.15 Q24.4 28.5 23.55 28.6 L23.25 28.6 23.3 28.5 Q23.95 28.05 23.95 27.2 L23.95 26.85 Q23.95 26.25 23.6 25.75 24.3 25.7 24.75 25.15 L25.05 24.9 Q25.65 24.35 25.55 23.5 26.05 23.95 26.85 23.95 L27.15 23.95 Q27.95 23.95 28.4 23.5 L28.4 23.6 M15.95 18.55 Q13.6 21.45 13.2 25.3 L13.35 25.45 13.35 25.35 Q13.35 24.75 13.8 24.35 14.2 23.95 14.75 23.95 15.35 23.95 15.7 24.35 16.1 24.75 16.1 25.35 L16.1 25.5 16.15 25.45 Q16.7 24.85 17.5 24.85 L21.65 24.85 18.85 22.15 Q18.3 21.55 18.3 20.8 L17.25 21.3 Q16.8 21.3 16.4 20.9 15.95 20.5 15.85 19.9 15.85 19.3 16.3 18.85 L16.8 18.45 16.25 18.55 15.95 18.55 M14.35 17.45 Q11.85 20.65 11.3 24.7 L11.6 24.7 Q12.1 20.8 14.55 17.7 L14.35 17.45 M16.1 28.6 Q16.1 29.2 15.7 29.55 15.35 30.0 14.75 30.0 14.2 30.0 13.8 29.55 13.35 29.2 13.35 28.6 L13.35 28.2 13.2 28.35 Q13.6 32.5 16.3 35.65 L16.8 35.65 16.55 35.45 Q16.1 35.1 16.1 34.5 16.1 33.9 16.45 33.45 16.95 33.1 17.5 33.1 18.05 33.1 18.45 33.45 L18.5 33.55 Q18.6 32.75 19.15 32.3 L22.3 29.15 21.95 29.15 17.5 29.15 Q16.7 29.15 16.15 28.5 L16.1 28.45 16.1 28.6 M11.3 29.0 Q11.85 33.25 14.6 36.6 L14.85 36.45 Q12.1 33.1 11.6 29.0 L11.3 29.0 M18.5 37.45 L18.5 37.8 Q21.5 40.1 25.25 40.45 L25.55 40.2 25.35 40.2 Q24.75 40.2 24.3 39.8 23.95 39.45 23.95 38.85 23.95 38.25 24.3 37.85 24.75 37.55 25.35 37.55 L25.5 37.55 25.4 37.45 Q24.8 36.9 24.8 36.1 L24.8 32.6 22.15 35.3 Q21.55 35.8 20.8 35.8 L21.25 36.75 20.8 37.7 Q20.45 38.1 19.85 38.15 19.3 38.15 18.85 37.7 L18.5 37.45 M17.75 39.6 Q20.8 41.8 24.65 42.3 L24.65 42.1 Q20.9 41.55 17.9 39.35 L17.75 39.6 M33.5 35.75 Q33.1 36.2 33.1 36.7 L33.5 37.7 Q34.0 38.1 34.5 38.1 L34.75 38.1 Q31.95 40.1 28.35 40.45 L28.15 40.2 28.55 40.2 Q29.2 40.2 29.5 39.8 30.0 39.45 30.0 38.85 30.0 38.25 29.5 37.85 29.2 37.55 28.55 37.55 L28.4 37.55 28.5 37.45 Q29.1 36.9 29.1 36.1 L29.1 32.05 32.25 35.2 Q32.8 35.75 33.6 35.65 L33.5 35.75 M28.95 42.1 Q33.05 41.55 36.25 38.9 L36.35 38.95 36.55 39.2 Q33.2 41.8 28.95 42.4 L28.95 42.1 Z" fill="none" stroke="#000000" stroke-linecap="round" stroke-linejoin="round" stroke-opacity="0.2" stroke-width="1.5"/>
    </g>
    <g id="sprite42" transform="matrix(1.0, 0.0, 0.0, 1.0, 0.0, 0.0)">
      <use ffdec:characterId="45" height="53.55" transform="matrix(1.0, 0.0, 0.0, 1.0, 0.0, 0.0)" width="53.85" xlink:href="#shape2"/>
    </g>
    <g id="shape2" transform="matrix(1.0, 0.0, 0.0, 1.0, 0.0, 0.0)">
      <path d="M44.2 7.3 Q45.2 7.25 45.85 7.95 46.55 8.65 46.55 9.6 46.6 10.6 45.85 11.3 L45.3 11.8 45.3 12.1 44.9 13.05 Q44.5 13.45 43.85 13.5 L42.9 13.05 42.7 12.8 42.7 13.35 Q42.75 14.25 42.15 14.75 L41.9 15.1 Q45.2 19.25 45.8 24.6 L46.4 24.6 Q47.2 24.6 47.7 25.2 L48.1 25.75 48.1 25.0 Q48.1 24.4 48.45 23.95 48.8 23.6 49.45 23.6 50.0 23.6 50.4 23.95 L50.75 24.5 51.5 24.35 Q52.45 24.35 53.2 25.0 53.85 25.75 53.85 26.7 53.85 27.65 53.2 28.3 52.45 29.05 51.4 29.05 L50.7 28.9 50.4 29.2 Q50.0 29.6 49.45 29.6 48.8 29.6 48.45 29.2 48.1 28.85 48.1 28.2 L48.1 27.9 47.7 28.3 Q47.2 28.9 46.4 28.9 L45.8 28.9 Q45.2 34.2 41.95 38.5 L42.55 39.05 Q43.1 39.65 43.1 40.4 L43.1 41.05 43.4 40.6 Q43.8 40.15 44.4 40.1 44.95 40.1 45.35 40.55 45.8 40.9 45.8 41.5 L45.75 42.0 46.25 42.4 Q46.9 43.1 46.9 44.05 47.0 45.1 46.25 45.8 45.6 46.4 44.6 46.4 43.55 46.5 42.9 45.8 L42.45 45.25 42.1 45.25 41.15 44.9 40.7 43.85 Q40.7 43.35 41.15 42.9 L41.5 42.6 40.9 42.6 Q40.05 42.65 39.55 42.1 L38.9 41.55 Q34.55 45.1 28.95 45.7 L28.95 46.25 Q28.95 47.1 28.35 47.6 L27.95 48.0 28.4 48.0 Q29.05 48.0 29.4 48.35 29.85 48.7 29.85 49.3 29.85 49.9 29.4 50.25 L29.05 50.55 29.1 51.15 Q29.1 52.15 28.35 52.9 27.7 53.55 26.75 53.55 25.75 53.55 25.05 52.9 24.4 52.15 24.4 51.2 L24.45 50.55 24.15 50.25 Q23.8 49.9 23.8 49.3 23.8 48.7 24.15 48.35 24.55 48.0 25.2 48.0 L25.75 48.0 25.25 47.6 Q24.65 47.1 24.65 46.25 L24.65 45.7 Q19.45 45.1 15.35 41.95 L14.9 42.4 Q14.35 42.9 13.5 42.9 L13.1 42.9 13.2 43.05 Q13.65 43.5 13.75 44.05 13.75 44.6 13.25 44.95 12.95 45.4 12.3 45.45 L12.0 45.45 11.6 46.0 Q10.85 46.65 9.9 46.65 8.85 46.75 8.15 46.1 7.55 45.3 7.55 44.35 7.45 43.35 8.15 42.65 L8.7 42.3 8.55 41.8 Q8.55 41.2 8.95 40.75 9.4 40.4 9.95 40.4 10.5 40.4 10.9 40.75 L11.35 41.2 11.3 40.75 Q11.3 39.9 11.9 39.35 L12.25 38.95 Q8.5 34.55 8.0 29.0 L7.35 29.0 Q6.6 29.0 6.05 28.35 L5.65 27.95 5.65 28.3 Q5.65 28.9 5.3 29.3 4.95 29.7 4.35 29.7 3.75 29.7 3.4 29.3 L3.15 29.05 2.45 29.15 Q1.4 29.15 0.65 28.35 0.0 27.7 0.0 26.8 0.0 25.8 0.65 25.05 1.4 24.4 2.35 24.4 L3.1 24.5 3.4 24.05 Q3.75 23.65 4.35 23.65 4.95 23.65 5.3 24.05 5.65 24.5 5.65 25.05 L5.65 25.8 6.05 25.3 Q6.6 24.7 7.35 24.7 L8.0 24.7 Q8.5 19.3 11.9 15.1 L11.7 14.9 Q11.15 14.3 11.15 13.5 L11.15 13.15 11.0 13.3 Q10.6 13.75 9.95 13.75 9.4 13.75 9.1 13.35 8.65 12.95 8.55 12.4 L8.65 11.85 8.15 11.5 Q7.45 10.75 7.45 9.8 7.35 8.8 8.05 8.1 8.8 7.45 9.75 7.45 10.75 7.4 11.45 8.1 L11.9 8.7 12.25 8.65 Q12.85 8.65 13.25 9.0 13.65 9.45 13.65 10.05 13.65 10.55 13.25 11.0 L13.0 11.35 13.25 11.3 Q14.2 11.3 14.7 11.85 L14.9 12.1 Q19.2 8.55 24.65 8.05 L24.65 7.4 Q24.65 6.6 25.25 6.05 L25.75 5.7 25.2 5.7 Q24.55 5.7 24.15 5.35 23.8 4.95 23.8 4.35 23.8 3.8 24.15 3.4 L24.5 3.15 24.4 2.35 Q24.4 1.4 25.05 0.65 25.75 0.0 26.75 0.0 27.7 0.0 28.35 0.65 29.1 1.4 29.1 2.45 L29.05 3.1 29.4 3.4 Q29.85 3.8 29.85 4.35 29.85 4.95 29.4 5.35 29.05 5.7 28.4 5.7 L27.95 5.7 28.35 6.05 Q28.95 6.6 28.95 7.4 L28.95 8.05 Q34.5 8.55 38.85 12.1 L39.15 11.7 Q39.7 11.25 40.5 11.25 L41.15 11.3 40.65 10.75 Q40.2 10.4 40.1 9.8 40.1 9.2 40.55 8.9 40.9 8.4 41.5 8.4 L42.1 8.55 42.45 7.95 Q43.25 7.3 44.2 7.3 M28.25 13.3 L28.1 13.5 28.55 13.5 Q29.2 13.5 29.5 13.9 30.0 14.3 30.0 14.9 30.0 15.5 29.5 15.85 29.2 16.2 28.55 16.2 L28.5 16.2 Q29.1 16.75 29.1 17.55 L29.1 22.0 29.1 22.15 32.1 19.0 Q32.7 18.55 33.45 18.55 L33.6 18.55 33.5 18.45 Q33.1 18.05 33.05 17.45 33.05 16.9 33.45 16.5 33.8 16.1 34.45 16.1 35.0 16.1 35.45 16.45 L35.55 16.5 35.45 16.3 Q32.35 13.65 28.25 13.3 M28.95 11.35 L28.95 11.7 Q33.05 12.25 36.2 14.75 L36.5 14.45 Q33.2 11.8 28.95 11.35 M39.95 24.25 L40.4 24.9 Q39.85 21.3 37.65 18.45 L37.45 18.45 37.75 18.7 Q38.2 19.15 38.2 19.75 38.2 20.25 37.8 20.75 L36.8 21.15 Q36.25 21.15 35.8 20.75 L35.7 20.6 35.7 20.65 Q35.75 21.55 35.15 22.05 L32.5 24.75 36.25 24.75 Q37.05 24.75 37.6 25.35 L37.65 25.45 37.65 25.3 Q37.65 24.7 38.05 24.25 38.4 23.9 39.0 23.9 39.55 23.9 39.95 24.25 M40.35 29.0 L39.95 29.45 Q39.55 29.95 39.0 29.95 38.4 29.95 38.05 29.45 37.65 29.15 37.65 28.5 L37.65 28.35 37.6 28.45 Q37.05 29.05 36.25 29.05 L32.1 29.05 35.3 32.15 Q35.8 32.75 35.8 33.45 36.2 33.0 36.8 32.95 37.35 32.95 37.75 33.4 38.2 33.75 38.2 34.35 L38.2 34.65 Q39.85 32.0 40.35 29.0 M42.45 28.9 L42.1 28.9 Q41.6 32.75 39.3 35.9 L39.4 35.95 39.55 36.1 Q41.95 32.9 42.45 28.9 M42.05 24.6 L42.4 24.6 Q41.9 20.65 39.55 17.55 L39.25 17.85 Q41.5 20.8 42.05 24.6 M24.65 11.35 Q20.6 11.85 17.25 14.45 L17.55 14.7 Q20.7 12.25 24.65 11.7 L24.65 11.35 M25.35 13.3 Q21.5 13.65 18.35 16.1 L18.35 16.3 18.35 16.9 18.6 16.6 Q19.0 16.15 19.55 16.15 20.15 16.15 20.6 16.5 20.95 16.95 20.95 17.55 L20.6 18.55 Q21.4 18.55 21.9 19.1 L24.8 22.0 24.8 17.55 Q24.8 16.75 25.4 16.2 L25.35 16.2 Q24.75 16.2 24.3 15.85 23.95 15.5 23.95 14.9 23.95 14.3 24.3 13.9 24.75 13.5 25.35 13.5 L25.65 13.5 25.35 13.3 M28.4 23.6 L28.4 23.5 Q27.95 23.95 27.15 23.95 L26.85 23.95 Q26.05 23.95 25.55 23.5 25.65 24.35 25.05 24.9 L24.75 25.15 Q24.3 25.7 23.6 25.75 23.95 26.25 23.95 26.85 L23.95 27.2 Q23.95 28.05 23.3 28.5 L23.25 28.6 23.55 28.6 Q24.4 28.5 24.95 29.15 L25.2 29.4 25.7 30.1 Q26.15 29.7 26.85 29.7 L27.15 29.7 Q28.0 29.7 28.5 30.3 L28.55 30.4 Q28.55 29.75 29.05 29.35 L29.35 29.15 Q29.85 28.6 30.5 28.5 L30.45 28.45 Q29.85 27.95 29.85 27.1 L29.85 26.8 Q29.85 26.15 30.15 25.75 29.65 25.7 29.35 25.3 L29.1 25.0 Q28.5 24.4 28.4 23.6 M15.95 18.55 Q13.6 21.45 13.2 25.3 L13.35 25.45 13.35 25.35 Q13.35 24.75 13.8 24.35 14.2 23.95 14.75 23.95 15.35 23.95 15.7 24.35 16.1 24.75 16.1 25.35 L16.1 25.5 16.15 25.45 Q16.7 24.85 17.5 24.85 L21.65 24.85 18.85 22.15 Q18.3 21.55 18.3 20.8 L17.25 21.3 Q16.8 21.3 16.4 20.9 15.95 20.5 15.85 19.9 15.85 19.3 16.3 18.85 L16.8 18.45 16.25 18.55 15.95 18.55 M14.35 17.45 Q11.85 20.65 11.3 24.7 L11.6 24.7 Q12.1 20.8 14.55 17.7 L14.35 17.45 M16.1 28.6 Q16.1 29.2 15.7 29.55 15.35 30.0 14.75 30.0 14.2 30.0 13.8 29.55 13.35 29.2 13.35 28.6 L13.35 28.2 13.2 28.35 Q13.6 32.5 16.3 35.65 L16.8 35.65 16.55 35.45 Q16.1 35.1 16.1 34.5 16.1 33.9 16.45 33.45 16.95 33.1 17.5 33.1 18.05 33.1 18.45 33.45 L18.5 33.55 Q18.6 32.75 19.15 32.3 L22.3 29.15 21.95 29.15 17.5 29.15 Q16.7 29.15 16.15 28.5 L16.1 28.45 16.1 28.6 M11.3 29.0 Q11.85 33.25 14.6 36.6 L14.85 36.45 Q12.1 33.1 11.6 29.0 L11.3 29.0 M17.75 39.6 Q20.8 41.8 24.65 42.3 L24.65 42.1 Q20.9 41.55 17.9 39.35 L17.75 39.6 M18.5 37.45 L18.5 37.8 Q21.5 40.1 25.25 40.45 L25.55 40.2 25.35 40.2 Q24.75 40.2 24.3 39.8 23.95 39.45 23.95 38.85 23.95 38.25 24.3 37.85 24.75 37.55 25.35 37.55 L25.5 37.55 25.4 37.45 Q24.8 36.9 24.8 36.1 L24.8 32.6 22.15 35.3 Q21.55 35.8 20.8 35.8 L21.25 36.75 20.8 37.7 Q20.45 38.1 19.85 38.15 19.3 38.15 18.85 37.7 L18.5 37.45 M28.95 42.1 L28.95 42.4 Q33.2 41.8 36.55 39.2 L36.35 38.95 36.25 38.9 Q33.05 41.55 28.95 42.1 M33.5 35.75 L33.6 35.65 Q32.8 35.75 32.25 35.2 L29.1 32.05 29.1 36.1 Q29.1 36.9 28.5 37.45 L28.4 37.55 28.55 37.55 Q29.2 37.55 29.5 37.85 30.0 38.25 30.0 38.85 30.0 39.45 29.5 39.8 29.2 40.2 28.55 40.2 L28.15 40.2 28.35 40.45 Q31.95 40.1 34.75 38.1 L34.5 38.1 Q34.0 38.1 33.5 37.7 L33.1 36.7 Q33.1 36.2 33.5 35.75" fill="#000000" fill-rule="evenodd" stroke="none"/>
    </g>
  </defs>
</svg>
