<?xml version="1.0" encoding="UTF-8" standalone="no"?>
<svg xmlns:ffdec="https://www.free-decompiler.com/flash" xmlns:xlink="http://www.w3.org/1999/xlink" ffdec:objectType="frame" height="56.0px" width="56.0px" xmlns="http://www.w3.org/2000/svg">
  <g transform="matrix(1.0, 0.0, 0.0, 1.0, 0.0, 0.0)">
    <use ffdec:characterId="3" ffdec:characterName="2_fla.Symbole6_1" height="56.0" id="back" transform="matrix(1.0, 0.0, 0.0, 1.0, 0.0, 0.0)" width="56.0" xlink:href="#sprite0"/>
    <use ffdec:characterId="5" height="55.55" id="back" transform="matrix(1.0, 0.0, 0.0, 1.0, 0.4, 0.45)" width="55.2" xlink:href="#sprite2"/>
    <use ffdec:characterId="7" height="54.05" id="up" transform="matrix(1.0, 0.0, 0.0, 1.0, 1.15, 1.2)" width="53.7" xlink:href="#sprite3"/>
  </g>
  <defs>
    <g id="sprite0" transform="matrix(1.0, 0.0, 0.0, 1.0, 0.0, 0.0)">
      <use ffdec:characterId="2" height="56.0" id="back" transform="matrix(1.0, 0.0, 0.0, 1.0, 0.0, 0.0)" width="56.0" xlink:href="#sprite1"/>
    </g>
    <g id="sprite1" transform="matrix(1.0, 0.0, 0.0, 1.0, 0.0, 0.0)">
      <use ffdec:characterId="1" height="56.0" transform="matrix(1.0, 0.0, 0.0, 1.0, 0.0, 0.0)" width="56.0" xlink:href="#shape0"/>
    </g>
    <g id="shape0" transform="matrix(1.0, 0.0, 0.0, 1.0, 0.0, 0.0)">
      <path d="M56.0 56.0 L0.0 56.0 0.0 0.0 56.0 0.0 56.0 56.0" fill="#010101" fill-opacity="0.0" fill-rule="evenodd" stroke="none"/>
    </g>
    <g id="sprite2" transform="matrix(1.0, 0.0, 0.0, 1.0, 0.75, 0.75)">
      <use ffdec:characterId="4" height="55.55" transform="matrix(1.0, 0.0, 0.0, 1.0, -0.75, -0.75)" width="55.2" xlink:href="#shape1"/>
    </g>
    <g id="shape1" transform="matrix(1.0, 0.0, 0.0, 1.0, 0.75, 0.75)">
      <path d="M50.85 22.65 Q49.9 23.7 48.8 23.75 L48.8 23.9 Q47.75 16.65 42.45 11.4 37.2 6.1 30.0 5.05 L30.2 5.05 Q30.25 3.25 33.25 1.7 L30.65 1.8 29.3 2.55 Q30.0 1.7 29.1 1.05 28.7 0.7 28.1 0.6 27.4 0.4 26.9 0.0 L25.7 0.6 Q25.05 0.7 24.75 1.05 24.05 1.5 24.15 2.0 L24.5 2.55 Q22.35 0.8 20.4 1.7 23.5 3.25 23.65 5.05 16.4 6.1 11.2 11.4 5.95 16.65 4.9 23.9 L4.9 23.75 Q3.15 23.7 1.55 20.6 0.95 21.75 1.75 23.3 L2.45 24.55 1.95 24.4 Q1.3 24.15 0.85 24.85 0.65 25.2 0.55 25.85 L0.0 27.0 0.55 28.25 0.85 29.25 Q1.6 30.1 2.45 29.45 L1.75 30.8 Q0.95 32.25 1.55 33.4 3.15 30.35 4.9 30.35 L4.9 30.25 Q5.95 37.5 11.2 42.8 16.4 47.9 23.75 49.0 L23.65 49.0 Q23.5 50.2 22.5 51.15 L20.4 52.45 Q22.35 53.15 24.35 51.55 L24.15 52.05 Q24.05 52.65 24.75 53.1 25.05 53.4 25.7 53.55 26.35 53.6 26.9 54.05 27.4 53.6 28.0 53.55 28.7 53.4 28.95 53.1 29.65 52.65 29.55 52.05 L29.3 51.55 30.5 52.3 33.25 52.45 31.15 51.15 Q30.2 50.2 30.1 49.0 L30.0 49.0 Q37.2 47.9 42.45 42.8 47.75 37.5 48.8 30.25 L48.8 30.35 Q50.6 30.5 52.15 33.55 53.0 31.55 51.3 29.55 L51.75 29.8 Q52.3 29.8 52.85 29.25 L53.3 28.25 53.7 27.0 53.3 25.85 52.85 24.85 Q52.3 24.3 51.75 24.4 L51.3 24.6 Q53.0 22.6 52.15 20.65 L50.85 22.65 M38.6 15.1 Q42.7 19.1 43.35 23.9 L30.1 23.9 30.1 10.55 Q34.6 11.0 38.6 15.1 M10.35 30.35 L23.65 30.35 23.65 43.5 Q19.05 43.0 15.1 39.05 10.9 34.95 10.35 30.35 M30.1 43.5 L30.1 30.35 43.35 30.35 Q42.75 34.9 38.75 38.9 34.65 43.0 30.1 43.5 M23.65 23.75 L10.35 23.75 Q10.9 19.25 14.95 15.15 19.05 11.15 23.65 10.55 L23.65 23.75 Z" fill="none" stroke="#000000" stroke-linecap="round" stroke-linejoin="round" stroke-opacity="0.2" stroke-width="1.5"/>
    </g>
    <g id="sprite3" transform="matrix(1.0, 0.0, 0.0, 1.0, 0.0, 0.0)">
      <use ffdec:characterId="6" height="54.05" transform="matrix(1.0, 0.0, 0.0, 1.0, 0.0, 0.0)" width="53.7" xlink:href="#shape2"/>
    </g>
    <g id="shape2" transform="matrix(1.0, 0.0, 0.0, 1.0, 0.0, 0.0)">
      <path d="M23.65 23.75 L23.65 10.55 Q19.05 11.15 14.95 15.15 10.9 19.25 10.35 23.75 L23.65 23.75 M30.1 43.5 Q34.65 43.0 38.75 38.9 42.75 34.9 43.35 30.35 L30.1 30.35 30.1 43.5 M10.35 30.35 Q10.9 34.95 15.1 39.05 19.05 43.0 23.65 43.5 L23.65 30.35 10.35 30.35 M38.6 15.1 Q34.6 11.0 30.1 10.55 L30.1 23.9 43.35 23.9 Q42.7 19.1 38.6 15.1 M50.85 22.65 L52.15 20.65 Q53.0 22.6 51.3 24.6 L51.75 24.4 Q52.3 24.3 52.85 24.85 L53.3 25.85 53.7 27.0 53.3 28.25 52.85 29.25 Q52.3 29.8 51.75 29.8 L51.3 29.55 Q53.0 31.55 52.15 33.55 50.6 30.5 48.8 30.35 L48.8 30.25 Q47.75 37.5 42.45 42.8 37.2 47.9 30.0 49.0 L30.1 49.0 Q30.2 50.2 31.15 51.15 L33.25 52.45 30.5 52.3 29.3 51.55 29.55 52.05 Q29.65 52.65 28.95 53.1 28.7 53.4 28.0 53.55 27.4 53.6 26.9 54.05 26.35 53.6 25.7 53.55 25.05 53.4 24.75 53.1 24.05 52.65 24.15 52.05 L24.35 51.55 Q22.35 53.15 20.4 52.45 L22.5 51.15 Q23.5 50.2 23.65 49.0 L23.75 49.0 Q16.4 47.9 11.2 42.8 5.95 37.5 4.9 30.25 L4.9 30.35 Q3.15 30.35 1.55 33.4 0.95 32.25 1.75 30.8 L2.45 29.45 Q1.6 30.1 0.85 29.25 L0.55 28.25 0.0 27.0 0.55 25.85 Q0.65 25.2 0.85 24.85 1.3 24.15 1.95 24.4 L2.45 24.55 1.75 23.3 Q0.95 21.75 1.55 20.6 3.15 23.7 4.9 23.75 L4.9 23.9 Q5.95 16.65 11.2 11.4 16.4 6.1 23.65 5.05 23.5 3.25 20.4 1.7 22.35 0.8 24.5 2.55 L24.15 2.0 Q24.05 1.5 24.75 1.05 25.05 0.7 25.7 0.6 L26.9 0.0 Q27.4 0.4 28.1 0.6 28.7 0.7 29.1 1.05 30.0 1.7 29.3 2.55 L30.65 1.8 33.25 1.7 Q30.25 3.25 30.2 5.05 L30.0 5.05 Q37.2 6.1 42.45 11.4 47.75 16.65 48.8 23.9 L48.8 23.75 Q49.9 23.7 50.85 22.65" fill="#000000" fill-rule="evenodd" stroke="none"/>
    </g>
  </defs>
</svg>
