<?xml version="1.0" encoding="UTF-8" standalone="no"?>
<svg xmlns:ffdec="https://www.free-decompiler.com/flash" xmlns:xlink="http://www.w3.org/1999/xlink" ffdec:objectType="frame" height="56.0px" width="56.0px" xmlns="http://www.w3.org/2000/svg">
  <g transform="matrix(1.0, 0.0, 0.0, 1.0, 0.0, 0.0)">
    <use ffdec:characterId="21" ffdec:characterName="20_fla.Symbole60_1" height="56.0" id="back" transform="matrix(1.0, 0.0, 0.0, 1.0, 0.0, 0.0)" width="56.0" xlink:href="#sprite0"/>
    <use ffdec:characterId="23" height="55.5" id="back" transform="matrix(1.0, 0.0, 0.0, 1.0, 0.85, 0.45)" width="54.35" xlink:href="#sprite20"/>
    <use ffdec:characterId="25" height="54.0" id="up" transform="matrix(1.0, 0.0, 0.0, 1.0, 1.6, 1.2)" width="52.85" xlink:href="#sprite21"/>
  </g>
  <defs>
    <g id="sprite0" transform="matrix(1.0, 0.0, 0.0, 1.0, 0.0, 0.0)">
      <use ffdec:characterId="20" ffdec:characterName="20_fla.Symbole57_2" height="56.0" id="back" transform="matrix(1.0, 0.0, 0.0, 1.0, 0.0, 0.0)" width="56.0" xlink:href="#sprite1"/>
    </g>
    <g id="sprite1" transform="matrix(1.0, 0.0, 0.0, 1.0, 0.0, 0.0)">
      <use ffdec:characterId="19" ffdec:characterName="20_fla.Symbole54_3" height="56.0" id="back" transform="matrix(1.0, 0.0, 0.0, 1.0, 0.0, 0.0)" width="56.0" xlink:href="#sprite2"/>
    </g>
    <g id="sprite2" transform="matrix(1.0, 0.0, 0.0, 1.0, 0.0, 0.0)">
      <use ffdec:characterId="18" ffdec:characterName="20_fla.Symbole51_4" height="56.0" id="back" transform="matrix(1.0, 0.0, 0.0, 1.0, 0.0, 0.0)" width="56.0" xlink:href="#sprite3"/>
    </g>
    <g id="sprite3" transform="matrix(1.0, 0.0, 0.0, 1.0, 0.0, 0.0)">
      <use ffdec:characterId="17" ffdec:characterName="20_fla.Symbole48_5" height="56.0" id="back" transform="matrix(1.0, 0.0, 0.0, 1.0, 0.0, 0.0)" width="56.0" xlink:href="#sprite4"/>
    </g>
    <g id="sprite4" transform="matrix(1.0, 0.0, 0.0, 1.0, 0.0, 0.0)">
      <use ffdec:characterId="16" ffdec:characterName="20_fla.Symbole45_6" height="56.0" id="back" transform="matrix(1.0, 0.0, 0.0, 1.0, 0.0, 0.0)" width="56.0" xlink:href="#sprite5"/>
    </g>
    <g id="sprite5" transform="matrix(1.0, 0.0, 0.0, 1.0, 0.0, 0.0)">
      <use ffdec:characterId="15" ffdec:characterName="20_fla.Symbole42_7" height="56.0" id="back" transform="matrix(1.0, 0.0, 0.0, 1.0, 0.0, 0.0)" width="56.0" xlink:href="#sprite6"/>
    </g>
    <g id="sprite6" transform="matrix(1.0, 0.0, 0.0, 1.0, 0.0, 0.0)">
      <use ffdec:characterId="14" ffdec:characterName="20_fla.Symbole39_8" height="56.0" id="back" transform="matrix(1.0, 0.0, 0.0, 1.0, 0.0, 0.0)" width="56.0" xlink:href="#sprite7"/>
    </g>
    <g id="sprite7" transform="matrix(1.0, 0.0, 0.0, 1.0, 0.0, 0.0)">
      <use ffdec:characterId="13" ffdec:characterName="20_fla.Symbole36_9" height="56.0" id="back" transform="matrix(1.0, 0.0, 0.0, 1.0, 0.0, 0.0)" width="56.0" xlink:href="#sprite8"/>
    </g>
    <g id="sprite8" transform="matrix(1.0, 0.0, 0.0, 1.0, 0.0, 0.0)">
      <use ffdec:characterId="12" ffdec:characterName="20_fla.Symbole33_10" height="56.0" id="back" transform="matrix(1.0, 0.0, 0.0, 1.0, 0.0, 0.0)" width="56.0" xlink:href="#sprite9"/>
    </g>
    <g id="sprite9" transform="matrix(1.0, 0.0, 0.0, 1.0, 0.0, 0.0)">
      <use ffdec:characterId="11" ffdec:characterName="20_fla.Symbole30_11" height="56.0" id="back" transform="matrix(1.0, 0.0, 0.0, 1.0, 0.0, 0.0)" width="56.0" xlink:href="#sprite10"/>
    </g>
    <g id="sprite10" transform="matrix(1.0, 0.0, 0.0, 1.0, 0.0, 0.0)">
      <use ffdec:characterId="10" ffdec:characterName="20_fla.Symbole27_12" height="56.0" id="back" transform="matrix(1.0, 0.0, 0.0, 1.0, 0.0, 0.0)" width="56.0" xlink:href="#sprite11"/>
    </g>
    <g id="sprite11" transform="matrix(1.0, 0.0, 0.0, 1.0, 0.0, 0.0)">
      <use ffdec:characterId="9" ffdec:characterName="20_fla.Symbole24_13" height="56.0" id="back" transform="matrix(1.0, 0.0, 0.0, 1.0, 0.0, 0.0)" width="56.0" xlink:href="#sprite12"/>
    </g>
    <g id="sprite12" transform="matrix(1.0, 0.0, 0.0, 1.0, 0.0, 0.0)">
      <use ffdec:characterId="8" ffdec:characterName="20_fla.Symbole21_14" height="56.0" id="back" transform="matrix(1.0, 0.0, 0.0, 1.0, 0.0, 0.0)" width="56.0" xlink:href="#sprite13"/>
    </g>
    <g id="sprite13" transform="matrix(1.0, 0.0, 0.0, 1.0, 0.0, 0.0)">
      <use ffdec:characterId="7" ffdec:characterName="20_fla.Symbole18_15" height="56.0" id="back" transform="matrix(1.0, 0.0, 0.0, 1.0, 0.0, 0.0)" width="56.0" xlink:href="#sprite14"/>
    </g>
    <g id="sprite14" transform="matrix(1.0, 0.0, 0.0, 1.0, 0.0, 0.0)">
      <use ffdec:characterId="6" ffdec:characterName="20_fla.Symbole15_16" height="56.0" id="back" transform="matrix(1.0, 0.0, 0.0, 1.0, 0.0, 0.0)" width="56.0" xlink:href="#sprite15"/>
    </g>
    <g id="sprite15" transform="matrix(1.0, 0.0, 0.0, 1.0, 0.0, 0.0)">
      <use ffdec:characterId="5" ffdec:characterName="20_fla.Symbole12_17" height="56.0" id="back" transform="matrix(1.0, 0.0, 0.0, 1.0, 0.0, 0.0)" width="56.0" xlink:href="#sprite16"/>
    </g>
    <g id="sprite16" transform="matrix(1.0, 0.0, 0.0, 1.0, 0.0, 0.0)">
      <use ffdec:characterId="4" ffdec:characterName="20_fla.Symbole9_18" height="56.0" id="back" transform="matrix(1.0, 0.0, 0.0, 1.0, 0.0, 0.0)" width="56.0" xlink:href="#sprite17"/>
    </g>
    <g id="sprite17" transform="matrix(1.0, 0.0, 0.0, 1.0, 0.0, 0.0)">
      <use ffdec:characterId="3" ffdec:characterName="20_fla.Symbole6_19" height="56.0" id="back" transform="matrix(1.0, 0.0, 0.0, 1.0, 0.0, 0.0)" width="56.0" xlink:href="#sprite18"/>
    </g>
    <g id="sprite18" transform="matrix(1.0, 0.0, 0.0, 1.0, 0.0, 0.0)">
      <use ffdec:characterId="2" height="56.0" id="back" transform="matrix(1.0, 0.0, 0.0, 1.0, 0.0, 0.0)" width="56.0" xlink:href="#sprite19"/>
    </g>
    <g id="sprite19" transform="matrix(1.0, 0.0, 0.0, 1.0, 0.0, 0.0)">
      <use ffdec:characterId="1" height="56.0" transform="matrix(1.0, 0.0, 0.0, 1.0, 0.0, 0.0)" width="56.0" xlink:href="#shape0"/>
    </g>
    <g id="shape0" transform="matrix(1.0, 0.0, 0.0, 1.0, 0.0, 0.0)">
      <path d="M56.0 56.0 L0.0 56.0 0.0 0.0 56.0 0.0 56.0 56.0" fill="#010101" fill-opacity="0.0" fill-rule="evenodd" stroke="none"/>
    </g>
    <g id="sprite20" transform="matrix(1.0, 0.0, 0.0, 1.0, 0.75, 0.75)">
      <use ffdec:characterId="22" height="55.5" transform="matrix(1.0, 0.0, 0.0, 1.0, -0.75, -0.75)" width="54.35" xlink:href="#shape1"/>
    </g>
    <g id="shape1" transform="matrix(1.0, 0.0, 0.0, 1.0, 0.75, 0.75)">
      <path d="M41.25 19.15 L32.95 18.3 Q30.2 17.55 27.25 15.35 24.1 12.95 23.45 8.95 22.75 4.35 26.85 1.6 29.6 -0.4 32.9 0.1 35.7 0.45 38.2 2.65 40.5 4.55 41.4 7.25 42.4 9.85 41.25 11.7 40.8 12.6 40.3 12.6 39.75 12.6 39.5 11.55 39.3 10.45 38.25 9.55 37.2 8.5 36.1 8.15 L33.8 7.9 Q32.65 8.3 32.05 9.2 30.85 10.9 32.65 13.0 34.25 15.1 36.9 15.35 42.6 15.7 45.35 16.6 49.6 18.0 51.5 21.6 54.05 26.55 51.75 30.95 49.8 34.95 45.85 36.05 44.95 36.45 44.6 37.75 L43.05 43.0 41.75 44.25 40.15 44.55 Q38.7 44.25 39.9 42.75 41.25 41.05 41.55 38.8 L41.6 37.7 Q41.55 37.5 40.95 37.7 L37.75 38.4 Q37.2 38.5 37.15 38.8 L36.75 39.8 35.95 42.15 35.0 44.65 Q34.25 45.75 32.45 45.6 30.85 45.35 32.05 44.1 33.55 42.1 33.8 40.7 L33.95 39.8 32.95 39.65 27.9 40.45 Q27.0 40.45 26.4 41.8 24.25 47.65 19.25 51.1 14.55 54.25 9.85 54.0 5.45 53.55 2.55 49.6 -0.5 45.35 1.0 41.05 1.9 38.1 5.2 36.65 8.2 35.35 10.9 36.05 L12.15 36.6 Q12.6 36.9 11.65 37.35 10.3 37.75 9.7 39.2 9.1 40.6 9.4 42.15 10.1 45.75 14.7 45.95 16.4 46.0 18.8 44.65 21.1 43.25 21.8 41.95 22.8 39.65 21.35 39.2 18.15 38.15 15.95 35.35 14.35 33.3 11.75 32.25 10.9 31.85 10.9 31.4 10.9 30.9 11.8 30.8 14.8 30.05 16.4 27.95 17.0 26.95 19.0 26.05 21.05 25.0 22.15 25.0 23.25 24.85 23.65 24.0 23.85 23.15 23.45 22.1 21.9 18.3 17.9 17.4 14.1 16.6 11.95 18.5 10.15 20.1 10.35 22.0 10.55 24.4 12.25 25.45 L13.3 26.35 Q13.45 26.75 11.65 27.3 6.9 28.55 3.6 26.35 0.15 23.95 0.0 18.85 -0.2 14.65 2.7 11.85 5.3 9.1 9.25 8.7 15.85 7.9 20.2 10.8 25.5 14.45 28.25 24.0 28.5 25.4 29.1 25.65 31.7 27.15 33.1 27.4 L33.95 27.4 Q34.15 27.3 34.0 26.7 33.7 24.35 32.3 22.1 31.7 21.25 33.1 21.05 34.25 20.85 35.2 22.0 36.25 23.5 36.75 26.85 37.0 28.55 38.2 28.65 39.65 28.85 40.35 28.65 41.35 28.4 40.55 26.55 L39.25 22.85 Q39.0 22.3 39.45 21.9 39.75 21.35 40.55 21.45 42.2 21.8 42.65 23.8 43.1 26.1 43.85 27.1 45.05 28.55 47.15 27.8 47.95 27.4 48.55 26.25 49.0 24.75 48.4 23.35 47.3 21.25 46.0 20.4 44.3 19.15 41.25 19.15 M23.45 34.3 Q24.3 34.35 24.9 33.7 25.5 33.1 25.6 32.25 25.6 31.3 24.9 30.8 24.25 30.15 23.2 30.15 21.25 30.05 21.05 31.85 20.9 32.8 21.9 33.65 22.6 34.3 23.45 34.3 Z" fill="none" stroke="#000000" stroke-linecap="round" stroke-linejoin="round" stroke-opacity="0.2" stroke-width="1.5"/>
    </g>
    <g id="sprite21" transform="matrix(1.0, 0.0, 0.0, 1.0, 0.0, 0.0)">
      <use ffdec:characterId="24" height="54.0" transform="matrix(1.0, 0.0, 0.0, 1.0, 0.0, 0.0)" width="52.85" xlink:href="#shape2"/>
    </g>
    <g id="shape2" transform="matrix(1.0, 0.0, 0.0, 1.0, 0.0, 0.0)">
      <path d="M41.25 19.15 L32.95 18.3 Q30.2 17.55 27.25 15.35 24.1 12.95 23.45 8.95 22.75 4.35 26.85 1.6 29.6 -0.4 32.9 0.1 35.7 0.45 38.2 2.65 40.5 4.55 41.4 7.25 42.4 9.85 41.25 11.7 40.8 12.6 40.3 12.6 39.75 12.6 39.5 11.55 39.3 10.45 38.25 9.55 37.2 8.5 36.1 8.15 L33.8 7.9 Q32.65 8.3 32.05 9.2 30.85 10.9 32.65 13.0 34.25 15.1 36.9 15.35 42.6 15.7 45.35 16.6 49.6 18.0 51.5 21.6 54.05 26.55 51.75 30.95 49.8 34.95 45.85 36.05 44.95 36.45 44.6 37.75 L43.05 43.0 41.75 44.25 40.15 44.55 Q38.7 44.25 39.9 42.75 41.25 41.05 41.55 38.8 L41.6 37.7 Q41.55 37.5 40.95 37.7 L37.75 38.4 Q37.2 38.5 37.15 38.8 L36.75 39.8 35.95 42.15 35.0 44.65 Q34.25 45.75 32.45 45.6 30.85 45.35 32.05 44.1 33.55 42.1 33.8 40.7 L33.95 39.8 32.95 39.65 27.9 40.45 Q27.0 40.45 26.4 41.8 24.25 47.65 19.25 51.1 14.55 54.25 9.85 54.0 5.45 53.55 2.55 49.6 -0.5 45.35 1.0 41.05 1.9 38.1 5.2 36.65 8.2 35.35 10.9 36.05 L12.15 36.6 Q12.6 36.9 11.65 37.35 10.3 37.75 9.7 39.2 9.1 40.6 9.4 42.15 10.1 45.75 14.7 45.95 16.4 46.0 18.8 44.65 21.1 43.25 21.8 41.95 22.8 39.65 21.35 39.2 18.15 38.15 15.95 35.35 14.35 33.3 11.75 32.25 10.9 31.85 10.9 31.4 10.9 30.9 11.8 30.8 14.8 30.05 16.4 27.95 17.0 26.95 19.0 26.05 21.05 25.0 22.15 25.0 23.25 24.85 23.65 24.0 23.85 23.15 23.45 22.1 21.9 18.3 17.9 17.4 14.1 16.6 11.95 18.5 10.15 20.1 10.35 22.0 10.55 24.4 12.25 25.45 L13.3 26.35 Q13.45 26.75 11.65 27.3 6.9 28.55 3.6 26.35 0.15 23.95 0.0 18.85 -0.2 14.65 2.7 11.85 5.3 9.1 9.25 8.7 15.85 7.9 20.2 10.8 25.5 14.45 28.25 24.0 28.5 25.4 29.1 25.65 31.7 27.15 33.1 27.4 L33.95 27.4 Q34.15 27.3 34.0 26.7 33.7 24.35 32.3 22.1 31.7 21.25 33.1 21.05 34.25 20.85 35.2 22.0 36.25 23.5 36.75 26.85 37.0 28.55 38.2 28.65 39.65 28.85 40.35 28.65 41.35 28.4 40.55 26.55 L39.25 22.85 Q39.0 22.3 39.45 21.9 39.75 21.35 40.55 21.45 42.2 21.8 42.65 23.8 43.1 26.1 43.85 27.1 45.05 28.55 47.15 27.8 47.95 27.4 48.55 26.25 49.0 24.75 48.4 23.35 47.3 21.25 46.0 20.4 44.3 19.15 41.25 19.15 M23.45 34.3 Q24.3 34.35 24.9 33.7 25.5 33.1 25.6 32.25 25.6 31.3 24.9 30.8 24.25 30.15 23.2 30.15 21.25 30.05 21.05 31.85 20.9 32.8 21.9 33.65 22.6 34.3 23.45 34.3" fill="#000000" fill-rule="evenodd" stroke="none"/>
    </g>
  </defs>
</svg>
