<?xml version="1.0" encoding="UTF-8" standalone="no"?>
<svg xmlns:ffdec="https://www.free-decompiler.com/flash" xmlns:xlink="http://www.w3.org/1999/xlink" ffdec:objectType="frame" height="56.0px" width="56.0px" xmlns="http://www.w3.org/2000/svg">
  <g transform="matrix(1.0, 0.0, 0.0, 1.0, 0.0, 0.0)">
    <use ffdec:characterId="46" ffdec:characterName="200_fla.Symbole321_1" height="56.0" id="back" transform="matrix(1.0, 0.0, 0.0, 1.0, 0.0, 0.0)" width="56.0" xlink:href="#sprite0"/>
    <use ffdec:characterId="48" height="55.25" id="back" transform="matrix(1.0, 0.0, 0.0, 1.0, 13.35, 0.3)" width="29.1" xlink:href="#sprite45"/>
    <use ffdec:characterId="50" height="53.75" id="up" transform="matrix(1.0, 0.0, 0.0, 1.0, 14.05, 1.1)" width="27.6" xlink:href="#sprite46"/>
  </g>
  <defs>
    <g id="sprite0" transform="matrix(1.0, 0.0, 0.0, 1.0, 0.0, 0.0)">
      <use ffdec:characterId="45" ffdec:characterName="200_fla.Symbole318_2" height="56.0" id="back" transform="matrix(1.0, 0.0, 0.0, 1.0, 0.0, 0.0)" width="56.0" xlink:href="#sprite1"/>
    </g>
    <g id="sprite1" transform="matrix(1.0, 0.0, 0.0, 1.0, 0.0, 0.0)">
      <use ffdec:characterId="44" ffdec:characterName="200_fla.Symbole315_3" height="56.0" id="back" transform="matrix(1.0, 0.0, 0.0, 1.0, 0.0, 0.0)" width="56.0" xlink:href="#sprite2"/>
    </g>
    <g id="sprite2" transform="matrix(1.0, 0.0, 0.0, 1.0, 0.0, 0.0)">
      <use ffdec:characterId="43" ffdec:characterName="200_fla.Symbole312_4" height="56.0" id="back" transform="matrix(1.0, 0.0, 0.0, 1.0, 0.0, 0.0)" width="56.0" xlink:href="#sprite3"/>
    </g>
    <g id="sprite3" transform="matrix(1.0, 0.0, 0.0, 1.0, 0.0, 0.0)">
      <use ffdec:characterId="42" ffdec:characterName="200_fla.Symbole309_5" height="56.0" id="back" transform="matrix(1.0, 0.0, 0.0, 1.0, 0.0, 0.0)" width="56.0" xlink:href="#sprite4"/>
    </g>
    <g id="sprite4" transform="matrix(1.0, 0.0, 0.0, 1.0, 0.0, 0.0)">
      <use ffdec:characterId="41" ffdec:characterName="200_fla.Symbole306_6" height="56.0" id="back" transform="matrix(1.0, 0.0, 0.0, 1.0, 0.0, 0.0)" width="56.0" xlink:href="#sprite5"/>
    </g>
    <g id="sprite5" transform="matrix(1.0, 0.0, 0.0, 1.0, 0.0, 0.0)">
      <use ffdec:characterId="40" ffdec:characterName="200_fla.Symbole303_7" height="56.0" id="back" transform="matrix(1.0, 0.0, 0.0, 1.0, 0.0, 0.0)" width="56.0" xlink:href="#sprite6"/>
    </g>
    <g id="sprite6" transform="matrix(1.0, 0.0, 0.0, 1.0, 0.0, 0.0)">
      <use ffdec:characterId="39" ffdec:characterName="200_fla.Symbole300_8" height="56.0" id="back" transform="matrix(1.0, 0.0, 0.0, 1.0, 0.0, 0.0)" width="56.0" xlink:href="#sprite7"/>
    </g>
    <g id="sprite7" transform="matrix(1.0, 0.0, 0.0, 1.0, 0.0, 0.0)">
      <use ffdec:characterId="38" ffdec:characterName="200_fla.Symbole297_9" height="56.0" id="back" transform="matrix(1.0, 0.0, 0.0, 1.0, 0.0, 0.0)" width="56.0" xlink:href="#sprite8"/>
    </g>
    <g id="sprite8" transform="matrix(1.0, 0.0, 0.0, 1.0, 0.0, 0.0)">
      <use ffdec:characterId="37" ffdec:characterName="200_fla.Symbole294_10" height="56.0" id="back" transform="matrix(1.0, 0.0, 0.0, 1.0, 0.0, 0.0)" width="56.0" xlink:href="#sprite9"/>
    </g>
    <g id="sprite9" transform="matrix(1.0, 0.0, 0.0, 1.0, 0.0, 0.0)">
      <use ffdec:characterId="36" ffdec:characterName="200_fla.Symbole291_11" height="56.0" id="back" transform="matrix(1.0, 0.0, 0.0, 1.0, 0.0, 0.0)" width="56.0" xlink:href="#sprite10"/>
    </g>
    <g id="sprite10" transform="matrix(1.0, 0.0, 0.0, 1.0, 0.0, 0.0)">
      <use ffdec:characterId="35" ffdec:characterName="200_fla.Symbole288_12" height="56.0" id="back" transform="matrix(1.0, 0.0, 0.0, 1.0, 0.0, 0.0)" width="56.0" xlink:href="#sprite11"/>
    </g>
    <g id="sprite11" transform="matrix(1.0, 0.0, 0.0, 1.0, 0.0, 0.0)">
      <use ffdec:characterId="34" ffdec:characterName="200_fla.Symbole285_13" height="56.0" id="back" transform="matrix(1.0, 0.0, 0.0, 1.0, 0.0, 0.0)" width="56.0" xlink:href="#sprite12"/>
    </g>
    <g id="sprite12" transform="matrix(1.0, 0.0, 0.0, 1.0, 0.0, 0.0)">
      <use ffdec:characterId="33" ffdec:characterName="200_fla.Symbole282_14" height="56.0" id="back" transform="matrix(1.0, 0.0, 0.0, 1.0, 0.0, 0.0)" width="56.0" xlink:href="#sprite13"/>
    </g>
    <g id="sprite13" transform="matrix(1.0, 0.0, 0.0, 1.0, 0.0, 0.0)">
      <use ffdec:characterId="32" ffdec:characterName="200_fla.Symbole279_15" height="56.0" id="back" transform="matrix(1.0, 0.0, 0.0, 1.0, 0.0, 0.0)" width="56.0" xlink:href="#sprite14"/>
    </g>
    <g id="sprite14" transform="matrix(1.0, 0.0, 0.0, 1.0, 0.0, 0.0)">
      <use ffdec:characterId="31" ffdec:characterName="200_fla.Symbole276_16" height="56.0" id="back" transform="matrix(1.0, 0.0, 0.0, 1.0, 0.0, 0.0)" width="56.0" xlink:href="#sprite15"/>
    </g>
    <g id="sprite15" transform="matrix(1.0, 0.0, 0.0, 1.0, 0.0, 0.0)">
      <use ffdec:characterId="30" ffdec:characterName="200_fla.Symbole273_17" height="56.0" id="back" transform="matrix(1.0, 0.0, 0.0, 1.0, 0.0, 0.0)" width="56.0" xlink:href="#sprite16"/>
    </g>
    <g id="sprite16" transform="matrix(1.0, 0.0, 0.0, 1.0, 0.0, 0.0)">
      <use ffdec:characterId="29" ffdec:characterName="200_fla.Symbole270_18" height="56.0" id="back" transform="matrix(1.0, 0.0, 0.0, 1.0, 0.0, 0.0)" width="56.0" xlink:href="#sprite17"/>
    </g>
    <g id="sprite17" transform="matrix(1.0, 0.0, 0.0, 1.0, 0.0, 0.0)">
      <use ffdec:characterId="28" ffdec:characterName="200_fla.Symbole267_19" height="56.0" id="back" transform="matrix(1.0, 0.0, 0.0, 1.0, 0.0, 0.0)" width="56.0" xlink:href="#sprite18"/>
    </g>
    <g id="sprite18" transform="matrix(1.0, 0.0, 0.0, 1.0, 0.0, 0.0)">
      <use ffdec:characterId="27" ffdec:characterName="200_fla.Symbole264_20" height="56.0" id="back" transform="matrix(1.0, 0.0, 0.0, 1.0, 0.0, 0.0)" width="56.0" xlink:href="#sprite19"/>
    </g>
    <g id="sprite19" transform="matrix(1.0, 0.0, 0.0, 1.0, 0.0, 0.0)">
      <use ffdec:characterId="26" ffdec:characterName="200_fla.Symbole261_21" height="56.0" id="back" transform="matrix(1.0, 0.0, 0.0, 1.0, 0.0, 0.0)" width="56.0" xlink:href="#sprite20"/>
    </g>
    <g id="sprite20" transform="matrix(1.0, 0.0, 0.0, 1.0, 0.0, 0.0)">
      <use ffdec:characterId="25" ffdec:characterName="200_fla.Symbole258_22" height="56.0" id="back" transform="matrix(1.0, 0.0, 0.0, 1.0, 0.0, 0.0)" width="56.0" xlink:href="#sprite21"/>
    </g>
    <g id="sprite21" transform="matrix(1.0, 0.0, 0.0, 1.0, 0.0, 0.0)">
      <use ffdec:characterId="24" ffdec:characterName="200_fla.Symbole255_23" height="56.0" id="back" transform="matrix(1.0, 0.0, 0.0, 1.0, 0.0, 0.0)" width="56.0" xlink:href="#sprite22"/>
    </g>
    <g id="sprite22" transform="matrix(1.0, 0.0, 0.0, 1.0, 0.0, 0.0)">
      <use ffdec:characterId="23" ffdec:characterName="200_fla.Symbole252_24" height="56.0" id="back" transform="matrix(1.0, 0.0, 0.0, 1.0, 0.0, 0.0)" width="56.0" xlink:href="#sprite23"/>
    </g>
    <g id="sprite23" transform="matrix(1.0, 0.0, 0.0, 1.0, 0.0, 0.0)">
      <use ffdec:characterId="22" ffdec:characterName="200_fla.Symbole249_25" height="56.0" id="back" transform="matrix(1.0, 0.0, 0.0, 1.0, 0.0, 0.0)" width="56.0" xlink:href="#sprite24"/>
    </g>
    <g id="sprite24" transform="matrix(1.0, 0.0, 0.0, 1.0, 0.0, 0.0)">
      <use ffdec:characterId="21" ffdec:characterName="200_fla.Symbole246_26" height="56.0" id="back" transform="matrix(1.0, 0.0, 0.0, 1.0, 0.0, 0.0)" width="56.0" xlink:href="#sprite25"/>
    </g>
    <g id="sprite25" transform="matrix(1.0, 0.0, 0.0, 1.0, 0.0, 0.0)">
      <use ffdec:characterId="20" ffdec:characterName="200_fla.Symbole243_27" height="56.0" id="back" transform="matrix(1.0, 0.0, 0.0, 1.0, 0.0, 0.0)" width="56.0" xlink:href="#sprite26"/>
    </g>
    <g id="sprite26" transform="matrix(1.0, 0.0, 0.0, 1.0, 0.0, 0.0)">
      <use ffdec:characterId="19" ffdec:characterName="200_fla.Symbole240_28" height="56.0" id="back" transform="matrix(1.0, 0.0, 0.0, 1.0, 0.0, 0.0)" width="56.0" xlink:href="#sprite27"/>
    </g>
    <g id="sprite27" transform="matrix(1.0, 0.0, 0.0, 1.0, 0.0, 0.0)">
      <use ffdec:characterId="18" ffdec:characterName="200_fla.Symbole237_29" height="56.0" id="back" transform="matrix(1.0, 0.0, 0.0, 1.0, 0.0, 0.0)" width="56.0" xlink:href="#sprite28"/>
    </g>
    <g id="sprite28" transform="matrix(1.0, 0.0, 0.0, 1.0, 0.0, 0.0)">
      <use ffdec:characterId="17" ffdec:characterName="200_fla.Symbole234_30" height="56.0" id="back" transform="matrix(1.0, 0.0, 0.0, 1.0, 0.0, 0.0)" width="56.0" xlink:href="#sprite29"/>
    </g>
    <g id="sprite29" transform="matrix(1.0, 0.0, 0.0, 1.0, 0.0, 0.0)">
      <use ffdec:characterId="16" ffdec:characterName="200_fla.Symbole231_31" height="56.0" id="back" transform="matrix(1.0, 0.0, 0.0, 1.0, 0.0, 0.0)" width="56.0" xlink:href="#sprite30"/>
    </g>
    <g id="sprite30" transform="matrix(1.0, 0.0, 0.0, 1.0, 0.0, 0.0)">
      <use ffdec:characterId="15" ffdec:characterName="200_fla.Symbole228_32" height="56.0" id="back" transform="matrix(1.0, 0.0, 0.0, 1.0, 0.0, 0.0)" width="56.0" xlink:href="#sprite31"/>
    </g>
    <g id="sprite31" transform="matrix(1.0, 0.0, 0.0, 1.0, 0.0, 0.0)">
      <use ffdec:characterId="14" ffdec:characterName="200_fla.Symbole225_33" height="56.0" id="back" transform="matrix(1.0, 0.0, 0.0, 1.0, 0.0, 0.0)" width="56.0" xlink:href="#sprite32"/>
    </g>
    <g id="sprite32" transform="matrix(1.0, 0.0, 0.0, 1.0, 0.0, 0.0)">
      <use ffdec:characterId="13" ffdec:characterName="200_fla.Symbole222_34" height="56.0" id="back" transform="matrix(1.0, 0.0, 0.0, 1.0, 0.0, 0.0)" width="56.0" xlink:href="#sprite33"/>
    </g>
    <g id="sprite33" transform="matrix(1.0, 0.0, 0.0, 1.0, 0.0, 0.0)">
      <use ffdec:characterId="12" ffdec:characterName="200_fla.Symbole219_35" height="56.0" id="back" transform="matrix(1.0, 0.0, 0.0, 1.0, 0.0, 0.0)" width="56.0" xlink:href="#sprite34"/>
    </g>
    <g id="sprite34" transform="matrix(1.0, 0.0, 0.0, 1.0, 0.0, 0.0)">
      <use ffdec:characterId="11" ffdec:characterName="200_fla.Symbole216_36" height="56.0" id="back" transform="matrix(1.0, 0.0, 0.0, 1.0, 0.0, 0.0)" width="56.0" xlink:href="#sprite35"/>
    </g>
    <g id="sprite35" transform="matrix(1.0, 0.0, 0.0, 1.0, 0.0, 0.0)">
      <use ffdec:characterId="10" ffdec:characterName="200_fla.Symbole213_37" height="56.0" id="back" transform="matrix(1.0, 0.0, 0.0, 1.0, 0.0, 0.0)" width="56.0" xlink:href="#sprite36"/>
    </g>
    <g id="sprite36" transform="matrix(1.0, 0.0, 0.0, 1.0, 0.0, 0.0)">
      <use ffdec:characterId="9" ffdec:characterName="200_fla.Symbole210_38" height="56.0" id="back" transform="matrix(1.0, 0.0, 0.0, 1.0, 0.0, 0.0)" width="56.0" xlink:href="#sprite37"/>
    </g>
    <g id="sprite37" transform="matrix(1.0, 0.0, 0.0, 1.0, 0.0, 0.0)">
      <use ffdec:characterId="8" ffdec:characterName="200_fla.Symbole207_39" height="56.0" id="back" transform="matrix(1.0, 0.0, 0.0, 1.0, 0.0, 0.0)" width="56.0" xlink:href="#sprite38"/>
    </g>
    <g id="sprite38" transform="matrix(1.0, 0.0, 0.0, 1.0, 0.0, 0.0)">
      <use ffdec:characterId="7" ffdec:characterName="200_fla.Symbole204_40" height="56.0" id="back" transform="matrix(1.0, 0.0, 0.0, 1.0, 0.0, 0.0)" width="56.0" xlink:href="#sprite39"/>
    </g>
    <g id="sprite39" transform="matrix(1.0, 0.0, 0.0, 1.0, 0.0, 0.0)">
      <use ffdec:characterId="6" ffdec:characterName="200_fla.Symbole201_41" height="56.0" id="back" transform="matrix(1.0, 0.0, 0.0, 1.0, 0.0, 0.0)" width="56.0" xlink:href="#sprite40"/>
    </g>
    <g id="sprite40" transform="matrix(1.0, 0.0, 0.0, 1.0, 0.0, 0.0)">
      <use ffdec:characterId="5" ffdec:characterName="200_fla.Symbole198_42" height="56.0" id="back" transform="matrix(1.0, 0.0, 0.0, 1.0, 0.0, 0.0)" width="56.0" xlink:href="#sprite41"/>
    </g>
    <g id="sprite41" transform="matrix(1.0, 0.0, 0.0, 1.0, 0.0, 0.0)">
      <use ffdec:characterId="4" ffdec:characterName="200_fla.Symbole195_43" height="56.0" id="back" transform="matrix(1.0, 0.0, 0.0, 1.0, 0.0, 0.0)" width="56.0" xlink:href="#sprite42"/>
    </g>
    <g id="sprite42" transform="matrix(1.0, 0.0, 0.0, 1.0, 0.0, 0.0)">
      <use ffdec:characterId="3" ffdec:characterName="200_fla.Symbole192_44" height="56.0" id="back" transform="matrix(1.0, 0.0, 0.0, 1.0, 0.0, 0.0)" width="56.0" xlink:href="#sprite43"/>
    </g>
    <g id="sprite43" transform="matrix(1.0, 0.0, 0.0, 1.0, 0.0, 0.0)">
      <use ffdec:characterId="2" height="56.0" id="back" transform="matrix(1.0, 0.0, 0.0, 1.0, 0.0, 0.0)" width="56.0" xlink:href="#sprite44"/>
    </g>
    <g id="sprite44" transform="matrix(1.0, 0.0, 0.0, 1.0, 0.0, 0.0)">
      <use ffdec:characterId="1" height="56.0" transform="matrix(1.0, 0.0, 0.0, 1.0, 0.0, 0.0)" width="56.0" xlink:href="#shape0"/>
    </g>
    <g id="shape0" transform="matrix(1.0, 0.0, 0.0, 1.0, 0.0, 0.0)">
      <path d="M56.0 56.0 L0.0 56.0 0.0 0.0 56.0 0.0 56.0 56.0" fill="#010101" fill-opacity="0.0" fill-rule="evenodd" stroke="none"/>
    </g>
    <g id="sprite45" transform="matrix(1.0, 0.0, 0.0, 1.0, 0.75, 0.75)">
      <use ffdec:characterId="47" height="55.25" transform="matrix(1.0, 0.0, 0.0, 1.0, -0.75, -0.75)" width="29.1" xlink:href="#shape1"/>
    </g>
    <g id="shape1" transform="matrix(1.0, 0.0, 0.0, 1.0, 0.75, 0.75)">
      <path d="M17.75 1.6 L17.75 24.65 13.45 28.5 9.2 24.85 9.2 1.6 17.75 1.6 M25.25 20.3 L13.45 30.6 13.45 30.75 13.35 30.7 13.3 30.75 13.3 30.6 1.45 20.4 1.45 0.0 25.25 0.0 25.25 20.3 M2.25 44.55 Q6.25 45.7 10.0 44.2 L10.05 44.1 11.95 41.3 11.75 41.05 10.05 41.5 9.7 42.05 9.65 42.3 8.8 42.5 7.9 42.3 7.9 42.2 7.8 42.15 7.65 41.45 7.65 41.25 Q7.65 40.85 7.9 40.55 L8.05 40.55 Q8.3 40.25 8.8 40.25 L9.05 40.25 9.65 40.55 9.65 40.6 9.9 40.9 11.55 40.45 11.55 40.1 11.6 39.75 7.35 37.6 7.3 37.6 7.2 37.45 Q4.25 38.4 2.25 40.55 0.95 41.95 0.0 43.7 L2.25 44.55 M5.7 29.05 Q5.1 33.75 7.35 37.1 L7.45 37.25 7.5 37.4 11.6 39.35 Q11.75 38.9 12.2 38.5 L11.3 37.45 11.1 37.55 Q10.5 37.55 10.2 37.2 L10.2 37.1 10.05 37.1 9.85 36.45 9.9 36.15 Q9.9 35.8 10.2 35.5 L10.25 35.45 10.3 35.45 11.1 35.2 11.3 35.2 11.35 35.2 11.85 35.45 11.9 35.5 11.9 35.6 12.25 36.3 12.25 36.45 12.05 37.05 12.05 36.95 11.85 37.2 12.7 38.05 13.8 37.85 14.0 37.85 13.55 33.05 13.65 32.95 12.75 32.05 Q10.75 30.0 7.6 29.05 L5.75 28.55 5.7 29.05 M20.8 29.05 Q16.5 30.0 13.85 33.05 L14.4 37.85 14.95 38.05 15.9 36.45 Q15.7 36.15 15.75 35.7 L15.75 35.6 Q15.75 35.25 16.05 35.0 L16.1 34.9 Q16.5 34.7 16.95 34.65 L17.15 34.65 17.75 34.9 17.75 35.05 18.1 35.65 18.1 35.7 17.9 36.45 17.75 36.6 Q17.45 36.95 16.95 36.9 L16.5 36.9 15.4 38.55 15.9 39.6 19.65 37.55 Q19.65 37.45 19.8 37.45 L20.15 37.25 20.3 37.1 Q22.2 33.75 21.5 29.05 L21.5 28.95 20.8 29.05 M12.05 41.55 L10.25 44.35 10.15 44.4 10.05 44.4 10.05 44.5 Q9.7 49.6 13.8 53.75 17.8 49.6 17.6 44.4 L17.45 44.25 17.45 44.2 17.3 44.2 15.4 41.5 15.25 41.65 Q14.75 42.15 14.0 42.2 L14.0 43.75 14.1 43.75 14.6 44.05 14.6 44.1 14.65 44.1 14.65 44.2 15.1 44.85 15.1 44.95 14.75 45.65 14.75 45.6 14.6 45.85 13.8 46.1 12.9 45.85 12.9 45.7 12.85 45.65 12.6 44.95 12.75 44.75 12.9 44.1 13.0 44.1 13.35 43.85 13.45 42.2 Q12.75 42.15 12.2 41.65 L12.1 41.55 12.05 41.55 M15.9 40.45 L17.75 41.05 18.05 40.55 18.1 40.55 Q18.4 40.25 18.9 40.25 L19.15 40.25 19.8 40.55 19.8 40.6 20.15 41.3 20.15 41.45 19.85 42.05 19.8 42.3 18.9 42.5 18.05 42.3 18.05 42.2 17.95 42.15 17.75 41.7 15.75 41.05 15.6 41.25 17.5 43.9 17.65 44.0 17.65 44.05 Q22.4 46.0 27.6 43.6 25.25 39.1 19.9 37.7 L19.9 37.8 15.9 40.0 15.9 40.1 15.9 40.45 Z" fill="none" stroke="#000000" stroke-linecap="round" stroke-linejoin="round" stroke-opacity="0.2" stroke-width="1.5"/>
    </g>
    <g id="sprite46" transform="matrix(1.0, 0.0, 0.0, 1.0, 0.0, 0.0)">
      <use ffdec:characterId="49" height="53.75" transform="matrix(1.0, 0.0, 0.0, 1.0, 0.0, 0.0)" width="27.6" xlink:href="#shape2"/>
    </g>
    <g id="shape2" transform="matrix(1.0, 0.0, 0.0, 1.0, 0.0, 0.0)">
      <path d="M25.25 20.3 L13.45 30.6 13.45 30.75 13.4 30.65 13.3 30.75 13.3 30.6 1.5 20.35 1.5 0.0 25.25 0.0 25.25 20.3 M15.95 40.45 L15.95 40.05 15.95 39.95 19.95 37.75 19.95 37.7 Q25.25 39.05 27.6 43.55 22.4 45.95 17.65 44.05 L17.65 43.95 17.5 43.9 15.65 41.2 15.8 41.0 17.8 41.7 18.0 42.1 18.05 42.15 18.05 42.25 18.9 42.5 19.8 42.25 19.85 42.05 20.15 41.4 20.15 41.25 19.8 40.6 19.8 40.5 Q19.5 40.3 19.2 40.25 L18.9 40.25 Q18.4 40.25 18.15 40.5 L18.05 40.5 17.8 41.0 15.95 40.45 M12.15 41.55 L12.2 41.6 Q12.75 42.1 13.45 42.15 L13.4 43.8 13.05 44.1 12.95 44.1 Q12.7 44.45 12.75 44.7 L12.6 44.9 Q12.6 45.35 12.9 45.6 L12.95 45.7 12.95 45.8 13.8 46.1 Q14.3 46.1 14.6 45.8 L14.75 45.6 15.1 44.9 15.1 44.8 14.7 44.15 14.7 44.1 14.6 44.1 14.6 44.05 14.15 43.75 14.0 43.75 14.05 42.15 Q14.75 42.1 15.3 41.6 L15.45 41.5 17.3 44.15 17.45 44.15 17.45 44.25 17.6 44.35 Q17.85 49.55 13.8 53.75 9.7 49.55 10.05 44.45 L10.05 44.35 10.15 44.35 10.3 44.3 12.05 41.55 12.15 41.55 M17.8 35.0 L17.8 34.85 17.2 34.6 16.95 34.6 Q16.5 34.65 16.15 34.85 L16.05 34.95 15.8 35.55 15.8 35.7 Q15.75 36.1 15.95 36.4 L14.95 38.05 14.4 37.85 13.85 33.0 Q16.5 30.0 20.85 29.0 L21.5 28.9 21.5 29.0 Q22.2 33.7 20.35 37.05 L20.15 37.2 19.8 37.4 Q19.65 37.4 19.65 37.5 L15.95 39.55 15.45 38.5 16.5 36.85 16.95 36.85 17.8 36.6 17.95 36.4 18.15 35.7 18.15 35.65 Q18.15 35.2 17.8 35.0 M2.25 44.5 L0.0 43.7 Q0.95 41.9 2.25 40.5 4.25 38.4 7.25 37.4 L7.3 37.55 7.4 37.55 11.65 39.7 11.6 40.05 11.6 40.45 9.95 40.85 9.65 40.6 9.65 40.5 Q9.4 40.3 9.1 40.25 L8.85 40.25 Q8.35 40.25 8.05 40.5 L7.95 40.5 Q7.65 40.8 7.65 41.2 L7.65 41.4 Q7.6 41.8 7.85 42.1 L7.95 42.15 7.95 42.25 8.85 42.5 9.65 42.25 9.7 42.05 10.05 41.5 11.8 41.0 12.0 41.25 10.05 44.1 10.0 44.15 Q6.25 45.7 2.25 44.5 M5.7 29.0 L5.8 28.55 7.6 29.0 Q10.75 30.0 12.75 32.05 L13.65 32.95 13.6 33.0 14.05 37.85 13.8 37.85 12.7 38.05 11.85 37.15 12.05 36.95 12.05 37.0 12.3 36.4 12.3 36.25 11.95 35.55 11.95 35.5 11.85 35.4 11.4 35.15 11.3 35.15 11.1 35.15 Q10.55 35.15 10.35 35.4 L10.3 35.4 10.2 35.5 Q9.95 35.75 9.95 36.1 L9.85 36.4 10.05 37.05 10.2 37.05 10.2 37.15 11.1 37.5 11.3 37.4 12.2 38.45 11.65 39.35 7.5 37.35 7.45 37.2 7.4 37.05 Q5.1 33.7 5.7 29.0 M17.8 1.55 L9.25 1.55 9.25 24.8 13.45 28.45 17.8 24.6 17.8 1.55" fill="#000000" fill-rule="evenodd" stroke="none"/>
    </g>
  </defs>
</svg>
