<?xml version="1.0" encoding="UTF-8" standalone="no"?>
<svg xmlns:ffdec="https://www.free-decompiler.com/flash" xmlns:xlink="http://www.w3.org/1999/xlink" ffdec:objectType="frame" height="56.0px" width="56.0px" xmlns="http://www.w3.org/2000/svg">
  <g transform="matrix(1.0, 0.0, 0.0, 1.0, 0.0, 0.0)">
    <use ffdec:characterId="49" ffdec:characterName="203_fla.Symbole330_1" height="56.0" id="back" transform="matrix(1.0, 0.0, 0.0, 1.0, 0.0, 0.0)" width="56.0" xlink:href="#sprite0"/>
    <use ffdec:characterId="51" height="55.25" id="back" transform="matrix(1.0, 0.0, 0.0, 1.0, 4.4, 0.3)" width="47.05" xlink:href="#sprite48"/>
    <use ffdec:characterId="53" height="53.75" id="up" transform="matrix(1.0, 0.0, 0.0, 1.0, 5.15, 1.05)" width="45.6" xlink:href="#sprite49"/>
  </g>
  <defs>
    <g id="sprite0" transform="matrix(1.0, 0.0, 0.0, 1.0, 0.0, 0.0)">
      <use ffdec:characterId="48" ffdec:characterName="203_fla.Symbole327_2" height="56.0" id="back" transform="matrix(1.0, 0.0, 0.0, 1.0, 0.0, 0.0)" width="56.0" xlink:href="#sprite1"/>
    </g>
    <g id="sprite1" transform="matrix(1.0, 0.0, 0.0, 1.0, 0.0, 0.0)">
      <use ffdec:characterId="47" ffdec:characterName="203_fla.Symbole324_3" height="56.0" id="back" transform="matrix(1.0, 0.0, 0.0, 1.0, 0.0, 0.0)" width="56.0" xlink:href="#sprite2"/>
    </g>
    <g id="sprite2" transform="matrix(1.0, 0.0, 0.0, 1.0, 0.0, 0.0)">
      <use ffdec:characterId="46" ffdec:characterName="203_fla.Symbole321_4" height="56.0" id="back" transform="matrix(1.0, 0.0, 0.0, 1.0, 0.0, 0.0)" width="56.0" xlink:href="#sprite3"/>
    </g>
    <g id="sprite3" transform="matrix(1.0, 0.0, 0.0, 1.0, 0.0, 0.0)">
      <use ffdec:characterId="45" ffdec:characterName="203_fla.Symbole318_5" height="56.0" id="back" transform="matrix(1.0, 0.0, 0.0, 1.0, 0.0, 0.0)" width="56.0" xlink:href="#sprite4"/>
    </g>
    <g id="sprite4" transform="matrix(1.0, 0.0, 0.0, 1.0, 0.0, 0.0)">
      <use ffdec:characterId="44" ffdec:characterName="203_fla.Symbole315_6" height="56.0" id="back" transform="matrix(1.0, 0.0, 0.0, 1.0, 0.0, 0.0)" width="56.0" xlink:href="#sprite5"/>
    </g>
    <g id="sprite5" transform="matrix(1.0, 0.0, 0.0, 1.0, 0.0, 0.0)">
      <use ffdec:characterId="43" ffdec:characterName="203_fla.Symbole312_7" height="56.0" id="back" transform="matrix(1.0, 0.0, 0.0, 1.0, 0.0, 0.0)" width="56.0" xlink:href="#sprite6"/>
    </g>
    <g id="sprite6" transform="matrix(1.0, 0.0, 0.0, 1.0, 0.0, 0.0)">
      <use ffdec:characterId="42" ffdec:characterName="203_fla.Symbole309_8" height="56.0" id="back" transform="matrix(1.0, 0.0, 0.0, 1.0, 0.0, 0.0)" width="56.0" xlink:href="#sprite7"/>
    </g>
    <g id="sprite7" transform="matrix(1.0, 0.0, 0.0, 1.0, 0.0, 0.0)">
      <use ffdec:characterId="41" ffdec:characterName="203_fla.Symbole306_9" height="56.0" id="back" transform="matrix(1.0, 0.0, 0.0, 1.0, 0.0, 0.0)" width="56.0" xlink:href="#sprite8"/>
    </g>
    <g id="sprite8" transform="matrix(1.0, 0.0, 0.0, 1.0, 0.0, 0.0)">
      <use ffdec:characterId="40" ffdec:characterName="203_fla.Symbole303_10" height="56.0" id="back" transform="matrix(1.0, 0.0, 0.0, 1.0, 0.0, 0.0)" width="56.0" xlink:href="#sprite9"/>
    </g>
    <g id="sprite9" transform="matrix(1.0, 0.0, 0.0, 1.0, 0.0, 0.0)">
      <use ffdec:characterId="39" ffdec:characterName="203_fla.Symbole300_11" height="56.0" id="back" transform="matrix(1.0, 0.0, 0.0, 1.0, 0.0, 0.0)" width="56.0" xlink:href="#sprite10"/>
    </g>
    <g id="sprite10" transform="matrix(1.0, 0.0, 0.0, 1.0, 0.0, 0.0)">
      <use ffdec:characterId="38" ffdec:characterName="203_fla.Symbole297_12" height="56.0" id="back" transform="matrix(1.0, 0.0, 0.0, 1.0, 0.0, 0.0)" width="56.0" xlink:href="#sprite11"/>
    </g>
    <g id="sprite11" transform="matrix(1.0, 0.0, 0.0, 1.0, 0.0, 0.0)">
      <use ffdec:characterId="37" ffdec:characterName="203_fla.Symbole294_13" height="56.0" id="back" transform="matrix(1.0, 0.0, 0.0, 1.0, 0.0, 0.0)" width="56.0" xlink:href="#sprite12"/>
    </g>
    <g id="sprite12" transform="matrix(1.0, 0.0, 0.0, 1.0, 0.0, 0.0)">
      <use ffdec:characterId="36" ffdec:characterName="203_fla.Symbole291_14" height="56.0" id="back" transform="matrix(1.0, 0.0, 0.0, 1.0, 0.0, 0.0)" width="56.0" xlink:href="#sprite13"/>
    </g>
    <g id="sprite13" transform="matrix(1.0, 0.0, 0.0, 1.0, 0.0, 0.0)">
      <use ffdec:characterId="35" ffdec:characterName="203_fla.Symbole288_15" height="56.0" id="back" transform="matrix(1.0, 0.0, 0.0, 1.0, 0.0, 0.0)" width="56.0" xlink:href="#sprite14"/>
    </g>
    <g id="sprite14" transform="matrix(1.0, 0.0, 0.0, 1.0, 0.0, 0.0)">
      <use ffdec:characterId="34" ffdec:characterName="203_fla.Symbole285_16" height="56.0" id="back" transform="matrix(1.0, 0.0, 0.0, 1.0, 0.0, 0.0)" width="56.0" xlink:href="#sprite15"/>
    </g>
    <g id="sprite15" transform="matrix(1.0, 0.0, 0.0, 1.0, 0.0, 0.0)">
      <use ffdec:characterId="33" ffdec:characterName="203_fla.Symbole282_17" height="56.0" id="back" transform="matrix(1.0, 0.0, 0.0, 1.0, 0.0, 0.0)" width="56.0" xlink:href="#sprite16"/>
    </g>
    <g id="sprite16" transform="matrix(1.0, 0.0, 0.0, 1.0, 0.0, 0.0)">
      <use ffdec:characterId="32" ffdec:characterName="203_fla.Symbole279_18" height="56.0" id="back" transform="matrix(1.0, 0.0, 0.0, 1.0, 0.0, 0.0)" width="56.0" xlink:href="#sprite17"/>
    </g>
    <g id="sprite17" transform="matrix(1.0, 0.0, 0.0, 1.0, 0.0, 0.0)">
      <use ffdec:characterId="31" ffdec:characterName="203_fla.Symbole276_19" height="56.0" id="back" transform="matrix(1.0, 0.0, 0.0, 1.0, 0.0, 0.0)" width="56.0" xlink:href="#sprite18"/>
    </g>
    <g id="sprite18" transform="matrix(1.0, 0.0, 0.0, 1.0, 0.0, 0.0)">
      <use ffdec:characterId="30" ffdec:characterName="203_fla.Symbole273_20" height="56.0" id="back" transform="matrix(1.0, 0.0, 0.0, 1.0, 0.0, 0.0)" width="56.0" xlink:href="#sprite19"/>
    </g>
    <g id="sprite19" transform="matrix(1.0, 0.0, 0.0, 1.0, 0.0, 0.0)">
      <use ffdec:characterId="29" ffdec:characterName="203_fla.Symbole270_21" height="56.0" id="back" transform="matrix(1.0, 0.0, 0.0, 1.0, 0.0, 0.0)" width="56.0" xlink:href="#sprite20"/>
    </g>
    <g id="sprite20" transform="matrix(1.0, 0.0, 0.0, 1.0, 0.0, 0.0)">
      <use ffdec:characterId="28" ffdec:characterName="203_fla.Symbole267_22" height="56.0" id="back" transform="matrix(1.0, 0.0, 0.0, 1.0, 0.0, 0.0)" width="56.0" xlink:href="#sprite21"/>
    </g>
    <g id="sprite21" transform="matrix(1.0, 0.0, 0.0, 1.0, 0.0, 0.0)">
      <use ffdec:characterId="27" ffdec:characterName="203_fla.Symbole264_23" height="56.0" id="back" transform="matrix(1.0, 0.0, 0.0, 1.0, 0.0, 0.0)" width="56.0" xlink:href="#sprite22"/>
    </g>
    <g id="sprite22" transform="matrix(1.0, 0.0, 0.0, 1.0, 0.0, 0.0)">
      <use ffdec:characterId="26" ffdec:characterName="203_fla.Symbole261_24" height="56.0" id="back" transform="matrix(1.0, 0.0, 0.0, 1.0, 0.0, 0.0)" width="56.0" xlink:href="#sprite23"/>
    </g>
    <g id="sprite23" transform="matrix(1.0, 0.0, 0.0, 1.0, 0.0, 0.0)">
      <use ffdec:characterId="25" ffdec:characterName="203_fla.Symbole258_25" height="56.0" id="back" transform="matrix(1.0, 0.0, 0.0, 1.0, 0.0, 0.0)" width="56.0" xlink:href="#sprite24"/>
    </g>
    <g id="sprite24" transform="matrix(1.0, 0.0, 0.0, 1.0, 0.0, 0.0)">
      <use ffdec:characterId="24" ffdec:characterName="203_fla.Symbole255_26" height="56.0" id="back" transform="matrix(1.0, 0.0, 0.0, 1.0, 0.0, 0.0)" width="56.0" xlink:href="#sprite25"/>
    </g>
    <g id="sprite25" transform="matrix(1.0, 0.0, 0.0, 1.0, 0.0, 0.0)">
      <use ffdec:characterId="23" ffdec:characterName="203_fla.Symbole252_27" height="56.0" id="back" transform="matrix(1.0, 0.0, 0.0, 1.0, 0.0, 0.0)" width="56.0" xlink:href="#sprite26"/>
    </g>
    <g id="sprite26" transform="matrix(1.0, 0.0, 0.0, 1.0, 0.0, 0.0)">
      <use ffdec:characterId="22" ffdec:characterName="203_fla.Symbole249_28" height="56.0" id="back" transform="matrix(1.0, 0.0, 0.0, 1.0, 0.0, 0.0)" width="56.0" xlink:href="#sprite27"/>
    </g>
    <g id="sprite27" transform="matrix(1.0, 0.0, 0.0, 1.0, 0.0, 0.0)">
      <use ffdec:characterId="21" ffdec:characterName="203_fla.Symbole246_29" height="56.0" id="back" transform="matrix(1.0, 0.0, 0.0, 1.0, 0.0, 0.0)" width="56.0" xlink:href="#sprite28"/>
    </g>
    <g id="sprite28" transform="matrix(1.0, 0.0, 0.0, 1.0, 0.0, 0.0)">
      <use ffdec:characterId="20" ffdec:characterName="203_fla.Symbole243_30" height="56.0" id="back" transform="matrix(1.0, 0.0, 0.0, 1.0, 0.0, 0.0)" width="56.0" xlink:href="#sprite29"/>
    </g>
    <g id="sprite29" transform="matrix(1.0, 0.0, 0.0, 1.0, 0.0, 0.0)">
      <use ffdec:characterId="19" ffdec:characterName="203_fla.Symbole240_31" height="56.0" id="back" transform="matrix(1.0, 0.0, 0.0, 1.0, 0.0, 0.0)" width="56.0" xlink:href="#sprite30"/>
    </g>
    <g id="sprite30" transform="matrix(1.0, 0.0, 0.0, 1.0, 0.0, 0.0)">
      <use ffdec:characterId="18" ffdec:characterName="203_fla.Symbole237_32" height="56.0" id="back" transform="matrix(1.0, 0.0, 0.0, 1.0, 0.0, 0.0)" width="56.0" xlink:href="#sprite31"/>
    </g>
    <g id="sprite31" transform="matrix(1.0, 0.0, 0.0, 1.0, 0.0, 0.0)">
      <use ffdec:characterId="17" ffdec:characterName="203_fla.Symbole234_33" height="56.0" id="back" transform="matrix(1.0, 0.0, 0.0, 1.0, 0.0, 0.0)" width="56.0" xlink:href="#sprite32"/>
    </g>
    <g id="sprite32" transform="matrix(1.0, 0.0, 0.0, 1.0, 0.0, 0.0)">
      <use ffdec:characterId="16" ffdec:characterName="203_fla.Symbole231_34" height="56.0" id="back" transform="matrix(1.0, 0.0, 0.0, 1.0, 0.0, 0.0)" width="56.0" xlink:href="#sprite33"/>
    </g>
    <g id="sprite33" transform="matrix(1.0, 0.0, 0.0, 1.0, 0.0, 0.0)">
      <use ffdec:characterId="15" ffdec:characterName="203_fla.Symbole228_35" height="56.0" id="back" transform="matrix(1.0, 0.0, 0.0, 1.0, 0.0, 0.0)" width="56.0" xlink:href="#sprite34"/>
    </g>
    <g id="sprite34" transform="matrix(1.0, 0.0, 0.0, 1.0, 0.0, 0.0)">
      <use ffdec:characterId="14" ffdec:characterName="203_fla.Symbole225_36" height="56.0" id="back" transform="matrix(1.0, 0.0, 0.0, 1.0, 0.0, 0.0)" width="56.0" xlink:href="#sprite35"/>
    </g>
    <g id="sprite35" transform="matrix(1.0, 0.0, 0.0, 1.0, 0.0, 0.0)">
      <use ffdec:characterId="13" ffdec:characterName="203_fla.Symbole222_37" height="56.0" id="back" transform="matrix(1.0, 0.0, 0.0, 1.0, 0.0, 0.0)" width="56.0" xlink:href="#sprite36"/>
    </g>
    <g id="sprite36" transform="matrix(1.0, 0.0, 0.0, 1.0, 0.0, 0.0)">
      <use ffdec:characterId="12" ffdec:characterName="203_fla.Symbole219_38" height="56.0" id="back" transform="matrix(1.0, 0.0, 0.0, 1.0, 0.0, 0.0)" width="56.0" xlink:href="#sprite37"/>
    </g>
    <g id="sprite37" transform="matrix(1.0, 0.0, 0.0, 1.0, 0.0, 0.0)">
      <use ffdec:characterId="11" ffdec:characterName="203_fla.Symbole216_39" height="56.0" id="back" transform="matrix(1.0, 0.0, 0.0, 1.0, 0.0, 0.0)" width="56.0" xlink:href="#sprite38"/>
    </g>
    <g id="sprite38" transform="matrix(1.0, 0.0, 0.0, 1.0, 0.0, 0.0)">
      <use ffdec:characterId="10" ffdec:characterName="203_fla.Symbole213_40" height="56.0" id="back" transform="matrix(1.0, 0.0, 0.0, 1.0, 0.0, 0.0)" width="56.0" xlink:href="#sprite39"/>
    </g>
    <g id="sprite39" transform="matrix(1.0, 0.0, 0.0, 1.0, 0.0, 0.0)">
      <use ffdec:characterId="9" ffdec:characterName="203_fla.Symbole210_41" height="56.0" id="back" transform="matrix(1.0, 0.0, 0.0, 1.0, 0.0, 0.0)" width="56.0" xlink:href="#sprite40"/>
    </g>
    <g id="sprite40" transform="matrix(1.0, 0.0, 0.0, 1.0, 0.0, 0.0)">
      <use ffdec:characterId="8" ffdec:characterName="203_fla.Symbole207_42" height="56.0" id="back" transform="matrix(1.0, 0.0, 0.0, 1.0, 0.0, 0.0)" width="56.0" xlink:href="#sprite41"/>
    </g>
    <g id="sprite41" transform="matrix(1.0, 0.0, 0.0, 1.0, 0.0, 0.0)">
      <use ffdec:characterId="7" ffdec:characterName="203_fla.Symbole204_43" height="56.0" id="back" transform="matrix(1.0, 0.0, 0.0, 1.0, 0.0, 0.0)" width="56.0" xlink:href="#sprite42"/>
    </g>
    <g id="sprite42" transform="matrix(1.0, 0.0, 0.0, 1.0, 0.0, 0.0)">
      <use ffdec:characterId="6" ffdec:characterName="203_fla.Symbole201_44" height="56.0" id="back" transform="matrix(1.0, 0.0, 0.0, 1.0, 0.0, 0.0)" width="56.0" xlink:href="#sprite43"/>
    </g>
    <g id="sprite43" transform="matrix(1.0, 0.0, 0.0, 1.0, 0.0, 0.0)">
      <use ffdec:characterId="5" ffdec:characterName="203_fla.Symbole198_45" height="56.0" id="back" transform="matrix(1.0, 0.0, 0.0, 1.0, 0.0, 0.0)" width="56.0" xlink:href="#sprite44"/>
    </g>
    <g id="sprite44" transform="matrix(1.0, 0.0, 0.0, 1.0, 0.0, 0.0)">
      <use ffdec:characterId="4" ffdec:characterName="203_fla.Symbole195_46" height="56.0" id="back" transform="matrix(1.0, 0.0, 0.0, 1.0, 0.0, 0.0)" width="56.0" xlink:href="#sprite45"/>
    </g>
    <g id="sprite45" transform="matrix(1.0, 0.0, 0.0, 1.0, 0.0, 0.0)">
      <use ffdec:characterId="3" ffdec:characterName="203_fla.Symbole192_47" height="56.0" id="back" transform="matrix(1.0, 0.0, 0.0, 1.0, 0.0, 0.0)" width="56.0" xlink:href="#sprite46"/>
    </g>
    <g id="sprite46" transform="matrix(1.0, 0.0, 0.0, 1.0, 0.0, 0.0)">
      <use ffdec:characterId="2" height="56.0" id="back" transform="matrix(1.0, 0.0, 0.0, 1.0, 0.0, 0.0)" width="56.0" xlink:href="#sprite47"/>
    </g>
    <g id="sprite47" transform="matrix(1.0, 0.0, 0.0, 1.0, 0.0, 0.0)">
      <use ffdec:characterId="1" height="56.0" transform="matrix(1.0, 0.0, 0.0, 1.0, 0.0, 0.0)" width="56.0" xlink:href="#shape0"/>
    </g>
    <g id="shape0" transform="matrix(1.0, 0.0, 0.0, 1.0, 0.0, 0.0)">
      <path d="M56.0 56.0 L0.0 56.0 0.0 0.0 56.0 0.0 56.0 56.0" fill="#010101" fill-opacity="0.0" fill-rule="evenodd" stroke="none"/>
    </g>
    <g id="sprite48" transform="matrix(1.0, 0.0, 0.0, 1.0, 0.75, 0.75)">
      <use ffdec:characterId="50" height="55.25" transform="matrix(1.0, 0.0, 0.0, 1.0, -0.75, -0.75)" width="47.05" xlink:href="#shape1"/>
    </g>
    <g id="shape1" transform="matrix(1.0, 0.0, 0.0, 1.0, 0.75, 0.75)">
      <path d="M42.8 15.6 L39.5 12.05 37.1 9.75 Q28.95 2.6 20.4 0.7 L17.35 0.2 Q10.4 -0.55 6.0 1.8 L5.85 1.85 Q1.05 4.9 0.7 8.4 L0.7 9.0 0.7 9.1 0.8 9.95 0.7 9.95 0.95 18.75 Q1.05 19.95 2.0 21.3 3.2 23.1 5.6 25.1 L2.55 28.75 2.4 29.1 Q0.0 32.85 0.0 35.6 L0.2 42.25 0.0 43.45 0.2 44.5 Q0.35 46.3 1.8 48.6 3.6 51.0 8.45 52.7 L8.55 52.7 Q17.6 56.05 32.4 48.7 L33.0 48.5 Q44.3 43.05 45.45 34.55 L45.45 34.3 45.55 26.25 45.45 26.6 45.55 23.4 Q45.35 21.3 44.6 19.35 L44.35 18.4 44.3 18.15 43.1 16.0 42.8 15.6 M36.55 19.5 Q31.8 13.95 27.0 11.35 26.65 11.2 26.3 11.35 25.9 11.5 25.75 11.9 25.5 12.15 25.75 12.55 L26.15 13.1 Q30.55 15.6 35.05 20.6 L35.75 22.0 35.75 21.9 36.25 23.1 36.15 22.95 36.3 24.9 Q36.15 29.95 29.5 33.2 L29.2 33.3 Q24.2 35.85 20.4 36.5 L14.2 36.35 14.3 36.35 Q12.15 35.45 11.45 34.15 L11.2 33.85 10.95 33.6 Q10.6 33.1 10.7 32.4 10.95 31.55 11.55 30.55 L13.6 28.15 13.75 27.45 13.45 26.85 12.8 26.5 Q12.25 26.5 12.05 26.85 L10.0 29.15 10.0 29.35 Q8.95 30.9 8.8 32.0 L8.8 32.1 Q8.45 33.85 9.6 34.9 L9.75 35.15 Q10.7 37.05 13.6 38.15 L20.4 38.5 Q24.55 37.75 29.9 35.15 L30.15 35.05 Q38.2 31.05 38.2 24.9 L38.0 22.5 38.0 22.45 37.45 21.05 36.55 19.5 M41.45 22.45 L41.6 24.55 Q41.45 32.25 31.35 37.2 L31.2 37.2 Q25.2 40.2 20.4 41.35 14.2 42.7 9.85 41.3 6.5 40.0 5.2 37.75 L4.8 37.3 Q4.15 36.45 4.15 35.3 L4.2 34.55 Q4.4 33.1 5.6 31.3 L9.75 26.25 Q13.6 23.25 12.15 18.85 L12.05 18.55 11.6 17.75 11.55 17.35 11.35 17.05 10.55 15.65 9.85 15.1 Q6.4 12.6 5.2 10.7 L5.05 10.2 4.65 9.45 Q4.65 7.35 7.8 5.25 11.35 3.55 16.95 4.1 L20.4 4.8 Q23.75 5.5 27.0 7.35 33.5 10.8 39.75 17.9 L40.75 19.85 41.35 21.65 41.45 22.45 M17.6 8.55 Q17.6 9.5 16.25 10.2 15.05 10.95 13.2 10.95 11.35 10.95 10.0 10.2 9.05 9.75 8.9 9.0 L8.8 8.55 Q8.8 7.6 10.0 6.8 11.35 6.15 13.2 6.15 15.05 6.15 16.25 6.8 17.6 7.6 17.6 8.55 Z" fill="none" stroke="#000000" stroke-linecap="round" stroke-linejoin="round" stroke-opacity="0.2" stroke-width="1.5"/>
    </g>
    <g id="sprite49" transform="matrix(1.0, 0.0, 0.0, 1.0, 0.0, 0.0)">
      <use ffdec:characterId="52" height="53.75" transform="matrix(1.0, 0.0, 0.0, 1.0, 0.0, 0.0)" width="45.6" xlink:href="#shape2"/>
    </g>
    <g id="shape2" transform="matrix(1.0, 0.0, 0.0, 1.0, 0.0, 0.0)">
      <path d="M41.45 22.45 L41.35 21.65 40.8 19.9 39.75 17.9 Q33.55 10.8 27.05 7.35 23.75 5.5 20.4 4.8 L16.95 4.1 Q11.35 3.55 7.75 5.2 4.65 7.35 4.65 9.45 L5.05 10.25 5.2 10.7 Q6.4 12.65 9.85 15.1 L10.55 15.65 11.35 17.0 11.55 17.35 11.6 17.75 12.1 18.55 12.15 18.85 Q13.6 23.25 9.75 26.25 L5.6 31.3 Q4.4 33.15 4.25 34.55 L4.2 35.3 Q4.2 36.4 4.8 37.3 L5.2 37.75 Q6.5 40.0 9.85 41.3 14.25 42.7 20.4 41.35 25.2 40.25 31.2 37.2 L31.35 37.2 Q41.45 32.25 41.6 24.5 L41.45 22.45 M36.55 19.5 L37.45 21.1 38.0 22.45 38.0 22.5 38.25 24.9 Q38.25 31.05 30.15 35.05 L29.95 35.15 Q24.55 37.75 20.4 38.5 L13.6 38.15 Q10.75 37.05 9.75 35.15 L9.6 34.9 Q8.5 33.85 8.8 32.1 L8.8 32.0 Q8.95 30.9 10.0 29.3 L10.0 29.15 12.1 26.85 Q12.25 26.5 12.8 26.5 L13.45 26.85 13.75 27.45 13.6 28.1 11.55 30.5 10.75 32.4 Q10.65 33.15 10.95 33.6 L11.2 33.85 11.45 34.15 Q12.15 35.45 14.35 36.35 L14.25 36.35 20.4 36.5 Q24.25 35.85 29.2 33.3 L29.55 33.2 Q36.15 29.95 36.3 24.9 L36.15 22.9 36.25 23.1 35.75 21.9 35.75 21.95 35.05 20.6 Q30.55 15.6 26.15 13.1 L25.75 12.55 Q25.55 12.15 25.75 11.9 L26.35 11.35 Q26.65 11.2 27.05 11.35 31.85 14.0 36.55 19.5 M42.8 15.6 L43.1 16.0 44.3 18.15 44.4 18.35 44.65 19.35 Q45.35 21.35 45.6 23.4 L45.45 26.6 Q45.45 26.45 45.6 26.25 L45.45 34.35 45.45 34.55 Q44.3 43.05 33.05 48.45 L32.4 48.7 Q17.6 56.05 8.55 52.7 L8.5 52.7 Q3.6 51.0 1.85 48.6 0.4 46.3 0.2 44.45 L0.0 43.45 0.2 42.25 0.0 35.6 Q0.0 32.8 2.4 29.05 L2.6 28.75 5.6 25.1 Q3.2 23.1 2.0 21.35 1.05 19.95 1.0 18.75 L0.75 9.9 0.8 9.9 0.75 9.1 0.75 9.05 0.75 8.4 Q1.05 4.9 5.85 1.85 5.85 1.75 6.0 1.75 10.4 -0.55 17.35 0.2 L20.4 0.75 Q28.95 2.55 37.1 9.75 L39.5 12.05 42.8 15.6 M16.25 10.25 Q15.05 10.95 13.2 10.95 11.35 10.95 10.0 10.25 9.05 9.75 8.9 9.05 L8.8 8.55 Q8.8 7.6 10.0 6.8 11.35 6.15 13.2 6.15 15.05 6.15 16.25 6.8 17.6 7.6 17.6 8.55 17.6 9.5 16.25 10.25" fill="#020202" fill-rule="evenodd" stroke="none"/>
    </g>
  </defs>
</svg>
