<?xml version="1.0" encoding="UTF-8" standalone="no"?>
<svg xmlns:ffdec="https://www.free-decompiler.com/flash" xmlns:xlink="http://www.w3.org/1999/xlink" ffdec:objectType="frame" height="56.0px" width="56.0px" xmlns="http://www.w3.org/2000/svg">
  <g transform="matrix(1.0, 0.0, 0.0, 1.0, 0.0, 0.0)">
    <use ffdec:characterId="50" ffdec:characterName="204_fla.Symbole333_1" height="56.0" id="back" transform="matrix(1.0, 0.0, 0.0, 1.0, 0.0, 0.0)" width="56.0" xlink:href="#sprite0"/>
    <use ffdec:characterId="52" height="55.25" id="back" transform="matrix(1.0, 0.0, 0.0, 1.0, 0.35, 0.3)" width="55.25" xlink:href="#sprite49"/>
    <use ffdec:characterId="54" height="53.75" id="up" transform="matrix(1.0, 0.0, 0.0, 1.0, 1.1, 1.05)" width="53.75" xlink:href="#sprite50"/>
  </g>
  <defs>
    <g id="sprite0" transform="matrix(1.0, 0.0, 0.0, 1.0, 0.0, 0.0)">
      <use ffdec:characterId="49" ffdec:characterName="204_fla.Symbole330_2" height="56.0" id="back" transform="matrix(1.0, 0.0, 0.0, 1.0, 0.0, 0.0)" width="56.0" xlink:href="#sprite1"/>
    </g>
    <g id="sprite1" transform="matrix(1.0, 0.0, 0.0, 1.0, 0.0, 0.0)">
      <use ffdec:characterId="48" ffdec:characterName="204_fla.Symbole327_3" height="56.0" id="back" transform="matrix(1.0, 0.0, 0.0, 1.0, 0.0, 0.0)" width="56.0" xlink:href="#sprite2"/>
    </g>
    <g id="sprite2" transform="matrix(1.0, 0.0, 0.0, 1.0, 0.0, 0.0)">
      <use ffdec:characterId="47" ffdec:characterName="204_fla.Symbole324_4" height="56.0" id="back" transform="matrix(1.0, 0.0, 0.0, 1.0, 0.0, 0.0)" width="56.0" xlink:href="#sprite3"/>
    </g>
    <g id="sprite3" transform="matrix(1.0, 0.0, 0.0, 1.0, 0.0, 0.0)">
      <use ffdec:characterId="46" ffdec:characterName="204_fla.Symbole321_5" height="56.0" id="back" transform="matrix(1.0, 0.0, 0.0, 1.0, 0.0, 0.0)" width="56.0" xlink:href="#sprite4"/>
    </g>
    <g id="sprite4" transform="matrix(1.0, 0.0, 0.0, 1.0, 0.0, 0.0)">
      <use ffdec:characterId="45" ffdec:characterName="204_fla.Symbole318_6" height="56.0" id="back" transform="matrix(1.0, 0.0, 0.0, 1.0, 0.0, 0.0)" width="56.0" xlink:href="#sprite5"/>
    </g>
    <g id="sprite5" transform="matrix(1.0, 0.0, 0.0, 1.0, 0.0, 0.0)">
      <use ffdec:characterId="44" ffdec:characterName="204_fla.Symbole315_7" height="56.0" id="back" transform="matrix(1.0, 0.0, 0.0, 1.0, 0.0, 0.0)" width="56.0" xlink:href="#sprite6"/>
    </g>
    <g id="sprite6" transform="matrix(1.0, 0.0, 0.0, 1.0, 0.0, 0.0)">
      <use ffdec:characterId="43" ffdec:characterName="204_fla.Symbole312_8" height="56.0" id="back" transform="matrix(1.0, 0.0, 0.0, 1.0, 0.0, 0.0)" width="56.0" xlink:href="#sprite7"/>
    </g>
    <g id="sprite7" transform="matrix(1.0, 0.0, 0.0, 1.0, 0.0, 0.0)">
      <use ffdec:characterId="42" ffdec:characterName="204_fla.Symbole309_9" height="56.0" id="back" transform="matrix(1.0, 0.0, 0.0, 1.0, 0.0, 0.0)" width="56.0" xlink:href="#sprite8"/>
    </g>
    <g id="sprite8" transform="matrix(1.0, 0.0, 0.0, 1.0, 0.0, 0.0)">
      <use ffdec:characterId="41" ffdec:characterName="204_fla.Symbole306_10" height="56.0" id="back" transform="matrix(1.0, 0.0, 0.0, 1.0, 0.0, 0.0)" width="56.0" xlink:href="#sprite9"/>
    </g>
    <g id="sprite9" transform="matrix(1.0, 0.0, 0.0, 1.0, 0.0, 0.0)">
      <use ffdec:characterId="40" ffdec:characterName="204_fla.Symbole303_11" height="56.0" id="back" transform="matrix(1.0, 0.0, 0.0, 1.0, 0.0, 0.0)" width="56.0" xlink:href="#sprite10"/>
    </g>
    <g id="sprite10" transform="matrix(1.0, 0.0, 0.0, 1.0, 0.0, 0.0)">
      <use ffdec:characterId="39" ffdec:characterName="204_fla.Symbole300_12" height="56.0" id="back" transform="matrix(1.0, 0.0, 0.0, 1.0, 0.0, 0.0)" width="56.0" xlink:href="#sprite11"/>
    </g>
    <g id="sprite11" transform="matrix(1.0, 0.0, 0.0, 1.0, 0.0, 0.0)">
      <use ffdec:characterId="38" ffdec:characterName="204_fla.Symbole297_13" height="56.0" id="back" transform="matrix(1.0, 0.0, 0.0, 1.0, 0.0, 0.0)" width="56.0" xlink:href="#sprite12"/>
    </g>
    <g id="sprite12" transform="matrix(1.0, 0.0, 0.0, 1.0, 0.0, 0.0)">
      <use ffdec:characterId="37" ffdec:characterName="204_fla.Symbole294_14" height="56.0" id="back" transform="matrix(1.0, 0.0, 0.0, 1.0, 0.0, 0.0)" width="56.0" xlink:href="#sprite13"/>
    </g>
    <g id="sprite13" transform="matrix(1.0, 0.0, 0.0, 1.0, 0.0, 0.0)">
      <use ffdec:characterId="36" ffdec:characterName="204_fla.Symbole291_15" height="56.0" id="back" transform="matrix(1.0, 0.0, 0.0, 1.0, 0.0, 0.0)" width="56.0" xlink:href="#sprite14"/>
    </g>
    <g id="sprite14" transform="matrix(1.0, 0.0, 0.0, 1.0, 0.0, 0.0)">
      <use ffdec:characterId="35" ffdec:characterName="204_fla.Symbole288_16" height="56.0" id="back" transform="matrix(1.0, 0.0, 0.0, 1.0, 0.0, 0.0)" width="56.0" xlink:href="#sprite15"/>
    </g>
    <g id="sprite15" transform="matrix(1.0, 0.0, 0.0, 1.0, 0.0, 0.0)">
      <use ffdec:characterId="34" ffdec:characterName="204_fla.Symbole285_17" height="56.0" id="back" transform="matrix(1.0, 0.0, 0.0, 1.0, 0.0, 0.0)" width="56.0" xlink:href="#sprite16"/>
    </g>
    <g id="sprite16" transform="matrix(1.0, 0.0, 0.0, 1.0, 0.0, 0.0)">
      <use ffdec:characterId="33" ffdec:characterName="204_fla.Symbole282_18" height="56.0" id="back" transform="matrix(1.0, 0.0, 0.0, 1.0, 0.0, 0.0)" width="56.0" xlink:href="#sprite17"/>
    </g>
    <g id="sprite17" transform="matrix(1.0, 0.0, 0.0, 1.0, 0.0, 0.0)">
      <use ffdec:characterId="32" ffdec:characterName="204_fla.Symbole279_19" height="56.0" id="back" transform="matrix(1.0, 0.0, 0.0, 1.0, 0.0, 0.0)" width="56.0" xlink:href="#sprite18"/>
    </g>
    <g id="sprite18" transform="matrix(1.0, 0.0, 0.0, 1.0, 0.0, 0.0)">
      <use ffdec:characterId="31" ffdec:characterName="204_fla.Symbole276_20" height="56.0" id="back" transform="matrix(1.0, 0.0, 0.0, 1.0, 0.0, 0.0)" width="56.0" xlink:href="#sprite19"/>
    </g>
    <g id="sprite19" transform="matrix(1.0, 0.0, 0.0, 1.0, 0.0, 0.0)">
      <use ffdec:characterId="30" ffdec:characterName="204_fla.Symbole273_21" height="56.0" id="back" transform="matrix(1.0, 0.0, 0.0, 1.0, 0.0, 0.0)" width="56.0" xlink:href="#sprite20"/>
    </g>
    <g id="sprite20" transform="matrix(1.0, 0.0, 0.0, 1.0, 0.0, 0.0)">
      <use ffdec:characterId="29" ffdec:characterName="204_fla.Symbole270_22" height="56.0" id="back" transform="matrix(1.0, 0.0, 0.0, 1.0, 0.0, 0.0)" width="56.0" xlink:href="#sprite21"/>
    </g>
    <g id="sprite21" transform="matrix(1.0, 0.0, 0.0, 1.0, 0.0, 0.0)">
      <use ffdec:characterId="28" ffdec:characterName="204_fla.Symbole267_23" height="56.0" id="back" transform="matrix(1.0, 0.0, 0.0, 1.0, 0.0, 0.0)" width="56.0" xlink:href="#sprite22"/>
    </g>
    <g id="sprite22" transform="matrix(1.0, 0.0, 0.0, 1.0, 0.0, 0.0)">
      <use ffdec:characterId="27" ffdec:characterName="204_fla.Symbole264_24" height="56.0" id="back" transform="matrix(1.0, 0.0, 0.0, 1.0, 0.0, 0.0)" width="56.0" xlink:href="#sprite23"/>
    </g>
    <g id="sprite23" transform="matrix(1.0, 0.0, 0.0, 1.0, 0.0, 0.0)">
      <use ffdec:characterId="26" ffdec:characterName="204_fla.Symbole261_25" height="56.0" id="back" transform="matrix(1.0, 0.0, 0.0, 1.0, 0.0, 0.0)" width="56.0" xlink:href="#sprite24"/>
    </g>
    <g id="sprite24" transform="matrix(1.0, 0.0, 0.0, 1.0, 0.0, 0.0)">
      <use ffdec:characterId="25" ffdec:characterName="204_fla.Symbole258_26" height="56.0" id="back" transform="matrix(1.0, 0.0, 0.0, 1.0, 0.0, 0.0)" width="56.0" xlink:href="#sprite25"/>
    </g>
    <g id="sprite25" transform="matrix(1.0, 0.0, 0.0, 1.0, 0.0, 0.0)">
      <use ffdec:characterId="24" ffdec:characterName="204_fla.Symbole255_27" height="56.0" id="back" transform="matrix(1.0, 0.0, 0.0, 1.0, 0.0, 0.0)" width="56.0" xlink:href="#sprite26"/>
    </g>
    <g id="sprite26" transform="matrix(1.0, 0.0, 0.0, 1.0, 0.0, 0.0)">
      <use ffdec:characterId="23" ffdec:characterName="204_fla.Symbole252_28" height="56.0" id="back" transform="matrix(1.0, 0.0, 0.0, 1.0, 0.0, 0.0)" width="56.0" xlink:href="#sprite27"/>
    </g>
    <g id="sprite27" transform="matrix(1.0, 0.0, 0.0, 1.0, 0.0, 0.0)">
      <use ffdec:characterId="22" ffdec:characterName="204_fla.Symbole249_29" height="56.0" id="back" transform="matrix(1.0, 0.0, 0.0, 1.0, 0.0, 0.0)" width="56.0" xlink:href="#sprite28"/>
    </g>
    <g id="sprite28" transform="matrix(1.0, 0.0, 0.0, 1.0, 0.0, 0.0)">
      <use ffdec:characterId="21" ffdec:characterName="204_fla.Symbole246_30" height="56.0" id="back" transform="matrix(1.0, 0.0, 0.0, 1.0, 0.0, 0.0)" width="56.0" xlink:href="#sprite29"/>
    </g>
    <g id="sprite29" transform="matrix(1.0, 0.0, 0.0, 1.0, 0.0, 0.0)">
      <use ffdec:characterId="20" ffdec:characterName="204_fla.Symbole243_31" height="56.0" id="back" transform="matrix(1.0, 0.0, 0.0, 1.0, 0.0, 0.0)" width="56.0" xlink:href="#sprite30"/>
    </g>
    <g id="sprite30" transform="matrix(1.0, 0.0, 0.0, 1.0, 0.0, 0.0)">
      <use ffdec:characterId="19" ffdec:characterName="204_fla.Symbole240_32" height="56.0" id="back" transform="matrix(1.0, 0.0, 0.0, 1.0, 0.0, 0.0)" width="56.0" xlink:href="#sprite31"/>
    </g>
    <g id="sprite31" transform="matrix(1.0, 0.0, 0.0, 1.0, 0.0, 0.0)">
      <use ffdec:characterId="18" ffdec:characterName="204_fla.Symbole237_33" height="56.0" id="back" transform="matrix(1.0, 0.0, 0.0, 1.0, 0.0, 0.0)" width="56.0" xlink:href="#sprite32"/>
    </g>
    <g id="sprite32" transform="matrix(1.0, 0.0, 0.0, 1.0, 0.0, 0.0)">
      <use ffdec:characterId="17" ffdec:characterName="204_fla.Symbole234_34" height="56.0" id="back" transform="matrix(1.0, 0.0, 0.0, 1.0, 0.0, 0.0)" width="56.0" xlink:href="#sprite33"/>
    </g>
    <g id="sprite33" transform="matrix(1.0, 0.0, 0.0, 1.0, 0.0, 0.0)">
      <use ffdec:characterId="16" ffdec:characterName="204_fla.Symbole231_35" height="56.0" id="back" transform="matrix(1.0, 0.0, 0.0, 1.0, 0.0, 0.0)" width="56.0" xlink:href="#sprite34"/>
    </g>
    <g id="sprite34" transform="matrix(1.0, 0.0, 0.0, 1.0, 0.0, 0.0)">
      <use ffdec:characterId="15" ffdec:characterName="204_fla.Symbole228_36" height="56.0" id="back" transform="matrix(1.0, 0.0, 0.0, 1.0, 0.0, 0.0)" width="56.0" xlink:href="#sprite35"/>
    </g>
    <g id="sprite35" transform="matrix(1.0, 0.0, 0.0, 1.0, 0.0, 0.0)">
      <use ffdec:characterId="14" ffdec:characterName="204_fla.Symbole225_37" height="56.0" id="back" transform="matrix(1.0, 0.0, 0.0, 1.0, 0.0, 0.0)" width="56.0" xlink:href="#sprite36"/>
    </g>
    <g id="sprite36" transform="matrix(1.0, 0.0, 0.0, 1.0, 0.0, 0.0)">
      <use ffdec:characterId="13" ffdec:characterName="204_fla.Symbole222_38" height="56.0" id="back" transform="matrix(1.0, 0.0, 0.0, 1.0, 0.0, 0.0)" width="56.0" xlink:href="#sprite37"/>
    </g>
    <g id="sprite37" transform="matrix(1.0, 0.0, 0.0, 1.0, 0.0, 0.0)">
      <use ffdec:characterId="12" ffdec:characterName="204_fla.Symbole219_39" height="56.0" id="back" transform="matrix(1.0, 0.0, 0.0, 1.0, 0.0, 0.0)" width="56.0" xlink:href="#sprite38"/>
    </g>
    <g id="sprite38" transform="matrix(1.0, 0.0, 0.0, 1.0, 0.0, 0.0)">
      <use ffdec:characterId="11" ffdec:characterName="204_fla.Symbole216_40" height="56.0" id="back" transform="matrix(1.0, 0.0, 0.0, 1.0, 0.0, 0.0)" width="56.0" xlink:href="#sprite39"/>
    </g>
    <g id="sprite39" transform="matrix(1.0, 0.0, 0.0, 1.0, 0.0, 0.0)">
      <use ffdec:characterId="10" ffdec:characterName="204_fla.Symbole213_41" height="56.0" id="back" transform="matrix(1.0, 0.0, 0.0, 1.0, 0.0, 0.0)" width="56.0" xlink:href="#sprite40"/>
    </g>
    <g id="sprite40" transform="matrix(1.0, 0.0, 0.0, 1.0, 0.0, 0.0)">
      <use ffdec:characterId="9" ffdec:characterName="204_fla.Symbole210_42" height="56.0" id="back" transform="matrix(1.0, 0.0, 0.0, 1.0, 0.0, 0.0)" width="56.0" xlink:href="#sprite41"/>
    </g>
    <g id="sprite41" transform="matrix(1.0, 0.0, 0.0, 1.0, 0.0, 0.0)">
      <use ffdec:characterId="8" ffdec:characterName="204_fla.Symbole207_43" height="56.0" id="back" transform="matrix(1.0, 0.0, 0.0, 1.0, 0.0, 0.0)" width="56.0" xlink:href="#sprite42"/>
    </g>
    <g id="sprite42" transform="matrix(1.0, 0.0, 0.0, 1.0, 0.0, 0.0)">
      <use ffdec:characterId="7" ffdec:characterName="204_fla.Symbole204_44" height="56.0" id="back" transform="matrix(1.0, 0.0, 0.0, 1.0, 0.0, 0.0)" width="56.0" xlink:href="#sprite43"/>
    </g>
    <g id="sprite43" transform="matrix(1.0, 0.0, 0.0, 1.0, 0.0, 0.0)">
      <use ffdec:characterId="6" ffdec:characterName="204_fla.Symbole201_45" height="56.0" id="back" transform="matrix(1.0, 0.0, 0.0, 1.0, 0.0, 0.0)" width="56.0" xlink:href="#sprite44"/>
    </g>
    <g id="sprite44" transform="matrix(1.0, 0.0, 0.0, 1.0, 0.0, 0.0)">
      <use ffdec:characterId="5" ffdec:characterName="204_fla.Symbole198_46" height="56.0" id="back" transform="matrix(1.0, 0.0, 0.0, 1.0, 0.0, 0.0)" width="56.0" xlink:href="#sprite45"/>
    </g>
    <g id="sprite45" transform="matrix(1.0, 0.0, 0.0, 1.0, 0.0, 0.0)">
      <use ffdec:characterId="4" ffdec:characterName="204_fla.Symbole195_47" height="56.0" id="back" transform="matrix(1.0, 0.0, 0.0, 1.0, 0.0, 0.0)" width="56.0" xlink:href="#sprite46"/>
    </g>
    <g id="sprite46" transform="matrix(1.0, 0.0, 0.0, 1.0, 0.0, 0.0)">
      <use ffdec:characterId="3" ffdec:characterName="204_fla.Symbole192_48" height="56.0" id="back" transform="matrix(1.0, 0.0, 0.0, 1.0, 0.0, 0.0)" width="56.0" xlink:href="#sprite47"/>
    </g>
    <g id="sprite47" transform="matrix(1.0, 0.0, 0.0, 1.0, 0.0, 0.0)">
      <use ffdec:characterId="2" height="56.0" id="back" transform="matrix(1.0, 0.0, 0.0, 1.0, 0.0, 0.0)" width="56.0" xlink:href="#sprite48"/>
    </g>
    <g id="sprite48" transform="matrix(1.0, 0.0, 0.0, 1.0, 0.0, 0.0)">
      <use ffdec:characterId="1" height="56.0" transform="matrix(1.0, 0.0, 0.0, 1.0, 0.0, 0.0)" width="56.0" xlink:href="#shape0"/>
    </g>
    <g id="shape0" transform="matrix(1.0, 0.0, 0.0, 1.0, 0.0, 0.0)">
      <path d="M56.0 56.0 L0.0 56.0 0.0 0.0 56.0 0.0 56.0 56.0" fill="#010101" fill-opacity="0.0" fill-rule="evenodd" stroke="none"/>
    </g>
    <g id="sprite49" transform="matrix(1.0, 0.0, 0.0, 1.0, 0.75, 0.75)">
      <use ffdec:characterId="51" height="55.25" transform="matrix(1.0, 0.0, 0.0, 1.0, -0.75, -0.75)" width="55.25" xlink:href="#shape1"/>
    </g>
    <g id="shape1" transform="matrix(1.0, 0.0, 0.0, 1.0, 0.75, 0.75)">
      <path d="M39.55 13.85 Q44.6 18.9 44.75 26.0 L41.05 26.0 Q40.8 20.65 36.95 16.95 33.15 13.1 27.75 12.95 L27.75 8.8 Q34.55 9.0 39.55 13.9 L39.55 13.85 M53.6 26.85 L53.75 26.5 53.6 26.15 Q53.45 26.0 53.3 26.0 L47.55 26.0 Q47.45 17.75 41.55 11.9 35.8 6.2 27.75 5.95 L27.75 0.5 27.6 0.15 27.25 0.0 Q27.05 0.0 26.95 0.15 26.8 0.3 26.8 0.5 L26.8 5.95 Q18.4 6.05 12.55 11.9 6.8 17.8 6.65 26.0 L0.5 26.0 Q0.3 26.0 0.15 26.15 L0.0 26.5 0.15 26.85 0.5 26.95 6.65 26.95 Q6.8 35.1 12.55 40.9 18.4 46.8 26.8 46.95 L26.8 53.3 26.95 53.6 Q27.05 53.75 27.25 53.75 L27.6 53.6 27.75 53.3 27.75 46.95 Q35.8 46.65 41.55 40.9 L41.55 40.95 Q47.4 35.1 47.55 26.95 L53.3 26.95 53.6 26.85 M44.75 26.95 Q44.6 33.95 39.55 38.9 34.6 43.8 27.75 44.1 L27.75 40.3 Q33.15 40.15 36.95 36.4 40.95 32.4 41.05 26.95 L44.75 26.95 M27.75 14.9 Q32.35 15.0 35.65 18.25 L35.65 18.3 Q38.9 21.45 39.2 26.0 L34.35 26.0 Q34.15 23.35 32.2 21.4 L32.15 21.4 Q30.35 19.55 27.75 19.4 L27.75 14.9 M26.8 21.2 L26.8 26.0 21.85 26.0 Q22.0 24.1 23.35 22.8 24.85 21.35 26.8 21.2 M26.8 19.35 Q24.05 19.45 22.05 21.4 20.1 23.35 19.95 26.0 L15.45 26.0 Q15.7 21.45 19.0 18.3 L19.0 18.25 Q22.25 15.0 26.8 14.9 L26.8 19.35 M30.85 22.8 Q32.25 24.1 32.45 26.0 L27.75 26.0 27.75 21.25 Q29.5 21.4 30.85 22.75 L30.85 22.8 M26.8 12.95 Q21.45 13.15 17.7 16.95 13.85 20.65 13.55 26.0 L9.45 26.0 Q9.6 18.9 14.5 13.9 L14.55 13.85 Q19.6 8.9 26.8 8.8 L26.8 12.95 M15.4 26.95 L19.95 26.95 Q20.1 29.6 22.05 31.55 L22.05 31.6 Q24.05 33.65 26.8 33.75 L26.8 38.45 Q22.25 38.3 19.0 35.05 15.5 31.6 15.4 26.95 M13.5 26.95 Q13.6 32.4 17.7 36.45 L17.7 36.4 Q21.45 40.15 26.8 40.3 L26.8 44.1 Q19.6 44.0 14.5 38.9 L14.55 38.9 Q9.65 33.95 9.45 26.95 L13.5 26.95 M30.85 30.3 Q29.5 31.65 27.75 31.8 L27.75 26.95 32.45 26.95 Q32.25 28.8 30.85 30.25 L30.85 30.3 M34.35 26.95 L39.2 26.95 Q39.1 31.65 35.65 35.05 32.35 38.3 27.75 38.45 L27.75 33.75 Q30.3 33.55 32.15 31.6 L32.2 31.55 Q34.15 29.55 34.35 26.95 M23.35 30.25 Q22.0 28.8 21.85 26.95 L26.8 26.95 26.8 31.8 Q24.85 31.7 23.4 30.25 L23.35 30.25 Z" fill="none" stroke="#000000" stroke-linecap="round" stroke-linejoin="round" stroke-opacity="0.2" stroke-width="1.5"/>
    </g>
    <g id="sprite50" transform="matrix(1.0, 0.0, 0.0, 1.0, 0.0, 0.0)">
      <use ffdec:characterId="53" height="53.75" transform="matrix(1.0, 0.0, 0.0, 1.0, 0.0, 0.0)" width="53.75" xlink:href="#shape2"/>
    </g>
    <g id="shape2" transform="matrix(1.0, 0.0, 0.0, 1.0, 0.0, 0.0)">
      <path d="M23.35 30.25 L23.4 30.25 Q24.85 31.7 26.8 31.8 L26.8 26.95 21.85 26.95 Q22.0 28.8 23.35 30.25 M30.85 30.3 L30.85 30.25 Q32.25 28.8 32.45 26.95 L27.75 26.95 27.75 31.8 Q29.5 31.65 30.85 30.3 M34.35 26.95 Q34.15 29.55 32.2 31.55 L32.15 31.6 Q30.3 33.55 27.75 33.75 L27.75 38.45 Q32.35 38.3 35.65 35.05 39.1 31.65 39.2 26.95 L34.35 26.95 M13.5 26.95 L9.45 26.95 Q9.65 33.95 14.55 38.9 L14.5 38.9 Q19.6 44.0 26.8 44.1 L26.8 40.3 Q21.45 40.15 17.7 36.4 L17.7 36.45 Q13.6 32.4 13.5 26.95 M15.4 26.95 Q15.5 31.6 19.0 35.05 22.25 38.3 26.8 38.45 L26.8 33.75 Q24.05 33.65 22.05 31.6 L22.05 31.55 Q20.1 29.6 19.95 26.95 L15.4 26.95 M26.8 12.95 L26.8 8.8 Q19.6 8.9 14.55 13.85 L14.5 13.9 Q9.6 18.9 9.45 26.0 L13.55 26.0 Q13.85 20.65 17.7 16.95 21.45 13.15 26.8 12.95 M30.85 22.8 L30.85 22.75 Q29.5 21.4 27.75 21.25 L27.75 26.0 32.45 26.0 Q32.25 24.1 30.85 22.8 M27.75 14.9 L27.75 19.4 Q30.35 19.55 32.15 21.4 L32.2 21.4 Q34.15 23.35 34.35 26.0 L39.2 26.0 Q38.9 21.45 35.65 18.3 L35.65 18.25 Q32.35 15.0 27.75 14.9 M26.8 21.2 Q24.85 21.35 23.35 22.8 22.0 24.1 21.85 26.0 L26.8 26.0 26.8 21.2 M26.8 19.35 L26.8 14.9 Q22.25 15.0 19.0 18.25 L19.0 18.3 Q15.7 21.45 15.45 26.0 L19.95 26.0 Q20.1 23.35 22.05 21.4 24.05 19.45 26.8 19.35 M44.75 26.95 L41.05 26.95 Q40.95 32.4 36.95 36.4 33.15 40.15 27.75 40.3 L27.75 44.1 Q34.6 43.8 39.55 38.9 44.6 33.95 44.75 26.95 M53.3 26.0 Q53.45 26.0 53.6 26.15 L53.75 26.5 53.6 26.85 53.3 26.95 47.55 26.95 Q47.4 35.1 41.55 40.95 L41.55 40.9 Q35.8 46.65 27.75 46.95 L27.75 53.3 27.6 53.6 27.25 53.75 Q27.05 53.75 26.95 53.6 L26.8 53.3 26.8 46.95 Q18.4 46.8 12.55 40.9 6.8 35.1 6.65 26.95 L0.5 26.95 0.15 26.85 0.0 26.5 0.15 26.15 Q0.3 26.0 0.5 26.0 L6.65 26.0 Q6.8 17.8 12.55 11.9 18.4 6.05 26.8 5.95 L26.8 0.5 Q26.8 0.3 26.95 0.15 27.05 0.0 27.25 0.0 L27.6 0.15 27.75 0.5 27.75 5.95 Q35.8 6.2 41.55 11.9 47.45 17.75 47.55 26.0 L53.3 26.0 M39.55 13.85 L39.55 13.9 Q34.55 9.0 27.75 8.8 L27.75 12.95 Q33.15 13.1 36.95 16.95 40.8 20.65 41.05 26.0 L44.75 26.0 Q44.6 18.9 39.55 13.85" fill="#000000" fill-rule="evenodd" stroke="none"/>
    </g>
  </defs>
</svg>
