<?xml version="1.0" encoding="UTF-8" standalone="no"?>
<svg xmlns:ffdec="https://www.free-decompiler.com/flash" xmlns:xlink="http://www.w3.org/1999/xlink" ffdec:objectType="frame" height="56.0px" width="56.0px" xmlns="http://www.w3.org/2000/svg">
  <g transform="matrix(1.0, 0.0, 0.0, 1.0, 0.0, 0.0)">
    <use ffdec:characterId="51" ffdec:characterName="205_fla.Symbole336_1" height="56.0" id="back" transform="matrix(1.0, 0.0, 0.0, 1.0, 0.0, 0.0)" width="56.0" xlink:href="#sprite0"/>
    <use ffdec:characterId="53" height="55.25" id="back" transform="matrix(1.0, 0.0, 0.0, 1.0, 10.3, 0.3)" width="35.55" xlink:href="#sprite50"/>
    <use ffdec:characterId="55" height="53.75" id="up" transform="matrix(1.0, 0.0, 0.0, 1.0, 11.05, 1.0)" width="34.05" xlink:href="#sprite51"/>
  </g>
  <defs>
    <g id="sprite0" transform="matrix(1.0, 0.0, 0.0, 1.0, 0.0, 0.0)">
      <use ffdec:characterId="50" ffdec:characterName="205_fla.Symbole333_2" height="56.0" id="back" transform="matrix(1.0, 0.0, 0.0, 1.0, 0.0, 0.0)" width="56.0" xlink:href="#sprite1"/>
    </g>
    <g id="sprite1" transform="matrix(1.0, 0.0, 0.0, 1.0, 0.0, 0.0)">
      <use ffdec:characterId="49" ffdec:characterName="205_fla.Symbole330_3" height="56.0" id="back" transform="matrix(1.0, 0.0, 0.0, 1.0, 0.0, 0.0)" width="56.0" xlink:href="#sprite2"/>
    </g>
    <g id="sprite2" transform="matrix(1.0, 0.0, 0.0, 1.0, 0.0, 0.0)">
      <use ffdec:characterId="48" ffdec:characterName="205_fla.Symbole327_4" height="56.0" id="back" transform="matrix(1.0, 0.0, 0.0, 1.0, 0.0, 0.0)" width="56.0" xlink:href="#sprite3"/>
    </g>
    <g id="sprite3" transform="matrix(1.0, 0.0, 0.0, 1.0, 0.0, 0.0)">
      <use ffdec:characterId="47" ffdec:characterName="205_fla.Symbole324_5" height="56.0" id="back" transform="matrix(1.0, 0.0, 0.0, 1.0, 0.0, 0.0)" width="56.0" xlink:href="#sprite4"/>
    </g>
    <g id="sprite4" transform="matrix(1.0, 0.0, 0.0, 1.0, 0.0, 0.0)">
      <use ffdec:characterId="46" ffdec:characterName="205_fla.Symbole321_6" height="56.0" id="back" transform="matrix(1.0, 0.0, 0.0, 1.0, 0.0, 0.0)" width="56.0" xlink:href="#sprite5"/>
    </g>
    <g id="sprite5" transform="matrix(1.0, 0.0, 0.0, 1.0, 0.0, 0.0)">
      <use ffdec:characterId="45" ffdec:characterName="205_fla.Symbole318_7" height="56.0" id="back" transform="matrix(1.0, 0.0, 0.0, 1.0, 0.0, 0.0)" width="56.0" xlink:href="#sprite6"/>
    </g>
    <g id="sprite6" transform="matrix(1.0, 0.0, 0.0, 1.0, 0.0, 0.0)">
      <use ffdec:characterId="44" ffdec:characterName="205_fla.Symbole315_8" height="56.0" id="back" transform="matrix(1.0, 0.0, 0.0, 1.0, 0.0, 0.0)" width="56.0" xlink:href="#sprite7"/>
    </g>
    <g id="sprite7" transform="matrix(1.0, 0.0, 0.0, 1.0, 0.0, 0.0)">
      <use ffdec:characterId="43" ffdec:characterName="205_fla.Symbole312_9" height="56.0" id="back" transform="matrix(1.0, 0.0, 0.0, 1.0, 0.0, 0.0)" width="56.0" xlink:href="#sprite8"/>
    </g>
    <g id="sprite8" transform="matrix(1.0, 0.0, 0.0, 1.0, 0.0, 0.0)">
      <use ffdec:characterId="42" ffdec:characterName="205_fla.Symbole309_10" height="56.0" id="back" transform="matrix(1.0, 0.0, 0.0, 1.0, 0.0, 0.0)" width="56.0" xlink:href="#sprite9"/>
    </g>
    <g id="sprite9" transform="matrix(1.0, 0.0, 0.0, 1.0, 0.0, 0.0)">
      <use ffdec:characterId="41" ffdec:characterName="205_fla.Symbole306_11" height="56.0" id="back" transform="matrix(1.0, 0.0, 0.0, 1.0, 0.0, 0.0)" width="56.0" xlink:href="#sprite10"/>
    </g>
    <g id="sprite10" transform="matrix(1.0, 0.0, 0.0, 1.0, 0.0, 0.0)">
      <use ffdec:characterId="40" ffdec:characterName="205_fla.Symbole303_12" height="56.0" id="back" transform="matrix(1.0, 0.0, 0.0, 1.0, 0.0, 0.0)" width="56.0" xlink:href="#sprite11"/>
    </g>
    <g id="sprite11" transform="matrix(1.0, 0.0, 0.0, 1.0, 0.0, 0.0)">
      <use ffdec:characterId="39" ffdec:characterName="205_fla.Symbole300_13" height="56.0" id="back" transform="matrix(1.0, 0.0, 0.0, 1.0, 0.0, 0.0)" width="56.0" xlink:href="#sprite12"/>
    </g>
    <g id="sprite12" transform="matrix(1.0, 0.0, 0.0, 1.0, 0.0, 0.0)">
      <use ffdec:characterId="38" ffdec:characterName="205_fla.Symbole297_14" height="56.0" id="back" transform="matrix(1.0, 0.0, 0.0, 1.0, 0.0, 0.0)" width="56.0" xlink:href="#sprite13"/>
    </g>
    <g id="sprite13" transform="matrix(1.0, 0.0, 0.0, 1.0, 0.0, 0.0)">
      <use ffdec:characterId="37" ffdec:characterName="205_fla.Symbole294_15" height="56.0" id="back" transform="matrix(1.0, 0.0, 0.0, 1.0, 0.0, 0.0)" width="56.0" xlink:href="#sprite14"/>
    </g>
    <g id="sprite14" transform="matrix(1.0, 0.0, 0.0, 1.0, 0.0, 0.0)">
      <use ffdec:characterId="36" ffdec:characterName="205_fla.Symbole291_16" height="56.0" id="back" transform="matrix(1.0, 0.0, 0.0, 1.0, 0.0, 0.0)" width="56.0" xlink:href="#sprite15"/>
    </g>
    <g id="sprite15" transform="matrix(1.0, 0.0, 0.0, 1.0, 0.0, 0.0)">
      <use ffdec:characterId="35" ffdec:characterName="205_fla.Symbole288_17" height="56.0" id="back" transform="matrix(1.0, 0.0, 0.0, 1.0, 0.0, 0.0)" width="56.0" xlink:href="#sprite16"/>
    </g>
    <g id="sprite16" transform="matrix(1.0, 0.0, 0.0, 1.0, 0.0, 0.0)">
      <use ffdec:characterId="34" ffdec:characterName="205_fla.Symbole285_18" height="56.0" id="back" transform="matrix(1.0, 0.0, 0.0, 1.0, 0.0, 0.0)" width="56.0" xlink:href="#sprite17"/>
    </g>
    <g id="sprite17" transform="matrix(1.0, 0.0, 0.0, 1.0, 0.0, 0.0)">
      <use ffdec:characterId="33" ffdec:characterName="205_fla.Symbole282_19" height="56.0" id="back" transform="matrix(1.0, 0.0, 0.0, 1.0, 0.0, 0.0)" width="56.0" xlink:href="#sprite18"/>
    </g>
    <g id="sprite18" transform="matrix(1.0, 0.0, 0.0, 1.0, 0.0, 0.0)">
      <use ffdec:characterId="32" ffdec:characterName="205_fla.Symbole279_20" height="56.0" id="back" transform="matrix(1.0, 0.0, 0.0, 1.0, 0.0, 0.0)" width="56.0" xlink:href="#sprite19"/>
    </g>
    <g id="sprite19" transform="matrix(1.0, 0.0, 0.0, 1.0, 0.0, 0.0)">
      <use ffdec:characterId="31" ffdec:characterName="205_fla.Symbole276_21" height="56.0" id="back" transform="matrix(1.0, 0.0, 0.0, 1.0, 0.0, 0.0)" width="56.0" xlink:href="#sprite20"/>
    </g>
    <g id="sprite20" transform="matrix(1.0, 0.0, 0.0, 1.0, 0.0, 0.0)">
      <use ffdec:characterId="30" ffdec:characterName="205_fla.Symbole273_22" height="56.0" id="back" transform="matrix(1.0, 0.0, 0.0, 1.0, 0.0, 0.0)" width="56.0" xlink:href="#sprite21"/>
    </g>
    <g id="sprite21" transform="matrix(1.0, 0.0, 0.0, 1.0, 0.0, 0.0)">
      <use ffdec:characterId="29" ffdec:characterName="205_fla.Symbole270_23" height="56.0" id="back" transform="matrix(1.0, 0.0, 0.0, 1.0, 0.0, 0.0)" width="56.0" xlink:href="#sprite22"/>
    </g>
    <g id="sprite22" transform="matrix(1.0, 0.0, 0.0, 1.0, 0.0, 0.0)">
      <use ffdec:characterId="28" ffdec:characterName="205_fla.Symbole267_24" height="56.0" id="back" transform="matrix(1.0, 0.0, 0.0, 1.0, 0.0, 0.0)" width="56.0" xlink:href="#sprite23"/>
    </g>
    <g id="sprite23" transform="matrix(1.0, 0.0, 0.0, 1.0, 0.0, 0.0)">
      <use ffdec:characterId="27" ffdec:characterName="205_fla.Symbole264_25" height="56.0" id="back" transform="matrix(1.0, 0.0, 0.0, 1.0, 0.0, 0.0)" width="56.0" xlink:href="#sprite24"/>
    </g>
    <g id="sprite24" transform="matrix(1.0, 0.0, 0.0, 1.0, 0.0, 0.0)">
      <use ffdec:characterId="26" ffdec:characterName="205_fla.Symbole261_26" height="56.0" id="back" transform="matrix(1.0, 0.0, 0.0, 1.0, 0.0, 0.0)" width="56.0" xlink:href="#sprite25"/>
    </g>
    <g id="sprite25" transform="matrix(1.0, 0.0, 0.0, 1.0, 0.0, 0.0)">
      <use ffdec:characterId="25" ffdec:characterName="205_fla.Symbole258_27" height="56.0" id="back" transform="matrix(1.0, 0.0, 0.0, 1.0, 0.0, 0.0)" width="56.0" xlink:href="#sprite26"/>
    </g>
    <g id="sprite26" transform="matrix(1.0, 0.0, 0.0, 1.0, 0.0, 0.0)">
      <use ffdec:characterId="24" ffdec:characterName="205_fla.Symbole255_28" height="56.0" id="back" transform="matrix(1.0, 0.0, 0.0, 1.0, 0.0, 0.0)" width="56.0" xlink:href="#sprite27"/>
    </g>
    <g id="sprite27" transform="matrix(1.0, 0.0, 0.0, 1.0, 0.0, 0.0)">
      <use ffdec:characterId="23" ffdec:characterName="205_fla.Symbole252_29" height="56.0" id="back" transform="matrix(1.0, 0.0, 0.0, 1.0, 0.0, 0.0)" width="56.0" xlink:href="#sprite28"/>
    </g>
    <g id="sprite28" transform="matrix(1.0, 0.0, 0.0, 1.0, 0.0, 0.0)">
      <use ffdec:characterId="22" ffdec:characterName="205_fla.Symbole249_30" height="56.0" id="back" transform="matrix(1.0, 0.0, 0.0, 1.0, 0.0, 0.0)" width="56.0" xlink:href="#sprite29"/>
    </g>
    <g id="sprite29" transform="matrix(1.0, 0.0, 0.0, 1.0, 0.0, 0.0)">
      <use ffdec:characterId="21" ffdec:characterName="205_fla.Symbole246_31" height="56.0" id="back" transform="matrix(1.0, 0.0, 0.0, 1.0, 0.0, 0.0)" width="56.0" xlink:href="#sprite30"/>
    </g>
    <g id="sprite30" transform="matrix(1.0, 0.0, 0.0, 1.0, 0.0, 0.0)">
      <use ffdec:characterId="20" ffdec:characterName="205_fla.Symbole243_32" height="56.0" id="back" transform="matrix(1.0, 0.0, 0.0, 1.0, 0.0, 0.0)" width="56.0" xlink:href="#sprite31"/>
    </g>
    <g id="sprite31" transform="matrix(1.0, 0.0, 0.0, 1.0, 0.0, 0.0)">
      <use ffdec:characterId="19" ffdec:characterName="205_fla.Symbole240_33" height="56.0" id="back" transform="matrix(1.0, 0.0, 0.0, 1.0, 0.0, 0.0)" width="56.0" xlink:href="#sprite32"/>
    </g>
    <g id="sprite32" transform="matrix(1.0, 0.0, 0.0, 1.0, 0.0, 0.0)">
      <use ffdec:characterId="18" ffdec:characterName="205_fla.Symbole237_34" height="56.0" id="back" transform="matrix(1.0, 0.0, 0.0, 1.0, 0.0, 0.0)" width="56.0" xlink:href="#sprite33"/>
    </g>
    <g id="sprite33" transform="matrix(1.0, 0.0, 0.0, 1.0, 0.0, 0.0)">
      <use ffdec:characterId="17" ffdec:characterName="205_fla.Symbole234_35" height="56.0" id="back" transform="matrix(1.0, 0.0, 0.0, 1.0, 0.0, 0.0)" width="56.0" xlink:href="#sprite34"/>
    </g>
    <g id="sprite34" transform="matrix(1.0, 0.0, 0.0, 1.0, 0.0, 0.0)">
      <use ffdec:characterId="16" ffdec:characterName="205_fla.Symbole231_36" height="56.0" id="back" transform="matrix(1.0, 0.0, 0.0, 1.0, 0.0, 0.0)" width="56.0" xlink:href="#sprite35"/>
    </g>
    <g id="sprite35" transform="matrix(1.0, 0.0, 0.0, 1.0, 0.0, 0.0)">
      <use ffdec:characterId="15" ffdec:characterName="205_fla.Symbole228_37" height="56.0" id="back" transform="matrix(1.0, 0.0, 0.0, 1.0, 0.0, 0.0)" width="56.0" xlink:href="#sprite36"/>
    </g>
    <g id="sprite36" transform="matrix(1.0, 0.0, 0.0, 1.0, 0.0, 0.0)">
      <use ffdec:characterId="14" ffdec:characterName="205_fla.Symbole225_38" height="56.0" id="back" transform="matrix(1.0, 0.0, 0.0, 1.0, 0.0, 0.0)" width="56.0" xlink:href="#sprite37"/>
    </g>
    <g id="sprite37" transform="matrix(1.0, 0.0, 0.0, 1.0, 0.0, 0.0)">
      <use ffdec:characterId="13" ffdec:characterName="205_fla.Symbole222_39" height="56.0" id="back" transform="matrix(1.0, 0.0, 0.0, 1.0, 0.0, 0.0)" width="56.0" xlink:href="#sprite38"/>
    </g>
    <g id="sprite38" transform="matrix(1.0, 0.0, 0.0, 1.0, 0.0, 0.0)">
      <use ffdec:characterId="12" ffdec:characterName="205_fla.Symbole219_40" height="56.0" id="back" transform="matrix(1.0, 0.0, 0.0, 1.0, 0.0, 0.0)" width="56.0" xlink:href="#sprite39"/>
    </g>
    <g id="sprite39" transform="matrix(1.0, 0.0, 0.0, 1.0, 0.0, 0.0)">
      <use ffdec:characterId="11" ffdec:characterName="205_fla.Symbole216_41" height="56.0" id="back" transform="matrix(1.0, 0.0, 0.0, 1.0, 0.0, 0.0)" width="56.0" xlink:href="#sprite40"/>
    </g>
    <g id="sprite40" transform="matrix(1.0, 0.0, 0.0, 1.0, 0.0, 0.0)">
      <use ffdec:characterId="10" ffdec:characterName="205_fla.Symbole213_42" height="56.0" id="back" transform="matrix(1.0, 0.0, 0.0, 1.0, 0.0, 0.0)" width="56.0" xlink:href="#sprite41"/>
    </g>
    <g id="sprite41" transform="matrix(1.0, 0.0, 0.0, 1.0, 0.0, 0.0)">
      <use ffdec:characterId="9" ffdec:characterName="205_fla.Symbole210_43" height="56.0" id="back" transform="matrix(1.0, 0.0, 0.0, 1.0, 0.0, 0.0)" width="56.0" xlink:href="#sprite42"/>
    </g>
    <g id="sprite42" transform="matrix(1.0, 0.0, 0.0, 1.0, 0.0, 0.0)">
      <use ffdec:characterId="8" ffdec:characterName="205_fla.Symbole207_44" height="56.0" id="back" transform="matrix(1.0, 0.0, 0.0, 1.0, 0.0, 0.0)" width="56.0" xlink:href="#sprite43"/>
    </g>
    <g id="sprite43" transform="matrix(1.0, 0.0, 0.0, 1.0, 0.0, 0.0)">
      <use ffdec:characterId="7" ffdec:characterName="205_fla.Symbole204_45" height="56.0" id="back" transform="matrix(1.0, 0.0, 0.0, 1.0, 0.0, 0.0)" width="56.0" xlink:href="#sprite44"/>
    </g>
    <g id="sprite44" transform="matrix(1.0, 0.0, 0.0, 1.0, 0.0, 0.0)">
      <use ffdec:characterId="6" ffdec:characterName="205_fla.Symbole201_46" height="56.0" id="back" transform="matrix(1.0, 0.0, 0.0, 1.0, 0.0, 0.0)" width="56.0" xlink:href="#sprite45"/>
    </g>
    <g id="sprite45" transform="matrix(1.0, 0.0, 0.0, 1.0, 0.0, 0.0)">
      <use ffdec:characterId="5" ffdec:characterName="205_fla.Symbole198_47" height="56.0" id="back" transform="matrix(1.0, 0.0, 0.0, 1.0, 0.0, 0.0)" width="56.0" xlink:href="#sprite46"/>
    </g>
    <g id="sprite46" transform="matrix(1.0, 0.0, 0.0, 1.0, 0.0, 0.0)">
      <use ffdec:characterId="4" ffdec:characterName="205_fla.Symbole195_48" height="56.0" id="back" transform="matrix(1.0, 0.0, 0.0, 1.0, 0.0, 0.0)" width="56.0" xlink:href="#sprite47"/>
    </g>
    <g id="sprite47" transform="matrix(1.0, 0.0, 0.0, 1.0, 0.0, 0.0)">
      <use ffdec:characterId="3" ffdec:characterName="205_fla.Symbole192_49" height="56.0" id="back" transform="matrix(1.0, 0.0, 0.0, 1.0, 0.0, 0.0)" width="56.0" xlink:href="#sprite48"/>
    </g>
    <g id="sprite48" transform="matrix(1.0, 0.0, 0.0, 1.0, 0.0, 0.0)">
      <use ffdec:characterId="2" height="56.0" id="back" transform="matrix(1.0, 0.0, 0.0, 1.0, 0.0, 0.0)" width="56.0" xlink:href="#sprite49"/>
    </g>
    <g id="sprite49" transform="matrix(1.0, 0.0, 0.0, 1.0, 0.0, 0.0)">
      <use ffdec:characterId="1" height="56.0" transform="matrix(1.0, 0.0, 0.0, 1.0, 0.0, 0.0)" width="56.0" xlink:href="#shape0"/>
    </g>
    <g id="shape0" transform="matrix(1.0, 0.0, 0.0, 1.0, 0.0, 0.0)">
      <path d="M56.0 56.0 L0.0 56.0 0.0 0.0 56.0 0.0 56.0 56.0" fill="#010101" fill-opacity="0.0" fill-rule="evenodd" stroke="none"/>
    </g>
    <g id="sprite50" transform="matrix(1.0, 0.0, 0.0, 1.0, 0.75, 0.75)">
      <use ffdec:characterId="52" height="55.25" transform="matrix(1.0, 0.0, 0.0, 1.0, -0.75, -0.75)" width="35.55" xlink:href="#shape1"/>
    </g>
    <g id="shape1" transform="matrix(1.0, 0.0, 0.0, 1.0, 0.75, 0.75)">
      <path d="M30.85 9.1 L30.5 8.7 29.95 8.6 29.55 8.9 28.95 9.6 29.05 9.6 Q28.35 9.9 26.7 8.9 L26.65 8.9 Q23.8 7.15 22.5 8.25 L21.95 8.85 21.7 8.0 Q20.95 7.75 20.35 7.15 L20.1 6.75 Q19.95 6.6 20.1 6.3 L20.2 6.15 19.95 6.3 19.9 6.35 Q18.5 7.45 16.65 7.45 14.8 7.45 13.55 6.35 L13.5 6.3 13.55 6.6 13.55 7.15 13.3 7.55 12.2 8.0 12.05 8.7 11.25 8.0 Q9.95 6.95 7.15 8.85 5.55 10.0 4.95 9.7 L4.85 9.7 4.45 9.0 4.05 8.6 Q3.75 8.45 3.45 8.6 L3.15 9.0 Q3.0 9.25 3.15 9.55 3.55 10.55 4.05 10.85 5.25 11.95 8.0 10.0 L8.0 10.05 Q9.65 8.85 10.4 9.15 L10.45 9.25 11.15 10.0 11.3 10.25 11.45 10.95 10.8 12.8 Q10.55 12.55 10.15 12.45 8.55 11.65 6.15 14.1 4.65 15.65 4.0 15.5 L3.85 15.4 3.2 14.95 Q3.0 14.7 2.7 14.7 2.4 14.7 2.15 14.95 2.0 15.1 2.0 15.4 L2.15 15.95 3.55 16.85 Q4.85 17.4 7.15 15.1 8.7 13.55 9.55 13.75 L9.65 13.8 10.1 14.0 10.25 14.1 9.8 14.95 9.85 15.05 11.15 16.35 Q13.85 18.8 16.7 19.35 L17.0 19.4 Q19.8 18.9 22.5 16.4 L24.05 14.85 24.1 14.8 23.9 14.25 23.95 14.25 23.95 14.15 Q24.8 13.95 26.35 15.55 28.65 17.85 29.95 17.3 L31.35 16.35 31.6 15.85 31.35 15.35 30.85 15.1 30.35 15.35 29.65 15.85 29.55 15.95 Q28.9 16.1 27.35 14.55 25.1 12.25 23.5 12.8 23.35 12.8 23.25 12.95 L22.5 11.0 22.65 10.3 22.65 10.25 22.8 10.05 23.35 9.4 Q24.1 9.0 25.9 10.15 28.6 11.8 29.8 10.8 L30.8 9.6 30.85 9.1 M30.75 21.7 Q29.65 18.5 27.95 18.15 L28.05 18.25 Q26.7 17.85 25.9 18.25 L24.55 19.05 23.6 17.0 22.1 18.4 Q19.9 20.25 18.0 20.95 18.4 26.05 19.35 30.6 22.5 46.95 30.25 49.5 31.75 48.15 32.9 45.25 35.05 39.55 33.2 32.0 30.6 29.1 27.8 24.9 26.25 22.6 25.2 20.35 L25.25 20.25 26.05 19.7 26.4 19.65 Q26.9 19.4 27.65 19.65 28.65 19.9 29.35 22.15 30.25 25.55 31.8 25.7 L33.4 25.55 33.8 25.2 33.9 24.65 33.5 24.25 33.05 24.2 32.1 24.25 Q31.3 23.95 30.75 21.8 L30.75 21.7 M25.1 1.3 L25.1 1.8 24.75 2.0 24.1 1.8 23.65 1.35 23.65 0.85 Q23.8 0.6 24.1 0.6 24.4 0.6 24.75 0.85 L25.1 1.3 M25.9 2.65 L25.9 2.95 25.7 3.0 25.35 2.9 25.1 2.65 25.2 2.45 Q25.2 2.35 25.35 2.35 L25.7 2.45 25.9 2.65 M26.9 3.6 Q26.9 5.15 25.8 6.15 24.75 7.25 23.25 7.25 21.85 7.25 20.8 6.35 L20.9 6.3 Q21.95 5.15 21.95 3.6 21.95 2.15 20.9 1.0 L20.8 0.9 Q21.85 0.0 23.25 0.0 24.75 0.0 25.8 1.05 26.9 2.15 26.9 3.6 M19.55 1.85 L19.65 2.05 Q20.25 2.75 20.25 3.6 20.25 4.55 19.65 5.2 L19.55 5.4 19.35 5.55 Q18.25 6.45 16.65 6.45 15.1 6.45 14.1 5.55 L13.95 5.4 Q13.0 4.6 13.0 3.6 13.0 2.6 13.95 1.8 L14.1 1.75 Q15.1 0.85 16.65 0.85 18.25 0.85 19.35 1.75 L19.55 1.85 M12.7 0.7 Q11.4 1.9 11.4 3.6 11.4 5.35 12.7 6.6 L12.8 6.6 Q11.85 7.25 10.75 7.25 9.25 7.25 8.15 6.15 7.1 5.15 7.1 3.6 7.1 2.15 8.15 1.05 9.25 0.0 10.75 0.0 11.85 0.0 12.8 0.6 L12.7 0.7 M9.8 1.3 L9.5 1.9 9.1 2.35 8.55 2.3 Q8.35 2.15 8.4 1.85 8.35 1.6 8.55 1.3 L9.1 0.85 9.55 0.9 9.8 1.3 M9.45 19.4 Q8.1 22.1 6.15 24.9 3.45 29.1 0.85 32.0 -1.0 39.55 1.15 45.25 2.25 48.15 3.75 49.5 11.55 46.95 14.7 30.6 15.65 26.15 16.05 21.05 L15.65 20.95 Q13.8 20.25 11.45 18.4 L10.4 17.3 10.1 18.1 Q9.3 17.55 9.0 17.5 8.15 17.15 6.9 17.5 L6.9 17.4 Q5.15 17.7 4.25 20.95 L4.25 21.05 Q3.55 23.25 2.75 23.5 L1.9 23.45 1.3 23.5 Q1.0 23.65 1.0 23.95 0.85 24.2 1.1 24.5 L1.55 24.8 3.05 24.95 Q4.55 24.8 5.6 21.4 6.15 19.2 7.15 18.9 L7.25 18.9 Q8.0 18.65 8.4 18.9 L8.8 18.95 9.4 19.4 9.45 19.4 M8.25 2.75 L8.1 3.0 8.1 3.25 8.25 3.3 8.55 3.25 8.8 3.0 8.7 2.8 8.55 2.65 8.25 2.75 M18.65 35.85 L15.4 36.0 15.55 35.3 Q16.55 30.2 16.95 24.35 L17.0 22.95 17.05 24.35 Q17.5 30.2 18.5 35.3 L18.65 35.85 M18.8 36.7 L19.95 41.3 Q17.0 41.8 14.1 41.3 L15.25 36.75 15.3 36.75 18.7 36.7 18.8 36.7 M13.85 42.25 L20.2 42.1 21.85 46.5 Q17.5 47.55 13.25 46.7 L12.1 46.5 13.8 42.25 13.85 42.25 M11.85 47.25 L13.1 47.5 22.2 47.25 22.25 47.25 23.1 48.65 Q22.7 50.55 21.25 52.0 19.55 53.75 16.95 53.75 14.4 53.75 12.65 51.95 11.25 50.55 10.85 48.7 L11.8 47.25 11.85 47.25 Z" fill="none" stroke="#000000" stroke-linecap="round" stroke-linejoin="round" stroke-opacity="0.2" stroke-width="1.5"/>
    </g>
    <g id="sprite51" transform="matrix(1.0, 0.0, 0.0, 1.0, 0.0, 0.0)">
      <use ffdec:characterId="54" height="53.75" transform="matrix(1.0, 0.0, 0.0, 1.0, 0.0, 0.0)" width="34.05" xlink:href="#shape2"/>
    </g>
    <g id="shape2" transform="matrix(1.0, 0.0, 0.0, 1.0, 0.0, 0.0)">
      <path d="M25.1 2.7 L25.35 2.9 25.7 3.05 25.9 3.0 25.9 2.7 25.7 2.45 25.35 2.4 25.2 2.45 25.1 2.7 M25.1 1.3 L24.75 0.9 Q24.4 0.65 24.1 0.65 23.8 0.65 23.65 0.9 L23.65 1.4 24.1 1.8 24.75 2.05 25.1 1.8 25.1 1.3 M30.7 21.75 L30.7 21.8 Q31.3 24.0 32.1 24.3 L33.05 24.2 33.55 24.3 33.9 24.7 33.85 25.2 33.4 25.6 31.8 25.7 Q30.25 25.6 29.35 22.15 28.7 19.95 27.65 19.65 26.85 19.4 26.45 19.65 L26.05 19.7 25.25 20.3 25.2 20.35 27.8 24.95 Q30.55 29.15 33.2 32.05 35.05 39.55 32.9 45.3 31.75 48.2 30.25 49.5 22.5 46.95 19.3 30.65 18.45 26.1 18.0 20.95 19.9 20.3 22.15 18.4 L23.6 17.05 24.55 19.05 25.9 18.25 Q26.7 17.9 28.0 18.25 L27.95 18.2 Q29.7 18.5 30.7 21.75 M30.85 9.15 L30.8 9.65 29.85 10.8 Q28.6 11.8 25.9 10.15 24.1 9.05 23.4 9.4 22.95 9.7 22.8 10.1 L22.65 10.3 22.65 10.35 22.5 11.0 23.25 12.95 23.5 12.85 Q25.1 12.25 27.35 14.55 28.9 16.1 29.55 15.95 29.6 15.85 29.7 15.85 L30.35 15.35 30.85 15.15 31.35 15.35 31.6 15.85 31.35 16.4 30.0 17.3 Q28.7 17.9 26.35 15.6 24.85 14.0 23.95 14.2 L23.95 14.3 23.9 14.3 24.1 14.8 24.05 14.85 22.5 16.45 Q19.8 18.9 17.0 19.4 L16.7 19.35 Q13.85 18.85 11.2 16.4 L9.9 15.05 9.8 15.0 10.25 14.15 10.1 14.05 9.65 13.85 9.6 13.75 Q8.7 13.55 7.2 15.15 4.85 17.45 3.55 16.9 L2.2 15.95 1.95 15.45 Q1.95 15.15 2.2 14.95 2.4 14.7 2.7 14.7 3.0 14.7 3.2 14.95 L3.85 15.45 4.0 15.5 Q4.65 15.65 6.15 14.15 8.55 11.65 10.15 12.45 L10.8 12.85 11.45 10.95 11.35 10.3 11.2 10.0 10.45 9.3 10.4 9.2 Q9.65 8.85 8.0 10.1 L8.0 10.0 Q5.25 11.95 4.05 10.85 3.55 10.6 3.15 9.55 3.0 9.3 3.15 9.05 L3.5 8.65 Q3.8 8.5 4.05 8.65 L4.45 9.0 4.85 9.7 4.95 9.7 Q5.5 10.0 7.2 8.85 9.95 6.95 11.25 8.05 L12.05 8.7 12.2 8.05 13.3 7.55 13.6 7.2 13.6 6.65 13.5 6.3 13.6 6.4 Q14.8 7.45 16.65 7.45 18.5 7.45 19.9 6.4 L19.95 6.3 20.2 6.15 20.1 6.3 Q19.95 6.6 20.1 6.8 L20.35 7.2 21.7 8.05 21.95 8.85 22.5 8.25 Q23.8 7.2 26.65 8.9 L26.7 8.9 Q28.3 9.95 29.05 9.65 L28.95 9.65 29.55 8.9 Q29.7 8.65 30.0 8.65 L30.5 8.7 30.85 9.15 M26.85 3.65 Q26.85 5.15 25.75 6.15 24.75 7.25 23.25 7.25 21.85 7.25 20.85 6.4 L20.9 6.3 Q21.95 5.15 21.95 3.65 21.95 2.2 20.9 1.0 L20.85 0.95 Q21.85 0.0 23.25 0.0 24.75 0.0 25.75 1.1 26.85 2.2 26.85 3.65 M19.7 2.1 Q20.25 2.75 20.25 3.65 20.25 4.55 19.7 5.2 L19.55 5.45 19.3 5.6 Q18.2 6.45 16.65 6.45 15.1 6.45 14.1 5.6 L13.95 5.45 Q13.0 4.65 13.0 3.65 13.0 2.6 13.95 1.8 L14.1 1.75 Q15.1 0.9 16.65 0.9 18.2 0.9 19.3 1.75 L19.55 1.9 19.7 2.1 M9.8 1.3 L9.6 0.95 9.1 0.9 8.55 1.3 8.4 1.9 Q8.35 2.2 8.55 2.3 L9.1 2.4 9.5 1.95 9.8 1.3 M12.7 0.75 Q11.4 1.95 11.4 3.65 11.4 5.35 12.7 6.6 L12.8 6.65 Q11.85 7.25 10.75 7.25 9.2 7.25 8.15 6.15 7.1 5.15 7.1 3.65 7.1 2.2 8.15 1.1 9.2 0.0 10.75 0.0 11.85 0.0 12.8 0.65 L12.7 0.75 M9.45 19.4 L9.35 19.4 8.8 19.0 8.4 18.9 Q8.0 18.7 7.25 18.9 L7.2 18.9 Q6.15 19.2 5.6 21.45 4.6 24.85 3.05 25.0 L1.55 24.85 1.1 24.5 Q0.85 24.2 1.0 24.0 1.0 23.7 1.3 23.55 L1.9 23.5 2.75 23.55 Q3.55 23.25 4.2 21.1 L4.2 21.0 Q5.15 17.75 6.9 17.45 L6.9 17.55 Q8.15 17.2 9.0 17.55 L10.1 18.1 10.4 17.3 11.45 18.4 Q13.8 20.3 15.6 20.95 L16.05 21.1 Q15.6 26.15 14.75 30.65 11.55 46.95 3.8 49.5 2.25 48.2 1.15 45.3 -1.0 39.55 0.85 32.05 3.5 29.15 6.15 24.95 L9.45 19.4 M8.3 2.75 L8.05 3.05 8.05 3.25 8.3 3.35 8.55 3.25 Q8.7 3.1 8.8 3.05 L8.7 2.85 8.55 2.7 8.3 2.75 M15.4 36.0 L15.55 35.35 Q16.55 30.2 16.9 24.35 L17.0 22.95 17.05 24.35 Q17.5 30.2 18.5 35.35 L18.65 35.85 15.4 36.0 M15.3 36.8 L18.75 36.75 18.8 36.75 Q19.3 39.2 19.95 41.3 17.0 41.8 14.1 41.35 L15.25 36.8 15.3 36.8 M13.85 42.25 L20.2 42.1 21.85 46.5 13.2 46.75 12.15 46.5 13.8 42.25 13.85 42.25 M11.85 47.25 L13.05 47.55 22.2 47.25 22.3 47.25 23.1 48.7 Q22.7 50.55 21.25 52.0 19.55 53.75 16.9 53.75 14.4 53.75 12.65 51.95 11.25 50.55 10.9 48.75 L11.75 47.25 11.85 47.25" fill="#000000" fill-rule="evenodd" stroke="none"/>
    </g>
  </defs>
</svg>
