<?xml version="1.0" encoding="UTF-8" standalone="no"?>
<svg xmlns:ffdec="https://www.free-decompiler.com/flash" xmlns:xlink="http://www.w3.org/1999/xlink" ffdec:objectType="frame" height="56.0px" width="56.0px" xmlns="http://www.w3.org/2000/svg">
  <g transform="matrix(1.0, 0.0, 0.0, 1.0, 0.0, 0.0)">
    <use ffdec:characterId="54" ffdec:characterName="208_fla.Symbole345_1" height="56.0" id="back" transform="matrix(1.0, 0.0, 0.0, 1.0, 0.0, 0.0)" width="56.0" xlink:href="#sprite0"/>
    <use ffdec:characterId="56" height="55.25" id="back" transform="matrix(1.0, 0.0, 0.0, 1.0, 0.35, 0.3)" width="55.35" xlink:href="#sprite53"/>
    <use ffdec:characterId="58" height="53.75" id="up" transform="matrix(1.0, 0.0, 0.0, 1.0, 1.05, 1.05)" width="53.9" xlink:href="#sprite54"/>
  </g>
  <defs>
    <g id="sprite0" transform="matrix(1.0, 0.0, 0.0, 1.0, 0.0, 0.0)">
      <use ffdec:characterId="53" ffdec:characterName="208_fla.Symbole342_2" height="56.0" id="back" transform="matrix(1.0, 0.0, 0.0, 1.0, 0.0, 0.0)" width="56.0" xlink:href="#sprite1"/>
    </g>
    <g id="sprite1" transform="matrix(1.0, 0.0, 0.0, 1.0, 0.0, 0.0)">
      <use ffdec:characterId="52" ffdec:characterName="208_fla.Symbole339_3" height="56.0" id="back" transform="matrix(1.0, 0.0, 0.0, 1.0, 0.0, 0.0)" width="56.0" xlink:href="#sprite2"/>
    </g>
    <g id="sprite2" transform="matrix(1.0, 0.0, 0.0, 1.0, 0.0, 0.0)">
      <use ffdec:characterId="51" ffdec:characterName="208_fla.Symbole336_4" height="56.0" id="back" transform="matrix(1.0, 0.0, 0.0, 1.0, 0.0, 0.0)" width="56.0" xlink:href="#sprite3"/>
    </g>
    <g id="sprite3" transform="matrix(1.0, 0.0, 0.0, 1.0, 0.0, 0.0)">
      <use ffdec:characterId="50" ffdec:characterName="208_fla.Symbole333_5" height="56.0" id="back" transform="matrix(1.0, 0.0, 0.0, 1.0, 0.0, 0.0)" width="56.0" xlink:href="#sprite4"/>
    </g>
    <g id="sprite4" transform="matrix(1.0, 0.0, 0.0, 1.0, 0.0, 0.0)">
      <use ffdec:characterId="49" ffdec:characterName="208_fla.Symbole330_6" height="56.0" id="back" transform="matrix(1.0, 0.0, 0.0, 1.0, 0.0, 0.0)" width="56.0" xlink:href="#sprite5"/>
    </g>
    <g id="sprite5" transform="matrix(1.0, 0.0, 0.0, 1.0, 0.0, 0.0)">
      <use ffdec:characterId="48" ffdec:characterName="208_fla.Symbole327_7" height="56.0" id="back" transform="matrix(1.0, 0.0, 0.0, 1.0, 0.0, 0.0)" width="56.0" xlink:href="#sprite6"/>
    </g>
    <g id="sprite6" transform="matrix(1.0, 0.0, 0.0, 1.0, 0.0, 0.0)">
      <use ffdec:characterId="47" ffdec:characterName="208_fla.Symbole324_8" height="56.0" id="back" transform="matrix(1.0, 0.0, 0.0, 1.0, 0.0, 0.0)" width="56.0" xlink:href="#sprite7"/>
    </g>
    <g id="sprite7" transform="matrix(1.0, 0.0, 0.0, 1.0, 0.0, 0.0)">
      <use ffdec:characterId="46" ffdec:characterName="208_fla.Symbole321_9" height="56.0" id="back" transform="matrix(1.0, 0.0, 0.0, 1.0, 0.0, 0.0)" width="56.0" xlink:href="#sprite8"/>
    </g>
    <g id="sprite8" transform="matrix(1.0, 0.0, 0.0, 1.0, 0.0, 0.0)">
      <use ffdec:characterId="45" ffdec:characterName="208_fla.Symbole318_10" height="56.0" id="back" transform="matrix(1.0, 0.0, 0.0, 1.0, 0.0, 0.0)" width="56.0" xlink:href="#sprite9"/>
    </g>
    <g id="sprite9" transform="matrix(1.0, 0.0, 0.0, 1.0, 0.0, 0.0)">
      <use ffdec:characterId="44" ffdec:characterName="208_fla.Symbole315_11" height="56.0" id="back" transform="matrix(1.0, 0.0, 0.0, 1.0, 0.0, 0.0)" width="56.0" xlink:href="#sprite10"/>
    </g>
    <g id="sprite10" transform="matrix(1.0, 0.0, 0.0, 1.0, 0.0, 0.0)">
      <use ffdec:characterId="43" ffdec:characterName="208_fla.Symbole312_12" height="56.0" id="back" transform="matrix(1.0, 0.0, 0.0, 1.0, 0.0, 0.0)" width="56.0" xlink:href="#sprite11"/>
    </g>
    <g id="sprite11" transform="matrix(1.0, 0.0, 0.0, 1.0, 0.0, 0.0)">
      <use ffdec:characterId="42" ffdec:characterName="208_fla.Symbole309_13" height="56.0" id="back" transform="matrix(1.0, 0.0, 0.0, 1.0, 0.0, 0.0)" width="56.0" xlink:href="#sprite12"/>
    </g>
    <g id="sprite12" transform="matrix(1.0, 0.0, 0.0, 1.0, 0.0, 0.0)">
      <use ffdec:characterId="41" ffdec:characterName="208_fla.Symbole306_14" height="56.0" id="back" transform="matrix(1.0, 0.0, 0.0, 1.0, 0.0, 0.0)" width="56.0" xlink:href="#sprite13"/>
    </g>
    <g id="sprite13" transform="matrix(1.0, 0.0, 0.0, 1.0, 0.0, 0.0)">
      <use ffdec:characterId="40" ffdec:characterName="208_fla.Symbole303_15" height="56.0" id="back" transform="matrix(1.0, 0.0, 0.0, 1.0, 0.0, 0.0)" width="56.0" xlink:href="#sprite14"/>
    </g>
    <g id="sprite14" transform="matrix(1.0, 0.0, 0.0, 1.0, 0.0, 0.0)">
      <use ffdec:characterId="39" ffdec:characterName="208_fla.Symbole300_16" height="56.0" id="back" transform="matrix(1.0, 0.0, 0.0, 1.0, 0.0, 0.0)" width="56.0" xlink:href="#sprite15"/>
    </g>
    <g id="sprite15" transform="matrix(1.0, 0.0, 0.0, 1.0, 0.0, 0.0)">
      <use ffdec:characterId="38" ffdec:characterName="208_fla.Symbole297_17" height="56.0" id="back" transform="matrix(1.0, 0.0, 0.0, 1.0, 0.0, 0.0)" width="56.0" xlink:href="#sprite16"/>
    </g>
    <g id="sprite16" transform="matrix(1.0, 0.0, 0.0, 1.0, 0.0, 0.0)">
      <use ffdec:characterId="37" ffdec:characterName="208_fla.Symbole294_18" height="56.0" id="back" transform="matrix(1.0, 0.0, 0.0, 1.0, 0.0, 0.0)" width="56.0" xlink:href="#sprite17"/>
    </g>
    <g id="sprite17" transform="matrix(1.0, 0.0, 0.0, 1.0, 0.0, 0.0)">
      <use ffdec:characterId="36" ffdec:characterName="208_fla.Symbole291_19" height="56.0" id="back" transform="matrix(1.0, 0.0, 0.0, 1.0, 0.0, 0.0)" width="56.0" xlink:href="#sprite18"/>
    </g>
    <g id="sprite18" transform="matrix(1.0, 0.0, 0.0, 1.0, 0.0, 0.0)">
      <use ffdec:characterId="35" ffdec:characterName="208_fla.Symbole288_20" height="56.0" id="back" transform="matrix(1.0, 0.0, 0.0, 1.0, 0.0, 0.0)" width="56.0" xlink:href="#sprite19"/>
    </g>
    <g id="sprite19" transform="matrix(1.0, 0.0, 0.0, 1.0, 0.0, 0.0)">
      <use ffdec:characterId="34" ffdec:characterName="208_fla.Symbole285_21" height="56.0" id="back" transform="matrix(1.0, 0.0, 0.0, 1.0, 0.0, 0.0)" width="56.0" xlink:href="#sprite20"/>
    </g>
    <g id="sprite20" transform="matrix(1.0, 0.0, 0.0, 1.0, 0.0, 0.0)">
      <use ffdec:characterId="33" ffdec:characterName="208_fla.Symbole282_22" height="56.0" id="back" transform="matrix(1.0, 0.0, 0.0, 1.0, 0.0, 0.0)" width="56.0" xlink:href="#sprite21"/>
    </g>
    <g id="sprite21" transform="matrix(1.0, 0.0, 0.0, 1.0, 0.0, 0.0)">
      <use ffdec:characterId="32" ffdec:characterName="208_fla.Symbole279_23" height="56.0" id="back" transform="matrix(1.0, 0.0, 0.0, 1.0, 0.0, 0.0)" width="56.0" xlink:href="#sprite22"/>
    </g>
    <g id="sprite22" transform="matrix(1.0, 0.0, 0.0, 1.0, 0.0, 0.0)">
      <use ffdec:characterId="31" ffdec:characterName="208_fla.Symbole276_24" height="56.0" id="back" transform="matrix(1.0, 0.0, 0.0, 1.0, 0.0, 0.0)" width="56.0" xlink:href="#sprite23"/>
    </g>
    <g id="sprite23" transform="matrix(1.0, 0.0, 0.0, 1.0, 0.0, 0.0)">
      <use ffdec:characterId="30" ffdec:characterName="208_fla.Symbole273_25" height="56.0" id="back" transform="matrix(1.0, 0.0, 0.0, 1.0, 0.0, 0.0)" width="56.0" xlink:href="#sprite24"/>
    </g>
    <g id="sprite24" transform="matrix(1.0, 0.0, 0.0, 1.0, 0.0, 0.0)">
      <use ffdec:characterId="29" ffdec:characterName="208_fla.Symbole270_26" height="56.0" id="back" transform="matrix(1.0, 0.0, 0.0, 1.0, 0.0, 0.0)" width="56.0" xlink:href="#sprite25"/>
    </g>
    <g id="sprite25" transform="matrix(1.0, 0.0, 0.0, 1.0, 0.0, 0.0)">
      <use ffdec:characterId="28" ffdec:characterName="208_fla.Symbole267_27" height="56.0" id="back" transform="matrix(1.0, 0.0, 0.0, 1.0, 0.0, 0.0)" width="56.0" xlink:href="#sprite26"/>
    </g>
    <g id="sprite26" transform="matrix(1.0, 0.0, 0.0, 1.0, 0.0, 0.0)">
      <use ffdec:characterId="27" ffdec:characterName="208_fla.Symbole264_28" height="56.0" id="back" transform="matrix(1.0, 0.0, 0.0, 1.0, 0.0, 0.0)" width="56.0" xlink:href="#sprite27"/>
    </g>
    <g id="sprite27" transform="matrix(1.0, 0.0, 0.0, 1.0, 0.0, 0.0)">
      <use ffdec:characterId="26" ffdec:characterName="208_fla.Symbole261_29" height="56.0" id="back" transform="matrix(1.0, 0.0, 0.0, 1.0, 0.0, 0.0)" width="56.0" xlink:href="#sprite28"/>
    </g>
    <g id="sprite28" transform="matrix(1.0, 0.0, 0.0, 1.0, 0.0, 0.0)">
      <use ffdec:characterId="25" ffdec:characterName="208_fla.Symbole258_30" height="56.0" id="back" transform="matrix(1.0, 0.0, 0.0, 1.0, 0.0, 0.0)" width="56.0" xlink:href="#sprite29"/>
    </g>
    <g id="sprite29" transform="matrix(1.0, 0.0, 0.0, 1.0, 0.0, 0.0)">
      <use ffdec:characterId="24" ffdec:characterName="208_fla.Symbole255_31" height="56.0" id="back" transform="matrix(1.0, 0.0, 0.0, 1.0, 0.0, 0.0)" width="56.0" xlink:href="#sprite30"/>
    </g>
    <g id="sprite30" transform="matrix(1.0, 0.0, 0.0, 1.0, 0.0, 0.0)">
      <use ffdec:characterId="23" ffdec:characterName="208_fla.Symbole252_32" height="56.0" id="back" transform="matrix(1.0, 0.0, 0.0, 1.0, 0.0, 0.0)" width="56.0" xlink:href="#sprite31"/>
    </g>
    <g id="sprite31" transform="matrix(1.0, 0.0, 0.0, 1.0, 0.0, 0.0)">
      <use ffdec:characterId="22" ffdec:characterName="208_fla.Symbole249_33" height="56.0" id="back" transform="matrix(1.0, 0.0, 0.0, 1.0, 0.0, 0.0)" width="56.0" xlink:href="#sprite32"/>
    </g>
    <g id="sprite32" transform="matrix(1.0, 0.0, 0.0, 1.0, 0.0, 0.0)">
      <use ffdec:characterId="21" ffdec:characterName="208_fla.Symbole246_34" height="56.0" id="back" transform="matrix(1.0, 0.0, 0.0, 1.0, 0.0, 0.0)" width="56.0" xlink:href="#sprite33"/>
    </g>
    <g id="sprite33" transform="matrix(1.0, 0.0, 0.0, 1.0, 0.0, 0.0)">
      <use ffdec:characterId="20" ffdec:characterName="208_fla.Symbole243_35" height="56.0" id="back" transform="matrix(1.0, 0.0, 0.0, 1.0, 0.0, 0.0)" width="56.0" xlink:href="#sprite34"/>
    </g>
    <g id="sprite34" transform="matrix(1.0, 0.0, 0.0, 1.0, 0.0, 0.0)">
      <use ffdec:characterId="19" ffdec:characterName="208_fla.Symbole240_36" height="56.0" id="back" transform="matrix(1.0, 0.0, 0.0, 1.0, 0.0, 0.0)" width="56.0" xlink:href="#sprite35"/>
    </g>
    <g id="sprite35" transform="matrix(1.0, 0.0, 0.0, 1.0, 0.0, 0.0)">
      <use ffdec:characterId="18" ffdec:characterName="208_fla.Symbole237_37" height="56.0" id="back" transform="matrix(1.0, 0.0, 0.0, 1.0, 0.0, 0.0)" width="56.0" xlink:href="#sprite36"/>
    </g>
    <g id="sprite36" transform="matrix(1.0, 0.0, 0.0, 1.0, 0.0, 0.0)">
      <use ffdec:characterId="17" ffdec:characterName="208_fla.Symbole234_38" height="56.0" id="back" transform="matrix(1.0, 0.0, 0.0, 1.0, 0.0, 0.0)" width="56.0" xlink:href="#sprite37"/>
    </g>
    <g id="sprite37" transform="matrix(1.0, 0.0, 0.0, 1.0, 0.0, 0.0)">
      <use ffdec:characterId="16" ffdec:characterName="208_fla.Symbole231_39" height="56.0" id="back" transform="matrix(1.0, 0.0, 0.0, 1.0, 0.0, 0.0)" width="56.0" xlink:href="#sprite38"/>
    </g>
    <g id="sprite38" transform="matrix(1.0, 0.0, 0.0, 1.0, 0.0, 0.0)">
      <use ffdec:characterId="15" ffdec:characterName="208_fla.Symbole228_40" height="56.0" id="back" transform="matrix(1.0, 0.0, 0.0, 1.0, 0.0, 0.0)" width="56.0" xlink:href="#sprite39"/>
    </g>
    <g id="sprite39" transform="matrix(1.0, 0.0, 0.0, 1.0, 0.0, 0.0)">
      <use ffdec:characterId="14" ffdec:characterName="208_fla.Symbole225_41" height="56.0" id="back" transform="matrix(1.0, 0.0, 0.0, 1.0, 0.0, 0.0)" width="56.0" xlink:href="#sprite40"/>
    </g>
    <g id="sprite40" transform="matrix(1.0, 0.0, 0.0, 1.0, 0.0, 0.0)">
      <use ffdec:characterId="13" ffdec:characterName="208_fla.Symbole222_42" height="56.0" id="back" transform="matrix(1.0, 0.0, 0.0, 1.0, 0.0, 0.0)" width="56.0" xlink:href="#sprite41"/>
    </g>
    <g id="sprite41" transform="matrix(1.0, 0.0, 0.0, 1.0, 0.0, 0.0)">
      <use ffdec:characterId="12" ffdec:characterName="208_fla.Symbole219_43" height="56.0" id="back" transform="matrix(1.0, 0.0, 0.0, 1.0, 0.0, 0.0)" width="56.0" xlink:href="#sprite42"/>
    </g>
    <g id="sprite42" transform="matrix(1.0, 0.0, 0.0, 1.0, 0.0, 0.0)">
      <use ffdec:characterId="11" ffdec:characterName="208_fla.Symbole216_44" height="56.0" id="back" transform="matrix(1.0, 0.0, 0.0, 1.0, 0.0, 0.0)" width="56.0" xlink:href="#sprite43"/>
    </g>
    <g id="sprite43" transform="matrix(1.0, 0.0, 0.0, 1.0, 0.0, 0.0)">
      <use ffdec:characterId="10" ffdec:characterName="208_fla.Symbole213_45" height="56.0" id="back" transform="matrix(1.0, 0.0, 0.0, 1.0, 0.0, 0.0)" width="56.0" xlink:href="#sprite44"/>
    </g>
    <g id="sprite44" transform="matrix(1.0, 0.0, 0.0, 1.0, 0.0, 0.0)">
      <use ffdec:characterId="9" ffdec:characterName="208_fla.Symbole210_46" height="56.0" id="back" transform="matrix(1.0, 0.0, 0.0, 1.0, 0.0, 0.0)" width="56.0" xlink:href="#sprite45"/>
    </g>
    <g id="sprite45" transform="matrix(1.0, 0.0, 0.0, 1.0, 0.0, 0.0)">
      <use ffdec:characterId="8" ffdec:characterName="208_fla.Symbole207_47" height="56.0" id="back" transform="matrix(1.0, 0.0, 0.0, 1.0, 0.0, 0.0)" width="56.0" xlink:href="#sprite46"/>
    </g>
    <g id="sprite46" transform="matrix(1.0, 0.0, 0.0, 1.0, 0.0, 0.0)">
      <use ffdec:characterId="7" ffdec:characterName="208_fla.Symbole204_48" height="56.0" id="back" transform="matrix(1.0, 0.0, 0.0, 1.0, 0.0, 0.0)" width="56.0" xlink:href="#sprite47"/>
    </g>
    <g id="sprite47" transform="matrix(1.0, 0.0, 0.0, 1.0, 0.0, 0.0)">
      <use ffdec:characterId="6" ffdec:characterName="208_fla.Symbole201_49" height="56.0" id="back" transform="matrix(1.0, 0.0, 0.0, 1.0, 0.0, 0.0)" width="56.0" xlink:href="#sprite48"/>
    </g>
    <g id="sprite48" transform="matrix(1.0, 0.0, 0.0, 1.0, 0.0, 0.0)">
      <use ffdec:characterId="5" ffdec:characterName="208_fla.Symbole198_50" height="56.0" id="back" transform="matrix(1.0, 0.0, 0.0, 1.0, 0.0, 0.0)" width="56.0" xlink:href="#sprite49"/>
    </g>
    <g id="sprite49" transform="matrix(1.0, 0.0, 0.0, 1.0, 0.0, 0.0)">
      <use ffdec:characterId="4" ffdec:characterName="208_fla.Symbole195_51" height="56.0" id="back" transform="matrix(1.0, 0.0, 0.0, 1.0, 0.0, 0.0)" width="56.0" xlink:href="#sprite50"/>
    </g>
    <g id="sprite50" transform="matrix(1.0, 0.0, 0.0, 1.0, 0.0, 0.0)">
      <use ffdec:characterId="3" ffdec:characterName="208_fla.Symbole192_52" height="56.0" id="back" transform="matrix(1.0, 0.0, 0.0, 1.0, 0.0, 0.0)" width="56.0" xlink:href="#sprite51"/>
    </g>
    <g id="sprite51" transform="matrix(1.0, 0.0, 0.0, 1.0, 0.0, 0.0)">
      <use ffdec:characterId="2" height="56.0" id="back" transform="matrix(1.0, 0.0, 0.0, 1.0, 0.0, 0.0)" width="56.0" xlink:href="#sprite52"/>
    </g>
    <g id="sprite52" transform="matrix(1.0, 0.0, 0.0, 1.0, 0.0, 0.0)">
      <use ffdec:characterId="1" height="56.0" transform="matrix(1.0, 0.0, 0.0, 1.0, 0.0, 0.0)" width="56.0" xlink:href="#shape0"/>
    </g>
    <g id="shape0" transform="matrix(1.0, 0.0, 0.0, 1.0, 0.0, 0.0)">
      <path d="M56.0 56.0 L0.0 56.0 0.0 0.0 56.0 0.0 56.0 56.0" fill="#010101" fill-opacity="0.0" fill-rule="evenodd" stroke="none"/>
    </g>
    <g id="sprite53" transform="matrix(1.0, 0.0, 0.0, 1.0, 0.75, 0.75)">
      <use ffdec:characterId="55" height="55.25" transform="matrix(1.0, 0.0, 0.0, 1.0, -0.75, -0.75)" width="55.35" xlink:href="#shape1"/>
    </g>
    <g id="shape1" transform="matrix(1.0, 0.0, 0.0, 1.0, 0.75, 0.75)">
      <path d="M40.1 8.6 Q38.2 7.15 36.05 6.25 L37.05 3.85 Q39.4 4.8 41.6 6.45 L40.1 8.6 M44.8 9.15 L42.55 7.15 41.15 9.35 43.0 10.95 44.45 12.55 46.45 10.95 44.8 9.15 M47.15 11.95 Q49.0 14.2 50.1 16.7 L47.75 17.75 Q46.7 15.5 45.25 13.55 L47.15 11.95 M50.6 17.85 Q52.2 22.1 52.2 27.0 52.2 31.85 50.7 36.0 L48.2 35.15 Q49.6 31.4 49.6 27.0 49.6 22.7 48.2 18.9 L50.6 17.85 M47.75 36.35 L50.1 37.3 Q49.05 39.65 47.4 41.95 L45.25 40.4 Q46.8 38.45 47.75 36.35 M41.0 44.85 L42.65 46.8 44.8 44.85 46.55 42.9 44.55 41.45 43.0 43.0 41.0 44.85 M41.65 47.5 Q39.55 49.05 37.25 50.1 L36.2 47.75 40.05 45.6 41.65 47.5 M42.3 42.25 Q36.05 48.55 27.1 48.55 18.15 48.55 11.8 42.25 5.55 36.0 5.55 27.0 5.55 18.1 11.8 11.75 18.15 5.5 27.1 5.5 36.05 5.5 42.3 11.75 48.65 18.1 48.65 27.0 48.65 36.0 42.3 42.25 M45.85 45.9 Q38.1 53.75 27.0 53.75 15.75 53.75 7.8 45.9 0.0 38.05 0.0 26.95 0.0 15.75 7.8 7.8 15.75 0.0 27.0 0.0 38.1 0.0 45.85 7.8 53.85 15.75 53.85 26.95 53.85 38.05 45.85 45.9 M41.5 41.35 Q35.6 47.3 27.2 47.3 18.75 47.3 12.75 41.35 6.9 35.45 6.9 27.1 6.9 18.65 12.75 12.75 18.75 6.9 27.2 6.9 35.6 6.9 41.5 12.75 47.4 18.65 47.4 27.1 47.4 35.45 41.5 41.35 M34.85 5.75 Q31.2 4.45 27.0 4.45 22.5 4.45 18.65 5.95 L17.6 3.6 Q21.95 1.8 27.0 1.8 31.75 1.8 35.8 3.35 L34.85 5.75 M23.0 14.55 L17.9 14.55 17.9 23.6 12.9 23.6 12.9 27.0 17.9 27.0 17.9 28.1 12.9 28.1 12.9 31.55 17.9 31.55 17.9 39.85 23.0 39.85 23.0 32.1 23.55 31.55 29.25 31.55 34.1 39.85 40.65 39.85 35.35 31.55 38.9 31.55 38.9 28.1 33.05 28.1 32.3 27.0 38.9 27.0 38.9 23.6 31.5 23.6 40.1 14.55 33.3 14.55 25.0 23.6 23.0 23.6 23.0 14.55 M13.0 9.15 L11.45 7.15 Q13.8 5.3 16.5 4.1 L17.45 6.45 Q15.1 7.5 13.0 9.15 M10.4 8.05 L9.1 9.15 7.05 11.45 9.2 13.0 10.95 10.95 11.95 10.0 10.4 8.05 M3.55 17.45 Q4.6 14.85 6.35 12.5 L8.35 14.05 Q6.9 16.1 6.0 18.45 L3.55 17.45 M3.1 18.65 Q1.8 22.55 1.8 27.0 1.8 32.1 3.5 36.45 L5.9 35.35 Q4.4 31.5 4.4 27.0 4.4 23.05 5.55 19.65 L3.1 18.65 M6.9 42.35 Q5.1 40.1 4.0 37.65 L6.35 36.55 Q7.3 38.7 8.95 40.7 L6.9 42.35 M12.75 44.7 L10.95 43.0 9.75 41.7 7.7 43.3 9.1 44.85 11.3 46.8 12.75 44.7 M13.8 45.5 Q15.8 46.95 18.2 47.95 L17.3 50.35 Q14.6 49.25 12.25 47.5 L13.8 45.5 M19.45 48.45 Q23.0 49.65 27.0 49.65 31.25 49.65 35.0 48.25 L36.05 50.6 Q31.85 52.2 27.0 52.2 22.4 52.2 18.5 50.85 L19.45 48.45 Z" fill="none" stroke="#000000" stroke-linecap="round" stroke-linejoin="round" stroke-opacity="0.2" stroke-width="1.5"/>
    </g>
    <g id="sprite54" transform="matrix(1.0, 0.0, 0.0, 1.0, 0.0, 0.0)">
      <use ffdec:characterId="57" height="53.75" transform="matrix(1.0, 0.0, 0.0, 1.0, 0.0, 0.0)" width="53.9" xlink:href="#shape2"/>
    </g>
    <g id="shape2" transform="matrix(1.0, 0.0, 0.0, 1.0, 0.0, 0.0)">
      <path d="M44.85 9.2 L42.6 7.15 41.2 9.35 43.0 10.95 44.45 12.6 46.5 10.95 44.85 9.2 M45.25 40.4 L47.45 41.95 Q49.1 39.65 50.15 37.3 L47.8 36.35 Q46.8 38.45 45.25 40.4 M50.65 17.85 L48.2 18.9 Q49.65 22.7 49.65 27.0 49.65 31.4 48.2 35.15 L50.7 36.0 Q52.25 31.9 52.25 27.0 52.25 22.05 50.65 17.85 M47.2 11.95 L45.25 13.55 Q46.75 15.5 47.8 17.8 L50.15 16.7 Q49.0 14.2 47.2 11.95 M40.15 8.6 L41.6 6.4 Q39.4 4.8 37.05 3.85 L36.1 6.25 Q38.2 7.15 40.15 8.6 M41.05 44.85 L42.65 46.8 44.85 44.85 46.55 42.9 44.55 41.45 43.0 43.0 41.05 44.85 M41.7 47.55 L40.05 45.6 Q38.2 46.9 36.25 47.75 L37.3 50.15 Q39.6 49.05 41.7 47.55 M41.55 41.35 Q35.6 47.3 27.25 47.3 18.8 47.3 12.8 41.35 6.95 35.45 6.95 27.1 6.95 18.65 12.8 12.75 18.8 6.9 27.25 6.9 35.6 6.9 41.55 12.75 47.45 18.65 47.45 27.1 47.45 35.45 41.55 41.35 M45.9 45.9 Q38.1 53.75 27.0 53.75 15.8 53.75 7.8 45.9 0.0 38.05 0.0 26.95 0.0 15.75 7.8 7.8 15.8 0.0 27.0 0.0 38.1 0.0 45.9 7.8 53.9 15.75 53.9 26.95 53.9 38.05 45.9 45.9 M34.85 5.8 L35.85 3.35 Q31.8 1.8 27.0 1.8 21.95 1.8 17.65 3.6 L18.7 5.95 Q22.5 4.5 27.0 4.5 31.2 4.5 34.85 5.8 M42.35 42.25 Q48.7 36.0 48.7 27.0 48.7 18.1 42.35 11.8 36.1 5.55 27.15 5.55 18.15 5.55 11.8 11.8 5.55 18.1 5.55 27.0 5.55 36.0 11.8 42.25 18.15 48.6 27.15 48.6 36.1 48.6 42.35 42.25 M23.0 14.55 L17.9 14.55 17.9 23.6 12.95 23.6 12.95 27.0 17.9 27.0 17.9 28.05 12.95 28.05 12.95 31.55 17.9 31.55 17.9 39.85 23.0 39.85 23.0 32.15 23.6 31.55 29.25 31.55 34.15 39.85 40.65 39.85 35.35 31.55 38.95 31.55 38.95 28.05 33.1 28.05 32.35 27.0 38.95 27.0 38.95 23.6 31.55 23.6 40.15 14.55 33.35 14.55 25.05 23.6 23.0 23.6 23.0 14.55 M11.95 10.0 L10.4 8.05 Q9.75 8.55 9.1 9.2 L7.1 11.45 9.2 13.0 11.0 10.95 11.95 10.0 M13.0 9.2 Q15.15 7.5 17.5 6.4 L16.5 4.05 Q13.85 5.3 11.5 7.15 L13.0 9.2 M3.1 18.65 Q1.8 22.55 1.8 27.0 1.8 32.15 3.5 36.4 L5.95 35.35 Q4.4 31.5 4.4 27.0 4.4 23.05 5.55 19.65 L3.1 18.65 M18.2 47.95 L13.85 45.5 12.3 47.55 Q14.65 49.25 17.35 50.35 L18.2 47.95 M6.35 36.6 Q5.2 37.15 4.0 37.65 5.15 40.05 6.95 42.35 L8.95 40.7 Q7.35 38.7 6.35 36.6 M3.6 17.45 L6.05 18.4 Q6.95 16.05 8.4 14.05 L6.35 12.5 Q4.65 14.85 3.6 17.45 M11.3 46.8 L12.8 44.7 11.0 43.0 9.75 41.7 7.75 43.3 9.1 44.85 11.3 46.8 M18.55 50.85 Q22.45 52.25 27.0 52.25 31.85 52.25 36.1 50.6 L35.05 48.25 Q31.3 49.65 27.0 49.65 23.0 49.65 19.45 48.4 L18.55 50.85 M27.05 28.05 L27.15 28.0 27.25 28.05 27.05 28.05" fill="#000000" fill-rule="evenodd" stroke="none"/>
    </g>
  </defs>
</svg>
