<?xml version="1.0" encoding="UTF-8" standalone="no"?>
<svg xmlns:ffdec="https://www.free-decompiler.com/flash" xmlns:xlink="http://www.w3.org/1999/xlink" ffdec:objectType="frame" height="56.0px" width="56.0px" xmlns="http://www.w3.org/2000/svg">
  <g transform="matrix(1.0, 0.0, 0.0, 1.0, 0.0, 0.0)">
    <use ffdec:characterId="22" ffdec:characterName="21_fla.Symbole63_1" height="56.0" id="back" transform="matrix(1.0, 0.0, 0.0, 1.0, 0.0, 0.0)" width="56.0" xlink:href="#sprite0"/>
    <use ffdec:characterId="24" height="55.55" id="back" transform="matrix(1.0, 0.0, 0.0, 1.0, 0.4, 0.45)" width="55.4" xlink:href="#sprite21"/>
    <use ffdec:characterId="26" height="54.0" id="up" transform="matrix(1.0, 0.0, 0.0, 1.0, 1.15, 1.25)" width="53.9" xlink:href="#sprite22"/>
  </g>
  <defs>
    <g id="sprite0" transform="matrix(1.0, 0.0, 0.0, 1.0, 0.0, 0.0)">
      <use ffdec:characterId="21" ffdec:characterName="21_fla.Symbole60_2" height="56.0" id="back" transform="matrix(1.0, 0.0, 0.0, 1.0, 0.0, 0.0)" width="56.0" xlink:href="#sprite1"/>
    </g>
    <g id="sprite1" transform="matrix(1.0, 0.0, 0.0, 1.0, 0.0, 0.0)">
      <use ffdec:characterId="20" ffdec:characterName="21_fla.Symbole57_3" height="56.0" id="back" transform="matrix(1.0, 0.0, 0.0, 1.0, 0.0, 0.0)" width="56.0" xlink:href="#sprite2"/>
    </g>
    <g id="sprite2" transform="matrix(1.0, 0.0, 0.0, 1.0, 0.0, 0.0)">
      <use ffdec:characterId="19" ffdec:characterName="21_fla.Symbole54_4" height="56.0" id="back" transform="matrix(1.0, 0.0, 0.0, 1.0, 0.0, 0.0)" width="56.0" xlink:href="#sprite3"/>
    </g>
    <g id="sprite3" transform="matrix(1.0, 0.0, 0.0, 1.0, 0.0, 0.0)">
      <use ffdec:characterId="18" ffdec:characterName="21_fla.Symbole51_5" height="56.0" id="back" transform="matrix(1.0, 0.0, 0.0, 1.0, 0.0, 0.0)" width="56.0" xlink:href="#sprite4"/>
    </g>
    <g id="sprite4" transform="matrix(1.0, 0.0, 0.0, 1.0, 0.0, 0.0)">
      <use ffdec:characterId="17" ffdec:characterName="21_fla.Symbole48_6" height="56.0" id="back" transform="matrix(1.0, 0.0, 0.0, 1.0, 0.0, 0.0)" width="56.0" xlink:href="#sprite5"/>
    </g>
    <g id="sprite5" transform="matrix(1.0, 0.0, 0.0, 1.0, 0.0, 0.0)">
      <use ffdec:characterId="16" ffdec:characterName="21_fla.Symbole45_7" height="56.0" id="back" transform="matrix(1.0, 0.0, 0.0, 1.0, 0.0, 0.0)" width="56.0" xlink:href="#sprite6"/>
    </g>
    <g id="sprite6" transform="matrix(1.0, 0.0, 0.0, 1.0, 0.0, 0.0)">
      <use ffdec:characterId="15" ffdec:characterName="21_fla.Symbole42_8" height="56.0" id="back" transform="matrix(1.0, 0.0, 0.0, 1.0, 0.0, 0.0)" width="56.0" xlink:href="#sprite7"/>
    </g>
    <g id="sprite7" transform="matrix(1.0, 0.0, 0.0, 1.0, 0.0, 0.0)">
      <use ffdec:characterId="14" ffdec:characterName="21_fla.Symbole39_9" height="56.0" id="back" transform="matrix(1.0, 0.0, 0.0, 1.0, 0.0, 0.0)" width="56.0" xlink:href="#sprite8"/>
    </g>
    <g id="sprite8" transform="matrix(1.0, 0.0, 0.0, 1.0, 0.0, 0.0)">
      <use ffdec:characterId="13" ffdec:characterName="21_fla.Symbole36_10" height="56.0" id="back" transform="matrix(1.0, 0.0, 0.0, 1.0, 0.0, 0.0)" width="56.0" xlink:href="#sprite9"/>
    </g>
    <g id="sprite9" transform="matrix(1.0, 0.0, 0.0, 1.0, 0.0, 0.0)">
      <use ffdec:characterId="12" ffdec:characterName="21_fla.Symbole33_11" height="56.0" id="back" transform="matrix(1.0, 0.0, 0.0, 1.0, 0.0, 0.0)" width="56.0" xlink:href="#sprite10"/>
    </g>
    <g id="sprite10" transform="matrix(1.0, 0.0, 0.0, 1.0, 0.0, 0.0)">
      <use ffdec:characterId="11" ffdec:characterName="21_fla.Symbole30_12" height="56.0" id="back" transform="matrix(1.0, 0.0, 0.0, 1.0, 0.0, 0.0)" width="56.0" xlink:href="#sprite11"/>
    </g>
    <g id="sprite11" transform="matrix(1.0, 0.0, 0.0, 1.0, 0.0, 0.0)">
      <use ffdec:characterId="10" ffdec:characterName="21_fla.Symbole27_13" height="56.0" id="back" transform="matrix(1.0, 0.0, 0.0, 1.0, 0.0, 0.0)" width="56.0" xlink:href="#sprite12"/>
    </g>
    <g id="sprite12" transform="matrix(1.0, 0.0, 0.0, 1.0, 0.0, 0.0)">
      <use ffdec:characterId="9" ffdec:characterName="21_fla.Symbole24_14" height="56.0" id="back" transform="matrix(1.0, 0.0, 0.0, 1.0, 0.0, 0.0)" width="56.0" xlink:href="#sprite13"/>
    </g>
    <g id="sprite13" transform="matrix(1.0, 0.0, 0.0, 1.0, 0.0, 0.0)">
      <use ffdec:characterId="8" ffdec:characterName="21_fla.Symbole21_15" height="56.0" id="back" transform="matrix(1.0, 0.0, 0.0, 1.0, 0.0, 0.0)" width="56.0" xlink:href="#sprite14"/>
    </g>
    <g id="sprite14" transform="matrix(1.0, 0.0, 0.0, 1.0, 0.0, 0.0)">
      <use ffdec:characterId="7" ffdec:characterName="21_fla.Symbole18_16" height="56.0" id="back" transform="matrix(1.0, 0.0, 0.0, 1.0, 0.0, 0.0)" width="56.0" xlink:href="#sprite15"/>
    </g>
    <g id="sprite15" transform="matrix(1.0, 0.0, 0.0, 1.0, 0.0, 0.0)">
      <use ffdec:characterId="6" ffdec:characterName="21_fla.Symbole15_17" height="56.0" id="back" transform="matrix(1.0, 0.0, 0.0, 1.0, 0.0, 0.0)" width="56.0" xlink:href="#sprite16"/>
    </g>
    <g id="sprite16" transform="matrix(1.0, 0.0, 0.0, 1.0, 0.0, 0.0)">
      <use ffdec:characterId="5" ffdec:characterName="21_fla.Symbole12_18" height="56.0" id="back" transform="matrix(1.0, 0.0, 0.0, 1.0, 0.0, 0.0)" width="56.0" xlink:href="#sprite17"/>
    </g>
    <g id="sprite17" transform="matrix(1.0, 0.0, 0.0, 1.0, 0.0, 0.0)">
      <use ffdec:characterId="4" ffdec:characterName="21_fla.Symbole9_19" height="56.0" id="back" transform="matrix(1.0, 0.0, 0.0, 1.0, 0.0, 0.0)" width="56.0" xlink:href="#sprite18"/>
    </g>
    <g id="sprite18" transform="matrix(1.0, 0.0, 0.0, 1.0, 0.0, 0.0)">
      <use ffdec:characterId="3" ffdec:characterName="21_fla.Symbole6_20" height="56.0" id="back" transform="matrix(1.0, 0.0, 0.0, 1.0, 0.0, 0.0)" width="56.0" xlink:href="#sprite19"/>
    </g>
    <g id="sprite19" transform="matrix(1.0, 0.0, 0.0, 1.0, 0.0, 0.0)">
      <use ffdec:characterId="2" height="56.0" id="back" transform="matrix(1.0, 0.0, 0.0, 1.0, 0.0, 0.0)" width="56.0" xlink:href="#sprite20"/>
    </g>
    <g id="sprite20" transform="matrix(1.0, 0.0, 0.0, 1.0, 0.0, 0.0)">
      <use ffdec:characterId="1" height="56.0" transform="matrix(1.0, 0.0, 0.0, 1.0, 0.0, 0.0)" width="56.0" xlink:href="#shape0"/>
    </g>
    <g id="shape0" transform="matrix(1.0, 0.0, 0.0, 1.0, 0.0, 0.0)">
      <path d="M56.0 56.0 L0.0 56.0 0.0 0.0 56.0 0.0 56.0 56.0" fill="#010101" fill-opacity="0.0" fill-rule="evenodd" stroke="none"/>
    </g>
    <g id="sprite21" transform="matrix(1.0, 0.0, 0.0, 1.0, 0.75, 0.75)">
      <use ffdec:characterId="23" height="55.55" transform="matrix(1.0, 0.0, 0.0, 1.0, -0.75, -0.75)" width="55.4" xlink:href="#shape1"/>
    </g>
    <g id="shape1" transform="matrix(1.0, 0.0, 0.0, 1.0, 0.75, 0.75)">
      <path d="M46.1 8.0 Q44.0 5.95 41.35 5.25 38.75 4.65 36.05 5.25 34.9 3.05 32.5 1.6 29.95 0.0 26.95 0.0 24.15 0.0 21.8 1.5 19.45 2.8 18.05 5.25 15.55 4.55 12.9 5.2 9.9 5.95 8.0 8.0 5.95 9.95 5.35 12.75 4.65 15.2 5.35 18.0 3.05 19.25 1.7 21.6 0.0 24.2 0.0 27.0 0.0 29.9 1.55 32.3 2.85 34.6 5.35 36.1 4.5 38.45 5.2 41.3 5.95 44.1 8.0 46.1 9.9 48.2 12.75 48.85 15.25 49.5 18.05 48.85 19.15 51.0 21.55 52.55 24.15 54.05 26.95 54.05 29.95 54.05 32.3 52.6 34.5 51.25 36.05 48.85 38.4 49.5 41.2 48.85 44.0 48.2 46.1 46.1 48.1 44.1 48.75 41.35 49.4 38.75 48.75 36.1 50.9 34.9 52.4 32.5 53.9 29.9 53.9 27.0 53.9 24.2 52.55 21.85 51.1 19.45 48.75 18.0 49.4 15.65 48.75 12.85 48.1 9.95 46.1 8.0 M42.5 20.6 Q45.1 20.6 46.95 22.55 48.75 24.4 48.9 27.0 48.75 29.65 46.95 31.55 45.1 33.35 42.4 33.5 44.25 35.3 44.35 38.05 44.35 40.6 42.5 42.6 40.55 44.4 37.95 44.4 35.3 44.3 33.45 42.45 L33.45 42.6 Q33.35 45.15 31.45 47.0 29.55 48.85 26.95 48.9 24.4 48.85 22.55 47.0 20.65 45.15 20.65 42.6 18.7 44.3 16.1 44.4 13.4 44.4 11.6 42.6 9.7 40.6 9.7 38.05 9.7 35.3 11.6 33.5 9.0 33.35 7.1 31.55 5.2 29.65 5.2 27.0 5.2 24.4 7.1 22.55 9.0 20.6 11.6 20.6 9.7 18.65 9.7 16.05 9.7 13.4 11.6 11.55 13.4 9.75 16.1 9.75 18.7 9.75 20.65 11.55 20.65 8.9 22.55 7.0 24.4 5.2 26.95 5.2 29.55 5.2 31.45 7.0 33.35 8.9 33.45 11.55 35.3 9.75 37.95 9.75 40.55 9.75 42.5 11.55 44.35 13.4 44.35 16.05 44.25 18.8 42.4 20.6 L42.5 20.6 Z" fill="none" stroke="#000000" stroke-linecap="round" stroke-linejoin="round" stroke-opacity="0.2" stroke-width="1.5"/>
    </g>
    <g id="sprite22" transform="matrix(1.0, 0.0, 0.0, 1.0, 0.0, 0.0)">
      <use ffdec:characterId="25" height="54.0" transform="matrix(1.0, 0.0, 0.0, 1.0, 0.0, 0.0)" width="53.9" xlink:href="#shape2"/>
    </g>
    <g id="shape2" transform="matrix(1.0, 0.0, 0.0, 1.0, 0.0, 0.0)">
      <path d="M42.45 20.6 L42.4 20.6 Q44.2 18.8 44.35 16.05 44.35 13.4 42.45 11.5 40.5 9.7 37.95 9.7 35.3 9.7 33.4 11.5 33.35 8.85 31.45 7.0 29.55 5.15 26.95 5.15 24.35 5.15 22.55 7.0 20.6 8.85 20.6 11.5 18.65 9.7 16.1 9.7 13.35 9.7 11.55 11.5 9.7 13.4 9.7 16.05 9.7 18.65 11.55 20.6 8.95 20.6 7.1 22.55 5.15 24.4 5.15 27.0 5.15 29.65 7.1 31.55 8.95 33.35 11.55 33.5 9.7 35.3 9.7 38.05 9.7 40.6 11.55 42.55 13.35 44.35 16.1 44.35 18.65 44.3 20.6 42.55 20.6 45.15 22.55 46.95 24.35 48.85 26.95 48.9 29.55 48.85 31.45 46.95 33.35 45.15 33.4 42.55 L33.4 42.4 Q35.3 44.3 37.95 44.35 40.5 44.35 42.45 42.55 44.35 40.6 44.35 38.05 44.2 35.3 42.4 33.5 45.05 33.35 46.9 31.55 48.7 29.65 48.85 27.0 48.7 24.4 46.9 22.55 45.05 20.6 42.45 20.6 M46.05 8.0 Q48.05 9.95 48.7 12.8 49.35 15.6 48.7 18.0 51.1 19.45 52.5 21.8 53.9 24.2 53.9 27.0 53.9 29.9 52.4 32.5 50.85 34.85 48.7 36.1 49.35 38.75 48.7 41.35 48.05 44.1 46.05 46.1 43.95 48.2 41.15 48.85 38.35 49.5 36.0 48.85 34.5 51.2 32.25 52.6 29.9 54.0 26.95 54.0 24.15 54.0 21.55 52.5 19.1 51.0 18.05 48.85 15.2 49.5 12.7 48.85 9.9 48.2 7.95 46.1 5.95 44.1 5.15 41.25 4.5 38.45 5.3 36.1 2.8 34.55 1.5 32.25 0.0 29.9 0.0 27.0 0.0 24.2 1.65 21.6 3.0 19.2 5.3 18.0 4.65 15.2 5.3 12.75 5.95 9.95 7.95 8.0 9.9 5.9 12.85 5.15 15.5 4.55 18.05 5.25 19.4 2.8 21.75 1.5 24.15 0.0 26.95 0.0 29.9 0.0 32.45 1.55 34.85 3.0 36.0 5.25 38.75 4.6 41.3 5.25 43.95 5.9 46.05 8.0" fill="#000000" fill-rule="evenodd" stroke="none"/>
    </g>
  </defs>
</svg>
