<?xml version="1.0" encoding="UTF-8" standalone="no"?>
<svg xmlns:ffdec="https://www.free-decompiler.com/flash" xmlns:xlink="http://www.w3.org/1999/xlink" ffdec:objectType="frame" height="56.0px" width="56.0px" xmlns="http://www.w3.org/2000/svg">
  <g transform="matrix(1.0, 0.0, 0.0, 1.0, 0.0, 0.0)">
    <use ffdec:characterId="56" ffdec:characterName="210_fla.Symbole351_1" height="56.0" id="back" transform="matrix(1.0, 0.0, 0.0, 1.0, 0.0, 0.0)" width="56.0" xlink:href="#sprite0"/>
    <use ffdec:characterId="58" height="55.25" id="back" transform="matrix(1.0, 0.0, 0.0, 1.0, 0.35, 0.3)" width="55.4" xlink:href="#sprite55"/>
    <use ffdec:characterId="60" height="53.75" id="up" transform="matrix(1.0, 0.0, 0.0, 1.0, 1.1, 1.05)" width="53.9" xlink:href="#sprite56"/>
  </g>
  <defs>
    <g id="sprite0" transform="matrix(1.0, 0.0, 0.0, 1.0, 0.0, 0.0)">
      <use ffdec:characterId="55" ffdec:characterName="210_fla.Symbole348_2" height="56.0" id="back" transform="matrix(1.0, 0.0, 0.0, 1.0, 0.0, 0.0)" width="56.0" xlink:href="#sprite1"/>
    </g>
    <g id="sprite1" transform="matrix(1.0, 0.0, 0.0, 1.0, 0.0, 0.0)">
      <use ffdec:characterId="54" ffdec:characterName="210_fla.Symbole345_3" height="56.0" id="back" transform="matrix(1.0, 0.0, 0.0, 1.0, 0.0, 0.0)" width="56.0" xlink:href="#sprite2"/>
    </g>
    <g id="sprite2" transform="matrix(1.0, 0.0, 0.0, 1.0, 0.0, 0.0)">
      <use ffdec:characterId="53" ffdec:characterName="210_fla.Symbole342_4" height="56.0" id="back" transform="matrix(1.0, 0.0, 0.0, 1.0, 0.0, 0.0)" width="56.0" xlink:href="#sprite3"/>
    </g>
    <g id="sprite3" transform="matrix(1.0, 0.0, 0.0, 1.0, 0.0, 0.0)">
      <use ffdec:characterId="52" ffdec:characterName="210_fla.Symbole339_5" height="56.0" id="back" transform="matrix(1.0, 0.0, 0.0, 1.0, 0.0, 0.0)" width="56.0" xlink:href="#sprite4"/>
    </g>
    <g id="sprite4" transform="matrix(1.0, 0.0, 0.0, 1.0, 0.0, 0.0)">
      <use ffdec:characterId="51" ffdec:characterName="210_fla.Symbole336_6" height="56.0" id="back" transform="matrix(1.0, 0.0, 0.0, 1.0, 0.0, 0.0)" width="56.0" xlink:href="#sprite5"/>
    </g>
    <g id="sprite5" transform="matrix(1.0, 0.0, 0.0, 1.0, 0.0, 0.0)">
      <use ffdec:characterId="50" ffdec:characterName="210_fla.Symbole333_7" height="56.0" id="back" transform="matrix(1.0, 0.0, 0.0, 1.0, 0.0, 0.0)" width="56.0" xlink:href="#sprite6"/>
    </g>
    <g id="sprite6" transform="matrix(1.0, 0.0, 0.0, 1.0, 0.0, 0.0)">
      <use ffdec:characterId="49" ffdec:characterName="210_fla.Symbole330_8" height="56.0" id="back" transform="matrix(1.0, 0.0, 0.0, 1.0, 0.0, 0.0)" width="56.0" xlink:href="#sprite7"/>
    </g>
    <g id="sprite7" transform="matrix(1.0, 0.0, 0.0, 1.0, 0.0, 0.0)">
      <use ffdec:characterId="48" ffdec:characterName="210_fla.Symbole327_9" height="56.0" id="back" transform="matrix(1.0, 0.0, 0.0, 1.0, 0.0, 0.0)" width="56.0" xlink:href="#sprite8"/>
    </g>
    <g id="sprite8" transform="matrix(1.0, 0.0, 0.0, 1.0, 0.0, 0.0)">
      <use ffdec:characterId="47" ffdec:characterName="210_fla.Symbole324_10" height="56.0" id="back" transform="matrix(1.0, 0.0, 0.0, 1.0, 0.0, 0.0)" width="56.0" xlink:href="#sprite9"/>
    </g>
    <g id="sprite9" transform="matrix(1.0, 0.0, 0.0, 1.0, 0.0, 0.0)">
      <use ffdec:characterId="46" ffdec:characterName="210_fla.Symbole321_11" height="56.0" id="back" transform="matrix(1.0, 0.0, 0.0, 1.0, 0.0, 0.0)" width="56.0" xlink:href="#sprite10"/>
    </g>
    <g id="sprite10" transform="matrix(1.0, 0.0, 0.0, 1.0, 0.0, 0.0)">
      <use ffdec:characterId="45" ffdec:characterName="210_fla.Symbole318_12" height="56.0" id="back" transform="matrix(1.0, 0.0, 0.0, 1.0, 0.0, 0.0)" width="56.0" xlink:href="#sprite11"/>
    </g>
    <g id="sprite11" transform="matrix(1.0, 0.0, 0.0, 1.0, 0.0, 0.0)">
      <use ffdec:characterId="44" ffdec:characterName="210_fla.Symbole315_13" height="56.0" id="back" transform="matrix(1.0, 0.0, 0.0, 1.0, 0.0, 0.0)" width="56.0" xlink:href="#sprite12"/>
    </g>
    <g id="sprite12" transform="matrix(1.0, 0.0, 0.0, 1.0, 0.0, 0.0)">
      <use ffdec:characterId="43" ffdec:characterName="210_fla.Symbole312_14" height="56.0" id="back" transform="matrix(1.0, 0.0, 0.0, 1.0, 0.0, 0.0)" width="56.0" xlink:href="#sprite13"/>
    </g>
    <g id="sprite13" transform="matrix(1.0, 0.0, 0.0, 1.0, 0.0, 0.0)">
      <use ffdec:characterId="42" ffdec:characterName="210_fla.Symbole309_15" height="56.0" id="back" transform="matrix(1.0, 0.0, 0.0, 1.0, 0.0, 0.0)" width="56.0" xlink:href="#sprite14"/>
    </g>
    <g id="sprite14" transform="matrix(1.0, 0.0, 0.0, 1.0, 0.0, 0.0)">
      <use ffdec:characterId="41" ffdec:characterName="210_fla.Symbole306_16" height="56.0" id="back" transform="matrix(1.0, 0.0, 0.0, 1.0, 0.0, 0.0)" width="56.0" xlink:href="#sprite15"/>
    </g>
    <g id="sprite15" transform="matrix(1.0, 0.0, 0.0, 1.0, 0.0, 0.0)">
      <use ffdec:characterId="40" ffdec:characterName="210_fla.Symbole303_17" height="56.0" id="back" transform="matrix(1.0, 0.0, 0.0, 1.0, 0.0, 0.0)" width="56.0" xlink:href="#sprite16"/>
    </g>
    <g id="sprite16" transform="matrix(1.0, 0.0, 0.0, 1.0, 0.0, 0.0)">
      <use ffdec:characterId="39" ffdec:characterName="210_fla.Symbole300_18" height="56.0" id="back" transform="matrix(1.0, 0.0, 0.0, 1.0, 0.0, 0.0)" width="56.0" xlink:href="#sprite17"/>
    </g>
    <g id="sprite17" transform="matrix(1.0, 0.0, 0.0, 1.0, 0.0, 0.0)">
      <use ffdec:characterId="38" ffdec:characterName="210_fla.Symbole297_19" height="56.0" id="back" transform="matrix(1.0, 0.0, 0.0, 1.0, 0.0, 0.0)" width="56.0" xlink:href="#sprite18"/>
    </g>
    <g id="sprite18" transform="matrix(1.0, 0.0, 0.0, 1.0, 0.0, 0.0)">
      <use ffdec:characterId="37" ffdec:characterName="210_fla.Symbole294_20" height="56.0" id="back" transform="matrix(1.0, 0.0, 0.0, 1.0, 0.0, 0.0)" width="56.0" xlink:href="#sprite19"/>
    </g>
    <g id="sprite19" transform="matrix(1.0, 0.0, 0.0, 1.0, 0.0, 0.0)">
      <use ffdec:characterId="36" ffdec:characterName="210_fla.Symbole291_21" height="56.0" id="back" transform="matrix(1.0, 0.0, 0.0, 1.0, 0.0, 0.0)" width="56.0" xlink:href="#sprite20"/>
    </g>
    <g id="sprite20" transform="matrix(1.0, 0.0, 0.0, 1.0, 0.0, 0.0)">
      <use ffdec:characterId="35" ffdec:characterName="210_fla.Symbole288_22" height="56.0" id="back" transform="matrix(1.0, 0.0, 0.0, 1.0, 0.0, 0.0)" width="56.0" xlink:href="#sprite21"/>
    </g>
    <g id="sprite21" transform="matrix(1.0, 0.0, 0.0, 1.0, 0.0, 0.0)">
      <use ffdec:characterId="34" ffdec:characterName="210_fla.Symbole285_23" height="56.0" id="back" transform="matrix(1.0, 0.0, 0.0, 1.0, 0.0, 0.0)" width="56.0" xlink:href="#sprite22"/>
    </g>
    <g id="sprite22" transform="matrix(1.0, 0.0, 0.0, 1.0, 0.0, 0.0)">
      <use ffdec:characterId="33" ffdec:characterName="210_fla.Symbole282_24" height="56.0" id="back" transform="matrix(1.0, 0.0, 0.0, 1.0, 0.0, 0.0)" width="56.0" xlink:href="#sprite23"/>
    </g>
    <g id="sprite23" transform="matrix(1.0, 0.0, 0.0, 1.0, 0.0, 0.0)">
      <use ffdec:characterId="32" ffdec:characterName="210_fla.Symbole279_25" height="56.0" id="back" transform="matrix(1.0, 0.0, 0.0, 1.0, 0.0, 0.0)" width="56.0" xlink:href="#sprite24"/>
    </g>
    <g id="sprite24" transform="matrix(1.0, 0.0, 0.0, 1.0, 0.0, 0.0)">
      <use ffdec:characterId="31" ffdec:characterName="210_fla.Symbole276_26" height="56.0" id="back" transform="matrix(1.0, 0.0, 0.0, 1.0, 0.0, 0.0)" width="56.0" xlink:href="#sprite25"/>
    </g>
    <g id="sprite25" transform="matrix(1.0, 0.0, 0.0, 1.0, 0.0, 0.0)">
      <use ffdec:characterId="30" ffdec:characterName="210_fla.Symbole273_27" height="56.0" id="back" transform="matrix(1.0, 0.0, 0.0, 1.0, 0.0, 0.0)" width="56.0" xlink:href="#sprite26"/>
    </g>
    <g id="sprite26" transform="matrix(1.0, 0.0, 0.0, 1.0, 0.0, 0.0)">
      <use ffdec:characterId="29" ffdec:characterName="210_fla.Symbole270_28" height="56.0" id="back" transform="matrix(1.0, 0.0, 0.0, 1.0, 0.0, 0.0)" width="56.0" xlink:href="#sprite27"/>
    </g>
    <g id="sprite27" transform="matrix(1.0, 0.0, 0.0, 1.0, 0.0, 0.0)">
      <use ffdec:characterId="28" ffdec:characterName="210_fla.Symbole267_29" height="56.0" id="back" transform="matrix(1.0, 0.0, 0.0, 1.0, 0.0, 0.0)" width="56.0" xlink:href="#sprite28"/>
    </g>
    <g id="sprite28" transform="matrix(1.0, 0.0, 0.0, 1.0, 0.0, 0.0)">
      <use ffdec:characterId="27" ffdec:characterName="210_fla.Symbole264_30" height="56.0" id="back" transform="matrix(1.0, 0.0, 0.0, 1.0, 0.0, 0.0)" width="56.0" xlink:href="#sprite29"/>
    </g>
    <g id="sprite29" transform="matrix(1.0, 0.0, 0.0, 1.0, 0.0, 0.0)">
      <use ffdec:characterId="26" ffdec:characterName="210_fla.Symbole261_31" height="56.0" id="back" transform="matrix(1.0, 0.0, 0.0, 1.0, 0.0, 0.0)" width="56.0" xlink:href="#sprite30"/>
    </g>
    <g id="sprite30" transform="matrix(1.0, 0.0, 0.0, 1.0, 0.0, 0.0)">
      <use ffdec:characterId="25" ffdec:characterName="210_fla.Symbole258_32" height="56.0" id="back" transform="matrix(1.0, 0.0, 0.0, 1.0, 0.0, 0.0)" width="56.0" xlink:href="#sprite31"/>
    </g>
    <g id="sprite31" transform="matrix(1.0, 0.0, 0.0, 1.0, 0.0, 0.0)">
      <use ffdec:characterId="24" ffdec:characterName="210_fla.Symbole255_33" height="56.0" id="back" transform="matrix(1.0, 0.0, 0.0, 1.0, 0.0, 0.0)" width="56.0" xlink:href="#sprite32"/>
    </g>
    <g id="sprite32" transform="matrix(1.0, 0.0, 0.0, 1.0, 0.0, 0.0)">
      <use ffdec:characterId="23" ffdec:characterName="210_fla.Symbole252_34" height="56.0" id="back" transform="matrix(1.0, 0.0, 0.0, 1.0, 0.0, 0.0)" width="56.0" xlink:href="#sprite33"/>
    </g>
    <g id="sprite33" transform="matrix(1.0, 0.0, 0.0, 1.0, 0.0, 0.0)">
      <use ffdec:characterId="22" ffdec:characterName="210_fla.Symbole249_35" height="56.0" id="back" transform="matrix(1.0, 0.0, 0.0, 1.0, 0.0, 0.0)" width="56.0" xlink:href="#sprite34"/>
    </g>
    <g id="sprite34" transform="matrix(1.0, 0.0, 0.0, 1.0, 0.0, 0.0)">
      <use ffdec:characterId="21" ffdec:characterName="210_fla.Symbole246_36" height="56.0" id="back" transform="matrix(1.0, 0.0, 0.0, 1.0, 0.0, 0.0)" width="56.0" xlink:href="#sprite35"/>
    </g>
    <g id="sprite35" transform="matrix(1.0, 0.0, 0.0, 1.0, 0.0, 0.0)">
      <use ffdec:characterId="20" ffdec:characterName="210_fla.Symbole243_37" height="56.0" id="back" transform="matrix(1.0, 0.0, 0.0, 1.0, 0.0, 0.0)" width="56.0" xlink:href="#sprite36"/>
    </g>
    <g id="sprite36" transform="matrix(1.0, 0.0, 0.0, 1.0, 0.0, 0.0)">
      <use ffdec:characterId="19" ffdec:characterName="210_fla.Symbole240_38" height="56.0" id="back" transform="matrix(1.0, 0.0, 0.0, 1.0, 0.0, 0.0)" width="56.0" xlink:href="#sprite37"/>
    </g>
    <g id="sprite37" transform="matrix(1.0, 0.0, 0.0, 1.0, 0.0, 0.0)">
      <use ffdec:characterId="18" ffdec:characterName="210_fla.Symbole237_39" height="56.0" id="back" transform="matrix(1.0, 0.0, 0.0, 1.0, 0.0, 0.0)" width="56.0" xlink:href="#sprite38"/>
    </g>
    <g id="sprite38" transform="matrix(1.0, 0.0, 0.0, 1.0, 0.0, 0.0)">
      <use ffdec:characterId="17" ffdec:characterName="210_fla.Symbole234_40" height="56.0" id="back" transform="matrix(1.0, 0.0, 0.0, 1.0, 0.0, 0.0)" width="56.0" xlink:href="#sprite39"/>
    </g>
    <g id="sprite39" transform="matrix(1.0, 0.0, 0.0, 1.0, 0.0, 0.0)">
      <use ffdec:characterId="16" ffdec:characterName="210_fla.Symbole231_41" height="56.0" id="back" transform="matrix(1.0, 0.0, 0.0, 1.0, 0.0, 0.0)" width="56.0" xlink:href="#sprite40"/>
    </g>
    <g id="sprite40" transform="matrix(1.0, 0.0, 0.0, 1.0, 0.0, 0.0)">
      <use ffdec:characterId="15" ffdec:characterName="210_fla.Symbole228_42" height="56.0" id="back" transform="matrix(1.0, 0.0, 0.0, 1.0, 0.0, 0.0)" width="56.0" xlink:href="#sprite41"/>
    </g>
    <g id="sprite41" transform="matrix(1.0, 0.0, 0.0, 1.0, 0.0, 0.0)">
      <use ffdec:characterId="14" ffdec:characterName="210_fla.Symbole225_43" height="56.0" id="back" transform="matrix(1.0, 0.0, 0.0, 1.0, 0.0, 0.0)" width="56.0" xlink:href="#sprite42"/>
    </g>
    <g id="sprite42" transform="matrix(1.0, 0.0, 0.0, 1.0, 0.0, 0.0)">
      <use ffdec:characterId="13" ffdec:characterName="210_fla.Symbole222_44" height="56.0" id="back" transform="matrix(1.0, 0.0, 0.0, 1.0, 0.0, 0.0)" width="56.0" xlink:href="#sprite43"/>
    </g>
    <g id="sprite43" transform="matrix(1.0, 0.0, 0.0, 1.0, 0.0, 0.0)">
      <use ffdec:characterId="12" ffdec:characterName="210_fla.Symbole219_45" height="56.0" id="back" transform="matrix(1.0, 0.0, 0.0, 1.0, 0.0, 0.0)" width="56.0" xlink:href="#sprite44"/>
    </g>
    <g id="sprite44" transform="matrix(1.0, 0.0, 0.0, 1.0, 0.0, 0.0)">
      <use ffdec:characterId="11" ffdec:characterName="210_fla.Symbole216_46" height="56.0" id="back" transform="matrix(1.0, 0.0, 0.0, 1.0, 0.0, 0.0)" width="56.0" xlink:href="#sprite45"/>
    </g>
    <g id="sprite45" transform="matrix(1.0, 0.0, 0.0, 1.0, 0.0, 0.0)">
      <use ffdec:characterId="10" ffdec:characterName="210_fla.Symbole213_47" height="56.0" id="back" transform="matrix(1.0, 0.0, 0.0, 1.0, 0.0, 0.0)" width="56.0" xlink:href="#sprite46"/>
    </g>
    <g id="sprite46" transform="matrix(1.0, 0.0, 0.0, 1.0, 0.0, 0.0)">
      <use ffdec:characterId="9" ffdec:characterName="210_fla.Symbole210_48" height="56.0" id="back" transform="matrix(1.0, 0.0, 0.0, 1.0, 0.0, 0.0)" width="56.0" xlink:href="#sprite47"/>
    </g>
    <g id="sprite47" transform="matrix(1.0, 0.0, 0.0, 1.0, 0.0, 0.0)">
      <use ffdec:characterId="8" ffdec:characterName="210_fla.Symbole207_49" height="56.0" id="back" transform="matrix(1.0, 0.0, 0.0, 1.0, 0.0, 0.0)" width="56.0" xlink:href="#sprite48"/>
    </g>
    <g id="sprite48" transform="matrix(1.0, 0.0, 0.0, 1.0, 0.0, 0.0)">
      <use ffdec:characterId="7" ffdec:characterName="210_fla.Symbole204_50" height="56.0" id="back" transform="matrix(1.0, 0.0, 0.0, 1.0, 0.0, 0.0)" width="56.0" xlink:href="#sprite49"/>
    </g>
    <g id="sprite49" transform="matrix(1.0, 0.0, 0.0, 1.0, 0.0, 0.0)">
      <use ffdec:characterId="6" ffdec:characterName="210_fla.Symbole201_51" height="56.0" id="back" transform="matrix(1.0, 0.0, 0.0, 1.0, 0.0, 0.0)" width="56.0" xlink:href="#sprite50"/>
    </g>
    <g id="sprite50" transform="matrix(1.0, 0.0, 0.0, 1.0, 0.0, 0.0)">
      <use ffdec:characterId="5" ffdec:characterName="210_fla.Symbole198_52" height="56.0" id="back" transform="matrix(1.0, 0.0, 0.0, 1.0, 0.0, 0.0)" width="56.0" xlink:href="#sprite51"/>
    </g>
    <g id="sprite51" transform="matrix(1.0, 0.0, 0.0, 1.0, 0.0, 0.0)">
      <use ffdec:characterId="4" ffdec:characterName="210_fla.Symbole195_53" height="56.0" id="back" transform="matrix(1.0, 0.0, 0.0, 1.0, 0.0, 0.0)" width="56.0" xlink:href="#sprite52"/>
    </g>
    <g id="sprite52" transform="matrix(1.0, 0.0, 0.0, 1.0, 0.0, 0.0)">
      <use ffdec:characterId="3" ffdec:characterName="210_fla.Symbole192_54" height="56.0" id="back" transform="matrix(1.0, 0.0, 0.0, 1.0, 0.0, 0.0)" width="56.0" xlink:href="#sprite53"/>
    </g>
    <g id="sprite53" transform="matrix(1.0, 0.0, 0.0, 1.0, 0.0, 0.0)">
      <use ffdec:characterId="2" height="56.0" id="back" transform="matrix(1.0, 0.0, 0.0, 1.0, 0.0, 0.0)" width="56.0" xlink:href="#sprite54"/>
    </g>
    <g id="sprite54" transform="matrix(1.0, 0.0, 0.0, 1.0, 0.0, 0.0)">
      <use ffdec:characterId="1" height="56.0" transform="matrix(1.0, 0.0, 0.0, 1.0, 0.0, 0.0)" width="56.0" xlink:href="#shape0"/>
    </g>
    <g id="shape0" transform="matrix(1.0, 0.0, 0.0, 1.0, 0.0, 0.0)">
      <path d="M56.0 56.0 L0.0 56.0 0.0 0.0 56.0 0.0 56.0 56.0" fill="#010101" fill-opacity="0.0" fill-rule="evenodd" stroke="none"/>
    </g>
    <g id="sprite55" transform="matrix(1.0, 0.0, 0.0, 1.0, 0.75, 0.75)">
      <use ffdec:characterId="57" height="55.25" transform="matrix(1.0, 0.0, 0.0, 1.0, -0.75, -0.75)" width="55.4" xlink:href="#shape1"/>
    </g>
    <g id="shape1" transform="matrix(1.0, 0.0, 0.0, 1.0, 0.75, 0.75)">
      <path d="M50.85 6.45 L39.35 14.0 39.2 13.85 38.2 13.0 Q37.8 12.65 37.4 12.55 L36.8 12.15 36.4 11.9 36.35 11.9 44.35 4.8 44.6 5.05 44.7 5.05 49.55 5.05 50.85 6.45 M51.6 5.8 Q50.85 4.8 49.9 4.2 L49.6 4.0 44.95 4.0 42.05 0.95 41.9 0.85 40.95 0.5 Q37.9 -0.75 34.35 1.2 32.1 2.45 29.85 4.95 L29.7 5.2 29.05 10.4 26.1 10.4 25.95 10.55 Q22.8 12.55 23.45 14.8 L23.45 14.95 Q21.7 15.95 20.5 16.8 19.0 17.75 18.2 18.5 L14.6 20.8 12.3 22.35 12.25 22.35 Q4.9 27.7 1.55 32.2 L0.55 33.7 0.4 34.1 0.15 35.8 Q-0.1 38.55 0.15 40.9 0.5 43.2 1.45 45.25 2.3 46.8 3.75 48.05 8.55 52.05 16.4 53.65 L16.65 53.65 Q33.05 54.4 44.1 49.65 L44.6 49.4 Q44.65 49.05 44.85 48.85 L44.95 48.75 Q47.1 45.95 48.3 42.95 L48.3 42.8 48.95 40.1 Q49.35 37.55 48.75 34.85 L46.0 31.1 45.95 30.4 Q45.45 26.6 44.7 23.9 L44.7 23.6 46.75 25.4 47.0 25.5 47.35 25.4 Q51.05 21.6 49.35 16.55 L51.85 15.9 Q52.0 15.75 52.05 15.75 55.75 11.5 52.05 6.55 L51.6 5.8 M40.6 1.35 L41.35 1.7 33.4 10.7 33.2 10.65 30.4 10.2 30.25 10.2 Q30.2 10.05 30.0 10.05 L30.65 5.4 Q33.95 1.95 36.9 1.2 38.55 0.65 40.2 1.2 L40.6 1.35 M40.1 15.5 Q39.5 15.75 39.05 16.35 L38.4 15.3 39.2 15.1 39.45 15.1 39.65 15.1 40.1 15.5 M39.5 17.35 L40.1 18.55 Q40.8 18.0 41.65 17.85 L40.8 16.25 39.5 17.35 M40.45 19.5 Q41.2 18.9 42.1 18.85 L43.15 21.5 42.4 21.35 41.0 21.75 40.95 21.65 40.5 19.75 40.45 19.5 M43.4 22.6 L43.8 24.25 44.1 25.25 42.35 24.85 41.35 24.95 41.35 24.4 41.35 24.25 41.35 24.15 41.2 22.75 Q41.75 22.35 42.4 22.35 L43.4 22.6 M39.85 21.35 L39.1 21.25 39.05 21.25 Q37.5 21.25 36.75 21.9 L36.35 20.15 36.4 20.1 Q36.9 18.55 38.3 18.55 L39.05 18.65 39.5 20.1 39.85 21.35 M44.35 26.5 L44.65 28.45 Q43.15 27.9 42.5 27.9 L41.6 28.1 41.4 27.35 41.4 26.0 Q41.65 25.75 42.35 25.75 43.4 25.75 44.35 26.5 M40.2 26.5 L40.1 27.75 39.7 27.7 39.65 27.7 38.55 27.7 37.0 28.0 37.0 26.0 37.0 25.75 37.1 25.75 Q37.25 25.4 38.65 25.4 L40.25 25.65 40.2 26.5 M40.45 24.6 L38.65 24.4 37.0 24.6 36.9 24.0 36.8 23.1 36.9 23.1 Q37.5 22.25 39.05 22.25 L40.1 22.45 40.45 24.35 40.45 24.6 M39.85 29.1 L39.8 30.25 39.45 31.25 Q38.8 31.75 38.3 31.7 37.65 31.7 37.25 31.25 36.9 30.6 36.9 30.0 L37.0 29.1 Q37.55 28.7 38.55 28.7 L39.5 28.7 39.85 29.1 M42.5 28.85 Q43.15 28.85 44.85 29.55 L44.95 30.55 45.1 31.5 Q44.1 30.8 42.9 30.8 L42.0 31.05 41.75 29.1 Q42.05 28.85 42.5 28.85 M42.05 32.05 Q42.25 31.8 42.9 31.8 44.2 31.8 45.25 32.95 L45.35 33.95 43.15 33.55 42.25 33.7 42.1 32.45 42.05 32.05 M42.5 34.8 Q42.65 34.45 43.15 34.45 44.6 34.45 45.35 35.2 L44.95 35.95 Q44.6 36.35 43.95 36.35 43.4 36.35 42.9 35.95 L43.05 35.95 Q42.75 35.8 42.5 34.8 M30.0 11.15 L32.05 11.4 31.25 12.65 Q30.65 13.85 30.6 14.9 L28.7 14.4 28.25 14.3 28.2 13.75 Q28.2 12.65 29.05 11.9 L29.85 11.15 30.0 11.15 M26.15 11.4 L28.25 11.2 Q27.15 12.45 27.15 13.85 L27.15 14.0 27.25 14.15 24.35 14.3 Q24.2 12.8 26.15 11.4 M25.35 16.35 Q28.65 16.4 31.25 18.15 33.7 20.95 34.5 24.0 L34.7 26.0 Q35.1 31.35 31.0 37.45 L28.55 40.1 Q26.55 41.65 24.35 42.55 L22.45 43.15 Q15.9 44.9 6.85 41.2 3.85 39.3 2.3 36.55 L2.15 36.2 2.15 35.95 2.3 34.45 3.1 33.55 3.1 33.35 Q6.3 29.1 13.4 24.0 L15.7 22.45 25.25 16.35 25.35 16.35 M20.5 21.5 Q23.3 22.05 23.95 23.15 22.05 24.0 20.5 25.0 18.7 26.1 17.25 27.35 L20.5 26.2 Q23.45 25.25 26.55 24.7 28.95 26.2 31.25 28.3 26.5 28.15 21.55 30.0 20.85 31.8 20.5 33.6 19.6 36.95 19.6 39.95 17.0 38.95 14.6 37.45 L17.05 31.25 Q14.95 30.95 12.65 32.05 L9.85 34.45 Q7.85 33.75 6.3 32.45 7.55 31.05 8.55 30.2 13.85 25.0 20.0 21.35 L20.5 21.5 M38.3 14.3 L38.2 14.3 37.65 14.7 Q35.65 16.15 35.25 17.35 L35.05 17.15 34.95 17.05 34.1 16.55 Q33.95 15.25 34.85 14.15 L34.85 14.3 Q35.75 13.2 36.6 13.05 L37.55 13.75 37.65 13.85 38.3 14.3 M38.55 17.5 L38.4 17.5 Q36.8 17.5 36.0 18.85 L36.0 18.65 35.95 18.6 35.8 18.3 36.0 17.9 Q36.4 16.65 37.55 15.9 L38.55 17.5 M33.1 15.95 L31.5 15.25 Q31.55 14.15 32.1 13.05 32.5 12.2 33.1 11.75 L35.35 12.55 Q34.6 12.8 34.1 13.65 33.2 14.8 33.1 15.95 Z" fill="none" stroke="#000000" stroke-linecap="round" stroke-linejoin="round" stroke-opacity="0.2" stroke-width="1.5"/>
    </g>
    <g id="sprite56" transform="matrix(1.0, 0.0, 0.0, 1.0, 0.0, 0.0)">
      <use ffdec:characterId="59" height="53.75" transform="matrix(1.0, 0.0, 0.0, 1.0, 0.0, 0.0)" width="53.9" xlink:href="#shape2"/>
    </g>
    <g id="shape2" transform="matrix(1.0, 0.0, 0.0, 1.0, 0.0, 0.0)">
      <path d="M39.65 15.1 L39.45 15.1 39.2 15.1 38.4 15.3 39.05 16.35 Q39.5 15.75 40.1 15.5 L39.65 15.1 M40.6 1.35 L40.2 1.2 Q38.55 0.65 36.9 1.2 33.95 1.95 30.65 5.4 L30.0 10.05 Q30.2 10.05 30.25 10.2 L30.4 10.2 33.2 10.65 33.4 10.7 41.35 1.7 40.6 1.35 M50.85 6.45 L49.55 5.05 44.7 5.05 44.6 5.05 44.35 4.8 36.35 11.9 36.4 11.9 36.8 12.15 37.4 12.55 Q37.8 12.65 38.2 13.0 L39.2 13.85 39.35 14.0 50.85 6.45 M49.6 4.0 L49.9 4.2 Q50.85 4.8 51.6 5.8 L52.05 6.55 Q55.75 11.5 52.05 15.75 52.0 15.75 51.85 15.9 L49.35 16.55 Q51.05 21.6 47.35 25.4 L47.0 25.5 46.75 25.4 44.7 23.6 44.7 23.9 Q45.45 26.6 45.95 30.4 L46.0 31.1 48.75 34.85 Q49.35 37.55 48.95 40.1 L48.3 42.8 48.3 42.95 Q47.1 45.95 44.95 48.75 L44.85 48.85 Q44.65 49.05 44.6 49.4 L44.1 49.65 Q33.05 54.4 16.65 53.65 L16.4 53.65 Q8.55 52.05 3.75 48.05 2.3 46.8 1.45 45.25 0.5 43.2 0.15 40.9 -0.1 38.55 0.15 35.8 L0.4 34.1 0.55 33.7 1.55 32.2 Q4.9 27.7 12.25 22.35 L12.3 22.35 14.6 20.8 18.2 18.5 Q19.0 17.75 20.5 16.8 21.7 15.95 23.45 14.95 L23.45 14.8 Q22.8 12.55 25.95 10.55 L26.1 10.4 29.05 10.4 29.7 5.2 29.85 4.95 Q32.1 2.45 34.35 1.2 37.9 -0.75 40.95 0.5 L41.9 0.85 42.05 0.95 44.95 4.0 49.6 4.0 M39.5 17.35 L40.1 18.55 Q40.8 18.0 41.65 17.85 L40.8 16.25 39.5 17.35 M25.35 16.35 L25.25 16.35 15.7 22.45 13.4 24.0 Q6.3 29.1 3.1 33.35 L3.1 33.55 2.3 34.45 2.15 35.95 2.15 36.2 2.3 36.55 Q3.85 39.3 6.85 41.2 15.9 44.9 22.45 43.15 L24.35 42.55 Q26.55 41.65 28.55 40.1 L31.0 37.45 Q35.1 31.35 34.7 26.0 L34.5 24.0 Q33.7 20.95 31.25 18.15 28.65 16.4 25.35 16.35 M26.15 11.4 Q24.2 12.8 24.35 14.3 L27.25 14.15 27.15 14.0 27.15 13.85 Q27.15 12.45 28.25 11.2 L26.15 11.4 M30.0 11.15 L29.85 11.15 29.05 11.9 Q28.2 12.65 28.2 13.75 L28.25 14.3 28.7 14.4 30.6 14.9 Q30.65 13.85 31.25 12.65 L32.05 11.4 30.0 11.15 M42.5 34.8 Q42.75 35.8 43.05 35.95 L42.9 35.95 Q43.4 36.35 43.95 36.35 44.6 36.35 44.95 35.95 L45.35 35.2 Q44.6 34.45 43.15 34.45 42.65 34.45 42.5 34.8 M42.05 32.05 L42.1 32.45 42.25 33.7 43.15 33.55 45.35 33.95 45.25 32.95 Q44.2 31.8 42.9 31.8 42.25 31.8 42.05 32.05 M42.5 28.85 Q42.05 28.85 41.75 29.1 L42.0 31.05 42.9 30.8 Q44.1 30.8 45.1 31.5 L44.95 30.55 44.85 29.55 Q43.15 28.85 42.5 28.85 M39.85 29.1 L39.5 28.7 38.55 28.7 Q37.55 28.7 37.0 29.1 L36.9 30.0 Q36.9 30.6 37.25 31.25 37.65 31.7 38.3 31.7 38.8 31.75 39.45 31.25 L39.8 30.25 39.85 29.1 M40.45 24.6 L40.45 24.35 40.1 22.45 39.05 22.25 Q37.5 22.25 36.9 23.1 L36.8 23.1 36.9 24.0 37.0 24.6 38.65 24.4 40.45 24.6 M40.2 26.5 L40.25 25.65 38.65 25.4 Q37.25 25.4 37.1 25.75 L37.0 25.75 37.0 26.0 37.0 28.0 38.55 27.7 39.65 27.7 39.7 27.7 40.1 27.75 40.2 26.5 M44.35 26.5 Q43.4 25.75 42.35 25.75 41.65 25.75 41.4 26.0 L41.4 27.35 41.6 28.1 42.5 27.9 Q43.15 27.9 44.65 28.45 L44.35 26.5 M39.85 21.35 L39.5 20.1 39.05 18.65 38.3 18.55 Q36.9 18.55 36.4 20.1 L36.35 20.15 36.75 21.9 Q37.5 21.25 39.05 21.25 L39.1 21.25 39.85 21.35 M43.4 22.6 L42.4 22.35 Q41.75 22.35 41.2 22.75 L41.35 24.15 41.35 24.25 41.35 24.4 41.35 24.95 42.35 24.85 44.1 25.25 43.8 24.25 43.4 22.6 M40.45 19.5 L40.5 19.75 40.95 21.65 41.0 21.75 42.4 21.35 43.15 21.5 42.1 18.85 Q41.2 18.9 40.45 19.5 M20.5 21.5 Q23.3 22.05 23.95 23.15 22.05 24.0 20.5 25.0 18.7 26.1 17.25 27.35 L20.5 26.2 Q23.45 25.25 26.55 24.7 28.95 26.2 31.25 28.3 26.5 28.15 21.55 30.0 20.85 31.8 20.5 33.6 19.6 36.95 19.6 39.95 17.0 38.95 14.6 37.45 L17.05 31.25 Q14.95 30.95 12.65 32.05 L9.85 34.45 Q7.85 33.75 6.3 32.45 7.55 31.05 8.55 30.2 13.85 25.0 20.0 21.35 L20.5 21.5 M33.1 15.95 Q33.2 14.8 34.1 13.65 34.6 12.8 35.35 12.55 L33.1 11.75 Q32.5 12.2 32.1 13.05 31.55 14.15 31.5 15.25 L33.1 15.95 M38.55 17.5 L37.55 15.9 Q36.4 16.65 36.0 17.9 L35.8 18.3 35.95 18.6 36.0 18.65 36.0 18.85 Q36.8 17.5 38.4 17.5 L38.55 17.5 M38.3 14.3 L37.65 13.85 37.55 13.75 36.6 13.05 Q35.75 13.2 34.85 14.3 L34.85 14.15 Q33.95 15.25 34.1 16.55 L34.95 17.05 35.05 17.15 35.25 17.35 Q35.65 16.15 37.65 14.7 L38.2 14.3 38.3 14.3" fill="#000000" fill-rule="evenodd" stroke="none"/>
    </g>
  </defs>
</svg>
