<?xml version="1.0" encoding="UTF-8" standalone="no"?>
<svg xmlns:ffdec="https://www.free-decompiler.com/flash" xmlns:xlink="http://www.w3.org/1999/xlink" ffdec:objectType="frame" height="56.0px" width="56.0px" xmlns="http://www.w3.org/2000/svg">
  <g transform="matrix(1.0, 0.0, 0.0, 1.0, 0.0, 0.0)">
    <use ffdec:characterId="58" ffdec:characterName="212_fla.Symbole357_1" height="56.0" id="back" transform="matrix(1.0, 0.0, 0.0, 1.0, 0.0, 0.0)" width="56.0" xlink:href="#sprite0"/>
    <use ffdec:characterId="60" height="37.2" id="back" transform="matrix(1.0, 0.0, 0.0, 1.0, 0.35, 9.25)" width="55.35" xlink:href="#sprite57"/>
    <use ffdec:characterId="62" height="35.7" id="up" transform="matrix(1.0, 0.0, 0.0, 1.0, 1.15, 10.0)" width="53.85" xlink:href="#sprite58"/>
  </g>
  <defs>
    <g id="sprite0" transform="matrix(1.0, 0.0, 0.0, 1.0, 0.0, 0.0)">
      <use ffdec:characterId="57" ffdec:characterName="212_fla.Symbole354_2" height="56.0" id="back" transform="matrix(1.0, 0.0, 0.0, 1.0, 0.0, 0.0)" width="56.0" xlink:href="#sprite1"/>
    </g>
    <g id="sprite1" transform="matrix(1.0, 0.0, 0.0, 1.0, 0.0, 0.0)">
      <use ffdec:characterId="56" ffdec:characterName="212_fla.Symbole351_3" height="56.0" id="back" transform="matrix(1.0, 0.0, 0.0, 1.0, 0.0, 0.0)" width="56.0" xlink:href="#sprite2"/>
    </g>
    <g id="sprite2" transform="matrix(1.0, 0.0, 0.0, 1.0, 0.0, 0.0)">
      <use ffdec:characterId="55" ffdec:characterName="212_fla.Symbole348_4" height="56.0" id="back" transform="matrix(1.0, 0.0, 0.0, 1.0, 0.0, 0.0)" width="56.0" xlink:href="#sprite3"/>
    </g>
    <g id="sprite3" transform="matrix(1.0, 0.0, 0.0, 1.0, 0.0, 0.0)">
      <use ffdec:characterId="54" ffdec:characterName="212_fla.Symbole345_5" height="56.0" id="back" transform="matrix(1.0, 0.0, 0.0, 1.0, 0.0, 0.0)" width="56.0" xlink:href="#sprite4"/>
    </g>
    <g id="sprite4" transform="matrix(1.0, 0.0, 0.0, 1.0, 0.0, 0.0)">
      <use ffdec:characterId="53" ffdec:characterName="212_fla.Symbole342_6" height="56.0" id="back" transform="matrix(1.0, 0.0, 0.0, 1.0, 0.0, 0.0)" width="56.0" xlink:href="#sprite5"/>
    </g>
    <g id="sprite5" transform="matrix(1.0, 0.0, 0.0, 1.0, 0.0, 0.0)">
      <use ffdec:characterId="52" ffdec:characterName="212_fla.Symbole339_7" height="56.0" id="back" transform="matrix(1.0, 0.0, 0.0, 1.0, 0.0, 0.0)" width="56.0" xlink:href="#sprite6"/>
    </g>
    <g id="sprite6" transform="matrix(1.0, 0.0, 0.0, 1.0, 0.0, 0.0)">
      <use ffdec:characterId="51" ffdec:characterName="212_fla.Symbole336_8" height="56.0" id="back" transform="matrix(1.0, 0.0, 0.0, 1.0, 0.0, 0.0)" width="56.0" xlink:href="#sprite7"/>
    </g>
    <g id="sprite7" transform="matrix(1.0, 0.0, 0.0, 1.0, 0.0, 0.0)">
      <use ffdec:characterId="50" ffdec:characterName="212_fla.Symbole333_9" height="56.0" id="back" transform="matrix(1.0, 0.0, 0.0, 1.0, 0.0, 0.0)" width="56.0" xlink:href="#sprite8"/>
    </g>
    <g id="sprite8" transform="matrix(1.0, 0.0, 0.0, 1.0, 0.0, 0.0)">
      <use ffdec:characterId="49" ffdec:characterName="212_fla.Symbole330_10" height="56.0" id="back" transform="matrix(1.0, 0.0, 0.0, 1.0, 0.0, 0.0)" width="56.0" xlink:href="#sprite9"/>
    </g>
    <g id="sprite9" transform="matrix(1.0, 0.0, 0.0, 1.0, 0.0, 0.0)">
      <use ffdec:characterId="48" ffdec:characterName="212_fla.Symbole327_11" height="56.0" id="back" transform="matrix(1.0, 0.0, 0.0, 1.0, 0.0, 0.0)" width="56.0" xlink:href="#sprite10"/>
    </g>
    <g id="sprite10" transform="matrix(1.0, 0.0, 0.0, 1.0, 0.0, 0.0)">
      <use ffdec:characterId="47" ffdec:characterName="212_fla.Symbole324_12" height="56.0" id="back" transform="matrix(1.0, 0.0, 0.0, 1.0, 0.0, 0.0)" width="56.0" xlink:href="#sprite11"/>
    </g>
    <g id="sprite11" transform="matrix(1.0, 0.0, 0.0, 1.0, 0.0, 0.0)">
      <use ffdec:characterId="46" ffdec:characterName="212_fla.Symbole321_13" height="56.0" id="back" transform="matrix(1.0, 0.0, 0.0, 1.0, 0.0, 0.0)" width="56.0" xlink:href="#sprite12"/>
    </g>
    <g id="sprite12" transform="matrix(1.0, 0.0, 0.0, 1.0, 0.0, 0.0)">
      <use ffdec:characterId="45" ffdec:characterName="212_fla.Symbole318_14" height="56.0" id="back" transform="matrix(1.0, 0.0, 0.0, 1.0, 0.0, 0.0)" width="56.0" xlink:href="#sprite13"/>
    </g>
    <g id="sprite13" transform="matrix(1.0, 0.0, 0.0, 1.0, 0.0, 0.0)">
      <use ffdec:characterId="44" ffdec:characterName="212_fla.Symbole315_15" height="56.0" id="back" transform="matrix(1.0, 0.0, 0.0, 1.0, 0.0, 0.0)" width="56.0" xlink:href="#sprite14"/>
    </g>
    <g id="sprite14" transform="matrix(1.0, 0.0, 0.0, 1.0, 0.0, 0.0)">
      <use ffdec:characterId="43" ffdec:characterName="212_fla.Symbole312_16" height="56.0" id="back" transform="matrix(1.0, 0.0, 0.0, 1.0, 0.0, 0.0)" width="56.0" xlink:href="#sprite15"/>
    </g>
    <g id="sprite15" transform="matrix(1.0, 0.0, 0.0, 1.0, 0.0, 0.0)">
      <use ffdec:characterId="42" ffdec:characterName="212_fla.Symbole309_17" height="56.0" id="back" transform="matrix(1.0, 0.0, 0.0, 1.0, 0.0, 0.0)" width="56.0" xlink:href="#sprite16"/>
    </g>
    <g id="sprite16" transform="matrix(1.0, 0.0, 0.0, 1.0, 0.0, 0.0)">
      <use ffdec:characterId="41" ffdec:characterName="212_fla.Symbole306_18" height="56.0" id="back" transform="matrix(1.0, 0.0, 0.0, 1.0, 0.0, 0.0)" width="56.0" xlink:href="#sprite17"/>
    </g>
    <g id="sprite17" transform="matrix(1.0, 0.0, 0.0, 1.0, 0.0, 0.0)">
      <use ffdec:characterId="40" ffdec:characterName="212_fla.Symbole303_19" height="56.0" id="back" transform="matrix(1.0, 0.0, 0.0, 1.0, 0.0, 0.0)" width="56.0" xlink:href="#sprite18"/>
    </g>
    <g id="sprite18" transform="matrix(1.0, 0.0, 0.0, 1.0, 0.0, 0.0)">
      <use ffdec:characterId="39" ffdec:characterName="212_fla.Symbole300_20" height="56.0" id="back" transform="matrix(1.0, 0.0, 0.0, 1.0, 0.0, 0.0)" width="56.0" xlink:href="#sprite19"/>
    </g>
    <g id="sprite19" transform="matrix(1.0, 0.0, 0.0, 1.0, 0.0, 0.0)">
      <use ffdec:characterId="38" ffdec:characterName="212_fla.Symbole297_21" height="56.0" id="back" transform="matrix(1.0, 0.0, 0.0, 1.0, 0.0, 0.0)" width="56.0" xlink:href="#sprite20"/>
    </g>
    <g id="sprite20" transform="matrix(1.0, 0.0, 0.0, 1.0, 0.0, 0.0)">
      <use ffdec:characterId="37" ffdec:characterName="212_fla.Symbole294_22" height="56.0" id="back" transform="matrix(1.0, 0.0, 0.0, 1.0, 0.0, 0.0)" width="56.0" xlink:href="#sprite21"/>
    </g>
    <g id="sprite21" transform="matrix(1.0, 0.0, 0.0, 1.0, 0.0, 0.0)">
      <use ffdec:characterId="36" ffdec:characterName="212_fla.Symbole291_23" height="56.0" id="back" transform="matrix(1.0, 0.0, 0.0, 1.0, 0.0, 0.0)" width="56.0" xlink:href="#sprite22"/>
    </g>
    <g id="sprite22" transform="matrix(1.0, 0.0, 0.0, 1.0, 0.0, 0.0)">
      <use ffdec:characterId="35" ffdec:characterName="212_fla.Symbole288_24" height="56.0" id="back" transform="matrix(1.0, 0.0, 0.0, 1.0, 0.0, 0.0)" width="56.0" xlink:href="#sprite23"/>
    </g>
    <g id="sprite23" transform="matrix(1.0, 0.0, 0.0, 1.0, 0.0, 0.0)">
      <use ffdec:characterId="34" ffdec:characterName="212_fla.Symbole285_25" height="56.0" id="back" transform="matrix(1.0, 0.0, 0.0, 1.0, 0.0, 0.0)" width="56.0" xlink:href="#sprite24"/>
    </g>
    <g id="sprite24" transform="matrix(1.0, 0.0, 0.0, 1.0, 0.0, 0.0)">
      <use ffdec:characterId="33" ffdec:characterName="212_fla.Symbole282_26" height="56.0" id="back" transform="matrix(1.0, 0.0, 0.0, 1.0, 0.0, 0.0)" width="56.0" xlink:href="#sprite25"/>
    </g>
    <g id="sprite25" transform="matrix(1.0, 0.0, 0.0, 1.0, 0.0, 0.0)">
      <use ffdec:characterId="32" ffdec:characterName="212_fla.Symbole279_27" height="56.0" id="back" transform="matrix(1.0, 0.0, 0.0, 1.0, 0.0, 0.0)" width="56.0" xlink:href="#sprite26"/>
    </g>
    <g id="sprite26" transform="matrix(1.0, 0.0, 0.0, 1.0, 0.0, 0.0)">
      <use ffdec:characterId="31" ffdec:characterName="212_fla.Symbole276_28" height="56.0" id="back" transform="matrix(1.0, 0.0, 0.0, 1.0, 0.0, 0.0)" width="56.0" xlink:href="#sprite27"/>
    </g>
    <g id="sprite27" transform="matrix(1.0, 0.0, 0.0, 1.0, 0.0, 0.0)">
      <use ffdec:characterId="30" ffdec:characterName="212_fla.Symbole273_29" height="56.0" id="back" transform="matrix(1.0, 0.0, 0.0, 1.0, 0.0, 0.0)" width="56.0" xlink:href="#sprite28"/>
    </g>
    <g id="sprite28" transform="matrix(1.0, 0.0, 0.0, 1.0, 0.0, 0.0)">
      <use ffdec:characterId="29" ffdec:characterName="212_fla.Symbole270_30" height="56.0" id="back" transform="matrix(1.0, 0.0, 0.0, 1.0, 0.0, 0.0)" width="56.0" xlink:href="#sprite29"/>
    </g>
    <g id="sprite29" transform="matrix(1.0, 0.0, 0.0, 1.0, 0.0, 0.0)">
      <use ffdec:characterId="28" ffdec:characterName="212_fla.Symbole267_31" height="56.0" id="back" transform="matrix(1.0, 0.0, 0.0, 1.0, 0.0, 0.0)" width="56.0" xlink:href="#sprite30"/>
    </g>
    <g id="sprite30" transform="matrix(1.0, 0.0, 0.0, 1.0, 0.0, 0.0)">
      <use ffdec:characterId="27" ffdec:characterName="212_fla.Symbole264_32" height="56.0" id="back" transform="matrix(1.0, 0.0, 0.0, 1.0, 0.0, 0.0)" width="56.0" xlink:href="#sprite31"/>
    </g>
    <g id="sprite31" transform="matrix(1.0, 0.0, 0.0, 1.0, 0.0, 0.0)">
      <use ffdec:characterId="26" ffdec:characterName="212_fla.Symbole261_33" height="56.0" id="back" transform="matrix(1.0, 0.0, 0.0, 1.0, 0.0, 0.0)" width="56.0" xlink:href="#sprite32"/>
    </g>
    <g id="sprite32" transform="matrix(1.0, 0.0, 0.0, 1.0, 0.0, 0.0)">
      <use ffdec:characterId="25" ffdec:characterName="212_fla.Symbole258_34" height="56.0" id="back" transform="matrix(1.0, 0.0, 0.0, 1.0, 0.0, 0.0)" width="56.0" xlink:href="#sprite33"/>
    </g>
    <g id="sprite33" transform="matrix(1.0, 0.0, 0.0, 1.0, 0.0, 0.0)">
      <use ffdec:characterId="24" ffdec:characterName="212_fla.Symbole255_35" height="56.0" id="back" transform="matrix(1.0, 0.0, 0.0, 1.0, 0.0, 0.0)" width="56.0" xlink:href="#sprite34"/>
    </g>
    <g id="sprite34" transform="matrix(1.0, 0.0, 0.0, 1.0, 0.0, 0.0)">
      <use ffdec:characterId="23" ffdec:characterName="212_fla.Symbole252_36" height="56.0" id="back" transform="matrix(1.0, 0.0, 0.0, 1.0, 0.0, 0.0)" width="56.0" xlink:href="#sprite35"/>
    </g>
    <g id="sprite35" transform="matrix(1.0, 0.0, 0.0, 1.0, 0.0, 0.0)">
      <use ffdec:characterId="22" ffdec:characterName="212_fla.Symbole249_37" height="56.0" id="back" transform="matrix(1.0, 0.0, 0.0, 1.0, 0.0, 0.0)" width="56.0" xlink:href="#sprite36"/>
    </g>
    <g id="sprite36" transform="matrix(1.0, 0.0, 0.0, 1.0, 0.0, 0.0)">
      <use ffdec:characterId="21" ffdec:characterName="212_fla.Symbole246_38" height="56.0" id="back" transform="matrix(1.0, 0.0, 0.0, 1.0, 0.0, 0.0)" width="56.0" xlink:href="#sprite37"/>
    </g>
    <g id="sprite37" transform="matrix(1.0, 0.0, 0.0, 1.0, 0.0, 0.0)">
      <use ffdec:characterId="20" ffdec:characterName="212_fla.Symbole243_39" height="56.0" id="back" transform="matrix(1.0, 0.0, 0.0, 1.0, 0.0, 0.0)" width="56.0" xlink:href="#sprite38"/>
    </g>
    <g id="sprite38" transform="matrix(1.0, 0.0, 0.0, 1.0, 0.0, 0.0)">
      <use ffdec:characterId="19" ffdec:characterName="212_fla.Symbole240_40" height="56.0" id="back" transform="matrix(1.0, 0.0, 0.0, 1.0, 0.0, 0.0)" width="56.0" xlink:href="#sprite39"/>
    </g>
    <g id="sprite39" transform="matrix(1.0, 0.0, 0.0, 1.0, 0.0, 0.0)">
      <use ffdec:characterId="18" ffdec:characterName="212_fla.Symbole237_41" height="56.0" id="back" transform="matrix(1.0, 0.0, 0.0, 1.0, 0.0, 0.0)" width="56.0" xlink:href="#sprite40"/>
    </g>
    <g id="sprite40" transform="matrix(1.0, 0.0, 0.0, 1.0, 0.0, 0.0)">
      <use ffdec:characterId="17" ffdec:characterName="212_fla.Symbole234_42" height="56.0" id="back" transform="matrix(1.0, 0.0, 0.0, 1.0, 0.0, 0.0)" width="56.0" xlink:href="#sprite41"/>
    </g>
    <g id="sprite41" transform="matrix(1.0, 0.0, 0.0, 1.0, 0.0, 0.0)">
      <use ffdec:characterId="16" ffdec:characterName="212_fla.Symbole231_43" height="56.0" id="back" transform="matrix(1.0, 0.0, 0.0, 1.0, 0.0, 0.0)" width="56.0" xlink:href="#sprite42"/>
    </g>
    <g id="sprite42" transform="matrix(1.0, 0.0, 0.0, 1.0, 0.0, 0.0)">
      <use ffdec:characterId="15" ffdec:characterName="212_fla.Symbole228_44" height="56.0" id="back" transform="matrix(1.0, 0.0, 0.0, 1.0, 0.0, 0.0)" width="56.0" xlink:href="#sprite43"/>
    </g>
    <g id="sprite43" transform="matrix(1.0, 0.0, 0.0, 1.0, 0.0, 0.0)">
      <use ffdec:characterId="14" ffdec:characterName="212_fla.Symbole225_45" height="56.0" id="back" transform="matrix(1.0, 0.0, 0.0, 1.0, 0.0, 0.0)" width="56.0" xlink:href="#sprite44"/>
    </g>
    <g id="sprite44" transform="matrix(1.0, 0.0, 0.0, 1.0, 0.0, 0.0)">
      <use ffdec:characterId="13" ffdec:characterName="212_fla.Symbole222_46" height="56.0" id="back" transform="matrix(1.0, 0.0, 0.0, 1.0, 0.0, 0.0)" width="56.0" xlink:href="#sprite45"/>
    </g>
    <g id="sprite45" transform="matrix(1.0, 0.0, 0.0, 1.0, 0.0, 0.0)">
      <use ffdec:characterId="12" ffdec:characterName="212_fla.Symbole219_47" height="56.0" id="back" transform="matrix(1.0, 0.0, 0.0, 1.0, 0.0, 0.0)" width="56.0" xlink:href="#sprite46"/>
    </g>
    <g id="sprite46" transform="matrix(1.0, 0.0, 0.0, 1.0, 0.0, 0.0)">
      <use ffdec:characterId="11" ffdec:characterName="212_fla.Symbole216_48" height="56.0" id="back" transform="matrix(1.0, 0.0, 0.0, 1.0, 0.0, 0.0)" width="56.0" xlink:href="#sprite47"/>
    </g>
    <g id="sprite47" transform="matrix(1.0, 0.0, 0.0, 1.0, 0.0, 0.0)">
      <use ffdec:characterId="10" ffdec:characterName="212_fla.Symbole213_49" height="56.0" id="back" transform="matrix(1.0, 0.0, 0.0, 1.0, 0.0, 0.0)" width="56.0" xlink:href="#sprite48"/>
    </g>
    <g id="sprite48" transform="matrix(1.0, 0.0, 0.0, 1.0, 0.0, 0.0)">
      <use ffdec:characterId="9" ffdec:characterName="212_fla.Symbole210_50" height="56.0" id="back" transform="matrix(1.0, 0.0, 0.0, 1.0, 0.0, 0.0)" width="56.0" xlink:href="#sprite49"/>
    </g>
    <g id="sprite49" transform="matrix(1.0, 0.0, 0.0, 1.0, 0.0, 0.0)">
      <use ffdec:characterId="8" ffdec:characterName="212_fla.Symbole207_51" height="56.0" id="back" transform="matrix(1.0, 0.0, 0.0, 1.0, 0.0, 0.0)" width="56.0" xlink:href="#sprite50"/>
    </g>
    <g id="sprite50" transform="matrix(1.0, 0.0, 0.0, 1.0, 0.0, 0.0)">
      <use ffdec:characterId="7" ffdec:characterName="212_fla.Symbole204_52" height="56.0" id="back" transform="matrix(1.0, 0.0, 0.0, 1.0, 0.0, 0.0)" width="56.0" xlink:href="#sprite51"/>
    </g>
    <g id="sprite51" transform="matrix(1.0, 0.0, 0.0, 1.0, 0.0, 0.0)">
      <use ffdec:characterId="6" ffdec:characterName="212_fla.Symbole201_53" height="56.0" id="back" transform="matrix(1.0, 0.0, 0.0, 1.0, 0.0, 0.0)" width="56.0" xlink:href="#sprite52"/>
    </g>
    <g id="sprite52" transform="matrix(1.0, 0.0, 0.0, 1.0, 0.0, 0.0)">
      <use ffdec:characterId="5" ffdec:characterName="212_fla.Symbole198_54" height="56.0" id="back" transform="matrix(1.0, 0.0, 0.0, 1.0, 0.0, 0.0)" width="56.0" xlink:href="#sprite53"/>
    </g>
    <g id="sprite53" transform="matrix(1.0, 0.0, 0.0, 1.0, 0.0, 0.0)">
      <use ffdec:characterId="4" ffdec:characterName="212_fla.Symbole195_55" height="56.0" id="back" transform="matrix(1.0, 0.0, 0.0, 1.0, 0.0, 0.0)" width="56.0" xlink:href="#sprite54"/>
    </g>
    <g id="sprite54" transform="matrix(1.0, 0.0, 0.0, 1.0, 0.0, 0.0)">
      <use ffdec:characterId="3" ffdec:characterName="212_fla.Symbole192_56" height="56.0" id="back" transform="matrix(1.0, 0.0, 0.0, 1.0, 0.0, 0.0)" width="56.0" xlink:href="#sprite55"/>
    </g>
    <g id="sprite55" transform="matrix(1.0, 0.0, 0.0, 1.0, 0.0, 0.0)">
      <use ffdec:characterId="2" height="56.0" id="back" transform="matrix(1.0, 0.0, 0.0, 1.0, 0.0, 0.0)" width="56.0" xlink:href="#sprite56"/>
    </g>
    <g id="sprite56" transform="matrix(1.0, 0.0, 0.0, 1.0, 0.0, 0.0)">
      <use ffdec:characterId="1" height="56.0" transform="matrix(1.0, 0.0, 0.0, 1.0, 0.0, 0.0)" width="56.0" xlink:href="#shape0"/>
    </g>
    <g id="shape0" transform="matrix(1.0, 0.0, 0.0, 1.0, 0.0, 0.0)">
      <path d="M56.0 56.0 L0.0 56.0 0.0 0.0 56.0 0.0 56.0 56.0" fill="#010101" fill-opacity="0.0" fill-rule="evenodd" stroke="none"/>
    </g>
    <g id="sprite57" transform="matrix(1.0, 0.0, 0.0, 1.0, 0.75, 0.75)">
      <use ffdec:characterId="59" height="37.2" transform="matrix(1.0, 0.0, 0.0, 1.0, -0.75, -0.75)" width="55.35" xlink:href="#shape1"/>
    </g>
    <g id="shape1" transform="matrix(1.0, 0.0, 0.0, 1.0, 0.75, 0.75)">
      <path d="M53.85 9.05 L53.8 9.3 51.4 13.2 Q48.25 17.25 44.6 18.15 L44.35 18.25 44.6 18.25 Q47.85 17.7 51.3 15.6 L48.25 18.9 Q44.5 21.9 41.0 21.65 L42.1 21.75 Q43.95 22.0 45.7 21.7 L43.6 23.4 Q40.9 24.9 37.7 23.9 L38.8 24.45 Q40.1 25.35 40.65 26.85 L39.45 27.0 Q37.85 26.85 35.65 25.45 L36.55 26.65 Q37.4 28.35 37.05 30.6 L35.9 29.85 Q34.6 28.65 33.95 26.35 L34.0 26.35 Q34.6 23.9 34.3 22.2 L34.3 22.1 34.45 22.1 34.85 22.1 35.8 22.1 Q37.45 21.9 38.8 20.65 L39.55 19.85 Q40.65 18.4 40.65 16.25 L40.45 14.85 Q45.3 14.15 50.05 11.55 L53.85 9.05 M40.3 0.8 Q40.15 2.4 38.35 5.85 L38.1 6.4 Q35.0 5.45 34.35 2.95 L35.05 2.3 Q37.25 0.75 38.9 0.25 L40.0 0.05 Q40.3 0.25 40.3 0.8 M21.45 5.45 Q20.0 5.45 18.9 6.1 18.3 6.4 17.85 6.8 L17.85 6.9 Q16.25 8.55 15.15 7.8 15.95 9.45 17.6 9.35 L17.75 9.35 Q19.25 7.95 21.35 7.95 23.0 7.95 24.35 8.85 L25.4 9.75 Q26.2 10.7 26.65 11.85 L26.95 12.9 27.0 13.05 27.3 12.0 Q27.7 10.8 28.6 9.75 L29.65 8.85 Q31.0 7.95 32.65 7.95 34.7 7.95 36.25 9.35 37.95 9.5 38.8 7.8 37.75 8.55 36.2 6.9 L36.2 6.8 36.1 6.8 35.15 6.1 Q34.0 5.45 32.6 5.45 31.15 5.45 30.05 6.1 29.3 6.55 28.55 7.3 27.35 8.55 27.0 10.2 26.65 8.55 25.45 7.3 24.75 6.55 23.95 6.1 22.75 5.45 21.45 5.45 M23.0 9.9 L23.0 10.15 Q24.25 10.25 25.15 11.25 26.3 12.4 26.3 14.0 26.3 15.6 25.15 16.8 24.35 17.6 23.15 17.85 L23.15 18.1 22.9 18.95 22.4 19.3 Q22.2 19.3 22.0 18.95 L21.8 18.1 21.8 17.9 Q20.75 17.7 20.1 17.1 20.0 17.1 19.95 17.2 L19.15 17.7 18.65 17.6 Q18.45 17.4 18.5 17.05 L19.05 16.25 19.15 16.2 Q18.75 15.5 18.6 14.7 L18.45 14.7 17.6 14.55 17.25 14.15 Q17.25 13.85 17.6 13.65 L18.45 13.45 18.6 13.45 Q18.65 12.55 19.25 11.85 L19.05 11.7 18.5 10.9 Q18.45 10.55 18.65 10.35 L19.15 10.25 Q19.55 10.4 19.95 10.8 L20.1 10.9 Q20.75 10.25 21.65 10.15 L21.65 9.9 21.85 9.05 22.25 8.7 Q22.55 8.7 22.75 9.05 L23.0 9.9 M21.35 12.65 Q21.95 12.1 22.65 12.1 L23.05 12.15 22.65 12.4 Q22.4 12.6 22.4 13.05 L22.65 13.6 23.25 13.85 23.9 13.6 24.2 13.05 24.5 13.95 Q24.5 14.7 23.9 15.2 23.4 15.75 22.65 15.75 21.95 15.75 21.35 15.2 20.85 14.7 20.85 13.95 20.85 13.2 21.35 12.65 M20.3 11.9 Q21.15 11.05 22.4 11.05 23.7 11.05 24.5 11.9 25.4 12.75 25.4 14.0 25.4 15.2 24.5 16.1 23.7 16.95 22.4 16.95 21.15 16.95 20.3 16.1 19.45 15.2 19.45 14.0 19.45 12.75 20.3 11.9 M27.85 14.4 Q27.85 16.0 29.0 17.1 29.75 17.9 30.85 18.15 L30.8 18.45 31.0 19.3 Q31.25 19.65 31.55 19.65 L32.0 19.3 32.15 18.45 32.15 18.25 Q33.2 18.1 34.0 17.55 L34.7 18.0 35.2 17.9 Q35.45 17.7 35.35 17.3 L34.9 16.65 35.55 15.05 36.35 14.95 36.7 14.5 36.35 14.0 35.65 13.8 Q35.5 12.8 34.85 12.0 L35.35 11.25 Q35.45 10.9 35.2 10.7 L34.7 10.65 33.95 11.1 Q33.25 10.55 32.3 10.5 L32.3 10.2 32.05 9.35 31.7 9.0 31.15 9.35 30.95 10.2 31.0 10.5 Q29.8 10.7 29.0 11.6 27.85 12.75 27.85 14.4 M30.65 12.95 Q31.15 12.4 31.9 12.4 L32.3 12.45 31.9 12.65 31.7 13.3 31.9 13.85 Q32.15 14.15 32.5 14.15 L33.2 13.85 33.4 13.3 33.7 14.25 Q33.7 15.0 33.2 15.5 32.65 16.05 31.9 16.05 31.15 16.05 30.65 15.5 30.1 15.0 30.1 14.25 30.1 13.45 30.65 12.95 M31.75 11.4 Q33.05 11.4 33.85 12.25 34.7 13.1 34.7 14.4 34.7 15.6 33.85 16.5 33.05 17.3 31.75 17.3 30.5 17.3 29.6 16.5 28.75 15.6 28.75 14.4 28.75 13.1 29.6 12.25 30.5 11.4 31.75 11.4 M37.9 10.95 Q39.55 13.1 39.55 15.6 39.55 18.25 37.9 19.85 36.25 21.45 34.15 21.3 L33.65 21.3 33.55 21.3 Q33.95 22.95 33.3 25.2 L32.05 28.8 30.95 31.1 30.85 31.15 30.8 31.2 30.75 31.35 30.7 31.5 30.65 31.65 30.55 31.65 30.55 31.8 30.4 31.85 29.95 32.3 30.35 32.5 30.65 33.15 30.65 34.75 30.35 35.4 29.65 35.7 Q29.35 35.7 29.05 35.4 28.75 35.1 28.75 34.75 L28.75 33.3 28.35 33.5 28.0 33.55 28.0 34.7 27.7 35.3 27.05 35.6 Q26.75 35.6 26.45 35.3 26.15 35.1 26.15 34.7 L26.15 33.55 25.45 33.35 25.45 34.75 25.15 35.4 24.5 35.7 Q24.1 35.7 23.9 35.4 L23.6 34.75 23.6 33.15 Q23.6 32.75 23.9 32.5 L24.1 32.35 23.2 31.1 Q21.65 28.55 20.75 25.2 20.25 22.9 20.5 21.2 L20.5 21.15 20.45 21.15 20.0 21.2 19.1 21.2 Q17.45 21.0 16.2 19.8 L15.5 19.05 Q14.45 17.55 14.45 15.6 14.45 12.95 16.2 10.9 L16.85 10.2 Q15.2 12.3 15.2 14.85 15.2 17.4 16.9 19.05 18.5 20.55 20.7 20.4 L21.15 20.4 Q23.0 20.25 24.5 18.95 L25.1 18.25 25.6 19.3 25.6 19.35 Q26.2 20.5 27.0 20.85 27.8 20.5 28.4 19.35 L28.5 19.3 28.9 18.3 29.3 18.6 Q30.8 20.25 32.95 20.5 L33.4 20.5 Q35.5 20.55 37.05 19.2 L37.15 19.1 Q38.9 17.45 38.9 14.85 38.9 12.55 37.45 10.5 L37.9 10.95 M19.7 2.3 Q17.55 0.75 15.9 0.25 L14.7 0.05 Q14.45 0.25 14.45 0.8 14.55 2.4 16.35 5.85 L16.65 6.4 Q19.7 5.45 20.45 2.95 L19.7 2.3 M2.5 12.9 Q5.65 16.95 9.3 17.9 L9.6 18.0 9.3 18.0 Q6.0 17.4 2.55 15.35 L5.65 18.6 Q9.4 21.6 13.05 21.4 L11.85 21.5 Q9.9 21.7 8.2 21.45 L10.25 23.1 Q12.95 24.6 16.2 23.6 L15.05 24.15 Q13.8 25.1 13.2 26.55 L14.45 26.7 Q16.05 26.55 18.2 25.15 L17.3 26.35 Q16.5 28.05 16.85 30.3 L18.0 29.55 Q19.25 28.35 19.95 26.1 L19.85 26.1 Q19.25 23.6 19.55 21.9 L19.55 21.85 19.45 21.85 19.05 21.85 18.1 21.85 Q16.4 21.6 15.05 20.4 L14.3 19.6 Q13.2 18.1 13.2 16.0 L13.4 14.55 Q8.55 13.85 3.85 11.25 L0.0 8.8 0.1 9.0 Q1.15 11.1 2.5 12.9 Z" fill="none" stroke="#000000" stroke-linecap="round" stroke-linejoin="round" stroke-opacity="0.2" stroke-width="1.5"/>
    </g>
    <g id="sprite58" transform="matrix(1.0, 0.0, 0.0, 1.0, 0.0, 0.0)">
      <use ffdec:characterId="61" height="35.7" transform="matrix(1.0, 0.0, 0.0, 1.0, 0.0, 0.0)" width="53.85" xlink:href="#shape2"/>
    </g>
    <g id="shape2" transform="matrix(1.0, 0.0, 0.0, 1.0, 0.0, 0.0)">
      <path d="M40.25 0.8 Q40.1 2.45 38.35 5.85 L38.05 6.4 Q34.95 5.5 34.35 2.95 L35.05 2.3 Q37.2 0.75 38.85 0.25 39.55 -0.1 40.0 0.05 L40.25 0.8 M53.85 9.05 L53.75 9.3 Q52.7 11.4 51.35 13.15 48.2 17.25 44.55 18.2 L44.35 18.25 44.55 18.25 Q47.85 17.7 51.3 15.65 L48.2 18.9 Q44.45 21.95 40.9 21.7 L42.05 21.8 45.65 21.7 43.6 23.4 Q40.9 24.9 37.65 23.9 L38.8 24.45 Q40.05 25.4 40.6 26.85 L39.4 27.0 Q37.8 26.85 35.6 25.45 L36.5 26.65 Q37.35 28.35 37.0 30.6 36.5 30.45 35.9 29.8 34.6 28.6 33.9 26.35 L33.95 26.35 Q34.6 23.9 34.25 22.2 L34.25 22.15 34.4 22.15 34.8 22.15 35.75 22.15 Q37.45 21.9 38.8 20.65 L39.55 19.85 Q40.6 18.4 40.6 16.25 L40.4 14.85 Q45.3 14.15 50.0 11.55 L53.85 9.05 M21.4 5.5 Q22.75 5.5 23.95 6.1 24.7 6.55 25.4 7.3 26.6 8.6 27.0 10.2 27.35 8.6 28.55 7.3 L30.0 6.1 Q31.15 5.5 32.55 5.5 33.95 5.5 35.1 6.1 L36.1 6.8 36.15 6.8 36.15 6.9 Q37.7 8.6 38.8 7.8 37.95 9.5 36.25 9.35 34.7 7.95 32.65 7.95 31.0 7.95 29.65 8.85 L28.6 9.8 Q27.7 10.75 27.25 11.95 27.05 12.45 27.0 13.05 L26.9 12.9 26.6 11.85 Q26.2 10.7 25.35 9.8 L24.3 8.85 Q22.95 7.95 21.3 7.95 19.2 7.95 17.7 9.35 L17.6 9.35 Q15.95 9.45 15.1 7.8 16.25 8.6 17.8 6.9 L17.8 6.8 18.85 6.1 Q20.0 5.5 21.4 5.5 M22.25 8.7 Q22.5 8.7 22.75 9.05 L22.95 9.9 22.95 10.15 Q24.2 10.25 25.15 11.25 26.25 12.4 26.25 14.0 26.25 15.65 25.15 16.75 24.3 17.6 23.1 17.85 L23.1 18.1 22.9 18.95 22.4 19.3 21.95 18.95 21.75 18.1 21.75 17.9 Q20.75 17.7 20.05 17.1 L19.9 17.2 19.15 17.7 18.65 17.6 Q18.4 17.4 18.5 17.05 L19.0 16.25 19.15 16.2 Q18.7 15.5 18.55 14.7 L18.4 14.7 17.6 14.6 17.2 14.15 Q17.2 13.85 17.6 13.65 L18.4 13.45 18.55 13.45 Q18.65 12.55 19.2 11.85 L19.0 11.7 18.5 10.9 Q18.4 10.55 18.65 10.35 L19.15 10.25 19.9 10.75 20.05 10.9 Q20.75 10.25 21.6 10.15 L21.6 9.9 21.8 9.05 22.25 8.7 M21.3 12.65 Q21.9 12.1 22.6 12.1 L23.0 12.2 22.6 12.4 22.4 13.05 22.6 13.6 23.25 13.85 23.85 13.6 24.15 13.05 24.45 13.95 Q24.45 14.7 23.85 15.2 23.35 15.8 22.6 15.8 21.9 15.8 21.3 15.2 20.85 14.7 20.85 13.95 20.85 13.15 21.3 12.65 M27.8 14.35 Q27.8 12.75 28.95 11.6 29.8 10.7 31.0 10.5 L30.95 10.2 31.15 9.35 Q31.35 9.0 31.65 9.0 L32.05 9.35 32.3 10.2 32.3 10.5 Q33.2 10.55 33.9 11.1 34.25 10.75 34.7 10.65 L35.15 10.7 Q35.4 10.9 35.3 11.25 L34.8 12.05 Q35.45 12.8 35.6 13.8 L36.3 14.0 36.65 14.5 36.3 14.95 35.55 15.05 34.9 16.65 35.3 17.35 35.15 17.9 34.7 17.95 33.95 17.55 Q33.15 18.1 32.15 18.25 L32.15 18.45 31.9 19.3 Q31.7 19.65 31.5 19.65 31.2 19.65 31.0 19.3 L30.8 18.45 30.85 18.2 Q29.75 17.9 28.95 17.1 27.8 16.0 27.8 14.35 M20.25 11.9 Q19.4 12.75 19.4 14.0 19.4 15.2 20.25 16.15 21.1 17.0 22.4 17.0 23.65 17.0 24.5 16.15 25.35 15.2 25.35 14.0 25.35 12.75 24.5 11.9 23.65 11.05 22.4 11.05 21.1 11.05 20.25 11.9 M30.6 12.95 Q31.15 12.4 31.85 12.4 L32.3 12.45 31.85 12.65 31.65 13.3 31.85 13.85 32.5 14.15 33.15 13.85 33.4 13.3 33.7 14.25 Q33.7 15.0 33.15 15.5 32.65 16.05 31.85 16.05 31.15 16.05 30.6 15.5 30.1 15.0 30.1 14.25 30.1 13.45 30.6 12.95 M31.7 11.4 Q30.45 11.4 29.6 12.25 28.75 13.1 28.75 14.35 28.75 15.55 29.6 16.5 30.45 17.35 31.7 17.35 33.0 17.35 33.85 16.5 34.7 15.55 34.7 14.35 34.7 13.1 33.85 12.25 33.0 11.4 31.7 11.4 M37.85 11.0 Q39.55 13.1 39.55 15.65 39.55 18.25 37.85 19.85 36.25 21.4 34.1 21.3 L33.6 21.3 33.55 21.3 Q33.9 23.0 33.25 25.25 L32.05 28.85 30.95 31.1 30.85 31.15 30.8 31.25 30.7 31.4 30.65 31.5 30.6 31.65 30.5 31.65 30.5 31.8 30.35 31.85 29.95 32.3 30.3 32.5 30.6 33.15 30.6 34.75 30.3 35.4 29.65 35.7 Q29.3 35.7 29.05 35.4 28.75 35.1 28.75 34.75 L28.75 33.3 28.3 33.5 27.95 33.55 27.95 34.7 27.7 35.35 27.05 35.6 26.4 35.35 Q26.15 35.1 26.15 34.7 L26.15 33.55 25.4 33.35 25.4 34.75 25.15 35.4 24.5 35.7 23.85 35.4 23.6 34.75 23.6 33.15 23.85 32.5 Q23.95 32.35 24.1 32.35 L23.15 31.1 Q21.6 28.55 20.75 25.25 20.2 22.9 20.45 21.2 L20.45 21.15 20.4 21.15 20.0 21.2 19.05 21.2 Q17.45 21.0 16.15 19.8 L15.45 19.05 Q14.4 17.55 14.4 15.55 14.4 12.95 16.15 10.9 L16.8 10.2 Q15.15 12.3 15.15 14.85 15.15 17.4 16.85 19.05 18.5 20.6 20.7 20.45 L21.1 20.45 Q22.95 20.25 24.45 18.95 L25.05 18.25 25.55 19.3 25.55 19.4 Q26.2 20.5 27.0 20.85 27.75 20.5 28.4 19.4 L28.45 19.3 28.9 18.3 29.25 18.6 Q30.8 20.25 32.9 20.5 L33.4 20.5 Q35.45 20.6 37.0 19.25 L37.15 19.1 Q38.85 17.45 38.85 14.85 38.85 12.55 37.45 10.5 L37.85 11.0 M2.45 12.9 Q1.1 11.1 0.05 9.0 L0.0 8.8 3.8 11.25 Q8.55 13.85 13.4 14.6 L13.2 16.0 Q13.2 18.1 14.25 19.6 L15.05 20.35 Q16.35 21.65 18.05 21.85 L19.0 21.85 19.4 21.85 19.55 21.85 19.55 21.9 Q19.2 23.6 19.85 26.1 L19.9 26.1 Q19.2 28.35 17.95 29.55 17.3 30.2 16.8 30.3 16.45 28.05 17.3 26.35 L18.2 25.15 Q16.0 26.6 14.4 26.7 L13.2 26.6 Q13.75 25.1 15.05 24.2 L16.15 23.6 Q12.9 24.6 10.25 23.1 L8.2 21.4 11.8 21.5 13.05 21.4 Q9.35 21.65 5.65 18.6 L2.5 15.35 Q6.0 17.4 9.25 17.95 L9.55 17.95 9.25 17.9 Q5.65 17.0 2.45 12.9 M19.7 2.3 L20.4 2.95 Q19.7 5.5 16.6 6.4 L16.3 5.85 Q14.55 2.45 14.45 0.8 14.45 0.25 14.7 0.05 L15.9 0.25 Q17.5 0.75 19.7 2.3" fill="#000000" fill-rule="evenodd" stroke="none"/>
    </g>
  </defs>
</svg>
