<?xml version="1.0" encoding="UTF-8" standalone="no"?>
<svg xmlns:ffdec="https://www.free-decompiler.com/flash" xmlns:xlink="http://www.w3.org/1999/xlink" ffdec:objectType="frame" height="56.0px" width="56.0px" xmlns="http://www.w3.org/2000/svg">
  <g transform="matrix(1.0, 0.0, 0.0, 1.0, 0.0, 0.0)">
    <use ffdec:characterId="59" ffdec:characterName="213_fla.Symbole360_1" height="56.0" id="back" transform="matrix(1.0, 0.0, 0.0, 1.0, 0.0, 0.0)" width="56.0" xlink:href="#sprite0"/>
    <use ffdec:characterId="61" height="45.95" id="back" transform="matrix(1.0, 0.0, 0.0, 1.0, 0.35, 4.9)" width="55.35" xlink:href="#sprite58"/>
    <use ffdec:characterId="63" height="44.45" id="up" transform="matrix(1.0, 0.0, 0.0, 1.0, 1.1, 5.65)" width="53.85" xlink:href="#sprite59"/>
  </g>
  <defs>
    <g id="sprite0" transform="matrix(1.0, 0.0, 0.0, 1.0, 0.0, 0.0)">
      <use ffdec:characterId="58" ffdec:characterName="213_fla.Symbole357_2" height="56.0" id="back" transform="matrix(1.0, 0.0, 0.0, 1.0, 0.0, 0.0)" width="56.0" xlink:href="#sprite1"/>
    </g>
    <g id="sprite1" transform="matrix(1.0, 0.0, 0.0, 1.0, 0.0, 0.0)">
      <use ffdec:characterId="57" ffdec:characterName="213_fla.Symbole354_3" height="56.0" id="back" transform="matrix(1.0, 0.0, 0.0, 1.0, 0.0, 0.0)" width="56.0" xlink:href="#sprite2"/>
    </g>
    <g id="sprite2" transform="matrix(1.0, 0.0, 0.0, 1.0, 0.0, 0.0)">
      <use ffdec:characterId="56" ffdec:characterName="213_fla.Symbole351_4" height="56.0" id="back" transform="matrix(1.0, 0.0, 0.0, 1.0, 0.0, 0.0)" width="56.0" xlink:href="#sprite3"/>
    </g>
    <g id="sprite3" transform="matrix(1.0, 0.0, 0.0, 1.0, 0.0, 0.0)">
      <use ffdec:characterId="55" ffdec:characterName="213_fla.Symbole348_5" height="56.0" id="back" transform="matrix(1.0, 0.0, 0.0, 1.0, 0.0, 0.0)" width="56.0" xlink:href="#sprite4"/>
    </g>
    <g id="sprite4" transform="matrix(1.0, 0.0, 0.0, 1.0, 0.0, 0.0)">
      <use ffdec:characterId="54" ffdec:characterName="213_fla.Symbole345_6" height="56.0" id="back" transform="matrix(1.0, 0.0, 0.0, 1.0, 0.0, 0.0)" width="56.0" xlink:href="#sprite5"/>
    </g>
    <g id="sprite5" transform="matrix(1.0, 0.0, 0.0, 1.0, 0.0, 0.0)">
      <use ffdec:characterId="53" ffdec:characterName="213_fla.Symbole342_7" height="56.0" id="back" transform="matrix(1.0, 0.0, 0.0, 1.0, 0.0, 0.0)" width="56.0" xlink:href="#sprite6"/>
    </g>
    <g id="sprite6" transform="matrix(1.0, 0.0, 0.0, 1.0, 0.0, 0.0)">
      <use ffdec:characterId="52" ffdec:characterName="213_fla.Symbole339_8" height="56.0" id="back" transform="matrix(1.0, 0.0, 0.0, 1.0, 0.0, 0.0)" width="56.0" xlink:href="#sprite7"/>
    </g>
    <g id="sprite7" transform="matrix(1.0, 0.0, 0.0, 1.0, 0.0, 0.0)">
      <use ffdec:characterId="51" ffdec:characterName="213_fla.Symbole336_9" height="56.0" id="back" transform="matrix(1.0, 0.0, 0.0, 1.0, 0.0, 0.0)" width="56.0" xlink:href="#sprite8"/>
    </g>
    <g id="sprite8" transform="matrix(1.0, 0.0, 0.0, 1.0, 0.0, 0.0)">
      <use ffdec:characterId="50" ffdec:characterName="213_fla.Symbole333_10" height="56.0" id="back" transform="matrix(1.0, 0.0, 0.0, 1.0, 0.0, 0.0)" width="56.0" xlink:href="#sprite9"/>
    </g>
    <g id="sprite9" transform="matrix(1.0, 0.0, 0.0, 1.0, 0.0, 0.0)">
      <use ffdec:characterId="49" ffdec:characterName="213_fla.Symbole330_11" height="56.0" id="back" transform="matrix(1.0, 0.0, 0.0, 1.0, 0.0, 0.0)" width="56.0" xlink:href="#sprite10"/>
    </g>
    <g id="sprite10" transform="matrix(1.0, 0.0, 0.0, 1.0, 0.0, 0.0)">
      <use ffdec:characterId="48" ffdec:characterName="213_fla.Symbole327_12" height="56.0" id="back" transform="matrix(1.0, 0.0, 0.0, 1.0, 0.0, 0.0)" width="56.0" xlink:href="#sprite11"/>
    </g>
    <g id="sprite11" transform="matrix(1.0, 0.0, 0.0, 1.0, 0.0, 0.0)">
      <use ffdec:characterId="47" ffdec:characterName="213_fla.Symbole324_13" height="56.0" id="back" transform="matrix(1.0, 0.0, 0.0, 1.0, 0.0, 0.0)" width="56.0" xlink:href="#sprite12"/>
    </g>
    <g id="sprite12" transform="matrix(1.0, 0.0, 0.0, 1.0, 0.0, 0.0)">
      <use ffdec:characterId="46" ffdec:characterName="213_fla.Symbole321_14" height="56.0" id="back" transform="matrix(1.0, 0.0, 0.0, 1.0, 0.0, 0.0)" width="56.0" xlink:href="#sprite13"/>
    </g>
    <g id="sprite13" transform="matrix(1.0, 0.0, 0.0, 1.0, 0.0, 0.0)">
      <use ffdec:characterId="45" ffdec:characterName="213_fla.Symbole318_15" height="56.0" id="back" transform="matrix(1.0, 0.0, 0.0, 1.0, 0.0, 0.0)" width="56.0" xlink:href="#sprite14"/>
    </g>
    <g id="sprite14" transform="matrix(1.0, 0.0, 0.0, 1.0, 0.0, 0.0)">
      <use ffdec:characterId="44" ffdec:characterName="213_fla.Symbole315_16" height="56.0" id="back" transform="matrix(1.0, 0.0, 0.0, 1.0, 0.0, 0.0)" width="56.0" xlink:href="#sprite15"/>
    </g>
    <g id="sprite15" transform="matrix(1.0, 0.0, 0.0, 1.0, 0.0, 0.0)">
      <use ffdec:characterId="43" ffdec:characterName="213_fla.Symbole312_17" height="56.0" id="back" transform="matrix(1.0, 0.0, 0.0, 1.0, 0.0, 0.0)" width="56.0" xlink:href="#sprite16"/>
    </g>
    <g id="sprite16" transform="matrix(1.0, 0.0, 0.0, 1.0, 0.0, 0.0)">
      <use ffdec:characterId="42" ffdec:characterName="213_fla.Symbole309_18" height="56.0" id="back" transform="matrix(1.0, 0.0, 0.0, 1.0, 0.0, 0.0)" width="56.0" xlink:href="#sprite17"/>
    </g>
    <g id="sprite17" transform="matrix(1.0, 0.0, 0.0, 1.0, 0.0, 0.0)">
      <use ffdec:characterId="41" ffdec:characterName="213_fla.Symbole306_19" height="56.0" id="back" transform="matrix(1.0, 0.0, 0.0, 1.0, 0.0, 0.0)" width="56.0" xlink:href="#sprite18"/>
    </g>
    <g id="sprite18" transform="matrix(1.0, 0.0, 0.0, 1.0, 0.0, 0.0)">
      <use ffdec:characterId="40" ffdec:characterName="213_fla.Symbole303_20" height="56.0" id="back" transform="matrix(1.0, 0.0, 0.0, 1.0, 0.0, 0.0)" width="56.0" xlink:href="#sprite19"/>
    </g>
    <g id="sprite19" transform="matrix(1.0, 0.0, 0.0, 1.0, 0.0, 0.0)">
      <use ffdec:characterId="39" ffdec:characterName="213_fla.Symbole300_21" height="56.0" id="back" transform="matrix(1.0, 0.0, 0.0, 1.0, 0.0, 0.0)" width="56.0" xlink:href="#sprite20"/>
    </g>
    <g id="sprite20" transform="matrix(1.0, 0.0, 0.0, 1.0, 0.0, 0.0)">
      <use ffdec:characterId="38" ffdec:characterName="213_fla.Symbole297_22" height="56.0" id="back" transform="matrix(1.0, 0.0, 0.0, 1.0, 0.0, 0.0)" width="56.0" xlink:href="#sprite21"/>
    </g>
    <g id="sprite21" transform="matrix(1.0, 0.0, 0.0, 1.0, 0.0, 0.0)">
      <use ffdec:characterId="37" ffdec:characterName="213_fla.Symbole294_23" height="56.0" id="back" transform="matrix(1.0, 0.0, 0.0, 1.0, 0.0, 0.0)" width="56.0" xlink:href="#sprite22"/>
    </g>
    <g id="sprite22" transform="matrix(1.0, 0.0, 0.0, 1.0, 0.0, 0.0)">
      <use ffdec:characterId="36" ffdec:characterName="213_fla.Symbole291_24" height="56.0" id="back" transform="matrix(1.0, 0.0, 0.0, 1.0, 0.0, 0.0)" width="56.0" xlink:href="#sprite23"/>
    </g>
    <g id="sprite23" transform="matrix(1.0, 0.0, 0.0, 1.0, 0.0, 0.0)">
      <use ffdec:characterId="35" ffdec:characterName="213_fla.Symbole288_25" height="56.0" id="back" transform="matrix(1.0, 0.0, 0.0, 1.0, 0.0, 0.0)" width="56.0" xlink:href="#sprite24"/>
    </g>
    <g id="sprite24" transform="matrix(1.0, 0.0, 0.0, 1.0, 0.0, 0.0)">
      <use ffdec:characterId="34" ffdec:characterName="213_fla.Symbole285_26" height="56.0" id="back" transform="matrix(1.0, 0.0, 0.0, 1.0, 0.0, 0.0)" width="56.0" xlink:href="#sprite25"/>
    </g>
    <g id="sprite25" transform="matrix(1.0, 0.0, 0.0, 1.0, 0.0, 0.0)">
      <use ffdec:characterId="33" ffdec:characterName="213_fla.Symbole282_27" height="56.0" id="back" transform="matrix(1.0, 0.0, 0.0, 1.0, 0.0, 0.0)" width="56.0" xlink:href="#sprite26"/>
    </g>
    <g id="sprite26" transform="matrix(1.0, 0.0, 0.0, 1.0, 0.0, 0.0)">
      <use ffdec:characterId="32" ffdec:characterName="213_fla.Symbole279_28" height="56.0" id="back" transform="matrix(1.0, 0.0, 0.0, 1.0, 0.0, 0.0)" width="56.0" xlink:href="#sprite27"/>
    </g>
    <g id="sprite27" transform="matrix(1.0, 0.0, 0.0, 1.0, 0.0, 0.0)">
      <use ffdec:characterId="31" ffdec:characterName="213_fla.Symbole276_29" height="56.0" id="back" transform="matrix(1.0, 0.0, 0.0, 1.0, 0.0, 0.0)" width="56.0" xlink:href="#sprite28"/>
    </g>
    <g id="sprite28" transform="matrix(1.0, 0.0, 0.0, 1.0, 0.0, 0.0)">
      <use ffdec:characterId="30" ffdec:characterName="213_fla.Symbole273_30" height="56.0" id="back" transform="matrix(1.0, 0.0, 0.0, 1.0, 0.0, 0.0)" width="56.0" xlink:href="#sprite29"/>
    </g>
    <g id="sprite29" transform="matrix(1.0, 0.0, 0.0, 1.0, 0.0, 0.0)">
      <use ffdec:characterId="29" ffdec:characterName="213_fla.Symbole270_31" height="56.0" id="back" transform="matrix(1.0, 0.0, 0.0, 1.0, 0.0, 0.0)" width="56.0" xlink:href="#sprite30"/>
    </g>
    <g id="sprite30" transform="matrix(1.0, 0.0, 0.0, 1.0, 0.0, 0.0)">
      <use ffdec:characterId="28" ffdec:characterName="213_fla.Symbole267_32" height="56.0" id="back" transform="matrix(1.0, 0.0, 0.0, 1.0, 0.0, 0.0)" width="56.0" xlink:href="#sprite31"/>
    </g>
    <g id="sprite31" transform="matrix(1.0, 0.0, 0.0, 1.0, 0.0, 0.0)">
      <use ffdec:characterId="27" ffdec:characterName="213_fla.Symbole264_33" height="56.0" id="back" transform="matrix(1.0, 0.0, 0.0, 1.0, 0.0, 0.0)" width="56.0" xlink:href="#sprite32"/>
    </g>
    <g id="sprite32" transform="matrix(1.0, 0.0, 0.0, 1.0, 0.0, 0.0)">
      <use ffdec:characterId="26" ffdec:characterName="213_fla.Symbole261_34" height="56.0" id="back" transform="matrix(1.0, 0.0, 0.0, 1.0, 0.0, 0.0)" width="56.0" xlink:href="#sprite33"/>
    </g>
    <g id="sprite33" transform="matrix(1.0, 0.0, 0.0, 1.0, 0.0, 0.0)">
      <use ffdec:characterId="25" ffdec:characterName="213_fla.Symbole258_35" height="56.0" id="back" transform="matrix(1.0, 0.0, 0.0, 1.0, 0.0, 0.0)" width="56.0" xlink:href="#sprite34"/>
    </g>
    <g id="sprite34" transform="matrix(1.0, 0.0, 0.0, 1.0, 0.0, 0.0)">
      <use ffdec:characterId="24" ffdec:characterName="213_fla.Symbole255_36" height="56.0" id="back" transform="matrix(1.0, 0.0, 0.0, 1.0, 0.0, 0.0)" width="56.0" xlink:href="#sprite35"/>
    </g>
    <g id="sprite35" transform="matrix(1.0, 0.0, 0.0, 1.0, 0.0, 0.0)">
      <use ffdec:characterId="23" ffdec:characterName="213_fla.Symbole252_37" height="56.0" id="back" transform="matrix(1.0, 0.0, 0.0, 1.0, 0.0, 0.0)" width="56.0" xlink:href="#sprite36"/>
    </g>
    <g id="sprite36" transform="matrix(1.0, 0.0, 0.0, 1.0, 0.0, 0.0)">
      <use ffdec:characterId="22" ffdec:characterName="213_fla.Symbole249_38" height="56.0" id="back" transform="matrix(1.0, 0.0, 0.0, 1.0, 0.0, 0.0)" width="56.0" xlink:href="#sprite37"/>
    </g>
    <g id="sprite37" transform="matrix(1.0, 0.0, 0.0, 1.0, 0.0, 0.0)">
      <use ffdec:characterId="21" ffdec:characterName="213_fla.Symbole246_39" height="56.0" id="back" transform="matrix(1.0, 0.0, 0.0, 1.0, 0.0, 0.0)" width="56.0" xlink:href="#sprite38"/>
    </g>
    <g id="sprite38" transform="matrix(1.0, 0.0, 0.0, 1.0, 0.0, 0.0)">
      <use ffdec:characterId="20" ffdec:characterName="213_fla.Symbole243_40" height="56.0" id="back" transform="matrix(1.0, 0.0, 0.0, 1.0, 0.0, 0.0)" width="56.0" xlink:href="#sprite39"/>
    </g>
    <g id="sprite39" transform="matrix(1.0, 0.0, 0.0, 1.0, 0.0, 0.0)">
      <use ffdec:characterId="19" ffdec:characterName="213_fla.Symbole240_41" height="56.0" id="back" transform="matrix(1.0, 0.0, 0.0, 1.0, 0.0, 0.0)" width="56.0" xlink:href="#sprite40"/>
    </g>
    <g id="sprite40" transform="matrix(1.0, 0.0, 0.0, 1.0, 0.0, 0.0)">
      <use ffdec:characterId="18" ffdec:characterName="213_fla.Symbole237_42" height="56.0" id="back" transform="matrix(1.0, 0.0, 0.0, 1.0, 0.0, 0.0)" width="56.0" xlink:href="#sprite41"/>
    </g>
    <g id="sprite41" transform="matrix(1.0, 0.0, 0.0, 1.0, 0.0, 0.0)">
      <use ffdec:characterId="17" ffdec:characterName="213_fla.Symbole234_43" height="56.0" id="back" transform="matrix(1.0, 0.0, 0.0, 1.0, 0.0, 0.0)" width="56.0" xlink:href="#sprite42"/>
    </g>
    <g id="sprite42" transform="matrix(1.0, 0.0, 0.0, 1.0, 0.0, 0.0)">
      <use ffdec:characterId="16" ffdec:characterName="213_fla.Symbole231_44" height="56.0" id="back" transform="matrix(1.0, 0.0, 0.0, 1.0, 0.0, 0.0)" width="56.0" xlink:href="#sprite43"/>
    </g>
    <g id="sprite43" transform="matrix(1.0, 0.0, 0.0, 1.0, 0.0, 0.0)">
      <use ffdec:characterId="15" ffdec:characterName="213_fla.Symbole228_45" height="56.0" id="back" transform="matrix(1.0, 0.0, 0.0, 1.0, 0.0, 0.0)" width="56.0" xlink:href="#sprite44"/>
    </g>
    <g id="sprite44" transform="matrix(1.0, 0.0, 0.0, 1.0, 0.0, 0.0)">
      <use ffdec:characterId="14" ffdec:characterName="213_fla.Symbole225_46" height="56.0" id="back" transform="matrix(1.0, 0.0, 0.0, 1.0, 0.0, 0.0)" width="56.0" xlink:href="#sprite45"/>
    </g>
    <g id="sprite45" transform="matrix(1.0, 0.0, 0.0, 1.0, 0.0, 0.0)">
      <use ffdec:characterId="13" ffdec:characterName="213_fla.Symbole222_47" height="56.0" id="back" transform="matrix(1.0, 0.0, 0.0, 1.0, 0.0, 0.0)" width="56.0" xlink:href="#sprite46"/>
    </g>
    <g id="sprite46" transform="matrix(1.0, 0.0, 0.0, 1.0, 0.0, 0.0)">
      <use ffdec:characterId="12" ffdec:characterName="213_fla.Symbole219_48" height="56.0" id="back" transform="matrix(1.0, 0.0, 0.0, 1.0, 0.0, 0.0)" width="56.0" xlink:href="#sprite47"/>
    </g>
    <g id="sprite47" transform="matrix(1.0, 0.0, 0.0, 1.0, 0.0, 0.0)">
      <use ffdec:characterId="11" ffdec:characterName="213_fla.Symbole216_49" height="56.0" id="back" transform="matrix(1.0, 0.0, 0.0, 1.0, 0.0, 0.0)" width="56.0" xlink:href="#sprite48"/>
    </g>
    <g id="sprite48" transform="matrix(1.0, 0.0, 0.0, 1.0, 0.0, 0.0)">
      <use ffdec:characterId="10" ffdec:characterName="213_fla.Symbole213_50" height="56.0" id="back" transform="matrix(1.0, 0.0, 0.0, 1.0, 0.0, 0.0)" width="56.0" xlink:href="#sprite49"/>
    </g>
    <g id="sprite49" transform="matrix(1.0, 0.0, 0.0, 1.0, 0.0, 0.0)">
      <use ffdec:characterId="9" ffdec:characterName="213_fla.Symbole210_51" height="56.0" id="back" transform="matrix(1.0, 0.0, 0.0, 1.0, 0.0, 0.0)" width="56.0" xlink:href="#sprite50"/>
    </g>
    <g id="sprite50" transform="matrix(1.0, 0.0, 0.0, 1.0, 0.0, 0.0)">
      <use ffdec:characterId="8" ffdec:characterName="213_fla.Symbole207_52" height="56.0" id="back" transform="matrix(1.0, 0.0, 0.0, 1.0, 0.0, 0.0)" width="56.0" xlink:href="#sprite51"/>
    </g>
    <g id="sprite51" transform="matrix(1.0, 0.0, 0.0, 1.0, 0.0, 0.0)">
      <use ffdec:characterId="7" ffdec:characterName="213_fla.Symbole204_53" height="56.0" id="back" transform="matrix(1.0, 0.0, 0.0, 1.0, 0.0, 0.0)" width="56.0" xlink:href="#sprite52"/>
    </g>
    <g id="sprite52" transform="matrix(1.0, 0.0, 0.0, 1.0, 0.0, 0.0)">
      <use ffdec:characterId="6" ffdec:characterName="213_fla.Symbole201_54" height="56.0" id="back" transform="matrix(1.0, 0.0, 0.0, 1.0, 0.0, 0.0)" width="56.0" xlink:href="#sprite53"/>
    </g>
    <g id="sprite53" transform="matrix(1.0, 0.0, 0.0, 1.0, 0.0, 0.0)">
      <use ffdec:characterId="5" ffdec:characterName="213_fla.Symbole198_55" height="56.0" id="back" transform="matrix(1.0, 0.0, 0.0, 1.0, 0.0, 0.0)" width="56.0" xlink:href="#sprite54"/>
    </g>
    <g id="sprite54" transform="matrix(1.0, 0.0, 0.0, 1.0, 0.0, 0.0)">
      <use ffdec:characterId="4" ffdec:characterName="213_fla.Symbole195_56" height="56.0" id="back" transform="matrix(1.0, 0.0, 0.0, 1.0, 0.0, 0.0)" width="56.0" xlink:href="#sprite55"/>
    </g>
    <g id="sprite55" transform="matrix(1.0, 0.0, 0.0, 1.0, 0.0, 0.0)">
      <use ffdec:characterId="3" ffdec:characterName="213_fla.Symbole192_57" height="56.0" id="back" transform="matrix(1.0, 0.0, 0.0, 1.0, 0.0, 0.0)" width="56.0" xlink:href="#sprite56"/>
    </g>
    <g id="sprite56" transform="matrix(1.0, 0.0, 0.0, 1.0, 0.0, 0.0)">
      <use ffdec:characterId="2" height="56.0" id="back" transform="matrix(1.0, 0.0, 0.0, 1.0, 0.0, 0.0)" width="56.0" xlink:href="#sprite57"/>
    </g>
    <g id="sprite57" transform="matrix(1.0, 0.0, 0.0, 1.0, 0.0, 0.0)">
      <use ffdec:characterId="1" height="56.0" transform="matrix(1.0, 0.0, 0.0, 1.0, 0.0, 0.0)" width="56.0" xlink:href="#shape0"/>
    </g>
    <g id="shape0" transform="matrix(1.0, 0.0, 0.0, 1.0, 0.0, 0.0)">
      <path d="M56.0 56.0 L0.0 56.0 0.0 0.0 56.0 0.0 56.0 56.0" fill="#010101" fill-opacity="0.0" fill-rule="evenodd" stroke="none"/>
    </g>
    <g id="sprite58" transform="matrix(1.0, 0.0, 0.0, 1.0, 0.75, 0.75)">
      <use ffdec:characterId="60" height="45.95" transform="matrix(1.0, 0.0, 0.0, 1.0, -0.75, -0.75)" width="55.35" xlink:href="#shape1"/>
    </g>
    <g id="shape1" transform="matrix(1.0, 0.0, 0.0, 1.0, 0.75, 0.75)">
      <path d="M43.2 14.15 Q44.65 16.2 46.45 16.05 45.15 12.75 42.5 10.1 L41.75 10.35 Q41.95 12.45 43.2 14.15 M39.95 13.6 L37.9 14.9 Q35.7 16.3 35.8 16.95 L36.1 18.0 36.4 19.4 Q36.55 22.0 34.55 24.75 L32.7 26.5 29.85 26.55 Q21.25 26.55 15.1 24.4 L13.75 23.95 Q8.9 22.0 8.75 19.4 8.7 16.45 14.55 14.3 L15.1 14.15 Q15.65 12.7 16.55 11.45 11.5 12.05 7.5 13.55 -0.15 16.3 0.0 20.05 0.2 23.75 8.1 26.5 11.2 27.6 15.1 28.35 L15.35 28.35 22.95 29.15 27.35 29.3 Q35.05 29.3 41.15 27.95 L42.95 27.55 46.15 26.65 46.05 26.65 46.3 26.5 47.1 26.2 47.1 26.25 48.35 25.75 Q53.95 23.3 53.85 20.05 53.65 16.45 46.8 13.9 L47.0 14.35 47.3 15.05 47.7 15.9 Q50.3 17.5 50.35 19.4 50.45 20.95 48.8 22.3 L47.6 23.15 44.6 24.4 Q41.65 25.45 38.15 25.95 L37.95 25.15 Q37.9 23.75 39.9 22.1 L42.85 19.85 41.75 16.6 Q40.7 13.6 39.95 13.6 M43.35 20.75 L42.85 21.05 41.3 22.1 Q41.3 22.6 41.9 23.15 42.25 23.5 42.8 23.5 43.2 23.5 44.05 22.9 44.85 22.25 44.85 21.85 44.85 21.15 44.05 20.9 L43.35 20.75 M41.3 28.7 L43.15 28.35 46.3 27.3 46.45 27.25 47.0 28.05 Q45.8 31.4 43.3 34.2 L46.0 36.6 49.6 34.6 48.2 38.45 51.25 41.2 47.2 40.85 45.65 44.45 44.55 40.45 40.5 40.0 43.85 37.9 43.1 34.3 Q38.3 39.2 31.3 39.2 24.2 39.2 18.95 34.2 16.5 31.9 15.1 29.1 L15.25 29.15 15.6 29.15 Q16.4 30.15 17.9 31.25 20.4 33.4 22.0 33.4 22.65 33.4 23.25 32.3 23.85 31.4 23.75 30.75 23.75 30.25 23.4 30.0 L27.35 30.05 Q35.15 30.05 41.25 28.7 L41.3 28.7 M22.0 12.15 L21.3 13.35 Q20.55 14.2 20.55 14.5 20.65 15.15 22.0 15.85 L23.85 16.35 26.15 16.0 Q27.85 16.0 29.7 18.15 L31.95 20.9 32.1 21.1 Q32.45 19.95 34.55 15.65 L36.55 11.55 Q36.45 10.35 34.75 9.7 33.05 9.1 33.05 8.5 33.0 7.1 34.25 7.1 34.7 7.1 35.65 7.75 36.55 8.35 37.05 8.35 38.15 8.35 38.25 6.85 34.3 4.65 29.7 4.65 22.65 4.65 17.85 9.7 L17.3 10.35 19.15 10.1 Q20.2 10.1 21.1 10.75 22.0 11.3 22.0 12.15 M25.2 17.85 L25.25 17.8 25.05 17.55 24.9 17.55 23.25 18.6 Q21.55 19.7 21.55 20.3 L21.7 20.9 Q22.0 21.75 23.1 22.5 24.6 23.5 25.85 23.5 L28.8 23.55 Q30.6 23.55 29.8 23.2 28.6 20.9 25.35 17.95 L25.2 17.85 M13.75 5.45 L12.65 8.3 11.75 5.2 8.5 4.7 11.15 3.15 10.45 0.0 12.85 2.05 15.65 0.6 14.5 3.5 16.95 5.7 13.75 5.45 M17.7 15.1 Q17.25 14.35 16.7 14.15 L16.55 14.15 16.35 14.35 Q15.7 15.35 14.95 17.4 14.05 19.85 14.05 20.9 14.1 22.25 14.55 22.35 L16.5 22.5 16.5 21.65 Q16.05 20.4 16.0 19.25 L16.15 18.15 16.4 17.1 17.15 17.65 17.9 17.65 18.1 17.4 17.7 16.7 16.65 16.0 17.7 15.1 M7.95 34.45 L7.8 32.15 9.35 33.9 11.45 33.1 10.3 35.05 11.8 36.75 9.5 36.3 8.35 38.1 8.1 35.95 5.9 35.25 7.95 34.45 Z" fill="none" stroke="#000000" stroke-linecap="round" stroke-linejoin="round" stroke-opacity="0.2" stroke-width="1.5"/>
    </g>
    <g id="sprite59" transform="matrix(1.0, 0.0, 0.0, 1.0, 0.0, 0.0)">
      <use ffdec:characterId="62" height="44.45" transform="matrix(1.0, 0.0, 0.0, 1.0, 0.0, 0.0)" width="53.85" xlink:href="#shape2"/>
    </g>
    <g id="shape2" transform="matrix(1.0, 0.0, 0.0, 1.0, 0.0, 0.0)">
      <path d="M41.3 22.05 L42.85 21.0 43.3 20.75 44.0 20.85 Q44.85 21.15 44.85 21.85 L44.0 22.9 Q43.2 23.45 42.75 23.45 42.25 23.45 41.85 23.1 41.3 22.6 41.3 22.05 M43.2 14.15 Q41.9 12.4 41.7 10.35 L42.5 10.1 Q45.15 12.75 46.4 16.05 44.65 16.2 43.2 14.15 M39.95 13.6 Q40.65 13.6 41.7 16.6 L42.85 19.8 39.9 22.05 Q37.85 23.75 37.9 25.15 L38.15 26.0 44.6 24.35 47.6 23.1 48.8 22.25 Q50.4 20.95 50.35 19.4 50.25 17.45 47.65 15.9 L47.3 15.0 46.95 14.35 46.75 13.85 Q53.65 16.45 53.85 20.05 53.9 23.25 48.3 25.7 L48.35 25.7 Q47.6 25.9 47.05 26.25 L47.05 26.2 Q46.7 26.25 46.25 26.45 L46.05 26.6 46.1 26.6 42.9 27.5 41.15 27.95 Q35.05 29.25 27.35 29.25 L22.9 29.15 15.35 28.35 15.4 28.35 15.05 28.3 Q11.2 27.6 8.05 26.45 0.2 23.75 0.0 20.05 -0.15 16.25 7.5 13.5 11.5 12.05 16.55 11.4 15.6 12.7 15.05 14.15 L14.55 14.3 Q8.7 16.45 8.75 19.4 8.9 22.0 13.75 23.95 L15.05 24.35 Q21.25 26.55 29.85 26.55 L32.65 26.45 34.5 24.7 Q36.5 22.0 36.4 19.4 L36.1 18.0 35.75 16.95 Q35.65 16.25 37.85 14.85 L39.95 13.6 M41.3 28.7 L43.1 28.3 46.25 27.3 46.4 27.25 46.95 28.0 Q45.75 31.35 43.25 34.15 L46.0 36.55 49.55 34.6 48.15 38.45 51.25 41.15 47.2 40.8 45.65 44.45 44.5 40.45 40.45 39.95 43.8 37.85 43.05 34.3 Q38.25 39.2 31.25 39.2 24.15 39.2 18.9 34.15 16.45 31.85 15.05 29.05 L15.2 29.15 15.55 29.15 17.85 31.25 Q20.4 33.4 21.95 33.4 22.65 33.4 23.25 32.3 23.8 31.35 23.75 30.75 L23.4 29.95 27.35 30.05 Q35.1 30.05 41.2 28.7 L41.3 28.7 M25.15 17.85 L25.3 17.95 Q28.6 20.85 29.8 23.2 30.55 23.55 28.8 23.55 L25.85 23.45 Q24.6 23.45 23.05 22.5 22.0 21.7 21.65 20.85 L21.5 20.3 Q21.5 19.7 23.2 18.55 24.5 17.7 24.9 17.6 L25.0 17.6 Q25.25 17.65 25.25 17.8 L25.15 17.85 M22.0 12.1 Q21.95 11.3 21.1 10.7 20.2 10.1 19.15 10.1 L17.3 10.35 17.8 9.65 Q22.65 4.65 29.7 4.65 34.25 4.65 38.2 6.85 38.15 8.35 37.0 8.35 36.5 8.35 35.6 7.7 34.7 7.1 34.2 7.1 32.95 7.1 33.0 8.5 33.0 9.05 34.75 9.65 36.45 10.35 36.5 11.5 L34.5 15.6 Q32.45 19.9 32.1 21.1 L31.9 20.85 29.7 18.15 Q27.8 15.95 26.15 15.95 L23.8 16.3 22.0 15.85 Q20.6 15.15 20.55 14.5 20.55 14.2 21.3 13.3 L22.0 12.1 M13.75 5.4 L12.6 8.25 11.7 5.2 8.45 4.7 11.15 3.1 10.45 0.0 12.8 2.05 15.6 0.55 14.5 3.5 16.95 5.7 13.75 5.4 M16.65 14.15 Q17.25 14.35 17.65 15.05 L16.6 15.95 17.65 16.65 18.05 17.35 17.85 17.65 17.15 17.65 16.4 17.1 16.1 18.15 15.95 19.25 Q16.05 20.4 16.45 21.65 L16.45 22.5 14.55 22.35 Q14.1 22.2 14.0 20.85 14.0 19.8 14.9 17.35 L16.3 14.35 16.55 14.15 16.65 14.15 M7.9 34.45 L7.75 32.15 9.3 33.9 11.4 33.1 10.3 35.0 11.75 36.75 9.5 36.25 8.35 38.1 8.05 35.9 5.85 35.2 7.9 34.45" fill="#000000" fill-rule="evenodd" stroke="none"/>
    </g>
  </defs>
</svg>
