<?xml version="1.0" encoding="UTF-8" standalone="no"?>
<svg xmlns:ffdec="https://www.free-decompiler.com/flash" xmlns:xlink="http://www.w3.org/1999/xlink" ffdec:objectType="frame" height="56.0px" width="56.0px" xmlns="http://www.w3.org/2000/svg">
  <g transform="matrix(1.0, 0.0, 0.0, 1.0, 0.0, 0.0)">
    <use ffdec:characterId="64" ffdec:characterName="218_fla.Symbole375_1" height="56.0" id="back" transform="matrix(1.0, 0.0, 0.0, 1.0, 0.0, 0.0)" width="56.0" xlink:href="#sprite0"/>
    <use ffdec:characterId="66" height="55.25" id="back" transform="matrix(1.0, 0.0, 0.0, 1.0, 2.25, 0.3)" width="51.5" xlink:href="#sprite63"/>
    <use ffdec:characterId="68" height="53.75" id="up" transform="matrix(1.0, 0.0, 0.0, 1.0, 3.0, 1.05)" width="50.0" xlink:href="#sprite64"/>
  </g>
  <defs>
    <g id="sprite0" transform="matrix(1.0, 0.0, 0.0, 1.0, 0.0, 0.0)">
      <use ffdec:characterId="63" ffdec:characterName="218_fla.Symbole372_2" height="56.0" id="back" transform="matrix(1.0, 0.0, 0.0, 1.0, 0.0, 0.0)" width="56.0" xlink:href="#sprite1"/>
    </g>
    <g id="sprite1" transform="matrix(1.0, 0.0, 0.0, 1.0, 0.0, 0.0)">
      <use ffdec:characterId="62" ffdec:characterName="218_fla.Symbole369_3" height="56.0" id="back" transform="matrix(1.0, 0.0, 0.0, 1.0, 0.0, 0.0)" width="56.0" xlink:href="#sprite2"/>
    </g>
    <g id="sprite2" transform="matrix(1.0, 0.0, 0.0, 1.0, 0.0, 0.0)">
      <use ffdec:characterId="61" ffdec:characterName="218_fla.Symbole366_4" height="56.0" id="back" transform="matrix(1.0, 0.0, 0.0, 1.0, 0.0, 0.0)" width="56.0" xlink:href="#sprite3"/>
    </g>
    <g id="sprite3" transform="matrix(1.0, 0.0, 0.0, 1.0, 0.0, 0.0)">
      <use ffdec:characterId="60" ffdec:characterName="218_fla.Symbole363_5" height="56.0" id="back" transform="matrix(1.0, 0.0, 0.0, 1.0, 0.0, 0.0)" width="56.0" xlink:href="#sprite4"/>
    </g>
    <g id="sprite4" transform="matrix(1.0, 0.0, 0.0, 1.0, 0.0, 0.0)">
      <use ffdec:characterId="59" ffdec:characterName="218_fla.Symbole360_6" height="56.0" id="back" transform="matrix(1.0, 0.0, 0.0, 1.0, 0.0, 0.0)" width="56.0" xlink:href="#sprite5"/>
    </g>
    <g id="sprite5" transform="matrix(1.0, 0.0, 0.0, 1.0, 0.0, 0.0)">
      <use ffdec:characterId="58" ffdec:characterName="218_fla.Symbole357_7" height="56.0" id="back" transform="matrix(1.0, 0.0, 0.0, 1.0, 0.0, 0.0)" width="56.0" xlink:href="#sprite6"/>
    </g>
    <g id="sprite6" transform="matrix(1.0, 0.0, 0.0, 1.0, 0.0, 0.0)">
      <use ffdec:characterId="57" ffdec:characterName="218_fla.Symbole354_8" height="56.0" id="back" transform="matrix(1.0, 0.0, 0.0, 1.0, 0.0, 0.0)" width="56.0" xlink:href="#sprite7"/>
    </g>
    <g id="sprite7" transform="matrix(1.0, 0.0, 0.0, 1.0, 0.0, 0.0)">
      <use ffdec:characterId="56" ffdec:characterName="218_fla.Symbole351_9" height="56.0" id="back" transform="matrix(1.0, 0.0, 0.0, 1.0, 0.0, 0.0)" width="56.0" xlink:href="#sprite8"/>
    </g>
    <g id="sprite8" transform="matrix(1.0, 0.0, 0.0, 1.0, 0.0, 0.0)">
      <use ffdec:characterId="55" ffdec:characterName="218_fla.Symbole348_10" height="56.0" id="back" transform="matrix(1.0, 0.0, 0.0, 1.0, 0.0, 0.0)" width="56.0" xlink:href="#sprite9"/>
    </g>
    <g id="sprite9" transform="matrix(1.0, 0.0, 0.0, 1.0, 0.0, 0.0)">
      <use ffdec:characterId="54" ffdec:characterName="218_fla.Symbole345_11" height="56.0" id="back" transform="matrix(1.0, 0.0, 0.0, 1.0, 0.0, 0.0)" width="56.0" xlink:href="#sprite10"/>
    </g>
    <g id="sprite10" transform="matrix(1.0, 0.0, 0.0, 1.0, 0.0, 0.0)">
      <use ffdec:characterId="53" ffdec:characterName="218_fla.Symbole342_12" height="56.0" id="back" transform="matrix(1.0, 0.0, 0.0, 1.0, 0.0, 0.0)" width="56.0" xlink:href="#sprite11"/>
    </g>
    <g id="sprite11" transform="matrix(1.0, 0.0, 0.0, 1.0, 0.0, 0.0)">
      <use ffdec:characterId="52" ffdec:characterName="218_fla.Symbole339_13" height="56.0" id="back" transform="matrix(1.0, 0.0, 0.0, 1.0, 0.0, 0.0)" width="56.0" xlink:href="#sprite12"/>
    </g>
    <g id="sprite12" transform="matrix(1.0, 0.0, 0.0, 1.0, 0.0, 0.0)">
      <use ffdec:characterId="51" ffdec:characterName="218_fla.Symbole336_14" height="56.0" id="back" transform="matrix(1.0, 0.0, 0.0, 1.0, 0.0, 0.0)" width="56.0" xlink:href="#sprite13"/>
    </g>
    <g id="sprite13" transform="matrix(1.0, 0.0, 0.0, 1.0, 0.0, 0.0)">
      <use ffdec:characterId="50" ffdec:characterName="218_fla.Symbole333_15" height="56.0" id="back" transform="matrix(1.0, 0.0, 0.0, 1.0, 0.0, 0.0)" width="56.0" xlink:href="#sprite14"/>
    </g>
    <g id="sprite14" transform="matrix(1.0, 0.0, 0.0, 1.0, 0.0, 0.0)">
      <use ffdec:characterId="49" ffdec:characterName="218_fla.Symbole330_16" height="56.0" id="back" transform="matrix(1.0, 0.0, 0.0, 1.0, 0.0, 0.0)" width="56.0" xlink:href="#sprite15"/>
    </g>
    <g id="sprite15" transform="matrix(1.0, 0.0, 0.0, 1.0, 0.0, 0.0)">
      <use ffdec:characterId="48" ffdec:characterName="218_fla.Symbole327_17" height="56.0" id="back" transform="matrix(1.0, 0.0, 0.0, 1.0, 0.0, 0.0)" width="56.0" xlink:href="#sprite16"/>
    </g>
    <g id="sprite16" transform="matrix(1.0, 0.0, 0.0, 1.0, 0.0, 0.0)">
      <use ffdec:characterId="47" ffdec:characterName="218_fla.Symbole324_18" height="56.0" id="back" transform="matrix(1.0, 0.0, 0.0, 1.0, 0.0, 0.0)" width="56.0" xlink:href="#sprite17"/>
    </g>
    <g id="sprite17" transform="matrix(1.0, 0.0, 0.0, 1.0, 0.0, 0.0)">
      <use ffdec:characterId="46" ffdec:characterName="218_fla.Symbole321_19" height="56.0" id="back" transform="matrix(1.0, 0.0, 0.0, 1.0, 0.0, 0.0)" width="56.0" xlink:href="#sprite18"/>
    </g>
    <g id="sprite18" transform="matrix(1.0, 0.0, 0.0, 1.0, 0.0, 0.0)">
      <use ffdec:characterId="45" ffdec:characterName="218_fla.Symbole318_20" height="56.0" id="back" transform="matrix(1.0, 0.0, 0.0, 1.0, 0.0, 0.0)" width="56.0" xlink:href="#sprite19"/>
    </g>
    <g id="sprite19" transform="matrix(1.0, 0.0, 0.0, 1.0, 0.0, 0.0)">
      <use ffdec:characterId="44" ffdec:characterName="218_fla.Symbole315_21" height="56.0" id="back" transform="matrix(1.0, 0.0, 0.0, 1.0, 0.0, 0.0)" width="56.0" xlink:href="#sprite20"/>
    </g>
    <g id="sprite20" transform="matrix(1.0, 0.0, 0.0, 1.0, 0.0, 0.0)">
      <use ffdec:characterId="43" ffdec:characterName="218_fla.Symbole312_22" height="56.0" id="back" transform="matrix(1.0, 0.0, 0.0, 1.0, 0.0, 0.0)" width="56.0" xlink:href="#sprite21"/>
    </g>
    <g id="sprite21" transform="matrix(1.0, 0.0, 0.0, 1.0, 0.0, 0.0)">
      <use ffdec:characterId="42" ffdec:characterName="218_fla.Symbole309_23" height="56.0" id="back" transform="matrix(1.0, 0.0, 0.0, 1.0, 0.0, 0.0)" width="56.0" xlink:href="#sprite22"/>
    </g>
    <g id="sprite22" transform="matrix(1.0, 0.0, 0.0, 1.0, 0.0, 0.0)">
      <use ffdec:characterId="41" ffdec:characterName="218_fla.Symbole306_24" height="56.0" id="back" transform="matrix(1.0, 0.0, 0.0, 1.0, 0.0, 0.0)" width="56.0" xlink:href="#sprite23"/>
    </g>
    <g id="sprite23" transform="matrix(1.0, 0.0, 0.0, 1.0, 0.0, 0.0)">
      <use ffdec:characterId="40" ffdec:characterName="218_fla.Symbole303_25" height="56.0" id="back" transform="matrix(1.0, 0.0, 0.0, 1.0, 0.0, 0.0)" width="56.0" xlink:href="#sprite24"/>
    </g>
    <g id="sprite24" transform="matrix(1.0, 0.0, 0.0, 1.0, 0.0, 0.0)">
      <use ffdec:characterId="39" ffdec:characterName="218_fla.Symbole300_26" height="56.0" id="back" transform="matrix(1.0, 0.0, 0.0, 1.0, 0.0, 0.0)" width="56.0" xlink:href="#sprite25"/>
    </g>
    <g id="sprite25" transform="matrix(1.0, 0.0, 0.0, 1.0, 0.0, 0.0)">
      <use ffdec:characterId="38" ffdec:characterName="218_fla.Symbole297_27" height="56.0" id="back" transform="matrix(1.0, 0.0, 0.0, 1.0, 0.0, 0.0)" width="56.0" xlink:href="#sprite26"/>
    </g>
    <g id="sprite26" transform="matrix(1.0, 0.0, 0.0, 1.0, 0.0, 0.0)">
      <use ffdec:characterId="37" ffdec:characterName="218_fla.Symbole294_28" height="56.0" id="back" transform="matrix(1.0, 0.0, 0.0, 1.0, 0.0, 0.0)" width="56.0" xlink:href="#sprite27"/>
    </g>
    <g id="sprite27" transform="matrix(1.0, 0.0, 0.0, 1.0, 0.0, 0.0)">
      <use ffdec:characterId="36" ffdec:characterName="218_fla.Symbole291_29" height="56.0" id="back" transform="matrix(1.0, 0.0, 0.0, 1.0, 0.0, 0.0)" width="56.0" xlink:href="#sprite28"/>
    </g>
    <g id="sprite28" transform="matrix(1.0, 0.0, 0.0, 1.0, 0.0, 0.0)">
      <use ffdec:characterId="35" ffdec:characterName="218_fla.Symbole288_30" height="56.0" id="back" transform="matrix(1.0, 0.0, 0.0, 1.0, 0.0, 0.0)" width="56.0" xlink:href="#sprite29"/>
    </g>
    <g id="sprite29" transform="matrix(1.0, 0.0, 0.0, 1.0, 0.0, 0.0)">
      <use ffdec:characterId="34" ffdec:characterName="218_fla.Symbole285_31" height="56.0" id="back" transform="matrix(1.0, 0.0, 0.0, 1.0, 0.0, 0.0)" width="56.0" xlink:href="#sprite30"/>
    </g>
    <g id="sprite30" transform="matrix(1.0, 0.0, 0.0, 1.0, 0.0, 0.0)">
      <use ffdec:characterId="33" ffdec:characterName="218_fla.Symbole282_32" height="56.0" id="back" transform="matrix(1.0, 0.0, 0.0, 1.0, 0.0, 0.0)" width="56.0" xlink:href="#sprite31"/>
    </g>
    <g id="sprite31" transform="matrix(1.0, 0.0, 0.0, 1.0, 0.0, 0.0)">
      <use ffdec:characterId="32" ffdec:characterName="218_fla.Symbole279_33" height="56.0" id="back" transform="matrix(1.0, 0.0, 0.0, 1.0, 0.0, 0.0)" width="56.0" xlink:href="#sprite32"/>
    </g>
    <g id="sprite32" transform="matrix(1.0, 0.0, 0.0, 1.0, 0.0, 0.0)">
      <use ffdec:characterId="31" ffdec:characterName="218_fla.Symbole276_34" height="56.0" id="back" transform="matrix(1.0, 0.0, 0.0, 1.0, 0.0, 0.0)" width="56.0" xlink:href="#sprite33"/>
    </g>
    <g id="sprite33" transform="matrix(1.0, 0.0, 0.0, 1.0, 0.0, 0.0)">
      <use ffdec:characterId="30" ffdec:characterName="218_fla.Symbole273_35" height="56.0" id="back" transform="matrix(1.0, 0.0, 0.0, 1.0, 0.0, 0.0)" width="56.0" xlink:href="#sprite34"/>
    </g>
    <g id="sprite34" transform="matrix(1.0, 0.0, 0.0, 1.0, 0.0, 0.0)">
      <use ffdec:characterId="29" ffdec:characterName="218_fla.Symbole270_36" height="56.0" id="back" transform="matrix(1.0, 0.0, 0.0, 1.0, 0.0, 0.0)" width="56.0" xlink:href="#sprite35"/>
    </g>
    <g id="sprite35" transform="matrix(1.0, 0.0, 0.0, 1.0, 0.0, 0.0)">
      <use ffdec:characterId="28" ffdec:characterName="218_fla.Symbole267_37" height="56.0" id="back" transform="matrix(1.0, 0.0, 0.0, 1.0, 0.0, 0.0)" width="56.0" xlink:href="#sprite36"/>
    </g>
    <g id="sprite36" transform="matrix(1.0, 0.0, 0.0, 1.0, 0.0, 0.0)">
      <use ffdec:characterId="27" ffdec:characterName="218_fla.Symbole264_38" height="56.0" id="back" transform="matrix(1.0, 0.0, 0.0, 1.0, 0.0, 0.0)" width="56.0" xlink:href="#sprite37"/>
    </g>
    <g id="sprite37" transform="matrix(1.0, 0.0, 0.0, 1.0, 0.0, 0.0)">
      <use ffdec:characterId="26" ffdec:characterName="218_fla.Symbole261_39" height="56.0" id="back" transform="matrix(1.0, 0.0, 0.0, 1.0, 0.0, 0.0)" width="56.0" xlink:href="#sprite38"/>
    </g>
    <g id="sprite38" transform="matrix(1.0, 0.0, 0.0, 1.0, 0.0, 0.0)">
      <use ffdec:characterId="25" ffdec:characterName="218_fla.Symbole258_40" height="56.0" id="back" transform="matrix(1.0, 0.0, 0.0, 1.0, 0.0, 0.0)" width="56.0" xlink:href="#sprite39"/>
    </g>
    <g id="sprite39" transform="matrix(1.0, 0.0, 0.0, 1.0, 0.0, 0.0)">
      <use ffdec:characterId="24" ffdec:characterName="218_fla.Symbole255_41" height="56.0" id="back" transform="matrix(1.0, 0.0, 0.0, 1.0, 0.0, 0.0)" width="56.0" xlink:href="#sprite40"/>
    </g>
    <g id="sprite40" transform="matrix(1.0, 0.0, 0.0, 1.0, 0.0, 0.0)">
      <use ffdec:characterId="23" ffdec:characterName="218_fla.Symbole252_42" height="56.0" id="back" transform="matrix(1.0, 0.0, 0.0, 1.0, 0.0, 0.0)" width="56.0" xlink:href="#sprite41"/>
    </g>
    <g id="sprite41" transform="matrix(1.0, 0.0, 0.0, 1.0, 0.0, 0.0)">
      <use ffdec:characterId="22" ffdec:characterName="218_fla.Symbole249_43" height="56.0" id="back" transform="matrix(1.0, 0.0, 0.0, 1.0, 0.0, 0.0)" width="56.0" xlink:href="#sprite42"/>
    </g>
    <g id="sprite42" transform="matrix(1.0, 0.0, 0.0, 1.0, 0.0, 0.0)">
      <use ffdec:characterId="21" ffdec:characterName="218_fla.Symbole246_44" height="56.0" id="back" transform="matrix(1.0, 0.0, 0.0, 1.0, 0.0, 0.0)" width="56.0" xlink:href="#sprite43"/>
    </g>
    <g id="sprite43" transform="matrix(1.0, 0.0, 0.0, 1.0, 0.0, 0.0)">
      <use ffdec:characterId="20" ffdec:characterName="218_fla.Symbole243_45" height="56.0" id="back" transform="matrix(1.0, 0.0, 0.0, 1.0, 0.0, 0.0)" width="56.0" xlink:href="#sprite44"/>
    </g>
    <g id="sprite44" transform="matrix(1.0, 0.0, 0.0, 1.0, 0.0, 0.0)">
      <use ffdec:characterId="19" ffdec:characterName="218_fla.Symbole240_46" height="56.0" id="back" transform="matrix(1.0, 0.0, 0.0, 1.0, 0.0, 0.0)" width="56.0" xlink:href="#sprite45"/>
    </g>
    <g id="sprite45" transform="matrix(1.0, 0.0, 0.0, 1.0, 0.0, 0.0)">
      <use ffdec:characterId="18" ffdec:characterName="218_fla.Symbole237_47" height="56.0" id="back" transform="matrix(1.0, 0.0, 0.0, 1.0, 0.0, 0.0)" width="56.0" xlink:href="#sprite46"/>
    </g>
    <g id="sprite46" transform="matrix(1.0, 0.0, 0.0, 1.0, 0.0, 0.0)">
      <use ffdec:characterId="17" ffdec:characterName="218_fla.Symbole234_48" height="56.0" id="back" transform="matrix(1.0, 0.0, 0.0, 1.0, 0.0, 0.0)" width="56.0" xlink:href="#sprite47"/>
    </g>
    <g id="sprite47" transform="matrix(1.0, 0.0, 0.0, 1.0, 0.0, 0.0)">
      <use ffdec:characterId="16" ffdec:characterName="218_fla.Symbole231_49" height="56.0" id="back" transform="matrix(1.0, 0.0, 0.0, 1.0, 0.0, 0.0)" width="56.0" xlink:href="#sprite48"/>
    </g>
    <g id="sprite48" transform="matrix(1.0, 0.0, 0.0, 1.0, 0.0, 0.0)">
      <use ffdec:characterId="15" ffdec:characterName="218_fla.Symbole228_50" height="56.0" id="back" transform="matrix(1.0, 0.0, 0.0, 1.0, 0.0, 0.0)" width="56.0" xlink:href="#sprite49"/>
    </g>
    <g id="sprite49" transform="matrix(1.0, 0.0, 0.0, 1.0, 0.0, 0.0)">
      <use ffdec:characterId="14" ffdec:characterName="218_fla.Symbole225_51" height="56.0" id="back" transform="matrix(1.0, 0.0, 0.0, 1.0, 0.0, 0.0)" width="56.0" xlink:href="#sprite50"/>
    </g>
    <g id="sprite50" transform="matrix(1.0, 0.0, 0.0, 1.0, 0.0, 0.0)">
      <use ffdec:characterId="13" ffdec:characterName="218_fla.Symbole222_52" height="56.0" id="back" transform="matrix(1.0, 0.0, 0.0, 1.0, 0.0, 0.0)" width="56.0" xlink:href="#sprite51"/>
    </g>
    <g id="sprite51" transform="matrix(1.0, 0.0, 0.0, 1.0, 0.0, 0.0)">
      <use ffdec:characterId="12" ffdec:characterName="218_fla.Symbole219_53" height="56.0" id="back" transform="matrix(1.0, 0.0, 0.0, 1.0, 0.0, 0.0)" width="56.0" xlink:href="#sprite52"/>
    </g>
    <g id="sprite52" transform="matrix(1.0, 0.0, 0.0, 1.0, 0.0, 0.0)">
      <use ffdec:characterId="11" ffdec:characterName="218_fla.Symbole216_54" height="56.0" id="back" transform="matrix(1.0, 0.0, 0.0, 1.0, 0.0, 0.0)" width="56.0" xlink:href="#sprite53"/>
    </g>
    <g id="sprite53" transform="matrix(1.0, 0.0, 0.0, 1.0, 0.0, 0.0)">
      <use ffdec:characterId="10" ffdec:characterName="218_fla.Symbole213_55" height="56.0" id="back" transform="matrix(1.0, 0.0, 0.0, 1.0, 0.0, 0.0)" width="56.0" xlink:href="#sprite54"/>
    </g>
    <g id="sprite54" transform="matrix(1.0, 0.0, 0.0, 1.0, 0.0, 0.0)">
      <use ffdec:characterId="9" ffdec:characterName="218_fla.Symbole210_56" height="56.0" id="back" transform="matrix(1.0, 0.0, 0.0, 1.0, 0.0, 0.0)" width="56.0" xlink:href="#sprite55"/>
    </g>
    <g id="sprite55" transform="matrix(1.0, 0.0, 0.0, 1.0, 0.0, 0.0)">
      <use ffdec:characterId="8" ffdec:characterName="218_fla.Symbole207_57" height="56.0" id="back" transform="matrix(1.0, 0.0, 0.0, 1.0, 0.0, 0.0)" width="56.0" xlink:href="#sprite56"/>
    </g>
    <g id="sprite56" transform="matrix(1.0, 0.0, 0.0, 1.0, 0.0, 0.0)">
      <use ffdec:characterId="7" ffdec:characterName="218_fla.Symbole204_58" height="56.0" id="back" transform="matrix(1.0, 0.0, 0.0, 1.0, 0.0, 0.0)" width="56.0" xlink:href="#sprite57"/>
    </g>
    <g id="sprite57" transform="matrix(1.0, 0.0, 0.0, 1.0, 0.0, 0.0)">
      <use ffdec:characterId="6" ffdec:characterName="218_fla.Symbole201_59" height="56.0" id="back" transform="matrix(1.0, 0.0, 0.0, 1.0, 0.0, 0.0)" width="56.0" xlink:href="#sprite58"/>
    </g>
    <g id="sprite58" transform="matrix(1.0, 0.0, 0.0, 1.0, 0.0, 0.0)">
      <use ffdec:characterId="5" ffdec:characterName="218_fla.Symbole198_60" height="56.0" id="back" transform="matrix(1.0, 0.0, 0.0, 1.0, 0.0, 0.0)" width="56.0" xlink:href="#sprite59"/>
    </g>
    <g id="sprite59" transform="matrix(1.0, 0.0, 0.0, 1.0, 0.0, 0.0)">
      <use ffdec:characterId="4" ffdec:characterName="218_fla.Symbole195_61" height="56.0" id="back" transform="matrix(1.0, 0.0, 0.0, 1.0, 0.0, 0.0)" width="56.0" xlink:href="#sprite60"/>
    </g>
    <g id="sprite60" transform="matrix(1.0, 0.0, 0.0, 1.0, 0.0, 0.0)">
      <use ffdec:characterId="3" ffdec:characterName="218_fla.Symbole192_62" height="56.0" id="back" transform="matrix(1.0, 0.0, 0.0, 1.0, 0.0, 0.0)" width="56.0" xlink:href="#sprite61"/>
    </g>
    <g id="sprite61" transform="matrix(1.0, 0.0, 0.0, 1.0, 0.0, 0.0)">
      <use ffdec:characterId="2" height="56.0" id="back" transform="matrix(1.0, 0.0, 0.0, 1.0, 0.0, 0.0)" width="56.0" xlink:href="#sprite62"/>
    </g>
    <g id="sprite62" transform="matrix(1.0, 0.0, 0.0, 1.0, 0.0, 0.0)">
      <use ffdec:characterId="1" height="56.0" transform="matrix(1.0, 0.0, 0.0, 1.0, 0.0, 0.0)" width="56.0" xlink:href="#shape0"/>
    </g>
    <g id="shape0" transform="matrix(1.0, 0.0, 0.0, 1.0, 0.0, 0.0)">
      <path d="M56.0 56.0 L0.0 56.0 0.0 0.0 56.0 0.0 56.0 56.0" fill="#010101" fill-opacity="0.0" fill-rule="evenodd" stroke="none"/>
    </g>
    <g id="sprite63" transform="matrix(1.0, 0.0, 0.0, 1.0, 0.75, 0.75)">
      <use ffdec:characterId="65" height="55.25" transform="matrix(1.0, 0.0, 0.0, 1.0, -0.75, -0.75)" width="51.5" xlink:href="#shape1"/>
    </g>
    <g id="shape1" transform="matrix(1.0, 0.0, 0.0, 1.0, 0.75, 0.75)">
      <path d="M41.5 23.25 Q39.55 24.95 37.0 25.6 L34.45 25.75 Q30.3 25.75 27.35 23.25 25.65 21.7 24.95 19.85 25.35 22.5 27.6 24.55 30.6 27.05 34.85 27.05 L36.45 26.95 Q34.2 32.75 33.5 38.0 L33.4 38.05 33.1 38.15 Q31.8 38.5 31.4 35.3 L31.25 38.0 Q30.15 40.35 29.5 36.55 L29.0 32.25 Q29.1 36.3 28.3 38.85 26.85 41.35 26.2 36.35 L25.8 31.85 25.8 36.35 Q25.5 39.25 24.6 39.95 L24.3 40.05 23.35 40.05 Q22.05 39.35 21.65 35.8 L21.6 33.4 21.35 36.3 Q20.6 40.5 18.7 38.95 18.0 37.75 17.75 35.25 17.2 39.35 15.45 37.75 14.55 32.6 12.55 26.85 L13.85 26.95 Q18.05 26.95 21.0 24.3 23.55 22.15 23.85 19.2 23.2 21.2 21.35 22.95 18.3 25.5 14.15 25.5 L12.0 25.3 Q9.1 24.8 7.05 22.95 4.1 20.35 4.1 16.65 4.1 13.0 7.05 10.35 10.05 7.8 14.15 7.8 L14.6 7.8 Q14.8 6.5 15.3 5.4 L15.65 4.7 Q16.3 3.6 17.5 2.55 20.45 0.0 24.6 0.0 28.85 0.0 31.75 2.55 33.1 3.8 33.85 5.25 34.55 6.5 34.7 8.05 L35.05 8.05 Q38.85 8.3 41.5 10.7 44.5 13.3 44.5 17.0 44.5 20.65 41.5 23.25 M47.95 29.25 L46.5 28.15 Q44.9 26.95 42.85 27.15 40.85 27.5 39.55 29.1 L35.75 34.15 Q34.45 35.75 34.75 37.7 35.0 39.4 36.2 40.6 L28.05 51.15 Q27.6 51.7 27.65 52.35 27.75 53.05 28.3 53.4 28.85 53.75 29.5 53.7 30.2 53.6 30.7 53.1 L38.85 42.55 Q40.2 43.3 41.8 43.0 43.8 42.75 45.05 41.25 L48.9 36.15 Q50.15 34.55 49.95 32.45 49.65 30.55 47.95 29.25 M42.6 39.5 Q43.95 39.25 44.9 38.05 47.4 35.65 47.7 34.85 L47.3 35.6 44.5 39.15 Q43.65 40.35 42.05 40.6 40.7 40.85 39.4 39.95 L38.35 39.1 Q37.25 38.2 36.95 36.7 36.75 35.65 37.25 34.75 L37.45 34.45 37.3 35.0 37.45 35.6 Q37.65 37.1 38.85 38.0 L39.85 38.85 Q41.05 39.8 42.6 39.5 M21.35 10.35 Q24.2 13.0 24.4 15.4 L24.4 15.95 Q24.85 13.0 27.15 10.75 26.05 11.65 24.95 11.8 23.35 12.1 22.45 11.3 L21.35 10.35 M8.15 29.25 Q7.7 29.35 7.35 29.6 L6.7 30.3 6.55 30.55 Q6.5 31.35 6.95 31.85 L9.9 35.8 9.35 36.2 6.4 32.25 5.2 31.55 5.0 31.55 Q4.5 31.65 4.1 31.9 L3.6 32.6 Q3.45 32.75 3.45 32.95 3.3 33.65 3.75 34.15 L6.65 38.15 5.9 38.75 2.95 34.75 Q2.5 34.25 1.75 34.1 L1.55 34.1 Q1.1 34.15 0.65 34.45 0.25 34.75 0.1 35.15 L0.0 35.45 Q-0.1 36.2 0.35 36.7 L3.6 41.15 Q4.8 42.75 6.65 43.05 8.3 43.25 9.75 42.5 L17.6 53.1 Q18.0 53.6 18.7 53.7 19.4 53.85 19.95 53.4 20.45 53.05 20.55 52.35 20.6 51.75 20.25 51.2 L12.4 40.6 Q13.5 39.5 13.75 37.9 14.0 35.95 12.8 34.3 L9.6 29.9 Q9.1 29.35 8.45 29.25 L8.15 29.25 M15.35 39.4 Q24.3 42.75 33.35 39.4 L33.5 39.5 33.4 41.55 28.45 47.8 22.35 48.15 18.95 47.65 18.75 47.65 15.45 42.85 15.35 39.4 Z" fill="none" stroke="#000000" stroke-linecap="round" stroke-linejoin="round" stroke-opacity="0.2" stroke-width="1.5"/>
    </g>
    <g id="sprite64" transform="matrix(1.0, 0.0, 0.0, 1.0, 0.0, 0.0)">
      <use ffdec:characterId="67" height="53.75" transform="matrix(1.0, 0.0, 0.0, 1.0, 0.0, 0.0)" width="50.0" xlink:href="#shape2"/>
    </g>
    <g id="shape2" transform="matrix(1.0, 0.0, 0.0, 1.0, 0.0, 0.0)">
      <path d="M44.5 17.0 Q44.5 20.65 41.5 23.25 39.55 24.95 37.0 25.6 L34.45 25.75 Q30.3 25.75 27.35 23.25 25.65 21.7 24.95 19.85 25.35 22.5 27.6 24.55 30.6 27.05 34.85 27.05 L36.45 26.95 Q34.2 32.75 33.5 38.0 L33.4 38.05 33.1 38.15 Q31.8 38.5 31.4 35.3 L31.25 38.0 Q30.15 40.35 29.5 36.55 L29.0 32.25 Q29.1 36.3 28.3 38.85 26.85 41.35 26.2 36.35 L25.8 31.85 25.8 36.35 Q25.5 39.25 24.6 39.95 L24.3 40.05 23.35 40.05 Q22.05 39.35 21.65 35.8 L21.6 33.4 21.35 36.3 Q20.6 40.5 18.7 38.95 18.0 37.75 17.75 35.25 17.2 39.35 15.45 37.75 14.55 32.6 12.55 26.85 L13.85 26.95 Q18.05 26.95 21.0 24.3 23.55 22.15 23.85 19.2 23.2 21.2 21.35 22.95 18.3 25.5 14.15 25.5 L12.0 25.3 Q9.1 24.8 7.05 22.95 4.1 20.35 4.1 16.65 4.1 13.0 7.05 10.35 10.05 7.8 14.15 7.8 L14.6 7.8 Q14.8 6.5 15.3 5.4 L15.65 4.7 Q16.3 3.6 17.5 2.55 20.45 0.0 24.6 0.0 28.85 0.0 31.75 2.55 33.1 3.8 33.85 5.25 34.55 6.5 34.7 8.05 L35.05 8.05 Q38.85 8.3 41.5 10.7 44.5 13.3 44.5 17.0 M42.6 39.5 Q41.05 39.8 39.85 38.85 L38.85 38.0 Q37.65 37.1 37.45 35.6 L37.3 35.0 37.45 34.45 37.25 34.75 Q36.75 35.65 36.95 36.7 37.25 38.2 38.35 39.1 L39.4 39.95 Q40.7 40.85 42.05 40.6 43.65 40.35 44.5 39.15 L47.3 35.6 47.7 34.85 Q47.4 35.65 44.9 38.05 43.95 39.25 42.6 39.5 M47.95 29.25 Q49.65 30.55 49.95 32.45 50.15 34.55 48.9 36.15 L45.05 41.25 Q43.8 42.75 41.8 43.0 40.2 43.3 38.85 42.55 L30.7 53.1 Q30.2 53.6 29.5 53.7 28.85 53.75 28.3 53.4 27.75 53.05 27.65 52.35 27.6 51.7 28.05 51.15 L36.2 40.6 Q35.0 39.4 34.75 37.7 34.45 35.75 35.75 34.15 L39.55 29.1 Q40.85 27.5 42.85 27.15 44.9 26.95 46.5 28.15 L47.95 29.25 M21.35 10.35 Q24.2 13.0 24.4 15.4 L24.4 15.95 Q24.85 13.0 27.15 10.75 26.05 11.65 24.95 11.8 23.35 12.1 22.45 11.3 L21.35 10.35 M8.15 29.25 L8.45 29.25 Q9.1 29.35 9.6 29.9 L12.8 34.3 Q14.0 35.95 13.75 37.9 13.5 39.5 12.4 40.6 L20.25 51.2 Q20.6 51.75 20.55 52.35 20.45 53.05 19.95 53.4 19.4 53.85 18.7 53.7 18.0 53.6 17.6 53.1 L9.75 42.5 Q8.3 43.25 6.65 43.05 4.8 42.75 3.6 41.15 L0.35 36.7 Q-0.1 36.2 0.0 35.45 L0.1 35.15 Q0.25 34.75 0.65 34.45 1.1 34.15 1.55 34.1 L1.75 34.1 Q2.5 34.25 2.95 34.75 L5.9 38.75 6.65 38.15 3.75 34.15 Q3.3 33.65 3.45 32.95 3.45 32.75 3.6 32.6 L4.1 31.9 Q4.5 31.65 5.0 31.55 L5.2 31.55 6.4 32.25 9.35 36.2 9.9 35.8 6.95 31.85 Q6.5 31.35 6.55 30.55 L6.7 30.3 7.35 29.6 Q7.7 29.35 8.15 29.25 M15.35 39.4 Q24.3 42.75 33.35 39.4 L33.5 39.5 33.4 41.55 28.45 47.8 22.35 48.15 18.95 47.65 18.75 47.65 15.45 42.85 15.35 39.4" fill="#000000" fill-rule="evenodd" stroke="none"/>
    </g>
  </defs>
</svg>
