<?xml version="1.0" encoding="UTF-8" standalone="no"?>
<svg xmlns:ffdec="https://www.free-decompiler.com/flash" xmlns:xlink="http://www.w3.org/1999/xlink" ffdec:objectType="frame" height="56.0px" width="56.0px" xmlns="http://www.w3.org/2000/svg">
  <g transform="matrix(1.0, 0.0, 0.0, 1.0, 0.0, 0.0)">
    <use ffdec:characterId="66" ffdec:characterName="220_fla.Symbole381_1" height="56.0" id="back" transform="matrix(1.0, 0.0, 0.0, 1.0, 0.0, 0.0)" width="56.0" xlink:href="#sprite0"/>
    <use ffdec:characterId="68" height="46.25" id="back" transform="matrix(1.0, 0.0, 0.0, 1.0, 0.35, 4.75)" width="55.35" xlink:href="#sprite65"/>
    <use ffdec:characterId="70" height="44.7" id="up" transform="matrix(1.0, 0.0, 0.0, 1.0, 1.1, 5.5)" width="53.9" xlink:href="#sprite66"/>
  </g>
  <defs>
    <g id="sprite0" transform="matrix(1.0, 0.0, 0.0, 1.0, 0.0, 0.0)">
      <use ffdec:characterId="65" ffdec:characterName="220_fla.Symbole378_2" height="56.0" id="back" transform="matrix(1.0, 0.0, 0.0, 1.0, 0.0, 0.0)" width="56.0" xlink:href="#sprite1"/>
    </g>
    <g id="sprite1" transform="matrix(1.0, 0.0, 0.0, 1.0, 0.0, 0.0)">
      <use ffdec:characterId="64" ffdec:characterName="220_fla.Symbole375_3" height="56.0" id="back" transform="matrix(1.0, 0.0, 0.0, 1.0, 0.0, 0.0)" width="56.0" xlink:href="#sprite2"/>
    </g>
    <g id="sprite2" transform="matrix(1.0, 0.0, 0.0, 1.0, 0.0, 0.0)">
      <use ffdec:characterId="63" ffdec:characterName="220_fla.Symbole372_4" height="56.0" id="back" transform="matrix(1.0, 0.0, 0.0, 1.0, 0.0, 0.0)" width="56.0" xlink:href="#sprite3"/>
    </g>
    <g id="sprite3" transform="matrix(1.0, 0.0, 0.0, 1.0, 0.0, 0.0)">
      <use ffdec:characterId="62" ffdec:characterName="220_fla.Symbole369_5" height="56.0" id="back" transform="matrix(1.0, 0.0, 0.0, 1.0, 0.0, 0.0)" width="56.0" xlink:href="#sprite4"/>
    </g>
    <g id="sprite4" transform="matrix(1.0, 0.0, 0.0, 1.0, 0.0, 0.0)">
      <use ffdec:characterId="61" ffdec:characterName="220_fla.Symbole366_6" height="56.0" id="back" transform="matrix(1.0, 0.0, 0.0, 1.0, 0.0, 0.0)" width="56.0" xlink:href="#sprite5"/>
    </g>
    <g id="sprite5" transform="matrix(1.0, 0.0, 0.0, 1.0, 0.0, 0.0)">
      <use ffdec:characterId="60" ffdec:characterName="220_fla.Symbole363_7" height="56.0" id="back" transform="matrix(1.0, 0.0, 0.0, 1.0, 0.0, 0.0)" width="56.0" xlink:href="#sprite6"/>
    </g>
    <g id="sprite6" transform="matrix(1.0, 0.0, 0.0, 1.0, 0.0, 0.0)">
      <use ffdec:characterId="59" ffdec:characterName="220_fla.Symbole360_8" height="56.0" id="back" transform="matrix(1.0, 0.0, 0.0, 1.0, 0.0, 0.0)" width="56.0" xlink:href="#sprite7"/>
    </g>
    <g id="sprite7" transform="matrix(1.0, 0.0, 0.0, 1.0, 0.0, 0.0)">
      <use ffdec:characterId="58" ffdec:characterName="220_fla.Symbole357_9" height="56.0" id="back" transform="matrix(1.0, 0.0, 0.0, 1.0, 0.0, 0.0)" width="56.0" xlink:href="#sprite8"/>
    </g>
    <g id="sprite8" transform="matrix(1.0, 0.0, 0.0, 1.0, 0.0, 0.0)">
      <use ffdec:characterId="57" ffdec:characterName="220_fla.Symbole354_10" height="56.0" id="back" transform="matrix(1.0, 0.0, 0.0, 1.0, 0.0, 0.0)" width="56.0" xlink:href="#sprite9"/>
    </g>
    <g id="sprite9" transform="matrix(1.0, 0.0, 0.0, 1.0, 0.0, 0.0)">
      <use ffdec:characterId="56" ffdec:characterName="220_fla.Symbole351_11" height="56.0" id="back" transform="matrix(1.0, 0.0, 0.0, 1.0, 0.0, 0.0)" width="56.0" xlink:href="#sprite10"/>
    </g>
    <g id="sprite10" transform="matrix(1.0, 0.0, 0.0, 1.0, 0.0, 0.0)">
      <use ffdec:characterId="55" ffdec:characterName="220_fla.Symbole348_12" height="56.0" id="back" transform="matrix(1.0, 0.0, 0.0, 1.0, 0.0, 0.0)" width="56.0" xlink:href="#sprite11"/>
    </g>
    <g id="sprite11" transform="matrix(1.0, 0.0, 0.0, 1.0, 0.0, 0.0)">
      <use ffdec:characterId="54" ffdec:characterName="220_fla.Symbole345_13" height="56.0" id="back" transform="matrix(1.0, 0.0, 0.0, 1.0, 0.0, 0.0)" width="56.0" xlink:href="#sprite12"/>
    </g>
    <g id="sprite12" transform="matrix(1.0, 0.0, 0.0, 1.0, 0.0, 0.0)">
      <use ffdec:characterId="53" ffdec:characterName="220_fla.Symbole342_14" height="56.0" id="back" transform="matrix(1.0, 0.0, 0.0, 1.0, 0.0, 0.0)" width="56.0" xlink:href="#sprite13"/>
    </g>
    <g id="sprite13" transform="matrix(1.0, 0.0, 0.0, 1.0, 0.0, 0.0)">
      <use ffdec:characterId="52" ffdec:characterName="220_fla.Symbole339_15" height="56.0" id="back" transform="matrix(1.0, 0.0, 0.0, 1.0, 0.0, 0.0)" width="56.0" xlink:href="#sprite14"/>
    </g>
    <g id="sprite14" transform="matrix(1.0, 0.0, 0.0, 1.0, 0.0, 0.0)">
      <use ffdec:characterId="51" ffdec:characterName="220_fla.Symbole336_16" height="56.0" id="back" transform="matrix(1.0, 0.0, 0.0, 1.0, 0.0, 0.0)" width="56.0" xlink:href="#sprite15"/>
    </g>
    <g id="sprite15" transform="matrix(1.0, 0.0, 0.0, 1.0, 0.0, 0.0)">
      <use ffdec:characterId="50" ffdec:characterName="220_fla.Symbole333_17" height="56.0" id="back" transform="matrix(1.0, 0.0, 0.0, 1.0, 0.0, 0.0)" width="56.0" xlink:href="#sprite16"/>
    </g>
    <g id="sprite16" transform="matrix(1.0, 0.0, 0.0, 1.0, 0.0, 0.0)">
      <use ffdec:characterId="49" ffdec:characterName="220_fla.Symbole330_18" height="56.0" id="back" transform="matrix(1.0, 0.0, 0.0, 1.0, 0.0, 0.0)" width="56.0" xlink:href="#sprite17"/>
    </g>
    <g id="sprite17" transform="matrix(1.0, 0.0, 0.0, 1.0, 0.0, 0.0)">
      <use ffdec:characterId="48" ffdec:characterName="220_fla.Symbole327_19" height="56.0" id="back" transform="matrix(1.0, 0.0, 0.0, 1.0, 0.0, 0.0)" width="56.0" xlink:href="#sprite18"/>
    </g>
    <g id="sprite18" transform="matrix(1.0, 0.0, 0.0, 1.0, 0.0, 0.0)">
      <use ffdec:characterId="47" ffdec:characterName="220_fla.Symbole324_20" height="56.0" id="back" transform="matrix(1.0, 0.0, 0.0, 1.0, 0.0, 0.0)" width="56.0" xlink:href="#sprite19"/>
    </g>
    <g id="sprite19" transform="matrix(1.0, 0.0, 0.0, 1.0, 0.0, 0.0)">
      <use ffdec:characterId="46" ffdec:characterName="220_fla.Symbole321_21" height="56.0" id="back" transform="matrix(1.0, 0.0, 0.0, 1.0, 0.0, 0.0)" width="56.0" xlink:href="#sprite20"/>
    </g>
    <g id="sprite20" transform="matrix(1.0, 0.0, 0.0, 1.0, 0.0, 0.0)">
      <use ffdec:characterId="45" ffdec:characterName="220_fla.Symbole318_22" height="56.0" id="back" transform="matrix(1.0, 0.0, 0.0, 1.0, 0.0, 0.0)" width="56.0" xlink:href="#sprite21"/>
    </g>
    <g id="sprite21" transform="matrix(1.0, 0.0, 0.0, 1.0, 0.0, 0.0)">
      <use ffdec:characterId="44" ffdec:characterName="220_fla.Symbole315_23" height="56.0" id="back" transform="matrix(1.0, 0.0, 0.0, 1.0, 0.0, 0.0)" width="56.0" xlink:href="#sprite22"/>
    </g>
    <g id="sprite22" transform="matrix(1.0, 0.0, 0.0, 1.0, 0.0, 0.0)">
      <use ffdec:characterId="43" ffdec:characterName="220_fla.Symbole312_24" height="56.0" id="back" transform="matrix(1.0, 0.0, 0.0, 1.0, 0.0, 0.0)" width="56.0" xlink:href="#sprite23"/>
    </g>
    <g id="sprite23" transform="matrix(1.0, 0.0, 0.0, 1.0, 0.0, 0.0)">
      <use ffdec:characterId="42" ffdec:characterName="220_fla.Symbole309_25" height="56.0" id="back" transform="matrix(1.0, 0.0, 0.0, 1.0, 0.0, 0.0)" width="56.0" xlink:href="#sprite24"/>
    </g>
    <g id="sprite24" transform="matrix(1.0, 0.0, 0.0, 1.0, 0.0, 0.0)">
      <use ffdec:characterId="41" ffdec:characterName="220_fla.Symbole306_26" height="56.0" id="back" transform="matrix(1.0, 0.0, 0.0, 1.0, 0.0, 0.0)" width="56.0" xlink:href="#sprite25"/>
    </g>
    <g id="sprite25" transform="matrix(1.0, 0.0, 0.0, 1.0, 0.0, 0.0)">
      <use ffdec:characterId="40" ffdec:characterName="220_fla.Symbole303_27" height="56.0" id="back" transform="matrix(1.0, 0.0, 0.0, 1.0, 0.0, 0.0)" width="56.0" xlink:href="#sprite26"/>
    </g>
    <g id="sprite26" transform="matrix(1.0, 0.0, 0.0, 1.0, 0.0, 0.0)">
      <use ffdec:characterId="39" ffdec:characterName="220_fla.Symbole300_28" height="56.0" id="back" transform="matrix(1.0, 0.0, 0.0, 1.0, 0.0, 0.0)" width="56.0" xlink:href="#sprite27"/>
    </g>
    <g id="sprite27" transform="matrix(1.0, 0.0, 0.0, 1.0, 0.0, 0.0)">
      <use ffdec:characterId="38" ffdec:characterName="220_fla.Symbole297_29" height="56.0" id="back" transform="matrix(1.0, 0.0, 0.0, 1.0, 0.0, 0.0)" width="56.0" xlink:href="#sprite28"/>
    </g>
    <g id="sprite28" transform="matrix(1.0, 0.0, 0.0, 1.0, 0.0, 0.0)">
      <use ffdec:characterId="37" ffdec:characterName="220_fla.Symbole294_30" height="56.0" id="back" transform="matrix(1.0, 0.0, 0.0, 1.0, 0.0, 0.0)" width="56.0" xlink:href="#sprite29"/>
    </g>
    <g id="sprite29" transform="matrix(1.0, 0.0, 0.0, 1.0, 0.0, 0.0)">
      <use ffdec:characterId="36" ffdec:characterName="220_fla.Symbole291_31" height="56.0" id="back" transform="matrix(1.0, 0.0, 0.0, 1.0, 0.0, 0.0)" width="56.0" xlink:href="#sprite30"/>
    </g>
    <g id="sprite30" transform="matrix(1.0, 0.0, 0.0, 1.0, 0.0, 0.0)">
      <use ffdec:characterId="35" ffdec:characterName="220_fla.Symbole288_32" height="56.0" id="back" transform="matrix(1.0, 0.0, 0.0, 1.0, 0.0, 0.0)" width="56.0" xlink:href="#sprite31"/>
    </g>
    <g id="sprite31" transform="matrix(1.0, 0.0, 0.0, 1.0, 0.0, 0.0)">
      <use ffdec:characterId="34" ffdec:characterName="220_fla.Symbole285_33" height="56.0" id="back" transform="matrix(1.0, 0.0, 0.0, 1.0, 0.0, 0.0)" width="56.0" xlink:href="#sprite32"/>
    </g>
    <g id="sprite32" transform="matrix(1.0, 0.0, 0.0, 1.0, 0.0, 0.0)">
      <use ffdec:characterId="33" ffdec:characterName="220_fla.Symbole282_34" height="56.0" id="back" transform="matrix(1.0, 0.0, 0.0, 1.0, 0.0, 0.0)" width="56.0" xlink:href="#sprite33"/>
    </g>
    <g id="sprite33" transform="matrix(1.0, 0.0, 0.0, 1.0, 0.0, 0.0)">
      <use ffdec:characterId="32" ffdec:characterName="220_fla.Symbole279_35" height="56.0" id="back" transform="matrix(1.0, 0.0, 0.0, 1.0, 0.0, 0.0)" width="56.0" xlink:href="#sprite34"/>
    </g>
    <g id="sprite34" transform="matrix(1.0, 0.0, 0.0, 1.0, 0.0, 0.0)">
      <use ffdec:characterId="31" ffdec:characterName="220_fla.Symbole276_36" height="56.0" id="back" transform="matrix(1.0, 0.0, 0.0, 1.0, 0.0, 0.0)" width="56.0" xlink:href="#sprite35"/>
    </g>
    <g id="sprite35" transform="matrix(1.0, 0.0, 0.0, 1.0, 0.0, 0.0)">
      <use ffdec:characterId="30" ffdec:characterName="220_fla.Symbole273_37" height="56.0" id="back" transform="matrix(1.0, 0.0, 0.0, 1.0, 0.0, 0.0)" width="56.0" xlink:href="#sprite36"/>
    </g>
    <g id="sprite36" transform="matrix(1.0, 0.0, 0.0, 1.0, 0.0, 0.0)">
      <use ffdec:characterId="29" ffdec:characterName="220_fla.Symbole270_38" height="56.0" id="back" transform="matrix(1.0, 0.0, 0.0, 1.0, 0.0, 0.0)" width="56.0" xlink:href="#sprite37"/>
    </g>
    <g id="sprite37" transform="matrix(1.0, 0.0, 0.0, 1.0, 0.0, 0.0)">
      <use ffdec:characterId="28" ffdec:characterName="220_fla.Symbole267_39" height="56.0" id="back" transform="matrix(1.0, 0.0, 0.0, 1.0, 0.0, 0.0)" width="56.0" xlink:href="#sprite38"/>
    </g>
    <g id="sprite38" transform="matrix(1.0, 0.0, 0.0, 1.0, 0.0, 0.0)">
      <use ffdec:characterId="27" ffdec:characterName="220_fla.Symbole264_40" height="56.0" id="back" transform="matrix(1.0, 0.0, 0.0, 1.0, 0.0, 0.0)" width="56.0" xlink:href="#sprite39"/>
    </g>
    <g id="sprite39" transform="matrix(1.0, 0.0, 0.0, 1.0, 0.0, 0.0)">
      <use ffdec:characterId="26" ffdec:characterName="220_fla.Symbole261_41" height="56.0" id="back" transform="matrix(1.0, 0.0, 0.0, 1.0, 0.0, 0.0)" width="56.0" xlink:href="#sprite40"/>
    </g>
    <g id="sprite40" transform="matrix(1.0, 0.0, 0.0, 1.0, 0.0, 0.0)">
      <use ffdec:characterId="25" ffdec:characterName="220_fla.Symbole258_42" height="56.0" id="back" transform="matrix(1.0, 0.0, 0.0, 1.0, 0.0, 0.0)" width="56.0" xlink:href="#sprite41"/>
    </g>
    <g id="sprite41" transform="matrix(1.0, 0.0, 0.0, 1.0, 0.0, 0.0)">
      <use ffdec:characterId="24" ffdec:characterName="220_fla.Symbole255_43" height="56.0" id="back" transform="matrix(1.0, 0.0, 0.0, 1.0, 0.0, 0.0)" width="56.0" xlink:href="#sprite42"/>
    </g>
    <g id="sprite42" transform="matrix(1.0, 0.0, 0.0, 1.0, 0.0, 0.0)">
      <use ffdec:characterId="23" ffdec:characterName="220_fla.Symbole252_44" height="56.0" id="back" transform="matrix(1.0, 0.0, 0.0, 1.0, 0.0, 0.0)" width="56.0" xlink:href="#sprite43"/>
    </g>
    <g id="sprite43" transform="matrix(1.0, 0.0, 0.0, 1.0, 0.0, 0.0)">
      <use ffdec:characterId="22" ffdec:characterName="220_fla.Symbole249_45" height="56.0" id="back" transform="matrix(1.0, 0.0, 0.0, 1.0, 0.0, 0.0)" width="56.0" xlink:href="#sprite44"/>
    </g>
    <g id="sprite44" transform="matrix(1.0, 0.0, 0.0, 1.0, 0.0, 0.0)">
      <use ffdec:characterId="21" ffdec:characterName="220_fla.Symbole246_46" height="56.0" id="back" transform="matrix(1.0, 0.0, 0.0, 1.0, 0.0, 0.0)" width="56.0" xlink:href="#sprite45"/>
    </g>
    <g id="sprite45" transform="matrix(1.0, 0.0, 0.0, 1.0, 0.0, 0.0)">
      <use ffdec:characterId="20" ffdec:characterName="220_fla.Symbole243_47" height="56.0" id="back" transform="matrix(1.0, 0.0, 0.0, 1.0, 0.0, 0.0)" width="56.0" xlink:href="#sprite46"/>
    </g>
    <g id="sprite46" transform="matrix(1.0, 0.0, 0.0, 1.0, 0.0, 0.0)">
      <use ffdec:characterId="19" ffdec:characterName="220_fla.Symbole240_48" height="56.0" id="back" transform="matrix(1.0, 0.0, 0.0, 1.0, 0.0, 0.0)" width="56.0" xlink:href="#sprite47"/>
    </g>
    <g id="sprite47" transform="matrix(1.0, 0.0, 0.0, 1.0, 0.0, 0.0)">
      <use ffdec:characterId="18" ffdec:characterName="220_fla.Symbole237_49" height="56.0" id="back" transform="matrix(1.0, 0.0, 0.0, 1.0, 0.0, 0.0)" width="56.0" xlink:href="#sprite48"/>
    </g>
    <g id="sprite48" transform="matrix(1.0, 0.0, 0.0, 1.0, 0.0, 0.0)">
      <use ffdec:characterId="17" ffdec:characterName="220_fla.Symbole234_50" height="56.0" id="back" transform="matrix(1.0, 0.0, 0.0, 1.0, 0.0, 0.0)" width="56.0" xlink:href="#sprite49"/>
    </g>
    <g id="sprite49" transform="matrix(1.0, 0.0, 0.0, 1.0, 0.0, 0.0)">
      <use ffdec:characterId="16" ffdec:characterName="220_fla.Symbole231_51" height="56.0" id="back" transform="matrix(1.0, 0.0, 0.0, 1.0, 0.0, 0.0)" width="56.0" xlink:href="#sprite50"/>
    </g>
    <g id="sprite50" transform="matrix(1.0, 0.0, 0.0, 1.0, 0.0, 0.0)">
      <use ffdec:characterId="15" ffdec:characterName="220_fla.Symbole228_52" height="56.0" id="back" transform="matrix(1.0, 0.0, 0.0, 1.0, 0.0, 0.0)" width="56.0" xlink:href="#sprite51"/>
    </g>
    <g id="sprite51" transform="matrix(1.0, 0.0, 0.0, 1.0, 0.0, 0.0)">
      <use ffdec:characterId="14" ffdec:characterName="220_fla.Symbole225_53" height="56.0" id="back" transform="matrix(1.0, 0.0, 0.0, 1.0, 0.0, 0.0)" width="56.0" xlink:href="#sprite52"/>
    </g>
    <g id="sprite52" transform="matrix(1.0, 0.0, 0.0, 1.0, 0.0, 0.0)">
      <use ffdec:characterId="13" ffdec:characterName="220_fla.Symbole222_54" height="56.0" id="back" transform="matrix(1.0, 0.0, 0.0, 1.0, 0.0, 0.0)" width="56.0" xlink:href="#sprite53"/>
    </g>
    <g id="sprite53" transform="matrix(1.0, 0.0, 0.0, 1.0, 0.0, 0.0)">
      <use ffdec:characterId="12" ffdec:characterName="220_fla.Symbole219_55" height="56.0" id="back" transform="matrix(1.0, 0.0, 0.0, 1.0, 0.0, 0.0)" width="56.0" xlink:href="#sprite54"/>
    </g>
    <g id="sprite54" transform="matrix(1.0, 0.0, 0.0, 1.0, 0.0, 0.0)">
      <use ffdec:characterId="11" ffdec:characterName="220_fla.Symbole216_56" height="56.0" id="back" transform="matrix(1.0, 0.0, 0.0, 1.0, 0.0, 0.0)" width="56.0" xlink:href="#sprite55"/>
    </g>
    <g id="sprite55" transform="matrix(1.0, 0.0, 0.0, 1.0, 0.0, 0.0)">
      <use ffdec:characterId="10" ffdec:characterName="220_fla.Symbole213_57" height="56.0" id="back" transform="matrix(1.0, 0.0, 0.0, 1.0, 0.0, 0.0)" width="56.0" xlink:href="#sprite56"/>
    </g>
    <g id="sprite56" transform="matrix(1.0, 0.0, 0.0, 1.0, 0.0, 0.0)">
      <use ffdec:characterId="9" ffdec:characterName="220_fla.Symbole210_58" height="56.0" id="back" transform="matrix(1.0, 0.0, 0.0, 1.0, 0.0, 0.0)" width="56.0" xlink:href="#sprite57"/>
    </g>
    <g id="sprite57" transform="matrix(1.0, 0.0, 0.0, 1.0, 0.0, 0.0)">
      <use ffdec:characterId="8" ffdec:characterName="220_fla.Symbole207_59" height="56.0" id="back" transform="matrix(1.0, 0.0, 0.0, 1.0, 0.0, 0.0)" width="56.0" xlink:href="#sprite58"/>
    </g>
    <g id="sprite58" transform="matrix(1.0, 0.0, 0.0, 1.0, 0.0, 0.0)">
      <use ffdec:characterId="7" ffdec:characterName="220_fla.Symbole204_60" height="56.0" id="back" transform="matrix(1.0, 0.0, 0.0, 1.0, 0.0, 0.0)" width="56.0" xlink:href="#sprite59"/>
    </g>
    <g id="sprite59" transform="matrix(1.0, 0.0, 0.0, 1.0, 0.0, 0.0)">
      <use ffdec:characterId="6" ffdec:characterName="220_fla.Symbole201_61" height="56.0" id="back" transform="matrix(1.0, 0.0, 0.0, 1.0, 0.0, 0.0)" width="56.0" xlink:href="#sprite60"/>
    </g>
    <g id="sprite60" transform="matrix(1.0, 0.0, 0.0, 1.0, 0.0, 0.0)">
      <use ffdec:characterId="5" ffdec:characterName="220_fla.Symbole198_62" height="56.0" id="back" transform="matrix(1.0, 0.0, 0.0, 1.0, 0.0, 0.0)" width="56.0" xlink:href="#sprite61"/>
    </g>
    <g id="sprite61" transform="matrix(1.0, 0.0, 0.0, 1.0, 0.0, 0.0)">
      <use ffdec:characterId="4" ffdec:characterName="220_fla.Symbole195_63" height="56.0" id="back" transform="matrix(1.0, 0.0, 0.0, 1.0, 0.0, 0.0)" width="56.0" xlink:href="#sprite62"/>
    </g>
    <g id="sprite62" transform="matrix(1.0, 0.0, 0.0, 1.0, 0.0, 0.0)">
      <use ffdec:characterId="3" ffdec:characterName="220_fla.Symbole192_64" height="56.0" id="back" transform="matrix(1.0, 0.0, 0.0, 1.0, 0.0, 0.0)" width="56.0" xlink:href="#sprite63"/>
    </g>
    <g id="sprite63" transform="matrix(1.0, 0.0, 0.0, 1.0, 0.0, 0.0)">
      <use ffdec:characterId="2" height="56.0" id="back" transform="matrix(1.0, 0.0, 0.0, 1.0, 0.0, 0.0)" width="56.0" xlink:href="#sprite64"/>
    </g>
    <g id="sprite64" transform="matrix(1.0, 0.0, 0.0, 1.0, 0.0, 0.0)">
      <use ffdec:characterId="1" height="56.0" transform="matrix(1.0, 0.0, 0.0, 1.0, 0.0, 0.0)" width="56.0" xlink:href="#shape0"/>
    </g>
    <g id="shape0" transform="matrix(1.0, 0.0, 0.0, 1.0, 0.0, 0.0)">
      <path d="M56.0 56.0 L0.0 56.0 0.0 0.0 56.0 0.0 56.0 56.0" fill="#010101" fill-opacity="0.0" fill-rule="evenodd" stroke="none"/>
    </g>
    <g id="sprite65" transform="matrix(1.0, 0.0, 0.0, 1.0, 0.75, 0.75)">
      <use ffdec:characterId="67" height="46.25" transform="matrix(1.0, 0.0, 0.0, 1.0, -0.75, -0.75)" width="55.35" xlink:href="#shape1"/>
    </g>
    <g id="shape1" transform="matrix(1.0, 0.0, 0.0, 1.0, 0.75, 0.75)">
      <path d="M49.65 1.15 Q46.3 5.85 42.15 10.5 L41.2 11.55 41.35 13.05 41.35 13.2 41.35 13.65 41.35 15.6 40.25 20.8 43.05 16.55 Q46.55 10.65 49.05 4.15 L50.35 0.15 49.65 1.15 M40.35 13.65 L40.35 13.2 Q39.95 9.6 37.65 7.1 35.3 4.55 31.55 3.6 L27.9 3.15 26.45 3.15 24.9 3.3 23.3 3.6 Q19.55 4.55 17.25 7.1 15.0 9.6 14.6 13.05 L14.6 13.65 14.6 15.4 15.95 21.8 15.7 27.5 15.6 27.85 15.6 28.0 16.75 29.2 15.7 31.1 Q15.4 31.65 15.55 32.4 15.6 33.1 16.2 33.45 L17.05 33.95 18.35 34.1 19.45 33.25 20.35 31.9 21.8 32.4 22.25 32.55 21.95 33.95 Q21.8 34.6 22.25 35.15 22.6 35.8 23.25 35.9 L24.25 36.15 25.45 35.9 26.2 34.85 26.55 33.25 27.9 33.25 28.4 33.25 28.9 34.85 Q29.05 35.45 29.55 35.9 L30.75 36.15 31.8 35.9 Q32.55 35.8 32.85 35.15 33.25 34.6 33.05 33.95 L32.7 32.55 33.1 32.4 34.7 31.75 35.65 33.25 36.7 34.1 38.05 33.95 38.9 33.45 39.55 32.4 Q39.65 31.65 39.35 31.1 L38.25 29.15 39.2 28.0 39.35 27.85 39.2 27.5 38.95 21.8 40.25 15.4 40.35 13.65 M46.3 30.25 Q46.55 30.95 46.3 31.5 L46.05 31.75 45.0 34.45 45.15 35.65 45.85 36.85 46.2 37.1 Q46.2 36.85 46.55 36.85 L47.0 36.85 47.3 37.1 47.3 37.6 47.1 37.85 48.1 37.75 48.5 38.05 49.0 38.4 49.05 38.65 49.15 38.35 Q49.15 38.25 49.55 38.1 L49.9 38.25 50.1 38.4 50.1 38.9 50.85 38.95 51.25 39.15 51.8 39.7 51.8 40.1 Q52.4 39.95 53.05 40.1 53.55 40.45 53.6 41.1 54.0 41.65 53.8 42.15 53.35 42.85 52.8 42.95 52.25 43.3 51.65 42.95 50.95 42.7 50.85 42.05 L50.75 42.15 49.95 42.25 49.45 42.05 Q49.15 41.9 49.0 41.55 L49.0 41.65 Q48.8 41.65 48.75 41.9 L48.25 41.75 47.85 41.5 47.9 41.15 47.9 40.95 47.75 41.1 47.0 41.15 46.6 40.95 Q46.15 40.75 46.0 40.35 L45.8 40.45 45.3 40.55 45.0 40.1 44.9 39.95 45.0 39.85 44.9 39.85 Q43.6 39.65 42.15 40.6 L40.85 43.3 40.75 43.75 39.9 44.35 39.55 44.5 38.75 44.35 38.0 43.7 Q37.85 42.95 38.05 42.55 38.35 42.0 38.95 41.65 39.45 41.5 40.05 41.9 L40.45 41.5 40.65 41.1 Q41.0 40.55 40.5 39.95 L39.9 39.4 39.45 39.55 38.95 39.55 38.9 39.45 38.6 39.4 38.35 39.25 38.4 39.3 38.0 39.2 32.25 36.95 Q33.1 36.75 33.6 35.9 L33.75 35.75 Q34.4 34.75 34.1 33.7 L34.0 33.25 Q34.15 33.1 34.35 33.1 L34.7 33.7 34.75 33.75 Q35.25 34.6 36.35 35.15 L36.55 35.15 Q37.5 35.3 38.5 34.85 L39.3 34.45 39.55 34.3 Q40.2 33.85 40.6 32.8 L40.65 32.65 40.65 32.45 42.3 33.3 42.55 33.3 42.85 33.6 43.25 33.7 Q44.15 33.75 44.35 33.1 L44.35 32.95 44.4 32.7 44.5 32.05 Q43.8 31.95 43.45 31.5 43.35 30.8 43.6 30.2 43.85 29.65 44.4 29.5 L45.55 29.45 Q45.85 29.5 46.15 29.85 L46.3 30.25 M3.5 0.0 L4.25 1.0 Q7.6 5.75 11.8 10.25 L13.7 12.3 13.5 13.65 13.5 15.4 13.5 15.55 13.5 15.6 14.9 22.05 14.9 22.35 10.85 16.4 Q7.35 10.5 4.8 4.0 L3.5 0.0 M17.6 24.9 L17.8 25.95 18.0 26.3 18.0 26.6 18.95 27.15 Q21.25 28.3 23.95 28.0 L25.15 26.6 25.15 24.8 18.8 20.6 18.7 20.5 18.55 20.5 Q17.9 21.35 17.6 22.5 L17.6 24.9 M9.45 29.65 L8.3 29.6 Q8.05 29.65 7.75 30.05 L7.65 30.45 Q7.35 31.1 7.6 31.65 L7.8 31.9 8.95 34.6 8.8 35.8 8.05 36.95 7.65 37.25 7.35 36.95 Q7.1 36.85 6.95 37.05 6.75 37.1 6.65 37.25 L6.6 37.75 6.75 38.0 5.8 37.9 5.45 38.15 4.9 38.55 4.8 38.8 4.75 38.5 4.4 38.25 Q4.3 38.15 4.0 38.4 L3.85 38.55 3.75 39.05 3.1 39.15 2.7 39.25 Q2.15 39.45 2.05 39.85 L2.15 40.25 Q1.45 40.1 0.85 40.25 0.35 40.6 0.25 41.25 -0.15 41.85 0.1 42.3 L1.05 43.15 Q1.7 43.45 2.2 43.15 3.0 42.85 3.15 42.25 L3.15 42.3 4.0 42.4 4.5 42.25 4.9 41.65 4.9 41.75 5.15 42.05 5.65 41.9 6.05 41.65 5.95 41.35 5.95 41.1 6.1 41.25 6.9 41.35 7.25 41.1 7.9 40.45 Q7.95 40.6 8.15 40.55 8.4 40.95 8.55 40.7 L8.9 40.25 8.95 40.1 8.95 40.05 Q10.35 39.8 11.8 40.75 L13.1 43.45 13.2 43.95 14.1 44.5 14.3 44.75 15.15 44.5 15.95 43.85 Q16.1 43.15 15.8 42.7 15.6 42.15 15.0 41.75 14.45 41.65 13.85 42.05 L13.45 41.65 13.3 41.25 Q12.85 40.7 13.45 40.1 L14.0 39.55 14.45 39.7 15.0 39.7 15.05 39.65 15.3 39.55 Q15.45 39.4 15.55 39.4 L15.45 39.45 15.95 39.3 Q19.3 38.35 22.4 36.75 L21.4 35.8 Q20.6 34.75 20.95 33.7 L21.0 33.3 20.7 33.2 20.4 33.6 20.25 33.85 Q19.8 34.6 18.8 35.05 L18.55 35.15 Q17.4 35.4 16.5 34.85 L15.7 34.4 Q14.65 33.75 14.45 32.65 L14.45 31.95 11.55 33.45 11.3 33.45 11.1 33.75 10.65 33.85 Q9.8 33.95 9.6 33.25 L9.55 33.1 9.45 32.85 9.4 32.25 10.4 31.65 Q10.55 30.95 10.35 30.35 10.1 29.8 9.45 29.65 M13.0 42.7 L13.1 42.8 13.2 42.55 13.0 42.7 M36.05 20.5 L36.2 20.5 37.35 22.5 Q37.6 23.25 37.35 24.55 L36.85 26.6 36.75 26.7 35.25 27.5 34.7 27.65 33.85 27.85 32.15 28.05 32.05 28.05 31.5 28.0 31.4 28.0 30.95 28.0 29.8 26.6 29.65 25.25 29.65 24.9 36.05 20.6 36.05 20.5 M27.9 28.4 Q29.65 29.6 30.25 30.85 30.1 32.05 28.4 31.1 27.85 30.5 27.9 28.4 M27.05 28.4 Q25.3 29.6 24.75 30.85 24.75 32.05 26.55 31.1 27.2 30.5 27.05 28.4 Z" fill="none" stroke="#000000" stroke-linecap="round" stroke-linejoin="round" stroke-opacity="0.2" stroke-width="1.5"/>
    </g>
    <g id="sprite66" transform="matrix(1.0, 0.0, 0.0, 1.0, 0.0, 0.0)">
      <use ffdec:characterId="69" height="44.7" transform="matrix(1.0, 0.0, 0.0, 1.0, 0.0, 0.0)" width="53.9" xlink:href="#shape2"/>
    </g>
    <g id="shape2" transform="matrix(1.0, 0.0, 0.0, 1.0, 0.0, 0.0)">
      <path d="M40.35 13.65 L40.3 15.4 39.0 21.8 39.2 27.5 39.35 27.8 39.2 27.95 38.2 29.1 39.35 31.1 Q39.65 31.6 39.6 32.35 L38.9 33.45 38.05 33.9 36.7 34.05 35.6 33.2 34.7 31.7 33.1 32.35 32.7 32.55 33.0 33.9 Q33.25 34.6 32.85 35.1 32.55 35.8 31.8 35.9 L30.8 36.1 29.6 35.9 28.9 34.8 28.45 33.2 27.9 33.2 26.5 33.2 26.2 34.8 25.45 35.9 24.25 36.1 23.25 35.9 Q22.65 35.8 22.25 35.1 21.8 34.6 21.95 33.9 L22.25 32.55 21.8 32.35 20.35 31.85 19.4 33.2 18.35 34.05 17.05 33.9 16.2 33.45 Q15.6 33.05 15.5 32.35 15.35 31.6 15.7 31.1 L16.75 29.15 15.6 27.95 15.6 27.8 15.7 27.5 16.0 21.8 14.6 15.4 14.6 13.65 14.6 13.0 Q15.0 9.6 17.3 7.05 19.55 4.5 23.3 3.55 L24.9 3.25 26.45 3.1 27.9 3.1 31.55 3.55 Q35.3 4.5 37.7 7.05 39.95 9.6 40.35 13.15 L40.35 13.65 M49.65 1.15 L50.35 0.15 49.05 4.1 Q46.55 10.65 43.05 16.5 L40.3 20.8 41.35 15.6 41.35 13.65 41.35 13.15 41.35 13.0 41.2 11.5 42.2 10.45 Q46.3 5.85 49.65 1.15 M46.3 30.25 Q46.55 30.95 46.3 31.45 L46.1 31.7 45.0 34.45 45.15 35.65 45.85 36.8 46.25 37.1 Q46.25 36.85 46.55 36.8 L47.0 36.85 Q47.15 36.85 47.3 37.1 L47.3 37.55 47.15 37.8 48.05 37.7 48.55 38.0 49.0 38.4 49.05 38.6 49.15 38.3 Q49.15 38.25 49.5 38.1 49.65 38.0 49.9 38.25 L50.15 38.4 50.15 38.85 50.8 38.95 51.3 39.1 Q51.75 39.3 51.8 39.7 L51.8 40.05 Q52.4 39.9 53.05 40.05 53.55 40.45 53.65 41.05 54.05 41.65 53.8 42.15 L52.8 42.95 Q52.25 43.25 51.65 42.95 50.95 42.65 50.8 42.05 L50.75 42.15 50.0 42.2 49.45 42.05 49.0 41.5 49.0 41.6 48.75 41.9 48.2 41.75 47.85 41.45 47.9 41.15 47.9 40.9 47.75 41.05 47.0 41.15 46.6 40.9 Q46.15 40.75 46.0 40.3 46.0 40.45 45.8 40.4 45.55 40.75 45.3 40.55 L45.0 40.05 44.95 39.9 45.0 39.85 44.95 39.85 Q43.65 39.6 42.2 40.6 L40.9 43.25 40.75 43.75 39.9 44.35 39.6 44.5 38.75 44.35 Q38.2 44.1 38.0 43.65 37.85 42.95 38.05 42.5 38.35 42.0 39.0 41.6 39.45 41.45 40.05 41.9 L40.45 41.45 40.65 41.05 Q41.05 40.55 40.5 39.9 L39.9 39.4 39.45 39.55 39.0 39.55 38.9 39.45 38.6 39.4 38.35 39.25 38.45 39.3 38.0 39.15 Q35.0 38.25 32.25 36.95 L33.65 35.9 33.8 35.75 Q34.4 34.75 34.1 33.65 L34.0 33.2 Q34.15 33.05 34.3 33.05 L34.7 33.65 34.75 33.75 Q35.25 34.6 36.4 35.1 L36.55 35.1 Q37.55 35.25 38.5 34.8 L39.3 34.45 39.5 34.3 Q40.2 33.8 40.6 32.75 L40.65 32.6 40.65 32.45 42.35 33.3 42.55 33.3 42.85 33.6 43.25 33.65 Q44.15 33.75 44.3 33.05 L44.3 32.9 44.4 32.7 44.5 32.05 Q43.8 31.9 43.5 31.45 43.35 30.75 43.65 30.15 43.85 29.65 44.4 29.5 L45.55 29.4 Q45.85 29.5 46.15 29.85 L46.3 30.25 M3.55 0.0 L4.2 1.0 Q7.6 5.7 11.8 10.2 L13.7 12.25 13.55 13.65 13.55 15.4 13.55 15.55 13.55 15.6 14.9 22.0 14.9 22.3 Q12.75 19.5 10.85 16.35 7.35 10.5 4.85 3.95 L3.55 0.0 M17.6 24.9 L17.8 25.9 17.95 26.3 17.95 26.6 18.95 27.1 Q21.25 28.25 23.95 27.95 24.4 27.25 25.15 26.6 L25.15 24.75 18.8 20.55 18.75 20.5 18.6 20.5 Q17.9 21.3 17.6 22.45 L17.6 24.9 M9.5 29.65 Q10.1 29.8 10.35 30.3 L10.4 31.6 9.4 32.2 9.5 32.85 9.55 33.05 9.65 33.2 Q9.8 33.9 10.65 33.8 L11.1 33.75 11.3 33.45 11.55 33.45 14.45 31.9 14.45 32.6 Q14.7 33.75 15.7 34.35 L16.5 34.8 Q17.45 35.35 18.6 35.1 L18.8 35.05 Q19.8 34.6 20.25 33.8 L20.4 33.6 20.7 33.15 Q20.85 33.15 21.0 33.3 L20.95 33.75 20.95 33.65 Q20.55 34.75 21.4 35.8 L22.4 36.7 Q19.25 38.3 16.0 39.3 L15.45 39.45 15.5 39.4 15.3 39.55 15.05 39.6 15.0 39.7 14.45 39.7 14.0 39.55 13.45 40.05 Q12.85 40.7 13.3 41.2 L13.45 41.6 13.85 42.05 Q14.45 41.6 15.0 41.75 L15.85 42.65 Q16.15 43.1 16.0 43.8 L15.15 44.5 14.3 44.7 14.05 44.5 13.15 43.9 13.1 43.4 11.8 40.75 Q10.35 39.75 8.95 40.0 L8.95 40.05 8.9 40.2 8.55 40.7 Q8.4 40.9 8.1 40.55 7.95 40.6 7.9 40.45 L7.25 41.05 6.9 41.3 6.15 41.2 6.0 41.05 6.0 41.3 6.05 41.6 5.65 41.9 5.15 42.05 4.9 41.75 4.9 41.65 4.5 42.2 4.0 42.35 3.15 42.3 3.15 42.2 Q3.0 42.8 2.25 43.1 1.7 43.4 1.1 43.1 0.55 42.95 0.1 42.3 -0.15 41.8 0.25 41.2 0.3 40.6 0.85 40.2 1.45 40.05 2.15 40.2 L2.1 39.85 Q2.15 39.45 2.7 39.25 L3.05 39.1 3.75 39.0 3.85 38.55 4.0 38.4 Q4.3 38.15 4.45 38.25 L4.75 38.45 4.85 38.8 4.9 38.55 5.45 38.15 5.8 37.85 6.75 37.95 6.6 37.7 6.65 37.25 6.95 37.0 7.35 36.95 7.65 37.25 8.05 36.95 8.8 35.8 8.95 34.6 7.8 31.85 7.6 31.6 Q7.35 31.1 7.65 30.4 L7.75 30.0 8.35 29.55 9.5 29.65 M13.15 42.5 L13.0 42.65 13.1 42.75 13.15 42.5 M27.9 28.35 Q27.8 30.45 28.45 31.1 30.1 32.05 30.25 30.85 29.65 29.55 27.9 28.35 M36.05 20.5 L36.05 20.55 29.65 24.85 29.65 25.2 29.8 26.6 30.95 27.95 31.4 27.95 31.5 27.95 32.0 28.05 32.2 28.05 33.85 27.8 34.7 27.65 35.25 27.5 36.75 26.65 36.85 26.6 37.35 24.55 Q37.6 23.25 37.35 22.45 37.0 21.5 36.25 20.5 L36.05 20.5 M24.75 30.85 Q24.75 32.05 26.5 31.1 27.2 30.45 27.05 28.35 25.3 29.55 24.75 30.85" fill="#000000" fill-rule="evenodd" stroke="none"/>
    </g>
  </defs>
</svg>
