<?xml version="1.0" encoding="UTF-8" standalone="no"?>
<svg xmlns:ffdec="https://www.free-decompiler.com/flash" xmlns:xlink="http://www.w3.org/1999/xlink" ffdec:objectType="frame" height="56.0px" width="56.0px" xmlns="http://www.w3.org/2000/svg">
  <g transform="matrix(1.0, 0.0, 0.0, 1.0, 0.0, 0.0)">
    <use ffdec:characterId="67" ffdec:characterName="221_fla.Symbole384_1" height="56.0" id="back" transform="matrix(1.0, 0.0, 0.0, 1.0, 0.0, 0.0)" width="56.0" xlink:href="#sprite0"/>
    <use ffdec:characterId="69" height="53.5" id="back" transform="matrix(1.0, 0.0, 0.0, 1.0, 0.35, 1.05)" width="55.35" xlink:href="#sprite66"/>
    <use ffdec:characterId="71" height="52.0" id="up" transform="matrix(1.0, 0.0, 0.0, 1.0, 1.1, 1.75)" width="53.85" xlink:href="#sprite67"/>
  </g>
  <defs>
    <g id="sprite0" transform="matrix(1.0, 0.0, 0.0, 1.0, 0.0, 0.0)">
      <use ffdec:characterId="66" ffdec:characterName="221_fla.Symbole381_2" height="56.0" id="back" transform="matrix(1.0, 0.0, 0.0, 1.0, 0.0, 0.0)" width="56.0" xlink:href="#sprite1"/>
    </g>
    <g id="sprite1" transform="matrix(1.0, 0.0, 0.0, 1.0, 0.0, 0.0)">
      <use ffdec:characterId="65" ffdec:characterName="221_fla.Symbole378_3" height="56.0" id="back" transform="matrix(1.0, 0.0, 0.0, 1.0, 0.0, 0.0)" width="56.0" xlink:href="#sprite2"/>
    </g>
    <g id="sprite2" transform="matrix(1.0, 0.0, 0.0, 1.0, 0.0, 0.0)">
      <use ffdec:characterId="64" ffdec:characterName="221_fla.Symbole375_4" height="56.0" id="back" transform="matrix(1.0, 0.0, 0.0, 1.0, 0.0, 0.0)" width="56.0" xlink:href="#sprite3"/>
    </g>
    <g id="sprite3" transform="matrix(1.0, 0.0, 0.0, 1.0, 0.0, 0.0)">
      <use ffdec:characterId="63" ffdec:characterName="221_fla.Symbole372_5" height="56.0" id="back" transform="matrix(1.0, 0.0, 0.0, 1.0, 0.0, 0.0)" width="56.0" xlink:href="#sprite4"/>
    </g>
    <g id="sprite4" transform="matrix(1.0, 0.0, 0.0, 1.0, 0.0, 0.0)">
      <use ffdec:characterId="62" ffdec:characterName="221_fla.Symbole369_6" height="56.0" id="back" transform="matrix(1.0, 0.0, 0.0, 1.0, 0.0, 0.0)" width="56.0" xlink:href="#sprite5"/>
    </g>
    <g id="sprite5" transform="matrix(1.0, 0.0, 0.0, 1.0, 0.0, 0.0)">
      <use ffdec:characterId="61" ffdec:characterName="221_fla.Symbole366_7" height="56.0" id="back" transform="matrix(1.0, 0.0, 0.0, 1.0, 0.0, 0.0)" width="56.0" xlink:href="#sprite6"/>
    </g>
    <g id="sprite6" transform="matrix(1.0, 0.0, 0.0, 1.0, 0.0, 0.0)">
      <use ffdec:characterId="60" ffdec:characterName="221_fla.Symbole363_8" height="56.0" id="back" transform="matrix(1.0, 0.0, 0.0, 1.0, 0.0, 0.0)" width="56.0" xlink:href="#sprite7"/>
    </g>
    <g id="sprite7" transform="matrix(1.0, 0.0, 0.0, 1.0, 0.0, 0.0)">
      <use ffdec:characterId="59" ffdec:characterName="221_fla.Symbole360_9" height="56.0" id="back" transform="matrix(1.0, 0.0, 0.0, 1.0, 0.0, 0.0)" width="56.0" xlink:href="#sprite8"/>
    </g>
    <g id="sprite8" transform="matrix(1.0, 0.0, 0.0, 1.0, 0.0, 0.0)">
      <use ffdec:characterId="58" ffdec:characterName="221_fla.Symbole357_10" height="56.0" id="back" transform="matrix(1.0, 0.0, 0.0, 1.0, 0.0, 0.0)" width="56.0" xlink:href="#sprite9"/>
    </g>
    <g id="sprite9" transform="matrix(1.0, 0.0, 0.0, 1.0, 0.0, 0.0)">
      <use ffdec:characterId="57" ffdec:characterName="221_fla.Symbole354_11" height="56.0" id="back" transform="matrix(1.0, 0.0, 0.0, 1.0, 0.0, 0.0)" width="56.0" xlink:href="#sprite10"/>
    </g>
    <g id="sprite10" transform="matrix(1.0, 0.0, 0.0, 1.0, 0.0, 0.0)">
      <use ffdec:characterId="56" ffdec:characterName="221_fla.Symbole351_12" height="56.0" id="back" transform="matrix(1.0, 0.0, 0.0, 1.0, 0.0, 0.0)" width="56.0" xlink:href="#sprite11"/>
    </g>
    <g id="sprite11" transform="matrix(1.0, 0.0, 0.0, 1.0, 0.0, 0.0)">
      <use ffdec:characterId="55" ffdec:characterName="221_fla.Symbole348_13" height="56.0" id="back" transform="matrix(1.0, 0.0, 0.0, 1.0, 0.0, 0.0)" width="56.0" xlink:href="#sprite12"/>
    </g>
    <g id="sprite12" transform="matrix(1.0, 0.0, 0.0, 1.0, 0.0, 0.0)">
      <use ffdec:characterId="54" ffdec:characterName="221_fla.Symbole345_14" height="56.0" id="back" transform="matrix(1.0, 0.0, 0.0, 1.0, 0.0, 0.0)" width="56.0" xlink:href="#sprite13"/>
    </g>
    <g id="sprite13" transform="matrix(1.0, 0.0, 0.0, 1.0, 0.0, 0.0)">
      <use ffdec:characterId="53" ffdec:characterName="221_fla.Symbole342_15" height="56.0" id="back" transform="matrix(1.0, 0.0, 0.0, 1.0, 0.0, 0.0)" width="56.0" xlink:href="#sprite14"/>
    </g>
    <g id="sprite14" transform="matrix(1.0, 0.0, 0.0, 1.0, 0.0, 0.0)">
      <use ffdec:characterId="52" ffdec:characterName="221_fla.Symbole339_16" height="56.0" id="back" transform="matrix(1.0, 0.0, 0.0, 1.0, 0.0, 0.0)" width="56.0" xlink:href="#sprite15"/>
    </g>
    <g id="sprite15" transform="matrix(1.0, 0.0, 0.0, 1.0, 0.0, 0.0)">
      <use ffdec:characterId="51" ffdec:characterName="221_fla.Symbole336_17" height="56.0" id="back" transform="matrix(1.0, 0.0, 0.0, 1.0, 0.0, 0.0)" width="56.0" xlink:href="#sprite16"/>
    </g>
    <g id="sprite16" transform="matrix(1.0, 0.0, 0.0, 1.0, 0.0, 0.0)">
      <use ffdec:characterId="50" ffdec:characterName="221_fla.Symbole333_18" height="56.0" id="back" transform="matrix(1.0, 0.0, 0.0, 1.0, 0.0, 0.0)" width="56.0" xlink:href="#sprite17"/>
    </g>
    <g id="sprite17" transform="matrix(1.0, 0.0, 0.0, 1.0, 0.0, 0.0)">
      <use ffdec:characterId="49" ffdec:characterName="221_fla.Symbole330_19" height="56.0" id="back" transform="matrix(1.0, 0.0, 0.0, 1.0, 0.0, 0.0)" width="56.0" xlink:href="#sprite18"/>
    </g>
    <g id="sprite18" transform="matrix(1.0, 0.0, 0.0, 1.0, 0.0, 0.0)">
      <use ffdec:characterId="48" ffdec:characterName="221_fla.Symbole327_20" height="56.0" id="back" transform="matrix(1.0, 0.0, 0.0, 1.0, 0.0, 0.0)" width="56.0" xlink:href="#sprite19"/>
    </g>
    <g id="sprite19" transform="matrix(1.0, 0.0, 0.0, 1.0, 0.0, 0.0)">
      <use ffdec:characterId="47" ffdec:characterName="221_fla.Symbole324_21" height="56.0" id="back" transform="matrix(1.0, 0.0, 0.0, 1.0, 0.0, 0.0)" width="56.0" xlink:href="#sprite20"/>
    </g>
    <g id="sprite20" transform="matrix(1.0, 0.0, 0.0, 1.0, 0.0, 0.0)">
      <use ffdec:characterId="46" ffdec:characterName="221_fla.Symbole321_22" height="56.0" id="back" transform="matrix(1.0, 0.0, 0.0, 1.0, 0.0, 0.0)" width="56.0" xlink:href="#sprite21"/>
    </g>
    <g id="sprite21" transform="matrix(1.0, 0.0, 0.0, 1.0, 0.0, 0.0)">
      <use ffdec:characterId="45" ffdec:characterName="221_fla.Symbole318_23" height="56.0" id="back" transform="matrix(1.0, 0.0, 0.0, 1.0, 0.0, 0.0)" width="56.0" xlink:href="#sprite22"/>
    </g>
    <g id="sprite22" transform="matrix(1.0, 0.0, 0.0, 1.0, 0.0, 0.0)">
      <use ffdec:characterId="44" ffdec:characterName="221_fla.Symbole315_24" height="56.0" id="back" transform="matrix(1.0, 0.0, 0.0, 1.0, 0.0, 0.0)" width="56.0" xlink:href="#sprite23"/>
    </g>
    <g id="sprite23" transform="matrix(1.0, 0.0, 0.0, 1.0, 0.0, 0.0)">
      <use ffdec:characterId="43" ffdec:characterName="221_fla.Symbole312_25" height="56.0" id="back" transform="matrix(1.0, 0.0, 0.0, 1.0, 0.0, 0.0)" width="56.0" xlink:href="#sprite24"/>
    </g>
    <g id="sprite24" transform="matrix(1.0, 0.0, 0.0, 1.0, 0.0, 0.0)">
      <use ffdec:characterId="42" ffdec:characterName="221_fla.Symbole309_26" height="56.0" id="back" transform="matrix(1.0, 0.0, 0.0, 1.0, 0.0, 0.0)" width="56.0" xlink:href="#sprite25"/>
    </g>
    <g id="sprite25" transform="matrix(1.0, 0.0, 0.0, 1.0, 0.0, 0.0)">
      <use ffdec:characterId="41" ffdec:characterName="221_fla.Symbole306_27" height="56.0" id="back" transform="matrix(1.0, 0.0, 0.0, 1.0, 0.0, 0.0)" width="56.0" xlink:href="#sprite26"/>
    </g>
    <g id="sprite26" transform="matrix(1.0, 0.0, 0.0, 1.0, 0.0, 0.0)">
      <use ffdec:characterId="40" ffdec:characterName="221_fla.Symbole303_28" height="56.0" id="back" transform="matrix(1.0, 0.0, 0.0, 1.0, 0.0, 0.0)" width="56.0" xlink:href="#sprite27"/>
    </g>
    <g id="sprite27" transform="matrix(1.0, 0.0, 0.0, 1.0, 0.0, 0.0)">
      <use ffdec:characterId="39" ffdec:characterName="221_fla.Symbole300_29" height="56.0" id="back" transform="matrix(1.0, 0.0, 0.0, 1.0, 0.0, 0.0)" width="56.0" xlink:href="#sprite28"/>
    </g>
    <g id="sprite28" transform="matrix(1.0, 0.0, 0.0, 1.0, 0.0, 0.0)">
      <use ffdec:characterId="38" ffdec:characterName="221_fla.Symbole297_30" height="56.0" id="back" transform="matrix(1.0, 0.0, 0.0, 1.0, 0.0, 0.0)" width="56.0" xlink:href="#sprite29"/>
    </g>
    <g id="sprite29" transform="matrix(1.0, 0.0, 0.0, 1.0, 0.0, 0.0)">
      <use ffdec:characterId="37" ffdec:characterName="221_fla.Symbole294_31" height="56.0" id="back" transform="matrix(1.0, 0.0, 0.0, 1.0, 0.0, 0.0)" width="56.0" xlink:href="#sprite30"/>
    </g>
    <g id="sprite30" transform="matrix(1.0, 0.0, 0.0, 1.0, 0.0, 0.0)">
      <use ffdec:characterId="36" ffdec:characterName="221_fla.Symbole291_32" height="56.0" id="back" transform="matrix(1.0, 0.0, 0.0, 1.0, 0.0, 0.0)" width="56.0" xlink:href="#sprite31"/>
    </g>
    <g id="sprite31" transform="matrix(1.0, 0.0, 0.0, 1.0, 0.0, 0.0)">
      <use ffdec:characterId="35" ffdec:characterName="221_fla.Symbole288_33" height="56.0" id="back" transform="matrix(1.0, 0.0, 0.0, 1.0, 0.0, 0.0)" width="56.0" xlink:href="#sprite32"/>
    </g>
    <g id="sprite32" transform="matrix(1.0, 0.0, 0.0, 1.0, 0.0, 0.0)">
      <use ffdec:characterId="34" ffdec:characterName="221_fla.Symbole285_34" height="56.0" id="back" transform="matrix(1.0, 0.0, 0.0, 1.0, 0.0, 0.0)" width="56.0" xlink:href="#sprite33"/>
    </g>
    <g id="sprite33" transform="matrix(1.0, 0.0, 0.0, 1.0, 0.0, 0.0)">
      <use ffdec:characterId="33" ffdec:characterName="221_fla.Symbole282_35" height="56.0" id="back" transform="matrix(1.0, 0.0, 0.0, 1.0, 0.0, 0.0)" width="56.0" xlink:href="#sprite34"/>
    </g>
    <g id="sprite34" transform="matrix(1.0, 0.0, 0.0, 1.0, 0.0, 0.0)">
      <use ffdec:characterId="32" ffdec:characterName="221_fla.Symbole279_36" height="56.0" id="back" transform="matrix(1.0, 0.0, 0.0, 1.0, 0.0, 0.0)" width="56.0" xlink:href="#sprite35"/>
    </g>
    <g id="sprite35" transform="matrix(1.0, 0.0, 0.0, 1.0, 0.0, 0.0)">
      <use ffdec:characterId="31" ffdec:characterName="221_fla.Symbole276_37" height="56.0" id="back" transform="matrix(1.0, 0.0, 0.0, 1.0, 0.0, 0.0)" width="56.0" xlink:href="#sprite36"/>
    </g>
    <g id="sprite36" transform="matrix(1.0, 0.0, 0.0, 1.0, 0.0, 0.0)">
      <use ffdec:characterId="30" ffdec:characterName="221_fla.Symbole273_38" height="56.0" id="back" transform="matrix(1.0, 0.0, 0.0, 1.0, 0.0, 0.0)" width="56.0" xlink:href="#sprite37"/>
    </g>
    <g id="sprite37" transform="matrix(1.0, 0.0, 0.0, 1.0, 0.0, 0.0)">
      <use ffdec:characterId="29" ffdec:characterName="221_fla.Symbole270_39" height="56.0" id="back" transform="matrix(1.0, 0.0, 0.0, 1.0, 0.0, 0.0)" width="56.0" xlink:href="#sprite38"/>
    </g>
    <g id="sprite38" transform="matrix(1.0, 0.0, 0.0, 1.0, 0.0, 0.0)">
      <use ffdec:characterId="28" ffdec:characterName="221_fla.Symbole267_40" height="56.0" id="back" transform="matrix(1.0, 0.0, 0.0, 1.0, 0.0, 0.0)" width="56.0" xlink:href="#sprite39"/>
    </g>
    <g id="sprite39" transform="matrix(1.0, 0.0, 0.0, 1.0, 0.0, 0.0)">
      <use ffdec:characterId="27" ffdec:characterName="221_fla.Symbole264_41" height="56.0" id="back" transform="matrix(1.0, 0.0, 0.0, 1.0, 0.0, 0.0)" width="56.0" xlink:href="#sprite40"/>
    </g>
    <g id="sprite40" transform="matrix(1.0, 0.0, 0.0, 1.0, 0.0, 0.0)">
      <use ffdec:characterId="26" ffdec:characterName="221_fla.Symbole261_42" height="56.0" id="back" transform="matrix(1.0, 0.0, 0.0, 1.0, 0.0, 0.0)" width="56.0" xlink:href="#sprite41"/>
    </g>
    <g id="sprite41" transform="matrix(1.0, 0.0, 0.0, 1.0, 0.0, 0.0)">
      <use ffdec:characterId="25" ffdec:characterName="221_fla.Symbole258_43" height="56.0" id="back" transform="matrix(1.0, 0.0, 0.0, 1.0, 0.0, 0.0)" width="56.0" xlink:href="#sprite42"/>
    </g>
    <g id="sprite42" transform="matrix(1.0, 0.0, 0.0, 1.0, 0.0, 0.0)">
      <use ffdec:characterId="24" ffdec:characterName="221_fla.Symbole255_44" height="56.0" id="back" transform="matrix(1.0, 0.0, 0.0, 1.0, 0.0, 0.0)" width="56.0" xlink:href="#sprite43"/>
    </g>
    <g id="sprite43" transform="matrix(1.0, 0.0, 0.0, 1.0, 0.0, 0.0)">
      <use ffdec:characterId="23" ffdec:characterName="221_fla.Symbole252_45" height="56.0" id="back" transform="matrix(1.0, 0.0, 0.0, 1.0, 0.0, 0.0)" width="56.0" xlink:href="#sprite44"/>
    </g>
    <g id="sprite44" transform="matrix(1.0, 0.0, 0.0, 1.0, 0.0, 0.0)">
      <use ffdec:characterId="22" ffdec:characterName="221_fla.Symbole249_46" height="56.0" id="back" transform="matrix(1.0, 0.0, 0.0, 1.0, 0.0, 0.0)" width="56.0" xlink:href="#sprite45"/>
    </g>
    <g id="sprite45" transform="matrix(1.0, 0.0, 0.0, 1.0, 0.0, 0.0)">
      <use ffdec:characterId="21" ffdec:characterName="221_fla.Symbole246_47" height="56.0" id="back" transform="matrix(1.0, 0.0, 0.0, 1.0, 0.0, 0.0)" width="56.0" xlink:href="#sprite46"/>
    </g>
    <g id="sprite46" transform="matrix(1.0, 0.0, 0.0, 1.0, 0.0, 0.0)">
      <use ffdec:characterId="20" ffdec:characterName="221_fla.Symbole243_48" height="56.0" id="back" transform="matrix(1.0, 0.0, 0.0, 1.0, 0.0, 0.0)" width="56.0" xlink:href="#sprite47"/>
    </g>
    <g id="sprite47" transform="matrix(1.0, 0.0, 0.0, 1.0, 0.0, 0.0)">
      <use ffdec:characterId="19" ffdec:characterName="221_fla.Symbole240_49" height="56.0" id="back" transform="matrix(1.0, 0.0, 0.0, 1.0, 0.0, 0.0)" width="56.0" xlink:href="#sprite48"/>
    </g>
    <g id="sprite48" transform="matrix(1.0, 0.0, 0.0, 1.0, 0.0, 0.0)">
      <use ffdec:characterId="18" ffdec:characterName="221_fla.Symbole237_50" height="56.0" id="back" transform="matrix(1.0, 0.0, 0.0, 1.0, 0.0, 0.0)" width="56.0" xlink:href="#sprite49"/>
    </g>
    <g id="sprite49" transform="matrix(1.0, 0.0, 0.0, 1.0, 0.0, 0.0)">
      <use ffdec:characterId="17" ffdec:characterName="221_fla.Symbole234_51" height="56.0" id="back" transform="matrix(1.0, 0.0, 0.0, 1.0, 0.0, 0.0)" width="56.0" xlink:href="#sprite50"/>
    </g>
    <g id="sprite50" transform="matrix(1.0, 0.0, 0.0, 1.0, 0.0, 0.0)">
      <use ffdec:characterId="16" ffdec:characterName="221_fla.Symbole231_52" height="56.0" id="back" transform="matrix(1.0, 0.0, 0.0, 1.0, 0.0, 0.0)" width="56.0" xlink:href="#sprite51"/>
    </g>
    <g id="sprite51" transform="matrix(1.0, 0.0, 0.0, 1.0, 0.0, 0.0)">
      <use ffdec:characterId="15" ffdec:characterName="221_fla.Symbole228_53" height="56.0" id="back" transform="matrix(1.0, 0.0, 0.0, 1.0, 0.0, 0.0)" width="56.0" xlink:href="#sprite52"/>
    </g>
    <g id="sprite52" transform="matrix(1.0, 0.0, 0.0, 1.0, 0.0, 0.0)">
      <use ffdec:characterId="14" ffdec:characterName="221_fla.Symbole225_54" height="56.0" id="back" transform="matrix(1.0, 0.0, 0.0, 1.0, 0.0, 0.0)" width="56.0" xlink:href="#sprite53"/>
    </g>
    <g id="sprite53" transform="matrix(1.0, 0.0, 0.0, 1.0, 0.0, 0.0)">
      <use ffdec:characterId="13" ffdec:characterName="221_fla.Symbole222_55" height="56.0" id="back" transform="matrix(1.0, 0.0, 0.0, 1.0, 0.0, 0.0)" width="56.0" xlink:href="#sprite54"/>
    </g>
    <g id="sprite54" transform="matrix(1.0, 0.0, 0.0, 1.0, 0.0, 0.0)">
      <use ffdec:characterId="12" ffdec:characterName="221_fla.Symbole219_56" height="56.0" id="back" transform="matrix(1.0, 0.0, 0.0, 1.0, 0.0, 0.0)" width="56.0" xlink:href="#sprite55"/>
    </g>
    <g id="sprite55" transform="matrix(1.0, 0.0, 0.0, 1.0, 0.0, 0.0)">
      <use ffdec:characterId="11" ffdec:characterName="221_fla.Symbole216_57" height="56.0" id="back" transform="matrix(1.0, 0.0, 0.0, 1.0, 0.0, 0.0)" width="56.0" xlink:href="#sprite56"/>
    </g>
    <g id="sprite56" transform="matrix(1.0, 0.0, 0.0, 1.0, 0.0, 0.0)">
      <use ffdec:characterId="10" ffdec:characterName="221_fla.Symbole213_58" height="56.0" id="back" transform="matrix(1.0, 0.0, 0.0, 1.0, 0.0, 0.0)" width="56.0" xlink:href="#sprite57"/>
    </g>
    <g id="sprite57" transform="matrix(1.0, 0.0, 0.0, 1.0, 0.0, 0.0)">
      <use ffdec:characterId="9" ffdec:characterName="221_fla.Symbole210_59" height="56.0" id="back" transform="matrix(1.0, 0.0, 0.0, 1.0, 0.0, 0.0)" width="56.0" xlink:href="#sprite58"/>
    </g>
    <g id="sprite58" transform="matrix(1.0, 0.0, 0.0, 1.0, 0.0, 0.0)">
      <use ffdec:characterId="8" ffdec:characterName="221_fla.Symbole207_60" height="56.0" id="back" transform="matrix(1.0, 0.0, 0.0, 1.0, 0.0, 0.0)" width="56.0" xlink:href="#sprite59"/>
    </g>
    <g id="sprite59" transform="matrix(1.0, 0.0, 0.0, 1.0, 0.0, 0.0)">
      <use ffdec:characterId="7" ffdec:characterName="221_fla.Symbole204_61" height="56.0" id="back" transform="matrix(1.0, 0.0, 0.0, 1.0, 0.0, 0.0)" width="56.0" xlink:href="#sprite60"/>
    </g>
    <g id="sprite60" transform="matrix(1.0, 0.0, 0.0, 1.0, 0.0, 0.0)">
      <use ffdec:characterId="6" ffdec:characterName="221_fla.Symbole201_62" height="56.0" id="back" transform="matrix(1.0, 0.0, 0.0, 1.0, 0.0, 0.0)" width="56.0" xlink:href="#sprite61"/>
    </g>
    <g id="sprite61" transform="matrix(1.0, 0.0, 0.0, 1.0, 0.0, 0.0)">
      <use ffdec:characterId="5" ffdec:characterName="221_fla.Symbole198_63" height="56.0" id="back" transform="matrix(1.0, 0.0, 0.0, 1.0, 0.0, 0.0)" width="56.0" xlink:href="#sprite62"/>
    </g>
    <g id="sprite62" transform="matrix(1.0, 0.0, 0.0, 1.0, 0.0, 0.0)">
      <use ffdec:characterId="4" ffdec:characterName="221_fla.Symbole195_64" height="56.0" id="back" transform="matrix(1.0, 0.0, 0.0, 1.0, 0.0, 0.0)" width="56.0" xlink:href="#sprite63"/>
    </g>
    <g id="sprite63" transform="matrix(1.0, 0.0, 0.0, 1.0, 0.0, 0.0)">
      <use ffdec:characterId="3" ffdec:characterName="221_fla.Symbole192_65" height="56.0" id="back" transform="matrix(1.0, 0.0, 0.0, 1.0, 0.0, 0.0)" width="56.0" xlink:href="#sprite64"/>
    </g>
    <g id="sprite64" transform="matrix(1.0, 0.0, 0.0, 1.0, 0.0, 0.0)">
      <use ffdec:characterId="2" height="56.0" id="back" transform="matrix(1.0, 0.0, 0.0, 1.0, 0.0, 0.0)" width="56.0" xlink:href="#sprite65"/>
    </g>
    <g id="sprite65" transform="matrix(1.0, 0.0, 0.0, 1.0, 0.0, 0.0)">
      <use ffdec:characterId="1" height="56.0" transform="matrix(1.0, 0.0, 0.0, 1.0, 0.0, 0.0)" width="56.0" xlink:href="#shape0"/>
    </g>
    <g id="shape0" transform="matrix(1.0, 0.0, 0.0, 1.0, 0.0, 0.0)">
      <path d="M56.0 56.0 L0.0 56.0 0.0 0.0 56.0 0.0 56.0 56.0" fill="#010101" fill-opacity="0.0" fill-rule="evenodd" stroke="none"/>
    </g>
    <g id="sprite66" transform="matrix(1.0, 0.0, 0.0, 1.0, 0.75, 0.75)">
      <use ffdec:characterId="68" height="53.5" transform="matrix(1.0, 0.0, 0.0, 1.0, -0.75, -0.75)" width="55.35" xlink:href="#shape1"/>
    </g>
    <g id="shape1" transform="matrix(1.0, 0.0, 0.0, 1.0, 0.75, 0.75)">
      <path d="M49.85 8.25 Q48.3 9.2 46.55 9.0 48.3 8.85 49.85 7.6 L51.35 6.1 51.35 5.95 51.25 4.25 49.55 5.85 Q47.15 7.85 44.35 7.35 L41.05 6.7 40.5 6.55 39.8 6.65 37.25 7.15 Q33.9 8.25 31.25 11.1 L29.6 10.6 29.25 10.5 Q29.5 11.8 29.4 13.3 29.25 16.4 27.45 17.2 24.65 18.55 22.0 16.55 L22.0 16.45 18.95 13.8 18.9 13.7 Q18.15 14.9 17.0 15.45 L16.3 15.75 14.45 16.0 14.35 16.0 14.05 16.0 14.0 16.0 Q13.9 17.2 14.2 20.05 L14.2 20.1 Q14.05 23.35 11.3 24.7 9.85 25.35 8.05 24.4 L8.05 25.65 9.7 33.7 9.4 41.05 9.3 41.45 9.3 41.6 10.7 43.2 9.4 45.65 Q9.0 46.35 9.25 47.2 9.3 48.2 10.05 48.55 L11.05 49.15 12.8 49.35 Q13.65 49.0 14.15 48.25 L15.3 46.55 17.1 47.2 Q17.3 47.4 17.7 47.45 L17.3 49.15 Q17.1 50.05 17.7 50.7 18.2 51.6 19.05 51.75 L20.25 51.9 Q20.95 52.15 21.8 51.65 L22.85 50.3 23.15 48.25 24.85 48.25 25.6 48.25 26.15 50.3 Q26.3 51.2 27.05 51.65 27.9 52.15 28.55 51.9 L29.8 51.75 Q30.75 51.6 31.15 50.7 31.6 50.05 31.45 49.15 L31.1 47.45 31.55 47.2 33.55 46.4 34.65 48.25 Q35.2 49.0 36.05 49.35 L37.8 49.15 38.85 48.55 39.8 47.2 Q39.85 46.35 39.45 45.65 L38.0 43.05 39.3 41.6 39.45 41.45 39.3 41.05 39.0 33.7 40.65 25.65 40.7 24.55 44.45 24.4 Q42.95 22.1 40.5 21.05 39.65 17.65 37.25 15.05 36.0 13.6 34.4 12.6 36.45 11.3 38.75 11.3 L40.4 11.55 41.8 11.7 44.2 12.05 50.15 11.8 51.5 10.85 51.4 7.15 49.85 8.25 M53.05 28.35 Q51.25 29.3 48.65 27.95 L48.7 28.1 Q47.45 27.45 46.5 26.6 L44.5 24.4 46.35 24.7 49.35 25.05 Q52.35 25.2 53.85 23.0 L53.05 28.35 M27.05 4.1 L26.95 6.2 26.65 7.45 26.4 8.25 Q25.95 9.65 26.15 11.25 L26.55 8.8 26.8 8.2 26.85 7.9 26.95 7.75 27.35 8.15 28.2 9.1 Q28.95 10.65 28.8 13.0 28.6 15.45 27.05 16.25 24.65 17.4 22.3 15.6 L19.25 13.0 19.25 12.65 Q18.8 10.85 17.25 8.2 L18.15 7.15 18.8 6.05 19.6 4.25 Q20.95 1.2 22.3 0.45 L24.75 0.3 25.15 0.55 25.15 0.6 Q26.1 1.1 26.55 2.25 27.0 3.15 27.05 4.1 M20.4 8.85 Q19.55 9.85 19.85 12.35 L20.05 10.95 20.15 10.6 20.25 10.45 Q20.8 10.05 21.75 10.05 L23.5 10.6 21.95 9.9 20.45 9.85 Q20.9 8.7 21.65 7.7 L21.7 7.6 20.4 8.85 M16.6 8.65 Q18.1 10.7 18.4 12.65 L18.5 12.8 Q17.8 14.0 16.75 14.6 L16.05 14.8 14.45 15.05 14.0 15.05 13.8 14.95 13.75 14.8 Q12.5 13.25 11.75 10.85 13.3 8.15 16.5 8.65 L16.6 8.65 M1.8 10.15 Q0.35 10.35 0.05 11.9 L0.05 12.3 0.05 12.35 Q-0.1 13.45 0.45 14.5 0.85 15.4 1.65 16.1 L3.3 17.25 4.4 17.85 5.25 18.15 Q6.6 18.7 7.75 19.9 L5.6 18.6 4.95 18.45 4.65 18.3 4.5 18.3 4.5 18.75 Q4.5 19.5 4.8 20.1 5.6 21.65 7.35 22.9 9.5 24.5 11.0 23.75 13.45 22.55 13.6 19.65 13.3 16.75 13.35 15.55 L13.2 15.4 Q12.0 14.0 11.0 10.95 L9.55 11.0 8.3 10.85 6.4 10.45 Q3.15 9.45 1.8 10.15 M7.65 14.1 L9.5 13.85 Q10.7 13.85 12.55 15.7 L11.2 14.95 10.9 14.8 10.75 14.75 9.65 15.6 8.9 17.4 9.3 15.7 Q9.55 14.9 10.25 14.5 L7.8 14.1 7.65 14.1 M13.2 32.15 L13.0 32.15 Q12.15 33.2 11.9 34.55 11.2 36.3 12.35 39.85 15.8 42.1 19.85 41.6 L21.4 39.85 21.4 37.55 13.3 32.2 13.2 32.15 M35.35 32.15 L35.5 32.15 Q36.45 33.35 37.0 34.55 37.4 36.3 36.3 39.85 32.8 42.1 28.8 41.6 L27.35 39.85 27.15 38.15 27.15 37.65 35.35 32.2 35.35 32.15 M23.15 45.55 Q24.05 44.75 23.85 42.1 21.65 43.65 20.9 45.3 20.9 46.85 23.15 45.55 M24.85 42.1 Q27.15 43.65 27.9 45.3 27.75 46.85 25.6 45.55 24.85 44.75 24.85 42.1 Z" fill="none" stroke="#000000" stroke-linecap="round" stroke-linejoin="round" stroke-opacity="0.2" stroke-width="1.5"/>
    </g>
    <g id="sprite67" transform="matrix(1.0, 0.0, 0.0, 1.0, 0.0, 0.0)">
      <use ffdec:characterId="70" height="52.0" transform="matrix(1.0, 0.0, 0.0, 1.0, 0.0, 0.0)" width="53.85" xlink:href="#shape2"/>
    </g>
    <g id="shape2" transform="matrix(1.0, 0.0, 0.0, 1.0, 0.0, 0.0)">
      <path d="M51.35 6.0 L51.35 6.15 49.85 7.65 Q48.3 8.9 46.6 9.05 48.3 9.2 49.85 8.3 L51.4 7.2 51.5 10.9 50.15 11.85 44.2 12.1 41.8 11.7 40.4 11.55 38.75 11.35 Q36.45 11.35 34.35 12.6 36.0 13.65 37.25 15.05 39.65 17.65 40.45 21.1 42.95 22.15 44.4 24.45 L40.7 24.6 40.6 25.7 39.0 33.7 39.3 41.1 39.45 41.45 39.3 41.6 38.0 43.1 39.45 45.7 Q39.9 46.35 39.8 47.25 L38.85 48.6 37.8 49.2 36.1 49.4 Q35.2 49.05 34.65 48.3 L33.55 46.45 31.55 47.25 31.1 47.45 31.45 49.2 Q31.6 50.05 31.15 50.75 30.8 51.65 29.85 51.8 L28.55 51.95 27.1 51.7 Q26.35 51.2 26.2 50.35 L25.6 48.3 24.85 48.3 23.15 48.3 22.85 50.35 21.8 51.7 20.25 51.95 19.05 51.8 Q18.2 51.65 17.7 50.75 17.1 50.05 17.35 49.2 L17.7 47.45 17.1 47.25 15.3 46.6 14.15 48.3 Q13.7 49.05 12.8 49.4 L11.1 49.2 10.05 48.6 Q9.3 48.2 9.2 47.25 9.0 46.35 9.35 45.7 L10.7 43.25 9.3 41.6 9.3 41.45 9.35 41.1 9.75 33.7 8.05 25.7 8.05 24.45 Q9.9 25.4 11.3 24.75 14.05 23.4 14.2 20.1 L14.2 20.05 Q13.9 17.2 14.0 16.05 L14.05 16.05 14.35 16.05 14.45 16.05 16.3 15.8 17.05 15.5 Q18.15 14.9 18.9 13.75 L18.95 13.8 22.0 16.5 22.0 16.55 Q24.7 18.55 27.45 17.2 29.25 16.4 29.4 13.35 29.55 11.8 29.25 10.55 L29.6 10.6 31.25 11.15 Q33.9 8.3 37.25 7.2 L39.8 6.65 40.45 6.6 41.05 6.75 44.35 7.4 Q47.15 7.85 49.55 5.9 L51.25 4.3 51.35 6.0 M53.05 28.35 Q51.25 29.35 48.65 28.0 L48.75 28.15 46.5 26.65 44.5 24.45 46.35 24.75 49.35 25.1 Q52.4 25.25 53.85 23.0 L53.05 28.35 M27.1 4.15 L26.95 6.2 26.65 7.5 26.4 8.3 Q25.95 9.7 26.2 11.3 26.25 9.8 26.55 8.8 L26.8 8.25 26.85 7.95 26.95 7.8 27.4 8.15 28.2 9.1 Q28.95 10.7 28.8 13.0 28.65 15.5 27.1 16.25 24.7 17.45 22.3 15.65 L19.25 13.0 19.25 12.7 Q18.8 10.9 17.25 8.25 L18.15 7.2 18.8 6.05 19.65 4.3 Q21.0 1.25 22.3 0.5 L24.75 0.35 25.15 0.55 25.15 0.65 Q26.1 1.15 26.55 2.3 27.0 3.15 27.1 4.15 M21.95 9.95 L20.45 9.85 Q20.9 8.75 21.65 7.7 L21.7 7.55 20.4 8.9 Q19.55 9.85 19.85 12.4 L20.1 11.0 20.15 10.6 20.25 10.45 Q20.85 10.1 21.7 10.1 L23.5 10.6 21.95 9.95 M16.6 8.65 Q18.05 10.75 18.45 12.7 L18.5 12.85 16.75 14.6 16.05 14.85 14.45 15.05 14.0 15.05 13.85 15.0 13.75 14.85 Q12.5 13.3 11.75 10.9 13.3 8.15 16.5 8.65 L16.6 8.65 M7.65 14.1 L7.8 14.1 10.25 14.55 Q9.6 14.9 9.3 15.75 L8.9 17.45 9.65 15.65 10.8 14.75 10.95 14.85 11.25 15.0 12.55 15.75 Q10.7 13.9 9.5 13.9 L7.65 14.1 M1.75 10.15 L6.4 10.45 8.3 10.9 9.6 11.05 11.0 11.0 Q12.05 14.05 13.25 15.45 L13.4 15.6 Q13.3 16.8 13.6 19.65 13.45 22.55 11.0 23.75 9.5 24.5 7.35 22.95 5.55 21.7 4.85 20.1 4.55 19.55 4.55 18.8 L4.55 18.35 4.7 18.35 4.95 18.5 5.55 18.65 Q6.45 19.0 7.75 19.9 6.6 18.7 5.25 18.2 L4.45 17.9 Q3.4 17.45 3.35 17.3 L1.6 16.1 0.45 14.55 Q-0.1 13.5 0.05 12.4 L0.05 12.3 0.05 11.95 Q0.35 10.4 1.75 10.15 M13.25 32.15 L13.0 32.15 Q12.2 33.2 11.9 34.6 11.25 36.3 12.35 39.9 15.85 42.1 19.85 41.6 L21.4 39.9 21.4 37.6 13.3 32.25 13.25 32.15 M35.35 32.15 L35.35 32.25 27.15 37.65 27.15 38.2 27.4 39.9 28.8 41.6 Q32.8 42.1 36.3 39.9 37.4 36.3 37.0 34.6 36.45 33.4 35.5 32.15 L35.35 32.15 M20.9 45.3 Q20.9 46.9 23.15 45.6 24.05 44.8 23.9 42.1 21.65 43.7 20.9 45.3 M24.85 42.1 Q24.85 44.8 25.6 45.6 27.75 46.9 27.9 45.3 27.15 43.7 24.85 42.1" fill="#000000" fill-rule="evenodd" stroke="none"/>
    </g>
  </defs>
</svg>
