<?xml version="1.0" encoding="UTF-8" standalone="no"?>
<svg xmlns:ffdec="https://www.free-decompiler.com/flash" xmlns:xlink="http://www.w3.org/1999/xlink" ffdec:objectType="frame" height="56.0px" width="56.0px" xmlns="http://www.w3.org/2000/svg">
  <g transform="matrix(1.0, 0.0, 0.0, 1.0, 0.0, 0.0)">
    <use ffdec:characterId="24" ffdec:characterName="23_fla.Symbole69_1" height="56.0" id="back" transform="matrix(1.0, 0.0, 0.0, 1.0, 0.0, 0.0)" width="56.0" xlink:href="#sprite0"/>
    <use ffdec:characterId="26" height="55.55" id="back" transform="matrix(1.0, 0.0, 0.0, 1.0, 7.15, 0.45)" width="42.0" xlink:href="#sprite23"/>
    <use ffdec:characterId="28" height="54.05" id="up" transform="matrix(1.0, 0.0, 0.0, 1.0, 7.9, 1.2)" width="40.5" xlink:href="#sprite24"/>
  </g>
  <defs>
    <g id="sprite0" transform="matrix(1.0, 0.0, 0.0, 1.0, 0.0, 0.0)">
      <use ffdec:characterId="23" ffdec:characterName="23_fla.Symbole66_2" height="56.0" id="back" transform="matrix(1.0, 0.0, 0.0, 1.0, 0.0, 0.0)" width="56.0" xlink:href="#sprite1"/>
    </g>
    <g id="sprite1" transform="matrix(1.0, 0.0, 0.0, 1.0, 0.0, 0.0)">
      <use ffdec:characterId="22" ffdec:characterName="23_fla.Symbole63_3" height="56.0" id="back" transform="matrix(1.0, 0.0, 0.0, 1.0, 0.0, 0.0)" width="56.0" xlink:href="#sprite2"/>
    </g>
    <g id="sprite2" transform="matrix(1.0, 0.0, 0.0, 1.0, 0.0, 0.0)">
      <use ffdec:characterId="21" ffdec:characterName="23_fla.Symbole60_4" height="56.0" id="back" transform="matrix(1.0, 0.0, 0.0, 1.0, 0.0, 0.0)" width="56.0" xlink:href="#sprite3"/>
    </g>
    <g id="sprite3" transform="matrix(1.0, 0.0, 0.0, 1.0, 0.0, 0.0)">
      <use ffdec:characterId="20" ffdec:characterName="23_fla.Symbole57_5" height="56.0" id="back" transform="matrix(1.0, 0.0, 0.0, 1.0, 0.0, 0.0)" width="56.0" xlink:href="#sprite4"/>
    </g>
    <g id="sprite4" transform="matrix(1.0, 0.0, 0.0, 1.0, 0.0, 0.0)">
      <use ffdec:characterId="19" ffdec:characterName="23_fla.Symbole54_6" height="56.0" id="back" transform="matrix(1.0, 0.0, 0.0, 1.0, 0.0, 0.0)" width="56.0" xlink:href="#sprite5"/>
    </g>
    <g id="sprite5" transform="matrix(1.0, 0.0, 0.0, 1.0, 0.0, 0.0)">
      <use ffdec:characterId="18" ffdec:characterName="23_fla.Symbole51_7" height="56.0" id="back" transform="matrix(1.0, 0.0, 0.0, 1.0, 0.0, 0.0)" width="56.0" xlink:href="#sprite6"/>
    </g>
    <g id="sprite6" transform="matrix(1.0, 0.0, 0.0, 1.0, 0.0, 0.0)">
      <use ffdec:characterId="17" ffdec:characterName="23_fla.Symbole48_8" height="56.0" id="back" transform="matrix(1.0, 0.0, 0.0, 1.0, 0.0, 0.0)" width="56.0" xlink:href="#sprite7"/>
    </g>
    <g id="sprite7" transform="matrix(1.0, 0.0, 0.0, 1.0, 0.0, 0.0)">
      <use ffdec:characterId="16" ffdec:characterName="23_fla.Symbole45_9" height="56.0" id="back" transform="matrix(1.0, 0.0, 0.0, 1.0, 0.0, 0.0)" width="56.0" xlink:href="#sprite8"/>
    </g>
    <g id="sprite8" transform="matrix(1.0, 0.0, 0.0, 1.0, 0.0, 0.0)">
      <use ffdec:characterId="15" ffdec:characterName="23_fla.Symbole42_10" height="56.0" id="back" transform="matrix(1.0, 0.0, 0.0, 1.0, 0.0, 0.0)" width="56.0" xlink:href="#sprite9"/>
    </g>
    <g id="sprite9" transform="matrix(1.0, 0.0, 0.0, 1.0, 0.0, 0.0)">
      <use ffdec:characterId="14" ffdec:characterName="23_fla.Symbole39_11" height="56.0" id="back" transform="matrix(1.0, 0.0, 0.0, 1.0, 0.0, 0.0)" width="56.0" xlink:href="#sprite10"/>
    </g>
    <g id="sprite10" transform="matrix(1.0, 0.0, 0.0, 1.0, 0.0, 0.0)">
      <use ffdec:characterId="13" ffdec:characterName="23_fla.Symbole36_12" height="56.0" id="back" transform="matrix(1.0, 0.0, 0.0, 1.0, 0.0, 0.0)" width="56.0" xlink:href="#sprite11"/>
    </g>
    <g id="sprite11" transform="matrix(1.0, 0.0, 0.0, 1.0, 0.0, 0.0)">
      <use ffdec:characterId="12" ffdec:characterName="23_fla.Symbole33_13" height="56.0" id="back" transform="matrix(1.0, 0.0, 0.0, 1.0, 0.0, 0.0)" width="56.0" xlink:href="#sprite12"/>
    </g>
    <g id="sprite12" transform="matrix(1.0, 0.0, 0.0, 1.0, 0.0, 0.0)">
      <use ffdec:characterId="11" ffdec:characterName="23_fla.Symbole30_14" height="56.0" id="back" transform="matrix(1.0, 0.0, 0.0, 1.0, 0.0, 0.0)" width="56.0" xlink:href="#sprite13"/>
    </g>
    <g id="sprite13" transform="matrix(1.0, 0.0, 0.0, 1.0, 0.0, 0.0)">
      <use ffdec:characterId="10" ffdec:characterName="23_fla.Symbole27_15" height="56.0" id="back" transform="matrix(1.0, 0.0, 0.0, 1.0, 0.0, 0.0)" width="56.0" xlink:href="#sprite14"/>
    </g>
    <g id="sprite14" transform="matrix(1.0, 0.0, 0.0, 1.0, 0.0, 0.0)">
      <use ffdec:characterId="9" ffdec:characterName="23_fla.Symbole24_16" height="56.0" id="back" transform="matrix(1.0, 0.0, 0.0, 1.0, 0.0, 0.0)" width="56.0" xlink:href="#sprite15"/>
    </g>
    <g id="sprite15" transform="matrix(1.0, 0.0, 0.0, 1.0, 0.0, 0.0)">
      <use ffdec:characterId="8" ffdec:characterName="23_fla.Symbole21_17" height="56.0" id="back" transform="matrix(1.0, 0.0, 0.0, 1.0, 0.0, 0.0)" width="56.0" xlink:href="#sprite16"/>
    </g>
    <g id="sprite16" transform="matrix(1.0, 0.0, 0.0, 1.0, 0.0, 0.0)">
      <use ffdec:characterId="7" ffdec:characterName="23_fla.Symbole18_18" height="56.0" id="back" transform="matrix(1.0, 0.0, 0.0, 1.0, 0.0, 0.0)" width="56.0" xlink:href="#sprite17"/>
    </g>
    <g id="sprite17" transform="matrix(1.0, 0.0, 0.0, 1.0, 0.0, 0.0)">
      <use ffdec:characterId="6" ffdec:characterName="23_fla.Symbole15_19" height="56.0" id="back" transform="matrix(1.0, 0.0, 0.0, 1.0, 0.0, 0.0)" width="56.0" xlink:href="#sprite18"/>
    </g>
    <g id="sprite18" transform="matrix(1.0, 0.0, 0.0, 1.0, 0.0, 0.0)">
      <use ffdec:characterId="5" ffdec:characterName="23_fla.Symbole12_20" height="56.0" id="back" transform="matrix(1.0, 0.0, 0.0, 1.0, 0.0, 0.0)" width="56.0" xlink:href="#sprite19"/>
    </g>
    <g id="sprite19" transform="matrix(1.0, 0.0, 0.0, 1.0, 0.0, 0.0)">
      <use ffdec:characterId="4" ffdec:characterName="23_fla.Symbole9_21" height="56.0" id="back" transform="matrix(1.0, 0.0, 0.0, 1.0, 0.0, 0.0)" width="56.0" xlink:href="#sprite20"/>
    </g>
    <g id="sprite20" transform="matrix(1.0, 0.0, 0.0, 1.0, 0.0, 0.0)">
      <use ffdec:characterId="3" ffdec:characterName="23_fla.Symbole6_22" height="56.0" id="back" transform="matrix(1.0, 0.0, 0.0, 1.0, 0.0, 0.0)" width="56.0" xlink:href="#sprite21"/>
    </g>
    <g id="sprite21" transform="matrix(1.0, 0.0, 0.0, 1.0, 0.0, 0.0)">
      <use ffdec:characterId="2" height="56.0" id="back" transform="matrix(1.0, 0.0, 0.0, 1.0, 0.0, 0.0)" width="56.0" xlink:href="#sprite22"/>
    </g>
    <g id="sprite22" transform="matrix(1.0, 0.0, 0.0, 1.0, 0.0, 0.0)">
      <use ffdec:characterId="1" height="56.0" transform="matrix(1.0, 0.0, 0.0, 1.0, 0.0, 0.0)" width="56.0" xlink:href="#shape0"/>
    </g>
    <g id="shape0" transform="matrix(1.0, 0.0, 0.0, 1.0, 0.0, 0.0)">
      <path d="M56.0 56.0 L0.0 56.0 0.0 0.0 56.0 0.0 56.0 56.0" fill="#010101" fill-opacity="0.0" fill-rule="evenodd" stroke="none"/>
    </g>
    <g id="sprite23" transform="matrix(1.0, 0.0, 0.0, 1.0, 0.75, 0.75)">
      <use ffdec:characterId="25" height="55.55" transform="matrix(1.0, 0.0, 0.0, 1.0, -0.75, -0.75)" width="42.0" xlink:href="#shape1"/>
    </g>
    <g id="shape1" transform="matrix(1.0, 0.0, 0.0, 1.0, 0.75, 0.75)">
      <path d="M35.5 24.95 Q36.15 22.8 36.25 20.3 36.15 17.8 35.5 15.75 L40.5 15.75 40.5 24.95 35.5 24.95 M25.0 5.0 L20.4 4.4 15.7 5.0 15.7 0.0 25.0 0.0 25.0 5.0 M20.4 9.45 Q22.5 9.45 24.65 10.3 23.4 14.05 23.15 17.6 26.5 17.25 30.2 16.0 31.15 18.25 31.15 20.3 31.15 22.45 30.2 24.6 26.45 23.3 23.15 23.05 23.4 26.5 24.65 30.25 22.55 31.05 20.4 31.05 18.1 31.05 16.05 30.25 17.25 26.5 17.7 23.05 14.2 23.3 10.45 24.6 9.5 22.45 9.5 20.3 9.5 18.25 10.45 16.0 14.0 17.25 17.7 17.6 17.25 14.05 16.05 10.3 18.2 9.45 20.4 9.45 M28.6 11.95 Q25.2 8.45 20.4 8.45 15.45 8.45 12.05 11.95 8.5 15.4 8.55 20.3 8.5 25.25 12.05 28.7 15.45 32.15 20.4 32.15 25.2 32.15 28.6 28.7 32.1 25.25 32.1 20.3 32.1 15.4 28.6 11.95 M30.85 9.7 Q35.2 14.1 35.2 20.3 35.2 26.5 30.85 30.9 26.45 35.15 20.4 35.15 14.15 35.15 9.8 30.9 5.45 26.5 5.45 20.3 5.45 14.1 9.8 9.7 14.15 5.3 20.4 5.45 26.45 5.3 30.85 9.7 M4.5 20.3 Q4.35 22.8 5.15 24.95 L0.0 24.95 0.0 15.75 5.15 15.75 Q4.35 17.8 4.5 20.3 M20.4 36.25 Q22.75 36.25 25.0 35.45 L26.3 54.05 14.35 54.05 15.7 35.45 Q17.9 36.25 20.4 36.25 Z" fill="none" stroke="#000000" stroke-linecap="round" stroke-linejoin="round" stroke-opacity="0.2" stroke-width="1.5"/>
    </g>
    <g id="sprite24" transform="matrix(1.0, 0.0, 0.0, 1.0, 0.0, 0.0)">
      <use ffdec:characterId="27" height="54.05" transform="matrix(1.0, 0.0, 0.0, 1.0, 0.0, 0.0)" width="40.5" xlink:href="#shape2"/>
    </g>
    <g id="shape2" transform="matrix(1.0, 0.0, 0.0, 1.0, 0.0, 0.0)">
      <path d="M35.5 24.95 Q36.15 22.8 36.25 20.3 36.15 17.8 35.5 15.75 L40.5 15.75 40.5 24.95 35.5 24.95 M25.0 5.0 L20.4 4.4 15.7 5.0 15.7 0.0 25.0 0.0 25.0 5.0 M20.4 9.45 Q22.5 9.45 24.65 10.3 23.4 14.05 23.15 17.6 26.5 17.25 30.2 16.0 31.15 18.25 31.15 20.3 31.15 22.45 30.2 24.6 26.45 23.3 23.15 23.05 23.4 26.5 24.65 30.25 22.55 31.05 20.4 31.05 18.1 31.05 16.05 30.25 17.25 26.5 17.7 23.05 14.2 23.3 10.45 24.6 9.5 22.45 9.5 20.3 9.5 18.25 10.45 16.0 14.0 17.25 17.7 17.6 17.25 14.05 16.05 10.3 18.2 9.45 20.4 9.45 M28.6 11.95 Q25.2 8.45 20.4 8.45 15.45 8.45 12.05 11.95 8.5 15.4 8.55 20.3 8.5 25.25 12.05 28.7 15.45 32.15 20.4 32.15 25.2 32.15 28.6 28.7 32.1 25.25 32.1 20.3 32.1 15.4 28.6 11.95 M30.85 9.7 Q35.2 14.1 35.2 20.3 35.2 26.5 30.85 30.9 26.45 35.15 20.4 35.15 14.15 35.15 9.8 30.9 5.45 26.5 5.45 20.3 5.45 14.1 9.8 9.7 14.15 5.3 20.4 5.45 26.45 5.3 30.85 9.7 M4.5 20.3 Q4.35 22.8 5.15 24.95 L0.0 24.95 0.0 15.75 5.15 15.75 Q4.35 17.8 4.5 20.3 M20.4 36.25 Q22.75 36.25 25.0 35.45 L26.3 54.05 14.35 54.05 15.7 35.45 Q17.9 36.25 20.4 36.25" fill="#000000" fill-rule="evenodd" stroke="none"/>
    </g>
  </defs>
</svg>
