<?xml version="1.0" encoding="UTF-8" standalone="no"?>
<svg xmlns:ffdec="https://www.free-decompiler.com/flash" xmlns:xlink="http://www.w3.org/1999/xlink" ffdec:objectType="frame" height="56.0px" width="56.0px" xmlns="http://www.w3.org/2000/svg">
  <g transform="matrix(1.0, 0.0, 0.0, 1.0, 0.0, 0.0)">
    <use ffdec:characterId="76" ffdec:characterName="230_fla.Symbole411_1" height="56.0" id="back" transform="matrix(1.0, 0.0, 0.0, 1.0, 0.0, 0.0)" width="56.0" xlink:href="#sprite0"/>
    <use ffdec:characterId="78" height="53.75" id="back" transform="matrix(1.0, 0.0, 0.0, 1.0, 0.35, 1.0)" width="55.35" xlink:href="#sprite75"/>
    <use ffdec:characterId="80" height="52.2" id="up" transform="matrix(1.0, 0.0, 0.0, 1.0, 1.1, 1.75)" width="53.85" xlink:href="#sprite76"/>
  </g>
  <defs>
    <g id="sprite0" transform="matrix(1.0, 0.0, 0.0, 1.0, 0.0, 0.0)">
      <use ffdec:characterId="75" ffdec:characterName="230_fla.Symbole408_2" height="56.0" id="back" transform="matrix(1.0, 0.0, 0.0, 1.0, 0.0, 0.0)" width="56.0" xlink:href="#sprite1"/>
    </g>
    <g id="sprite1" transform="matrix(1.0, 0.0, 0.0, 1.0, 0.0, 0.0)">
      <use ffdec:characterId="74" ffdec:characterName="230_fla.Symbole405_3" height="56.0" id="back" transform="matrix(1.0, 0.0, 0.0, 1.0, 0.0, 0.0)" width="56.0" xlink:href="#sprite2"/>
    </g>
    <g id="sprite2" transform="matrix(1.0, 0.0, 0.0, 1.0, 0.0, 0.0)">
      <use ffdec:characterId="73" ffdec:characterName="230_fla.Symbole402_4" height="56.0" id="back" transform="matrix(1.0, 0.0, 0.0, 1.0, 0.0, 0.0)" width="56.0" xlink:href="#sprite3"/>
    </g>
    <g id="sprite3" transform="matrix(1.0, 0.0, 0.0, 1.0, 0.0, 0.0)">
      <use ffdec:characterId="72" ffdec:characterName="230_fla.Symbole399_5" height="56.0" id="back" transform="matrix(1.0, 0.0, 0.0, 1.0, 0.0, 0.0)" width="56.0" xlink:href="#sprite4"/>
    </g>
    <g id="sprite4" transform="matrix(1.0, 0.0, 0.0, 1.0, 0.0, 0.0)">
      <use ffdec:characterId="71" ffdec:characterName="230_fla.Symbole396_6" height="56.0" id="back" transform="matrix(1.0, 0.0, 0.0, 1.0, 0.0, 0.0)" width="56.0" xlink:href="#sprite5"/>
    </g>
    <g id="sprite5" transform="matrix(1.0, 0.0, 0.0, 1.0, 0.0, 0.0)">
      <use ffdec:characterId="70" ffdec:characterName="230_fla.Symbole393_7" height="56.0" id="back" transform="matrix(1.0, 0.0, 0.0, 1.0, 0.0, 0.0)" width="56.0" xlink:href="#sprite6"/>
    </g>
    <g id="sprite6" transform="matrix(1.0, 0.0, 0.0, 1.0, 0.0, 0.0)">
      <use ffdec:characterId="69" ffdec:characterName="230_fla.Symbole390_8" height="56.0" id="back" transform="matrix(1.0, 0.0, 0.0, 1.0, 0.0, 0.0)" width="56.0" xlink:href="#sprite7"/>
    </g>
    <g id="sprite7" transform="matrix(1.0, 0.0, 0.0, 1.0, 0.0, 0.0)">
      <use ffdec:characterId="68" ffdec:characterName="230_fla.Symbole387_9" height="56.0" id="back" transform="matrix(1.0, 0.0, 0.0, 1.0, 0.0, 0.0)" width="56.0" xlink:href="#sprite8"/>
    </g>
    <g id="sprite8" transform="matrix(1.0, 0.0, 0.0, 1.0, 0.0, 0.0)">
      <use ffdec:characterId="67" ffdec:characterName="230_fla.Symbole384_10" height="56.0" id="back" transform="matrix(1.0, 0.0, 0.0, 1.0, 0.0, 0.0)" width="56.0" xlink:href="#sprite9"/>
    </g>
    <g id="sprite9" transform="matrix(1.0, 0.0, 0.0, 1.0, 0.0, 0.0)">
      <use ffdec:characterId="66" ffdec:characterName="230_fla.Symbole381_11" height="56.0" id="back" transform="matrix(1.0, 0.0, 0.0, 1.0, 0.0, 0.0)" width="56.0" xlink:href="#sprite10"/>
    </g>
    <g id="sprite10" transform="matrix(1.0, 0.0, 0.0, 1.0, 0.0, 0.0)">
      <use ffdec:characterId="65" ffdec:characterName="230_fla.Symbole378_12" height="56.0" id="back" transform="matrix(1.0, 0.0, 0.0, 1.0, 0.0, 0.0)" width="56.0" xlink:href="#sprite11"/>
    </g>
    <g id="sprite11" transform="matrix(1.0, 0.0, 0.0, 1.0, 0.0, 0.0)">
      <use ffdec:characterId="64" ffdec:characterName="230_fla.Symbole375_13" height="56.0" id="back" transform="matrix(1.0, 0.0, 0.0, 1.0, 0.0, 0.0)" width="56.0" xlink:href="#sprite12"/>
    </g>
    <g id="sprite12" transform="matrix(1.0, 0.0, 0.0, 1.0, 0.0, 0.0)">
      <use ffdec:characterId="63" ffdec:characterName="230_fla.Symbole372_14" height="56.0" id="back" transform="matrix(1.0, 0.0, 0.0, 1.0, 0.0, 0.0)" width="56.0" xlink:href="#sprite13"/>
    </g>
    <g id="sprite13" transform="matrix(1.0, 0.0, 0.0, 1.0, 0.0, 0.0)">
      <use ffdec:characterId="62" ffdec:characterName="230_fla.Symbole369_15" height="56.0" id="back" transform="matrix(1.0, 0.0, 0.0, 1.0, 0.0, 0.0)" width="56.0" xlink:href="#sprite14"/>
    </g>
    <g id="sprite14" transform="matrix(1.0, 0.0, 0.0, 1.0, 0.0, 0.0)">
      <use ffdec:characterId="61" ffdec:characterName="230_fla.Symbole366_16" height="56.0" id="back" transform="matrix(1.0, 0.0, 0.0, 1.0, 0.0, 0.0)" width="56.0" xlink:href="#sprite15"/>
    </g>
    <g id="sprite15" transform="matrix(1.0, 0.0, 0.0, 1.0, 0.0, 0.0)">
      <use ffdec:characterId="60" ffdec:characterName="230_fla.Symbole363_17" height="56.0" id="back" transform="matrix(1.0, 0.0, 0.0, 1.0, 0.0, 0.0)" width="56.0" xlink:href="#sprite16"/>
    </g>
    <g id="sprite16" transform="matrix(1.0, 0.0, 0.0, 1.0, 0.0, 0.0)">
      <use ffdec:characterId="59" ffdec:characterName="230_fla.Symbole360_18" height="56.0" id="back" transform="matrix(1.0, 0.0, 0.0, 1.0, 0.0, 0.0)" width="56.0" xlink:href="#sprite17"/>
    </g>
    <g id="sprite17" transform="matrix(1.0, 0.0, 0.0, 1.0, 0.0, 0.0)">
      <use ffdec:characterId="58" ffdec:characterName="230_fla.Symbole357_19" height="56.0" id="back" transform="matrix(1.0, 0.0, 0.0, 1.0, 0.0, 0.0)" width="56.0" xlink:href="#sprite18"/>
    </g>
    <g id="sprite18" transform="matrix(1.0, 0.0, 0.0, 1.0, 0.0, 0.0)">
      <use ffdec:characterId="57" ffdec:characterName="230_fla.Symbole354_20" height="56.0" id="back" transform="matrix(1.0, 0.0, 0.0, 1.0, 0.0, 0.0)" width="56.0" xlink:href="#sprite19"/>
    </g>
    <g id="sprite19" transform="matrix(1.0, 0.0, 0.0, 1.0, 0.0, 0.0)">
      <use ffdec:characterId="56" ffdec:characterName="230_fla.Symbole351_21" height="56.0" id="back" transform="matrix(1.0, 0.0, 0.0, 1.0, 0.0, 0.0)" width="56.0" xlink:href="#sprite20"/>
    </g>
    <g id="sprite20" transform="matrix(1.0, 0.0, 0.0, 1.0, 0.0, 0.0)">
      <use ffdec:characterId="55" ffdec:characterName="230_fla.Symbole348_22" height="56.0" id="back" transform="matrix(1.0, 0.0, 0.0, 1.0, 0.0, 0.0)" width="56.0" xlink:href="#sprite21"/>
    </g>
    <g id="sprite21" transform="matrix(1.0, 0.0, 0.0, 1.0, 0.0, 0.0)">
      <use ffdec:characterId="54" ffdec:characterName="230_fla.Symbole345_23" height="56.0" id="back" transform="matrix(1.0, 0.0, 0.0, 1.0, 0.0, 0.0)" width="56.0" xlink:href="#sprite22"/>
    </g>
    <g id="sprite22" transform="matrix(1.0, 0.0, 0.0, 1.0, 0.0, 0.0)">
      <use ffdec:characterId="53" ffdec:characterName="230_fla.Symbole342_24" height="56.0" id="back" transform="matrix(1.0, 0.0, 0.0, 1.0, 0.0, 0.0)" width="56.0" xlink:href="#sprite23"/>
    </g>
    <g id="sprite23" transform="matrix(1.0, 0.0, 0.0, 1.0, 0.0, 0.0)">
      <use ffdec:characterId="52" ffdec:characterName="230_fla.Symbole339_25" height="56.0" id="back" transform="matrix(1.0, 0.0, 0.0, 1.0, 0.0, 0.0)" width="56.0" xlink:href="#sprite24"/>
    </g>
    <g id="sprite24" transform="matrix(1.0, 0.0, 0.0, 1.0, 0.0, 0.0)">
      <use ffdec:characterId="51" ffdec:characterName="230_fla.Symbole336_26" height="56.0" id="back" transform="matrix(1.0, 0.0, 0.0, 1.0, 0.0, 0.0)" width="56.0" xlink:href="#sprite25"/>
    </g>
    <g id="sprite25" transform="matrix(1.0, 0.0, 0.0, 1.0, 0.0, 0.0)">
      <use ffdec:characterId="50" ffdec:characterName="230_fla.Symbole333_27" height="56.0" id="back" transform="matrix(1.0, 0.0, 0.0, 1.0, 0.0, 0.0)" width="56.0" xlink:href="#sprite26"/>
    </g>
    <g id="sprite26" transform="matrix(1.0, 0.0, 0.0, 1.0, 0.0, 0.0)">
      <use ffdec:characterId="49" ffdec:characterName="230_fla.Symbole330_28" height="56.0" id="back" transform="matrix(1.0, 0.0, 0.0, 1.0, 0.0, 0.0)" width="56.0" xlink:href="#sprite27"/>
    </g>
    <g id="sprite27" transform="matrix(1.0, 0.0, 0.0, 1.0, 0.0, 0.0)">
      <use ffdec:characterId="48" ffdec:characterName="230_fla.Symbole327_29" height="56.0" id="back" transform="matrix(1.0, 0.0, 0.0, 1.0, 0.0, 0.0)" width="56.0" xlink:href="#sprite28"/>
    </g>
    <g id="sprite28" transform="matrix(1.0, 0.0, 0.0, 1.0, 0.0, 0.0)">
      <use ffdec:characterId="47" ffdec:characterName="230_fla.Symbole324_30" height="56.0" id="back" transform="matrix(1.0, 0.0, 0.0, 1.0, 0.0, 0.0)" width="56.0" xlink:href="#sprite29"/>
    </g>
    <g id="sprite29" transform="matrix(1.0, 0.0, 0.0, 1.0, 0.0, 0.0)">
      <use ffdec:characterId="46" ffdec:characterName="230_fla.Symbole321_31" height="56.0" id="back" transform="matrix(1.0, 0.0, 0.0, 1.0, 0.0, 0.0)" width="56.0" xlink:href="#sprite30"/>
    </g>
    <g id="sprite30" transform="matrix(1.0, 0.0, 0.0, 1.0, 0.0, 0.0)">
      <use ffdec:characterId="45" ffdec:characterName="230_fla.Symbole318_32" height="56.0" id="back" transform="matrix(1.0, 0.0, 0.0, 1.0, 0.0, 0.0)" width="56.0" xlink:href="#sprite31"/>
    </g>
    <g id="sprite31" transform="matrix(1.0, 0.0, 0.0, 1.0, 0.0, 0.0)">
      <use ffdec:characterId="44" ffdec:characterName="230_fla.Symbole315_33" height="56.0" id="back" transform="matrix(1.0, 0.0, 0.0, 1.0, 0.0, 0.0)" width="56.0" xlink:href="#sprite32"/>
    </g>
    <g id="sprite32" transform="matrix(1.0, 0.0, 0.0, 1.0, 0.0, 0.0)">
      <use ffdec:characterId="43" ffdec:characterName="230_fla.Symbole312_34" height="56.0" id="back" transform="matrix(1.0, 0.0, 0.0, 1.0, 0.0, 0.0)" width="56.0" xlink:href="#sprite33"/>
    </g>
    <g id="sprite33" transform="matrix(1.0, 0.0, 0.0, 1.0, 0.0, 0.0)">
      <use ffdec:characterId="42" ffdec:characterName="230_fla.Symbole309_35" height="56.0" id="back" transform="matrix(1.0, 0.0, 0.0, 1.0, 0.0, 0.0)" width="56.0" xlink:href="#sprite34"/>
    </g>
    <g id="sprite34" transform="matrix(1.0, 0.0, 0.0, 1.0, 0.0, 0.0)">
      <use ffdec:characterId="41" ffdec:characterName="230_fla.Symbole306_36" height="56.0" id="back" transform="matrix(1.0, 0.0, 0.0, 1.0, 0.0, 0.0)" width="56.0" xlink:href="#sprite35"/>
    </g>
    <g id="sprite35" transform="matrix(1.0, 0.0, 0.0, 1.0, 0.0, 0.0)">
      <use ffdec:characterId="40" ffdec:characterName="230_fla.Symbole303_37" height="56.0" id="back" transform="matrix(1.0, 0.0, 0.0, 1.0, 0.0, 0.0)" width="56.0" xlink:href="#sprite36"/>
    </g>
    <g id="sprite36" transform="matrix(1.0, 0.0, 0.0, 1.0, 0.0, 0.0)">
      <use ffdec:characterId="39" ffdec:characterName="230_fla.Symbole300_38" height="56.0" id="back" transform="matrix(1.0, 0.0, 0.0, 1.0, 0.0, 0.0)" width="56.0" xlink:href="#sprite37"/>
    </g>
    <g id="sprite37" transform="matrix(1.0, 0.0, 0.0, 1.0, 0.0, 0.0)">
      <use ffdec:characterId="38" ffdec:characterName="230_fla.Symbole297_39" height="56.0" id="back" transform="matrix(1.0, 0.0, 0.0, 1.0, 0.0, 0.0)" width="56.0" xlink:href="#sprite38"/>
    </g>
    <g id="sprite38" transform="matrix(1.0, 0.0, 0.0, 1.0, 0.0, 0.0)">
      <use ffdec:characterId="37" ffdec:characterName="230_fla.Symbole294_40" height="56.0" id="back" transform="matrix(1.0, 0.0, 0.0, 1.0, 0.0, 0.0)" width="56.0" xlink:href="#sprite39"/>
    </g>
    <g id="sprite39" transform="matrix(1.0, 0.0, 0.0, 1.0, 0.0, 0.0)">
      <use ffdec:characterId="36" ffdec:characterName="230_fla.Symbole291_41" height="56.0" id="back" transform="matrix(1.0, 0.0, 0.0, 1.0, 0.0, 0.0)" width="56.0" xlink:href="#sprite40"/>
    </g>
    <g id="sprite40" transform="matrix(1.0, 0.0, 0.0, 1.0, 0.0, 0.0)">
      <use ffdec:characterId="35" ffdec:characterName="230_fla.Symbole288_42" height="56.0" id="back" transform="matrix(1.0, 0.0, 0.0, 1.0, 0.0, 0.0)" width="56.0" xlink:href="#sprite41"/>
    </g>
    <g id="sprite41" transform="matrix(1.0, 0.0, 0.0, 1.0, 0.0, 0.0)">
      <use ffdec:characterId="34" ffdec:characterName="230_fla.Symbole285_43" height="56.0" id="back" transform="matrix(1.0, 0.0, 0.0, 1.0, 0.0, 0.0)" width="56.0" xlink:href="#sprite42"/>
    </g>
    <g id="sprite42" transform="matrix(1.0, 0.0, 0.0, 1.0, 0.0, 0.0)">
      <use ffdec:characterId="33" ffdec:characterName="230_fla.Symbole282_44" height="56.0" id="back" transform="matrix(1.0, 0.0, 0.0, 1.0, 0.0, 0.0)" width="56.0" xlink:href="#sprite43"/>
    </g>
    <g id="sprite43" transform="matrix(1.0, 0.0, 0.0, 1.0, 0.0, 0.0)">
      <use ffdec:characterId="32" ffdec:characterName="230_fla.Symbole279_45" height="56.0" id="back" transform="matrix(1.0, 0.0, 0.0, 1.0, 0.0, 0.0)" width="56.0" xlink:href="#sprite44"/>
    </g>
    <g id="sprite44" transform="matrix(1.0, 0.0, 0.0, 1.0, 0.0, 0.0)">
      <use ffdec:characterId="31" ffdec:characterName="230_fla.Symbole276_46" height="56.0" id="back" transform="matrix(1.0, 0.0, 0.0, 1.0, 0.0, 0.0)" width="56.0" xlink:href="#sprite45"/>
    </g>
    <g id="sprite45" transform="matrix(1.0, 0.0, 0.0, 1.0, 0.0, 0.0)">
      <use ffdec:characterId="30" ffdec:characterName="230_fla.Symbole273_47" height="56.0" id="back" transform="matrix(1.0, 0.0, 0.0, 1.0, 0.0, 0.0)" width="56.0" xlink:href="#sprite46"/>
    </g>
    <g id="sprite46" transform="matrix(1.0, 0.0, 0.0, 1.0, 0.0, 0.0)">
      <use ffdec:characterId="29" ffdec:characterName="230_fla.Symbole270_48" height="56.0" id="back" transform="matrix(1.0, 0.0, 0.0, 1.0, 0.0, 0.0)" width="56.0" xlink:href="#sprite47"/>
    </g>
    <g id="sprite47" transform="matrix(1.0, 0.0, 0.0, 1.0, 0.0, 0.0)">
      <use ffdec:characterId="28" ffdec:characterName="230_fla.Symbole267_49" height="56.0" id="back" transform="matrix(1.0, 0.0, 0.0, 1.0, 0.0, 0.0)" width="56.0" xlink:href="#sprite48"/>
    </g>
    <g id="sprite48" transform="matrix(1.0, 0.0, 0.0, 1.0, 0.0, 0.0)">
      <use ffdec:characterId="27" ffdec:characterName="230_fla.Symbole264_50" height="56.0" id="back" transform="matrix(1.0, 0.0, 0.0, 1.0, 0.0, 0.0)" width="56.0" xlink:href="#sprite49"/>
    </g>
    <g id="sprite49" transform="matrix(1.0, 0.0, 0.0, 1.0, 0.0, 0.0)">
      <use ffdec:characterId="26" ffdec:characterName="230_fla.Symbole261_51" height="56.0" id="back" transform="matrix(1.0, 0.0, 0.0, 1.0, 0.0, 0.0)" width="56.0" xlink:href="#sprite50"/>
    </g>
    <g id="sprite50" transform="matrix(1.0, 0.0, 0.0, 1.0, 0.0, 0.0)">
      <use ffdec:characterId="25" ffdec:characterName="230_fla.Symbole258_52" height="56.0" id="back" transform="matrix(1.0, 0.0, 0.0, 1.0, 0.0, 0.0)" width="56.0" xlink:href="#sprite51"/>
    </g>
    <g id="sprite51" transform="matrix(1.0, 0.0, 0.0, 1.0, 0.0, 0.0)">
      <use ffdec:characterId="24" ffdec:characterName="230_fla.Symbole255_53" height="56.0" id="back" transform="matrix(1.0, 0.0, 0.0, 1.0, 0.0, 0.0)" width="56.0" xlink:href="#sprite52"/>
    </g>
    <g id="sprite52" transform="matrix(1.0, 0.0, 0.0, 1.0, 0.0, 0.0)">
      <use ffdec:characterId="23" ffdec:characterName="230_fla.Symbole252_54" height="56.0" id="back" transform="matrix(1.0, 0.0, 0.0, 1.0, 0.0, 0.0)" width="56.0" xlink:href="#sprite53"/>
    </g>
    <g id="sprite53" transform="matrix(1.0, 0.0, 0.0, 1.0, 0.0, 0.0)">
      <use ffdec:characterId="22" ffdec:characterName="230_fla.Symbole249_55" height="56.0" id="back" transform="matrix(1.0, 0.0, 0.0, 1.0, 0.0, 0.0)" width="56.0" xlink:href="#sprite54"/>
    </g>
    <g id="sprite54" transform="matrix(1.0, 0.0, 0.0, 1.0, 0.0, 0.0)">
      <use ffdec:characterId="21" ffdec:characterName="230_fla.Symbole246_56" height="56.0" id="back" transform="matrix(1.0, 0.0, 0.0, 1.0, 0.0, 0.0)" width="56.0" xlink:href="#sprite55"/>
    </g>
    <g id="sprite55" transform="matrix(1.0, 0.0, 0.0, 1.0, 0.0, 0.0)">
      <use ffdec:characterId="20" ffdec:characterName="230_fla.Symbole243_57" height="56.0" id="back" transform="matrix(1.0, 0.0, 0.0, 1.0, 0.0, 0.0)" width="56.0" xlink:href="#sprite56"/>
    </g>
    <g id="sprite56" transform="matrix(1.0, 0.0, 0.0, 1.0, 0.0, 0.0)">
      <use ffdec:characterId="19" ffdec:characterName="230_fla.Symbole240_58" height="56.0" id="back" transform="matrix(1.0, 0.0, 0.0, 1.0, 0.0, 0.0)" width="56.0" xlink:href="#sprite57"/>
    </g>
    <g id="sprite57" transform="matrix(1.0, 0.0, 0.0, 1.0, 0.0, 0.0)">
      <use ffdec:characterId="18" ffdec:characterName="230_fla.Symbole237_59" height="56.0" id="back" transform="matrix(1.0, 0.0, 0.0, 1.0, 0.0, 0.0)" width="56.0" xlink:href="#sprite58"/>
    </g>
    <g id="sprite58" transform="matrix(1.0, 0.0, 0.0, 1.0, 0.0, 0.0)">
      <use ffdec:characterId="17" ffdec:characterName="230_fla.Symbole234_60" height="56.0" id="back" transform="matrix(1.0, 0.0, 0.0, 1.0, 0.0, 0.0)" width="56.0" xlink:href="#sprite59"/>
    </g>
    <g id="sprite59" transform="matrix(1.0, 0.0, 0.0, 1.0, 0.0, 0.0)">
      <use ffdec:characterId="16" ffdec:characterName="230_fla.Symbole231_61" height="56.0" id="back" transform="matrix(1.0, 0.0, 0.0, 1.0, 0.0, 0.0)" width="56.0" xlink:href="#sprite60"/>
    </g>
    <g id="sprite60" transform="matrix(1.0, 0.0, 0.0, 1.0, 0.0, 0.0)">
      <use ffdec:characterId="15" ffdec:characterName="230_fla.Symbole228_62" height="56.0" id="back" transform="matrix(1.0, 0.0, 0.0, 1.0, 0.0, 0.0)" width="56.0" xlink:href="#sprite61"/>
    </g>
    <g id="sprite61" transform="matrix(1.0, 0.0, 0.0, 1.0, 0.0, 0.0)">
      <use ffdec:characterId="14" ffdec:characterName="230_fla.Symbole225_63" height="56.0" id="back" transform="matrix(1.0, 0.0, 0.0, 1.0, 0.0, 0.0)" width="56.0" xlink:href="#sprite62"/>
    </g>
    <g id="sprite62" transform="matrix(1.0, 0.0, 0.0, 1.0, 0.0, 0.0)">
      <use ffdec:characterId="13" ffdec:characterName="230_fla.Symbole222_64" height="56.0" id="back" transform="matrix(1.0, 0.0, 0.0, 1.0, 0.0, 0.0)" width="56.0" xlink:href="#sprite63"/>
    </g>
    <g id="sprite63" transform="matrix(1.0, 0.0, 0.0, 1.0, 0.0, 0.0)">
      <use ffdec:characterId="12" ffdec:characterName="230_fla.Symbole219_65" height="56.0" id="back" transform="matrix(1.0, 0.0, 0.0, 1.0, 0.0, 0.0)" width="56.0" xlink:href="#sprite64"/>
    </g>
    <g id="sprite64" transform="matrix(1.0, 0.0, 0.0, 1.0, 0.0, 0.0)">
      <use ffdec:characterId="11" ffdec:characterName="230_fla.Symbole216_66" height="56.0" id="back" transform="matrix(1.0, 0.0, 0.0, 1.0, 0.0, 0.0)" width="56.0" xlink:href="#sprite65"/>
    </g>
    <g id="sprite65" transform="matrix(1.0, 0.0, 0.0, 1.0, 0.0, 0.0)">
      <use ffdec:characterId="10" ffdec:characterName="230_fla.Symbole213_67" height="56.0" id="back" transform="matrix(1.0, 0.0, 0.0, 1.0, 0.0, 0.0)" width="56.0" xlink:href="#sprite66"/>
    </g>
    <g id="sprite66" transform="matrix(1.0, 0.0, 0.0, 1.0, 0.0, 0.0)">
      <use ffdec:characterId="9" ffdec:characterName="230_fla.Symbole210_68" height="56.0" id="back" transform="matrix(1.0, 0.0, 0.0, 1.0, 0.0, 0.0)" width="56.0" xlink:href="#sprite67"/>
    </g>
    <g id="sprite67" transform="matrix(1.0, 0.0, 0.0, 1.0, 0.0, 0.0)">
      <use ffdec:characterId="8" ffdec:characterName="230_fla.Symbole207_69" height="56.0" id="back" transform="matrix(1.0, 0.0, 0.0, 1.0, 0.0, 0.0)" width="56.0" xlink:href="#sprite68"/>
    </g>
    <g id="sprite68" transform="matrix(1.0, 0.0, 0.0, 1.0, 0.0, 0.0)">
      <use ffdec:characterId="7" ffdec:characterName="230_fla.Symbole204_70" height="56.0" id="back" transform="matrix(1.0, 0.0, 0.0, 1.0, 0.0, 0.0)" width="56.0" xlink:href="#sprite69"/>
    </g>
    <g id="sprite69" transform="matrix(1.0, 0.0, 0.0, 1.0, 0.0, 0.0)">
      <use ffdec:characterId="6" ffdec:characterName="230_fla.Symbole201_71" height="56.0" id="back" transform="matrix(1.0, 0.0, 0.0, 1.0, 0.0, 0.0)" width="56.0" xlink:href="#sprite70"/>
    </g>
    <g id="sprite70" transform="matrix(1.0, 0.0, 0.0, 1.0, 0.0, 0.0)">
      <use ffdec:characterId="5" ffdec:characterName="230_fla.Symbole198_72" height="56.0" id="back" transform="matrix(1.0, 0.0, 0.0, 1.0, 0.0, 0.0)" width="56.0" xlink:href="#sprite71"/>
    </g>
    <g id="sprite71" transform="matrix(1.0, 0.0, 0.0, 1.0, 0.0, 0.0)">
      <use ffdec:characterId="4" ffdec:characterName="230_fla.Symbole195_73" height="56.0" id="back" transform="matrix(1.0, 0.0, 0.0, 1.0, 0.0, 0.0)" width="56.0" xlink:href="#sprite72"/>
    </g>
    <g id="sprite72" transform="matrix(1.0, 0.0, 0.0, 1.0, 0.0, 0.0)">
      <use ffdec:characterId="3" ffdec:characterName="230_fla.Symbole192_74" height="56.0" id="back" transform="matrix(1.0, 0.0, 0.0, 1.0, 0.0, 0.0)" width="56.0" xlink:href="#sprite73"/>
    </g>
    <g id="sprite73" transform="matrix(1.0, 0.0, 0.0, 1.0, 0.0, 0.0)">
      <use ffdec:characterId="2" height="56.0" id="back" transform="matrix(1.0, 0.0, 0.0, 1.0, 0.0, 0.0)" width="56.0" xlink:href="#sprite74"/>
    </g>
    <g id="sprite74" transform="matrix(1.0, 0.0, 0.0, 1.0, 0.0, 0.0)">
      <use ffdec:characterId="1" height="56.0" transform="matrix(1.0, 0.0, 0.0, 1.0, 0.0, 0.0)" width="56.0" xlink:href="#shape0"/>
    </g>
    <g id="shape0" transform="matrix(1.0, 0.0, 0.0, 1.0, 0.0, 0.0)">
      <path d="M56.0 56.0 L0.0 56.0 0.0 0.0 56.0 0.0 56.0 56.0" fill="#010101" fill-opacity="0.0" fill-rule="evenodd" stroke="none"/>
    </g>
    <g id="sprite75" transform="matrix(1.0, 0.0, 0.0, 1.0, 0.75, 0.75)">
      <use ffdec:characterId="77" height="53.75" transform="matrix(1.0, 0.0, 0.0, 1.0, -0.75, -0.75)" width="55.35" xlink:href="#shape1"/>
    </g>
    <g id="shape1" transform="matrix(1.0, 0.0, 0.0, 1.0, 0.75, 0.75)">
      <path d="M41.6 22.4 L41.2 22.25 32.45 22.25 Q32.25 22.25 32.15 22.4 L32.05 22.65 32.15 22.9 Q32.25 23.05 32.45 23.05 L41.2 23.05 41.6 22.9 41.65 22.65 41.6 22.4 M45.9 22.75 L46.1 22.65 46.1 22.4 45.95 21.45 Q45.95 20.2 46.9 19.35 47.7 18.5 48.9 18.5 49.85 18.5 50.7 19.0 L50.95 19.05 51.15 18.95 51.2 18.75 51.05 18.5 Q50.1 17.85 48.9 17.85 47.4 17.85 46.4 18.9 45.3 19.9 45.3 21.35 L45.3 21.5 Q45.3 22.1 45.45 22.6 L45.65 22.75 45.9 22.75 M45.65 18.1 Q47.1 16.7 49.0 16.7 50.7 16.7 51.95 17.7 L52.4 18.1 Q53.85 19.45 53.85 21.45 53.85 23.5 52.4 24.85 51.0 26.25 49.0 26.25 47.1 26.25 45.65 24.85 L44.95 23.95 35.5 31.3 39.0 42.95 40.6 42.7 Q42.25 42.7 43.5 43.65 L44.0 44.05 Q45.45 45.45 45.45 47.5 45.45 49.45 44.0 50.8 42.6 52.25 40.6 52.25 38.6 52.25 37.15 50.8 36.4 50.0 36.1 49.05 35.8 48.3 35.8 47.5 35.8 45.9 36.7 44.65 L26.6 37.85 17.0 44.6 Q17.55 45.6 17.55 46.9 17.55 48.95 16.1 50.2 14.75 51.65 12.75 51.65 10.7 51.65 9.3 50.2 8.55 49.4 8.25 48.5 8.0 47.8 8.0 46.9 8.0 44.95 9.3 43.5 10.7 42.1 12.75 42.1 L14.45 42.45 17.55 31.45 8.45 24.65 8.15 25.0 Q6.75 26.4 4.8 26.4 2.85 26.4 1.35 25.0 0.55 24.15 0.3 23.2 0.0 22.45 0.0 21.6 0.0 19.6 1.35 18.25 2.85 16.85 4.8 16.85 6.4 16.85 7.65 17.85 L8.15 18.25 Q9.5 19.55 9.55 21.35 L20.85 20.95 24.95 9.4 Q23.9 9.05 23.05 8.15 22.2 7.3 21.95 6.35 21.65 5.6 21.65 4.75 21.65 2.75 23.05 1.35 24.5 0.0 26.45 0.0 28.05 0.0 29.3 1.0 L29.75 1.35 Q31.2 2.75 31.2 4.75 31.2 6.75 29.75 8.15 28.9 9.05 27.8 9.4 L32.0 20.85 44.25 21.05 Q44.4 19.35 45.65 18.1 M47.15 24.3 L46.75 23.7 Q46.6 23.55 46.45 23.5 L46.25 23.55 46.05 23.75 46.1 24.0 46.55 24.65 46.75 24.8 47.05 24.8 47.15 24.5 47.15 24.3 M42.65 44.45 Q41.7 43.75 40.5 43.75 39.0 43.75 37.95 44.85 36.9 45.9 36.9 47.4 L36.95 48.6 37.15 48.8 37.4 48.8 37.65 48.65 37.65 48.4 37.5 47.4 Q37.5 46.2 38.4 45.35 39.3 44.45 40.5 44.45 41.45 44.45 42.25 45.0 L42.55 45.1 42.75 44.95 42.8 44.65 42.65 44.45 M28.3 2.35 L28.5 2.25 28.6 1.95 28.45 1.8 Q27.55 1.1 26.35 1.1 24.85 1.1 23.8 2.15 22.7 3.2 22.7 4.7 L22.8 5.9 23.05 6.05 23.25 6.05 23.5 5.9 23.5 5.65 23.35 4.7 Q23.35 3.45 24.3 2.6 25.15 1.8 26.35 1.8 27.3 1.8 28.05 2.3 L28.3 2.35 M23.4 7.05 L23.5 7.3 23.9 7.95 24.15 8.1 24.4 8.1 24.5 7.8 24.5 7.55 24.15 7.0 23.85 6.75 23.65 6.85 23.4 7.05 M26.05 10.25 L25.75 10.25 25.65 10.5 22.8 20.55 22.8 20.95 23.1 21.05 23.35 21.05 23.55 20.8 26.35 10.65 26.25 10.4 26.05 10.25 M19.9 22.55 Q19.75 22.4 19.6 22.4 L10.85 22.55 Q10.7 22.55 10.65 22.7 L10.5 22.9 10.65 23.2 Q10.7 23.35 10.85 23.35 L19.6 23.2 19.9 23.05 20.05 22.75 19.9 22.55 M1.15 22.7 L1.35 22.9 1.65 22.9 1.85 22.75 1.85 22.55 1.75 21.5 Q1.75 20.3 2.6 19.45 3.5 18.65 4.65 18.65 5.65 18.65 6.4 19.1 L6.7 19.2 6.9 19.05 6.95 18.8 6.85 18.65 Q5.9 17.95 4.65 17.95 3.2 17.95 2.1 19.0 1.0 20.05 1.0 21.5 1.0 22.15 1.15 22.7 M18.6 32.0 L15.9 41.6 15.9 41.8 16.2 42.05 16.4 41.95 16.6 41.7 19.4 32.25 19.3 31.95 19.1 31.8 Q18.9 31.65 18.75 31.8 L18.6 32.0 M2.2 23.6 L1.95 23.7 1.8 23.85 1.85 24.15 2.25 24.8 2.45 24.95 2.75 24.95 2.9 24.65 2.9 24.45 2.45 23.85 2.2 23.6 M12.6 43.9 Q13.55 43.9 14.4 44.45 L14.65 44.5 14.9 44.35 14.95 44.15 14.8 43.9 Q13.85 43.2 12.6 43.2 11.15 43.2 10.05 44.3 9.05 45.35 9.05 46.85 L9.1 48.0 9.3 48.25 9.55 48.25 9.75 48.1 9.75 47.8 9.65 46.85 Q9.65 45.6 10.55 44.8 11.45 43.9 12.6 43.9 M37.8 49.55 Q37.65 49.6 37.55 49.7 L37.65 50.0 38.05 50.55 38.3 50.7 38.5 50.7 38.65 50.45 38.65 50.2 38.3 49.6 38.0 49.45 Q37.85 49.4 37.8 49.55 M9.9 49.0 L9.7 49.1 9.75 49.4 10.2 50.05 10.4 50.2 10.7 50.2 10.8 49.9 10.8 49.7 10.4 49.05 10.15 48.95 9.9 49.0 Z" fill="none" stroke="#000000" stroke-linecap="round" stroke-linejoin="round" stroke-opacity="0.2" stroke-width="1.5"/>
    </g>
    <g id="sprite76" transform="matrix(1.0, 0.0, 0.0, 1.0, 0.0, 0.0)">
      <use ffdec:characterId="79" height="52.2" transform="matrix(1.0, 0.0, 0.0, 1.0, 0.0, 0.0)" width="53.85" xlink:href="#shape2"/>
    </g>
    <g id="shape2" transform="matrix(1.0, 0.0, 0.0, 1.0, 0.0, 0.0)">
      <path d="M41.65 22.6 L41.6 22.35 41.25 22.2 32.5 22.2 Q32.3 22.2 32.2 22.35 L32.05 22.6 32.2 22.9 32.5 23.05 41.25 23.05 41.6 22.9 41.65 22.6 M45.45 22.55 L45.65 22.75 45.95 22.75 46.15 22.6 46.15 22.35 46.0 21.4 Q46.0 20.15 46.9 19.3 47.75 18.5 48.9 18.5 49.85 18.5 50.7 19.0 L50.95 19.05 51.2 18.9 51.25 18.7 51.1 18.5 Q50.15 17.8 48.9 17.8 47.45 17.8 46.4 18.85 45.3 19.85 45.3 21.3 L45.3 21.5 45.45 22.55 M45.65 18.1 Q47.1 16.7 49.05 16.7 50.7 16.7 51.95 17.65 L52.4 18.1 Q53.85 19.45 53.85 21.45 53.85 23.45 52.4 24.85 51.05 26.25 49.05 26.25 47.1 26.25 45.65 24.85 L44.95 23.95 35.5 31.3 39.05 42.9 40.6 42.65 Q42.3 42.65 43.5 43.6 L44.0 44.0 Q45.45 45.45 45.45 47.45 45.45 49.45 44.0 50.75 42.6 52.2 40.6 52.2 38.6 52.2 37.2 50.75 36.4 49.95 36.15 49.05 35.85 48.3 35.85 47.45 35.85 45.9 36.7 44.65 L26.65 37.85 17.05 44.55 Q17.6 45.6 17.6 46.9 17.6 48.9 16.15 50.2 14.75 51.65 12.75 51.65 10.75 51.65 9.3 50.2 8.55 49.4 8.3 48.5 8.0 47.75 8.0 46.9 8.0 44.9 9.3 43.45 10.75 42.1 12.75 42.1 L14.5 42.45 17.6 31.45 8.5 24.6 8.15 24.95 Q6.75 26.4 4.85 26.4 2.85 26.4 1.4 24.95 0.55 24.15 0.3 23.15 0.0 22.4 0.0 21.6 0.0 19.6 1.4 18.2 2.85 16.85 4.85 16.85 6.4 16.85 7.65 17.8 L8.15 18.2 Q9.5 19.55 9.6 21.3 L20.9 20.9 24.95 9.35 Q23.95 9.0 23.05 8.1 22.2 7.3 21.95 6.3 21.65 5.55 21.65 4.75 21.65 2.75 23.05 1.35 24.5 0.0 26.5 0.0 28.05 0.0 29.3 0.95 L29.8 1.35 Q31.25 2.75 31.25 4.75 31.25 6.75 29.8 8.1 28.9 9.0 27.8 9.35 L32.0 20.85 44.3 21.05 Q44.4 19.3 45.65 18.1 M47.2 24.5 L47.2 24.3 46.75 23.65 46.5 23.45 46.3 23.5 46.05 23.7 46.15 24.0 46.55 24.6 46.75 24.75 47.05 24.75 47.2 24.5 M40.5 43.75 Q39.05 43.75 37.95 44.85 36.9 45.9 36.9 47.4 L36.95 48.55 37.2 48.75 37.45 48.75 37.65 48.65 37.65 48.35 37.5 47.4 Q37.5 46.15 38.4 45.35 39.3 44.45 40.5 44.45 41.45 44.45 42.3 45.0 L42.55 45.05 42.75 44.9 42.85 44.65 42.7 44.45 Q41.75 43.75 40.5 43.75 M28.35 2.35 L28.55 2.2 28.65 1.9 28.5 1.8 Q27.6 1.1 26.35 1.1 24.9 1.1 23.8 2.1 22.7 3.15 22.7 4.65 22.7 5.3 22.85 5.85 L23.05 6.05 23.3 6.05 23.5 5.9 23.5 5.65 23.4 4.65 Q23.4 3.45 24.3 2.6 25.2 1.8 26.35 1.8 27.3 1.8 28.05 2.25 L28.35 2.35 M23.45 7.0 L23.5 7.3 23.95 7.9 24.15 8.05 24.4 8.05 24.55 7.75 24.55 7.55 24.15 6.95 23.85 6.75 23.65 6.8 23.45 7.0 M26.05 10.25 L25.8 10.25 Q25.65 10.3 25.65 10.45 L22.85 20.55 22.85 20.9 23.1 21.05 23.4 21.05 23.6 20.75 26.35 10.65 26.3 10.4 26.05 10.25 M19.95 22.5 L19.65 22.35 10.9 22.5 10.65 22.7 10.5 22.9 10.65 23.15 10.9 23.3 19.65 23.15 19.95 23.05 20.1 22.75 19.95 22.5 M1.2 22.7 L1.4 22.9 1.65 22.9 1.85 22.75 1.85 22.5 1.75 21.5 Q1.75 20.3 2.65 19.45 3.55 18.65 4.7 18.65 5.65 18.65 6.4 19.1 L6.7 19.2 6.9 19.05 6.95 18.75 6.85 18.65 Q5.95 17.95 4.7 17.95 3.25 17.95 2.15 19.0 1.05 20.0 1.05 21.5 1.05 22.15 1.2 22.7 M18.65 32.0 L15.95 41.55 15.95 41.8 16.2 42.05 16.4 41.95 16.65 41.7 19.4 32.2 19.3 31.9 19.1 31.75 18.75 31.75 18.65 32.0 M2.2 23.6 L2.0 23.65 1.8 23.85 1.85 24.15 2.3 24.75 2.5 24.9 2.75 24.9 2.9 24.6 2.9 24.4 2.5 23.8 2.2 23.6 M9.05 46.85 L9.1 48.0 9.3 48.2 9.6 48.2 9.8 48.1 9.8 47.8 9.65 46.85 Q9.65 45.6 10.55 44.8 11.45 43.9 12.65 43.9 13.6 43.9 14.4 44.45 L14.7 44.5 14.9 44.35 14.95 44.1 14.85 43.9 Q13.85 43.2 12.65 43.2 11.2 43.2 10.1 44.3 9.05 45.35 9.05 46.85 M37.8 49.55 L37.6 49.65 37.65 49.95 38.05 50.55 38.3 50.7 38.55 50.7 38.7 50.4 38.7 50.2 38.3 49.6 38.0 49.45 Q37.85 49.4 37.8 49.55 M9.75 49.1 L9.8 49.4 10.2 50.0 10.4 50.15 10.7 50.15 10.85 49.85 10.85 49.65 10.4 49.05 10.15 48.9 9.95 48.95 9.75 49.1" fill="#000000" fill-rule="evenodd" stroke="none"/>
    </g>
  </defs>
</svg>
