<?xml version="1.0" encoding="UTF-8" standalone="no"?>
<svg xmlns:ffdec="https://www.free-decompiler.com/flash" xmlns:xlink="http://www.w3.org/1999/xlink" ffdec:objectType="frame" height="56.0px" width="56.0px" xmlns="http://www.w3.org/2000/svg">
  <g transform="matrix(1.0, 0.0, 0.0, 1.0, 0.0, 0.0)">
    <use ffdec:characterId="79" ffdec:characterName="233_fla.Symbole420_1" height="56.0" id="back" transform="matrix(1.0, 0.0, 0.0, 1.0, 0.0, 0.0)" width="56.0" xlink:href="#sprite0"/>
    <use ffdec:characterId="81" height="55.25" id="back" transform="matrix(1.0, 0.0, 0.0, 1.0, 1.95, 0.3)" width="52.0" xlink:href="#sprite78"/>
    <use ffdec:characterId="83" height="53.75" id="up" transform="matrix(1.0, 0.0, 0.0, 1.0, 2.7, 1.05)" width="50.5" xlink:href="#sprite79"/>
  </g>
  <defs>
    <g id="sprite0" transform="matrix(1.0, 0.0, 0.0, 1.0, 0.0, 0.0)">
      <use ffdec:characterId="78" ffdec:characterName="233_fla.Symbole417_2" height="56.0" id="back" transform="matrix(1.0, 0.0, 0.0, 1.0, 0.0, 0.0)" width="56.0" xlink:href="#sprite1"/>
    </g>
    <g id="sprite1" transform="matrix(1.0, 0.0, 0.0, 1.0, 0.0, 0.0)">
      <use ffdec:characterId="77" ffdec:characterName="233_fla.Symbole414_3" height="56.0" id="back" transform="matrix(1.0, 0.0, 0.0, 1.0, 0.0, 0.0)" width="56.0" xlink:href="#sprite2"/>
    </g>
    <g id="sprite2" transform="matrix(1.0, 0.0, 0.0, 1.0, 0.0, 0.0)">
      <use ffdec:characterId="76" ffdec:characterName="233_fla.Symbole411_4" height="56.0" id="back" transform="matrix(1.0, 0.0, 0.0, 1.0, 0.0, 0.0)" width="56.0" xlink:href="#sprite3"/>
    </g>
    <g id="sprite3" transform="matrix(1.0, 0.0, 0.0, 1.0, 0.0, 0.0)">
      <use ffdec:characterId="75" ffdec:characterName="233_fla.Symbole408_5" height="56.0" id="back" transform="matrix(1.0, 0.0, 0.0, 1.0, 0.0, 0.0)" width="56.0" xlink:href="#sprite4"/>
    </g>
    <g id="sprite4" transform="matrix(1.0, 0.0, 0.0, 1.0, 0.0, 0.0)">
      <use ffdec:characterId="74" ffdec:characterName="233_fla.Symbole405_6" height="56.0" id="back" transform="matrix(1.0, 0.0, 0.0, 1.0, 0.0, 0.0)" width="56.0" xlink:href="#sprite5"/>
    </g>
    <g id="sprite5" transform="matrix(1.0, 0.0, 0.0, 1.0, 0.0, 0.0)">
      <use ffdec:characterId="73" ffdec:characterName="233_fla.Symbole402_7" height="56.0" id="back" transform="matrix(1.0, 0.0, 0.0, 1.0, 0.0, 0.0)" width="56.0" xlink:href="#sprite6"/>
    </g>
    <g id="sprite6" transform="matrix(1.0, 0.0, 0.0, 1.0, 0.0, 0.0)">
      <use ffdec:characterId="72" ffdec:characterName="233_fla.Symbole399_8" height="56.0" id="back" transform="matrix(1.0, 0.0, 0.0, 1.0, 0.0, 0.0)" width="56.0" xlink:href="#sprite7"/>
    </g>
    <g id="sprite7" transform="matrix(1.0, 0.0, 0.0, 1.0, 0.0, 0.0)">
      <use ffdec:characterId="71" ffdec:characterName="233_fla.Symbole396_9" height="56.0" id="back" transform="matrix(1.0, 0.0, 0.0, 1.0, 0.0, 0.0)" width="56.0" xlink:href="#sprite8"/>
    </g>
    <g id="sprite8" transform="matrix(1.0, 0.0, 0.0, 1.0, 0.0, 0.0)">
      <use ffdec:characterId="70" ffdec:characterName="233_fla.Symbole393_10" height="56.0" id="back" transform="matrix(1.0, 0.0, 0.0, 1.0, 0.0, 0.0)" width="56.0" xlink:href="#sprite9"/>
    </g>
    <g id="sprite9" transform="matrix(1.0, 0.0, 0.0, 1.0, 0.0, 0.0)">
      <use ffdec:characterId="69" ffdec:characterName="233_fla.Symbole390_11" height="56.0" id="back" transform="matrix(1.0, 0.0, 0.0, 1.0, 0.0, 0.0)" width="56.0" xlink:href="#sprite10"/>
    </g>
    <g id="sprite10" transform="matrix(1.0, 0.0, 0.0, 1.0, 0.0, 0.0)">
      <use ffdec:characterId="68" ffdec:characterName="233_fla.Symbole387_12" height="56.0" id="back" transform="matrix(1.0, 0.0, 0.0, 1.0, 0.0, 0.0)" width="56.0" xlink:href="#sprite11"/>
    </g>
    <g id="sprite11" transform="matrix(1.0, 0.0, 0.0, 1.0, 0.0, 0.0)">
      <use ffdec:characterId="67" ffdec:characterName="233_fla.Symbole384_13" height="56.0" id="back" transform="matrix(1.0, 0.0, 0.0, 1.0, 0.0, 0.0)" width="56.0" xlink:href="#sprite12"/>
    </g>
    <g id="sprite12" transform="matrix(1.0, 0.0, 0.0, 1.0, 0.0, 0.0)">
      <use ffdec:characterId="66" ffdec:characterName="233_fla.Symbole381_14" height="56.0" id="back" transform="matrix(1.0, 0.0, 0.0, 1.0, 0.0, 0.0)" width="56.0" xlink:href="#sprite13"/>
    </g>
    <g id="sprite13" transform="matrix(1.0, 0.0, 0.0, 1.0, 0.0, 0.0)">
      <use ffdec:characterId="65" ffdec:characterName="233_fla.Symbole378_15" height="56.0" id="back" transform="matrix(1.0, 0.0, 0.0, 1.0, 0.0, 0.0)" width="56.0" xlink:href="#sprite14"/>
    </g>
    <g id="sprite14" transform="matrix(1.0, 0.0, 0.0, 1.0, 0.0, 0.0)">
      <use ffdec:characterId="64" ffdec:characterName="233_fla.Symbole375_16" height="56.0" id="back" transform="matrix(1.0, 0.0, 0.0, 1.0, 0.0, 0.0)" width="56.0" xlink:href="#sprite15"/>
    </g>
    <g id="sprite15" transform="matrix(1.0, 0.0, 0.0, 1.0, 0.0, 0.0)">
      <use ffdec:characterId="63" ffdec:characterName="233_fla.Symbole372_17" height="56.0" id="back" transform="matrix(1.0, 0.0, 0.0, 1.0, 0.0, 0.0)" width="56.0" xlink:href="#sprite16"/>
    </g>
    <g id="sprite16" transform="matrix(1.0, 0.0, 0.0, 1.0, 0.0, 0.0)">
      <use ffdec:characterId="62" ffdec:characterName="233_fla.Symbole369_18" height="56.0" id="back" transform="matrix(1.0, 0.0, 0.0, 1.0, 0.0, 0.0)" width="56.0" xlink:href="#sprite17"/>
    </g>
    <g id="sprite17" transform="matrix(1.0, 0.0, 0.0, 1.0, 0.0, 0.0)">
      <use ffdec:characterId="61" ffdec:characterName="233_fla.Symbole366_19" height="56.0" id="back" transform="matrix(1.0, 0.0, 0.0, 1.0, 0.0, 0.0)" width="56.0" xlink:href="#sprite18"/>
    </g>
    <g id="sprite18" transform="matrix(1.0, 0.0, 0.0, 1.0, 0.0, 0.0)">
      <use ffdec:characterId="60" ffdec:characterName="233_fla.Symbole363_20" height="56.0" id="back" transform="matrix(1.0, 0.0, 0.0, 1.0, 0.0, 0.0)" width="56.0" xlink:href="#sprite19"/>
    </g>
    <g id="sprite19" transform="matrix(1.0, 0.0, 0.0, 1.0, 0.0, 0.0)">
      <use ffdec:characterId="59" ffdec:characterName="233_fla.Symbole360_21" height="56.0" id="back" transform="matrix(1.0, 0.0, 0.0, 1.0, 0.0, 0.0)" width="56.0" xlink:href="#sprite20"/>
    </g>
    <g id="sprite20" transform="matrix(1.0, 0.0, 0.0, 1.0, 0.0, 0.0)">
      <use ffdec:characterId="58" ffdec:characterName="233_fla.Symbole357_22" height="56.0" id="back" transform="matrix(1.0, 0.0, 0.0, 1.0, 0.0, 0.0)" width="56.0" xlink:href="#sprite21"/>
    </g>
    <g id="sprite21" transform="matrix(1.0, 0.0, 0.0, 1.0, 0.0, 0.0)">
      <use ffdec:characterId="57" ffdec:characterName="233_fla.Symbole354_23" height="56.0" id="back" transform="matrix(1.0, 0.0, 0.0, 1.0, 0.0, 0.0)" width="56.0" xlink:href="#sprite22"/>
    </g>
    <g id="sprite22" transform="matrix(1.0, 0.0, 0.0, 1.0, 0.0, 0.0)">
      <use ffdec:characterId="56" ffdec:characterName="233_fla.Symbole351_24" height="56.0" id="back" transform="matrix(1.0, 0.0, 0.0, 1.0, 0.0, 0.0)" width="56.0" xlink:href="#sprite23"/>
    </g>
    <g id="sprite23" transform="matrix(1.0, 0.0, 0.0, 1.0, 0.0, 0.0)">
      <use ffdec:characterId="55" ffdec:characterName="233_fla.Symbole348_25" height="56.0" id="back" transform="matrix(1.0, 0.0, 0.0, 1.0, 0.0, 0.0)" width="56.0" xlink:href="#sprite24"/>
    </g>
    <g id="sprite24" transform="matrix(1.0, 0.0, 0.0, 1.0, 0.0, 0.0)">
      <use ffdec:characterId="54" ffdec:characterName="233_fla.Symbole345_26" height="56.0" id="back" transform="matrix(1.0, 0.0, 0.0, 1.0, 0.0, 0.0)" width="56.0" xlink:href="#sprite25"/>
    </g>
    <g id="sprite25" transform="matrix(1.0, 0.0, 0.0, 1.0, 0.0, 0.0)">
      <use ffdec:characterId="53" ffdec:characterName="233_fla.Symbole342_27" height="56.0" id="back" transform="matrix(1.0, 0.0, 0.0, 1.0, 0.0, 0.0)" width="56.0" xlink:href="#sprite26"/>
    </g>
    <g id="sprite26" transform="matrix(1.0, 0.0, 0.0, 1.0, 0.0, 0.0)">
      <use ffdec:characterId="52" ffdec:characterName="233_fla.Symbole339_28" height="56.0" id="back" transform="matrix(1.0, 0.0, 0.0, 1.0, 0.0, 0.0)" width="56.0" xlink:href="#sprite27"/>
    </g>
    <g id="sprite27" transform="matrix(1.0, 0.0, 0.0, 1.0, 0.0, 0.0)">
      <use ffdec:characterId="51" ffdec:characterName="233_fla.Symbole336_29" height="56.0" id="back" transform="matrix(1.0, 0.0, 0.0, 1.0, 0.0, 0.0)" width="56.0" xlink:href="#sprite28"/>
    </g>
    <g id="sprite28" transform="matrix(1.0, 0.0, 0.0, 1.0, 0.0, 0.0)">
      <use ffdec:characterId="50" ffdec:characterName="233_fla.Symbole333_30" height="56.0" id="back" transform="matrix(1.0, 0.0, 0.0, 1.0, 0.0, 0.0)" width="56.0" xlink:href="#sprite29"/>
    </g>
    <g id="sprite29" transform="matrix(1.0, 0.0, 0.0, 1.0, 0.0, 0.0)">
      <use ffdec:characterId="49" ffdec:characterName="233_fla.Symbole330_31" height="56.0" id="back" transform="matrix(1.0, 0.0, 0.0, 1.0, 0.0, 0.0)" width="56.0" xlink:href="#sprite30"/>
    </g>
    <g id="sprite30" transform="matrix(1.0, 0.0, 0.0, 1.0, 0.0, 0.0)">
      <use ffdec:characterId="48" ffdec:characterName="233_fla.Symbole327_32" height="56.0" id="back" transform="matrix(1.0, 0.0, 0.0, 1.0, 0.0, 0.0)" width="56.0" xlink:href="#sprite31"/>
    </g>
    <g id="sprite31" transform="matrix(1.0, 0.0, 0.0, 1.0, 0.0, 0.0)">
      <use ffdec:characterId="47" ffdec:characterName="233_fla.Symbole324_33" height="56.0" id="back" transform="matrix(1.0, 0.0, 0.0, 1.0, 0.0, 0.0)" width="56.0" xlink:href="#sprite32"/>
    </g>
    <g id="sprite32" transform="matrix(1.0, 0.0, 0.0, 1.0, 0.0, 0.0)">
      <use ffdec:characterId="46" ffdec:characterName="233_fla.Symbole321_34" height="56.0" id="back" transform="matrix(1.0, 0.0, 0.0, 1.0, 0.0, 0.0)" width="56.0" xlink:href="#sprite33"/>
    </g>
    <g id="sprite33" transform="matrix(1.0, 0.0, 0.0, 1.0, 0.0, 0.0)">
      <use ffdec:characterId="45" ffdec:characterName="233_fla.Symbole318_35" height="56.0" id="back" transform="matrix(1.0, 0.0, 0.0, 1.0, 0.0, 0.0)" width="56.0" xlink:href="#sprite34"/>
    </g>
    <g id="sprite34" transform="matrix(1.0, 0.0, 0.0, 1.0, 0.0, 0.0)">
      <use ffdec:characterId="44" ffdec:characterName="233_fla.Symbole315_36" height="56.0" id="back" transform="matrix(1.0, 0.0, 0.0, 1.0, 0.0, 0.0)" width="56.0" xlink:href="#sprite35"/>
    </g>
    <g id="sprite35" transform="matrix(1.0, 0.0, 0.0, 1.0, 0.0, 0.0)">
      <use ffdec:characterId="43" ffdec:characterName="233_fla.Symbole312_37" height="56.0" id="back" transform="matrix(1.0, 0.0, 0.0, 1.0, 0.0, 0.0)" width="56.0" xlink:href="#sprite36"/>
    </g>
    <g id="sprite36" transform="matrix(1.0, 0.0, 0.0, 1.0, 0.0, 0.0)">
      <use ffdec:characterId="42" ffdec:characterName="233_fla.Symbole309_38" height="56.0" id="back" transform="matrix(1.0, 0.0, 0.0, 1.0, 0.0, 0.0)" width="56.0" xlink:href="#sprite37"/>
    </g>
    <g id="sprite37" transform="matrix(1.0, 0.0, 0.0, 1.0, 0.0, 0.0)">
      <use ffdec:characterId="41" ffdec:characterName="233_fla.Symbole306_39" height="56.0" id="back" transform="matrix(1.0, 0.0, 0.0, 1.0, 0.0, 0.0)" width="56.0" xlink:href="#sprite38"/>
    </g>
    <g id="sprite38" transform="matrix(1.0, 0.0, 0.0, 1.0, 0.0, 0.0)">
      <use ffdec:characterId="40" ffdec:characterName="233_fla.Symbole303_40" height="56.0" id="back" transform="matrix(1.0, 0.0, 0.0, 1.0, 0.0, 0.0)" width="56.0" xlink:href="#sprite39"/>
    </g>
    <g id="sprite39" transform="matrix(1.0, 0.0, 0.0, 1.0, 0.0, 0.0)">
      <use ffdec:characterId="39" ffdec:characterName="233_fla.Symbole300_41" height="56.0" id="back" transform="matrix(1.0, 0.0, 0.0, 1.0, 0.0, 0.0)" width="56.0" xlink:href="#sprite40"/>
    </g>
    <g id="sprite40" transform="matrix(1.0, 0.0, 0.0, 1.0, 0.0, 0.0)">
      <use ffdec:characterId="38" ffdec:characterName="233_fla.Symbole297_42" height="56.0" id="back" transform="matrix(1.0, 0.0, 0.0, 1.0, 0.0, 0.0)" width="56.0" xlink:href="#sprite41"/>
    </g>
    <g id="sprite41" transform="matrix(1.0, 0.0, 0.0, 1.0, 0.0, 0.0)">
      <use ffdec:characterId="37" ffdec:characterName="233_fla.Symbole294_43" height="56.0" id="back" transform="matrix(1.0, 0.0, 0.0, 1.0, 0.0, 0.0)" width="56.0" xlink:href="#sprite42"/>
    </g>
    <g id="sprite42" transform="matrix(1.0, 0.0, 0.0, 1.0, 0.0, 0.0)">
      <use ffdec:characterId="36" ffdec:characterName="233_fla.Symbole291_44" height="56.0" id="back" transform="matrix(1.0, 0.0, 0.0, 1.0, 0.0, 0.0)" width="56.0" xlink:href="#sprite43"/>
    </g>
    <g id="sprite43" transform="matrix(1.0, 0.0, 0.0, 1.0, 0.0, 0.0)">
      <use ffdec:characterId="35" ffdec:characterName="233_fla.Symbole288_45" height="56.0" id="back" transform="matrix(1.0, 0.0, 0.0, 1.0, 0.0, 0.0)" width="56.0" xlink:href="#sprite44"/>
    </g>
    <g id="sprite44" transform="matrix(1.0, 0.0, 0.0, 1.0, 0.0, 0.0)">
      <use ffdec:characterId="34" ffdec:characterName="233_fla.Symbole285_46" height="56.0" id="back" transform="matrix(1.0, 0.0, 0.0, 1.0, 0.0, 0.0)" width="56.0" xlink:href="#sprite45"/>
    </g>
    <g id="sprite45" transform="matrix(1.0, 0.0, 0.0, 1.0, 0.0, 0.0)">
      <use ffdec:characterId="33" ffdec:characterName="233_fla.Symbole282_47" height="56.0" id="back" transform="matrix(1.0, 0.0, 0.0, 1.0, 0.0, 0.0)" width="56.0" xlink:href="#sprite46"/>
    </g>
    <g id="sprite46" transform="matrix(1.0, 0.0, 0.0, 1.0, 0.0, 0.0)">
      <use ffdec:characterId="32" ffdec:characterName="233_fla.Symbole279_48" height="56.0" id="back" transform="matrix(1.0, 0.0, 0.0, 1.0, 0.0, 0.0)" width="56.0" xlink:href="#sprite47"/>
    </g>
    <g id="sprite47" transform="matrix(1.0, 0.0, 0.0, 1.0, 0.0, 0.0)">
      <use ffdec:characterId="31" ffdec:characterName="233_fla.Symbole276_49" height="56.0" id="back" transform="matrix(1.0, 0.0, 0.0, 1.0, 0.0, 0.0)" width="56.0" xlink:href="#sprite48"/>
    </g>
    <g id="sprite48" transform="matrix(1.0, 0.0, 0.0, 1.0, 0.0, 0.0)">
      <use ffdec:characterId="30" ffdec:characterName="233_fla.Symbole273_50" height="56.0" id="back" transform="matrix(1.0, 0.0, 0.0, 1.0, 0.0, 0.0)" width="56.0" xlink:href="#sprite49"/>
    </g>
    <g id="sprite49" transform="matrix(1.0, 0.0, 0.0, 1.0, 0.0, 0.0)">
      <use ffdec:characterId="29" ffdec:characterName="233_fla.Symbole270_51" height="56.0" id="back" transform="matrix(1.0, 0.0, 0.0, 1.0, 0.0, 0.0)" width="56.0" xlink:href="#sprite50"/>
    </g>
    <g id="sprite50" transform="matrix(1.0, 0.0, 0.0, 1.0, 0.0, 0.0)">
      <use ffdec:characterId="28" ffdec:characterName="233_fla.Symbole267_52" height="56.0" id="back" transform="matrix(1.0, 0.0, 0.0, 1.0, 0.0, 0.0)" width="56.0" xlink:href="#sprite51"/>
    </g>
    <g id="sprite51" transform="matrix(1.0, 0.0, 0.0, 1.0, 0.0, 0.0)">
      <use ffdec:characterId="27" ffdec:characterName="233_fla.Symbole264_53" height="56.0" id="back" transform="matrix(1.0, 0.0, 0.0, 1.0, 0.0, 0.0)" width="56.0" xlink:href="#sprite52"/>
    </g>
    <g id="sprite52" transform="matrix(1.0, 0.0, 0.0, 1.0, 0.0, 0.0)">
      <use ffdec:characterId="26" ffdec:characterName="233_fla.Symbole261_54" height="56.0" id="back" transform="matrix(1.0, 0.0, 0.0, 1.0, 0.0, 0.0)" width="56.0" xlink:href="#sprite53"/>
    </g>
    <g id="sprite53" transform="matrix(1.0, 0.0, 0.0, 1.0, 0.0, 0.0)">
      <use ffdec:characterId="25" ffdec:characterName="233_fla.Symbole258_55" height="56.0" id="back" transform="matrix(1.0, 0.0, 0.0, 1.0, 0.0, 0.0)" width="56.0" xlink:href="#sprite54"/>
    </g>
    <g id="sprite54" transform="matrix(1.0, 0.0, 0.0, 1.0, 0.0, 0.0)">
      <use ffdec:characterId="24" ffdec:characterName="233_fla.Symbole255_56" height="56.0" id="back" transform="matrix(1.0, 0.0, 0.0, 1.0, 0.0, 0.0)" width="56.0" xlink:href="#sprite55"/>
    </g>
    <g id="sprite55" transform="matrix(1.0, 0.0, 0.0, 1.0, 0.0, 0.0)">
      <use ffdec:characterId="23" ffdec:characterName="233_fla.Symbole252_57" height="56.0" id="back" transform="matrix(1.0, 0.0, 0.0, 1.0, 0.0, 0.0)" width="56.0" xlink:href="#sprite56"/>
    </g>
    <g id="sprite56" transform="matrix(1.0, 0.0, 0.0, 1.0, 0.0, 0.0)">
      <use ffdec:characterId="22" ffdec:characterName="233_fla.Symbole249_58" height="56.0" id="back" transform="matrix(1.0, 0.0, 0.0, 1.0, 0.0, 0.0)" width="56.0" xlink:href="#sprite57"/>
    </g>
    <g id="sprite57" transform="matrix(1.0, 0.0, 0.0, 1.0, 0.0, 0.0)">
      <use ffdec:characterId="21" ffdec:characterName="233_fla.Symbole246_59" height="56.0" id="back" transform="matrix(1.0, 0.0, 0.0, 1.0, 0.0, 0.0)" width="56.0" xlink:href="#sprite58"/>
    </g>
    <g id="sprite58" transform="matrix(1.0, 0.0, 0.0, 1.0, 0.0, 0.0)">
      <use ffdec:characterId="20" ffdec:characterName="233_fla.Symbole243_60" height="56.0" id="back" transform="matrix(1.0, 0.0, 0.0, 1.0, 0.0, 0.0)" width="56.0" xlink:href="#sprite59"/>
    </g>
    <g id="sprite59" transform="matrix(1.0, 0.0, 0.0, 1.0, 0.0, 0.0)">
      <use ffdec:characterId="19" ffdec:characterName="233_fla.Symbole240_61" height="56.0" id="back" transform="matrix(1.0, 0.0, 0.0, 1.0, 0.0, 0.0)" width="56.0" xlink:href="#sprite60"/>
    </g>
    <g id="sprite60" transform="matrix(1.0, 0.0, 0.0, 1.0, 0.0, 0.0)">
      <use ffdec:characterId="18" ffdec:characterName="233_fla.Symbole237_62" height="56.0" id="back" transform="matrix(1.0, 0.0, 0.0, 1.0, 0.0, 0.0)" width="56.0" xlink:href="#sprite61"/>
    </g>
    <g id="sprite61" transform="matrix(1.0, 0.0, 0.0, 1.0, 0.0, 0.0)">
      <use ffdec:characterId="17" ffdec:characterName="233_fla.Symbole234_63" height="56.0" id="back" transform="matrix(1.0, 0.0, 0.0, 1.0, 0.0, 0.0)" width="56.0" xlink:href="#sprite62"/>
    </g>
    <g id="sprite62" transform="matrix(1.0, 0.0, 0.0, 1.0, 0.0, 0.0)">
      <use ffdec:characterId="16" ffdec:characterName="233_fla.Symbole231_64" height="56.0" id="back" transform="matrix(1.0, 0.0, 0.0, 1.0, 0.0, 0.0)" width="56.0" xlink:href="#sprite63"/>
    </g>
    <g id="sprite63" transform="matrix(1.0, 0.0, 0.0, 1.0, 0.0, 0.0)">
      <use ffdec:characterId="15" ffdec:characterName="233_fla.Symbole228_65" height="56.0" id="back" transform="matrix(1.0, 0.0, 0.0, 1.0, 0.0, 0.0)" width="56.0" xlink:href="#sprite64"/>
    </g>
    <g id="sprite64" transform="matrix(1.0, 0.0, 0.0, 1.0, 0.0, 0.0)">
      <use ffdec:characterId="14" ffdec:characterName="233_fla.Symbole225_66" height="56.0" id="back" transform="matrix(1.0, 0.0, 0.0, 1.0, 0.0, 0.0)" width="56.0" xlink:href="#sprite65"/>
    </g>
    <g id="sprite65" transform="matrix(1.0, 0.0, 0.0, 1.0, 0.0, 0.0)">
      <use ffdec:characterId="13" ffdec:characterName="233_fla.Symbole222_67" height="56.0" id="back" transform="matrix(1.0, 0.0, 0.0, 1.0, 0.0, 0.0)" width="56.0" xlink:href="#sprite66"/>
    </g>
    <g id="sprite66" transform="matrix(1.0, 0.0, 0.0, 1.0, 0.0, 0.0)">
      <use ffdec:characterId="12" ffdec:characterName="233_fla.Symbole219_68" height="56.0" id="back" transform="matrix(1.0, 0.0, 0.0, 1.0, 0.0, 0.0)" width="56.0" xlink:href="#sprite67"/>
    </g>
    <g id="sprite67" transform="matrix(1.0, 0.0, 0.0, 1.0, 0.0, 0.0)">
      <use ffdec:characterId="11" ffdec:characterName="233_fla.Symbole216_69" height="56.0" id="back" transform="matrix(1.0, 0.0, 0.0, 1.0, 0.0, 0.0)" width="56.0" xlink:href="#sprite68"/>
    </g>
    <g id="sprite68" transform="matrix(1.0, 0.0, 0.0, 1.0, 0.0, 0.0)">
      <use ffdec:characterId="10" ffdec:characterName="233_fla.Symbole213_70" height="56.0" id="back" transform="matrix(1.0, 0.0, 0.0, 1.0, 0.0, 0.0)" width="56.0" xlink:href="#sprite69"/>
    </g>
    <g id="sprite69" transform="matrix(1.0, 0.0, 0.0, 1.0, 0.0, 0.0)">
      <use ffdec:characterId="9" ffdec:characterName="233_fla.Symbole210_71" height="56.0" id="back" transform="matrix(1.0, 0.0, 0.0, 1.0, 0.0, 0.0)" width="56.0" xlink:href="#sprite70"/>
    </g>
    <g id="sprite70" transform="matrix(1.0, 0.0, 0.0, 1.0, 0.0, 0.0)">
      <use ffdec:characterId="8" ffdec:characterName="233_fla.Symbole207_72" height="56.0" id="back" transform="matrix(1.0, 0.0, 0.0, 1.0, 0.0, 0.0)" width="56.0" xlink:href="#sprite71"/>
    </g>
    <g id="sprite71" transform="matrix(1.0, 0.0, 0.0, 1.0, 0.0, 0.0)">
      <use ffdec:characterId="7" ffdec:characterName="233_fla.Symbole204_73" height="56.0" id="back" transform="matrix(1.0, 0.0, 0.0, 1.0, 0.0, 0.0)" width="56.0" xlink:href="#sprite72"/>
    </g>
    <g id="sprite72" transform="matrix(1.0, 0.0, 0.0, 1.0, 0.0, 0.0)">
      <use ffdec:characterId="6" ffdec:characterName="233_fla.Symbole201_74" height="56.0" id="back" transform="matrix(1.0, 0.0, 0.0, 1.0, 0.0, 0.0)" width="56.0" xlink:href="#sprite73"/>
    </g>
    <g id="sprite73" transform="matrix(1.0, 0.0, 0.0, 1.0, 0.0, 0.0)">
      <use ffdec:characterId="5" ffdec:characterName="233_fla.Symbole198_75" height="56.0" id="back" transform="matrix(1.0, 0.0, 0.0, 1.0, 0.0, 0.0)" width="56.0" xlink:href="#sprite74"/>
    </g>
    <g id="sprite74" transform="matrix(1.0, 0.0, 0.0, 1.0, 0.0, 0.0)">
      <use ffdec:characterId="4" ffdec:characterName="233_fla.Symbole195_76" height="56.0" id="back" transform="matrix(1.0, 0.0, 0.0, 1.0, 0.0, 0.0)" width="56.0" xlink:href="#sprite75"/>
    </g>
    <g id="sprite75" transform="matrix(1.0, 0.0, 0.0, 1.0, 0.0, 0.0)">
      <use ffdec:characterId="3" ffdec:characterName="233_fla.Symbole192_77" height="56.0" id="back" transform="matrix(1.0, 0.0, 0.0, 1.0, 0.0, 0.0)" width="56.0" xlink:href="#sprite76"/>
    </g>
    <g id="sprite76" transform="matrix(1.0, 0.0, 0.0, 1.0, 0.0, 0.0)">
      <use ffdec:characterId="2" height="56.0" id="back" transform="matrix(1.0, 0.0, 0.0, 1.0, 0.0, 0.0)" width="56.0" xlink:href="#sprite77"/>
    </g>
    <g id="sprite77" transform="matrix(1.0, 0.0, 0.0, 1.0, 0.0, 0.0)">
      <use ffdec:characterId="1" height="56.0" transform="matrix(1.0, 0.0, 0.0, 1.0, 0.0, 0.0)" width="56.0" xlink:href="#shape0"/>
    </g>
    <g id="shape0" transform="matrix(1.0, 0.0, 0.0, 1.0, 0.0, 0.0)">
      <path d="M56.0 56.0 L0.0 56.0 0.0 0.0 56.0 0.0 56.0 56.0" fill="#010101" fill-opacity="0.0" fill-rule="evenodd" stroke="none"/>
    </g>
    <g id="sprite78" transform="matrix(1.0, 0.0, 0.0, 1.0, 0.75, 0.75)">
      <use ffdec:characterId="80" height="55.25" transform="matrix(1.0, 0.0, 0.0, 1.0, -0.75, -0.75)" width="52.0" xlink:href="#shape1"/>
    </g>
    <g id="shape1" transform="matrix(1.0, 0.0, 0.0, 1.0, 0.75, 0.75)">
      <path d="M48.05 6.3 L47.3 6.7 47.5 7.2 47.25 7.7 46.85 8.0 46.35 7.9 46.05 7.65 46.05 7.8 Q46.2 8.4 45.75 8.75 L45.4 9.2 44.4 9.65 44.5 9.75 44.75 10.25 44.5 10.8 44.05 11.0 Q43.7 11.1 43.55 10.85 42.75 12.7 43.5 14.75 L43.55 14.95 Q44.0 15.3 43.9 15.85 L43.55 16.7 43.05 17.2 42.25 17.55 42.15 17.5 41.4 17.25 41.05 16.95 Q41.2 17.7 40.3 18.6 L40.1 18.75 39.75 19.1 46.05 19.45 46.55 19.7 46.85 20.0 49.05 23.85 48.05 23.8 Q41.65 24.85 41.2 29.6 L41.2 29.7 Q41.65 36.75 39.9 41.3 L40.4 42.2 45.55 50.9 46.65 52.85 44.95 51.55 37.55 45.75 37.3 45.45 Q34.4 48.65 29.25 49.25 L28.6 49.35 Q27.2 49.85 24.4 53.75 L24.2 53.35 Q22.2 49.65 20.5 49.0 L20.0 48.9 Q15.65 48.45 12.95 46.15 L12.9 46.15 5.55 52.0 3.9 53.3 4.85 51.35 Q7.15 47.2 10.1 42.7 L10.15 42.6 Q7.6 37.75 8.05 29.4 L8.05 29.35 Q7.65 24.55 0.35 23.15 L0.85 22.15 2.35 19.7 2.75 19.3 Q2.9 19.15 3.2 19.15 L10.7 18.6 10.35 18.35 10.15 18.15 Q9.2 17.25 9.35 16.45 L9.05 16.75 Q8.7 17.1 8.35 17.1 L8.2 17.2 Q7.6 17.1 7.35 16.7 L6.85 16.15 Q6.55 15.85 6.55 15.35 6.5 14.85 6.85 14.45 L6.95 14.35 Q7.75 12.25 6.95 10.35 L6.95 10.45 6.4 10.6 Q6.1 10.6 5.9 10.3 L5.7 9.75 5.9 9.35 6.1 9.2 Q5.45 9.2 5.1 8.75 L4.65 8.3 Q4.2 7.9 4.45 7.4 L4.35 7.2 4.1 7.5 3.6 7.55 3.2 7.3 2.9 6.7 3.1 6.3 3.2 6.25 2.35 5.9 1.85 5.4 Q1.55 5.0 1.6 4.5 L1.65 3.95 0.4 3.3 Q-0.1 2.7 0.0 1.95 -0.05 0.95 0.55 0.45 1.15 -0.05 2.0 0.0 2.85 0.0 3.4 0.6 4.05 1.2 4.0 2.15 L4.15 2.05 Q4.75 2.0 5.15 2.5 L5.55 3.0 Q5.85 3.3 5.85 3.9 L5.9 3.9 6.35 3.7 6.85 3.95 Q7.1 4.2 7.0 4.5 L6.95 4.95 6.8 5.05 6.95 5.05 Q7.5 5.0 7.8 5.35 L8.35 5.9 Q8.7 6.25 8.7 6.85 8.85 6.65 9.1 6.7 9.45 6.7 9.55 7.0 L9.8 7.55 9.7 7.9 9.65 8.0 Q11.35 8.95 13.45 8.6 L13.7 8.3 Q14.1 7.95 14.65 8.0 L15.55 8.45 15.9 8.9 Q16.25 9.2 16.3 9.85 L16.15 10.3 15.8 10.75 15.45 11.1 Q16.25 10.95 17.05 12.0 L17.2 12.1 17.55 12.55 19.85 15.6 20.05 15.85 Q23.3 14.2 25.25 11.6 L25.45 11.6 25.8 12.0 Q27.7 14.45 30.5 16.15 L30.55 16.1 32.9 13.0 33.2 12.55 33.35 12.4 Q34.2 11.4 34.95 11.45 L34.6 11.15 34.25 10.75 34.15 10.3 Q34.2 9.7 34.55 9.25 L34.95 8.95 Q35.35 8.5 35.8 8.45 36.35 8.4 36.75 8.75 L36.95 9.0 Q39.15 9.35 40.8 8.45 L40.7 8.4 40.65 7.95 40.85 7.5 Q41.05 7.15 41.35 7.15 41.65 7.05 41.75 7.3 41.75 6.7 42.1 6.3 L42.6 5.8 Q42.95 5.4 43.55 5.45 L43.65 5.45 43.55 5.35 Q43.35 5.2 43.4 4.95 43.35 4.55 43.55 4.35 L44.15 4.2 44.5 4.3 44.6 4.3 Q44.6 3.75 44.9 3.4 L45.3 2.95 Q45.7 2.5 46.25 2.6 L46.5 2.6 Q46.4 1.7 47.0 1.05 47.6 0.45 48.4 0.45 49.3 0.35 49.95 0.9 50.5 1.45 50.5 2.35 50.55 3.1 50.0 3.75 L48.75 4.4 48.85 4.95 Q48.9 5.4 48.55 5.9 L48.05 6.3 M46.0 22.2 Q39.55 23.45 39.25 29.55 L39.25 29.7 Q40.25 45.8 29.0 47.3 L28.45 47.4 28.15 47.4 Q25.8 48.25 24.7 50.75 23.6 47.95 21.1 47.15 L20.75 47.05 20.3 47.0 Q9.05 45.45 10.0 29.35 L10.0 29.2 Q9.65 23.15 3.35 21.95 L3.75 21.1 Q19.55 20.95 25.35 14.45 29.1 19.15 37.4 20.8 L38.05 20.85 45.5 21.45 46.0 22.2 M10.3 28.5 L12.55 27.6 Q16.75 26.45 20.65 28.05 L20.65 28.1 22.8 31.05 22.55 31.35 20.75 30.8 20.45 30.25 20.45 30.35 20.35 30.05 19.4 29.75 Q18.9 29.7 18.55 30.05 L18.55 30.1 18.45 30.2 Q18.15 30.45 18.15 30.95 L18.25 31.15 Q18.25 31.5 18.55 31.75 L18.6 31.8 Q18.9 32.1 19.4 32.1 L19.7 32.1 20.35 31.8 20.35 31.75 20.6 31.5 22.35 31.95 22.35 32.4 22.4 32.75 17.9 34.9 17.85 34.95 17.8 35.1 Q14.7 34.05 12.55 31.8 11.25 30.4 10.3 28.5 M17.35 24.0 L18.9 24.5 18.95 24.5 20.3 25.1 20.15 27.25 17.3 26.65 17.35 24.0 M17.2 35.35 L16.3 37.45 15.05 37.1 15.0 37.1 13.9 36.65 Q14.55 35.4 15.4 34.5 16.3 34.95 17.2 35.35 M16.25 43.85 Q15.55 39.0 17.9 35.35 L17.95 35.35 18.0 35.3 18.1 35.15 22.4 33.05 23.0 34.0 22.05 35.05 21.85 35.05 Q21.25 34.95 20.9 35.35 L20.9 35.4 20.8 35.5 Q20.5 35.75 20.5 36.2 L20.6 36.4 Q20.6 36.8 20.9 37.1 L21.0 37.1 Q21.25 37.45 21.85 37.45 L22.05 37.45 22.15 37.45 22.7 37.15 22.7 37.0 23.1 36.35 23.1 36.2 22.8 35.55 22.7 35.35 23.5 34.4 24.7 34.65 25.0 34.65 24.4 39.65 24.5 39.75 23.6 40.7 Q21.45 42.9 18.15 43.85 L16.3 44.35 16.25 43.85 M28.75 28.15 Q33.7 26.1 39.15 28.65 36.65 33.3 31.15 34.8 L31.1 34.75 26.9 32.45 26.9 32.4 26.9 31.95 28.85 31.35 29.15 31.75 29.2 31.8 Q29.45 32.1 30.05 32.1 L30.35 32.1 30.85 31.8 30.95 31.75 31.3 31.05 31.3 30.95 31.0 30.25 31.0 30.35 30.85 30.05 Q30.5 29.7 30.05 29.75 29.45 29.7 29.15 30.05 L29.15 30.1 29.1 30.2 28.8 30.65 26.7 31.35 26.6 31.15 28.6 28.3 28.75 28.2 28.75 28.15 M28.6 28.0 L28.45 28.0 28.35 28.05 26.45 30.85 26.3 30.7 Q25.75 30.2 25.0 30.1 L24.85 28.45 25.0 28.45 25.5 28.15 25.6 28.1 26.0 27.35 26.0 27.25 25.65 26.5 25.65 26.6 25.5 26.35 Q25.2 26.0 24.7 26.0 24.15 26.0 23.8 26.35 L23.8 26.45 23.75 26.5 Q23.45 26.8 23.45 27.25 L23.5 27.4 Q23.5 27.75 23.8 28.1 L23.9 28.15 24.2 28.35 24.25 30.1 Q23.5 30.2 23.0 30.7 L22.9 30.7 20.95 27.9 20.9 27.85 20.8 27.85 20.75 27.7 Q20.4 22.35 24.6 18.0 28.95 22.4 28.65 27.85 L28.6 28.0 M31.2 26.85 L29.1 27.4 28.85 24.75 Q29.9 24.3 31.2 24.0 31.45 25.55 31.2 26.85 M27.95 35.65 L27.5 35.7 26.4 33.9 26.9 32.8 30.8 34.95 30.85 35.1 31.3 35.3 31.5 35.4 31.5 35.35 Q33.45 38.95 32.75 43.85 L32.75 44.0 32.05 43.85 Q27.4 42.9 24.75 39.65 L25.25 34.6 25.85 34.4 26.9 36.15 26.7 36.8 26.75 37.0 Q26.75 37.4 27.05 37.65 L27.1 37.7 27.95 38.05 28.2 38.05 28.85 37.7 28.85 37.65 29.25 36.95 29.25 36.8 29.0 36.15 29.0 36.2 28.85 35.9 Q28.45 35.55 27.95 35.65 M33.0 34.5 Q34.3 35.7 35.4 37.4 L32.95 38.05 Q32.6 36.4 31.75 35.05 L33.0 34.5 M24.15 40.7 L24.55 40.2 26.15 41.65 24.35 44.05 24.2 43.85 22.8 41.95 24.0 40.85 24.15 40.7 Z" fill="none" stroke="#000000" stroke-linecap="round" stroke-linejoin="round" stroke-opacity="0.2" stroke-width="1.5"/>
    </g>
    <g id="sprite79" transform="matrix(1.0, 0.0, 0.0, 1.0, 0.0, 0.0)">
      <use ffdec:characterId="82" height="53.75" transform="matrix(1.0, 0.0, 0.0, 1.0, 0.0, 0.0)" width="50.5" xlink:href="#shape2"/>
    </g>
    <g id="shape2" transform="matrix(1.0, 0.0, 0.0, 1.0, 0.0, 0.0)">
      <path d="M48.05 6.3 L47.3 6.7 47.5 7.2 47.25 7.7 46.85 8.0 46.35 7.9 46.05 7.65 46.05 7.8 Q46.2 8.4 45.75 8.75 L45.4 9.2 44.4 9.65 44.5 9.75 44.75 10.25 44.5 10.8 44.05 11.0 Q43.7 11.1 43.55 10.85 42.75 12.7 43.5 14.75 L43.55 14.95 Q44.0 15.3 43.9 15.85 L43.55 16.7 43.05 17.2 42.25 17.55 42.15 17.5 41.4 17.25 41.05 16.95 Q41.2 17.7 40.3 18.6 L40.1 18.75 39.75 19.1 46.05 19.45 46.55 19.7 46.85 20.0 49.05 23.85 48.05 23.8 Q41.65 24.85 41.2 29.6 L41.2 29.7 Q41.65 36.75 39.9 41.3 L40.4 42.2 45.55 50.9 46.65 52.85 44.95 51.55 37.55 45.75 37.3 45.45 Q34.4 48.65 29.25 49.25 L28.6 49.35 Q27.2 49.85 24.4 53.75 L24.2 53.35 Q22.2 49.65 20.5 49.0 L20.0 48.9 Q15.65 48.45 12.95 46.15 L12.9 46.15 5.55 52.0 3.9 53.3 4.85 51.35 Q7.15 47.2 10.1 42.7 L10.15 42.6 Q7.6 37.75 8.05 29.4 L8.05 29.35 Q7.65 24.55 0.35 23.15 L0.85 22.15 2.35 19.7 2.75 19.3 Q2.9 19.15 3.2 19.15 L10.7 18.6 10.35 18.35 10.15 18.15 Q9.2 17.25 9.35 16.45 L9.05 16.75 Q8.7 17.1 8.35 17.1 L8.2 17.2 Q7.6 17.1 7.35 16.7 L6.85 16.15 Q6.55 15.85 6.55 15.35 6.5 14.85 6.85 14.45 L6.95 14.35 Q7.75 12.25 6.95 10.35 L6.95 10.45 6.4 10.6 Q6.1 10.6 5.9 10.3 L5.7 9.75 5.9 9.35 6.1 9.2 Q5.45 9.2 5.1 8.75 L4.65 8.3 Q4.2 7.9 4.45 7.4 L4.35 7.2 4.1 7.5 3.6 7.55 3.2 7.3 2.9 6.7 3.1 6.3 3.2 6.25 2.35 5.9 1.85 5.4 Q1.55 5.0 1.6 4.5 L1.65 3.95 0.4 3.3 Q-0.1 2.7 0.0 1.95 -0.05 0.95 0.55 0.45 1.15 -0.05 2.0 0.0 2.85 0.0 3.4 0.6 4.05 1.2 4.0 2.15 L4.15 2.05 Q4.75 2.0 5.15 2.5 L5.55 3.0 Q5.85 3.3 5.85 3.9 L5.9 3.9 6.35 3.7 6.85 3.95 Q7.1 4.2 7.0 4.5 L6.95 4.95 6.8 5.05 6.95 5.05 Q7.5 5.0 7.8 5.35 L8.35 5.9 Q8.7 6.25 8.7 6.85 8.85 6.65 9.1 6.7 9.45 6.7 9.55 7.0 L9.8 7.55 9.7 7.9 9.65 8.0 Q11.35 8.95 13.45 8.6 L13.7 8.3 Q14.1 7.95 14.65 8.0 L15.55 8.45 15.9 8.9 Q16.25 9.2 16.3 9.85 L16.15 10.3 15.8 10.75 15.45 11.1 Q16.25 10.95 17.05 12.0 L17.2 12.1 17.55 12.55 19.85 15.6 20.05 15.85 Q23.3 14.2 25.25 11.6 L25.45 11.6 25.8 12.0 Q27.7 14.45 30.5 16.15 L30.55 16.1 32.9 13.0 33.2 12.55 33.35 12.4 Q34.2 11.4 34.95 11.45 L34.6 11.15 34.25 10.75 34.15 10.3 Q34.2 9.7 34.55 9.25 L34.95 8.95 Q35.35 8.5 35.8 8.45 36.35 8.4 36.75 8.75 L36.95 9.0 Q39.15 9.35 40.8 8.45 L40.7 8.4 40.65 7.95 40.85 7.5 Q41.05 7.15 41.35 7.15 41.65 7.05 41.75 7.3 41.75 6.7 42.1 6.3 L42.6 5.8 Q42.95 5.4 43.55 5.45 L43.65 5.45 43.55 5.35 Q43.35 5.2 43.4 4.95 43.35 4.55 43.55 4.35 L44.15 4.2 44.5 4.3 44.6 4.3 Q44.6 3.75 44.9 3.4 L45.3 2.95 Q45.7 2.5 46.25 2.6 L46.5 2.6 Q46.4 1.7 47.0 1.05 47.6 0.45 48.4 0.45 49.3 0.35 49.95 0.9 50.5 1.45 50.5 2.35 50.55 3.1 50.0 3.75 L48.75 4.4 48.85 4.95 Q48.9 5.4 48.55 5.9 L48.05 6.3 M46.0 22.2 L45.5 21.45 38.05 20.85 37.4 20.8 Q29.1 19.15 25.35 14.45 19.55 20.95 3.75 21.1 L3.35 21.95 Q9.65 23.15 10.0 29.2 L10.0 29.35 Q9.05 45.45 20.3 47.0 L20.75 47.05 21.1 47.15 Q23.6 47.95 24.7 50.75 25.8 48.25 28.15 47.4 L28.45 47.4 29.0 47.3 Q40.25 45.8 39.25 29.7 L39.25 29.55 Q39.55 23.45 46.0 22.2 M17.2 35.35 L16.3 37.45 15.05 37.1 15.0 37.1 13.9 36.65 Q14.55 35.4 15.4 34.5 16.3 34.95 17.2 35.35 M17.35 24.0 L18.9 24.5 18.95 24.5 20.3 25.1 20.15 27.25 17.3 26.65 17.35 24.0 M10.3 28.5 L12.55 27.6 Q16.75 26.45 20.65 28.05 L20.65 28.1 22.8 31.05 22.55 31.35 20.75 30.8 20.45 30.25 20.45 30.35 20.35 30.05 19.4 29.75 Q18.9 29.7 18.55 30.05 L18.55 30.1 18.45 30.2 Q18.15 30.45 18.15 30.95 L18.25 31.15 Q18.25 31.5 18.55 31.75 L18.6 31.8 Q18.9 32.1 19.4 32.1 L19.7 32.1 20.35 31.8 20.35 31.75 20.6 31.5 22.35 31.95 22.35 32.4 22.4 32.75 17.9 34.9 17.85 34.95 17.8 35.1 Q14.7 34.05 12.55 31.8 11.25 30.4 10.3 28.5 M16.25 43.85 Q15.55 39.0 17.9 35.35 L17.95 35.35 18.0 35.3 18.1 35.15 22.4 33.05 23.0 34.0 22.05 35.05 21.85 35.05 Q21.25 34.95 20.9 35.35 L20.9 35.4 20.8 35.5 Q20.5 35.75 20.5 36.2 L20.6 36.4 Q20.6 36.8 20.9 37.1 L21.0 37.1 Q21.25 37.45 21.85 37.45 L22.05 37.45 22.15 37.45 22.7 37.15 22.7 37.0 23.1 36.35 23.1 36.2 22.8 35.55 22.7 35.35 23.5 34.4 24.7 34.65 25.0 34.65 24.4 39.65 24.5 39.75 23.6 40.7 Q21.45 42.9 18.15 43.85 L16.3 44.35 16.25 43.85 M28.75 28.2 L28.75 28.15 Q33.7 26.1 39.15 28.65 36.65 33.3 31.15 34.8 L31.1 34.75 26.9 32.45 26.9 32.4 26.9 31.95 28.85 31.35 29.15 31.75 29.2 31.8 Q29.45 32.1 30.05 32.1 L30.35 32.1 30.85 31.8 30.95 31.75 31.3 31.05 31.3 30.95 31.0 30.25 31.0 30.35 30.85 30.05 Q30.5 29.7 30.05 29.75 29.45 29.7 29.15 30.05 L29.15 30.1 29.1 30.2 28.8 30.65 26.7 31.35 26.6 31.15 28.6 28.3 28.75 28.2 M28.35 28.05 L26.45 30.85 26.3 30.7 Q25.75 30.2 25.0 30.1 L24.85 28.45 25.0 28.45 25.5 28.15 25.6 28.1 26.0 27.35 26.0 27.25 25.65 26.5 25.65 26.6 25.5 26.35 Q25.2 26.0 24.7 26.0 24.15 26.0 23.8 26.35 L23.8 26.45 23.75 26.5 Q23.45 26.8 23.45 27.25 L23.5 27.4 Q23.5 27.75 23.8 28.1 L23.9 28.15 24.2 28.35 24.25 30.1 Q23.5 30.2 23.0 30.7 L22.9 30.7 20.95 27.9 20.9 27.85 20.8 27.85 20.75 27.7 Q20.4 22.35 24.6 18.0 28.95 22.4 28.65 27.85 L28.6 28.0 28.45 28.0 28.35 28.05 M31.2 24.0 Q31.45 25.55 31.2 26.85 L29.1 27.4 28.85 24.75 Q29.9 24.3 31.2 24.0 M27.95 35.65 L27.5 35.7 26.4 33.9 26.9 32.8 30.8 34.95 30.85 35.1 31.3 35.3 31.5 35.4 31.5 35.35 Q33.45 38.95 32.75 43.85 L32.75 44.0 32.05 43.85 Q27.4 42.9 24.75 39.65 L25.25 34.6 25.85 34.4 26.9 36.15 26.7 36.8 26.75 37.0 Q26.75 37.4 27.05 37.65 L27.1 37.7 27.95 38.05 28.2 38.05 28.85 37.7 28.85 37.65 29.25 36.95 29.25 36.8 29.0 36.15 29.0 36.2 28.85 35.9 Q28.45 35.55 27.95 35.65 M33.0 34.5 Q34.3 35.7 35.4 37.4 L32.95 38.05 Q32.6 36.4 31.75 35.05 L33.0 34.5 M24.15 40.7 L24.55 40.2 26.15 41.65 24.35 44.05 24.2 43.85 22.8 41.95 24.0 40.85 24.15 40.7" fill="#000000" fill-rule="evenodd" stroke="none"/>
    </g>
  </defs>
</svg>
