<?xml version="1.0" encoding="UTF-8" standalone="no"?>
<svg xmlns:ffdec="https://www.free-decompiler.com/flash" xmlns:xlink="http://www.w3.org/1999/xlink" ffdec:objectType="frame" height="56.0px" width="56.0px" xmlns="http://www.w3.org/2000/svg">
  <g transform="matrix(1.0, 0.0, 0.0, 1.0, 0.0, 0.0)">
    <use ffdec:characterId="80" ffdec:characterName="234_fla.Symbole423_1" height="56.0" id="back" transform="matrix(1.0, 0.0, 0.0, 1.0, 0.0, 0.0)" width="56.0" xlink:href="#sprite0"/>
    <use ffdec:characterId="82" height="55.25" id="back" transform="matrix(1.0, 0.0, 0.0, 1.0, 1.95, 0.3)" width="52.0" xlink:href="#sprite79"/>
    <use ffdec:characterId="84" height="53.75" id="up" transform="matrix(1.0, 0.0, 0.0, 1.0, 2.7, 1.05)" width="50.5" xlink:href="#sprite80"/>
  </g>
  <defs>
    <g id="sprite0" transform="matrix(1.0, 0.0, 0.0, 1.0, 0.0, 0.0)">
      <use ffdec:characterId="79" ffdec:characterName="234_fla.Symbole420_2" height="56.0" id="back" transform="matrix(1.0, 0.0, 0.0, 1.0, 0.0, 0.0)" width="56.0" xlink:href="#sprite1"/>
    </g>
    <g id="sprite1" transform="matrix(1.0, 0.0, 0.0, 1.0, 0.0, 0.0)">
      <use ffdec:characterId="78" ffdec:characterName="234_fla.Symbole417_3" height="56.0" id="back" transform="matrix(1.0, 0.0, 0.0, 1.0, 0.0, 0.0)" width="56.0" xlink:href="#sprite2"/>
    </g>
    <g id="sprite2" transform="matrix(1.0, 0.0, 0.0, 1.0, 0.0, 0.0)">
      <use ffdec:characterId="77" ffdec:characterName="234_fla.Symbole414_4" height="56.0" id="back" transform="matrix(1.0, 0.0, 0.0, 1.0, 0.0, 0.0)" width="56.0" xlink:href="#sprite3"/>
    </g>
    <g id="sprite3" transform="matrix(1.0, 0.0, 0.0, 1.0, 0.0, 0.0)">
      <use ffdec:characterId="76" ffdec:characterName="234_fla.Symbole411_5" height="56.0" id="back" transform="matrix(1.0, 0.0, 0.0, 1.0, 0.0, 0.0)" width="56.0" xlink:href="#sprite4"/>
    </g>
    <g id="sprite4" transform="matrix(1.0, 0.0, 0.0, 1.0, 0.0, 0.0)">
      <use ffdec:characterId="75" ffdec:characterName="234_fla.Symbole408_6" height="56.0" id="back" transform="matrix(1.0, 0.0, 0.0, 1.0, 0.0, 0.0)" width="56.0" xlink:href="#sprite5"/>
    </g>
    <g id="sprite5" transform="matrix(1.0, 0.0, 0.0, 1.0, 0.0, 0.0)">
      <use ffdec:characterId="74" ffdec:characterName="234_fla.Symbole405_7" height="56.0" id="back" transform="matrix(1.0, 0.0, 0.0, 1.0, 0.0, 0.0)" width="56.0" xlink:href="#sprite6"/>
    </g>
    <g id="sprite6" transform="matrix(1.0, 0.0, 0.0, 1.0, 0.0, 0.0)">
      <use ffdec:characterId="73" ffdec:characterName="234_fla.Symbole402_8" height="56.0" id="back" transform="matrix(1.0, 0.0, 0.0, 1.0, 0.0, 0.0)" width="56.0" xlink:href="#sprite7"/>
    </g>
    <g id="sprite7" transform="matrix(1.0, 0.0, 0.0, 1.0, 0.0, 0.0)">
      <use ffdec:characterId="72" ffdec:characterName="234_fla.Symbole399_9" height="56.0" id="back" transform="matrix(1.0, 0.0, 0.0, 1.0, 0.0, 0.0)" width="56.0" xlink:href="#sprite8"/>
    </g>
    <g id="sprite8" transform="matrix(1.0, 0.0, 0.0, 1.0, 0.0, 0.0)">
      <use ffdec:characterId="71" ffdec:characterName="234_fla.Symbole396_10" height="56.0" id="back" transform="matrix(1.0, 0.0, 0.0, 1.0, 0.0, 0.0)" width="56.0" xlink:href="#sprite9"/>
    </g>
    <g id="sprite9" transform="matrix(1.0, 0.0, 0.0, 1.0, 0.0, 0.0)">
      <use ffdec:characterId="70" ffdec:characterName="234_fla.Symbole393_11" height="56.0" id="back" transform="matrix(1.0, 0.0, 0.0, 1.0, 0.0, 0.0)" width="56.0" xlink:href="#sprite10"/>
    </g>
    <g id="sprite10" transform="matrix(1.0, 0.0, 0.0, 1.0, 0.0, 0.0)">
      <use ffdec:characterId="69" ffdec:characterName="234_fla.Symbole390_12" height="56.0" id="back" transform="matrix(1.0, 0.0, 0.0, 1.0, 0.0, 0.0)" width="56.0" xlink:href="#sprite11"/>
    </g>
    <g id="sprite11" transform="matrix(1.0, 0.0, 0.0, 1.0, 0.0, 0.0)">
      <use ffdec:characterId="68" ffdec:characterName="234_fla.Symbole387_13" height="56.0" id="back" transform="matrix(1.0, 0.0, 0.0, 1.0, 0.0, 0.0)" width="56.0" xlink:href="#sprite12"/>
    </g>
    <g id="sprite12" transform="matrix(1.0, 0.0, 0.0, 1.0, 0.0, 0.0)">
      <use ffdec:characterId="67" ffdec:characterName="234_fla.Symbole384_14" height="56.0" id="back" transform="matrix(1.0, 0.0, 0.0, 1.0, 0.0, 0.0)" width="56.0" xlink:href="#sprite13"/>
    </g>
    <g id="sprite13" transform="matrix(1.0, 0.0, 0.0, 1.0, 0.0, 0.0)">
      <use ffdec:characterId="66" ffdec:characterName="234_fla.Symbole381_15" height="56.0" id="back" transform="matrix(1.0, 0.0, 0.0, 1.0, 0.0, 0.0)" width="56.0" xlink:href="#sprite14"/>
    </g>
    <g id="sprite14" transform="matrix(1.0, 0.0, 0.0, 1.0, 0.0, 0.0)">
      <use ffdec:characterId="65" ffdec:characterName="234_fla.Symbole378_16" height="56.0" id="back" transform="matrix(1.0, 0.0, 0.0, 1.0, 0.0, 0.0)" width="56.0" xlink:href="#sprite15"/>
    </g>
    <g id="sprite15" transform="matrix(1.0, 0.0, 0.0, 1.0, 0.0, 0.0)">
      <use ffdec:characterId="64" ffdec:characterName="234_fla.Symbole375_17" height="56.0" id="back" transform="matrix(1.0, 0.0, 0.0, 1.0, 0.0, 0.0)" width="56.0" xlink:href="#sprite16"/>
    </g>
    <g id="sprite16" transform="matrix(1.0, 0.0, 0.0, 1.0, 0.0, 0.0)">
      <use ffdec:characterId="63" ffdec:characterName="234_fla.Symbole372_18" height="56.0" id="back" transform="matrix(1.0, 0.0, 0.0, 1.0, 0.0, 0.0)" width="56.0" xlink:href="#sprite17"/>
    </g>
    <g id="sprite17" transform="matrix(1.0, 0.0, 0.0, 1.0, 0.0, 0.0)">
      <use ffdec:characterId="62" ffdec:characterName="234_fla.Symbole369_19" height="56.0" id="back" transform="matrix(1.0, 0.0, 0.0, 1.0, 0.0, 0.0)" width="56.0" xlink:href="#sprite18"/>
    </g>
    <g id="sprite18" transform="matrix(1.0, 0.0, 0.0, 1.0, 0.0, 0.0)">
      <use ffdec:characterId="61" ffdec:characterName="234_fla.Symbole366_20" height="56.0" id="back" transform="matrix(1.0, 0.0, 0.0, 1.0, 0.0, 0.0)" width="56.0" xlink:href="#sprite19"/>
    </g>
    <g id="sprite19" transform="matrix(1.0, 0.0, 0.0, 1.0, 0.0, 0.0)">
      <use ffdec:characterId="60" ffdec:characterName="234_fla.Symbole363_21" height="56.0" id="back" transform="matrix(1.0, 0.0, 0.0, 1.0, 0.0, 0.0)" width="56.0" xlink:href="#sprite20"/>
    </g>
    <g id="sprite20" transform="matrix(1.0, 0.0, 0.0, 1.0, 0.0, 0.0)">
      <use ffdec:characterId="59" ffdec:characterName="234_fla.Symbole360_22" height="56.0" id="back" transform="matrix(1.0, 0.0, 0.0, 1.0, 0.0, 0.0)" width="56.0" xlink:href="#sprite21"/>
    </g>
    <g id="sprite21" transform="matrix(1.0, 0.0, 0.0, 1.0, 0.0, 0.0)">
      <use ffdec:characterId="58" ffdec:characterName="234_fla.Symbole357_23" height="56.0" id="back" transform="matrix(1.0, 0.0, 0.0, 1.0, 0.0, 0.0)" width="56.0" xlink:href="#sprite22"/>
    </g>
    <g id="sprite22" transform="matrix(1.0, 0.0, 0.0, 1.0, 0.0, 0.0)">
      <use ffdec:characterId="57" ffdec:characterName="234_fla.Symbole354_24" height="56.0" id="back" transform="matrix(1.0, 0.0, 0.0, 1.0, 0.0, 0.0)" width="56.0" xlink:href="#sprite23"/>
    </g>
    <g id="sprite23" transform="matrix(1.0, 0.0, 0.0, 1.0, 0.0, 0.0)">
      <use ffdec:characterId="56" ffdec:characterName="234_fla.Symbole351_25" height="56.0" id="back" transform="matrix(1.0, 0.0, 0.0, 1.0, 0.0, 0.0)" width="56.0" xlink:href="#sprite24"/>
    </g>
    <g id="sprite24" transform="matrix(1.0, 0.0, 0.0, 1.0, 0.0, 0.0)">
      <use ffdec:characterId="55" ffdec:characterName="234_fla.Symbole348_26" height="56.0" id="back" transform="matrix(1.0, 0.0, 0.0, 1.0, 0.0, 0.0)" width="56.0" xlink:href="#sprite25"/>
    </g>
    <g id="sprite25" transform="matrix(1.0, 0.0, 0.0, 1.0, 0.0, 0.0)">
      <use ffdec:characterId="54" ffdec:characterName="234_fla.Symbole345_27" height="56.0" id="back" transform="matrix(1.0, 0.0, 0.0, 1.0, 0.0, 0.0)" width="56.0" xlink:href="#sprite26"/>
    </g>
    <g id="sprite26" transform="matrix(1.0, 0.0, 0.0, 1.0, 0.0, 0.0)">
      <use ffdec:characterId="53" ffdec:characterName="234_fla.Symbole342_28" height="56.0" id="back" transform="matrix(1.0, 0.0, 0.0, 1.0, 0.0, 0.0)" width="56.0" xlink:href="#sprite27"/>
    </g>
    <g id="sprite27" transform="matrix(1.0, 0.0, 0.0, 1.0, 0.0, 0.0)">
      <use ffdec:characterId="52" ffdec:characterName="234_fla.Symbole339_29" height="56.0" id="back" transform="matrix(1.0, 0.0, 0.0, 1.0, 0.0, 0.0)" width="56.0" xlink:href="#sprite28"/>
    </g>
    <g id="sprite28" transform="matrix(1.0, 0.0, 0.0, 1.0, 0.0, 0.0)">
      <use ffdec:characterId="51" ffdec:characterName="234_fla.Symbole336_30" height="56.0" id="back" transform="matrix(1.0, 0.0, 0.0, 1.0, 0.0, 0.0)" width="56.0" xlink:href="#sprite29"/>
    </g>
    <g id="sprite29" transform="matrix(1.0, 0.0, 0.0, 1.0, 0.0, 0.0)">
      <use ffdec:characterId="50" ffdec:characterName="234_fla.Symbole333_31" height="56.0" id="back" transform="matrix(1.0, 0.0, 0.0, 1.0, 0.0, 0.0)" width="56.0" xlink:href="#sprite30"/>
    </g>
    <g id="sprite30" transform="matrix(1.0, 0.0, 0.0, 1.0, 0.0, 0.0)">
      <use ffdec:characterId="49" ffdec:characterName="234_fla.Symbole330_32" height="56.0" id="back" transform="matrix(1.0, 0.0, 0.0, 1.0, 0.0, 0.0)" width="56.0" xlink:href="#sprite31"/>
    </g>
    <g id="sprite31" transform="matrix(1.0, 0.0, 0.0, 1.0, 0.0, 0.0)">
      <use ffdec:characterId="48" ffdec:characterName="234_fla.Symbole327_33" height="56.0" id="back" transform="matrix(1.0, 0.0, 0.0, 1.0, 0.0, 0.0)" width="56.0" xlink:href="#sprite32"/>
    </g>
    <g id="sprite32" transform="matrix(1.0, 0.0, 0.0, 1.0, 0.0, 0.0)">
      <use ffdec:characterId="47" ffdec:characterName="234_fla.Symbole324_34" height="56.0" id="back" transform="matrix(1.0, 0.0, 0.0, 1.0, 0.0, 0.0)" width="56.0" xlink:href="#sprite33"/>
    </g>
    <g id="sprite33" transform="matrix(1.0, 0.0, 0.0, 1.0, 0.0, 0.0)">
      <use ffdec:characterId="46" ffdec:characterName="234_fla.Symbole321_35" height="56.0" id="back" transform="matrix(1.0, 0.0, 0.0, 1.0, 0.0, 0.0)" width="56.0" xlink:href="#sprite34"/>
    </g>
    <g id="sprite34" transform="matrix(1.0, 0.0, 0.0, 1.0, 0.0, 0.0)">
      <use ffdec:characterId="45" ffdec:characterName="234_fla.Symbole318_36" height="56.0" id="back" transform="matrix(1.0, 0.0, 0.0, 1.0, 0.0, 0.0)" width="56.0" xlink:href="#sprite35"/>
    </g>
    <g id="sprite35" transform="matrix(1.0, 0.0, 0.0, 1.0, 0.0, 0.0)">
      <use ffdec:characterId="44" ffdec:characterName="234_fla.Symbole315_37" height="56.0" id="back" transform="matrix(1.0, 0.0, 0.0, 1.0, 0.0, 0.0)" width="56.0" xlink:href="#sprite36"/>
    </g>
    <g id="sprite36" transform="matrix(1.0, 0.0, 0.0, 1.0, 0.0, 0.0)">
      <use ffdec:characterId="43" ffdec:characterName="234_fla.Symbole312_38" height="56.0" id="back" transform="matrix(1.0, 0.0, 0.0, 1.0, 0.0, 0.0)" width="56.0" xlink:href="#sprite37"/>
    </g>
    <g id="sprite37" transform="matrix(1.0, 0.0, 0.0, 1.0, 0.0, 0.0)">
      <use ffdec:characterId="42" ffdec:characterName="234_fla.Symbole309_39" height="56.0" id="back" transform="matrix(1.0, 0.0, 0.0, 1.0, 0.0, 0.0)" width="56.0" xlink:href="#sprite38"/>
    </g>
    <g id="sprite38" transform="matrix(1.0, 0.0, 0.0, 1.0, 0.0, 0.0)">
      <use ffdec:characterId="41" ffdec:characterName="234_fla.Symbole306_40" height="56.0" id="back" transform="matrix(1.0, 0.0, 0.0, 1.0, 0.0, 0.0)" width="56.0" xlink:href="#sprite39"/>
    </g>
    <g id="sprite39" transform="matrix(1.0, 0.0, 0.0, 1.0, 0.0, 0.0)">
      <use ffdec:characterId="40" ffdec:characterName="234_fla.Symbole303_41" height="56.0" id="back" transform="matrix(1.0, 0.0, 0.0, 1.0, 0.0, 0.0)" width="56.0" xlink:href="#sprite40"/>
    </g>
    <g id="sprite40" transform="matrix(1.0, 0.0, 0.0, 1.0, 0.0, 0.0)">
      <use ffdec:characterId="39" ffdec:characterName="234_fla.Symbole300_42" height="56.0" id="back" transform="matrix(1.0, 0.0, 0.0, 1.0, 0.0, 0.0)" width="56.0" xlink:href="#sprite41"/>
    </g>
    <g id="sprite41" transform="matrix(1.0, 0.0, 0.0, 1.0, 0.0, 0.0)">
      <use ffdec:characterId="38" ffdec:characterName="234_fla.Symbole297_43" height="56.0" id="back" transform="matrix(1.0, 0.0, 0.0, 1.0, 0.0, 0.0)" width="56.0" xlink:href="#sprite42"/>
    </g>
    <g id="sprite42" transform="matrix(1.0, 0.0, 0.0, 1.0, 0.0, 0.0)">
      <use ffdec:characterId="37" ffdec:characterName="234_fla.Symbole294_44" height="56.0" id="back" transform="matrix(1.0, 0.0, 0.0, 1.0, 0.0, 0.0)" width="56.0" xlink:href="#sprite43"/>
    </g>
    <g id="sprite43" transform="matrix(1.0, 0.0, 0.0, 1.0, 0.0, 0.0)">
      <use ffdec:characterId="36" ffdec:characterName="234_fla.Symbole291_45" height="56.0" id="back" transform="matrix(1.0, 0.0, 0.0, 1.0, 0.0, 0.0)" width="56.0" xlink:href="#sprite44"/>
    </g>
    <g id="sprite44" transform="matrix(1.0, 0.0, 0.0, 1.0, 0.0, 0.0)">
      <use ffdec:characterId="35" ffdec:characterName="234_fla.Symbole288_46" height="56.0" id="back" transform="matrix(1.0, 0.0, 0.0, 1.0, 0.0, 0.0)" width="56.0" xlink:href="#sprite45"/>
    </g>
    <g id="sprite45" transform="matrix(1.0, 0.0, 0.0, 1.0, 0.0, 0.0)">
      <use ffdec:characterId="34" ffdec:characterName="234_fla.Symbole285_47" height="56.0" id="back" transform="matrix(1.0, 0.0, 0.0, 1.0, 0.0, 0.0)" width="56.0" xlink:href="#sprite46"/>
    </g>
    <g id="sprite46" transform="matrix(1.0, 0.0, 0.0, 1.0, 0.0, 0.0)">
      <use ffdec:characterId="33" ffdec:characterName="234_fla.Symbole282_48" height="56.0" id="back" transform="matrix(1.0, 0.0, 0.0, 1.0, 0.0, 0.0)" width="56.0" xlink:href="#sprite47"/>
    </g>
    <g id="sprite47" transform="matrix(1.0, 0.0, 0.0, 1.0, 0.0, 0.0)">
      <use ffdec:characterId="32" ffdec:characterName="234_fla.Symbole279_49" height="56.0" id="back" transform="matrix(1.0, 0.0, 0.0, 1.0, 0.0, 0.0)" width="56.0" xlink:href="#sprite48"/>
    </g>
    <g id="sprite48" transform="matrix(1.0, 0.0, 0.0, 1.0, 0.0, 0.0)">
      <use ffdec:characterId="31" ffdec:characterName="234_fla.Symbole276_50" height="56.0" id="back" transform="matrix(1.0, 0.0, 0.0, 1.0, 0.0, 0.0)" width="56.0" xlink:href="#sprite49"/>
    </g>
    <g id="sprite49" transform="matrix(1.0, 0.0, 0.0, 1.0, 0.0, 0.0)">
      <use ffdec:characterId="30" ffdec:characterName="234_fla.Symbole273_51" height="56.0" id="back" transform="matrix(1.0, 0.0, 0.0, 1.0, 0.0, 0.0)" width="56.0" xlink:href="#sprite50"/>
    </g>
    <g id="sprite50" transform="matrix(1.0, 0.0, 0.0, 1.0, 0.0, 0.0)">
      <use ffdec:characterId="29" ffdec:characterName="234_fla.Symbole270_52" height="56.0" id="back" transform="matrix(1.0, 0.0, 0.0, 1.0, 0.0, 0.0)" width="56.0" xlink:href="#sprite51"/>
    </g>
    <g id="sprite51" transform="matrix(1.0, 0.0, 0.0, 1.0, 0.0, 0.0)">
      <use ffdec:characterId="28" ffdec:characterName="234_fla.Symbole267_53" height="56.0" id="back" transform="matrix(1.0, 0.0, 0.0, 1.0, 0.0, 0.0)" width="56.0" xlink:href="#sprite52"/>
    </g>
    <g id="sprite52" transform="matrix(1.0, 0.0, 0.0, 1.0, 0.0, 0.0)">
      <use ffdec:characterId="27" ffdec:characterName="234_fla.Symbole264_54" height="56.0" id="back" transform="matrix(1.0, 0.0, 0.0, 1.0, 0.0, 0.0)" width="56.0" xlink:href="#sprite53"/>
    </g>
    <g id="sprite53" transform="matrix(1.0, 0.0, 0.0, 1.0, 0.0, 0.0)">
      <use ffdec:characterId="26" ffdec:characterName="234_fla.Symbole261_55" height="56.0" id="back" transform="matrix(1.0, 0.0, 0.0, 1.0, 0.0, 0.0)" width="56.0" xlink:href="#sprite54"/>
    </g>
    <g id="sprite54" transform="matrix(1.0, 0.0, 0.0, 1.0, 0.0, 0.0)">
      <use ffdec:characterId="25" ffdec:characterName="234_fla.Symbole258_56" height="56.0" id="back" transform="matrix(1.0, 0.0, 0.0, 1.0, 0.0, 0.0)" width="56.0" xlink:href="#sprite55"/>
    </g>
    <g id="sprite55" transform="matrix(1.0, 0.0, 0.0, 1.0, 0.0, 0.0)">
      <use ffdec:characterId="24" ffdec:characterName="234_fla.Symbole255_57" height="56.0" id="back" transform="matrix(1.0, 0.0, 0.0, 1.0, 0.0, 0.0)" width="56.0" xlink:href="#sprite56"/>
    </g>
    <g id="sprite56" transform="matrix(1.0, 0.0, 0.0, 1.0, 0.0, 0.0)">
      <use ffdec:characterId="23" ffdec:characterName="234_fla.Symbole252_58" height="56.0" id="back" transform="matrix(1.0, 0.0, 0.0, 1.0, 0.0, 0.0)" width="56.0" xlink:href="#sprite57"/>
    </g>
    <g id="sprite57" transform="matrix(1.0, 0.0, 0.0, 1.0, 0.0, 0.0)">
      <use ffdec:characterId="22" ffdec:characterName="234_fla.Symbole249_59" height="56.0" id="back" transform="matrix(1.0, 0.0, 0.0, 1.0, 0.0, 0.0)" width="56.0" xlink:href="#sprite58"/>
    </g>
    <g id="sprite58" transform="matrix(1.0, 0.0, 0.0, 1.0, 0.0, 0.0)">
      <use ffdec:characterId="21" ffdec:characterName="234_fla.Symbole246_60" height="56.0" id="back" transform="matrix(1.0, 0.0, 0.0, 1.0, 0.0, 0.0)" width="56.0" xlink:href="#sprite59"/>
    </g>
    <g id="sprite59" transform="matrix(1.0, 0.0, 0.0, 1.0, 0.0, 0.0)">
      <use ffdec:characterId="20" ffdec:characterName="234_fla.Symbole243_61" height="56.0" id="back" transform="matrix(1.0, 0.0, 0.0, 1.0, 0.0, 0.0)" width="56.0" xlink:href="#sprite60"/>
    </g>
    <g id="sprite60" transform="matrix(1.0, 0.0, 0.0, 1.0, 0.0, 0.0)">
      <use ffdec:characterId="19" ffdec:characterName="234_fla.Symbole240_62" height="56.0" id="back" transform="matrix(1.0, 0.0, 0.0, 1.0, 0.0, 0.0)" width="56.0" xlink:href="#sprite61"/>
    </g>
    <g id="sprite61" transform="matrix(1.0, 0.0, 0.0, 1.0, 0.0, 0.0)">
      <use ffdec:characterId="18" ffdec:characterName="234_fla.Symbole237_63" height="56.0" id="back" transform="matrix(1.0, 0.0, 0.0, 1.0, 0.0, 0.0)" width="56.0" xlink:href="#sprite62"/>
    </g>
    <g id="sprite62" transform="matrix(1.0, 0.0, 0.0, 1.0, 0.0, 0.0)">
      <use ffdec:characterId="17" ffdec:characterName="234_fla.Symbole234_64" height="56.0" id="back" transform="matrix(1.0, 0.0, 0.0, 1.0, 0.0, 0.0)" width="56.0" xlink:href="#sprite63"/>
    </g>
    <g id="sprite63" transform="matrix(1.0, 0.0, 0.0, 1.0, 0.0, 0.0)">
      <use ffdec:characterId="16" ffdec:characterName="234_fla.Symbole231_65" height="56.0" id="back" transform="matrix(1.0, 0.0, 0.0, 1.0, 0.0, 0.0)" width="56.0" xlink:href="#sprite64"/>
    </g>
    <g id="sprite64" transform="matrix(1.0, 0.0, 0.0, 1.0, 0.0, 0.0)">
      <use ffdec:characterId="15" ffdec:characterName="234_fla.Symbole228_66" height="56.0" id="back" transform="matrix(1.0, 0.0, 0.0, 1.0, 0.0, 0.0)" width="56.0" xlink:href="#sprite65"/>
    </g>
    <g id="sprite65" transform="matrix(1.0, 0.0, 0.0, 1.0, 0.0, 0.0)">
      <use ffdec:characterId="14" ffdec:characterName="234_fla.Symbole225_67" height="56.0" id="back" transform="matrix(1.0, 0.0, 0.0, 1.0, 0.0, 0.0)" width="56.0" xlink:href="#sprite66"/>
    </g>
    <g id="sprite66" transform="matrix(1.0, 0.0, 0.0, 1.0, 0.0, 0.0)">
      <use ffdec:characterId="13" ffdec:characterName="234_fla.Symbole222_68" height="56.0" id="back" transform="matrix(1.0, 0.0, 0.0, 1.0, 0.0, 0.0)" width="56.0" xlink:href="#sprite67"/>
    </g>
    <g id="sprite67" transform="matrix(1.0, 0.0, 0.0, 1.0, 0.0, 0.0)">
      <use ffdec:characterId="12" ffdec:characterName="234_fla.Symbole219_69" height="56.0" id="back" transform="matrix(1.0, 0.0, 0.0, 1.0, 0.0, 0.0)" width="56.0" xlink:href="#sprite68"/>
    </g>
    <g id="sprite68" transform="matrix(1.0, 0.0, 0.0, 1.0, 0.0, 0.0)">
      <use ffdec:characterId="11" ffdec:characterName="234_fla.Symbole216_70" height="56.0" id="back" transform="matrix(1.0, 0.0, 0.0, 1.0, 0.0, 0.0)" width="56.0" xlink:href="#sprite69"/>
    </g>
    <g id="sprite69" transform="matrix(1.0, 0.0, 0.0, 1.0, 0.0, 0.0)">
      <use ffdec:characterId="10" ffdec:characterName="234_fla.Symbole213_71" height="56.0" id="back" transform="matrix(1.0, 0.0, 0.0, 1.0, 0.0, 0.0)" width="56.0" xlink:href="#sprite70"/>
    </g>
    <g id="sprite70" transform="matrix(1.0, 0.0, 0.0, 1.0, 0.0, 0.0)">
      <use ffdec:characterId="9" ffdec:characterName="234_fla.Symbole210_72" height="56.0" id="back" transform="matrix(1.0, 0.0, 0.0, 1.0, 0.0, 0.0)" width="56.0" xlink:href="#sprite71"/>
    </g>
    <g id="sprite71" transform="matrix(1.0, 0.0, 0.0, 1.0, 0.0, 0.0)">
      <use ffdec:characterId="8" ffdec:characterName="234_fla.Symbole207_73" height="56.0" id="back" transform="matrix(1.0, 0.0, 0.0, 1.0, 0.0, 0.0)" width="56.0" xlink:href="#sprite72"/>
    </g>
    <g id="sprite72" transform="matrix(1.0, 0.0, 0.0, 1.0, 0.0, 0.0)">
      <use ffdec:characterId="7" ffdec:characterName="234_fla.Symbole204_74" height="56.0" id="back" transform="matrix(1.0, 0.0, 0.0, 1.0, 0.0, 0.0)" width="56.0" xlink:href="#sprite73"/>
    </g>
    <g id="sprite73" transform="matrix(1.0, 0.0, 0.0, 1.0, 0.0, 0.0)">
      <use ffdec:characterId="6" ffdec:characterName="234_fla.Symbole201_75" height="56.0" id="back" transform="matrix(1.0, 0.0, 0.0, 1.0, 0.0, 0.0)" width="56.0" xlink:href="#sprite74"/>
    </g>
    <g id="sprite74" transform="matrix(1.0, 0.0, 0.0, 1.0, 0.0, 0.0)">
      <use ffdec:characterId="5" ffdec:characterName="234_fla.Symbole198_76" height="56.0" id="back" transform="matrix(1.0, 0.0, 0.0, 1.0, 0.0, 0.0)" width="56.0" xlink:href="#sprite75"/>
    </g>
    <g id="sprite75" transform="matrix(1.0, 0.0, 0.0, 1.0, 0.0, 0.0)">
      <use ffdec:characterId="4" ffdec:characterName="234_fla.Symbole195_77" height="56.0" id="back" transform="matrix(1.0, 0.0, 0.0, 1.0, 0.0, 0.0)" width="56.0" xlink:href="#sprite76"/>
    </g>
    <g id="sprite76" transform="matrix(1.0, 0.0, 0.0, 1.0, 0.0, 0.0)">
      <use ffdec:characterId="3" ffdec:characterName="234_fla.Symbole192_78" height="56.0" id="back" transform="matrix(1.0, 0.0, 0.0, 1.0, 0.0, 0.0)" width="56.0" xlink:href="#sprite77"/>
    </g>
    <g id="sprite77" transform="matrix(1.0, 0.0, 0.0, 1.0, 0.0, 0.0)">
      <use ffdec:characterId="2" height="56.0" id="back" transform="matrix(1.0, 0.0, 0.0, 1.0, 0.0, 0.0)" width="56.0" xlink:href="#sprite78"/>
    </g>
    <g id="sprite78" transform="matrix(1.0, 0.0, 0.0, 1.0, 0.0, 0.0)">
      <use ffdec:characterId="1" height="56.0" transform="matrix(1.0, 0.0, 0.0, 1.0, 0.0, 0.0)" width="56.0" xlink:href="#shape0"/>
    </g>
    <g id="shape0" transform="matrix(1.0, 0.0, 0.0, 1.0, 0.0, 0.0)">
      <path d="M56.0 56.0 L0.0 56.0 0.0 0.0 56.0 0.0 56.0 56.0" fill="#010101" fill-opacity="0.0" fill-rule="evenodd" stroke="none"/>
    </g>
    <g id="sprite79" transform="matrix(1.0, 0.0, 0.0, 1.0, 0.75, 0.75)">
      <use ffdec:characterId="81" height="55.25" transform="matrix(1.0, 0.0, 0.0, 1.0, -0.75, -0.75)" width="52.0" xlink:href="#shape1"/>
    </g>
    <g id="shape1" transform="matrix(1.0, 0.0, 0.0, 1.0, 0.75, 0.75)">
      <path d="M48.75 4.45 L50.0 3.75 Q50.55 3.1 50.5 2.35 50.55 1.4 49.95 0.85 49.3 0.4 48.4 0.45 47.6 0.45 47.0 1.05 46.4 1.7 46.5 2.6 L46.25 2.5 Q45.7 2.5 45.3 2.95 L44.9 3.4 Q44.6 3.75 44.6 4.3 L44.5 4.3 44.2 4.2 Q43.85 4.2 43.65 4.35 43.35 4.6 43.4 4.95 43.35 5.2 43.55 5.35 L43.65 5.45 43.55 5.45 Q42.95 5.4 42.6 5.8 L42.1 6.35 Q41.75 6.65 41.75 7.3 41.7 7.05 41.4 7.15 41.05 7.15 40.85 7.5 L40.65 7.95 40.7 8.3 40.85 8.45 Q39.2 9.35 36.95 9.0 L36.75 8.75 Q36.45 8.4 35.85 8.45 35.35 8.55 34.95 8.9 L34.55 9.3 Q34.2 9.7 34.2 10.25 L34.25 10.75 34.6 11.15 35.05 11.5 Q34.2 11.35 33.35 12.4 L33.2 12.55 32.9 13.0 30.55 16.1 30.55 16.15 Q27.7 14.5 25.8 12.0 L25.45 11.65 25.35 11.65 Q23.3 14.1 20.05 15.85 L19.85 15.6 17.55 12.55 17.3 12.15 17.05 11.9 Q16.25 10.95 15.45 11.1 L15.9 10.75 16.15 10.25 16.3 9.85 Q16.25 9.2 15.9 8.9 L15.55 8.45 Q15.15 8.05 14.65 8.05 14.1 7.95 13.7 8.3 L13.45 8.6 Q11.35 8.9 9.65 8.05 L9.8 7.9 9.8 7.5 9.55 7.0 9.1 6.65 Q8.85 6.65 8.7 6.85 L8.4 5.8 7.8 5.35 Q7.6 5.0 6.95 5.0 L6.8 5.0 6.95 4.95 7.0 4.45 Q7.1 4.2 6.85 3.9 L6.35 3.7 5.9 3.9 5.6 3.0 5.15 2.5 Q4.8 2.0 4.2 2.1 L4.0 2.15 Q4.05 1.2 3.4 0.6 2.85 0.0 2.0 0.0 1.2 -0.05 0.55 0.45 -0.05 1.0 0.0 1.95 -0.1 2.75 0.4 3.35 1.0 3.85 1.7 4.0 L1.6 4.45 Q1.55 5.0 1.85 5.4 L2.35 5.8 Q2.65 6.2 3.2 6.25 L3.1 6.35 2.9 6.7 3.2 7.2 3.6 7.6 4.1 7.5 4.35 7.2 4.45 7.45 Q4.2 7.9 4.65 8.3 L5.1 8.75 Q5.45 9.15 6.1 9.15 L5.9 9.35 5.7 9.8 5.9 10.3 6.5 10.5 6.95 10.45 6.95 10.4 Q7.75 12.3 7.0 14.35 L6.85 14.5 Q6.5 14.85 6.55 15.35 6.55 15.8 6.85 16.2 L7.35 16.7 Q7.6 17.1 8.2 17.2 L8.35 17.1 Q8.7 17.1 9.05 16.75 L9.35 16.45 Q9.2 17.25 10.15 18.15 L10.35 18.3 10.7 18.6 3.2 19.1 Q2.9 19.1 2.75 19.35 L2.35 19.7 0.9 22.15 0.35 23.15 Q7.65 24.55 8.05 29.35 7.6 37.75 10.15 42.6 L10.1 42.6 Q7.15 47.2 4.85 51.35 L3.9 53.3 5.55 52.0 12.9 46.15 12.95 46.15 Q15.65 48.45 20.0 48.9 L20.6 49.0 Q22.2 49.65 24.2 53.35 L24.5 53.75 Q27.2 49.9 28.65 49.3 L29.25 49.3 Q34.4 48.65 37.3 45.45 L37.55 45.7 44.95 51.5 46.65 52.9 45.55 50.9 Q43.35 46.8 40.4 42.25 L39.9 41.3 Q41.65 36.75 41.2 29.6 41.65 24.85 48.05 23.8 L49.05 23.9 46.85 19.95 46.55 19.7 46.05 19.45 39.75 19.1 40.1 18.75 40.3 18.55 Q41.2 17.7 41.15 16.9 L41.4 17.2 Q41.75 17.5 42.15 17.5 L42.25 17.6 Q42.9 17.5 43.05 17.2 L43.65 16.6 43.9 15.8 Q44.0 15.25 43.65 14.95 L43.5 14.75 Q42.8 12.75 43.55 10.8 L43.55 10.9 44.05 11.05 44.5 10.8 44.75 10.25 44.5 9.8 44.4 9.65 Q45.0 9.65 45.4 9.15 L45.85 8.75 Q46.2 8.3 46.05 7.8 L46.15 7.65 46.4 7.9 46.85 8.05 47.25 7.7 47.5 7.2 47.3 6.7 47.25 6.65 Q47.8 6.65 48.05 6.35 L48.6 5.8 48.9 4.95 48.75 4.45 M45.55 21.45 L38.05 20.85 37.4 20.8 Q29.1 19.2 25.35 14.5 19.55 20.95 3.75 21.1 L3.35 21.9 Q9.65 23.15 10.0 29.25 L10.0 29.35 Q9.05 45.45 20.3 47.0 L20.75 47.1 21.15 47.1 Q23.65 47.9 24.75 50.75 25.8 48.2 28.15 47.4 L28.45 47.3 29.0 47.3 Q40.25 45.85 39.25 29.6 L39.25 29.55 Q39.55 23.45 46.0 22.2 L45.55 21.45 M23.9 19.75 L21.6 20.0 Q18.9 20.8 17.05 22.55 15.35 24.65 15.05 27.4 L15.05 28.8 16.15 33.5 15.9 38.0 16.7 38.9 15.9 40.35 Q15.65 40.7 15.8 41.25 15.9 41.8 16.3 42.0 L16.9 42.4 17.9 42.5 18.65 41.8 19.35 40.85 20.35 41.25 20.75 41.3 20.6 42.4 Q20.35 42.9 20.75 43.25 L21.55 43.85 22.2 43.95 23.1 43.8 23.75 43.05 23.95 41.8 24.9 41.8 25.35 41.8 25.6 43.05 26.15 43.8 27.05 43.95 27.85 43.85 28.6 43.25 Q28.85 42.9 28.75 42.4 L28.45 41.3 28.75 41.25 30.0 40.7 30.55 41.8 31.45 42.5 32.35 42.4 32.95 42.0 33.6 41.25 Q33.65 40.7 33.35 40.35 L32.55 38.9 33.2 38.0 33.35 37.9 33.2 37.7 33.05 33.5 34.1 28.8 34.1 27.4 34.1 27.1 Q33.8 24.45 32.05 22.55 30.4 20.8 27.7 20.0 L24.9 19.75 23.9 19.75 M30.95 32.45 L31.0 32.45 31.9 34.0 Q32.2 34.95 31.5 37.05 29.45 38.2 27.1 38.0 L26.4 37.05 26.15 36.0 26.15 35.7 Q28.6 34.1 30.95 32.6 L30.95 32.45 M18.1 32.45 L18.0 32.45 17.3 34.0 Q17.0 34.95 17.65 37.05 19.7 38.2 22.0 38.0 L22.9 37.05 22.9 35.55 18.15 32.6 18.1 32.45 M25.35 40.25 Q24.85 39.9 24.9 38.2 26.15 39.1 26.65 40.1 26.6 41.05 25.35 40.25 M24.25 38.2 Q23.0 39.1 22.55 40.1 22.55 41.05 23.95 40.25 24.4 39.9 24.25 38.2 Z" fill="none" stroke="#000000" stroke-linecap="round" stroke-linejoin="round" stroke-opacity="0.2" stroke-width="1.5"/>
    </g>
    <g id="sprite80" transform="matrix(1.0, 0.0, 0.0, 1.0, 0.0, 0.0)">
      <use ffdec:characterId="83" height="53.75" transform="matrix(1.0, 0.0, 0.0, 1.0, 0.0, 0.0)" width="50.5" xlink:href="#shape2"/>
    </g>
    <g id="shape2" transform="matrix(1.0, 0.0, 0.0, 1.0, 0.0, 0.0)">
      <path d="M48.65 5.85 L48.1 6.3 Q47.8 6.65 47.25 6.65 L47.35 6.75 47.55 7.2 47.25 7.7 46.9 8.05 46.4 7.9 46.15 7.6 46.1 7.85 45.85 8.75 45.4 9.15 Q45.05 9.65 44.4 9.65 L44.55 9.75 44.75 10.25 44.55 10.8 Q44.4 11.0 44.05 11.0 L43.6 10.9 43.6 10.8 Q42.8 12.75 43.5 14.75 L43.65 14.95 Q44.0 15.25 43.95 15.8 L43.65 16.6 43.1 17.15 Q42.9 17.5 42.25 17.6 L42.2 17.5 Q41.8 17.5 41.45 17.15 L41.15 16.9 Q41.2 17.75 40.3 18.55 L40.1 18.75 39.75 19.1 46.1 19.45 46.55 19.65 46.9 19.95 49.05 23.9 48.1 23.8 Q41.65 24.85 41.2 29.6 41.65 36.75 39.9 41.3 L40.4 42.2 45.6 50.95 46.65 52.85 44.95 51.5 37.55 45.7 37.35 45.45 Q34.45 48.65 29.3 49.25 L28.65 49.25 Q27.2 49.9 24.5 53.75 L24.25 53.35 Q22.2 49.6 20.6 49.0 L20.0 48.95 Q15.7 48.45 13.0 46.15 L12.95 46.15 5.55 51.95 3.9 53.3 4.9 51.35 Q7.15 47.2 10.1 42.65 L10.15 42.65 Q7.6 37.8 8.05 29.35 7.65 24.55 0.35 23.1 L0.95 22.15 2.4 19.65 Q2.5 19.4 2.75 19.3 L3.2 19.1 10.7 18.6 10.35 18.3 10.15 18.15 Q9.25 17.25 9.4 16.5 L9.05 16.75 Q8.7 17.1 8.35 17.1 L8.2 17.15 Q7.6 17.1 7.4 16.7 L6.9 16.2 Q6.55 15.8 6.55 15.35 6.5 14.8 6.9 14.45 L7.05 14.35 Q7.7 12.25 6.95 10.4 L6.95 10.45 6.5 10.55 5.9 10.3 5.7 9.75 5.9 9.35 6.15 9.15 Q5.5 9.15 5.1 8.75 L4.65 8.3 Q4.25 7.9 4.45 7.4 L4.4 7.2 4.1 7.5 3.65 7.55 3.2 7.2 2.95 6.75 Q3.0 6.45 3.15 6.3 L3.2 6.25 Q2.65 6.15 2.4 5.85 L1.9 5.4 Q1.55 5.0 1.6 4.45 1.6 4.15 1.75 3.95 1.0 3.8 0.45 3.35 -0.1 2.7 0.05 1.95 -0.05 1.0 0.6 0.45 1.2 -0.05 2.05 0.0 2.85 0.0 3.4 0.55 4.05 1.2 4.0 2.15 L4.25 2.1 Q4.8 2.0 5.15 2.5 L5.65 3.0 5.9 3.9 6.35 3.7 6.9 3.9 7.05 4.45 6.95 4.95 6.8 5.0 6.95 5.0 Q7.6 5.0 7.85 5.35 L8.4 5.85 8.7 6.85 Q8.85 6.65 9.1 6.65 9.45 6.65 9.6 7.0 L9.8 7.5 9.8 7.9 9.65 8.05 Q11.35 8.85 13.5 8.6 L13.7 8.3 Q14.1 7.95 14.65 8.05 15.15 8.05 15.55 8.45 L15.9 8.85 Q16.25 9.2 16.3 9.85 L16.2 10.25 15.9 10.75 15.5 11.1 Q16.25 10.95 17.1 11.9 L17.3 12.1 17.55 12.55 19.85 15.6 20.05 15.85 Q23.35 14.15 25.35 11.65 L25.5 11.65 25.85 12.0 Q27.7 14.45 30.6 16.15 L30.6 16.05 Q31.7 14.45 32.9 13.0 L33.25 12.55 33.4 12.4 Q34.2 11.35 35.05 11.5 L34.65 11.15 34.3 10.75 34.2 10.25 Q34.2 9.7 34.55 9.3 L35.0 8.85 Q35.35 8.5 35.9 8.45 36.45 8.4 36.8 8.75 L37.0 9.0 Q39.2 9.35 40.9 8.45 L40.75 8.3 40.65 7.95 40.9 7.5 Q41.1 7.15 41.45 7.15 41.7 7.05 41.8 7.3 41.8 6.65 42.1 6.3 L42.6 5.85 Q42.95 5.4 43.6 5.5 L43.65 5.5 43.6 5.35 Q43.35 5.2 43.45 4.95 43.35 4.6 43.65 4.35 L44.2 4.15 44.55 4.3 44.6 4.3 Q44.6 3.75 44.9 3.4 L45.3 2.9 Q45.75 2.5 46.3 2.5 L46.5 2.55 Q46.4 1.65 47.05 1.05 47.6 0.45 48.45 0.45 49.35 0.35 49.95 0.85 50.6 1.4 50.5 2.35 50.6 3.15 50.05 3.75 L48.8 4.45 48.9 4.95 48.65 5.85 M45.6 21.45 L38.1 20.85 37.4 20.75 Q29.1 19.2 25.35 14.45 19.6 21.0 3.75 21.1 L3.35 21.9 Q9.65 23.1 10.0 29.2 L10.0 29.35 Q9.05 45.45 20.3 47.0 L20.75 47.05 21.2 47.05 Q23.7 47.9 24.8 50.75 25.85 48.15 28.2 47.4 L28.45 47.35 29.0 47.35 Q40.25 45.8 39.3 29.6 L39.3 29.55 Q39.55 23.45 46.0 22.2 L45.6 21.45 M30.95 32.45 L30.95 32.6 Q28.6 34.05 26.15 35.7 L26.15 36.0 26.4 37.05 27.15 38.0 Q29.5 38.2 31.5 37.05 32.2 34.95 31.95 34.0 L31.05 32.45 30.95 32.45 M23.9 19.75 L24.9 19.75 27.7 20.0 Q30.4 20.75 32.05 22.55 33.8 24.45 34.1 27.15 L34.1 27.4 34.1 28.8 33.1 33.5 33.25 37.65 33.4 37.95 33.25 38.0 32.55 38.9 33.4 40.35 33.6 41.25 32.95 42.0 32.35 42.35 31.45 42.5 30.6 41.8 30.0 40.7 28.75 41.25 28.45 41.3 28.75 42.35 Q28.9 42.9 28.6 43.25 L27.85 43.9 27.05 43.95 26.15 43.8 25.6 43.05 25.35 41.8 24.9 41.8 23.95 41.8 23.75 43.05 23.1 43.8 22.2 43.95 21.55 43.9 Q21.1 43.75 20.75 43.25 20.35 42.9 20.6 42.35 L20.75 41.3 20.35 41.25 19.4 40.85 18.7 41.8 17.9 42.5 16.95 42.35 16.3 42.0 Q15.9 41.8 15.85 41.25 15.7 40.7 15.9 40.35 L16.75 38.9 15.9 38.0 16.2 33.5 15.1 28.8 15.1 27.4 Q15.35 24.65 17.1 22.55 18.9 20.75 21.6 20.0 L23.9 19.75 M18.05 32.45 Q17.55 33.15 17.3 34.0 17.0 34.95 17.65 37.05 19.7 38.2 22.0 38.0 L22.9 37.05 22.9 35.55 18.2 32.6 18.15 32.45 18.05 32.45 M24.3 38.2 Q23.05 39.1 22.55 40.15 22.55 41.05 23.95 40.3 24.45 39.85 24.3 38.2 M24.9 38.2 Q24.85 39.85 25.35 40.3 26.6 41.05 26.65 40.15 26.15 39.1 24.9 38.2" fill="#000000" fill-rule="evenodd" stroke="none"/>
    </g>
  </defs>
</svg>
