<?xml version="1.0" encoding="UTF-8" standalone="no"?>
<svg xmlns:ffdec="https://www.free-decompiler.com/flash" xmlns:xlink="http://www.w3.org/1999/xlink" ffdec:objectType="frame" height="56.0px" width="56.0px" xmlns="http://www.w3.org/2000/svg">
  <g transform="matrix(1.0, 0.0, 0.0, 1.0, 0.0, 0.0)">
    <use ffdec:characterId="25" ffdec:characterName="24_fla.Symbole72_1" height="56.0" id="back" transform="matrix(1.0, 0.0, 0.0, 1.0, 0.0, 0.0)" width="56.0" xlink:href="#sprite0"/>
    <use ffdec:characterId="27" height="55.55" id="back" transform="matrix(1.0, 0.0, 0.0, 1.0, 6.45, 0.45)" width="43.1" xlink:href="#sprite24"/>
    <use ffdec:characterId="29" height="54.0" id="up" transform="matrix(1.0, 0.0, 0.0, 1.0, 7.2, 1.25)" width="41.6" xlink:href="#sprite25"/>
  </g>
  <defs>
    <g id="sprite0" transform="matrix(1.0, 0.0, 0.0, 1.0, 0.0, 0.0)">
      <use ffdec:characterId="24" ffdec:characterName="24_fla.Symbole69_2" height="56.0" id="back" transform="matrix(1.0, 0.0, 0.0, 1.0, 0.0, 0.0)" width="56.0" xlink:href="#sprite1"/>
    </g>
    <g id="sprite1" transform="matrix(1.0, 0.0, 0.0, 1.0, 0.0, 0.0)">
      <use ffdec:characterId="23" ffdec:characterName="24_fla.Symbole66_3" height="56.0" id="back" transform="matrix(1.0, 0.0, 0.0, 1.0, 0.0, 0.0)" width="56.0" xlink:href="#sprite2"/>
    </g>
    <g id="sprite2" transform="matrix(1.0, 0.0, 0.0, 1.0, 0.0, 0.0)">
      <use ffdec:characterId="22" ffdec:characterName="24_fla.Symbole63_4" height="56.0" id="back" transform="matrix(1.0, 0.0, 0.0, 1.0, 0.0, 0.0)" width="56.0" xlink:href="#sprite3"/>
    </g>
    <g id="sprite3" transform="matrix(1.0, 0.0, 0.0, 1.0, 0.0, 0.0)">
      <use ffdec:characterId="21" ffdec:characterName="24_fla.Symbole60_5" height="56.0" id="back" transform="matrix(1.0, 0.0, 0.0, 1.0, 0.0, 0.0)" width="56.0" xlink:href="#sprite4"/>
    </g>
    <g id="sprite4" transform="matrix(1.0, 0.0, 0.0, 1.0, 0.0, 0.0)">
      <use ffdec:characterId="20" ffdec:characterName="24_fla.Symbole57_6" height="56.0" id="back" transform="matrix(1.0, 0.0, 0.0, 1.0, 0.0, 0.0)" width="56.0" xlink:href="#sprite5"/>
    </g>
    <g id="sprite5" transform="matrix(1.0, 0.0, 0.0, 1.0, 0.0, 0.0)">
      <use ffdec:characterId="19" ffdec:characterName="24_fla.Symbole54_7" height="56.0" id="back" transform="matrix(1.0, 0.0, 0.0, 1.0, 0.0, 0.0)" width="56.0" xlink:href="#sprite6"/>
    </g>
    <g id="sprite6" transform="matrix(1.0, 0.0, 0.0, 1.0, 0.0, 0.0)">
      <use ffdec:characterId="18" ffdec:characterName="24_fla.Symbole51_8" height="56.0" id="back" transform="matrix(1.0, 0.0, 0.0, 1.0, 0.0, 0.0)" width="56.0" xlink:href="#sprite7"/>
    </g>
    <g id="sprite7" transform="matrix(1.0, 0.0, 0.0, 1.0, 0.0, 0.0)">
      <use ffdec:characterId="17" ffdec:characterName="24_fla.Symbole48_9" height="56.0" id="back" transform="matrix(1.0, 0.0, 0.0, 1.0, 0.0, 0.0)" width="56.0" xlink:href="#sprite8"/>
    </g>
    <g id="sprite8" transform="matrix(1.0, 0.0, 0.0, 1.0, 0.0, 0.0)">
      <use ffdec:characterId="16" ffdec:characterName="24_fla.Symbole45_10" height="56.0" id="back" transform="matrix(1.0, 0.0, 0.0, 1.0, 0.0, 0.0)" width="56.0" xlink:href="#sprite9"/>
    </g>
    <g id="sprite9" transform="matrix(1.0, 0.0, 0.0, 1.0, 0.0, 0.0)">
      <use ffdec:characterId="15" ffdec:characterName="24_fla.Symbole42_11" height="56.0" id="back" transform="matrix(1.0, 0.0, 0.0, 1.0, 0.0, 0.0)" width="56.0" xlink:href="#sprite10"/>
    </g>
    <g id="sprite10" transform="matrix(1.0, 0.0, 0.0, 1.0, 0.0, 0.0)">
      <use ffdec:characterId="14" ffdec:characterName="24_fla.Symbole39_12" height="56.0" id="back" transform="matrix(1.0, 0.0, 0.0, 1.0, 0.0, 0.0)" width="56.0" xlink:href="#sprite11"/>
    </g>
    <g id="sprite11" transform="matrix(1.0, 0.0, 0.0, 1.0, 0.0, 0.0)">
      <use ffdec:characterId="13" ffdec:characterName="24_fla.Symbole36_13" height="56.0" id="back" transform="matrix(1.0, 0.0, 0.0, 1.0, 0.0, 0.0)" width="56.0" xlink:href="#sprite12"/>
    </g>
    <g id="sprite12" transform="matrix(1.0, 0.0, 0.0, 1.0, 0.0, 0.0)">
      <use ffdec:characterId="12" ffdec:characterName="24_fla.Symbole33_14" height="56.0" id="back" transform="matrix(1.0, 0.0, 0.0, 1.0, 0.0, 0.0)" width="56.0" xlink:href="#sprite13"/>
    </g>
    <g id="sprite13" transform="matrix(1.0, 0.0, 0.0, 1.0, 0.0, 0.0)">
      <use ffdec:characterId="11" ffdec:characterName="24_fla.Symbole30_15" height="56.0" id="back" transform="matrix(1.0, 0.0, 0.0, 1.0, 0.0, 0.0)" width="56.0" xlink:href="#sprite14"/>
    </g>
    <g id="sprite14" transform="matrix(1.0, 0.0, 0.0, 1.0, 0.0, 0.0)">
      <use ffdec:characterId="10" ffdec:characterName="24_fla.Symbole27_16" height="56.0" id="back" transform="matrix(1.0, 0.0, 0.0, 1.0, 0.0, 0.0)" width="56.0" xlink:href="#sprite15"/>
    </g>
    <g id="sprite15" transform="matrix(1.0, 0.0, 0.0, 1.0, 0.0, 0.0)">
      <use ffdec:characterId="9" ffdec:characterName="24_fla.Symbole24_17" height="56.0" id="back" transform="matrix(1.0, 0.0, 0.0, 1.0, 0.0, 0.0)" width="56.0" xlink:href="#sprite16"/>
    </g>
    <g id="sprite16" transform="matrix(1.0, 0.0, 0.0, 1.0, 0.0, 0.0)">
      <use ffdec:characterId="8" ffdec:characterName="24_fla.Symbole21_18" height="56.0" id="back" transform="matrix(1.0, 0.0, 0.0, 1.0, 0.0, 0.0)" width="56.0" xlink:href="#sprite17"/>
    </g>
    <g id="sprite17" transform="matrix(1.0, 0.0, 0.0, 1.0, 0.0, 0.0)">
      <use ffdec:characterId="7" ffdec:characterName="24_fla.Symbole18_19" height="56.0" id="back" transform="matrix(1.0, 0.0, 0.0, 1.0, 0.0, 0.0)" width="56.0" xlink:href="#sprite18"/>
    </g>
    <g id="sprite18" transform="matrix(1.0, 0.0, 0.0, 1.0, 0.0, 0.0)">
      <use ffdec:characterId="6" ffdec:characterName="24_fla.Symbole15_20" height="56.0" id="back" transform="matrix(1.0, 0.0, 0.0, 1.0, 0.0, 0.0)" width="56.0" xlink:href="#sprite19"/>
    </g>
    <g id="sprite19" transform="matrix(1.0, 0.0, 0.0, 1.0, 0.0, 0.0)">
      <use ffdec:characterId="5" ffdec:characterName="24_fla.Symbole12_21" height="56.0" id="back" transform="matrix(1.0, 0.0, 0.0, 1.0, 0.0, 0.0)" width="56.0" xlink:href="#sprite20"/>
    </g>
    <g id="sprite20" transform="matrix(1.0, 0.0, 0.0, 1.0, 0.0, 0.0)">
      <use ffdec:characterId="4" ffdec:characterName="24_fla.Symbole9_22" height="56.0" id="back" transform="matrix(1.0, 0.0, 0.0, 1.0, 0.0, 0.0)" width="56.0" xlink:href="#sprite21"/>
    </g>
    <g id="sprite21" transform="matrix(1.0, 0.0, 0.0, 1.0, 0.0, 0.0)">
      <use ffdec:characterId="3" ffdec:characterName="24_fla.Symbole6_23" height="56.0" id="back" transform="matrix(1.0, 0.0, 0.0, 1.0, 0.0, 0.0)" width="56.0" xlink:href="#sprite22"/>
    </g>
    <g id="sprite22" transform="matrix(1.0, 0.0, 0.0, 1.0, 0.0, 0.0)">
      <use ffdec:characterId="2" height="56.0" id="back" transform="matrix(1.0, 0.0, 0.0, 1.0, 0.0, 0.0)" width="56.0" xlink:href="#sprite23"/>
    </g>
    <g id="sprite23" transform="matrix(1.0, 0.0, 0.0, 1.0, 0.0, 0.0)">
      <use ffdec:characterId="1" height="56.0" transform="matrix(1.0, 0.0, 0.0, 1.0, 0.0, 0.0)" width="56.0" xlink:href="#shape0"/>
    </g>
    <g id="shape0" transform="matrix(1.0, 0.0, 0.0, 1.0, 0.0, 0.0)">
      <path d="M56.0 56.0 L0.0 56.0 0.0 0.0 56.0 0.0 56.0 56.0" fill="#010101" fill-opacity="0.0" fill-rule="evenodd" stroke="none"/>
    </g>
    <g id="sprite24" transform="matrix(1.0, 0.0, 0.0, 1.0, 0.75, 0.75)">
      <use ffdec:characterId="26" height="55.55" transform="matrix(1.0, 0.0, 0.0, 1.0, -0.75, -0.75)" width="43.1" xlink:href="#shape1"/>
    </g>
    <g id="shape1" transform="matrix(1.0, 0.0, 0.0, 1.0, 0.75, 0.75)">
      <path d="M34.25 16.0 Q33.4 16.8 33.4 17.85 L33.4 17.95 29.7 17.95 Q28.9 15.8 27.4 14.2 25.8 12.55 23.65 11.85 L23.65 8.15 23.9 8.15 Q24.8 8.15 25.65 7.35 26.35 6.6 26.5 5.65 26.35 4.55 25.65 3.8 24.8 3.05 23.9 3.05 L23.3 3.05 23.3 2.5 Q23.3 1.45 22.6 0.75 21.8 0.0 20.85 0.0 19.8 0.0 19.0 0.75 18.25 1.45 18.25 2.5 L18.25 3.05 17.8 3.05 Q16.75 3.05 16.0 3.8 15.25 4.55 15.25 5.65 15.25 6.6 16.0 7.35 16.75 8.15 17.8 8.15 L17.9 8.15 17.9 11.85 Q15.75 12.55 14.15 14.2 12.55 15.8 11.9 17.95 L8.15 17.95 8.15 17.85 Q8.15 16.8 7.4 16.0 6.65 15.3 5.65 15.3 4.55 15.3 3.8 16.0 3.05 16.8 3.05 17.85 L3.05 18.3 2.6 18.3 Q1.55 18.3 0.85 19.0 0.0 19.85 0.0 20.9 0.0 21.85 0.85 22.65 1.55 23.35 2.6 23.35 L3.05 23.35 3.05 23.95 Q3.05 24.85 3.8 25.65 4.55 26.4 5.65 26.4 6.65 26.4 7.4 25.65 8.15 24.85 8.15 23.95 L8.15 23.7 11.9 23.7 Q12.55 25.85 14.15 27.45 15.75 28.95 17.9 29.75 L17.9 46.6 23.65 46.6 23.65 29.75 Q25.8 28.95 27.4 27.45 28.9 25.85 29.7 23.7 L33.4 23.7 33.4 23.95 Q33.4 24.85 34.25 25.65 34.95 26.4 36.0 26.4 37.0 26.4 37.9 25.65 38.5 24.85 38.6 23.95 L38.6 23.35 39.05 23.35 Q40.1 23.35 40.85 22.65 41.55 21.85 41.6 20.9 41.55 19.85 40.85 19.0 40.1 18.3 39.05 18.3 L38.6 18.3 38.6 17.85 Q38.5 16.8 37.9 16.0 37.0 15.3 36.0 15.3 34.95 15.3 34.25 16.0 M18.05 18.1 Q19.2 16.85 20.85 16.85 22.45 16.85 23.5 18.1 24.75 19.25 24.75 20.9 24.75 22.4 23.5 23.55 22.45 24.8 20.85 24.8 19.2 24.8 18.05 23.55 16.85 22.4 16.85 20.9 16.85 19.25 18.05 18.1 M17.5 46.9 L15.05 50.25 26.55 50.25 24.15 46.9 17.5 46.9 M25.6 50.55 L16.15 50.55 13.6 54.05 28.0 54.05 25.6 50.55 Z" fill="none" stroke="#000000" stroke-linecap="round" stroke-linejoin="round" stroke-opacity="0.2" stroke-width="1.5"/>
    </g>
    <g id="sprite25" transform="matrix(1.0, 0.0, 0.0, 1.0, 0.0, 0.0)">
      <use ffdec:characterId="28" height="54.0" transform="matrix(1.0, 0.0, 0.0, 1.0, 0.0, 0.0)" width="41.6" xlink:href="#shape2"/>
    </g>
    <g id="shape2" transform="matrix(1.0, 0.0, 0.0, 1.0, 0.0, 0.0)">
      <path d="M25.55 50.55 L27.95 54.0 13.55 54.0 16.1 50.55 25.55 50.55 M17.45 46.9 L24.15 46.9 26.5 50.25 15.0 50.25 17.45 46.9 M18.0 18.05 Q16.8 19.2 16.8 20.9 16.8 22.4 18.0 23.55 19.15 24.75 20.8 24.75 22.4 24.75 23.5 23.55 24.7 22.4 24.7 20.9 24.7 19.2 23.5 18.05 22.4 16.85 20.8 16.85 19.15 16.85 18.0 18.05 M34.2 16.0 Q34.9 15.25 36.0 15.25 37.0 15.25 37.85 16.0 38.5 16.75 38.55 17.85 L38.55 18.3 39.0 18.3 Q40.05 18.3 40.85 19.0 41.5 19.8 41.6 20.9 41.5 21.8 40.85 22.6 40.05 23.35 39.0 23.35 L38.55 23.35 38.55 23.9 Q38.5 24.85 37.85 25.65 37.0 26.35 36.0 26.35 34.9 26.35 34.2 25.65 33.4 24.85 33.4 23.9 L33.4 23.7 29.65 23.7 Q28.85 25.85 27.35 27.45 25.8 28.95 23.65 29.75 L23.65 46.6 17.9 46.6 17.9 29.75 Q15.75 28.95 14.15 27.45 12.5 25.85 11.85 23.7 L8.1 23.7 8.1 23.9 Q8.1 24.85 7.3 25.65 6.6 26.35 5.6 26.35 4.5 26.35 3.8 25.65 3.0 24.85 3.0 23.9 L3.0 23.35 2.6 23.35 Q1.5 23.35 0.8 22.6 0.0 21.8 0.0 20.9 0.0 19.8 0.8 19.0 1.5 18.3 2.6 18.3 L3.0 18.3 3.0 17.85 Q3.0 16.75 3.8 16.0 4.5 15.25 5.6 15.25 6.6 15.25 7.3 16.0 8.1 16.75 8.1 17.85 L8.1 17.95 11.85 17.95 Q12.5 15.75 14.15 14.2 15.75 12.5 17.9 11.85 L17.9 8.15 17.8 8.15 Q16.75 8.15 15.95 7.35 15.2 6.6 15.2 5.6 15.2 4.55 15.95 3.8 16.75 3.0 17.8 3.0 L18.25 3.0 18.25 2.5 Q18.25 1.45 18.95 0.8 19.75 0.0 20.8 0.0 21.75 0.0 22.55 0.8 23.25 1.45 23.25 2.5 L23.25 3.0 23.85 3.0 Q24.75 3.0 25.65 3.8 26.3 4.55 26.45 5.6 26.3 6.6 25.65 7.35 24.75 8.15 23.85 8.15 L23.65 8.15 23.65 11.85 Q25.8 12.5 27.35 14.2 28.85 15.75 29.65 17.95 L33.4 17.95 33.4 17.85 Q33.4 16.75 34.2 16.0" fill="#000000" fill-rule="evenodd" stroke="none"/>
    </g>
  </defs>
</svg>
