<?xml version="1.0" encoding="UTF-8" standalone="no"?>
<svg xmlns:ffdec="https://www.free-decompiler.com/flash" xmlns:xlink="http://www.w3.org/1999/xlink" ffdec:objectType="frame" height="56.0px" width="56.0px" xmlns="http://www.w3.org/2000/svg">
  <g transform="matrix(1.0, 0.0, 0.0, 1.0, 0.0, 0.0)">
    <use ffdec:characterId="2" height="55.25" id="back" transform="matrix(1.0, 0.0, 0.0, 1.0, 3.1, 0.3)" width="49.6" xlink:href="#sprite0"/>
    <use ffdec:characterId="4" height="53.75" id="up" transform="matrix(1.0, 0.0, 0.0, 1.0, 3.85, 1.0)" width="48.1" xlink:href="#sprite1"/>
  </g>
  <defs>
    <g id="sprite0" transform="matrix(1.0, 0.0, 0.0, 1.0, 0.75, 0.75)">
      <use ffdec:characterId="1" height="55.25" transform="matrix(1.0, 0.0, 0.0, 1.0, -0.75, -0.75)" width="49.6" xlink:href="#shape0"/>
    </g>
    <g id="shape0" transform="matrix(1.0, 0.0, 0.0, 1.0, 0.75, 0.75)">
      <path d="M44.55 7.1 Q43.8 7.8 42.8 7.8 41.5 7.8 39.65 6.1 37.5 4.2 36.4 3.8 35.2 3.2 34.2 3.2 33.0 3.2 31.7 3.9 30.05 4.8 28.15 7.5 26.15 10.15 24.15 15.3 22.75 18.9 20.65 27.05 17.45 40.1 15.7 44.25 14.5 47.3 12.75 49.3 18.95 47.95 22.65 47.95 L26.85 48.2 33.75 49.7 39.65 50.6 Q41.2 50.6 42.4 49.6 43.5 48.55 43.5 47.3 L43.0 44.9 Q42.3 43.6 42.3 42.65 42.3 41.55 43.1 40.9 43.7 40.15 44.8 40.15 46.2 40.15 47.05 41.35 48.1 42.55 48.1 44.5 48.1 48.2 44.8 50.95 41.8 53.75 36.4 53.75 L29.65 53.35 11.25 52.1 0.0 52.85 0.4 50.4 Q5.05 49.7 6.65 48.5 8.2 47.35 9.4 44.5 10.6 41.55 12.75 32.6 15.6 20.7 17.85 15.4 21.35 7.6 26.65 3.8 31.85 0.0 37.15 0.0 40.6 0.0 43.0 1.75 45.2 3.4 45.2 5.35 45.2 6.4 44.55 7.1 Z" fill="none" stroke="#000000" stroke-linecap="round" stroke-linejoin="round" stroke-opacity="0.2" stroke-width="1.5"/>
    </g>
    <g id="sprite1" transform="matrix(1.0, 0.0, 0.0, 1.0, 0.0, 0.0)">
      <use ffdec:characterId="3" height="53.75" transform="matrix(1.0, 0.0, 0.0, 1.0, 0.0, 0.0)" width="48.1" xlink:href="#shape1"/>
    </g>
    <g id="shape1" transform="matrix(1.0, 0.0, 0.0, 1.0, 0.0, 0.0)">
      <path d="M44.55 7.15 Q43.8 7.85 42.8 7.85 41.5 7.85 39.65 6.1 37.55 4.25 36.45 3.8 35.2 3.25 34.2 3.25 33.0 3.25 31.7 3.9 30.05 4.8 28.2 7.5 26.15 10.2 24.15 15.35 22.75 18.95 20.7 27.1 17.45 40.1 15.7 44.25 14.5 47.3 12.75 49.35 18.95 47.95 22.65 47.95 L26.9 48.25 33.75 49.7 39.65 50.65 Q41.25 50.65 42.45 49.6 43.55 48.6 43.55 47.3 L43.0 44.9 Q42.35 43.6 42.35 42.7 42.35 41.6 43.1 40.95 43.75 40.2 44.85 40.2 46.25 40.2 47.05 41.4 48.1 42.6 48.1 44.55 48.1 48.25 44.85 51.0 41.8 53.75 36.45 53.75 L29.7 53.4 11.25 52.1 0.0 52.85 0.45 50.45 Q5.1 49.7 6.65 48.5 8.2 47.4 9.4 44.55 10.65 41.6 12.75 32.6 15.6 20.7 17.85 15.45 21.35 7.6 26.6 3.8 31.9 0.0 37.15 0.0 40.6 0.0 43.0 1.75 45.2 3.45 45.2 5.35 45.2 6.4 44.55 7.15" fill="#000000" fill-rule="evenodd" stroke="none"/>
    </g>
  </defs>
</svg>
