<?xml version="1.0" encoding="UTF-8" standalone="no"?>
<svg xmlns:ffdec="https://www.free-decompiler.com/flash" xmlns:xlink="http://www.w3.org/1999/xlink" ffdec:objectType="frame" height="56.0px" width="56.0px" xmlns="http://www.w3.org/2000/svg">
  <g transform="matrix(1.0, 0.0, 0.0, 1.0, 0.0, 0.0)">
    <use ffdec:characterId="26" ffdec:characterName="25_fla.Symbole75_1" height="56.0" id="back" transform="matrix(1.0, 0.0, 0.0, 1.0, 0.0, 0.0)" width="56.0" xlink:href="#sprite0"/>
    <use ffdec:characterId="28" height="55.55" id="back" transform="matrix(1.0, 0.0, 0.0, 1.0, 0.4, 0.45)" width="55.4" xlink:href="#sprite25"/>
    <use ffdec:characterId="30" height="54.05" id="up" transform="matrix(1.0, 0.0, 0.0, 1.0, 1.15, 1.2)" width="53.9" xlink:href="#sprite26"/>
  </g>
  <defs>
    <g id="sprite0" transform="matrix(1.0, 0.0, 0.0, 1.0, 0.0, 0.0)">
      <use ffdec:characterId="25" ffdec:characterName="25_fla.Symbole72_2" height="56.0" id="back" transform="matrix(1.0, 0.0, 0.0, 1.0, 0.0, 0.0)" width="56.0" xlink:href="#sprite1"/>
    </g>
    <g id="sprite1" transform="matrix(1.0, 0.0, 0.0, 1.0, 0.0, 0.0)">
      <use ffdec:characterId="24" ffdec:characterName="25_fla.Symbole69_3" height="56.0" id="back" transform="matrix(1.0, 0.0, 0.0, 1.0, 0.0, 0.0)" width="56.0" xlink:href="#sprite2"/>
    </g>
    <g id="sprite2" transform="matrix(1.0, 0.0, 0.0, 1.0, 0.0, 0.0)">
      <use ffdec:characterId="23" ffdec:characterName="25_fla.Symbole66_4" height="56.0" id="back" transform="matrix(1.0, 0.0, 0.0, 1.0, 0.0, 0.0)" width="56.0" xlink:href="#sprite3"/>
    </g>
    <g id="sprite3" transform="matrix(1.0, 0.0, 0.0, 1.0, 0.0, 0.0)">
      <use ffdec:characterId="22" ffdec:characterName="25_fla.Symbole63_5" height="56.0" id="back" transform="matrix(1.0, 0.0, 0.0, 1.0, 0.0, 0.0)" width="56.0" xlink:href="#sprite4"/>
    </g>
    <g id="sprite4" transform="matrix(1.0, 0.0, 0.0, 1.0, 0.0, 0.0)">
      <use ffdec:characterId="21" ffdec:characterName="25_fla.Symbole60_6" height="56.0" id="back" transform="matrix(1.0, 0.0, 0.0, 1.0, 0.0, 0.0)" width="56.0" xlink:href="#sprite5"/>
    </g>
    <g id="sprite5" transform="matrix(1.0, 0.0, 0.0, 1.0, 0.0, 0.0)">
      <use ffdec:characterId="20" ffdec:characterName="25_fla.Symbole57_7" height="56.0" id="back" transform="matrix(1.0, 0.0, 0.0, 1.0, 0.0, 0.0)" width="56.0" xlink:href="#sprite6"/>
    </g>
    <g id="sprite6" transform="matrix(1.0, 0.0, 0.0, 1.0, 0.0, 0.0)">
      <use ffdec:characterId="19" ffdec:characterName="25_fla.Symbole54_8" height="56.0" id="back" transform="matrix(1.0, 0.0, 0.0, 1.0, 0.0, 0.0)" width="56.0" xlink:href="#sprite7"/>
    </g>
    <g id="sprite7" transform="matrix(1.0, 0.0, 0.0, 1.0, 0.0, 0.0)">
      <use ffdec:characterId="18" ffdec:characterName="25_fla.Symbole51_9" height="56.0" id="back" transform="matrix(1.0, 0.0, 0.0, 1.0, 0.0, 0.0)" width="56.0" xlink:href="#sprite8"/>
    </g>
    <g id="sprite8" transform="matrix(1.0, 0.0, 0.0, 1.0, 0.0, 0.0)">
      <use ffdec:characterId="17" ffdec:characterName="25_fla.Symbole48_10" height="56.0" id="back" transform="matrix(1.0, 0.0, 0.0, 1.0, 0.0, 0.0)" width="56.0" xlink:href="#sprite9"/>
    </g>
    <g id="sprite9" transform="matrix(1.0, 0.0, 0.0, 1.0, 0.0, 0.0)">
      <use ffdec:characterId="16" ffdec:characterName="25_fla.Symbole45_11" height="56.0" id="back" transform="matrix(1.0, 0.0, 0.0, 1.0, 0.0, 0.0)" width="56.0" xlink:href="#sprite10"/>
    </g>
    <g id="sprite10" transform="matrix(1.0, 0.0, 0.0, 1.0, 0.0, 0.0)">
      <use ffdec:characterId="15" ffdec:characterName="25_fla.Symbole42_12" height="56.0" id="back" transform="matrix(1.0, 0.0, 0.0, 1.0, 0.0, 0.0)" width="56.0" xlink:href="#sprite11"/>
    </g>
    <g id="sprite11" transform="matrix(1.0, 0.0, 0.0, 1.0, 0.0, 0.0)">
      <use ffdec:characterId="14" ffdec:characterName="25_fla.Symbole39_13" height="56.0" id="back" transform="matrix(1.0, 0.0, 0.0, 1.0, 0.0, 0.0)" width="56.0" xlink:href="#sprite12"/>
    </g>
    <g id="sprite12" transform="matrix(1.0, 0.0, 0.0, 1.0, 0.0, 0.0)">
      <use ffdec:characterId="13" ffdec:characterName="25_fla.Symbole36_14" height="56.0" id="back" transform="matrix(1.0, 0.0, 0.0, 1.0, 0.0, 0.0)" width="56.0" xlink:href="#sprite13"/>
    </g>
    <g id="sprite13" transform="matrix(1.0, 0.0, 0.0, 1.0, 0.0, 0.0)">
      <use ffdec:characterId="12" ffdec:characterName="25_fla.Symbole33_15" height="56.0" id="back" transform="matrix(1.0, 0.0, 0.0, 1.0, 0.0, 0.0)" width="56.0" xlink:href="#sprite14"/>
    </g>
    <g id="sprite14" transform="matrix(1.0, 0.0, 0.0, 1.0, 0.0, 0.0)">
      <use ffdec:characterId="11" ffdec:characterName="25_fla.Symbole30_16" height="56.0" id="back" transform="matrix(1.0, 0.0, 0.0, 1.0, 0.0, 0.0)" width="56.0" xlink:href="#sprite15"/>
    </g>
    <g id="sprite15" transform="matrix(1.0, 0.0, 0.0, 1.0, 0.0, 0.0)">
      <use ffdec:characterId="10" ffdec:characterName="25_fla.Symbole27_17" height="56.0" id="back" transform="matrix(1.0, 0.0, 0.0, 1.0, 0.0, 0.0)" width="56.0" xlink:href="#sprite16"/>
    </g>
    <g id="sprite16" transform="matrix(1.0, 0.0, 0.0, 1.0, 0.0, 0.0)">
      <use ffdec:characterId="9" ffdec:characterName="25_fla.Symbole24_18" height="56.0" id="back" transform="matrix(1.0, 0.0, 0.0, 1.0, 0.0, 0.0)" width="56.0" xlink:href="#sprite17"/>
    </g>
    <g id="sprite17" transform="matrix(1.0, 0.0, 0.0, 1.0, 0.0, 0.0)">
      <use ffdec:characterId="8" ffdec:characterName="25_fla.Symbole21_19" height="56.0" id="back" transform="matrix(1.0, 0.0, 0.0, 1.0, 0.0, 0.0)" width="56.0" xlink:href="#sprite18"/>
    </g>
    <g id="sprite18" transform="matrix(1.0, 0.0, 0.0, 1.0, 0.0, 0.0)">
      <use ffdec:characterId="7" ffdec:characterName="25_fla.Symbole18_20" height="56.0" id="back" transform="matrix(1.0, 0.0, 0.0, 1.0, 0.0, 0.0)" width="56.0" xlink:href="#sprite19"/>
    </g>
    <g id="sprite19" transform="matrix(1.0, 0.0, 0.0, 1.0, 0.0, 0.0)">
      <use ffdec:characterId="6" ffdec:characterName="25_fla.Symbole15_21" height="56.0" id="back" transform="matrix(1.0, 0.0, 0.0, 1.0, 0.0, 0.0)" width="56.0" xlink:href="#sprite20"/>
    </g>
    <g id="sprite20" transform="matrix(1.0, 0.0, 0.0, 1.0, 0.0, 0.0)">
      <use ffdec:characterId="5" ffdec:characterName="25_fla.Symbole12_22" height="56.0" id="back" transform="matrix(1.0, 0.0, 0.0, 1.0, 0.0, 0.0)" width="56.0" xlink:href="#sprite21"/>
    </g>
    <g id="sprite21" transform="matrix(1.0, 0.0, 0.0, 1.0, 0.0, 0.0)">
      <use ffdec:characterId="4" ffdec:characterName="25_fla.Symbole9_23" height="56.0" id="back" transform="matrix(1.0, 0.0, 0.0, 1.0, 0.0, 0.0)" width="56.0" xlink:href="#sprite22"/>
    </g>
    <g id="sprite22" transform="matrix(1.0, 0.0, 0.0, 1.0, 0.0, 0.0)">
      <use ffdec:characterId="3" ffdec:characterName="25_fla.Symbole6_24" height="56.0" id="back" transform="matrix(1.0, 0.0, 0.0, 1.0, 0.0, 0.0)" width="56.0" xlink:href="#sprite23"/>
    </g>
    <g id="sprite23" transform="matrix(1.0, 0.0, 0.0, 1.0, 0.0, 0.0)">
      <use ffdec:characterId="2" height="56.0" id="back" transform="matrix(1.0, 0.0, 0.0, 1.0, 0.0, 0.0)" width="56.0" xlink:href="#sprite24"/>
    </g>
    <g id="sprite24" transform="matrix(1.0, 0.0, 0.0, 1.0, 0.0, 0.0)">
      <use ffdec:characterId="1" height="56.0" transform="matrix(1.0, 0.0, 0.0, 1.0, 0.0, 0.0)" width="56.0" xlink:href="#shape0"/>
    </g>
    <g id="shape0" transform="matrix(1.0, 0.0, 0.0, 1.0, 0.0, 0.0)">
      <path d="M56.0 56.0 L0.0 56.0 0.0 0.0 56.0 0.0 56.0 56.0" fill="#010101" fill-opacity="0.0" fill-rule="evenodd" stroke="none"/>
    </g>
    <g id="sprite25" transform="matrix(1.0, 0.0, 0.0, 1.0, 0.75, 0.75)">
      <use ffdec:characterId="27" height="55.55" transform="matrix(1.0, 0.0, 0.0, 1.0, -0.75, -0.75)" width="55.4" xlink:href="#shape1"/>
    </g>
    <g id="shape1" transform="matrix(1.0, 0.0, 0.0, 1.0, 0.75, 0.75)">
      <path d="M46.65 15.8 L38.0 7.25 Q37.85 7.05 37.75 7.25 37.6 7.4 37.85 7.5 39.05 8.7 39.05 10.4 39.05 12.0 37.85 13.25 L29.4 21.7 29.4 5.45 Q29.35 3.35 30.85 1.85 32.35 0.35 34.35 0.5 L34.75 0.25 Q34.75 -0.1 34.35 0.05 L19.45 0.05 Q19.05 -0.1 19.2 0.25 L19.5 0.5 Q21.45 0.35 22.95 1.85 24.45 3.35 24.45 5.45 L24.45 21.7 16.05 13.25 Q14.75 12.0 14.9 10.4 14.75 8.7 16.05 7.5 L16.05 7.25 Q16.0 7.05 15.85 7.25 L7.2 15.8 Q7.05 16.0 7.2 16.1 L7.45 16.1 Q8.65 14.95 10.4 14.95 12.0 14.95 13.2 16.1 L21.65 24.5 5.45 24.5 Q3.35 24.5 1.85 23.0 0.35 21.5 0.5 19.55 L0.3 19.25 Q-0.1 19.1 0.05 19.5 L0.05 34.45 Q-0.1 34.85 0.3 34.85 L0.5 34.45 Q0.35 32.45 1.85 30.9 3.35 29.45 5.45 29.5 L21.65 29.5 13.2 37.9 Q12.0 39.15 10.4 39.15 8.65 39.15 7.45 37.9 7.35 37.7 7.2 37.9 7.05 37.9 7.2 38.1 L15.85 46.8 16.05 46.8 16.05 46.5 Q14.75 45.25 14.9 43.65 14.75 41.95 16.05 40.7 L24.45 32.3 24.45 48.5 Q24.45 50.6 22.95 52.1 21.45 53.6 19.5 53.6 19.2 53.45 19.2 53.85 L19.45 54.05 34.35 54.05 34.75 53.85 Q34.75 53.45 34.35 53.6 32.35 53.6 30.85 52.1 29.35 50.6 29.4 48.5 L29.4 32.3 37.85 40.7 Q39.05 41.95 39.05 43.65 39.05 45.25 37.85 46.5 37.6 46.7 37.75 46.8 L38.0 46.8 46.65 38.1 46.65 37.9 Q46.6 37.7 46.45 37.9 45.15 39.15 43.55 39.15 41.8 39.15 40.6 37.9 L32.2 29.5 48.5 29.5 Q50.45 29.45 51.95 30.9 53.45 32.45 53.45 34.45 53.3 34.85 53.65 34.85 L53.9 34.45 53.9 19.5 53.65 19.25 Q53.3 19.25 53.45 19.55 53.45 21.5 51.95 23.0 50.45 24.5 48.5 24.5 L32.2 24.5 40.6 16.1 Q41.8 14.95 43.55 14.95 45.15 14.95 46.45 16.1 L46.65 16.1 46.65 15.8 Z" fill="none" stroke="#000000" stroke-linecap="round" stroke-linejoin="round" stroke-opacity="0.2" stroke-width="1.5"/>
    </g>
    <g id="sprite26" transform="matrix(1.0, 0.0, 0.0, 1.0, 0.0, 0.0)">
      <use ffdec:characterId="29" height="54.05" transform="matrix(1.0, 0.0, 0.0, 1.0, 0.0, 0.0)" width="53.9" xlink:href="#shape2"/>
    </g>
    <g id="shape2" transform="matrix(1.0, 0.0, 0.0, 1.0, 0.0, 0.0)">
      <path d="M46.65 15.8 L46.65 16.1 46.45 16.1 Q45.15 14.95 43.55 14.95 41.8 14.95 40.6 16.1 L32.2 24.5 48.5 24.5 Q50.45 24.5 51.95 23.0 53.45 21.5 53.45 19.55 53.3 19.25 53.65 19.25 L53.9 19.5 53.9 34.45 53.65 34.85 Q53.3 34.85 53.45 34.45 53.45 32.45 51.95 30.9 50.45 29.45 48.5 29.5 L32.2 29.5 40.6 37.9 Q41.8 39.15 43.55 39.15 45.15 39.15 46.45 37.9 46.6 37.7 46.65 37.9 L46.65 38.1 38.0 46.8 37.75 46.8 Q37.6 46.7 37.85 46.5 39.05 45.25 39.05 43.65 39.05 41.95 37.85 40.7 L29.4 32.3 29.4 48.5 Q29.35 50.6 30.85 52.1 32.35 53.6 34.35 53.6 34.75 53.45 34.75 53.85 L34.35 54.05 19.45 54.05 19.2 53.85 Q19.2 53.45 19.5 53.6 21.45 53.6 22.95 52.1 24.45 50.6 24.45 48.5 L24.45 32.3 16.05 40.7 Q14.75 41.95 14.9 43.65 14.75 45.25 16.05 46.5 L16.05 46.8 15.85 46.8 7.2 38.1 Q7.05 37.9 7.2 37.9 7.35 37.7 7.45 37.9 8.65 39.15 10.4 39.15 12.0 39.15 13.2 37.9 L21.65 29.5 5.45 29.5 Q3.35 29.45 1.85 30.9 0.35 32.45 0.5 34.45 L0.3 34.85 Q-0.1 34.85 0.05 34.45 L0.05 19.5 Q-0.1 19.1 0.3 19.25 L0.5 19.55 Q0.35 21.5 1.85 23.0 3.35 24.5 5.45 24.5 L21.65 24.5 13.2 16.1 Q12.0 14.95 10.4 14.95 8.65 14.95 7.45 16.1 L7.2 16.1 Q7.05 16.0 7.2 15.8 L15.85 7.25 Q16.0 7.05 16.05 7.25 L16.05 7.5 Q14.75 8.7 14.9 10.4 14.75 12.0 16.05 13.25 L24.45 21.7 24.45 5.45 Q24.45 3.35 22.95 1.85 21.45 0.35 19.5 0.5 L19.2 0.25 Q19.05 -0.1 19.45 0.05 L34.35 0.05 Q34.75 -0.1 34.75 0.25 L34.35 0.5 Q32.35 0.35 30.85 1.85 29.35 3.35 29.4 5.45 L29.4 21.7 37.85 13.25 Q39.05 12.0 39.05 10.4 39.05 8.7 37.85 7.5 37.6 7.4 37.75 7.25 37.85 7.05 38.0 7.25 L46.65 15.8" fill="#000000" fill-rule="evenodd" stroke="none"/>
    </g>
  </defs>
</svg>
