<?xml version="1.0" encoding="UTF-8" standalone="no"?>
<svg xmlns:ffdec="https://www.free-decompiler.com/flash" xmlns:xlink="http://www.w3.org/1999/xlink" ffdec:objectType="frame" height="56.0px" width="56.0px" xmlns="http://www.w3.org/2000/svg">
  <g transform="matrix(1.0, 0.0, 0.0, 1.0, 0.0, 0.0)">
    <use ffdec:characterId="2" height="55.25" id="back" transform="matrix(1.0, 0.0, 0.0, 1.0, 0.35, 0.3)" width="55.35" xlink:href="#sprite0"/>
    <use ffdec:characterId="4" height="53.75" id="up" transform="matrix(1.0, 0.0, 0.0, 1.0, 1.1, 1.05)" width="53.85" xlink:href="#sprite1"/>
  </g>
  <defs>
    <g id="sprite0" transform="matrix(1.0, 0.0, 0.0, 1.0, 0.75, 0.75)">
      <use ffdec:characterId="1" height="55.25" transform="matrix(1.0, 0.0, 0.0, 1.0, -0.75, -0.75)" width="55.35" xlink:href="#shape0"/>
    </g>
    <g id="shape0" transform="matrix(1.0, 0.0, 0.0, 1.0, 0.75, 0.75)">
      <path d="M44.3 44.45 L43.55 48.85 48.0 49.55 51.45 49.0 51.05 51.35 48.5 51.7 44.7 51.35 41.1 51.0 Q39.5 51.0 37.35 51.85 39.2 46.1 41.1 36.15 L43.55 23.8 Q45.1 15.8 46.25 12.85 43.7 16.45 38.35 26.3 34.05 34.35 28.8 46.5 L25.95 52.65 23.4 9.05 Q22.6 20.1 20.4 29.6 18.2 39.05 15.3 44.35 12.5 49.55 9.5 51.7 6.55 53.75 3.6 53.75 1.9 53.75 0.9 52.8 0.0 51.95 0.0 50.65 0.0 49.55 0.65 48.65 1.35 47.9 2.45 47.9 L4.6 48.35 6.8 48.75 Q8.25 48.75 9.9 47.3 12.35 45.2 14.75 39.8 17.1 34.35 19.1 24.65 20.95 14.95 21.5 5.7 14.25 5.7 9.7 10.25 6.1 13.85 6.1 18.4 6.1 20.35 7.8 23.15 8.7 24.65 8.7 25.55 8.7 26.6 8.15 27.25 7.6 27.95 6.9 27.95 5.7 27.95 4.75 26.25 3.45 23.8 3.45 20.65 3.45 16.0 5.9 11.7 8.35 7.5 12.65 5.35 16.95 3.1 22.8 3.1 25.85 3.1 27.75 2.35 L27.7 6.2 27.75 7.85 29.65 38.75 Q37.35 21.65 44.7 10.6 49.95 2.8 53.85 0.0 51.65 7.8 49.05 20.25 L45.2 39.7 44.3 44.45 Z" fill="none" stroke="#000000" stroke-linecap="round" stroke-linejoin="round" stroke-opacity="0.2" stroke-width="1.5"/>
    </g>
    <g id="sprite1" transform="matrix(1.0, 0.0, 0.0, 1.0, 0.0, 0.0)">
      <use ffdec:characterId="3" height="53.75" transform="matrix(1.0, 0.0, 0.0, 1.0, 0.0, 0.0)" width="53.85" xlink:href="#shape1"/>
    </g>
    <g id="shape1" transform="matrix(1.0, 0.0, 0.0, 1.0, 0.0, 0.0)">
      <path d="M44.3 44.45 L43.55 48.85 48.0 49.55 51.45 49.0 51.05 51.35 48.5 51.7 44.7 51.35 41.1 51.0 Q39.5 51.0 37.35 51.85 39.2 46.1 41.1 36.15 L43.55 23.8 Q45.1 15.8 46.25 12.85 43.7 16.45 38.35 26.3 34.05 34.35 28.8 46.5 L25.95 52.65 23.4 9.05 Q22.6 20.1 20.4 29.6 18.2 39.05 15.3 44.35 12.5 49.55 9.5 51.7 6.55 53.75 3.6 53.75 1.9 53.75 0.9 52.8 0.0 51.95 0.0 50.65 0.0 49.55 0.65 48.65 1.35 47.9 2.45 47.9 L4.6 48.35 6.8 48.75 Q8.25 48.75 9.9 47.3 12.35 45.2 14.75 39.8 17.1 34.35 19.1 24.65 20.95 14.95 21.5 5.7 14.25 5.7 9.7 10.25 6.1 13.85 6.1 18.4 6.1 20.35 7.8 23.15 8.7 24.65 8.7 25.55 8.7 26.6 8.15 27.25 7.6 27.95 6.9 27.95 5.7 27.95 4.75 26.25 3.45 23.8 3.45 20.65 3.45 16.0 5.9 11.7 8.35 7.5 12.65 5.35 16.95 3.1 22.8 3.1 25.85 3.1 27.75 2.35 L27.7 6.2 27.75 7.85 29.65 38.75 Q37.35 21.65 44.7 10.6 49.95 2.8 53.85 0.0 51.65 7.8 49.05 20.25 L45.2 39.7 44.3 44.45" fill="#000000" fill-rule="evenodd" stroke="none"/>
    </g>
  </defs>
</svg>
