<?xml version="1.0" encoding="UTF-8" standalone="no"?>
<svg xmlns:ffdec="https://www.free-decompiler.com/flash" xmlns:xlink="http://www.w3.org/1999/xlink" ffdec:objectType="frame" height="56.0px" width="56.0px" xmlns="http://www.w3.org/2000/svg">
  <g transform="matrix(1.0, 0.0, 0.0, 1.0, 0.0, 0.0)">
    <use ffdec:characterId="2" height="56.0" id="back" transform="matrix(1.0, 0.0, 0.0, 1.0, 0.0, 0.0)" width="56.0" xlink:href="#sprite0"/>
    <use ffdec:characterId="4" height="42.45" id="back" transform="matrix(1.0, 0.0, 0.0, 1.0, 0.35, 6.65)" width="55.35" xlink:href="#sprite1"/>
    <use ffdec:characterId="6" height="40.95" id="up" transform="matrix(1.0, 0.0, 0.0, 1.0, 1.1, 7.4)" width="53.85" xlink:href="#sprite2"/>
  </g>
  <defs>
    <g id="sprite0" transform="matrix(1.0, 0.0, 0.0, 1.0, 0.0, 0.0)">
      <use ffdec:characterId="1" height="56.0" transform="matrix(1.0, 0.0, 0.0, 1.0, 0.0, 0.0)" width="56.0" xlink:href="#shape0"/>
    </g>
    <g id="shape0" transform="matrix(1.0, 0.0, 0.0, 1.0, 0.0, 0.0)">
      <path d="M56.0 56.0 L0.0 56.0 0.0 0.0 56.0 0.0 56.0 56.0" fill="#010101" fill-opacity="0.0" fill-rule="evenodd" stroke="none"/>
    </g>
    <g id="sprite1" transform="matrix(1.0, 0.0, 0.0, 1.0, 0.75, 0.75)">
      <use ffdec:characterId="3" height="42.45" transform="matrix(1.0, 0.0, 0.0, 1.0, -0.75, -0.75)" width="55.35" xlink:href="#shape1"/>
    </g>
    <g id="shape1" transform="matrix(1.0, 0.0, 0.0, 1.0, 0.75, 0.75)">
      <path d="M52.8 0.8 Q53.85 1.55 53.85 2.6 53.85 3.35 53.2 3.9 52.65 4.5 51.95 4.5 L50.65 4.2 48.8 3.6 47.6 3.35 Q46.1 3.35 45.0 4.35 43.15 6.2 40.85 13.2 38.6 20.35 35.1 35.9 L34.05 40.4 Q30.6 32.8 29.4 29.6 27.8 25.4 25.75 18.75 L22.3 8.25 Q21.7 11.9 19.5 20.6 L16.8 30.5 Q15.4 34.6 13.8 36.75 12.2 39.05 10.25 39.95 8.3 40.95 6.0 40.95 3.2 40.95 1.35 39.75 0.0 38.8 0.0 37.3 0.0 36.7 0.5 36.25 1.05 35.7 1.8 35.7 2.65 35.7 3.8 36.7 5.7 38.5 7.3 38.5 9.15 38.5 10.75 37.0 13.25 34.55 15.6 26.95 18.35 17.85 21.0 3.8 L16.9 4.3 Q13.85 4.95 11.95 6.2 9.85 7.2 8.75 9.0 7.7 10.75 7.7 12.65 7.7 13.65 8.0 14.65 L8.7 16.35 Q9.4 17.4 9.4 18.0 9.4 18.7 8.9 19.3 8.3 19.75 7.55 19.75 6.45 19.75 5.6 18.6 4.7 17.35 4.7 14.95 4.7 10.85 6.85 7.95 8.85 5.05 12.25 3.65 14.55 2.75 20.8 1.95 L25.15 1.15 26.0 4.65 Q27.1 9.55 28.35 13.2 L34.35 30.05 36.1 22.65 38.45 13.2 Q40.15 7.65 41.75 4.95 43.35 2.3 45.25 1.25 47.25 0.0 49.65 0.0 51.7 0.0 52.8 0.8 Z" fill="none" stroke="#000000" stroke-linecap="round" stroke-linejoin="round" stroke-opacity="0.2" stroke-width="1.5"/>
    </g>
    <g id="sprite2" transform="matrix(1.0, 0.0, 0.0, 1.0, 0.0, 0.0)">
      <use ffdec:characterId="5" height="40.95" transform="matrix(1.0, 0.0, 0.0, 1.0, 0.0, 0.0)" width="53.85" xlink:href="#shape2"/>
    </g>
    <g id="shape2" transform="matrix(1.0, 0.0, 0.0, 1.0, 0.0, 0.0)">
      <path d="M52.8 0.8 Q53.85 1.55 53.85 2.6 53.85 3.35 53.2 3.9 52.65 4.5 51.95 4.5 L50.65 4.2 48.8 3.6 47.6 3.35 Q46.1 3.35 45.0 4.35 43.15 6.2 40.85 13.2 38.6 20.35 35.1 35.9 L34.05 40.4 Q30.6 32.8 29.4 29.6 27.8 25.4 25.75 18.75 L22.3 8.25 Q21.7 11.9 19.5 20.6 L16.8 30.5 Q15.4 34.6 13.8 36.75 12.2 39.05 10.25 39.95 8.3 40.95 6.0 40.95 3.2 40.95 1.35 39.75 0.0 38.8 0.0 37.3 0.0 36.7 0.5 36.25 1.05 35.7 1.8 35.7 2.65 35.7 3.8 36.7 5.7 38.5 7.3 38.5 9.15 38.5 10.75 37.0 13.25 34.55 15.6 26.95 18.35 17.85 21.0 3.8 L16.9 4.3 Q13.85 4.95 11.95 6.2 9.85 7.2 8.75 9.0 7.7 10.75 7.7 12.65 7.7 13.65 8.0 14.65 L8.7 16.35 Q9.4 17.4 9.4 18.0 9.4 18.7 8.9 19.3 8.3 19.75 7.55 19.75 6.45 19.75 5.6 18.6 4.7 17.35 4.7 14.95 4.7 10.85 6.85 7.95 8.85 5.05 12.25 3.65 14.55 2.75 20.8 1.95 L25.15 1.15 26.0 4.65 Q27.1 9.55 28.35 13.2 L34.35 30.05 36.1 22.65 38.45 13.2 Q40.15 7.65 41.75 4.95 43.35 2.3 45.25 1.25 47.25 0.0 49.65 0.0 51.7 0.0 52.8 0.8" fill="#000000" fill-rule="evenodd" stroke="none"/>
    </g>
  </defs>
</svg>
