<?xml version="1.0" encoding="UTF-8" standalone="no"?>
<svg xmlns:ffdec="https://www.free-decompiler.com/flash" xmlns:xlink="http://www.w3.org/1999/xlink" ffdec:objectType="frame" height="56.0px" width="56.0px" xmlns="http://www.w3.org/2000/svg">
  <g transform="matrix(1.0, 0.0, 0.0, 1.0, 0.0, 0.0)">
    <use ffdec:characterId="3" ffdec:characterName="261_fla.Symbole10_1" height="56.0" id="back" transform="matrix(1.0, 0.0, 0.0, 1.0, 0.0, 0.0)" width="56.0" xlink:href="#sprite0"/>
    <use ffdec:characterId="5" height="55.25" id="back" transform="matrix(1.0, 0.0, 0.0, 1.0, 2.35, 0.3)" width="51.25" xlink:href="#sprite2"/>
    <use ffdec:characterId="7" height="53.75" id="up" transform="matrix(1.0, 0.0, 0.0, 1.0, 3.1, 1.0)" width="49.75" xlink:href="#sprite3"/>
  </g>
  <defs>
    <g id="sprite0" transform="matrix(1.0, 0.0, 0.0, 1.0, 0.0, 0.0)">
      <use ffdec:characterId="2" height="56.0" id="back" transform="matrix(1.0, 0.0, 0.0, 1.0, 0.0, 0.0)" width="56.0" xlink:href="#sprite1"/>
    </g>
    <g id="sprite1" transform="matrix(1.0, 0.0, 0.0, 1.0, 0.0, 0.0)">
      <use ffdec:characterId="1" height="56.0" transform="matrix(1.0, 0.0, 0.0, 1.0, 0.0, 0.0)" width="56.0" xlink:href="#shape0"/>
    </g>
    <g id="shape0" transform="matrix(1.0, 0.0, 0.0, 1.0, 0.0, 0.0)">
      <path d="M56.0 56.0 L0.0 56.0 0.0 0.0 56.0 0.0 56.0 56.0" fill="#010101" fill-opacity="0.0" fill-rule="evenodd" stroke="none"/>
    </g>
    <g id="sprite2" transform="matrix(1.0, 0.0, 0.0, 1.0, 0.75, 0.75)">
      <use ffdec:characterId="4" height="55.25" transform="matrix(1.0, 0.0, 0.0, 1.0, -0.75, -0.75)" width="51.25" xlink:href="#shape1"/>
    </g>
    <g id="shape1" transform="matrix(1.0, 0.0, 0.0, 1.0, 0.75, 0.75)">
      <path d="M37.55 8.1 Q33.25 3.15 27.15 3.15 22.1 3.15 17.75 6.15 13.55 9.15 10.75 15.5 8.0 21.9 8.0 30.45 8.0 40.1 12.35 45.2 16.55 50.55 22.9 50.55 27.7 50.55 31.95 47.35 36.15 44.25 38.95 37.65 41.65 30.85 41.65 22.15 41.65 13.2 37.55 8.1 M47.3 9.9 Q49.75 14.6 49.75 20.95 49.75 29.2 45.35 37.25 40.95 45.5 34.45 49.65 28.1 53.75 20.2 53.75 11.2 53.75 5.65 48.1 0.0 42.5 0.0 33.2 0.0 24.55 4.55 16.25 8.95 8.1 15.4 4.0 21.9 0.0 30.4 0.0 35.95 0.0 40.35 2.5 44.9 5.05 47.3 9.9 Z" fill="none" stroke="#000000" stroke-linecap="round" stroke-linejoin="round" stroke-opacity="0.2" stroke-width="1.5"/>
    </g>
    <g id="sprite3" transform="matrix(1.0, 0.0, 0.0, 1.0, 0.0, 0.0)">
      <use ffdec:characterId="6" height="53.75" transform="matrix(1.0, 0.0, 0.0, 1.0, 0.0, 0.0)" width="49.75" xlink:href="#shape2"/>
    </g>
    <g id="shape2" transform="matrix(1.0, 0.0, 0.0, 1.0, 0.0, 0.0)">
      <path d="M47.3 9.95 Q49.75 14.6 49.75 21.0 49.75 29.2 45.35 37.3 40.9 45.5 34.45 49.65 28.05 53.75 20.2 53.75 11.2 53.75 5.65 48.15 0.0 42.5 0.0 33.25 0.0 24.55 4.5 16.3 8.95 8.15 15.4 4.05 21.85 0.0 30.4 0.0 35.95 0.0 40.35 2.55 44.85 5.05 47.3 9.95 M37.55 8.15 Q33.25 3.2 27.15 3.2 22.05 3.2 17.75 6.2 13.55 9.2 10.7 15.55 8.0 21.9 8.0 30.45 8.0 40.1 12.3 45.25 16.55 50.6 22.9 50.6 27.7 50.6 31.9 47.4 36.15 44.3 38.95 37.65 41.65 30.9 41.65 22.2 41.65 13.2 37.55 8.15" fill="#000000" fill-rule="evenodd" stroke="none"/>
    </g>
  </defs>
</svg>
