<?xml version="1.0" encoding="UTF-8" standalone="no"?>
<svg xmlns:ffdec="https://www.free-decompiler.com/flash" xmlns:xlink="http://www.w3.org/1999/xlink" ffdec:objectType="frame" height="56.0px" width="56.0px" xmlns="http://www.w3.org/2000/svg">
  <g transform="matrix(1.0, 0.0, 0.0, 1.0, 0.0, 0.0)">
    <use ffdec:characterId="4" ffdec:characterName="262_fla.Symbole13_1" height="56.0" id="back" transform="matrix(1.0, 0.0, 0.0, 1.0, 0.0, 0.0)" width="56.0" xlink:href="#sprite0"/>
    <use ffdec:characterId="6" height="55.25" id="back" transform="matrix(1.0, 0.0, 0.0, 1.0, 0.5, 0.3)" width="54.95" xlink:href="#sprite3"/>
    <use ffdec:characterId="8" height="53.75" id="up" transform="matrix(1.0, 0.0, 0.0, 1.0, 1.25, 1.05)" width="53.45" xlink:href="#sprite4"/>
  </g>
  <defs>
    <g id="sprite0" transform="matrix(1.0, 0.0, 0.0, 1.0, 0.0, 0.0)">
      <use ffdec:characterId="3" ffdec:characterName="262_fla.Symbole10_2" height="56.0" id="back" transform="matrix(1.0, 0.0, 0.0, 1.0, 0.0, 0.0)" width="56.0" xlink:href="#sprite1"/>
    </g>
    <g id="sprite1" transform="matrix(1.0, 0.0, 0.0, 1.0, 0.0, 0.0)">
      <use ffdec:characterId="2" height="56.0" id="back" transform="matrix(1.0, 0.0, 0.0, 1.0, 0.0, 0.0)" width="56.0" xlink:href="#sprite2"/>
    </g>
    <g id="sprite2" transform="matrix(1.0, 0.0, 0.0, 1.0, 0.0, 0.0)">
      <use ffdec:characterId="1" height="56.0" transform="matrix(1.0, 0.0, 0.0, 1.0, 0.0, 0.0)" width="56.0" xlink:href="#shape0"/>
    </g>
    <g id="shape0" transform="matrix(1.0, 0.0, 0.0, 1.0, 0.0, 0.0)">
      <path d="M56.0 56.0 L0.0 56.0 0.0 0.0 56.0 0.0 56.0 56.0" fill="#010101" fill-opacity="0.0" fill-rule="evenodd" stroke="none"/>
    </g>
    <g id="sprite3" transform="matrix(1.0, 0.0, 0.0, 1.0, 0.75, 0.75)">
      <use ffdec:characterId="5" height="55.25" transform="matrix(1.0, 0.0, 0.0, 1.0, -0.75, -0.75)" width="54.95" xlink:href="#shape1"/>
    </g>
    <g id="shape1" transform="matrix(1.0, 0.0, 0.0, 1.0, 0.75, 0.75)">
      <path d="M42.05 27.75 Q36.5 30.4 29.6 30.4 L26.35 30.2 22.75 43.9 20.75 50.7 Q24.3 51.6 26.8 51.6 30.0 51.6 33.65 50.3 L33.15 52.85 27.35 53.65 20.65 53.3 14.95 52.85 6.1 53.75 6.7 51.4 Q11.25 50.7 13.0 49.35 15.35 47.3 16.8 41.35 L23.5 14.95 23.9 12.35 Q23.9 11.65 23.3 11.2 22.75 10.55 22.0 10.55 L21.05 10.6 21.65 8.65 Q28.05 8.1 32.55 6.85 31.5 10.0 30.2 14.95 L26.85 27.35 30.95 27.65 Q33.75 27.75 37.05 26.25 40.45 24.7 43.0 20.8 45.65 16.85 45.65 12.45 45.65 8.0 42.5 5.4 39.25 2.75 32.75 2.75 25.2 2.75 18.05 6.5 10.9 10.2 6.9 16.1 3.0 21.8 3.0 27.45 3.0 30.2 4.15 32.25 5.05 34.3 7.7 36.3 9.85 37.85 9.85 39.4 9.85 40.3 9.1 41.0 8.45 41.65 7.5 41.65 4.85 41.65 2.4 38.05 0.0 34.5 0.0 29.05 0.0 19.1 7.6 10.8 17.7 0.0 34.6 0.0 41.0 0.0 45.15 1.7 49.3 3.4 51.45 6.3 53.45 9.1 53.45 12.55 53.45 16.85 50.55 21.05 47.7 25.2 42.05 27.75 Z" fill="none" stroke="#000000" stroke-linecap="round" stroke-linejoin="round" stroke-opacity="0.2" stroke-width="1.5"/>
    </g>
    <g id="sprite4" transform="matrix(1.0, 0.0, 0.0, 1.0, 0.0, 0.0)">
      <use ffdec:characterId="7" height="53.75" transform="matrix(1.0, 0.0, 0.0, 1.0, 0.0, 0.0)" width="53.45" xlink:href="#shape2"/>
    </g>
    <g id="shape2" transform="matrix(1.0, 0.0, 0.0, 1.0, 0.0, 0.0)">
      <path d="M42.05 27.75 Q36.5 30.35 29.65 30.35 L26.35 30.2 22.75 43.9 20.8 50.65 Q24.3 51.6 26.8 51.6 30.0 51.6 33.7 50.3 L33.15 52.85 27.4 53.7 20.7 53.3 14.95 52.85 6.1 53.75 6.65 51.4 Q11.3 50.65 13.0 49.35 15.35 47.3 16.85 41.35 L23.5 14.95 23.9 12.3 Q23.9 11.65 23.35 11.2 22.75 10.55 22.0 10.55 L21.1 10.65 21.65 8.65 Q28.05 8.1 32.55 6.85 L30.2 14.95 26.9 27.35 30.95 27.65 Q33.8 27.75 37.1 26.25 40.45 24.75 43.0 20.8 45.65 16.85 45.65 12.4 45.65 8.0 42.55 5.35 39.25 2.75 32.75 2.75 25.2 2.75 18.05 6.5 10.9 10.15 6.95 16.1 3.0 21.8 3.0 27.45 3.0 30.2 4.15 32.25 5.05 34.3 7.7 36.3 9.85 37.9 9.85 39.4 9.85 40.35 9.1 41.0 8.45 41.65 7.5 41.65 4.9 41.65 2.45 38.05 0.0 34.5 0.0 29.05 0.0 19.1 7.6 10.8 17.7 0.0 34.65 0.0 41.05 0.0 45.2 1.7 49.3 3.4 51.5 6.3 53.45 9.15 53.45 12.5 53.45 16.85 50.55 21.05 47.7 25.2 42.05 27.75" fill="#000000" fill-rule="evenodd" stroke="none"/>
    </g>
  </defs>
</svg>
