<?xml version="1.0" encoding="UTF-8" standalone="no"?>
<svg xmlns:ffdec="https://www.free-decompiler.com/flash" xmlns:xlink="http://www.w3.org/1999/xlink" ffdec:objectType="frame" height="56.0px" width="56.0px" xmlns="http://www.w3.org/2000/svg">
  <g transform="matrix(1.0, 0.0, 0.0, 1.0, 0.0, 0.0)">
    <use ffdec:characterId="5" ffdec:characterName="263_fla.Symbole16_1" height="56.0" id="back" transform="matrix(1.0, 0.0, 0.0, 1.0, 0.0, 0.0)" width="56.0" xlink:href="#sprite0"/>
    <use ffdec:characterId="7" height="55.25" id="back" transform="matrix(1.0, 0.0, 0.0, 1.0, 4.4, 0.3)" width="47.0" xlink:href="#sprite4"/>
    <use ffdec:characterId="9" height="53.75" id="up" transform="matrix(1.0, 0.0, 0.0, 1.0, 5.15, 1.05)" width="45.5" xlink:href="#sprite5"/>
  </g>
  <defs>
    <g id="sprite0" transform="matrix(1.0, 0.0, 0.0, 1.0, 0.0, 0.0)">
      <use ffdec:characterId="4" ffdec:characterName="263_fla.Symbole13_2" height="56.0" id="back" transform="matrix(1.0, 0.0, 0.0, 1.0, 0.0, 0.0)" width="56.0" xlink:href="#sprite1"/>
    </g>
    <g id="sprite1" transform="matrix(1.0, 0.0, 0.0, 1.0, 0.0, 0.0)">
      <use ffdec:characterId="3" ffdec:characterName="263_fla.Symbole10_3" height="56.0" id="back" transform="matrix(1.0, 0.0, 0.0, 1.0, 0.0, 0.0)" width="56.0" xlink:href="#sprite2"/>
    </g>
    <g id="sprite2" transform="matrix(1.0, 0.0, 0.0, 1.0, 0.0, 0.0)">
      <use ffdec:characterId="2" height="56.0" id="back" transform="matrix(1.0, 0.0, 0.0, 1.0, 0.0, 0.0)" width="56.0" xlink:href="#sprite3"/>
    </g>
    <g id="sprite3" transform="matrix(1.0, 0.0, 0.0, 1.0, 0.0, 0.0)">
      <use ffdec:characterId="1" height="56.0" transform="matrix(1.0, 0.0, 0.0, 1.0, 0.0, 0.0)" width="56.0" xlink:href="#shape0"/>
    </g>
    <g id="shape0" transform="matrix(1.0, 0.0, 0.0, 1.0, 0.0, 0.0)">
      <path d="M56.0 56.0 L0.0 56.0 0.0 0.0 56.0 0.0 56.0 56.0" fill="#010101" fill-opacity="0.0" fill-rule="evenodd" stroke="none"/>
    </g>
    <g id="sprite4" transform="matrix(1.0, 0.0, 0.0, 1.0, 0.75, 0.75)">
      <use ffdec:characterId="6" height="55.25" transform="matrix(1.0, 0.0, 0.0, 1.0, -0.75, -0.75)" width="47.0" xlink:href="#shape1"/>
    </g>
    <g id="shape1" transform="matrix(1.0, 0.0, 0.0, 1.0, 0.75, 0.75)">
      <path d="M43.95 46.6 Q44.5 46.6 45.05 47.2 45.5 47.7 45.5 48.3 45.5 49.95 42.9 51.55 39.4 53.75 34.9 53.75 L29.95 53.1 Q27.3 52.15 25.0 50.65 22.65 48.95 18.65 44.85 L14.0 40.15 11.65 38.55 Q11.2 38.1 8.95 37.3 4.5 35.5 2.2 32.0 0.0 28.5 0.0 23.7 0.0 15.2 5.85 7.6 11.65 0.0 20.95 0.0 25.3 0.0 28.45 1.65 31.7 3.55 33.45 6.9 35.3 10.3 35.3 14.7 35.3 22.25 30.4 29.35 25.4 36.5 17.85 37.85 L23.05 42.9 Q27.45 47.25 29.15 48.5 31.55 50.35 33.25 51.0 35.15 51.7 36.55 51.7 L38.85 51.3 40.6 50.1 Q41.15 49.75 41.85 48.2 42.6 46.6 43.95 46.6 M26.6 5.75 Q23.6 2.2 19.2 2.2 15.6 2.2 12.5 4.25 9.55 6.45 7.55 11.0 5.55 15.55 5.55 21.55 5.55 28.4 8.65 32.1 11.65 35.8 16.3 35.8 19.65 35.8 22.65 33.6 25.65 31.45 27.6 26.65 29.6 21.85 29.6 15.7 29.6 9.35 26.6 5.75 Z" fill="none" stroke="#000000" stroke-linecap="round" stroke-linejoin="round" stroke-opacity="0.2" stroke-width="1.5"/>
    </g>
    <g id="sprite5" transform="matrix(1.0, 0.0, 0.0, 1.0, 0.0, 0.0)">
      <use ffdec:characterId="8" height="53.75" transform="matrix(1.0, 0.0, 0.0, 1.0, 0.0, 0.0)" width="45.5" xlink:href="#shape2"/>
    </g>
    <g id="shape2" transform="matrix(1.0, 0.0, 0.0, 1.0, 0.0, 0.0)">
      <path d="M43.95 46.6 Q44.55 46.6 45.05 47.2 45.5 47.7 45.5 48.3 45.5 50.0 42.9 51.55 39.4 53.75 34.9 53.75 L29.95 53.1 Q27.3 52.2 25.0 50.65 22.65 48.95 18.65 44.8 L14.0 40.15 11.7 38.55 Q11.15 38.1 8.95 37.3 4.5 35.5 2.2 32.05 0.0 28.5 0.0 23.7 0.0 15.2 5.85 7.6 11.6 0.0 20.95 0.0 25.3 0.0 28.5 1.6 31.65 3.55 33.45 6.95 35.3 10.35 35.3 14.7 35.3 22.3 30.4 29.3 25.35 36.55 17.85 37.9 L23.1 42.9 Q27.45 47.25 29.15 48.5 31.5 50.35 33.3 51.0 L36.55 51.7 38.85 51.3 40.6 50.15 41.85 48.2 Q42.6 46.6 43.95 46.6 M26.55 5.75 Q23.6 2.2 19.25 2.2 15.6 2.2 12.5 4.3 9.55 6.4 7.55 11.0 5.55 15.6 5.55 21.55 5.55 28.45 8.65 32.1 11.7 35.8 16.25 35.8 19.65 35.8 22.65 33.6 25.65 31.45 27.6 26.65 29.6 21.85 29.6 15.7 29.6 9.35 26.55 5.75" fill="#000000" fill-rule="evenodd" stroke="none"/>
    </g>
  </defs>
</svg>
