<?xml version="1.0" encoding="UTF-8" standalone="no"?>
<svg xmlns:ffdec="https://www.free-decompiler.com/flash" xmlns:xlink="http://www.w3.org/1999/xlink" ffdec:objectType="frame" height="56.0px" width="56.0px" xmlns="http://www.w3.org/2000/svg">
  <g transform="matrix(1.0, 0.0, 0.0, 1.0, 0.0, 0.0)">
    <use ffdec:characterId="6" ffdec:characterName="264_fla.Symbole19_1" height="56.0" id="back" transform="matrix(1.0, 0.0, 0.0, 1.0, 0.0, 0.0)" width="56.0" xlink:href="#sprite0"/>
    <use ffdec:characterId="8" height="55.25" id="back" transform="matrix(1.0, 0.0, 0.0, 1.0, 0.8, 0.3)" width="54.2" xlink:href="#sprite5"/>
    <use ffdec:characterId="10" height="53.8" id="up" transform="matrix(1.0, 0.0, 0.0, 1.0, 1.5, 1.05)" width="52.7" xlink:href="#sprite6"/>
  </g>
  <defs>
    <g id="sprite0" transform="matrix(1.0, 0.0, 0.0, 1.0, 0.0, 0.0)">
      <use ffdec:characterId="5" ffdec:characterName="264_fla.Symbole16_2" height="56.0" id="back" transform="matrix(1.0, 0.0, 0.0, 1.0, 0.0, 0.0)" width="56.0" xlink:href="#sprite1"/>
    </g>
    <g id="sprite1" transform="matrix(1.0, 0.0, 0.0, 1.0, 0.0, 0.0)">
      <use ffdec:characterId="4" ffdec:characterName="264_fla.Symbole13_3" height="56.0" id="back" transform="matrix(1.0, 0.0, 0.0, 1.0, 0.0, 0.0)" width="56.0" xlink:href="#sprite2"/>
    </g>
    <g id="sprite2" transform="matrix(1.0, 0.0, 0.0, 1.0, 0.0, 0.0)">
      <use ffdec:characterId="3" ffdec:characterName="264_fla.Symbole10_4" height="56.0" id="back" transform="matrix(1.0, 0.0, 0.0, 1.0, 0.0, 0.0)" width="56.0" xlink:href="#sprite3"/>
    </g>
    <g id="sprite3" transform="matrix(1.0, 0.0, 0.0, 1.0, 0.0, 0.0)">
      <use ffdec:characterId="2" height="56.0" id="back" transform="matrix(1.0, 0.0, 0.0, 1.0, 0.0, 0.0)" width="56.0" xlink:href="#sprite4"/>
    </g>
    <g id="sprite4" transform="matrix(1.0, 0.0, 0.0, 1.0, 0.0, 0.0)">
      <use ffdec:characterId="1" height="56.0" transform="matrix(1.0, 0.0, 0.0, 1.0, 0.0, 0.0)" width="56.0" xlink:href="#shape0"/>
    </g>
    <g id="shape0" transform="matrix(1.0, 0.0, 0.0, 1.0, 0.0, 0.0)">
      <path d="M56.0 56.0 L0.0 56.0 0.0 0.0 56.0 0.0 56.0 56.0" fill="#010101" fill-opacity="0.0" fill-rule="evenodd" stroke="none"/>
    </g>
    <g id="sprite5" transform="matrix(1.0, 0.0, 0.0, 1.0, 0.75, 0.75)">
      <use ffdec:characterId="7" height="55.25" transform="matrix(1.0, 0.0, 0.0, 1.0, -0.75, -0.75)" width="54.2" xlink:href="#shape1"/>
    </g>
    <g id="shape1" transform="matrix(1.0, 0.0, 0.0, 1.0, 0.75, 0.75)">
      <path d="M50.6 45.5 Q51.45 45.5 52.05 46.1 52.7 46.7 52.7 47.55 52.7 49.8 50.25 51.75 47.8 53.75 43.9 53.75 40.45 53.75 37.35 52.1 34.15 50.45 31.2 46.65 28.2 42.8 25.95 37.5 24.85 34.85 22.75 27.7 L21.15 22.5 20.25 22.45 19.3 22.5 14.6 41.35 17.35 41.7 21.15 41.1 20.75 42.9 17.1 43.35 13.05 43.15 9.1 42.9 2.5 43.7 3.0 41.7 Q6.95 40.7 8.1 39.7 9.85 38.2 10.85 34.35 L15.9 14.4 16.8 10.0 Q16.8 9.3 16.35 9.0 L14.6 8.7 15.05 7.0 Q18.65 6.95 23.65 5.65 L22.6 9.7 19.85 20.15 22.75 20.55 Q27.15 20.55 30.3 17.4 33.55 14.3 33.55 10.1 33.55 6.7 31.05 4.6 28.45 2.45 24.1 2.45 18.45 2.45 13.15 5.15 7.8 7.85 5.15 11.9 2.5 15.85 2.5 20.25 2.5 23.5 5.2 25.95 6.55 27.05 6.9 27.7 L7.2 28.85 Q7.2 29.5 6.65 30.15 6.15 30.65 5.25 30.65 3.4 30.65 1.85 28.35 0.0 25.5 0.0 21.2 0.0 15.75 2.9 11.0 6.0 6.25 12.25 3.1 18.3 0.0 25.1 0.0 31.5 0.0 35.6 2.45 39.65 4.8 39.65 9.45 39.65 13.85 36.0 17.65 32.15 21.4 25.55 22.5 L27.7 26.95 29.9 33.4 Q33.55 44.1 37.45 48.4 40.25 51.65 43.6 51.65 47.0 51.65 47.9 48.6 48.55 46.65 49.1 46.15 49.7 45.5 50.6 45.5 Z" fill="none" stroke="#000000" stroke-linecap="round" stroke-linejoin="round" stroke-opacity="0.2" stroke-width="1.5"/>
    </g>
    <g id="sprite6" transform="matrix(1.0, 0.0, 0.0, 1.0, 0.0, 0.0)">
      <use ffdec:characterId="9" height="53.8" transform="matrix(1.0, 0.0, 0.0, 1.0, 0.0, 0.0)" width="52.7" xlink:href="#shape2"/>
    </g>
    <g id="shape2" transform="matrix(1.0, 0.0, 0.0, 1.0, 0.0, 0.0)">
      <path d="M50.65 45.5 Q51.45 45.5 52.1 46.1 52.7 46.7 52.7 47.55 52.7 49.85 50.25 51.75 47.8 53.8 43.95 53.8 40.5 53.8 37.4 52.1 34.2 50.45 31.2 46.65 28.25 42.85 25.95 37.5 24.9 34.85 22.75 27.7 21.55 23.35 21.15 22.55 L20.3 22.45 19.35 22.55 14.6 41.4 17.35 41.7 21.15 41.1 20.8 42.9 17.15 43.35 13.1 43.15 9.15 42.9 2.5 43.65 3.05 41.7 Q7.0 40.7 8.15 39.7 9.9 38.2 10.9 34.4 L15.9 14.4 16.8 10.0 Q16.8 9.3 16.35 9.0 L14.6 8.7 15.05 7.0 Q18.65 6.95 23.7 5.65 23.2 7.0 22.6 9.7 L19.85 20.15 22.75 20.55 Q27.2 20.55 30.4 17.45 33.6 14.3 33.6 10.05 33.6 6.7 31.05 4.6 28.45 2.45 24.15 2.45 18.5 2.45 13.15 5.1 7.85 7.85 5.15 11.9 2.5 15.85 2.5 20.25 2.5 23.5 5.25 25.95 L6.9 27.7 7.25 28.85 Q7.25 29.5 6.7 30.15 6.15 30.65 5.3 30.65 3.4 30.65 1.9 28.4 0.0 25.5 0.0 21.25 0.0 15.75 2.95 10.95 6.0 6.25 12.25 3.15 18.35 0.0 25.1 0.0 31.5 0.0 35.65 2.45 39.65 4.8 39.65 9.45 39.65 13.85 36.0 17.65 32.2 21.4 25.6 22.55 L27.7 26.95 29.9 33.4 Q33.6 44.1 37.45 48.4 40.3 51.65 43.65 51.65 47.05 51.65 47.95 48.6 48.6 46.65 49.1 46.2 49.7 45.5 50.65 45.5" fill="#000000" fill-rule="evenodd" stroke="none"/>
    </g>
  </defs>
</svg>
