<?xml version="1.0" encoding="UTF-8" standalone="no"?>
<svg xmlns:ffdec="https://www.free-decompiler.com/flash" xmlns:xlink="http://www.w3.org/1999/xlink" ffdec:objectType="frame" height="56.0px" width="56.0px" xmlns="http://www.w3.org/2000/svg">
  <g transform="matrix(1.0, 0.0, 0.0, 1.0, 0.0, 0.0)">
    <use ffdec:characterId="7" ffdec:characterName="265_fla.Symbole22_1" height="56.0" id="back" transform="matrix(1.0, 0.0, 0.0, 1.0, 0.0, 0.0)" width="56.0" xlink:href="#sprite0"/>
    <use ffdec:characterId="9" height="55.25" id="back" transform="matrix(1.0, 0.0, 0.0, 1.0, 6.0, 0.3)" width="43.9" xlink:href="#sprite6"/>
    <use ffdec:characterId="11" height="53.75" id="up" transform="matrix(1.0, 0.0, 0.0, 1.0, 6.7, 1.0)" width="42.4" xlink:href="#sprite7"/>
  </g>
  <defs>
    <g id="sprite0" transform="matrix(1.0, 0.0, 0.0, 1.0, 0.0, 0.0)">
      <use ffdec:characterId="6" ffdec:characterName="265_fla.Symbole19_2" height="56.0" id="back" transform="matrix(1.0, 0.0, 0.0, 1.0, 0.0, 0.0)" width="56.0" xlink:href="#sprite1"/>
    </g>
    <g id="sprite1" transform="matrix(1.0, 0.0, 0.0, 1.0, 0.0, 0.0)">
      <use ffdec:characterId="5" ffdec:characterName="265_fla.Symbole16_3" height="56.0" id="back" transform="matrix(1.0, 0.0, 0.0, 1.0, 0.0, 0.0)" width="56.0" xlink:href="#sprite2"/>
    </g>
    <g id="sprite2" transform="matrix(1.0, 0.0, 0.0, 1.0, 0.0, 0.0)">
      <use ffdec:characterId="4" ffdec:characterName="265_fla.Symbole13_4" height="56.0" id="back" transform="matrix(1.0, 0.0, 0.0, 1.0, 0.0, 0.0)" width="56.0" xlink:href="#sprite3"/>
    </g>
    <g id="sprite3" transform="matrix(1.0, 0.0, 0.0, 1.0, 0.0, 0.0)">
      <use ffdec:characterId="3" ffdec:characterName="265_fla.Symbole10_5" height="56.0" id="back" transform="matrix(1.0, 0.0, 0.0, 1.0, 0.0, 0.0)" width="56.0" xlink:href="#sprite4"/>
    </g>
    <g id="sprite4" transform="matrix(1.0, 0.0, 0.0, 1.0, 0.0, 0.0)">
      <use ffdec:characterId="2" height="56.0" id="back" transform="matrix(1.0, 0.0, 0.0, 1.0, 0.0, 0.0)" width="56.0" xlink:href="#sprite5"/>
    </g>
    <g id="sprite5" transform="matrix(1.0, 0.0, 0.0, 1.0, 0.0, 0.0)">
      <use ffdec:characterId="1" height="56.0" transform="matrix(1.0, 0.0, 0.0, 1.0, 0.0, 0.0)" width="56.0" xlink:href="#shape0"/>
    </g>
    <g id="shape0" transform="matrix(1.0, 0.0, 0.0, 1.0, 0.0, 0.0)">
      <path d="M56.0 56.0 L0.0 56.0 0.0 0.0 56.0 0.0 56.0 56.0" fill="#010101" fill-opacity="0.0" fill-rule="evenodd" stroke="none"/>
    </g>
    <g id="sprite6" transform="matrix(1.0, 0.0, 0.0, 1.0, 0.75, 0.75)">
      <use ffdec:characterId="8" height="55.25" transform="matrix(1.0, 0.0, 0.0, 1.0, -0.75, -0.75)" width="43.9" xlink:href="#shape1"/>
    </g>
    <g id="shape1" transform="matrix(1.0, 0.0, 0.0, 1.0, 0.75, 0.75)">
      <path d="M37.6 15.35 L38.1 9.0 Q38.1 5.9 36.4 4.2 34.7 2.4 31.95 2.4 27.5 2.4 24.25 5.5 21.0 8.7 21.0 12.7 21.0 14.75 21.85 16.45 22.75 18.2 25.8 21.3 31.4 26.8 33.2 30.05 35.05 33.1 35.05 36.1 35.05 40.45 32.3 44.45 29.65 48.5 24.5 51.1 19.3 53.75 13.55 53.75 7.8 53.75 3.95 50.8 0.0 47.85 0.0 44.55 0.0 42.75 1.1 41.6 2.0 40.45 3.3 40.45 4.65 40.45 5.6 41.55 6.2 42.15 6.7 44.45 7.4 47.2 8.35 48.4 9.2 49.6 10.8 50.45 12.45 51.2 14.4 51.2 20.1 51.2 24.4 47.3 28.7 43.45 28.7 38.75 28.7 37.2 28.15 35.55 27.6 33.95 26.15 32.0 L21.75 27.2 17.4 22.6 Q16.2 20.75 15.6 18.95 14.95 17.15 14.95 15.35 14.95 11.65 17.4 7.9 19.9 4.35 23.85 2.1 27.65 0.0 32.65 0.0 L38.8 0.75 42.4 1.35 Q41.5 3.95 41.0 6.25 40.5 8.55 39.7 15.35 L37.6 15.35 Z" fill="none" stroke="#000000" stroke-linecap="round" stroke-linejoin="round" stroke-opacity="0.2" stroke-width="1.5"/>
    </g>
    <g id="sprite7" transform="matrix(1.0, 0.0, 0.0, 1.0, 0.0, 0.0)">
      <use ffdec:characterId="10" height="53.75" transform="matrix(1.0, 0.0, 0.0, 1.0, 0.0, 0.0)" width="42.4" xlink:href="#shape2"/>
    </g>
    <g id="shape2" transform="matrix(1.0, 0.0, 0.0, 1.0, 0.0, 0.0)">
      <path d="M37.6 15.35 L38.1 8.95 Q38.1 5.9 36.4 4.2 34.7 2.4 31.95 2.4 27.5 2.4 24.25 5.55 21.0 8.7 21.0 12.7 21.0 14.75 21.85 16.45 22.8 18.2 25.8 21.35 31.45 26.8 33.25 30.05 35.05 33.1 35.05 36.1 35.05 40.45 32.3 44.45 29.65 48.55 24.5 51.1 19.3 53.75 13.6 53.75 7.85 53.75 4.0 50.8 0.0 47.85 0.0 44.55 0.0 42.75 1.1 41.65 2.05 40.45 3.3 40.45 4.7 40.45 5.65 41.55 6.25 42.15 6.75 44.45 7.4 47.2 8.35 48.4 9.2 49.6 10.85 50.45 12.45 51.2 14.45 51.2 20.1 51.2 24.45 47.3 28.7 43.45 28.7 38.75 28.7 37.2 28.2 35.6 27.6 33.95 26.15 32.0 L21.8 27.25 Q18.35 23.8 17.45 22.6 16.25 20.75 15.65 18.95 14.95 17.15 14.95 15.35 14.95 11.7 17.45 7.95 19.9 4.35 23.85 2.15 27.7 0.0 32.65 0.0 L38.8 0.75 42.4 1.35 Q41.55 3.95 41.05 6.25 40.5 8.55 39.75 15.35 L37.6 15.35" fill="#000000" fill-rule="evenodd" stroke="none"/>
    </g>
  </defs>
</svg>
