<?xml version="1.0" encoding="UTF-8" standalone="no"?>
<svg xmlns:ffdec="https://www.free-decompiler.com/flash" xmlns:xlink="http://www.w3.org/1999/xlink" ffdec:objectType="frame" height="56.0px" width="56.0px" xmlns="http://www.w3.org/2000/svg">
  <g transform="matrix(1.0, 0.0, 0.0, 1.0, 0.0, 0.0)">
    <use ffdec:characterId="8" ffdec:characterName="266_fla.Symbole25_1" height="56.0" id="back" transform="matrix(1.0, 0.0, 0.0, 1.0, 0.0, 0.0)" width="56.0" xlink:href="#sprite0"/>
    <use ffdec:characterId="10" height="55.25" id="back" transform="matrix(1.0, 0.0, 0.0, 1.0, 1.05, 0.3)" width="53.95" xlink:href="#sprite7"/>
    <use ffdec:characterId="12" height="53.75" id="up" transform="matrix(1.0, 0.0, 0.0, 1.0, 1.85, 1.05)" width="52.4" xlink:href="#sprite8"/>
  </g>
  <defs>
    <g id="sprite0" transform="matrix(1.0, 0.0, 0.0, 1.0, 0.0, 0.0)">
      <use ffdec:characterId="7" ffdec:characterName="266_fla.Symbole22_2" height="56.0" id="back" transform="matrix(1.0, 0.0, 0.0, 1.0, 0.0, 0.0)" width="56.0" xlink:href="#sprite1"/>
    </g>
    <g id="sprite1" transform="matrix(1.0, 0.0, 0.0, 1.0, 0.0, 0.0)">
      <use ffdec:characterId="6" ffdec:characterName="266_fla.Symbole19_3" height="56.0" id="back" transform="matrix(1.0, 0.0, 0.0, 1.0, 0.0, 0.0)" width="56.0" xlink:href="#sprite2"/>
    </g>
    <g id="sprite2" transform="matrix(1.0, 0.0, 0.0, 1.0, 0.0, 0.0)">
      <use ffdec:characterId="5" ffdec:characterName="266_fla.Symbole16_4" height="56.0" id="back" transform="matrix(1.0, 0.0, 0.0, 1.0, 0.0, 0.0)" width="56.0" xlink:href="#sprite3"/>
    </g>
    <g id="sprite3" transform="matrix(1.0, 0.0, 0.0, 1.0, 0.0, 0.0)">
      <use ffdec:characterId="4" ffdec:characterName="266_fla.Symbole13_5" height="56.0" id="back" transform="matrix(1.0, 0.0, 0.0, 1.0, 0.0, 0.0)" width="56.0" xlink:href="#sprite4"/>
    </g>
    <g id="sprite4" transform="matrix(1.0, 0.0, 0.0, 1.0, 0.0, 0.0)">
      <use ffdec:characterId="3" ffdec:characterName="266_fla.Symbole10_6" height="56.0" id="back" transform="matrix(1.0, 0.0, 0.0, 1.0, 0.0, 0.0)" width="56.0" xlink:href="#sprite5"/>
    </g>
    <g id="sprite5" transform="matrix(1.0, 0.0, 0.0, 1.0, 0.0, 0.0)">
      <use ffdec:characterId="2" height="56.0" id="back" transform="matrix(1.0, 0.0, 0.0, 1.0, 0.0, 0.0)" width="56.0" xlink:href="#sprite6"/>
    </g>
    <g id="sprite6" transform="matrix(1.0, 0.0, 0.0, 1.0, 0.0, 0.0)">
      <use ffdec:characterId="1" height="56.0" transform="matrix(1.0, 0.0, 0.0, 1.0, 0.0, 0.0)" width="56.0" xlink:href="#shape0"/>
    </g>
    <g id="shape0" transform="matrix(1.0, 0.0, 0.0, 1.0, 0.0, 0.0)">
      <path d="M56.0 56.0 L0.0 56.0 0.0 0.0 56.0 0.0 56.0 56.0" fill="#010101" fill-opacity="0.0" fill-rule="evenodd" stroke="none"/>
    </g>
    <g id="sprite7" transform="matrix(1.0, 0.0, 0.0, 1.0, 0.75, 0.75)">
      <use ffdec:characterId="9" height="55.25" transform="matrix(1.0, 0.0, 0.0, 1.0, -0.75, -0.75)" width="53.95" xlink:href="#shape1"/>
    </g>
    <g id="shape1" transform="matrix(1.0, 0.0, 0.0, 1.0, 0.75, 0.75)">
      <path d="M51.7 0.85 Q52.45 1.8 52.45 3.2 52.45 6.2 49.25 8.4 46.1 10.55 38.65 10.55 L32.9 10.2 30.4 19.85 22.75 51.15 27.15 51.5 32.65 50.85 32.1 53.1 27.6 53.7 22.2 53.35 17.0 53.1 8.9 53.75 9.5 51.6 Q13.45 51.15 15.3 50.0 16.55 49.1 17.5 46.9 18.4 44.75 21.65 31.7 L26.95 9.9 23.45 9.8 Q16.25 9.8 11.95 11.35 7.65 12.9 5.55 15.95 3.4 18.95 3.4 22.35 3.4 23.6 3.8 24.6 L5.55 26.9 Q6.9 28.3 6.9 29.55 6.9 30.65 6.1 31.35 5.2 32.05 4.25 32.05 2.55 32.05 1.55 30.55 0.0 28.2 0.0 24.6 0.0 19.85 2.95 15.35 5.9 10.9 11.2 8.4 16.3 5.85 23.8 5.85 L35.1 6.85 43.05 7.55 Q45.5 7.55 46.5 6.8 47.5 5.95 47.5 4.5 L47.5 3.55 47.35 2.55 Q47.35 1.45 48.0 0.75 48.8 0.0 49.8 0.0 50.85 0.0 51.7 0.85 Z" fill="none" stroke="#000000" stroke-linecap="round" stroke-linejoin="round" stroke-opacity="0.2" stroke-width="1.5"/>
    </g>
    <g id="sprite8" transform="matrix(1.0, 0.0, 0.0, 1.0, 0.0, 0.0)">
      <use ffdec:characterId="11" height="53.75" transform="matrix(1.0, 0.0, 0.0, 1.0, 0.0, 0.0)" width="52.4" xlink:href="#shape2"/>
    </g>
    <g id="shape2" transform="matrix(1.0, 0.0, 0.0, 1.0, 0.0, 0.0)">
      <path d="M51.65 0.85 Q52.4 1.75 52.4 3.2 52.4 6.2 49.2 8.4 46.05 10.55 38.55 10.55 L32.85 10.2 30.35 19.85 22.7 51.15 27.1 51.5 32.6 50.85 32.05 53.1 27.6 53.65 22.15 53.35 16.95 53.1 8.9 53.75 9.45 51.6 Q13.4 51.15 15.25 50.0 16.5 49.05 17.45 46.9 18.35 44.7 21.65 31.65 L26.9 9.9 23.4 9.8 Q16.2 9.8 11.9 11.3 7.6 12.9 5.55 15.9 3.35 18.95 3.35 22.35 3.35 23.6 3.75 24.6 L5.55 26.9 Q6.85 28.3 6.85 29.55 6.85 30.65 6.05 31.3 5.2 32.05 4.2 32.05 2.5 32.05 1.5 30.55 0.0 28.2 0.0 24.6 0.0 19.85 2.95 15.35 5.85 10.9 11.15 8.4 16.25 5.85 23.75 5.85 L35.05 6.85 43.0 7.55 Q45.45 7.55 46.45 6.8 47.45 5.95 47.45 4.5 L47.45 3.5 47.3 2.5 Q47.3 1.45 47.95 0.75 48.7 0.0 49.7 0.0 50.8 0.0 51.65 0.85" fill="#000000" fill-rule="evenodd" stroke="none"/>
    </g>
  </defs>
</svg>
