<?xml version="1.0" encoding="UTF-8" standalone="no"?>
<svg xmlns:ffdec="https://www.free-decompiler.com/flash" xmlns:xlink="http://www.w3.org/1999/xlink" ffdec:objectType="frame" height="56.0px" width="56.0px" xmlns="http://www.w3.org/2000/svg">
  <g transform="matrix(1.0, 0.0, 0.0, 1.0, 0.0, 0.0)">
    <use ffdec:characterId="9" ffdec:characterName="267_fla.Symbole28_1" height="56.0" id="back" transform="matrix(1.0, 0.0, 0.0, 1.0, 0.0, 0.0)" width="56.0" xlink:href="#sprite0"/>
    <use ffdec:characterId="11" height="55.25" id="back" transform="matrix(1.0, 0.0, 0.0, 1.0, 0.95, 0.3)" width="53.9" xlink:href="#sprite8"/>
    <use ffdec:characterId="13" height="53.75" id="up" transform="matrix(1.0, 0.0, 0.0, 1.0, 1.7, 1.05)" width="52.4" xlink:href="#sprite9"/>
  </g>
  <defs>
    <g id="sprite0" transform="matrix(1.0, 0.0, 0.0, 1.0, 0.0, 0.0)">
      <use ffdec:characterId="8" ffdec:characterName="267_fla.Symbole25_2" height="56.0" id="back" transform="matrix(1.0, 0.0, 0.0, 1.0, 0.0, 0.0)" width="56.0" xlink:href="#sprite1"/>
    </g>
    <g id="sprite1" transform="matrix(1.0, 0.0, 0.0, 1.0, 0.0, 0.0)">
      <use ffdec:characterId="7" ffdec:characterName="267_fla.Symbole22_3" height="56.0" id="back" transform="matrix(1.0, 0.0, 0.0, 1.0, 0.0, 0.0)" width="56.0" xlink:href="#sprite2"/>
    </g>
    <g id="sprite2" transform="matrix(1.0, 0.0, 0.0, 1.0, 0.0, 0.0)">
      <use ffdec:characterId="6" ffdec:characterName="267_fla.Symbole19_4" height="56.0" id="back" transform="matrix(1.0, 0.0, 0.0, 1.0, 0.0, 0.0)" width="56.0" xlink:href="#sprite3"/>
    </g>
    <g id="sprite3" transform="matrix(1.0, 0.0, 0.0, 1.0, 0.0, 0.0)">
      <use ffdec:characterId="5" ffdec:characterName="267_fla.Symbole16_5" height="56.0" id="back" transform="matrix(1.0, 0.0, 0.0, 1.0, 0.0, 0.0)" width="56.0" xlink:href="#sprite4"/>
    </g>
    <g id="sprite4" transform="matrix(1.0, 0.0, 0.0, 1.0, 0.0, 0.0)">
      <use ffdec:characterId="4" ffdec:characterName="267_fla.Symbole13_6" height="56.0" id="back" transform="matrix(1.0, 0.0, 0.0, 1.0, 0.0, 0.0)" width="56.0" xlink:href="#sprite5"/>
    </g>
    <g id="sprite5" transform="matrix(1.0, 0.0, 0.0, 1.0, 0.0, 0.0)">
      <use ffdec:characterId="3" ffdec:characterName="267_fla.Symbole10_7" height="56.0" id="back" transform="matrix(1.0, 0.0, 0.0, 1.0, 0.0, 0.0)" width="56.0" xlink:href="#sprite6"/>
    </g>
    <g id="sprite6" transform="matrix(1.0, 0.0, 0.0, 1.0, 0.0, 0.0)">
      <use ffdec:characterId="2" height="56.0" id="back" transform="matrix(1.0, 0.0, 0.0, 1.0, 0.0, 0.0)" width="56.0" xlink:href="#sprite7"/>
    </g>
    <g id="sprite7" transform="matrix(1.0, 0.0, 0.0, 1.0, 0.0, 0.0)">
      <use ffdec:characterId="1" height="56.0" transform="matrix(1.0, 0.0, 0.0, 1.0, 0.0, 0.0)" width="56.0" xlink:href="#shape0"/>
    </g>
    <g id="shape0" transform="matrix(1.0, 0.0, 0.0, 1.0, 0.0, 0.0)">
      <path d="M56.0 56.0 L0.0 56.0 0.0 0.0 56.0 0.0 56.0 56.0" fill="#010101" fill-opacity="0.0" fill-rule="evenodd" stroke="none"/>
    </g>
    <g id="sprite8" transform="matrix(1.0, 0.0, 0.0, 1.0, 0.75, 0.75)">
      <use ffdec:characterId="10" height="55.25" transform="matrix(1.0, 0.0, 0.0, 1.0, -0.75, -0.75)" width="53.9" xlink:href="#shape1"/>
    </g>
    <g id="shape1" transform="matrix(1.0, 0.0, 0.0, 1.0, 0.75, 0.75)">
      <path d="M52.4 9.75 Q52.4 21.25 47.35 32.65 42.3 44.0 35.8 48.85 29.1 53.75 21.85 53.75 15.9 53.75 12.75 49.8 9.65 45.95 9.65 40.15 9.65 35.4 11.1 30.55 13.0 24.0 19.1 11.15 14.3 11.05 10.6 12.25 6.95 13.55 5.3 15.5 3.65 17.4 3.65 19.3 3.65 20.05 4.55 21.45 5.4 22.95 5.4 23.85 5.4 24.85 4.7 25.6 4.05 26.4 3.1 26.4 1.8 26.4 0.95 25.2 0.0 24.1 0.0 22.2 0.0 19.35 1.65 16.45 3.4 13.6 6.05 11.85 8.7 10.1 12.7 9.25 L20.7 8.5 25.95 8.15 Q22.15 14.8 18.5 25.1 15.9 32.4 15.9 37.3 15.9 42.8 18.5 45.85 21.15 48.85 25.15 48.85 28.9 48.85 32.25 46.95 36.55 44.55 40.35 39.5 44.1 34.4 46.45 27.35 48.85 20.3 48.85 14.15 48.85 9.85 47.0 6.0 L45.9 3.7 45.7 2.55 Q45.7 1.45 46.45 0.7 47.1 0.0 48.1 0.0 49.9 0.0 50.85 1.9 52.4 4.4 52.4 9.75 Z" fill="none" stroke="#000000" stroke-linecap="round" stroke-linejoin="round" stroke-opacity="0.2" stroke-width="1.5"/>
    </g>
    <g id="sprite9" transform="matrix(1.0, 0.0, 0.0, 1.0, 0.0, 0.0)">
      <use ffdec:characterId="12" height="53.75" transform="matrix(1.0, 0.0, 0.0, 1.0, 0.0, 0.0)" width="52.4" xlink:href="#shape2"/>
    </g>
    <g id="shape2" transform="matrix(1.0, 0.0, 0.0, 1.0, 0.0, 0.0)">
      <path d="M52.4 9.75 Q52.4 21.25 47.35 32.65 42.3 44.0 35.8 48.85 29.15 53.75 21.9 53.75 15.9 53.75 12.8 49.8 9.65 45.95 9.65 40.15 9.65 35.4 11.1 30.55 13.05 24.0 19.15 11.15 14.35 11.05 10.65 12.25 6.95 13.55 5.35 15.5 3.65 17.4 3.65 19.3 3.65 20.05 4.55 21.45 5.45 22.95 5.45 23.85 5.45 24.85 4.7 25.6 4.1 26.4 3.15 26.4 1.85 26.4 0.95 25.2 0.0 24.1 0.0 22.2 0.0 19.35 1.7 16.45 3.4 13.6 6.05 11.85 8.7 10.1 12.75 9.25 L20.7 8.5 25.95 8.15 Q22.15 14.8 18.5 25.1 15.9 32.4 15.9 37.3 15.9 42.8 18.5 45.85 21.15 48.85 25.15 48.85 28.9 48.85 32.25 46.95 36.6 44.55 40.4 39.5 44.15 34.4 46.45 27.35 48.85 20.3 48.85 14.15 48.85 9.85 47.05 6.0 L45.9 3.7 45.75 2.55 Q45.75 1.45 46.45 0.7 47.1 0.0 48.15 0.0 49.9 0.0 50.85 1.9 52.4 4.4 52.4 9.75" fill="#000000" fill-rule="evenodd" stroke="none"/>
    </g>
  </defs>
</svg>
