<?xml version="1.0" encoding="UTF-8" standalone="no"?>
<svg xmlns:ffdec="https://www.free-decompiler.com/flash" xmlns:xlink="http://www.w3.org/1999/xlink" ffdec:objectType="frame" height="56.0px" width="56.0px" xmlns="http://www.w3.org/2000/svg">
  <g transform="matrix(1.0, 0.0, 0.0, 1.0, 0.0, 0.0)">
    <use ffdec:characterId="10" ffdec:characterName="268_fla.Symbole31_1" height="56.0" id="back" transform="matrix(1.0, 0.0, 0.0, 1.0, 0.0, 0.0)" width="56.0" xlink:href="#sprite0"/>
    <use ffdec:characterId="12" height="55.25" id="back" transform="matrix(1.0, 0.0, 0.0, 1.0, 0.65, 0.3)" width="54.65" xlink:href="#sprite9"/>
    <use ffdec:characterId="14" height="53.75" id="up" transform="matrix(1.0, 0.0, 0.0, 1.0, 1.35, 1.05)" width="53.2" xlink:href="#sprite10"/>
  </g>
  <defs>
    <g id="sprite0" transform="matrix(1.0, 0.0, 0.0, 1.0, 0.0, 0.0)">
      <use ffdec:characterId="9" ffdec:characterName="268_fla.Symbole28_2" height="56.0" id="back" transform="matrix(1.0, 0.0, 0.0, 1.0, 0.0, 0.0)" width="56.0" xlink:href="#sprite1"/>
    </g>
    <g id="sprite1" transform="matrix(1.0, 0.0, 0.0, 1.0, 0.0, 0.0)">
      <use ffdec:characterId="8" ffdec:characterName="268_fla.Symbole25_3" height="56.0" id="back" transform="matrix(1.0, 0.0, 0.0, 1.0, 0.0, 0.0)" width="56.0" xlink:href="#sprite2"/>
    </g>
    <g id="sprite2" transform="matrix(1.0, 0.0, 0.0, 1.0, 0.0, 0.0)">
      <use ffdec:characterId="7" ffdec:characterName="268_fla.Symbole22_4" height="56.0" id="back" transform="matrix(1.0, 0.0, 0.0, 1.0, 0.0, 0.0)" width="56.0" xlink:href="#sprite3"/>
    </g>
    <g id="sprite3" transform="matrix(1.0, 0.0, 0.0, 1.0, 0.0, 0.0)">
      <use ffdec:characterId="6" ffdec:characterName="268_fla.Symbole19_5" height="56.0" id="back" transform="matrix(1.0, 0.0, 0.0, 1.0, 0.0, 0.0)" width="56.0" xlink:href="#sprite4"/>
    </g>
    <g id="sprite4" transform="matrix(1.0, 0.0, 0.0, 1.0, 0.0, 0.0)">
      <use ffdec:characterId="5" ffdec:characterName="268_fla.Symbole16_6" height="56.0" id="back" transform="matrix(1.0, 0.0, 0.0, 1.0, 0.0, 0.0)" width="56.0" xlink:href="#sprite5"/>
    </g>
    <g id="sprite5" transform="matrix(1.0, 0.0, 0.0, 1.0, 0.0, 0.0)">
      <use ffdec:characterId="4" ffdec:characterName="268_fla.Symbole13_7" height="56.0" id="back" transform="matrix(1.0, 0.0, 0.0, 1.0, 0.0, 0.0)" width="56.0" xlink:href="#sprite6"/>
    </g>
    <g id="sprite6" transform="matrix(1.0, 0.0, 0.0, 1.0, 0.0, 0.0)">
      <use ffdec:characterId="3" ffdec:characterName="268_fla.Symbole10_8" height="56.0" id="back" transform="matrix(1.0, 0.0, 0.0, 1.0, 0.0, 0.0)" width="56.0" xlink:href="#sprite7"/>
    </g>
    <g id="sprite7" transform="matrix(1.0, 0.0, 0.0, 1.0, 0.0, 0.0)">
      <use ffdec:characterId="2" height="56.0" id="back" transform="matrix(1.0, 0.0, 0.0, 1.0, 0.0, 0.0)" width="56.0" xlink:href="#sprite8"/>
    </g>
    <g id="sprite8" transform="matrix(1.0, 0.0, 0.0, 1.0, 0.0, 0.0)">
      <use ffdec:characterId="1" height="56.0" transform="matrix(1.0, 0.0, 0.0, 1.0, 0.0, 0.0)" width="56.0" xlink:href="#shape0"/>
    </g>
    <g id="shape0" transform="matrix(1.0, 0.0, 0.0, 1.0, 0.0, 0.0)">
      <path d="M56.0 56.0 L0.0 56.0 0.0 0.0 56.0 0.0 56.0 56.0" fill="#010101" fill-opacity="0.0" fill-rule="evenodd" stroke="none"/>
    </g>
    <g id="sprite9" transform="matrix(1.0, 0.0, 0.0, 1.0, 0.75, 0.75)">
      <use ffdec:characterId="11" height="55.25" transform="matrix(1.0, 0.0, 0.0, 1.0, -0.75, -0.75)" width="54.65" xlink:href="#shape1"/>
    </g>
    <g id="shape1" transform="matrix(1.0, 0.0, 0.0, 1.0, 0.75, 0.75)">
      <path d="M53.15 5.95 Q53.15 9.0 51.85 12.4 50.65 15.7 46.65 20.95 42.6 26.1 34.1 34.65 25.2 43.7 16.1 53.75 L14.7 35.85 Q14.35 30.4 14.35 28.55 14.35 23.55 15.7 19.35 17.2 15.05 20.8 10.2 16.55 10.2 11.95 12.4 7.45 14.45 5.3 17.15 3.2 19.8 3.2 22.6 3.2 23.9 4.05 25.4 5.0 27.1 5.0 28.0 5.0 28.9 4.5 29.4 3.95 29.9 3.15 29.9 1.95 29.9 1.1 28.7 0.0 27.05 0.0 24.65 0.0 20.15 3.4 15.9 6.8 11.75 12.8 9.75 16.6 8.4 23.9 7.9 L27.95 7.65 Q22.95 14.95 21.35 19.8 19.85 24.75 19.85 33.2 19.85 39.65 20.45 45.05 L33.85 31.15 Q43.05 21.65 46.25 16.15 48.7 12.05 48.7 8.75 48.7 6.8 47.85 4.6 47.25 3.15 47.25 2.45 47.25 1.45 48.05 0.7 48.8 0.0 49.9 0.0 51.25 0.0 52.2 1.45 53.15 2.9 53.15 5.95 Z" fill="none" stroke="#000000" stroke-linecap="round" stroke-linejoin="round" stroke-opacity="0.2" stroke-width="1.5"/>
    </g>
    <g id="sprite10" transform="matrix(1.0, 0.0, 0.0, 1.0, 0.0, 0.0)">
      <use ffdec:characterId="13" height="53.75" transform="matrix(1.0, 0.0, 0.0, 1.0, 0.0, 0.0)" width="53.2" xlink:href="#shape2"/>
    </g>
    <g id="shape2" transform="matrix(1.0, 0.0, 0.0, 1.0, 0.0, 0.0)">
      <path d="M53.2 5.95 Q53.2 8.95 51.95 12.35 50.75 15.7 46.7 20.9 42.65 26.05 34.15 34.65 25.25 43.65 16.15 53.75 L14.75 35.8 Q14.4 30.35 14.4 28.5 14.4 23.55 15.75 19.3 17.3 15.05 20.85 10.2 16.55 10.2 12.05 12.35 7.5 14.4 5.35 17.1 3.3 19.8 3.3 22.6 3.3 23.85 4.1 25.35 5.05 27.1 5.05 27.95 5.05 28.85 4.55 29.4 4.0 29.85 3.2 29.85 2.0 29.85 1.15 28.7 0.0 27.0 0.0 24.65 0.0 20.1 3.45 15.85 6.85 11.7 12.8 9.75 16.65 8.4 23.95 7.9 L28.0 7.6 Q23.0 14.9 21.4 19.8 19.9 24.7 19.9 33.2 19.9 39.6 20.55 45.0 L33.9 31.15 Q43.1 21.6 46.3 16.15 48.75 12.05 48.75 8.7 48.75 6.8 47.9 4.6 47.3 3.15 47.3 2.45 47.3 1.4 48.1 0.7 48.85 0.0 49.95 0.0 51.3 0.0 52.25 1.4 53.2 2.85 53.2 5.95" fill="#000000" fill-rule="evenodd" stroke="none"/>
    </g>
  </defs>
</svg>
