<?xml version="1.0" encoding="UTF-8" standalone="no"?>
<svg xmlns:ffdec="https://www.free-decompiler.com/flash" xmlns:xlink="http://www.w3.org/1999/xlink" ffdec:objectType="frame" height="56.0px" width="56.0px" xmlns="http://www.w3.org/2000/svg">
  <g transform="matrix(1.0, 0.0, 0.0, 1.0, 0.0, 0.0)">
    <use ffdec:characterId="11" ffdec:characterName="269_fla.Symbole34_1" height="56.0" id="back" transform="matrix(1.0, 0.0, 0.0, 1.0, 0.0, 0.0)" width="56.0" xlink:href="#sprite0"/>
    <use ffdec:characterId="13" height="43.55" id="back" transform="matrix(1.0, 0.0, 0.0, 1.0, 0.35, 6.05)" width="55.35" xlink:href="#sprite10"/>
    <use ffdec:characterId="15" height="42.05" id="up" transform="matrix(1.0, 0.0, 0.0, 1.0, 1.1, 6.8)" width="53.85" xlink:href="#sprite11"/>
  </g>
  <defs>
    <g id="sprite0" transform="matrix(1.0, 0.0, 0.0, 1.0, 0.0, 0.0)">
      <use ffdec:characterId="10" ffdec:characterName="269_fla.Symbole31_2" height="56.0" id="back" transform="matrix(1.0, 0.0, 0.0, 1.0, 0.0, 0.0)" width="56.0" xlink:href="#sprite1"/>
    </g>
    <g id="sprite1" transform="matrix(1.0, 0.0, 0.0, 1.0, 0.0, 0.0)">
      <use ffdec:characterId="9" ffdec:characterName="269_fla.Symbole28_3" height="56.0" id="back" transform="matrix(1.0, 0.0, 0.0, 1.0, 0.0, 0.0)" width="56.0" xlink:href="#sprite2"/>
    </g>
    <g id="sprite2" transform="matrix(1.0, 0.0, 0.0, 1.0, 0.0, 0.0)">
      <use ffdec:characterId="8" ffdec:characterName="269_fla.Symbole25_4" height="56.0" id="back" transform="matrix(1.0, 0.0, 0.0, 1.0, 0.0, 0.0)" width="56.0" xlink:href="#sprite3"/>
    </g>
    <g id="sprite3" transform="matrix(1.0, 0.0, 0.0, 1.0, 0.0, 0.0)">
      <use ffdec:characterId="7" ffdec:characterName="269_fla.Symbole22_5" height="56.0" id="back" transform="matrix(1.0, 0.0, 0.0, 1.0, 0.0, 0.0)" width="56.0" xlink:href="#sprite4"/>
    </g>
    <g id="sprite4" transform="matrix(1.0, 0.0, 0.0, 1.0, 0.0, 0.0)">
      <use ffdec:characterId="6" ffdec:characterName="269_fla.Symbole19_6" height="56.0" id="back" transform="matrix(1.0, 0.0, 0.0, 1.0, 0.0, 0.0)" width="56.0" xlink:href="#sprite5"/>
    </g>
    <g id="sprite5" transform="matrix(1.0, 0.0, 0.0, 1.0, 0.0, 0.0)">
      <use ffdec:characterId="5" ffdec:characterName="269_fla.Symbole16_7" height="56.0" id="back" transform="matrix(1.0, 0.0, 0.0, 1.0, 0.0, 0.0)" width="56.0" xlink:href="#sprite6"/>
    </g>
    <g id="sprite6" transform="matrix(1.0, 0.0, 0.0, 1.0, 0.0, 0.0)">
      <use ffdec:characterId="4" ffdec:characterName="269_fla.Symbole13_8" height="56.0" id="back" transform="matrix(1.0, 0.0, 0.0, 1.0, 0.0, 0.0)" width="56.0" xlink:href="#sprite7"/>
    </g>
    <g id="sprite7" transform="matrix(1.0, 0.0, 0.0, 1.0, 0.0, 0.0)">
      <use ffdec:characterId="3" ffdec:characterName="269_fla.Symbole10_9" height="56.0" id="back" transform="matrix(1.0, 0.0, 0.0, 1.0, 0.0, 0.0)" width="56.0" xlink:href="#sprite8"/>
    </g>
    <g id="sprite8" transform="matrix(1.0, 0.0, 0.0, 1.0, 0.0, 0.0)">
      <use ffdec:characterId="2" height="56.0" id="back" transform="matrix(1.0, 0.0, 0.0, 1.0, 0.0, 0.0)" width="56.0" xlink:href="#sprite9"/>
    </g>
    <g id="sprite9" transform="matrix(1.0, 0.0, 0.0, 1.0, 0.0, 0.0)">
      <use ffdec:characterId="1" height="56.0" transform="matrix(1.0, 0.0, 0.0, 1.0, 0.0, 0.0)" width="56.0" xlink:href="#shape0"/>
    </g>
    <g id="shape0" transform="matrix(1.0, 0.0, 0.0, 1.0, 0.0, 0.0)">
      <path d="M56.0 56.0 L0.0 56.0 0.0 0.0 56.0 0.0 56.0 56.0" fill="#010101" fill-opacity="0.0" fill-rule="evenodd" stroke="none"/>
    </g>
    <g id="sprite10" transform="matrix(1.0, 0.0, 0.0, 1.0, 0.75, 0.75)">
      <use ffdec:characterId="12" height="43.55" transform="matrix(1.0, 0.0, 0.0, 1.0, -0.75, -0.75)" width="55.35" xlink:href="#shape1"/>
    </g>
    <g id="shape1" transform="matrix(1.0, 0.0, 0.0, 1.0, 0.75, 0.75)">
      <path d="M51.25 0.0 Q52.25 0.0 53.0 1.05 53.85 2.3 53.85 4.45 53.85 7.25 52.0 11.9 50.0 16.45 43.2 25.35 34.55 36.75 29.0 42.05 L29.5 23.95 Q29.7 17.95 30.65 12.7 29.0 14.65 26.55 18.7 19.1 30.6 10.7 40.95 9.95 37.15 9.6 32.2 9.2 27.2 9.2 23.4 9.2 18.1 10.2 15.0 11.2 11.8 14.0 8.1 8.75 8.6 5.65 11.45 2.55 14.15 2.55 17.05 2.55 18.1 3.1 19.2 3.9 20.5 3.9 21.05 3.9 21.75 3.3 22.25 2.85 22.7 2.2 22.7 1.35 22.7 0.7 21.85 0.0 20.8 0.0 19.05 0.0 16.55 1.45 13.9 2.95 11.2 5.4 9.55 7.85 7.85 10.95 6.95 L16.75 6.1 19.45 5.65 Q13.35 14.25 13.35 23.0 L13.75 33.8 16.75 29.85 Q17.8 28.6 21.65 22.75 27.9 13.3 30.95 9.35 33.2 6.65 35.9 4.45 33.25 15.0 33.25 34.75 L40.35 26.05 Q43.2 22.5 46.0 17.8 48.95 13.1 49.9 10.25 50.55 8.45 50.55 6.85 50.55 5.3 49.75 3.45 L49.35 1.85 Q49.35 1.05 49.9 0.6 50.45 0.0 51.25 0.0 Z" fill="none" stroke="#000000" stroke-linecap="round" stroke-linejoin="round" stroke-opacity="0.2" stroke-width="1.5"/>
    </g>
    <g id="sprite11" transform="matrix(1.0, 0.0, 0.0, 1.0, 0.0, 0.0)">
      <use ffdec:characterId="14" height="42.05" transform="matrix(1.0, 0.0, 0.0, 1.0, 0.0, 0.0)" width="53.85" xlink:href="#shape2"/>
    </g>
    <g id="shape2" transform="matrix(1.0, 0.0, 0.0, 1.0, 0.0, 0.0)">
      <path d="M51.25 0.0 Q52.25 0.0 52.95 1.0 53.85 2.25 53.85 4.4 53.85 7.25 51.95 11.9 49.95 16.45 43.2 25.35 34.5 36.75 28.95 42.05 L29.5 23.95 Q29.65 17.95 30.6 12.65 28.95 14.65 26.5 18.65 19.1 30.55 10.65 40.95 9.95 37.15 9.6 32.2 9.15 27.15 9.15 23.35 9.15 18.1 10.15 14.95 11.2 11.8 13.95 8.1 8.75 8.55 5.6 11.4 2.5 14.15 2.5 17.0 2.5 18.1 3.05 19.2 3.85 20.45 3.85 21.0 3.85 21.7 3.3 22.2 2.8 22.65 2.2 22.65 1.3 22.65 0.7 21.8 0.0 20.8 0.0 19.05 0.0 16.5 1.4 13.85 2.9 11.15 5.35 9.5 7.8 7.8 10.95 6.9 L16.7 6.05 19.4 5.65 Q13.35 14.25 13.35 23.0 13.35 25.6 13.7 33.75 L16.7 29.85 21.6 22.75 Q27.85 13.3 30.95 9.35 33.15 6.6 35.9 4.4 33.25 14.95 33.25 34.7 L40.35 26.05 Q43.2 22.5 46.0 17.8 48.95 13.05 49.9 10.25 50.5 8.4 50.5 6.85 50.5 5.25 49.75 3.45 L49.35 1.8 Q49.35 1.0 49.9 0.55 50.45 0.0 51.25 0.0" fill="#000000" fill-rule="evenodd" stroke="none"/>
    </g>
  </defs>
</svg>
