<?xml version="1.0" encoding="UTF-8" standalone="no"?>
<svg xmlns:ffdec="https://www.free-decompiler.com/flash" xmlns:xlink="http://www.w3.org/1999/xlink" ffdec:objectType="frame" height="56.0px" width="56.0px" xmlns="http://www.w3.org/2000/svg">
  <g transform="matrix(1.0, 0.0, 0.0, 1.0, 0.0, 0.0)">
    <use ffdec:characterId="12" ffdec:characterName="270_fla.Symbole37_1" height="56.0" id="back" transform="matrix(1.0, 0.0, 0.0, 1.0, 0.0, 0.0)" width="56.0" xlink:href="#sprite0"/>
    <use ffdec:characterId="14" height="51.8" id="back" transform="matrix(1.0, 0.0, 0.0, 1.0, 0.35, 1.9)" width="55.35" xlink:href="#sprite11"/>
    <use ffdec:characterId="16" height="50.3" id="up" transform="matrix(1.0, 0.0, 0.0, 1.0, 1.1, 2.65)" width="53.85" xlink:href="#sprite12"/>
  </g>
  <defs>
    <g id="sprite0" transform="matrix(1.0, 0.0, 0.0, 1.0, 0.0, 0.0)">
      <use ffdec:characterId="11" ffdec:characterName="270_fla.Symbole34_2" height="56.0" id="back" transform="matrix(1.0, 0.0, 0.0, 1.0, 0.0, 0.0)" width="56.0" xlink:href="#sprite1"/>
    </g>
    <g id="sprite1" transform="matrix(1.0, 0.0, 0.0, 1.0, 0.0, 0.0)">
      <use ffdec:characterId="10" ffdec:characterName="270_fla.Symbole31_3" height="56.0" id="back" transform="matrix(1.0, 0.0, 0.0, 1.0, 0.0, 0.0)" width="56.0" xlink:href="#sprite2"/>
    </g>
    <g id="sprite2" transform="matrix(1.0, 0.0, 0.0, 1.0, 0.0, 0.0)">
      <use ffdec:characterId="9" ffdec:characterName="270_fla.Symbole28_4" height="56.0" id="back" transform="matrix(1.0, 0.0, 0.0, 1.0, 0.0, 0.0)" width="56.0" xlink:href="#sprite3"/>
    </g>
    <g id="sprite3" transform="matrix(1.0, 0.0, 0.0, 1.0, 0.0, 0.0)">
      <use ffdec:characterId="8" ffdec:characterName="270_fla.Symbole25_5" height="56.0" id="back" transform="matrix(1.0, 0.0, 0.0, 1.0, 0.0, 0.0)" width="56.0" xlink:href="#sprite4"/>
    </g>
    <g id="sprite4" transform="matrix(1.0, 0.0, 0.0, 1.0, 0.0, 0.0)">
      <use ffdec:characterId="7" ffdec:characterName="270_fla.Symbole22_6" height="56.0" id="back" transform="matrix(1.0, 0.0, 0.0, 1.0, 0.0, 0.0)" width="56.0" xlink:href="#sprite5"/>
    </g>
    <g id="sprite5" transform="matrix(1.0, 0.0, 0.0, 1.0, 0.0, 0.0)">
      <use ffdec:characterId="6" ffdec:characterName="270_fla.Symbole19_7" height="56.0" id="back" transform="matrix(1.0, 0.0, 0.0, 1.0, 0.0, 0.0)" width="56.0" xlink:href="#sprite6"/>
    </g>
    <g id="sprite6" transform="matrix(1.0, 0.0, 0.0, 1.0, 0.0, 0.0)">
      <use ffdec:characterId="5" ffdec:characterName="270_fla.Symbole16_8" height="56.0" id="back" transform="matrix(1.0, 0.0, 0.0, 1.0, 0.0, 0.0)" width="56.0" xlink:href="#sprite7"/>
    </g>
    <g id="sprite7" transform="matrix(1.0, 0.0, 0.0, 1.0, 0.0, 0.0)">
      <use ffdec:characterId="4" ffdec:characterName="270_fla.Symbole13_9" height="56.0" id="back" transform="matrix(1.0, 0.0, 0.0, 1.0, 0.0, 0.0)" width="56.0" xlink:href="#sprite8"/>
    </g>
    <g id="sprite8" transform="matrix(1.0, 0.0, 0.0, 1.0, 0.0, 0.0)">
      <use ffdec:characterId="3" ffdec:characterName="270_fla.Symbole10_10" height="56.0" id="back" transform="matrix(1.0, 0.0, 0.0, 1.0, 0.0, 0.0)" width="56.0" xlink:href="#sprite9"/>
    </g>
    <g id="sprite9" transform="matrix(1.0, 0.0, 0.0, 1.0, 0.0, 0.0)">
      <use ffdec:characterId="2" height="56.0" id="back" transform="matrix(1.0, 0.0, 0.0, 1.0, 0.0, 0.0)" width="56.0" xlink:href="#sprite10"/>
    </g>
    <g id="sprite10" transform="matrix(1.0, 0.0, 0.0, 1.0, 0.0, 0.0)">
      <use ffdec:characterId="1" height="56.0" transform="matrix(1.0, 0.0, 0.0, 1.0, 0.0, 0.0)" width="56.0" xlink:href="#shape0"/>
    </g>
    <g id="shape0" transform="matrix(1.0, 0.0, 0.0, 1.0, 0.0, 0.0)">
      <path d="M56.0 56.0 L0.0 56.0 0.0 0.0 56.0 0.0 56.0 56.0" fill="#010101" fill-opacity="0.0" fill-rule="evenodd" stroke="none"/>
    </g>
    <g id="sprite11" transform="matrix(1.0, 0.0, 0.0, 1.0, 0.75, 0.75)">
      <use ffdec:characterId="13" height="51.8" transform="matrix(1.0, 0.0, 0.0, 1.0, -0.75, -0.75)" width="55.35" xlink:href="#shape1"/>
    </g>
    <g id="shape1" transform="matrix(1.0, 0.0, 0.0, 1.0, 0.75, 0.75)">
      <path d="M46.2 1.05 Q48.25 0.0 50.6 0.0 52.25 0.0 53.1 0.55 53.85 1.2 53.85 2.25 53.85 3.1 53.2 3.75 52.4 4.3 50.05 4.45 46.7 4.85 44.65 5.9 42.55 6.95 39.8 9.9 35.25 14.75 30.2 21.55 32.05 26.55 32.85 31.35 33.65 36.15 33.65 40.75 L33.55 43.65 36.65 44.0 40.4 43.8 40.0 45.8 38.25 45.85 35.15 45.7 32.3 45.55 28.2 45.8 28.65 41.55 Q28.65 37.3 28.15 33.6 L26.55 26.4 20.85 34.45 Q13.45 44.6 9.65 47.45 5.8 50.3 2.55 50.3 1.35 50.3 0.65 49.7 0.0 49.1 0.0 48.2 0.0 47.3 0.65 46.7 1.45 46.1 3.35 45.8 7.15 45.35 9.85 43.3 13.35 40.5 19.0 32.9 L25.75 23.75 Q22.3 13.0 22.3 6.45 L20.1 6.4 16.0 7.0 16.45 4.95 19.4 4.6 23.55 4.6 27.45 4.15 Q27.45 10.75 29.5 18.65 34.55 11.8 40.0 5.95 43.35 2.45 46.2 1.05 Z" fill="none" stroke="#000000" stroke-linecap="round" stroke-linejoin="round" stroke-opacity="0.2" stroke-width="1.5"/>
    </g>
    <g id="sprite12" transform="matrix(1.0, 0.0, 0.0, 1.0, 0.0, 0.0)">
      <use ffdec:characterId="15" height="50.3" transform="matrix(1.0, 0.0, 0.0, 1.0, 0.0, 0.0)" width="53.85" xlink:href="#shape2"/>
    </g>
    <g id="shape2" transform="matrix(1.0, 0.0, 0.0, 1.0, 0.0, 0.0)">
      <path d="M44.65 5.9 Q42.55 6.95 39.8 9.9 35.2 14.75 30.2 21.55 32.0 26.55 32.85 31.35 33.65 36.2 33.65 40.75 L33.55 43.65 36.65 44.05 40.4 43.8 40.0 45.8 38.2 45.9 35.15 45.75 32.3 45.5 28.2 45.8 28.65 41.55 Q28.65 37.3 28.1 33.6 27.5 29.85 26.55 26.4 L20.85 34.45 Q13.45 44.6 9.65 47.45 5.8 50.3 2.55 50.3 1.35 50.3 0.65 49.7 0.0 49.1 0.0 48.2 0.0 47.3 0.65 46.7 1.4 46.1 3.35 45.8 7.15 45.35 9.85 43.3 13.4 40.5 19.0 32.9 L25.7 23.75 Q22.3 13.0 22.3 6.5 L20.1 6.4 16.0 7.0 16.45 4.9 19.35 4.6 23.55 4.6 27.45 4.15 Q27.45 10.75 29.45 18.65 34.55 11.8 40.0 5.95 43.3 2.45 46.2 1.05 48.25 0.0 50.55 0.0 52.25 0.0 53.1 0.6 53.85 1.2 53.85 2.25 53.85 3.15 53.15 3.75 52.4 4.3 50.05 4.45 46.65 4.85 44.65 5.9" fill="#000000" fill-rule="evenodd" stroke="none"/>
    </g>
  </defs>
</svg>
