<?xml version="1.0" encoding="UTF-8" standalone="no"?>
<svg xmlns:ffdec="https://www.free-decompiler.com/flash" xmlns:xlink="http://www.w3.org/1999/xlink" ffdec:objectType="frame" height="56.0px" width="56.0px" xmlns="http://www.w3.org/2000/svg">
  <g transform="matrix(1.0, 0.0, 0.0, 1.0, 0.0, 0.0)">
    <use ffdec:characterId="13" ffdec:characterName="271_fla.Symbole40_1" height="56.0" id="back" transform="matrix(1.0, 0.0, 0.0, 1.0, 0.0, 0.0)" width="56.0" xlink:href="#sprite0"/>
    <use ffdec:characterId="15" height="51.5" id="back" transform="matrix(1.0, 0.0, 0.0, 1.0, 0.35, 2.05)" width="55.35" xlink:href="#sprite12"/>
    <use ffdec:characterId="17" height="50.05" id="up" transform="matrix(1.0, 0.0, 0.0, 1.0, 1.1, 2.75)" width="53.85" xlink:href="#sprite13"/>
  </g>
  <defs>
    <g id="sprite0" transform="matrix(1.0, 0.0, 0.0, 1.0, 0.0, 0.0)">
      <use ffdec:characterId="12" ffdec:characterName="271_fla.Symbole37_2" height="56.0" id="back" transform="matrix(1.0, 0.0, 0.0, 1.0, 0.0, 0.0)" width="56.0" xlink:href="#sprite1"/>
    </g>
    <g id="sprite1" transform="matrix(1.0, 0.0, 0.0, 1.0, 0.0, 0.0)">
      <use ffdec:characterId="11" ffdec:characterName="271_fla.Symbole34_3" height="56.0" id="back" transform="matrix(1.0, 0.0, 0.0, 1.0, 0.0, 0.0)" width="56.0" xlink:href="#sprite2"/>
    </g>
    <g id="sprite2" transform="matrix(1.0, 0.0, 0.0, 1.0, 0.0, 0.0)">
      <use ffdec:characterId="10" ffdec:characterName="271_fla.Symbole31_4" height="56.0" id="back" transform="matrix(1.0, 0.0, 0.0, 1.0, 0.0, 0.0)" width="56.0" xlink:href="#sprite3"/>
    </g>
    <g id="sprite3" transform="matrix(1.0, 0.0, 0.0, 1.0, 0.0, 0.0)">
      <use ffdec:characterId="9" ffdec:characterName="271_fla.Symbole28_5" height="56.0" id="back" transform="matrix(1.0, 0.0, 0.0, 1.0, 0.0, 0.0)" width="56.0" xlink:href="#sprite4"/>
    </g>
    <g id="sprite4" transform="matrix(1.0, 0.0, 0.0, 1.0, 0.0, 0.0)">
      <use ffdec:characterId="8" ffdec:characterName="271_fla.Symbole25_6" height="56.0" id="back" transform="matrix(1.0, 0.0, 0.0, 1.0, 0.0, 0.0)" width="56.0" xlink:href="#sprite5"/>
    </g>
    <g id="sprite5" transform="matrix(1.0, 0.0, 0.0, 1.0, 0.0, 0.0)">
      <use ffdec:characterId="7" ffdec:characterName="271_fla.Symbole22_7" height="56.0" id="back" transform="matrix(1.0, 0.0, 0.0, 1.0, 0.0, 0.0)" width="56.0" xlink:href="#sprite6"/>
    </g>
    <g id="sprite6" transform="matrix(1.0, 0.0, 0.0, 1.0, 0.0, 0.0)">
      <use ffdec:characterId="6" ffdec:characterName="271_fla.Symbole19_8" height="56.0" id="back" transform="matrix(1.0, 0.0, 0.0, 1.0, 0.0, 0.0)" width="56.0" xlink:href="#sprite7"/>
    </g>
    <g id="sprite7" transform="matrix(1.0, 0.0, 0.0, 1.0, 0.0, 0.0)">
      <use ffdec:characterId="5" ffdec:characterName="271_fla.Symbole16_9" height="56.0" id="back" transform="matrix(1.0, 0.0, 0.0, 1.0, 0.0, 0.0)" width="56.0" xlink:href="#sprite8"/>
    </g>
    <g id="sprite8" transform="matrix(1.0, 0.0, 0.0, 1.0, 0.0, 0.0)">
      <use ffdec:characterId="4" ffdec:characterName="271_fla.Symbole13_10" height="56.0" id="back" transform="matrix(1.0, 0.0, 0.0, 1.0, 0.0, 0.0)" width="56.0" xlink:href="#sprite9"/>
    </g>
    <g id="sprite9" transform="matrix(1.0, 0.0, 0.0, 1.0, 0.0, 0.0)">
      <use ffdec:characterId="3" ffdec:characterName="271_fla.Symbole10_11" height="56.0" id="back" transform="matrix(1.0, 0.0, 0.0, 1.0, 0.0, 0.0)" width="56.0" xlink:href="#sprite10"/>
    </g>
    <g id="sprite10" transform="matrix(1.0, 0.0, 0.0, 1.0, 0.0, 0.0)">
      <use ffdec:characterId="2" height="56.0" id="back" transform="matrix(1.0, 0.0, 0.0, 1.0, 0.0, 0.0)" width="56.0" xlink:href="#sprite11"/>
    </g>
    <g id="sprite11" transform="matrix(1.0, 0.0, 0.0, 1.0, 0.0, 0.0)">
      <use ffdec:characterId="1" height="56.0" transform="matrix(1.0, 0.0, 0.0, 1.0, 0.0, 0.0)" width="56.0" xlink:href="#shape0"/>
    </g>
    <g id="shape0" transform="matrix(1.0, 0.0, 0.0, 1.0, 0.0, 0.0)">
      <path d="M56.0 56.0 L0.0 56.0 0.0 0.0 56.0 0.0 56.0 56.0" fill="#010101" fill-opacity="0.0" fill-rule="evenodd" stroke="none"/>
    </g>
    <g id="sprite12" transform="matrix(1.0, 0.0, 0.0, 1.0, 0.75, 0.75)">
      <use ffdec:characterId="14" height="51.5" transform="matrix(1.0, 0.0, 0.0, 1.0, -0.75, -0.75)" width="55.35" xlink:href="#shape1"/>
    </g>
    <g id="shape1" transform="matrix(1.0, 0.0, 0.0, 1.0, 0.75, 0.75)">
      <path d="M53.0 0.6 Q53.85 1.3 53.85 2.35 53.85 3.45 52.95 4.05 52.0 4.7 49.4 4.9 46.8 5.1 45.35 6.0 42.6 7.7 38.85 12.25 35.15 16.8 31.5 23.75 27.8 30.55 25.9 38.05 23.95 45.45 23.85 47.65 L27.25 47.95 Q29.9 47.95 33.0 47.15 L32.2 49.35 28.35 50.0 23.7 49.7 19.45 49.35 12.55 49.9 13.2 48.0 Q16.65 47.15 17.5 46.15 18.35 45.05 20.5 37.3 22.55 29.55 22.55 27.05 22.55 22.05 20.6 16.85 18.65 11.7 15.75 8.45 10.4 10.45 8.05 12.25 5.65 14.0 4.3 16.5 2.85 19.1 2.85 21.0 2.85 22.85 4.55 24.5 6.0 25.85 6.0 26.95 6.0 27.9 5.45 28.55 4.8 29.15 4.05 29.15 2.55 29.15 1.45 27.65 0.0 25.7 0.0 22.85 0.0 18.8 2.3 15.1 4.65 11.55 8.75 9.1 11.1 7.6 16.65 6.0 L20.25 4.8 Q23.3 8.45 25.3 13.5 27.15 18.55 27.9 26.1 34.7 11.65 40.95 5.8 47.15 0.0 51.0 0.0 52.3 0.0 53.0 0.6 Z" fill="none" stroke="#000000" stroke-linecap="round" stroke-linejoin="round" stroke-opacity="0.2" stroke-width="1.5"/>
    </g>
    <g id="sprite13" transform="matrix(1.0, 0.0, 0.0, 1.0, 0.0, 0.0)">
      <use ffdec:characterId="16" height="50.05" transform="matrix(1.0, 0.0, 0.0, 1.0, 0.0, 0.0)" width="53.85" xlink:href="#shape2"/>
    </g>
    <g id="shape2" transform="matrix(1.0, 0.0, 0.0, 1.0, 0.0, 0.0)">
      <path d="M53.0 0.65 Q53.85 1.35 53.85 2.4 53.85 3.5 52.9 4.1 51.95 4.75 49.35 4.95 46.8 5.15 45.35 6.0 42.6 7.75 38.8 12.3 35.1 16.85 31.5 23.75 27.8 30.6 25.9 38.1 23.95 45.45 23.85 47.65 L27.25 48.0 Q29.95 48.0 33.0 47.2 L32.2 49.4 28.35 50.05 23.7 49.7 19.45 49.4 12.55 49.95 13.15 48.05 Q16.6 47.2 17.5 46.2 18.35 45.1 20.5 37.35 22.55 29.6 22.55 27.05 22.55 22.1 20.55 16.95 18.65 11.75 15.75 8.5 10.4 10.5 8.05 12.3 5.7 14.0 4.25 16.55 2.85 19.15 2.85 21.0 2.85 22.9 4.55 24.55 6.0 25.9 6.0 27.0 6.0 27.95 5.45 28.55 4.8 29.2 4.0 29.2 2.55 29.2 1.4 27.7 0.0 25.75 0.0 22.9 0.0 18.8 2.3 15.1 4.65 11.6 8.75 9.15 11.1 7.65 16.6 6.0 L20.25 4.8 Q23.3 8.5 25.3 13.55 27.15 18.6 27.9 26.15 34.75 11.65 40.95 5.85 47.15 0.0 51.05 0.0 52.3 0.0 53.0 0.65" fill="#000000" fill-rule="evenodd" stroke="none"/>
    </g>
  </defs>
</svg>
