<?xml version="1.0" encoding="UTF-8" standalone="no"?>
<svg xmlns:ffdec="https://www.free-decompiler.com/flash" xmlns:xlink="http://www.w3.org/1999/xlink" ffdec:objectType="frame" height="56.0px" width="56.0px" xmlns="http://www.w3.org/2000/svg">
  <g transform="matrix(1.0, 0.0, 0.0, 1.0, 0.0, 0.0)">
    <use ffdec:characterId="14" ffdec:characterName="272_fla.Symbole43_1" height="56.0" id="back" transform="matrix(1.0, 0.0, 0.0, 1.0, 0.0, 0.0)" width="56.0" xlink:href="#sprite0"/>
    <use ffdec:characterId="16" height="55.25" id="back" transform="matrix(1.0, 0.0, 0.0, 1.0, 0.8, 0.3)" width="54.4" xlink:href="#sprite13"/>
    <use ffdec:characterId="18" height="53.75" id="up" transform="matrix(1.0, 0.0, 0.0, 1.0, 1.55, 1.05)" width="52.9" xlink:href="#sprite14"/>
  </g>
  <defs>
    <g id="sprite0" transform="matrix(1.0, 0.0, 0.0, 1.0, 0.0, 0.0)">
      <use ffdec:characterId="13" ffdec:characterName="272_fla.Symbole40_2" height="56.0" id="back" transform="matrix(1.0, 0.0, 0.0, 1.0, 0.0, 0.0)" width="56.0" xlink:href="#sprite1"/>
    </g>
    <g id="sprite1" transform="matrix(1.0, 0.0, 0.0, 1.0, 0.0, 0.0)">
      <use ffdec:characterId="12" ffdec:characterName="272_fla.Symbole37_3" height="56.0" id="back" transform="matrix(1.0, 0.0, 0.0, 1.0, 0.0, 0.0)" width="56.0" xlink:href="#sprite2"/>
    </g>
    <g id="sprite2" transform="matrix(1.0, 0.0, 0.0, 1.0, 0.0, 0.0)">
      <use ffdec:characterId="11" ffdec:characterName="272_fla.Symbole34_4" height="56.0" id="back" transform="matrix(1.0, 0.0, 0.0, 1.0, 0.0, 0.0)" width="56.0" xlink:href="#sprite3"/>
    </g>
    <g id="sprite3" transform="matrix(1.0, 0.0, 0.0, 1.0, 0.0, 0.0)">
      <use ffdec:characterId="10" ffdec:characterName="272_fla.Symbole31_5" height="56.0" id="back" transform="matrix(1.0, 0.0, 0.0, 1.0, 0.0, 0.0)" width="56.0" xlink:href="#sprite4"/>
    </g>
    <g id="sprite4" transform="matrix(1.0, 0.0, 0.0, 1.0, 0.0, 0.0)">
      <use ffdec:characterId="9" ffdec:characterName="272_fla.Symbole28_6" height="56.0" id="back" transform="matrix(1.0, 0.0, 0.0, 1.0, 0.0, 0.0)" width="56.0" xlink:href="#sprite5"/>
    </g>
    <g id="sprite5" transform="matrix(1.0, 0.0, 0.0, 1.0, 0.0, 0.0)">
      <use ffdec:characterId="8" ffdec:characterName="272_fla.Symbole25_7" height="56.0" id="back" transform="matrix(1.0, 0.0, 0.0, 1.0, 0.0, 0.0)" width="56.0" xlink:href="#sprite6"/>
    </g>
    <g id="sprite6" transform="matrix(1.0, 0.0, 0.0, 1.0, 0.0, 0.0)">
      <use ffdec:characterId="7" ffdec:characterName="272_fla.Symbole22_8" height="56.0" id="back" transform="matrix(1.0, 0.0, 0.0, 1.0, 0.0, 0.0)" width="56.0" xlink:href="#sprite7"/>
    </g>
    <g id="sprite7" transform="matrix(1.0, 0.0, 0.0, 1.0, 0.0, 0.0)">
      <use ffdec:characterId="6" ffdec:characterName="272_fla.Symbole19_9" height="56.0" id="back" transform="matrix(1.0, 0.0, 0.0, 1.0, 0.0, 0.0)" width="56.0" xlink:href="#sprite8"/>
    </g>
    <g id="sprite8" transform="matrix(1.0, 0.0, 0.0, 1.0, 0.0, 0.0)">
      <use ffdec:characterId="5" ffdec:characterName="272_fla.Symbole16_10" height="56.0" id="back" transform="matrix(1.0, 0.0, 0.0, 1.0, 0.0, 0.0)" width="56.0" xlink:href="#sprite9"/>
    </g>
    <g id="sprite9" transform="matrix(1.0, 0.0, 0.0, 1.0, 0.0, 0.0)">
      <use ffdec:characterId="4" ffdec:characterName="272_fla.Symbole13_11" height="56.0" id="back" transform="matrix(1.0, 0.0, 0.0, 1.0, 0.0, 0.0)" width="56.0" xlink:href="#sprite10"/>
    </g>
    <g id="sprite10" transform="matrix(1.0, 0.0, 0.0, 1.0, 0.0, 0.0)">
      <use ffdec:characterId="3" ffdec:characterName="272_fla.Symbole10_12" height="56.0" id="back" transform="matrix(1.0, 0.0, 0.0, 1.0, 0.0, 0.0)" width="56.0" xlink:href="#sprite11"/>
    </g>
    <g id="sprite11" transform="matrix(1.0, 0.0, 0.0, 1.0, 0.0, 0.0)">
      <use ffdec:characterId="2" height="56.0" id="back" transform="matrix(1.0, 0.0, 0.0, 1.0, 0.0, 0.0)" width="56.0" xlink:href="#sprite12"/>
    </g>
    <g id="sprite12" transform="matrix(1.0, 0.0, 0.0, 1.0, 0.0, 0.0)">
      <use ffdec:characterId="1" height="56.0" transform="matrix(1.0, 0.0, 0.0, 1.0, 0.0, 0.0)" width="56.0" xlink:href="#shape0"/>
    </g>
    <g id="shape0" transform="matrix(1.0, 0.0, 0.0, 1.0, 0.0, 0.0)">
      <path d="M56.0 56.0 L0.0 56.0 0.0 0.0 56.0 0.0 56.0 56.0" fill="#010101" fill-opacity="0.0" fill-rule="evenodd" stroke="none"/>
    </g>
    <g id="sprite13" transform="matrix(1.0, 0.0, 0.0, 1.0, 0.75, 0.75)">
      <use ffdec:characterId="15" height="55.25" transform="matrix(1.0, 0.0, 0.0, 1.0, -0.75, -0.75)" width="54.4" xlink:href="#shape1"/>
    </g>
    <g id="shape1" transform="matrix(1.0, 0.0, 0.0, 1.0, 0.75, 0.75)">
      <path d="M49.0 6.05 Q44.75 9.7 41.1 13.5 L7.5 48.85 Q16.7 46.1 21.5 46.1 28.15 46.1 35.9 49.05 40.2 50.5 41.95 50.5 43.85 50.5 44.95 49.7 45.85 48.85 45.85 47.25 L45.4 45.2 44.95 43.3 Q44.95 42.1 45.75 41.2 46.6 40.25 47.8 40.25 49.1 40.25 50.1 41.35 50.9 42.5 50.9 44.2 50.9 48.3 47.6 51.0 44.3 53.65 40.15 53.65 L31.35 52.85 15.8 51.95 Q6.25 51.95 3.0 53.3 L1.1 53.75 0.25 53.4 0.0 52.6 Q0.0 51.3 1.55 49.75 L8.05 43.2 20.1 30.9 33.05 17.8 Q37.75 13.05 42.4 7.3 L36.6 7.85 Q31.9 7.85 25.4 6.05 L20.35 4.95 Q18.55 4.95 17.55 5.65 16.6 6.4 16.6 7.5 16.6 8.7 17.9 9.75 L19.75 11.5 Q20.1 12.05 20.1 12.95 20.1 14.05 19.35 14.8 18.65 15.5 17.55 15.5 15.7 15.5 14.55 13.95 13.35 12.35 13.35 9.7 13.35 5.95 16.1 3.2 19.0 0.6 23.1 0.6 L29.4 1.2 41.95 2.4 Q46.15 2.4 50.0 0.6 51.05 0.0 51.55 0.0 51.95 0.0 52.55 0.4 52.9 0.75 52.9 1.2 52.9 2.5 49.0 6.05 Z" fill="none" stroke="#000000" stroke-linecap="round" stroke-linejoin="round" stroke-opacity="0.2" stroke-width="1.5"/>
    </g>
    <g id="sprite14" transform="matrix(1.0, 0.0, 0.0, 1.0, 0.0, 0.0)">
      <use ffdec:characterId="17" height="53.75" transform="matrix(1.0, 0.0, 0.0, 1.0, 0.0, 0.0)" width="52.9" xlink:href="#shape2"/>
    </g>
    <g id="shape2" transform="matrix(1.0, 0.0, 0.0, 1.0, 0.0, 0.0)">
      <path d="M49.0 6.05 Q44.75 9.7 41.1 13.5 L7.5 48.85 Q16.75 46.1 21.5 46.1 28.2 46.1 35.9 49.05 40.2 50.5 42.0 50.5 43.85 50.5 44.95 49.7 45.85 48.85 45.85 47.25 L45.45 45.2 Q44.95 43.9 44.95 43.3 44.95 42.1 45.8 41.2 46.6 40.25 47.8 40.25 49.1 40.25 50.1 41.35 50.9 42.5 50.9 44.2 50.9 48.3 47.6 51.0 44.35 53.65 40.15 53.65 L31.35 52.85 15.8 51.95 Q6.25 51.95 3.05 53.3 L1.1 53.75 Q0.75 53.75 0.3 53.4 0.0 53.05 0.0 52.6 0.0 51.3 1.6 49.75 L8.1 43.2 Q11.95 39.0 20.1 30.9 L33.1 17.8 Q37.75 13.05 42.4 7.3 L36.65 7.85 Q31.95 7.85 25.45 6.05 21.5 4.95 20.4 4.95 18.55 4.95 17.55 5.65 16.65 6.4 16.65 7.5 16.65 8.7 17.95 9.75 19.4 10.85 19.75 11.5 20.1 12.05 20.1 12.95 20.1 14.05 19.4 14.8 18.65 15.5 17.55 15.5 15.7 15.5 14.55 13.95 13.35 12.35 13.35 9.7 13.35 5.95 16.1 3.2 19.05 0.6 23.15 0.6 L29.45 1.2 42.0 2.4 Q46.15 2.4 50.0 0.6 51.05 0.0 51.55 0.0 52.0 0.0 52.55 0.4 52.9 0.75 52.9 1.2 52.9 2.5 49.0 6.05" fill="#000000" fill-rule="evenodd" stroke="none"/>
    </g>
  </defs>
</svg>
