<?xml version="1.0" encoding="UTF-8" standalone="no"?>
<svg xmlns:ffdec="https://www.free-decompiler.com/flash" xmlns:xlink="http://www.w3.org/1999/xlink" ffdec:objectType="frame" height="56.0px" width="56.0px" xmlns="http://www.w3.org/2000/svg">
  <g transform="matrix(1.0, 0.0, 0.0, 1.0, 0.0, 0.0)">
    <use ffdec:characterId="29" ffdec:characterName="28_fla.Symbole84_1" height="56.0" id="back" transform="matrix(1.0, 0.0, 0.0, 1.0, 0.0, 0.0)" width="56.0" xlink:href="#sprite0"/>
    <use ffdec:characterId="31" height="55.55" id="back" transform="matrix(1.0, 0.0, 0.0, 1.0, 0.4, 0.45)" width="55.4" xlink:href="#sprite28"/>
    <use ffdec:characterId="33" height="54.0" id="up" transform="matrix(1.0, 0.0, 0.0, 1.0, 1.15, 1.25)" width="53.9" xlink:href="#sprite29"/>
  </g>
  <defs>
    <g id="sprite0" transform="matrix(1.0, 0.0, 0.0, 1.0, 0.0, 0.0)">
      <use ffdec:characterId="28" ffdec:characterName="28_fla.Symbole81_2" height="56.0" id="back" transform="matrix(1.0, 0.0, 0.0, 1.0, 0.0, 0.0)" width="56.0" xlink:href="#sprite1"/>
    </g>
    <g id="sprite1" transform="matrix(1.0, 0.0, 0.0, 1.0, 0.0, 0.0)">
      <use ffdec:characterId="27" ffdec:characterName="28_fla.Symbole78_3" height="56.0" id="back" transform="matrix(1.0, 0.0, 0.0, 1.0, 0.0, 0.0)" width="56.0" xlink:href="#sprite2"/>
    </g>
    <g id="sprite2" transform="matrix(1.0, 0.0, 0.0, 1.0, 0.0, 0.0)">
      <use ffdec:characterId="26" ffdec:characterName="28_fla.Symbole75_4" height="56.0" id="back" transform="matrix(1.0, 0.0, 0.0, 1.0, 0.0, 0.0)" width="56.0" xlink:href="#sprite3"/>
    </g>
    <g id="sprite3" transform="matrix(1.0, 0.0, 0.0, 1.0, 0.0, 0.0)">
      <use ffdec:characterId="25" ffdec:characterName="28_fla.Symbole72_5" height="56.0" id="back" transform="matrix(1.0, 0.0, 0.0, 1.0, 0.0, 0.0)" width="56.0" xlink:href="#sprite4"/>
    </g>
    <g id="sprite4" transform="matrix(1.0, 0.0, 0.0, 1.0, 0.0, 0.0)">
      <use ffdec:characterId="24" ffdec:characterName="28_fla.Symbole69_6" height="56.0" id="back" transform="matrix(1.0, 0.0, 0.0, 1.0, 0.0, 0.0)" width="56.0" xlink:href="#sprite5"/>
    </g>
    <g id="sprite5" transform="matrix(1.0, 0.0, 0.0, 1.0, 0.0, 0.0)">
      <use ffdec:characterId="23" ffdec:characterName="28_fla.Symbole66_7" height="56.0" id="back" transform="matrix(1.0, 0.0, 0.0, 1.0, 0.0, 0.0)" width="56.0" xlink:href="#sprite6"/>
    </g>
    <g id="sprite6" transform="matrix(1.0, 0.0, 0.0, 1.0, 0.0, 0.0)">
      <use ffdec:characterId="22" ffdec:characterName="28_fla.Symbole63_8" height="56.0" id="back" transform="matrix(1.0, 0.0, 0.0, 1.0, 0.0, 0.0)" width="56.0" xlink:href="#sprite7"/>
    </g>
    <g id="sprite7" transform="matrix(1.0, 0.0, 0.0, 1.0, 0.0, 0.0)">
      <use ffdec:characterId="21" ffdec:characterName="28_fla.Symbole60_9" height="56.0" id="back" transform="matrix(1.0, 0.0, 0.0, 1.0, 0.0, 0.0)" width="56.0" xlink:href="#sprite8"/>
    </g>
    <g id="sprite8" transform="matrix(1.0, 0.0, 0.0, 1.0, 0.0, 0.0)">
      <use ffdec:characterId="20" ffdec:characterName="28_fla.Symbole57_10" height="56.0" id="back" transform="matrix(1.0, 0.0, 0.0, 1.0, 0.0, 0.0)" width="56.0" xlink:href="#sprite9"/>
    </g>
    <g id="sprite9" transform="matrix(1.0, 0.0, 0.0, 1.0, 0.0, 0.0)">
      <use ffdec:characterId="19" ffdec:characterName="28_fla.Symbole54_11" height="56.0" id="back" transform="matrix(1.0, 0.0, 0.0, 1.0, 0.0, 0.0)" width="56.0" xlink:href="#sprite10"/>
    </g>
    <g id="sprite10" transform="matrix(1.0, 0.0, 0.0, 1.0, 0.0, 0.0)">
      <use ffdec:characterId="18" ffdec:characterName="28_fla.Symbole51_12" height="56.0" id="back" transform="matrix(1.0, 0.0, 0.0, 1.0, 0.0, 0.0)" width="56.0" xlink:href="#sprite11"/>
    </g>
    <g id="sprite11" transform="matrix(1.0, 0.0, 0.0, 1.0, 0.0, 0.0)">
      <use ffdec:characterId="17" ffdec:characterName="28_fla.Symbole48_13" height="56.0" id="back" transform="matrix(1.0, 0.0, 0.0, 1.0, 0.0, 0.0)" width="56.0" xlink:href="#sprite12"/>
    </g>
    <g id="sprite12" transform="matrix(1.0, 0.0, 0.0, 1.0, 0.0, 0.0)">
      <use ffdec:characterId="16" ffdec:characterName="28_fla.Symbole45_14" height="56.0" id="back" transform="matrix(1.0, 0.0, 0.0, 1.0, 0.0, 0.0)" width="56.0" xlink:href="#sprite13"/>
    </g>
    <g id="sprite13" transform="matrix(1.0, 0.0, 0.0, 1.0, 0.0, 0.0)">
      <use ffdec:characterId="15" ffdec:characterName="28_fla.Symbole42_15" height="56.0" id="back" transform="matrix(1.0, 0.0, 0.0, 1.0, 0.0, 0.0)" width="56.0" xlink:href="#sprite14"/>
    </g>
    <g id="sprite14" transform="matrix(1.0, 0.0, 0.0, 1.0, 0.0, 0.0)">
      <use ffdec:characterId="14" ffdec:characterName="28_fla.Symbole39_16" height="56.0" id="back" transform="matrix(1.0, 0.0, 0.0, 1.0, 0.0, 0.0)" width="56.0" xlink:href="#sprite15"/>
    </g>
    <g id="sprite15" transform="matrix(1.0, 0.0, 0.0, 1.0, 0.0, 0.0)">
      <use ffdec:characterId="13" ffdec:characterName="28_fla.Symbole36_17" height="56.0" id="back" transform="matrix(1.0, 0.0, 0.0, 1.0, 0.0, 0.0)" width="56.0" xlink:href="#sprite16"/>
    </g>
    <g id="sprite16" transform="matrix(1.0, 0.0, 0.0, 1.0, 0.0, 0.0)">
      <use ffdec:characterId="12" ffdec:characterName="28_fla.Symbole33_18" height="56.0" id="back" transform="matrix(1.0, 0.0, 0.0, 1.0, 0.0, 0.0)" width="56.0" xlink:href="#sprite17"/>
    </g>
    <g id="sprite17" transform="matrix(1.0, 0.0, 0.0, 1.0, 0.0, 0.0)">
      <use ffdec:characterId="11" ffdec:characterName="28_fla.Symbole30_19" height="56.0" id="back" transform="matrix(1.0, 0.0, 0.0, 1.0, 0.0, 0.0)" width="56.0" xlink:href="#sprite18"/>
    </g>
    <g id="sprite18" transform="matrix(1.0, 0.0, 0.0, 1.0, 0.0, 0.0)">
      <use ffdec:characterId="10" ffdec:characterName="28_fla.Symbole27_20" height="56.0" id="back" transform="matrix(1.0, 0.0, 0.0, 1.0, 0.0, 0.0)" width="56.0" xlink:href="#sprite19"/>
    </g>
    <g id="sprite19" transform="matrix(1.0, 0.0, 0.0, 1.0, 0.0, 0.0)">
      <use ffdec:characterId="9" ffdec:characterName="28_fla.Symbole24_21" height="56.0" id="back" transform="matrix(1.0, 0.0, 0.0, 1.0, 0.0, 0.0)" width="56.0" xlink:href="#sprite20"/>
    </g>
    <g id="sprite20" transform="matrix(1.0, 0.0, 0.0, 1.0, 0.0, 0.0)">
      <use ffdec:characterId="8" ffdec:characterName="28_fla.Symbole21_22" height="56.0" id="back" transform="matrix(1.0, 0.0, 0.0, 1.0, 0.0, 0.0)" width="56.0" xlink:href="#sprite21"/>
    </g>
    <g id="sprite21" transform="matrix(1.0, 0.0, 0.0, 1.0, 0.0, 0.0)">
      <use ffdec:characterId="7" ffdec:characterName="28_fla.Symbole18_23" height="56.0" id="back" transform="matrix(1.0, 0.0, 0.0, 1.0, 0.0, 0.0)" width="56.0" xlink:href="#sprite22"/>
    </g>
    <g id="sprite22" transform="matrix(1.0, 0.0, 0.0, 1.0, 0.0, 0.0)">
      <use ffdec:characterId="6" ffdec:characterName="28_fla.Symbole15_24" height="56.0" id="back" transform="matrix(1.0, 0.0, 0.0, 1.0, 0.0, 0.0)" width="56.0" xlink:href="#sprite23"/>
    </g>
    <g id="sprite23" transform="matrix(1.0, 0.0, 0.0, 1.0, 0.0, 0.0)">
      <use ffdec:characterId="5" ffdec:characterName="28_fla.Symbole12_25" height="56.0" id="back" transform="matrix(1.0, 0.0, 0.0, 1.0, 0.0, 0.0)" width="56.0" xlink:href="#sprite24"/>
    </g>
    <g id="sprite24" transform="matrix(1.0, 0.0, 0.0, 1.0, 0.0, 0.0)">
      <use ffdec:characterId="4" ffdec:characterName="28_fla.Symbole9_26" height="56.0" id="back" transform="matrix(1.0, 0.0, 0.0, 1.0, 0.0, 0.0)" width="56.0" xlink:href="#sprite25"/>
    </g>
    <g id="sprite25" transform="matrix(1.0, 0.0, 0.0, 1.0, 0.0, 0.0)">
      <use ffdec:characterId="3" ffdec:characterName="28_fla.Symbole6_27" height="56.0" id="back" transform="matrix(1.0, 0.0, 0.0, 1.0, 0.0, 0.0)" width="56.0" xlink:href="#sprite26"/>
    </g>
    <g id="sprite26" transform="matrix(1.0, 0.0, 0.0, 1.0, 0.0, 0.0)">
      <use ffdec:characterId="2" height="56.0" id="back" transform="matrix(1.0, 0.0, 0.0, 1.0, 0.0, 0.0)" width="56.0" xlink:href="#sprite27"/>
    </g>
    <g id="sprite27" transform="matrix(1.0, 0.0, 0.0, 1.0, 0.0, 0.0)">
      <use ffdec:characterId="1" height="56.0" transform="matrix(1.0, 0.0, 0.0, 1.0, 0.0, 0.0)" width="56.0" xlink:href="#shape0"/>
    </g>
    <g id="shape0" transform="matrix(1.0, 0.0, 0.0, 1.0, 0.0, 0.0)">
      <path d="M56.0 56.0 L0.0 56.0 0.0 0.0 56.0 0.0 56.0 56.0" fill="#010101" fill-opacity="0.0" fill-rule="evenodd" stroke="none"/>
    </g>
    <g id="sprite28" transform="matrix(1.0, 0.0, 0.0, 1.0, 0.75, 0.75)">
      <use ffdec:characterId="30" height="55.55" transform="matrix(1.0, 0.0, 0.0, 1.0, -0.75, -0.75)" width="55.4" xlink:href="#shape1"/>
    </g>
    <g id="shape1" transform="matrix(1.0, 0.0, 0.0, 1.0, 0.75, 0.75)">
      <path d="M53.9 27.0 Q51.55 27.65 48.75 29.2 L44.0 31.8 Q38.3 34.8 34.5 34.75 34.65 38.4 31.7 44.1 L29.1 48.85 Q27.6 51.65 26.95 54.05 26.25 51.65 24.75 48.85 L22.25 44.1 Q19.2 38.4 19.35 34.75 15.55 34.8 9.9 31.8 L5.1 29.2 Q2.3 27.65 0.0 27.0 2.3 26.3 5.1 24.85 L9.9 22.25 Q15.55 19.25 19.35 19.4 19.2 15.6 22.25 9.95 L24.75 5.2 Q26.25 2.3 26.95 0.0 27.6 2.3 29.1 5.2 L31.7 9.95 Q34.65 15.6 34.5 19.4 38.3 19.25 44.0 22.25 L48.75 24.85 Q51.55 26.3 53.9 27.0 M50.2 27.0 Q42.85 23.1 34.95 21.4 30.55 22.9 34.05 25.7 35.3 26.75 37.0 26.75 L37.25 27.0 37.0 27.4 Q31.9 27.45 33.15 31.5 33.35 32.15 34.05 32.25 39.9 32.55 45.1 29.4 47.45 27.9 50.2 27.0 M26.95 3.65 Q25.45 7.75 23.3 11.45 20.5 16.0 22.4 20.7 22.65 21.85 23.85 21.3 26.65 20.0 26.95 16.65 27.4 18.55 28.65 20.45 29.8 22.2 31.3 21.0 32.9 19.6 32.35 17.5 31.25 12.3 28.5 7.7 L26.95 3.65 M39.0 18.4 L35.6 18.4 35.6 15.05 39.0 15.05 39.0 18.4 M15.05 15.05 L18.3 15.05 18.3 18.4 15.05 18.4 15.05 15.05 M18.3 35.65 L18.3 39.05 15.05 39.05 15.05 35.65 18.3 35.65 M12.5 31.25 Q17.4 33.9 21.25 31.05 21.7 30.65 21.35 30.05 20.0 27.25 16.6 27.0 18.75 26.6 20.65 25.25 22.4 23.7 20.5 22.4 18.35 20.75 15.75 22.0 9.7 24.4 3.7 27.0 8.25 28.75 12.5 31.25 M29.7 32.65 Q27.1 34.05 27.1 37.35 L26.75 37.35 Q26.5 35.35 25.7 33.7 25.25 33.05 24.55 32.8 L23.7 32.4 Q19.8 34.5 22.0 39.3 L26.25 48.6 26.95 50.25 Q28.7 45.75 31.25 41.5 34.05 36.5 30.85 32.8 30.4 32.25 29.7 32.65 M39.0 35.65 L39.0 39.05 35.6 39.05 35.6 35.65 39.0 35.65 M28.2 29.95 Q29.7 28.05 31.45 27.0 28.65 25.4 26.95 22.5 25.4 25.3 22.4 27.0 L24.1 28.2 Q25.9 29.75 26.95 31.55 L28.2 29.95 Z" fill="none" stroke="#000000" stroke-linecap="round" stroke-linejoin="round" stroke-opacity="0.2" stroke-width="1.5"/>
    </g>
    <g id="sprite29" transform="matrix(1.0, 0.0, 0.0, 1.0, 0.0, 0.0)">
      <use ffdec:characterId="32" height="54.0" transform="matrix(1.0, 0.0, 0.0, 1.0, 0.0, 0.0)" width="53.9" xlink:href="#shape2"/>
    </g>
    <g id="shape2" transform="matrix(1.0, 0.0, 0.0, 1.0, 0.0, 0.0)">
      <path d="M50.15 27.0 Q42.8 23.1 34.9 21.4 30.55 22.9 34.05 25.7 35.3 26.7 37.0 26.7 37.2 26.7 37.2 27.0 L37.0 27.35 Q31.9 27.45 33.1 31.45 33.35 32.1 34.05 32.2 39.9 32.55 45.05 29.4 47.4 27.85 50.15 27.0 M53.9 27.0 Q51.5 27.65 48.7 29.15 L43.95 31.75 Q38.3 34.8 34.5 34.7 34.65 38.4 31.7 44.1 L29.1 48.85 Q27.6 51.65 26.95 54.0 26.2 51.65 24.7 48.85 L22.2 44.1 Q19.2 38.4 19.3 34.7 15.5 34.8 9.9 31.75 L5.1 29.15 Q2.3 27.65 0.0 27.0 2.3 26.3 5.1 24.85 L9.9 22.25 Q15.5 19.2 19.3 19.35 19.2 15.55 22.2 9.95 L24.7 5.15 Q26.2 2.3 26.95 0.0 27.6 2.3 29.1 5.15 L31.7 9.95 Q34.65 15.55 34.5 19.35 38.3 19.2 43.95 22.25 L48.7 24.85 Q51.5 26.3 53.9 27.0 M26.95 3.65 Q25.45 7.75 23.25 11.45 20.45 16.0 22.35 20.65 22.65 21.8 23.85 21.3 26.65 20.0 26.95 16.65 27.35 18.55 28.6 20.45 29.75 22.2 31.25 20.95 32.9 19.6 32.35 17.5 31.2 12.3 28.45 7.7 L26.95 3.65 M35.55 15.05 L38.95 15.05 38.95 18.35 35.55 18.35 35.55 15.05 M15.0 15.05 L18.25 15.05 18.25 18.35 15.0 18.35 15.0 15.05 M15.0 39.05 L15.0 35.65 18.25 35.65 18.25 39.05 15.0 39.05 M12.5 31.25 Q17.4 33.9 21.25 31.05 21.7 30.6 21.35 30.05 19.95 27.2 16.6 27.0 18.75 26.55 20.6 25.2 22.35 23.7 20.45 22.4 18.3 20.75 15.75 21.95 L3.65 27.0 Q8.2 28.75 12.5 31.25 M29.65 32.6 Q27.1 34.05 27.1 37.3 L26.7 37.3 Q26.5 35.35 25.65 33.7 25.2 33.05 24.5 32.75 L23.65 32.4 Q19.75 34.5 22.0 39.3 L26.2 48.55 26.95 50.25 Q28.65 45.75 31.2 41.5 34.0 36.5 30.8 32.75 30.4 32.2 29.65 32.6 M38.95 35.65 L38.95 39.05 35.55 39.05 35.55 35.65 38.95 35.65 M26.95 31.55 Q27.3 30.8 28.15 29.95 29.65 28.0 31.45 27.0 28.6 25.4 26.95 22.45 25.35 25.25 22.35 27.0 L24.05 28.25 Q25.85 29.75 26.95 31.55" fill="#000000" fill-rule="evenodd" stroke="none"/>
    </g>
  </defs>
</svg>
