<?xml version="1.0" encoding="UTF-8" standalone="no"?>
<svg xmlns:ffdec="https://www.free-decompiler.com/flash" xmlns:xlink="http://www.w3.org/1999/xlink" ffdec:objectType="frame" height="56.0px" width="56.0px" xmlns="http://www.w3.org/2000/svg">
  <g transform="matrix(1.0, 0.0, 0.0, 1.0, 0.0, 0.0)">
    <use ffdec:characterId="31" ffdec:characterName="289_fla.Symbole94_1" height="56.0" id="back" transform="matrix(1.0, 0.0, 0.0, 1.0, 0.0, 0.0)" width="56.0" xlink:href="#sprite0"/>
    <use ffdec:characterId="33" height="49.05" id="back" transform="matrix(1.0, 0.0, 0.0, 1.0674, 0.35, 1.6495)" width="55.35" xlink:href="#sprite30"/>
    <use ffdec:characterId="35" height="47.5" id="up" transform="matrix(1.0, 0.0, 0.0, 1.0674, 1.1, 2.45)" width="53.85" xlink:href="#sprite31"/>
  </g>
  <defs>
    <g id="sprite0" transform="matrix(1.0, 0.0, 0.0, 1.0, 0.0, 0.0)">
      <use ffdec:characterId="30" ffdec:characterName="289_fla.Symbole91_2" height="56.0" id="back" transform="matrix(1.0, 0.0, 0.0, 1.0, 0.0, 0.0)" width="56.0" xlink:href="#sprite1"/>
    </g>
    <g id="sprite1" transform="matrix(1.0, 0.0, 0.0, 1.0, 0.0, 0.0)">
      <use ffdec:characterId="29" ffdec:characterName="289_fla.Symbole88_3" height="56.0" id="back" transform="matrix(1.0, 0.0, 0.0, 1.0, 0.0, 0.0)" width="56.0" xlink:href="#sprite2"/>
    </g>
    <g id="sprite2" transform="matrix(1.0, 0.0, 0.0, 1.0, 0.0, 0.0)">
      <use ffdec:characterId="28" ffdec:characterName="289_fla.Symbole85_4" height="56.0" id="back" transform="matrix(1.0, 0.0, 0.0, 1.0, 0.0, 0.0)" width="56.0" xlink:href="#sprite3"/>
    </g>
    <g id="sprite3" transform="matrix(1.0, 0.0, 0.0, 1.0, 0.0, 0.0)">
      <use ffdec:characterId="27" ffdec:characterName="289_fla.Symbole82_5" height="56.0" id="back" transform="matrix(1.0, 0.0, 0.0, 1.0, 0.0, 0.0)" width="56.0" xlink:href="#sprite4"/>
    </g>
    <g id="sprite4" transform="matrix(1.0, 0.0, 0.0, 1.0, 0.0, 0.0)">
      <use ffdec:characterId="26" ffdec:characterName="289_fla.Symbole79_6" height="56.0" id="back" transform="matrix(1.0, 0.0, 0.0, 1.0, 0.0, 0.0)" width="56.0" xlink:href="#sprite5"/>
    </g>
    <g id="sprite5" transform="matrix(1.0, 0.0, 0.0, 1.0, 0.0, 0.0)">
      <use ffdec:characterId="25" ffdec:characterName="289_fla.Symbole76_7" height="56.0" id="back" transform="matrix(1.0, 0.0, 0.0, 1.0, 0.0, 0.0)" width="56.0" xlink:href="#sprite6"/>
    </g>
    <g id="sprite6" transform="matrix(1.0, 0.0, 0.0, 1.0, 0.0, 0.0)">
      <use ffdec:characterId="24" ffdec:characterName="289_fla.Symbole73_8" height="56.0" id="back" transform="matrix(1.0, 0.0, 0.0, 1.0, 0.0, 0.0)" width="56.0" xlink:href="#sprite7"/>
    </g>
    <g id="sprite7" transform="matrix(1.0, 0.0, 0.0, 1.0, 0.0, 0.0)">
      <use ffdec:characterId="23" ffdec:characterName="289_fla.Symbole70_9" height="56.0" id="back" transform="matrix(1.0, 0.0, 0.0, 1.0, 0.0, 0.0)" width="56.0" xlink:href="#sprite8"/>
    </g>
    <g id="sprite8" transform="matrix(1.0, 0.0, 0.0, 1.0, 0.0, 0.0)">
      <use ffdec:characterId="22" ffdec:characterName="289_fla.Symbole67_10" height="56.0" id="back" transform="matrix(1.0, 0.0, 0.0, 1.0, 0.0, 0.0)" width="56.0" xlink:href="#sprite9"/>
    </g>
    <g id="sprite9" transform="matrix(1.0, 0.0, 0.0, 1.0, 0.0, 0.0)">
      <use ffdec:characterId="21" ffdec:characterName="289_fla.Symbole64_11" height="56.0" id="back" transform="matrix(1.0, 0.0, 0.0, 1.0, 0.0, 0.0)" width="56.0" xlink:href="#sprite10"/>
    </g>
    <g id="sprite10" transform="matrix(1.0, 0.0, 0.0, 1.0, 0.0, 0.0)">
      <use ffdec:characterId="20" ffdec:characterName="289_fla.Symbole61_12" height="56.0" id="back" transform="matrix(1.0, 0.0, 0.0, 1.0, 0.0, 0.0)" width="56.0" xlink:href="#sprite11"/>
    </g>
    <g id="sprite11" transform="matrix(1.0, 0.0, 0.0, 1.0, 0.0, 0.0)">
      <use ffdec:characterId="19" ffdec:characterName="289_fla.Symbole58_13" height="56.0" id="back" transform="matrix(1.0, 0.0, 0.0, 1.0, 0.0, 0.0)" width="56.0" xlink:href="#sprite12"/>
    </g>
    <g id="sprite12" transform="matrix(1.0, 0.0, 0.0, 1.0, 0.0, 0.0)">
      <use ffdec:characterId="18" ffdec:characterName="289_fla.Symbole55_14" height="56.0" id="back" transform="matrix(1.0, 0.0, 0.0, 1.0, 0.0, 0.0)" width="56.0" xlink:href="#sprite13"/>
    </g>
    <g id="sprite13" transform="matrix(1.0, 0.0, 0.0, 1.0, 0.0, 0.0)">
      <use ffdec:characterId="17" ffdec:characterName="289_fla.Symbole52_15" height="56.0" id="back" transform="matrix(1.0, 0.0, 0.0, 1.0, 0.0, 0.0)" width="56.0" xlink:href="#sprite14"/>
    </g>
    <g id="sprite14" transform="matrix(1.0, 0.0, 0.0, 1.0, 0.0, 0.0)">
      <use ffdec:characterId="16" ffdec:characterName="289_fla.Symbole49_16" height="56.0" id="back" transform="matrix(1.0, 0.0, 0.0, 1.0, 0.0, 0.0)" width="56.0" xlink:href="#sprite15"/>
    </g>
    <g id="sprite15" transform="matrix(1.0, 0.0, 0.0, 1.0, 0.0, 0.0)">
      <use ffdec:characterId="15" ffdec:characterName="289_fla.Symbole46_17" height="56.0" id="back" transform="matrix(1.0, 0.0, 0.0, 1.0, 0.0, 0.0)" width="56.0" xlink:href="#sprite16"/>
    </g>
    <g id="sprite16" transform="matrix(1.0, 0.0, 0.0, 1.0, 0.0, 0.0)">
      <use ffdec:characterId="14" ffdec:characterName="289_fla.Symbole43_18" height="56.0" id="back" transform="matrix(1.0, 0.0, 0.0, 1.0, 0.0, 0.0)" width="56.0" xlink:href="#sprite17"/>
    </g>
    <g id="sprite17" transform="matrix(1.0, 0.0, 0.0, 1.0, 0.0, 0.0)">
      <use ffdec:characterId="13" ffdec:characterName="289_fla.Symbole40_19" height="56.0" id="back" transform="matrix(1.0, 0.0, 0.0, 1.0, 0.0, 0.0)" width="56.0" xlink:href="#sprite18"/>
    </g>
    <g id="sprite18" transform="matrix(1.0, 0.0, 0.0, 1.0, 0.0, 0.0)">
      <use ffdec:characterId="12" ffdec:characterName="289_fla.Symbole37_20" height="56.0" id="back" transform="matrix(1.0, 0.0, 0.0, 1.0, 0.0, 0.0)" width="56.0" xlink:href="#sprite19"/>
    </g>
    <g id="sprite19" transform="matrix(1.0, 0.0, 0.0, 1.0, 0.0, 0.0)">
      <use ffdec:characterId="11" ffdec:characterName="289_fla.Symbole34_21" height="56.0" id="back" transform="matrix(1.0, 0.0, 0.0, 1.0, 0.0, 0.0)" width="56.0" xlink:href="#sprite20"/>
    </g>
    <g id="sprite20" transform="matrix(1.0, 0.0, 0.0, 1.0, 0.0, 0.0)">
      <use ffdec:characterId="10" ffdec:characterName="289_fla.Symbole31_22" height="56.0" id="back" transform="matrix(1.0, 0.0, 0.0, 1.0, 0.0, 0.0)" width="56.0" xlink:href="#sprite21"/>
    </g>
    <g id="sprite21" transform="matrix(1.0, 0.0, 0.0, 1.0, 0.0, 0.0)">
      <use ffdec:characterId="9" ffdec:characterName="289_fla.Symbole28_23" height="56.0" id="back" transform="matrix(1.0, 0.0, 0.0, 1.0, 0.0, 0.0)" width="56.0" xlink:href="#sprite22"/>
    </g>
    <g id="sprite22" transform="matrix(1.0, 0.0, 0.0, 1.0, 0.0, 0.0)">
      <use ffdec:characterId="8" ffdec:characterName="289_fla.Symbole25_24" height="56.0" id="back" transform="matrix(1.0, 0.0, 0.0, 1.0, 0.0, 0.0)" width="56.0" xlink:href="#sprite23"/>
    </g>
    <g id="sprite23" transform="matrix(1.0, 0.0, 0.0, 1.0, 0.0, 0.0)">
      <use ffdec:characterId="7" ffdec:characterName="289_fla.Symbole22_25" height="56.0" id="back" transform="matrix(1.0, 0.0, 0.0, 1.0, 0.0, 0.0)" width="56.0" xlink:href="#sprite24"/>
    </g>
    <g id="sprite24" transform="matrix(1.0, 0.0, 0.0, 1.0, 0.0, 0.0)">
      <use ffdec:characterId="6" ffdec:characterName="289_fla.Symbole19_26" height="56.0" id="back" transform="matrix(1.0, 0.0, 0.0, 1.0, 0.0, 0.0)" width="56.0" xlink:href="#sprite25"/>
    </g>
    <g id="sprite25" transform="matrix(1.0, 0.0, 0.0, 1.0, 0.0, 0.0)">
      <use ffdec:characterId="5" ffdec:characterName="289_fla.Symbole16_27" height="56.0" id="back" transform="matrix(1.0, 0.0, 0.0, 1.0, 0.0, 0.0)" width="56.0" xlink:href="#sprite26"/>
    </g>
    <g id="sprite26" transform="matrix(1.0, 0.0, 0.0, 1.0, 0.0, 0.0)">
      <use ffdec:characterId="4" ffdec:characterName="289_fla.Symbole13_28" height="56.0" id="back" transform="matrix(1.0, 0.0, 0.0, 1.0, 0.0, 0.0)" width="56.0" xlink:href="#sprite27"/>
    </g>
    <g id="sprite27" transform="matrix(1.0, 0.0, 0.0, 1.0, 0.0, 0.0)">
      <use ffdec:characterId="3" ffdec:characterName="289_fla.Symbole10_29" height="56.0" id="back" transform="matrix(1.0, 0.0, 0.0, 1.0, 0.0, 0.0)" width="56.0" xlink:href="#sprite28"/>
    </g>
    <g id="sprite28" transform="matrix(1.0, 0.0, 0.0, 1.0, 0.0, 0.0)">
      <use ffdec:characterId="2" height="56.0" id="back" transform="matrix(1.0, 0.0, 0.0, 1.0, 0.0, 0.0)" width="56.0" xlink:href="#sprite29"/>
    </g>
    <g id="sprite29" transform="matrix(1.0, 0.0, 0.0, 1.0, 0.0, 0.0)">
      <use ffdec:characterId="1" height="56.0" transform="matrix(1.0, 0.0, 0.0, 1.0, 0.0, 0.0)" width="56.0" xlink:href="#shape0"/>
    </g>
    <g id="shape0" transform="matrix(1.0, 0.0, 0.0, 1.0, 0.0, 0.0)">
      <path d="M56.0 56.0 L0.0 56.0 0.0 0.0 56.0 0.0 56.0 56.0" fill="#010101" fill-opacity="0.0" fill-rule="evenodd" stroke="none"/>
    </g>
    <g id="sprite30" transform="matrix(1.0, 0.0, 0.0, 1.0, 0.75, 0.75)">
      <use ffdec:characterId="32" height="49.05" transform="matrix(1.0, 0.0, 0.0, 1.0, -0.75, -0.75)" width="55.35" xlink:href="#shape1"/>
    </g>
    <g id="shape1" transform="matrix(1.0, 0.0, 0.0, 1.0, 0.75, 0.75)">
      <path d="M45.9 32.65 Q39.55 40.2 29.45 42.35 L53.85 42.35 Q52.55 47.55 45.9 47.55 L0.0 47.55 Q3.15 39.65 7.2 39.65 L8.3 39.75 19.1 42.35 Q23.3 42.35 28.65 37.85 33.65 33.5 36.15 28.5 38.9 22.85 38.9 18.35 38.9 13.05 35.4 9.85 32.15 7.2 27.4 7.2 22.9 7.2 19.6 9.25 16.0 11.8 16.0 16.25 18.65 13.25 22.7 13.25 26.3 13.25 28.8 15.6 31.35 17.95 31.35 21.15 31.35 24.45 28.65 26.7 26.1 28.9 22.7 28.9 16.65 28.9 13.1 24.8 9.8 21.05 9.8 15.55 9.8 9.25 14.9 4.85 20.6 0.0 30.3 0.0 41.05 0.0 46.8 5.15 51.85 9.85 51.85 17.3 51.85 25.5 45.9 32.65 Z" fill="none" stroke="#000000" stroke-linecap="round" stroke-linejoin="round" stroke-opacity="0.2" stroke-width="1.5"/>
    </g>
    <g id="sprite31" transform="matrix(1.0, 0.0, 0.0, 1.0, 0.0, 0.0)">
      <use ffdec:characterId="34" height="47.5" transform="matrix(1.0, 0.0, 0.0, 1.0, 0.0, 0.0)" width="53.85" xlink:href="#shape2"/>
    </g>
    <g id="shape2" transform="matrix(1.0, 0.0, 0.0, 1.0, 0.0, 0.0)">
      <path d="M45.9 32.65 Q39.5 40.15 29.4 42.35 L53.85 42.35 Q52.55 47.5 45.9 47.5 L0.0 47.5 Q3.15 39.65 7.15 39.65 L8.3 39.75 19.1 42.35 Q23.3 42.35 28.65 37.8 33.6 33.5 36.15 28.45 38.85 22.85 38.85 18.35 38.85 13.0 35.35 9.85 32.15 7.15 27.4 7.15 22.85 7.15 19.6 9.25 16.0 11.8 16.0 16.25 18.65 13.25 22.65 13.25 26.25 13.25 28.8 15.6 31.35 17.9 31.35 21.1 31.35 24.45 28.65 26.7 26.1 28.9 22.65 28.9 16.65 28.9 13.05 24.8 9.8 21.05 9.8 15.55 9.8 9.25 14.9 4.85 20.55 0.0 30.3 0.0 41.05 0.0 46.75 5.15 51.85 9.85 51.85 17.3 51.85 25.5 45.9 32.65" fill="#000000" fill-rule="evenodd" stroke="none"/>
    </g>
  </defs>
</svg>
