<?xml version="1.0" encoding="UTF-8" standalone="no"?>
<svg xmlns:ffdec="https://www.free-decompiler.com/flash" xmlns:xlink="http://www.w3.org/1999/xlink" ffdec:objectType="frame" height="56.0px" width="56.0px" xmlns="http://www.w3.org/2000/svg">
  <g transform="matrix(1.0, 0.0, 0.0, 1.0, 0.0, 0.0)">
    <use ffdec:characterId="4" ffdec:characterName="3_fla.Symbole9_1" height="56.0" id="back" transform="matrix(1.0, 0.0, 0.0, 1.0, 0.0, 0.0)" width="56.0" xlink:href="#sprite0"/>
    <use ffdec:characterId="6" height="55.55" id="back" transform="matrix(1.0, 0.0, 0.0, 1.0, 0.4, 0.45)" width="55.4" xlink:href="#sprite3"/>
    <use ffdec:characterId="8" height="54.05" id="up" transform="matrix(1.0, 0.0, 0.0, 1.0, 1.15, 1.2)" width="53.9" xlink:href="#sprite4"/>
  </g>
  <defs>
    <g id="sprite0" transform="matrix(1.0, 0.0, 0.0, 1.0, 0.0, 0.0)">
      <use ffdec:characterId="3" ffdec:characterName="3_fla.Symbole6_2" height="56.0" id="back" transform="matrix(1.0, 0.0, 0.0, 1.0, 0.0, 0.0)" width="56.0" xlink:href="#sprite1"/>
    </g>
    <g id="sprite1" transform="matrix(1.0, 0.0, 0.0, 1.0, 0.0, 0.0)">
      <use ffdec:characterId="2" height="56.0" id="back" transform="matrix(1.0, 0.0, 0.0, 1.0, 0.0, 0.0)" width="56.0" xlink:href="#sprite2"/>
    </g>
    <g id="sprite2" transform="matrix(1.0, 0.0, 0.0, 1.0, 0.0, 0.0)">
      <use ffdec:characterId="1" height="56.0" transform="matrix(1.0, 0.0, 0.0, 1.0, 0.0, 0.0)" width="56.0" xlink:href="#shape0"/>
    </g>
    <g id="shape0" transform="matrix(1.0, 0.0, 0.0, 1.0, 0.0, 0.0)">
      <path d="M56.0 56.0 L0.0 56.0 0.0 0.0 56.0 0.0 56.0 56.0" fill="#010101" fill-opacity="0.0" fill-rule="evenodd" stroke="none"/>
    </g>
    <g id="sprite3" transform="matrix(1.0, 0.0, 0.0, 1.0, 0.75, 0.75)">
      <use ffdec:characterId="5" height="55.55" transform="matrix(1.0, 0.0, 0.0, 1.0, -0.75, -0.75)" width="55.4" xlink:href="#shape1"/>
    </g>
    <g id="shape1" transform="matrix(1.0, 0.0, 0.0, 1.0, 0.75, 0.75)">
      <path d="M48.25 21.15 Q48.7 22.25 48.5 23.35 50.25 23.05 52.2 24.55 54.0 25.95 53.9 27.05 54.0 28.1 52.2 29.5 50.25 30.95 48.5 30.75 48.7 31.85 48.25 33.0 47.85 34.1 46.95 35.0 44.9 36.9 42.35 35.2 43.2 33.65 42.75 32.35 42.05 31.15 40.8 30.85 L35.05 30.6 30.4 30.6 30.4 35.35 Q30.4 40.0 30.65 40.85 30.95 42.15 32.2 42.7 33.5 43.35 35.05 42.4 36.65 45.0 34.85 47.1 L32.85 48.4 30.65 48.65 Q30.9 50.3 29.35 52.3 27.85 54.15 26.9 54.05 25.9 54.15 24.5 52.3 22.95 50.3 23.25 48.65 L21.0 48.4 Q19.8 47.95 19.0 47.1 17.05 45.0 18.8 42.4 20.35 43.35 21.65 42.7 22.75 42.15 23.05 40.85 L23.45 35.35 Q23.25 35.2 23.45 35.1 L23.45 30.55 Q21.2 30.4 18.85 30.55 L13.1 30.75 Q11.85 30.95 11.35 32.3 10.7 33.45 11.55 35.0 8.95 36.65 7.0 34.8 6.05 34.05 5.65 32.95 5.2 31.7 5.45 30.6 3.65 30.85 1.8 29.45 -0.2 27.95 0.0 27.0 -0.2 25.9 1.8 24.4 3.65 22.9 5.45 23.25 5.2 22.15 5.65 21.1 6.05 19.85 7.0 18.9 8.95 17.1 11.55 18.85 10.7 20.25 11.35 21.7 11.8 22.8 13.1 23.1 14.65 23.5 23.5 23.35 23.65 14.5 23.25 13.1 22.95 11.8 21.75 11.25 20.4 10.55 18.85 11.6 17.3 8.95 19.1 6.85 19.9 5.95 21.1 5.5 L23.45 5.3 Q23.05 3.65 24.6 1.7 25.9 -0.2 27.0 0.0 28.0 -0.2 29.4 1.7 30.95 3.65 30.7 5.3 L32.9 5.5 Q34.05 5.95 34.9 6.85 36.85 8.95 35.3 11.6 33.6 10.55 32.25 11.25 31.1 11.8 30.7 13.1 30.5 14.05 30.5 18.85 L30.5 23.55 35.15 23.55 40.8 23.25 Q42.05 22.9 42.75 21.8 43.2 20.4 42.35 18.9 44.9 17.2 46.95 19.15 47.85 19.95 48.25 21.15 Z" fill="none" stroke="#000000" stroke-linecap="round" stroke-linejoin="round" stroke-opacity="0.2" stroke-width="1.5"/>
    </g>
    <g id="sprite4" transform="matrix(1.0, 0.0, 0.0, 1.0, 0.0, 0.0)">
      <use ffdec:characterId="7" height="54.05" transform="matrix(1.0, 0.0, 0.0, 1.0, 0.0, 0.0)" width="53.9" xlink:href="#shape2"/>
    </g>
    <g id="shape2" transform="matrix(1.0, 0.0, 0.0, 1.0, 0.0, 0.0)">
      <path d="M48.25 21.15 Q48.7 22.25 48.5 23.35 50.25 23.05 52.2 24.55 54.0 25.95 53.9 27.05 54.0 28.1 52.2 29.5 50.25 30.95 48.5 30.75 48.7 31.85 48.25 33.0 47.85 34.1 46.95 35.0 44.9 36.9 42.35 35.2 43.2 33.65 42.75 32.35 42.05 31.15 40.8 30.85 L35.05 30.6 30.4 30.6 30.4 35.35 Q30.4 40.0 30.65 40.85 30.95 42.15 32.2 42.7 33.5 43.35 35.05 42.4 36.65 45.0 34.85 47.1 L32.85 48.4 30.65 48.65 Q30.9 50.3 29.35 52.3 27.85 54.15 26.9 54.05 25.9 54.15 24.5 52.3 22.95 50.3 23.25 48.65 L21.0 48.4 Q19.8 47.95 19.0 47.1 17.05 45.0 18.8 42.4 20.35 43.35 21.65 42.7 22.75 42.15 23.05 40.85 L23.45 35.35 Q23.25 35.2 23.45 35.1 L23.45 30.55 Q21.2 30.4 18.85 30.55 L13.1 30.75 Q11.85 30.95 11.35 32.3 10.7 33.45 11.55 35.0 8.95 36.65 7.0 34.8 6.05 34.05 5.65 32.95 5.2 31.7 5.45 30.6 3.65 30.85 1.8 29.45 -0.2 27.95 0.0 27.0 -0.2 25.9 1.8 24.4 3.65 22.9 5.45 23.25 5.2 22.15 5.65 21.1 6.05 19.85 7.0 18.9 8.95 17.1 11.55 18.85 10.7 20.25 11.35 21.7 11.8 22.8 13.1 23.1 14.65 23.5 23.5 23.35 23.65 14.5 23.25 13.1 22.95 11.8 21.75 11.25 20.4 10.55 18.85 11.6 17.3 8.95 19.1 6.85 19.9 5.95 21.1 5.5 L23.45 5.3 Q23.05 3.65 24.6 1.7 25.9 -0.2 27.0 0.0 28.0 -0.2 29.4 1.7 30.95 3.65 30.7 5.3 L32.9 5.5 Q34.05 5.95 34.9 6.85 36.85 8.95 35.3 11.6 33.6 10.55 32.25 11.25 31.1 11.8 30.7 13.1 30.5 14.05 30.5 18.85 L30.5 23.55 35.15 23.55 40.8 23.25 Q42.05 22.9 42.75 21.8 43.2 20.4 42.35 18.9 44.9 17.2 46.95 19.15 47.85 19.95 48.25 21.15" fill="#000000" fill-rule="evenodd" stroke="none"/>
    </g>
  </defs>
</svg>
