<?xml version="1.0" encoding="UTF-8" standalone="no"?>
<svg xmlns:ffdec="https://www.free-decompiler.com/flash" xmlns:xlink="http://www.w3.org/1999/xlink" ffdec:objectType="frame" height="56.0px" width="56.0px" xmlns="http://www.w3.org/2000/svg">
  <g transform="matrix(1.0, 0.0, 0.0, 1.0, 0.0, 0.0)">
    <use ffdec:characterId="32" ffdec:characterName="31_fla.Symbole93_1" height="56.0" id="back" transform="matrix(1.0, 0.0, 0.0, 1.0, 0.0, 0.0)" width="56.0" xlink:href="#sprite0"/>
    <use ffdec:characterId="34" height="55.55" id="back" transform="matrix(1.0, 0.0, 0.0, 1.0, 0.55, 0.45)" width="55.2" xlink:href="#sprite31"/>
    <use ffdec:characterId="36" height="54.05" id="up" transform="matrix(1.0, 0.0, 0.0, 1.0, 1.3, 1.2)" width="53.7" xlink:href="#sprite32"/>
  </g>
  <defs>
    <g id="sprite0" transform="matrix(1.0, 0.0, 0.0, 1.0, 0.0, 0.0)">
      <use ffdec:characterId="31" ffdec:characterName="31_fla.Symbole90_2" height="56.0" id="back" transform="matrix(1.0, 0.0, 0.0, 1.0, 0.0, 0.0)" width="56.0" xlink:href="#sprite1"/>
    </g>
    <g id="sprite1" transform="matrix(1.0, 0.0, 0.0, 1.0, 0.0, 0.0)">
      <use ffdec:characterId="30" ffdec:characterName="31_fla.Symbole87_3" height="56.0" id="back" transform="matrix(1.0, 0.0, 0.0, 1.0, 0.0, 0.0)" width="56.0" xlink:href="#sprite2"/>
    </g>
    <g id="sprite2" transform="matrix(1.0, 0.0, 0.0, 1.0, 0.0, 0.0)">
      <use ffdec:characterId="29" ffdec:characterName="31_fla.Symbole84_4" height="56.0" id="back" transform="matrix(1.0, 0.0, 0.0, 1.0, 0.0, 0.0)" width="56.0" xlink:href="#sprite3"/>
    </g>
    <g id="sprite3" transform="matrix(1.0, 0.0, 0.0, 1.0, 0.0, 0.0)">
      <use ffdec:characterId="28" ffdec:characterName="31_fla.Symbole81_5" height="56.0" id="back" transform="matrix(1.0, 0.0, 0.0, 1.0, 0.0, 0.0)" width="56.0" xlink:href="#sprite4"/>
    </g>
    <g id="sprite4" transform="matrix(1.0, 0.0, 0.0, 1.0, 0.0, 0.0)">
      <use ffdec:characterId="27" ffdec:characterName="31_fla.Symbole78_6" height="56.0" id="back" transform="matrix(1.0, 0.0, 0.0, 1.0, 0.0, 0.0)" width="56.0" xlink:href="#sprite5"/>
    </g>
    <g id="sprite5" transform="matrix(1.0, 0.0, 0.0, 1.0, 0.0, 0.0)">
      <use ffdec:characterId="26" ffdec:characterName="31_fla.Symbole75_7" height="56.0" id="back" transform="matrix(1.0, 0.0, 0.0, 1.0, 0.0, 0.0)" width="56.0" xlink:href="#sprite6"/>
    </g>
    <g id="sprite6" transform="matrix(1.0, 0.0, 0.0, 1.0, 0.0, 0.0)">
      <use ffdec:characterId="25" ffdec:characterName="31_fla.Symbole72_8" height="56.0" id="back" transform="matrix(1.0, 0.0, 0.0, 1.0, 0.0, 0.0)" width="56.0" xlink:href="#sprite7"/>
    </g>
    <g id="sprite7" transform="matrix(1.0, 0.0, 0.0, 1.0, 0.0, 0.0)">
      <use ffdec:characterId="24" ffdec:characterName="31_fla.Symbole69_9" height="56.0" id="back" transform="matrix(1.0, 0.0, 0.0, 1.0, 0.0, 0.0)" width="56.0" xlink:href="#sprite8"/>
    </g>
    <g id="sprite8" transform="matrix(1.0, 0.0, 0.0, 1.0, 0.0, 0.0)">
      <use ffdec:characterId="23" ffdec:characterName="31_fla.Symbole66_10" height="56.0" id="back" transform="matrix(1.0, 0.0, 0.0, 1.0, 0.0, 0.0)" width="56.0" xlink:href="#sprite9"/>
    </g>
    <g id="sprite9" transform="matrix(1.0, 0.0, 0.0, 1.0, 0.0, 0.0)">
      <use ffdec:characterId="22" ffdec:characterName="31_fla.Symbole63_11" height="56.0" id="back" transform="matrix(1.0, 0.0, 0.0, 1.0, 0.0, 0.0)" width="56.0" xlink:href="#sprite10"/>
    </g>
    <g id="sprite10" transform="matrix(1.0, 0.0, 0.0, 1.0, 0.0, 0.0)">
      <use ffdec:characterId="21" ffdec:characterName="31_fla.Symbole60_12" height="56.0" id="back" transform="matrix(1.0, 0.0, 0.0, 1.0, 0.0, 0.0)" width="56.0" xlink:href="#sprite11"/>
    </g>
    <g id="sprite11" transform="matrix(1.0, 0.0, 0.0, 1.0, 0.0, 0.0)">
      <use ffdec:characterId="20" ffdec:characterName="31_fla.Symbole57_13" height="56.0" id="back" transform="matrix(1.0, 0.0, 0.0, 1.0, 0.0, 0.0)" width="56.0" xlink:href="#sprite12"/>
    </g>
    <g id="sprite12" transform="matrix(1.0, 0.0, 0.0, 1.0, 0.0, 0.0)">
      <use ffdec:characterId="19" ffdec:characterName="31_fla.Symbole54_14" height="56.0" id="back" transform="matrix(1.0, 0.0, 0.0, 1.0, 0.0, 0.0)" width="56.0" xlink:href="#sprite13"/>
    </g>
    <g id="sprite13" transform="matrix(1.0, 0.0, 0.0, 1.0, 0.0, 0.0)">
      <use ffdec:characterId="18" ffdec:characterName="31_fla.Symbole51_15" height="56.0" id="back" transform="matrix(1.0, 0.0, 0.0, 1.0, 0.0, 0.0)" width="56.0" xlink:href="#sprite14"/>
    </g>
    <g id="sprite14" transform="matrix(1.0, 0.0, 0.0, 1.0, 0.0, 0.0)">
      <use ffdec:characterId="17" ffdec:characterName="31_fla.Symbole48_16" height="56.0" id="back" transform="matrix(1.0, 0.0, 0.0, 1.0, 0.0, 0.0)" width="56.0" xlink:href="#sprite15"/>
    </g>
    <g id="sprite15" transform="matrix(1.0, 0.0, 0.0, 1.0, 0.0, 0.0)">
      <use ffdec:characterId="16" ffdec:characterName="31_fla.Symbole45_17" height="56.0" id="back" transform="matrix(1.0, 0.0, 0.0, 1.0, 0.0, 0.0)" width="56.0" xlink:href="#sprite16"/>
    </g>
    <g id="sprite16" transform="matrix(1.0, 0.0, 0.0, 1.0, 0.0, 0.0)">
      <use ffdec:characterId="15" ffdec:characterName="31_fla.Symbole42_18" height="56.0" id="back" transform="matrix(1.0, 0.0, 0.0, 1.0, 0.0, 0.0)" width="56.0" xlink:href="#sprite17"/>
    </g>
    <g id="sprite17" transform="matrix(1.0, 0.0, 0.0, 1.0, 0.0, 0.0)">
      <use ffdec:characterId="14" ffdec:characterName="31_fla.Symbole39_19" height="56.0" id="back" transform="matrix(1.0, 0.0, 0.0, 1.0, 0.0, 0.0)" width="56.0" xlink:href="#sprite18"/>
    </g>
    <g id="sprite18" transform="matrix(1.0, 0.0, 0.0, 1.0, 0.0, 0.0)">
      <use ffdec:characterId="13" ffdec:characterName="31_fla.Symbole36_20" height="56.0" id="back" transform="matrix(1.0, 0.0, 0.0, 1.0, 0.0, 0.0)" width="56.0" xlink:href="#sprite19"/>
    </g>
    <g id="sprite19" transform="matrix(1.0, 0.0, 0.0, 1.0, 0.0, 0.0)">
      <use ffdec:characterId="12" ffdec:characterName="31_fla.Symbole33_21" height="56.0" id="back" transform="matrix(1.0, 0.0, 0.0, 1.0, 0.0, 0.0)" width="56.0" xlink:href="#sprite20"/>
    </g>
    <g id="sprite20" transform="matrix(1.0, 0.0, 0.0, 1.0, 0.0, 0.0)">
      <use ffdec:characterId="11" ffdec:characterName="31_fla.Symbole30_22" height="56.0" id="back" transform="matrix(1.0, 0.0, 0.0, 1.0, 0.0, 0.0)" width="56.0" xlink:href="#sprite21"/>
    </g>
    <g id="sprite21" transform="matrix(1.0, 0.0, 0.0, 1.0, 0.0, 0.0)">
      <use ffdec:characterId="10" ffdec:characterName="31_fla.Symbole27_23" height="56.0" id="back" transform="matrix(1.0, 0.0, 0.0, 1.0, 0.0, 0.0)" width="56.0" xlink:href="#sprite22"/>
    </g>
    <g id="sprite22" transform="matrix(1.0, 0.0, 0.0, 1.0, 0.0, 0.0)">
      <use ffdec:characterId="9" ffdec:characterName="31_fla.Symbole24_24" height="56.0" id="back" transform="matrix(1.0, 0.0, 0.0, 1.0, 0.0, 0.0)" width="56.0" xlink:href="#sprite23"/>
    </g>
    <g id="sprite23" transform="matrix(1.0, 0.0, 0.0, 1.0, 0.0, 0.0)">
      <use ffdec:characterId="8" ffdec:characterName="31_fla.Symbole21_25" height="56.0" id="back" transform="matrix(1.0, 0.0, 0.0, 1.0, 0.0, 0.0)" width="56.0" xlink:href="#sprite24"/>
    </g>
    <g id="sprite24" transform="matrix(1.0, 0.0, 0.0, 1.0, 0.0, 0.0)">
      <use ffdec:characterId="7" ffdec:characterName="31_fla.Symbole18_26" height="56.0" id="back" transform="matrix(1.0, 0.0, 0.0, 1.0, 0.0, 0.0)" width="56.0" xlink:href="#sprite25"/>
    </g>
    <g id="sprite25" transform="matrix(1.0, 0.0, 0.0, 1.0, 0.0, 0.0)">
      <use ffdec:characterId="6" ffdec:characterName="31_fla.Symbole15_27" height="56.0" id="back" transform="matrix(1.0, 0.0, 0.0, 1.0, 0.0, 0.0)" width="56.0" xlink:href="#sprite26"/>
    </g>
    <g id="sprite26" transform="matrix(1.0, 0.0, 0.0, 1.0, 0.0, 0.0)">
      <use ffdec:characterId="5" ffdec:characterName="31_fla.Symbole12_28" height="56.0" id="back" transform="matrix(1.0, 0.0, 0.0, 1.0, 0.0, 0.0)" width="56.0" xlink:href="#sprite27"/>
    </g>
    <g id="sprite27" transform="matrix(1.0, 0.0, 0.0, 1.0, 0.0, 0.0)">
      <use ffdec:characterId="4" ffdec:characterName="31_fla.Symbole9_29" height="56.0" id="back" transform="matrix(1.0, 0.0, 0.0, 1.0, 0.0, 0.0)" width="56.0" xlink:href="#sprite28"/>
    </g>
    <g id="sprite28" transform="matrix(1.0, 0.0, 0.0, 1.0, 0.0, 0.0)">
      <use ffdec:characterId="3" ffdec:characterName="31_fla.Symbole6_30" height="56.0" id="back" transform="matrix(1.0, 0.0, 0.0, 1.0, 0.0, 0.0)" width="56.0" xlink:href="#sprite29"/>
    </g>
    <g id="sprite29" transform="matrix(1.0, 0.0, 0.0, 1.0, 0.0, 0.0)">
      <use ffdec:characterId="2" height="56.0" id="back" transform="matrix(1.0, 0.0, 0.0, 1.0, 0.0, 0.0)" width="56.0" xlink:href="#sprite30"/>
    </g>
    <g id="sprite30" transform="matrix(1.0, 0.0, 0.0, 1.0, 0.0, 0.0)">
      <use ffdec:characterId="1" height="56.0" transform="matrix(1.0, 0.0, 0.0, 1.0, 0.0, 0.0)" width="56.0" xlink:href="#shape0"/>
    </g>
    <g id="shape0" transform="matrix(1.0, 0.0, 0.0, 1.0, 0.0, 0.0)">
      <path d="M56.0 56.0 L0.0 56.0 0.0 0.0 56.0 0.0 56.0 56.0" fill="#010101" fill-opacity="0.0" fill-rule="evenodd" stroke="none"/>
    </g>
    <g id="sprite31" transform="matrix(1.0, 0.0, 0.0, 1.0, 0.75, 0.75)">
      <use ffdec:characterId="33" height="55.55" transform="matrix(1.0, 0.0, 0.0, 1.0, -0.75, -0.75)" width="55.2" xlink:href="#shape1"/>
    </g>
    <g id="shape1" transform="matrix(1.0, 0.0, 0.0, 1.0, 0.75, 0.75)">
      <path d="M45.25 8.75 Q41.4 5.25 36.2 6.65 32.25 7.85 29.5 10.95 32.65 15.1 33.95 20.05 38.8 21.45 42.85 24.6 47.55 20.7 47.55 14.65 47.55 11.2 45.25 8.75 M52.6 1.4 Q53.45 3.15 53.6 5.1 L53.65 7.1 Q53.9 12.05 52.3 16.95 50.6 21.7 47.2 25.45 L45.65 27.1 Q49.45 30.8 51.5 35.75 53.35 40.15 53.65 45.05 53.8 48.5 52.75 51.75 52.05 53.55 50.0 53.9 44.3 54.4 38.95 53.05 31.8 51.2 26.85 45.95 23.15 49.8 18.3 51.75 13.75 53.55 8.9 53.75 4.8 54.15 1.15 52.7 -0.35 48.5 0.1 44.05 0.4 39.2 2.45 34.9 4.45 30.35 8.1 26.95 4.2 23.2 2.2 18.5 0.3 13.95 0.1 9.0 -0.15 4.9 1.25 1.25 5.35 -0.3 9.85 0.1 14.75 0.55 19.15 2.55 23.6 4.65 26.9 8.15 30.55 4.3 35.5 2.3 40.0 0.4 44.95 0.3 48.85 -0.05 52.6 1.4 M44.6 31.45 L42.85 29.55 Q38.8 32.8 33.85 34.1 32.45 39.1 29.25 43.1 32.85 47.3 38.5 47.65 42.35 48.05 45.05 45.35 46.9 43.6 47.35 41.15 48.2 35.6 44.6 31.45 M20.0 7.45 L19.3 7.1 Q14.1 4.9 9.75 8.15 5.35 11.35 6.4 16.95 7.25 21.45 10.85 24.35 14.95 21.3 19.9 19.95 21.3 15.0 24.45 10.95 22.55 8.85 20.0 7.45 M28.35 19.35 Q28.65 19.2 29.5 19.35 28.65 16.5 26.9 14.0 25.15 16.35 24.3 19.2 L28.35 19.35 M7.05 34.7 Q4.8 39.7 8.1 44.2 11.3 48.6 16.75 47.5 21.3 46.55 24.25 43.1 21.05 39.0 19.75 34.0 14.8 32.55 10.85 29.5 8.7 31.3 7.4 33.85 L7.05 34.7 M34.6 29.7 Q37.5 28.85 39.85 27.1 37.5 25.4 34.7 24.5 L34.6 29.7 M19.15 24.35 Q16.3 25.25 13.9 26.95 16.25 28.6 19.05 29.55 L19.15 24.35 M24.25 34.75 Q24.95 37.55 26.85 40.1 28.6 37.55 29.4 34.9 L25.4 34.75 24.25 34.75 Z" fill="none" stroke="#000000" stroke-linecap="round" stroke-linejoin="round" stroke-opacity="0.2" stroke-width="1.5"/>
    </g>
    <g id="sprite32" transform="matrix(1.0, 0.0, 0.0, 1.0, 0.0, 0.0)">
      <use ffdec:characterId="35" height="54.05" transform="matrix(1.0, 0.0, 0.0, 1.0, 0.0, 0.0)" width="53.7" xlink:href="#shape2"/>
    </g>
    <g id="shape2" transform="matrix(1.0, 0.0, 0.0, 1.0, 0.0, 0.0)">
      <path d="M52.3 16.95 Q50.6 21.7 47.2 25.45 L45.65 27.1 Q49.45 30.8 51.5 35.75 53.35 40.15 53.65 45.05 53.8 48.5 52.75 51.75 52.05 53.55 50.0 53.9 44.3 54.4 38.95 53.05 31.8 51.2 26.85 45.95 23.15 49.8 18.3 51.75 13.75 53.55 8.9 53.75 4.8 54.15 1.15 52.7 -0.35 48.5 0.1 44.05 0.4 39.2 2.45 34.9 4.45 30.35 8.1 26.95 4.2 23.2 2.2 18.5 0.3 13.95 0.1 9.0 -0.15 4.9 1.25 1.25 5.35 -0.3 9.85 0.1 14.75 0.55 19.15 2.55 23.6 4.65 26.9 8.15 30.55 4.3 35.5 2.3 40.0 0.4 44.95 0.3 48.85 -0.05 52.6 1.4 53.45 3.15 53.6 5.1 L53.65 7.1 Q53.9 12.05 52.3 16.95 M45.25 8.75 Q41.4 5.25 36.2 6.65 32.25 7.85 29.5 10.95 32.65 15.1 33.95 20.05 38.8 21.45 42.85 24.6 47.55 20.7 47.55 14.65 47.55 11.2 45.25 8.75 M44.6 31.45 L42.85 29.55 Q38.8 32.8 33.85 34.1 32.45 39.1 29.25 43.1 32.85 47.3 38.5 47.65 42.35 48.05 45.05 45.35 46.9 43.6 47.35 41.15 48.2 35.6 44.6 31.45 M20.0 7.45 L19.3 7.1 Q14.1 4.9 9.75 8.15 5.35 11.35 6.4 16.95 7.25 21.45 10.85 24.35 14.95 21.3 19.9 19.95 21.3 15.0 24.45 10.95 22.55 8.85 20.0 7.45 M24.3 19.2 L28.35 19.35 Q28.65 19.2 29.5 19.35 28.65 16.5 26.9 14.0 25.15 16.35 24.3 19.2 M7.05 34.7 Q4.8 39.7 8.1 44.2 11.3 48.6 16.75 47.5 21.3 46.55 24.25 43.1 21.05 39.0 19.75 34.0 14.8 32.55 10.85 29.5 8.7 31.3 7.4 33.85 L7.05 34.7 M34.6 29.7 Q37.5 28.85 39.85 27.1 37.5 25.4 34.7 24.5 L34.6 29.7 M19.15 24.35 Q16.3 25.25 13.9 26.95 16.25 28.6 19.05 29.55 L19.15 24.35 M24.25 34.75 Q24.95 37.55 26.85 40.1 28.6 37.55 29.4 34.9 L25.4 34.75 24.25 34.75" fill="#000000" fill-rule="evenodd" stroke="none"/>
    </g>
  </defs>
</svg>
