<?xml version="1.0" encoding="UTF-8" standalone="no"?>
<svg xmlns:ffdec="https://www.free-decompiler.com/flash" xmlns:xlink="http://www.w3.org/1999/xlink" ffdec:objectType="frame" height="56.0px" width="56.0px" xmlns="http://www.w3.org/2000/svg">
  <g transform="matrix(1.0, 0.0, 0.0, 1.0, 0.0, 0.0)">
    <use ffdec:characterId="55" ffdec:characterName="313_fla.Symbole166_1" height="56.0" id="back" transform="matrix(1.0, 0.0, 0.0, 1.0, 0.0, 0.0)" width="56.0" xlink:href="#sprite0"/>
    <use ffdec:characterId="57" height="55.25" id="back" transform="matrix(1.0, 0.0, 0.0, 1.0, 4.85, 0.3)" width="46.25" xlink:href="#sprite54"/>
    <use ffdec:characterId="59" height="53.75" id="up" transform="matrix(1.0, 0.0, 0.0, 1.0, 5.6, 1.05)" width="44.75" xlink:href="#sprite55"/>
  </g>
  <defs>
    <g id="sprite0" transform="matrix(1.0, 0.0, 0.0, 1.0, 0.0, 0.0)">
      <use ffdec:characterId="54" ffdec:characterName="313_fla.Symbole163_2" height="56.0" id="back" transform="matrix(1.0, 0.0, 0.0, 1.0, 0.0, 0.0)" width="56.0" xlink:href="#sprite1"/>
    </g>
    <g id="sprite1" transform="matrix(1.0, 0.0, 0.0, 1.0, 0.0, 0.0)">
      <use ffdec:characterId="53" ffdec:characterName="313_fla.Symbole160_3" height="56.0" id="back" transform="matrix(1.0, 0.0, 0.0, 1.0, 0.0, 0.0)" width="56.0" xlink:href="#sprite2"/>
    </g>
    <g id="sprite2" transform="matrix(1.0, 0.0, 0.0, 1.0, 0.0, 0.0)">
      <use ffdec:characterId="52" ffdec:characterName="313_fla.Symbole157_4" height="56.0" id="back" transform="matrix(1.0, 0.0, 0.0, 1.0, 0.0, 0.0)" width="56.0" xlink:href="#sprite3"/>
    </g>
    <g id="sprite3" transform="matrix(1.0, 0.0, 0.0, 1.0, 0.0, 0.0)">
      <use ffdec:characterId="51" ffdec:characterName="313_fla.Symbole154_5" height="56.0" id="back" transform="matrix(1.0, 0.0, 0.0, 1.0, 0.0, 0.0)" width="56.0" xlink:href="#sprite4"/>
    </g>
    <g id="sprite4" transform="matrix(1.0, 0.0, 0.0, 1.0, 0.0, 0.0)">
      <use ffdec:characterId="50" ffdec:characterName="313_fla.Symbole151_6" height="56.0" id="back" transform="matrix(1.0, 0.0, 0.0, 1.0, 0.0, 0.0)" width="56.0" xlink:href="#sprite5"/>
    </g>
    <g id="sprite5" transform="matrix(1.0, 0.0, 0.0, 1.0, 0.0, 0.0)">
      <use ffdec:characterId="49" ffdec:characterName="313_fla.Symbole148_7" height="56.0" id="back" transform="matrix(1.0, 0.0, 0.0, 1.0, 0.0, 0.0)" width="56.0" xlink:href="#sprite6"/>
    </g>
    <g id="sprite6" transform="matrix(1.0, 0.0, 0.0, 1.0, 0.0, 0.0)">
      <use ffdec:characterId="48" ffdec:characterName="313_fla.Symbole145_8" height="56.0" id="back" transform="matrix(1.0, 0.0, 0.0, 1.0, 0.0, 0.0)" width="56.0" xlink:href="#sprite7"/>
    </g>
    <g id="sprite7" transform="matrix(1.0, 0.0, 0.0, 1.0, 0.0, 0.0)">
      <use ffdec:characterId="47" ffdec:characterName="313_fla.Symbole142_9" height="56.0" id="back" transform="matrix(1.0, 0.0, 0.0, 1.0, 0.0, 0.0)" width="56.0" xlink:href="#sprite8"/>
    </g>
    <g id="sprite8" transform="matrix(1.0, 0.0, 0.0, 1.0, 0.0, 0.0)">
      <use ffdec:characterId="46" ffdec:characterName="313_fla.Symbole139_10" height="56.0" id="back" transform="matrix(1.0, 0.0, 0.0, 1.0, 0.0, 0.0)" width="56.0" xlink:href="#sprite9"/>
    </g>
    <g id="sprite9" transform="matrix(1.0, 0.0, 0.0, 1.0, 0.0, 0.0)">
      <use ffdec:characterId="45" ffdec:characterName="313_fla.Symbole136_11" height="56.0" id="back" transform="matrix(1.0, 0.0, 0.0, 1.0, 0.0, 0.0)" width="56.0" xlink:href="#sprite10"/>
    </g>
    <g id="sprite10" transform="matrix(1.0, 0.0, 0.0, 1.0, 0.0, 0.0)">
      <use ffdec:characterId="44" ffdec:characterName="313_fla.Symbole133_12" height="56.0" id="back" transform="matrix(1.0, 0.0, 0.0, 1.0, 0.0, 0.0)" width="56.0" xlink:href="#sprite11"/>
    </g>
    <g id="sprite11" transform="matrix(1.0, 0.0, 0.0, 1.0, 0.0, 0.0)">
      <use ffdec:characterId="43" ffdec:characterName="313_fla.Symbole130_13" height="56.0" id="back" transform="matrix(1.0, 0.0, 0.0, 1.0, 0.0, 0.0)" width="56.0" xlink:href="#sprite12"/>
    </g>
    <g id="sprite12" transform="matrix(1.0, 0.0, 0.0, 1.0, 0.0, 0.0)">
      <use ffdec:characterId="42" ffdec:characterName="313_fla.Symbole127_14" height="56.0" id="back" transform="matrix(1.0, 0.0, 0.0, 1.0, 0.0, 0.0)" width="56.0" xlink:href="#sprite13"/>
    </g>
    <g id="sprite13" transform="matrix(1.0, 0.0, 0.0, 1.0, 0.0, 0.0)">
      <use ffdec:characterId="41" ffdec:characterName="313_fla.Symbole124_15" height="56.0" id="back" transform="matrix(1.0, 0.0, 0.0, 1.0, 0.0, 0.0)" width="56.0" xlink:href="#sprite14"/>
    </g>
    <g id="sprite14" transform="matrix(1.0, 0.0, 0.0, 1.0, 0.0, 0.0)">
      <use ffdec:characterId="40" ffdec:characterName="313_fla.Symbole121_16" height="56.0" id="back" transform="matrix(1.0, 0.0, 0.0, 1.0, 0.0, 0.0)" width="56.0" xlink:href="#sprite15"/>
    </g>
    <g id="sprite15" transform="matrix(1.0, 0.0, 0.0, 1.0, 0.0, 0.0)">
      <use ffdec:characterId="39" ffdec:characterName="313_fla.Symbole118_17" height="56.0" id="back" transform="matrix(1.0, 0.0, 0.0, 1.0, 0.0, 0.0)" width="56.0" xlink:href="#sprite16"/>
    </g>
    <g id="sprite16" transform="matrix(1.0, 0.0, 0.0, 1.0, 0.0, 0.0)">
      <use ffdec:characterId="38" ffdec:characterName="313_fla.Symbole115_18" height="56.0" id="back" transform="matrix(1.0, 0.0, 0.0, 1.0, 0.0, 0.0)" width="56.0" xlink:href="#sprite17"/>
    </g>
    <g id="sprite17" transform="matrix(1.0, 0.0, 0.0, 1.0, 0.0, 0.0)">
      <use ffdec:characterId="37" ffdec:characterName="313_fla.Symbole112_19" height="56.0" id="back" transform="matrix(1.0, 0.0, 0.0, 1.0, 0.0, 0.0)" width="56.0" xlink:href="#sprite18"/>
    </g>
    <g id="sprite18" transform="matrix(1.0, 0.0, 0.0, 1.0, 0.0, 0.0)">
      <use ffdec:characterId="36" ffdec:characterName="313_fla.Symbole109_20" height="56.0" id="back" transform="matrix(1.0, 0.0, 0.0, 1.0, 0.0, 0.0)" width="56.0" xlink:href="#sprite19"/>
    </g>
    <g id="sprite19" transform="matrix(1.0, 0.0, 0.0, 1.0, 0.0, 0.0)">
      <use ffdec:characterId="35" ffdec:characterName="313_fla.Symbole106_21" height="56.0" id="back" transform="matrix(1.0, 0.0, 0.0, 1.0, 0.0, 0.0)" width="56.0" xlink:href="#sprite20"/>
    </g>
    <g id="sprite20" transform="matrix(1.0, 0.0, 0.0, 1.0, 0.0, 0.0)">
      <use ffdec:characterId="34" ffdec:characterName="313_fla.Symbole103_22" height="56.0" id="back" transform="matrix(1.0, 0.0, 0.0, 1.0, 0.0, 0.0)" width="56.0" xlink:href="#sprite21"/>
    </g>
    <g id="sprite21" transform="matrix(1.0, 0.0, 0.0, 1.0, 0.0, 0.0)">
      <use ffdec:characterId="33" ffdec:characterName="313_fla.Symbole100_23" height="56.0" id="back" transform="matrix(1.0, 0.0, 0.0, 1.0, 0.0, 0.0)" width="56.0" xlink:href="#sprite22"/>
    </g>
    <g id="sprite22" transform="matrix(1.0, 0.0, 0.0, 1.0, 0.0, 0.0)">
      <use ffdec:characterId="32" ffdec:characterName="313_fla.Symbole97_24" height="56.0" id="back" transform="matrix(1.0, 0.0, 0.0, 1.0, 0.0, 0.0)" width="56.0" xlink:href="#sprite23"/>
    </g>
    <g id="sprite23" transform="matrix(1.0, 0.0, 0.0, 1.0, 0.0, 0.0)">
      <use ffdec:characterId="31" ffdec:characterName="313_fla.Symbole94_25" height="56.0" id="back" transform="matrix(1.0, 0.0, 0.0, 1.0, 0.0, 0.0)" width="56.0" xlink:href="#sprite24"/>
    </g>
    <g id="sprite24" transform="matrix(1.0, 0.0, 0.0, 1.0, 0.0, 0.0)">
      <use ffdec:characterId="30" ffdec:characterName="313_fla.Symbole91_26" height="56.0" id="back" transform="matrix(1.0, 0.0, 0.0, 1.0, 0.0, 0.0)" width="56.0" xlink:href="#sprite25"/>
    </g>
    <g id="sprite25" transform="matrix(1.0, 0.0, 0.0, 1.0, 0.0, 0.0)">
      <use ffdec:characterId="29" ffdec:characterName="313_fla.Symbole88_27" height="56.0" id="back" transform="matrix(1.0, 0.0, 0.0, 1.0, 0.0, 0.0)" width="56.0" xlink:href="#sprite26"/>
    </g>
    <g id="sprite26" transform="matrix(1.0, 0.0, 0.0, 1.0, 0.0, 0.0)">
      <use ffdec:characterId="28" ffdec:characterName="313_fla.Symbole85_28" height="56.0" id="back" transform="matrix(1.0, 0.0, 0.0, 1.0, 0.0, 0.0)" width="56.0" xlink:href="#sprite27"/>
    </g>
    <g id="sprite27" transform="matrix(1.0, 0.0, 0.0, 1.0, 0.0, 0.0)">
      <use ffdec:characterId="27" ffdec:characterName="313_fla.Symbole82_29" height="56.0" id="back" transform="matrix(1.0, 0.0, 0.0, 1.0, 0.0, 0.0)" width="56.0" xlink:href="#sprite28"/>
    </g>
    <g id="sprite28" transform="matrix(1.0, 0.0, 0.0, 1.0, 0.0, 0.0)">
      <use ffdec:characterId="26" ffdec:characterName="313_fla.Symbole79_30" height="56.0" id="back" transform="matrix(1.0, 0.0, 0.0, 1.0, 0.0, 0.0)" width="56.0" xlink:href="#sprite29"/>
    </g>
    <g id="sprite29" transform="matrix(1.0, 0.0, 0.0, 1.0, 0.0, 0.0)">
      <use ffdec:characterId="25" ffdec:characterName="313_fla.Symbole76_31" height="56.0" id="back" transform="matrix(1.0, 0.0, 0.0, 1.0, 0.0, 0.0)" width="56.0" xlink:href="#sprite30"/>
    </g>
    <g id="sprite30" transform="matrix(1.0, 0.0, 0.0, 1.0, 0.0, 0.0)">
      <use ffdec:characterId="24" ffdec:characterName="313_fla.Symbole73_32" height="56.0" id="back" transform="matrix(1.0, 0.0, 0.0, 1.0, 0.0, 0.0)" width="56.0" xlink:href="#sprite31"/>
    </g>
    <g id="sprite31" transform="matrix(1.0, 0.0, 0.0, 1.0, 0.0, 0.0)">
      <use ffdec:characterId="23" ffdec:characterName="313_fla.Symbole70_33" height="56.0" id="back" transform="matrix(1.0, 0.0, 0.0, 1.0, 0.0, 0.0)" width="56.0" xlink:href="#sprite32"/>
    </g>
    <g id="sprite32" transform="matrix(1.0, 0.0, 0.0, 1.0, 0.0, 0.0)">
      <use ffdec:characterId="22" ffdec:characterName="313_fla.Symbole67_34" height="56.0" id="back" transform="matrix(1.0, 0.0, 0.0, 1.0, 0.0, 0.0)" width="56.0" xlink:href="#sprite33"/>
    </g>
    <g id="sprite33" transform="matrix(1.0, 0.0, 0.0, 1.0, 0.0, 0.0)">
      <use ffdec:characterId="21" ffdec:characterName="313_fla.Symbole64_35" height="56.0" id="back" transform="matrix(1.0, 0.0, 0.0, 1.0, 0.0, 0.0)" width="56.0" xlink:href="#sprite34"/>
    </g>
    <g id="sprite34" transform="matrix(1.0, 0.0, 0.0, 1.0, 0.0, 0.0)">
      <use ffdec:characterId="20" ffdec:characterName="313_fla.Symbole61_36" height="56.0" id="back" transform="matrix(1.0, 0.0, 0.0, 1.0, 0.0, 0.0)" width="56.0" xlink:href="#sprite35"/>
    </g>
    <g id="sprite35" transform="matrix(1.0, 0.0, 0.0, 1.0, 0.0, 0.0)">
      <use ffdec:characterId="19" ffdec:characterName="313_fla.Symbole58_37" height="56.0" id="back" transform="matrix(1.0, 0.0, 0.0, 1.0, 0.0, 0.0)" width="56.0" xlink:href="#sprite36"/>
    </g>
    <g id="sprite36" transform="matrix(1.0, 0.0, 0.0, 1.0, 0.0, 0.0)">
      <use ffdec:characterId="18" ffdec:characterName="313_fla.Symbole55_38" height="56.0" id="back" transform="matrix(1.0, 0.0, 0.0, 1.0, 0.0, 0.0)" width="56.0" xlink:href="#sprite37"/>
    </g>
    <g id="sprite37" transform="matrix(1.0, 0.0, 0.0, 1.0, 0.0, 0.0)">
      <use ffdec:characterId="17" ffdec:characterName="313_fla.Symbole52_39" height="56.0" id="back" transform="matrix(1.0, 0.0, 0.0, 1.0, 0.0, 0.0)" width="56.0" xlink:href="#sprite38"/>
    </g>
    <g id="sprite38" transform="matrix(1.0, 0.0, 0.0, 1.0, 0.0, 0.0)">
      <use ffdec:characterId="16" ffdec:characterName="313_fla.Symbole49_40" height="56.0" id="back" transform="matrix(1.0, 0.0, 0.0, 1.0, 0.0, 0.0)" width="56.0" xlink:href="#sprite39"/>
    </g>
    <g id="sprite39" transform="matrix(1.0, 0.0, 0.0, 1.0, 0.0, 0.0)">
      <use ffdec:characterId="15" ffdec:characterName="313_fla.Symbole46_41" height="56.0" id="back" transform="matrix(1.0, 0.0, 0.0, 1.0, 0.0, 0.0)" width="56.0" xlink:href="#sprite40"/>
    </g>
    <g id="sprite40" transform="matrix(1.0, 0.0, 0.0, 1.0, 0.0, 0.0)">
      <use ffdec:characterId="14" ffdec:characterName="313_fla.Symbole43_42" height="56.0" id="back" transform="matrix(1.0, 0.0, 0.0, 1.0, 0.0, 0.0)" width="56.0" xlink:href="#sprite41"/>
    </g>
    <g id="sprite41" transform="matrix(1.0, 0.0, 0.0, 1.0, 0.0, 0.0)">
      <use ffdec:characterId="13" ffdec:characterName="313_fla.Symbole40_43" height="56.0" id="back" transform="matrix(1.0, 0.0, 0.0, 1.0, 0.0, 0.0)" width="56.0" xlink:href="#sprite42"/>
    </g>
    <g id="sprite42" transform="matrix(1.0, 0.0, 0.0, 1.0, 0.0, 0.0)">
      <use ffdec:characterId="12" ffdec:characterName="313_fla.Symbole37_44" height="56.0" id="back" transform="matrix(1.0, 0.0, 0.0, 1.0, 0.0, 0.0)" width="56.0" xlink:href="#sprite43"/>
    </g>
    <g id="sprite43" transform="matrix(1.0, 0.0, 0.0, 1.0, 0.0, 0.0)">
      <use ffdec:characterId="11" ffdec:characterName="313_fla.Symbole34_45" height="56.0" id="back" transform="matrix(1.0, 0.0, 0.0, 1.0, 0.0, 0.0)" width="56.0" xlink:href="#sprite44"/>
    </g>
    <g id="sprite44" transform="matrix(1.0, 0.0, 0.0, 1.0, 0.0, 0.0)">
      <use ffdec:characterId="10" ffdec:characterName="313_fla.Symbole31_46" height="56.0" id="back" transform="matrix(1.0, 0.0, 0.0, 1.0, 0.0, 0.0)" width="56.0" xlink:href="#sprite45"/>
    </g>
    <g id="sprite45" transform="matrix(1.0, 0.0, 0.0, 1.0, 0.0, 0.0)">
      <use ffdec:characterId="9" ffdec:characterName="313_fla.Symbole28_47" height="56.0" id="back" transform="matrix(1.0, 0.0, 0.0, 1.0, 0.0, 0.0)" width="56.0" xlink:href="#sprite46"/>
    </g>
    <g id="sprite46" transform="matrix(1.0, 0.0, 0.0, 1.0, 0.0, 0.0)">
      <use ffdec:characterId="8" ffdec:characterName="313_fla.Symbole25_48" height="56.0" id="back" transform="matrix(1.0, 0.0, 0.0, 1.0, 0.0, 0.0)" width="56.0" xlink:href="#sprite47"/>
    </g>
    <g id="sprite47" transform="matrix(1.0, 0.0, 0.0, 1.0, 0.0, 0.0)">
      <use ffdec:characterId="7" ffdec:characterName="313_fla.Symbole22_49" height="56.0" id="back" transform="matrix(1.0, 0.0, 0.0, 1.0, 0.0, 0.0)" width="56.0" xlink:href="#sprite48"/>
    </g>
    <g id="sprite48" transform="matrix(1.0, 0.0, 0.0, 1.0, 0.0, 0.0)">
      <use ffdec:characterId="6" ffdec:characterName="313_fla.Symbole19_50" height="56.0" id="back" transform="matrix(1.0, 0.0, 0.0, 1.0, 0.0, 0.0)" width="56.0" xlink:href="#sprite49"/>
    </g>
    <g id="sprite49" transform="matrix(1.0, 0.0, 0.0, 1.0, 0.0, 0.0)">
      <use ffdec:characterId="5" ffdec:characterName="313_fla.Symbole16_51" height="56.0" id="back" transform="matrix(1.0, 0.0, 0.0, 1.0, 0.0, 0.0)" width="56.0" xlink:href="#sprite50"/>
    </g>
    <g id="sprite50" transform="matrix(1.0, 0.0, 0.0, 1.0, 0.0, 0.0)">
      <use ffdec:characterId="4" ffdec:characterName="313_fla.Symbole13_52" height="56.0" id="back" transform="matrix(1.0, 0.0, 0.0, 1.0, 0.0, 0.0)" width="56.0" xlink:href="#sprite51"/>
    </g>
    <g id="sprite51" transform="matrix(1.0, 0.0, 0.0, 1.0, 0.0, 0.0)">
      <use ffdec:characterId="3" ffdec:characterName="313_fla.Symbole10_53" height="56.0" id="back" transform="matrix(1.0, 0.0, 0.0, 1.0, 0.0, 0.0)" width="56.0" xlink:href="#sprite52"/>
    </g>
    <g id="sprite52" transform="matrix(1.0, 0.0, 0.0, 1.0, 0.0, 0.0)">
      <use ffdec:characterId="2" height="56.0" id="back" transform="matrix(1.0, 0.0, 0.0, 1.0, 0.0, 0.0)" width="56.0" xlink:href="#sprite53"/>
    </g>
    <g id="sprite53" transform="matrix(1.0, 0.0, 0.0, 1.0, 0.0, 0.0)">
      <use ffdec:characterId="1" height="56.0" transform="matrix(1.0, 0.0, 0.0, 1.0, 0.0, 0.0)" width="56.0" xlink:href="#shape0"/>
    </g>
    <g id="shape0" transform="matrix(1.0, 0.0, 0.0, 1.0, 0.0, 0.0)">
      <path d="M56.0 56.0 L0.0 56.0 0.0 0.0 56.0 0.0 56.0 56.0" fill="#010101" fill-opacity="0.0" fill-rule="evenodd" stroke="none"/>
    </g>
    <g id="sprite54" transform="matrix(1.0, 0.0, 0.0, 1.0, 0.75, 0.75)">
      <use ffdec:characterId="56" height="55.25" transform="matrix(1.0, 0.0, 0.0, 1.0, -0.75, -0.75)" width="46.25" xlink:href="#shape1"/>
    </g>
    <g id="shape1" transform="matrix(1.0, 0.0, 0.0, 1.0, 0.75, 0.75)">
      <path d="M42.65 2.75 Q44.75 5.4 44.75 10.2 44.75 19.45 39.55 30.0 34.45 40.35 26.75 47.1 19.05 53.75 12.25 53.75 6.95 53.75 3.6 49.35 0.0 44.9 0.0 37.85 0.0 30.3 3.1 22.75 6.15 15.05 10.85 9.05 15.7 3.05 18.5 1.6 21.35 0.0 26.75 0.0 L26.75 0.65 Q18.25 8.65 14.45 17.8 10.65 26.95 10.65 35.3 10.65 40.85 12.8 43.85 14.95 47.1 18.7 47.1 26.05 47.1 33.9 34.25 42.0 21.3 42.0 10.3 42.0 7.1 40.85 5.2 39.9 3.2 38.05 3.2 34.95 3.2 32.15 8.05 29.3 12.95 29.3 16.7 29.3 19.45 31.85 19.75 32.95 19.85 32.95 20.75 32.95 22.4 31.3 24.05 29.65 25.65 27.75 25.65 25.45 25.65 24.0 23.55 22.5 21.4 22.5 18.45 22.5 12.05 27.35 6.0 32.2 0.0 37.25 0.0 40.7 0.0 42.65 2.75 Z" fill="none" stroke="#000000" stroke-linecap="round" stroke-linejoin="round" stroke-opacity="0.2" stroke-width="1.5"/>
    </g>
    <g id="sprite55" transform="matrix(1.0, 0.0, 0.0, 1.0, 0.0, 0.0)">
      <use ffdec:characterId="58" height="53.75" transform="matrix(1.0, 0.0, 0.0, 1.0, 0.0, 0.0)" width="44.75" xlink:href="#shape2"/>
    </g>
    <g id="shape2" transform="matrix(1.0, 0.0, 0.0, 1.0, 0.0, 0.0)">
      <path d="M42.65 2.75 Q44.75 5.4 44.75 10.2 44.75 19.45 39.55 30.0 34.45 40.35 26.75 47.1 19.05 53.75 12.25 53.75 6.95 53.75 3.6 49.35 0.0 44.9 0.0 37.85 0.0 30.3 3.1 22.75 6.15 15.05 10.85 9.05 15.7 3.05 18.5 1.6 21.35 0.0 26.75 0.0 L26.75 0.65 Q18.25 8.65 14.45 17.8 10.65 26.95 10.65 35.3 10.65 40.85 12.8 43.85 14.95 47.1 18.7 47.1 26.05 47.1 33.9 34.25 42.0 21.3 42.0 10.3 42.0 7.1 40.85 5.2 39.9 3.2 38.05 3.2 34.95 3.2 32.15 8.05 29.3 12.95 29.3 16.7 29.3 19.45 31.85 19.75 32.95 19.85 32.95 20.75 32.95 22.4 31.3 24.05 29.65 25.65 27.75 25.65 25.45 25.65 24.0 23.55 22.5 21.4 22.5 18.45 22.5 12.05 27.35 6.0 32.2 0.0 37.25 0.0 40.7 0.0 42.65 2.75" fill="#000000" fill-rule="evenodd" stroke="none"/>
    </g>
  </defs>
</svg>
