<?xml version="1.0" encoding="UTF-8" standalone="no"?>
<svg xmlns:ffdec="https://www.free-decompiler.com/flash" xmlns:xlink="http://www.w3.org/1999/xlink" ffdec:objectType="frame" height="56.0px" width="56.0px" xmlns="http://www.w3.org/2000/svg">
  <g transform="matrix(1.0, 0.0, 0.0, 1.0, 0.0, 0.0)">
    <use ffdec:characterId="27" ffdec:characterName="326_fla.Symbole82_1" height="56.0" id="back" transform="matrix(1.0, 0.0, 0.0, 1.0, 0.0, 0.0)" width="56.0" xlink:href="#sprite0"/>
    <use ffdec:characterId="30" ffdec:characterName="326_fla.Symbole195_27" height="55.5" id="back" transform="matrix(1.0, 0.0, 0.0, 1.0, 1.45, 0.2)" width="52.9" xlink:href="#sprite26"/>
    <use ffdec:characterId="32" height="53.2" id="up" transform="matrix(1.0, 0.0, 0.0, 1.0, 2.25, 1.35)" width="51.45" xlink:href="#sprite28"/>
  </g>
  <defs>
    <g id="sprite0" transform="matrix(1.0, 0.0, 0.0, 1.0, 0.0, 0.0)">
      <use ffdec:characterId="26" ffdec:characterName="326_fla.Symbole79_2" height="56.0" id="back" transform="matrix(1.0, 0.0, 0.0, 1.0, 0.0, 0.0)" width="56.0" xlink:href="#sprite1"/>
    </g>
    <g id="sprite1" transform="matrix(1.0, 0.0, 0.0, 1.0, 0.0, 0.0)">
      <use ffdec:characterId="25" ffdec:characterName="326_fla.Symbole76_3" height="56.0" id="back" transform="matrix(1.0, 0.0, 0.0, 1.0, 0.0, 0.0)" width="56.0" xlink:href="#sprite2"/>
    </g>
    <g id="sprite2" transform="matrix(1.0, 0.0, 0.0, 1.0, 0.0, 0.0)">
      <use ffdec:characterId="24" ffdec:characterName="326_fla.Symbole73_4" height="56.0" id="back" transform="matrix(1.0, 0.0, 0.0, 1.0, 0.0, 0.0)" width="56.0" xlink:href="#sprite3"/>
    </g>
    <g id="sprite3" transform="matrix(1.0, 0.0, 0.0, 1.0, 0.0, 0.0)">
      <use ffdec:characterId="23" ffdec:characterName="326_fla.Symbole70_5" height="56.0" id="back" transform="matrix(1.0, 0.0, 0.0, 1.0, 0.0, 0.0)" width="56.0" xlink:href="#sprite4"/>
    </g>
    <g id="sprite4" transform="matrix(1.0, 0.0, 0.0, 1.0, 0.0, 0.0)">
      <use ffdec:characterId="22" ffdec:characterName="326_fla.Symbole67_6" height="56.0" id="back" transform="matrix(1.0, 0.0, 0.0, 1.0, 0.0, 0.0)" width="56.0" xlink:href="#sprite5"/>
    </g>
    <g id="sprite5" transform="matrix(1.0, 0.0, 0.0, 1.0, 0.0, 0.0)">
      <use ffdec:characterId="21" ffdec:characterName="326_fla.Symbole64_7" height="56.0" id="back" transform="matrix(1.0, 0.0, 0.0, 1.0, 0.0, 0.0)" width="56.0" xlink:href="#sprite6"/>
    </g>
    <g id="sprite6" transform="matrix(1.0, 0.0, 0.0, 1.0, 0.0, 0.0)">
      <use ffdec:characterId="20" ffdec:characterName="326_fla.Symbole61_8" height="56.0" id="back" transform="matrix(1.0, 0.0, 0.0, 1.0, 0.0, 0.0)" width="56.0" xlink:href="#sprite7"/>
    </g>
    <g id="sprite7" transform="matrix(1.0, 0.0, 0.0, 1.0, 0.0, 0.0)">
      <use ffdec:characterId="19" ffdec:characterName="326_fla.Symbole58_9" height="56.0" id="back" transform="matrix(1.0, 0.0, 0.0, 1.0, 0.0, 0.0)" width="56.0" xlink:href="#sprite8"/>
    </g>
    <g id="sprite8" transform="matrix(1.0, 0.0, 0.0, 1.0, 0.0, 0.0)">
      <use ffdec:characterId="18" ffdec:characterName="326_fla.Symbole55_10" height="56.0" id="back" transform="matrix(1.0, 0.0, 0.0, 1.0, 0.0, 0.0)" width="56.0" xlink:href="#sprite9"/>
    </g>
    <g id="sprite9" transform="matrix(1.0, 0.0, 0.0, 1.0, 0.0, 0.0)">
      <use ffdec:characterId="17" ffdec:characterName="326_fla.Symbole52_11" height="56.0" id="back" transform="matrix(1.0, 0.0, 0.0, 1.0, 0.0, 0.0)" width="56.0" xlink:href="#sprite10"/>
    </g>
    <g id="sprite10" transform="matrix(1.0, 0.0, 0.0, 1.0, 0.0, 0.0)">
      <use ffdec:characterId="16" ffdec:characterName="326_fla.Symbole49_12" height="56.0" id="back" transform="matrix(1.0, 0.0, 0.0, 1.0, 0.0, 0.0)" width="56.0" xlink:href="#sprite11"/>
    </g>
    <g id="sprite11" transform="matrix(1.0, 0.0, 0.0, 1.0, 0.0, 0.0)">
      <use ffdec:characterId="15" ffdec:characterName="326_fla.Symbole46_13" height="56.0" id="back" transform="matrix(1.0, 0.0, 0.0, 1.0, 0.0, 0.0)" width="56.0" xlink:href="#sprite12"/>
    </g>
    <g id="sprite12" transform="matrix(1.0, 0.0, 0.0, 1.0, 0.0, 0.0)">
      <use ffdec:characterId="14" ffdec:characterName="326_fla.Symbole43_14" height="56.0" id="back" transform="matrix(1.0, 0.0, 0.0, 1.0, 0.0, 0.0)" width="56.0" xlink:href="#sprite13"/>
    </g>
    <g id="sprite13" transform="matrix(1.0, 0.0, 0.0, 1.0, 0.0, 0.0)">
      <use ffdec:characterId="13" ffdec:characterName="326_fla.Symbole40_15" height="56.0" id="back" transform="matrix(1.0, 0.0, 0.0, 1.0, 0.0, 0.0)" width="56.0" xlink:href="#sprite14"/>
    </g>
    <g id="sprite14" transform="matrix(1.0, 0.0, 0.0, 1.0, 0.0, 0.0)">
      <use ffdec:characterId="12" ffdec:characterName="326_fla.Symbole37_16" height="56.0" id="back" transform="matrix(1.0, 0.0, 0.0, 1.0, 0.0, 0.0)" width="56.0" xlink:href="#sprite15"/>
    </g>
    <g id="sprite15" transform="matrix(1.0, 0.0, 0.0, 1.0, 0.0, 0.0)">
      <use ffdec:characterId="11" ffdec:characterName="326_fla.Symbole34_17" height="56.0" id="back" transform="matrix(1.0, 0.0, 0.0, 1.0, 0.0, 0.0)" width="56.0" xlink:href="#sprite16"/>
    </g>
    <g id="sprite16" transform="matrix(1.0, 0.0, 0.0, 1.0, 0.0, 0.0)">
      <use ffdec:characterId="10" ffdec:characterName="326_fla.Symbole31_18" height="56.0" id="back" transform="matrix(1.0, 0.0, 0.0, 1.0, 0.0, 0.0)" width="56.0" xlink:href="#sprite17"/>
    </g>
    <g id="sprite17" transform="matrix(1.0, 0.0, 0.0, 1.0, 0.0, 0.0)">
      <use ffdec:characterId="9" ffdec:characterName="326_fla.Symbole28_19" height="56.0" id="back" transform="matrix(1.0, 0.0, 0.0, 1.0, 0.0, 0.0)" width="56.0" xlink:href="#sprite18"/>
    </g>
    <g id="sprite18" transform="matrix(1.0, 0.0, 0.0, 1.0, 0.0, 0.0)">
      <use ffdec:characterId="8" ffdec:characterName="326_fla.Symbole25_20" height="56.0" id="back" transform="matrix(1.0, 0.0, 0.0, 1.0, 0.0, 0.0)" width="56.0" xlink:href="#sprite19"/>
    </g>
    <g id="sprite19" transform="matrix(1.0, 0.0, 0.0, 1.0, 0.0, 0.0)">
      <use ffdec:characterId="7" ffdec:characterName="326_fla.Symbole22_21" height="56.0" id="back" transform="matrix(1.0, 0.0, 0.0, 1.0, 0.0, 0.0)" width="56.0" xlink:href="#sprite20"/>
    </g>
    <g id="sprite20" transform="matrix(1.0, 0.0, 0.0, 1.0, 0.0, 0.0)">
      <use ffdec:characterId="6" ffdec:characterName="326_fla.Symbole19_22" height="56.0" id="back" transform="matrix(1.0, 0.0, 0.0, 1.0, 0.0, 0.0)" width="56.0" xlink:href="#sprite21"/>
    </g>
    <g id="sprite21" transform="matrix(1.0, 0.0, 0.0, 1.0, 0.0, 0.0)">
      <use ffdec:characterId="5" ffdec:characterName="326_fla.Symbole16_23" height="56.0" id="back" transform="matrix(1.0, 0.0, 0.0, 1.0, 0.0, 0.0)" width="56.0" xlink:href="#sprite22"/>
    </g>
    <g id="sprite22" transform="matrix(1.0, 0.0, 0.0, 1.0, 0.0, 0.0)">
      <use ffdec:characterId="4" ffdec:characterName="326_fla.Symbole13_24" height="56.0" id="back" transform="matrix(1.0, 0.0, 0.0, 1.0, 0.0, 0.0)" width="56.0" xlink:href="#sprite23"/>
    </g>
    <g id="sprite23" transform="matrix(1.0, 0.0, 0.0, 1.0, 0.0, 0.0)">
      <use ffdec:characterId="3" ffdec:characterName="326_fla.Symbole10_25" height="56.0" id="back" transform="matrix(1.0, 0.0, 0.0, 1.0, 0.0, 0.0)" width="56.0" xlink:href="#sprite24"/>
    </g>
    <g id="sprite24" transform="matrix(1.0, 0.0, 0.0, 1.0, 0.0, 0.0)">
      <use ffdec:characterId="2" height="56.0" id="back" transform="matrix(1.0, 0.0, 0.0, 1.0, 0.0, 0.0)" width="56.0" xlink:href="#sprite25"/>
    </g>
    <g id="sprite25" transform="matrix(1.0, 0.0, 0.0, 1.0, 0.0, 0.0)">
      <use ffdec:characterId="1" height="56.0" transform="matrix(1.0, 0.0, 0.0, 1.0, 0.0, 0.0)" width="56.0" xlink:href="#shape0"/>
    </g>
    <g id="shape0" transform="matrix(1.0, 0.0, 0.0, 1.0, 0.0, 0.0)">
      <path d="M56.0 56.0 L0.0 56.0 0.0 0.0 56.0 0.0 56.0 56.0" fill="#010101" fill-opacity="0.0" fill-rule="evenodd" stroke="none"/>
    </g>
    <g id="sprite26" transform="matrix(1.0, 0.0, 0.0, 1.0, 4.45, 0.9)">
      <use ffdec:characterId="29" height="37.75" id="back" transform="matrix(0.9801, 0.0, 0.0, 1.4701, -4.457, -0.8959)" width="54.0" xlink:href="#sprite27"/>
    </g>
    <g id="sprite27" transform="matrix(1.0, 0.0, 0.0, 1.0, -0.35, 2.65)">
      <use ffdec:characterId="28" height="37.75" transform="matrix(1.0, 0.0, 0.0, 1.0, 0.35, -2.65)" width="54.0" xlink:href="#shape1"/>
    </g>
    <g id="shape1" transform="matrix(1.0, 0.0, 0.0, 1.0, -0.35, 2.65)">
      <path d="M28.35 -0.4 L29.7 8.15 29.8 8.4 30.95 9.4 30.95 9.45 31.55 9.55 Q33.15 9.85 34.55 10.5 L34.8 10.6 35.65 10.7 36.45 10.45 37.15 10.15 37.0 10.05 36.8 9.95 Q35.6 9.3 34.4 8.85 L33.35 8.15 33.35 7.85 33.4 7.75 33.5 7.7 34.15 7.45 34.45 7.45 35.25 7.55 Q36.85 7.85 38.8 8.8 L38.85 8.8 39.4 9.1 Q40.5 8.6 41.55 8.05 42.2 7.65 42.8 7.65 L42.95 7.65 43.25 7.65 43.4 7.75 43.5 8.0 43.45 8.0 42.8 8.95 41.4 10.25 41.5 10.3 Q43.25 11.5 44.4 12.95 45.85 14.75 46.15 16.55 46.55 16.95 46.95 16.95 L52.4 17.55 53.15 17.65 53.6 17.95 53.6 18.15 Q53.35 18.55 52.4 18.55 L46.9 19.1 Q46.45 19.1 46.15 19.5 45.6 23.4 40.85 26.25 38.0 28.0 34.85 28.7 L34.35 28.7 Q33.6 28.7 33.4 28.35 L33.35 28.0 33.4 27.95 Q33.55 27.55 34.4 27.3 36.1 26.7 38.2 25.4 43.0 22.45 43.0 18.3 L43.0 17.8 Q43.0 14.45 39.75 11.8 L39.2 12.3 39.0 12.6 Q38.6 13.05 38.9 13.5 L38.9 13.55 39.0 13.6 39.0 13.65 39.05 13.65 39.05 13.7 Q40.1 14.85 40.5 16.25 L40.75 18.05 Q40.75 21.8 36.8 24.4 34.15 26.2 30.75 26.75 29.95 27.15 29.75 27.8 L28.45 33.0 Q28.35 33.85 27.75 34.2 L27.35 34.35 26.95 34.2 Q26.35 33.85 26.25 33.0 L24.95 27.8 Q24.75 27.15 24.0 26.75 20.55 26.2 17.95 24.4 13.95 21.8 13.95 18.05 13.95 17.1 14.25 16.25 14.6 14.85 15.65 13.7 L15.7 13.65 15.75 13.6 15.8 13.55 15.8 13.5 15.85 13.5 Q16.1 13.05 15.75 12.6 L15.55 12.3 14.95 11.8 Q11.7 14.45 11.7 17.8 L11.7 18.3 Q11.7 22.45 16.55 25.4 18.6 26.7 20.35 27.3 L21.35 27.95 21.35 28.0 21.35 28.35 Q21.1 28.7 20.4 28.7 L19.9 28.7 Q16.7 28.0 13.9 26.25 9.1 23.4 8.55 19.5 8.25 19.1 7.8 19.1 L2.3 18.55 Q1.35 18.55 1.1 18.15 L1.1 17.95 1.6 17.65 2.3 17.55 2.35 17.55 7.75 16.95 Q8.15 16.95 8.6 16.55 8.9 14.75 10.3 12.95 11.5 11.5 13.25 10.3 L13.35 10.25 11.9 8.95 Q11.25 8.35 11.25 8.0 L11.3 7.75 11.4 7.75 11.45 7.65 11.75 7.65 11.95 7.65 Q12.5 7.65 13.2 8.05 L15.35 9.1 15.85 8.8 15.95 8.8 Q17.9 7.85 19.5 7.55 L20.25 7.45 20.6 7.45 21.2 7.7 21.3 7.75 21.35 7.85 21.35 8.15 20.35 8.85 Q19.15 9.3 17.95 9.95 L17.75 10.05 17.55 10.15 18.3 10.45 19.1 10.7 19.95 10.6 20.15 10.5 Q21.55 9.85 23.15 9.55 L23.2 9.55 23.75 9.45 23.8 9.4 24.95 8.4 25.0 8.15 26.35 -0.4 Q26.4 -1.35 26.95 -1.75 27.35 -2.0 27.8 -1.75 28.3 -1.35 28.35 -0.4 M25.05 12.2 L25.4 12.5 25.65 13.15 26.15 15.45 26.8 17.85 27.35 18.2 27.95 17.85 28.55 15.45 29.05 13.15 29.3 12.5 Q29.4 12.15 29.7 12.2 L30.0 12.2 Q32.85 12.8 34.6 14.35 36.45 16.05 36.45 18.05 36.45 20.55 33.75 22.35 L33.4 22.6 32.95 22.85 32.55 23.1 32.2 23.25 32.0 23.3 31.1 23.55 30.75 23.65 29.95 23.65 28.95 22.95 28.75 22.7 Q28.5 22.35 27.95 22.2 27.35 22.05 26.8 22.2 26.2 22.35 25.95 22.7 L25.75 22.95 Q25.35 23.5 24.8 23.65 L24.0 23.65 23.6 23.55 22.75 23.3 22.55 23.25 22.25 23.1 21.9 22.9 21.4 22.65 20.95 22.35 Q18.25 20.55 18.25 18.05 18.25 16.05 20.1 14.35 21.85 12.8 24.7 12.2 L25.05 12.2 Z" fill="none" stroke="#000000" stroke-linecap="round" stroke-linejoin="round" stroke-opacity="0.2" stroke-width="1.5"/>
    </g>
    <g id="sprite28" transform="matrix(1.0, 0.0, 0.0, 1.0, 3.65, -0.25)">
      <use ffdec:characterId="31" height="53.2" transform="matrix(1.0, 0.0, 0.0, 1.0, -3.65, 0.25)" width="51.45" xlink:href="#shape2"/>
    </g>
    <g id="shape2" transform="matrix(1.0, 0.0, 0.0, 1.0, 3.65, -0.25)">
      <path d="M37.8 14.35 L37.9 14.75 37.85 14.75 Q37.9 15.3 37.25 16.1 L35.85 18.1 35.95 18.15 Q37.65 19.9 38.8 22.05 40.2 24.7 40.5 27.35 40.9 27.95 41.3 27.95 L46.65 28.75 47.35 28.9 47.8 29.4 47.8 29.65 Q47.55 30.25 46.65 30.3 L41.25 31.05 Q40.8 31.05 40.5 31.65 39.95 37.35 35.3 41.55 32.5 44.15 29.45 45.15 L29.4 45.15 28.95 45.2 Q28.2 45.2 28.0 44.65 27.9 44.45 27.95 44.15 L28.0 44.05 Q28.15 43.45 29.0 43.05 30.65 42.25 32.7 40.35 37.4 35.95 37.4 29.9 L37.4 29.15 Q37.4 24.2 34.25 20.35 L33.7 21.05 33.5 21.5 Q33.1 22.2 33.4 22.85 L33.4 22.9 33.5 23.0 33.5 23.05 33.55 23.05 33.55 23.15 Q34.6 24.85 34.95 26.85 L35.2 29.5 Q35.2 35.0 31.35 38.8 28.75 41.45 25.4 42.3 24.65 42.9 24.45 43.85 L23.15 51.45 Q23.05 52.75 22.5 53.25 L22.1 53.45 21.7 53.25 Q21.1 52.75 21.0 51.45 L19.75 43.85 Q19.55 42.9 18.8 42.3 15.4 41.45 12.85 38.8 8.95 35.0 8.95 29.5 8.95 28.15 9.25 26.85 9.6 24.85 10.6 23.15 L10.65 23.1 10.65 23.05 10.7 23.0 10.75 22.9 10.75 22.85 10.8 22.85 Q11.05 22.2 10.7 21.5 L10.5 21.05 9.95 20.35 Q6.75 24.2 6.75 29.15 L6.75 29.9 Q6.75 35.95 11.5 40.35 13.5 42.25 15.2 43.05 16.0 43.45 16.2 44.05 L16.2 44.15 16.2 44.65 Q15.95 45.2 15.25 45.2 L14.85 45.15 14.8 45.15 Q11.65 44.15 8.9 41.55 4.2 37.35 3.65 31.65 3.35 31.05 2.9 31.05 L-2.45 30.3 Q-3.4 30.25 -3.65 29.65 L-3.65 29.4 -3.15 28.9 -2.45 28.75 -2.4 28.75 2.85 27.95 3.7 27.35 Q4.0 24.7 5.35 22.05 6.55 19.9 8.25 18.15 L8.35 18.1 6.95 16.1 Q6.3 15.3 6.3 14.75 L6.35 14.35 6.45 14.35 6.5 14.25 6.8 14.2 7.0 14.2 Q7.55 14.25 8.2 14.85 L10.3 16.35 10.8 15.9 10.9 15.9 Q12.8 14.55 14.4 14.05 L15.1 13.95 15.45 13.95 Q15.85 14.05 16.05 14.3 L16.15 14.4 16.2 14.55 16.2 14.95 Q16.0 15.55 15.2 16.0 14.05 16.65 12.85 17.6 L12.65 17.75 12.5 17.9 13.2 18.35 14.0 18.7 14.85 18.55 15.05 18.4 Q16.4 17.5 17.95 17.0 L18.0 17.0 18.55 16.85 18.6 16.8 19.75 15.35 19.8 14.95 21.1 2.45 Q21.15 1.05 21.7 0.45 22.1 0.05 22.5 0.45 23.0 1.05 23.05 2.45 L24.4 14.95 24.5 15.35 Q24.85 16.15 25.6 16.8 L25.6 16.85 26.2 17.0 Q27.75 17.5 29.15 18.4 L29.4 18.55 30.2 18.7 31.0 18.35 31.7 17.9 31.55 17.75 31.35 17.6 Q30.15 16.65 29.0 16.0 28.15 15.55 27.95 14.95 L27.95 14.55 28.0 14.4 28.1 14.3 Q28.3 14.05 28.75 13.95 L29.05 13.95 29.85 14.05 Q31.4 14.55 33.3 15.9 L33.35 15.9 33.9 16.35 36.0 14.85 Q36.65 14.25 37.25 14.2 L37.35 14.2 37.65 14.25 37.8 14.35 M19.85 20.9 L19.5 20.9 Q16.7 21.8 15.0 24.1 13.15 26.55 13.15 29.5 13.15 33.2 15.8 35.8 L16.25 36.25 16.75 36.65 17.1 36.95 17.4 37.15 17.6 37.2 18.4 37.6 18.8 37.75 19.6 37.75 20.5 36.7 20.7 36.35 Q20.95 35.8 21.55 35.55 22.1 35.4 22.65 35.55 L23.45 36.35 23.65 36.7 Q24.1 37.55 24.65 37.75 L25.4 37.75 25.75 37.6 26.65 37.2 26.85 37.15 Q27.0 37.0 27.2 36.95 L27.55 36.55 28.0 36.15 28.35 35.8 Q31.0 33.2 31.0 29.5 31.0 26.55 29.2 24.1 27.45 21.8 24.7 20.9 L24.4 20.9 Q24.1 20.85 24.0 21.35 L23.75 22.35 23.25 25.7 22.65 29.2 22.1 29.75 Q21.75 29.7 21.55 29.2 L20.9 25.7 20.4 22.35 20.15 21.35 19.85 20.9" fill="#000000" fill-rule="evenodd" stroke="none"/>
    </g>
  </defs>
</svg>
