<?xml version="1.0" encoding="UTF-8" standalone="no"?>
<svg xmlns:ffdec="https://www.free-decompiler.com/flash" xmlns:xlink="http://www.w3.org/1999/xlink" ffdec:objectType="frame" height="56.0px" width="56.0px" xmlns="http://www.w3.org/2000/svg">
  <g transform="matrix(1.0, 0.0, 0.0, 1.0, 0.0, 0.0)">
    <use ffdec:characterId="27" ffdec:characterName="327_fla.Symbole82_1" height="56.0" id="back" transform="matrix(1.0, 0.0, 0.0, 1.0, 0.0, 0.0)" width="56.0" xlink:href="#sprite0"/>
    <use ffdec:characterId="29" height="43.1" transform="matrix(1.0, 0.0, 0.0, 1.0, 1.5, 6.7)" width="53.2" xlink:href="#sprite26"/>
    <use ffdec:characterId="31" height="41.6" id="up" transform="matrix(1.0, 0.0, 0.0, 1.0, 2.25, 7.45)" width="51.7" xlink:href="#sprite27"/>
  </g>
  <defs>
    <g id="sprite0" transform="matrix(1.0, 0.0, 0.0, 1.0, 0.0, 0.0)">
      <use ffdec:characterId="26" ffdec:characterName="327_fla.Symbole79_2" height="56.0" id="back" transform="matrix(1.0, 0.0, 0.0, 1.0, 0.0, 0.0)" width="56.0" xlink:href="#sprite1"/>
    </g>
    <g id="sprite1" transform="matrix(1.0, 0.0, 0.0, 1.0, 0.0, 0.0)">
      <use ffdec:characterId="25" ffdec:characterName="327_fla.Symbole76_3" height="56.0" id="back" transform="matrix(1.0, 0.0, 0.0, 1.0, 0.0, 0.0)" width="56.0" xlink:href="#sprite2"/>
    </g>
    <g id="sprite2" transform="matrix(1.0, 0.0, 0.0, 1.0, 0.0, 0.0)">
      <use ffdec:characterId="24" ffdec:characterName="327_fla.Symbole73_4" height="56.0" id="back" transform="matrix(1.0, 0.0, 0.0, 1.0, 0.0, 0.0)" width="56.0" xlink:href="#sprite3"/>
    </g>
    <g id="sprite3" transform="matrix(1.0, 0.0, 0.0, 1.0, 0.0, 0.0)">
      <use ffdec:characterId="23" ffdec:characterName="327_fla.Symbole70_5" height="56.0" id="back" transform="matrix(1.0, 0.0, 0.0, 1.0, 0.0, 0.0)" width="56.0" xlink:href="#sprite4"/>
    </g>
    <g id="sprite4" transform="matrix(1.0, 0.0, 0.0, 1.0, 0.0, 0.0)">
      <use ffdec:characterId="22" ffdec:characterName="327_fla.Symbole67_6" height="56.0" id="back" transform="matrix(1.0, 0.0, 0.0, 1.0, 0.0, 0.0)" width="56.0" xlink:href="#sprite5"/>
    </g>
    <g id="sprite5" transform="matrix(1.0, 0.0, 0.0, 1.0, 0.0, 0.0)">
      <use ffdec:characterId="21" ffdec:characterName="327_fla.Symbole64_7" height="56.0" id="back" transform="matrix(1.0, 0.0, 0.0, 1.0, 0.0, 0.0)" width="56.0" xlink:href="#sprite6"/>
    </g>
    <g id="sprite6" transform="matrix(1.0, 0.0, 0.0, 1.0, 0.0, 0.0)">
      <use ffdec:characterId="20" ffdec:characterName="327_fla.Symbole61_8" height="56.0" id="back" transform="matrix(1.0, 0.0, 0.0, 1.0, 0.0, 0.0)" width="56.0" xlink:href="#sprite7"/>
    </g>
    <g id="sprite7" transform="matrix(1.0, 0.0, 0.0, 1.0, 0.0, 0.0)">
      <use ffdec:characterId="19" ffdec:characterName="327_fla.Symbole58_9" height="56.0" id="back" transform="matrix(1.0, 0.0, 0.0, 1.0, 0.0, 0.0)" width="56.0" xlink:href="#sprite8"/>
    </g>
    <g id="sprite8" transform="matrix(1.0, 0.0, 0.0, 1.0, 0.0, 0.0)">
      <use ffdec:characterId="18" ffdec:characterName="327_fla.Symbole55_10" height="56.0" id="back" transform="matrix(1.0, 0.0, 0.0, 1.0, 0.0, 0.0)" width="56.0" xlink:href="#sprite9"/>
    </g>
    <g id="sprite9" transform="matrix(1.0, 0.0, 0.0, 1.0, 0.0, 0.0)">
      <use ffdec:characterId="17" ffdec:characterName="327_fla.Symbole52_11" height="56.0" id="back" transform="matrix(1.0, 0.0, 0.0, 1.0, 0.0, 0.0)" width="56.0" xlink:href="#sprite10"/>
    </g>
    <g id="sprite10" transform="matrix(1.0, 0.0, 0.0, 1.0, 0.0, 0.0)">
      <use ffdec:characterId="16" ffdec:characterName="327_fla.Symbole49_12" height="56.0" id="back" transform="matrix(1.0, 0.0, 0.0, 1.0, 0.0, 0.0)" width="56.0" xlink:href="#sprite11"/>
    </g>
    <g id="sprite11" transform="matrix(1.0, 0.0, 0.0, 1.0, 0.0, 0.0)">
      <use ffdec:characterId="15" ffdec:characterName="327_fla.Symbole46_13" height="56.0" id="back" transform="matrix(1.0, 0.0, 0.0, 1.0, 0.0, 0.0)" width="56.0" xlink:href="#sprite12"/>
    </g>
    <g id="sprite12" transform="matrix(1.0, 0.0, 0.0, 1.0, 0.0, 0.0)">
      <use ffdec:characterId="14" ffdec:characterName="327_fla.Symbole43_14" height="56.0" id="back" transform="matrix(1.0, 0.0, 0.0, 1.0, 0.0, 0.0)" width="56.0" xlink:href="#sprite13"/>
    </g>
    <g id="sprite13" transform="matrix(1.0, 0.0, 0.0, 1.0, 0.0, 0.0)">
      <use ffdec:characterId="13" ffdec:characterName="327_fla.Symbole40_15" height="56.0" id="back" transform="matrix(1.0, 0.0, 0.0, 1.0, 0.0, 0.0)" width="56.0" xlink:href="#sprite14"/>
    </g>
    <g id="sprite14" transform="matrix(1.0, 0.0, 0.0, 1.0, 0.0, 0.0)">
      <use ffdec:characterId="12" ffdec:characterName="327_fla.Symbole37_16" height="56.0" id="back" transform="matrix(1.0, 0.0, 0.0, 1.0, 0.0, 0.0)" width="56.0" xlink:href="#sprite15"/>
    </g>
    <g id="sprite15" transform="matrix(1.0, 0.0, 0.0, 1.0, 0.0, 0.0)">
      <use ffdec:characterId="11" ffdec:characterName="327_fla.Symbole34_17" height="56.0" id="back" transform="matrix(1.0, 0.0, 0.0, 1.0, 0.0, 0.0)" width="56.0" xlink:href="#sprite16"/>
    </g>
    <g id="sprite16" transform="matrix(1.0, 0.0, 0.0, 1.0, 0.0, 0.0)">
      <use ffdec:characterId="10" ffdec:characterName="327_fla.Symbole31_18" height="56.0" id="back" transform="matrix(1.0, 0.0, 0.0, 1.0, 0.0, 0.0)" width="56.0" xlink:href="#sprite17"/>
    </g>
    <g id="sprite17" transform="matrix(1.0, 0.0, 0.0, 1.0, 0.0, 0.0)">
      <use ffdec:characterId="9" ffdec:characterName="327_fla.Symbole28_19" height="56.0" id="back" transform="matrix(1.0, 0.0, 0.0, 1.0, 0.0, 0.0)" width="56.0" xlink:href="#sprite18"/>
    </g>
    <g id="sprite18" transform="matrix(1.0, 0.0, 0.0, 1.0, 0.0, 0.0)">
      <use ffdec:characterId="8" ffdec:characterName="327_fla.Symbole25_20" height="56.0" id="back" transform="matrix(1.0, 0.0, 0.0, 1.0, 0.0, 0.0)" width="56.0" xlink:href="#sprite19"/>
    </g>
    <g id="sprite19" transform="matrix(1.0, 0.0, 0.0, 1.0, 0.0, 0.0)">
      <use ffdec:characterId="7" ffdec:characterName="327_fla.Symbole22_21" height="56.0" id="back" transform="matrix(1.0, 0.0, 0.0, 1.0, 0.0, 0.0)" width="56.0" xlink:href="#sprite20"/>
    </g>
    <g id="sprite20" transform="matrix(1.0, 0.0, 0.0, 1.0, 0.0, 0.0)">
      <use ffdec:characterId="6" ffdec:characterName="327_fla.Symbole19_22" height="56.0" id="back" transform="matrix(1.0, 0.0, 0.0, 1.0, 0.0, 0.0)" width="56.0" xlink:href="#sprite21"/>
    </g>
    <g id="sprite21" transform="matrix(1.0, 0.0, 0.0, 1.0, 0.0, 0.0)">
      <use ffdec:characterId="5" ffdec:characterName="327_fla.Symbole16_23" height="56.0" id="back" transform="matrix(1.0, 0.0, 0.0, 1.0, 0.0, 0.0)" width="56.0" xlink:href="#sprite22"/>
    </g>
    <g id="sprite22" transform="matrix(1.0, 0.0, 0.0, 1.0, 0.0, 0.0)">
      <use ffdec:characterId="4" ffdec:characterName="327_fla.Symbole13_24" height="56.0" id="back" transform="matrix(1.0, 0.0, 0.0, 1.0, 0.0, 0.0)" width="56.0" xlink:href="#sprite23"/>
    </g>
    <g id="sprite23" transform="matrix(1.0, 0.0, 0.0, 1.0, 0.0, 0.0)">
      <use ffdec:characterId="3" ffdec:characterName="327_fla.Symbole10_25" height="56.0" id="back" transform="matrix(1.0, 0.0, 0.0, 1.0, 0.0, 0.0)" width="56.0" xlink:href="#sprite24"/>
    </g>
    <g id="sprite24" transform="matrix(1.0, 0.0, 0.0, 1.0, 0.0, 0.0)">
      <use ffdec:characterId="2" height="56.0" id="back" transform="matrix(1.0, 0.0, 0.0, 1.0, 0.0, 0.0)" width="56.0" xlink:href="#sprite25"/>
    </g>
    <g id="sprite25" transform="matrix(1.0, 0.0, 0.0, 1.0, 0.0, 0.0)">
      <use ffdec:characterId="1" height="56.0" transform="matrix(1.0, 0.0, 0.0, 1.0, 0.0, 0.0)" width="56.0" xlink:href="#shape0"/>
    </g>
    <g id="shape0" transform="matrix(1.0, 0.0, 0.0, 1.0, 0.0, 0.0)">
      <path d="M56.0 56.0 L0.0 56.0 0.0 0.0 56.0 0.0 56.0 56.0" fill="#010101" fill-opacity="0.0" fill-rule="evenodd" stroke="none"/>
    </g>
    <g id="sprite26" transform="matrix(1.0, 0.0, 0.0, 1.0, 0.75, 0.75)">
      <use ffdec:characterId="28" height="43.1" transform="matrix(1.0, 0.0, 0.0, 1.0, -0.75, -0.75)" width="53.2" xlink:href="#shape1"/>
    </g>
    <g id="shape1" transform="matrix(1.0, 0.0, 0.0, 1.0, 0.75, 0.75)">
      <path d="M50.15 12.2 L51.05 12.5 51.1 12.5 51.15 12.55 Q51.55 13.1 51.65 14.0 L51.65 14.15 51.7 14.15 51.7 16.65 51.7 16.8 51.7 16.85 51.65 16.9 51.05 19.2 50.35 20.4 50.3 20.45 49.15 21.65 49.05 21.65 Q47.25 22.95 44.75 23.05 L43.95 21.2 Q43.45 20.4 43.35 19.25 L43.4 19.25 Q44.85 18.15 46.95 17.8 L47.0 17.85 Q47.55 19.15 47.15 20.65 L47.1 20.7 Q46.2 21.25 45.1 21.25 L45.05 21.25 44.75 20.35 45.1 20.25 Q45.7 20.15 45.75 19.8 L45.75 19.75 Q45.05 19.6 44.35 20.2 L44.35 20.25 Q44.3 21.2 44.8 21.6 46.35 21.8 47.45 21.05 L47.5 20.95 47.75 20.1 Q47.9 18.15 46.95 17.35 L46.9 17.35 Q44.85 17.85 43.2 18.7 L43.15 18.8 Q42.95 19.1 42.9 19.65 L44.1 22.9 Q44.75 24.95 43.65 26.35 41.35 29.15 38.65 31.55 34.95 34.9 30.25 36.85 34.3 33.95 37.95 30.75 40.5 28.5 42.45 25.7 43.25 24.5 42.65 22.9 41.65 20.15 40.1 17.85 L40.3 17.15 40.3 17.1 40.6 16.85 40.65 16.8 Q45.2 14.4 49.95 12.2 L50.15 12.2 M51.15 26.5 L51.05 26.8 49.75 29.4 49.75 29.45 Q48.6 31.35 45.6 31.25 44.2 31.2 43.2 30.75 L41.4 29.45 42.85 28.05 42.9 28.0 Q44.55 27.2 47.3 27.35 49.6 27.45 50.95 26.45 L51.05 26.4 51.15 26.5 M51.05 25.8 L50.6 26.25 50.6 26.3 Q48.55 27.25 45.2 27.15 L43.4 27.15 Q44.35 26.35 44.7 24.95 L44.75 24.9 50.6 25.1 Q50.9 25.15 51.05 25.45 L51.05 25.5 51.05 25.8 M43.75 35.0 Q42.15 36.15 39.8 35.65 L38.55 35.2 Q37.75 34.4 37.25 33.3 L37.25 33.25 Q37.9 32.75 38.95 32.7 L39.0 32.7 42.25 34.15 Q43.4 34.55 44.3 33.95 L44.5 34.1 43.75 34.95 43.75 35.0 M41.5 25.9 Q38.6 29.95 34.7 32.95 32.05 35.0 29.2 36.85 L26.5 41.35 26.5 41.4 26.5 41.5 26.4 41.5 26.4 41.6 26.35 41.6 26.35 41.5 26.35 39.55 26.4 39.55 26.4 39.5 26.4 36.8 26.4 36.7 26.4 36.2 26.5 36.2 Q30.7 33.45 34.0 29.9 36.1 27.65 36.65 23.95 L36.6 23.15 Q35.8 20.55 34.3 18.6 L33.4 17.45 27.8 11.25 Q27.45 10.85 26.95 10.6 L26.95 0.5 28.8 9.2 28.8 9.3 Q32.5 12.5 35.95 16.0 L37.2 17.3 40.4 20.95 Q41.6 22.35 41.8 24.6 41.85 25.4 41.5 25.9 M32.05 8.5 L29.0 1.4 28.95 1.35 27.5 0.05 27.5 0.0 27.4 0.0 27.35 0.0 29.2 9.0 29.2 9.05 36.35 15.7 37.85 17.25 Q39.95 19.55 41.65 22.25 40.6 19.6 39.15 17.2 L36.6 13.65 35.45 12.3 32.05 8.5 M24.25 0.0 L24.35 0.1 24.3 0.1 22.4 9.15 20.5 10.9 Q16.9 14.15 13.55 17.75 L13.0 18.35 10.5 21.65 9.95 22.1 Q10.85 20.2 11.9 18.4 13.4 15.85 15.25 13.6 17.35 10.9 19.7 8.45 21.15 4.8 22.75 1.35 L22.8 1.25 23.7 0.4 23.7 0.35 24.15 0.05 24.15 0.0 24.25 0.0 M24.65 0.5 L24.7 10.55 24.7 10.6 Q21.15 13.95 18.0 17.75 L17.65 18.15 Q15.95 20.4 15.1 23.4 15.0 23.85 15.05 24.35 15.55 27.2 17.05 29.1 20.25 32.8 24.35 35.6 L25.2 36.2 25.25 37.9 25.25 37.95 25.35 39.2 25.35 39.25 25.35 41.5 25.35 41.6 25.25 41.6 25.25 41.5 22.7 37.05 19.45 34.8 Q15.45 31.9 12.05 28.4 L11.15 27.5 Q9.8 26.25 9.8 23.65 11.4 20.75 13.4 18.35 L15.8 15.8 22.85 9.35 24.6 0.8 24.65 0.5 M26.6 20.3 L26.65 20.35 Q29.2 22.7 30.7 26.05 L30.75 26.15 30.7 26.3 Q30.15 28.05 29.0 29.25 L26.5 31.7 25.9 31.95 25.9 32.0 Q23.3 30.45 21.6 28.0 21.15 27.3 20.95 26.35 L20.95 26.3 20.95 25.85 Q22.6 22.3 25.5 20.05 L25.8 20.05 Q26.3 20.1 26.6 20.3 M1.55 12.2 L10.9 16.7 10.95 16.7 11.55 17.45 11.6 17.5 11.4 18.45 10.85 19.35 10.0 20.35 Q9.0 21.9 8.9 24.3 8.85 25.55 9.45 26.25 12.7 29.95 16.55 33.0 L21.3 36.85 Q16.55 34.75 12.95 31.4 L8.1 26.45 Q6.7 24.45 7.9 22.0 L8.8 19.4 8.6 18.85 8.6 18.8 8.2 18.6 Q6.7 17.8 4.8 17.35 L4.7 17.35 Q4.25 17.5 4.15 18.0 L4.1 18.0 4.05 18.75 3.95 20.1 3.95 20.2 3.95 20.3 4.25 20.9 4.25 20.95 Q5.25 21.8 6.8 21.65 L6.85 21.65 Q7.35 21.15 7.35 20.25 6.9 19.7 6.0 19.65 L6.0 19.7 5.95 19.7 Q6.15 20.25 6.85 20.35 L6.95 20.35 6.65 21.25 6.55 21.25 Q5.45 21.3 4.6 20.65 L4.55 20.65 Q4.3 19.65 4.45 18.75 L4.7 17.85 4.7 17.8 7.25 18.6 8.25 19.15 8.25 19.2 Q8.45 20.2 7.85 21.1 L7.55 21.55 7.05 23.1 Q4.3 22.85 2.55 21.6 L2.5 21.6 Q1.2 20.55 0.55 18.9 L0.05 16.7 0.0 16.7 0.0 16.65 0.0 14.4 0.0 14.35 Q0.1 13.45 0.45 12.75 L0.45 12.7 Q0.8 12.3 1.45 12.2 L1.55 12.2 M11.3 30.55 L13.15 32.2 13.2 32.25 Q11.35 32.7 9.9 33.55 L7.45 33.5 7.35 33.15 7.65 32.9 7.65 32.85 11.2 30.55 11.3 30.55 M10.25 29.55 Q8.5 31.25 5.2 31.25 4.1 31.3 3.4 30.8 1.3 29.3 0.6 26.45 2.95 27.85 7.1 27.6 8.15 27.55 8.75 28.05 L9.05 28.15 10.25 29.5 10.25 29.55 M14.45 33.25 L13.9 34.35 13.9 34.4 13.15 35.1 13.15 35.2 Q11.4 36.3 9.05 35.5 L7.9 34.95 7.55 34.55 7.5 34.55 7.2 34.0 7.2 33.95 10.15 33.9 Q11.4 33.25 12.75 32.7 13.8 32.75 14.4 33.25 L14.45 33.25 Z" fill="none" stroke="#000000" stroke-linecap="round" stroke-linejoin="round" stroke-opacity="0.2" stroke-width="1.5"/>
    </g>
    <g id="sprite27" transform="matrix(1.0, 0.0, 0.0, 1.0, 0.0, 0.0)">
      <use ffdec:characterId="30" height="41.6" transform="matrix(1.0, 0.0, 0.0, 1.0, 0.0, 0.0)" width="51.7" xlink:href="#shape2"/>
    </g>
    <g id="shape2" transform="matrix(1.0, 0.0, 0.0, 1.0, 0.0, 0.0)">
      <path d="M40.65 16.8 Q45.2 14.4 49.95 12.2 L50.15 12.2 51.05 12.5 51.1 12.5 51.15 12.55 Q51.55 13.1 51.65 14.0 L51.65 14.15 51.7 14.15 51.7 16.65 51.7 16.8 51.7 16.85 51.65 16.9 51.05 19.2 50.35 20.4 50.3 20.45 49.15 21.65 49.05 21.65 Q47.25 22.95 44.75 23.05 L43.95 21.2 Q43.45 20.4 43.35 19.25 L43.4 19.25 Q44.85 18.15 46.95 17.8 L47.0 17.85 Q47.55 19.15 47.15 20.65 L47.1 20.7 Q46.2 21.25 45.1 21.25 L45.05 21.25 44.75 20.35 45.1 20.25 Q45.7 20.15 45.75 19.8 L45.75 19.75 Q45.05 19.6 44.35 20.2 L44.35 20.25 Q44.3 21.2 44.8 21.6 46.35 21.8 47.45 21.05 L47.5 20.95 47.75 20.1 Q47.9 18.15 46.95 17.35 L46.9 17.35 Q44.85 17.85 43.2 18.7 L43.15 18.8 Q42.95 19.1 42.9 19.65 L44.1 22.9 Q44.75 24.95 43.65 26.35 41.35 29.15 38.65 31.55 34.95 34.9 30.25 36.85 34.3 33.95 37.95 30.75 40.5 28.5 42.45 25.7 43.25 24.5 42.65 22.9 41.65 20.15 40.1 17.85 L40.3 17.15 40.3 17.1 40.6 16.85 40.65 16.8 M51.05 25.5 L51.05 25.8 50.6 26.25 50.6 26.3 Q48.55 27.25 45.2 27.15 L43.4 27.15 Q44.35 26.35 44.7 24.95 L44.75 24.9 50.6 25.1 Q50.9 25.15 51.05 25.45 L51.05 25.5 M51.15 26.5 L51.05 26.8 49.75 29.4 49.75 29.45 Q48.6 31.35 45.6 31.25 44.2 31.2 43.2 30.75 L41.4 29.45 42.85 28.05 42.9 28.0 Q44.55 27.2 47.3 27.35 49.6 27.45 50.95 26.45 L51.05 26.4 51.15 26.5 M41.5 25.9 Q38.6 29.95 34.7 32.95 32.05 35.0 29.2 36.85 L26.5 41.35 26.5 41.4 26.5 41.5 26.4 41.5 26.4 41.6 26.35 41.6 26.35 41.5 26.35 39.55 26.4 39.55 26.4 39.5 26.4 36.8 26.4 36.7 26.4 36.2 26.5 36.2 Q30.7 33.45 34.0 29.9 36.1 27.65 36.65 23.95 L36.6 23.15 Q35.8 20.55 34.3 18.6 L33.4 17.45 27.8 11.25 Q27.45 10.85 26.95 10.6 L26.95 0.5 28.8 9.2 28.8 9.3 Q32.5 12.5 35.95 16.0 L37.2 17.3 40.4 20.95 Q41.6 22.35 41.8 24.6 41.85 25.4 41.5 25.9 M43.95 32.8 L44.4 33.35 44.4 33.4 41.45 33.35 Q40.2 32.55 38.45 32.25 L40.35 30.55 40.4 30.55 43.9 32.75 43.95 32.8 M43.75 35.0 Q42.15 36.15 39.8 35.65 L38.55 35.2 Q37.75 34.4 37.25 33.3 L37.25 33.25 Q37.9 32.75 38.95 32.7 L39.0 32.7 42.25 34.15 Q43.4 34.55 44.3 33.95 L44.5 34.1 43.75 34.95 43.75 35.0 M39.15 17.2 Q40.6 19.6 41.65 22.25 39.95 19.55 37.85 17.25 L36.35 15.7 29.2 9.05 29.2 9.0 27.35 0.0 27.4 0.0 27.5 0.0 27.5 0.05 28.95 1.35 29.0 1.4 32.05 8.5 35.45 12.3 36.6 13.65 39.15 17.2 M22.8 1.25 L23.7 0.4 23.7 0.35 24.15 0.05 24.15 0.0 24.25 0.0 24.35 0.0 24.3 0.1 22.4 9.15 20.5 10.9 Q16.9 14.15 13.55 17.75 L13.0 18.35 10.5 21.65 9.95 22.1 Q10.85 20.2 11.9 18.4 13.4 15.85 15.25 13.6 17.35 10.9 19.7 8.45 21.15 4.8 22.75 1.35 L22.8 1.25 M24.7 10.6 Q21.15 13.95 18.0 17.75 L17.65 18.15 Q15.95 20.4 15.1 23.4 15.0 23.85 15.05 24.35 15.55 27.2 17.05 29.1 20.25 32.8 24.35 35.6 L25.2 36.2 25.25 37.9 25.25 37.95 25.35 39.2 25.35 39.25 25.35 41.5 25.35 41.6 25.25 41.6 25.25 41.5 22.7 37.05 19.45 34.8 Q15.45 31.9 12.05 28.4 L11.15 27.5 Q9.8 26.25 9.8 23.65 11.4 20.75 13.4 18.35 L15.8 15.8 22.85 9.35 24.65 0.5 24.7 10.55 24.7 10.6 M1.55 12.2 L10.9 16.7 10.95 16.7 11.55 17.45 11.6 17.5 11.4 18.45 10.85 19.35 10.0 20.35 Q9.0 21.9 8.9 24.3 8.85 25.55 9.45 26.25 12.7 29.95 16.55 33.0 L21.3 36.85 Q16.55 34.75 12.95 31.4 L8.1 26.45 Q6.7 24.45 7.9 22.0 L8.8 19.4 8.6 18.85 8.6 18.8 8.2 18.6 Q6.7 17.8 4.8 17.35 L4.7 17.35 Q4.25 17.5 4.15 18.0 L4.1 18.0 4.05 18.75 3.95 20.1 3.95 20.2 3.95 20.3 4.25 20.9 4.25 20.95 Q5.25 21.8 6.8 21.65 L6.85 21.65 Q7.35 21.15 7.35 20.25 6.9 19.7 6.0 19.65 L6.0 19.7 5.95 19.7 Q6.15 20.25 6.85 20.35 L6.95 20.35 6.65 21.25 6.55 21.25 Q5.45 21.3 4.6 20.65 L4.55 20.65 Q4.3 19.65 4.45 18.75 L4.7 17.85 4.7 17.8 7.25 18.6 8.25 19.15 8.25 19.2 Q8.45 20.2 7.85 21.1 L7.55 21.55 7.05 23.1 Q4.3 22.85 2.55 21.6 L2.5 21.6 Q1.2 20.55 0.55 18.9 L0.05 16.7 0.0 16.7 0.0 16.65 0.0 14.4 0.0 14.35 Q0.1 13.45 0.45 12.75 L0.45 12.7 Q0.8 12.3 1.45 12.2 L1.55 12.2 M10.25 29.55 Q8.5 31.25 5.2 31.25 4.1 31.3 3.4 30.8 1.3 29.3 0.6 26.45 2.95 27.85 7.1 27.6 8.15 27.55 8.75 28.05 L9.05 28.15 10.25 29.5 10.25 29.55 M7.65 32.9 L7.65 32.85 11.2 30.55 11.3 30.55 13.15 32.2 13.2 32.25 Q11.35 32.7 9.9 33.55 L7.45 33.5 7.35 33.15 7.65 32.9 M7.2 33.95 L10.15 33.9 Q11.4 33.25 12.75 32.7 13.8 32.75 14.4 33.25 L14.45 33.25 13.9 34.35 13.9 34.4 13.15 35.1 13.15 35.2 Q11.4 36.3 9.05 35.5 L7.9 34.95 7.55 34.55 7.5 34.55 7.2 34.0 7.2 33.95 M31.8 26.2 L31.85 25.65 31.75 25.5 Q29.95 21.25 26.8 18.25 L26.75 18.25 Q26.35 17.95 25.8 17.8 L25.75 17.8 Q23.65 19.0 22.3 20.95 L22.3 21.05 Q20.8 23.05 19.6 25.45 L19.7 25.85 Q21.8 30.3 25.7 32.9 L25.8 32.9 26.55 32.55 Q29.75 29.95 31.8 26.2 M29.0 29.25 L26.5 31.7 25.9 31.95 25.9 32.0 Q23.3 30.45 21.6 28.0 21.15 27.3 20.95 26.35 L20.95 26.3 20.95 25.85 Q22.6 22.3 25.5 20.05 L25.8 20.05 Q26.3 20.1 26.6 20.3 L26.65 20.35 Q29.2 22.7 30.7 26.05 L30.75 26.15 30.7 26.3 Q30.15 28.05 29.0 29.25 M32.25 25.4 Q32.5 26.05 32.15 26.65 30.05 30.2 26.95 32.85 L25.95 33.35 25.9 33.4 Q24.6 32.95 23.65 32.1 20.95 29.6 19.25 26.15 L19.2 26.15 19.15 25.3 19.25 25.3 19.25 25.2 19.25 24.95 Q21.35 20.95 24.45 17.9 L24.5 17.85 24.55 17.85 25.55 17.35 25.65 17.35 Q26.3 17.5 26.8 17.75 27.75 18.2 28.35 18.95 30.7 21.75 32.25 25.35 L32.25 25.4" fill="#000000" fill-rule="evenodd" stroke="none"/>
    </g>
  </defs>
</svg>
