<?xml version="1.0" encoding="UTF-8" standalone="no"?>
<svg xmlns:ffdec="https://www.free-decompiler.com/flash" xmlns:xlink="http://www.w3.org/1999/xlink" ffdec:objectType="frame" height="56.0px" width="56.0px" xmlns="http://www.w3.org/2000/svg">
  <g transform="matrix(1.0, 0.0, 0.0, 1.0, 0.0, 0.0)">
    <use ffdec:characterId="27" ffdec:characterName="328_fla.Symbole82_1" height="56.0" id="back" transform="matrix(1.0, 0.0, 0.0, 1.0, 0.0, 0.0)" width="56.0" xlink:href="#sprite0"/>
    <use ffdec:characterId="29" height="49.95" transform="matrix(1.0, 0.0, 0.0, 1.0, 2.85, 3.45)" width="50.85" xlink:href="#sprite26"/>
    <use ffdec:characterId="31" height="48.45" id="up" transform="matrix(1.0, 0.0, 0.0, 1.0, 3.6, 4.2)" width="49.35" xlink:href="#sprite27"/>
  </g>
  <defs>
    <g id="sprite0" transform="matrix(1.0, 0.0, 0.0, 1.0, 0.0, 0.0)">
      <use ffdec:characterId="26" ffdec:characterName="328_fla.Symbole79_2" height="56.0" id="back" transform="matrix(1.0, 0.0, 0.0, 1.0, 0.0, 0.0)" width="56.0" xlink:href="#sprite1"/>
    </g>
    <g id="sprite1" transform="matrix(1.0, 0.0, 0.0, 1.0, 0.0, 0.0)">
      <use ffdec:characterId="25" ffdec:characterName="328_fla.Symbole76_3" height="56.0" id="back" transform="matrix(1.0, 0.0, 0.0, 1.0, 0.0, 0.0)" width="56.0" xlink:href="#sprite2"/>
    </g>
    <g id="sprite2" transform="matrix(1.0, 0.0, 0.0, 1.0, 0.0, 0.0)">
      <use ffdec:characterId="24" ffdec:characterName="328_fla.Symbole73_4" height="56.0" id="back" transform="matrix(1.0, 0.0, 0.0, 1.0, 0.0, 0.0)" width="56.0" xlink:href="#sprite3"/>
    </g>
    <g id="sprite3" transform="matrix(1.0, 0.0, 0.0, 1.0, 0.0, 0.0)">
      <use ffdec:characterId="23" ffdec:characterName="328_fla.Symbole70_5" height="56.0" id="back" transform="matrix(1.0, 0.0, 0.0, 1.0, 0.0, 0.0)" width="56.0" xlink:href="#sprite4"/>
    </g>
    <g id="sprite4" transform="matrix(1.0, 0.0, 0.0, 1.0, 0.0, 0.0)">
      <use ffdec:characterId="22" ffdec:characterName="328_fla.Symbole67_6" height="56.0" id="back" transform="matrix(1.0, 0.0, 0.0, 1.0, 0.0, 0.0)" width="56.0" xlink:href="#sprite5"/>
    </g>
    <g id="sprite5" transform="matrix(1.0, 0.0, 0.0, 1.0, 0.0, 0.0)">
      <use ffdec:characterId="21" ffdec:characterName="328_fla.Symbole64_7" height="56.0" id="back" transform="matrix(1.0, 0.0, 0.0, 1.0, 0.0, 0.0)" width="56.0" xlink:href="#sprite6"/>
    </g>
    <g id="sprite6" transform="matrix(1.0, 0.0, 0.0, 1.0, 0.0, 0.0)">
      <use ffdec:characterId="20" ffdec:characterName="328_fla.Symbole61_8" height="56.0" id="back" transform="matrix(1.0, 0.0, 0.0, 1.0, 0.0, 0.0)" width="56.0" xlink:href="#sprite7"/>
    </g>
    <g id="sprite7" transform="matrix(1.0, 0.0, 0.0, 1.0, 0.0, 0.0)">
      <use ffdec:characterId="19" ffdec:characterName="328_fla.Symbole58_9" height="56.0" id="back" transform="matrix(1.0, 0.0, 0.0, 1.0, 0.0, 0.0)" width="56.0" xlink:href="#sprite8"/>
    </g>
    <g id="sprite8" transform="matrix(1.0, 0.0, 0.0, 1.0, 0.0, 0.0)">
      <use ffdec:characterId="18" ffdec:characterName="328_fla.Symbole55_10" height="56.0" id="back" transform="matrix(1.0, 0.0, 0.0, 1.0, 0.0, 0.0)" width="56.0" xlink:href="#sprite9"/>
    </g>
    <g id="sprite9" transform="matrix(1.0, 0.0, 0.0, 1.0, 0.0, 0.0)">
      <use ffdec:characterId="17" ffdec:characterName="328_fla.Symbole52_11" height="56.0" id="back" transform="matrix(1.0, 0.0, 0.0, 1.0, 0.0, 0.0)" width="56.0" xlink:href="#sprite10"/>
    </g>
    <g id="sprite10" transform="matrix(1.0, 0.0, 0.0, 1.0, 0.0, 0.0)">
      <use ffdec:characterId="16" ffdec:characterName="328_fla.Symbole49_12" height="56.0" id="back" transform="matrix(1.0, 0.0, 0.0, 1.0, 0.0, 0.0)" width="56.0" xlink:href="#sprite11"/>
    </g>
    <g id="sprite11" transform="matrix(1.0, 0.0, 0.0, 1.0, 0.0, 0.0)">
      <use ffdec:characterId="15" ffdec:characterName="328_fla.Symbole46_13" height="56.0" id="back" transform="matrix(1.0, 0.0, 0.0, 1.0, 0.0, 0.0)" width="56.0" xlink:href="#sprite12"/>
    </g>
    <g id="sprite12" transform="matrix(1.0, 0.0, 0.0, 1.0, 0.0, 0.0)">
      <use ffdec:characterId="14" ffdec:characterName="328_fla.Symbole43_14" height="56.0" id="back" transform="matrix(1.0, 0.0, 0.0, 1.0, 0.0, 0.0)" width="56.0" xlink:href="#sprite13"/>
    </g>
    <g id="sprite13" transform="matrix(1.0, 0.0, 0.0, 1.0, 0.0, 0.0)">
      <use ffdec:characterId="13" ffdec:characterName="328_fla.Symbole40_15" height="56.0" id="back" transform="matrix(1.0, 0.0, 0.0, 1.0, 0.0, 0.0)" width="56.0" xlink:href="#sprite14"/>
    </g>
    <g id="sprite14" transform="matrix(1.0, 0.0, 0.0, 1.0, 0.0, 0.0)">
      <use ffdec:characterId="12" ffdec:characterName="328_fla.Symbole37_16" height="56.0" id="back" transform="matrix(1.0, 0.0, 0.0, 1.0, 0.0, 0.0)" width="56.0" xlink:href="#sprite15"/>
    </g>
    <g id="sprite15" transform="matrix(1.0, 0.0, 0.0, 1.0, 0.0, 0.0)">
      <use ffdec:characterId="11" ffdec:characterName="328_fla.Symbole34_17" height="56.0" id="back" transform="matrix(1.0, 0.0, 0.0, 1.0, 0.0, 0.0)" width="56.0" xlink:href="#sprite16"/>
    </g>
    <g id="sprite16" transform="matrix(1.0, 0.0, 0.0, 1.0, 0.0, 0.0)">
      <use ffdec:characterId="10" ffdec:characterName="328_fla.Symbole31_18" height="56.0" id="back" transform="matrix(1.0, 0.0, 0.0, 1.0, 0.0, 0.0)" width="56.0" xlink:href="#sprite17"/>
    </g>
    <g id="sprite17" transform="matrix(1.0, 0.0, 0.0, 1.0, 0.0, 0.0)">
      <use ffdec:characterId="9" ffdec:characterName="328_fla.Symbole28_19" height="56.0" id="back" transform="matrix(1.0, 0.0, 0.0, 1.0, 0.0, 0.0)" width="56.0" xlink:href="#sprite18"/>
    </g>
    <g id="sprite18" transform="matrix(1.0, 0.0, 0.0, 1.0, 0.0, 0.0)">
      <use ffdec:characterId="8" ffdec:characterName="328_fla.Symbole25_20" height="56.0" id="back" transform="matrix(1.0, 0.0, 0.0, 1.0, 0.0, 0.0)" width="56.0" xlink:href="#sprite19"/>
    </g>
    <g id="sprite19" transform="matrix(1.0, 0.0, 0.0, 1.0, 0.0, 0.0)">
      <use ffdec:characterId="7" ffdec:characterName="328_fla.Symbole22_21" height="56.0" id="back" transform="matrix(1.0, 0.0, 0.0, 1.0, 0.0, 0.0)" width="56.0" xlink:href="#sprite20"/>
    </g>
    <g id="sprite20" transform="matrix(1.0, 0.0, 0.0, 1.0, 0.0, 0.0)">
      <use ffdec:characterId="6" ffdec:characterName="328_fla.Symbole19_22" height="56.0" id="back" transform="matrix(1.0, 0.0, 0.0, 1.0, 0.0, 0.0)" width="56.0" xlink:href="#sprite21"/>
    </g>
    <g id="sprite21" transform="matrix(1.0, 0.0, 0.0, 1.0, 0.0, 0.0)">
      <use ffdec:characterId="5" ffdec:characterName="328_fla.Symbole16_23" height="56.0" id="back" transform="matrix(1.0, 0.0, 0.0, 1.0, 0.0, 0.0)" width="56.0" xlink:href="#sprite22"/>
    </g>
    <g id="sprite22" transform="matrix(1.0, 0.0, 0.0, 1.0, 0.0, 0.0)">
      <use ffdec:characterId="4" ffdec:characterName="328_fla.Symbole13_24" height="56.0" id="back" transform="matrix(1.0, 0.0, 0.0, 1.0, 0.0, 0.0)" width="56.0" xlink:href="#sprite23"/>
    </g>
    <g id="sprite23" transform="matrix(1.0, 0.0, 0.0, 1.0, 0.0, 0.0)">
      <use ffdec:characterId="3" ffdec:characterName="328_fla.Symbole10_25" height="56.0" id="back" transform="matrix(1.0, 0.0, 0.0, 1.0, 0.0, 0.0)" width="56.0" xlink:href="#sprite24"/>
    </g>
    <g id="sprite24" transform="matrix(1.0, 0.0, 0.0, 1.0, 0.0, 0.0)">
      <use ffdec:characterId="2" height="56.0" id="back" transform="matrix(1.0, 0.0, 0.0, 1.0, 0.0, 0.0)" width="56.0" xlink:href="#sprite25"/>
    </g>
    <g id="sprite25" transform="matrix(1.0, 0.0, 0.0, 1.0, 0.0, 0.0)">
      <use ffdec:characterId="1" height="56.0" transform="matrix(1.0, 0.0, 0.0, 1.0, 0.0, 0.0)" width="56.0" xlink:href="#shape0"/>
    </g>
    <g id="shape0" transform="matrix(1.0, 0.0, 0.0, 1.0, 0.0, 0.0)">
      <path d="M56.0 56.0 L0.0 56.0 0.0 0.0 56.0 0.0 56.0 56.0" fill="#010101" fill-opacity="0.0" fill-rule="evenodd" stroke="none"/>
    </g>
    <g id="sprite26" transform="matrix(1.0, 0.0, 0.0, 1.0, 0.75, 0.75)">
      <use ffdec:characterId="28" height="49.95" transform="matrix(1.0, 0.0, 0.0, 1.0, -0.75, -0.75)" width="50.85" xlink:href="#shape1"/>
    </g>
    <g id="shape1" transform="matrix(1.0, 0.0, 0.0, 1.0, 0.75, 0.75)">
      <path d="M42.9 3.2 Q42.1 1.75 40.25 0.7 L39.95 0.5 39.4 0.35 39.25 0.35 Q34.75 -0.75 31.7 2.2 L31.4 2.65 31.1 3.2 Q29.05 7.25 30.35 10.2 L24.7 15.5 19.05 10.2 Q20.25 7.25 18.25 3.2 L17.95 2.65 17.65 2.2 Q14.6 -0.75 10.15 0.3 L10.05 0.35 9.6 0.45 9.05 0.7 Q7.2 1.75 6.45 3.2 L6.05 4.1 6.05 4.15 5.85 5.45 4.1 5.9 4.1 5.95 Q1.35 6.95 0.1 10.15 L0.0 10.9 Q0.4 18.45 5.25 19.6 L5.35 19.6 Q8.7 20.3 10.95 19.2 9.8 20.0 10.0 21.1 L10.05 21.5 10.05 22.4 9.6 22.95 9.55 23.0 Q8.8 24.1 8.8 25.6 8.8 27.15 9.6 28.25 L10.05 28.8 10.65 29.25 10.7 29.3 10.2 29.15 10.15 29.15 Q7.3 28.4 3.55 30.55 L3.1 30.8 Q0.15 33.85 1.2 38.4 L1.2 38.35 1.4 38.9 1.6 39.4 Q3.0 41.85 5.05 42.35 L5.65 42.45 6.3 42.4 Q6.4 43.45 6.75 44.3 L6.75 44.35 Q7.4 46.05 8.95 47.2 L11.05 48.35 11.8 48.45 Q15.2 48.3 17.35 47.2 19.85 45.9 20.45 43.2 L20.5 43.05 Q21.25 39.65 20.05 37.35 L24.65 33.15 29.35 37.35 Q28.2 39.65 28.8 43.05 L28.85 43.2 Q29.45 45.9 32.05 47.2 34.15 48.3 37.6 48.45 L38.25 48.35 Q39.5 47.9 40.4 47.2 41.95 46.05 42.6 44.35 L42.6 44.3 43.0 42.4 43.75 42.45 44.3 42.35 Q46.35 41.85 47.85 39.4 L48.0 38.9 48.15 38.35 Q49.2 33.8 46.2 30.8 L45.85 30.55 Q41.9 28.35 39.0 29.15 L39.0 28.5 39.0 28.4 39.1 28.3 Q39.95 27.2 39.95 25.6 39.95 24.05 39.15 22.95 L38.95 22.75 38.95 21.5 38.95 20.65 38.85 20.45 38.7 20.0 Q38.6 19.55 38.1 19.25 L38.2 19.1 Q40.5 20.3 44.0 19.6 L44.15 19.6 Q47.45 18.8 48.65 15.15 49.25 13.35 49.35 10.9 L49.25 10.15 48.65 8.9 Q47.4 6.7 45.25 5.9 L43.55 5.45 43.3 4.15 42.9 3.2 Z" fill="none" stroke="#000000" stroke-linecap="round" stroke-linejoin="round" stroke-opacity="0.2" stroke-width="1.5"/>
    </g>
    <g id="sprite27" transform="matrix(1.0, 0.0, 0.0, 1.0, 0.0, 0.0)">
      <use ffdec:characterId="30" height="48.45" transform="matrix(1.0, 0.0, 0.0, 1.0, 0.0, 0.0)" width="49.35" xlink:href="#shape2"/>
    </g>
    <g id="shape2" transform="matrix(1.0, 0.0, 0.0, 1.0, 0.0, 0.0)">
      <path d="M39.4 0.35 L39.95 0.5 40.25 0.7 Q42.1 1.75 42.9 3.2 L43.3 4.15 43.55 5.45 45.25 5.9 Q47.4 6.7 48.65 8.9 L49.25 10.15 49.35 10.9 Q49.25 13.35 48.65 15.15 47.45 18.8 44.15 19.6 L44.0 19.6 Q40.5 20.3 38.2 19.1 L38.1 19.25 Q38.6 19.55 38.7 20.0 L38.85 20.45 38.95 20.65 38.95 21.5 38.95 22.75 39.15 22.95 Q39.95 24.05 39.95 25.6 39.95 27.2 39.1 28.3 L39.0 28.4 39.0 28.5 39.0 29.15 Q41.9 28.35 45.85 30.55 L46.2 30.8 Q49.2 33.8 48.15 38.35 L48.0 38.9 47.85 39.4 Q46.35 41.85 44.3 42.35 L43.75 42.45 43.0 42.4 42.6 44.3 42.6 44.35 Q41.95 46.05 40.4 47.2 39.5 47.9 38.25 48.35 L37.6 48.45 Q34.15 48.3 32.05 47.2 29.45 45.9 28.85 43.2 L28.8 43.05 Q28.2 39.65 29.35 37.35 L24.65 33.15 20.05 37.35 Q21.25 39.65 20.5 43.05 L20.45 43.2 Q19.85 45.9 17.35 47.2 15.2 48.3 11.8 48.45 L11.05 48.35 8.95 47.2 Q7.4 46.05 6.75 44.35 L6.75 44.3 Q6.4 43.45 6.3 42.4 L5.65 42.45 5.05 42.35 Q3.0 41.85 1.6 39.4 L1.4 38.9 1.2 38.35 1.2 38.4 Q0.15 33.85 3.1 30.8 L3.55 30.55 Q7.3 28.4 10.15 29.15 L10.2 29.15 10.7 29.3 10.65 29.25 10.05 28.8 9.6 28.25 Q8.8 27.15 8.8 25.6 8.8 24.1 9.55 23.0 L9.6 22.95 10.05 22.4 10.05 21.5 10.0 21.1 Q9.8 20.0 10.95 19.2 8.7 20.3 5.35 19.6 L5.25 19.6 Q0.4 18.45 0.0 10.9 L0.1 10.15 Q1.35 6.95 4.1 5.95 L4.1 5.9 5.85 5.45 6.05 4.15 6.05 4.1 6.45 3.2 Q7.2 1.75 9.05 0.7 L9.6 0.45 10.05 0.35 10.15 0.3 Q14.6 -0.75 17.65 2.2 L17.95 2.65 18.25 3.2 Q20.25 7.25 19.05 10.2 L24.7 15.5 30.35 10.2 Q29.05 7.25 31.1 3.2 L31.4 2.65 31.7 2.2 Q34.75 -0.75 39.25 0.35 L39.4 0.35 M38.8 2.0 Q35.55 1.25 33.25 3.2 L32.9 3.5 Q30.55 7.75 32.55 10.5 L24.65 17.9 16.75 10.5 Q18.75 7.75 16.4 3.5 L16.1 3.2 Q13.8 1.25 10.5 2.0 L9.95 2.2 Q9.15 2.65 8.6 3.2 7.95 3.85 7.75 4.65 7.4 5.8 7.9 7.2 L4.75 7.55 4.5 8.0 Q4.85 14.1 8.5 15.15 12.15 15.85 14.15 13.95 L21.0 21.5 21.7 22.25 17.3 21.95 16.1 21.75 15.75 21.65 14.05 19.85 Q11.8 20.4 11.8 21.1 L11.85 21.25 Q12.1 22.05 15.5 22.65 L16.15 22.75 24.5 23.3 29.9 23.15 33.5 22.65 Q36.75 22.1 37.2 21.3 L37.25 21.1 37.2 20.85 Q36.85 20.35 35.2 19.9 L33.65 21.5 29.1 22.3 28.45 21.6 28.35 21.5 35.15 13.95 Q37.15 15.85 40.8 15.15 44.5 14.1 44.8 8.0 L44.6 7.55 41.45 7.2 Q41.9 5.8 41.55 4.65 41.3 3.85 40.7 3.2 40.15 2.65 39.4 2.2 L38.8 2.0 M37.7 24.0 L37.2 23.55 36.55 23.35 Q35.85 23.35 35.4 24.0 34.9 24.65 34.9 25.6 34.9 26.55 35.4 27.25 35.85 27.85 36.55 27.85 L37.25 27.65 37.7 27.25 Q38.2 26.55 38.2 25.6 38.2 24.65 37.7 24.0 M37.85 31.7 L35.9 29.5 35.85 29.5 33.5 30.0 30.1 30.45 34.55 34.25 Q32.55 36.25 33.35 39.95 34.35 43.65 40.45 43.9 L40.9 43.7 Q41.45 42.35 41.25 40.55 L43.8 40.7 Q45.2 40.25 46.25 38.5 L46.4 37.95 Q47.2 34.45 44.95 32.05 40.7 29.65 37.85 31.7 M12.75 23.5 L12.15 23.35 11.85 23.45 11.55 23.5 Q11.2 23.65 11.0 24.0 10.5 24.65 10.5 25.6 10.5 26.55 11.0 27.25 L11.55 27.7 11.85 27.85 12.15 27.85 12.75 27.75 13.3 27.25 Q13.8 26.55 13.8 25.6 13.8 24.65 13.3 24.0 L12.75 23.5 M15.75 26.6 L15.8 26.95 Q15.85 27.65 16.25 28.25 L17.05 28.75 17.65 28.9 18.25 28.75 18.95 28.25 Q19.5 27.55 19.5 26.6 L19.2 25.3 18.95 25.05 18.4 24.55 18.25 24.5 17.65 24.35 17.05 24.5 Q16.65 24.6 16.25 25.05 15.75 25.7 15.75 26.6 M13.45 29.6 L13.35 29.55 12.8 30.2 12.6 30.4 11.4 31.7 Q8.65 29.65 4.35 32.05 2.05 34.45 2.9 37.95 L3.05 38.5 Q4.1 40.25 5.55 40.7 L8.1 40.55 Q7.9 42.35 8.4 43.7 L8.9 43.9 Q15.0 43.65 16.0 39.95 16.75 36.25 14.85 34.25 L19.2 30.45 18.5 30.45 13.45 29.6 M33.0 25.05 Q32.45 24.35 31.6 24.35 L31.15 24.45 30.8 24.55 30.5 24.85 30.35 25.05 Q29.75 25.7 29.75 26.6 29.75 27.55 30.35 28.25 L30.8 28.7 31.6 28.9 Q32.45 28.9 33.0 28.25 L33.55 26.95 33.55 26.6 Q33.55 25.7 33.0 25.05 M27.05 26.95 Q27.05 26.05 26.4 25.4 25.7 24.7 24.8 24.7 L24.25 24.75 24.15 24.8 Q23.6 24.95 23.25 25.4 22.55 26.05 22.55 26.95 22.55 27.9 23.25 28.6 23.65 29.0 24.25 29.15 L24.8 29.25 Q25.7 29.25 26.4 28.6 L26.95 27.55 27.05 26.95" fill="#000000" fill-rule="evenodd" stroke="none"/>
      <path d="M13.65 20.9 L13.95 20.5 15.1 21.75 Q13.8 21.45 13.65 21.05 L13.65 20.9 M33.9 21.6 L34.75 20.7 34.9 21.1 Q34.75 21.35 33.9 21.6" fill="#352426" fill-rule="evenodd" stroke="none"/>
    </g>
  </defs>
</svg>
