<?xml version="1.0" encoding="UTF-8" standalone="no"?>
<svg xmlns:ffdec="https://www.free-decompiler.com/flash" xmlns:xlink="http://www.w3.org/1999/xlink" ffdec:objectType="frame" height="56.0px" width="56.0px" xmlns="http://www.w3.org/2000/svg">
  <g transform="matrix(1.0, 0.0, 0.0, 1.0, 0.0, 0.0)">
    <use ffdec:characterId="2" height="56.0" id="back" transform="matrix(1.0, 0.0, 0.0, 1.0, 0.0, 0.0)" width="56.0" xlink:href="#sprite0"/>
    <use ffdec:characterId="3" height="51.25" transform="matrix(1.0, 0.0, 0.0, 1.0, 6.05, 2.4)" width="43.95" xlink:href="#shape1"/>
  </g>
  <defs>
    <g id="sprite0" transform="matrix(1.0, 0.0, 0.0, 1.0, 0.0, 0.0)">
      <use ffdec:characterId="1" height="56.0" transform="matrix(1.0, 0.0, 0.0, 1.0, 0.0, 0.0)" width="56.0" xlink:href="#shape0"/>
    </g>
    <g id="shape0" transform="matrix(1.0, 0.0, 0.0, 1.0, 0.0, 0.0)">
      <path d="M56.0 56.0 L0.0 56.0 0.0 0.0 56.0 0.0 56.0 56.0" fill="#010101" fill-opacity="0.0" fill-rule="evenodd" stroke="none"/>
    </g>
    <g id="shape1" transform="matrix(1.0, 0.0, 0.0, 1.0, -6.05, -2.4)">
      <path d="M32.2 25.75 Q31.65 26.95 30.8 27.65 L31.0 28.0 31.2 28.3 32.6 27.8 Q37.65 26.05 40.4 21.95 42.05 22.7 43.35 23.75 46.15 25.6 48.1 28.4 L47.55 30.05 Q46.0 33.9 43.3 36.3 L42.5 35.85 Q41.6 35.45 41.0 34.6 L40.4 33.65 39.95 32.7 40.05 32.7 39.95 32.6 41.4 32.55 Q42.05 31.55 42.1 30.65 42.1 29.3 40.75 27.85 39.75 27.8 38.85 28.45 37.55 29.3 36.1 31.0 L35.8 31.4 Q33.25 34.25 29.05 34.6 L29.0 34.6 28.45 34.55 27.9 34.6 27.8 34.6 Q23.65 34.25 21.1 31.4 L20.8 31.0 Q19.3 29.3 18.05 28.45 17.15 27.8 16.1 27.85 14.8 29.3 14.8 30.65 14.85 31.55 15.45 32.55 L16.9 32.6 16.85 32.7 16.9 32.7 16.5 33.65 15.75 34.6 Q15.3 35.45 14.35 35.85 L13.6 36.3 Q10.8 33.9 9.35 30.05 L8.75 28.4 Q10.75 25.6 13.5 23.75 14.85 22.7 16.5 21.95 19.25 26.05 24.25 27.8 L25.6 28.3 25.9 28.0 26.1 27.65 Q25.25 26.95 24.7 25.75 26.0 24.4 26.9 22.25 L26.9 14.9 Q24.8 11.75 24.25 9.1 26.0 4.95 28.4 3.05 L28.4 2.9 28.45 2.95 28.5 2.9 28.5 3.05 Q30.85 4.95 32.6 9.1 32.05 11.75 29.95 14.9 L29.95 22.25 Q30.85 24.4 32.2 25.75 M29.05 8.9 L28.45 7.2 27.8 8.9 28.45 10.1 29.05 8.9 M31.35 44.7 Q31.5 43.95 32.3 43.3 L31.55 41.95 31.55 41.55 31.8 41.25 32.2 41.1 Q33.25 41.35 34.4 42.0 L37.1 41.2 37.15 41.2 38.15 41.1 Q38.4 40.35 38.8 39.85 38.9 39.65 39.1 39.65 L39.45 39.65 39.75 39.85 40.45 41.2 Q42.6 41.25 44.25 42.0 45.3 41.35 46.35 41.1 L46.75 41.25 47.05 41.55 47.05 41.8 47.05 42.05 46.35 43.35 Q47.05 43.95 47.3 44.7 L49.1 45.3 49.4 45.6 49.5 45.95 49.25 46.3 48.9 46.45 48.85 46.5 49.1 46.45 48.8 46.65 48.7 46.65 46.75 47.35 45.9 48.7 45.8 48.8 45.55 48.95 46.5 51.05 46.4 51.4 46.2 51.7 45.8 51.75 Q44.4 51.45 43.35 50.75 42.1 51.4 40.55 51.55 L39.75 52.95 39.45 53.15 39.1 53.15 38.9 52.95 Q38.35 52.3 38.1 51.55 36.55 51.3 35.4 50.75 L33.25 51.5 32.9 51.5 32.6 51.25 32.5 50.9 32.6 50.5 Q32.8 49.8 33.35 49.15 L32.85 48.8 32.8 48.7 31.9 47.45 Q30.35 47.05 29.25 46.3 L29.1 46.0 29.1 45.6 29.4 45.3 31.35 44.7 M45.8 41.8 L45.8 41.9 45.9 41.8 45.8 41.8 M43.75 45.85 Q43.7 46.75 42.6 47.35 41.3 48.1 39.4 48.1 37.55 48.1 36.25 47.35 35.1 46.75 35.05 45.85 35.1 44.95 36.25 44.35 37.55 43.6 39.4 43.6 41.3 43.6 42.6 44.35 43.7 44.95 43.75 45.85 M43.05 48.15 Q44.7 47.2 44.65 45.85 44.7 44.5 43.05 43.55 41.55 42.7 39.4 42.7 37.3 42.7 35.8 43.55 34.1 44.5 34.15 45.85 34.1 47.2 35.8 48.15 37.3 49.0 39.4 49.0 41.55 49.0 43.05 48.15 M8.8 44.6 Q9.0 43.85 9.75 43.2 L9.05 41.85 9.05 41.45 9.3 41.15 Q9.45 40.95 9.7 41.0 10.75 41.25 11.85 41.9 13.05 41.35 14.6 41.05 L14.65 41.05 15.65 41.0 Q15.9 40.25 16.3 39.7 16.4 39.55 16.6 39.55 L16.95 39.55 17.25 39.7 17.95 41.05 Q20.1 41.15 21.75 41.9 22.8 41.25 23.85 41.0 L24.25 41.15 24.55 41.45 24.55 41.65 24.55 41.95 23.85 43.25 Q24.55 43.85 24.8 44.6 L26.6 45.2 26.9 45.5 26.95 45.85 26.75 46.2 26.4 46.3 26.3 46.4 26.6 46.3 26.25 46.55 26.2 46.55 24.25 47.25 23.4 48.6 23.3 48.65 23.0 48.85 23.95 50.9 23.9 51.25 23.65 51.55 23.25 51.65 Q21.9 51.35 20.85 50.6 L18.05 51.45 17.25 52.85 16.95 53.05 16.6 53.05 16.35 52.85 15.6 51.45 Q14.05 51.2 12.9 50.6 L10.75 51.4 10.4 51.4 10.1 51.15 10.0 50.8 10.1 50.4 Q10.3 49.7 10.8 49.05 L10.35 48.65 10.3 48.6 Q9.7 47.95 9.4 47.3 7.8 46.95 6.75 46.2 L6.6 45.9 6.6 45.5 6.9 45.2 Q7.7 44.8 8.8 44.6 M23.3 41.65 L23.3 41.75 23.4 41.65 23.3 41.65 M21.0 45.85 Q20.95 46.7 19.8 47.35 18.5 48.1 16.65 48.1 14.8 48.1 13.5 47.35 12.35 46.7 12.3 45.85 12.35 44.95 13.5 44.35 14.8 43.6 16.65 43.6 18.5 43.6 19.8 44.35 20.95 44.95 21.0 45.85 M20.25 48.15 Q21.95 47.2 21.9 45.85 21.95 44.5 20.25 43.55 18.75 42.7 16.65 42.7 14.55 42.7 13.05 43.55 11.35 44.5 11.4 45.85 11.35 47.2 13.05 48.15 14.55 49.0 16.65 49.0 18.75 49.0 20.25 48.15" fill="#000000" fill-opacity="0.2" fill-rule="evenodd" stroke="none"/>
      <path d="M32.2 25.75 Q30.85 24.4 29.95 22.25 L29.95 14.9 Q32.05 11.75 32.6 9.1 30.85 4.95 28.5 3.05 L28.5 2.9 28.45 2.95 28.4 2.9 28.4 3.05 Q26.0 4.95 24.25 9.1 24.8 11.75 26.9 14.9 L26.9 22.25 Q26.0 24.4 24.7 25.75 25.25 26.95 26.1 27.65 L25.9 28.0 25.6 28.3 24.25 27.8 Q19.25 26.05 16.5 21.95 14.85 22.7 13.5 23.75 10.75 25.6 8.75 28.4 L9.35 30.05 Q10.8 33.9 13.6 36.3 L14.35 35.85 Q15.3 35.45 15.75 34.6 L16.5 33.65 16.9 32.7 16.85 32.7 16.9 32.6 15.45 32.55 Q14.85 31.55 14.8 30.65 14.8 29.3 16.1 27.85 17.15 27.8 18.05 28.45 19.3 29.3 20.8 31.0 L21.1 31.4 Q23.65 34.25 27.8 34.6 L27.9 34.6 28.45 34.55 29.0 34.6 29.05 34.6 Q33.25 34.25 35.8 31.4 L36.1 31.0 Q37.55 29.3 38.85 28.45 39.75 27.8 40.75 27.85 42.1 29.3 42.1 30.65 42.05 31.55 41.4 32.55 L39.95 32.6 40.05 32.7 39.95 32.7 40.4 33.65 41.0 34.6 Q41.6 35.45 42.5 35.85 L43.3 36.3 Q46.0 33.9 47.55 30.05 L48.1 28.4 Q46.15 25.6 43.35 23.75 42.05 22.7 40.4 21.95 37.65 26.05 32.6 27.8 L31.2 28.3 31.0 28.0 30.8 27.65 Q31.65 26.95 32.2 25.75 M29.05 8.9 L28.45 7.2 27.8 8.9 28.45 10.1 29.05 8.9 M31.35 44.7 L29.4 45.3 29.1 45.6 29.1 46.0 29.25 46.3 Q30.35 47.05 31.9 47.45 L32.8 48.7 32.85 48.8 33.35 49.15 Q32.8 49.8 32.6 50.5 L32.5 50.9 32.6 51.25 32.9 51.5 33.25 51.5 35.4 50.75 Q36.55 51.3 38.1 51.55 38.35 52.3 38.9 52.95 L39.1 53.15 39.45 53.15 39.75 52.95 40.55 51.55 Q42.1 51.4 43.35 50.75 44.4 51.45 45.8 51.75 L46.2 51.7 46.4 51.4 46.5 51.05 45.55 48.95 45.8 48.8 45.9 48.7 46.75 47.35 48.7 46.65 48.8 46.65 49.1 46.45 48.85 46.5 48.9 46.45 49.25 46.3 49.5 45.95 49.4 45.6 49.1 45.3 47.3 44.7 Q47.05 43.95 46.35 43.35 L47.05 42.05 47.05 41.8 47.05 41.55 46.75 41.25 46.35 41.1 Q45.3 41.35 44.25 42.0 42.6 41.25 40.45 41.2 L39.75 39.85 39.45 39.65 39.1 39.65 Q38.9 39.65 38.8 39.85 38.4 40.35 38.15 41.1 L37.15 41.2 37.1 41.2 34.4 42.0 Q33.25 41.35 32.2 41.1 L31.8 41.25 31.55 41.55 31.55 41.95 32.3 43.3 Q31.5 43.95 31.35 44.7 M43.75 45.85 Q43.7 46.75 42.6 47.35 41.3 48.1 39.4 48.1 37.55 48.1 36.25 47.35 35.1 46.75 35.05 45.85 35.1 44.95 36.25 44.35 37.55 43.6 39.4 43.6 41.3 43.6 42.6 44.35 43.7 44.95 43.75 45.85 M43.05 48.15 Q44.7 47.2 44.65 45.85 44.7 44.5 43.05 43.55 41.55 42.7 39.4 42.7 37.3 42.7 35.8 43.55 34.1 44.5 34.15 45.85 34.1 47.2 35.8 48.15 37.3 49.0 39.4 49.0 41.55 49.0 43.05 48.15 M8.8 44.6 Q7.7 44.8 6.9 45.2 L6.6 45.5 6.6 45.9 6.75 46.2 Q7.8 46.95 9.4 47.3 9.7 47.95 10.3 48.6 L10.35 48.65 10.8 49.05 Q10.3 49.7 10.1 50.4 L10.0 50.8 10.1 51.15 10.4 51.4 10.75 51.4 12.9 50.6 Q14.05 51.2 15.6 51.45 L16.35 52.85 16.6 53.05 16.95 53.05 17.25 52.85 18.05 51.45 20.85 50.6 Q21.9 51.35 23.25 51.65 L23.65 51.55 23.9 51.25 23.95 50.9 23.0 48.85 23.3 48.65 23.4 48.6 24.25 47.25 26.2 46.55 26.25 46.55 26.6 46.3 26.3 46.4 26.4 46.3 26.75 46.2 26.95 45.85 26.9 45.5 26.6 45.2 24.8 44.6 Q24.55 43.85 23.85 43.25 L24.55 41.95 24.55 41.65 24.55 41.45 24.25 41.15 23.85 41.0 Q22.8 41.25 21.75 41.9 20.1 41.15 17.95 41.05 L17.25 39.7 16.95 39.55 16.6 39.55 Q16.4 39.55 16.3 39.7 15.9 40.25 15.65 41.0 L14.65 41.05 14.6 41.05 Q13.05 41.35 11.85 41.9 10.75 41.25 9.7 41.0 9.45 40.95 9.3 41.15 L9.05 41.45 9.05 41.85 9.75 43.2 Q9.0 43.85 8.8 44.6 M21.0 45.85 Q20.95 46.7 19.8 47.35 18.5 48.1 16.65 48.1 14.8 48.1 13.5 47.35 12.35 46.7 12.3 45.85 12.35 44.95 13.5 44.35 14.8 43.6 16.65 43.6 18.5 43.6 19.8 44.35 20.95 44.95 21.0 45.85 M20.25 48.15 Q21.95 47.2 21.9 45.85 21.95 44.5 20.25 43.55 18.75 42.7 16.65 42.7 14.55 42.7 13.05 43.55 11.35 44.5 11.4 45.85 11.35 47.2 13.05 48.15 14.55 49.0 16.65 49.0 18.75 49.0 20.25 48.15 Z" fill="none" stroke="#000000" stroke-linecap="round" stroke-linejoin="round" stroke-opacity="0.2" stroke-width="1.0"/>
      <path d="M31.35 44.7 Q31.5 43.95 32.3 43.3 L31.55 41.95 31.55 41.55 31.8 41.25 32.2 41.1 Q33.25 41.35 34.4 42.0 L37.1 41.2 37.15 41.2 38.15 41.1 Q38.4 40.35 38.8 39.85 38.9 39.65 39.1 39.65 L39.45 39.65 39.75 39.85 40.45 41.2 Q42.6 41.25 44.25 42.0 45.3 41.35 46.35 41.1 L46.75 41.25 47.05 41.55 47.05 41.8 47.05 42.05 46.35 43.35 Q47.05 43.95 47.3 44.7 L49.1 45.3 49.4 45.6 49.5 45.95 49.25 46.3 48.9 46.45 48.85 46.5 49.1 46.45 48.8 46.65 48.7 46.65 46.75 47.35 45.9 48.7 45.8 48.8 45.55 48.95 46.5 51.05 46.4 51.4 46.2 51.7 45.8 51.75 Q44.4 51.45 43.35 50.75 42.1 51.4 40.55 51.55 L39.75 52.95 39.45 53.15 39.1 53.15 38.9 52.95 Q38.35 52.3 38.1 51.55 36.55 51.3 35.4 50.75 L33.25 51.5 32.9 51.5 32.6 51.25 32.5 50.9 32.6 50.5 Q32.8 49.8 33.35 49.15 L32.85 48.8 32.8 48.7 31.9 47.45 29.95 46.75 29.25 46.3 29.1 46.0 29.1 45.6 29.4 45.3 Q29.65 45.15 29.95 45.1 L31.35 44.7 M32.2 25.75 Q31.65 26.95 30.8 27.65 L31.0 28.0 31.2 28.3 32.6 27.8 Q37.65 26.05 40.4 21.95 42.05 22.7 43.35 23.75 46.15 25.6 48.1 28.4 L47.55 30.05 Q46.0 33.9 43.3 36.3 L42.5 35.85 Q41.6 35.45 41.0 34.6 L40.4 33.65 39.95 32.7 40.05 32.7 39.95 32.6 41.4 32.55 Q42.05 31.55 42.1 30.65 42.1 29.3 40.75 27.85 39.75 27.8 38.85 28.45 37.55 29.3 36.1 31.0 L35.8 31.4 Q33.25 34.25 29.05 34.6 L29.0 34.6 28.45 34.55 27.9 34.6 27.8 34.6 Q23.65 34.25 21.1 31.4 L20.8 31.0 Q19.3 29.3 18.05 28.45 17.15 27.8 16.1 27.85 14.8 29.3 14.8 30.65 14.85 31.55 15.45 32.55 L16.9 32.6 16.85 32.7 16.9 32.7 16.5 33.65 15.75 34.6 Q15.3 35.45 14.35 35.85 L13.6 36.3 Q10.8 33.9 9.35 30.05 L8.75 28.4 Q10.75 25.6 13.5 23.75 14.85 22.7 16.5 21.95 19.25 26.05 24.25 27.8 L25.6 28.3 25.9 28.0 26.1 27.65 Q25.25 26.95 24.7 25.75 26.0 24.4 26.9 22.25 L26.9 14.9 Q24.8 11.75 24.25 9.1 26.0 4.95 28.4 3.05 L28.4 2.9 28.45 2.95 28.5 2.9 28.5 3.05 Q30.85 4.95 32.6 9.1 32.05 11.75 29.95 14.9 L29.95 22.25 Q30.85 24.4 32.2 25.75 M45.8 41.8 L45.8 41.9 45.9 41.8 45.8 41.8 M43.75 45.85 Q43.7 46.75 42.6 47.35 41.3 48.1 39.4 48.1 37.55 48.1 36.25 47.35 35.1 46.75 35.05 45.85 35.1 44.95 36.25 44.35 37.55 43.6 39.4 43.6 41.3 43.6 42.6 44.35 43.7 44.95 43.75 45.85 M43.05 48.15 Q44.7 47.2 44.65 45.85 44.7 44.5 43.05 43.55 41.55 42.7 39.4 42.7 37.3 42.7 35.8 43.55 34.1 44.5 34.15 45.85 34.1 47.2 35.8 48.15 37.3 49.0 39.4 49.0 41.55 49.0 43.05 48.15 M29.05 8.9 L28.45 7.2 27.8 8.9 28.45 10.1 29.05 8.9 M8.8 44.6 Q9.0 43.85 9.75 43.2 L9.05 41.85 9.05 41.45 9.3 41.15 Q9.45 40.95 9.7 41.0 10.75 41.25 11.85 41.9 13.05 41.35 14.6 41.05 L14.65 41.05 15.65 41.0 Q15.9 40.25 16.3 39.7 16.4 39.55 16.6 39.55 L16.95 39.55 17.25 39.7 17.95 41.05 Q20.1 41.15 21.75 41.9 22.8 41.25 23.85 41.0 L24.25 41.15 24.55 41.45 24.55 41.65 24.55 41.95 23.85 43.25 Q24.55 43.85 24.8 44.6 L26.6 45.2 26.9 45.5 26.95 45.85 26.7 46.2 26.4 46.3 26.3 46.4 26.6 46.3 26.25 46.55 26.2 46.55 24.25 47.25 23.4 48.6 23.3 48.65 23.0 48.85 23.95 50.9 23.9 51.25 23.65 51.55 23.25 51.65 Q21.9 51.35 20.85 50.6 L18.05 51.45 17.25 52.85 16.95 53.05 16.6 53.05 16.35 52.85 15.6 51.45 Q14.05 51.2 12.9 50.6 L10.75 51.4 10.4 51.4 10.1 51.15 10.0 50.8 10.1 50.4 Q10.3 49.7 10.8 49.05 L10.35 48.65 10.3 48.6 Q9.7 47.95 9.4 47.3 7.8 46.95 6.75 46.2 L6.6 45.9 6.6 45.5 6.9 45.2 Q7.7 44.8 8.8 44.6 M21.0 45.85 Q20.95 46.7 19.8 47.35 18.5 48.1 16.65 48.1 14.8 48.1 13.5 47.35 12.35 46.7 12.3 45.85 12.35 44.95 13.5 44.35 14.8 43.6 16.65 43.6 18.5 43.6 19.8 44.35 20.95 44.95 21.0 45.85 M20.25 48.15 Q21.95 47.2 21.9 45.85 21.95 44.5 20.25 43.55 18.75 42.7 16.65 42.7 14.55 42.7 13.05 43.55 11.35 44.5 11.4 45.85 11.35 47.2 13.05 48.15 14.55 49.0 16.65 49.0 18.75 49.0 20.25 48.15 M23.3 41.65 L23.3 41.75 23.4 41.65 23.3 41.65" fill="#000000" fill-rule="evenodd" stroke="none"/>
    </g>
  </defs>
</svg>
