<?xml version="1.0" encoding="UTF-8" standalone="no"?>
<svg xmlns:ffdec="https://www.free-decompiler.com/flash" xmlns:xlink="http://www.w3.org/1999/xlink" ffdec:objectType="frame" height="56.0px" width="56.0px" xmlns="http://www.w3.org/2000/svg">
  <g transform="matrix(1.0, 0.0, 0.0, 1.0, 0.0, 0.0)">
    <use ffdec:characterId="34" ffdec:characterName="33_fla.Symbole99_1" height="56.0" id="back" transform="matrix(1.0, 0.0, 0.0, 1.0, 0.0, 0.0)" width="56.0" xlink:href="#sprite0"/>
    <use ffdec:characterId="36" height="51.55" id="back" transform="matrix(1.0, 0.0, 0.0, 1.0, 0.4, 2.35)" width="55.4" xlink:href="#sprite33"/>
    <use ffdec:characterId="38" height="50.05" id="up" transform="matrix(1.0, 0.0, 0.0, 1.0, 1.15, 3.1)" width="53.9" xlink:href="#sprite34"/>
  </g>
  <defs>
    <g id="sprite0" transform="matrix(1.0, 0.0, 0.0, 1.0, 0.0, 0.0)">
      <use ffdec:characterId="33" ffdec:characterName="33_fla.Symbole96_2" height="56.0" id="back" transform="matrix(1.0, 0.0, 0.0, 1.0, 0.0, 0.0)" width="56.0" xlink:href="#sprite1"/>
    </g>
    <g id="sprite1" transform="matrix(1.0, 0.0, 0.0, 1.0, 0.0, 0.0)">
      <use ffdec:characterId="32" ffdec:characterName="33_fla.Symbole93_3" height="56.0" id="back" transform="matrix(1.0, 0.0, 0.0, 1.0, 0.0, 0.0)" width="56.0" xlink:href="#sprite2"/>
    </g>
    <g id="sprite2" transform="matrix(1.0, 0.0, 0.0, 1.0, 0.0, 0.0)">
      <use ffdec:characterId="31" ffdec:characterName="33_fla.Symbole90_4" height="56.0" id="back" transform="matrix(1.0, 0.0, 0.0, 1.0, 0.0, 0.0)" width="56.0" xlink:href="#sprite3"/>
    </g>
    <g id="sprite3" transform="matrix(1.0, 0.0, 0.0, 1.0, 0.0, 0.0)">
      <use ffdec:characterId="30" ffdec:characterName="33_fla.Symbole87_5" height="56.0" id="back" transform="matrix(1.0, 0.0, 0.0, 1.0, 0.0, 0.0)" width="56.0" xlink:href="#sprite4"/>
    </g>
    <g id="sprite4" transform="matrix(1.0, 0.0, 0.0, 1.0, 0.0, 0.0)">
      <use ffdec:characterId="29" ffdec:characterName="33_fla.Symbole84_6" height="56.0" id="back" transform="matrix(1.0, 0.0, 0.0, 1.0, 0.0, 0.0)" width="56.0" xlink:href="#sprite5"/>
    </g>
    <g id="sprite5" transform="matrix(1.0, 0.0, 0.0, 1.0, 0.0, 0.0)">
      <use ffdec:characterId="28" ffdec:characterName="33_fla.Symbole81_7" height="56.0" id="back" transform="matrix(1.0, 0.0, 0.0, 1.0, 0.0, 0.0)" width="56.0" xlink:href="#sprite6"/>
    </g>
    <g id="sprite6" transform="matrix(1.0, 0.0, 0.0, 1.0, 0.0, 0.0)">
      <use ffdec:characterId="27" ffdec:characterName="33_fla.Symbole78_8" height="56.0" id="back" transform="matrix(1.0, 0.0, 0.0, 1.0, 0.0, 0.0)" width="56.0" xlink:href="#sprite7"/>
    </g>
    <g id="sprite7" transform="matrix(1.0, 0.0, 0.0, 1.0, 0.0, 0.0)">
      <use ffdec:characterId="26" ffdec:characterName="33_fla.Symbole75_9" height="56.0" id="back" transform="matrix(1.0, 0.0, 0.0, 1.0, 0.0, 0.0)" width="56.0" xlink:href="#sprite8"/>
    </g>
    <g id="sprite8" transform="matrix(1.0, 0.0, 0.0, 1.0, 0.0, 0.0)">
      <use ffdec:characterId="25" ffdec:characterName="33_fla.Symbole72_10" height="56.0" id="back" transform="matrix(1.0, 0.0, 0.0, 1.0, 0.0, 0.0)" width="56.0" xlink:href="#sprite9"/>
    </g>
    <g id="sprite9" transform="matrix(1.0, 0.0, 0.0, 1.0, 0.0, 0.0)">
      <use ffdec:characterId="24" ffdec:characterName="33_fla.Symbole69_11" height="56.0" id="back" transform="matrix(1.0, 0.0, 0.0, 1.0, 0.0, 0.0)" width="56.0" xlink:href="#sprite10"/>
    </g>
    <g id="sprite10" transform="matrix(1.0, 0.0, 0.0, 1.0, 0.0, 0.0)">
      <use ffdec:characterId="23" ffdec:characterName="33_fla.Symbole66_12" height="56.0" id="back" transform="matrix(1.0, 0.0, 0.0, 1.0, 0.0, 0.0)" width="56.0" xlink:href="#sprite11"/>
    </g>
    <g id="sprite11" transform="matrix(1.0, 0.0, 0.0, 1.0, 0.0, 0.0)">
      <use ffdec:characterId="22" ffdec:characterName="33_fla.Symbole63_13" height="56.0" id="back" transform="matrix(1.0, 0.0, 0.0, 1.0, 0.0, 0.0)" width="56.0" xlink:href="#sprite12"/>
    </g>
    <g id="sprite12" transform="matrix(1.0, 0.0, 0.0, 1.0, 0.0, 0.0)">
      <use ffdec:characterId="21" ffdec:characterName="33_fla.Symbole60_14" height="56.0" id="back" transform="matrix(1.0, 0.0, 0.0, 1.0, 0.0, 0.0)" width="56.0" xlink:href="#sprite13"/>
    </g>
    <g id="sprite13" transform="matrix(1.0, 0.0, 0.0, 1.0, 0.0, 0.0)">
      <use ffdec:characterId="20" ffdec:characterName="33_fla.Symbole57_15" height="56.0" id="back" transform="matrix(1.0, 0.0, 0.0, 1.0, 0.0, 0.0)" width="56.0" xlink:href="#sprite14"/>
    </g>
    <g id="sprite14" transform="matrix(1.0, 0.0, 0.0, 1.0, 0.0, 0.0)">
      <use ffdec:characterId="19" ffdec:characterName="33_fla.Symbole54_16" height="56.0" id="back" transform="matrix(1.0, 0.0, 0.0, 1.0, 0.0, 0.0)" width="56.0" xlink:href="#sprite15"/>
    </g>
    <g id="sprite15" transform="matrix(1.0, 0.0, 0.0, 1.0, 0.0, 0.0)">
      <use ffdec:characterId="18" ffdec:characterName="33_fla.Symbole51_17" height="56.0" id="back" transform="matrix(1.0, 0.0, 0.0, 1.0, 0.0, 0.0)" width="56.0" xlink:href="#sprite16"/>
    </g>
    <g id="sprite16" transform="matrix(1.0, 0.0, 0.0, 1.0, 0.0, 0.0)">
      <use ffdec:characterId="17" ffdec:characterName="33_fla.Symbole48_18" height="56.0" id="back" transform="matrix(1.0, 0.0, 0.0, 1.0, 0.0, 0.0)" width="56.0" xlink:href="#sprite17"/>
    </g>
    <g id="sprite17" transform="matrix(1.0, 0.0, 0.0, 1.0, 0.0, 0.0)">
      <use ffdec:characterId="16" ffdec:characterName="33_fla.Symbole45_19" height="56.0" id="back" transform="matrix(1.0, 0.0, 0.0, 1.0, 0.0, 0.0)" width="56.0" xlink:href="#sprite18"/>
    </g>
    <g id="sprite18" transform="matrix(1.0, 0.0, 0.0, 1.0, 0.0, 0.0)">
      <use ffdec:characterId="15" ffdec:characterName="33_fla.Symbole42_20" height="56.0" id="back" transform="matrix(1.0, 0.0, 0.0, 1.0, 0.0, 0.0)" width="56.0" xlink:href="#sprite19"/>
    </g>
    <g id="sprite19" transform="matrix(1.0, 0.0, 0.0, 1.0, 0.0, 0.0)">
      <use ffdec:characterId="14" ffdec:characterName="33_fla.Symbole39_21" height="56.0" id="back" transform="matrix(1.0, 0.0, 0.0, 1.0, 0.0, 0.0)" width="56.0" xlink:href="#sprite20"/>
    </g>
    <g id="sprite20" transform="matrix(1.0, 0.0, 0.0, 1.0, 0.0, 0.0)">
      <use ffdec:characterId="13" ffdec:characterName="33_fla.Symbole36_22" height="56.0" id="back" transform="matrix(1.0, 0.0, 0.0, 1.0, 0.0, 0.0)" width="56.0" xlink:href="#sprite21"/>
    </g>
    <g id="sprite21" transform="matrix(1.0, 0.0, 0.0, 1.0, 0.0, 0.0)">
      <use ffdec:characterId="12" ffdec:characterName="33_fla.Symbole33_23" height="56.0" id="back" transform="matrix(1.0, 0.0, 0.0, 1.0, 0.0, 0.0)" width="56.0" xlink:href="#sprite22"/>
    </g>
    <g id="sprite22" transform="matrix(1.0, 0.0, 0.0, 1.0, 0.0, 0.0)">
      <use ffdec:characterId="11" ffdec:characterName="33_fla.Symbole30_24" height="56.0" id="back" transform="matrix(1.0, 0.0, 0.0, 1.0, 0.0, 0.0)" width="56.0" xlink:href="#sprite23"/>
    </g>
    <g id="sprite23" transform="matrix(1.0, 0.0, 0.0, 1.0, 0.0, 0.0)">
      <use ffdec:characterId="10" ffdec:characterName="33_fla.Symbole27_25" height="56.0" id="back" transform="matrix(1.0, 0.0, 0.0, 1.0, 0.0, 0.0)" width="56.0" xlink:href="#sprite24"/>
    </g>
    <g id="sprite24" transform="matrix(1.0, 0.0, 0.0, 1.0, 0.0, 0.0)">
      <use ffdec:characterId="9" ffdec:characterName="33_fla.Symbole24_26" height="56.0" id="back" transform="matrix(1.0, 0.0, 0.0, 1.0, 0.0, 0.0)" width="56.0" xlink:href="#sprite25"/>
    </g>
    <g id="sprite25" transform="matrix(1.0, 0.0, 0.0, 1.0, 0.0, 0.0)">
      <use ffdec:characterId="8" ffdec:characterName="33_fla.Symbole21_27" height="56.0" id="back" transform="matrix(1.0, 0.0, 0.0, 1.0, 0.0, 0.0)" width="56.0" xlink:href="#sprite26"/>
    </g>
    <g id="sprite26" transform="matrix(1.0, 0.0, 0.0, 1.0, 0.0, 0.0)">
      <use ffdec:characterId="7" ffdec:characterName="33_fla.Symbole18_28" height="56.0" id="back" transform="matrix(1.0, 0.0, 0.0, 1.0, 0.0, 0.0)" width="56.0" xlink:href="#sprite27"/>
    </g>
    <g id="sprite27" transform="matrix(1.0, 0.0, 0.0, 1.0, 0.0, 0.0)">
      <use ffdec:characterId="6" ffdec:characterName="33_fla.Symbole15_29" height="56.0" id="back" transform="matrix(1.0, 0.0, 0.0, 1.0, 0.0, 0.0)" width="56.0" xlink:href="#sprite28"/>
    </g>
    <g id="sprite28" transform="matrix(1.0, 0.0, 0.0, 1.0, 0.0, 0.0)">
      <use ffdec:characterId="5" ffdec:characterName="33_fla.Symbole12_30" height="56.0" id="back" transform="matrix(1.0, 0.0, 0.0, 1.0, 0.0, 0.0)" width="56.0" xlink:href="#sprite29"/>
    </g>
    <g id="sprite29" transform="matrix(1.0, 0.0, 0.0, 1.0, 0.0, 0.0)">
      <use ffdec:characterId="4" ffdec:characterName="33_fla.Symbole9_31" height="56.0" id="back" transform="matrix(1.0, 0.0, 0.0, 1.0, 0.0, 0.0)" width="56.0" xlink:href="#sprite30"/>
    </g>
    <g id="sprite30" transform="matrix(1.0, 0.0, 0.0, 1.0, 0.0, 0.0)">
      <use ffdec:characterId="3" ffdec:characterName="33_fla.Symbole6_32" height="56.0" id="back" transform="matrix(1.0, 0.0, 0.0, 1.0, 0.0, 0.0)" width="56.0" xlink:href="#sprite31"/>
    </g>
    <g id="sprite31" transform="matrix(1.0, 0.0, 0.0, 1.0, 0.0, 0.0)">
      <use ffdec:characterId="2" height="56.0" id="back" transform="matrix(1.0, 0.0, 0.0, 1.0, 0.0, 0.0)" width="56.0" xlink:href="#sprite32"/>
    </g>
    <g id="sprite32" transform="matrix(1.0, 0.0, 0.0, 1.0, 0.0, 0.0)">
      <use ffdec:characterId="1" height="56.0" transform="matrix(1.0, 0.0, 0.0, 1.0, 0.0, 0.0)" width="56.0" xlink:href="#shape0"/>
    </g>
    <g id="shape0" transform="matrix(1.0, 0.0, 0.0, 1.0, 0.0, 0.0)">
      <path d="M56.0 56.0 L0.0 56.0 0.0 0.0 56.0 0.0 56.0 56.0" fill="#010101" fill-opacity="0.0" fill-rule="evenodd" stroke="none"/>
    </g>
    <g id="sprite33" transform="matrix(1.0, 0.0, 0.0, 1.0, 0.75, 0.75)">
      <use ffdec:characterId="35" height="51.55" transform="matrix(1.0, 0.0, 0.0, 1.0, -0.75, -0.75)" width="55.4" xlink:href="#shape1"/>
    </g>
    <g id="shape1" transform="matrix(1.0, 0.0, 0.0, 1.0, 0.75, 0.75)">
      <path d="M45.5 15.4 Q48.5 14.4 50.95 16.6 54.6 20.5 53.75 25.9 52.8 31.3 48.35 34.5 L47.65 34.9 46.95 30.15 Q48.95 28.65 49.55 26.15 49.85 24.3 49.0 22.85 46.55 25.15 43.6 23.65 L42.9 23.0 Q40.5 19.95 43.1 17.0 44.0 15.7 45.5 15.4 M39.85 14.65 Q37.25 14.35 36.6 11.95 35.6 9.0 38.1 7.2 38.8 6.65 39.65 6.4 38.4 4.2 35.85 4.35 30.8 4.6 26.9 7.95 23.1 11.3 22.4 16.4 19.65 16.55 17.4 17.85 17.9 8.55 25.4 3.3 31.0 -0.8 37.8 0.5 43.4 1.45 45.65 6.85 46.2 8.4 45.95 10.25 45.65 11.8 44.6 13.1 42.7 15.1 39.85 14.65 M40.4 38.4 L34.55 38.65 Q32.3 38.25 30.15 37.25 22.45 33.6 19.15 25.6 L19.2 25.45 Q21.1 23.95 23.3 23.7 L23.7 24.3 Q25.05 27.55 27.75 30.0 33.15 35.0 40.5 33.6 40.95 35.95 40.4 38.4 M45.95 39.3 Q44.9 45.1 40.15 48.4 37.05 50.5 33.4 49.9 30.8 49.5 29.25 47.55 27.35 45.15 28.45 42.3 29.5 39.3 32.55 39.3 34.75 39.25 35.85 41.2 36.9 42.9 36.6 44.85 37.55 44.95 38.4 44.25 41.7 41.4 41.85 36.95 42.25 29.5 36.6 24.75 37.7 22.4 37.8 19.8 L38.85 20.65 Q41.85 22.65 43.75 25.9 47.25 32.15 45.95 39.3 M25.4 1.65 L21.7 4.65 Q18.75 3.6 16.1 4.65 14.8 5.1 14.45 6.4 16.75 7.2 17.45 9.45 17.7 10.1 17.6 10.9 17.05 14.65 13.35 14.8 10.5 14.8 9.05 12.5 7.05 9.25 8.75 5.9 9.9 3.35 12.3 2.0 16.6 -0.75 21.8 0.25 23.75 0.5 25.4 1.65 M28.45 8.15 Q30.15 6.85 32.15 6.35 33.9 8.15 35.15 10.65 36.05 12.9 36.45 15.4 37.1 24.4 31.45 31.25 L31.1 31.1 Q29.1 30.0 27.85 28.4 30.35 25.25 31.25 21.5 32.75 14.1 28.0 8.55 L28.45 8.15 M29.95 21.35 L29.7 22.2 Q22.45 21.05 16.85 25.7 13.7 28.2 12.65 31.95 10.8 31.45 9.45 30.25 L8.55 29.5 Q10.5 22.8 16.75 19.75 22.15 16.95 28.2 17.25 L30.35 17.45 Q30.35 19.4 29.95 21.35 M7.1 15.3 Q8.75 15.25 10.15 16.15 L11.2 17.15 Q12.95 19.35 11.9 21.8 10.9 23.85 8.6 24.15 6.45 24.55 5.1 23.0 L4.9 23.0 Q3.65 25.15 5.1 27.2 8.55 32.6 15.0 33.7 18.7 34.35 22.25 33.0 23.7 35.15 25.85 36.5 17.85 40.55 9.65 37.1 3.35 34.5 0.85 28.2 -1.15 23.25 1.5 18.55 3.45 15.3 7.1 15.3 M7.9 37.5 Q9.9 38.8 12.3 39.25 12.9 42.75 15.9 44.4 L17.6 44.85 Q16.85 41.4 19.9 39.75 20.95 39.1 22.4 39.25 24.15 39.55 25.15 41.2 26.75 44.0 25.15 46.9 23.85 49.2 21.3 49.85 18.3 50.35 15.45 49.05 9.9 46.7 8.35 40.85 7.75 39.25 7.9 37.5 Z" fill="none" stroke="#000000" stroke-linecap="round" stroke-linejoin="round" stroke-opacity="0.2" stroke-width="1.5"/>
    </g>
    <g id="sprite34" transform="matrix(1.0, 0.0, 0.0, 1.0, 0.0, 0.0)">
      <use ffdec:characterId="37" height="50.05" transform="matrix(1.0, 0.0, 0.0, 1.0, 0.0, 0.0)" width="53.9" xlink:href="#shape2"/>
    </g>
    <g id="shape2" transform="matrix(1.0, 0.0, 0.0, 1.0, 0.0, 0.0)">
      <path d="M44.6 13.1 Q42.7 15.1 39.85 14.65 37.25 14.35 36.6 11.95 35.6 9.0 38.1 7.2 38.8 6.65 39.65 6.4 38.4 4.2 35.85 4.35 30.8 4.6 26.9 7.95 23.1 11.3 22.4 16.4 19.65 16.55 17.4 17.85 17.9 8.55 25.4 3.3 31.0 -0.8 37.8 0.5 43.4 1.45 45.65 6.85 46.2 8.4 45.95 10.25 45.65 11.8 44.6 13.1 M45.5 15.4 Q48.5 14.4 50.95 16.6 54.6 20.5 53.75 25.9 52.8 31.3 48.35 34.5 L47.65 34.9 46.95 30.15 Q48.95 28.65 49.55 26.15 49.85 24.3 49.0 22.85 46.55 25.15 43.6 23.65 L42.9 23.0 Q40.5 19.95 43.1 17.0 44.0 15.7 45.5 15.4 M40.4 38.4 L34.55 38.65 Q32.3 38.25 30.15 37.25 22.45 33.6 19.15 25.6 L19.2 25.45 Q21.1 23.95 23.3 23.7 L23.7 24.3 Q25.05 27.55 27.75 30.0 33.15 35.0 40.5 33.6 40.95 35.95 40.4 38.4 M45.95 39.3 Q44.9 45.1 40.15 48.4 37.05 50.5 33.4 49.9 30.8 49.5 29.25 47.55 27.35 45.15 28.45 42.3 29.5 39.3 32.55 39.3 34.75 39.25 35.85 41.2 36.9 42.9 36.6 44.85 37.55 44.95 38.4 44.25 41.7 41.4 41.85 36.95 42.25 29.5 36.6 24.75 37.7 22.4 37.8 19.8 L38.85 20.65 Q41.85 22.65 43.75 25.9 47.25 32.15 45.95 39.3 M28.45 8.15 Q30.15 6.85 32.15 6.35 33.9 8.15 35.15 10.65 36.05 12.9 36.45 15.4 37.1 24.4 31.45 31.25 L31.1 31.1 Q29.1 30.0 27.85 28.4 30.35 25.25 31.25 21.5 32.75 14.1 28.0 8.55 L28.45 8.15 M21.7 4.65 Q18.75 3.6 16.1 4.65 14.8 5.1 14.45 6.4 16.75 7.2 17.45 9.45 17.7 10.1 17.6 10.9 17.05 14.65 13.35 14.8 10.5 14.8 9.05 12.5 7.05 9.25 8.75 5.9 9.9 3.35 12.3 2.0 16.6 -0.75 21.8 0.25 23.75 0.5 25.4 1.65 L21.7 4.65 M29.95 21.35 L29.7 22.2 Q22.45 21.05 16.85 25.7 13.7 28.2 12.65 31.95 10.8 31.45 9.45 30.25 L8.55 29.5 Q10.5 22.8 16.75 19.75 22.15 16.95 28.2 17.25 L30.35 17.45 Q30.35 19.4 29.95 21.35 M7.1 15.3 Q8.75 15.25 10.15 16.15 L11.2 17.15 Q12.95 19.35 11.9 21.8 10.9 23.85 8.6 24.15 6.45 24.55 5.1 23.0 L4.9 23.0 Q3.65 25.15 5.1 27.2 8.55 32.6 15.0 33.7 18.7 34.35 22.25 33.0 23.7 35.15 25.85 36.5 17.85 40.55 9.65 37.1 3.35 34.5 0.85 28.2 -1.15 23.25 1.5 18.55 3.45 15.3 7.1 15.3 M7.9 37.5 Q9.9 38.8 12.3 39.25 12.9 42.75 15.9 44.4 L17.6 44.85 Q16.85 41.4 19.9 39.75 20.95 39.1 22.4 39.25 24.15 39.55 25.15 41.2 26.75 44.0 25.15 46.9 23.85 49.2 21.3 49.85 18.3 50.35 15.45 49.05 9.9 46.7 8.35 40.85 7.75 39.25 7.9 37.5" fill="#000000" fill-rule="evenodd" stroke="none"/>
    </g>
  </defs>
</svg>
