<?xml version="1.0" encoding="UTF-8" standalone="no"?>
<svg xmlns:ffdec="https://www.free-decompiler.com/flash" xmlns:xlink="http://www.w3.org/1999/xlink" ffdec:objectType="frame" height="56.0px" width="56.0px" xmlns="http://www.w3.org/2000/svg">
  <g transform="matrix(1.0, 0.0, 0.0, 1.0, 0.0, 0.0)">
    <use ffdec:characterId="2" height="56.0" id="back" transform="matrix(1.0, 0.0, 0.0, 1.0, 0.0, 0.0)" width="56.0" xlink:href="#sprite0"/>
    <use ffdec:characterId="3" height="45.8" transform="matrix(1.0, 0.0, 0.0, 1.0, 1.25, 5.15)" width="53.35" xlink:href="#shape1"/>
  </g>
  <defs>
    <g id="sprite0" transform="matrix(1.0, 0.0, 0.0, 1.0, 0.0, 0.0)">
      <use ffdec:characterId="1" height="56.0" transform="matrix(1.0, 0.0, 0.0, 1.0, 0.0, 0.0)" width="56.0" xlink:href="#shape0"/>
    </g>
    <g id="shape0" transform="matrix(1.0, 0.0, 0.0, 1.0, 0.0, 0.0)">
      <path d="M56.0 56.0 L0.0 56.0 0.0 0.0 56.0 0.0 56.0 56.0" fill="#010101" fill-opacity="0.0" fill-rule="evenodd" stroke="none"/>
    </g>
    <g id="shape1" transform="matrix(1.0, 0.0, 0.0, 1.0, -1.25, -5.15)">
      <path d="M15.15 5.85 Q19.45 6.45 22.95 10.9 25.45 10.15 28.3 10.15 L33.15 10.75 Q36.55 6.25 40.85 5.65 42.0 9.75 40.5 14.8 L41.15 15.35 Q45.0 19.15 46.1 24.15 51.15 25.4 54.1 28.4 51.5 31.6 45.95 32.35 44.75 36.9 41.15 40.4 L40.55 41.0 Q41.9 45.6 41.2 49.55 L40.95 50.45 Q39.45 50.2 38.1 49.55 35.35 48.2 33.0 45.05 L28.3 45.6 23.0 44.9 Q20.4 48.25 17.5 49.55 L15.0 50.25 14.8 49.55 Q13.95 45.4 15.55 40.45 L15.5 40.4 Q11.85 36.8 10.7 32.3 5.05 31.1 1.75 27.85 4.6 24.45 10.65 23.85 11.75 19.05 15.5 15.35 L15.6 15.3 Q14.0 10.1 15.15 5.85 M40.9 27.95 Q40.9 22.85 37.25 19.2 33.5 15.6 28.3 15.6 23.1 15.6 19.45 19.2 15.7 22.85 15.7 27.95 15.7 33.0 19.45 36.6 23.1 40.25 28.3 40.25 33.5 40.25 37.25 36.6 40.9 33.0 40.9 27.95" fill="#000000" fill-rule="evenodd" stroke="none"/>
      <path d="M40.9 27.95 Q40.9 33.0 37.25 36.6 33.5 40.25 28.3 40.25 23.1 40.25 19.45 36.6 15.7 33.0 15.7 27.95 15.7 22.85 19.45 19.2 23.1 15.6 28.3 15.6 33.5 15.6 37.25 19.2 40.9 22.85 40.9 27.95 M15.15 5.85 Q14.0 10.1 15.6 15.3 L15.5 15.35 Q11.75 19.05 10.65 23.85 4.6 24.45 1.75 27.85 5.05 31.1 10.7 32.3 11.85 36.8 15.5 40.4 L15.55 40.45 Q13.95 45.4 14.8 49.55 L15.0 50.25 17.5 49.55 Q20.4 48.25 23.0 44.9 L28.3 45.6 33.0 45.05 Q35.35 48.2 38.1 49.55 39.45 50.2 40.95 50.45 L41.2 49.55 Q41.9 45.6 40.55 41.0 L41.15 40.4 Q44.75 36.9 45.95 32.35 51.5 31.6 54.1 28.4 51.15 25.4 46.1 24.15 45.0 19.15 41.15 15.35 L40.5 14.8 Q42.0 9.75 40.85 5.65 36.55 6.25 33.15 10.75 L28.3 10.15 Q25.45 10.15 22.95 10.9 19.45 6.45 15.15 5.85 Z" fill="none" stroke="#000000" stroke-linecap="round" stroke-linejoin="round" stroke-opacity="0.2" stroke-width="1.0"/>
      <path d="M15.15 5.85 Q19.45 6.45 22.95 10.9 25.45 10.15 28.3 10.15 L33.15 10.75 Q36.55 6.25 40.85 5.65 42.0 9.75 40.5 14.8 L41.15 15.35 Q45.0 19.15 46.1 24.15 51.15 25.4 54.1 28.4 51.5 31.6 45.95 32.35 44.75 36.9 41.15 40.4 L40.55 41.0 Q41.9 45.6 41.2 49.55 L40.95 50.45 Q39.45 50.2 38.1 49.55 35.35 48.2 33.0 45.05 L28.3 45.6 23.0 44.9 Q20.4 48.25 17.5 49.55 L15.0 50.25 14.8 49.55 Q13.95 45.4 15.55 40.45 L15.5 40.4 Q11.85 36.8 10.7 32.3 5.05 31.1 1.75 27.85 4.6 24.45 10.65 23.85 11.75 19.05 15.5 15.35 L15.6 15.3 Q14.0 10.1 15.15 5.85 M40.9 27.95 Q40.9 22.85 37.25 19.2 33.5 15.6 28.3 15.6 23.1 15.6 19.45 19.2 15.7 22.85 15.7 27.95 15.7 33.0 19.45 36.6 23.1 40.25 28.3 40.25 33.5 40.25 37.25 36.6 40.9 33.0 40.9 27.95" fill="#000000" fill-rule="evenodd" stroke="none"/>
    </g>
  </defs>
</svg>
