<?xml version="1.0" encoding="UTF-8" standalone="no"?>
<svg xmlns:ffdec="https://www.free-decompiler.com/flash" xmlns:xlink="http://www.w3.org/1999/xlink" ffdec:objectType="frame" height="56.0px" width="56.0px" xmlns="http://www.w3.org/2000/svg">
  <g transform="matrix(1.0, 0.0, 0.0, 1.0, 0.0, 0.0)">
    <use ffdec:characterId="2" height="56.0" id="back" transform="matrix(1.0, 0.0, 0.0, 1.0, 0.0, 0.0)" width="56.0" xlink:href="#sprite0"/>
    <use ffdec:characterId="3" height="50.3" transform="matrix(1.0, 0.0, 0.0, 1.0, 8.1, 3.0)" width="39.8" xlink:href="#shape1"/>
  </g>
  <defs>
    <g id="sprite0" transform="matrix(1.0, 0.0, 0.0, 1.0, 0.0, 0.0)">
      <use ffdec:characterId="1" height="56.0" transform="matrix(1.0, 0.0, 0.0, 1.0, 0.0, 0.0)" width="56.0" xlink:href="#shape0"/>
    </g>
    <g id="shape0" transform="matrix(1.0, 0.0, 0.0, 1.0, 0.0, 0.0)">
      <path d="M56.0 56.0 L0.0 56.0 0.0 0.0 56.0 0.0 56.0 56.0" fill="#010101" fill-opacity="0.0" fill-rule="evenodd" stroke="none"/>
    </g>
    <g id="shape1" transform="matrix(1.0, 0.0, 0.0, 1.0, -8.1, -3.0)">
      <path d="M39.2 45.2 Q37.0 51.85 31.2 52.8 L30.35 50.55 Q30.15 48.1 30.5 46.0 31.6 46.25 32.7 46.95 35.2 44.5 35.35 39.8 L35.35 39.35 35.3 39.05 Q34.4 34.4 32.25 36.4 29.7 38.65 28.15 39.05 L28.0 39.05 Q26.5 38.65 23.95 36.4 21.8 34.45 20.9 39.05 L20.95 39.8 Q21.9 44.85 23.85 46.95 24.95 46.25 26.1 46.0 26.4 48.1 26.2 50.55 L25.4 52.8 Q19.6 51.85 17.35 45.2 18.2 43.05 18.1 39.8 L17.95 36.3 17.15 36.05 Q14.7 34.95 12.45 32.75 8.2 28.55 8.85 27.05 L8.6 26.8 Q10.5 19.7 16.8 14.55 16.3 7.4 16.9 3.5 19.5 5.15 21.85 9.5 24.25 13.75 25.1 18.55 24.1 21.9 22.4 25.1 L19.95 29.2 20.0 29.4 Q20.3 31.05 21.05 32.8 20.55 31.05 20.45 29.4 L20.35 29.2 23.3 25.1 23.75 24.45 Q25.65 23.6 28.0 23.6 30.4 23.6 32.3 24.45 L32.75 25.1 35.65 29.2 35.6 29.4 34.95 32.8 36.15 29.35 36.15 29.3 33.7 25.15 Q32.05 21.9 31.1 18.55 32.0 13.75 34.4 9.5 36.85 5.15 39.5 3.5 39.95 7.4 39.35 14.55 45.6 19.7 47.4 26.8 L47.2 27.05 Q47.9 28.5 43.55 32.75 41.35 34.95 38.95 36.05 L38.05 36.3 38.05 36.4 38.3 36.3 38.2 39.8 Q38.4 43.05 39.2 45.2" fill="#000000" fill-rule="evenodd" stroke="none"/>
      <path d="M39.2 45.2 Q37.0 51.85 31.2 52.8 L30.35 50.55 Q30.15 48.1 30.5 46.0 31.6 46.25 32.7 46.95 35.2 44.5 35.35 39.8 L35.35 39.35 35.3 39.05 Q34.4 34.4 32.25 36.4 29.7 38.65 28.15 39.05 L28.0 39.05 Q26.5 38.65 23.95 36.4 21.8 34.45 20.9 39.05 L20.95 39.8 Q21.9 44.85 23.85 46.95 24.95 46.25 26.1 46.0 26.4 48.1 26.2 50.55 L25.4 52.8 Q19.6 51.85 17.35 45.2 18.2 43.05 18.1 39.8 L17.95 36.3 17.15 36.05 Q14.7 34.95 12.45 32.75 8.2 28.55 8.85 27.05 L8.6 26.8 Q10.5 19.7 16.8 14.55 16.3 7.4 16.9 3.5 19.5 5.15 21.85 9.5 24.25 13.75 25.1 18.55 24.1 21.9 22.4 25.1 L19.95 29.2 20.0 29.4 Q20.3 31.05 21.05 32.8 20.55 31.05 20.45 29.4 L20.35 29.2 23.3 25.1 23.75 24.45 Q25.65 23.6 28.0 23.6 30.4 23.6 32.3 24.45 L32.75 25.1 35.65 29.2 35.6 29.4 34.95 32.8 36.15 29.35 36.15 29.3 33.7 25.15 Q32.05 21.9 31.1 18.55 32.0 13.75 34.4 9.5 36.85 5.15 39.5 3.5 39.95 7.4 39.35 14.55 45.6 19.7 47.4 26.8 L47.2 27.05 Q47.9 28.5 43.55 32.75 41.35 34.95 38.95 36.05 L38.05 36.3 38.05 36.4 38.3 36.3 38.2 39.8 Q38.4 43.05 39.2 45.2 Z" fill="none" stroke="#000000" stroke-linecap="round" stroke-linejoin="round" stroke-opacity="0.2" stroke-width="1.0"/>
      <path d="M39.2 45.2 Q37.0 51.85 31.2 52.8 L30.35 50.55 Q30.15 48.1 30.5 46.0 31.6 46.25 32.7 46.95 35.2 44.5 35.35 39.8 L35.35 39.35 35.3 39.05 Q34.4 34.4 32.25 36.4 29.7 38.65 28.15 39.05 L28.0 39.05 Q26.5 38.65 23.95 36.4 21.8 34.45 20.9 39.05 L20.95 39.8 Q21.9 44.85 23.85 46.95 24.95 46.25 26.1 46.0 26.4 48.1 26.2 50.55 L25.4 52.8 Q19.6 51.85 17.35 45.2 18.2 43.05 18.1 39.8 L17.95 36.3 17.15 36.05 Q14.7 34.95 12.45 32.75 8.2 28.55 8.85 27.05 L8.6 26.8 Q10.5 19.7 16.8 14.55 16.3 7.4 16.9 3.5 19.5 5.15 21.85 9.5 24.25 13.75 25.1 18.55 24.1 21.9 22.4 25.1 L19.95 29.2 20.0 29.4 Q20.3 31.05 21.05 32.8 20.55 31.05 20.45 29.4 L20.35 29.2 23.3 25.1 23.75 24.45 Q25.65 23.6 28.0 23.6 30.4 23.6 32.3 24.45 L32.75 25.1 35.65 29.2 35.6 29.4 34.95 32.8 36.15 29.35 36.15 29.3 33.7 25.15 Q32.05 21.9 31.1 18.55 32.0 13.75 34.4 9.5 36.85 5.15 39.5 3.5 39.95 7.4 39.35 14.55 45.6 19.7 47.4 26.8 L47.2 27.05 Q47.9 28.5 43.55 32.75 41.35 34.95 38.95 36.05 L38.05 36.3 38.05 36.4 38.3 36.3 38.2 39.8 Q38.4 43.05 39.2 45.2" fill="#000000" fill-rule="evenodd" stroke="none"/>
    </g>
  </defs>
</svg>
