<?xml version="1.0" encoding="UTF-8" standalone="no"?>
<svg xmlns:ffdec="https://www.free-decompiler.com/flash" xmlns:xlink="http://www.w3.org/1999/xlink" ffdec:objectType="frame" height="56.0px" width="56.0px" xmlns="http://www.w3.org/2000/svg">
  <g transform="matrix(1.0, 0.0, 0.0, 1.0, 0.0, 0.0)">
    <use ffdec:characterId="2" height="56.0" id="back" transform="matrix(1.0, 0.0, 0.0, 1.0, 0.0, 0.0)" width="56.0" xlink:href="#sprite0"/>
    <use ffdec:characterId="3" height="48.45" transform="matrix(1.0, 0.0, 0.0, 1.0, 13.6, 4.2)" width="29.85" xlink:href="#shape1"/>
  </g>
  <defs>
    <g id="sprite0" transform="matrix(1.0, 0.0, 0.0, 1.0, 0.0, 0.0)">
      <use ffdec:characterId="1" height="56.0" transform="matrix(1.0, 0.0, 0.0, 1.0, 0.0, 0.0)" width="56.0" xlink:href="#shape0"/>
    </g>
    <g id="shape0" transform="matrix(1.0, 0.0, 0.0, 1.0, 0.0, 0.0)">
      <path d="M56.0 56.0 L0.0 56.0 0.0 0.0 56.0 0.0 56.0 56.0" fill="#010101" fill-opacity="0.0" fill-rule="evenodd" stroke="none"/>
    </g>
    <g id="shape1" transform="matrix(1.0, 0.0, 0.0, 1.0, -13.6, -4.2)">
      <path d="M14.95 21.5 Q16.25 23.9 18.65 24.75 20.95 21.1 18.9 17.95 16.05 19.9 14.95 21.5 M36.2 27.85 L37.1 27.8 Q40.4 27.6 42.55 28.4 42.75 30.2 42.55 32.35 L41.7 35.6 42.9 38.5 Q43.1 40.0 42.75 41.5 40.75 49.35 27.6 51.95 23.85 52.4 20.25 51.9 12.3 44.45 17.3 36.5 19.8 35.2 21.05 33.8 L19.65 30.75 Q17.55 28.55 16.75 25.0 14.45 23.15 14.1 21.7 14.65 20.2 16.75 18.55 17.4 15.75 18.65 13.4 L19.05 12.55 19.35 12.1 Q21.3 9.2 24.05 6.8 25.6 5.8 28.95 4.75 31.8 4.35 33.9 6.25 30.5 6.55 27.45 10.6 26.25 14.85 27.85 18.85 L31.4 18.65 Q31.65 19.65 31.5 23.2 35.15 25.7 36.2 27.85 M34.5 30.3 Q33.9 36.4 39.0 37.15 41.15 34.2 41.85 29.25 38.65 28.15 34.5 30.3 M28.0 20.0 Q28.5 22.2 30.55 23.1 31.05 21.65 30.65 19.15 29.25 19.05 28.0 20.0" fill="#000000" fill-rule="evenodd" stroke="none"/>
      <path d="M14.95 21.5 Q16.05 19.9 18.9 17.95 20.95 21.1 18.65 24.75 16.25 23.9 14.95 21.5 M36.2 27.85 L37.1 27.8 Q40.4 27.6 42.55 28.4 42.75 30.2 42.55 32.35 L41.7 35.6 42.9 38.5 Q43.1 40.0 42.75 41.5 40.75 49.35 27.6 51.95 23.85 52.4 20.25 51.9 12.3 44.45 17.3 36.5 19.8 35.2 21.05 33.8 L19.65 30.75 Q17.55 28.55 16.75 25.0 14.45 23.15 14.1 21.7 14.65 20.2 16.75 18.55 17.4 15.75 18.65 13.4 L19.05 12.55 19.35 12.1 Q21.3 9.2 24.05 6.8 25.6 5.8 28.95 4.75 31.8 4.35 33.9 6.25 30.5 6.55 27.45 10.6 26.25 14.85 27.85 18.85 L31.4 18.65 Q31.65 19.65 31.5 23.2 35.15 25.7 36.2 27.85 M28.0 20.0 Q29.25 19.05 30.65 19.15 31.05 21.65 30.55 23.1 28.5 22.2 28.0 20.0 M34.5 30.3 Q38.65 28.15 41.85 29.25 41.15 34.2 39.0 37.15 33.9 36.4 34.5 30.3 Z" fill="none" stroke="#000000" stroke-linecap="round" stroke-linejoin="round" stroke-opacity="0.2" stroke-width="1.0"/>
      <path d="M36.2 27.85 L37.1 27.8 Q40.4 27.6 42.55 28.4 42.75 30.2 42.55 32.35 L41.7 35.6 42.9 38.5 Q43.1 40.0 42.75 41.5 40.75 49.35 27.6 51.95 23.85 52.4 20.25 51.9 12.3 44.45 17.3 36.5 19.8 35.2 21.05 33.8 L19.65 30.75 Q17.55 28.55 16.75 25.0 14.45 23.15 14.1 21.7 14.65 20.2 16.75 18.55 17.4 15.75 18.65 13.4 L19.05 12.55 19.35 12.1 Q21.3 9.2 24.05 6.8 25.6 5.8 28.95 4.75 31.8 4.35 33.9 6.25 30.5 6.55 27.45 10.6 26.25 14.85 27.85 18.85 L31.4 18.65 Q31.65 19.65 31.5 23.2 35.15 25.7 36.2 27.85 M34.5 30.3 Q33.9 36.4 39.0 37.15 41.15 34.2 41.85 29.25 38.65 28.15 34.5 30.3 M28.0 20.0 Q28.5 22.2 30.55 23.1 31.05 21.65 30.65 19.15 29.25 19.05 28.0 20.0 M14.95 21.5 Q16.25 23.9 18.65 24.75 20.95 21.1 18.9 17.95 16.05 19.9 14.95 21.5" fill="#000000" fill-rule="evenodd" stroke="none"/>
    </g>
  </defs>
</svg>
