<?xml version="1.0" encoding="UTF-8" standalone="no"?>
<svg xmlns:ffdec="https://www.free-decompiler.com/flash" xmlns:xlink="http://www.w3.org/1999/xlink" ffdec:objectType="frame" height="56.0px" width="56.0px" xmlns="http://www.w3.org/2000/svg">
  <g transform="matrix(1.0, 0.0, 0.0, 1.0, 0.0, 0.0)">
    <use ffdec:characterId="2" height="56.0" id="back" transform="matrix(1.0, 0.0, 0.0, 1.0, 0.0, 0.0)" width="56.0" xlink:href="#sprite0"/>
    <use ffdec:characterId="3" height="49.3" transform="matrix(1.0, 0.0, 0.0, 1.0, 3.25, 3.8)" width="49.3" xlink:href="#shape1"/>
  </g>
  <defs>
    <g id="sprite0" transform="matrix(1.0, 0.0, 0.0, 1.0, 0.0, 0.0)">
      <use ffdec:characterId="1" height="56.0" transform="matrix(1.0, 0.0, 0.0, 1.0, 0.0, 0.0)" width="56.0" xlink:href="#shape0"/>
    </g>
    <g id="shape0" transform="matrix(1.0, 0.0, 0.0, 1.0, 0.0, 0.0)">
      <path d="M56.0 56.0 L0.0 56.0 0.0 0.0 56.0 0.0 56.0 56.0" fill="#010101" fill-opacity="0.0" fill-rule="evenodd" stroke="none"/>
    </g>
    <g id="shape1" transform="matrix(1.0, 0.0, 0.0, 1.0, -3.25, -3.8)">
      <path d="M10.6 27.95 Q11.0 25.85 12.35 24.15 L12.95 23.45 13.6 22.9 Q15.6 21.2 18.4 21.15 L18.5 21.15 21.2 21.5 Q21.6 21.6 22.0 21.85 23.4 22.45 24.5 23.8 L25.9 25.6 26.5 26.3 26.8 26.75 27.1 27.1 30.35 31.4 30.85 31.95 32.7 33.6 33.0 33.8 Q35.2 35.1 37.6 34.85 39.7 34.65 41.1 33.6 L41.65 33.15 41.8 33.0 42.4 32.15 Q43.25 30.85 43.15 29.2 L42.8 27.8 42.75 27.75 Q42.35 26.85 40.95 26.2 39.6 25.5 38.05 25.6 L35.9 25.9 Q34.05 26.45 30.6 29.75 29.05 28.15 27.9 26.2 31.05 22.7 33.2 21.8 34.35 21.35 35.55 21.2 39.5 20.8 42.3 22.8 L43.7 24.2 44.6 25.75 45.15 27.3 45.45 29.15 45.45 30.7 45.05 33.2 45.0 33.2 44.9 33.45 44.85 33.6 43.55 35.75 Q41.3 38.5 37.45 38.55 33.6 38.55 30.0 34.6 L25.3 29.3 Q23.9 27.7 22.7 26.75 L22.0 26.25 21.2 25.8 18.5 25.1 18.25 25.15 Q16.85 25.25 15.4 26.0 L14.1 27.05 Q13.65 27.5 13.35 28.05 L13.1 28.45 Q12.7 29.35 12.75 30.45 L12.9 31.1 13.6 32.5 14.3 33.3 Q15.45 34.25 16.9 34.45 L17.8 34.55 19.35 34.4 Q20.3 34.1 21.4 33.4 22.9 32.5 24.55 30.45 L27.95 34.5 27.05 35.7 26.0 36.7 Q23.95 38.2 20.65 38.7 18.65 39.0 16.85 38.65 L16.9 38.65 Q15.0 38.25 13.5 37.1 11.75 35.75 11.0 33.65 L10.65 32.5 10.55 32.1 10.55 32.0 10.5 31.85 10.4 30.95 10.4 30.6 10.5 28.45 10.55 28.25 10.6 27.95 M52.05 28.45 Q52.05 38.45 45.05 45.6 37.9 52.6 27.9 52.6 17.9 52.6 10.75 45.6 3.75 38.45 3.75 28.45 3.75 18.45 10.75 11.3 17.9 4.3 27.9 4.3 37.9 4.3 45.05 11.3 52.05 18.45 52.05 28.45 M46.85 28.45 Q46.85 20.7 41.3 15.05 35.8 9.5 27.9 9.5 20.0 9.5 14.5 15.05 8.95 20.7 8.95 28.45 8.95 36.35 14.5 41.85 20.0 47.4 27.9 47.4 35.8 47.4 41.3 41.85 46.85 36.35 46.85 28.45" fill="#000000" fill-rule="evenodd" stroke="none"/>
      <path d="M10.6 27.95 Q11.0 25.85 12.35 24.15 L12.95 23.45 13.6 22.9 Q15.6 21.2 18.4 21.15 L18.5 21.15 21.2 21.5 Q21.6 21.6 22.0 21.85 23.4 22.45 24.5 23.8 L25.9 25.6 26.5 26.3 26.8 26.75 27.1 27.1 30.35 31.4 30.85 31.95 32.7 33.6 33.0 33.8 Q35.2 35.1 37.6 34.85 39.7 34.65 41.1 33.6 L41.65 33.15 41.8 33.0 42.4 32.15 Q43.25 30.85 43.15 29.2 L42.8 27.8 42.75 27.75 Q42.35 26.85 40.95 26.2 39.6 25.5 38.05 25.6 L35.9 25.9 Q34.05 26.45 30.6 29.75 29.05 28.15 27.9 26.2 31.05 22.7 33.2 21.8 34.35 21.35 35.55 21.2 39.5 20.8 42.3 22.8 L43.7 24.2 44.6 25.75 45.15 27.3 45.45 29.15 45.45 30.7 45.05 33.2 45.0 33.2 44.9 33.45 44.85 33.6 43.55 35.75 Q41.3 38.5 37.45 38.55 33.6 38.55 30.0 34.6 L25.3 29.3 Q23.9 27.7 22.7 26.75 L22.0 26.25 21.2 25.8 18.5 25.1 18.25 25.15 Q16.85 25.25 15.4 26.0 L14.1 27.05 Q13.65 27.5 13.35 28.05 L13.1 28.45 Q12.7 29.35 12.75 30.45 L12.9 31.1 13.6 32.5 14.3 33.3 Q15.45 34.25 16.9 34.45 L17.8 34.55 19.35 34.4 Q20.3 34.1 21.4 33.4 22.9 32.5 24.55 30.45 L27.95 34.5 27.05 35.7 26.0 36.7 Q23.95 38.2 20.65 38.7 18.65 39.0 16.85 38.65 L16.9 38.65 Q15.0 38.25 13.5 37.1 11.75 35.75 11.0 33.65 L10.65 32.5 10.55 32.1 10.55 32.0 10.5 31.85 10.4 30.95 10.4 30.6 10.5 28.45 10.55 28.25 10.6 27.95 M52.05 28.45 Q52.05 38.45 45.05 45.6 37.9 52.6 27.9 52.6 17.9 52.6 10.75 45.6 3.75 38.45 3.75 28.45 3.75 18.45 10.75 11.3 17.9 4.3 27.9 4.3 37.9 4.3 45.05 11.3 52.05 18.45 52.05 28.45 M46.85 28.45 Q46.85 36.35 41.3 41.85 35.8 47.4 27.9 47.4 20.0 47.4 14.5 41.85 8.95 36.35 8.95 28.45 8.95 20.7 14.5 15.05 20.0 9.5 27.9 9.5 35.8 9.5 41.3 15.05 46.85 20.7 46.85 28.45 Z" fill="none" stroke="#000000" stroke-linecap="round" stroke-linejoin="round" stroke-opacity="0.2" stroke-width="1.0"/>
      <path d="M10.6 27.95 Q11.0 25.85 12.35 24.15 L12.95 23.45 13.6 22.9 Q15.6 21.2 18.4 21.15 L18.5 21.15 21.2 21.5 Q21.6 21.6 22.0 21.85 23.4 22.45 24.5 23.8 L25.9 25.6 26.5 26.3 26.8 26.75 27.1 27.1 30.35 31.4 30.85 31.95 32.7 33.6 33.0 33.8 Q35.2 35.1 37.6 34.85 39.7 34.65 41.1 33.6 L41.65 33.15 41.8 33.0 42.4 32.15 Q43.25 30.85 43.15 29.2 L42.8 27.8 42.75 27.75 Q42.35 26.85 40.95 26.2 39.6 25.5 38.05 25.6 L35.9 25.9 Q34.05 26.45 30.6 29.75 29.05 28.15 27.9 26.2 31.05 22.7 33.2 21.8 34.35 21.35 35.55 21.2 39.5 20.8 42.3 22.8 L43.7 24.2 44.6 25.75 45.15 27.3 45.45 29.15 45.45 30.7 45.05 33.2 45.0 33.2 44.9 33.45 44.85 33.6 43.55 35.75 Q41.3 38.5 37.45 38.55 33.6 38.55 30.0 34.6 L25.3 29.3 Q23.9 27.7 22.7 26.75 L22.0 26.25 21.2 25.8 18.5 25.1 18.25 25.15 Q16.85 25.25 15.4 26.0 L14.1 27.05 Q13.65 27.5 13.35 28.05 L13.1 28.45 Q12.7 29.35 12.75 30.45 L12.9 31.1 13.6 32.5 14.3 33.3 Q15.45 34.25 16.9 34.45 L17.8 34.55 19.35 34.4 Q20.3 34.1 21.4 33.4 22.9 32.5 24.55 30.45 L27.95 34.5 27.05 35.7 26.0 36.7 Q23.95 38.2 20.65 38.7 18.65 39.0 16.85 38.65 L16.9 38.65 Q15.0 38.25 13.5 37.1 11.75 35.75 11.0 33.65 L10.65 32.5 10.55 32.1 10.55 32.0 10.5 31.85 10.4 30.95 10.4 30.6 10.5 28.45 10.55 28.25 10.6 27.95 M52.05 28.45 Q52.05 38.45 45.05 45.6 37.9 52.6 27.9 52.6 17.9 52.6 10.75 45.6 3.75 38.45 3.75 28.45 3.75 18.45 10.75 11.3 17.9 4.3 27.9 4.3 37.9 4.3 45.05 11.3 52.05 18.45 52.05 28.45 M46.85 28.45 Q46.85 20.7 41.3 15.05 35.8 9.5 27.9 9.5 20.0 9.5 14.5 15.05 8.95 20.7 8.95 28.45 8.95 36.35 14.5 41.85 20.0 47.4 27.9 47.4 35.8 47.4 41.3 41.85 46.85 36.35 46.85 28.45" fill="#000000" fill-rule="evenodd" stroke="none"/>
    </g>
  </defs>
</svg>
