<?xml version="1.0" encoding="UTF-8" standalone="no"?>
<svg xmlns:ffdec="https://www.free-decompiler.com/flash" xmlns:xlink="http://www.w3.org/1999/xlink" ffdec:objectType="frame" height="56.0px" width="56.0px" xmlns="http://www.w3.org/2000/svg">
  <g transform="matrix(1.0, 0.0, 0.0, 1.0, 0.0, 0.0)">
    <use ffdec:characterId="2" height="56.0" id="back" transform="matrix(1.0, 0.0, 0.0, 1.0, 0.0, 0.0)" width="56.0" xlink:href="#sprite0"/>
    <use ffdec:characterId="3" height="47.65" transform="matrix(1.0, 0.0, 0.0, 1.0, 7.0, 3.7)" width="41.05" xlink:href="#shape1"/>
  </g>
  <defs>
    <g id="sprite0" transform="matrix(1.0, 0.0, 0.0, 1.0, 0.0, 0.0)">
      <use ffdec:characterId="1" height="56.0" transform="matrix(1.0, 0.0, 0.0, 1.0, 0.0, 0.0)" width="56.0" xlink:href="#shape0"/>
    </g>
    <g id="shape0" transform="matrix(1.0, 0.0, 0.0, 1.0, 0.0, 0.0)">
      <path d="M56.0 56.0 L0.0 56.0 0.0 0.0 56.0 0.0 56.0 56.0" fill="#010101" fill-opacity="0.0" fill-rule="evenodd" stroke="none"/>
    </g>
    <g id="shape1" transform="matrix(1.0, 0.0, 0.0, 1.0, -7.0, -3.7)">
      <path d="M39.1 7.2 Q39.5 8.65 39.0 9.85 38.3 11.15 37.1 11.45 35.5 11.8 34.45 10.9 33.25 10.15 32.85 8.65 32.4 7.15 33.0 5.85 33.55 4.65 35.15 4.3 36.4 4.0 37.6 4.9 38.7 5.6 39.1 7.2 M47.3 34.8 Q45.5 37.15 36.9 35.95 33.8 41.75 31.7 43.25 L31.55 43.25 Q30.65 43.85 29.95 43.7 28.6 43.25 27.15 39.95 L25.85 36.45 25.55 35.55 12.4 50.7 Q11.4 51.4 8.9 48.7 7.8 46.8 7.5 45.4 L21.25 31.6 Q15.6 29.35 15.2 27.35 14.3 24.55 22.4 19.85 21.35 10.35 23.5 8.65 L24.3 8.35 Q26.7 8.4 33.2 14.65 38.7 12.3 41.35 12.4 42.8 12.55 43.45 13.3 L43.5 13.35 Q44.15 13.75 44.15 15.35 44.3 18.3 42.05 24.4 47.85 31.65 47.55 34.1 47.6 34.55 47.3 34.8 M34.3 46.7 Q35.05 47.0 35.25 47.9 35.5 48.55 35.0 49.45 L33.95 50.3 32.6 49.95 Q31.8 49.35 31.65 48.65 31.45 47.85 31.85 47.15 32.1 46.55 32.9 46.45 33.65 46.2 34.3 46.7 M39.5 44.85 Q39.05 43.25 39.65 42.0 40.25 40.85 41.85 40.5 43.05 40.2 44.25 40.95 45.25 41.75 45.75 43.35 46.15 44.75 45.65 45.9 45.05 47.35 43.75 47.55 42.2 47.95 41.1 47.0 39.85 46.25 39.5 44.85 M11.6 22.25 Q11.9 23.15 11.45 23.85 11.1 24.8 10.3 24.95 9.45 25.15 8.6 24.5 7.85 24.1 7.6 23.15 7.35 22.35 7.75 21.4 8.25 20.7 9.05 20.5 9.9 20.3 10.55 20.75 11.45 21.45 11.6 22.25" fill="#000000" fill-rule="evenodd" stroke="none"/>
      <path d="M39.1 7.2 Q38.7 5.6 37.6 4.9 36.4 4.0 35.15 4.3 33.55 4.65 33.0 5.85 32.4 7.15 32.85 8.65 33.25 10.15 34.45 10.9 35.5 11.8 37.1 11.45 38.3 11.15 39.0 9.85 39.5 8.65 39.1 7.2 M47.3 34.8 Q45.5 37.15 36.9 35.95 33.8 41.75 31.7 43.25 L31.55 43.25 Q30.65 43.85 29.95 43.7 28.6 43.25 27.15 39.95 L25.85 36.45 25.55 35.55 12.4 50.7 Q11.4 51.4 8.9 48.7 7.8 46.8 7.5 45.4 L21.25 31.6 Q15.6 29.35 15.2 27.35 14.3 24.55 22.4 19.85 21.35 10.35 23.5 8.65 L24.3 8.35 Q26.7 8.4 33.2 14.65 38.7 12.3 41.35 12.4 42.8 12.55 43.45 13.3 L43.5 13.35 Q44.15 13.75 44.15 15.35 44.3 18.3 42.05 24.4 47.85 31.65 47.55 34.1 47.6 34.55 47.3 34.8 M11.6 22.25 Q11.45 21.45 10.55 20.75 9.9 20.3 9.05 20.5 8.25 20.7 7.75 21.4 7.35 22.35 7.6 23.15 7.85 24.1 8.6 24.5 9.45 25.15 10.3 24.95 11.1 24.8 11.45 23.85 11.9 23.15 11.6 22.25 M39.5 44.85 Q39.85 46.25 41.1 47.0 42.2 47.95 43.75 47.55 45.05 47.35 45.65 45.9 46.15 44.75 45.75 43.35 45.25 41.75 44.25 40.95 43.05 40.2 41.85 40.5 40.25 40.85 39.65 42.0 39.05 43.25 39.5 44.85 M34.3 46.7 Q33.65 46.2 32.9 46.45 32.1 46.55 31.85 47.15 31.45 47.85 31.65 48.65 31.8 49.35 32.6 49.95 L33.95 50.3 35.0 49.45 Q35.5 48.55 35.25 47.9 35.05 47.0 34.3 46.7 Z" fill="none" stroke="#000000" stroke-linecap="round" stroke-linejoin="round" stroke-opacity="0.2" stroke-width="1.0"/>
      <path d="M39.1 7.2 Q39.5 8.65 39.0 9.85 38.3 11.15 37.1 11.45 35.5 11.8 34.45 10.9 33.25 10.15 32.85 8.65 32.4 7.15 33.0 5.85 33.55 4.65 35.15 4.3 36.4 4.0 37.6 4.9 38.7 5.6 39.1 7.2 M47.3 34.8 Q45.5 37.15 36.9 35.95 33.8 41.75 31.7 43.25 L31.55 43.25 Q30.65 43.85 29.95 43.7 28.6 43.25 27.15 39.95 L25.85 36.45 25.55 35.55 12.4 50.7 Q11.4 51.4 8.9 48.7 7.8 46.8 7.5 45.4 L21.25 31.6 Q15.6 29.35 15.2 27.35 14.3 24.55 22.4 19.85 21.35 10.35 23.5 8.65 L24.3 8.35 Q26.7 8.4 33.2 14.65 38.7 12.3 41.35 12.4 42.8 12.55 43.45 13.3 L43.5 13.35 Q44.15 13.75 44.15 15.35 44.3 18.3 42.05 24.4 47.85 31.65 47.55 34.1 47.6 34.55 47.3 34.8 M34.3 46.7 Q35.05 47.0 35.25 47.9 35.5 48.55 35.0 49.45 L33.95 50.3 32.6 49.95 Q31.8 49.35 31.65 48.65 31.45 47.85 31.85 47.15 32.1 46.55 32.9 46.45 33.65 46.2 34.3 46.7 M39.5 44.85 Q39.05 43.25 39.65 42.0 40.25 40.85 41.85 40.5 43.05 40.2 44.25 40.95 45.25 41.75 45.75 43.35 46.15 44.75 45.65 45.9 45.05 47.35 43.75 47.55 42.2 47.95 41.1 47.0 39.85 46.25 39.5 44.85 M11.6 22.25 Q11.9 23.15 11.45 23.85 11.1 24.8 10.3 24.95 9.45 25.15 8.6 24.5 7.85 24.1 7.6 23.15 7.35 22.35 7.75 21.4 8.25 20.7 9.05 20.5 9.9 20.3 10.55 20.75 11.45 21.45 11.6 22.25" fill="#000000" fill-rule="evenodd" stroke="none"/>
    </g>
  </defs>
</svg>
