<?xml version="1.0" encoding="UTF-8" standalone="no"?>
<svg xmlns:ffdec="https://www.free-decompiler.com/flash" xmlns:xlink="http://www.w3.org/1999/xlink" ffdec:objectType="frame" height="56.0px" width="56.0px" xmlns="http://www.w3.org/2000/svg">
  <g transform="matrix(1.0, 0.0, 0.0, 1.0, 0.0, 0.0)">
    <use ffdec:characterId="2" height="56.0" id="back" transform="matrix(1.0, 0.0, 0.0, 1.0, 0.0, 0.0)" width="56.0" xlink:href="#sprite0"/>
    <use ffdec:characterId="3" height="46.15" transform="matrix(1.0, 0.0, 0.0, 1.0, 10.6, 5.3)" width="35.0" xlink:href="#shape1"/>
  </g>
  <defs>
    <g id="sprite0" transform="matrix(1.0, 0.0, 0.0, 1.0, 0.0, 0.0)">
      <use ffdec:characterId="1" height="56.0" transform="matrix(1.0, 0.0, 0.0, 1.0, 0.0, 0.0)" width="56.0" xlink:href="#shape0"/>
    </g>
    <g id="shape0" transform="matrix(1.0, 0.0, 0.0, 1.0, 0.0, 0.0)">
      <path d="M56.0 56.0 L0.0 56.0 0.0 0.0 56.0 0.0 56.0 56.0" fill="#010101" fill-opacity="0.0" fill-rule="evenodd" stroke="none"/>
    </g>
    <g id="shape1" transform="matrix(1.0, 0.0, 0.0, 1.0, -10.6, -5.3)">
      <path d="M45.1 33.95 Q45.1 41.0 40.1 46.0 35.15 50.95 28.1 50.95 L25.75 50.8 Q20.2 50.1 16.05 46.0 11.1 41.0 11.1 33.95 11.1 26.9 16.05 21.95 17.45 20.55 19.05 19.55 25.25 13.6 27.8 5.8 30.55 13.9 36.55 19.15 38.45 20.25 40.1 21.95 43.9 25.7 44.8 30.65 L45.1 33.95 M23.8 25.35 Q23.8 26.5 23.0 27.3 22.2 28.1 21.05 28.1 19.9 28.1 19.05 27.3 18.25 26.5 18.25 25.35 18.25 24.15 19.05 23.35 19.9 22.55 21.05 22.55 22.2 22.55 23.0 23.35 23.8 24.15 23.8 25.35 M38.0 42.65 Q32.95 47.6 25.75 46.45 21.8 45.75 17.25 43.25 22.0 43.2 25.75 42.1 34.55 39.4 37.6 30.65 38.6 27.6 38.95 23.85 41.2 27.45 41.9 30.65 43.35 37.45 38.0 42.65 Z" fill="none" stroke="#000000" stroke-linecap="round" stroke-linejoin="round" stroke-opacity="0.2" stroke-width="1.0"/>
      <path d="M45.1 33.95 Q45.1 41.0 40.1 46.0 35.15 50.95 28.1 50.95 21.05 50.95 16.05 46.0 11.1 41.0 11.1 33.95 11.1 26.9 16.05 21.95 17.45 20.55 19.05 19.55 25.25 13.6 27.8 5.8 30.55 13.9 36.55 19.15 38.45 20.25 40.1 21.95 45.1 26.9 45.1 33.95 M38.0 42.65 Q45.9 34.95 38.95 23.85 37.2 43.05 17.25 43.25 30.15 50.35 38.0 42.65 M23.8 25.35 Q23.8 24.15 23.0 23.35 22.2 22.55 21.05 22.55 19.9 22.55 19.05 23.35 18.25 24.15 18.25 25.35 18.25 26.5 19.05 27.3 19.9 28.1 21.05 28.1 22.2 28.1 23.0 27.3 23.8 26.5 23.8 25.35" fill="#000000" fill-rule="evenodd" stroke="none"/>
    </g>
  </defs>
</svg>
