<?xml version="1.0" encoding="UTF-8" standalone="no"?>
<svg xmlns:ffdec="https://www.free-decompiler.com/flash" xmlns:xlink="http://www.w3.org/1999/xlink" ffdec:objectType="frame" height="56.0px" width="56.0px" xmlns="http://www.w3.org/2000/svg">
  <g transform="matrix(1.0, 0.0, 0.0, 1.0, 0.0, 0.0)">
    <use ffdec:characterId="2" height="56.0" id="back" transform="matrix(1.0, 0.0, 0.0, 1.0, 0.0, 0.0)" width="56.0" xlink:href="#sprite0"/>
    <use ffdec:characterId="3" height="44.95" transform="matrix(1.0, 0.0, 0.0, 1.0, 6.7, 6.5)" width="41.65" xlink:href="#shape1"/>
  </g>
  <defs>
    <g id="sprite0" transform="matrix(1.0, 0.0, 0.0, 1.0, 0.0, 0.0)">
      <use ffdec:characterId="1" height="56.0" transform="matrix(1.0, 0.0, 0.0, 1.0, 0.0, 0.0)" width="56.0" xlink:href="#shape0"/>
    </g>
    <g id="shape0" transform="matrix(1.0, 0.0, 0.0, 1.0, 0.0, 0.0)">
      <path d="M56.0 56.0 L0.0 56.0 0.0 0.0 56.0 0.0 56.0 56.0" fill="#010101" fill-opacity="0.0" fill-rule="evenodd" stroke="none"/>
    </g>
    <g id="shape1" transform="matrix(1.0, 0.0, 0.0, 1.0, -6.7, -6.5)">
      <path d="M26.8 9.05 Q26.8 8.25 27.3 7.5 L27.9 7.05 28.7 7.1 29.3 7.7 29.55 9.05 Q29.55 12.55 30.4 15.95 L30.75 17.05 30.85 17.3 Q31.75 19.55 33.65 21.5 33.6 20.8 33.7 20.15 34.0 18.65 34.95 17.45 35.05 16.95 35.55 16.75 L36.3 16.15 Q37.55 15.15 39.5 14.45 L40.15 14.4 Q40.5 14.5 40.75 14.75 L41.0 15.35 40.9 16.0 Q40.4 16.95 40.4 17.7 40.45 18.75 41.35 19.65 L43.3 21.5 43.35 21.55 Q47.5 25.95 47.8 31.85 L47.8 32.0 47.75 32.55 47.75 32.7 47.85 33.05 47.85 33.15 Q47.6 40.65 41.5 45.85 36.4 50.15 29.65 50.85 L27.6 50.95 26.8 50.95 Q21.2 50.9 16.8 48.5 L16.75 48.45 Q14.7 47.25 12.85 45.65 6.95 40.3 7.2 32.8 7.2 32.55 7.35 32.35 L7.3 31.6 7.3 31.55 Q7.9 25.65 12.3 21.3 L14.45 19.4 Q16.05 17.85 15.15 15.8 14.95 15.5 15.05 15.15 L15.35 14.55 15.9 14.25 16.6 14.3 Q18.35 15.0 19.6 16.0 L20.4 16.7 20.65 16.95 20.85 17.2 Q21.85 18.55 22.0 20.15 L22.05 21.4 Q24.05 19.45 25.15 17.2 L25.15 17.15 25.55 15.85 Q26.55 12.45 26.8 9.05 M37.0 17.05 L36.6 17.7 Q35.65 20.45 37.75 23.55 40.6 26.85 40.5 31.25 40.2 35.75 36.0 37.35 40.85 30.45 35.7 24.65 31.3 21.6 29.8 17.7 L29.75 17.65 29.3 16.2 Q28.45 12.65 28.45 9.05 L28.25 8.15 Q27.95 8.6 27.9 9.1 27.7 12.65 26.65 16.15 L26.2 17.6 26.15 17.65 Q24.35 21.55 19.85 24.55 18.6 25.75 17.9 27.05 15.75 30.8 17.7 35.2 L18.75 37.2 17.65 36.65 Q14.7 34.9 14.65 31.05 14.75 26.65 17.85 23.4 L18.05 23.1 Q20.05 20.25 19.25 17.6 L18.95 16.95 Q17.85 16.0 16.15 15.35 17.45 18.1 15.2 20.25 L13.1 22.1 Q9.0 26.15 8.45 31.65 L8.55 32.8 8.55 32.9 Q9.05 39.15 15.3 40.5 L17.55 40.5 Q22.85 40.05 25.1 35.9 26.85 33.05 27.6 28.55 27.95 32.3 29.75 35.95 32.1 40.95 39.3 40.7 45.65 39.45 46.55 33.05 L46.65 31.9 Q46.4 26.45 42.5 22.3 L40.55 20.45 Q39.3 19.2 39.3 17.75 39.25 16.7 39.85 15.5 L37.0 17.05" fill="#000000" fill-rule="evenodd" stroke="none"/>
      <path d="M26.8 9.05 Q26.8 8.25 27.3 7.5 L27.9 7.05 28.7 7.1 29.3 7.7 29.55 9.05 Q29.55 12.55 30.4 15.95 L30.75 17.05 30.85 17.3 Q31.75 19.55 33.65 21.5 33.6 20.8 33.7 20.15 34.0 18.65 34.95 17.45 35.05 16.95 35.55 16.75 L36.3 16.15 Q37.55 15.15 39.5 14.45 L40.15 14.4 Q40.5 14.5 40.75 14.75 L41.0 15.35 40.9 16.0 Q40.4 16.95 40.4 17.7 40.45 18.75 41.35 19.65 L43.3 21.5 43.35 21.55 Q47.5 25.95 47.8 31.85 L47.8 32.0 47.75 32.55 47.75 32.7 47.85 33.05 47.85 33.15 Q47.6 40.65 41.5 45.85 36.4 50.15 29.65 50.85 L27.6 50.95 26.8 50.95 Q21.2 50.9 16.8 48.5 L16.75 48.45 Q14.7 47.25 12.85 45.65 6.95 40.3 7.2 32.8 7.2 32.55 7.35 32.35 L7.3 31.6 7.3 31.55 Q7.9 25.65 12.3 21.3 L14.45 19.4 Q16.05 17.85 15.15 15.8 14.95 15.5 15.05 15.15 L15.35 14.55 15.9 14.25 16.6 14.3 Q18.35 15.0 19.6 16.0 L20.4 16.7 20.65 16.95 20.85 17.2 Q21.85 18.55 22.0 20.15 L22.05 21.4 Q24.05 19.45 25.15 17.2 L25.15 17.15 25.55 15.85 Q26.55 12.45 26.8 9.05 M37.0 17.05 L39.85 15.5 Q39.25 16.7 39.3 17.75 39.3 19.2 40.55 20.45 L42.5 22.3 Q46.4 26.45 46.65 31.9 L46.55 33.05 Q45.65 39.45 39.3 40.7 32.1 40.95 29.75 35.95 27.95 32.3 27.6 28.55 26.85 33.05 25.1 35.9 22.85 40.05 17.55 40.5 L15.3 40.5 Q9.05 39.15 8.55 32.9 L8.55 32.8 8.45 31.65 Q9.0 26.15 13.1 22.1 L15.2 20.25 Q17.45 18.1 16.15 15.35 17.85 16.0 18.95 16.95 L19.25 17.6 Q20.05 20.25 18.05 23.1 L17.85 23.4 Q14.75 26.65 14.65 31.05 14.7 34.9 17.65 36.65 L18.75 37.2 17.7 35.2 Q15.75 30.8 17.9 27.05 18.6 25.75 19.85 24.55 24.35 21.55 26.15 17.65 L26.2 17.6 26.65 16.15 Q27.7 12.65 27.9 9.1 27.95 8.6 28.25 8.15 L28.45 9.05 Q28.45 12.65 29.3 16.2 L29.75 17.65 29.8 17.7 Q31.3 21.6 35.7 24.65 40.85 30.45 36.0 37.35 40.2 35.75 40.5 31.25 40.6 26.85 37.75 23.55 35.65 20.45 36.6 17.7 L37.0 17.05 Z" fill="none" stroke="#000000" stroke-linecap="round" stroke-linejoin="round" stroke-opacity="0.2" stroke-width="1.0"/>
      <path d="M26.8 9.05 Q26.8 8.25 27.3 7.5 L27.9 7.05 28.7 7.1 29.3 7.7 29.55 9.05 Q29.55 12.55 30.4 15.95 L30.75 17.05 30.85 17.3 Q31.75 19.55 33.65 21.5 33.6 20.8 33.7 20.15 34.0 18.65 34.95 17.45 35.05 16.95 35.55 16.75 L36.3 16.15 Q37.55 15.15 39.5 14.45 L40.15 14.4 Q40.5 14.5 40.75 14.75 L41.0 15.35 40.9 16.0 Q40.4 16.95 40.4 17.7 40.45 18.75 41.35 19.65 L43.3 21.5 43.35 21.55 Q47.5 25.95 47.8 31.85 L47.8 32.0 47.75 32.55 47.75 32.7 47.85 33.05 47.85 33.15 Q47.6 40.65 41.5 45.85 36.4 50.15 29.65 50.85 L27.6 50.95 26.8 50.95 Q21.2 50.9 16.8 48.5 L16.75 48.45 Q14.7 47.25 12.85 45.65 6.95 40.3 7.2 32.8 7.2 32.55 7.35 32.35 L7.3 31.6 7.3 31.55 Q7.9 25.65 12.3 21.3 L14.45 19.4 Q16.05 17.85 15.15 15.8 14.95 15.5 15.05 15.15 L15.35 14.55 15.9 14.25 16.6 14.3 Q18.35 15.0 19.6 16.0 L20.4 16.7 20.65 16.95 20.85 17.2 Q21.85 18.55 22.0 20.15 L22.05 21.4 Q24.05 19.45 25.15 17.2 L25.15 17.15 25.55 15.85 Q26.55 12.45 26.8 9.05 M37.0 17.05 L36.6 17.7 Q35.65 20.45 37.75 23.55 40.6 26.85 40.5 31.25 40.2 35.75 36.0 37.35 40.85 30.45 35.7 24.65 31.3 21.6 29.8 17.7 L29.75 17.65 29.3 16.2 Q28.45 12.65 28.45 9.05 L28.25 8.15 Q27.95 8.6 27.9 9.1 27.7 12.65 26.65 16.15 L26.2 17.6 26.15 17.65 Q24.35 21.55 19.85 24.55 18.6 25.75 17.9 27.05 15.75 30.8 17.7 35.2 L18.75 37.2 17.65 36.65 Q14.7 34.9 14.65 31.05 14.75 26.65 17.85 23.4 L18.05 23.1 Q20.05 20.25 19.25 17.6 L18.95 16.95 Q17.85 16.0 16.15 15.35 17.45 18.1 15.2 20.25 L13.1 22.1 Q9.0 26.15 8.45 31.65 L8.55 32.8 8.55 32.9 Q9.05 39.15 15.3 40.5 L17.55 40.5 Q22.85 40.05 25.1 35.9 26.85 33.05 27.6 28.55 27.95 32.3 29.75 35.95 32.1 40.95 39.3 40.7 45.65 39.45 46.55 33.05 L46.65 31.9 Q46.4 26.45 42.5 22.3 L40.55 20.45 Q39.3 19.2 39.3 17.75 39.25 16.7 39.85 15.5 L37.0 17.05" fill="#000000" fill-rule="evenodd" stroke="none"/>
    </g>
  </defs>
</svg>
