<?xml version="1.0" encoding="UTF-8" standalone="no"?>
<svg xmlns:ffdec="https://www.free-decompiler.com/flash" xmlns:xlink="http://www.w3.org/1999/xlink" ffdec:objectType="frame" height="56.0px" width="56.0px" xmlns="http://www.w3.org/2000/svg">
  <g transform="matrix(1.0, 0.0, 0.0, 1.0, 0.0, 0.0)">
    <use ffdec:characterId="2" height="56.0" id="back" transform="matrix(1.0, 0.0, 0.0, 1.0, 0.0, 0.0)" width="56.0" xlink:href="#sprite0"/>
    <use ffdec:characterId="3" height="42.35" transform="matrix(1.0, 0.0, 0.0, 1.0, 7.05, 8.9)" width="41.7" xlink:href="#shape1"/>
  </g>
  <defs>
    <g id="sprite0" transform="matrix(1.0, 0.0, 0.0, 1.0, 0.0, 0.0)">
      <use ffdec:characterId="1" height="56.0" transform="matrix(1.0, 0.0, 0.0, 1.0, 0.0, 0.0)" width="56.0" xlink:href="#shape0"/>
    </g>
    <g id="shape0" transform="matrix(1.0, 0.0, 0.0, 1.0, 0.0, 0.0)">
      <path d="M56.0 56.0 L0.0 56.0 0.0 0.0 56.0 0.0 56.0 56.0" fill="#010101" fill-opacity="0.0" fill-rule="evenodd" stroke="none"/>
    </g>
    <g id="shape1" transform="matrix(1.0, 0.0, 0.0, 1.0, -7.05, -8.9)">
      <path d="M19.4 19.05 Q20.2 19.85 20.25 20.9 L20.25 21.1 20.5 29.95 19.7 29.1 19.7 29.0 Q17.65 27.15 14.85 27.2 12.65 27.3 11.1 28.5 L10.55 28.05 Q7.6 25.15 7.55 20.9 7.5 16.55 10.4 13.55 13.1 10.45 17.2 10.25 21.3 10.1 24.3 12.9 26.8 15.5 27.2 19.1 L27.2 19.85 27.45 50.7 Q25.05 51.0 22.55 49.85 L22.25 21.9 22.35 21.0 22.35 20.5 Q22.15 18.65 20.95 17.35 19.35 15.85 17.2 16.0 15.2 16.05 13.75 17.65 12.25 19.2 12.25 21.4 12.35 23.55 13.8 25.05 15.35 26.55 17.4 26.5 L17.6 26.45 17.5 24.25 17.35 24.3 Q16.1 24.35 15.3 23.4 14.4 22.55 14.4 21.3 14.4 20.1 15.25 19.15 16.05 18.3 17.25 18.25 18.5 18.2 19.4 19.05 M35.35 33.45 L35.3 33.0 Q35.55 30.85 37.0 29.1 38.6 27.3 41.05 27.2 43.6 27.1 45.25 28.75 47.05 30.5 47.05 33.1 47.1 35.6 45.3 37.45 43.7 39.35 41.15 39.45 L39.4 39.25 39.45 33.7 Q39.45 33.0 39.95 32.45 40.5 31.95 41.2 31.95 L41.25 31.9 Q42.0 31.9 42.5 32.35 42.95 32.9 42.95 33.65 42.95 34.4 42.55 35.0 42.0 35.5 41.3 35.55 L41.15 35.55 41.15 36.85 41.3 36.85 Q42.45 36.85 43.35 35.9 44.15 34.9 44.15 33.6 44.15 32.3 43.25 31.45 42.4 30.55 41.25 30.6 L41.2 30.6 Q39.95 30.6 39.1 31.65 38.3 32.45 38.25 33.55 L38.25 33.85 38.35 34.4 38.45 46.85 Q37.15 48.15 35.5 48.8 L35.45 48.8 35.35 33.45 M45.35 12.1 Q48.2 15.0 48.25 19.3 48.3 23.5 45.45 26.6 L44.95 27.2 Q43.3 26.05 41.1 26.2 38.3 26.3 36.25 28.4 L36.25 28.45 35.5 29.4 35.6 20.5 35.6 20.3 Q35.65 19.2 36.45 18.3 37.25 17.4 38.45 17.4 39.7 17.3 40.55 18.15 41.45 19.05 41.45 20.25 41.4 21.55 40.6 22.45 39.75 23.35 38.55 23.4 L38.35 23.4 38.4 25.6 38.55 25.6 Q40.6 25.5 42.05 23.9 43.55 22.3 43.55 20.15 43.55 18.0 42.0 16.5 40.45 15.0 38.4 15.1 36.4 15.15 34.85 16.75 33.6 18.15 33.5 20.05 L33.5 20.6 33.55 21.5 33.85 49.4 Q31.3 50.75 28.95 50.6 L28.65 19.85 28.65 19.05 Q28.95 15.45 31.35 12.65 34.2 9.55 38.3 9.4 42.4 9.2 45.35 12.1 M14.9 28.25 Q17.3 28.15 19.1 29.8 20.55 31.4 20.75 33.6 L20.8 34.05 20.95 49.4 20.9 49.4 Q19.3 48.85 17.9 47.7 L17.8 35.2 17.85 34.65 17.85 34.35 Q17.75 33.25 16.9 32.55 16.05 31.65 14.85 31.7 L14.8 31.7 Q13.7 31.75 12.8 32.7 11.95 33.65 11.95 34.9 12.0 36.25 12.85 37.1 13.75 38.0 14.85 37.9 L14.95 37.9 14.95 36.6 14.85 36.6 Q14.05 36.65 13.65 36.15 13.15 35.6 13.1 34.85 13.15 34.1 13.55 33.55 14.05 33.05 14.8 33.0 L14.9 33.0 Q15.65 33.0 16.15 33.45 16.65 33.95 16.65 34.6 L16.75 40.25 15.0 40.55 Q12.5 40.65 10.85 38.9 9.1 37.2 9.0 34.6 9.05 32.05 10.75 30.2 12.4 28.35 14.9 28.25" fill="#000000" fill-rule="evenodd" stroke="none"/>
      <path d="M19.4 19.05 Q20.2 19.85 20.25 20.9 L20.25 21.1 20.5 29.95 19.7 29.1 19.7 29.0 Q17.65 27.15 14.85 27.2 12.65 27.3 11.1 28.5 L10.55 28.05 Q7.6 25.15 7.55 20.9 7.5 16.55 10.4 13.55 13.1 10.45 17.2 10.25 21.3 10.1 24.3 12.9 26.8 15.5 27.2 19.1 L27.2 19.85 27.45 50.7 Q25.05 51.0 22.55 49.85 L22.25 21.9 22.35 21.0 22.35 20.5 Q22.15 18.65 20.95 17.35 19.35 15.85 17.2 16.0 15.2 16.05 13.75 17.65 12.25 19.2 12.25 21.4 12.35 23.55 13.8 25.05 15.35 26.55 17.4 26.5 L17.6 26.45 17.5 24.25 17.35 24.3 Q16.1 24.35 15.3 23.4 14.4 22.55 14.4 21.3 14.4 20.1 15.25 19.15 16.05 18.3 17.25 18.25 18.5 18.2 19.4 19.05 M45.35 12.1 Q42.4 9.2 38.3 9.4 34.2 9.55 31.35 12.65 28.95 15.45 28.65 19.05 L28.65 19.85 28.95 50.6 Q31.3 50.75 33.85 49.4 L33.55 21.5 33.5 20.6 33.5 20.05 Q33.6 18.15 34.85 16.75 36.4 15.15 38.4 15.1 40.45 15.0 42.0 16.5 43.55 18.0 43.55 20.15 43.55 22.3 42.05 23.9 40.6 25.5 38.55 25.6 L38.4 25.6 38.35 23.4 38.55 23.4 Q39.75 23.35 40.6 22.45 41.4 21.55 41.45 20.25 41.45 19.05 40.55 18.15 39.7 17.3 38.45 17.4 37.25 17.4 36.45 18.3 35.65 19.2 35.6 20.3 L35.6 20.5 35.5 29.4 36.25 28.45 36.25 28.4 Q38.3 26.3 41.1 26.2 43.3 26.05 44.95 27.2 L45.45 26.6 Q48.3 23.5 48.25 19.3 48.2 15.0 45.35 12.1 M35.35 33.45 L35.45 48.8 35.5 48.8 Q37.15 48.15 38.45 46.85 L38.35 34.4 38.25 33.85 38.25 33.55 Q38.3 32.45 39.1 31.65 39.95 30.6 41.2 30.6 L41.25 30.6 Q42.4 30.55 43.25 31.45 44.15 32.3 44.15 33.6 44.15 34.9 43.35 35.9 42.45 36.85 41.3 36.85 L41.15 36.85 41.15 35.55 41.3 35.55 Q42.0 35.5 42.55 35.0 42.95 34.4 42.95 33.65 42.95 32.9 42.5 32.35 42.0 31.9 41.25 31.9 L41.2 31.95 Q40.5 31.95 39.95 32.45 39.45 33.0 39.45 33.7 L39.4 39.25 41.15 39.45 Q43.7 39.35 45.3 37.45 47.1 35.6 47.05 33.1 47.05 30.5 45.25 28.75 43.6 27.1 41.05 27.2 38.6 27.3 37.0 29.1 35.55 30.85 35.3 33.0 L35.35 33.45 M14.9 28.25 Q17.3 28.15 19.1 29.8 20.55 31.4 20.75 33.6 L20.8 34.05 20.95 49.4 20.9 49.4 Q19.3 48.85 17.9 47.7 L17.8 35.2 17.85 34.65 17.85 34.35 Q17.75 33.25 16.9 32.55 16.05 31.65 14.85 31.7 L14.8 31.7 Q13.7 31.75 12.8 32.7 11.95 33.65 11.95 34.9 12.0 36.25 12.85 37.1 13.75 38.0 14.85 37.9 L14.95 37.9 14.95 36.6 14.85 36.6 Q14.05 36.65 13.65 36.15 13.15 35.6 13.1 34.85 13.15 34.1 13.55 33.55 14.05 33.05 14.8 33.0 L14.9 33.0 Q15.65 33.0 16.15 33.45 16.65 33.95 16.65 34.6 L16.75 40.25 15.0 40.55 Q12.5 40.65 10.85 38.9 9.1 37.2 9.0 34.6 9.05 32.05 10.75 30.2 12.4 28.35 14.9 28.25 Z" fill="none" stroke="#000000" stroke-linecap="round" stroke-linejoin="round" stroke-opacity="0.2" stroke-width="1.0"/>
      <path d="M19.4 19.05 Q20.2 19.85 20.25 20.9 L20.25 21.1 20.5 29.95 19.7 29.1 19.7 29.0 Q17.65 27.15 14.85 27.2 12.65 27.3 11.1 28.5 L10.55 28.05 Q7.6 25.15 7.55 20.9 7.5 16.55 10.4 13.55 13.1 10.45 17.2 10.25 21.3 10.1 24.3 12.9 26.8 15.5 27.2 19.1 L27.2 19.85 27.45 50.7 Q25.05 51.0 22.55 49.85 L22.25 21.9 22.35 21.0 22.35 20.5 Q22.15 18.65 20.95 17.35 19.35 15.85 17.2 16.0 15.2 16.05 13.75 17.65 12.25 19.2 12.25 21.4 12.35 23.55 13.8 25.05 15.35 26.55 17.4 26.5 L17.6 26.45 17.5 24.25 17.35 24.3 Q16.1 24.35 15.3 23.4 14.4 22.55 14.4 21.3 14.4 20.1 15.25 19.15 16.05 18.3 17.25 18.25 18.5 18.2 19.4 19.05 M35.35 33.45 L35.3 33.0 Q35.55 30.85 37.0 29.1 38.6 27.3 41.05 27.2 43.6 27.1 45.25 28.75 47.05 30.5 47.05 33.1 47.1 35.6 45.3 37.45 43.7 39.35 41.15 39.45 L39.4 39.25 39.45 33.7 Q39.45 33.0 39.95 32.45 40.5 31.95 41.2 31.95 L41.25 31.9 Q42.0 31.9 42.5 32.35 42.95 32.9 42.95 33.65 42.95 34.4 42.55 35.0 42.0 35.5 41.3 35.55 L41.15 35.55 41.15 36.85 41.3 36.85 Q42.45 36.85 43.35 35.9 44.15 34.9 44.15 33.6 44.15 32.3 43.25 31.45 42.4 30.55 41.25 30.6 L41.2 30.6 Q39.95 30.6 39.1 31.65 38.3 32.45 38.25 33.55 L38.25 33.85 38.35 34.4 38.45 46.85 Q37.15 48.15 35.5 48.8 L35.45 48.8 35.35 33.45 M45.35 12.1 Q48.2 15.0 48.25 19.3 48.3 23.5 45.45 26.6 L44.95 27.2 Q43.3 26.05 41.1 26.2 38.3 26.3 36.25 28.4 L36.25 28.45 35.5 29.4 35.6 20.5 35.6 20.3 Q35.65 19.2 36.45 18.3 37.25 17.4 38.45 17.4 39.7 17.3 40.55 18.15 41.45 19.05 41.45 20.25 41.4 21.55 40.6 22.45 39.75 23.35 38.55 23.4 L38.35 23.4 38.4 25.6 38.55 25.6 Q40.6 25.5 42.05 23.9 43.55 22.3 43.55 20.15 43.55 18.0 42.0 16.5 40.45 15.0 38.4 15.1 36.4 15.15 34.85 16.75 33.6 18.15 33.5 20.05 L33.5 20.6 33.55 21.5 33.85 49.4 Q31.3 50.75 28.95 50.6 L28.65 19.85 28.65 19.05 Q28.95 15.45 31.35 12.65 34.2 9.55 38.3 9.4 42.4 9.2 45.35 12.1 M14.9 28.25 Q17.3 28.15 19.1 29.8 20.55 31.4 20.75 33.6 L20.8 34.05 20.95 49.4 20.9 49.4 Q19.3 48.85 17.9 47.7 L17.8 35.2 17.85 34.65 17.85 34.35 Q17.75 33.25 16.9 32.55 16.05 31.65 14.85 31.7 L14.8 31.7 Q13.7 31.75 12.8 32.7 11.95 33.65 11.95 34.9 12.0 36.25 12.85 37.1 13.75 38.0 14.85 37.9 L14.95 37.9 14.95 36.6 14.85 36.6 Q14.05 36.65 13.65 36.15 13.15 35.6 13.1 34.85 13.15 34.1 13.55 33.55 14.05 33.05 14.8 33.0 L14.9 33.0 Q15.65 33.0 16.15 33.45 16.65 33.95 16.65 34.6 L16.75 40.25 15.0 40.55 Q12.5 40.65 10.85 38.9 9.1 37.2 9.0 34.6 9.05 32.05 10.75 30.2 12.4 28.35 14.9 28.25" fill="#000000" fill-rule="evenodd" stroke="none"/>
    </g>
  </defs>
</svg>
