<?xml version="1.0" encoding="UTF-8" standalone="no"?>
<svg xmlns:ffdec="https://www.free-decompiler.com/flash" xmlns:xlink="http://www.w3.org/1999/xlink" ffdec:objectType="frame" height="56.0px" width="56.0px" xmlns="http://www.w3.org/2000/svg">
  <g transform="matrix(1.0, 0.0, 0.0, 1.0, 0.0, 0.0)">
    <use ffdec:characterId="2" height="56.0" id="back" transform="matrix(1.0, 0.0, 0.0, 1.0, 0.0, 0.0)" width="56.0" xlink:href="#sprite0"/>
    <use ffdec:characterId="3" height="44.75" transform="matrix(1.0, 0.0, 0.0, 1.0, 4.0, 6.5)" width="47.8" xlink:href="#shape1"/>
  </g>
  <defs>
    <g id="sprite0" transform="matrix(1.0, 0.0, 0.0, 1.0, 0.0, 0.0)">
      <use ffdec:characterId="1" height="56.0" transform="matrix(1.0, 0.0, 0.0, 1.0, 0.0, 0.0)" width="56.0" xlink:href="#shape0"/>
    </g>
    <g id="shape0" transform="matrix(1.0, 0.0, 0.0, 1.0, 0.0, 0.0)">
      <path d="M56.0 56.0 L0.0 56.0 0.0 0.0 56.0 0.0 56.0 56.0" fill="#010101" fill-opacity="0.0" fill-rule="evenodd" stroke="none"/>
    </g>
    <g id="shape1" transform="matrix(1.0, 0.0, 0.0, 1.0, -4.0, -6.5)">
      <path d="M44.0 16.55 L43.35 16.95 Q41.45 18.05 39.55 19.7 L39.55 19.85 Q41.0 20.2 41.8 21.1 42.85 20.05 43.95 16.6 45.65 18.55 46.25 20.1 47.95 18.95 49.2 16.6 48.35 15.5 46.95 15.35 L44.6 16.25 44.0 16.55 M35.9 13.05 Q34.5 13.7 32.95 14.85 31.1 16.5 30.35 17.65 32.25 16.0 34.2 15.0 L33.3 16.15 Q36.15 18.4 38.4 18.5 41.05 15.7 42.55 12.5 38.8 12.9 35.15 14.2 34.95 14.05 35.9 13.05 M41.95 22.6 Q40.9 21.3 39.25 20.5 37.6 24.05 36.7 28.05 38.85 25.35 41.95 22.65 L41.95 22.6 Q43.65 21.65 45.8 22.0 46.55 22.15 46.7 23.15 L45.55 25.15 Q43.35 28.75 40.35 32.25 39.2 32.45 37.95 32.25 L37.4 32.15 Q25.05 29.5 25.1 18.7 25.05 17.25 25.5 16.05 25.55 15.95 25.6 16.0 36.8 8.25 48.9 7.05 51.65 6.75 51.25 9.95 50.65 13.5 49.45 17.0 L49.2 17.7 Q47.7 19.95 45.8 22.0 45.65 20.05 44.3 18.5 L41.95 22.6 M8.35 41.75 L9.05 41.4 Q10.4 45.1 14.2 46.4 L13.8 47.1 12.4 48.55 12.3 48.7 12.3 48.75 10.75 49.85 Q9.65 50.45 8.4 50.65 6.35 51.0 5.35 49.8 4.55 49.0 4.55 47.85 4.45 47.3 4.65 46.6 4.9 45.7 5.45 44.85 6.0 43.85 6.9 42.95 L7.05 42.85 7.1 42.8 8.35 41.75 M13.1 46.7 Q11.45 46.2 10.35 45.3 9.15 44.15 8.4 42.6 L7.7 43.3 7.6 43.35 6.4 44.85 Q7.05 46.45 8.3 47.5 9.25 48.35 10.7 48.8 L11.9 47.95 12.0 47.85 13.1 46.7 M21.3 47.95 Q18.05 47.95 15.0 45.9 L14.8 45.75 Q11.25 43.65 9.9 40.7 7.25 36.9 8.2 33.7 16.95 28.1 23.6 20.25 23.5 30.85 36.3 33.45 28.85 39.7 21.3 47.95" fill="#000000" fill-rule="evenodd" stroke="none"/>
      <path d="M35.9 13.05 Q34.95 14.05 35.15 14.2 38.8 12.9 42.55 12.5 41.05 15.7 38.4 18.5 36.15 18.4 33.3 16.15 L34.2 15.0 Q32.25 16.0 30.35 17.65 31.1 16.5 32.95 14.85 34.5 13.7 35.9 13.05 M44.0 16.55 L44.6 16.25 46.95 15.35 Q48.35 15.5 49.2 16.6 47.95 18.95 46.25 20.1 45.65 18.55 43.95 16.6 42.85 20.05 41.8 21.1 41.0 20.2 39.55 19.85 L39.55 19.7 Q41.45 18.05 43.35 16.95 L44.0 16.55 M41.95 22.6 Q40.9 21.3 39.25 20.5 37.6 24.05 36.7 28.05 38.85 25.35 41.95 22.65 L41.95 22.6 44.3 18.5 Q45.65 20.05 45.8 22.0 47.7 19.95 49.2 17.7 L49.45 17.0 Q50.65 13.5 51.25 9.95 51.65 6.75 48.9 7.05 36.8 8.25 25.6 16.0 25.55 15.95 25.5 16.05 25.05 17.25 25.1 18.7 25.05 29.5 37.4 32.15 L37.95 32.25 Q39.2 32.45 40.35 32.25 43.35 28.75 45.55 25.15 L46.7 23.15 Q46.55 22.15 45.8 22.0 43.65 21.65 41.95 22.6 M8.35 41.75 L9.05 41.4 Q10.4 45.1 14.2 46.4 L13.8 47.1 12.4 48.55 12.3 48.7 12.3 48.75 10.75 49.85 Q9.65 50.45 8.4 50.65 6.35 51.0 5.35 49.8 4.55 49.0 4.55 47.85 4.45 47.3 4.65 46.6 4.9 45.7 5.45 44.85 6.0 43.85 6.9 42.95 L7.05 42.85 7.1 42.8 8.35 41.75 M13.1 46.7 L12.0 47.85 11.9 47.95 10.7 48.8 Q9.25 48.35 8.3 47.5 7.05 46.45 6.4 44.85 L7.6 43.35 7.7 43.3 8.4 42.6 Q9.15 44.15 10.35 45.3 11.45 46.2 13.1 46.7 M21.3 47.95 Q18.05 47.95 15.0 45.9 L14.8 45.75 Q11.25 43.65 9.9 40.7 7.25 36.9 8.2 33.7 16.95 28.1 23.6 20.25 23.5 30.85 36.3 33.45 28.85 39.7 21.3 47.95 Z" fill="none" stroke="#000000" stroke-linecap="round" stroke-linejoin="round" stroke-opacity="0.2" stroke-width="1.0"/>
      <path d="M44.0 16.55 L43.35 16.95 Q41.45 18.05 39.55 19.7 L39.55 19.85 Q41.0 20.2 41.8 21.1 42.85 20.05 43.95 16.6 45.65 18.55 46.25 20.1 47.95 18.95 49.2 16.6 48.35 15.5 46.95 15.35 L44.6 16.25 44.0 16.55 M35.9 13.05 Q34.5 13.7 32.95 14.85 31.1 16.5 30.35 17.65 32.25 16.0 34.2 15.0 L33.3 16.15 Q36.15 18.4 38.4 18.5 41.05 15.7 42.55 12.5 38.8 12.9 35.15 14.2 34.95 14.05 35.9 13.05 M41.95 22.6 Q40.9 21.3 39.25 20.5 37.6 24.05 36.7 28.05 38.85 25.35 41.95 22.65 L41.95 22.6 Q43.65 21.65 45.8 22.0 46.55 22.15 46.7 23.15 L45.55 25.15 Q43.35 28.75 40.35 32.25 39.2 32.45 37.95 32.25 L37.4 32.15 Q25.05 29.5 25.1 18.7 25.05 17.25 25.5 16.05 25.55 15.95 25.6 16.0 36.8 8.25 48.9 7.05 51.65 6.75 51.25 9.95 50.65 13.5 49.45 17.0 L49.2 17.7 Q47.7 19.95 45.8 22.0 45.65 20.05 44.3 18.5 L41.95 22.6 M13.1 46.7 Q11.45 46.2 10.35 45.3 9.15 44.15 8.4 42.6 L7.7 43.3 7.6 43.35 6.4 44.85 Q7.05 46.45 8.3 47.5 9.25 48.35 10.7 48.8 L11.9 47.95 12.0 47.85 13.1 46.7 M8.35 41.75 L9.05 41.4 Q10.4 45.1 14.2 46.4 L13.8 47.1 12.4 48.55 12.3 48.7 12.3 48.75 10.75 49.85 Q9.65 50.45 8.4 50.65 6.35 51.0 5.35 49.8 4.55 49.0 4.55 47.85 4.45 47.3 4.65 46.6 4.9 45.7 5.45 44.85 6.0 43.85 6.9 42.95 L7.05 42.85 7.1 42.8 8.35 41.75 M21.3 47.95 Q18.05 47.95 15.0 45.9 L14.8 45.75 Q11.25 43.65 9.9 40.7 7.25 36.9 8.2 33.7 16.95 28.1 23.6 20.25 23.5 30.85 36.3 33.45 28.85 39.7 21.3 47.95" fill="#000000" fill-rule="evenodd" stroke="none"/>
    </g>
  </defs>
</svg>
