<?xml version="1.0" encoding="UTF-8" standalone="no"?>
<svg xmlns:ffdec="https://www.free-decompiler.com/flash" xmlns:xlink="http://www.w3.org/1999/xlink" ffdec:objectType="frame" height="56.0px" width="56.0px" xmlns="http://www.w3.org/2000/svg">
  <g transform="matrix(1.0, 0.0, 0.0, 1.0, 0.0, 0.0)">
    <use ffdec:characterId="2" height="56.0" id="back" transform="matrix(1.0, 0.0, 0.0, 1.0, 0.0, 0.0)" width="56.0" xlink:href="#sprite0"/>
    <use ffdec:characterId="3" height="46.85" transform="matrix(1.0, 0.0, 0.0, 1.0, 5.65, 5.5)" width="43.85" xlink:href="#shape1"/>
  </g>
  <defs>
    <g id="sprite0" transform="matrix(1.0, 0.0, 0.0, 1.0, 0.0, 0.0)">
      <use ffdec:characterId="1" height="56.0" transform="matrix(1.0, 0.0, 0.0, 1.0, 0.0, 0.0)" width="56.0" xlink:href="#shape0"/>
    </g>
    <g id="shape0" transform="matrix(1.0, 0.0, 0.0, 1.0, 0.0, 0.0)">
      <path d="M56.0 56.0 L0.0 56.0 0.0 0.0 56.0 0.0 56.0 56.0" fill="#010101" fill-opacity="0.0" fill-rule="evenodd" stroke="none"/>
    </g>
    <g id="shape1" transform="matrix(1.0, 0.0, 0.0, 1.0, -5.65, -5.5)">
      <path d="M45.7 15.2 L46.0 16.25 Q46.25 17.4 45.9 18.3 44.75 19.2 42.85 19.05 L41.9 18.85 Q40.45 18.55 39.1 17.5 37.25 16.1 36.55 14.4 35.8 12.6 36.3 11.1 37.5 10.35 39.35 10.55 L39.4 10.55 Q40.6 10.65 41.75 11.2 44.0 9.15 44.6 6.05 46.35 5.75 47.55 6.95 47.2 10.95 44.9 13.8 L45.7 15.2 M33.5 9.1 L35.25 9.65 34.6 9.95 Q33.95 11.9 34.9 14.25 35.85 16.55 38.3 18.35 40.1 19.75 42.0 20.2 L43.2 20.4 Q45.45 20.6 46.95 19.7 L47.1 20.0 Q47.0 24.0 46.05 27.55 44.5 30.4 42.45 32.0 40.05 30.3 37.9 29.9 36.4 30.95 34.95 33.05 35.15 27.6 34.0 22.55 30.8 15.5 22.7 12.05 25.75 9.4 28.85 8.3 31.15 8.45 33.5 9.1 M32.55 42.35 Q33.55 39.25 34.5 37.2 35.45 35.15 38.3 32.95 40.65 33.8 42.0 34.75 46.45 32.15 47.4 27.35 48.6 29.05 49.0 31.95 48.15 36.45 46.3 41.55 43.75 46.0 38.2 49.45 L35.8 48.8 Q34.85 44.05 32.55 42.35 M23.3 28.05 L18.35 27.75 Q13.85 29.55 10.65 37.95 7.4 34.85 6.3 32.55 5.8 28.6 6.95 24.45 9.0 16.85 15.15 12.45 L17.15 12.35 21.25 12.6 Q27.8 15.8 32.05 22.25 34.5 32.85 31.05 41.3 L28.7 41.55 Q24.9 37.7 24.55 33.75 26.6 32.7 28.1 32.95 27.35 29.3 23.3 28.05 M15.25 17.9 Q14.55 18.85 14.45 19.95 14.35 21.05 14.95 21.75 15.6 22.4 16.55 22.25 17.45 22.05 18.15 21.15 18.9 20.2 19.05 19.15 19.15 18.05 18.5 17.35 17.9 16.7 16.95 16.9 16.0 17.0 15.25 17.9 M16.1 31.8 Q18.35 29.7 21.8 29.95 L22.9 30.05 Q23.9 30.55 24.45 31.6 L22.65 32.55 Q23.0 37.85 27.0 42.1 25.5 42.2 24.0 43.35 23.3 44.2 22.15 47.55 L21.65 47.85 Q19.8 48.9 18.3 49.15 L17.6 49.25 16.75 48.7 Q13.9 47.1 11.7 44.6 11.6 42.3 12.05 39.95 L12.45 38.65 Q13.55 35.2 16.1 31.8 M25.6 45.1 Q27.65 43.55 30.25 43.6 32.25 44.9 33.65 49.2 33.1 50.2 30.85 51.7 L26.6 51.75 Q24.6 50.45 24.0 48.15 24.55 46.65 25.6 45.1" fill="#000000" fill-rule="evenodd" stroke="none"/>
      <path d="M45.7 15.2 L46.0 16.25 Q46.25 17.4 45.9 18.3 44.75 19.2 42.85 19.05 L41.9 18.85 Q40.45 18.55 39.1 17.5 37.25 16.1 36.55 14.4 35.8 12.6 36.3 11.1 37.5 10.35 39.35 10.55 L39.4 10.55 Q40.6 10.65 41.75 11.2 44.0 9.15 44.6 6.05 46.35 5.75 47.55 6.95 47.2 10.95 44.9 13.8 L45.7 15.2 M33.5 9.1 L35.25 9.65 34.6 9.95 Q33.95 11.9 34.9 14.25 35.85 16.55 38.3 18.35 40.1 19.75 42.0 20.2 L43.2 20.4 Q45.45 20.6 46.95 19.7 L47.1 20.0 Q47.0 24.0 46.05 27.55 44.5 30.4 42.45 32.0 40.05 30.3 37.9 29.9 36.4 30.95 34.95 33.05 35.15 27.6 34.0 22.55 30.8 15.5 22.7 12.05 25.75 9.4 28.85 8.3 31.15 8.45 33.5 9.1 M32.55 42.35 Q33.55 39.25 34.5 37.2 35.45 35.15 38.3 32.95 40.65 33.8 42.0 34.75 46.45 32.15 47.4 27.35 48.6 29.05 49.0 31.95 48.15 36.45 46.3 41.55 43.75 46.0 38.2 49.45 L35.8 48.8 Q34.85 44.05 32.55 42.35 M23.3 28.05 L18.35 27.75 Q13.85 29.55 10.65 37.95 7.4 34.85 6.3 32.55 5.8 28.6 6.95 24.45 9.0 16.85 15.15 12.45 L17.15 12.35 21.25 12.6 Q27.8 15.8 32.05 22.25 34.5 32.85 31.05 41.3 L28.7 41.55 Q24.9 37.7 24.55 33.75 26.6 32.7 28.1 32.95 27.35 29.3 23.3 28.05 M15.25 17.9 Q16.0 17.0 16.95 16.9 17.9 16.7 18.5 17.35 19.15 18.05 19.05 19.15 18.9 20.2 18.15 21.15 17.45 22.05 16.55 22.25 15.6 22.4 14.95 21.75 14.35 21.05 14.45 19.95 14.55 18.85 15.25 17.9 M16.1 31.8 Q18.35 29.7 21.8 29.95 L22.9 30.05 Q23.9 30.55 24.45 31.6 L22.65 32.55 Q23.0 37.85 27.0 42.1 25.5 42.2 24.0 43.35 23.3 44.2 22.15 47.55 L21.65 47.85 Q19.8 48.9 18.3 49.15 L17.6 49.25 16.75 48.7 Q13.9 47.1 11.7 44.6 11.6 42.3 12.05 39.95 L12.45 38.65 Q13.55 35.2 16.1 31.8 M25.6 45.1 Q27.65 43.55 30.25 43.6 32.25 44.9 33.65 49.2 33.1 50.2 30.85 51.7 L26.6 51.75 Q24.6 50.45 24.0 48.15 24.55 46.65 25.6 45.1 Z" fill="none" stroke="#000000" stroke-linecap="round" stroke-linejoin="round" stroke-opacity="0.2" stroke-width="1.0"/>
      <path d="M45.7 15.2 L46.0 16.25 Q46.25 17.4 45.9 18.3 44.75 19.2 42.85 19.05 L41.9 18.85 Q40.45 18.55 39.1 17.5 37.25 16.1 36.55 14.4 35.8 12.6 36.3 11.1 37.5 10.35 39.35 10.55 L39.4 10.55 Q40.6 10.65 41.75 11.2 44.0 9.15 44.6 6.05 46.35 5.75 47.55 6.95 47.2 10.95 44.9 13.8 L45.7 15.2 M33.5 9.1 L35.25 9.65 34.6 9.95 Q33.95 11.9 34.9 14.25 35.85 16.55 38.3 18.35 40.1 19.75 42.0 20.2 L43.2 20.4 Q45.45 20.6 46.95 19.7 L47.1 20.0 Q47.0 24.0 46.05 27.55 44.5 30.4 42.45 32.0 40.05 30.3 37.9 29.9 36.4 30.95 34.95 33.05 35.15 27.6 34.0 22.55 30.8 15.5 22.7 12.05 25.75 9.4 28.85 8.3 31.15 8.45 33.5 9.1 M32.55 42.35 Q33.55 39.25 34.5 37.2 35.45 35.15 38.3 32.95 40.65 33.8 42.0 34.75 46.45 32.15 47.4 27.35 48.6 29.05 49.0 31.95 48.15 36.45 46.3 41.55 43.75 46.0 38.2 49.45 L35.8 48.8 Q34.85 44.05 32.55 42.35 M23.3 28.05 L18.35 27.75 Q13.85 29.55 10.65 37.95 7.4 34.85 6.3 32.55 5.8 28.6 6.95 24.45 9.0 16.85 15.15 12.45 L17.15 12.35 21.25 12.6 Q27.8 15.8 32.05 22.25 34.5 32.85 31.05 41.3 L28.7 41.55 Q24.9 37.7 24.55 33.75 26.6 32.7 28.1 32.95 27.35 29.3 23.3 28.05 M15.25 17.9 Q14.55 18.85 14.45 19.95 14.35 21.05 14.95 21.75 15.6 22.4 16.55 22.25 17.45 22.05 18.15 21.15 18.9 20.2 19.05 19.15 19.15 18.05 18.5 17.35 17.9 16.7 16.95 16.9 16.0 17.0 15.25 17.9 M16.1 31.8 Q18.35 29.7 21.8 29.95 L22.9 30.05 Q23.9 30.55 24.45 31.6 L22.65 32.55 Q23.0 37.85 27.0 42.1 25.5 42.2 24.0 43.35 23.3 44.2 22.15 47.55 L21.65 47.85 Q19.8 48.9 18.3 49.15 L17.6 49.25 16.75 48.7 Q13.9 47.1 11.7 44.6 11.6 42.3 12.05 39.95 L12.45 38.65 Q13.55 35.2 16.1 31.8 M25.6 45.1 Q27.65 43.55 30.25 43.6 32.25 44.9 33.65 49.2 33.1 50.2 30.85 51.7 L26.6 51.75 Q24.6 50.45 24.0 48.15 24.55 46.65 25.6 45.1" fill="#000000" fill-rule="evenodd" stroke="none"/>
    </g>
  </defs>
</svg>
