<?xml version="1.0" encoding="UTF-8" standalone="no"?>
<svg xmlns:ffdec="https://www.free-decompiler.com/flash" xmlns:xlink="http://www.w3.org/1999/xlink" ffdec:objectType="frame" height="56.0px" width="56.0px" xmlns="http://www.w3.org/2000/svg">
  <g transform="matrix(1.0, 0.0, 0.0, 1.0, 0.0, 0.0)">
    <use ffdec:characterId="2" height="56.0" id="back" transform="matrix(1.0, 0.0, 0.0, 1.0, 0.0, 0.0)" width="56.0" xlink:href="#sprite0"/>
    <use ffdec:characterId="3" height="43.9" transform="matrix(1.0, 0.0, 0.0, 1.0, 4.25, 5.5)" width="48.55" xlink:href="#shape1"/>
  </g>
  <defs>
    <g id="sprite0" transform="matrix(1.0, 0.0, 0.0, 1.0, 0.0, 0.0)">
      <use ffdec:characterId="1" height="56.0" transform="matrix(1.0, 0.0, 0.0, 1.0, 0.0, 0.0)" width="56.0" xlink:href="#shape0"/>
    </g>
    <g id="shape0" transform="matrix(1.0, 0.0, 0.0, 1.0, 0.0, 0.0)">
      <path d="M56.0 56.0 L0.0 56.0 0.0 0.0 56.0 0.0 56.0 56.0" fill="#010101" fill-opacity="0.0" fill-rule="evenodd" stroke="none"/>
    </g>
    <g id="shape1" transform="matrix(1.0, 0.0, 0.0, 1.0, -4.25, -5.5)">
      <path d="M5.35 7.75 L4.75 7.05 4.85 6.85 5.05 6.55 5.35 6.3 5.7 6.05 Q9.1 8.35 11.2 12.0 L8.2 13.05 Q6.85 9.65 5.35 7.75 M33.1 46.45 Q28.65 48.3 23.85 48.8 18.55 49.4 14.5 46.4 10.7 43.55 8.25 39.4 5.7 35.0 5.7 30.0 5.65 25.55 6.95 21.25 7.9 17.95 8.35 14.5 L11.55 13.6 Q11.65 20.25 12.15 26.95 12.5 31.1 15.7 33.5 17.15 34.6 18.85 34.0 21.5 33.1 23.6 31.25 25.15 29.8 26.2 27.9 L27.5 25.55 28.65 29.25 28.0 22.0 30.5 21.15 Q30.4 26.5 31.95 31.55 L32.8 34.15 29.75 37.0 32.5 36.5 Q33.2 36.2 33.95 35.95 37.45 40.9 42.5 44.2 L44.45 45.4 44.4 45.7 44.3 45.9 44.2 46.1 44.1 46.25 43.9 46.4 43.75 46.5 43.5 46.6 43.25 46.65 Q39.9 45.2 37.35 42.55 L36.1 41.25 Q37.3 43.25 38.8 45.0 L33.1 46.45 M35.6 10.9 L35.9 9.7 Q36.3 8.55 37.1 7.7 L38.5 6.55 Q39.1 6.15 39.85 6.05 L42.3 6.2 Q43.5 6.55 44.5 7.4 L45.6 8.95 Q46.1 9.85 46.0 10.95 45.95 11.95 44.6 14.3 45.45 13.65 46.0 12.6 47.35 12.45 48.5 13.1 L50.3 14.25 51.3 15.4 52.05 17.05 52.3 18.95 52.05 20.85 Q51.5 22.75 50.0 24.05 48.9 24.95 47.6 25.05 L46.1 25.0 Q45.25 24.75 44.1 23.5 44.55 22.05 44.45 21.2 43.85 23.35 42.95 23.85 L41.2 24.45 39.6 24.3 Q38.45 24.05 37.6 23.3 L36.45 21.9 Q35.9 20.95 35.9 19.6 35.85 18.25 36.55 16.0 35.95 16.9 35.65 18.05 33.85 17.55 33.25 16.75 L32.85 15.75 Q32.6 15.25 32.75 14.65 L33.0 13.7 Q33.35 12.7 34.1 11.95 34.75 11.3 35.6 10.9 M32.6 22.75 Q34.3 24.05 36.2 26.75 L36.25 26.8 Q38.25 29.45 39.85 32.4 L42.1 36.85 42.75 38.05 44.0 41.45 44.3 43.35 44.25 44.8 42.55 43.55 Q32.2 35.65 31.15 23.5 L31.05 21.65 32.6 22.75 M31.7 43.4 Q24.9 46.4 17.95 44.05 24.9 46.4 31.7 43.4 M22.8 40.35 Q16.3 40.55 11.15 35.85 16.3 40.55 22.8 40.35" fill="#000000" fill-rule="evenodd" stroke="none"/>
      <path d="M5.35 7.75 Q6.85 9.65 8.2 13.05 L11.2 12.0 Q9.1 8.35 5.7 6.05 L5.35 6.3 5.05 6.55 4.85 6.85 4.75 7.05 5.35 7.75 M33.1 46.45 Q28.65 48.3 23.85 48.8 18.55 49.4 14.5 46.4 10.7 43.55 8.25 39.4 5.7 35.0 5.7 30.0 5.65 25.55 6.95 21.25 7.9 17.95 8.35 14.5 L11.55 13.6 Q11.65 20.25 12.15 26.95 12.5 31.1 15.7 33.5 17.15 34.6 18.85 34.0 21.5 33.1 23.6 31.25 25.15 29.8 26.2 27.9 L27.5 25.55 28.65 29.25 28.0 22.0 30.5 21.15 Q30.4 26.5 31.95 31.55 L32.8 34.15 29.75 37.0 32.5 36.5 Q33.2 36.2 33.95 35.95 37.45 40.9 42.5 44.2 L44.45 45.4 44.4 45.7 44.3 45.9 44.2 46.1 44.1 46.25 43.9 46.4 43.75 46.5 43.5 46.6 43.25 46.65 Q39.9 45.2 37.35 42.55 L36.1 41.25 Q37.3 43.25 38.8 45.0 L33.1 46.45 M35.6 10.9 Q34.75 11.3 34.1 11.95 33.35 12.7 33.0 13.7 L32.75 14.65 Q32.6 15.25 32.85 15.75 L33.25 16.75 Q33.85 17.55 35.65 18.05 35.95 16.9 36.55 16.0 35.85 18.25 35.9 19.6 35.9 20.95 36.45 21.9 L37.6 23.3 Q38.45 24.05 39.6 24.3 L41.2 24.45 42.95 23.85 Q43.85 23.35 44.45 21.2 44.55 22.05 44.1 23.5 45.25 24.75 46.1 25.0 L47.6 25.05 Q48.9 24.95 50.0 24.05 51.5 22.75 52.05 20.85 L52.3 18.95 52.05 17.05 51.3 15.4 50.3 14.25 48.5 13.1 Q47.35 12.45 46.0 12.6 45.45 13.65 44.6 14.3 45.95 11.95 46.0 10.95 46.1 9.85 45.6 8.95 L44.5 7.4 Q43.5 6.55 42.3 6.2 L39.85 6.05 Q39.1 6.15 38.5 6.55 L37.1 7.7 Q36.3 8.55 35.9 9.7 L35.6 10.9 M32.6 22.75 Q34.3 24.05 36.2 26.75 L36.25 26.8 Q38.25 29.45 39.85 32.4 L42.1 36.85 42.75 38.05 44.0 41.45 44.3 43.35 44.25 44.8 42.55 43.55 Q32.2 35.65 31.15 23.5 L31.05 21.65 32.6 22.75 M11.15 35.85 Q16.3 40.55 22.8 40.35 M17.95 44.05 Q24.9 46.4 31.7 43.4" fill="none" stroke="#000000" stroke-linecap="round" stroke-linejoin="round" stroke-opacity="0.2" stroke-width="1.0"/>
      <path d="M5.35 7.75 L4.75 7.05 4.85 6.85 5.05 6.55 5.35 6.3 5.7 6.05 Q9.1 8.35 11.2 12.0 L8.2 13.05 Q6.85 9.65 5.35 7.75 M33.1 46.45 Q28.65 48.3 23.85 48.8 18.55 49.4 14.5 46.4 10.7 43.55 8.25 39.4 5.7 35.0 5.7 30.0 5.65 25.55 6.95 21.25 7.9 17.95 8.35 14.5 L11.55 13.6 Q11.65 20.25 12.15 26.95 12.5 31.1 15.7 33.5 17.15 34.6 18.85 34.0 21.5 33.1 23.6 31.25 25.15 29.8 26.2 27.9 L27.5 25.55 28.65 29.25 28.0 22.0 30.5 21.15 Q30.4 26.5 31.95 31.55 L32.8 34.15 29.75 37.0 32.5 36.5 Q33.2 36.2 33.95 35.95 37.45 40.9 42.5 44.2 L44.45 45.4 44.4 45.7 44.3 45.9 44.2 46.1 44.1 46.25 43.9 46.4 43.75 46.5 43.5 46.6 43.25 46.65 Q39.9 45.2 37.35 42.55 L36.1 41.25 Q37.3 43.25 38.8 45.0 L33.1 46.45 M35.6 10.9 L35.9 9.7 Q36.3 8.55 37.1 7.7 L38.5 6.55 Q39.1 6.15 39.85 6.05 L42.3 6.2 Q43.5 6.55 44.5 7.4 L45.6 8.95 Q46.1 9.85 46.0 10.95 45.95 11.95 44.6 14.3 45.45 13.65 46.0 12.6 47.35 12.45 48.5 13.1 L50.3 14.25 51.3 15.4 52.05 17.05 52.3 18.95 52.05 20.85 Q51.5 22.75 50.0 24.05 48.9 24.95 47.6 25.05 L46.1 25.0 Q45.25 24.75 44.1 23.5 44.55 22.05 44.45 21.2 43.85 23.35 42.95 23.85 L41.2 24.45 39.6 24.3 Q38.45 24.05 37.6 23.3 L36.45 21.9 Q35.9 20.95 35.9 19.6 35.85 18.25 36.55 16.0 35.95 16.9 35.65 18.05 33.85 17.55 33.25 16.75 L32.85 15.75 Q32.6 15.25 32.75 14.65 L33.0 13.7 Q33.35 12.7 34.1 11.95 34.75 11.3 35.6 10.9 M32.6 22.75 Q34.3 24.05 36.2 26.75 L36.25 26.8 Q38.25 29.45 39.85 32.4 L42.1 36.85 42.75 38.05 44.0 41.45 44.3 43.35 44.25 44.8 42.55 43.55 Q32.2 35.65 31.15 23.5 L31.05 21.65 32.6 22.75 M31.7 43.4 Q24.9 46.4 17.95 44.05 24.9 46.4 31.7 43.4 M22.8 40.35 Q16.3 40.55 11.15 35.85 16.3 40.55 22.8 40.35" fill="#000000" fill-rule="evenodd" stroke="none"/>
      <path d="M11.15 35.85 Q16.3 40.55 22.8 40.35 M17.95 44.05 Q24.9 46.4 31.7 43.4" fill="none" stroke="#000000" stroke-linecap="round" stroke-linejoin="round" stroke-opacity="0.09803922" stroke-width="0.05"/>
    </g>
  </defs>
</svg>
