<?xml version="1.0" encoding="UTF-8" standalone="no"?>
<svg xmlns:ffdec="https://www.free-decompiler.com/flash" xmlns:xlink="http://www.w3.org/1999/xlink" ffdec:objectType="frame" height="56.0px" width="56.0px" xmlns="http://www.w3.org/2000/svg">
  <g transform="matrix(1.0, 0.0, 0.0, 1.0, 0.0, 0.0)">
    <use ffdec:characterId="2" height="56.0" id="back" transform="matrix(1.0, 0.0, 0.0, 1.0, 0.0, 0.0)" width="56.0" xlink:href="#sprite0"/>
    <use ffdec:characterId="3" height="42.4" transform="matrix(1.0, 0.0, 0.0, 1.0, 2.75, 7.0)" width="50.05" xlink:href="#shape1"/>
  </g>
  <defs>
    <g id="sprite0" transform="matrix(1.0, 0.0, 0.0, 1.0, 0.0, 0.0)">
      <use ffdec:characterId="1" height="56.0" transform="matrix(1.0, 0.0, 0.0, 1.0, 0.0, 0.0)" width="56.0" xlink:href="#shape0"/>
    </g>
    <g id="shape0" transform="matrix(1.0, 0.0, 0.0, 1.0, 0.0, 0.0)">
      <path d="M56.0 56.0 L0.0 56.0 0.0 0.0 56.0 0.0 56.0 56.0" fill="#010101" fill-opacity="0.0" fill-rule="evenodd" stroke="none"/>
    </g>
    <g id="shape1" transform="matrix(1.0, 0.0, 0.0, 1.0, -2.75, -7.0)">
      <path d="M48.45 17.1 L47.4 16.5 Q46.3 15.85 45.3 16.05 L45.25 16.05 44.4 15.8 Q41.95 15.35 39.75 16.4 38.95 16.75 38.2 17.35 35.35 19.7 34.85 23.5 34.6 25.7 35.0 27.65 35.35 29.5 36.3 31.1 38.4 34.5 41.8 35.25 45.15 36.25 48.0 33.85 L49.3 32.6 Q50.95 30.6 51.4 27.5 51.65 25.5 51.25 23.6 L51.25 23.5 Q51.35 21.45 50.4 19.55 L50.5 19.7 Q51.45 21.2 51.9 22.85 52.55 25.2 52.2 27.75 51.7 31.45 49.55 33.7 L49.5 33.7 49.5 33.75 Q49.9 37.0 48.7 40.45 L47.1 43.4 Q43.05 49.6 27.8 48.8 L27.7 48.8 Q12.45 49.6 8.45 43.4 7.25 41.6 6.85 40.45 5.65 37.0 6.05 33.75 L6.05 33.7 5.95 33.7 Q3.85 31.45 3.35 27.75 3.0 25.2 3.65 22.85 4.1 21.25 5.0 19.8 4.2 21.6 4.3 23.5 L4.3 23.6 Q3.85 25.5 4.15 27.5 4.55 30.6 6.2 32.6 L7.55 33.85 Q10.35 36.25 13.75 35.25 17.1 34.5 19.25 31.1 20.15 29.5 20.5 27.65 20.95 25.7 20.7 23.5 20.15 19.7 17.35 17.35 L15.75 16.4 Q13.55 15.35 11.1 15.8 L10.3 16.05 10.25 16.05 Q9.2 15.85 8.1 16.5 7.55 16.7 7.05 17.1 8.75 15.5 11.0 14.85 14.0 14.3 16.65 15.8 L16.65 15.85 16.7 15.85 Q19.35 14.3 22.1 13.5 L22.1 13.45 22.1 13.4 22.15 13.4 21.55 12.6 Q20.45 10.6 21.2 9.15 22.3 7.05 23.4 7.65 24.25 7.85 24.95 10.95 L25.4 12.75 25.4 12.8 25.5 13.05 25.5 12.8 27.7 12.7 27.8 12.7 30.05 12.8 30.0 13.05 30.1 12.85 30.1 12.75 30.55 10.95 Q31.3 7.85 32.1 7.65 33.25 7.05 34.3 9.15 35.05 10.6 33.95 12.6 L33.4 13.4 33.45 13.4 33.4 13.45 33.45 13.45 33.45 13.5 Q36.2 14.3 38.85 15.85 L38.85 15.8 Q41.5 14.3 44.5 14.85 46.8 15.5 48.45 17.1 M42.55 21.1 L42.55 19.85 Q42.95 17.5 44.3 16.55 L45.3 16.15 Q46.3 15.95 47.4 16.55 L48.7 17.35 50.15 19.25 50.35 19.55 Q51.3 21.45 51.15 23.5 L51.15 24.1 Q50.95 26.2 49.5 27.15 L49.45 27.15 Q48.15 28.05 46.3 27.4 44.8 26.55 43.8 24.9 L44.85 24.75 Q45.35 24.4 45.45 23.6 45.55 22.65 45.1 21.9 44.75 21.0 44.05 20.75 43.45 20.4 42.85 20.75 L42.55 21.1 M11.7 24.9 Q10.7 26.55 9.2 27.4 7.4 28.05 6.05 27.15 4.55 26.2 4.4 24.1 L4.35 23.5 Q4.25 21.45 5.2 19.55 L5.35 19.25 Q6.0 18.2 6.8 17.35 L8.15 16.55 Q9.2 15.95 10.25 16.15 L11.25 16.55 Q12.55 17.5 12.95 19.85 L13.0 21.1 12.65 20.75 Q12.1 20.4 11.45 20.75 10.8 21.0 10.4 21.9 10.0 22.65 10.1 23.6 10.15 24.4 10.7 24.75 L11.7 24.9 M27.65 37.9 L27.7 37.9 27.8 37.9 27.85 37.9 29.9 37.55 31.35 36.0 Q32.2 34.8 32.45 35.7 L31.6 37.0 30.3 38.1 27.9 38.5 27.8 38.5 27.7 38.5 27.65 38.5 25.25 38.1 23.95 37.0 23.1 35.7 Q23.3 34.8 24.15 36.0 L25.6 37.55 27.65 37.9 M27.8 34.5 L27.7 34.5 Q26.3 34.4 25.65 33.5 24.9 32.4 24.4 32.25 23.45 31.9 22.35 33.25 20.85 35.25 21.5 37.35 22.15 39.25 24.0 40.75 25.25 41.75 27.7 41.85 L27.8 41.85 Q30.3 41.75 31.5 40.75 33.35 39.25 34.0 37.35 34.7 35.25 33.2 33.25 32.1 31.9 31.1 32.25 30.65 32.4 29.85 33.5 29.2 34.4 27.8 34.5" fill="#000000" fill-rule="evenodd" stroke="none"/>
      <path d="M38.85 15.8 L38.85 15.85 Q36.2 14.3 33.45 13.5 L33.45 13.45 33.45 13.4 Q36.25 14.2 38.85 15.8 M30.1 12.75 L30.1 12.85 30.05 12.85 30.05 12.8 27.8 12.7 27.7 12.7 25.5 12.8 25.45 12.85 25.5 13.05 25.4 12.8 25.4 12.75 25.45 12.75 27.7 12.6 27.8 12.6 30.05 12.75 30.1 12.75 M22.1 13.45 L22.1 13.5 Q19.35 14.3 16.7 15.85 L16.65 15.85 16.65 15.8 Q19.3 14.2 22.05 13.4 L22.1 13.45 M5.95 33.7 L6.05 33.7 6.05 33.75 Q5.65 37.0 6.85 40.45 5.55 37.0 5.95 33.75 L5.95 33.7 M48.7 40.45 Q49.9 37.0 49.5 33.75 L49.5 33.7 49.55 33.7 49.55 33.75 Q50.0 37.0 48.7 40.45" fill="#000000" fill-opacity="0.3019608" fill-rule="evenodd" stroke="none"/>
      <path d="M45.25 16.05 L45.3 16.05 Q46.3 15.85 47.4 16.5 L48.45 17.1 48.75 17.3 50.25 19.2 50.4 19.5 50.4 19.55 Q51.35 21.45 51.25 23.5 L51.25 23.6 51.2 24.1 Q51.0 26.25 49.5 27.2 48.15 28.15 46.3 27.45 44.75 26.6 43.75 24.9 L43.75 24.85 43.8 24.85 43.8 24.9 Q44.8 26.55 46.3 27.4 48.15 28.05 49.45 27.15 L49.5 27.15 Q50.95 26.2 51.15 24.1 L51.15 23.5 Q51.3 21.45 50.35 19.55 L50.15 19.25 48.7 17.35 47.4 16.55 Q46.3 15.95 45.3 16.15 L44.3 16.55 Q42.95 17.5 42.55 19.85 L42.55 21.1 42.55 21.15 42.45 21.15 Q42.4 20.5 42.5 19.85 42.9 17.45 44.25 16.5 44.75 16.2 45.25 16.05 M33.45 13.4 L33.4 13.4 33.95 12.6 Q35.05 10.6 34.3 9.15 33.25 7.05 32.1 7.65 31.3 7.85 30.55 10.95 L30.1 12.75 30.05 12.75 30.5 10.9 30.5 10.95 Q31.2 7.75 32.1 7.55 33.25 6.95 34.35 9.1 35.15 10.6 34.0 12.65 L33.45 13.4 M30.1 12.85 L30.0 13.05 30.05 12.8 30.05 12.85 30.1 12.85 M25.5 12.8 L25.5 13.05 25.45 12.85 25.5 12.8 M25.4 12.75 L24.95 10.95 Q24.25 7.85 23.4 7.65 22.3 7.05 21.2 9.15 20.45 10.6 21.55 12.6 L22.15 13.4 22.1 13.4 22.05 13.4 21.5 12.65 Q20.4 10.6 21.15 9.1 22.25 6.95 23.45 7.55 24.3 7.75 25.05 10.95 L25.05 10.9 25.45 12.75 25.4 12.75 M27.8 34.5 Q29.2 34.4 29.85 33.5 30.65 32.4 31.1 32.25 32.1 31.9 33.2 33.25 34.7 35.25 34.0 37.35 33.35 39.25 31.5 40.75 30.3 41.75 27.8 41.85 L27.7 41.85 Q25.25 41.75 24.0 40.75 22.15 39.25 21.5 37.35 20.85 35.25 22.35 33.25 23.45 31.9 24.4 32.25 24.9 32.4 25.65 33.5 26.3 34.4 27.7 34.5 L27.8 34.5 M27.8 41.75 Q30.25 41.7 31.45 40.65 33.3 39.2 33.95 37.3 34.6 35.25 33.1 33.3 32.05 32.0 31.1 32.3 30.65 32.45 29.9 33.55 29.25 34.45 27.8 34.6 L27.7 34.6 Q26.3 34.45 25.6 33.55 24.85 32.45 24.4 32.3 23.45 32.0 22.4 33.3 20.9 35.25 21.6 37.3 22.2 39.2 24.05 40.65 25.3 41.7 27.7 41.75 L27.8 41.75" fill="#000000" fill-opacity="0.29803923" fill-rule="evenodd" stroke="none"/>
      <path d="M45.25 16.05 L45.3 16.05 Q46.3 15.85 47.4 16.5 L48.45 17.1 Q46.8 15.5 44.5 14.85 41.5 14.3 38.85 15.8 L38.85 15.85 Q36.2 14.3 33.45 13.5 L33.45 13.45 33.4 13.45 33.45 13.4 33.4 13.4 33.95 12.6 Q35.05 10.6 34.3 9.15 33.25 7.05 32.1 7.65 31.3 7.85 30.55 10.95 L30.1 12.75 30.1 12.85 30.0 13.05 30.05 12.8 27.8 12.7 27.7 12.7 25.5 12.8 25.5 13.05 25.4 12.8 25.4 12.75 24.95 10.95 Q24.25 7.85 23.4 7.65 22.3 7.05 21.2 9.15 20.45 10.6 21.55 12.6 L22.15 13.4 22.1 13.4 22.1 13.45 22.1 13.5 Q19.35 14.3 16.7 15.85 L16.65 15.85 16.65 15.8 Q14.0 14.3 11.0 14.85 8.75 15.5 7.05 17.1 7.55 16.7 8.1 16.5 9.2 15.85 10.25 16.05 L10.3 16.05 11.1 15.8 Q13.55 15.35 15.75 16.4 L17.35 17.35 Q20.15 19.7 20.7 23.5 20.95 25.7 20.5 27.65 20.15 29.5 19.25 31.1 17.1 34.5 13.75 35.25 10.35 36.25 7.55 33.85 L6.2 32.6 Q4.55 30.6 4.15 27.5 3.85 25.5 4.3 23.6 L4.3 23.5 Q4.2 21.6 5.0 19.8 4.1 21.25 3.65 22.85 3.0 25.2 3.35 27.75 3.85 31.45 5.95 33.7 L6.05 33.7 6.05 33.75 Q5.65 37.0 6.85 40.45 7.25 41.6 8.45 43.4 12.45 49.6 27.7 48.8 L27.8 48.8 Q43.05 49.6 47.1 43.4 L48.7 40.45 Q49.9 37.0 49.5 33.75 L49.5 33.7 49.55 33.7 Q51.7 31.45 52.2 27.75 52.55 25.2 51.9 22.85 51.45 21.2 50.5 19.7 L50.4 19.55 Q51.35 21.45 51.25 23.5 L51.25 23.6 Q51.65 25.5 51.4 27.5 50.95 30.6 49.3 32.6 L48.0 33.85 Q45.15 36.25 41.8 35.25 38.4 34.5 36.3 31.1 35.35 29.5 35.0 27.65 34.6 25.7 34.85 23.5 35.35 19.7 38.2 17.35 38.95 16.75 39.75 16.4 41.95 15.35 44.4 15.8 L45.25 16.05 M42.55 21.1 L42.55 19.85 Q42.95 17.5 44.3 16.55 L45.3 16.15 Q46.3 15.95 47.4 16.55 L48.7 17.35 50.15 19.25 50.35 19.55 Q51.3 21.45 51.15 23.5 L51.15 24.1 Q50.95 26.2 49.5 27.15 L49.45 27.15 Q48.15 28.05 46.3 27.4 44.8 26.55 43.8 24.9 L44.85 24.75 Q45.35 24.4 45.45 23.6 45.55 22.65 45.1 21.9 44.75 21.0 44.05 20.75 43.45 20.4 42.85 20.75 L42.55 21.1 M11.7 24.9 Q10.7 26.55 9.2 27.4 7.4 28.05 6.05 27.15 4.55 26.2 4.4 24.1 L4.35 23.5 Q4.25 21.45 5.2 19.55 L5.35 19.25 Q6.0 18.2 6.8 17.35 L8.15 16.55 Q9.2 15.95 10.25 16.15 L11.25 16.55 Q12.55 17.5 12.95 19.85 L13.0 21.1 12.65 20.75 Q12.1 20.4 11.45 20.75 10.8 21.0 10.4 21.9 10.0 22.65 10.1 23.6 10.15 24.4 10.7 24.75 L11.7 24.9 M27.65 37.9 L25.6 37.55 24.15 36.0 Q23.3 34.8 23.1 35.7 L23.95 37.0 25.25 38.1 27.65 38.5 27.7 38.5 27.8 38.5 27.9 38.5 30.3 38.1 31.6 37.0 32.45 35.7 Q32.2 34.8 31.35 36.0 L29.9 37.55 27.85 37.9 27.8 37.9 27.7 37.9 27.65 37.9 M27.8 34.5 L27.7 34.5 Q26.3 34.4 25.65 33.5 24.9 32.4 24.4 32.25 23.45 31.9 22.35 33.25 20.85 35.25 21.5 37.35 22.15 39.25 24.0 40.75 25.25 41.75 27.7 41.85 L27.8 41.85 Q30.3 41.75 31.5 40.75 33.35 39.25 34.0 37.35 34.7 35.25 33.2 33.25 32.1 31.9 31.1 32.25 30.65 32.4 29.85 33.5 29.2 34.4 27.8 34.5 M27.8 41.75 L27.7 41.75 Q25.3 41.7 24.05 40.65 22.2 39.2 21.6 37.3 20.9 35.25 22.4 33.3 23.45 32.0 24.4 32.3 24.85 32.45 25.6 33.55 26.3 34.45 27.7 34.6 L27.8 34.6 Q29.25 34.45 29.9 33.55 30.65 32.45 31.1 32.3 32.05 32.0 33.1 33.3 34.6 35.25 33.95 37.3 33.3 39.2 31.45 40.65 30.25 41.7 27.8 41.75 Z" fill="none" stroke="#000000" stroke-linecap="round" stroke-linejoin="round" stroke-opacity="0.2" stroke-width="1.0"/>
      <path d="M11.7 24.9 Q10.7 26.55 9.2 27.4 7.4 28.05 6.05 27.15 4.55 26.2 4.4 24.1 L4.35 23.5 Q4.25 21.45 5.2 19.55 L5.35 19.25 Q6.0 18.2 6.8 17.35 L8.15 16.55 Q9.2 15.95 10.25 16.15 L11.25 16.55 Q12.55 17.5 12.95 19.85 L13.0 21.1 12.65 20.75 Q12.1 20.4 11.45 20.75 10.8 21.0 10.4 21.9 10.0 22.65 10.1 23.6 10.15 24.4 10.7 24.75 L11.7 24.9 M5.95 33.7 Q3.85 31.45 3.35 27.75 3.0 25.2 3.65 22.85 4.1 21.25 5.0 19.8 4.2 21.6 4.3 23.5 L4.3 23.6 Q3.85 25.5 4.15 27.5 4.55 30.6 6.2 32.6 L7.55 33.85 Q10.35 36.25 13.75 35.25 17.1 34.5 19.25 31.1 20.15 29.5 20.5 27.65 20.95 25.7 20.7 23.5 20.15 19.7 17.35 17.35 L15.75 16.4 Q13.55 15.35 11.1 15.8 L10.3 16.05 10.25 16.05 Q9.2 15.85 8.1 16.5 7.55 16.7 7.05 17.1 8.75 15.5 11.0 14.85 14.0 14.3 16.65 15.8 L16.65 15.85 16.7 15.85 Q19.35 14.3 22.1 13.5 L22.1 13.45 22.1 13.4 22.15 13.4 21.55 12.6 Q20.45 10.6 21.2 9.15 22.3 7.05 23.4 7.65 24.25 7.85 24.95 10.95 L25.4 12.75 25.4 12.8 25.5 13.05 25.5 12.8 27.7 12.7 27.8 12.7 30.05 12.8 30.0 13.05 30.1 12.85 30.1 12.8 30.1 12.75 30.55 10.95 Q31.3 7.85 32.1 7.65 33.25 7.05 34.3 9.15 35.05 10.6 33.95 12.6 L33.4 13.4 33.45 13.4 33.4 13.45 33.45 13.45 33.45 13.5 Q36.2 14.3 38.85 15.85 L38.85 15.8 Q41.5 14.3 44.5 14.85 46.8 15.5 48.45 17.1 L47.4 16.5 Q46.3 15.85 45.3 16.05 L45.25 16.05 44.4 15.8 Q41.95 15.35 39.75 16.4 38.95 16.75 38.2 17.35 35.35 19.7 34.85 23.5 34.6 25.7 35.0 27.65 35.35 29.5 36.3 31.1 38.4 34.5 41.8 35.25 45.15 36.25 48.0 33.85 L49.3 32.6 Q50.95 30.6 51.4 27.5 51.65 25.5 51.25 23.6 L51.25 23.5 Q51.35 21.45 50.4 19.55 L50.5 19.7 Q51.45 21.2 51.9 22.85 52.55 25.2 52.2 27.75 51.7 31.45 49.55 33.7 L49.5 33.7 49.5 33.75 Q49.9 37.0 48.7 40.45 L47.1 43.4 Q43.05 49.6 27.8 48.8 L27.7 48.8 Q12.45 49.6 8.45 43.4 7.25 41.6 6.85 40.45 5.65 37.0 6.05 33.75 L6.05 33.7 5.95 33.7 M42.55 21.1 L42.55 19.85 Q42.95 17.5 44.3 16.55 L45.3 16.15 Q46.3 15.95 47.4 16.55 L48.7 17.35 50.15 19.25 50.35 19.55 Q51.3 21.45 51.15 23.5 L51.15 24.1 Q50.95 26.2 49.5 27.15 L49.45 27.15 Q48.15 28.05 46.3 27.4 44.8 26.55 43.8 24.9 L44.85 24.75 Q45.35 24.4 45.45 23.6 45.55 22.65 45.1 21.9 44.75 21.0 44.05 20.75 43.45 20.4 42.85 20.75 L42.55 21.1 M27.8 34.5 L27.7 34.5 Q26.3 34.4 25.65 33.5 24.9 32.4 24.4 32.25 23.45 31.9 22.35 33.25 20.85 35.25 21.5 37.35 22.15 39.25 24.0 40.75 25.25 41.75 27.7 41.85 L27.8 41.85 Q30.3 41.75 31.5 40.75 33.35 39.25 34.0 37.35 34.7 35.25 33.2 33.25 32.1 31.9 31.1 32.25 30.65 32.4 29.85 33.5 29.2 34.4 27.8 34.5 M27.65 37.9 L27.7 37.9 27.8 37.9 27.85 37.9 29.9 37.55 31.35 36.0 Q32.2 34.8 32.45 35.7 L31.6 37.0 30.3 38.1 27.9 38.5 27.8 38.5 27.7 38.5 27.65 38.5 25.25 38.1 23.95 37.0 23.1 35.7 Q23.3 34.8 24.15 36.0 L25.6 37.55 27.65 37.9" fill="#000000" fill-rule="evenodd" stroke="none"/>
      <path d="M16.65 15.8 Q19.3 14.2 22.05 13.4 L22.1 13.45 22.1 13.5 Q19.35 14.3 16.7 15.85 L16.65 15.85 16.65 15.8 M25.45 12.75 L27.7 12.6 27.8 12.6 30.05 12.75 30.1 12.75 30.1 12.8 30.1 12.85 30.05 12.85 30.05 12.8 27.8 12.7 27.7 12.7 25.5 12.8 25.45 12.85 25.5 13.05 25.4 12.8 25.4 12.75 25.45 12.75 M33.45 13.4 Q36.25 14.2 38.85 15.8 L38.85 15.85 Q36.2 14.3 33.45 13.5 L33.45 13.45 33.45 13.4 M49.55 33.7 L49.55 33.75 Q50.0 37.0 48.7 40.45 49.9 37.0 49.5 33.75 L49.5 33.7 49.55 33.7 M6.85 40.45 Q5.55 37.0 5.95 33.75 L5.95 33.7 6.05 33.7 6.05 33.75 Q5.65 37.0 6.85 40.45" fill="#000000" fill-opacity="0.3019608" fill-rule="evenodd" stroke="none"/>
      <path d="M22.05 13.4 L21.5 12.65 Q20.4 10.6 21.15 9.1 22.25 6.95 23.45 7.55 24.3 7.75 25.05 10.95 L25.05 10.9 25.45 12.75 25.4 12.75 24.95 10.95 Q24.25 7.85 23.4 7.65 22.3 7.05 21.2 9.15 20.45 10.6 21.55 12.6 L22.15 13.4 22.1 13.4 22.05 13.4 M30.05 12.75 L30.5 10.9 30.5 10.95 Q31.2 7.75 32.1 7.55 33.25 6.95 34.35 9.1 35.15 10.6 34.0 12.65 L33.45 13.4 33.4 13.4 33.95 12.6 Q35.05 10.6 34.3 9.15 33.25 7.05 32.1 7.65 31.3 7.85 30.55 10.95 L30.1 12.75 30.05 12.75 M48.45 17.1 L48.75 17.3 50.25 19.2 50.4 19.5 50.4 19.55 Q51.35 21.45 51.25 23.5 L51.25 23.6 51.2 24.1 Q51.0 26.25 49.5 27.2 48.15 28.15 46.3 27.45 44.75 26.6 43.75 24.9 L43.75 24.85 43.8 24.85 43.8 24.9 Q44.8 26.55 46.3 27.4 48.15 28.05 49.45 27.15 L49.5 27.15 Q50.95 26.2 51.15 24.1 L51.15 23.5 Q51.3 21.45 50.35 19.55 L50.15 19.25 48.7 17.35 47.4 16.55 Q46.3 15.95 45.3 16.15 L44.3 16.55 Q42.95 17.5 42.55 19.85 L42.55 21.1 42.55 21.15 42.45 21.15 Q42.4 20.5 42.5 19.85 42.9 17.45 44.25 16.5 44.75 16.2 45.25 16.05 L45.3 16.05 Q46.3 15.85 47.4 16.5 L48.45 17.1 M30.1 12.85 L30.0 13.05 30.05 12.8 30.05 12.85 30.1 12.85 M25.5 12.8 L25.5 13.05 25.45 12.85 25.5 12.8 M27.8 41.75 Q30.25 41.7 31.45 40.65 33.3 39.2 33.95 37.3 34.6 35.25 33.1 33.3 32.05 32.0 31.1 32.3 30.65 32.45 29.9 33.55 29.25 34.45 27.8 34.6 L27.7 34.6 Q26.3 34.45 25.6 33.55 24.85 32.45 24.4 32.3 23.45 32.0 22.4 33.3 20.9 35.25 21.6 37.3 22.2 39.2 24.05 40.65 25.3 41.7 27.7 41.75 L27.8 41.75 M27.8 34.5 Q29.2 34.4 29.85 33.5 30.65 32.4 31.1 32.25 32.1 31.9 33.2 33.25 34.7 35.25 34.0 37.35 33.35 39.25 31.5 40.75 30.3 41.75 27.8 41.85 L27.7 41.85 Q25.25 41.75 24.0 40.75 22.15 39.25 21.5 37.35 20.85 35.25 22.35 33.25 23.45 31.9 24.4 32.25 24.9 32.4 25.65 33.5 26.3 34.4 27.7 34.5 L27.8 34.5" fill="#000000" fill-opacity="0.29803923" fill-rule="evenodd" stroke="none"/>
    </g>
  </defs>
</svg>
