<?xml version="1.0" encoding="UTF-8" standalone="no"?>
<svg xmlns:ffdec="https://www.free-decompiler.com/flash" xmlns:xlink="http://www.w3.org/1999/xlink" ffdec:objectType="frame" height="56.0px" width="56.0px" xmlns="http://www.w3.org/2000/svg">
  <g transform="matrix(1.0, 0.0, 0.0, 1.0, 0.0, 0.0)">
    <use ffdec:characterId="2" height="56.0" id="back" transform="matrix(1.0, 0.0, 0.0, 1.0, 0.0, 0.0)" width="56.0" xlink:href="#sprite0"/>
    <use ffdec:characterId="3" height="50.65" transform="matrix(1.0, 0.0, 0.0, 1.0, 6.3, 2.2)" width="44.05" xlink:href="#shape1"/>
  </g>
  <defs>
    <g id="sprite0" transform="matrix(1.0, 0.0, 0.0, 1.0, 0.0, 0.0)">
      <use ffdec:characterId="1" height="56.0" transform="matrix(1.0, 0.0, 0.0, 1.0, 0.0, 0.0)" width="56.0" xlink:href="#shape0"/>
    </g>
    <g id="shape0" transform="matrix(1.0, 0.0, 0.0, 1.0, 0.0, 0.0)">
      <path d="M56.0 56.0 L0.0 56.0 0.0 0.0 56.0 0.0 56.0 56.0" fill="#010101" fill-opacity="0.0" fill-rule="evenodd" stroke="none"/>
    </g>
    <g id="shape1" transform="matrix(1.0, 0.0, 0.0, 1.0, -6.3, -2.2)">
      <path d="M13.05 46.1 Q8.7 41.7 7.4 36.05 6.8 33.6 6.8 30.95 6.8 27.1 8.0 23.7 9.35 19.85 12.3 16.6 L12.7 16.2 13.05 15.8 14.65 14.35 14.3 14.0 Q13.1 12.65 12.05 10.95 11.0 9.25 11.2 7.35 11.25 6.05 12.1 4.85 12.95 3.7 14.7 3.0 16.4 2.25 17.85 3.3 19.3 4.35 19.9 6.45 L20.75 9.95 20.85 10.75 Q24.3 9.55 28.2 9.55 L28.3 9.55 28.35 9.55 28.45 9.55 Q32.4 9.55 35.85 10.75 L35.9 9.95 Q36.15 8.5 36.75 6.45 37.35 4.35 38.8 3.3 40.25 2.25 41.95 3.0 43.7 3.7 44.55 4.85 45.4 6.05 45.5 7.35 45.7 9.25 44.65 10.95 L42.4 14.0 42.0 14.35 Q42.85 15.0 43.6 15.8 L43.95 16.2 44.4 16.6 Q47.3 19.85 48.65 23.7 49.85 27.1 49.85 30.95 49.85 33.6 49.3 36.05 48.0 41.7 43.6 46.1 37.3 52.35 28.45 52.35 L28.2 52.35 27.85 52.35 Q19.2 52.2 13.05 46.1 M28.85 12.0 L28.5 11.95 28.4 11.95 28.25 11.95 27.85 12.0 27.85 11.95 Q24.0 12.05 20.75 13.45 L19.95 14.75 Q19.15 15.6 17.25 15.45 L16.3 16.2 40.35 16.2 39.4 15.45 Q37.5 15.6 36.7 14.75 36.15 14.2 35.95 13.45 32.7 12.05 28.85 11.95 L28.85 12.0 M26.75 27.7 Q26.8 30.25 25.05 31.9 23.35 33.55 19.65 33.5 15.95 33.45 14.35 32.4 12.7 31.3 12.4 28.95 12.2 27.2 13.15 25.4 L10.35 24.55 Q9.25 27.5 9.25 30.95 9.25 33.3 9.75 35.5 10.95 40.5 14.85 44.35 20.25 49.75 27.85 49.9 L28.25 49.9 28.4 49.9 28.5 49.9 28.85 49.9 Q36.45 49.75 41.85 44.35 45.75 40.5 46.9 35.5 47.4 33.3 47.4 30.95 47.4 27.5 46.35 24.55 L43.5 25.4 Q44.45 27.2 44.25 28.95 43.95 31.3 42.35 32.4 40.7 33.45 37.0 33.5 33.35 33.55 31.6 31.9 29.85 30.25 29.9 27.7 L29.95 27.3 28.85 27.3 28.1 27.3 27.85 27.3 26.75 27.3 26.75 27.7 M33.15 27.55 L33.2 27.15 31.6 27.25 31.6 27.55 Q31.55 29.25 32.75 30.5 33.95 31.7 35.75 31.75 37.55 31.75 38.85 30.55 40.2 29.35 40.3 27.65 L40.05 26.2 38.5 26.5 38.7 27.6 Q38.65 28.7 37.8 29.45 36.95 30.25 35.85 30.25 34.7 30.2 33.9 29.4 33.15 28.65 33.15 27.55 M38.55 43.3 L38.75 43.15 Q43.25 40.35 43.25 36.4 L43.2 35.65 42.65 36.0 38.55 43.3 32.65 41.1 28.4 46.0 32.45 45.25 Q36.85 44.3 38.55 43.3 M28.85 47.35 L28.35 47.35 27.85 47.35 Q21.65 47.1 17.2 44.05 12.4 40.8 12.4 36.2 L12.45 34.9 12.6 33.9 12.7 33.95 Q19.15 38.15 28.1 38.3 L28.35 38.3 28.85 38.3 Q37.6 38.1 43.95 33.95 L44.05 33.9 44.2 34.9 44.3 36.2 Q44.3 40.8 39.45 44.05 35.0 47.1 28.85 47.35 M28.85 40.25 L28.35 40.25 27.85 40.25 24.15 39.9 Q19.6 39.2 15.8 37.1 L18.7 41.45 24.15 39.95 28.35 44.3 32.5 39.95 38.0 41.45 40.9 37.1 Q37.05 39.2 32.5 39.9 L28.85 40.25 M30.6 34.6 Q30.6 35.05 29.9 35.35 L28.35 35.65 26.75 35.35 Q26.1 35.05 26.1 34.6 26.1 34.15 26.75 33.8 L28.35 33.5 29.9 33.8 Q30.6 34.15 30.6 34.6 M23.5 27.55 Q23.55 28.65 22.75 29.4 22.0 30.2 20.85 30.25 19.7 30.25 18.85 29.45 18.0 28.7 17.95 27.6 17.95 27.0 18.2 26.5 L16.6 26.2 Q16.35 26.9 16.4 27.65 16.45 29.35 17.8 30.55 19.15 31.75 20.9 31.75 22.75 31.7 23.9 30.5 25.15 29.25 25.05 27.55 L25.05 27.25 23.45 27.15 23.5 27.55 M28.3 46.0 L24.05 41.1 18.15 43.3 Q22.35 45.85 28.3 46.0 L28.4 46.0 28.35 45.95 28.3 46.0 M17.95 43.15 L18.0 43.2 14.0 36.0 13.45 35.65 13.45 36.4 Q13.45 40.35 17.95 43.15" fill="#000000" fill-rule="evenodd" stroke="none"/>
      <path d="M13.05 46.1 Q8.7 41.7 7.4 36.05 6.8 33.6 6.8 30.95 6.8 27.1 8.0 23.7 9.35 19.85 12.3 16.6 L12.7 16.2 13.05 15.8 14.65 14.35 14.3 14.0 Q13.1 12.65 12.05 10.95 11.0 9.25 11.2 7.35 11.25 6.05 12.1 4.85 12.95 3.7 14.7 3.0 16.4 2.25 17.85 3.3 19.3 4.35 19.9 6.45 L20.75 9.95 20.85 10.75 Q24.3 9.55 28.2 9.55 L28.3 9.55 28.35 9.55 28.45 9.55 Q32.4 9.55 35.85 10.75 L35.9 9.95 Q36.15 8.5 36.75 6.45 37.35 4.35 38.8 3.3 40.25 2.25 41.95 3.0 43.7 3.7 44.55 4.85 45.4 6.05 45.5 7.35 45.7 9.25 44.65 10.95 L42.4 14.0 42.0 14.35 Q42.85 15.0 43.6 15.8 L43.95 16.2 44.4 16.6 Q47.3 19.85 48.65 23.7 49.85 27.1 49.85 30.95 49.85 33.6 49.3 36.05 48.0 41.7 43.6 46.1 37.3 52.35 28.45 52.35 L28.2 52.35 27.85 52.35 Q19.2 52.2 13.05 46.1 M28.85 12.0 L28.5 11.95 28.4 11.95 28.25 11.95 27.85 12.0 27.85 11.95 Q24.0 12.05 20.75 13.45 L19.95 14.75 Q19.15 15.6 17.25 15.45 L16.3 16.2 40.35 16.2 39.4 15.45 Q37.5 15.6 36.7 14.75 36.15 14.2 35.95 13.45 32.7 12.05 28.85 11.95 L28.85 12.0 M26.75 27.7 Q26.8 30.25 25.05 31.9 23.35 33.55 19.65 33.5 15.95 33.45 14.35 32.4 12.7 31.3 12.4 28.95 12.2 27.2 13.15 25.4 L10.35 24.55 Q9.25 27.5 9.25 30.95 9.25 33.3 9.75 35.5 10.95 40.5 14.85 44.35 20.25 49.75 27.85 49.9 L28.25 49.9 28.4 49.9 28.5 49.9 28.85 49.9 Q36.45 49.75 41.85 44.35 45.75 40.5 46.9 35.5 47.4 33.3 47.4 30.95 47.4 27.5 46.35 24.55 L43.5 25.4 Q44.45 27.2 44.25 28.95 43.95 31.3 42.35 32.4 40.7 33.45 37.0 33.5 33.35 33.55 31.6 31.9 29.85 30.25 29.9 27.7 L29.95 27.3 28.85 27.3 28.1 27.3 27.85 27.3 26.75 27.3 26.75 27.7 M33.15 27.55 Q33.15 28.65 33.9 29.4 34.7 30.2 35.85 30.25 36.95 30.25 37.8 29.45 38.65 28.7 38.7 27.6 L38.5 26.5 40.05 26.2 40.3 27.65 Q40.2 29.35 38.85 30.55 37.55 31.75 35.75 31.75 33.95 31.7 32.75 30.5 31.55 29.25 31.6 27.55 L31.6 27.25 33.2 27.15 33.15 27.55 M38.55 43.3 L38.75 43.15 Q43.25 40.35 43.25 36.4 L43.2 35.65 42.65 36.0 38.55 43.3 32.65 41.1 28.4 46.0 32.45 45.25 Q36.85 44.3 38.55 43.3 M28.85 47.35 L28.35 47.35 27.85 47.35 Q21.65 47.1 17.2 44.05 12.4 40.8 12.4 36.2 L12.45 34.9 12.6 33.9 12.7 33.95 Q19.15 38.15 28.1 38.3 L28.35 38.3 28.85 38.3 Q37.6 38.1 43.95 33.95 L44.05 33.9 44.2 34.9 44.3 36.2 Q44.3 40.8 39.45 44.05 35.0 47.1 28.85 47.35 M28.85 40.25 L28.35 40.25 27.85 40.25 24.15 39.9 Q19.6 39.2 15.8 37.1 L18.7 41.45 24.15 39.95 28.35 44.3 32.5 39.95 38.0 41.45 40.9 37.1 Q37.05 39.2 32.5 39.9 L28.85 40.25 M30.6 34.6 Q30.6 35.05 29.9 35.35 L28.35 35.65 26.75 35.35 Q26.1 35.05 26.1 34.6 26.1 34.15 26.75 33.8 L28.35 33.5 29.9 33.8 Q30.6 34.15 30.6 34.6 M23.5 27.55 Q23.55 28.65 22.75 29.4 22.0 30.2 20.85 30.25 19.7 30.25 18.85 29.45 18.0 28.7 17.95 27.6 17.95 27.0 18.2 26.5 L16.6 26.2 Q16.35 26.9 16.4 27.65 16.45 29.35 17.8 30.55 19.15 31.75 20.9 31.75 22.75 31.7 23.9 30.5 25.15 29.25 25.05 27.55 L25.05 27.25 23.45 27.15 23.5 27.55 M28.3 46.0 Q22.35 45.85 18.15 43.3 L24.05 41.1 28.3 46.0 M17.95 43.15 Q13.45 40.35 13.45 36.4 L13.45 35.65 14.0 36.0 18.0 43.2 17.95 43.15 Z" fill="none" stroke="#000000" stroke-linecap="round" stroke-linejoin="round" stroke-opacity="0.2" stroke-width="1.0"/>
    </g>
  </defs>
</svg>
