<?xml version="1.0" encoding="UTF-8" standalone="no"?>
<svg xmlns:ffdec="https://www.free-decompiler.com/flash" xmlns:xlink="http://www.w3.org/1999/xlink" ffdec:objectType="frame" height="56.0px" width="56.0px" xmlns="http://www.w3.org/2000/svg">
  <g transform="matrix(1.0, 0.0, 0.0, 1.0, 0.0, 0.0)">
    <use ffdec:characterId="2" height="56.0" id="back" transform="matrix(1.0, 0.0, 0.0, 1.0, 0.0, 0.0)" width="56.0" xlink:href="#sprite0"/>
    <use ffdec:characterId="3" height="49.05" transform="matrix(1.0, 0.0, 0.0, 1.0, 5.25, 3.95)" width="44.7" xlink:href="#shape1"/>
  </g>
  <defs>
    <g id="sprite0" transform="matrix(1.0, 0.0, 0.0, 1.0, 0.0, 0.0)">
      <use ffdec:characterId="1" height="56.0" transform="matrix(1.0, 0.0, 0.0, 1.0, 0.0, 0.0)" width="56.0" xlink:href="#shape0"/>
    </g>
    <g id="shape0" transform="matrix(1.0, 0.0, 0.0, 1.0, 0.0, 0.0)">
      <path d="M56.0 56.0 L0.0 56.0 0.0 0.0 56.0 0.0 56.0 56.0" fill="#010101" fill-opacity="0.0" fill-rule="evenodd" stroke="none"/>
    </g>
    <g id="shape1" transform="matrix(1.0, 0.0, 0.0, 1.0, -5.25, -3.95)">
      <path d="M41.6 7.3 L41.7 6.95 Q42.2 5.85 43.0 4.95 L44.55 4.45 44.75 4.45 Q46.4 4.3 47.8 5.35 49.2 6.45 49.4 8.25 L49.35 9.85 47.75 11.6 Q46.75 12.45 45.7 12.75 43.35 11.95 41.75 10.0 43.05 12.35 45.6 13.3 L47.2 12.55 Q47.55 14.25 46.65 15.35 45.9 16.35 44.6 16.55 L44.55 16.6 43.6 16.6 Q41.6 16.55 39.75 15.1 L38.5 13.95 Q40.0 17.8 46.1 17.45 46.9 18.85 47.35 20.4 48.65 24.9 46.2 28.0 43.85 31.1 40.3 31.1 38.5 31.1 37.65 31.8 37.1 32.3 36.95 33.05 L36.9 33.2 36.9 33.95 36.9 34.0 36.95 34.0 36.95 33.95 36.95 33.3 Q37.9 35.05 38.45 37.05 40.1 43.4 36.65 48.0 33.2 52.45 26.55 52.45 19.9 52.4 14.05 47.9 8.1 43.3 6.4 36.9 4.75 30.5 8.2 26.0 11.65 21.45 18.3 21.55 21.2 21.55 24.0 22.4 23.5 22.85 22.6 22.85 L22.55 22.85 22.55 22.9 22.6 22.9 Q23.6 22.95 24.15 22.45 L24.2 22.4 24.5 22.0 Q24.95 21.05 24.5 19.2 23.6 15.5 25.95 12.35 28.35 9.3 33.05 9.35 35.1 9.4 37.1 10.1 L37.1 10.8 37.1 10.85 37.15 10.85 37.2 10.8 37.2 10.15 37.2 10.0 Q37.3 9.2 37.75 8.5 38.75 7.2 40.8 7.3 L41.55 7.35 41.6 7.3 M17.45 27.85 Q17.55 27.0 17.0 26.25 16.45 25.55 15.6 25.45 14.75 25.35 14.05 25.9 13.35 26.4 13.25 27.3 13.15 28.15 13.65 28.8 14.2 29.55 15.05 29.65 15.9 29.75 16.6 29.25 17.35 28.7 17.45 27.85 M32.95 14.2 Q33.05 13.65 32.65 13.2 32.35 12.8 31.85 12.7 31.3 12.65 30.9 12.95 30.45 13.3 30.35 13.8 30.3 14.35 30.6 14.75 L31.45 15.3 Q32.05 15.35 32.45 15.0 32.9 14.7 32.95 14.2" fill="#000000" fill-rule="evenodd" stroke="none"/>
      <path d="M47.2 12.55 L47.2 12.5 47.25 12.5 47.25 12.55 Q47.65 14.25 46.75 15.4 45.95 16.4 44.6 16.65 L44.55 16.6 44.6 16.55 Q45.9 16.35 46.65 15.35 47.55 14.25 47.2 12.55 M46.1 17.45 L46.1 17.4 46.15 17.4 Q47.0 18.8 47.4 20.35 48.75 24.95 46.25 28.05 43.85 31.2 40.3 31.2 38.55 31.2 37.7 31.85 37.15 32.35 37.05 33.15 37.95 34.95 38.5 37.0 40.25 43.45 36.7 48.0 33.25 52.55 26.55 52.5 19.85 52.5 14.0 47.95 8.05 43.35 6.3 36.9 4.65 30.45 8.1 25.95 11.6 21.4 18.3 21.4 21.2 21.4 24.05 22.35 L24.35 21.95 Q24.85 21.05 24.45 19.2 23.5 15.45 25.9 12.35 28.3 9.2 33.05 9.3 35.1 9.3 37.1 10.0 37.2 9.15 37.7 8.45 38.75 7.1 40.8 7.2 L41.6 7.3 41.55 7.35 40.8 7.3 Q38.75 7.2 37.75 8.5 37.3 9.2 37.2 10.0 L37.2 10.15 37.2 10.8 37.15 10.85 37.1 10.85 37.1 10.8 37.1 10.1 Q35.1 9.4 33.05 9.35 28.35 9.3 25.95 12.35 23.6 15.5 24.5 19.2 24.95 21.05 24.5 22.0 L24.2 22.4 24.15 22.45 Q23.6 22.95 22.6 22.9 L22.55 22.9 22.55 22.85 22.6 22.85 Q23.5 22.85 24.0 22.4 21.2 21.55 18.3 21.55 11.65 21.45 8.2 26.0 4.75 30.5 6.4 36.9 8.1 43.3 14.05 47.9 19.9 52.4 26.55 52.45 33.2 52.45 36.65 48.0 40.1 43.4 38.45 37.05 37.9 35.05 36.95 33.3 L36.95 33.95 36.95 34.0 36.9 34.0 36.9 33.95 36.9 33.2 36.95 33.05 Q37.1 32.3 37.65 31.8 38.5 31.1 40.3 31.1 43.85 31.1 46.2 28.0 48.65 24.9 47.35 20.4 46.9 18.85 46.1 17.45" fill="#000000" fill-opacity="0.3019608" fill-rule="evenodd" stroke="none"/>
      <path d="M41.6 7.3 L41.7 6.95 Q42.2 5.85 43.0 4.95 L44.55 4.45 44.75 4.45 Q46.4 4.3 47.8 5.35 49.2 6.45 49.4 8.25 L49.35 9.85 47.75 11.6 Q46.75 12.45 45.7 12.75 43.35 11.95 41.75 10.0 43.05 12.35 45.6 13.3 L47.2 12.55 M44.55 16.6 L43.6 16.6 Q41.6 16.55 39.75 15.1 L38.5 13.95 Q40.0 17.8 46.1 17.45 L46.1 17.4 46.15 17.4 Q47.0 18.8 47.4 20.35 48.75 24.95 46.25 28.05 43.85 31.2 40.3 31.2 38.55 31.2 37.7 31.85 37.15 32.35 37.05 33.15 37.95 34.95 38.5 37.0 40.25 43.45 36.7 48.0 33.25 52.55 26.55 52.5 19.85 52.5 14.0 47.95 8.05 43.35 6.3 36.9 4.65 30.45 8.1 25.95 11.6 21.4 18.3 21.4 21.2 21.4 24.05 22.35 L24.35 21.95 Q24.85 21.05 24.45 19.2 23.5 15.45 25.9 12.35 28.3 9.2 33.05 9.3 35.1 9.3 37.1 10.0 37.2 9.15 37.7 8.45 38.75 7.1 40.8 7.2 L41.6 7.3 M32.95 14.2 Q32.9 14.7 32.45 15.0 32.05 15.35 31.45 15.3 L30.6 14.75 Q30.3 14.35 30.35 13.8 30.45 13.3 30.9 12.95 31.3 12.65 31.85 12.7 32.35 12.8 32.65 13.2 33.05 13.65 32.95 14.2 M17.45 27.85 Q17.35 28.7 16.6 29.25 15.9 29.75 15.05 29.65 14.2 29.55 13.65 28.8 13.15 28.15 13.25 27.3 13.35 26.4 14.05 25.9 14.75 25.35 15.6 25.45 16.45 25.55 17.0 26.25 17.55 27.0 17.45 27.85 Z" fill="none" stroke="#000000" stroke-linecap="round" stroke-linejoin="round" stroke-opacity="0.2" stroke-width="1.0"/>
      <path d="M41.6 7.3 L41.7 6.95 Q42.2 5.85 43.0 4.95 L44.55 4.45 44.75 4.45 Q46.4 4.3 47.8 5.35 49.2 6.45 49.4 8.25 L49.35 9.85 47.75 11.6 Q46.75 12.45 45.7 12.75 43.35 11.95 41.75 10.0 43.05 12.35 45.6 13.3 L47.2 12.55 Q47.55 14.25 46.65 15.35 45.9 16.35 44.6 16.55 L44.55 16.6 43.6 16.6 Q41.6 16.55 39.75 15.1 L38.5 13.95 Q40.0 17.8 46.1 17.45 46.9 18.85 47.35 20.4 48.65 24.9 46.2 28.0 43.85 31.1 40.3 31.1 38.5 31.1 37.65 31.8 37.1 32.3 36.95 33.05 L36.9 33.2 36.9 33.95 36.9 34.0 36.95 34.0 36.95 33.95 36.95 33.3 Q37.9 35.05 38.45 37.05 40.1 43.4 36.65 48.0 33.2 52.45 26.55 52.45 19.9 52.4 14.05 47.9 8.1 43.3 6.4 36.9 4.75 30.5 8.2 26.0 11.65 21.45 18.3 21.55 21.2 21.55 24.0 22.4 23.5 22.85 22.6 22.85 L22.55 22.85 22.55 22.9 22.6 22.9 Q23.6 22.95 24.15 22.45 L24.2 22.4 24.5 22.0 Q24.95 21.05 24.5 19.2 23.6 15.5 25.95 12.35 28.35 9.3 33.05 9.35 35.1 9.4 37.1 10.1 L37.1 10.8 37.1 10.85 37.15 10.85 37.2 10.8 37.2 10.15 37.2 10.0 Q37.3 9.2 37.75 8.5 38.75 7.2 40.8 7.3 L41.55 7.35 41.6 7.3 M17.45 27.85 Q17.55 27.0 17.0 26.25 16.45 25.55 15.6 25.45 14.75 25.35 14.05 25.9 13.35 26.4 13.25 27.3 13.15 28.15 13.65 28.8 14.2 29.55 15.05 29.65 15.9 29.75 16.6 29.25 17.35 28.7 17.45 27.85 M32.95 14.2 Q33.05 13.65 32.65 13.2 32.35 12.8 31.85 12.7 31.3 12.65 30.9 12.95 30.45 13.3 30.35 13.8 30.3 14.35 30.6 14.75 L31.45 15.3 Q32.05 15.35 32.45 15.0 32.9 14.7 32.95 14.2" fill="#000000" fill-rule="evenodd" stroke="none"/>
      <path d="M47.2 12.55 L47.2 12.5 47.25 12.5 47.25 12.55 Q47.65 14.25 46.75 15.4 45.95 16.4 44.6 16.65 L44.55 16.6 44.6 16.55 Q45.9 16.35 46.65 15.35 47.55 14.25 47.2 12.55 M46.1 17.45 L46.1 17.4 46.15 17.4 Q47.0 18.8 47.4 20.35 48.75 24.95 46.25 28.05 43.85 31.2 40.3 31.2 38.55 31.2 37.7 31.85 37.15 32.35 37.05 33.15 37.95 34.95 38.5 37.0 40.25 43.45 36.7 48.0 33.25 52.55 26.55 52.5 19.85 52.5 14.0 47.95 8.05 43.35 6.3 36.9 4.65 30.45 8.1 25.95 11.6 21.4 18.3 21.4 21.2 21.4 24.05 22.35 L24.35 21.95 Q24.85 21.05 24.45 19.2 23.5 15.45 25.9 12.35 28.3 9.2 33.05 9.3 35.1 9.3 37.1 10.0 37.2 9.15 37.7 8.45 38.75 7.1 40.8 7.2 L41.6 7.3 41.55 7.35 40.8 7.3 Q38.75 7.2 37.75 8.5 37.3 9.2 37.2 10.0 L37.2 10.15 37.2 10.8 37.15 10.85 37.1 10.85 37.1 10.8 37.1 10.1 Q35.1 9.4 33.05 9.35 28.35 9.3 25.95 12.35 23.6 15.5 24.5 19.2 24.95 21.05 24.5 22.0 L24.2 22.4 24.15 22.45 Q23.6 22.95 22.6 22.9 L22.55 22.9 22.55 22.85 22.6 22.85 Q23.5 22.85 24.0 22.4 21.2 21.55 18.3 21.55 11.65 21.45 8.2 26.0 4.75 30.5 6.4 36.9 8.1 43.3 14.05 47.9 19.9 52.4 26.55 52.45 33.2 52.45 36.65 48.0 40.1 43.4 38.45 37.05 37.9 35.05 36.95 33.3 L36.95 33.95 36.95 34.0 36.9 34.0 36.9 33.95 36.9 33.2 36.95 33.05 Q37.1 32.3 37.65 31.8 38.5 31.1 40.3 31.1 43.85 31.1 46.2 28.0 48.65 24.9 47.35 20.4 46.9 18.85 46.1 17.45" fill="#000000" fill-opacity="0.3019608" fill-rule="evenodd" stroke="none"/>
    </g>
  </defs>
</svg>
