<?xml version="1.0" encoding="UTF-8" standalone="no"?>
<svg xmlns:ffdec="https://www.free-decompiler.com/flash" xmlns:xlink="http://www.w3.org/1999/xlink" ffdec:objectType="frame" height="56.0px" width="56.0px" xmlns="http://www.w3.org/2000/svg">
  <g transform="matrix(1.0, 0.0, 0.0, 1.0, 0.0, 0.0)">
    <use ffdec:characterId="2" height="56.0" id="back" transform="matrix(1.0, 0.0, 0.0, 1.0, 0.0, 0.0)" width="56.0" xlink:href="#sprite0"/>
    <use ffdec:characterId="3" height="49.4" transform="matrix(1.0, 0.0, 0.0, 1.0, 3.65, 3.5)" width="49.4" xlink:href="#shape1"/>
  </g>
  <defs>
    <g id="sprite0" transform="matrix(1.0, 0.0, 0.0, 1.0, 0.0, 0.0)">
      <use ffdec:characterId="1" height="56.0" transform="matrix(1.0, 0.0, 0.0, 1.0, 0.0, 0.0)" width="56.0" xlink:href="#shape0"/>
    </g>
    <g id="shape0" transform="matrix(1.0, 0.0, 0.0, 1.0, 0.0, 0.0)">
      <path d="M56.0 56.0 L0.0 56.0 0.0 0.0 56.0 0.0 56.0 56.0" fill="#010101" fill-opacity="0.0" fill-rule="evenodd" stroke="none"/>
    </g>
    <g id="shape1" transform="matrix(1.0, 0.0, 0.0, 1.0, -3.65, -3.5)">
      <path d="M46.0 28.1 Q46.0 23.7 44.15 20.05 L43.05 18.2 Q42.05 16.8 40.85 15.55 35.6 10.35 28.25 10.35 20.95 10.35 15.75 15.55 10.5 20.75 10.5 28.1 10.5 35.45 15.75 40.65 20.95 45.85 28.25 45.85 35.6 45.85 40.85 40.65 L43.05 38.0 44.15 36.15 Q46.0 32.5 46.0 28.1 M52.55 28.2 Q52.55 34.2 49.95 39.2 L48.5 41.7 45.45 45.3 Q38.4 52.4 28.35 52.4 18.35 52.4 11.3 45.3 4.15 38.25 4.15 28.2 4.15 18.15 11.3 11.1 18.35 4.0 28.35 4.0 38.4 4.0 45.45 11.1 47.2 12.8 48.5 14.75 L49.95 17.2 Q52.55 22.15 52.55 28.2 M40.55 28.1 Q40.55 31.2 39.25 33.7 L38.5 35.0 38.4 35.15 Q35.5 24.8 31.05 16.1 34.4 16.8 36.95 19.4 L38.5 21.25 39.25 22.5 Q40.55 25.05 40.55 28.1 M15.95 28.1 Q15.95 23.0 19.55 19.4 21.75 17.2 24.5 16.35 20.15 24.95 17.6 34.25 15.95 31.5 15.95 28.1 M28.25 40.4 Q25.1 40.4 22.55 39.05 L22.65 38.65 Q23.3 35.65 24.1 32.9 L24.1 32.85 31.7 32.85 33.35 39.35 Q31.05 40.4 28.25 40.4 M25.25 29.2 Q26.25 25.45 27.8 22.85 29.25 25.45 30.45 29.2 L25.25 29.2" fill="#000000" fill-rule="evenodd" stroke="none"/>
      <path d="M46.0 28.1 Q46.0 32.5 44.15 36.15 L43.05 38.0 40.85 40.65 Q35.6 45.85 28.25 45.85 20.95 45.85 15.75 40.65 10.5 35.45 10.5 28.1 10.5 20.75 15.75 15.55 20.95 10.35 28.25 10.35 35.6 10.35 40.85 15.55 42.05 16.8 43.05 18.2 L44.15 20.05 Q46.0 23.7 46.0 28.1 M52.55 28.2 Q52.55 34.2 49.95 39.2 L48.5 41.7 45.45 45.3 Q38.4 52.4 28.35 52.4 18.35 52.4 11.3 45.3 4.15 38.25 4.15 28.2 4.15 18.15 11.3 11.1 18.35 4.0 28.35 4.0 38.4 4.0 45.45 11.1 47.2 12.8 48.5 14.75 L49.95 17.2 Q52.55 22.15 52.55 28.2 M40.55 28.1 Q40.55 31.2 39.25 33.7 L38.5 35.0 38.4 35.15 Q35.5 24.8 31.05 16.1 34.4 16.8 36.95 19.4 L38.5 21.25 39.25 22.5 Q40.55 25.05 40.55 28.1 M15.95 28.1 Q15.95 23.0 19.55 19.4 21.75 17.2 24.5 16.35 20.15 24.95 17.6 34.25 15.95 31.5 15.95 28.1 M28.25 40.4 Q25.1 40.4 22.55 39.05 L22.65 38.65 Q23.3 35.65 24.1 32.9 L24.1 32.85 31.7 32.85 33.35 39.35 Q31.05 40.4 28.25 40.4 M25.25 29.2 L30.45 29.2 Q29.25 25.45 27.8 22.85 26.25 25.45 25.25 29.2 Z" fill="none" stroke="#000000" stroke-linecap="round" stroke-linejoin="round" stroke-opacity="0.2" stroke-width="1.0"/>
      <path d="M52.55 28.2 Q52.55 34.2 49.95 39.2 L48.5 41.7 45.45 45.3 Q38.4 52.4 28.35 52.4 18.35 52.4 11.3 45.3 4.15 38.25 4.15 28.2 4.15 18.15 11.3 11.1 18.35 4.0 28.35 4.0 38.4 4.0 45.45 11.1 47.2 12.8 48.5 14.75 L49.95 17.2 Q52.55 22.15 52.55 28.2 M46.0 28.1 Q46.0 23.7 44.15 20.05 L43.05 18.2 Q42.05 16.8 40.85 15.55 35.6 10.35 28.25 10.35 20.95 10.35 15.75 15.55 10.5 20.75 10.5 28.1 10.5 35.45 15.75 40.65 20.95 45.85 28.25 45.85 35.6 45.85 40.85 40.65 L43.05 38.0 44.15 36.15 Q46.0 32.5 46.0 28.1 M40.55 28.1 Q40.55 31.2 39.25 33.7 L38.5 35.0 38.4 35.15 Q35.5 24.8 31.05 16.1 34.4 16.8 36.95 19.4 L38.5 21.25 39.25 22.5 Q40.55 25.05 40.55 28.1 M15.95 28.1 Q15.95 23.0 19.55 19.4 21.75 17.2 24.5 16.35 20.15 24.95 17.6 34.25 15.95 31.5 15.95 28.1 M28.25 40.4 Q25.1 40.4 22.55 39.05 L22.65 38.65 Q23.3 35.65 24.1 32.9 L24.1 32.85 31.7 32.85 33.35 39.35 Q31.05 40.4 28.25 40.4 M25.25 29.2 Q26.25 25.45 27.8 22.85 29.25 25.45 30.45 29.2 L25.25 29.2" fill="#000000" fill-rule="evenodd" stroke="none"/>
    </g>
  </defs>
</svg>
