<?xml version="1.0" encoding="UTF-8" standalone="no"?>
<svg xmlns:ffdec="https://www.free-decompiler.com/flash" xmlns:xlink="http://www.w3.org/1999/xlink" ffdec:objectType="frame" height="56.0px" width="56.0px" xmlns="http://www.w3.org/2000/svg">
  <g transform="matrix(1.0, 0.0, 0.0, 1.0, 0.0, 0.0)">
    <use ffdec:characterId="2" height="56.0" id="back" transform="matrix(1.0, 0.0, 0.0, 1.0, 0.0, 0.0)" width="56.0" xlink:href="#sprite0"/>
    <use ffdec:characterId="3" height="45.3" transform="matrix(1.0, 0.0, 0.0, 1.0, 3.65, 3.5)" width="49.4" xlink:href="#shape1"/>
  </g>
  <defs>
    <g id="sprite0" transform="matrix(1.0, 0.0, 0.0, 1.0, 0.0, 0.0)">
      <use ffdec:characterId="1" height="56.0" transform="matrix(1.0, 0.0, 0.0, 1.0, 0.0, 0.0)" width="56.0" xlink:href="#shape0"/>
    </g>
    <g id="shape0" transform="matrix(1.0, 0.0, 0.0, 1.0, 0.0, 0.0)">
      <path d="M56.0 56.0 L0.0 56.0 0.0 0.0 56.0 0.0 56.0 56.0" fill="#010101" fill-opacity="0.0" fill-rule="evenodd" stroke="none"/>
    </g>
    <g id="shape1" transform="matrix(1.0, 0.0, 0.0, 1.0, -3.65, -3.5)">
      <path d="M19.1 14.4 Q17.8 12.55 16.65 12.05 15.4 15.65 15.5 20.05 L14.65 20.65 Q13.5 15.8 14.5 6.35 L14.65 5.65 Q14.85 4.85 15.15 4.5 15.6 4.0 16.4 4.0 17.05 3.95 17.65 4.35 20.3 6.0 24.0 17.15 L20.95 17.7 Q20.3 16.15 19.1 14.4 M26.3 24.25 Q26.0 23.35 25.35 23.15 L23.55 23.2 Q22.35 23.45 21.0 24.15 19.6 24.85 18.75 26.15 17.85 27.7 18.15 29.0 18.3 29.8 18.9 30.15 L20.9 30.65 Q22.35 30.75 23.75 29.6 25.15 28.4 25.9 26.75 26.6 25.1 26.3 24.25 M8.2 29.9 L9.8 29.75 Q10.7 29.35 11.2 28.55 L11.9 26.95 12.4 25.25 Q13.05 23.3 14.35 21.8 15.7 20.25 19.05 19.15 20.7 18.6 24.05 18.1 27.35 17.65 32.85 18.15 36.1 18.6 37.7 19.15 41.05 20.25 42.4 21.8 43.7 23.3 44.35 25.25 L44.8 26.95 Q45.1 27.95 45.5 28.55 46.05 29.35 46.95 29.75 L48.55 29.9 49.6 29.15 Q50.0 28.7 50.4 28.65 51.0 28.65 51.45 29.15 L52.05 30.2 Q52.8 32.15 52.45 35.35 52.05 38.5 50.7 40.85 L49.6 42.15 Q49.1 40.2 48.3 39.5 46.95 38.4 45.05 37.85 L41.95 37.25 Q40.75 37.3 38.8 38.15 L36.2 39.1 Q35.45 39.3 34.2 37.8 L33.6 37.0 Q37.75 34.0 42.8 33.85 37.8 32.25 35.05 33.85 33.25 34.95 33.0 36.05 L32.4 34.95 Q31.85 33.6 30.75 33.15 L28.1 32.9 Q26.55 33.1 26.05 34.2 L25.1 35.8 Q24.75 34.85 23.15 33.85 20.35 32.25 15.4 33.85 20.3 34.0 24.45 36.85 L24.15 37.25 Q22.75 39.3 22.0 39.1 L19.4 38.15 Q17.45 37.3 16.25 37.25 15.0 37.25 13.15 37.85 11.25 38.4 9.9 39.5 8.9 40.35 8.45 43.15 6.65 41.95 6.0 40.85 4.65 38.5 4.3 35.35 3.9 32.15 4.65 30.2 4.85 29.55 5.25 29.15 5.75 28.65 6.3 28.65 6.75 28.7 7.15 29.15 7.5 29.65 8.2 29.9 M38.1 14.55 Q36.9 16.3 36.25 17.85 L33.2 17.3 Q36.9 6.15 39.55 4.45 40.15 4.1 40.8 4.15 41.6 4.15 42.05 4.65 L42.55 5.8 42.65 6.5 Q43.7 15.95 42.55 20.8 L41.7 20.2 Q41.8 15.8 40.55 12.2 39.45 12.7 38.1 14.55 M30.45 24.25 Q30.15 25.1 30.85 26.75 31.6 28.4 33.0 29.6 34.45 30.75 35.9 30.65 L37.9 30.15 Q38.45 29.8 38.65 29.0 38.95 27.7 38.0 26.15 37.15 24.85 35.8 24.15 34.45 23.45 33.25 23.2 L31.4 23.15 Q30.75 23.35 30.45 24.25 M43.75 45.6 L43.7 45.6 Q42.3 41.5 36.35 39.5 L36.55 39.45 37.05 39.25 40.45 38.75 Q43.35 38.95 45.05 40.2 46.05 40.95 46.55 42.1 47.0 43.05 46.95 43.95 L46.35 44.3 43.75 45.6 M26.85 40.6 Q27.2 41.25 28.85 42.25 L30.75 40.9 Q31.35 40.05 30.1 39.7 L27.7 39.65 Q26.5 39.95 26.85 40.6 M23.2 48.05 L19.85 47.6 20.2 45.25 Q20.65 40.95 23.95 38.85 26.55 37.25 29.1 37.35 L29.15 37.35 Q31.7 37.25 34.25 38.85 37.55 40.95 38.05 45.25 L38.35 47.35 33.55 48.05 Q30.1 48.6 23.2 48.05 M13.65 45.9 L12.95 45.55 11.4 44.8 11.3 44.45 Q11.1 43.3 11.65 42.1 12.15 40.95 13.2 40.2 14.85 38.95 17.75 38.75 19.8 38.65 21.85 39.5 15.55 41.6 14.35 46.15 L13.65 45.9" fill="#000000" fill-rule="evenodd" stroke="none"/>
      <path d="M19.1 14.4 Q17.8 12.55 16.65 12.05 15.4 15.65 15.5 20.05 L14.65 20.65 Q13.5 15.8 14.5 6.35 L14.65 5.65 Q14.85 4.85 15.15 4.5 15.6 4.0 16.4 4.0 17.05 3.95 17.65 4.35 20.3 6.0 24.0 17.15 L20.95 17.7 Q20.3 16.15 19.1 14.4 M26.3 24.25 Q26.6 25.1 25.9 26.75 25.15 28.4 23.75 29.6 22.35 30.75 20.9 30.65 L18.9 30.15 Q18.3 29.8 18.15 29.0 17.85 27.7 18.75 26.15 19.6 24.85 21.0 24.15 22.35 23.45 23.55 23.2 L25.35 23.15 Q26.0 23.35 26.3 24.25 M8.2 29.9 L9.8 29.75 Q10.7 29.35 11.2 28.55 L11.9 26.95 12.4 25.25 Q13.05 23.3 14.35 21.8 15.7 20.25 19.05 19.15 20.7 18.6 24.05 18.1 27.35 17.65 32.85 18.15 36.1 18.6 37.7 19.15 41.05 20.25 42.4 21.8 43.7 23.3 44.35 25.25 L44.8 26.95 Q45.1 27.95 45.5 28.55 46.05 29.35 46.95 29.75 L48.55 29.9 49.6 29.15 Q50.0 28.7 50.4 28.65 51.0 28.65 51.45 29.15 L52.05 30.2 Q52.8 32.15 52.45 35.35 52.05 38.5 50.7 40.85 L49.6 42.15 Q49.1 40.2 48.3 39.5 46.95 38.4 45.05 37.85 L41.95 37.25 Q40.75 37.3 38.8 38.15 L36.2 39.1 Q35.45 39.3 34.2 37.8 L33.6 37.0 Q37.75 34.0 42.8 33.85 37.8 32.25 35.05 33.85 33.25 34.95 33.0 36.05 L32.4 34.95 Q31.85 33.6 30.75 33.15 L28.1 32.9 Q26.55 33.1 26.05 34.2 L25.1 35.8 Q24.75 34.85 23.15 33.85 20.35 32.25 15.4 33.85 20.3 34.0 24.45 36.85 L24.15 37.25 Q22.75 39.3 22.0 39.1 L19.4 38.15 Q17.45 37.3 16.25 37.25 15.0 37.25 13.15 37.85 11.25 38.4 9.9 39.5 8.9 40.35 8.45 43.15 6.65 41.95 6.0 40.85 4.65 38.5 4.3 35.35 3.9 32.15 4.65 30.2 4.85 29.55 5.25 29.15 5.75 28.65 6.3 28.65 6.75 28.7 7.15 29.15 7.5 29.65 8.2 29.9 M38.1 14.55 Q39.45 12.7 40.55 12.2 41.8 15.8 41.7 20.2 L42.55 20.8 Q43.7 15.95 42.65 6.5 L42.55 5.8 42.05 4.65 Q41.6 4.15 40.8 4.15 40.15 4.1 39.55 4.45 36.9 6.15 33.2 17.3 L36.25 17.85 Q36.9 16.3 38.1 14.55 M30.45 24.25 Q30.15 25.1 30.85 26.75 31.6 28.4 33.0 29.6 34.45 30.75 35.9 30.65 L37.9 30.15 Q38.45 29.8 38.65 29.0 38.95 27.7 38.0 26.15 37.15 24.85 35.8 24.15 34.45 23.45 33.25 23.2 L31.4 23.15 Q30.75 23.35 30.45 24.25 M43.75 45.6 L43.7 45.6 Q42.3 41.5 36.35 39.5 L36.55 39.45 37.05 39.25 40.45 38.75 Q43.35 38.95 45.05 40.2 46.05 40.95 46.55 42.1 47.0 43.05 46.95 43.95 L46.35 44.3 43.75 45.6 M26.85 40.6 Q26.5 39.95 27.7 39.65 L30.1 39.7 Q31.35 40.05 30.75 40.9 L28.85 42.25 Q27.2 41.25 26.85 40.6 M23.2 48.05 L19.85 47.6 20.2 45.25 Q20.65 40.95 23.95 38.85 26.55 37.25 29.1 37.35 L29.15 37.35 Q31.7 37.25 34.25 38.85 37.55 40.95 38.05 45.25 L38.35 47.35 33.55 48.05 Q30.1 48.6 23.2 48.05 M13.65 45.9 L12.95 45.55 11.4 44.8 11.3 44.45 Q11.1 43.3 11.65 42.1 12.15 40.95 13.2 40.2 14.85 38.95 17.75 38.75 19.8 38.65 21.85 39.5 15.55 41.6 14.35 46.15 L13.65 45.9 Z" fill="none" stroke="#000000" stroke-linecap="round" stroke-linejoin="round" stroke-opacity="0.2" stroke-width="1.0"/>
      <path d="M19.1 14.4 Q17.8 12.55 16.65 12.05 15.4 15.65 15.5 20.05 L14.65 20.65 Q13.5 15.8 14.5 6.35 L14.65 5.65 Q14.85 4.85 15.15 4.5 15.6 4.0 16.4 4.0 17.05 3.95 17.65 4.35 20.3 6.0 24.0 17.15 L20.95 17.7 Q20.3 16.15 19.1 14.4 M26.3 24.25 Q26.0 23.35 25.35 23.15 L23.55 23.2 Q22.35 23.45 21.0 24.15 19.6 24.85 18.75 26.15 17.85 27.7 18.15 29.0 18.3 29.8 18.9 30.15 L20.9 30.65 Q22.35 30.75 23.75 29.6 25.15 28.4 25.9 26.75 26.6 25.1 26.3 24.25 M8.2 29.9 L9.8 29.75 Q10.7 29.35 11.2 28.55 L11.9 26.95 12.4 25.25 Q13.05 23.3 14.35 21.8 15.7 20.25 19.05 19.15 20.7 18.6 24.05 18.1 27.35 17.65 32.85 18.15 36.1 18.6 37.7 19.15 41.05 20.25 42.4 21.8 43.7 23.3 44.35 25.25 L44.8 26.95 Q45.1 27.95 45.5 28.55 46.05 29.35 46.95 29.75 L48.55 29.9 49.6 29.15 Q50.0 28.7 50.4 28.65 51.0 28.65 51.45 29.15 L52.05 30.2 Q52.8 32.15 52.45 35.35 52.05 38.5 50.7 40.85 L49.6 42.15 Q49.1 40.2 48.3 39.5 46.95 38.4 45.05 37.85 L41.95 37.25 Q40.75 37.3 38.8 38.15 L36.2 39.1 Q35.45 39.3 34.2 37.8 L33.6 37.0 Q37.75 34.0 42.8 33.85 37.8 32.25 35.05 33.85 33.25 34.95 33.0 36.05 L32.4 34.95 Q31.85 33.6 30.75 33.15 L28.1 32.9 Q26.55 33.1 26.05 34.2 L25.1 35.8 Q24.75 34.85 23.15 33.85 20.35 32.25 15.4 33.85 20.3 34.0 24.45 36.85 L24.15 37.25 Q22.75 39.3 22.0 39.1 L19.4 38.15 Q17.45 37.3 16.25 37.25 15.0 37.25 13.15 37.85 11.25 38.4 9.9 39.5 8.9 40.35 8.45 43.15 6.65 41.95 6.0 40.85 4.65 38.5 4.3 35.35 3.9 32.15 4.65 30.2 4.85 29.55 5.25 29.15 5.75 28.65 6.3 28.65 6.75 28.7 7.15 29.15 7.5 29.65 8.2 29.9 M38.1 14.55 Q36.9 16.3 36.25 17.85 L33.2 17.3 Q36.9 6.15 39.55 4.45 40.15 4.1 40.8 4.15 41.6 4.15 42.05 4.65 L42.55 5.8 42.65 6.5 Q43.7 15.95 42.55 20.8 L41.7 20.2 Q41.8 15.8 40.55 12.2 39.45 12.7 38.1 14.55 M30.45 24.25 Q30.15 25.1 30.85 26.75 31.6 28.4 33.0 29.6 34.45 30.75 35.9 30.65 L37.9 30.15 Q38.45 29.8 38.65 29.0 38.95 27.7 38.0 26.15 37.15 24.85 35.8 24.15 34.45 23.45 33.25 23.2 L31.4 23.15 Q30.75 23.35 30.45 24.25 M43.75 45.6 L43.7 45.6 Q42.3 41.5 36.35 39.5 L36.55 39.45 37.05 39.25 40.45 38.75 Q43.35 38.95 45.05 40.2 46.05 40.95 46.55 42.1 47.0 43.05 46.95 43.95 L46.35 44.3 43.75 45.6 M26.85 40.6 Q27.2 41.25 28.85 42.25 L30.75 40.9 Q31.35 40.05 30.1 39.7 L27.7 39.65 Q26.5 39.95 26.85 40.6 M23.2 48.05 L19.85 47.6 20.2 45.25 Q20.65 40.95 23.95 38.85 26.55 37.25 29.1 37.35 L29.15 37.35 Q31.7 37.25 34.25 38.85 37.55 40.95 38.05 45.25 L38.35 47.35 33.55 48.05 Q30.1 48.6 23.2 48.05 M13.65 45.9 L12.95 45.55 11.4 44.8 11.3 44.45 Q11.1 43.3 11.65 42.1 12.15 40.95 13.2 40.2 14.85 38.95 17.75 38.75 19.8 38.65 21.85 39.5 15.55 41.6 14.35 46.15 L13.65 45.9" fill="#000000" fill-rule="evenodd" stroke="none"/>
    </g>
  </defs>
</svg>
