<?xml version="1.0" encoding="UTF-8" standalone="no"?>
<svg xmlns:ffdec="https://www.free-decompiler.com/flash" xmlns:xlink="http://www.w3.org/1999/xlink" ffdec:objectType="frame" height="56.0px" width="56.0px" xmlns="http://www.w3.org/2000/svg">
  <g transform="matrix(1.0, 0.0, 0.0, 1.0, 0.0, 0.0)">
    <use ffdec:characterId="2" height="56.0" id="back" transform="matrix(1.0, 0.0, 0.0, 1.0, 0.0, 0.0)" width="56.0" xlink:href="#sprite0"/>
    <use ffdec:characterId="3" height="49.15" transform="matrix(1.0, 0.0, 0.0, 1.0, 9.25, 3.5)" width="37.85" xlink:href="#shape1"/>
  </g>
  <defs>
    <g id="sprite0" transform="matrix(1.0, 0.0, 0.0, 1.0, 0.0, 0.0)">
      <use ffdec:characterId="1" height="56.0" transform="matrix(1.0, 0.0, 0.0, 1.0, 0.0, 0.0)" width="56.0" xlink:href="#shape0"/>
    </g>
    <g id="shape0" transform="matrix(1.0, 0.0, 0.0, 1.0, 0.0, 0.0)">
      <path d="M56.0 56.0 L0.0 56.0 0.0 0.0 56.0 0.0 56.0 56.0" fill="#010101" fill-opacity="0.0" fill-rule="evenodd" stroke="none"/>
    </g>
    <g id="shape1" transform="matrix(1.0, 0.0, 0.0, 1.0, -9.25, -3.5)">
      <path d="M42.3 36.9 Q42.3 34.3 41.65 32.0 41.1 30.2 40.2 28.6 42.0 25.7 43.1 22.85 L43.5 21.7 Q44.6 18.25 44.95 15.7 44.45 11.5 42.05 9.4 40.4 9.7 38.8 10.45 36.75 11.45 34.8 13.25 32.85 16.25 30.95 20.6 L31.05 20.6 30.65 21.4 30.75 21.5 29.1 21.3 28.8 21.3 28.2 21.25 28.15 21.25 26.9 21.3 26.4 21.4 26.05 21.45 25.7 21.5 25.6 21.5 25.65 21.4 25.35 20.6 25.4 20.6 Q23.55 16.25 21.55 13.25 19.6 11.45 17.55 10.45 15.95 9.7 14.3 9.4 11.9 11.5 11.4 15.7 11.75 18.25 12.85 21.7 L13.25 22.85 Q14.35 25.7 16.15 28.6 15.25 30.2 14.7 32.0 14.0 34.3 14.0 36.9 14.0 38.15 14.15 39.3 14.75 42.65 18.15 45.2 20.05 46.6 22.3 47.4 L22.1 46.6 22.5 47.4 23.35 48.75 23.45 48.85 Q25.45 51.0 28.2 51.0 31.0 51.0 32.95 48.85 33.85 47.85 34.4 46.35 L34.25 46.9 34.15 47.3 34.2 47.2 Q36.8 46.2 38.15 45.2 41.55 42.65 42.15 39.3 L42.3 36.9 M43.35 37.1 L43.2 39.6 Q42.5 43.25 38.9 45.95 37.0 47.35 33.7 48.4 L32.7 49.9 Q30.85 52.15 28.2 52.15 25.6 52.15 23.7 49.9 L23.0 48.85 22.8 48.6 Q19.85 47.75 17.4 45.95 13.8 43.25 13.15 39.6 L13.0 37.1 Q13.0 33.3 14.3 30.1 L14.35 30.1 14.85 29.05 Q13.1 25.85 11.95 22.85 8.7 14.2 10.3 6.6 10.95 3.55 12.45 4.1 15.15 4.95 17.55 7.05 22.5 11.25 26.55 20.4 L28.15 20.35 28.25 20.35 29.15 20.35 29.85 20.4 Q33.85 11.25 38.8 7.05 41.25 4.95 43.9 4.1 45.4 3.55 46.05 6.6 47.65 14.2 44.4 22.85 43.25 25.85 41.5 29.05 L42.65 32.0 Q43.35 34.4 43.35 37.1 M33.95 38.7 Q35.1 37.25 36.4 37.2 37.65 37.05 39.35 37.2 41.05 37.3 42.0 35.55 42.45 39.3 40.9 39.75 L38.25 39.55 36.15 38.45 Q35.25 38.1 33.95 38.7 M29.7 32.15 Q29.85 29.95 31.4 29.9 32.9 29.8 32.85 32.55 33.65 32.25 34.3 31.35 33.3 34.55 31.45 34.45 29.55 34.35 29.7 32.15 M26.7 32.15 Q26.85 34.35 24.95 34.45 L24.85 34.45 Q23.0 34.5 22.05 31.35 L22.15 31.5 22.1 31.35 Q22.75 32.25 23.5 32.55 23.45 29.85 24.9 29.9 L25.0 29.9 Q26.55 29.95 26.7 32.15 M35.1 42.8 L34.4 41.05 Q33.9 40.05 32.75 40.4 34.5 39.15 35.5 39.75 36.45 40.35 36.75 41.3 37.05 42.2 37.8 42.9 38.6 43.6 39.6 43.4 37.95 44.9 36.95 44.85 35.95 44.75 35.6 44.2 L35.1 42.8 M26.85 47.35 L26.7 46.4 Q27.3 45.75 28.3 45.45 29.1 45.65 29.8 46.4 L29.65 47.35 29.3 47.85 29.1 48.05 Q28.35 48.3 27.4 48.05 L27.2 47.85 26.85 47.35 M32.5 35.4 Q36.1 33.45 40.15 33.3 33.95 36.15 30.0 39.9 30.75 36.75 32.5 35.4 M21.25 42.8 L20.75 44.2 Q20.4 44.75 19.4 44.85 18.35 44.9 16.75 43.4 17.75 43.6 18.55 42.9 19.35 42.2 19.6 41.3 19.9 40.35 20.85 39.75 21.85 39.15 23.6 40.4 22.45 40.05 21.9 41.05 L21.25 42.8 M24.05 35.45 Q25.2 36.35 26.4 39.95 22.5 36.15 16.35 33.3 20.15 33.6 24.05 35.45 M22.4 38.7 Q21.15 38.1 20.15 38.45 19.25 38.8 18.1 39.55 16.95 40.25 15.45 39.75 13.95 39.3 14.3 35.55 15.3 37.3 17.0 37.2 18.7 37.05 19.95 37.2 21.25 37.25 22.4 38.7" fill="#000000" fill-rule="evenodd" stroke="none"/>
      <path d="M42.3 36.9 L42.15 39.3 Q41.55 42.65 38.15 45.2 36.8 46.2 34.2 47.2 L34.15 47.3 34.25 46.9 34.4 46.35 Q33.85 47.85 32.95 48.85 31.0 51.0 28.2 51.0 25.45 51.0 23.45 48.85 L23.35 48.75 22.5 47.4 22.1 46.6 22.3 47.4 Q20.05 46.6 18.15 45.2 14.75 42.65 14.15 39.3 14.0 38.15 14.0 36.9 14.0 34.3 14.7 32.0 15.25 30.2 16.15 28.6 14.35 25.7 13.25 22.85 L12.85 21.7 Q11.75 18.25 11.4 15.7 11.9 11.5 14.3 9.4 15.95 9.7 17.55 10.45 19.6 11.45 21.55 13.25 23.55 16.25 25.4 20.6 L25.35 20.6 25.65 21.4 25.6 21.5 25.7 21.5 26.05 21.45 26.4 21.4 26.9 21.3 28.15 21.25 28.2 21.25 28.8 21.3 29.1 21.3 30.75 21.5 30.65 21.4 31.05 20.6 30.95 20.6 Q32.85 16.25 34.8 13.25 36.75 11.45 38.8 10.45 40.4 9.7 42.05 9.4 44.45 11.5 44.95 15.7 44.6 18.25 43.5 21.7 L43.1 22.85 Q42.0 25.7 40.2 28.6 41.1 30.2 41.65 32.0 42.3 34.3 42.3 36.9 M43.35 37.1 L43.2 39.6 Q42.5 43.25 38.9 45.95 37.0 47.35 33.7 48.4 L32.7 49.9 Q30.85 52.15 28.2 52.15 25.6 52.15 23.7 49.9 L23.0 48.85 22.8 48.6 Q19.85 47.75 17.4 45.95 13.8 43.25 13.15 39.6 L13.0 37.1 Q13.0 33.3 14.3 30.1 L14.35 30.1 14.85 29.05 Q13.1 25.85 11.95 22.85 8.7 14.2 10.3 6.6 10.95 3.55 12.45 4.1 15.15 4.95 17.55 7.05 22.5 11.25 26.55 20.4 L28.15 20.35 28.25 20.35 29.15 20.35 29.85 20.4 Q33.85 11.25 38.8 7.05 41.25 4.95 43.9 4.1 45.4 3.55 46.05 6.6 47.65 14.2 44.4 22.85 43.25 25.85 41.5 29.05 L42.65 32.0 Q43.35 34.4 43.35 37.1 M33.95 38.7 Q35.1 37.25 36.4 37.2 37.65 37.05 39.35 37.2 41.05 37.3 42.0 35.55 42.45 39.3 40.9 39.75 L38.25 39.55 36.15 38.45 Q35.25 38.1 33.95 38.7 M29.7 32.15 Q29.85 29.95 31.4 29.9 32.9 29.8 32.85 32.55 33.65 32.25 34.3 31.35 33.3 34.55 31.45 34.45 29.55 34.35 29.7 32.15 M26.7 32.15 Q26.55 29.95 25.0 29.9 L24.9 29.9 Q23.45 29.85 23.5 32.55 22.75 32.25 22.1 31.35 L22.15 31.5 22.05 31.35 Q23.0 34.5 24.85 34.45 L24.95 34.45 Q26.85 34.35 26.7 32.15 M35.1 42.8 L34.4 41.05 Q33.9 40.05 32.75 40.4 34.5 39.15 35.5 39.75 36.45 40.35 36.75 41.3 37.05 42.2 37.8 42.9 38.6 43.6 39.6 43.4 37.95 44.9 36.95 44.85 35.95 44.75 35.6 44.2 L35.1 42.8 M26.85 47.35 L27.2 47.85 27.4 48.05 Q28.35 48.3 29.1 48.05 L29.3 47.85 29.65 47.35 29.8 46.4 Q29.1 45.65 28.3 45.45 27.3 45.75 26.7 46.4 L26.85 47.35 M32.5 35.4 Q36.1 33.45 40.15 33.3 33.95 36.15 30.0 39.9 30.75 36.75 32.5 35.4 M22.4 38.7 Q21.25 37.25 19.95 37.2 18.7 37.05 17.0 37.2 15.3 37.3 14.3 35.55 13.95 39.3 15.45 39.75 16.95 40.25 18.1 39.55 19.25 38.8 20.15 38.45 21.15 38.1 22.4 38.7 M24.05 35.45 Q20.15 33.6 16.35 33.3 22.5 36.15 26.4 39.95 25.2 36.35 24.05 35.45 M21.25 42.8 L21.9 41.05 Q22.45 40.05 23.6 40.4 21.85 39.15 20.85 39.75 19.9 40.35 19.6 41.3 19.35 42.2 18.55 42.9 17.75 43.6 16.75 43.4 18.35 44.9 19.4 44.85 20.4 44.75 20.75 44.2 L21.25 42.8 Z" fill="none" stroke="#000000" stroke-linecap="round" stroke-linejoin="round" stroke-opacity="0.2" stroke-width="1.0"/>
    </g>
  </defs>
</svg>
