<?xml version="1.0" encoding="UTF-8" standalone="no"?>
<svg xmlns:ffdec="https://www.free-decompiler.com/flash" xmlns:xlink="http://www.w3.org/1999/xlink" ffdec:objectType="frame" height="56.0px" width="56.0px" xmlns="http://www.w3.org/2000/svg">
  <g transform="matrix(1.0, 0.0, 0.0, 1.0, 0.0, 0.0)">
    <use ffdec:characterId="2" height="56.0" id="back" transform="matrix(1.0, 0.0, 0.0, 1.0, 0.0, 0.0)" width="56.0" xlink:href="#sprite0"/>
    <use ffdec:characterId="3" height="49.1" transform="matrix(1.0, 0.0, 0.0, 1.0, 9.25, 3.45)" width="37.85" xlink:href="#shape1"/>
  </g>
  <defs>
    <g id="sprite0" transform="matrix(1.0, 0.0, 0.0, 1.0, 0.0, 0.0)">
      <use ffdec:characterId="1" height="56.0" transform="matrix(1.0, 0.0, 0.0, 1.0, 0.0, 0.0)" width="56.0" xlink:href="#shape0"/>
    </g>
    <g id="shape0" transform="matrix(1.0, 0.0, 0.0, 1.0, 0.0, 0.0)">
      <path d="M56.0 56.0 L0.0 56.0 0.0 0.0 56.0 0.0 56.0 56.0" fill="#010101" fill-opacity="0.0" fill-rule="evenodd" stroke="none"/>
    </g>
    <g id="shape1" transform="matrix(1.0, 0.0, 0.0, 1.0, -9.25, -3.45)">
      <path d="M11.4 15.65 Q11.9 11.45 14.3 9.35 15.95 9.6 17.55 10.4 L17.6 10.4 21.55 13.15 Q17.1 7.7 12.35 5.45 10.25 10.55 11.4 15.65 M43.35 37.05 L43.15 39.55 Q42.5 43.2 38.9 45.85 37.0 47.3 33.7 48.3 L32.7 49.85 Q30.85 52.05 28.2 52.05 25.6 52.05 23.75 49.85 L23.0 48.8 22.85 48.5 Q19.85 47.7 17.45 45.85 13.8 43.2 13.15 39.55 L13.0 37.05 Q13.0 33.25 14.3 30.05 L14.35 30.05 14.85 29.0 Q13.1 25.8 11.95 22.75 8.7 14.15 10.3 6.55 10.95 3.5 12.45 4.0 15.1 4.9 17.55 7.0 22.5 11.2 26.55 20.35 L28.15 20.25 28.25 20.25 29.15 20.3 29.85 20.35 Q33.85 11.2 38.8 7.0 41.25 4.9 43.9 4.0 45.4 3.5 46.05 6.55 47.65 14.15 44.4 22.75 43.25 25.8 41.5 29.0 L42.65 31.95 Q43.35 34.3 43.35 37.05 M32.5 35.35 Q30.75 36.65 30.0 39.85 33.95 36.05 40.15 33.2 36.1 33.35 32.5 35.35 M29.7 32.1 Q29.55 34.3 31.45 34.4 33.3 34.5 34.3 31.25 33.65 32.2 32.85 32.5 32.9 29.7 31.4 29.85 29.9 29.9 29.7 32.1 M33.95 38.65 Q35.2 38.05 36.2 38.4 L38.25 39.45 40.9 39.7 Q42.45 39.2 42.05 35.5 41.05 37.2 39.35 37.1 L36.4 37.1 Q35.1 37.2 33.95 38.65 M44.9 15.65 L44.95 15.45 Q46.0 10.45 43.95 5.45 39.15 7.7 34.75 13.15 L35.15 12.9 38.25 10.7 38.7 10.4 Q40.35 9.6 42.0 9.35 44.4 11.45 44.9 15.65 M26.7 32.1 Q26.55 29.9 25.0 29.85 L24.9 29.85 Q23.45 29.75 23.5 32.45 22.75 32.15 22.1 31.25 L22.15 31.4 22.05 31.25 Q23.0 34.45 24.85 34.4 L24.95 34.4 Q26.85 34.3 26.7 32.1 M21.25 42.75 Q21.45 41.9 21.95 40.95 22.45 40.0 23.6 40.35 21.85 39.05 20.85 39.7 19.9 40.3 19.6 41.2 L18.55 42.85 Q17.75 43.5 16.75 43.35 18.35 44.85 19.4 44.75 20.4 44.7 20.75 44.15 L21.25 42.75 M26.85 47.25 L27.2 47.8 27.4 48.0 Q28.35 48.2 29.15 48.0 L29.3 47.8 29.65 47.25 29.8 46.35 Q29.1 45.6 28.3 45.35 27.25 45.65 26.7 46.35 L26.85 47.25 M35.1 42.75 L35.6 44.15 Q35.95 44.7 36.95 44.75 38.0 44.85 39.6 43.35 38.6 43.5 37.8 42.85 37.05 42.15 36.75 41.2 36.45 40.3 35.5 39.7 34.5 39.05 32.75 40.35 33.9 40.0 34.45 40.95 L35.1 42.75 M24.05 35.4 Q20.15 33.55 16.3 33.25 22.5 36.1 26.4 39.9 25.25 36.3 24.05 35.4 M22.4 38.65 Q21.25 37.2 19.95 37.1 L17.0 37.1 Q15.3 37.2 14.3 35.5 13.9 39.2 15.45 39.7 16.95 40.2 18.1 39.45 19.25 38.75 20.15 38.4 21.15 38.05 22.4 38.65" fill="#000000" fill-rule="evenodd" stroke="none"/>
      <path d="M11.4 15.65 Q11.9 11.45 14.3 9.35 15.95 9.6 17.55 10.4 L17.6 10.4 21.55 13.15 Q17.1 7.7 12.35 5.45 10.25 10.55 11.4 15.65 M43.35 37.05 L43.15 39.55 Q42.5 43.2 38.9 45.85 37.0 47.3 33.7 48.3 L32.7 49.85 Q30.85 52.05 28.2 52.05 25.6 52.05 23.75 49.85 L23.0 48.8 22.85 48.5 Q19.85 47.7 17.45 45.85 13.8 43.2 13.15 39.55 L13.0 37.05 Q13.0 33.25 14.3 30.05 L14.35 30.05 14.85 29.0 Q13.1 25.8 11.95 22.75 8.7 14.15 10.3 6.55 10.95 3.5 12.45 4.0 15.1 4.9 17.55 7.0 22.5 11.2 26.55 20.35 L28.15 20.25 28.25 20.25 29.15 20.3 29.85 20.35 Q33.85 11.2 38.8 7.0 41.25 4.9 43.9 4.0 45.4 3.5 46.05 6.55 47.65 14.15 44.4 22.75 43.25 25.8 41.5 29.0 L42.65 31.95 Q43.35 34.3 43.35 37.05 M44.9 15.65 Q44.4 11.45 42.0 9.35 40.35 9.6 38.7 10.4 L38.25 10.7 35.15 12.9 34.75 13.15 Q39.15 7.7 43.95 5.45 46.0 10.45 44.95 15.45 L44.9 15.65 M33.95 38.65 Q35.1 37.2 36.4 37.1 L39.35 37.1 Q41.05 37.2 42.05 35.5 42.45 39.2 40.9 39.7 L38.25 39.45 36.2 38.4 Q35.2 38.05 33.95 38.65 M29.7 32.1 Q29.9 29.9 31.4 29.85 32.9 29.7 32.85 32.5 33.65 32.2 34.3 31.25 33.3 34.5 31.45 34.4 29.55 34.3 29.7 32.1 M32.5 35.35 Q36.1 33.35 40.15 33.2 33.95 36.05 30.0 39.85 30.75 36.65 32.5 35.35 M26.7 32.1 Q26.55 29.9 25.0 29.85 L24.9 29.85 Q23.45 29.75 23.5 32.45 22.75 32.15 22.1 31.25 L22.15 31.4 22.05 31.25 Q23.0 34.45 24.85 34.4 L24.95 34.4 Q26.85 34.3 26.7 32.1 M21.25 42.75 Q21.45 41.9 21.95 40.95 22.45 40.0 23.6 40.35 21.85 39.05 20.85 39.7 19.9 40.3 19.6 41.2 L18.55 42.85 Q17.75 43.5 16.75 43.35 18.35 44.85 19.4 44.75 20.4 44.7 20.75 44.15 L21.25 42.75 M26.85 47.25 L27.2 47.8 27.4 48.0 Q28.35 48.2 29.15 48.0 L29.3 47.8 29.65 47.25 29.8 46.35 Q29.1 45.6 28.3 45.35 27.25 45.65 26.7 46.35 L26.85 47.25 M35.1 42.75 L34.45 40.95 Q33.9 40.0 32.75 40.35 34.5 39.05 35.5 39.7 36.45 40.3 36.75 41.2 37.05 42.15 37.8 42.85 38.6 43.5 39.6 43.35 38.0 44.85 36.95 44.75 35.95 44.7 35.6 44.15 L35.1 42.75 M24.05 35.4 Q20.15 33.55 16.3 33.25 22.5 36.1 26.4 39.9 25.25 36.3 24.05 35.4 M22.4 38.65 Q21.25 37.2 19.95 37.1 L17.0 37.1 Q15.3 37.2 14.3 35.5 13.9 39.2 15.45 39.7 16.95 40.2 18.1 39.45 19.25 38.75 20.15 38.4 21.15 38.05 22.4 38.65 Z" fill="none" stroke="#000000" stroke-linecap="round" stroke-linejoin="round" stroke-opacity="0.2" stroke-width="1.0"/>
      <path d="M11.4 15.65 Q11.9 11.45 14.3 9.35 15.95 9.6 17.55 10.4 L17.6 10.4 21.55 13.15 Q17.1 7.7 12.35 5.45 10.25 10.55 11.4 15.65 M43.35 37.05 L43.15 39.55 Q42.5 43.2 38.9 45.85 37.0 47.3 33.7 48.3 L32.7 49.85 Q30.85 52.05 28.2 52.05 25.6 52.05 23.75 49.85 L23.0 48.8 22.85 48.5 Q19.85 47.7 17.45 45.85 13.8 43.2 13.15 39.55 L13.0 37.05 Q13.0 33.25 14.3 30.05 L14.35 30.05 14.85 29.0 Q13.1 25.8 11.95 22.75 8.7 14.15 10.3 6.55 10.95 3.5 12.45 4.0 15.1 4.9 17.55 7.0 22.5 11.2 26.55 20.35 L28.15 20.25 28.25 20.25 29.15 20.3 29.85 20.35 Q33.85 11.2 38.8 7.0 41.25 4.9 43.9 4.0 45.4 3.5 46.05 6.55 47.65 14.15 44.4 22.75 43.25 25.8 41.5 29.0 L42.65 31.95 Q43.35 34.3 43.35 37.05 M32.5 35.35 Q30.75 36.65 30.0 39.85 33.95 36.05 40.15 33.2 36.1 33.35 32.5 35.35 M33.95 38.65 Q35.2 38.05 36.2 38.4 L38.25 39.45 40.9 39.7 Q42.45 39.2 42.05 35.5 41.05 37.2 39.35 37.1 L36.4 37.1 Q35.1 37.2 33.95 38.65 M29.7 32.1 Q29.55 34.3 31.45 34.4 33.3 34.5 34.3 31.25 33.65 32.2 32.85 32.5 32.9 29.7 31.4 29.85 29.9 29.9 29.7 32.1 M44.9 15.65 L44.95 15.45 Q46.0 10.45 43.95 5.45 39.15 7.7 34.75 13.15 L35.15 12.9 38.25 10.7 38.7 10.4 Q40.35 9.6 42.0 9.35 44.4 11.45 44.9 15.65 M26.7 32.1 Q26.55 29.9 25.0 29.85 L24.9 29.85 Q23.45 29.75 23.5 32.45 22.75 32.15 22.1 31.25 L22.15 31.4 22.05 31.25 Q23.0 34.45 24.85 34.4 L24.95 34.4 Q26.85 34.3 26.7 32.1 M21.25 42.75 Q21.45 41.9 21.95 40.95 22.45 40.0 23.6 40.35 21.85 39.05 20.85 39.7 19.9 40.3 19.6 41.2 L18.55 42.85 Q17.75 43.5 16.75 43.35 18.35 44.85 19.4 44.75 20.4 44.7 20.75 44.15 L21.25 42.75 M26.85 47.25 L27.2 47.8 27.4 48.0 Q28.35 48.2 29.15 48.0 L29.3 47.8 29.65 47.25 29.8 46.35 Q29.1 45.6 28.3 45.35 27.25 45.65 26.7 46.35 L26.85 47.25 M35.1 42.75 L35.6 44.15 Q35.95 44.7 36.95 44.75 38.0 44.85 39.6 43.35 38.6 43.5 37.8 42.85 37.05 42.15 36.75 41.2 36.45 40.3 35.5 39.7 34.5 39.05 32.75 40.35 33.9 40.0 34.45 40.95 L35.1 42.75 M24.05 35.4 Q20.15 33.55 16.3 33.25 22.5 36.1 26.4 39.9 25.25 36.3 24.05 35.4 M22.4 38.65 Q21.25 37.2 19.95 37.1 L17.0 37.1 Q15.3 37.2 14.3 35.5 13.9 39.2 15.45 39.7 16.95 40.2 18.1 39.45 19.25 38.75 20.15 38.4 21.15 38.05 22.4 38.65" fill="#000000" fill-rule="evenodd" stroke="none"/>
    </g>
  </defs>
</svg>
