<?xml version="1.0" encoding="UTF-8" standalone="no"?>
<svg xmlns:ffdec="https://www.free-decompiler.com/flash" xmlns:xlink="http://www.w3.org/1999/xlink" ffdec:objectType="frame" height="56.0px" width="56.0px" xmlns="http://www.w3.org/2000/svg">
  <g transform="matrix(1.0, 0.0, 0.0, 1.0, 0.0, 0.0)">
    <use ffdec:characterId="36" ffdec:characterName="35_fla.Symbole105_1" height="56.0" id="back" transform="matrix(1.0, 0.0, 0.0, 1.0, 0.0, 0.0)" width="56.0" xlink:href="#sprite0"/>
    <use ffdec:characterId="38" height="55.55" id="back" transform="matrix(1.0, 0.0, 0.0, 1.0, 0.4, 0.45)" width="55.4" xlink:href="#sprite35"/>
    <use ffdec:characterId="40" height="54.0" id="up" transform="matrix(1.0, 0.0, 0.0, 1.0, 1.15, 1.2)" width="53.9" xlink:href="#sprite36"/>
  </g>
  <defs>
    <g id="sprite0" transform="matrix(1.0, 0.0, 0.0, 1.0, 0.0, 0.0)">
      <use ffdec:characterId="35" ffdec:characterName="35_fla.Symbole102_2" height="56.0" id="back" transform="matrix(1.0, 0.0, 0.0, 1.0, 0.0, 0.0)" width="56.0" xlink:href="#sprite1"/>
    </g>
    <g id="sprite1" transform="matrix(1.0, 0.0, 0.0, 1.0, 0.0, 0.0)">
      <use ffdec:characterId="34" ffdec:characterName="35_fla.Symbole99_3" height="56.0" id="back" transform="matrix(1.0, 0.0, 0.0, 1.0, 0.0, 0.0)" width="56.0" xlink:href="#sprite2"/>
    </g>
    <g id="sprite2" transform="matrix(1.0, 0.0, 0.0, 1.0, 0.0, 0.0)">
      <use ffdec:characterId="33" ffdec:characterName="35_fla.Symbole96_4" height="56.0" id="back" transform="matrix(1.0, 0.0, 0.0, 1.0, 0.0, 0.0)" width="56.0" xlink:href="#sprite3"/>
    </g>
    <g id="sprite3" transform="matrix(1.0, 0.0, 0.0, 1.0, 0.0, 0.0)">
      <use ffdec:characterId="32" ffdec:characterName="35_fla.Symbole93_5" height="56.0" id="back" transform="matrix(1.0, 0.0, 0.0, 1.0, 0.0, 0.0)" width="56.0" xlink:href="#sprite4"/>
    </g>
    <g id="sprite4" transform="matrix(1.0, 0.0, 0.0, 1.0, 0.0, 0.0)">
      <use ffdec:characterId="31" ffdec:characterName="35_fla.Symbole90_6" height="56.0" id="back" transform="matrix(1.0, 0.0, 0.0, 1.0, 0.0, 0.0)" width="56.0" xlink:href="#sprite5"/>
    </g>
    <g id="sprite5" transform="matrix(1.0, 0.0, 0.0, 1.0, 0.0, 0.0)">
      <use ffdec:characterId="30" ffdec:characterName="35_fla.Symbole87_7" height="56.0" id="back" transform="matrix(1.0, 0.0, 0.0, 1.0, 0.0, 0.0)" width="56.0" xlink:href="#sprite6"/>
    </g>
    <g id="sprite6" transform="matrix(1.0, 0.0, 0.0, 1.0, 0.0, 0.0)">
      <use ffdec:characterId="29" ffdec:characterName="35_fla.Symbole84_8" height="56.0" id="back" transform="matrix(1.0, 0.0, 0.0, 1.0, 0.0, 0.0)" width="56.0" xlink:href="#sprite7"/>
    </g>
    <g id="sprite7" transform="matrix(1.0, 0.0, 0.0, 1.0, 0.0, 0.0)">
      <use ffdec:characterId="28" ffdec:characterName="35_fla.Symbole81_9" height="56.0" id="back" transform="matrix(1.0, 0.0, 0.0, 1.0, 0.0, 0.0)" width="56.0" xlink:href="#sprite8"/>
    </g>
    <g id="sprite8" transform="matrix(1.0, 0.0, 0.0, 1.0, 0.0, 0.0)">
      <use ffdec:characterId="27" ffdec:characterName="35_fla.Symbole78_10" height="56.0" id="back" transform="matrix(1.0, 0.0, 0.0, 1.0, 0.0, 0.0)" width="56.0" xlink:href="#sprite9"/>
    </g>
    <g id="sprite9" transform="matrix(1.0, 0.0, 0.0, 1.0, 0.0, 0.0)">
      <use ffdec:characterId="26" ffdec:characterName="35_fla.Symbole75_11" height="56.0" id="back" transform="matrix(1.0, 0.0, 0.0, 1.0, 0.0, 0.0)" width="56.0" xlink:href="#sprite10"/>
    </g>
    <g id="sprite10" transform="matrix(1.0, 0.0, 0.0, 1.0, 0.0, 0.0)">
      <use ffdec:characterId="25" ffdec:characterName="35_fla.Symbole72_12" height="56.0" id="back" transform="matrix(1.0, 0.0, 0.0, 1.0, 0.0, 0.0)" width="56.0" xlink:href="#sprite11"/>
    </g>
    <g id="sprite11" transform="matrix(1.0, 0.0, 0.0, 1.0, 0.0, 0.0)">
      <use ffdec:characterId="24" ffdec:characterName="35_fla.Symbole69_13" height="56.0" id="back" transform="matrix(1.0, 0.0, 0.0, 1.0, 0.0, 0.0)" width="56.0" xlink:href="#sprite12"/>
    </g>
    <g id="sprite12" transform="matrix(1.0, 0.0, 0.0, 1.0, 0.0, 0.0)">
      <use ffdec:characterId="23" ffdec:characterName="35_fla.Symbole66_14" height="56.0" id="back" transform="matrix(1.0, 0.0, 0.0, 1.0, 0.0, 0.0)" width="56.0" xlink:href="#sprite13"/>
    </g>
    <g id="sprite13" transform="matrix(1.0, 0.0, 0.0, 1.0, 0.0, 0.0)">
      <use ffdec:characterId="22" ffdec:characterName="35_fla.Symbole63_15" height="56.0" id="back" transform="matrix(1.0, 0.0, 0.0, 1.0, 0.0, 0.0)" width="56.0" xlink:href="#sprite14"/>
    </g>
    <g id="sprite14" transform="matrix(1.0, 0.0, 0.0, 1.0, 0.0, 0.0)">
      <use ffdec:characterId="21" ffdec:characterName="35_fla.Symbole60_16" height="56.0" id="back" transform="matrix(1.0, 0.0, 0.0, 1.0, 0.0, 0.0)" width="56.0" xlink:href="#sprite15"/>
    </g>
    <g id="sprite15" transform="matrix(1.0, 0.0, 0.0, 1.0, 0.0, 0.0)">
      <use ffdec:characterId="20" ffdec:characterName="35_fla.Symbole57_17" height="56.0" id="back" transform="matrix(1.0, 0.0, 0.0, 1.0, 0.0, 0.0)" width="56.0" xlink:href="#sprite16"/>
    </g>
    <g id="sprite16" transform="matrix(1.0, 0.0, 0.0, 1.0, 0.0, 0.0)">
      <use ffdec:characterId="19" ffdec:characterName="35_fla.Symbole54_18" height="56.0" id="back" transform="matrix(1.0, 0.0, 0.0, 1.0, 0.0, 0.0)" width="56.0" xlink:href="#sprite17"/>
    </g>
    <g id="sprite17" transform="matrix(1.0, 0.0, 0.0, 1.0, 0.0, 0.0)">
      <use ffdec:characterId="18" ffdec:characterName="35_fla.Symbole51_19" height="56.0" id="back" transform="matrix(1.0, 0.0, 0.0, 1.0, 0.0, 0.0)" width="56.0" xlink:href="#sprite18"/>
    </g>
    <g id="sprite18" transform="matrix(1.0, 0.0, 0.0, 1.0, 0.0, 0.0)">
      <use ffdec:characterId="17" ffdec:characterName="35_fla.Symbole48_20" height="56.0" id="back" transform="matrix(1.0, 0.0, 0.0, 1.0, 0.0, 0.0)" width="56.0" xlink:href="#sprite19"/>
    </g>
    <g id="sprite19" transform="matrix(1.0, 0.0, 0.0, 1.0, 0.0, 0.0)">
      <use ffdec:characterId="16" ffdec:characterName="35_fla.Symbole45_21" height="56.0" id="back" transform="matrix(1.0, 0.0, 0.0, 1.0, 0.0, 0.0)" width="56.0" xlink:href="#sprite20"/>
    </g>
    <g id="sprite20" transform="matrix(1.0, 0.0, 0.0, 1.0, 0.0, 0.0)">
      <use ffdec:characterId="15" ffdec:characterName="35_fla.Symbole42_22" height="56.0" id="back" transform="matrix(1.0, 0.0, 0.0, 1.0, 0.0, 0.0)" width="56.0" xlink:href="#sprite21"/>
    </g>
    <g id="sprite21" transform="matrix(1.0, 0.0, 0.0, 1.0, 0.0, 0.0)">
      <use ffdec:characterId="14" ffdec:characterName="35_fla.Symbole39_23" height="56.0" id="back" transform="matrix(1.0, 0.0, 0.0, 1.0, 0.0, 0.0)" width="56.0" xlink:href="#sprite22"/>
    </g>
    <g id="sprite22" transform="matrix(1.0, 0.0, 0.0, 1.0, 0.0, 0.0)">
      <use ffdec:characterId="13" ffdec:characterName="35_fla.Symbole36_24" height="56.0" id="back" transform="matrix(1.0, 0.0, 0.0, 1.0, 0.0, 0.0)" width="56.0" xlink:href="#sprite23"/>
    </g>
    <g id="sprite23" transform="matrix(1.0, 0.0, 0.0, 1.0, 0.0, 0.0)">
      <use ffdec:characterId="12" ffdec:characterName="35_fla.Symbole33_25" height="56.0" id="back" transform="matrix(1.0, 0.0, 0.0, 1.0, 0.0, 0.0)" width="56.0" xlink:href="#sprite24"/>
    </g>
    <g id="sprite24" transform="matrix(1.0, 0.0, 0.0, 1.0, 0.0, 0.0)">
      <use ffdec:characterId="11" ffdec:characterName="35_fla.Symbole30_26" height="56.0" id="back" transform="matrix(1.0, 0.0, 0.0, 1.0, 0.0, 0.0)" width="56.0" xlink:href="#sprite25"/>
    </g>
    <g id="sprite25" transform="matrix(1.0, 0.0, 0.0, 1.0, 0.0, 0.0)">
      <use ffdec:characterId="10" ffdec:characterName="35_fla.Symbole27_27" height="56.0" id="back" transform="matrix(1.0, 0.0, 0.0, 1.0, 0.0, 0.0)" width="56.0" xlink:href="#sprite26"/>
    </g>
    <g id="sprite26" transform="matrix(1.0, 0.0, 0.0, 1.0, 0.0, 0.0)">
      <use ffdec:characterId="9" ffdec:characterName="35_fla.Symbole24_28" height="56.0" id="back" transform="matrix(1.0, 0.0, 0.0, 1.0, 0.0, 0.0)" width="56.0" xlink:href="#sprite27"/>
    </g>
    <g id="sprite27" transform="matrix(1.0, 0.0, 0.0, 1.0, 0.0, 0.0)">
      <use ffdec:characterId="8" ffdec:characterName="35_fla.Symbole21_29" height="56.0" id="back" transform="matrix(1.0, 0.0, 0.0, 1.0, 0.0, 0.0)" width="56.0" xlink:href="#sprite28"/>
    </g>
    <g id="sprite28" transform="matrix(1.0, 0.0, 0.0, 1.0, 0.0, 0.0)">
      <use ffdec:characterId="7" ffdec:characterName="35_fla.Symbole18_30" height="56.0" id="back" transform="matrix(1.0, 0.0, 0.0, 1.0, 0.0, 0.0)" width="56.0" xlink:href="#sprite29"/>
    </g>
    <g id="sprite29" transform="matrix(1.0, 0.0, 0.0, 1.0, 0.0, 0.0)">
      <use ffdec:characterId="6" ffdec:characterName="35_fla.Symbole15_31" height="56.0" id="back" transform="matrix(1.0, 0.0, 0.0, 1.0, 0.0, 0.0)" width="56.0" xlink:href="#sprite30"/>
    </g>
    <g id="sprite30" transform="matrix(1.0, 0.0, 0.0, 1.0, 0.0, 0.0)">
      <use ffdec:characterId="5" ffdec:characterName="35_fla.Symbole12_32" height="56.0" id="back" transform="matrix(1.0, 0.0, 0.0, 1.0, 0.0, 0.0)" width="56.0" xlink:href="#sprite31"/>
    </g>
    <g id="sprite31" transform="matrix(1.0, 0.0, 0.0, 1.0, 0.0, 0.0)">
      <use ffdec:characterId="4" ffdec:characterName="35_fla.Symbole9_33" height="56.0" id="back" transform="matrix(1.0, 0.0, 0.0, 1.0, 0.0, 0.0)" width="56.0" xlink:href="#sprite32"/>
    </g>
    <g id="sprite32" transform="matrix(1.0, 0.0, 0.0, 1.0, 0.0, 0.0)">
      <use ffdec:characterId="3" ffdec:characterName="35_fla.Symbole6_34" height="56.0" id="back" transform="matrix(1.0, 0.0, 0.0, 1.0, 0.0, 0.0)" width="56.0" xlink:href="#sprite33"/>
    </g>
    <g id="sprite33" transform="matrix(1.0, 0.0, 0.0, 1.0, 0.0, 0.0)">
      <use ffdec:characterId="2" height="56.0" id="back" transform="matrix(1.0, 0.0, 0.0, 1.0, 0.0, 0.0)" width="56.0" xlink:href="#sprite34"/>
    </g>
    <g id="sprite34" transform="matrix(1.0, 0.0, 0.0, 1.0, 0.0, 0.0)">
      <use ffdec:characterId="1" height="56.0" transform="matrix(1.0, 0.0, 0.0, 1.0, 0.0, 0.0)" width="56.0" xlink:href="#shape0"/>
    </g>
    <g id="shape0" transform="matrix(1.0, 0.0, 0.0, 1.0, 0.0, 0.0)">
      <path d="M56.0 56.0 L0.0 56.0 0.0 0.0 56.0 0.0 56.0 56.0" fill="#010101" fill-opacity="0.0" fill-rule="evenodd" stroke="none"/>
    </g>
    <g id="sprite35" transform="matrix(1.0, 0.0, 0.0, 1.0, 0.75, 0.75)">
      <use ffdec:characterId="37" height="55.55" transform="matrix(1.0, 0.0, 0.0, 1.0, -0.75, -0.75)" width="55.4" xlink:href="#shape1"/>
    </g>
    <g id="shape1" transform="matrix(1.0, 0.0, 0.0, 1.0, 0.75, 0.75)">
      <path d="M53.9 19.5 Q53.65 11.9 44.6 9.35 42.1 0.3 34.55 0.05 35.4 3.3 34.8 8.7 34.5 11.55 32.65 15.95 31.45 18.6 28.0 23.85 29.55 24.4 30.05 25.9 35.25 22.5 37.9 21.35 42.3 19.5 45.3 19.2 L53.9 19.5 M41.7 23.4 L42.25 24.7 44.4 25.15 Q45.75 25.7 47.2 27.0 L44.4 28.8 42.25 29.4 41.7 30.55 40.2 32.2 Q38.45 30.25 35.6 29.0 33.7 28.15 30.2 27.3 L30.2 26.65 35.6 25.05 Q38.45 23.75 40.2 21.9 L41.7 23.4 M53.75 34.65 L45.15 35.0 Q42.25 34.55 37.9 32.7 35.15 31.55 30.0 28.15 29.4 29.55 28.0 30.1 31.35 35.4 32.55 38.1 34.25 42.55 34.7 45.35 35.25 50.6 34.35 54.05 41.85 53.8 44.45 44.75 53.5 42.2 53.75 34.65 M28.75 9.35 L29.15 11.7 Q29.6 11.7 30.45 12.15 L31.95 13.65 Q30.05 15.4 28.9 18.2 28.0 20.15 27.25 23.75 L26.55 23.75 Q25.7 20.15 24.85 18.2 23.75 15.4 21.75 13.65 22.2 12.8 23.3 12.15 24.0 11.7 24.6 11.7 L25.0 9.35 Q25.5 7.95 26.95 6.5 28.1 7.95 28.75 9.35 M9.35 9.25 Q0.2 11.7 0.0 19.3 L8.6 19.05 Q11.5 19.45 15.8 21.25 18.55 22.35 23.75 25.9 24.2 24.4 25.7 23.85 22.3 18.55 21.2 15.8 19.4 11.45 19.05 8.65 18.4 3.25 19.45 0.0 15.15 0.05 12.35 3.25 10.35 5.45 9.35 9.25 M13.55 21.9 Q15.3 23.75 18.2 25.05 L23.6 26.65 23.6 27.3 Q20.0 28.15 18.2 29.0 15.3 30.25 13.55 32.2 12.7 31.6 12.15 30.55 11.65 29.8 11.65 29.4 L9.35 28.8 Q8.0 28.25 6.55 27.0 8.0 25.7 9.35 25.15 9.95 24.85 11.65 24.7 11.65 24.15 12.15 23.4 12.7 22.35 13.55 21.9 M0.0 34.4 Q0.05 41.95 9.1 44.6 11.65 53.65 19.25 54.05 18.2 50.55 18.95 45.35 19.25 42.4 21.15 38.1 22.2 35.4 25.7 30.1 24.2 29.55 23.75 28.1 18.6 31.4 15.8 32.6 11.5 34.4 8.6 34.8 L0.0 34.4 M28.9 35.7 Q30.05 38.55 31.95 40.4 L30.45 41.8 29.15 42.35 28.75 44.6 Q28.25 45.9 26.95 47.4 25.5 45.9 25.0 44.6 L24.6 42.35 23.3 41.8 Q22.2 41.1 21.75 40.4 23.75 38.55 24.85 35.7 25.7 33.75 26.55 30.3 L26.95 30.3 27.25 30.3 Q28.0 33.75 28.9 35.7 Z" fill="none" stroke="#000000" stroke-linecap="round" stroke-linejoin="round" stroke-opacity="0.2" stroke-width="1.5"/>
    </g>
    <g id="sprite36" transform="matrix(1.0, 0.0, 0.0, 1.0, 0.0, 0.0)">
      <use ffdec:characterId="39" height="54.0" transform="matrix(1.0, 0.0, 0.0, 1.0, 0.0, 0.0)" width="53.9" xlink:href="#shape2"/>
    </g>
    <g id="shape2" transform="matrix(1.0, 0.0, 0.0, 1.0, 0.0, 0.0)">
      <path d="M41.7 23.4 L42.25 24.7 44.4 25.15 Q45.75 25.7 47.2 27.0 45.7 28.3 44.4 28.8 L42.25 29.4 41.7 30.55 40.15 32.2 Q38.45 30.25 35.65 29.0 33.7 28.15 30.2 27.3 L30.2 26.65 35.65 25.05 Q38.45 23.75 40.15 21.9 41.05 22.3 41.7 23.4 M45.15 35.0 L53.75 34.65 Q53.55 42.2 44.5 44.8 41.9 53.8 34.35 54.0 35.2 50.65 34.7 45.4 34.25 42.55 32.55 38.1 31.35 35.45 28.0 30.1 29.4 29.6 29.95 28.15 35.15 31.55 37.95 32.7 42.25 34.55 45.15 35.0 M53.9 19.5 L45.25 19.25 Q42.3 19.5 37.95 21.4 35.2 22.45 30.05 25.95 29.55 24.4 28.0 23.85 31.45 18.65 32.6 16.0 34.5 11.5 34.8 8.7 35.4 3.3 34.55 0.05 42.1 0.3 44.6 9.35 53.7 11.95 53.9 19.5 M26.95 6.55 Q28.1 8.0 28.75 9.35 L29.15 11.65 Q29.6 11.75 30.45 12.15 31.45 12.8 31.95 13.7 30.05 15.4 28.9 18.2 28.0 20.15 27.25 23.75 L26.6 23.75 Q25.7 20.15 24.85 18.2 23.7 15.4 21.75 13.7 22.2 12.8 23.3 12.15 L24.55 11.65 25.0 9.35 Q25.5 8.0 26.95 6.55 M13.6 21.9 Q15.3 23.75 18.15 25.05 L23.55 26.65 23.55 27.3 Q20.05 28.15 18.15 29.0 15.3 30.25 13.6 32.2 12.7 31.6 12.15 30.55 11.65 29.8 11.65 29.4 L9.35 28.8 Q7.95 28.3 6.55 27.0 7.95 25.7 9.35 25.15 10.0 24.85 11.65 24.7 11.65 24.2 12.15 23.4 12.7 22.3 13.6 21.9 M0.0 34.45 L8.6 34.8 Q11.5 34.45 15.8 32.65 18.6 31.4 23.8 28.1 24.2 29.6 25.7 30.1 22.2 35.45 21.1 38.1 19.25 42.4 18.95 45.4 18.15 50.55 19.25 54.0 11.65 53.65 9.1 44.6 0.05 42.0 0.0 34.45 M9.35 9.3 Q10.35 5.45 12.35 3.25 15.15 0.05 19.45 0.0 18.4 3.25 19.05 8.65 19.4 11.45 21.2 15.85 22.25 18.6 25.7 23.85 24.2 24.4 23.8 25.95 18.55 22.3 15.8 21.25 11.5 19.45 8.6 19.1 3.3 18.35 0.0 19.3 0.2 11.75 9.35 9.3 M27.25 30.3 Q28.0 33.8 28.9 35.7 30.05 38.55 31.95 40.4 L30.45 41.8 29.15 42.35 28.75 44.6 Q28.25 45.9 26.95 47.4 25.5 45.9 25.0 44.6 L24.55 42.35 23.3 41.8 Q22.2 41.15 21.75 40.4 23.7 38.55 24.85 35.7 25.7 33.8 26.6 30.3 L26.95 30.3 27.25 30.3" fill="#000000" fill-rule="evenodd" stroke="none"/>
    </g>
  </defs>
</svg>
