<?xml version="1.0" encoding="UTF-8" standalone="no"?>
<svg xmlns:ffdec="https://www.free-decompiler.com/flash" xmlns:xlink="http://www.w3.org/1999/xlink" ffdec:objectType="frame" height="56.0px" width="56.0px" xmlns="http://www.w3.org/2000/svg">
  <g transform="matrix(1.0, 0.0, 0.0, 1.0, 0.0, 0.0)">
    <use ffdec:characterId="2" height="56.0" id="back" transform="matrix(1.0, 0.0, 0.0, 1.0, 0.0, 0.0)" width="56.0" xlink:href="#sprite0"/>
    <use ffdec:characterId="3" height="53.95" transform="matrix(1.0, 0.0, 0.0, 1.0, 11.4, 1.2)" width="32.95" xlink:href="#shape1"/>
  </g>
  <defs>
    <g id="sprite0" transform="matrix(1.0, 0.0, 0.0, 1.0, 0.0, 0.0)">
      <use ffdec:characterId="1" height="56.0" transform="matrix(1.0, 0.0, 0.0, 1.0, 0.0, 0.0)" width="56.0" xlink:href="#shape0"/>
    </g>
    <g id="shape0" transform="matrix(1.0, 0.0, 0.0, 1.0, 0.0, 0.0)">
      <path d="M56.0 56.0 L0.0 56.0 0.0 0.0 56.0 0.0 56.0 56.0" fill="#010101" fill-opacity="0.0" fill-rule="evenodd" stroke="none"/>
    </g>
    <g id="shape1" transform="matrix(1.0, 0.0, 0.0, 1.0, -11.4, -1.2)">
      <path d="M27.75 53.05 L28.05 53.05 Q31.1 53.05 33.65 51.55 L34.2 51.2 34.7 50.8 Q35.3 45.55 34.4 40.45 L33.15 39.55 Q32.4 38.65 32.4 37.35 32.4 36.1 33.15 35.2 33.85 34.25 34.85 34.25 35.9 34.25 36.65 35.2 37.35 36.1 37.35 37.35 37.35 38.65 36.65 39.55 L35.95 40.15 Q36.55 43.85 36.2 49.5 L36.2 49.55 36.95 48.7 37.2 48.4 Q41.0 43.75 41.0 37.2 41.0 32.15 38.75 28.25 L39.1 28.05 39.2 28.0 39.35 27.55 40.75 23.6 40.95 23.1 39.65 22.35 40.45 20.1 41.5 20.65 42.25 16.55 Q43.35 8.3 40.7 3.15 40.4 3.15 38.45 6.5 36.5 9.9 34.4 16.55 L35.7 17.3 34.65 19.45 33.35 18.7 32.2 20.85 32.1 21.05 31.8 21.55 31.7 21.7 31.65 21.95 28.05 21.35 27.75 21.35 27.7 21.35 24.1 21.95 24.05 21.7 24.0 21.55 23.7 21.05 23.6 20.85 22.45 18.7 21.1 19.45 20.05 17.3 21.4 16.55 Q19.25 9.9 17.3 6.5 15.4 3.15 15.05 3.15 12.4 8.3 13.5 16.55 L14.25 20.65 15.3 20.1 16.15 22.35 14.85 23.1 15.0 23.6 16.45 27.55 16.6 28.0 16.65 28.05 17.0 28.25 Q14.8 32.15 14.8 37.2 14.8 43.75 18.6 48.4 L18.8 48.7 19.55 49.55 19.55 49.5 Q19.2 43.85 19.85 40.15 L19.15 39.55 Q18.45 38.65 18.45 37.35 18.45 36.1 19.15 35.2 19.85 34.25 20.9 34.25 21.95 34.25 22.65 35.2 23.35 36.1 23.35 37.35 23.35 38.65 22.65 39.55 L21.4 40.45 Q20.5 45.55 21.05 50.8 L21.55 51.2 22.1 51.55 Q24.65 53.05 27.7 53.05 L27.75 53.05 M28.05 19.75 L31.0 20.1 32.15 18.05 32.65 17.6 32.7 17.55 33.2 17.35 Q32.8 16.85 33.0 16.15 L34.6 11.55 35.65 8.95 36.7 6.8 37.75 4.9 38.7 3.45 39.45 2.4 Q40.3 1.35 41.35 1.85 L41.5 1.95 41.75 2.2 41.85 2.3 42.6 3.95 42.6 4.0 Q43.55 6.35 43.8 8.9 L43.85 12.65 43.6 16.7 43.1 19.9 42.65 21.3 42.05 21.85 41.7 22.0 41.9 22.2 Q42.25 22.55 42.25 23.05 L42.1 24.0 41.7 25.25 40.5 28.45 41.2 30.25 42.05 33.6 42.3 35.95 42.25 38.95 41.7 42.25 40.65 45.35 40.65 45.3 39.15 48.15 37.4 50.5 36.55 51.3 35.75 51.95 Q34.5 53.05 32.85 53.7 L29.75 54.55 27.9 54.65 26.05 54.55 22.9 53.7 20.0 51.95 19.25 51.3 18.4 50.5 16.6 48.15 15.15 45.3 15.15 45.35 Q14.45 43.85 14.1 42.25 13.65 40.6 13.5 38.95 L13.45 35.95 Q13.5 34.75 13.7 33.6 13.95 31.9 14.55 30.25 L15.25 28.45 14.1 25.25 13.65 24.0 13.5 23.05 Q13.5 22.55 13.9 22.2 L14.1 22.0 13.7 21.85 13.1 21.3 12.7 19.9 12.15 16.7 Q11.95 14.65 11.9 12.65 L12.0 8.9 Q12.2 6.35 13.2 4.0 L13.2 3.95 13.95 2.3 14.0 2.2 14.25 1.95 14.4 1.85 Q15.45 1.35 16.3 2.4 L16.35 2.4 17.05 3.45 18.0 4.9 19.05 6.8 20.1 8.95 21.15 11.55 22.75 16.15 Q23.0 16.85 22.6 17.35 L23.1 17.55 23.1 17.6 23.65 18.05 24.75 20.1 27.7 19.75 27.9 19.75 28.05 19.75 M27.95 51.6 L27.85 51.6 27.7 51.6 Q26.8 51.55 26.2 50.8 25.5 50.05 25.5 48.95 25.5 47.85 26.2 47.1 26.9 46.3 27.85 46.3 L27.95 46.3 Q28.9 46.35 29.6 47.1 30.3 47.85 30.3 48.95 30.3 50.05 29.6 50.8 28.9 51.55 27.95 51.6" fill="#000000" fill-rule="evenodd" stroke="none"/>
      <path d="M28.05 19.75 L27.9 19.75 27.7 19.75 24.75 20.1 23.65 18.05 23.1 17.6 23.1 17.55 22.6 17.35 Q23.0 16.85 22.75 16.15 L21.15 11.55 20.1 8.95 19.05 6.8 18.0 4.9 17.05 3.45 16.35 2.4 16.3 2.4 Q15.45 1.35 14.4 1.85 L14.25 1.95 14.0 2.2 13.95 2.3 13.2 3.95 13.2 4.0 Q12.2 6.35 12.0 8.9 L11.9 12.65 Q11.95 14.65 12.15 16.7 L12.7 19.9 13.1 21.3 13.7 21.85 14.1 22.0 13.9 22.2 Q13.5 22.55 13.5 23.05 L13.65 24.0 14.1 25.25 15.25 28.45 14.55 30.25 Q13.95 31.9 13.7 33.6 13.5 34.75 13.45 35.95 L13.5 38.95 Q13.65 40.6 14.1 42.25 14.45 43.85 15.15 45.35 L15.15 45.3 16.6 48.15 18.4 50.5 19.25 51.3 20.0 51.95 22.9 53.7 26.05 54.55 27.9 54.65 29.75 54.55 32.85 53.7 Q34.5 53.05 35.75 51.95 L36.55 51.3 37.4 50.5 39.15 48.15 40.65 45.3 40.65 45.35 41.7 42.25 42.25 38.95 42.3 35.95 42.05 33.6 41.2 30.25 40.5 28.45 41.7 25.25 42.1 24.0 42.25 23.05 Q42.25 22.55 41.9 22.2 L41.7 22.0 42.05 21.85 42.65 21.3 43.1 19.9 43.6 16.7 43.85 12.65 43.8 8.9 Q43.55 6.35 42.6 4.0 L42.6 3.95 41.85 2.3 41.75 2.2 41.5 1.95 41.35 1.85 Q40.3 1.35 39.45 2.4 L38.7 3.45 37.75 4.9 36.7 6.8 35.65 8.95 34.6 11.55 33.0 16.15 Q32.8 16.85 33.2 17.35 L32.7 17.55 32.65 17.6 32.15 18.05 31.0 20.1 28.05 19.75 M27.75 53.05 L27.7 53.05 Q24.65 53.05 22.1 51.55 L21.55 51.2 21.05 50.8 Q20.5 45.55 21.4 40.45 L22.65 39.55 Q23.35 38.65 23.35 37.35 23.35 36.1 22.65 35.2 21.95 34.25 20.9 34.25 19.85 34.25 19.15 35.2 18.45 36.1 18.45 37.35 18.45 38.65 19.15 39.55 L19.85 40.15 Q19.2 43.85 19.55 49.5 L19.55 49.55 18.8 48.7 18.6 48.4 Q14.8 43.75 14.8 37.2 14.8 32.15 17.0 28.25 L16.65 28.05 16.6 28.0 16.45 27.55 15.0 23.6 14.85 23.1 16.15 22.35 15.3 20.1 14.25 20.65 13.5 16.55 Q12.4 8.3 15.05 3.15 15.4 3.15 17.3 6.5 19.25 9.9 21.4 16.55 L20.05 17.3 21.1 19.45 22.45 18.7 23.6 20.85 23.7 21.05 24.0 21.55 24.05 21.7 24.1 21.95 27.7 21.35 27.75 21.35 28.05 21.35 31.65 21.95 31.7 21.7 31.8 21.55 32.1 21.05 32.2 20.85 33.35 18.7 34.65 19.45 35.7 17.3 34.4 16.55 Q36.5 9.9 38.45 6.5 40.4 3.15 40.7 3.15 43.35 8.3 42.25 16.55 L41.5 20.65 40.45 20.1 39.65 22.35 40.95 23.1 40.75 23.6 39.35 27.55 39.2 28.0 39.1 28.05 38.75 28.25 Q41.0 32.15 41.0 37.2 41.0 43.75 37.2 48.4 L36.95 48.7 36.2 49.55 36.2 49.5 Q36.55 43.85 35.95 40.15 L36.65 39.55 Q37.35 38.65 37.35 37.35 37.35 36.1 36.65 35.2 35.9 34.25 34.85 34.25 33.85 34.25 33.15 35.2 32.4 36.1 32.4 37.35 32.4 38.65 33.15 39.55 L34.4 40.45 Q35.3 45.55 34.7 50.8 L34.2 51.2 33.65 51.55 Q31.1 53.05 28.05 53.05 L27.75 53.05 M27.95 51.6 L27.85 51.6 27.7 51.6 Q26.8 51.55 26.2 50.8 25.5 50.05 25.5 48.95 25.5 47.85 26.2 47.1 26.9 46.3 27.85 46.3 L27.95 46.3 Q28.9 46.35 29.6 47.1 30.3 47.85 30.3 48.95 30.3 50.05 29.6 50.8 28.9 51.55 27.95 51.6 Z" fill="none" stroke="#000000" stroke-linecap="round" stroke-linejoin="round" stroke-opacity="0.2" stroke-width="1.0"/>
      <path d="M27.75 53.05 L28.05 53.05 Q31.1 53.05 33.65 51.55 L34.2 51.2 34.7 50.8 Q35.3 45.55 34.4 40.45 L33.15 39.55 Q32.4 38.65 32.4 37.35 32.4 36.1 33.15 35.2 33.85 34.25 34.85 34.25 35.9 34.25 36.65 35.2 37.35 36.1 37.35 37.35 37.35 38.65 36.65 39.55 L35.95 40.15 Q36.55 43.85 36.2 49.5 L36.2 49.55 36.95 48.7 37.2 48.4 Q41.0 43.75 41.0 37.2 41.0 32.15 38.75 28.25 L39.1 28.05 39.2 28.0 39.35 27.55 40.75 23.6 40.95 23.1 39.65 22.35 40.45 20.1 41.5 20.65 42.25 16.55 Q43.35 8.3 40.7 3.15 40.4 3.15 38.45 6.5 36.5 9.9 34.4 16.55 L35.7 17.3 34.65 19.45 33.35 18.7 32.2 20.85 32.1 21.05 31.8 21.55 31.7 21.7 31.65 21.95 28.05 21.35 27.75 21.35 27.7 21.35 24.1 21.95 24.05 21.7 24.0 21.55 23.7 21.05 23.6 20.85 22.45 18.7 21.1 19.45 20.05 17.3 21.4 16.55 Q19.25 9.9 17.3 6.5 15.4 3.15 15.05 3.15 12.4 8.3 13.5 16.55 L14.25 20.65 15.3 20.1 16.15 22.35 14.85 23.1 15.0 23.6 16.45 27.55 16.6 28.0 16.65 28.05 17.0 28.25 Q14.8 32.15 14.8 37.2 14.8 43.75 18.6 48.4 L18.8 48.7 19.55 49.55 19.55 49.5 Q19.2 43.85 19.85 40.15 L19.15 39.55 Q18.45 38.65 18.45 37.35 18.45 36.1 19.15 35.2 19.85 34.25 20.9 34.25 21.95 34.25 22.65 35.2 23.35 36.1 23.35 37.35 23.35 38.65 22.65 39.55 L21.4 40.45 Q20.5 45.55 21.05 50.8 L21.55 51.2 22.1 51.55 Q24.65 53.05 27.7 53.05 L27.75 53.05 M28.05 19.75 L31.0 20.1 32.15 18.05 32.65 17.6 32.7 17.55 33.2 17.35 Q32.8 16.85 33.0 16.15 L34.6 11.55 35.65 8.95 36.7 6.8 37.75 4.9 38.7 3.45 39.45 2.4 Q40.3 1.35 41.35 1.85 L41.5 1.95 41.75 2.2 41.85 2.3 42.6 3.95 42.6 4.0 Q43.55 6.35 43.8 8.9 L43.85 12.65 43.6 16.7 43.1 19.9 42.65 21.3 42.05 21.85 41.7 22.0 41.9 22.2 Q42.25 22.55 42.25 23.05 L42.1 24.0 41.7 25.25 40.5 28.45 41.2 30.25 42.05 33.6 42.3 35.95 42.25 38.95 41.7 42.25 40.65 45.35 40.65 45.3 39.15 48.15 37.4 50.5 36.55 51.3 35.75 51.95 Q34.5 53.05 32.85 53.7 L29.75 54.55 27.9 54.65 26.05 54.55 22.9 53.7 20.0 51.95 19.25 51.3 18.4 50.5 16.6 48.15 15.15 45.3 15.15 45.35 Q14.45 43.85 14.1 42.25 13.65 40.6 13.5 38.95 L13.45 35.95 Q13.5 34.75 13.7 33.6 13.95 31.9 14.55 30.25 L15.25 28.45 14.1 25.25 13.65 24.0 13.5 23.05 Q13.5 22.55 13.9 22.2 L14.1 22.0 13.7 21.85 13.1 21.3 12.7 19.9 12.15 16.7 Q11.95 14.65 11.9 12.65 L12.0 8.9 Q12.2 6.35 13.2 4.0 L13.2 3.95 13.95 2.3 14.0 2.2 14.25 1.95 14.4 1.85 Q15.45 1.35 16.3 2.4 L16.35 2.4 17.05 3.45 18.0 4.9 19.05 6.8 20.1 8.95 21.15 11.55 22.75 16.15 Q23.0 16.85 22.6 17.35 L23.1 17.55 23.1 17.6 23.65 18.05 24.75 20.1 27.7 19.75 27.9 19.75 28.05 19.75 M27.95 51.6 L27.85 51.6 27.7 51.6 Q26.8 51.55 26.2 50.8 25.5 50.05 25.5 48.95 25.5 47.85 26.2 47.1 26.9 46.3 27.85 46.3 L27.95 46.3 Q28.9 46.35 29.6 47.1 30.3 47.85 30.3 48.95 30.3 50.05 29.6 50.8 28.9 51.55 27.95 51.6" fill="#000000" fill-rule="evenodd" stroke="none"/>
    </g>
  </defs>
</svg>
