<?xml version="1.0" encoding="UTF-8" standalone="no"?>
<svg xmlns:ffdec="https://www.free-decompiler.com/flash" xmlns:xlink="http://www.w3.org/1999/xlink" ffdec:objectType="frame" height="56.0px" width="56.0px" xmlns="http://www.w3.org/2000/svg">
  <g transform="matrix(1.0, 0.0, 0.0, 1.0, 0.0, 0.0)">
    <use ffdec:characterId="2" height="56.0" id="back" transform="matrix(1.0, 0.0, 0.0, 1.0, 0.0, 0.0)" width="56.0" xlink:href="#sprite0"/>
    <use ffdec:characterId="3" height="51.85" transform="matrix(1.0, 0.0, 0.0, 1.0, 12.75, 2.55)" width="30.3" xlink:href="#shape1"/>
  </g>
  <defs>
    <g id="sprite0" transform="matrix(1.0, 0.0, 0.0, 1.0, 0.0, 0.0)">
      <use ffdec:characterId="1" height="56.0" transform="matrix(1.0, 0.0, 0.0, 1.0, 0.0, 0.0)" width="56.0" xlink:href="#shape0"/>
    </g>
    <g id="shape0" transform="matrix(1.0, 0.0, 0.0, 1.0, 0.0, 0.0)">
      <path d="M56.0 56.0 L0.0 56.0 0.0 0.0 56.0 0.0 56.0 56.0" fill="#010101" fill-opacity="0.0" fill-rule="evenodd" stroke="none"/>
    </g>
    <g id="shape1" transform="matrix(1.0, 0.0, 0.0, 1.0, -12.75, -2.55)">
      <path d="M42.05 37.05 Q42.05 44.05 37.95 49.0 L36.35 50.7 Q36.85 44.15 36.2 40.05 L36.85 39.45 Q37.55 38.55 37.55 37.25 37.55 36.0 36.85 35.05 36.1 34.15 35.05 34.15 34.0 34.15 33.3 35.05 32.55 36.0 32.55 37.25 32.55 38.55 33.3 39.45 L34.6 40.3 Q35.55 46.05 34.8 51.9 31.8 53.9 28.05 53.9 24.4 53.9 21.4 51.95 20.55 46.1 21.6 40.3 L22.85 39.45 Q23.65 38.55 23.65 37.25 23.65 36.0 22.85 35.05 22.15 34.15 21.15 34.15 20.05 34.15 19.35 35.05 18.6 36.0 18.6 37.25 18.6 38.55 19.35 39.45 L20.0 40.05 Q19.3 44.15 19.85 50.75 L18.15 49.0 Q14.1 44.05 14.1 37.05 14.1 31.65 16.6 27.5 L15.1 23.5 14.95 23.0 16.3 22.25 15.4 20.0 14.35 20.55 13.55 16.45 Q12.5 8.2 15.15 3.05 15.5 3.05 17.5 6.4 19.5 9.8 21.65 16.45 L20.25 17.25 21.35 19.35 22.7 18.6 23.9 20.75 24.0 20.95 Q25.95 20.25 28.05 20.25 30.1 20.25 31.9 20.85 L31.95 20.75 33.1 18.6 34.5 19.35 35.55 17.25 34.2 16.45 Q36.35 9.8 38.35 6.4 40.3 3.05 40.7 3.05 43.35 8.2 42.25 16.45 L41.5 20.55 40.4 20.0 39.55 22.25 40.9 23.0 40.75 23.5 39.4 27.15 Q42.05 31.45 42.05 37.05 M30.65 48.85 Q30.65 47.8 29.95 47.0 29.25 46.25 28.2 46.25 27.2 46.25 26.55 47.0 25.8 47.8 25.8 48.85 25.8 49.95 26.55 50.7 27.2 51.5 28.2 51.5 29.25 51.5 29.95 50.7 30.65 49.95 30.65 48.85" fill="#000000" fill-rule="evenodd" stroke="none"/>
      <path d="M42.05 37.05 Q42.05 44.05 37.95 49.0 L36.35 50.7 Q36.85 44.15 36.2 40.05 L36.85 39.45 Q37.55 38.55 37.55 37.25 37.55 36.0 36.85 35.05 36.1 34.15 35.05 34.15 34.0 34.15 33.3 35.05 32.55 36.0 32.55 37.25 32.55 38.55 33.3 39.45 L34.6 40.3 Q35.55 46.05 34.8 51.9 31.8 53.9 28.05 53.9 24.4 53.9 21.4 51.95 20.55 46.1 21.6 40.3 L22.85 39.45 Q23.65 38.55 23.65 37.25 23.65 36.0 22.85 35.05 22.15 34.15 21.15 34.15 20.05 34.15 19.35 35.05 18.6 36.0 18.6 37.25 18.6 38.55 19.35 39.45 L20.0 40.05 Q19.3 44.15 19.85 50.75 L18.15 49.0 Q14.1 44.05 14.1 37.05 14.1 31.65 16.6 27.5 L15.1 23.5 14.95 23.0 16.3 22.25 15.4 20.0 14.35 20.55 13.55 16.45 Q12.5 8.2 15.15 3.05 15.5 3.05 17.5 6.4 19.5 9.8 21.65 16.45 L20.25 17.25 21.35 19.35 22.7 18.6 23.9 20.75 24.0 20.95 Q25.95 20.25 28.05 20.25 30.1 20.25 31.9 20.85 L31.95 20.75 33.1 18.6 34.5 19.35 35.55 17.25 34.2 16.45 Q36.35 9.8 38.35 6.4 40.3 3.05 40.7 3.05 43.35 8.2 42.25 16.45 L41.5 20.55 40.4 20.0 39.55 22.25 40.9 23.0 40.75 23.5 39.4 27.15 Q42.05 31.45 42.05 37.05 M30.65 48.85 Q30.65 49.95 29.95 50.7 29.25 51.5 28.2 51.5 27.2 51.5 26.55 50.7 25.8 49.95 25.8 48.85 25.8 47.8 26.55 47.0 27.2 46.25 28.2 46.25 29.25 46.25 29.95 47.0 30.65 47.8 30.65 48.85 Z" fill="none" stroke="#000000" stroke-linecap="round" stroke-linejoin="round" stroke-opacity="0.2" stroke-width="1.0"/>
      <path d="M42.05 37.05 Q42.05 44.05 37.95 49.0 L36.35 50.7 Q36.85 44.15 36.2 40.05 L36.85 39.45 Q37.55 38.55 37.55 37.25 37.55 36.0 36.85 35.05 36.1 34.15 35.05 34.15 34.0 34.15 33.3 35.05 32.55 36.0 32.55 37.25 32.55 38.55 33.3 39.45 L34.6 40.3 Q35.55 46.05 34.8 51.9 31.8 53.9 28.05 53.9 24.4 53.9 21.4 51.95 20.55 46.1 21.6 40.3 L22.85 39.45 Q23.65 38.55 23.65 37.25 23.65 36.0 22.85 35.05 22.15 34.15 21.15 34.15 20.05 34.15 19.35 35.05 18.6 36.0 18.6 37.25 18.6 38.55 19.35 39.45 L20.0 40.05 Q19.3 44.15 19.85 50.75 L18.15 49.0 Q14.1 44.05 14.1 37.05 14.1 31.65 16.6 27.5 L15.1 23.5 14.95 23.0 16.3 22.25 15.4 20.0 14.35 20.55 13.55 16.45 Q12.5 8.2 15.15 3.05 15.5 3.05 17.5 6.4 19.5 9.8 21.65 16.45 L20.25 17.25 21.35 19.35 22.7 18.6 23.9 20.75 24.0 20.95 Q25.95 20.25 28.05 20.25 30.1 20.25 31.9 20.85 L31.95 20.75 33.1 18.6 34.5 19.35 35.55 17.25 34.2 16.45 Q36.35 9.8 38.35 6.4 40.3 3.05 40.7 3.05 43.35 8.2 42.25 16.45 L41.5 20.55 40.4 20.0 39.55 22.25 40.9 23.0 40.75 23.5 39.4 27.15 Q42.05 31.45 42.05 37.05 M30.65 48.85 Q30.65 47.8 29.95 47.0 29.25 46.25 28.2 46.25 27.2 46.25 26.55 47.0 25.8 47.8 25.8 48.85 25.8 49.95 26.55 50.7 27.2 51.5 28.2 51.5 29.25 51.5 29.95 50.7 30.65 49.95 30.65 48.85" fill="#000000" fill-rule="evenodd" stroke="none"/>
    </g>
  </defs>
</svg>
