<?xml version="1.0" encoding="UTF-8" standalone="no"?>
<svg xmlns:ffdec="https://www.free-decompiler.com/flash" xmlns:xlink="http://www.w3.org/1999/xlink" ffdec:objectType="frame" height="56.0px" width="56.0px" xmlns="http://www.w3.org/2000/svg">
  <g transform="matrix(1.0, 0.0, 0.0, 1.0, 0.0, 0.0)">
    <use ffdec:characterId="2" height="56.0" id="back" transform="matrix(1.0, 0.0, 0.0, 1.0, 0.0, 0.0)" width="56.0" xlink:href="#sprite0"/>
    <use ffdec:characterId="3" height="50.25" transform="matrix(1.0, 0.0, 0.0, 1.0, 5.75, 2.95)" width="45.25" xlink:href="#shape1"/>
  </g>
  <defs>
    <g id="sprite0" transform="matrix(1.0, 0.0, 0.0, 1.0, 0.0, 0.0)">
      <use ffdec:characterId="1" height="56.0" transform="matrix(1.0, 0.0, 0.0, 1.0, 0.0, 0.0)" width="56.0" xlink:href="#shape0"/>
    </g>
    <g id="shape0" transform="matrix(1.0, 0.0, 0.0, 1.0, 0.0, 0.0)">
      <path d="M56.0 56.0 L0.0 56.0 0.0 0.0 56.0 0.0 56.0 56.0" fill="#010101" fill-opacity="0.0" fill-rule="evenodd" stroke="none"/>
    </g>
    <g id="shape1" transform="matrix(1.0, 0.0, 0.0, 1.0, -5.75, -2.95)">
      <path d="M41.55 45.55 Q35.7 51.0 28.5 52.7 L28.45 52.7 28.35 52.7 28.3 52.7 Q21.05 51.05 15.2 45.55 L14.95 44.1 11.55 44.7 Q7.45 42.45 6.25 38.8 7.35 32.75 11.6 28.6 L13.55 35.1 Q13.75 33.4 14.15 32.6 L15.3 33.5 15.15 27.15 16.45 28.05 Q16.45 30.55 17.0 32.15 18.4 33.85 20.95 33.5 23.5 33.2 24.55 31.75 L24.9 30.3 25.7 30.25 26.1 29.9 Q27.3 28.8 28.0 27.1 L28.05 25.9 Q27.75 23.35 26.85 21.15 27.45 23.55 27.4 25.9 L27.35 26.8 Q26.55 28.45 25.45 29.4 L24.85 29.45 24.8 29.45 24.35 29.45 22.65 29.35 Q20.4 29.05 18.0 28.0 L17.65 27.8 17.25 27.6 16.6 27.2 15.25 26.35 15.2 26.3 14.6 25.9 13.9 25.4 11.6 23.25 11.65 21.2 13.15 20.1 Q14.2 19.35 15.25 18.85 16.6 18.15 18.0 17.85 18.95 19.45 19.4 21.45 L19.75 23.8 Q18.55 23.85 16.95 23.25 18.4 24.6 20.55 24.9 L20.2 21.45 18.9 17.45 17.5 16.95 Q16.25 17.45 14.95 18.1 13.85 18.6 12.8 19.35 11.4 16.3 11.0 13.25 10.35 8.1 12.7 3.45 16.0 7.5 18.25 12.3 L21.1 17.95 Q29.0 15.0 35.9 17.6 L38.55 12.3 Q39.65 9.9 41.0 7.75 L42.0 6.25 44.05 3.45 45.6 6.95 Q46.2 9.9 45.75 13.25 45.4 16.25 44.0 19.25 L41.95 18.1 Q40.65 17.45 39.4 16.95 L38.0 17.45 Q37.15 19.65 36.75 21.45 36.3 23.45 36.35 24.9 38.55 24.6 39.95 23.25 L37.15 23.8 Q37.25 22.55 37.5 21.45 37.95 19.45 38.9 17.85 40.3 18.15 41.7 18.85 L43.65 20.0 45.3 21.2 45.3 23.25 43.0 25.4 42.3 25.9 41.85 26.25 41.65 26.35 40.75 26.95 39.65 27.6 39.25 27.8 38.7 28.05 Q36.4 29.05 34.25 29.35 L32.45 29.45 32.1 29.45 31.95 29.45 31.45 29.4 Q30.4 28.45 29.55 26.8 L29.55 25.9 Q29.5 23.55 30.05 21.15 29.15 23.35 28.85 25.9 L28.9 27.1 Q29.65 28.8 30.8 29.9 L31.2 30.25 31.9 30.3 32.2 31.55 32.2 31.65 32.25 31.75 32.25 31.8 32.35 31.85 32.4 31.9 Q33.75 33.35 35.7 33.5 L35.85 33.5 36.6 33.55 Q38.45 33.55 39.65 32.4 L39.7 32.35 39.75 32.25 40.3 31.1 Q40.8 30.0 40.75 28.05 L40.75 28.0 40.75 27.8 41.85 27.1 41.4 33.3 41.45 33.5 Q42.0 33.0 42.6 32.6 43.0 33.4 43.2 35.1 43.9 32.5 45.15 28.6 49.35 32.75 50.5 38.8 49.35 42.45 45.2 44.7 L41.75 44.1 41.55 45.55 M22.85 47.45 Q25.4 48.4 28.45 48.7 L28.5 48.7 Q31.45 48.4 34.05 47.4 L36.3 45.35 39.65 42.7 39.7 42.65 41.85 43.25 45.2 43.6 Q48.4 41.8 49.45 38.7 48.2 33.15 45.4 30.55 L43.75 36.35 Q43.3 38.0 42.2 38.9 42.6 36.55 42.05 34.15 L41.6 34.5 40.2 35.75 Q37.4 38.45 35.35 42.05 L34.25 40.95 Q33.15 41.6 32.15 42.85 31.1 42.2 30.05 42.0 L28.45 43.15 26.8 42.0 Q25.75 42.2 24.7 42.85 L22.6 40.95 Q22.0 41.45 21.1 43.25 20.5 42.05 20.5 40.4 17.45 36.3 14.7 34.15 14.3 36.15 17.2 42.75 18.65 44.2 20.65 45.45 L22.85 47.45 M24.25 31.35 L24.15 31.45 Q23.55 32.25 22.1 32.4 20.6 32.6 19.75 31.6 L19.75 31.55 19.4 30.65 19.35 30.6 19.2 29.9 19.15 29.3 22.85 30.15 24.45 30.25 24.4 30.6 24.3 31.1 24.25 31.35 M32.5 31.1 L32.4 30.6 32.35 30.25 34.05 30.15 37.95 29.25 37.55 29.95 37.45 30.6 37.05 31.6 Q36.2 32.6 34.65 32.4 33.25 32.25 32.65 31.45 L32.55 31.35 32.5 31.1 M11.55 43.6 L16.2 42.95 13.0 36.35 11.35 30.55 Q8.55 33.15 7.3 38.7 8.35 41.8 11.55 43.6 M22.65 37.25 Q23.8 35.85 25.8 34.5 23.4 35.4 21.6 37.45 22.75 39.15 25.1 40.6 24.4 39.1 24.55 37.9 25.65 40.0 27.4 41.45 L27.45 41.5 28.5 41.65 29.65 41.5 29.7 41.45 Q31.4 40.0 32.5 37.9 32.65 39.1 31.95 40.6 34.3 39.15 35.5 37.45 33.65 35.4 31.3 34.5 33.3 35.85 34.4 37.25 L32.55 36.75 Q30.9 37.6 28.25 37.6 26.15 37.6 24.55 36.75 L22.65 37.25" fill="#000000" fill-rule="evenodd" stroke="none"/>
      <path d="M41.55 45.55 Q35.7 51.0 28.5 52.7 L28.45 52.7 28.35 52.7 28.3 52.7 Q21.05 51.05 15.2 45.55 L14.95 44.1 11.55 44.7 Q7.45 42.45 6.25 38.8 7.35 32.75 11.6 28.6 L13.55 35.1 Q13.75 33.4 14.15 32.6 L15.3 33.5 15.15 27.15 16.45 28.05 Q16.45 30.55 17.0 32.15 18.4 33.85 20.95 33.5 23.5 33.2 24.55 31.75 L24.9 30.3 25.7 30.25 26.1 29.9 Q27.3 28.8 28.0 27.1 L28.05 25.9 Q27.75 23.35 26.85 21.15 27.45 23.55 27.4 25.9 L27.35 26.8 Q26.55 28.45 25.45 29.4 L24.85 29.45 24.8 29.45 24.35 29.45 22.65 29.35 Q20.4 29.05 18.0 28.0 L17.65 27.8 17.25 27.6 16.6 27.2 15.25 26.35 15.2 26.3 14.6 25.9 13.9 25.4 11.6 23.25 11.65 21.2 13.15 20.1 Q14.2 19.35 15.25 18.85 16.6 18.15 18.0 17.85 18.95 19.45 19.4 21.45 L19.75 23.8 Q18.55 23.85 16.95 23.25 18.4 24.6 20.55 24.9 L20.2 21.45 18.9 17.45 17.5 16.95 Q16.25 17.45 14.95 18.1 13.85 18.6 12.8 19.35 11.4 16.3 11.0 13.25 10.35 8.1 12.7 3.45 16.0 7.5 18.25 12.3 L21.1 17.95 Q29.0 15.0 35.9 17.6 L38.55 12.3 Q39.65 9.9 41.0 7.75 L42.0 6.25 44.05 3.45 45.6 6.95 Q46.2 9.9 45.75 13.25 45.4 16.25 44.0 19.25 L41.95 18.1 Q40.65 17.45 39.4 16.95 L38.0 17.45 Q37.15 19.65 36.75 21.45 36.3 23.45 36.35 24.9 38.55 24.6 39.95 23.25 L37.15 23.8 Q37.25 22.55 37.5 21.45 37.95 19.45 38.9 17.85 40.3 18.15 41.7 18.85 L43.65 20.0 45.3 21.2 45.3 23.25 43.0 25.4 42.3 25.9 41.85 26.25 41.65 26.35 40.75 26.95 39.65 27.6 39.25 27.8 38.7 28.05 Q36.4 29.05 34.25 29.35 L32.45 29.45 32.1 29.45 31.95 29.45 31.45 29.4 Q30.4 28.45 29.55 26.8 L29.55 25.9 Q29.5 23.55 30.05 21.15 29.15 23.35 28.85 25.9 L28.9 27.1 Q29.65 28.8 30.8 29.9 L31.2 30.25 31.9 30.3 32.2 31.55 32.2 31.65 32.25 31.75 32.25 31.8 32.35 31.85 32.4 31.9 Q33.75 33.35 35.7 33.5 L35.85 33.5 36.6 33.55 Q38.45 33.55 39.65 32.4 L39.7 32.35 39.75 32.25 40.3 31.1 Q40.8 30.0 40.75 28.05 L40.75 28.0 40.75 27.8 41.85 27.1 41.4 33.3 41.45 33.5 Q42.0 33.0 42.6 32.6 43.0 33.4 43.2 35.1 43.9 32.5 45.15 28.6 49.35 32.75 50.5 38.8 49.35 42.45 45.2 44.7 L41.75 44.1 41.55 45.55 M22.85 47.45 L20.65 45.45 Q18.65 44.2 17.2 42.75 14.3 36.15 14.7 34.15 17.45 36.3 20.5 40.4 20.5 42.05 21.1 43.25 22.0 41.45 22.6 40.95 L24.7 42.85 Q25.75 42.2 26.8 42.0 L28.45 43.15 30.05 42.0 Q31.1 42.2 32.15 42.85 33.15 41.6 34.25 40.95 L35.35 42.05 Q37.4 38.45 40.2 35.75 L41.6 34.5 42.05 34.15 Q42.6 36.55 42.2 38.9 43.3 38.0 43.75 36.35 L45.4 30.55 Q48.2 33.15 49.45 38.7 48.4 41.8 45.2 43.6 L41.85 43.25 39.7 42.65 39.65 42.7 36.3 45.35 34.05 47.4 Q31.45 48.4 28.5 48.7 L28.45 48.7 Q25.4 48.4 22.85 47.45 M24.25 31.35 L24.15 31.45 Q23.55 32.25 22.1 32.4 20.6 32.6 19.75 31.6 L19.75 31.55 19.4 30.65 19.35 30.6 19.2 29.9 19.15 29.3 22.85 30.15 24.45 30.25 24.4 30.6 24.3 31.1 24.25 31.35 M11.55 43.6 Q8.35 41.8 7.3 38.7 8.55 33.15 11.35 30.55 L13.0 36.35 16.2 42.95 11.55 43.6 M32.5 31.1 L32.55 31.35 32.65 31.45 Q33.25 32.25 34.65 32.4 36.2 32.6 37.05 31.6 L37.45 30.6 37.55 29.95 37.95 29.25 34.05 30.15 32.35 30.25 32.4 30.6 32.5 31.1 M22.65 37.25 Q23.8 35.85 25.8 34.5 23.4 35.4 21.6 37.45 22.75 39.15 25.1 40.6 24.4 39.1 24.55 37.9 25.65 40.0 27.4 41.45 L27.45 41.5 28.5 41.65 29.65 41.5 29.7 41.45 Q31.4 40.0 32.5 37.9 32.65 39.1 31.95 40.6 34.3 39.15 35.5 37.45 33.65 35.4 31.3 34.5 33.3 35.85 34.4 37.25 L32.55 36.75 Q30.9 37.6 28.25 37.6 26.15 37.6 24.55 36.75 L22.65 37.25 Z" fill="none" stroke="#000000" stroke-linecap="round" stroke-linejoin="round" stroke-opacity="0.2" stroke-width="1.0"/>
      <path d="M41.55 45.55 Q35.7 51.0 28.5 52.7 L28.45 52.7 28.35 52.7 28.3 52.7 Q21.05 51.05 15.2 45.55 L14.95 44.1 11.55 44.7 Q7.45 42.45 6.25 38.8 7.35 32.75 11.6 28.6 L13.55 35.1 Q13.75 33.4 14.15 32.6 L15.3 33.5 15.15 27.15 16.45 28.05 Q16.45 30.55 17.0 32.15 18.4 33.85 20.95 33.5 23.5 33.2 24.55 31.75 L24.9 30.3 25.7 30.25 26.1 29.9 Q27.3 28.8 28.0 27.1 L28.05 25.9 Q27.75 23.35 26.85 21.15 27.45 23.55 27.4 25.9 L27.35 26.8 Q26.55 28.45 25.45 29.4 L24.85 29.45 24.8 29.45 24.35 29.45 22.65 29.35 Q20.4 29.05 18.0 28.0 L17.65 27.8 17.25 27.6 16.6 27.2 15.25 26.35 15.2 26.3 14.6 25.9 13.9 25.4 11.6 23.25 11.65 21.2 13.15 20.1 Q14.2 19.35 15.25 18.85 16.6 18.15 18.0 17.85 18.95 19.45 19.4 21.45 L19.75 23.8 Q18.55 23.85 16.95 23.25 18.4 24.6 20.55 24.9 L20.2 21.45 18.9 17.45 17.5 16.95 Q16.25 17.45 14.95 18.1 13.85 18.6 12.8 19.35 11.4 16.3 11.0 13.25 10.35 8.1 12.7 3.45 16.0 7.5 18.25 12.3 L21.1 17.95 Q29.0 15.0 35.9 17.6 L38.55 12.3 Q39.65 9.9 41.0 7.75 L42.0 6.25 44.05 3.45 45.6 6.95 Q46.2 9.9 45.75 13.25 45.4 16.25 44.0 19.25 L41.95 18.1 Q40.65 17.45 39.4 16.95 L38.0 17.45 Q37.15 19.65 36.75 21.45 36.3 23.45 36.35 24.9 38.55 24.6 39.95 23.25 L37.15 23.8 Q37.25 22.55 37.5 21.45 37.95 19.45 38.9 17.85 40.3 18.15 41.7 18.85 L43.65 20.0 45.3 21.2 45.3 23.25 43.0 25.4 42.3 25.9 41.85 26.25 41.65 26.35 40.75 26.95 39.65 27.6 39.25 27.8 38.7 28.05 Q36.4 29.05 34.25 29.35 L32.45 29.45 32.1 29.45 31.95 29.45 31.45 29.4 Q30.4 28.45 29.55 26.8 L29.55 25.9 Q29.5 23.55 30.05 21.15 29.15 23.35 28.85 25.9 L28.9 27.1 Q29.65 28.8 30.8 29.9 L31.2 30.25 31.9 30.3 32.2 31.55 32.2 31.65 32.25 31.75 32.25 31.8 32.35 31.85 32.4 31.9 Q33.75 33.35 35.7 33.5 L35.85 33.5 36.6 33.55 Q38.45 33.55 39.65 32.4 L39.7 32.35 39.75 32.25 40.3 31.1 Q40.8 30.0 40.75 28.05 L40.75 28.0 40.75 27.8 41.85 27.1 41.4 33.3 41.45 33.5 Q42.0 33.0 42.6 32.6 43.0 33.4 43.2 35.1 43.9 32.5 45.15 28.6 49.35 32.75 50.5 38.8 49.35 42.45 45.2 44.7 L41.75 44.1 41.55 45.55 M22.85 47.45 Q25.4 48.4 28.45 48.7 L28.5 48.7 Q31.45 48.4 34.05 47.4 L36.3 45.35 39.65 42.7 39.7 42.65 41.85 43.25 45.2 43.6 Q48.4 41.8 49.45 38.7 48.2 33.15 45.4 30.55 L43.75 36.35 Q43.3 38.0 42.2 38.9 42.6 36.55 42.05 34.15 L41.6 34.5 40.2 35.75 Q37.4 38.45 35.35 42.05 L34.25 40.95 Q33.15 41.6 32.15 42.85 31.1 42.2 30.05 42.0 L28.45 43.15 26.8 42.0 Q25.75 42.2 24.7 42.85 L22.6 40.95 Q22.0 41.45 21.1 43.25 20.5 42.05 20.5 40.4 17.45 36.3 14.7 34.15 14.3 36.15 17.2 42.75 18.65 44.2 20.65 45.45 L22.85 47.45 M32.5 31.1 L32.4 30.6 32.35 30.25 34.05 30.15 37.95 29.25 37.55 29.95 37.45 30.6 37.05 31.6 Q36.2 32.6 34.65 32.4 33.25 32.25 32.65 31.45 L32.55 31.35 32.5 31.1 M24.25 31.35 L24.15 31.45 Q23.55 32.25 22.1 32.4 20.6 32.6 19.75 31.6 L19.75 31.55 19.4 30.65 19.35 30.6 19.2 29.9 19.15 29.3 22.85 30.15 24.45 30.25 24.4 30.6 24.3 31.1 24.25 31.35 M22.65 37.25 Q23.8 35.85 25.8 34.5 23.4 35.4 21.6 37.45 22.75 39.15 25.1 40.6 24.4 39.1 24.55 37.9 25.65 40.0 27.4 41.45 L27.45 41.5 28.5 41.65 29.65 41.5 29.7 41.45 Q31.4 40.0 32.5 37.9 32.65 39.1 31.95 40.6 34.3 39.15 35.5 37.45 33.65 35.4 31.3 34.5 33.3 35.85 34.4 37.25 L32.55 36.75 Q30.9 37.6 28.25 37.6 26.15 37.6 24.55 36.75 L22.65 37.25 M11.55 43.6 L16.2 42.95 13.0 36.35 11.35 30.55 Q8.55 33.15 7.3 38.7 8.35 41.8 11.55 43.6" fill="#000000" fill-rule="evenodd" stroke="none"/>
    </g>
  </defs>
</svg>
