<?xml version="1.0" encoding="UTF-8" standalone="no"?>
<svg xmlns:ffdec="https://www.free-decompiler.com/flash" xmlns:xlink="http://www.w3.org/1999/xlink" ffdec:objectType="frame" height="56.0px" width="56.0px" xmlns="http://www.w3.org/2000/svg">
  <g transform="matrix(1.0, 0.0, 0.0, 1.0, 0.0, 0.0)">
    <use ffdec:characterId="2" height="56.0" id="back" transform="matrix(1.0, 0.0, 0.0, 1.0, 0.0, 0.0)" width="56.0" xlink:href="#sprite0"/>
    <use ffdec:characterId="3" height="51.1" transform="matrix(1.0, 0.0, 0.0, 1.0, 8.85, 2.1)" width="38.8" xlink:href="#shape1"/>
  </g>
  <defs>
    <g id="sprite0" transform="matrix(1.0, 0.0, 0.0, 1.0, 0.0, 0.0)">
      <use ffdec:characterId="1" height="56.0" transform="matrix(1.0, 0.0, 0.0, 1.0, 0.0, 0.0)" width="56.0" xlink:href="#shape0"/>
    </g>
    <g id="shape0" transform="matrix(1.0, 0.0, 0.0, 1.0, 0.0, 0.0)">
      <path d="M56.0 56.0 L0.0 56.0 0.0 0.0 56.0 0.0 56.0 56.0" fill="#010101" fill-opacity="0.0" fill-rule="evenodd" stroke="none"/>
    </g>
    <g id="shape1" transform="matrix(1.0, 0.0, 0.0, 1.0, -8.85, -2.1)">
      <path d="M28.55 4.85 Q24.6 5.15 21.85 7.8 17.0 12.65 14.6 19.15 L13.1 22.55 Q15.1 20.7 18.45 21.55 19.45 21.85 20.2 22.5 22.7 24.85 21.55 28.05 21.15 29.15 20.2 29.8 18.15 31.25 16.4 29.65 15.35 28.65 15.85 27.4 16.55 25.3 18.8 24.6 15.1 23.2 13.05 27.0 10.65 31.25 11.7 36.2 12.75 41.15 15.9 45.1 18.95 49.15 23.8 49.6 25.6 49.85 26.9 48.7 27.4 47.55 26.5 46.8 25.55 47.8 24.9 46.25 24.4 42.65 26.0 42.95 27.6 43.3 28.35 43.9 31.95 46.1 29.95 49.95 L29.6 50.45 Q32.0 50.3 34.3 49.45 L35.45 49.05 35.75 48.3 Q37.15 43.65 39.45 41.45 41.65 39.15 44.95 37.25 46.2 31.15 44.4 25.1 L44.4 27.3 Q44.1 32.15 41.9 36.3 39.7 40.5 36.3 42.4 32.85 44.35 29.7 41.45 26.55 38.45 27.55 34.0 28.55 29.7 32.1 31.25 L32.95 32.1 Q34.15 34.6 32.65 36.95 L32.5 37.05 32.2 37.15 31.5 36.85 31.1 36.65 30.65 36.25 31.75 37.85 Q34.25 40.15 37.8 37.45 41.25 34.75 42.1 30.35 42.95 25.75 42.85 21.15 L42.85 20.65 42.6 20.1 40.85 16.05 Q35.65 12.05 31.5 12.35 32.95 13.8 32.05 14.95 31.3 15.95 30.15 16.15 29.7 16.35 28.05 15.65 26.0 14.8 28.1 12.4 30.25 9.95 32.45 10.35 36.6 11.3 39.65 14.05 37.15 10.0 33.6 6.9 31.35 4.95 28.55 4.85 M28.55 2.6 Q31.65 2.7 34.1 4.8 40.9 10.75 44.05 19.35 L45.5 23.35 Q48.65 32.35 45.7 41.35 44.55 44.95 41.75 47.55 38.75 50.35 34.95 51.6 29.4 53.45 23.75 52.25 18.0 51.05 13.9 46.75 11.3 44.0 10.35 40.4 8.4 33.4 10.2 26.3 11.25 22.1 13.25 18.35 15.9 11.2 21.2 5.85 24.25 2.85 28.55 2.6 M43.4 40.45 Q40.15 42.7 38.5 46.2 L37.7 47.9 38.7 47.25 38.9 47.0 39.3 46.05 39.45 45.85 39.65 45.55 39.7 45.4 40.4 44.6 Q41.15 43.8 41.95 44.2 L43.35 42.1 Q44.5 39.9 43.4 40.45 M30.15 17.6 Q35.2 19.9 32.85 25.65 32.3 27.0 31.0 25.95 29.05 24.4 28.55 21.65 28.1 19.1 30.15 17.6 M33.8 26.7 Q35.1 22.95 37.15 19.6 L37.65 19.1 Q40.15 20.3 39.2 23.05 37.9 26.95 33.8 26.7 M39.9 30.25 Q37.5 32.45 35.5 29.95 L35.3 29.6 Q36.7 27.05 39.9 26.9 41.65 28.15 40.35 29.7 L39.9 30.25" fill="#000000" fill-rule="evenodd" stroke="none"/>
      <path d="M28.55 4.85 Q31.35 4.95 33.6 6.9 37.15 10.0 39.65 14.05 36.6 11.3 32.45 10.35 30.25 9.95 28.1 12.4 26.0 14.8 28.05 15.65 29.7 16.35 30.15 16.15 31.3 15.95 32.05 14.95 32.95 13.8 31.5 12.35 35.65 12.05 40.85 16.05 L42.6 20.1 42.85 20.65 42.85 21.15 Q42.95 25.75 42.1 30.35 41.25 34.75 37.8 37.45 34.25 40.15 31.75 37.85 L30.65 36.25 31.1 36.65 31.5 36.85 32.2 37.15 32.5 37.05 32.65 36.95 Q34.15 34.6 32.95 32.1 L32.1 31.25 Q28.55 29.7 27.55 34.0 26.55 38.45 29.7 41.45 32.85 44.35 36.3 42.4 39.7 40.5 41.9 36.3 44.1 32.15 44.4 27.3 L44.4 25.1 Q46.2 31.15 44.95 37.25 41.65 39.15 39.45 41.45 37.15 43.65 35.75 48.3 L35.45 49.05 34.3 49.45 Q32.0 50.3 29.6 50.45 L29.95 49.95 Q31.95 46.1 28.35 43.9 27.6 43.3 26.0 42.95 24.4 42.65 24.9 46.25 25.55 47.8 26.5 46.8 27.4 47.55 26.9 48.7 25.6 49.85 23.8 49.6 18.95 49.15 15.9 45.1 12.75 41.15 11.7 36.2 10.65 31.25 13.05 27.0 15.1 23.2 18.8 24.6 16.55 25.3 15.85 27.4 15.35 28.65 16.4 29.65 18.15 31.25 20.2 29.8 21.15 29.15 21.55 28.05 22.7 24.85 20.2 22.5 19.45 21.85 18.45 21.55 15.1 20.7 13.1 22.55 L14.6 19.15 Q17.0 12.65 21.85 7.8 24.6 5.15 28.55 4.85 M28.55 2.6 Q31.65 2.7 34.1 4.8 40.9 10.75 44.05 19.35 L45.5 23.35 Q48.65 32.35 45.7 41.35 44.55 44.95 41.75 47.55 38.75 50.35 34.95 51.6 29.4 53.45 23.75 52.25 18.0 51.05 13.9 46.75 11.3 44.0 10.35 40.4 8.4 33.4 10.2 26.3 11.25 22.1 13.25 18.35 15.9 11.2 21.2 5.85 24.25 2.85 28.55 2.6 M43.4 40.45 Q40.15 42.7 38.5 46.2 L37.7 47.9 38.7 47.25 38.9 47.0 39.3 46.05 39.45 45.85 39.65 45.55 39.7 45.4 40.4 44.6 Q41.15 43.8 41.95 44.2 L43.35 42.1 Q44.5 39.9 43.4 40.45 M30.15 17.6 Q35.2 19.9 32.85 25.65 32.3 27.0 31.0 25.95 29.05 24.4 28.55 21.65 28.1 19.1 30.15 17.6 M33.8 26.7 Q35.1 22.95 37.15 19.6 L37.65 19.1 Q40.15 20.3 39.2 23.05 37.9 26.95 33.8 26.7 M39.9 30.25 Q37.5 32.45 35.5 29.95 L35.3 29.6 Q36.7 27.05 39.9 26.9 41.65 28.15 40.35 29.7 L39.9 30.25 Z" fill="none" stroke="#000000" stroke-linecap="round" stroke-linejoin="round" stroke-opacity="0.2" stroke-width="1.0"/>
      <path d="M28.55 4.9 Q24.6 5.15 21.85 7.85 17.0 12.7 14.65 19.2 13.75 20.85 13.1 22.6 15.15 20.7 18.5 21.6 L20.2 22.55 Q22.7 24.9 21.55 28.1 21.2 29.2 20.2 29.85 18.15 31.3 16.4 29.7 15.35 28.7 15.85 27.45 16.55 25.35 18.8 24.65 15.15 23.25 13.05 27.05 10.65 31.3 11.7 36.25 12.75 41.2 15.9 45.15 19.0 49.15 23.8 49.65 25.65 49.85 26.9 48.7 27.4 47.55 26.5 46.85 25.6 47.85 24.9 46.3 24.4 42.65 26.0 43.0 27.6 43.35 28.4 43.95 31.95 46.15 30.0 50.0 L29.6 50.5 Q32.0 50.3 34.3 49.5 L35.5 49.1 35.75 48.35 Q37.2 43.65 39.45 41.45 41.65 39.2 44.95 37.3 46.2 31.15 44.4 25.1 L44.4 27.3 Q44.1 32.15 41.9 36.35 39.7 40.5 36.3 42.45 32.85 44.35 29.7 41.45 26.55 38.5 27.55 34.05 28.55 29.75 32.1 31.3 L32.95 32.1 Q34.15 34.65 32.65 37.0 L32.5 37.05 32.25 37.15 31.5 36.9 31.15 36.65 30.65 36.3 31.75 37.9 Q34.25 40.2 37.8 37.5 41.25 34.8 42.15 30.4 42.95 25.8 42.85 21.15 L42.85 20.65 42.65 20.1 40.85 16.1 Q35.65 12.1 31.5 12.35 32.95 13.85 32.05 15.0 31.3 16.0 30.15 16.15 29.7 16.4 28.05 15.65 26.0 14.85 28.1 12.4 30.25 10.0 32.45 10.4 36.65 11.3 39.65 14.05 37.2 10.05 33.6 6.9 31.35 5.0 28.55 4.9 M28.55 2.65 Q31.7 2.75 34.1 4.85 40.9 10.75 44.05 19.4 L45.5 23.35 Q48.7 32.4 45.7 41.4 44.55 45.0 41.75 47.55 38.8 50.35 35.0 51.65 29.45 53.5 23.75 52.3 18.0 51.1 13.9 46.8 11.35 44.05 10.35 40.4 8.4 33.45 10.25 26.35 11.3 22.15 13.25 18.35 15.9 11.2 21.25 5.85 24.25 2.9 28.55 2.65 M30.15 17.65 Q35.2 19.95 32.85 25.65 32.3 27.05 31.0 26.0 29.05 24.4 28.55 21.65 28.1 19.15 30.15 17.65 M33.85 26.7 Q35.1 23.0 37.2 19.6 L37.7 19.15 Q40.15 20.35 39.2 23.1 37.9 27.0 33.85 26.7 M39.95 30.3 Q37.5 32.5 35.55 29.95 L35.3 29.65 Q36.7 27.1 39.95 26.95 41.65 28.2 40.35 29.75 L39.95 30.3 M43.4 40.45 Q40.15 42.7 38.5 46.25 L37.75 47.95 38.7 47.3 38.9 47.0 39.35 46.1 39.45 45.85 39.65 45.6 39.7 45.4 40.45 44.65 Q41.15 43.8 41.95 44.2 L43.35 42.1 Q44.5 39.9 43.4 40.45" fill="#000000" fill-rule="evenodd" stroke="none"/>
    </g>
  </defs>
</svg>
