<?xml version="1.0" encoding="UTF-8" standalone="no"?>
<svg xmlns:ffdec="https://www.free-decompiler.com/flash" xmlns:xlink="http://www.w3.org/1999/xlink" ffdec:objectType="frame" height="56.0px" width="56.0px" xmlns="http://www.w3.org/2000/svg">
  <g transform="matrix(1.0, 0.0, 0.0, 1.0, 0.0, 0.0)">
    <use ffdec:characterId="2" height="56.0" id="back" transform="matrix(1.0, 0.0, 0.0, 1.0, 0.0, 0.0)" width="56.0" xlink:href="#sprite0"/>
    <use ffdec:characterId="3" height="51.2" transform="matrix(1.0, 0.0, 0.0, 1.0, 8.45, 2.05)" width="39.7" xlink:href="#shape1"/>
  </g>
  <defs>
    <g id="sprite0" transform="matrix(1.0, 0.0, 0.0, 1.0, 0.0, 0.0)">
      <use ffdec:characterId="1" height="56.0" transform="matrix(1.0, 0.0, 0.0, 1.0, 0.0, 0.0)" width="56.0" xlink:href="#shape0"/>
    </g>
    <g id="shape0" transform="matrix(1.0, 0.0, 0.0, 1.0, 0.0, 0.0)">
      <path d="M56.0 56.0 L0.0 56.0 0.0 0.0 56.0 0.0 56.0 56.0" fill="#010101" fill-opacity="0.0" fill-rule="evenodd" stroke="none"/>
    </g>
    <g id="shape1" transform="matrix(1.0, 0.0, 0.0, 1.0, -8.45, -2.05)">
      <path d="M29.05 2.55 Q32.15 2.65 34.6 4.75 41.4 10.65 44.5 19.3 L46.0 23.25 Q49.2 32.4 46.2 41.35 45.0 44.95 42.25 47.55 39.3 50.3 35.45 51.65 31.95 52.8 28.4 52.75 L28.3 52.75 28.15 52.75 Q24.65 52.8 21.2 51.65 17.3 50.3 14.35 47.55 11.55 44.95 10.35 41.35 7.4 32.4 10.6 23.25 L12.05 19.3 Q15.2 10.65 21.95 4.75 24.45 2.65 27.55 2.55 L28.15 2.55 28.4 2.55 29.05 2.55 M21.45 13.1 Q18.05 18.65 23.25 22.65 25.85 24.7 29.2 25.5 34.0 26.4 35.35 30.6 36.05 32.65 35.8 34.6 34.2 38.7 30.9 38.95 L26.1 38.7 24.65 38.35 Q20.05 35.3 21.05 31.8 21.35 30.7 22.15 29.7 L23.0 28.95 Q22.65 29.65 22.65 30.25 22.35 32.9 25.4 33.45 26.9 33.65 27.85 32.65 29.55 29.25 27.1 27.2 L25.35 26.2 24.5 25.9 Q20.25 24.4 19.2 22.25 L19.05 21.8 Q13.6 26.4 14.15 33.75 14.4 37.3 16.0 40.05 L16.1 40.3 Q18.55 43.85 22.55 45.25 L26.15 45.9 32.75 45.35 35.15 44.5 37.7 43.3 Q45.15 36.8 40.05 27.65 L39.95 27.45 Q36.75 24.3 33.6 23.3 26.65 21.35 23.9 18.2 23.4 17.25 23.4 16.1 23.4 13.95 25.65 13.1 L27.25 12.75 Q29.1 12.6 30.5 13.7 L31.3 14.9 Q31.85 16.0 31.65 17.05 L31.5 17.4 31.5 17.05 31.25 16.3 Q29.4 14.55 27.95 15.6 L27.1 16.55 26.9 17.05 Q27.4 18.1 32.35 20.8 L37.25 23.25 37.3 23.1 Q38.75 21.45 38.0 17.6 37.75 15.6 36.3 13.85 30.95 8.35 25.65 10.15 23.95 10.8 22.55 12.0 L21.45 13.1" fill="#000000" fill-rule="evenodd" stroke="none"/>
      <path d="M29.05 2.55 Q32.15 2.65 34.6 4.75 41.4 10.65 44.5 19.3 L46.0 23.25 Q49.2 32.4 46.2 41.35 45.0 44.95 42.25 47.55 39.3 50.3 35.45 51.65 31.95 52.8 28.4 52.75 L28.3 52.75 28.15 52.75 Q24.65 52.8 21.2 51.65 17.3 50.3 14.35 47.55 11.55 44.95 10.35 41.35 7.4 32.4 10.6 23.25 L12.05 19.3 Q15.2 10.65 21.95 4.75 24.45 2.65 27.55 2.55 L28.15 2.55 28.4 2.55 29.05 2.55 M21.45 13.1 Q18.05 18.65 23.25 22.65 25.85 24.7 29.2 25.5 34.0 26.4 35.35 30.6 36.05 32.65 35.8 34.6 34.2 38.7 30.9 38.95 L26.1 38.7 24.65 38.35 Q20.05 35.3 21.05 31.8 21.35 30.7 22.15 29.7 L23.0 28.95 Q22.65 29.65 22.65 30.25 22.35 32.9 25.4 33.45 26.9 33.65 27.85 32.65 29.55 29.25 27.1 27.2 L25.35 26.2 24.5 25.9 Q20.25 24.4 19.2 22.25 L19.05 21.8 Q13.6 26.4 14.15 33.75 14.4 37.3 16.0 40.05 L16.1 40.3 Q18.55 43.85 22.55 45.25 L26.15 45.9 32.75 45.35 35.15 44.5 37.7 43.3 Q45.15 36.8 40.05 27.65 L39.95 27.45 Q36.75 24.3 33.6 23.3 26.65 21.35 23.9 18.2 23.4 17.25 23.4 16.1 23.4 13.95 25.65 13.1 L27.25 12.75 Q29.1 12.6 30.5 13.7 L31.3 14.9 Q31.85 16.0 31.65 17.05 L31.5 17.4 31.5 17.05 31.25 16.3 Q29.4 14.55 27.95 15.6 L27.1 16.55 26.9 17.05 Q27.4 18.1 32.35 20.8 L37.25 23.25 37.3 23.1 Q38.75 21.45 38.0 17.6 37.75 15.6 36.3 13.85 30.95 8.35 25.65 10.15 23.95 10.8 22.55 12.0 L21.45 13.1 Z" fill="none" stroke="#000000" stroke-linecap="round" stroke-linejoin="round" stroke-opacity="0.2" stroke-width="1.0"/>
      <path d="M29.05 2.55 Q32.15 2.65 34.6 4.75 41.4 10.65 44.5 19.3 L46.0 23.25 Q49.2 32.4 46.2 41.35 45.0 44.95 42.25 47.55 39.3 50.3 35.45 51.65 31.95 52.8 28.4 52.75 L28.3 52.75 28.15 52.75 Q24.65 52.8 21.2 51.65 17.3 50.3 14.35 47.55 11.55 44.95 10.35 41.35 7.4 32.4 10.6 23.25 L12.05 19.3 Q15.2 10.65 21.95 4.75 24.45 2.65 27.55 2.55 L28.15 2.55 28.4 2.55 29.05 2.55 M21.45 13.1 Q18.05 18.65 23.25 22.65 25.85 24.7 29.2 25.5 34.0 26.4 35.35 30.6 36.05 32.65 35.8 34.6 34.2 38.7 30.9 38.95 L26.1 38.7 24.65 38.35 Q20.05 35.3 21.05 31.8 21.35 30.7 22.15 29.7 L23.0 28.95 Q22.65 29.65 22.65 30.25 22.35 32.9 25.4 33.45 26.9 33.65 27.85 32.65 29.55 29.25 27.1 27.2 L25.35 26.2 24.5 25.9 Q20.25 24.4 19.2 22.25 L19.05 21.8 Q13.6 26.4 14.15 33.75 14.4 37.3 16.0 40.05 L16.1 40.3 Q18.55 43.85 22.55 45.25 L26.15 45.9 32.75 45.35 35.15 44.5 37.7 43.3 Q45.15 36.8 40.05 27.65 L39.95 27.45 Q36.75 24.3 33.6 23.3 26.65 21.35 23.9 18.2 23.4 17.25 23.4 16.1 23.4 13.95 25.65 13.1 L27.25 12.75 Q29.1 12.6 30.5 13.7 L31.3 14.9 Q31.85 16.0 31.65 17.05 L31.5 17.4 31.5 17.05 31.25 16.3 Q29.4 14.55 27.95 15.6 L27.1 16.55 26.9 17.05 Q27.4 18.1 32.35 20.8 L37.25 23.25 37.3 23.1 Q38.75 21.45 38.0 17.6 37.75 15.6 36.3 13.85 30.95 8.35 25.65 10.15 23.95 10.8 22.55 12.0 L21.45 13.1" fill="#000000" fill-rule="evenodd" stroke="none"/>
    </g>
  </defs>
</svg>
