<?xml version="1.0" encoding="UTF-8" standalone="no"?>
<svg xmlns:ffdec="https://www.free-decompiler.com/flash" xmlns:xlink="http://www.w3.org/1999/xlink" ffdec:objectType="frame" height="56.0px" width="56.0px" xmlns="http://www.w3.org/2000/svg">
  <g transform="matrix(1.0, 0.0, 0.0, 1.0, 0.0, 0.0)">
    <use ffdec:characterId="2" height="56.0" id="back" transform="matrix(1.0, 0.0, 0.0, 1.0, 0.0, 0.0)" width="56.0" xlink:href="#sprite0"/>
    <use ffdec:characterId="3" height="51.25" transform="matrix(1.0, 0.0, 0.0, 1.0, 9.3, 2.05)" width="38.85" xlink:href="#shape1"/>
  </g>
  <defs>
    <g id="sprite0" transform="matrix(1.0, 0.0, 0.0, 1.0, 0.0, 0.0)">
      <use ffdec:characterId="1" height="56.0" transform="matrix(1.0, 0.0, 0.0, 1.0, 0.0, 0.0)" width="56.0" xlink:href="#shape0"/>
    </g>
    <g id="shape0" transform="matrix(1.0, 0.0, 0.0, 1.0, 0.0, 0.0)">
      <path d="M56.0 56.0 L0.0 56.0 0.0 0.0 56.0 0.0 56.0 56.0" fill="#010101" fill-opacity="0.0" fill-rule="evenodd" stroke="none"/>
    </g>
    <g id="shape1" transform="matrix(1.0, 0.0, 0.0, 1.0, -9.3, -2.05)">
      <path d="M21.25 18.3 Q24.05 21.6 30.6 20.5 33.3 20.05 35.0 19.0 36.65 17.95 37.0 16.55 37.4 15.1 35.85 15.05 34.3 14.9 32.5 15.8 30.7 16.75 33.3 17.25 L30.15 17.05 Q28.2 16.3 30.9 14.15 34.25 12.05 37.45 12.6 40.7 13.05 39.25 16.2 37.05 20.75 33.65 22.25 30.25 23.75 27.55 24.0 20.1 24.75 17.35 20.6 14.6 16.6 18.55 11.4 18.85 15.55 21.25 18.3 M36.3 35.15 Q33.55 38.9 34.75 41.0 36.05 43.05 38.95 41.5 41.85 39.9 43.3 37.1 44.7 34.3 44.1 32.85 43.5 31.45 41.65 31.1 L38.3 30.75 Q38.1 27.55 36.25 27.1 34.3 26.65 33.1 28.25 31.9 29.8 31.8 31.75 29.2 29.4 27.3 30.65 25.4 31.9 25.7 34.4 25.95 36.9 28.0 37.2 24.6 36.8 24.25 38.1 23.85 39.45 24.35 41.5 24.85 43.3 27.15 43.2 L27.35 44.85 Q26.4 44.9 25.85 45.4 25.15 46.0 25.3 47.15 25.5 48.25 26.75 49.1 L30.75 48.95 Q37.45 52.35 42.85 45.2 48.3 38.05 45.8 30.05 45.55 39.35 38.45 43.65 32.45 46.95 32.6 42.35 32.8 37.65 34.25 36.55 35.4 35.5 36.3 35.15 36.75 34.95 37.15 34.9 39.2 35.0 38.8 36.45 38.4 37.9 37.5 38.45 36.15 39.25 36.3 35.15 M21.3 17.25 Q19.65 14.9 18.9 10.0 14.45 14.65 15.55 19.1 16.65 23.5 22.65 25.0 28.6 26.5 33.95 23.4 39.2 20.35 40.35 16.1 41.45 11.9 37.4 11.6 33.35 11.3 30.15 13.9 26.95 16.55 29.55 17.55 32.1 18.55 34.75 17.05 31.1 16.6 34.4 15.9 37.6 15.1 35.4 17.65 33.15 20.15 28.1 20.0 23.05 19.85 21.3 17.25 M29.65 37.35 L29.75 37.1 Q27.85 36.9 27.4 34.75 26.9 32.2 28.8 32.25 30.7 32.25 32.2 33.85 L33.55 32.8 Q32.65 30.75 33.55 29.35 34.45 27.85 35.95 28.8 37.4 29.7 37.0 31.65 L37.9 31.6 Q44.2 31.45 42.65 35.6 41.1 39.75 37.85 40.85 34.65 41.9 35.9 36.85 36.1 41.05 38.85 37.9 41.6 34.75 38.9 34.25 34.3 33.5 32.55 36.3 30.8 39.05 30.95 42.75 31.2 46.45 35.6 46.0 38.85 45.75 42.7 41.1 45.6 37.55 45.95 32.15 46.25 43.25 38.0 47.8 33.65 50.1 30.3 46.9 28.5 44.8 28.4 42.3 26.35 42.65 25.85 40.65 25.25 38.3 26.7 38.15 L29.15 38.45 29.65 37.35 M29.05 2.55 Q32.2 2.7 34.6 4.75 41.4 10.7 44.55 19.35 L46.0 23.3 Q49.15 32.4 46.2 41.4 45.05 44.95 42.25 47.55 39.25 50.35 35.4 51.7 29.9 53.55 24.25 52.3 18.45 51.1 14.35 46.8 11.75 44.05 10.8 40.35 8.85 33.35 10.65 26.35 11.7 22.15 13.7 18.3 16.35 11.15 21.65 5.8 24.75 2.85 29.05 2.55" fill="#000000" fill-rule="evenodd" stroke="none"/>
      <path d="M21.25 18.3 Q24.05 21.6 30.6 20.5 33.3 20.05 35.0 19.0 36.65 17.95 37.0 16.55 37.4 15.1 35.85 15.05 34.3 14.9 32.5 15.8 30.7 16.75 33.3 17.25 L30.15 17.05 Q28.2 16.3 30.9 14.15 34.25 12.05 37.45 12.6 40.7 13.05 39.25 16.2 37.05 20.75 33.65 22.25 30.25 23.75 27.55 24.0 20.1 24.75 17.35 20.6 14.6 16.6 18.55 11.4 18.85 15.55 21.25 18.3 M21.3 17.25 Q23.05 19.85 28.1 20.0 33.15 20.15 35.4 17.65 37.6 15.1 34.4 15.9 31.1 16.6 34.75 17.05 32.1 18.55 29.55 17.55 26.95 16.55 30.15 13.9 33.35 11.3 37.4 11.6 41.45 11.9 40.35 16.1 39.2 20.35 33.95 23.4 28.6 26.5 22.65 25.0 16.65 23.5 15.55 19.1 14.45 14.65 18.9 10.0 19.65 14.9 21.3 17.25 M36.3 35.15 Q35.4 35.5 34.25 36.55 32.8 37.65 32.6 42.35 32.45 46.95 38.45 43.65 45.55 39.35 45.8 30.05 48.3 38.05 42.85 45.2 37.45 52.35 30.75 48.95 L26.75 49.1 Q25.5 48.25 25.3 47.15 25.15 46.0 25.85 45.4 26.4 44.9 27.35 44.85 L27.15 43.2 Q24.85 43.3 24.35 41.5 23.85 39.45 24.25 38.1 24.6 36.8 28.0 37.2 25.95 36.9 25.7 34.4 25.4 31.9 27.3 30.65 29.2 29.4 31.8 31.75 31.9 29.8 33.1 28.25 34.3 26.65 36.25 27.1 38.1 27.55 38.3 30.75 L41.65 31.1 Q43.5 31.45 44.1 32.85 44.7 34.3 43.3 37.1 41.85 39.9 38.95 41.5 36.05 43.05 34.75 41.0 33.55 38.9 36.3 35.15 M29.65 37.35 L29.75 37.1 Q27.85 36.9 27.4 34.75 26.9 32.2 28.8 32.25 30.7 32.25 32.2 33.85 L33.55 32.8 Q32.65 30.75 33.55 29.35 34.45 27.85 35.95 28.8 37.4 29.7 37.0 31.65 L37.9 31.6 Q44.2 31.45 42.65 35.6 41.1 39.75 37.85 40.85 34.65 41.9 35.9 36.85 36.1 41.05 38.85 37.9 41.6 34.75 38.9 34.25 34.3 33.5 32.55 36.3 30.8 39.05 30.95 42.75 31.2 46.45 35.6 46.0 38.85 45.75 42.7 41.1 45.6 37.55 45.95 32.15 46.25 43.25 38.0 47.8 33.65 50.1 30.3 46.9 28.5 44.8 28.4 42.3 26.35 42.65 25.85 40.65 25.25 38.3 26.7 38.15 L29.15 38.45 29.65 37.35 M29.05 2.55 Q32.2 2.7 34.6 4.75 41.4 10.7 44.55 19.35 L46.0 23.3 Q49.15 32.4 46.2 41.4 45.05 44.95 42.25 47.55 39.25 50.35 35.4 51.7 29.9 53.55 24.25 52.3 18.45 51.1 14.35 46.8 11.75 44.05 10.8 40.35 8.85 33.35 10.65 26.35 11.7 22.15 13.7 18.3 16.35 11.15 21.65 5.8 24.75 2.85 29.05 2.55 Z" fill="none" stroke="#000000" stroke-linecap="round" stroke-linejoin="round" stroke-opacity="0.2" stroke-width="1.0"/>
      <path d="M21.25 18.3 Q24.05 21.6 30.6 20.5 33.3 20.05 35.0 19.0 36.65 17.95 37.0 16.55 37.4 15.1 35.85 15.05 34.3 14.9 32.5 15.8 30.7 16.75 33.3 17.25 L30.15 17.05 Q28.2 16.3 30.9 14.15 34.25 12.05 37.45 12.6 40.7 13.05 39.25 16.2 37.05 20.75 33.65 22.25 30.25 23.75 27.55 24.0 20.1 24.75 17.35 20.6 14.6 16.6 18.55 11.4 18.85 15.55 21.25 18.3 M21.3 17.25 Q19.65 14.9 18.9 10.0 14.45 14.65 15.55 19.1 16.65 23.5 22.65 25.0 28.6 26.5 33.95 23.4 39.2 20.35 40.35 16.1 41.45 11.9 37.4 11.6 33.35 11.3 30.15 13.9 26.95 16.55 29.55 17.55 32.1 18.55 34.75 17.05 31.1 16.6 34.4 15.9 37.6 15.1 35.4 17.65 33.15 20.15 28.1 20.0 23.05 19.85 21.3 17.25 M29.65 37.35 L29.75 37.1 Q27.85 36.9 27.4 34.75 26.9 32.2 28.8 32.25 30.7 32.25 32.2 33.85 L33.55 32.8 Q32.65 30.75 33.55 29.35 34.45 27.85 35.95 28.8 37.4 29.7 37.0 31.65 L37.9 31.6 Q44.2 31.45 42.65 35.6 41.1 39.75 37.85 40.85 34.65 41.9 35.9 36.85 36.1 41.05 38.85 37.9 41.6 34.75 38.9 34.25 34.3 33.5 32.55 36.3 30.8 39.05 30.95 42.75 31.2 46.45 35.6 46.0 38.85 45.75 42.7 41.1 45.6 37.55 45.95 32.15 46.25 43.25 38.0 47.8 33.65 50.1 30.3 46.9 28.5 44.8 28.4 42.3 26.35 42.65 25.85 40.65 25.25 38.3 26.7 38.15 L29.15 38.45 29.65 37.35 M36.3 35.15 Q33.55 38.9 34.75 41.0 36.05 43.05 38.95 41.5 41.85 39.9 43.3 37.1 44.7 34.3 44.1 32.85 43.5 31.45 41.65 31.1 L38.3 30.75 Q38.1 27.55 36.25 27.1 34.3 26.65 33.1 28.25 31.9 29.8 31.8 31.75 29.2 29.4 27.3 30.65 25.4 31.9 25.7 34.4 25.95 36.9 28.0 37.2 24.6 36.8 24.25 38.1 23.85 39.45 24.35 41.5 24.85 43.3 27.15 43.2 L27.35 44.85 Q26.4 44.9 25.85 45.4 25.15 46.0 25.3 47.15 25.5 48.25 26.75 49.1 L30.75 48.95 Q37.45 52.35 42.85 45.2 48.3 38.05 45.8 30.05 45.55 39.35 38.45 43.65 32.45 46.95 32.6 42.35 32.8 37.65 34.25 36.55 35.4 35.5 36.3 35.15 36.75 34.95 37.15 34.9 39.2 35.0 38.8 36.45 38.4 37.9 37.5 38.45 36.15 39.25 36.3 35.15 M29.05 2.55 Q32.2 2.7 34.6 4.75 41.4 10.7 44.55 19.35 L46.0 23.3 Q49.15 32.4 46.2 41.4 45.05 44.95 42.25 47.55 39.25 50.35 35.4 51.7 29.9 53.55 24.25 52.3 18.45 51.1 14.35 46.8 11.75 44.05 10.8 40.35 8.85 33.35 10.65 26.35 11.7 22.15 13.7 18.3 16.35 11.15 21.65 5.8 24.75 2.85 29.05 2.55" fill="#000000" fill-rule="evenodd" stroke="none"/>
    </g>
  </defs>
</svg>
