<?xml version="1.0" encoding="UTF-8" standalone="no"?>
<svg xmlns:ffdec="https://www.free-decompiler.com/flash" xmlns:xlink="http://www.w3.org/1999/xlink" ffdec:objectType="frame" height="56.0px" width="56.0px" xmlns="http://www.w3.org/2000/svg">
  <g transform="matrix(1.0, 0.0, 0.0, 1.0, 0.0, 0.0)">
    <use ffdec:characterId="2" height="56.0" id="back" transform="matrix(1.0, 0.0, 0.0, 1.0, 0.0, 0.0)" width="56.0" xlink:href="#sprite0"/>
    <use ffdec:characterId="3" height="51.25" transform="matrix(1.0, 0.0, 0.0, 1.0, 9.3, 2.5)" width="38.9" xlink:href="#shape1"/>
  </g>
  <defs>
    <g id="sprite0" transform="matrix(1.0, 0.0, 0.0, 1.0, 0.0, 0.0)">
      <use ffdec:characterId="1" height="56.0" transform="matrix(1.0, 0.0, 0.0, 1.0, 0.0, 0.0)" width="56.0" xlink:href="#shape0"/>
    </g>
    <g id="shape0" transform="matrix(1.0, 0.0, 0.0, 1.0, 0.0, 0.0)">
      <path d="M56.0 56.0 L0.0 56.0 0.0 0.0 56.0 0.0 56.0 56.0" fill="#010101" fill-opacity="0.0" fill-rule="evenodd" stroke="none"/>
    </g>
    <g id="shape1" transform="matrix(1.0, 0.0, 0.0, 1.0, -9.3, -2.5)">
      <path d="M29.05 3.0 Q32.2 3.15 34.6 5.2 41.45 11.15 44.6 19.8 L46.0 23.75 Q49.25 32.85 46.25 41.85 45.05 45.45 42.25 48.0 39.3 50.8 35.45 52.15 29.95 54.0 24.3 52.8 18.5 51.55 14.4 47.25 11.8 44.5 10.8 40.8 8.9 33.8 10.7 26.8 11.8 22.6 13.7 18.75 16.35 11.6 21.75 6.25 24.8 3.3 28.75 3.25 L29.05 3.0 M22.05 20.15 Q19.2 21.9 19.7 26.0 22.45 23.25 22.05 20.15 M22.95 26.45 Q18.35 30.6 19.65 38.35 21.05 46.1 29.3 46.15 43.2 46.3 38.6 29.05 38.15 30.9 37.0 32.3 37.3 20.85 27.4 18.0 29.6 20.95 27.15 23.7 23.95 27.2 23.8 31.05 22.8 29.35 22.95 26.45 M30.9 9.0 Q30.5 10.95 30.85 13.15 31.15 15.4 35.8 16.9 35.4 13.65 33.3 12.3 31.2 11.0 30.9 9.0 M27.35 33.2 Q26.7 36.9 28.1 37.6 29.5 38.4 32.0 37.65 34.45 36.9 34.5 40.2 34.55 43.95 31.3 44.95 26.55 45.9 24.9 41.8 23.6 36.95 27.35 33.2" fill="#000000" fill-rule="evenodd" stroke="none"/>
      <path d="M29.05 3.0 Q32.2 3.15 34.6 5.2 41.45 11.15 44.6 19.8 L46.0 23.75 Q49.25 32.85 46.25 41.85 45.05 45.45 42.25 48.0 39.3 50.8 35.45 52.15 29.95 54.0 24.3 52.8 18.5 51.55 14.4 47.25 11.8 44.5 10.8 40.8 8.9 33.8 10.7 26.8 11.8 22.6 13.7 18.75 16.35 11.6 21.75 6.25 24.8 3.3 28.75 3.25 L29.05 3.0 M30.9 9.0 Q31.2 11.0 33.3 12.3 35.4 13.65 35.8 16.9 31.15 15.4 30.85 13.15 30.5 10.95 30.9 9.0 M22.95 26.45 Q22.8 29.35 23.8 31.05 23.95 27.2 27.15 23.7 29.6 20.95 27.4 18.0 37.3 20.85 37.0 32.3 38.15 30.9 38.6 29.05 43.2 46.3 29.3 46.15 21.05 46.1 19.65 38.35 18.35 30.6 22.95 26.45 M22.05 20.15 Q22.45 23.25 19.7 26.0 19.2 21.9 22.05 20.15 M27.35 33.2 Q26.7 36.9 28.1 37.6 29.5 38.4 32.0 37.65 34.45 36.9 34.5 40.2 34.55 43.95 31.3 44.95 26.55 45.9 24.9 41.8 23.6 36.95 27.35 33.2 Z" fill="none" stroke="#000000" stroke-linecap="round" stroke-linejoin="round" stroke-opacity="0.2" stroke-width="1.0"/>
      <path d="M29.05 3.0 Q32.2 3.15 34.6 5.2 41.45 11.15 44.6 19.8 L46.0 23.75 Q49.25 32.85 46.25 41.85 45.05 45.45 42.25 48.0 39.3 50.8 35.45 52.15 29.95 54.0 24.3 52.8 18.5 51.55 14.4 47.25 11.8 44.5 10.8 40.8 8.9 33.8 10.7 26.8 11.8 22.6 13.7 18.75 16.35 11.6 21.75 6.25 24.8 3.3 28.75 3.25 L29.05 3.0 M22.95 26.45 Q18.35 30.6 19.65 38.35 21.05 46.1 29.3 46.15 43.2 46.3 38.6 29.05 38.15 30.9 37.0 32.3 37.3 20.85 27.4 18.0 29.6 20.95 27.15 23.7 23.95 27.2 23.8 31.05 22.8 29.35 22.95 26.45 M22.05 20.15 Q19.2 21.9 19.7 26.0 22.45 23.25 22.05 20.15 M30.9 9.0 Q30.5 10.95 30.85 13.15 31.15 15.4 35.8 16.9 35.4 13.65 33.3 12.3 31.2 11.0 30.9 9.0 M27.35 33.2 Q26.7 36.9 28.1 37.6 29.5 38.4 32.0 37.65 34.45 36.9 34.5 40.2 34.55 43.95 31.3 44.95 26.55 45.9 24.9 41.8 23.6 36.95 27.35 33.2" fill="#000000" fill-rule="evenodd" stroke="none"/>
    </g>
  </defs>
</svg>
