<?xml version="1.0" encoding="UTF-8" standalone="no"?>
<svg xmlns:ffdec="https://www.free-decompiler.com/flash" xmlns:xlink="http://www.w3.org/1999/xlink" ffdec:objectType="frame" height="56.0px" width="56.0px" xmlns="http://www.w3.org/2000/svg">
  <g transform="matrix(1.0, 0.0, 0.0, 1.0, 0.0, 0.0)">
    <use ffdec:characterId="2" height="56.0" id="back" transform="matrix(1.0, 0.0, 0.0, 1.0, 0.0, 0.0)" width="56.0" xlink:href="#sprite0"/>
    <use ffdec:characterId="3" height="51.25" transform="matrix(1.0, 0.0, 0.0, 1.0, 9.3, 2.5)" width="38.85" xlink:href="#shape1"/>
  </g>
  <defs>
    <g id="sprite0" transform="matrix(1.0, 0.0, 0.0, 1.0, 0.0, 0.0)">
      <use ffdec:characterId="1" height="56.0" transform="matrix(1.0, 0.0, 0.0, 1.0, 0.0, 0.0)" width="56.0" xlink:href="#shape0"/>
    </g>
    <g id="shape0" transform="matrix(1.0, 0.0, 0.0, 1.0, 0.0, 0.0)">
      <path d="M56.0 56.0 L0.0 56.0 0.0 0.0 56.0 0.0 56.0 56.0" fill="#010101" fill-opacity="0.0" fill-rule="evenodd" stroke="none"/>
    </g>
    <g id="shape1" transform="matrix(1.0, 0.0, 0.0, 1.0, -9.3, -2.5)">
      <path d="M29.05 3.0 Q32.1 3.15 34.6 5.2 41.4 11.15 44.55 19.8 L46.0 23.75 Q49.15 32.85 46.2 41.85 45.0 45.4 42.25 48.0 39.25 50.8 35.4 52.15 29.85 54.0 24.25 52.8 18.45 51.55 14.35 47.25 11.75 44.5 10.8 40.8 8.85 33.8 10.65 26.8 11.7 22.6 13.7 18.75 16.35 11.6 21.65 6.25 24.75 3.3 28.7 3.25 L29.05 3.0 M42.4 32.05 Q42.4 31.25 41.8 30.65 41.2 30.1 40.35 30.1 39.5 30.1 38.9 30.65 38.35 31.25 38.35 32.05 38.35 32.95 38.9 33.55 39.5 34.1 40.35 34.1 41.2 34.1 41.8 33.55 42.4 32.95 42.4 32.05 M34.75 29.85 L34.1 29.25 Q31.45 40.25 21.95 42.6 32.35 42.8 36.35 31.9 L34.75 29.85 M37.6 36.75 Q37.6 34.65 36.85 32.9 32.25 43.95 21.05 43.45 L21.1 43.5 Q24.0 46.35 27.95 46.35 31.95 46.35 34.75 43.5 37.6 40.7 37.6 36.75 M18.85 40.15 L19.8 41.95 Q30.85 41.1 33.45 28.75 L33.15 28.6 Q30.0 38.75 18.85 40.15 M20.1 31.05 Q18.25 33.55 18.25 36.75 18.25 38.05 18.6 39.25 29.65 38.65 32.5 28.15 30.45 27.05 27.95 27.05 L25.15 27.45 Q24.95 26.4 24.2 25.6 23.15 24.6 21.75 24.6 20.3 24.6 19.3 25.6 18.3 26.6 18.3 28.05 18.3 29.45 19.3 30.5 L20.1 31.05 M26.0 18.75 Q26.0 17.9 25.4 17.3 24.8 16.7 24.0 16.7 23.15 16.7 22.55 17.3 21.95 17.9 21.95 18.75 21.95 19.65 22.55 20.25 23.15 20.85 24.0 20.85 24.8 20.85 25.4 20.25 26.0 19.65 26.0 18.75 M33.0 13.7 Q33.0 12.15 31.95 11.1 30.85 10.0 29.35 10.0 27.85 10.0 26.8 11.1 25.7 12.15 25.7 13.7 25.7 15.15 26.8 16.25 27.85 17.35 29.35 17.35 30.85 17.35 31.95 16.25 33.0 15.15 33.0 13.7" fill="#000000" fill-rule="evenodd" stroke="none"/>
      <path d="M29.05 3.0 Q32.1 3.15 34.6 5.2 41.4 11.15 44.55 19.8 L46.0 23.75 Q49.15 32.85 46.2 41.85 45.0 45.4 42.25 48.0 39.25 50.8 35.4 52.15 29.85 54.0 24.25 52.8 18.45 51.55 14.35 47.25 11.75 44.5 10.8 40.8 8.85 33.8 10.65 26.8 11.7 22.6 13.7 18.75 16.35 11.6 21.65 6.25 24.75 3.3 28.7 3.25 L29.05 3.0 M33.0 13.7 Q33.0 15.15 31.95 16.25 30.85 17.35 29.35 17.35 27.85 17.35 26.8 16.25 25.7 15.15 25.7 13.7 25.7 12.15 26.8 11.1 27.85 10.0 29.35 10.0 30.85 10.0 31.95 11.1 33.0 12.15 33.0 13.7 M26.0 18.75 Q26.0 19.65 25.4 20.25 24.8 20.85 24.0 20.85 23.15 20.85 22.55 20.25 21.95 19.65 21.95 18.75 21.95 17.9 22.55 17.3 23.15 16.7 24.0 16.7 24.8 16.7 25.4 17.3 26.0 17.9 26.0 18.75 M20.1 31.05 L19.3 30.5 Q18.3 29.45 18.3 28.05 18.3 26.6 19.3 25.6 20.3 24.6 21.75 24.6 23.15 24.6 24.2 25.6 24.95 26.4 25.15 27.45 L27.95 27.05 Q30.45 27.05 32.5 28.15 29.65 38.65 18.6 39.25 18.25 38.05 18.25 36.75 18.25 33.55 20.1 31.05 M18.85 40.15 Q30.0 38.75 33.15 28.6 L33.45 28.75 Q30.85 41.1 19.8 41.95 L18.85 40.15 M37.6 36.75 Q37.6 40.7 34.75 43.5 31.95 46.35 27.95 46.35 24.0 46.35 21.1 43.5 L21.05 43.45 Q32.25 43.95 36.85 32.9 37.6 34.65 37.6 36.75 M34.75 29.85 L36.35 31.9 Q32.35 42.8 21.95 42.6 31.45 40.25 34.1 29.25 L34.75 29.85 M42.4 32.05 Q42.4 32.95 41.8 33.55 41.2 34.1 40.35 34.1 39.5 34.1 38.9 33.55 38.35 32.95 38.35 32.05 38.35 31.25 38.9 30.65 39.5 30.1 40.35 30.1 41.2 30.1 41.8 30.65 42.4 31.25 42.4 32.05 Z" fill="none" stroke="#000000" stroke-linecap="round" stroke-linejoin="round" stroke-opacity="0.2" stroke-width="1.0"/>
      <path d="M29.05 3.0 Q32.1 3.15 34.6 5.2 41.4 11.15 44.55 19.8 L46.0 23.75 Q49.15 32.85 46.2 41.85 45.0 45.4 42.25 48.0 39.25 50.8 35.4 52.15 29.85 54.0 24.25 52.8 18.45 51.55 14.35 47.25 11.75 44.5 10.8 40.8 8.85 33.8 10.65 26.8 11.7 22.6 13.7 18.75 16.35 11.6 21.65 6.25 24.75 3.3 28.7 3.25 L29.05 3.0 M26.0 18.75 Q26.0 17.9 25.4 17.3 24.8 16.7 24.0 16.7 23.15 16.7 22.55 17.3 21.95 17.9 21.95 18.75 21.95 19.65 22.55 20.25 23.15 20.85 24.0 20.85 24.8 20.85 25.4 20.25 26.0 19.65 26.0 18.75 M33.0 13.7 Q33.0 12.15 31.95 11.1 30.85 10.0 29.35 10.0 27.85 10.0 26.8 11.1 25.7 12.15 25.7 13.7 25.7 15.15 26.8 16.25 27.85 17.35 29.35 17.35 30.85 17.35 31.95 16.25 33.0 15.15 33.0 13.7 M25.15 27.45 Q24.95 26.4 24.2 25.6 23.15 24.6 21.75 24.6 20.3 24.6 19.3 25.6 18.3 26.6 18.3 28.05 18.3 29.45 19.3 30.5 L20.1 31.05 Q18.25 33.55 18.25 36.75 18.25 38.05 18.6 39.25 29.65 38.65 32.5 28.15 30.45 27.05 27.95 27.05 L25.15 27.45 M42.4 32.05 Q42.4 31.25 41.8 30.65 41.2 30.1 40.35 30.1 39.5 30.1 38.9 30.65 38.35 31.25 38.35 32.05 38.35 32.95 38.9 33.55 39.5 34.1 40.35 34.1 41.2 34.1 41.8 33.55 42.4 32.95 42.4 32.05 M34.75 29.85 L34.1 29.25 Q31.45 40.25 21.95 42.6 32.35 42.8 36.35 31.9 L34.75 29.85 M37.6 36.75 Q37.6 34.65 36.85 32.9 32.25 43.95 21.05 43.45 L21.1 43.5 Q24.0 46.35 27.95 46.35 31.95 46.35 34.75 43.5 37.6 40.7 37.6 36.75 M18.85 40.15 L19.8 41.95 Q30.85 41.1 33.45 28.75 L33.15 28.6 Q30.0 38.75 18.85 40.15" fill="#000000" fill-rule="evenodd" stroke="none"/>
      <path d="M20.1 31.05 L19.3 30.5 Q18.3 29.45 18.3 28.05 18.3 26.6 19.3 25.6 20.3 24.6 21.75 24.6 23.15 24.6 24.2 25.6 24.95 26.4 25.15 27.45" fill="none" stroke="#000000" stroke-linecap="round" stroke-linejoin="round" stroke-opacity="0.3019608" stroke-width="0.05"/>
    </g>
  </defs>
</svg>
