<?xml version="1.0" encoding="UTF-8" standalone="no"?>
<svg xmlns:ffdec="https://www.free-decompiler.com/flash" xmlns:xlink="http://www.w3.org/1999/xlink" ffdec:objectType="frame" height="56.0px" width="56.0px" xmlns="http://www.w3.org/2000/svg">
  <g transform="matrix(1.0, 0.0, 0.0, 1.0, 0.0, 0.0)">
    <use ffdec:characterId="2" height="56.0" id="back" transform="matrix(1.0, 0.0, 0.0, 1.0, 0.0, 0.0)" width="56.0" xlink:href="#sprite0"/>
    <use ffdec:characterId="3" height="51.3" transform="matrix(1.0, 0.0, 0.0, 1.0, 8.7, 1.55)" width="39.45" xlink:href="#shape1"/>
  </g>
  <defs>
    <g id="sprite0" transform="matrix(1.0, 0.0, 0.0, 1.0, 0.0, 0.0)">
      <use ffdec:characterId="1" height="56.0" transform="matrix(1.0, 0.0, 0.0, 1.0, 0.0, 0.0)" width="56.0" xlink:href="#shape0"/>
    </g>
    <g id="shape0" transform="matrix(1.0, 0.0, 0.0, 1.0, 0.0, 0.0)">
      <path d="M56.0 56.0 L0.0 56.0 0.0 0.0 56.0 0.0 56.0 56.0" fill="#010101" fill-opacity="0.0" fill-rule="evenodd" stroke="none"/>
    </g>
    <g id="shape1" transform="matrix(1.0, 0.0, 0.0, 1.0, -8.7, -1.55)">
      <path d="M28.45 2.05 L28.7 2.1 Q32.85 2.45 35.7 5.35 41.1 10.7 43.75 16.9 45.75 21.65 46.8 25.85 48.55 32.9 46.65 39.9 45.7 43.55 43.1 46.35 38.95 50.65 33.2 51.85 L28.45 52.35 23.7 51.85 Q17.85 50.65 13.8 46.35 11.2 43.55 10.2 39.9 8.3 32.9 10.1 25.85 11.15 21.65 13.1 16.9 15.75 10.7 21.1 5.35 24.0 2.45 28.2 2.1 L28.4 2.05 28.45 2.05 M28.4 4.3 Q28.3 4.3 28.25 4.4 L28.2 4.4 Q24.45 4.7 21.75 7.2 16.85 11.85 14.15 18.0 12.7 21.45 11.7 25.1 10.1 31.35 11.8 37.45 12.7 40.6 15.1 43.05 18.8 46.8 24.05 47.85 L28.2 48.25 28.45 48.25 28.7 48.25 32.8 47.85 Q38.1 46.8 41.75 43.05 44.15 40.6 45.05 37.45 46.8 31.35 45.15 25.1 44.2 21.45 42.65 18.0 40.0 11.85 35.1 7.2 32.35 4.6 28.4 4.3 M19.7 30.35 Q17.85 27.1 16.55 28.45 14.9 29.75 14.65 30.95 14.35 32.1 14.35 34.4 14.15 36.7 16.2 40.25 18.2 43.5 23.35 45.4 28.55 46.95 34.75 45.0 40.75 43.05 41.7 36.15 42.7 29.2 40.55 26.3 39.75 34.2 35.7 34.55 32.2 35.2 30.5 32.5 28.0 28.8 26.55 28.8 28.0 31.7 26.55 34.2 22.7 36.55 20.7 32.65 L20.4 31.7 19.7 30.35 M26.7 15.1 Q26.7 16.25 26.0 17.05 25.4 17.8 24.4 17.8 23.35 17.65 22.5 16.8 21.85 16.1 21.85 14.9 21.85 13.75 22.5 12.95 23.2 12.2 24.15 12.2 25.2 12.2 25.9 13.1 26.55 13.95 26.7 15.1 M32.75 15.25 Q33.35 16.25 33.35 17.25 33.35 18.35 32.75 19.35 32.05 19.9 31.05 19.9 30.05 19.9 29.35 19.15 28.7 18.2 28.7 17.05 28.7 15.8 29.35 15.1 30.05 14.3 31.05 14.55 32.05 14.55 32.75 15.25 M27.35 20.35 Q28.0 21.1 28.0 22.05 L27.55 23.8 Q26.85 24.35 26.0 24.35 25.0 24.35 24.5 23.55 23.9 22.95 23.9 21.85 23.9 20.9 24.5 20.35 25.0 19.55 26.0 19.55 26.7 19.55 27.35 20.35 Z" fill="none" stroke="#000000" stroke-linecap="round" stroke-linejoin="round" stroke-opacity="0.2" stroke-width="1.0"/>
      <path d="M28.45 2.05 L28.7 2.1 Q32.85 2.45 35.7 5.35 41.1 10.7 43.75 16.9 45.75 21.65 46.8 25.85 48.55 32.9 46.65 39.9 45.7 43.55 43.1 46.35 38.95 50.65 33.2 51.85 L28.45 52.35 23.7 51.85 Q17.85 50.65 13.8 46.35 11.2 43.55 10.2 39.9 8.3 32.9 10.1 25.85 11.15 21.65 13.1 16.9 15.75 10.7 21.1 5.35 24.0 2.45 28.2 2.1 L28.4 2.05 28.45 2.05 M28.4 4.3 Q28.3 4.3 28.25 4.4 L28.2 4.4 Q24.45 4.7 21.75 7.2 16.85 11.85 14.15 18.0 12.7 21.45 11.7 25.1 10.1 31.35 11.8 37.45 12.7 40.6 15.1 43.05 18.8 46.8 24.05 47.85 L28.2 48.25 28.45 48.25 28.7 48.25 32.8 47.85 Q38.1 46.8 41.75 43.05 44.15 40.6 45.05 37.45 46.8 31.35 45.15 25.1 44.2 21.45 42.65 18.0 40.0 11.85 35.1 7.2 32.35 4.6 28.4 4.3 M19.7 30.35 L20.4 31.7 20.7 32.65 Q22.7 36.55 26.55 34.2 28.0 31.7 26.55 28.8 28.0 28.8 30.5 32.5 32.2 35.2 35.7 34.55 39.75 34.2 40.55 26.3 42.7 29.2 41.7 36.15 40.75 43.05 34.75 45.0 28.55 46.95 23.35 45.4 18.2 43.5 16.2 40.25 14.15 36.7 14.35 34.4 14.35 32.1 14.65 30.95 14.9 29.75 16.55 28.45 17.85 27.1 19.7 30.35 M26.7 15.1 Q26.7 16.25 26.0 17.05 25.4 17.8 24.4 17.8 23.35 17.65 22.5 16.8 21.85 16.1 21.85 14.9 21.85 13.75 22.5 12.95 23.2 12.2 24.15 12.2 25.2 12.2 25.9 13.1 26.55 13.95 26.7 15.1 M32.75 15.25 Q33.35 16.25 33.35 17.25 33.35 18.35 32.75 19.35 32.05 19.9 31.05 19.9 30.05 19.9 29.35 19.15 28.7 18.2 28.7 17.05 28.7 15.8 29.35 15.1 30.05 14.3 31.05 14.55 32.05 14.55 32.75 15.25 M27.35 20.35 Q28.0 21.1 28.0 22.05 L27.55 23.8 Q26.85 24.35 26.0 24.35 25.0 24.35 24.5 23.55 23.9 22.95 23.9 21.85 23.9 20.9 24.5 20.35 25.0 19.55 26.0 19.55 26.7 19.55 27.35 20.35" fill="#000000" fill-rule="evenodd" stroke="none"/>
    </g>
  </defs>
</svg>
