<?xml version="1.0" encoding="UTF-8" standalone="no"?>
<svg xmlns:ffdec="https://www.free-decompiler.com/flash" xmlns:xlink="http://www.w3.org/1999/xlink" ffdec:objectType="frame" height="56.0px" width="56.0px" xmlns="http://www.w3.org/2000/svg">
  <g transform="matrix(1.0, 0.0, 0.0, 1.0, 0.0, 0.0)">
    <use ffdec:characterId="2" height="56.0" id="back" transform="matrix(1.0, 0.0, 0.0, 1.0, 0.0, 0.0)" width="56.0" xlink:href="#sprite0"/>
    <use ffdec:characterId="3" height="40.45" transform="matrix(1.0, 0.0, 0.0, 1.0, 2.0, 11.15)" width="52.55" xlink:href="#shape1"/>
  </g>
  <defs>
    <g id="sprite0" transform="matrix(1.0, 0.0, 0.0, 1.0, 0.0, 0.0)">
      <use ffdec:characterId="1" height="56.0" transform="matrix(1.0, 0.0, 0.0, 1.0, 0.0, 0.0)" width="56.0" xlink:href="#shape0"/>
    </g>
    <g id="shape0" transform="matrix(1.0, 0.0, 0.0, 1.0, 0.0, 0.0)">
      <path d="M56.0 56.0 L0.0 56.0 0.0 0.0 56.0 0.0 56.0 56.0" fill="#010101" fill-opacity="0.0" fill-rule="evenodd" stroke="none"/>
    </g>
    <g id="shape1" transform="matrix(1.0, 0.0, 0.0, 1.0, -2.0, -11.15)">
      <path d="M45.25 18.8 Q46.2 18.35 48.15 18.2 L48.25 18.15 48.35 17.9 48.4 17.65 48.65 16.25 Q49.1 14.05 50.3 12.4 52.6 14.65 53.5 17.65 54.4 20.3 53.8 23.5 53.2 25.7 50.95 26.85 L50.65 27.0 50.45 26.45 Q49.55 22.9 45.7 20.65 L45.0 20.25 45.25 18.8 M22.85 50.9 Q18.75 52.15 15.6 45.6 L15.4 45.6 Q11.55 46.1 8.85 41.85 7.2 37.95 9.55 34.75 L9.2 34.0 Q6.9 31.05 7.6 27.75 L7.65 27.55 7.75 27.1 Q8.6 23.5 12.5 21.25 L13.15 20.85 12.95 19.8 Q12.45 15.95 15.95 13.2 22.75 9.9 25.35 13.7 L31.25 13.9 Q33.6 9.85 40.55 13.2 44.05 15.95 43.55 19.8 L43.35 20.85 44.0 21.25 Q47.9 23.5 48.75 27.1 L48.85 27.55 48.9 27.75 Q49.6 31.05 47.35 34.0 L46.95 34.75 Q49.3 37.95 47.65 41.85 44.95 46.1 41.1 45.6 L40.9 45.6 Q37.75 52.15 33.65 50.9 29.85 49.75 28.25 48.55 26.65 49.75 22.85 50.9 M41.15 23.7 Q37.85 23.9 33.6 26.3 32.35 28.4 32.05 30.4 L33.9 30.1 Q36.25 27.1 40.25 25.1 41.0 24.3 41.15 23.7 M11.25 18.8 L11.5 20.25 10.85 20.65 Q6.95 22.9 6.05 26.45 L5.9 27.0 5.55 26.85 Q3.3 25.7 2.75 23.5 2.15 20.3 3.0 17.65 3.9 14.65 6.2 12.4 7.4 14.05 7.85 16.25 L8.15 17.65 8.15 17.9 8.25 18.15 8.35 18.2 Q10.3 18.35 11.25 18.8 M15.35 23.7 Q15.5 24.3 16.25 25.1 20.25 27.1 22.6 30.1 L24.45 30.4 Q24.15 28.4 22.9 26.3 18.65 23.9 15.35 23.7 M42.55 33.9 Q41.75 32.4 41.25 32.4 40.75 32.4 40.4 32.7 40.0 33.0 40.0 33.45 40.0 33.9 40.4 34.25 L42.4 36.1 43.55 37.1 Q43.3 35.35 42.55 33.9 M14.0 33.9 Q13.2 35.35 12.95 37.1 L14.15 36.1 16.1 34.25 Q16.5 33.9 16.5 33.45 16.5 33.0 16.1 32.7 L15.25 32.4 Q14.75 32.4 14.0 33.9 M28.3 36.95 L28.2 36.95 27.9 36.9 Q27.45 36.9 27.1 37.2 26.75 37.5 26.75 39.85 26.75 42.25 28.3 46.8 29.75 42.25 29.75 39.85 29.8 37.5 29.4 37.2 L28.6 36.9 28.3 36.95 M34.4 35.45 Q33.95 35.4 33.55 35.7 L33.05 36.4 33.3 37.25 Q34.45 39.7 38.05 42.4 37.2 38.6 36.0 37.05 34.8 35.45 34.4 35.45 M22.1 35.45 Q21.7 35.45 20.5 37.05 19.3 38.6 18.5 42.4 22.05 39.7 23.2 37.25 L23.45 36.4 22.95 35.7 Q22.55 35.4 22.1 35.45" fill="#000000" fill-rule="evenodd" stroke="none"/>
      <path d="M45.25 18.8 Q46.2 18.35 48.15 18.2 L48.25 18.15 48.35 17.9 48.4 17.65 48.65 16.25 Q49.1 14.05 50.3 12.4 52.6 14.65 53.5 17.65 54.4 20.3 53.8 23.5 53.2 25.7 50.95 26.85 L50.65 27.0 50.45 26.45 Q49.55 22.9 45.7 20.65 L45.0 20.25 45.25 18.8 M22.85 50.9 Q18.75 52.15 15.6 45.6 L15.4 45.6 Q11.55 46.1 8.85 41.85 7.2 37.95 9.55 34.75 L9.2 34.0 Q6.9 31.05 7.6 27.75 L7.65 27.55 7.75 27.1 Q8.6 23.5 12.5 21.25 L13.15 20.85 12.95 19.8 Q12.45 15.95 15.95 13.2 22.75 9.9 25.35 13.7 L31.25 13.9 Q33.6 9.85 40.55 13.2 44.05 15.95 43.55 19.8 L43.35 20.85 44.0 21.25 Q47.9 23.5 48.75 27.1 L48.85 27.55 48.9 27.75 Q49.6 31.05 47.35 34.0 L46.95 34.75 Q49.3 37.95 47.65 41.85 44.95 46.1 41.1 45.6 L40.9 45.6 Q37.75 52.15 33.65 50.9 29.85 49.75 28.25 48.55 26.65 49.75 22.85 50.9 M41.15 23.7 Q37.85 23.9 33.6 26.3 32.35 28.4 32.05 30.4 L33.9 30.1 Q36.25 27.1 40.25 25.1 41.0 24.3 41.15 23.7 M42.55 33.9 Q43.3 35.35 43.55 37.1 L42.4 36.1 40.4 34.25 Q40.0 33.9 40.0 33.45 40.0 33.0 40.4 32.7 40.75 32.4 41.25 32.4 41.75 32.4 42.55 33.9 M15.35 23.7 Q18.65 23.9 22.9 26.3 24.15 28.4 24.45 30.4 L22.6 30.1 Q20.25 27.1 16.25 25.1 15.5 24.3 15.35 23.7 M11.25 18.8 Q10.3 18.35 8.35 18.2 L8.25 18.15 8.15 17.9 8.15 17.65 7.85 16.25 Q7.4 14.05 6.2 12.4 3.9 14.65 3.0 17.65 2.15 20.3 2.75 23.5 3.3 25.7 5.55 26.85 L5.9 27.0 6.05 26.45 Q6.95 22.9 10.85 20.65 L11.5 20.25 11.25 18.8 M14.0 33.9 Q13.2 35.35 12.95 37.1 L14.15 36.1 16.1 34.25 Q16.5 33.9 16.5 33.45 16.5 33.0 16.1 32.7 L15.25 32.4 Q14.75 32.4 14.0 33.9 M28.3 36.95 L28.2 36.95 27.9 36.9 Q27.45 36.9 27.1 37.2 26.75 37.5 26.75 39.85 26.75 42.25 28.3 46.8 29.75 42.25 29.75 39.85 29.8 37.5 29.4 37.2 L28.6 36.9 28.3 36.95 M34.4 35.45 Q34.8 35.45 36.0 37.05 37.2 38.6 38.05 42.4 34.45 39.7 33.3 37.25 L33.05 36.4 33.55 35.7 Q33.95 35.4 34.4 35.45 M22.1 35.45 Q21.7 35.45 20.5 37.05 19.3 38.6 18.5 42.4 22.05 39.7 23.2 37.25 L23.45 36.4 22.95 35.7 Q22.55 35.4 22.1 35.45 Z" fill="none" stroke="#000000" stroke-linecap="round" stroke-linejoin="round" stroke-opacity="0.2" stroke-width="1.0"/>
      <path d="M45.25 18.8 Q46.2 18.35 48.15 18.2 L48.25 18.15 48.35 17.9 48.4 17.65 48.65 16.25 Q49.1 14.05 50.3 12.4 52.6 14.65 53.5 17.65 54.4 20.3 53.8 23.5 53.2 25.7 50.95 26.85 L50.65 27.0 50.45 26.45 Q49.55 22.9 45.7 20.65 L45.0 20.25 45.25 18.8 M22.85 50.9 Q18.75 52.15 15.6 45.6 L15.4 45.6 Q11.55 46.1 8.85 41.85 7.2 37.95 9.55 34.75 L9.2 34.0 Q6.9 31.05 7.6 27.75 L7.65 27.55 7.75 27.1 Q8.6 23.5 12.5 21.25 L13.15 20.85 12.95 19.8 Q12.45 15.95 15.95 13.2 22.75 9.9 25.35 13.7 L31.25 13.9 Q33.6 9.85 40.55 13.2 44.05 15.95 43.55 19.8 L43.35 20.85 44.0 21.25 Q47.9 23.5 48.75 27.1 L48.85 27.55 48.9 27.75 Q49.6 31.05 47.35 34.0 L46.95 34.75 Q49.3 37.95 47.65 41.85 44.95 46.1 41.1 45.6 L40.9 45.6 Q37.75 52.15 33.65 50.9 29.85 49.75 28.25 48.55 26.65 49.75 22.85 50.9 M41.15 23.7 Q37.85 23.9 33.6 26.3 32.35 28.4 32.05 30.4 L33.9 30.1 Q36.25 27.1 40.25 25.1 41.0 24.3 41.15 23.7 M11.25 18.8 L11.5 20.25 10.85 20.65 Q6.95 22.9 6.05 26.45 L5.9 27.0 5.55 26.85 Q3.3 25.7 2.75 23.5 2.15 20.3 3.0 17.65 3.9 14.65 6.2 12.4 7.4 14.05 7.85 16.25 L8.15 17.65 8.15 17.9 8.25 18.15 8.35 18.2 Q10.3 18.35 11.25 18.8 M15.35 23.7 Q15.5 24.3 16.25 25.1 20.25 27.1 22.6 30.1 L24.45 30.4 Q24.15 28.4 22.9 26.3 18.65 23.9 15.35 23.7 M42.55 33.9 Q41.75 32.4 41.25 32.4 40.75 32.4 40.4 32.7 40.0 33.0 40.0 33.45 40.0 33.9 40.4 34.25 L42.4 36.1 43.55 37.1 Q43.3 35.35 42.55 33.9 M14.0 33.9 Q13.2 35.35 12.95 37.1 L14.15 36.1 16.1 34.25 Q16.5 33.9 16.5 33.45 16.5 33.0 16.1 32.7 L15.25 32.4 Q14.75 32.4 14.0 33.9 M34.4 35.45 Q33.95 35.4 33.55 35.7 L33.05 36.4 33.3 37.25 Q34.45 39.7 38.05 42.4 37.2 38.6 36.0 37.05 34.8 35.45 34.4 35.45 M28.3 36.95 L28.2 36.95 27.9 36.9 Q27.45 36.9 27.1 37.2 26.75 37.5 26.75 39.85 26.75 42.25 28.3 46.8 29.75 42.25 29.75 39.85 29.8 37.5 29.4 37.2 L28.6 36.9 28.3 36.95 M22.1 35.45 Q21.7 35.45 20.5 37.05 19.3 38.6 18.5 42.4 22.05 39.7 23.2 37.25 L23.45 36.4 22.95 35.7 Q22.55 35.4 22.1 35.45" fill="#000000" fill-rule="evenodd" stroke="none"/>
    </g>
  </defs>
</svg>
