<?xml version="1.0" encoding="UTF-8" standalone="no"?>
<svg xmlns:ffdec="https://www.free-decompiler.com/flash" xmlns:xlink="http://www.w3.org/1999/xlink" ffdec:objectType="frame" height="56.0px" width="56.0px" xmlns="http://www.w3.org/2000/svg">
  <g transform="matrix(1.0, 0.0, 0.0, 1.0, 0.0, 0.0)">
    <use ffdec:characterId="2" height="56.0" id="back" transform="matrix(1.0, 0.0, 0.0, 1.0, 0.0, 0.0)" width="56.0" xlink:href="#sprite0"/>
    <use ffdec:characterId="3" height="51.3" transform="matrix(1.0, 0.0, 0.0, 1.0, 9.8, 2.0)" width="38.15" xlink:href="#shape1"/>
  </g>
  <defs>
    <g id="sprite0" transform="matrix(1.0, 0.0, 0.0, 1.0, 0.0, 0.0)">
      <use ffdec:characterId="1" height="56.0" transform="matrix(1.0, 0.0, 0.0, 1.0, 0.0, 0.0)" width="56.0" xlink:href="#shape0"/>
    </g>
    <g id="shape0" transform="matrix(1.0, 0.0, 0.0, 1.0, 0.0, 0.0)">
      <path d="M56.0 56.0 L0.0 56.0 0.0 0.0 56.0 0.0 56.0 56.0" fill="#010101" fill-opacity="0.0" fill-rule="evenodd" stroke="none"/>
    </g>
    <g id="shape1" transform="matrix(1.0, 0.0, 0.0, 1.0, -9.8, -2.0)">
      <path d="M45.3 2.85 Q46.3 2.35 46.9 2.55 47.25 2.85 47.25 3.65 47.1 5.9 44.65 10.65 L44.2 11.45 Q39.85 10.15 39.0 6.6 L40.0 5.7 Q43.05 3.55 45.3 2.85 M22.65 48.15 L22.7 48.15 Q19.7 47.25 17.25 45.55 L14.65 43.5 14.25 43.05 Q11.75 42.3 11.05 39.9 10.4 37.45 10.3 34.8 10.65 32.05 12.4 28.85 10.95 26.75 10.95 24.05 10.95 20.4 13.45 17.5 13.8 16.9 14.3 16.55 12.05 19.5 12.05 23.05 12.05 26.6 14.4 28.9 16.7 31.05 19.75 30.85 L20.35 30.85 Q22.9 30.55 25.0 28.75 L25.85 27.8 26.55 29.4 Q27.45 30.95 28.55 31.45 29.6 30.95 30.6 29.3 L31.2 27.9 31.7 28.3 Q33.85 30.55 36.85 30.95 L37.5 30.95 Q40.4 31.05 42.6 29.15 L42.75 29.0 Q45.15 26.7 45.15 23.05 45.15 19.8 43.15 16.9 L43.75 17.6 Q46.1 20.55 46.1 24.15 46.1 26.55 45.1 28.35 47.05 31.85 47.45 34.8 47.35 37.45 46.7 39.75 46.3 41.2 45.6 42.05 44.85 42.9 43.8 43.15 L43.85 43.05 43.35 43.7 41.05 45.55 Q38.1 47.55 34.5 48.35 L34.7 49.0 34.7 51.25 Q34.7 51.75 34.3 52.15 33.95 52.55 33.4 52.55 32.9 52.55 32.5 52.15 L32.15 51.6 31.75 52.4 Q31.4 52.8 30.85 52.8 30.35 52.8 29.95 52.4 29.55 52.0 29.55 51.5 L29.55 49.25 29.6 48.95 29.1 48.95 27.35 48.9 27.4 49.2 27.4 51.45 Q27.4 51.95 27.0 52.35 26.65 52.75 26.1 52.75 25.6 52.75 25.15 52.35 L24.8 51.65 24.5 52.2 Q24.1 52.6 23.55 52.6 23.05 52.6 22.65 52.2 22.25 51.8 22.25 51.3 L22.25 49.05 Q22.25 48.55 22.65 48.15 M26.1 17.95 Q27.65 19.55 27.65 21.8 27.65 24.1 26.1 25.7 24.75 26.95 23.0 27.2 L23.05 27.8 22.8 28.95 22.15 29.45 21.5 28.95 Q21.25 28.5 21.25 27.8 L21.3 27.2 Q19.95 27.0 18.9 26.15 L18.55 26.5 17.55 27.2 16.75 27.1 Q16.5 26.8 16.65 26.3 16.8 25.75 17.3 25.25 L17.65 24.9 Q17.05 24.05 16.85 23.0 L16.6 23.0 15.4 22.8 Q14.9 22.5 14.9 22.15 14.85 21.8 15.35 21.5 L16.55 21.2 16.75 21.2 Q16.85 19.9 17.65 18.85 L17.3 18.5 Q16.8 18.0 16.65 17.45 16.5 16.95 16.75 16.65 L17.55 16.55 Q18.05 16.75 18.55 17.25 L18.8 17.55 Q19.8 16.7 21.15 16.45 L21.1 16.1 Q21.1 15.4 21.35 14.95 L22.0 14.45 Q22.4 14.45 22.65 14.95 L22.9 16.1 22.9 16.4 Q24.7 16.6 26.1 17.95 M41.25 12.05 L41.3 12.1 41.35 12.15 Q43.5 14.55 45.0 13.45 43.8 15.8 41.45 15.65 39.3 13.7 36.4 13.7 34.1 13.7 32.3 14.95 31.45 15.45 30.75 16.25 29.45 17.6 28.85 19.3 L28.45 20.85 28.45 20.8 28.45 20.6 28.45 20.55 28.05 19.15 Q27.4 17.55 26.2 16.25 L24.7 14.95 Q22.85 13.7 20.55 13.7 17.65 13.7 15.5 15.65 L15.35 15.65 Q13.1 15.75 11.95 13.45 13.45 14.55 15.6 12.15 L15.65 12.1 15.7 12.05 17.1 11.1 Q18.65 10.2 20.65 10.2 22.6 10.2 24.25 11.1 L26.3 12.75 Q28.0 14.55 28.45 16.85 28.95 14.55 30.65 12.75 31.6 11.7 32.75 11.1 34.35 10.2 36.3 10.2 38.3 10.2 39.9 11.1 L41.25 12.05 M18.5 5.7 L19.55 6.6 Q18.5 10.15 14.15 11.45 L13.8 10.65 Q11.3 5.9 11.2 3.65 11.2 2.85 11.5 2.55 L13.2 2.85 Q15.45 3.55 18.5 5.7 M35.6 31.65 L31.55 29.8 Q30.5 31.55 28.6 32.65 26.9 31.7 25.35 29.85 L20.5 31.75 20.45 31.75 Q20.35 34.95 19.3 37.6 18.35 36.55 18.1 35.25 18.55 38.15 17.5 40.55 15.8 39.25 15.05 36.8 15.75 39.95 15.15 42.55 L15.45 42.9 17.9 44.85 Q22.6 48.0 29.1 48.0 35.7 48.0 40.45 44.85 L42.6 43.1 42.9 42.8 42.65 42.05 Q42.05 39.9 42.7 36.8 42.0 39.25 40.25 40.55 39.25 38.15 39.65 35.3 39.45 36.55 38.45 37.6 37.45 35.1 37.35 32.1 L35.6 31.65 M31.25 17.95 Q32.65 16.6 34.45 16.4 L34.45 16.1 Q34.45 15.4 34.7 14.95 34.95 14.45 35.35 14.45 L36.0 14.95 36.25 16.1 36.25 16.45 Q37.45 16.7 38.45 17.45 L38.65 17.25 39.65 16.55 40.45 16.65 Q40.7 16.95 40.55 17.45 L39.9 18.5 39.7 18.75 Q40.5 19.8 40.65 21.2 L40.75 21.2 41.95 21.5 Q42.45 21.8 42.4 22.15 L41.9 22.8 40.7 23.0 40.55 23.0 Q40.3 24.05 39.65 25.0 L39.9 25.25 40.55 26.3 Q40.7 26.8 40.45 27.1 L39.65 27.2 38.65 26.5 38.4 26.25 Q37.35 27.0 35.95 27.2 L36.0 27.8 35.75 28.95 35.1 29.45 Q34.7 29.45 34.45 28.95 L34.2 27.8 34.25 27.2 Q32.55 26.95 31.25 25.7 29.7 24.05 29.7 21.8 29.7 19.5 31.25 17.95 M32.2 24.75 Q33.4 25.95 35.15 25.95 36.9 25.95 38.1 24.75 39.3 23.55 39.3 21.8 39.3 20.05 38.1 18.85 36.9 17.65 35.15 17.65 33.4 17.65 32.2 18.85 31.0 20.05 31.0 21.8 31.0 23.55 32.2 24.75 M22.4 18.85 L22.95 18.9 22.4 19.2 Q22.05 19.55 22.05 20.1 22.05 20.6 22.4 20.95 22.75 21.3 23.3 21.3 L24.15 20.95 24.5 20.1 24.6 20.1 Q24.95 20.65 24.95 21.4 24.95 22.45 24.2 23.2 23.45 23.95 22.4 23.95 21.35 23.95 20.6 23.2 19.85 22.45 19.85 21.4 19.85 20.35 20.6 19.6 21.35 18.85 22.4 18.85 M35.1 18.85 Q36.15 18.85 36.9 19.6 37.65 20.35 37.65 21.4 37.65 22.45 36.9 23.2 36.15 23.95 35.1 23.95 34.05 23.95 33.3 23.2 32.55 22.45 32.55 21.4 32.55 20.65 32.9 20.1 L33.0 20.1 Q33.0 20.55 33.35 20.95 33.7 21.3 34.2 21.3 L35.1 20.95 35.45 20.1 Q35.45 19.55 35.1 19.2 L34.55 18.9 35.1 18.85 M25.15 24.8 Q26.35 23.55 26.35 21.8 26.35 20.05 25.15 18.85 23.95 17.65 22.2 17.65 20.45 17.65 19.25 18.85 18.05 20.05 18.05 21.8 18.05 23.55 19.25 24.8 20.45 25.95 22.2 25.95 23.95 25.95 25.15 24.8 M32.05 48.8 L32.1 48.95 32.15 48.8 32.05 48.8 M24.85 48.9 L24.95 48.65 24.8 48.6 24.85 48.9" fill="#000000" fill-rule="evenodd" stroke="none"/>
      <path d="M45.3 2.85 Q46.3 2.35 46.9 2.55 47.25 2.85 47.25 3.65 47.1 5.9 44.65 10.65 L44.2 11.45 Q39.85 10.15 39.0 6.6 L40.0 5.7 Q43.05 3.55 45.3 2.85 M18.5 5.7 Q15.45 3.55 13.2 2.85 L11.5 2.55 Q11.2 2.85 11.2 3.65 11.3 5.9 13.8 10.65 L14.15 11.45 Q18.5 10.15 19.55 6.6 L18.5 5.7 M41.25 12.05 L39.9 11.1 Q38.3 10.2 36.3 10.2 34.35 10.2 32.75 11.1 31.6 11.7 30.65 12.75 28.95 14.55 28.45 16.85 28.0 14.55 26.3 12.75 L24.25 11.1 Q22.6 10.2 20.65 10.2 18.65 10.2 17.1 11.1 L15.7 12.05 15.65 12.1 15.6 12.15 Q13.45 14.55 11.95 13.45 13.1 15.75 15.35 15.65 L15.5 15.65 Q17.65 13.7 20.55 13.7 22.85 13.7 24.7 14.95 L26.2 16.25 Q27.4 17.55 28.05 19.15 L28.45 20.55 28.45 20.6 28.45 20.8 28.45 20.85 28.85 19.3 Q29.45 17.6 30.75 16.25 31.45 15.45 32.3 14.95 34.1 13.7 36.4 13.7 39.3 13.7 41.45 15.65 43.8 15.8 45.0 13.45 43.5 14.55 41.35 12.15 L41.3 12.1 41.25 12.05 M26.1 17.95 Q24.7 16.6 22.9 16.4 L22.9 16.1 22.65 14.95 Q22.4 14.45 22.0 14.45 L21.35 14.95 Q21.1 15.4 21.1 16.1 L21.15 16.45 Q19.8 16.7 18.8 17.55 L18.55 17.25 Q18.05 16.75 17.55 16.55 L16.75 16.65 Q16.5 16.95 16.65 17.45 16.8 18.0 17.3 18.5 L17.65 18.85 Q16.85 19.9 16.75 21.2 L16.55 21.2 15.35 21.5 Q14.85 21.8 14.9 22.15 14.9 22.5 15.4 22.8 L16.6 23.0 16.85 23.0 Q17.05 24.05 17.65 24.9 L17.3 25.25 Q16.8 25.75 16.65 26.3 16.5 26.8 16.75 27.1 L17.55 27.2 18.55 26.5 18.9 26.15 Q19.95 27.0 21.3 27.2 L21.25 27.8 Q21.25 28.5 21.5 28.95 L22.15 29.45 22.8 28.95 23.05 27.8 23.0 27.2 Q24.75 26.95 26.1 25.7 27.65 24.1 27.65 21.8 27.65 19.55 26.1 17.95 M22.65 48.15 Q22.25 48.55 22.25 49.05 L22.25 51.3 Q22.25 51.8 22.65 52.2 23.05 52.6 23.55 52.6 24.1 52.6 24.5 52.2 L24.8 51.65 25.15 52.35 Q25.6 52.75 26.1 52.75 26.65 52.75 27.0 52.35 27.4 51.95 27.4 51.45 L27.4 49.2 27.35 48.9 29.1 48.95 29.6 48.95 29.55 49.25 29.55 51.5 Q29.55 52.0 29.95 52.4 30.35 52.8 30.85 52.8 31.4 52.8 31.75 52.4 L32.15 51.6 32.5 52.15 Q32.9 52.55 33.4 52.55 33.95 52.55 34.3 52.15 34.7 51.75 34.7 51.25 L34.7 49.0 34.5 48.35 Q38.1 47.55 41.05 45.55 L43.35 43.7 43.85 43.05 43.8 43.15 Q44.85 42.9 45.6 42.05 46.3 41.2 46.7 39.75 47.35 37.45 47.45 34.8 47.05 31.85 45.1 28.35 46.1 26.55 46.1 24.15 46.1 20.55 43.75 17.6 L43.15 16.9 Q45.15 19.8 45.15 23.05 45.15 26.7 42.75 29.0 L42.6 29.15 Q40.4 31.05 37.5 30.95 L36.85 30.95 Q33.85 30.55 31.7 28.3 L31.2 27.9 30.6 29.3 Q29.6 30.95 28.55 31.45 27.45 30.95 26.55 29.4 L25.85 27.8 25.0 28.75 Q22.9 30.55 20.35 30.85 L19.75 30.85 Q16.7 31.05 14.4 28.9 12.05 26.6 12.05 23.05 12.05 19.5 14.3 16.55 13.8 16.9 13.45 17.5 10.95 20.4 10.95 24.05 10.95 26.75 12.4 28.85 10.65 32.05 10.3 34.8 10.4 37.45 11.05 39.9 11.75 42.3 14.25 43.05 L14.65 43.5 17.25 45.55 Q19.7 47.25 22.7 48.15 L22.65 48.15 M35.6 31.65 L31.55 29.8 Q30.5 31.55 28.6 32.65 26.9 31.7 25.35 29.85 L20.5 31.75 20.45 31.75 Q20.35 34.95 19.3 37.6 18.35 36.55 18.1 35.25 18.55 38.15 17.5 40.55 15.8 39.25 15.05 36.8 15.75 39.95 15.15 42.55 L15.45 42.9 17.9 44.85 Q22.6 48.0 29.1 48.0 35.7 48.0 40.45 44.85 L42.6 43.1 42.9 42.8 42.65 42.05 Q42.05 39.9 42.7 36.8 42.0 39.25 40.25 40.55 39.25 38.15 39.65 35.3 39.45 36.55 38.45 37.6 37.45 35.1 37.35 32.1 L35.6 31.65 M31.25 17.95 Q32.65 16.6 34.45 16.4 L34.45 16.1 Q34.45 15.4 34.7 14.95 34.95 14.45 35.35 14.45 L36.0 14.95 36.25 16.1 36.25 16.45 Q37.45 16.7 38.45 17.45 L38.65 17.25 39.65 16.55 40.45 16.65 Q40.7 16.95 40.55 17.45 L39.9 18.5 39.7 18.75 Q40.5 19.8 40.65 21.2 L40.75 21.2 41.95 21.5 Q42.45 21.8 42.4 22.15 L41.9 22.8 40.7 23.0 40.55 23.0 Q40.3 24.05 39.65 25.0 L39.9 25.25 40.55 26.3 Q40.7 26.8 40.45 27.1 L39.65 27.2 38.65 26.5 38.4 26.25 Q37.35 27.0 35.95 27.2 L36.0 27.8 35.75 28.95 35.1 29.45 Q34.7 29.45 34.45 28.95 L34.2 27.8 34.25 27.2 Q32.55 26.95 31.25 25.7 29.7 24.05 29.7 21.8 29.7 19.5 31.25 17.95 M32.2 24.75 Q33.4 25.95 35.15 25.95 36.9 25.95 38.1 24.75 39.3 23.55 39.3 21.8 39.3 20.05 38.1 18.85 36.9 17.65 35.15 17.65 33.4 17.65 32.2 18.85 31.0 20.05 31.0 21.8 31.0 23.55 32.2 24.75 M22.4 18.85 L22.95 18.9 22.4 19.2 Q22.05 19.55 22.05 20.1 22.05 20.6 22.4 20.95 22.75 21.3 23.3 21.3 L24.15 20.95 24.5 20.1 24.6 20.1 Q24.95 20.65 24.95 21.4 24.95 22.45 24.2 23.2 23.45 23.95 22.4 23.95 21.35 23.95 20.6 23.2 19.85 22.45 19.85 21.4 19.85 20.35 20.6 19.6 21.35 18.85 22.4 18.85 M25.15 24.8 Q23.95 25.95 22.2 25.95 20.45 25.95 19.25 24.8 18.05 23.55 18.05 21.8 18.05 20.05 19.25 18.85 20.45 17.65 22.2 17.65 23.95 17.65 25.15 18.85 26.35 20.05 26.35 21.8 26.35 23.55 25.15 24.8 M35.1 18.85 L34.55 18.9 35.1 19.2 Q35.45 19.55 35.45 20.1 L35.1 20.95 34.2 21.3 Q33.7 21.3 33.35 20.95 33.0 20.55 33.0 20.1 L32.9 20.1 Q32.55 20.65 32.55 21.4 32.55 22.45 33.3 23.2 34.05 23.95 35.1 23.95 36.15 23.95 36.9 23.2 37.65 22.45 37.65 21.4 37.65 20.35 36.9 19.6 36.15 18.85 35.1 18.85 Z" fill="none" stroke="#000000" stroke-linecap="round" stroke-linejoin="round" stroke-opacity="0.2" stroke-width="1.0"/>
      <path d="M45.3 2.85 Q46.3 2.35 46.9 2.55 47.25 2.85 47.25 3.65 47.1 5.9 44.65 10.65 L44.2 11.45 Q39.85 10.15 39.0 6.6 L40.0 5.7 Q43.05 3.55 45.3 2.85 M22.65 48.15 L22.7 48.15 Q19.7 47.25 17.25 45.55 L14.65 43.5 14.25 43.05 Q11.75 42.3 11.05 39.9 10.4 37.45 10.3 34.8 10.65 32.05 12.4 28.85 10.95 26.75 10.95 24.05 10.95 20.4 13.45 17.5 13.8 16.9 14.3 16.55 12.05 19.5 12.05 23.05 12.05 26.6 14.4 28.9 16.7 31.05 19.75 30.85 L20.35 30.85 Q22.9 30.55 25.0 28.75 L25.85 27.8 26.55 29.4 Q27.45 30.95 28.55 31.45 29.6 30.95 30.6 29.3 L31.2 27.9 31.7 28.3 Q33.85 30.55 36.85 30.95 L37.5 30.95 Q40.4 31.05 42.6 29.15 L42.75 29.0 Q45.15 26.7 45.15 23.05 45.15 19.8 43.15 16.9 L43.75 17.6 Q46.1 20.55 46.1 24.15 46.1 26.55 45.1 28.35 47.05 31.85 47.45 34.8 47.35 37.45 46.7 39.75 46.3 41.2 45.6 42.05 44.85 42.9 43.8 43.15 L43.85 43.05 43.35 43.7 41.05 45.55 Q38.1 47.55 34.5 48.35 L34.7 49.0 34.7 51.25 Q34.7 51.75 34.3 52.15 33.95 52.55 33.4 52.55 32.9 52.55 32.5 52.15 L32.15 51.6 31.75 52.4 Q31.4 52.8 30.85 52.8 30.35 52.8 29.95 52.4 29.55 52.0 29.55 51.5 L29.55 49.25 29.6 48.95 29.1 48.95 27.35 48.9 27.4 49.2 27.4 51.45 Q27.4 51.95 27.0 52.35 26.65 52.75 26.1 52.75 25.6 52.75 25.15 52.35 L24.8 51.65 24.5 52.2 Q24.1 52.6 23.55 52.6 23.05 52.6 22.65 52.2 22.25 51.8 22.25 51.3 L22.25 49.05 Q22.25 48.55 22.65 48.15 M26.1 17.95 Q27.65 19.55 27.65 21.8 27.65 24.1 26.1 25.7 24.75 26.95 23.0 27.2 L23.05 27.8 22.8 28.95 22.15 29.45 21.5 28.95 Q21.25 28.5 21.25 27.8 L21.3 27.2 Q19.95 27.0 18.9 26.15 L18.55 26.5 17.55 27.2 16.75 27.1 Q16.5 26.8 16.65 26.3 16.8 25.75 17.3 25.25 L17.65 24.9 Q17.05 24.05 16.85 23.0 L16.6 23.0 15.4 22.8 Q14.9 22.5 14.9 22.15 14.85 21.8 15.35 21.5 L16.55 21.2 16.75 21.2 Q16.85 19.9 17.65 18.85 L17.3 18.5 Q16.8 18.0 16.65 17.45 16.5 16.95 16.75 16.65 L17.55 16.55 Q18.05 16.75 18.55 17.25 L18.8 17.55 Q19.8 16.7 21.15 16.45 L21.1 16.1 Q21.1 15.4 21.35 14.95 L22.0 14.45 Q22.4 14.45 22.65 14.95 L22.9 16.1 22.9 16.4 Q24.7 16.6 26.1 17.95 M41.25 12.05 L41.3 12.1 41.35 12.15 Q43.5 14.55 45.0 13.45 43.8 15.8 41.45 15.65 39.3 13.7 36.4 13.7 34.1 13.7 32.3 14.95 31.45 15.45 30.75 16.25 29.45 17.6 28.85 19.3 L28.45 20.85 28.45 20.8 28.45 20.6 28.45 20.55 28.05 19.15 Q27.4 17.55 26.2 16.25 L24.7 14.95 Q22.85 13.7 20.55 13.7 17.65 13.7 15.5 15.65 L15.35 15.65 Q13.1 15.75 11.95 13.45 13.45 14.55 15.6 12.15 L15.65 12.1 15.7 12.05 17.1 11.1 Q18.65 10.2 20.65 10.2 22.6 10.2 24.25 11.1 L26.3 12.75 Q28.0 14.55 28.45 16.85 28.95 14.55 30.65 12.75 31.6 11.7 32.75 11.1 34.35 10.2 36.3 10.2 38.3 10.2 39.9 11.1 L41.25 12.05 M18.5 5.7 L19.55 6.6 Q18.5 10.15 14.15 11.45 L13.8 10.65 Q11.3 5.9 11.2 3.65 11.2 2.85 11.5 2.55 L13.2 2.85 Q15.45 3.55 18.5 5.7 M35.6 31.65 L31.55 29.8 Q30.5 31.55 28.6 32.65 26.9 31.7 25.35 29.85 L20.5 31.75 20.45 31.75 Q20.35 34.95 19.3 37.6 18.35 36.55 18.1 35.25 18.55 38.15 17.5 40.55 15.8 39.25 15.05 36.8 15.75 39.95 15.15 42.55 L15.45 42.9 17.9 44.85 Q22.6 48.0 29.1 48.0 35.7 48.0 40.45 44.85 L42.6 43.1 42.9 42.8 42.65 42.05 Q42.05 39.9 42.7 36.8 42.0 39.25 40.25 40.55 39.25 38.15 39.65 35.3 39.45 36.55 38.45 37.6 37.45 35.1 37.35 32.1 L35.6 31.65 M31.25 17.95 Q32.65 16.6 34.45 16.4 L34.45 16.1 Q34.45 15.4 34.7 14.95 34.95 14.45 35.35 14.45 L36.0 14.95 36.25 16.1 36.25 16.45 Q37.45 16.7 38.45 17.45 L38.65 17.25 39.65 16.55 40.45 16.65 Q40.7 16.95 40.55 17.45 L39.9 18.5 39.7 18.75 Q40.5 19.8 40.65 21.2 L40.75 21.2 41.95 21.5 Q42.45 21.8 42.4 22.15 L41.9 22.8 40.7 23.0 40.55 23.0 Q40.3 24.05 39.65 25.0 L39.9 25.25 40.55 26.3 Q40.7 26.8 40.45 27.1 L39.65 27.2 38.65 26.5 38.4 26.25 Q37.35 27.0 35.95 27.2 L36.0 27.8 35.75 28.95 35.1 29.45 Q34.7 29.45 34.45 28.95 L34.2 27.8 34.25 27.2 Q32.55 26.95 31.25 25.7 29.7 24.05 29.7 21.8 29.7 19.5 31.25 17.95 M32.2 24.75 Q33.4 25.95 35.15 25.95 36.9 25.95 38.1 24.75 39.3 23.55 39.3 21.8 39.3 20.05 38.1 18.85 36.9 17.65 35.15 17.65 33.4 17.65 32.2 18.85 31.0 20.05 31.0 21.8 31.0 23.55 32.2 24.75 M22.4 18.85 L22.95 18.9 22.4 19.2 Q22.05 19.55 22.05 20.1 22.05 20.6 22.4 20.95 22.75 21.3 23.3 21.3 L24.15 20.95 24.5 20.1 24.6 20.1 Q24.95 20.65 24.95 21.4 24.95 22.45 24.2 23.2 23.45 23.95 22.4 23.95 21.35 23.95 20.6 23.2 19.85 22.45 19.85 21.4 19.85 20.35 20.6 19.6 21.35 18.85 22.4 18.85 M32.05 48.8 L32.1 48.95 32.15 48.8 32.05 48.8 M24.85 48.9 L24.95 48.65 24.8 48.6 24.85 48.9 M35.1 18.85 Q36.15 18.85 36.9 19.6 37.65 20.35 37.65 21.4 37.65 22.45 36.9 23.2 36.15 23.95 35.1 23.95 34.05 23.95 33.3 23.2 32.55 22.45 32.55 21.4 32.55 20.65 32.9 20.1 L33.0 20.1 Q33.0 20.55 33.35 20.95 33.7 21.3 34.2 21.3 L35.1 20.95 35.45 20.1 Q35.45 19.55 35.1 19.2 L34.55 18.9 35.1 18.85 M25.15 24.8 Q26.35 23.55 26.35 21.8 26.35 20.05 25.15 18.85 23.95 17.65 22.2 17.65 20.45 17.65 19.25 18.85 18.05 20.05 18.05 21.8 18.05 23.55 19.25 24.8 20.45 25.95 22.2 25.95 23.95 25.95 25.15 24.8" fill="#000000" fill-rule="evenodd" stroke="none"/>
    </g>
  </defs>
</svg>
