<?xml version="1.0" encoding="UTF-8" standalone="no"?>
<svg xmlns:ffdec="https://www.free-decompiler.com/flash" xmlns:xlink="http://www.w3.org/1999/xlink" ffdec:objectType="frame" height="56.0px" width="56.0px" xmlns="http://www.w3.org/2000/svg">
  <g transform="matrix(1.0, 0.0, 0.0, 1.0, 0.0, 0.0)">
    <use ffdec:characterId="2" height="56.0" id="back" transform="matrix(1.0, 0.0, 0.0, 1.0, 0.0, 0.0)" width="56.0" xlink:href="#sprite0"/>
    <use ffdec:characterId="3" height="44.9" transform="matrix(1.0, 0.0, 0.0, 1.0, 3.25, 5.4)" width="49.8" xlink:href="#shape1"/>
  </g>
  <defs>
    <g id="sprite0" transform="matrix(1.0, 0.0, 0.0, 1.0, 0.0, 0.0)">
      <use ffdec:characterId="1" height="56.0" transform="matrix(1.0, 0.0, 0.0, 1.0, 0.0, 0.0)" width="56.0" xlink:href="#shape0"/>
    </g>
    <g id="shape0" transform="matrix(1.0, 0.0, 0.0, 1.0, 0.0, 0.0)">
      <path d="M56.0 56.0 L0.0 56.0 0.0 0.0 56.0 0.0 56.0 56.0" fill="#010101" fill-opacity="0.0" fill-rule="evenodd" stroke="none"/>
    </g>
    <g id="shape1" transform="matrix(1.0, 0.0, 0.0, 1.0, -3.25, -5.4)">
      <path d="M50.0 6.45 Q51.3 5.7 52.05 6.0 52.55 6.45 52.55 7.6 52.3 10.9 49.1 17.8 L48.6 18.95 Q42.95 17.05 41.8 11.9 L43.1 10.6 Q47.05 7.45 50.0 6.45 M13.2 10.6 Q9.25 7.45 6.3 6.45 4.85 5.7 4.1 6.0 3.75 6.45 3.75 7.6 3.85 10.9 7.05 17.8 L7.55 18.95 Q13.2 17.05 14.55 11.9 L13.2 10.6 M44.7 19.85 L42.95 18.45 Q40.85 17.2 38.25 17.2 35.7 17.2 33.65 18.45 32.2 19.35 30.95 20.9 28.7 23.5 28.1 26.85 27.45 23.5 25.25 20.9 24.0 19.35 22.6 18.45 20.5 17.2 17.9 17.2 15.35 17.2 13.3 18.45 L11.5 19.85 11.45 19.95 11.4 20.0 Q8.6 23.5 6.6 21.9 8.15 25.2 11.05 25.1 L11.25 25.1 Q14.05 22.3 17.8 22.3 20.8 22.3 23.2 24.05 L25.15 26.0 Q26.75 27.9 27.55 30.2 L28.05 32.2 28.05 32.25 28.1 32.6 28.1 32.65 28.6 30.45 Q29.35 27.95 31.05 26.0 L33.05 24.05 Q35.35 22.3 38.4 22.3 42.15 22.3 44.9 25.1 L45.0 25.1 Q48.0 25.35 49.6 21.9 47.6 23.5 44.8 20.0 L44.75 19.95 44.7 19.85 M24.95 28.4 Q23.15 26.4 20.75 26.1 L20.75 25.8 Q20.75 24.8 20.4 24.1 20.05 23.4 19.55 23.4 19.1 23.4 18.75 24.1 18.4 24.8 18.4 25.8 L18.4 26.2 Q16.9 26.55 15.65 27.65 L15.4 27.4 Q14.75 26.65 14.05 26.45 13.35 26.2 13.0 26.6 12.65 26.95 12.85 27.75 13.05 28.55 13.7 29.3 L14.0 29.6 Q13.2 30.85 12.95 32.45 L12.5 32.4 Q11.6 32.45 11.0 32.85 10.4 33.25 10.4 33.75 10.4 34.3 11.05 34.7 11.65 35.1 12.55 35.05 L12.85 35.05 Q13.05 37.05 14.15 38.65 L13.7 39.05 Q13.05 39.8 12.85 40.6 12.65 41.4 13.0 41.75 L14.05 41.9 Q14.75 41.7 15.4 40.95 L15.8 40.5 Q17.1 41.6 18.8 41.9 L18.75 42.7 Q18.75 43.7 19.1 44.4 19.45 45.1 19.9 45.1 20.4 45.1 20.75 44.4 21.1 43.7 21.1 42.7 L21.05 41.85 Q23.3 41.5 24.95 39.65 27.0 37.3 27.0 34.0 27.0 30.7 24.95 28.4 M23.3 30.0 L23.95 30.2 23.15 30.5 Q22.6 30.85 22.4 31.6 22.2 32.25 22.5 32.95 22.8 33.55 23.5 33.75 L24.65 33.55 25.25 32.95 Q24.95 31.1 23.75 29.75 22.15 27.95 19.9 27.95 17.6 27.95 16.1 29.75 14.5 31.45 14.5 34.0 14.5 36.55 16.1 38.35 17.6 40.05 19.9 40.05 22.15 40.05 23.75 38.35 24.9 37.0 25.2 35.2 24.75 36.15 23.9 36.7 22.7 37.5 21.4 37.15 20.05 36.8 19.4 35.5 18.75 34.2 19.15 32.7 19.55 31.25 20.75 30.45 21.95 29.65 23.3 30.0 M23.55 45.8 L17.3 48.6 Q14.7 49.1 12.15 48.6 9.9 47.95 8.1 46.0 L6.8 44.4 Q4.85 41.4 4.85 37.4 4.85 32.05 8.1 27.85 L9.2 26.45 Q6.25 30.75 6.25 35.95 6.25 41.1 9.35 44.4 12.3 47.55 16.3 47.3 L17.05 47.3 Q20.4 46.9 23.1 44.25 L24.2 42.85 25.15 45.15 Q26.25 47.4 27.6 48.1 29.0 47.35 30.1 45.15 L31.05 42.85 32.15 44.25 Q34.85 46.9 38.2 47.3 L38.95 47.3 Q42.95 47.55 45.9 44.4 49.0 41.1 49.0 35.95 49.0 30.75 46.05 26.45 L47.15 27.85 Q50.4 32.05 50.4 37.4 50.4 41.4 48.45 44.4 L47.15 46.0 Q45.35 47.95 43.1 48.6 40.55 49.1 37.95 48.6 36.05 47.95 31.7 45.8 29.75 48.35 27.65 49.75 L27.6 49.8 27.6 49.75 Q25.5 48.35 23.55 45.8 M34.2 30.05 L33.5 30.1 34.2 30.55 Q34.65 31.05 34.65 31.8 L34.2 33.1 Q33.75 33.6 33.05 33.6 32.35 33.6 31.9 33.1 L31.7 32.8 Q32.1 31.45 33.05 30.45 34.55 28.65 36.85 28.65 39.1 28.65 40.7 30.45 42.25 32.15 42.25 34.7 42.25 37.25 40.7 39.05 39.1 40.75 36.85 40.75 34.55 40.75 33.05 39.05 31.85 37.7 31.55 36.0 L31.85 36.35 Q32.85 37.4 34.2 37.4 35.55 37.4 36.5 36.35 37.5 35.25 37.5 33.75 37.5 32.2 36.5 31.1 35.55 30.05 34.2 30.05 M31.85 29.1 Q29.75 31.4 29.75 34.7 29.75 38.0 31.85 40.35 33.25 41.95 35.1 42.45 L35.05 43.3 Q35.05 44.3 35.4 45.0 35.75 45.7 36.25 45.7 36.7 45.7 37.05 45.0 37.4 44.3 37.4 43.3 L37.4 42.65 Q39.2 42.5 40.75 41.45 L42.05 42.35 43.1 42.2 Q43.45 41.85 43.25 41.05 43.05 40.3 42.5 39.6 43.4 38.25 43.8 36.6 L45.2 36.25 Q45.9 35.85 45.9 35.3 45.9 34.8 45.25 34.4 44.7 34.05 43.95 34.0 43.75 31.65 42.5 29.85 L43.25 28.45 Q43.45 27.65 43.15 27.3 42.8 26.9 42.1 27.1 L40.8 28.05 Q39.4 27.0 37.7 26.8 L37.7 26.3 Q37.7 25.3 37.35 24.6 37.0 23.9 36.55 23.9 36.05 23.9 35.7 24.6 35.35 25.3 35.35 26.3 L35.4 26.9 Q33.35 27.35 31.85 29.1 Z" fill="none" stroke="#000000" stroke-linecap="round" stroke-linejoin="round" stroke-opacity="0.2" stroke-width="1.0"/>
      <path d="M50.0 6.45 Q51.3 5.7 52.05 6.0 52.55 6.45 52.55 7.6 52.3 10.9 49.1 17.8 L48.6 18.95 Q42.95 17.05 41.8 11.9 L43.1 10.6 Q47.05 7.45 50.0 6.45 M24.95 28.4 Q27.0 30.7 27.0 34.0 27.0 37.3 24.95 39.65 23.3 41.5 21.05 41.85 L21.1 42.7 Q21.1 43.7 20.75 44.4 20.4 45.1 19.9 45.1 19.45 45.1 19.1 44.4 18.75 43.7 18.75 42.7 L18.8 41.9 Q17.1 41.6 15.8 40.5 L15.4 40.95 Q14.75 41.7 14.05 41.9 L13.0 41.75 Q12.65 41.4 12.85 40.6 13.05 39.8 13.7 39.05 L14.15 38.65 Q13.05 37.05 12.85 35.05 L12.55 35.05 Q11.65 35.1 11.05 34.7 10.4 34.3 10.4 33.75 10.4 33.25 11.0 32.85 11.6 32.45 12.5 32.4 L12.95 32.45 Q13.2 30.85 14.0 29.6 L13.7 29.3 Q13.05 28.55 12.85 27.75 12.65 26.95 13.0 26.6 13.35 26.2 14.05 26.45 14.75 26.65 15.4 27.4 L15.65 27.65 Q16.9 26.55 18.4 26.2 L18.4 25.8 Q18.4 24.8 18.75 24.1 19.1 23.4 19.55 23.4 20.05 23.4 20.4 24.1 20.75 24.8 20.75 25.8 L20.75 26.1 Q23.15 26.4 24.95 28.4 M44.7 19.85 L44.75 19.95 44.8 20.0 Q47.6 23.5 49.6 21.9 48.0 25.35 45.0 25.1 L44.9 25.1 Q42.15 22.3 38.4 22.3 35.35 22.3 33.05 24.05 L31.05 26.0 Q29.35 27.95 28.6 30.45 L28.1 32.65 28.1 32.6 28.05 32.25 28.05 32.2 27.55 30.2 Q26.75 27.9 25.15 26.0 L23.2 24.05 Q20.8 22.3 17.8 22.3 14.05 22.3 11.25 25.1 L11.05 25.1 Q8.15 25.2 6.6 21.9 8.6 23.5 11.4 20.0 L11.45 19.95 11.5 19.85 13.3 18.45 Q15.35 17.2 17.9 17.2 20.5 17.2 22.6 18.45 24.0 19.35 25.25 20.9 27.45 23.5 28.1 26.85 28.7 23.5 30.95 20.9 32.2 19.35 33.65 18.45 35.7 17.2 38.25 17.2 40.85 17.2 42.95 18.45 L44.7 19.85 M13.2 10.6 L14.55 11.9 Q13.2 17.05 7.55 18.95 L7.05 17.8 Q3.85 10.9 3.75 7.6 3.75 6.45 4.1 6.0 4.85 5.7 6.3 6.45 9.25 7.45 13.2 10.6 M23.3 30.0 L23.95 30.2 23.15 30.5 Q22.6 30.85 22.4 31.6 22.2 32.25 22.5 32.95 22.8 33.55 23.5 33.75 L24.65 33.55 25.25 32.95 Q24.95 31.1 23.75 29.75 22.15 27.95 19.9 27.95 17.6 27.95 16.1 29.75 14.5 31.45 14.5 34.0 14.5 36.55 16.1 38.35 17.6 40.05 19.9 40.05 22.15 40.05 23.75 38.35 24.9 37.0 25.2 35.2 24.75 36.15 23.9 36.7 22.7 37.5 21.4 37.15 20.05 36.8 19.4 35.5 18.75 34.2 19.15 32.7 19.55 31.25 20.75 30.45 21.95 29.65 23.3 30.0 M23.55 45.8 L17.3 48.6 Q14.7 49.1 12.15 48.6 9.9 47.95 8.1 46.0 L6.8 44.4 Q4.85 41.4 4.85 37.4 4.85 32.05 8.1 27.85 L9.2 26.45 Q6.25 30.75 6.25 35.95 6.25 41.1 9.35 44.4 12.3 47.55 16.3 47.3 L17.05 47.3 Q20.4 46.9 23.1 44.25 L24.2 42.85 25.15 45.15 Q26.25 47.4 27.6 48.1 29.0 47.35 30.1 45.15 L31.05 42.85 32.15 44.25 Q34.85 46.9 38.2 47.3 L38.95 47.3 Q42.95 47.55 45.9 44.4 49.0 41.1 49.0 35.95 49.0 30.75 46.05 26.45 L47.15 27.85 Q50.4 32.05 50.4 37.4 50.4 41.4 48.45 44.4 L47.15 46.0 Q45.35 47.95 43.1 48.6 40.55 49.1 37.95 48.6 36.05 47.95 31.7 45.8 29.75 48.35 27.65 49.75 L27.6 49.8 27.6 49.75 Q25.5 48.35 23.55 45.8 M31.85 29.1 Q33.35 27.35 35.4 26.9 L35.35 26.3 Q35.35 25.3 35.7 24.6 36.05 23.9 36.55 23.9 37.0 23.9 37.35 24.6 37.7 25.3 37.7 26.3 L37.7 26.8 Q39.4 27.0 40.8 28.05 L42.1 27.1 Q42.8 26.9 43.15 27.3 43.45 27.65 43.25 28.45 L42.5 29.85 Q43.75 31.65 43.95 34.0 44.7 34.05 45.25 34.4 45.9 34.8 45.9 35.3 45.9 35.85 45.2 36.25 L43.8 36.6 Q43.4 38.25 42.5 39.6 43.05 40.3 43.25 41.05 43.45 41.85 43.1 42.2 L42.05 42.35 40.75 41.45 Q39.2 42.5 37.4 42.65 L37.4 43.3 Q37.4 44.3 37.05 45.0 36.7 45.7 36.25 45.7 35.75 45.7 35.4 45.0 35.05 44.3 35.05 43.3 L35.1 42.45 Q33.25 41.95 31.85 40.35 29.75 38.0 29.75 34.7 29.75 31.4 31.85 29.1 M34.2 30.05 Q35.55 30.05 36.5 31.1 37.5 32.2 37.5 33.75 37.5 35.25 36.5 36.35 35.55 37.4 34.2 37.4 32.85 37.4 31.85 36.35 L31.55 36.0 Q31.85 37.7 33.05 39.05 34.55 40.75 36.85 40.75 39.1 40.75 40.7 39.05 42.25 37.25 42.25 34.7 42.25 32.15 40.7 30.45 39.1 28.65 36.85 28.65 34.55 28.65 33.05 30.45 32.1 31.45 31.7 32.8 L31.9 33.1 Q32.35 33.6 33.05 33.6 33.75 33.6 34.2 33.1 L34.65 31.8 Q34.65 31.05 34.2 30.55 L33.5 30.1 34.2 30.05" fill="#000000" fill-rule="evenodd" stroke="none"/>
    </g>
  </defs>
</svg>
