<?xml version="1.0" encoding="UTF-8" standalone="no"?>
<svg xmlns:ffdec="https://www.free-decompiler.com/flash" xmlns:xlink="http://www.w3.org/1999/xlink" ffdec:objectType="frame" height="56.0px" width="56.0px" xmlns="http://www.w3.org/2000/svg">
  <g transform="matrix(1.0, 0.0, 0.0, 1.0, 0.0, 0.0)">
    <use ffdec:characterId="2" height="56.0" id="back" transform="matrix(1.0, 0.0, 0.0, 1.0, 0.0, 0.0)" width="56.0" xlink:href="#sprite0"/>
    <use ffdec:characterId="3" height="48.15" transform="matrix(1.0, 0.0, 0.0, 1.0, 4.85, 4.4)" width="45.85" xlink:href="#shape1"/>
  </g>
  <defs>
    <g id="sprite0" transform="matrix(1.0, 0.0, 0.0, 1.0, 0.0, 0.0)">
      <use ffdec:characterId="1" height="56.0" transform="matrix(1.0, 0.0, 0.0, 1.0, 0.0, 0.0)" width="56.0" xlink:href="#shape0"/>
    </g>
    <g id="shape0" transform="matrix(1.0, 0.0, 0.0, 1.0, 0.0, 0.0)">
      <path d="M56.0 56.0 L0.0 56.0 0.0 0.0 56.0 0.0 56.0 56.0" fill="#010101" fill-opacity="0.0" fill-rule="evenodd" stroke="none"/>
    </g>
    <g id="shape1" transform="matrix(1.0, 0.0, 0.0, 1.0, -4.85, -4.4)">
      <path d="M35.85 9.1 Q34.65 8.2 33.95 8.2 32.25 8.2 32.25 10.1 32.25 10.9 34.55 11.8 36.75 12.8 36.75 14.3 L33.85 19.95 Q30.75 25.85 30.25 27.45 L29.95 27.25 27.05 23.45 Q24.6 20.45 22.3 20.45 L19.0 20.95 Q18.3 20.95 16.7 20.25 14.7 19.35 14.7 18.45 14.7 18.05 15.8 16.85 L16.9 15.1 Q16.9 14.0 15.7 13.2 14.5 12.4 13.0 12.4 L10.5 12.7 11.3 11.8 Q18.2 4.9 27.95 4.9 34.25 4.9 39.45 7.9 39.25 9.9 37.65 9.9 37.05 9.9 35.85 9.1 M44.0 12.7 Q44.5 12.7 45.1 12.3 48.6 16.0 50.2 20.55 47.8 20.75 45.9 17.95 44.3 15.5 44.0 12.7 M10.0 41.0 Q13.4 44.0 15.5 44.0 16.4 44.0 17.4 42.5 18.2 41.2 18.2 40.4 18.2 39.4 17.2 39.0 16.1 38.6 15.9 37.3 16.4 37.2 16.9 36.7 17.4 36.3 17.9 36.3 L19.4 37.4 Q20.9 38.5 22.0 38.5 23.6 38.5 24.1 38.0 24.5 37.6 24.7 35.8 25.25 35.7 26.15 36.5 29.95 36.5 33.25 32.45 36.25 28.75 36.25 25.15 36.25 24.45 35.85 23.25 L35.45 21.85 Q35.45 20.85 38.45 18.95 L41.45 17.25 Q42.4 17.25 43.7 21.35 L45.0 25.75 40.85 28.85 Q37.95 31.15 37.95 33.05 37.95 34.6 39.75 36.0 41.35 37.3 42.7 37.3 44.6 37.3 45.5 35.9 46.5 34.5 47.4 34.5 48.0 34.5 48.9 35.1 49.9 35.8 50.2 36.6 48.4 41.3 44.6 45.1 37.65 52.05 27.95 52.05 18.2 52.05 11.3 45.1 7.45 41.3 5.75 36.6 6.85 38.4 10.0 41.0 M9.3 17.95 L9.4 17.95 Q10.2 18.25 10.7 19.25 L9.2 20.45 10.6 21.45 Q11.1 21.85 11.2 22.45 L10.9 22.75 9.9 22.75 8.9 21.95 Q8.7 22.25 8.4 23.45 L8.2 24.95 Q8.2 26.55 8.7 28.25 L8.7 29.45 6.05 29.15 Q5.35 29.05 5.35 27.25 5.35 25.75 6.75 22.45 7.95 19.55 9.0 18.25 L9.3 17.95 M20.7 22.65 L21.0 22.95 20.9 23.05 21.0 23.15 Q25.45 27.25 26.85 30.35 27.95 30.85 25.55 30.85 L21.5 30.75 Q19.7 30.75 17.7 29.35 16.3 28.35 15.9 27.25 L15.7 26.45 Q15.7 25.55 18.1 24.05 L20.5 22.65 20.7 22.65 M46.7 27.15 Q47.7 27.55 47.7 28.55 47.7 29.05 46.5 29.95 45.3 30.75 44.7 30.75 44.1 30.75 43.5 30.25 42.8 29.65 42.8 28.85 L45.0 27.35 45.7 26.95 46.7 27.15" fill="#000000" fill-rule="evenodd" stroke="none"/>
      <path d="M44.0 12.7 Q44.3 15.5 45.9 17.95 47.8 20.75 50.2 20.55 48.6 16.0 45.1 12.3 44.5 12.7 44.0 12.7 M35.85 9.1 Q37.05 9.9 37.65 9.9 39.25 9.9 39.45 7.9 34.25 4.9 27.95 4.9 18.2 4.9 11.3 11.8 L10.5 12.7 13.0 12.4 Q14.5 12.4 15.7 13.2 16.9 14.0 16.9 15.1 L15.8 16.85 Q14.7 18.05 14.7 18.45 14.7 19.35 16.7 20.25 18.3 20.95 19.0 20.95 L22.3 20.45 Q24.6 20.45 27.05 23.45 L29.95 27.25 30.25 27.45 Q30.75 25.85 33.85 19.95 L36.75 14.3 Q36.75 12.8 34.55 11.8 32.25 10.9 32.25 10.1 32.25 8.2 33.95 8.2 34.65 8.2 35.85 9.1 M10.0 41.0 Q13.4 44.0 15.5 44.0 16.4 44.0 17.4 42.5 18.2 41.2 18.2 40.4 18.2 39.4 17.2 39.0 16.1 38.6 15.9 37.3 16.4 37.2 16.9 36.7 17.4 36.3 17.9 36.3 L19.4 37.4 Q20.9 38.5 22.0 38.5 23.6 38.5 24.1 38.0 24.5 37.6 24.7 35.8 25.25 35.7 26.15 36.5 29.95 36.5 33.25 32.45 36.25 28.75 36.25 25.15 36.25 24.45 35.85 23.25 L35.45 21.85 Q35.45 20.85 38.45 18.95 L41.45 17.25 Q42.4 17.25 43.7 21.35 L45.0 25.75 40.85 28.85 Q37.95 31.15 37.95 33.05 37.95 34.6 39.75 36.0 41.35 37.3 42.7 37.3 44.6 37.3 45.5 35.9 46.5 34.5 47.4 34.5 48.0 34.5 48.9 35.1 49.9 35.8 50.2 36.6 48.4 41.3 44.6 45.1 37.65 52.05 27.95 52.05 18.2 52.05 11.3 45.1 7.45 41.3 5.75 36.6 6.85 38.4 10.0 41.0 M46.7 27.15 L45.7 26.95 45.0 27.35 42.8 28.85 Q42.8 29.65 43.5 30.25 44.1 30.75 44.7 30.75 45.3 30.75 46.5 29.95 47.7 29.05 47.7 28.55 47.7 27.55 46.7 27.15 M20.7 22.65 L20.5 22.65 18.1 24.05 Q15.7 25.55 15.7 26.45 L15.9 27.25 Q16.3 28.35 17.7 29.35 19.7 30.75 21.5 30.75 L25.55 30.85 Q27.95 30.85 26.85 30.35 25.45 27.25 21.0 23.15 L20.9 23.05 21.0 22.95 20.7 22.65 M9.3 17.95 L9.0 18.25 Q7.95 19.55 6.75 22.45 5.35 25.75 5.35 27.25 5.35 29.05 6.05 29.15 L8.7 29.45 8.7 28.25 Q8.2 26.55 8.2 24.95 L8.4 23.45 Q8.7 22.25 8.9 21.95 L9.9 22.75 10.9 22.75 11.2 22.45 Q11.1 21.85 10.6 21.45 L9.2 20.45 10.7 19.25 Q10.2 18.25 9.4 17.95 L9.3 17.95 Z" fill="none" stroke="#000000" stroke-linecap="round" stroke-linejoin="round" stroke-opacity="0.2" stroke-width="1.0"/>
      <path d="M35.85 9.1 Q34.65 8.2 33.95 8.2 32.25 8.2 32.25 10.1 32.25 10.9 34.55 11.8 36.75 12.8 36.75 14.3 L33.85 19.95 Q30.75 25.85 30.25 27.45 L29.95 27.25 27.05 23.45 Q24.6 20.45 22.3 20.45 L19.0 20.95 Q18.3 20.95 16.7 20.25 14.7 19.35 14.7 18.45 14.7 18.05 15.8 16.85 L16.9 15.1 Q16.9 14.0 15.7 13.2 14.5 12.4 13.0 12.4 L10.5 12.7 11.3 11.8 Q18.2 4.9 27.95 4.9 34.25 4.9 39.45 7.9 39.25 9.9 37.65 9.9 37.05 9.9 35.85 9.1 M44.0 12.7 Q44.5 12.7 45.1 12.3 48.6 16.0 50.2 20.55 47.8 20.75 45.9 17.95 44.3 15.5 44.0 12.7 M10.0 41.0 Q13.4 44.0 15.5 44.0 16.4 44.0 17.4 42.5 18.2 41.2 18.2 40.4 18.2 39.4 17.2 39.0 16.1 38.6 15.9 37.3 16.4 37.2 16.9 36.7 17.4 36.3 17.9 36.3 L19.4 37.4 Q20.9 38.5 22.0 38.5 23.6 38.5 24.1 38.0 24.5 37.6 24.7 35.8 25.25 35.7 26.15 36.5 29.95 36.5 33.25 32.45 36.25 28.75 36.25 25.15 36.25 24.45 35.85 23.25 L35.45 21.85 Q35.45 20.85 38.45 18.95 L41.45 17.25 Q42.4 17.25 43.7 21.35 L45.0 25.75 40.85 28.85 Q37.95 31.15 37.95 33.05 37.95 34.6 39.75 36.0 41.35 37.3 42.7 37.3 44.6 37.3 45.5 35.9 46.5 34.5 47.4 34.5 48.0 34.5 48.9 35.1 49.9 35.8 50.2 36.6 48.4 41.3 44.6 45.1 37.65 52.05 27.95 52.05 18.2 52.05 11.3 45.1 7.45 41.3 5.75 36.6 6.85 38.4 10.0 41.0 M9.3 17.95 L9.4 17.95 Q10.2 18.25 10.7 19.25 L9.2 20.45 10.6 21.45 Q11.1 21.85 11.2 22.45 L10.9 22.75 9.9 22.75 8.9 21.95 Q8.7 22.25 8.4 23.45 L8.2 24.95 Q8.2 26.55 8.7 28.25 L8.7 29.45 6.05 29.15 Q5.35 29.05 5.35 27.25 5.35 25.75 6.75 22.45 7.95 19.55 9.0 18.25 L9.3 17.95 M20.7 22.65 L21.0 22.95 20.9 23.05 21.0 23.15 Q25.45 27.25 26.85 30.35 27.95 30.85 25.55 30.85 L21.5 30.75 Q19.7 30.75 17.7 29.35 16.3 28.35 15.9 27.25 L15.7 26.45 Q15.7 25.55 18.1 24.05 L20.5 22.65 20.7 22.65 M46.7 27.15 Q47.7 27.55 47.7 28.55 47.7 29.05 46.5 29.95 45.3 30.75 44.7 30.75 44.1 30.75 43.5 30.25 42.8 29.65 42.8 28.85 L45.0 27.35 45.7 26.95 46.7 27.15" fill="#000000" fill-rule="evenodd" stroke="none"/>
    </g>
  </defs>
</svg>
