<?xml version="1.0" encoding="UTF-8" standalone="no"?>
<svg xmlns:ffdec="https://www.free-decompiler.com/flash" xmlns:xlink="http://www.w3.org/1999/xlink" ffdec:objectType="frame" height="56.0px" width="56.0px" xmlns="http://www.w3.org/2000/svg">
  <g transform="matrix(1.0, 0.0, 0.0, 1.0, 0.0, 0.0)">
    <use ffdec:characterId="2" height="56.0" id="back" transform="matrix(1.0, 0.0, 0.0, 1.0, 0.0, 0.0)" width="56.0" xlink:href="#sprite0"/>
    <use ffdec:characterId="3" height="42.0" transform="matrix(1.0, 0.0, 0.0, 1.0, 4.85, 7.15)" width="47.45" xlink:href="#shape1"/>
  </g>
  <defs>
    <g id="sprite0" transform="matrix(1.0, 0.0, 0.0, 1.0, 0.0, 0.0)">
      <use ffdec:characterId="1" height="56.0" transform="matrix(1.0, 0.0, 0.0, 1.0, 0.0, 0.0)" width="56.0" xlink:href="#shape0"/>
    </g>
    <g id="shape0" transform="matrix(1.0, 0.0, 0.0, 1.0, 0.0, 0.0)">
      <path d="M56.0 56.0 L0.0 56.0 0.0 0.0 56.0 0.0 56.0 56.0" fill="#010101" fill-opacity="0.0" fill-rule="evenodd" stroke="none"/>
    </g>
    <g id="shape1" transform="matrix(1.0, 0.0, 0.0, 1.0, -4.85, -7.15)">
      <path d="M5.75 22.85 Q6.45 16.75 7.5 10.7 L13.1 10.3 13.85 10.3 12.9 18.4 Q12.1 25.0 12.7 31.65 13.05 35.55 13.9 40.0 18.0 41.55 22.85 42.45 L31.45 43.15 37.85 42.85 Q40.35 42.5 43.15 41.45 L44.5 37.9 Q46.1 32.0 46.4 25.65 46.65 20.6 45.4 16.0 40.95 13.6 35.5 13.55 29.9 13.55 24.8 15.05 24.05 17.3 23.8 22.5 23.5 27.8 24.15 30.1 28.3 32.4 35.9 31.3 37.4 26.85 37.35 22.75 38.65 21.95 40.1 22.95 41.0 28.1 40.35 33.65 L40.25 34.75 Q34.25 36.5 28.6 35.5 L19.95 34.25 Q19.1 31.15 18.85 27.8 18.5 24.4 18.65 18.9 18.65 13.35 20.3 9.5 26.3 7.55 32.35 7.65 38.3 8.0 48.85 10.85 50.35 14.35 51.35 21.4 52.3 28.5 51.3 33.2 L49.5 40.8 48.0 45.85 Q44.05 47.3 38.7 48.1 L27.95 48.55 Q22.5 48.15 16.5 46.95 10.45 45.75 5.85 42.95 L5.7 37.1 5.35 29.25 Q5.4 26.05 5.75 22.85" fill="#000000" fill-rule="evenodd" stroke="none"/>
      <path d="M5.75 22.85 Q5.4 26.05 5.35 29.25 L5.7 37.1 5.85 42.95 Q10.45 45.75 16.5 46.95 22.5 48.15 27.95 48.55 L38.7 48.1 Q44.05 47.3 48.0 45.85 L49.5 40.8 51.3 33.2 Q52.3 28.5 51.35 21.4 50.35 14.35 48.85 10.85 38.3 8.0 32.35 7.65 26.3 7.55 20.3 9.5 18.65 13.35 18.65 18.9 18.5 24.4 18.85 27.8 19.1 31.15 19.95 34.25 L28.6 35.5 Q34.25 36.5 40.25 34.75 L40.35 33.65 Q41.0 28.1 40.1 22.95 38.65 21.95 37.35 22.75 37.4 26.85 35.9 31.3 28.3 32.4 24.15 30.1 23.5 27.8 23.8 22.5 24.05 17.3 24.8 15.05 29.9 13.55 35.5 13.55 40.95 13.6 45.4 16.0 46.65 20.6 46.4 25.65 46.1 32.0 44.5 37.9 L43.15 41.45 Q40.35 42.5 37.85 42.85 L31.45 43.15 22.85 42.45 Q18.0 41.55 13.9 40.0 13.05 35.55 12.7 31.65 12.1 25.0 12.9 18.4 L13.85 10.3 13.1 10.3 7.5 10.7 Q6.45 16.75 5.75 22.85 Z" fill="none" stroke="#000000" stroke-linecap="round" stroke-linejoin="round" stroke-opacity="0.2" stroke-width="1.0"/>
      <path d="M5.75 22.85 Q6.45 16.75 7.5 10.7 L13.1 10.3 13.85 10.3 12.9 18.4 Q12.1 25.0 12.7 31.65 13.05 35.55 13.9 40.0 18.0 41.55 22.85 42.45 L31.45 43.15 37.85 42.85 Q40.35 42.5 43.15 41.45 L44.5 37.9 Q46.1 32.0 46.4 25.65 46.65 20.6 45.4 16.0 40.95 13.6 35.5 13.55 29.9 13.55 24.8 15.05 24.05 17.3 23.8 22.5 23.5 27.8 24.15 30.1 28.3 32.4 35.9 31.3 37.4 26.85 37.35 22.75 38.65 21.95 40.1 22.95 41.0 28.1 40.35 33.65 L40.25 34.75 Q34.25 36.5 28.6 35.5 L19.95 34.25 Q19.1 31.15 18.85 27.8 18.5 24.4 18.65 18.9 18.65 13.35 20.3 9.5 26.3 7.55 32.35 7.65 38.3 8.0 48.85 10.85 50.35 14.35 51.35 21.4 52.3 28.5 51.3 33.2 L49.5 40.8 48.0 45.85 Q44.05 47.3 38.7 48.1 L27.95 48.55 Q22.5 48.15 16.5 46.95 10.45 45.75 5.85 42.95 L5.7 37.1 5.35 29.25 Q5.4 26.05 5.75 22.85" fill="#000000" fill-rule="evenodd" stroke="none"/>
    </g>
  </defs>
</svg>
