<?xml version="1.0" encoding="UTF-8" standalone="no"?>
<svg xmlns:ffdec="https://www.free-decompiler.com/flash" xmlns:xlink="http://www.w3.org/1999/xlink" ffdec:objectType="frame" height="56.0px" width="56.0px" xmlns="http://www.w3.org/2000/svg">
  <g transform="matrix(1.0, 0.0, 0.0, 1.0, 0.0, 0.0)">
    <use ffdec:characterId="2" height="56.0" id="back" transform="matrix(1.0, 0.0, 0.0, 1.0, 0.0, 0.0)" width="56.0" xlink:href="#sprite0"/>
    <use ffdec:characterId="3" height="44.85" transform="matrix(1.0, 0.0, 0.0, 1.0, 5.85, 5.05)" width="44.7" xlink:href="#shape1"/>
  </g>
  <defs>
    <g id="sprite0" transform="matrix(1.0, 0.0, 0.0, 1.0, 0.0, 0.0)">
      <use ffdec:characterId="1" height="56.0" transform="matrix(1.0, 0.0, 0.0, 1.0, 0.0, 0.0)" width="56.0" xlink:href="#shape0"/>
    </g>
    <g id="shape0" transform="matrix(1.0, 0.0, 0.0, 1.0, 0.0, 0.0)">
      <path d="M56.0 56.0 L0.0 56.0 0.0 0.0 56.0 0.0 56.0 56.0" fill="#010101" fill-opacity="0.0" fill-rule="evenodd" stroke="none"/>
    </g>
    <g id="shape1" transform="matrix(1.0, 0.0, 0.0, 1.0, -5.85, -5.05)">
      <path d="M12.7 12.0 Q19.15 5.55 28.2 5.55 37.3 5.55 43.7 12.0 49.45 17.75 50.05 25.55 L43.65 25.75 Q43.05 20.45 39.15 16.55 34.65 12.0 28.2 12.0 21.8 12.0 17.25 16.55 13.35 20.45 12.8 25.75 L6.35 25.55 Q7.0 17.75 12.7 12.0 M43.7 42.95 Q37.3 49.4 28.2 49.4 19.15 49.4 12.7 42.95 7.2 37.45 6.45 29.95 L12.85 29.8 Q13.5 34.8 17.25 38.5 21.8 43.05 28.2 43.05 34.65 43.05 39.15 38.5 42.9 34.8 43.6 29.8 L50.0 29.95 Q49.25 37.45 43.7 42.95" fill="#000000" fill-rule="evenodd" stroke="none"/>
      <path d="M12.7 12.0 Q19.15 5.55 28.2 5.55 37.3 5.55 43.7 12.0 49.45 17.75 50.05 25.55 L43.65 25.75 Q43.05 20.45 39.15 16.55 34.65 12.0 28.2 12.0 21.8 12.0 17.25 16.55 13.35 20.45 12.8 25.75 L6.35 25.55 Q7.0 17.75 12.7 12.0 M43.7 42.95 Q37.3 49.4 28.2 49.4 19.15 49.4 12.7 42.95 7.2 37.45 6.45 29.95 L12.85 29.8 Q13.5 34.8 17.25 38.5 21.8 43.05 28.2 43.05 34.65 43.05 39.15 38.5 42.9 34.8 43.6 29.8 L50.0 29.95 Q49.25 37.45 43.7 42.95 Z" fill="none" stroke="#000000" stroke-linecap="round" stroke-linejoin="round" stroke-opacity="0.2" stroke-width="1.0"/>
      <path d="M12.7 12.0 Q19.15 5.55 28.2 5.55 37.3 5.55 43.7 12.0 49.45 17.75 50.05 25.55 L43.65 25.75 Q43.05 20.45 39.15 16.55 34.65 12.0 28.2 12.0 21.8 12.0 17.25 16.55 13.35 20.45 12.8 25.75 L6.35 25.55 Q7.0 17.75 12.7 12.0 M43.7 42.95 Q37.3 49.4 28.2 49.4 19.15 49.4 12.7 42.95 7.2 37.45 6.45 29.95 L12.85 29.8 Q13.5 34.8 17.25 38.5 21.8 43.05 28.2 43.05 34.65 43.05 39.15 38.5 42.9 34.8 43.6 29.8 L50.0 29.95 Q49.25 37.45 43.7 42.95" fill="#000000" fill-rule="evenodd" stroke="none"/>
    </g>
  </defs>
</svg>
