<?xml version="1.0" encoding="UTF-8" standalone="no"?>
<svg xmlns:ffdec="https://www.free-decompiler.com/flash" xmlns:xlink="http://www.w3.org/1999/xlink" ffdec:objectType="frame" height="56.0px" width="56.0px" xmlns="http://www.w3.org/2000/svg">
  <g transform="matrix(1.0, 0.0, 0.0, 1.0, 0.0, 0.0)">
    <use ffdec:characterId="2" height="56.0" id="back" transform="matrix(1.0, 0.0, 0.0, 1.0, 0.0, 0.0)" width="56.0" xlink:href="#sprite0"/>
    <use ffdec:characterId="3" height="41.8" transform="matrix(1.0, 0.0, 0.0, 1.0, 2.25, 6.25)" width="51.05" xlink:href="#shape1"/>
  </g>
  <defs>
    <g id="sprite0" transform="matrix(1.0, 0.0, 0.0, 1.0, 0.0, 0.0)">
      <use ffdec:characterId="1" height="56.0" transform="matrix(1.0, 0.0, 0.0, 1.0, 0.0, 0.0)" width="56.0" xlink:href="#shape0"/>
    </g>
    <g id="shape0" transform="matrix(1.0, 0.0, 0.0, 1.0, 0.0, 0.0)">
      <path d="M56.0 56.0 L0.0 56.0 0.0 0.0 56.0 0.0 56.0 56.0" fill="#010101" fill-opacity="0.0" fill-rule="evenodd" stroke="none"/>
    </g>
    <g id="shape1" transform="matrix(1.0, 0.0, 0.0, 1.0, -2.25, -6.25)">
      <path d="M12.15 18.3 L12.0 18.9 10.75 17.15 10.95 16.4 10.95 16.5 Q11.65 15.0 12.7 14.1 L12.8 14.0 12.8 13.95 14.3 15.45 Q13.0 16.5 12.15 18.25 L12.15 18.3 M18.95 19.2 Q38.45 41.35 52.8 44.55 48.7 47.2 42.6 47.25 39.0 47.25 35.8 46.15 L36.2 43.05 34.2 45.45 32.45 44.1 Q28.4 40.9 15.35 23.95 L15.1 24.15 Q13.85 25.1 13.05 26.8 L12.8 27.3 12.7 27.35 Q11.7 28.35 11.15 27.75 L11.3 26.6 13.5 21.1 12.25 19.25 12.5 18.4 Q13.25 16.8 14.55 15.75 L14.6 15.75 16.4 17.45 20.85 14.0 21.8 13.8 Q22.1 14.15 22.0 14.6 L21.9 14.95 21.9 15.05 21.4 15.9 20.05 17.3 Q19.35 18.15 18.95 19.2 M6.9 11.55 Q5.4 11.7 4.4 10.7 4.35 10.0 4.55 9.4 4.65 8.5 5.2 7.75 6.1 6.65 7.5 6.75 8.35 7.85 8.35 9.7 L9.2 10.5 Q8.3 11.35 7.7 12.65 L6.9 11.55 M8.0 12.9 Q8.6 11.7 9.4 10.85 L9.45 10.8 10.9 12.15 Q9.8 13.1 9.1 14.65 L7.9 13.05 7.9 12.9 8.0 12.9 M9.35 14.95 Q10.05 13.45 11.1 12.55 L11.1 12.45 11.2 12.45 12.5 13.7 Q11.35 14.65 10.65 16.2 L10.65 16.3 10.5 16.75 9.3 15.05 9.35 14.95 M23.1 44.4 L21.35 45.75 19.35 43.35 19.75 46.45 Q16.55 47.55 12.95 47.55 6.85 47.5 2.75 44.85 11.5 42.9 22.25 33.85 L27.45 40.1 23.1 44.4 M43.45 18.55 L43.45 18.5 Q42.6 16.75 41.3 15.7 L42.8 14.2 42.8 14.3 42.9 14.35 Q43.95 15.25 44.65 16.75 L44.65 16.65 44.85 17.4 43.6 19.15 43.45 18.55 M46.25 15.2 L46.3 15.35 45.1 17.0 44.95 16.55 44.95 16.5 Q44.2 14.95 43.1 13.95 L44.35 12.7 44.45 12.7 44.45 12.8 Q45.5 13.7 46.25 15.2 M47.65 13.15 L47.7 13.15 47.7 13.25 46.55 14.95 Q45.8 13.35 44.7 12.4 L46.15 11.05 46.2 11.1 Q47.0 11.95 47.65 13.15 M48.7 11.8 L47.9 12.9 Q47.3 11.6 46.4 10.75 L47.25 9.95 Q47.25 8.15 48.1 6.95 49.5 6.85 50.4 7.95 51.0 8.75 51.1 9.65 L51.2 10.95 Q50.2 11.9 48.7 11.8 M36.6 19.5 L35.55 17.55 34.15 16.15 33.7 15.35 33.7 15.2 33.6 14.85 Q33.5 14.4 33.8 14.1 L34.75 14.3 39.2 17.7 41.0 16.05 Q42.35 17.05 43.1 18.7 L43.3 19.55 42.1 21.35 44.3 26.85 44.4 28.0 Q43.9 28.65 42.9 27.65 L42.8 27.6 42.55 27.05 Q41.75 25.4 40.5 24.4 L40.25 24.2 33.9 32.3 29.0 27.65 36.6 19.5" fill="#000000" fill-rule="evenodd" stroke="none"/>
      <path d="M12.15 18.3 L12.0 18.9 10.75 17.15 10.95 16.4 10.95 16.5 Q11.65 15.0 12.7 14.1 L12.8 14.0 12.8 13.95 14.3 15.45 Q13.0 16.5 12.15 18.25 L12.15 18.3 M18.95 19.2 Q19.35 18.15 20.05 17.3 L21.4 15.9 21.9 15.05 21.9 14.95 22.0 14.6 Q22.1 14.15 21.8 13.8 L20.85 14.0 16.4 17.45 14.6 15.75 14.55 15.75 Q13.25 16.8 12.5 18.4 L12.25 19.25 13.5 21.1 11.3 26.6 11.15 27.75 Q11.7 28.35 12.7 27.35 L12.8 27.3 13.05 26.8 Q13.85 25.1 15.1 24.15 L15.35 23.95 Q28.4 40.9 32.45 44.1 L34.2 45.45 36.2 43.05 35.8 46.15 Q39.0 47.25 42.6 47.25 48.7 47.2 52.8 44.55 38.45 41.35 18.95 19.2 M6.9 11.55 Q5.4 11.7 4.4 10.7 4.35 10.0 4.55 9.4 4.65 8.5 5.2 7.75 6.1 6.65 7.5 6.75 8.35 7.85 8.35 9.7 L9.2 10.5 Q8.3 11.35 7.7 12.65 L6.9 11.55 M8.0 12.9 Q8.6 11.7 9.4 10.85 L9.45 10.8 10.9 12.15 Q9.8 13.1 9.1 14.65 L7.9 13.05 7.9 12.9 8.0 12.9 M9.35 14.95 Q10.05 13.45 11.1 12.55 L11.1 12.45 11.2 12.45 12.5 13.7 Q11.35 14.65 10.65 16.2 L10.65 16.3 10.5 16.75 9.3 15.05 9.35 14.95 M23.1 44.4 L21.35 45.75 19.35 43.35 19.75 46.45 Q16.55 47.55 12.95 47.55 6.85 47.5 2.75 44.85 11.5 42.9 22.25 33.85 L27.45 40.1 23.1 44.4 M48.7 11.8 Q50.2 11.9 51.2 10.95 L51.1 9.65 Q51.0 8.75 50.4 7.95 49.5 6.85 48.1 6.95 47.25 8.15 47.25 9.95 L46.4 10.75 Q47.3 11.6 47.9 12.9 L48.7 11.8 M47.65 13.15 Q47.0 11.95 46.2 11.1 L46.15 11.05 44.7 12.4 Q45.8 13.35 46.55 14.95 L47.7 13.25 47.7 13.15 47.65 13.15 M46.25 15.2 Q45.5 13.7 44.45 12.8 L44.45 12.7 44.35 12.7 43.1 13.95 Q44.2 14.95 44.95 16.5 L44.95 16.55 45.1 17.0 46.3 15.35 46.25 15.2 M43.45 18.55 L43.6 19.15 44.85 17.4 44.65 16.65 44.65 16.75 Q43.95 15.25 42.9 14.35 L42.8 14.3 42.8 14.2 41.3 15.7 Q42.6 16.75 43.45 18.5 L43.45 18.55 M36.6 19.5 L35.55 17.55 34.15 16.15 33.7 15.35 33.7 15.2 33.6 14.85 Q33.5 14.4 33.8 14.1 L34.75 14.3 39.2 17.7 41.0 16.05 Q42.35 17.05 43.1 18.7 L43.3 19.55 42.1 21.35 44.3 26.85 44.4 28.0 Q43.9 28.65 42.9 27.65 L42.8 27.6 42.55 27.05 Q41.75 25.4 40.5 24.4 L40.25 24.2 33.9 32.3 29.0 27.65 36.6 19.5 Z" fill="none" stroke="#000000" stroke-linecap="round" stroke-linejoin="round" stroke-opacity="0.2" stroke-width="1.0"/>
      <path d="M18.95 19.2 Q38.45 41.35 52.8 44.55 48.7 47.2 42.6 47.25 39.0 47.25 35.8 46.15 L36.2 43.05 34.2 45.45 32.45 44.1 Q28.4 40.9 15.35 23.95 L15.1 24.15 Q13.85 25.1 13.05 26.8 L12.8 27.3 12.7 27.35 Q11.7 28.35 11.15 27.75 L11.3 26.6 13.5 21.1 12.25 19.25 12.5 18.4 Q13.25 16.8 14.55 15.75 L14.6 15.75 16.4 17.45 20.85 14.0 21.8 13.8 Q22.1 14.15 22.0 14.6 L21.9 14.95 21.9 15.05 21.4 15.9 20.05 17.3 Q19.35 18.15 18.95 19.2 M12.15 18.3 L12.0 18.9 10.75 17.15 10.95 16.4 10.95 16.5 Q11.65 15.0 12.7 14.1 L12.8 14.0 12.8 13.95 14.3 15.45 Q13.0 16.5 12.15 18.25 L12.15 18.3 M8.0 12.9 Q8.6 11.7 9.4 10.85 L9.45 10.8 10.9 12.15 Q9.8 13.1 9.1 14.65 L7.9 13.05 7.9 12.9 8.0 12.9 M6.9 11.55 Q5.4 11.7 4.4 10.7 4.35 10.0 4.55 9.4 4.65 8.5 5.2 7.75 6.1 6.65 7.5 6.75 8.35 7.85 8.35 9.7 L9.2 10.5 Q8.3 11.35 7.7 12.65 L6.9 11.55 M9.35 14.95 Q10.05 13.45 11.1 12.55 L11.1 12.45 11.2 12.45 12.5 13.7 Q11.35 14.65 10.65 16.2 L10.65 16.3 10.5 16.75 9.3 15.05 9.35 14.95 M23.1 44.4 L21.35 45.75 19.35 43.35 19.75 46.45 Q16.55 47.55 12.95 47.55 6.85 47.5 2.75 44.85 11.5 42.9 22.25 33.85 L27.45 40.1 23.1 44.4 M46.25 15.2 L46.3 15.35 45.1 17.0 44.95 16.55 44.95 16.5 Q44.2 14.95 43.1 13.95 L44.35 12.7 44.45 12.7 44.45 12.8 Q45.5 13.7 46.25 15.2 M43.45 18.55 L43.45 18.5 Q42.6 16.75 41.3 15.7 L42.8 14.2 42.8 14.3 42.9 14.35 Q43.95 15.25 44.65 16.75 L44.65 16.65 44.85 17.4 43.6 19.15 43.45 18.55 M47.65 13.15 L47.7 13.15 47.7 13.25 46.55 14.95 Q45.8 13.35 44.7 12.4 L46.15 11.05 46.2 11.1 Q47.0 11.95 47.65 13.15 M48.7 11.8 L47.9 12.9 Q47.3 11.6 46.4 10.75 L47.25 9.95 Q47.25 8.15 48.1 6.95 49.5 6.85 50.4 7.95 51.0 8.75 51.1 9.65 L51.2 10.95 Q50.2 11.9 48.7 11.8 M36.6 19.5 L35.55 17.55 34.15 16.15 33.7 15.35 33.7 15.2 33.6 14.85 Q33.5 14.4 33.8 14.1 L34.75 14.3 39.2 17.7 41.0 16.05 Q42.35 17.05 43.1 18.7 L43.3 19.55 42.1 21.35 44.3 26.85 44.4 28.0 Q43.9 28.65 42.9 27.65 L42.8 27.6 42.55 27.05 Q41.75 25.4 40.5 24.4 L40.25 24.2 33.9 32.3 29.0 27.65 36.6 19.5" fill="#000000" fill-rule="evenodd" stroke="none"/>
    </g>
  </defs>
</svg>
