<?xml version="1.0" encoding="UTF-8" standalone="no"?>
<svg xmlns:ffdec="https://www.free-decompiler.com/flash" xmlns:xlink="http://www.w3.org/1999/xlink" ffdec:objectType="frame" height="56.0px" width="56.0px" xmlns="http://www.w3.org/2000/svg">
  <g transform="matrix(1.0, 0.0, 0.0, 1.0, 0.0, 0.0)">
    <use ffdec:characterId="2" height="56.0" id="back" transform="matrix(1.0, 0.0, 0.0, 1.0, 0.0, 0.0)" width="56.0" xlink:href="#sprite0"/>
    <use ffdec:characterId="3" height="51.45" transform="matrix(1.0, 0.0, 0.0, 1.0, 5.2, 2.1)" width="45.5" xlink:href="#shape1"/>
  </g>
  <defs>
    <g id="sprite0" transform="matrix(1.0, 0.0, 0.0, 1.0, 0.0, 0.0)">
      <use ffdec:characterId="1" height="56.0" transform="matrix(1.0, 0.0, 0.0, 1.0, 0.0, 0.0)" width="56.0" xlink:href="#shape0"/>
    </g>
    <g id="shape0" transform="matrix(1.0, 0.0, 0.0, 1.0, 0.0, 0.0)">
      <path d="M56.0 56.0 L0.0 56.0 0.0 0.0 56.0 0.0 56.0 56.0" fill="#010101" fill-opacity="0.0" fill-rule="evenodd" stroke="none"/>
    </g>
    <g id="shape1" transform="matrix(1.0, 0.0, 0.0, 1.0, -5.2, -2.1)">
      <path d="M28.95 2.6 L32.8 2.95 Q36.6 4.05 38.9 6.55 41.35 9.15 41.7 12.95 L41.7 13.35 41.7 15.25 40.35 21.85 40.55 27.65 40.75 28.05 40.55 28.15 39.6 29.4 40.75 31.45 Q41.15 31.95 41.05 32.7 40.75 33.5 40.15 33.75 L39.3 34.25 38.05 34.45 Q37.25 34.15 36.9 33.5 L36.0 31.95 34.25 32.7 33.85 32.8 34.25 34.25 Q34.45 35.05 34.05 35.5 33.8 36.2 33.0 36.4 L31.95 36.5 30.7 36.3 29.9 35.2 29.5 33.5 28.95 33.5 27.6 33.5 27.3 35.2 26.4 36.3 25.15 36.5 24.2 36.4 23.1 35.5 Q22.55 35.05 22.95 34.25 L23.1 32.8 22.55 32.7 21.2 32.15 20.2 33.5 Q19.85 34.15 19.15 34.45 L17.8 34.25 16.9 33.75 Q16.35 33.5 16.25 32.7 16.05 31.95 16.35 31.45 L17.5 29.4 16.35 28.15 16.75 21.85 15.2 15.25 15.2 13.35 Q15.55 9.45 18.0 6.55 20.5 4.05 24.3 2.95 L27.5 2.6 28.95 2.6 M19.45 20.4 L19.35 20.4 Q18.65 21.4 18.3 22.55 17.9 23.9 18.75 26.8 21.65 28.45 24.85 28.15 L26.15 26.8 26.15 24.75 19.55 20.6 19.45 20.4 M37.35 20.4 L37.35 20.6 30.7 24.95 30.7 25.35 30.95 26.8 32.05 28.15 Q35.35 28.45 38.15 26.8 39.1 23.9 38.7 22.55 L37.45 20.4 37.35 20.4 M9.1 37.6 L9.85 36.0 9.9 35.95 11.3 36.5 Q10.6 37.4 10.25 38.55 L9.1 37.75 9.05 37.65 9.1 37.6 M13.35 40.15 L13.35 40.6 12.05 39.75 12.05 39.25 12.1 39.3 Q12.35 38.2 13.05 37.35 L13.1 37.3 14.6 37.95 Q13.75 38.85 13.35 40.15 M10.5 38.65 Q10.85 37.55 11.55 36.7 L11.55 36.65 11.6 36.65 12.8 37.15 Q12.1 38.05 11.8 39.2 L11.8 39.25 11.75 39.55 10.55 38.75 10.5 38.65 M18.95 39.35 Q38.25 49.45 50.2 48.45 47.4 51.0 42.55 52.3 L36.95 53.05 36.75 50.95 35.55 52.95 33.9 52.45 Q30.15 51.3 16.85 43.15 L16.7 43.3 Q15.85 44.25 15.55 45.45 L15.4 45.85 15.35 45.9 Q14.7 46.75 14.2 46.5 L14.1 45.7 14.9 41.7 13.6 40.8 13.6 40.2 Q14.0 39.0 14.85 38.05 L14.9 38.05 16.6 38.8 19.5 35.6 20.25 35.3 Q20.6 35.4 20.55 35.75 L20.5 35.95 20.55 36.05 20.35 36.65 19.45 37.85 Q19.05 38.55 18.95 39.35 M8.0 37.0 Q6.85 37.35 5.9 37.0 L5.75 36.1 Q5.7 35.55 6.05 34.9 6.55 33.95 7.65 33.8 8.55 34.3 8.85 35.5 L9.65 35.8 Q9.1 36.55 8.85 37.55 L8.0 37.0 M22.0 52.45 L20.4 52.95 19.2 51.0 19.0 53.05 13.4 52.3 Q8.55 50.95 5.7 48.4 10.75 48.85 20.55 46.0 L27.3 49.85 Q22.85 52.2 22.0 52.45 M37.05 39.3 L36.5 37.85 35.65 36.65 35.45 36.05 35.45 35.95 35.45 35.7 Q35.4 35.4 35.7 35.25 L36.45 35.6 39.4 38.75 41.1 38.05 41.15 38.05 Q42.0 39.0 42.35 40.2 L42.35 40.8 41.05 41.7 41.85 45.7 41.8 46.5 Q41.25 46.75 40.65 45.9 L40.55 45.85 40.45 45.45 Q40.1 44.2 39.3 43.3 L39.1 43.15 35.3 45.45 29.15 43.15 37.05 39.3 M27.6 31.35 Q28.25 30.75 28.05 28.45 26.3 29.7 25.65 31.15 25.65 32.4 27.6 31.35 M42.6 40.15 Q42.25 38.85 41.4 37.9 L42.85 37.25 42.85 37.3 42.95 37.35 Q43.6 38.2 43.85 39.3 L43.9 39.25 43.95 39.75 42.65 40.6 42.6 40.15 M45.45 38.65 L45.45 38.75 44.2 39.55 44.15 39.2 44.2 39.15 Q43.85 38.0 43.15 37.15 L44.35 36.65 44.45 36.65 44.45 36.7 Q45.15 37.5 45.45 38.65 M46.85 37.65 L46.9 37.65 46.9 37.75 45.7 38.5 44.7 36.5 46.1 35.95 46.1 36.0 46.85 37.65 M48.0 37.0 L47.15 37.5 Q46.9 36.55 46.3 35.85 L47.15 35.45 Q47.45 34.3 48.3 33.8 49.45 34.0 49.95 34.9 L50.2 36.1 50.1 36.95 48.0 37.0 M29.5 31.35 Q31.25 32.4 31.35 31.15 30.7 29.7 28.95 28.45 28.85 30.75 29.5 31.35" fill="#000000" fill-rule="evenodd" stroke="none"/>
      <path d="M28.95 2.6 L27.5 2.6 24.3 2.95 Q20.5 4.05 18.0 6.55 15.55 9.45 15.2 13.35 L15.2 15.25 16.75 21.85 16.35 28.15 17.5 29.4 16.35 31.45 Q16.05 31.95 16.25 32.7 16.35 33.5 16.9 33.75 L17.8 34.25 19.15 34.45 Q19.85 34.15 20.2 33.5 L21.2 32.15 22.55 32.7 23.1 32.8 22.95 34.25 Q22.55 35.05 23.1 35.5 L24.2 36.4 25.15 36.5 26.4 36.3 27.3 35.2 27.6 33.5 28.95 33.5 29.5 33.5 29.9 35.2 30.7 36.3 31.95 36.5 33.0 36.4 Q33.8 36.2 34.05 35.5 34.45 35.05 34.25 34.25 L33.85 32.8 34.25 32.7 36.0 31.95 36.9 33.5 Q37.25 34.15 38.05 34.45 L39.3 34.25 40.15 33.75 Q40.75 33.5 41.05 32.7 41.15 31.95 40.75 31.45 L39.6 29.4 40.55 28.15 40.75 28.05 40.55 27.65 40.35 21.85 41.7 15.25 41.7 13.35 41.7 12.95 Q41.35 9.15 38.9 6.55 36.6 4.05 32.8 2.95 L28.95 2.6 M19.45 20.4 L19.35 20.4 Q18.65 21.4 18.3 22.55 17.9 23.9 18.75 26.8 21.65 28.45 24.85 28.15 L26.15 26.8 26.15 24.75 19.55 20.6 19.45 20.4 M37.35 20.4 L37.45 20.4 38.7 22.55 Q39.1 23.9 38.15 26.8 35.35 28.45 32.05 28.15 L30.95 26.8 30.7 25.35 30.7 24.95 37.35 20.6 37.35 20.4 M9.1 37.6 L9.85 36.0 9.9 35.95 11.3 36.5 Q10.6 37.4 10.25 38.55 L9.1 37.75 9.05 37.65 9.1 37.6 M13.35 40.15 L13.35 40.6 12.05 39.75 12.05 39.25 12.1 39.3 Q12.35 38.2 13.05 37.35 L13.1 37.3 14.6 37.95 Q13.75 38.85 13.35 40.15 M10.5 38.65 Q10.85 37.55 11.55 36.7 L11.55 36.65 11.6 36.65 12.8 37.15 Q12.1 38.05 11.8 39.2 L11.8 39.25 11.75 39.55 10.55 38.75 10.5 38.65 M18.95 39.35 Q19.05 38.55 19.45 37.85 L20.35 36.65 20.55 36.05 20.5 35.95 20.55 35.75 Q20.6 35.4 20.25 35.3 L19.5 35.6 16.6 38.8 14.9 38.05 14.85 38.05 Q14.0 39.0 13.6 40.2 L13.6 40.8 14.9 41.7 14.1 45.7 14.2 46.5 Q14.7 46.75 15.35 45.9 L15.4 45.85 15.55 45.45 Q15.85 44.25 16.7 43.3 L16.85 43.15 Q30.15 51.3 33.9 52.45 L35.55 52.95 36.75 50.95 36.95 53.05 42.55 52.3 Q47.4 51.0 50.2 48.45 38.25 49.45 18.95 39.35 M8.0 37.0 Q6.85 37.35 5.9 37.0 L5.75 36.1 Q5.7 35.55 6.05 34.9 6.55 33.95 7.65 33.8 8.55 34.3 8.85 35.5 L9.65 35.8 Q9.1 36.55 8.85 37.55 L8.0 37.0 M22.0 52.45 L20.4 52.95 19.2 51.0 19.0 53.05 13.4 52.3 Q8.55 50.95 5.7 48.4 10.75 48.85 20.55 46.0 L27.3 49.85 Q22.85 52.2 22.0 52.45 M37.05 39.3 L36.5 37.85 35.65 36.65 35.45 36.05 35.45 35.95 35.45 35.7 Q35.4 35.4 35.7 35.25 L36.45 35.6 39.4 38.75 41.1 38.05 41.15 38.05 Q42.0 39.0 42.35 40.2 L42.35 40.8 41.05 41.7 41.85 45.7 41.8 46.5 Q41.25 46.75 40.65 45.9 L40.55 45.85 40.45 45.45 Q40.1 44.2 39.3 43.3 L39.1 43.15 35.3 45.45 29.15 43.15 37.05 39.3 M27.6 31.35 Q28.25 30.75 28.05 28.45 26.3 29.7 25.65 31.15 25.65 32.4 27.6 31.35 M29.5 31.35 Q28.85 30.75 28.95 28.45 30.7 29.7 31.35 31.15 31.25 32.4 29.5 31.35 M48.0 37.0 L50.1 36.95 50.2 36.1 49.95 34.9 Q49.45 34.0 48.3 33.8 47.45 34.3 47.15 35.45 L46.3 35.85 Q46.9 36.55 47.15 37.5 L48.0 37.0 M46.85 37.65 L46.1 36.0 46.1 35.95 44.7 36.5 45.7 38.5 46.9 37.75 46.9 37.65 46.85 37.65 M45.45 38.65 Q45.15 37.5 44.45 36.7 L44.45 36.65 44.35 36.65 43.15 37.15 Q43.85 38.0 44.2 39.15 L44.15 39.2 44.2 39.55 45.45 38.75 45.45 38.65 M42.6 40.15 L42.65 40.6 43.95 39.75 43.9 39.25 43.85 39.3 Q43.6 38.2 42.95 37.35 L42.85 37.3 42.85 37.25 41.4 37.9 Q42.25 38.85 42.6 40.15 Z" fill="none" stroke="#000000" stroke-linecap="round" stroke-linejoin="round" stroke-opacity="0.2" stroke-width="1.0"/>
      <path d="M28.95 2.6 L32.8 2.95 Q36.6 4.05 38.9 6.55 41.35 9.15 41.7 12.95 L41.7 13.35 41.7 15.25 40.35 21.85 40.55 27.65 40.75 28.05 40.55 28.15 39.6 29.4 40.75 31.45 Q41.15 31.95 41.05 32.7 40.75 33.5 40.15 33.75 L39.3 34.25 38.05 34.45 Q37.25 34.15 36.9 33.5 L36.0 31.95 34.25 32.7 33.85 32.8 34.25 34.25 Q34.45 35.05 34.05 35.5 33.8 36.2 33.0 36.4 L31.95 36.5 30.7 36.3 29.9 35.2 29.5 33.5 28.95 33.5 27.6 33.5 27.3 35.2 26.4 36.3 25.15 36.5 24.2 36.4 23.1 35.5 Q22.55 35.05 22.95 34.25 L23.1 32.8 22.55 32.7 21.2 32.15 20.2 33.5 Q19.85 34.15 19.15 34.45 L17.8 34.25 16.9 33.75 Q16.35 33.5 16.25 32.7 16.05 31.95 16.35 31.45 L17.5 29.4 16.35 28.15 16.75 21.85 15.2 15.25 15.2 13.35 Q15.55 9.45 18.0 6.55 20.5 4.05 24.3 2.95 L27.5 2.6 28.95 2.6 M19.45 20.4 L19.35 20.4 Q18.65 21.4 18.3 22.55 17.9 23.9 18.75 26.8 21.65 28.45 24.85 28.15 L26.15 26.8 26.15 24.75 19.55 20.6 19.45 20.4 M37.35 20.4 L37.35 20.6 30.7 24.95 30.7 25.35 30.95 26.8 32.05 28.15 Q35.35 28.45 38.15 26.8 39.1 23.9 38.7 22.55 L37.45 20.4 37.35 20.4 M9.1 37.6 L9.85 36.0 9.9 35.95 11.3 36.5 Q10.6 37.4 10.25 38.55 L9.1 37.75 9.05 37.65 9.1 37.6 M13.35 40.15 L13.35 40.6 12.05 39.75 12.05 39.25 12.1 39.3 Q12.35 38.2 13.05 37.35 L13.1 37.3 14.6 37.95 Q13.75 38.85 13.35 40.15 M10.5 38.65 Q10.85 37.55 11.55 36.7 L11.55 36.65 11.6 36.65 12.8 37.15 Q12.1 38.05 11.8 39.2 L11.8 39.25 11.75 39.55 10.55 38.75 10.5 38.65 M18.95 39.35 Q38.25 49.45 50.2 48.45 47.4 51.0 42.55 52.3 L36.95 53.05 36.75 50.95 35.55 52.95 33.9 52.45 Q30.15 51.3 16.85 43.15 L16.7 43.3 Q15.85 44.25 15.55 45.45 L15.4 45.85 15.35 45.9 Q14.7 46.75 14.2 46.5 L14.1 45.7 14.9 41.7 13.6 40.8 13.6 40.2 Q14.0 39.0 14.85 38.05 L14.9 38.05 16.6 38.8 19.5 35.6 20.25 35.3 Q20.6 35.4 20.55 35.75 L20.5 35.95 20.55 36.05 20.35 36.65 19.45 37.85 Q19.05 38.55 18.95 39.35 M8.0 37.0 Q6.85 37.35 5.9 37.0 L5.75 36.1 Q5.7 35.55 6.05 34.9 6.55 33.95 7.65 33.8 8.55 34.3 8.85 35.5 L9.65 35.8 Q9.1 36.55 8.85 37.55 L8.0 37.0 M22.0 52.45 L20.4 52.95 19.2 51.0 19.0 53.05 13.4 52.3 Q8.55 50.95 5.7 48.4 10.75 48.85 20.55 46.0 L27.3 49.85 Q22.85 52.2 22.0 52.45 M37.05 39.3 L36.5 37.85 35.65 36.65 35.45 36.05 35.45 35.95 35.45 35.7 Q35.4 35.4 35.7 35.25 L36.45 35.6 39.4 38.75 41.1 38.05 41.15 38.05 Q42.0 39.0 42.35 40.2 L42.35 40.8 41.05 41.7 41.85 45.7 41.8 46.5 Q41.25 46.75 40.65 45.9 L40.55 45.85 40.45 45.45 Q40.1 44.2 39.3 43.3 L39.1 43.15 35.3 45.45 29.15 43.15 37.05 39.3 M27.6 31.35 Q28.25 30.75 28.05 28.45 26.3 29.7 25.65 31.15 25.65 32.4 27.6 31.35 M42.6 40.15 Q42.25 38.85 41.4 37.9 L42.85 37.25 42.85 37.3 42.95 37.35 Q43.6 38.2 43.85 39.3 L43.9 39.25 43.95 39.75 42.65 40.6 42.6 40.15 M45.45 38.65 L45.45 38.75 44.2 39.55 44.15 39.2 44.2 39.15 Q43.85 38.0 43.15 37.15 L44.35 36.65 44.45 36.65 44.45 36.7 Q45.15 37.5 45.45 38.65 M46.85 37.65 L46.9 37.65 46.9 37.75 45.7 38.5 44.7 36.5 46.1 35.95 46.1 36.0 46.85 37.65 M48.0 37.0 L47.15 37.5 Q46.9 36.55 46.3 35.85 L47.15 35.45 Q47.45 34.3 48.3 33.8 49.45 34.0 49.95 34.9 L50.2 36.1 50.1 36.95 48.0 37.0 M29.5 31.35 Q31.25 32.4 31.35 31.15 30.7 29.7 28.95 28.45 28.85 30.75 29.5 31.35" fill="#000000" fill-rule="evenodd" stroke="none"/>
    </g>
  </defs>
</svg>
