<?xml version="1.0" encoding="UTF-8" standalone="no"?>
<svg xmlns:ffdec="https://www.free-decompiler.com/flash" xmlns:xlink="http://www.w3.org/1999/xlink" ffdec:objectType="frame" height="56.0px" width="56.0px" xmlns="http://www.w3.org/2000/svg">
  <g transform="matrix(1.0, 0.0, 0.0, 1.0, 0.0, 0.0)">
    <use ffdec:characterId="2" height="56.0" id="back" transform="matrix(1.0, 0.0, 0.0, 1.0, 0.0, 0.0)" width="56.0" xlink:href="#sprite0"/>
    <use ffdec:characterId="3" height="51.95" transform="matrix(1.0, 0.0, 0.0, 1.0, 6.2, 1.7)" width="43.35" xlink:href="#shape1"/>
  </g>
  <defs>
    <g id="sprite0" transform="matrix(1.0, 0.0, 0.0, 1.0, 0.0, 0.0)">
      <use ffdec:characterId="1" height="56.0" transform="matrix(1.0, 0.0, 0.0, 1.0, 0.0, 0.0)" width="56.0" xlink:href="#shape0"/>
    </g>
    <g id="shape0" transform="matrix(1.0, 0.0, 0.0, 1.0, 0.0, 0.0)">
      <path d="M56.0 56.0 L0.0 56.0 0.0 0.0 56.0 0.0 56.0 56.0" fill="#010101" fill-opacity="0.0" fill-rule="evenodd" stroke="none"/>
    </g>
    <g id="shape1" transform="matrix(1.0, 0.0, 0.0, 1.0, -6.2, -1.7)">
      <path d="M28.2 2.2 L32.0 2.6 Q35.7 3.65 38.0 6.1 40.35 8.7 40.75 12.4 L40.75 12.75 40.75 14.65 39.4 21.15 39.6 26.85 39.8 27.2 39.6 27.3 38.65 28.55 39.8 30.55 Q40.2 31.0 40.1 31.8 L39.25 32.8 38.35 33.3 37.15 33.5 Q36.4 33.2 36.0 32.55 L35.15 31.0 33.45 31.8 33.05 31.85 33.45 33.3 Q33.6 34.05 33.25 34.55 32.95 35.2 32.2 35.4 L31.15 35.5 29.9 35.3 29.15 34.25 28.75 32.55 28.2 32.55 26.85 32.55 26.6 34.25 25.75 35.3 24.5 35.5 23.55 35.4 22.5 34.55 Q21.95 34.05 22.3 33.3 L22.5 31.85 21.95 31.8 20.6 31.2 19.65 32.55 18.6 33.5 17.3 33.3 16.4 32.8 Q15.85 32.55 15.75 31.8 15.55 31.0 15.85 30.55 L17.0 28.55 15.85 27.3 16.25 21.15 14.7 14.65 14.7 12.75 Q15.1 8.95 17.45 6.1 19.95 3.65 23.65 2.6 L26.8 2.2 28.2 2.2 M12.15 45.3 L12.4 46.3 23.2 41.55 12.25 37.25 12.15 37.5 Q11.7 38.55 10.6 39.0 L8.55 39.05 Q7.5 38.65 6.95 37.6 6.5 36.55 6.95 35.5 7.35 34.4 8.4 33.95 L8.7 33.85 8.6 33.7 Q8.15 32.7 8.55 31.6 9.0 30.55 10.0 30.05 L12.15 30.0 Q13.2 30.4 13.7 31.5 14.15 32.55 13.75 33.6 L13.45 34.2 27.5 39.65 42.3 33.15 41.85 32.45 Q41.4 31.4 41.8 30.3 42.25 29.25 43.3 28.75 44.35 28.3 45.4 28.75 46.5 29.15 46.95 30.2 47.4 31.25 47.0 32.35 L46.85 32.65 47.15 32.75 Q48.25 33.15 48.7 34.2 49.15 35.25 48.75 36.35 48.3 37.4 47.25 37.85 L45.15 37.9 Q44.05 37.5 43.6 36.45 L43.5 36.2 31.85 41.35 43.45 45.85 43.65 44.9 Q44.05 43.8 45.1 43.35 L47.25 43.3 Q48.3 43.7 48.75 44.75 49.25 45.8 48.85 46.9 48.4 47.95 47.3 48.4 L47.1 48.5 47.2 48.7 Q47.7 49.75 47.3 50.85 46.85 51.9 45.75 52.35 L43.7 52.4 Q42.65 52.0 42.1 50.95 41.65 49.9 42.1 48.9 L27.55 43.2 13.95 49.2 13.95 49.25 Q14.4 50.3 14.0 51.4 13.55 52.45 12.5 52.9 L10.4 52.95 Q9.3 52.55 8.85 51.5 8.4 50.45 8.8 49.35 L8.95 49.15 8.6 49.0 Q7.5 48.6 7.05 47.55 6.6 46.5 7.0 45.4 7.45 44.35 8.5 43.85 9.55 43.4 10.6 43.85 11.7 44.25 12.15 45.3 M18.9 19.7 L18.8 19.7 Q18.15 20.65 17.75 21.8 17.35 23.15 18.25 26.0 21.1 27.6 24.2 27.3 L25.45 26.0 25.45 24.0 19.0 19.9 18.9 19.7 M28.75 30.45 Q30.5 31.5 30.6 30.25 29.9 28.85 28.2 27.6 28.1 29.9 28.75 30.45 M36.45 19.7 L36.45 19.9 Q33.25 21.9 29.9 24.2 L29.9 24.55 30.2 26.0 31.25 27.3 Q34.45 27.6 37.25 26.0 38.2 23.15 37.8 21.8 L36.55 19.7 36.45 19.7 M26.85 30.45 Q27.55 29.9 27.35 27.6 25.65 28.85 24.95 30.25 24.95 31.5 26.85 30.45 M12.2 47.55 L12.1 47.7 12.3 47.75 12.2 47.55" fill="#000000" fill-rule="evenodd" stroke="none"/>
      <path d="M28.2 2.2 L26.8 2.2 23.65 2.6 Q19.95 3.65 17.45 6.1 15.1 8.95 14.7 12.75 L14.7 14.65 16.25 21.15 15.85 27.3 17.0 28.55 15.85 30.55 Q15.55 31.0 15.75 31.8 15.85 32.55 16.4 32.8 L17.3 33.3 18.6 33.5 19.65 32.55 20.6 31.2 21.95 31.8 22.5 31.85 22.3 33.3 Q21.95 34.05 22.5 34.55 L23.55 35.4 24.5 35.5 25.75 35.3 26.6 34.25 26.85 32.55 28.2 32.55 28.75 32.55 29.15 34.25 29.9 35.3 31.15 35.5 32.2 35.4 Q32.95 35.2 33.25 34.55 33.6 34.05 33.45 33.3 L33.05 31.85 33.45 31.8 35.15 31.0 36.0 32.55 Q36.4 33.2 37.15 33.5 L38.35 33.3 39.25 32.8 40.1 31.8 Q40.2 31.0 39.8 30.55 L38.65 28.55 39.6 27.3 39.8 27.2 39.6 26.85 39.4 21.15 40.75 14.65 40.75 12.75 40.75 12.4 Q40.35 8.7 38.0 6.1 35.7 3.65 32.0 2.6 L28.2 2.2 M12.15 45.3 L12.4 46.3 23.2 41.55 12.25 37.25 12.15 37.5 Q11.7 38.55 10.6 39.0 L8.55 39.05 Q7.5 38.65 6.95 37.6 6.5 36.55 6.95 35.5 7.35 34.4 8.4 33.95 L8.7 33.85 8.6 33.7 Q8.15 32.7 8.55 31.6 9.0 30.55 10.0 30.05 L12.15 30.0 Q13.2 30.4 13.7 31.5 14.15 32.55 13.75 33.6 L13.45 34.2 27.5 39.65 42.3 33.15 41.85 32.45 Q41.4 31.4 41.8 30.3 42.25 29.25 43.3 28.75 44.35 28.3 45.4 28.75 46.5 29.15 46.95 30.2 47.4 31.25 47.0 32.35 L46.85 32.65 47.15 32.75 Q48.25 33.15 48.7 34.2 49.15 35.25 48.75 36.35 48.3 37.4 47.25 37.85 L45.15 37.9 Q44.05 37.5 43.6 36.45 L43.5 36.2 31.85 41.35 43.45 45.85 43.65 44.9 Q44.05 43.8 45.1 43.35 L47.25 43.3 Q48.3 43.7 48.75 44.75 49.25 45.8 48.85 46.9 48.4 47.95 47.3 48.4 L47.1 48.5 47.2 48.7 Q47.7 49.75 47.3 50.85 46.85 51.9 45.75 52.35 L43.7 52.4 Q42.65 52.0 42.1 50.95 41.65 49.9 42.1 48.9 L27.55 43.2 13.95 49.2 13.95 49.25 Q14.4 50.3 14.0 51.4 13.55 52.45 12.5 52.9 L10.4 52.95 Q9.3 52.55 8.85 51.5 8.4 50.45 8.8 49.35 L8.95 49.15 8.6 49.0 Q7.5 48.6 7.05 47.55 6.6 46.5 7.0 45.4 7.45 44.35 8.5 43.85 9.55 43.4 10.6 43.85 11.7 44.25 12.15 45.3 M18.9 19.7 L18.8 19.7 Q18.15 20.65 17.75 21.8 17.35 23.15 18.25 26.0 21.1 27.6 24.2 27.3 L25.45 26.0 25.45 24.0 19.0 19.9 18.9 19.7 M36.45 19.7 L36.55 19.7 37.8 21.8 Q38.2 23.15 37.25 26.0 34.45 27.6 31.25 27.3 L30.2 26.0 29.9 24.55 29.9 24.2 Q33.25 21.9 36.45 19.9 L36.45 19.7 M28.75 30.45 Q28.1 29.9 28.2 27.6 29.9 28.85 30.6 30.25 30.5 31.5 28.75 30.45 M26.85 30.45 Q27.55 29.9 27.35 27.6 25.65 28.85 24.95 30.25 24.95 31.5 26.85 30.45 Z" fill="none" stroke="#000000" stroke-linecap="round" stroke-linejoin="round" stroke-opacity="0.2" stroke-width="1.0"/>
      <path d="M28.2 2.2 L32.0 2.6 Q35.7 3.65 38.0 6.1 40.35 8.7 40.75 12.4 L40.75 12.75 40.75 14.65 39.4 21.15 39.6 26.85 39.8 27.2 39.6 27.3 38.65 28.55 39.8 30.55 Q40.2 31.0 40.1 31.8 L39.25 32.8 38.35 33.3 37.15 33.5 Q36.4 33.2 36.0 32.55 L35.15 31.0 33.45 31.8 33.05 31.85 33.45 33.3 Q33.6 34.05 33.25 34.55 32.95 35.2 32.2 35.4 L31.15 35.5 29.9 35.3 29.15 34.25 28.75 32.55 28.2 32.55 26.85 32.55 26.6 34.25 25.75 35.3 24.5 35.5 23.55 35.4 22.5 34.55 Q21.95 34.05 22.3 33.3 L22.5 31.85 21.95 31.8 20.6 31.2 19.65 32.55 18.6 33.5 17.3 33.3 16.4 32.8 Q15.85 32.55 15.75 31.8 15.55 31.0 15.85 30.55 L17.0 28.55 15.85 27.3 16.25 21.15 14.7 14.65 14.7 12.75 Q15.1 8.95 17.45 6.1 19.95 3.65 23.65 2.6 L26.8 2.2 28.2 2.2 M12.15 45.3 L12.4 46.3 23.2 41.55 12.25 37.25 12.15 37.5 Q11.7 38.55 10.6 39.0 L8.55 39.05 Q7.5 38.65 6.95 37.6 6.5 36.55 6.95 35.5 7.35 34.4 8.4 33.95 L8.7 33.85 8.6 33.7 Q8.15 32.7 8.55 31.6 9.0 30.55 10.0 30.05 L12.15 30.0 Q13.2 30.4 13.7 31.5 14.15 32.55 13.75 33.6 L13.45 34.2 27.5 39.65 42.3 33.15 41.85 32.45 Q41.4 31.4 41.8 30.3 42.25 29.25 43.3 28.75 44.35 28.3 45.4 28.75 46.5 29.15 46.95 30.2 47.4 31.25 47.0 32.35 L46.85 32.65 47.15 32.75 Q48.25 33.15 48.7 34.2 49.15 35.25 48.75 36.35 48.3 37.4 47.25 37.85 L45.15 37.9 Q44.05 37.5 43.6 36.45 L43.5 36.2 31.85 41.35 43.45 45.85 43.65 44.9 Q44.05 43.8 45.1 43.35 L47.25 43.3 Q48.3 43.7 48.75 44.75 49.25 45.8 48.85 46.9 48.4 47.95 47.3 48.4 L47.1 48.5 47.2 48.7 Q47.7 49.75 47.3 50.85 46.85 51.9 45.75 52.35 L43.7 52.4 Q42.65 52.0 42.1 50.95 41.65 49.9 42.1 48.9 L27.55 43.2 13.95 49.2 13.95 49.25 Q14.4 50.3 14.0 51.4 13.55 52.45 12.5 52.9 L10.4 52.95 Q9.3 52.55 8.85 51.5 8.4 50.45 8.8 49.35 L8.95 49.15 8.6 49.0 Q7.5 48.6 7.05 47.55 6.6 46.5 7.0 45.4 7.45 44.35 8.5 43.85 9.55 43.4 10.6 43.85 11.7 44.25 12.15 45.3 M18.9 19.7 L18.8 19.7 Q18.15 20.65 17.75 21.8 17.35 23.15 18.25 26.0 21.1 27.6 24.2 27.3 L25.45 26.0 25.45 24.0 19.0 19.9 18.9 19.7 M28.75 30.45 Q30.5 31.5 30.6 30.25 29.9 28.85 28.2 27.6 28.1 29.9 28.75 30.45 M36.45 19.7 L36.45 19.9 Q33.25 21.9 29.9 24.2 L29.9 24.55 30.2 26.0 31.25 27.3 Q34.45 27.6 37.25 26.0 38.2 23.15 37.8 21.8 L36.55 19.7 36.45 19.7 M26.85 30.45 Q27.55 29.9 27.35 27.6 25.65 28.85 24.95 30.25 24.95 31.5 26.85 30.45 M12.2 47.55 L12.1 47.7 12.3 47.75 12.2 47.55" fill="#000000" fill-rule="evenodd" stroke="none"/>
    </g>
  </defs>
</svg>
