<?xml version="1.0" encoding="UTF-8" standalone="no"?>
<svg xmlns:ffdec="https://www.free-decompiler.com/flash" xmlns:xlink="http://www.w3.org/1999/xlink" ffdec:objectType="frame" height="56.0px" width="56.0px" xmlns="http://www.w3.org/2000/svg">
  <g transform="matrix(1.0, 0.0, 0.0, 1.0, 0.0, 0.0)">
    <use ffdec:characterId="2" height="56.0" id="back" transform="matrix(1.0, 0.0, 0.0, 1.0, 0.0, 0.0)" width="56.0" xlink:href="#sprite0"/>
    <use ffdec:characterId="3" height="48.55" transform="matrix(1.0, 0.0, 0.0, 1.0, 3.65, 3.6)" width="48.85" xlink:href="#shape1"/>
  </g>
  <defs>
    <g id="sprite0" transform="matrix(1.0, 0.0, 0.0, 1.0, 0.0, 0.0)">
      <use ffdec:characterId="1" height="56.0" transform="matrix(1.0, 0.0, 0.0, 1.0, 0.0, 0.0)" width="56.0" xlink:href="#shape0"/>
    </g>
    <g id="shape0" transform="matrix(1.0, 0.0, 0.0, 1.0, 0.0, 0.0)">
      <path d="M56.0 56.0 L0.0 56.0 0.0 0.0 56.0 0.0 56.0 56.0" fill="#010101" fill-opacity="0.0" fill-rule="evenodd" stroke="none"/>
    </g>
    <g id="shape1" transform="matrix(1.0, 0.0, 0.0, 1.0, -3.65, -3.6)">
      <path d="M28.3 29.2 L28.05 28.6 27.45 28.35 Q27.05 28.35 26.8 28.6 26.55 28.85 26.55 29.2 L26.8 29.8 27.45 30.05 28.05 29.8 28.3 29.2 M29.75 29.2 Q29.75 30.15 29.05 30.85 28.35 31.55 27.4 31.55 26.45 31.55 25.75 30.85 25.05 30.15 25.05 29.2 25.05 28.25 25.75 27.55 26.45 26.85 27.4 26.85 28.35 26.85 29.05 27.55 29.75 28.25 29.75 29.2 M30.35 29.2 Q30.35 27.95 29.5 27.1 28.65 26.25 27.4 26.25 26.15 26.25 25.3 27.1 24.45 27.95 24.45 29.2 24.45 30.45 25.3 31.25 26.15 32.15 27.4 32.15 28.65 32.15 29.5 31.25 30.35 30.45 30.35 29.2 M33.25 29.2 Q33.25 31.6 31.55 33.3 29.85 35.05 27.4 35.05 25.0 35.05 23.25 33.3 21.55 31.6 21.55 29.2 21.55 26.75 23.25 25.05 25.0 23.3 27.4 23.3 29.85 23.3 31.55 25.05 33.25 26.75 33.25 29.2 M26.7 22.5 Q23.85 23.4 21.75 26.35 14.25 21.4 12.65 16.55 11.0 11.7 13.05 9.9 23.55 0.4 35.9 6.5 L36.55 6.8 Q43.2 10.5 38.65 13.3 36.4 14.7 31.75 14.9 27.15 15.1 25.3 17.7 27.5 15.8 29.95 16.2 26.4 17.95 26.7 22.5 M22.65 33.35 Q24.85 35.35 28.45 35.75 27.9 44.7 24.5 48.5 21.15 52.3 18.55 51.5 5.1 47.2 4.2 33.4 L4.15 32.65 Q4.05 25.1 8.7 27.6 11.05 28.85 13.5 32.75 16.0 36.7 19.25 36.95 16.5 36.0 15.6 33.7 18.85 35.95 22.65 33.35 M33.65 31.7 Q34.3 28.85 32.8 25.5 40.85 21.5 45.85 22.5 50.8 23.5 51.4 26.15 54.4 40.0 42.9 47.65 L42.3 48.05 Q35.75 51.95 35.6 46.65 35.55 44.0 37.7 39.9 39.85 35.8 38.5 32.85 39.0 35.75 37.5 37.65 37.75 33.7 33.65 31.7" fill="#000000" fill-rule="evenodd" stroke="none"/>
      <path d="M28.3 29.2 L28.05 29.8 27.45 30.05 26.8 29.8 26.55 29.2 Q26.55 28.85 26.8 28.6 27.05 28.35 27.45 28.35 L28.05 28.6 28.3 29.2 M29.75 29.2 Q29.75 30.15 29.05 30.85 28.35 31.55 27.4 31.55 26.45 31.55 25.75 30.85 25.05 30.15 25.05 29.2 25.05 28.25 25.75 27.55 26.45 26.85 27.4 26.85 28.35 26.85 29.05 27.55 29.75 28.25 29.75 29.2 M30.35 29.2 Q30.35 30.45 29.5 31.25 28.65 32.15 27.4 32.15 26.15 32.15 25.3 31.25 24.45 30.45 24.45 29.2 24.45 27.95 25.3 27.1 26.15 26.25 27.4 26.25 28.65 26.25 29.5 27.1 30.35 27.95 30.35 29.2 M33.25 29.2 Q33.25 31.6 31.55 33.3 29.85 35.05 27.4 35.05 25.0 35.05 23.25 33.3 21.55 31.6 21.55 29.2 21.55 26.75 23.25 25.05 25.0 23.3 27.4 23.3 29.85 23.3 31.55 25.05 33.25 26.75 33.25 29.2 M26.7 22.5 Q23.85 23.4 21.75 26.35 14.25 21.4 12.65 16.55 11.0 11.7 13.05 9.9 23.55 0.4 35.9 6.5 L36.55 6.8 Q43.2 10.5 38.65 13.3 36.4 14.7 31.75 14.9 27.15 15.1 25.3 17.7 27.5 15.8 29.95 16.2 26.4 17.95 26.7 22.5 M22.65 33.35 Q24.85 35.35 28.45 35.75 27.9 44.7 24.5 48.5 21.15 52.3 18.55 51.5 5.1 47.2 4.2 33.4 L4.15 32.65 Q4.05 25.1 8.7 27.6 11.05 28.85 13.5 32.75 16.0 36.7 19.25 36.95 16.5 36.0 15.6 33.7 18.85 35.95 22.65 33.35 M33.65 31.7 Q34.3 28.85 32.8 25.5 40.85 21.5 45.85 22.5 50.8 23.5 51.4 26.15 54.4 40.0 42.9 47.65 L42.3 48.05 Q35.75 51.95 35.6 46.65 35.55 44.0 37.7 39.9 39.85 35.8 38.5 32.85 39.0 35.75 37.5 37.65 37.75 33.7 33.65 31.7 Z" fill="none" stroke="#000000" stroke-linecap="round" stroke-linejoin="round" stroke-opacity="0.2" stroke-width="1.0"/>
      <path d="M30.35 29.2 Q30.35 27.95 29.5 27.1 28.65 26.25 27.4 26.25 26.15 26.25 25.3 27.1 24.45 27.95 24.45 29.2 24.45 30.45 25.3 31.25 26.15 32.15 27.4 32.15 28.65 32.15 29.5 31.25 30.35 30.45 30.35 29.2 M29.75 29.2 Q29.75 30.15 29.05 30.85 28.35 31.55 27.4 31.55 26.45 31.55 25.75 30.85 25.05 30.15 25.05 29.2 25.05 28.25 25.75 27.55 26.45 26.85 27.4 26.85 28.35 26.85 29.05 27.55 29.75 28.25 29.75 29.2 M28.3 29.2 L28.05 28.6 27.45 28.35 Q27.05 28.35 26.8 28.6 26.55 28.85 26.55 29.2 L26.8 29.8 27.45 30.05 28.05 29.8 28.3 29.2 M33.25 29.2 Q33.25 31.6 31.55 33.3 29.85 35.05 27.4 35.05 25.0 35.05 23.25 33.3 21.55 31.6 21.55 29.2 21.55 26.75 23.25 25.05 25.0 23.3 27.4 23.3 29.85 23.3 31.55 25.05 33.25 26.75 33.25 29.2 M26.7 22.5 Q23.85 23.4 21.75 26.35 14.25 21.4 12.65 16.55 11.0 11.7 13.05 9.9 23.55 0.4 35.9 6.5 L36.55 6.8 Q43.2 10.5 38.65 13.3 36.4 14.7 31.75 14.9 27.15 15.1 25.3 17.7 27.5 15.8 29.95 16.2 26.4 17.95 26.7 22.5 M22.65 33.35 Q24.85 35.35 28.45 35.75 27.9 44.7 24.5 48.5 21.15 52.3 18.55 51.5 5.1 47.2 4.2 33.4 L4.15 32.65 Q4.05 25.1 8.7 27.6 11.05 28.85 13.5 32.75 16.0 36.7 19.25 36.95 16.5 36.0 15.6 33.7 18.85 35.95 22.65 33.35 M33.65 31.7 Q34.3 28.85 32.8 25.5 40.85 21.5 45.85 22.5 50.8 23.5 51.4 26.15 54.4 40.0 42.9 47.65 L42.3 48.05 Q35.75 51.95 35.6 46.65 35.55 44.0 37.7 39.9 39.85 35.8 38.5 32.85 39.0 35.75 37.5 37.65 37.75 33.7 33.65 31.7" fill="#000000" fill-rule="evenodd" stroke="none"/>
    </g>
  </defs>
</svg>
