<?xml version="1.0" encoding="UTF-8" standalone="no"?>
<svg xmlns:ffdec="https://www.free-decompiler.com/flash" xmlns:xlink="http://www.w3.org/1999/xlink" ffdec:objectType="frame" height="56.0px" width="56.0px" xmlns="http://www.w3.org/2000/svg">
  <g transform="matrix(1.0, 0.0, 0.0, 1.0, 0.0, 0.0)">
    <use ffdec:characterId="2" height="56.0" id="back" transform="matrix(1.0, 0.0, 0.0, 1.0, 0.0, 0.0)" width="56.0" xlink:href="#sprite0"/>
    <use ffdec:characterId="3" height="43.25" transform="matrix(1.0, 0.0, 0.0, 1.0, 3.8, 7.05)" width="47.95" xlink:href="#shape1"/>
  </g>
  <defs>
    <g id="sprite0" transform="matrix(1.0, 0.0, 0.0, 1.0, 0.0, 0.0)">
      <use ffdec:characterId="1" height="56.0" transform="matrix(1.0, 0.0, 0.0, 1.0, 0.0, 0.0)" width="56.0" xlink:href="#shape0"/>
    </g>
    <g id="shape0" transform="matrix(1.0, 0.0, 0.0, 1.0, 0.0, 0.0)">
      <path d="M56.0 56.0 L0.0 56.0 0.0 0.0 56.0 0.0 56.0 56.0" fill="#010101" fill-opacity="0.0" fill-rule="evenodd" stroke="none"/>
    </g>
    <g id="shape1" transform="matrix(1.0, 0.0, 0.0, 1.0, -3.8, -7.05)">
      <path d="M12.25 39.9 Q9.85 39.4 8.55 38.35 5.65 34.75 4.3 27.1 9.55 28.65 11.95 30.0 11.25 27.45 11.25 24.6 11.25 17.05 16.05 11.65 18.7 8.85 21.9 7.55 L21.9 12.65 18.05 12.65 27.8 22.5 37.5 12.65 33.65 12.65 33.65 7.55 Q36.85 8.85 39.5 11.65 44.35 17.05 44.35 24.6 44.35 27.45 43.65 30.0 46.05 28.65 51.25 27.1 49.95 34.75 47.0 38.35 45.7 39.4 43.3 39.9 L40.55 40.35 38.1 45.8 Q33.0 49.0 27.9 49.8 L27.75 49.8 27.65 49.8 Q22.55 49.0 17.5 45.8 L15.0 40.35 12.25 39.9" fill="#000000" fill-rule="evenodd" stroke="none"/>
      <path d="M12.25 39.9 Q9.85 39.4 8.55 38.35 5.65 34.75 4.3 27.1 9.55 28.65 11.95 30.0 11.25 27.45 11.25 24.6 11.25 17.05 16.05 11.65 18.7 8.85 21.9 7.55 L21.9 12.65 18.05 12.65 27.8 22.5 37.5 12.65 33.65 12.65 33.65 7.55 Q36.85 8.85 39.5 11.65 44.35 17.05 44.35 24.6 44.35 27.45 43.65 30.0 46.05 28.65 51.25 27.1 49.95 34.75 47.0 38.35 45.7 39.4 43.3 39.9 L40.55 40.35 38.1 45.8 Q33.0 49.0 27.9 49.8 L27.75 49.8 27.65 49.8 Q22.55 49.0 17.5 45.8 L15.0 40.35 12.25 39.9 Z" fill="none" stroke="#000000" stroke-linecap="round" stroke-linejoin="round" stroke-opacity="0.2" stroke-width="1.0"/>
      <path d="M12.25 39.9 Q9.85 39.4 8.55 38.35 5.65 34.75 4.3 27.1 9.55 28.65 11.95 30.0 11.25 27.45 11.25 24.6 11.25 17.05 16.05 11.65 18.7 8.85 21.9 7.55 L21.9 12.65 18.05 12.65 27.8 22.5 37.5 12.65 33.65 12.65 33.65 7.55 Q36.85 8.85 39.5 11.65 44.35 17.05 44.35 24.6 44.35 27.45 43.65 30.0 46.05 28.65 51.25 27.1 49.95 34.75 47.0 38.35 45.7 39.4 43.3 39.9 L40.55 40.35 38.1 45.8 Q33.0 49.0 27.9 49.8 L27.75 49.8 27.65 49.8 Q22.55 49.0 17.5 45.8 L15.0 40.35 12.25 39.9" fill="#000000" fill-rule="evenodd" stroke="none"/>
    </g>
  </defs>
</svg>
