<?xml version="1.0" encoding="UTF-8" standalone="no"?>
<svg xmlns:ffdec="https://www.free-decompiler.com/flash" xmlns:xlink="http://www.w3.org/1999/xlink" ffdec:objectType="frame" height="56.0px" width="56.0px" xmlns="http://www.w3.org/2000/svg">
  <g transform="matrix(1.0, 0.0, 0.0, 1.0, 0.0, 0.0)">
    <use ffdec:characterId="2" height="56.0" id="back" transform="matrix(1.0, 0.0, 0.0, 1.0, 0.0, 0.0)" width="56.0" xlink:href="#sprite0"/>
    <use ffdec:characterId="3" height="46.1" transform="matrix(1.0, 0.0, 0.0, 1.0, 9.2, 3.9)" width="38.75" xlink:href="#shape1"/>
  </g>
  <defs>
    <g id="sprite0" transform="matrix(1.0, 0.0, 0.0, 1.0, 0.0, 0.0)">
      <use ffdec:characterId="1" height="56.0" transform="matrix(1.0, 0.0, 0.0, 1.0, 0.0, 0.0)" width="56.0" xlink:href="#shape0"/>
    </g>
    <g id="shape0" transform="matrix(1.0, 0.0, 0.0, 1.0, 0.0, 0.0)">
      <path d="M56.0 56.0 L0.0 56.0 0.0 0.0 56.0 0.0 56.0 56.0" fill="#010101" fill-opacity="0.0" fill-rule="evenodd" stroke="none"/>
    </g>
    <g id="shape1" transform="matrix(1.0, 0.0, 0.0, 1.0, -9.2, -3.9)">
      <path d="M31.35 44.65 Q28.4 48.7 23.45 49.35 18.5 50.1 14.6 47.15 10.55 44.15 9.85 39.2 9.1 34.35 12.1 30.35 15.05 26.35 20.0 25.65 L24.4 25.75 Q30.8 22.2 35.5 14.95 L35.45 14.95 Q33.8 12.0 34.3 9.1 36.05 8.05 38.2 8.0 L37.9 9.15 37.15 8.45 Q38.75 13.8 44.9 14.45 L43.9 13.75 45.25 13.05 Q45.8 14.85 45.25 17.05 42.25 18.25 39.25 17.65 33.65 24.2 32.05 31.3 33.25 33.3 33.6 35.75 34.35 40.7 31.35 44.65 M13.75 35.95 Q14.8 36.95 16.55 36.6 18.25 36.2 20.55 33.9 L30.55 23.2 32.85 20.45 24.35 27.4 18.75 28.2 Q16.1 28.45 14.7 29.95 13.3 31.5 13.0 33.25 12.7 35.0 13.75 35.95 M38.25 9.75 L38.55 8.0 38.85 7.25 Q39.4 5.95 40.2 5.0 L40.25 4.95 41.9 4.45 Q43.85 4.15 45.5 5.35 47.15 6.55 47.4 8.55 L47.35 10.3 45.6 12.25 45.15 12.65 44.75 12.9 44.7 12.95 44.65 13.0 43.35 13.55 Q40.1 12.45 38.25 9.75 M35.9 10.1 Q35.65 10.2 35.65 10.8 35.55 11.4 36.1 12.25 36.7 13.05 37.45 13.4 L38.9 13.95 Q39.6 14.05 38.75 12.8 L37.5 10.95 Q37.05 10.4 36.6 10.15 L35.9 10.1" fill="#000000" fill-rule="evenodd" stroke="none"/>
      <path d="M31.35 44.65 Q28.4 48.7 23.45 49.35 18.5 50.1 14.6 47.15 10.55 44.15 9.85 39.2 9.1 34.35 12.1 30.35 15.05 26.35 20.0 25.65 L24.4 25.75 Q30.8 22.2 35.5 14.95 L35.45 14.95 Q33.8 12.0 34.3 9.1 36.05 8.05 38.2 8.0 L37.9 9.15 37.15 8.45 Q38.75 13.8 44.9 14.45 L43.9 13.75 45.25 13.05 Q45.8 14.85 45.25 17.05 42.25 18.25 39.25 17.65 33.65 24.2 32.05 31.3 33.25 33.3 33.6 35.75 34.35 40.7 31.35 44.65 M13.75 35.95 Q14.8 36.95 16.55 36.6 18.25 36.2 20.55 33.9 L30.55 23.2 32.85 20.45 24.35 27.4 18.75 28.2 Q16.1 28.45 14.7 29.95 13.3 31.5 13.0 33.25 12.7 35.0 13.75 35.95 M38.25 9.75 L38.55 8.0 38.85 7.25 Q39.4 5.95 40.2 5.0 L40.25 4.95 41.9 4.45 Q43.85 4.15 45.5 5.35 47.15 6.55 47.4 8.55 L47.35 10.3 45.6 12.25 45.15 12.65 44.75 12.9 44.7 12.95 44.65 13.0 43.35 13.55 Q40.1 12.45 38.25 9.75 M35.9 10.1 Q35.65 10.2 35.65 10.8 35.55 11.4 36.1 12.25 36.7 13.05 37.45 13.4 L38.9 13.95 Q39.6 14.05 38.75 12.8 L37.5 10.95 Q37.05 10.4 36.6 10.15 L35.9 10.1 Z" fill="none" stroke="#000000" stroke-linecap="round" stroke-linejoin="round" stroke-opacity="0.2" stroke-width="1.0"/>
      <path d="M31.35 44.65 Q28.4 48.7 23.45 49.35 18.5 50.1 14.6 47.15 10.55 44.15 9.85 39.2 9.1 34.35 12.1 30.35 15.05 26.35 20.0 25.65 L24.4 25.75 Q30.8 22.2 35.5 14.95 L35.45 14.95 Q33.8 12.0 34.3 9.1 36.05 8.05 38.2 8.0 L37.9 9.15 37.15 8.45 Q38.75 13.8 44.9 14.45 L43.9 13.75 45.25 13.05 Q45.8 14.85 45.25 17.05 42.25 18.25 39.25 17.65 33.65 24.2 32.05 31.3 33.25 33.3 33.6 35.75 34.35 40.7 31.35 44.65 M13.75 35.95 Q14.8 36.95 16.55 36.6 18.25 36.2 20.55 33.9 L30.55 23.2 32.85 20.45 24.35 27.4 18.75 28.2 Q16.1 28.45 14.7 29.95 13.3 31.5 13.0 33.25 12.7 35.0 13.75 35.95 M38.25 9.75 L38.55 8.0 38.85 7.25 Q39.4 5.95 40.2 5.0 L40.25 4.95 41.9 4.45 Q43.85 4.15 45.5 5.35 47.15 6.55 47.4 8.55 L47.35 10.3 45.6 12.25 45.15 12.65 44.75 12.9 44.7 12.95 44.65 13.0 43.35 13.55 Q40.1 12.45 38.25 9.75 M35.9 10.1 Q35.65 10.2 35.65 10.8 35.55 11.4 36.1 12.25 36.7 13.05 37.45 13.4 L38.9 13.95 Q39.6 14.05 38.75 12.8 L37.5 10.95 Q37.05 10.4 36.6 10.15 L35.9 10.1" fill="#000000" fill-rule="evenodd" stroke="none"/>
    </g>
  </defs>
</svg>
