<?xml version="1.0" encoding="UTF-8" standalone="no"?>
<svg xmlns:ffdec="https://www.free-decompiler.com/flash" xmlns:xlink="http://www.w3.org/1999/xlink" ffdec:objectType="frame" height="56.0px" width="56.0px" xmlns="http://www.w3.org/2000/svg">
  <g transform="matrix(1.0, 0.0, 0.0, 1.0, 0.0, 0.0)">
    <use ffdec:characterId="2" height="56.0" id="back" transform="matrix(1.0, 0.0, 0.0, 1.0, 0.0, 0.0)" width="56.0" xlink:href="#sprite0"/>
    <use ffdec:characterId="3" height="37.15" transform="matrix(1.0, 0.0, 0.0, 1.0, 2.35, 12.1)" width="51.2" xlink:href="#shape1"/>
  </g>
  <defs>
    <g id="sprite0" transform="matrix(1.0, 0.0, 0.0, 1.0, 0.0, 0.0)">
      <use ffdec:characterId="1" height="56.0" transform="matrix(1.0, 0.0, 0.0, 1.0, 0.0, 0.0)" width="56.0" xlink:href="#shape0"/>
    </g>
    <g id="shape0" transform="matrix(1.0, 0.0, 0.0, 1.0, 0.0, 0.0)">
      <path d="M56.0 56.0 L0.0 56.0 0.0 0.0 56.0 0.0 56.0 56.0" fill="#010101" fill-opacity="0.0" fill-rule="evenodd" stroke="none"/>
    </g>
    <g id="shape1" transform="matrix(1.0, 0.0, 0.0, 1.0, -2.35, -12.1)">
      <path d="M13.9 35.65 L13.9 35.75 13.85 35.8 13.8 35.75 13.45 35.4 Q10.3 32.05 2.85 27.4 L2.85 27.35 Q2.9 20.75 5.7 14.2 L5.75 14.15 Q27.95 11.1 50.15 14.15 L51.75 18.4 51.75 18.45 Q53.05 23.9 53.05 27.35 L53.05 27.4 53.0 27.4 Q45.6 32.05 42.45 35.4 L42.05 35.85 41.95 35.85 41.95 35.75 41.95 35.7 42.35 35.25 Q45.5 31.9 52.95 27.3 52.85 23.85 51.6 18.5 L50.1 14.3 Q27.95 11.3 5.8 14.35 3.05 20.8 2.95 27.3 10.35 31.9 13.55 35.25 L13.9 35.6 13.9 35.65 M40.9 36.9 L40.95 36.9 41.0 36.9 41.05 36.95 41.0 37.0 Q38.25 40.45 34.7 46.95 L34.65 46.95 Q28.55 50.85 21.2 47.0 L21.2 46.95 Q17.5 40.35 14.75 36.9 L14.75 36.8 14.75 36.75 14.8 36.75 14.85 36.75 14.9 36.8 Q17.65 40.2 21.3 46.85 28.55 50.65 34.6 46.85 38.1 40.35 40.9 36.9" fill="#000000" fill-opacity="0.3019608" fill-rule="evenodd" stroke="none"/>
      <path d="M13.9 35.65 L13.9 35.6 13.55 35.25 Q10.35 31.9 2.95 27.3 3.05 20.8 5.8 14.35 27.95 11.3 50.1 14.3 L51.6 18.5 Q52.85 23.85 52.95 27.3 45.5 31.9 42.35 35.25 L41.95 35.7 Q40.05 34.85 38.25 34.15 L39.1 31.1 Q37.4 27.65 34.9 28.6 34.0 30.5 33.5 32.5 L27.45 31.2 Q27.4 29.45 27.0 27.9 24.75 25.75 22.55 27.25 22.4 29.35 22.55 31.45 18.2 32.9 13.9 35.65 M23.25 28.3 Q24.65 27.1 26.55 28.45 L26.65 31.1 26.6 32.65 26.1 35.7 Q24.9 36.25 23.85 35.45 L23.4 32.85 23.25 31.2 23.25 28.3 M40.9 36.9 Q38.1 40.35 34.6 46.85 28.55 50.65 21.3 46.85 17.65 40.2 14.9 36.8 18.65 34.55 22.7 33.1 L23.35 36.5 Q24.8 37.0 26.65 36.55 L27.4 32.75 33.15 34.05 32.85 36.55 Q34.0 38.3 35.85 38.65 L37.65 35.55 40.9 36.9 M35.45 29.55 Q37.0 29.15 38.2 31.2 L37.45 33.8 36.85 35.25 35.55 37.75 Q34.35 37.6 33.75 36.35 L34.05 34.3 34.4 32.75 Q34.8 31.1 35.45 29.55" fill="#000000" fill-rule="evenodd" stroke="none"/>
      <path d="M41.95 35.7 L41.95 35.75 41.95 35.85 42.05 35.85 42.45 35.4 Q45.6 32.05 53.0 27.4 L53.05 27.4 53.05 27.35 Q53.05 23.9 51.75 18.45 L51.75 18.4 50.15 14.15 Q27.95 11.1 5.75 14.15 L5.7 14.2 Q2.9 20.75 2.85 27.35 L2.85 27.4 Q10.3 32.05 13.45 35.4 L13.8 35.75 13.85 35.8 13.9 35.75 13.9 35.65 Q18.2 32.9 22.55 31.45 22.4 29.35 22.55 27.25 24.75 25.75 27.0 27.9 27.4 29.45 27.45 31.2 L33.5 32.5 Q34.0 30.5 34.9 28.6 37.4 27.65 39.1 31.1 L38.25 34.15 Q40.05 34.85 41.95 35.7 M23.25 28.3 Q24.65 27.1 26.55 28.45 L26.65 31.1 26.6 32.65 26.1 35.7 Q24.9 36.25 23.85 35.45 L23.4 32.85 23.25 31.2 23.25 28.3 M40.9 36.9 Q38.1 40.35 34.6 46.85 28.55 50.65 21.3 46.85 17.65 40.2 14.9 36.8 18.65 34.55 22.7 33.1 L23.35 36.5 Q24.8 37.0 26.65 36.55 L27.4 32.75 33.15 34.05 32.85 36.55 Q34.0 38.3 35.85 38.65 L37.65 35.55 40.9 36.9 M35.45 29.55 Q37.0 29.15 38.2 31.2 L37.45 33.8 36.85 35.25 35.55 37.75 Q34.35 37.6 33.75 36.35 L34.05 34.3 34.4 32.75 Q34.8 31.1 35.45 29.55 Z" fill="none" stroke="#000000" stroke-linecap="round" stroke-linejoin="round" stroke-opacity="0.2" stroke-width="1.0"/>
      <path d="M13.9 35.65 L13.9 35.75 13.85 35.8 13.8 35.75 13.45 35.4 Q10.3 32.05 2.85 27.4 L2.85 27.35 Q2.9 20.75 5.7 14.2 L5.75 14.15 Q27.95 11.1 50.15 14.15 L51.75 18.4 51.75 18.45 Q53.05 23.9 53.05 27.35 L53.05 27.4 53.0 27.4 Q45.6 32.05 42.45 35.4 L42.05 35.85 41.95 35.85 41.95 35.75 41.95 35.7 42.35 35.25 Q45.5 31.9 52.95 27.3 52.85 23.85 51.6 18.5 L50.1 14.3 Q27.95 11.3 5.8 14.35 3.05 20.8 2.95 27.3 10.35 31.9 13.55 35.25 L13.9 35.6 13.9 35.65 M40.9 36.9 L40.95 36.9 41.0 36.9 41.05 36.95 41.0 37.0 Q38.25 40.45 34.7 46.95 L34.65 46.95 Q28.55 50.85 21.2 47.0 L21.2 46.95 Q17.5 40.35 14.75 36.9 L14.75 36.8 14.75 36.75 14.8 36.75 14.85 36.75 14.9 36.8 Q17.65 40.2 21.3 46.85 28.55 50.65 34.6 46.85 38.1 40.35 40.9 36.9" fill="#000000" fill-opacity="0.3019608" fill-rule="evenodd" stroke="none"/>
      <path d="M13.9 35.65 L13.9 35.6 13.55 35.25 Q10.35 31.9 2.95 27.3 3.05 20.8 5.8 14.35 27.95 11.3 50.1 14.3 L51.6 18.5 Q52.85 23.85 52.95 27.3 45.5 31.9 42.35 35.25 L41.95 35.7 Q40.05 34.85 38.25 34.15 L39.1 31.1 Q37.4 27.65 34.9 28.6 34.0 30.5 33.5 32.5 L27.45 31.2 Q27.4 29.45 27.0 27.9 24.75 25.75 22.55 27.25 22.4 29.35 22.55 31.45 18.2 32.9 13.9 35.65 M23.25 28.3 Q24.65 27.1 26.55 28.45 L26.65 31.1 26.6 32.65 26.1 35.7 Q24.9 36.25 23.85 35.45 L23.4 32.85 23.25 31.2 23.25 28.3 M40.9 36.9 Q38.1 40.35 34.6 46.85 28.55 50.65 21.3 46.85 17.65 40.2 14.9 36.8 18.65 34.55 22.7 33.1 L23.35 36.5 Q24.8 37.0 26.65 36.55 L27.4 32.75 33.15 34.05 32.85 36.55 Q34.0 38.3 35.85 38.65 L37.65 35.55 40.9 36.9 M35.45 29.55 Q37.0 29.15 38.2 31.2 L37.45 33.8 36.85 35.25 35.55 37.75 Q34.35 37.6 33.75 36.35 L34.05 34.3 34.4 32.75 Q34.8 31.1 35.45 29.55" fill="#000000" fill-rule="evenodd" stroke="none"/>
    </g>
  </defs>
</svg>
