<?xml version="1.0" encoding="UTF-8" standalone="no"?>
<svg xmlns:ffdec="https://www.free-decompiler.com/flash" xmlns:xlink="http://www.w3.org/1999/xlink" ffdec:objectType="frame" height="56.0px" width="56.0px" xmlns="http://www.w3.org/2000/svg">
  <g transform="matrix(1.0, 0.0, 0.0, 1.0, 0.0, 0.0)">
    <use ffdec:characterId="2" height="56.0" id="back" transform="matrix(1.0, 0.0, 0.0, 1.0, 0.0, 0.0)" width="56.0" xlink:href="#sprite0"/>
    <use ffdec:characterId="3" height="39.65" transform="matrix(1.0, 0.0, 0.0, 1.0, 3.15, 9.35)" width="50.25" xlink:href="#shape1"/>
  </g>
  <defs>
    <g id="sprite0" transform="matrix(1.0, 0.0, 0.0, 1.0, 0.0, 0.0)">
      <use ffdec:characterId="1" height="56.0" transform="matrix(1.0, 0.0, 0.0, 1.0, 0.0, 0.0)" width="56.0" xlink:href="#shape0"/>
    </g>
    <g id="shape0" transform="matrix(1.0, 0.0, 0.0, 1.0, 0.0, 0.0)">
      <path d="M56.0 56.0 L0.0 56.0 0.0 0.0 56.0 0.0 56.0 56.0" fill="#010101" fill-opacity="0.0" fill-rule="evenodd" stroke="none"/>
    </g>
    <g id="shape1" transform="matrix(1.0, 0.0, 0.0, 1.0, -3.15, -9.35)">
      <path d="M45.6 16.9 Q37.05 18.8 28.95 18.95 19.6 19.15 10.9 16.95 L10.9 16.75 Q11.0 13.15 11.45 9.85 L28.95 11.1 45.05 9.85 Q45.5 13.2 45.6 16.9 L45.6 21.15 Q44.1 24.05 42.0 26.3 44.3 24.55 46.15 21.75 L46.15 19.7 Q46.8 20.1 47.1 20.85 L46.85 22.4 Q49.75 28.3 52.9 38.8 L51.1 40.5 Q42.05 48.3 30.4 48.05 30.05 44.95 30.0 40.5 L30.05 38.3 30.15 36.65 30.8 36.25 Q33.7 34.15 36.35 30.45 33.85 33.05 29.45 35.65 L28.95 35.85 28.25 36.05 27.0 35.65 Q22.65 33.05 20.1 30.45 22.8 34.15 25.7 36.25 L26.35 36.65 26.45 38.3 26.45 39.2 26.4 40.5 Q26.25 45.1 25.45 48.5 14.35 48.3 5.4 40.5 L3.65 38.85 Q6.7 28.35 9.6 22.45 9.3 21.9 9.3 21.0 9.7 20.1 10.15 19.75 L10.35 21.7 Q11.9 24.45 14.5 26.3 12.4 24.05 10.85 21.15 L10.9 16.95 Q19.65 20.55 28.95 20.3 37.05 20.05 45.6 16.9" fill="#000000" fill-rule="evenodd" stroke="none"/>
      <path d="M45.6 16.9 Q45.5 13.2 45.05 9.85 L28.95 11.1 11.45 9.85 Q11.0 13.15 10.9 16.75 L10.9 16.95 Q19.6 19.15 28.95 18.95 37.05 18.8 45.6 16.9 L45.6 21.15 Q44.1 24.05 42.0 26.3 44.3 24.55 46.15 21.75 L46.15 19.7 Q46.8 20.1 47.1 20.85 L46.85 22.4 Q49.75 28.3 52.9 38.8 L51.1 40.5 Q42.05 48.3 30.4 48.05 30.05 44.95 30.0 40.5 L30.05 38.3 30.15 36.65 30.8 36.25 Q33.7 34.15 36.35 30.45 33.85 33.05 29.45 35.65 L28.95 35.85 28.25 36.05 27.0 35.65 Q22.65 33.05 20.1 30.45 22.8 34.15 25.7 36.25 L26.35 36.65 26.45 38.3 26.45 39.2 26.4 40.5 Q26.25 45.1 25.45 48.5 14.35 48.3 5.4 40.5 L3.65 38.85 Q6.7 28.35 9.6 22.45 9.3 21.9 9.3 21.0 9.7 20.1 10.15 19.75 L10.35 21.7 Q11.9 24.45 14.5 26.3 12.4 24.05 10.85 21.15 L10.9 16.95 Q19.65 20.55 28.95 20.3 37.05 20.05 45.6 16.9 Z" fill="none" stroke="#000000" stroke-linecap="round" stroke-linejoin="round" stroke-opacity="0.2" stroke-width="1.0"/>
      <path d="M10.9 16.95 Q19.65 20.55 28.95 20.3 37.05 20.05 45.6 16.9 L45.6 21.15 Q44.1 24.05 42.0 26.3 44.3 24.55 46.15 21.75 L46.15 19.7 Q46.8 20.1 47.1 20.85 L46.85 22.4 Q49.75 28.3 52.9 38.8 L51.1 40.5 Q42.05 48.3 30.4 48.05 30.05 44.95 30.0 40.5 L30.05 38.3 30.15 36.65 30.8 36.25 Q33.7 34.15 36.35 30.45 33.85 33.05 29.45 35.65 L28.95 35.85 28.25 36.05 27.0 35.65 Q22.65 33.05 20.1 30.45 22.8 34.15 25.7 36.25 L26.35 36.65 26.45 38.3 26.45 39.2 26.4 40.5 Q26.25 45.1 25.45 48.5 14.35 48.3 5.4 40.5 L3.65 38.85 Q6.7 28.35 9.6 22.45 9.3 21.9 9.3 21.0 9.7 20.1 10.15 19.75 L10.35 21.7 Q11.9 24.45 14.5 26.3 12.4 24.05 10.85 21.15 L10.9 16.95 10.9 16.75 Q11.0 13.15 11.45 9.85 L28.95 11.1 45.05 9.85 Q45.5 13.2 45.6 16.9 37.05 18.8 28.95 18.95 19.6 19.15 10.9 16.95" fill="#000000" fill-rule="evenodd" stroke="none"/>
    </g>
  </defs>
</svg>
