<?xml version="1.0" encoding="UTF-8" standalone="no"?>
<svg xmlns:ffdec="https://www.free-decompiler.com/flash" xmlns:xlink="http://www.w3.org/1999/xlink" ffdec:objectType="frame" height="56.0px" width="56.0px" xmlns="http://www.w3.org/2000/svg">
  <g transform="matrix(1.0, 0.0, 0.0, 1.0, 0.0, 0.0)">
    <use ffdec:characterId="2" height="56.0" id="back" transform="matrix(1.0, 0.0, 0.0, 1.0, 0.0, 0.0)" width="56.0" xlink:href="#sprite0"/>
    <use ffdec:characterId="3" height="32.3" transform="matrix(1.0, 0.0, 0.0, 1.0, 1.6, 12.9)" width="52.3" xlink:href="#shape1"/>
  </g>
  <defs>
    <g id="sprite0" transform="matrix(1.0, 0.0, 0.0, 1.0, 0.0, 0.0)">
      <use ffdec:characterId="1" height="56.0" transform="matrix(1.0, 0.0, 0.0, 1.0, 0.0, 0.0)" width="56.0" xlink:href="#shape0"/>
    </g>
    <g id="shape0" transform="matrix(1.0, 0.0, 0.0, 1.0, 0.0, 0.0)">
      <path d="M56.0 56.0 L0.0 56.0 0.0 0.0 56.0 0.0 56.0 56.0" fill="#010101" fill-opacity="0.0" fill-rule="evenodd" stroke="none"/>
    </g>
    <g id="shape1" transform="matrix(1.0, 0.0, 0.0, 1.0, -1.6, -12.9)">
      <path d="M3.95 15.65 Q13.75 13.9 26.05 13.75 28.55 13.65 31.1 13.7 41.15 13.85 51.25 15.6 L51.95 18.65 Q53.1 19.75 53.1 21.35 53.1 22.95 51.95 24.1 50.85 25.2 49.25 25.2 L48.8 25.2 48.9 26.1 Q48.9 27.7 47.75 28.85 46.65 29.95 45.05 29.95 L44.5 29.9 44.5 30.4 Q44.5 32.0 43.35 33.15 42.25 34.25 40.65 34.25 L40.6 34.25 40.8 35.45 Q40.8 36.85 39.75 37.9 38.75 38.9 37.3 38.9 L36.8 38.9 Q37.45 39.7 37.45 40.75 37.45 42.05 36.55 42.95 35.65 43.85 34.4 43.85 33.2 43.85 32.4 43.1 30.2 44.35 27.85 44.4 25.6 44.35 23.1 43.15 22.25 43.85 21.1 43.85 19.85 43.85 18.95 42.95 18.05 42.05 18.05 40.75 18.05 39.7 18.7 38.9 L18.2 38.9 Q16.75 38.9 15.75 37.9 14.7 36.85 14.7 35.45 L14.9 34.25 14.85 34.25 Q13.25 34.25 12.15 33.15 11.0 32.0 11.0 30.4 L11.05 29.9 10.45 29.95 Q8.85 29.95 7.75 28.85 6.6 27.7 6.6 26.1 L6.7 25.2 6.25 25.2 Q4.65 25.2 3.55 24.1 2.4 22.95 2.4 21.35 2.4 20.0 3.25 19.0 3.4 16.95 3.95 15.65 M6.25 23.6 Q5.35 23.6 4.7 22.95 4.0 22.25 4.0 21.35 4.0 20.75 4.35 20.25 L7.8 23.0 Q7.1 23.6 6.25 23.6 M10.55 25.45 L9.25 24.25 8.9 24.55 Q8.2 25.2 8.2 26.1 8.2 27.0 8.9 27.7 9.55 28.35 10.45 28.35 11.35 28.35 12.05 27.7 L12.35 27.3 10.55 25.45 M15.5 31.15 L14.2 29.4 13.55 28.65 13.3 28.85 Q12.6 29.5 12.6 30.4 12.6 31.3 13.3 32.0 13.95 32.65 14.85 32.65 L16.2 32.2 15.5 31.15 M18.2 37.45 Q17.4 37.45 16.8 36.85 16.15 36.25 16.15 35.45 16.15 34.6 16.8 34.05 L17.2 33.75 19.15 37.25 18.2 37.45 M37.3 37.45 Q38.1 37.45 38.7 36.85 39.35 36.25 39.35 35.45 39.35 34.6 38.7 34.05 L38.15 33.65 36.15 37.1 Q36.7 37.45 37.3 37.45 M22.4 26.95 Q24.45 24.0 27.55 27.35 L27.6 27.35 Q30.7 24.0 32.8 26.95 35.4 32.25 27.6 36.9 19.8 32.25 22.4 26.95 M21.75 42.4 L20.2 39.25 19.9 39.55 Q19.3 40.05 19.3 40.75 19.3 41.5 19.9 42.05 20.4 42.55 21.1 42.55 L21.8 42.45 21.75 42.4 M34.4 42.55 Q35.1 42.55 35.6 42.05 36.2 41.5 36.2 40.75 36.2 40.05 35.6 39.55 L35.1 39.1 33.5 42.35 34.4 42.55 M43.45 27.7 Q44.15 28.35 45.05 28.35 45.95 28.35 46.6 27.7 47.3 27.0 47.3 26.1 47.3 25.2 46.6 24.55 L46.15 24.2 43.05 27.15 43.45 27.7 M47.65 22.95 Q48.35 23.6 49.25 23.6 50.15 23.6 50.8 22.95 51.5 22.25 51.5 21.35 51.5 20.65 51.1 20.1 L47.65 22.9 47.65 22.95 M41.05 29.4 L39.65 31.35 39.15 32.1 Q39.8 32.65 40.65 32.65 41.55 32.65 42.2 32.0 42.9 31.3 42.9 30.4 42.9 29.5 42.2 28.85 L41.8 28.5 41.05 29.4 Z" fill="none" stroke="#000000" stroke-linecap="round" stroke-linejoin="round" stroke-opacity="0.2" stroke-width="1.6"/>
      <path d="M3.95 15.65 Q13.75 13.9 26.05 13.75 28.55 13.65 31.1 13.7 41.15 13.85 51.25 15.6 L51.95 18.65 Q53.1 19.75 53.1 21.35 53.1 22.95 51.95 24.1 50.85 25.2 49.25 25.2 L48.8 25.2 48.9 26.1 Q48.9 27.7 47.75 28.85 46.65 29.95 45.05 29.95 L44.5 29.9 44.5 30.4 Q44.5 32.0 43.35 33.15 42.25 34.25 40.65 34.25 L40.6 34.25 40.8 35.45 Q40.8 36.85 39.75 37.9 38.75 38.9 37.3 38.9 L36.8 38.9 Q37.45 39.7 37.45 40.75 37.45 42.05 36.55 42.95 35.65 43.85 34.4 43.85 33.2 43.85 32.4 43.1 30.2 44.35 27.85 44.4 25.6 44.35 23.1 43.15 22.25 43.85 21.1 43.85 19.85 43.85 18.95 42.95 18.05 42.05 18.05 40.75 18.05 39.7 18.7 38.9 L18.2 38.9 Q16.75 38.9 15.75 37.9 14.7 36.85 14.7 35.45 L14.9 34.25 14.85 34.25 Q13.25 34.25 12.15 33.15 11.0 32.0 11.0 30.4 L11.05 29.9 10.45 29.95 Q8.85 29.95 7.75 28.85 6.6 27.7 6.6 26.1 L6.7 25.2 6.25 25.2 Q4.65 25.2 3.55 24.1 2.4 22.95 2.4 21.35 2.4 20.0 3.25 19.0 3.4 16.95 3.95 15.65 M6.25 23.6 Q7.1 23.6 7.8 23.0 L4.35 20.25 Q4.0 20.75 4.0 21.35 4.0 22.25 4.7 22.95 5.35 23.6 6.25 23.6 M10.55 25.45 L9.25 24.25 8.9 24.55 Q8.2 25.2 8.2 26.1 8.2 27.0 8.9 27.7 9.55 28.35 10.45 28.35 11.35 28.35 12.05 27.7 L12.35 27.3 10.55 25.45 M15.5 31.15 L14.2 29.4 13.55 28.65 13.3 28.85 Q12.6 29.5 12.6 30.4 12.6 31.3 13.3 32.0 13.95 32.65 14.85 32.65 L16.2 32.2 15.5 31.15 M18.2 37.45 L19.15 37.25 17.2 33.75 16.8 34.05 Q16.15 34.6 16.15 35.45 16.15 36.25 16.8 36.85 17.4 37.45 18.2 37.45 M37.3 37.45 Q38.1 37.45 38.7 36.85 39.35 36.25 39.35 35.45 39.35 34.6 38.7 34.05 L38.15 33.65 36.15 37.1 Q36.7 37.45 37.3 37.45 M22.4 26.95 Q19.8 32.25 27.6 36.9 35.4 32.25 32.8 26.95 30.7 24.0 27.6 27.35 L27.55 27.35 Q24.45 24.0 22.4 26.95 M21.75 42.4 L20.2 39.25 19.9 39.55 Q19.3 40.05 19.3 40.75 19.3 41.5 19.9 42.05 20.4 42.55 21.1 42.55 L21.8 42.45 21.75 42.4 M34.4 42.55 Q35.1 42.55 35.6 42.05 36.2 41.5 36.2 40.75 36.2 40.05 35.6 39.55 L35.1 39.1 33.5 42.35 34.4 42.55 M43.45 27.7 Q44.15 28.35 45.05 28.35 45.95 28.35 46.6 27.7 47.3 27.0 47.3 26.1 47.3 25.2 46.6 24.55 L46.15 24.2 43.05 27.15 43.45 27.7 M47.65 22.95 Q48.35 23.6 49.25 23.6 50.15 23.6 50.8 22.95 51.5 22.25 51.5 21.35 51.5 20.65 51.1 20.1 L47.65 22.9 47.65 22.95 M41.05 29.4 L39.65 31.35 39.15 32.1 Q39.8 32.65 40.65 32.65 41.55 32.65 42.2 32.0 42.9 31.3 42.9 30.4 42.9 29.5 42.2 28.85 L41.8 28.5 41.05 29.4" fill="#000000" fill-rule="evenodd" stroke="none"/>
    </g>
  </defs>
</svg>
