<?xml version="1.0" encoding="UTF-8" standalone="no"?>
<svg xmlns:ffdec="https://www.free-decompiler.com/flash" xmlns:xlink="http://www.w3.org/1999/xlink" ffdec:objectType="frame" height="56.0px" width="56.0px" xmlns="http://www.w3.org/2000/svg">
  <g transform="matrix(1.0, 0.0, 0.0, 1.0, 0.0, 0.0)">
    <use ffdec:characterId="2" height="56.0" id="back" transform="matrix(1.0, 0.0, 0.0, 1.0, 0.0, 0.0)" width="56.0" xlink:href="#sprite0"/>
    <use ffdec:characterId="3" height="39.4" transform="matrix(1.0, 0.0, 0.0, 1.0, 6.9, 7.05)" width="42.3" xlink:href="#shape1"/>
  </g>
  <defs>
    <g id="sprite0" transform="matrix(1.0, 0.0, 0.0, 1.0, 0.0, 0.0)">
      <use ffdec:characterId="1" height="56.0" transform="matrix(1.0, 0.0, 0.0, 1.0, 0.0, 0.0)" width="56.0" xlink:href="#shape0"/>
    </g>
    <g id="shape0" transform="matrix(1.0, 0.0, 0.0, 1.0, 0.0, 0.0)">
      <path d="M56.0 56.0 L0.0 56.0 0.0 0.0 56.0 0.0 56.0 56.0" fill="#010101" fill-opacity="0.0" fill-rule="evenodd" stroke="none"/>
    </g>
    <g id="shape1" transform="matrix(1.0, 0.0, 0.0, 1.0, -6.9, -7.05)">
      <path d="M45.75 28.5 Q47.8 30.9 48.25 36.95 42.75 36.6 40.3 34.75 39.1 38.0 36.45 40.65 31.5 45.65 24.55 45.65 17.5 45.65 12.6 40.7 7.7 35.7 7.7 28.7 7.7 21.65 12.6 16.7 14.7 14.6 17.15 13.4 L27.45 7.85 Q28.95 7.85 28.95 9.4 L28.95 12.3 Q33.2 13.4 36.45 16.65 38.95 19.25 40.15 22.3 42.6 20.3 48.4 19.9 48.0 26.2 45.75 28.5 M23.7 28.1 Q23.7 29.85 22.5 31.1 21.25 32.3 19.5 32.3 17.7 32.3 16.5 31.1 15.25 29.85 15.25 28.1 15.25 26.3 16.5 25.05 17.7 23.85 19.5 23.85 21.25 23.85 22.5 25.05 23.7 26.3 23.7 28.1 M28.15 35.4 Q25.25 38.3 21.1 38.3 17.0 38.3 14.1 35.4 11.15 32.5 11.15 28.3 11.15 24.15 14.1 21.25 17.0 18.3 21.1 18.3 25.25 18.3 28.15 21.25 31.0 24.15 31.0 28.3 31.0 32.45 28.15 35.4 Z" fill="none" stroke="#000000" stroke-linecap="round" stroke-linejoin="round" stroke-opacity="0.2" stroke-width="1.6"/>
      <path d="M45.75 28.5 Q47.8 30.9 48.25 36.95 42.75 36.6 40.3 34.75 39.1 38.0 36.45 40.65 31.5 45.65 24.55 45.65 17.5 45.65 12.6 40.7 7.7 35.7 7.7 28.7 7.7 21.65 12.6 16.7 14.7 14.6 17.15 13.4 L27.45 7.85 Q28.95 7.85 28.95 9.4 L28.95 12.3 Q33.2 13.4 36.45 16.65 38.95 19.25 40.15 22.3 42.6 20.3 48.4 19.9 48.0 26.2 45.75 28.5 M23.7 28.1 Q23.7 29.85 22.5 31.1 21.25 32.3 19.5 32.3 17.7 32.3 16.5 31.1 15.25 29.85 15.25 28.1 15.25 26.3 16.5 25.05 17.7 23.85 19.5 23.85 21.25 23.85 22.5 25.05 23.7 26.3 23.7 28.1 M28.15 35.4 Q31.0 32.45 31.0 28.3 31.0 24.15 28.15 21.25 25.25 18.3 21.1 18.3 17.0 18.3 14.1 21.25 11.15 24.15 11.15 28.3 11.15 32.5 14.1 35.4 17.0 38.3 21.1 38.3 25.25 38.3 28.15 35.4" fill="#000000" fill-rule="evenodd" stroke="none"/>
    </g>
  </defs>
</svg>
