<?xml version="1.0" encoding="UTF-8" standalone="no"?>
<svg xmlns:ffdec="https://www.free-decompiler.com/flash" xmlns:xlink="http://www.w3.org/1999/xlink" ffdec:objectType="frame" height="56.0px" width="56.0px" xmlns="http://www.w3.org/2000/svg">
  <g transform="matrix(1.0, 0.0, 0.0, 1.0, 0.0, 0.0)">
    <use ffdec:characterId="2" height="56.0" id="back" transform="matrix(1.0, 0.0, 0.0, 1.0, 0.0, 0.0)" width="56.0" xlink:href="#sprite0"/>
    <use ffdec:characterId="3" height="46.25" transform="matrix(1.0, 0.0, 0.0, 1.0, 7.9, 4.6)" width="39.75" xlink:href="#shape1"/>
  </g>
  <defs>
    <g id="sprite0" transform="matrix(1.0, 0.0, 0.0, 1.0, 0.0, 0.0)">
      <use ffdec:characterId="1" height="56.0" transform="matrix(1.0, 0.0, 0.0, 1.0, 0.0, 0.0)" width="56.0" xlink:href="#shape0"/>
    </g>
    <g id="shape0" transform="matrix(1.0, 0.0, 0.0, 1.0, 0.0, 0.0)">
      <path d="M56.0 56.0 L0.0 56.0 0.0 0.0 56.0 0.0 56.0 56.0" fill="#010101" fill-opacity="0.0" fill-rule="evenodd" stroke="none"/>
    </g>
    <g id="shape1" transform="matrix(1.0, 0.0, 0.0, 1.0, -7.9, -4.6)">
      <path d="M18.8 48.0 Q11.2 44.55 8.7 35.95 8.75 30.55 13.0 30.45 17.35 33.0 21.85 34.0 19.3 32.9 17.2 30.8 12.85 26.45 12.85 20.3 12.85 14.15 17.2 9.75 21.55 5.4 27.7 5.4 33.85 5.4 38.2 9.75 42.6 14.15 42.6 20.3 42.6 26.45 38.2 30.8 36.05 32.95 33.45 34.05 38.05 33.05 42.55 30.45 46.8 30.55 46.85 35.95 44.35 44.55 36.75 48.0 32.25 50.0 27.75 50.05 23.3 50.0 18.8 48.0 M32.65 20.3 Q32.65 22.35 31.2 23.8 29.75 25.25 27.7 25.25 25.7 25.25 24.2 23.8 22.75 22.35 22.75 20.3 22.75 18.25 24.2 16.8 25.7 15.35 27.7 15.35 29.75 15.35 31.2 16.8 32.65 18.25 32.65 20.3 M34.2 39.8 L34.2 37.15 30.3 37.45 30.9 40.25 34.2 39.8 M39.35 20.3 Q39.35 15.5 35.95 12.05 32.55 8.65 27.7 8.65 22.9 8.65 19.45 12.05 16.05 15.5 16.05 20.3 16.05 25.15 19.45 28.55 22.9 31.95 27.7 31.95 32.55 31.95 35.95 28.55 39.35 25.15 39.35 20.3 M34.85 39.85 L35.85 44.65 37.3 43.65 37.5 43.5 38.75 42.3 Q38.7 39.2 38.15 36.4 L37.5 36.5 34.85 37.1 34.85 39.85 M41.1 35.5 L39.45 36.05 39.15 36.15 Q39.5 38.9 39.25 41.7 L40.45 40.0 40.55 39.75 41.9 36.85 Q42.6 34.9 41.1 35.5 M13.65 36.85 L13.85 37.35 Q14.0 36.3 14.4 35.5 12.95 34.95 13.65 36.85 M15.5 40.65 L16.4 41.8 Q16.3 39.85 16.55 36.2 L14.85 35.65 Q14.35 36.95 14.35 38.5 14.85 39.65 15.5 40.65 M19.5 36.8 L17.35 36.45 Q17.0 38.9 17.1 42.65 L18.2 43.6 Q18.55 40.9 19.5 36.8 M21.6 45.6 L23.0 46.1 23.7 37.3 20.3 37.0 Q19.2 40.2 18.7 44.0 20.0 44.95 21.6 45.6 M33.95 45.6 L35.15 45.05 34.25 40.4 30.95 40.7 31.15 46.45 33.95 45.6 M27.8 46.85 L30.1 46.65 Q30.4 43.5 30.1 40.55 L29.25 37.45 27.75 37.45 24.75 37.4 23.75 46.3 27.8 46.85" fill="#000000" fill-rule="evenodd" stroke="none"/>
      <path d="M18.8 48.0 Q11.2 44.55 8.7 35.95 8.75 30.55 13.0 30.45 17.35 33.0 21.85 34.0 19.3 32.9 17.2 30.8 12.85 26.45 12.85 20.3 12.85 14.15 17.2 9.75 21.55 5.4 27.7 5.4 33.85 5.4 38.2 9.75 42.6 14.15 42.6 20.3 42.6 26.45 38.2 30.8 36.05 32.95 33.45 34.05 38.05 33.05 42.55 30.45 46.8 30.55 46.85 35.95 44.35 44.55 36.75 48.0 32.25 50.0 27.75 50.05 23.3 50.0 18.8 48.0 M32.65 20.3 Q32.65 22.35 31.2 23.8 29.75 25.25 27.7 25.25 25.7 25.25 24.2 23.8 22.75 22.35 22.75 20.3 22.75 18.25 24.2 16.8 25.7 15.35 27.7 15.35 29.75 15.35 31.2 16.8 32.65 18.25 32.65 20.3 M39.35 20.3 Q39.35 25.15 35.95 28.55 32.55 31.95 27.7 31.95 22.9 31.95 19.45 28.55 16.05 25.15 16.05 20.3 16.05 15.5 19.45 12.05 22.9 8.65 27.7 8.65 32.55 8.65 35.95 12.05 39.35 15.5 39.35 20.3 M34.2 39.8 L30.9 40.25 30.3 37.45 34.2 37.15 34.2 39.8 M34.85 39.85 L35.85 44.65 37.3 43.65 37.5 43.5 38.75 42.3 Q38.7 39.2 38.15 36.4 L37.5 36.5 34.85 37.1 34.85 39.85 M27.8 46.85 L23.75 46.3 24.75 37.4 27.75 37.45 29.25 37.45 30.1 40.55 Q30.4 43.5 30.1 46.65 L27.8 46.85 M33.95 45.6 L31.15 46.45 30.95 40.7 34.25 40.4 35.15 45.05 33.95 45.6 M21.6 45.6 Q20.0 44.95 18.7 44.0 19.2 40.2 20.3 37.0 L23.7 37.3 23.0 46.1 21.6 45.6 M19.5 36.8 Q18.55 40.9 18.2 43.6 L17.1 42.65 Q17.0 38.9 17.35 36.45 L19.5 36.8 M15.5 40.65 Q14.85 39.65 14.35 38.5 14.35 36.95 14.85 35.65 L16.55 36.2 Q16.3 39.85 16.4 41.8 L15.5 40.65 M13.65 36.85 Q12.95 34.95 14.4 35.5 14.0 36.3 13.85 37.35 L13.65 36.85 M41.1 35.5 Q42.6 34.9 41.9 36.85 L40.55 39.75 40.45 40.0 39.25 41.7 Q39.5 38.9 39.15 36.15 L39.45 36.05 41.1 35.5 Z" fill="none" stroke="#000000" stroke-linecap="round" stroke-linejoin="round" stroke-opacity="0.2" stroke-width="1.6"/>
      <path d="M18.8 48.0 Q11.2 44.55 8.7 35.95 8.75 30.55 13.0 30.45 17.35 33.0 21.85 34.0 19.3 32.9 17.2 30.8 12.85 26.45 12.85 20.3 12.85 14.15 17.2 9.75 21.55 5.4 27.7 5.4 33.85 5.4 38.2 9.75 42.6 14.15 42.6 20.3 42.6 26.45 38.2 30.8 36.05 32.95 33.45 34.05 38.05 33.05 42.55 30.45 46.8 30.55 46.85 35.95 44.35 44.55 36.75 48.0 32.25 50.0 27.75 50.05 23.3 50.0 18.8 48.0 M32.65 20.3 Q32.65 22.35 31.2 23.8 29.75 25.25 27.7 25.25 25.7 25.25 24.2 23.8 22.75 22.35 22.75 20.3 22.75 18.25 24.2 16.8 25.7 15.35 27.7 15.35 29.75 15.35 31.2 16.8 32.65 18.25 32.65 20.3 M34.2 39.8 L34.2 37.15 30.3 37.45 30.9 40.25 34.2 39.8 M39.35 20.3 Q39.35 15.5 35.95 12.05 32.55 8.65 27.7 8.65 22.9 8.65 19.45 12.05 16.05 15.5 16.05 20.3 16.05 25.15 19.45 28.55 22.9 31.95 27.7 31.95 32.55 31.95 35.95 28.55 39.35 25.15 39.35 20.3 M34.85 39.85 L35.85 44.65 37.3 43.65 37.5 43.5 38.75 42.3 Q38.7 39.2 38.15 36.4 L37.5 36.5 34.85 37.1 34.85 39.85 M41.1 35.5 L39.45 36.05 39.15 36.15 Q39.5 38.9 39.25 41.7 L40.45 40.0 40.55 39.75 41.9 36.85 Q42.6 34.9 41.1 35.5 M13.65 36.85 L13.85 37.35 Q14.0 36.3 14.4 35.5 12.95 34.95 13.65 36.85 M15.5 40.65 L16.4 41.8 Q16.3 39.85 16.55 36.2 L14.85 35.65 Q14.35 36.95 14.35 38.5 14.85 39.65 15.5 40.65 M19.5 36.8 L17.35 36.45 Q17.0 38.9 17.1 42.65 L18.2 43.6 Q18.55 40.9 19.5 36.8 M21.6 45.6 L23.0 46.1 23.7 37.3 20.3 37.0 Q19.2 40.2 18.7 44.0 20.0 44.95 21.6 45.6 M33.95 45.6 L35.15 45.05 34.25 40.4 30.95 40.7 31.15 46.45 33.95 45.6 M27.8 46.85 L30.1 46.65 Q30.4 43.5 30.1 40.55 L29.25 37.45 27.75 37.45 24.75 37.4 23.75 46.3 27.8 46.85" fill="#000000" fill-rule="evenodd" stroke="none"/>
    </g>
  </defs>
</svg>
