<?xml version="1.0" encoding="UTF-8" standalone="no"?>
<svg xmlns:ffdec="https://www.free-decompiler.com/flash" xmlns:xlink="http://www.w3.org/1999/xlink" ffdec:objectType="frame" height="56.0px" width="56.0px" xmlns="http://www.w3.org/2000/svg">
  <g transform="matrix(1.0, 0.0, 0.0, 1.0, 0.0, 0.0)">
    <use ffdec:characterId="2" height="56.0" id="back" transform="matrix(1.0, 0.0, 0.0, 1.0, 0.0, 0.0)" width="56.0" xlink:href="#sprite0"/>
    <use ffdec:characterId="3" height="44.3" transform="matrix(1.0, 0.0, 0.0, 1.0, 8.2, 6.0)" width="39.75" xlink:href="#shape1"/>
  </g>
  <defs>
    <g id="sprite0" transform="matrix(1.0, 0.0, 0.0, 1.0, 0.0, 0.0)">
      <use ffdec:characterId="1" height="56.0" transform="matrix(1.0, 0.0, 0.0, 1.0, 0.0, 0.0)" width="56.0" xlink:href="#shape0"/>
    </g>
    <g id="shape0" transform="matrix(1.0, 0.0, 0.0, 1.0, 0.0, 0.0)">
      <path d="M56.0 56.0 L0.0 56.0 0.0 0.0 56.0 0.0 56.0 56.0" fill="#010101" fill-opacity="0.0" fill-rule="evenodd" stroke="none"/>
    </g>
    <g id="shape1" transform="matrix(1.0, 0.0, 0.0, 1.0, -8.2, -6.0)">
      <path d="M17.55 29.55 Q14.4 28.75 11.35 27.5 9.7 17.25 12.95 8.55 28.5 5.05 43.3 8.55 46.95 17.35 44.85 27.5 41.85 28.6 38.9 29.3 L38.35 32.1 Q40.6 31.2 42.85 29.9 47.1 30.0 47.15 35.4 44.65 44.0 37.05 47.45 32.55 49.45 28.05 49.5 23.6 49.45 19.1 47.45 11.5 44.0 9.0 35.4 9.05 30.0 13.3 29.9 15.65 31.25 18.0 32.2 L17.55 29.55 16.95 27.85 17.55 29.55 M36.2 44.1 L37.6 43.1 37.8 42.95 39.55 41.15 40.75 39.45 40.85 39.2 42.2 36.3 Q42.9 34.35 41.4 34.95 L39.75 35.5 39.5 35.6 37.8 35.95 36.55 36.25 Q37.2 38.2 37.35 40.45 34.2 41.8 30.65 41.7 L30.1 36.9 28.1 36.9 26.25 36.9 26.0 40.65 Q23.1 41.1 20.25 40.0 20.4 38.05 20.7 36.45 L20.6 36.45 17.65 35.9 15.2 35.1 Q13.25 34.4 13.95 36.3 L14.15 36.8 14.55 37.65 Q15.05 36.75 15.7 36.0 18.6 36.35 20.15 38.95 L17.45 42.1 19.0 43.45 21.9 45.05 23.25 45.5 23.55 41.8 Q27.0 41.25 29.9 43.15 L29.2 46.25 31.45 45.9 34.25 45.05 36.2 44.1 M36.3 16.55 Q36.3 15.05 35.2 14.0 34.15 12.95 32.7 12.95 31.2 12.95 30.2 14.0 29.15 15.05 29.15 16.55 29.15 18.0 30.2 19.05 31.2 20.1 32.7 20.1 34.15 20.1 35.2 19.05 36.3 18.0 36.3 16.55 M34.55 16.55 Q34.55 17.3 34.0 17.85 33.45 18.4 32.7 18.4 31.95 18.4 31.4 17.85 30.85 17.3 30.85 16.55 30.85 15.8 31.4 15.25 31.95 14.7 32.7 14.7 33.45 14.7 34.0 15.25 34.55 15.8 34.55 16.55 M27.25 16.55 Q27.25 15.05 26.2 14.0 25.15 12.95 23.7 12.95 22.2 12.95 21.2 14.0 20.15 15.05 20.15 16.55 20.15 18.0 21.2 19.05 22.2 20.1 23.7 20.1 25.15 20.1 26.2 19.05 27.25 18.0 27.25 16.55 M25.55 16.55 Q25.55 17.3 25.0 17.85 24.45 18.4 23.7 18.4 22.95 18.4 22.4 17.85 21.85 17.3 21.85 16.55 21.85 15.8 22.4 15.25 22.95 14.7 23.7 14.7 24.45 14.7 25.0 15.25 25.55 15.8 25.55 16.55 M32.2 23.4 Q30.85 22.4 29.55 23.4 29.45 25.25 30.2 26.7 31.7 25.0 32.2 23.4 M24.0 23.4 Q24.45 25.05 26.0 26.7 26.7 25.25 26.65 23.4 25.35 22.45 24.0 23.4 M39.4 27.85 L38.9 29.3 39.4 27.85 M35.15 36.55 L30.9 36.9 Q31.05 38.6 31.5 40.3 33.9 40.6 36.3 39.65 36.35 38.0 35.8 36.4 L35.15 36.55 M25.05 36.85 L21.55 36.55 Q21.15 37.85 21.1 39.15 22.95 39.85 25.0 39.65 25.4 38.3 25.25 36.85 L25.05 36.85 M24.4 42.85 Q23.95 44.2 24.1 45.75 L27.95 46.3 Q28.5 44.85 28.55 43.4 26.6 42.65 24.4 42.85 M15.8 40.1 L17.0 41.55 Q18.3 40.4 18.95 38.75 18.05 37.7 16.15 36.85 15.35 37.45 14.85 38.3 L15.8 40.1 M38.35 32.1 Q38.15 33.75 38.35 35.35 38.15 33.75 38.35 32.1 M17.95 35.35 L18.0 32.2 17.95 35.35" fill="#000000" fill-rule="evenodd" stroke="none"/>
      <path d="M17.55 29.55 Q14.4 28.75 11.35 27.5 9.7 17.25 12.95 8.55 28.5 5.05 43.3 8.55 46.95 17.35 44.85 27.5 41.85 28.6 38.9 29.3 L38.35 32.1 Q40.6 31.2 42.85 29.9 47.1 30.0 47.15 35.4 44.65 44.0 37.05 47.45 32.55 49.45 28.05 49.5 23.6 49.45 19.1 47.45 11.5 44.0 9.0 35.4 9.05 30.0 13.3 29.9 15.65 31.25 18.0 32.2 L17.55 29.55 16.95 27.85 M36.2 44.1 L37.6 43.1 37.8 42.95 39.55 41.15 40.75 39.45 40.85 39.2 42.2 36.3 Q42.9 34.35 41.4 34.95 L39.75 35.5 39.5 35.6 37.8 35.95 36.55 36.25 Q37.2 38.2 37.35 40.45 34.2 41.8 30.65 41.7 L30.1 36.9 28.1 36.9 26.25 36.9 26.0 40.65 Q23.1 41.1 20.25 40.0 20.4 38.05 20.7 36.45 L20.6 36.45 17.65 35.9 15.2 35.1 Q13.25 34.4 13.95 36.3 L14.15 36.8 14.55 37.65 Q15.05 36.75 15.7 36.0 18.6 36.35 20.15 38.95 L17.45 42.1 19.0 43.45 21.9 45.05 23.25 45.5 23.55 41.8 Q27.0 41.25 29.9 43.15 L29.2 46.25 31.45 45.9 34.25 45.05 36.2 44.1 M36.3 16.55 Q36.3 18.0 35.2 19.05 34.15 20.1 32.7 20.1 31.2 20.1 30.2 19.05 29.15 18.0 29.15 16.55 29.15 15.05 30.2 14.0 31.2 12.95 32.7 12.95 34.15 12.95 35.2 14.0 36.3 15.05 36.3 16.55 M34.55 16.55 Q34.55 17.3 34.0 17.85 33.45 18.4 32.7 18.4 31.95 18.4 31.4 17.85 30.85 17.3 30.85 16.55 30.85 15.8 31.4 15.25 31.95 14.7 32.7 14.7 33.45 14.7 34.0 15.25 34.55 15.8 34.55 16.55 M27.25 16.55 Q27.25 18.0 26.2 19.05 25.15 20.1 23.7 20.1 22.2 20.1 21.2 19.05 20.15 18.0 20.15 16.55 20.15 15.05 21.2 14.0 22.2 12.95 23.7 12.95 25.15 12.95 26.2 14.0 27.25 15.05 27.25 16.55 M25.55 16.55 Q25.55 17.3 25.0 17.85 24.45 18.4 23.7 18.4 22.95 18.4 22.4 17.85 21.85 17.3 21.85 16.55 21.85 15.8 22.4 15.25 22.95 14.7 23.7 14.7 24.45 14.7 25.0 15.25 25.55 15.8 25.55 16.55 M32.2 23.4 Q30.85 22.4 29.55 23.4 29.45 25.25 30.2 26.7 31.7 25.0 32.2 23.4 M24.0 23.4 Q25.35 22.45 26.65 23.4 26.7 25.25 26.0 26.7 24.45 25.05 24.0 23.4 M38.9 29.3 L39.4 27.85 M35.15 36.55 L30.9 36.9 Q31.05 38.6 31.5 40.3 33.9 40.6 36.3 39.65 36.35 38.0 35.8 36.4 L35.15 36.55 M25.05 36.85 L21.55 36.55 Q21.15 37.85 21.1 39.15 22.95 39.85 25.0 39.65 25.4 38.3 25.25 36.85 L25.05 36.85 M24.4 42.85 Q26.6 42.65 28.55 43.4 28.5 44.85 27.95 46.3 L24.1 45.75 Q23.95 44.2 24.4 42.85 M15.8 40.1 L17.0 41.55 Q18.3 40.4 18.95 38.75 18.05 37.7 16.15 36.85 15.35 37.45 14.85 38.3 L15.8 40.1 M18.0 32.2 L17.95 35.35 M38.35 35.35 Q38.15 33.75 38.35 32.1" fill="none" stroke="#000000" stroke-linecap="round" stroke-linejoin="round" stroke-opacity="0.2" stroke-width="1.6"/>
      <path d="M18.0 32.2 L17.55 29.55 Q14.4 28.75 11.35 27.5 9.7 17.25 12.95 8.55 28.5 5.05 43.3 8.55 46.95 17.35 44.85 27.5 41.85 28.6 38.9 29.3 L38.35 32.1 Q40.6 31.2 42.85 29.9 47.1 30.0 47.15 35.4 44.65 44.0 37.05 47.45 32.55 49.45 28.05 49.5 23.6 49.45 19.1 47.45 11.5 44.0 9.0 35.4 9.05 30.0 13.3 29.9 15.65 31.25 18.0 32.2 L17.95 35.35 18.0 32.2 M36.2 44.1 L37.6 43.1 37.8 42.95 39.55 41.15 40.75 39.45 40.85 39.2 42.2 36.3 Q42.9 34.35 41.4 34.95 L39.75 35.5 39.5 35.6 37.8 35.95 36.55 36.25 Q37.2 38.2 37.35 40.45 34.2 41.8 30.65 41.7 L30.1 36.9 28.1 36.9 26.25 36.9 26.0 40.65 Q23.1 41.1 20.25 40.0 20.4 38.05 20.7 36.45 L20.6 36.45 17.65 35.9 15.2 35.1 Q13.25 34.4 13.95 36.3 L14.15 36.8 14.55 37.65 Q15.05 36.75 15.7 36.0 18.6 36.35 20.15 38.95 L17.45 42.1 19.0 43.45 21.9 45.05 23.25 45.5 23.55 41.8 Q27.0 41.25 29.9 43.15 L29.2 46.25 31.45 45.9 34.25 45.05 36.2 44.1 M34.55 16.55 Q34.55 17.3 34.0 17.85 33.45 18.4 32.7 18.4 31.95 18.4 31.4 17.85 30.85 17.3 30.85 16.55 30.85 15.8 31.4 15.25 31.95 14.7 32.7 14.7 33.45 14.7 34.0 15.25 34.55 15.8 34.55 16.55 M36.3 16.55 Q36.3 15.05 35.2 14.0 34.15 12.95 32.7 12.95 31.2 12.95 30.2 14.0 29.15 15.05 29.15 16.55 29.15 18.0 30.2 19.05 31.2 20.1 32.7 20.1 34.15 20.1 35.2 19.05 36.3 18.0 36.3 16.55 M25.55 16.55 Q25.55 17.3 25.0 17.85 24.45 18.4 23.7 18.4 22.95 18.4 22.4 17.85 21.85 17.3 21.85 16.55 21.85 15.8 22.4 15.25 22.95 14.7 23.7 14.7 24.45 14.7 25.0 15.25 25.55 15.8 25.55 16.55 M27.25 16.55 Q27.25 15.05 26.2 14.0 25.15 12.95 23.7 12.95 22.2 12.95 21.2 14.0 20.15 15.05 20.15 16.55 20.15 18.0 21.2 19.05 22.2 20.1 23.7 20.1 25.15 20.1 26.2 19.05 27.25 18.0 27.25 16.55 M17.55 29.55 L16.95 27.85 17.55 29.55 M32.2 23.4 Q30.85 22.4 29.55 23.4 29.45 25.25 30.2 26.7 31.7 25.0 32.2 23.4 M24.0 23.4 Q24.45 25.05 26.0 26.7 26.7 25.25 26.65 23.4 25.35 22.45 24.0 23.4 M39.4 27.85 L38.9 29.3 39.4 27.85 M35.15 36.55 L30.9 36.9 Q31.05 38.6 31.5 40.3 33.9 40.6 36.3 39.65 36.35 38.0 35.8 36.4 L35.15 36.55 M25.05 36.85 L21.55 36.55 Q21.15 37.85 21.1 39.15 22.95 39.85 25.0 39.65 25.4 38.3 25.25 36.85 L25.05 36.85 M24.4 42.85 Q23.95 44.2 24.1 45.75 L27.95 46.3 Q28.5 44.85 28.55 43.4 26.6 42.65 24.4 42.85 M15.8 40.1 L17.0 41.55 Q18.3 40.4 18.95 38.75 18.05 37.7 16.15 36.85 15.35 37.45 14.85 38.3 L15.8 40.1 M38.35 32.1 Q38.15 33.75 38.35 35.35 38.15 33.75 38.35 32.1" fill="#000000" fill-rule="evenodd" stroke="none"/>
      <path d="M18.0 32.2 L17.55 29.55 Q14.4 28.75 11.35 27.5 9.7 17.25 12.95 8.55 28.5 5.05 43.3 8.55 46.95 17.35 44.85 27.5 41.85 28.6 38.9 29.3 L38.35 32.1 Q38.15 33.75 38.35 35.35 M18.0 32.2 L17.95 35.35 M16.95 27.85 L17.55 29.55 M38.9 29.3 L39.4 27.85" fill="none" stroke="#000000" stroke-linecap="round" stroke-linejoin="round" stroke-opacity="0.3019608" stroke-width="0.05"/>
    </g>
  </defs>
</svg>
