<?xml version="1.0" encoding="UTF-8" standalone="no"?>
<svg xmlns:ffdec="https://www.free-decompiler.com/flash" xmlns:xlink="http://www.w3.org/1999/xlink" ffdec:objectType="frame" height="56.0px" width="56.0px" xmlns="http://www.w3.org/2000/svg">
  <g transform="matrix(1.0, 0.0, 0.0, 1.0, 0.0, 0.0)">
    <use ffdec:characterId="2" height="56.0" id="back" transform="matrix(1.0, 0.0, 0.0, 1.0, 0.0, 0.0)" width="56.0" xlink:href="#sprite0"/>
    <use ffdec:characterId="3" height="43.7" transform="matrix(1.0, 0.0, 0.0, 1.0, 3.15, 4.0)" width="49.45" xlink:href="#shape1"/>
  </g>
  <defs>
    <g id="sprite0" transform="matrix(1.0, 0.0, 0.0, 1.0, 0.0, 0.0)">
      <use ffdec:characterId="1" height="56.0" transform="matrix(1.0, 0.0, 0.0, 1.0, 0.0, 0.0)" width="56.0" xlink:href="#shape0"/>
    </g>
    <g id="shape0" transform="matrix(1.0, 0.0, 0.0, 1.0, 0.0, 0.0)">
      <path d="M56.0 56.0 L0.0 56.0 0.0 0.0 56.0 0.0 56.0 56.0" fill="#010101" fill-opacity="0.0" fill-rule="evenodd" stroke="none"/>
    </g>
    <g id="shape1" transform="matrix(1.0, 0.0, 0.0, 1.0, -3.15, -4.0)">
      <path d="M10.4 29.6 Q6.2 27.7 4.55 22.8 2.9 17.95 5.7 14.6 8.45 11.25 10.75 12.6 13.1 13.9 11.95 15.15 L9.25 18.25 Q7.65 20.05 9.1 22.85 10.6 25.7 13.95 24.35 14.5 24.15 15.45 23.0 12.35 17.15 14.7 10.15 19.45 5.45 27.9 4.85 L27.9 4.8 Q36.4 5.4 41.2 10.15 43.55 17.2 40.4 23.1 L41.8 24.35 Q45.15 25.7 46.65 22.85 48.1 20.05 46.5 18.25 L43.8 15.15 Q42.65 13.9 45.0 12.6 47.3 11.25 50.05 14.6 52.85 17.95 51.2 22.8 49.55 27.7 45.35 29.6 41.6 31.3 37.55 26.85 L35.2 28.5 Q38.55 30.6 40.5 32.3 42.8 34.35 42.9 39.35 43.0 44.3 38.8 46.1 34.55 47.85 31.9 45.7 29.25 43.6 30.2 40.8 31.2 37.95 33.2 39.85 33.7 41.15 35.6 41.6 37.5 42.0 38.25 39.7 39.0 37.4 37.65 35.9 L35.6 34.25 35.1 35.05 Q33.75 36.7 31.0 37.35 L25.0 37.5 Q22.15 36.7 20.8 35.05 L20.3 34.25 18.25 35.9 Q16.9 37.4 17.65 39.7 18.4 42.0 20.3 41.6 22.2 41.15 22.7 39.85 24.7 37.95 25.7 40.8 26.65 43.6 24.0 45.7 21.35 47.85 17.1 46.1 12.9 44.3 13.0 39.35 13.1 34.35 15.4 32.3 17.4 30.55 20.9 28.45 19.4 27.7 18.3 26.75 14.2 31.3 10.4 29.6 M21.2 20.05 Q17.95 23.4 20.5 26.45 23.05 29.5 26.6 27.6 24.2 20.95 21.2 20.05 M34.35 20.05 Q31.35 20.95 28.95 27.6 32.5 29.5 35.05 26.45 37.6 23.4 34.35 20.05" fill="#000000" fill-rule="evenodd" stroke="none"/>
      <path d="M10.4 29.6 Q6.2 27.7 4.55 22.8 2.9 17.95 5.7 14.6 8.45 11.25 10.75 12.6 13.1 13.9 11.95 15.15 L9.25 18.25 Q7.65 20.05 9.1 22.85 10.6 25.7 13.95 24.35 14.5 24.15 15.45 23.0 12.35 17.15 14.7 10.15 19.45 5.45 27.9 4.85 L27.9 4.8 Q36.4 5.4 41.2 10.15 43.55 17.2 40.4 23.1 L41.8 24.35 Q45.15 25.7 46.65 22.85 48.1 20.05 46.5 18.25 L43.8 15.15 Q42.65 13.9 45.0 12.6 47.3 11.25 50.05 14.6 52.85 17.95 51.2 22.8 49.55 27.7 45.35 29.6 41.6 31.3 37.55 26.85 L35.2 28.5 Q38.55 30.6 40.5 32.3 42.8 34.35 42.9 39.35 43.0 44.3 38.8 46.1 34.55 47.85 31.9 45.7 29.25 43.6 30.2 40.8 31.2 37.95 33.2 39.85 33.7 41.15 35.6 41.6 37.5 42.0 38.25 39.7 39.0 37.4 37.65 35.9 L35.6 34.25 35.1 35.05 Q33.75 36.7 31.0 37.35 L25.0 37.5 Q22.15 36.7 20.8 35.05 L20.3 34.25 18.25 35.9 Q16.9 37.4 17.65 39.7 18.4 42.0 20.3 41.6 22.2 41.15 22.7 39.85 24.7 37.95 25.7 40.8 26.65 43.6 24.0 45.7 21.35 47.85 17.1 46.1 12.9 44.3 13.0 39.35 13.1 34.35 15.4 32.3 17.4 30.55 20.9 28.45 19.4 27.7 18.3 26.75 14.2 31.3 10.4 29.6 M21.2 20.05 Q24.2 20.95 26.6 27.6 23.05 29.5 20.5 26.45 17.95 23.4 21.2 20.05 M34.35 20.05 Q31.35 20.95 28.95 27.6 32.5 29.5 35.05 26.45 37.6 23.4 34.35 20.05 Z" fill="none" stroke="#000000" stroke-linecap="round" stroke-linejoin="round" stroke-opacity="0.2" stroke-width="1.6"/>
      <path d="M10.4 29.6 Q6.2 27.7 4.55 22.8 2.9 17.95 5.7 14.6 8.45 11.25 10.75 12.6 13.1 13.9 11.95 15.15 L9.25 18.25 Q7.65 20.05 9.1 22.85 10.6 25.7 13.95 24.35 14.5 24.15 15.45 23.0 12.35 17.15 14.7 10.15 19.45 5.45 27.9 4.85 L27.9 4.8 Q36.4 5.4 41.2 10.15 43.55 17.2 40.4 23.1 L41.8 24.35 Q45.15 25.7 46.65 22.85 48.1 20.05 46.5 18.25 L43.8 15.15 Q42.65 13.9 45.0 12.6 47.3 11.25 50.05 14.6 52.85 17.95 51.2 22.8 49.55 27.7 45.35 29.6 41.6 31.3 37.55 26.85 L35.2 28.5 Q38.55 30.6 40.5 32.3 42.8 34.35 42.9 39.35 43.0 44.3 38.8 46.1 34.55 47.85 31.9 45.7 29.25 43.6 30.2 40.8 31.2 37.95 33.2 39.85 33.7 41.15 35.6 41.6 37.5 42.0 38.25 39.7 39.0 37.4 37.65 35.9 L35.6 34.25 35.1 35.05 Q33.75 36.7 31.0 37.35 L25.0 37.5 Q22.15 36.7 20.8 35.05 L20.3 34.25 18.25 35.9 Q16.9 37.4 17.65 39.7 18.4 42.0 20.3 41.6 22.2 41.15 22.7 39.85 24.7 37.95 25.7 40.8 26.65 43.6 24.0 45.7 21.35 47.85 17.1 46.1 12.9 44.3 13.0 39.35 13.1 34.35 15.4 32.3 17.4 30.55 20.9 28.45 19.4 27.7 18.3 26.75 14.2 31.3 10.4 29.6 M21.2 20.05 Q17.95 23.4 20.5 26.45 23.05 29.5 26.6 27.6 24.2 20.95 21.2 20.05 M34.35 20.05 Q31.35 20.95 28.95 27.6 32.5 29.5 35.05 26.45 37.6 23.4 34.35 20.05" fill="#000000" fill-rule="evenodd" stroke="none"/>
    </g>
  </defs>
</svg>
