<?xml version="1.0" encoding="UTF-8" standalone="no"?>
<svg xmlns:ffdec="https://www.free-decompiler.com/flash" xmlns:xlink="http://www.w3.org/1999/xlink" ffdec:objectType="frame" height="56.0px" width="56.0px" xmlns="http://www.w3.org/2000/svg">
  <g transform="matrix(1.0, 0.0, 0.0, 1.0, 0.0, 0.0)">
    <use ffdec:characterId="2" height="56.0" id="back" transform="matrix(1.0, 0.0, 0.0, 1.0, 0.0, 0.0)" width="56.0" xlink:href="#sprite0"/>
    <use ffdec:characterId="3" height="45.4" transform="matrix(1.0, 0.0, 0.0, 1.0, 3.1, 4.6)" width="48.95" xlink:href="#shape1"/>
  </g>
  <defs>
    <g id="sprite0" transform="matrix(1.0, 0.0, 0.0, 1.0, 0.0, 0.0)">
      <use ffdec:characterId="1" height="56.0" transform="matrix(1.0, 0.0, 0.0, 1.0, 0.0, 0.0)" width="56.0" xlink:href="#shape0"/>
    </g>
    <g id="shape0" transform="matrix(1.0, 0.0, 0.0, 1.0, 0.0, 0.0)">
      <path d="M56.0 56.0 L0.0 56.0 0.0 0.0 56.0 0.0 56.0 56.0" fill="#010101" fill-opacity="0.0" fill-rule="evenodd" stroke="none"/>
    </g>
    <g id="shape1" transform="matrix(1.0, 0.0, 0.0, 1.0, -3.1, -4.6)">
      <path d="M51.25 16.5 Q51.25 19.7 50.05 22.85 48.85 24.0 47.25 24.15 46.9 25.0 46.95 26.5 46.95 28.05 45.35 28.6 L41.65 28.8 Q41.55 29.45 43.45 31.25 38.85 28.55 36.1 28.95 35.7 29.2 35.35 29.55 34.7 31.0 35.1 34.05 35.75 34.95 36.8 35.15 37.7 34.85 37.9 33.9 37.55 33.1 36.8 32.95 L36.1 33.6 Q36.0 32.75 36.5 32.2 37.85 32.45 38.65 33.2 38.65 35.2 37.4 35.9 35.25 35.75 34.1 34.5 34.1 33.05 33.55 31.6 33.4 34.05 33.8 36.2 34.45 38.05 36.9 40.6 34.45 39.0 33.25 37.1 32.7 33.15 32.8 30.15 32.9 29.4 33.4 28.85 34.9 27.4 37.2 26.5 40.85 26.25 44.75 26.5 45.7 26.45 46.05 25.9 L46.05 23.85 Q45.1 23.15 45.0 21.85 45.4 20.45 46.1 19.85 48.4 17.85 51.25 16.5 M24.05 11.9 Q26.55 9.0 27.6 5.4 28.65 9.0 31.1 11.9 33.6 15.45 32.7 21.3 34.4 19.9 35.25 17.45 34.55 20.6 33.55 22.2 32.75 23.55 30.2 24.45 L29.1 25.05 Q28.6 25.6 28.55 26.7 L28.55 39.15 Q28.45 40.45 29.35 41.7 32.8 44.0 32.35 47.5 31.65 47.5 31.25 47.0 31.05 43.3 27.6 43.05 L27.55 43.05 Q24.1 43.3 23.9 47.0 23.5 47.5 22.85 47.5 22.35 44.0 25.8 41.7 26.7 40.45 26.65 39.15 L26.65 26.7 Q26.55 25.6 26.05 25.05 L24.95 24.45 Q22.45 23.55 21.6 22.2 20.65 20.6 19.9 17.45 20.75 19.9 22.5 21.3 21.55 15.45 24.05 11.9 M23.85 21.65 Q23.95 23.2 26.55 24.05 L27.1 22.25 27.55 17.6 27.55 16.65 27.6 17.05 27.6 17.6 28.1 22.25 28.6 24.05 Q31.25 23.2 31.3 21.65 31.6 17.6 27.6 13.5 23.55 17.6 23.85 21.65 M15.1 14.75 Q13.5 13.1 13.2 8.6 14.85 9.6 16.1 12.5 15.9 9.1 17.35 7.3 L18.4 18.1 Q18.9 23.8 22.0 24.65 25.2 25.55 25.6 29.0 L25.6 37.65 Q25.2 39.5 24.25 40.85 21.25 43.6 21.35 46.75 20.5 45.4 21.0 42.85 18.45 44.55 15.2 45.95 12.2 47.25 13.4 49.05 12.65 49.35 12.1 49.05 11.25 47.35 13.35 45.85 17.9 42.6 21.8 39.15 23.05 38.05 23.35 35.8 23.55 32.4 23.35 29.65 22.0 26.1 12.4 21.85 L18.95 24.25 Q16.75 21.75 16.8 19.05 15.05 20.7 11.2 20.3 13.15 17.85 15.8 17.6 11.2 16.55 9.35 12.9 12.3 12.95 15.1 14.75 M40.05 14.75 Q42.85 12.95 45.8 12.9 43.95 16.55 39.4 17.6 42.0 17.85 43.95 20.3 40.1 20.7 38.4 19.05 38.4 21.75 36.25 24.25 L42.8 21.85 Q33.2 26.1 31.85 29.65 31.6 32.4 31.85 35.8 32.1 38.05 33.35 39.15 37.3 42.6 41.8 45.85 43.9 47.35 43.05 49.05 42.5 49.35 41.75 49.05 43.0 47.25 40.0 45.95 36.7 44.55 34.15 42.85 34.65 45.4 33.8 46.75 33.9 43.6 30.9 40.85 29.95 39.5 29.6 37.65 L29.6 29.0 Q29.95 25.55 33.15 24.65 36.25 23.8 36.75 18.1 L37.8 7.3 Q39.25 9.1 39.1 12.5 40.3 9.6 42.0 8.6 41.65 13.1 40.05 14.75 M3.9 16.5 Q6.75 17.85 9.1 19.85 9.8 20.45 10.2 21.85 10.05 23.15 9.15 23.85 L9.15 25.9 Q9.45 26.45 10.4 26.5 14.3 26.25 17.95 26.5 20.25 27.4 21.75 28.85 L22.4 30.15 Q22.5 33.15 21.9 37.1 20.7 39.0 18.25 40.6 20.7 38.05 21.4 36.2 21.8 34.05 21.6 31.6 21.05 33.05 21.05 34.5 19.95 35.75 17.75 35.9 16.5 35.2 16.5 33.2 17.3 32.45 18.7 32.2 19.15 32.75 19.05 33.6 L18.35 32.95 Q17.65 33.1 17.25 33.9 17.5 34.85 18.35 35.15 19.45 34.95 20.05 34.05 20.45 31.0 19.8 29.55 L19.05 28.95 Q16.35 28.55 11.75 31.25 13.6 29.45 13.5 28.8 L9.8 28.6 Q8.2 28.05 8.25 26.5 8.25 25.0 7.9 24.15 6.35 24.0 5.15 22.85 3.9 19.7 3.9 16.5 M3.95 27.75 Q4.4 24.65 7.05 25.1 7.4 27.8 3.95 27.75 M51.2 27.75 Q47.8 27.8 48.1 25.1 50.75 24.65 51.2 27.75" fill="#000000" fill-rule="evenodd" stroke="none"/>
      <path d="M51.25 16.5 Q51.25 19.7 50.05 22.85 48.85 24.0 47.25 24.15 46.9 25.0 46.95 26.5 46.95 28.05 45.35 28.6 L41.65 28.8 Q41.55 29.45 43.45 31.25 38.85 28.55 36.1 28.95 35.7 29.2 35.35 29.55 34.7 31.0 35.1 34.05 35.75 34.95 36.8 35.15 37.7 34.85 37.9 33.9 37.55 33.1 36.8 32.95 L36.1 33.6 Q36.0 32.75 36.5 32.2 37.85 32.45 38.65 33.2 38.65 35.2 37.4 35.9 35.25 35.75 34.1 34.5 34.1 33.05 33.55 31.6 33.4 34.05 33.8 36.2 34.45 38.05 36.9 40.6 34.45 39.0 33.25 37.1 32.7 33.15 32.8 30.15 32.9 29.4 33.4 28.85 34.9 27.4 37.2 26.5 40.85 26.25 44.75 26.5 45.7 26.45 46.05 25.9 L46.05 23.85 Q45.1 23.15 45.0 21.85 45.4 20.45 46.1 19.85 48.4 17.85 51.25 16.5 M24.05 11.9 Q26.55 9.0 27.6 5.4 28.65 9.0 31.1 11.9 33.6 15.45 32.7 21.3 34.4 19.9 35.25 17.45 34.55 20.6 33.55 22.2 32.75 23.55 30.2 24.45 L29.1 25.05 Q28.6 25.6 28.55 26.7 L28.55 39.15 Q28.45 40.45 29.35 41.7 32.8 44.0 32.35 47.5 31.65 47.5 31.25 47.0 31.05 43.3 27.6 43.05 L27.55 43.05 Q24.1 43.3 23.9 47.0 23.5 47.5 22.85 47.5 22.35 44.0 25.8 41.7 26.7 40.45 26.65 39.15 L26.65 26.7 Q26.55 25.6 26.05 25.05 L24.95 24.45 Q22.45 23.55 21.6 22.2 20.65 20.6 19.9 17.45 20.75 19.9 22.5 21.3 21.55 15.45 24.05 11.9 M23.85 21.65 Q23.95 23.2 26.55 24.05 L27.1 22.25 27.55 17.6 27.55 16.65 27.6 17.05 27.6 17.6 28.1 22.25 28.6 24.05 Q31.25 23.2 31.3 21.65 31.6 17.6 27.6 13.5 23.55 17.6 23.85 21.65 M15.1 14.75 Q13.5 13.1 13.2 8.6 14.85 9.6 16.1 12.5 15.9 9.1 17.35 7.3 L18.4 18.1 Q18.9 23.8 22.0 24.65 25.2 25.55 25.6 29.0 L25.6 37.65 Q25.2 39.5 24.25 40.85 21.25 43.6 21.35 46.75 20.5 45.4 21.0 42.85 18.45 44.55 15.2 45.95 12.2 47.25 13.4 49.05 12.65 49.35 12.1 49.05 11.25 47.35 13.35 45.85 17.9 42.6 21.8 39.15 23.05 38.05 23.35 35.8 23.55 32.4 23.35 29.65 22.0 26.1 12.4 21.85 L18.95 24.25 Q16.75 21.75 16.8 19.05 15.05 20.7 11.2 20.3 13.15 17.85 15.8 17.6 11.2 16.55 9.35 12.9 12.3 12.95 15.1 14.75 M3.9 16.5 Q3.9 19.7 5.15 22.85 6.35 24.0 7.9 24.15 8.25 25.0 8.25 26.5 8.2 28.05 9.8 28.6 L13.5 28.8 Q13.6 29.45 11.75 31.25 16.35 28.55 19.05 28.95 L19.8 29.55 Q20.45 31.0 20.05 34.05 19.45 34.95 18.35 35.15 17.5 34.85 17.25 33.9 17.65 33.1 18.35 32.95 L19.05 33.6 Q19.15 32.75 18.7 32.2 17.3 32.45 16.5 33.2 16.5 35.2 17.75 35.9 19.95 35.75 21.05 34.5 21.05 33.05 21.6 31.6 21.8 34.05 21.4 36.2 20.7 38.05 18.25 40.6 20.7 39.0 21.9 37.1 22.5 33.15 22.4 30.15 L21.75 28.85 Q20.25 27.4 17.95 26.5 14.3 26.25 10.4 26.5 9.45 26.45 9.15 25.9 L9.15 23.85 Q10.05 23.15 10.2 21.85 9.8 20.45 9.1 19.85 6.75 17.85 3.9 16.5 M40.05 14.75 Q41.65 13.1 42.0 8.6 40.3 9.6 39.1 12.5 39.25 9.1 37.8 7.3 L36.75 18.1 Q36.25 23.8 33.15 24.65 29.95 25.55 29.6 29.0 L29.6 37.65 Q29.95 39.5 30.9 40.85 33.9 43.6 33.8 46.75 34.65 45.4 34.15 42.85 36.7 44.55 40.0 45.95 43.0 47.25 41.75 49.05 42.5 49.35 43.05 49.05 43.9 47.35 41.8 45.85 37.3 42.6 33.35 39.15 32.1 38.05 31.85 35.8 31.6 32.4 31.85 29.65 33.2 26.1 42.8 21.85 L36.25 24.25 Q38.4 21.75 38.4 19.05 40.1 20.7 43.95 20.3 42.0 17.85 39.4 17.6 43.95 16.55 45.8 12.9 42.85 12.95 40.05 14.75 M3.95 27.75 Q4.4 24.65 7.05 25.1 7.4 27.8 3.95 27.75 M51.2 27.75 Q50.75 24.65 48.1 25.1 47.8 27.8 51.2 27.75 Z" fill="none" stroke="#000000" stroke-linecap="round" stroke-linejoin="round" stroke-opacity="0.2" stroke-width="1.6"/>
      <path d="M51.25 16.5 Q51.25 19.7 50.05 22.85 48.85 24.0 47.25 24.15 46.9 25.0 46.95 26.5 46.95 28.05 45.35 28.6 L41.65 28.8 Q41.55 29.45 43.45 31.25 38.85 28.55 36.1 28.95 35.7 29.2 35.35 29.55 34.7 31.0 35.1 34.05 35.75 34.95 36.8 35.15 37.7 34.85 37.9 33.9 37.55 33.1 36.8 32.95 L36.1 33.6 Q36.0 32.75 36.5 32.2 37.85 32.45 38.65 33.2 38.65 35.2 37.4 35.9 35.25 35.75 34.1 34.5 34.1 33.05 33.55 31.6 33.4 34.05 33.8 36.2 34.45 38.05 36.9 40.6 34.45 39.0 33.25 37.1 32.7 33.15 32.8 30.15 32.9 29.4 33.4 28.85 34.9 27.4 37.2 26.5 40.85 26.25 44.75 26.5 45.7 26.45 46.05 25.9 L46.05 23.85 Q45.1 23.15 45.0 21.85 45.4 20.45 46.1 19.85 48.4 17.85 51.25 16.5 M24.05 11.9 Q26.55 9.0 27.6 5.4 28.65 9.0 31.1 11.9 33.6 15.45 32.7 21.3 34.4 19.9 35.25 17.45 34.55 20.6 33.55 22.2 32.75 23.55 30.2 24.45 L29.1 25.05 Q28.6 25.6 28.55 26.7 L28.55 39.15 Q28.45 40.45 29.35 41.7 32.8 44.0 32.35 47.5 31.65 47.5 31.25 47.0 31.05 43.3 27.6 43.05 L27.55 43.05 Q24.1 43.3 23.9 47.0 23.5 47.5 22.85 47.5 22.35 44.0 25.8 41.7 26.7 40.45 26.65 39.15 L26.65 26.7 Q26.55 25.6 26.05 25.05 L24.95 24.45 Q22.45 23.55 21.6 22.2 20.65 20.6 19.9 17.45 20.75 19.9 22.5 21.3 21.55 15.45 24.05 11.9 M23.85 21.65 Q23.95 23.2 26.55 24.05 L27.1 22.25 27.55 17.6 27.55 16.65 27.6 17.05 27.6 17.6 28.1 22.25 28.6 24.05 Q31.25 23.2 31.3 21.65 31.6 17.6 27.6 13.5 23.55 17.6 23.85 21.65 M15.1 14.75 Q13.5 13.1 13.2 8.6 14.85 9.6 16.1 12.5 15.9 9.1 17.35 7.3 L18.4 18.1 Q18.9 23.8 22.0 24.65 25.2 25.55 25.6 29.0 L25.6 37.65 Q25.2 39.5 24.25 40.85 21.25 43.6 21.35 46.75 20.5 45.4 21.0 42.85 18.45 44.55 15.2 45.95 12.2 47.25 13.4 49.05 12.65 49.35 12.1 49.05 11.25 47.35 13.35 45.85 17.9 42.6 21.8 39.15 23.05 38.05 23.35 35.8 23.55 32.4 23.35 29.65 22.0 26.1 12.4 21.85 L18.95 24.25 Q16.75 21.75 16.8 19.05 15.05 20.7 11.2 20.3 13.15 17.85 15.8 17.6 11.2 16.55 9.35 12.9 12.3 12.95 15.1 14.75 M40.05 14.75 Q42.85 12.95 45.8 12.9 43.95 16.55 39.4 17.6 42.0 17.85 43.95 20.3 40.1 20.7 38.4 19.05 38.4 21.75 36.25 24.25 L42.8 21.85 Q33.2 26.1 31.85 29.65 31.6 32.4 31.85 35.8 32.1 38.05 33.35 39.15 37.3 42.6 41.8 45.85 43.9 47.35 43.05 49.05 42.5 49.35 41.75 49.05 43.0 47.25 40.0 45.95 36.7 44.55 34.15 42.85 34.65 45.4 33.8 46.75 33.9 43.6 30.9 40.85 29.95 39.5 29.6 37.65 L29.6 29.0 Q29.95 25.55 33.15 24.65 36.25 23.8 36.75 18.1 L37.8 7.3 Q39.25 9.1 39.1 12.5 40.3 9.6 42.0 8.6 41.65 13.1 40.05 14.75 M3.9 16.5 Q6.75 17.85 9.1 19.85 9.8 20.45 10.2 21.85 10.05 23.15 9.15 23.85 L9.15 25.9 Q9.45 26.45 10.4 26.5 14.3 26.25 17.95 26.5 20.25 27.4 21.75 28.85 L22.4 30.15 Q22.5 33.15 21.9 37.1 20.7 39.0 18.25 40.6 20.7 38.05 21.4 36.2 21.8 34.05 21.6 31.6 21.05 33.05 21.05 34.5 19.95 35.75 17.75 35.9 16.5 35.2 16.5 33.2 17.3 32.45 18.7 32.2 19.15 32.75 19.05 33.6 L18.35 32.95 Q17.65 33.1 17.25 33.9 17.5 34.85 18.35 35.15 19.45 34.95 20.05 34.05 20.45 31.0 19.8 29.55 L19.05 28.95 Q16.35 28.55 11.75 31.25 13.6 29.45 13.5 28.8 L9.8 28.6 Q8.2 28.05 8.25 26.5 8.25 25.0 7.9 24.15 6.35 24.0 5.15 22.85 3.9 19.7 3.9 16.5 M3.95 27.75 Q4.4 24.65 7.05 25.1 7.4 27.8 3.95 27.75 M51.2 27.75 Q47.8 27.8 48.1 25.1 50.75 24.65 51.2 27.75" fill="#000000" fill-rule="evenodd" stroke="none"/>
    </g>
  </defs>
</svg>
