<?xml version="1.0" encoding="UTF-8" standalone="no"?>
<svg xmlns:ffdec="https://www.free-decompiler.com/flash" xmlns:xlink="http://www.w3.org/1999/xlink" ffdec:objectType="frame" height="56.0px" width="56.0px" xmlns="http://www.w3.org/2000/svg">
  <g transform="matrix(1.0, 0.0, 0.0, 1.0, 0.0, 0.0)">
    <use ffdec:characterId="2" height="56.0" id="back" transform="matrix(1.0, 0.0, 0.0, 1.0, 0.0, 0.0)" width="56.0" xlink:href="#sprite0"/>
    <use ffdec:characterId="3" height="47.5" transform="matrix(1.0, 0.0, 0.0, 1.0, 0.95, 3.1)" width="53.65" xlink:href="#shape1"/>
  </g>
  <defs>
    <g id="sprite0" transform="matrix(1.0, 0.0, 0.0, 1.0, 0.0, 0.0)">
      <use ffdec:characterId="1" height="56.0" transform="matrix(1.0, 0.0, 0.0, 1.0, 0.0, 0.0)" width="56.0" xlink:href="#shape0"/>
    </g>
    <g id="shape0" transform="matrix(1.0, 0.0, 0.0, 1.0, 0.0, 0.0)">
      <path d="M56.0 56.0 L0.0 56.0 0.0 0.0 56.0 0.0 56.0 56.0" fill="#010101" fill-opacity="0.0" fill-rule="evenodd" stroke="none"/>
    </g>
    <g id="shape1" transform="matrix(1.0, 0.0, 0.0, 1.0, -0.95, -3.1)">
      <path d="M28.05 32.35 Q27.85 31.45 27.9 20.9 L28.05 10.55 Q29.05 12.0 29.4 14.25 L29.55 16.2 29.55 29.0 30.8 28.0 Q30.7 29.0 30.05 29.65 L29.4 30.1 Q28.8 30.55 28.35 31.5 L28.05 32.35 M47.5 3.9 Q44.55 6.95 42.8 10.7 41.55 13.5 43.45 14.6 45.35 15.65 50.95 15.2 L45.15 18.05 Q41.65 19.85 41.85 20.9 42.05 22.1 46.6 23.7 40.85 23.65 41.35 25.65 L49.95 25.95 44.35 25.95 Q41.2 26.05 38.2 30.4 L36.4 33.0 Q35.65 34.05 34.85 33.35 L36.25 31.0 Q33.4 30.25 34.3 27.4 34.3 28.45 35.1 28.6 L35.65 28.65 36.35 28.4 Q38.25 27.0 35.65 22.5 34.05 19.8 31.55 17.85 38.1 20.55 38.85 26.95 39.85 25.7 39.2 24.15 37.45 20.0 34.1 17.65 34.65 14.6 38.6 11.0 42.55 7.35 47.5 3.9 M27.5 32.35 L27.2 31.5 Q26.8 30.55 26.15 30.1 L25.5 29.65 Q24.85 29.0 24.75 28.0 L26.0 29.0 26.0 16.2 26.15 14.25 Q26.5 12.0 27.5 10.55 L27.65 20.9 Q27.75 31.45 27.5 32.35 M19.15 25.5 Q20.1 21.55 24.45 18.4 L24.25 27.95 Q24.15 29.95 25.75 30.9 27.3 31.85 27.5 33.95 L27.8 34.5 28.05 33.95 Q28.25 31.85 29.85 30.9 31.4 29.95 31.3 27.95 L31.15 18.4 Q35.45 21.55 36.4 25.5 34.3 26.3 33.45 27.95 32.65 29.6 34.1 32.65 29.45 30.6 29.0 34.75 28.65 37.55 29.4 40.15 30.0 40.05 30.5 39.55 29.4 35.65 29.7 34.65 29.95 33.65 30.6 33.3 31.05 35.05 32.8 36.1 L33.95 36.7 34.45 36.85 Q33.55 36.25 33.15 34.85 L32.95 33.55 33.9 34.5 Q35.0 35.45 35.8 35.45 36.65 35.45 37.3 34.6 L40.95 29.5 Q42.45 27.6 44.8 27.0 L46.25 26.8 50.55 26.8 Q52.05 26.9 53.05 26.2 L53.6 25.7 53.75 25.45 Q54.1 27.55 49.95 28.05 44.25 29.15 41.8 31.55 L47.65 30.7 42.85 35.3 39.35 35.05 37.9 35.55 Q38.1 36.1 40.1 36.75 L42.1 37.3 38.4 37.4 36.7 36.8 Q36.35 37.9 36.9 38.75 L37.3 39.25 37.5 39.4 34.95 38.75 33.9 38.2 34.1 40.3 31.15 40.4 Q29.5 41.0 29.1 42.05 33.4 42.2 38.6 40.4 40.3 39.85 41.85 39.1 L43.1 38.5 43.1 38.85 42.95 39.05 Q40.25 41.85 35.95 43.55 33.8 44.4 32.2 44.65 31.3 44.05 30.1 43.9 L29.05 43.9 29.1 45.2 29.65 45.95 29.9 46.45 28.05 49.8 27.5 49.8 25.65 46.45 25.9 45.95 26.5 45.2 26.55 43.9 25.5 43.9 Q24.3 44.05 23.4 44.65 L19.6 43.55 Q15.3 41.85 12.6 39.05 L12.45 38.85 12.45 38.5 13.7 39.1 Q15.25 39.85 16.95 40.4 22.15 42.2 26.5 42.05 L26.2 41.55 Q25.65 40.85 24.45 40.4 L21.45 40.3 21.7 38.2 20.6 38.75 Q19.25 39.35 18.05 39.4 L18.25 39.25 18.7 38.75 Q19.2 37.9 18.85 36.8 L17.15 37.4 13.45 37.3 15.45 36.75 Q17.5 36.1 17.65 35.55 L16.2 35.05 12.7 35.3 7.9 30.7 13.75 31.55 Q11.35 29.15 5.65 28.05 1.45 27.55 1.8 25.45 L2.0 25.7 2.5 26.2 Q3.55 26.9 5.0 26.8 L9.3 26.8 10.75 27.0 Q13.1 27.6 14.6 29.5 L18.25 34.6 Q18.9 35.45 19.75 35.45 20.55 35.45 21.7 34.5 L22.65 33.55 22.4 34.85 Q22.05 36.25 21.15 36.85 L21.6 36.7 22.8 36.1 Q24.5 35.05 24.95 33.3 25.6 33.65 25.9 34.65 26.15 35.65 25.05 39.55 25.55 40.05 26.2 40.15 26.9 37.55 26.55 34.75 26.1 30.6 21.45 32.65 22.9 29.6 22.1 27.95 21.25 26.3 19.15 25.5 M7.55 3.9 Q12.45 7.35 16.45 11.0 20.4 14.6 20.95 17.65 17.6 20.0 15.85 24.15 15.2 25.7 16.2 26.95 16.95 20.55 23.5 17.85 21.0 19.8 19.4 22.5 16.8 27.0 18.65 28.4 L19.35 28.65 19.95 28.6 Q20.75 28.45 20.7 27.4 21.65 30.25 18.8 31.0 19.35 32.35 20.2 33.35 19.4 34.05 18.65 33.0 L16.85 30.4 Q13.85 26.05 10.65 25.95 L5.05 25.95 13.7 25.65 Q14.2 23.65 8.45 23.7 13.0 22.1 13.2 20.9 13.35 19.85 9.85 18.05 L4.1 15.2 Q9.7 15.65 11.6 14.6 13.5 13.5 12.25 10.7 10.5 6.95 7.55 3.9" fill="#000000" fill-rule="evenodd" stroke="none"/>
      <path d="M47.5 3.9 Q42.55 7.35 38.6 11.0 34.65 14.6 34.1 17.65 37.45 20.0 39.2 24.15 39.85 25.7 38.85 26.95 38.1 20.55 31.55 17.85 34.05 19.8 35.65 22.5 38.25 27.0 36.35 28.4 L35.65 28.65 35.1 28.6 Q34.3 28.45 34.3 27.4 33.4 30.25 36.25 31.0 L34.85 33.35 Q35.65 34.05 36.4 33.0 L38.2 30.4 Q41.2 26.05 44.35 25.95 L49.95 25.95 41.35 25.65 Q40.85 23.65 46.6 23.7 42.05 22.1 41.85 20.9 41.65 19.85 45.15 18.05 L50.95 15.2 Q45.35 15.65 43.45 14.6 41.55 13.5 42.8 10.7 44.55 6.95 47.5 3.9 M28.05 32.35 L28.35 31.5 Q28.8 30.55 29.4 30.1 L30.05 29.65 Q30.7 29.0 30.8 28.0 L29.55 29.0 29.55 16.2 29.4 14.25 Q29.05 12.0 28.05 10.55 L27.9 20.9 Q27.85 31.45 28.05 32.35 M27.5 32.35 L27.2 31.5 Q26.8 30.55 26.15 30.1 L25.5 29.65 Q24.85 29.0 24.75 28.0 L26.0 29.0 26.0 16.2 26.15 14.25 Q26.5 12.0 27.5 10.55 L27.65 20.9 Q27.75 31.45 27.5 32.35 M19.15 25.5 Q21.25 26.3 22.1 27.95 22.9 29.6 21.45 32.65 26.1 30.6 26.55 34.75 26.9 37.55 26.2 40.15 25.55 40.05 25.05 39.55 26.15 35.65 25.9 34.65 25.6 33.65 24.95 33.3 24.5 35.05 22.8 36.1 L21.6 36.7 21.15 36.85 Q22.05 36.25 22.4 34.85 L22.65 33.55 21.7 34.5 Q20.55 35.45 19.75 35.45 18.9 35.45 18.25 34.6 L14.6 29.5 Q13.1 27.6 10.75 27.0 L9.3 26.8 5.0 26.8 Q3.55 26.9 2.5 26.2 L2.0 25.7 1.8 25.45 Q1.45 27.55 5.65 28.05 11.35 29.15 13.75 31.55 L7.9 30.7 12.7 35.3 16.2 35.05 17.65 35.55 Q17.5 36.1 15.45 36.75 L13.45 37.3 17.15 37.4 18.85 36.8 Q19.2 37.9 18.7 38.75 L18.25 39.25 18.05 39.4 Q19.25 39.35 20.6 38.75 L21.7 38.2 21.45 40.3 24.45 40.4 Q25.65 40.85 26.2 41.55 L26.5 42.05 Q22.15 42.2 16.95 40.4 15.25 39.85 13.7 39.1 L12.45 38.5 12.45 38.85 12.6 39.05 Q15.3 41.85 19.6 43.55 L23.4 44.65 Q24.3 44.05 25.5 43.9 L26.55 43.9 26.5 45.2 25.9 45.95 25.65 46.45 27.5 49.8 28.05 49.8 29.9 46.45 29.65 45.95 29.1 45.2 29.05 43.9 30.1 43.9 Q31.3 44.05 32.2 44.65 33.8 44.4 35.95 43.55 40.25 41.85 42.95 39.05 L43.1 38.85 43.1 38.5 41.85 39.1 Q40.3 39.85 38.6 40.4 33.4 42.2 29.1 42.05 29.5 41.0 31.15 40.4 L34.1 40.3 33.9 38.2 34.95 38.75 37.5 39.4 37.3 39.25 36.9 38.75 Q36.35 37.9 36.7 36.8 L38.4 37.4 42.1 37.3 40.1 36.75 Q38.1 36.1 37.9 35.55 L39.35 35.05 42.85 35.3 47.65 30.7 41.8 31.55 Q44.25 29.15 49.95 28.05 54.1 27.55 53.75 25.45 L53.6 25.7 53.05 26.2 Q52.05 26.9 50.55 26.8 L46.25 26.8 44.8 27.0 Q42.45 27.6 40.95 29.5 L37.3 34.6 Q36.65 35.45 35.8 35.45 35.0 35.45 33.9 34.5 L32.95 33.55 33.15 34.85 Q33.55 36.25 34.45 36.85 L33.95 36.7 32.8 36.1 Q31.05 35.05 30.6 33.3 29.95 33.65 29.7 34.65 29.4 35.65 30.5 39.55 30.0 40.05 29.4 40.15 28.65 37.55 29.0 34.75 29.45 30.6 34.1 32.65 32.65 29.6 33.45 27.95 34.3 26.3 36.4 25.5 35.45 21.55 31.15 18.4 L31.3 27.95 Q31.4 29.95 29.85 30.9 28.25 31.85 28.05 33.95 L27.8 34.5 27.5 33.95 Q27.3 31.85 25.75 30.9 24.15 29.95 24.25 27.95 L24.45 18.4 Q20.1 21.55 19.15 25.5 M7.55 3.9 Q12.45 7.35 16.45 11.0 20.4 14.6 20.95 17.65 17.6 20.0 15.85 24.15 15.2 25.7 16.2 26.95 16.95 20.55 23.5 17.85 21.0 19.8 19.4 22.5 16.8 27.0 18.65 28.4 L19.35 28.65 19.95 28.6 Q20.75 28.45 20.7 27.4 21.65 30.25 18.8 31.0 19.35 32.35 20.2 33.35 19.4 34.05 18.65 33.0 L16.85 30.4 Q13.85 26.05 10.65 25.95 L5.05 25.95 13.7 25.65 Q14.2 23.65 8.45 23.7 13.0 22.1 13.2 20.9 13.35 19.85 9.85 18.05 L4.1 15.2 Q9.7 15.65 11.6 14.6 13.5 13.5 12.25 10.7 10.5 6.95 7.55 3.9 Z" fill="none" stroke="#000000" stroke-linecap="round" stroke-linejoin="round" stroke-opacity="0.2" stroke-width="1.6"/>
      <path d="M28.05 32.35 Q27.85 31.45 27.9 20.9 L28.05 10.55 Q29.05 12.0 29.4 14.25 L29.55 16.2 29.55 29.0 30.8 28.0 Q30.7 29.0 30.05 29.65 L29.4 30.1 Q28.8 30.55 28.35 31.5 L28.05 32.35 M47.5 3.9 Q44.55 6.95 42.8 10.7 41.55 13.5 43.45 14.6 45.35 15.65 50.95 15.2 L45.15 18.05 Q41.65 19.85 41.85 20.9 42.05 22.1 46.6 23.7 40.85 23.65 41.35 25.65 L49.95 25.95 44.35 25.95 Q41.2 26.05 38.2 30.4 L36.4 33.0 Q35.65 34.05 34.85 33.35 L36.25 31.0 Q33.4 30.25 34.3 27.4 34.3 28.45 35.1 28.6 L35.65 28.65 36.35 28.4 Q38.25 27.0 35.65 22.5 34.05 19.8 31.55 17.85 38.1 20.55 38.85 26.95 39.85 25.7 39.2 24.15 37.45 20.0 34.1 17.65 34.65 14.6 38.6 11.0 42.55 7.35 47.5 3.9 M27.5 32.35 L27.2 31.5 Q26.8 30.55 26.15 30.1 L25.5 29.65 Q24.85 29.0 24.75 28.0 L26.0 29.0 26.0 16.2 26.15 14.25 Q26.5 12.0 27.5 10.55 L27.65 20.9 Q27.75 31.45 27.5 32.35 M19.15 25.5 Q20.1 21.55 24.45 18.4 L24.25 27.95 Q24.15 29.95 25.75 30.9 27.3 31.85 27.5 33.95 L27.8 34.5 28.05 33.95 Q28.25 31.85 29.85 30.9 31.4 29.95 31.3 27.95 L31.15 18.4 Q35.45 21.55 36.4 25.5 34.3 26.3 33.45 27.95 32.65 29.6 34.1 32.65 29.45 30.6 29.0 34.75 28.65 37.55 29.4 40.15 30.0 40.05 30.5 39.55 29.4 35.65 29.7 34.65 29.95 33.65 30.6 33.3 31.05 35.05 32.8 36.1 L33.95 36.7 34.45 36.85 Q33.55 36.25 33.15 34.85 L32.95 33.55 33.9 34.5 Q35.0 35.45 35.8 35.45 36.65 35.45 37.3 34.6 L40.95 29.5 Q42.45 27.6 44.8 27.0 L46.25 26.8 50.55 26.8 Q52.05 26.9 53.05 26.2 L53.6 25.7 53.75 25.45 Q54.1 27.55 49.95 28.05 44.25 29.15 41.8 31.55 L47.65 30.7 42.85 35.3 39.35 35.05 37.9 35.55 Q38.1 36.1 40.1 36.75 L42.1 37.3 38.4 37.4 36.7 36.8 Q36.35 37.9 36.9 38.75 L37.3 39.25 37.5 39.4 34.95 38.75 33.9 38.2 34.1 40.3 31.15 40.4 Q29.5 41.0 29.1 42.05 33.4 42.2 38.6 40.4 40.3 39.85 41.85 39.1 L43.1 38.5 43.1 38.85 42.95 39.05 Q40.25 41.85 35.95 43.55 33.8 44.4 32.2 44.65 31.3 44.05 30.1 43.9 L29.05 43.9 29.1 45.2 29.65 45.95 29.9 46.45 28.05 49.8 27.5 49.8 25.65 46.45 25.9 45.95 26.5 45.2 26.55 43.9 25.5 43.9 Q24.3 44.05 23.4 44.65 L19.6 43.55 Q15.3 41.85 12.6 39.05 L12.45 38.85 12.45 38.5 13.7 39.1 Q15.25 39.85 16.95 40.4 22.15 42.2 26.5 42.05 L26.2 41.55 Q25.65 40.85 24.45 40.4 L21.45 40.3 21.7 38.2 20.6 38.75 Q19.25 39.35 18.05 39.4 L18.25 39.25 18.7 38.75 Q19.2 37.9 18.85 36.8 L17.15 37.4 13.45 37.3 15.45 36.75 Q17.5 36.1 17.65 35.55 L16.2 35.05 12.7 35.3 7.9 30.7 13.75 31.55 Q11.35 29.15 5.65 28.05 1.45 27.55 1.8 25.45 L2.0 25.7 2.5 26.2 Q3.55 26.9 5.0 26.8 L9.3 26.8 10.75 27.0 Q13.1 27.6 14.6 29.5 L18.25 34.6 Q18.9 35.45 19.75 35.45 20.55 35.45 21.7 34.5 L22.65 33.55 22.4 34.85 Q22.05 36.25 21.15 36.85 L21.6 36.7 22.8 36.1 Q24.5 35.05 24.95 33.3 25.6 33.65 25.9 34.65 26.15 35.65 25.05 39.55 25.55 40.05 26.2 40.15 26.9 37.55 26.55 34.75 26.1 30.6 21.45 32.65 22.9 29.6 22.1 27.95 21.25 26.3 19.15 25.5 M7.55 3.9 Q12.45 7.35 16.45 11.0 20.4 14.6 20.95 17.65 17.6 20.0 15.85 24.15 15.2 25.7 16.2 26.95 16.95 20.55 23.5 17.85 21.0 19.8 19.4 22.5 16.8 27.0 18.65 28.4 L19.35 28.65 19.95 28.6 Q20.75 28.45 20.7 27.4 21.65 30.25 18.8 31.0 19.35 32.35 20.2 33.35 19.4 34.05 18.65 33.0 L16.85 30.4 Q13.85 26.05 10.65 25.95 L5.05 25.95 13.7 25.65 Q14.2 23.65 8.45 23.7 13.0 22.1 13.2 20.9 13.35 19.85 9.85 18.05 L4.1 15.2 Q9.7 15.65 11.6 14.6 13.5 13.5 12.25 10.7 10.5 6.95 7.55 3.9" fill="#000000" fill-rule="evenodd" stroke="none"/>
    </g>
  </defs>
</svg>
