<?xml version="1.0" encoding="UTF-8" standalone="no"?>
<svg xmlns:ffdec="https://www.free-decompiler.com/flash" xmlns:xlink="http://www.w3.org/1999/xlink" ffdec:objectType="frame" height="56.0px" width="56.0px" xmlns="http://www.w3.org/2000/svg">
  <g transform="matrix(1.0, 0.0, 0.0, 1.0, 0.0, 0.0)">
    <use ffdec:characterId="2" height="56.0" id="back" transform="matrix(1.0, 0.0, 0.0, 1.0, 0.0, 0.0)" width="56.0" xlink:href="#sprite0"/>
    <use ffdec:characterId="3" height="47.1" transform="matrix(1.0, 0.0, 0.0, 1.0, 4.8, 3.5)" width="45.35" xlink:href="#shape1"/>
  </g>
  <defs>
    <g id="sprite0" transform="matrix(1.0, 0.0, 0.0, 1.0, 0.0, 0.0)">
      <use ffdec:characterId="1" height="56.0" transform="matrix(1.0, 0.0, 0.0, 1.0, 0.0, 0.0)" width="56.0" xlink:href="#shape0"/>
    </g>
    <g id="shape0" transform="matrix(1.0, 0.0, 0.0, 1.0, 0.0, 0.0)">
      <path d="M56.0 56.0 L0.0 56.0 0.0 0.0 56.0 0.0 56.0 56.0" fill="#010101" fill-opacity="0.0" fill-rule="evenodd" stroke="none"/>
    </g>
    <g id="shape1" transform="matrix(1.0, 0.0, 0.0, 1.0, -4.8, -3.5)">
      <path d="M22.65 30.65 L22.65 29.05 14.6 21.0 Q12.6 18.85 14.6 16.55 L22.75 8.4 Q23.4 7.7 22.75 6.75 L21.95 5.95 23.6 4.3 Q26.85 7.05 24.5 9.75 L16.55 17.75 Q15.55 18.8 16.55 19.8 L22.7 25.9 Q22.8 24.3 21.85 23.3 L18.2 19.65 Q17.35 18.9 18.15 18.1 L26.8 9.5 28.15 9.45 36.8 18.1 Q37.55 18.9 36.75 19.65 L33.1 23.3 Q32.15 24.3 32.25 25.9 L38.4 19.8 Q39.4 18.8 38.4 17.75 L30.4 9.75 Q28.1 7.05 31.35 4.3 L33.0 5.95 32.2 6.75 Q31.55 7.7 32.2 8.4 L40.35 16.55 Q42.35 18.85 40.35 21.0 L32.3 29.05 32.3 30.65 41.2 21.8 Q43.4 19.95 45.5 21.75 L48.5 24.85 Q50.1 26.65 48.65 28.6 L46.35 30.9 43.35 30.95 Q42.4 30.45 41.65 29.2 40.85 27.8 41.65 26.3 42.25 25.35 42.95 24.7 L44.6 26.35 43.75 27.25 Q43.45 28.1 44.05 28.6 44.6 29.1 45.25 28.8 L46.65 27.4 Q47.1 26.85 46.65 26.1 L44.2 23.65 Q43.35 23.0 42.55 23.65 L33.05 33.15 36.15 36.3 Q37.1 36.95 37.9 36.3 L40.1 34.1 Q40.55 33.25 39.9 32.65 L38.45 32.5 37.65 33.3 36.05 31.7 Q36.65 30.9 37.35 30.5 39.05 29.4 40.6 30.3 44.35 32.7 41.45 36.0 L39.45 38.0 Q38.35 39.05 37.0 39.05 35.65 39.1 34.4 37.75 L32.5 35.8 31.6 36.65 33.6 38.65 Q36.05 41.25 33.6 43.85 L31.55 46.0 Q30.85 46.8 31.6 47.45 32.4 48.15 33.2 47.45 L30.85 49.8 Q29.1 48.9 28.85 46.95 28.6 45.25 31.45 42.7 33.0 41.35 31.55 39.85 L30.0 38.3 27.45 40.75 24.95 38.3 23.4 39.85 Q21.95 41.35 23.5 42.7 26.35 45.25 26.1 46.95 25.8 48.9 24.05 49.8 L21.75 47.45 Q22.55 48.15 23.35 47.45 24.1 46.8 23.4 46.0 L21.35 43.85 Q18.9 41.25 21.35 38.65 L23.35 36.65 22.45 35.8 20.5 37.75 Q19.3 39.1 17.95 39.05 16.6 39.05 15.5 38.0 L13.5 36.0 Q10.6 32.7 14.35 30.3 15.9 29.4 17.6 30.5 L18.9 31.7 17.3 33.3 16.5 32.5 Q15.65 32.05 15.0 32.65 14.4 33.25 14.85 34.1 L17.0 36.3 Q17.85 36.95 18.75 36.3 L21.9 33.15 12.4 23.65 Q11.6 23.0 10.75 23.65 L8.3 26.1 Q7.85 26.85 8.3 27.4 8.85 28.2 9.7 28.8 10.3 29.1 10.9 28.6 11.45 28.1 11.2 27.25 L10.35 26.35 12.0 24.7 13.3 26.3 Q14.1 27.8 13.3 29.2 12.55 30.45 11.6 30.95 L8.6 30.9 Q7.2 29.8 6.3 28.6 4.85 26.65 6.45 24.85 L9.45 21.75 Q11.55 19.95 13.75 21.8 L22.65 30.65 M29.1 32.1 Q29.1 32.8 28.6 33.3 28.1 33.8 27.4 33.8 26.7 33.8 26.15 33.3 25.65 32.8 25.65 32.1 25.65 31.4 26.15 30.85 26.7 30.35 27.4 30.35 28.1 30.35 28.6 30.85 29.1 31.4 29.1 32.1 M27.45 10.1 L26.65 28.85 23.95 31.45 Q23.55 32.15 23.95 32.75 L26.75 35.45 Q27.1 35.75 27.45 35.7 L28.2 35.45 31.0 32.75 Q31.35 32.15 31.0 31.45 L28.3 28.85 27.45 10.1" fill="#000000" fill-rule="evenodd" stroke="none"/>
      <path d="M22.65 30.65 L22.65 29.05 14.6 21.0 Q12.6 18.85 14.6 16.55 L22.75 8.4 Q23.4 7.7 22.75 6.75 L21.95 5.95 23.6 4.3 Q26.85 7.05 24.5 9.75 L16.55 17.75 Q15.55 18.8 16.55 19.8 L22.7 25.9 Q22.8 24.3 21.85 23.3 L18.2 19.65 Q17.35 18.9 18.15 18.1 L26.8 9.5 28.15 9.45 36.8 18.1 Q37.55 18.9 36.75 19.65 L33.1 23.3 Q32.15 24.3 32.25 25.9 L38.4 19.8 Q39.4 18.8 38.4 17.75 L30.4 9.75 Q28.1 7.05 31.35 4.3 L33.0 5.95 32.2 6.75 Q31.55 7.7 32.2 8.4 L40.35 16.55 Q42.35 18.85 40.35 21.0 L32.3 29.05 32.3 30.65 41.2 21.8 Q43.4 19.95 45.5 21.75 L48.5 24.85 Q50.1 26.65 48.65 28.6 L46.35 30.9 43.35 30.95 Q42.4 30.45 41.65 29.2 40.85 27.8 41.65 26.3 42.25 25.35 42.95 24.7 L44.6 26.35 43.75 27.25 Q43.45 28.1 44.05 28.6 44.6 29.1 45.25 28.8 L46.65 27.4 Q47.1 26.85 46.65 26.1 L44.2 23.65 Q43.35 23.0 42.55 23.65 L33.05 33.15 36.15 36.3 Q37.1 36.95 37.9 36.3 L40.1 34.1 Q40.55 33.25 39.9 32.65 L38.45 32.5 37.65 33.3 36.05 31.7 Q36.65 30.9 37.35 30.5 39.05 29.4 40.6 30.3 44.35 32.7 41.45 36.0 L39.45 38.0 Q38.35 39.05 37.0 39.05 35.65 39.1 34.4 37.75 L32.5 35.8 31.6 36.65 33.6 38.65 Q36.05 41.25 33.6 43.85 L31.55 46.0 Q30.85 46.8 31.6 47.45 32.4 48.15 33.2 47.45 L30.85 49.8 Q29.1 48.9 28.85 46.95 28.6 45.25 31.45 42.7 33.0 41.35 31.55 39.85 L30.0 38.3 27.45 40.75 24.95 38.3 23.4 39.85 Q21.95 41.35 23.5 42.7 26.35 45.25 26.1 46.95 25.8 48.9 24.05 49.8 L21.75 47.45 Q22.55 48.15 23.35 47.45 24.1 46.8 23.4 46.0 L21.35 43.85 Q18.9 41.25 21.35 38.65 L23.35 36.65 22.45 35.8 20.5 37.75 Q19.3 39.1 17.95 39.05 16.6 39.05 15.5 38.0 L13.5 36.0 Q10.6 32.7 14.35 30.3 15.9 29.4 17.6 30.5 L18.9 31.7 17.3 33.3 16.5 32.5 Q15.65 32.05 15.0 32.65 14.4 33.25 14.85 34.1 L17.0 36.3 Q17.85 36.95 18.75 36.3 L21.9 33.15 12.4 23.65 Q11.6 23.0 10.75 23.65 L8.3 26.1 Q7.85 26.85 8.3 27.4 8.85 28.2 9.7 28.8 10.3 29.1 10.9 28.6 11.45 28.1 11.2 27.25 L10.35 26.35 12.0 24.7 13.3 26.3 Q14.1 27.8 13.3 29.2 12.55 30.45 11.6 30.95 L8.6 30.9 Q7.2 29.8 6.3 28.6 4.85 26.65 6.45 24.85 L9.45 21.75 Q11.55 19.95 13.75 21.8 L22.65 30.65 M29.1 32.1 Q29.1 32.8 28.6 33.3 28.1 33.8 27.4 33.8 26.7 33.8 26.15 33.3 25.65 32.8 25.65 32.1 25.65 31.4 26.15 30.85 26.7 30.35 27.4 30.35 28.1 30.35 28.6 30.85 29.1 31.4 29.1 32.1 M27.45 10.1 L26.65 28.85 23.95 31.45 Q23.55 32.15 23.95 32.75 L26.75 35.45 Q27.1 35.75 27.45 35.7 L28.2 35.45 31.0 32.75 Q31.35 32.15 31.0 31.45 L28.3 28.85 27.45 10.1 Z" fill="none" stroke="#000000" stroke-linecap="round" stroke-linejoin="round" stroke-opacity="0.2" stroke-width="1.6"/>
      <path d="M22.65 30.65 L22.65 29.05 14.6 21.0 Q12.6 18.85 14.6 16.55 L22.75 8.4 Q23.4 7.7 22.75 6.75 L21.95 5.95 23.6 4.3 Q26.85 7.05 24.5 9.75 L16.55 17.75 Q15.55 18.8 16.55 19.8 L22.7 25.9 Q22.8 24.3 21.85 23.3 L18.2 19.65 Q17.35 18.9 18.15 18.1 L26.8 9.5 28.15 9.45 36.8 18.1 Q37.55 18.9 36.75 19.65 L33.1 23.3 Q32.15 24.3 32.25 25.9 L38.4 19.8 Q39.4 18.8 38.4 17.75 L30.4 9.75 Q28.1 7.05 31.35 4.3 L33.0 5.95 32.2 6.75 Q31.55 7.7 32.2 8.4 L40.35 16.55 Q42.35 18.85 40.35 21.0 L32.3 29.05 32.3 30.65 41.2 21.8 Q43.4 19.95 45.5 21.75 L48.5 24.85 Q50.1 26.65 48.65 28.6 L46.35 30.9 43.35 30.95 Q42.4 30.45 41.65 29.2 40.85 27.8 41.65 26.3 42.25 25.35 42.95 24.7 L44.6 26.35 43.75 27.25 Q43.45 28.1 44.05 28.6 44.6 29.1 45.25 28.8 L46.65 27.4 Q47.1 26.85 46.65 26.1 L44.2 23.65 Q43.35 23.0 42.55 23.65 L33.05 33.15 36.15 36.3 Q37.1 36.95 37.9 36.3 L40.1 34.1 Q40.55 33.25 39.9 32.65 L38.45 32.5 37.65 33.3 36.05 31.7 Q36.65 30.9 37.35 30.5 39.05 29.4 40.6 30.3 44.35 32.7 41.45 36.0 L39.45 38.0 Q38.35 39.05 37.0 39.05 35.65 39.1 34.4 37.75 L32.5 35.8 31.6 36.65 33.6 38.65 Q36.05 41.25 33.6 43.85 L31.55 46.0 Q30.85 46.8 31.6 47.45 32.4 48.15 33.2 47.45 L30.85 49.8 Q29.1 48.9 28.85 46.95 28.6 45.25 31.45 42.7 33.0 41.35 31.55 39.85 L30.0 38.3 27.45 40.75 24.95 38.3 23.4 39.85 Q21.95 41.35 23.5 42.7 26.35 45.25 26.1 46.95 25.8 48.9 24.05 49.8 L21.75 47.45 Q22.55 48.15 23.35 47.45 24.1 46.8 23.4 46.0 L21.35 43.85 Q18.9 41.25 21.35 38.65 L23.35 36.65 22.45 35.8 20.5 37.75 Q19.3 39.1 17.95 39.05 16.6 39.05 15.5 38.0 L13.5 36.0 Q10.6 32.7 14.35 30.3 15.9 29.4 17.6 30.5 L18.9 31.7 17.3 33.3 16.5 32.5 Q15.65 32.05 15.0 32.65 14.4 33.25 14.85 34.1 L17.0 36.3 Q17.85 36.95 18.75 36.3 L21.9 33.15 12.4 23.65 Q11.6 23.0 10.75 23.65 L8.3 26.1 Q7.85 26.85 8.3 27.4 8.85 28.2 9.7 28.8 10.3 29.1 10.9 28.6 11.45 28.1 11.2 27.25 L10.35 26.35 12.0 24.7 13.3 26.3 Q14.1 27.8 13.3 29.2 12.55 30.45 11.6 30.95 L8.6 30.9 Q7.2 29.8 6.3 28.6 4.85 26.65 6.45 24.85 L9.45 21.75 Q11.55 19.95 13.75 21.8 L22.65 30.65 M29.1 32.1 Q29.1 32.8 28.6 33.3 28.1 33.8 27.4 33.8 26.7 33.8 26.15 33.3 25.65 32.8 25.65 32.1 25.65 31.4 26.15 30.85 26.7 30.35 27.4 30.35 28.1 30.35 28.6 30.85 29.1 31.4 29.1 32.1 M27.45 10.1 L26.65 28.85 23.95 31.45 Q23.55 32.15 23.95 32.75 L26.75 35.45 Q27.1 35.75 27.45 35.7 L28.2 35.45 31.0 32.75 Q31.35 32.15 31.0 31.45 L28.3 28.85 27.45 10.1" fill="#000000" fill-rule="evenodd" stroke="none"/>
    </g>
  </defs>
</svg>
