<?xml version="1.0" encoding="UTF-8" standalone="no"?>
<svg xmlns:ffdec="https://www.free-decompiler.com/flash" xmlns:xlink="http://www.w3.org/1999/xlink" ffdec:objectType="frame" height="56.0px" width="56.0px" xmlns="http://www.w3.org/2000/svg">
  <g transform="matrix(1.0, 0.0, 0.0, 1.0, 0.0, 0.0)">
    <use ffdec:characterId="2" height="56.0" id="back" transform="matrix(1.0, 0.0, 0.0, 1.0, 0.0, 0.0)" width="56.0" xlink:href="#sprite0"/>
    <use ffdec:characterId="3" height="51.55" transform="matrix(1.0, 0.0, 0.0, 1.0, 2.05, 2.0)" width="51.4" xlink:href="#shape1"/>
  </g>
  <defs>
    <g id="sprite0" transform="matrix(1.0, 0.0, 0.0, 1.0, 0.0, 0.0)">
      <use ffdec:characterId="1" height="56.0" transform="matrix(1.0, 0.0, 0.0, 1.0, 0.0, 0.0)" width="56.0" xlink:href="#shape0"/>
    </g>
    <g id="shape0" transform="matrix(1.0, 0.0, 0.0, 1.0, 0.0, 0.0)">
      <path d="M56.0 56.0 L0.0 56.0 0.0 0.0 56.0 0.0 56.0 56.0" fill="#010101" fill-opacity="0.0" fill-rule="evenodd" stroke="none"/>
    </g>
    <g id="shape1" transform="matrix(1.0, 0.0, 0.0, 1.0, -2.05, -2.0)">
      <path d="M6.4 19.5 Q6.5 20.95 7.85 21.5 L12.2 21.5 Q12.9 21.8 12.85 22.3 L7.7 22.3 Q7.9 23.25 12.45 23.35 13.8 23.4 14.15 22.3 13.95 20.95 12.35 20.0 8.15 20.7 6.4 19.5 M27.65 2.8 L27.75 3.3 27.85 2.8 31.65 10.6 36.85 7.55 35.0 11.95 36.15 12.5 Q37.4 13.2 37.95 14.25 38.8 14.45 39.75 15.0 41.7 16.15 42.3 18.15 L41.1 19.3 Q39.9 20.75 40.0 22.3 40.1 21.8 40.5 21.2 41.3 19.95 42.6 19.3 L47.7 19.35 48.35 18.95 Q48.95 18.15 49.05 16.5 L50.55 17.95 Q52.1 19.8 52.5 21.8 L52.55 22.5 52.35 24.2 Q51.65 26.9 49.3 28.4 L43.8 28.7 41.75 27.55 42.0 28.25 Q42.55 29.15 43.75 30.0 L43.8 30.7 43.7 32.45 Q43.25 35.3 41.2 37.1 L40.5 37.6 Q39.55 38.25 37.0 39.35 35.7 40.45 33.8 45.55 31.15 47.25 27.9 46.95 L27.75 46.15 27.6 46.95 Q24.35 47.25 21.7 45.55 19.8 40.45 18.5 39.35 15.95 38.25 15.0 37.6 L14.3 37.1 Q12.25 35.3 11.8 32.45 L11.7 30.7 11.75 30.0 13.5 28.25 13.75 27.55 11.7 28.7 6.2 28.4 Q3.85 26.9 3.15 24.2 L2.95 22.5 3.0 21.8 Q3.4 19.8 4.95 17.95 L6.45 16.5 Q6.55 18.15 7.15 18.95 7.5 19.3 7.8 19.35 L12.9 19.3 Q14.2 19.95 15.0 21.2 L15.5 22.3 Q15.6 20.75 14.4 19.3 L13.2 18.15 Q13.8 16.15 15.75 15.0 16.7 14.45 17.55 14.25 18.1 13.2 19.35 12.5 19.95 12.15 20.5 11.95 L18.65 7.55 23.85 10.6 27.65 2.8 M3.05 31.35 L3.7 31.3 5.25 31.3 Q7.85 31.7 9.65 33.8 L9.4 34.35 8.5 35.25 8.6 36.3 Q8.9 37.35 10.15 37.45 11.6 37.6 11.9 38.6 L12.3 39.95 Q12.35 40.3 13.15 40.95 13.9 41.65 15.6 41.8 L15.7 40.85 Q15.55 39.7 14.2 38.6 15.95 39.3 17.7 40.5 19.4 41.7 19.65 43.35 19.85 45.05 18.75 46.1 L19.25 46.6 20.85 47.65 Q23.6 49.1 27.6 48.85 L27.6 49.9 Q26.75 50.85 26.65 52.75 26.35 51.15 25.7 50.6 L22.4 50.15 Q20.1 49.45 18.45 48.3 L16.25 49.15 17.7 47.7 16.7 46.7 Q14.75 46.35 12.35 46.7 14.95 46.15 17.15 45.3 18.05 44.75 18.1 43.8 L17.65 43.5 Q16.8 43.1 15.15 42.65 L13.0 41.95 12.0 41.45 11.3 41.45 10.45 41.4 9.85 41.3 9.6 41.25 9.0 41.15 8.4 41.1 7.85 41.2 7.4 41.45 7.1 42.15 7.3 42.75 7.8 43.15 8.4 43.15 8.75 42.8 8.8 42.25 8.65 41.8 Q9.25 42.2 9.15 42.8 L9.0 43.2 8.65 43.55 8.15 43.75 Q7.15 43.95 6.7 43.05 6.3 42.35 6.7 41.55 7.0 40.85 7.75 40.55 8.5 40.25 9.55 40.55 L11.35 40.7 11.25 40.5 10.55 39.15 Q10.3 38.7 9.5 38.55 L8.4 38.15 Q7.8 37.7 7.55 36.85 L6.35 38.2 2.85 38.55 Q3.6 35.6 6.25 35.35 5.75 34.85 5.0 35.1 L3.85 33.5 Q3.1 32.1 3.05 31.35 M27.6 19.25 L27.75 21.2 27.9 19.25 Q29.7 17.55 29.7 14.25 30.0 17.1 30.95 19.25 32.25 17.15 32.75 14.35 L33.0 15.4 Q33.95 13.2 34.05 10.95 L30.85 12.8 27.85 6.4 27.75 5.8 27.65 6.4 24.65 12.8 21.45 10.95 Q21.55 13.2 22.5 15.4 L22.75 14.35 Q23.25 17.15 24.55 19.25 25.5 17.1 25.8 14.25 25.8 17.55 27.6 19.25 M20.2 40.0 Q20.9 40.85 21.5 42.6 22.05 44.4 23.1 44.9 L26.35 45.1 Q24.5 44.3 23.2 42.45 21.9 40.55 20.2 40.0 M27.6 43.8 L27.75 44.6 27.9 43.8 Q30.4 43.45 31.4 41.7 32.4 39.95 32.1 37.35 36.1 37.1 36.55 35.4 37.25 35.1 37.65 33.9 35.5 34.35 34.5 33.4 34.85 34.95 35.75 35.2 35.1 36.9 27.9 36.65 L27.75 34.7 27.6 36.65 Q20.4 36.9 19.75 35.2 20.65 34.95 21.0 33.4 20.0 34.35 17.85 33.9 18.25 35.1 18.95 35.4 19.4 37.1 23.4 37.35 23.1 39.95 24.1 41.7 25.1 43.45 27.6 43.8 M4.25 21.7 Q3.0 25.7 6.85 27.5 9.3 27.9 11.7 27.5 13.85 26.65 13.8 25.15 L12.7 24.2 6.55 24.2 Q4.65 23.5 4.25 21.7 M17.75 26.05 Q17.25 27.05 17.75 27.8 21.55 27.2 21.3 31.0 22.1 31.3 23.05 31.0 23.2 25.3 17.75 26.05 M37.75 26.05 Q32.3 25.3 32.45 31.0 33.4 31.3 34.2 31.0 33.95 27.2 37.75 27.8 38.25 27.05 37.75 26.05 M49.1 19.5 Q47.35 20.7 43.15 20.0 41.55 20.95 41.35 22.3 41.7 23.4 43.05 23.35 47.6 23.25 47.8 22.3 L42.65 22.3 Q42.6 21.8 43.3 21.5 L47.65 21.5 Q49.0 20.95 49.1 19.5 M52.45 31.35 Q52.4 32.1 51.65 33.5 L50.5 35.1 Q49.75 34.85 49.25 35.35 51.9 35.6 52.65 38.55 L49.15 38.2 47.95 36.85 Q47.7 37.7 47.1 38.15 L46.0 38.55 Q45.2 38.7 44.95 39.15 L44.25 40.5 44.15 40.7 45.95 40.55 Q47.0 40.25 47.75 40.55 48.5 40.85 48.8 41.55 49.2 42.35 48.8 43.05 48.35 43.95 47.35 43.75 L46.85 43.55 46.5 43.2 46.35 42.8 Q46.25 42.2 46.85 41.8 L46.7 42.25 46.75 42.8 47.1 43.15 47.7 43.15 48.2 42.75 48.4 42.15 48.1 41.45 47.65 41.2 47.1 41.1 46.5 41.15 45.9 41.25 45.65 41.3 45.05 41.4 44.2 41.45 43.5 41.45 42.5 41.95 40.35 42.65 37.85 43.5 Q37.45 43.7 37.4 43.8 37.45 44.75 38.35 45.3 L43.15 46.7 Q40.75 46.35 38.8 46.7 L37.8 47.7 39.25 49.15 37.05 48.3 Q35.4 49.45 33.1 50.15 L29.8 50.6 Q29.15 51.15 28.85 52.75 28.75 50.85 27.9 49.9 L27.9 48.85 Q31.9 49.1 34.65 47.65 L36.25 46.6 36.75 46.1 Q35.65 45.05 35.85 43.35 36.1 41.7 37.8 40.5 39.55 39.3 41.3 38.6 39.95 39.7 39.8 40.85 39.7 41.45 39.9 41.8 41.6 41.65 42.35 40.95 L43.2 39.95 43.6 38.6 Q43.9 37.6 45.35 37.45 46.6 37.35 46.9 36.3 L47.0 35.25 Q46.4 35.0 46.1 34.35 L45.85 33.8 Q47.65 31.7 50.25 31.3 L51.8 31.3 52.45 31.35 M51.25 21.7 Q50.85 23.5 48.95 24.2 L42.8 24.2 41.7 25.15 Q41.65 26.65 43.8 27.5 46.2 27.9 48.65 27.5 52.5 25.7 51.25 21.7 M35.3 40.0 Q33.6 40.55 32.3 42.45 31.0 44.3 29.15 45.1 L32.4 44.9 Q33.45 44.4 34.0 42.6 34.6 40.85 35.3 40.0 M26.9 37.45 L28.2 37.45 Q27.6 39.25 27.55 41.55 27.55 39.15 26.9 37.45" fill="#000000" fill-rule="evenodd" stroke="none"/>
      <path d="M27.65 2.8 L23.85 10.6 18.65 7.55 20.5 11.95 Q19.95 12.15 19.35 12.5 18.1 13.2 17.55 14.25 16.7 14.45 15.75 15.0 13.8 16.15 13.2 18.15 L14.4 19.3 Q15.6 20.75 15.5 22.3 L15.0 21.2 Q14.2 19.95 12.9 19.3 L7.8 19.35 Q7.5 19.3 7.15 18.95 6.55 18.15 6.45 16.5 L4.95 17.95 Q3.4 19.8 3.0 21.8 L2.95 22.5 3.15 24.2 Q3.85 26.9 6.2 28.4 L11.7 28.7 13.75 27.55 13.5 28.25 11.75 30.0 11.7 30.7 11.8 32.45 Q12.25 35.3 14.3 37.1 L15.0 37.6 Q15.95 38.25 18.5 39.35 19.8 40.45 21.7 45.55 24.35 47.25 27.6 46.95 L27.75 46.15 27.9 46.95 Q31.15 47.25 33.8 45.55 35.7 40.45 37.0 39.35 39.55 38.25 40.5 37.6 L41.2 37.1 Q43.25 35.3 43.7 32.45 L43.8 30.7 43.75 30.0 Q42.55 29.15 42.0 28.25 L41.75 27.55 43.8 28.7 49.3 28.4 Q51.65 26.9 52.35 24.2 L52.55 22.5 52.5 21.8 Q52.1 19.8 50.55 17.95 L49.05 16.5 Q48.95 18.15 48.35 18.95 L47.7 19.35 42.6 19.3 Q41.3 19.95 40.5 21.2 40.1 21.8 40.0 22.3 39.9 20.75 41.1 19.3 L42.3 18.15 Q41.7 16.15 39.75 15.0 38.8 14.45 37.95 14.25 37.4 13.2 36.15 12.5 L35.0 11.95 36.85 7.55 31.65 10.6 27.85 2.8 27.75 3.3 27.65 2.8 M6.4 19.5 Q8.15 20.7 12.35 20.0 13.95 20.95 14.15 22.3 13.8 23.4 12.45 23.35 7.9 23.25 7.7 22.3 L12.85 22.3 Q12.9 21.8 12.2 21.5 L7.85 21.5 Q6.5 20.95 6.4 19.5 M3.05 31.35 L3.7 31.3 5.25 31.3 Q7.85 31.7 9.65 33.8 L9.4 34.35 8.5 35.25 8.6 36.3 Q8.9 37.35 10.15 37.45 11.6 37.6 11.9 38.6 L12.3 39.95 Q12.35 40.3 13.15 40.95 13.9 41.65 15.6 41.8 L15.7 40.85 Q15.55 39.7 14.2 38.6 15.95 39.3 17.7 40.5 19.4 41.7 19.65 43.35 19.85 45.05 18.75 46.1 L19.25 46.6 20.85 47.65 Q23.6 49.1 27.6 48.85 L27.6 49.9 Q26.75 50.85 26.65 52.75 26.35 51.15 25.7 50.6 L22.4 50.15 Q20.1 49.45 18.45 48.3 L16.25 49.15 17.7 47.7 16.7 46.7 Q14.75 46.35 12.35 46.7 14.95 46.15 17.15 45.3 18.05 44.75 18.1 43.8 L17.65 43.5 Q16.8 43.1 15.15 42.65 L13.0 41.95 12.0 41.45 11.3 41.45 10.45 41.4 9.85 41.3 9.6 41.25 9.0 41.15 8.4 41.1 7.85 41.2 7.4 41.45 7.1 42.15 7.3 42.75 7.8 43.15 8.4 43.15 8.75 42.8 8.8 42.25 8.65 41.8 Q9.25 42.2 9.15 42.8 L9.0 43.2 8.65 43.55 8.15 43.75 Q7.15 43.95 6.7 43.05 6.3 42.35 6.7 41.55 7.0 40.85 7.75 40.55 8.5 40.25 9.55 40.55 L11.35 40.7 11.25 40.5 10.55 39.15 Q10.3 38.7 9.5 38.55 L8.4 38.15 Q7.8 37.7 7.55 36.85 L6.35 38.2 2.85 38.55 Q3.6 35.6 6.25 35.35 5.75 34.85 5.0 35.1 L3.85 33.5 Q3.1 32.1 3.05 31.35 M17.75 26.05 Q23.2 25.3 23.05 31.0 22.1 31.3 21.3 31.0 21.55 27.2 17.75 27.8 17.25 27.05 17.75 26.05 M4.25 21.7 Q4.65 23.5 6.55 24.2 L12.7 24.2 13.8 25.15 Q13.85 26.65 11.7 27.5 9.3 27.9 6.85 27.5 3.0 25.7 4.25 21.7 M27.6 43.8 Q25.1 43.45 24.1 41.7 23.1 39.95 23.4 37.35 19.4 37.1 18.95 35.4 18.25 35.1 17.85 33.9 20.0 34.35 21.0 33.4 20.65 34.95 19.75 35.2 20.4 36.9 27.6 36.65 L27.75 34.7 27.9 36.65 Q35.1 36.9 35.75 35.2 34.85 34.95 34.5 33.4 35.5 34.35 37.65 33.9 37.25 35.1 36.55 35.4 36.1 37.1 32.1 37.35 32.4 39.95 31.4 41.7 30.4 43.45 27.9 43.8 L27.75 44.6 27.6 43.8 M20.2 40.0 Q21.9 40.55 23.2 42.45 24.5 44.3 26.35 45.1 L23.1 44.9 Q22.05 44.4 21.5 42.6 20.9 40.85 20.2 40.0 M27.6 19.25 Q25.8 17.55 25.8 14.25 25.5 17.1 24.55 19.25 23.25 17.15 22.75 14.35 L22.5 15.4 Q21.55 13.2 21.45 10.95 L24.65 12.8 27.65 6.4 27.75 5.8 27.85 6.4 30.85 12.8 34.05 10.95 Q33.95 13.2 33.0 15.4 L32.75 14.35 Q32.25 17.15 30.95 19.25 30.0 17.1 29.7 14.25 29.7 17.55 27.9 19.25 L27.75 21.2 27.6 19.25 M37.75 26.05 Q32.3 25.3 32.45 31.0 33.4 31.3 34.2 31.0 33.95 27.2 37.75 27.8 38.25 27.05 37.75 26.05 M49.1 19.5 Q47.35 20.7 43.15 20.0 41.55 20.95 41.35 22.3 41.7 23.4 43.05 23.35 47.6 23.25 47.8 22.3 L42.65 22.3 Q42.6 21.8 43.3 21.5 L47.65 21.5 Q49.0 20.95 49.1 19.5 M52.45 31.35 L51.8 31.3 50.25 31.3 Q47.65 31.7 45.85 33.8 L46.1 34.35 Q46.4 35.0 47.0 35.25 L46.9 36.3 Q46.6 37.35 45.35 37.45 43.9 37.6 43.6 38.6 L43.2 39.95 42.35 40.95 Q41.6 41.65 39.9 41.8 39.7 41.45 39.8 40.85 39.95 39.7 41.3 38.6 39.55 39.3 37.8 40.5 36.1 41.7 35.85 43.35 35.65 45.05 36.75 46.1 L36.25 46.6 34.65 47.65 Q31.9 49.1 27.9 48.85 L27.9 49.9 Q28.75 50.85 28.85 52.75 29.15 51.15 29.8 50.6 L33.1 50.15 Q35.4 49.45 37.05 48.3 L39.25 49.15 37.8 47.7 38.8 46.7 Q40.75 46.35 43.15 46.7 L38.35 45.3 Q37.45 44.75 37.4 43.8 37.45 43.7 37.85 43.5 L40.35 42.65 42.5 41.95 43.5 41.45 44.2 41.45 45.05 41.4 45.65 41.3 45.9 41.25 46.5 41.15 47.1 41.1 47.65 41.2 48.1 41.45 48.4 42.15 48.2 42.75 47.7 43.15 47.1 43.15 46.75 42.8 46.7 42.25 46.85 41.8 Q46.25 42.2 46.35 42.8 L46.5 43.2 46.85 43.55 47.35 43.75 Q48.35 43.95 48.8 43.05 49.2 42.35 48.8 41.55 48.5 40.85 47.75 40.55 47.0 40.25 45.95 40.55 L44.15 40.7 44.25 40.5 44.95 39.15 Q45.2 38.7 46.0 38.55 L47.1 38.15 Q47.7 37.7 47.95 36.85 L49.15 38.2 52.65 38.55 Q51.9 35.6 49.25 35.35 49.75 34.85 50.5 35.1 L51.65 33.5 Q52.4 32.1 52.45 31.35 M51.25 21.7 Q50.85 23.5 48.95 24.2 L42.8 24.2 41.7 25.15 Q41.65 26.65 43.8 27.5 46.2 27.9 48.65 27.5 52.5 25.7 51.25 21.7 M35.3 40.0 Q33.6 40.55 32.3 42.45 31.0 44.3 29.15 45.1 L32.4 44.9 Q33.45 44.4 34.0 42.6 34.6 40.85 35.3 40.0 M26.9 37.45 L28.2 37.45 Q27.6 39.25 27.55 41.55 27.55 39.15 26.9 37.45 Z" fill="none" stroke="#000000" stroke-linecap="round" stroke-linejoin="round" stroke-opacity="0.2" stroke-width="1.6"/>
      <path d="M6.4 19.5 Q6.5 20.95 7.85 21.5 L12.2 21.5 Q12.9 21.8 12.85 22.3 L7.7 22.3 Q7.9 23.25 12.45 23.35 13.8 23.4 14.15 22.3 13.95 20.95 12.35 20.0 8.15 20.7 6.4 19.5 M27.65 2.8 L27.75 3.3 27.85 2.8 31.65 10.6 36.85 7.55 35.0 11.95 36.15 12.5 Q37.4 13.2 37.95 14.25 38.8 14.45 39.75 15.0 41.7 16.15 42.3 18.15 L41.1 19.3 Q39.9 20.75 40.0 22.3 40.1 21.8 40.5 21.2 41.3 19.95 42.6 19.3 L47.7 19.35 48.35 18.95 Q48.95 18.15 49.05 16.5 L50.55 17.95 Q52.1 19.8 52.5 21.8 L52.55 22.5 52.35 24.2 Q51.65 26.9 49.3 28.4 L43.8 28.7 41.75 27.55 42.0 28.25 Q42.55 29.15 43.75 30.0 L43.8 30.7 43.7 32.45 Q43.25 35.3 41.2 37.1 L40.5 37.6 Q39.55 38.25 37.0 39.35 35.7 40.45 33.8 45.55 31.15 47.25 27.9 46.95 L27.75 46.15 27.6 46.95 Q24.35 47.25 21.7 45.55 19.8 40.45 18.5 39.35 15.95 38.25 15.0 37.6 L14.3 37.1 Q12.25 35.3 11.8 32.45 L11.7 30.7 11.75 30.0 13.5 28.25 13.75 27.55 11.7 28.7 6.2 28.4 Q3.85 26.9 3.15 24.2 L2.95 22.5 3.0 21.8 Q3.4 19.8 4.95 17.95 L6.45 16.5 Q6.55 18.15 7.15 18.95 7.5 19.3 7.8 19.35 L12.9 19.3 Q14.2 19.95 15.0 21.2 L15.5 22.3 Q15.6 20.75 14.4 19.3 L13.2 18.15 Q13.8 16.15 15.75 15.0 16.7 14.45 17.55 14.25 18.1 13.2 19.35 12.5 19.95 12.15 20.5 11.95 L18.65 7.55 23.85 10.6 27.65 2.8 M3.05 31.35 L3.7 31.3 5.25 31.3 Q7.85 31.7 9.65 33.8 L9.4 34.35 8.5 35.25 8.6 36.3 Q8.9 37.35 10.15 37.45 11.6 37.6 11.9 38.6 L12.3 39.95 Q12.35 40.3 13.15 40.95 13.9 41.65 15.6 41.8 L15.7 40.85 Q15.55 39.7 14.2 38.6 15.95 39.3 17.7 40.5 19.4 41.7 19.65 43.35 19.85 45.05 18.75 46.1 L19.25 46.6 20.85 47.65 Q23.6 49.1 27.6 48.85 L27.6 49.9 Q26.75 50.85 26.65 52.75 26.35 51.15 25.7 50.6 L22.4 50.15 Q20.1 49.45 18.45 48.3 L16.25 49.15 17.7 47.7 16.7 46.7 Q14.75 46.35 12.35 46.7 14.95 46.15 17.15 45.3 18.05 44.75 18.1 43.8 L17.65 43.5 Q16.8 43.1 15.15 42.65 L13.0 41.95 12.0 41.45 11.3 41.45 10.45 41.4 9.85 41.3 9.6 41.25 9.0 41.15 8.4 41.1 7.85 41.2 7.4 41.45 7.1 42.15 7.3 42.75 7.8 43.15 8.4 43.15 8.75 42.8 8.8 42.25 8.65 41.8 Q9.25 42.2 9.15 42.8 L9.0 43.2 8.65 43.55 8.15 43.75 Q7.15 43.95 6.7 43.05 6.3 42.35 6.7 41.55 7.0 40.85 7.75 40.55 8.5 40.25 9.55 40.55 L11.35 40.7 11.25 40.5 10.55 39.15 Q10.3 38.7 9.5 38.55 L8.4 38.15 Q7.8 37.7 7.55 36.85 L6.35 38.2 2.85 38.55 Q3.6 35.6 6.25 35.35 5.75 34.85 5.0 35.1 L3.85 33.5 Q3.1 32.1 3.05 31.35 M27.6 19.25 L27.75 21.2 27.9 19.25 Q29.7 17.55 29.7 14.25 30.0 17.1 30.95 19.25 32.25 17.15 32.75 14.35 L33.0 15.4 Q33.95 13.2 34.05 10.95 L30.85 12.8 27.85 6.4 27.75 5.8 27.65 6.4 24.65 12.8 21.45 10.95 Q21.55 13.2 22.5 15.4 L22.75 14.35 Q23.25 17.15 24.55 19.25 25.5 17.1 25.8 14.25 25.8 17.55 27.6 19.25 M20.2 40.0 Q20.9 40.85 21.5 42.6 22.05 44.4 23.1 44.9 L26.35 45.1 Q24.5 44.3 23.2 42.45 21.9 40.55 20.2 40.0 M27.6 43.8 L27.75 44.6 27.9 43.8 Q30.4 43.45 31.4 41.7 32.4 39.95 32.1 37.35 36.1 37.1 36.55 35.4 37.25 35.1 37.65 33.9 35.5 34.35 34.5 33.4 34.85 34.95 35.75 35.2 35.1 36.9 27.9 36.65 L27.75 34.7 27.6 36.65 Q20.4 36.9 19.75 35.2 20.65 34.95 21.0 33.4 20.0 34.35 17.85 33.9 18.25 35.1 18.95 35.4 19.4 37.1 23.4 37.35 23.1 39.95 24.1 41.7 25.1 43.45 27.6 43.8 M4.25 21.7 Q3.0 25.7 6.85 27.5 9.3 27.9 11.7 27.5 13.85 26.65 13.8 25.15 L12.7 24.2 6.55 24.2 Q4.65 23.5 4.25 21.7 M17.75 26.05 Q17.25 27.05 17.75 27.8 21.55 27.2 21.3 31.0 22.1 31.3 23.05 31.0 23.2 25.3 17.75 26.05 M37.75 26.05 Q32.3 25.3 32.45 31.0 33.4 31.3 34.2 31.0 33.95 27.2 37.75 27.8 38.25 27.05 37.75 26.05 M49.1 19.5 Q47.35 20.7 43.15 20.0 41.55 20.95 41.35 22.3 41.7 23.4 43.05 23.35 47.6 23.25 47.8 22.3 L42.65 22.3 Q42.6 21.8 43.3 21.5 L47.65 21.5 Q49.0 20.95 49.1 19.5 M52.45 31.35 Q52.4 32.1 51.65 33.5 L50.5 35.1 Q49.75 34.85 49.25 35.35 51.9 35.6 52.65 38.55 L49.15 38.2 47.95 36.85 Q47.7 37.7 47.1 38.15 L46.0 38.55 Q45.2 38.7 44.95 39.15 L44.25 40.5 44.15 40.7 45.95 40.55 Q47.0 40.25 47.75 40.55 48.5 40.85 48.8 41.55 49.2 42.35 48.8 43.05 48.35 43.95 47.35 43.75 L46.85 43.55 46.5 43.2 46.35 42.8 Q46.25 42.2 46.85 41.8 L46.7 42.25 46.75 42.8 47.1 43.15 47.7 43.15 48.2 42.75 48.4 42.15 48.1 41.45 47.65 41.2 47.1 41.1 46.5 41.15 45.9 41.25 45.65 41.3 45.05 41.4 44.2 41.45 43.5 41.45 42.5 41.95 40.35 42.65 37.85 43.5 Q37.45 43.7 37.4 43.8 37.45 44.75 38.35 45.3 L43.15 46.7 Q40.75 46.35 38.8 46.7 L37.8 47.7 39.25 49.15 37.05 48.3 Q35.4 49.45 33.1 50.15 L29.8 50.6 Q29.15 51.15 28.85 52.75 28.75 50.85 27.9 49.9 L27.9 48.85 Q31.9 49.1 34.65 47.65 L36.25 46.6 36.75 46.1 Q35.65 45.05 35.85 43.35 36.1 41.7 37.8 40.5 39.55 39.3 41.3 38.6 39.95 39.7 39.8 40.85 39.7 41.45 39.9 41.8 41.6 41.65 42.35 40.95 L43.2 39.95 43.6 38.6 Q43.9 37.6 45.35 37.45 46.6 37.35 46.9 36.3 L47.0 35.25 Q46.4 35.0 46.1 34.35 L45.85 33.8 Q47.65 31.7 50.25 31.3 L51.8 31.3 52.45 31.35 M51.25 21.7 Q50.85 23.5 48.95 24.2 L42.8 24.2 41.7 25.15 Q41.65 26.65 43.8 27.5 46.2 27.9 48.65 27.5 52.5 25.7 51.25 21.7 M35.3 40.0 Q33.6 40.55 32.3 42.45 31.0 44.3 29.15 45.1 L32.4 44.9 Q33.45 44.4 34.0 42.6 34.6 40.85 35.3 40.0 M26.9 37.45 L28.2 37.45 Q27.6 39.25 27.55 41.55 27.55 39.15 26.9 37.45" fill="#000000" fill-rule="evenodd" stroke="none"/>
    </g>
  </defs>
</svg>
