<?xml version="1.0" encoding="UTF-8" standalone="no"?>
<svg xmlns:ffdec="https://www.free-decompiler.com/flash" xmlns:xlink="http://www.w3.org/1999/xlink" ffdec:objectType="frame" height="56.0px" width="56.0px" xmlns="http://www.w3.org/2000/svg">
  <g transform="matrix(1.0, 0.0, 0.0, 1.0, 0.0, 0.0)">
    <use ffdec:characterId="2" height="56.0" id="back" transform="matrix(1.0, 0.0, 0.0, 1.0, 0.0, 0.0)" width="56.0" xlink:href="#sprite0"/>
    <use ffdec:characterId="3" height="37.75" transform="matrix(1.0, 0.0, 0.0, 1.0, 4.95, 8.7)" width="46.2" xlink:href="#shape1"/>
  </g>
  <defs>
    <g id="sprite0" transform="matrix(1.0, 0.0, 0.0, 1.0, 0.0, 0.0)">
      <use ffdec:characterId="1" height="56.0" transform="matrix(1.0, 0.0, 0.0, 1.0, 0.0, 0.0)" width="56.0" xlink:href="#shape0"/>
    </g>
    <g id="shape0" transform="matrix(1.0, 0.0, 0.0, 1.0, 0.0, 0.0)">
      <path d="M56.0 56.0 L0.0 56.0 0.0 0.0 56.0 0.0 56.0 56.0" fill="#010101" fill-opacity="0.0" fill-rule="evenodd" stroke="none"/>
    </g>
    <g id="shape1" transform="matrix(1.0, 0.0, 0.0, 1.0, -4.95, -8.7)">
      <path d="M28.25 9.5 Q33.15 9.5 37.95 10.65 43.75 10.2 48.9 11.75 51.35 17.1 49.7 27.0 L34.15 27.0 34.15 25.65 21.95 25.65 21.95 27.0 6.4 27.0 Q4.75 17.1 7.2 11.75 12.35 10.2 18.15 10.65 23.15 9.5 28.25 9.5 M17.3 14.95 Q17.5 13.4 17.85 12.0 11.7 11.55 8.3 12.65 7.55 12.9 7.05 18.55 6.55 24.15 8.6 25.05 10.6 25.9 14.95 25.95 16.2 25.35 17.0 24.25 L16.95 20.55 Q17.0 17.55 17.3 14.95 M20.5 12.3 L20.3 12.4 Q17.25 16.75 21.35 20.85 L27.85 21.65 28.1 21.65 28.25 21.65 34.75 20.85 Q38.85 16.75 35.8 12.4 L35.6 12.3 Q32.55 10.75 28.25 10.7 L28.1 10.7 28.0 10.7 27.85 10.7 Q23.55 10.75 20.5 12.3 M25.8 37.15 L26.75 32.9 26.35 32.6 Q25.6 31.85 25.6 30.75 25.6 29.7 26.35 28.9 27.0 28.3 27.85 28.2 L27.85 28.15 27.9 28.15 28.05 28.15 28.2 28.15 28.25 28.15 28.25 28.2 Q29.1 28.3 29.75 28.9 30.5 29.7 30.5 30.75 30.5 31.85 29.75 32.6 L29.35 32.9 30.3 37.15 25.8 37.15 M38.8 14.95 L39.15 20.55 39.1 24.25 Q39.9 25.35 41.15 25.95 45.5 25.9 47.5 25.05 49.55 24.15 49.05 18.55 48.55 12.9 47.8 12.65 44.4 11.55 38.25 12.0 L38.8 14.95 M46.95 43.35 Q48.4 38.45 46.2 30.35 43.65 30.15 39.5 30.5 L39.5 31.8 38.95 37.95 38.05 43.35 Q43.15 43.6 46.95 43.35 M19.55 44.85 L19.1 45.45 Q13.1 45.9 7.2 45.45 6.7 36.9 7.2 29.15 L6.65 28.15 21.95 28.15 21.95 40.05 22.25 40.1 33.85 40.1 34.15 40.05 34.15 28.15 49.45 28.15 48.9 29.15 Q49.4 36.9 48.9 45.45 43.0 45.9 37.0 45.45 L36.55 44.85 28.25 45.1 27.85 45.1 19.55 44.85 M9.15 43.35 Q12.95 43.6 18.05 43.35 17.55 41.1 17.15 37.95 L16.6 31.8 16.6 30.5 Q12.45 30.15 9.9 30.35 7.7 38.45 9.15 43.35" fill="#000000" fill-rule="evenodd" stroke="none"/>
      <path d="M20.5 12.3 Q23.55 10.75 27.85 10.7 L28.0 10.7 28.1 10.7 28.25 10.7 Q32.55 10.75 35.6 12.3 L35.8 12.4 Q38.85 16.75 34.75 20.85 L28.25 21.65 28.1 21.65 27.85 21.65 21.35 20.85 Q17.25 16.75 20.3 12.4 L20.5 12.3 M17.3 14.95 Q17.0 17.55 16.95 20.55 L17.0 24.25 Q16.2 25.35 14.95 25.95 10.6 25.9 8.6 25.05 6.55 24.15 7.05 18.55 7.55 12.9 8.3 12.65 11.7 11.55 17.85 12.0 17.5 13.4 17.3 14.95 M28.25 9.5 Q23.15 9.5 18.15 10.65 12.35 10.2 7.2 11.75 4.75 17.1 6.4 27.0 L21.95 27.0 21.95 25.65 34.15 25.65 34.15 27.0 49.7 27.0 Q51.35 17.1 48.9 11.75 43.75 10.2 37.95 10.65 33.15 9.5 28.25 9.5 M25.8 37.15 L26.75 32.9 26.35 32.6 Q25.6 31.85 25.6 30.75 25.6 29.7 26.35 28.9 27.0 28.3 27.85 28.2 L27.85 28.15 27.9 28.15 28.05 28.15 28.2 28.15 28.25 28.15 28.25 28.2 Q29.1 28.3 29.75 28.9 30.5 29.7 30.5 30.75 30.5 31.85 29.75 32.6 L29.35 32.9 30.3 37.15 25.8 37.15 M38.8 14.95 L39.15 20.55 39.1 24.25 Q39.9 25.35 41.15 25.95 45.5 25.9 47.5 25.05 49.55 24.15 49.05 18.55 48.55 12.9 47.8 12.65 44.4 11.55 38.25 12.0 L38.8 14.95 M46.95 43.35 Q48.4 38.45 46.2 30.35 43.65 30.15 39.5 30.5 L39.5 31.8 38.95 37.95 38.05 43.35 Q43.15 43.6 46.95 43.35 M19.55 44.85 L19.1 45.45 Q13.1 45.9 7.2 45.45 6.7 36.9 7.2 29.15 L6.65 28.15 21.95 28.15 21.95 40.05 22.25 40.1 33.85 40.1 34.15 40.05 34.15 28.15 49.45 28.15 48.9 29.15 Q49.4 36.9 48.9 45.45 43.0 45.9 37.0 45.45 L36.55 44.85 28.25 45.1 27.85 45.1 19.55 44.85 M9.15 43.35 Q7.7 38.45 9.9 30.35 12.45 30.15 16.6 30.5 L16.6 31.8 17.15 37.95 Q17.55 41.1 18.05 43.35 12.95 43.6 9.15 43.35 Z" fill="none" stroke="#000000" stroke-linecap="round" stroke-linejoin="round" stroke-opacity="0.2" stroke-width="1.6"/>
      <path d="M28.25 9.5 Q33.15 9.5 37.95 10.65 43.75 10.2 48.9 11.75 51.35 17.1 49.7 27.0 L34.15 27.0 34.15 25.65 21.95 25.65 21.95 27.0 6.4 27.0 Q4.75 17.1 7.2 11.75 12.35 10.2 18.15 10.65 23.15 9.5 28.25 9.5 M17.3 14.95 Q17.5 13.4 17.85 12.0 11.7 11.55 8.3 12.65 7.55 12.9 7.05 18.55 6.55 24.15 8.6 25.05 10.6 25.9 14.95 25.95 16.2 25.35 17.0 24.25 L16.95 20.55 Q17.0 17.55 17.3 14.95 M20.5 12.3 L20.3 12.4 Q17.25 16.75 21.35 20.85 L27.85 21.65 28.1 21.65 28.25 21.65 34.75 20.85 Q38.85 16.75 35.8 12.4 L35.6 12.3 Q32.55 10.75 28.25 10.7 L28.1 10.7 28.0 10.7 27.85 10.7 Q23.55 10.75 20.5 12.3 M25.8 37.15 L26.75 32.9 26.35 32.6 Q25.6 31.85 25.6 30.75 25.6 29.7 26.35 28.9 27.0 28.3 27.85 28.2 L27.85 28.15 27.9 28.15 28.05 28.15 28.2 28.15 28.25 28.15 28.25 28.2 Q29.1 28.3 29.75 28.9 30.5 29.7 30.5 30.75 30.5 31.85 29.75 32.6 L29.35 32.9 30.3 37.15 25.8 37.15 M38.8 14.95 L39.15 20.55 39.1 24.25 Q39.9 25.35 41.15 25.95 45.5 25.9 47.5 25.05 49.55 24.15 49.05 18.55 48.55 12.9 47.8 12.65 44.4 11.55 38.25 12.0 L38.8 14.95 M46.95 43.35 Q48.4 38.45 46.2 30.35 43.65 30.15 39.5 30.5 L39.5 31.8 38.95 37.95 38.05 43.35 Q43.15 43.6 46.95 43.35 M19.55 44.85 L19.1 45.45 Q13.1 45.9 7.2 45.45 6.7 36.9 7.2 29.15 L6.65 28.15 21.95 28.15 21.95 40.05 22.25 40.1 33.85 40.1 34.15 40.05 34.15 28.15 49.45 28.15 48.9 29.15 Q49.4 36.9 48.9 45.45 43.0 45.9 37.0 45.45 L36.55 44.85 28.25 45.1 27.85 45.1 19.55 44.85 M9.15 43.35 Q12.95 43.6 18.05 43.35 17.55 41.1 17.15 37.95 L16.6 31.8 16.6 30.5 Q12.45 30.15 9.9 30.35 7.7 38.45 9.15 43.35" fill="#000000" fill-rule="evenodd" stroke="none"/>
    </g>
  </defs>
</svg>
