<?xml version="1.0" encoding="UTF-8" standalone="no"?>
<svg xmlns:ffdec="https://www.free-decompiler.com/flash" xmlns:xlink="http://www.w3.org/1999/xlink" ffdec:objectType="frame" height="56.0px" width="56.0px" xmlns="http://www.w3.org/2000/svg">
  <g transform="matrix(1.0, 0.0, 0.0, 1.0, 0.0, 0.0)">
    <use ffdec:characterId="2" height="56.0" id="back" transform="matrix(1.0, 0.0, 0.0, 1.0, 0.0, 0.0)" width="56.0" xlink:href="#sprite0"/>
    <use ffdec:characterId="3" height="45.8" transform="matrix(1.0, 0.0, 0.0, 1.0, 7.9, 4.1)" width="41.15" xlink:href="#shape1"/>
  </g>
  <defs>
    <g id="sprite0" transform="matrix(1.0, 0.0, 0.0, 1.0, 0.0, 0.0)">
      <use ffdec:characterId="1" height="56.0" transform="matrix(1.0, 0.0, 0.0, 1.0, 0.0, 0.0)" width="56.0" xlink:href="#shape0"/>
    </g>
    <g id="shape0" transform="matrix(1.0, 0.0, 0.0, 1.0, 0.0, 0.0)">
      <path d="M56.0 56.0 L0.0 56.0 0.0 0.0 56.0 0.0 56.0 56.0" fill="#010101" fill-opacity="0.0" fill-rule="evenodd" stroke="none"/>
    </g>
    <g id="shape1" transform="matrix(1.0, 0.0, 0.0, 1.0, -7.9, -4.1)">
      <path d="M28.3 12.65 L35.1 5.85 Q36.95 4.0 38.75 5.8 L47.35 14.4 Q49.2 16.25 47.35 18.1 L40.55 24.9 Q38.7 26.75 36.85 24.9 L33.65 21.7 23.75 31.65 28.25 36.15 26.0 40.25 23.55 37.8 22.9 38.4 24.75 40.25 22.1 42.85 20.3 41.05 18.9 42.4 22.0 45.5 16.35 49.1 8.7 41.4 21.1 29.0 21.6 29.5 31.5 19.55 28.25 16.3 Q26.45 14.5 28.3 12.65 Z" fill="none" stroke="#000000" stroke-linecap="round" stroke-linejoin="round" stroke-opacity="0.2" stroke-width="1.6"/>
      <path d="M28.3 12.65 L35.1 5.85 Q36.95 4.0 38.75 5.8 L47.35 14.4 Q49.2 16.25 47.35 18.1 L40.55 24.9 Q38.7 26.75 36.85 24.9 L33.65 21.7 23.75 31.65 28.25 36.15 26.0 40.25 23.55 37.8 22.9 38.4 24.75 40.25 22.1 42.85 20.3 41.05 18.9 42.4 22.0 45.5 16.35 49.1 8.7 41.4 21.1 29.0 21.6 29.5 31.5 19.55 28.25 16.3 Q26.45 14.5 28.3 12.65 M31.95 13.4 Q30.95 14.4 32.15 15.6 L37.6 21.05 Q38.75 22.2 39.75 21.2 L43.6 17.35 Q44.65 16.3 43.5 15.15 L38.05 9.7 Q36.85 8.5 35.8 9.55 L31.95 13.4" fill="#000000" fill-rule="evenodd" stroke="none"/>
    </g>
  </defs>
</svg>
