<?xml version="1.0" encoding="UTF-8" standalone="no"?>
<svg xmlns:ffdec="https://www.free-decompiler.com/flash" xmlns:xlink="http://www.w3.org/1999/xlink" ffdec:objectType="frame" height="56.0px" width="56.0px" xmlns="http://www.w3.org/2000/svg">
  <g transform="matrix(1.0, 0.0, 0.0, 1.0, 0.0, 0.0)">
    <use ffdec:characterId="2" height="56.0" id="back" transform="matrix(1.0, 0.0, 0.0, 1.0, 0.0, 0.0)" width="56.0" xlink:href="#sprite0"/>
    <use ffdec:characterId="3" height="44.9" transform="matrix(1.0, 0.0, 0.0, 1.0, 9.4, 4.1)" width="38.15" xlink:href="#shape1"/>
  </g>
  <defs>
    <g id="sprite0" transform="matrix(1.0, 0.0, 0.0, 1.0, 0.0, 0.0)">
      <use ffdec:characterId="1" height="56.0" transform="matrix(1.0, 0.0, 0.0, 1.0, 0.0, 0.0)" width="56.0" xlink:href="#shape0"/>
    </g>
    <g id="shape0" transform="matrix(1.0, 0.0, 0.0, 1.0, 0.0, 0.0)">
      <path d="M56.0 56.0 L0.0 56.0 0.0 0.0 56.0 0.0 56.0 56.0" fill="#010101" fill-opacity="0.0" fill-rule="evenodd" stroke="none"/>
    </g>
    <g id="shape1" transform="matrix(1.0, 0.0, 0.0, 1.0, -9.4, -4.1)">
      <path d="M27.45 21.95 Q27.0 20.25 25.9 19.2 L25.95 19.2 Q24.35 17.7 22.0 17.7 19.6 17.8 17.95 19.3 16.3 20.85 16.0 24.15 15.75 27.25 17.5 28.6 L17.45 28.6 Q19.45 29.9 22.1 29.7 24.85 29.45 26.4 28.05 27.1 27.35 27.4 26.35 L27.45 21.95 M36.0 35.5 L37.4 35.2 37.35 35.4 37.3 36.15 37.2 37.15 Q37.05 38.95 37.15 40.7 L37.2 40.75 38.5 41.95 38.9 42.8 Q38.35 43.8 37.05 44.3 L36.6 44.2 35.9 44.0 32.7 43.3 32.0 43.2 29.45 42.95 28.45 42.9 28.2 42.9 25.0 43.2 24.25 43.3 20.2 44.2 19.8 44.3 18.7 43.7 17.95 42.8 Q18.3 41.7 19.75 40.7 L19.7 37.15 19.6 36.15 19.5 35.25 21.0 35.55 19.45 35.0 18.4 34.55 Q15.2 33.05 13.9 31.4 L13.55 29.35 Q13.45 28.0 13.5 26.55 L13.6 24.95 13.65 24.5 13.7 23.85 13.65 22.6 Q13.3 18.3 13.7 14.7 14.05 11.0 16.25 8.1 21.3 4.7 28.0 4.9 L28.35 4.95 28.75 4.9 Q35.45 4.7 40.5 8.1 42.7 11.0 43.05 14.7 43.45 18.3 43.15 22.1 L43.1 23.95 43.1 24.65 43.15 24.95 43.3 26.7 43.2 29.7 42.85 31.4 Q41.6 32.95 38.65 34.4 L37.45 34.9 35.75 35.55 36.0 35.5 M12.7 28.0 Q12.7 30.2 13.2 32.0 14.6 33.85 18.5 35.0 L18.75 36.0 Q17.3 35.75 15.75 34.7 13.0 32.85 11.65 29.95 10.3 27.05 10.2 24.5 10.2 22.35 11.95 23.6 L12.95 24.15 12.85 25.25 12.8 26.25 11.95 25.85 12.7 28.0 M30.3 28.1 Q31.85 29.45 34.5 29.75 37.25 29.9 39.2 28.65 40.9 27.25 40.65 24.15 40.35 20.85 38.7 19.3 37.05 17.85 34.65 17.7 32.25 17.65 30.7 19.2 29.65 20.25 29.2 21.95 L29.25 26.4 29.3 26.6 Q29.6 27.45 30.25 28.1 L30.3 28.1 M24.85 32.45 L26.65 30.05 Q24.9 31.2 22.3 31.45 19.35 31.7 17.1 30.45 L17.8 31.55 Q21.65 35.5 24.85 32.45 M31.85 32.45 Q35.0 35.5 38.85 31.55 L39.6 30.4 Q37.35 31.7 34.35 31.45 31.8 31.2 30.05 30.1 30.75 31.45 31.85 32.45 M29.05 46.45 L29.0 44.35 29.05 44.35 Q29.6 45.9 30.4 46.8 L32.4 44.6 35.1 45.05 Q32.75 49.95 26.05 47.05 L29.05 46.45 M44.05 28.4 Q44.7 27.25 45.0 25.85 L44.0 26.3 43.9 25.25 43.85 24.25 45.0 23.6 Q46.8 22.35 46.75 24.5 46.7 27.05 45.3 29.95 43.95 32.85 41.2 34.7 39.6 35.75 38.1 36.05 L38.45 34.9 Q42.2 33.8 43.55 32.0 44.0 30.3 44.05 28.4 M28.55 45.95 L25.05 46.45 25.0 44.6 28.4 44.35 28.55 45.95 M30.5 46.15 L29.65 44.4 31.65 44.5 30.5 46.15 M25.0 48.2 Q22.4 47.75 21.05 45.2 L24.25 44.65 Q24.25 45.65 25.0 48.2" fill="#000000" fill-rule="evenodd" stroke="none"/>
      <path d="M36.0 35.5 L35.75 35.55 37.45 34.9 38.65 34.4 Q41.6 32.95 42.85 31.4 L43.2 29.7 43.3 26.7 43.15 24.95 43.1 24.65 43.1 23.95 43.15 22.1 Q43.45 18.3 43.05 14.7 42.7 11.0 40.5 8.1 35.45 4.7 28.75 4.9 L28.35 4.95 28.0 4.9 Q21.3 4.7 16.25 8.1 14.05 11.0 13.7 14.7 13.3 18.3 13.65 22.6 L13.7 23.85 13.65 24.5 13.6 24.95 13.5 26.55 Q13.45 28.0 13.55 29.35 L13.9 31.4 Q15.2 33.05 18.4 34.55 L19.45 35.0 21.0 35.55 19.5 35.25 19.6 36.15 19.7 37.15 19.75 40.7 Q18.3 41.7 17.95 42.8 L18.7 43.7 19.8 44.3 20.2 44.2 24.25 43.3 25.0 43.2 28.2 42.9 28.45 42.9 29.45 42.95 32.0 43.2 32.7 43.3 35.9 44.0 36.6 44.2 37.05 44.3 Q38.35 43.8 38.9 42.8 L38.5 41.95 37.2 40.75 37.15 40.7 Q37.05 38.95 37.2 37.15 L37.3 36.15 37.35 35.4 37.4 35.2 36.0 35.5 M27.45 21.95 L27.4 26.35 Q27.1 27.35 26.4 28.05 24.85 29.45 22.1 29.7 19.45 29.9 17.45 28.6 L17.5 28.6 Q15.75 27.25 16.0 24.15 16.3 20.85 17.95 19.3 19.6 17.8 22.0 17.7 24.35 17.7 25.95 19.2 L25.9 19.2 Q27.0 20.25 27.45 21.95 M12.7 28.0 Q12.7 30.2 13.2 32.0 14.6 33.85 18.5 35.0 L18.75 36.0 Q17.3 35.75 15.75 34.7 13.0 32.85 11.65 29.95 10.3 27.05 10.2 24.5 10.2 22.35 11.95 23.6 L12.95 24.15 12.85 25.25 12.8 26.25 11.95 25.85 12.7 28.0 M24.85 32.45 Q21.65 35.5 17.8 31.55 L17.1 30.45 Q19.35 31.7 22.3 31.45 24.9 31.2 26.65 30.05 L24.85 32.45 M30.3 28.1 L30.25 28.1 Q29.6 27.45 29.3 26.6 L29.25 26.4 29.2 21.95 Q29.65 20.25 30.7 19.2 32.25 17.65 34.65 17.7 37.05 17.85 38.7 19.3 40.35 20.85 40.65 24.15 40.9 27.25 39.2 28.65 37.25 29.9 34.5 29.75 31.85 29.45 30.3 28.1 M31.85 32.45 Q35.0 35.5 38.85 31.55 L39.6 30.4 Q37.35 31.7 34.35 31.45 31.8 31.2 30.05 30.1 30.75 31.45 31.85 32.45 M44.05 28.4 Q44.0 30.3 43.55 32.0 42.2 33.8 38.45 34.9 L38.1 36.05 Q39.6 35.75 41.2 34.7 43.95 32.85 45.3 29.95 46.7 27.05 46.75 24.5 46.8 22.35 45.0 23.6 L43.85 24.25 43.9 25.25 44.0 26.3 45.0 25.85 Q44.7 27.25 44.05 28.4 M29.05 46.45 L26.05 47.05 Q32.75 49.95 35.1 45.05 L32.4 44.6 30.4 46.8 Q29.6 45.9 29.05 44.35 L29.0 44.35 29.05 46.45 M28.55 45.95 L25.05 46.45 25.0 44.6 28.4 44.35 28.55 45.95 M30.5 46.15 L29.65 44.4 31.65 44.5 30.5 46.15 M25.0 48.2 Q22.4 47.75 21.05 45.2 L24.25 44.65 Q24.25 45.65 25.0 48.2 Z" fill="none" stroke="#000000" stroke-linecap="round" stroke-linejoin="round" stroke-opacity="0.2" stroke-width="1.6"/>
      <path d="M27.45 21.95 Q27.0 20.25 25.9 19.2 L25.95 19.2 Q24.35 17.7 22.0 17.7 19.6 17.8 17.95 19.3 16.3 20.85 16.0 24.15 15.75 27.25 17.5 28.6 L17.45 28.6 Q19.45 29.9 22.1 29.7 24.85 29.45 26.4 28.05 27.1 27.35 27.4 26.35 L27.45 21.95 M36.0 35.5 L37.4 35.2 37.35 35.4 37.3 36.15 37.2 37.15 Q37.05 38.95 37.15 40.7 L37.2 40.75 38.5 41.95 38.9 42.8 Q38.35 43.8 37.05 44.3 L36.6 44.2 35.9 44.0 32.7 43.3 32.0 43.2 29.45 42.95 28.45 42.9 28.2 42.9 25.0 43.2 24.25 43.3 20.2 44.2 19.8 44.3 18.7 43.7 17.95 42.8 Q18.3 41.7 19.75 40.7 L19.7 37.15 19.6 36.15 19.5 35.25 21.0 35.55 19.45 35.0 18.4 34.55 Q15.2 33.05 13.9 31.4 L13.55 29.35 Q13.45 28.0 13.5 26.55 L13.6 24.95 13.65 24.5 13.7 23.85 13.65 22.6 Q13.3 18.3 13.7 14.7 14.05 11.0 16.25 8.1 21.3 4.7 28.0 4.9 L28.35 4.95 28.75 4.9 Q35.45 4.7 40.5 8.1 42.7 11.0 43.05 14.7 43.45 18.3 43.15 22.1 L43.1 23.95 43.1 24.65 43.15 24.95 43.3 26.7 43.2 29.7 42.85 31.4 Q41.6 32.95 38.65 34.4 L37.45 34.9 35.75 35.55 36.0 35.5 M12.7 28.0 Q12.7 30.2 13.2 32.0 14.6 33.85 18.5 35.0 L18.75 36.0 Q17.3 35.75 15.75 34.7 13.0 32.85 11.65 29.95 10.3 27.05 10.2 24.5 10.2 22.35 11.95 23.6 L12.95 24.15 12.85 25.25 12.8 26.25 11.95 25.85 12.7 28.0 M30.3 28.1 Q31.85 29.45 34.5 29.75 37.25 29.9 39.2 28.65 40.9 27.25 40.65 24.15 40.35 20.85 38.7 19.3 37.05 17.85 34.65 17.7 32.25 17.65 30.7 19.2 29.65 20.25 29.2 21.95 L29.25 26.4 29.3 26.6 Q29.6 27.45 30.25 28.1 L30.3 28.1 M24.85 32.45 L26.65 30.05 Q24.9 31.2 22.3 31.45 19.35 31.7 17.1 30.45 L17.8 31.55 Q21.65 35.5 24.85 32.45 M31.85 32.45 Q35.0 35.5 38.85 31.55 L39.6 30.4 Q37.35 31.7 34.35 31.45 31.8 31.2 30.05 30.1 30.75 31.45 31.85 32.45 M29.05 46.45 L29.0 44.35 29.05 44.35 Q29.6 45.9 30.4 46.8 L32.4 44.6 35.1 45.05 Q32.75 49.95 26.05 47.05 L29.05 46.45 M44.05 28.4 Q44.7 27.25 45.0 25.85 L44.0 26.3 43.9 25.25 43.85 24.25 45.0 23.6 Q46.8 22.35 46.75 24.5 46.7 27.05 45.3 29.95 43.95 32.85 41.2 34.7 39.6 35.75 38.1 36.05 L38.45 34.9 Q42.2 33.8 43.55 32.0 44.0 30.3 44.05 28.4 M28.55 45.95 L25.05 46.45 25.0 44.6 28.4 44.35 28.55 45.95 M25.0 48.2 Q22.4 47.75 21.05 45.2 L24.25 44.65 Q24.25 45.65 25.0 48.2 M30.5 46.15 L29.65 44.4 31.65 44.5 30.5 46.15" fill="#000000" fill-rule="evenodd" stroke="none"/>
    </g>
  </defs>
</svg>
