<?xml version="1.0" encoding="UTF-8" standalone="no"?>
<svg xmlns:ffdec="https://www.free-decompiler.com/flash" xmlns:xlink="http://www.w3.org/1999/xlink" ffdec:objectType="frame" height="56.0px" width="56.0px" xmlns="http://www.w3.org/2000/svg">
  <g transform="matrix(1.0, 0.0, 0.0, 1.0, 0.0, 0.0)">
    <use ffdec:characterId="2" height="56.0" id="back" transform="matrix(1.0, 0.0, 0.0, 1.0, 0.0, 0.0)" width="56.0" xlink:href="#sprite0"/>
    <use ffdec:characterId="3" height="39.6" transform="matrix(1.0, 0.0, 0.0, 1.0, 2.55, 9.4)" width="50.8" xlink:href="#shape1"/>
  </g>
  <defs>
    <g id="sprite0" transform="matrix(1.0, 0.0, 0.0, 1.0, 0.0, 0.0)">
      <use ffdec:characterId="1" height="56.0" transform="matrix(1.0, 0.0, 0.0, 1.0, 0.0, 0.0)" width="56.0" xlink:href="#shape0"/>
    </g>
    <g id="shape0" transform="matrix(1.0, 0.0, 0.0, 1.0, 0.0, 0.0)">
      <path d="M56.0 56.0 L0.0 56.0 0.0 0.0 56.0 0.0 56.0 56.0" fill="#010101" fill-opacity="0.0" fill-rule="evenodd" stroke="none"/>
    </g>
    <g id="shape1" transform="matrix(1.0, 0.0, 0.0, 1.0, -2.55, -9.4)">
      <path d="M30.9 31.9 L31.6 32.6 Q35.7 35.15 40.2 32.45 L40.2 35.45 39.9 37.55 38.25 39.85 Q36.7 38.5 35.7 36.65 L31.6 37.15 Q29.85 40.0 27.25 42.25 25.2 40.2 24.05 37.3 L19.0 36.1 16.65 39.75 16.3 38.75 Q15.5 36.15 15.65 33.2 19.85 34.7 23.45 31.65 L17.25 26.2 17.45 25.7 18.3 23.9 Q18.8 22.85 20.0 21.2 21.2 19.55 23.15 18.8 25.05 18.05 25.9 17.9 L27.6 17.7 29.75 17.75 31.8 18.15 33.6 19.15 34.25 19.75 36.35 22.5 38.3 25.5 Q34.85 28.1 30.9 31.9 L31.3 32.35 31.4 32.45 30.9 31.9 M39.65 12.0 L41.65 13.8 Q35.05 14.45 32.9 17.8 30.6 16.95 28.75 16.95 L25.8 17.15 24.2 17.55 Q23.35 15.75 20.4 14.45 17.7 13.25 14.1 13.55 14.8 12.6 16.45 11.85 19.4 10.4 22.95 10.35 26.5 10.25 28.95 11.2 31.35 10.05 34.25 10.2 37.15 10.35 39.65 12.0 M23.5 17.8 Q22.6 18.15 22.05 18.55 L20.25 20.05 Q19.0 21.2 17.65 23.75 L17.35 24.4 16.95 25.35 16.75 25.85 Q12.8 22.8 9.45 21.3 8.6 29.4 13.85 32.4 L15.2 33.05 Q15.0 35.45 15.45 37.75 14.4 35.7 13.65 33.4 9.15 30.35 5.7 25.2 8.4 33.7 12.95 41.8 L11.8 35.65 Q14.15 40.0 17.1 43.2 L17.25 42.6 18.45 44.65 18.65 44.85 Q14.2 44.85 10.55 42.4 2.25 36.8 3.5 27.45 4.35 16.05 12.15 14.4 L13.0 14.25 13.5 14.2 Q17.85 13.75 22.15 16.15 23.15 17.0 23.5 17.8 M36.4 44.55 Q33.6 47.9 28.1 48.2 L27.85 48.2 27.8 48.2 Q22.3 47.9 19.5 44.55 L19.4 44.4 17.95 42.45 17.5 41.65 Q18.15 39.85 19.3 38.2 21.05 42.55 23.8 45.3 L29.8 45.65 Q32.2 42.5 33.95 39.15 35.2 41.15 36.05 43.95 L37.25 43.4 36.4 44.55 M43.75 14.4 Q51.55 16.05 52.4 27.45 53.6 36.8 45.35 42.4 41.7 44.85 37.25 44.85 L37.45 44.65 38.65 42.65 Q47.25 37.75 49.65 28.15 46.3 31.8 41.75 34.35 L40.65 36.3 40.8 34.35 40.65 32.15 Q45.0 29.2 44.4 21.65 41.8 22.95 38.9 25.1 L37.6 22.95 36.5 21.45 35.55 20.25 34.35 18.95 33.45 18.25 33.6 18.35 Q34.85 15.4 43.15 14.3 L43.75 14.4" fill="#000000" fill-rule="evenodd" stroke="none"/>
      <path d="M30.9 31.9 L31.4 32.45 31.3 32.35 30.9 31.9" fill="#ffffff" fill-rule="evenodd" stroke="none"/>
      <path d="M39.65 12.0 Q37.15 10.35 34.25 10.2 31.35 10.05 28.95 11.2 26.5 10.25 22.95 10.35 19.4 10.4 16.45 11.85 14.8 12.6 14.1 13.55 17.7 13.25 20.4 14.45 23.35 15.75 24.2 17.55 L25.8 17.15 28.75 16.95 Q30.6 16.95 32.9 17.8 35.05 14.45 41.65 13.8 L39.65 12.0 M30.9 31.9 Q34.85 28.1 38.3 25.5 L36.35 22.5 34.25 19.75 33.6 19.15 31.8 18.15 29.75 17.75 27.6 17.7 25.9 17.9 Q25.05 18.05 23.15 18.8 21.2 19.55 20.0 21.2 18.8 22.85 18.3 23.9 L17.45 25.7 17.25 26.2 23.45 31.65 Q19.85 34.7 15.65 33.2 15.5 36.15 16.3 38.75 L16.65 39.75 19.0 36.1 24.05 37.3 Q25.2 40.2 27.25 42.25 29.85 40.0 31.6 37.15 L35.7 36.65 Q36.7 38.5 38.25 39.85 L39.9 37.55 40.2 35.45 40.2 32.45 Q35.7 35.15 31.6 32.6 L30.9 31.9 M23.5 17.8 Q23.15 17.0 22.15 16.15 17.85 13.75 13.5 14.2 L13.0 14.25 12.15 14.4 Q4.35 16.05 3.5 27.45 2.25 36.8 10.55 42.4 14.2 44.85 18.65 44.85 L18.45 44.65 17.25 42.6 17.1 43.2 Q14.15 40.0 11.8 35.65 L12.95 41.8 Q8.4 33.7 5.7 25.2 9.15 30.35 13.65 33.4 14.4 35.7 15.45 37.75 15.0 35.45 15.2 33.05 L13.85 32.4 Q8.6 29.4 9.45 21.3 12.8 22.8 16.75 25.85 L16.95 25.35 17.35 24.4 17.65 23.75 Q19.0 21.2 20.25 20.05 L22.05 18.55 Q22.6 18.15 23.5 17.8 M36.4 44.55 Q33.6 47.9 28.1 48.2 L27.85 48.2 27.8 48.2 Q22.3 47.9 19.5 44.55 L19.4 44.4 17.95 42.45 17.5 41.65 Q18.15 39.85 19.3 38.2 21.05 42.55 23.8 45.3 L29.8 45.65 Q32.2 42.5 33.95 39.15 35.2 41.15 36.05 43.95 L37.25 43.4 36.4 44.55 M43.75 14.4 Q51.55 16.05 52.4 27.45 53.6 36.8 45.35 42.4 41.7 44.85 37.25 44.85 L37.45 44.65 38.65 42.65 Q47.25 37.75 49.65 28.15 46.3 31.8 41.75 34.35 L40.65 36.3 40.8 34.35 40.65 32.15 Q45.0 29.2 44.4 21.65 41.8 22.95 38.9 25.1 L37.6 22.95 36.5 21.45 35.55 20.25 34.35 18.95 33.45 18.25 33.6 18.35 Q34.85 15.4 43.15 14.3 L43.75 14.4 Z" fill="none" stroke="#000000" stroke-linecap="round" stroke-linejoin="round" stroke-opacity="0.2" stroke-width="1.6"/>
      <path d="M30.9 31.9 L31.6 32.6 Q35.7 35.15 40.2 32.45 L40.2 35.45 39.9 37.55 38.25 39.85 Q36.7 38.5 35.7 36.65 L31.6 37.15 Q29.85 40.0 27.25 42.25 25.2 40.2 24.05 37.3 L19.0 36.1 16.65 39.75 16.3 38.75 Q15.5 36.15 15.65 33.2 19.85 34.7 23.45 31.65 L17.25 26.2 17.45 25.7 18.3 23.9 Q18.8 22.85 20.0 21.2 21.2 19.55 23.15 18.8 25.05 18.05 25.9 17.9 L27.6 17.7 29.75 17.75 31.8 18.15 33.6 19.15 34.25 19.75 36.35 22.5 38.3 25.5 Q34.85 28.1 30.9 31.9 L31.3 32.35 31.4 32.45 30.9 31.9 M39.65 12.0 L41.65 13.8 Q35.05 14.45 32.9 17.8 30.6 16.95 28.75 16.95 L25.8 17.15 24.2 17.55 Q23.35 15.75 20.4 14.45 17.7 13.25 14.1 13.55 14.8 12.6 16.45 11.85 19.4 10.4 22.95 10.35 26.5 10.25 28.95 11.2 31.35 10.05 34.25 10.2 37.15 10.35 39.65 12.0 M23.5 17.8 Q22.6 18.15 22.05 18.55 L20.25 20.05 Q19.0 21.2 17.65 23.75 L17.35 24.4 16.95 25.35 16.75 25.85 Q12.8 22.8 9.45 21.3 8.6 29.4 13.85 32.4 L15.2 33.05 Q15.0 35.45 15.45 37.75 14.4 35.7 13.65 33.4 9.15 30.35 5.7 25.2 8.4 33.7 12.95 41.8 L11.8 35.65 Q14.15 40.0 17.1 43.2 L17.25 42.6 18.45 44.65 18.65 44.85 Q14.2 44.85 10.55 42.4 2.25 36.8 3.5 27.45 4.35 16.05 12.15 14.4 L13.0 14.25 13.5 14.2 Q17.85 13.75 22.15 16.15 23.15 17.0 23.5 17.8 M36.4 44.55 Q33.6 47.9 28.1 48.2 L27.85 48.2 27.8 48.2 Q22.3 47.9 19.5 44.55 L19.4 44.4 17.95 42.45 17.5 41.65 Q18.15 39.85 19.3 38.2 21.05 42.55 23.8 45.3 L29.8 45.65 Q32.2 42.5 33.95 39.15 35.2 41.15 36.05 43.95 L37.25 43.4 36.4 44.55 M43.75 14.4 Q51.55 16.05 52.4 27.45 53.6 36.8 45.35 42.4 41.7 44.85 37.25 44.85 L37.45 44.65 38.65 42.65 Q47.25 37.75 49.65 28.15 46.3 31.8 41.75 34.35 L40.65 36.3 40.8 34.35 40.65 32.15 Q45.0 29.2 44.4 21.65 41.8 22.95 38.9 25.1 L37.6 22.95 36.5 21.45 35.55 20.25 34.35 18.95 33.45 18.25 33.6 18.35 Q34.85 15.4 43.15 14.3 L43.75 14.4" fill="#000000" fill-rule="evenodd" stroke="none"/>
      <path d="M30.9 31.9 L31.4 32.45 31.3 32.35 30.9 31.9" fill="#ffffff" fill-rule="evenodd" stroke="none"/>
    </g>
  </defs>
</svg>
