<?xml version="1.0" encoding="UTF-8" standalone="no"?>
<svg xmlns:ffdec="https://www.free-decompiler.com/flash" xmlns:xlink="http://www.w3.org/1999/xlink" ffdec:objectType="frame" height="56.0px" width="56.0px" xmlns="http://www.w3.org/2000/svg">
  <g transform="matrix(1.0, 0.0, 0.0, 1.0, 0.0, 0.0)">
    <use ffdec:characterId="2" height="56.0" id="back" transform="matrix(1.0, 0.0, 0.0, 1.0, 0.0, 0.0)" width="56.0" xlink:href="#sprite0"/>
    <use ffdec:characterId="3" height="48.85" transform="matrix(1.0, 0.0, 0.0, 1.0, 3.4, 2.8)" width="49.1" xlink:href="#shape1"/>
  </g>
  <defs>
    <g id="sprite0" transform="matrix(1.0, 0.0, 0.0, 1.0, 0.0, 0.0)">
      <use ffdec:characterId="1" height="56.0" transform="matrix(1.0, 0.0, 0.0, 1.0, 0.0, 0.0)" width="56.0" xlink:href="#shape0"/>
    </g>
    <g id="shape0" transform="matrix(1.0, 0.0, 0.0, 1.0, 0.0, 0.0)">
      <path d="M56.0 56.0 L0.0 56.0 0.0 0.0 56.0 0.0 56.0 56.0" fill="#010101" fill-opacity="0.0" fill-rule="evenodd" stroke="none"/>
    </g>
    <g id="shape1" transform="matrix(1.0, 0.0, 0.0, 1.0, -3.4, -2.8)">
      <path d="M37.65 50.8 Q27.85 46.25 18.0 50.85 14.4 40.65 4.2 36.9 8.8 27.2 4.35 17.45 14.4 13.75 18.15 3.6 L19.05 4.0 Q28.4 7.95 37.6 3.75 41.3 13.75 51.7 17.35 46.9 27.2 51.5 36.95 41.3 40.7 37.65 50.8 M23.05 17.8 L25.4 17.8 24.6 13.2 31.05 13.2 30.25 17.8 32.55 17.8 32.55 20.1 31.05 20.1 31.05 22.75 31.15 22.8 Q32.4 23.35 33.45 24.4 35.8 26.75 35.8 30.0 35.8 33.3 33.45 35.6 31.1 37.95 27.85 37.95 24.55 37.95 22.25 35.6 19.9 33.3 19.9 30.0 19.9 26.75 22.25 24.4 L24.55 22.75 24.6 22.75 24.6 20.1 23.05 20.1 23.05 17.8 M18.45 6.45 Q15.55 14.85 7.1 17.8 L21.2 23.6 Q18.7 26.25 18.7 29.95 L18.85 31.75 7.1 36.6 Q15.5 39.55 18.45 48.0 L22.75 37.6 Q24.95 39.1 27.85 39.1 30.75 39.1 33.0 37.55 L37.25 48.0 Q40.2 39.55 48.65 36.6 L36.9 31.75 37.05 29.95 Q37.05 26.25 34.5 23.65 L48.65 17.8 Q40.2 14.85 37.25 6.4 L32.95 16.9 31.3 16.9 32.15 12.15 23.35 12.15 24.2 16.9 22.75 16.9 18.45 6.45 M26.25 23.7 L26.15 23.7 Q24.5 24.15 23.2 25.45 21.35 27.3 21.35 30.0 21.35 32.7 23.2 34.6 25.15 36.5 27.8 36.5 30.5 36.5 32.4 34.6 34.3 32.7 34.3 30.0 34.3 27.3 32.4 25.45 31.1 24.15 29.45 23.7 L29.4 23.7 29.4 20.1 26.25 20.1 26.25 23.7 M31.75 34.05 Q30.1 35.7 27.75 35.7 25.4 35.7 23.75 34.05 22.25 32.6 22.1 30.6 23.05 30.35 23.4 29.55 25.4 31.55 27.7 29.55 29.7 31.55 31.95 29.55 32.4 30.55 33.4 30.6 33.25 32.6 31.75 34.05" fill="#000000" fill-rule="evenodd" stroke="none"/>
      <path d="M37.65 50.8 Q41.3 40.7 51.5 36.95 46.9 27.2 51.7 17.35 41.3 13.75 37.6 3.75 28.4 7.95 19.05 4.0 L18.15 3.6 Q14.4 13.75 4.35 17.45 8.8 27.2 4.2 36.9 14.4 40.65 18.0 50.85 27.85 46.25 37.65 50.8 M23.05 17.8 L25.4 17.8 24.6 13.2 31.05 13.2 30.25 17.8 32.55 17.8 32.55 20.1 31.05 20.1 31.05 22.75 31.15 22.8 Q32.4 23.35 33.45 24.4 35.8 26.75 35.8 30.0 35.8 33.3 33.45 35.6 31.1 37.95 27.85 37.95 24.55 37.95 22.25 35.6 19.9 33.3 19.9 30.0 19.9 26.75 22.25 24.4 L24.55 22.75 24.6 22.75 24.6 20.1 23.05 20.1 23.05 17.8 M18.45 6.45 L22.75 16.9 24.2 16.9 23.35 12.15 32.15 12.15 31.3 16.9 32.95 16.9 37.25 6.4 Q40.2 14.85 48.65 17.8 L34.5 23.65 Q37.05 26.25 37.05 29.95 L36.9 31.75 48.65 36.6 Q40.2 39.55 37.25 48.0 L33.0 37.55 Q30.75 39.1 27.85 39.1 24.95 39.1 22.75 37.6 L18.45 48.0 Q15.5 39.55 7.1 36.6 L18.85 31.75 18.7 29.95 Q18.7 26.25 21.2 23.6 L7.1 17.8 Q15.55 14.85 18.45 6.45 M26.25 23.7 L26.15 23.7 Q24.5 24.15 23.2 25.45 21.35 27.3 21.35 30.0 21.35 32.7 23.2 34.6 25.15 36.5 27.8 36.5 30.5 36.5 32.4 34.6 34.3 32.7 34.3 30.0 34.3 27.3 32.4 25.45 31.1 24.15 29.45 23.7 L29.4 23.7 29.4 20.1 26.25 20.1 26.25 23.7 M31.75 34.05 Q30.1 35.7 27.75 35.7 25.4 35.7 23.75 34.05 22.25 32.6 22.1 30.6 23.05 30.35 23.4 29.55 25.4 31.55 27.7 29.55 29.7 31.55 31.95 29.55 32.4 30.55 33.4 30.6 33.25 32.6 31.75 34.05 Z" fill="none" stroke="#000000" stroke-linecap="round" stroke-linejoin="round" stroke-opacity="0.2" stroke-width="1.6"/>
      <path d="M18.45 6.45 Q15.55 14.85 7.1 17.8 L21.2 23.6 Q18.7 26.25 18.7 29.95 L18.85 31.75 7.1 36.6 Q15.5 39.55 18.45 48.0 L22.75 37.6 Q24.95 39.1 27.85 39.1 30.75 39.1 33.0 37.55 L37.25 48.0 Q40.2 39.55 48.65 36.6 L36.9 31.75 37.05 29.95 Q37.05 26.25 34.5 23.65 L48.65 17.8 Q40.2 14.85 37.25 6.4 L32.95 16.9 31.3 16.9 32.15 12.15 23.35 12.15 24.2 16.9 22.75 16.9 18.45 6.45 M37.65 50.8 Q27.85 46.25 18.0 50.85 14.4 40.65 4.2 36.9 8.8 27.2 4.35 17.45 14.4 13.75 18.15 3.6 L19.05 4.0 Q28.4 7.95 37.6 3.75 41.3 13.75 51.7 17.35 46.9 27.2 51.5 36.95 41.3 40.7 37.65 50.8 M23.05 17.8 L25.4 17.8 24.6 13.2 31.05 13.2 30.25 17.8 32.55 17.8 32.55 20.1 31.05 20.1 31.05 22.75 31.15 22.8 Q32.4 23.35 33.45 24.4 35.8 26.75 35.8 30.0 35.8 33.3 33.45 35.6 31.1 37.95 27.85 37.95 24.55 37.95 22.25 35.6 19.9 33.3 19.9 30.0 19.9 26.75 22.25 24.4 L24.55 22.75 24.6 22.75 24.6 20.1 23.05 20.1 23.05 17.8 M31.75 34.05 Q30.1 35.7 27.75 35.7 25.4 35.7 23.75 34.05 22.25 32.6 22.1 30.6 23.05 30.35 23.4 29.55 25.4 31.55 27.7 29.55 29.7 31.55 31.95 29.55 32.4 30.55 33.4 30.6 33.25 32.6 31.75 34.05 M26.25 23.7 L26.15 23.7 Q24.5 24.15 23.2 25.45 21.35 27.3 21.35 30.0 21.35 32.7 23.2 34.6 25.15 36.5 27.8 36.5 30.5 36.5 32.4 34.6 34.3 32.7 34.3 30.0 34.3 27.3 32.4 25.45 31.1 24.15 29.45 23.7 L29.4 23.7 29.4 20.1 26.25 20.1 26.25 23.7" fill="#000000" fill-rule="evenodd" stroke="none"/>
    </g>
  </defs>
</svg>
