<?xml version="1.0" encoding="UTF-8" standalone="no"?>
<svg xmlns:ffdec="https://www.free-decompiler.com/flash" xmlns:xlink="http://www.w3.org/1999/xlink" ffdec:objectType="frame" height="56.0px" width="56.0px" xmlns="http://www.w3.org/2000/svg">
  <g transform="matrix(1.0, 0.0, 0.0, 1.0, 0.0, 0.0)">
    <use ffdec:characterId="2" height="56.0" id="back" transform="matrix(1.0, 0.0, 0.0, 1.0, 0.0, 0.0)" width="56.0" xlink:href="#sprite0"/>
    <use ffdec:characterId="3" height="36.25" transform="matrix(1.0, 0.0, 0.0, 1.0, 1.3, 9.75)" width="53.2" xlink:href="#shape1"/>
  </g>
  <defs>
    <g id="sprite0" transform="matrix(1.0, 0.0, 0.0, 1.0, 0.0, 0.0)">
      <use ffdec:characterId="1" height="56.0" transform="matrix(1.0, 0.0, 0.0, 1.0, 0.0, 0.0)" width="56.0" xlink:href="#shape0"/>
    </g>
    <g id="shape0" transform="matrix(1.0, 0.0, 0.0, 1.0, 0.0, 0.0)">
      <path d="M56.0 56.0 L0.0 56.0 0.0 0.0 56.0 0.0 56.0 56.0" fill="#010101" fill-opacity="0.0" fill-rule="evenodd" stroke="none"/>
    </g>
    <g id="shape1" transform="matrix(1.0, 0.0, 0.0, 1.0, -1.3, -9.75)">
      <path d="M33.25 25.95 Q33.25 28.25 31.9 29.9 30.55 31.5 28.65 31.5 26.75 31.5 25.35 29.9 24.05 28.25 24.05 25.95 24.05 23.65 25.35 22.05 26.75 20.4 28.65 20.4 30.55 20.4 31.9 22.05 33.25 23.65 33.25 25.95 M30.35 25.95 Q30.35 26.8 29.85 27.4 29.35 27.95 28.7 27.95 27.95 27.95 27.5 27.4 27.0 26.8 27.0 25.95 27.0 25.15 27.5 24.55 27.95 24.0 28.7 24.0 29.35 24.0 29.85 24.55 30.35 25.15 30.35 25.95 M15.0 23.75 Q22.15 16.6 28.7 13.3 30.9 13.6 36.65 18.1 32.85 13.65 28.6 11.65 22.25 14.35 15.0 23.75 M28.4 17.55 Q22.65 20.7 17.25 29.5 22.95 32.8 28.75 32.9 34.7 33.0 39.7 29.55 34.25 20.7 28.4 17.55 M20.65 20.1 Q21.6 20.7 22.75 20.55 24.85 18.25 25.4 16.9 22.8 17.55 20.65 20.1 M32.3 26.0 Q32.3 24.2 31.2 22.9 30.15 21.65 28.65 21.65 27.15 21.65 26.1 22.9 25.05 24.2 25.05 26.0 25.05 27.8 26.1 29.1 27.15 30.35 28.65 30.35 30.15 30.35 31.2 29.1 32.3 27.8 32.3 26.0 M44.4 25.65 L44.25 25.9 46.55 30.0 47.3 29.95 46.55 30.0 44.25 25.9 44.4 25.65 Q46.55 22.45 46.25 19.25 51.6 22.8 53.7 29.4 L47.3 29.95 48.85 32.45 45.7 34.2 45.3 32.2 38.5 36.5 38.8 36.75 38.5 36.5 45.3 32.2 45.7 34.2 46.85 40.35 45.8 41.6 44.3 42.05 38.8 36.75 Q35.65 37.6 32.25 37.85 L32.55 36.75 24.7 36.75 24.95 37.65 24.7 36.75 32.55 36.75 32.25 37.85 30.15 44.75 28.7 45.2 27.2 44.75 24.95 37.65 19.6 36.7 19.85 36.5 13.05 32.2 12.6 34.4 13.05 32.2 19.85 36.5 19.6 36.7 14.0 42.05 12.5 41.6 Q11.85 41.2 11.5 40.35 L12.6 34.4 8.4 32.4 8.65 32.5 12.35 28.5 11.3 27.9 12.35 28.5 8.65 32.5 8.4 32.4 Q4.45 31.0 2.1 27.95 2.7 20.25 7.9 16.2 9.2 15.4 9.0 16.95 L8.9 17.3 Q7.55 21.55 9.3 26.85 L11.3 27.9 Q19.7 15.4 28.6 10.55 36.7 14.95 44.4 25.65 M47.1 20.4 Q47.35 23.5 44.95 26.4 47.05 26.35 47.6 24.85 48.25 23.15 47.1 20.4 M2.7 26.95 Q5.2 20.15 8.0 16.45 3.4 20.2 2.7 26.95 M13.15 34.5 L11.85 40.25 Q13.9 38.35 15.0 36.45 13.8 35.55 13.15 34.5 M39.5 36.35 L44.3 41.3 Q43.65 37.9 42.45 35.5 40.9 36.3 39.5 36.35 M25.6 37.4 L27.45 44.25 Q28.5 40.95 28.55 38.3 26.8 38.1 25.6 37.4" fill="#000000" fill-rule="evenodd" stroke="none"/>
      <path d="M33.25 25.95 Q33.25 28.25 31.9 29.9 30.55 31.5 28.65 31.5 26.75 31.5 25.35 29.9 24.05 28.25 24.05 25.95 24.05 23.65 25.35 22.05 26.75 20.4 28.65 20.4 30.55 20.4 31.9 22.05 33.25 23.65 33.25 25.95 M30.35 25.95 Q30.35 26.8 29.85 27.4 29.35 27.95 28.7 27.95 27.95 27.95 27.5 27.4 27.0 26.8 27.0 25.95 27.0 25.15 27.5 24.55 27.95 24.0 28.7 24.0 29.35 24.0 29.85 24.55 30.35 25.15 30.35 25.95 M32.3 26.0 Q32.3 27.8 31.2 29.1 30.15 30.35 28.65 30.35 27.15 30.35 26.1 29.1 25.05 27.8 25.05 26.0 25.05 24.2 26.1 22.9 27.15 21.65 28.65 21.65 30.15 21.65 31.2 22.9 32.3 24.2 32.3 26.0 M20.65 20.1 Q22.8 17.55 25.4 16.9 24.85 18.25 22.75 20.55 21.6 20.7 20.65 20.1 M28.4 17.55 Q34.25 20.7 39.7 29.55 34.7 33.0 28.75 32.9 22.95 32.8 17.25 29.5 22.65 20.7 28.4 17.55 M15.0 23.75 Q22.25 14.35 28.6 11.65 32.85 13.65 36.65 18.1 30.9 13.6 28.7 13.3 22.15 16.6 15.0 23.75 M47.3 29.95 L46.55 30.0 44.25 25.9 44.4 25.65 Q36.7 14.95 28.6 10.55 19.7 15.4 11.3 27.9 L12.35 28.5 8.65 32.5 8.4 32.4 12.6 34.4 13.05 32.2 19.85 36.5 19.6 36.7 24.95 37.65 24.7 36.75 32.55 36.75 32.25 37.85 Q35.65 37.6 38.8 36.75 L38.5 36.5 45.3 32.2 45.7 34.2 48.85 32.45 47.3 29.95 53.7 29.4 Q51.6 22.8 46.25 19.25 46.55 22.45 44.4 25.65 M47.1 20.4 Q48.25 23.15 47.6 24.85 47.05 26.35 44.95 26.4 47.35 23.5 47.1 20.4 M8.4 32.4 Q4.45 31.0 2.1 27.95 2.7 20.25 7.9 16.2 9.2 15.4 9.0 16.95 L8.9 17.3 Q7.55 21.55 9.3 26.85 L11.3 27.9 M12.6 34.4 L11.5 40.35 Q11.85 41.2 12.5 41.6 L14.0 42.05 19.6 36.7 M13.15 34.5 Q13.8 35.55 15.0 36.45 13.9 38.35 11.85 40.25 L13.15 34.5 M45.7 34.2 L46.85 40.35 45.8 41.6 44.3 42.05 38.8 36.75 M39.5 36.35 Q40.9 36.3 42.45 35.5 43.65 37.9 44.3 41.3 L39.5 36.35 M32.25 37.85 L30.15 44.75 28.7 45.2 27.2 44.75 24.95 37.65 M25.6 37.4 Q26.8 38.1 28.55 38.3 28.5 40.95 27.45 44.25 L25.6 37.4 Z" fill="none" stroke="#000000" stroke-linecap="round" stroke-linejoin="round" stroke-opacity="0.2" stroke-width="1.6"/>
      <path d="M32.3 26.0 Q32.3 24.2 31.2 22.9 30.15 21.65 28.65 21.65 27.15 21.65 26.1 22.9 25.05 24.2 25.05 26.0 25.05 27.8 26.1 29.1 27.15 30.35 28.65 30.35 30.15 30.35 31.2 29.1 32.3 27.8 32.3 26.0 M30.35 25.95 Q30.35 26.8 29.85 27.4 29.35 27.95 28.7 27.95 27.95 27.95 27.5 27.4 27.0 26.8 27.0 25.95 27.0 25.15 27.5 24.55 27.95 24.0 28.7 24.0 29.35 24.0 29.85 24.55 30.35 25.15 30.35 25.95 M33.25 25.95 Q33.25 28.25 31.9 29.9 30.55 31.5 28.65 31.5 26.75 31.5 25.35 29.9 24.05 28.25 24.05 25.95 24.05 23.65 25.35 22.05 26.75 20.4 28.65 20.4 30.55 20.4 31.9 22.05 33.25 23.65 33.25 25.95 M20.65 20.1 Q21.6 20.7 22.75 20.55 24.85 18.25 25.4 16.9 22.8 17.55 20.65 20.1 M28.4 17.55 Q22.65 20.7 17.25 29.5 22.95 32.8 28.75 32.9 34.7 33.0 39.7 29.55 34.25 20.7 28.4 17.55 M15.0 23.75 Q22.15 16.6 28.7 13.3 30.9 13.6 36.65 18.1 32.85 13.65 28.6 11.65 22.25 14.35 15.0 23.75 M44.4 25.65 L44.25 25.9 46.55 30.0 47.3 29.95 46.55 30.0 44.25 25.9 44.4 25.65 Q46.55 22.45 46.25 19.25 51.6 22.8 53.7 29.4 L47.3 29.95 48.85 32.45 45.7 34.2 45.3 32.2 38.5 36.5 38.8 36.75 38.5 36.5 45.3 32.2 45.7 34.2 46.85 40.35 45.8 41.6 44.3 42.05 38.8 36.75 Q35.65 37.6 32.25 37.85 L32.55 36.75 24.7 36.75 24.95 37.65 24.7 36.75 32.55 36.75 32.25 37.85 30.15 44.75 28.7 45.2 27.2 44.75 24.95 37.65 19.6 36.7 19.85 36.5 13.05 32.2 12.6 34.4 13.05 32.2 19.85 36.5 19.6 36.7 14.0 42.05 12.5 41.6 Q11.85 41.2 11.5 40.35 L12.6 34.4 8.4 32.4 8.65 32.5 12.35 28.5 11.3 27.9 12.35 28.5 8.65 32.5 8.4 32.4 Q4.45 31.0 2.1 27.95 2.7 20.25 7.9 16.2 9.2 15.4 9.0 16.95 L8.9 17.3 Q7.55 21.55 9.3 26.85 L11.3 27.9 Q19.7 15.4 28.6 10.55 36.7 14.95 44.4 25.65 M47.1 20.4 Q47.35 23.5 44.95 26.4 47.05 26.35 47.6 24.85 48.25 23.15 47.1 20.4 M2.7 26.95 Q5.2 20.15 8.0 16.45 3.4 20.2 2.7 26.95 M13.15 34.5 L11.85 40.25 Q13.9 38.35 15.0 36.45 13.8 35.55 13.15 34.5 M25.6 37.4 L27.45 44.25 Q28.5 40.95 28.55 38.3 26.8 38.1 25.6 37.4 M39.5 36.35 L44.3 41.3 Q43.65 37.9 42.45 35.5 40.9 36.3 39.5 36.35" fill="#000000" fill-rule="evenodd" stroke="none"/>
      <path d="M30.35 25.95 Q30.35 26.8 29.85 27.4 29.35 27.95 28.7 27.95 27.95 27.95 27.5 27.4 27.0 26.8 27.0 25.95 27.0 25.15 27.5 24.55 27.95 24.0 28.7 24.0 29.35 24.0 29.85 24.55 30.35 25.15 30.35 25.95 M28.4 17.55 Q34.25 20.7 39.7 29.55 34.7 33.0 28.75 32.9 22.95 32.8 17.25 29.5 22.65 20.7 28.4 17.55 M47.3 29.95 L46.55 30.0 44.25 25.9 44.4 25.65 Q36.7 14.95 28.6 10.55 19.7 15.4 11.3 27.9 L12.35 28.5 8.65 32.5 8.4 32.4 12.6 34.4 13.05 32.2 19.85 36.5 19.6 36.7 24.95 37.65 24.7 36.75 32.55 36.75 32.25 37.85 Q35.65 37.6 38.8 36.75 L38.5 36.5 45.3 32.2 45.7 34.2 48.85 32.45 47.3 29.95 53.7 29.4 Q51.6 22.8 46.25 19.25 46.55 22.45 44.4 25.65 M8.4 32.4 Q4.45 31.0 2.1 27.95 2.7 20.25 7.9 16.2 9.2 15.4 9.0 16.95 L8.9 17.3 Q7.55 21.55 9.3 26.85 L11.3 27.9 M12.6 34.4 L11.5 40.35 Q11.85 41.2 12.5 41.6 L14.0 42.05 19.6 36.7 M45.7 34.2 L46.85 40.35 45.8 41.6 44.3 42.05 38.8 36.75 M32.25 37.85 L30.15 44.75 28.7 45.2 27.2 44.75 24.95 37.65" fill="none" stroke="#000000" stroke-linecap="round" stroke-linejoin="round" stroke-opacity="0.3019608" stroke-width="0.05"/>
    </g>
  </defs>
</svg>
