<?xml version="1.0" encoding="UTF-8" standalone="no"?>
<svg xmlns:ffdec="https://www.free-decompiler.com/flash" xmlns:xlink="http://www.w3.org/1999/xlink" ffdec:objectType="frame" height="56.0px" width="56.0px" xmlns="http://www.w3.org/2000/svg">
  <g transform="matrix(1.0, 0.0, 0.0, 1.0, 0.0, 0.0)">
    <use ffdec:characterId="2" height="56.0" id="back" transform="matrix(1.0, 0.0, 0.0, 1.0, 0.0, 0.0)" width="56.0" xlink:href="#sprite0"/>
    <use ffdec:characterId="3" height="52.35" transform="matrix(1.0, 0.0, 0.0, 1.0, 5.55, 1.35)" width="43.95" xlink:href="#shape1"/>
  </g>
  <defs>
    <g id="sprite0" transform="matrix(1.0, 0.0, 0.0, 1.0, 0.0, 0.0)">
      <use ffdec:characterId="1" height="56.0" transform="matrix(1.0, 0.0, 0.0, 1.0, 0.0, 0.0)" width="56.0" xlink:href="#shape0"/>
    </g>
    <g id="shape0" transform="matrix(1.0, 0.0, 0.0, 1.0, 0.0, 0.0)">
      <path d="M56.0 56.0 L0.0 56.0 0.0 0.0 56.0 0.0 56.0 56.0" fill="#010101" fill-opacity="0.0" fill-rule="evenodd" stroke="none"/>
    </g>
    <g id="shape1" transform="matrix(1.0, 0.0, 0.0, 1.0, -5.55, -1.35)">
      <path d="M29.5 18.4 L25.5 18.95 24.35 19.65 21.1 19.65 20.65 20.2 20.65 25.65 21.8 28.45 24.0 26.75 23.85 26.3 24.3 25.8 24.3 25.2 24.75 24.45 25.85 23.9 26.95 24.9 26.15 24.65 25.35 24.9 25.55 25.55 26.3 25.25 27.0 25.75 27.0 26.95 26.4 26.15 25.9 26.5 25.9 27.0 25.45 27.6 24.6 27.5 22.25 29.75 23.75 33.55 26.35 35.75 32.1 33.6 35.55 29.35 35.55 26.75 39.1 25.8 42.5 26.25 42.5 29.05 43.15 29.75 43.65 32.55 45.3 35.45 46.35 34.2 47.15 32.5 Q46.05 26.1 42.55 22.2 40.9 22.3 40.75 21.15 L40.15 21.0 39.25 21.65 Q39.7 22.8 39.1 23.75 L38.1 24.7 Q37.45 25.2 37.6 23.35 36.4 22.8 36.45 22.2 34.45 22.05 35.8 20.1 35.3 18.8 36.1 18.0 33.2 16.95 29.5 16.7 L29.5 18.4 M21.8 9.15 L22.05 7.65 Q21.9 7.0 21.55 6.85 21.15 6.7 20.6 7.15 20.05 7.55 19.6 8.4 19.2 9.15 19.3 9.9 19.45 10.55 19.9 10.75 20.3 10.85 20.9 10.4 L21.8 9.15 M29.5 16.1 L30.35 16.1 Q37.95 16.1 43.3 21.5 48.7 26.9 48.7 34.5 48.7 42.1 43.3 47.5 40.6 50.25 37.3 51.55 34.1 52.9 30.35 52.9 25.95 52.9 22.35 51.15 13.1 48.0 10.0 36.05 L8.15 36.6 6.35 33.4 10.35 29.3 11.25 30.5 12.1 28.0 12.6 25.1 11.8 25.45 10.05 22.65 12.5 19.75 13.25 21.55 13.8 18.8 14.5 16.85 13.15 17.55 12.0 14.15 15.5 11.85 16.0 12.6 16.5 11.3 19.0 6.5 27.9 3.1 28.15 2.4 28.8 2.15 30.15 3.1 30.35 3.9 31.5 4.6 33.2 11.0 30.7 14.45 29.15 10.4 27.05 13.85 25.8 10.4 23.75 14.0 22.5 10.15 21.8 11.5 21.3 13.55 21.3 16.05 22.9 13.85 23.75 16.6 26.1 13.75 27.15 15.85 29.15 13.0 29.5 14.45 29.5 16.1" fill="#000000" fill-rule="evenodd" stroke="none"/>
      <path d="M29.5 18.4 L25.5 18.95 24.35 19.65 21.1 19.65 20.65 20.2 20.65 25.65 21.8 28.45 24.0 26.75 23.85 26.3 24.3 25.8 24.3 25.2 24.75 24.45 25.85 23.9 26.95 24.9 26.15 24.65 25.35 24.9 25.55 25.55 26.3 25.25 27.0 25.75 27.0 26.95 26.4 26.15 25.9 26.5 25.9 27.0 25.45 27.6 24.6 27.5 22.25 29.75 23.75 33.55 26.35 35.75 32.1 33.6 35.55 29.35 35.55 26.75 39.1 25.8 42.5 26.25 42.5 29.05 43.15 29.75 43.65 32.55 45.3 35.45 46.35 34.2 47.15 32.5 Q46.05 26.1 42.55 22.2 40.9 22.3 40.75 21.15 L40.15 21.0 39.25 21.65 Q39.7 22.8 39.1 23.75 L38.1 24.7 Q37.45 25.2 37.6 23.35 36.4 22.8 36.45 22.2 34.45 22.05 35.8 20.1 35.3 18.8 36.1 18.0 33.2 16.95 29.5 16.7 L29.5 18.4 M29.5 16.1 L29.5 14.45 29.15 13.0 27.15 15.85 26.1 13.75 23.75 16.6 22.9 13.85 21.3 16.05 21.3 13.55 21.8 11.5 22.5 10.15 23.75 14.0 25.8 10.4 27.05 13.85 29.15 10.4 30.7 14.45 33.2 11.0 31.5 4.6 30.35 3.9 30.15 3.1 28.8 2.15 28.15 2.4 27.9 3.1 19.0 6.5 16.5 11.3 16.0 12.6 15.5 11.85 12.0 14.15 13.15 17.55 14.5 16.85 13.8 18.8 13.25 21.55 12.5 19.75 10.05 22.65 11.8 25.45 12.6 25.1 12.1 28.0 11.25 30.5 10.35 29.3 6.35 33.4 8.15 36.6 10.0 36.05 Q13.1 48.0 22.35 51.15 25.95 52.9 30.35 52.9 34.1 52.9 37.3 51.55 40.6 50.25 43.3 47.5 48.7 42.1 48.7 34.5 48.7 26.9 43.3 21.5 37.95 16.1 30.35 16.1 L29.5 16.1 M21.8 9.15 L20.9 10.4 Q20.3 10.85 19.9 10.75 19.45 10.55 19.3 9.9 19.2 9.15 19.6 8.4 20.05 7.55 20.6 7.15 21.15 6.7 21.55 6.85 21.9 7.0 22.05 7.65 L21.8 9.15 Z" fill="none" stroke="#000000" stroke-linecap="round" stroke-linejoin="round" stroke-opacity="0.2" stroke-width="1.6"/>
      <path d="M29.5 18.4 L25.5 18.95 24.35 19.65 21.1 19.65 20.65 20.2 20.65 25.65 21.8 28.45 24.0 26.75 23.85 26.3 24.3 25.8 24.3 25.2 24.75 24.45 25.85 23.9 26.95 24.9 26.15 24.65 25.35 24.9 25.55 25.55 26.3 25.25 27.0 25.75 27.0 26.95 26.4 26.15 25.9 26.5 25.9 27.0 25.45 27.6 24.6 27.5 22.25 29.75 23.75 33.55 26.35 35.75 32.1 33.6 35.55 29.35 35.55 26.75 39.1 25.8 42.5 26.25 42.5 29.05 43.15 29.75 43.65 32.55 45.3 35.45 46.35 34.2 47.15 32.5 Q46.05 26.1 42.55 22.2 40.9 22.3 40.75 21.15 L40.15 21.0 39.25 21.65 Q39.7 22.8 39.1 23.75 L38.1 24.7 Q37.45 25.2 37.6 23.35 36.4 22.8 36.45 22.2 34.45 22.05 35.8 20.1 35.3 18.8 36.1 18.0 33.2 16.95 29.5 16.7 L29.5 18.4 M21.8 9.15 L22.05 7.65 Q21.9 7.0 21.55 6.85 21.15 6.7 20.6 7.15 20.05 7.55 19.6 8.4 19.2 9.15 19.3 9.9 19.45 10.55 19.9 10.75 20.3 10.85 20.9 10.4 L21.8 9.15 M29.5 16.1 L30.35 16.1 Q37.95 16.1 43.3 21.5 48.7 26.9 48.7 34.5 48.7 42.1 43.3 47.5 40.6 50.25 37.3 51.55 34.1 52.9 30.35 52.9 25.95 52.9 22.35 51.15 13.1 48.0 10.0 36.05 L8.15 36.6 6.35 33.4 10.35 29.3 11.25 30.5 12.1 28.0 12.6 25.1 11.8 25.45 10.05 22.65 12.5 19.75 13.25 21.55 13.8 18.8 14.5 16.85 13.15 17.55 12.0 14.15 15.5 11.85 16.0 12.6 16.5 11.3 19.0 6.5 27.9 3.1 28.15 2.4 28.8 2.15 30.15 3.1 30.35 3.9 31.5 4.6 33.2 11.0 30.7 14.45 29.15 10.4 27.05 13.85 25.8 10.4 23.75 14.0 22.5 10.15 21.8 11.5 21.3 13.55 21.3 16.05 22.9 13.85 23.75 16.6 26.1 13.75 27.15 15.85 29.15 13.0 29.5 14.45 29.5 16.1" fill="#000000" fill-rule="evenodd" stroke="none"/>
    </g>
  </defs>
</svg>
