<?xml version="1.0" encoding="UTF-8" standalone="no"?>
<svg xmlns:ffdec="https://www.free-decompiler.com/flash" xmlns:xlink="http://www.w3.org/1999/xlink" ffdec:objectType="frame" height="56.0px" width="56.0px" xmlns="http://www.w3.org/2000/svg">
  <g transform="matrix(1.0, 0.0, 0.0, 1.0, 0.0, 0.0)">
    <use ffdec:characterId="2" height="56.0" id="back" transform="matrix(1.0, 0.0, 0.0, 1.0, 0.0, 0.0)" width="56.0" xlink:href="#sprite0"/>
    <use ffdec:characterId="3" height="49.9" transform="matrix(1.0, 0.0, 0.0, 1.0, 5.45, 2.1)" width="45.55" xlink:href="#shape1"/>
  </g>
  <defs>
    <g id="sprite0" transform="matrix(1.0, 0.0, 0.0, 1.0, 0.0, 0.0)">
      <use ffdec:characterId="1" height="56.0" transform="matrix(1.0, 0.0, 0.0, 1.0, 0.0, 0.0)" width="56.0" xlink:href="#shape0"/>
    </g>
    <g id="shape0" transform="matrix(1.0, 0.0, 0.0, 1.0, 0.0, 0.0)">
      <path d="M56.0 56.0 L0.0 56.0 0.0 0.0 56.0 0.0 56.0 56.0" fill="#010101" fill-opacity="0.0" fill-rule="evenodd" stroke="none"/>
    </g>
    <g id="shape1" transform="matrix(1.0, 0.0, 0.0, 1.0, -5.45, -2.1)">
      <path d="M10.75 9.2 L12.1 9.2 Q12.0 11.9 12.95 15.2 11.8 14.05 10.75 13.35 L10.75 9.2 M7.35 26.05 L10.95 26.2 Q11.05 30.15 13.1 32.55 11.85 33.95 11.3 36.15 7.5 33.5 6.55 29.85 5.65 26.2 7.35 26.05 M10.15 14.4 L14.2 17.15 Q12.9 20.2 13.8 22.2 12.0 22.75 11.15 25.2 6.95 21.05 7.15 16.75 7.4 12.45 10.15 14.4 M44.4 9.2 L44.4 13.3 Q47.2 11.4 48.45 12.8 50.2 14.8 49.3 18.65 48.4 22.45 45.8 25.0 49.9 24.5 50.15 26.7 50.4 28.85 49.7 31.2 49.0 33.55 46.2 36.1 50.05 37.2 46.15 42.25 44.45 44.4 40.95 45.3 35.9 48.5 29.95 50.65 L28.5 51.15 28.5 45.4 26.8 46.0 26.8 51.2 25.25 50.65 Q19.25 48.5 14.25 45.3 L20.2 45.9 Q19.2 45.45 18.35 44.65 15.6 44.75 14.3 43.95 15.3 43.1 16.75 42.6 L16.5 41.8 Q14.95 40.8 13.85 38.7 12.3 35.75 15.2 33.1 10.0 25.0 16.05 23.5 14.75 20.15 16.1 18.55 17.45 16.9 21.1 18.8 20.55 14.9 21.9 14.4 L24.8 20.1 Q20.9 16.4 22.0 25.9 19.0 23.85 17.55 25.4 16.1 26.9 19.25 32.45 15.9 31.5 15.85 34.5 15.8 36.1 17.0 37.35 17.4 36.3 18.15 35.2 L18.05 34.75 Q17.9 33.75 19.2 33.7 L19.4 33.4 20.75 31.85 19.85 29.5 Q19.45 27.5 20.65 27.45 21.55 27.4 23.3 28.6 L24.2 27.2 Q23.65 24.6 23.8 23.3 24.0 21.45 25.5 22.15 L26.4 23.7 27.6 21.65 28.5 19.95 28.5 9.2 33.5 9.2 Q36.9 2.55 39.05 2.9 41.8 3.4 42.7 6.95 L43.05 9.2 44.4 9.2 M37.05 7.0 Q35.05 10.25 34.8 11.85 36.05 12.75 35.65 16.1 37.0 15.55 38.1 15.5 39.2 15.45 40.4 16.4 42.6 10.3 40.9 7.05 39.1 3.8 37.05 7.0 M8.95 37.5 Q9.85 36.9 11.45 37.15 12.9 41.2 14.75 41.85 13.4 41.95 12.6 43.4 10.95 42.65 9.5 40.35 8.05 38.1 8.95 37.5 M18.05 7.0 Q20.1 10.25 20.35 11.85 19.05 12.75 19.5 16.1 18.15 15.55 17.05 15.5 15.95 15.45 14.75 16.4 12.5 10.3 14.3 7.05 16.05 3.8 18.05 7.0 M24.0 14.25 L21.65 9.2 26.8 9.2 26.8 20.2 24.0 14.25 M46.2 37.5 Q45.3 36.9 43.65 37.15 42.25 41.2 40.4 41.85 41.75 41.95 42.5 43.4 44.2 42.65 45.6 40.35 47.1 38.1 46.2 37.5 M47.8 26.05 L44.2 26.2 Q44.1 30.15 42.05 32.55 43.25 33.95 43.85 36.15 47.65 33.5 48.55 29.85 49.5 26.2 47.8 26.05 M45.0 14.4 L40.9 17.15 Q42.25 20.2 41.35 22.2 43.15 22.75 44.0 25.2 48.2 21.05 48.0 16.75 47.75 12.45 45.0 14.4 M25.2 37.05 Q24.95 35.1 26.15 34.15 L29.4 34.0 Q31.5 35.15 31.35 38.4 31.25 41.25 29.7 43.45 32.55 43.35 33.75 42.35 35.0 41.3 32.6 39.1 33.65 38.95 35.25 37.7 36.8 36.5 37.1 34.75 37.35 33.0 33.0 34.1 34.85 31.4 35.3 29.5 35.7 27.5 34.45 27.45 33.2 27.35 30.3 29.7 31.55 25.15 31.35 23.3 31.15 21.45 29.65 22.15 L27.8 25.25 Q26.45 27.6 24.0 30.05 L21.25 33.2 Q19.55 35.4 18.95 36.6 18.4 37.8 18.1 39.65 17.85 41.5 18.85 43.55 19.9 45.6 23.8 45.2 27.75 44.75 29.3 41.75 L30.05 39.65 30.15 38.75 Q30.25 37.9 29.95 37.05 29.45 35.35 27.95 35.0 26.45 34.7 25.65 35.9 L25.2 37.05 M33.15 25.9 Q36.15 23.85 37.6 25.4 39.05 26.9 35.9 32.45 39.2 31.5 39.3 34.5 39.4 37.5 35.15 39.3 38.4 43.35 32.95 44.25 L40.85 43.95 Q39.55 42.85 37.45 42.35 39.8 41.6 41.35 38.7 42.85 35.75 39.9 33.1 45.15 25.0 39.1 23.5 40.4 20.15 39.05 18.55 37.7 16.9 34.0 18.8 34.6 14.9 33.25 14.4 L30.35 20.1 Q34.25 16.4 33.15 25.9" fill="#000000" fill-rule="evenodd" stroke="none"/>
      <path d="M10.75 9.2 L12.1 9.2 Q12.0 11.9 12.95 15.2 11.8 14.05 10.75 13.35 L10.75 9.2 M10.15 14.4 Q7.4 12.45 7.15 16.75 6.95 21.05 11.15 25.2 12.0 22.75 13.8 22.2 12.9 20.2 14.2 17.15 L10.15 14.4 M7.35 26.05 Q5.65 26.2 6.55 29.85 7.5 33.5 11.3 36.15 11.85 33.95 13.1 32.55 11.05 30.15 10.95 26.2 L7.35 26.05 M44.4 9.2 L44.4 13.3 Q47.2 11.4 48.45 12.8 50.2 14.8 49.3 18.65 48.4 22.45 45.8 25.0 49.9 24.5 50.15 26.7 50.4 28.85 49.7 31.2 49.0 33.55 46.2 36.1 50.05 37.2 46.15 42.25 44.45 44.4 40.95 45.3 35.9 48.5 29.95 50.65 L28.5 51.15 28.5 45.4 26.8 46.0 26.8 51.2 25.25 50.65 Q19.25 48.5 14.25 45.3 L20.2 45.9 Q19.2 45.45 18.35 44.65 15.6 44.75 14.3 43.95 15.3 43.1 16.75 42.6 L16.5 41.8 Q14.95 40.8 13.85 38.7 12.3 35.75 15.2 33.1 10.0 25.0 16.05 23.5 14.75 20.15 16.1 18.55 17.45 16.9 21.1 18.8 20.55 14.9 21.9 14.4 L24.8 20.1 Q20.9 16.4 22.0 25.9 19.0 23.85 17.55 25.4 16.1 26.9 19.25 32.45 15.9 31.5 15.85 34.5 15.8 36.1 17.0 37.35 17.4 36.3 18.15 35.2 L18.05 34.75 Q17.9 33.75 19.2 33.7 L19.4 33.4 20.75 31.85 19.85 29.5 Q19.45 27.5 20.65 27.45 21.55 27.4 23.3 28.6 L24.2 27.2 Q23.65 24.6 23.8 23.3 24.0 21.45 25.5 22.15 L26.4 23.7 27.6 21.65 28.5 19.95 28.5 9.2 33.5 9.2 Q36.9 2.55 39.05 2.9 41.8 3.4 42.7 6.95 L43.05 9.2 44.4 9.2 M18.05 7.0 Q16.05 3.8 14.3 7.05 12.5 10.3 14.75 16.4 15.95 15.45 17.05 15.5 18.15 15.55 19.5 16.1 19.05 12.75 20.35 11.85 20.1 10.25 18.05 7.0 M8.95 37.5 Q8.05 38.1 9.5 40.35 10.95 42.65 12.6 43.4 13.4 41.95 14.75 41.85 12.9 41.2 11.45 37.15 9.85 36.9 8.95 37.5 M37.05 7.0 Q39.1 3.8 40.9 7.05 42.6 10.3 40.4 16.4 39.2 15.45 38.1 15.5 37.0 15.55 35.65 16.1 36.05 12.75 34.8 11.85 35.05 10.25 37.05 7.0 M24.0 14.25 L21.65 9.2 26.8 9.2 26.8 20.2 24.0 14.25 M33.15 25.9 Q34.25 16.4 30.35 20.1 L33.25 14.4 Q34.6 14.9 34.0 18.8 37.7 16.9 39.05 18.55 40.4 20.15 39.1 23.5 45.15 25.0 39.9 33.1 42.85 35.75 41.35 38.7 39.8 41.6 37.45 42.35 39.55 42.85 40.85 43.95 L32.95 44.25 Q38.4 43.35 35.15 39.3 39.4 37.5 39.3 34.5 39.2 31.5 35.9 32.45 39.05 26.9 37.6 25.4 36.15 23.85 33.15 25.9 M25.2 37.05 L25.65 35.9 Q26.45 34.7 27.95 35.0 29.45 35.35 29.95 37.05 30.25 37.9 30.15 38.75 L30.05 39.65 29.3 41.75 Q27.75 44.75 23.8 45.2 19.9 45.6 18.85 43.55 17.85 41.5 18.1 39.65 18.4 37.8 18.95 36.6 19.55 35.4 21.25 33.2 L24.0 30.05 Q26.45 27.6 27.8 25.25 L29.65 22.15 Q31.15 21.45 31.35 23.3 31.55 25.15 30.3 29.7 33.2 27.35 34.45 27.45 35.7 27.5 35.3 29.5 34.85 31.4 33.0 34.1 37.35 33.0 37.1 34.75 36.8 36.5 35.25 37.7 33.65 38.95 32.6 39.1 35.0 41.3 33.75 42.35 32.55 43.35 29.7 43.45 31.25 41.25 31.35 38.4 31.5 35.15 29.4 34.0 L26.15 34.15 Q24.95 35.1 25.2 37.05 M45.0 14.4 Q47.75 12.45 48.0 16.75 48.2 21.05 44.0 25.2 43.15 22.75 41.35 22.2 42.25 20.2 40.9 17.15 L45.0 14.4 M47.8 26.05 Q49.5 26.2 48.55 29.85 47.65 33.5 43.85 36.15 43.25 33.95 42.05 32.55 44.1 30.15 44.2 26.2 L47.8 26.05 M46.2 37.5 Q47.1 38.1 45.6 40.35 44.2 42.65 42.5 43.4 41.75 41.95 40.4 41.85 42.25 41.2 43.65 37.15 45.3 36.9 46.2 37.5 Z" fill="none" stroke="#000000" stroke-linecap="round" stroke-linejoin="round" stroke-opacity="0.2" stroke-width="1.6"/>
      <path d="M10.75 9.2 L12.1 9.2 Q12.0 11.9 12.95 15.2 11.8 14.05 10.75 13.35 L10.75 9.2 M7.35 26.05 L10.95 26.2 Q11.05 30.15 13.1 32.55 11.85 33.95 11.3 36.15 7.5 33.5 6.55 29.85 5.65 26.2 7.35 26.05 M10.15 14.4 L14.2 17.15 Q12.9 20.2 13.8 22.2 12.0 22.75 11.15 25.2 6.95 21.05 7.15 16.75 7.4 12.45 10.15 14.4 M44.4 9.2 L44.4 13.3 Q47.2 11.4 48.45 12.8 50.2 14.8 49.3 18.65 48.4 22.45 45.8 25.0 49.9 24.5 50.15 26.7 50.4 28.85 49.7 31.2 49.0 33.55 46.2 36.1 50.05 37.2 46.15 42.25 44.45 44.4 40.95 45.3 35.9 48.5 29.95 50.65 L28.5 51.15 28.5 45.4 26.8 46.0 26.8 51.2 25.25 50.65 Q19.25 48.5 14.25 45.3 L20.2 45.9 Q19.2 45.45 18.35 44.65 15.6 44.75 14.3 43.95 15.3 43.1 16.75 42.6 L16.5 41.8 Q14.95 40.8 13.85 38.7 12.3 35.75 15.2 33.1 10.0 25.0 16.05 23.5 14.75 20.15 16.1 18.55 17.45 16.9 21.1 18.8 20.55 14.9 21.9 14.4 L24.8 20.1 Q20.9 16.4 22.0 25.9 19.0 23.85 17.55 25.4 16.1 26.9 19.25 32.45 15.9 31.5 15.85 34.5 15.8 36.1 17.0 37.35 17.4 36.3 18.15 35.2 L18.05 34.75 Q17.9 33.75 19.2 33.7 L19.4 33.4 20.75 31.85 19.85 29.5 Q19.45 27.5 20.65 27.45 21.55 27.4 23.3 28.6 L24.2 27.2 Q23.65 24.6 23.8 23.3 24.0 21.45 25.5 22.15 L26.4 23.7 27.6 21.65 28.5 19.95 28.5 9.2 33.5 9.2 Q36.9 2.55 39.05 2.9 41.8 3.4 42.7 6.95 L43.05 9.2 44.4 9.2 M37.05 7.0 Q35.05 10.25 34.8 11.85 36.05 12.75 35.65 16.1 37.0 15.55 38.1 15.5 39.2 15.45 40.4 16.4 42.6 10.3 40.9 7.05 39.1 3.8 37.05 7.0 M8.95 37.5 Q9.85 36.9 11.45 37.15 12.9 41.2 14.75 41.85 13.4 41.95 12.6 43.4 10.95 42.65 9.5 40.35 8.05 38.1 8.95 37.5 M18.05 7.0 Q20.1 10.25 20.35 11.85 19.05 12.75 19.5 16.1 18.15 15.55 17.05 15.5 15.95 15.45 14.75 16.4 12.5 10.3 14.3 7.05 16.05 3.8 18.05 7.0 M24.0 14.25 L21.65 9.2 26.8 9.2 26.8 20.2 24.0 14.25 M46.2 37.5 Q45.3 36.9 43.65 37.15 42.25 41.2 40.4 41.85 41.75 41.95 42.5 43.4 44.2 42.65 45.6 40.35 47.1 38.1 46.2 37.5 M47.8 26.05 L44.2 26.2 Q44.1 30.15 42.05 32.55 43.25 33.95 43.85 36.15 47.65 33.5 48.55 29.85 49.5 26.2 47.8 26.05 M45.0 14.4 L40.9 17.15 Q42.25 20.2 41.35 22.2 43.15 22.75 44.0 25.2 48.2 21.05 48.0 16.75 47.75 12.45 45.0 14.4 M25.2 37.05 Q24.95 35.1 26.15 34.15 L29.4 34.0 Q31.5 35.15 31.35 38.4 31.25 41.25 29.7 43.45 32.55 43.35 33.75 42.35 35.0 41.3 32.6 39.1 33.65 38.95 35.25 37.7 36.8 36.5 37.1 34.75 37.35 33.0 33.0 34.1 34.85 31.4 35.3 29.5 35.7 27.5 34.45 27.45 33.2 27.35 30.3 29.7 31.55 25.15 31.35 23.3 31.15 21.45 29.65 22.15 L27.8 25.25 Q26.45 27.6 24.0 30.05 L21.25 33.2 Q19.55 35.4 18.95 36.6 18.4 37.8 18.1 39.65 17.85 41.5 18.85 43.55 19.9 45.6 23.8 45.2 27.75 44.75 29.3 41.75 L30.05 39.65 30.15 38.75 Q30.25 37.9 29.95 37.05 29.45 35.35 27.95 35.0 26.45 34.7 25.65 35.9 L25.2 37.05 M33.15 25.9 Q36.15 23.85 37.6 25.4 39.05 26.9 35.9 32.45 39.2 31.5 39.3 34.5 39.4 37.5 35.15 39.3 38.4 43.35 32.95 44.25 L40.85 43.95 Q39.55 42.85 37.45 42.35 39.8 41.6 41.35 38.7 42.85 35.75 39.9 33.1 45.15 25.0 39.1 23.5 40.4 20.15 39.05 18.55 37.7 16.9 34.0 18.8 34.6 14.9 33.25 14.4 L30.35 20.1 Q34.25 16.4 33.15 25.9" fill="#000000" fill-rule="evenodd" stroke="none"/>
    </g>
  </defs>
</svg>
