<?xml version="1.0" encoding="UTF-8" standalone="no"?>
<svg xmlns:ffdec="https://www.free-decompiler.com/flash" xmlns:xlink="http://www.w3.org/1999/xlink" ffdec:objectType="frame" height="56.0px" width="56.0px" xmlns="http://www.w3.org/2000/svg">
  <g transform="matrix(1.0, 0.0, 0.0, 1.0, 0.0, 0.0)">
    <use ffdec:characterId="2" height="56.0" id="back" transform="matrix(1.0, 0.0, 0.0, 1.0, 0.0, 0.0)" width="56.0" xlink:href="#sprite0"/>
    <use ffdec:characterId="3" height="49.1" transform="matrix(1.0, 0.0, 0.0, 1.0, 8.85, 2.8)" width="34.8" xlink:href="#shape1"/>
  </g>
  <defs>
    <g id="sprite0" transform="matrix(1.0, 0.0, 0.0, 1.0, 0.0, 0.0)">
      <use ffdec:characterId="1" height="56.0" transform="matrix(1.0, 0.0, 0.0, 1.0, 0.0, 0.0)" width="56.0" xlink:href="#shape0"/>
    </g>
    <g id="shape0" transform="matrix(1.0, 0.0, 0.0, 1.0, 0.0, 0.0)">
      <path d="M56.0 56.0 L0.0 56.0 0.0 0.0 56.0 0.0 56.0 56.0" fill="#010101" fill-opacity="0.0" fill-rule="evenodd" stroke="none"/>
    </g>
    <g id="shape1" transform="matrix(1.0, 0.0, 0.0, 1.0, -8.85, -2.8)">
      <path d="M42.15 36.1 Q41.65 39.4 40.7 40.9 38.25 42.7 34.8 43.6 35.55 40.55 35.1 37.85 31.05 38.45 27.95 42.2 26.85 41.85 25.45 42.2 22.25 39.05 18.3 37.8 17.8 41.3 18.65 44.65 10.3 43.7 10.3 36.5 11.5 37.9 13.15 37.9 14.85 37.9 16.05 36.4 17.25 34.95 17.25 32.85 17.25 30.75 16.05 29.25 L14.65 28.1 Q18.15 26.4 23.7 26.15 L30.55 26.15 Q29.95 20.15 30.0 13.6 29.5 3.55 34.85 3.65 38.85 3.15 41.75 11.1 44.6 19.1 39.95 28.65 42.8 31.95 42.15 36.1 M23.8 8.1 Q27.3 10.1 28.5 11.85 28.4 16.8 29.4 25.15 25.75 24.95 23.15 25.2 13.05 13.4 15.8 9.25 18.5 5.1 23.8 8.1 M16.25 32.75 Q16.25 34.4 15.25 35.6 14.3 36.8 12.95 36.8 11.55 36.8 10.6 35.6 L10.15 34.95 Q9.65 34.0 9.65 32.75 9.65 31.05 10.6 29.9 L11.45 29.1 12.95 28.7 Q14.3 28.7 15.25 29.9 16.25 31.05 16.25 32.75 M24.65 43.05 Q23.55 45.1 24.45 47.4 22.1 50.7 19.2 51.1 19.1 48.2 19.95 45.35 19.05 42.35 19.2 39.25 21.7 39.7 24.65 43.05 M31.75 33.55 Q31.75 32.75 31.15 32.15 30.55 31.55 29.75 31.55 28.9 31.55 28.35 32.15 27.75 32.75 27.75 33.55 27.75 34.35 28.35 34.95 28.85 35.5 29.55 35.55 L29.6 35.55 29.7 35.55 29.85 35.55 Q30.6 35.55 31.15 34.95 31.75 34.35 31.75 33.55 M24.85 43.35 Q26.5 42.95 28.2 43.35 27.8 45.15 28.2 46.95 26.5 47.5 24.85 46.95 23.9 45.2 24.85 43.35 M28.85 42.95 Q31.55 39.7 34.0 39.25 34.15 42.35 33.25 45.35 34.1 48.2 34.0 51.1 30.55 50.35 28.9 47.45 27.95 45.15 28.85 42.95 M39.7 42.25 Q39.35 43.45 39.45 44.3 38.3 46.3 34.5 47.1 L34.1 45.5 34.35 44.85 Q38.15 44.0 39.7 42.25" fill="#000000" fill-rule="evenodd" stroke="none"/>
      <path d="M42.15 36.1 Q42.8 31.95 39.95 28.65 44.6 19.1 41.75 11.1 38.85 3.15 34.85 3.65 29.5 3.55 30.0 13.6 29.95 20.15 30.55 26.15 L23.7 26.15 Q18.15 26.4 14.65 28.1 L16.05 29.25 Q17.25 30.75 17.25 32.85 17.25 34.95 16.05 36.4 14.85 37.9 13.15 37.9 11.5 37.9 10.3 36.5 10.3 43.7 18.65 44.65 17.8 41.3 18.3 37.8 22.25 39.05 25.45 42.2 26.85 41.85 27.95 42.2 31.05 38.45 35.1 37.85 35.55 40.55 34.8 43.6 38.25 42.7 40.7 40.9 41.65 39.4 42.15 36.1 M23.8 8.1 Q18.5 5.1 15.8 9.25 13.05 13.4 23.15 25.2 25.75 24.95 29.4 25.15 28.4 16.8 28.5 11.85 27.3 10.1 23.8 8.1 M16.25 32.75 Q16.25 34.4 15.25 35.6 14.3 36.8 12.95 36.8 11.55 36.8 10.6 35.6 L10.15 34.95 Q9.65 34.0 9.65 32.75 9.65 31.05 10.6 29.9 L11.45 29.1 12.95 28.7 Q14.3 28.7 15.25 29.9 16.25 31.05 16.25 32.75 M24.65 43.05 Q21.7 39.7 19.2 39.25 19.05 42.35 19.95 45.35 19.1 48.2 19.2 51.1 22.1 50.7 24.45 47.4 23.55 45.1 24.65 43.05 M24.85 43.35 Q26.5 42.95 28.2 43.35 27.8 45.15 28.2 46.95 26.5 47.5 24.85 46.95 23.9 45.2 24.85 43.35 M28.85 42.95 Q31.55 39.7 34.0 39.25 34.15 42.35 33.25 45.35 34.1 48.2 34.0 51.1 30.55 50.35 28.9 47.45 27.95 45.15 28.85 42.95 M39.7 42.25 Q39.35 43.45 39.45 44.3 38.3 46.3 34.5 47.1 L34.1 45.5 34.35 44.85 Q38.15 44.0 39.7 42.25" fill="none" stroke="#000000" stroke-linecap="round" stroke-linejoin="round" stroke-opacity="0.2" stroke-width="1.6"/>
      <path d="M31.75 33.55 Q31.75 34.35 31.15 34.95 30.6 35.55 29.85 35.55 L29.7 35.55 29.6 35.55 29.55 35.55 Q28.85 35.5 28.35 34.95 27.75 34.35 27.75 33.55 27.75 32.75 28.35 32.15 28.9 31.55 29.75 31.55 30.55 31.55 31.15 32.15 31.75 32.75 31.75 33.55 Z" fill="none" stroke="#000000" stroke-linecap="round" stroke-linejoin="round" stroke-opacity="0.2" stroke-width="1.0"/>
      <path d="M23.8 8.1 Q27.3 10.1 28.5 11.85 28.4 16.8 29.4 25.15 25.75 24.95 23.15 25.2 13.05 13.4 15.8 9.25 18.5 5.1 23.8 8.1 M16.25 32.75 Q16.25 34.4 15.25 35.6 14.3 36.8 12.95 36.8 11.55 36.8 10.6 35.6 L10.15 34.95 Q9.65 34.0 9.65 32.75 9.65 31.05 10.6 29.9 L11.45 29.1 12.95 28.7 Q14.3 28.7 15.25 29.9 16.25 31.05 16.25 32.75 M31.75 33.55 Q31.75 32.75 31.15 32.15 30.55 31.55 29.75 31.55 28.9 31.55 28.35 32.15 27.75 32.75 27.75 33.55 27.75 34.35 28.35 34.95 28.85 35.5 29.55 35.55 L29.6 35.55 29.7 35.55 29.85 35.55 Q30.6 35.55 31.15 34.95 31.75 34.35 31.75 33.55 M42.15 36.1 Q41.65 39.4 40.7 40.9 38.25 42.7 34.8 43.6 35.55 40.55 35.1 37.85 31.05 38.45 27.95 42.2 26.85 41.85 25.45 42.2 22.25 39.05 18.3 37.8 17.8 41.3 18.65 44.65 10.3 43.7 10.3 36.5 11.5 37.9 13.15 37.9 14.85 37.9 16.05 36.4 17.25 34.95 17.25 32.85 17.25 30.75 16.05 29.25 L14.65 28.1 Q18.15 26.4 23.7 26.15 L30.55 26.15 Q29.95 20.15 30.0 13.6 29.5 3.55 34.85 3.65 38.85 3.15 41.75 11.1 44.6 19.1 39.95 28.65 42.8 31.95 42.15 36.1 M24.85 43.35 Q26.5 42.95 28.2 43.35 27.8 45.15 28.2 46.95 26.5 47.5 24.85 46.95 23.9 45.2 24.85 43.35 M24.65 43.05 Q23.55 45.1 24.45 47.4 22.1 50.7 19.2 51.1 19.1 48.2 19.95 45.35 19.05 42.35 19.2 39.25 21.7 39.7 24.65 43.05 M28.85 42.95 Q31.55 39.7 34.0 39.25 34.15 42.35 33.25 45.35 34.1 48.2 34.0 51.1 30.55 50.35 28.9 47.45 27.95 45.15 28.85 42.95 M39.7 42.25 Q39.35 43.45 39.45 44.3 38.3 46.3 34.5 47.1 L34.1 45.5 34.35 44.85 Q38.15 44.0 39.7 42.25" fill="#000000" fill-rule="evenodd" stroke="none"/>
      <path d="M39.7 42.25 Q39.35 43.45 39.45 44.3 38.3 46.3 34.5 47.1 L34.1 45.5 34.35 44.85 Q38.15 44.0 39.7 42.25 Z" fill="none" stroke="#000000" stroke-linecap="round" stroke-linejoin="round" stroke-opacity="0.2" stroke-width="1.6"/>
    </g>
  </defs>
</svg>
