<?xml version="1.0" encoding="UTF-8" standalone="no"?>
<svg xmlns:ffdec="https://www.free-decompiler.com/flash" xmlns:xlink="http://www.w3.org/1999/xlink" ffdec:objectType="frame" height="56.0px" width="56.0px" xmlns="http://www.w3.org/2000/svg">
  <g transform="matrix(1.0, 0.0, 0.0, 1.0, 0.0, 0.0)">
    <use ffdec:characterId="2" height="56.0" id="back" transform="matrix(1.0, 0.0, 0.0, 1.0, 0.0, 0.0)" width="56.0" xlink:href="#sprite0"/>
    <use ffdec:characterId="3" height="47.75" transform="matrix(1.0, 0.0, 0.0, 1.0, 1.7, 4.15)" width="52.4" xlink:href="#shape1"/>
  </g>
  <defs>
    <g id="sprite0" transform="matrix(1.0, 0.0, 0.0, 1.0, 0.0, 0.0)">
      <use ffdec:characterId="1" height="56.0" transform="matrix(1.0, 0.0, 0.0, 1.0, 0.0, 0.0)" width="56.0" xlink:href="#shape0"/>
    </g>
    <g id="shape0" transform="matrix(1.0, 0.0, 0.0, 1.0, 0.0, 0.0)">
      <path d="M56.0 56.0 L0.0 56.0 0.0 0.0 56.0 0.0 56.0 56.0" fill="#010101" fill-opacity="0.0" fill-rule="evenodd" stroke="none"/>
    </g>
    <g id="shape1" transform="matrix(1.0, 0.0, 0.0, 1.0, -1.7, -4.15)">
      <path d="M43.4 22.85 L42.9 21.9 41.65 22.15 Q41.25 21.7 40.85 20.25 L39.3 20.45 Q38.25 20.85 37.35 21.9 36.75 22.95 37.1 23.9 L39.85 24.1 39.95 25.65 41.15 25.7 41.5 27.6 42.2 27.95 42.9 28.25 Q43.95 26.95 45.0 26.35 45.4 27.65 45.05 29.65 L45.75 30.4 Q45.15 34.05 40.15 35.75 L40.8 33.4 39.3 34.2 39.75 31.55 Q38.55 29.65 34.75 29.0 31.85 30.15 29.45 29.55 29.4 28.15 30.2 24.35 L25.3 24.5 Q25.0 22.05 25.55 20.25 22.5 18.35 21.1 16.35 23.45 14.85 25.45 14.55 24.7 11.95 25.25 9.8 26.6 11.1 28.25 11.7 L28.2 8.65 Q28.0 7.9 27.4 7.3 28.1 7.35 28.45 7.7 27.95 6.7 28.05 4.95 28.9 6.3 29.95 7.0 32.6 7.9 35.35 11.5 L34.7 10.35 Q37.3 10.2 39.4 11.9 L38.55 12.9 Q40.35 11.5 41.35 11.2 42.9 13.5 42.85 16.95 43.4 16.0 44.0 15.85 L44.55 16.6 Q47.1 16.2 49.25 17.0 51.6 16.35 53.25 17.65 53.7 21.05 50.9 22.75 L48.95 24.0 48.2 23.95 Q47.65 25.5 46.45 26.85 45.95 25.6 45.65 23.15 L45.0 22.75 43.4 22.85 M23.15 40.6 Q22.4 37.7 22.9 34.05 22.1 34.6 20.6 34.9 20.2 33.1 20.3 32.15 18.2 32.0 15.65 33.25 15.7 29.0 16.7 25.8 L14.8 25.6 Q15.7 24.55 16.0 23.5 11.85 23.95 9.7 19.4 L14.35 17.85 Q16.45 17.0 18.15 17.8 16.75 16.45 16.1 13.65 18.85 14.7 22.65 14.6 20.8 15.05 19.65 16.2 22.0 19.6 24.1 20.8 23.75 22.65 24.15 25.55 L29.0 25.8 Q28.35 26.9 28.35 30.5 L33.8 30.35 Q32.3 33.5 32.65 40.85 30.25 39.8 28.9 37.6 L27.7 39.85 Q27.05 38.8 26.95 37.4 24.95 38.7 23.15 40.6 M22.25 48.65 Q19.95 45.9 19.35 41.5 18.85 42.5 17.45 43.05 L17.35 40.1 Q15.7 41.55 12.35 42.25 11.5 38.7 12.9 35.55 L10.25 35.9 Q10.1 34.2 11.05 32.75 5.35 33.1 2.5 28.2 4.85 27.5 6.25 25.45 7.65 23.35 10.4 22.45 13.1 25.2 14.3 24.55 14.0 25.75 13.0 26.95 L15.0 26.95 Q14.55 30.2 14.6 35.05 17.75 33.35 19.15 33.4 19.15 35.3 19.95 36.55 L21.65 36.1 Q21.2 38.55 22.65 42.9 24.5 40.5 26.3 39.4 26.75 40.8 27.75 42.2 L29.15 39.9 Q29.75 40.65 31.9 41.6 32.0 44.35 31.3 46.5 30.35 49.3 30.65 51.1 25.3 48.25 24.5 43.95 23.75 46.85 22.25 48.65 M43.35 17.9 Q43.75 17.25 44.55 16.9 43.45 16.65 43.35 17.9 M38.6 16.35 L38.6 16.55 38.45 17.6 38.05 18.0 Q37.8 18.0 37.65 17.6 37.5 17.15 37.5 16.55 L37.5 16.0 Q35.65 15.45 34.25 15.25 L33.65 15.0 33.65 13.7 33.25 15.2 34.3 15.9 Q34.45 19.45 37.6 19.4 39.75 19.2 40.65 17.75 L41.55 17.75 42.35 17.1 41.3 17.35 40.6 17.1 38.6 16.35 M41.75 21.7 L43.1 21.5 Q43.15 21.95 43.55 22.5 L44.55 22.45 43.7 21.8 Q42.5 20.75 41.45 20.4 L41.75 21.7 M29.95 9.15 Q29.75 12.9 30.55 16.4 30.65 15.8 31.25 15.1 L31.05 13.5 Q31.65 13.5 32.35 13.95 32.35 13.05 32.5 12.3 L33.55 13.25 34.35 12.75 Q31.8 9.75 29.95 9.15 M37.5 24.55 Q38.65 26.1 40.6 27.15 L41.15 27.45 41.2 27.45 40.9 26.05 39.55 26.1 39.45 24.55 Q39.1 24.35 37.5 24.55 M46.55 26.2 L47.7 23.9 46.2 23.4 46.55 26.2 M34.45 22.65 Q35.75 20.75 37.65 20.35 34.9 20.3 34.45 22.65 M44.75 27.0 Q44.05 27.35 43.2 28.45 L44.6 29.3 Q45.05 28.1 44.75 27.0 M50.6 22.45 Q53.25 20.75 52.8 18.05 51.55 16.95 49.5 17.6 49.15 20.2 50.6 22.45" fill="#000000" fill-rule="evenodd" stroke="none"/>
      <path d="M43.4 22.85 L42.9 21.9 41.65 22.15 Q41.25 21.7 40.85 20.25 L39.3 20.45 Q38.25 20.85 37.35 21.9 36.75 22.95 37.1 23.9 L39.85 24.1 39.95 25.65 41.15 25.7 41.5 27.6 42.2 27.95 42.9 28.25 Q43.95 26.95 45.0 26.35 45.4 27.65 45.05 29.65 L45.75 30.4 Q45.15 34.05 40.15 35.75 L40.8 33.4 39.3 34.2 39.75 31.55 Q38.55 29.65 34.75 29.0 31.85 30.15 29.45 29.55 29.4 28.15 30.2 24.35 L25.3 24.5 Q25.0 22.05 25.55 20.25 22.5 18.35 21.1 16.35 23.45 14.85 25.45 14.55 24.7 11.95 25.25 9.8 26.6 11.1 28.25 11.7 L28.2 8.65 Q28.0 7.9 27.4 7.3 28.1 7.35 28.45 7.7 27.95 6.7 28.05 4.95 28.9 6.3 29.95 7.0 32.6 7.9 35.35 11.5 L34.7 10.35 Q37.3 10.2 39.4 11.9 L38.55 12.9 Q40.35 11.5 41.35 11.2 42.9 13.5 42.85 16.95 43.4 16.0 44.0 15.85 L44.55 16.6 Q47.1 16.2 49.25 17.0 51.6 16.35 53.25 17.65 53.7 21.05 50.9 22.75 L48.95 24.0 48.2 23.95 Q47.65 25.5 46.45 26.85 45.95 25.6 45.65 23.15 L45.0 22.75 43.4 22.85 M23.15 40.6 Q22.4 37.7 22.9 34.05 22.1 34.6 20.6 34.9 20.2 33.1 20.3 32.15 18.2 32.0 15.65 33.25 15.7 29.0 16.7 25.8 L14.8 25.6 Q15.7 24.55 16.0 23.5 11.85 23.95 9.7 19.4 L14.35 17.85 Q16.45 17.0 18.15 17.8 16.75 16.45 16.1 13.65 18.85 14.7 22.65 14.6 20.8 15.05 19.65 16.2 22.0 19.6 24.1 20.8 23.75 22.65 24.15 25.55 L29.0 25.8 Q28.35 26.9 28.35 30.5 L33.8 30.35 Q32.3 33.5 32.65 40.85 30.25 39.8 28.9 37.6 L27.7 39.85 Q27.05 38.8 26.95 37.4 24.95 38.7 23.15 40.6 M22.25 48.65 Q19.95 45.9 19.35 41.5 18.85 42.5 17.45 43.05 L17.35 40.1 Q15.7 41.55 12.35 42.25 11.5 38.7 12.9 35.55 L10.25 35.9 Q10.1 34.2 11.05 32.75 5.35 33.1 2.5 28.2 4.85 27.5 6.25 25.45 7.65 23.35 10.4 22.45 13.1 25.2 14.3 24.55 14.0 25.75 13.0 26.95 L15.0 26.95 Q14.55 30.2 14.6 35.05 17.75 33.35 19.15 33.4 19.15 35.3 19.95 36.55 L21.65 36.1 Q21.2 38.55 22.65 42.9 24.5 40.5 26.3 39.4 26.75 40.8 27.75 42.2 L29.15 39.9 Q29.75 40.65 31.9 41.6 32.0 44.35 31.3 46.5 30.35 49.3 30.65 51.1 25.3 48.25 24.5 43.95 23.75 46.85 22.25 48.65 M38.6 16.35 L38.6 16.55 38.45 17.6 38.05 18.0 Q37.8 18.0 37.65 17.6 37.5 17.15 37.5 16.55 L37.5 16.0 Q35.65 15.45 34.25 15.25 L33.65 15.0 33.65 13.7 33.25 15.2 34.3 15.9 Q34.45 19.45 37.6 19.4 39.75 19.2 40.65 17.75 L41.55 17.75 42.35 17.1 41.3 17.35 40.6 17.1 38.6 16.35 M29.95 9.15 Q31.8 9.75 34.35 12.75 L33.55 13.25 32.5 12.3 Q32.35 13.05 32.35 13.95 31.65 13.5 31.05 13.5 L31.25 15.1 Q30.65 15.8 30.55 16.4 29.75 12.9 29.95 9.15 M50.6 22.45 Q53.25 20.75 52.8 18.05 51.55 16.95 49.5 17.6 49.15 20.2 50.6 22.45 Z" fill="none" stroke="#000000" stroke-linecap="round" stroke-linejoin="round" stroke-opacity="0.2" stroke-width="1.6"/>
      <path d="M43.4 22.85 L42.9 21.9 41.65 22.15 Q41.25 21.7 40.85 20.25 L39.3 20.45 Q38.25 20.85 37.35 21.9 36.75 22.95 37.1 23.9 L39.85 24.1 39.95 25.65 41.15 25.7 41.5 27.6 42.2 27.95 42.9 28.25 Q43.95 26.95 45.0 26.35 45.4 27.65 45.05 29.65 L45.75 30.4 Q45.15 34.05 40.15 35.75 L40.8 33.4 39.3 34.2 39.75 31.55 Q38.55 29.65 34.75 29.0 31.85 30.15 29.45 29.55 29.4 28.15 30.2 24.35 L25.3 24.5 Q25.0 22.05 25.55 20.25 22.5 18.35 21.1 16.35 23.45 14.85 25.45 14.55 24.7 11.95 25.25 9.8 26.6 11.1 28.25 11.7 L28.2 8.65 Q28.0 7.9 27.4 7.3 28.1 7.35 28.45 7.7 27.95 6.7 28.05 4.95 28.9 6.3 29.95 7.0 32.6 7.9 35.35 11.5 L34.7 10.35 Q37.3 10.2 39.4 11.9 L38.55 12.9 Q40.35 11.5 41.35 11.2 42.9 13.5 42.85 16.95 43.4 16.0 44.0 15.85 L44.55 16.6 Q47.1 16.2 49.25 17.0 51.6 16.35 53.25 17.65 53.7 21.05 50.9 22.75 L48.95 24.0 48.2 23.95 Q47.65 25.5 46.45 26.85 45.95 25.6 45.65 23.15 L45.0 22.75 43.4 22.85 M23.15 40.6 Q22.4 37.7 22.9 34.05 22.1 34.6 20.6 34.9 20.2 33.1 20.3 32.15 18.2 32.0 15.65 33.25 15.7 29.0 16.7 25.8 L14.8 25.6 Q15.7 24.55 16.0 23.5 11.85 23.95 9.7 19.4 L14.35 17.85 Q16.45 17.0 18.15 17.8 16.75 16.45 16.1 13.65 18.85 14.7 22.65 14.6 20.8 15.05 19.65 16.2 22.0 19.6 24.1 20.8 23.75 22.65 24.15 25.55 L29.0 25.8 Q28.35 26.9 28.35 30.5 L33.8 30.35 Q32.3 33.5 32.65 40.85 30.25 39.8 28.9 37.6 L27.7 39.85 Q27.05 38.8 26.95 37.4 24.95 38.7 23.15 40.6 M22.25 48.65 Q19.95 45.9 19.35 41.5 18.85 42.5 17.45 43.05 L17.35 40.1 Q15.7 41.55 12.35 42.25 11.5 38.7 12.9 35.55 L10.25 35.9 Q10.1 34.2 11.05 32.75 5.35 33.1 2.5 28.2 4.85 27.5 6.25 25.45 7.65 23.35 10.4 22.45 13.1 25.2 14.3 24.55 14.0 25.75 13.0 26.95 L15.0 26.95 Q14.55 30.2 14.6 35.05 17.75 33.35 19.15 33.4 19.15 35.3 19.95 36.55 L21.65 36.1 Q21.2 38.55 22.65 42.9 24.5 40.5 26.3 39.4 26.75 40.8 27.75 42.2 L29.15 39.9 Q29.75 40.65 31.9 41.6 32.0 44.35 31.3 46.5 30.35 49.3 30.65 51.1 25.3 48.25 24.5 43.95 23.75 46.85 22.25 48.65 M43.35 17.9 Q43.75 17.25 44.55 16.9 43.45 16.65 43.35 17.9 M38.6 16.35 L38.6 16.55 38.45 17.6 38.05 18.0 Q37.8 18.0 37.65 17.6 37.5 17.15 37.5 16.55 L37.5 16.0 Q35.65 15.45 34.25 15.25 L33.65 15.0 33.65 13.7 33.25 15.2 34.3 15.9 Q34.45 19.45 37.6 19.4 39.75 19.2 40.65 17.75 L41.55 17.75 42.35 17.1 41.3 17.35 40.6 17.1 38.6 16.35 M41.75 21.7 L43.1 21.5 Q43.15 21.95 43.55 22.5 L44.55 22.45 43.7 21.8 Q42.5 20.75 41.45 20.4 L41.75 21.7 M29.95 9.15 Q29.75 12.9 30.55 16.4 30.65 15.8 31.25 15.1 L31.05 13.5 Q31.65 13.5 32.35 13.95 32.35 13.05 32.5 12.3 L33.55 13.25 34.35 12.75 Q31.8 9.75 29.95 9.15 M37.5 24.55 Q38.65 26.1 40.6 27.15 L41.15 27.45 41.2 27.45 40.9 26.05 39.55 26.1 39.45 24.55 Q39.1 24.35 37.5 24.55 M46.55 26.2 L47.7 23.9 46.2 23.4 46.55 26.2 M34.45 22.65 Q35.75 20.75 37.65 20.35 34.9 20.3 34.45 22.65 M44.75 27.0 Q44.05 27.35 43.2 28.45 L44.6 29.3 Q45.05 28.1 44.75 27.0 M50.6 22.45 Q53.25 20.75 52.8 18.05 51.55 16.95 49.5 17.6 49.15 20.2 50.6 22.45" fill="#000000" fill-rule="evenodd" stroke="none"/>
    </g>
  </defs>
</svg>
