<?xml version="1.0" encoding="UTF-8" standalone="no"?>
<svg xmlns:ffdec="https://www.free-decompiler.com/flash" xmlns:xlink="http://www.w3.org/1999/xlink" ffdec:objectType="frame" height="56.0px" width="56.0px" xmlns="http://www.w3.org/2000/svg">
  <g transform="matrix(1.0, 0.0, 0.0, 1.0, 0.0, 0.0)">
    <use ffdec:characterId="2" height="56.0" id="back" transform="matrix(1.0, 0.0, 0.0, 1.0, 0.0, 0.0)" width="56.0" xlink:href="#sprite0"/>
    <use ffdec:characterId="3" height="45.6" transform="matrix(1.0, 0.0, 0.0, 1.0, 6.25, 4.15)" width="43.35" xlink:href="#shape1"/>
  </g>
  <defs>
    <g id="sprite0" transform="matrix(1.0, 0.0, 0.0, 1.0, 0.0, 0.0)">
      <use ffdec:characterId="1" height="56.0" transform="matrix(1.0, 0.0, 0.0, 1.0, 0.0, 0.0)" width="56.0" xlink:href="#shape0"/>
    </g>
    <g id="shape0" transform="matrix(1.0, 0.0, 0.0, 1.0, 0.0, 0.0)">
      <path d="M56.0 56.0 L0.0 56.0 0.0 0.0 56.0 0.0 56.0 56.0" fill="#010101" fill-opacity="0.0" fill-rule="evenodd" stroke="none"/>
    </g>
    <g id="shape1" transform="matrix(1.0, 0.0, 0.0, 1.0, -6.25, -4.15)">
      <path d="M44.95 20.4 Q46.2 21.3 47.95 20.85 48.4 23.85 46.35 26.25 45.3 27.45 43.15 28.35 48.45 28.5 48.75 30.2 49.05 31.95 46.95 31.1 L44.45 30.65 Q43.25 30.75 41.65 32.05 40.0 33.4 38.95 36.95 37.9 40.5 35.65 43.8 36.85 41.3 36.25 39.4 L35.8 37.8 Q34.3 43.15 30.1 45.95 28.0 47.35 26.2 47.7 27.2 45.5 26.7 42.5 L26.05 40.0 Q21.1 41.75 18.85 45.5 17.65 47.35 17.5 48.95 15.9 44.95 16.7 38.7 L17.85 33.2 Q15.7 36.7 12.2 38.9 10.45 40.0 9.1 40.4 7.85 32.15 10.55 27.4 11.4 25.9 12.55 24.95 L13.6 24.3 Q11.85 24.75 9.3 24.3 L7.05 23.75 Q11.75 16.15 19.0 14.95 L23.55 14.85 25.35 15.2 Q25.15 11.05 26.6 7.6 L28.1 4.95 Q31.1 10.95 31.95 14.35 32.35 16.05 32.2 16.5 35.9 16.3 37.6 19.2 L38.45 21.15 38.6 22.1 44.95 20.4 M35.65 24.7 Q35.55 20.8 33.4 19.85 33.65 21.6 32.7 23.35 32.3 21.5 32.5 19.6 L31.0 19.6 Q26.45 20.15 27.3 25.85 32.8 28.65 35.65 24.7 M47.95 17.15 Q48.7 18.3 48.25 19.85 47.1 20.1 45.4 19.4 46.4 17.4 47.95 17.15" fill="#000000" fill-rule="evenodd" stroke="none"/>
      <path d="M44.95 20.4 L38.6 22.1 38.45 21.15 37.6 19.2 Q35.9 16.3 32.2 16.5 32.35 16.05 31.95 14.35 31.1 10.95 28.1 4.95 L26.6 7.6 Q25.15 11.05 25.35 15.2 L23.55 14.85 19.0 14.95 Q11.75 16.15 7.05 23.75 L9.3 24.3 Q11.85 24.75 13.6 24.3 L12.55 24.95 Q11.4 25.9 10.55 27.4 7.85 32.15 9.1 40.4 10.45 40.0 12.2 38.9 15.7 36.7 17.85 33.2 L16.7 38.7 Q15.9 44.95 17.5 48.95 17.65 47.35 18.85 45.5 21.1 41.75 26.05 40.0 L26.7 42.5 Q27.2 45.5 26.2 47.7 28.0 47.35 30.1 45.95 34.3 43.15 35.8 37.8 L36.25 39.4 Q36.85 41.3 35.65 43.8 37.9 40.5 38.95 36.95 40.0 33.4 41.65 32.05 43.25 30.75 44.45 30.65 L46.95 31.1 Q49.05 31.95 48.75 30.2 48.45 28.5 43.15 28.35 45.3 27.45 46.35 26.25 48.4 23.85 47.95 20.85 46.2 21.3 44.95 20.4 M35.65 24.7 Q35.55 20.8 33.4 19.85 33.65 21.6 32.7 23.35 32.3 21.5 32.5 19.6 L31.0 19.6 Q26.45 20.15 27.3 25.85 32.8 28.65 35.65 24.7 M47.95 17.15 Q46.4 17.4 45.4 19.4 47.1 20.1 48.25 19.85 48.7 18.3 47.95 17.15 Z" fill="none" stroke="#000000" stroke-linecap="round" stroke-linejoin="round" stroke-opacity="0.2" stroke-width="1.6"/>
      <path d="M44.95 20.4 Q46.2 21.3 47.95 20.85 48.4 23.85 46.35 26.25 45.3 27.45 43.15 28.35 48.45 28.5 48.75 30.2 49.05 31.95 46.95 31.1 L44.45 30.65 Q43.25 30.75 41.65 32.05 40.0 33.4 38.95 36.95 37.9 40.5 35.65 43.8 36.85 41.3 36.25 39.4 L35.8 37.8 Q34.3 43.15 30.1 45.95 28.0 47.35 26.2 47.7 27.2 45.5 26.7 42.5 L26.05 40.0 Q21.1 41.75 18.85 45.5 17.65 47.35 17.5 48.95 15.9 44.95 16.7 38.7 L17.85 33.2 Q15.7 36.7 12.2 38.9 10.45 40.0 9.1 40.4 7.85 32.15 10.55 27.4 11.4 25.9 12.55 24.95 L13.6 24.3 Q11.85 24.75 9.3 24.3 L7.05 23.75 Q11.75 16.15 19.0 14.95 L23.55 14.85 25.35 15.2 Q25.15 11.05 26.6 7.6 L28.1 4.95 Q31.1 10.95 31.95 14.35 32.35 16.05 32.2 16.5 35.9 16.3 37.6 19.2 L38.45 21.15 38.6 22.1 44.95 20.4 M35.65 24.7 Q35.55 20.8 33.4 19.85 33.65 21.6 32.7 23.35 32.3 21.5 32.5 19.6 L31.0 19.6 Q26.45 20.15 27.3 25.85 32.8 28.65 35.65 24.7 M47.95 17.15 Q48.7 18.3 48.25 19.85 47.1 20.1 45.4 19.4 46.4 17.4 47.95 17.15" fill="#000000" fill-rule="evenodd" stroke="none"/>
    </g>
  </defs>
</svg>
