<?xml version="1.0" encoding="UTF-8" standalone="no"?>
<svg xmlns:ffdec="https://www.free-decompiler.com/flash" xmlns:xlink="http://www.w3.org/1999/xlink" ffdec:objectType="frame" height="56.0px" width="56.0px" xmlns="http://www.w3.org/2000/svg">
  <g transform="matrix(1.0, 0.0, 0.0, 1.0, 0.0, 0.0)">
    <use ffdec:characterId="2" height="56.0" id="back" transform="matrix(1.0, 0.0, 0.0, 1.0, 0.0, 0.0)" width="56.0" xlink:href="#sprite0"/>
    <use ffdec:characterId="3" height="48.65" transform="matrix(1.0, 0.0, 0.0, 1.0, 3.6, 4.15)" width="48.65" xlink:href="#shape1"/>
  </g>
  <defs>
    <g id="sprite0" transform="matrix(1.0, 0.0, 0.0, 1.0, 0.0, 0.0)">
      <use ffdec:characterId="1" height="56.0" transform="matrix(1.0, 0.0, 0.0, 1.0, 0.0, 0.0)" width="56.0" xlink:href="#shape0"/>
    </g>
    <g id="shape0" transform="matrix(1.0, 0.0, 0.0, 1.0, 0.0, 0.0)">
      <path d="M56.0 56.0 L0.0 56.0 0.0 0.0 56.0 0.0 56.0 56.0" fill="#010101" fill-opacity="0.0" fill-rule="evenodd" stroke="none"/>
    </g>
    <g id="shape1" transform="matrix(1.0, 0.0, 0.0, 1.0, -3.6, -4.15)">
      <path d="M44.7 30.9 Q45.4 31.9 46.15 32.2 46.85 32.45 47.95 31.4 46.95 34.05 44.75 32.7 44.75 33.6 45.65 33.85 44.2 34.15 43.75 33.25 43.25 32.35 43.45 31.3 43.7 30.2 42.9 29.8 44.0 29.9 44.7 30.9 M22.55 25.85 Q19.45 31.85 32.0 33.65 L33.8 33.95 Q41.25 32.2 46.2 36.8 46.5 37.35 45.6 37.7 42.05 39.05 41.45 40.15 L42.9 42.65 Q48.5 36.75 48.5 28.5 48.5 19.95 42.5 13.95 39.85 11.3 36.7 9.8 32.7 7.9 27.95 7.9 23.2 7.9 19.25 9.75 L19.3 9.8 Q22.0 12.25 26.15 13.35 27.15 12.85 28.35 12.85 30.5 12.85 32.0 14.35 L32.15 14.55 Q33.95 15.15 35.75 16.05 36.85 17.35 37.25 20.15 38.05 21.15 39.6 21.6 41.1 20.95 41.85 20.95 45.25 24.0 46.3 28.1 42.8 29.85 39.7 30.05 39.45 31.15 38.9 31.85 38.35 32.6 37.95 32.45 37.45 32.35 37.55 31.45 L37.55 29.95 35.85 29.55 Q36.15 28.4 36.65 27.65 34.1 26.4 31.55 27.9 27.25 29.65 23.0 29.6 22.55 27.65 22.55 25.85 M51.45 28.5 Q51.45 38.25 44.55 45.1 L43.05 46.5 Q36.65 52.0 27.95 52.0 23.1 52.0 18.95 50.3 14.8 48.6 11.3 45.1 4.4 38.25 4.4 28.5 4.4 18.75 11.3 11.85 L13.6 9.8 Q19.8 4.95 27.95 4.95 36.1 4.95 42.25 9.8 L44.55 11.85 Q51.45 18.75 51.45 28.5 M17.7 13.6 L17.9 10.45 Q15.5 11.85 13.35 13.95 7.35 19.95 7.35 28.5 7.35 37.0 13.35 43.05 L14.75 44.3 Q16.2 45.55 20.4 46.65 24.65 47.75 25.6 46.25 26.6 44.75 24.35 43.8 22.05 42.9 17.7 39.0 13.25 35.1 12.65 28.1 12.05 21.05 18.6 18.25 17.8 16.8 17.7 13.6 M32.75 18.4 Q32.85 16.25 31.7 15.05 L31.55 14.8 30.75 14.15 Q29.7 13.5 28.35 13.5 L27.25 13.65 25.9 14.25 Q25.55 14.45 25.2 14.8 23.9 16.05 23.85 17.85 24.8 19.3 27.8 18.65 30.75 18.0 32.65 19.1 L32.75 18.4 M25.7 16.9 Q25.7 16.45 26.1 16.1 26.4 15.8 26.85 15.8 27.3 15.8 27.6 16.1 L27.9 16.9 27.6 17.65 26.85 18.0 Q26.4 18.0 26.1 17.65 25.7 17.35 25.7 16.9" fill="#000000" fill-rule="evenodd" stroke="none"/>
      <path d="M44.7 30.9 Q45.4 31.9 46.15 32.2 46.85 32.45 47.95 31.4 46.95 34.05 44.75 32.7 44.75 33.6 45.65 33.85 44.2 34.15 43.75 33.25 43.25 32.35 43.45 31.3 43.7 30.2 42.9 29.8 44.0 29.9 44.7 30.9 M22.55 25.85 Q22.55 27.65 23.0 29.6 27.25 29.65 31.55 27.9 34.1 26.4 36.65 27.65 36.15 28.4 35.85 29.55 L37.55 29.95 37.55 31.45 Q37.45 32.35 37.95 32.45 38.35 32.6 38.9 31.85 39.45 31.15 39.7 30.05 42.8 29.85 46.3 28.1 45.25 24.0 41.85 20.95 41.1 20.95 39.6 21.6 38.05 21.15 37.25 20.15 36.85 17.35 35.75 16.05 33.95 15.15 32.15 14.55 L32.0 14.35 Q30.5 12.85 28.35 12.85 27.15 12.85 26.15 13.35 22.0 12.25 19.3 9.8 L19.25 9.75 Q23.2 7.9 27.95 7.9 32.7 7.9 36.7 9.8 39.85 11.3 42.5 13.95 48.5 19.95 48.5 28.5 48.5 36.75 42.9 42.65 L41.45 40.15 Q42.05 39.05 45.6 37.7 46.5 37.35 46.2 36.8 41.25 32.2 33.8 33.95 L32.0 33.65 Q19.45 31.85 22.55 25.85 M51.45 28.5 Q51.45 38.25 44.55 45.1 L43.05 46.5 Q36.65 52.0 27.95 52.0 23.1 52.0 18.95 50.3 14.8 48.6 11.3 45.1 4.4 38.25 4.4 28.5 4.4 18.75 11.3 11.85 L13.6 9.8 Q19.8 4.95 27.95 4.95 36.1 4.95 42.25 9.8 L44.55 11.85 Q51.45 18.75 51.45 28.5 M17.7 13.6 Q17.8 16.8 18.6 18.25 12.05 21.05 12.65 28.1 13.25 35.1 17.7 39.0 22.05 42.9 24.35 43.8 26.6 44.75 25.6 46.25 24.65 47.75 20.4 46.65 16.2 45.55 14.75 44.3 L13.35 43.05 Q7.35 37.0 7.35 28.5 7.35 19.95 13.35 13.95 15.5 11.85 17.9 10.45 L17.7 13.6 M32.75 18.4 Q32.85 16.25 31.7 15.05 L31.55 14.8 30.75 14.15 Q29.7 13.5 28.35 13.5 L27.25 13.65 25.9 14.25 Q25.55 14.45 25.2 14.8 23.9 16.05 23.85 17.85 24.8 19.3 27.8 18.65 30.75 18.0 32.65 19.1 L32.75 18.4 M25.7 16.9 Q25.7 17.35 26.1 17.65 26.4 18.0 26.85 18.0 L27.6 17.65 27.9 16.9 27.6 16.1 Q27.3 15.8 26.85 15.8 26.4 15.8 26.1 16.1 25.7 16.45 25.7 16.9 Z" fill="none" stroke="#000000" stroke-linecap="round" stroke-linejoin="round" stroke-opacity="0.2" stroke-width="1.6"/>
      <path d="M44.7 30.9 Q45.4 31.9 46.15 32.2 46.85 32.45 47.95 31.4 46.95 34.05 44.75 32.7 44.75 33.6 45.65 33.85 44.2 34.15 43.75 33.25 43.25 32.35 43.45 31.3 43.7 30.2 42.9 29.8 44.0 29.9 44.7 30.9 M51.45 28.5 Q51.45 38.25 44.55 45.1 L43.05 46.5 Q36.65 52.0 27.95 52.0 23.1 52.0 18.95 50.3 14.8 48.6 11.3 45.1 4.4 38.25 4.4 28.5 4.4 18.75 11.3 11.85 L13.6 9.8 Q19.8 4.95 27.95 4.95 36.1 4.95 42.25 9.8 L44.55 11.85 Q51.45 18.75 51.45 28.5 M17.7 13.6 L17.9 10.45 Q15.5 11.85 13.35 13.95 7.35 19.95 7.35 28.5 7.35 37.0 13.35 43.05 L14.75 44.3 Q16.2 45.55 20.4 46.65 24.65 47.75 25.6 46.25 26.6 44.75 24.35 43.8 22.05 42.9 17.7 39.0 13.25 35.1 12.65 28.1 12.05 21.05 18.6 18.25 17.8 16.8 17.7 13.6 M22.55 25.85 Q19.45 31.85 32.0 33.65 L33.8 33.95 Q41.25 32.2 46.2 36.8 46.5 37.35 45.6 37.7 42.05 39.05 41.45 40.15 L42.9 42.65 Q48.5 36.75 48.5 28.5 48.5 19.95 42.5 13.95 39.85 11.3 36.7 9.8 32.7 7.9 27.95 7.9 23.2 7.9 19.25 9.75 L19.3 9.8 Q22.0 12.25 26.15 13.35 27.15 12.85 28.35 12.85 30.5 12.85 32.0 14.35 L32.15 14.55 Q33.95 15.15 35.75 16.05 36.85 17.35 37.25 20.15 38.05 21.15 39.6 21.6 41.1 20.95 41.85 20.95 45.25 24.0 46.3 28.1 42.8 29.85 39.7 30.05 39.45 31.15 38.9 31.85 38.35 32.6 37.95 32.45 37.45 32.35 37.55 31.45 L37.55 29.95 35.85 29.55 Q36.15 28.4 36.65 27.65 34.1 26.4 31.55 27.9 27.25 29.65 23.0 29.6 22.55 27.65 22.55 25.85 M32.75 18.4 Q32.85 16.25 31.7 15.05 L31.55 14.8 30.75 14.15 Q29.7 13.5 28.35 13.5 L27.25 13.65 25.9 14.25 Q25.55 14.45 25.2 14.8 23.9 16.05 23.85 17.85 24.8 19.3 27.8 18.65 30.75 18.0 32.65 19.1 L32.75 18.4 M25.7 16.9 Q25.7 16.45 26.1 16.1 26.4 15.8 26.85 15.8 27.3 15.8 27.6 16.1 L27.9 16.9 27.6 17.65 26.85 18.0 Q26.4 18.0 26.1 17.65 25.7 17.35 25.7 16.9" fill="#000000" fill-rule="evenodd" stroke="none"/>
    </g>
  </defs>
</svg>
