<?xml version="1.0" encoding="UTF-8" standalone="no"?>
<svg xmlns:ffdec="https://www.free-decompiler.com/flash" xmlns:xlink="http://www.w3.org/1999/xlink" ffdec:objectType="frame" height="56.0px" width="56.0px" xmlns="http://www.w3.org/2000/svg">
  <g transform="matrix(1.0, 0.0, 0.0, 1.0, 0.0, 0.0)">
    <use ffdec:characterId="2" height="56.0" id="back" transform="matrix(1.0, 0.0, 0.0, 1.0, 0.0, 0.0)" width="56.0" xlink:href="#sprite0"/>
    <use ffdec:characterId="3" height="53.3" transform="matrix(1.0, 0.0, 0.0, 1.0, 6.3, 1.5)" width="46.8" xlink:href="#shape1"/>
  </g>
  <defs>
    <g id="sprite0" transform="matrix(1.0, 0.0, 0.0, 1.0, 0.0, 0.0)">
      <use ffdec:characterId="1" height="56.0" transform="matrix(1.0, 0.0, 0.0, 1.0, 0.0, 0.0)" width="56.0" xlink:href="#shape0"/>
    </g>
    <g id="shape0" transform="matrix(1.0, 0.0, 0.0, 1.0, 0.0, 0.0)">
      <path d="M56.0 56.0 L0.0 56.0 0.0 0.0 56.0 0.0 56.0 56.0" fill="#010101" fill-opacity="0.0" fill-rule="evenodd" stroke="none"/>
    </g>
    <g id="shape1" transform="matrix(1.0, 0.0, 0.0, 1.0, -6.3, -1.5)">
      <path d="M7.6 24.95 Q7.95 23.8 8.45 22.85 L8.45 22.75 Q8.45 21.5 9.35 20.65 L10.45 19.95 11.5 17.45 11.75 15.4 Q12.05 14.65 13.95 16.6 L14.65 17.45 Q15.4 18.5 15.7 19.75 20.9 17.95 24.3 22.35 23.55 20.3 24.2 17.45 L24.2 17.4 Q24.9 14.2 23.15 11.85 L22.9 14.05 Q20.45 14.05 17.95 13.05 L15.0 12.9 15.45 14.0 Q12.9 14.85 9.45 13.15 10.05 10.8 12.05 9.05 12.45 9.05 13.3 9.4 L14.7 8.55 Q14.9 6.95 15.55 6.2 16.55 5.65 17.6 5.35 L17.7 5.25 Q18.55 4.35 19.8 4.35 20.5 4.35 21.1 4.65 23.7 3.95 25.3 2.35 26.0 2.05 25.95 4.8 25.9 7.2 24.35 9.15 28.0 11.25 28.65 16.15 L28.85 17.45 29.35 20.3 Q31.25 16.6 36.15 16.55 L39.35 16.1 Q40.0 15.85 40.25 15.2 40.45 14.75 39.9 14.1 L39.45 15.1 Q37.05 14.5 34.9 12.9 33.7 11.6 32.1 12.0 L32.25 13.15 Q30.9 13.25 29.5 12.65 L26.7 10.8 Q27.65 9.0 29.5 7.85 L30.2 7.45 Q30.6 7.55 31.35 8.15 32.3 8.15 32.9 7.7 33.5 6.2 34.35 5.6 L36.6 5.35 36.7 5.3 Q37.75 4.65 38.95 5.0 39.65 5.15 40.15 5.6 42.8 5.55 44.7 4.4 45.55 4.35 44.75 6.95 44.05 9.35 41.95 10.9 45.0 14.3 44.75 16.45 44.6 17.9 43.95 18.95 L41.25 20.9 39.7 21.05 35.3 21.65 Q33.45 22.2 33.2 25.35 L34.75 24.6 Q35.3 24.25 36.5 23.8 41.7 21.95 47.0 24.25 42.6 24.5 43.45 26.9 40.65 27.0 39.45 28.75 L41.95 30.45 42.05 30.55 42.1 30.55 42.55 29.95 Q43.0 28.95 42.55 28.25 L42.6 28.45 41.7 27.5 43.0 27.85 Q49.6 29.65 52.3 35.1 48.2 32.1 47.7 34.0 45.8 32.65 43.2 32.25 L43.6 32.75 Q44.85 35.2 45.2 38.9 45.95 47.4 36.85 51.95 32.4 54.15 28.35 54.0 17.35 53.5 12.4 44.7 11.7 43.5 11.05 41.45 L11.1 42.2 11.15 43.85 Q11.05 45.2 10.45 45.7 9.85 45.4 9.45 44.35 7.5 38.8 10.25 34.75 10.35 34.6 10.6 34.75 15.75 37.6 17.95 42.3 18.55 43.4 17.55 43.4 16.65 43.5 15.35 42.9 L14.4 42.45 14.5 42.45 14.3 42.35 13.7 41.9 14.0 42.45 14.3 42.95 14.6 43.35 Q22.05 51.8 29.85 49.6 37.9 47.35 36.55 39.4 L36.1 39.4 Q34.35 40.85 33.9 41.85 L33.15 43.7 32.75 44.1 Q28.05 44.95 24.95 46.55 24.4 47.4 23.35 47.85 22.6 47.85 22.05 47.1 L20.4 47.0 20.3 46.6 19.35 45.9 Q19.7 45.2 20.5 44.95 L20.7 44.7 20.7 44.65 Q20.35 44.3 20.45 43.6 L20.6 43.45 Q20.25 42.95 20.35 42.35 L22.0 42.5 22.45 42.45 Q22.8 42.5 23.05 42.7 L23.6 42.2 23.8 42.2 Q24.0 41.7 24.45 41.55 25.0 42.05 25.1 42.75 L25.45 43.15 Q25.6 44.1 24.9 44.55 L24.95 44.8 Q29.6 44.0 31.4 42.9 L31.9 42.55 32.3 42.4 Q33.35 40.6 33.1 38.65 31.3 37.95 30.7 37.4 L30.6 37.3 Q29.95 37.55 29.35 38.05 L28.0 39.2 27.5 39.35 Q23.2 38.15 20.0 38.25 19.2 38.8 18.1 38.75 17.5 38.45 17.3 37.6 16.25 37.8 15.9 36.75 L15.95 36.35 Q15.5 35.95 15.3 35.35 15.9 34.85 16.65 34.95 L16.9 34.8 Q16.75 34.3 17.1 33.7 L17.25 33.65 Q17.15 33.0 17.45 32.55 L18.8 33.35 19.2 33.5 19.65 33.95 20.25 33.8 20.45 33.9 Q20.75 33.5 21.25 33.55 L21.4 34.95 21.6 35.4 Q21.35 36.35 20.6 36.45 L20.55 36.7 Q24.85 37.95 26.8 37.7 L27.35 37.6 27.7 37.6 Q28.65 36.8 28.95 35.6 L27.35 33.0 Q26.35 33.05 25.6 33.7 24.7 34.45 24.25 32.8 23.8 31.1 24.0 29.45 L24.1 29.5 23.0 27.3 Q20.75 22.95 16.75 23.4 17.65 24.15 18.35 25.3 16.6 27.1 14.15 28.05 12.5 28.5 11.95 30.1 L13.05 30.55 Q11.8 33.0 8.2 34.2 6.95 32.1 7.1 29.45 7.4 29.2 8.3 28.85 8.75 28.0 8.65 27.25 7.7 26.0 7.6 24.95 M13.25 20.9 Q12.5 20.15 11.4 20.15 L10.85 20.2 10.1 20.5 9.6 20.9 Q9.1 21.4 8.9 22.1 L8.85 22.75 8.85 22.9 Q8.9 23.85 9.6 24.6 10.35 25.35 11.4 25.35 12.5 25.35 13.25 24.6 14.0 23.8 14.0 22.75 14.05 21.7 13.25 20.9 M22.4 7.3 Q22.4 6.25 21.65 5.5 L21.2 5.15 20.45 4.85 19.8 4.75 Q19.0 4.75 18.45 5.1 L17.95 5.5 17.85 5.6 Q17.2 6.35 17.2 7.3 17.2 8.4 17.95 9.15 18.7 9.9 19.8 9.9 20.85 9.9 21.65 9.15 22.4 8.4 22.4 7.3 M12.1 21.2 L12.25 21.65 12.05 22.1 Q11.9 22.3 11.65 22.3 11.35 22.3 11.2 22.1 L11.0 21.65 11.2 21.2 Q11.35 21.05 11.65 21.05 L12.1 21.2 M39.8 7.6 L39.55 8.0 39.05 8.05 38.65 7.75 38.6 7.3 38.9 6.85 39.35 6.85 39.75 7.1 39.8 7.6 M40.7 8.5 Q41.0 7.45 40.45 6.5 L40.15 6.1 39.55 5.6 38.85 5.3 37.4 5.35 36.9 5.55 36.75 5.65 Q35.95 6.2 35.7 7.15 35.4 8.2 35.95 9.1 36.5 10.05 37.5 10.35 38.55 10.6 39.5 10.05 40.45 9.55 40.7 8.5 M21.3 6.7 L21.1 7.1 20.7 7.3 Q20.4 7.3 20.25 7.1 L20.05 6.7 20.25 6.25 Q20.4 6.05 20.7 6.05 L21.1 6.25 21.3 6.7 M36.75 27.9 L37.15 27.65 36.3 26.35 Q35.55 25.45 34.8 25.25 L33.2 25.35 33.15 26.1 Q35.25 26.75 36.75 27.9" fill="#000000" fill-rule="evenodd" stroke="none"/>
      <path d="M7.6 24.95 Q7.95 23.8 8.45 22.85 L8.45 22.75 Q8.45 21.5 9.35 20.65 L10.45 19.95 11.5 17.45 11.75 15.4 Q12.05 14.65 13.95 16.6 L14.65 17.45 Q15.4 18.5 15.7 19.75 20.9 17.95 24.3 22.35 23.55 20.3 24.2 17.45 L24.2 17.4 Q24.9 14.2 23.15 11.85 L22.9 14.05 Q20.45 14.05 17.95 13.05 L15.0 12.9 15.45 14.0 Q12.9 14.85 9.45 13.15 10.05 10.8 12.05 9.05 12.45 9.05 13.3 9.4 L14.7 8.55 Q14.9 6.95 15.55 6.2 16.55 5.65 17.6 5.35 L17.7 5.25 Q18.55 4.35 19.8 4.35 20.5 4.35 21.1 4.65 23.7 3.95 25.3 2.35 26.0 2.05 25.95 4.8 25.9 7.2 24.35 9.15 28.0 11.25 28.65 16.15 L28.85 17.45 29.35 20.3 Q31.25 16.6 36.15 16.55 L39.35 16.1 Q40.0 15.85 40.25 15.2 40.45 14.75 39.9 14.1 L39.45 15.1 Q37.05 14.5 34.9 12.9 33.7 11.6 32.1 12.0 L32.25 13.15 Q30.9 13.25 29.5 12.65 L26.7 10.8 Q27.65 9.0 29.5 7.85 L30.2 7.45 Q30.6 7.55 31.35 8.15 32.3 8.15 32.9 7.7 33.5 6.2 34.35 5.6 L36.6 5.35 36.7 5.3 Q37.75 4.65 38.95 5.0 39.65 5.15 40.15 5.6 42.8 5.55 44.7 4.4 45.55 4.35 44.75 6.95 44.05 9.35 41.95 10.9 45.0 14.3 44.75 16.45 44.6 17.9 43.95 18.95 L41.25 20.9 39.7 21.05 35.3 21.65 Q33.45 22.2 33.2 25.35 L34.75 24.6 Q35.3 24.25 36.5 23.8 41.7 21.95 47.0 24.25 42.6 24.5 43.45 26.9 40.65 27.0 39.45 28.75 L41.95 30.45 42.05 30.55 42.1 30.55 42.55 29.95 Q43.0 28.95 42.55 28.25 L42.6 28.45 41.7 27.5 43.0 27.85 Q49.6 29.65 52.3 35.1 48.2 32.1 47.7 34.0 45.8 32.65 43.2 32.25 L43.6 32.75 Q44.85 35.2 45.2 38.9 45.95 47.4 36.85 51.95 32.4 54.15 28.35 54.0 17.35 53.5 12.4 44.7 11.7 43.5 11.05 41.45 L11.1 42.2 11.15 43.85 Q11.05 45.2 10.45 45.7 9.85 45.4 9.45 44.35 7.5 38.8 10.25 34.75 10.35 34.6 10.6 34.75 15.75 37.6 17.95 42.3 18.55 43.4 17.55 43.4 16.65 43.5 15.35 42.9 L14.4 42.45 14.5 42.45 14.3 42.35 13.7 41.9 14.0 42.45 14.3 42.95 14.6 43.35 Q22.05 51.8 29.85 49.6 37.9 47.35 36.55 39.4 L36.1 39.4 Q34.35 40.85 33.9 41.85 L33.15 43.7 32.75 44.1 Q28.05 44.95 24.95 46.55 24.4 47.4 23.35 47.85 22.6 47.85 22.05 47.1 L20.4 47.0 20.3 46.6 19.35 45.9 Q19.7 45.2 20.5 44.95 L20.7 44.7 20.7 44.65 Q20.35 44.3 20.45 43.6 L20.6 43.45 Q20.25 42.95 20.35 42.35 L22.0 42.5 22.45 42.45 Q22.8 42.5 23.05 42.7 L23.6 42.2 23.8 42.2 Q24.0 41.7 24.45 41.55 25.0 42.05 25.1 42.75 L25.45 43.15 Q25.6 44.1 24.9 44.55 L24.95 44.8 Q29.6 44.0 31.4 42.9 L31.9 42.55 32.3 42.4 Q33.35 40.6 33.1 38.65 31.3 37.95 30.7 37.4 L30.6 37.3 Q29.95 37.55 29.35 38.05 L28.0 39.2 27.5 39.35 Q23.2 38.15 20.0 38.25 19.2 38.8 18.1 38.75 17.5 38.45 17.3 37.6 16.25 37.8 15.9 36.75 L15.95 36.35 Q15.5 35.95 15.3 35.35 15.9 34.85 16.65 34.95 L16.9 34.8 Q16.75 34.3 17.1 33.7 L17.25 33.65 Q17.15 33.0 17.45 32.55 L18.8 33.35 19.2 33.5 19.65 33.95 20.25 33.8 20.45 33.9 Q20.75 33.5 21.25 33.55 L21.4 34.95 21.6 35.4 Q21.35 36.35 20.6 36.45 L20.55 36.7 Q24.85 37.95 26.8 37.7 L27.35 37.6 27.7 37.6 Q28.65 36.8 28.95 35.6 L27.35 33.0 Q26.35 33.05 25.6 33.7 24.7 34.45 24.25 32.8 23.8 31.1 24.0 29.45 L24.1 29.5 23.0 27.3 Q20.75 22.95 16.75 23.4 17.65 24.15 18.35 25.3 16.6 27.1 14.15 28.05 12.5 28.5 11.95 30.1 L13.05 30.55 Q11.8 33.0 8.2 34.2 6.95 32.1 7.1 29.45 7.4 29.2 8.3 28.85 8.75 28.0 8.65 27.25 7.7 26.0 7.6 24.95 M22.4 7.3 Q22.4 8.4 21.65 9.15 20.85 9.9 19.8 9.9 18.7 9.9 17.95 9.15 17.2 8.4 17.2 7.3 17.2 6.35 17.85 5.6 L17.95 5.5 18.45 5.1 Q19.0 4.75 19.8 4.75 L20.45 4.85 21.2 5.15 21.65 5.5 Q22.4 6.25 22.4 7.3 M13.25 20.9 Q14.05 21.7 14.0 22.75 14.0 23.8 13.25 24.6 12.5 25.35 11.4 25.35 10.35 25.35 9.6 24.6 8.9 23.85 8.85 22.9 L8.85 22.75 8.9 22.1 Q9.1 21.4 9.6 20.9 L10.1 20.5 10.85 20.2 11.4 20.15 Q12.5 20.15 13.25 20.9 M12.1 21.2 L12.25 21.65 12.05 22.1 Q11.9 22.3 11.65 22.3 11.35 22.3 11.2 22.1 L11.0 21.65 11.2 21.2 Q11.35 21.05 11.65 21.05 L12.1 21.2 M39.8 7.6 L39.55 8.0 39.05 8.05 38.65 7.75 38.6 7.3 38.9 6.85 39.35 6.85 39.75 7.1 39.8 7.6 M40.7 8.5 Q40.45 9.55 39.5 10.05 38.55 10.6 37.5 10.35 36.5 10.05 35.95 9.1 35.4 8.2 35.7 7.15 35.95 6.2 36.75 5.65 L36.9 5.55 37.4 5.35 38.85 5.3 39.55 5.6 40.15 6.1 40.45 6.5 Q41.0 7.45 40.7 8.5 M21.3 6.7 L21.1 7.1 20.7 7.3 Q20.4 7.3 20.25 7.1 L20.05 6.7 20.25 6.25 Q20.4 6.05 20.7 6.05 L21.1 6.25 21.3 6.7 Z" fill="none" stroke="#000000" stroke-linecap="round" stroke-linejoin="round" stroke-opacity="0.2" stroke-width="1.6"/>
      <path d="M7.6 24.95 Q7.95 23.8 8.45 22.85 L8.45 22.75 Q8.45 21.5 9.35 20.65 L10.45 19.95 11.5 17.45 11.75 15.4 Q12.05 14.65 13.95 16.6 L14.65 17.45 Q15.4 18.5 15.7 19.75 20.9 17.95 24.3 22.35 23.55 20.3 24.2 17.45 L24.2 17.4 Q24.9 14.2 23.15 11.85 L22.9 14.05 Q20.45 14.05 17.95 13.05 L15.0 12.9 15.45 14.0 Q12.9 14.85 9.45 13.15 10.05 10.8 12.05 9.05 12.45 9.05 13.3 9.4 L14.7 8.55 Q14.9 6.95 15.55 6.2 16.55 5.65 17.6 5.35 L17.7 5.25 Q18.55 4.35 19.8 4.35 20.5 4.35 21.1 4.65 23.7 3.95 25.3 2.35 26.0 2.05 25.95 4.8 25.9 7.2 24.35 9.15 28.0 11.25 28.65 16.15 L28.85 17.45 29.35 20.3 Q31.25 16.6 36.15 16.55 L39.35 16.1 Q40.0 15.85 40.25 15.2 40.45 14.75 39.9 14.1 L39.45 15.1 Q37.05 14.5 34.9 12.9 33.7 11.6 32.1 12.0 L32.25 13.15 Q30.9 13.25 29.5 12.65 L26.7 10.8 Q27.65 9.0 29.5 7.85 L30.2 7.45 Q30.6 7.55 31.35 8.15 32.3 8.15 32.9 7.7 33.5 6.2 34.35 5.6 L36.6 5.35 36.7 5.3 Q37.75 4.65 38.95 5.0 39.65 5.15 40.15 5.6 42.8 5.55 44.7 4.4 45.55 4.35 44.75 6.95 44.05 9.35 41.95 10.9 45.0 14.3 44.75 16.45 44.6 17.9 43.95 18.95 L41.25 20.9 39.7 21.05 35.3 21.65 Q33.45 22.2 33.2 25.35 L34.75 24.6 Q35.3 24.25 36.5 23.8 41.7 21.95 47.0 24.25 42.6 24.5 43.45 26.9 40.65 27.0 39.45 28.75 L41.95 30.45 42.05 30.55 42.1 30.55 42.55 29.95 Q43.0 28.95 42.55 28.25 L42.6 28.45 41.7 27.5 43.0 27.85 Q49.6 29.65 52.3 35.1 48.2 32.1 47.7 34.0 45.8 32.65 43.2 32.25 L43.6 32.75 Q44.85 35.2 45.2 38.9 45.95 47.4 36.85 51.95 32.4 54.15 28.35 54.0 17.35 53.5 12.4 44.7 11.7 43.5 11.05 41.45 L11.1 42.2 11.15 43.85 Q11.05 45.2 10.45 45.7 9.85 45.4 9.45 44.35 7.5 38.8 10.25 34.75 10.35 34.6 10.6 34.75 15.75 37.6 17.95 42.3 18.55 43.4 17.55 43.4 16.65 43.5 15.35 42.9 L14.4 42.45 14.5 42.45 14.3 42.35 13.7 41.9 14.0 42.45 14.3 42.95 14.6 43.35 Q22.05 51.8 29.85 49.6 37.9 47.35 36.55 39.4 L36.1 39.4 Q34.35 40.85 33.9 41.85 L33.15 43.7 32.75 44.1 Q28.05 44.95 24.95 46.55 24.4 47.4 23.35 47.85 22.6 47.85 22.05 47.1 L20.4 47.0 20.3 46.6 19.35 45.9 Q19.7 45.2 20.5 44.95 L20.7 44.7 20.7 44.65 Q20.35 44.3 20.45 43.6 L20.6 43.45 Q20.25 42.95 20.35 42.35 L22.0 42.5 22.45 42.45 Q22.8 42.5 23.05 42.7 L23.6 42.2 23.8 42.2 Q24.0 41.7 24.45 41.55 25.0 42.05 25.1 42.75 L25.45 43.15 Q25.6 44.1 24.9 44.55 L24.95 44.8 Q29.6 44.0 31.4 42.9 L31.9 42.55 32.3 42.4 Q33.35 40.6 33.1 38.65 31.3 37.95 30.7 37.4 L30.6 37.3 Q29.95 37.55 29.35 38.05 L28.0 39.2 27.5 39.35 Q23.2 38.15 20.0 38.25 19.2 38.8 18.1 38.75 17.5 38.45 17.3 37.6 16.25 37.8 15.9 36.75 L15.95 36.35 Q15.5 35.95 15.3 35.35 15.9 34.85 16.65 34.95 L16.9 34.8 Q16.75 34.3 17.1 33.7 L17.25 33.65 Q17.15 33.0 17.45 32.55 L18.8 33.35 19.2 33.5 19.65 33.95 20.25 33.8 20.45 33.9 Q20.75 33.5 21.25 33.55 L21.4 34.95 21.6 35.4 Q21.35 36.35 20.6 36.45 L20.55 36.7 Q24.85 37.95 26.8 37.7 L27.35 37.6 27.7 37.6 Q28.65 36.8 28.95 35.6 L27.35 33.0 Q26.35 33.05 25.6 33.7 24.7 34.45 24.25 32.8 23.8 31.1 24.0 29.45 L24.1 29.5 23.0 27.3 Q20.75 22.95 16.75 23.4 17.65 24.15 18.35 25.3 16.6 27.1 14.15 28.05 12.5 28.5 11.95 30.1 L13.05 30.55 Q11.8 33.0 8.2 34.2 6.95 32.1 7.1 29.45 7.4 29.2 8.3 28.85 8.75 28.0 8.65 27.25 7.7 26.0 7.6 24.95 M22.4 7.3 Q22.4 6.25 21.65 5.5 L21.2 5.15 20.45 4.85 19.8 4.75 Q19.0 4.75 18.45 5.1 L17.95 5.5 17.85 5.6 Q17.2 6.35 17.2 7.3 17.2 8.4 17.95 9.15 18.7 9.9 19.8 9.9 20.85 9.9 21.65 9.15 22.4 8.4 22.4 7.3 M12.1 21.2 L12.25 21.65 12.05 22.1 Q11.9 22.3 11.65 22.3 11.35 22.3 11.2 22.1 L11.0 21.65 11.2 21.2 Q11.35 21.05 11.65 21.05 L12.1 21.2 M40.7 8.5 Q41.0 7.45 40.45 6.5 L40.15 6.1 39.55 5.6 38.85 5.3 37.4 5.35 36.9 5.55 36.75 5.65 Q35.95 6.2 35.7 7.15 35.4 8.2 35.95 9.1 36.5 10.05 37.5 10.35 38.55 10.6 39.5 10.05 40.45 9.55 40.7 8.5 M13.25 20.9 Q12.5 20.15 11.4 20.15 L10.85 20.2 10.1 20.5 9.6 20.9 Q9.1 21.4 8.9 22.1 L8.85 22.75 8.85 22.9 Q8.9 23.85 9.6 24.6 10.35 25.35 11.4 25.35 12.5 25.35 13.25 24.6 14.0 23.8 14.0 22.75 14.05 21.7 13.25 20.9 M39.8 7.6 L39.55 8.0 39.05 8.05 38.65 7.75 38.6 7.3 38.9 6.85 39.35 6.85 39.75 7.1 39.8 7.6 M21.3 6.7 L21.1 7.1 20.7 7.3 Q20.4 7.3 20.25 7.1 L20.05 6.7 20.25 6.25 Q20.4 6.05 20.7 6.05 L21.1 6.25 21.3 6.7 M36.75 27.9 L37.15 27.65 36.3 26.35 Q35.55 25.45 34.8 25.25 L33.2 25.35 33.15 26.1 Q35.25 26.75 36.75 27.9" fill="#000000" fill-rule="evenodd" stroke="none"/>
    </g>
  </defs>
</svg>
