<?xml version="1.0" encoding="UTF-8" standalone="no"?>
<svg xmlns:ffdec="https://www.free-decompiler.com/flash" xmlns:xlink="http://www.w3.org/1999/xlink" ffdec:objectType="frame" height="56.0px" width="56.0px" xmlns="http://www.w3.org/2000/svg">
  <g transform="matrix(1.0, 0.0, 0.0, 1.0, 0.0, 0.0)">
    <use ffdec:characterId="2" height="56.0" id="back" transform="matrix(1.0, 0.0, 0.0, 1.0, 0.0, 0.0)" width="56.0" xlink:href="#sprite0"/>
    <use ffdec:characterId="3" height="50.3" transform="matrix(1.0, 0.0, 0.0, 1.0, 5.25, 1.9)" width="38.95" xlink:href="#shape1"/>
  </g>
  <defs>
    <g id="sprite0" transform="matrix(1.0, 0.0, 0.0, 1.0, 0.0, 0.0)">
      <use ffdec:characterId="1" height="56.0" transform="matrix(1.0, 0.0, 0.0, 1.0, 0.0, 0.0)" width="56.0" xlink:href="#shape0"/>
    </g>
    <g id="shape0" transform="matrix(1.0, 0.0, 0.0, 1.0, 0.0, 0.0)">
      <path d="M56.0 56.0 L0.0 56.0 0.0 0.0 56.0 0.0 56.0 56.0" fill="#010101" fill-opacity="0.0" fill-rule="evenodd" stroke="none"/>
    </g>
    <g id="shape1" transform="matrix(1.0, 0.0, 0.0, 1.0, -5.25, -1.9)">
      <path d="M34.05 22.25 Q34.1 24.3 33.55 26.65 28.5 26.7 23.45 24.65 20.4 22.85 17.4 24.35 L18.35 26.55 16.35 27.05 16.55 28.8 Q16.45 29.85 15.9 30.0 15.4 30.15 14.75 29.3 14.1 28.5 13.8 27.15 10.2 26.9 6.05 24.85 7.25 20.05 11.3 16.45 12.15 16.45 13.9 17.2 15.75 16.65 16.7 15.45 17.15 12.2 18.5 10.6 20.6 9.55 22.7 8.9 L22.9 8.65 Q24.7 6.85 27.2 6.85 28.65 6.85 29.85 7.45 35.15 6.0 38.4 2.75 39.9 2.1 39.8 7.75 39.65 12.65 37.05 15.6 42.3 18.05 43.25 24.65 44.15 31.3 39.35 38.75 34.6 46.25 42.0 51.4 L24.9 51.4 Q20.9 48.0 22.8 42.15 21.7 41.15 17.2 41.0 16.05 41.0 16.2 40.2 19.9 33.15 28.95 32.2 36.85 28.55 34.05 22.25 M32.5 12.95 Q32.5 10.7 30.95 9.15 L30.1 8.45 Q29.35 8.0 28.5 7.8 L27.25 7.65 Q25.6 7.65 24.4 8.4 23.9 8.7 23.45 9.15 L23.25 9.4 Q21.9 10.9 21.9 12.95 21.9 15.15 23.45 16.7 24.95 18.2 27.25 18.2 29.4 18.2 30.95 16.7 32.5 15.15 32.5 12.95 M30.3 11.65 Q30.3 12.15 29.9 12.5 29.55 12.95 29.0 12.95 28.45 12.95 28.1 12.5 27.75 12.15 27.75 11.65 27.75 11.1 28.1 10.7 28.45 10.35 29.0 10.35 29.55 10.35 29.9 10.7 30.3 11.1 30.3 11.65" fill="#000000" fill-rule="evenodd" stroke="none"/>
      <path d="M34.05 22.25 Q34.1 24.3 33.55 26.65 28.5 26.7 23.45 24.65 20.4 22.85 17.4 24.35 L18.35 26.55 16.35 27.05 16.55 28.8 Q16.45 29.85 15.9 30.0 15.4 30.15 14.75 29.3 14.1 28.5 13.8 27.15 10.2 26.9 6.05 24.85 7.25 20.05 11.3 16.45 12.15 16.45 13.9 17.2 15.75 16.65 16.7 15.45 17.15 12.2 18.5 10.6 20.6 9.55 22.7 8.9 L22.9 8.65 Q24.7 6.85 27.2 6.85 28.65 6.85 29.85 7.45 35.15 6.0 38.4 2.75 39.9 2.1 39.8 7.75 39.65 12.65 37.05 15.6 42.3 18.05 43.25 24.65 44.15 31.3 39.35 38.75 34.6 46.25 42.0 51.4 L24.9 51.4 Q20.9 48.0 22.8 42.15 21.7 41.15 17.2 41.0 16.05 41.0 16.2 40.2 19.9 33.15 28.95 32.2 36.85 28.55 34.05 22.25 M32.5 12.95 Q32.5 15.15 30.95 16.7 29.4 18.2 27.25 18.2 24.95 18.2 23.45 16.7 21.9 15.15 21.9 12.95 21.9 10.9 23.25 9.4 L23.45 9.15 Q23.9 8.7 24.4 8.4 25.6 7.65 27.25 7.65 L28.5 7.8 Q29.35 8.0 30.1 8.45 L30.95 9.15 Q32.5 10.7 32.5 12.95 M30.3 11.65 Q30.3 12.15 29.9 12.5 29.55 12.95 29.0 12.95 28.45 12.95 28.1 12.5 27.75 12.15 27.75 11.65 27.75 11.1 28.1 10.7 28.45 10.35 29.0 10.35 29.55 10.35 29.9 10.7 30.3 11.1 30.3 11.65 Z" fill="none" stroke="#000000" stroke-linecap="round" stroke-linejoin="round" stroke-opacity="0.2" stroke-width="1.6"/>
      <path d="M32.5 12.95 Q32.5 10.7 30.95 9.15 L30.1 8.45 Q29.35 8.0 28.5 7.8 L27.25 7.65 Q25.6 7.65 24.4 8.4 23.9 8.7 23.45 9.15 L23.25 9.4 Q21.9 10.9 21.9 12.95 21.9 15.15 23.45 16.7 24.95 18.2 27.25 18.2 29.4 18.2 30.95 16.7 32.5 15.15 32.5 12.95 M34.05 22.25 Q34.1 24.3 33.55 26.65 28.5 26.7 23.45 24.65 20.4 22.85 17.4 24.35 L18.35 26.55 16.35 27.05 16.55 28.8 Q16.45 29.85 15.9 30.0 15.4 30.15 14.75 29.3 14.1 28.5 13.8 27.15 10.2 26.9 6.05 24.85 7.25 20.05 11.3 16.45 12.15 16.45 13.9 17.2 15.75 16.65 16.7 15.45 17.15 12.2 18.5 10.6 20.6 9.55 22.7 8.9 L22.9 8.65 Q24.7 6.85 27.2 6.85 28.65 6.85 29.85 7.45 35.15 6.0 38.4 2.75 39.9 2.1 39.8 7.75 39.65 12.65 37.05 15.6 42.3 18.05 43.25 24.65 44.15 31.3 39.35 38.75 34.6 46.25 42.0 51.4 L24.9 51.4 Q20.9 48.0 22.8 42.15 21.7 41.15 17.2 41.0 16.05 41.0 16.2 40.2 19.9 33.15 28.95 32.2 36.85 28.55 34.05 22.25 M30.3 11.65 Q30.3 12.15 29.9 12.5 29.55 12.95 29.0 12.95 28.45 12.95 28.1 12.5 27.75 12.15 27.75 11.65 27.75 11.1 28.1 10.7 28.45 10.35 29.0 10.35 29.55 10.35 29.9 10.7 30.3 11.1 30.3 11.65" fill="#000000" fill-rule="evenodd" stroke="none"/>
    </g>
  </defs>
</svg>
