<?xml version="1.0" encoding="UTF-8" standalone="no"?>
<svg xmlns:ffdec="https://www.free-decompiler.com/flash" xmlns:xlink="http://www.w3.org/1999/xlink" ffdec:objectType="frame" height="56.0px" width="56.0px" xmlns="http://www.w3.org/2000/svg">
  <g transform="matrix(1.0, 0.0, 0.0, 1.0, 0.0, 0.0)">
    <use ffdec:characterId="2" height="56.0" id="back" transform="matrix(1.0, 0.0, 0.0, 1.0, 0.0, 0.0)" width="56.0" xlink:href="#sprite0"/>
    <use ffdec:characterId="3" height="48.2" transform="matrix(1.0, 0.0, 0.0, 1.0, 9.4, 4.0)" width="37.4" xlink:href="#shape1"/>
  </g>
  <defs>
    <g id="sprite0" transform="matrix(1.0, 0.0, 0.0, 1.0, 0.0, 0.0)">
      <use ffdec:characterId="1" height="56.0" transform="matrix(1.0, 0.0, 0.0, 1.0, 0.0, 0.0)" width="56.0" xlink:href="#shape0"/>
    </g>
    <g id="shape0" transform="matrix(1.0, 0.0, 0.0, 1.0, 0.0, 0.0)">
      <path d="M56.0 56.0 L0.0 56.0 0.0 0.0 56.0 0.0 56.0 56.0" fill="#010101" fill-opacity="0.0" fill-rule="evenodd" stroke="none"/>
    </g>
    <g id="shape1" transform="matrix(1.0, 0.0, 0.0, 1.0, -9.4, -4.0)">
      <path d="M39.75 23.25 Q39.65 22.45 38.9 21.95 38.1 21.3 37.2 21.45 L36.5 21.7 35.8 22.45 Q35.3 23.25 35.4 24.1 35.6 25.0 36.35 25.5 L36.5 25.65 38.0 25.85 Q38.9 25.8 39.4 25.0 40.0 24.25 39.75 23.25 M29.25 27.8 Q28.65 24.8 30.25 22.45 31.65 20.55 33.8 19.85 L35.0 19.5 36.5 19.3 38.7 19.85 40.2 20.75 Q42.5 22.45 43.2 25.3 43.5 27.2 42.85 28.9 L42.0 30.65 40.6 32.1 40.35 32.2 40.1 32.45 Q38.9 33.35 37.4 33.65 34.5 34.15 32.1 32.45 29.75 30.7 29.25 27.8 M37.85 36.7 L41.85 40.25 28.1 49.8 28.1 49.95 22.2 45.75 22.1 45.65 14.35 40.25 18.35 36.7 15.85 37.65 12.6 36.95 10.2 35.7 11.2 33.65 13.35 31.35 13.4 31.4 13.8 31.95 13.9 32.05 Q16.2 34.5 19.65 34.65 L21.65 34.5 Q23.85 34.05 25.75 32.4 27.7 30.4 28.15 27.75 L28.15 28.0 Q28.4 29.7 29.45 31.0 L29.9 31.6 31.6 33.1 Q32.65 33.85 33.85 34.25 L37.65 34.55 Q40.95 33.9 42.85 31.3 L45.0 33.65 46.0 35.7 43.65 36.95 40.3 37.65 40.25 37.65 37.85 36.7 M15.85 20.6 Q18.2 19.0 21.15 19.6 24.1 20.1 25.85 22.45 27.55 24.85 27.0 27.75 26.75 29.25 25.85 30.45 L25.55 30.75 25.5 30.95 24.05 32.4 Q22.95 33.1 21.65 33.45 L18.7 33.55 Q15.85 32.85 14.15 30.55 12.35 28.15 12.9 25.35 L13.4 23.75 Q14.15 21.9 15.85 20.6 M26.7 5.15 Q27.85 4.5 29.55 5.15 L29.8 21.7 29.7 21.7 29.55 21.85 Q28.45 23.4 28.15 25.1 27.85 23.4 27.1 22.05 L26.7 21.5 26.45 21.4 26.4 21.4 26.7 5.15 M18.95 26.7 Q18.4 25.95 17.5 25.8 16.6 25.65 15.85 26.15 14.95 26.75 14.85 27.55 14.7 28.5 15.3 29.25 15.85 30.0 16.65 30.1 17.6 30.35 18.4 29.75 19.2 29.25 19.25 28.35 19.45 27.4 18.95 26.7 M22.7 47.05 L20.7 51.4 17.8 43.75 22.7 47.05 M32.05 43.75 L31.9 41.85 31.05 41.1 Q30.65 41.1 30.3 41.85 L30.15 42.4 29.95 43.75 Q29.95 44.75 30.3 45.55 30.65 46.35 31.05 46.35 L31.9 45.55 32.05 43.75 M24.5 41.85 L24.25 42.4 Q24.1 43.0 24.1 43.75 24.1 44.75 24.5 45.55 24.8 46.35 25.25 46.35 25.65 46.35 26.05 45.55 L26.25 43.75 26.05 41.85 Q25.65 41.1 25.25 41.1 24.8 41.1 24.5 41.85 M33.5 46.95 L38.35 43.75 35.55 51.4 33.5 46.95" fill="#000000" fill-rule="evenodd" stroke="none"/>
      <path d="M39.75 23.25 Q40.0 24.25 39.4 25.0 38.9 25.8 38.0 25.85 L36.5 25.65 36.35 25.5 Q35.6 25.0 35.4 24.1 35.3 23.25 35.8 22.45 L36.5 21.7 37.2 21.45 Q38.1 21.3 38.9 21.95 39.65 22.45 39.75 23.25 M29.25 27.8 Q28.65 24.8 30.25 22.45 31.65 20.55 33.8 19.85 L35.0 19.5 36.5 19.3 38.7 19.85 40.2 20.75 Q42.5 22.45 43.2 25.3 43.5 27.2 42.85 28.9 L42.0 30.65 40.6 32.1 40.35 32.2 40.1 32.45 Q38.9 33.35 37.4 33.65 34.5 34.15 32.1 32.45 29.75 30.7 29.25 27.8 M37.85 36.7 L41.85 40.25 28.1 49.8 28.1 49.95 22.2 45.75 22.1 45.65 14.35 40.25 18.35 36.7 15.85 37.65 12.6 36.95 10.2 35.7 11.2 33.65 13.35 31.35 13.4 31.4 13.8 31.95 13.9 32.05 Q16.2 34.5 19.65 34.65 L21.65 34.5 Q23.85 34.05 25.75 32.4 27.7 30.4 28.15 27.75 L28.15 28.0 Q28.4 29.7 29.45 31.0 L29.9 31.6 31.6 33.1 Q32.65 33.85 33.85 34.25 L37.65 34.55 Q40.95 33.9 42.85 31.3 L45.0 33.65 46.0 35.7 43.65 36.95 40.3 37.65 40.25 37.65 37.85 36.7 M26.7 5.15 L26.4 21.4 26.45 21.4 26.7 21.5 27.1 22.05 Q27.85 23.4 28.15 25.1 28.45 23.4 29.55 21.85 L29.7 21.7 29.8 21.7 29.55 5.15 Q27.85 4.5 26.7 5.15 M15.85 20.6 Q14.15 21.9 13.4 23.75 L12.9 25.35 Q12.35 28.15 14.15 30.55 15.85 32.85 18.7 33.55 L21.65 33.45 Q22.95 33.1 24.05 32.4 L25.5 30.95 25.55 30.75 25.85 30.45 Q26.75 29.25 27.0 27.75 27.55 24.85 25.85 22.45 24.1 20.1 21.15 19.6 18.2 19.0 15.85 20.6 M18.95 26.7 Q18.4 25.95 17.5 25.8 16.6 25.65 15.85 26.15 14.95 26.75 14.85 27.55 14.7 28.5 15.3 29.25 15.85 30.0 16.65 30.1 17.6 30.35 18.4 29.75 19.2 29.25 19.25 28.35 19.45 27.4 18.95 26.7 M24.5 41.85 Q24.8 41.1 25.25 41.1 25.65 41.1 26.05 41.85 L26.25 43.75 26.05 45.55 Q25.65 46.35 25.25 46.35 24.8 46.35 24.5 45.55 24.1 44.75 24.1 43.75 24.1 43.0 24.25 42.4 L24.5 41.85 M32.05 43.75 L31.9 45.55 31.05 46.35 Q30.65 46.35 30.3 45.55 29.95 44.75 29.95 43.75 L30.15 42.4 30.3 41.85 Q30.65 41.1 31.05 41.1 L31.9 41.85 32.05 43.75 M22.7 47.05 L17.8 43.75 20.7 51.4 22.7 47.05 M33.5 46.95 L38.35 43.75 35.55 51.4 33.5 46.95 Z" fill="none" stroke="#000000" stroke-linecap="round" stroke-linejoin="round" stroke-opacity="0.2" stroke-width="1.6"/>
      <path d="M39.75 23.25 Q39.65 22.45 38.9 21.95 38.1 21.3 37.2 21.45 L36.5 21.7 35.8 22.45 Q35.3 23.25 35.4 24.1 35.6 25.0 36.35 25.5 L36.5 25.65 38.0 25.85 Q38.9 25.8 39.4 25.0 40.0 24.25 39.75 23.25 M29.25 27.8 Q28.65 24.8 30.25 22.45 31.65 20.55 33.8 19.85 L35.0 19.5 36.5 19.3 38.7 19.85 40.2 20.75 Q42.5 22.45 43.2 25.3 43.5 27.2 42.85 28.9 L42.0 30.65 40.6 32.1 40.35 32.2 40.1 32.45 Q38.9 33.35 37.4 33.65 34.5 34.15 32.1 32.45 29.75 30.7 29.25 27.8 M37.85 36.7 L41.85 40.25 28.1 49.8 28.1 49.95 22.2 45.75 22.1 45.65 14.35 40.25 18.35 36.7 15.85 37.65 12.6 36.95 10.2 35.7 11.2 33.65 13.35 31.35 13.4 31.4 13.8 31.95 13.9 32.05 Q16.2 34.5 19.65 34.65 L21.65 34.5 Q23.85 34.05 25.75 32.4 27.7 30.4 28.15 27.75 L28.15 28.0 Q28.4 29.7 29.45 31.0 L29.9 31.6 31.6 33.1 Q32.65 33.85 33.85 34.25 L37.65 34.55 Q40.95 33.9 42.85 31.3 L45.0 33.65 46.0 35.7 43.65 36.95 40.3 37.65 40.25 37.65 37.85 36.7 M15.85 20.6 Q18.2 19.0 21.15 19.6 24.1 20.1 25.85 22.45 27.55 24.85 27.0 27.75 26.75 29.25 25.85 30.45 L25.55 30.75 25.5 30.95 24.05 32.4 Q22.95 33.1 21.65 33.45 L18.7 33.55 Q15.85 32.85 14.15 30.55 12.35 28.15 12.9 25.35 L13.4 23.75 Q14.15 21.9 15.85 20.6 M26.7 5.15 Q27.85 4.5 29.55 5.15 L29.8 21.7 29.7 21.7 29.55 21.85 Q28.45 23.4 28.15 25.1 27.85 23.4 27.1 22.05 L26.7 21.5 26.45 21.4 26.4 21.4 26.7 5.15 M18.95 26.7 Q18.4 25.95 17.5 25.8 16.6 25.65 15.85 26.15 14.95 26.75 14.85 27.55 14.7 28.5 15.3 29.25 15.85 30.0 16.65 30.1 17.6 30.35 18.4 29.75 19.2 29.25 19.25 28.35 19.45 27.4 18.95 26.7 M22.7 47.05 L20.7 51.4 17.8 43.75 22.7 47.05 M32.05 43.75 L31.9 41.85 31.05 41.1 Q30.65 41.1 30.3 41.85 L30.15 42.4 29.95 43.75 Q29.95 44.75 30.3 45.55 30.65 46.35 31.05 46.35 L31.9 45.55 32.05 43.75 M24.5 41.85 L24.25 42.4 Q24.1 43.0 24.1 43.75 24.1 44.75 24.5 45.55 24.8 46.35 25.25 46.35 25.65 46.35 26.05 45.55 L26.25 43.75 26.05 41.85 Q25.65 41.1 25.25 41.1 24.8 41.1 24.5 41.85 M33.5 46.95 L38.35 43.75 35.55 51.4 33.5 46.95" fill="#000000" fill-rule="evenodd" stroke="none"/>
    </g>
  </defs>
</svg>
