<?xml version="1.0" encoding="UTF-8" standalone="no"?>
<svg xmlns:ffdec="https://www.free-decompiler.com/flash" xmlns:xlink="http://www.w3.org/1999/xlink" ffdec:objectType="frame" height="56.0px" width="56.0px" xmlns="http://www.w3.org/2000/svg">
  <g transform="matrix(1.0, 0.0, 0.0, 1.0, 0.0, 0.0)">
    <use ffdec:characterId="5" ffdec:characterName="4_fla.Symbole12_1" height="56.0" id="back" transform="matrix(1.0, 0.0, 0.0, 1.0, 0.0, 0.0)" width="56.0" xlink:href="#sprite0"/>
    <use ffdec:characterId="7" height="55.55" id="back" transform="matrix(1.0, 0.0, 0.0, 1.0, 0.4, 0.45)" width="55.2" xlink:href="#sprite4"/>
    <use ffdec:characterId="9" height="54.05" id="up" transform="matrix(1.0, 0.0, 0.0, 1.0, 1.15, 1.2)" width="53.7" xlink:href="#sprite5"/>
  </g>
  <defs>
    <g id="sprite0" transform="matrix(1.0, 0.0, 0.0, 1.0, 0.0, 0.0)">
      <use ffdec:characterId="4" ffdec:characterName="4_fla.Symbole9_2" height="56.0" id="back" transform="matrix(1.0, 0.0, 0.0, 1.0, 0.0, 0.0)" width="56.0" xlink:href="#sprite1"/>
    </g>
    <g id="sprite1" transform="matrix(1.0, 0.0, 0.0, 1.0, 0.0, 0.0)">
      <use ffdec:characterId="3" ffdec:characterName="4_fla.Symbole6_3" height="56.0" id="back" transform="matrix(1.0, 0.0, 0.0, 1.0, 0.0, 0.0)" width="56.0" xlink:href="#sprite2"/>
    </g>
    <g id="sprite2" transform="matrix(1.0, 0.0, 0.0, 1.0, 0.0, 0.0)">
      <use ffdec:characterId="2" height="56.0" id="back" transform="matrix(1.0, 0.0, 0.0, 1.0, 0.0, 0.0)" width="56.0" xlink:href="#sprite3"/>
    </g>
    <g id="sprite3" transform="matrix(1.0, 0.0, 0.0, 1.0, 0.0, 0.0)">
      <use ffdec:characterId="1" height="56.0" transform="matrix(1.0, 0.0, 0.0, 1.0, 0.0, 0.0)" width="56.0" xlink:href="#shape0"/>
    </g>
    <g id="shape0" transform="matrix(1.0, 0.0, 0.0, 1.0, 0.0, 0.0)">
      <path d="M56.0 56.0 L0.0 56.0 0.0 0.0 56.0 0.0 56.0 56.0" fill="#010101" fill-opacity="0.0" fill-rule="evenodd" stroke="none"/>
    </g>
    <g id="sprite4" transform="matrix(1.0, 0.0, 0.0, 1.0, 0.75, 0.75)">
      <use ffdec:characterId="6" height="55.55" transform="matrix(1.0, 0.0, 0.0, 1.0, -0.75, -0.75)" width="55.2" xlink:href="#shape1"/>
    </g>
    <g id="shape1" transform="matrix(1.0, 0.0, 0.0, 1.0, 0.75, 0.75)">
      <path d="M53.7 26.95 Q53.7 27.9 51.45 29.2 48.8 30.5 46.5 30.65 48.6 33.6 48.35 36.25 43.0 33.4 39.9 32.2 34.85 30.3 30.05 30.2 30.2 35.05 32.0 40.1 33.1 43.2 36.1 48.65 33.3 48.8 30.4 46.7 30.4 49.05 29.05 51.7 27.75 54.05 26.9 54.05 25.9 54.05 24.7 51.7 23.25 49.05 23.25 46.7 20.15 48.8 17.55 48.65 20.4 43.2 21.65 40.1 23.45 35.05 23.65 30.2 18.75 30.3 13.8 32.2 10.7 33.4 5.4 36.25 5.05 33.6 7.15 30.65 4.8 30.5 2.35 29.2 -0.05 27.9 0.0 26.95 -0.05 26.05 2.35 24.7 4.8 23.4 7.15 23.4 5.05 20.3 5.4 17.65 10.7 20.6 13.8 21.85 18.75 23.6 23.65 23.7 23.45 18.75 21.65 13.7 20.4 10.65 17.55 5.35 20.15 5.05 23.25 7.15 23.25 4.8 24.7 2.25 25.9 -0.15 26.9 0.0 27.75 -0.15 29.05 2.25 30.4 4.8 30.4 7.15 33.3 5.05 36.1 5.35 33.1 10.65 32.0 13.7 30.2 18.75 30.05 23.7 34.85 23.6 39.9 21.85 43.0 20.6 48.35 17.65 48.6 20.3 46.5 23.4 48.8 23.4 51.45 24.7 53.7 26.05 53.7 26.95 Z" fill="none" stroke="#000000" stroke-linecap="round" stroke-linejoin="round" stroke-opacity="0.2" stroke-width="1.5"/>
    </g>
    <g id="sprite5" transform="matrix(1.0, 0.0, 0.0, 1.0, 0.0, 0.0)">
      <use ffdec:characterId="8" height="54.05" transform="matrix(1.0, 0.0, 0.0, 1.0, 0.0, 0.0)" width="53.7" xlink:href="#shape2"/>
    </g>
    <g id="shape2" transform="matrix(1.0, 0.0, 0.0, 1.0, 0.0, 0.0)">
      <path d="M53.7 26.95 Q53.7 27.9 51.45 29.2 48.8 30.5 46.5 30.65 48.6 33.6 48.35 36.25 43.0 33.4 39.9 32.2 34.85 30.3 30.05 30.2 30.2 35.05 32.0 40.1 33.1 43.2 36.1 48.65 33.3 48.8 30.4 46.7 30.4 49.05 29.05 51.7 27.75 54.05 26.9 54.05 25.9 54.05 24.7 51.7 23.25 49.05 23.25 46.7 20.15 48.8 17.55 48.65 20.4 43.2 21.65 40.1 23.45 35.05 23.65 30.2 18.75 30.3 13.8 32.2 10.7 33.4 5.4 36.25 5.05 33.6 7.15 30.65 4.8 30.5 2.35 29.2 -0.05 27.9 0.0 26.95 -0.05 26.05 2.35 24.7 4.8 23.4 7.15 23.4 5.05 20.3 5.4 17.65 10.7 20.6 13.8 21.85 18.75 23.6 23.65 23.7 23.45 18.75 21.65 13.7 20.4 10.65 17.55 5.35 20.15 5.05 23.25 7.15 23.25 4.8 24.7 2.25 25.9 -0.15 26.9 0.0 27.75 -0.15 29.05 2.25 30.4 4.8 30.4 7.15 33.3 5.05 36.1 5.35 33.1 10.65 32.0 13.7 30.2 18.75 30.05 23.7 34.85 23.6 39.9 21.85 43.0 20.6 48.35 17.65 48.6 20.3 46.5 23.4 48.8 23.4 51.45 24.7 53.7 26.05 53.7 26.95" fill="#000000" fill-rule="evenodd" stroke="none"/>
    </g>
  </defs>
</svg>
