<?xml version="1.0" encoding="UTF-8" standalone="no"?>
<svg xmlns:ffdec="https://www.free-decompiler.com/flash" xmlns:xlink="http://www.w3.org/1999/xlink" ffdec:objectType="frame" height="56.0px" width="56.0px" xmlns="http://www.w3.org/2000/svg">
  <g transform="matrix(1.0, 0.0, 0.0, 1.0, 0.0, 0.0)">
    <use ffdec:characterId="41" ffdec:characterName="40_fla.Symbole120_1" height="56.0" id="back" transform="matrix(1.0, 0.0, 0.0, 1.0, 0.0, 0.0)" width="56.0" xlink:href="#sprite0"/>
    <use ffdec:characterId="43" height="50.45" id="back" transform="matrix(1.0, 0.0, 0.0, 1.0, 0.4, 2.9)" width="55.4" xlink:href="#sprite40"/>
    <use ffdec:characterId="45" height="48.95" id="up" transform="matrix(1.0, 0.0, 0.0, 1.0, 1.15, 3.65)" width="53.9" xlink:href="#sprite41"/>
  </g>
  <defs>
    <g id="sprite0" transform="matrix(1.0, 0.0, 0.0, 1.0, 0.0, 0.0)">
      <use ffdec:characterId="40" ffdec:characterName="40_fla.Symbole117_2" height="56.0" id="back" transform="matrix(1.0, 0.0, 0.0, 1.0, 0.0, 0.0)" width="56.0" xlink:href="#sprite1"/>
    </g>
    <g id="sprite1" transform="matrix(1.0, 0.0, 0.0, 1.0, 0.0, 0.0)">
      <use ffdec:characterId="39" ffdec:characterName="40_fla.Symbole114_3" height="56.0" id="back" transform="matrix(1.0, 0.0, 0.0, 1.0, 0.0, 0.0)" width="56.0" xlink:href="#sprite2"/>
    </g>
    <g id="sprite2" transform="matrix(1.0, 0.0, 0.0, 1.0, 0.0, 0.0)">
      <use ffdec:characterId="38" ffdec:characterName="40_fla.Symbole111_4" height="56.0" id="back" transform="matrix(1.0, 0.0, 0.0, 1.0, 0.0, 0.0)" width="56.0" xlink:href="#sprite3"/>
    </g>
    <g id="sprite3" transform="matrix(1.0, 0.0, 0.0, 1.0, 0.0, 0.0)">
      <use ffdec:characterId="37" ffdec:characterName="40_fla.Symbole108_5" height="56.0" id="back" transform="matrix(1.0, 0.0, 0.0, 1.0, 0.0, 0.0)" width="56.0" xlink:href="#sprite4"/>
    </g>
    <g id="sprite4" transform="matrix(1.0, 0.0, 0.0, 1.0, 0.0, 0.0)">
      <use ffdec:characterId="36" ffdec:characterName="40_fla.Symbole105_6" height="56.0" id="back" transform="matrix(1.0, 0.0, 0.0, 1.0, 0.0, 0.0)" width="56.0" xlink:href="#sprite5"/>
    </g>
    <g id="sprite5" transform="matrix(1.0, 0.0, 0.0, 1.0, 0.0, 0.0)">
      <use ffdec:characterId="35" ffdec:characterName="40_fla.Symbole102_7" height="56.0" id="back" transform="matrix(1.0, 0.0, 0.0, 1.0, 0.0, 0.0)" width="56.0" xlink:href="#sprite6"/>
    </g>
    <g id="sprite6" transform="matrix(1.0, 0.0, 0.0, 1.0, 0.0, 0.0)">
      <use ffdec:characterId="34" ffdec:characterName="40_fla.Symbole99_8" height="56.0" id="back" transform="matrix(1.0, 0.0, 0.0, 1.0, 0.0, 0.0)" width="56.0" xlink:href="#sprite7"/>
    </g>
    <g id="sprite7" transform="matrix(1.0, 0.0, 0.0, 1.0, 0.0, 0.0)">
      <use ffdec:characterId="33" ffdec:characterName="40_fla.Symbole96_9" height="56.0" id="back" transform="matrix(1.0, 0.0, 0.0, 1.0, 0.0, 0.0)" width="56.0" xlink:href="#sprite8"/>
    </g>
    <g id="sprite8" transform="matrix(1.0, 0.0, 0.0, 1.0, 0.0, 0.0)">
      <use ffdec:characterId="32" ffdec:characterName="40_fla.Symbole93_10" height="56.0" id="back" transform="matrix(1.0, 0.0, 0.0, 1.0, 0.0, 0.0)" width="56.0" xlink:href="#sprite9"/>
    </g>
    <g id="sprite9" transform="matrix(1.0, 0.0, 0.0, 1.0, 0.0, 0.0)">
      <use ffdec:characterId="31" ffdec:characterName="40_fla.Symbole90_11" height="56.0" id="back" transform="matrix(1.0, 0.0, 0.0, 1.0, 0.0, 0.0)" width="56.0" xlink:href="#sprite10"/>
    </g>
    <g id="sprite10" transform="matrix(1.0, 0.0, 0.0, 1.0, 0.0, 0.0)">
      <use ffdec:characterId="30" ffdec:characterName="40_fla.Symbole87_12" height="56.0" id="back" transform="matrix(1.0, 0.0, 0.0, 1.0, 0.0, 0.0)" width="56.0" xlink:href="#sprite11"/>
    </g>
    <g id="sprite11" transform="matrix(1.0, 0.0, 0.0, 1.0, 0.0, 0.0)">
      <use ffdec:characterId="29" ffdec:characterName="40_fla.Symbole84_13" height="56.0" id="back" transform="matrix(1.0, 0.0, 0.0, 1.0, 0.0, 0.0)" width="56.0" xlink:href="#sprite12"/>
    </g>
    <g id="sprite12" transform="matrix(1.0, 0.0, 0.0, 1.0, 0.0, 0.0)">
      <use ffdec:characterId="28" ffdec:characterName="40_fla.Symbole81_14" height="56.0" id="back" transform="matrix(1.0, 0.0, 0.0, 1.0, 0.0, 0.0)" width="56.0" xlink:href="#sprite13"/>
    </g>
    <g id="sprite13" transform="matrix(1.0, 0.0, 0.0, 1.0, 0.0, 0.0)">
      <use ffdec:characterId="27" ffdec:characterName="40_fla.Symbole78_15" height="56.0" id="back" transform="matrix(1.0, 0.0, 0.0, 1.0, 0.0, 0.0)" width="56.0" xlink:href="#sprite14"/>
    </g>
    <g id="sprite14" transform="matrix(1.0, 0.0, 0.0, 1.0, 0.0, 0.0)">
      <use ffdec:characterId="26" ffdec:characterName="40_fla.Symbole75_16" height="56.0" id="back" transform="matrix(1.0, 0.0, 0.0, 1.0, 0.0, 0.0)" width="56.0" xlink:href="#sprite15"/>
    </g>
    <g id="sprite15" transform="matrix(1.0, 0.0, 0.0, 1.0, 0.0, 0.0)">
      <use ffdec:characterId="25" ffdec:characterName="40_fla.Symbole72_17" height="56.0" id="back" transform="matrix(1.0, 0.0, 0.0, 1.0, 0.0, 0.0)" width="56.0" xlink:href="#sprite16"/>
    </g>
    <g id="sprite16" transform="matrix(1.0, 0.0, 0.0, 1.0, 0.0, 0.0)">
      <use ffdec:characterId="24" ffdec:characterName="40_fla.Symbole69_18" height="56.0" id="back" transform="matrix(1.0, 0.0, 0.0, 1.0, 0.0, 0.0)" width="56.0" xlink:href="#sprite17"/>
    </g>
    <g id="sprite17" transform="matrix(1.0, 0.0, 0.0, 1.0, 0.0, 0.0)">
      <use ffdec:characterId="23" ffdec:characterName="40_fla.Symbole66_19" height="56.0" id="back" transform="matrix(1.0, 0.0, 0.0, 1.0, 0.0, 0.0)" width="56.0" xlink:href="#sprite18"/>
    </g>
    <g id="sprite18" transform="matrix(1.0, 0.0, 0.0, 1.0, 0.0, 0.0)">
      <use ffdec:characterId="22" ffdec:characterName="40_fla.Symbole63_20" height="56.0" id="back" transform="matrix(1.0, 0.0, 0.0, 1.0, 0.0, 0.0)" width="56.0" xlink:href="#sprite19"/>
    </g>
    <g id="sprite19" transform="matrix(1.0, 0.0, 0.0, 1.0, 0.0, 0.0)">
      <use ffdec:characterId="21" ffdec:characterName="40_fla.Symbole60_21" height="56.0" id="back" transform="matrix(1.0, 0.0, 0.0, 1.0, 0.0, 0.0)" width="56.0" xlink:href="#sprite20"/>
    </g>
    <g id="sprite20" transform="matrix(1.0, 0.0, 0.0, 1.0, 0.0, 0.0)">
      <use ffdec:characterId="20" ffdec:characterName="40_fla.Symbole57_22" height="56.0" id="back" transform="matrix(1.0, 0.0, 0.0, 1.0, 0.0, 0.0)" width="56.0" xlink:href="#sprite21"/>
    </g>
    <g id="sprite21" transform="matrix(1.0, 0.0, 0.0, 1.0, 0.0, 0.0)">
      <use ffdec:characterId="19" ffdec:characterName="40_fla.Symbole54_23" height="56.0" id="back" transform="matrix(1.0, 0.0, 0.0, 1.0, 0.0, 0.0)" width="56.0" xlink:href="#sprite22"/>
    </g>
    <g id="sprite22" transform="matrix(1.0, 0.0, 0.0, 1.0, 0.0, 0.0)">
      <use ffdec:characterId="18" ffdec:characterName="40_fla.Symbole51_24" height="56.0" id="back" transform="matrix(1.0, 0.0, 0.0, 1.0, 0.0, 0.0)" width="56.0" xlink:href="#sprite23"/>
    </g>
    <g id="sprite23" transform="matrix(1.0, 0.0, 0.0, 1.0, 0.0, 0.0)">
      <use ffdec:characterId="17" ffdec:characterName="40_fla.Symbole48_25" height="56.0" id="back" transform="matrix(1.0, 0.0, 0.0, 1.0, 0.0, 0.0)" width="56.0" xlink:href="#sprite24"/>
    </g>
    <g id="sprite24" transform="matrix(1.0, 0.0, 0.0, 1.0, 0.0, 0.0)">
      <use ffdec:characterId="16" ffdec:characterName="40_fla.Symbole45_26" height="56.0" id="back" transform="matrix(1.0, 0.0, 0.0, 1.0, 0.0, 0.0)" width="56.0" xlink:href="#sprite25"/>
    </g>
    <g id="sprite25" transform="matrix(1.0, 0.0, 0.0, 1.0, 0.0, 0.0)">
      <use ffdec:characterId="15" ffdec:characterName="40_fla.Symbole42_27" height="56.0" id="back" transform="matrix(1.0, 0.0, 0.0, 1.0, 0.0, 0.0)" width="56.0" xlink:href="#sprite26"/>
    </g>
    <g id="sprite26" transform="matrix(1.0, 0.0, 0.0, 1.0, 0.0, 0.0)">
      <use ffdec:characterId="14" ffdec:characterName="40_fla.Symbole39_28" height="56.0" id="back" transform="matrix(1.0, 0.0, 0.0, 1.0, 0.0, 0.0)" width="56.0" xlink:href="#sprite27"/>
    </g>
    <g id="sprite27" transform="matrix(1.0, 0.0, 0.0, 1.0, 0.0, 0.0)">
      <use ffdec:characterId="13" ffdec:characterName="40_fla.Symbole36_29" height="56.0" id="back" transform="matrix(1.0, 0.0, 0.0, 1.0, 0.0, 0.0)" width="56.0" xlink:href="#sprite28"/>
    </g>
    <g id="sprite28" transform="matrix(1.0, 0.0, 0.0, 1.0, 0.0, 0.0)">
      <use ffdec:characterId="12" ffdec:characterName="40_fla.Symbole33_30" height="56.0" id="back" transform="matrix(1.0, 0.0, 0.0, 1.0, 0.0, 0.0)" width="56.0" xlink:href="#sprite29"/>
    </g>
    <g id="sprite29" transform="matrix(1.0, 0.0, 0.0, 1.0, 0.0, 0.0)">
      <use ffdec:characterId="11" ffdec:characterName="40_fla.Symbole30_31" height="56.0" id="back" transform="matrix(1.0, 0.0, 0.0, 1.0, 0.0, 0.0)" width="56.0" xlink:href="#sprite30"/>
    </g>
    <g id="sprite30" transform="matrix(1.0, 0.0, 0.0, 1.0, 0.0, 0.0)">
      <use ffdec:characterId="10" ffdec:characterName="40_fla.Symbole27_32" height="56.0" id="back" transform="matrix(1.0, 0.0, 0.0, 1.0, 0.0, 0.0)" width="56.0" xlink:href="#sprite31"/>
    </g>
    <g id="sprite31" transform="matrix(1.0, 0.0, 0.0, 1.0, 0.0, 0.0)">
      <use ffdec:characterId="9" ffdec:characterName="40_fla.Symbole24_33" height="56.0" id="back" transform="matrix(1.0, 0.0, 0.0, 1.0, 0.0, 0.0)" width="56.0" xlink:href="#sprite32"/>
    </g>
    <g id="sprite32" transform="matrix(1.0, 0.0, 0.0, 1.0, 0.0, 0.0)">
      <use ffdec:characterId="8" ffdec:characterName="40_fla.Symbole21_34" height="56.0" id="back" transform="matrix(1.0, 0.0, 0.0, 1.0, 0.0, 0.0)" width="56.0" xlink:href="#sprite33"/>
    </g>
    <g id="sprite33" transform="matrix(1.0, 0.0, 0.0, 1.0, 0.0, 0.0)">
      <use ffdec:characterId="7" ffdec:characterName="40_fla.Symbole18_35" height="56.0" id="back" transform="matrix(1.0, 0.0, 0.0, 1.0, 0.0, 0.0)" width="56.0" xlink:href="#sprite34"/>
    </g>
    <g id="sprite34" transform="matrix(1.0, 0.0, 0.0, 1.0, 0.0, 0.0)">
      <use ffdec:characterId="6" ffdec:characterName="40_fla.Symbole15_36" height="56.0" id="back" transform="matrix(1.0, 0.0, 0.0, 1.0, 0.0, 0.0)" width="56.0" xlink:href="#sprite35"/>
    </g>
    <g id="sprite35" transform="matrix(1.0, 0.0, 0.0, 1.0, 0.0, 0.0)">
      <use ffdec:characterId="5" ffdec:characterName="40_fla.Symbole12_37" height="56.0" id="back" transform="matrix(1.0, 0.0, 0.0, 1.0, 0.0, 0.0)" width="56.0" xlink:href="#sprite36"/>
    </g>
    <g id="sprite36" transform="matrix(1.0, 0.0, 0.0, 1.0, 0.0, 0.0)">
      <use ffdec:characterId="4" ffdec:characterName="40_fla.Symbole9_38" height="56.0" id="back" transform="matrix(1.0, 0.0, 0.0, 1.0, 0.0, 0.0)" width="56.0" xlink:href="#sprite37"/>
    </g>
    <g id="sprite37" transform="matrix(1.0, 0.0, 0.0, 1.0, 0.0, 0.0)">
      <use ffdec:characterId="3" ffdec:characterName="40_fla.Symbole6_39" height="56.0" id="back" transform="matrix(1.0, 0.0, 0.0, 1.0, 0.0, 0.0)" width="56.0" xlink:href="#sprite38"/>
    </g>
    <g id="sprite38" transform="matrix(1.0, 0.0, 0.0, 1.0, 0.0, 0.0)">
      <use ffdec:characterId="2" height="56.0" id="back" transform="matrix(1.0, 0.0, 0.0, 1.0, 0.0, 0.0)" width="56.0" xlink:href="#sprite39"/>
    </g>
    <g id="sprite39" transform="matrix(1.0, 0.0, 0.0, 1.0, 0.0, 0.0)">
      <use ffdec:characterId="1" height="56.0" transform="matrix(1.0, 0.0, 0.0, 1.0, 0.0, 0.0)" width="56.0" xlink:href="#shape0"/>
    </g>
    <g id="shape0" transform="matrix(1.0, 0.0, 0.0, 1.0, 0.0, 0.0)">
      <path d="M56.0 56.0 L0.0 56.0 0.0 0.0 56.0 0.0 56.0 56.0" fill="#010101" fill-opacity="0.0" fill-rule="evenodd" stroke="none"/>
    </g>
    <g id="sprite40" transform="matrix(1.0, 0.0, 0.0, 1.0, 0.75, 0.75)">
      <use ffdec:characterId="42" height="50.45" transform="matrix(1.0, 0.0, 0.0, 1.0, -0.75, -0.75)" width="55.4" xlink:href="#shape1"/>
    </g>
    <g id="shape1" transform="matrix(1.0, 0.0, 0.0, 1.0, 0.75, 0.75)">
      <path d="M47.45 17.65 Q49.45 18.95 50.3 21.25 51.3 23.5 51.8 26.1 52.35 28.5 53.7 30.55 54.15 31.4 53.5 32.4 52.0 34.35 49.6 34.55 47.0 34.8 44.8 35.4 42.0 36.15 41.6 38.75 42.05 40.4 43.75 39.95 L44.35 39.6 Q45.05 39.0 45.25 39.75 44.9 40.9 43.6 41.25 L42.65 41.1 Q40.3 40.7 40.4 38.25 40.4 34.85 43.15 33.1 41.0 31.75 40.1 29.45 39.7 28.7 39.65 27.95 38.85 25.55 40.4 23.75 L40.75 24.05 Q40.15 25.95 41.0 27.85 L42.0 29.25 Q43.95 31.2 46.55 30.25 49.75 28.95 50.05 25.5 50.3 22.7 48.75 20.5 47.45 18.65 45.55 17.65 40.3 14.95 35.3 18.2 27.75 22.75 27.35 31.75 L27.0 34.65 Q27.15 31.15 26.15 27.85 L25.25 25.35 Q23.3 20.95 19.2 18.35 16.0 16.2 12.2 16.6 8.65 16.9 6.2 19.65 4.65 21.25 4.3 23.5 3.45 27.95 7.35 29.85 10.3 31.3 12.45 28.7 14.2 26.55 13.4 23.8 L13.75 23.75 Q15.05 25.25 14.65 27.25 L14.05 29.15 Q13.1 31.55 10.8 33.1 12.9 34.35 13.75 36.6 L14.05 38.1 Q13.8 41.05 11.0 41.05 9.3 41.05 8.85 39.55 10.1 40.25 11.6 40.05 L12.05 39.75 Q12.9 38.55 11.9 37.4 9.7 34.85 6.25 34.8 2.6 34.65 0.6 32.05 -0.05 31.3 0.0 30.45 1.45 29.0 2.1 27.2 L2.75 24.35 Q3.45 19.4 7.95 17.05 12.5 14.3 17.6 16.15 22.4 17.95 25.7 22.0 L26.35 22.95 26.35 13.15 Q25.15 14.3 23.55 14.0 L22.65 13.35 Q20.9 10.95 18.5 9.95 17.6 9.5 17.2 10.55 16.4 11.95 16.4 13.4 15.35 13.0 15.35 12.05 15.25 10.95 15.7 10.1 17.0 6.85 20.65 6.25 L23.7 6.1 Q23.95 2.75 26.45 0.45 L27.0 0.0 Q29.1 1.45 30.0 3.9 L30.35 5.55 30.4 6.1 Q32.8 5.8 35.2 6.7 L36.5 7.5 Q39.1 9.45 38.55 12.55 38.4 13.15 37.95 13.35 L37.35 10.75 Q36.65 9.45 35.3 9.75 34.75 9.75 34.45 10.2 L31.25 13.25 28.0 13.35 27.6 22.95 Q30.2 19.4 34.05 17.1 L36.05 16.15 Q41.85 14.0 47.0 17.35 L47.45 17.65 M45.55 23.1 Q43.35 22.9 43.35 25.05 45.35 27.65 46.85 24.6 47.7 22.9 46.55 21.25 45.55 19.85 43.95 19.2 41.2 17.9 38.4 18.85 31.7 21.0 29.35 28.15 25.9 38.45 32.95 46.15 34.9 48.2 37.5 46.9 38.55 46.15 38.85 44.85 L38.85 43.7 38.4 43.3 Q37.9 47.0 34.3 45.9 33.15 45.45 32.55 44.4 31.25 42.2 32.1 39.75 32.8 37.6 32.6 35.3 L32.55 33.95 Q36.5 33.25 37.1 29.4 37.35 28.1 36.8 26.85 L34.95 27.5 Q32.75 23.75 37.05 20.7 39.7 18.8 42.95 19.95 44.65 20.35 45.35 22.1 L45.55 23.1 M16.1 18.65 Q18.6 19.4 20.45 21.45 22.2 23.3 23.3 25.55 L25.0 30.25 25.6 35.0 25.25 39.45 Q24.75 41.95 23.55 44.15 22.25 46.35 20.0 47.15 17.2 47.95 15.7 45.6 15.05 44.6 15.25 43.3 L15.8 43.3 Q16.55 47.6 20.2 45.6 22.4 44.4 22.4 41.95 L21.95 37.15 21.6 33.95 Q17.45 33.25 17.0 29.4 16.75 28.1 17.2 26.85 19.45 28.55 19.65 25.75 19.9 23.1 17.7 21.25 15.1 18.95 11.9 19.65 9.65 20.1 8.85 22.1 8.55 22.55 8.4 23.1 L8.85 23.1 Q12.2 23.8 9.55 25.95 8.65 26.55 7.8 25.75 5.8 23.8 7.5 21.4 8.85 19.25 11.35 18.65 13.75 17.95 16.1 18.65 M27.0 44.3 Q28.0 44.3 28.65 44.95 29.25 45.6 29.35 46.7 29.25 47.6 28.65 48.25 28.0 48.95 27.0 48.95 26.05 48.95 25.4 48.25 24.75 47.6 24.75 46.7 24.75 45.7 25.4 44.95 26.05 44.3 27.0 44.3 Z" fill="none" stroke="#000000" stroke-linecap="round" stroke-linejoin="round" stroke-opacity="0.2" stroke-width="1.5"/>
    </g>
    <g id="sprite41" transform="matrix(1.0, 0.0, 0.0, 1.0, 0.0, 0.0)">
      <use ffdec:characterId="44" height="48.95" transform="matrix(1.0, 0.0, 0.0, 1.0, 0.0, 0.0)" width="53.9" xlink:href="#shape2"/>
    </g>
    <g id="shape2" transform="matrix(1.0, 0.0, 0.0, 1.0, 0.0, 0.0)">
      <path d="M47.45 17.65 Q49.45 18.95 50.3 21.25 51.3 23.5 51.8 26.1 52.35 28.5 53.7 30.55 54.15 31.4 53.5 32.4 52.0 34.35 49.6 34.55 47.0 34.8 44.8 35.4 42.0 36.15 41.6 38.75 42.05 40.4 43.75 39.95 L44.35 39.6 Q45.05 39.0 45.25 39.75 44.9 40.9 43.6 41.25 L42.65 41.1 Q40.3 40.7 40.4 38.25 40.4 34.85 43.15 33.1 41.0 31.75 40.1 29.45 39.7 28.7 39.65 27.95 38.85 25.55 40.4 23.75 L40.75 24.05 Q40.15 25.95 41.0 27.85 L42.0 29.25 Q43.95 31.2 46.55 30.25 49.75 28.95 50.05 25.5 50.3 22.7 48.75 20.5 47.45 18.65 45.55 17.65 40.3 14.95 35.3 18.2 27.75 22.75 27.35 31.75 L27.0 34.65 Q27.15 31.15 26.15 27.85 L25.25 25.35 Q23.3 20.95 19.2 18.35 16.0 16.2 12.2 16.6 8.65 16.9 6.2 19.65 4.65 21.25 4.3 23.5 3.45 27.95 7.35 29.85 10.3 31.3 12.45 28.7 14.2 26.55 13.4 23.8 L13.75 23.75 Q15.05 25.25 14.65 27.25 L14.05 29.15 Q13.1 31.55 10.8 33.1 12.9 34.35 13.75 36.6 L14.05 38.1 Q13.8 41.05 11.0 41.05 9.3 41.05 8.85 39.55 10.1 40.25 11.6 40.05 L12.05 39.75 Q12.9 38.55 11.9 37.4 9.7 34.85 6.25 34.8 2.6 34.65 0.6 32.05 -0.05 31.3 0.0 30.45 1.45 29.0 2.1 27.2 L2.75 24.35 Q3.45 19.4 7.95 17.05 12.5 14.3 17.6 16.15 22.4 17.95 25.7 22.0 L26.35 22.95 26.35 13.15 Q25.15 14.3 23.55 14.0 L22.65 13.35 Q20.9 10.95 18.5 9.95 17.6 9.5 17.2 10.55 16.4 11.95 16.4 13.4 15.35 13.0 15.35 12.05 15.25 10.95 15.7 10.1 17.0 6.85 20.65 6.25 L23.7 6.1 Q23.95 2.75 26.45 0.45 L27.0 0.0 Q29.1 1.45 30.0 3.9 L30.35 5.55 30.4 6.1 Q32.8 5.8 35.2 6.7 L36.5 7.5 Q39.1 9.45 38.55 12.55 38.4 13.15 37.95 13.35 L37.35 10.75 Q36.65 9.45 35.3 9.75 34.75 9.75 34.45 10.2 L31.25 13.25 28.0 13.35 27.6 22.95 Q30.2 19.4 34.05 17.1 L36.05 16.15 Q41.85 14.0 47.0 17.35 L47.45 17.65 M45.55 23.1 L45.35 22.1 Q44.65 20.35 42.95 19.95 39.7 18.8 37.05 20.7 32.75 23.75 34.95 27.5 L36.8 26.85 Q37.35 28.1 37.1 29.4 36.5 33.25 32.55 33.95 L32.6 35.3 Q32.8 37.6 32.1 39.75 31.25 42.2 32.55 44.4 33.15 45.45 34.3 45.9 37.9 47.0 38.4 43.3 L38.85 43.7 38.85 44.85 Q38.55 46.15 37.5 46.9 34.9 48.2 32.95 46.15 25.9 38.45 29.35 28.15 31.7 21.0 38.4 18.85 41.2 17.9 43.95 19.2 45.55 19.85 46.55 21.25 47.7 22.9 46.85 24.6 45.35 27.65 43.35 25.05 43.35 22.9 45.55 23.1 M16.1 18.65 Q18.6 19.4 20.45 21.45 22.2 23.3 23.3 25.55 L25.0 30.25 25.6 35.0 25.25 39.45 Q24.75 41.95 23.55 44.15 22.25 46.35 20.0 47.15 17.2 47.95 15.7 45.6 15.05 44.6 15.25 43.3 L15.8 43.3 Q16.55 47.6 20.2 45.6 22.4 44.4 22.4 41.95 L21.95 37.15 21.6 33.95 Q17.45 33.25 17.0 29.4 16.75 28.1 17.2 26.85 19.45 28.55 19.65 25.75 19.9 23.1 17.7 21.25 15.1 18.95 11.9 19.65 9.65 20.1 8.85 22.1 8.55 22.55 8.4 23.1 L8.85 23.1 Q12.2 23.8 9.55 25.95 8.65 26.55 7.8 25.75 5.8 23.8 7.5 21.4 8.85 19.25 11.35 18.65 13.75 17.95 16.1 18.65 M27.0 44.3 Q28.0 44.3 28.65 44.95 29.25 45.6 29.35 46.7 29.25 47.6 28.65 48.25 28.0 48.95 27.0 48.95 26.05 48.95 25.4 48.25 24.75 47.6 24.75 46.7 24.75 45.7 25.4 44.95 26.05 44.3 27.0 44.3" fill="#000000" fill-rule="evenodd" stroke="none"/>
    </g>
  </defs>
</svg>
