<?xml version="1.0" encoding="UTF-8" standalone="no"?>
<svg xmlns:ffdec="https://www.free-decompiler.com/flash" xmlns:xlink="http://www.w3.org/1999/xlink" ffdec:objectType="frame" height="56.0px" width="56.0px" xmlns="http://www.w3.org/2000/svg">
  <g transform="matrix(1.0, 0.0, 0.0, 1.0, 0.0, 0.0)">
    <use ffdec:characterId="2" height="56.0" id="back" transform="matrix(1.0, 0.0, 0.0, 1.0, 0.0, 0.0)" width="56.0" xlink:href="#sprite0"/>
    <use ffdec:characterId="3" height="50.15" transform="matrix(1.0, 0.0, 0.0, 1.0, 7.4, 2.05)" width="42.0" xlink:href="#shape1"/>
  </g>
  <defs>
    <g id="sprite0" transform="matrix(1.0, 0.0, 0.0, 1.0, 0.0, 0.0)">
      <use ffdec:characterId="1" height="56.0" transform="matrix(1.0, 0.0, 0.0, 1.0, 0.0, 0.0)" width="56.0" xlink:href="#shape0"/>
    </g>
    <g id="shape0" transform="matrix(1.0, 0.0, 0.0, 1.0, 0.0, 0.0)">
      <path d="M56.0 56.0 L0.0 56.0 0.0 0.0 56.0 0.0 56.0 56.0" fill="#010101" fill-opacity="0.0" fill-rule="evenodd" stroke="none"/>
    </g>
    <g id="shape1" transform="matrix(1.0, 0.0, 0.0, 1.0, -7.4, -2.05)">
      <path d="M27.35 30.3 L29.5 30.3 30.45 10.85 Q30.9 10.15 31.4 10.5 32.0 10.9 32.05 11.55 L36.8 30.3 38.45 30.3 47.0 28.55 Q49.85 28.8 47.65 34.0 L44.9 37.9 Q41.8 42.05 40.15 43.4 L36.8 51.4 32.65 50.8 30.05 50.65 29.15 49.75 28.45 49.3 27.65 49.75 26.75 50.65 24.15 50.8 20.05 51.4 16.65 43.4 Q15.05 42.05 11.95 37.9 L9.15 34.0 Q7.0 28.8 9.8 28.55 L18.4 30.3 20.05 30.3 24.8 11.55 Q24.85 10.9 25.4 10.5 25.95 10.15 26.35 10.85 L27.35 30.3 M22.9 6.1 L22.9 5.95 22.95 5.95 22.95 3.0 28.25 3.35 Q30.6 3.9 32.65 5.35 31.2 5.6 29.7 6.45 L29.05 6.8 27.25 8.1 25.85 9.3 23.45 7.4 Q21.2 8.15 19.0 10.3 17.65 11.65 16.9 12.95 15.35 15.7 15.65 19.5 16.0 22.8 18.25 27.2 L19.65 29.45 14.6 28.8 13.85 27.2 Q12.75 23.75 12.75 19.95 12.95 15.8 14.55 12.95 15.45 11.2 16.75 9.85 18.25 8.4 22.9 6.1 M16.55 32.35 L16.2 33.15 Q15.9 33.5 15.45 33.5 15.0 33.5 14.65 33.15 14.35 32.8 14.35 32.35 14.35 31.9 14.65 31.6 15.0 31.25 15.45 31.25 15.9 31.25 16.2 31.6 16.55 31.9 16.55 32.35 M16.75 33.65 Q17.3 33.1 17.3 32.35 17.3 31.6 16.75 31.05 16.2 30.55 15.45 30.55 14.7 30.55 14.15 31.05 13.6 31.6 13.6 32.35 13.6 33.1 14.15 33.65 14.7 34.2 15.45 34.2 16.2 34.2 16.75 33.65 M16.15 32.35 L15.95 31.85 15.45 31.65 14.9 31.85 14.7 32.35 14.9 32.9 15.45 33.1 15.95 32.9 16.15 32.35 M25.85 34.0 Q24.9 33.1 23.35 33.1 21.85 33.1 20.85 34.0 19.8 34.9 19.8 36.25 19.8 37.65 20.85 38.8 21.95 39.75 23.35 39.75 24.85 39.75 25.85 38.8 26.9 37.6 26.9 36.25 26.9 34.95 25.85 34.0 M24.0 34.0 Q25.1 36.4 23.9 39.25 22.7 36.7 23.6 34.0 L23.9 33.5 24.0 34.0 M30.95 34.0 Q29.95 34.95 29.95 36.25 29.95 37.6 30.95 38.8 32.0 39.75 33.5 39.75 34.85 39.75 35.95 38.8 37.05 37.65 37.05 36.25 37.05 34.9 35.95 34.0 35.0 33.1 33.5 33.1 31.95 33.1 30.95 34.0 M32.85 34.0 L32.95 33.5 33.25 34.0 Q34.15 36.7 32.95 39.25 31.75 36.4 32.85 34.0 M40.3 32.35 Q40.3 31.9 40.6 31.6 40.9 31.25 41.4 31.25 41.85 31.25 42.15 31.6 L42.2 31.6 42.5 32.35 42.2 33.15 Q41.85 33.5 41.4 33.5 40.95 33.5 40.6 33.15 40.3 32.8 40.3 32.35 M40.7 32.35 L40.9 32.9 41.4 33.1 Q41.7 33.1 41.9 32.9 L42.1 32.35 41.9 31.85 41.4 31.65 40.9 31.85 40.7 32.35 M40.1 33.65 Q40.65 34.2 41.4 34.2 42.15 34.2 42.65 33.65 43.2 33.1 43.2 32.35 43.2 31.6 42.65 31.05 42.15 30.55 41.4 30.55 40.65 30.55 40.1 31.05 39.55 31.6 39.55 32.35 39.55 33.1 40.1 33.65 M44.7 32.45 L44.85 32.85 45.3 33.05 Q45.6 33.05 45.8 32.85 L45.95 32.45 45.8 32.0 45.8 31.95 45.3 31.8 Q45.05 31.8 44.85 31.95 44.7 32.15 44.7 32.45 M44.3 32.45 Q44.3 32.0 44.6 31.7 44.85 31.4 45.3 31.4 45.7 31.4 46.0 31.7 L46.05 31.7 46.3 32.45 46.05 33.1 Q45.7 33.4 45.3 33.4 L44.6 33.1 44.3 32.45 M44.15 33.6 Q44.6 34.05 45.3 34.05 45.95 34.05 46.45 33.55 46.95 33.1 46.95 32.45 46.95 31.75 46.45 31.25 45.95 30.75 45.3 30.75 44.6 30.75 44.15 31.25 43.65 31.75 43.65 32.45 43.65 33.1 44.15 33.55 L44.15 33.6 M12.7 33.6 L12.7 33.55 Q13.15 33.1 13.15 32.45 13.15 31.75 12.7 31.25 12.2 30.75 11.55 30.75 10.85 30.75 10.4 31.25 9.85 31.75 9.85 32.45 9.85 33.1 10.4 33.55 10.85 34.05 11.55 34.05 12.2 34.05 12.7 33.6 M12.55 32.45 L12.25 33.1 11.55 33.4 10.8 33.1 10.5 32.45 Q10.5 32.0 10.8 31.7 L10.85 31.7 Q11.1 31.4 11.55 31.4 11.95 31.4 12.25 31.7 L12.55 32.45 M12.15 32.45 L11.95 31.95 11.5 31.8 Q11.25 31.8 11.05 31.95 L11.05 32.0 Q10.9 32.15 10.9 32.45 L11.05 32.85 11.5 33.05 Q11.75 33.05 11.95 32.85 L12.15 32.45 M15.8 37.0 L15.5 37.8 Q15.15 38.15 14.7 38.15 14.25 38.15 13.9 37.8 13.6 37.45 13.6 37.0 13.6 36.55 13.9 36.2 L13.95 36.2 Q14.25 35.85 14.7 35.85 15.2 35.85 15.5 36.2 L15.8 37.0 M15.4 37.0 L15.2 36.5 14.7 36.3 Q14.4 36.3 14.2 36.5 L14.0 37.0 14.2 37.5 Q14.4 37.7 14.7 37.7 L15.2 37.5 15.4 37.0 M16.0 38.3 L16.0 38.25 Q16.55 37.75 16.55 37.0 16.55 36.25 16.0 35.7 15.45 35.15 14.7 35.15 13.95 35.15 13.45 35.7 12.9 36.25 12.9 37.0 12.9 37.75 13.45 38.25 13.95 38.85 14.7 38.85 15.45 38.85 16.0 38.3 M41.45 37.0 L41.65 37.5 Q41.85 37.7 42.15 37.7 L42.65 37.5 42.85 37.0 42.65 36.5 42.15 36.3 41.65 36.5 41.45 37.0 M41.0 37.0 Q41.0 36.55 41.35 36.2 41.65 35.85 42.1 35.85 42.6 35.85 42.9 36.2 L42.95 36.2 43.25 37.0 42.95 37.8 42.1 38.15 Q41.7 38.15 41.35 37.8 41.0 37.45 41.0 37.0 M25.35 44.2 Q25.15 43.95 24.85 42.3 L22.95 42.25 Q22.4 42.4 22.35 43.05 22.55 44.2 23.9 45.0 L24.45 45.35 Q26.05 46.0 27.8 46.0 L27.8 45.95 27.95 45.95 28.45 46.0 28.9 45.95 29.05 45.95 29.05 46.0 32.4 45.35 32.95 45.0 Q34.3 44.2 34.5 43.05 34.4 42.4 33.9 42.25 L32.0 42.3 31.5 44.2 Q30.5 43.95 29.7 42.5 L29.05 43.1 27.8 43.1 27.15 42.5 Q26.3 43.95 25.35 44.2 M40.85 38.3 Q41.4 38.85 42.1 38.85 42.85 38.85 43.4 38.25 43.95 37.75 43.95 37.0 43.95 36.25 43.4 35.7 42.85 35.15 42.1 35.15 41.4 35.15 40.85 35.7 40.3 36.25 40.3 37.0 40.3 37.75 40.8 38.25 L40.85 38.3" fill="#000000" fill-rule="evenodd" stroke="none"/>
      <path d="M22.9 6.1 Q18.25 8.4 16.75 9.85 15.45 11.2 14.55 12.95 12.95 15.8 12.75 19.95 12.75 23.75 13.85 27.2 L14.6 28.8 19.65 29.45 18.25 27.2 Q16.0 22.8 15.65 19.5 15.35 15.7 16.9 12.95 17.65 11.65 19.0 10.3 21.2 8.15 23.45 7.4 L25.85 9.3 27.25 8.1 29.05 6.8 29.7 6.45 Q31.2 5.6 32.65 5.35 30.6 3.9 28.25 3.35 L22.95 3.0 22.95 5.95 22.9 5.95 22.9 6.1 M27.35 30.3 L26.35 10.85 Q25.95 10.15 25.4 10.5 24.85 10.9 24.8 11.55 L20.05 30.3 18.4 30.3 9.8 28.55 Q7.0 28.8 9.15 34.0 L11.95 37.9 Q15.05 42.05 16.65 43.4 L20.05 51.4 24.15 50.8 26.75 50.65 27.65 49.75 28.45 49.3 29.15 49.75 30.05 50.65 32.65 50.8 36.8 51.4 40.15 43.4 Q41.8 42.05 44.9 37.9 L47.65 34.0 Q49.85 28.8 47.0 28.55 L38.45 30.3 36.8 30.3 32.05 11.55 Q32.0 10.9 31.4 10.5 30.9 10.15 30.45 10.85 L29.5 30.3 27.35 30.3 M16.55 32.35 L16.2 33.15 Q15.9 33.5 15.45 33.5 15.0 33.5 14.65 33.15 14.35 32.8 14.35 32.35 14.35 31.9 14.65 31.6 15.0 31.25 15.45 31.25 15.9 31.25 16.2 31.6 16.55 31.9 16.55 32.35 M24.0 34.0 L23.9 33.5 23.6 34.0 Q22.7 36.7 23.9 39.25 25.1 36.4 24.0 34.0 M25.85 34.0 Q26.9 34.95 26.9 36.25 26.9 37.6 25.85 38.8 24.85 39.75 23.35 39.75 21.95 39.75 20.85 38.8 19.8 37.65 19.8 36.25 19.8 34.9 20.85 34.0 21.85 33.1 23.35 33.1 24.9 33.1 25.85 34.0 M30.95 34.0 Q29.95 34.95 29.95 36.25 29.95 37.6 30.95 38.8 32.0 39.75 33.5 39.75 34.85 39.75 35.95 38.8 37.05 37.65 37.05 36.25 37.05 34.9 35.95 34.0 35.0 33.1 33.5 33.1 31.95 33.1 30.95 34.0 M32.85 34.0 L32.95 33.5 33.25 34.0 Q34.15 36.7 32.95 39.25 31.75 36.4 32.85 34.0 M40.3 32.35 Q40.3 32.8 40.6 33.15 40.95 33.5 41.4 33.5 41.85 33.5 42.2 33.15 L42.5 32.35 42.2 31.6 42.15 31.6 Q41.85 31.25 41.4 31.25 40.9 31.25 40.6 31.6 40.3 31.9 40.3 32.35 M44.15 33.6 L44.15 33.55 Q43.65 33.1 43.65 32.45 43.65 31.75 44.15 31.25 44.6 30.75 45.3 30.75 45.95 30.75 46.45 31.25 46.95 31.75 46.95 32.45 46.95 33.1 46.45 33.55 45.95 34.05 45.3 34.05 44.6 34.05 44.15 33.6 M12.7 33.6 L12.7 33.55 Q13.15 33.1 13.15 32.45 13.15 31.75 12.7 31.25 12.2 30.75 11.55 30.75 10.85 30.75 10.4 31.25 9.85 31.75 9.85 32.45 9.85 33.1 10.4 33.55 10.85 34.05 11.55 34.05 12.2 34.05 12.7 33.6 M15.8 37.0 L15.5 37.8 Q15.15 38.15 14.7 38.15 14.25 38.15 13.9 37.8 13.6 37.45 13.6 37.0 13.6 36.55 13.9 36.2 L13.95 36.2 Q14.25 35.85 14.7 35.85 15.2 35.85 15.5 36.2 L15.8 37.0 M40.85 38.3 L40.8 38.25 Q40.3 37.75 40.3 37.0 40.3 36.25 40.85 35.7 41.4 35.15 42.1 35.15 42.85 35.15 43.4 35.7 43.95 36.25 43.95 37.0 43.95 37.75 43.4 38.25 42.85 38.85 42.1 38.85 41.4 38.85 40.85 38.3 M25.35 44.2 Q26.3 43.95 27.15 42.5 L27.8 43.1 29.05 43.1 29.7 42.5 Q30.5 43.95 31.5 44.2 L32.0 42.3 33.9 42.25 Q34.4 42.4 34.5 43.05 34.3 44.2 32.95 45.0 L32.4 45.35 29.05 46.0 29.05 45.95 28.9 45.95 28.45 46.0 27.95 45.95 27.8 45.95 27.8 46.0 Q26.05 46.0 24.45 45.35 L23.9 45.0 Q22.55 44.2 22.35 43.05 22.4 42.4 22.95 42.25 L24.85 42.3 Q25.15 43.95 25.35 44.2 Z" fill="none" stroke="#000000" stroke-linecap="round" stroke-linejoin="round" stroke-opacity="0.2" stroke-width="1.6"/>
    </g>
  </defs>
</svg>
