<?xml version="1.0" encoding="UTF-8" standalone="no"?>
<svg xmlns:ffdec="https://www.free-decompiler.com/flash" xmlns:xlink="http://www.w3.org/1999/xlink" ffdec:objectType="frame" height="56.0px" width="56.0px" xmlns="http://www.w3.org/2000/svg">
  <g transform="matrix(1.0, 0.0, 0.0, 1.0, 0.0, 0.0)">
    <use ffdec:characterId="2" height="56.0" id="back" transform="matrix(1.0, 0.0, 0.0, 1.0, 0.0, 0.0)" width="56.0" xlink:href="#sprite0"/>
    <use ffdec:characterId="3" height="39.4" transform="matrix(1.0, 0.0, 0.0, 1.0, 4.35, 9.2)" width="46.3" xlink:href="#shape1"/>
  </g>
  <defs>
    <g id="sprite0" transform="matrix(1.0, 0.0, 0.0, 1.0, 0.0, 0.0)">
      <use ffdec:characterId="1" height="56.0" transform="matrix(1.0, 0.0, 0.0, 1.0, 0.0, 0.0)" width="56.0" xlink:href="#shape0"/>
    </g>
    <g id="shape0" transform="matrix(1.0, 0.0, 0.0, 1.0, 0.0, 0.0)">
      <path d="M56.0 56.0 L0.0 56.0 0.0 0.0 56.0 0.0 56.0 56.0" fill="#010101" fill-opacity="0.0" fill-rule="evenodd" stroke="none"/>
    </g>
    <g id="shape1" transform="matrix(1.0, 0.0, 0.0, 1.0, -4.35, -9.2)">
      <path d="M42.0 18.7 L36.55 21.6 36.55 36.5 38.3 36.5 38.3 33.9 41.75 33.9 41.75 36.5 43.8 36.5 43.8 33.85 47.25 33.85 47.25 36.5 49.85 36.5 49.85 47.8 32.3 47.8 Q31.35 39.8 27.65 37.15 23.95 39.8 22.9 47.8 L5.25 47.8 5.15 36.5 8.0 36.5 8.0 33.85 11.45 33.85 11.45 36.5 13.55 36.5 13.55 33.85 17.0 33.85 17.0 36.5 18.85 36.5 18.85 21.6 12.9 19.45 12.9 10.0 18.85 10.0 18.85 15.75 24.5 15.75 24.5 10.0 30.5 10.0 30.5 15.75 36.25 15.75 36.25 10.0 42.0 10.0 42.0 18.7 M28.5 25.75 L26.7 25.75 26.7 31.3 28.5 31.3 28.5 25.75 M21.1 25.75 L21.1 31.3 23.0 31.3 23.0 25.75 21.1 25.75 M34.7 25.75 L32.85 25.75 32.85 31.3 34.7 31.3 34.7 25.75" fill="#000000" fill-rule="evenodd" stroke="none"/>
      <path d="M42.0 18.7 L36.55 21.6 36.55 36.5 38.3 36.5 38.3 33.9 41.75 33.9 41.75 36.5 43.8 36.5 43.8 33.85 47.25 33.85 47.25 36.5 49.85 36.5 49.85 47.8 32.3 47.8 Q31.35 39.8 27.65 37.15 23.95 39.8 22.9 47.8 L5.25 47.8 5.15 36.5 8.0 36.5 8.0 33.85 11.45 33.85 11.45 36.5 13.55 36.5 13.55 33.85 17.0 33.85 17.0 36.5 18.85 36.5 18.85 21.6 12.9 19.45 12.9 10.0 18.85 10.0 18.85 15.75 24.5 15.75 24.5 10.0 30.5 10.0 30.5 15.75 36.25 15.75 36.25 10.0 42.0 10.0 42.0 18.7 M34.7 25.75 L34.7 31.3 32.85 31.3 32.85 25.75 34.7 25.75 M21.1 25.75 L23.0 25.75 23.0 31.3 21.1 31.3 21.1 25.75 M28.5 25.75 L28.5 31.3 26.7 31.3 26.7 25.75 28.5 25.75 Z" fill="none" stroke="#000000" stroke-linecap="round" stroke-linejoin="round" stroke-opacity="0.2" stroke-width="1.6"/>
      <path d="M42.0 18.7 L36.55 21.6 36.55 36.5 38.3 36.5 38.3 33.9 41.75 33.9 41.75 36.5 43.8 36.5 43.8 33.85 47.25 33.85 47.25 36.5 49.85 36.5 49.85 47.8 32.3 47.8 Q31.35 39.8 27.65 37.15 23.95 39.8 22.9 47.8 L5.25 47.8 5.15 36.5 8.0 36.5 8.0 33.85 11.45 33.85 11.45 36.5 13.55 36.5 13.55 33.85 17.0 33.85 17.0 36.5 18.85 36.5 18.85 21.6 12.9 19.45 12.9 10.0 18.85 10.0 18.85 15.75 24.5 15.75 24.5 10.0 30.5 10.0 30.5 15.75 36.25 15.75 36.25 10.0 42.0 10.0 42.0 18.7 M28.5 25.75 L26.7 25.75 26.7 31.3 28.5 31.3 28.5 25.75 M21.1 25.75 L21.1 31.3 23.0 31.3 23.0 25.75 21.1 25.75 M34.7 25.75 L32.85 25.75 32.85 31.3 34.7 31.3 34.7 25.75" fill="#000000" fill-rule="evenodd" stroke="none"/>
    </g>
  </defs>
</svg>
