<?xml version="1.0" encoding="UTF-8" standalone="no"?>
<svg xmlns:ffdec="https://www.free-decompiler.com/flash" xmlns:xlink="http://www.w3.org/1999/xlink" ffdec:objectType="frame" height="56.0px" width="56.0px" xmlns="http://www.w3.org/2000/svg">
  <g transform="matrix(1.0, 0.0, 0.0, 1.0, 0.0, 0.0)">
    <use ffdec:characterId="2" height="56.0" id="back" transform="matrix(1.0, 0.0, 0.0, 1.0, 0.0, 0.0)" width="56.0" xlink:href="#sprite0"/>
    <use ffdec:characterId="3" height="41.1" transform="matrix(1.0, 0.0, 0.0, 1.0, 4.1, 7.1)" width="47.55" xlink:href="#shape1"/>
  </g>
  <defs>
    <g id="sprite0" transform="matrix(1.0, 0.0, 0.0, 1.0, 0.0, 0.0)">
      <use ffdec:characterId="1" height="56.0" transform="matrix(1.0, 0.0, 0.0, 1.0, 0.0, 0.0)" width="56.0" xlink:href="#shape0"/>
    </g>
    <g id="shape0" transform="matrix(1.0, 0.0, 0.0, 1.0, 0.0, 0.0)">
      <path d="M56.0 56.0 L0.0 56.0 0.0 0.0 56.0 0.0 56.0 56.0" fill="#010101" fill-opacity="0.0" fill-rule="evenodd" stroke="none"/>
    </g>
    <g id="shape1" transform="matrix(1.0, 0.0, 0.0, 1.0, -4.1, -7.1)">
      <path d="M50.85 27.75 Q48.35 34.65 43.65 39.7 L42.7 40.8 41.9 41.6 Q36.15 47.4 27.95 47.4 19.75 47.4 13.95 41.6 L13.15 40.7 12.05 39.7 Q8.95 36.35 6.8 32.2 5.65 30.05 4.9 27.75 5.5 25.45 6.8 23.15 8.45 20.0 11.25 16.75 L12.8 14.95 13.95 13.65 Q19.75 7.9 27.95 7.9 36.1 7.9 41.8 13.55 L41.9 13.65 Q43.35 15.05 44.45 16.75 49.4 22.5 50.85 27.75 M27.9 25.6 Q26.85 25.6 26.1 26.3 25.35 27.0 25.35 28.15 25.35 29.15 26.1 29.9 26.85 30.7 27.9 30.7 28.9 30.7 29.7 29.9 30.45 29.15 30.45 28.15 30.45 27.0 29.7 26.3 28.9 25.6 27.9 25.6 M31.8 27.75 Q31.8 28.55 32.65 29.1 L33.85 29.55 Q33.45 31.15 32.2 32.35 30.45 34.2 27.95 34.2 25.4 34.2 23.65 32.35 21.9 30.6 21.9 28.15 21.9 25.6 23.65 23.85 25.4 22.1 27.95 22.1 30.45 22.1 32.2 23.85 33.2 24.8 33.7 26.0 L32.65 26.4 Q31.8 26.95 31.8 27.75 M39.45 16.1 Q34.7 11.25 27.95 11.25 21.1 11.25 16.25 16.1 11.55 20.9 11.55 27.65 L11.55 27.75 Q11.55 34.5 16.25 39.3 21.1 44.05 27.95 44.05 34.7 44.05 39.45 39.3 44.35 34.5 44.35 27.65 44.35 20.9 39.45 16.1 M34.95 25.8 L34.7 25.8 Q34.2 24.3 32.9 23.05 30.75 21.05 27.95 21.05 24.95 21.05 22.85 23.05 20.9 25.2 20.9 28.15 20.9 31.0 22.85 33.1 24.95 35.25 27.95 35.25 30.75 35.25 32.9 33.1 34.5 31.55 34.9 29.65 L34.95 29.65 36.5 29.5 Q36.1 32.1 33.95 34.1 31.4 36.75 27.95 36.75 24.3 36.75 21.85 34.1 19.35 31.65 19.35 28.15 19.35 24.55 21.85 21.95 24.3 19.55 27.95 19.55 31.4 19.55 33.95 21.95 35.75 23.75 36.35 26.0 L34.95 25.8" fill="#000000" fill-rule="evenodd" stroke="none"/>
      <path d="M50.85 27.75 Q48.35 34.65 43.65 39.7 L42.7 40.8 41.9 41.6 Q36.15 47.4 27.95 47.4 19.75 47.4 13.95 41.6 L13.15 40.7 12.05 39.7 Q8.95 36.35 6.8 32.2 5.65 30.05 4.9 27.75 5.5 25.45 6.8 23.15 8.45 20.0 11.25 16.75 L12.8 14.95 13.95 13.65 Q19.75 7.9 27.95 7.9 36.1 7.9 41.8 13.55 L41.9 13.65 Q43.35 15.05 44.45 16.75 49.4 22.5 50.85 27.75 M34.95 25.8 L36.35 26.0 Q35.75 23.75 33.95 21.95 31.4 19.55 27.95 19.55 24.3 19.55 21.85 21.95 19.35 24.55 19.35 28.15 19.35 31.65 21.85 34.1 24.3 36.75 27.95 36.75 31.4 36.75 33.95 34.1 36.1 32.1 36.5 29.5 L34.95 29.65 34.9 29.65 Q34.5 31.55 32.9 33.1 30.75 35.25 27.95 35.25 24.95 35.25 22.85 33.1 20.9 31.0 20.9 28.15 20.9 25.2 22.85 23.05 24.95 21.05 27.95 21.05 30.75 21.05 32.9 23.05 34.2 24.3 34.7 25.8 L34.95 25.8 M39.45 16.1 Q44.35 20.9 44.35 27.65 44.35 34.5 39.45 39.3 34.7 44.05 27.95 44.05 21.1 44.05 16.25 39.3 11.55 34.5 11.55 27.75 L11.55 27.65 Q11.55 20.9 16.25 16.1 21.1 11.25 27.95 11.25 34.7 11.25 39.45 16.1 M31.8 27.75 Q31.8 26.95 32.65 26.4 L33.7 26.0 Q33.2 24.8 32.2 23.85 30.45 22.1 27.95 22.1 25.4 22.1 23.65 23.85 21.9 25.6 21.9 28.15 21.9 30.6 23.65 32.35 25.4 34.2 27.95 34.2 30.45 34.2 32.2 32.35 33.45 31.15 33.85 29.55 L32.65 29.1 Q31.8 28.55 31.8 27.75 M27.9 25.6 Q28.9 25.6 29.7 26.3 30.45 27.0 30.45 28.15 30.45 29.15 29.7 29.9 28.9 30.7 27.9 30.7 26.85 30.7 26.1 29.9 25.35 29.15 25.35 28.15 25.35 27.0 26.1 26.3 26.85 25.6 27.9 25.6 Z" fill="none" stroke="#000000" stroke-linecap="round" stroke-linejoin="round" stroke-opacity="0.2" stroke-width="1.6"/>
      <path d="M50.85 27.75 Q48.35 34.65 43.65 39.7 L42.7 40.8 41.9 41.6 Q36.15 47.4 27.95 47.4 19.75 47.4 13.95 41.6 L13.15 40.7 12.05 39.7 Q8.95 36.35 6.8 32.2 5.65 30.05 4.9 27.75 5.5 25.45 6.8 23.15 8.45 20.0 11.25 16.75 L12.8 14.95 13.95 13.65 Q19.75 7.9 27.95 7.9 36.1 7.9 41.8 13.55 L41.9 13.65 Q43.35 15.05 44.45 16.75 49.4 22.5 50.85 27.75 M31.8 27.75 Q31.8 28.55 32.65 29.1 L33.85 29.55 Q33.45 31.15 32.2 32.35 30.45 34.2 27.95 34.2 25.4 34.2 23.65 32.35 21.9 30.6 21.9 28.15 21.9 25.6 23.65 23.85 25.4 22.1 27.95 22.1 30.45 22.1 32.2 23.85 33.2 24.8 33.7 26.0 L32.65 26.4 Q31.8 26.95 31.8 27.75 M27.9 25.6 Q26.85 25.6 26.1 26.3 25.35 27.0 25.35 28.15 25.35 29.15 26.1 29.9 26.85 30.7 27.9 30.7 28.9 30.7 29.7 29.9 30.45 29.15 30.45 28.15 30.45 27.0 29.7 26.3 28.9 25.6 27.9 25.6 M39.45 16.1 Q34.7 11.25 27.95 11.25 21.1 11.25 16.25 16.1 11.55 20.9 11.55 27.65 L11.55 27.75 Q11.55 34.5 16.25 39.3 21.1 44.05 27.95 44.05 34.7 44.05 39.45 39.3 44.35 34.5 44.35 27.65 44.35 20.9 39.45 16.1 M34.95 25.8 L34.7 25.8 Q34.2 24.3 32.9 23.05 30.75 21.05 27.95 21.05 24.95 21.05 22.85 23.05 20.9 25.2 20.9 28.15 20.9 31.0 22.85 33.1 24.95 35.25 27.95 35.25 30.75 35.25 32.9 33.1 34.5 31.55 34.9 29.65 L34.95 29.65 36.5 29.5 Q36.1 32.1 33.95 34.1 31.4 36.75 27.95 36.75 24.3 36.75 21.85 34.1 19.35 31.65 19.35 28.15 19.35 24.55 21.85 21.95 24.3 19.55 27.95 19.55 31.4 19.55 33.95 21.95 35.75 23.75 36.35 26.0 L34.95 25.8" fill="#000000" fill-rule="evenodd" stroke="none"/>
    </g>
  </defs>
</svg>
