<?xml version="1.0" encoding="UTF-8" standalone="no"?>
<svg xmlns:ffdec="https://www.free-decompiler.com/flash" xmlns:xlink="http://www.w3.org/1999/xlink" ffdec:objectType="frame" height="56.0px" width="56.0px" xmlns="http://www.w3.org/2000/svg">
  <g transform="matrix(1.0, 0.0, 0.0, 1.0, 0.0, 0.0)">
    <use ffdec:characterId="2" height="56.0" id="back" transform="matrix(1.0, 0.0, 0.0, 1.0, 0.0, 0.0)" width="56.0" xlink:href="#sprite0"/>
    <use ffdec:characterId="3" height="46.75" transform="matrix(1.0, 0.0, 0.0, 1.0, 4.9, 3.6)" width="46.85" xlink:href="#shape1"/>
  </g>
  <defs>
    <g id="sprite0" transform="matrix(1.0, 0.0, 0.0, 1.0, 0.0, 0.0)">
      <use ffdec:characterId="1" height="56.0" transform="matrix(1.0, 0.0, 0.0, 1.0, 0.0, 0.0)" width="56.0" xlink:href="#shape0"/>
    </g>
    <g id="shape0" transform="matrix(1.0, 0.0, 0.0, 1.0, 0.0, 0.0)">
      <path d="M56.0 56.0 L0.0 56.0 0.0 0.0 56.0 0.0 56.0 56.0" fill="#010101" fill-opacity="0.0" fill-rule="evenodd" stroke="none"/>
    </g>
    <g id="shape1" transform="matrix(1.0, 0.0, 0.0, 1.0, -4.9, -3.6)">
      <path d="M32.0 10.75 L30.2 23.9 17.65 25.35 Q17.35 25.35 17.2 25.65 14.35 22.05 11.25 17.25 13.8 12.6 16.7 9.65 19.65 6.75 24.1 4.4 28.3 7.05 32.25 10.3 L32.0 10.75 M37.35 15.05 L38.15 14.15 Q40.2 14.8 41.1 16.95 L40.1 17.9 40.75 18.5 41.55 19.25 44.4 22.25 32.25 23.7 33.8 11.6 36.9 14.6 37.35 15.05 M45.75 23.9 Q48.65 27.35 50.95 30.95 48.5 35.75 45.65 38.6 42.75 41.5 38.0 43.95 33.35 41.05 30.05 38.4 L30.2 37.95 32.0 25.65 45.1 24.05 45.75 23.9 M8.6 49.55 Q5.95 48.6 5.7 46.6 L13.45 38.85 15.0 37.3 15.35 36.95 18.2 34.1 19.65 32.65 21.75 30.55 21.4 30.2 Q20.0 28.95 18.55 27.15 L29.95 25.9 28.4 37.05 25.25 33.9 24.65 33.4 8.6 49.55" fill="#000000" fill-rule="evenodd" stroke="none"/>
      <path d="M32.0 10.75 L30.2 23.9 17.65 25.35 Q17.35 25.35 17.2 25.65 14.35 22.05 11.25 17.25 13.8 12.6 16.7 9.65 19.65 6.75 24.1 4.4 28.3 7.05 32.25 10.3 L32.0 10.75 M37.35 15.05 L36.9 14.6 33.8 11.6 32.25 23.7 44.4 22.25 41.55 19.25 40.75 18.5 40.1 17.9 41.1 16.95 Q40.2 14.8 38.15 14.15 L37.35 15.05 M45.75 23.9 Q48.65 27.35 50.95 30.95 48.5 35.75 45.65 38.6 42.75 41.5 38.0 43.95 33.35 41.05 30.05 38.4 L30.2 37.95 32.0 25.65 45.1 24.05 45.75 23.9 M8.6 49.55 L24.65 33.4 25.25 33.9 28.4 37.05 29.95 25.9 18.55 27.15 Q20.0 28.95 21.4 30.2 L21.75 30.55 19.65 32.65 18.2 34.1 15.35 36.95 15.0 37.3 13.45 38.85 5.7 46.6 Q5.95 48.6 8.6 49.55 Z" fill="none" stroke="#000000" stroke-linecap="round" stroke-linejoin="round" stroke-opacity="0.2" stroke-width="1.6"/>
      <path d="M32.0 10.75 L30.2 23.9 17.65 25.35 Q17.35 25.35 17.2 25.65 14.35 22.05 11.25 17.25 13.8 12.6 16.7 9.65 19.65 6.75 24.1 4.4 28.3 7.05 32.25 10.3 L32.0 10.75 M37.35 15.05 L38.15 14.15 Q40.2 14.8 41.1 16.95 L40.1 17.9 40.75 18.5 41.55 19.25 44.4 22.25 32.25 23.7 33.8 11.6 36.9 14.6 37.35 15.05 M45.75 23.9 Q48.65 27.35 50.95 30.95 48.5 35.75 45.65 38.6 42.75 41.5 38.0 43.95 33.35 41.05 30.05 38.4 L30.2 37.95 32.0 25.65 45.1 24.05 45.75 23.9 M8.6 49.55 Q5.95 48.6 5.7 46.6 L13.45 38.85 15.0 37.3 15.35 36.95 18.2 34.1 19.65 32.65 21.75 30.55 21.4 30.2 Q20.0 28.95 18.55 27.15 L29.95 25.9 28.4 37.05 25.25 33.9 24.65 33.4 8.6 49.55" fill="#000000" fill-rule="evenodd" stroke="none"/>
    </g>
  </defs>
</svg>
