<?xml version="1.0" encoding="UTF-8" standalone="no"?>
<svg xmlns:ffdec="https://www.free-decompiler.com/flash" xmlns:xlink="http://www.w3.org/1999/xlink" ffdec:objectType="frame" height="56.0px" width="56.0px" xmlns="http://www.w3.org/2000/svg">
  <g transform="matrix(1.0, 0.0, 0.0, 1.0, 0.0, 0.0)">
    <use ffdec:characterId="2" height="56.0" id="back" transform="matrix(1.0, 0.0, 0.0, 1.0, 0.0, 0.0)" width="56.0" xlink:href="#sprite0"/>
    <use ffdec:characterId="3" height="44.4" transform="matrix(1.0, 0.0, 0.0, 1.0, 6.3, 6.5)" width="44.45" xlink:href="#shape1"/>
  </g>
  <defs>
    <g id="sprite0" transform="matrix(1.0, 0.0, 0.0, 1.0, 0.0, 0.0)">
      <use ffdec:characterId="1" height="56.0" transform="matrix(1.0, 0.0, 0.0, 1.0, 0.0, 0.0)" width="56.0" xlink:href="#shape0"/>
    </g>
    <g id="shape0" transform="matrix(1.0, 0.0, 0.0, 1.0, 0.0, 0.0)">
      <path d="M56.0 56.0 L0.0 56.0 0.0 0.0 56.0 0.0 56.0 56.0" fill="#010101" fill-opacity="0.0" fill-rule="evenodd" stroke="none"/>
    </g>
    <g id="shape1" transform="matrix(1.0, 0.0, 0.0, 1.0, -6.3, -6.5)">
      <path d="M40.2 10.3 L37.05 16.3 40.35 12.65 Q41.8 10.85 43.15 10.25 44.85 9.55 46.45 10.85 47.65 12.35 46.9 13.95 46.35 15.4 44.5 16.8 L40.8 20.05 46.8 16.9 Q48.55 15.9 49.8 17.15 50.55 18.95 47.85 20.4 L42.35 23.4 45.25 22.55 Q48.45 21.7 48.75 23.5 48.75 24.5 48.05 25.25 47.45 25.8 45.65 26.3 L41.35 26.9 Q40.2 23.6 37.0 20.35 33.6 16.95 30.3 15.85 L30.9 11.55 Q31.35 9.7 31.9 9.1 32.65 8.4 33.7 8.45 35.6 8.9 34.6 11.9 L33.8 14.85 36.75 9.3 Q38.3 6.7 40.1 7.45 41.35 8.7 40.2 10.3 M33.7 39.0 Q32.15 41.85 28.1 42.95 25.4 46.2 21.65 46.45 19.8 48.45 16.5 48.25 12.45 51.9 8.9 48.4 5.35 44.8 8.85 40.65 8.6 37.3 10.8 35.6 11.0 31.8 14.15 29.0 15.4 25.1 18.1 23.4 17.9 21.15 19.2 19.35 20.1 17.95 21.45 17.1 23.25 16.1 25.85 16.3 30.55 16.9 35.45 21.8 40.3 26.65 40.8 31.3 41.1 33.95 40.05 35.65 39.35 37.15 37.75 37.95 36.0 39.2 33.7 39.0" fill="#000000" fill-rule="evenodd" stroke="none"/>
      <path d="M40.2 10.3 L37.05 16.3 40.35 12.65 Q41.8 10.85 43.15 10.25 44.85 9.55 46.45 10.85 47.65 12.35 46.9 13.95 46.35 15.4 44.5 16.8 L40.8 20.05 46.8 16.9 Q48.55 15.9 49.8 17.15 50.55 18.95 47.85 20.4 L42.35 23.4 45.25 22.55 Q48.45 21.7 48.75 23.5 48.75 24.5 48.05 25.25 47.45 25.8 45.65 26.3 L41.35 26.9 Q40.2 23.6 37.0 20.35 33.6 16.95 30.3 15.85 L30.9 11.55 Q31.35 9.7 31.9 9.1 32.65 8.4 33.7 8.45 35.6 8.9 34.6 11.9 L33.8 14.85 36.75 9.3 Q38.3 6.7 40.1 7.45 41.35 8.7 40.2 10.3 M33.7 39.0 Q32.15 41.85 28.1 42.95 25.4 46.2 21.65 46.45 19.8 48.45 16.5 48.25 12.45 51.9 8.9 48.4 5.35 44.8 8.85 40.65 8.6 37.3 10.8 35.6 11.0 31.8 14.15 29.0 15.4 25.1 18.1 23.4 17.9 21.15 19.2 19.35 20.1 17.95 21.45 17.1 23.25 16.1 25.85 16.3 30.55 16.9 35.45 21.8 40.3 26.65 40.8 31.3 41.1 33.95 40.05 35.65 39.35 37.15 37.75 37.95 36.0 39.2 33.7 39.0 Z" fill="none" stroke="#000000" stroke-linecap="round" stroke-linejoin="round" stroke-opacity="0.2" stroke-width="1.6"/>
      <path d="M40.2 10.3 L37.05 16.3 40.35 12.65 Q41.8 10.85 43.15 10.25 44.85 9.55 46.45 10.85 47.65 12.35 46.9 13.95 46.35 15.4 44.5 16.8 L40.8 20.05 46.8 16.9 Q48.55 15.9 49.8 17.15 50.55 18.95 47.85 20.4 L42.35 23.4 45.25 22.55 Q48.45 21.7 48.75 23.5 48.75 24.5 48.05 25.25 47.45 25.8 45.65 26.3 L41.35 26.9 Q40.2 23.6 37.0 20.35 33.6 16.95 30.3 15.85 L30.9 11.55 Q31.35 9.7 31.9 9.1 32.65 8.4 33.7 8.45 35.6 8.9 34.6 11.9 L33.8 14.85 36.75 9.3 Q38.3 6.7 40.1 7.45 41.35 8.7 40.2 10.3 M33.7 39.0 Q32.15 41.85 28.1 42.95 25.4 46.2 21.65 46.45 19.8 48.45 16.5 48.25 12.45 51.9 8.9 48.4 5.35 44.8 8.85 40.65 8.6 37.3 10.8 35.6 11.0 31.8 14.15 29.0 15.4 25.1 18.1 23.4 17.9 21.15 19.2 19.35 20.1 17.95 21.45 17.1 23.25 16.1 25.85 16.3 30.55 16.9 35.45 21.8 40.3 26.65 40.8 31.3 41.1 33.95 40.05 35.65 39.35 37.15 37.75 37.95 36.0 39.2 33.7 39.0" fill="#000000" fill-rule="evenodd" stroke="none"/>
    </g>
  </defs>
</svg>
