<?xml version="1.0" encoding="UTF-8" standalone="no"?>
<svg xmlns:ffdec="https://www.free-decompiler.com/flash" xmlns:xlink="http://www.w3.org/1999/xlink" ffdec:objectType="frame" height="56.0px" width="56.0px" xmlns="http://www.w3.org/2000/svg">
  <g transform="matrix(1.0, 0.0, 0.0, 1.0, 0.0, 0.0)">
    <use ffdec:characterId="2" height="56.0" id="back" transform="matrix(1.0, 0.0, 0.0, 1.0, 0.0, 0.0)" width="56.0" xlink:href="#sprite0"/>
    <use ffdec:characterId="3" height="43.95" transform="matrix(1.0, 0.0, 0.0, 1.0, 8.9, 6.5)" width="37.6" xlink:href="#shape1"/>
  </g>
  <defs>
    <g id="sprite0" transform="matrix(1.0, 0.0, 0.0, 1.0, 0.0, 0.0)">
      <use ffdec:characterId="1" height="56.0" transform="matrix(1.0, 0.0, 0.0, 1.0, 0.0, 0.0)" width="56.0" xlink:href="#shape0"/>
    </g>
    <g id="shape0" transform="matrix(1.0, 0.0, 0.0, 1.0, 0.0, 0.0)">
      <path d="M56.0 56.0 L0.0 56.0 0.0 0.0 56.0 0.0 56.0 56.0" fill="#010101" fill-opacity="0.0" fill-rule="evenodd" stroke="none"/>
    </g>
    <g id="shape1" transform="matrix(1.0, 0.0, 0.0, 1.0, -8.9, -6.5)">
      <path d="M40.1 7.3 Q40.95 7.3 41.5 7.85 42.1 8.45 42.1 9.1 42.1 9.75 41.5 10.35 40.95 10.85 40.1 10.85 L15.4 10.85 Q14.55 10.85 13.95 10.35 13.35 9.75 13.35 9.1 13.35 8.45 13.95 7.85 14.55 7.3 15.4 7.3 L40.1 7.3 M23.5 14.35 Q23.1 18.95 23.0 24.1 L17.55 24.1 Q17.9 18.25 19.4 12.25 L23.65 12.25 23.6 14.05 23.5 14.35 M24.5 14.45 L24.65 12.25 30.85 12.25 Q31.45 17.8 31.55 24.1 L24.0 24.1 Q24.1 19.25 24.5 14.85 L24.5 14.45 M45.1 26.2 Q45.7 26.7 45.7 27.45 45.7 28.1 45.1 28.6 44.55 29.2 43.7 29.2 L11.7 29.2 Q10.95 29.2 10.35 28.6 9.7 28.1 9.7 27.45 9.7 26.7 10.35 26.2 10.95 25.7 11.7 25.7 L43.7 25.7 Q44.55 25.7 45.1 26.2 M37.15 12.25 L40.5 12.25 Q43.7 18.55 43.6 24.1 L39.1 24.1 Q38.65 18.25 37.15 12.25 M31.9 12.25 L36.15 12.25 Q37.65 18.25 38.05 24.1 L32.55 24.1 Q32.45 17.8 31.9 12.25 M14.9 12.25 L18.2 12.25 Q16.9 18.25 16.55 24.1 L11.85 24.1 Q11.45 18.95 14.9 12.25 M31.15 39.1 L30.85 44.55 24.65 44.55 24.4 39.1 24.0 30.35 31.55 30.35 31.15 39.1 M32.55 30.35 L38.2 30.35 Q38.2 34.7 37.4 39.0 L36.05 44.55 31.9 44.55 32.15 39.15 32.55 30.35 M43.45 30.3 L43.55 30.05 Q43.95 34.3 42.35 39.35 L42.35 39.15 Q41.6 41.75 40.2 44.55 L37.15 44.55 38.4 39.15 Q39.2 34.8 39.2 30.35 L43.1 30.35 43.45 30.3 M13.95 49.05 Q13.35 48.55 13.35 47.8 13.35 47.15 13.95 46.6 14.55 46.05 15.4 46.05 L40.1 46.05 Q40.95 46.05 41.5 46.6 42.1 47.15 42.1 47.8 42.1 48.55 41.5 49.05 40.95 49.65 40.1 49.65 L15.4 49.65 Q14.55 49.65 13.95 49.05 M12.0 30.3 L12.35 30.35 16.45 30.35 Q16.45 37.55 18.4 44.55 L15.2 44.55 Q11.85 36.5 11.85 30.1 L11.85 30.05 12.0 30.3 M23.0 30.35 L23.4 39.15 23.65 44.55 19.4 44.55 Q17.55 37.55 17.45 30.35 L23.0 30.35" fill="#000000" fill-rule="evenodd" stroke="none"/>
      <path d="M40.1 7.3 L15.4 7.3 Q14.55 7.3 13.95 7.85 13.35 8.45 13.35 9.1 13.35 9.75 13.95 10.35 14.55 10.85 15.4 10.85 L40.1 10.85 Q40.95 10.85 41.5 10.35 42.1 9.75 42.1 9.1 42.1 8.45 41.5 7.85 40.95 7.3 40.1 7.3 M23.5 14.35 Q23.1 18.95 23.0 24.1 L17.55 24.1 Q17.9 18.25 19.4 12.25 L23.65 12.25 23.6 14.05 23.5 14.35 M24.5 14.45 L24.65 12.25 30.85 12.25 Q31.45 17.8 31.55 24.1 L24.0 24.1 Q24.1 19.25 24.5 14.85 L24.5 14.45 M14.9 12.25 Q11.45 18.95 11.85 24.1 L16.55 24.1 Q16.9 18.25 18.2 12.25 L14.9 12.25 M31.9 12.25 Q32.45 17.8 32.55 24.1 L38.05 24.1 Q37.65 18.25 36.15 12.25 L31.9 12.25 M37.15 12.25 Q38.65 18.25 39.1 24.1 L43.6 24.1 Q43.7 18.55 40.5 12.25 L37.15 12.25 M45.1 26.2 Q44.55 25.7 43.7 25.7 L11.7 25.7 Q10.95 25.7 10.35 26.2 9.7 26.7 9.7 27.45 9.7 28.1 10.35 28.6 10.95 29.2 11.7 29.2 L43.7 29.2 Q44.55 29.2 45.1 28.6 45.7 28.1 45.7 27.45 45.7 26.7 45.1 26.2 M31.15 39.1 L30.85 44.55 24.65 44.55 24.4 39.1 24.0 30.35 31.55 30.35 31.15 39.1 M32.55 30.35 L38.2 30.35 Q38.2 34.7 37.4 39.0 L36.05 44.55 31.9 44.55 32.15 39.15 32.55 30.35 M43.45 30.3 L43.55 30.05 Q43.95 34.3 42.35 39.35 L42.35 39.15 Q41.6 41.75 40.2 44.55 L37.15 44.55 38.4 39.15 Q39.2 34.8 39.2 30.35 L43.1 30.35 43.45 30.3 M13.95 49.05 Q14.55 49.65 15.4 49.65 L40.1 49.65 Q40.95 49.65 41.5 49.05 42.1 48.55 42.1 47.8 42.1 47.15 41.5 46.6 40.95 46.05 40.1 46.05 L15.4 46.05 Q14.55 46.05 13.95 46.6 13.35 47.15 13.35 47.8 13.35 48.55 13.95 49.05 M12.0 30.3 L12.35 30.35 16.45 30.35 Q16.45 37.55 18.4 44.55 L15.2 44.55 Q11.85 36.5 11.85 30.1 L11.85 30.05 12.0 30.3 M23.0 30.35 L23.4 39.15 23.65 44.55 19.4 44.55 Q17.55 37.55 17.45 30.35 L23.0 30.35 Z" fill="none" stroke="#000000" stroke-linecap="round" stroke-linejoin="round" stroke-opacity="0.2" stroke-width="1.6"/>
      <path d="M40.1 7.3 Q40.95 7.3 41.5 7.85 42.1 8.45 42.1 9.1 42.1 9.75 41.5 10.35 40.95 10.85 40.1 10.85 L15.4 10.85 Q14.55 10.85 13.95 10.35 13.35 9.75 13.35 9.1 13.35 8.45 13.95 7.85 14.55 7.3 15.4 7.3 L40.1 7.3 M23.5 14.35 Q23.1 18.95 23.0 24.1 L17.55 24.1 Q17.9 18.25 19.4 12.25 L23.65 12.25 23.6 14.05 23.5 14.35 M24.5 14.45 L24.65 12.25 30.85 12.25 Q31.45 17.8 31.55 24.1 L24.0 24.1 Q24.1 19.25 24.5 14.85 L24.5 14.45 M45.1 26.2 Q45.7 26.7 45.7 27.45 45.7 28.1 45.1 28.6 44.55 29.2 43.7 29.2 L11.7 29.2 Q10.95 29.2 10.35 28.6 9.7 28.1 9.7 27.45 9.7 26.7 10.35 26.2 10.95 25.7 11.7 25.7 L43.7 25.7 Q44.55 25.7 45.1 26.2 M37.15 12.25 L40.5 12.25 Q43.7 18.55 43.6 24.1 L39.1 24.1 Q38.65 18.25 37.15 12.25 M31.9 12.25 L36.15 12.25 Q37.65 18.25 38.05 24.1 L32.55 24.1 Q32.45 17.8 31.9 12.25 M14.9 12.25 L18.2 12.25 Q16.9 18.25 16.55 24.1 L11.85 24.1 Q11.45 18.95 14.9 12.25 M31.15 39.1 L30.85 44.55 24.65 44.55 24.4 39.1 24.0 30.35 31.55 30.35 31.15 39.1 M32.55 30.35 L38.2 30.35 Q38.2 34.7 37.4 39.0 L36.05 44.55 31.9 44.55 32.15 39.15 32.55 30.35 M43.45 30.3 L43.55 30.05 Q43.95 34.3 42.35 39.35 L42.35 39.15 Q41.6 41.75 40.2 44.55 L37.15 44.55 38.4 39.15 Q39.2 34.8 39.2 30.35 L43.1 30.35 43.45 30.3 M13.95 49.05 Q13.35 48.55 13.35 47.8 13.35 47.15 13.95 46.6 14.55 46.05 15.4 46.05 L40.1 46.05 Q40.95 46.05 41.5 46.6 42.1 47.15 42.1 47.8 42.1 48.55 41.5 49.05 40.95 49.65 40.1 49.65 L15.4 49.65 Q14.55 49.65 13.95 49.05 M12.0 30.3 L12.35 30.35 16.45 30.35 Q16.45 37.55 18.4 44.55 L15.2 44.55 Q11.85 36.5 11.85 30.1 L11.85 30.05 12.0 30.3 M23.0 30.35 L23.4 39.15 23.65 44.55 19.4 44.55 Q17.55 37.55 17.45 30.35 L23.0 30.35" fill="#000000" fill-rule="evenodd" stroke="none"/>
    </g>
  </defs>
</svg>
