<?xml version="1.0" encoding="UTF-8" standalone="no"?>
<svg xmlns:ffdec="https://www.free-decompiler.com/flash" xmlns:xlink="http://www.w3.org/1999/xlink" ffdec:objectType="frame" height="56.0px" width="56.0px" xmlns="http://www.w3.org/2000/svg">
  <g transform="matrix(1.0, 0.0, 0.0, 1.0, 0.0, 0.0)">
    <use ffdec:characterId="2" height="56.0" id="back" transform="matrix(1.0, 0.0, 0.0, 1.0, 0.0, 0.0)" width="56.0" xlink:href="#sprite0"/>
    <use ffdec:characterId="3" height="42.35" transform="matrix(1.0, 0.0, 0.0, 1.0, 5.2, 7.45)" width="46.35" xlink:href="#shape1"/>
  </g>
  <defs>
    <g id="sprite0" transform="matrix(1.0, 0.0, 0.0, 1.0, 0.0, 0.0)">
      <use ffdec:characterId="1" height="56.0" transform="matrix(1.0, 0.0, 0.0, 1.0, 0.0, 0.0)" width="56.0" xlink:href="#shape0"/>
    </g>
    <g id="shape0" transform="matrix(1.0, 0.0, 0.0, 1.0, 0.0, 0.0)">
      <path d="M56.0 56.0 L0.0 56.0 0.0 0.0 56.0 0.0 56.0 56.0" fill="#010101" fill-opacity="0.0" fill-rule="evenodd" stroke="none"/>
    </g>
    <g id="shape1" transform="matrix(1.0, 0.0, 0.0, 1.0, -5.2, -7.45)">
      <path d="M32.85 10.0 Q34.6 11.75 34.6 14.15 34.6 16.7 32.85 18.4 31.1 20.25 28.6 20.25 26.05 20.25 24.35 18.4 22.6 16.7 22.6 14.15 22.6 11.75 24.35 10.0 26.05 8.25 28.6 8.25 31.1 8.25 32.85 10.0 M6.0 18.75 Q6.0 16.25 7.75 14.5 9.55 12.75 12.0 12.75 14.6 12.75 16.35 14.5 18.1 16.25 18.1 18.75 18.1 21.3 16.35 23.0 14.6 24.85 12.0 24.85 9.55 24.85 7.75 23.0 6.0 21.3 6.0 18.75 M38.75 18.75 Q38.75 16.25 40.5 14.5 42.25 12.75 44.75 12.75 47.25 12.75 49.0 14.5 50.75 16.25 50.75 18.75 50.75 21.3 49.0 23.0 47.25 24.85 44.75 24.85 42.25 24.85 40.5 23.0 38.75 21.3 38.75 18.75 M40.5 27.2 Q45.35 31.0 45.35 36.25 45.35 41.45 40.5 45.15 35.7 49.0 28.85 49.0 22.0 49.0 17.15 45.15 12.35 41.45 12.35 36.25 12.35 31.0 17.15 27.2 22.0 23.45 28.85 23.45 35.7 23.45 40.5 27.2" fill="#000000" fill-rule="evenodd" stroke="none"/>
      <path d="M32.85 10.0 Q34.6 11.75 34.6 14.15 34.6 16.7 32.85 18.4 31.1 20.25 28.6 20.25 26.05 20.25 24.35 18.4 22.6 16.7 22.6 14.15 22.6 11.75 24.35 10.0 26.05 8.25 28.6 8.25 31.1 8.25 32.85 10.0 M6.0 18.75 Q6.0 16.25 7.75 14.5 9.55 12.75 12.0 12.75 14.6 12.75 16.35 14.5 18.1 16.25 18.1 18.75 18.1 21.3 16.35 23.0 14.6 24.85 12.0 24.85 9.55 24.85 7.75 23.0 6.0 21.3 6.0 18.75 M38.75 18.75 Q38.75 21.3 40.5 23.0 42.25 24.85 44.75 24.85 47.25 24.85 49.0 23.0 50.75 21.3 50.75 18.75 50.75 16.25 49.0 14.5 47.25 12.75 44.75 12.75 42.25 12.75 40.5 14.5 38.75 16.25 38.75 18.75 M40.5 27.2 Q45.35 31.0 45.35 36.25 45.35 41.45 40.5 45.15 35.7 49.0 28.85 49.0 22.0 49.0 17.15 45.15 12.35 41.45 12.35 36.25 12.35 31.0 17.15 27.2 22.0 23.45 28.85 23.45 35.7 23.45 40.5 27.2 Z" fill="none" stroke="#000000" stroke-linecap="round" stroke-linejoin="round" stroke-opacity="0.2" stroke-width="1.6"/>
      <path d="M32.85 10.0 Q34.6 11.75 34.6 14.15 34.6 16.7 32.85 18.4 31.1 20.25 28.6 20.25 26.05 20.25 24.35 18.4 22.6 16.7 22.6 14.15 22.6 11.75 24.35 10.0 26.05 8.25 28.6 8.25 31.1 8.25 32.85 10.0 M6.0 18.75 Q6.0 16.25 7.75 14.5 9.55 12.75 12.0 12.75 14.6 12.75 16.35 14.5 18.1 16.25 18.1 18.75 18.1 21.3 16.35 23.0 14.6 24.85 12.0 24.85 9.55 24.85 7.75 23.0 6.0 21.3 6.0 18.75 M38.75 18.75 Q38.75 16.25 40.5 14.5 42.25 12.75 44.75 12.75 47.25 12.75 49.0 14.5 50.75 16.25 50.75 18.75 50.75 21.3 49.0 23.0 47.25 24.85 44.75 24.85 42.25 24.85 40.5 23.0 38.75 21.3 38.75 18.75 M40.5 27.2 Q45.35 31.0 45.35 36.25 45.35 41.45 40.5 45.15 35.7 49.0 28.85 49.0 22.0 49.0 17.15 45.15 12.35 41.45 12.35 36.25 12.35 31.0 17.15 27.2 22.0 23.45 28.85 23.45 35.7 23.45 40.5 27.2" fill="#000000" fill-rule="evenodd" stroke="none"/>
    </g>
  </defs>
</svg>
