<?xml version="1.0" encoding="UTF-8" standalone="no"?>
<svg xmlns:ffdec="https://www.free-decompiler.com/flash" xmlns:xlink="http://www.w3.org/1999/xlink" ffdec:objectType="frame" height="56.0px" width="56.0px" xmlns="http://www.w3.org/2000/svg">
  <g transform="matrix(1.0, 0.0, 0.0, 1.0, 0.0, 0.0)">
    <use ffdec:characterId="2" height="56.0" id="back" transform="matrix(1.0, 0.0, 0.0, 1.0, 0.0, 0.0)" width="56.0" xlink:href="#sprite0"/>
    <use ffdec:characterId="3" height="47.6" transform="matrix(1.0, 0.0, 0.0, 1.0, 4.0, 4.0)" width="46.45" xlink:href="#shape1"/>
  </g>
  <defs>
    <g id="sprite0" transform="matrix(1.0, 0.0, 0.0, 1.0, 0.0, 0.0)">
      <use ffdec:characterId="1" height="56.0" transform="matrix(1.0, 0.0, 0.0, 1.0, 0.0, 0.0)" width="56.0" xlink:href="#shape0"/>
    </g>
    <g id="shape0" transform="matrix(1.0, 0.0, 0.0, 1.0, 0.0, 0.0)">
      <path d="M56.0 56.0 L0.0 56.0 0.0 0.0 56.0 0.0 56.0 56.0" fill="#010101" fill-opacity="0.0" fill-rule="evenodd" stroke="none"/>
    </g>
    <g id="shape1" transform="matrix(1.0, 0.0, 0.0, 1.0, -4.0, -4.0)">
      <path d="M19.6 10.6 L16.55 13.85 17.65 18.3 13.3 15.75 9.0 18.65 9.95 14.2 6.8 10.35 10.95 10.35 13.3 5.85 15.3 10.6 19.6 10.6 M40.6 9.35 L41.95 12.35 44.55 12.35 42.65 14.45 43.4 17.25 40.6 15.65 37.9 17.5 38.45 14.65 36.4 12.25 39.05 12.25 40.6 9.35 M15.75 46.2 L39.95 46.2 Q40.7 46.8 40.7 48.45 40.7 50.0 39.95 50.8 L15.75 50.8 Q15.3 50.0 15.3 48.45 15.3 47.25 15.55 46.6 L15.65 46.35 15.75 46.2 M34.15 23.7 L27.85 29.85 21.35 23.5 18.2 26.9 24.4 33.2 18.2 39.5 21.35 42.75 27.75 36.45 34.15 42.75 37.4 39.5 31.15 33.0 37.2 26.9 34.15 23.7 M24.65 10.45 L21.9 10.45 Q20.05 7.0 21.9 4.8 L33.95 4.8 Q35.2 7.6 33.95 10.45 L31.15 10.45 Q31.8 17.05 35.8 18.9 38.7 20.15 39.65 22.85 40.35 24.5 40.7 28.65 L39.95 44.75 15.75 44.75 15.15 28.65 Q15.5 24.5 16.25 22.85 17.25 20.15 20.05 18.9 24.05 17.05 24.65 10.45 M43.5 45.3 L41.6 42.9 44.1 42.9 45.7 40.1 47.05 43.0 49.65 43.0 47.75 45.2 48.5 47.9 45.7 46.3 43.0 48.15 43.5 45.3 M10.25 30.05 L12.95 30.05 11.0 32.15 11.7 34.95 8.9 33.4 6.3 35.2 6.8 32.3 4.8 29.85 7.45 29.85 8.9 27.05 10.25 30.05" fill="#000000" fill-rule="evenodd" stroke="none"/>
      <path d="M19.6 10.6 L16.55 13.85 17.65 18.3 13.3 15.75 9.0 18.65 9.95 14.2 6.8 10.35 10.95 10.35 13.3 5.85 15.3 10.6 19.6 10.6 M40.6 9.35 L41.95 12.35 44.55 12.35 42.65 14.45 43.4 17.25 40.6 15.65 37.9 17.5 38.45 14.65 36.4 12.25 39.05 12.25 40.6 9.35 M24.65 10.45 Q24.05 17.05 20.05 18.9 17.25 20.15 16.25 22.85 15.5 24.5 15.15 28.65 L15.75 44.75 39.95 44.75 40.7 28.65 Q40.35 24.5 39.65 22.85 38.7 20.15 35.8 18.9 31.8 17.05 31.15 10.45 L33.95 10.45 Q35.2 7.6 33.95 4.8 L21.9 4.8 Q20.05 7.0 21.9 10.45 L24.65 10.45 M34.15 23.7 L37.2 26.9 31.15 33.0 37.4 39.5 34.15 42.75 27.75 36.45 21.35 42.75 18.2 39.5 24.4 33.2 18.2 26.9 21.35 23.5 27.85 29.85 34.15 23.7 M15.75 46.2 L15.65 46.35 15.55 46.6 Q15.3 47.25 15.3 48.45 15.3 50.0 15.75 50.8 L39.95 50.8 Q40.7 50.0 40.7 48.45 40.7 46.8 39.95 46.2 L15.75 46.2 M43.5 45.3 L41.6 42.9 44.1 42.9 45.7 40.1 47.05 43.0 49.65 43.0 47.75 45.2 48.5 47.9 45.7 46.3 43.0 48.15 43.5 45.3 M10.25 30.05 L12.95 30.05 11.0 32.15 11.7 34.95 8.9 33.4 6.3 35.2 6.8 32.3 4.8 29.85 7.45 29.85 8.9 27.05 10.25 30.05 Z" fill="none" stroke="#000000" stroke-linecap="round" stroke-linejoin="round" stroke-opacity="0.2" stroke-width="1.6"/>
      <path d="M19.6 10.6 L16.55 13.85 17.65 18.3 13.3 15.75 9.0 18.65 9.95 14.2 6.8 10.35 10.95 10.35 13.3 5.85 15.3 10.6 19.6 10.6 M24.65 10.45 L21.9 10.45 Q20.05 7.0 21.9 4.8 L33.95 4.8 Q35.2 7.6 33.95 10.45 L31.15 10.45 Q31.8 17.05 35.8 18.9 38.7 20.15 39.65 22.85 40.35 24.5 40.7 28.65 L39.95 44.75 15.75 44.75 15.15 28.65 Q15.5 24.5 16.25 22.85 17.25 20.15 20.05 18.9 24.05 17.05 24.65 10.45 M40.6 9.35 L41.95 12.35 44.55 12.35 42.65 14.45 43.4 17.25 40.6 15.65 37.9 17.5 38.45 14.65 36.4 12.25 39.05 12.25 40.6 9.35 M15.75 46.2 L39.95 46.2 Q40.7 46.8 40.7 48.45 40.7 50.0 39.95 50.8 L15.75 50.8 Q15.3 50.0 15.3 48.45 15.3 47.25 15.55 46.6 L15.65 46.35 15.75 46.2 M34.15 23.7 L27.85 29.85 21.35 23.5 18.2 26.9 24.4 33.2 18.2 39.5 21.35 42.75 27.75 36.45 34.15 42.75 37.4 39.5 31.15 33.0 37.2 26.9 34.15 23.7 M43.5 45.3 L41.6 42.9 44.1 42.9 45.7 40.1 47.05 43.0 49.65 43.0 47.75 45.2 48.5 47.9 45.7 46.3 43.0 48.15 43.5 45.3 M10.25 30.05 L12.95 30.05 11.0 32.15 11.7 34.95 8.9 33.4 6.3 35.2 6.8 32.3 4.8 29.85 7.45 29.85 8.9 27.05 10.25 30.05" fill="#000000" fill-rule="evenodd" stroke="none"/>
    </g>
  </defs>
</svg>
