<?xml version="1.0" encoding="UTF-8" standalone="no"?>
<svg xmlns:ffdec="https://www.free-decompiler.com/flash" xmlns:xlink="http://www.w3.org/1999/xlink" ffdec:objectType="frame" height="56.0px" width="56.0px" xmlns="http://www.w3.org/2000/svg">
  <g transform="matrix(1.0, 0.0, 0.0, 1.0, 0.0, 0.0)">
    <use ffdec:characterId="2" height="56.0" id="back" transform="matrix(1.0, 0.0, 0.0, 1.0, 0.0, 0.0)" width="56.0" xlink:href="#sprite0"/>
    <use ffdec:characterId="3" height="47.4" transform="matrix(1.0, 0.0, 0.0, 1.0, 8.4, 4.2)" width="39.8" xlink:href="#shape1"/>
  </g>
  <defs>
    <g id="sprite0" transform="matrix(1.0, 0.0, 0.0, 1.0, 0.0, 0.0)">
      <use ffdec:characterId="1" height="56.0" transform="matrix(1.0, 0.0, 0.0, 1.0, 0.0, 0.0)" width="56.0" xlink:href="#shape0"/>
    </g>
    <g id="shape0" transform="matrix(1.0, 0.0, 0.0, 1.0, 0.0, 0.0)">
      <path d="M56.0 56.0 L0.0 56.0 0.0 0.0 56.0 0.0 56.0 56.0" fill="#010101" fill-opacity="0.0" fill-rule="evenodd" stroke="none"/>
    </g>
    <g id="shape1" transform="matrix(1.0, 0.0, 0.0, 1.0, -8.4, -4.2)">
      <path d="M27.15 40.9 Q26.35 41.8 24.8 41.8 22.45 41.8 20.7 40.4 L19.45 38.85 Q18.85 37.85 18.85 36.75 18.85 34.2 20.35 31.15 16.6 33.5 14.5 33.4 12.0 33.4 10.55 31.45 9.2 29.6 9.2 27.8 9.2 25.85 10.2 24.85 L10.65 24.1 10.55 23.5 10.5 23.3 10.0 22.3 Q9.3 21.4 9.3 19.75 9.2 17.2 10.55 15.3 12.0 13.35 13.85 13.35 16.7 13.35 20.35 15.7 18.85 12.55 18.85 10.0 18.85 8.0 20.7 6.45 22.45 5.0 24.8 5.1 26.35 5.1 27.15 5.9 27.65 5.95 28.1 6.35 L28.3 6.45 28.8 6.55 29.55 6.05 Q30.45 5.0 32.25 5.0 33.9 5.0 35.65 6.45 37.5 8.0 37.55 10.7 37.55 12.8 35.75 16.3 L36.05 16.1 Q39.85 13.65 42.8 13.65 44.6 13.65 46.05 15.6 47.4 17.35 47.35 19.95 47.35 21.65 46.6 22.6 L46.15 23.5 46.05 23.65 45.95 24.35 46.45 25.15 Q47.4 26.15 47.4 28.0 47.4 29.85 46.05 31.65 44.6 33.6 42.15 33.7 39.95 33.7 36.1 31.25 37.55 34.2 37.55 36.05 37.5 37.65 36.85 38.85 L35.65 40.4 Q33.9 41.8 32.25 41.8 30.8 41.8 29.95 41.1 31.9 46.8 36.25 49.3 L36.65 49.8 36.55 50.4 36.05 50.8 35.45 50.7 Q30.2 47.7 28.1 40.55 L27.15 40.9 M22.55 27.4 Q26.45 25.3 28.4 23.55 L24.6 21.15 Q22.8 19.65 21.7 19.65 20.4 19.65 19.5 20.85 18.5 21.9 18.75 24.1 18.95 26.15 20.15 26.85 21.25 27.5 22.55 27.4 M28.45 23.5 L28.55 23.8 28.5 23.85 28.45 23.65 27.05 26.25 Q26.15 27.7 25.0 30.15 24.9 31.55 25.5 32.7 26.2 34.0 28.1 34.2 30.1 34.4 31.1 33.4 32.2 32.35 32.2 30.95 32.2 29.85 30.8 27.8 L28.75 24.1 28.95 24.0 Q30.6 25.7 31.55 26.2 33.65 27.4 34.85 27.5 36.05 27.7 37.2 26.95 38.3 26.35 38.55 24.15 38.75 22.1 37.85 20.95 36.85 19.75 35.55 19.75 34.6 19.75 32.65 21.25 30.2 23.05 28.7 23.75 L28.85 23.9 28.7 23.95 28.45 23.5 Q29.2 21.7 30.8 19.05 32.2 17.1 32.2 15.9 32.2 14.5 31.1 13.45 30.1 12.45 28.1 12.65 26.2 12.95 25.5 14.15 24.9 15.4 25.0 16.7 25.15 18.1 26.25 20.2 26.8 21.4 28.45 23.5" fill="#000000" fill-rule="evenodd" stroke="none"/>
      <path d="M27.15 40.9 Q26.35 41.8 24.8 41.8 22.45 41.8 20.7 40.4 L19.45 38.85 Q18.85 37.85 18.85 36.75 18.85 34.2 20.35 31.15 16.6 33.5 14.5 33.4 12.0 33.4 10.55 31.45 9.2 29.6 9.2 27.8 9.2 25.85 10.2 24.85 L10.65 24.1 10.55 23.5 10.5 23.3 10.0 22.3 Q9.3 21.4 9.3 19.75 9.2 17.2 10.55 15.3 12.0 13.35 13.85 13.35 16.7 13.35 20.35 15.7 18.85 12.55 18.85 10.0 18.85 8.0 20.7 6.45 22.45 5.0 24.8 5.1 26.35 5.1 27.15 5.9 27.65 5.95 28.1 6.35 L28.3 6.45 28.8 6.55 29.55 6.05 Q30.45 5.0 32.25 5.0 33.9 5.0 35.65 6.45 37.5 8.0 37.55 10.7 37.55 12.8 35.75 16.3 L36.05 16.1 Q39.85 13.65 42.8 13.65 44.6 13.65 46.05 15.6 47.4 17.35 47.35 19.95 47.35 21.65 46.6 22.6 L46.15 23.5 46.05 23.65 45.95 24.35 46.45 25.15 Q47.4 26.15 47.4 28.0 47.4 29.85 46.05 31.65 44.6 33.6 42.15 33.7 39.95 33.7 36.1 31.25 37.55 34.2 37.55 36.05 37.5 37.65 36.85 38.85 L35.65 40.4 Q33.9 41.8 32.25 41.8 30.8 41.8 29.95 41.1 31.9 46.8 36.25 49.3 L36.65 49.8 36.55 50.4 36.05 50.8 35.45 50.7 Q30.2 47.7 28.1 40.55 L27.15 40.9 M22.55 27.4 Q26.45 25.3 28.4 23.55 L24.6 21.15 Q22.8 19.65 21.7 19.65 20.4 19.65 19.5 20.85 18.5 21.9 18.75 24.1 18.95 26.15 20.15 26.85 21.25 27.5 22.55 27.4 M28.45 23.5 L28.55 23.8 28.5 23.85 28.45 23.65 27.05 26.25 Q26.15 27.7 25.0 30.15 24.9 31.55 25.5 32.7 26.2 34.0 28.1 34.2 30.1 34.4 31.1 33.4 32.2 32.35 32.2 30.95 32.2 29.85 30.8 27.8 L28.75 24.1 28.95 24.0 Q30.6 25.7 31.55 26.2 33.65 27.4 34.85 27.5 36.05 27.7 37.2 26.95 38.3 26.35 38.55 24.15 38.75 22.1 37.85 20.95 36.85 19.75 35.55 19.75 34.6 19.75 32.65 21.25 30.2 23.05 28.7 23.75 L28.85 23.9 28.7 23.95 28.45 23.5 Q29.2 21.7 30.8 19.05 32.2 17.1 32.2 15.9 32.2 14.5 31.1 13.45 30.1 12.45 28.1 12.65 26.2 12.95 25.5 14.15 24.9 15.4 25.0 16.7 25.15 18.1 26.25 20.2 26.8 21.4 28.45 23.5" fill="#000000" fill-rule="evenodd" stroke="none"/>
      <path d="M27.15 40.9 Q26.35 41.8 24.8 41.8 22.45 41.8 20.7 40.4 L19.45 38.85 Q18.85 37.85 18.85 36.75 18.85 34.2 20.35 31.15 16.6 33.5 14.5 33.4 12.0 33.4 10.55 31.45 9.2 29.6 9.2 27.8 9.2 25.85 10.2 24.85 L10.65 24.1 10.55 23.5 10.5 23.3 10.0 22.3 Q9.3 21.4 9.3 19.75 9.2 17.2 10.55 15.3 12.0 13.35 13.85 13.35 16.7 13.35 20.35 15.7 18.85 12.55 18.85 10.0 18.85 8.0 20.7 6.45 22.45 5.0 24.8 5.1 26.35 5.1 27.15 5.9 27.65 5.95 28.1 6.35 L28.3 6.45 28.8 6.55 29.55 6.05 Q30.45 5.0 32.25 5.0 33.9 5.0 35.65 6.45 37.5 8.0 37.55 10.7 37.55 12.8 35.75 16.3 L36.05 16.1 Q39.85 13.65 42.8 13.65 44.6 13.65 46.05 15.6 47.4 17.35 47.35 19.95 47.35 21.65 46.6 22.6 L46.15 23.5 46.05 23.65 45.95 24.35 46.45 25.15 Q47.4 26.15 47.4 28.0 47.4 29.85 46.05 31.65 44.6 33.6 42.15 33.7 39.95 33.7 36.1 31.25 37.55 34.2 37.55 36.05 37.5 37.65 36.85 38.85 L35.65 40.4 Q33.9 41.8 32.25 41.8 30.8 41.8 29.95 41.1 31.9 46.8 36.25 49.3 L36.65 49.8 36.55 50.4 36.05 50.8 35.45 50.7 Q30.2 47.7 28.1 40.55 L27.15 40.9 M28.45 23.5 Q26.8 21.4 26.25 20.2 25.15 18.1 25.0 16.7 24.9 15.4 25.5 14.15 26.2 12.95 28.1 12.65 30.1 12.45 31.1 13.45 32.2 14.5 32.2 15.9 32.2 17.1 30.8 19.05 29.2 21.7 28.45 23.5 L28.7 23.95 28.85 23.9 28.7 23.75 Q30.2 23.05 32.65 21.25 34.6 19.75 35.55 19.75 36.85 19.75 37.85 20.95 38.75 22.1 38.55 24.15 38.3 26.35 37.2 26.95 36.05 27.7 34.85 27.5 33.65 27.4 31.55 26.2 30.6 25.7 28.95 24.0 L28.75 24.1 30.8 27.8 Q32.2 29.85 32.2 30.95 32.2 32.35 31.1 33.4 30.1 34.4 28.1 34.2 26.2 34.0 25.5 32.7 24.9 31.55 25.0 30.15 26.15 27.7 27.05 26.25 L28.45 23.65 28.5 23.85 28.55 23.8 28.45 23.5 M22.55 27.4 Q21.25 27.5 20.15 26.85 18.95 26.15 18.75 24.1 18.5 21.9 19.5 20.85 20.4 19.65 21.7 19.65 22.8 19.65 24.6 21.15 L28.4 23.55 Q26.45 25.3 22.55 27.4 Z" fill="none" stroke="#000000" stroke-linecap="round" stroke-linejoin="round" stroke-opacity="0.2" stroke-width="1.6"/>
    </g>
  </defs>
</svg>
