<?xml version="1.0" encoding="UTF-8" standalone="no"?>
<svg xmlns:ffdec="https://www.free-decompiler.com/flash" xmlns:xlink="http://www.w3.org/1999/xlink" ffdec:objectType="frame" height="56.0px" width="56.0px" xmlns="http://www.w3.org/2000/svg">
  <g transform="matrix(1.0, 0.0, 0.0, 1.0, 0.0, 0.0)">
    <use ffdec:characterId="2" height="56.0" id="back" transform="matrix(1.0, 0.0, 0.0, 1.0, 0.0, 0.0)" width="56.0" xlink:href="#sprite0"/>
    <use ffdec:characterId="3" height="48.2" transform="matrix(1.0, 0.0, 0.0, 1.0, 8.0, 4.2)" width="40.45" xlink:href="#shape1"/>
  </g>
  <defs>
    <g id="sprite0" transform="matrix(1.0, 0.0, 0.0, 1.0, 0.0, 0.0)">
      <use ffdec:characterId="1" height="56.0" transform="matrix(1.0, 0.0, 0.0, 1.0, 0.0, 0.0)" width="56.0" xlink:href="#shape0"/>
    </g>
    <g id="shape0" transform="matrix(1.0, 0.0, 0.0, 1.0, 0.0, 0.0)">
      <path d="M56.0 56.0 L0.0 56.0 0.0 0.0 56.0 0.0 56.0 56.0" fill="#010101" fill-opacity="0.0" fill-rule="evenodd" stroke="none"/>
    </g>
    <g id="shape1" transform="matrix(1.0, 0.0, 0.0, 1.0, -8.0, -4.2)">
      <path d="M26.45 40.25 L27.3 39.15 27.3 39.2 26.45 40.25 M28.95 38.65 L28.95 38.6 29.1 38.85 28.95 38.65" fill="#000000" fill-rule="evenodd" stroke="none"/>
      <path d="M37.65 18.4 Q36.25 17.6 34.75 18.1 33.35 18.55 31.55 20.5 L29.75 22.0 30.8 20.0 Q31.65 18.2 31.85 16.8 31.95 15.4 31.25 14.2 30.55 12.95 28.45 12.65 26.35 12.5 25.25 13.45 24.05 14.55 24.05 16.15 24.05 17.6 25.55 20.0 L26.9 22.25 26.8 22.15 26.8 22.25 24.95 20.5 Q23.1 18.55 21.7 18.1 20.2 17.6 18.8 18.4 17.6 19.0 17.25 21.0 16.95 22.8 18.05 23.75 19.05 24.7 20.35 25.0 L24.05 24.85 26.7 24.4 26.8 24.4 Q26.15 24.6 25.65 24.85 L23.1 26.05 Q21.6 26.95 20.9 27.75 20.05 28.8 19.85 30.1 19.6 31.5 20.9 32.9 22.4 34.05 23.75 33.75 25.25 33.6 26.2 32.3 27.05 30.9 27.6 28.8 28.1 26.8 28.1 24.9 L28.1 24.65 28.15 24.9 Q29.45 31.15 30.35 32.3 31.25 33.6 32.75 33.75 34.1 34.05 35.55 32.9 36.85 31.5 36.65 30.1 36.5 28.8 35.55 27.75 34.9 26.95 33.35 26.05 L30.9 24.85 30.25 24.4 32.45 24.85 36.2 25.0 Q37.4 24.7 38.45 23.75 39.5 22.8 39.25 21.0 38.95 19.0 37.65 18.4 M27.85 6.6 L28.1 6.5 28.3 6.5 28.45 6.35 Q28.8 6.2 28.45 6.3 30.65 5.15 32.0 5.15 34.6 5.0 36.5 6.5 38.45 8.05 37.85 11.8 L35.55 15.05 35.1 15.65 Q41.2 11.0 43.15 12.25 44.9 13.4 45.4 14.85 45.8 16.35 45.05 18.85 L45.1 19.0 44.9 19.0 Q47.0 20.5 47.35 21.85 48.05 24.05 47.2 26.0 46.2 28.0 38.6 27.4 45.4 31.5 44.9 33.75 44.45 35.9 42.5 37.2 41.45 37.9 38.95 38.0 L38.8 38.1 Q37.7 40.6 36.65 41.35 35.4 42.2 33.1 42.0 30.8 41.7 29.1 38.9 L29.1 38.85 28.95 38.6 28.95 38.55 Q27.9 46.95 23.0 51.4 22.8 51.6 22.5 51.6 22.15 51.6 21.95 51.35 L21.75 50.85 Q21.75 50.5 22.0 50.3 26.25 46.35 27.35 39.1 L27.3 39.15 26.45 40.25 23.65 42.0 23.5 42.0 23.4 42.0 Q21.05 42.2 19.85 41.35 18.55 40.55 17.95 38.15 15.3 38.1 14.05 37.2 12.0 35.9 11.55 33.75 11.1 31.5 18.2 26.85 L17.75 27.1 Q10.3 28.0 9.25 26.0 8.4 24.05 9.15 21.85 9.45 20.35 11.95 18.85 10.55 16.5 11.1 14.85 11.55 13.4 13.3 12.25 15.3 11.0 21.0 15.0 18.65 11.8 18.65 11.45 18.35 8.05 20.35 6.5 22.15 5.0 23.95 5.0 25.65 5.0 27.85 6.6" fill="#000000" fill-rule="evenodd" stroke="none"/>
      <path d="M27.85 6.6 Q25.65 5.0 23.95 5.0 22.15 5.0 20.35 6.5 18.35 8.05 18.65 11.45 18.65 11.8 21.0 15.0 15.3 11.0 13.3 12.25 11.55 13.4 11.1 14.85 10.55 16.5 11.95 18.85 9.45 20.35 9.15 21.85 8.4 24.05 9.25 26.0 10.3 28.0 17.75 27.1 L18.2 26.85 Q11.1 31.5 11.55 33.75 12.0 35.9 14.05 37.2 15.3 38.1 17.95 38.15 18.55 40.55 19.85 41.35 21.05 42.2 23.4 42.0 L23.5 42.0 23.65 42.0 26.45 40.25 27.3 39.15 27.35 39.1 Q26.25 46.35 22.0 50.3 21.75 50.5 21.75 50.85 L21.95 51.35 Q22.15 51.6 22.5 51.6 22.8 51.6 23.0 51.4 27.9 46.95 28.95 38.55 L28.95 38.6 29.1 38.85 29.1 38.9 Q30.8 41.7 33.1 42.0 35.4 42.2 36.65 41.35 37.7 40.6 38.8 38.1 L38.95 38.0 Q41.45 37.9 42.5 37.2 44.45 35.9 44.9 33.75 45.4 31.5 38.6 27.4 46.2 28.0 47.2 26.0 48.05 24.05 47.35 21.85 47.0 20.5 44.9 19.0 L45.1 19.0 45.05 18.85 Q45.8 16.35 45.4 14.85 44.9 13.4 43.15 12.25 41.2 11.0 35.1 15.65 L35.55 15.05 37.85 11.8 Q38.45 8.05 36.5 6.5 34.6 5.0 32.0 5.15 30.65 5.15 28.45 6.3 28.8 6.2 28.45 6.35 L28.3 6.5 28.1 6.5 27.85 6.6 M37.65 18.4 Q38.95 19.0 39.25 21.0 39.5 22.8 38.45 23.75 37.4 24.7 36.2 25.0 L32.45 24.85 30.25 24.4 30.9 24.85 33.35 26.05 Q34.9 26.95 35.55 27.75 36.5 28.8 36.65 30.1 36.85 31.5 35.55 32.9 34.1 34.05 32.75 33.75 31.25 33.6 30.35 32.3 29.45 31.15 28.15 24.9 L28.1 24.65 28.1 24.9 Q28.1 26.8 27.6 28.8 27.05 30.9 26.2 32.3 25.25 33.6 23.75 33.75 22.4 34.05 20.9 32.9 19.6 31.5 19.85 30.1 20.05 28.8 20.9 27.75 21.6 26.95 23.1 26.05 L25.65 24.85 Q26.15 24.6 26.8 24.4 L26.7 24.4 24.05 24.85 20.35 25.0 Q19.05 24.7 18.05 23.75 16.95 22.8 17.25 21.0 17.6 19.0 18.8 18.4 20.2 17.6 21.7 18.1 23.1 18.55 24.95 20.5 L26.8 22.25 26.8 22.15 26.9 22.25 25.55 20.0 Q24.05 17.6 24.05 16.15 24.05 14.55 25.25 13.45 26.35 12.5 28.45 12.65 30.55 12.95 31.25 14.2 31.95 15.4 31.85 16.8 31.65 18.2 30.8 20.0 L29.75 22.0 31.55 20.5 Q33.35 18.55 34.75 18.1 36.25 17.6 37.65 18.4 Z" fill="none" stroke="#000000" stroke-linecap="round" stroke-linejoin="round" stroke-opacity="0.2" stroke-width="1.6"/>
      <path d="M37.65 18.4 Q36.25 17.6 34.75 18.1 33.35 18.55 31.55 20.5 L29.75 22.0 30.8 20.0 Q31.65 18.2 31.85 16.8 31.95 15.4 31.25 14.2 30.55 12.95 28.45 12.65 26.35 12.5 25.25 13.45 24.05 14.55 24.05 16.15 24.05 17.6 25.55 20.0 L26.9 22.25 26.8 22.15 26.8 22.25 24.95 20.5 Q23.1 18.55 21.7 18.1 20.2 17.6 18.8 18.4 17.6 19.0 17.25 21.0 16.95 22.8 18.05 23.75 19.05 24.7 20.35 25.0 L24.05 24.85 26.7 24.4 26.8 24.4 Q26.15 24.6 25.65 24.85 L23.1 26.05 Q21.6 26.95 20.9 27.75 20.05 28.8 19.85 30.1 19.6 31.5 20.9 32.9 22.4 34.05 23.75 33.75 25.25 33.6 26.2 32.3 27.05 30.9 27.6 28.8 28.1 26.8 28.1 24.9 L28.1 24.65 28.15 24.9 Q29.45 31.15 30.35 32.3 31.25 33.6 32.75 33.75 34.1 34.05 35.55 32.9 36.85 31.5 36.65 30.1 36.5 28.8 35.55 27.75 34.9 26.95 33.35 26.05 L30.9 24.85 30.25 24.4 32.45 24.85 36.2 25.0 Q37.4 24.7 38.45 23.75 39.5 22.8 39.25 21.0 38.95 19.0 37.65 18.4 M27.85 6.6 L28.1 6.5 28.3 6.5 28.45 6.35 Q28.8 6.2 28.45 6.3 30.65 5.15 32.0 5.15 34.6 5.0 36.5 6.5 38.45 8.05 37.85 11.8 L35.55 15.05 35.1 15.65 Q41.2 11.0 43.15 12.25 44.9 13.4 45.4 14.85 45.8 16.35 45.05 18.85 L45.1 19.0 44.9 19.0 Q47.0 20.5 47.35 21.85 48.05 24.05 47.2 26.0 46.2 28.0 38.6 27.4 45.4 31.5 44.9 33.75 44.45 35.9 42.5 37.2 41.45 37.9 38.95 38.0 L38.8 38.1 Q37.7 40.6 36.65 41.35 35.4 42.2 33.1 42.0 30.8 41.7 29.1 38.9 L29.1 38.85 28.95 38.6 28.95 38.55 Q27.9 46.95 23.0 51.4 22.8 51.6 22.5 51.6 22.15 51.6 21.95 51.35 L21.75 50.85 Q21.75 50.5 22.0 50.3 26.25 46.35 27.35 39.1 L27.3 39.15 26.45 40.25 23.65 42.0 23.5 42.0 23.4 42.0 Q21.05 42.2 19.85 41.35 18.55 40.55 17.95 38.15 15.3 38.1 14.05 37.2 12.0 35.9 11.55 33.75 11.1 31.5 18.2 26.85 L17.75 27.1 Q10.3 28.0 9.25 26.0 8.4 24.05 9.15 21.85 9.45 20.35 11.95 18.85 10.55 16.5 11.1 14.85 11.55 13.4 13.3 12.25 15.3 11.0 21.0 15.0 18.65 11.8 18.65 11.45 18.35 8.05 20.35 6.5 22.15 5.0 23.95 5.0 25.65 5.0 27.85 6.6" fill="#000000" fill-rule="evenodd" stroke="none"/>
    </g>
  </defs>
</svg>
