<?xml version="1.0" encoding="UTF-8" standalone="no"?>
<svg xmlns:ffdec="https://www.free-decompiler.com/flash" xmlns:xlink="http://www.w3.org/1999/xlink" ffdec:objectType="frame" height="56.0px" width="56.0px" xmlns="http://www.w3.org/2000/svg">
  <g transform="matrix(1.0, 0.0, 0.0, 1.0, 0.0, 0.0)">
    <use ffdec:characterId="2" height="56.0" id="back" transform="matrix(1.0, 0.0, 0.0, 1.0, 0.0, 0.0)" width="56.0" xlink:href="#sprite0"/>
    <use ffdec:characterId="3" height="46.7" transform="matrix(1.0, 0.0, 0.0, 1.0, 4.0, 4.35)" width="46.8" xlink:href="#shape1"/>
  </g>
  <defs>
    <g id="sprite0" transform="matrix(1.0, 0.0, 0.0, 1.0, 0.0, 0.0)">
      <use ffdec:characterId="1" height="56.0" transform="matrix(1.0, 0.0, 0.0, 1.0, 0.0, 0.0)" width="56.0" xlink:href="#shape0"/>
    </g>
    <g id="shape0" transform="matrix(1.0, 0.0, 0.0, 1.0, 0.0, 0.0)">
      <path d="M56.0 56.0 L0.0 56.0 0.0 0.0 56.0 0.0 56.0 56.0" fill="#010101" fill-opacity="0.0" fill-rule="evenodd" stroke="none"/>
    </g>
    <g id="shape1" transform="matrix(1.0, 0.0, 0.0, 1.0, -4.0, -4.35)">
      <path d="M35.5 19.35 L35.8 19.85 Q36.85 21.25 34.7 23.2 L33.65 24.35 35.2 25.9 36.05 25.0 Q42.85 29.6 50.0 23.0 49.55 29.8 46.1 35.15 L43.15 38.95 Q38.75 43.35 33.0 44.9 30.25 45.75 27.05 45.85 L27.95 44.9 Q33.4 38.3 29.15 31.85 L29.75 31.3 28.25 29.8 19.05 38.85 19.35 40.45 15.2 44.6 15.2 44.7 9.65 50.25 Q7.65 50.15 6.15 48.8 4.8 47.25 4.8 45.35 L7.4 42.8 7.3 42.8 14.45 35.6 16.1 35.9 25.25 26.8 23.95 25.5 23.35 26.05 Q16.45 21.45 9.3 27.95 9.65 18.4 16.4 12.2 L18.95 9.9 Q24.6 5.7 32.15 5.15 29.95 7.5 29.1 9.9 27.05 14.6 30.25 19.15 L29.35 20.05 30.7 21.4 31.75 20.2 Q33.95 17.85 35.5 19.35" fill="#000000" fill-rule="evenodd" stroke="none"/>
      <path d="M35.5 19.35 Q33.95 17.85 31.75 20.2 L30.7 21.4 29.35 20.05 30.25 19.15 Q27.05 14.6 29.1 9.9 29.95 7.5 32.15 5.15 24.6 5.7 18.95 9.9 L16.4 12.2 Q9.65 18.4 9.3 27.95 16.45 21.45 23.35 26.05 L23.95 25.5 25.25 26.8 16.1 35.9 14.45 35.6 7.3 42.8 7.4 42.8 4.8 45.35 Q4.8 47.25 6.15 48.8 7.65 50.15 9.65 50.25 L15.2 44.7 15.2 44.6 19.35 40.45 19.05 38.85 28.25 29.8 29.75 31.3 29.15 31.85 Q33.4 38.3 27.95 44.9 L27.05 45.85 Q30.25 45.75 33.0 44.9 38.75 43.35 43.15 38.95 L46.1 35.15 Q49.55 29.8 50.0 23.0 42.85 29.6 36.05 25.0 L35.2 25.9 33.65 24.35 34.7 23.2 Q36.85 21.25 35.8 19.85 L35.5 19.35 Z" fill="none" stroke="#000000" stroke-linecap="round" stroke-linejoin="round" stroke-opacity="0.2" stroke-width="1.6"/>
      <path d="M35.5 19.35 L35.8 19.85 Q36.85 21.25 34.7 23.2 L33.65 24.35 35.2 25.9 36.05 25.0 Q42.85 29.6 50.0 23.0 49.55 29.8 46.1 35.15 L43.15 38.95 Q38.75 43.35 33.0 44.9 30.25 45.75 27.05 45.85 L27.95 44.9 Q33.4 38.3 29.15 31.85 L29.75 31.3 28.25 29.8 19.05 38.85 19.35 40.45 15.2 44.6 15.2 44.7 9.65 50.25 Q7.65 50.15 6.15 48.8 4.8 47.25 4.8 45.35 L7.4 42.8 7.3 42.8 14.45 35.6 16.1 35.9 25.25 26.8 23.95 25.5 23.35 26.05 Q16.45 21.45 9.3 27.95 9.65 18.4 16.4 12.2 L18.95 9.9 Q24.6 5.7 32.15 5.15 29.95 7.5 29.1 9.9 27.05 14.6 30.25 19.15 L29.35 20.05 30.7 21.4 31.75 20.2 Q33.95 17.85 35.5 19.35" fill="#000000" fill-rule="evenodd" stroke="none"/>
    </g>
  </defs>
</svg>
