<?xml version="1.0" encoding="UTF-8" standalone="no"?>
<svg xmlns:ffdec="https://www.free-decompiler.com/flash" xmlns:xlink="http://www.w3.org/1999/xlink" ffdec:objectType="frame" height="56.0px" width="56.0px" xmlns="http://www.w3.org/2000/svg">
  <g transform="matrix(1.0, 0.0, 0.0, 1.0, 0.0, 0.0)">
    <use ffdec:characterId="2" height="56.0" id="back" transform="matrix(1.0, 0.0, 0.0, 1.0, 0.0, 0.0)" width="56.0" xlink:href="#sprite0"/>
    <use ffdec:characterId="3" height="45.3" transform="matrix(1.0, 0.0, 0.0, 1.0, 1.6, 7.35)" width="53.05" xlink:href="#shape1"/>
  </g>
  <defs>
    <g id="sprite0" transform="matrix(1.0, 0.0, 0.0, 1.0, 0.0, 0.0)">
      <use ffdec:characterId="1" height="56.0" transform="matrix(1.0, 0.0, 0.0, 1.0, 0.0, 0.0)" width="56.0" xlink:href="#shape0"/>
    </g>
    <g id="shape0" transform="matrix(1.0, 0.0, 0.0, 1.0, 0.0, 0.0)">
      <path d="M56.0 56.0 L0.0 56.0 0.0 0.0 56.0 0.0 56.0 56.0" fill="#010101" fill-opacity="0.0" fill-rule="evenodd" stroke="none"/>
    </g>
    <g id="shape1" transform="matrix(1.0, 0.0, 0.0, 1.0, -1.6, -7.35)">
      <path d="M28.55 8.15 Q31.1 8.15 32.8 9.95 L33.0 9.95 Q34.8 11.85 34.8 14.25 34.8 16.8 33.0 18.5 L32.8 18.5 31.3 20.0 31.1 20.05 31.1 20.7 35.6 21.7 35.6 37.5 33.1 37.5 31.95 37.5 31.95 27.8 31.1 27.8 31.1 46.15 28.4 51.85 25.35 46.15 25.35 27.8 24.2 27.8 24.2 37.5 23.25 37.5 20.75 37.5 20.75 21.7 25.35 20.7 25.35 20.05 23.6 18.8 23.4 18.5 23.25 18.5 Q21.45 16.8 21.45 14.25 21.45 11.85 23.25 9.95 L23.4 9.95 Q25.3 8.15 27.6 8.15 L28.1 8.15 28.55 8.15 M38.25 13.05 Q43.95 7.75 50.2 12.7 52.5 15.4 49.6 16.9 48.05 17.4 45.8 15.55 43.55 13.65 42.35 14.1 46.0 15.75 47.2 21.15 48.45 26.5 45.8 26.7 43.15 26.85 42.85 23.8 42.8 17.7 41.1 16.1 42.5 23.0 40.65 25.4 38.8 27.75 36.5 25.5 35.05 24.1 36.6 22.25 38.3 20.85 38.1 19.05 L35.95 20.35 33.0 19.85 Q37.2 16.1 38.25 13.05 M18.0 13.1 Q19.05 16.15 23.25 19.9 L20.3 20.4 18.15 19.1 Q17.95 20.9 19.65 22.3 21.2 24.15 19.75 25.55 17.45 27.8 15.6 25.45 13.75 23.05 15.15 16.15 13.45 17.75 13.4 23.85 13.1 26.9 10.45 26.75 7.8 26.55 9.05 21.2 10.25 15.8 13.9 14.15 12.7 13.7 10.45 15.6 8.2 17.45 6.65 16.95 3.75 15.45 6.05 12.75 12.3 7.8 18.0 13.1 M47.6 18.0 Q50.05 18.55 52.15 20.95 54.2 23.35 53.75 25.9 53.25 28.45 50.8 26.45 49.75 25.25 49.45 22.6 49.05 20.0 47.6 18.0 M43.7 30.3 Q44.6 33.4 42.95 34.0 41.25 34.75 40.6 33.2 40.2 31.8 40.95 29.9 L42.05 25.9 43.7 30.3 M8.65 18.05 Q7.2 20.05 6.8 22.65 6.5 25.3 5.45 26.5 3.0 28.5 2.5 25.95 2.05 23.4 4.1 21.0 6.2 18.6 8.65 18.05 M12.55 30.35 Q13.55 27.25 14.2 25.95 L15.3 29.95 Q16.05 31.85 15.65 33.25 15.0 34.8 13.3 34.05 11.65 33.45 12.55 30.35" fill="#000000" fill-rule="evenodd" stroke="none"/>
      <path d="M28.55 8.15 L28.1 8.15 27.6 8.15 Q25.3 8.15 23.4 9.95 L23.25 9.95 Q21.45 11.85 21.45 14.25 21.45 16.8 23.25 18.5 L23.4 18.5 23.6 18.8 25.35 20.05 25.35 20.7 20.75 21.7 20.75 37.5 23.25 37.5 24.2 37.5 24.2 27.8 25.35 27.8 25.35 46.15 28.4 51.85 31.1 46.15 31.1 27.8 31.95 27.8 31.95 37.5 33.1 37.5 35.6 37.5 35.6 21.7 31.1 20.7 31.1 20.05 31.3 20.0 32.8 18.5 33.0 18.5 Q34.8 16.8 34.8 14.25 34.8 11.85 33.0 9.95 L32.8 9.95 Q31.1 8.15 28.55 8.15 M38.25 13.05 Q43.95 7.75 50.2 12.7 52.5 15.4 49.6 16.9 48.05 17.4 45.8 15.55 43.55 13.65 42.35 14.1 46.0 15.75 47.2 21.15 48.45 26.5 45.8 26.7 43.15 26.85 42.85 23.8 42.8 17.7 41.1 16.1 42.5 23.0 40.65 25.4 38.8 27.75 36.5 25.5 35.05 24.1 36.6 22.25 38.3 20.85 38.1 19.05 L35.95 20.35 33.0 19.85 Q37.2 16.1 38.25 13.05 M18.0 13.1 Q12.3 7.8 6.05 12.75 3.75 15.45 6.65 16.95 8.2 17.45 10.45 15.6 12.7 13.7 13.9 14.15 10.25 15.8 9.05 21.2 7.8 26.55 10.45 26.75 13.1 26.9 13.4 23.85 13.45 17.75 15.15 16.15 13.75 23.05 15.6 25.45 17.45 27.8 19.75 25.55 21.2 24.15 19.65 22.3 17.95 20.9 18.15 19.1 L20.3 20.4 23.25 19.9 Q19.05 16.15 18.0 13.1 M47.6 18.0 Q50.05 18.55 52.15 20.95 54.2 23.35 53.75 25.9 53.25 28.45 50.8 26.45 49.75 25.25 49.45 22.6 49.05 20.0 47.6 18.0 M43.7 30.3 Q44.6 33.4 42.95 34.0 41.25 34.75 40.6 33.2 40.2 31.8 40.95 29.9 L42.05 25.9 43.7 30.3 M12.55 30.35 Q11.65 33.45 13.3 34.05 15.0 34.8 15.65 33.25 16.05 31.85 15.3 29.95 L14.2 25.95 Q13.55 27.25 12.55 30.35 M8.65 18.05 Q6.2 18.6 4.1 21.0 2.05 23.4 2.5 25.95 3.0 28.5 5.45 26.5 6.5 25.3 6.8 22.65 7.2 20.05 8.65 18.05 Z" fill="none" stroke="#000000" stroke-linecap="round" stroke-linejoin="round" stroke-opacity="0.2" stroke-width="1.6"/>
      <path d="M28.55 8.15 Q31.1 8.15 32.8 9.95 L33.0 9.95 Q34.8 11.85 34.8 14.25 34.8 16.8 33.0 18.5 L32.8 18.5 31.3 20.0 31.1 20.05 31.1 20.7 35.6 21.7 35.6 37.5 33.1 37.5 31.95 37.5 31.95 27.8 31.1 27.8 31.1 46.15 28.4 51.85 25.35 46.15 25.35 27.8 24.2 27.8 24.2 37.5 23.25 37.5 20.75 37.5 20.75 21.7 25.35 20.7 25.35 20.05 23.6 18.8 23.4 18.5 23.25 18.5 Q21.45 16.8 21.45 14.25 21.45 11.85 23.25 9.95 L23.4 9.95 Q25.3 8.15 27.6 8.15 L28.1 8.15 28.55 8.15 M38.25 13.05 Q43.95 7.75 50.2 12.7 52.5 15.4 49.6 16.9 48.05 17.4 45.8 15.55 43.55 13.65 42.35 14.1 46.0 15.75 47.2 21.15 48.45 26.5 45.8 26.7 43.15 26.85 42.85 23.8 42.8 17.7 41.1 16.1 42.5 23.0 40.65 25.4 38.8 27.75 36.5 25.5 35.05 24.1 36.6 22.25 38.3 20.85 38.1 19.05 L35.95 20.35 33.0 19.85 Q37.2 16.1 38.25 13.05 M18.0 13.1 Q19.05 16.15 23.25 19.9 L20.3 20.4 18.15 19.1 Q17.95 20.9 19.65 22.3 21.2 24.15 19.75 25.55 17.45 27.8 15.6 25.45 13.75 23.05 15.15 16.15 13.45 17.75 13.4 23.85 13.1 26.9 10.45 26.75 7.8 26.55 9.05 21.2 10.25 15.8 13.9 14.15 12.7 13.7 10.45 15.6 8.2 17.45 6.65 16.95 3.75 15.45 6.05 12.75 12.3 7.8 18.0 13.1 M47.6 18.0 Q50.05 18.55 52.15 20.95 54.2 23.35 53.75 25.9 53.25 28.45 50.8 26.45 49.75 25.25 49.45 22.6 49.05 20.0 47.6 18.0 M43.7 30.3 Q44.6 33.4 42.95 34.0 41.25 34.75 40.6 33.2 40.2 31.8 40.95 29.9 L42.05 25.9 43.7 30.3 M8.65 18.05 Q7.2 20.05 6.8 22.65 6.5 25.3 5.45 26.5 3.0 28.5 2.5 25.95 2.05 23.4 4.1 21.0 6.2 18.6 8.65 18.05 M12.55 30.35 Q13.55 27.25 14.2 25.95 L15.3 29.95 Q16.05 31.85 15.65 33.25 15.0 34.8 13.3 34.05 11.65 33.45 12.55 30.35" fill="#000000" fill-rule="evenodd" stroke="none"/>
    </g>
  </defs>
</svg>
