<?xml version="1.0" encoding="UTF-8" standalone="no"?>
<svg xmlns:ffdec="https://www.free-decompiler.com/flash" xmlns:xlink="http://www.w3.org/1999/xlink" ffdec:objectType="frame" height="56.0px" width="56.0px" xmlns="http://www.w3.org/2000/svg">
  <g transform="matrix(1.0, 0.0, 0.0, 1.0, 0.0, 0.0)">
    <use ffdec:characterId="2" height="56.0" id="back" transform="matrix(1.0, 0.0, 0.0, 1.0, 0.0, 0.0)" width="56.0" xlink:href="#sprite0"/>
    <use ffdec:characterId="3" height="40.7" transform="matrix(1.0, 0.0, 0.0, 1.0, 8.8, 7.35)" width="40.55" xlink:href="#shape1"/>
  </g>
  <defs>
    <g id="sprite0" transform="matrix(1.0, 0.0, 0.0, 1.0, 0.0, 0.0)">
      <use ffdec:characterId="1" height="56.0" transform="matrix(1.0, 0.0, 0.0, 1.0, 0.0, 0.0)" width="56.0" xlink:href="#shape0"/>
    </g>
    <g id="shape0" transform="matrix(1.0, 0.0, 0.0, 1.0, 0.0, 0.0)">
      <path d="M56.0 56.0 L0.0 56.0 0.0 0.0 56.0 0.0 56.0 56.0" fill="#010101" fill-opacity="0.0" fill-rule="evenodd" stroke="none"/>
    </g>
    <g id="shape1" transform="matrix(1.0, 0.0, 0.0, 1.0, -8.8, -7.35)">
      <path d="M32.9 16.15 Q32.9 17.9 31.65 19.05 30.55 20.2 28.95 20.2 L28.8 20.2 13.8 20.2 13.5 20.2 Q11.95 20.2 10.8 19.05 9.6 17.9 9.6 16.15 L9.6 12.2 Q9.6 10.45 10.8 9.3 12.05 8.15 13.8 8.15 L28.8 8.15 Q30.45 8.15 31.65 9.3 32.9 10.45 32.9 12.2 L32.9 16.15 M28.95 21.1 L28.95 31.55 32.6 31.55 Q40.0 27.8 44.7 31.2 47.15 33.4 48.0 36.7 48.7 39.45 48.5 43.9 L48.45 44.5 Q48.35 46.15 47.85 46.65 47.15 47.25 46.2 47.25 L30.3 47.25 Q29.3 47.25 28.7 46.65 28.05 46.0 28.05 45.0 L28.05 44.85 22.65 44.85 22.65 45.0 Q22.65 46.0 21.95 46.65 21.25 47.25 20.3 47.25 L14.05 47.25 Q13.15 47.25 12.45 46.65 11.8 46.0 11.8 45.0 11.8 44.6 11.95 44.15 L11.7 41.35 Q11.95 35.45 13.5 31.55 L13.5 21.1 28.95 21.1" fill="#000000" fill-rule="evenodd" stroke="none"/>
      <path d="M32.9 16.15 L32.9 12.2 Q32.9 10.45 31.65 9.3 30.45 8.15 28.8 8.15 L13.8 8.15 Q12.05 8.15 10.8 9.3 9.6 10.45 9.6 12.2 L9.6 16.15 Q9.6 17.9 10.8 19.05 11.95 20.2 13.5 20.2 L13.8 20.2 28.8 20.2 28.95 20.2 Q30.55 20.2 31.65 19.05 32.9 17.9 32.9 16.15 M28.95 21.1 L28.95 31.55 32.6 31.55 Q40.0 27.8 44.7 31.2 47.15 33.4 48.0 36.7 48.7 39.45 48.5 43.9 L48.45 44.5 Q48.35 46.15 47.85 46.65 47.15 47.25 46.2 47.25 L30.3 47.25 Q29.3 47.25 28.7 46.65 28.05 46.0 28.05 45.0 L28.05 44.85 22.65 44.85 22.65 45.0 Q22.65 46.0 21.95 46.65 21.25 47.25 20.3 47.25 L14.05 47.25 Q13.15 47.25 12.45 46.65 11.8 46.0 11.8 45.0 11.8 44.6 11.95 44.15 L11.7 41.35 Q11.95 35.45 13.5 31.55 L13.5 21.1 28.95 21.1 Z" fill="none" stroke="#000000" stroke-linecap="round" stroke-linejoin="round" stroke-opacity="0.2" stroke-width="1.6"/>
      <path d="M32.9 16.15 Q32.9 17.9 31.65 19.05 30.55 20.2 28.95 20.2 L28.8 20.2 13.8 20.2 13.5 20.2 Q11.95 20.2 10.8 19.05 9.6 17.9 9.6 16.15 L9.6 12.2 Q9.6 10.45 10.8 9.3 12.05 8.15 13.8 8.15 L28.8 8.15 Q30.45 8.15 31.65 9.3 32.9 10.45 32.9 12.2 L32.9 16.15 M28.95 21.1 L28.95 31.55 32.6 31.55 Q40.0 27.8 44.7 31.2 47.15 33.4 48.0 36.7 48.7 39.45 48.5 43.9 L48.45 44.5 Q48.35 46.15 47.85 46.65 47.15 47.25 46.2 47.25 L30.3 47.25 Q29.3 47.25 28.7 46.65 28.05 46.0 28.05 45.0 L28.05 44.85 22.65 44.85 22.65 45.0 Q22.65 46.0 21.95 46.65 21.25 47.25 20.3 47.25 L14.05 47.25 Q13.15 47.25 12.45 46.65 11.8 46.0 11.8 45.0 11.8 44.6 11.95 44.15 L11.7 41.35 Q11.95 35.45 13.5 31.55 L13.5 21.1 28.95 21.1" fill="#000000" fill-rule="evenodd" stroke="none"/>
    </g>
  </defs>
</svg>
