<?xml version="1.0" encoding="UTF-8" standalone="no"?>
<svg xmlns:ffdec="https://www.free-decompiler.com/flash" xmlns:xlink="http://www.w3.org/1999/xlink" ffdec:objectType="frame" height="56.0px" width="56.0px" xmlns="http://www.w3.org/2000/svg">
  <g transform="matrix(1.0, 0.0, 0.0, 1.0, 0.0, 0.0)">
    <use ffdec:characterId="2" height="56.0" id="back" transform="matrix(1.0, 0.0, 0.0, 1.0, 0.0, 0.0)" width="56.0" xlink:href="#sprite0"/>
    <use ffdec:characterId="3" height="46.8" transform="matrix(1.0, 0.0, 0.0, 1.0, 5.2, 4.8)" width="46.8" xlink:href="#shape1"/>
  </g>
  <defs>
    <g id="sprite0" transform="matrix(1.0, 0.0, 0.0, 1.0, 0.0, 0.0)">
      <use ffdec:characterId="1" height="56.0" transform="matrix(1.0, 0.0, 0.0, 1.0, 0.0, 0.0)" width="56.0" xlink:href="#shape0"/>
    </g>
    <g id="shape0" transform="matrix(1.0, 0.0, 0.0, 1.0, 0.0, 0.0)">
      <path d="M56.0 56.0 L0.0 56.0 0.0 0.0 56.0 0.0 56.0 56.0" fill="#010101" fill-opacity="0.0" fill-rule="evenodd" stroke="none"/>
    </g>
    <g id="shape1" transform="matrix(1.0, 0.0, 0.0, 1.0, -5.2, -4.8)">
      <path d="M8.35 22.15 Q10.75 19.75 14.1 19.75 17.55 19.75 19.9 22.15 L19.9 22.2 Q22.25 24.45 22.35 27.55 L22.35 27.9 Q22.45 28.8 23.1 29.5 23.8 30.15 24.7 30.2 25.7 30.2 26.3 29.55 L26.35 29.5 26.65 29.2 25.2 28.2 25.2 28.15 Q23.6 26.55 23.6 24.35 23.6 22.2 25.2 20.6 26.7 19.05 28.8 19.05 L29.2 19.05 Q31.1 18.95 32.5 17.5 L32.55 17.45 Q34.05 15.95 34.05 13.8 34.0 11.7 32.55 10.1 L32.5 10.05 Q30.95 8.55 29.0 8.55 L27.9 8.1 Q27.5 7.7 27.5 7.05 27.5 6.45 27.9 6.0 28.35 5.55 29.0 5.6 32.25 5.55 34.65 7.95 L34.7 8.0 Q37.05 10.5 37.05 13.8 37.0 17.15 34.65 19.55 32.35 21.95 29.25 22.05 L28.8 22.05 Q27.9 22.05 27.3 22.7 26.6 23.4 26.6 24.35 26.6 25.3 27.3 26.05 L27.3 26.1 27.55 26.3 Q27.9 25.55 28.55 24.85 L28.65 24.75 Q30.25 23.25 32.4 23.3 34.55 23.25 36.15 24.75 L36.2 24.8 Q37.7 26.3 37.7 28.45 L37.7 28.7 37.7 28.8 Q37.8 30.75 39.3 32.2 L39.35 32.2 Q40.85 33.7 42.95 33.75 45.05 33.7 46.65 32.2 L46.7 32.2 Q48.2 30.6 48.2 28.45 48.2 27.85 48.65 27.4 49.1 26.95 49.7 27.0 50.3 26.95 50.75 27.4 51.2 27.85 51.2 28.45 51.2 31.85 48.8 34.3 L48.75 34.35 Q46.3 36.75 42.95 36.75 39.6 36.75 37.25 34.35 L37.2 34.3 Q34.85 32.05 34.75 28.9 L34.75 28.85 34.75 28.7 34.75 28.45 Q34.75 27.55 34.1 26.9 33.35 26.3 32.4 26.3 31.45 26.3 30.7 26.9 L30.45 27.25 31.9 28.2 32.0 28.3 Q33.55 29.75 33.55 32.1 33.55 34.15 32.0 35.75 L32.0 35.8 Q30.55 37.25 28.4 37.45 L28.3 37.45 28.1 37.45 27.9 37.45 Q26.0 37.5 24.6 39.0 L24.55 39.05 Q23.05 40.45 23.05 42.65 23.05 44.75 24.55 46.25 L24.6 46.3 Q26.2 47.8 28.3 47.8 28.9 47.8 29.35 48.25 29.8 48.65 29.8 49.3 L29.35 50.35 Q28.9 50.8 28.3 50.8 24.95 50.8 22.5 48.4 L22.45 48.4 Q20.05 46.0 20.05 42.65 20.05 39.2 22.45 36.9 24.75 34.5 27.9 34.45 L28.1 34.45 28.2 34.45 Q29.15 34.35 29.85 33.65 L29.85 33.7 Q30.55 33.0 30.55 32.1 30.55 31.1 29.9 30.4 L29.55 30.15 28.5 31.55 28.5 31.6 Q27.0 33.2 24.7 33.2 22.65 33.2 21.0 31.6 19.5 30.1 19.4 28.1 L19.4 28.0 19.4 27.65 Q19.3 25.7 17.8 24.3 L17.75 24.25 Q16.3 22.75 14.1 22.75 12.0 22.75 10.5 24.25 9.0 25.75 9.0 27.9 L8.55 28.95 Q8.1 29.4 7.5 29.4 6.9 29.4 6.45 28.95 6.0 28.5 6.0 27.9 6.0 24.55 8.35 22.15 M31.6 13.55 Q31.6 14.9 30.65 15.85 29.65 16.85 28.4 16.95 25.75 16.95 23.7 15.8 L22.6 15.2 Q20.45 14.1 16.0 16.45 19.3 10.4 26.75 10.1 L28.2 10.1 28.5 10.1 Q29.65 10.2 30.65 11.1 31.6 12.15 31.6 13.55 M40.85 29.85 Q39.85 28.85 39.75 27.6 39.75 24.95 40.9 22.9 L41.5 21.8 Q42.55 19.7 40.2 15.2 46.3 18.5 46.55 25.95 L46.55 27.4 46.55 27.7 Q46.45 28.85 45.6 29.85 44.55 30.85 43.15 30.85 41.75 30.85 40.85 29.85 M14.05 25.65 Q15.4 25.65 16.35 26.6 17.35 27.6 17.45 28.85 17.45 31.5 16.3 33.55 L15.65 34.65 Q14.6 36.8 16.95 41.25 10.9 37.95 10.6 30.55 L10.6 29.05 10.6 28.75 Q10.7 27.6 11.6 26.6 12.65 25.65 14.05 25.65 M34.15 41.1 Q36.3 42.15 40.85 39.8 37.5 45.85 30.05 46.15 L28.6 46.15 28.3 46.15 Q27.15 46.05 26.15 45.2 25.15 44.1 25.15 42.75 25.15 41.4 26.15 40.4 27.15 39.4 28.4 39.35 31.05 39.35 33.1 40.5 L34.15 41.1" fill="#000000" fill-rule="evenodd" stroke="none"/>
      <path d="M8.35 22.15 Q6.0 24.55 6.0 27.9 6.0 28.5 6.45 28.95 6.9 29.4 7.5 29.4 8.1 29.4 8.55 28.95 L9.0 27.9 Q9.0 25.75 10.5 24.25 12.0 22.75 14.1 22.75 16.3 22.75 17.75 24.25 L17.8 24.3 Q19.3 25.7 19.4 27.65 L19.4 28.0 19.4 28.1 Q19.5 30.1 21.0 31.6 22.65 33.2 24.7 33.2 27.0 33.2 28.5 31.6 L28.5 31.55 29.55 30.15 29.9 30.4 Q30.55 31.1 30.55 32.1 30.55 33.0 29.85 33.7 L29.85 33.65 Q29.15 34.35 28.2 34.45 L28.1 34.45 27.9 34.45 Q24.75 34.5 22.45 36.9 20.05 39.2 20.05 42.65 20.05 46.0 22.45 48.4 L22.5 48.4 Q24.95 50.8 28.3 50.8 28.9 50.8 29.35 50.35 L29.8 49.3 Q29.8 48.65 29.35 48.25 28.9 47.8 28.3 47.8 26.2 47.8 24.6 46.3 L24.55 46.25 Q23.05 44.75 23.05 42.65 23.05 40.45 24.55 39.05 L24.6 39.0 Q26.0 37.5 27.9 37.45 L28.1 37.45 28.3 37.45 28.4 37.45 Q30.55 37.25 32.0 35.8 L32.0 35.75 Q33.55 34.15 33.55 32.1 33.55 29.75 32.0 28.3 L31.9 28.2 30.45 27.25 30.7 26.9 Q31.45 26.3 32.4 26.3 33.35 26.3 34.1 26.9 34.75 27.55 34.75 28.45 L34.75 28.7 34.75 28.85 34.75 28.9 Q34.85 32.05 37.2 34.3 L37.25 34.35 Q39.6 36.75 42.95 36.75 46.3 36.75 48.75 34.35 L48.8 34.3 Q51.2 31.85 51.2 28.45 51.2 27.85 50.75 27.4 50.3 26.95 49.7 27.0 49.1 26.95 48.65 27.4 48.2 27.85 48.2 28.45 48.2 30.6 46.7 32.2 L46.65 32.2 Q45.05 33.7 42.95 33.75 40.85 33.7 39.35 32.2 L39.3 32.2 Q37.8 30.75 37.7 28.8 L37.7 28.7 37.7 28.45 Q37.7 26.3 36.2 24.8 L36.15 24.75 Q34.55 23.25 32.4 23.3 30.25 23.25 28.65 24.75 L28.55 24.85 Q27.9 25.55 27.55 26.3 L27.3 26.1 27.3 26.05 Q26.6 25.3 26.6 24.35 26.6 23.4 27.3 22.7 27.9 22.05 28.8 22.05 L29.25 22.05 Q32.35 21.95 34.65 19.55 37.0 17.15 37.05 13.8 37.05 10.5 34.7 8.0 L34.65 7.95 Q32.25 5.55 29.0 5.6 28.35 5.55 27.9 6.0 27.5 6.45 27.5 7.05 27.5 7.7 27.9 8.1 L29.0 8.55 Q30.95 8.55 32.5 10.05 L32.55 10.1 Q34.0 11.7 34.05 13.8 34.05 15.95 32.55 17.45 L32.5 17.5 Q31.1 18.95 29.2 19.05 L28.8 19.05 Q26.7 19.05 25.2 20.6 23.6 22.2 23.6 24.35 23.6 26.55 25.2 28.15 L25.2 28.2 26.65 29.2 26.35 29.5 26.3 29.55 Q25.7 30.2 24.7 30.2 23.8 30.15 23.1 29.5 22.45 28.8 22.35 27.9 L22.35 27.55 Q22.25 24.45 19.9 22.2 L19.9 22.15 Q17.55 19.75 14.1 19.75 10.75 19.75 8.35 22.15 M31.6 13.55 Q31.6 14.9 30.65 15.85 29.65 16.85 28.4 16.95 25.75 16.95 23.7 15.8 L22.6 15.2 Q20.45 14.1 16.0 16.45 19.3 10.4 26.75 10.1 L28.2 10.1 28.5 10.1 Q29.65 10.2 30.65 11.1 31.6 12.15 31.6 13.55 M40.85 29.85 Q39.85 28.85 39.75 27.6 39.75 24.95 40.9 22.9 L41.5 21.8 Q42.55 19.7 40.2 15.2 46.3 18.5 46.55 25.95 L46.55 27.4 46.55 27.7 Q46.45 28.85 45.6 29.85 44.55 30.85 43.15 30.85 41.75 30.85 40.85 29.85 M14.05 25.65 Q15.4 25.65 16.35 26.6 17.35 27.6 17.45 28.85 17.45 31.5 16.3 33.55 L15.65 34.65 Q14.6 36.8 16.95 41.25 10.9 37.95 10.6 30.55 L10.6 29.05 10.6 28.75 Q10.7 27.6 11.6 26.6 12.65 25.65 14.05 25.65 M34.15 41.1 Q36.3 42.15 40.85 39.8 37.5 45.85 30.05 46.15 L28.6 46.15 28.3 46.15 Q27.15 46.05 26.15 45.2 25.15 44.1 25.15 42.75 25.15 41.4 26.15 40.4 27.15 39.4 28.4 39.35 31.05 39.35 33.1 40.5 L34.15 41.1 Z" fill="none" stroke="#000000" stroke-linecap="round" stroke-linejoin="round" stroke-opacity="0.2" stroke-width="1.6"/>
      <path d="M8.35 22.15 Q10.75 19.75 14.1 19.75 17.55 19.75 19.9 22.15 L19.9 22.2 Q22.25 24.45 22.35 27.55 L22.35 27.9 Q22.45 28.8 23.1 29.5 23.8 30.15 24.7 30.2 25.7 30.2 26.3 29.55 L26.35 29.5 26.65 29.2 25.2 28.2 25.2 28.15 Q23.6 26.55 23.6 24.35 23.6 22.2 25.2 20.6 26.7 19.05 28.8 19.05 L29.2 19.05 Q31.1 18.95 32.5 17.5 L32.55 17.45 Q34.05 15.95 34.05 13.8 34.0 11.7 32.55 10.1 L32.5 10.05 Q30.95 8.55 29.0 8.55 L27.9 8.1 Q27.5 7.7 27.5 7.05 27.5 6.45 27.9 6.0 28.35 5.55 29.0 5.6 32.25 5.55 34.65 7.95 L34.7 8.0 Q37.05 10.5 37.05 13.8 37.0 17.15 34.65 19.55 32.35 21.95 29.25 22.05 L28.8 22.05 Q27.9 22.05 27.3 22.7 26.6 23.4 26.6 24.35 26.6 25.3 27.3 26.05 L27.3 26.1 27.55 26.3 Q27.9 25.55 28.55 24.85 L28.65 24.75 Q30.25 23.25 32.4 23.3 34.55 23.25 36.15 24.75 L36.2 24.8 Q37.7 26.3 37.7 28.45 L37.7 28.7 37.7 28.8 Q37.8 30.75 39.3 32.2 L39.35 32.2 Q40.85 33.7 42.95 33.75 45.05 33.7 46.65 32.2 L46.7 32.2 Q48.2 30.6 48.2 28.45 48.2 27.85 48.65 27.4 49.1 26.95 49.7 27.0 50.3 26.95 50.75 27.4 51.2 27.85 51.2 28.45 51.2 31.85 48.8 34.3 L48.75 34.35 Q46.3 36.75 42.95 36.75 39.6 36.75 37.25 34.35 L37.2 34.3 Q34.85 32.05 34.75 28.9 L34.75 28.85 34.75 28.7 34.75 28.45 Q34.75 27.55 34.1 26.9 33.35 26.3 32.4 26.3 31.45 26.3 30.7 26.9 L30.45 27.25 31.9 28.2 32.0 28.3 Q33.55 29.75 33.55 32.1 33.55 34.15 32.0 35.75 L32.0 35.8 Q30.55 37.25 28.4 37.45 L28.3 37.45 28.1 37.45 27.9 37.45 Q26.0 37.5 24.6 39.0 L24.55 39.05 Q23.05 40.45 23.05 42.65 23.05 44.75 24.55 46.25 L24.6 46.3 Q26.2 47.8 28.3 47.8 28.9 47.8 29.35 48.25 29.8 48.65 29.8 49.3 L29.35 50.35 Q28.9 50.8 28.3 50.8 24.95 50.8 22.5 48.4 L22.45 48.4 Q20.05 46.0 20.05 42.65 20.05 39.2 22.45 36.9 24.75 34.5 27.9 34.45 L28.1 34.45 28.2 34.45 Q29.15 34.35 29.85 33.65 L29.85 33.7 Q30.55 33.0 30.55 32.1 30.55 31.1 29.9 30.4 L29.55 30.15 28.5 31.55 28.5 31.6 Q27.0 33.2 24.7 33.2 22.65 33.2 21.0 31.6 19.5 30.1 19.4 28.1 L19.4 28.0 19.4 27.65 Q19.3 25.7 17.8 24.3 L17.75 24.25 Q16.3 22.75 14.1 22.75 12.0 22.75 10.5 24.25 9.0 25.75 9.0 27.9 L8.55 28.95 Q8.1 29.4 7.5 29.4 6.9 29.4 6.45 28.95 6.0 28.5 6.0 27.9 6.0 24.55 8.35 22.15 M31.6 13.55 Q31.6 14.9 30.65 15.85 29.65 16.85 28.4 16.95 25.75 16.95 23.7 15.8 L22.6 15.2 Q20.45 14.1 16.0 16.45 19.3 10.4 26.75 10.1 L28.2 10.1 28.5 10.1 Q29.65 10.2 30.65 11.1 31.6 12.15 31.6 13.55 M40.85 29.85 Q39.85 28.85 39.75 27.6 39.75 24.95 40.9 22.9 L41.5 21.8 Q42.55 19.7 40.2 15.2 46.3 18.5 46.55 25.95 L46.55 27.4 46.55 27.7 Q46.45 28.85 45.6 29.85 44.55 30.85 43.15 30.85 41.75 30.85 40.85 29.85 M14.05 25.65 Q15.4 25.65 16.35 26.6 17.35 27.6 17.45 28.85 17.45 31.5 16.3 33.55 L15.65 34.65 Q14.6 36.8 16.95 41.25 10.9 37.95 10.6 30.55 L10.6 29.05 10.6 28.75 Q10.7 27.6 11.6 26.6 12.65 25.65 14.05 25.65 M34.15 41.1 Q36.3 42.15 40.85 39.8 37.5 45.85 30.05 46.15 L28.6 46.15 28.3 46.15 Q27.15 46.05 26.15 45.2 25.15 44.1 25.15 42.75 25.15 41.4 26.15 40.4 27.15 39.4 28.4 39.35 31.05 39.35 33.1 40.5 L34.15 41.1" fill="#000000" fill-rule="evenodd" stroke="none"/>
    </g>
  </defs>
</svg>
