<?xml version="1.0" encoding="UTF-8" standalone="no"?>
<svg xmlns:ffdec="https://www.free-decompiler.com/flash" xmlns:xlink="http://www.w3.org/1999/xlink" ffdec:objectType="frame" height="56.0px" width="56.0px" xmlns="http://www.w3.org/2000/svg">
  <g transform="matrix(1.0, 0.0, 0.0, 1.0, 0.0, 0.0)">
    <use ffdec:characterId="2" height="56.0" id="back" transform="matrix(1.0, 0.0, 0.0, 1.0, 0.0, 0.0)" width="56.0" xlink:href="#sprite0"/>
    <use ffdec:characterId="3" height="42.1" transform="matrix(1.0, 0.0, 0.0, 1.0, 4.05, 7.65)" width="48.05" xlink:href="#shape1"/>
  </g>
  <defs>
    <g id="sprite0" transform="matrix(1.0, 0.0, 0.0, 1.0, 0.0, 0.0)">
      <use ffdec:characterId="1" height="56.0" transform="matrix(1.0, 0.0, 0.0, 1.0, 0.0, 0.0)" width="56.0" xlink:href="#shape0"/>
    </g>
    <g id="shape0" transform="matrix(1.0, 0.0, 0.0, 1.0, 0.0, 0.0)">
      <path d="M56.0 56.0 L0.0 56.0 0.0 0.0 56.0 0.0 56.0 56.0" fill="#010101" fill-opacity="0.0" fill-rule="evenodd" stroke="none"/>
    </g>
    <g id="shape1" transform="matrix(1.0, 0.0, 0.0, 1.0, -4.05, -7.65)">
      <path d="M27.65 15.4 L28.3 14.15 Q31.55 8.1 40.0 8.5 L29.45 28.4 26.3 24.05 17.0 43.55 Q8.7 37.8 5.85 28.5 L5.6 27.8 5.3 26.65 Q4.85 24.8 4.85 22.8 4.85 16.85 8.15 12.65 9.0 11.4 10.15 10.65 12.35 8.8 14.95 8.5 L15.6 8.5 Q23.6 7.9 26.95 14.25 L27.65 15.4 M51.3 22.8 Q51.3 25.95 50.4 28.5 47.95 36.3 39.15 42.4 33.8 46.05 26.75 48.95 23.3 47.3 20.0 45.2 L27.45 30.1 29.95 33.4 43.2 9.05 Q46.1 10.45 47.85 12.65 51.3 16.85 51.3 22.8" fill="#000000" fill-rule="evenodd" stroke="none"/>
      <path d="M27.65 15.4 L28.3 14.15 Q31.55 8.1 40.0 8.5 L29.45 28.4 26.3 24.05 17.0 43.55 Q8.7 37.8 5.85 28.5 L5.6 27.8 5.3 26.65 Q4.85 24.8 4.85 22.8 4.85 16.85 8.15 12.65 9.0 11.4 10.15 10.65 12.35 8.8 14.95 8.5 L15.6 8.5 Q23.6 7.9 26.95 14.25 L27.65 15.4 M51.3 22.8 Q51.3 25.95 50.4 28.5 47.95 36.3 39.15 42.4 33.8 46.05 26.75 48.95 23.3 47.3 20.0 45.2 L27.45 30.1 29.95 33.4 43.2 9.05 Q46.1 10.45 47.85 12.65 51.3 16.85 51.3 22.8 Z" fill="none" stroke="#000000" stroke-linecap="round" stroke-linejoin="round" stroke-opacity="0.2" stroke-width="1.6"/>
      <path d="M27.65 15.4 L28.3 14.15 Q31.55 8.1 40.0 8.5 L29.45 28.4 26.3 24.05 17.0 43.55 Q8.7 37.8 5.85 28.5 L5.6 27.8 5.3 26.65 Q4.85 24.8 4.85 22.8 4.85 16.85 8.15 12.65 9.0 11.4 10.15 10.65 12.35 8.8 14.95 8.5 L15.6 8.5 Q23.6 7.9 26.95 14.25 L27.65 15.4 M51.3 22.8 Q51.3 25.95 50.4 28.5 47.95 36.3 39.15 42.4 33.8 46.05 26.75 48.95 23.3 47.3 20.0 45.2 L27.45 30.1 29.95 33.4 43.2 9.05 Q46.1 10.45 47.85 12.65 51.3 16.85 51.3 22.8" fill="#000000" fill-rule="evenodd" stroke="none"/>
    </g>
  </defs>
</svg>
