<?xml version="1.0" encoding="UTF-8" standalone="no"?>
<svg xmlns:ffdec="https://www.free-decompiler.com/flash" xmlns:xlink="http://www.w3.org/1999/xlink" ffdec:objectType="frame" height="56.0px" width="56.0px" xmlns="http://www.w3.org/2000/svg">
  <g transform="matrix(1.0, 0.0, 0.0, 1.0, 0.0, 0.0)">
    <use ffdec:characterId="2" height="56.0" id="back" transform="matrix(1.0, 0.0, 0.0, 1.0, 0.0, 0.0)" width="56.0" xlink:href="#sprite0"/>
    <use ffdec:characterId="3" height="45.75" transform="matrix(1.0, 0.0, 0.0, 1.0, 5.95, 6.25)" width="43.6" xlink:href="#shape1"/>
  </g>
  <defs>
    <g id="sprite0" transform="matrix(1.0, 0.0, 0.0, 1.0, 0.0, 0.0)">
      <use ffdec:characterId="1" height="56.0" transform="matrix(1.0, 0.0, 0.0, 1.0, 0.0, 0.0)" width="56.0" xlink:href="#shape0"/>
    </g>
    <g id="shape0" transform="matrix(1.0, 0.0, 0.0, 1.0, 0.0, 0.0)">
      <path d="M56.0 56.0 L0.0 56.0 0.0 0.0 56.0 0.0 56.0 56.0" fill="#010101" fill-opacity="0.0" fill-rule="evenodd" stroke="none"/>
    </g>
    <g id="shape1" transform="matrix(1.0, 0.0, 0.0, 1.0, -5.95, -6.25)">
      <path d="M24.35 44.85 L27.65 47.0 32.5 42.8 32.4 41.65 Q31.95 42.3 29.9 43.5 27.25 45.2 24.35 44.85 M39.7 30.7 Q41.65 28.3 32.1 21.65 L16.8 14.6 12.0 37.5 18.25 41.35 Q29.3 46.15 39.7 30.7 M23.0 35.65 Q23.0 35.5 23.15 35.65 L23.2 35.7 23.65 36.35 24.15 34.45 23.65 34.15 22.25 35.5 23.0 35.65 M23.65 26.45 L21.85 26.95 Q21.65 26.95 21.2 28.1 L20.4 29.8 21.2 30.2 21.9 30.85 23.65 32.05 Q24.1 32.1 24.7 31.65 L24.8 31.5 Q25.6 30.85 25.95 29.3 L26.15 29.2 26.1 29.2 26.35 27.7 26.15 26.95 25.6 26.5 23.65 26.45 M29.2 28.75 Q29.0 28.7 27.45 30.0 L27.1 30.2 Q26.2 31.3 25.95 32.25 25.8 33.1 26.15 33.55 L26.6 33.7 Q26.95 34.05 27.55 34.2 L28.15 34.35 29.75 35.05 30.75 33.7 31.45 32.45 31.45 32.25 31.45 32.05 31.15 30.85 31.0 30.6 Q30.5 29.5 29.95 29.1 29.75 28.75 29.2 28.75 M28.4 22.2 L30.15 23.25 Q34.05 25.7 34.75 28.4 35.45 31.2 32.85 34.45 L32.85 34.55 30.65 36.15 31.4 36.95 31.45 36.95 31.45 37.15 30.75 38.4 30.75 38.6 Q30.6 38.45 30.5 38.6 L29.2 38.65 29.05 38.6 29.0 38.45 Q28.65 37.85 28.0 37.65 28.65 39.35 28.15 40.65 L27.9 40.85 25.2 40.75 24.7 40.5 24.65 40.4 24.3 39.55 23.65 38.45 Q23.35 38.45 22.95 39.2 L22.95 39.35 22.85 39.4 Q21.75 39.5 21.1 39.0 20.3 38.65 19.85 37.65 L19.85 37.6 19.85 37.5 20.3 36.5 18.1 36.6 17.85 36.55 17.4 36.35 16.75 35.85 Q15.85 34.9 16.0 33.8 L16.05 33.7 Q17.0 32.6 18.65 32.25 18.25 31.75 17.5 31.85 L17.4 31.75 17.35 31.5 16.65 30.35 16.65 30.2 17.35 29.05 17.4 28.9 17.55 28.9 18.65 29.2 19.0 26.5 19.0 26.45 Q20.3 23.05 22.65 21.95 24.85 20.85 28.4 22.2 M37.9 15.55 L35.45 19.9 48.75 28.7 29.4 51.2 6.75 38.1 14.2 9.0 29.75 16.55 32.15 12.2 28.8 10.2 30.65 7.05 43.15 14.25 41.3 17.45 37.9 15.55" fill="#000000" fill-rule="evenodd" stroke="none"/>
      <path d="M37.9 15.55 L41.3 17.45 43.15 14.25 30.65 7.05 28.8 10.2 32.15 12.2 29.75 16.55 14.2 9.0 6.75 38.1 29.4 51.2 48.75 28.7 35.45 19.9 37.9 15.55 M28.4 22.2 Q24.85 20.85 22.65 21.95 20.3 23.05 19.0 26.45 L19.0 26.5 18.65 29.2 17.55 28.9 17.4 28.9 17.35 29.05 16.65 30.2 16.65 30.35 17.35 31.5 17.4 31.75 17.5 31.85 Q18.25 31.75 18.65 32.25 17.0 32.6 16.05 33.7 L16.0 33.8 Q15.85 34.9 16.75 35.85 L17.4 36.35 17.85 36.55 18.1 36.6 20.3 36.5 19.85 37.5 19.85 37.6 19.85 37.65 Q20.3 38.65 21.1 39.0 21.75 39.5 22.85 39.4 L22.95 39.35 22.95 39.2 Q23.35 38.45 23.65 38.45 L24.3 39.55 24.65 40.4 24.7 40.5 25.2 40.75 27.9 40.85 28.15 40.65 Q28.65 39.35 28.0 37.65 28.65 37.85 29.0 38.45 L29.05 38.6 29.2 38.65 30.5 38.6 Q30.6 38.45 30.75 38.6 L30.75 38.4 31.45 37.15 31.45 36.95 31.4 36.95 30.65 36.15 32.85 34.55 32.85 34.45 Q35.45 31.2 34.75 28.4 34.05 25.7 30.15 23.25 L28.4 22.2 M29.2 28.75 Q29.75 28.75 29.95 29.1 30.5 29.5 31.0 30.6 L31.15 30.85 31.45 32.05 31.45 32.25 31.45 32.45 30.75 33.7 29.75 35.05 28.15 34.35 27.55 34.2 Q26.95 34.05 26.6 33.7 L26.15 33.55 Q25.8 33.1 25.95 32.25 26.2 31.3 27.1 30.2 L27.45 30.0 Q29.0 28.7 29.2 28.75 M23.65 26.45 L25.6 26.5 26.15 26.95 26.35 27.7 26.1 29.2 26.15 29.2 25.95 29.3 Q25.6 30.85 24.8 31.5 L24.7 31.65 Q24.1 32.1 23.65 32.05 L21.9 30.85 21.2 30.2 20.4 29.8 21.2 28.1 Q21.65 26.95 21.85 26.95 L23.65 26.45 M23.0 35.65 L22.25 35.5 23.65 34.15 24.15 34.45 23.65 36.35 23.2 35.7 23.15 35.65 Q23.0 35.5 23.0 35.65 M39.7 30.7 Q29.3 46.15 18.25 41.35 L12.0 37.5 16.8 14.6 32.1 21.65 Q41.65 28.3 39.7 30.7 M24.35 44.85 Q27.25 45.2 29.9 43.5 31.95 42.3 32.4 41.65 L32.5 42.8 27.65 47.0 24.35 44.85 Z" fill="none" stroke="#000000" stroke-linecap="round" stroke-linejoin="round" stroke-opacity="0.2" stroke-width="1.6"/>
      <path d="M24.35 44.85 L27.65 47.0 32.5 42.8 32.4 41.65 Q31.95 42.3 29.9 43.5 27.25 45.2 24.35 44.85 M39.7 30.7 Q41.65 28.3 32.1 21.65 L16.8 14.6 12.0 37.5 18.25 41.35 Q29.3 46.15 39.7 30.7 M23.0 35.65 Q23.0 35.5 23.15 35.65 L23.2 35.7 23.65 36.35 24.15 34.45 23.65 34.15 22.25 35.5 23.0 35.65 M23.65 26.45 L21.85 26.95 Q21.65 26.95 21.2 28.1 L20.4 29.8 21.2 30.2 21.9 30.85 23.65 32.05 Q24.1 32.1 24.7 31.65 L24.8 31.5 Q25.6 30.85 25.95 29.3 L26.15 29.2 26.1 29.2 26.35 27.7 26.15 26.95 25.6 26.5 23.65 26.45 M29.2 28.75 Q29.0 28.7 27.45 30.0 L27.1 30.2 Q26.2 31.3 25.95 32.25 25.8 33.1 26.15 33.55 L26.6 33.7 Q26.95 34.05 27.55 34.2 L28.15 34.35 29.75 35.05 30.75 33.7 31.45 32.45 31.45 32.25 31.45 32.05 31.15 30.85 31.0 30.6 Q30.5 29.5 29.95 29.1 29.75 28.75 29.2 28.75 M28.4 22.2 L30.15 23.25 Q34.05 25.7 34.75 28.4 35.45 31.2 32.85 34.45 L32.85 34.55 30.65 36.15 31.4 36.95 31.45 36.95 31.45 37.15 30.75 38.4 30.75 38.6 Q30.6 38.45 30.5 38.6 L29.2 38.65 29.05 38.6 29.0 38.45 Q28.65 37.85 28.0 37.65 28.65 39.35 28.15 40.65 L27.9 40.85 25.2 40.75 24.7 40.5 24.65 40.4 24.3 39.55 23.65 38.45 Q23.35 38.45 22.95 39.2 L22.95 39.35 22.85 39.4 Q21.75 39.5 21.1 39.0 20.3 38.65 19.85 37.65 L19.85 37.6 19.85 37.5 20.3 36.5 18.1 36.6 17.85 36.55 17.4 36.35 16.75 35.85 Q15.85 34.9 16.0 33.8 L16.05 33.7 Q17.0 32.6 18.65 32.25 18.25 31.75 17.5 31.85 L17.4 31.75 17.35 31.5 16.65 30.35 16.65 30.2 17.35 29.05 17.4 28.9 17.55 28.9 18.65 29.2 19.0 26.5 19.0 26.45 Q20.3 23.05 22.65 21.95 24.85 20.85 28.4 22.2 M37.9 15.55 L35.45 19.9 48.75 28.7 29.4 51.2 6.75 38.1 14.2 9.0 29.75 16.55 32.15 12.2 28.8 10.2 30.65 7.05 43.15 14.25 41.3 17.45 37.9 15.55" fill="#000000" fill-rule="evenodd" stroke="none"/>
    </g>
  </defs>
</svg>
