<?xml version="1.0" encoding="UTF-8" standalone="no"?>
<svg xmlns:ffdec="https://www.free-decompiler.com/flash" xmlns:xlink="http://www.w3.org/1999/xlink" ffdec:objectType="frame" height="56.0px" width="56.0px" xmlns="http://www.w3.org/2000/svg">
  <g transform="matrix(1.0, 0.0, 0.0, 1.0, 0.0, 0.0)">
    <use ffdec:characterId="2" height="56.0" id="back" transform="matrix(1.0, 0.0, 0.0, 1.0, 0.0, 0.0)" width="56.0" xlink:href="#sprite0"/>
    <use ffdec:characterId="3" height="32.25" transform="matrix(1.0, 0.0, 0.0, 1.0, 2.8, 13.7)" width="51.0" xlink:href="#shape1"/>
  </g>
  <defs>
    <g id="sprite0" transform="matrix(1.0, 0.0, 0.0, 1.0, 0.0, 0.0)">
      <use ffdec:characterId="1" height="56.0" transform="matrix(1.0, 0.0, 0.0, 1.0, 0.0, 0.0)" width="56.0" xlink:href="#shape0"/>
    </g>
    <g id="shape0" transform="matrix(1.0, 0.0, 0.0, 1.0, 0.0, 0.0)">
      <path d="M56.0 56.0 L0.0 56.0 0.0 0.0 56.0 0.0 56.0 56.0" fill="#010101" fill-opacity="0.0" fill-rule="evenodd" stroke="none"/>
    </g>
    <g id="shape1" transform="matrix(1.0, 0.0, 0.0, 1.0, -2.8, -13.7)">
      <path d="M48.4 14.5 Q52.15 14.5 52.8 17.35 53.05 18.3 52.95 19.7 L52.0 31.45 Q51.65 36.0 48.1 37.2 L47.75 37.2 43.3 37.2 42.35 41.65 43.8 41.65 Q44.6 41.65 45.1 42.0 45.65 42.5 45.65 43.35 45.65 44.1 45.1 44.6 44.6 45.15 43.8 45.15 L25.3 45.15 Q24.55 45.15 24.0 44.6 23.5 44.1 23.5 43.35 23.5 42.5 24.0 42.0 24.55 41.65 25.3 41.65 L28.7 41.65 27.9 37.2 22.05 37.2 Q18.25 36.55 18.25 32.5 L18.25 31.6 Q13.85 30.95 10.2 29.0 4.2 25.75 3.65 21.95 3.15 19.35 10.45 18.55 L17.0 18.0 18.8 18.0 19.05 17.5 Q20.5 14.5 25.05 14.5 L48.4 14.5" fill="#000000" fill-rule="evenodd" stroke="none"/>
      <path d="M48.4 14.5 L25.05 14.5 Q20.5 14.5 19.05 17.5 L18.8 18.0 17.0 18.0 10.45 18.55 Q3.15 19.35 3.65 21.95 4.2 25.75 10.2 29.0 13.85 30.95 18.25 31.6 L18.25 32.5 Q18.25 36.55 22.05 37.2 L27.9 37.2 28.7 41.65 25.3 41.65 Q24.55 41.65 24.0 42.0 23.5 42.5 23.5 43.35 23.5 44.1 24.0 44.6 24.55 45.15 25.3 45.15 L43.8 45.15 Q44.6 45.15 45.1 44.6 45.65 44.1 45.65 43.35 45.65 42.5 45.1 42.0 44.6 41.65 43.8 41.65 L42.35 41.65 43.3 37.2 47.75 37.2 48.1 37.2 Q51.65 36.0 52.0 31.45 L52.95 19.7 Q53.05 18.3 52.8 17.35 52.15 14.5 48.4 14.5 Z" fill="none" stroke="#000000" stroke-linecap="round" stroke-linejoin="round" stroke-opacity="0.2" stroke-width="1.6"/>
      <path d="M48.4 14.5 Q52.15 14.5 52.8 17.35 53.05 18.3 52.95 19.7 L52.0 31.45 Q51.65 36.0 48.1 37.2 L47.75 37.2 43.3 37.2 42.35 41.65 43.8 41.65 Q44.6 41.65 45.1 42.0 45.65 42.5 45.65 43.35 45.65 44.1 45.1 44.6 44.6 45.15 43.8 45.15 L25.3 45.15 Q24.55 45.15 24.0 44.6 23.5 44.1 23.5 43.35 23.5 42.5 24.0 42.0 24.55 41.65 25.3 41.65 L28.7 41.65 27.9 37.2 22.05 37.2 Q18.25 36.55 18.25 32.5 L18.25 31.6 Q13.85 30.95 10.2 29.0 4.2 25.75 3.65 21.95 3.15 19.35 10.45 18.55 L17.0 18.0 18.8 18.0 19.05 17.5 Q20.5 14.5 25.05 14.5 L48.4 14.5" fill="#000000" fill-rule="evenodd" stroke="none"/>
    </g>
  </defs>
</svg>
