<?xml version="1.0" encoding="UTF-8" standalone="no"?>
<svg xmlns:ffdec="https://www.free-decompiler.com/flash" xmlns:xlink="http://www.w3.org/1999/xlink" ffdec:objectType="frame" height="56.0px" width="56.0px" xmlns="http://www.w3.org/2000/svg">
  <g transform="matrix(1.0, 0.0, 0.0, 1.0, 0.0, 0.0)">
    <use ffdec:characterId="2" height="56.0" id="back" transform="matrix(1.0, 0.0, 0.0, 1.0, 0.0, 0.0)" width="56.0" xlink:href="#sprite0"/>
    <use ffdec:characterId="3" height="44.35" transform="matrix(1.0, 0.0, 0.0, 1.0, 5.6, 6.85)" width="44.8" xlink:href="#shape1"/>
  </g>
  <defs>
    <g id="sprite0" transform="matrix(1.0, 0.0, 0.0, 1.0, 0.0, 0.0)">
      <use ffdec:characterId="1" height="56.0" transform="matrix(1.0, 0.0, 0.0, 1.0, 0.0, 0.0)" width="56.0" xlink:href="#shape0"/>
    </g>
    <g id="shape0" transform="matrix(1.0, 0.0, 0.0, 1.0, 0.0, 0.0)">
      <path d="M56.0 56.0 L0.0 56.0 0.0 0.0 56.0 0.0 56.0 56.0" fill="#010101" fill-opacity="0.0" fill-rule="evenodd" stroke="none"/>
    </g>
    <g id="shape1" transform="matrix(1.0, 0.0, 0.0, 1.0, -5.6, -6.85)">
      <path d="M46.7 31.9 Q54.9 16.3 40.05 10.25 25.1 4.2 14.1 12.15 3.05 20.05 7.9 32.1 11.75 18.25 27.0 17.7 45.9 16.9 46.7 31.9 M30.8 20.45 Q9.7 21.0 13.6 37.65 15.5 27.4 27.45 25.7 38.8 24.45 41.9 34.2 44.05 21.8 30.8 20.45 M30.2 45.95 Q24.55 47.9 26.75 50.4 24.85 49.45 25.35 47.25 26.9 45.1 25.4 42.9 23.3 41.3 22.9 40.2 28.6 35.3 34.4 38.5 34.85 43.45 30.2 45.95 M17.7 39.55 Q16.5 29.6 27.9 28.2 40.5 28.8 38.3 38.2 35.6 30.75 27.45 32.25 20.4 33.35 17.7 39.55 M26.2 34.2 Q21.15 36.1 21.15 39.9 27.35 33.5 35.45 37.5 32.75 32.65 26.2 34.2 Z" fill="none" stroke="#000000" stroke-linecap="round" stroke-linejoin="round" stroke-opacity="0.2" stroke-width="1.6"/>
      <path d="M30.8 20.45 Q44.05 21.8 41.9 34.2 38.8 24.45 27.45 25.7 15.5 27.4 13.6 37.65 9.7 21.0 30.8 20.45 M46.7 31.9 Q45.9 16.9 27.0 17.7 11.75 18.25 7.9 32.1 3.05 20.05 14.1 12.15 25.1 4.2 40.05 10.25 54.9 16.3 46.7 31.9 M30.2 45.95 Q24.55 47.9 26.75 50.4 24.85 49.45 25.35 47.25 26.9 45.1 25.4 42.9 23.3 41.3 22.9 40.2 28.6 35.3 34.4 38.5 34.85 43.45 30.2 45.95 M17.7 39.55 Q16.5 29.6 27.9 28.2 40.5 28.8 38.3 38.2 35.6 30.75 27.45 32.25 20.4 33.35 17.7 39.55 M26.2 34.2 Q32.75 32.65 35.45 37.5 27.35 33.5 21.15 39.9 21.15 36.1 26.2 34.2" fill="#000000" fill-rule="evenodd" stroke="none"/>
    </g>
  </defs>
</svg>
