<?xml version="1.0" encoding="UTF-8" standalone="no"?>
<svg xmlns:ffdec="https://www.free-decompiler.com/flash" xmlns:xlink="http://www.w3.org/1999/xlink" ffdec:objectType="frame" height="56.0px" width="56.0px" xmlns="http://www.w3.org/2000/svg">
  <g transform="matrix(1.0, 0.0, 0.0, 1.0, 0.0, 0.0)">
    <use ffdec:characterId="2" height="56.0" id="back" transform="matrix(1.0, 0.0, 0.0, 1.0, 0.0, 0.0)" width="56.0" xlink:href="#sprite0"/>
    <use ffdec:characterId="3" height="49.3" transform="matrix(1.0, 0.0, 0.0, 1.0, 14.55, 3.55)" width="29.85" xlink:href="#shape1"/>
  </g>
  <defs>
    <g id="sprite0" transform="matrix(1.0, 0.0, 0.0, 1.0, 0.0, 0.0)">
      <use ffdec:characterId="1" height="56.0" transform="matrix(1.0, 0.0, 0.0, 1.0, 0.0, 0.0)" width="56.0" xlink:href="#shape0"/>
    </g>
    <g id="shape0" transform="matrix(1.0, 0.0, 0.0, 1.0, 0.0, 0.0)">
      <path d="M56.0 56.0 L0.0 56.0 0.0 0.0 56.0 0.0 56.0 56.0" fill="#010101" fill-opacity="0.0" fill-rule="evenodd" stroke="none"/>
    </g>
    <g id="shape1" transform="matrix(1.0, 0.0, 0.0, 1.0, -14.55, -3.55)">
      <path d="M16.45 13.1 Q17.15 12.35 15.65 10.25 17.85 11.65 18.65 13.65 17.5 14.2 16.45 13.1 M41.25 32.95 L41.95 33.9 Q47.9 49.1 32.55 51.8 L30.3 52.05 29.4 52.05 28.55 52.05 26.35 51.8 Q10.45 49.0 17.5 32.95 L19.15 29.55 Q20.25 28.05 20.8 25.55 21.35 23.15 18.8 22.05 16.45 21.05 16.65 19.1 L17.05 17.3 17.6 15.9 Q17.75 16.8 18.05 17.3 18.65 19.4 20.2 18.8 21.5 18.1 22.0 17.3 22.55 16.35 21.75 15.15 18.45 9.4 25.0 6.7 L30.2 4.35 29.85 4.7 Q24.2 10.95 29.75 14.25 36.95 17.55 36.2 24.5 L36.65 26.25 36.8 26.8 Q37.5 28.5 40.0 31.45 L41.25 32.95 M24.7 40.1 Q23.6 40.15 22.7 41.1 L21.95 42.6 21.85 43.65 21.85 43.8 21.95 44.5 Q22.0 45.65 22.7 46.4 23.6 47.55 24.7 47.55 L24.8 47.55 Q25.95 47.45 26.7 46.4 27.3 45.7 27.6 44.6 L27.6 44.3 27.6 43.8 27.6 43.35 27.6 43.3 Q27.5 42.0 26.7 41.2 25.95 40.1 24.7 40.1 M37.5 42.6 L36.7 41.2 Q35.85 40.15 34.6 40.1 33.75 40.15 32.8 41.2 32.1 42.0 31.9 43.3 L31.9 43.35 31.9 43.8 32.0 44.3 32.0 44.6 Q32.2 45.7 32.8 46.4 33.75 47.55 34.6 47.55 L34.9 47.55 Q35.9 47.45 36.7 46.4 37.5 45.65 37.6 44.5 L37.6 43.8 37.5 42.6 M32.2 6.0 Q36.2 6.6 35.05 8.7 34.35 7.3 32.9 7.55 30.45 8.8 32.9 11.75 27.05 8.2 32.2 6.0" fill="#000000" fill-rule="evenodd" stroke="none"/>
      <path d="M16.45 13.1 Q17.15 12.35 15.65 10.25 17.85 11.65 18.65 13.65 17.5 14.2 16.45 13.1 M41.25 32.95 L41.95 33.9 Q47.9 49.1 32.55 51.8 L30.3 52.05 29.4 52.05 28.55 52.05 26.35 51.8 Q10.45 49.0 17.5 32.95 L19.15 29.55 Q20.25 28.05 20.8 25.55 21.35 23.15 18.8 22.05 16.45 21.05 16.65 19.1 L17.05 17.3 17.6 15.9 Q17.75 16.8 18.05 17.3 18.65 19.4 20.2 18.8 21.5 18.1 22.0 17.3 22.55 16.35 21.75 15.15 18.45 9.4 25.0 6.7 L30.2 4.35 29.85 4.7 Q24.2 10.95 29.75 14.25 36.95 17.55 36.2 24.5 L36.65 26.25 36.8 26.8 Q37.5 28.5 40.0 31.45 L41.25 32.95 M32.2 6.0 Q27.05 8.2 32.9 11.75 30.45 8.8 32.9 7.55 34.35 7.3 35.05 8.7 36.2 6.6 32.2 6.0 M37.5 42.6 L37.6 43.8 37.6 44.5 Q37.5 45.65 36.7 46.4 35.9 47.45 34.9 47.55 L34.6 47.55 Q33.75 47.55 32.8 46.4 32.2 45.7 32.0 44.6 L32.0 44.3 31.9 43.8 31.9 43.35 31.9 43.3 Q32.1 42.0 32.8 41.2 33.75 40.15 34.6 40.1 35.85 40.15 36.7 41.2 L37.5 42.6 M24.7 40.1 Q25.95 40.1 26.7 41.2 27.5 42.0 27.6 43.3 L27.6 43.35 27.6 43.8 27.6 44.3 27.6 44.6 Q27.3 45.7 26.7 46.4 25.95 47.45 24.8 47.55 L24.7 47.55 Q23.6 47.55 22.7 46.4 22.0 45.65 21.95 44.5 L21.85 43.8 21.85 43.65 21.95 42.6 22.7 41.1 Q23.6 40.15 24.7 40.1 Z" fill="none" stroke="#000000" stroke-linecap="round" stroke-linejoin="round" stroke-opacity="0.2" stroke-width="1.6"/>
      <path d="M16.45 13.1 Q17.15 12.35 15.65 10.25 17.85 11.65 18.65 13.65 17.5 14.2 16.45 13.1 M41.25 32.95 L41.95 33.9 Q47.9 49.1 32.55 51.8 L30.3 52.05 29.4 52.05 28.55 52.05 26.35 51.8 Q10.45 49.0 17.5 32.95 L19.15 29.55 Q20.25 28.05 20.8 25.55 21.35 23.15 18.8 22.05 16.45 21.05 16.65 19.1 L17.05 17.3 17.6 15.9 Q17.75 16.8 18.05 17.3 18.65 19.4 20.2 18.8 21.5 18.1 22.0 17.3 22.55 16.35 21.75 15.15 18.45 9.4 25.0 6.7 L30.2 4.35 29.85 4.7 Q24.2 10.95 29.75 14.25 36.95 17.55 36.2 24.5 L36.65 26.25 36.8 26.8 Q37.5 28.5 40.0 31.45 L41.25 32.95 M24.7 40.1 Q23.6 40.15 22.7 41.1 L21.95 42.6 21.85 43.65 21.85 43.8 21.95 44.5 Q22.0 45.65 22.7 46.4 23.6 47.55 24.7 47.55 L24.8 47.55 Q25.95 47.45 26.7 46.4 27.3 45.7 27.6 44.6 L27.6 44.3 27.6 43.8 27.6 43.35 27.6 43.3 Q27.5 42.0 26.7 41.2 25.95 40.1 24.7 40.1 M37.5 42.6 L36.7 41.2 Q35.85 40.15 34.6 40.1 33.75 40.15 32.8 41.2 32.1 42.0 31.9 43.3 L31.9 43.35 31.9 43.8 32.0 44.3 32.0 44.6 Q32.2 45.7 32.8 46.4 33.75 47.55 34.6 47.55 L34.9 47.55 Q35.9 47.45 36.7 46.4 37.5 45.65 37.6 44.5 L37.6 43.8 37.5 42.6 M32.2 6.0 Q36.2 6.6 35.05 8.7 34.35 7.3 32.9 7.55 30.45 8.8 32.9 11.75 27.05 8.2 32.2 6.0" fill="#000000" fill-rule="evenodd" stroke="none"/>
    </g>
  </defs>
</svg>
