<?xml version="1.0" encoding="UTF-8" standalone="no"?>
<svg xmlns:ffdec="https://www.free-decompiler.com/flash" xmlns:xlink="http://www.w3.org/1999/xlink" ffdec:objectType="frame" height="56.0px" width="56.0px" xmlns="http://www.w3.org/2000/svg">
  <g transform="matrix(1.0, 0.0, 0.0, 1.0, 0.0, 0.0)">
    <use ffdec:characterId="2" height="56.0" id="back" transform="matrix(1.0, 0.0, 0.0, 1.0, 0.0, 0.0)" width="56.0" xlink:href="#sprite0"/>
    <use ffdec:characterId="3" height="40.75" transform="matrix(1.0, 0.0, 0.0, 1.0, 5.8, 7.9)" width="44.55" xlink:href="#shape1"/>
  </g>
  <defs>
    <g id="sprite0" transform="matrix(1.0, 0.0, 0.0, 1.0, 0.0, 0.0)">
      <use ffdec:characterId="1" height="56.0" transform="matrix(1.0, 0.0, 0.0, 1.0, 0.0, 0.0)" width="56.0" xlink:href="#shape0"/>
    </g>
    <g id="shape0" transform="matrix(1.0, 0.0, 0.0, 1.0, 0.0, 0.0)">
      <path d="M56.0 56.0 L0.0 56.0 0.0 0.0 56.0 0.0 56.0 56.0" fill="#010101" fill-opacity="0.0" fill-rule="evenodd" stroke="none"/>
    </g>
    <g id="shape1" transform="matrix(1.0, 0.0, 0.0, 1.0, -5.8, -7.9)">
      <path d="M48.15 28.45 Q48.15 21.4 42.25 16.45 38.35 13.1 33.3 12.05 33.35 13.85 32.65 14.6 29.65 16.15 23.8 14.55 23.05 13.55 22.9 12.0 19.65 12.7 16.85 14.35 L17.3 14.75 Q17.9 16.65 16.8 19.05 14.15 20.8 12.85 20.85 11.7 20.5 11.0 19.4 7.95 23.4 7.95 28.45 7.95 32.15 9.6 35.25 10.5 34.55 11.25 34.5 14.6 35.4 17.5 40.8 L16.75 42.5 Q21.7 45.4 28.05 45.4 34.15 45.4 38.95 42.75 37.8 41.95 37.45 41.15 37.2 37.55 41.9 33.5 43.75 33.5 46.15 34.95 L46.35 35.55 Q48.15 32.3 48.15 28.45 M49.55 28.9 Q49.55 34.0 46.85 38.15 46.9 39.6 46.4 41.05 44.6 43.3 41.3 44.05 L41.1 43.95 Q35.5 47.85 28.05 47.85 20.75 47.85 15.2 44.1 12.2 44.1 9.85 42.4 8.1 40.1 7.95 37.0 L8.35 36.55 Q6.6 33.0 6.6 28.9 6.6 22.75 10.35 18.05 L9.95 15.7 Q10.9 14.45 13.05 13.25 L15.35 13.6 Q19.25 11.0 24.05 10.25 25.8 9.0 28.05 8.7 30.4 9.0 32.35 10.3 38.55 11.35 43.25 15.5 L43.4 15.6 43.7 15.35 Q46.6 15.45 48.55 17.3 49.8 19.5 49.45 22.3 L48.6 23.1 Q49.55 25.8 49.55 28.9 M22.0 21.0 Q24.9 21.55 27.2 24.25 27.5 28.3 26.6 29.7 23.6 32.0 17.75 29.6 16.85 27.8 16.9 24.7 19.0 21.6 22.0 21.0 M30.95 40.9 Q29.6 42.35 26.95 42.65 24.1 41.2 23.45 40.15 22.9 37.5 26.5 35.05 28.05 35.2 30.15 36.45 31.55 38.95 30.95 40.9 M39.35 23.35 Q38.0 24.85 35.35 25.1 32.5 23.65 31.85 22.6 31.3 19.95 34.85 17.5 36.45 17.65 38.55 18.9 39.95 21.4 39.35 23.35" fill="#000000" fill-rule="evenodd" stroke="none"/>
      <path d="M48.15 28.45 Q48.15 32.3 46.35 35.55 L46.15 34.95 Q43.75 33.5 41.9 33.5 37.2 37.55 37.45 41.15 37.8 41.95 38.95 42.75 34.15 45.4 28.05 45.4 21.7 45.4 16.75 42.5 L17.5 40.8 Q14.6 35.4 11.25 34.5 10.5 34.55 9.6 35.25 7.95 32.15 7.95 28.45 7.95 23.4 11.0 19.4 11.7 20.5 12.85 20.85 14.15 20.8 16.8 19.05 17.9 16.65 17.3 14.75 L16.85 14.35 Q19.65 12.7 22.9 12.0 23.05 13.55 23.8 14.55 29.65 16.15 32.65 14.6 33.35 13.85 33.3 12.05 38.35 13.1 42.25 16.45 48.15 21.4 48.15 28.45 M49.55 28.9 Q49.55 34.0 46.85 38.15 46.9 39.6 46.4 41.05 44.6 43.3 41.3 44.05 L41.1 43.95 Q35.5 47.85 28.05 47.85 20.75 47.85 15.2 44.1 12.2 44.1 9.85 42.4 8.1 40.1 7.95 37.0 L8.35 36.55 Q6.6 33.0 6.6 28.9 6.6 22.75 10.35 18.05 L9.95 15.7 Q10.9 14.45 13.05 13.25 L15.35 13.6 Q19.25 11.0 24.05 10.25 25.8 9.0 28.05 8.7 30.4 9.0 32.35 10.3 38.55 11.35 43.25 15.5 L43.4 15.6 43.7 15.35 Q46.6 15.45 48.55 17.3 49.8 19.5 49.45 22.3 L48.6 23.1 Q49.55 25.8 49.55 28.9 M39.35 23.35 Q39.95 21.4 38.55 18.9 36.45 17.65 34.85 17.5 31.3 19.95 31.85 22.6 32.5 23.65 35.35 25.1 38.0 24.85 39.35 23.35 M30.95 40.9 Q31.55 38.95 30.15 36.45 28.05 35.2 26.5 35.05 22.9 37.5 23.45 40.15 24.1 41.2 26.95 42.65 29.6 42.35 30.95 40.9 M22.0 21.0 Q19.0 21.6 16.9 24.7 16.85 27.8 17.75 29.6 23.6 32.0 26.6 29.7 27.5 28.3 27.2 24.25 24.9 21.55 22.0 21.0 Z" fill="none" stroke="#000000" stroke-linecap="round" stroke-linejoin="round" stroke-opacity="0.2" stroke-width="1.6"/>
      <path d="M48.15 28.45 Q48.15 21.4 42.25 16.45 38.35 13.1 33.3 12.05 33.35 13.85 32.65 14.6 29.65 16.15 23.8 14.55 23.05 13.55 22.9 12.0 19.65 12.7 16.85 14.35 L17.3 14.75 Q17.9 16.65 16.8 19.05 14.15 20.8 12.85 20.85 11.7 20.5 11.0 19.4 7.95 23.4 7.95 28.45 7.95 32.15 9.6 35.25 10.5 34.55 11.25 34.5 14.6 35.4 17.5 40.8 L16.75 42.5 Q21.7 45.4 28.05 45.4 34.15 45.4 38.95 42.75 37.8 41.95 37.45 41.15 37.2 37.55 41.9 33.5 43.75 33.5 46.15 34.95 L46.35 35.55 Q48.15 32.3 48.15 28.45 M49.55 28.9 Q49.55 34.0 46.85 38.15 46.9 39.6 46.4 41.05 44.6 43.3 41.3 44.05 L41.1 43.95 Q35.5 47.85 28.05 47.85 20.75 47.85 15.2 44.1 12.2 44.1 9.85 42.4 8.1 40.1 7.95 37.0 L8.35 36.55 Q6.6 33.0 6.6 28.9 6.6 22.75 10.35 18.05 L9.95 15.7 Q10.9 14.45 13.05 13.25 L15.35 13.6 Q19.25 11.0 24.05 10.25 25.8 9.0 28.05 8.7 30.4 9.0 32.35 10.3 38.55 11.35 43.25 15.5 L43.4 15.6 43.7 15.35 Q46.6 15.45 48.55 17.3 49.8 19.5 49.45 22.3 L48.6 23.1 Q49.55 25.8 49.55 28.9 M22.0 21.0 Q24.9 21.55 27.2 24.25 27.5 28.3 26.6 29.7 23.6 32.0 17.75 29.6 16.85 27.8 16.9 24.7 19.0 21.6 22.0 21.0 M39.35 23.35 Q38.0 24.85 35.35 25.1 32.5 23.65 31.85 22.6 31.3 19.95 34.85 17.5 36.45 17.65 38.55 18.9 39.95 21.4 39.35 23.35 M30.95 40.9 Q29.6 42.35 26.95 42.65 24.1 41.2 23.45 40.15 22.9 37.5 26.5 35.05 28.05 35.2 30.15 36.45 31.55 38.95 30.95 40.9" fill="#000000" fill-rule="evenodd" stroke="none"/>
    </g>
  </defs>
</svg>
