<?xml version="1.0" encoding="UTF-8" standalone="no"?>
<svg xmlns:ffdec="https://www.free-decompiler.com/flash" xmlns:xlink="http://www.w3.org/1999/xlink" ffdec:objectType="frame" height="56.0px" width="56.0px" xmlns="http://www.w3.org/2000/svg">
  <g transform="matrix(1.0, 0.0, 0.0, 1.0, 0.0, 0.0)">
    <use ffdec:characterId="43" ffdec:characterName="42_fla.Symbole126_1" height="56.0" id="back" transform="matrix(1.0, 0.0, 0.0, 1.0, 0.0, 0.0)" width="56.0" xlink:href="#sprite0"/>
    <use ffdec:characterId="45" height="52.55" id="back" transform="matrix(1.0, 0.0, 0.0, 1.0, 0.4, 2.05)" width="55.4" xlink:href="#sprite42"/>
    <use ffdec:characterId="47" height="51.05" id="up" transform="matrix(1.0, 0.0, 0.0, 1.0, 1.15, 2.8)" width="53.9" xlink:href="#sprite43"/>
  </g>
  <defs>
    <g id="sprite0" transform="matrix(1.0, 0.0, 0.0, 1.0, 0.0, 0.0)">
      <use ffdec:characterId="42" ffdec:characterName="42_fla.Symbole123_2" height="56.0" id="back" transform="matrix(1.0, 0.0, 0.0, 1.0, 0.0, 0.0)" width="56.0" xlink:href="#sprite1"/>
    </g>
    <g id="sprite1" transform="matrix(1.0, 0.0, 0.0, 1.0, 0.0, 0.0)">
      <use ffdec:characterId="41" ffdec:characterName="42_fla.Symbole120_3" height="56.0" id="back" transform="matrix(1.0, 0.0, 0.0, 1.0, 0.0, 0.0)" width="56.0" xlink:href="#sprite2"/>
    </g>
    <g id="sprite2" transform="matrix(1.0, 0.0, 0.0, 1.0, 0.0, 0.0)">
      <use ffdec:characterId="40" ffdec:characterName="42_fla.Symbole117_4" height="56.0" id="back" transform="matrix(1.0, 0.0, 0.0, 1.0, 0.0, 0.0)" width="56.0" xlink:href="#sprite3"/>
    </g>
    <g id="sprite3" transform="matrix(1.0, 0.0, 0.0, 1.0, 0.0, 0.0)">
      <use ffdec:characterId="39" ffdec:characterName="42_fla.Symbole114_5" height="56.0" id="back" transform="matrix(1.0, 0.0, 0.0, 1.0, 0.0, 0.0)" width="56.0" xlink:href="#sprite4"/>
    </g>
    <g id="sprite4" transform="matrix(1.0, 0.0, 0.0, 1.0, 0.0, 0.0)">
      <use ffdec:characterId="38" ffdec:characterName="42_fla.Symbole111_6" height="56.0" id="back" transform="matrix(1.0, 0.0, 0.0, 1.0, 0.0, 0.0)" width="56.0" xlink:href="#sprite5"/>
    </g>
    <g id="sprite5" transform="matrix(1.0, 0.0, 0.0, 1.0, 0.0, 0.0)">
      <use ffdec:characterId="37" ffdec:characterName="42_fla.Symbole108_7" height="56.0" id="back" transform="matrix(1.0, 0.0, 0.0, 1.0, 0.0, 0.0)" width="56.0" xlink:href="#sprite6"/>
    </g>
    <g id="sprite6" transform="matrix(1.0, 0.0, 0.0, 1.0, 0.0, 0.0)">
      <use ffdec:characterId="36" ffdec:characterName="42_fla.Symbole105_8" height="56.0" id="back" transform="matrix(1.0, 0.0, 0.0, 1.0, 0.0, 0.0)" width="56.0" xlink:href="#sprite7"/>
    </g>
    <g id="sprite7" transform="matrix(1.0, 0.0, 0.0, 1.0, 0.0, 0.0)">
      <use ffdec:characterId="35" ffdec:characterName="42_fla.Symbole102_9" height="56.0" id="back" transform="matrix(1.0, 0.0, 0.0, 1.0, 0.0, 0.0)" width="56.0" xlink:href="#sprite8"/>
    </g>
    <g id="sprite8" transform="matrix(1.0, 0.0, 0.0, 1.0, 0.0, 0.0)">
      <use ffdec:characterId="34" ffdec:characterName="42_fla.Symbole99_10" height="56.0" id="back" transform="matrix(1.0, 0.0, 0.0, 1.0, 0.0, 0.0)" width="56.0" xlink:href="#sprite9"/>
    </g>
    <g id="sprite9" transform="matrix(1.0, 0.0, 0.0, 1.0, 0.0, 0.0)">
      <use ffdec:characterId="33" ffdec:characterName="42_fla.Symbole96_11" height="56.0" id="back" transform="matrix(1.0, 0.0, 0.0, 1.0, 0.0, 0.0)" width="56.0" xlink:href="#sprite10"/>
    </g>
    <g id="sprite10" transform="matrix(1.0, 0.0, 0.0, 1.0, 0.0, 0.0)">
      <use ffdec:characterId="32" ffdec:characterName="42_fla.Symbole93_12" height="56.0" id="back" transform="matrix(1.0, 0.0, 0.0, 1.0, 0.0, 0.0)" width="56.0" xlink:href="#sprite11"/>
    </g>
    <g id="sprite11" transform="matrix(1.0, 0.0, 0.0, 1.0, 0.0, 0.0)">
      <use ffdec:characterId="31" ffdec:characterName="42_fla.Symbole90_13" height="56.0" id="back" transform="matrix(1.0, 0.0, 0.0, 1.0, 0.0, 0.0)" width="56.0" xlink:href="#sprite12"/>
    </g>
    <g id="sprite12" transform="matrix(1.0, 0.0, 0.0, 1.0, 0.0, 0.0)">
      <use ffdec:characterId="30" ffdec:characterName="42_fla.Symbole87_14" height="56.0" id="back" transform="matrix(1.0, 0.0, 0.0, 1.0, 0.0, 0.0)" width="56.0" xlink:href="#sprite13"/>
    </g>
    <g id="sprite13" transform="matrix(1.0, 0.0, 0.0, 1.0, 0.0, 0.0)">
      <use ffdec:characterId="29" ffdec:characterName="42_fla.Symbole84_15" height="56.0" id="back" transform="matrix(1.0, 0.0, 0.0, 1.0, 0.0, 0.0)" width="56.0" xlink:href="#sprite14"/>
    </g>
    <g id="sprite14" transform="matrix(1.0, 0.0, 0.0, 1.0, 0.0, 0.0)">
      <use ffdec:characterId="28" ffdec:characterName="42_fla.Symbole81_16" height="56.0" id="back" transform="matrix(1.0, 0.0, 0.0, 1.0, 0.0, 0.0)" width="56.0" xlink:href="#sprite15"/>
    </g>
    <g id="sprite15" transform="matrix(1.0, 0.0, 0.0, 1.0, 0.0, 0.0)">
      <use ffdec:characterId="27" ffdec:characterName="42_fla.Symbole78_17" height="56.0" id="back" transform="matrix(1.0, 0.0, 0.0, 1.0, 0.0, 0.0)" width="56.0" xlink:href="#sprite16"/>
    </g>
    <g id="sprite16" transform="matrix(1.0, 0.0, 0.0, 1.0, 0.0, 0.0)">
      <use ffdec:characterId="26" ffdec:characterName="42_fla.Symbole75_18" height="56.0" id="back" transform="matrix(1.0, 0.0, 0.0, 1.0, 0.0, 0.0)" width="56.0" xlink:href="#sprite17"/>
    </g>
    <g id="sprite17" transform="matrix(1.0, 0.0, 0.0, 1.0, 0.0, 0.0)">
      <use ffdec:characterId="25" ffdec:characterName="42_fla.Symbole72_19" height="56.0" id="back" transform="matrix(1.0, 0.0, 0.0, 1.0, 0.0, 0.0)" width="56.0" xlink:href="#sprite18"/>
    </g>
    <g id="sprite18" transform="matrix(1.0, 0.0, 0.0, 1.0, 0.0, 0.0)">
      <use ffdec:characterId="24" ffdec:characterName="42_fla.Symbole69_20" height="56.0" id="back" transform="matrix(1.0, 0.0, 0.0, 1.0, 0.0, 0.0)" width="56.0" xlink:href="#sprite19"/>
    </g>
    <g id="sprite19" transform="matrix(1.0, 0.0, 0.0, 1.0, 0.0, 0.0)">
      <use ffdec:characterId="23" ffdec:characterName="42_fla.Symbole66_21" height="56.0" id="back" transform="matrix(1.0, 0.0, 0.0, 1.0, 0.0, 0.0)" width="56.0" xlink:href="#sprite20"/>
    </g>
    <g id="sprite20" transform="matrix(1.0, 0.0, 0.0, 1.0, 0.0, 0.0)">
      <use ffdec:characterId="22" ffdec:characterName="42_fla.Symbole63_22" height="56.0" id="back" transform="matrix(1.0, 0.0, 0.0, 1.0, 0.0, 0.0)" width="56.0" xlink:href="#sprite21"/>
    </g>
    <g id="sprite21" transform="matrix(1.0, 0.0, 0.0, 1.0, 0.0, 0.0)">
      <use ffdec:characterId="21" ffdec:characterName="42_fla.Symbole60_23" height="56.0" id="back" transform="matrix(1.0, 0.0, 0.0, 1.0, 0.0, 0.0)" width="56.0" xlink:href="#sprite22"/>
    </g>
    <g id="sprite22" transform="matrix(1.0, 0.0, 0.0, 1.0, 0.0, 0.0)">
      <use ffdec:characterId="20" ffdec:characterName="42_fla.Symbole57_24" height="56.0" id="back" transform="matrix(1.0, 0.0, 0.0, 1.0, 0.0, 0.0)" width="56.0" xlink:href="#sprite23"/>
    </g>
    <g id="sprite23" transform="matrix(1.0, 0.0, 0.0, 1.0, 0.0, 0.0)">
      <use ffdec:characterId="19" ffdec:characterName="42_fla.Symbole54_25" height="56.0" id="back" transform="matrix(1.0, 0.0, 0.0, 1.0, 0.0, 0.0)" width="56.0" xlink:href="#sprite24"/>
    </g>
    <g id="sprite24" transform="matrix(1.0, 0.0, 0.0, 1.0, 0.0, 0.0)">
      <use ffdec:characterId="18" ffdec:characterName="42_fla.Symbole51_26" height="56.0" id="back" transform="matrix(1.0, 0.0, 0.0, 1.0, 0.0, 0.0)" width="56.0" xlink:href="#sprite25"/>
    </g>
    <g id="sprite25" transform="matrix(1.0, 0.0, 0.0, 1.0, 0.0, 0.0)">
      <use ffdec:characterId="17" ffdec:characterName="42_fla.Symbole48_27" height="56.0" id="back" transform="matrix(1.0, 0.0, 0.0, 1.0, 0.0, 0.0)" width="56.0" xlink:href="#sprite26"/>
    </g>
    <g id="sprite26" transform="matrix(1.0, 0.0, 0.0, 1.0, 0.0, 0.0)">
      <use ffdec:characterId="16" ffdec:characterName="42_fla.Symbole45_28" height="56.0" id="back" transform="matrix(1.0, 0.0, 0.0, 1.0, 0.0, 0.0)" width="56.0" xlink:href="#sprite27"/>
    </g>
    <g id="sprite27" transform="matrix(1.0, 0.0, 0.0, 1.0, 0.0, 0.0)">
      <use ffdec:characterId="15" ffdec:characterName="42_fla.Symbole42_29" height="56.0" id="back" transform="matrix(1.0, 0.0, 0.0, 1.0, 0.0, 0.0)" width="56.0" xlink:href="#sprite28"/>
    </g>
    <g id="sprite28" transform="matrix(1.0, 0.0, 0.0, 1.0, 0.0, 0.0)">
      <use ffdec:characterId="14" ffdec:characterName="42_fla.Symbole39_30" height="56.0" id="back" transform="matrix(1.0, 0.0, 0.0, 1.0, 0.0, 0.0)" width="56.0" xlink:href="#sprite29"/>
    </g>
    <g id="sprite29" transform="matrix(1.0, 0.0, 0.0, 1.0, 0.0, 0.0)">
      <use ffdec:characterId="13" ffdec:characterName="42_fla.Symbole36_31" height="56.0" id="back" transform="matrix(1.0, 0.0, 0.0, 1.0, 0.0, 0.0)" width="56.0" xlink:href="#sprite30"/>
    </g>
    <g id="sprite30" transform="matrix(1.0, 0.0, 0.0, 1.0, 0.0, 0.0)">
      <use ffdec:characterId="12" ffdec:characterName="42_fla.Symbole33_32" height="56.0" id="back" transform="matrix(1.0, 0.0, 0.0, 1.0, 0.0, 0.0)" width="56.0" xlink:href="#sprite31"/>
    </g>
    <g id="sprite31" transform="matrix(1.0, 0.0, 0.0, 1.0, 0.0, 0.0)">
      <use ffdec:characterId="11" ffdec:characterName="42_fla.Symbole30_33" height="56.0" id="back" transform="matrix(1.0, 0.0, 0.0, 1.0, 0.0, 0.0)" width="56.0" xlink:href="#sprite32"/>
    </g>
    <g id="sprite32" transform="matrix(1.0, 0.0, 0.0, 1.0, 0.0, 0.0)">
      <use ffdec:characterId="10" ffdec:characterName="42_fla.Symbole27_34" height="56.0" id="back" transform="matrix(1.0, 0.0, 0.0, 1.0, 0.0, 0.0)" width="56.0" xlink:href="#sprite33"/>
    </g>
    <g id="sprite33" transform="matrix(1.0, 0.0, 0.0, 1.0, 0.0, 0.0)">
      <use ffdec:characterId="9" ffdec:characterName="42_fla.Symbole24_35" height="56.0" id="back" transform="matrix(1.0, 0.0, 0.0, 1.0, 0.0, 0.0)" width="56.0" xlink:href="#sprite34"/>
    </g>
    <g id="sprite34" transform="matrix(1.0, 0.0, 0.0, 1.0, 0.0, 0.0)">
      <use ffdec:characterId="8" ffdec:characterName="42_fla.Symbole21_36" height="56.0" id="back" transform="matrix(1.0, 0.0, 0.0, 1.0, 0.0, 0.0)" width="56.0" xlink:href="#sprite35"/>
    </g>
    <g id="sprite35" transform="matrix(1.0, 0.0, 0.0, 1.0, 0.0, 0.0)">
      <use ffdec:characterId="7" ffdec:characterName="42_fla.Symbole18_37" height="56.0" id="back" transform="matrix(1.0, 0.0, 0.0, 1.0, 0.0, 0.0)" width="56.0" xlink:href="#sprite36"/>
    </g>
    <g id="sprite36" transform="matrix(1.0, 0.0, 0.0, 1.0, 0.0, 0.0)">
      <use ffdec:characterId="6" ffdec:characterName="42_fla.Symbole15_38" height="56.0" id="back" transform="matrix(1.0, 0.0, 0.0, 1.0, 0.0, 0.0)" width="56.0" xlink:href="#sprite37"/>
    </g>
    <g id="sprite37" transform="matrix(1.0, 0.0, 0.0, 1.0, 0.0, 0.0)">
      <use ffdec:characterId="5" ffdec:characterName="42_fla.Symbole12_39" height="56.0" id="back" transform="matrix(1.0, 0.0, 0.0, 1.0, 0.0, 0.0)" width="56.0" xlink:href="#sprite38"/>
    </g>
    <g id="sprite38" transform="matrix(1.0, 0.0, 0.0, 1.0, 0.0, 0.0)">
      <use ffdec:characterId="4" ffdec:characterName="42_fla.Symbole9_40" height="56.0" id="back" transform="matrix(1.0, 0.0, 0.0, 1.0, 0.0, 0.0)" width="56.0" xlink:href="#sprite39"/>
    </g>
    <g id="sprite39" transform="matrix(1.0, 0.0, 0.0, 1.0, 0.0, 0.0)">
      <use ffdec:characterId="3" ffdec:characterName="42_fla.Symbole6_41" height="56.0" id="back" transform="matrix(1.0, 0.0, 0.0, 1.0, 0.0, 0.0)" width="56.0" xlink:href="#sprite40"/>
    </g>
    <g id="sprite40" transform="matrix(1.0, 0.0, 0.0, 1.0, 0.0, 0.0)">
      <use ffdec:characterId="2" height="56.0" id="back" transform="matrix(1.0, 0.0, 0.0, 1.0, 0.0, 0.0)" width="56.0" xlink:href="#sprite41"/>
    </g>
    <g id="sprite41" transform="matrix(1.0, 0.0, 0.0, 1.0, 0.0, 0.0)">
      <use ffdec:characterId="1" height="56.0" transform="matrix(1.0, 0.0, 0.0, 1.0, 0.0, 0.0)" width="56.0" xlink:href="#shape0"/>
    </g>
    <g id="shape0" transform="matrix(1.0, 0.0, 0.0, 1.0, 0.0, 0.0)">
      <path d="M56.0 56.0 L0.0 56.0 0.0 0.0 56.0 0.0 56.0 56.0" fill="#010101" fill-opacity="0.0" fill-rule="evenodd" stroke="none"/>
    </g>
    <g id="sprite42" transform="matrix(1.0, 0.0, 0.0, 1.0, 0.75, 0.75)">
      <use ffdec:characterId="44" height="52.55" transform="matrix(1.0, 0.0, 0.0, 1.0, -0.75, -0.75)" width="55.4" xlink:href="#shape1"/>
    </g>
    <g id="shape1" transform="matrix(1.0, 0.0, 0.0, 1.0, 0.75, 0.75)">
      <path d="M46.4 15.55 Q46.55 17.05 45.5 18.3 44.25 19.45 42.5 19.15 41.2 18.95 40.9 17.7 40.45 16.85 40.75 16.65 41.65 15.9 41.45 15.05 41.35 14.45 40.9 14.2 40.35 14.05 39.9 14.2 38.85 14.2 38.55 15.25 38.2 16.1 38.55 17.2 38.65 17.85 39.9 21.05 40.75 23.25 40.55 25.0 L40.45 25.5 Q40.05 27.2 37.9 28.5 L37.1 28.9 36.6 29.35 Q36.4 30.05 37.05 30.4 L38.85 30.5 40.3 29.2 42.05 26.1 42.5 25.5 43.35 24.8 Q44.45 23.9 45.5 23.7 L48.9 23.8 Q50.5 24.2 51.8 25.5 L52.35 26.1 Q54.4 28.65 53.75 31.8 53.25 34.75 50.9 35.9 L46.4 35.8 Q44.9 35.0 44.35 33.7 44.05 32.85 44.35 31.7 44.65 30.7 45.55 30.4 46.4 30.05 47.85 30.9 48.7 31.5 49.6 30.7 50.5 29.95 50.45 28.9 50.3 27.9 49.75 27.2 49.0 26.4 48.05 26.15 L46.1 26.3 Q43.6 27.35 42.5 30.7 L42.2 31.95 40.3 38.2 39.9 39.1 Q39.15 41.05 37.5 42.3 36.2 43.05 34.05 43.2 L31.1 43.05 29.25 42.6 Q28.9 42.5 28.85 42.8 28.7 43.05 28.85 43.2 L29.5 43.9 Q31.0 45.2 31.0 47.05 30.85 48.6 29.8 49.95 28.65 51.05 26.95 51.05 25.2 51.05 24.05 49.95 22.85 48.6 22.85 47.05 22.85 45.2 24.35 43.9 L25.05 43.2 25.05 42.8 Q24.95 42.5 24.6 42.6 L22.8 43.05 19.85 43.2 Q17.65 43.05 16.5 42.3 14.7 41.05 14.0 39.1 L13.7 38.2 11.8 31.95 11.35 30.7 Q10.1 27.35 7.75 26.3 L5.8 26.15 Q4.85 26.4 4.25 27.2 3.55 27.9 3.4 28.9 3.35 29.95 4.25 30.7 5.1 31.5 6.15 30.9 7.45 30.05 8.35 30.4 9.2 30.7 9.65 31.7 9.8 32.85 9.5 33.7 8.95 35.0 7.55 35.8 L2.95 35.9 Q0.65 34.75 0.15 31.8 -0.55 28.65 1.65 26.1 L2.1 25.5 Q4.85 22.8 8.35 23.7 9.4 23.9 10.5 24.8 10.9 25.0 11.35 25.5 L11.8 26.1 13.55 29.2 Q14.15 30.05 15.1 30.5 L16.8 30.4 Q17.35 30.05 17.25 29.35 L16.8 28.9 16.0 28.5 Q13.8 27.2 13.4 25.5 L13.3 25.0 Q13.1 23.25 14.0 21.05 L15.45 17.2 Q15.7 16.1 15.3 15.25 15.0 14.2 13.95 14.2 13.5 14.05 13.1 14.2 12.5 14.45 12.4 15.05 12.2 15.9 13.1 16.65 13.3 16.85 13.1 17.7 12.65 18.95 11.4 19.15 9.65 19.45 8.5 18.3 7.3 17.05 7.45 15.55 7.55 14.05 8.75 12.75 L9.65 11.8 Q11.85 10.1 14.7 10.55 16.8 10.8 18.05 12.75 L18.35 13.55 Q18.9 14.9 18.65 17.2 L18.25 20.9 Q18.25 21.75 18.65 22.6 19.1 24.1 20.65 24.4 22.4 24.85 23.45 23.35 24.75 21.3 23.7 18.5 22.55 15.75 22.4 14.8 21.15 11.15 23.25 7.75 L25.05 4.85 Q26.35 2.25 26.75 0.35 26.75 0.0 26.95 0.0 L27.2 0.35 Q27.55 2.25 28.9 4.85 L30.65 7.75 Q32.6 11.15 31.45 14.8 L30.2 18.5 Q29.1 21.3 30.55 23.35 31.45 24.85 33.2 24.4 34.65 24.1 35.3 22.6 L35.6 20.9 35.3 17.2 Q34.95 14.9 35.5 13.55 L35.95 12.75 Q37.05 10.8 39.15 10.55 42.0 10.1 44.2 11.8 L45.25 12.75 Q46.35 14.05 46.4 15.55 Z" fill="none" stroke="#000000" stroke-linecap="round" stroke-linejoin="round" stroke-opacity="0.2" stroke-width="1.5"/>
    </g>
    <g id="sprite43" transform="matrix(1.0, 0.0, 0.0, 1.0, 0.0, 0.0)">
      <use ffdec:characterId="46" height="51.05" transform="matrix(1.0, 0.0, 0.0, 1.0, 0.0, 0.0)" width="53.9" xlink:href="#shape2"/>
    </g>
    <g id="shape2" transform="matrix(1.0, 0.0, 0.0, 1.0, 0.0, 0.0)">
      <path d="M46.4 15.55 Q46.55 17.05 45.5 18.3 44.25 19.45 42.5 19.15 41.2 18.95 40.9 17.7 40.45 16.85 40.75 16.65 41.65 15.9 41.45 15.05 41.35 14.45 40.9 14.2 40.35 14.05 39.9 14.2 38.85 14.2 38.55 15.25 38.2 16.1 38.55 17.2 38.65 17.85 39.9 21.05 40.75 23.25 40.55 25.0 L40.45 25.5 Q40.05 27.2 37.9 28.5 L37.1 28.9 36.6 29.35 Q36.4 30.05 37.05 30.4 L38.85 30.5 40.3 29.2 42.05 26.1 42.5 25.5 43.35 24.8 Q44.45 23.9 45.5 23.7 L48.9 23.8 Q50.5 24.2 51.8 25.5 L52.35 26.1 Q54.4 28.65 53.75 31.8 53.25 34.75 50.9 35.9 L46.4 35.8 Q44.9 35.0 44.35 33.7 44.05 32.85 44.35 31.7 44.65 30.7 45.55 30.4 46.4 30.05 47.85 30.9 48.7 31.5 49.6 30.7 50.5 29.95 50.45 28.9 50.3 27.9 49.75 27.2 49.0 26.4 48.05 26.15 L46.1 26.3 Q43.6 27.35 42.5 30.7 L42.2 31.95 40.3 38.2 39.9 39.1 Q39.15 41.05 37.5 42.3 36.2 43.05 34.05 43.2 L31.1 43.05 29.25 42.6 Q28.9 42.5 28.85 42.8 28.7 43.05 28.85 43.2 L29.5 43.9 Q31.0 45.2 31.0 47.05 30.85 48.6 29.8 49.95 28.65 51.05 26.95 51.05 25.2 51.05 24.05 49.95 22.85 48.6 22.85 47.05 22.85 45.2 24.35 43.9 L25.05 43.2 25.05 42.8 Q24.95 42.5 24.6 42.6 L22.8 43.05 19.85 43.2 Q17.65 43.05 16.5 42.3 14.7 41.05 14.0 39.1 L13.7 38.2 11.8 31.95 11.35 30.7 Q10.1 27.35 7.75 26.3 L5.8 26.15 Q4.85 26.4 4.25 27.2 3.55 27.9 3.4 28.9 3.35 29.95 4.25 30.7 5.1 31.5 6.15 30.9 7.45 30.05 8.35 30.4 9.2 30.7 9.65 31.7 9.8 32.85 9.5 33.7 8.95 35.0 7.55 35.8 L2.95 35.9 Q0.65 34.75 0.15 31.8 -0.55 28.65 1.65 26.1 L2.1 25.5 Q4.85 22.8 8.35 23.7 9.4 23.9 10.5 24.8 10.9 25.0 11.35 25.5 L11.8 26.1 13.55 29.2 Q14.15 30.05 15.1 30.5 L16.8 30.4 Q17.35 30.05 17.25 29.35 L16.8 28.9 16.0 28.5 Q13.8 27.2 13.4 25.5 L13.3 25.0 Q13.1 23.25 14.0 21.05 L15.45 17.2 Q15.7 16.1 15.3 15.25 15.0 14.2 13.95 14.2 13.5 14.05 13.1 14.2 12.5 14.45 12.4 15.05 12.2 15.9 13.1 16.65 13.3 16.85 13.1 17.7 12.65 18.95 11.4 19.15 9.65 19.45 8.5 18.3 7.3 17.05 7.45 15.55 7.55 14.05 8.75 12.75 L9.65 11.8 Q11.85 10.1 14.7 10.55 16.8 10.8 18.05 12.75 L18.35 13.55 Q18.9 14.9 18.65 17.2 L18.25 20.9 Q18.25 21.75 18.65 22.6 19.1 24.1 20.65 24.4 22.4 24.85 23.45 23.35 24.75 21.3 23.7 18.5 22.55 15.75 22.4 14.8 21.15 11.15 23.25 7.75 L25.05 4.85 Q26.35 2.25 26.75 0.35 26.75 0.0 26.95 0.0 L27.2 0.35 Q27.55 2.25 28.9 4.85 L30.65 7.75 Q32.6 11.15 31.45 14.8 L30.2 18.5 Q29.1 21.3 30.55 23.35 31.45 24.85 33.2 24.4 34.65 24.1 35.3 22.6 L35.6 20.9 35.3 17.2 Q34.95 14.9 35.5 13.55 L35.95 12.75 Q37.05 10.8 39.15 10.55 42.0 10.1 44.2 11.8 L45.25 12.75 Q46.35 14.05 46.4 15.55" fill="#000000" fill-rule="evenodd" stroke="none"/>
    </g>
  </defs>
</svg>
