<?xml version="1.0" encoding="UTF-8" standalone="no"?>
<svg xmlns:ffdec="https://www.free-decompiler.com/flash" xmlns:xlink="http://www.w3.org/1999/xlink" ffdec:objectType="frame" height="56.0px" width="56.0px" xmlns="http://www.w3.org/2000/svg">
  <g transform="matrix(1.0, 0.0, 0.0, 1.0, 0.0, 0.0)">
    <use ffdec:characterId="2" height="56.0" id="back" transform="matrix(1.0, 0.0, 0.0, 1.0, 0.0, 0.0)" width="56.0" xlink:href="#sprite0"/>
    <use ffdec:characterId="3" height="42.6" transform="matrix(1.0, 0.0, 0.0, 1.0, 4.9, 7.8)" width="46.4" xlink:href="#shape1"/>
  </g>
  <defs>
    <g id="sprite0" transform="matrix(1.0, 0.0, 0.0, 1.0, 0.0, 0.0)">
      <use ffdec:characterId="1" height="56.0" transform="matrix(1.0, 0.0, 0.0, 1.0, 0.0, 0.0)" width="56.0" xlink:href="#shape0"/>
    </g>
    <g id="shape0" transform="matrix(1.0, 0.0, 0.0, 1.0, 0.0, 0.0)">
      <path d="M56.0 56.0 L0.0 56.0 0.0 0.0 56.0 0.0 56.0 56.0" fill="#010101" fill-opacity="0.0" fill-rule="evenodd" stroke="none"/>
    </g>
    <g id="shape1" transform="matrix(1.0, 0.0, 0.0, 1.0, -4.9, -7.8)">
      <path d="M32.05 11.15 Q33.0 9.5 34.95 8.85 37.05 8.15 39.0 9.25 41.05 10.25 41.6 12.35 42.4 14.55 41.45 16.4 L41.6 16.65 Q44.35 19.55 45.6 23.65 L45.6 24.05 Q46.55 24.05 47.6 24.55 49.55 25.6 50.25 27.7 50.95 29.95 49.85 31.85 48.85 33.9 46.65 34.6 L45.5 34.8 45.4 35.35 44.35 37.75 42.25 40.85 41.95 41.1 42.2 41.95 Q42.75 44.1 41.75 46.05 40.75 48.0 38.65 48.65 36.55 49.35 34.45 48.35 L32.8 46.9 Q32.55 46.9 32.5 47.0 L25.1 47.4 24.55 47.2 Q23.5 48.8 21.65 49.3 19.65 50.05 17.55 48.95 15.55 47.95 14.95 45.75 14.3 43.95 15.05 42.2 L14.75 42.0 Q12.15 39.4 10.7 35.75 L10.7 35.35 Q9.6 35.2 8.6 34.6 6.65 33.65 6.0 31.5 5.25 29.25 6.25 27.4 7.35 25.4 9.5 24.7 L10.2 24.45 10.2 24.05 Q10.7 22.3 11.7 20.5 12.85 18.1 14.55 16.35 L14.95 16.15 14.8 15.7 Q14.1 13.6 15.2 11.65 16.2 9.8 18.3 9.05 20.5 8.4 22.5 9.35 23.6 10.0 24.45 11.0 L24.75 10.95 Q28.45 10.25 31.75 11.0 L32.05 11.15 M39.35 18.75 L38.15 19.25 Q36.05 19.9 34.0 18.8 32.05 17.8 31.4 15.65 31.1 14.75 31.1 14.0 L25.4 13.85 Q25.45 15.4 24.75 16.65 23.75 18.6 21.55 19.25 19.45 20.0 17.45 19.0 L16.7 18.45 Q15.25 20.0 14.3 21.85 13.5 23.3 13.1 24.75 L13.6 25.15 Q15.55 26.15 16.2 28.25 16.9 30.4 15.9 32.3 15.05 33.95 13.5 34.6 14.75 37.75 16.9 39.85 17.55 39.3 18.5 38.95 20.7 38.45 22.65 39.4 24.55 40.55 25.25 42.5 L25.45 44.35 31.6 44.1 Q31.4 42.5 32.25 41.0 33.2 39.1 35.35 38.35 37.55 37.75 39.55 38.75 L39.85 38.95 41.6 36.25 42.55 34.25 42.55 34.15 Q40.6 33.15 39.85 31.05 39.2 28.9 40.3 26.85 41.1 25.35 42.7 24.55 L42.7 24.45 Q41.6 21.15 39.45 18.75 L39.35 18.75 M32.7 24.7 Q32.35 25.0 32.0 24.9 L31.15 24.55 Q30.9 24.25 31.05 23.8 L31.4 23.1 32.0 22.6 Q30.45 21.8 28.8 21.55 L28.8 22.5 28.5 23.25 27.8 23.55 Q27.35 23.55 27.05 23.25 26.75 22.9 26.75 22.5 L26.75 21.55 Q24.95 21.8 23.5 22.8 L23.95 23.1 24.25 23.8 23.95 24.55 23.2 24.9 22.5 24.7 22.05 24.2 Q20.6 25.85 20.25 27.95 L21.2 27.95 21.85 28.25 22.15 28.9 21.85 29.6 21.2 29.9 20.25 29.9 Q20.4 32.2 21.85 33.95 L22.5 33.3 Q22.8 33.0 23.2 33.0 L23.95 33.3 24.25 34.1 23.95 34.8 23.3 35.4 Q24.9 36.55 26.75 36.8 L26.75 36.05 Q26.75 35.65 27.05 35.35 27.35 34.95 27.8 34.95 28.2 34.95 28.5 35.35 L28.8 36.05 28.8 36.8 Q30.6 36.7 32.1 35.55 L31.4 34.9 Q31.1 34.6 31.05 34.15 30.9 33.75 31.15 33.45 31.55 33.15 32.0 33.0 32.35 33.0 32.7 33.3 L33.65 34.15 Q35.3 32.3 35.6 29.9 L34.65 29.9 33.95 29.6 Q33.65 29.25 33.65 28.9 33.65 28.45 33.95 28.25 34.2 27.95 34.65 27.95 L35.5 27.95 Q35.1 25.6 33.5 23.95 L32.7 24.7 M35.3 21.1 L35.6 21.65 35.3 22.35 34.65 22.9 Q36.6 25.15 37.05 27.95 L38.15 27.95 Q38.4 27.95 38.7 28.25 L39.0 28.9 38.7 29.6 38.15 29.9 37.05 29.9 Q36.85 32.95 34.75 35.2 L35.3 35.65 Q35.6 35.85 35.6 36.35 L35.3 37.05 Q34.95 37.45 34.65 37.45 L33.95 37.05 33.25 36.7 Q31.3 38.15 28.8 38.35 L28.8 39.45 28.5 40.1 Q28.2 40.55 27.8 40.55 L27.05 40.1 Q26.75 39.85 26.75 39.45 L26.75 38.35 Q24.15 38.15 22.15 36.35 L21.35 37.05 20.6 37.45 Q20.2 37.45 19.95 37.05 19.65 36.7 19.65 36.35 19.65 35.85 19.95 35.65 L20.7 34.9 Q18.8 32.8 18.7 29.9 L17.65 29.9 Q17.35 29.9 17.05 29.6 16.7 29.25 16.7 28.9 16.7 28.45 17.05 28.25 17.35 27.95 17.65 27.95 L18.8 27.95 Q19.1 25.2 20.9 23.25 L19.95 22.35 19.65 21.8 Q19.65 21.35 19.95 21.1 20.2 20.7 20.6 20.65 20.95 20.5 21.35 20.85 L22.35 21.8 Q24.25 20.2 26.75 20.0 L26.75 19.05 Q26.75 18.6 27.05 18.3 27.35 18.05 27.8 18.05 L28.5 18.3 28.8 19.05 28.8 20.0 Q31.15 20.2 33.2 21.55 L33.95 20.95 Q34.2 20.65 34.65 20.65 34.95 20.65 35.3 21.1" fill="#000000" fill-rule="evenodd" stroke="none"/>
      <path d="M32.05 11.15 L31.75 11.0 Q28.45 10.25 24.75 10.95 L24.45 11.0 Q23.6 10.0 22.5 9.35 20.5 8.4 18.3 9.05 16.2 9.8 15.2 11.65 14.1 13.6 14.8 15.7 L14.95 16.15 14.55 16.35 Q12.85 18.1 11.7 20.5 10.7 22.3 10.2 24.05 L10.2 24.45 9.5 24.7 Q7.35 25.4 6.25 27.4 5.25 29.25 6.0 31.5 6.65 33.65 8.6 34.6 9.6 35.2 10.7 35.35 L10.7 35.75 Q12.15 39.4 14.75 42.0 L15.05 42.2 Q14.3 43.95 14.95 45.75 15.55 47.95 17.55 48.95 19.65 50.05 21.65 49.3 23.5 48.8 24.55 47.2 L25.1 47.4 32.5 47.0 Q32.55 46.9 32.8 46.9 L34.45 48.35 Q36.55 49.35 38.65 48.65 40.75 48.0 41.75 46.05 42.75 44.1 42.2 41.95 L41.95 41.1 42.25 40.85 44.35 37.75 45.4 35.35 45.5 34.8 46.65 34.6 Q48.85 33.9 49.85 31.85 50.95 29.95 50.25 27.7 49.55 25.6 47.6 24.55 46.55 24.05 45.6 24.05 L45.6 23.65 Q44.35 19.55 41.6 16.65 L41.45 16.4 Q42.4 14.55 41.6 12.35 41.05 10.25 39.0 9.25 37.05 8.15 34.95 8.85 33.0 9.5 32.05 11.15 M39.35 18.75 L38.15 19.25 Q36.05 19.9 34.0 18.8 32.05 17.8 31.4 15.65 31.1 14.75 31.1 14.0 L25.4 13.85 Q25.45 15.4 24.75 16.65 23.75 18.6 21.55 19.25 19.45 20.0 17.45 19.0 L16.7 18.45 Q15.25 20.0 14.3 21.85 13.5 23.3 13.1 24.75 L13.6 25.15 Q15.55 26.15 16.2 28.25 16.9 30.4 15.9 32.3 15.05 33.95 13.5 34.6 14.75 37.75 16.9 39.85 17.55 39.3 18.5 38.95 20.7 38.45 22.65 39.4 24.55 40.55 25.25 42.5 L25.45 44.35 31.6 44.1 Q31.4 42.5 32.25 41.0 33.2 39.1 35.35 38.35 37.55 37.75 39.55 38.75 L39.85 38.95 41.6 36.25 42.55 34.25 42.55 34.15 Q40.6 33.15 39.85 31.05 39.2 28.9 40.3 26.85 41.1 25.35 42.7 24.55 L42.7 24.45 Q41.6 21.15 39.45 18.75 L39.35 18.75 M35.3 21.1 Q34.95 20.65 34.65 20.65 34.2 20.65 33.95 20.95 L33.2 21.55 Q31.15 20.2 28.8 20.0 L28.8 19.05 28.5 18.3 27.8 18.05 Q27.35 18.05 27.05 18.3 26.75 18.6 26.75 19.05 L26.75 20.0 Q24.25 20.2 22.35 21.8 L21.35 20.85 Q20.95 20.5 20.6 20.65 20.2 20.7 19.95 21.1 19.65 21.35 19.65 21.8 L19.95 22.35 20.9 23.25 Q19.1 25.2 18.8 27.95 L17.65 27.95 Q17.35 27.95 17.05 28.25 16.7 28.45 16.7 28.9 16.7 29.25 17.05 29.6 17.35 29.9 17.65 29.9 L18.7 29.9 Q18.8 32.8 20.7 34.9 L19.95 35.65 Q19.65 35.85 19.65 36.35 19.65 36.7 19.95 37.05 20.2 37.45 20.6 37.45 L21.35 37.05 22.15 36.35 Q24.15 38.15 26.75 38.35 L26.75 39.45 Q26.75 39.85 27.05 40.1 L27.8 40.55 Q28.2 40.55 28.5 40.1 L28.8 39.45 28.8 38.35 Q31.3 38.15 33.25 36.7 L33.95 37.05 34.65 37.45 Q34.95 37.45 35.3 37.05 L35.6 36.35 Q35.6 35.85 35.3 35.65 L34.75 35.2 Q36.85 32.95 37.05 29.9 L38.15 29.9 38.7 29.6 39.0 28.9 38.7 28.25 Q38.4 27.95 38.15 27.95 L37.05 27.95 Q36.6 25.15 34.65 22.9 L35.3 22.35 35.6 21.65 35.3 21.1 M32.7 24.7 L33.5 23.95 Q35.1 25.6 35.5 27.95 L34.65 27.95 Q34.2 27.95 33.95 28.25 33.65 28.45 33.65 28.9 33.65 29.25 33.95 29.6 L34.65 29.9 35.6 29.9 Q35.3 32.3 33.65 34.15 L32.7 33.3 Q32.35 33.0 32.0 33.0 31.55 33.15 31.15 33.45 30.9 33.75 31.05 34.15 31.1 34.6 31.4 34.9 L32.1 35.55 Q30.6 36.7 28.8 36.8 L28.8 36.05 28.5 35.35 Q28.2 34.95 27.8 34.95 27.35 34.95 27.05 35.35 26.75 35.65 26.75 36.05 L26.75 36.8 Q24.9 36.55 23.3 35.4 L23.95 34.8 24.25 34.1 23.95 33.3 23.2 33.0 Q22.8 33.0 22.5 33.3 L21.85 33.95 Q20.4 32.2 20.25 29.9 L21.2 29.9 21.85 29.6 22.15 28.9 21.85 28.25 21.2 27.95 20.25 27.95 Q20.6 25.85 22.05 24.2 L22.5 24.7 23.2 24.9 23.95 24.55 24.25 23.8 23.95 23.1 23.5 22.8 Q24.95 21.8 26.75 21.55 L26.75 22.5 Q26.75 22.9 27.05 23.25 27.35 23.55 27.8 23.55 L28.5 23.25 28.8 22.5 28.8 21.55 Q30.45 21.8 32.0 22.6 L31.4 23.1 31.05 23.8 Q30.9 24.25 31.15 24.55 L32.0 24.9 Q32.35 25.0 32.7 24.7 Z" fill="none" stroke="#000000" stroke-linecap="round" stroke-linejoin="round" stroke-opacity="0.2" stroke-width="1.6"/>
      <path d="M32.05 11.15 Q33.0 9.5 34.95 8.85 37.05 8.15 39.0 9.25 41.05 10.25 41.6 12.35 42.4 14.55 41.45 16.4 L41.6 16.65 Q44.35 19.55 45.6 23.65 L45.6 24.05 Q46.55 24.05 47.6 24.55 49.55 25.6 50.25 27.7 50.95 29.95 49.85 31.85 48.85 33.9 46.65 34.6 L45.5 34.8 45.4 35.35 44.35 37.75 42.25 40.85 41.95 41.1 42.2 41.95 Q42.75 44.1 41.75 46.05 40.75 48.0 38.65 48.65 36.55 49.35 34.45 48.35 L32.8 46.9 Q32.55 46.9 32.5 47.0 L25.1 47.4 24.55 47.2 Q23.5 48.8 21.65 49.3 19.65 50.05 17.55 48.95 15.55 47.95 14.95 45.75 14.3 43.95 15.05 42.2 L14.75 42.0 Q12.15 39.4 10.7 35.75 L10.7 35.35 Q9.6 35.2 8.6 34.6 6.65 33.65 6.0 31.5 5.25 29.25 6.25 27.4 7.35 25.4 9.5 24.7 L10.2 24.45 10.2 24.05 Q10.7 22.3 11.7 20.5 12.85 18.1 14.55 16.35 L14.95 16.15 14.8 15.7 Q14.1 13.6 15.2 11.65 16.2 9.8 18.3 9.05 20.5 8.4 22.5 9.35 23.6 10.0 24.45 11.0 L24.75 10.95 Q28.45 10.25 31.75 11.0 L32.05 11.15 M39.35 18.75 L38.15 19.25 Q36.05 19.9 34.0 18.8 32.05 17.8 31.4 15.65 31.1 14.75 31.1 14.0 L25.4 13.85 Q25.45 15.4 24.75 16.65 23.75 18.6 21.55 19.25 19.45 20.0 17.45 19.0 L16.7 18.45 Q15.25 20.0 14.3 21.85 13.5 23.3 13.1 24.75 L13.6 25.15 Q15.55 26.15 16.2 28.25 16.9 30.4 15.9 32.3 15.05 33.95 13.5 34.6 14.75 37.75 16.9 39.85 17.55 39.3 18.5 38.95 20.7 38.45 22.65 39.4 24.55 40.55 25.25 42.5 L25.45 44.35 31.6 44.1 Q31.4 42.5 32.25 41.0 33.2 39.1 35.35 38.35 37.55 37.75 39.55 38.75 L39.85 38.95 41.6 36.25 42.55 34.25 42.55 34.15 Q40.6 33.15 39.85 31.05 39.2 28.9 40.3 26.85 41.1 25.35 42.7 24.55 L42.7 24.45 Q41.6 21.15 39.45 18.75 L39.35 18.75 M32.7 24.7 Q32.35 25.0 32.0 24.9 L31.15 24.55 Q30.9 24.25 31.05 23.8 L31.4 23.1 32.0 22.6 Q30.45 21.8 28.8 21.55 L28.8 22.5 28.5 23.25 27.8 23.55 Q27.35 23.55 27.05 23.25 26.75 22.9 26.75 22.5 L26.75 21.55 Q24.95 21.8 23.5 22.8 L23.95 23.1 24.25 23.8 23.95 24.55 23.2 24.9 22.5 24.7 22.05 24.2 Q20.6 25.85 20.25 27.95 L21.2 27.95 21.85 28.25 22.15 28.9 21.85 29.6 21.2 29.9 20.25 29.9 Q20.4 32.2 21.85 33.95 L22.5 33.3 Q22.8 33.0 23.2 33.0 L23.95 33.3 24.25 34.1 23.95 34.8 23.3 35.4 Q24.9 36.55 26.75 36.8 L26.75 36.05 Q26.75 35.65 27.05 35.35 27.35 34.95 27.8 34.95 28.2 34.95 28.5 35.35 L28.8 36.05 28.8 36.8 Q30.6 36.7 32.1 35.55 L31.4 34.9 Q31.1 34.6 31.05 34.15 30.9 33.75 31.15 33.45 31.55 33.15 32.0 33.0 32.35 33.0 32.7 33.3 L33.65 34.15 Q35.3 32.3 35.6 29.9 L34.65 29.9 33.95 29.6 Q33.65 29.25 33.65 28.9 33.65 28.45 33.95 28.25 34.2 27.95 34.65 27.95 L35.5 27.95 Q35.1 25.6 33.5 23.95 L32.7 24.7 M35.3 21.1 L35.6 21.65 35.3 22.35 34.65 22.9 Q36.6 25.15 37.05 27.95 L38.15 27.95 Q38.4 27.95 38.7 28.25 L39.0 28.9 38.7 29.6 38.15 29.9 37.05 29.9 Q36.85 32.95 34.75 35.2 L35.3 35.65 Q35.6 35.85 35.6 36.35 L35.3 37.05 Q34.95 37.45 34.65 37.45 L33.95 37.05 33.25 36.7 Q31.3 38.15 28.8 38.35 L28.8 39.45 28.5 40.1 Q28.2 40.55 27.8 40.55 L27.05 40.1 Q26.75 39.85 26.75 39.45 L26.75 38.35 Q24.15 38.15 22.15 36.35 L21.35 37.05 20.6 37.45 Q20.2 37.45 19.95 37.05 19.65 36.7 19.65 36.35 19.65 35.85 19.95 35.65 L20.7 34.9 Q18.8 32.8 18.7 29.9 L17.65 29.9 Q17.35 29.9 17.05 29.6 16.7 29.25 16.7 28.9 16.7 28.45 17.05 28.25 17.35 27.95 17.65 27.95 L18.8 27.95 Q19.1 25.2 20.9 23.25 L19.95 22.35 19.65 21.8 Q19.65 21.35 19.95 21.1 20.2 20.7 20.6 20.65 20.95 20.5 21.35 20.85 L22.35 21.8 Q24.25 20.2 26.75 20.0 L26.75 19.05 Q26.75 18.6 27.05 18.3 27.35 18.05 27.8 18.05 L28.5 18.3 28.8 19.05 28.8 20.0 Q31.15 20.2 33.2 21.55 L33.95 20.95 Q34.2 20.65 34.65 20.65 34.95 20.65 35.3 21.1" fill="#000000" fill-rule="evenodd" stroke="none"/>
    </g>
  </defs>
</svg>
