<?xml version="1.0" encoding="UTF-8" standalone="no"?>
<svg xmlns:ffdec="https://www.free-decompiler.com/flash" xmlns:xlink="http://www.w3.org/1999/xlink" ffdec:objectType="frame" height="56.0px" width="56.0px" xmlns="http://www.w3.org/2000/svg">
  <g transform="matrix(1.0, 0.0, 0.0, 1.0, 0.0, 0.0)">
    <use ffdec:characterId="2" height="56.0" id="back" transform="matrix(1.0, 0.0, 0.0, 1.0, 0.0, 0.0)" width="56.0" xlink:href="#sprite0"/>
    <use ffdec:characterId="3" height="38.65" transform="matrix(1.0, 0.0, 0.0, 1.0, 3.05, 9.1)" width="49.7" xlink:href="#shape1"/>
  </g>
  <defs>
    <g id="sprite0" transform="matrix(1.0, 0.0, 0.0, 1.0, 0.0, 0.0)">
      <use ffdec:characterId="1" height="56.0" transform="matrix(1.0, 0.0, 0.0, 1.0, 0.0, 0.0)" width="56.0" xlink:href="#shape0"/>
    </g>
    <g id="shape0" transform="matrix(1.0, 0.0, 0.0, 1.0, 0.0, 0.0)">
      <path d="M56.0 56.0 L0.0 56.0 0.0 0.0 56.0 0.0 56.0 56.0" fill="#010101" fill-opacity="0.0" fill-rule="evenodd" stroke="none"/>
    </g>
    <g id="shape1" transform="matrix(1.0, 0.0, 0.0, 1.0, -3.05, -9.1)">
      <path d="M39.85 45.1 L39.9 46.0 39.9 46.15 39.9 46.25 39.85 46.5 39.65 46.6 Q39.4 46.95 39.05 46.95 L17.0 46.95 16.75 46.95 16.5 46.7 16.45 46.7 16.4 46.6 Q16.1 46.4 16.1 46.05 L16.1 45.85 Q16.1 45.4 16.25 45.05 L16.45 44.25 16.75 43.3 17.3 42.6 17.3 42.5 Q18.4 41.4 19.8 41.35 20.0 41.2 20.25 41.2 L26.25 41.2 26.25 20.4 25.25 19.5 25.25 19.45 24.8 18.8 12.5 18.8 15.85 29.2 17.3 29.2 17.9 29.55 18.1 30.15 18.1 30.45 18.1 30.95 18.05 31.15 18.05 31.4 17.7 33.05 17.45 33.45 16.75 34.7 16.5 35.15 16.05 35.55 Q14.3 37.6 11.75 37.95 L10.9 37.95 Q7.95 37.95 5.95 35.55 L5.9 35.55 5.2 34.7 Q4.2 33.35 3.95 31.65 L3.85 30.95 3.85 30.65 3.85 30.15 Q3.85 29.8 4.1 29.55 L4.65 29.2 6.2 29.2 9.5 18.8 8.4 18.8 Q7.75 18.8 7.25 18.3 L6.9 17.9 6.7 17.3 6.7 17.0 6.75 16.65 Q6.8 16.05 7.25 15.7 L7.75 15.25 8.4 15.15 24.55 15.15 25.25 14.1 Q25.7 13.6 26.25 13.4 L26.25 11.7 26.35 11.15 26.7 10.4 27.2 10.05 27.85 9.9 28.55 10.05 29.05 10.4 Q29.55 11.0 29.55 11.7 L29.55 13.55 30.25 14.1 30.95 15.15 47.4 15.15 Q48.05 15.15 48.6 15.7 49.0 16.05 49.05 16.65 L49.05 17.0 49.05 17.15 48.85 17.7 48.8 17.9 48.6 18.3 Q48.05 18.8 47.45 18.8 L46.35 18.8 49.7 29.2 51.15 29.2 51.75 29.55 51.95 30.15 51.95 30.5 51.85 31.6 Q51.75 32.75 51.25 33.75 L49.9 35.55 Q47.85 37.95 44.75 37.95 L43.6 37.9 41.5 37.05 Q40.55 36.5 39.85 35.55 L39.7 35.55 38.95 34.7 Q38.05 33.35 37.75 31.65 L37.65 30.95 37.65 30.65 37.65 30.15 Q37.65 29.8 38.0 29.55 38.2 29.2 38.5 29.2 L40.0 29.2 43.4 18.8 30.8 18.8 30.75 19.1 30.25 19.45 30.2 19.5 29.55 20.2 29.55 41.2 35.75 41.2 Q37.45 41.2 38.7 42.6 L38.8 42.6 Q39.4 43.3 39.7 44.45 L39.85 45.0 39.7 45.05 39.85 45.1 M41.8 29.2 L47.85 29.2 44.75 19.75 41.8 29.2 M7.9 29.2 L14.0 29.2 10.9 19.75 7.9 29.2" fill="#000000" fill-rule="evenodd" stroke="none"/>
      <path d="M38.8 42.6 L38.7 42.6 38.7 42.5 38.8 42.6" fill="#2b1509" fill-rule="evenodd" stroke="none"/>
      <path d="M39.85 45.1 L39.7 45.05 39.85 45.0 39.85 45.1" fill="#6b4300" fill-rule="evenodd" stroke="none"/>
      <path d="M38.7 42.6 Q37.45 41.2 35.75 41.2 L29.55 41.2 29.55 20.2 30.2 19.5 30.25 19.45 30.75 19.1 30.8 18.8 43.4 18.8 40.0 29.2 38.5 29.2 Q38.2 29.2 38.0 29.55 37.65 29.8 37.65 30.15 L37.65 30.65 37.65 30.95 37.75 31.65 Q38.05 33.35 38.95 34.7 L39.7 35.55 39.85 35.55 Q40.55 36.5 41.5 37.05 L43.6 37.9 44.75 37.95 Q47.85 37.95 49.9 35.55 L51.25 33.75 Q51.75 32.75 51.85 31.6 L51.95 30.5 51.95 30.15 51.75 29.55 51.15 29.2 49.7 29.2 46.35 18.8 47.45 18.8 Q48.05 18.8 48.6 18.3 L48.8 17.9 48.85 17.7 49.05 17.15 49.05 17.0 49.05 16.65 Q49.0 16.05 48.6 15.7 48.05 15.15 47.4 15.15 L30.95 15.15 30.25 14.1 29.55 13.55 29.55 11.7 Q29.55 11.0 29.05 10.4 L28.55 10.05 27.85 9.9 27.2 10.05 26.7 10.4 26.35 11.15 26.25 11.7 26.25 13.4 Q25.7 13.6 25.25 14.1 L24.55 15.15 8.4 15.15 7.75 15.25 7.25 15.7 Q6.8 16.05 6.75 16.65 L6.7 17.0 6.7 17.3 6.9 17.9 7.25 18.3 Q7.75 18.8 8.4 18.8 L9.5 18.8 6.2 29.2 4.65 29.2 4.1 29.55 Q3.85 29.8 3.85 30.15 L3.85 30.65 3.85 30.95 3.95 31.65 Q4.2 33.35 5.2 34.7 L5.9 35.55 5.95 35.55 Q7.95 37.95 10.9 37.95 L11.75 37.95 Q14.3 37.6 16.05 35.55 L16.5 35.15 16.75 34.7 17.45 33.45 17.7 33.05 18.05 31.4 18.05 31.15 18.1 30.95 18.1 30.45 18.1 30.15 17.9 29.55 17.3 29.2 15.85 29.2 12.5 18.8 24.8 18.8 25.25 19.45 25.25 19.5 26.25 20.4 26.25 41.2 20.25 41.2 Q20.0 41.2 19.8 41.35 18.4 41.4 17.3 42.5 L17.3 42.6 16.75 43.3 16.45 44.25 16.25 45.05 Q16.1 45.4 16.1 45.85 L16.1 46.05 Q16.1 46.4 16.4 46.6 L16.45 46.7 16.5 46.7 16.75 46.95 17.0 46.95 39.05 46.95 Q39.4 46.95 39.65 46.6 L39.85 46.5 39.9 46.25 39.9 46.15 39.9 46.0 39.85 45.1 M41.8 29.2 L44.75 19.75 47.85 29.2 41.8 29.2 M7.9 29.2 L10.9 19.75 14.0 29.2 7.9 29.2 Z" fill="none" stroke="#000000" stroke-linecap="round" stroke-linejoin="round" stroke-opacity="0.2" stroke-width="1.6"/>
      <path d="M39.85 45.1 L39.9 46.0 39.9 46.15 39.9 46.25 39.85 46.5 39.65 46.6 Q39.4 46.95 39.05 46.95 L17.0 46.95 16.75 46.95 16.5 46.7 16.45 46.7 16.4 46.6 Q16.1 46.4 16.1 46.05 L16.1 45.85 Q16.1 45.4 16.25 45.05 L16.45 44.25 16.75 43.3 17.3 42.6 17.3 42.5 Q18.4 41.4 19.8 41.35 20.0 41.2 20.25 41.2 L26.25 41.2 26.25 20.4 25.25 19.5 25.25 19.45 24.8 18.8 12.5 18.8 15.85 29.2 17.3 29.2 17.9 29.55 18.1 30.15 18.1 30.45 18.1 30.95 18.05 31.15 18.05 31.4 17.7 33.05 17.45 33.45 16.75 34.7 16.5 35.15 16.05 35.55 Q14.3 37.6 11.75 37.95 L10.9 37.95 Q7.95 37.95 5.95 35.55 L5.9 35.55 5.2 34.7 Q4.2 33.35 3.95 31.65 L3.85 30.95 3.85 30.65 3.85 30.15 Q3.85 29.8 4.1 29.55 L4.65 29.2 6.2 29.2 9.5 18.8 8.4 18.8 Q7.75 18.8 7.25 18.3 L6.9 17.9 6.7 17.3 6.7 17.0 6.75 16.65 Q6.8 16.05 7.25 15.7 L7.75 15.25 8.4 15.15 24.55 15.15 25.25 14.1 Q25.7 13.6 26.25 13.4 L26.25 11.7 26.35 11.15 26.7 10.4 27.2 10.05 27.85 9.9 28.55 10.05 29.05 10.4 Q29.55 11.0 29.55 11.7 L29.55 13.55 30.25 14.1 30.95 15.15 47.4 15.15 Q48.05 15.15 48.6 15.7 49.0 16.05 49.05 16.65 L49.05 17.0 49.05 17.15 48.85 17.7 48.8 17.9 48.6 18.3 Q48.05 18.8 47.45 18.8 L46.35 18.8 49.7 29.2 51.15 29.2 51.75 29.55 51.95 30.15 51.95 30.5 51.85 31.6 Q51.75 32.75 51.25 33.75 L49.9 35.55 Q47.85 37.95 44.75 37.95 L43.6 37.9 41.5 37.05 Q40.55 36.5 39.85 35.55 L39.7 35.55 38.95 34.7 Q38.05 33.35 37.75 31.65 L37.65 30.95 37.65 30.65 37.65 30.15 Q37.65 29.8 38.0 29.55 38.2 29.2 38.5 29.2 L40.0 29.2 43.4 18.8 30.8 18.8 30.75 19.1 30.25 19.45 30.2 19.5 29.55 20.2 29.55 41.2 35.75 41.2 Q37.45 41.2 38.7 42.6 L38.8 42.6 Q39.4 43.3 39.7 44.45 L39.85 45.0 39.7 45.05 39.85 45.1 M41.8 29.2 L47.85 29.2 44.75 19.75 41.8 29.2 M7.9 29.2 L14.0 29.2 10.9 19.75 7.9 29.2" fill="#000000" fill-rule="evenodd" stroke="none"/>
      <path d="M38.8 42.6 L38.7 42.6 38.7 42.5 38.8 42.6" fill="#2b1509" fill-rule="evenodd" stroke="none"/>
      <path d="M39.85 45.1 L39.7 45.05 39.85 45.0 39.85 45.1" fill="#6b4300" fill-rule="evenodd" stroke="none"/>
    </g>
  </defs>
</svg>
