<?xml version="1.0" encoding="UTF-8" standalone="no"?>
<svg xmlns:ffdec="https://www.free-decompiler.com/flash" xmlns:xlink="http://www.w3.org/1999/xlink" ffdec:objectType="frame" height="56.0px" width="56.0px" xmlns="http://www.w3.org/2000/svg">
  <g transform="matrix(1.0, 0.0, 0.0, 1.0, 0.0, 0.0)">
    <use ffdec:characterId="2" height="56.0" id="back" transform="matrix(1.0, 0.0, 0.0, 1.0, 0.0, 0.0)" width="56.0" xlink:href="#sprite0"/>
    <use ffdec:characterId="3" height="42.15" transform="matrix(1.0, 0.0, 0.0, 1.0, 3.5, 4.7)" width="50.55" xlink:href="#shape1"/>
  </g>
  <defs>
    <g id="sprite0" transform="matrix(1.0, 0.0, 0.0, 1.0, 0.0, 0.0)">
      <use ffdec:characterId="1" height="56.0" transform="matrix(1.0, 0.0, 0.0, 1.0, 0.0, 0.0)" width="56.0" xlink:href="#shape0"/>
    </g>
    <g id="shape0" transform="matrix(1.0, 0.0, 0.0, 1.0, 0.0, 0.0)">
      <path d="M56.0 56.0 L0.0 56.0 0.0 0.0 56.0 0.0 56.0 56.0" fill="#010101" fill-opacity="0.0" fill-rule="evenodd" stroke="none"/>
    </g>
    <g id="shape1" transform="matrix(1.0, 0.0, 0.0, 1.0, -3.5, -4.7)">
      <path d="M15.6 8.2 Q16.4 8.9 16.4 9.95 16.4 11.0 15.6 11.65 14.9 12.45 13.85 12.45 12.8 12.45 12.05 11.75 11.3 11.05 11.3 10.0 11.3 9.0 12.05 8.25 12.8 7.6 13.85 7.55 14.9 7.55 15.6 8.2 M15.55 22.55 Q15.55 15.6 19.05 10.6 22.65 5.65 27.65 5.5 32.65 5.45 36.2 10.3 39.75 15.2 39.75 22.15 L39.6 24.95 15.7 25.35 15.55 22.55 M43.2 30.35 Q41.5 28.75 41.5 26.35 41.5 24.05 43.2 22.35 44.9 20.65 47.3 20.6 49.8 20.55 51.5 22.2 53.25 23.85 53.25 26.2 53.25 28.6 51.5 30.2 49.8 31.9 47.3 31.95 44.9 31.95 43.2 30.35 M27.0 26.6 L27.05 26.6 Q27.65 26.6 28.1 27.1 28.55 27.7 28.55 28.45 L28.55 41.95 28.1 43.25 Q27.65 43.85 27.05 43.85 L27.0 43.85 Q26.4 43.9 25.9 43.3 25.5 42.75 25.5 42.0 L25.5 28.5 Q25.5 27.7 25.9 27.15 26.4 26.65 27.0 26.6 M32.45 27.15 Q32.85 26.75 33.45 26.75 34.1 26.7 34.5 27.1 34.95 27.55 34.95 28.1 L34.95 29.8 Q34.95 31.55 36.2 32.7 37.3 33.75 38.7 33.9 41.55 33.95 43.6 35.85 45.7 37.85 45.7 40.75 L45.7 44.6 45.25 45.6 Q44.85 46.0 44.25 46.05 43.65 46.05 43.25 45.6 42.8 45.2 42.8 44.65 L42.8 40.55 42.8 40.35 Q42.65 38.9 41.55 37.9 40.5 36.85 39.1 36.75 36.2 36.65 34.15 34.75 32.25 32.95 32.1 30.4 L32.05 30.0 32.05 28.15 Q32.05 27.55 32.45 27.15 M20.6 26.05 Q21.2 26.05 21.65 26.45 22.05 26.85 22.05 27.45 L22.05 29.35 22.05 29.55 Q21.9 32.2 19.95 34.1 18.05 35.95 15.55 36.2 13.75 36.25 12.5 37.5 11.3 38.65 11.25 40.2 L11.25 40.35 11.25 44.45 Q11.25 45.05 10.8 45.45 10.4 45.85 9.8 45.85 9.15 45.9 8.75 45.45 8.3 45.05 8.3 44.5 L8.3 40.35 8.3 40.2 Q8.45 37.5 10.4 35.55 12.3 33.7 14.85 33.45 L14.85 33.4 Q16.6 33.35 17.9 32.15 19.05 31.0 19.15 29.45 L19.15 27.5 Q19.15 26.9 19.55 26.5 20.0 26.1 20.6 26.05 M4.3 28.75 Q4.3 27.4 5.25 26.45 6.25 25.55 7.65 25.5 9.05 25.45 10.05 26.4 11.05 27.3 11.05 28.65 11.05 30.05 10.05 31.0 9.05 31.95 7.65 32.0 6.25 32.0 5.25 31.05 4.3 30.15 4.3 28.75" fill="#000000" fill-rule="evenodd" stroke="none"/>
      <path d="M15.6 8.2 Q16.4 8.9 16.4 9.95 16.4 11.0 15.6 11.65 14.9 12.45 13.85 12.45 12.8 12.45 12.05 11.75 11.3 11.05 11.3 10.0 11.3 9.0 12.05 8.25 12.8 7.6 13.85 7.55 14.9 7.55 15.6 8.2 M15.55 22.55 Q15.55 15.6 19.05 10.6 22.65 5.65 27.65 5.5 32.65 5.45 36.2 10.3 39.75 15.2 39.75 22.15 L39.6 24.95 15.7 25.35 15.55 22.55 M43.2 30.35 Q41.5 28.75 41.5 26.35 41.5 24.05 43.2 22.35 44.9 20.65 47.3 20.6 49.8 20.55 51.5 22.2 53.25 23.85 53.25 26.2 53.25 28.6 51.5 30.2 49.8 31.9 47.3 31.95 44.9 31.95 43.2 30.35 M32.45 27.15 Q32.05 27.55 32.05 28.15 L32.05 30.0 32.1 30.4 Q32.25 32.95 34.15 34.75 36.2 36.65 39.1 36.75 40.5 36.85 41.55 37.9 42.65 38.9 42.8 40.35 L42.8 40.55 42.8 44.65 Q42.8 45.2 43.25 45.6 43.65 46.05 44.25 46.05 44.85 46.0 45.25 45.6 L45.7 44.6 45.7 40.75 Q45.7 37.85 43.6 35.85 41.55 33.95 38.7 33.9 37.3 33.75 36.2 32.7 34.95 31.55 34.95 29.8 L34.95 28.1 Q34.95 27.55 34.5 27.1 34.1 26.7 33.45 26.75 32.85 26.75 32.45 27.15 M27.0 26.6 Q26.4 26.65 25.9 27.15 25.5 27.7 25.5 28.5 L25.5 42.0 Q25.5 42.75 25.9 43.3 26.4 43.9 27.0 43.85 L27.05 43.85 Q27.65 43.85 28.1 43.25 L28.55 41.95 28.55 28.45 Q28.55 27.7 28.1 27.1 27.65 26.6 27.05 26.6 L27.0 26.6 M20.6 26.05 Q21.2 26.05 21.65 26.45 22.05 26.85 22.05 27.45 L22.05 29.35 22.05 29.55 Q21.9 32.2 19.95 34.1 18.05 35.95 15.55 36.2 13.75 36.25 12.5 37.5 11.3 38.65 11.25 40.2 L11.25 40.35 11.25 44.45 Q11.25 45.05 10.8 45.45 10.4 45.85 9.8 45.85 9.15 45.9 8.75 45.45 8.3 45.05 8.3 44.5 L8.3 40.35 8.3 40.2 Q8.45 37.5 10.4 35.55 12.3 33.7 14.85 33.45 L14.85 33.4 Q16.6 33.35 17.9 32.15 19.05 31.0 19.15 29.45 L19.15 27.5 Q19.15 26.9 19.55 26.5 20.0 26.1 20.6 26.05 M4.3 28.75 Q4.3 27.4 5.25 26.45 6.25 25.55 7.65 25.5 9.05 25.45 10.05 26.4 11.05 27.3 11.05 28.65 11.05 30.05 10.05 31.0 9.05 31.95 7.65 32.0 6.25 32.0 5.25 31.05 4.3 30.15 4.3 28.75 Z" fill="none" stroke="#000000" stroke-linecap="round" stroke-linejoin="round" stroke-opacity="0.2" stroke-width="1.6"/>
      <path d="M15.6 8.2 Q16.4 8.9 16.4 9.95 16.4 11.0 15.6 11.65 14.9 12.45 13.85 12.45 12.8 12.45 12.05 11.75 11.3 11.05 11.3 10.0 11.3 9.0 12.05 8.25 12.8 7.6 13.85 7.55 14.9 7.55 15.6 8.2 M15.55 22.55 Q15.55 15.6 19.05 10.6 22.65 5.65 27.65 5.5 32.65 5.45 36.2 10.3 39.75 15.2 39.75 22.15 L39.6 24.95 15.7 25.35 15.55 22.55 M43.2 30.35 Q41.5 28.75 41.5 26.35 41.5 24.05 43.2 22.35 44.9 20.65 47.3 20.6 49.8 20.55 51.5 22.2 53.25 23.85 53.25 26.2 53.25 28.6 51.5 30.2 49.8 31.9 47.3 31.95 44.9 31.95 43.2 30.35 M27.0 26.6 L27.05 26.6 Q27.65 26.6 28.1 27.1 28.55 27.7 28.55 28.45 L28.55 41.95 28.1 43.25 Q27.65 43.85 27.05 43.85 L27.0 43.85 Q26.4 43.9 25.9 43.3 25.5 42.75 25.5 42.0 L25.5 28.5 Q25.5 27.7 25.9 27.15 26.4 26.65 27.0 26.6 M32.45 27.15 Q32.85 26.75 33.45 26.75 34.1 26.7 34.5 27.1 34.95 27.55 34.95 28.1 L34.95 29.8 Q34.95 31.55 36.2 32.7 37.3 33.75 38.7 33.9 41.55 33.95 43.6 35.85 45.7 37.85 45.7 40.75 L45.7 44.6 45.25 45.6 Q44.85 46.0 44.25 46.05 43.65 46.05 43.25 45.6 42.8 45.2 42.8 44.65 L42.8 40.55 42.8 40.35 Q42.65 38.9 41.55 37.9 40.5 36.85 39.1 36.75 36.2 36.65 34.15 34.75 32.25 32.95 32.1 30.4 L32.05 30.0 32.05 28.15 Q32.05 27.55 32.45 27.15 M20.6 26.05 Q21.2 26.05 21.65 26.45 22.05 26.85 22.05 27.45 L22.05 29.35 22.05 29.55 Q21.9 32.2 19.95 34.1 18.05 35.95 15.55 36.2 13.75 36.25 12.5 37.5 11.3 38.65 11.25 40.2 L11.25 40.35 11.25 44.45 Q11.25 45.05 10.8 45.45 10.4 45.85 9.8 45.85 9.15 45.9 8.75 45.45 8.3 45.05 8.3 44.5 L8.3 40.35 8.3 40.2 Q8.45 37.5 10.4 35.55 12.3 33.7 14.85 33.45 L14.85 33.4 Q16.6 33.35 17.9 32.15 19.05 31.0 19.15 29.45 L19.15 27.5 Q19.15 26.9 19.55 26.5 20.0 26.1 20.6 26.05 M4.3 28.75 Q4.3 27.4 5.25 26.45 6.25 25.55 7.65 25.5 9.05 25.45 10.05 26.4 11.05 27.3 11.05 28.65 11.05 30.05 10.05 31.0 9.05 31.95 7.65 32.0 6.25 32.0 5.25 31.05 4.3 30.15 4.3 28.75" fill="#000000" fill-rule="evenodd" stroke="none"/>
    </g>
  </defs>
</svg>
