<?xml version="1.0" encoding="UTF-8" standalone="no"?>
<svg xmlns:ffdec="https://www.free-decompiler.com/flash" xmlns:xlink="http://www.w3.org/1999/xlink" ffdec:objectType="frame" height="56.0px" width="56.0px" xmlns="http://www.w3.org/2000/svg">
  <g transform="matrix(1.0, 0.0, 0.0, 1.0, 0.0, 0.0)">
    <use ffdec:characterId="2" height="56.0" id="back" transform="matrix(1.0, 0.0, 0.0, 1.0, 0.0, 0.0)" width="56.0" xlink:href="#sprite0"/>
    <use ffdec:characterId="3" height="46.6" transform="matrix(1.0, 0.0, 0.0, 1.0, 3.7, 4.7)" width="48.45" xlink:href="#shape1"/>
  </g>
  <defs>
    <g id="sprite0" transform="matrix(1.0, 0.0, 0.0, 1.0, 0.0, 0.0)">
      <use ffdec:characterId="1" height="56.0" transform="matrix(1.0, 0.0, 0.0, 1.0, 0.0, 0.0)" width="56.0" xlink:href="#shape0"/>
    </g>
    <g id="shape0" transform="matrix(1.0, 0.0, 0.0, 1.0, 0.0, 0.0)">
      <path d="M56.0 56.0 L0.0 56.0 0.0 0.0 56.0 0.0 56.0 56.0" fill="#010101" fill-opacity="0.0" fill-rule="evenodd" stroke="none"/>
    </g>
    <g id="shape1" transform="matrix(1.0, 0.0, 0.0, 1.0, -3.7, -4.7)">
      <path d="M28.95 12.45 Q28.6 12.85 27.95 12.85 L27.9 12.9 Q27.25 12.9 26.85 12.45 26.4 12.05 26.4 11.4 L26.4 7.0 Q26.4 6.35 26.85 5.95 27.3 5.5 27.9 5.55 L27.95 5.5 Q28.55 5.5 28.95 5.9 29.45 6.3 29.45 6.95 L29.45 11.4 Q29.45 12.0 28.95 12.45 M17.3 16.35 Q17.35 16.95 16.9 17.4 L16.85 17.4 Q16.45 17.85 15.75 17.85 15.2 17.85 14.75 17.4 L11.5 14.3 Q11.05 13.9 11.0 13.3 11.05 12.7 11.45 12.3 L11.5 12.25 Q11.9 11.85 12.55 11.8 13.15 11.8 13.6 12.25 L16.9 15.35 Q17.3 15.75 17.3 16.35 M39.0 15.0 L42.25 11.8 Q42.65 11.4 43.3 11.4 43.95 11.35 44.35 11.8 L44.4 11.8 Q44.8 12.25 44.85 12.8 44.8 13.45 44.35 13.85 L41.15 17.05 Q40.7 17.45 40.05 17.5 39.45 17.5 39.0 17.1 38.5 16.65 38.5 16.05 38.55 15.45 39.0 15.0 M37.15 26.8 L37.25 26.8 Q37.0 24.45 35.5 22.55 L32.6 25.4 33.25 26.9 37.15 26.8 M44.1 26.75 Q44.6 26.3 45.2 26.35 L49.8 26.2 Q50.4 26.25 50.9 26.65 51.3 27.05 51.3 27.65 L51.35 27.65 Q51.35 28.25 50.85 28.7 L49.8 29.15 45.2 29.25 Q44.6 29.25 44.15 28.85 43.7 28.4 43.7 27.8 43.65 27.2 44.1 26.75 M38.35 17.9 Q42.65 22.0 42.65 27.9 42.65 33.75 38.35 37.95 34.0 42.2 27.9 42.35 21.8 42.45 17.5 38.3 13.15 34.2 13.15 28.35 13.15 22.45 17.5 18.25 21.8 14.05 27.9 13.95 34.0 13.8 38.35 17.9 M39.15 38.5 L39.2 38.5 Q39.6 38.1 40.25 38.0 40.85 38.0 41.3 38.45 L44.6 41.55 Q45.0 41.95 45.05 42.55 45.05 43.15 44.6 43.6 L44.55 43.65 Q44.15 44.05 43.5 44.05 42.9 44.05 42.45 43.6 L39.2 40.55 Q38.75 40.15 38.7 39.5 38.75 39.0 39.15 38.5 M29.45 23.1 Q29.95 23.2 30.45 23.45 L33.35 20.6 Q31.6 19.4 29.45 19.1 L29.45 23.1 M24.9 23.8 Q25.6 23.35 26.4 23.15 L26.4 19.15 Q24.0 19.55 22.05 21.1 L24.9 23.8 M22.6 27.3 L22.95 26.05 20.0 23.25 Q18.75 25.1 18.5 27.4 L22.6 27.3 M25.45 33.05 L22.65 35.75 Q24.35 36.85 26.4 37.15 L26.4 33.2 25.6 32.9 25.45 33.05 M22.65 30.25 L18.7 30.35 Q19.15 32.25 20.45 33.8 L23.35 30.95 22.95 30.2 22.65 30.25 M16.65 38.9 Q17.1 39.35 17.1 40.0 L16.65 40.95 13.45 44.2 Q13.0 44.6 12.35 44.65 11.75 44.65 11.3 44.2 L11.3 44.15 Q10.85 43.8 10.85 43.2 10.85 42.55 11.3 42.1 L14.55 38.95 Q15.0 38.5 15.6 38.5 16.25 38.5 16.65 38.9 M12.1 28.35 L12.15 28.3 11.7 29.35 Q11.3 29.75 10.65 29.8 L6.05 29.9 4.95 29.45 Q4.5 29.1 4.5 28.45 4.55 27.8 4.95 27.35 5.4 27.0 6.05 26.95 L10.65 26.9 Q11.25 26.9 11.7 27.25 12.15 27.65 12.1 28.35 M28.95 50.1 Q28.6 50.5 27.95 50.5 L27.9 50.5 Q27.25 50.5 26.85 50.1 26.4 49.65 26.4 49.05 L26.4 44.65 Q26.4 44.0 26.85 43.55 27.3 43.15 27.9 43.15 L27.95 43.15 Q28.55 43.15 28.95 43.55 29.45 43.95 29.45 44.6 L29.45 49.0 Q29.45 49.65 28.95 50.1 M30.65 32.75 L30.6 32.65 29.45 33.1 29.45 37.1 Q31.7 36.7 33.45 35.4 L30.65 32.75 M32.8 30.65 L35.6 33.3 Q36.8 31.7 37.15 29.75 L33.05 29.85 32.7 30.55 32.8 30.65" fill="#000000" fill-rule="evenodd" stroke="none"/>
      <path d="M17.3 16.35 Q17.3 15.75 16.9 15.35 L13.6 12.25 Q13.15 11.8 12.55 11.8 11.9 11.85 11.5 12.25 L11.45 12.3 Q11.05 12.7 11.0 13.3 11.05 13.9 11.5 14.3 L14.75 17.4 Q15.2 17.85 15.75 17.85 16.45 17.85 16.85 17.4 L16.9 17.4 Q17.35 16.95 17.3 16.35 M28.95 12.45 Q29.45 12.0 29.45 11.4 L29.45 6.95 Q29.45 6.3 28.95 5.9 28.55 5.5 27.95 5.5 L27.9 5.55 Q27.3 5.5 26.85 5.95 26.4 6.35 26.4 7.0 L26.4 11.4 Q26.4 12.05 26.85 12.45 27.25 12.9 27.9 12.9 L27.95 12.85 Q28.6 12.85 28.95 12.45 M39.0 15.0 L42.25 11.8 Q42.65 11.4 43.3 11.4 43.95 11.35 44.35 11.8 L44.4 11.8 Q44.8 12.25 44.85 12.8 44.8 13.45 44.35 13.85 L41.15 17.05 Q40.7 17.45 40.05 17.5 39.45 17.5 39.0 17.1 38.5 16.65 38.5 16.05 38.55 15.45 39.0 15.0 M44.1 26.75 Q43.65 27.2 43.7 27.8 43.7 28.4 44.15 28.85 44.6 29.25 45.2 29.25 L49.8 29.15 50.85 28.7 Q51.35 28.25 51.35 27.65 L51.3 27.65 Q51.3 27.05 50.9 26.65 50.4 26.25 49.8 26.2 L45.2 26.35 Q44.6 26.3 44.1 26.75 M37.15 26.8 L33.25 26.9 32.6 25.4 35.5 22.55 Q37.0 24.45 37.25 26.8 L37.15 26.8 M38.35 17.9 Q42.65 22.0 42.65 27.9 42.65 33.75 38.35 37.95 34.0 42.2 27.9 42.35 21.8 42.45 17.5 38.3 13.15 34.2 13.15 28.35 13.15 22.45 17.5 18.25 21.8 14.05 27.9 13.95 34.0 13.8 38.35 17.9 M39.15 38.5 Q38.75 39.0 38.7 39.5 38.75 40.15 39.2 40.55 L42.45 43.6 Q42.9 44.05 43.5 44.05 44.15 44.05 44.55 43.65 L44.6 43.6 Q45.05 43.15 45.05 42.55 45.0 41.95 44.6 41.55 L41.3 38.45 Q40.85 38.0 40.25 38.0 39.6 38.1 39.2 38.5 L39.15 38.5 M29.45 23.1 Q29.95 23.2 30.45 23.45 L33.35 20.6 Q31.6 19.4 29.45 19.1 L29.45 23.1 M24.9 23.8 L22.05 21.1 Q24.0 19.55 26.4 19.15 L26.4 23.15 Q25.6 23.35 24.9 23.8 M22.6 27.3 L22.95 26.05 20.0 23.25 Q18.75 25.1 18.5 27.4 L22.6 27.3 M25.45 33.05 L22.65 35.75 Q24.35 36.85 26.4 37.15 L26.4 33.2 25.6 32.9 25.45 33.05 M22.65 30.25 L22.95 30.2 23.35 30.95 20.45 33.8 Q19.15 32.25 18.7 30.35 L22.65 30.25 M16.65 38.9 Q17.1 39.35 17.1 40.0 L16.65 40.95 13.45 44.2 Q13.0 44.6 12.35 44.65 11.75 44.65 11.3 44.2 L11.3 44.15 Q10.85 43.8 10.85 43.2 10.85 42.55 11.3 42.1 L14.55 38.95 Q15.0 38.5 15.6 38.5 16.25 38.5 16.65 38.9 M32.8 30.65 L32.7 30.55 33.05 29.85 37.15 29.75 Q36.8 31.7 35.6 33.3 L32.8 30.65 M30.65 32.75 L33.45 35.4 Q31.7 36.7 29.45 37.1 L29.45 33.1 30.6 32.65 30.65 32.75 M28.95 50.1 Q29.45 49.65 29.45 49.0 L29.45 44.6 Q29.45 43.95 28.95 43.55 28.55 43.15 27.95 43.15 L27.9 43.15 Q27.3 43.15 26.85 43.55 26.4 44.0 26.4 44.65 L26.4 49.05 Q26.4 49.65 26.85 50.1 27.25 50.5 27.9 50.5 L27.95 50.5 Q28.6 50.5 28.95 50.1 M12.1 28.35 Q12.15 27.65 11.7 27.25 11.25 26.9 10.65 26.9 L6.05 26.95 Q5.4 27.0 4.95 27.35 4.55 27.8 4.5 28.45 4.5 29.1 4.95 29.45 L6.05 29.9 10.65 29.8 Q11.3 29.75 11.7 29.35 L12.15 28.3 12.1 28.35 Z" fill="none" stroke="#000000" stroke-linecap="round" stroke-linejoin="round" stroke-opacity="0.2" stroke-width="1.6"/>
      <path d="M28.95 12.45 Q28.6 12.85 27.95 12.85 L27.9 12.9 Q27.25 12.9 26.85 12.45 26.4 12.05 26.4 11.4 L26.4 7.0 Q26.4 6.35 26.85 5.95 27.3 5.5 27.9 5.55 L27.95 5.5 Q28.55 5.5 28.95 5.9 29.45 6.3 29.45 6.95 L29.45 11.4 Q29.45 12.0 28.95 12.45 M17.3 16.35 Q17.35 16.95 16.9 17.4 L16.85 17.4 Q16.45 17.85 15.75 17.85 15.2 17.85 14.75 17.4 L11.5 14.3 Q11.05 13.9 11.0 13.3 11.05 12.7 11.45 12.3 L11.5 12.25 Q11.9 11.85 12.55 11.8 13.15 11.8 13.6 12.25 L16.9 15.35 Q17.3 15.75 17.3 16.35 M39.0 15.0 L42.25 11.8 Q42.65 11.4 43.3 11.4 43.95 11.35 44.35 11.8 L44.4 11.8 Q44.8 12.25 44.85 12.8 44.8 13.45 44.35 13.85 L41.15 17.05 Q40.7 17.45 40.05 17.5 39.45 17.5 39.0 17.1 38.5 16.65 38.5 16.05 38.55 15.45 39.0 15.0 M37.15 26.8 L37.25 26.8 Q37.0 24.45 35.5 22.55 L32.6 25.4 33.25 26.9 37.15 26.8 M44.1 26.75 Q44.6 26.3 45.2 26.35 L49.8 26.2 Q50.4 26.25 50.9 26.65 51.3 27.05 51.3 27.65 L51.35 27.65 Q51.35 28.25 50.85 28.7 L49.8 29.15 45.2 29.25 Q44.6 29.25 44.15 28.85 43.7 28.4 43.7 27.8 43.65 27.2 44.1 26.75 M38.35 17.9 Q42.65 22.0 42.65 27.9 42.65 33.75 38.35 37.95 34.0 42.2 27.9 42.35 21.8 42.45 17.5 38.3 13.15 34.2 13.15 28.35 13.15 22.45 17.5 18.25 21.8 14.05 27.9 13.95 34.0 13.8 38.35 17.9 M24.9 23.8 Q25.6 23.35 26.4 23.15 L26.4 19.15 Q24.0 19.55 22.05 21.1 L24.9 23.8 M39.15 38.5 L39.2 38.5 Q39.6 38.1 40.25 38.0 40.85 38.0 41.3 38.45 L44.6 41.55 Q45.0 41.95 45.05 42.55 45.05 43.15 44.6 43.6 L44.55 43.65 Q44.15 44.05 43.5 44.05 42.9 44.05 42.45 43.6 L39.2 40.55 Q38.75 40.15 38.7 39.5 38.75 39.0 39.15 38.5 M29.45 23.1 Q29.95 23.2 30.45 23.45 L33.35 20.6 Q31.6 19.4 29.45 19.1 L29.45 23.1 M22.6 27.3 L22.95 26.05 20.0 23.25 Q18.75 25.1 18.5 27.4 L22.6 27.3 M25.45 33.05 L22.65 35.75 Q24.35 36.85 26.4 37.15 L26.4 33.2 25.6 32.9 25.45 33.05 M22.65 30.25 L18.7 30.35 Q19.15 32.25 20.45 33.8 L23.35 30.95 22.95 30.2 22.65 30.25 M16.65 38.9 Q17.1 39.35 17.1 40.0 L16.65 40.95 13.45 44.2 Q13.0 44.6 12.35 44.65 11.75 44.65 11.3 44.2 L11.3 44.15 Q10.85 43.8 10.85 43.2 10.85 42.55 11.3 42.1 L14.55 38.95 Q15.0 38.5 15.6 38.5 16.25 38.5 16.65 38.9 M12.1 28.35 L12.15 28.3 11.7 29.35 Q11.3 29.75 10.65 29.8 L6.05 29.9 4.95 29.45 Q4.5 29.1 4.5 28.45 4.55 27.8 4.95 27.35 5.4 27.0 6.05 26.95 L10.65 26.9 Q11.25 26.9 11.7 27.25 12.15 27.65 12.1 28.35 M28.95 50.1 Q28.6 50.5 27.95 50.5 L27.9 50.5 Q27.25 50.5 26.85 50.1 26.4 49.65 26.4 49.05 L26.4 44.65 Q26.4 44.0 26.85 43.55 27.3 43.15 27.9 43.15 L27.95 43.15 Q28.55 43.15 28.95 43.55 29.45 43.95 29.45 44.6 L29.45 49.0 Q29.45 49.65 28.95 50.1 M30.65 32.75 L30.6 32.65 29.45 33.1 29.45 37.1 Q31.7 36.7 33.45 35.4 L30.65 32.75 M32.8 30.65 L35.6 33.3 Q36.8 31.7 37.15 29.75 L33.05 29.85 32.7 30.55 32.8 30.65" fill="#000000" fill-rule="evenodd" stroke="none"/>
    </g>
  </defs>
</svg>
