<?xml version="1.0" encoding="UTF-8" standalone="no"?>
<svg xmlns:ffdec="https://www.free-decompiler.com/flash" xmlns:xlink="http://www.w3.org/1999/xlink" ffdec:objectType="frame" height="56.0px" width="56.0px" xmlns="http://www.w3.org/2000/svg">
  <g transform="matrix(1.0, 0.0, 0.0, 1.0, 0.0, 0.0)">
    <use ffdec:characterId="2" height="56.0" id="back" transform="matrix(1.0, 0.0, 0.0, 1.0, 0.0, 0.0)" width="56.0" xlink:href="#sprite0"/>
    <use ffdec:characterId="3" height="43.9" transform="matrix(1.0, 0.0, 0.0, 1.0, 3.5, 6.8)" width="49.65" xlink:href="#shape1"/>
  </g>
  <defs>
    <g id="sprite0" transform="matrix(1.0, 0.0, 0.0, 1.0, 0.0, 0.0)">
      <use ffdec:characterId="1" height="56.0" transform="matrix(1.0, 0.0, 0.0, 1.0, 0.0, 0.0)" width="56.0" xlink:href="#shape0"/>
    </g>
    <g id="shape0" transform="matrix(1.0, 0.0, 0.0, 1.0, 0.0, 0.0)">
      <path d="M56.0 56.0 L0.0 56.0 0.0 0.0 56.0 0.0 56.0 56.0" fill="#010101" fill-opacity="0.0" fill-rule="evenodd" stroke="none"/>
    </g>
    <g id="shape1" transform="matrix(1.0, 0.0, 0.0, 1.0, -3.5, -6.8)">
      <path d="M28.6 8.7 Q29.2 8.55 29.65 9.1 L29.7 9.15 Q34.7 6.9 42.0 7.9 48.4 10.25 52.35 19.0 L45.05 19.5 36.75 19.1 Q33.1 17.35 29.3 11.55 L29.0 11.7 Q27.05 13.8 25.95 15.7 L23.2 21.4 22.35 21.7 21.95 21.0 24.1 15.8 24.5 14.85 Q26.0 11.35 27.5 9.6 28.05 8.8 28.6 8.7 M14.55 31.0 L16.3 28.4 16.4 28.7 Q16.95 29.65 17.9 29.65 18.85 29.65 19.65 28.7 20.5 27.75 20.75 26.45 21.0 25.15 20.45 24.25 20.0 23.3 19.05 23.3 18.1 23.3 17.25 24.25 L17.0 24.55 16.55 22.9 Q15.75 21.25 14.05 21.25 12.3 21.25 10.65 22.9 9.05 24.6 8.45 26.95 7.9 29.35 8.7 31.0 9.5 32.7 11.2 32.7 12.9 32.7 14.55 31.0 M20.2 19.7 Q21.85 21.1 22.25 22.7 23.75 21.85 27.1 20.8 L24.25 21.15 Q25.1 18.75 26.0 17.1 28.25 17.85 30.5 19.4 29.15 19.7 28.0 20.4 29.65 19.9 30.8 19.75 L30.85 19.75 Q33.95 19.15 36.65 20.95 40.35 23.45 40.55 31.85 40.7 40.3 35.7 45.05 30.7 49.7 27.0 49.9 23.15 49.95 21.45 48.9 19.75 47.85 18.2 45.5 18.75 47.9 20.1 49.1 14.3 51.05 10.25 46.45 5.8 41.4 4.55 33.5 3.3 25.6 7.95 21.05 11.75 17.4 15.95 18.05 16.9 18.2 19.25 19.25 18.55 18.4 16.7 17.7 19.75 16.35 22.85 16.5 22.05 18.45 21.6 20.55 21.05 20.0 20.2 19.7" fill="#000000" fill-rule="evenodd" stroke="none"/>
      <path d="M28.6 8.7 Q29.2 8.55 29.65 9.1 L29.7 9.15 Q34.7 6.9 42.0 7.9 48.4 10.25 52.35 19.0 L45.05 19.5 36.75 19.1 Q33.1 17.35 29.3 11.55 L29.0 11.7 Q27.05 13.8 25.95 15.7 L23.2 21.4 22.35 21.7 21.95 21.0 24.1 15.8 24.5 14.85 Q26.0 11.35 27.5 9.6 28.05 8.8 28.6 8.7 M20.2 19.7 Q21.05 20.0 21.6 20.55 22.05 18.45 22.85 16.5 19.75 16.35 16.7 17.7 18.55 18.4 19.25 19.25 16.9 18.2 15.95 18.05 11.75 17.4 7.95 21.05 3.3 25.6 4.55 33.5 5.8 41.4 10.25 46.45 14.3 51.05 20.1 49.1 18.75 47.9 18.2 45.5 19.75 47.85 21.45 48.9 23.15 49.95 27.0 49.9 30.7 49.7 35.7 45.05 40.7 40.3 40.55 31.85 40.35 23.45 36.65 20.95 33.95 19.15 30.85 19.75 L30.8 19.75 Q29.65 19.9 28.0 20.4 29.15 19.7 30.5 19.4 28.25 17.85 26.0 17.1 25.1 18.75 24.25 21.15 L27.1 20.8 Q23.75 21.85 22.25 22.7 21.85 21.1 20.2 19.7 M14.55 31.0 Q12.9 32.7 11.2 32.7 9.5 32.7 8.7 31.0 7.9 29.35 8.45 26.95 9.05 24.6 10.65 22.9 12.3 21.25 14.05 21.25 15.75 21.25 16.55 22.9 L17.0 24.55 17.25 24.25 Q18.1 23.3 19.05 23.3 20.0 23.3 20.45 24.25 21.0 25.15 20.75 26.45 20.5 27.75 19.65 28.7 18.85 29.65 17.9 29.65 16.95 29.65 16.4 28.7 L16.3 28.4 14.55 31.0 Z" fill="none" stroke="#000000" stroke-linecap="round" stroke-linejoin="round" stroke-opacity="0.2" stroke-width="1.6"/>
      <path d="M28.6 8.7 Q29.2 8.55 29.65 9.1 L29.7 9.15 Q34.7 6.9 42.0 7.9 48.4 10.25 52.35 19.0 L45.05 19.5 36.75 19.1 Q33.1 17.35 29.3 11.55 L29.0 11.7 Q27.05 13.8 25.95 15.7 L23.2 21.4 22.35 21.7 21.95 21.0 24.1 15.8 24.5 14.85 Q26.0 11.35 27.5 9.6 28.05 8.8 28.6 8.7 M14.55 31.0 L16.3 28.4 16.4 28.7 Q16.95 29.65 17.9 29.65 18.85 29.65 19.65 28.7 20.5 27.75 20.75 26.45 21.0 25.15 20.45 24.25 20.0 23.3 19.05 23.3 18.1 23.3 17.25 24.25 L17.0 24.55 16.55 22.9 Q15.75 21.25 14.05 21.25 12.3 21.25 10.65 22.9 9.05 24.6 8.45 26.95 7.9 29.35 8.7 31.0 9.5 32.7 11.2 32.7 12.9 32.7 14.55 31.0 M20.2 19.7 Q21.85 21.1 22.25 22.7 23.75 21.85 27.1 20.8 L24.25 21.15 Q25.1 18.75 26.0 17.1 28.25 17.85 30.5 19.4 29.15 19.7 28.0 20.4 29.65 19.9 30.8 19.75 L30.85 19.75 Q33.95 19.15 36.65 20.95 40.35 23.45 40.55 31.85 40.7 40.3 35.7 45.05 30.7 49.7 27.0 49.9 23.15 49.95 21.45 48.9 19.75 47.85 18.2 45.5 18.75 47.9 20.1 49.1 14.3 51.05 10.25 46.45 5.8 41.4 4.55 33.5 3.3 25.6 7.95 21.05 11.75 17.4 15.95 18.05 16.9 18.2 19.25 19.25 18.55 18.4 16.7 17.7 19.75 16.35 22.85 16.5 22.05 18.45 21.6 20.55 21.05 20.0 20.2 19.7" fill="#000000" fill-rule="evenodd" stroke="none"/>
    </g>
  </defs>
</svg>
