<?xml version="1.0" encoding="UTF-8" standalone="no"?>
<svg xmlns:ffdec="https://www.free-decompiler.com/flash" xmlns:xlink="http://www.w3.org/1999/xlink" ffdec:objectType="frame" height="56.0px" width="56.0px" xmlns="http://www.w3.org/2000/svg">
  <g transform="matrix(1.0, 0.0, 0.0, 1.0, 0.0, 0.0)">
    <use ffdec:characterId="2" height="56.0" id="back" transform="matrix(1.0, 0.0, 0.0, 1.0, 0.0, 0.0)" width="56.0" xlink:href="#sprite0"/>
    <use ffdec:characterId="3" height="44.35" transform="matrix(1.0, 0.0, 0.0, 1.0, 2.0, 5.1)" width="51.35" xlink:href="#shape1"/>
  </g>
  <defs>
    <g id="sprite0" transform="matrix(1.0, 0.0, 0.0, 1.0, 0.0, 0.0)">
      <use ffdec:characterId="1" height="56.0" transform="matrix(1.0, 0.0, 0.0, 1.0, 0.0, 0.0)" width="56.0" xlink:href="#shape0"/>
    </g>
    <g id="shape0" transform="matrix(1.0, 0.0, 0.0, 1.0, 0.0, 0.0)">
      <path d="M56.0 56.0 L0.0 56.0 0.0 0.0 56.0 0.0 56.0 56.0" fill="#010101" fill-opacity="0.0" fill-rule="evenodd" stroke="none"/>
    </g>
    <g id="shape1" transform="matrix(1.0, 0.0, 0.0, 1.0, -2.0, -5.1)">
      <path d="M28.0 10.3 L27.95 10.3 27.8 11.95 Q27.1 18.85 28.3 25.6 L28.4 26.35 29.2 29.75 26.7 29.7 26.45 26.45 26.4 25.75 Q25.9 17.8 26.8 10.4 L26.2 10.6 25.35 10.85 Q19.45 16.6 17.1 23.4 16.45 25.25 16.05 27.25 14.8 27.55 13.6 26.75 L15.05 23.0 Q18.25 15.85 24.4 10.2 L24.6 9.2 Q25.1 7.7 26.25 6.75 27.4 5.8 28.15 5.9 28.95 6.0 29.25 6.95 L29.4 8.1 Q36.85 6.75 44.8 11.35 51.5 17.85 52.55 32.15 49.95 31.05 43.55 29.2 37.15 27.35 33.75 24.55 29.95 20.05 28.6 10.2 L28.0 10.3 M37.9 34.2 Q37.65 32.25 36.9 31.3 36.1 30.3 35.3 30.25 34.5 30.2 33.9 30.95 33.35 31.7 33.65 33.05 33.95 34.4 35.65 35.0 37.35 35.6 37.65 37.55 38.1 36.1 37.9 34.2 M17.5 32.95 Q18.6 27.45 26.05 26.5 L26.35 29.6 Q25.85 29.65 24.0 28.95 28.7 33.1 31.35 28.55 L29.5 29.6 28.8 26.35 Q38.2 26.15 39.3 33.05 40.45 40.05 37.85 43.6 35.3 47.1 31.5 48.15 L24.2 47.95 Q20.7 46.75 18.5 43.0 16.3 39.25 17.5 32.95 M4.0 27.4 Q6.0 21.8 14.7 22.95 L13.3 26.6 11.55 25.6 Q14.9 30.5 17.8 26.5 L16.4 27.1 Q16.8 25.25 17.45 23.5 21.2 24.45 23.2 26.35 17.75 27.9 16.9 32.75 15.6 39.45 17.95 43.4 L18.7 44.55 Q17.2 45.15 15.55 45.25 11.65 45.5 8.4 43.6 5.15 41.65 3.5 37.55 1.85 33.4 4.0 27.4 M19.8 36.95 L20.5 36.9 Q21.2 36.4 21.15 36.55 L21.4 36.6 Q21.75 36.4 21.9 37.1 22.1 37.75 22.9 37.7 L24.15 37.3 Q24.65 36.95 24.9 37.3 25.2 37.6 25.65 37.1 26.05 36.55 27.0 37.1 27.95 37.6 28.5 36.7 29.6 37.85 30.3 37.3 30.95 36.8 30.8 35.55 30.7 34.3 30.4 34.35 30.1 34.35 29.25 34.8 L28.9 34.95 Q25.5 36.6 22.65 34.5 L22.25 34.15 Q21.95 33.85 21.9 33.25 21.85 32.65 21.55 32.75 21.25 32.85 21.05 32.25 20.95 31.9 20.65 31.9 20.35 31.85 19.8 32.15 18.75 32.7 18.4 34.2 L18.15 36.05 18.1 36.45 18.3 38.45 18.7 37.15 Q19.0 36.35 19.85 36.05 L19.8 36.95 M5.7 31.85 L6.4 31.9 Q7.15 31.55 7.1 31.75 L7.35 31.8 Q7.65 31.7 7.75 32.4 7.8 33.1 8.6 33.2 L9.95 33.05 Q10.45 32.8 10.65 33.2 L11.4 33.15 Q11.9 32.7 12.75 33.45 13.45 34.0 14.25 31.85 11.1 32.4 8.85 30.0 L8.5 29.6 Q8.25 29.25 8.3 28.6 8.35 28.0 8.05 28.05 7.7 28.1 7.6 27.45 L7.25 27.0 6.4 27.1 Q5.25 27.4 4.75 28.85 L4.15 30.6 4.1 31.0 4.0 33.0 Q4.1 32.55 4.55 31.8 5.0 31.05 5.85 30.95 L5.7 31.85" fill="#000000" fill-rule="evenodd" stroke="none"/>
      <path d="M28.0 10.3 L27.95 10.3 27.8 11.95 Q27.1 18.85 28.3 25.6 L28.4 26.35 29.2 29.75 26.7 29.7 26.45 26.45 26.4 25.75 Q25.9 17.8 26.8 10.4 L26.2 10.6 25.35 10.85 Q19.45 16.6 17.1 23.4 16.45 25.25 16.05 27.25 14.8 27.55 13.6 26.75 L15.05 23.0 Q18.25 15.85 24.4 10.2 L24.6 9.2 Q25.1 7.7 26.25 6.75 27.4 5.8 28.15 5.9 28.95 6.0 29.25 6.95 L29.4 8.1 Q36.85 6.75 44.8 11.35 51.5 17.85 52.55 32.15 49.95 31.05 43.55 29.2 37.15 27.35 33.75 24.55 29.95 20.05 28.6 10.2 L28.0 10.3 M37.9 34.2 Q38.1 36.1 37.65 37.55 37.35 35.6 35.65 35.0 33.95 34.4 33.65 33.05 33.35 31.7 33.9 30.95 34.5 30.2 35.3 30.25 36.1 30.3 36.9 31.3 37.65 32.25 37.9 34.2 M17.5 32.95 Q18.6 27.45 26.05 26.5 L26.35 29.6 Q25.85 29.65 24.0 28.95 28.7 33.1 31.35 28.55 L29.5 29.6 28.8 26.35 Q38.2 26.15 39.3 33.05 40.45 40.05 37.85 43.6 35.3 47.1 31.5 48.15 L24.2 47.95 Q20.7 46.75 18.5 43.0 16.3 39.25 17.5 32.95 M4.0 27.4 Q6.0 21.8 14.7 22.95 L13.3 26.6 11.55 25.6 Q14.9 30.5 17.8 26.5 L16.4 27.1 Q16.8 25.25 17.45 23.5 21.2 24.45 23.2 26.35 17.75 27.9 16.9 32.75 15.6 39.45 17.95 43.4 L18.7 44.55 Q17.2 45.15 15.55 45.25 11.65 45.5 8.4 43.6 5.15 41.65 3.5 37.55 1.85 33.4 4.0 27.4 M19.8 36.95 L20.5 36.9 Q21.2 36.4 21.15 36.55 L21.4 36.6 Q21.75 36.4 21.9 37.1 22.1 37.75 22.9 37.7 L24.15 37.3 Q24.65 36.95 24.9 37.3 25.2 37.6 25.65 37.1 26.05 36.55 27.0 37.1 27.95 37.6 28.5 36.7 29.6 37.85 30.3 37.3 30.95 36.8 30.8 35.55 30.7 34.3 30.4 34.35 30.1 34.35 29.25 34.8 L28.9 34.95 Q25.5 36.6 22.65 34.5 L22.25 34.15 Q21.95 33.85 21.9 33.25 21.85 32.65 21.55 32.75 21.25 32.85 21.05 32.25 20.95 31.9 20.65 31.9 20.35 31.85 19.8 32.15 18.75 32.7 18.4 34.2 L18.15 36.05 18.1 36.45 18.3 38.45 18.7 37.15 Q19.0 36.35 19.85 36.05 L19.8 36.95 M5.7 31.85 L6.4 31.9 Q7.15 31.55 7.1 31.75 L7.35 31.8 Q7.65 31.7 7.75 32.4 7.8 33.1 8.6 33.2 L9.95 33.05 Q10.45 32.8 10.65 33.2 L11.4 33.15 Q11.9 32.7 12.75 33.45 13.45 34.0 14.25 31.85 11.1 32.4 8.85 30.0 L8.5 29.6 Q8.25 29.25 8.3 28.6 8.35 28.0 8.05 28.05 7.7 28.1 7.6 27.45 L7.25 27.0 6.4 27.1 Q5.25 27.4 4.75 28.85 L4.15 30.6 4.1 31.0 4.0 33.0 Q4.1 32.55 4.55 31.8 5.0 31.05 5.85 30.95 L5.7 31.85 Z" fill="none" stroke="#000000" stroke-linecap="round" stroke-linejoin="round" stroke-opacity="0.2" stroke-width="1.6"/>
      <path d="M28.0 10.3 L27.95 10.3 27.8 11.95 Q27.1 18.85 28.3 25.6 L28.4 26.35 29.2 29.75 26.7 29.7 26.45 26.45 26.4 25.75 Q25.9 17.8 26.8 10.4 L26.2 10.6 25.35 10.85 Q19.45 16.6 17.1 23.4 16.45 25.25 16.05 27.25 14.8 27.55 13.6 26.75 L15.05 23.0 Q18.25 15.85 24.4 10.2 L24.6 9.2 Q25.1 7.7 26.25 6.75 27.4 5.8 28.15 5.9 28.95 6.0 29.25 6.95 L29.4 8.1 Q36.85 6.75 44.8 11.35 51.5 17.85 52.55 32.15 49.95 31.05 43.55 29.2 37.15 27.35 33.75 24.55 29.95 20.05 28.6 10.2 L28.0 10.3 M17.5 32.95 Q18.6 27.45 26.05 26.5 L26.35 29.6 Q25.85 29.65 24.0 28.95 28.7 33.1 31.35 28.55 L29.5 29.6 28.8 26.35 Q38.2 26.15 39.3 33.05 40.45 40.05 37.85 43.6 35.3 47.1 31.5 48.15 L24.2 47.95 Q20.7 46.75 18.5 43.0 16.3 39.25 17.5 32.95 M37.9 34.2 Q37.65 32.25 36.9 31.3 36.1 30.3 35.3 30.25 34.5 30.2 33.9 30.95 33.35 31.7 33.65 33.05 33.95 34.4 35.65 35.0 37.35 35.6 37.65 37.55 38.1 36.1 37.9 34.2 M4.0 27.4 Q6.0 21.8 14.7 22.95 L13.3 26.6 11.55 25.6 Q14.9 30.5 17.8 26.5 L16.4 27.1 Q16.8 25.25 17.45 23.5 21.2 24.45 23.2 26.35 17.75 27.9 16.9 32.75 15.6 39.45 17.95 43.4 L18.7 44.55 Q17.2 45.15 15.55 45.25 11.65 45.5 8.4 43.6 5.15 41.65 3.5 37.55 1.85 33.4 4.0 27.4 M19.8 36.95 L20.5 36.9 Q21.2 36.4 21.15 36.55 L21.4 36.6 Q21.75 36.4 21.9 37.1 22.1 37.75 22.9 37.7 L24.15 37.3 Q24.65 36.95 24.9 37.3 25.2 37.6 25.65 37.1 26.05 36.55 27.0 37.1 27.95 37.6 28.5 36.7 29.6 37.85 30.3 37.3 30.95 36.8 30.8 35.55 30.7 34.3 30.4 34.35 30.1 34.35 29.25 34.8 L28.9 34.95 Q25.5 36.6 22.65 34.5 L22.25 34.15 Q21.95 33.85 21.9 33.25 21.85 32.65 21.55 32.75 21.25 32.85 21.05 32.25 20.95 31.9 20.65 31.9 20.35 31.85 19.8 32.15 18.75 32.7 18.4 34.2 L18.15 36.05 18.1 36.45 18.3 38.45 18.7 37.15 Q19.0 36.35 19.85 36.05 L19.8 36.95 M5.7 31.85 L6.4 31.9 Q7.15 31.55 7.1 31.75 L7.35 31.8 Q7.65 31.7 7.75 32.4 7.8 33.1 8.6 33.2 L9.95 33.05 Q10.45 32.8 10.65 33.2 L11.4 33.15 Q11.9 32.7 12.75 33.45 13.45 34.0 14.25 31.85 11.1 32.4 8.85 30.0 L8.5 29.6 Q8.25 29.25 8.3 28.6 8.35 28.0 8.05 28.05 7.7 28.1 7.6 27.45 L7.25 27.0 6.4 27.1 Q5.25 27.4 4.75 28.85 L4.15 30.6 4.1 31.0 4.0 33.0 Q4.1 32.55 4.55 31.8 5.0 31.05 5.85 30.95 L5.7 31.85" fill="#000000" fill-rule="evenodd" stroke="none"/>
    </g>
  </defs>
</svg>
