<?xml version="1.0" encoding="UTF-8" standalone="no"?>
<svg xmlns:ffdec="https://www.free-decompiler.com/flash" xmlns:xlink="http://www.w3.org/1999/xlink" ffdec:objectType="frame" height="56.0px" width="56.0px" xmlns="http://www.w3.org/2000/svg">
  <g transform="matrix(1.0, 0.0, 0.0, 1.0, 0.0, 0.0)">
    <use ffdec:characterId="2" height="56.0" id="back" transform="matrix(1.0, 0.0, 0.0, 1.0, 0.0, 0.0)" width="56.0" xlink:href="#sprite0"/>
    <use ffdec:characterId="3" height="48.6" transform="matrix(1.0, 0.0, 0.0, 1.0, 6.45, 3.7)" width="43.1" xlink:href="#shape1"/>
  </g>
  <defs>
    <g id="sprite0" transform="matrix(1.0, 0.0, 0.0, 1.0, 0.0, 0.0)">
      <use ffdec:characterId="1" height="56.0" transform="matrix(1.0, 0.0, 0.0, 1.0, 0.0, 0.0)" width="56.0" xlink:href="#shape0"/>
    </g>
    <g id="shape0" transform="matrix(1.0, 0.0, 0.0, 1.0, 0.0, 0.0)">
      <path d="M56.0 56.0 L0.0 56.0 0.0 0.0 56.0 0.0 56.0 56.0" fill="#010101" fill-opacity="0.0" fill-rule="evenodd" stroke="none"/>
    </g>
    <g id="shape1" transform="matrix(1.0, 0.0, 0.0, 1.0, -6.45, -3.7)">
      <path d="M39.85 5.65 L39.85 5.35 40.15 4.6 Q40.45 4.45 41.0 4.6 42.35 5.0 43.1 6.65 43.9 8.25 43.25 9.95 42.35 11.15 41.25 10.55 40.0 9.75 39.85 5.65 M48.1 26.3 L45.15 23.75 44.9 23.7 44.7 23.75 44.55 24.0 44.6 24.25 Q46.75 28.0 48.75 35.5 46.55 31.55 44.3 28.75 42.05 25.95 38.4 22.5 36.3 25.45 32.85 28.55 34.0 23.9 33.95 17.95 30.5 15.25 25.95 14.15 21.35 12.95 17.3 12.5 L29.0 11.9 Q29.2 11.15 26.6 9.1 33.55 10.75 37.45 14.9 L36.2 17.15 36.2 17.2 36.9 17.55 38.2 15.05 38.25 15.0 Q39.35 12.9 39.7 9.6 40.15 10.85 40.9 11.2 41.8 11.75 42.65 11.45 41.45 14.0 39.65 16.5 L38.25 18.1 38.8 18.65 38.85 18.6 40.05 17.2 Q45.4 19.95 48.1 26.3 M25.85 37.6 Q26.0 38.2 26.6 38.6 L27.95 39.0 28.9 38.0 Q29.25 37.35 29.1 36.7 28.9 36.15 28.2 35.7 27.6 35.3 26.8 35.2 26.25 35.7 26.0 36.35 25.65 37.0 25.85 37.6 M22.8 43.8 L21.55 43.6 Q20.9 43.8 20.3 44.3 20.1 44.95 20.35 45.65 20.6 46.4 21.1 46.65 L22.45 46.8 Q23.2 46.65 23.8 46.15 L23.6 44.75 22.8 43.8 M18.5 38.25 Q18.35 37.65 17.75 37.25 17.15 36.9 16.35 36.8 15.75 37.15 15.45 37.85 15.1 38.5 15.25 39.1 15.4 39.7 16.05 40.15 L17.5 40.6 18.35 39.5 Q18.65 38.85 18.5 38.25 M24.3 33.7 Q24.3 33.05 23.85 32.55 23.35 32.05 22.6 31.75 21.95 31.95 21.45 32.5 20.95 33.05 20.95 33.7 20.95 34.3 21.5 34.9 22.05 35.5 22.75 35.7 L23.85 34.85 24.3 33.7 M18.0 28.6 L18.15 27.35 17.5 26.1 16.1 26.15 Q15.45 26.35 15.1 26.9 14.8 27.45 14.95 28.2 15.15 29.0 15.65 29.55 L17.05 29.4 18.0 28.6 M26.95 24.3 Q27.1 23.7 26.75 23.05 L25.8 22.0 Q25.1 21.95 24.5 22.4 23.85 22.8 23.7 23.4 23.55 24.0 23.9 24.75 L24.9 25.85 26.15 25.3 26.95 24.3 M14.7 41.45 Q14.25 41.05 13.6 41.05 L12.15 41.35 Q11.8 41.9 11.85 42.7 11.9 43.4 12.35 43.85 12.75 44.3 13.6 44.35 L15.05 44.05 15.2 42.65 Q15.15 41.9 14.7 41.45 M14.9 34.45 Q14.9 33.8 14.4 33.25 L13.2 32.5 Q12.55 32.65 12.05 33.25 11.55 33.8 11.55 34.45 11.55 35.05 12.1 35.65 12.6 36.2 13.35 36.45 L14.45 35.6 14.9 34.45 M17.6 21.6 Q17.9 21.1 17.75 20.4 17.6 19.7 17.1 19.1 L15.75 19.15 Q15.05 19.4 14.75 19.95 14.4 20.45 14.55 21.25 L15.25 22.6 16.65 22.4 Q17.3 22.15 17.6 21.6 M22.0 17.8 Q22.55 17.5 22.7 16.85 L22.8 15.35 22.05 14.9 22.5 14.75 Q27.55 16.4 31.95 19.35 31.8 25.15 30.35 31.7 35.3 28.8 38.7 25.0 42.25 27.7 45.2 31.85 L45.35 34.45 Q42.45 46.45 32.9 49.6 23.35 52.7 17.0 50.8 10.6 48.8 8.25 39.25 5.8 29.3 9.45 23.15 12.5 18.1 19.7 15.6 L19.5 16.0 Q19.3 16.75 19.45 17.5 20.05 17.85 20.75 18.0 L22.0 17.8 M34.85 41.4 Q34.4 41.8 34.3 42.5 34.2 43.15 34.45 43.9 35.0 44.3 35.75 44.3 L37.0 43.95 Q37.5 43.6 37.65 42.8 37.75 42.05 37.5 41.35 L36.1 41.05 Q35.35 41.05 34.85 41.4 M35.0 35.65 Q35.1 36.3 35.6 36.65 L36.9 37.15 37.9 36.1 38.25 34.8 Q38.15 34.2 37.55 33.75 36.95 33.3 36.2 33.25 L35.3 34.4 Q34.9 35.05 35.0 35.65 M29.9 45.3 L28.9 46.05 Q28.55 46.65 28.5 47.45 28.8 48.05 29.45 48.35 L30.75 48.55 31.8 47.7 32.25 46.3 31.15 45.45 29.9 45.3" fill="#000000" fill-rule="evenodd" stroke="none"/>
      <path d="M39.85 5.65 L39.85 5.35 40.15 4.6 Q40.45 4.45 41.0 4.6 42.35 5.0 43.1 6.65 43.9 8.25 43.25 9.95 42.35 11.15 41.25 10.55 40.0 9.75 39.85 5.65 M48.1 26.3 L45.15 23.75 44.9 23.7 44.7 23.75 44.55 24.0 44.6 24.25 Q46.75 28.0 48.75 35.5 46.55 31.55 44.3 28.75 42.05 25.95 38.4 22.5 36.3 25.45 32.85 28.55 34.0 23.9 33.95 17.95 30.5 15.25 25.95 14.15 21.35 12.95 17.3 12.5 L29.0 11.9 Q29.2 11.15 26.6 9.1 33.55 10.75 37.45 14.9 L36.2 17.15 36.2 17.2 36.9 17.55 38.2 15.05 38.25 15.0 Q39.35 12.9 39.7 9.6 40.15 10.85 40.9 11.2 41.8 11.75 42.65 11.45 41.45 14.0 39.65 16.5 L38.25 18.1 38.8 18.65 38.85 18.6 40.05 17.2 Q45.4 19.95 48.1 26.3 M35.0 35.65 Q34.9 35.05 35.3 34.4 L36.2 33.25 Q36.95 33.3 37.55 33.75 38.15 34.2 38.25 34.8 L37.9 36.1 36.9 37.15 35.6 36.65 Q35.1 36.3 35.0 35.65 M34.85 41.4 Q35.35 41.05 36.1 41.05 L37.5 41.35 Q37.75 42.05 37.65 42.8 37.5 43.6 37.0 43.95 L35.75 44.3 Q35.0 44.3 34.45 43.9 34.2 43.15 34.3 42.5 34.4 41.8 34.85 41.4 M22.0 17.8 L20.75 18.0 Q20.05 17.85 19.45 17.5 19.3 16.75 19.5 16.0 L19.7 15.6 Q12.5 18.1 9.45 23.15 5.8 29.3 8.25 39.25 10.6 48.8 17.0 50.8 23.35 52.7 32.9 49.6 42.45 46.45 45.35 34.45 L45.2 31.85 Q42.25 27.7 38.7 25.0 35.3 28.8 30.35 31.7 31.8 25.15 31.95 19.35 27.55 16.4 22.5 14.75 L22.05 14.9 22.8 15.35 22.7 16.85 Q22.55 17.5 22.0 17.8 M17.6 21.6 Q17.3 22.15 16.65 22.4 L15.25 22.6 14.55 21.25 Q14.4 20.45 14.75 19.95 15.05 19.4 15.75 19.15 L17.1 19.1 Q17.6 19.7 17.75 20.4 17.9 21.1 17.6 21.6 M14.9 34.45 L14.45 35.6 13.35 36.45 Q12.6 36.2 12.1 35.65 11.55 35.05 11.55 34.45 11.55 33.8 12.05 33.25 12.55 32.65 13.2 32.5 L14.4 33.25 Q14.9 33.8 14.9 34.45 M14.7 41.45 Q15.15 41.9 15.2 42.65 L15.05 44.05 13.6 44.35 Q12.75 44.3 12.35 43.85 11.9 43.4 11.85 42.7 11.8 41.9 12.15 41.35 L13.6 41.05 Q14.25 41.05 14.7 41.45 M26.95 24.3 L26.15 25.3 24.9 25.85 23.9 24.75 Q23.55 24.0 23.7 23.4 23.85 22.8 24.5 22.4 25.1 21.95 25.8 22.0 L26.75 23.05 Q27.1 23.7 26.95 24.3 M18.0 28.6 L17.05 29.4 15.65 29.55 Q15.15 29.0 14.95 28.2 14.8 27.45 15.1 26.9 15.45 26.35 16.1 26.15 L17.5 26.1 18.15 27.35 18.0 28.6 M24.3 33.7 L23.85 34.85 22.75 35.7 Q22.05 35.5 21.5 34.9 20.95 34.3 20.95 33.7 20.95 33.05 21.45 32.5 21.95 31.95 22.6 31.75 23.35 32.05 23.85 32.55 24.3 33.05 24.3 33.7 M18.5 38.25 Q18.65 38.85 18.35 39.5 L17.5 40.6 16.05 40.15 Q15.4 39.7 15.25 39.1 15.1 38.5 15.45 37.85 15.75 37.15 16.35 36.8 17.15 36.9 17.75 37.25 18.35 37.65 18.5 38.25 M22.8 43.8 L23.6 44.75 23.8 46.15 Q23.2 46.65 22.45 46.8 L21.1 46.65 Q20.6 46.4 20.35 45.65 20.1 44.95 20.3 44.3 20.9 43.8 21.55 43.6 L22.8 43.8 M25.85 37.6 Q25.65 37.0 26.0 36.35 26.25 35.7 26.8 35.2 27.6 35.3 28.2 35.7 28.9 36.15 29.1 36.7 29.25 37.35 28.9 38.0 L27.95 39.0 26.6 38.6 Q26.0 38.2 25.85 37.6 Z" fill="none" stroke="#000000" stroke-linecap="round" stroke-linejoin="round" stroke-opacity="0.2" stroke-width="1.6"/>
      <path d="M39.85 5.65 L39.85 5.35 40.15 4.6 Q40.45 4.45 41.0 4.6 42.35 5.0 43.1 6.65 43.9 8.25 43.25 9.95 42.35 11.15 41.25 10.55 40.0 9.75 39.85 5.65 M48.1 26.3 L45.15 23.75 44.9 23.7 44.7 23.75 44.55 24.0 44.6 24.25 Q46.75 28.0 48.75 35.5 46.55 31.55 44.3 28.75 42.05 25.95 38.4 22.5 36.3 25.45 32.85 28.55 34.0 23.9 33.95 17.95 30.5 15.25 25.95 14.15 21.35 12.95 17.3 12.5 L29.0 11.9 Q29.2 11.15 26.6 9.1 33.55 10.75 37.45 14.9 L36.2 17.15 36.2 17.2 36.9 17.55 38.2 15.05 38.25 15.0 Q39.35 12.9 39.7 9.6 40.15 10.85 40.9 11.2 41.8 11.75 42.65 11.45 41.45 14.0 39.65 16.5 L38.25 18.1 38.8 18.65 38.85 18.6 40.05 17.2 Q45.4 19.95 48.1 26.3 M29.9 45.3 L28.9 46.05 Q28.55 46.65 28.5 47.45 28.8 48.05 29.45 48.35 L30.75 48.55 31.8 47.7 32.25 46.3 31.15 45.45 29.9 45.3 M25.85 37.6 Q26.0 38.2 26.6 38.6 L27.95 39.0 28.9 38.0 Q29.25 37.35 29.1 36.7 28.9 36.15 28.2 35.7 27.6 35.3 26.8 35.2 26.25 35.7 26.0 36.35 25.65 37.0 25.85 37.6 M22.8 43.8 L21.55 43.6 Q20.9 43.8 20.3 44.3 20.1 44.95 20.35 45.65 20.6 46.4 21.1 46.65 L22.45 46.8 Q23.2 46.65 23.8 46.15 L23.6 44.75 22.8 43.8 M18.5 38.25 Q18.35 37.65 17.75 37.25 17.15 36.9 16.35 36.8 15.75 37.15 15.45 37.85 15.1 38.5 15.25 39.1 15.4 39.7 16.05 40.15 L17.5 40.6 18.35 39.5 Q18.65 38.85 18.5 38.25 M24.3 33.7 Q24.3 33.05 23.85 32.55 23.35 32.05 22.6 31.75 21.95 31.95 21.45 32.5 20.95 33.05 20.95 33.7 20.95 34.3 21.5 34.9 22.05 35.5 22.75 35.7 L23.85 34.85 24.3 33.7 M18.0 28.6 L18.15 27.35 17.5 26.1 16.1 26.15 Q15.45 26.35 15.1 26.9 14.8 27.45 14.95 28.2 15.15 29.0 15.65 29.55 L17.05 29.4 18.0 28.6 M26.95 24.3 Q27.1 23.7 26.75 23.05 L25.8 22.0 Q25.1 21.95 24.5 22.4 23.85 22.8 23.7 23.4 23.55 24.0 23.9 24.75 L24.9 25.85 26.15 25.3 26.95 24.3 M14.7 41.45 Q14.25 41.05 13.6 41.05 L12.15 41.35 Q11.8 41.9 11.85 42.7 11.9 43.4 12.35 43.85 12.75 44.3 13.6 44.35 L15.05 44.05 15.2 42.65 Q15.15 41.9 14.7 41.45 M14.9 34.45 Q14.9 33.8 14.4 33.25 L13.2 32.5 Q12.55 32.65 12.05 33.25 11.55 33.8 11.55 34.45 11.55 35.05 12.1 35.65 12.6 36.2 13.35 36.45 L14.45 35.6 14.9 34.45 M17.6 21.6 Q17.9 21.1 17.75 20.4 17.6 19.7 17.1 19.1 L15.75 19.15 Q15.05 19.4 14.75 19.95 14.4 20.45 14.55 21.25 L15.25 22.6 16.65 22.4 Q17.3 22.15 17.6 21.6 M22.0 17.8 Q22.55 17.5 22.7 16.85 L22.8 15.35 22.05 14.9 22.5 14.75 Q27.55 16.4 31.95 19.35 31.8 25.15 30.35 31.7 35.3 28.8 38.7 25.0 42.25 27.7 45.2 31.85 L45.35 34.45 Q42.45 46.45 32.9 49.6 23.35 52.7 17.0 50.8 10.6 48.8 8.25 39.25 5.8 29.3 9.45 23.15 12.5 18.1 19.7 15.6 L19.5 16.0 Q19.3 16.75 19.45 17.5 20.05 17.85 20.75 18.0 L22.0 17.8 M34.85 41.4 Q34.4 41.8 34.3 42.5 34.2 43.15 34.45 43.9 35.0 44.3 35.75 44.3 L37.0 43.95 Q37.5 43.6 37.65 42.8 37.75 42.05 37.5 41.35 L36.1 41.05 Q35.35 41.05 34.85 41.4 M35.0 35.65 Q35.1 36.3 35.6 36.65 L36.9 37.15 37.9 36.1 38.25 34.8 Q38.15 34.2 37.55 33.75 36.95 33.3 36.2 33.25 L35.3 34.4 Q34.9 35.05 35.0 35.65" fill="#000000" fill-rule="evenodd" stroke="none"/>
    </g>
  </defs>
</svg>
