<?xml version="1.0" encoding="UTF-8" standalone="no"?>
<svg xmlns:ffdec="https://www.free-decompiler.com/flash" xmlns:xlink="http://www.w3.org/1999/xlink" ffdec:objectType="frame" height="56.0px" width="56.0px" xmlns="http://www.w3.org/2000/svg">
  <g transform="matrix(1.0, 0.0, 0.0, 1.0, 0.0, 0.0)">
    <use ffdec:characterId="2" height="56.0" id="back" transform="matrix(1.0, 0.0, 0.0, 1.0, 0.0, 0.0)" width="56.0" xlink:href="#sprite0"/>
    <use ffdec:characterId="3" height="49.5" transform="matrix(1.0, 0.0, 0.0, 1.0, 6.0, 3.1)" width="45.15" xlink:href="#shape1"/>
  </g>
  <defs>
    <g id="sprite0" transform="matrix(1.0, 0.0, 0.0, 1.0, 0.0, 0.0)">
      <use ffdec:characterId="1" height="56.0" transform="matrix(1.0, 0.0, 0.0, 1.0, 0.0, 0.0)" width="56.0" xlink:href="#shape0"/>
    </g>
    <g id="shape0" transform="matrix(1.0, 0.0, 0.0, 1.0, 0.0, 0.0)">
      <path d="M56.0 56.0 L0.0 56.0 0.0 0.0 56.0 0.0 56.0 56.0" fill="#010101" fill-opacity="0.0" fill-rule="evenodd" stroke="none"/>
    </g>
    <g id="shape1" transform="matrix(1.0, 0.0, 0.0, 1.0, -6.0, -3.1)">
      <path d="M43.25 39.35 Q41.45 43.95 38.65 45.8 35.8 47.6 34.55 48.0 L34.35 48.05 34.25 48.1 33.65 48.25 32.65 48.5 32.25 48.6 32.15 48.6 30.8 48.9 29.95 49.0 29.75 49.0 25.9 49.2 24.25 49.2 Q17.7 49.3 13.5 51.8 13.1 47.3 10.7 43.85 L10.7 43.9 Q8.75 41.15 8.05 38.6 7.15 35.75 7.2 34.5 L7.15 33.0 7.15 32.95 Q6.95 25.85 11.8 20.85 19.7 21.6 26.15 20.5 25.85 24.2 28.15 28.45 29.75 27.0 30.1 25.95 30.45 30.65 33.6 35.95 35.35 34.3 35.7 32.45 36.05 34.45 38.1 37.5 40.8 35.75 42.3 32.8 43.25 36.6 43.25 39.35 M12.05 41.2 Q11.4 37.75 8.35 35.15 L8.9 38.35 Q9.6 40.75 11.45 43.35 13.8 46.7 14.5 50.0 17.95 48.35 24.2 48.3 L25.9 48.3 28.5 48.2 Q27.05 45.65 23.9 46.05 25.45 44.65 24.95 44.1 24.4 43.6 22.65 44.95 23.4 39.25 20.25 38.25 17.15 37.3 13.8 41.5 13.15 36.25 12.05 41.2 M21.55 12.5 Q19.2 10.35 18.45 6.65 L23.4 7.2 Q26.25 7.65 28.2 9.75 30.15 11.8 30.7 13.9 33.05 13.35 35.5 10.65 37.95 7.95 38.25 3.9 41.1 3.8 42.8 7.1 L41.1 10.0 Q39.6 12.4 35.7 14.2 39.05 14.55 40.75 15.55 44.1 17.45 46.6 20.5 49.05 23.5 50.35 29.35 L47.6 26.9 Q51.9 34.95 46.6 41.95 45.3 43.55 43.9 44.2 45.2 40.65 44.35 36.1 43.5 31.6 42.75 29.5 41.25 33.6 38.25 35.45 35.85 31.6 35.45 27.35 35.45 31.0 33.65 34.05 L32.7 32.0 Q31.95 30.3 31.2 26.05 30.8 23.9 31.0 22.15 29.85 25.05 28.35 26.6 26.25 22.2 28.5 18.3 18.4 21.35 6.8 18.85 13.1 13.85 21.55 12.5" fill="#000000" fill-rule="evenodd" stroke="none"/>
      <path d="M43.25 39.35 Q41.45 43.95 38.65 45.8 35.8 47.6 34.55 48.0 L34.35 48.05 34.25 48.1 33.65 48.25 32.65 48.5 32.25 48.6 32.15 48.6 30.8 48.9 29.95 49.0 29.75 49.0 25.9 49.2 24.25 49.2 Q17.7 49.3 13.5 51.8 13.1 47.3 10.7 43.85 L10.7 43.9 Q8.75 41.15 8.05 38.6 7.15 35.75 7.2 34.5 L7.15 33.0 7.15 32.95 Q6.95 25.85 11.8 20.85 19.7 21.6 26.15 20.5 25.85 24.2 28.15 28.45 29.75 27.0 30.1 25.95 30.45 30.65 33.6 35.95 35.35 34.3 35.7 32.45 36.05 34.45 38.1 37.5 40.8 35.75 42.3 32.8 43.25 36.6 43.25 39.35 M21.55 12.5 Q13.1 13.85 6.8 18.85 18.4 21.35 28.5 18.3 26.25 22.2 28.35 26.6 29.85 25.05 31.0 22.15 30.8 23.9 31.2 26.05 31.95 30.3 32.7 32.0 L33.65 34.05 Q35.45 31.0 35.45 27.35 35.85 31.6 38.25 35.45 41.25 33.6 42.75 29.5 43.5 31.6 44.35 36.1 45.2 40.65 43.9 44.2 45.3 43.55 46.6 41.95 51.9 34.95 47.6 26.9 L50.35 29.35 Q49.05 23.5 46.6 20.5 44.1 17.45 40.75 15.55 39.05 14.55 35.7 14.2 39.6 12.4 41.1 10.0 L42.8 7.1 Q41.1 3.8 38.25 3.9 37.95 7.95 35.5 10.65 33.05 13.35 30.7 13.9 30.15 11.8 28.2 9.75 26.25 7.65 23.4 7.2 L18.45 6.65 Q19.2 10.35 21.55 12.5 M12.05 41.2 Q13.15 36.25 13.8 41.5 17.15 37.3 20.25 38.25 23.4 39.25 22.65 44.95 24.4 43.6 24.95 44.1 25.45 44.65 23.9 46.05 27.05 45.65 28.5 48.2 L25.9 48.3 24.2 48.3 Q17.95 48.35 14.5 50.0 13.8 46.7 11.45 43.35 9.6 40.75 8.9 38.35 L8.35 35.15 Q11.4 37.75 12.05 41.2 Z" fill="none" stroke="#000000" stroke-linecap="round" stroke-linejoin="round" stroke-opacity="0.2" stroke-width="1.6"/>
      <path d="M43.25 39.35 Q41.45 43.95 38.65 45.8 35.8 47.6 34.55 48.0 L34.35 48.05 34.25 48.1 33.65 48.25 32.65 48.5 32.25 48.6 32.15 48.6 30.8 48.9 29.95 49.0 29.75 49.0 25.9 49.2 24.25 49.2 Q17.7 49.3 13.5 51.8 13.1 47.3 10.7 43.85 L10.7 43.9 Q8.75 41.15 8.05 38.6 7.15 35.75 7.2 34.5 L7.15 33.0 7.15 32.95 Q6.95 25.85 11.8 20.85 19.7 21.6 26.15 20.5 25.85 24.2 28.15 28.45 29.75 27.0 30.1 25.95 30.45 30.65 33.6 35.95 35.35 34.3 35.7 32.45 36.05 34.45 38.1 37.5 40.8 35.75 42.3 32.8 43.25 36.6 43.25 39.35 M12.05 41.2 Q11.4 37.75 8.35 35.15 L8.9 38.35 Q9.6 40.75 11.45 43.35 13.8 46.7 14.5 50.0 17.95 48.35 24.2 48.3 L25.9 48.3 28.5 48.2 Q27.05 45.65 23.9 46.05 25.45 44.65 24.95 44.1 24.4 43.6 22.65 44.95 23.4 39.25 20.25 38.25 17.15 37.3 13.8 41.5 13.15 36.25 12.05 41.2 M21.55 12.5 Q19.2 10.35 18.45 6.65 L23.4 7.2 Q26.25 7.65 28.2 9.75 30.15 11.8 30.7 13.9 33.05 13.35 35.5 10.65 37.95 7.95 38.25 3.9 41.1 3.8 42.8 7.1 L41.1 10.0 Q39.6 12.4 35.7 14.2 39.05 14.55 40.75 15.55 44.1 17.45 46.6 20.5 49.05 23.5 50.35 29.35 L47.6 26.9 Q51.9 34.95 46.6 41.95 45.3 43.55 43.9 44.2 45.2 40.65 44.35 36.1 43.5 31.6 42.75 29.5 41.25 33.6 38.25 35.45 35.85 31.6 35.45 27.35 35.45 31.0 33.65 34.05 L32.7 32.0 Q31.95 30.3 31.2 26.05 30.8 23.9 31.0 22.15 29.85 25.05 28.35 26.6 26.25 22.2 28.5 18.3 18.4 21.35 6.8 18.85 13.1 13.85 21.55 12.5" fill="#000000" fill-rule="evenodd" stroke="none"/>
    </g>
  </defs>
</svg>
