<?xml version="1.0" encoding="UTF-8" standalone="no"?>
<svg xmlns:ffdec="https://www.free-decompiler.com/flash" xmlns:xlink="http://www.w3.org/1999/xlink" ffdec:objectType="frame" height="56.0px" width="56.0px" xmlns="http://www.w3.org/2000/svg">
  <g transform="matrix(1.0, 0.0, 0.0, 1.0, 0.0, 0.0)">
    <use ffdec:characterId="2" height="56.0" id="back" transform="matrix(1.0, 0.0, 0.0, 1.0, 0.0, 0.0)" width="56.0" xlink:href="#sprite0"/>
    <use ffdec:characterId="3" height="47.95" transform="matrix(1.0, 0.0, 0.0, 1.0, 6.4, 3.1)" width="42.75" xlink:href="#shape1"/>
  </g>
  <defs>
    <g id="sprite0" transform="matrix(1.0, 0.0, 0.0, 1.0, 0.0, 0.0)">
      <use ffdec:characterId="1" height="56.0" transform="matrix(1.0, 0.0, 0.0, 1.0, 0.0, 0.0)" width="56.0" xlink:href="#shape0"/>
    </g>
    <g id="shape0" transform="matrix(1.0, 0.0, 0.0, 1.0, 0.0, 0.0)">
      <path d="M56.0 56.0 L0.0 56.0 0.0 0.0 56.0 0.0 56.0 56.0" fill="#010101" fill-opacity="0.0" fill-rule="evenodd" stroke="none"/>
    </g>
    <g id="shape1" transform="matrix(1.0, 0.0, 0.0, 1.0, -6.4, -3.1)">
      <path d="M27.65 28.45 Q25.75 26.25 23.45 25.35 L23.75 24.8 24.4 23.25 Q25.6 20.1 25.35 17.4 L25.3 17.3 25.05 15.8 Q23.95 11.85 19.45 8.9 19.65 7.05 21.55 6.95 24.15 8.4 26.1 11.8 L26.45 10.8 26.8 10.1 Q27.6 8.45 29.2 7.0 31.1 5.2 32.4 4.75 33.7 4.3 35.65 4.0 37.6 3.7 39.85 4.55 42.1 5.35 43.65 7.7 45.2 9.95 44.05 13.3 42.9 16.65 40.25 17.25 37.6 17.85 35.55 16.65 33.55 15.45 33.35 13.0 33.15 10.5 35.7 9.25 L35.8 9.25 Q36.35 8.95 36.95 8.95 38.05 8.95 38.85 9.75 39.65 10.55 39.65 11.65 39.65 12.75 38.85 13.55 38.05 14.35 36.95 14.35 L35.7 14.0 Q36.2 15.05 37.95 15.35 40.3 15.7 41.6 13.85 42.85 12.05 42.25 10.1 41.7 8.2 40.2 7.05 38.7 5.95 35.9 5.85 33.15 5.8 30.5 8.35 28.7 10.0 27.85 12.0 27.4 13.0 27.2 14.1 L27.6 15.15 28.1 16.6 29.1 20.15 Q29.6 22.45 30.75 24.5 L31.6 25.9 32.25 26.75 Q30.05 27.4 28.25 29.2 L27.65 28.45 M22.05 19.85 Q22.9 18.8 23.9 18.1 24.0 19.95 23.3 22.0 22.45 21.15 21.45 20.55 L22.05 19.85 M24.3 39.05 L24.4 40.55 Q24.65 43.5 26.0 45.9 23.45 48.6 19.95 48.65 16.15 48.6 13.45 45.4 L12.2 43.55 Q11.5 42.4 11.15 41.1 10.65 39.35 10.65 37.4 10.65 32.7 13.45 29.35 16.15 26.15 19.95 26.15 L21.25 26.25 22.75 26.65 Q24.85 27.4 26.5 29.35 L27.25 30.35 26.75 31.0 25.85 32.4 25.8 32.55 Q24.5 35.0 24.35 38.0 L24.3 39.05 M9.15 37.4 L9.25 38.9 Q7.2 35.9 7.2 31.9 7.2 27.2 10.0 23.85 12.7 20.65 16.5 20.65 L19.25 21.1 20.65 21.8 Q21.75 22.45 22.7 23.5 L22.05 24.9 19.95 24.7 Q15.45 24.65 12.3 28.45 9.15 32.15 9.15 37.4 M44.4 39.05 L44.1 42.05 43.4 44.2 41.65 47.05 Q38.9 50.25 35.1 50.25 31.25 50.25 28.6 47.05 L27.85 46.05 27.05 44.7 Q26.1 42.85 25.9 40.6 L25.8 39.05 25.8 39.0 25.8 38.4 Q25.95 35.35 27.3 32.9 L27.45 32.6 28.05 31.7 28.55 31.05 28.6 31.0 29.05 30.5 Q30.9 28.55 33.3 28.0 L35.1 27.8 35.15 27.8 Q38.95 27.8 41.65 31.0 44.4 34.35 44.4 39.05 M35.65 19.85 L36.15 20.45 Q33.7 21.2 31.75 23.3 30.9 21.65 30.5 19.8 L29.65 16.6 Q33.1 16.9 35.65 19.85 M35.1 26.35 L33.85 26.4 32.55 24.65 Q34.5 22.35 37.0 21.7 L38.6 21.45 39.05 21.45 Q42.9 21.45 45.6 24.65 48.35 27.95 48.35 32.65 48.35 37.05 45.85 40.25 L45.9 39.05 Q45.9 33.8 42.8 30.1 39.6 26.3 35.1 26.35" fill="#000000" fill-rule="evenodd" stroke="none"/>
      <path d="M27.65 28.45 Q25.75 26.25 23.45 25.35 L23.75 24.8 24.4 23.25 Q25.6 20.1 25.35 17.4 L25.3 17.3 25.05 15.8 Q23.95 11.85 19.45 8.9 19.65 7.05 21.55 6.95 24.15 8.4 26.1 11.8 L26.45 10.8 26.8 10.1 Q27.6 8.45 29.2 7.0 31.1 5.2 32.4 4.75 33.7 4.3 35.65 4.0 37.6 3.7 39.85 4.55 42.1 5.35 43.65 7.7 45.2 9.95 44.05 13.3 42.9 16.65 40.25 17.25 37.6 17.85 35.55 16.65 33.55 15.45 33.35 13.0 33.15 10.5 35.7 9.25 L35.8 9.25 Q36.35 8.95 36.95 8.95 38.05 8.95 38.85 9.75 39.65 10.55 39.65 11.65 39.65 12.75 38.85 13.55 38.05 14.35 36.95 14.35 L35.7 14.0 Q36.2 15.05 37.95 15.35 40.3 15.7 41.6 13.85 42.85 12.05 42.25 10.1 41.7 8.2 40.2 7.05 38.7 5.95 35.9 5.85 33.15 5.8 30.5 8.35 28.7 10.0 27.85 12.0 27.4 13.0 27.2 14.1 L27.6 15.15 28.1 16.6 29.1 20.15 Q29.6 22.45 30.75 24.5 L31.6 25.9 32.25 26.75 Q30.05 27.4 28.25 29.2 L27.65 28.45 M22.05 19.85 Q22.9 18.8 23.9 18.1 24.0 19.95 23.3 22.0 22.45 21.15 21.45 20.55 L22.05 19.85 M24.3 39.05 L24.4 40.55 Q24.65 43.5 26.0 45.9 23.45 48.6 19.95 48.65 16.15 48.6 13.45 45.4 L12.2 43.55 Q11.5 42.4 11.15 41.1 10.65 39.35 10.65 37.4 10.65 32.7 13.45 29.35 16.15 26.15 19.95 26.15 L21.25 26.25 22.75 26.65 Q24.85 27.4 26.5 29.35 L27.25 30.35 26.75 31.0 25.85 32.4 25.8 32.55 Q24.5 35.0 24.35 38.0 L24.3 39.05 M9.15 37.4 L9.25 38.9 Q7.2 35.9 7.2 31.9 7.2 27.2 10.0 23.85 12.7 20.65 16.5 20.65 L19.25 21.1 20.65 21.8 Q21.75 22.45 22.7 23.5 L22.05 24.9 19.95 24.7 Q15.45 24.65 12.3 28.45 9.15 32.15 9.15 37.4 M44.4 39.05 L44.1 42.05 43.4 44.2 41.65 47.05 Q38.9 50.25 35.1 50.25 31.25 50.25 28.6 47.05 L27.85 46.05 27.05 44.7 Q26.1 42.85 25.9 40.6 L25.8 39.05 25.8 39.0 25.8 38.4 Q25.95 35.35 27.3 32.9 L27.45 32.6 28.05 31.7 28.55 31.05 28.6 31.0 29.05 30.5 Q30.9 28.55 33.3 28.0 L35.1 27.8 35.15 27.8 Q38.95 27.8 41.65 31.0 44.4 34.35 44.4 39.05 M35.65 19.85 L36.15 20.45 Q33.7 21.2 31.75 23.3 30.9 21.65 30.5 19.8 L29.65 16.6 Q33.1 16.9 35.65 19.85 M35.1 26.35 L33.85 26.4 32.55 24.65 Q34.5 22.35 37.0 21.7 L38.6 21.45 39.05 21.45 Q42.9 21.45 45.6 24.65 48.35 27.95 48.35 32.65 48.35 37.05 45.85 40.25 L45.9 39.05 Q45.9 33.8 42.8 30.1 39.6 26.3 35.1 26.35 Z" fill="none" stroke="#000000" stroke-linecap="round" stroke-linejoin="round" stroke-opacity="0.2" stroke-width="1.6"/>
      <path d="M27.65 28.45 Q25.75 26.25 23.45 25.35 L23.75 24.8 24.4 23.25 Q25.6 20.1 25.35 17.4 L25.3 17.3 25.05 15.8 Q23.95 11.85 19.45 8.9 19.65 7.05 21.55 6.95 24.15 8.4 26.1 11.8 L26.45 10.8 26.8 10.1 Q27.6 8.45 29.2 7.0 31.1 5.2 32.4 4.75 33.7 4.3 35.65 4.0 37.6 3.7 39.85 4.55 42.1 5.35 43.65 7.7 45.2 9.95 44.05 13.3 42.9 16.65 40.25 17.25 37.6 17.85 35.55 16.65 33.55 15.45 33.35 13.0 33.15 10.5 35.7 9.25 L35.8 9.25 Q36.35 8.95 36.95 8.95 38.05 8.95 38.85 9.75 39.65 10.55 39.65 11.65 39.65 12.75 38.85 13.55 38.05 14.35 36.95 14.35 L35.7 14.0 Q36.2 15.05 37.95 15.35 40.3 15.7 41.6 13.85 42.85 12.05 42.25 10.1 41.7 8.2 40.2 7.05 38.7 5.95 35.9 5.85 33.15 5.8 30.5 8.35 28.7 10.0 27.85 12.0 27.4 13.0 27.2 14.1 L27.6 15.15 28.1 16.6 29.1 20.15 Q29.6 22.45 30.75 24.5 L31.6 25.9 32.25 26.75 Q30.05 27.4 28.25 29.2 L27.65 28.45 M22.05 19.85 Q22.9 18.8 23.9 18.1 24.0 19.95 23.3 22.0 22.45 21.15 21.45 20.55 L22.05 19.85 M24.3 39.05 L24.4 40.55 Q24.65 43.5 26.0 45.9 23.45 48.6 19.95 48.65 16.15 48.6 13.45 45.4 L12.2 43.55 Q11.5 42.4 11.15 41.1 10.65 39.35 10.65 37.4 10.65 32.7 13.45 29.35 16.15 26.15 19.95 26.15 L21.25 26.25 22.75 26.65 Q24.85 27.4 26.5 29.35 L27.25 30.35 26.75 31.0 25.85 32.4 25.8 32.55 Q24.5 35.0 24.35 38.0 L24.3 39.05 M9.15 37.4 L9.25 38.9 Q7.2 35.9 7.2 31.9 7.2 27.2 10.0 23.85 12.7 20.65 16.5 20.65 L19.25 21.1 20.65 21.8 Q21.75 22.45 22.7 23.5 L22.05 24.9 19.95 24.7 Q15.45 24.65 12.3 28.45 9.15 32.15 9.15 37.4 M44.4 39.05 L44.1 42.05 43.4 44.2 41.65 47.05 Q38.9 50.25 35.1 50.25 31.25 50.25 28.6 47.05 L27.85 46.05 27.05 44.7 Q26.1 42.85 25.9 40.6 L25.8 39.05 25.8 39.0 25.8 38.4 Q25.95 35.35 27.3 32.9 L27.45 32.6 28.05 31.7 28.55 31.05 28.6 31.0 29.05 30.5 Q30.9 28.55 33.3 28.0 L35.1 27.8 35.15 27.8 Q38.95 27.8 41.65 31.0 44.4 34.35 44.4 39.05 M35.65 19.85 L36.15 20.45 Q33.7 21.2 31.75 23.3 30.9 21.65 30.5 19.8 L29.65 16.6 Q33.1 16.9 35.65 19.85 M35.1 26.35 L33.85 26.4 32.55 24.65 Q34.5 22.35 37.0 21.7 L38.6 21.45 39.05 21.45 Q42.9 21.45 45.6 24.65 48.35 27.95 48.35 32.65 48.35 37.05 45.85 40.25 L45.9 39.05 Q45.9 33.8 42.8 30.1 39.6 26.3 35.1 26.35" fill="#000000" fill-rule="evenodd" stroke="none"/>
    </g>
  </defs>
</svg>
