<?xml version="1.0" encoding="UTF-8" standalone="no"?>
<svg xmlns:ffdec="https://www.free-decompiler.com/flash" xmlns:xlink="http://www.w3.org/1999/xlink" ffdec:objectType="frame" height="56.0px" width="56.0px" xmlns="http://www.w3.org/2000/svg">
  <g transform="matrix(1.0, 0.0, 0.0, 1.0, 0.0, 0.0)">
    <use ffdec:characterId="44" ffdec:characterName="43_fla.Symbole129_1" height="56.0" id="back" transform="matrix(1.0, 0.0, 0.0, 1.0, 0.0, 0.0)" width="56.0" xlink:href="#sprite0"/>
    <use ffdec:characterId="46" height="55.55" id="back" transform="matrix(1.0, 0.0, 0.0, 1.0, 7.0, 0.45)" width="42.3" xlink:href="#sprite43"/>
    <use ffdec:characterId="48" height="54.05" id="up" transform="matrix(1.0, 0.0, 0.0, 1.0, 7.75, 1.2)" width="40.8" xlink:href="#sprite44"/>
  </g>
  <defs>
    <g id="sprite0" transform="matrix(1.0, 0.0, 0.0, 1.0, 0.0, 0.0)">
      <use ffdec:characterId="43" ffdec:characterName="43_fla.Symbole126_2" height="56.0" id="back" transform="matrix(1.0, 0.0, 0.0, 1.0, 0.0, 0.0)" width="56.0" xlink:href="#sprite1"/>
    </g>
    <g id="sprite1" transform="matrix(1.0, 0.0, 0.0, 1.0, 0.0, 0.0)">
      <use ffdec:characterId="42" ffdec:characterName="43_fla.Symbole123_3" height="56.0" id="back" transform="matrix(1.0, 0.0, 0.0, 1.0, 0.0, 0.0)" width="56.0" xlink:href="#sprite2"/>
    </g>
    <g id="sprite2" transform="matrix(1.0, 0.0, 0.0, 1.0, 0.0, 0.0)">
      <use ffdec:characterId="41" ffdec:characterName="43_fla.Symbole120_4" height="56.0" id="back" transform="matrix(1.0, 0.0, 0.0, 1.0, 0.0, 0.0)" width="56.0" xlink:href="#sprite3"/>
    </g>
    <g id="sprite3" transform="matrix(1.0, 0.0, 0.0, 1.0, 0.0, 0.0)">
      <use ffdec:characterId="40" ffdec:characterName="43_fla.Symbole117_5" height="56.0" id="back" transform="matrix(1.0, 0.0, 0.0, 1.0, 0.0, 0.0)" width="56.0" xlink:href="#sprite4"/>
    </g>
    <g id="sprite4" transform="matrix(1.0, 0.0, 0.0, 1.0, 0.0, 0.0)">
      <use ffdec:characterId="39" ffdec:characterName="43_fla.Symbole114_6" height="56.0" id="back" transform="matrix(1.0, 0.0, 0.0, 1.0, 0.0, 0.0)" width="56.0" xlink:href="#sprite5"/>
    </g>
    <g id="sprite5" transform="matrix(1.0, 0.0, 0.0, 1.0, 0.0, 0.0)">
      <use ffdec:characterId="38" ffdec:characterName="43_fla.Symbole111_7" height="56.0" id="back" transform="matrix(1.0, 0.0, 0.0, 1.0, 0.0, 0.0)" width="56.0" xlink:href="#sprite6"/>
    </g>
    <g id="sprite6" transform="matrix(1.0, 0.0, 0.0, 1.0, 0.0, 0.0)">
      <use ffdec:characterId="37" ffdec:characterName="43_fla.Symbole108_8" height="56.0" id="back" transform="matrix(1.0, 0.0, 0.0, 1.0, 0.0, 0.0)" width="56.0" xlink:href="#sprite7"/>
    </g>
    <g id="sprite7" transform="matrix(1.0, 0.0, 0.0, 1.0, 0.0, 0.0)">
      <use ffdec:characterId="36" ffdec:characterName="43_fla.Symbole105_9" height="56.0" id="back" transform="matrix(1.0, 0.0, 0.0, 1.0, 0.0, 0.0)" width="56.0" xlink:href="#sprite8"/>
    </g>
    <g id="sprite8" transform="matrix(1.0, 0.0, 0.0, 1.0, 0.0, 0.0)">
      <use ffdec:characterId="35" ffdec:characterName="43_fla.Symbole102_10" height="56.0" id="back" transform="matrix(1.0, 0.0, 0.0, 1.0, 0.0, 0.0)" width="56.0" xlink:href="#sprite9"/>
    </g>
    <g id="sprite9" transform="matrix(1.0, 0.0, 0.0, 1.0, 0.0, 0.0)">
      <use ffdec:characterId="34" ffdec:characterName="43_fla.Symbole99_11" height="56.0" id="back" transform="matrix(1.0, 0.0, 0.0, 1.0, 0.0, 0.0)" width="56.0" xlink:href="#sprite10"/>
    </g>
    <g id="sprite10" transform="matrix(1.0, 0.0, 0.0, 1.0, 0.0, 0.0)">
      <use ffdec:characterId="33" ffdec:characterName="43_fla.Symbole96_12" height="56.0" id="back" transform="matrix(1.0, 0.0, 0.0, 1.0, 0.0, 0.0)" width="56.0" xlink:href="#sprite11"/>
    </g>
    <g id="sprite11" transform="matrix(1.0, 0.0, 0.0, 1.0, 0.0, 0.0)">
      <use ffdec:characterId="32" ffdec:characterName="43_fla.Symbole93_13" height="56.0" id="back" transform="matrix(1.0, 0.0, 0.0, 1.0, 0.0, 0.0)" width="56.0" xlink:href="#sprite12"/>
    </g>
    <g id="sprite12" transform="matrix(1.0, 0.0, 0.0, 1.0, 0.0, 0.0)">
      <use ffdec:characterId="31" ffdec:characterName="43_fla.Symbole90_14" height="56.0" id="back" transform="matrix(1.0, 0.0, 0.0, 1.0, 0.0, 0.0)" width="56.0" xlink:href="#sprite13"/>
    </g>
    <g id="sprite13" transform="matrix(1.0, 0.0, 0.0, 1.0, 0.0, 0.0)">
      <use ffdec:characterId="30" ffdec:characterName="43_fla.Symbole87_15" height="56.0" id="back" transform="matrix(1.0, 0.0, 0.0, 1.0, 0.0, 0.0)" width="56.0" xlink:href="#sprite14"/>
    </g>
    <g id="sprite14" transform="matrix(1.0, 0.0, 0.0, 1.0, 0.0, 0.0)">
      <use ffdec:characterId="29" ffdec:characterName="43_fla.Symbole84_16" height="56.0" id="back" transform="matrix(1.0, 0.0, 0.0, 1.0, 0.0, 0.0)" width="56.0" xlink:href="#sprite15"/>
    </g>
    <g id="sprite15" transform="matrix(1.0, 0.0, 0.0, 1.0, 0.0, 0.0)">
      <use ffdec:characterId="28" ffdec:characterName="43_fla.Symbole81_17" height="56.0" id="back" transform="matrix(1.0, 0.0, 0.0, 1.0, 0.0, 0.0)" width="56.0" xlink:href="#sprite16"/>
    </g>
    <g id="sprite16" transform="matrix(1.0, 0.0, 0.0, 1.0, 0.0, 0.0)">
      <use ffdec:characterId="27" ffdec:characterName="43_fla.Symbole78_18" height="56.0" id="back" transform="matrix(1.0, 0.0, 0.0, 1.0, 0.0, 0.0)" width="56.0" xlink:href="#sprite17"/>
    </g>
    <g id="sprite17" transform="matrix(1.0, 0.0, 0.0, 1.0, 0.0, 0.0)">
      <use ffdec:characterId="26" ffdec:characterName="43_fla.Symbole75_19" height="56.0" id="back" transform="matrix(1.0, 0.0, 0.0, 1.0, 0.0, 0.0)" width="56.0" xlink:href="#sprite18"/>
    </g>
    <g id="sprite18" transform="matrix(1.0, 0.0, 0.0, 1.0, 0.0, 0.0)">
      <use ffdec:characterId="25" ffdec:characterName="43_fla.Symbole72_20" height="56.0" id="back" transform="matrix(1.0, 0.0, 0.0, 1.0, 0.0, 0.0)" width="56.0" xlink:href="#sprite19"/>
    </g>
    <g id="sprite19" transform="matrix(1.0, 0.0, 0.0, 1.0, 0.0, 0.0)">
      <use ffdec:characterId="24" ffdec:characterName="43_fla.Symbole69_21" height="56.0" id="back" transform="matrix(1.0, 0.0, 0.0, 1.0, 0.0, 0.0)" width="56.0" xlink:href="#sprite20"/>
    </g>
    <g id="sprite20" transform="matrix(1.0, 0.0, 0.0, 1.0, 0.0, 0.0)">
      <use ffdec:characterId="23" ffdec:characterName="43_fla.Symbole66_22" height="56.0" id="back" transform="matrix(1.0, 0.0, 0.0, 1.0, 0.0, 0.0)" width="56.0" xlink:href="#sprite21"/>
    </g>
    <g id="sprite21" transform="matrix(1.0, 0.0, 0.0, 1.0, 0.0, 0.0)">
      <use ffdec:characterId="22" ffdec:characterName="43_fla.Symbole63_23" height="56.0" id="back" transform="matrix(1.0, 0.0, 0.0, 1.0, 0.0, 0.0)" width="56.0" xlink:href="#sprite22"/>
    </g>
    <g id="sprite22" transform="matrix(1.0, 0.0, 0.0, 1.0, 0.0, 0.0)">
      <use ffdec:characterId="21" ffdec:characterName="43_fla.Symbole60_24" height="56.0" id="back" transform="matrix(1.0, 0.0, 0.0, 1.0, 0.0, 0.0)" width="56.0" xlink:href="#sprite23"/>
    </g>
    <g id="sprite23" transform="matrix(1.0, 0.0, 0.0, 1.0, 0.0, 0.0)">
      <use ffdec:characterId="20" ffdec:characterName="43_fla.Symbole57_25" height="56.0" id="back" transform="matrix(1.0, 0.0, 0.0, 1.0, 0.0, 0.0)" width="56.0" xlink:href="#sprite24"/>
    </g>
    <g id="sprite24" transform="matrix(1.0, 0.0, 0.0, 1.0, 0.0, 0.0)">
      <use ffdec:characterId="19" ffdec:characterName="43_fla.Symbole54_26" height="56.0" id="back" transform="matrix(1.0, 0.0, 0.0, 1.0, 0.0, 0.0)" width="56.0" xlink:href="#sprite25"/>
    </g>
    <g id="sprite25" transform="matrix(1.0, 0.0, 0.0, 1.0, 0.0, 0.0)">
      <use ffdec:characterId="18" ffdec:characterName="43_fla.Symbole51_27" height="56.0" id="back" transform="matrix(1.0, 0.0, 0.0, 1.0, 0.0, 0.0)" width="56.0" xlink:href="#sprite26"/>
    </g>
    <g id="sprite26" transform="matrix(1.0, 0.0, 0.0, 1.0, 0.0, 0.0)">
      <use ffdec:characterId="17" ffdec:characterName="43_fla.Symbole48_28" height="56.0" id="back" transform="matrix(1.0, 0.0, 0.0, 1.0, 0.0, 0.0)" width="56.0" xlink:href="#sprite27"/>
    </g>
    <g id="sprite27" transform="matrix(1.0, 0.0, 0.0, 1.0, 0.0, 0.0)">
      <use ffdec:characterId="16" ffdec:characterName="43_fla.Symbole45_29" height="56.0" id="back" transform="matrix(1.0, 0.0, 0.0, 1.0, 0.0, 0.0)" width="56.0" xlink:href="#sprite28"/>
    </g>
    <g id="sprite28" transform="matrix(1.0, 0.0, 0.0, 1.0, 0.0, 0.0)">
      <use ffdec:characterId="15" ffdec:characterName="43_fla.Symbole42_30" height="56.0" id="back" transform="matrix(1.0, 0.0, 0.0, 1.0, 0.0, 0.0)" width="56.0" xlink:href="#sprite29"/>
    </g>
    <g id="sprite29" transform="matrix(1.0, 0.0, 0.0, 1.0, 0.0, 0.0)">
      <use ffdec:characterId="14" ffdec:characterName="43_fla.Symbole39_31" height="56.0" id="back" transform="matrix(1.0, 0.0, 0.0, 1.0, 0.0, 0.0)" width="56.0" xlink:href="#sprite30"/>
    </g>
    <g id="sprite30" transform="matrix(1.0, 0.0, 0.0, 1.0, 0.0, 0.0)">
      <use ffdec:characterId="13" ffdec:characterName="43_fla.Symbole36_32" height="56.0" id="back" transform="matrix(1.0, 0.0, 0.0, 1.0, 0.0, 0.0)" width="56.0" xlink:href="#sprite31"/>
    </g>
    <g id="sprite31" transform="matrix(1.0, 0.0, 0.0, 1.0, 0.0, 0.0)">
      <use ffdec:characterId="12" ffdec:characterName="43_fla.Symbole33_33" height="56.0" id="back" transform="matrix(1.0, 0.0, 0.0, 1.0, 0.0, 0.0)" width="56.0" xlink:href="#sprite32"/>
    </g>
    <g id="sprite32" transform="matrix(1.0, 0.0, 0.0, 1.0, 0.0, 0.0)">
      <use ffdec:characterId="11" ffdec:characterName="43_fla.Symbole30_34" height="56.0" id="back" transform="matrix(1.0, 0.0, 0.0, 1.0, 0.0, 0.0)" width="56.0" xlink:href="#sprite33"/>
    </g>
    <g id="sprite33" transform="matrix(1.0, 0.0, 0.0, 1.0, 0.0, 0.0)">
      <use ffdec:characterId="10" ffdec:characterName="43_fla.Symbole27_35" height="56.0" id="back" transform="matrix(1.0, 0.0, 0.0, 1.0, 0.0, 0.0)" width="56.0" xlink:href="#sprite34"/>
    </g>
    <g id="sprite34" transform="matrix(1.0, 0.0, 0.0, 1.0, 0.0, 0.0)">
      <use ffdec:characterId="9" ffdec:characterName="43_fla.Symbole24_36" height="56.0" id="back" transform="matrix(1.0, 0.0, 0.0, 1.0, 0.0, 0.0)" width="56.0" xlink:href="#sprite35"/>
    </g>
    <g id="sprite35" transform="matrix(1.0, 0.0, 0.0, 1.0, 0.0, 0.0)">
      <use ffdec:characterId="8" ffdec:characterName="43_fla.Symbole21_37" height="56.0" id="back" transform="matrix(1.0, 0.0, 0.0, 1.0, 0.0, 0.0)" width="56.0" xlink:href="#sprite36"/>
    </g>
    <g id="sprite36" transform="matrix(1.0, 0.0, 0.0, 1.0, 0.0, 0.0)">
      <use ffdec:characterId="7" ffdec:characterName="43_fla.Symbole18_38" height="56.0" id="back" transform="matrix(1.0, 0.0, 0.0, 1.0, 0.0, 0.0)" width="56.0" xlink:href="#sprite37"/>
    </g>
    <g id="sprite37" transform="matrix(1.0, 0.0, 0.0, 1.0, 0.0, 0.0)">
      <use ffdec:characterId="6" ffdec:characterName="43_fla.Symbole15_39" height="56.0" id="back" transform="matrix(1.0, 0.0, 0.0, 1.0, 0.0, 0.0)" width="56.0" xlink:href="#sprite38"/>
    </g>
    <g id="sprite38" transform="matrix(1.0, 0.0, 0.0, 1.0, 0.0, 0.0)">
      <use ffdec:characterId="5" ffdec:characterName="43_fla.Symbole12_40" height="56.0" id="back" transform="matrix(1.0, 0.0, 0.0, 1.0, 0.0, 0.0)" width="56.0" xlink:href="#sprite39"/>
    </g>
    <g id="sprite39" transform="matrix(1.0, 0.0, 0.0, 1.0, 0.0, 0.0)">
      <use ffdec:characterId="4" ffdec:characterName="43_fla.Symbole9_41" height="56.0" id="back" transform="matrix(1.0, 0.0, 0.0, 1.0, 0.0, 0.0)" width="56.0" xlink:href="#sprite40"/>
    </g>
    <g id="sprite40" transform="matrix(1.0, 0.0, 0.0, 1.0, 0.0, 0.0)">
      <use ffdec:characterId="3" ffdec:characterName="43_fla.Symbole6_42" height="56.0" id="back" transform="matrix(1.0, 0.0, 0.0, 1.0, 0.0, 0.0)" width="56.0" xlink:href="#sprite41"/>
    </g>
    <g id="sprite41" transform="matrix(1.0, 0.0, 0.0, 1.0, 0.0, 0.0)">
      <use ffdec:characterId="2" height="56.0" id="back" transform="matrix(1.0, 0.0, 0.0, 1.0, 0.0, 0.0)" width="56.0" xlink:href="#sprite42"/>
    </g>
    <g id="sprite42" transform="matrix(1.0, 0.0, 0.0, 1.0, 0.0, 0.0)">
      <use ffdec:characterId="1" height="56.0" transform="matrix(1.0, 0.0, 0.0, 1.0, 0.0, 0.0)" width="56.0" xlink:href="#shape0"/>
    </g>
    <g id="shape0" transform="matrix(1.0, 0.0, 0.0, 1.0, 0.0, 0.0)">
      <path d="M56.0 56.0 L0.0 56.0 0.0 0.0 56.0 0.0 56.0 56.0" fill="#010101" fill-opacity="0.0" fill-rule="evenodd" stroke="none"/>
    </g>
    <g id="sprite43" transform="matrix(1.0, 0.0, 0.0, 1.0, 0.75, 0.75)">
      <use ffdec:characterId="45" height="55.55" transform="matrix(1.0, 0.0, 0.0, 1.0, -0.75, -0.75)" width="42.3" xlink:href="#shape1"/>
    </g>
    <g id="shape1" transform="matrix(1.0, 0.0, 0.0, 1.0, 0.75, 0.75)">
      <path d="M38.45 32.0 Q39.75 32.85 40.5 34.35 40.6 34.6 40.75 34.35 40.95 32.55 39.95 30.65 38.9 28.5 36.85 27.0 L34.7 25.65 Q35.85 25.5 36.25 25.0 36.7 24.1 36.25 23.5 34.95 21.8 31.3 21.6 28.55 21.5 25.95 22.65 24.85 23.1 22.45 25.3 L22.4 25.25 22.45 24.85 Q23.05 23.55 24.45 22.2 L26.8 19.7 29.55 15.9 30.4 13.55 Q31.3 9.5 29.4 6.05 26.8 6.6 24.0 9.65 25.0 5.6 21.55 1.3 L20.3 0.0 19.25 1.3 Q15.75 5.6 16.8 9.65 13.85 6.6 11.25 6.05 9.35 9.5 10.4 13.55 L11.25 15.9 Q12.1 17.65 14.0 19.7 L16.35 22.2 Q17.65 23.55 18.35 24.85 L18.35 25.25 18.35 25.3 Q15.8 23.1 14.7 22.65 12.1 21.5 9.45 21.6 5.75 21.8 4.55 23.5 3.95 24.1 4.5 25.0 4.8 25.5 6.05 25.65 4.8 26.3 3.85 27.0 1.75 28.5 0.8 30.65 -0.2 32.55 0.05 34.35 0.05 34.6 0.2 34.35 0.9 32.85 2.35 32.0 3.65 31.05 5.2 31.1 7.3 31.1 9.5 33.05 11.5 34.6 13.55 35.2 L17.75 34.95 Q19.0 38.15 19.25 40.15 L19.25 40.55 19.25 43.8 19.15 43.8 Q18.2 41.9 16.6 40.55 14.9 39.3 13.15 38.85 11.9 38.45 10.4 38.85 8.45 39.25 7.35 40.55 6.75 41.3 6.45 42.3 5.6 45.15 7.5 47.7 9.35 49.95 12.45 49.85 13.75 49.7 13.55 49.25 12.75 47.75 13.15 47.15 13.2 46.45 13.4 46.25 14.05 45.55 14.9 45.55 16.35 45.4 17.5 46.6 18.4 47.45 18.95 48.95 L19.15 50.7 Q18.8 52.55 18.95 53.1 19.15 54.05 20.3 54.05 21.55 54.05 21.75 53.1 L21.6 50.7 Q21.55 49.95 21.85 48.95 22.3 47.45 23.3 46.6 24.35 45.4 25.7 45.55 26.55 45.55 27.4 46.25 L27.65 47.15 Q27.85 47.75 27.25 49.25 26.95 49.7 28.3 49.85 31.3 49.95 33.2 47.7 35.15 45.15 34.25 42.3 34.05 41.3 33.4 40.55 32.2 39.25 30.4 38.85 28.7 38.45 27.55 38.85 25.7 39.3 24.2 40.55 22.45 41.9 21.55 43.8 L21.4 43.8 Q21.3 42.3 21.55 40.55 L21.55 40.15 Q21.75 38.15 22.9 34.95 L27.25 35.2 Q29.15 34.6 31.15 33.05 33.4 31.25 35.55 31.1 37.1 31.05 38.45 32.0 Z" fill="none" stroke="#000000" stroke-linecap="round" stroke-linejoin="round" stroke-opacity="0.2" stroke-width="1.5"/>
    </g>
    <g id="sprite44" transform="matrix(1.0, 0.0, 0.0, 1.0, 0.0, 0.0)">
      <use ffdec:characterId="47" height="54.05" transform="matrix(1.0, 0.0, 0.0, 1.0, 0.0, 0.0)" width="40.8" xlink:href="#shape2"/>
    </g>
    <g id="shape2" transform="matrix(1.0, 0.0, 0.0, 1.0, 0.0, 0.0)">
      <path d="M40.5 34.35 Q39.75 32.85 38.45 32.0 37.1 31.05 35.55 31.1 33.4 31.25 31.15 33.05 29.15 34.6 27.25 35.2 L22.9 34.95 Q21.75 38.15 21.55 40.15 L21.55 40.55 Q21.3 42.3 21.4 43.8 L21.55 43.8 Q22.45 41.9 24.2 40.55 25.7 39.3 27.55 38.85 28.7 38.45 30.4 38.85 32.2 39.25 33.4 40.55 34.05 41.3 34.25 42.3 35.15 45.15 33.2 47.7 31.3 49.95 28.3 49.85 26.95 49.7 27.25 49.25 27.85 47.75 27.65 47.15 L27.4 46.25 Q26.55 45.55 25.7 45.55 24.35 45.4 23.3 46.6 22.3 47.45 21.85 48.95 21.55 49.95 21.6 50.7 L21.75 53.1 Q21.55 54.05 20.3 54.05 19.15 54.05 18.95 53.1 18.8 52.55 19.15 50.7 L18.95 48.95 Q18.4 47.45 17.5 46.6 16.35 45.4 14.9 45.55 14.05 45.55 13.4 46.25 13.2 46.45 13.15 47.15 12.75 47.75 13.55 49.25 13.75 49.7 12.45 49.85 9.35 49.95 7.5 47.7 5.6 45.15 6.45 42.3 6.75 41.3 7.35 40.55 8.45 39.25 10.4 38.85 11.9 38.45 13.15 38.85 14.9 39.3 16.6 40.55 18.2 41.9 19.15 43.8 L19.25 43.8 19.25 40.55 19.25 40.15 Q19.0 38.15 17.75 34.95 L13.55 35.2 Q11.5 34.6 9.5 33.05 7.3 31.1 5.2 31.1 3.65 31.05 2.35 32.0 0.9 32.85 0.2 34.35 0.05 34.6 0.05 34.35 -0.2 32.55 0.8 30.65 1.75 28.5 3.85 27.0 4.8 26.3 6.05 25.65 4.8 25.5 4.5 25.0 3.95 24.1 4.55 23.5 5.75 21.8 9.45 21.6 12.1 21.5 14.7 22.65 15.8 23.1 18.35 25.3 L18.35 25.25 18.35 24.85 Q17.65 23.55 16.35 22.2 L14.0 19.7 Q12.1 17.65 11.25 15.9 L10.4 13.55 Q9.35 9.5 11.25 6.05 13.85 6.6 16.8 9.65 15.75 5.6 19.25 1.3 L20.3 0.0 21.55 1.3 Q25.0 5.6 24.0 9.65 26.8 6.6 29.4 6.05 31.3 9.5 30.4 13.55 L29.55 15.9 26.8 19.7 24.45 22.2 Q23.05 23.55 22.45 24.85 L22.4 25.25 22.45 25.3 Q24.85 23.1 25.95 22.65 28.55 21.5 31.3 21.6 34.95 21.8 36.25 23.5 36.7 24.1 36.25 25.0 35.85 25.5 34.7 25.65 L36.85 27.0 Q38.9 28.5 39.95 30.65 40.95 32.55 40.75 34.35 40.6 34.6 40.5 34.35" fill="#000000" fill-rule="evenodd" stroke="none"/>
    </g>
  </defs>
</svg>
