<?xml version="1.0" encoding="UTF-8" standalone="no"?>
<svg xmlns:ffdec="https://www.free-decompiler.com/flash" xmlns:xlink="http://www.w3.org/1999/xlink" ffdec:objectType="frame" height="56.0px" width="56.0px" xmlns="http://www.w3.org/2000/svg">
  <g transform="matrix(1.0, 0.0, 0.0, 1.0, 0.0, 0.0)">
    <use ffdec:characterId="2" height="56.0" id="back" transform="matrix(1.0, 0.0, 0.0, 1.0, 0.0, 0.0)" width="56.0" xlink:href="#sprite0"/>
    <use ffdec:characterId="3" height="46.3" transform="matrix(1.0, 0.0, 0.0, 1.0, 4.1, 4.75)" width="47.0" xlink:href="#shape1"/>
  </g>
  <defs>
    <g id="sprite0" transform="matrix(1.0, 0.0, 0.0, 1.0, 0.0, 0.0)">
      <use ffdec:characterId="1" height="56.0" transform="matrix(1.0, 0.0, 0.0, 1.0, 0.0, 0.0)" width="56.0" xlink:href="#shape0"/>
    </g>
    <g id="shape0" transform="matrix(1.0, 0.0, 0.0, 1.0, 0.0, 0.0)">
      <path d="M56.0 56.0 L0.0 56.0 0.0 0.0 56.0 0.0 56.0 56.0" fill="#010101" fill-opacity="0.0" fill-rule="evenodd" stroke="none"/>
    </g>
    <g id="shape1" transform="matrix(1.0, 0.0, 0.0, 1.0, -4.1, -4.75)">
      <path d="M45.4 6.1 Q45.3 8.75 45.7 12.45 47.85 13.25 48.95 15.05 50.05 16.85 49.8 19.1 49.5 21.35 48.0 23.05 L49.1 23.8 Q50.3 25.05 50.3 26.8 50.3 28.55 49.1 29.8 L48.0 30.6 Q49.0 31.75 49.0 33.4 49.0 35.1 47.75 36.35 46.95 37.15 45.95 37.45 L46.1 37.9 Q46.35 39.5 45.45 41.0 44.6 42.5 43.1 43.05 41.75 43.6 40.6 43.05 40.85 44.05 40.25 45.25 39.45 46.7 37.8 47.5 36.15 48.3 34.55 47.95 L33.05 47.35 Q32.85 48.15 32.1 48.85 31.0 50.05 29.3 50.25 27.5 50.4 26.15 49.5 L25.0 48.25 24.35 48.9 Q23.1 49.9 21.35 49.9 19.6 49.9 18.4 48.9 17.7 48.35 17.35 47.65 L15.65 48.05 Q14.05 48.05 12.9 46.9 12.15 46.1 11.85 45.15 L11.4 44.9 4.9 37.0 Q5.15 34.7 7.2 32.85 9.9 35.55 13.15 36.1 L14.1 35.65 Q15.7 33.55 18.3 33.25 20.1 33.05 21.65 33.7 L22.4 32.6 Q24.05 30.55 26.6 30.2 L28.4 30.25 Q28.65 28.65 29.75 27.25 31.4 25.25 34.0 24.95 L35.15 24.85 Q35.3 23.15 36.45 21.7 37.45 20.45 38.85 19.9 L38.7 19.05 Q38.4 16.8 39.9 14.95 40.6 14.0 42.0 13.25 40.8 10.7 38.6 8.9 41.05 4.25 45.4 6.1 M14.85 36.7 Q14.5 37.85 14.6 38.55 L14.85 39.05 Q17.05 39.75 26.1 38.0 21.55 41.6 14.7 41.7 13.9 42.1 14.3 43.35 15.6 44.15 18.25 43.4 21.25 45.1 24.05 43.9 L24.25 43.8 Q24.9 44.35 26.15 44.7 27.45 45.05 29.45 44.2 31.45 43.3 31.75 42.4 35.0 42.25 36.45 41.2 37.85 40.1 38.0 38.95 L39.0 38.8 Q41.7 37.65 42.35 34.75 45.55 33.45 44.85 29.35 47.35 26.45 45.3 22.5 48.15 17.35 43.8 13.8 L42.3 14.15 42.3 14.2 Q41.4 14.6 40.8 15.5 39.65 16.9 39.9 18.7 40.0 19.85 40.65 20.7 38.7 20.95 37.4 22.5 36.2 24.1 36.45 26.0 L36.5 26.55 34.15 26.25 Q32.15 26.5 30.9 28.05 29.7 29.6 29.95 31.55 L30.1 32.35 Q28.6 31.3 26.75 31.5 24.75 31.75 23.5 33.25 22.6 34.45 22.55 35.8 L22.0 35.4 Q20.45 34.2 18.45 34.45 16.45 34.7 15.2 36.2 L14.9 36.7 14.85 36.7" fill="#000000" fill-rule="evenodd" stroke="none"/>
      <path d="M45.4 6.1 Q45.3 8.75 45.7 12.45 47.85 13.25 48.95 15.05 50.05 16.85 49.8 19.1 49.5 21.35 48.0 23.05 L49.1 23.8 Q50.3 25.05 50.3 26.8 50.3 28.55 49.1 29.8 L48.0 30.6 Q49.0 31.75 49.0 33.4 49.0 35.1 47.75 36.35 46.95 37.15 45.95 37.45 L46.1 37.9 Q46.35 39.5 45.45 41.0 44.6 42.5 43.1 43.05 41.75 43.6 40.6 43.05 40.85 44.05 40.25 45.25 39.45 46.7 37.8 47.5 36.15 48.3 34.55 47.95 L33.05 47.35 Q32.85 48.15 32.1 48.85 31.0 50.05 29.3 50.25 27.5 50.4 26.15 49.5 L25.0 48.25 24.35 48.9 Q23.1 49.9 21.35 49.9 19.6 49.9 18.4 48.9 17.7 48.35 17.35 47.65 L15.65 48.05 Q14.05 48.05 12.9 46.9 12.15 46.1 11.85 45.15 L11.4 44.9 4.9 37.0 Q5.15 34.7 7.2 32.85 9.9 35.55 13.15 36.1 L14.1 35.65 Q15.7 33.55 18.3 33.25 20.1 33.05 21.65 33.7 L22.4 32.6 Q24.05 30.55 26.6 30.2 L28.4 30.25 Q28.65 28.65 29.75 27.25 31.4 25.25 34.0 24.95 L35.15 24.85 Q35.3 23.15 36.45 21.7 37.45 20.45 38.85 19.9 L38.7 19.05 Q38.4 16.8 39.9 14.95 40.6 14.0 42.0 13.25 40.8 10.7 38.6 8.9 41.05 4.25 45.4 6.1 M14.85 36.7 L14.9 36.7 15.2 36.2 Q16.45 34.7 18.45 34.45 20.45 34.2 22.0 35.4 L22.55 35.8 Q22.6 34.45 23.5 33.25 24.75 31.75 26.75 31.5 28.6 31.3 30.1 32.35 L29.95 31.55 Q29.7 29.6 30.9 28.05 32.15 26.5 34.15 26.25 L36.5 26.55 36.45 26.0 Q36.2 24.1 37.4 22.5 38.7 20.95 40.65 20.7 40.0 19.85 39.9 18.7 39.65 16.9 40.8 15.5 41.4 14.6 42.3 14.2 L42.3 14.15 43.8 13.8 Q48.15 17.35 45.3 22.5 47.35 26.45 44.85 29.35 45.55 33.45 42.35 34.75 41.7 37.65 39.0 38.8 L38.0 38.95 Q37.85 40.1 36.45 41.2 35.0 42.25 31.75 42.4 31.45 43.3 29.45 44.2 27.45 45.05 26.15 44.7 24.9 44.35 24.25 43.8 L24.05 43.9 Q21.25 45.1 18.25 43.4 15.6 44.15 14.3 43.35 13.9 42.1 14.7 41.7 21.55 41.6 26.1 38.0 17.05 39.75 14.85 39.05 L14.6 38.55 Q14.5 37.85 14.85 36.7 Z" fill="none" stroke="#000000" stroke-linecap="round" stroke-linejoin="round" stroke-opacity="0.2" stroke-width="1.6"/>
      <path d="M14.85 36.7 Q14.5 37.85 14.6 38.55 L14.85 39.05 Q17.05 39.75 26.1 38.0 21.55 41.6 14.7 41.7 13.9 42.1 14.3 43.35 15.6 44.15 18.25 43.4 21.25 45.1 24.05 43.9 L24.25 43.8 Q24.9 44.35 26.15 44.7 27.45 45.05 29.45 44.2 31.45 43.3 31.75 42.4 35.0 42.25 36.45 41.2 37.85 40.1 38.0 38.95 L39.0 38.8 Q41.7 37.65 42.35 34.75 45.55 33.45 44.85 29.35 47.35 26.45 45.3 22.5 48.15 17.35 43.8 13.8 L42.3 14.15 42.3 14.2 Q41.4 14.6 40.8 15.5 39.65 16.9 39.9 18.7 40.0 19.85 40.65 20.7 38.7 20.95 37.4 22.5 36.2 24.1 36.45 26.0 L36.5 26.55 34.15 26.25 Q32.15 26.5 30.9 28.05 29.7 29.6 29.95 31.55 L30.1 32.35 Q28.6 31.3 26.75 31.5 24.75 31.75 23.5 33.25 22.6 34.45 22.55 35.8 L22.0 35.4 Q20.45 34.2 18.45 34.45 16.45 34.7 15.2 36.2 L14.9 36.7 14.85 36.7 M45.4 6.1 Q45.3 8.75 45.7 12.45 47.85 13.25 48.95 15.05 50.05 16.85 49.8 19.1 49.5 21.35 48.0 23.05 L49.1 23.8 Q50.3 25.05 50.3 26.8 50.3 28.55 49.1 29.8 L48.0 30.6 Q49.0 31.75 49.0 33.4 49.0 35.1 47.75 36.35 46.95 37.15 45.95 37.45 L46.1 37.9 Q46.35 39.5 45.45 41.0 44.6 42.5 43.1 43.05 41.75 43.6 40.6 43.05 40.85 44.05 40.25 45.25 39.45 46.7 37.8 47.5 36.15 48.3 34.55 47.95 L33.05 47.35 Q32.85 48.15 32.1 48.85 31.0 50.05 29.3 50.25 27.5 50.4 26.15 49.5 L25.0 48.25 24.35 48.9 Q23.1 49.9 21.35 49.9 19.6 49.9 18.4 48.9 17.7 48.35 17.35 47.65 L15.65 48.05 Q14.05 48.05 12.9 46.9 12.15 46.1 11.85 45.15 L11.4 44.9 4.9 37.0 Q5.15 34.7 7.2 32.85 9.9 35.55 13.15 36.1 L14.1 35.65 Q15.7 33.55 18.3 33.25 20.1 33.05 21.65 33.7 L22.4 32.6 Q24.05 30.55 26.6 30.2 L28.4 30.25 Q28.65 28.65 29.75 27.25 31.4 25.25 34.0 24.95 L35.15 24.85 Q35.3 23.15 36.45 21.7 37.45 20.45 38.85 19.9 L38.7 19.05 Q38.4 16.8 39.9 14.95 40.6 14.0 42.0 13.25 40.8 10.7 38.6 8.9 41.05 4.25 45.4 6.1" fill="#000000" fill-rule="evenodd" stroke="none"/>
    </g>
  </defs>
</svg>
