<?xml version="1.0" encoding="UTF-8" standalone="no"?>
<svg xmlns:ffdec="https://www.free-decompiler.com/flash" xmlns:xlink="http://www.w3.org/1999/xlink" ffdec:objectType="frame" height="56.0px" width="56.0px" xmlns="http://www.w3.org/2000/svg">
  <g transform="matrix(1.0, 0.0, 0.0, 1.0, 0.0, 0.0)">
    <use ffdec:characterId="2" height="56.0" id="back" transform="matrix(1.0, 0.0, 0.0, 1.0, 0.0, 0.0)" width="56.0" xlink:href="#sprite0"/>
    <use ffdec:characterId="3" height="46.8" transform="matrix(1.0, 0.0, 0.0, 1.0, 7.25, 4.25)" width="44.8" xlink:href="#shape1"/>
  </g>
  <defs>
    <g id="sprite0" transform="matrix(1.0, 0.0, 0.0, 1.0, 0.0, 0.0)">
      <use ffdec:characterId="1" height="56.0" transform="matrix(1.0, 0.0, 0.0, 1.0, 0.0, 0.0)" width="56.0" xlink:href="#shape0"/>
    </g>
    <g id="shape0" transform="matrix(1.0, 0.0, 0.0, 1.0, 0.0, 0.0)">
      <path d="M56.0 56.0 L0.0 56.0 0.0 0.0 56.0 0.0 56.0 56.0" fill="#010101" fill-opacity="0.0" fill-rule="evenodd" stroke="none"/>
    </g>
    <g id="shape1" transform="matrix(1.0, 0.0, 0.0, 1.0, -7.25, -4.25)">
      <path d="M8.5 19.0 Q9.3 16.1 10.6 14.15 L10.7 12.65 10.65 11.75 Q10.55 11.1 9.3 9.1 L8.05 7.0 Q7.95 6.6 8.85 5.9 L9.95 5.05 12.0 8.4 13.75 11.1 Q12.35 10.15 13.55 11.0 L13.8 11.15 14.2 11.4 15.45 11.4 Q20.1 11.8 27.15 17.65 L24.15 18.6 19.3 18.4 Q20.55 19.4 20.8 21.8 21.0 24.3 20.35 24.6 16.85 23.9 14.35 20.35 14.55 23.35 9.45 27.65 7.7 21.85 8.5 19.0 M46.85 32.35 Q47.2 31.9 47.05 31.2 46.9 30.55 46.3 30.05 45.7 29.6 45.0 29.55 44.25 29.55 43.9 30.05 43.55 30.5 43.7 31.15 43.85 31.85 44.45 32.35 L45.8 32.85 Q46.45 32.85 46.85 32.35 M39.8 29.4 L40.9 28.95 Q41.55 28.5 40.75 27.95 39.55 27.15 37.5 26.7 L35.75 26.3 33.1 25.4 Q30.7 24.55 29.1 23.2 29.8 24.75 31.7 26.6 L32.75 27.55 Q34.1 28.65 35.55 29.2 36.8 29.75 38.15 29.7 L39.8 29.4 M41.25 24.85 Q51.2 26.35 51.25 37.5 51.25 48.6 40.3 50.05 29.35 51.5 21.15 43.1 12.95 34.7 11.15 27.95 L11.1 27.85 Q15.35 23.85 15.05 22.65 17.15 25.65 21.3 25.8 21.95 24.4 21.85 22.55 21.75 20.7 21.1 19.55 L25.5 19.1 Q31.25 23.3 41.25 24.85" fill="#000000" fill-rule="evenodd" stroke="none"/>
      <path d="M8.5 19.0 Q9.3 16.1 10.6 14.15 L10.7 12.65 10.65 11.75 Q10.55 11.1 9.3 9.1 L8.05 7.0 Q7.95 6.6 8.85 5.9 L9.95 5.05 12.0 8.4 13.75 11.1 Q12.35 10.15 13.55 11.0 L13.8 11.15 14.2 11.4 15.45 11.4 Q20.1 11.8 27.15 17.65 L24.15 18.6 19.3 18.4 Q20.55 19.4 20.8 21.8 21.0 24.3 20.35 24.6 16.85 23.9 14.35 20.35 14.55 23.35 9.45 27.65 7.7 21.85 8.5 19.0 M39.8 29.4 L38.15 29.7 Q36.8 29.75 35.55 29.2 34.1 28.65 32.75 27.55 L31.7 26.6 Q29.8 24.75 29.1 23.2 30.7 24.55 33.1 25.4 L35.75 26.3 37.5 26.7 Q39.55 27.15 40.75 27.95 41.55 28.5 40.9 28.95 L39.8 29.4 M46.85 32.35 Q46.45 32.85 45.8 32.85 L44.45 32.35 Q43.85 31.85 43.7 31.15 43.55 30.5 43.9 30.05 44.25 29.55 45.0 29.55 45.7 29.6 46.3 30.05 46.9 30.55 47.05 31.2 47.2 31.9 46.85 32.35 M41.25 24.85 Q51.2 26.35 51.25 37.5 51.25 48.6 40.3 50.05 29.35 51.5 21.15 43.1 12.95 34.7 11.15 27.95 L11.1 27.85 Q15.35 23.85 15.05 22.65 17.15 25.65 21.3 25.8 21.95 24.4 21.85 22.55 21.75 20.7 21.1 19.55 L25.5 19.1 Q31.25 23.3 41.25 24.85 Z" fill="none" stroke="#000000" stroke-linecap="round" stroke-linejoin="round" stroke-opacity="0.2" stroke-width="1.6"/>
      <path d="M8.5 19.0 Q9.3 16.1 10.6 14.15 L10.7 12.65 10.65 11.75 Q10.55 11.1 9.3 9.1 L8.05 7.0 Q7.95 6.6 8.85 5.9 L9.95 5.05 12.0 8.4 13.75 11.1 Q12.35 10.15 13.55 11.0 L13.8 11.15 14.2 11.4 15.45 11.4 Q20.1 11.8 27.15 17.65 L24.15 18.6 19.3 18.4 Q20.55 19.4 20.8 21.8 21.0 24.3 20.35 24.6 16.85 23.9 14.35 20.35 14.55 23.35 9.45 27.65 7.7 21.85 8.5 19.0 M46.85 32.35 Q47.2 31.9 47.05 31.2 46.9 30.55 46.3 30.05 45.7 29.6 45.0 29.55 44.25 29.55 43.9 30.05 43.55 30.5 43.7 31.15 43.85 31.85 44.45 32.35 L45.8 32.85 Q46.45 32.85 46.85 32.35 M39.8 29.4 L40.9 28.95 Q41.55 28.5 40.75 27.95 39.55 27.15 37.5 26.7 L35.75 26.3 33.1 25.4 Q30.7 24.55 29.1 23.2 29.8 24.75 31.7 26.6 L32.75 27.55 Q34.1 28.65 35.55 29.2 36.8 29.75 38.15 29.7 L39.8 29.4 M41.25 24.85 Q51.2 26.35 51.25 37.5 51.25 48.6 40.3 50.05 29.35 51.5 21.15 43.1 12.95 34.7 11.15 27.95 L11.1 27.85 Q15.35 23.85 15.05 22.65 17.15 25.65 21.3 25.8 21.95 24.4 21.85 22.55 21.75 20.7 21.1 19.55 L25.5 19.1 Q31.25 23.3 41.25 24.85" fill="#000000" fill-rule="evenodd" stroke="none"/>
    </g>
  </defs>
</svg>
