<?xml version="1.0" encoding="UTF-8" standalone="no"?>
<svg xmlns:ffdec="https://www.free-decompiler.com/flash" xmlns:xlink="http://www.w3.org/1999/xlink" ffdec:objectType="frame" height="56.0px" width="56.0px" xmlns="http://www.w3.org/2000/svg">
  <g transform="matrix(1.0, 0.0, 0.0, 1.0, 0.0, 0.0)">
    <use ffdec:characterId="2" height="56.0" id="back" transform="matrix(1.0, 0.0, 0.0, 1.0, 0.0, 0.0)" width="56.0" xlink:href="#sprite0"/>
    <use ffdec:characterId="3" height="47.65" transform="matrix(1.0, 0.0, 0.0, 1.0, 1.7, 4.4)" width="52.25" xlink:href="#shape1"/>
  </g>
  <defs>
    <g id="sprite0" transform="matrix(1.0, 0.0, 0.0, 1.0, 0.0, 0.0)">
      <use ffdec:characterId="1" height="56.0" transform="matrix(1.0, 0.0, 0.0, 1.0, 0.0, 0.0)" width="56.0" xlink:href="#shape0"/>
    </g>
    <g id="shape0" transform="matrix(1.0, 0.0, 0.0, 1.0, 0.0, 0.0)">
      <path d="M56.0 56.0 L0.0 56.0 0.0 0.0 56.0 0.0 56.0 56.0" fill="#010101" fill-opacity="0.0" fill-rule="evenodd" stroke="none"/>
    </g>
    <g id="shape1" transform="matrix(1.0, 0.0, 0.0, 1.0, -1.7, -4.4)">
      <path d="M10.45 35.35 L9.8 34.75 Q8.05 33.0 8.05 30.4 L8.05 30.35 Q8.05 27.8 9.8 26.0 11.65 24.2 14.2 24.2 L17.85 24.2 Q11.75 15.8 28.0 12.05 30.6 10.8 26.35 7.2 24.6 6.15 25.85 5.25 33.65 4.45 38.55 11.3 44.1 18.95 36.65 24.2 L41.25 24.2 Q43.85 24.2 45.65 26.0 47.45 27.8 47.45 30.35 L47.45 30.4 Q47.45 33.0 45.65 34.75 L45.0 35.35 45.2 35.35 Q48.5 35.35 50.85 37.65 53.2 40.0 53.2 43.3 53.2 46.65 50.85 49.0 48.5 51.3 45.2 51.3 L10.45 51.3 Q8.65 51.3 7.15 50.6 5.9 50.05 4.8 49.0 2.45 46.65 2.45 43.3 2.45 40.0 4.8 37.65 L7.15 36.0 Q8.65 35.35 10.45 35.35" fill="#000000" fill-rule="evenodd" stroke="none"/>
      <path d="M10.45 35.35 L9.8 34.75 Q8.05 33.0 8.05 30.4 L8.05 30.35 Q8.05 27.8 9.8 26.0 11.65 24.2 14.2 24.2 L17.85 24.2 Q11.75 15.8 28.0 12.05 30.6 10.8 26.35 7.2 24.6 6.15 25.85 5.25 33.65 4.45 38.55 11.3 44.1 18.95 36.65 24.2 L41.25 24.2 Q43.85 24.2 45.65 26.0 47.45 27.8 47.45 30.35 L47.45 30.4 Q47.45 33.0 45.65 34.75 L45.0 35.35 45.2 35.35 Q48.5 35.35 50.85 37.65 53.2 40.0 53.2 43.3 53.2 46.65 50.85 49.0 48.5 51.3 45.2 51.3 L10.45 51.3 Q8.65 51.3 7.15 50.6 5.9 50.05 4.8 49.0 2.45 46.65 2.45 43.3 2.45 40.0 4.8 37.65 L7.15 36.0 Q8.65 35.35 10.45 35.35 Z" fill="none" stroke="#000000" stroke-linecap="round" stroke-linejoin="round" stroke-opacity="0.2" stroke-width="1.5"/>
      <path d="M10.45 35.35 L9.8 34.75 Q8.05 33.0 8.05 30.4 L8.05 30.35 Q8.05 27.8 9.8 26.0 11.65 24.2 14.2 24.2 L17.85 24.2 Q11.75 15.8 28.0 12.05 30.6 10.8 26.35 7.2 24.6 6.15 25.85 5.25 33.65 4.45 38.55 11.3 44.1 18.95 36.65 24.2 L41.25 24.2 Q43.85 24.2 45.65 26.0 47.45 27.8 47.45 30.35 L47.45 30.4 Q47.45 33.0 45.65 34.75 L45.0 35.35 45.2 35.35 Q48.5 35.35 50.85 37.65 53.2 40.0 53.2 43.3 53.2 46.65 50.85 49.0 48.5 51.3 45.2 51.3 L10.45 51.3 Q8.65 51.3 7.15 50.6 5.9 50.05 4.8 49.0 2.45 46.65 2.45 43.3 2.45 40.0 4.8 37.65 L7.15 36.0 Q8.65 35.35 10.45 35.35" fill="#000000" fill-rule="evenodd" stroke="none"/>
    </g>
  </defs>
</svg>
