<?xml version="1.0" encoding="UTF-8" standalone="no"?>
<svg xmlns:ffdec="https://www.free-decompiler.com/flash" xmlns:xlink="http://www.w3.org/1999/xlink" ffdec:objectType="frame" height="56.0px" width="56.0px" xmlns="http://www.w3.org/2000/svg">
  <g transform="matrix(1.0, 0.0, 0.0, 1.0, 0.0, 0.0)">
    <use ffdec:characterId="2" height="56.0" id="back" transform="matrix(1.0, 0.0, 0.0, 1.0, 0.0, 0.0)" width="56.0" xlink:href="#sprite0"/>
    <use ffdec:characterId="3" height="46.25" transform="matrix(1.0, 0.0, 0.0, 1.0, 4.75, 4.55)" width="46.25" xlink:href="#shape1"/>
  </g>
  <defs>
    <g id="sprite0" transform="matrix(1.0, 0.0, 0.0, 1.0, 0.0, 0.0)">
      <use ffdec:characterId="1" height="56.0" transform="matrix(1.0, 0.0, 0.0, 1.0, 0.0, 0.0)" width="56.0" xlink:href="#shape0"/>
    </g>
    <g id="shape0" transform="matrix(1.0, 0.0, 0.0, 1.0, 0.0, 0.0)">
      <path d="M56.0 56.0 L0.0 56.0 0.0 0.0 56.0 0.0 56.0 56.0" fill="#010101" fill-opacity="0.0" fill-rule="evenodd" stroke="none"/>
    </g>
    <g id="shape1" transform="matrix(1.0, 0.0, 0.0, 1.0, -4.75, -4.55)">
      <path d="M15.85 15.55 Q19.45 11.9 24.2 10.95 L24.2 15.65 Q21.35 16.5 19.05 18.75 16.75 21.05 15.95 24.0 L11.2 24.0 Q12.15 19.2 15.85 15.55 M15.85 39.7 Q12.2 36.1 11.25 31.35 L16.0 31.35 Q16.85 34.2 19.05 36.35 21.35 38.6 24.2 39.45 L24.2 44.35 Q19.45 43.35 15.85 39.7 M5.55 25.15 L17.05 25.15 17.05 30.2 5.55 30.2 5.55 25.15 M40.0 15.55 Q43.7 19.2 44.65 24.0 L39.9 24.0 Q39.0 21.05 36.65 18.75 34.4 16.5 31.55 15.65 L31.55 10.95 Q36.3 11.85 40.0 15.55 M30.4 5.35 L30.4 16.9 25.35 16.9 25.35 5.35 30.4 5.35 M31.2 27.6 Q31.2 26.35 30.2 25.4 29.3 24.45 27.9 24.45 26.6 24.45 25.7 25.4 24.7 26.35 24.7 27.6 24.7 29.0 25.7 30.0 26.6 30.9 27.9 30.9 29.3 30.9 30.2 30.0 31.2 29.0 31.2 27.6 M34.0 27.7 Q34.0 30.2 32.25 31.95 30.45 33.7 27.9 33.7 25.45 33.7 23.65 31.95 21.9 30.2 21.9 27.7 21.9 25.15 23.65 23.35 25.45 21.6 27.9 21.6 30.45 21.6 32.25 23.35 34.0 25.15 34.0 27.7 M40.0 39.7 Q36.3 43.4 31.55 44.35 L31.55 39.45 Q34.4 38.6 36.65 36.35 38.9 34.2 39.85 31.35 L44.65 31.35 Q43.65 36.1 40.0 39.7 M25.35 50.0 L25.35 38.5 30.4 38.5 30.4 50.0 25.35 50.0 M50.2 30.2 L38.6 30.2 38.6 25.15 50.2 25.15 50.2 30.2" fill="#000000" fill-rule="evenodd" stroke="none"/>
      <path d="M15.85 15.55 Q19.45 11.9 24.2 10.95 L24.2 15.65 Q21.35 16.5 19.05 18.75 16.75 21.05 15.95 24.0 L11.2 24.0 Q12.15 19.2 15.85 15.55 M15.85 39.7 Q12.2 36.1 11.25 31.35 L16.0 31.35 Q16.85 34.2 19.05 36.35 21.35 38.6 24.2 39.45 L24.2 44.35 Q19.45 43.35 15.85 39.7 M5.55 25.15 L17.05 25.15 17.05 30.2 5.55 30.2 5.55 25.15 M40.0 15.55 Q43.7 19.2 44.65 24.0 L39.9 24.0 Q39.0 21.05 36.65 18.75 34.4 16.5 31.55 15.65 L31.55 10.95 Q36.3 11.85 40.0 15.55 M30.4 5.35 L30.4 16.9 25.35 16.9 25.35 5.35 30.4 5.35 M31.2 27.6 Q31.2 29.0 30.2 30.0 29.3 30.9 27.9 30.9 26.6 30.9 25.7 30.0 24.7 29.0 24.7 27.6 24.7 26.35 25.7 25.4 26.6 24.45 27.9 24.45 29.3 24.45 30.2 25.4 31.2 26.35 31.2 27.6 M34.0 27.7 Q34.0 30.2 32.25 31.95 30.45 33.7 27.9 33.7 25.45 33.7 23.65 31.95 21.9 30.2 21.9 27.7 21.9 25.15 23.65 23.35 25.45 21.6 27.9 21.6 30.45 21.6 32.25 23.35 34.0 25.15 34.0 27.7 M40.0 39.7 Q36.3 43.4 31.55 44.35 L31.55 39.45 Q34.4 38.6 36.65 36.35 38.9 34.2 39.85 31.35 L44.65 31.35 Q43.65 36.1 40.0 39.7 M25.35 50.0 L25.35 38.5 30.4 38.5 30.4 50.0 25.35 50.0 M50.2 30.2 L38.6 30.2 38.6 25.15 50.2 25.15 50.2 30.2 Z" fill="none" stroke="#000000" stroke-linecap="round" stroke-linejoin="round" stroke-opacity="0.2" stroke-width="1.6"/>
      <path d="M15.85 15.55 Q19.45 11.9 24.2 10.95 L24.2 15.65 Q21.35 16.5 19.05 18.75 16.75 21.05 15.95 24.0 L11.2 24.0 Q12.15 19.2 15.85 15.55 M15.85 39.7 Q12.2 36.1 11.25 31.35 L16.0 31.35 Q16.85 34.2 19.05 36.35 21.35 38.6 24.2 39.45 L24.2 44.35 Q19.45 43.35 15.85 39.7 M5.55 25.15 L17.05 25.15 17.05 30.2 5.55 30.2 5.55 25.15 M30.4 5.35 L30.4 16.9 25.35 16.9 25.35 5.35 30.4 5.35 M40.0 15.55 Q43.7 19.2 44.65 24.0 L39.9 24.0 Q39.0 21.05 36.65 18.75 34.4 16.5 31.55 15.65 L31.55 10.95 Q36.3 11.85 40.0 15.55 M34.0 27.7 Q34.0 30.2 32.25 31.95 30.45 33.7 27.9 33.7 25.45 33.7 23.65 31.95 21.9 30.2 21.9 27.7 21.9 25.15 23.65 23.35 25.45 21.6 27.9 21.6 30.45 21.6 32.25 23.35 34.0 25.15 34.0 27.7 M31.2 27.6 Q31.2 26.35 30.2 25.4 29.3 24.45 27.9 24.45 26.6 24.45 25.7 25.4 24.7 26.35 24.7 27.6 24.7 29.0 25.7 30.0 26.6 30.9 27.9 30.9 29.3 30.9 30.2 30.0 31.2 29.0 31.2 27.6 M40.0 39.7 Q36.3 43.4 31.55 44.35 L31.55 39.45 Q34.4 38.6 36.65 36.35 38.9 34.2 39.85 31.35 L44.65 31.35 Q43.65 36.1 40.0 39.7 M25.35 50.0 L25.35 38.5 30.4 38.5 30.4 50.0 25.35 50.0 M50.2 30.2 L38.6 30.2 38.6 25.15 50.2 25.15 50.2 30.2" fill="#000000" fill-rule="evenodd" stroke="none"/>
    </g>
  </defs>
</svg>
