<?xml version="1.0" encoding="UTF-8" standalone="no"?>
<svg xmlns:ffdec="https://www.free-decompiler.com/flash" xmlns:xlink="http://www.w3.org/1999/xlink" ffdec:objectType="frame" height="56.0px" width="56.0px" xmlns="http://www.w3.org/2000/svg">
  <g transform="matrix(1.0, 0.0, 0.0, 1.0, 0.0, 0.0)">
    <use ffdec:characterId="2" height="56.0" id="back" transform="matrix(1.0, 0.0, 0.0, 1.0, 0.0, 0.0)" width="56.0" xlink:href="#sprite0"/>
    <use ffdec:characterId="3" height="49.95" transform="matrix(1.0, 0.0, 0.0, 1.0, 5.7, 2.7)" width="43.95" xlink:href="#shape1"/>
  </g>
  <defs>
    <g id="sprite0" transform="matrix(1.0, 0.0, 0.0, 1.0, 0.0, 0.0)">
      <use ffdec:characterId="1" height="56.0" transform="matrix(1.0, 0.0, 0.0, 1.0, 0.0, 0.0)" width="56.0" xlink:href="#shape0"/>
    </g>
    <g id="shape0" transform="matrix(1.0, 0.0, 0.0, 1.0, 0.0, 0.0)">
      <path d="M56.0 56.0 L0.0 56.0 0.0 0.0 56.0 0.0 56.0 56.0" fill="#010101" fill-opacity="0.0" fill-rule="evenodd" stroke="none"/>
    </g>
    <g id="shape1" transform="matrix(1.0, 0.0, 0.0, 1.0, -5.7, -2.7)">
      <path d="M8.95 13.1 Q11.1 14.9 14.0 15.3 12.3 12.65 13.1 10.0 15.15 16.75 20.55 13.75 L23.25 11.5 Q25.0 9.75 28.2 11.45 25.15 11.4 24.0 12.7 L21.65 15.2 Q14.8 22.2 8.95 13.1 M12.35 43.6 Q12.35 38.35 18.45 38.0 22.35 37.75 30.25 40.35 36.65 42.5 40.45 41.6 43.2 40.85 44.0 37.8 44.55 35.5 42.3 34.95 38.05 34.0 28.75 36.15 17.95 38.5 12.8 37.35 5.8 35.95 6.55 29.65 6.95 23.9 13.4 21.95 18.55 20.3 28.4 21.7 L41.45 22.15 Q43.85 21.65 44.2 20.55 43.85 16.2 36.7 13.0 31.6 16.35 28.1 15.4 L27.8 15.15 27.75 14.8 27.95 14.5 Q30.3 12.85 31.85 11.3 30.05 9.3 22.3 9.25 L22.0 9.15 21.85 8.85 21.85 8.55 Q24.1 3.85 31.1 3.5 L31.2 3.5 Q34.25 3.75 37.35 8.3 L37.4 8.3 37.55 8.4 37.5 8.4 Q49.25 13.2 48.85 20.6 L48.85 20.65 Q49.05 25.35 42.25 26.65 37.45 27.5 27.8 26.25 L27.75 26.25 Q19.25 25.0 14.8 26.35 11.55 27.35 11.2 30.1 11.1 32.25 13.75 32.85 18.25 33.7 27.75 31.65 38.55 29.15 43.4 30.5 50.1 32.2 48.5 38.9 47.05 44.75 41.5 46.15 36.9 47.3 28.8 44.75 22.0 42.5 18.65 42.65 17.5 42.7 17.4 43.5 17.25 47.35 29.25 50.85 29.45 50.9 29.55 51.1 L29.6 51.45 29.4 51.75 29.1 51.85 Q12.3 50.65 12.35 43.6 M32.9 7.55 L33.6 7.15 Q33.5 6.6 32.9 6.15 32.25 5.75 31.4 5.7 L31.05 5.7 28.65 6.15 Q27.8 6.6 27.7 7.15 27.8 7.4 28.65 7.55 L31.05 7.7 31.4 7.7 32.9 7.55" fill="#000000" fill-rule="evenodd" stroke="none"/>
      <path d="M32.9 7.55 L31.4 7.7 31.05 7.7 28.65 7.55 Q27.8 7.4 27.7 7.15 27.8 6.6 28.65 6.15 L31.05 5.7 31.4 5.7 Q32.25 5.75 32.9 6.15 33.5 6.6 33.6 7.15 L32.9 7.55 M12.35 43.6 Q12.3 50.65 29.1 51.85 L29.4 51.75 29.6 51.45 29.55 51.1 Q29.45 50.9 29.25 50.85 17.25 47.35 17.4 43.5 17.5 42.7 18.65 42.65 22.0 42.5 28.8 44.75 36.9 47.3 41.5 46.15 47.05 44.75 48.5 38.9 50.1 32.2 43.4 30.5 38.55 29.15 27.75 31.65 18.25 33.7 13.75 32.85 11.1 32.25 11.2 30.1 11.55 27.35 14.8 26.35 19.25 25.0 27.75 26.25 L27.8 26.25 Q37.45 27.5 42.25 26.65 49.05 25.35 48.85 20.65 L48.85 20.6 Q49.25 13.2 37.5 8.4 L37.55 8.4 37.4 8.3 37.35 8.3 Q34.25 3.75 31.2 3.5 L31.1 3.5 Q24.1 3.85 21.85 8.55 L21.85 8.85 22.0 9.15 22.3 9.25 Q30.05 9.3 31.85 11.3 30.3 12.85 27.95 14.5 L27.75 14.8 27.8 15.15 28.1 15.4 Q31.6 16.35 36.7 13.0 43.85 16.2 44.2 20.55 43.85 21.65 41.45 22.15 L28.4 21.7 Q18.55 20.3 13.4 21.95 6.95 23.9 6.55 29.65 5.8 35.95 12.8 37.35 17.95 38.5 28.75 36.15 38.05 34.0 42.3 34.95 44.55 35.5 44.0 37.8 43.2 40.85 40.45 41.6 36.65 42.5 30.25 40.35 22.35 37.75 18.45 38.0 12.35 38.35 12.35 43.6 M8.95 13.1 Q14.8 22.2 21.65 15.2 L24.0 12.7 Q25.15 11.4 28.2 11.45 25.0 9.75 23.25 11.5 L20.55 13.75 Q15.15 16.75 13.1 10.0 12.3 12.65 14.0 15.3 11.1 14.9 8.95 13.1 Z" fill="none" stroke="#000000" stroke-linecap="round" stroke-linejoin="round" stroke-opacity="0.2" stroke-width="1.6"/>
      <path d="M8.95 13.1 Q11.1 14.9 14.0 15.3 12.3 12.65 13.1 10.0 15.15 16.75 20.55 13.75 L23.25 11.5 Q25.0 9.75 28.2 11.45 25.15 11.4 24.0 12.7 L21.65 15.2 Q14.8 22.2 8.95 13.1 M12.35 43.6 Q12.35 38.35 18.45 38.0 22.35 37.75 30.25 40.35 36.65 42.5 40.45 41.6 43.2 40.85 44.0 37.8 44.55 35.5 42.3 34.95 38.05 34.0 28.75 36.15 17.95 38.5 12.8 37.35 5.8 35.95 6.55 29.65 6.95 23.9 13.4 21.95 18.55 20.3 28.4 21.7 L41.45 22.15 Q43.85 21.65 44.2 20.55 43.85 16.2 36.7 13.0 31.6 16.35 28.1 15.4 L27.8 15.15 27.75 14.8 27.95 14.5 Q30.3 12.85 31.85 11.3 30.05 9.3 22.3 9.25 L22.0 9.15 21.85 8.85 21.85 8.55 Q24.1 3.85 31.1 3.5 L31.2 3.5 Q34.25 3.75 37.35 8.3 L37.4 8.3 37.55 8.4 37.5 8.4 Q49.25 13.2 48.85 20.6 L48.85 20.65 Q49.05 25.35 42.25 26.65 37.45 27.5 27.8 26.25 L27.75 26.25 Q19.25 25.0 14.8 26.35 11.55 27.35 11.2 30.1 11.1 32.25 13.75 32.85 18.25 33.7 27.75 31.65 38.55 29.15 43.4 30.5 50.1 32.2 48.5 38.9 47.05 44.75 41.5 46.15 36.9 47.3 28.8 44.75 22.0 42.5 18.65 42.65 17.5 42.7 17.4 43.5 17.25 47.35 29.25 50.85 29.45 50.9 29.55 51.1 L29.6 51.45 29.4 51.75 29.1 51.85 Q12.3 50.65 12.35 43.6 M32.9 7.55 L33.6 7.15 Q33.5 6.6 32.9 6.15 32.25 5.75 31.4 5.7 L31.05 5.7 28.65 6.15 Q27.8 6.6 27.7 7.15 27.8 7.4 28.65 7.55 L31.05 7.7 31.4 7.7 32.9 7.55" fill="#000000" fill-rule="evenodd" stroke="none"/>
    </g>
  </defs>
</svg>
