<?xml version="1.0" encoding="UTF-8" standalone="no"?>
<svg xmlns:ffdec="https://www.free-decompiler.com/flash" xmlns:xlink="http://www.w3.org/1999/xlink" ffdec:objectType="frame" height="56.0px" width="56.0px" xmlns="http://www.w3.org/2000/svg">
  <g transform="matrix(1.0, 0.0, 0.0, 1.0, 0.0, 0.0)">
    <use ffdec:characterId="2" height="56.0" id="back" transform="matrix(1.0, 0.0, 0.0, 1.0, 0.0, 0.0)" width="56.0" xlink:href="#sprite0"/>
    <use ffdec:characterId="3" height="51.05" transform="matrix(1.0, 0.0, 0.0, 1.0, 3.2, 2.55)" width="51.05" xlink:href="#shape1"/>
  </g>
  <defs>
    <g id="sprite0" transform="matrix(1.0, 0.0, 0.0, 1.0, 0.0, 0.0)">
      <use ffdec:characterId="1" height="56.0" transform="matrix(1.0, 0.0, 0.0, 1.0, 0.0, 0.0)" width="56.0" xlink:href="#shape0"/>
    </g>
    <g id="shape0" transform="matrix(1.0, 0.0, 0.0, 1.0, 0.0, 0.0)">
      <path d="M56.0 56.0 L0.0 56.0 0.0 0.0 56.0 0.0 56.0 56.0" fill="#010101" fill-opacity="0.0" fill-rule="evenodd" stroke="none"/>
    </g>
    <g id="shape1" transform="matrix(1.0, 0.0, 0.0, 1.0, -3.2, -2.55)">
      <path d="M53.45 30.9 L47.55 30.9 47.3 32.15 46.45 35.05 51.5 38.0 48.7 42.85 43.6 39.9 42.75 40.9 40.5 42.95 43.45 48.05 38.6 50.85 35.65 45.75 34.4 46.15 34.45 46.2 31.5 46.85 31.5 52.8 25.95 52.8 25.95 46.8 25.3 46.7 24.65 46.55 23.15 46.15 21.95 45.75 21.75 45.65 18.75 50.85 13.95 48.05 16.9 42.9 15.0 41.1 14.7 40.8 13.9 39.85 8.65 42.85 5.85 37.95 11.15 34.95 11.1 34.75 10.7 33.7 10.65 33.75 Q10.15 32.35 10.0 30.9 L4.0 30.9 4.0 25.3 10.0 25.3 10.25 24.0 Q10.55 22.5 11.1 21.15 L5.9 18.15 8.7 13.3 13.9 16.3 14.75 15.3 16.9 13.25 13.9 8.05 18.75 5.25 21.75 10.45 Q22.7 10.05 23.7 9.8 L24.3 9.65 25.95 9.3 25.95 3.35 31.5 3.35 31.5 9.25 33.9 9.8 35.7 10.35 38.65 5.25 43.5 8.05 40.5 13.2 42.15 14.65 42.25 14.75 42.35 14.85 43.6 16.2 48.65 13.25 51.5 18.15 46.45 21.05 47.3 24.0 47.55 25.3 53.45 25.3 53.45 30.9 M40.3 32.55 L37.45 31.8 37.15 32.4 36.35 33.7 38.4 35.75 36.4 37.8 34.35 35.7 33.8 36.05 32.45 36.8 33.2 39.6 30.45 40.4 29.7 37.5 29.05 37.55 27.55 37.5 26.75 40.4 24.0 39.65 24.8 36.7 24.5 36.6 24.25 36.45 23.55 36.05 23.05 35.7 22.95 35.65 20.75 37.8 18.8 35.75 20.9 33.65 20.25 32.55 20.15 32.35 19.85 31.75 16.9 32.55 16.2 29.8 19.15 29.0 19.15 28.95 19.1 28.4 19.05 28.4 19.15 26.9 16.2 26.1 16.9 23.35 19.85 24.15 20.15 23.6 20.95 22.3 18.8 20.15 20.8 18.15 22.95 20.3 23.45 19.9 Q24.1 19.5 24.8 19.2 L24.0 16.25 26.75 15.55 27.5 18.5 28.6 18.4 28.85 18.4 29.7 18.45 30.45 15.55 33.2 16.3 32.45 19.15 33.55 19.7 34.3 20.25 36.45 18.15 38.4 20.1 36.35 22.25 36.9 23.2 36.95 23.25 37.0 23.25 37.4 24.15 40.3 23.35 41.0 26.1 38.15 26.85 38.25 28.4 38.2 28.4 38.15 29.05 41.0 29.8 40.3 32.55 M31.95 28.0 Q31.95 26.7 31.0 25.7 30.05 24.75 28.65 24.75 27.6 24.75 26.75 25.4 L26.65 25.45 Q25.8 26.1 25.5 27.2 25.15 28.5 25.85 29.65 26.5 30.8 27.8 31.15 29.1 31.55 30.25 30.85 L30.3 30.85 31.25 30.05 Q31.95 29.2 31.95 28.0 M43.05 28.1 Q43.05 22.25 38.9 18.05 34.75 13.9 28.85 13.9 24.15 13.9 20.5 16.7 L20.15 17.0 Q16.3 19.85 15.15 24.55 13.6 30.15 16.5 35.15 19.4 40.25 25.1 41.8 30.65 43.4 35.8 40.45 L36.0 40.35 Q38.3 39.05 40.05 36.85 43.05 33.15 43.05 28.1 M34.3 28.65 L32.95 28.65 32.9 28.95 32.7 29.6 33.85 30.3 33.25 31.4 32.05 30.75 31.85 30.95 31.35 31.45 32.05 32.6 30.9 33.25 30.25 32.05 29.95 32.15 29.95 32.2 29.3 32.35 29.3 33.7 28.0 33.7 28.0 32.3 27.85 32.3 27.7 32.25 27.35 32.15 27.1 32.1 27.05 32.05 26.35 33.25 25.25 32.6 25.9 31.4 25.5 31.0 25.4 30.95 25.25 30.7 24.05 31.4 23.4 30.3 24.6 29.6 24.6 29.55 24.5 29.3 24.35 28.65 22.95 28.65 22.95 27.4 24.35 27.4 24.4 27.1 24.6 26.4 23.4 25.75 24.05 24.6 25.25 25.3 25.45 25.1 25.45 25.05 25.9 24.6 25.25 23.4 26.35 22.75 27.05 23.95 27.5 23.8 27.6 23.8 28.0 23.7 28.0 22.35 29.3 22.35 29.3 23.7 29.8 23.8 30.25 23.95 30.9 22.75 32.05 23.4 31.35 24.6 31.75 24.95 32.05 25.3 33.2 24.6 33.85 25.75 32.7 26.4 32.9 27.1 32.95 27.4 34.3 27.4 34.3 28.65 M35.6 29.85 Q36.35 27.0 34.9 24.4 33.4 21.85 30.55 21.05 28.25 20.45 26.1 21.35 L25.9 21.45 Q23.6 22.3 22.45 24.45 20.95 27.0 21.7 29.85 22.5 32.65 25.05 34.2 27.55 35.7 30.45 34.9 L30.55 34.9 Q31.85 34.6 33.0 33.7 34.95 32.3 35.6 29.85" fill="#000000" fill-rule="evenodd" stroke="none"/>
      <path d="M53.45 30.9 L47.55 30.9 47.3 32.15 46.45 35.05 51.5 38.0 48.7 42.85 43.6 39.9 42.75 40.9 40.5 42.95 43.45 48.05 38.6 50.85 35.65 45.75 34.4 46.15 34.45 46.2 31.5 46.85 31.5 52.8 25.95 52.8 25.95 46.8 25.3 46.7 24.65 46.55 23.15 46.15 21.95 45.75 21.75 45.65 18.75 50.85 13.95 48.05 16.9 42.9 15.0 41.1 14.7 40.8 13.9 39.85 8.65 42.85 5.85 37.95 11.15 34.95 11.1 34.75 10.7 33.7 10.65 33.75 Q10.15 32.35 10.0 30.9 L4.0 30.9 4.0 25.3 10.0 25.3 10.25 24.0 Q10.55 22.5 11.1 21.15 L5.9 18.15 8.7 13.3 13.9 16.3 14.75 15.3 16.9 13.25 13.9 8.05 18.75 5.25 21.75 10.45 Q22.7 10.05 23.7 9.8 L24.3 9.65 25.95 9.3 25.95 3.35 31.5 3.35 31.5 9.25 33.9 9.8 35.7 10.35 38.65 5.25 43.5 8.05 40.5 13.2 42.15 14.65 42.25 14.75 42.35 14.85 43.6 16.2 48.65 13.25 51.5 18.15 46.45 21.05 47.3 24.0 47.55 25.3 53.45 25.3 53.45 30.9 M40.3 32.55 L37.45 31.8 37.15 32.4 36.35 33.7 38.4 35.75 36.4 37.8 34.35 35.7 33.8 36.05 32.45 36.8 33.2 39.6 30.45 40.4 29.7 37.5 29.05 37.55 27.55 37.5 26.75 40.4 24.0 39.65 24.8 36.7 24.5 36.6 24.25 36.45 23.55 36.05 23.05 35.7 22.95 35.65 20.75 37.8 18.8 35.75 20.9 33.65 20.25 32.55 20.15 32.35 19.85 31.75 16.9 32.55 16.2 29.8 19.15 29.0 19.15 28.95 19.1 28.4 19.05 28.4 19.15 26.9 16.2 26.1 16.9 23.35 19.85 24.15 20.15 23.6 20.95 22.3 18.8 20.15 20.8 18.15 22.95 20.3 23.45 19.9 Q24.1 19.5 24.8 19.2 L24.0 16.25 26.75 15.55 27.5 18.5 28.6 18.4 28.85 18.4 29.7 18.45 30.45 15.55 33.2 16.3 32.45 19.15 33.55 19.7 34.3 20.25 36.45 18.15 38.4 20.1 36.35 22.25 36.9 23.2 36.95 23.25 37.0 23.25 37.4 24.15 40.3 23.35 41.0 26.1 38.15 26.85 38.25 28.4 38.2 28.4 38.15 29.05 41.0 29.8 40.3 32.55 M43.05 28.1 Q43.05 33.15 40.05 36.85 38.3 39.05 36.0 40.35 L35.8 40.45 Q30.65 43.4 25.1 41.8 19.4 40.25 16.5 35.15 13.6 30.15 15.15 24.55 16.3 19.85 20.15 17.0 L20.5 16.7 Q24.15 13.9 28.85 13.9 34.75 13.9 38.9 18.05 43.05 22.25 43.05 28.1 M31.95 28.0 Q31.95 29.2 31.25 30.05 L30.3 30.85 30.25 30.85 Q29.1 31.55 27.8 31.15 26.5 30.8 25.85 29.65 25.15 28.5 25.5 27.2 25.8 26.1 26.65 25.45 L26.75 25.4 Q27.6 24.75 28.65 24.75 30.05 24.75 31.0 25.7 31.95 26.7 31.95 28.0 M34.3 28.65 L32.95 28.65 32.9 28.95 32.7 29.6 33.85 30.3 33.25 31.4 32.05 30.75 31.85 30.95 31.35 31.45 32.05 32.6 30.9 33.25 30.25 32.05 29.95 32.15 29.95 32.2 29.3 32.35 29.3 33.7 28.0 33.7 28.0 32.3 27.85 32.3 27.7 32.25 27.35 32.15 27.1 32.1 27.05 32.05 26.35 33.25 25.25 32.6 25.9 31.4 25.5 31.0 25.4 30.95 25.25 30.7 24.05 31.4 23.4 30.3 24.6 29.6 24.6 29.55 24.5 29.3 24.35 28.65 22.95 28.65 22.95 27.4 24.35 27.4 24.4 27.1 24.6 26.4 23.4 25.75 24.05 24.6 25.25 25.3 25.45 25.1 25.45 25.05 25.9 24.6 25.25 23.4 26.35 22.75 27.05 23.95 27.5 23.8 27.6 23.8 28.0 23.7 28.0 22.35 29.3 22.35 29.3 23.7 29.8 23.8 30.25 23.95 30.9 22.75 32.05 23.4 31.35 24.6 31.75 24.95 32.05 25.3 33.2 24.6 33.85 25.75 32.7 26.4 32.9 27.1 32.95 27.4 34.3 27.4 34.3 28.65 M35.6 29.85 Q34.95 32.3 33.0 33.7 31.85 34.6 30.55 34.9 L30.45 34.9 Q27.55 35.7 25.05 34.2 22.5 32.65 21.7 29.85 20.95 27.0 22.45 24.45 23.6 22.3 25.9 21.45 L26.1 21.35 Q28.25 20.45 30.55 21.05 33.4 21.85 34.9 24.4 36.35 27.0 35.6 29.85 Z" fill="none" stroke="#000000" stroke-linecap="round" stroke-linejoin="round" stroke-opacity="0.2" stroke-width="1.6"/>
      <path d="M53.45 30.9 L47.55 30.9 47.3 32.15 46.45 35.05 51.5 38.0 48.7 42.85 43.6 39.9 42.75 40.9 40.5 42.95 43.45 48.05 38.6 50.85 35.65 45.75 34.4 46.15 34.45 46.2 31.5 46.85 31.5 52.8 25.95 52.8 25.95 46.8 25.3 46.7 24.65 46.55 23.15 46.15 21.95 45.75 21.75 45.65 18.75 50.85 13.95 48.05 16.9 42.9 15.0 41.1 14.7 40.8 13.9 39.85 8.65 42.85 5.85 37.95 11.15 34.95 11.1 34.75 10.7 33.7 10.65 33.75 Q10.15 32.35 10.0 30.9 L4.0 30.9 4.0 25.3 10.0 25.3 10.25 24.0 Q10.55 22.5 11.1 21.15 L5.9 18.15 8.7 13.3 13.9 16.3 14.75 15.3 16.9 13.25 13.9 8.05 18.75 5.25 21.75 10.45 Q22.7 10.05 23.7 9.8 L24.3 9.65 25.95 9.3 25.95 3.35 31.5 3.35 31.5 9.25 33.9 9.8 35.7 10.35 38.65 5.25 43.5 8.05 40.5 13.2 42.15 14.65 42.25 14.75 42.35 14.85 43.6 16.2 48.65 13.25 51.5 18.15 46.45 21.05 47.3 24.0 47.55 25.3 53.45 25.3 53.45 30.9 M40.3 32.55 L37.45 31.8 37.15 32.4 36.35 33.7 38.4 35.75 36.4 37.8 34.35 35.7 33.8 36.05 32.45 36.8 33.2 39.6 30.45 40.4 29.7 37.5 29.05 37.55 27.55 37.5 26.75 40.4 24.0 39.65 24.8 36.7 24.5 36.6 24.25 36.45 23.55 36.05 23.05 35.7 22.95 35.65 20.75 37.8 18.8 35.75 20.9 33.65 20.25 32.55 20.15 32.35 19.85 31.75 16.9 32.55 16.2 29.8 19.15 29.0 19.15 28.95 19.1 28.4 19.05 28.4 19.15 26.9 16.2 26.1 16.9 23.35 19.85 24.15 20.15 23.6 20.95 22.3 18.8 20.15 20.8 18.15 22.95 20.3 23.45 19.9 Q24.1 19.5 24.8 19.2 L24.0 16.25 26.75 15.55 27.5 18.5 28.6 18.4 28.85 18.4 29.7 18.45 30.45 15.55 33.2 16.3 32.45 19.15 33.55 19.7 34.3 20.25 36.45 18.15 38.4 20.1 36.35 22.25 36.9 23.2 36.95 23.25 37.0 23.25 37.4 24.15 40.3 23.35 41.0 26.1 38.15 26.85 38.25 28.4 38.2 28.4 38.15 29.05 41.0 29.8 40.3 32.55 M31.95 28.0 Q31.95 26.7 31.0 25.7 30.05 24.75 28.65 24.75 27.6 24.75 26.75 25.4 L26.65 25.45 Q25.8 26.1 25.5 27.2 25.15 28.5 25.85 29.65 26.5 30.8 27.8 31.15 29.1 31.55 30.25 30.85 L30.3 30.85 31.25 30.05 Q31.95 29.2 31.95 28.0 M43.05 28.1 Q43.05 22.25 38.9 18.05 34.75 13.9 28.85 13.9 24.15 13.9 20.5 16.7 L20.15 17.0 Q16.3 19.85 15.15 24.55 13.6 30.15 16.5 35.15 19.4 40.25 25.1 41.8 30.65 43.4 35.8 40.45 L36.0 40.35 Q38.3 39.05 40.05 36.85 43.05 33.15 43.05 28.1 M34.3 28.65 L32.95 28.65 32.9 28.95 32.7 29.6 33.85 30.3 33.25 31.4 32.05 30.75 31.85 30.95 31.35 31.45 32.05 32.6 30.9 33.25 30.25 32.05 29.95 32.15 29.95 32.2 29.3 32.35 29.3 33.7 28.0 33.7 28.0 32.3 27.85 32.3 27.7 32.25 27.35 32.15 27.1 32.1 27.05 32.05 26.35 33.25 25.25 32.6 25.9 31.4 25.5 31.0 25.4 30.95 25.25 30.7 24.05 31.4 23.4 30.3 24.6 29.6 24.6 29.55 24.5 29.3 24.35 28.65 22.95 28.65 22.95 27.4 24.35 27.4 24.4 27.1 24.6 26.4 23.4 25.75 24.05 24.6 25.25 25.3 25.45 25.1 25.45 25.05 25.9 24.6 25.25 23.4 26.35 22.75 27.05 23.95 27.5 23.8 27.6 23.8 28.0 23.7 28.0 22.35 29.3 22.35 29.3 23.7 29.8 23.8 30.25 23.95 30.9 22.75 32.05 23.4 31.35 24.6 31.75 24.95 32.05 25.3 33.2 24.6 33.85 25.75 32.7 26.4 32.9 27.1 32.95 27.4 34.3 27.4 34.3 28.65 M35.6 29.85 Q36.35 27.0 34.9 24.4 33.4 21.85 30.55 21.05 28.25 20.45 26.1 21.35 L25.9 21.45 Q23.6 22.3 22.45 24.45 20.95 27.0 21.7 29.85 22.5 32.65 25.05 34.2 27.55 35.7 30.45 34.9 L30.55 34.9 Q31.85 34.6 33.0 33.7 34.95 32.3 35.6 29.85" fill="#000000" fill-rule="evenodd" stroke="none"/>
    </g>
  </defs>
</svg>
