<?xml version="1.0" encoding="UTF-8" standalone="no"?>
<svg xmlns:ffdec="https://www.free-decompiler.com/flash" xmlns:xlink="http://www.w3.org/1999/xlink" ffdec:objectType="frame" height="56.0px" width="56.0px" xmlns="http://www.w3.org/2000/svg">
  <g transform="matrix(1.0, 0.0, 0.0, 1.0, 0.0, 0.0)">
    <use ffdec:characterId="2" height="56.0" id="back" transform="matrix(1.0, 0.0, 0.0, 1.0, 0.0, 0.0)" width="56.0" xlink:href="#sprite0"/>
    <use ffdec:characterId="3" height="42.5" transform="matrix(1.0, 0.0, 0.0, 1.0, 6.15, 8.3)" width="44.75" xlink:href="#shape1"/>
  </g>
  <defs>
    <g id="sprite0" transform="matrix(1.0, 0.0, 0.0, 1.0, 0.0, 0.0)">
      <use ffdec:characterId="1" height="56.0" transform="matrix(1.0, 0.0, 0.0, 1.0, 0.0, 0.0)" width="56.0" xlink:href="#shape0"/>
    </g>
    <g id="shape0" transform="matrix(1.0, 0.0, 0.0, 1.0, 0.0, 0.0)">
      <path d="M56.0 56.0 L0.0 56.0 0.0 0.0 56.0 0.0 56.0 56.0" fill="#010101" fill-opacity="0.0" fill-rule="evenodd" stroke="none"/>
    </g>
    <g id="shape1" transform="matrix(1.0, 0.0, 0.0, 1.0, -6.15, -8.3)">
      <path d="M21.85 36.9 L23.95 35.05 Q26.0 32.85 25.6 30.95 23.45 30.2 21.7 28.5 18.8 25.55 18.8 21.35 18.8 17.25 21.7 14.25 24.7 11.3 28.85 11.3 32.95 11.3 35.9 14.2 50.85 12.9 50.05 25.3 48.8 24.2 44.25 24.6 L38.45 24.65 Q37.7 26.75 36.0 28.5 34.45 30.0 32.65 30.75 32.2 32.75 34.2 35.0 L36.3 36.95 Q38.1 37.3 39.45 38.7 41.4 40.65 41.4 43.4 41.4 46.1 39.45 48.05 37.55 50.0 34.85 50.0 32.05 50.0 30.15 48.05 L28.95 46.4 27.7 48.05 Q25.75 50.0 23.05 50.0 20.3 50.0 18.35 48.05 16.45 46.1 16.45 43.4 16.45 40.65 18.35 38.7 19.85 37.2 21.85 36.9 M33.85 21.35 Q33.85 19.3 32.4 17.8 30.9 16.35 28.85 16.35 26.75 16.35 25.25 17.8 23.8 19.3 23.8 21.35 23.8 23.45 25.25 24.95 26.75 26.4 28.85 26.4 30.9 26.4 32.4 24.95 33.85 23.45 33.85 21.35 M6.95 21.65 Q8.4 18.8 10.8 17.75 13.2 16.75 17.95 18.65 12.25 19.45 6.95 21.65 M8.65 10.05 Q11.05 8.55 13.95 9.45 16.75 10.3 19.7 15.3 15.2 11.65 8.65 10.05" fill="#000000" fill-rule="evenodd" stroke="none"/>
      <path d="M21.85 36.9 L23.95 35.05 Q26.0 32.85 25.6 30.95 23.45 30.2 21.7 28.5 18.8 25.55 18.8 21.35 18.8 17.25 21.7 14.25 24.7 11.3 28.85 11.3 32.95 11.3 35.9 14.2 50.85 12.9 50.05 25.3 48.8 24.2 44.25 24.6 L38.45 24.65 Q37.7 26.75 36.0 28.5 34.45 30.0 32.65 30.75 32.2 32.75 34.2 35.0 L36.3 36.95 Q38.1 37.3 39.45 38.7 41.4 40.65 41.4 43.4 41.4 46.1 39.45 48.05 37.55 50.0 34.85 50.0 32.05 50.0 30.15 48.05 L28.95 46.4 27.7 48.05 Q25.75 50.0 23.05 50.0 20.3 50.0 18.35 48.05 16.45 46.1 16.45 43.4 16.45 40.65 18.35 38.7 19.85 37.2 21.85 36.9 M33.85 21.35 Q33.85 23.45 32.4 24.95 30.9 26.4 28.85 26.4 26.75 26.4 25.25 24.95 23.8 23.45 23.8 21.35 23.8 19.3 25.25 17.8 26.75 16.35 28.85 16.35 30.9 16.35 32.4 17.8 33.85 19.3 33.85 21.35 M6.95 21.65 Q8.4 18.8 10.8 17.75 13.2 16.75 17.95 18.65 12.25 19.45 6.95 21.65 M8.65 10.05 Q11.05 8.55 13.95 9.45 16.75 10.3 19.7 15.3 15.2 11.65 8.65 10.05 Z" fill="none" stroke="#000000" stroke-linecap="round" stroke-linejoin="round" stroke-opacity="0.2" stroke-width="1.6"/>
      <path d="M21.85 36.9 L23.95 35.05 Q26.0 32.85 25.6 30.95 23.45 30.2 21.7 28.5 18.8 25.55 18.8 21.35 18.8 17.25 21.7 14.25 24.7 11.3 28.85 11.3 32.95 11.3 35.9 14.2 50.85 12.9 50.05 25.3 48.8 24.2 44.25 24.6 L38.45 24.65 Q37.7 26.75 36.0 28.5 34.45 30.0 32.65 30.75 32.2 32.75 34.2 35.0 L36.3 36.95 Q38.1 37.3 39.45 38.7 41.4 40.65 41.4 43.4 41.4 46.1 39.45 48.05 37.55 50.0 34.85 50.0 32.05 50.0 30.15 48.05 L28.95 46.4 27.7 48.05 Q25.75 50.0 23.05 50.0 20.3 50.0 18.35 48.05 16.45 46.1 16.45 43.4 16.45 40.65 18.35 38.7 19.85 37.2 21.85 36.9 M33.85 21.35 Q33.85 19.3 32.4 17.8 30.9 16.35 28.85 16.35 26.75 16.35 25.25 17.8 23.8 19.3 23.8 21.35 23.8 23.45 25.25 24.95 26.75 26.4 28.85 26.4 30.9 26.4 32.4 24.95 33.85 23.45 33.85 21.35 M8.65 10.05 Q11.05 8.55 13.95 9.45 16.75 10.3 19.7 15.3 15.2 11.65 8.65 10.05 M6.95 21.65 Q8.4 18.8 10.8 17.75 13.2 16.75 17.95 18.65 12.25 19.45 6.95 21.65" fill="#000000" fill-rule="evenodd" stroke="none"/>
    </g>
  </defs>
</svg>
