<?xml version="1.0" encoding="UTF-8" standalone="no"?>
<svg xmlns:ffdec="https://www.free-decompiler.com/flash" xmlns:xlink="http://www.w3.org/1999/xlink" ffdec:objectType="frame" height="56.0px" width="56.0px" xmlns="http://www.w3.org/2000/svg">
  <g transform="matrix(1.0, 0.0, 0.0, 1.0, 0.0, 0.0)">
    <use ffdec:characterId="2" height="56.0" id="back" transform="matrix(1.0, 0.0, 0.0, 1.0, 0.0, 0.0)" width="56.0" xlink:href="#sprite0"/>
    <use ffdec:characterId="3" height="49.75" transform="matrix(1.0, 0.0, 0.0, 1.0, 3.25, 3.45)" width="50.1" xlink:href="#shape1"/>
  </g>
  <defs>
    <g id="sprite0" transform="matrix(1.0, 0.0, 0.0, 1.0, 0.0, 0.0)">
      <use ffdec:characterId="1" height="56.0" transform="matrix(1.0, 0.0, 0.0, 1.0, 0.0, 0.0)" width="56.0" xlink:href="#shape0"/>
    </g>
    <g id="shape0" transform="matrix(1.0, 0.0, 0.0, 1.0, 0.0, 0.0)">
      <path d="M56.0 56.0 L0.0 56.0 0.0 0.0 56.0 0.0 56.0 56.0" fill="#010101" fill-opacity="0.0" fill-rule="evenodd" stroke="none"/>
    </g>
    <g id="shape1" transform="matrix(1.0, 0.0, 0.0, 1.0, -3.25, -3.45)">
      <path d="M22.2 14.1 Q21.55 11.1 21.75 9.5 L22.1 7.15 Q24.45 7.65 25.85 10.2 26.7 6.55 28.75 4.25 30.8 6.95 30.35 10.85 32.65 8.65 35.1 8.0 35.7 10.5 34.4 14.1 L35.1 14.2 Q40.05 15.0 41.7 19.7 46.35 17.1 52.55 23.1 49.05 24.4 46.65 24.55 L44.45 24.65 Q44.7 26.65 44.45 28.8 L45.95 29.45 Q46.5 34.5 43.35 40.65 41.85 43.7 40.15 45.75 L33.05 47.05 33.2 49.05 33.0 50.6 Q31.2 50.1 30.55 48.6 30.15 50.35 29.35 51.6 L28.7 52.4 Q27.2 50.5 26.8 48.55 26.0 49.75 24.05 50.15 23.9 48.9 24.4 47.1 20.2 46.75 16.45 45.75 14.75 43.7 13.2 40.65 10.1 34.5 10.65 29.45 L12.45 28.7 Q12.75 26.4 13.55 24.9 L9.9 24.55 Q7.55 24.4 4.05 23.1 10.25 17.1 14.9 19.7 16.55 15.0 21.55 14.2 L22.2 14.1 M38.55 27.35 L38.05 26.05 35.25 25.9 34.4 27.8 34.8 27.8 42.55 28.3 Q43.45 25.15 42.75 22.4 41.25 21.55 39.95 22.2 39.7 24.7 38.55 27.35 M13.8 28.4 L18.6 28.0 Q18.45 26.1 17.8 24.75 16.35 24.3 14.9 24.75 14.15 26.2 13.8 28.4 M19.05 20.9 Q18.75 22.55 19.65 24.55 22.75 25.55 26.0 24.2 26.45 23.35 26.4 21.35 22.8 19.9 19.05 20.9 M37.8 20.9 Q34.0 19.9 30.45 21.35 30.35 23.35 30.85 24.2 34.1 25.55 37.2 24.55 38.1 22.55 37.8 20.9" fill="#000000" fill-rule="evenodd" stroke="none"/>
      <path d="M22.2 14.1 Q21.55 11.1 21.75 9.5 L22.1 7.15 Q24.45 7.65 25.85 10.2 26.7 6.55 28.75 4.25 30.8 6.95 30.35 10.85 32.65 8.65 35.1 8.0 35.7 10.5 34.4 14.1 L35.1 14.2 Q40.05 15.0 41.7 19.7 46.35 17.1 52.55 23.1 49.05 24.4 46.65 24.55 L44.45 24.65 Q44.7 26.65 44.45 28.8 L45.95 29.45 Q46.5 34.5 43.35 40.65 41.85 43.7 40.15 45.75 L33.05 47.05 33.2 49.05 33.0 50.6 Q31.2 50.1 30.55 48.6 30.15 50.35 29.35 51.6 L28.7 52.4 Q27.2 50.5 26.8 48.55 26.0 49.75 24.05 50.15 23.9 48.9 24.4 47.1 20.2 46.75 16.45 45.75 14.75 43.7 13.2 40.65 10.1 34.5 10.65 29.45 L12.45 28.7 Q12.75 26.4 13.55 24.9 L9.9 24.55 Q7.55 24.4 4.05 23.1 10.25 17.1 14.9 19.7 16.55 15.0 21.55 14.2 L22.2 14.1 M19.05 20.9 Q22.8 19.9 26.4 21.35 26.45 23.35 26.0 24.2 22.75 25.55 19.65 24.55 18.75 22.55 19.05 20.9 M13.8 28.4 Q14.15 26.2 14.9 24.75 16.35 24.3 17.8 24.75 18.45 26.1 18.6 28.0 L13.8 28.4 M38.55 27.35 Q39.7 24.7 39.95 22.2 41.25 21.55 42.75 22.4 43.45 25.15 42.55 28.3 L34.8 27.8 34.4 27.8 35.25 25.9 38.05 26.05 38.55 27.35 M37.8 20.9 Q34.0 19.9 30.45 21.35 30.35 23.35 30.85 24.2 34.1 25.55 37.2 24.55 38.1 22.55 37.8 20.9 Z" fill="none" stroke="#000000" stroke-linecap="round" stroke-linejoin="round" stroke-opacity="0.2" stroke-width="1.6"/>
      <path d="M22.2 14.1 Q21.55 11.1 21.75 9.5 L22.1 7.15 Q24.45 7.65 25.85 10.2 26.7 6.55 28.75 4.25 30.8 6.95 30.35 10.85 32.65 8.65 35.1 8.0 35.7 10.5 34.4 14.1 L35.1 14.2 Q40.05 15.0 41.7 19.7 46.35 17.1 52.55 23.1 49.05 24.4 46.65 24.55 L44.45 24.65 Q44.7 26.65 44.45 28.8 L45.95 29.45 Q46.5 34.5 43.35 40.65 41.85 43.7 40.15 45.75 L33.05 47.05 33.2 49.05 33.0 50.6 Q31.2 50.1 30.55 48.6 30.15 50.35 29.35 51.6 L28.7 52.4 Q27.2 50.5 26.8 48.55 26.0 49.75 24.05 50.15 23.9 48.9 24.4 47.1 20.2 46.75 16.45 45.75 14.75 43.7 13.2 40.65 10.1 34.5 10.65 29.45 L12.45 28.7 Q12.75 26.4 13.55 24.9 L9.9 24.55 Q7.55 24.4 4.05 23.1 10.25 17.1 14.9 19.7 16.55 15.0 21.55 14.2 L22.2 14.1 M13.8 28.4 L18.6 28.0 Q18.45 26.1 17.8 24.75 16.35 24.3 14.9 24.75 14.15 26.2 13.8 28.4 M19.05 20.9 Q18.75 22.55 19.65 24.55 22.75 25.55 26.0 24.2 26.45 23.35 26.4 21.35 22.8 19.9 19.05 20.9 M37.8 20.9 Q34.0 19.9 30.45 21.35 30.35 23.35 30.85 24.2 34.1 25.55 37.2 24.55 38.1 22.55 37.8 20.9 M38.55 27.35 L38.05 26.05 35.25 25.9 34.4 27.8 34.8 27.8 42.55 28.3 Q43.45 25.15 42.75 22.4 41.25 21.55 39.95 22.2 39.7 24.7 38.55 27.35" fill="#000000" fill-rule="evenodd" stroke="none"/>
    </g>
  </defs>
</svg>
