<?xml version="1.0" encoding="UTF-8" standalone="no"?>
<svg xmlns:ffdec="https://www.free-decompiler.com/flash" xmlns:xlink="http://www.w3.org/1999/xlink" ffdec:objectType="frame" height="56.0px" width="56.0px" xmlns="http://www.w3.org/2000/svg">
  <g transform="matrix(1.0, 0.0, 0.0, 1.0, 0.0, 0.0)">
    <use ffdec:characterId="2" height="56.0" id="back" transform="matrix(1.0, 0.0, 0.0, 1.0, 0.0, 0.0)" width="56.0" xlink:href="#sprite0"/>
    <use ffdec:characterId="3" height="45.0" transform="matrix(1.0, 0.0, 0.0, 1.0, 4.55, 4.5)" width="46.1" xlink:href="#shape1"/>
  </g>
  <defs>
    <g id="sprite0" transform="matrix(1.0, 0.0, 0.0, 1.0, 0.0, 0.0)">
      <use ffdec:characterId="1" height="56.0" transform="matrix(1.0, 0.0, 0.0, 1.0, 0.0, 0.0)" width="56.0" xlink:href="#shape0"/>
    </g>
    <g id="shape0" transform="matrix(1.0, 0.0, 0.0, 1.0, 0.0, 0.0)">
      <path d="M56.0 56.0 L0.0 56.0 0.0 0.0 56.0 0.0 56.0 56.0" fill="#010101" fill-opacity="0.0" fill-rule="evenodd" stroke="none"/>
    </g>
    <g id="shape1" transform="matrix(1.0, 0.0, 0.0, 1.0, -4.55, -4.5)">
      <path d="M47.2 30.65 Q47.2 33.7 46.3 36.35 48.95 40.05 49.85 44.45 46.05 45.6 40.5 44.65 35.65 48.7 29.1 48.7 24.35 48.7 20.45 46.55 16.85 47.6 13.15 47.4 13.05 44.45 14.3 41.0 12.4 38.4 11.65 35.35 8.05 33.45 5.35 30.5 7.6 28.1 11.55 26.35 12.65 21.6 16.3 17.85 19.2 15.0 22.65 13.7 24.15 8.9 27.4 5.3 30.7 7.75 33.15 13.0 36.2 13.65 38.8 15.35 42.9 13.9 47.2 14.15 47.3 17.85 45.3 22.55 47.2 26.2 47.2 30.65 M37.85 26.0 Q37.85 24.55 36.8 23.5 35.75 22.5 34.3 22.5 32.85 22.5 31.8 23.5 30.75 24.55 30.75 26.0 30.75 27.5 31.8 28.55 32.85 29.55 34.3 29.55 35.75 29.55 36.8 28.55 37.85 27.5 37.85 26.0 M19.9 20.6 L16.4 28.05 20.3 32.8 37.65 32.8 43.05 27.3 37.05 18.9 29.1 21.75 19.9 20.6 M27.75 26.0 Q27.75 24.55 26.7 23.5 L26.2 23.1 29.05 23.45 36.7 20.85 41.05 27.1 37.25 31.2 21.2 31.2 18.3 27.75 20.65 22.5 22.85 22.75 21.7 23.5 Q20.65 24.55 20.65 26.0 20.65 27.5 21.7 28.55 22.7 29.55 24.2 29.55 25.65 29.55 26.7 28.55 27.75 27.5 27.75 26.0" fill="#000000" fill-rule="evenodd" stroke="none"/>
      <path d="M47.2 30.65 Q47.2 33.7 46.3 36.35 48.95 40.05 49.85 44.45 46.05 45.6 40.5 44.65 35.65 48.7 29.1 48.7 24.35 48.7 20.45 46.55 16.85 47.6 13.15 47.4 13.05 44.45 14.3 41.0 12.4 38.4 11.65 35.35 8.05 33.45 5.35 30.5 7.6 28.1 11.55 26.35 12.65 21.6 16.3 17.85 19.2 15.0 22.65 13.7 24.15 8.9 27.4 5.3 30.7 7.75 33.15 13.0 36.2 13.65 38.8 15.35 42.9 13.9 47.2 14.15 47.3 17.85 45.3 22.55 47.2 26.2 47.2 30.65 M27.75 26.0 Q27.75 27.5 26.7 28.55 25.65 29.55 24.2 29.55 22.7 29.55 21.7 28.55 20.65 27.5 20.65 26.0 20.65 24.55 21.7 23.5 L22.85 22.75 20.65 22.5 18.3 27.75 21.2 31.2 37.25 31.2 41.05 27.1 36.7 20.85 29.05 23.45 26.2 23.1 26.7 23.5 Q27.75 24.55 27.75 26.0 M19.9 20.6 L29.1 21.75 37.05 18.9 43.05 27.3 37.65 32.8 20.3 32.8 16.4 28.05 19.9 20.6 M37.85 26.0 Q37.85 27.5 36.8 28.55 35.75 29.55 34.3 29.55 32.85 29.55 31.8 28.55 30.75 27.5 30.75 26.0 30.75 24.55 31.8 23.5 32.85 22.5 34.3 22.5 35.75 22.5 36.8 23.5 37.85 24.55 37.85 26.0 Z" fill="none" stroke="#000000" stroke-linecap="round" stroke-linejoin="round" stroke-opacity="0.2" stroke-width="1.6"/>
      <path d="M47.2 30.65 Q47.2 33.7 46.3 36.35 48.95 40.05 49.85 44.45 46.05 45.6 40.5 44.65 35.65 48.7 29.1 48.7 24.35 48.7 20.45 46.55 16.85 47.6 13.15 47.4 13.05 44.45 14.3 41.0 12.4 38.4 11.65 35.35 8.05 33.45 5.35 30.5 7.6 28.1 11.55 26.35 12.65 21.6 16.3 17.85 19.2 15.0 22.65 13.7 24.15 8.9 27.4 5.3 30.7 7.75 33.15 13.0 36.2 13.65 38.8 15.35 42.9 13.9 47.2 14.15 47.3 17.85 45.3 22.55 47.2 26.2 47.2 30.65 M37.85 26.0 Q37.85 24.55 36.8 23.5 35.75 22.5 34.3 22.5 32.85 22.5 31.8 23.5 30.75 24.55 30.75 26.0 30.75 27.5 31.8 28.55 32.85 29.55 34.3 29.55 35.75 29.55 36.8 28.55 37.85 27.5 37.85 26.0 M19.9 20.6 L16.4 28.05 20.3 32.8 37.65 32.8 43.05 27.3 37.05 18.9 29.1 21.75 19.9 20.6 M27.75 26.0 Q27.75 24.55 26.7 23.5 L26.2 23.1 29.05 23.45 36.7 20.85 41.05 27.1 37.25 31.2 21.2 31.2 18.3 27.75 20.65 22.5 22.85 22.75 21.7 23.5 Q20.65 24.55 20.65 26.0 20.65 27.5 21.7 28.55 22.7 29.55 24.2 29.55 25.65 29.55 26.7 28.55 27.75 27.5 27.75 26.0" fill="#000000" fill-rule="evenodd" stroke="none"/>
    </g>
  </defs>
</svg>
