<?xml version="1.0" encoding="UTF-8" standalone="no"?>
<svg xmlns:ffdec="https://www.free-decompiler.com/flash" xmlns:xlink="http://www.w3.org/1999/xlink" ffdec:objectType="frame" height="56.0px" width="56.0px" xmlns="http://www.w3.org/2000/svg">
  <g transform="matrix(1.0, 0.0, 0.0, 1.0, 0.0, 0.0)">
    <use ffdec:characterId="2" height="56.0" id="back" transform="matrix(1.0, 0.0, 0.0, 1.0, 0.0, 0.0)" width="56.0" xlink:href="#sprite0"/>
    <use ffdec:characterId="3" height="47.95" transform="matrix(1.0, 0.0, 0.0, 1.0, 3.95, 3.9)" width="48.0" xlink:href="#shape1"/>
  </g>
  <defs>
    <g id="sprite0" transform="matrix(1.0, 0.0, 0.0, 1.0, 0.0, 0.0)">
      <use ffdec:characterId="1" height="56.0" transform="matrix(1.0, 0.0, 0.0, 1.0, 0.0, 0.0)" width="56.0" xlink:href="#shape0"/>
    </g>
    <g id="shape0" transform="matrix(1.0, 0.0, 0.0, 1.0, 0.0, 0.0)">
      <path d="M56.0 56.0 L0.0 56.0 0.0 0.0 56.0 0.0 56.0 56.0" fill="#010101" fill-opacity="0.0" fill-rule="evenodd" stroke="none"/>
    </g>
    <g id="shape1" transform="matrix(1.0, 0.0, 0.0, 1.0, -3.95, -3.9)">
      <path d="M32.95 27.85 Q32.95 29.9 31.5 31.4 30.0 32.85 27.9 32.85 25.8 32.85 24.3 31.4 22.8 29.9 22.8 27.85 22.8 25.75 24.3 24.2 25.8 22.75 27.9 22.75 30.0 22.75 31.5 24.2 32.95 25.75 32.95 27.85 M35.4 27.85 Q35.4 24.75 33.2 22.55 31.0 20.35 27.9 20.35 24.8 20.35 22.65 22.55 20.45 24.75 20.45 27.85 20.45 30.95 22.65 33.1 24.8 35.3 27.9 35.3 31.0 35.3 33.2 33.1 35.4 30.95 35.4 27.85 M37.05 27.9 Q37.05 31.65 34.4 34.3 31.7 37.0 27.95 37.0 24.2 37.0 21.5 34.3 18.85 31.65 18.85 27.9 18.85 24.1 21.5 21.5 24.2 18.8 27.95 18.8 31.7 18.8 34.4 21.5 37.05 24.1 37.05 27.9 M51.15 27.85 Q51.15 37.45 44.35 44.25 37.55 51.05 27.95 51.05 18.35 51.05 11.55 44.25 4.75 37.45 4.75 27.85 4.75 18.25 11.55 11.45 18.35 4.7 27.95 4.7 37.55 4.7 44.35 11.45 51.15 18.25 51.15 27.85 M48.65 27.9 Q48.65 19.3 42.6 13.25 36.5 7.2 27.95 7.2 19.35 7.2 13.3 13.25 7.25 19.3 7.25 27.9 7.25 36.45 13.3 42.55 19.35 48.6 27.95 48.6 36.5 48.6 42.6 42.55 48.65 36.45 48.65 27.9" fill="#000000" fill-rule="evenodd" stroke="none"/>
      <path d="M32.95 27.85 Q32.95 29.9 31.5 31.4 30.0 32.85 27.9 32.85 25.8 32.85 24.3 31.4 22.8 29.9 22.8 27.85 22.8 25.75 24.3 24.2 25.8 22.75 27.9 22.75 30.0 22.75 31.5 24.2 32.95 25.75 32.95 27.85 M35.4 27.85 Q35.4 30.95 33.2 33.1 31.0 35.3 27.9 35.3 24.8 35.3 22.65 33.1 20.45 30.95 20.45 27.85 20.45 24.75 22.65 22.55 24.8 20.35 27.9 20.35 31.0 20.35 33.2 22.55 35.4 24.75 35.4 27.85 M37.05 27.9 Q37.05 31.65 34.4 34.3 31.7 37.0 27.95 37.0 24.2 37.0 21.5 34.3 18.85 31.65 18.85 27.9 18.85 24.1 21.5 21.5 24.2 18.8 27.95 18.8 31.7 18.8 34.4 21.5 37.05 24.1 37.05 27.9 M51.15 27.85 Q51.15 37.45 44.35 44.25 37.55 51.05 27.95 51.05 18.35 51.05 11.55 44.25 4.75 37.45 4.75 27.85 4.75 18.25 11.55 11.45 18.35 4.7 27.95 4.7 37.55 4.7 44.35 11.45 51.15 18.25 51.15 27.85 M48.65 27.9 Q48.65 36.45 42.6 42.55 36.5 48.6 27.95 48.6 19.35 48.6 13.3 42.55 7.25 36.45 7.25 27.9 7.25 19.3 13.3 13.25 19.35 7.2 27.95 7.2 36.5 7.2 42.6 13.25 48.65 19.3 48.65 27.9 Z" fill="none" stroke="#000000" stroke-linecap="round" stroke-linejoin="round" stroke-opacity="0.2" stroke-width="1.6"/>
      <path d="M32.95 27.85 Q32.95 29.9 31.5 31.4 30.0 32.85 27.9 32.85 25.8 32.85 24.3 31.4 22.8 29.9 22.8 27.85 22.8 25.75 24.3 24.2 25.8 22.75 27.9 22.75 30.0 22.75 31.5 24.2 32.95 25.75 32.95 27.85 M35.4 27.85 Q35.4 24.75 33.2 22.55 31.0 20.35 27.9 20.35 24.8 20.35 22.65 22.55 20.45 24.75 20.45 27.85 20.45 30.95 22.65 33.1 24.8 35.3 27.9 35.3 31.0 35.3 33.2 33.1 35.4 30.95 35.4 27.85 M37.05 27.9 Q37.05 31.65 34.4 34.3 31.7 37.0 27.95 37.0 24.2 37.0 21.5 34.3 18.85 31.65 18.85 27.9 18.85 24.1 21.5 21.5 24.2 18.8 27.95 18.8 31.7 18.8 34.4 21.5 37.05 24.1 37.05 27.9 M51.15 27.85 Q51.15 37.45 44.35 44.25 37.55 51.05 27.95 51.05 18.35 51.05 11.55 44.25 4.75 37.45 4.75 27.85 4.75 18.25 11.55 11.45 18.35 4.7 27.95 4.7 37.55 4.7 44.35 11.45 51.15 18.25 51.15 27.85 M48.65 27.9 Q48.65 19.3 42.6 13.25 36.5 7.2 27.95 7.2 19.35 7.2 13.3 13.25 7.25 19.3 7.25 27.9 7.25 36.45 13.3 42.55 19.35 48.6 27.95 48.6 36.5 48.6 42.6 42.55 48.65 36.45 48.65 27.9" fill="#000000" fill-rule="evenodd" stroke="none"/>
    </g>
  </defs>
</svg>
