<?xml version="1.0" encoding="UTF-8" standalone="no"?>
<svg xmlns:ffdec="https://www.free-decompiler.com/flash" xmlns:xlink="http://www.w3.org/1999/xlink" ffdec:objectType="frame" height="56.0px" width="56.0px" xmlns="http://www.w3.org/2000/svg">
  <g transform="matrix(1.0, 0.0, 0.0, 1.0, 0.0, 0.0)">
    <use ffdec:characterId="2" height="56.0" id="back" transform="matrix(1.0, 0.0, 0.0, 1.0, 0.0, 0.0)" width="56.0" xlink:href="#sprite0"/>
    <use ffdec:characterId="3" height="46.3" transform="matrix(1.0, 0.0, 0.0, 1.0, 5.05, 3.9)" width="47.2" xlink:href="#shape1"/>
  </g>
  <defs>
    <g id="sprite0" transform="matrix(1.0, 0.0, 0.0, 1.0, 0.0, 0.0)">
      <use ffdec:characterId="1" height="56.0" transform="matrix(1.0, 0.0, 0.0, 1.0, 0.0, 0.0)" width="56.0" xlink:href="#shape0"/>
    </g>
    <g id="shape0" transform="matrix(1.0, 0.0, 0.0, 1.0, 0.0, 0.0)">
      <path d="M56.0 56.0 L0.0 56.0 0.0 0.0 56.0 0.0 56.0 56.0" fill="#010101" fill-opacity="0.0" fill-rule="evenodd" stroke="none"/>
    </g>
    <g id="shape1" transform="matrix(1.0, 0.0, 0.0, 1.0, -5.05, -3.9)">
      <path d="M22.6 35.3 Q20.5 35.5 19.0 34.65 L18.4 35.4 Q17.55 36.55 17.05 37.95 21.7 38.35 23.9 36.3 26.3 34.1 25.5 30.25 L23.85 30.95 20.7 23.95 Q37.1 17.0 41.6 4.7 L51.45 27.0 Q41.7 23.7 27.0 29.6 27.9 34.6 24.9 37.2 22.15 39.6 16.65 39.25 15.7 43.2 17.45 48.75 L14.75 49.3 Q9.2 50.0 5.85 45.6 L7.5 42.4 Q9.65 37.5 9.15 34.35 L9.9 33.95 11.55 32.7 Q13.9 30.25 13.9 27.05 L19.0 24.6 22.15 31.6 Q21.3 32.2 20.45 33.05 21.3 34.35 22.6 35.3 M6.7 28.95 Q7.9 28.0 10.05 28.2 10.9 29.35 12.4 29.0 11.95 30.7 10.65 31.85 9.8 29.6 6.7 28.95" fill="#000000" fill-rule="evenodd" stroke="none"/>
      <path d="M22.6 35.3 Q20.5 35.5 19.0 34.65 L18.4 35.4 Q17.55 36.55 17.05 37.95 21.7 38.35 23.9 36.3 26.3 34.1 25.5 30.25 L23.85 30.95 20.7 23.95 Q37.1 17.0 41.6 4.7 L51.45 27.0 Q41.7 23.7 27.0 29.6 27.9 34.6 24.9 37.2 22.15 39.6 16.65 39.25 15.7 43.2 17.45 48.75 L14.75 49.3 Q9.2 50.0 5.85 45.6 L7.5 42.4 Q9.65 37.5 9.15 34.35 L9.9 33.95 11.55 32.7 Q13.9 30.25 13.9 27.05 L19.0 24.6 22.15 31.6 Q21.3 32.2 20.45 33.05 21.3 34.35 22.6 35.3 M6.7 28.95 Q7.9 28.0 10.05 28.2 10.9 29.35 12.4 29.0 11.95 30.7 10.65 31.85 9.8 29.6 6.7 28.95 Z" fill="none" stroke="#000000" stroke-linecap="round" stroke-linejoin="round" stroke-opacity="0.2" stroke-width="1.6"/>
      <path d="M22.6 35.3 Q20.5 35.5 19.0 34.65 L18.4 35.4 Q17.55 36.55 17.05 37.95 21.7 38.35 23.9 36.3 26.3 34.1 25.5 30.25 L23.85 30.95 20.7 23.95 Q37.1 17.0 41.6 4.7 L51.45 27.0 Q41.7 23.7 27.0 29.6 27.9 34.6 24.9 37.2 22.15 39.6 16.65 39.25 15.7 43.2 17.45 48.75 L14.75 49.3 Q9.2 50.0 5.85 45.6 L7.5 42.4 Q9.65 37.5 9.15 34.35 L9.9 33.95 11.55 32.7 Q13.9 30.25 13.9 27.05 L19.0 24.6 22.15 31.6 Q21.3 32.2 20.45 33.05 21.3 34.35 22.6 35.3 M6.7 28.95 Q7.9 28.0 10.05 28.2 10.9 29.35 12.4 29.0 11.95 30.7 10.65 31.85 9.8 29.6 6.7 28.95" fill="#000000" fill-rule="evenodd" stroke="none"/>
    </g>
  </defs>
</svg>
