<?xml version="1.0" encoding="UTF-8" standalone="no"?>
<svg xmlns:ffdec="https://www.free-decompiler.com/flash" xmlns:xlink="http://www.w3.org/1999/xlink" ffdec:objectType="frame" height="56.0px" width="56.0px" xmlns="http://www.w3.org/2000/svg">
  <g transform="matrix(1.0, 0.0, 0.0, 1.0, 0.0, 0.0)">
    <use ffdec:characterId="2" height="56.0" id="back" transform="matrix(1.0, 0.0, 0.0, 1.0, 0.0, 0.0)" width="56.0" xlink:href="#sprite0"/>
    <use ffdec:characterId="3" height="47.6" transform="matrix(1.0, 0.0, 0.0, 1.0, 5.35, 3.9)" width="46.6" xlink:href="#shape1"/>
  </g>
  <defs>
    <g id="sprite0" transform="matrix(1.0, 0.0, 0.0, 1.0, 0.0, 0.0)">
      <use ffdec:characterId="1" height="56.0" transform="matrix(1.0, 0.0, 0.0, 1.0, 0.0, 0.0)" width="56.0" xlink:href="#shape0"/>
    </g>
    <g id="shape0" transform="matrix(1.0, 0.0, 0.0, 1.0, 0.0, 0.0)">
      <path d="M56.0 56.0 L0.0 56.0 0.0 0.0 56.0 0.0 56.0 56.0" fill="#010101" fill-opacity="0.0" fill-rule="evenodd" stroke="none"/>
    </g>
    <g id="shape1" transform="matrix(1.0, 0.0, 0.0, 1.0, -5.35, -3.9)">
      <path d="M35.3 13.85 Q37.1 11.8 38.85 10.2 42.05 7.2 45.25 5.55 45.85 10.1 45.15 14.15 44.6 17.25 43.25 20.1 40.15 16.65 35.3 13.85 M25.75 6.4 Q27.3 5.1 28.6 4.7 L28.75 4.7 Q30.0 5.1 31.6 6.4 33.35 7.85 34.5 10.45 35.6 9.85 37.05 9.85 L37.75 9.9 Q36.0 11.6 34.2 13.65 L34.1 13.9 34.15 14.15 34.35 14.4 Q39.8 17.4 43.0 21.25 L43.25 21.4 43.6 21.4 43.8 21.15 Q45.4 18.05 46.05 14.6 48.3 15.8 49.65 17.7 L49.7 17.85 49.7 17.95 Q48.7 19.9 46.25 21.15 48.05 22.1 49.45 24.15 L49.4 24.15 Q50.95 26.4 51.15 31.35 L51.1 31.55 50.9 31.6 47.75 31.2 Q48.2 32.7 48.2 34.5 L48.2 34.65 48.1 34.7 Q46.55 35.45 44.5 35.65 46.1 38.0 46.25 41.5 46.4 43.9 45.55 45.3 L45.5 45.45 Q44.85 46.9 43.15 48.2 L43.1 48.25 Q39.85 49.2 37.85 47.35 37.55 48.85 36.45 50.45 L36.35 50.55 Q34.75 51.05 32.75 49.8 L32.75 49.75 31.45 48.0 30.15 48.5 28.7 48.7 28.65 48.7 27.2 48.5 25.85 48.0 24.55 49.75 24.55 49.8 Q22.5 51.05 20.95 50.55 L20.8 50.45 Q19.75 48.85 19.45 47.35 17.4 49.2 14.2 48.25 L14.1 48.2 Q12.45 46.9 11.75 45.45 L11.75 45.3 Q10.9 43.85 11.05 41.5 11.25 38.05 12.85 35.65 10.8 35.45 9.25 34.7 L9.15 34.65 9.1 34.5 Q9.15 32.7 9.55 31.2 L6.4 31.6 6.25 31.55 6.15 31.35 Q6.35 26.4 7.9 24.15 9.25 22.1 11.1 21.15 8.6 19.9 7.6 17.95 L7.6 17.85 7.65 17.7 Q8.9 15.9 10.9 14.8 11.6 18.15 13.1 21.15 L13.35 21.4 13.65 21.4 13.9 21.25 Q17.15 17.4 22.6 14.4 L22.8 14.15 22.85 13.9 22.7 13.65 19.25 9.95 20.3 9.85 Q21.7 9.85 22.85 10.45 23.95 7.85 25.75 6.4 M21.65 13.85 Q16.75 16.65 13.65 20.1 12.35 17.35 11.8 14.3 11.05 10.2 11.7 5.55 14.95 7.25 18.2 10.3 L21.65 13.85 M25.3 31.2 L23.4 29.8 23.1 31.5 Q22.8 32.5 22.4 32.5 21.95 32.5 21.65 31.5 21.35 30.5 21.35 29.1 L21.35 28.55 Q17.75 26.4 13.8 25.05 12.75 31.1 16.05 33.05 19.5 34.95 22.15 33.95 24.65 33.0 25.3 31.2 M14.5 35.2 Q12.2 37.45 12.0 41.4 11.9 43.25 12.55 44.35 14.55 42.4 18.7 42.95 L17.3 36.7 Q16.9 34.85 16.15 34.5 15.5 34.2 14.5 35.2 M30.4 32.85 Q28.25 32.35 26.05 32.85 25.5 33.2 25.05 34.2 27.3 35.35 27.95 37.35 L28.55 37.35 Q29.5 35.15 31.45 34.2 31.05 33.25 30.4 32.85 M31.2 31.2 Q31.9 33.0 34.4 33.95 37.05 34.95 40.45 33.05 43.75 31.1 42.75 25.05 38.8 26.4 35.2 28.55 L35.2 29.1 34.9 31.5 Q34.55 32.5 34.15 32.5 33.7 32.5 33.4 31.5 33.2 30.8 33.15 29.8 L31.2 31.2 M42.8 35.2 Q41.8 34.2 41.1 34.5 40.4 34.85 40.0 36.7 L38.55 42.95 Q42.75 42.4 44.8 44.35 45.35 43.25 45.3 41.4 45.05 37.45 42.8 35.2 M34.3 37.7 Q32.0 39.75 31.5 45.15 34.8 43.35 37.4 45.25 36.25 40.15 34.3 37.7 M23.0 37.7 Q21.05 40.15 19.9 45.25 22.5 43.35 25.8 45.15 25.3 39.75 23.0 37.7" fill="#000000" fill-rule="evenodd" stroke="none"/>
      <path d="M25.75 6.4 Q23.95 7.85 22.85 10.45 21.7 9.85 20.3 9.85 L19.25 9.95 22.7 13.65 22.85 13.9 22.8 14.15 22.6 14.4 Q17.15 17.4 13.9 21.25 L13.65 21.4 13.35 21.4 13.1 21.15 Q11.6 18.15 10.9 14.8 8.9 15.9 7.65 17.7 L7.6 17.85 7.6 17.95 Q8.6 19.9 11.1 21.15 9.25 22.1 7.9 24.15 6.35 26.4 6.15 31.35 L6.25 31.55 6.4 31.6 9.55 31.2 Q9.15 32.7 9.1 34.5 L9.15 34.65 9.25 34.7 Q10.8 35.45 12.85 35.65 11.25 38.05 11.05 41.5 10.9 43.85 11.75 45.3 L11.75 45.45 Q12.45 46.9 14.1 48.2 L14.2 48.25 Q17.4 49.2 19.45 47.35 19.75 48.85 20.8 50.45 L20.95 50.55 Q22.5 51.05 24.55 49.8 L24.55 49.75 25.85 48.0 27.2 48.5 28.65 48.7 28.7 48.7 30.15 48.5 31.45 48.0 32.75 49.75 32.75 49.8 Q34.75 51.05 36.35 50.55 L36.45 50.45 Q37.55 48.85 37.85 47.35 39.85 49.2 43.1 48.25 L43.15 48.2 Q44.85 46.9 45.5 45.45 L45.55 45.3 Q46.4 43.9 46.25 41.5 46.1 38.0 44.5 35.65 46.55 35.45 48.1 34.7 L48.2 34.65 48.2 34.5 Q48.2 32.7 47.75 31.2 L50.9 31.6 51.1 31.55 51.15 31.35 Q50.95 26.4 49.4 24.15 L49.45 24.15 Q48.05 22.1 46.25 21.15 48.7 19.9 49.7 17.95 L49.7 17.85 49.65 17.7 Q48.3 15.8 46.05 14.6 45.4 18.05 43.8 21.15 L43.6 21.4 43.25 21.4 43.0 21.25 Q39.8 17.4 34.35 14.4 L34.15 14.15 34.1 13.9 34.2 13.65 Q36.0 11.6 37.75 9.9 L37.05 9.85 Q35.6 9.85 34.5 10.45 33.35 7.85 31.6 6.4 30.0 5.1 28.75 4.7 L28.6 4.7 Q27.3 5.1 25.75 6.4 M35.3 13.85 Q40.15 16.65 43.25 20.1 44.6 17.25 45.15 14.15 45.85 10.1 45.25 5.55 42.05 7.2 38.85 10.2 37.1 11.8 35.3 13.85 M21.65 13.85 Q16.75 16.65 13.65 20.1 12.35 17.35 11.8 14.3 11.05 10.2 11.7 5.55 14.95 7.25 18.2 10.3 L21.65 13.85 M25.3 31.2 Q24.65 33.0 22.15 33.95 19.5 34.95 16.05 33.05 12.75 31.1 13.8 25.05 17.75 26.4 21.35 28.55 L21.35 29.1 Q21.35 30.5 21.65 31.5 21.95 32.5 22.4 32.5 22.8 32.5 23.1 31.5 L23.4 29.8 25.3 31.2 M30.4 32.85 Q31.05 33.25 31.45 34.2 29.5 35.15 28.55 37.35 L27.95 37.35 Q27.3 35.35 25.05 34.2 25.5 33.2 26.05 32.85 28.25 32.35 30.4 32.85 M31.2 31.2 Q31.9 33.0 34.4 33.95 37.05 34.95 40.45 33.05 43.75 31.1 42.75 25.05 38.8 26.4 35.2 28.55 L35.2 29.1 34.9 31.5 Q34.55 32.5 34.15 32.5 33.7 32.5 33.4 31.5 33.2 30.8 33.15 29.8 L31.2 31.2 M42.8 35.2 Q41.8 34.2 41.1 34.5 40.4 34.85 40.0 36.7 L38.55 42.95 Q42.75 42.4 44.8 44.35 45.35 43.25 45.3 41.4 45.05 37.45 42.8 35.2 M34.3 37.7 Q32.0 39.75 31.5 45.15 34.8 43.35 37.4 45.25 36.25 40.15 34.3 37.7 M23.0 37.7 Q25.3 39.75 25.8 45.15 22.5 43.35 19.9 45.25 21.05 40.15 23.0 37.7 Z" fill="none" stroke="#000000" stroke-linecap="round" stroke-linejoin="round" stroke-opacity="0.2" stroke-width="1.6"/>
      <path d="M35.3 13.85 Q37.1 11.8 38.85 10.2 42.05 7.2 45.25 5.55 45.85 10.1 45.15 14.15 44.6 17.25 43.25 20.1 40.15 16.65 35.3 13.85 M25.75 6.4 Q27.3 5.1 28.6 4.7 L28.75 4.7 Q30.0 5.1 31.6 6.4 33.35 7.85 34.5 10.45 35.6 9.85 37.05 9.85 L37.75 9.9 Q36.0 11.6 34.2 13.65 L34.1 13.9 34.15 14.15 34.35 14.4 Q39.8 17.4 43.0 21.25 L43.25 21.4 43.6 21.4 43.8 21.15 Q45.4 18.05 46.05 14.6 48.3 15.8 49.65 17.7 L49.7 17.85 49.7 17.95 Q48.7 19.9 46.25 21.15 48.05 22.1 49.45 24.15 L49.4 24.15 Q50.95 26.4 51.15 31.35 L51.1 31.55 50.9 31.6 47.75 31.2 Q48.2 32.7 48.2 34.5 L48.2 34.65 48.1 34.7 Q46.55 35.45 44.5 35.65 46.1 38.0 46.25 41.5 46.4 43.9 45.55 45.3 L45.5 45.45 Q44.85 46.9 43.15 48.2 L43.1 48.25 Q39.85 49.2 37.85 47.35 37.55 48.85 36.45 50.45 L36.35 50.55 Q34.75 51.05 32.75 49.8 L32.75 49.75 31.45 48.0 30.15 48.5 28.7 48.7 28.65 48.7 27.2 48.5 25.85 48.0 24.55 49.75 24.55 49.8 Q22.5 51.05 20.95 50.55 L20.8 50.45 Q19.75 48.85 19.45 47.35 17.4 49.2 14.2 48.25 L14.1 48.2 Q12.45 46.9 11.75 45.45 L11.75 45.3 Q10.9 43.85 11.05 41.5 11.25 38.05 12.85 35.65 10.8 35.45 9.25 34.7 L9.15 34.65 9.1 34.5 Q9.15 32.7 9.55 31.2 L6.4 31.6 6.25 31.55 6.15 31.35 Q6.35 26.4 7.9 24.15 9.25 22.1 11.1 21.15 8.6 19.9 7.6 17.95 L7.6 17.85 7.65 17.7 Q8.9 15.9 10.9 14.8 11.6 18.15 13.1 21.15 L13.35 21.4 13.65 21.4 13.9 21.25 Q17.15 17.4 22.6 14.4 L22.8 14.15 22.85 13.9 22.7 13.65 19.25 9.95 20.3 9.85 Q21.7 9.85 22.85 10.45 23.95 7.85 25.75 6.4 M21.65 13.85 Q16.75 16.65 13.65 20.1 12.35 17.35 11.8 14.3 11.05 10.2 11.7 5.55 14.95 7.25 18.2 10.3 L21.65 13.85 M30.4 32.85 Q28.25 32.35 26.05 32.85 25.5 33.2 25.05 34.2 27.3 35.35 27.95 37.35 L28.55 37.35 Q29.5 35.15 31.45 34.2 31.05 33.25 30.4 32.85 M14.5 35.2 Q12.2 37.45 12.0 41.4 11.9 43.25 12.55 44.35 14.55 42.4 18.7 42.95 L17.3 36.7 Q16.9 34.85 16.15 34.5 15.5 34.2 14.5 35.2 M25.3 31.2 L23.4 29.8 23.1 31.5 Q22.8 32.5 22.4 32.5 21.95 32.5 21.65 31.5 21.35 30.5 21.35 29.1 L21.35 28.55 Q17.75 26.4 13.8 25.05 12.75 31.1 16.05 33.05 19.5 34.95 22.15 33.95 24.65 33.0 25.3 31.2 M31.2 31.2 Q31.9 33.0 34.4 33.95 37.05 34.95 40.45 33.05 43.75 31.1 42.75 25.05 38.8 26.4 35.2 28.55 L35.2 29.1 34.9 31.5 Q34.55 32.5 34.15 32.5 33.7 32.5 33.4 31.5 33.2 30.8 33.15 29.8 L31.2 31.2 M42.8 35.2 Q41.8 34.2 41.1 34.5 40.4 34.85 40.0 36.7 L38.55 42.95 Q42.75 42.4 44.8 44.35 45.35 43.25 45.3 41.4 45.05 37.45 42.8 35.2 M34.3 37.7 Q32.0 39.75 31.5 45.15 34.8 43.35 37.4 45.25 36.25 40.15 34.3 37.7 M23.0 37.7 Q21.05 40.15 19.9 45.25 22.5 43.35 25.8 45.15 25.3 39.75 23.0 37.7" fill="#000000" fill-rule="evenodd" stroke="none"/>
    </g>
  </defs>
</svg>
