<?xml version="1.0" encoding="UTF-8" standalone="no"?>
<svg xmlns:ffdec="https://www.free-decompiler.com/flash" xmlns:xlink="http://www.w3.org/1999/xlink" ffdec:objectType="frame" height="56.0px" width="56.0px" xmlns="http://www.w3.org/2000/svg">
  <g transform="matrix(1.0, 0.0, 0.0, 1.0, 0.0, 0.0)">
    <use ffdec:characterId="2" height="56.0" id="back" transform="matrix(1.0, 0.0, 0.0, 1.0, 0.0, 0.0)" width="56.0" xlink:href="#sprite0"/>
    <use ffdec:characterId="3" height="42.85" transform="matrix(1.0, 0.0, 0.0, 1.0, 5.2, 5.75)" width="46.75" xlink:href="#shape1"/>
  </g>
  <defs>
    <g id="sprite0" transform="matrix(1.0, 0.0, 0.0, 1.0, 0.0, 0.0)">
      <use ffdec:characterId="1" height="56.0" transform="matrix(1.0, 0.0, 0.0, 1.0, 0.0, 0.0)" width="56.0" xlink:href="#shape0"/>
    </g>
    <g id="shape0" transform="matrix(1.0, 0.0, 0.0, 1.0, 0.0, 0.0)">
      <path d="M56.0 56.0 L0.0 56.0 0.0 0.0 56.0 0.0 56.0 56.0" fill="#010101" fill-opacity="0.0" fill-rule="evenodd" stroke="none"/>
    </g>
    <g id="shape1" transform="matrix(1.0, 0.0, 0.0, 1.0, -5.2, -5.75)">
      <path d="M27.65 15.4 Q27.65 19.1 26.0 21.7 24.4 24.25 22.1 24.25 19.8 24.25 18.15 21.7 16.55 19.1 16.55 15.4 16.55 11.75 18.15 9.15 19.8 6.55 22.1 6.55 24.4 6.55 26.0 9.15 27.65 11.75 27.65 15.4 M15.5 25.75 Q15.5 28.75 14.1 30.8 12.75 32.9 10.75 32.9 8.8 32.9 7.4 30.8 6.0 28.75 6.0 25.75 6.0 22.8 7.4 20.7 8.8 18.6 10.75 18.6 12.75 18.6 14.1 20.7 15.5 22.8 15.5 25.75 M20.7 29.0 Q23.8 26.6 28.4 26.5 L28.85 26.5 Q33.4 26.6 36.55 29.0 42.45 33.45 43.75 39.25 45.0 45.05 39.75 47.1 34.55 49.1 28.6 45.15 22.65 49.15 17.5 47.1 12.2 45.05 13.5 39.25 14.75 33.45 20.7 29.0 M40.55 15.4 Q40.55 19.1 38.9 21.7 37.3 24.25 35.0 24.25 32.7 24.25 31.05 21.7 29.45 19.1 29.45 15.4 29.45 11.75 31.05 9.15 32.7 6.55 35.0 6.55 37.3 6.55 38.9 9.15 40.55 11.75 40.55 15.4 M51.15 25.75 Q51.15 28.75 49.75 30.8 48.4 32.9 46.4 32.9 44.45 32.9 43.05 30.8 41.65 28.75 41.65 25.75 41.65 22.8 43.05 20.7 44.45 18.6 46.4 18.6 48.4 18.6 49.75 20.7 51.15 22.8 51.15 25.75" fill="#000000" fill-rule="evenodd" stroke="none"/>
      <path d="M27.65 15.4 Q27.65 19.1 26.0 21.7 24.4 24.25 22.1 24.25 19.8 24.25 18.15 21.7 16.55 19.1 16.55 15.4 16.55 11.75 18.15 9.15 19.8 6.55 22.1 6.55 24.4 6.55 26.0 9.15 27.65 11.75 27.65 15.4 M15.5 25.75 Q15.5 28.75 14.1 30.8 12.75 32.9 10.75 32.9 8.8 32.9 7.4 30.8 6.0 28.75 6.0 25.75 6.0 22.8 7.4 20.7 8.8 18.6 10.75 18.6 12.75 18.6 14.1 20.7 15.5 22.8 15.5 25.75 M20.7 29.0 Q23.8 26.6 28.4 26.5 L28.85 26.5 Q33.4 26.6 36.55 29.0 42.45 33.45 43.75 39.25 45.0 45.05 39.75 47.1 34.55 49.1 28.6 45.15 22.65 49.15 17.5 47.1 12.2 45.05 13.5 39.25 14.75 33.45 20.7 29.0 M40.55 15.4 Q40.55 19.1 38.9 21.7 37.3 24.25 35.0 24.25 32.7 24.25 31.05 21.7 29.45 19.1 29.45 15.4 29.45 11.75 31.05 9.15 32.7 6.55 35.0 6.55 37.3 6.55 38.9 9.15 40.55 11.75 40.55 15.4 M51.15 25.75 Q51.15 28.75 49.75 30.8 48.4 32.9 46.4 32.9 44.45 32.9 43.05 30.8 41.65 28.75 41.65 25.75 41.65 22.8 43.05 20.7 44.45 18.6 46.4 18.6 48.4 18.6 49.75 20.7 51.15 22.8 51.15 25.75 Z" fill="none" stroke="#000000" stroke-linecap="round" stroke-linejoin="round" stroke-opacity="0.2" stroke-width="1.6"/>
      <path d="M15.5 25.75 Q15.5 28.7 14.1 30.8 12.75 32.9 10.75 32.9 8.8 32.9 7.4 30.8 6.0 28.7 6.0 25.75 6.0 22.75 7.4 20.7 8.8 18.6 10.75 18.6 12.75 18.6 14.1 20.7 15.5 22.75 15.5 25.75" fill="#000000" fill-rule="evenodd" stroke="none"/>
      <path d="M51.15 25.75 Q51.15 28.7 49.75 30.8 48.4 32.9 46.4 32.9 44.45 32.9 43.05 30.8 41.65 28.7 41.65 25.75 41.65 22.75 43.05 20.7 44.45 18.6 46.4 18.6 48.4 18.6 49.75 20.7 51.15 22.75 51.15 25.75" fill="#000000" fill-rule="evenodd" stroke="none"/>
      <path d="M27.65 15.45 Q27.65 19.1 26.0 21.7 24.4 24.3 22.1 24.3 19.8 24.3 18.15 21.7 16.55 19.1 16.55 15.45 16.55 11.75 18.15 9.15 19.8 6.6 22.1 6.6 24.4 6.6 26.0 9.15 27.65 11.75 27.65 15.45" fill="#000000" fill-rule="evenodd" stroke="none"/>
      <path d="M40.55 15.45 Q40.55 19.1 38.9 21.7 37.3 24.3 35.0 24.3 32.7 24.3 31.05 21.7 29.45 19.1 29.45 15.45 29.45 11.75 31.05 9.15 32.7 6.6 35.0 6.6 37.3 6.6 38.9 9.15 40.55 11.75 40.55 15.45" fill="#000000" fill-rule="evenodd" stroke="none"/>
      <path d="M20.7 28.95 Q23.85 26.55 28.4 26.5 L28.85 26.5 Q33.4 26.55 36.55 28.95 42.45 33.45 43.75 39.25 45.0 45.05 39.75 47.1 34.55 49.1 28.6 45.1 22.65 49.1 17.5 47.1 12.2 45.05 13.5 39.25 14.75 33.45 20.7 28.95" fill="#000000" fill-rule="evenodd" stroke="none"/>
    </g>
  </defs>
</svg>
