<?xml version="1.0" encoding="UTF-8" standalone="no"?>
<svg xmlns:ffdec="https://www.free-decompiler.com/flash" xmlns:xlink="http://www.w3.org/1999/xlink" ffdec:objectType="frame" height="56.0px" width="56.0px" xmlns="http://www.w3.org/2000/svg">
  <g transform="matrix(1.0, 0.0, 0.0, 1.0, 0.0, 0.0)">
    <use ffdec:characterId="2" height="56.0" id="back" transform="matrix(1.0, 0.0, 0.0, 1.0, 0.0, 0.0)" width="56.0" xlink:href="#sprite0"/>
    <use ffdec:characterId="3" height="48.95" transform="matrix(1.0, 0.0, 0.0, 1.0, 8.15, 2.55)" width="40.0" xlink:href="#shape1"/>
  </g>
  <defs>
    <g id="sprite0" transform="matrix(1.0, 0.0, 0.0, 1.0, 0.0, 0.0)">
      <use ffdec:characterId="1" height="56.0" transform="matrix(1.0, 0.0, 0.0, 1.0, 0.0, 0.0)" width="56.0" xlink:href="#shape0"/>
    </g>
    <g id="shape0" transform="matrix(1.0, 0.0, 0.0, 1.0, 0.0, 0.0)">
      <path d="M56.0 56.0 L0.0 56.0 0.0 0.0 56.0 0.0 56.0 56.0" fill="#010101" fill-opacity="0.0" fill-rule="evenodd" stroke="none"/>
    </g>
    <g id="shape1" transform="matrix(1.0, 0.0, 0.0, 1.0, -8.15, -2.55)">
      <path d="M28.05 3.35 L28.75 4.05 Q33.35 9.4 34.75 15.95 33.55 19.9 28.75 23.35 L28.05 23.85 Q22.7 20.25 21.5 15.95 22.9 8.9 28.05 3.35 M14.45 15.75 Q20.8 20.4 24.1 28.0 20.5 31.75 15.65 34.35 11.0 31.45 8.95 27.45 10.3 20.75 14.45 15.75 M28.05 30.9 L28.75 31.25 Q35.8 35.4 40.95 43.0 38.4 47.95 33.55 50.7 L28.05 47.1 22.7 50.7 Q17.9 47.95 15.3 43.0 20.65 35.05 28.05 30.9 M41.85 15.75 Q45.95 20.75 47.35 27.45 45.25 31.45 40.45 34.35 35.95 31.75 32.2 28.0 35.45 20.4 41.85 15.75" fill="#000000" fill-rule="evenodd" stroke="none"/>
      <path d="M28.05 3.35 Q22.9 8.9 21.5 15.95 22.7 20.25 28.05 23.85 L28.75 23.35 Q33.55 19.9 34.75 15.95 33.35 9.4 28.75 4.05 L28.05 3.35 M14.45 15.75 Q20.8 20.4 24.1 28.0 20.5 31.75 15.65 34.35 11.0 31.45 8.95 27.45 10.3 20.75 14.45 15.75 M41.85 15.75 Q35.45 20.4 32.2 28.0 35.95 31.75 40.45 34.35 45.25 31.45 47.35 27.45 45.95 20.75 41.85 15.75 M28.05 30.9 Q20.65 35.05 15.3 43.0 17.9 47.95 22.7 50.7 L28.05 47.1 33.55 50.7 Q38.4 47.95 40.95 43.0 35.8 35.4 28.75 31.25 L28.05 30.9 Z" fill="none" stroke="#000000" stroke-linecap="round" stroke-linejoin="round" stroke-opacity="0.2" stroke-width="1.6"/>
      <path d="M28.05 3.35 L28.75 4.05 Q33.35 9.4 34.75 15.95 33.55 19.9 28.75 23.35 L28.05 23.85 Q22.7 20.25 21.5 15.95 22.9 8.9 28.05 3.35 M14.45 15.75 Q20.8 20.4 24.1 28.0 20.5 31.75 15.65 34.35 11.0 31.45 8.95 27.45 10.3 20.75 14.45 15.75 M41.85 15.75 Q45.95 20.75 47.35 27.45 45.25 31.45 40.45 34.35 35.95 31.75 32.2 28.0 35.45 20.4 41.85 15.75 M28.05 30.9 L28.75 31.25 Q35.8 35.4 40.95 43.0 38.4 47.95 33.55 50.7 L28.05 47.1 22.7 50.7 Q17.9 47.95 15.3 43.0 20.65 35.05 28.05 30.9" fill="#000000" fill-rule="evenodd" stroke="none"/>
    </g>
  </defs>
</svg>
