<?xml version="1.0" encoding="UTF-8" standalone="no"?>
<svg xmlns:ffdec="https://www.free-decompiler.com/flash" xmlns:xlink="http://www.w3.org/1999/xlink" ffdec:objectType="frame" height="56.0px" width="56.0px" xmlns="http://www.w3.org/2000/svg">
  <g transform="matrix(1.0, 0.0, 0.0, 1.0, 0.0, 0.0)">
    <use ffdec:characterId="2" height="56.0" id="back" transform="matrix(1.0, 0.0, 0.0, 1.0, 0.0, 0.0)" width="56.0" xlink:href="#sprite0"/>
    <use ffdec:characterId="3" height="35.9" transform="matrix(1.0, 0.0, 0.0, 1.0, 4.05, 10.7)" width="49.05" xlink:href="#shape1"/>
  </g>
  <defs>
    <g id="sprite0" transform="matrix(1.0, 0.0, 0.0, 1.0, 0.0, 0.0)">
      <use ffdec:characterId="1" height="56.0" transform="matrix(1.0, 0.0, 0.0, 1.0, 0.0, 0.0)" width="56.0" xlink:href="#shape0"/>
    </g>
    <g id="shape0" transform="matrix(1.0, 0.0, 0.0, 1.0, 0.0, 0.0)">
      <path d="M56.0 56.0 L0.0 56.0 0.0 0.0 56.0 0.0 56.0 56.0" fill="#010101" fill-opacity="0.0" fill-rule="evenodd" stroke="none"/>
    </g>
    <g id="shape1" transform="matrix(1.0, 0.0, 0.0, 1.0, -4.05, -10.7)">
      <path d="M23.7 15.55 L23.7 15.7 23.65 15.85 23.5 15.85 Q19.1 16.3 16.75 17.8 L16.6 17.85 16.45 17.8 16.4 17.65 Q15.9 13.65 18.25 11.55 L18.35 11.5 18.45 11.5 Q21.85 12.35 23.7 15.55 M23.0 17.15 L28.6 16.8 34.15 17.15 Q40.3 17.9 42.7 21.0 L44.45 20.9 44.4 20.9 Q46.4 20.3 47.45 17.95 L47.55 17.85 47.65 17.8 47.8 17.85 47.85 17.95 48.35 19.3 Q48.55 20.7 48.0 21.95 L49.0 21.7 Q50.85 21.35 52.25 22.6 L52.3 22.75 52.3 22.9 52.2 22.95 50.95 23.55 Q49.8 24.45 49.6 26.05 L49.9 27.55 Q50.15 29.45 50.05 31.3 49.75 37.3 45.95 40.8 L45.55 41.35 45.55 41.4 43.85 42.6 Q40.6 44.25 34.6 43.75 32.8 45.0 31.6 45.35 L28.6 45.8 25.55 45.35 Q24.4 45.0 22.6 43.75 16.55 44.25 13.3 42.6 L11.65 41.4 11.6 41.35 11.25 40.85 Q7.4 37.35 7.1 31.3 7.0 29.45 7.25 27.55 L7.55 26.05 Q7.35 24.45 6.2 23.55 L5.0 22.95 4.85 22.9 4.85 22.75 4.9 22.6 Q6.3 21.35 8.15 21.7 L9.15 21.95 Q8.6 20.7 8.8 19.3 L8.85 19.3 9.3 17.95 9.35 17.85 9.5 17.8 9.65 17.85 9.7 17.95 Q10.75 20.3 12.75 20.9 L14.45 21.0 Q16.85 17.9 23.0 17.15 M33.45 15.55 Q35.3 12.35 38.7 11.5 L38.8 11.5 38.9 11.55 Q41.25 13.65 40.75 17.65 L40.7 17.8 40.55 17.85 40.4 17.8 Q38.05 16.3 33.65 15.85 L33.5 15.85 33.45 15.7 33.45 15.55 M30.0 29.8 Q32.35 31.9 36.1 30.65 39.9 29.35 40.85 25.5 L30.0 29.8 M17.9 34.15 L18.2 33.05 18.15 33.1 17.55 34.3 17.5 34.3 17.4 34.75 17.25 35.15 Q17.0 36.15 17.15 37.2 L17.15 37.3 17.2 37.35 17.35 37.4 40.05 37.4 40.15 37.35 40.2 37.35 40.25 37.2 40.15 35.2 Q40.0 34.05 39.25 33.1 L39.35 33.4 Q39.65 34.75 39.55 36.55 L29.25 36.55 29.25 33.4 31.3 32.2 31.35 32.1 31.35 32.0 31.3 31.85 31.15 31.8 26.25 31.8 26.1 31.85 26.05 32.0 26.05 32.1 26.15 32.2 28.15 33.4 28.15 36.55 17.9 36.55 Q17.7 35.2 17.9 34.15 M27.15 29.8 L16.3 25.5 Q17.25 29.35 21.05 30.65 24.85 31.9 27.15 29.8" fill="#000000" fill-rule="evenodd" stroke="none"/>
      <path d="M23.0 17.15 Q16.85 17.9 14.45 21.0 L12.75 20.9 Q10.75 20.3 9.7 17.95 L9.65 17.85 9.5 17.8 9.35 17.85 9.3 17.95 8.85 19.3 8.8 19.3 Q8.6 20.7 9.15 21.95 L8.15 21.7 Q6.3 21.35 4.9 22.6 L4.85 22.75 4.85 22.9 5.0 22.95 6.2 23.55 Q7.35 24.45 7.55 26.05 L7.25 27.55 Q7.0 29.45 7.1 31.3 7.4 37.35 11.25 40.85 L11.6 41.35 11.65 41.4 13.3 42.6 Q16.55 44.25 22.6 43.75 24.4 45.0 25.55 45.35 L28.6 45.8 31.6 45.35 Q32.8 45.0 34.6 43.75 40.6 44.25 43.85 42.6 L45.55 41.4 45.55 41.35 45.95 40.8 Q49.75 37.3 50.05 31.3 50.15 29.45 49.9 27.55 L49.6 26.05 Q49.8 24.45 50.95 23.55 L52.2 22.95 52.3 22.9 52.3 22.75 52.25 22.6 Q50.85 21.35 49.0 21.7 L48.0 21.95 Q48.55 20.7 48.35 19.3 L47.85 17.95 47.8 17.85 47.65 17.8 47.55 17.85 47.45 17.95 Q46.4 20.3 44.4 20.9 L44.45 20.9 42.7 21.0 Q40.3 17.9 34.15 17.15 L28.6 16.8 23.0 17.15 M23.7 15.55 Q21.85 12.35 18.45 11.5 L18.35 11.5 18.25 11.55 Q15.9 13.65 16.4 17.65 L16.45 17.8 16.6 17.85 16.75 17.8 Q19.1 16.3 23.5 15.85 L23.65 15.85 23.7 15.7 23.7 15.55 M33.45 15.55 Q35.3 12.35 38.7 11.5 L38.8 11.5 38.9 11.55 Q41.25 13.65 40.75 17.65 L40.7 17.8 40.55 17.85 40.4 17.8 Q38.05 16.3 33.65 15.85 L33.5 15.85 33.45 15.7 33.45 15.55 M30.0 29.8 Q32.35 31.9 36.1 30.65 39.9 29.35 40.85 25.5 L30.0 29.8 M17.9 34.15 L18.2 33.05 18.15 33.1 17.55 34.3 17.5 34.3 17.4 34.75 17.25 35.15 Q17.0 36.15 17.15 37.2 L17.15 37.3 17.2 37.35 17.35 37.4 40.05 37.4 40.15 37.35 40.2 37.35 40.25 37.2 40.15 35.2 Q40.0 34.05 39.25 33.1 L39.35 33.4 Q39.65 34.75 39.55 36.55 L29.25 36.55 29.25 33.4 31.3 32.2 31.35 32.1 31.35 32.0 31.3 31.85 31.15 31.8 26.25 31.8 26.1 31.85 26.05 32.0 26.05 32.1 26.15 32.2 28.15 33.4 28.15 36.55 17.9 36.55 Q17.7 35.2 17.9 34.15 M27.15 29.8 Q24.85 31.9 21.05 30.65 17.25 29.35 16.3 25.5 L27.15 29.8 Z" fill="none" stroke="#000000" stroke-linecap="round" stroke-linejoin="round" stroke-opacity="0.2" stroke-width="1.6"/>
      <path d="M23.7 15.55 L23.7 15.7 23.65 15.85 23.5 15.85 Q19.1 16.3 16.75 17.8 L16.6 17.85 16.45 17.8 16.4 17.65 Q15.9 13.65 18.25 11.55 L18.35 11.5 18.45 11.5 Q21.85 12.35 23.7 15.55 M23.0 17.15 L28.6 16.8 34.15 17.15 Q40.3 17.9 42.7 21.0 L44.45 20.9 44.4 20.9 Q46.4 20.3 47.45 17.95 L47.55 17.85 47.65 17.8 47.8 17.85 47.85 17.95 48.35 19.3 Q48.55 20.7 48.0 21.95 L49.0 21.7 Q50.85 21.35 52.25 22.6 L52.3 22.75 52.3 22.9 52.2 22.95 50.95 23.55 Q49.8 24.45 49.6 26.05 L49.9 27.55 Q50.15 29.45 50.05 31.3 49.75 37.3 45.95 40.8 L45.55 41.35 45.55 41.4 43.85 42.6 Q40.6 44.25 34.6 43.75 32.8 45.0 31.6 45.35 L28.6 45.8 25.55 45.35 Q24.4 45.0 22.6 43.75 16.55 44.25 13.3 42.6 L11.65 41.4 11.6 41.35 11.25 40.85 Q7.4 37.35 7.1 31.3 7.0 29.45 7.25 27.55 L7.55 26.05 Q7.35 24.45 6.2 23.55 L5.0 22.95 4.85 22.9 4.85 22.75 4.9 22.6 Q6.3 21.35 8.15 21.7 L9.15 21.95 Q8.6 20.7 8.8 19.3 L8.85 19.3 9.3 17.95 9.35 17.85 9.5 17.8 9.65 17.85 9.7 17.95 Q10.75 20.3 12.75 20.9 L14.45 21.0 Q16.85 17.9 23.0 17.15 M33.45 15.55 Q35.3 12.35 38.7 11.5 L38.8 11.5 38.9 11.55 Q41.25 13.65 40.75 17.65 L40.7 17.8 40.55 17.85 40.4 17.8 Q38.05 16.3 33.65 15.85 L33.5 15.85 33.45 15.7 33.45 15.55 M30.0 29.8 Q32.35 31.9 36.1 30.65 39.9 29.35 40.85 25.5 L30.0 29.8 M17.9 34.15 L18.2 33.05 18.15 33.1 17.55 34.3 17.5 34.3 17.4 34.75 17.25 35.15 Q17.0 36.15 17.15 37.2 L17.15 37.3 17.2 37.35 17.35 37.4 40.05 37.4 40.15 37.35 40.2 37.35 40.25 37.2 40.15 35.2 Q40.0 34.05 39.25 33.1 L39.35 33.4 Q39.65 34.75 39.55 36.55 L29.25 36.55 29.25 33.4 31.3 32.2 31.35 32.1 31.35 32.0 31.3 31.85 31.15 31.8 26.25 31.8 26.1 31.85 26.05 32.0 26.05 32.1 26.15 32.2 28.15 33.4 28.15 36.55 17.9 36.55 Q17.7 35.2 17.9 34.15 M27.15 29.8 L16.3 25.5 Q17.25 29.35 21.05 30.65 24.85 31.9 27.15 29.8" fill="#000000" fill-rule="evenodd" stroke="none"/>
    </g>
  </defs>
</svg>
