<?xml version="1.0" encoding="UTF-8" standalone="no"?>
<svg xmlns:ffdec="https://www.free-decompiler.com/flash" xmlns:xlink="http://www.w3.org/1999/xlink" ffdec:objectType="frame" height="56.0px" width="56.0px" xmlns="http://www.w3.org/2000/svg">
  <g transform="matrix(1.0, 0.0, 0.0, 1.0, 0.0, 0.0)">
    <use ffdec:characterId="2" height="56.0" id="back" transform="matrix(1.0, 0.0, 0.0, 1.0, 0.0, 0.0)" width="56.0" xlink:href="#sprite0"/>
    <use ffdec:characterId="3" height="35.9" transform="matrix(1.0, 0.0, 0.0, 1.0, 4.05, 10.7)" width="49.1" xlink:href="#shape1"/>
  </g>
  <defs>
    <g id="sprite0" transform="matrix(1.0, 0.0, 0.0, 1.0, 0.0, 0.0)">
      <use ffdec:characterId="1" height="56.0" transform="matrix(1.0, 0.0, 0.0, 1.0, 0.0, 0.0)" width="56.0" xlink:href="#shape0"/>
    </g>
    <g id="shape0" transform="matrix(1.0, 0.0, 0.0, 1.0, 0.0, 0.0)">
      <path d="M56.0 56.0 L0.0 56.0 0.0 0.0 56.0 0.0 56.0 56.0" fill="#010101" fill-opacity="0.0" fill-rule="evenodd" stroke="none"/>
    </g>
    <g id="shape1" transform="matrix(1.0, 0.0, 0.0, 1.0, -4.05, -10.7)">
      <path d="M33.5 15.55 Q35.35 12.35 38.75 11.5 L38.85 11.5 38.95 11.55 Q41.25 13.65 40.75 17.65 L40.7 17.8 40.6 17.85 40.45 17.8 Q38.05 16.3 33.65 15.85 L33.55 15.85 33.45 15.7 33.5 15.55 M27.6 30.35 Q27.6 27.7 26.0 25.8 24.4 23.9 22.1 23.9 19.8 23.9 18.2 25.8 17.1 27.1 16.75 28.75 L18.2 27.0 Q19.75 25.35 22.05 25.3 24.4 25.3 26.0 27.2 27.4 28.85 27.6 31.05 L27.6 30.35 M23.7 15.55 L23.75 15.7 23.65 15.85 23.55 15.85 Q19.15 16.3 16.75 17.8 L16.6 17.85 16.5 17.8 16.4 17.65 Q15.95 13.65 18.25 11.55 L18.35 11.5 18.45 11.5 Q21.85 12.35 23.7 15.55 M30.3 30.35 L30.35 31.05 Q30.55 28.85 31.9 27.2 33.55 25.3 36.0 25.45 38.45 25.6 40.7 27.75 L40.95 28.05 Q40.6 26.8 39.7 25.8 38.1 23.9 35.8 23.9 33.55 23.9 31.9 25.8 30.3 27.7 30.3 30.35 M23.05 17.15 L28.6 16.8 34.15 17.15 Q40.3 17.9 42.75 21.0 L44.45 20.9 Q46.45 20.3 47.5 17.95 L47.55 17.85 47.7 17.8 47.8 17.85 47.9 17.95 48.35 19.3 Q48.6 20.7 48.05 21.95 L49.0 21.7 Q50.9 21.35 52.25 22.6 L52.35 22.75 52.3 22.9 52.2 22.95 50.95 23.55 Q49.8 24.45 49.6 26.05 L49.9 27.55 Q50.15 29.45 50.05 31.3 49.75 37.3 45.95 40.85 L45.95 40.8 45.55 41.35 43.9 42.55 Q40.65 44.2 34.6 43.75 32.8 45.0 31.65 45.35 L28.6 45.8 25.55 45.35 Q24.4 45.0 22.6 43.75 16.55 44.2 13.35 42.55 12.3 42.05 11.65 41.35 L11.3 40.85 Q7.4 37.3 7.1 31.3 7.05 29.45 7.3 27.55 L7.55 26.05 Q7.4 24.45 6.25 23.55 L5.0 22.95 4.9 22.9 4.85 22.75 4.95 22.6 Q6.3 21.35 8.2 21.7 L9.2 21.95 Q8.6 20.7 8.85 19.3 L9.35 17.95 9.4 17.85 9.5 17.8 9.65 17.85 9.7 17.95 Q10.75 20.3 12.75 20.9 L14.45 21.0 Q16.9 17.9 23.05 17.15 M29.05 36.25 L29.3 33.4 31.3 32.2 31.4 32.1 31.4 32.0 31.3 31.85 31.2 31.8 26.25 31.8 26.15 31.85 26.05 32.0 26.05 32.1 26.15 32.2 28.15 33.4 28.35 36.25 28.1 37.4 27.45 38.35 Q26.55 39.25 25.3 39.25 24.0 39.25 23.1 38.35 22.25 37.5 22.2 36.25 L21.55 36.25 Q21.55 37.75 22.6 38.85 23.7 39.95 25.3 39.95 26.8 39.95 27.9 38.85 L27.95 38.8 28.7 37.75 29.45 38.85 Q30.55 39.95 32.1 39.95 33.65 39.95 34.75 38.85 L34.75 38.8 Q35.8 37.75 35.85 36.25 L35.15 36.25 Q35.15 37.5 34.25 38.35 33.35 39.25 32.1 39.25 30.85 39.25 29.95 38.35 L29.55 37.9 Q29.05 37.15 29.05 36.25" fill="#000000" fill-rule="evenodd" stroke="none"/>
      <path d="M33.5 15.55 Q35.35 12.35 38.75 11.5 L38.85 11.5 38.95 11.55 Q41.25 13.65 40.75 17.65 L40.7 17.8 40.6 17.85 40.45 17.8 Q38.05 16.3 33.65 15.85 L33.55 15.85 33.45 15.7 33.5 15.55 M23.05 17.15 Q16.9 17.9 14.45 21.0 L12.75 20.9 Q10.75 20.3 9.7 17.95 L9.65 17.85 9.5 17.8 9.4 17.85 9.35 17.95 8.85 19.3 Q8.6 20.7 9.2 21.95 L8.2 21.7 Q6.3 21.35 4.95 22.6 L4.85 22.75 4.9 22.9 5.0 22.95 6.25 23.55 Q7.4 24.45 7.55 26.05 L7.3 27.55 Q7.05 29.45 7.1 31.3 7.4 37.3 11.3 40.85 L11.65 41.35 Q12.3 42.05 13.35 42.55 16.55 44.2 22.6 43.75 24.4 45.0 25.55 45.35 L28.6 45.8 31.65 45.35 Q32.8 45.0 34.6 43.75 40.65 44.2 43.9 42.55 L45.55 41.35 45.95 40.8 45.95 40.85 Q49.75 37.3 50.05 31.3 50.15 29.45 49.9 27.55 L49.6 26.05 Q49.8 24.45 50.95 23.55 L52.2 22.95 52.3 22.9 52.35 22.75 52.25 22.6 Q50.9 21.35 49.0 21.7 L48.05 21.95 Q48.6 20.7 48.35 19.3 L47.9 17.95 47.8 17.85 47.7 17.8 47.55 17.85 47.5 17.95 Q46.45 20.3 44.45 20.9 L42.75 21.0 Q40.3 17.9 34.15 17.15 L28.6 16.8 23.05 17.15 M30.3 30.35 Q30.3 27.7 31.9 25.8 33.55 23.9 35.8 23.9 38.1 23.9 39.7 25.8 40.6 26.8 40.95 28.05 L40.7 27.75 Q38.45 25.6 36.0 25.45 33.55 25.3 31.9 27.2 30.55 28.85 30.35 31.05 L30.3 30.35 M23.7 15.55 Q21.85 12.35 18.45 11.5 L18.35 11.5 18.25 11.55 Q15.95 13.65 16.4 17.65 L16.5 17.8 16.6 17.85 16.75 17.8 Q19.15 16.3 23.55 15.85 L23.65 15.85 23.75 15.7 23.7 15.55 M27.6 30.35 L27.6 31.05 Q27.4 28.85 26.0 27.2 24.4 25.3 22.05 25.3 19.75 25.35 18.2 27.0 L16.75 28.75 Q17.1 27.1 18.2 25.8 19.8 23.9 22.1 23.9 24.4 23.9 26.0 25.8 27.6 27.7 27.6 30.35 M29.05 36.25 L29.3 33.4 31.3 32.2 31.4 32.1 31.4 32.0 31.3 31.85 31.2 31.8 26.25 31.8 26.15 31.85 26.05 32.0 26.05 32.1 26.15 32.2 28.15 33.4 28.35 36.25 28.1 37.4 27.45 38.35 Q26.55 39.25 25.3 39.25 24.0 39.25 23.1 38.35 22.25 37.5 22.2 36.25 L21.55 36.25 Q21.55 37.75 22.6 38.85 23.7 39.95 25.3 39.95 26.8 39.95 27.9 38.85 L27.95 38.8 28.7 37.75 29.45 38.85 Q30.55 39.95 32.1 39.95 33.65 39.95 34.75 38.85 L34.75 38.8 Q35.8 37.75 35.85 36.25 L35.15 36.25 Q35.15 37.5 34.25 38.35 33.35 39.25 32.1 39.25 30.85 39.25 29.95 38.35 L29.55 37.9 Q29.05 37.15 29.05 36.25 Z" fill="none" stroke="#000000" stroke-linecap="round" stroke-linejoin="round" stroke-opacity="0.2" stroke-width="1.6"/>
      <path d="M23.05 17.15 L28.6 16.8 34.15 17.15 Q40.3 17.9 42.75 21.0 L44.45 20.9 Q46.45 20.3 47.5 17.95 L47.55 17.85 47.7 17.8 47.8 17.85 47.9 17.95 48.35 19.3 Q48.6 20.7 48.05 21.95 L49.0 21.7 Q50.9 21.35 52.25 22.6 L52.35 22.75 52.3 22.9 52.2 22.95 50.95 23.55 Q49.8 24.45 49.6 26.05 L49.9 27.55 Q50.15 29.45 50.05 31.3 49.75 37.3 45.95 40.85 L45.95 40.8 45.55 41.35 43.9 42.55 Q40.65 44.2 34.6 43.75 32.8 45.0 31.65 45.35 L28.6 45.8 25.55 45.35 Q24.4 45.0 22.6 43.75 16.55 44.2 13.35 42.55 12.3 42.05 11.65 41.35 L11.3 40.85 Q7.4 37.3 7.1 31.3 7.05 29.45 7.3 27.55 L7.55 26.05 Q7.4 24.45 6.25 23.55 L5.0 22.95 4.9 22.9 4.85 22.75 4.95 22.6 Q6.3 21.35 8.2 21.7 L9.2 21.95 Q8.6 20.7 8.85 19.3 L9.35 17.95 9.4 17.85 9.5 17.8 9.65 17.85 9.7 17.95 Q10.75 20.3 12.75 20.9 L14.45 21.0 Q16.9 17.9 23.05 17.15 M33.5 15.55 Q35.35 12.35 38.75 11.5 L38.85 11.5 38.95 11.55 Q41.25 13.65 40.75 17.65 L40.7 17.8 40.6 17.85 40.45 17.8 Q38.05 16.3 33.65 15.85 L33.55 15.85 33.45 15.7 33.5 15.55 M27.6 30.35 Q27.6 27.7 26.0 25.8 24.4 23.9 22.1 23.9 19.8 23.9 18.2 25.8 17.1 27.1 16.75 28.75 L18.2 27.0 Q19.75 25.35 22.05 25.3 24.4 25.3 26.0 27.2 27.4 28.85 27.6 31.05 L27.6 30.35 M23.7 15.55 L23.75 15.7 23.65 15.85 23.55 15.85 Q19.15 16.3 16.75 17.8 L16.6 17.85 16.5 17.8 16.4 17.65 Q15.95 13.65 18.25 11.55 L18.35 11.5 18.45 11.5 Q21.85 12.35 23.7 15.55 M30.3 30.35 L30.35 31.05 Q30.55 28.85 31.9 27.2 33.55 25.3 36.0 25.45 38.45 25.6 40.7 27.75 L40.95 28.05 Q40.6 26.8 39.7 25.8 38.1 23.9 35.8 23.9 33.55 23.9 31.9 25.8 30.3 27.7 30.3 30.35 M29.05 36.25 L29.3 33.4 31.3 32.2 31.4 32.1 31.4 32.0 31.3 31.85 31.2 31.8 26.25 31.8 26.15 31.85 26.05 32.0 26.05 32.1 26.15 32.2 28.15 33.4 28.35 36.25 28.1 37.4 27.45 38.35 Q26.55 39.25 25.3 39.25 24.0 39.25 23.1 38.35 22.25 37.5 22.2 36.25 L21.55 36.25 Q21.55 37.75 22.6 38.85 23.7 39.95 25.3 39.95 26.8 39.95 27.9 38.85 L27.95 38.8 28.7 37.75 29.45 38.85 Q30.55 39.95 32.1 39.95 33.65 39.95 34.75 38.85 L34.75 38.8 Q35.8 37.75 35.85 36.25 L35.15 36.25 Q35.15 37.5 34.25 38.35 33.35 39.25 32.1 39.25 30.85 39.25 29.95 38.35 L29.55 37.9 Q29.05 37.15 29.05 36.25" fill="#000000" fill-rule="evenodd" stroke="none"/>
    </g>
  </defs>
</svg>
