<?xml version="1.0" encoding="UTF-8" standalone="no"?>
<svg xmlns:ffdec="https://www.free-decompiler.com/flash" xmlns:xlink="http://www.w3.org/1999/xlink" ffdec:objectType="frame" height="56.0px" width="56.0px" xmlns="http://www.w3.org/2000/svg">
  <g transform="matrix(1.0, 0.0, 0.0, 1.0, 0.0, 0.0)">
    <use ffdec:characterId="2" height="56.0" id="back" transform="matrix(1.0, 0.0, 0.0, 1.0, 0.0, 0.0)" width="56.0" xlink:href="#sprite0"/>
    <use ffdec:characterId="3" height="52.1" transform="matrix(1.0, 0.0, 0.0, 1.0, 14.85, 1.85)" width="27.05" xlink:href="#shape1"/>
  </g>
  <defs>
    <g id="sprite0" transform="matrix(1.0, 0.0, 0.0, 1.0, 0.0, 0.0)">
      <use ffdec:characterId="1" height="56.0" transform="matrix(1.0, 0.0, 0.0, 1.0, 0.0, 0.0)" width="56.0" xlink:href="#shape0"/>
    </g>
    <g id="shape0" transform="matrix(1.0, 0.0, 0.0, 1.0, 0.0, 0.0)">
      <path d="M56.0 56.0 L0.0 56.0 0.0 0.0 56.0 0.0 56.0 56.0" fill="#010101" fill-opacity="0.0" fill-rule="evenodd" stroke="none"/>
    </g>
    <g id="shape1" transform="matrix(1.0, 0.0, 0.0, 1.0, -14.85, -1.85)">
      <path d="M26.4 11.6 L26.1 11.7 Q21.65 10.2 21.65 2.65 L35.15 2.65 Q35.15 10.2 30.6 11.7 L30.35 11.6 30.35 25.45 31.75 25.45 31.65 31.4 41.1 30.65 Q41.25 38.8 37.75 52.65 L28.4 53.15 19.0 52.65 Q15.55 38.8 15.65 30.65 L25.15 31.4 24.95 25.45 26.4 25.45 26.4 11.6 M25.15 5.65 Q25.6 8.95 27.5 9.05 L28.4 8.95 29.2 9.05 Q31.1 8.95 31.65 5.65 L25.15 5.65" fill="#000000" fill-rule="evenodd" stroke="none"/>
      <path d="M26.4 11.6 L26.4 25.45 24.95 25.45 25.15 31.4 15.65 30.65 Q15.55 38.8 19.0 52.65 L28.4 53.15 37.75 52.65 Q41.25 38.8 41.1 30.65 L31.65 31.4 31.75 25.45 30.35 25.45 30.35 11.6 30.6 11.7 Q35.15 10.2 35.15 2.65 L21.65 2.65 Q21.65 10.2 26.1 11.7 L26.4 11.6 M25.15 5.65 Q25.6 8.95 27.5 9.05 L28.4 8.95 29.2 9.05 Q31.1 8.95 31.65 5.65 L25.15 5.65 Z" fill="none" stroke="#000000" stroke-linecap="round" stroke-linejoin="round" stroke-opacity="0.2" stroke-width="1.6"/>
      <path d="M25.15 5.65 Q25.6 8.95 27.5 9.05 L28.4 8.95 29.2 9.05 Q31.1 8.95 31.65 5.65 L25.15 5.65 M26.4 11.6 L26.1 11.7 Q21.65 10.2 21.65 2.65 L35.15 2.65 Q35.15 10.2 30.6 11.7 L30.35 11.6 30.35 25.45 31.75 25.45 31.65 31.4 41.1 30.65 Q41.25 38.8 37.75 52.65 L28.4 53.15 19.0 52.65 Q15.55 38.8 15.65 30.65 L25.15 31.4 24.95 25.45 26.4 25.45 26.4 11.6" fill="#000000" fill-rule="evenodd" stroke="none"/>
    </g>
  </defs>
</svg>
