<?xml version="1.0" encoding="UTF-8" standalone="no"?>
<svg xmlns:ffdec="https://www.free-decompiler.com/flash" xmlns:xlink="http://www.w3.org/1999/xlink" ffdec:objectType="frame" height="56.0px" width="56.0px" xmlns="http://www.w3.org/2000/svg">
  <g transform="matrix(1.0, 0.0, 0.0, 1.0, 0.0, 0.0)">
    <use ffdec:characterId="2" height="56.0" id="back" transform="matrix(1.0, 0.0, 0.0, 1.0, 0.0, 0.0)" width="56.0" xlink:href="#sprite0"/>
    <use ffdec:characterId="3" height="50.2" transform="matrix(1.0, 0.0, 0.0, 1.0, 3.6, 3.55)" width="49.1" xlink:href="#shape1"/>
  </g>
  <defs>
    <g id="sprite0" transform="matrix(1.0, 0.0, 0.0, 1.0, 0.0, 0.0)">
      <use ffdec:characterId="1" height="56.0" transform="matrix(1.0, 0.0, 0.0, 1.0, 0.0, 0.0)" width="56.0" xlink:href="#shape0"/>
    </g>
    <g id="shape0" transform="matrix(1.0, 0.0, 0.0, 1.0, 0.0, 0.0)">
      <path d="M56.0 56.0 L0.0 56.0 0.0 0.0 56.0 0.0 56.0 56.0" fill="#010101" fill-opacity="0.0" fill-rule="evenodd" stroke="none"/>
    </g>
    <g id="shape1" transform="matrix(1.0, 0.0, 0.0, 1.0, -3.6, -3.55)">
      <path d="M42.25 21.6 L41.3 21.3 Q39.3 20.95 38.1 22.1 37.25 23.0 37.3 24.45 L37.45 24.6 36.75 25.7 35.6 25.4 Q34.0 25.55 32.85 26.7 31.75 27.75 31.65 29.35 31.75 30.75 32.35 31.7 L31.5 32.8 Q29.45 27.05 24.35 25.3 L24.35 25.25 24.25 25.2 25.15 24.55 Q26.1 25.05 27.3 25.0 29.05 25.05 30.15 24.0 31.3 22.85 31.25 21.05 L31.2 20.15 31.9 19.5 32.0 19.3 Q33.5 19.35 34.45 18.4 35.6 17.25 35.35 15.35 L35.05 14.05 36.2 11.9 51.9 4.35 44.45 20.2 42.25 21.6 M30.5 33.9 L30.6 35.0 Q30.75 38.65 28.2 41.2 L27.85 41.5 30.55 46.0 28.05 47.35 25.45 43.15 23.8 43.6 23.9 48.25 21.0 48.05 20.85 43.75 18.4 43.1 17.85 42.95 Q16.45 43.0 15.5 43.95 14.65 44.8 14.7 46.15 14.65 47.25 15.2 48.0 L11.7 52.95 9.8 47.5 4.4 45.6 9.25 42.05 11.05 42.5 Q12.4 42.6 13.25 41.75 14.2 40.8 14.2 39.45 13.3 38.0 13.0 36.4 L8.6 36.3 8.6 33.3 12.9 33.35 13.0 32.6 13.5 31.55 9.55 29.35 10.95 26.8 14.9 29.1 15.3 28.55 Q17.0 26.85 19.3 26.25 L21.6 25.95 23.7 26.3 Q28.8 27.9 30.5 33.9 M24.8 31.8 Q23.45 30.5 21.45 30.55 19.7 30.5 18.45 31.75 17.15 33.05 17.15 34.85 17.15 36.75 18.5 38.1 19.8 39.4 21.75 39.35 23.6 39.45 24.9 38.2 26.15 36.95 26.05 35.05 26.1 33.15 24.8 31.8" fill="#000000" fill-rule="evenodd" stroke="none"/>
      <path d="M42.25 21.6 L41.3 21.3 Q39.3 20.95 38.1 22.1 37.25 23.0 37.3 24.45 L37.45 24.6 36.75 25.7 35.6 25.4 Q34.0 25.55 32.85 26.7 31.75 27.75 31.65 29.35 31.75 30.75 32.35 31.7 L31.5 32.8 Q29.45 27.05 24.35 25.3 L24.35 25.25 24.25 25.2 25.15 24.55 Q26.1 25.05 27.3 25.0 29.05 25.05 30.15 24.0 31.3 22.85 31.25 21.05 L31.2 20.15 31.9 19.5 32.0 19.3 Q33.5 19.35 34.45 18.4 35.6 17.25 35.35 15.35 L35.05 14.05 36.2 11.9 51.9 4.35 44.45 20.2 42.25 21.6 M30.5 33.9 L30.6 35.0 Q30.75 38.65 28.2 41.2 L27.85 41.5 30.55 46.0 28.05 47.35 25.45 43.15 23.8 43.6 23.9 48.25 21.0 48.05 20.85 43.75 18.4 43.1 17.85 42.95 Q16.45 43.0 15.5 43.95 14.65 44.8 14.7 46.15 14.65 47.25 15.2 48.0 L11.7 52.95 9.8 47.5 4.4 45.6 9.25 42.05 11.05 42.5 Q12.4 42.6 13.25 41.75 14.2 40.8 14.2 39.45 13.3 38.0 13.0 36.4 L8.6 36.3 8.6 33.3 12.9 33.35 13.0 32.6 13.5 31.55 9.55 29.35 10.95 26.8 14.9 29.1 15.3 28.55 Q17.0 26.85 19.3 26.25 L21.6 25.95 23.7 26.3 Q28.8 27.9 30.5 33.9 M24.8 31.8 Q26.1 33.15 26.05 35.05 26.15 36.95 24.9 38.2 23.6 39.45 21.75 39.35 19.8 39.4 18.5 38.1 17.15 36.75 17.15 34.85 17.15 33.05 18.45 31.75 19.7 30.5 21.45 30.55 23.45 30.5 24.8 31.8 Z" fill="none" stroke="#000000" stroke-linecap="round" stroke-linejoin="round" stroke-opacity="0.2" stroke-width="1.6"/>
      <path d="M42.25 21.6 L41.3 21.3 Q39.3 20.95 38.1 22.1 37.25 23.0 37.3 24.45 L37.45 24.6 36.75 25.7 35.6 25.4 Q34.0 25.55 32.85 26.7 31.75 27.75 31.65 29.35 31.75 30.75 32.35 31.7 L31.5 32.8 Q29.45 27.05 24.35 25.3 L24.35 25.25 24.25 25.2 25.15 24.55 Q26.1 25.05 27.3 25.0 29.05 25.05 30.15 24.0 31.3 22.85 31.25 21.05 L31.2 20.15 31.9 19.5 32.0 19.3 Q33.5 19.35 34.45 18.4 35.6 17.25 35.35 15.35 L35.05 14.05 36.2 11.9 51.9 4.35 44.45 20.2 42.25 21.6 M30.5 33.9 L30.6 35.0 Q30.75 38.65 28.2 41.2 L27.85 41.5 30.55 46.0 28.05 47.35 25.45 43.15 23.8 43.6 23.9 48.25 21.0 48.05 20.85 43.75 18.4 43.1 17.85 42.95 Q16.45 43.0 15.5 43.95 14.65 44.8 14.7 46.15 14.65 47.25 15.2 48.0 L11.7 52.95 9.8 47.5 4.4 45.6 9.25 42.05 11.05 42.5 Q12.4 42.6 13.25 41.75 14.2 40.8 14.2 39.45 13.3 38.0 13.0 36.4 L8.6 36.3 8.6 33.3 12.9 33.35 13.0 32.6 13.5 31.55 9.55 29.35 10.95 26.8 14.9 29.1 15.3 28.55 Q17.0 26.85 19.3 26.25 L21.6 25.95 23.7 26.3 Q28.8 27.9 30.5 33.9 M24.8 31.8 Q23.45 30.5 21.45 30.55 19.7 30.5 18.45 31.75 17.15 33.05 17.15 34.85 17.15 36.75 18.5 38.1 19.8 39.4 21.75 39.35 23.6 39.45 24.9 38.2 26.15 36.95 26.05 35.05 26.1 33.15 24.8 31.8" fill="#000000" fill-rule="evenodd" stroke="none"/>
    </g>
  </defs>
</svg>
