<?xml version="1.0" encoding="UTF-8" standalone="no"?>
<svg xmlns:ffdec="https://www.free-decompiler.com/flash" xmlns:xlink="http://www.w3.org/1999/xlink" ffdec:objectType="frame" height="56.0px" width="56.0px" xmlns="http://www.w3.org/2000/svg">
  <g transform="matrix(1.0, 0.0, 0.0, 1.0, 0.0, 0.0)">
    <use ffdec:characterId="2" height="56.0" id="back" transform="matrix(1.0, 0.0, 0.0, 1.0, 0.0, 0.0)" width="56.0" xlink:href="#sprite0"/>
    <use ffdec:characterId="3" height="49.7" transform="matrix(1.0, 0.0, 0.0, 1.0, 9.35, 3.0)" width="38.15" xlink:href="#shape1"/>
  </g>
  <defs>
    <g id="sprite0" transform="matrix(1.0, 0.0, 0.0, 1.0, 0.0, 0.0)">
      <use ffdec:characterId="1" height="56.0" transform="matrix(1.0, 0.0, 0.0, 1.0, 0.0, 0.0)" width="56.0" xlink:href="#shape0"/>
    </g>
    <g id="shape0" transform="matrix(1.0, 0.0, 0.0, 1.0, 0.0, 0.0)">
      <path d="M56.0 56.0 L0.0 56.0 0.0 0.0 56.0 0.0 56.0 56.0" fill="#010101" fill-opacity="0.0" fill-rule="evenodd" stroke="none"/>
    </g>
    <g id="shape1" transform="matrix(1.0, 0.0, 0.0, 1.0, -9.35, -3.0)">
      <path d="M33.7 3.8 L39.85 31.75 Q45.35 36.75 46.7 42.15 41.7 47.5 32.5 51.9 L32.25 45.6 Q37.8 42.6 37.3 39.0 35.4 34.4 31.25 32.35 L33.7 3.8 M23.75 3.8 L25.7 32.35 Q21.55 34.4 19.55 39.0 18.95 42.6 24.5 45.6 L24.2 51.9 Q15.1 47.5 10.15 42.15 11.55 36.75 17.1 31.75 L23.75 3.8" fill="#000000" fill-rule="evenodd" stroke="none"/>
      <path d="M33.7 3.8 L31.25 32.35 Q35.4 34.4 37.3 39.0 37.8 42.6 32.25 45.6 L32.5 51.9 Q41.7 47.5 46.7 42.15 45.35 36.75 39.85 31.75 L33.7 3.8 M23.75 3.8 L25.7 32.35 Q21.55 34.4 19.55 39.0 18.95 42.6 24.5 45.6 L24.2 51.9 Q15.1 47.5 10.15 42.15 11.55 36.75 17.1 31.75 L23.75 3.8 Z" fill="none" stroke="#000000" stroke-linecap="round" stroke-linejoin="round" stroke-opacity="0.2" stroke-width="1.6"/>
      <path d="M33.7 3.8 L39.85 31.75 Q45.35 36.75 46.7 42.15 41.7 47.5 32.5 51.9 L32.25 45.6 Q37.8 42.6 37.3 39.0 35.4 34.4 31.25 32.35 L33.7 3.8 M23.75 3.8 L25.7 32.35 Q21.55 34.4 19.55 39.0 18.95 42.6 24.5 45.6 L24.2 51.9 Q15.1 47.5 10.15 42.15 11.55 36.75 17.1 31.75 L23.75 3.8" fill="#000000" fill-rule="evenodd" stroke="none"/>
    </g>
  </defs>
</svg>
