<?xml version="1.0" encoding="UTF-8" standalone="no"?>
<svg xmlns:ffdec="https://www.free-decompiler.com/flash" xmlns:xlink="http://www.w3.org/1999/xlink" ffdec:objectType="frame" height="56.0px" width="56.0px" xmlns="http://www.w3.org/2000/svg">
  <g transform="matrix(1.0, 0.0, 0.0, 1.0, 0.0, 0.0)">
    <use ffdec:characterId="2" height="56.0" id="back" transform="matrix(1.0, 0.0, 0.0, 1.0, 0.0, 0.0)" width="56.0" xlink:href="#sprite0"/>
    <use ffdec:characterId="3" height="42.35" transform="matrix(1.0, 0.0, 0.0, 1.0, 3.85, 8.45)" width="49.35" xlink:href="#shape1"/>
  </g>
  <defs>
    <g id="sprite0" transform="matrix(1.0, 0.0, 0.0, 1.0, 0.0, 0.0)">
      <use ffdec:characterId="1" height="56.0" transform="matrix(1.0, 0.0, 0.0, 1.0, 0.0, 0.0)" width="56.0" xlink:href="#shape0"/>
    </g>
    <g id="shape0" transform="matrix(1.0, 0.0, 0.0, 1.0, 0.0, 0.0)">
      <path d="M56.0 56.0 L0.0 56.0 0.0 0.0 56.0 0.0 56.0 56.0" fill="#010101" fill-opacity="0.0" fill-rule="evenodd" stroke="none"/>
    </g>
    <g id="shape1" transform="matrix(1.0, 0.0, 0.0, 1.0, -3.85, -8.45)">
      <path d="M49.35 26.4 L48.05 23.4 49.75 22.6 46.65 23.15 Q44.0 24.4 41.7 25.9 L38.6 27.65 38.5 24.9 38.55 24.1 Q38.7 21.5 39.3 19.5 L39.7 18.45 40.3 17.1 40.7 16.25 42.2 13.35 Q46.35 13.7 48.65 16.7 50.6 19.25 51.05 21.9 L51.2 22.95 49.35 26.4 M16.6 16.2 L17.0 17.05 17.65 18.45 18.05 19.5 Q18.7 21.45 18.8 24.8 L18.75 27.65 15.55 25.85 12.65 24.45 Q11.75 24.0 10.9 23.7 L10.8 23.7 10.2 23.45 8.2 22.95 Q8.8 23.15 9.2 23.55 L7.9 26.3 Q6.8 24.75 6.15 22.95 6.1 22.25 6.3 21.9 6.7 19.8 7.95 17.75 L8.7 16.7 Q10.95 13.7 15.15 13.35 L16.6 16.2 M13.35 44.6 L11.75 43.05 13.7 40.6 14.65 36.3 14.75 35.45 Q15.7 36.15 16.95 36.6 L24.45 36.2 Q24.25 28.45 19.6 24.8 L19.3 20.85 Q18.5 17.95 17.95 17.1 L17.2 15.9 18.3 15.3 18.65 16.2 Q21.8 24.05 27.65 29.95 28.85 30.3 29.3 29.25 L29.05 27.35 Q30.05 24.65 31.8 23.05 33.55 21.45 34.85 19.3 35.8 17.7 36.1 15.25 L36.2 14.25 Q38.25 14.9 40.15 15.95 L39.75 16.8 Q38.95 18.65 38.25 21.0 38.0 22.45 38.0 24.0 L38.0 24.8 37.65 24.75 Q32.95 28.45 32.75 36.2 L40.2 36.6 42.6 35.3 42.7 36.2 Q43.0 38.55 43.65 40.6 L45.55 43.0 43.85 44.6 Q37.5 50.0 28.6 50.0 19.7 50.0 13.35 44.6 M35.4 13.8 L35.4 15.0 Q35.15 18.15 32.6 20.65 29.3 24.0 28.3 27.6 L28.6 28.75 27.9 29.15 Q21.5 22.05 19.3 15.5 L19.0 14.7 18.55 12.75 20.85 11.35 Q22.95 10.1 26.9 9.25 31.95 9.65 35.35 12.75 L35.4 13.8 M49.25 33.15 L48.7 36.0 Q46.9 35.25 45.05 34.1 L44.4 33.7 Q45.4 32.5 45.95 31.05 44.85 27.85 42.25 26.25 L42.95 25.85 Q44.85 24.9 47.25 23.8 L48.65 26.9 48.65 26.95 Q49.75 30.2 49.25 33.0 L49.25 33.15 M52.4 37.95 Q51.2 41.6 47.7 43.4 47.1 43.3 46.1 42.4 L45.45 41.75 45.15 41.45 Q43.75 40.05 43.15 35.85 L43.0 35.0 42.85 33.55 43.9 34.2 44.6 34.65 Q45.85 35.4 46.9 35.75 L48.6 36.35 50.55 36.9 49.45 36.4 50.05 33.35 Q51.95 35.2 52.4 37.95 M14.7 40.65 L15.75 41.1 15.65 42.75 Q16.6 43.45 17.75 43.25 L18.25 41.95 21.4 42.85 21.85 45.3 24.1 45.2 24.3 43.35 27.65 43.75 28.1 46.5 30.5 46.4 30.7 43.75 33.35 43.5 33.75 45.6 36.0 45.5 36.2 43.0 39.2 42.15 40.05 44.1 Q41.15 44.2 42.1 43.35 L41.75 41.1 42.65 40.65 Q42.7 40.2 42.4 39.85 L41.5 40.25 40.95 38.7 Q39.6 38.6 38.5 39.4 L38.9 41.25 36.2 42.05 36.0 40.25 Q34.65 39.75 33.3 40.25 33.2 41.4 33.25 42.6 L30.7 42.8 30.5 40.95 Q29.1 40.4 27.65 40.95 27.55 41.85 27.6 42.8 L24.35 42.45 24.1 40.0 Q22.75 39.5 21.4 40.0 21.3 40.9 21.35 41.85 L18.5 41.1 18.9 38.55 Q17.8 37.75 16.45 37.85 L15.85 40.2 15.0 39.85 Q14.55 40.25 14.7 40.65 M7.15 33.2 Q7.35 34.9 7.9 36.3 L6.55 36.9 7.95 36.55 8.6 36.35 10.15 35.75 12.5 34.65 13.15 34.2 14.2 33.55 14.05 34.95 13.95 35.85 Q13.3 40.05 11.9 41.45 L11.7 41.7 11.05 42.3 Q9.95 43.25 9.3 43.4 L7.95 42.55 Q5.6 40.8 4.65 37.95 5.15 35.1 7.15 33.2 M11.1 31.05 Q11.7 32.55 12.8 33.8 L12.1 34.2 8.5 35.95 7.95 33.35 7.95 33.15 7.9 32.55 Q7.85 31.25 7.95 30.15 8.1 27.85 8.8 26.3 9.2 25.0 9.85 23.9 12.35 24.8 14.85 26.25 12.2 27.85 11.1 31.05" fill="#000000" fill-rule="evenodd" stroke="none"/>
      <path d="M35.4 13.8 L35.35 12.75 Q31.95 9.65 26.9 9.25 22.95 10.1 20.85 11.35 L18.55 12.75 19.0 14.7 19.3 15.5 Q21.5 22.05 27.9 29.15 L28.6 28.75 28.3 27.6 Q29.3 24.0 32.6 20.65 35.15 18.15 35.4 15.0 L35.4 13.8 M13.35 44.6 Q19.7 50.0 28.6 50.0 37.5 50.0 43.85 44.6 L45.55 43.0 43.65 40.6 Q43.0 38.55 42.7 36.2 L42.6 35.3 40.2 36.6 32.75 36.2 Q32.95 28.45 37.65 24.75 L38.0 24.8 38.0 24.0 Q38.0 22.45 38.25 21.0 38.95 18.65 39.75 16.8 L40.15 15.95 Q38.25 14.9 36.2 14.25 L36.1 15.25 Q35.8 17.7 34.85 19.3 33.55 21.45 31.8 23.05 30.05 24.65 29.05 27.35 L29.3 29.25 Q28.85 30.3 27.65 29.95 21.8 24.05 18.65 16.2 L18.3 15.3 17.2 15.9 17.95 17.1 Q18.5 17.95 19.3 20.85 L19.6 24.8 Q24.25 28.45 24.45 36.2 L16.95 36.6 Q15.7 36.15 14.75 35.45 L14.65 36.3 13.7 40.6 11.75 43.05 13.35 44.6 M16.6 16.2 L15.15 13.35 Q10.95 13.7 8.7 16.7 L7.95 17.75 Q6.7 19.8 6.3 21.9 6.1 22.25 6.15 22.95 6.8 24.75 7.9 26.3 L9.2 23.55 Q8.8 23.15 8.2 22.95 L10.2 23.45 10.8 23.7 10.9 23.7 Q11.75 24.0 12.65 24.45 L15.55 25.85 18.75 27.65 18.8 24.8 Q18.7 21.45 18.05 19.5 L17.65 18.45 17.0 17.05 16.6 16.2 M49.35 26.4 L51.2 22.95 51.05 21.9 Q50.6 19.25 48.65 16.7 46.35 13.7 42.2 13.35 L40.7 16.25 40.3 17.1 39.7 18.45 39.3 19.5 Q38.7 21.5 38.55 24.1 L38.5 24.9 38.6 27.65 41.7 25.9 Q44.0 24.4 46.65 23.15 L49.75 22.6 48.05 23.4 49.35 26.4 M49.25 33.15 L48.7 36.0 Q46.9 35.25 45.05 34.1 L44.4 33.7 Q45.4 32.5 45.95 31.05 44.85 27.85 42.25 26.25 L42.95 25.85 Q44.85 24.9 47.25 23.8 L48.65 26.9 48.65 26.95 Q49.75 30.2 49.25 33.0 L49.25 33.15 M52.4 37.95 Q51.95 35.2 50.05 33.35 L49.45 36.4 50.55 36.9 48.6 36.35 46.9 35.75 Q45.85 35.4 44.6 34.65 L43.9 34.2 42.85 33.55 43.0 35.0 43.15 35.85 Q43.75 40.05 45.15 41.45 L45.45 41.75 46.1 42.4 Q47.1 43.3 47.7 43.4 51.2 41.6 52.4 37.95 M14.7 40.65 L15.75 41.1 15.65 42.75 Q16.6 43.45 17.75 43.25 L18.25 41.95 21.4 42.85 21.85 45.3 24.1 45.2 24.3 43.35 27.65 43.75 28.1 46.5 30.5 46.4 30.7 43.75 33.35 43.5 33.75 45.6 36.0 45.5 36.2 43.0 39.2 42.15 40.05 44.1 Q41.15 44.2 42.1 43.35 L41.75 41.1 42.65 40.65 Q42.7 40.2 42.4 39.85 L41.5 40.25 40.95 38.7 Q39.6 38.6 38.5 39.4 L38.9 41.25 36.2 42.05 36.0 40.25 Q34.65 39.75 33.3 40.25 33.2 41.4 33.25 42.6 L30.7 42.8 30.5 40.95 Q29.1 40.4 27.65 40.95 27.55 41.85 27.6 42.8 L24.35 42.45 24.1 40.0 Q22.75 39.5 21.4 40.0 21.3 40.9 21.35 41.85 L18.5 41.1 18.9 38.55 Q17.8 37.75 16.45 37.85 L15.85 40.2 15.0 39.85 Q14.55 40.25 14.7 40.65 M11.1 31.05 Q12.2 27.85 14.85 26.25 12.35 24.8 9.85 23.9 9.2 25.0 8.8 26.3 8.1 27.85 7.95 30.15 7.85 31.25 7.9 32.55 L7.95 33.15 7.95 33.35 8.5 35.95 12.1 34.2 12.8 33.8 Q11.7 32.55 11.1 31.05 M7.15 33.2 Q5.15 35.1 4.65 37.95 5.6 40.8 7.95 42.55 L9.3 43.4 Q9.95 43.25 11.05 42.3 L11.7 41.7 11.9 41.45 Q13.3 40.05 13.95 35.85 L14.05 34.95 14.2 33.55 13.15 34.2 12.5 34.65 10.15 35.75 8.6 36.35 7.95 36.55 6.55 36.9 7.9 36.3 Q7.35 34.9 7.15 33.2 Z" fill="none" stroke="#000000" stroke-linecap="round" stroke-linejoin="round" stroke-opacity="0.2" stroke-width="1.6"/>
      <path d="M49.35 26.4 L48.05 23.4 49.75 22.6 46.65 23.15 Q44.0 24.4 41.7 25.9 L38.6 27.65 38.5 24.9 38.55 24.1 Q38.7 21.5 39.3 19.5 L39.7 18.45 40.3 17.1 40.7 16.25 42.2 13.35 Q46.35 13.7 48.65 16.7 50.6 19.25 51.05 21.9 L51.2 22.95 49.35 26.4 M16.6 16.2 L17.0 17.05 17.65 18.45 18.05 19.5 Q18.7 21.45 18.8 24.8 L18.75 27.65 15.55 25.85 12.65 24.45 Q11.75 24.0 10.9 23.7 L10.8 23.7 10.2 23.45 8.2 22.95 Q8.8 23.15 9.2 23.55 L7.9 26.3 Q6.8 24.75 6.15 22.95 6.1 22.25 6.3 21.9 6.7 19.8 7.95 17.75 L8.7 16.7 Q10.95 13.7 15.15 13.35 L16.6 16.2 M13.35 44.6 L11.75 43.05 13.7 40.6 14.65 36.3 14.75 35.45 Q15.7 36.15 16.95 36.6 L24.45 36.2 Q24.25 28.45 19.6 24.8 L19.3 20.85 Q18.5 17.95 17.95 17.1 L17.2 15.9 18.3 15.3 18.65 16.2 Q21.8 24.05 27.65 29.95 28.85 30.3 29.3 29.25 L29.05 27.35 Q30.05 24.65 31.8 23.05 33.55 21.45 34.85 19.3 35.8 17.7 36.1 15.25 L36.2 14.25 Q38.25 14.9 40.15 15.95 L39.75 16.8 Q38.95 18.65 38.25 21.0 38.0 22.45 38.0 24.0 L38.0 24.8 37.65 24.75 Q32.95 28.45 32.75 36.2 L40.2 36.6 42.6 35.3 42.7 36.2 Q43.0 38.55 43.65 40.6 L45.55 43.0 43.85 44.6 Q37.5 50.0 28.6 50.0 19.7 50.0 13.35 44.6 M35.4 13.8 L35.4 15.0 Q35.15 18.15 32.6 20.65 29.3 24.0 28.3 27.6 L28.6 28.75 27.9 29.15 Q21.5 22.05 19.3 15.5 L19.0 14.7 18.55 12.75 20.85 11.35 Q22.95 10.1 26.9 9.25 31.95 9.65 35.35 12.75 L35.4 13.8 M49.25 33.15 L48.7 36.0 Q46.9 35.25 45.05 34.1 L44.4 33.7 Q45.4 32.5 45.95 31.05 44.85 27.85 42.25 26.25 L42.95 25.85 Q44.85 24.9 47.25 23.8 L48.65 26.9 48.65 26.95 Q49.75 30.2 49.25 33.0 L49.25 33.15 M52.4 37.95 Q51.2 41.6 47.7 43.4 47.1 43.3 46.1 42.4 L45.45 41.75 45.15 41.45 Q43.75 40.05 43.15 35.85 L43.0 35.0 42.85 33.55 43.9 34.2 44.6 34.65 Q45.85 35.4 46.9 35.75 L48.6 36.35 50.55 36.9 49.45 36.4 50.05 33.35 Q51.95 35.2 52.4 37.95 M14.7 40.65 L15.75 41.1 15.65 42.75 Q16.6 43.45 17.75 43.25 L18.25 41.95 21.4 42.85 21.85 45.3 24.1 45.2 24.3 43.35 27.65 43.75 28.1 46.5 30.5 46.4 30.7 43.75 33.35 43.5 33.75 45.6 36.0 45.5 36.2 43.0 39.2 42.15 40.05 44.1 Q41.15 44.2 42.1 43.35 L41.75 41.1 42.65 40.65 Q42.7 40.2 42.4 39.85 L41.5 40.25 40.95 38.7 Q39.6 38.6 38.5 39.4 L38.9 41.25 36.2 42.05 36.0 40.25 Q34.65 39.75 33.3 40.25 33.2 41.4 33.25 42.6 L30.7 42.8 30.5 40.95 Q29.1 40.4 27.65 40.95 27.55 41.85 27.6 42.8 L24.35 42.45 24.1 40.0 Q22.75 39.5 21.4 40.0 21.3 40.9 21.35 41.85 L18.5 41.1 18.9 38.55 Q17.8 37.75 16.45 37.85 L15.85 40.2 15.0 39.85 Q14.55 40.25 14.7 40.65 M7.15 33.2 Q7.35 34.9 7.9 36.3 L6.55 36.9 7.95 36.55 8.6 36.35 10.15 35.75 12.5 34.65 13.15 34.2 14.2 33.55 14.05 34.95 13.95 35.85 Q13.3 40.05 11.9 41.45 L11.7 41.7 11.05 42.3 Q9.95 43.25 9.3 43.4 L7.95 42.55 Q5.6 40.8 4.65 37.95 5.15 35.1 7.15 33.2 M11.1 31.05 Q11.7 32.55 12.8 33.8 L12.1 34.2 8.5 35.95 7.95 33.35 7.95 33.15 7.9 32.55 Q7.85 31.25 7.95 30.15 8.1 27.85 8.8 26.3 9.2 25.0 9.85 23.9 12.35 24.8 14.85 26.25 12.2 27.85 11.1 31.05" fill="#000000" fill-rule="evenodd" stroke="none"/>
    </g>
  </defs>
</svg>
