<?xml version="1.0" encoding="UTF-8" standalone="no"?>
<svg xmlns:ffdec="https://www.free-decompiler.com/flash" xmlns:xlink="http://www.w3.org/1999/xlink" ffdec:objectType="frame" height="56.0px" width="56.0px" xmlns="http://www.w3.org/2000/svg">
  <g transform="matrix(1.0, 0.0, 0.0, 1.0, 0.0, 0.0)">
    <use ffdec:characterId="2" height="56.0" id="back" transform="matrix(1.0, 0.0, 0.0, 1.0, 0.0, 0.0)" width="56.0" xlink:href="#sprite0"/>
    <use ffdec:characterId="3" height="42.4" transform="matrix(1.0, 0.0, 0.0, 1.0, 2.3, 7.75)" width="51.15" xlink:href="#shape1"/>
  </g>
  <defs>
    <g id="sprite0" transform="matrix(1.0, 0.0, 0.0, 1.0, 0.0, 0.0)">
      <use ffdec:characterId="1" height="56.0" transform="matrix(1.0, 0.0, 0.0, 1.0, 0.0, 0.0)" width="56.0" xlink:href="#shape0"/>
    </g>
    <g id="shape0" transform="matrix(1.0, 0.0, 0.0, 1.0, 0.0, 0.0)">
      <path d="M56.0 56.0 L0.0 56.0 0.0 0.0 56.0 0.0 56.0 56.0" fill="#010101" fill-opacity="0.0" fill-rule="evenodd" stroke="none"/>
    </g>
    <g id="shape1" transform="matrix(1.0, 0.0, 0.0, 1.0, -2.3, -7.75)">
      <path d="M24.3 16.2 Q24.2 14.95 23.5 14.3 22.8 13.65 22.05 13.65 21.3 13.75 20.65 14.5 20.0 15.25 19.75 16.2 19.45 17.2 20.15 17.9 20.85 18.55 21.95 18.6 23.0 18.6 23.7 18.05 24.4 17.45 24.3 16.2 M45.5 23.6 L45.55 23.7 Q47.65 26.5 47.75 30.45 L47.75 30.9 Q47.75 35.15 45.55 38.15 43.35 41.1 40.25 41.1 38.1 41.1 36.4 39.65 35.75 40.6 34.75 41.0 L33.05 39.75 32.1 40.7 Q32.95 42.8 32.65 45.45 32.3 48.05 29.8 49.0 27.3 49.9 24.75 48.4 22.2 46.9 23.65 40.65 L22.8 39.7 Q22.1 40.9 21.1 41.0 20.1 40.55 19.45 39.55 17.7 41.1 15.5 41.1 12.4 41.1 10.2 38.15 8.0 35.15 8.0 30.9 L8.0 30.45 Q8.1 26.65 10.1 23.85 L10.3 22.7 9.85 23.25 Q7.65 26.25 7.55 30.4 L7.55 30.9 Q7.55 35.35 9.85 38.55 L10.8 39.65 Q10.3 40.95 10.2 42.1 10.55 43.95 11.15 44.85 9.6 44.3 8.45 43.1 L8.15 42.1 7.55 39.5 Q7.4 40.9 5.35 42.9 5.7 40.5 4.85 37.65 L4.35 35.3 Q4.8 32.7 5.35 31.0 L6.25 28.65 3.1 30.35 3.15 30.3 Q4.7 27.45 6.95 25.9 8.0 23.85 9.15 22.45 10.05 21.35 10.9 20.75 12.2 17.0 15.05 14.05 20.35 8.55 27.8 8.55 35.25 8.55 40.55 14.05 43.35 16.95 44.65 20.55 L46.65 22.45 Q47.8 23.85 48.8 25.9 51.05 27.45 52.65 30.3 L52.65 30.35 Q50.6 28.3 49.5 28.65 L50.4 31.0 51.15 34.15 51.35 35.55 51.2 36.45 Q50.45 40.1 50.9 43.3 48.35 40.9 48.25 39.5 L47.9 41.15 47.3 43.1 Q46.15 44.3 44.6 44.85 45.2 43.95 45.6 42.1 L44.95 39.65 45.9 38.55 Q48.25 35.35 48.25 30.9 L48.2 30.4 Q48.1 26.25 45.9 23.25 L45.2 22.45 45.5 23.6 M20.5 34.65 Q21.1 32.95 21.1 31.0 L20.85 28.5 Q20.35 26.5 19.2 24.9 17.4 22.35 14.75 22.35 12.2 22.35 10.3 24.9 8.55 27.4 8.55 31.0 L8.55 31.8 Q8.7 34.75 10.3 37.0 12.2 39.55 14.75 39.55 17.05 39.55 18.75 37.6 19.35 35.65 20.5 34.65 M25.1 24.95 Q21.85 27.4 28.05 27.15 34.2 26.95 31.25 24.7 28.3 22.45 25.1 24.95 M22.85 30.0 L22.9 30.05 Q22.05 32.25 22.5 34.7 L22.5 34.9 22.4 34.9 Q20.2 34.9 19.2 37.6 19.45 38.6 19.85 39.25 20.35 40.1 21.1 40.3 L22.4 39.05 22.1 38.2 22.05 38.1 21.9 37.45 21.3 37.9 20.55 38.9 20.8 38.15 Q21.2 37.2 21.65 36.8 21.8 36.6 22.35 36.5 22.5 37.8 23.05 38.75 23.6 39.7 24.2 39.85 24.8 40.0 26.35 39.35 27.85 38.65 27.95 36.0 28.55 38.85 29.55 39.7 L32.05 39.75 33.1 38.75 33.6 37.65 33.85 36.25 33.9 36.3 Q34.8 36.85 35.35 38.45 L34.8 37.9 34.75 37.85 34.05 37.4 33.9 38.0 33.75 38.5 33.45 39.05 34.75 40.3 Q35.5 40.1 36.0 39.3 L36.65 37.6 Q35.65 34.8 33.35 34.9 33.75 32.8 33.3 31.1 L33.9 28.05 33.85 25.1 Q33.7 23.5 32.55 22.75 28.4 20.0 23.7 23.0 22.65 23.65 22.55 27.3 22.55 28.65 22.85 30.0 M33.45 26.75 Q33.4 29.2 33.05 30.25 32.5 31.8 31.95 32.05 29.85 33.2 28.2 33.2 26.45 33.2 24.75 32.3 24.15 32.1 23.85 31.45 23.4 30.35 23.2 29.15 22.9 26.7 23.2 24.95 23.4 24.25 23.65 24.0 25.55 22.95 27.7 22.7 29.9 22.4 32.7 24.05 33.05 24.35 33.2 24.95 L33.45 26.75 M27.95 39.8 L27.9 39.85 27.7 40.05 27.95 46.1 Q27.95 42.7 28.25 40.1 L27.95 39.85 27.95 39.8 M10.4 30.55 Q10.4 29.55 10.65 28.85 11.0 28.2 11.5 28.2 11.95 28.2 12.25 28.85 12.6 29.55 12.6 30.55 12.6 31.5 12.25 32.15 11.95 32.85 11.5 32.85 11.0 32.85 10.65 32.15 10.4 31.5 10.4 30.55 M31.4 16.2 Q31.3 17.45 32.0 18.05 32.7 18.6 33.8 18.6 34.9 18.55 35.55 17.9 36.25 17.2 36.0 16.2 35.7 15.25 35.05 14.5 34.45 13.75 33.7 13.65 32.95 13.65 32.2 14.3 31.5 14.95 31.4 16.2 M35.25 34.5 Q36.55 35.5 37.15 37.75 38.8 39.55 41.0 39.55 43.6 39.55 45.45 37.0 47.05 34.75 47.25 31.8 L47.25 31.0 Q47.25 27.4 45.45 24.9 43.6 22.35 41.0 22.35 38.35 22.35 36.55 24.9 35.4 26.5 34.9 28.5 L34.7 31.0 Q34.7 32.9 35.25 34.5 M45.4 30.55 L45.1 32.15 Q44.75 32.85 44.25 32.85 43.85 32.85 43.5 32.15 43.15 31.5 43.15 30.55 43.15 29.55 43.5 28.85 43.85 28.2 44.25 28.2 44.75 28.2 45.1 28.85 L45.4 30.55" fill="#000000" fill-rule="evenodd" stroke="none"/>
      <path d="M45.5 23.6 L45.2 22.45 45.9 23.25 Q48.1 26.25 48.2 30.4 L48.25 30.9 Q48.25 35.35 45.9 38.55 L44.95 39.65 45.6 42.1 Q45.2 43.95 44.6 44.85 46.15 44.3 47.3 43.1 L47.9 41.15 48.25 39.5 Q48.35 40.9 50.9 43.3 50.45 40.1 51.2 36.45 L51.35 35.55 51.15 34.15 50.4 31.0 49.5 28.65 Q50.6 28.3 52.65 30.35 L52.65 30.3 Q51.05 27.45 48.8 25.9 47.8 23.85 46.65 22.45 L44.65 20.55 Q43.35 16.95 40.55 14.05 35.25 8.55 27.8 8.55 20.35 8.55 15.05 14.05 12.2 17.0 10.9 20.75 10.05 21.35 9.15 22.45 8.0 23.85 6.95 25.9 4.7 27.45 3.15 30.3 L3.1 30.35 6.25 28.65 5.35 31.0 Q4.8 32.7 4.35 35.3 L4.85 37.65 Q5.7 40.5 5.35 42.9 7.4 40.9 7.55 39.5 L8.15 42.1 8.45 43.1 Q9.6 44.3 11.15 44.85 10.55 43.95 10.2 42.1 10.3 40.95 10.8 39.65 L9.85 38.55 Q7.55 35.35 7.55 30.9 L7.55 30.4 Q7.65 26.25 9.85 23.25 L10.3 22.7 10.1 23.85 Q8.1 26.65 8.0 30.45 L8.0 30.9 Q8.0 35.15 10.2 38.15 12.4 41.1 15.5 41.1 17.7 41.1 19.45 39.55 20.1 40.55 21.1 41.0 22.1 40.9 22.8 39.7 L23.65 40.65 Q22.2 46.9 24.75 48.4 27.3 49.9 29.8 49.0 32.3 48.05 32.65 45.45 32.95 42.8 32.1 40.7 L33.05 39.75 34.75 41.0 Q35.75 40.6 36.4 39.65 38.1 41.1 40.25 41.1 43.35 41.1 45.55 38.15 47.75 35.15 47.75 30.9 L47.75 30.45 Q47.65 26.5 45.55 23.7 L45.5 23.6 M24.3 16.2 Q24.4 17.45 23.7 18.05 23.0 18.6 21.95 18.6 20.85 18.55 20.15 17.9 19.45 17.2 19.75 16.2 20.0 15.25 20.65 14.5 21.3 13.75 22.05 13.65 22.8 13.65 23.5 14.3 24.2 14.95 24.3 16.2 M20.5 34.65 Q21.1 32.95 21.1 31.0 L20.85 28.5 Q20.35 26.5 19.2 24.9 17.4 22.35 14.75 22.35 12.2 22.35 10.3 24.9 8.55 27.4 8.55 31.0 L8.55 31.8 Q8.7 34.75 10.3 37.0 12.2 39.55 14.75 39.55 17.05 39.55 18.75 37.6 19.35 35.65 20.5 34.65 M25.1 24.95 Q28.3 22.45 31.25 24.7 34.2 26.95 28.05 27.15 21.85 27.4 25.1 24.95 M22.85 30.0 L22.9 30.05 Q22.05 32.25 22.5 34.7 L22.5 34.9 22.4 34.9 Q20.2 34.9 19.2 37.6 19.45 38.6 19.85 39.25 20.35 40.1 21.1 40.3 L22.4 39.05 22.1 38.2 22.05 38.1 21.9 37.45 21.3 37.9 20.55 38.9 20.8 38.15 Q21.2 37.2 21.65 36.8 21.8 36.6 22.35 36.5 22.5 37.8 23.05 38.75 23.6 39.7 24.2 39.85 24.8 40.0 26.35 39.35 27.85 38.65 27.95 36.0 28.55 38.85 29.55 39.7 L32.05 39.75 33.1 38.75 33.6 37.65 33.85 36.25 33.9 36.3 Q34.8 36.85 35.35 38.45 L34.8 37.9 34.75 37.85 34.05 37.4 33.9 38.0 33.75 38.5 33.45 39.05 34.75 40.3 Q35.5 40.1 36.0 39.3 L36.65 37.6 Q35.65 34.8 33.35 34.9 33.75 32.8 33.3 31.1 L33.9 28.05 33.85 25.1 Q33.7 23.5 32.55 22.75 28.4 20.0 23.7 23.0 22.65 23.65 22.55 27.3 22.55 28.65 22.85 30.0 M33.45 26.75 Q33.4 29.2 33.05 30.25 32.5 31.8 31.95 32.05 29.85 33.2 28.2 33.2 26.45 33.2 24.75 32.3 24.15 32.1 23.85 31.45 23.4 30.35 23.2 29.15 22.9 26.7 23.2 24.95 23.4 24.25 23.65 24.0 25.55 22.95 27.7 22.7 29.9 22.4 32.7 24.05 33.05 24.35 33.2 24.95 L33.45 26.75 M27.95 39.8 L27.9 39.85 27.7 40.05 27.95 46.1 Q27.95 42.7 28.25 40.1 L27.95 39.85 27.95 39.8 M10.4 30.55 Q10.4 31.5 10.65 32.15 11.0 32.85 11.5 32.85 11.95 32.85 12.25 32.15 12.6 31.5 12.6 30.55 12.6 29.55 12.25 28.85 11.95 28.2 11.5 28.2 11.0 28.2 10.65 28.85 10.4 29.55 10.4 30.55 M31.4 16.2 Q31.3 17.45 32.0 18.05 32.7 18.6 33.8 18.6 34.9 18.55 35.55 17.9 36.25 17.2 36.0 16.2 35.7 15.25 35.05 14.5 34.45 13.75 33.7 13.65 32.95 13.65 32.2 14.3 31.5 14.95 31.4 16.2 M35.25 34.5 Q34.7 32.9 34.7 31.0 L34.9 28.5 Q35.4 26.5 36.55 24.9 38.35 22.35 41.0 22.35 43.6 22.35 45.45 24.9 47.25 27.4 47.25 31.0 L47.25 31.8 Q47.05 34.75 45.45 37.0 43.6 39.55 41.0 39.55 38.8 39.55 37.15 37.75 36.55 35.5 35.25 34.5 Z" fill="none" stroke="#000000" stroke-linecap="round" stroke-linejoin="round" stroke-opacity="0.2" stroke-width="1.6"/>
      <path d="M24.3 16.2 Q24.2 14.95 23.5 14.3 22.8 13.65 22.05 13.65 21.3 13.75 20.65 14.5 20.0 15.25 19.75 16.2 19.45 17.2 20.15 17.9 20.85 18.55 21.95 18.6 23.0 18.6 23.7 18.05 24.4 17.45 24.3 16.2 M45.5 23.6 L45.55 23.7 Q47.65 26.5 47.75 30.45 L47.75 30.9 Q47.75 35.15 45.55 38.15 43.35 41.1 40.25 41.1 38.1 41.1 36.4 39.65 35.75 40.6 34.75 41.0 L33.05 39.75 32.1 40.7 Q32.95 42.8 32.65 45.45 32.3 48.05 29.8 49.0 27.3 49.9 24.75 48.4 22.2 46.9 23.65 40.65 L22.8 39.7 Q22.1 40.9 21.1 41.0 20.1 40.55 19.45 39.55 17.7 41.1 15.5 41.1 12.4 41.1 10.2 38.15 8.0 35.15 8.0 30.9 L8.0 30.45 Q8.1 26.65 10.1 23.85 L10.3 22.7 9.85 23.25 Q7.65 26.25 7.55 30.4 L7.55 30.9 Q7.55 35.35 9.85 38.55 L10.8 39.65 Q10.3 40.95 10.2 42.1 10.55 43.95 11.15 44.85 9.6 44.3 8.45 43.1 L8.15 42.1 7.55 39.5 Q7.4 40.9 5.35 42.9 5.7 40.5 4.85 37.65 L4.35 35.3 Q4.8 32.7 5.35 31.0 L6.25 28.65 3.1 30.35 3.15 30.3 Q4.7 27.45 6.95 25.9 8.0 23.85 9.15 22.45 10.05 21.35 10.9 20.75 12.2 17.0 15.05 14.05 20.35 8.55 27.8 8.55 35.25 8.55 40.55 14.05 43.35 16.95 44.65 20.55 L46.65 22.45 Q47.8 23.85 48.8 25.9 51.05 27.45 52.65 30.3 L52.65 30.35 Q50.6 28.3 49.5 28.65 L50.4 31.0 51.15 34.15 51.35 35.55 51.2 36.45 Q50.45 40.1 50.9 43.3 48.35 40.9 48.25 39.5 L47.9 41.15 47.3 43.1 Q46.15 44.3 44.6 44.85 45.2 43.95 45.6 42.1 L44.95 39.65 45.9 38.55 Q48.25 35.35 48.25 30.9 L48.2 30.4 Q48.1 26.25 45.9 23.25 L45.2 22.45 45.5 23.6 M20.5 34.65 Q21.1 32.95 21.1 31.0 L20.85 28.5 Q20.35 26.5 19.2 24.9 17.4 22.35 14.75 22.35 12.2 22.35 10.3 24.9 8.55 27.4 8.55 31.0 L8.55 31.8 Q8.7 34.75 10.3 37.0 12.2 39.55 14.75 39.55 17.05 39.55 18.75 37.6 19.35 35.65 20.5 34.65 M33.45 26.75 Q33.4 29.2 33.05 30.25 32.5 31.8 31.95 32.05 29.85 33.2 28.2 33.2 26.45 33.2 24.75 32.3 24.15 32.1 23.85 31.45 23.4 30.35 23.2 29.15 22.9 26.7 23.2 24.95 23.4 24.25 23.65 24.0 25.55 22.95 27.7 22.7 29.9 22.4 32.7 24.05 33.05 24.35 33.2 24.95 L33.45 26.75 M22.85 30.0 L22.9 30.05 Q22.05 32.25 22.5 34.7 L22.5 34.9 22.4 34.9 Q20.2 34.9 19.2 37.6 19.45 38.6 19.85 39.25 20.35 40.1 21.1 40.3 L22.4 39.05 22.1 38.2 22.05 38.1 21.9 37.45 21.3 37.9 20.55 38.9 20.8 38.15 Q21.2 37.2 21.65 36.8 21.8 36.6 22.35 36.5 22.5 37.8 23.05 38.75 23.6 39.7 24.2 39.85 24.8 40.0 26.35 39.35 27.85 38.65 27.95 36.0 28.55 38.85 29.55 39.7 L32.05 39.75 33.1 38.75 33.6 37.65 33.85 36.25 33.9 36.3 Q34.8 36.85 35.35 38.45 L34.8 37.9 34.75 37.85 34.05 37.4 33.9 38.0 33.75 38.5 33.45 39.05 34.75 40.3 Q35.5 40.1 36.0 39.3 L36.65 37.6 Q35.65 34.8 33.35 34.9 33.75 32.8 33.3 31.1 L33.9 28.05 33.85 25.1 Q33.7 23.5 32.55 22.75 28.4 20.0 23.7 23.0 22.65 23.65 22.55 27.3 22.55 28.65 22.85 30.0 M25.1 24.95 Q21.85 27.4 28.05 27.15 34.2 26.95 31.25 24.7 28.3 22.45 25.1 24.95 M27.95 39.8 L27.9 39.85 27.7 40.05 27.95 46.1 Q27.95 42.7 28.25 40.1 L27.95 39.85 27.95 39.8 M10.4 30.55 Q10.4 29.55 10.65 28.85 11.0 28.2 11.5 28.2 11.95 28.2 12.25 28.85 12.6 29.55 12.6 30.55 12.6 31.5 12.25 32.15 11.95 32.85 11.5 32.85 11.0 32.85 10.65 32.15 10.4 31.5 10.4 30.55 M31.4 16.2 Q31.3 17.45 32.0 18.05 32.7 18.6 33.8 18.6 34.9 18.55 35.55 17.9 36.25 17.2 36.0 16.2 35.7 15.25 35.05 14.5 34.45 13.75 33.7 13.65 32.95 13.65 32.2 14.3 31.5 14.95 31.4 16.2 M35.25 34.5 Q36.55 35.5 37.15 37.75 38.8 39.55 41.0 39.55 43.6 39.55 45.45 37.0 47.05 34.75 47.25 31.8 L47.25 31.0 Q47.25 27.4 45.45 24.9 43.6 22.35 41.0 22.35 38.35 22.35 36.55 24.9 35.4 26.5 34.9 28.5 L34.7 31.0 Q34.7 32.9 35.25 34.5 M45.4 30.55 L45.1 32.15 Q44.75 32.85 44.25 32.85 43.85 32.85 43.5 32.15 43.15 31.5 43.15 30.55 43.15 29.55 43.5 28.85 43.85 28.2 44.25 28.2 44.75 28.2 45.1 28.85 L45.4 30.55" fill="#000000" fill-rule="evenodd" stroke="none"/>
    </g>
  </defs>
</svg>
