<?xml version="1.0" encoding="UTF-8" standalone="no"?>
<svg xmlns:ffdec="https://www.free-decompiler.com/flash" xmlns:xlink="http://www.w3.org/1999/xlink" ffdec:objectType="frame" height="56.0px" width="56.0px" xmlns="http://www.w3.org/2000/svg">
  <g transform="matrix(1.0, 0.0, 0.0, 1.0, 0.0, 0.0)">
    <use ffdec:characterId="2" height="56.0" id="back" transform="matrix(1.0, 0.0, 0.0, 1.0, 0.0, 0.0)" width="56.0" xlink:href="#sprite0"/>
    <use ffdec:characterId="3" height="39.0" transform="matrix(1.0, 0.0, 0.0, 1.0, 3.85, 8.85)" width="47.7" xlink:href="#shape1"/>
  </g>
  <defs>
    <g id="sprite0" transform="matrix(1.0, 0.0, 0.0, 1.0, 0.0, 0.0)">
      <use ffdec:characterId="1" height="56.0" transform="matrix(1.0, 0.0, 0.0, 1.0, 0.0, 0.0)" width="56.0" xlink:href="#shape0"/>
    </g>
    <g id="shape0" transform="matrix(1.0, 0.0, 0.0, 1.0, 0.0, 0.0)">
      <path d="M56.0 56.0 L0.0 56.0 0.0 0.0 56.0 0.0 56.0 56.0" fill="#010101" fill-opacity="0.0" fill-rule="evenodd" stroke="none"/>
    </g>
    <g id="shape1" transform="matrix(1.0, 0.0, 0.0, 1.0, -3.85, -8.85)">
      <path d="M14.7 19.25 Q13.7 16.9 14.9 14.1 17.05 11.65 22.05 11.35 22.85 10.25 25.35 10.3 20.3 14.0 20.8 17.6 17.6 19.35 17.1 23.0 16.9 24.55 17.35 26.05 14.05 24.95 13.45 22.4 13.6 20.5 14.7 19.25 M31.95 11.45 Q35.3 9.25 38.2 9.9 41.1 12.8 40.4 16.05 41.6 17.85 41.05 20.55 35.7 14.7 30.9 14.75 27.15 12.4 23.9 13.55 24.1 12.95 25.8 11.45 27.5 9.9 29.7 9.65 31.0 10.1 31.95 11.45 M20.6 18.95 Q22.05 25.15 28.8 24.75 27.45 27.15 24.3 27.35 21.05 27.5 18.65 26.25 18.2 24.95 18.1 23.85 17.8 21.35 20.6 18.95 M12.95 18.0 Q9.35 23.6 15.0 27.15 15.35 30.55 17.7 32.6 15.7 31.15 13.75 30.95 12.65 37.0 16.65 41.4 11.25 41.3 9.4 39.4 8.9 37.1 9.45 35.45 5.9 33.4 4.65 29.75 5.2 26.8 8.5 24.05 7.75 21.55 8.15 20.05 9.8 18.4 12.95 18.0 M24.15 22.45 Q24.25 19.75 26.7 19.2 27.95 20.0 28.0 21.65 28.0 23.25 28.8 23.45 25.65 24.25 24.15 22.45 M28.25 18.95 Q31.3 18.5 33.1 20.3 34.0 23.75 29.3 26.2 31.45 21.05 28.25 18.95 M22.45 15.4 Q27.75 13.2 33.2 17.95 26.45 17.4 23.5 20.25 20.65 17.4 22.45 15.4 M32.3 15.8 Q41.7 19.8 40.5 23.9 38.8 25.6 37.15 25.9 36.65 27.45 35.15 28.7 31.45 29.1 28.4 27.7 34.55 25.75 35.75 21.25 35.2 18.25 32.3 15.8 M42.2 16.25 Q47.15 15.55 49.9 19.15 50.1 21.35 47.35 24.0 48.45 26.9 47.7 27.8 44.1 33.1 38.55 33.05 40.85 29.35 40.35 26.6 43.55 22.25 42.2 16.25 M38.4 43.05 Q32.4 40.75 31.85 36.15 35.3 36.05 37.35 34.2 45.15 35.25 49.5 27.45 53.05 36.85 46.65 38.2 44.45 45.3 38.4 43.05 M37.9 44.35 Q35.05 47.0 33.9 47.05 32.1 47.05 28.9 45.45 25.95 47.3 22.8 46.55 19.45 44.45 19.15 40.9 17.8 40.05 16.5 38.45 14.95 36.55 15.3 32.85 21.7 39.4 30.3 36.65 31.1 41.7 37.9 44.35 M16.4 26.8 Q23.05 30.0 26.45 28.95 34.75 32.05 39.0 27.35 37.25 35.75 31.25 34.05 20.4 41.55 16.4 26.8" fill="#000000" fill-rule="evenodd" stroke="none"/>
      <path d="M14.7 19.25 Q13.7 16.9 14.9 14.1 17.05 11.65 22.05 11.35 22.85 10.25 25.35 10.3 20.3 14.0 20.8 17.6 17.6 19.35 17.1 23.0 16.9 24.55 17.35 26.05 14.05 24.95 13.45 22.4 13.6 20.5 14.7 19.25 M31.95 11.45 Q35.3 9.25 38.2 9.9 41.1 12.8 40.4 16.05 41.6 17.85 41.05 20.55 35.7 14.7 30.9 14.75 27.15 12.4 23.9 13.55 24.1 12.95 25.8 11.45 27.5 9.9 29.7 9.65 31.0 10.1 31.95 11.45 M20.6 18.95 Q22.05 25.15 28.8 24.75 27.45 27.15 24.3 27.35 21.05 27.5 18.65 26.25 18.2 24.95 18.1 23.85 17.8 21.35 20.6 18.95 M12.95 18.0 Q9.35 23.6 15.0 27.15 15.35 30.55 17.7 32.6 15.7 31.15 13.75 30.95 12.65 37.0 16.65 41.4 11.25 41.3 9.4 39.4 8.9 37.1 9.45 35.45 5.9 33.4 4.65 29.75 5.2 26.8 8.5 24.05 7.75 21.55 8.15 20.05 9.8 18.4 12.95 18.0 M24.15 22.45 Q24.25 19.75 26.7 19.2 27.95 20.0 28.0 21.65 28.0 23.25 28.8 23.45 25.65 24.25 24.15 22.45 M28.25 18.95 Q31.3 18.5 33.1 20.3 34.0 23.75 29.3 26.2 31.45 21.05 28.25 18.95 M22.45 15.4 Q27.75 13.2 33.2 17.95 26.45 17.4 23.5 20.25 20.65 17.4 22.45 15.4 M32.3 15.8 Q41.7 19.8 40.5 23.9 38.8 25.6 37.15 25.9 36.65 27.45 35.15 28.7 31.45 29.1 28.4 27.7 34.55 25.75 35.75 21.25 35.2 18.25 32.3 15.8 M42.2 16.25 Q47.15 15.55 49.9 19.15 50.1 21.35 47.35 24.0 48.45 26.9 47.7 27.8 44.1 33.1 38.55 33.05 40.85 29.35 40.35 26.6 43.55 22.25 42.2 16.25 M38.4 43.05 Q32.4 40.75 31.85 36.15 35.3 36.05 37.35 34.2 45.15 35.25 49.5 27.45 53.05 36.85 46.65 38.2 44.45 45.3 38.4 43.05 M37.9 44.35 Q35.05 47.0 33.9 47.05 32.1 47.05 28.9 45.45 25.95 47.3 22.8 46.55 19.45 44.45 19.15 40.9 17.8 40.05 16.5 38.45 14.95 36.55 15.3 32.85 21.7 39.4 30.3 36.65 31.1 41.7 37.9 44.35 M16.4 26.8 Q23.05 30.0 26.45 28.95 34.75 32.05 39.0 27.35 37.25 35.75 31.25 34.05 20.4 41.55 16.4 26.8 Z" fill="none" stroke="#000000" stroke-linecap="round" stroke-linejoin="round" stroke-opacity="0.2" stroke-width="1.6"/>
      <path d="M31.95 11.45 Q35.3 9.25 38.2 9.9 41.1 12.8 40.4 16.05 41.6 17.85 41.05 20.55 35.7 14.7 30.9 14.75 27.15 12.4 23.9 13.55 24.1 12.95 25.8 11.45 27.5 9.9 29.7 9.65 31.0 10.1 31.95 11.45 M14.7 19.25 Q13.7 16.9 14.9 14.1 17.05 11.65 22.05 11.35 22.85 10.25 25.35 10.3 20.3 14.0 20.8 17.6 17.6 19.35 17.1 23.0 16.9 24.55 17.35 26.05 14.05 24.95 13.45 22.4 13.6 20.5 14.7 19.25 M20.6 18.95 Q22.05 25.15 28.8 24.75 27.45 27.15 24.3 27.35 21.05 27.5 18.65 26.25 18.2 24.95 18.1 23.85 17.8 21.35 20.6 18.95 M12.95 18.0 Q9.35 23.6 15.0 27.15 15.35 30.55 17.7 32.6 15.7 31.15 13.75 30.95 12.65 37.0 16.65 41.4 11.25 41.3 9.4 39.4 8.9 37.1 9.45 35.45 5.9 33.4 4.65 29.75 5.2 26.8 8.5 24.05 7.75 21.55 8.15 20.05 9.8 18.4 12.95 18.0 M24.15 22.45 Q24.25 19.75 26.7 19.2 27.95 20.0 28.0 21.65 28.0 23.25 28.8 23.45 25.65 24.25 24.15 22.45 M28.25 18.95 Q31.3 18.5 33.1 20.3 34.0 23.75 29.3 26.2 31.45 21.05 28.25 18.95 M22.45 15.4 Q27.75 13.2 33.2 17.95 26.45 17.4 23.5 20.25 20.65 17.4 22.45 15.4 M32.3 15.8 Q41.7 19.8 40.5 23.9 38.8 25.6 37.15 25.9 36.65 27.45 35.15 28.7 31.45 29.1 28.4 27.7 34.55 25.75 35.75 21.25 35.2 18.25 32.3 15.8 M42.2 16.25 Q47.15 15.55 49.9 19.15 50.1 21.35 47.35 24.0 48.45 26.9 47.7 27.8 44.1 33.1 38.55 33.05 40.85 29.35 40.35 26.6 43.55 22.25 42.2 16.25 M38.4 43.05 Q32.4 40.75 31.85 36.15 35.3 36.05 37.35 34.2 45.15 35.25 49.5 27.45 53.05 36.85 46.65 38.2 44.45 45.3 38.4 43.05 M37.9 44.35 Q35.05 47.0 33.9 47.05 32.1 47.05 28.9 45.45 25.95 47.3 22.8 46.55 19.45 44.45 19.15 40.9 17.8 40.05 16.5 38.45 14.95 36.55 15.3 32.85 21.7 39.4 30.3 36.65 31.1 41.7 37.9 44.35 M16.4 26.8 Q23.05 30.0 26.45 28.95 34.75 32.05 39.0 27.35 37.25 35.75 31.25 34.05 20.4 41.55 16.4 26.8" fill="#000000" fill-rule="evenodd" stroke="none"/>
    </g>
  </defs>
</svg>
