<?xml version="1.0" encoding="UTF-8" standalone="no"?>
<svg xmlns:ffdec="https://www.free-decompiler.com/flash" xmlns:xlink="http://www.w3.org/1999/xlink" ffdec:objectType="frame" height="56.0px" width="56.0px" xmlns="http://www.w3.org/2000/svg">
  <g transform="matrix(1.0, 0.0, 0.0, 1.0, 0.0, 0.0)">
    <use ffdec:characterId="2" height="56.0" id="back" transform="matrix(1.0, 0.0, 0.0, 1.0, 0.0, 0.0)" width="56.0" xlink:href="#sprite0"/>
    <use ffdec:characterId="3" height="44.95" transform="matrix(1.0, 0.0, 0.0, 1.0, 1.7, 4.05)" width="52.3" xlink:href="#shape1"/>
  </g>
  <defs>
    <g id="sprite0" transform="matrix(1.0, 0.0, 0.0, 1.0, 0.0, 0.0)">
      <use ffdec:characterId="1" height="56.0" transform="matrix(1.0, 0.0, 0.0, 1.0, 0.0, 0.0)" width="56.0" xlink:href="#shape0"/>
    </g>
    <g id="shape0" transform="matrix(1.0, 0.0, 0.0, 1.0, 0.0, 0.0)">
      <path d="M56.0 56.0 L0.0 56.0 0.0 0.0 56.0 0.0 56.0 56.0" fill="#010101" fill-opacity="0.0" fill-rule="evenodd" stroke="none"/>
    </g>
    <g id="shape1" transform="matrix(1.0, 0.0, 0.0, 1.0, -1.7, -4.05)">
      <path d="M44.7 35.65 Q44.7 40.85 39.8 44.55 34.95 48.2 28.0 48.2 22.7 48.2 18.5 46.15 17.25 45.5 16.1 44.65 11.4 41.3 11.35 35.1 8.2 38.05 5.25 37.75 3.3 37.5 2.7 36.5 2.3 35.7 2.7 34.5 3.1 33.35 4.2 31.85 L4.6 31.3 7.1 28.75 Q9.05 27.2 11.55 26.2 11.6 24.05 12.75 22.0 14.2 19.4 16.75 18.4 L18.05 16.9 Q19.75 15.0 21.75 13.85 L21.15 12.6 Q20.05 10.0 22.55 8.6 25.05 7.25 26.0 8.8 26.95 10.4 27.05 11.85 L27.05 12.3 28.0 12.25 28.85 12.3 Q29.5 9.7 31.85 6.85 35.25 2.8 37.8 7.0 39.8 10.35 34.7 14.15 37.15 15.65 39.35 18.4 41.8 19.45 43.2 22.0 44.45 24.1 44.45 26.3 46.75 27.25 48.55 28.75 L51.1 31.3 51.55 31.85 Q55.35 37.15 50.4 37.75 47.65 38.05 44.7 35.45 L44.7 35.5 44.7 35.65 M41.05 31.35 Q43.2 30.15 43.65 27.5 L43.8 26.05 Q43.75 24.15 42.7 22.3 41.7 20.55 40.15 19.55 L38.75 18.95 Q36.2 18.0 34.0 19.25 31.85 20.5 31.4 23.15 31.2 24.15 31.3 25.15 32.65 26.0 33.85 27.65 39.35 29.35 40.95 31.4 L41.05 31.35 M12.3 27.5 Q12.8 30.1 14.95 31.3 15.8 29.75 18.5 28.7 L21.9 27.65 Q23.25 25.9 24.75 25.05 L24.6 23.15 Q24.15 20.5 21.95 19.25 20.35 18.35 18.5 18.6 17.9 18.7 17.25 18.95 16.6 19.15 15.95 19.5 14.35 20.5 13.25 22.3 12.25 24.1 12.2 25.9 L12.3 27.5 M34.65 24.6 Q34.55 23.9 34.8 23.45 35.1 22.95 35.6 22.85 36.1 22.75 36.55 23.15 L37.05 24.15 Q37.15 24.75 36.85 25.3 L36.1 25.85 Q35.6 25.95 35.2 25.6 34.75 25.2 34.65 24.6 M20.9 24.6 L20.4 25.6 Q19.95 25.95 19.45 25.85 L18.65 25.3 18.5 24.95 18.5 24.15 18.5 24.0 Q18.65 23.5 19.05 23.15 19.45 22.75 19.95 22.85 20.4 22.95 20.7 23.45 21.0 23.9 20.9 24.6 M25.0 28.0 Q26.15 27.95 26.1 29.35 25.15 29.3 25.0 28.0 M30.8 28.0 Q30.8 29.15 29.75 29.35 29.6 27.8 30.8 28.0 M22.3 28.55 Q20.05 29.1 18.5 29.8 16.6 30.7 15.8 31.8 15.15 32.8 15.4 33.95 15.75 35.75 18.5 35.5 L22.25 34.7 Q24.95 33.8 27.6 33.7 30.6 33.75 33.75 34.75 40.0 36.7 40.55 34.0 40.85 32.8 40.15 31.8 38.75 29.8 33.7 28.6 L32.35 27.05 32.15 26.85 31.55 26.35 Q29.95 25.15 28.4 25.1 26.4 24.85 24.45 26.35 L23.85 26.85 23.5 27.2 22.3 28.55" fill="#000000" fill-rule="evenodd" stroke="none"/>
      <path d="M44.7 35.65 Q44.7 40.85 39.8 44.55 34.95 48.2 28.0 48.2 22.7 48.2 18.5 46.15 17.25 45.5 16.1 44.65 11.4 41.3 11.35 35.1 8.2 38.05 5.25 37.75 3.3 37.5 2.7 36.5 2.3 35.7 2.7 34.5 3.1 33.35 4.2 31.85 L4.6 31.3 7.1 28.75 Q9.05 27.2 11.55 26.2 11.6 24.05 12.75 22.0 14.2 19.4 16.75 18.4 L18.05 16.9 Q19.75 15.0 21.75 13.85 L21.15 12.6 Q20.05 10.0 22.55 8.6 25.05 7.25 26.0 8.8 26.95 10.4 27.05 11.85 L27.05 12.3 28.0 12.25 28.85 12.3 Q29.5 9.7 31.85 6.85 35.25 2.8 37.8 7.0 39.8 10.35 34.7 14.15 37.15 15.65 39.35 18.4 41.8 19.45 43.2 22.0 44.45 24.1 44.45 26.3 46.75 27.25 48.55 28.75 L51.1 31.3 51.55 31.85 Q55.35 37.15 50.4 37.75 47.65 38.05 44.7 35.45 L44.7 35.5 44.7 35.65 M34.65 24.6 Q34.75 25.2 35.2 25.6 35.6 25.95 36.1 25.85 L36.85 25.3 Q37.15 24.75 37.05 24.15 L36.55 23.15 Q36.1 22.75 35.6 22.85 35.1 22.95 34.8 23.45 34.55 23.9 34.65 24.6 M12.3 27.5 L12.2 25.9 Q12.25 24.1 13.25 22.3 14.35 20.5 15.95 19.5 16.6 19.15 17.25 18.95 17.9 18.7 18.5 18.6 20.35 18.35 21.95 19.25 24.15 20.5 24.6 23.15 L24.75 25.05 Q23.25 25.9 21.9 27.65 L18.5 28.7 Q15.8 29.75 14.95 31.3 12.8 30.1 12.3 27.5 M20.9 24.6 L20.4 25.6 Q19.95 25.95 19.45 25.85 L18.65 25.3 18.5 24.95 18.5 24.15 18.5 24.0 Q18.65 23.5 19.05 23.15 19.45 22.75 19.95 22.85 20.4 22.95 20.7 23.45 21.0 23.9 20.9 24.6 M25.0 28.0 Q26.15 27.95 26.1 29.35 25.15 29.3 25.0 28.0 M22.3 28.55 L23.5 27.2 23.85 26.85 24.45 26.35 Q26.4 24.85 28.4 25.1 29.95 25.15 31.55 26.35 L32.15 26.85 32.35 27.05 33.7 28.6 Q38.75 29.8 40.15 31.8 40.85 32.8 40.55 34.0 40.0 36.7 33.75 34.75 30.6 33.75 27.6 33.7 24.95 33.8 22.25 34.7 L18.5 35.5 Q15.75 35.75 15.4 33.95 15.15 32.8 15.8 31.8 16.6 30.7 18.5 29.8 20.05 29.1 22.3 28.55 M30.8 28.0 Q29.6 27.8 29.75 29.35 30.8 29.15 30.8 28.0 Z" fill="none" stroke="#000000" stroke-linecap="round" stroke-linejoin="round" stroke-opacity="0.2" stroke-width="1.6"/>
      <path d="M44.7 35.65 Q44.7 40.85 39.8 44.55 34.95 48.2 28.0 48.2 22.7 48.2 18.5 46.15 17.25 45.5 16.1 44.65 11.4 41.3 11.35 35.1 8.2 38.05 5.25 37.75 3.3 37.5 2.7 36.5 2.3 35.7 2.7 34.5 3.1 33.35 4.2 31.85 L4.6 31.3 7.1 28.75 Q9.05 27.2 11.55 26.2 11.6 24.05 12.75 22.0 14.2 19.4 16.75 18.4 L18.05 16.9 Q19.75 15.0 21.75 13.85 L21.15 12.6 Q20.05 10.0 22.55 8.6 25.05 7.25 26.0 8.8 26.95 10.4 27.05 11.85 L27.05 12.3 28.0 12.25 28.85 12.3 Q29.5 9.7 31.85 6.85 35.25 2.8 37.8 7.0 39.8 10.35 34.7 14.15 37.15 15.65 39.35 18.4 41.8 19.45 43.2 22.0 44.45 24.1 44.45 26.3 46.75 27.25 48.55 28.75 L51.1 31.3 51.55 31.85 Q55.35 37.15 50.4 37.75 47.65 38.05 44.7 35.45 L44.7 35.5 44.7 35.65 M41.05 31.35 Q43.2 30.15 43.65 27.5 L43.8 26.05 Q43.75 24.15 42.7 22.3 41.7 20.55 40.15 19.55 L38.75 18.95 Q36.2 18.0 34.0 19.25 31.85 20.5 31.4 23.15 31.2 24.15 31.3 25.15 32.65 26.0 33.85 27.65 39.35 29.35 40.95 31.4 L41.05 31.35 M12.3 27.5 Q12.8 30.1 14.95 31.3 15.8 29.75 18.5 28.7 L21.9 27.65 Q23.25 25.9 24.75 25.05 L24.6 23.15 Q24.15 20.5 21.95 19.25 20.35 18.35 18.5 18.6 17.9 18.7 17.25 18.95 16.6 19.15 15.95 19.5 14.35 20.5 13.25 22.3 12.25 24.1 12.2 25.9 L12.3 27.5 M34.65 24.6 Q34.55 23.9 34.8 23.45 35.1 22.95 35.6 22.85 36.1 22.75 36.55 23.15 L37.05 24.15 Q37.15 24.75 36.85 25.3 L36.1 25.85 Q35.6 25.95 35.2 25.6 34.75 25.2 34.65 24.6 M20.9 24.6 L20.4 25.6 Q19.95 25.95 19.45 25.85 L18.65 25.3 18.5 24.95 18.5 24.15 18.5 24.0 Q18.65 23.5 19.05 23.15 19.45 22.75 19.95 22.85 20.4 22.95 20.7 23.45 21.0 23.9 20.9 24.6 M22.3 28.55 Q20.05 29.1 18.5 29.8 16.6 30.7 15.8 31.8 15.15 32.8 15.4 33.95 15.75 35.75 18.5 35.5 L22.25 34.7 Q24.95 33.8 27.6 33.7 30.6 33.75 33.75 34.75 40.0 36.7 40.55 34.0 40.85 32.8 40.15 31.8 38.75 29.8 33.7 28.6 L32.35 27.05 32.15 26.85 31.55 26.35 Q29.95 25.15 28.4 25.1 26.4 24.85 24.45 26.35 L23.85 26.85 23.5 27.2 22.3 28.55 M25.0 28.0 Q26.15 27.95 26.1 29.35 25.15 29.3 25.0 28.0 M30.8 28.0 Q30.8 29.15 29.75 29.35 29.6 27.8 30.8 28.0" fill="#000000" fill-rule="evenodd" stroke="none"/>
    </g>
  </defs>
</svg>
