<?xml version="1.0" encoding="UTF-8" standalone="no"?>
<svg xmlns:ffdec="https://www.free-decompiler.com/flash" xmlns:xlink="http://www.w3.org/1999/xlink" ffdec:objectType="frame" height="56.0px" width="56.0px" xmlns="http://www.w3.org/2000/svg">
  <g transform="matrix(1.0, 0.0, 0.0, 1.0, 0.0, 0.0)">
    <use ffdec:characterId="2" height="56.0" id="back" transform="matrix(1.0, 0.0, 0.0, 1.0, 0.0, 0.0)" width="56.0" xlink:href="#sprite0"/>
    <use ffdec:characterId="3" height="48.75" transform="matrix(1.0, 0.0, 0.0, 1.0, 10.25, 2.85)" width="36.05" xlink:href="#shape1"/>
  </g>
  <defs>
    <g id="sprite0" transform="matrix(1.0, 0.0, 0.0, 1.0, 0.0, 0.0)">
      <use ffdec:characterId="1" height="56.0" transform="matrix(1.0, 0.0, 0.0, 1.0, 0.0, 0.0)" width="56.0" xlink:href="#shape0"/>
    </g>
    <g id="shape0" transform="matrix(1.0, 0.0, 0.0, 1.0, 0.0, 0.0)">
      <path d="M56.0 56.0 L0.0 56.0 0.0 0.0 56.0 0.0 56.0 56.0" fill="#010101" fill-opacity="0.0" fill-rule="evenodd" stroke="none"/>
    </g>
    <g id="shape1" transform="matrix(1.0, 0.0, 0.0, 1.0, -10.25, -2.85)">
      <path d="M21.55 3.65 Q27.2 10.3 27.7 22.2 L28.95 22.15 29.45 22.2 Q30.05 10.1 35.5 3.65 41.1 8.55 39.0 24.35 L39.0 25.05 Q43.4 28.2 45.1 34.85 46.85 41.75 41.2 44.2 L41.25 44.2 Q39.55 44.9 37.3 45.25 L33.7 45.65 28.95 45.85 22.95 45.65 19.3 45.25 Q17.05 44.9 15.4 44.2 9.7 41.8 11.45 34.85 13.25 27.95 17.9 24.85 15.9 8.6 21.55 3.65 M32.3 31.85 L32.45 33.7 32.75 35.15 32.8 35.3 Q33.4 36.95 34.35 36.85 35.3 36.95 35.9 35.3 36.4 33.85 36.4 31.85 36.4 29.85 35.9 28.4 35.3 26.75 34.35 26.8 33.4 26.75 32.8 28.4 32.3 29.85 32.3 31.85 M36.15 38.6 L35.8 38.85 35.8 38.9 Q34.55 39.85 32.7 40.35 L32.6 40.35 28.85 40.75 25.4 40.4 25.35 40.4 Q23.4 40.0 22.2 39.0 L21.8 38.6 21.55 38.45 21.35 38.6 21.2 38.8 21.3 39.05 21.75 39.4 Q22.5 42.15 23.4 42.5 24.45 43.1 25.5 41.15 L28.85 41.45 32.55 41.05 Q33.6 43.0 34.6 42.45 35.5 42.05 36.3 39.35 L36.6 39.05 36.7 38.8 36.6 38.6 Q36.5 38.45 36.35 38.45 36.2 38.45 36.15 38.6 M43.25 35.3 Q43.6 33.8 42.35 32.6 40.2 33.65 38.2 36.25 41.2 36.2 43.25 35.3 M37.4 45.9 L41.9 44.75 43.0 46.3 42.95 46.3 Q43.7 47.85 43.6 49.3 43.55 50.85 41.2 50.8 39.05 50.75 36.9 49.6 34.7 48.4 33.85 46.8 L33.65 46.4 37.4 45.9 M43.2 39.5 Q41.15 38.6 38.15 38.55 40.15 41.15 42.3 42.2 43.55 41.0 43.2 39.5 M21.0 31.85 L21.1 33.75 21.15 33.8 Q21.25 34.65 21.5 35.3 22.1 36.95 23.05 36.85 23.95 36.95 24.55 35.3 25.1 33.85 25.1 31.85 25.1 29.85 24.55 28.4 23.95 26.75 23.05 26.8 22.1 26.75 21.5 28.4 21.0 29.85 21.0 31.85 M14.15 35.3 Q16.2 36.2 19.25 36.25 17.2 33.65 15.1 32.6 13.8 33.8 14.15 35.3 M19.2 45.9 L22.55 46.3 23.05 46.3 22.8 46.8 Q21.9 48.4 19.75 49.6 17.6 50.75 15.45 50.8 13.1 50.85 13.0 49.3 12.9 47.85 13.65 46.3 14.05 45.4 14.75 44.65 L14.8 44.65 15.2 44.85 Q16.9 45.55 19.2 45.9 M14.1 39.5 Q13.75 41.0 15.0 42.2 17.15 41.15 19.2 38.55 16.15 38.6 14.1 39.5" fill="#000000" fill-rule="evenodd" stroke="none"/>
      <path d="M21.55 3.65 Q27.2 10.3 27.7 22.2 L28.95 22.15 29.45 22.2 Q30.05 10.1 35.5 3.65 41.1 8.55 39.0 24.35 L39.0 25.05 Q43.4 28.2 45.1 34.85 46.85 41.75 41.2 44.2 L41.25 44.2 Q39.55 44.9 37.3 45.25 L33.7 45.65 28.95 45.85 22.95 45.65 19.3 45.25 Q17.05 44.9 15.4 44.2 9.7 41.8 11.45 34.85 13.25 27.95 17.9 24.85 15.9 8.6 21.55 3.65 M32.3 31.85 L32.45 33.7 32.75 35.15 32.8 35.3 Q33.4 36.95 34.35 36.85 35.3 36.95 35.9 35.3 36.4 33.85 36.4 31.85 36.4 29.85 35.9 28.4 35.3 26.75 34.35 26.8 33.4 26.75 32.8 28.4 32.3 29.85 32.3 31.85 M36.15 38.6 L35.8 38.85 35.8 38.9 Q34.55 39.85 32.7 40.35 L32.6 40.35 28.85 40.75 25.4 40.4 25.35 40.4 Q23.4 40.0 22.2 39.0 L21.8 38.6 21.55 38.45 21.35 38.6 21.2 38.8 21.3 39.05 21.75 39.4 Q22.5 42.15 23.4 42.5 24.45 43.1 25.5 41.15 L28.85 41.45 32.55 41.05 Q33.6 43.0 34.6 42.45 35.5 42.05 36.3 39.35 L36.6 39.05 36.7 38.8 36.6 38.6 Q36.5 38.45 36.35 38.45 36.2 38.45 36.15 38.6 M43.25 35.3 Q41.2 36.2 38.2 36.25 40.2 33.65 42.35 32.6 43.6 33.8 43.25 35.3 M37.4 45.9 L41.9 44.75 43.0 46.3 42.95 46.3 Q43.7 47.85 43.6 49.3 43.55 50.85 41.2 50.8 39.05 50.75 36.9 49.6 34.7 48.4 33.85 46.8 L33.65 46.4 37.4 45.9 M43.2 39.5 Q41.15 38.6 38.15 38.55 40.15 41.15 42.3 42.2 43.55 41.0 43.2 39.5 M21.0 31.85 L21.1 33.75 21.15 33.8 Q21.25 34.65 21.5 35.3 22.1 36.95 23.05 36.85 23.95 36.95 24.55 35.3 25.1 33.85 25.1 31.85 25.1 29.85 24.55 28.4 23.95 26.75 23.05 26.8 22.1 26.75 21.5 28.4 21.0 29.85 21.0 31.85 M14.15 35.3 Q16.2 36.2 19.25 36.25 17.2 33.65 15.1 32.6 13.8 33.8 14.15 35.3 M19.2 45.9 L22.55 46.3 23.05 46.3 22.8 46.8 Q21.9 48.4 19.75 49.6 17.6 50.75 15.45 50.8 13.1 50.85 13.0 49.3 12.9 47.85 13.65 46.3 14.05 45.4 14.75 44.65 L14.8 44.65 15.2 44.85 Q16.9 45.55 19.2 45.9 M14.1 39.5 Q16.15 38.6 19.2 38.55 17.15 41.15 15.0 42.2 13.75 41.0 14.1 39.5 Z" fill="none" stroke="#000000" stroke-linecap="round" stroke-linejoin="round" stroke-opacity="0.2" stroke-width="1.6"/>
      <path d="M21.55 3.65 Q27.2 10.3 27.7 22.2 L28.95 22.15 29.45 22.2 Q30.05 10.1 35.5 3.65 41.1 8.55 39.0 24.35 L39.0 25.05 Q43.4 28.2 45.1 34.85 46.85 41.75 41.2 44.2 L41.25 44.2 Q39.55 44.9 37.3 45.25 L33.7 45.65 28.95 45.85 22.95 45.65 19.3 45.25 Q17.05 44.9 15.4 44.2 9.7 41.8 11.45 34.85 13.25 27.95 17.9 24.85 15.9 8.6 21.55 3.65 M32.3 31.85 L32.45 33.7 32.75 35.15 32.8 35.3 Q33.4 36.95 34.35 36.85 35.3 36.95 35.9 35.3 36.4 33.85 36.4 31.85 36.4 29.85 35.9 28.4 35.3 26.75 34.35 26.8 33.4 26.75 32.8 28.4 32.3 29.85 32.3 31.85 M36.15 38.6 L35.8 38.85 35.8 38.9 Q34.55 39.85 32.7 40.35 L32.6 40.35 28.85 40.75 25.4 40.4 25.35 40.4 Q23.4 40.0 22.2 39.0 L21.8 38.6 21.55 38.45 21.35 38.6 21.2 38.8 21.3 39.05 21.75 39.4 Q22.5 42.15 23.4 42.5 24.45 43.1 25.5 41.15 L28.85 41.45 32.55 41.05 Q33.6 43.0 34.6 42.45 35.5 42.05 36.3 39.35 L36.6 39.05 36.7 38.8 36.6 38.6 Q36.5 38.45 36.35 38.45 36.2 38.45 36.15 38.6 M43.25 35.3 Q43.6 33.8 42.35 32.6 40.2 33.65 38.2 36.25 41.2 36.2 43.25 35.3 M37.4 45.9 L41.9 44.75 43.0 46.3 42.95 46.3 Q43.7 47.85 43.6 49.3 43.55 50.85 41.2 50.8 39.05 50.75 36.9 49.6 34.7 48.4 33.85 46.8 L33.65 46.4 37.4 45.9 M43.2 39.5 Q41.15 38.6 38.15 38.55 40.15 41.15 42.3 42.2 43.55 41.0 43.2 39.5 M21.0 31.85 L21.1 33.75 21.15 33.8 Q21.25 34.65 21.5 35.3 22.1 36.95 23.05 36.85 23.95 36.95 24.55 35.3 25.1 33.85 25.1 31.85 25.1 29.85 24.55 28.4 23.95 26.75 23.05 26.8 22.1 26.75 21.5 28.4 21.0 29.85 21.0 31.85 M14.15 35.3 Q16.2 36.2 19.25 36.25 17.2 33.65 15.1 32.6 13.8 33.8 14.15 35.3 M19.2 45.9 L22.55 46.3 23.05 46.3 22.8 46.8 Q21.9 48.4 19.75 49.6 17.6 50.75 15.45 50.8 13.1 50.85 13.0 49.3 12.9 47.85 13.65 46.3 14.05 45.4 14.75 44.65 L14.8 44.65 15.2 44.85 Q16.9 45.55 19.2 45.9 M14.1 39.5 Q13.75 41.0 15.0 42.2 17.15 41.15 19.2 38.55 16.15 38.6 14.1 39.5" fill="#000000" fill-rule="evenodd" stroke="none"/>
    </g>
  </defs>
</svg>
