<?xml version="1.0" encoding="UTF-8" standalone="no"?>
<svg xmlns:ffdec="https://www.free-decompiler.com/flash" xmlns:xlink="http://www.w3.org/1999/xlink" ffdec:objectType="frame" height="56.0px" width="56.0px" xmlns="http://www.w3.org/2000/svg">
  <g transform="matrix(1.0, 0.0, 0.0, 1.0, 0.0, 0.0)">
    <use ffdec:characterId="2" height="56.0" id="back" transform="matrix(1.0, 0.0, 0.0, 1.0, 0.0, 0.0)" width="56.0" xlink:href="#sprite0"/>
    <use ffdec:characterId="3" height="37.6" transform="matrix(1.0, 0.0, 0.0, 1.0, 2.1, 10.05)" width="51.75" xlink:href="#shape1"/>
  </g>
  <defs>
    <g id="sprite0" transform="matrix(1.0, 0.0, 0.0, 1.0, 0.0, 0.0)">
      <use ffdec:characterId="1" height="56.0" transform="matrix(1.0, 0.0, 0.0, 1.0, 0.0, 0.0)" width="56.0" xlink:href="#shape0"/>
    </g>
    <g id="shape0" transform="matrix(1.0, 0.0, 0.0, 1.0, 0.0, 0.0)">
      <path d="M56.0 56.0 L0.0 56.0 0.0 0.0 56.0 0.0 56.0 56.0" fill="#010101" fill-opacity="0.0" fill-rule="evenodd" stroke="none"/>
    </g>
    <g id="shape1" transform="matrix(1.0, 0.0, 0.0, 1.0, -2.1, -10.05)">
      <path d="M32.3 31.25 L32.2 31.2 32.2 31.15 Q32.5 30.0 32.2 29.45 31.8 28.9 31.25 29.1 31.45 27.95 30.65 27.55 29.9 27.15 29.35 27.75 29.0 26.5 28.0 26.6 26.8 26.75 26.7 27.9 26.05 27.15 25.4 27.6 24.7 28.0 24.9 29.1 23.15 29.0 23.6 31.25 21.8 33.15 21.8 35.8 21.8 38.45 23.6 40.3 L24.5 41.1 Q24.5 42.8 25.65 43.4 26.0 45.55 27.95 46.45 30.25 45.8 30.5 43.25 31.6 42.6 31.7 40.9 L32.3 40.3 Q34.1 38.45 34.1 35.8 34.1 33.15 32.3 31.25 M28.2 10.85 Q31.55 10.65 34.2 12.1 39.55 11.75 42.85 15.3 44.55 15.8 45.7 16.55 53.1 21.55 53.05 28.65 53.05 34.5 47.95 39.0 47.3 40.6 44.5 42.35 41.65 44.1 37.7 43.7 33.95 46.1 30.15 46.65 L27.35 46.85 26.15 46.75 Q21.7 46.4 18.7 44.5 13.0 44.3 8.3 39.05 2.95 35.7 2.9 28.65 2.9 23.7 7.85 18.7 10.05 16.45 13.45 15.35 16.25 12.15 21.95 12.05 24.9 11.0 28.2 10.85 M44.1 41.7 Q46.7 40.1 47.3 38.7 L47.3 38.6 Q50.1 30.45 45.85 25.6 41.5 20.75 34.5 21.3 L32.95 22.55 32.5 22.8 Q35.8 25.65 37.65 29.4 L37.65 29.45 Q40.2 34.85 38.1 42.95 41.6 43.2 44.1 41.7 M23.1 22.55 L21.55 21.3 21.2 21.3 Q16.45 21.0 13.05 23.25 11.6 24.2 10.35 25.6 6.1 30.4 8.85 38.55 13.1 43.3 18.2 43.7 14.95 36.0 18.5 29.35 20.35 25.7 23.85 22.9 L23.1 22.55 M23.45 17.35 Q22.85 17.65 22.45 18.05 21.7 18.75 21.7 19.6 L21.95 20.6 22.05 20.7 22.1 20.75 23.45 21.9 23.45 21.85 24.75 22.4 24.95 22.5 28.0 22.9 31.25 22.45 31.65 22.3 31.7 22.3 32.6 21.85 32.6 21.9 34.0 20.8 34.0 20.7 34.1 20.55 34.35 19.6 Q34.35 18.95 33.95 18.4 L33.65 18.05 32.6 17.35 32.05 17.05 32.05 17.15 32.3 18.25 32.3 18.35 32.3 18.45 Q32.15 19.4 31.0 20.1 L30.95 20.1 30.85 20.2 29.2 20.7 28.05 20.8 27.0 20.7 25.3 20.2 25.25 20.2 25.15 20.1 Q24.05 19.45 23.9 18.55 L23.85 18.3 23.85 18.25 24.05 17.15 24.1 17.0 23.45 17.35 M30.6 16.75 Q30.6 16.0 29.7 15.6 L29.35 15.4 27.7 15.3 27.1 15.35 Q26.2 15.6 25.5 16.1 L24.75 16.95 24.6 17.65 Q24.6 18.4 25.45 18.8 L26.2 19.05 27.5 19.05 28.05 19.05 29.7 18.3 30.45 17.4 30.6 16.75 M23.1 16.65 L24.5 16.05 24.65 16.0 25.8 15.2 27.95 14.7 Q29.4 14.6 30.35 15.2 L31.6 16.1 Q32.35 16.3 32.95 16.65 L34.15 17.5 34.25 17.6 Q38.0 14.65 41.45 15.0 38.5 12.6 34.15 12.85 32.55 13.65 31.8 15.4 L31.35 15.4 Q29.7 14.15 27.65 14.35 25.6 14.5 24.55 15.6 23.8 13.3 22.05 12.85 17.4 12.9 14.75 15.15 18.65 14.75 22.15 17.25 L23.1 16.65 M28.1 32.15 Q26.7 32.15 25.8 32.6 L25.05 31.6 24.75 30.85 24.95 30.3 Q25.45 30.0 25.9 30.85 L26.2 31.5 25.75 29.85 Q25.55 28.95 26.1 28.7 26.6 28.7 26.7 29.3 L27.2 30.5 27.25 29.8 27.25 28.7 Q27.5 28.15 28.1 28.1 28.65 28.15 28.85 28.7 L29.0 30.25 29.0 30.3 29.5 29.05 Q29.55 28.7 30.1 28.7 30.6 28.95 30.35 29.85 L30.2 30.95 30.25 30.85 Q30.75 30.0 31.15 30.3 L31.4 30.85 31.15 31.6 30.35 32.6 Q29.45 32.15 28.1 32.15 M24.2 35.8 L24.2 34.8 Q24.4 34.2 24.95 33.7 26.05 32.85 28.1 32.85 30.1 32.85 31.15 33.7 L31.9 34.8 Q32.1 35.3 31.9 35.8 31.8 36.45 31.3 36.9 31.45 37.4 31.05 39.05 30.65 40.7 30.3 41.1 30.35 41.95 29.65 42.6 29.55 44.2 28.3 45.05 L28.1 45.15 27.7 44.95 Q26.6 44.15 26.5 42.6 25.75 41.95 25.85 41.1 25.5 40.7 25.1 39.05 24.75 37.4 24.85 36.9 24.35 36.45 24.2 35.8" fill="#000000" fill-rule="evenodd" stroke="none"/>
      <path d="M23.1 16.65 L22.15 17.25 Q18.65 14.75 14.75 15.15 17.4 12.9 22.05 12.85 23.8 13.3 24.55 15.6 25.6 14.5 27.65 14.35 29.7 14.15 31.35 15.4 L31.8 15.4 Q32.55 13.65 34.15 12.85 38.5 12.6 41.45 15.0 38.0 14.65 34.25 17.6 L34.15 17.5 32.95 16.65 Q32.35 16.3 31.6 16.1 L30.35 15.2 Q29.4 14.6 27.95 14.7 L25.8 15.2 24.65 16.0 24.5 16.05 23.1 16.65 M30.6 16.75 L30.45 17.4 29.7 18.3 28.05 19.05 27.5 19.05 26.2 19.05 25.45 18.8 Q24.6 18.4 24.6 17.65 L24.75 16.95 25.5 16.1 Q26.2 15.6 27.1 15.35 L27.7 15.3 29.35 15.4 29.7 15.6 Q30.6 16.0 30.6 16.75 M23.45 17.35 L24.1 17.0 24.05 17.15 23.85 18.25 23.85 18.3 23.9 18.55 Q24.05 19.45 25.15 20.1 L25.25 20.2 25.3 20.2 27.0 20.7 28.05 20.8 29.2 20.7 30.85 20.2 30.95 20.1 31.0 20.1 Q32.15 19.4 32.3 18.45 L32.3 18.35 32.3 18.25 32.05 17.15 32.05 17.05 32.6 17.35 33.65 18.05 33.95 18.4 Q34.35 18.95 34.35 19.6 L34.1 20.55 34.0 20.7 34.0 20.8 32.6 21.9 32.6 21.85 31.7 22.3 31.65 22.3 31.25 22.45 28.0 22.9 24.95 22.5 24.75 22.4 23.45 21.85 23.45 21.9 22.1 20.75 22.05 20.7 21.95 20.6 21.7 19.6 Q21.7 18.75 22.45 18.05 22.85 17.65 23.45 17.35 M23.1 22.55 L23.85 22.9 Q20.35 25.7 18.5 29.35 14.95 36.0 18.2 43.7 13.1 43.3 8.85 38.55 6.1 30.4 10.35 25.6 11.6 24.2 13.05 23.25 16.45 21.0 21.2 21.3 L21.55 21.3 23.1 22.55 M44.1 41.7 Q41.6 43.2 38.1 42.95 40.2 34.85 37.65 29.45 L37.65 29.4 Q35.8 25.65 32.5 22.8 L32.95 22.55 34.5 21.3 Q41.5 20.75 45.85 25.6 50.1 30.45 47.3 38.6 L47.3 38.7 Q46.7 40.1 44.1 41.7 M28.2 10.85 Q24.9 11.0 21.95 12.05 16.25 12.15 13.45 15.35 10.05 16.45 7.85 18.7 2.9 23.7 2.9 28.65 2.95 35.7 8.3 39.05 13.0 44.3 18.7 44.5 21.7 46.4 26.15 46.75 L27.35 46.85 30.15 46.65 Q33.95 46.1 37.7 43.7 41.65 44.1 44.5 42.35 47.3 40.6 47.95 39.0 53.05 34.5 53.05 28.65 53.1 21.55 45.7 16.55 44.55 15.8 42.85 15.3 39.55 11.75 34.2 12.1 31.55 10.65 28.2 10.85 M32.3 31.25 Q34.1 33.15 34.1 35.8 34.1 38.45 32.3 40.3 L31.7 40.9 Q31.6 42.6 30.5 43.25 30.25 45.8 27.95 46.45 26.0 45.55 25.65 43.4 24.5 42.8 24.5 41.1 L23.6 40.3 Q21.8 38.45 21.8 35.8 21.8 33.15 23.6 31.25 23.15 29.0 24.9 29.1 24.7 28.0 25.4 27.6 26.05 27.15 26.7 27.9 26.8 26.75 28.0 26.6 29.0 26.5 29.35 27.75 29.9 27.15 30.65 27.55 31.45 27.95 31.25 29.1 31.8 28.9 32.2 29.45 32.5 30.0 32.2 31.15 L32.2 31.2 32.3 31.25 M28.1 32.15 Q26.7 32.15 25.8 32.6 L25.05 31.6 24.75 30.85 24.95 30.3 Q25.45 30.0 25.9 30.85 L26.2 31.5 25.75 29.85 Q25.55 28.95 26.1 28.7 26.6 28.7 26.7 29.3 L27.2 30.5 27.25 29.8 27.25 28.7 Q27.5 28.15 28.1 28.1 28.65 28.15 28.85 28.7 L29.0 30.25 29.0 30.3 29.5 29.05 Q29.55 28.7 30.1 28.7 30.6 28.95 30.35 29.85 L30.2 30.95 30.25 30.85 Q30.75 30.0 31.15 30.3 L31.4 30.85 31.15 31.6 30.35 32.6 Q29.45 32.15 28.1 32.15 M24.2 35.8 L24.2 34.8 Q24.4 34.2 24.95 33.7 26.05 32.85 28.1 32.85 30.1 32.85 31.15 33.7 L31.9 34.8 Q32.1 35.3 31.9 35.8 31.8 36.45 31.3 36.9 31.45 37.4 31.05 39.05 30.65 40.7 30.3 41.1 30.35 41.95 29.65 42.6 29.55 44.2 28.3 45.05 L28.1 45.15 27.7 44.95 Q26.6 44.15 26.5 42.6 25.75 41.95 25.85 41.1 25.5 40.7 25.1 39.05 24.75 37.4 24.85 36.9 24.35 36.45 24.2 35.8 Z" fill="none" stroke="#000000" stroke-linecap="round" stroke-linejoin="round" stroke-opacity="0.2" stroke-width="1.6"/>
      <path d="M32.3 31.25 L32.2 31.2 32.2 31.15 Q32.5 30.0 32.2 29.45 31.8 28.9 31.25 29.1 31.45 27.95 30.65 27.55 29.9 27.15 29.35 27.75 29.0 26.5 28.0 26.6 26.8 26.75 26.7 27.9 26.05 27.15 25.4 27.6 24.7 28.0 24.9 29.1 23.15 29.0 23.6 31.25 21.8 33.15 21.8 35.8 21.8 38.45 23.6 40.3 L24.5 41.1 Q24.5 42.8 25.65 43.4 26.0 45.55 27.95 46.45 30.25 45.8 30.5 43.25 31.6 42.6 31.7 40.9 L32.3 40.3 Q34.1 38.45 34.1 35.8 34.1 33.15 32.3 31.25 M28.2 10.85 Q31.55 10.65 34.2 12.1 39.55 11.75 42.85 15.3 44.55 15.8 45.7 16.55 53.1 21.55 53.05 28.65 53.05 34.5 47.95 39.0 47.3 40.6 44.5 42.35 41.65 44.1 37.7 43.7 33.95 46.1 30.15 46.65 L27.35 46.85 26.15 46.75 Q21.7 46.4 18.7 44.5 13.0 44.3 8.3 39.05 2.95 35.7 2.9 28.65 2.9 23.7 7.85 18.7 10.05 16.45 13.45 15.35 16.25 12.15 21.95 12.05 24.9 11.0 28.2 10.85 M44.1 41.7 Q46.7 40.1 47.3 38.7 L47.3 38.6 Q50.1 30.45 45.85 25.6 41.5 20.75 34.5 21.3 L32.95 22.55 32.5 22.8 Q35.8 25.65 37.65 29.4 L37.65 29.45 Q40.2 34.85 38.1 42.95 41.6 43.2 44.1 41.7 M23.1 22.55 L21.55 21.3 21.2 21.3 Q16.45 21.0 13.05 23.25 11.6 24.2 10.35 25.6 6.1 30.4 8.85 38.55 13.1 43.3 18.2 43.7 14.95 36.0 18.5 29.35 20.35 25.7 23.85 22.9 L23.1 22.55 M23.45 17.35 Q22.85 17.65 22.45 18.05 21.7 18.75 21.7 19.6 L21.95 20.6 22.05 20.7 22.1 20.75 23.45 21.9 23.45 21.85 24.75 22.4 24.95 22.5 28.0 22.9 31.25 22.45 31.65 22.3 31.7 22.3 32.6 21.85 32.6 21.9 34.0 20.8 34.0 20.7 34.1 20.55 34.35 19.6 Q34.35 18.95 33.95 18.4 L33.65 18.05 32.6 17.35 32.05 17.05 32.05 17.15 32.3 18.25 32.3 18.35 32.3 18.45 Q32.15 19.4 31.0 20.1 L30.95 20.1 30.85 20.2 29.2 20.7 28.05 20.8 27.0 20.7 25.3 20.2 25.25 20.2 25.15 20.1 Q24.05 19.45 23.9 18.55 L23.85 18.3 23.85 18.25 24.05 17.15 24.1 17.0 23.45 17.35 M30.6 16.75 Q30.6 16.0 29.7 15.6 L29.35 15.4 27.7 15.3 27.1 15.35 Q26.2 15.6 25.5 16.1 L24.75 16.95 24.6 17.65 Q24.6 18.4 25.45 18.8 L26.2 19.05 27.5 19.05 28.05 19.05 29.7 18.3 30.45 17.4 30.6 16.75 M23.1 16.65 L24.5 16.05 24.65 16.0 25.8 15.2 27.95 14.7 Q29.4 14.6 30.35 15.2 L31.6 16.1 Q32.35 16.3 32.95 16.65 L34.15 17.5 34.25 17.6 Q38.0 14.65 41.45 15.0 38.5 12.6 34.15 12.85 32.55 13.65 31.8 15.4 L31.35 15.4 Q29.7 14.15 27.65 14.35 25.6 14.5 24.55 15.6 23.8 13.3 22.05 12.85 17.4 12.9 14.75 15.15 18.65 14.75 22.15 17.25 L23.1 16.65 M28.1 32.15 Q26.7 32.15 25.8 32.6 L25.05 31.6 24.75 30.85 24.95 30.3 Q25.45 30.0 25.9 30.85 L26.2 31.5 25.75 29.85 Q25.55 28.95 26.1 28.7 26.6 28.7 26.7 29.3 L27.2 30.5 27.25 29.8 27.25 28.7 Q27.5 28.15 28.1 28.1 28.65 28.15 28.85 28.7 L29.0 30.25 29.0 30.3 29.5 29.05 Q29.55 28.7 30.1 28.7 30.6 28.95 30.35 29.85 L30.2 30.95 30.25 30.85 Q30.75 30.0 31.15 30.3 L31.4 30.85 31.15 31.6 30.35 32.6 Q29.45 32.15 28.1 32.15 M24.2 35.8 L24.2 34.8 Q24.4 34.2 24.95 33.7 26.05 32.85 28.1 32.85 30.1 32.85 31.15 33.7 L31.9 34.8 Q32.1 35.3 31.9 35.8 31.8 36.45 31.3 36.9 31.45 37.4 31.05 39.05 30.65 40.7 30.3 41.1 30.35 41.95 29.65 42.6 29.55 44.2 28.3 45.05 L28.1 45.15 27.7 44.95 Q26.6 44.15 26.5 42.6 25.75 41.95 25.85 41.1 25.5 40.7 25.1 39.05 24.75 37.4 24.85 36.9 24.35 36.45 24.2 35.8" fill="#000000" fill-rule="evenodd" stroke="none"/>
    </g>
  </defs>
</svg>
