<?xml version="1.0" encoding="UTF-8" standalone="no"?>
<svg xmlns:ffdec="https://www.free-decompiler.com/flash" xmlns:xlink="http://www.w3.org/1999/xlink" ffdec:objectType="frame" height="56.0px" width="56.0px" xmlns="http://www.w3.org/2000/svg">
  <g transform="matrix(1.0, 0.0, 0.0, 1.0, 0.0, 0.0)">
    <use ffdec:characterId="2" height="56.0" id="back" transform="matrix(1.0, 0.0, 0.0, 1.0, 0.0, 0.0)" width="56.0" xlink:href="#sprite0"/>
    <use ffdec:characterId="3" height="51.85" transform="matrix(1.0, 0.0, 0.0, 1.0, 4.4, 1.6)" width="49.35" xlink:href="#shape1"/>
  </g>
  <defs>
    <g id="sprite0" transform="matrix(1.0, 0.0, 0.0, 1.0, 0.0, 0.0)">
      <use ffdec:characterId="1" height="56.0" transform="matrix(1.0, 0.0, 0.0, 1.0, 0.0, 0.0)" width="56.0" xlink:href="#shape0"/>
    </g>
    <g id="shape0" transform="matrix(1.0, 0.0, 0.0, 1.0, 0.0, 0.0)">
      <path d="M56.0 56.0 L0.0 56.0 0.0 0.0 56.0 0.0 56.0 56.0" fill="#010101" fill-opacity="0.0" fill-rule="evenodd" stroke="none"/>
    </g>
    <g id="shape1" transform="matrix(1.0, 0.0, 0.0, 1.0, -4.4, -1.6)">
      <path d="M8.05 37.55 Q10.7 38.75 15.85 38.0 8.75 37.85 5.4 34.55 5.75 30.85 6.95 27.3 8.3 26.3 10.0 25.7 12.55 24.85 15.85 24.8 20.65 26.25 23.05 30.85 22.15 32.2 22.0 33.3 23.0 31.65 23.8 31.15 25.85 30.05 27.65 29.55 L31.45 29.4 Q34.85 30.65 36.5 35.9 37.95 33.1 37.75 30.0 37.55 25.9 33.8 20.65 L33.7 20.65 Q31.1 20.45 29.8 19.8 28.95 18.6 28.65 17.35 L28.55 17.2 26.8 15.1 Q26.95 13.95 27.35 13.25 L27.4 13.2 27.65 12.75 28.35 12.3 28.55 12.45 28.6 12.5 29.85 13.2 30.0 13.25 32.85 13.65 Q33.25 13.95 33.3 14.45 L33.3 14.55 33.3 14.8 Q32.45 15.75 31.6 15.95 L30.65 15.75 30.6 15.7 28.9 15.15 30.4 16.5 31.5 16.75 31.65 16.75 Q32.8 16.55 33.95 15.25 L34.05 15.0 34.05 14.9 34.95 14.7 35.1 14.7 35.15 14.7 Q36.05 15.5 37.2 15.75 38.3 15.75 39.45 15.0 L40.35 13.0 41.05 13.35 40.0 11.95 40.6 10.45 38.95 11.7 37.4 11.85 Q38.15 12.45 39.35 12.4 L39.7 12.6 Q39.65 13.55 38.85 14.65 38.2 15.2 37.5 15.15 36.3 14.9 35.4 13.9 35.2 12.05 35.35 10.35 L37.6 7.95 Q35.9 8.7 35.25 9.4 L34.55 10.15 Q34.35 12.0 34.6 14.0 L34.05 14.1 Q33.95 13.4 33.3 12.95 L33.1 12.9 32.2 12.75 Q31.8 10.65 32.0 9.75 33.3 7.55 34.2 6.9 L34.65 6.6 Q31.9 7.85 31.05 9.45 L31.1 12.5 30.15 12.5 29.15 11.9 Q28.8 10.1 29.05 8.95 30.1 7.0 31.6 5.9 L31.65 4.55 31.35 5.2 Q29.7 6.4 28.25 8.35 L28.2 8.5 Q27.9 9.65 28.15 11.5 L27.15 12.2 27.1 12.25 Q25.85 9.5 25.75 8.1 27.45 5.7 29.85 4.2 L30.55 3.55 Q31.25 2.9 32.85 2.4 33.65 3.0 34.15 4.05 40.35 6.1 43.6 9.3 44.9 11.95 44.4 18.25 L46.65 22.45 48.25 28.4 49.9 31.35 Q51.45 34.25 52.95 40.25 53.15 45.65 48.0 50.75 47.55 52.1 46.75 52.65 41.3 52.1 38.85 50.95 35.75 52.35 28.3 51.45 20.85 50.55 19.0 48.45 16.55 50.25 11.25 51.8 8.35 50.6 6.5 47.85 4.9 41.85 5.25 36.1 L8.05 37.55 M36.5 19.2 Q35.4 18.45 35.2 17.2 L34.9 15.7 Q34.65 16.25 34.65 17.45 35.0 19.4 37.95 20.05 L36.5 19.2 M34.65 40.25 L29.25 40.6 Q25.2 40.45 24.25 39.75 26.0 41.8 27.9 42.75 31.4 42.0 34.65 40.25 M40.25 46.65 Q37.7 44.4 36.15 37.25 L36.15 39.8 Q36.9 44.6 39.9 47.85 43.35 48.1 46.25 45.8 43.3 47.0 40.25 46.65" fill="#000000" fill-rule="evenodd" stroke="none"/>
      <path d="M8.05 37.55 Q10.7 38.75 15.85 38.0 8.75 37.85 5.4 34.55 5.75 30.85 6.95 27.3 8.3 26.3 10.0 25.7 12.55 24.85 15.85 24.8 20.65 26.25 23.05 30.85 22.15 32.2 22.0 33.3 23.0 31.65 23.8 31.15 25.85 30.05 27.65 29.55 L31.45 29.4 Q34.85 30.65 36.5 35.9 37.95 33.1 37.75 30.0 37.55 25.9 33.8 20.65 L33.7 20.65 Q31.1 20.45 29.8 19.8 28.95 18.6 28.65 17.35 L28.55 17.2 26.8 15.1 Q26.95 13.95 27.35 13.25 L27.4 13.2 27.65 12.75 28.35 12.3 28.55 12.45 28.6 12.5 29.85 13.2 30.0 13.25 32.85 13.65 Q33.25 13.95 33.3 14.45 L33.3 14.55 33.3 14.8 Q32.45 15.75 31.6 15.95 L30.65 15.75 30.6 15.7 28.9 15.15 30.4 16.5 31.5 16.75 31.65 16.75 Q32.8 16.55 33.95 15.25 L34.05 15.0 34.05 14.9 34.95 14.7 35.1 14.7 35.15 14.7 Q36.05 15.5 37.2 15.75 38.3 15.75 39.45 15.0 L40.35 13.0 41.05 13.35 40.0 11.95 40.6 10.45 38.95 11.7 37.4 11.85 Q38.15 12.45 39.35 12.4 L39.7 12.6 Q39.65 13.55 38.85 14.65 38.2 15.2 37.5 15.15 36.3 14.9 35.4 13.9 35.2 12.05 35.35 10.35 L37.6 7.95 Q35.9 8.7 35.25 9.4 L34.55 10.15 Q34.35 12.0 34.6 14.0 L34.05 14.1 Q33.95 13.4 33.3 12.95 L33.1 12.9 32.2 12.75 Q31.8 10.65 32.0 9.75 33.3 7.55 34.2 6.9 L34.65 6.6 Q31.9 7.85 31.05 9.45 L31.1 12.5 30.15 12.5 29.15 11.9 Q28.8 10.1 29.05 8.95 30.1 7.0 31.6 5.9 L31.65 4.55 31.35 5.2 Q29.7 6.4 28.25 8.35 L28.2 8.5 Q27.9 9.65 28.15 11.5 L27.15 12.2 27.1 12.25 Q25.85 9.5 25.75 8.1 27.45 5.7 29.85 4.2 L30.55 3.55 Q31.25 2.9 32.85 2.4 33.65 3.0 34.15 4.05 40.35 6.1 43.6 9.3 44.9 11.95 44.4 18.25 L46.65 22.45 48.25 28.4 49.9 31.35 Q51.45 34.25 52.95 40.25 53.15 45.65 48.0 50.75 47.55 52.1 46.75 52.65 41.3 52.1 38.85 50.95 35.75 52.35 28.3 51.45 20.85 50.55 19.0 48.45 16.55 50.25 11.25 51.8 8.35 50.6 6.5 47.85 4.9 41.85 5.25 36.1 L8.05 37.55 M36.5 19.2 Q35.4 18.45 35.2 17.2 L34.9 15.7 Q34.65 16.25 34.65 17.45 35.0 19.4 37.95 20.05 L36.5 19.2 M34.65 40.25 L29.25 40.6 Q25.2 40.45 24.25 39.75 26.0 41.8 27.9 42.75 31.4 42.0 34.65 40.25 M40.25 46.65 Q37.7 44.4 36.15 37.25 L36.15 39.8 Q36.9 44.6 39.9 47.85 43.35 48.1 46.25 45.8 43.3 47.0 40.25 46.65 Z" fill="none" stroke="#000000" stroke-linecap="round" stroke-linejoin="round" stroke-opacity="0.2" stroke-width="1.6"/>
      <path d="M8.05 37.55 Q10.7 38.75 15.85 38.0 8.75 37.85 5.4 34.55 5.75 30.85 6.95 27.3 8.3 26.3 10.0 25.7 12.55 24.85 15.85 24.8 20.65 26.25 23.05 30.85 22.15 32.2 22.0 33.3 23.0 31.65 23.8 31.15 25.85 30.05 27.65 29.55 L31.45 29.4 Q34.85 30.65 36.5 35.9 37.95 33.1 37.75 30.0 37.55 25.9 33.8 20.65 L33.7 20.65 Q31.1 20.45 29.8 19.8 28.95 18.6 28.65 17.35 L28.55 17.2 26.8 15.1 Q26.95 13.95 27.35 13.25 L27.4 13.2 27.65 12.75 28.35 12.3 28.55 12.45 28.6 12.5 29.85 13.2 30.0 13.25 32.85 13.65 Q33.25 13.95 33.3 14.45 L33.3 14.55 33.3 14.8 Q32.45 15.75 31.6 15.95 L30.65 15.75 30.6 15.7 28.9 15.15 30.4 16.5 31.5 16.75 31.65 16.75 Q32.8 16.55 33.95 15.25 L34.05 15.0 34.05 14.9 34.95 14.7 35.1 14.7 35.15 14.7 Q36.05 15.5 37.2 15.75 38.3 15.75 39.45 15.0 L40.35 13.0 41.05 13.35 40.0 11.95 40.6 10.45 38.95 11.7 37.4 11.85 Q38.15 12.45 39.35 12.4 L39.7 12.6 Q39.65 13.55 38.85 14.65 38.2 15.2 37.5 15.15 36.3 14.9 35.4 13.9 35.2 12.05 35.35 10.35 L37.6 7.95 Q35.9 8.7 35.25 9.4 L34.55 10.15 Q34.35 12.0 34.6 14.0 L34.05 14.1 Q33.95 13.4 33.3 12.95 L33.1 12.9 32.2 12.75 Q31.8 10.65 32.0 9.75 33.3 7.55 34.2 6.9 L34.65 6.6 Q31.9 7.85 31.05 9.45 L31.1 12.5 30.15 12.5 29.15 11.9 Q28.8 10.1 29.05 8.95 30.1 7.0 31.6 5.9 L31.65 4.55 31.35 5.2 Q29.7 6.4 28.25 8.35 L28.2 8.5 Q27.9 9.65 28.15 11.5 L27.15 12.2 27.1 12.25 Q25.85 9.5 25.75 8.1 27.45 5.7 29.85 4.2 L30.55 3.55 Q31.25 2.9 32.85 2.4 33.65 3.0 34.15 4.05 40.35 6.1 43.6 9.3 44.9 11.95 44.4 18.25 L46.65 22.45 48.25 28.4 49.9 31.35 Q51.45 34.25 52.95 40.25 53.15 45.65 48.0 50.75 47.55 52.1 46.75 52.65 41.3 52.1 38.85 50.95 35.75 52.35 28.3 51.45 20.85 50.55 19.0 48.45 16.55 50.25 11.25 51.8 8.35 50.6 6.5 47.85 4.9 41.85 5.25 36.1 L8.05 37.55 M36.5 19.2 Q35.4 18.45 35.2 17.2 L34.9 15.7 Q34.65 16.25 34.65 17.45 35.0 19.4 37.95 20.05 L36.5 19.2 M34.65 40.25 L29.25 40.6 Q25.2 40.45 24.25 39.75 26.0 41.8 27.9 42.75 31.4 42.0 34.65 40.25 M40.25 46.65 Q37.7 44.4 36.15 37.25 L36.15 39.8 Q36.9 44.6 39.9 47.85 43.35 48.1 46.25 45.8 43.3 47.0 40.25 46.65" fill="#000000" fill-rule="evenodd" stroke="none"/>
    </g>
  </defs>
</svg>
