<?xml version="1.0" encoding="UTF-8" standalone="no"?>
<svg xmlns:ffdec="https://www.free-decompiler.com/flash" xmlns:xlink="http://www.w3.org/1999/xlink" ffdec:objectType="frame" height="56.0px" width="56.0px" xmlns="http://www.w3.org/2000/svg">
  <g transform="matrix(1.0, 0.0, 0.0, 1.0, 0.0, 0.0)">
    <use ffdec:characterId="2" height="56.0" id="back" transform="matrix(1.0, 0.0, 0.0, 1.0, 0.0, 0.0)" width="56.0" xlink:href="#sprite0"/>
    <use ffdec:characterId="3" height="50.85" transform="matrix(1.0, 0.0, 0.0, 1.0, 10.5, 2.45)" width="38.4" xlink:href="#shape1"/>
  </g>
  <defs>
    <g id="sprite0" transform="matrix(1.0, 0.0, 0.0, 1.0, 0.0, 0.0)">
      <use ffdec:characterId="1" height="56.0" transform="matrix(1.0, 0.0, 0.0, 1.0, 0.0, 0.0)" width="56.0" xlink:href="#shape0"/>
    </g>
    <g id="shape0" transform="matrix(1.0, 0.0, 0.0, 1.0, 0.0, 0.0)">
      <path d="M56.0 56.0 L0.0 56.0 0.0 0.0 56.0 0.0 56.0 56.0" fill="#010101" fill-opacity="0.0" fill-rule="evenodd" stroke="none"/>
    </g>
    <g id="shape1" transform="matrix(1.0, 0.0, 0.0, 1.0, -10.5, -2.45)">
      <path d="M14.35 3.25 Q15.35 10.65 32.6 15.65 41.3 18.15 45.4 25.1 49.5 32.1 47.4 39.85 44.05 52.3 29.25 52.5 8.8 49.4 15.6 26.8 17.75 31.95 26.75 33.3 L28.9 34.05 Q30.1 34.65 30.9 36.35 31.65 38.0 30.95 39.95 30.25 41.85 28.1 42.55 25.95 43.2 24.45 42.05 22.9 40.9 22.4 40.15 22.7 38.75 22.05 37.9 21.4 37.05 19.9 37.25 19.1 37.4 18.95 38.65 18.55 41.5 23.45 45.0 26.25 46.15 27.1 43.55 31.1 43.65 32.2 40.15 33.9 34.5 26.7 32.1 30.6 27.4 36.05 30.4 33.5 33.15 34.2 40.05 34.7 44.95 31.55 47.05 35.25 45.75 37.9 42.85 40.7 39.85 40.0 35.85 39.35 31.95 36.4 29.35 33.5 26.75 29.65 26.5 18.6 25.4 14.15 20.1 8.35 11.2 14.35 3.25" fill="#000000" fill-rule="evenodd" stroke="none"/>
      <path d="M14.35 3.25 Q15.35 10.65 32.6 15.65 41.3 18.15 45.4 25.1 49.5 32.1 47.4 39.85 44.05 52.3 29.25 52.5 8.8 49.4 15.6 26.8 17.75 31.95 26.75 33.3 L28.9 34.05 Q30.1 34.65 30.9 36.35 31.65 38.0 30.95 39.95 30.25 41.85 28.1 42.55 25.95 43.2 24.45 42.05 22.9 40.9 22.4 40.15 22.7 38.75 22.05 37.9 21.4 37.05 19.9 37.25 19.1 37.4 18.95 38.65 18.55 41.5 23.45 45.0 26.25 46.15 27.1 43.55 31.1 43.65 32.2 40.15 33.9 34.5 26.7 32.1 30.6 27.4 36.05 30.4 33.5 33.15 34.2 40.05 34.7 44.95 31.55 47.05 35.25 45.75 37.9 42.85 40.7 39.85 40.0 35.85 39.35 31.95 36.4 29.35 33.5 26.75 29.65 26.5 18.6 25.4 14.15 20.1 8.35 11.2 14.35 3.25 Z" fill="none" stroke="#000000" stroke-linecap="round" stroke-linejoin="round" stroke-opacity="0.2" stroke-width="1.6"/>
      <path d="M14.35 3.25 Q15.35 10.65 32.6 15.65 41.3 18.15 45.4 25.1 49.5 32.1 47.4 39.85 44.05 52.3 29.25 52.5 8.8 49.4 15.6 26.8 17.75 31.95 26.75 33.3 L28.9 34.05 Q30.1 34.65 30.9 36.35 31.65 38.0 30.95 39.95 30.25 41.85 28.1 42.55 25.95 43.2 24.45 42.05 22.9 40.9 22.4 40.15 22.7 38.75 22.05 37.9 21.4 37.05 19.9 37.25 19.1 37.4 18.95 38.65 18.55 41.5 23.45 45.0 26.25 46.15 27.1 43.55 31.1 43.65 32.2 40.15 33.9 34.5 26.7 32.1 30.6 27.4 36.05 30.4 33.5 33.15 34.2 40.05 34.7 44.95 31.55 47.05 35.25 45.75 37.9 42.85 40.7 39.85 40.0 35.85 39.35 31.95 36.4 29.35 33.5 26.75 29.65 26.5 18.6 25.4 14.15 20.1 8.35 11.2 14.35 3.25" fill="#000000" fill-rule="evenodd" stroke="none"/>
    </g>
  </defs>
</svg>
