<?xml version="1.0" encoding="UTF-8" standalone="no"?>
<svg xmlns:ffdec="https://www.free-decompiler.com/flash" xmlns:xlink="http://www.w3.org/1999/xlink" ffdec:objectType="frame" height="56.0px" width="56.0px" xmlns="http://www.w3.org/2000/svg">
  <g transform="matrix(1.0, 0.0, 0.0, 1.0, 0.0, 0.0)">
    <use ffdec:characterId="2" height="56.0" id="back" transform="matrix(1.0, 0.0, 0.0, 1.0, 0.0, 0.0)" width="56.0" xlink:href="#sprite0"/>
    <use ffdec:characterId="3" height="50.95" transform="matrix(1.0, 0.0, 0.0, 1.0, 5.35, 2.45)" width="47.7" xlink:href="#shape1"/>
  </g>
  <defs>
    <g id="sprite0" transform="matrix(1.0, 0.0, 0.0, 1.0, 0.0, 0.0)">
      <use ffdec:characterId="1" height="56.0" transform="matrix(1.0, 0.0, 0.0, 1.0, 0.0, 0.0)" width="56.0" xlink:href="#shape0"/>
    </g>
    <g id="shape0" transform="matrix(1.0, 0.0, 0.0, 1.0, 0.0, 0.0)">
      <path d="M56.0 56.0 L0.0 56.0 0.0 0.0 56.0 0.0 56.0 56.0" fill="#010101" fill-opacity="0.0" fill-rule="evenodd" stroke="none"/>
    </g>
    <g id="shape1" transform="matrix(1.0, 0.0, 0.0, 1.0, -5.35, -2.45)">
      <path d="M17.5 33.6 L18.35 32.8 19.4 32.65 20.7 32.9 Q21.05 32.95 21.4 33.25 L22.45 34.6 21.3 35.35 Q22.3 37.6 24.55 39.15 L25.25 38.4 25.95 39.45 26.3 40.55 25.6 42.45 24.65 43.35 24.1 43.3 Q20.5 38.9 17.45 34.3 17.25 33.9 17.5 33.6 M6.25 46.2 L7.95 46.4 Q9.05 49.4 11.25 50.75 11.05 51.75 11.15 52.6 9.75 52.85 7.75 49.95 5.75 47.05 6.25 46.2 M15.8 41.25 L15.8 42.9 17.45 42.9 17.45 41.25 15.8 41.25 M8.45 46.1 L17.3 38.65 Q18.4 40.4 20.2 42.2 12.3 48.6 11.35 50.1 9.05 48.25 8.45 46.1 M13.15 43.35 L13.15 45.0 14.8 45.0 14.8 43.35 13.15 43.35 M10.65 45.5 L10.65 47.15 12.3 47.15 12.3 45.5 10.65 45.5 M17.65 38.15 Q17.65 37.4 18.55 36.75 20.0 39.15 21.95 41.3 21.3 42.0 20.6 41.75 18.75 40.0 17.65 38.15 M21.85 35.55 Q36.95 22.0 52.25 3.25 51.45 15.8 24.45 38.65 22.75 37.2 21.85 35.55" fill="#000000" fill-rule="evenodd" stroke="none"/>
      <path d="M17.5 33.6 L18.35 32.8 19.4 32.65 20.7 32.9 Q21.05 32.95 21.4 33.25 L22.45 34.6 21.3 35.35 Q22.3 37.6 24.55 39.15 L25.25 38.4 25.95 39.45 26.3 40.55 25.6 42.45 24.65 43.35 24.1 43.3 Q20.5 38.9 17.45 34.3 17.25 33.9 17.5 33.6 M6.25 46.2 L7.95 46.4 Q9.05 49.4 11.25 50.75 11.05 51.75 11.15 52.6 9.75 52.85 7.75 49.95 5.75 47.05 6.25 46.2 M8.45 46.1 L17.3 38.65 Q18.4 40.4 20.2 42.2 12.3 48.6 11.35 50.1 9.05 48.25 8.45 46.1 M17.65 38.15 Q17.65 37.4 18.55 36.75 20.0 39.15 21.95 41.3 21.3 42.0 20.6 41.75 18.75 40.0 17.65 38.15 M21.85 35.55 Q36.95 22.0 52.25 3.25 51.45 15.8 24.45 38.65 22.75 37.2 21.85 35.55 Z" fill="none" stroke="#000000" stroke-linecap="round" stroke-linejoin="round" stroke-opacity="0.2" stroke-width="1.6"/>
      <path d="M17.5 33.6 L18.35 32.8 19.4 32.65 20.7 32.9 Q21.05 32.95 21.4 33.25 L22.45 34.6 21.3 35.35 Q22.3 37.6 24.55 39.15 L25.25 38.4 25.95 39.45 26.3 40.55 25.6 42.45 24.65 43.35 24.1 43.3 Q20.5 38.9 17.45 34.3 17.25 33.9 17.5 33.6 M6.25 46.2 L7.95 46.4 Q9.05 49.4 11.25 50.75 11.05 51.75 11.15 52.6 9.75 52.85 7.75 49.95 5.75 47.05 6.25 46.2 M15.8 41.25 L15.8 42.9 17.45 42.9 17.45 41.25 15.8 41.25 M8.45 46.1 L17.3 38.65 Q18.4 40.4 20.2 42.2 12.3 48.6 11.35 50.1 9.05 48.25 8.45 46.1 M13.15 43.35 L13.15 45.0 14.8 45.0 14.8 43.35 13.15 43.35 M10.65 45.5 L10.65 47.15 12.3 47.15 12.3 45.5 10.65 45.5 M17.65 38.15 Q17.65 37.4 18.55 36.75 20.0 39.15 21.95 41.3 21.3 42.0 20.6 41.75 18.75 40.0 17.65 38.15 M21.85 35.55 Q36.95 22.0 52.25 3.25 51.45 15.8 24.45 38.65 22.75 37.2 21.85 35.55" fill="#000000" fill-rule="evenodd" stroke="none"/>
    </g>
  </defs>
</svg>
