<?xml version="1.0" encoding="UTF-8" standalone="no"?>
<svg xmlns:ffdec="https://www.free-decompiler.com/flash" xmlns:xlink="http://www.w3.org/1999/xlink" ffdec:objectType="frame" height="56.0px" width="56.0px" xmlns="http://www.w3.org/2000/svg">
  <g transform="matrix(1.0, 0.0, 0.0, 1.0, 0.0, 0.0)">
    <use ffdec:characterId="2" height="56.0" id="back" transform="matrix(1.0, 0.0, 0.0, 1.0, 0.0, 0.0)" width="56.0" xlink:href="#sprite0"/>
    <use ffdec:characterId="3" height="52.6" transform="matrix(1.0, 0.0, 0.0, 1.0, 5.35, 1.55)" width="43.8" xlink:href="#shape1"/>
  </g>
  <defs>
    <g id="sprite0" transform="matrix(1.0, 0.0, 0.0, 1.0, 0.0, 0.0)">
      <use ffdec:characterId="1" height="56.0" transform="matrix(1.0, 0.0, 0.0, 1.0, 0.0, 0.0)" width="56.0" xlink:href="#shape0"/>
    </g>
    <g id="shape0" transform="matrix(1.0, 0.0, 0.0, 1.0, 0.0, 0.0)">
      <path d="M56.0 56.0 L0.0 56.0 0.0 0.0 56.0 0.0 56.0 56.0" fill="#010101" fill-opacity="0.0" fill-rule="evenodd" stroke="none"/>
    </g>
    <g id="shape1" transform="matrix(1.0, 0.0, 0.0, 1.0, -5.35, -1.55)">
      <path d="M9.85 52.6 Q11.35 53.05 12.05 52.15 L12.0 51.45 11.85 50.95 Q8.7 51.0 8.8 47.45 L8.35 47.4 7.45 47.4 7.4 49.2 Q7.75 52.05 9.85 52.6 M12.7 52.9 Q9.85 54.15 7.65 51.9 5.55 49.75 6.35 47.0 15.05 43.1 15.2 39.65 17.4 40.1 17.8 37.7 L21.7 37.5 Q21.0 39.95 21.55 41.4 19.2 41.8 19.6 44.0 16.25 44.15 12.65 52.45 L12.7 52.9 M47.0 22.25 L25.8 42.0 Q25.0 40.95 22.8 40.3 L34.35 28.25 Q36.0 28.65 36.8 28.25 38.4 25.85 38.8 20.65 L38.7 20.65 Q33.6 21.1 31.1 22.7 30.7 23.5 31.1 25.15 L19.15 36.65 Q18.2 34.55 17.3 33.9 L48.35 2.35 47.0 22.25 M14.75 36.8 Q13.7 35.7 13.8 35.2 L15.1 35.0 Q15.8 35.2 16.1 36.0 16.5 37.1 16.25 38.7 15.55 39.35 14.65 39.35 L14.6 39.35 14.55 39.2 13.9 38.25 11.5 35.8 Q9.8 34.25 11.35 33.4 15.85 31.35 18.6 36.85 L16.75 35.8 Q15.45 33.25 13.35 33.8 11.3 34.3 12.75 35.75 14.1 37.0 14.65 38.15 15.0 37.3 14.75 36.8 M22.95 44.45 L21.5 44.6 23.6 46.3 Q25.05 47.8 25.6 45.75 26.1 43.65 23.55 42.3 L22.5 40.45 Q28.0 43.25 25.95 47.7 25.1 49.3 23.55 47.55 22.05 45.85 21.15 45.2 L20.4 44.7 20.2 44.6 20.2 44.55 20.0 44.4 20.25 44.35 Q20.35 43.6 20.85 43.0 L23.55 43.1 Q24.35 43.4 24.55 44.15 24.75 44.9 24.35 45.45 23.7 45.95 22.95 44.45 M14.15 44.9 L18.6 43.45 Q19.0 41.65 20.4 41.1 20.05 39.85 20.65 38.6 L20.75 38.5 20.6 38.6 18.1 38.8 Q17.55 40.25 15.75 40.65 L14.15 44.9" fill="#000000" fill-rule="evenodd" stroke="none"/>
      <path d="M12.7 52.9 L12.65 52.45 Q16.25 44.15 19.6 44.0 19.2 41.8 21.55 41.4 21.0 39.95 21.7 37.5 L17.8 37.7 Q17.4 40.1 15.2 39.65 15.05 43.1 6.35 47.0 5.55 49.75 7.65 51.9 9.85 54.15 12.7 52.9 M9.85 52.6 Q7.75 52.05 7.4 49.2 L7.45 47.4 8.35 47.4 8.8 47.45 Q8.7 51.0 11.85 50.95 L12.0 51.45 12.05 52.15 Q11.35 53.05 9.85 52.6 M47.0 22.25 L25.8 42.0 Q25.0 40.95 22.8 40.3 L34.35 28.25 Q36.0 28.65 36.8 28.25 38.4 25.85 38.8 20.65 L38.7 20.65 Q33.6 21.1 31.1 22.7 30.7 23.5 31.1 25.15 L19.15 36.65 Q18.2 34.55 17.3 33.9 L48.35 2.35 47.0 22.25 M14.75 36.8 Q13.7 35.7 13.8 35.2 L15.1 35.0 Q15.8 35.2 16.1 36.0 16.5 37.1 16.25 38.7 15.55 39.35 14.65 39.35 L14.6 39.35 14.55 39.2 13.9 38.25 11.5 35.8 Q9.8 34.25 11.35 33.4 15.85 31.35 18.6 36.85 L16.75 35.8 Q15.45 33.25 13.35 33.8 11.3 34.3 12.75 35.75 14.1 37.0 14.65 38.15 15.0 37.3 14.75 36.8 M22.95 44.45 Q23.7 45.95 24.35 45.45 24.75 44.9 24.55 44.15 24.35 43.4 23.55 43.1 L20.85 43.0 Q20.35 43.6 20.25 44.35 L20.0 44.4 20.2 44.55 20.2 44.6 20.4 44.7 21.15 45.2 Q22.05 45.85 23.55 47.55 25.1 49.3 25.95 47.7 28.0 43.25 22.5 40.45 L23.55 42.3 Q26.1 43.65 25.6 45.75 25.05 47.8 23.6 46.3 L21.5 44.6 22.95 44.45 M14.15 44.9 L18.6 43.45 Q19.0 41.65 20.4 41.1 20.05 39.85 20.65 38.6 L20.75 38.5 20.6 38.6 18.1 38.8 Q17.55 40.25 15.75 40.65 L14.15 44.9 Z" fill="none" stroke="#000000" stroke-linecap="round" stroke-linejoin="round" stroke-opacity="0.2" stroke-width="1.6"/>
      <path d="M9.85 52.6 Q11.35 53.05 12.05 52.15 L12.0 51.45 11.85 50.95 Q8.7 51.0 8.8 47.45 L8.35 47.4 7.45 47.4 7.4 49.2 Q7.75 52.05 9.85 52.6 M12.7 52.9 Q9.85 54.15 7.65 51.9 5.55 49.75 6.35 47.0 15.05 43.1 15.2 39.65 17.4 40.1 17.8 37.7 L21.7 37.5 Q21.0 39.95 21.55 41.4 19.2 41.8 19.6 44.0 16.25 44.15 12.65 52.45 L12.7 52.9 M47.0 22.25 L25.8 42.0 Q25.0 40.95 22.8 40.3 L34.35 28.25 Q36.0 28.65 36.8 28.25 38.4 25.85 38.8 20.65 L38.7 20.65 Q33.6 21.1 31.1 22.7 30.7 23.5 31.1 25.15 L19.15 36.65 Q18.2 34.55 17.3 33.9 L48.35 2.35 47.0 22.25 M14.75 36.8 Q13.7 35.7 13.8 35.2 L15.1 35.0 Q15.8 35.2 16.1 36.0 16.5 37.1 16.25 38.7 15.55 39.35 14.65 39.35 L14.6 39.35 14.55 39.2 13.9 38.25 11.5 35.8 Q9.8 34.25 11.35 33.4 15.85 31.35 18.6 36.85 L16.75 35.8 Q15.45 33.25 13.35 33.8 11.3 34.3 12.75 35.75 14.1 37.0 14.65 38.15 15.0 37.3 14.75 36.8 M14.15 44.9 L18.6 43.45 Q19.0 41.65 20.4 41.1 20.05 39.85 20.65 38.6 L20.75 38.5 20.6 38.6 18.1 38.8 Q17.55 40.25 15.75 40.65 L14.15 44.9 M22.95 44.45 L21.5 44.6 23.6 46.3 Q25.05 47.8 25.6 45.75 26.1 43.65 23.55 42.3 L22.5 40.45 Q28.0 43.25 25.95 47.7 25.1 49.3 23.55 47.55 22.05 45.85 21.15 45.2 L20.4 44.7 20.2 44.6 20.2 44.55 20.0 44.4 20.25 44.35 Q20.35 43.6 20.85 43.0 L23.55 43.1 Q24.35 43.4 24.55 44.15 24.75 44.9 24.35 45.45 23.7 45.95 22.95 44.45" fill="#000000" fill-rule="evenodd" stroke="none"/>
    </g>
  </defs>
</svg>
