<?xml version="1.0" encoding="UTF-8" standalone="no"?>
<svg xmlns:ffdec="https://www.free-decompiler.com/flash" xmlns:xlink="http://www.w3.org/1999/xlink" ffdec:objectType="frame" height="56.0px" width="56.0px" xmlns="http://www.w3.org/2000/svg">
  <g transform="matrix(1.0, 0.0, 0.0, 1.0, 0.0, 0.0)">
    <use ffdec:characterId="47" ffdec:characterName="46_fla.Symbole138_1" height="56.0" id="back" transform="matrix(1.0, 0.0, 0.0, 1.0, 0.0, 0.0)" width="56.0" xlink:href="#sprite0"/>
    <use ffdec:characterId="49" height="46.75" id="back" transform="matrix(1.0, 0.0, 0.0, 1.0, 0.35, 4.8)" width="55.4" xlink:href="#sprite46"/>
    <use ffdec:characterId="51" height="45.25" id="up" transform="matrix(1.0, 0.0, 0.0, 1.0, 1.1, 5.55)" width="53.9" xlink:href="#sprite47"/>
  </g>
  <defs>
    <g id="sprite0" transform="matrix(1.0, 0.0, 0.0, 1.0, 0.0, 0.0)">
      <use ffdec:characterId="46" ffdec:characterName="46_fla.Symbole135_2" height="56.0" id="back" transform="matrix(1.0, 0.0, 0.0, 1.0, 0.0, 0.0)" width="56.0" xlink:href="#sprite1"/>
    </g>
    <g id="sprite1" transform="matrix(1.0, 0.0, 0.0, 1.0, 0.0, 0.0)">
      <use ffdec:characterId="45" ffdec:characterName="46_fla.Symbole132_3" height="56.0" id="back" transform="matrix(1.0, 0.0, 0.0, 1.0, 0.0, 0.0)" width="56.0" xlink:href="#sprite2"/>
    </g>
    <g id="sprite2" transform="matrix(1.0, 0.0, 0.0, 1.0, 0.0, 0.0)">
      <use ffdec:characterId="44" ffdec:characterName="46_fla.Symbole129_4" height="56.0" id="back" transform="matrix(1.0, 0.0, 0.0, 1.0, 0.0, 0.0)" width="56.0" xlink:href="#sprite3"/>
    </g>
    <g id="sprite3" transform="matrix(1.0, 0.0, 0.0, 1.0, 0.0, 0.0)">
      <use ffdec:characterId="43" ffdec:characterName="46_fla.Symbole126_5" height="56.0" id="back" transform="matrix(1.0, 0.0, 0.0, 1.0, 0.0, 0.0)" width="56.0" xlink:href="#sprite4"/>
    </g>
    <g id="sprite4" transform="matrix(1.0, 0.0, 0.0, 1.0, 0.0, 0.0)">
      <use ffdec:characterId="42" ffdec:characterName="46_fla.Symbole123_6" height="56.0" id="back" transform="matrix(1.0, 0.0, 0.0, 1.0, 0.0, 0.0)" width="56.0" xlink:href="#sprite5"/>
    </g>
    <g id="sprite5" transform="matrix(1.0, 0.0, 0.0, 1.0, 0.0, 0.0)">
      <use ffdec:characterId="41" ffdec:characterName="46_fla.Symbole120_7" height="56.0" id="back" transform="matrix(1.0, 0.0, 0.0, 1.0, 0.0, 0.0)" width="56.0" xlink:href="#sprite6"/>
    </g>
    <g id="sprite6" transform="matrix(1.0, 0.0, 0.0, 1.0, 0.0, 0.0)">
      <use ffdec:characterId="40" ffdec:characterName="46_fla.Symbole117_8" height="56.0" id="back" transform="matrix(1.0, 0.0, 0.0, 1.0, 0.0, 0.0)" width="56.0" xlink:href="#sprite7"/>
    </g>
    <g id="sprite7" transform="matrix(1.0, 0.0, 0.0, 1.0, 0.0, 0.0)">
      <use ffdec:characterId="39" ffdec:characterName="46_fla.Symbole114_9" height="56.0" id="back" transform="matrix(1.0, 0.0, 0.0, 1.0, 0.0, 0.0)" width="56.0" xlink:href="#sprite8"/>
    </g>
    <g id="sprite8" transform="matrix(1.0, 0.0, 0.0, 1.0, 0.0, 0.0)">
      <use ffdec:characterId="38" ffdec:characterName="46_fla.Symbole111_10" height="56.0" id="back" transform="matrix(1.0, 0.0, 0.0, 1.0, 0.0, 0.0)" width="56.0" xlink:href="#sprite9"/>
    </g>
    <g id="sprite9" transform="matrix(1.0, 0.0, 0.0, 1.0, 0.0, 0.0)">
      <use ffdec:characterId="37" ffdec:characterName="46_fla.Symbole108_11" height="56.0" id="back" transform="matrix(1.0, 0.0, 0.0, 1.0, 0.0, 0.0)" width="56.0" xlink:href="#sprite10"/>
    </g>
    <g id="sprite10" transform="matrix(1.0, 0.0, 0.0, 1.0, 0.0, 0.0)">
      <use ffdec:characterId="36" ffdec:characterName="46_fla.Symbole105_12" height="56.0" id="back" transform="matrix(1.0, 0.0, 0.0, 1.0, 0.0, 0.0)" width="56.0" xlink:href="#sprite11"/>
    </g>
    <g id="sprite11" transform="matrix(1.0, 0.0, 0.0, 1.0, 0.0, 0.0)">
      <use ffdec:characterId="35" ffdec:characterName="46_fla.Symbole102_13" height="56.0" id="back" transform="matrix(1.0, 0.0, 0.0, 1.0, 0.0, 0.0)" width="56.0" xlink:href="#sprite12"/>
    </g>
    <g id="sprite12" transform="matrix(1.0, 0.0, 0.0, 1.0, 0.0, 0.0)">
      <use ffdec:characterId="34" ffdec:characterName="46_fla.Symbole99_14" height="56.0" id="back" transform="matrix(1.0, 0.0, 0.0, 1.0, 0.0, 0.0)" width="56.0" xlink:href="#sprite13"/>
    </g>
    <g id="sprite13" transform="matrix(1.0, 0.0, 0.0, 1.0, 0.0, 0.0)">
      <use ffdec:characterId="33" ffdec:characterName="46_fla.Symbole96_15" height="56.0" id="back" transform="matrix(1.0, 0.0, 0.0, 1.0, 0.0, 0.0)" width="56.0" xlink:href="#sprite14"/>
    </g>
    <g id="sprite14" transform="matrix(1.0, 0.0, 0.0, 1.0, 0.0, 0.0)">
      <use ffdec:characterId="32" ffdec:characterName="46_fla.Symbole93_16" height="56.0" id="back" transform="matrix(1.0, 0.0, 0.0, 1.0, 0.0, 0.0)" width="56.0" xlink:href="#sprite15"/>
    </g>
    <g id="sprite15" transform="matrix(1.0, 0.0, 0.0, 1.0, 0.0, 0.0)">
      <use ffdec:characterId="31" ffdec:characterName="46_fla.Symbole90_17" height="56.0" id="back" transform="matrix(1.0, 0.0, 0.0, 1.0, 0.0, 0.0)" width="56.0" xlink:href="#sprite16"/>
    </g>
    <g id="sprite16" transform="matrix(1.0, 0.0, 0.0, 1.0, 0.0, 0.0)">
      <use ffdec:characterId="30" ffdec:characterName="46_fla.Symbole87_18" height="56.0" id="back" transform="matrix(1.0, 0.0, 0.0, 1.0, 0.0, 0.0)" width="56.0" xlink:href="#sprite17"/>
    </g>
    <g id="sprite17" transform="matrix(1.0, 0.0, 0.0, 1.0, 0.0, 0.0)">
      <use ffdec:characterId="29" ffdec:characterName="46_fla.Symbole84_19" height="56.0" id="back" transform="matrix(1.0, 0.0, 0.0, 1.0, 0.0, 0.0)" width="56.0" xlink:href="#sprite18"/>
    </g>
    <g id="sprite18" transform="matrix(1.0, 0.0, 0.0, 1.0, 0.0, 0.0)">
      <use ffdec:characterId="28" ffdec:characterName="46_fla.Symbole81_20" height="56.0" id="back" transform="matrix(1.0, 0.0, 0.0, 1.0, 0.0, 0.0)" width="56.0" xlink:href="#sprite19"/>
    </g>
    <g id="sprite19" transform="matrix(1.0, 0.0, 0.0, 1.0, 0.0, 0.0)">
      <use ffdec:characterId="27" ffdec:characterName="46_fla.Symbole78_21" height="56.0" id="back" transform="matrix(1.0, 0.0, 0.0, 1.0, 0.0, 0.0)" width="56.0" xlink:href="#sprite20"/>
    </g>
    <g id="sprite20" transform="matrix(1.0, 0.0, 0.0, 1.0, 0.0, 0.0)">
      <use ffdec:characterId="26" ffdec:characterName="46_fla.Symbole75_22" height="56.0" id="back" transform="matrix(1.0, 0.0, 0.0, 1.0, 0.0, 0.0)" width="56.0" xlink:href="#sprite21"/>
    </g>
    <g id="sprite21" transform="matrix(1.0, 0.0, 0.0, 1.0, 0.0, 0.0)">
      <use ffdec:characterId="25" ffdec:characterName="46_fla.Symbole72_23" height="56.0" id="back" transform="matrix(1.0, 0.0, 0.0, 1.0, 0.0, 0.0)" width="56.0" xlink:href="#sprite22"/>
    </g>
    <g id="sprite22" transform="matrix(1.0, 0.0, 0.0, 1.0, 0.0, 0.0)">
      <use ffdec:characterId="24" ffdec:characterName="46_fla.Symbole69_24" height="56.0" id="back" transform="matrix(1.0, 0.0, 0.0, 1.0, 0.0, 0.0)" width="56.0" xlink:href="#sprite23"/>
    </g>
    <g id="sprite23" transform="matrix(1.0, 0.0, 0.0, 1.0, 0.0, 0.0)">
      <use ffdec:characterId="23" ffdec:characterName="46_fla.Symbole66_25" height="56.0" id="back" transform="matrix(1.0, 0.0, 0.0, 1.0, 0.0, 0.0)" width="56.0" xlink:href="#sprite24"/>
    </g>
    <g id="sprite24" transform="matrix(1.0, 0.0, 0.0, 1.0, 0.0, 0.0)">
      <use ffdec:characterId="22" ffdec:characterName="46_fla.Symbole63_26" height="56.0" id="back" transform="matrix(1.0, 0.0, 0.0, 1.0, 0.0, 0.0)" width="56.0" xlink:href="#sprite25"/>
    </g>
    <g id="sprite25" transform="matrix(1.0, 0.0, 0.0, 1.0, 0.0, 0.0)">
      <use ffdec:characterId="21" ffdec:characterName="46_fla.Symbole60_27" height="56.0" id="back" transform="matrix(1.0, 0.0, 0.0, 1.0, 0.0, 0.0)" width="56.0" xlink:href="#sprite26"/>
    </g>
    <g id="sprite26" transform="matrix(1.0, 0.0, 0.0, 1.0, 0.0, 0.0)">
      <use ffdec:characterId="20" ffdec:characterName="46_fla.Symbole57_28" height="56.0" id="back" transform="matrix(1.0, 0.0, 0.0, 1.0, 0.0, 0.0)" width="56.0" xlink:href="#sprite27"/>
    </g>
    <g id="sprite27" transform="matrix(1.0, 0.0, 0.0, 1.0, 0.0, 0.0)">
      <use ffdec:characterId="19" ffdec:characterName="46_fla.Symbole54_29" height="56.0" id="back" transform="matrix(1.0, 0.0, 0.0, 1.0, 0.0, 0.0)" width="56.0" xlink:href="#sprite28"/>
    </g>
    <g id="sprite28" transform="matrix(1.0, 0.0, 0.0, 1.0, 0.0, 0.0)">
      <use ffdec:characterId="18" ffdec:characterName="46_fla.Symbole51_30" height="56.0" id="back" transform="matrix(1.0, 0.0, 0.0, 1.0, 0.0, 0.0)" width="56.0" xlink:href="#sprite29"/>
    </g>
    <g id="sprite29" transform="matrix(1.0, 0.0, 0.0, 1.0, 0.0, 0.0)">
      <use ffdec:characterId="17" ffdec:characterName="46_fla.Symbole48_31" height="56.0" id="back" transform="matrix(1.0, 0.0, 0.0, 1.0, 0.0, 0.0)" width="56.0" xlink:href="#sprite30"/>
    </g>
    <g id="sprite30" transform="matrix(1.0, 0.0, 0.0, 1.0, 0.0, 0.0)">
      <use ffdec:characterId="16" ffdec:characterName="46_fla.Symbole45_32" height="56.0" id="back" transform="matrix(1.0, 0.0, 0.0, 1.0, 0.0, 0.0)" width="56.0" xlink:href="#sprite31"/>
    </g>
    <g id="sprite31" transform="matrix(1.0, 0.0, 0.0, 1.0, 0.0, 0.0)">
      <use ffdec:characterId="15" ffdec:characterName="46_fla.Symbole42_33" height="56.0" id="back" transform="matrix(1.0, 0.0, 0.0, 1.0, 0.0, 0.0)" width="56.0" xlink:href="#sprite32"/>
    </g>
    <g id="sprite32" transform="matrix(1.0, 0.0, 0.0, 1.0, 0.0, 0.0)">
      <use ffdec:characterId="14" ffdec:characterName="46_fla.Symbole39_34" height="56.0" id="back" transform="matrix(1.0, 0.0, 0.0, 1.0, 0.0, 0.0)" width="56.0" xlink:href="#sprite33"/>
    </g>
    <g id="sprite33" transform="matrix(1.0, 0.0, 0.0, 1.0, 0.0, 0.0)">
      <use ffdec:characterId="13" ffdec:characterName="46_fla.Symbole36_35" height="56.0" id="back" transform="matrix(1.0, 0.0, 0.0, 1.0, 0.0, 0.0)" width="56.0" xlink:href="#sprite34"/>
    </g>
    <g id="sprite34" transform="matrix(1.0, 0.0, 0.0, 1.0, 0.0, 0.0)">
      <use ffdec:characterId="12" ffdec:characterName="46_fla.Symbole33_36" height="56.0" id="back" transform="matrix(1.0, 0.0, 0.0, 1.0, 0.0, 0.0)" width="56.0" xlink:href="#sprite35"/>
    </g>
    <g id="sprite35" transform="matrix(1.0, 0.0, 0.0, 1.0, 0.0, 0.0)">
      <use ffdec:characterId="11" ffdec:characterName="46_fla.Symbole30_37" height="56.0" id="back" transform="matrix(1.0, 0.0, 0.0, 1.0, 0.0, 0.0)" width="56.0" xlink:href="#sprite36"/>
    </g>
    <g id="sprite36" transform="matrix(1.0, 0.0, 0.0, 1.0, 0.0, 0.0)">
      <use ffdec:characterId="10" ffdec:characterName="46_fla.Symbole27_38" height="56.0" id="back" transform="matrix(1.0, 0.0, 0.0, 1.0, 0.0, 0.0)" width="56.0" xlink:href="#sprite37"/>
    </g>
    <g id="sprite37" transform="matrix(1.0, 0.0, 0.0, 1.0, 0.0, 0.0)">
      <use ffdec:characterId="9" ffdec:characterName="46_fla.Symbole24_39" height="56.0" id="back" transform="matrix(1.0, 0.0, 0.0, 1.0, 0.0, 0.0)" width="56.0" xlink:href="#sprite38"/>
    </g>
    <g id="sprite38" transform="matrix(1.0, 0.0, 0.0, 1.0, 0.0, 0.0)">
      <use ffdec:characterId="8" ffdec:characterName="46_fla.Symbole21_40" height="56.0" id="back" transform="matrix(1.0, 0.0, 0.0, 1.0, 0.0, 0.0)" width="56.0" xlink:href="#sprite39"/>
    </g>
    <g id="sprite39" transform="matrix(1.0, 0.0, 0.0, 1.0, 0.0, 0.0)">
      <use ffdec:characterId="7" ffdec:characterName="46_fla.Symbole18_41" height="56.0" id="back" transform="matrix(1.0, 0.0, 0.0, 1.0, 0.0, 0.0)" width="56.0" xlink:href="#sprite40"/>
    </g>
    <g id="sprite40" transform="matrix(1.0, 0.0, 0.0, 1.0, 0.0, 0.0)">
      <use ffdec:characterId="6" ffdec:characterName="46_fla.Symbole15_42" height="56.0" id="back" transform="matrix(1.0, 0.0, 0.0, 1.0, 0.0, 0.0)" width="56.0" xlink:href="#sprite41"/>
    </g>
    <g id="sprite41" transform="matrix(1.0, 0.0, 0.0, 1.0, 0.0, 0.0)">
      <use ffdec:characterId="5" ffdec:characterName="46_fla.Symbole12_43" height="56.0" id="back" transform="matrix(1.0, 0.0, 0.0, 1.0, 0.0, 0.0)" width="56.0" xlink:href="#sprite42"/>
    </g>
    <g id="sprite42" transform="matrix(1.0, 0.0, 0.0, 1.0, 0.0, 0.0)">
      <use ffdec:characterId="4" ffdec:characterName="46_fla.Symbole9_44" height="56.0" id="back" transform="matrix(1.0, 0.0, 0.0, 1.0, 0.0, 0.0)" width="56.0" xlink:href="#sprite43"/>
    </g>
    <g id="sprite43" transform="matrix(1.0, 0.0, 0.0, 1.0, 0.0, 0.0)">
      <use ffdec:characterId="3" ffdec:characterName="46_fla.Symbole6_45" height="56.0" id="back" transform="matrix(1.0, 0.0, 0.0, 1.0, 0.0, 0.0)" width="56.0" xlink:href="#sprite44"/>
    </g>
    <g id="sprite44" transform="matrix(1.0, 0.0, 0.0, 1.0, 0.0, 0.0)">
      <use ffdec:characterId="2" height="56.0" id="back" transform="matrix(1.0, 0.0, 0.0, 1.0, 0.0, 0.0)" width="56.0" xlink:href="#sprite45"/>
    </g>
    <g id="sprite45" transform="matrix(1.0, 0.0, 0.0, 1.0, 0.0, 0.0)">
      <use ffdec:characterId="1" height="56.0" transform="matrix(1.0, 0.0, 0.0, 1.0, 0.0, 0.0)" width="56.0" xlink:href="#shape0"/>
    </g>
    <g id="shape0" transform="matrix(1.0, 0.0, 0.0, 1.0, 0.0, 0.0)">
      <path d="M56.0 56.0 L0.0 56.0 0.0 0.0 56.0 0.0 56.0 56.0" fill="#010101" fill-opacity="0.0" fill-rule="evenodd" stroke="none"/>
    </g>
    <g id="sprite46" transform="matrix(1.0, 0.0, 0.0, 1.0, 0.75, 0.75)">
      <use ffdec:characterId="48" height="46.75" transform="matrix(1.0, 0.0, 0.0, 1.0, -0.75, -0.75)" width="55.4" xlink:href="#shape1"/>
    </g>
    <g id="shape1" transform="matrix(1.0, 0.0, 0.0, 1.0, 0.75, 0.75)">
      <path d="M40.3 16.05 L40.35 14.2 Q40.15 12.65 39.05 11.5 37.75 10.0 35.75 9.8 33.8 9.4 32.05 10.4 31.9 10.4 31.9 10.2 32.3 7.35 31.3 4.8 30.3 2.25 28.2 0.5 27.55 -0.1 26.95 0.05 26.45 -0.1 25.8 0.5 23.65 2.25 22.6 4.8 21.7 7.35 22.0 10.2 L21.95 10.4 Q20.2 9.4 18.25 9.8 16.15 10.0 14.85 11.5 13.8 12.65 13.55 14.2 L13.7 16.05 Q13.8 16.95 14.4 17.35 L15.0 16.8 15.55 16.05 Q16.35 15.05 18.1 15.05 19.35 14.95 20.5 15.8 21.55 16.55 21.95 17.85 24.3 16.5 26.95 16.55 29.7 16.5 32.05 17.85 32.35 16.55 33.45 15.8 34.5 14.95 35.8 15.05 37.45 15.05 38.4 16.05 L39.0 16.8 Q39.25 17.35 39.6 17.35 L40.3 16.05 M53.65 31.4 Q52.85 34.45 50.5 35.8 48.25 37.25 45.7 36.65 44.15 36.2 42.9 35.05 41.2 33.45 41.2 31.4 41.15 30.65 41.35 30.1 41.8 28.35 43.1 27.35 44.55 26.45 46.3 26.7 47.7 26.85 48.7 28.15 L49.55 29.3 49.75 27.8 49.2 25.55 Q47.85 22.6 44.25 22.2 42.0 21.75 39.85 22.8 37.7 23.8 36.4 25.85 L34.95 28.9 Q34.5 30.1 34.45 31.4 34.3 32.05 34.65 32.1 L37.25 32.3 Q37.95 32.45 38.15 33.35 38.3 33.85 37.95 34.45 L37.1 35.05 34.65 35.15 34.5 35.35 Q34.5 36.9 35.2 38.3 L36.05 39.7 Q37.3 41.35 38.75 41.65 39.05 40.3 39.85 40.05 40.55 39.45 41.45 39.7 L42.65 40.55 Q43.05 41.15 43.05 42.0 42.95 42.75 42.3 43.5 41.45 44.4 39.85 44.4 38.4 44.4 37.25 43.75 34.45 42.2 32.9 38.3 L32.05 35.3 Q31.9 34.9 31.7 35.05 L27.95 35.05 Q27.75 35.05 27.75 35.3 L27.75 38.75 Q27.75 39.25 28.05 39.4 29.25 39.9 29.7 41.2 30.15 42.45 29.55 43.6 28.65 45.1 26.95 45.25 25.2 45.1 24.35 43.6 23.75 42.45 24.3 41.2 24.75 39.9 26.05 39.4 L26.25 38.75 26.25 35.3 26.05 35.05 22.4 35.05 Q22.0 34.9 22.0 35.3 L21.1 38.3 Q19.4 42.2 16.75 43.75 15.55 44.4 14.15 44.4 12.4 44.4 11.65 43.5 10.95 42.75 10.95 42.0 10.95 41.15 11.35 40.55 11.8 39.9 12.5 39.7 13.3 39.45 14.15 40.05 14.85 40.3 15.25 41.65 16.6 41.35 17.9 39.7 L18.75 38.3 Q19.35 36.9 19.4 35.35 L19.35 35.15 18.1 35.05 16.95 35.05 Q16.3 34.9 15.95 34.45 15.7 33.85 15.75 33.35 15.95 32.45 16.75 32.3 L19.35 32.1 Q19.55 32.05 19.55 31.4 L18.95 28.9 Q18.25 26.85 17.6 25.85 16.15 23.8 14.15 22.8 12.0 21.75 9.7 22.2 6.15 22.6 4.7 25.55 4.25 26.6 4.25 27.8 4.1 28.8 4.45 29.3 4.65 28.65 5.3 28.15 6.25 26.85 7.7 26.7 9.4 26.45 10.8 27.35 12.25 28.35 12.65 30.1 L12.7 31.4 Q12.7 33.45 11.1 35.05 9.8 36.2 8.2 36.65 5.75 37.25 3.4 35.8 1.05 34.45 0.35 31.4 L0.15 30.2 Q-0.3 27.5 0.85 24.8 2.55 20.35 7.45 19.15 13.1 17.65 17.65 21.5 22.0 25.15 22.4 31.4 L22.4 31.7 22.45 32.05 25.9 32.05 26.05 31.85 26.05 31.4 Q25.8 27.75 24.6 24.55 L23.2 21.75 Q22.4 20.9 22.15 20.35 21.95 19.75 22.25 19.5 22.55 18.85 23.45 18.3 24.3 17.65 25.65 17.55 26.35 17.4 26.95 17.55 27.65 17.4 28.25 17.55 29.55 17.65 30.6 18.3 31.45 18.85 31.7 19.5 L31.85 20.35 30.75 21.75 Q29.75 23.2 29.35 24.55 28.2 27.75 27.95 31.4 L27.95 31.85 28.05 32.05 31.5 32.05 31.6 31.7 31.6 31.4 Q31.9 25.15 36.25 21.5 40.75 17.65 46.55 19.15 51.25 20.35 53.1 24.8 54.15 27.5 53.85 30.2 L53.65 31.4 Z" fill="none" stroke="#000000" stroke-linecap="round" stroke-linejoin="round" stroke-opacity="0.2" stroke-width="1.5"/>
    </g>
    <g id="sprite47" transform="matrix(1.0, 0.0, 0.0, 1.0, 0.0, 0.0)">
      <use ffdec:characterId="50" height="45.25" transform="matrix(1.0, 0.0, 0.0, 1.0, 0.0, 0.0)" width="53.9" xlink:href="#shape2"/>
    </g>
    <g id="shape2" transform="matrix(1.0, 0.0, 0.0, 1.0, 0.0, 0.0)">
      <path d="M40.35 14.2 L40.3 16.05 39.6 17.35 Q39.25 17.35 39.0 16.8 L38.4 16.05 Q37.45 15.05 35.8 15.05 34.5 14.95 33.45 15.8 32.35 16.55 32.05 17.85 29.7 16.5 26.95 16.55 24.3 16.5 21.95 17.85 21.55 16.55 20.5 15.8 19.35 14.95 18.1 15.05 16.35 15.05 15.55 16.05 L15.0 16.8 14.4 17.35 Q13.8 16.95 13.7 16.05 L13.55 14.2 Q13.8 12.65 14.85 11.5 16.15 10.0 18.25 9.8 20.2 9.4 21.95 10.4 L22.0 10.2 Q21.7 7.35 22.6 4.8 23.65 2.25 25.8 0.5 26.45 -0.1 26.95 0.05 27.55 -0.1 28.2 0.5 30.3 2.25 31.3 4.8 32.3 7.35 31.9 10.2 31.9 10.4 32.05 10.4 33.8 9.4 35.75 9.8 37.75 10.0 39.05 11.5 40.15 12.65 40.35 14.2 M53.65 31.4 Q52.85 34.45 50.5 35.8 48.25 37.25 45.7 36.65 44.15 36.2 42.9 35.05 41.2 33.45 41.2 31.4 41.15 30.65 41.35 30.1 41.8 28.35 43.1 27.35 44.55 26.45 46.3 26.7 47.7 26.85 48.7 28.15 L49.55 29.3 49.75 27.8 49.2 25.55 Q47.85 22.6 44.25 22.2 42.0 21.75 39.85 22.8 37.7 23.8 36.4 25.85 L34.95 28.9 Q34.5 30.1 34.45 31.4 34.3 32.05 34.65 32.1 L37.25 32.3 Q37.95 32.45 38.15 33.35 38.3 33.85 37.95 34.45 L37.1 35.05 34.65 35.15 34.5 35.35 Q34.5 36.9 35.2 38.3 L36.05 39.7 Q37.3 41.35 38.75 41.65 39.05 40.3 39.85 40.05 40.55 39.45 41.45 39.7 L42.65 40.55 Q43.05 41.15 43.05 42.0 42.95 42.75 42.3 43.5 41.45 44.4 39.85 44.4 38.4 44.4 37.25 43.75 34.45 42.2 32.9 38.3 L32.05 35.3 Q31.9 34.9 31.7 35.05 L27.95 35.05 Q27.75 35.05 27.75 35.3 L27.75 38.75 Q27.75 39.25 28.05 39.4 29.25 39.9 29.7 41.2 30.15 42.45 29.55 43.6 28.65 45.1 26.95 45.25 25.2 45.1 24.35 43.6 23.75 42.45 24.3 41.2 24.75 39.9 26.05 39.4 L26.25 38.75 26.25 35.3 26.05 35.05 22.4 35.05 Q22.0 34.9 22.0 35.3 L21.1 38.3 Q19.4 42.2 16.75 43.75 15.55 44.4 14.15 44.4 12.4 44.4 11.65 43.5 10.95 42.75 10.95 42.0 10.95 41.15 11.35 40.55 11.8 39.9 12.5 39.7 13.3 39.45 14.15 40.05 14.85 40.3 15.25 41.65 16.6 41.35 17.9 39.7 L18.75 38.3 Q19.35 36.9 19.4 35.35 L19.35 35.15 18.1 35.05 16.95 35.05 Q16.3 34.9 15.95 34.45 15.7 33.85 15.75 33.35 15.95 32.45 16.75 32.3 L19.35 32.1 Q19.55 32.05 19.55 31.4 L18.95 28.9 Q18.25 26.85 17.6 25.85 16.15 23.8 14.15 22.8 12.0 21.75 9.7 22.2 6.15 22.6 4.7 25.55 4.25 26.6 4.25 27.8 4.1 28.8 4.45 29.3 4.65 28.65 5.3 28.15 6.25 26.85 7.7 26.7 9.4 26.45 10.8 27.35 12.25 28.35 12.65 30.1 L12.7 31.4 Q12.7 33.45 11.1 35.05 9.8 36.2 8.2 36.65 5.75 37.25 3.4 35.8 1.05 34.45 0.35 31.4 L0.15 30.2 Q-0.3 27.5 0.85 24.8 2.55 20.35 7.45 19.15 13.1 17.65 17.65 21.5 22.0 25.15 22.4 31.4 L22.4 31.7 22.45 32.05 25.9 32.05 26.05 31.85 26.05 31.4 Q25.8 27.75 24.6 24.55 L23.2 21.75 Q22.4 20.9 22.15 20.35 21.95 19.75 22.25 19.5 22.55 18.85 23.45 18.3 24.3 17.65 25.65 17.55 26.35 17.4 26.95 17.55 27.65 17.4 28.25 17.55 29.55 17.65 30.6 18.3 31.45 18.85 31.7 19.5 L31.85 20.35 30.75 21.75 Q29.75 23.2 29.35 24.55 28.2 27.75 27.95 31.4 L27.95 31.85 28.05 32.05 31.5 32.05 31.6 31.7 31.6 31.4 Q31.9 25.15 36.25 21.5 40.75 17.65 46.55 19.15 51.25 20.35 53.1 24.8 54.15 27.5 53.85 30.2 L53.65 31.4" fill="#000000" fill-rule="evenodd" stroke="none"/>
    </g>
  </defs>
</svg>
