<?xml version="1.0" encoding="UTF-8" standalone="no"?>
<svg xmlns:ffdec="https://www.free-decompiler.com/flash" xmlns:xlink="http://www.w3.org/1999/xlink" ffdec:objectType="frame" height="56.0px" width="56.0px" xmlns="http://www.w3.org/2000/svg">
  <g transform="matrix(1.0, 0.0, 0.0, 1.0, 0.0, 0.0)">
    <use ffdec:characterId="2" height="56.0" id="back" transform="matrix(1.0, 0.0, 0.0, 1.0, 0.0, 0.0)" width="56.0" xlink:href="#sprite0"/>
    <use ffdec:characterId="3" height="53.25" transform="matrix(1.0, 0.0, 0.0, 1.0, 4.3, 0.65)" width="46.05" xlink:href="#shape1"/>
  </g>
  <defs>
    <g id="sprite0" transform="matrix(1.0, 0.0, 0.0, 1.0, 0.0, 0.0)">
      <use ffdec:characterId="1" height="56.0" transform="matrix(1.0, 0.0, 0.0, 1.0, 0.0, 0.0)" width="56.0" xlink:href="#shape0"/>
    </g>
    <g id="shape0" transform="matrix(1.0, 0.0, 0.0, 1.0, 0.0, 0.0)">
      <path d="M56.0 56.0 L0.0 56.0 0.0 0.0 56.0 0.0 56.0 56.0" fill="#010101" fill-opacity="0.0" fill-rule="evenodd" stroke="none"/>
    </g>
    <g id="shape1" transform="matrix(1.0, 0.0, 0.0, 1.0, -4.3, -0.65)">
      <path d="M26.6 38.3 Q37.2 30.0 45.65 19.6 45.9 16.75 44.9 11.5 41.65 19.7 38.2 25.8 L37.1 20.85 Q34.3 27.25 31.2 32.2 L30.8 27.45 Q28.4 32.85 25.45 36.2 L25.95 36.8 Q26.45 37.45 26.6 38.3 M11.1 30.7 Q13.0 31.5 14.7 32.85 16.25 29.5 18.15 27.55 18.25 31.2 17.05 35.0 L17.9 35.7 Q21.05 32.55 22.85 24.05 24.3 27.9 22.05 34.5 33.7 22.7 42.2 10.85 44.8 6.3 45.4 1.45 49.4 7.85 49.55 16.9 39.05 29.95 27.2 38.7 33.8 36.8 37.7 38.2 28.7 39.85 25.35 42.75 L26.1 43.55 Q30.15 42.45 34.0 42.65 31.95 44.35 28.35 45.8 29.75 47.4 30.6 49.25 28.5 48.6 26.7 46.7 24.15 47.9 21.3 48.0 22.05 46.2 24.4 44.7 21.8 44.35 19.75 43.2 L16.75 45.7 15.25 47.1 13.6 48.65 9.95 51.6 9.8 51.65 Q7.6 52.95 5.55 53.1 4.8 52.55 5.25 51.85 7.6 50.2 10.45 47.65 L10.5 47.6 10.5 47.55 14.05 44.35 17.65 41.4 Q16.2 39.3 15.85 36.6 14.25 38.8 12.35 39.45 12.45 36.8 13.75 34.4 11.75 32.7 11.1 30.7 M25.15 36.55 Q24.0 35.45 22.45 35.35 20.85 35.25 19.8 36.25 19.0 36.95 19.2 38.25 L19.75 39.65 20.55 40.65 Q21.65 41.75 23.05 42.05 24.4 42.3 25.15 41.6 26.25 40.6 26.25 39.15 L26.25 38.8 26.2 38.7 Q26.1 37.8 25.6 37.1 L25.15 36.6 25.15 36.55 M23.3 39.4 L22.15 40.1 21.3 40.0 Q21.05 39.75 21.3 39.2 21.5 38.7 22.05 38.15 L23.2 37.45 24.05 37.55 24.15 37.7 24.1 38.35 24.0 38.5 23.3 39.4 M18.75 41.45 L19.4 40.25 18.75 41.45" fill="#000000" fill-rule="evenodd" stroke="none"/>
      <path d="M26.6 38.3 Q37.2 30.0 45.65 19.6 45.9 16.75 44.9 11.5 41.65 19.7 38.2 25.8 L37.1 20.85 Q34.3 27.25 31.2 32.2 L30.8 27.45 Q28.4 32.85 25.45 36.2 L25.95 36.8 Q26.45 37.45 26.6 38.3 M11.1 30.7 Q13.0 31.5 14.7 32.85 16.25 29.5 18.15 27.55 18.25 31.2 17.05 35.0 L17.9 35.7 Q21.05 32.55 22.85 24.05 24.3 27.9 22.05 34.5 33.7 22.7 42.2 10.85 44.8 6.3 45.4 1.45 49.4 7.85 49.55 16.9 39.05 29.95 27.2 38.7 33.8 36.8 37.7 38.2 28.7 39.85 25.35 42.75 L26.1 43.55 Q30.15 42.45 34.0 42.65 31.95 44.35 28.35 45.8 29.75 47.4 30.6 49.25 28.5 48.6 26.7 46.7 24.15 47.9 21.3 48.0 22.05 46.2 24.4 44.7 21.8 44.35 19.75 43.2 L16.75 45.7 15.25 47.1 13.6 48.65 9.95 51.6 9.8 51.65 Q7.6 52.95 5.55 53.1 4.8 52.55 5.25 51.85 7.6 50.2 10.45 47.65 L10.5 47.6 10.5 47.55 14.05 44.35 17.65 41.4 Q16.2 39.3 15.85 36.6 14.25 38.8 12.35 39.45 12.45 36.8 13.75 34.4 11.75 32.7 11.1 30.7 M25.15 36.55 L25.15 36.6 25.6 37.1 Q26.1 37.8 26.2 38.7 L26.25 38.8 26.25 39.15 Q26.25 40.6 25.15 41.6 24.4 42.3 23.05 42.05 21.65 41.75 20.55 40.65 L19.75 39.65 19.2 38.25 Q19.0 36.95 19.8 36.25 20.85 35.25 22.45 35.35 24.0 35.45 25.15 36.55 M23.3 39.4 L22.15 40.1 21.3 40.0 Q21.05 39.75 21.3 39.2 21.5 38.7 22.05 38.15 L23.2 37.45 24.05 37.55 24.15 37.7 24.1 38.35 24.0 38.5 23.3 39.4" fill="none" stroke="#000000" stroke-linecap="round" stroke-linejoin="round" stroke-opacity="0.2" stroke-width="1.6"/>
      <path d="M19.4 40.25 L18.75 41.45" fill="none" stroke="#000000" stroke-linecap="round" stroke-linejoin="round" stroke-opacity="0.3019608" stroke-width="0.05"/>
      <path d="M26.6 38.3 Q37.2 30.0 45.65 19.6 45.9 16.75 44.9 11.5 41.65 19.7 38.2 25.8 L37.1 20.85 Q34.3 27.25 31.2 32.2 L30.8 27.45 Q28.4 32.85 25.45 36.2 L25.95 36.8 Q26.45 37.45 26.6 38.3 M11.1 30.7 Q13.0 31.5 14.7 32.85 16.25 29.5 18.15 27.55 18.25 31.2 17.05 35.0 L17.9 35.7 Q21.05 32.55 22.85 24.05 24.3 27.9 22.05 34.5 33.7 22.7 42.2 10.85 44.8 6.3 45.4 1.45 49.4 7.85 49.55 16.9 39.05 29.95 27.2 38.7 33.8 36.8 37.7 38.2 28.7 39.85 25.35 42.75 L26.1 43.55 Q30.15 42.45 34.0 42.65 31.95 44.35 28.35 45.8 29.75 47.4 30.6 49.25 28.5 48.6 26.7 46.7 24.15 47.9 21.3 48.0 22.05 46.2 24.4 44.7 21.8 44.35 19.75 43.2 L16.75 45.7 15.25 47.1 13.6 48.65 9.95 51.6 9.8 51.65 Q7.6 52.95 5.55 53.1 4.8 52.55 5.25 51.85 7.6 50.2 10.45 47.65 L10.5 47.6 10.5 47.55 14.05 44.35 17.65 41.4 Q16.2 39.3 15.85 36.6 14.25 38.8 12.35 39.45 12.45 36.8 13.75 34.4 11.75 32.7 11.1 30.7 M25.15 36.55 Q24.0 35.45 22.45 35.35 20.85 35.25 19.8 36.25 19.0 36.95 19.2 38.25 L19.75 39.65 20.55 40.65 Q21.65 41.75 23.05 42.05 24.4 42.3 25.15 41.6 26.25 40.6 26.25 39.15 L26.25 38.8 26.2 38.7 Q26.1 37.8 25.6 37.1 L25.15 36.6 25.15 36.55 M23.3 39.4 L22.15 40.1 21.3 40.0 Q21.05 39.75 21.3 39.2 21.5 38.7 22.05 38.15 L23.2 37.45 24.05 37.55 24.15 37.7 24.1 38.35 24.0 38.5 23.3 39.4 M18.75 41.45 L19.4 40.25 18.75 41.45" fill="#000000" fill-rule="evenodd" stroke="none"/>
      <path d="M19.4 40.25 L18.75 41.45" fill="none" stroke="#000000" stroke-linecap="round" stroke-linejoin="round" stroke-opacity="0.3019608" stroke-width="0.05"/>
    </g>
  </defs>
</svg>
