<?xml version="1.0" encoding="UTF-8" standalone="no"?>
<svg xmlns:ffdec="https://www.free-decompiler.com/flash" xmlns:xlink="http://www.w3.org/1999/xlink" ffdec:objectType="frame" height="56.0px" width="56.0px" xmlns="http://www.w3.org/2000/svg">
  <g transform="matrix(1.0, 0.0, 0.0, 1.0, 0.0, 0.0)">
    <use ffdec:characterId="2" height="56.0" id="back" transform="matrix(1.0, 0.0, 0.0, 1.0, 0.0, 0.0)" width="56.0" xlink:href="#sprite0"/>
    <use ffdec:characterId="3" height="50.35" transform="matrix(1.0, 0.0, 0.0, 1.0, 2.9, 3.0)" width="50.15" xlink:href="#shape1"/>
  </g>
  <defs>
    <g id="sprite0" transform="matrix(1.0, 0.0, 0.0, 1.0, 0.0, 0.0)">
      <use ffdec:characterId="1" height="56.0" transform="matrix(1.0, 0.0, 0.0, 1.0, 0.0, 0.0)" width="56.0" xlink:href="#shape0"/>
    </g>
    <g id="shape0" transform="matrix(1.0, 0.0, 0.0, 1.0, 0.0, 0.0)">
      <path d="M56.0 56.0 L0.0 56.0 0.0 0.0 56.0 0.0 56.0 56.0" fill="#010101" fill-opacity="0.0" fill-rule="evenodd" stroke="none"/>
    </g>
    <g id="shape1" transform="matrix(1.0, 0.0, 0.0, 1.0, -2.9, -3.0)">
      <path d="M19.75 28.45 Q14.95 22.65 17.1 16.65 17.45 15.9 18.4 16.8 22.25 14.2 24.25 14.8 26.3 15.5 21.95 21.0 L24.65 23.4 Q30.6 14.1 37.05 6.9 44.45 3.6 52.25 3.8 52.5 11.6 49.15 19.0 41.95 25.45 32.65 31.4 L35.05 34.1 Q40.6 29.75 41.25 31.75 41.85 33.8 39.25 37.7 40.15 38.6 39.4 38.95 33.3 41.15 27.4 36.15 L26.1 36.25 Q24.25 36.25 22.75 35.35 19.35 38.55 15.5 43.4 13.3 42.8 12.95 40.85 17.65 36.95 20.75 33.5 19.6 31.85 19.6 29.75 19.6 29.05 19.75 28.45 L20.0 28.75 25.55 24.15 24.65 23.4 25.55 24.15 20.0 28.75 19.75 28.45 M21.45 20.55 L19.5 18.2 18.85 17.35 19.5 18.2 21.45 20.55 M39.0 14.45 Q35.15 18.45 31.2 25.05 37.65 20.8 41.5 16.85 43.2 17.95 44.95 17.9 44.65 16.2 43.4 14.7 45.65 11.85 46.55 9.15 43.85 10.1 41.05 12.5 39.5 11.25 37.8 11.05 37.8 12.8 39.0 14.45 M27.4 36.15 L27.3 36.05 31.9 30.45 32.65 31.4 31.9 30.45 27.3 36.05 27.4 36.15 M35.55 34.6 L37.85 36.5 38.75 37.2 37.85 36.5 35.55 34.6 M28.05 29.8 Q28.05 30.5 27.55 31.05 L27.1 30.5 26.25 29.9 25.6 29.95 Q25.4 30.15 25.55 30.6 L26.15 31.45 26.4 31.7 26.1 31.7 Q25.35 31.7 24.75 31.15 24.2 30.6 24.2 29.8 24.2 29.0 24.75 28.4 25.35 27.85 26.1 27.85 26.9 27.85 27.45 28.4 28.05 29.0 28.05 29.8 M30.55 29.8 Q30.55 27.95 29.25 26.65 27.95 25.35 26.1 25.35 24.3 25.35 23.0 26.65 21.7 27.95 21.7 29.8 21.7 31.6 23.0 32.9 24.3 34.2 26.1 34.2 27.95 34.2 29.25 32.9 30.55 31.6 30.55 29.8 M10.55 42.4 Q10.6 41.85 10.95 41.5 11.5 40.95 12.5 41.15 L12.55 41.2 Q12.8 42.05 13.6 42.85 14.4 43.65 15.3 43.85 L15.35 44.0 Q15.55 45.0 15.0 45.55 L14.45 45.9 Q15.45 49.2 13.4 52.55 11.95 51.85 11.55 50.15 7.5 53.25 4.2 49.6 5.1 49.05 5.3 47.9 5.55 46.7 6.15 46.1 4.2 45.2 3.7 43.3 7.2 42.0 10.55 42.4" fill="#000000" fill-rule="evenodd" stroke="none"/>
      <path d="M19.75 28.45 Q14.95 22.65 17.1 16.65 17.45 15.9 18.4 16.8 22.25 14.2 24.25 14.8 26.3 15.5 21.95 21.0 L24.65 23.4 Q30.6 14.1 37.05 6.9 44.45 3.6 52.25 3.8 52.5 11.6 49.15 19.0 41.95 25.45 32.65 31.4 L35.05 34.1 Q40.6 29.75 41.25 31.75 41.85 33.8 39.25 37.7 40.15 38.6 39.4 38.95 33.3 41.15 27.4 36.15 L26.1 36.25 Q24.25 36.25 22.75 35.35 19.35 38.55 15.5 43.4 13.3 42.8 12.95 40.85 17.65 36.95 20.75 33.5 19.6 31.85 19.6 29.75 19.6 29.05 19.75 28.45 L20.0 28.75 25.55 24.15 24.65 23.4 M18.85 17.35 L19.5 18.2 21.45 20.55 M39.0 14.45 Q37.8 12.8 37.8 11.05 39.5 11.25 41.05 12.5 43.85 10.1 46.55 9.15 45.65 11.85 43.4 14.7 44.65 16.2 44.95 17.9 43.2 17.95 41.5 16.85 37.65 20.8 31.2 25.05 35.15 18.45 39.0 14.45 M38.75 37.2 L37.85 36.5 35.55 34.6 M32.65 31.4 L31.9 30.45 27.3 36.05 27.4 36.15 M28.05 29.8 Q28.05 30.5 27.55 31.05 L27.1 30.5 26.25 29.9 25.6 29.95 Q25.4 30.15 25.55 30.6 L26.15 31.45 26.4 31.7 26.1 31.7 Q25.35 31.7 24.75 31.15 24.2 30.6 24.2 29.8 24.2 29.0 24.75 28.4 25.35 27.85 26.1 27.85 26.9 27.85 27.45 28.4 28.05 29.0 28.05 29.8 M30.55 29.8 Q30.55 31.6 29.25 32.9 27.95 34.2 26.1 34.2 24.3 34.2 23.0 32.9 21.7 31.6 21.7 29.8 21.7 27.95 23.0 26.65 24.3 25.35 26.1 25.35 27.95 25.35 29.25 26.65 30.55 27.95 30.55 29.8 M10.55 42.4 Q10.6 41.85 10.95 41.5 11.5 40.95 12.5 41.15 L12.55 41.2 Q12.8 42.05 13.6 42.85 14.4 43.65 15.3 43.85 L15.35 44.0 Q15.55 45.0 15.0 45.55 L14.45 45.9 Q15.45 49.2 13.4 52.55 11.95 51.85 11.55 50.15 7.5 53.25 4.2 49.6 5.1 49.05 5.3 47.9 5.55 46.7 6.15 46.1 4.2 45.2 3.7 43.3 7.2 42.0 10.55 42.4 Z" fill="none" stroke="#000000" stroke-linecap="round" stroke-linejoin="round" stroke-opacity="0.2" stroke-width="1.6"/>
      <path d="M18.4 16.8 Q22.25 14.2 24.25 14.8 26.3 15.5 21.95 21.0 L24.65 23.4 Q30.6 14.1 37.05 6.9 44.45 3.6 52.25 3.8 52.5 11.6 49.15 19.0 41.95 25.45 32.65 31.4 L35.05 34.1 Q40.6 29.75 41.25 31.75 41.85 33.8 39.25 37.7 40.15 38.6 39.4 38.95 33.3 41.15 27.4 36.15 L26.1 36.25 Q24.25 36.25 22.75 35.35 19.35 38.55 15.5 43.4 13.3 42.8 12.95 40.85 17.65 36.95 20.75 33.5 19.6 31.85 19.6 29.75 19.6 29.05 19.75 28.45 14.95 22.65 17.1 16.65 17.45 15.9 18.4 16.8 M21.45 20.55 L19.5 18.2 18.85 17.35 19.5 18.2 21.45 20.55 M39.0 14.45 Q35.15 18.45 31.2 25.05 37.65 20.8 41.5 16.85 43.2 17.95 44.95 17.9 44.65 16.2 43.4 14.7 45.65 11.85 46.55 9.15 43.85 10.1 41.05 12.5 39.5 11.25 37.8 11.05 37.8 12.8 39.0 14.45 M27.4 36.15 L27.3 36.05 31.9 30.45 32.65 31.4 31.9 30.45 27.3 36.05 27.4 36.15 M35.55 34.6 L37.85 36.5 38.75 37.2 37.85 36.5 35.55 34.6 M19.75 28.45 L20.0 28.75 25.55 24.15 24.65 23.4 25.55 24.15 20.0 28.75 19.75 28.45 M28.05 29.8 Q28.05 30.5 27.55 31.05 L27.1 30.5 26.25 29.9 25.6 29.95 Q25.4 30.15 25.55 30.6 L26.15 31.45 26.4 31.7 26.1 31.7 Q25.35 31.7 24.75 31.15 24.2 30.6 24.2 29.8 24.2 29.0 24.75 28.4 25.35 27.85 26.1 27.85 26.9 27.85 27.45 28.4 28.05 29.0 28.05 29.8 M30.55 29.8 Q30.55 27.95 29.25 26.65 27.95 25.35 26.1 25.35 24.3 25.35 23.0 26.65 21.7 27.95 21.7 29.8 21.7 31.6 23.0 32.9 24.3 34.2 26.1 34.2 27.95 34.2 29.25 32.9 30.55 31.6 30.55 29.8 M10.55 42.4 Q10.6 41.85 10.95 41.5 11.5 40.95 12.5 41.15 L12.55 41.2 Q12.8 42.05 13.6 42.85 14.4 43.65 15.3 43.85 L15.35 44.0 Q15.55 45.0 15.0 45.55 L14.45 45.9 Q15.45 49.2 13.4 52.55 11.95 51.85 11.55 50.15 7.5 53.25 4.2 49.6 5.1 49.05 5.3 47.9 5.55 46.7 6.15 46.1 4.2 45.2 3.7 43.3 7.2 42.0 10.55 42.4" fill="#000000" fill-rule="evenodd" stroke="none"/>
      <path d="M21.95 21.0 L24.65 23.4 25.55 24.15 20.0 28.75 19.75 28.45 Q14.95 22.65 17.1 16.65 17.45 15.9 18.4 16.8 M32.65 31.4 L35.05 34.1 M39.25 37.7 Q40.15 38.6 39.4 38.95 33.3 41.15 27.4 36.15 L27.3 36.05 31.9 30.45 32.65 31.4 M18.85 17.35 L19.5 18.2 21.45 20.55 M38.75 37.2 L37.85 36.5 35.55 34.6 M10.55 42.4 Q10.6 41.85 10.95 41.5 11.5 40.95 12.5 41.15 L12.55 41.2 Q12.8 42.05 13.6 42.85 14.4 43.65 15.3 43.85 L15.35 44.0 Q15.55 45.0 15.0 45.55 L14.45 45.9" fill="none" stroke="#000000" stroke-linecap="round" stroke-linejoin="round" stroke-opacity="0.3019608" stroke-width="0.05"/>
    </g>
  </defs>
</svg>
