<?xml version="1.0" encoding="UTF-8" standalone="no"?>
<svg xmlns:ffdec="https://www.free-decompiler.com/flash" xmlns:xlink="http://www.w3.org/1999/xlink" ffdec:objectType="frame" height="56.0px" width="56.0px" xmlns="http://www.w3.org/2000/svg">
  <g transform="matrix(1.0, 0.0, 0.0, 1.0, 0.0, 0.0)">
    <use ffdec:characterId="2" height="56.0" id="back" transform="matrix(1.0, 0.0, 0.0, 1.0, 0.0, 0.0)" width="56.0" xlink:href="#sprite0"/>
    <use ffdec:characterId="3" height="45.95" transform="matrix(1.0, 0.0, 0.0, 1.0, 5.2, 5.85)" width="46.0" xlink:href="#shape1"/>
  </g>
  <defs>
    <g id="sprite0" transform="matrix(1.0, 0.0, 0.0, 1.0, 0.0, 0.0)">
      <use ffdec:characterId="1" height="56.0" transform="matrix(1.0, 0.0, 0.0, 1.0, 0.0, 0.0)" width="56.0" xlink:href="#shape0"/>
    </g>
    <g id="shape0" transform="matrix(1.0, 0.0, 0.0, 1.0, 0.0, 0.0)">
      <path d="M56.0 56.0 L0.0 56.0 0.0 0.0 56.0 0.0 56.0 56.0" fill="#010101" fill-opacity="0.0" fill-rule="evenodd" stroke="none"/>
    </g>
    <g id="shape1" transform="matrix(1.0, 0.0, 0.0, 1.0, -5.2, -5.85)">
      <path d="M19.75 17.55 L20.35 15.75 21.0 15.2 Q22.9 13.6 25.5 12.35 27.3 12.7 29.75 14.7 L29.8 14.95 29.0 15.45 Q27.15 16.65 25.05 18.6 L25.0 18.65 Q24.15 19.75 23.7 21.3 L21.4 18.85 21.25 18.75 21.1 18.7 19.85 18.85 19.8 18.85 19.35 19.1 19.75 17.55 M30.45 15.5 L31.25 15.15 Q32.75 15.7 34.55 17.7 L34.5 18.75 34.4 19.05 Q32.75 21.85 31.5 23.2 L28.95 24.75 28.65 23.9 28.55 23.7 28.35 23.6 Q26.7 22.7 24.55 22.25 L24.3 22.0 Q24.75 20.25 25.6 19.15 27.65 17.25 29.4 16.05 L30.4 15.5 30.45 15.5 M36.6 33.2 L40.15 31.05 Q39.95 34.0 38.75 36.85 36.95 38.1 35.3 38.75 L35.1 38.95 35.05 39.2 35.7 41.65 35.1 44.9 35.1 45.0 35.1 47.4 Q39.0 45.95 42.15 42.75 47.95 37.0 47.95 28.8 47.95 20.6 42.15 14.8 36.4 9.05 28.2 9.05 20.0 9.05 14.2 14.8 8.45 20.6 8.45 28.8 8.45 37.0 14.2 42.75 17.55 46.1 21.75 47.55 L21.6 37.75 21.55 37.6 21.45 37.45 Q18.55 34.9 17.4 32.85 16.25 30.8 14.4 29.2 15.0 27.55 17.25 24.55 L17.3 24.4 18.1 21.0 19.0 20.25 19.0 20.2 20.1 19.6 20.95 19.5 24.1 22.85 24.3 23.0 Q26.4 23.4 28.0 24.3 L28.05 24.3 28.2 25.3 28.15 25.7 28.15 25.8 28.05 26.05 26.05 26.8 24.5 27.1 23.35 27.0 22.65 26.75 Q20.85 25.5 20.55 24.85 L20.5 24.75 20.55 24.9 Q20.75 25.85 21.9 27.2 L21.05 28.65 19.25 28.85 21.2 29.2 21.4 29.2 21.55 29.05 22.6 27.6 23.15 27.75 23.2 27.75 24.55 27.85 26.25 27.55 28.4 26.75 29.6 28.75 29.65 28.8 Q31.5 30.2 32.95 30.1 L33.75 32.0 33.85 32.15 Q34.7 32.8 36.3 33.2 L36.6 33.2 M36.0 19.55 Q37.3 20.6 38.2 22.45 38.4 23.4 38.15 24.35 L36.75 26.45 35.7 27.85 33.05 29.35 Q31.8 29.45 30.2 28.25 29.1 26.7 28.95 25.8 L28.95 25.6 Q30.2 25.1 31.95 23.8 L32.05 23.75 Q33.35 22.35 35.05 19.4 L35.1 19.35 35.15 19.25 36.0 19.55 M41.15 28.15 L39.65 30.8 36.35 32.45 Q35.1 32.1 34.4 31.6 L33.7 29.85 36.15 28.45 36.25 28.4 37.4 26.85 38.65 24.85 38.85 23.95 Q40.95 25.1 41.15 28.15 M50.4 28.8 Q50.4 38.0 43.9 44.5 37.4 51.0 28.2 51.0 19.0 51.0 12.5 44.5 7.8 39.8 6.5 33.7 6.0 31.35 6.0 28.8 6.0 26.25 6.5 23.9 7.8 17.8 12.5 13.1 19.0 6.65 28.2 6.65 37.4 6.65 43.9 13.1 50.4 19.6 50.4 28.8 M28.55 38.5 L30.7 38.05 28.8 37.7 Q29.65 36.0 30.1 34.15 L29.55 32.35 Q28.95 30.6 27.85 29.5 L27.65 29.3 Q28.5 30.6 29.35 34.05 28.85 35.9 27.95 37.7 L25.1 37.55 27.75 38.4 27.55 48.55 28.2 48.55 28.3 48.55 28.55 38.5" fill="#000000" fill-rule="evenodd" stroke="none"/>
      <path d="M19.75 17.55 L20.35 15.75 21.0 15.2 Q22.9 13.6 25.5 12.35 27.3 12.7 29.75 14.7 L29.8 14.95 29.0 15.45 Q27.15 16.65 25.05 18.6 L25.0 18.65 Q24.15 19.75 23.7 21.3 L21.4 18.85 21.25 18.75 21.1 18.7 19.85 18.85 19.8 18.85 19.35 19.1 19.75 17.55 M30.45 15.5 L31.25 15.15 Q32.75 15.7 34.55 17.7 L34.5 18.75 34.4 19.05 Q32.75 21.85 31.5 23.2 L28.95 24.75 28.65 23.9 28.55 23.7 28.35 23.6 Q26.7 22.7 24.55 22.25 L24.3 22.0 Q24.75 20.25 25.6 19.15 27.65 17.25 29.4 16.05 L30.4 15.5 30.45 15.5 M36.6 33.2 L40.15 31.05 Q39.95 34.0 38.75 36.85 36.95 38.1 35.3 38.75 L35.1 38.95 35.05 39.2 35.7 41.65 35.1 44.9 35.1 45.0 35.1 47.4 Q39.0 45.95 42.15 42.75 47.95 37.0 47.95 28.8 47.95 20.6 42.15 14.8 36.4 9.05 28.2 9.05 20.0 9.05 14.2 14.8 8.45 20.6 8.45 28.8 8.45 37.0 14.2 42.75 17.55 46.1 21.75 47.55 L21.6 37.75 21.55 37.6 21.45 37.45 Q18.55 34.9 17.4 32.85 16.25 30.8 14.4 29.2 15.0 27.55 17.25 24.55 L17.3 24.4 18.1 21.0 19.0 20.25 19.0 20.2 20.1 19.6 20.95 19.5 24.1 22.85 24.3 23.0 Q26.4 23.4 28.0 24.3 L28.05 24.3 28.2 25.3 28.15 25.7 28.15 25.8 28.05 26.05 26.05 26.8 24.5 27.1 23.35 27.0 22.65 26.75 Q20.85 25.5 20.55 24.85 L20.5 24.75 20.55 24.9 Q20.75 25.85 21.9 27.2 L21.05 28.65 19.25 28.85 21.2 29.2 21.4 29.2 21.55 29.05 22.6 27.6 23.15 27.75 23.2 27.75 24.55 27.85 26.25 27.55 28.4 26.75 29.6 28.75 29.65 28.8 Q31.5 30.2 32.95 30.1 L33.75 32.0 33.85 32.15 Q34.7 32.8 36.3 33.2 L36.6 33.2 M36.0 19.55 Q37.3 20.6 38.2 22.45 38.4 23.4 38.15 24.35 L36.75 26.45 35.7 27.85 33.05 29.35 Q31.8 29.45 30.2 28.25 29.1 26.7 28.95 25.8 L28.95 25.6 Q30.2 25.1 31.95 23.8 L32.05 23.75 Q33.35 22.35 35.05 19.4 L35.1 19.35 35.15 19.25 36.0 19.55 M41.15 28.15 L39.65 30.8 36.35 32.45 Q35.1 32.1 34.4 31.6 L33.7 29.85 36.15 28.45 36.25 28.4 37.4 26.85 38.65 24.85 38.85 23.95 Q40.95 25.1 41.15 28.15 M50.4 28.8 Q50.4 38.0 43.9 44.5 37.4 51.0 28.2 51.0 19.0 51.0 12.5 44.5 7.8 39.8 6.5 33.7 6.0 31.35 6.0 28.8 6.0 26.25 6.5 23.9 7.8 17.8 12.5 13.1 19.0 6.65 28.2 6.65 37.4 6.65 43.9 13.1 50.4 19.6 50.4 28.8 M28.55 38.5 L30.7 38.05 28.8 37.7 Q29.65 36.0 30.1 34.15 L29.55 32.35 Q28.95 30.6 27.85 29.5 L27.65 29.3 Q28.5 30.6 29.35 34.05 28.85 35.9 27.95 37.7 L25.1 37.55 27.75 38.4 27.55 48.55 28.2 48.55 28.3 48.55 28.55 38.5 Z" fill="none" stroke="#000000" stroke-linecap="round" stroke-linejoin="round" stroke-opacity="0.2" stroke-width="1.6"/>
      <path d="M30.45 15.5 L31.25 15.15 Q32.75 15.7 34.55 17.7 L34.5 18.75 34.4 19.05 Q32.75 21.85 31.5 23.2 L28.95 24.75 28.65 23.9 28.55 23.7 28.35 23.6 Q26.7 22.7 24.55 22.25 L24.3 22.0 Q24.75 20.25 25.6 19.15 27.65 17.25 29.4 16.05 L30.4 15.5 30.45 15.5 M19.75 17.55 L20.35 15.75 21.0 15.2 Q22.9 13.6 25.5 12.35 27.3 12.7 29.75 14.7 L29.8 14.95 29.0 15.45 Q27.15 16.65 25.05 18.6 L25.0 18.65 Q24.15 19.75 23.7 21.3 L21.4 18.85 21.25 18.75 21.1 18.7 19.85 18.85 19.8 18.85 19.35 19.1 19.75 17.55 M36.6 33.2 L40.15 31.05 Q39.95 34.0 38.75 36.85 36.95 38.1 35.3 38.75 L35.1 38.95 35.05 39.2 35.7 41.65 35.1 44.9 35.1 45.0 35.1 47.4 Q39.0 45.95 42.15 42.75 47.95 37.0 47.95 28.8 47.95 20.6 42.15 14.8 36.4 9.05 28.2 9.05 20.0 9.05 14.2 14.8 8.45 20.6 8.45 28.8 8.45 37.0 14.2 42.75 17.55 46.1 21.75 47.55 L21.6 37.75 21.55 37.6 21.45 37.45 Q18.55 34.9 17.4 32.85 16.25 30.8 14.4 29.2 15.0 27.55 17.25 24.55 L17.3 24.4 18.1 21.0 19.0 20.25 19.0 20.2 20.1 19.6 20.95 19.5 24.1 22.85 24.3 23.0 Q26.4 23.4 28.0 24.3 L28.05 24.3 28.2 25.3 28.15 25.7 28.15 25.8 28.05 26.05 26.05 26.8 24.5 27.1 23.35 27.0 22.65 26.75 Q20.85 25.5 20.55 24.85 L20.5 24.75 20.55 24.9 Q20.75 25.85 21.9 27.2 L21.05 28.65 19.25 28.85 21.2 29.2 21.4 29.2 21.55 29.05 22.6 27.6 23.15 27.75 23.2 27.75 24.55 27.85 26.25 27.55 28.4 26.75 29.6 28.75 29.65 28.8 Q31.5 30.2 32.95 30.1 L33.75 32.0 33.85 32.15 Q34.7 32.8 36.3 33.2 L36.6 33.2 M36.0 19.55 Q37.3 20.6 38.2 22.45 38.4 23.4 38.15 24.35 L36.75 26.45 35.7 27.85 33.05 29.35 Q31.8 29.45 30.2 28.25 29.1 26.7 28.95 25.8 L28.95 25.6 Q30.2 25.1 31.95 23.8 L32.05 23.75 Q33.35 22.35 35.05 19.4 L35.1 19.35 35.15 19.25 36.0 19.55 M41.15 28.15 L39.65 30.8 36.35 32.45 Q35.1 32.1 34.4 31.6 L33.7 29.85 36.15 28.45 36.25 28.4 37.4 26.85 38.65 24.85 38.85 23.95 Q40.95 25.1 41.15 28.15 M50.4 28.8 Q50.4 38.0 43.9 44.5 37.4 51.0 28.2 51.0 19.0 51.0 12.5 44.5 7.8 39.8 6.5 33.7 6.0 31.35 6.0 28.8 6.0 26.25 6.5 23.9 7.8 17.8 12.5 13.1 19.0 6.65 28.2 6.65 37.4 6.65 43.9 13.1 50.4 19.6 50.4 28.8 M28.55 38.5 L30.7 38.05 28.8 37.7 Q29.65 36.0 30.1 34.15 L29.55 32.35 Q28.95 30.6 27.85 29.5 L27.65 29.3 Q28.5 30.6 29.35 34.05 28.85 35.9 27.95 37.7 L25.1 37.55 27.75 38.4 27.55 48.55 28.2 48.55 28.3 48.55 28.55 38.5" fill="#000000" fill-rule="evenodd" stroke="none"/>
    </g>
  </defs>
</svg>
