<?xml version="1.0" encoding="UTF-8" standalone="no"?>
<svg xmlns:ffdec="https://www.free-decompiler.com/flash" xmlns:xlink="http://www.w3.org/1999/xlink" ffdec:objectType="frame" height="56.0px" width="56.0px" xmlns="http://www.w3.org/2000/svg">
  <g transform="matrix(1.0, 0.0, 0.0, 1.0, 0.0, 0.0)">
    <use ffdec:characterId="2" height="56.0" id="back" transform="matrix(1.0, 0.0, 0.0, 1.0, 0.0, 0.0)" width="56.0" xlink:href="#sprite0"/>
    <use ffdec:characterId="3" height="41.9" transform="matrix(1.0, 0.0, 0.0, 1.0, 5.2, 8.55)" width="46.35" xlink:href="#shape1"/>
  </g>
  <defs>
    <g id="sprite0" transform="matrix(1.0, 0.0, 0.0, 1.0, 0.0, 0.0)">
      <use ffdec:characterId="1" height="56.0" transform="matrix(1.0, 0.0, 0.0, 1.0, 0.0, 0.0)" width="56.0" xlink:href="#shape0"/>
    </g>
    <g id="shape0" transform="matrix(1.0, 0.0, 0.0, 1.0, 0.0, 0.0)">
      <path d="M56.0 56.0 L0.0 56.0 0.0 0.0 56.0 0.0 56.0 56.0" fill="#010101" fill-opacity="0.0" fill-rule="evenodd" stroke="none"/>
    </g>
    <g id="shape1" transform="matrix(1.0, 0.0, 0.0, 1.0, -5.2, -8.55)">
      <path d="M25.55 23.3 L27.05 24.35 17.6 31.0 16.95 30.6 Q15.45 31.2 13.95 31.2 12.15 30.45 10.0 28.3 8.45 27.55 6.75 26.75 L6.0 24.2 Q6.45 23.1 7.0 22.45 6.65 20.75 6.6 19.3 7.3 18.0 8.15 17.15 L8.2 14.2 Q9.0 13.2 10.0 12.8 10.35 10.75 10.8 10.25 L13.65 9.4 17.45 11.45 19.85 13.4 18.2 11.05 Q19.3 10.5 19.95 10.45 23.15 11.8 25.05 14.25 L25.05 17.75 25.55 20.9 25.55 23.3 M16.5 33.05 L27.95 25.4 27.9 25.4 31.2 23.25 31.2 20.85 31.7 17.65 31.7 14.2 Q33.6 11.75 36.85 10.4 37.45 10.45 38.55 11.0 L36.7 13.65 39.35 11.4 43.1 9.35 45.95 10.15 Q46.35 10.65 46.75 12.75 47.75 13.15 48.55 14.15 L48.6 17.1 Q49.45 17.95 50.15 19.25 L49.75 22.4 50.75 24.1 50.05 26.7 46.75 28.25 Q44.6 30.4 42.8 31.1 L39.8 30.55 39.05 31.25 Q33.7 36.05 29.0 41.15 L28.95 41.2 24.7 46.35 Q20.25 50.75 14.15 49.25 12.15 48.8 10.7 45.95 9.7 38.8 16.5 33.05 M40.2 33.05 Q47.0 38.8 46.0 45.95 44.55 48.8 42.55 49.25 36.45 50.75 32.0 46.35 L29.2 42.95 39.35 32.55 40.2 33.05" fill="#000000" fill-rule="evenodd" stroke="none"/>
      <path d="M16.5 33.05 Q9.7 38.8 10.7 45.95 12.15 48.8 14.15 49.25 20.25 50.75 24.7 46.35 L28.95 41.2 29.0 41.15 Q33.7 36.05 39.05 31.25 L39.8 30.55 42.8 31.1 Q44.6 30.4 46.75 28.25 L50.05 26.7 50.75 24.1 49.75 22.4 50.15 19.25 Q49.45 17.95 48.6 17.1 L48.55 14.15 Q47.75 13.15 46.75 12.75 46.35 10.65 45.95 10.15 L43.1 9.35 39.35 11.4 36.7 13.65 38.55 11.0 Q37.45 10.45 36.85 10.4 33.6 11.75 31.7 14.2 L31.7 17.65 31.2 20.85 31.2 23.25 27.9 25.4 27.95 25.4 16.5 33.05 M25.55 23.3 L25.55 20.9 25.05 17.75 25.05 14.25 Q23.15 11.8 19.95 10.45 19.3 10.5 18.2 11.05 L19.85 13.4 17.45 11.45 13.65 9.4 10.8 10.25 Q10.35 10.75 10.0 12.8 9.0 13.2 8.2 14.2 L8.15 17.15 Q7.3 18.0 6.6 19.3 6.65 20.75 7.0 22.45 6.45 23.1 6.0 24.2 L6.75 26.75 Q8.45 27.55 10.0 28.3 12.15 30.45 13.95 31.2 15.45 31.2 16.95 30.6 L17.6 31.0 27.05 24.35 25.55 23.3 M40.2 33.05 Q47.0 38.8 46.0 45.95 44.55 48.8 42.55 49.25 36.45 50.75 32.0 46.35 L29.2 42.95 39.35 32.55 40.2 33.05 Z" fill="none" stroke="#000000" stroke-linecap="round" stroke-linejoin="round" stroke-opacity="0.2" stroke-width="1.6"/>
      <path d="M25.55 23.3 L27.05 24.35 17.6 31.0 16.95 30.6 Q15.45 31.2 13.95 31.2 12.15 30.45 10.0 28.3 8.45 27.55 6.75 26.75 L6.0 24.2 Q6.45 23.1 7.0 22.45 6.65 20.75 6.6 19.3 7.3 18.0 8.15 17.15 L8.2 14.2 Q9.0 13.2 10.0 12.8 10.35 10.75 10.8 10.25 L13.65 9.4 17.45 11.45 19.85 13.4 18.2 11.05 Q19.3 10.5 19.95 10.45 23.15 11.8 25.05 14.25 L25.05 17.75 25.55 20.9 25.55 23.3 M16.5 33.05 L27.95 25.4 27.9 25.4 31.2 23.25 31.2 20.85 31.7 17.65 31.7 14.2 Q33.6 11.75 36.85 10.4 37.45 10.45 38.55 11.0 L36.7 13.65 39.35 11.4 43.1 9.35 45.95 10.15 Q46.35 10.65 46.75 12.75 47.75 13.15 48.55 14.15 L48.6 17.1 Q49.45 17.95 50.15 19.25 L49.75 22.4 50.75 24.1 50.05 26.7 46.75 28.25 Q44.6 30.4 42.8 31.1 L39.8 30.55 39.05 31.25 Q33.7 36.05 29.0 41.15 L28.95 41.2 24.7 46.35 Q20.25 50.75 14.15 49.25 12.15 48.8 10.7 45.95 9.7 38.8 16.5 33.05 M40.2 33.05 Q47.0 38.8 46.0 45.95 44.55 48.8 42.55 49.25 36.45 50.75 32.0 46.35 L29.2 42.95 39.35 32.55 40.2 33.05" fill="#000000" fill-rule="evenodd" stroke="none"/>
    </g>
  </defs>
</svg>
