<?xml version="1.0" encoding="UTF-8" standalone="no"?>
<svg xmlns:ffdec="https://www.free-decompiler.com/flash" xmlns:xlink="http://www.w3.org/1999/xlink" ffdec:objectType="frame" height="56.0px" width="56.0px" xmlns="http://www.w3.org/2000/svg">
  <g transform="matrix(1.0, 0.0, 0.0, 1.0, 0.0, 0.0)">
    <use ffdec:characterId="2" height="56.0" id="back" transform="matrix(1.0, 0.0, 0.0, 1.0, 0.0, 0.0)" width="56.0" xlink:href="#sprite0"/>
    <use ffdec:characterId="3" height="45.85" transform="matrix(1.0, 0.0, 0.0, 1.0, 6.65, 6.6)" width="43.8" xlink:href="#shape1"/>
  </g>
  <defs>
    <g id="sprite0" transform="matrix(1.0, 0.0, 0.0, 1.0, 0.0, 0.0)">
      <use ffdec:characterId="1" height="56.0" transform="matrix(1.0, 0.0, 0.0, 1.0, 0.0, 0.0)" width="56.0" xlink:href="#shape0"/>
    </g>
    <g id="shape0" transform="matrix(1.0, 0.0, 0.0, 1.0, 0.0, 0.0)">
      <path d="M56.0 56.0 L0.0 56.0 0.0 0.0 56.0 0.0 56.0 56.0" fill="#010101" fill-opacity="0.0" fill-rule="evenodd" stroke="none"/>
    </g>
    <g id="shape1" transform="matrix(1.0, 0.0, 0.0, 1.0, -6.65, -6.6)">
      <path d="M15.7 14.7 L16.5 14.85 17.35 14.25 17.85 13.45 17.85 13.5 Q18.05 12.95 17.75 12.65 L16.9 12.55 16.1 13.05 15.6 13.9 15.6 13.95 Q15.4 14.45 15.7 14.7 M16.05 19.0 L16.9 19.15 17.7 18.55 18.25 17.75 18.25 17.8 Q18.45 17.25 18.15 16.95 L17.3 16.85 16.5 17.35 15.95 18.2 15.95 18.25 Q15.8 18.75 16.05 19.0 M9.1 46.8 Q7.85 43.7 9.0 40.7 L9.5 41.15 9.75 41.35 10.3 41.75 11.85 42.7 11.9 42.7 Q18.95 46.6 29.05 46.6 39.15 46.6 46.25 42.7 L47.8 41.75 47.85 41.7 Q47.9 41.65 48.05 41.55 L48.3 41.25 48.35 41.2 Q49.1 43.85 48.1 46.8 L47.95 47.0 46.3 47.9 Q39.0 51.65 28.6 51.65 18.2 51.65 10.9 47.9 L9.25 47.0 9.1 46.8 M11.0 33.75 L10.9 33.65 Q9.45 34.55 8.3 35.8 L9.45 36.0 14.65 37.45 28.15 42.1 28.1 42.05 Q28.9 42.4 30.35 41.6 31.75 40.85 35.75 39.4 L48.1 34.9 48.15 34.9 46.75 33.95 45.55 34.65 Q38.7 38.45 29.0 38.45 19.3 38.45 12.5 34.65 L11.0 33.75 M37.35 30.95 Q42.05 29.15 45.1 28.25 L48.1 27.35 46.7 26.45 46.55 26.5 45.65 26.9 45.35 27.05 Q41.9 28.55 37.8 29.3 L28.75 30.05 26.1 30.0 23.5 29.8 20.15 29.35 Q14.9 28.45 10.65 26.3 L8.6 27.95 9.5 28.2 14.8 29.75 Q19.05 31.05 28.15 34.6 L28.1 34.55 Q28.9 34.9 30.8 33.85 32.7 32.75 37.35 30.95 M7.55 27.8 L9.75 25.85 9.4 25.65 8.9 25.4 8.85 24.35 Q8.85 17.35 14.65 12.4 16.4 10.9 18.4 9.9 L18.95 10.0 19.95 9.7 20.65 9.05 20.8 8.8 Q22.6 8.1 24.55 7.75 L25.0 8.2 26.0 8.4 26.95 8.2 Q27.45 7.95 27.45 7.5 L27.45 7.45 28.75 7.4 Q32.55 7.4 35.85 8.45 L36.05 8.75 36.1 8.75 36.95 9.2 38.0 9.25 38.1 9.3 Q40.65 10.45 42.9 12.4 L43.35 12.75 Q43.15 13.05 43.35 13.5 L43.35 13.45 43.85 14.25 44.65 14.85 45.35 14.85 Q48.7 19.0 48.7 24.35 L48.65 25.4 47.65 25.95 49.4 27.2 49.65 27.75 49.2 28.3 48.3 28.35 48.65 30.05 Q48.85 31.95 47.5 33.35 L49.4 34.7 49.65 35.25 49.2 35.8 48.35 36.2 48.65 37.55 Q48.8 39.05 47.95 40.25 L47.1 41.2 47.05 41.25 45.55 42.2 Q38.7 45.95 29.0 45.95 19.3 45.95 12.5 42.2 L11.0 41.25 9.55 40.05 Q8.55 38.9 8.95 37.45 L9.05 36.6 Q7.25 36.05 7.45 35.4 L7.55 35.3 Q8.75 34.05 10.1 33.1 8.5 31.7 8.95 29.95 L9.05 29.05 Q7.25 28.5 7.45 27.9 L7.55 27.8 M33.85 11.85 L34.6 11.6 Q34.8 11.3 34.5 10.75 L34.45 10.75 33.75 10.1 Q33.3 9.8 32.85 9.8 32.2 9.75 32.1 10.1 L32.05 10.1 Q31.85 10.45 32.2 10.95 L32.9 11.6 33.85 11.85 M36.25 15.85 Q36.85 15.95 37.0 15.55 37.25 15.3 36.9 14.75 L36.15 14.1 Q35.7 13.8 35.25 13.8 34.65 13.75 34.5 14.05 L34.45 14.1 Q34.3 14.45 34.6 14.9 L35.3 15.55 36.25 15.85 M23.95 15.15 Q24.15 15.5 24.65 15.45 L25.65 15.15 26.35 14.5 Q26.7 14.0 26.45 13.65 26.25 13.3 25.7 13.35 L24.75 13.7 24.0 14.3 24.0 14.35 Q23.7 14.85 23.95 15.15 M27.8 18.55 L28.05 18.7 28.4 18.7 28.6 18.7 29.4 18.1 29.95 17.3 Q30.15 16.75 29.85 16.45 L29.0 16.4 Q28.6 16.5 28.2 16.9 L27.65 17.7 27.65 17.75 Q27.5 18.3 27.8 18.55 M43.65 20.8 L43.7 20.8 Q44.25 20.9 44.45 20.5 44.65 20.2 44.35 19.7 L44.3 19.7 43.6 19.05 42.65 18.7 Q42.1 18.7 41.9 19.0 L41.9 19.05 Q41.7 19.4 42.05 19.85 L42.7 20.5 43.65 20.8" fill="#000000" fill-rule="evenodd" stroke="none"/>
      <path d="M15.7 14.7 L16.5 14.85 17.35 14.25 17.85 13.45 17.85 13.5 Q18.05 12.95 17.75 12.65 L16.9 12.55 16.1 13.05 15.6 13.9 15.6 13.95 Q15.4 14.45 15.7 14.7 M16.05 19.0 L16.9 19.15 17.7 18.55 18.25 17.75 18.25 17.8 Q18.45 17.25 18.15 16.95 L17.3 16.85 16.5 17.35 15.95 18.2 15.95 18.25 Q15.8 18.75 16.05 19.0 M7.55 27.8 L7.45 27.9 Q7.25 28.5 9.05 29.05 L8.95 29.95 Q8.5 31.7 10.1 33.1 8.75 34.05 7.55 35.3 L7.45 35.4 Q7.25 36.05 9.05 36.6 L8.95 37.45 Q8.55 38.9 9.55 40.05 L11.0 41.25 12.5 42.2 Q19.3 45.95 29.0 45.95 38.7 45.95 45.55 42.2 L47.05 41.25 47.1 41.2 47.95 40.25 Q48.8 39.05 48.65 37.55 L48.35 36.2 49.2 35.8 49.65 35.25 49.4 34.7 47.5 33.35 Q48.85 31.95 48.65 30.05 L48.3 28.35 49.2 28.3 49.65 27.75 49.4 27.2 47.65 25.95 48.65 25.4 48.7 24.35 Q48.7 19.0 45.35 14.85 L44.65 14.85 43.85 14.25 43.35 13.45 43.35 13.5 Q43.15 13.05 43.35 12.75 L42.9 12.4 Q40.65 10.45 38.1 9.3 L38.0 9.25 36.95 9.2 36.1 8.75 36.05 8.75 35.85 8.45 Q32.55 7.4 28.75 7.4 L27.45 7.45 27.45 7.5 Q27.45 7.95 26.95 8.2 L26.0 8.4 25.0 8.2 24.55 7.75 Q22.6 8.1 20.8 8.8 L20.65 9.05 19.95 9.7 18.95 10.0 18.4 9.9 Q16.4 10.9 14.65 12.4 8.85 17.35 8.85 24.35 L8.9 25.4 9.4 25.65 9.75 25.85 7.55 27.8 M37.35 30.95 Q32.7 32.75 30.8 33.85 28.9 34.9 28.1 34.55 L28.15 34.6 Q19.05 31.05 14.8 29.75 L9.5 28.2 8.6 27.95 10.65 26.3 Q14.9 28.45 20.15 29.35 L23.5 29.8 26.1 30.0 28.75 30.05 37.8 29.3 Q41.9 28.55 45.35 27.05 L45.65 26.9 46.55 26.5 46.7 26.45 48.1 27.35 45.1 28.25 Q42.05 29.15 37.35 30.95 M11.0 33.75 L12.5 34.65 Q19.3 38.45 29.0 38.45 38.7 38.45 45.55 34.65 L46.75 33.95 48.15 34.9 48.1 34.9 35.75 39.4 Q31.75 40.85 30.35 41.6 28.9 42.4 28.1 42.05 L28.15 42.1 14.65 37.45 9.45 36.0 8.3 35.8 Q9.45 34.55 10.9 33.65 L11.0 33.75 M9.1 46.8 L9.25 47.0 10.9 47.9 Q18.2 51.65 28.6 51.65 39.0 51.65 46.3 47.9 L47.95 47.0 48.1 46.8 Q49.1 43.85 48.35 41.2 L48.3 41.25 48.05 41.55 Q47.9 41.65 47.85 41.7 L47.8 41.75 46.25 42.7 Q39.15 46.6 29.05 46.6 18.95 46.6 11.9 42.7 L11.85 42.7 10.3 41.75 9.75 41.35 9.5 41.15 9.0 40.7 Q7.85 43.7 9.1 46.8 M33.85 11.85 L34.6 11.6 Q34.8 11.3 34.5 10.75 L34.45 10.75 33.75 10.1 Q33.3 9.8 32.85 9.8 32.2 9.75 32.1 10.1 L32.05 10.1 Q31.85 10.45 32.2 10.95 L32.9 11.6 33.85 11.85 M36.25 15.85 Q36.85 15.95 37.0 15.55 37.25 15.3 36.9 14.75 L36.15 14.1 Q35.7 13.8 35.25 13.8 34.65 13.75 34.5 14.05 L34.45 14.1 Q34.3 14.45 34.6 14.9 L35.3 15.55 36.25 15.85 M23.95 15.15 Q24.15 15.5 24.65 15.45 L25.65 15.15 26.35 14.5 Q26.7 14.0 26.45 13.65 26.25 13.3 25.7 13.35 L24.75 13.7 24.0 14.3 24.0 14.35 Q23.7 14.85 23.95 15.15 M27.8 18.55 L28.05 18.7 28.4 18.7 28.6 18.7 29.4 18.1 29.95 17.3 Q30.15 16.75 29.85 16.45 L29.0 16.4 Q28.6 16.5 28.2 16.9 L27.65 17.7 27.65 17.75 Q27.5 18.3 27.8 18.55 M43.65 20.8 L43.7 20.8 Q44.25 20.9 44.45 20.5 44.65 20.2 44.35 19.7 L44.3 19.7 43.6 19.05 42.65 18.7 Q42.1 18.7 41.9 19.0 L41.9 19.05 Q41.7 19.4 42.05 19.85 L42.7 20.5 43.65 20.8 Z" fill="none" stroke="#000000" stroke-linecap="round" stroke-linejoin="round" stroke-opacity="0.2" stroke-width="1.6"/>
      <path d="M15.7 14.7 L16.5 14.85 17.35 14.25 17.85 13.45 17.85 13.5 Q18.05 12.95 17.75 12.65 L16.9 12.55 16.1 13.05 15.6 13.9 15.6 13.95 Q15.4 14.45 15.7 14.7 M16.05 19.0 L16.9 19.15 17.7 18.55 18.25 17.75 18.25 17.8 Q18.45 17.25 18.15 16.95 L17.3 16.85 16.5 17.35 15.95 18.2 15.95 18.25 Q15.8 18.75 16.05 19.0 M9.1 46.8 Q7.85 43.7 9.0 40.7 L9.5 41.15 9.75 41.35 10.3 41.75 11.85 42.7 11.9 42.7 Q18.95 46.6 29.05 46.6 39.15 46.6 46.25 42.7 L47.8 41.75 47.85 41.7 Q47.9 41.65 48.05 41.55 L48.3 41.25 48.35 41.2 Q49.1 43.85 48.1 46.8 L47.95 47.0 46.3 47.9 Q39.0 51.65 28.6 51.65 18.2 51.65 10.9 47.9 L9.25 47.0 9.1 46.8 M11.0 33.75 L10.9 33.65 Q9.45 34.55 8.3 35.8 L9.45 36.0 14.65 37.45 28.15 42.1 28.1 42.05 Q28.9 42.4 30.35 41.6 31.75 40.85 35.75 39.4 L48.1 34.9 48.15 34.9 46.75 33.95 45.55 34.65 Q38.7 38.45 29.0 38.45 19.3 38.45 12.5 34.65 L11.0 33.75 M37.35 30.95 Q42.05 29.15 45.1 28.25 L48.1 27.35 46.7 26.45 46.55 26.5 45.65 26.9 45.35 27.05 Q41.9 28.55 37.8 29.3 L28.75 30.05 26.1 30.0 23.5 29.8 20.15 29.35 Q14.9 28.45 10.65 26.3 L8.6 27.95 9.5 28.2 14.8 29.75 Q19.05 31.05 28.15 34.6 L28.1 34.55 Q28.9 34.9 30.8 33.85 32.7 32.75 37.35 30.95 M7.55 27.8 L9.75 25.85 9.4 25.65 8.9 25.4 8.85 24.35 Q8.85 17.35 14.65 12.4 16.4 10.9 18.4 9.9 L18.95 10.0 19.95 9.7 20.65 9.05 20.8 8.8 Q22.6 8.1 24.55 7.75 L25.0 8.2 26.0 8.4 26.95 8.2 Q27.45 7.95 27.45 7.5 L27.45 7.45 28.75 7.4 Q32.55 7.4 35.85 8.45 L36.05 8.75 36.1 8.75 36.95 9.2 38.0 9.25 38.1 9.3 Q40.65 10.45 42.9 12.4 L43.35 12.75 Q43.15 13.05 43.35 13.5 L43.35 13.45 43.85 14.25 44.65 14.85 45.35 14.85 Q48.7 19.0 48.7 24.35 L48.65 25.4 47.65 25.95 49.4 27.2 49.65 27.75 49.2 28.3 48.3 28.35 48.65 30.05 Q48.85 31.95 47.5 33.35 L49.4 34.7 49.65 35.25 49.2 35.8 48.35 36.2 48.65 37.55 Q48.8 39.05 47.95 40.25 L47.1 41.2 47.05 41.25 45.55 42.2 Q38.7 45.95 29.0 45.95 19.3 45.95 12.5 42.2 L11.0 41.25 9.55 40.05 Q8.55 38.9 8.95 37.45 L9.05 36.6 Q7.25 36.05 7.45 35.4 L7.55 35.3 Q8.75 34.05 10.1 33.1 8.5 31.7 8.95 29.95 L9.05 29.05 Q7.25 28.5 7.45 27.9 L7.55 27.8 M33.85 11.85 L34.6 11.6 Q34.8 11.3 34.5 10.75 L34.45 10.75 33.75 10.1 Q33.3 9.8 32.85 9.8 32.2 9.75 32.1 10.1 L32.05 10.1 Q31.85 10.45 32.2 10.95 L32.9 11.6 33.85 11.85 M36.25 15.85 Q36.85 15.95 37.0 15.55 37.25 15.3 36.9 14.75 L36.15 14.1 Q35.7 13.8 35.25 13.8 34.65 13.75 34.5 14.05 L34.45 14.1 Q34.3 14.45 34.6 14.9 L35.3 15.55 36.25 15.85 M23.95 15.15 Q24.15 15.5 24.65 15.45 L25.65 15.15 26.35 14.5 Q26.7 14.0 26.45 13.65 26.25 13.3 25.7 13.35 L24.75 13.7 24.0 14.3 24.0 14.35 Q23.7 14.85 23.95 15.15 M27.8 18.55 L28.05 18.7 28.4 18.7 28.6 18.7 29.4 18.1 29.95 17.3 Q30.15 16.75 29.85 16.45 L29.0 16.4 Q28.6 16.5 28.2 16.9 L27.65 17.7 27.65 17.75 Q27.5 18.3 27.8 18.55 M43.65 20.8 L43.7 20.8 Q44.25 20.9 44.45 20.5 44.65 20.2 44.35 19.7 L44.3 19.7 43.6 19.05 42.65 18.7 Q42.1 18.7 41.9 19.0 L41.9 19.05 Q41.7 19.4 42.05 19.85 L42.7 20.5 43.65 20.8" fill="#000000" fill-rule="evenodd" stroke="none"/>
    </g>
  </defs>
</svg>
