<?xml version="1.0" encoding="UTF-8" standalone="no"?>
<svg xmlns:ffdec="https://www.free-decompiler.com/flash" xmlns:xlink="http://www.w3.org/1999/xlink" ffdec:objectType="frame" height="56.0px" width="56.0px" xmlns="http://www.w3.org/2000/svg">
  <g transform="matrix(1.0, 0.0, 0.0, 1.0, 0.0, 0.0)">
    <use ffdec:characterId="2" height="56.0" id="back" transform="matrix(1.0, 0.0, 0.0, 1.0, 0.0, 0.0)" width="56.0" xlink:href="#sprite0"/>
    <use ffdec:characterId="3" height="51.25" transform="matrix(1.0, 0.0, 0.0, 1.0, 13.15, 2.05)" width="31.6" xlink:href="#shape1"/>
  </g>
  <defs>
    <g id="sprite0" transform="matrix(1.0, 0.0, 0.0, 1.0, 0.0, 0.0)">
      <use ffdec:characterId="1" height="56.0" transform="matrix(1.0, 0.0, 0.0, 1.0, 0.0, 0.0)" width="56.0" xlink:href="#shape0"/>
    </g>
    <g id="shape0" transform="matrix(1.0, 0.0, 0.0, 1.0, 0.0, 0.0)">
      <path d="M56.0 56.0 L0.0 56.0 0.0 0.0 56.0 0.0 56.0 56.0" fill="#010101" fill-opacity="0.0" fill-rule="evenodd" stroke="none"/>
    </g>
    <g id="shape1" transform="matrix(1.0, 0.0, 0.0, 1.0, -13.15, -2.05)">
      <path d="M42.7 21.2 Q43.7 22.55 43.9 23.6 44.4 26.35 38.75 27.6 L36.25 28.0 28.1 28.65 26.55 28.65 18.7 27.9 15.4 27.25 14.45 26.5 14.35 26.4 Q12.9 23.1 17.05 21.1 26.6 24.15 36.1 20.4 38.3 19.65 39.2 18.4 40.95 18.95 42.7 21.2 M16.8 17.75 Q16.95 16.35 18.25 15.15 L20.55 12.85 Q25.7 14.65 34.7 11.1 36.7 11.55 38.05 13.3 39.45 15.0 39.0 17.3 38.6 19.6 31.95 21.1 25.3 22.55 18.0 20.6 16.6 19.15 16.8 17.75 M21.2 12.5 Q20.1 10.95 20.8 9.45 21.1 8.95 21.7 8.55 L27.15 4.55 27.15 4.5 27.1 4.15 26.95 3.6 26.75 3.1 26.6 2.85 Q30.4 3.45 33.45 6.0 34.65 7.0 34.95 8.45 35.25 9.95 32.55 11.2 25.65 13.7 21.2 12.5 M40.85 28.3 Q38.0 38.35 29.6 52.5 L29.2 52.5 Q21.3 39.0 18.3 28.9 30.35 31.3 40.85 28.3" fill="#000000" fill-rule="evenodd" stroke="none"/>
      <path d="M42.7 21.2 Q43.7 22.55 43.9 23.6 44.4 26.35 38.75 27.6 L36.25 28.0 28.1 28.65 26.55 28.65 18.7 27.9 15.4 27.25 14.45 26.5 14.35 26.4 Q12.9 23.1 17.05 21.1 26.6 24.15 36.1 20.4 38.3 19.65 39.2 18.4 40.95 18.95 42.7 21.2 M16.8 17.75 Q16.95 16.35 18.25 15.15 L20.55 12.85 Q25.7 14.65 34.7 11.1 36.7 11.55 38.05 13.3 39.45 15.0 39.0 17.3 38.6 19.6 31.95 21.1 25.3 22.55 18.0 20.6 16.6 19.15 16.8 17.75 M21.2 12.5 Q20.1 10.95 20.8 9.45 21.1 8.95 21.7 8.55 L27.15 4.55 27.15 4.5 27.1 4.15 26.95 3.6 26.75 3.1 26.6 2.85 Q30.4 3.45 33.45 6.0 34.65 7.0 34.95 8.45 35.25 9.95 32.55 11.2 25.65 13.7 21.2 12.5 M40.85 28.3 Q38.0 38.35 29.6 52.5 L29.2 52.5 Q21.3 39.0 18.3 28.9 30.35 31.3 40.85 28.3 Z" fill="none" stroke="#000000" stroke-linecap="round" stroke-linejoin="round" stroke-opacity="0.2" stroke-width="1.6"/>
      <path d="M42.7 21.2 Q43.7 22.55 43.9 23.6 44.4 26.35 38.75 27.6 L36.25 28.0 28.1 28.65 26.55 28.65 18.7 27.9 15.4 27.25 14.45 26.5 14.35 26.4 Q12.9 23.1 17.05 21.1 26.6 24.15 36.1 20.4 38.3 19.65 39.2 18.4 40.95 18.95 42.7 21.2 M16.8 17.75 Q16.95 16.35 18.25 15.15 L20.55 12.85 Q25.7 14.65 34.7 11.1 36.7 11.55 38.05 13.3 39.45 15.0 39.0 17.3 38.6 19.6 31.95 21.1 25.3 22.55 18.0 20.6 16.6 19.15 16.8 17.75 M21.2 12.5 Q20.1 10.95 20.8 9.45 21.1 8.95 21.7 8.55 L27.15 4.55 27.15 4.5 27.1 4.15 26.95 3.6 26.75 3.1 26.6 2.85 Q30.4 3.45 33.45 6.0 34.65 7.0 34.95 8.45 35.25 9.95 32.55 11.2 25.65 13.7 21.2 12.5 M40.85 28.3 Q38.0 38.35 29.6 52.5 L29.2 52.5 Q21.3 39.0 18.3 28.9 30.35 31.3 40.85 28.3" fill="#000000" fill-rule="evenodd" stroke="none"/>
    </g>
  </defs>
</svg>
