<?xml version="1.0" encoding="UTF-8" standalone="no"?>
<svg xmlns:ffdec="https://www.free-decompiler.com/flash" xmlns:xlink="http://www.w3.org/1999/xlink" ffdec:objectType="frame" height="56.0px" width="56.0px" xmlns="http://www.w3.org/2000/svg">
  <g transform="matrix(1.0, 0.0, 0.0, 1.0, 0.0, 0.0)">
    <use ffdec:characterId="2" height="56.0" id="back" transform="matrix(1.0, 0.0, 0.0, 1.0, 0.0, 0.0)" width="56.0" xlink:href="#sprite0"/>
    <use ffdec:characterId="3" height="46.05" transform="matrix(1.0, 0.0, 0.0, 1.0, 6.0, 4.65)" width="44.2" xlink:href="#shape1"/>
  </g>
  <defs>
    <g id="sprite0" transform="matrix(1.0, 0.0, 0.0, 1.0, 0.0, 0.0)">
      <use ffdec:characterId="1" height="56.0" transform="matrix(1.0, 0.0, 0.0, 1.0, 0.0, 0.0)" width="56.0" xlink:href="#shape0"/>
    </g>
    <g id="shape0" transform="matrix(1.0, 0.0, 0.0, 1.0, 0.0, 0.0)">
      <path d="M56.0 56.0 L0.0 56.0 0.0 0.0 56.0 0.0 56.0 56.0" fill="#010101" fill-opacity="0.0" fill-rule="evenodd" stroke="none"/>
    </g>
    <g id="shape1" transform="matrix(1.0, 0.0, 0.0, 1.0, -6.0, -4.65)">
      <path d="M26.55 47.95 Q23.5 49.75 22.05 49.75 15.0 50.5 10.6 47.4 8.5 45.95 7.6 43.6 5.7 38.5 8.25 34.0 10.8 29.55 14.95 26.0 L15.35 25.65 23.9 19.4 26.1 17.55 34.15 9.8 35.05 8.85 Q39.7 3.85 41.25 6.2 45.2 9.95 41.5 19.4 47.35 17.25 49.1 20.4 50.75 23.6 43.1 31.35 49.0 31.35 47.8 36.3 46.65 41.25 38.8 42.4 42.45 50.55 33.0 49.65 28.85 49.3 26.55 47.95 M23.35 34.25 Q23.8 30.9 26.2 29.9 29.05 28.65 31.65 31.15 34.65 33.95 32.95 39.2 31.5 43.9 27.95 46.8 32.7 47.9 35.2 46.8 37.65 45.65 34.75 40.95 36.55 41.15 39.7 39.8 42.85 38.45 44.05 35.75 45.3 32.95 37.6 32.9 41.85 29.2 43.45 26.2 45.0 23.15 42.95 22.5 40.95 21.8 35.1 24.4 39.2 17.4 39.65 14.25 40.1 11.1 37.35 11.6 L32.95 15.9 Q29.6 19.1 24.5 22.15 22.45 23.35 18.55 26.2 14.75 29.0 13.2 30.8 11.75 32.5 10.5 35.5 9.2 38.4 9.95 42.25 10.75 46.05 17.4 47.15 24.15 48.15 28.0 43.9 L30.2 40.75 30.85 39.2 Q31.3 37.95 31.25 36.4 31.1 33.3 28.85 32.15 26.45 30.9 24.6 32.5 23.8 33.3 23.35 34.25" fill="#000000" fill-rule="evenodd" stroke="none"/>
      <path d="M26.55 47.95 Q23.5 49.75 22.05 49.75 15.0 50.5 10.6 47.4 8.5 45.95 7.6 43.6 5.7 38.5 8.25 34.0 10.8 29.55 14.95 26.0 L15.35 25.65 23.9 19.4 26.1 17.55 34.15 9.8 35.05 8.85 Q39.7 3.85 41.25 6.2 45.2 9.95 41.5 19.4 47.35 17.25 49.1 20.4 50.75 23.6 43.1 31.35 49.0 31.35 47.8 36.3 46.65 41.25 38.8 42.4 42.45 50.55 33.0 49.65 28.85 49.3 26.55 47.95 M23.35 34.25 Q23.8 33.3 24.6 32.5 26.45 30.9 28.85 32.15 31.1 33.3 31.25 36.4 31.3 37.95 30.85 39.2 L30.2 40.75 28.0 43.9 Q24.15 48.15 17.4 47.15 10.75 46.05 9.95 42.25 9.2 38.4 10.5 35.5 11.75 32.5 13.2 30.8 14.75 29.0 18.55 26.2 22.45 23.35 24.5 22.15 29.6 19.1 32.95 15.9 L37.35 11.6 Q40.1 11.1 39.65 14.25 39.2 17.4 35.1 24.4 40.95 21.8 42.95 22.5 45.0 23.15 43.45 26.2 41.85 29.2 37.6 32.9 45.3 32.95 44.05 35.75 42.85 38.45 39.7 39.8 36.55 41.15 34.75 40.95 37.65 45.65 35.2 46.8 32.7 47.9 27.95 46.8 31.5 43.9 32.95 39.2 34.65 33.95 31.65 31.15 29.05 28.65 26.2 29.9 23.8 30.9 23.35 34.25 Z" fill="none" stroke="#000000" stroke-linecap="round" stroke-linejoin="round" stroke-opacity="0.2" stroke-width="1.6"/>
      <path d="M26.55 47.95 Q23.5 49.75 22.05 49.75 15.0 50.5 10.6 47.4 8.5 45.95 7.6 43.6 5.7 38.5 8.25 34.0 10.8 29.55 14.95 26.0 L15.35 25.65 23.9 19.4 26.1 17.55 34.15 9.8 35.05 8.85 Q39.7 3.85 41.25 6.2 45.2 9.95 41.5 19.4 47.35 17.25 49.1 20.4 50.75 23.6 43.1 31.35 49.0 31.35 47.8 36.3 46.65 41.25 38.8 42.4 42.45 50.55 33.0 49.65 28.85 49.3 26.55 47.95 M23.35 34.25 Q23.8 30.9 26.2 29.9 29.05 28.65 31.65 31.15 34.65 33.95 32.95 39.2 31.5 43.9 27.95 46.8 32.7 47.9 35.2 46.8 37.65 45.65 34.75 40.95 36.55 41.15 39.7 39.8 42.85 38.45 44.05 35.75 45.3 32.95 37.6 32.9 41.85 29.2 43.45 26.2 45.0 23.15 42.95 22.5 40.95 21.8 35.1 24.4 39.2 17.4 39.65 14.25 40.1 11.1 37.35 11.6 L32.95 15.9 Q29.6 19.1 24.5 22.15 22.45 23.35 18.55 26.2 14.75 29.0 13.2 30.8 11.75 32.5 10.5 35.5 9.2 38.4 9.95 42.25 10.75 46.05 17.4 47.15 24.15 48.15 28.0 43.9 L30.2 40.75 30.85 39.2 Q31.3 37.95 31.25 36.4 31.1 33.3 28.85 32.15 26.45 30.9 24.6 32.5 23.8 33.3 23.35 34.25" fill="#000000" fill-rule="evenodd" stroke="none"/>
    </g>
  </defs>
</svg>
