<?xml version="1.0" encoding="UTF-8" standalone="no"?>
<svg xmlns:ffdec="https://www.free-decompiler.com/flash" xmlns:xlink="http://www.w3.org/1999/xlink" ffdec:objectType="frame" height="56.0px" width="56.0px" xmlns="http://www.w3.org/2000/svg">
  <g transform="matrix(1.0, 0.0, 0.0, 1.0, 0.0, 0.0)">
    <use ffdec:characterId="2" height="56.0" id="back" transform="matrix(1.0, 0.0, 0.0, 1.0, 0.0, 0.0)" width="56.0" xlink:href="#sprite0"/>
    <use ffdec:characterId="3" height="45.5" transform="matrix(1.0, 0.0, 0.0, 1.0, 2.5, 6.75)" width="51.85" xlink:href="#shape1"/>
  </g>
  <defs>
    <g id="sprite0" transform="matrix(1.0, 0.0, 0.0, 1.0, 0.0, 0.0)">
      <use ffdec:characterId="1" height="56.0" transform="matrix(1.0, 0.0, 0.0, 1.0, 0.0, 0.0)" width="56.0" xlink:href="#shape0"/>
    </g>
    <g id="shape0" transform="matrix(1.0, 0.0, 0.0, 1.0, 0.0, 0.0)">
      <path d="M56.0 56.0 L0.0 56.0 0.0 0.0 56.0 0.0 56.0 56.0" fill="#010101" fill-opacity="0.0" fill-rule="evenodd" stroke="none"/>
    </g>
    <g id="shape1" transform="matrix(1.0, 0.0, 0.0, 1.0, -2.5, -6.75)">
      <path d="M53.55 7.6 Q36.8 17.8 47.1 26.15 34.75 29.5 39.5 41.0 27.65 36.2 26.5 49.45 19.75 33.0 3.3 51.45 5.6 44.2 7.8 38.95 16.95 38.1 16.65 32.95 16.35 27.8 11.4 24.9 23.25 6.5 53.55 7.6" fill="#000000" fill-rule="evenodd" stroke="none"/>
      <path d="M53.55 7.6 Q36.8 17.8 47.1 26.15 34.75 29.5 39.5 41.0 27.65 36.2 26.5 49.45 19.75 33.0 3.3 51.45 5.6 44.2 7.8 38.95 16.95 38.1 16.65 32.95 16.35 27.8 11.4 24.9 23.25 6.5 53.55 7.6 Z" fill="none" stroke="#000000" stroke-linecap="round" stroke-linejoin="round" stroke-opacity="0.2" stroke-width="1.6"/>
      <path d="M53.55 7.6 Q36.8 17.8 47.1 26.15 34.75 29.5 39.5 41.0 27.65 36.2 26.5 49.45 19.75 33.0 3.3 51.45 5.6 44.2 7.8 38.95 16.95 38.1 16.65 32.95 16.35 27.8 11.4 24.9 23.25 6.5 53.55 7.6" fill="#000000" fill-rule="evenodd" stroke="none"/>
    </g>
  </defs>
</svg>
