<?xml version="1.0" encoding="UTF-8" standalone="no"?>
<svg xmlns:ffdec="https://www.free-decompiler.com/flash" xmlns:xlink="http://www.w3.org/1999/xlink" ffdec:objectType="frame" height="56.0px" width="56.0px" xmlns="http://www.w3.org/2000/svg">
  <g transform="matrix(1.0, 0.0, 0.0, 1.0, 0.0, 0.0)">
    <use ffdec:characterId="2" height="56.0" id="back" transform="matrix(1.0, 0.0, 0.0, 1.0, 0.0, 0.0)" width="56.0" xlink:href="#sprite0"/>
    <use ffdec:characterId="3" height="39.15" transform="matrix(1.0, 0.0, 0.0, 1.0, 1.85, 9.4)" width="52.6" xlink:href="#shape1"/>
  </g>
  <defs>
    <g id="sprite0" transform="matrix(1.0, 0.0, 0.0, 1.0, 0.0, 0.0)">
      <use ffdec:characterId="1" height="56.0" transform="matrix(1.0, 0.0, 0.0, 1.0, 0.0, 0.0)" width="56.0" xlink:href="#shape0"/>
    </g>
    <g id="shape0" transform="matrix(1.0, 0.0, 0.0, 1.0, 0.0, 0.0)">
      <path d="M56.0 56.0 L0.0 56.0 0.0 0.0 56.0 0.0 56.0 56.0" fill="#010101" fill-opacity="0.0" fill-rule="evenodd" stroke="none"/>
    </g>
    <g id="shape1" transform="matrix(1.0, 0.0, 0.0, 1.0, -1.85, -9.4)">
      <path d="M42.45 44.35 Q40.85 46.3 39.95 46.65 35.7 48.55 32.5 47.15 30.95 46.5 30.0 44.9 28.0 41.5 28.85 37.7 29.65 33.9 31.65 30.45 L31.85 30.1 36.1 23.75 37.15 21.9 40.8 14.65 41.2 13.75 Q43.3 9.1 44.65 10.55 47.7 12.55 46.95 20.25 50.2 17.5 51.8 19.55 53.4 21.5 49.95 28.8 53.6 27.6 53.65 31.55 53.8 35.45 49.1 37.85 52.7 43.15 46.7 44.35 44.1 44.9 42.45 44.35 M38.2 34.9 L38.7 33.35 Q39.55 31.8 41.25 32.2 42.85 32.6 43.4 34.85 L43.65 37.1 43.5 38.35 42.7 41.1 Q41.0 45.0 36.65 45.6 32.35 46.15 31.25 43.45 30.15 40.75 30.45 38.35 30.75 35.85 31.35 34.3 32.0 32.7 33.9 29.85 L36.9 25.65 Q39.55 22.45 41.1 19.35 L43.1 15.3 Q44.75 14.4 44.95 16.8 45.2 19.2 43.85 25.2 47.0 22.15 48.35 22.25 49.75 22.35 49.3 24.95 48.8 27.45 46.8 31.0 51.55 29.55 51.25 31.85 50.95 34.1 49.25 35.75 47.5 37.35 46.35 37.55 48.95 40.5 47.6 41.85 46.25 43.15 43.15 43.3 44.85 40.4 44.95 36.65 45.1 32.4 42.8 30.9 40.8 29.6 39.2 31.1 37.95 32.3 38.2 34.9 M18.1 34.9 L17.6 33.35 Q16.75 31.8 15.05 32.2 13.45 32.6 12.9 34.85 12.55 36.05 12.65 37.1 L12.8 38.35 13.6 41.1 Q15.3 45.0 19.65 45.6 23.95 46.15 25.05 43.45 26.15 40.75 25.85 38.35 25.55 35.85 24.95 34.3 24.3 32.7 22.4 29.85 L19.4 25.65 Q16.75 22.45 15.2 19.35 L13.2 15.3 Q11.55 14.4 11.35 16.8 11.1 19.2 12.45 25.2 9.3 22.15 7.95 22.25 6.55 22.35 7.0 24.95 7.5 27.45 9.5 31.0 4.75 29.55 5.05 31.85 5.35 34.1 7.05 35.75 8.8 37.35 9.95 37.55 7.35 40.5 8.7 41.85 10.05 43.15 13.15 43.3 11.45 40.4 11.35 36.65 11.2 32.4 13.5 30.9 15.5 29.6 17.1 31.1 18.35 32.3 18.1 34.9 M13.85 44.35 Q15.45 46.3 16.35 46.65 20.6 48.55 23.8 47.15 25.35 46.5 26.3 44.9 28.3 41.5 27.45 37.7 26.65 33.9 24.65 30.45 L24.45 30.1 20.2 23.75 19.15 21.9 15.5 14.65 15.1 13.75 Q13.0 9.1 11.65 10.55 8.6 12.55 9.35 20.25 6.1 17.5 4.5 19.55 2.9 21.5 6.35 28.8 2.7 27.6 2.65 31.55 2.5 35.45 7.2 37.85 3.6 43.15 9.6 44.35 12.2 44.9 13.85 44.35 Z" fill="none" stroke="#000000" stroke-linecap="round" stroke-linejoin="round" stroke-opacity="0.2" stroke-width="1.6"/>
      <path d="M38.2 34.9 Q37.95 32.3 39.2 31.1 40.8 29.6 42.8 30.9 45.1 32.4 44.95 36.65 44.85 40.4 43.15 43.3 46.25 43.15 47.6 41.85 48.95 40.5 46.35 37.55 47.5 37.35 49.25 35.75 50.95 34.1 51.25 31.85 51.55 29.55 46.8 31.0 48.8 27.45 49.3 24.95 49.75 22.35 48.35 22.25 47.0 22.15 43.85 25.2 45.2 19.2 44.95 16.8 44.75 14.4 43.1 15.3 L41.1 19.35 Q39.55 22.45 36.9 25.65 L33.9 29.85 Q32.0 32.7 31.35 34.3 30.75 35.85 30.45 38.35 30.15 40.75 31.25 43.45 32.35 46.15 36.65 45.6 41.0 45.0 42.7 41.1 L43.5 38.35 43.65 37.1 43.4 34.85 Q42.85 32.6 41.25 32.2 39.55 31.8 38.7 33.35 L38.2 34.9 M42.45 44.35 Q40.85 46.3 39.95 46.65 35.7 48.55 32.5 47.15 30.95 46.5 30.0 44.9 28.0 41.5 28.85 37.7 29.65 33.9 31.65 30.45 L31.85 30.1 36.1 23.75 37.15 21.9 40.8 14.65 41.2 13.75 Q43.3 9.1 44.65 10.55 47.7 12.55 46.95 20.25 50.2 17.5 51.8 19.55 53.4 21.5 49.95 28.8 53.6 27.6 53.65 31.55 53.8 35.45 49.1 37.85 52.7 43.15 46.7 44.35 44.1 44.9 42.45 44.35 M18.1 34.9 L17.6 33.35 Q16.75 31.8 15.05 32.2 13.45 32.6 12.9 34.85 12.55 36.05 12.65 37.1 L12.8 38.35 13.6 41.1 Q15.3 45.0 19.65 45.6 23.95 46.15 25.05 43.45 26.15 40.75 25.85 38.35 25.55 35.85 24.95 34.3 24.3 32.7 22.4 29.85 L19.4 25.65 Q16.75 22.45 15.2 19.35 L13.2 15.3 Q11.55 14.4 11.35 16.8 11.1 19.2 12.45 25.2 9.3 22.15 7.95 22.25 6.55 22.35 7.0 24.95 7.5 27.45 9.5 31.0 4.75 29.55 5.05 31.85 5.35 34.1 7.05 35.75 8.8 37.35 9.95 37.55 7.35 40.5 8.7 41.85 10.05 43.15 13.15 43.3 11.45 40.4 11.35 36.65 11.2 32.4 13.5 30.9 15.5 29.6 17.1 31.1 18.35 32.3 18.1 34.9 M13.85 44.35 Q12.2 44.9 9.6 44.35 3.6 43.15 7.2 37.85 2.5 35.45 2.65 31.55 2.7 27.6 6.35 28.8 2.9 21.5 4.5 19.55 6.1 17.5 9.35 20.25 8.6 12.55 11.65 10.55 13.0 9.1 15.1 13.75 L15.5 14.65 19.15 21.9 20.2 23.75 24.45 30.1 24.65 30.45 Q26.65 33.9 27.45 37.7 28.3 41.5 26.3 44.9 25.35 46.5 23.8 47.15 20.6 48.55 16.35 46.65 15.45 46.3 13.85 44.35" fill="#000000" fill-rule="evenodd" stroke="none"/>
    </g>
  </defs>
</svg>
