<?xml version="1.0" encoding="UTF-8" standalone="no"?>
<svg xmlns:ffdec="https://www.free-decompiler.com/flash" xmlns:xlink="http://www.w3.org/1999/xlink" ffdec:objectType="frame" height="56.0px" width="56.0px" xmlns="http://www.w3.org/2000/svg">
  <g transform="matrix(1.0, 0.0, 0.0, 1.0, 0.0, 0.0)">
    <use ffdec:characterId="2" height="56.0" id="back" transform="matrix(1.0, 0.0, 0.0, 1.0, 0.0, 0.0)" width="56.0" xlink:href="#sprite0"/>
    <use ffdec:characterId="3" height="33.6" transform="matrix(1.0, 0.0, 0.0, 1.0, 1.65, 12.75)" width="52.4" xlink:href="#shape1"/>
  </g>
  <defs>
    <g id="sprite0" transform="matrix(1.0, 0.0, 0.0, 1.0, 0.0, 0.0)">
      <use ffdec:characterId="1" height="56.0" transform="matrix(1.0, 0.0, 0.0, 1.0, 0.0, 0.0)" width="56.0" xlink:href="#shape0"/>
    </g>
    <g id="shape0" transform="matrix(1.0, 0.0, 0.0, 1.0, 0.0, 0.0)">
      <path d="M56.0 56.0 L0.0 56.0 0.0 0.0 56.0 0.0 56.0 56.0" fill="#010101" fill-opacity="0.0" fill-rule="evenodd" stroke="none"/>
    </g>
    <g id="shape1" transform="matrix(1.0, 0.0, 0.0, 1.0, -1.65, -12.75)">
      <path d="M2.45 13.65 Q17.95 13.9 22.85 26.2 20.45 28.35 20.3 32.05 20.15 35.85 24.55 36.45 L26.7 45.55 Q18.75 32.1 15.5 44.05 15.0 34.45 9.25 37.9 11.55 29.55 5.6 27.15 10.55 21.05 2.45 13.65 M53.25 13.65 Q45.2 21.05 50.15 27.15 44.2 29.55 46.5 37.9 40.8 34.45 40.2 44.05 36.95 32.1 29.05 45.55 30.1 40.3 31.2 36.45 35.6 35.85 35.45 32.05 35.3 28.35 32.95 26.2 39.15 12.4 53.25 13.65" fill="#000000" fill-rule="evenodd" stroke="none"/>
      <path d="M2.45 13.65 Q10.55 21.05 5.6 27.15 11.55 29.55 9.25 37.9 15.0 34.45 15.5 44.05 18.75 32.1 26.7 45.55 L24.55 36.45 Q20.15 35.85 20.3 32.05 20.45 28.35 22.85 26.2 17.95 13.9 2.45 13.65 M53.25 13.65 Q45.2 21.05 50.15 27.15 44.2 29.55 46.5 37.9 40.8 34.45 40.2 44.05 36.95 32.1 29.05 45.55 30.1 40.3 31.2 36.45 35.6 35.85 35.45 32.05 35.3 28.35 32.95 26.2 39.15 12.4 53.25 13.65 Z" fill="none" stroke="#000000" stroke-linecap="round" stroke-linejoin="round" stroke-opacity="0.2" stroke-width="1.6"/>
      <path d="M2.45 13.65 Q17.95 13.9 22.85 26.2 20.45 28.35 20.3 32.05 20.15 35.85 24.55 36.45 L26.7 45.55 Q18.75 32.1 15.5 44.05 15.0 34.45 9.25 37.9 11.55 29.55 5.6 27.15 10.55 21.05 2.45 13.65 M53.25 13.65 Q45.2 21.05 50.15 27.15 44.2 29.55 46.5 37.9 40.8 34.45 40.2 44.05 36.95 32.1 29.05 45.55 30.1 40.3 31.2 36.45 35.6 35.85 35.45 32.05 35.3 28.35 32.95 26.2 39.15 12.4 53.25 13.65" fill="#000000" fill-rule="evenodd" stroke="none"/>
    </g>
  </defs>
</svg>
