<?xml version="1.0" encoding="UTF-8" standalone="no"?>
<svg xmlns:ffdec="https://www.free-decompiler.com/flash" xmlns:xlink="http://www.w3.org/1999/xlink" ffdec:objectType="frame" height="56.0px" width="56.0px" xmlns="http://www.w3.org/2000/svg">
  <g transform="matrix(1.0, 0.0, 0.0, 1.0, 0.0, 0.0)">
    <use ffdec:characterId="48" ffdec:characterName="47_fla.Symbole141_1" height="56.0" id="back" transform="matrix(1.0, 0.0, 0.0, 1.0, 0.0, 0.0)" width="56.0" xlink:href="#sprite0"/>
    <use ffdec:characterId="50" height="55.55" id="back" transform="matrix(1.0, 0.0, 0.0, 1.0, 6.6, 0.45)" width="42.9" xlink:href="#sprite47"/>
    <use ffdec:characterId="52" height="54.05" id="up" transform="matrix(1.0, 0.0, 0.0, 1.0, 7.35, 1.2)" width="41.4" xlink:href="#sprite48"/>
  </g>
  <defs>
    <g id="sprite0" transform="matrix(1.0, 0.0, 0.0, 1.0, 0.0, 0.0)">
      <use ffdec:characterId="47" ffdec:characterName="47_fla.Symbole138_2" height="56.0" id="back" transform="matrix(1.0, 0.0, 0.0, 1.0, 0.0, 0.0)" width="56.0" xlink:href="#sprite1"/>
    </g>
    <g id="sprite1" transform="matrix(1.0, 0.0, 0.0, 1.0, 0.0, 0.0)">
      <use ffdec:characterId="46" ffdec:characterName="47_fla.Symbole135_3" height="56.0" id="back" transform="matrix(1.0, 0.0, 0.0, 1.0, 0.0, 0.0)" width="56.0" xlink:href="#sprite2"/>
    </g>
    <g id="sprite2" transform="matrix(1.0, 0.0, 0.0, 1.0, 0.0, 0.0)">
      <use ffdec:characterId="45" ffdec:characterName="47_fla.Symbole132_4" height="56.0" id="back" transform="matrix(1.0, 0.0, 0.0, 1.0, 0.0, 0.0)" width="56.0" xlink:href="#sprite3"/>
    </g>
    <g id="sprite3" transform="matrix(1.0, 0.0, 0.0, 1.0, 0.0, 0.0)">
      <use ffdec:characterId="44" ffdec:characterName="47_fla.Symbole129_5" height="56.0" id="back" transform="matrix(1.0, 0.0, 0.0, 1.0, 0.0, 0.0)" width="56.0" xlink:href="#sprite4"/>
    </g>
    <g id="sprite4" transform="matrix(1.0, 0.0, 0.0, 1.0, 0.0, 0.0)">
      <use ffdec:characterId="43" ffdec:characterName="47_fla.Symbole126_6" height="56.0" id="back" transform="matrix(1.0, 0.0, 0.0, 1.0, 0.0, 0.0)" width="56.0" xlink:href="#sprite5"/>
    </g>
    <g id="sprite5" transform="matrix(1.0, 0.0, 0.0, 1.0, 0.0, 0.0)">
      <use ffdec:characterId="42" ffdec:characterName="47_fla.Symbole123_7" height="56.0" id="back" transform="matrix(1.0, 0.0, 0.0, 1.0, 0.0, 0.0)" width="56.0" xlink:href="#sprite6"/>
    </g>
    <g id="sprite6" transform="matrix(1.0, 0.0, 0.0, 1.0, 0.0, 0.0)">
      <use ffdec:characterId="41" ffdec:characterName="47_fla.Symbole120_8" height="56.0" id="back" transform="matrix(1.0, 0.0, 0.0, 1.0, 0.0, 0.0)" width="56.0" xlink:href="#sprite7"/>
    </g>
    <g id="sprite7" transform="matrix(1.0, 0.0, 0.0, 1.0, 0.0, 0.0)">
      <use ffdec:characterId="40" ffdec:characterName="47_fla.Symbole117_9" height="56.0" id="back" transform="matrix(1.0, 0.0, 0.0, 1.0, 0.0, 0.0)" width="56.0" xlink:href="#sprite8"/>
    </g>
    <g id="sprite8" transform="matrix(1.0, 0.0, 0.0, 1.0, 0.0, 0.0)">
      <use ffdec:characterId="39" ffdec:characterName="47_fla.Symbole114_10" height="56.0" id="back" transform="matrix(1.0, 0.0, 0.0, 1.0, 0.0, 0.0)" width="56.0" xlink:href="#sprite9"/>
    </g>
    <g id="sprite9" transform="matrix(1.0, 0.0, 0.0, 1.0, 0.0, 0.0)">
      <use ffdec:characterId="38" ffdec:characterName="47_fla.Symbole111_11" height="56.0" id="back" transform="matrix(1.0, 0.0, 0.0, 1.0, 0.0, 0.0)" width="56.0" xlink:href="#sprite10"/>
    </g>
    <g id="sprite10" transform="matrix(1.0, 0.0, 0.0, 1.0, 0.0, 0.0)">
      <use ffdec:characterId="37" ffdec:characterName="47_fla.Symbole108_12" height="56.0" id="back" transform="matrix(1.0, 0.0, 0.0, 1.0, 0.0, 0.0)" width="56.0" xlink:href="#sprite11"/>
    </g>
    <g id="sprite11" transform="matrix(1.0, 0.0, 0.0, 1.0, 0.0, 0.0)">
      <use ffdec:characterId="36" ffdec:characterName="47_fla.Symbole105_13" height="56.0" id="back" transform="matrix(1.0, 0.0, 0.0, 1.0, 0.0, 0.0)" width="56.0" xlink:href="#sprite12"/>
    </g>
    <g id="sprite12" transform="matrix(1.0, 0.0, 0.0, 1.0, 0.0, 0.0)">
      <use ffdec:characterId="35" ffdec:characterName="47_fla.Symbole102_14" height="56.0" id="back" transform="matrix(1.0, 0.0, 0.0, 1.0, 0.0, 0.0)" width="56.0" xlink:href="#sprite13"/>
    </g>
    <g id="sprite13" transform="matrix(1.0, 0.0, 0.0, 1.0, 0.0, 0.0)">
      <use ffdec:characterId="34" ffdec:characterName="47_fla.Symbole99_15" height="56.0" id="back" transform="matrix(1.0, 0.0, 0.0, 1.0, 0.0, 0.0)" width="56.0" xlink:href="#sprite14"/>
    </g>
    <g id="sprite14" transform="matrix(1.0, 0.0, 0.0, 1.0, 0.0, 0.0)">
      <use ffdec:characterId="33" ffdec:characterName="47_fla.Symbole96_16" height="56.0" id="back" transform="matrix(1.0, 0.0, 0.0, 1.0, 0.0, 0.0)" width="56.0" xlink:href="#sprite15"/>
    </g>
    <g id="sprite15" transform="matrix(1.0, 0.0, 0.0, 1.0, 0.0, 0.0)">
      <use ffdec:characterId="32" ffdec:characterName="47_fla.Symbole93_17" height="56.0" id="back" transform="matrix(1.0, 0.0, 0.0, 1.0, 0.0, 0.0)" width="56.0" xlink:href="#sprite16"/>
    </g>
    <g id="sprite16" transform="matrix(1.0, 0.0, 0.0, 1.0, 0.0, 0.0)">
      <use ffdec:characterId="31" ffdec:characterName="47_fla.Symbole90_18" height="56.0" id="back" transform="matrix(1.0, 0.0, 0.0, 1.0, 0.0, 0.0)" width="56.0" xlink:href="#sprite17"/>
    </g>
    <g id="sprite17" transform="matrix(1.0, 0.0, 0.0, 1.0, 0.0, 0.0)">
      <use ffdec:characterId="30" ffdec:characterName="47_fla.Symbole87_19" height="56.0" id="back" transform="matrix(1.0, 0.0, 0.0, 1.0, 0.0, 0.0)" width="56.0" xlink:href="#sprite18"/>
    </g>
    <g id="sprite18" transform="matrix(1.0, 0.0, 0.0, 1.0, 0.0, 0.0)">
      <use ffdec:characterId="29" ffdec:characterName="47_fla.Symbole84_20" height="56.0" id="back" transform="matrix(1.0, 0.0, 0.0, 1.0, 0.0, 0.0)" width="56.0" xlink:href="#sprite19"/>
    </g>
    <g id="sprite19" transform="matrix(1.0, 0.0, 0.0, 1.0, 0.0, 0.0)">
      <use ffdec:characterId="28" ffdec:characterName="47_fla.Symbole81_21" height="56.0" id="back" transform="matrix(1.0, 0.0, 0.0, 1.0, 0.0, 0.0)" width="56.0" xlink:href="#sprite20"/>
    </g>
    <g id="sprite20" transform="matrix(1.0, 0.0, 0.0, 1.0, 0.0, 0.0)">
      <use ffdec:characterId="27" ffdec:characterName="47_fla.Symbole78_22" height="56.0" id="back" transform="matrix(1.0, 0.0, 0.0, 1.0, 0.0, 0.0)" width="56.0" xlink:href="#sprite21"/>
    </g>
    <g id="sprite21" transform="matrix(1.0, 0.0, 0.0, 1.0, 0.0, 0.0)">
      <use ffdec:characterId="26" ffdec:characterName="47_fla.Symbole75_23" height="56.0" id="back" transform="matrix(1.0, 0.0, 0.0, 1.0, 0.0, 0.0)" width="56.0" xlink:href="#sprite22"/>
    </g>
    <g id="sprite22" transform="matrix(1.0, 0.0, 0.0, 1.0, 0.0, 0.0)">
      <use ffdec:characterId="25" ffdec:characterName="47_fla.Symbole72_24" height="56.0" id="back" transform="matrix(1.0, 0.0, 0.0, 1.0, 0.0, 0.0)" width="56.0" xlink:href="#sprite23"/>
    </g>
    <g id="sprite23" transform="matrix(1.0, 0.0, 0.0, 1.0, 0.0, 0.0)">
      <use ffdec:characterId="24" ffdec:characterName="47_fla.Symbole69_25" height="56.0" id="back" transform="matrix(1.0, 0.0, 0.0, 1.0, 0.0, 0.0)" width="56.0" xlink:href="#sprite24"/>
    </g>
    <g id="sprite24" transform="matrix(1.0, 0.0, 0.0, 1.0, 0.0, 0.0)">
      <use ffdec:characterId="23" ffdec:characterName="47_fla.Symbole66_26" height="56.0" id="back" transform="matrix(1.0, 0.0, 0.0, 1.0, 0.0, 0.0)" width="56.0" xlink:href="#sprite25"/>
    </g>
    <g id="sprite25" transform="matrix(1.0, 0.0, 0.0, 1.0, 0.0, 0.0)">
      <use ffdec:characterId="22" ffdec:characterName="47_fla.Symbole63_27" height="56.0" id="back" transform="matrix(1.0, 0.0, 0.0, 1.0, 0.0, 0.0)" width="56.0" xlink:href="#sprite26"/>
    </g>
    <g id="sprite26" transform="matrix(1.0, 0.0, 0.0, 1.0, 0.0, 0.0)">
      <use ffdec:characterId="21" ffdec:characterName="47_fla.Symbole60_28" height="56.0" id="back" transform="matrix(1.0, 0.0, 0.0, 1.0, 0.0, 0.0)" width="56.0" xlink:href="#sprite27"/>
    </g>
    <g id="sprite27" transform="matrix(1.0, 0.0, 0.0, 1.0, 0.0, 0.0)">
      <use ffdec:characterId="20" ffdec:characterName="47_fla.Symbole57_29" height="56.0" id="back" transform="matrix(1.0, 0.0, 0.0, 1.0, 0.0, 0.0)" width="56.0" xlink:href="#sprite28"/>
    </g>
    <g id="sprite28" transform="matrix(1.0, 0.0, 0.0, 1.0, 0.0, 0.0)">
      <use ffdec:characterId="19" ffdec:characterName="47_fla.Symbole54_30" height="56.0" id="back" transform="matrix(1.0, 0.0, 0.0, 1.0, 0.0, 0.0)" width="56.0" xlink:href="#sprite29"/>
    </g>
    <g id="sprite29" transform="matrix(1.0, 0.0, 0.0, 1.0, 0.0, 0.0)">
      <use ffdec:characterId="18" ffdec:characterName="47_fla.Symbole51_31" height="56.0" id="back" transform="matrix(1.0, 0.0, 0.0, 1.0, 0.0, 0.0)" width="56.0" xlink:href="#sprite30"/>
    </g>
    <g id="sprite30" transform="matrix(1.0, 0.0, 0.0, 1.0, 0.0, 0.0)">
      <use ffdec:characterId="17" ffdec:characterName="47_fla.Symbole48_32" height="56.0" id="back" transform="matrix(1.0, 0.0, 0.0, 1.0, 0.0, 0.0)" width="56.0" xlink:href="#sprite31"/>
    </g>
    <g id="sprite31" transform="matrix(1.0, 0.0, 0.0, 1.0, 0.0, 0.0)">
      <use ffdec:characterId="16" ffdec:characterName="47_fla.Symbole45_33" height="56.0" id="back" transform="matrix(1.0, 0.0, 0.0, 1.0, 0.0, 0.0)" width="56.0" xlink:href="#sprite32"/>
    </g>
    <g id="sprite32" transform="matrix(1.0, 0.0, 0.0, 1.0, 0.0, 0.0)">
      <use ffdec:characterId="15" ffdec:characterName="47_fla.Symbole42_34" height="56.0" id="back" transform="matrix(1.0, 0.0, 0.0, 1.0, 0.0, 0.0)" width="56.0" xlink:href="#sprite33"/>
    </g>
    <g id="sprite33" transform="matrix(1.0, 0.0, 0.0, 1.0, 0.0, 0.0)">
      <use ffdec:characterId="14" ffdec:characterName="47_fla.Symbole39_35" height="56.0" id="back" transform="matrix(1.0, 0.0, 0.0, 1.0, 0.0, 0.0)" width="56.0" xlink:href="#sprite34"/>
    </g>
    <g id="sprite34" transform="matrix(1.0, 0.0, 0.0, 1.0, 0.0, 0.0)">
      <use ffdec:characterId="13" ffdec:characterName="47_fla.Symbole36_36" height="56.0" id="back" transform="matrix(1.0, 0.0, 0.0, 1.0, 0.0, 0.0)" width="56.0" xlink:href="#sprite35"/>
    </g>
    <g id="sprite35" transform="matrix(1.0, 0.0, 0.0, 1.0, 0.0, 0.0)">
      <use ffdec:characterId="12" ffdec:characterName="47_fla.Symbole33_37" height="56.0" id="back" transform="matrix(1.0, 0.0, 0.0, 1.0, 0.0, 0.0)" width="56.0" xlink:href="#sprite36"/>
    </g>
    <g id="sprite36" transform="matrix(1.0, 0.0, 0.0, 1.0, 0.0, 0.0)">
      <use ffdec:characterId="11" ffdec:characterName="47_fla.Symbole30_38" height="56.0" id="back" transform="matrix(1.0, 0.0, 0.0, 1.0, 0.0, 0.0)" width="56.0" xlink:href="#sprite37"/>
    </g>
    <g id="sprite37" transform="matrix(1.0, 0.0, 0.0, 1.0, 0.0, 0.0)">
      <use ffdec:characterId="10" ffdec:characterName="47_fla.Symbole27_39" height="56.0" id="back" transform="matrix(1.0, 0.0, 0.0, 1.0, 0.0, 0.0)" width="56.0" xlink:href="#sprite38"/>
    </g>
    <g id="sprite38" transform="matrix(1.0, 0.0, 0.0, 1.0, 0.0, 0.0)">
      <use ffdec:characterId="9" ffdec:characterName="47_fla.Symbole24_40" height="56.0" id="back" transform="matrix(1.0, 0.0, 0.0, 1.0, 0.0, 0.0)" width="56.0" xlink:href="#sprite39"/>
    </g>
    <g id="sprite39" transform="matrix(1.0, 0.0, 0.0, 1.0, 0.0, 0.0)">
      <use ffdec:characterId="8" ffdec:characterName="47_fla.Symbole21_41" height="56.0" id="back" transform="matrix(1.0, 0.0, 0.0, 1.0, 0.0, 0.0)" width="56.0" xlink:href="#sprite40"/>
    </g>
    <g id="sprite40" transform="matrix(1.0, 0.0, 0.0, 1.0, 0.0, 0.0)">
      <use ffdec:characterId="7" ffdec:characterName="47_fla.Symbole18_42" height="56.0" id="back" transform="matrix(1.0, 0.0, 0.0, 1.0, 0.0, 0.0)" width="56.0" xlink:href="#sprite41"/>
    </g>
    <g id="sprite41" transform="matrix(1.0, 0.0, 0.0, 1.0, 0.0, 0.0)">
      <use ffdec:characterId="6" ffdec:characterName="47_fla.Symbole15_43" height="56.0" id="back" transform="matrix(1.0, 0.0, 0.0, 1.0, 0.0, 0.0)" width="56.0" xlink:href="#sprite42"/>
    </g>
    <g id="sprite42" transform="matrix(1.0, 0.0, 0.0, 1.0, 0.0, 0.0)">
      <use ffdec:characterId="5" ffdec:characterName="47_fla.Symbole12_44" height="56.0" id="back" transform="matrix(1.0, 0.0, 0.0, 1.0, 0.0, 0.0)" width="56.0" xlink:href="#sprite43"/>
    </g>
    <g id="sprite43" transform="matrix(1.0, 0.0, 0.0, 1.0, 0.0, 0.0)">
      <use ffdec:characterId="4" ffdec:characterName="47_fla.Symbole9_45" height="56.0" id="back" transform="matrix(1.0, 0.0, 0.0, 1.0, 0.0, 0.0)" width="56.0" xlink:href="#sprite44"/>
    </g>
    <g id="sprite44" transform="matrix(1.0, 0.0, 0.0, 1.0, 0.0, 0.0)">
      <use ffdec:characterId="3" ffdec:characterName="47_fla.Symbole6_46" height="56.0" id="back" transform="matrix(1.0, 0.0, 0.0, 1.0, 0.0, 0.0)" width="56.0" xlink:href="#sprite45"/>
    </g>
    <g id="sprite45" transform="matrix(1.0, 0.0, 0.0, 1.0, 0.0, 0.0)">
      <use ffdec:characterId="2" height="56.0" id="back" transform="matrix(1.0, 0.0, 0.0, 1.0, 0.0, 0.0)" width="56.0" xlink:href="#sprite46"/>
    </g>
    <g id="sprite46" transform="matrix(1.0, 0.0, 0.0, 1.0, 0.0, 0.0)">
      <use ffdec:characterId="1" height="56.0" transform="matrix(1.0, 0.0, 0.0, 1.0, 0.0, 0.0)" width="56.0" xlink:href="#shape0"/>
    </g>
    <g id="shape0" transform="matrix(1.0, 0.0, 0.0, 1.0, 0.0, 0.0)">
      <path d="M56.0 56.0 L0.0 56.0 0.0 0.0 56.0 0.0 56.0 56.0" fill="#010101" fill-opacity="0.0" fill-rule="evenodd" stroke="none"/>
    </g>
    <g id="sprite47" transform="matrix(1.0, 0.0, 0.0, 1.0, 0.75, 0.75)">
      <use ffdec:characterId="49" height="55.55" transform="matrix(1.0, 0.0, 0.0, 1.0, -0.75, -0.75)" width="42.9" xlink:href="#shape1"/>
    </g>
    <g id="shape1" transform="matrix(1.0, 0.0, 0.0, 1.0, 0.75, 0.75)">
      <path d="M35.1 44.55 Q34.45 43.35 33.35 42.95 31.8 42.3 31.25 43.2 31.0 43.35 30.95 44.45 30.55 45.4 29.65 45.85 27.5 46.9 25.35 45.4 23.15 43.65 23.0 40.6 22.95 39.25 23.45 38.15 23.9 37.2 24.45 37.55 L24.75 38.25 Q25.0 38.85 25.8 38.6 26.9 38.25 27.55 37.2 28.1 36.25 27.95 35.2 27.9 34.05 26.9 33.5 25.8 32.75 24.45 33.2 23.15 33.65 22.15 34.8 22.15 33.7 22.55 32.25 23.15 29.2 24.9 27.15 25.3 26.4 26.05 25.7 27.55 24.35 29.4 24.0 31.25 23.7 32.9 24.8 34.2 25.5 34.25 27.15 34.25 28.3 33.5 29.35 32.65 30.2 31.7 29.95 31.0 29.75 30.95 28.95 30.8 28.5 31.4 27.8 L31.4 27.25 Q31.25 26.95 30.55 26.95 29.85 26.95 29.2 27.35 28.1 27.9 27.7 29.2 27.1 30.25 27.35 31.55 27.5 33.05 28.65 34.3 L29.7 35.05 28.55 36.9 Q27.8 38.25 28.2 40.15 28.65 42.05 29.95 42.75 30.4 42.95 30.5 42.5 30.95 40.45 32.65 39.3 L34.9 38.05 37.65 36.45 Q40.7 33.9 41.3 30.7 41.8 27.25 40.2 24.55 38.25 21.15 33.8 20.55 30.3 20.0 27.9 21.3 L28.1 20.3 28.35 19.0 Q28.2 17.4 27.1 16.85 L25.2 16.8 Q24.45 17.1 24.0 17.95 23.7 18.8 24.0 19.6 24.25 20.3 24.7 20.1 24.75 20.0 25.2 19.85 25.6 19.85 25.8 20.3 26.05 21.2 25.75 22.05 L24.0 24.2 22.15 26.4 Q22.1 21.6 22.3 20.3 22.7 17.1 24.45 15.15 25.3 14.2 26.4 14.05 27.55 13.85 28.65 14.6 29.65 15.3 29.85 16.35 L29.95 17.2 Q29.85 17.7 30.1 18.1 L31.4 18.15 Q32.65 17.4 33.05 15.35 L33.15 13.6 Q32.95 12.0 32.1 10.8 31.0 9.45 29.5 9.0 28.1 8.6 26.6 9.0 L25.0 9.75 Q25.0 6.85 24.1 4.5 23.0 1.75 21.0 0.15 L20.8 0.0 Q20.55 0.0 20.4 0.15 18.4 1.75 17.35 4.5 16.3 6.85 16.45 9.75 15.4 9.05 14.85 9.0 13.25 8.6 11.95 9.0 10.3 9.45 9.35 10.8 8.5 12.0 8.35 13.6 L8.35 15.35 Q8.75 17.4 10.05 18.15 L11.35 18.1 11.5 17.2 11.55 16.35 Q11.8 15.3 12.8 14.6 13.7 13.85 15.0 14.05 16.15 14.2 17.0 15.15 18.7 17.1 19.1 20.3 L19.25 26.4 17.45 24.2 15.7 22.05 Q15.25 21.2 15.6 20.3 15.85 19.85 16.25 19.85 L16.75 20.1 Q17.2 20.3 17.55 19.6 17.75 18.8 17.45 17.95 17.0 17.1 16.25 16.8 L14.4 16.85 Q13.25 17.4 13.1 19.0 L13.3 20.3 13.55 21.3 Q11.1 20.0 7.6 20.55 3.2 21.15 1.2 24.55 -0.4 27.25 0.15 30.7 0.6 33.9 3.8 36.45 5.55 37.8 8.75 39.3 10.5 40.45 10.95 42.5 10.95 42.95 11.5 42.75 12.8 42.05 13.25 40.15 13.55 38.25 12.85 36.9 L11.7 35.05 12.8 34.3 Q13.85 33.05 14.1 31.55 14.15 30.25 13.7 29.2 13.3 27.9 12.25 27.35 L10.9 26.95 Q10.2 26.95 10.05 27.25 9.85 27.6 10.05 27.8 L10.5 28.95 Q10.45 29.75 9.8 29.95 8.75 30.2 7.9 29.35 7.2 28.3 7.2 27.15 7.3 25.5 8.55 24.8 10.05 23.7 12.15 24.0 13.85 24.35 15.4 25.7 L16.55 27.15 Q18.2 29.2 18.9 32.25 L19.25 34.8 Q18.3 33.65 17.0 33.2 15.6 32.75 14.55 33.5 13.55 34.05 13.45 35.2 13.25 36.25 13.85 37.2 14.4 38.25 15.6 38.6 16.45 38.85 16.7 38.25 L17.0 37.55 Q17.55 37.2 18.0 38.15 18.5 39.25 18.4 40.6 18.2 43.65 16.05 45.4 13.95 46.9 11.8 45.85 10.9 45.4 10.5 44.45 10.45 43.35 10.2 43.2 9.65 42.3 8.05 42.95 6.85 43.35 6.3 44.55 5.75 45.6 6.0 47.05 6.15 48.65 7.45 49.95 8.7 51.0 10.5 51.4 14.3 52.0 17.75 48.8 18.05 50.1 19.25 52.1 20.35 54.05 20.8 54.05 L22.15 52.1 Q23.4 50.1 23.85 48.8 27.1 52.0 30.95 51.4 32.65 51.0 33.95 49.95 35.25 48.65 35.5 47.05 35.65 45.6 35.1 44.55 Z" fill="none" stroke="#000000" stroke-linecap="round" stroke-linejoin="round" stroke-opacity="0.2" stroke-width="1.5"/>
    </g>
    <g id="sprite48" transform="matrix(1.0, 0.0, 0.0, 1.0, 0.0, 0.0)">
      <use ffdec:characterId="51" height="54.05" transform="matrix(1.0, 0.0, 0.0, 1.0, 0.0, 0.0)" width="41.4" xlink:href="#shape2"/>
    </g>
    <g id="shape2" transform="matrix(1.0, 0.0, 0.0, 1.0, 0.0, 0.0)">
      <path d="M35.1 44.55 Q35.65 45.6 35.5 47.05 35.25 48.65 33.95 49.95 32.65 51.0 30.95 51.4 27.1 52.0 23.85 48.8 23.4 50.1 22.15 52.1 L20.8 54.05 Q20.35 54.05 19.25 52.1 18.05 50.1 17.75 48.8 14.3 52.0 10.5 51.4 8.7 51.0 7.45 49.95 6.15 48.65 6.0 47.05 5.75 45.6 6.3 44.55 6.85 43.35 8.05 42.95 9.65 42.3 10.2 43.2 10.45 43.35 10.5 44.45 10.9 45.4 11.8 45.85 13.95 46.9 16.05 45.4 18.2 43.65 18.4 40.6 18.5 39.25 18.0 38.15 17.55 37.2 17.0 37.55 L16.7 38.25 Q16.45 38.85 15.6 38.6 14.4 38.25 13.85 37.2 13.25 36.25 13.45 35.2 13.55 34.05 14.55 33.5 15.6 32.75 17.0 33.2 18.3 33.65 19.25 34.8 L18.9 32.25 Q18.2 29.2 16.55 27.15 L15.4 25.7 Q13.85 24.35 12.15 24.0 10.05 23.7 8.55 24.8 7.3 25.5 7.2 27.15 7.2 28.3 7.9 29.35 8.75 30.2 9.8 29.95 10.45 29.75 10.5 28.95 L10.05 27.8 Q9.85 27.6 10.05 27.25 10.2 26.95 10.9 26.95 L12.25 27.35 Q13.3 27.9 13.7 29.2 14.15 30.25 14.1 31.55 13.85 33.05 12.8 34.3 L11.7 35.05 12.85 36.9 Q13.55 38.25 13.25 40.15 12.8 42.05 11.5 42.75 10.95 42.95 10.95 42.5 10.5 40.45 8.75 39.3 5.55 37.8 3.8 36.45 0.6 33.9 0.15 30.7 -0.4 27.25 1.2 24.55 3.2 21.15 7.6 20.55 11.1 20.0 13.55 21.3 L13.3 20.3 13.1 19.0 Q13.25 17.4 14.4 16.85 L16.25 16.8 Q17.0 17.1 17.45 17.95 17.75 18.8 17.55 19.6 17.2 20.3 16.75 20.1 L16.25 19.85 Q15.85 19.85 15.6 20.3 15.25 21.2 15.7 22.05 L17.45 24.2 19.25 26.4 19.1 20.3 Q18.7 17.1 17.0 15.15 16.15 14.2 15.0 14.05 13.7 13.85 12.8 14.6 11.8 15.3 11.55 16.35 L11.5 17.2 11.35 18.1 10.05 18.15 Q8.75 17.4 8.35 15.35 L8.35 13.6 Q8.5 12.0 9.35 10.8 10.3 9.45 11.95 9.0 13.25 8.6 14.85 9.0 15.4 9.05 16.45 9.75 16.3 6.85 17.35 4.5 18.4 1.75 20.4 0.15 20.55 0.0 20.8 0.0 L21.0 0.15 Q23.0 1.75 24.1 4.5 25.0 6.85 25.0 9.75 L26.6 9.0 Q28.1 8.6 29.5 9.0 31.0 9.45 32.1 10.8 32.95 12.0 33.15 13.6 L33.05 15.35 Q32.65 17.4 31.4 18.15 L30.1 18.1 Q29.85 17.7 29.95 17.2 L29.85 16.35 Q29.65 15.3 28.65 14.6 27.55 13.85 26.4 14.05 25.3 14.2 24.45 15.15 22.7 17.1 22.3 20.3 22.1 21.6 22.15 26.4 L24.0 24.2 25.75 22.05 Q26.05 21.2 25.8 20.3 25.6 19.85 25.2 19.85 24.75 20.0 24.7 20.1 24.25 20.3 24.0 19.6 23.7 18.8 24.0 17.95 24.45 17.1 25.2 16.8 L27.1 16.85 Q28.2 17.4 28.35 19.0 L28.1 20.3 27.9 21.3 Q30.3 20.0 33.8 20.55 38.25 21.15 40.2 24.55 41.8 27.25 41.3 30.7 40.7 33.9 37.65 36.45 L34.9 38.05 32.65 39.3 Q30.95 40.45 30.5 42.5 30.4 42.95 29.95 42.75 28.65 42.05 28.2 40.15 27.8 38.25 28.55 36.9 L29.7 35.05 28.65 34.3 Q27.5 33.05 27.35 31.55 27.1 30.25 27.7 29.2 28.1 27.9 29.2 27.35 29.85 26.95 30.55 26.95 31.25 26.95 31.4 27.25 L31.4 27.8 Q30.8 28.5 30.95 28.95 31.0 29.75 31.7 29.95 32.65 30.2 33.5 29.35 34.25 28.3 34.25 27.15 34.2 25.5 32.9 24.8 31.25 23.7 29.4 24.0 27.55 24.35 26.05 25.7 25.3 26.4 24.9 27.15 23.15 29.2 22.55 32.25 22.15 33.7 22.15 34.8 23.15 33.65 24.45 33.2 25.8 32.75 26.9 33.5 27.9 34.05 27.95 35.2 28.1 36.25 27.55 37.2 26.9 38.25 25.8 38.6 25.0 38.85 24.75 38.25 L24.45 37.55 Q23.9 37.2 23.45 38.15 22.95 39.25 23.0 40.6 23.15 43.65 25.35 45.4 27.5 46.9 29.65 45.85 30.55 45.4 30.95 44.45 31.0 43.35 31.25 43.2 31.8 42.3 33.35 42.95 34.45 43.35 35.1 44.55" fill="#000000" fill-rule="evenodd" stroke="none"/>
    </g>
  </defs>
</svg>
