<?xml version="1.0" encoding="UTF-8" standalone="no"?>
<svg xmlns:ffdec="https://www.free-decompiler.com/flash" xmlns:xlink="http://www.w3.org/1999/xlink" ffdec:objectType="frame" height="56.0px" width="56.0px" xmlns="http://www.w3.org/2000/svg">
  <g transform="matrix(1.0, 0.0, 0.0, 1.0, 0.0, 0.0)">
    <use ffdec:characterId="2" height="56.0" id="back" transform="matrix(1.0, 0.0, 0.0, 1.0, 0.0, 0.0)" width="56.0" xlink:href="#sprite0"/>
    <use ffdec:characterId="3" height="53.15" transform="matrix(1.0, 0.0, 0.0, 1.0, 12.4, 1.85)" width="32.55" xlink:href="#shape1"/>
  </g>
  <defs>
    <g id="sprite0" transform="matrix(1.0, 0.0, 0.0, 1.0, 0.0, 0.0)">
      <use ffdec:characterId="1" height="56.0" transform="matrix(1.0, 0.0, 0.0, 1.0, 0.0, 0.0)" width="56.0" xlink:href="#shape0"/>
    </g>
    <g id="shape0" transform="matrix(1.0, 0.0, 0.0, 1.0, 0.0, 0.0)">
      <path d="M56.0 56.0 L0.0 56.0 0.0 0.0 56.0 0.0 56.0 56.0" fill="#010101" fill-opacity="0.0" fill-rule="evenodd" stroke="none"/>
    </g>
    <g id="shape1" transform="matrix(1.0, 0.0, 0.0, 1.0, -12.4, -1.85)">
      <path d="M27.5 50.0 L28.3 50.55 Q28.8 50.9 28.8 50.85 L29.85 50.0 32.2 47.4 Q34.1 44.85 34.85 40.85 L34.85 34.45 34.85 29.45 34.85 19.75 34.85 18.05 35.05 16.65 35.2 15.9 Q35.8 14.8 37.25 14.3 L44.05 11.75 44.15 14.15 44.05 17.9 Q43.9 18.7 41.9 19.75 L39.65 20.75 37.1 21.65 37.1 40.85 Q36.45 45.0 33.05 49.7 L30.65 52.35 28.75 54.2 28.7 54.1 Q25.05 50.7 24.3 49.7 20.95 45.0 20.25 40.85 L20.3 21.65 17.7 20.75 15.45 19.75 Q13.45 18.7 13.3 17.9 13.15 16.7 13.25 14.15 L13.3 11.75 20.1 14.3 Q21.6 14.8 22.15 15.9 L22.3 16.65 22.55 18.05 22.55 19.75 22.55 29.45 22.55 34.45 22.55 40.85 Q23.25 44.85 25.15 47.4 26.25 48.95 27.5 50.0 M28.7 40.1 L26.5 37.25 Q25.0 34.8 24.9 32.95 L24.95 12.75 22.65 12.1 Q16.85 10.3 16.65 8.85 L16.55 6.95 16.65 3.95 16.75 2.65 20.2 3.95 21.65 4.5 22.65 4.85 23.7 5.25 Q25.0 5.8 25.5 6.8 L25.9 8.1 26.0 9.15 25.95 32.05 26.45 33.4 26.85 34.45 28.65 36.5 28.7 36.5 28.8 36.45 30.5 34.45 30.95 33.4 31.4 32.05 31.35 9.15 31.5 8.1 31.85 6.8 Q32.35 5.8 33.7 5.25 L34.7 4.85 35.75 4.5 37.2 3.95 40.6 2.65 40.7 3.95 40.85 6.95 40.7 8.85 Q40.55 10.3 34.7 12.1 L32.45 12.75 32.5 32.95 Q32.35 34.8 31.0 37.2 L29.5 39.2 28.7 40.1" fill="#000000" fill-rule="evenodd" stroke="none"/>
      <path d="M27.5 50.0 L28.3 50.55 Q28.8 50.9 28.8 50.85 L29.85 50.0 32.2 47.4 Q34.1 44.85 34.85 40.85 L34.85 34.45 34.85 29.45 34.85 19.75 34.85 18.05 35.05 16.65 35.2 15.9 Q35.8 14.8 37.25 14.3 L44.05 11.75 44.15 14.15 44.05 17.9 Q43.9 18.7 41.9 19.75 L39.65 20.75 37.1 21.65 37.1 40.85 Q36.45 45.0 33.05 49.7 L30.65 52.35 28.75 54.2 28.7 54.1 Q25.05 50.7 24.3 49.7 20.95 45.0 20.25 40.85 L20.3 21.65 17.7 20.75 15.45 19.75 Q13.45 18.7 13.3 17.9 13.15 16.7 13.25 14.15 L13.3 11.75 20.1 14.3 Q21.6 14.8 22.15 15.9 L22.3 16.65 22.55 18.05 22.55 19.75 22.55 29.45 22.55 34.45 22.55 40.85 Q23.25 44.85 25.15 47.4 26.25 48.95 27.5 50.0 M28.7 40.1 L26.5 37.25 Q25.0 34.8 24.9 32.95 L24.95 12.75 22.65 12.1 Q16.85 10.3 16.65 8.85 L16.55 6.95 16.65 3.95 16.75 2.65 20.2 3.95 21.65 4.5 22.65 4.85 23.7 5.25 Q25.0 5.8 25.5 6.8 L25.9 8.1 26.0 9.15 25.95 32.05 26.45 33.4 26.85 34.45 28.65 36.5 28.7 36.5 28.8 36.45 30.5 34.45 30.95 33.4 31.4 32.05 31.35 9.15 31.5 8.1 31.85 6.8 Q32.35 5.8 33.7 5.25 L34.7 4.85 35.75 4.5 37.2 3.95 40.6 2.65 40.7 3.95 40.85 6.95 40.7 8.85 Q40.55 10.3 34.7 12.1 L32.45 12.75 32.5 32.95 Q32.35 34.8 31.0 37.2 L29.5 39.2 28.7 40.1 Z" fill="none" stroke="#000000" stroke-linecap="round" stroke-linejoin="round" stroke-opacity="0.2" stroke-width="1.6"/>
      <path d="M27.5 50.0 L28.3 50.55 Q28.8 50.9 28.8 50.85 L29.85 50.0 32.2 47.4 Q34.1 44.85 34.85 40.85 L34.85 34.45 34.85 29.45 34.85 19.75 34.85 18.05 35.05 16.65 35.2 15.9 Q35.8 14.8 37.25 14.3 L44.05 11.75 44.15 14.15 44.05 17.9 Q43.9 18.7 41.9 19.75 L39.65 20.75 37.1 21.65 37.1 40.85 Q36.45 45.0 33.05 49.7 L30.65 52.35 28.75 54.2 28.7 54.1 Q25.05 50.7 24.3 49.7 20.95 45.0 20.25 40.85 L20.3 21.65 17.7 20.75 15.45 19.75 Q13.45 18.7 13.3 17.9 13.15 16.7 13.25 14.15 L13.3 11.75 20.1 14.3 Q21.6 14.8 22.15 15.9 L22.3 16.65 22.55 18.05 22.55 19.75 22.55 29.45 22.55 34.45 22.55 40.85 Q23.25 44.85 25.15 47.4 26.25 48.95 27.5 50.0 M28.7 40.1 L26.5 37.25 Q25.0 34.8 24.9 32.95 L24.95 12.75 22.65 12.1 Q16.85 10.3 16.65 8.85 L16.55 6.95 16.65 3.95 16.75 2.65 20.2 3.95 21.65 4.5 22.65 4.85 23.7 5.25 Q25.0 5.8 25.5 6.8 L25.9 8.1 26.0 9.15 25.95 32.05 26.45 33.4 26.85 34.45 28.65 36.5 28.7 36.5 28.8 36.45 30.5 34.45 30.95 33.4 31.4 32.05 31.35 9.15 31.5 8.1 31.85 6.8 Q32.35 5.8 33.7 5.25 L34.7 4.85 35.75 4.5 37.2 3.95 40.6 2.65 40.7 3.95 40.85 6.95 40.7 8.85 Q40.55 10.3 34.7 12.1 L32.45 12.75 32.5 32.95 Q32.35 34.8 31.0 37.2 L29.5 39.2 28.7 40.1" fill="#000000" fill-rule="evenodd" stroke="none"/>
    </g>
  </defs>
</svg>
