<?xml version="1.0" encoding="UTF-8" standalone="no"?>
<svg xmlns:ffdec="https://www.free-decompiler.com/flash" xmlns:xlink="http://www.w3.org/1999/xlink" ffdec:objectType="frame" height="56.0px" width="56.0px" xmlns="http://www.w3.org/2000/svg">
  <g transform="matrix(1.0, 0.0, 0.0, 1.0, 0.0, 0.0)">
    <use ffdec:characterId="2" height="56.0" id="back" transform="matrix(1.0, 0.0, 0.0, 1.0, 0.0, 0.0)" width="56.0" xlink:href="#sprite0"/>
    <use ffdec:characterId="3" height="44.7" transform="matrix(1.0, 0.0, 0.0, 1.0, 2.7, 5.6)" width="50.75" xlink:href="#shape1"/>
  </g>
  <defs>
    <g id="sprite0" transform="matrix(1.0, 0.0, 0.0, 1.0, 0.0, 0.0)">
      <use ffdec:characterId="1" height="56.0" transform="matrix(1.0, 0.0, 0.0, 1.0, 0.0, 0.0)" width="56.0" xlink:href="#shape0"/>
    </g>
    <g id="shape0" transform="matrix(1.0, 0.0, 0.0, 1.0, 0.0, 0.0)">
      <path d="M56.0 56.0 L0.0 56.0 0.0 0.0 56.0 0.0 56.0 56.0" fill="#010101" fill-opacity="0.0" fill-rule="evenodd" stroke="none"/>
    </g>
    <g id="shape1" transform="matrix(1.0, 0.0, 0.0, 1.0, -2.7, -5.6)">
      <path d="M21.05 43.15 L21.15 42.95 21.35 42.85 21.55 42.95 Q23.4 45.1 26.6 44.65 L26.8 44.7 26.9 44.9 26.85 45.1 Q24.6 48.1 19.2 49.5 L19.1 49.45 18.95 49.4 18.9 49.25 18.95 49.05 Q20.9 46.1 21.05 43.15 M18.75 36.0 L18.75 35.9 18.9 35.75 19.0 35.7 19.15 35.8 Q23.4 38.95 33.15 37.85 L33.3 37.9 33.4 38.0 33.45 38.15 Q33.35 40.75 29.6 41.25 L29.55 41.25 Q19.55 41.2 18.75 36.0 M14.8 30.35 L14.8 30.2 14.85 30.05 15.0 30.0 15.15 30.0 Q27.55 35.1 37.75 29.35 L37.85 29.3 37.95 29.35 Q38.75 29.65 38.8 30.3 L38.25 31.65 Q35.65 34.7 31.45 35.2 17.65 36.55 14.8 30.35 M8.4 25.1 L8.55 25.25 8.55 25.4 8.45 25.55 Q7.55 26.25 5.35 24.95 2.85 23.4 3.7 20.95 L3.75 20.85 3.95 20.8 4.1 20.85 4.2 20.95 Q5.45 23.8 8.4 25.1 M46.0 18.85 Q38.55 23.2 28.65 24.4 L11.75 23.9 Q4.5 22.2 4.55 18.8 4.5 15.45 11.65 12.05 L11.65 12.0 Q18.6 8.7 28.45 7.2 38.3 5.75 45.25 6.9 52.45 8.2 52.4 11.65 52.45 14.95 46.0 18.85 M51.9 14.65 L52.05 14.55 52.2 14.5 52.35 14.55 52.45 14.7 Q53.15 16.8 51.3 18.3 L51.15 18.4 51.2 18.4 50.75 18.65 Q48.55 20.0 47.65 19.3 L47.55 19.15 47.55 18.95 47.7 18.8 Q50.65 17.5 51.9 14.65 M10.95 25.75 L10.9 25.6 10.9 25.45 11.0 25.3 11.2 25.3 Q31.9 29.4 46.05 19.7 L46.15 19.65 46.3 19.7 46.4 19.75 Q47.9 22.2 45.0 24.75 42.25 27.15 36.45 28.5 18.75 32.6 10.95 25.75 M47.75 11.85 Q47.65 10.1 42.15 9.6 L28.3 10.35 Q20.15 11.6 14.4 13.8 8.9 16.0 8.8 17.8 8.9 19.55 14.35 20.05 L28.2 19.3 Q36.4 18.1 42.1 15.8 47.65 13.65 47.75 11.85" fill="#000000" fill-rule="evenodd" stroke="none"/>
      <path d="M47.75 11.85 Q47.65 13.65 42.1 15.8 36.4 18.1 28.2 19.3 L14.35 20.05 Q8.9 19.55 8.8 17.8 8.9 16.0 14.4 13.8 20.15 11.6 28.3 10.35 L42.15 9.6 Q47.65 10.1 47.75 11.85 M10.95 25.75 Q18.75 32.6 36.45 28.5 42.25 27.15 45.0 24.75 47.9 22.2 46.4 19.75 L46.3 19.7 46.15 19.65 46.05 19.7 Q31.9 29.4 11.2 25.3 L11.0 25.3 10.9 25.45 10.9 25.6 10.95 25.75 M51.9 14.65 Q50.65 17.5 47.7 18.8 L47.55 18.95 47.55 19.15 47.65 19.3 Q48.55 20.0 50.75 18.65 L51.2 18.4 51.15 18.4 51.3 18.3 Q53.15 16.8 52.45 14.7 L52.35 14.55 52.2 14.5 52.05 14.55 51.9 14.65 M46.0 18.85 Q52.45 14.95 52.4 11.65 52.45 8.2 45.25 6.9 38.3 5.75 28.45 7.2 18.6 8.7 11.65 12.0 L11.65 12.05 Q4.5 15.45 4.55 18.8 4.5 22.2 11.75 23.9 L28.65 24.4 Q38.55 23.2 46.0 18.85 M8.4 25.1 Q5.45 23.8 4.2 20.95 L4.1 20.85 3.95 20.8 3.75 20.85 3.7 20.95 Q2.85 23.4 5.35 24.95 7.55 26.25 8.45 25.55 L8.55 25.4 8.55 25.25 8.4 25.1 M14.8 30.35 Q17.65 36.55 31.45 35.2 35.65 34.7 38.25 31.65 L38.8 30.3 Q38.75 29.65 37.95 29.35 L37.85 29.3 37.75 29.35 Q27.55 35.1 15.15 30.0 L15.0 30.0 14.85 30.05 14.8 30.2 14.8 30.35 M18.75 36.0 Q19.55 41.2 29.55 41.25 L29.6 41.25 Q33.35 40.75 33.45 38.15 L33.4 38.0 33.3 37.9 33.15 37.85 Q23.4 38.95 19.15 35.8 L19.0 35.7 18.9 35.75 18.75 35.9 18.75 36.0 M21.05 43.15 Q20.9 46.1 18.95 49.05 L18.9 49.25 18.95 49.4 19.1 49.45 19.2 49.5 Q24.6 48.1 26.85 45.1 L26.9 44.9 26.8 44.7 26.6 44.65 Q23.4 45.1 21.55 42.95 L21.35 42.85 21.15 42.95 21.05 43.15 Z" fill="none" stroke="#000000" stroke-linecap="round" stroke-linejoin="round" stroke-opacity="0.2" stroke-width="1.6"/>
      <path d="M21.05 43.15 L21.15 42.95 21.35 42.85 21.55 42.95 Q23.4 45.1 26.6 44.65 L26.8 44.7 26.9 44.9 26.85 45.1 Q24.6 48.1 19.2 49.5 L19.1 49.45 18.95 49.4 18.9 49.25 18.95 49.05 Q20.9 46.1 21.05 43.15 M18.75 36.0 L18.75 35.9 18.9 35.75 19.0 35.7 19.15 35.8 Q23.4 38.95 33.15 37.85 L33.3 37.9 33.4 38.0 33.45 38.15 Q33.35 40.75 29.6 41.25 L29.55 41.25 Q19.55 41.2 18.75 36.0 M14.8 30.35 L14.8 30.2 14.85 30.05 15.0 30.0 15.15 30.0 Q27.55 35.1 37.75 29.35 L37.85 29.3 37.95 29.35 Q38.75 29.65 38.8 30.3 L38.25 31.65 Q35.65 34.7 31.45 35.2 17.65 36.55 14.8 30.35 M8.4 25.1 L8.55 25.25 8.55 25.4 8.45 25.55 Q7.55 26.25 5.35 24.95 2.85 23.4 3.7 20.95 L3.75 20.85 3.95 20.8 4.1 20.85 4.2 20.95 Q5.45 23.8 8.4 25.1 M46.0 18.85 Q38.55 23.2 28.65 24.4 L11.75 23.9 Q4.5 22.2 4.55 18.8 4.5 15.45 11.65 12.05 L11.65 12.0 Q18.6 8.7 28.45 7.2 38.3 5.75 45.25 6.9 52.45 8.2 52.4 11.65 52.45 14.95 46.0 18.85 M51.9 14.65 L52.05 14.55 52.2 14.5 52.35 14.55 52.45 14.7 Q53.15 16.8 51.3 18.3 L51.15 18.4 51.2 18.4 50.75 18.65 Q48.55 20.0 47.65 19.3 L47.55 19.15 47.55 18.95 47.7 18.8 Q50.65 17.5 51.9 14.65 M10.95 25.75 L10.9 25.6 10.9 25.45 11.0 25.3 11.2 25.3 Q31.9 29.4 46.05 19.7 L46.15 19.65 46.3 19.7 46.4 19.75 Q47.9 22.2 45.0 24.75 42.25 27.15 36.45 28.5 18.75 32.6 10.95 25.75 M47.75 11.85 Q47.65 10.1 42.15 9.6 L28.3 10.35 Q20.15 11.6 14.4 13.8 8.9 16.0 8.8 17.8 8.9 19.55 14.35 20.05 L28.2 19.3 Q36.4 18.1 42.1 15.8 47.65 13.65 47.75 11.85" fill="#000000" fill-rule="evenodd" stroke="none"/>
    </g>
  </defs>
</svg>
