<?xml version="1.0" encoding="UTF-8" standalone="no"?>
<svg xmlns:ffdec="https://www.free-decompiler.com/flash" xmlns:xlink="http://www.w3.org/1999/xlink" ffdec:objectType="frame" height="56.0px" width="56.0px" xmlns="http://www.w3.org/2000/svg">
  <g transform="matrix(1.0, 0.0, 0.0, 1.0, 0.0, 0.0)">
    <use ffdec:characterId="2" height="56.0" id="back" transform="matrix(1.0, 0.0, 0.0, 1.0, 0.0, 0.0)" width="56.0" xlink:href="#sprite0"/>
    <use ffdec:characterId="3" height="44.0" transform="matrix(1.0, 0.0, 0.0, 1.0, 5.4, 4.1)" width="45.6" xlink:href="#shape1"/>
  </g>
  <defs>
    <g id="sprite0" transform="matrix(1.0, 0.0, 0.0, 1.0, 0.0, 0.0)">
      <use ffdec:characterId="1" height="56.0" transform="matrix(1.0, 0.0, 0.0, 1.0, 0.0, 0.0)" width="56.0" xlink:href="#shape0"/>
    </g>
    <g id="shape0" transform="matrix(1.0, 0.0, 0.0, 1.0, 0.0, 0.0)">
      <path d="M56.0 56.0 L0.0 56.0 0.0 0.0 56.0 0.0 56.0 56.0" fill="#010101" fill-opacity="0.0" fill-rule="evenodd" stroke="none"/>
    </g>
    <g id="shape1" transform="matrix(1.0, 0.0, 0.0, 1.0, -5.4, -4.1)">
      <path d="M19.1 47.3 Q25.25 40.9 26.1 32.55 20.55 40.05 12.5 38.45 10.05 37.6 8.6 36.05 6.2 33.6 6.2 29.45 6.1 25.35 8.6 23.1 10.05 21.75 12.5 21.15 17.4 18.7 26.75 27.95 L19.65 15.4 Q17.45 8.9 25.05 5.5 L26.85 5.05 28.35 4.9 28.6 4.9 29.55 5.05 31.35 5.5 Q38.95 8.9 36.8 15.4 L29.65 27.95 Q39.0 18.7 43.95 21.15 46.35 21.75 47.85 23.1 50.3 25.35 50.2 29.45 50.25 33.6 47.85 36.05 46.35 37.6 43.95 38.45 35.9 40.05 30.35 32.55 31.2 40.9 37.3 47.3 L19.1 47.3" fill="#000000" fill-rule="evenodd" stroke="none"/>
      <path d="M19.1 47.3 L37.3 47.3 Q31.2 40.9 30.35 32.55 35.9 40.05 43.95 38.45 46.35 37.6 47.85 36.05 50.25 33.6 50.2 29.45 50.3 25.35 47.85 23.1 46.35 21.75 43.95 21.15 39.0 18.7 29.65 27.95 L36.8 15.4 Q38.95 8.9 31.35 5.5 L29.55 5.05 28.6 4.9 28.35 4.9 26.85 5.05 25.05 5.5 Q17.45 8.9 19.65 15.4 L26.75 27.95 Q17.4 18.7 12.5 21.15 10.05 21.75 8.6 23.1 6.1 25.35 6.2 29.45 6.2 33.6 8.6 36.05 10.05 37.6 12.5 38.45 20.55 40.05 26.1 32.55 25.25 40.9 19.1 47.3 Z" fill="none" stroke="#000000" stroke-linecap="round" stroke-linejoin="round" stroke-opacity="0.2" stroke-width="1.6"/>
      <path d="M19.1 47.3 Q25.25 40.9 26.1 32.55 20.55 40.05 12.5 38.45 10.05 37.6 8.6 36.05 6.2 33.6 6.2 29.45 6.1 25.35 8.6 23.1 10.05 21.75 12.5 21.15 17.4 18.7 26.75 27.95 L19.65 15.4 Q17.45 8.9 25.05 5.5 L26.85 5.05 28.35 4.9 28.6 4.9 29.55 5.05 31.35 5.5 Q38.95 8.9 36.8 15.4 L29.65 27.95 Q39.0 18.7 43.95 21.15 46.35 21.75 47.85 23.1 50.3 25.35 50.2 29.45 50.25 33.6 47.85 36.05 46.35 37.6 43.95 38.45 35.9 40.05 30.35 32.55 31.2 40.9 37.3 47.3 L19.1 47.3" fill="#000000" fill-rule="evenodd" stroke="none"/>
    </g>
  </defs>
</svg>
