<?xml version="1.0" encoding="UTF-8" standalone="no"?>
<svg xmlns:ffdec="https://www.free-decompiler.com/flash" xmlns:xlink="http://www.w3.org/1999/xlink" ffdec:objectType="frame" height="56.0px" width="56.0px" xmlns="http://www.w3.org/2000/svg">
  <g transform="matrix(1.0, 0.0, 0.0, 1.0, 0.0, 0.0)">
    <use ffdec:characterId="2" height="56.0" id="back" transform="matrix(1.0, 0.0, 0.0, 1.0, 0.0, 0.0)" width="56.0" xlink:href="#sprite0"/>
    <use ffdec:characterId="3" height="46.9" transform="matrix(1.0, 0.0, 0.0, 1.0, 1.85, 5.35)" width="52.2" xlink:href="#shape1"/>
  </g>
  <defs>
    <g id="sprite0" transform="matrix(1.0, 0.0, 0.0, 1.0, 0.0, 0.0)">
      <use ffdec:characterId="1" height="56.0" transform="matrix(1.0, 0.0, 0.0, 1.0, 0.0, 0.0)" width="56.0" xlink:href="#shape0"/>
    </g>
    <g id="shape0" transform="matrix(1.0, 0.0, 0.0, 1.0, 0.0, 0.0)">
      <path d="M56.0 56.0 L0.0 56.0 0.0 0.0 56.0 0.0 56.0 56.0" fill="#010101" fill-opacity="0.0" fill-rule="evenodd" stroke="none"/>
    </g>
    <g id="shape1" transform="matrix(1.0, 0.0, 0.0, 1.0, -1.85, -5.35)">
      <path d="M49.2 7.7 Q49.4 9.95 48.65 11.75 50.75 11.2 52.9 12.25 54.55 16.9 52.1 20.6 48.5 22.25 44.7 20.05 L44.1 19.45 42.45 20.8 Q45.05 26.15 43.85 32.3 39.9 35.3 33.6 38.1 L37.3 37.95 Q33.9 42.25 30.5 45.4 21.75 45.25 17.4 41.7 L15.8 43.0 16.25 43.65 Q17.7 47.75 15.45 51.05 11.35 52.8 7.15 50.25 6.55 48.05 7.35 46.0 L3.35 45.85 Q1.0 40.5 4.2 36.9 7.05 36.35 9.35 37.45 10.7 38.15 11.45 38.75 L13.85 36.9 Q10.5 30.25 12.85 24.65 16.5 22.6 24.25 20.7 22.55 19.7 19.25 20.4 22.7 16.25 26.75 13.0 32.9 12.4 38.45 16.3 L40.75 14.4 39.85 12.1 Q39.2 9.65 40.2 6.9 44.35 4.45 49.2 7.7 M47.9 8.5 Q44.5 6.15 40.9 7.95 40.2 10.2 41.15 14.15 L41.3 15.0 41.45 15.4 41.15 15.1 39.15 16.75 40.85 18.25 42.05 20.2 43.7 18.75 43.65 18.65 43.8 18.75 44.45 19.2 Q46.85 20.6 51.1 19.7 52.95 16.25 51.75 13.1 50.05 12.15 48.35 12.2 L47.9 12.25 46.45 12.65 Q47.15 12.15 47.95 11.95 48.25 10.25 47.9 8.5 M16.4 35.7 L12.1 39.3 12.35 39.6 11.95 39.4 11.15 39.1 Q7.45 37.5 5.05 37.7 2.7 40.9 4.3 44.7 6.0 45.4 7.7 45.4 L8.7 44.0 8.05 45.4 7.95 45.9 Q7.55 47.55 8.15 49.3 11.05 51.1 14.8 49.95 16.45 45.9 15.5 43.3 L15.2 42.55 15.1 42.4 15.25 42.5 19.25 39.15 Q19.0 36.55 16.4 35.7" fill="#000000" fill-rule="evenodd" stroke="none"/>
      <path d="M49.2 7.7 Q44.35 4.45 40.2 6.9 39.2 9.65 39.85 12.1 L40.75 14.4 38.45 16.3 Q32.9 12.4 26.75 13.0 22.7 16.25 19.25 20.4 22.55 19.7 24.25 20.7 16.5 22.6 12.85 24.65 10.5 30.25 13.85 36.9 L11.45 38.75 Q10.7 38.15 9.35 37.45 7.05 36.35 4.2 36.9 1.0 40.5 3.35 45.85 L7.35 46.0 Q6.55 48.05 7.15 50.25 11.35 52.8 15.45 51.05 17.7 47.75 16.25 43.65 L15.8 43.0 17.4 41.7 Q21.75 45.25 30.5 45.4 33.9 42.25 37.3 37.95 L33.6 38.1 Q39.9 35.3 43.85 32.3 45.05 26.15 42.45 20.8 L44.1 19.45 44.7 20.05 Q48.5 22.25 52.1 20.6 54.55 16.9 52.9 12.25 50.75 11.2 48.65 11.75 49.4 9.95 49.2 7.7 M47.9 8.5 Q44.5 6.15 40.9 7.95 40.2 10.2 41.15 14.15 L41.3 15.0 41.45 15.4 41.15 15.1 39.15 16.75 40.85 18.25 42.05 20.2 43.7 18.75 43.65 18.65 43.8 18.75 44.45 19.2 Q46.85 20.6 51.1 19.7 52.95 16.25 51.75 13.1 50.05 12.15 48.35 12.2 L47.9 12.25 46.45 12.65 Q47.15 12.15 47.95 11.95 48.25 10.25 47.9 8.5 M16.4 35.7 Q19.0 36.55 19.25 39.15 L15.25 42.5 15.1 42.4 15.2 42.55 15.5 43.3 Q16.45 45.9 14.8 49.95 11.05 51.1 8.15 49.3 7.55 47.55 7.95 45.9 L8.05 45.4 8.7 44.0 7.7 45.4 Q6.0 45.4 4.3 44.7 2.7 40.9 5.05 37.7 7.45 37.5 11.15 39.1 L11.95 39.4 12.35 39.6 12.1 39.3 16.4 35.7 Z" fill="none" stroke="#000000" stroke-linecap="round" stroke-linejoin="round" stroke-opacity="0.2" stroke-width="1.0"/>
      <path d="M49.2 7.7 Q49.4 9.95 48.65 11.75 50.75 11.2 52.9 12.25 54.55 16.9 52.1 20.6 48.5 22.25 44.7 20.05 L44.1 19.45 42.45 20.8 Q45.05 26.15 43.85 32.3 39.9 35.3 33.6 38.1 L37.3 37.95 Q33.9 42.25 30.5 45.4 21.75 45.25 17.4 41.7 L15.8 43.0 16.25 43.65 Q17.7 47.75 15.45 51.05 11.35 52.8 7.15 50.25 6.55 48.05 7.35 46.0 L3.35 45.85 Q1.0 40.5 4.2 36.9 7.05 36.35 9.35 37.45 10.7 38.15 11.45 38.75 L13.85 36.9 Q10.5 30.25 12.85 24.65 16.5 22.6 24.25 20.7 22.55 19.7 19.25 20.4 22.7 16.25 26.75 13.0 32.9 12.4 38.45 16.3 L40.75 14.4 39.85 12.1 Q39.2 9.65 40.2 6.9 44.35 4.45 49.2 7.7 M47.9 8.5 Q44.5 6.15 40.9 7.95 40.2 10.2 41.15 14.15 L41.3 15.0 41.45 15.4 41.15 15.1 39.15 16.75 40.85 18.25 42.05 20.2 43.7 18.75 43.65 18.65 43.8 18.75 44.45 19.2 Q46.85 20.6 51.1 19.7 52.95 16.25 51.75 13.1 50.05 12.15 48.35 12.2 L47.9 12.25 46.45 12.65 Q47.15 12.15 47.95 11.95 48.25 10.25 47.9 8.5 M16.4 35.7 L12.1 39.3 12.35 39.6 11.95 39.4 11.15 39.1 Q7.45 37.5 5.05 37.7 2.7 40.9 4.3 44.7 6.0 45.4 7.7 45.4 L8.7 44.0 8.05 45.4 7.95 45.9 Q7.55 47.55 8.15 49.3 11.05 51.1 14.8 49.95 16.45 45.9 15.5 43.3 L15.2 42.55 15.1 42.4 15.25 42.5 19.25 39.15 Q19.0 36.55 16.4 35.7" fill="#000000" fill-rule="evenodd" stroke="none"/>
    </g>
  </defs>
</svg>
