<?xml version="1.0" encoding="UTF-8" standalone="no"?>
<svg xmlns:ffdec="https://www.free-decompiler.com/flash" xmlns:xlink="http://www.w3.org/1999/xlink" ffdec:objectType="frame" height="56.0px" width="56.0px" xmlns="http://www.w3.org/2000/svg">
  <g transform="matrix(1.0, 0.0, 0.0, 1.0, 0.0, 0.0)">
    <use ffdec:characterId="2" height="56.0" id="back" transform="matrix(1.0, 0.0, 0.0, 1.0, 0.0, 0.0)" width="56.0" xlink:href="#sprite0"/>
    <use ffdec:characterId="3" height="51.7" transform="matrix(1.0, 0.0, 0.0, 1.0, 3.25, 2.2)" width="49.0" xlink:href="#shape1"/>
  </g>
  <defs>
    <g id="sprite0" transform="matrix(1.0, 0.0, 0.0, 1.0, 0.0, 0.0)">
      <use ffdec:characterId="1" height="56.0" transform="matrix(1.0, 0.0, 0.0, 1.0, 0.0, 0.0)" width="56.0" xlink:href="#shape0"/>
    </g>
    <g id="shape0" transform="matrix(1.0, 0.0, 0.0, 1.0, 0.0, 0.0)">
      <path d="M56.0 56.0 L0.0 56.0 0.0 0.0 56.0 0.0 56.0 56.0" fill="#010101" fill-opacity="0.0" fill-rule="evenodd" stroke="none"/>
    </g>
    <g id="shape1" transform="matrix(1.0, 0.0, 0.0, 1.0, -3.25, -2.2)">
      <path d="M30.1 4.35 L30.1 14.25 35.4 14.25 35.4 17.85 32.55 17.85 32.55 47.4 27.8 53.4 23.1 47.4 23.1 17.85 20.25 17.85 20.25 14.25 25.55 14.25 25.55 4.35 Q26.15 2.55 27.8 2.7 29.5 2.55 30.1 4.35 M21.5 27.8 Q14.25 25.95 9.85 24.05 7.75 21.2 11.2 21.3 6.4 20.15 5.75 17.3 5.75 15.75 9.65 16.1 1.3 12.75 4.75 10.65 13.65 8.75 16.4 13.65 18.2 21.15 21.5 24.05 L21.5 27.8 M34.0 27.8 L34.0 24.05 Q37.3 21.15 39.1 13.65 41.85 8.75 50.75 10.65 54.2 12.75 45.85 16.1 49.75 15.75 49.75 17.3 49.1 20.15 44.3 21.3 47.75 21.2 45.65 24.05 41.25 25.95 34.0 27.8 M26.9 18.2 L27.9 47.8 28.75 18.2 26.9 18.2" fill="#000000" fill-rule="evenodd" stroke="none"/>
      <path d="M30.1 4.35 L30.1 14.25 35.4 14.25 35.4 17.85 32.55 17.85 32.55 47.4 27.8 53.4 23.1 47.4 23.1 17.85 20.25 17.85 20.25 14.25 25.55 14.25 25.55 4.35 Q26.15 2.55 27.8 2.7 29.5 2.55 30.1 4.35 M21.5 27.8 L21.5 24.05 Q18.2 21.15 16.4 13.65 13.65 8.75 4.75 10.65 1.3 12.75 9.65 16.1 5.75 15.75 5.75 17.3 6.4 20.15 11.2 21.3 7.75 21.2 9.85 24.05 14.25 25.95 21.5 27.8 M34.0 27.8 L34.0 24.05 Q37.3 21.15 39.1 13.65 41.85 8.75 50.75 10.65 54.2 12.75 45.85 16.1 49.75 15.75 49.75 17.3 49.1 20.15 44.3 21.3 47.75 21.2 45.65 24.05 41.25 25.95 34.0 27.8 M26.9 18.2 L28.75 18.2 27.9 47.8 26.9 18.2 Z" fill="none" stroke="#000000" stroke-linecap="round" stroke-linejoin="round" stroke-opacity="0.2" stroke-width="1.0"/>
      <path d="M30.1 4.35 L30.1 14.25 35.4 14.25 35.4 17.85 32.55 17.85 32.55 47.4 27.8 53.4 23.1 47.4 23.1 17.85 20.25 17.85 20.25 14.25 25.55 14.25 25.55 4.35 Q26.15 2.55 27.8 2.7 29.5 2.55 30.1 4.35 M21.5 27.8 Q14.25 25.95 9.85 24.05 7.75 21.2 11.2 21.3 6.4 20.15 5.75 17.3 5.75 15.75 9.65 16.1 1.3 12.75 4.75 10.65 13.65 8.75 16.4 13.65 18.2 21.15 21.5 24.05 L21.5 27.8 M34.0 27.8 L34.0 24.05 Q37.3 21.15 39.1 13.65 41.85 8.75 50.75 10.65 54.2 12.75 45.85 16.1 49.75 15.75 49.75 17.3 49.1 20.15 44.3 21.3 47.75 21.2 45.65 24.05 41.25 25.95 34.0 27.8 M26.9 18.2 L27.9 47.8 28.75 18.2 26.9 18.2" fill="#000000" fill-rule="evenodd" stroke="none"/>
    </g>
  </defs>
</svg>
