<?xml version="1.0" encoding="UTF-8" standalone="no"?>
<svg xmlns:ffdec="https://www.free-decompiler.com/flash" xmlns:xlink="http://www.w3.org/1999/xlink" ffdec:objectType="frame" height="56.0px" width="56.0px" xmlns="http://www.w3.org/2000/svg">
  <g transform="matrix(1.0, 0.0, 0.0, 1.0, 0.0, 0.0)">
    <use ffdec:characterId="2" height="56.0" id="back" transform="matrix(1.0, 0.0, 0.0, 1.0, 0.0, 0.0)" width="56.0" xlink:href="#sprite0"/>
    <use ffdec:characterId="3" height="44.5" transform="matrix(1.0, 0.0, 0.0, 1.0, 2.6, 7.5)" width="50.85" xlink:href="#shape1"/>
  </g>
  <defs>
    <g id="sprite0" transform="matrix(1.0, 0.0, 0.0, 1.0, 0.0, 0.0)">
      <use ffdec:characterId="1" height="56.0" transform="matrix(1.0, 0.0, 0.0, 1.0, 0.0, 0.0)" width="56.0" xlink:href="#shape0"/>
    </g>
    <g id="shape0" transform="matrix(1.0, 0.0, 0.0, 1.0, 0.0, 0.0)">
      <path d="M56.0 56.0 L0.0 56.0 0.0 0.0 56.0 0.0 56.0 56.0" fill="#010101" fill-opacity="0.0" fill-rule="evenodd" stroke="none"/>
    </g>
    <g id="shape1" transform="matrix(1.0, 0.0, 0.0, 1.0, -2.6, -7.5)">
      <path d="M52.65 23.4 Q52.65 26.75 51.7 29.5 49.15 37.75 39.75 44.2 34.15 48.05 26.6 51.2 22.95 49.45 19.55 47.2 L27.4 31.2 30.05 34.65 44.1 8.9 Q47.25 10.35 49.05 12.65 52.65 17.2 52.65 23.4 M30.45 38.7 L27.75 35.4 22.75 45.9 26.5 48.25 Q41.25 42.9 47.45 31.45 53.6 19.95 44.7 12.85 L30.45 38.7 M36.3 11.95 Q31.75 12.5 27.95 19.8 22.4 10.35 13.95 11.85 5.45 13.4 6.35 24.1 7.2 34.8 16.0 42.0 L25.95 20.8 29.05 24.95 36.3 11.95 M27.6 15.65 L28.35 14.3 Q31.8 7.9 40.7 8.35 L29.6 29.4 26.25 24.8 16.3 45.4 Q7.5 39.4 4.55 29.5 L4.3 28.8 3.9 27.5 Q3.4 25.5 3.4 23.4 3.4 17.2 6.95 12.65 7.9 11.4 9.05 10.55 11.35 8.65 14.15 8.35 L14.9 8.35 Q23.3 7.65 26.9 14.4 L27.6 15.65" fill="#000000" fill-rule="evenodd" stroke="none"/>
      <path d="M52.65 23.4 Q52.65 26.75 51.7 29.5 49.15 37.75 39.75 44.2 34.15 48.05 26.6 51.2 22.95 49.45 19.55 47.2 L27.4 31.2 30.05 34.65 44.1 8.9 Q47.25 10.35 49.05 12.65 52.65 17.2 52.65 23.4 M30.45 38.7 L44.7 12.85 Q53.6 19.95 47.45 31.45 41.25 42.9 26.5 48.25 L22.75 45.9 27.75 35.4 30.45 38.7 M36.3 11.95 Q31.75 12.5 27.95 19.8 22.4 10.35 13.95 11.85 5.45 13.4 6.35 24.1 7.2 34.8 16.0 42.0 L25.95 20.8 29.05 24.95 36.3 11.95 M27.6 15.65 L28.35 14.3 Q31.8 7.9 40.7 8.35 L29.6 29.4 26.25 24.8 16.3 45.4 Q7.5 39.4 4.55 29.5 L4.3 28.8 3.9 27.5 Q3.4 25.5 3.4 23.4 3.4 17.2 6.95 12.65 7.9 11.4 9.05 10.55 11.35 8.65 14.15 8.35 L14.9 8.35 Q23.3 7.65 26.9 14.4 L27.6 15.65 Z" fill="none" stroke="#000000" stroke-linecap="round" stroke-linejoin="round" stroke-opacity="0.2" stroke-width="1.6"/>
      <path d="M30.45 38.7 L27.75 35.4 22.75 45.9 26.5 48.25 Q41.25 42.9 47.45 31.45 53.6 19.95 44.7 12.85 L30.45 38.7 M52.65 23.4 Q52.65 26.75 51.7 29.5 49.15 37.75 39.75 44.2 34.15 48.05 26.6 51.2 22.95 49.45 19.55 47.2 L27.4 31.2 30.05 34.65 44.1 8.9 Q47.25 10.35 49.05 12.65 52.65 17.2 52.65 23.4 M27.6 15.65 L28.35 14.3 Q31.8 7.9 40.7 8.35 L29.6 29.4 26.25 24.8 16.3 45.4 Q7.5 39.4 4.55 29.5 L4.3 28.8 3.9 27.5 Q3.4 25.5 3.4 23.4 3.4 17.2 6.95 12.65 7.9 11.4 9.05 10.55 11.35 8.65 14.15 8.35 L14.9 8.35 Q23.3 7.65 26.9 14.4 L27.6 15.65 M36.3 11.95 Q31.75 12.5 27.95 19.8 22.4 10.35 13.95 11.85 5.45 13.4 6.35 24.1 7.2 34.8 16.0 42.0 L25.95 20.8 29.05 24.95 36.3 11.95" fill="#000000" fill-rule="evenodd" stroke="none"/>
    </g>
  </defs>
</svg>
