<?xml version="1.0" encoding="UTF-8" standalone="no"?>
<svg xmlns:ffdec="https://www.free-decompiler.com/flash" xmlns:xlink="http://www.w3.org/1999/xlink" ffdec:objectType="frame" height="56.0px" width="56.0px" xmlns="http://www.w3.org/2000/svg">
  <g transform="matrix(1.0, 0.0, 0.0, 1.0, 0.0, 0.0)">
    <use ffdec:characterId="2" height="56.0" id="back" transform="matrix(1.0, 0.0, 0.0, 1.0, 0.0, 0.0)" width="56.0" xlink:href="#sprite0"/>
    <use ffdec:characterId="3" height="51.3" transform="matrix(1.0, 0.0, 0.0, 1.0, 3.2, 1.1)" width="50.65" xlink:href="#shape1"/>
  </g>
  <defs>
    <g id="sprite0" transform="matrix(1.0, 0.0, 0.0, 1.0, 0.0, 0.0)">
      <use ffdec:characterId="1" height="56.0" transform="matrix(1.0, 0.0, 0.0, 1.0, 0.0, 0.0)" width="56.0" xlink:href="#shape0"/>
    </g>
    <g id="shape0" transform="matrix(1.0, 0.0, 0.0, 1.0, 0.0, 0.0)">
      <path d="M56.0 56.0 L0.0 56.0 0.0 0.0 56.0 0.0 56.0 56.0" fill="#010101" fill-opacity="0.0" fill-rule="evenodd" stroke="none"/>
    </g>
    <g id="shape1" transform="matrix(1.0, 0.0, 0.0, 1.0, -3.2, -1.1)">
      <path d="M28.6 23.8 Q28.6 24.8 29.1 24.8 29.55 24.8 30.05 24.2 L39.45 12.5 Q40.9 10.0 39.7 7.95 38.5 6.0 36.15 5.2 L32.35 4.9 Q29.75 5.4 29.35 8.7 L28.6 23.8 M27.7 23.85 L28.3 8.9 Q28.15 5.65 25.65 5.1 L21.9 5.35 Q19.55 6.15 18.05 8.05 16.5 10.0 18.05 12.55 L26.2 24.2 27.1 24.8 Q27.55 24.8 27.7 23.85 M53.05 29.1 Q51.55 40.0 43.3 46.65 35.05 53.2 24.85 51.55 14.65 49.95 8.55 41.0 4.0 34.35 3.7 26.6 L3.75 26.6 Q4.1 19.05 8.6 12.5 14.7 3.55 24.85 1.95 35.05 0.3 43.3 6.85 51.55 13.5 53.1 24.4 L53.35 26.9 53.05 29.1 M30.55 24.35 Q30.05 24.95 30.3 25.25 L31.25 25.4 42.3 22.35 Q45.05 21.65 46.4 20.15 47.65 18.55 46.65 16.0 45.6 13.5 43.3 13.1 40.95 12.6 38.45 15.45 L30.55 24.35 M25.75 24.45 L18.8 15.55 Q16.55 12.75 14.3 13.15 11.95 13.55 10.75 16.05 9.55 18.55 10.7 20.05 11.8 21.65 14.45 22.35 L25.0 25.45 25.9 25.35 Q26.15 25.1 25.75 24.45 M30.5 29.15 L38.4 38.05 Q40.95 40.9 43.3 40.4 45.6 40.0 46.6 37.5 47.65 34.95 46.35 33.35 45.0 31.8 42.3 31.15 L31.25 28.1 30.3 28.25 Q30.0 28.55 30.5 29.15 M31.95 27.65 L43.0 30.9 Q46.55 31.8 48.35 30.15 49.6 29.0 49.75 27.2 49.6 24.5 48.35 23.35 46.6 21.7 43.05 22.6 L32.0 25.85 Q31.35 26.05 31.35 27.15 L31.95 27.65 M24.1 27.6 L24.65 27.05 Q24.7 26.1 24.15 25.9 L13.55 22.65 Q10.25 21.75 8.3 23.35 6.95 24.6 6.65 27.2 6.95 28.9 8.3 30.15 10.25 31.75 13.55 30.85 L24.1 27.6 M28.6 29.7 L29.3 44.8 Q29.75 48.1 32.35 48.6 L36.1 48.3 Q38.5 47.5 39.65 45.5 40.9 43.5 39.4 41.0 L30.05 29.3 Q29.55 28.7 29.05 28.7 28.6 28.7 28.6 29.7 M27.65 29.65 Q27.55 28.7 27.1 28.7 26.65 28.65 26.2 29.3 L18.05 40.95 Q16.5 43.5 18.0 45.45 19.55 47.35 21.9 48.15 L25.6 48.4 Q28.1 47.85 28.25 44.6 L27.65 29.65 M25.7 29.05 Q26.1 28.4 25.85 28.15 L24.95 28.05 14.45 31.15 Q11.8 31.85 10.65 33.45 9.5 34.95 10.75 37.45 11.95 39.95 14.25 40.35 16.55 40.7 18.8 37.95 L25.7 29.05" fill="#000000" fill-rule="evenodd" stroke="none"/>
      <path d="M28.6 23.8 Q28.6 24.8 29.1 24.8 29.55 24.8 30.05 24.2 L39.45 12.5 Q40.9 10.0 39.7 7.95 38.5 6.0 36.15 5.2 L32.35 4.9 Q29.75 5.4 29.35 8.7 L28.6 23.8 M27.7 23.85 Q27.55 24.8 27.1 24.8 L26.2 24.2 18.05 12.55 Q16.5 10.0 18.05 8.05 19.55 6.15 21.9 5.35 L25.65 5.1 Q28.15 5.65 28.3 8.9 L27.7 23.85 M53.05 29.1 Q51.55 40.0 43.3 46.65 35.05 53.2 24.85 51.55 14.65 49.95 8.55 41.0 4.0 34.35 3.7 26.6 L3.75 26.6 Q4.1 19.05 8.6 12.5 14.7 3.55 24.85 1.95 35.05 0.3 43.3 6.85 51.55 13.5 53.1 24.4 L53.35 26.9 53.05 29.1 M30.55 24.35 Q30.05 24.95 30.3 25.25 L31.25 25.4 42.3 22.35 Q45.05 21.65 46.4 20.15 47.65 18.55 46.65 16.0 45.6 13.5 43.3 13.1 40.95 12.6 38.45 15.45 L30.55 24.35 M31.95 27.65 L31.35 27.15 Q31.35 26.05 32.0 25.85 L43.05 22.6 Q46.6 21.7 48.35 23.35 49.6 24.5 49.75 27.2 49.6 29.0 48.35 30.15 46.55 31.8 43.0 30.9 L31.95 27.65 M30.5 29.15 Q30.0 28.55 30.3 28.25 L31.25 28.1 42.3 31.15 Q45.0 31.8 46.35 33.35 47.65 34.95 46.6 37.5 45.6 40.0 43.3 40.4 40.95 40.9 38.4 38.05 L30.5 29.15 M25.75 24.45 Q26.15 25.1 25.9 25.35 L25.0 25.45 14.45 22.35 Q11.8 21.65 10.7 20.05 9.55 18.55 10.75 16.05 11.95 13.55 14.3 13.15 16.55 12.75 18.8 15.55 L25.75 24.45 M24.1 27.6 L24.65 27.05 Q24.7 26.1 24.15 25.9 L13.55 22.65 Q10.25 21.75 8.3 23.35 6.95 24.6 6.65 27.2 6.95 28.9 8.3 30.15 10.25 31.75 13.55 30.85 L24.1 27.6 M28.6 29.7 Q28.6 28.7 29.05 28.7 29.55 28.7 30.05 29.3 L39.4 41.0 Q40.9 43.5 39.65 45.5 38.5 47.5 36.1 48.3 L32.35 48.6 Q29.75 48.1 29.3 44.8 L28.6 29.7 M27.65 29.65 Q27.55 28.7 27.1 28.7 26.65 28.65 26.2 29.3 L18.05 40.95 Q16.5 43.5 18.0 45.45 19.55 47.35 21.9 48.15 L25.6 48.4 Q28.1 47.85 28.25 44.6 L27.65 29.65 M25.7 29.05 Q26.1 28.4 25.85 28.15 L24.95 28.05 14.45 31.15 Q11.8 31.85 10.65 33.45 9.5 34.95 10.75 37.45 11.95 39.95 14.25 40.35 16.55 40.7 18.8 37.95 L25.7 29.05 Z" fill="none" stroke="#000000" stroke-linecap="round" stroke-linejoin="round" stroke-opacity="0.2" stroke-width="1.0"/>
      <path d="M28.6 23.8 Q28.6 24.8 29.1 24.8 29.55 24.8 30.05 24.2 L39.45 12.5 Q40.9 10.0 39.7 7.95 38.5 6.0 36.15 5.2 L32.35 4.9 Q29.75 5.4 29.35 8.7 L28.6 23.8 M27.7 23.85 L28.3 8.9 Q28.15 5.65 25.65 5.1 L21.9 5.35 Q19.55 6.15 18.05 8.05 16.5 10.0 18.05 12.55 L26.2 24.2 27.1 24.8 Q27.55 24.8 27.7 23.85 M53.05 29.1 Q51.55 40.0 43.3 46.65 35.05 53.2 24.85 51.55 14.65 49.95 8.55 41.0 4.0 34.35 3.7 26.6 L3.75 26.6 Q4.1 19.05 8.6 12.5 14.7 3.55 24.85 1.95 35.05 0.3 43.3 6.85 51.55 13.5 53.1 24.4 L53.35 26.9 53.05 29.1 M30.55 24.35 Q30.05 24.95 30.3 25.25 L31.25 25.4 42.3 22.35 Q45.05 21.65 46.4 20.15 47.65 18.55 46.65 16.0 45.6 13.5 43.3 13.1 40.95 12.6 38.45 15.45 L30.55 24.35 M25.75 24.45 L18.8 15.55 Q16.55 12.75 14.3 13.15 11.95 13.55 10.75 16.05 9.55 18.55 10.7 20.05 11.8 21.65 14.45 22.35 L25.0 25.45 25.9 25.35 Q26.15 25.1 25.75 24.45 M30.5 29.15 L38.4 38.05 Q40.95 40.9 43.3 40.4 45.6 40.0 46.6 37.5 47.65 34.95 46.35 33.35 45.0 31.8 42.3 31.15 L31.25 28.1 30.3 28.25 Q30.0 28.55 30.5 29.15 M31.95 27.65 L43.0 30.9 Q46.55 31.8 48.35 30.15 49.6 29.0 49.75 27.2 49.6 24.5 48.35 23.35 46.6 21.7 43.05 22.6 L32.0 25.85 Q31.35 26.05 31.35 27.15 L31.95 27.65 M24.1 27.6 L24.65 27.05 Q24.7 26.1 24.15 25.9 L13.55 22.65 Q10.25 21.75 8.3 23.35 6.95 24.6 6.65 27.2 6.95 28.9 8.3 30.15 10.25 31.75 13.55 30.85 L24.1 27.6 M28.6 29.7 L29.3 44.8 Q29.75 48.1 32.35 48.6 L36.1 48.3 Q38.5 47.5 39.65 45.5 40.9 43.5 39.4 41.0 L30.05 29.3 Q29.55 28.7 29.05 28.7 28.6 28.7 28.6 29.7 M27.65 29.65 Q27.55 28.7 27.1 28.7 26.65 28.65 26.2 29.3 L18.05 40.95 Q16.5 43.5 18.0 45.45 19.55 47.35 21.9 48.15 L25.6 48.4 Q28.1 47.85 28.25 44.6 L27.65 29.65 M25.7 29.05 Q26.1 28.4 25.85 28.15 L24.95 28.05 14.45 31.15 Q11.8 31.85 10.65 33.45 9.5 34.95 10.75 37.45 11.95 39.95 14.25 40.35 16.55 40.7 18.8 37.95 L25.7 29.05" fill="#000000" fill-rule="evenodd" stroke="none"/>
    </g>
  </defs>
</svg>
