<?xml version="1.0" encoding="UTF-8" standalone="no"?>
<svg xmlns:ffdec="https://www.free-decompiler.com/flash" xmlns:xlink="http://www.w3.org/1999/xlink" ffdec:objectType="frame" height="56.0px" width="56.0px" xmlns="http://www.w3.org/2000/svg">
  <g transform="matrix(1.0, 0.0, 0.0, 1.0, 0.0, 0.0)">
    <use ffdec:characterId="2" height="56.0" id="back" transform="matrix(1.0, 0.0, 0.0, 1.0, 0.0, 0.0)" width="56.0" xlink:href="#sprite0"/>
    <use ffdec:characterId="3" height="46.35" transform="matrix(1.0, 0.0, 0.0, 1.0, 3.25, 3.55)" width="50.0" xlink:href="#shape1"/>
  </g>
  <defs>
    <g id="sprite0" transform="matrix(1.0, 0.0, 0.0, 1.0, 0.0, 0.0)">
      <use ffdec:characterId="1" height="56.0" transform="matrix(1.0, 0.0, 0.0, 1.0, 0.0, 0.0)" width="56.0" xlink:href="#shape0"/>
    </g>
    <g id="shape0" transform="matrix(1.0, 0.0, 0.0, 1.0, 0.0, 0.0)">
      <path d="M56.0 56.0 L0.0 56.0 0.0 0.0 56.0 0.0 56.0 56.0" fill="#010101" fill-opacity="0.0" fill-rule="evenodd" stroke="none"/>
    </g>
    <g id="shape1" transform="matrix(1.0, 0.0, 0.0, 1.0, -3.25, -3.55)">
      <path d="M52.45 28.0 Q53.15 29.75 52.25 31.35 L50.15 35.1 45.35 35.4 38.4 23.35 46.95 18.45 52.45 28.0 M40.9 46.4 L34.3 46.8 34.3 49.4 28.35 42.3 34.35 34.15 34.3 36.95 49.35 36.4 44.4 44.95 Q42.8 46.4 40.9 46.4 M38.8 6.45 L42.45 11.9 Q43.6 11.3 44.7 10.65 L41.55 19.25 31.5 18.2 33.9 16.85 25.95 4.05 35.85 4.05 Q37.75 4.7 38.8 6.45 M17.1 5.6 Q18.25 4.1 20.15 4.05 L24.4 4.05 27.0 8.0 20.1 20.05 11.6 15.15 17.1 5.6 M4.1 28.9 L7.75 22.35 5.3 21.0 15.3 19.75 18.7 28.35 16.2 27.05 11.15 36.0 6.4 35.85 4.25 32.3 Q3.35 30.7 4.1 28.9 M16.15 46.75 L14.6 46.7 Q13.25 46.5 12.15 45.5 L7.2 37.2 25.3 36.9 25.3 46.7 16.15 46.75" fill="#000000" fill-rule="evenodd" stroke="none"/>
      <path d="M52.45 28.0 Q53.15 29.75 52.25 31.35 L50.15 35.1 45.35 35.4 38.4 23.35 46.95 18.45 52.45 28.0 M38.8 6.45 Q37.75 4.7 35.85 4.05 L25.95 4.05 33.9 16.85 31.5 18.2 41.55 19.25 44.7 10.65 Q43.6 11.3 42.45 11.9 L38.8 6.45 M40.9 46.4 Q42.8 46.4 44.4 44.95 L49.35 36.4 34.3 36.95 34.35 34.15 28.35 42.3 34.3 49.4 34.3 46.8 40.9 46.4 M17.1 5.6 Q18.25 4.1 20.15 4.05 L24.4 4.05 27.0 8.0 20.1 20.05 11.6 15.15 17.1 5.6 M4.1 28.9 Q3.35 30.7 4.25 32.3 L6.4 35.85 11.15 36.0 16.2 27.05 18.7 28.35 15.3 19.75 5.3 21.0 7.75 22.35 4.1 28.9 M16.15 46.75 L14.6 46.7 Q13.25 46.5 12.15 45.5 L7.2 37.2 25.3 36.9 25.3 46.7 16.15 46.75 Z" fill="none" stroke="#000000" stroke-linecap="round" stroke-linejoin="round" stroke-opacity="0.2" stroke-width="1.0"/>
      <path d="M38.85 6.45 L42.5 11.95 44.75 10.65 41.6 19.25 31.55 18.2 33.95 16.85 26.0 4.1 35.9 4.1 Q37.8 4.75 38.85 6.45 M17.15 5.6 Q18.3 4.1 20.2 4.1 L24.45 4.1 27.05 8.0 20.15 20.1 11.65 15.2 17.15 5.6" fill="#000000" fill-rule="evenodd" stroke="none"/>
      <path d="M40.85 46.4 L34.3 46.8 34.25 49.4 28.35 42.35 34.3 34.15 34.3 37.0 49.35 36.45 44.4 45.0 Q42.85 46.35 40.85 46.4 M52.4 28.0 Q53.15 29.75 52.2 31.4 L50.1 35.1 45.35 35.4 38.4 23.35 46.9 18.45 52.4 28.0" fill="#000000" fill-rule="evenodd" stroke="none"/>
      <path d="M4.1 28.9 L7.75 22.4 5.3 21.05 15.3 19.75 18.65 28.35 16.2 27.05 11.15 36.0 6.45 35.9 4.3 32.3 Q3.35 30.7 4.1 28.9 M16.15 46.75 L14.6 46.7 Q13.25 46.5 12.1 45.5 L7.2 37.2 25.25 36.9 25.25 46.7 16.15 46.75" fill="#000000" fill-rule="evenodd" stroke="none"/>
    </g>
  </defs>
</svg>
