<?xml version="1.0" encoding="UTF-8" standalone="no"?>
<svg xmlns:ffdec="https://www.free-decompiler.com/flash" xmlns:xlink="http://www.w3.org/1999/xlink" ffdec:objectType="frame" height="56.0px" width="56.0px" xmlns="http://www.w3.org/2000/svg">
  <g transform="matrix(1.0, 0.0, 0.0, 1.0, 0.0, 0.0)">
    <use ffdec:characterId="2" height="56.0" id="back" transform="matrix(1.0, 0.0, 0.0, 1.0, 0.0, 0.0)" width="56.0" xlink:href="#sprite0"/>
    <use ffdec:characterId="3" height="49.6" transform="matrix(1.0, 0.0, 0.0, 1.0, 3.25, 2.55)" width="48.1" xlink:href="#shape1"/>
  </g>
  <defs>
    <g id="sprite0" transform="matrix(1.0, 0.0, 0.0, 1.0, 0.0, 0.0)">
      <use ffdec:characterId="1" height="56.0" transform="matrix(1.0, 0.0, 0.0, 1.0, 0.0, 0.0)" width="56.0" xlink:href="#shape0"/>
    </g>
    <g id="shape0" transform="matrix(1.0, 0.0, 0.0, 1.0, 0.0, 0.0)">
      <path d="M56.0 56.0 L0.0 56.0 0.0 0.0 56.0 0.0 56.0 56.0" fill="#010101" fill-opacity="0.0" fill-rule="evenodd" stroke="none"/>
    </g>
    <g id="shape1" transform="matrix(1.0, 0.0, 0.0, 1.0, -3.25, -2.55)">
      <path d="M43.45 24.4 L24.85 43.0 27.55 45.7 Q27.0 47.35 25.35 47.9 L18.95 41.5 15.95 44.5 19.45 48.0 Q18.85 51.3 15.8 51.65 L3.75 39.6 Q4.75 36.7 7.4 35.95 L10.95 39.5 13.95 36.5 7.5 30.05 Q7.9 28.25 9.7 27.85 L12.4 30.55 31.0 11.95 34.3 15.25 Q35.9 13.15 38.25 12.2 39.25 12.6 39.95 13.2 L50.1 3.05 50.85 6.8 42.15 15.5 43.25 17.2 Q42.6 19.75 40.2 21.15 L43.45 24.4 M38.9 24.0 L31.0 16.05 20.75 26.3 36.55 26.3 38.9 24.0" fill="#000000" fill-rule="evenodd" stroke="none"/>
      <path d="M43.45 24.4 L24.85 43.0 27.55 45.7 Q27.0 47.35 25.35 47.9 L18.95 41.5 15.95 44.5 19.45 48.0 Q18.85 51.3 15.8 51.65 L3.75 39.6 Q4.75 36.7 7.4 35.95 L10.95 39.5 13.95 36.5 7.5 30.05 Q7.9 28.25 9.7 27.85 L12.4 30.55 31.0 11.95 34.3 15.25 Q35.9 13.15 38.25 12.2 39.25 12.6 39.95 13.2 L50.1 3.05 50.85 6.8 42.15 15.5 43.25 17.2 Q42.6 19.75 40.2 21.15 L43.45 24.4 M38.9 24.0 L31.0 16.05 20.75 26.3 36.55 26.3 38.9 24.0 Z" fill="none" stroke="#000000" stroke-linecap="round" stroke-linejoin="round" stroke-opacity="0.2" stroke-width="1.0"/>
      <path d="M43.45 24.4 L24.85 43.0 27.55 45.7 Q27.0 47.35 25.35 47.9 L18.95 41.5 15.95 44.5 19.45 48.0 Q18.85 51.3 15.8 51.65 L3.75 39.6 Q4.75 36.7 7.4 35.95 L10.95 39.5 13.95 36.5 7.5 30.05 Q7.9 28.25 9.7 27.85 L12.4 30.55 31.0 11.95 34.3 15.25 Q35.9 13.15 38.25 12.2 39.25 12.6 39.95 13.2 L50.1 3.05 50.85 6.8 42.15 15.5 43.25 17.2 Q42.6 19.75 40.2 21.15 L43.45 24.4 M38.9 24.0 L31.0 16.05 20.75 26.3 36.55 26.3 38.9 24.0" fill="#000000" fill-rule="evenodd" stroke="none"/>
    </g>
  </defs>
</svg>
