<?xml version="1.0" encoding="UTF-8" standalone="no"?>
<svg xmlns:ffdec="https://www.free-decompiler.com/flash" xmlns:xlink="http://www.w3.org/1999/xlink" ffdec:objectType="frame" height="56.0px" width="56.0px" xmlns="http://www.w3.org/2000/svg">
  <g transform="matrix(1.0, 0.0, 0.0, 1.0, 0.0, 0.0)">
    <use ffdec:characterId="49" ffdec:characterName="48_fla.Symbole144_1" height="56.0" id="back" transform="matrix(1.0, 0.0, 0.0, 1.0, 0.0, 0.0)" width="56.0" xlink:href="#sprite0"/>
    <use ffdec:characterId="51" height="45.95" id="back" transform="matrix(1.0, 0.0, 0.0, 1.0, 0.4, 4.8)" width="55.4" xlink:href="#sprite48"/>
    <use ffdec:characterId="53" height="44.5" id="up" transform="matrix(1.0, 0.0, 0.0, 1.0, 1.15, 5.5)" width="53.85" xlink:href="#sprite49"/>
  </g>
  <defs>
    <g id="sprite0" transform="matrix(1.0, 0.0, 0.0, 1.0, 0.0, 0.0)">
      <use ffdec:characterId="48" ffdec:characterName="48_fla.Symbole141_2" height="56.0" id="back" transform="matrix(1.0, 0.0, 0.0, 1.0, 0.0, 0.0)" width="56.0" xlink:href="#sprite1"/>
    </g>
    <g id="sprite1" transform="matrix(1.0, 0.0, 0.0, 1.0, 0.0, 0.0)">
      <use ffdec:characterId="47" ffdec:characterName="48_fla.Symbole138_3" height="56.0" id="back" transform="matrix(1.0, 0.0, 0.0, 1.0, 0.0, 0.0)" width="56.0" xlink:href="#sprite2"/>
    </g>
    <g id="sprite2" transform="matrix(1.0, 0.0, 0.0, 1.0, 0.0, 0.0)">
      <use ffdec:characterId="46" ffdec:characterName="48_fla.Symbole135_4" height="56.0" id="back" transform="matrix(1.0, 0.0, 0.0, 1.0, 0.0, 0.0)" width="56.0" xlink:href="#sprite3"/>
    </g>
    <g id="sprite3" transform="matrix(1.0, 0.0, 0.0, 1.0, 0.0, 0.0)">
      <use ffdec:characterId="45" ffdec:characterName="48_fla.Symbole132_5" height="56.0" id="back" transform="matrix(1.0, 0.0, 0.0, 1.0, 0.0, 0.0)" width="56.0" xlink:href="#sprite4"/>
    </g>
    <g id="sprite4" transform="matrix(1.0, 0.0, 0.0, 1.0, 0.0, 0.0)">
      <use ffdec:characterId="44" ffdec:characterName="48_fla.Symbole129_6" height="56.0" id="back" transform="matrix(1.0, 0.0, 0.0, 1.0, 0.0, 0.0)" width="56.0" xlink:href="#sprite5"/>
    </g>
    <g id="sprite5" transform="matrix(1.0, 0.0, 0.0, 1.0, 0.0, 0.0)">
      <use ffdec:characterId="43" ffdec:characterName="48_fla.Symbole126_7" height="56.0" id="back" transform="matrix(1.0, 0.0, 0.0, 1.0, 0.0, 0.0)" width="56.0" xlink:href="#sprite6"/>
    </g>
    <g id="sprite6" transform="matrix(1.0, 0.0, 0.0, 1.0, 0.0, 0.0)">
      <use ffdec:characterId="42" ffdec:characterName="48_fla.Symbole123_8" height="56.0" id="back" transform="matrix(1.0, 0.0, 0.0, 1.0, 0.0, 0.0)" width="56.0" xlink:href="#sprite7"/>
    </g>
    <g id="sprite7" transform="matrix(1.0, 0.0, 0.0, 1.0, 0.0, 0.0)">
      <use ffdec:characterId="41" ffdec:characterName="48_fla.Symbole120_9" height="56.0" id="back" transform="matrix(1.0, 0.0, 0.0, 1.0, 0.0, 0.0)" width="56.0" xlink:href="#sprite8"/>
    </g>
    <g id="sprite8" transform="matrix(1.0, 0.0, 0.0, 1.0, 0.0, 0.0)">
      <use ffdec:characterId="40" ffdec:characterName="48_fla.Symbole117_10" height="56.0" id="back" transform="matrix(1.0, 0.0, 0.0, 1.0, 0.0, 0.0)" width="56.0" xlink:href="#sprite9"/>
    </g>
    <g id="sprite9" transform="matrix(1.0, 0.0, 0.0, 1.0, 0.0, 0.0)">
      <use ffdec:characterId="39" ffdec:characterName="48_fla.Symbole114_11" height="56.0" id="back" transform="matrix(1.0, 0.0, 0.0, 1.0, 0.0, 0.0)" width="56.0" xlink:href="#sprite10"/>
    </g>
    <g id="sprite10" transform="matrix(1.0, 0.0, 0.0, 1.0, 0.0, 0.0)">
      <use ffdec:characterId="38" ffdec:characterName="48_fla.Symbole111_12" height="56.0" id="back" transform="matrix(1.0, 0.0, 0.0, 1.0, 0.0, 0.0)" width="56.0" xlink:href="#sprite11"/>
    </g>
    <g id="sprite11" transform="matrix(1.0, 0.0, 0.0, 1.0, 0.0, 0.0)">
      <use ffdec:characterId="37" ffdec:characterName="48_fla.Symbole108_13" height="56.0" id="back" transform="matrix(1.0, 0.0, 0.0, 1.0, 0.0, 0.0)" width="56.0" xlink:href="#sprite12"/>
    </g>
    <g id="sprite12" transform="matrix(1.0, 0.0, 0.0, 1.0, 0.0, 0.0)">
      <use ffdec:characterId="36" ffdec:characterName="48_fla.Symbole105_14" height="56.0" id="back" transform="matrix(1.0, 0.0, 0.0, 1.0, 0.0, 0.0)" width="56.0" xlink:href="#sprite13"/>
    </g>
    <g id="sprite13" transform="matrix(1.0, 0.0, 0.0, 1.0, 0.0, 0.0)">
      <use ffdec:characterId="35" ffdec:characterName="48_fla.Symbole102_15" height="56.0" id="back" transform="matrix(1.0, 0.0, 0.0, 1.0, 0.0, 0.0)" width="56.0" xlink:href="#sprite14"/>
    </g>
    <g id="sprite14" transform="matrix(1.0, 0.0, 0.0, 1.0, 0.0, 0.0)">
      <use ffdec:characterId="34" ffdec:characterName="48_fla.Symbole99_16" height="56.0" id="back" transform="matrix(1.0, 0.0, 0.0, 1.0, 0.0, 0.0)" width="56.0" xlink:href="#sprite15"/>
    </g>
    <g id="sprite15" transform="matrix(1.0, 0.0, 0.0, 1.0, 0.0, 0.0)">
      <use ffdec:characterId="33" ffdec:characterName="48_fla.Symbole96_17" height="56.0" id="back" transform="matrix(1.0, 0.0, 0.0, 1.0, 0.0, 0.0)" width="56.0" xlink:href="#sprite16"/>
    </g>
    <g id="sprite16" transform="matrix(1.0, 0.0, 0.0, 1.0, 0.0, 0.0)">
      <use ffdec:characterId="32" ffdec:characterName="48_fla.Symbole93_18" height="56.0" id="back" transform="matrix(1.0, 0.0, 0.0, 1.0, 0.0, 0.0)" width="56.0" xlink:href="#sprite17"/>
    </g>
    <g id="sprite17" transform="matrix(1.0, 0.0, 0.0, 1.0, 0.0, 0.0)">
      <use ffdec:characterId="31" ffdec:characterName="48_fla.Symbole90_19" height="56.0" id="back" transform="matrix(1.0, 0.0, 0.0, 1.0, 0.0, 0.0)" width="56.0" xlink:href="#sprite18"/>
    </g>
    <g id="sprite18" transform="matrix(1.0, 0.0, 0.0, 1.0, 0.0, 0.0)">
      <use ffdec:characterId="30" ffdec:characterName="48_fla.Symbole87_20" height="56.0" id="back" transform="matrix(1.0, 0.0, 0.0, 1.0, 0.0, 0.0)" width="56.0" xlink:href="#sprite19"/>
    </g>
    <g id="sprite19" transform="matrix(1.0, 0.0, 0.0, 1.0, 0.0, 0.0)">
      <use ffdec:characterId="29" ffdec:characterName="48_fla.Symbole84_21" height="56.0" id="back" transform="matrix(1.0, 0.0, 0.0, 1.0, 0.0, 0.0)" width="56.0" xlink:href="#sprite20"/>
    </g>
    <g id="sprite20" transform="matrix(1.0, 0.0, 0.0, 1.0, 0.0, 0.0)">
      <use ffdec:characterId="28" ffdec:characterName="48_fla.Symbole81_22" height="56.0" id="back" transform="matrix(1.0, 0.0, 0.0, 1.0, 0.0, 0.0)" width="56.0" xlink:href="#sprite21"/>
    </g>
    <g id="sprite21" transform="matrix(1.0, 0.0, 0.0, 1.0, 0.0, 0.0)">
      <use ffdec:characterId="27" ffdec:characterName="48_fla.Symbole78_23" height="56.0" id="back" transform="matrix(1.0, 0.0, 0.0, 1.0, 0.0, 0.0)" width="56.0" xlink:href="#sprite22"/>
    </g>
    <g id="sprite22" transform="matrix(1.0, 0.0, 0.0, 1.0, 0.0, 0.0)">
      <use ffdec:characterId="26" ffdec:characterName="48_fla.Symbole75_24" height="56.0" id="back" transform="matrix(1.0, 0.0, 0.0, 1.0, 0.0, 0.0)" width="56.0" xlink:href="#sprite23"/>
    </g>
    <g id="sprite23" transform="matrix(1.0, 0.0, 0.0, 1.0, 0.0, 0.0)">
      <use ffdec:characterId="25" ffdec:characterName="48_fla.Symbole72_25" height="56.0" id="back" transform="matrix(1.0, 0.0, 0.0, 1.0, 0.0, 0.0)" width="56.0" xlink:href="#sprite24"/>
    </g>
    <g id="sprite24" transform="matrix(1.0, 0.0, 0.0, 1.0, 0.0, 0.0)">
      <use ffdec:characterId="24" ffdec:characterName="48_fla.Symbole69_26" height="56.0" id="back" transform="matrix(1.0, 0.0, 0.0, 1.0, 0.0, 0.0)" width="56.0" xlink:href="#sprite25"/>
    </g>
    <g id="sprite25" transform="matrix(1.0, 0.0, 0.0, 1.0, 0.0, 0.0)">
      <use ffdec:characterId="23" ffdec:characterName="48_fla.Symbole66_27" height="56.0" id="back" transform="matrix(1.0, 0.0, 0.0, 1.0, 0.0, 0.0)" width="56.0" xlink:href="#sprite26"/>
    </g>
    <g id="sprite26" transform="matrix(1.0, 0.0, 0.0, 1.0, 0.0, 0.0)">
      <use ffdec:characterId="22" ffdec:characterName="48_fla.Symbole63_28" height="56.0" id="back" transform="matrix(1.0, 0.0, 0.0, 1.0, 0.0, 0.0)" width="56.0" xlink:href="#sprite27"/>
    </g>
    <g id="sprite27" transform="matrix(1.0, 0.0, 0.0, 1.0, 0.0, 0.0)">
      <use ffdec:characterId="21" ffdec:characterName="48_fla.Symbole60_29" height="56.0" id="back" transform="matrix(1.0, 0.0, 0.0, 1.0, 0.0, 0.0)" width="56.0" xlink:href="#sprite28"/>
    </g>
    <g id="sprite28" transform="matrix(1.0, 0.0, 0.0, 1.0, 0.0, 0.0)">
      <use ffdec:characterId="20" ffdec:characterName="48_fla.Symbole57_30" height="56.0" id="back" transform="matrix(1.0, 0.0, 0.0, 1.0, 0.0, 0.0)" width="56.0" xlink:href="#sprite29"/>
    </g>
    <g id="sprite29" transform="matrix(1.0, 0.0, 0.0, 1.0, 0.0, 0.0)">
      <use ffdec:characterId="19" ffdec:characterName="48_fla.Symbole54_31" height="56.0" id="back" transform="matrix(1.0, 0.0, 0.0, 1.0, 0.0, 0.0)" width="56.0" xlink:href="#sprite30"/>
    </g>
    <g id="sprite30" transform="matrix(1.0, 0.0, 0.0, 1.0, 0.0, 0.0)">
      <use ffdec:characterId="18" ffdec:characterName="48_fla.Symbole51_32" height="56.0" id="back" transform="matrix(1.0, 0.0, 0.0, 1.0, 0.0, 0.0)" width="56.0" xlink:href="#sprite31"/>
    </g>
    <g id="sprite31" transform="matrix(1.0, 0.0, 0.0, 1.0, 0.0, 0.0)">
      <use ffdec:characterId="17" ffdec:characterName="48_fla.Symbole48_33" height="56.0" id="back" transform="matrix(1.0, 0.0, 0.0, 1.0, 0.0, 0.0)" width="56.0" xlink:href="#sprite32"/>
    </g>
    <g id="sprite32" transform="matrix(1.0, 0.0, 0.0, 1.0, 0.0, 0.0)">
      <use ffdec:characterId="16" ffdec:characterName="48_fla.Symbole45_34" height="56.0" id="back" transform="matrix(1.0, 0.0, 0.0, 1.0, 0.0, 0.0)" width="56.0" xlink:href="#sprite33"/>
    </g>
    <g id="sprite33" transform="matrix(1.0, 0.0, 0.0, 1.0, 0.0, 0.0)">
      <use ffdec:characterId="15" ffdec:characterName="48_fla.Symbole42_35" height="56.0" id="back" transform="matrix(1.0, 0.0, 0.0, 1.0, 0.0, 0.0)" width="56.0" xlink:href="#sprite34"/>
    </g>
    <g id="sprite34" transform="matrix(1.0, 0.0, 0.0, 1.0, 0.0, 0.0)">
      <use ffdec:characterId="14" ffdec:characterName="48_fla.Symbole39_36" height="56.0" id="back" transform="matrix(1.0, 0.0, 0.0, 1.0, 0.0, 0.0)" width="56.0" xlink:href="#sprite35"/>
    </g>
    <g id="sprite35" transform="matrix(1.0, 0.0, 0.0, 1.0, 0.0, 0.0)">
      <use ffdec:characterId="13" ffdec:characterName="48_fla.Symbole36_37" height="56.0" id="back" transform="matrix(1.0, 0.0, 0.0, 1.0, 0.0, 0.0)" width="56.0" xlink:href="#sprite36"/>
    </g>
    <g id="sprite36" transform="matrix(1.0, 0.0, 0.0, 1.0, 0.0, 0.0)">
      <use ffdec:characterId="12" ffdec:characterName="48_fla.Symbole33_38" height="56.0" id="back" transform="matrix(1.0, 0.0, 0.0, 1.0, 0.0, 0.0)" width="56.0" xlink:href="#sprite37"/>
    </g>
    <g id="sprite37" transform="matrix(1.0, 0.0, 0.0, 1.0, 0.0, 0.0)">
      <use ffdec:characterId="11" ffdec:characterName="48_fla.Symbole30_39" height="56.0" id="back" transform="matrix(1.0, 0.0, 0.0, 1.0, 0.0, 0.0)" width="56.0" xlink:href="#sprite38"/>
    </g>
    <g id="sprite38" transform="matrix(1.0, 0.0, 0.0, 1.0, 0.0, 0.0)">
      <use ffdec:characterId="10" ffdec:characterName="48_fla.Symbole27_40" height="56.0" id="back" transform="matrix(1.0, 0.0, 0.0, 1.0, 0.0, 0.0)" width="56.0" xlink:href="#sprite39"/>
    </g>
    <g id="sprite39" transform="matrix(1.0, 0.0, 0.0, 1.0, 0.0, 0.0)">
      <use ffdec:characterId="9" ffdec:characterName="48_fla.Symbole24_41" height="56.0" id="back" transform="matrix(1.0, 0.0, 0.0, 1.0, 0.0, 0.0)" width="56.0" xlink:href="#sprite40"/>
    </g>
    <g id="sprite40" transform="matrix(1.0, 0.0, 0.0, 1.0, 0.0, 0.0)">
      <use ffdec:characterId="8" ffdec:characterName="48_fla.Symbole21_42" height="56.0" id="back" transform="matrix(1.0, 0.0, 0.0, 1.0, 0.0, 0.0)" width="56.0" xlink:href="#sprite41"/>
    </g>
    <g id="sprite41" transform="matrix(1.0, 0.0, 0.0, 1.0, 0.0, 0.0)">
      <use ffdec:characterId="7" ffdec:characterName="48_fla.Symbole18_43" height="56.0" id="back" transform="matrix(1.0, 0.0, 0.0, 1.0, 0.0, 0.0)" width="56.0" xlink:href="#sprite42"/>
    </g>
    <g id="sprite42" transform="matrix(1.0, 0.0, 0.0, 1.0, 0.0, 0.0)">
      <use ffdec:characterId="6" ffdec:characterName="48_fla.Symbole15_44" height="56.0" id="back" transform="matrix(1.0, 0.0, 0.0, 1.0, 0.0, 0.0)" width="56.0" xlink:href="#sprite43"/>
    </g>
    <g id="sprite43" transform="matrix(1.0, 0.0, 0.0, 1.0, 0.0, 0.0)">
      <use ffdec:characterId="5" ffdec:characterName="48_fla.Symbole12_45" height="56.0" id="back" transform="matrix(1.0, 0.0, 0.0, 1.0, 0.0, 0.0)" width="56.0" xlink:href="#sprite44"/>
    </g>
    <g id="sprite44" transform="matrix(1.0, 0.0, 0.0, 1.0, 0.0, 0.0)">
      <use ffdec:characterId="4" ffdec:characterName="48_fla.Symbole9_46" height="56.0" id="back" transform="matrix(1.0, 0.0, 0.0, 1.0, 0.0, 0.0)" width="56.0" xlink:href="#sprite45"/>
    </g>
    <g id="sprite45" transform="matrix(1.0, 0.0, 0.0, 1.0, 0.0, 0.0)">
      <use ffdec:characterId="3" ffdec:characterName="48_fla.Symbole6_47" height="56.0" id="back" transform="matrix(1.0, 0.0, 0.0, 1.0, 0.0, 0.0)" width="56.0" xlink:href="#sprite46"/>
    </g>
    <g id="sprite46" transform="matrix(1.0, 0.0, 0.0, 1.0, 0.0, 0.0)">
      <use ffdec:characterId="2" height="56.0" id="back" transform="matrix(1.0, 0.0, 0.0, 1.0, 0.0, 0.0)" width="56.0" xlink:href="#sprite47"/>
    </g>
    <g id="sprite47" transform="matrix(1.0, 0.0, 0.0, 1.0, 0.0, 0.0)">
      <use ffdec:characterId="1" height="56.0" transform="matrix(1.0, 0.0, 0.0, 1.0, 0.0, 0.0)" width="56.0" xlink:href="#shape0"/>
    </g>
    <g id="shape0" transform="matrix(1.0, 0.0, 0.0, 1.0, 0.0, 0.0)">
      <path d="M56.0 56.0 L0.0 56.0 0.0 0.0 56.0 0.0 56.0 56.0" fill="#010101" fill-opacity="0.0" fill-rule="evenodd" stroke="none"/>
    </g>
    <g id="sprite48" transform="matrix(1.0, 0.0, 0.0, 1.0, 0.75, 0.75)">
      <use ffdec:characterId="50" height="45.95" transform="matrix(1.0, 0.0, 0.0, 1.0, -0.75, -0.75)" width="55.4" xlink:href="#shape1"/>
    </g>
    <g id="shape1" transform="matrix(1.0, 0.0, 0.0, 1.0, 0.75, 0.75)">
      <path d="M42.45 23.3 L41.75 23.6 Q41.55 23.6 41.55 23.3 L41.2 22.25 Q40.45 20.6 38.8 19.85 36.25 18.75 33.4 19.45 30.55 20.05 28.7 22.25 L28.7 22.3 Q28.7 23.3 29.45 24.4 L31.3 27.5 Q32.3 29.25 32.55 30.9 L32.9 33.35 32.9 34.95 32.35 38.85 32.35 39.25 Q32.3 39.55 32.7 39.55 L35.15 39.35 35.5 38.85 Q37.9 34.75 41.95 33.35 L43.55 32.8 44.3 32.9 44.2 33.35 Q42.25 36.05 43.1 38.85 L43.7 40.15 Q45.0 42.4 48.2 42.15 50.45 41.95 51.5 39.95 50.15 40.65 48.85 40.55 47.4 40.4 46.55 39.55 L45.9 38.85 Q45.0 37.35 45.5 35.6 45.8 34.55 46.95 33.5 L47.35 33.35 Q49.5 31.95 51.65 33.35 L51.95 33.5 Q53.2 34.55 53.65 36.15 54.05 37.35 53.8 38.7 L53.65 38.85 Q53.2 41.25 51.2 42.55 L48.4 43.6 Q45.5 44.05 43.45 42.3 42.25 41.3 41.75 39.95 L41.3 38.85 40.95 36.7 Q39.6 37.35 38.75 38.85 37.3 41.1 37.2 44.45 L16.6 44.45 Q16.55 41.1 15.25 38.85 14.25 37.35 12.9 36.7 L12.5 38.85 12.2 39.95 Q11.6 41.3 10.5 42.3 8.4 44.05 5.55 43.6 4.05 43.2 2.6 42.55 0.65 41.25 0.2 38.85 L0.2 38.7 Q-0.2 37.35 0.25 36.15 0.65 34.55 1.9 33.5 L2.3 33.35 Q4.5 31.95 6.65 33.35 L6.95 33.5 Q8.0 34.4 8.4 35.6 8.85 37.35 7.95 38.85 L7.35 39.55 Q6.4 40.4 5.15 40.55 3.7 40.65 2.4 39.95 L3.2 41.0 Q4.3 41.95 5.8 42.15 8.85 42.4 10.3 40.15 L10.8 38.85 Q11.6 36.05 9.65 33.35 9.45 33.05 9.65 32.9 L10.3 32.8 11.9 33.35 Q15.9 34.75 18.5 38.85 L18.7 39.35 19.1 39.5 21.25 39.55 21.55 39.25 21.55 38.85 Q21.1 36.15 21.1 34.95 20.95 33.95 21.1 33.35 21.15 32.05 21.35 30.9 21.7 29.25 22.55 27.5 L24.5 24.4 Q25.15 23.15 25.2 22.3 L25.15 22.25 Q23.3 20.05 20.5 19.45 17.6 18.75 15.1 19.85 13.4 20.6 12.75 22.25 L12.45 23.3 12.2 23.6 11.35 23.3 Q10.9 23.1 10.75 23.55 9.7 24.85 10.35 26.8 11.0 28.95 12.9 29.85 14.45 30.65 15.9 30.2 18.3 29.55 18.7 27.4 L15.0 27.25 Q13.95 26.55 13.8 25.15 13.5 23.3 15.0 22.45 15.7 22.0 16.75 22.0 17.85 22.1 18.75 22.7 20.2 23.8 20.2 25.75 20.2 27.5 19.1 29.15 18.05 30.65 16.3 31.5 13.6 32.8 10.9 31.6 7.7 30.2 7.1 27.05 6.7 24.4 7.7 22.25 8.35 20.75 9.65 19.65 13.5 16.2 18.95 17.25 22.25 17.75 25.35 20.3 25.15 18.3 24.05 16.6 22.0 13.35 20.5 12.8 19.1 12.35 18.7 13.35 18.35 13.9 18.9 14.9 19.1 15.35 18.5 15.35 16.1 15.55 14.85 14.05 13.75 12.75 14.05 11.1 14.25 9.95 15.0 9.1 15.9 8.05 17.3 7.95 L20.05 8.25 Q19.4 5.6 21.1 3.2 22.0 1.6 23.65 0.85 25.15 0.0 26.95 0.0 28.7 0.0 30.3 0.85 31.9 1.6 32.9 3.2 34.5 5.6 33.85 8.25 L36.6 7.95 Q37.9 8.05 38.95 9.1 39.6 9.95 39.8 11.1 40.1 12.75 39.05 14.05 37.75 15.55 35.35 15.35 34.7 15.35 35.1 14.9 35.55 13.9 35.3 13.35 34.7 12.35 33.4 12.8 31.9 13.35 29.9 16.6 28.7 18.3 28.45 20.3 31.6 17.75 34.85 17.25 40.35 16.2 44.3 19.65 45.5 20.6 46.25 22.25 47.1 24.4 46.7 27.05 46.1 30.2 42.9 31.6 40.25 32.8 37.65 31.5 35.8 30.65 34.7 29.15 33.65 27.5 33.65 25.75 33.65 23.8 35.15 22.7 36.0 22.1 37.2 22.0 38.15 22.0 38.95 22.45 40.35 23.3 40.1 25.15 39.9 26.55 38.95 27.25 L35.3 27.4 Q35.15 27.4 35.3 27.7 L35.7 28.55 Q36.6 29.75 38.05 30.2 39.45 30.65 41.1 29.85 42.9 28.95 43.45 26.8 44.15 24.85 43.25 23.55 42.9 23.1 42.45 23.3 M23.65 6.1 Q22.85 8.2 23.5 9.95 25.8 15.55 26.95 19.3 28.25 14.95 30.3 9.95 31.0 8.2 30.3 6.1 29.45 3.5 26.95 3.5 24.35 3.5 23.65 6.1 M26.95 24.15 L25.35 27.25 Q23.85 30.45 23.9 33.5 24.05 35.6 24.75 37.15 25.45 38.95 26.95 39.55 28.4 38.95 29.25 37.15 29.9 35.6 29.9 33.5 30.0 30.3 28.6 27.25 27.1 24.7 26.95 24.15 Z" fill="none" stroke="#000000" stroke-linecap="round" stroke-linejoin="round" stroke-opacity="0.2" stroke-width="1.5"/>
    </g>
    <g id="sprite49" transform="matrix(1.0, 0.0, 0.0, 1.0, 0.0, 0.0)">
      <use ffdec:characterId="52" height="44.5" transform="matrix(1.0, 0.0, 0.0, 1.0, 0.0, 0.0)" width="53.85" xlink:href="#shape2"/>
    </g>
    <g id="shape2" transform="matrix(1.0, 0.0, 0.0, 1.0, 0.0, 0.0)">
      <path d="M41.15 22.25 Q40.45 20.6 38.8 19.9 36.2 18.8 33.4 19.45 30.55 20.1 28.7 22.25 L28.7 22.35 Q28.7 23.35 29.45 24.4 L31.25 27.5 Q32.25 29.25 32.55 30.95 L32.9 33.35 32.9 35.0 32.35 38.9 32.35 39.3 Q32.25 39.6 32.7 39.6 L35.15 39.4 35.5 38.9 Q37.95 34.8 41.95 33.35 L43.55 32.85 44.35 32.9 44.2 33.35 Q42.25 36.05 43.1 38.9 L43.7 40.2 Q45.0 42.4 48.2 42.2 50.45 42.0 51.5 39.95 50.15 40.7 48.85 40.6 47.4 40.45 46.55 39.6 L45.9 38.9 Q45.0 37.35 45.5 35.65 45.85 34.55 47.0 33.55 L47.35 33.35 Q49.5 31.95 51.65 33.35 L51.95 33.55 Q53.15 34.55 53.65 36.15 54.0 37.35 53.8 38.75 L53.65 38.9 Q53.15 41.25 51.2 42.55 49.8 43.25 48.4 43.65 45.5 44.05 43.45 42.35 42.25 41.35 41.75 39.95 L41.3 38.9 40.95 36.7 Q39.6 37.35 38.75 38.9 37.3 41.1 37.2 44.5 L16.6 44.5 Q16.55 41.1 15.25 38.9 14.25 37.35 12.9 36.7 L12.5 38.9 12.25 39.95 Q11.6 41.35 10.5 42.35 8.45 44.05 5.55 43.65 L2.6 42.55 Q0.65 41.25 0.15 38.9 L0.15 38.75 Q-0.2 37.35 0.25 36.15 0.65 34.55 1.9 33.55 L2.3 33.35 Q4.5 31.95 6.65 33.35 L6.9 33.55 Q8.0 34.4 8.45 35.65 8.85 37.35 7.9 38.9 L7.35 39.6 Q6.4 40.45 5.1 40.6 3.7 40.7 2.4 39.95 L3.2 41.05 Q4.25 42.0 5.75 42.2 8.85 42.4 10.3 40.2 L10.8 38.9 Q11.6 36.05 9.65 33.35 9.45 33.05 9.65 32.9 L10.3 32.85 Q11.15 33.05 11.85 33.35 15.9 34.8 18.5 38.9 L18.7 39.4 19.15 39.55 21.3 39.6 21.55 39.3 21.55 38.9 Q21.05 36.15 21.05 35.0 20.9 34.0 21.05 33.35 L21.35 30.95 Q21.7 29.25 22.55 27.5 L24.5 24.4 25.25 22.35 25.15 22.25 Q23.3 20.1 20.5 19.45 17.6 18.8 15.1 19.9 13.4 20.6 12.75 22.25 L12.45 23.35 12.25 23.6 11.35 23.35 Q10.95 23.1 10.7 23.55 9.7 24.85 10.35 26.85 11.0 28.95 12.9 29.9 14.45 30.7 15.9 30.25 18.25 29.6 18.7 27.45 L15.05 27.3 Q13.95 26.55 13.8 25.15 13.5 23.35 15.05 22.45 15.7 22.05 16.75 22.05 17.85 22.1 18.75 22.75 20.2 23.85 20.2 25.8 20.2 27.5 19.15 29.15 18.05 30.7 16.35 31.55 13.6 32.85 10.95 31.6 7.7 30.25 7.15 27.1 6.7 24.4 7.7 22.25 8.35 20.75 9.65 19.65 13.5 16.2 19.0 17.3 22.2 17.8 25.35 20.3 25.15 18.35 24.1 16.65 22.0 13.4 20.5 12.85 19.15 12.4 18.7 13.4 18.35 13.9 18.9 14.9 19.15 15.35 18.5 15.35 16.1 15.55 14.9 14.05 13.75 12.75 14.05 11.1 14.25 9.95 15.05 9.15 15.9 8.05 17.25 8.0 L20.05 8.3 Q19.4 5.65 21.05 3.25 22.0 1.6 23.65 0.9 25.15 0.0 26.95 0.0 28.7 0.0 30.35 0.9 31.9 1.6 32.9 3.25 34.5 5.65 33.85 8.3 L36.55 8.0 Q37.95 8.05 38.95 9.15 39.6 9.95 39.8 11.1 40.1 12.75 39.0 14.05 37.7 15.55 35.35 15.35 34.7 15.35 35.05 14.9 35.55 13.9 35.3 13.4 34.7 12.4 33.4 12.85 31.9 13.4 29.9 16.65 28.7 18.35 28.45 20.3 31.6 17.8 34.85 17.3 40.3 16.2 44.35 19.65 45.5 20.6 46.25 22.25 47.15 24.4 46.7 27.1 46.1 30.25 42.9 31.6 40.25 32.85 37.65 31.55 35.8 30.7 34.7 29.15 33.65 27.5 33.65 25.8 33.65 23.85 35.15 22.75 36.0 22.1 37.2 22.05 L38.95 22.45 Q40.3 23.35 40.1 25.15 39.9 26.55 38.95 27.3 L35.3 27.45 Q35.15 27.45 35.3 27.7 35.35 28.15 35.7 28.6 36.55 29.8 38.1 30.25 39.45 30.7 41.1 29.9 42.9 28.95 43.45 26.85 44.1 24.85 43.25 23.55 42.9 23.1 42.45 23.35 L41.75 23.6 41.55 23.35 41.15 22.25 M23.65 6.15 Q22.85 8.2 23.5 9.95 25.8 15.55 26.95 19.3 28.25 15.0 30.35 9.95 30.95 8.2 30.35 6.15 29.45 3.55 26.95 3.55 24.35 3.55 23.65 6.15 M26.95 24.2 L25.35 27.3 Q23.85 30.45 23.95 33.55 24.1 35.65 24.75 37.15 25.45 38.95 26.95 39.6 28.4 38.95 29.25 37.15 29.9 35.65 29.9 33.55 29.95 30.3 28.6 27.3 27.1 24.7 26.95 24.2" fill="#000000" fill-rule="evenodd" stroke="none"/>
    </g>
  </defs>
</svg>
