<?xml version="1.0" encoding="UTF-8" standalone="no"?>
<svg xmlns:ffdec="https://www.free-decompiler.com/flash" xmlns:xlink="http://www.w3.org/1999/xlink" ffdec:objectType="frame" height="56.0px" width="56.0px" xmlns="http://www.w3.org/2000/svg">
  <g transform="matrix(1.0, 0.0, 0.0, 1.0, 0.0, 0.0)">
    <use ffdec:characterId="2" height="56.0" id="back" transform="matrix(1.0, 0.0, 0.0, 1.0, 0.0, 0.0)" width="56.0" xlink:href="#sprite0"/>
    <use ffdec:characterId="3" height="48.65" transform="matrix(1.0, 0.0, 0.0, 1.0, 3.8, 2.95)" width="48.45" xlink:href="#shape1"/>
  </g>
  <defs>
    <g id="sprite0" transform="matrix(1.0, 0.0, 0.0, 1.0, 0.0, 0.0)">
      <use ffdec:characterId="1" height="56.0" transform="matrix(1.0, 0.0, 0.0, 1.0, 0.0, 0.0)" width="56.0" xlink:href="#shape0"/>
    </g>
    <g id="shape0" transform="matrix(1.0, 0.0, 0.0, 1.0, 0.0, 0.0)">
      <path d="M56.0 56.0 L0.0 56.0 0.0 0.0 56.0 0.0 56.0 56.0" fill="#010101" fill-opacity="0.0" fill-rule="evenodd" stroke="none"/>
    </g>
    <g id="shape1" transform="matrix(1.0, 0.0, 0.0, 1.0, -3.8, -2.95)">
      <path d="M26.7 3.45 Q37.1 5.15 43.65 11.7 50.05 18.1 51.75 28.5 50.95 43.5 31.95 43.4 30.6 35.25 25.3 30.25 L25.25 30.3 25.1 30.15 24.9 29.95 24.95 29.9 Q19.95 24.7 11.8 23.25 11.7 4.25 26.7 3.45 M38.7 25.35 Q40.5 23.55 40.5 21.05 40.5 18.45 38.75 16.7 36.95 14.9 34.35 14.9 31.85 14.9 30.05 16.7 28.25 18.5 28.25 21.0 28.25 23.6 30.05 25.4 31.8 27.15 34.4 27.15 36.9 27.15 38.7 25.35 M12.05 25.6 Q19.3 26.55 24.15 31.4 28.95 36.2 29.8 43.35 28.2 44.65 18.95 39.9 L10.35 50.3 Q7.5 52.05 5.5 50.05 3.3 47.95 5.15 45.1 L15.55 36.5 Q10.8 27.25 12.05 25.6" fill="#000000" fill-rule="evenodd" stroke="none"/>
      <path d="M26.7 3.45 Q37.1 5.15 43.65 11.7 50.05 18.1 51.75 28.5 50.95 43.5 31.95 43.4 30.6 35.25 25.3 30.25 L25.25 30.3 25.1 30.15 24.9 29.95 24.95 29.9 Q19.95 24.7 11.8 23.25 11.7 4.25 26.7 3.45 M38.7 25.35 Q40.5 23.55 40.5 21.05 40.5 18.45 38.75 16.7 36.95 14.9 34.35 14.9 31.85 14.9 30.05 16.7 28.25 18.5 28.25 21.0 28.25 23.6 30.05 25.4 31.8 27.15 34.4 27.15 36.9 27.15 38.7 25.35 M12.05 25.6 Q19.3 26.55 24.15 31.4 28.95 36.2 29.8 43.35 28.2 44.65 18.95 39.9 L10.35 50.3 Q7.5 52.05 5.5 50.05 3.3 47.95 5.15 45.1 L15.55 36.5 Q10.8 27.25 12.05 25.6" fill="#000000" fill-rule="evenodd" stroke="none"/>
      <path d="M26.7 3.45 Q37.1 5.15 43.65 11.7 50.05 18.1 51.75 28.5 50.95 43.5 31.95 43.4 30.6 35.25 25.3 30.25 L25.25 30.3 25.1 30.15 24.9 29.95 24.95 29.9 Q19.95 24.7 11.8 23.25 11.7 4.25 26.7 3.45 M38.7 25.35 Q36.9 27.15 34.4 27.15 31.8 27.15 30.05 25.4 28.25 23.6 28.25 21.0 28.25 18.5 30.05 16.7 31.85 14.9 34.35 14.9 36.95 14.9 38.75 16.7 40.5 18.45 40.5 21.05 40.5 23.55 38.7 25.35 M12.05 25.6 Q19.3 26.55 24.15 31.4 28.95 36.2 29.8 43.35 28.2 44.65 18.95 39.9 L10.35 50.3 Q7.5 52.05 5.5 50.05 3.3 47.95 5.15 45.1 L15.55 36.5 Q10.8 27.25 12.05 25.6 Z" fill="none" stroke="#000000" stroke-linecap="round" stroke-linejoin="round" stroke-opacity="0.2" stroke-width="1.0"/>
    </g>
  </defs>
</svg>
