<?xml version="1.0" encoding="UTF-8" standalone="no"?>
<svg xmlns:ffdec="https://www.free-decompiler.com/flash" xmlns:xlink="http://www.w3.org/1999/xlink" ffdec:objectType="frame" height="56.0px" width="56.0px" xmlns="http://www.w3.org/2000/svg">
  <g transform="matrix(1.0, 0.0, 0.0, 1.0, 0.0, 0.0)">
    <use ffdec:characterId="2" height="56.0" id="back" transform="matrix(1.0, 0.0, 0.0, 1.0, 0.0, 0.0)" width="56.0" xlink:href="#sprite0"/>
    <use ffdec:characterId="3" height="49.9" transform="matrix(1.0, 0.0, 0.0, 1.0, 3.4, 2.55)" width="49.95" xlink:href="#shape1"/>
  </g>
  <defs>
    <g id="sprite0" transform="matrix(1.0, 0.0, 0.0, 1.0, 0.0, 0.0)">
      <use ffdec:characterId="1" height="56.0" transform="matrix(1.0, 0.0, 0.0, 1.0, 0.0, 0.0)" width="56.0" xlink:href="#shape0"/>
    </g>
    <g id="shape0" transform="matrix(1.0, 0.0, 0.0, 1.0, 0.0, 0.0)">
      <path d="M56.0 56.0 L0.0 56.0 0.0 0.0 56.0 0.0 56.0 56.0" fill="#010101" fill-opacity="0.0" fill-rule="evenodd" stroke="none"/>
    </g>
    <g id="shape1" transform="matrix(1.0, 0.0, 0.0, 1.0, -3.4, -2.55)">
      <path d="M25.85 44.55 L24.2 44.25 22.65 46.4 19.85 45.35 20.2 42.7 18.0 41.3 15.65 42.8 13.45 40.75 14.9 38.2 14.55 37.75 13.3 35.8 10.6 36.15 9.45 33.4 11.65 31.8 Q11.25 30.25 11.15 28.65 L8.1 27.9 8.15 24.9 11.45 24.1 Q11.7 22.6 12.25 21.25 L9.65 19.35 10.8 16.6 14.15 17.1 13.55 18.5 Q14.7 16.65 16.35 15.1 L15.15 12.2 17.55 10.45 19.95 12.4 22.15 11.35 22.2 8.45 25.1 7.75 26.4 10.3 Q28.0 10.1 29.7 10.25 L30.8 7.5 33.75 7.95 34.1 11.15 Q36.05 11.8 37.7 12.9 L36.8 12.2 39.4 10.1 41.8 11.9 40.5 15.0 39.7 14.4 42.05 16.9 45.05 16.0 46.55 18.55 44.35 20.8 45.1 22.9 48.05 23.2 48.45 26.15 45.7 27.35 45.65 29.05 48.5 30.6 47.75 33.5 44.65 33.5 43.65 35.7 45.45 37.95 43.65 40.3 41.1 39.25 38.75 41.3 39.5 43.75 36.95 45.3 35.05 43.45 Q33.4 44.15 31.65 44.5 L31.1 46.95 28.1 47.05 27.45 44.75 25.85 44.55 M40.35 18.65 Q36.7 13.7 30.6 12.8 24.55 11.95 19.65 15.6 14.7 19.25 13.75 25.25 12.85 31.35 16.5 36.3 20.15 41.25 26.25 42.1 32.3 43.05 37.25 39.4 42.15 35.75 43.1 29.65 44.0 23.6 40.35 18.65 M46.35 14.2 Q40.85 6.75 31.7 5.4 22.55 4.05 15.1 9.55 7.65 15.05 6.3 24.2 4.95 33.35 10.45 40.8 15.95 48.25 25.1 49.6 34.25 50.95 41.7 45.45 49.15 39.95 50.5 30.8 51.85 21.65 46.35 14.2 M23.25 30.1 L25.85 30.1 25.85 31.95 25.8 32.6 Q25.8 33.45 26.35 34.15 L26.6 34.5 Q27.35 35.25 28.45 35.25 29.55 35.25 30.35 34.5 L30.6 34.15 Q31.15 33.45 31.15 32.6 L31.1 32.2 31.15 30.1 33.4 30.1 33.65 30.1 34.55 29.95 35.55 29.3 Q36.3 28.55 36.3 27.45 36.3 26.35 35.55 25.55 L34.55 24.95 33.65 24.75 33.45 24.8 31.15 24.75 31.15 22.3 Q31.15 21.2 30.35 20.4 L30.2 20.25 Q29.45 19.6 28.45 19.6 27.45 19.6 26.75 20.25 L26.6 20.4 Q25.9 21.1 25.8 22.0 L25.8 22.3 25.8 22.7 25.85 24.75 23.3 24.75 Q22.2 24.8 21.45 25.55 20.65 26.35 20.65 27.45 20.65 28.55 21.45 29.3 22.2 30.1 23.25 30.1 M37.9 20.35 Q40.8 24.25 40.05 29.1 39.35 33.9 35.45 36.85 31.5 39.75 26.65 39.0 21.8 38.3 18.9 34.35 16.0 30.4 16.75 25.6 17.45 20.75 21.4 17.85 25.3 14.95 30.15 15.65 35.0 16.4 37.9 20.35 M48.0 13.0 Q54.0 21.1 52.55 31.1 51.0 41.1 42.9 47.1 34.75 53.15 24.75 51.65 14.75 50.15 8.75 42.05 2.7 33.9 4.2 23.9 5.7 13.9 13.85 7.85 21.95 1.85 32.0 3.35 41.95 4.85 48.0 13.0" fill="#000000" fill-rule="evenodd" stroke="none"/>
      <path d="M25.85 44.55 L24.2 44.25 22.65 46.4 19.85 45.35 20.2 42.7 18.0 41.3 15.65 42.8 13.45 40.75 14.9 38.2 14.55 37.75 13.3 35.8 10.6 36.15 9.45 33.4 11.65 31.8 Q11.25 30.25 11.15 28.65 L8.1 27.9 8.15 24.9 11.45 24.1 Q11.7 22.6 12.25 21.25 L9.65 19.35 10.8 16.6 14.15 17.1 13.55 18.5 Q14.7 16.65 16.35 15.1 L15.15 12.2 17.55 10.45 19.95 12.4 22.15 11.35 22.2 8.45 25.1 7.75 26.4 10.3 Q28.0 10.1 29.7 10.25 L30.8 7.5 33.75 7.95 34.1 11.15 Q36.05 11.8 37.7 12.9 L36.8 12.2 39.4 10.1 41.8 11.9 40.5 15.0 39.7 14.4 42.05 16.9 45.05 16.0 46.55 18.55 44.35 20.8 45.1 22.9 48.05 23.2 48.45 26.15 45.7 27.35 45.65 29.05 48.5 30.6 47.75 33.5 44.65 33.5 43.65 35.7 45.45 37.95 43.65 40.3 41.1 39.25 38.75 41.3 39.5 43.75 36.95 45.3 35.05 43.45 Q33.4 44.15 31.65 44.5 L31.1 46.95 28.1 47.05 27.45 44.75 25.85 44.55 M46.35 14.2 Q51.85 21.65 50.5 30.8 49.15 39.95 41.7 45.45 34.25 50.95 25.1 49.6 15.95 48.25 10.45 40.8 4.95 33.35 6.3 24.2 7.65 15.05 15.1 9.55 22.55 4.05 31.7 5.4 40.85 6.75 46.35 14.2 M40.35 18.65 Q44.0 23.6 43.1 29.65 42.15 35.75 37.25 39.4 32.3 43.05 26.25 42.1 20.15 41.25 16.5 36.3 12.85 31.35 13.75 25.25 14.7 19.25 19.65 15.6 24.55 11.95 30.6 12.8 36.7 13.7 40.35 18.65 M23.25 30.1 L25.85 30.1 25.85 31.95 25.8 32.6 Q25.8 33.45 26.35 34.15 L26.6 34.5 Q27.35 35.25 28.45 35.25 29.55 35.25 30.35 34.5 L30.6 34.15 Q31.15 33.45 31.15 32.6 L31.1 32.2 31.15 30.1 33.4 30.1 33.65 30.1 34.55 29.95 35.55 29.3 Q36.3 28.55 36.3 27.45 36.3 26.35 35.55 25.55 L34.55 24.95 33.65 24.75 33.45 24.8 31.15 24.75 31.15 22.3 Q31.15 21.2 30.35 20.4 L30.2 20.25 Q29.45 19.6 28.45 19.6 27.45 19.6 26.75 20.25 L26.6 20.4 Q25.9 21.1 25.8 22.0 L25.8 22.3 25.8 22.7 25.85 24.75 23.3 24.75 Q22.2 24.8 21.45 25.55 20.65 26.35 20.65 27.45 20.65 28.55 21.45 29.3 22.2 30.1 23.25 30.1 M37.9 20.35 Q40.8 24.25 40.05 29.1 39.35 33.9 35.45 36.85 31.5 39.75 26.65 39.0 21.8 38.3 18.9 34.35 16.0 30.4 16.75 25.6 17.45 20.75 21.4 17.85 25.3 14.95 30.15 15.65 35.0 16.4 37.9 20.35 M48.0 13.0 Q54.0 21.1 52.55 31.1 51.0 41.1 42.9 47.1 34.75 53.15 24.75 51.65 14.75 50.15 8.75 42.05 2.7 33.9 4.2 23.9 5.7 13.9 13.85 7.85 21.95 1.85 32.0 3.35 41.95 4.85 48.0 13.0 Z" fill="none" stroke="#000000" stroke-linecap="round" stroke-linejoin="round" stroke-opacity="0.2" stroke-width="1.0"/>
      <path d="M25.85 44.55 L24.2 44.25 22.65 46.4 19.85 45.35 20.2 42.7 18.0 41.3 15.65 42.8 13.45 40.75 14.9 38.2 14.55 37.75 13.3 35.8 10.6 36.15 9.45 33.4 11.65 31.8 Q11.25 30.25 11.15 28.65 L8.1 27.9 8.15 24.9 11.45 24.1 Q11.7 22.6 12.25 21.25 L9.65 19.35 10.8 16.6 14.15 17.1 13.55 18.5 Q14.7 16.65 16.35 15.1 L15.15 12.2 17.55 10.45 19.95 12.4 22.15 11.35 22.2 8.45 25.1 7.75 26.4 10.3 Q28.0 10.1 29.7 10.25 L30.8 7.5 33.75 7.95 34.1 11.15 Q36.05 11.8 37.7 12.9 L36.8 12.2 39.4 10.1 41.8 11.9 40.5 15.0 39.7 14.4 42.05 16.9 45.05 16.0 46.55 18.55 44.35 20.8 45.1 22.9 48.05 23.2 48.45 26.15 45.7 27.35 45.65 29.05 48.5 30.6 47.75 33.5 44.65 33.5 43.65 35.7 45.45 37.95 43.65 40.3 41.1 39.25 38.75 41.3 39.5 43.75 36.95 45.3 35.05 43.45 Q33.4 44.15 31.65 44.5 L31.1 46.95 28.1 47.05 27.45 44.75 25.85 44.55 M40.35 18.65 Q36.7 13.7 30.6 12.8 24.55 11.95 19.65 15.6 14.7 19.25 13.75 25.25 12.85 31.35 16.5 36.3 20.15 41.25 26.25 42.1 32.3 43.05 37.25 39.4 42.15 35.75 43.1 29.65 44.0 23.6 40.35 18.65 M46.35 14.2 Q40.85 6.75 31.7 5.4 22.55 4.05 15.1 9.55 7.65 15.05 6.3 24.2 4.95 33.35 10.45 40.8 15.95 48.25 25.1 49.6 34.25 50.95 41.7 45.45 49.15 39.95 50.5 30.8 51.85 21.65 46.35 14.2 M23.25 30.1 L25.85 30.1 25.85 31.95 25.8 32.6 Q25.8 33.45 26.35 34.15 L26.6 34.5 Q27.35 35.25 28.45 35.25 29.55 35.25 30.35 34.5 L30.6 34.15 Q31.15 33.45 31.15 32.6 L31.1 32.2 31.15 30.1 33.4 30.1 33.65 30.1 34.55 29.95 35.55 29.3 Q36.3 28.55 36.3 27.45 36.3 26.35 35.55 25.55 L34.55 24.95 33.65 24.75 33.45 24.8 31.15 24.75 31.15 22.3 Q31.15 21.2 30.35 20.4 L30.2 20.25 Q29.45 19.6 28.45 19.6 27.45 19.6 26.75 20.25 L26.6 20.4 Q25.9 21.1 25.8 22.0 L25.8 22.3 25.8 22.7 25.85 24.75 23.3 24.75 Q22.2 24.8 21.45 25.55 20.65 26.35 20.65 27.45 20.65 28.55 21.45 29.3 22.2 30.1 23.25 30.1 M37.9 20.35 Q40.8 24.25 40.05 29.1 39.35 33.9 35.45 36.85 31.5 39.75 26.65 39.0 21.8 38.3 18.9 34.35 16.0 30.4 16.75 25.6 17.45 20.75 21.4 17.85 25.3 14.95 30.15 15.65 35.0 16.4 37.9 20.35 M48.0 13.0 Q54.0 21.1 52.55 31.1 51.0 41.1 42.9 47.1 34.75 53.15 24.75 51.65 14.75 50.15 8.75 42.05 2.7 33.9 4.2 23.9 5.7 13.9 13.85 7.85 21.95 1.85 32.0 3.35 41.95 4.85 48.0 13.0" fill="#000000" fill-rule="evenodd" stroke="none"/>
      <path d="M37.9 20.35 Q40.8 24.25 40.05 29.1 39.35 33.9 35.45 36.85 31.5 39.75 26.65 39.0 21.8 38.3 18.9 34.35 16.0 30.4 16.75 25.6 17.45 20.75 21.4 17.85 25.3 14.95 30.15 15.65 35.0 16.4 37.9 20.35 Z" fill="none" stroke="#000000" stroke-linecap="round" stroke-linejoin="round" stroke-width="0.1"/>
    </g>
  </defs>
</svg>
