<?xml version="1.0" encoding="UTF-8" standalone="no"?>
<svg xmlns:ffdec="https://www.free-decompiler.com/flash" xmlns:xlink="http://www.w3.org/1999/xlink" ffdec:objectType="frame" height="56.0px" width="56.0px" xmlns="http://www.w3.org/2000/svg">
  <g transform="matrix(1.0, 0.0, 0.0, 1.0, 0.0, 0.0)">
    <use ffdec:characterId="2" height="56.0" id="back" transform="matrix(1.0, 0.0, 0.0, 1.0, 0.0, 0.0)" width="56.0" xlink:href="#sprite0"/>
    <use ffdec:characterId="3" height="48.9" transform="matrix(1.0, 0.0, 0.0, 1.0, 4.45, 3.15)" width="48.9" xlink:href="#shape1"/>
  </g>
  <defs>
    <g id="sprite0" transform="matrix(1.0, 0.0, 0.0, 1.0, 0.0, 0.0)">
      <use ffdec:characterId="1" height="56.0" transform="matrix(1.0, 0.0, 0.0, 1.0, 0.0, 0.0)" width="56.0" xlink:href="#shape0"/>
    </g>
    <g id="shape0" transform="matrix(1.0, 0.0, 0.0, 1.0, 0.0, 0.0)">
      <path d="M56.0 56.0 L0.0 56.0 0.0 0.0 56.0 0.0 56.0 56.0" fill="#010101" fill-opacity="0.0" fill-rule="evenodd" stroke="none"/>
    </g>
    <g id="shape1" transform="matrix(1.0, 0.0, 0.0, 1.0, -4.45, -3.15)">
      <path d="M25.9 13.65 L26.1 15.8 26.1 16.9 Q25.7 23.4 19.15 24.45 L14.35 24.3 14.35 30.0 14.7 29.9 16.85 29.75 17.95 29.75 Q24.5 30.15 25.5 36.7 25.9 39.15 25.45 41.05 L31.7 41.05 31.6 40.7 31.4 38.55 31.4 37.45 Q31.8 30.95 38.35 29.9 L42.9 30.0 42.9 24.25 42.55 24.3 40.4 24.45 39.3 24.45 Q32.75 24.05 31.75 17.5 31.4 15.15 31.8 13.3 L25.85 13.3 25.9 13.65 M10.2 20.75 Q10.3 19.0 11.6 17.85 13.25 20.45 15.6 21.5 20.0 18.8 23.0 14.35 21.85 11.8 19.9 10.25 20.85 9.0 22.2 8.75 23.4 9.2 24.2 10.0 L33.5 10.0 Q34.3 9.15 35.45 8.55 37.2 8.65 38.35 9.95 35.7 11.6 34.7 13.95 37.35 18.35 41.8 21.4 44.35 20.2 45.95 18.25 47.2 19.25 47.4 20.6 46.95 21.8 46.15 22.6 L46.15 31.9 47.3 33.6 Q47.2 35.35 45.9 36.5 44.25 33.9 41.9 32.85 37.5 35.55 34.5 40.0 35.65 42.55 37.6 44.1 36.65 45.35 35.3 45.6 34.1 45.15 33.3 44.35 L23.65 44.35 Q22.85 45.1 21.8 45.65 20.05 45.55 18.9 44.25 21.55 42.6 22.55 40.25 19.9 35.85 15.45 32.8 12.9 34.0 11.3 35.95 10.05 34.95 9.85 33.6 10.3 32.4 11.1 31.6 L11.1 22.15 10.2 20.75 M48.2 13.35 Q54.1 21.3 52.55 31.2 51.05 40.9 43.05 46.85 35.15 52.7 25.35 51.3 15.5 49.8 9.6 41.85 3.75 33.95 5.25 24.1 6.7 14.25 14.55 8.4 22.55 2.45 32.45 3.95 42.3 5.4 48.2 13.35 M45.85 15.0 Q40.65 7.95 32.0 6.65 23.2 5.3 16.15 10.55 9.05 15.75 7.8 24.5 6.5 33.25 11.7 40.3 16.95 47.35 25.65 48.75 34.4 50.0 41.45 44.75 48.5 39.55 49.85 30.85 51.1 22.05 45.85 15.0 M34.05 23.55 Q35.65 25.7 35.25 28.35 34.85 31.05 32.65 32.6 30.5 34.25 27.85 33.85 25.1 33.45 23.55 31.35 21.95 29.1 22.3 26.4 22.75 23.75 24.85 22.15 27.1 20.55 29.75 20.9 32.5 21.35 34.05 23.55" fill="#000000" fill-rule="evenodd" stroke="none"/>
      <path d="M25.9 13.65 L26.1 15.8 26.1 16.9 Q25.7 23.4 19.15 24.45 L14.35 24.3 14.35 30.0 14.7 29.9 16.85 29.75 17.95 29.75 Q24.5 30.15 25.5 36.7 25.9 39.15 25.45 41.05 L31.7 41.05 31.6 40.7 31.4 38.55 31.4 37.45 Q31.8 30.95 38.35 29.9 L42.9 30.0 42.9 24.25 42.55 24.3 40.4 24.45 39.3 24.45 Q32.75 24.05 31.75 17.5 31.4 15.15 31.8 13.3 L25.85 13.3 25.9 13.65 M10.2 20.75 Q10.3 19.0 11.6 17.85 13.25 20.45 15.6 21.5 20.0 18.8 23.0 14.35 21.85 11.8 19.9 10.25 20.85 9.0 22.2 8.75 23.4 9.2 24.2 10.0 L33.5 10.0 Q34.3 9.15 35.45 8.55 37.2 8.65 38.35 9.95 35.7 11.6 34.7 13.95 37.35 18.35 41.8 21.4 44.35 20.2 45.95 18.25 47.2 19.25 47.4 20.6 46.95 21.8 46.15 22.6 L46.15 31.9 47.3 33.6 Q47.2 35.35 45.9 36.5 44.25 33.9 41.9 32.85 37.5 35.55 34.5 40.0 35.65 42.55 37.6 44.1 36.65 45.35 35.3 45.6 34.1 45.15 33.3 44.35 L23.65 44.35 Q22.85 45.1 21.8 45.65 20.05 45.55 18.9 44.25 21.55 42.6 22.55 40.25 19.9 35.85 15.45 32.8 12.9 34.0 11.3 35.95 10.05 34.95 9.85 33.6 10.3 32.4 11.1 31.6 L11.1 22.15 10.2 20.75 M48.2 13.35 Q54.1 21.3 52.55 31.2 51.05 40.9 43.05 46.85 35.15 52.7 25.35 51.3 15.5 49.8 9.6 41.85 3.75 33.95 5.25 24.1 6.7 14.25 14.55 8.4 22.55 2.45 32.45 3.95 42.3 5.4 48.2 13.35 M45.85 15.0 Q51.1 22.05 49.85 30.85 48.5 39.55 41.45 44.75 34.4 50.0 25.65 48.75 16.95 47.35 11.7 40.3 6.5 33.25 7.8 24.5 9.05 15.75 16.15 10.55 23.2 5.3 32.0 6.65 40.65 7.95 45.85 15.0 M34.05 23.55 Q35.65 25.7 35.25 28.35 34.85 31.05 32.65 32.6 30.5 34.25 27.85 33.85 25.1 33.45 23.55 31.35 21.95 29.1 22.3 26.4 22.75 23.75 24.85 22.15 27.1 20.55 29.75 20.9 32.5 21.35 34.05 23.55 Z" fill="none" stroke="#000000" stroke-linecap="round" stroke-linejoin="round" stroke-opacity="0.2" stroke-width="1.0"/>
      <path d="M25.9 13.65 L26.1 15.8 26.1 16.9 Q25.7 23.4 19.15 24.45 L14.35 24.3 14.35 30.0 14.7 29.9 16.85 29.75 17.95 29.75 Q24.5 30.15 25.5 36.7 25.9 39.15 25.45 41.05 L31.7 41.05 31.6 40.7 31.4 38.55 31.4 37.45 Q31.8 30.95 38.35 29.9 L42.9 30.0 42.9 24.25 42.55 24.3 40.4 24.45 39.3 24.45 Q32.75 24.05 31.75 17.5 31.4 15.15 31.8 13.3 L25.85 13.3 25.9 13.65 M10.2 20.75 Q10.3 19.0 11.6 17.85 13.25 20.45 15.6 21.5 20.0 18.8 23.0 14.35 21.85 11.8 19.9 10.25 20.85 9.0 22.2 8.75 23.4 9.2 24.2 10.0 L33.5 10.0 Q34.3 9.15 35.45 8.55 37.2 8.65 38.35 9.95 35.7 11.6 34.7 13.95 37.35 18.35 41.8 21.4 44.35 20.2 45.95 18.25 47.2 19.25 47.4 20.6 46.95 21.8 46.15 22.6 L46.15 31.9 47.3 33.6 Q47.2 35.35 45.9 36.5 44.25 33.9 41.9 32.85 37.5 35.55 34.5 40.0 35.65 42.55 37.6 44.1 36.65 45.35 35.3 45.6 34.1 45.15 33.3 44.35 L23.65 44.35 Q22.85 45.1 21.8 45.65 20.05 45.55 18.9 44.25 21.55 42.6 22.55 40.25 19.9 35.85 15.45 32.8 12.9 34.0 11.3 35.95 10.05 34.95 9.85 33.6 10.3 32.4 11.1 31.6 L11.1 22.15 10.2 20.75 M45.85 15.0 Q40.65 7.95 32.0 6.65 23.2 5.3 16.15 10.55 9.05 15.75 7.8 24.5 6.5 33.25 11.7 40.3 16.95 47.35 25.65 48.75 34.4 50.0 41.45 44.75 48.5 39.55 49.85 30.85 51.1 22.05 45.85 15.0 M48.2 13.35 Q54.1 21.3 52.55 31.2 51.05 40.9 43.05 46.85 35.15 52.7 25.35 51.3 15.5 49.8 9.6 41.85 3.75 33.95 5.25 24.1 6.7 14.25 14.55 8.4 22.55 2.45 32.45 3.95 42.3 5.4 48.2 13.35 M34.05 23.55 Q35.65 25.7 35.25 28.35 34.85 31.05 32.65 32.6 30.5 34.25 27.85 33.85 25.1 33.45 23.55 31.35 21.95 29.1 22.3 26.4 22.75 23.75 24.85 22.15 27.1 20.55 29.75 20.9 32.5 21.35 34.05 23.55" fill="#000000" fill-rule="evenodd" stroke="none"/>
    </g>
  </defs>
</svg>
