<?xml version="1.0" encoding="UTF-8" standalone="no"?>
<svg xmlns:ffdec="https://www.free-decompiler.com/flash" xmlns:xlink="http://www.w3.org/1999/xlink" ffdec:objectType="frame" height="56.0px" width="56.0px" xmlns="http://www.w3.org/2000/svg">
  <g transform="matrix(1.0, 0.0, 0.0, 1.0, 0.0, 0.0)">
    <use ffdec:characterId="2" height="56.0" id="back" transform="matrix(1.0, 0.0, 0.0, 1.0, 0.0, 0.0)" width="56.0" xlink:href="#sprite0"/>
    <use ffdec:characterId="3" height="51.95" transform="matrix(1.0, 0.0, 0.0, 1.0, 8.85, 2.25)" width="40.05" xlink:href="#shape1"/>
  </g>
  <defs>
    <g id="sprite0" transform="matrix(1.0, 0.0, 0.0, 1.0, 0.0, 0.0)">
      <use ffdec:characterId="1" height="56.0" transform="matrix(1.0, 0.0, 0.0, 1.0, 0.0, 0.0)" width="56.0" xlink:href="#shape0"/>
    </g>
    <g id="shape0" transform="matrix(1.0, 0.0, 0.0, 1.0, 0.0, 0.0)">
      <path d="M56.0 56.0 L0.0 56.0 0.0 0.0 56.0 0.0 56.0 56.0" fill="#010101" fill-opacity="0.0" fill-rule="evenodd" stroke="none"/>
    </g>
    <g id="shape1" transform="matrix(1.0, 0.0, 0.0, 1.0, -8.85, -2.25)">
      <path d="M28.85 51.2 L25.8 51.0 26.0 50.05 26.05 49.35 Q26.05 46.0 24.25 43.7 22.45 41.4 20.0 41.3 L19.85 41.3 Q16.8 41.3 14.7 43.7 L14.6 43.8 Q14.1 43.0 13.85 42.0 15.7 41.35 16.2 40.05 L14.95 40.95 Q13.5 41.7 12.4 40.55 11.35 39.35 11.6 38.8 11.85 38.3 12.35 37.95 11.1 38.0 10.15 37.2 9.25 36.4 9.35 35.0 9.5 33.55 10.5 33.1 11.55 32.6 12.2 32.65 11.65 32.15 11.85 31.2 12.0 30.3 12.8 29.6 13.55 28.9 14.95 29.4 16.0 29.75 16.95 30.95 16.75 29.8 15.95 29.05 L17.2 27.25 Q9.4 8.2 12.85 5.05 16.45 1.85 21.3 3.1 25.9 4.2 27.8 21.35 L28.85 21.35 29.95 21.35 Q31.85 4.2 36.5 3.1 41.35 1.85 44.9 5.05 48.35 8.2 40.45 27.35 L41.8 29.25 Q41.2 30.15 40.9 30.95 41.9 29.7 42.8 29.4 44.2 28.9 45.0 29.6 45.75 30.3 45.95 31.2 46.15 32.15 45.6 32.65 46.25 32.6 47.25 33.1 48.3 33.55 48.4 35.0 48.5 36.4 47.6 37.2 46.7 38.0 45.45 37.95 46.0 38.3 46.2 38.8 46.4 39.35 45.35 40.55 44.25 41.7 42.8 40.95 L41.7 40.2 Q42.3 41.35 43.95 41.85 43.3 43.6 42.3 45.15 L41.35 43.7 Q39.2 41.3 36.1 41.3 L35.9 41.3 Q33.5 41.4 31.75 43.7 29.95 46.0 29.95 49.35 L29.95 50.05 30.25 51.15 28.85 51.2 M31.8 23.4 Q34.75 25.9 38.1 26.35 L38.5 25.2 Q40.3 20.2 41.6 15.3 37.45 14.9 34.35 13.3 33.05 17.45 32.1 21.7 L31.8 23.4 M20.45 36.7 Q22.05 38.3 28.8 41.5 L28.8 41.55 Q35.65 38.3 37.3 36.7 38.85 35.15 38.85 32.9 38.85 30.7 37.3 29.05 35.65 27.5 33.5 27.5 31.2 27.5 29.65 29.05 L28.9 30.05 28.05 29.05 Q26.5 27.5 24.25 27.5 22.05 27.5 20.45 29.05 18.85 30.7 18.85 32.9 18.85 35.15 20.45 36.7 M32.9 32.55 L32.6 34.0 31.7 34.6 Q31.15 34.6 30.8 34.0 30.45 33.4 30.45 32.55 30.45 31.65 30.8 31.05 31.15 30.4 31.7 30.4 32.2 30.4 32.6 31.05 L32.9 32.55 M19.65 26.35 Q23.0 25.9 26.0 23.4 L25.65 21.7 Q24.7 17.45 23.35 13.3 20.35 14.9 16.15 15.3 L19.25 25.1 19.65 26.35 M27.1 32.55 Q27.1 33.4 26.7 34.0 26.35 34.6 25.8 34.6 25.3 34.6 24.95 34.0 24.55 33.4 24.55 32.55 24.55 31.65 24.95 31.05 25.3 30.4 25.8 30.4 26.35 30.4 26.7 31.05 27.1 31.65 27.1 32.55 M25.25 49.15 L25.2 49.75 Q25.1 51.3 23.65 52.45 22.15 53.65 19.95 53.7 L19.8 53.7 Q17.1 53.7 15.25 52.45 13.5 51.3 13.35 49.75 L13.3 49.15 Q13.3 46.2 15.25 44.15 17.1 42.1 19.8 42.1 L19.95 42.1 Q22.15 42.1 23.65 44.15 25.25 46.2 25.25 49.15 M34.25 46.65 Q33.75 48.9 34.25 51.55 36.65 51.85 39.15 51.55 39.45 49.15 39.15 46.65 36.65 45.95 34.25 46.65 M30.7 49.15 Q30.7 46.2 32.3 44.15 33.8 42.1 36.0 42.1 L36.15 42.1 Q38.85 42.1 40.75 44.15 42.65 46.2 42.65 49.15 L42.6 49.75 Q42.45 51.3 40.75 52.45 38.85 53.7 36.15 53.7 L36.0 53.7 Q33.8 53.65 32.3 52.45 30.9 51.3 30.75 49.75 L30.7 49.15 M17.0 46.65 Q16.65 48.85 17.0 51.55 19.4 51.9 21.9 51.55 22.35 49.15 21.9 46.65 19.5 46.15 17.0 46.65" fill="#000000" fill-rule="evenodd" stroke="none"/>
      <path d="M28.85 51.2 L25.8 51.0 26.0 50.05 26.05 49.35 Q26.05 46.0 24.25 43.7 22.45 41.4 20.0 41.3 L19.85 41.3 Q16.8 41.3 14.7 43.7 L14.6 43.8 Q14.1 43.0 13.85 42.0 15.7 41.35 16.2 40.05 L14.95 40.95 Q13.5 41.7 12.4 40.55 11.35 39.35 11.6 38.8 11.85 38.3 12.35 37.95 11.1 38.0 10.15 37.2 9.25 36.4 9.35 35.0 9.5 33.55 10.5 33.1 11.55 32.6 12.2 32.65 11.65 32.15 11.85 31.2 12.0 30.3 12.8 29.6 13.55 28.9 14.95 29.4 16.0 29.75 16.95 30.95 16.75 29.8 15.95 29.05 L17.2 27.25 Q9.4 8.2 12.85 5.05 16.45 1.85 21.3 3.1 25.9 4.2 27.8 21.35 L28.85 21.35 29.95 21.35 Q31.85 4.2 36.5 3.1 41.35 1.85 44.9 5.05 48.35 8.2 40.45 27.35 L41.8 29.25 Q41.2 30.15 40.9 30.95 41.9 29.7 42.8 29.4 44.2 28.9 45.0 29.6 45.75 30.3 45.95 31.2 46.15 32.15 45.6 32.65 46.25 32.6 47.25 33.1 48.3 33.55 48.4 35.0 48.5 36.4 47.6 37.2 46.7 38.0 45.45 37.95 46.0 38.3 46.2 38.8 46.4 39.35 45.35 40.55 44.25 41.7 42.8 40.95 L41.7 40.2 Q42.3 41.35 43.95 41.85 43.3 43.6 42.3 45.15 L41.35 43.7 Q39.2 41.3 36.1 41.3 L35.9 41.3 Q33.5 41.4 31.75 43.7 29.95 46.0 29.95 49.35 L29.95 50.05 30.25 51.15 28.85 51.2 M31.8 23.4 Q34.75 25.9 38.1 26.35 L38.5 25.2 Q40.3 20.2 41.6 15.3 37.45 14.9 34.35 13.3 33.05 17.45 32.1 21.7 L31.8 23.4 M20.45 36.7 Q18.85 35.15 18.85 32.9 18.85 30.7 20.45 29.05 22.05 27.5 24.25 27.5 26.5 27.5 28.05 29.05 L28.9 30.05 29.65 29.05 Q31.2 27.5 33.5 27.5 35.65 27.5 37.3 29.05 38.85 30.7 38.85 32.9 38.85 35.15 37.3 36.7 35.65 38.3 28.8 41.55 L28.8 41.5 Q22.05 38.3 20.45 36.7 M32.9 32.55 L32.6 34.0 31.7 34.6 Q31.15 34.6 30.8 34.0 30.45 33.4 30.45 32.55 30.45 31.65 30.8 31.05 31.15 30.4 31.7 30.4 32.2 30.4 32.6 31.05 L32.9 32.55 M19.65 26.35 L19.25 25.1 16.15 15.3 Q20.35 14.9 23.35 13.3 24.7 17.45 25.65 21.7 L26.0 23.4 Q23.0 25.9 19.65 26.35 M27.1 32.55 Q27.1 33.4 26.7 34.0 26.35 34.6 25.8 34.6 25.3 34.6 24.95 34.0 24.55 33.4 24.55 32.55 24.55 31.65 24.95 31.05 25.3 30.4 25.8 30.4 26.35 30.4 26.7 31.05 27.1 31.65 27.1 32.55 M25.25 49.15 L25.2 49.75 Q25.1 51.3 23.65 52.45 22.15 53.65 19.95 53.7 L19.8 53.7 Q17.1 53.7 15.25 52.45 13.5 51.3 13.35 49.75 L13.3 49.15 Q13.3 46.2 15.25 44.15 17.1 42.1 19.8 42.1 L19.95 42.1 Q22.15 42.1 23.65 44.15 25.25 46.2 25.25 49.15 M17.0 46.65 Q19.5 46.15 21.9 46.65 22.35 49.15 21.9 51.55 19.4 51.9 17.0 51.55 16.65 48.85 17.0 46.65 M30.7 49.15 L30.75 49.75 Q30.9 51.3 32.3 52.45 33.8 53.65 36.0 53.7 L36.15 53.7 Q38.85 53.7 40.75 52.45 42.45 51.3 42.6 49.75 L42.65 49.15 Q42.65 46.2 40.75 44.15 38.85 42.1 36.15 42.1 L36.0 42.1 Q33.8 42.1 32.3 44.15 30.7 46.2 30.7 49.15 M34.25 46.65 Q36.65 45.95 39.15 46.65 39.45 49.15 39.15 51.55 36.65 51.85 34.25 51.55 33.75 48.9 34.25 46.65 Z" fill="none" stroke="#000000" stroke-linecap="round" stroke-linejoin="round" stroke-opacity="0.2" stroke-width="1.0"/>
    </g>
  </defs>
</svg>
