<?xml version="1.0" encoding="UTF-8" standalone="no"?>
<svg xmlns:ffdec="https://www.free-decompiler.com/flash" xmlns:xlink="http://www.w3.org/1999/xlink" ffdec:objectType="frame" height="56.0px" width="56.0px" xmlns="http://www.w3.org/2000/svg">
  <g transform="matrix(1.0, 0.0, 0.0, 1.0, 0.0, 0.0)">
    <use ffdec:characterId="2" height="56.0" id="back" transform="matrix(1.0, 0.0, 0.0, 1.0, 0.0, 0.0)" width="56.0" xlink:href="#sprite0"/>
    <use ffdec:characterId="3" height="44.0" transform="matrix(1.0, 0.0, 0.0, 1.0, 2.2, 8.5)" width="51.4" xlink:href="#shape1"/>
  </g>
  <defs>
    <g id="sprite0" transform="matrix(1.0, 0.0, 0.0, 1.0, 0.0, 0.0)">
      <use ffdec:characterId="1" height="56.0" transform="matrix(1.0, 0.0, 0.0, 1.0, 0.0, 0.0)" width="56.0" xlink:href="#shape0"/>
    </g>
    <g id="shape0" transform="matrix(1.0, 0.0, 0.0, 1.0, 0.0, 0.0)">
      <path d="M56.0 56.0 L0.0 56.0 0.0 0.0 56.0 0.0 56.0 56.0" fill="#010101" fill-opacity="0.0" fill-rule="evenodd" stroke="none"/>
    </g>
    <g id="shape1" transform="matrix(1.0, 0.0, 0.0, 1.0, -2.2, -8.5)">
      <path d="M30.35 31.3 Q29.3 32.85 28.55 35.45 33.55 32.05 35.8 31.75 37.5 31.8 39.2 32.6 L40.75 33.4 41.4 33.75 44.9 35.9 Q47.8 37.75 51.9 40.9 51.55 32.25 46.3 28.55 L45.15 27.8 45.0 27.75 43.55 29.05 Q45.15 30.65 46.65 33.35 44.5 31.15 42.15 30.75 L39.6 30.95 30.35 31.3 M35.9 19.75 Q34.45 20.7 33.6 21.8 34.25 21.85 34.75 22.4 35.35 23.0 35.35 23.8 35.35 24.65 34.75 25.25 34.15 25.85 33.3 25.85 32.5 25.85 31.9 25.25 L31.85 25.25 31.35 27.2 Q34.35 27.55 36.7 28.65 L38.7 29.9 Q42.75 28.9 45.1 26.6 L45.7 27.0 Q46.85 25.2 47.6 23.25 49.4 18.6 50.8 17.05 45.2 15.8 40.15 17.65 38.35 18.35 36.95 19.15 L35.9 19.75 M14.85 33.75 Q15.05 33.6 15.5 33.4 L16.2 33.05 16.95 32.65 17.05 32.6 Q18.7 31.8 20.45 31.75 24.3 32.2 27.85 35.35 L27.4 34.55 Q26.7 32.6 25.85 31.3 L17.45 31.0 14.05 30.75 Q11.65 31.15 9.5 33.35 10.95 30.6 12.65 29.0 L11.25 27.75 11.0 27.85 9.85 28.6 Q4.7 32.35 4.35 40.9 8.4 37.75 11.35 35.9 L14.85 33.75 M22.95 22.6 L19.8 19.7 18.85 19.05 Q17.5 18.2 15.9 17.6 11.75 16.15 5.4 17.1 6.7 18.6 8.5 23.25 9.25 25.25 10.45 27.05 L11.15 26.6 Q13.65 29.05 18.25 30.05 19.05 29.3 20.35 28.65 22.35 27.7 24.85 27.35 L24.55 26.15 Q24.0 26.65 23.25 26.65 22.4 26.65 21.8 26.05 21.2 25.45 21.2 24.65 21.2 23.8 21.8 23.2 22.3 22.7 22.95 22.6 L23.25 22.6 Q24.1 22.6 24.65 23.2 25.3 23.8 25.3 24.65 L25.25 24.95 25.5 25.3 26.35 27.15 26.55 27.1 Q27.35 24.05 26.85 22.15 25.9 18.85 25.95 17.55 26.0 16.7 26.2 16.25 L26.15 15.85 Q26.15 15.0 26.75 14.4 27.35 13.8 28.2 13.8 29.05 13.8 29.6 14.4 30.25 15.0 30.25 15.85 30.25 16.7 29.6 17.3 29.05 17.9 28.2 17.9 L27.15 17.6 Q27.4 19.65 28.55 21.8 29.45 23.5 30.0 26.55 L30.65 25.1 31.3 24.15 31.3 23.8 Q31.3 23.0 31.9 22.4 32.5 21.8 33.3 21.8 L33.45 21.8 35.25 18.75 35.3 18.7 Q31.9 13.4 25.45 11.15 24.7 14.45 21.3 17.9 L20.4 18.8 22.95 22.6 M23.55 9.55 L23.6 9.25 23.8 9.05 24.15 9.05 Q33.1 11.9 35.95 16.5 L36.55 17.45 Q37.8 16.8 39.85 16.1 L39.85 16.05 Q43.5 14.75 47.8 15.25 52.1 15.75 52.75 16.25 L52.95 16.45 52.95 16.7 52.8 16.95 Q50.45 18.75 49.15 23.25 48.45 25.65 47.4 27.65 52.85 32.15 53.1 42.3 L53.0 42.6 52.7 42.75 52.4 42.7 Q47.15 38.75 42.35 36.1 L42.35 36.05 40.65 35.05 Q40.2 34.75 39.8 34.8 L38.35 36.15 Q37.35 37.95 36.5 41.9 34.8 49.8 30.0 51.7 28.25 52.3 26.25 51.7 21.4 49.8 19.75 41.9 18.8 37.5 17.65 35.75 16.7 34.35 15.6 35.05 L13.9 36.05 13.85 36.1 Q9.05 38.75 3.9 42.7 L3.6 42.75 3.3 42.6 3.15 42.3 Q3.35 32.2 8.8 27.7 7.55 25.65 6.65 23.1 5.05 18.25 2.95 16.85 L2.75 16.65 2.75 16.4 2.85 16.15 3.1 16.0 Q11.4 14.85 14.85 15.75 17.6 16.4 19.45 17.45 L20.5 16.25 20.5 16.3 Q24.1 12.5 23.55 9.55" fill="#000000" fill-rule="evenodd" stroke="none"/>
      <path d="M23.55 9.55 Q24.1 12.5 20.5 16.3 L20.5 16.25 19.45 17.45 Q17.6 16.4 14.85 15.75 11.4 14.85 3.1 16.0 L2.85 16.15 2.75 16.4 2.75 16.65 2.95 16.85 Q5.05 18.25 6.65 23.1 7.55 25.65 8.8 27.7 3.35 32.2 3.15 42.3 L3.3 42.6 3.6 42.75 3.9 42.7 Q9.05 38.75 13.85 36.1 L13.9 36.05 15.6 35.05 Q16.7 34.35 17.65 35.75 18.8 37.5 19.75 41.9 21.4 49.8 26.25 51.7 28.25 52.3 30.0 51.7 34.8 49.8 36.5 41.9 37.35 37.95 38.35 36.15 L39.8 34.8 Q40.2 34.75 40.65 35.05 L42.35 36.05 42.35 36.1 Q47.15 38.75 52.4 42.7 L52.7 42.75 53.0 42.6 53.1 42.3 Q52.85 32.15 47.4 27.65 48.45 25.65 49.15 23.25 50.45 18.75 52.8 16.95 L52.95 16.7 52.95 16.45 52.75 16.25 Q52.1 15.75 47.8 15.25 43.5 14.75 39.85 16.05 L39.85 16.1 Q37.8 16.8 36.55 17.45 L35.95 16.5 Q33.1 11.9 24.15 9.05 L23.8 9.05 23.6 9.25 23.55 9.55 M22.95 22.6 L20.4 18.8 21.3 17.9 Q24.7 14.45 25.45 11.15 31.9 13.4 35.3 18.7 L35.25 18.75 33.45 21.8 33.3 21.8 Q32.5 21.8 31.9 22.4 31.3 23.0 31.3 23.8 L31.3 24.15 30.65 25.1 30.0 26.55 Q29.45 23.5 28.55 21.8 27.4 19.65 27.15 17.6 L28.2 17.9 Q29.05 17.9 29.6 17.3 30.25 16.7 30.25 15.85 30.25 15.0 29.6 14.4 29.05 13.8 28.2 13.8 27.35 13.8 26.75 14.4 26.15 15.0 26.15 15.85 L26.2 16.25 Q26.0 16.7 25.95 17.55 25.9 18.85 26.85 22.15 27.35 24.05 26.55 27.1 L26.35 27.15 25.5 25.3 25.25 24.95 25.3 24.65 Q25.3 23.8 24.65 23.2 24.1 22.6 23.25 22.6 L22.95 22.6 Q22.3 22.7 21.8 23.2 21.2 23.8 21.2 24.65 21.2 25.45 21.8 26.05 22.4 26.65 23.25 26.65 24.0 26.65 24.55 26.15 L24.85 27.35 Q22.35 27.7 20.35 28.65 19.05 29.3 18.25 30.05 13.65 29.05 11.15 26.6 L10.45 27.05 Q9.25 25.25 8.5 23.25 6.7 18.6 5.4 17.1 11.75 16.15 15.9 17.6 17.5 18.2 18.85 19.05 L19.8 19.7 22.95 22.6 M14.85 33.75 L11.35 35.9 Q8.4 37.75 4.35 40.9 4.7 32.35 9.85 28.6 L11.0 27.85 11.25 27.75 12.65 29.0 Q10.95 30.6 9.5 33.35 11.65 31.15 14.05 30.75 L17.45 31.0 25.85 31.3 Q26.7 32.6 27.4 34.55 L27.85 35.35 Q24.3 32.2 20.45 31.75 18.7 31.8 17.05 32.6 L16.95 32.65 16.2 33.05 15.5 33.4 Q15.05 33.6 14.85 33.75 M35.9 19.75 L36.95 19.15 Q38.35 18.35 40.15 17.65 45.2 15.8 50.8 17.05 49.4 18.6 47.6 23.25 46.85 25.2 45.7 27.0 L45.1 26.6 Q42.75 28.9 38.7 29.9 L36.7 28.65 Q34.35 27.55 31.35 27.2 L31.85 25.25 31.9 25.25 Q32.5 25.85 33.3 25.85 34.15 25.85 34.75 25.25 35.35 24.65 35.35 23.8 35.35 23.0 34.75 22.4 34.25 21.85 33.6 21.8 34.45 20.7 35.9 19.75 M30.35 31.3 L39.6 30.95 42.15 30.75 Q44.5 31.15 46.65 33.35 45.15 30.65 43.55 29.05 L45.0 27.75 45.15 27.8 46.3 28.55 Q51.55 32.25 51.9 40.9 47.8 37.75 44.9 35.9 L41.4 33.75 40.75 33.4 39.2 32.6 Q37.5 31.8 35.8 31.75 33.55 32.05 28.55 35.45 29.3 32.85 30.35 31.3 Z" fill="none" stroke="#000000" stroke-linecap="round" stroke-linejoin="round" stroke-opacity="0.2" stroke-width="1.0"/>
      <path d="M30.35 31.3 Q29.3 32.85 28.55 35.45 33.55 32.05 35.8 31.75 37.5 31.8 39.2 32.6 L40.75 33.4 41.4 33.75 44.9 35.9 Q47.8 37.75 51.9 40.9 51.55 32.25 46.3 28.55 L45.15 27.8 45.0 27.75 43.55 29.05 Q45.15 30.65 46.65 33.35 44.5 31.15 42.15 30.75 L39.6 30.95 30.35 31.3 M35.9 19.75 Q34.45 20.7 33.6 21.8 34.25 21.85 34.75 22.4 35.35 23.0 35.35 23.8 35.35 24.65 34.75 25.25 34.15 25.85 33.3 25.85 32.5 25.85 31.9 25.25 L31.85 25.25 31.35 27.2 Q34.35 27.55 36.7 28.65 L38.7 29.9 Q42.75 28.9 45.1 26.6 L45.7 27.0 Q46.85 25.2 47.6 23.25 49.4 18.6 50.8 17.05 45.2 15.8 40.15 17.65 38.35 18.35 36.95 19.15 L35.9 19.75 M14.85 33.75 Q15.05 33.6 15.5 33.4 L16.2 33.05 16.95 32.65 17.05 32.6 Q18.7 31.8 20.45 31.75 24.3 32.2 27.85 35.35 L27.4 34.55 Q26.7 32.6 25.85 31.3 L17.45 31.0 14.05 30.75 Q11.65 31.15 9.5 33.35 10.95 30.6 12.65 29.0 L11.25 27.75 11.0 27.85 9.85 28.6 Q4.7 32.35 4.35 40.9 8.4 37.75 11.35 35.9 L14.85 33.75 M22.95 22.6 L19.8 19.7 18.85 19.05 Q17.5 18.2 15.9 17.6 11.75 16.15 5.4 17.1 6.7 18.6 8.5 23.25 9.25 25.25 10.45 27.05 L11.15 26.6 Q13.65 29.05 18.25 30.05 19.05 29.3 20.35 28.65 22.35 27.7 24.85 27.35 L24.55 26.15 Q24.0 26.65 23.25 26.65 22.4 26.65 21.8 26.05 21.2 25.45 21.2 24.65 21.2 23.8 21.8 23.2 22.3 22.7 22.95 22.6 L23.25 22.6 Q24.1 22.6 24.65 23.2 25.3 23.8 25.3 24.65 L25.25 24.95 25.5 25.3 26.35 27.15 26.55 27.1 Q27.35 24.05 26.85 22.15 25.9 18.85 25.95 17.55 26.0 16.7 26.2 16.25 L26.15 15.85 Q26.15 15.0 26.75 14.4 27.35 13.8 28.2 13.8 29.05 13.8 29.6 14.4 30.25 15.0 30.25 15.85 30.25 16.7 29.6 17.3 29.05 17.9 28.2 17.9 L27.15 17.6 Q27.4 19.65 28.55 21.8 29.45 23.5 30.0 26.55 L30.65 25.1 31.3 24.15 31.3 23.8 Q31.3 23.0 31.9 22.4 32.5 21.8 33.3 21.8 L33.45 21.8 35.25 18.75 35.3 18.7 Q31.9 13.4 25.45 11.15 24.7 14.45 21.3 17.9 L20.4 18.8 22.95 22.6 M23.55 9.55 L23.6 9.25 23.8 9.05 24.15 9.05 Q33.1 11.9 35.95 16.5 L36.55 17.45 Q37.8 16.8 39.85 16.1 L39.85 16.05 Q43.5 14.75 47.8 15.25 52.1 15.75 52.75 16.25 L52.95 16.45 52.95 16.7 52.8 16.95 Q50.45 18.75 49.15 23.25 48.45 25.65 47.4 27.65 52.85 32.15 53.1 42.3 L53.0 42.6 52.7 42.75 52.4 42.7 Q47.15 38.75 42.35 36.1 L42.35 36.05 40.65 35.05 Q40.2 34.75 39.8 34.8 L38.35 36.15 Q37.35 37.95 36.5 41.9 34.8 49.8 30.0 51.7 28.25 52.3 26.25 51.7 21.4 49.8 19.75 41.9 18.8 37.5 17.65 35.75 16.7 34.35 15.6 35.05 L13.9 36.05 13.85 36.1 Q9.05 38.75 3.9 42.7 L3.6 42.75 3.3 42.6 3.15 42.3 Q3.35 32.2 8.8 27.7 7.55 25.65 6.65 23.1 5.05 18.25 2.95 16.85 L2.75 16.65 2.75 16.4 2.85 16.15 3.1 16.0 Q11.4 14.85 14.85 15.75 17.6 16.4 19.45 17.45 L20.5 16.25 20.5 16.3 Q24.1 12.5 23.55 9.55" fill="#000000" fill-rule="evenodd" stroke="none"/>
    </g>
  </defs>
</svg>
