<?xml version="1.0" encoding="UTF-8" standalone="no"?>
<svg xmlns:ffdec="https://www.free-decompiler.com/flash" xmlns:xlink="http://www.w3.org/1999/xlink" ffdec:objectType="frame" height="56.0px" width="56.0px" xmlns="http://www.w3.org/2000/svg">
  <g transform="matrix(1.0, 0.0, 0.0, 1.0, 0.0, 0.0)">
    <use ffdec:characterId="2" height="56.0" id="back" transform="matrix(1.0, 0.0, 0.0, 1.0, 0.0, 0.0)" width="56.0" xlink:href="#sprite0"/>
    <use ffdec:characterId="3" height="45.1" transform="matrix(1.0, 0.0, 0.0, 1.0, 6.3, 5.5)" width="43.7" xlink:href="#shape1"/>
  </g>
  <defs>
    <g id="sprite0" transform="matrix(1.0, 0.0, 0.0, 1.0, 0.0, 0.0)">
      <use ffdec:characterId="1" height="56.0" transform="matrix(1.0, 0.0, 0.0, 1.0, 0.0, 0.0)" width="56.0" xlink:href="#shape0"/>
    </g>
    <g id="shape0" transform="matrix(1.0, 0.0, 0.0, 1.0, 0.0, 0.0)">
      <path d="M56.0 56.0 L0.0 56.0 0.0 0.0 56.0 0.0 56.0 56.0" fill="#010101" fill-opacity="0.0" fill-rule="evenodd" stroke="none"/>
    </g>
    <g id="shape1" transform="matrix(1.0, 0.0, 0.0, 1.0, -6.3, -5.5)">
      <path d="M40.1 11.1 Q46.65 15.5 48.75 23.2 51.0 31.8 46.65 39.4 42.2 47.05 33.7 49.35 25.55 51.5 18.25 47.6 23.5 50.15 30.05 47.2 37.05 44.1 41.5 36.45 45.9 28.8 45.1 21.1 44.45 14.4 40.1 11.1 L39.9 11.45 Q40.8 13.45 39.8 18.05 38.35 24.4 33.9 32.05 29.5 39.7 24.7 44.1 20.0 48.45 17.65 47.25 L17.6 47.25 17.5 47.2 17.4 47.1 Q15.15 45.65 16.6 39.45 18.0 33.05 22.4 25.4 26.85 17.75 31.65 13.3 34.7 10.5 36.8 10.05 L37.15 9.45 Q32.25 7.55 26.3 10.25 19.3 13.4 14.85 21.05 10.45 28.7 11.2 36.35 11.95 43.55 16.85 46.8 9.75 42.4 7.55 34.25 5.3 25.75 9.7 18.1 14.1 10.45 22.65 8.15 30.25 6.15 37.15 9.4 L38.0 7.95 38.0 7.9 Q38.0 6.85 38.6 6.0 41.4 7.1 43.75 9.0 43.0 10.35 41.9 10.6 L40.65 10.1 40.1 11.1" fill="#000000" fill-rule="evenodd" stroke="none"/>
      <path d="M40.1 11.1 Q46.65 15.5 48.75 23.2 51.0 31.8 46.65 39.4 42.2 47.05 33.7 49.35 25.55 51.5 18.25 47.6 23.5 50.15 30.05 47.2 37.05 44.1 41.5 36.45 45.9 28.8 45.1 21.1 44.45 14.4 40.1 11.1 L39.9 11.45 Q40.8 13.45 39.8 18.05 38.35 24.4 33.9 32.05 29.5 39.7 24.7 44.1 20.0 48.45 17.65 47.25 L17.6 47.25 17.5 47.2 17.4 47.1 Q15.15 45.65 16.6 39.45 18.0 33.05 22.4 25.4 26.85 17.75 31.65 13.3 34.7 10.5 36.8 10.05 L37.15 9.45 Q32.25 7.55 26.3 10.25 19.3 13.4 14.85 21.05 10.45 28.7 11.2 36.35 11.95 43.55 16.85 46.8 9.75 42.4 7.55 34.25 5.3 25.75 9.7 18.1 14.1 10.45 22.65 8.15 30.25 6.15 37.15 9.4 L38.0 7.95 38.0 7.9 Q38.0 6.85 38.6 6.0 41.4 7.1 43.75 9.0 43.0 10.35 41.9 10.6 L40.65 10.1 40.1 11.1 Z" fill="none" stroke="#000000" stroke-linecap="round" stroke-linejoin="round" stroke-opacity="0.2" stroke-width="1.0"/>
      <path d="M40.1 11.1 Q46.65 15.5 48.75 23.2 51.0 31.8 46.65 39.4 42.2 47.05 33.7 49.35 25.55 51.5 18.25 47.6 23.5 50.15 30.05 47.2 37.05 44.1 41.5 36.45 45.9 28.8 45.1 21.1 44.45 14.4 40.1 11.1 L39.9 11.45 Q40.8 13.45 39.8 18.05 38.35 24.4 33.9 32.05 29.5 39.7 24.7 44.1 20.0 48.45 17.65 47.25 L17.6 47.25 17.5 47.2 17.4 47.1 Q15.15 45.65 16.6 39.45 18.0 33.05 22.4 25.4 26.85 17.75 31.65 13.3 34.7 10.5 36.8 10.05 L37.15 9.45 Q32.25 7.55 26.3 10.25 19.3 13.4 14.85 21.05 10.45 28.7 11.2 36.35 11.95 43.55 16.85 46.8 9.75 42.4 7.55 34.25 5.3 25.75 9.7 18.1 14.1 10.45 22.65 8.15 30.25 6.15 37.15 9.4 L38.0 7.95 38.0 7.9 Q38.0 6.85 38.6 6.0 41.4 7.1 43.75 9.0 43.0 10.35 41.9 10.6 L40.65 10.1 40.1 11.1" fill="#000000" fill-rule="evenodd" stroke="none"/>
    </g>
  </defs>
</svg>
