<?xml version="1.0" encoding="UTF-8" standalone="no"?>
<svg xmlns:ffdec="https://www.free-decompiler.com/flash" xmlns:xlink="http://www.w3.org/1999/xlink" ffdec:objectType="frame" height="56.0px" width="56.0px" xmlns="http://www.w3.org/2000/svg">
  <g transform="matrix(1.0, 0.0, 0.0, 1.0, 0.0, 0.0)">
    <use ffdec:characterId="2" height="56.0" id="back" transform="matrix(1.0, 0.0, 0.0, 1.0, 0.0, 0.0)" width="56.0" xlink:href="#sprite0"/>
    <use ffdec:characterId="3" height="46.6" transform="matrix(1.0, 0.0, 0.0, 1.0, 2.1, 2.95)" width="52.15" xlink:href="#shape1"/>
  </g>
  <defs>
    <g id="sprite0" transform="matrix(1.0, 0.0, 0.0, 1.0, 0.0, 0.0)">
      <use ffdec:characterId="1" height="56.0" transform="matrix(1.0, 0.0, 0.0, 1.0, 0.0, 0.0)" width="56.0" xlink:href="#shape0"/>
    </g>
    <g id="shape0" transform="matrix(1.0, 0.0, 0.0, 1.0, 0.0, 0.0)">
      <path d="M56.0 56.0 L0.0 56.0 0.0 0.0 56.0 0.0 56.0 56.0" fill="#010101" fill-opacity="0.0" fill-rule="evenodd" stroke="none"/>
    </g>
    <g id="shape1" transform="matrix(1.0, 0.0, 0.0, 1.0, -2.1, -2.95)">
      <path d="M11.4 37.85 L11.3 37.7 9.2 39.7 12.0 39.45 11.4 37.85 M16.25 24.7 Q15.6 25.4 15.75 26.25 15.75 27.3 16.35 28.0 17.05 28.55 18.0 28.55 18.95 28.55 19.65 28.0 20.3 27.3 20.3 26.25 20.2 25.4 19.55 24.7 18.85 24.0 17.8 24.0 16.95 24.0 16.25 24.7 M2.8 39.45 L2.7 39.4 2.65 39.3 2.65 38.25 Q2.4 35.6 4.5 34.55 6.45 33.55 10.55 34.0 L10.4 32.35 10.6 29.7 Q10.95 25.9 12.65 23.05 L13.85 21.5 Q16.0 19.05 18.95 19.05 20.05 19.0 20.95 22.25 L22.6 29.0 24.45 34.5 Q26.25 39.45 31.85 40.3 34.65 40.75 36.05 39.75 37.5 38.7 37.55 36.3 37.75 32.6 38.95 30.35 L39.0 30.3 39.1 30.25 Q40.6 30.35 42.0 32.25 L43.0 33.5 Q44.85 36.35 46.9 36.35 50.15 36.35 51.65 37.25 53.35 38.15 53.75 40.45 L53.75 40.55 53.7 40.6 53.6 40.6 44.35 41.2 42.0 43.0 39.05 45.05 Q33.2 49.05 30.4 49.05 24.65 49.05 18.3 45.45 L15.2 43.4 14.05 44.45 Q11.95 46.25 10.55 46.2 9.35 46.2 8.25 45.65 7.1 44.9 7.1 43.85 7.1 41.9 8.6 40.05 L2.8 39.45 M18.95 3.45 Q21.65 3.45 23.45 5.25 25.3 7.15 25.3 9.7 25.3 12.4 23.45 14.2 L23.45 14.15 Q21.65 16.05 18.95 16.05 16.3 16.05 14.5 14.15 12.65 12.4 12.65 9.7 12.65 7.15 14.5 5.25 16.3 3.45 18.95 3.45" fill="#000000" fill-rule="evenodd" stroke="none"/>
      <path d="M18.95 3.45 Q16.3 3.45 14.5 5.25 12.65 7.15 12.65 9.7 12.65 12.4 14.5 14.15 16.3 16.05 18.95 16.05 21.65 16.05 23.45 14.15 L23.45 14.2 Q25.3 12.4 25.3 9.7 25.3 7.15 23.45 5.25 21.65 3.45 18.95 3.45 M2.8 39.45 L8.6 40.05 Q7.1 41.9 7.1 43.85 7.1 44.9 8.25 45.65 9.35 46.2 10.55 46.2 11.95 46.25 14.05 44.45 L15.2 43.4 18.3 45.45 Q24.65 49.05 30.4 49.05 33.2 49.05 39.05 45.05 L42.0 43.0 44.35 41.2 53.6 40.6 53.7 40.6 53.75 40.55 53.75 40.45 Q53.35 38.15 51.65 37.25 50.15 36.35 46.9 36.35 44.85 36.35 43.0 33.5 L42.0 32.25 Q40.6 30.35 39.1 30.25 L39.0 30.3 38.95 30.35 Q37.75 32.6 37.55 36.3 37.5 38.7 36.05 39.75 34.65 40.75 31.85 40.3 26.25 39.45 24.45 34.5 L22.6 29.0 20.95 22.25 Q20.05 19.0 18.95 19.05 16.0 19.05 13.85 21.5 L12.65 23.05 Q10.95 25.9 10.6 29.7 L10.4 32.35 10.55 34.0 Q6.45 33.55 4.5 34.55 2.4 35.6 2.65 38.25 L2.65 39.3 2.7 39.4 2.8 39.45 M16.25 24.7 Q16.95 24.0 17.8 24.0 18.85 24.0 19.55 24.7 20.2 25.4 20.3 26.25 20.3 27.3 19.65 28.0 18.95 28.55 18.0 28.55 17.05 28.55 16.35 28.0 15.75 27.3 15.75 26.25 15.6 25.4 16.25 24.7 M11.4 37.85 L12.0 39.45 9.2 39.7 11.3 37.7 11.4 37.85 Z" fill="none" stroke="#000000" stroke-linecap="round" stroke-linejoin="round" stroke-opacity="0.2" stroke-width="1.0"/>
    </g>
  </defs>
</svg>
