<?xml version="1.0" encoding="UTF-8" standalone="no"?>
<svg xmlns:ffdec="https://www.free-decompiler.com/flash" xmlns:xlink="http://www.w3.org/1999/xlink" ffdec:objectType="frame" height="56.0px" width="56.0px" xmlns="http://www.w3.org/2000/svg">
  <g transform="matrix(1.0, 0.0, 0.0, 1.0, 0.0, 0.0)">
    <use ffdec:characterId="2" height="56.0" id="back" transform="matrix(1.0, 0.0, 0.0, 1.0, 0.0, 0.0)" width="56.0" xlink:href="#sprite0"/>
    <use ffdec:characterId="3" height="47.6" transform="matrix(1.0, 0.0, 0.0, 1.0, 4.0, 3.8)" width="47.6" xlink:href="#shape1"/>
  </g>
  <defs>
    <g id="sprite0" transform="matrix(1.0, 0.0, 0.0, 1.0, 0.0, 0.0)">
      <use ffdec:characterId="1" height="56.0" transform="matrix(1.0, 0.0, 0.0, 1.0, 0.0, 0.0)" width="56.0" xlink:href="#shape0"/>
    </g>
    <g id="shape0" transform="matrix(1.0, 0.0, 0.0, 1.0, 0.0, 0.0)">
      <path d="M56.0 56.0 L0.0 56.0 0.0 0.0 56.0 0.0 56.0 56.0" fill="#010101" fill-opacity="0.0" fill-rule="evenodd" stroke="none"/>
    </g>
    <g id="shape1" transform="matrix(1.0, 0.0, 0.0, 1.0, -4.0, -3.8)">
      <path d="M44.3 11.1 Q50.45 17.25 51.05 25.75 L51.1 26.55 28.85 26.55 28.85 4.3 Q37.8 4.65 44.3 11.1 M44.3 38.0 Q44.3 35.25 42.35 33.3 40.4 31.35 37.65 31.35 34.9 31.35 32.95 33.3 31.0 35.25 31.0 38.0 31.0 40.75 32.95 42.7 34.9 44.65 37.65 44.65 40.4 44.65 42.35 42.7 44.3 40.75 44.3 38.0 M44.3 17.9 L44.3 17.8 44.3 17.25 43.8 15.3 Q43.75 16.8 42.7 17.9 41.5 19.05 39.95 19.05 38.35 19.05 37.25 17.9 36.1 16.8 36.1 15.2 36.1 13.6 37.25 12.45 38.05 11.65 39.15 11.45 L38.6 11.35 37.65 11.3 Q34.9 11.3 32.95 13.2 31.0 15.15 31.0 17.9 31.0 20.7 32.95 22.6 34.9 24.55 37.65 24.55 40.4 24.55 42.35 22.6 44.3 20.7 44.3 17.9 M42.55 38.05 Q42.55 40.05 41.15 41.45 39.7 42.85 37.65 42.85 35.65 42.85 34.25 41.45 32.85 40.05 32.85 38.05 32.85 36.0 34.25 34.6 35.65 33.15 37.65 33.15 39.7 33.15 41.15 34.6 42.55 36.0 42.55 38.05 M44.3 44.1 Q37.8 50.55 28.85 50.9 L28.85 28.65 51.1 28.65 Q50.75 37.65 44.3 44.1 M24.55 17.9 Q24.55 15.15 22.6 13.2 20.7 11.3 17.9 11.3 15.15 11.3 13.2 13.2 11.3 15.15 11.3 17.9 11.3 20.7 13.2 22.6 15.15 24.55 17.9 24.55 20.7 24.55 22.6 22.6 24.55 20.7 24.55 17.9 M11.3 11.1 Q17.75 4.65 26.7 4.3 L26.7 26.55 4.5 26.55 4.55 25.75 Q5.1 17.25 11.3 11.1 M20.8 44.65 L21.05 44.65 21.05 31.35 20.8 31.35 Q18.05 31.35 16.1 33.3 14.15 35.25 14.15 38.0 14.15 40.75 16.1 42.7 18.05 44.65 20.8 44.65 M11.3 44.1 Q4.85 37.65 4.5 28.65 L26.7 28.65 26.7 50.9 Q17.75 50.55 11.3 44.1" fill="#000000" fill-rule="evenodd" stroke="none"/>
      <path d="M44.3 11.1 Q50.45 17.25 51.05 25.75 L51.1 26.55 28.85 26.55 28.85 4.3 Q37.8 4.65 44.3 11.1 M44.3 17.9 Q44.3 20.7 42.35 22.6 40.4 24.55 37.65 24.55 34.9 24.55 32.95 22.6 31.0 20.7 31.0 17.9 31.0 15.15 32.95 13.2 34.9 11.3 37.65 11.3 L38.6 11.35 39.15 11.45 Q38.05 11.65 37.25 12.45 36.1 13.6 36.1 15.2 36.1 16.8 37.25 17.9 38.35 19.05 39.95 19.05 41.5 19.05 42.7 17.9 43.75 16.8 43.8 15.3 L44.3 17.25 44.3 17.8 44.3 17.9 M44.3 38.0 Q44.3 40.75 42.35 42.7 40.4 44.65 37.65 44.65 34.9 44.65 32.95 42.7 31.0 40.75 31.0 38.0 31.0 35.25 32.95 33.3 34.9 31.35 37.65 31.35 40.4 31.35 42.35 33.3 44.3 35.25 44.3 38.0 M42.55 38.05 Q42.55 40.05 41.15 41.45 39.7 42.85 37.65 42.85 35.65 42.85 34.25 41.45 32.85 40.05 32.85 38.05 32.85 36.0 34.25 34.6 35.65 33.15 37.65 33.15 39.7 33.15 41.15 34.6 42.55 36.0 42.55 38.05 M44.3 44.1 Q37.8 50.55 28.85 50.9 L28.85 28.65 51.1 28.65 Q50.75 37.65 44.3 44.1 M24.55 17.9 Q24.55 20.7 22.6 22.6 20.7 24.55 17.9 24.55 15.15 24.55 13.2 22.6 11.3 20.7 11.3 17.9 11.3 15.15 13.2 13.2 15.15 11.3 17.9 11.3 20.7 11.3 22.6 13.2 24.55 15.15 24.55 17.9 M11.3 11.1 Q17.75 4.65 26.7 4.3 L26.7 26.55 4.5 26.55 4.55 25.75 Q5.1 17.25 11.3 11.1 M20.8 44.65 Q18.05 44.65 16.1 42.7 14.15 40.75 14.15 38.0 14.15 35.25 16.1 33.3 18.05 31.35 20.8 31.35 L21.05 31.35 21.05 44.65 20.8 44.65 M11.3 44.1 Q4.85 37.65 4.5 28.65 L26.7 28.65 26.7 50.9 Q17.75 50.55 11.3 44.1 Z" fill="none" stroke="#000000" stroke-linecap="round" stroke-linejoin="round" stroke-opacity="0.2" stroke-width="1.0"/>
      <path d="M44.3 11.1 Q50.45 17.25 51.05 25.75 L51.1 26.55 28.85 26.55 28.85 4.3 Q37.8 4.65 44.3 11.1 M44.3 38.0 Q44.3 35.25 42.35 33.3 40.4 31.35 37.65 31.35 34.9 31.35 32.95 33.3 31.0 35.25 31.0 38.0 31.0 40.75 32.95 42.7 34.9 44.65 37.65 44.65 40.4 44.65 42.35 42.7 44.3 40.75 44.3 38.0 M44.3 17.9 L44.3 17.8 44.3 17.25 43.8 15.3 Q43.75 16.8 42.7 17.9 41.5 19.05 39.95 19.05 38.35 19.05 37.25 17.9 36.1 16.8 36.1 15.2 36.1 13.6 37.25 12.45 38.05 11.65 39.15 11.45 L38.6 11.35 37.65 11.3 Q34.9 11.3 32.95 13.2 31.0 15.15 31.0 17.9 31.0 20.7 32.95 22.6 34.9 24.55 37.65 24.55 40.4 24.55 42.35 22.6 44.3 20.7 44.3 17.9 M42.55 38.05 Q42.55 40.05 41.15 41.45 39.7 42.85 37.65 42.85 35.65 42.85 34.25 41.45 32.85 40.05 32.85 38.05 32.85 36.0 34.25 34.6 35.65 33.15 37.65 33.15 39.7 33.15 41.15 34.6 42.55 36.0 42.55 38.05 M44.3 44.1 Q37.8 50.55 28.85 50.9 L28.85 28.65 51.1 28.65 Q50.75 37.65 44.3 44.1 M24.55 17.9 Q24.55 15.15 22.6 13.2 20.7 11.3 17.9 11.3 15.15 11.3 13.2 13.2 11.3 15.15 11.3 17.9 11.3 20.7 13.2 22.6 15.15 24.55 17.9 24.55 20.7 24.55 22.6 22.6 24.55 20.7 24.55 17.9 M11.3 11.1 Q17.75 4.65 26.7 4.3 L26.7 26.55 4.5 26.55 4.55 25.75 Q5.1 17.25 11.3 11.1 M20.8 44.65 L21.05 44.65 21.05 31.35 20.8 31.35 Q18.05 31.35 16.1 33.3 14.15 35.25 14.15 38.0 14.15 40.75 16.1 42.7 18.05 44.65 20.8 44.65 M11.3 44.1 Q4.85 37.65 4.5 28.65 L26.7 28.65 26.7 50.9 Q17.75 50.55 11.3 44.1" fill="#000000" fill-rule="evenodd" stroke="none"/>
    </g>
  </defs>
</svg>
