<?xml version="1.0" encoding="UTF-8" standalone="no"?>
<svg xmlns:ffdec="https://www.free-decompiler.com/flash" xmlns:xlink="http://www.w3.org/1999/xlink" ffdec:objectType="frame" height="56.0px" width="56.0px" xmlns="http://www.w3.org/2000/svg">
  <g transform="matrix(1.0, 0.0, 0.0, 1.0, 0.0, 0.0)">
    <use ffdec:characterId="2" height="56.0" id="back" transform="matrix(1.0, 0.0, 0.0, 1.0, 0.0, 0.0)" width="56.0" xlink:href="#sprite0"/>
    <use ffdec:characterId="3" height="49.8" transform="matrix(1.0, 0.0, 0.0, 1.0, 3.9, 2.6)" width="47.8" xlink:href="#shape1"/>
  </g>
  <defs>
    <g id="sprite0" transform="matrix(1.0, 0.0, 0.0, 1.0, 0.0, 0.0)">
      <use ffdec:characterId="1" height="56.0" transform="matrix(1.0, 0.0, 0.0, 1.0, 0.0, 0.0)" width="56.0" xlink:href="#shape0"/>
    </g>
    <g id="shape0" transform="matrix(1.0, 0.0, 0.0, 1.0, 0.0, 0.0)">
      <path d="M56.0 56.0 L0.0 56.0 0.0 0.0 56.0 0.0 56.0 56.0" fill="#010101" fill-opacity="0.0" fill-rule="evenodd" stroke="none"/>
    </g>
    <g id="shape1" transform="matrix(1.0, 0.0, 0.0, 1.0, -3.9, -2.6)">
      <path d="M24.2 15.75 L24.1 15.95 39.2 32.05 Q43.35 31.15 46.85 33.6 50.35 36.15 50.85 39.05 51.35 41.9 51.1 42.25 L48.85 44.1 Q47.3 42.35 42.65 38.1 40.8 39.15 39.5 40.4 38.45 41.4 37.35 43.05 L42.95 49.7 40.95 51.85 37.7 51.35 Q34.9 50.7 32.55 47.1 30.3 43.4 31.45 39.3 L31.8 38.25 16.9 22.9 16.45 23.0 Q12.3 23.9 8.8 21.35 5.25 18.9 4.8 16.0 4.25 13.1 4.5 12.8 4.7 12.4 6.75 10.9 8.25 12.65 13.0 16.9 L16.15 14.6 18.3 11.95 Q14.4 6.95 12.7 5.35 L14.7 3.15 17.9 3.65 Q20.7 4.3 23.05 7.95 25.3 11.55 24.2 15.75" fill="#000000" fill-rule="evenodd" stroke="none"/>
      <path d="M24.2 15.75 L24.1 15.95 39.2 32.05 Q43.35 31.15 46.85 33.6 50.35 36.15 50.85 39.05 51.35 41.9 51.1 42.25 L48.85 44.1 Q47.3 42.35 42.65 38.1 40.8 39.15 39.5 40.4 38.45 41.4 37.35 43.05 L42.95 49.7 40.95 51.85 37.7 51.35 Q34.9 50.7 32.55 47.1 30.3 43.4 31.45 39.3 L31.8 38.25 16.9 22.9 16.45 23.0 Q12.3 23.9 8.8 21.35 5.25 18.9 4.8 16.0 4.25 13.1 4.5 12.8 4.7 12.4 6.75 10.9 8.25 12.65 13.0 16.9 L16.15 14.6 18.3 11.95 Q14.4 6.95 12.7 5.35 L14.7 3.15 17.9 3.65 Q20.7 4.3 23.05 7.95 25.3 11.55 24.2 15.75 Z" fill="none" stroke="#000000" stroke-linecap="round" stroke-linejoin="round" stroke-opacity="0.2" stroke-width="1.0"/>
      <path d="M24.2 15.75 L24.1 15.95 39.2 32.05 Q43.35 31.15 46.85 33.6 50.35 36.15 50.85 39.05 51.35 41.9 51.1 42.25 L48.85 44.1 Q47.3 42.35 42.65 38.1 40.8 39.15 39.5 40.4 38.45 41.4 37.35 43.05 L42.95 49.7 40.95 51.85 37.7 51.35 Q34.9 50.7 32.55 47.1 30.3 43.4 31.45 39.3 L31.8 38.25 16.9 22.9 16.45 23.0 Q12.3 23.9 8.8 21.35 5.25 18.9 4.8 16.0 4.25 13.1 4.5 12.8 4.7 12.4 6.75 10.9 8.25 12.65 13.0 16.9 L16.15 14.6 18.3 11.95 Q14.4 6.95 12.7 5.35 L14.7 3.15 17.9 3.65 Q20.7 4.3 23.05 7.95 25.3 11.55 24.2 15.75" fill="#000000" fill-rule="evenodd" stroke="none"/>
    </g>
  </defs>
</svg>
