<?xml version="1.0" encoding="UTF-8" standalone="no"?>
<svg xmlns:ffdec="https://www.free-decompiler.com/flash" xmlns:xlink="http://www.w3.org/1999/xlink" ffdec:objectType="frame" height="56.0px" width="56.0px" xmlns="http://www.w3.org/2000/svg">
  <g transform="matrix(1.0, 0.0, 0.0, 1.0, 0.0, 0.0)">
    <use ffdec:characterId="2" height="56.0" id="back" transform="matrix(1.0, 0.0, 0.0, 1.0, 0.0, 0.0)" width="56.0" xlink:href="#sprite0"/>
    <use ffdec:characterId="3" height="49.45" transform="matrix(1.0, 0.0, 0.0, 1.0, 3.9, 2.65)" width="49.4" xlink:href="#shape1"/>
  </g>
  <defs>
    <g id="sprite0" transform="matrix(1.0, 0.0, 0.0, 1.0, 0.0, 0.0)">
      <use ffdec:characterId="1" height="56.0" transform="matrix(1.0, 0.0, 0.0, 1.0, 0.0, 0.0)" width="56.0" xlink:href="#shape0"/>
    </g>
    <g id="shape0" transform="matrix(1.0, 0.0, 0.0, 1.0, 0.0, 0.0)">
      <path d="M56.0 56.0 L0.0 56.0 0.0 0.0 56.0 0.0 56.0 56.0" fill="#010101" fill-opacity="0.0" fill-rule="evenodd" stroke="none"/>
    </g>
    <g id="shape1" transform="matrix(1.0, 0.0, 0.0, 1.0, -3.9, -2.65)">
      <path d="M26.6 17.1 L52.8 3.15 38.95 30.05 30.1 31.55 24.35 25.85 26.6 17.1 M17.05 36.3 L17.1 38.9 19.75 38.8 19.7 36.25 17.05 36.3 M19.85 33.25 L19.9 35.85 22.5 35.8 22.45 33.2 19.85 33.25 M22.75 30.2 L22.8 32.8 25.45 32.75 25.4 30.15 22.75 30.2 M18.6 44.5 Q18.6 47.45 16.5 49.5 14.4 51.6 11.5 51.6 8.55 51.6 6.45 49.5 4.4 47.45 4.4 44.5 4.4 41.6 6.45 39.5 8.55 37.4 11.5 37.4 L13.8 37.8 23.95 27.4 28.4 31.85 18.1 41.95 Q18.6 43.1 18.6 44.5" fill="#000000" fill-rule="evenodd" stroke="none"/>
      <path d="M26.6 17.1 L52.8 3.15 38.95 30.05 30.1 31.55 24.35 25.85 26.6 17.1 M22.75 30.2 L25.4 30.15 25.45 32.75 22.8 32.8 22.75 30.2 M19.85 33.25 L22.45 33.2 22.5 35.8 19.9 35.85 19.85 33.25 M17.05 36.3 L19.7 36.25 19.75 38.8 17.1 38.9 17.05 36.3 M18.6 44.5 Q18.6 47.45 16.5 49.5 14.4 51.6 11.5 51.6 8.55 51.6 6.45 49.5 4.4 47.45 4.4 44.5 4.4 41.6 6.45 39.5 8.55 37.4 11.5 37.4 L13.8 37.8 23.95 27.4 28.4 31.85 18.1 41.95 Q18.6 43.1 18.6 44.5 Z" fill="none" stroke="#000000" stroke-linecap="round" stroke-linejoin="round" stroke-opacity="0.2" stroke-width="1.0"/>
      <path d="M26.6 17.1 L52.8 3.15 38.95 30.05 30.1 31.55 24.35 25.85 26.6 17.1 M17.05 36.3 L17.1 38.9 19.75 38.8 19.7 36.25 17.05 36.3 M19.85 33.25 L19.9 35.85 22.5 35.8 22.45 33.2 19.85 33.25 M22.75 30.2 L22.8 32.8 25.45 32.75 25.4 30.15 22.75 30.2 M18.6 44.5 Q18.6 47.45 16.5 49.5 14.4 51.6 11.5 51.6 8.55 51.6 6.45 49.5 4.4 47.45 4.4 44.5 4.4 41.6 6.45 39.5 8.55 37.4 11.5 37.4 L13.8 37.8 23.95 27.4 28.4 31.85 18.1 41.95 Q18.6 43.1 18.6 44.5" fill="#000000" fill-rule="evenodd" stroke="none"/>
    </g>
  </defs>
</svg>
