<?xml version="1.0" encoding="UTF-8" standalone="no"?>
<svg xmlns:ffdec="https://www.free-decompiler.com/flash" xmlns:xlink="http://www.w3.org/1999/xlink" ffdec:objectType="frame" height="56.0px" width="56.0px" xmlns="http://www.w3.org/2000/svg">
  <g transform="matrix(1.0, 0.0, 0.0, 1.0, 0.0, 0.0)">
    <use ffdec:characterId="50" ffdec:characterName="49_fla.Symbole147_1" height="56.0" id="back" transform="matrix(1.0, 0.0, 0.0, 1.0, 0.0, 0.0)" width="56.0" xlink:href="#sprite0"/>
    <use ffdec:characterId="52" height="54.45" id="back" transform="matrix(1.0, 0.0, 0.0, 1.0, 0.4, 1.05)" width="55.4" xlink:href="#sprite49"/>
    <use ffdec:characterId="54" height="52.95" id="up" transform="matrix(1.0, 0.0, 0.0, 1.0, 1.15, 1.8)" width="53.9" xlink:href="#sprite50"/>
  </g>
  <defs>
    <g id="sprite0" transform="matrix(1.0, 0.0, 0.0, 1.0, 0.0, 0.0)">
      <use ffdec:characterId="49" ffdec:characterName="49_fla.Symbole144_2" height="56.0" id="back" transform="matrix(1.0, 0.0, 0.0, 1.0, 0.0, 0.0)" width="56.0" xlink:href="#sprite1"/>
    </g>
    <g id="sprite1" transform="matrix(1.0, 0.0, 0.0, 1.0, 0.0, 0.0)">
      <use ffdec:characterId="48" ffdec:characterName="49_fla.Symbole141_3" height="56.0" id="back" transform="matrix(1.0, 0.0, 0.0, 1.0, 0.0, 0.0)" width="56.0" xlink:href="#sprite2"/>
    </g>
    <g id="sprite2" transform="matrix(1.0, 0.0, 0.0, 1.0, 0.0, 0.0)">
      <use ffdec:characterId="47" ffdec:characterName="49_fla.Symbole138_4" height="56.0" id="back" transform="matrix(1.0, 0.0, 0.0, 1.0, 0.0, 0.0)" width="56.0" xlink:href="#sprite3"/>
    </g>
    <g id="sprite3" transform="matrix(1.0, 0.0, 0.0, 1.0, 0.0, 0.0)">
      <use ffdec:characterId="46" ffdec:characterName="49_fla.Symbole135_5" height="56.0" id="back" transform="matrix(1.0, 0.0, 0.0, 1.0, 0.0, 0.0)" width="56.0" xlink:href="#sprite4"/>
    </g>
    <g id="sprite4" transform="matrix(1.0, 0.0, 0.0, 1.0, 0.0, 0.0)">
      <use ffdec:characterId="45" ffdec:characterName="49_fla.Symbole132_6" height="56.0" id="back" transform="matrix(1.0, 0.0, 0.0, 1.0, 0.0, 0.0)" width="56.0" xlink:href="#sprite5"/>
    </g>
    <g id="sprite5" transform="matrix(1.0, 0.0, 0.0, 1.0, 0.0, 0.0)">
      <use ffdec:characterId="44" ffdec:characterName="49_fla.Symbole129_7" height="56.0" id="back" transform="matrix(1.0, 0.0, 0.0, 1.0, 0.0, 0.0)" width="56.0" xlink:href="#sprite6"/>
    </g>
    <g id="sprite6" transform="matrix(1.0, 0.0, 0.0, 1.0, 0.0, 0.0)">
      <use ffdec:characterId="43" ffdec:characterName="49_fla.Symbole126_8" height="56.0" id="back" transform="matrix(1.0, 0.0, 0.0, 1.0, 0.0, 0.0)" width="56.0" xlink:href="#sprite7"/>
    </g>
    <g id="sprite7" transform="matrix(1.0, 0.0, 0.0, 1.0, 0.0, 0.0)">
      <use ffdec:characterId="42" ffdec:characterName="49_fla.Symbole123_9" height="56.0" id="back" transform="matrix(1.0, 0.0, 0.0, 1.0, 0.0, 0.0)" width="56.0" xlink:href="#sprite8"/>
    </g>
    <g id="sprite8" transform="matrix(1.0, 0.0, 0.0, 1.0, 0.0, 0.0)">
      <use ffdec:characterId="41" ffdec:characterName="49_fla.Symbole120_10" height="56.0" id="back" transform="matrix(1.0, 0.0, 0.0, 1.0, 0.0, 0.0)" width="56.0" xlink:href="#sprite9"/>
    </g>
    <g id="sprite9" transform="matrix(1.0, 0.0, 0.0, 1.0, 0.0, 0.0)">
      <use ffdec:characterId="40" ffdec:characterName="49_fla.Symbole117_11" height="56.0" id="back" transform="matrix(1.0, 0.0, 0.0, 1.0, 0.0, 0.0)" width="56.0" xlink:href="#sprite10"/>
    </g>
    <g id="sprite10" transform="matrix(1.0, 0.0, 0.0, 1.0, 0.0, 0.0)">
      <use ffdec:characterId="39" ffdec:characterName="49_fla.Symbole114_12" height="56.0" id="back" transform="matrix(1.0, 0.0, 0.0, 1.0, 0.0, 0.0)" width="56.0" xlink:href="#sprite11"/>
    </g>
    <g id="sprite11" transform="matrix(1.0, 0.0, 0.0, 1.0, 0.0, 0.0)">
      <use ffdec:characterId="38" ffdec:characterName="49_fla.Symbole111_13" height="56.0" id="back" transform="matrix(1.0, 0.0, 0.0, 1.0, 0.0, 0.0)" width="56.0" xlink:href="#sprite12"/>
    </g>
    <g id="sprite12" transform="matrix(1.0, 0.0, 0.0, 1.0, 0.0, 0.0)">
      <use ffdec:characterId="37" ffdec:characterName="49_fla.Symbole108_14" height="56.0" id="back" transform="matrix(1.0, 0.0, 0.0, 1.0, 0.0, 0.0)" width="56.0" xlink:href="#sprite13"/>
    </g>
    <g id="sprite13" transform="matrix(1.0, 0.0, 0.0, 1.0, 0.0, 0.0)">
      <use ffdec:characterId="36" ffdec:characterName="49_fla.Symbole105_15" height="56.0" id="back" transform="matrix(1.0, 0.0, 0.0, 1.0, 0.0, 0.0)" width="56.0" xlink:href="#sprite14"/>
    </g>
    <g id="sprite14" transform="matrix(1.0, 0.0, 0.0, 1.0, 0.0, 0.0)">
      <use ffdec:characterId="35" ffdec:characterName="49_fla.Symbole102_16" height="56.0" id="back" transform="matrix(1.0, 0.0, 0.0, 1.0, 0.0, 0.0)" width="56.0" xlink:href="#sprite15"/>
    </g>
    <g id="sprite15" transform="matrix(1.0, 0.0, 0.0, 1.0, 0.0, 0.0)">
      <use ffdec:characterId="34" ffdec:characterName="49_fla.Symbole99_17" height="56.0" id="back" transform="matrix(1.0, 0.0, 0.0, 1.0, 0.0, 0.0)" width="56.0" xlink:href="#sprite16"/>
    </g>
    <g id="sprite16" transform="matrix(1.0, 0.0, 0.0, 1.0, 0.0, 0.0)">
      <use ffdec:characterId="33" ffdec:characterName="49_fla.Symbole96_18" height="56.0" id="back" transform="matrix(1.0, 0.0, 0.0, 1.0, 0.0, 0.0)" width="56.0" xlink:href="#sprite17"/>
    </g>
    <g id="sprite17" transform="matrix(1.0, 0.0, 0.0, 1.0, 0.0, 0.0)">
      <use ffdec:characterId="32" ffdec:characterName="49_fla.Symbole93_19" height="56.0" id="back" transform="matrix(1.0, 0.0, 0.0, 1.0, 0.0, 0.0)" width="56.0" xlink:href="#sprite18"/>
    </g>
    <g id="sprite18" transform="matrix(1.0, 0.0, 0.0, 1.0, 0.0, 0.0)">
      <use ffdec:characterId="31" ffdec:characterName="49_fla.Symbole90_20" height="56.0" id="back" transform="matrix(1.0, 0.0, 0.0, 1.0, 0.0, 0.0)" width="56.0" xlink:href="#sprite19"/>
    </g>
    <g id="sprite19" transform="matrix(1.0, 0.0, 0.0, 1.0, 0.0, 0.0)">
      <use ffdec:characterId="30" ffdec:characterName="49_fla.Symbole87_21" height="56.0" id="back" transform="matrix(1.0, 0.0, 0.0, 1.0, 0.0, 0.0)" width="56.0" xlink:href="#sprite20"/>
    </g>
    <g id="sprite20" transform="matrix(1.0, 0.0, 0.0, 1.0, 0.0, 0.0)">
      <use ffdec:characterId="29" ffdec:characterName="49_fla.Symbole84_22" height="56.0" id="back" transform="matrix(1.0, 0.0, 0.0, 1.0, 0.0, 0.0)" width="56.0" xlink:href="#sprite21"/>
    </g>
    <g id="sprite21" transform="matrix(1.0, 0.0, 0.0, 1.0, 0.0, 0.0)">
      <use ffdec:characterId="28" ffdec:characterName="49_fla.Symbole81_23" height="56.0" id="back" transform="matrix(1.0, 0.0, 0.0, 1.0, 0.0, 0.0)" width="56.0" xlink:href="#sprite22"/>
    </g>
    <g id="sprite22" transform="matrix(1.0, 0.0, 0.0, 1.0, 0.0, 0.0)">
      <use ffdec:characterId="27" ffdec:characterName="49_fla.Symbole78_24" height="56.0" id="back" transform="matrix(1.0, 0.0, 0.0, 1.0, 0.0, 0.0)" width="56.0" xlink:href="#sprite23"/>
    </g>
    <g id="sprite23" transform="matrix(1.0, 0.0, 0.0, 1.0, 0.0, 0.0)">
      <use ffdec:characterId="26" ffdec:characterName="49_fla.Symbole75_25" height="56.0" id="back" transform="matrix(1.0, 0.0, 0.0, 1.0, 0.0, 0.0)" width="56.0" xlink:href="#sprite24"/>
    </g>
    <g id="sprite24" transform="matrix(1.0, 0.0, 0.0, 1.0, 0.0, 0.0)">
      <use ffdec:characterId="25" ffdec:characterName="49_fla.Symbole72_26" height="56.0" id="back" transform="matrix(1.0, 0.0, 0.0, 1.0, 0.0, 0.0)" width="56.0" xlink:href="#sprite25"/>
    </g>
    <g id="sprite25" transform="matrix(1.0, 0.0, 0.0, 1.0, 0.0, 0.0)">
      <use ffdec:characterId="24" ffdec:characterName="49_fla.Symbole69_27" height="56.0" id="back" transform="matrix(1.0, 0.0, 0.0, 1.0, 0.0, 0.0)" width="56.0" xlink:href="#sprite26"/>
    </g>
    <g id="sprite26" transform="matrix(1.0, 0.0, 0.0, 1.0, 0.0, 0.0)">
      <use ffdec:characterId="23" ffdec:characterName="49_fla.Symbole66_28" height="56.0" id="back" transform="matrix(1.0, 0.0, 0.0, 1.0, 0.0, 0.0)" width="56.0" xlink:href="#sprite27"/>
    </g>
    <g id="sprite27" transform="matrix(1.0, 0.0, 0.0, 1.0, 0.0, 0.0)">
      <use ffdec:characterId="22" ffdec:characterName="49_fla.Symbole63_29" height="56.0" id="back" transform="matrix(1.0, 0.0, 0.0, 1.0, 0.0, 0.0)" width="56.0" xlink:href="#sprite28"/>
    </g>
    <g id="sprite28" transform="matrix(1.0, 0.0, 0.0, 1.0, 0.0, 0.0)">
      <use ffdec:characterId="21" ffdec:characterName="49_fla.Symbole60_30" height="56.0" id="back" transform="matrix(1.0, 0.0, 0.0, 1.0, 0.0, 0.0)" width="56.0" xlink:href="#sprite29"/>
    </g>
    <g id="sprite29" transform="matrix(1.0, 0.0, 0.0, 1.0, 0.0, 0.0)">
      <use ffdec:characterId="20" ffdec:characterName="49_fla.Symbole57_31" height="56.0" id="back" transform="matrix(1.0, 0.0, 0.0, 1.0, 0.0, 0.0)" width="56.0" xlink:href="#sprite30"/>
    </g>
    <g id="sprite30" transform="matrix(1.0, 0.0, 0.0, 1.0, 0.0, 0.0)">
      <use ffdec:characterId="19" ffdec:characterName="49_fla.Symbole54_32" height="56.0" id="back" transform="matrix(1.0, 0.0, 0.0, 1.0, 0.0, 0.0)" width="56.0" xlink:href="#sprite31"/>
    </g>
    <g id="sprite31" transform="matrix(1.0, 0.0, 0.0, 1.0, 0.0, 0.0)">
      <use ffdec:characterId="18" ffdec:characterName="49_fla.Symbole51_33" height="56.0" id="back" transform="matrix(1.0, 0.0, 0.0, 1.0, 0.0, 0.0)" width="56.0" xlink:href="#sprite32"/>
    </g>
    <g id="sprite32" transform="matrix(1.0, 0.0, 0.0, 1.0, 0.0, 0.0)">
      <use ffdec:characterId="17" ffdec:characterName="49_fla.Symbole48_34" height="56.0" id="back" transform="matrix(1.0, 0.0, 0.0, 1.0, 0.0, 0.0)" width="56.0" xlink:href="#sprite33"/>
    </g>
    <g id="sprite33" transform="matrix(1.0, 0.0, 0.0, 1.0, 0.0, 0.0)">
      <use ffdec:characterId="16" ffdec:characterName="49_fla.Symbole45_35" height="56.0" id="back" transform="matrix(1.0, 0.0, 0.0, 1.0, 0.0, 0.0)" width="56.0" xlink:href="#sprite34"/>
    </g>
    <g id="sprite34" transform="matrix(1.0, 0.0, 0.0, 1.0, 0.0, 0.0)">
      <use ffdec:characterId="15" ffdec:characterName="49_fla.Symbole42_36" height="56.0" id="back" transform="matrix(1.0, 0.0, 0.0, 1.0, 0.0, 0.0)" width="56.0" xlink:href="#sprite35"/>
    </g>
    <g id="sprite35" transform="matrix(1.0, 0.0, 0.0, 1.0, 0.0, 0.0)">
      <use ffdec:characterId="14" ffdec:characterName="49_fla.Symbole39_37" height="56.0" id="back" transform="matrix(1.0, 0.0, 0.0, 1.0, 0.0, 0.0)" width="56.0" xlink:href="#sprite36"/>
    </g>
    <g id="sprite36" transform="matrix(1.0, 0.0, 0.0, 1.0, 0.0, 0.0)">
      <use ffdec:characterId="13" ffdec:characterName="49_fla.Symbole36_38" height="56.0" id="back" transform="matrix(1.0, 0.0, 0.0, 1.0, 0.0, 0.0)" width="56.0" xlink:href="#sprite37"/>
    </g>
    <g id="sprite37" transform="matrix(1.0, 0.0, 0.0, 1.0, 0.0, 0.0)">
      <use ffdec:characterId="12" ffdec:characterName="49_fla.Symbole33_39" height="56.0" id="back" transform="matrix(1.0, 0.0, 0.0, 1.0, 0.0, 0.0)" width="56.0" xlink:href="#sprite38"/>
    </g>
    <g id="sprite38" transform="matrix(1.0, 0.0, 0.0, 1.0, 0.0, 0.0)">
      <use ffdec:characterId="11" ffdec:characterName="49_fla.Symbole30_40" height="56.0" id="back" transform="matrix(1.0, 0.0, 0.0, 1.0, 0.0, 0.0)" width="56.0" xlink:href="#sprite39"/>
    </g>
    <g id="sprite39" transform="matrix(1.0, 0.0, 0.0, 1.0, 0.0, 0.0)">
      <use ffdec:characterId="10" ffdec:characterName="49_fla.Symbole27_41" height="56.0" id="back" transform="matrix(1.0, 0.0, 0.0, 1.0, 0.0, 0.0)" width="56.0" xlink:href="#sprite40"/>
    </g>
    <g id="sprite40" transform="matrix(1.0, 0.0, 0.0, 1.0, 0.0, 0.0)">
      <use ffdec:characterId="9" ffdec:characterName="49_fla.Symbole24_42" height="56.0" id="back" transform="matrix(1.0, 0.0, 0.0, 1.0, 0.0, 0.0)" width="56.0" xlink:href="#sprite41"/>
    </g>
    <g id="sprite41" transform="matrix(1.0, 0.0, 0.0, 1.0, 0.0, 0.0)">
      <use ffdec:characterId="8" ffdec:characterName="49_fla.Symbole21_43" height="56.0" id="back" transform="matrix(1.0, 0.0, 0.0, 1.0, 0.0, 0.0)" width="56.0" xlink:href="#sprite42"/>
    </g>
    <g id="sprite42" transform="matrix(1.0, 0.0, 0.0, 1.0, 0.0, 0.0)">
      <use ffdec:characterId="7" ffdec:characterName="49_fla.Symbole18_44" height="56.0" id="back" transform="matrix(1.0, 0.0, 0.0, 1.0, 0.0, 0.0)" width="56.0" xlink:href="#sprite43"/>
    </g>
    <g id="sprite43" transform="matrix(1.0, 0.0, 0.0, 1.0, 0.0, 0.0)">
      <use ffdec:characterId="6" ffdec:characterName="49_fla.Symbole15_45" height="56.0" id="back" transform="matrix(1.0, 0.0, 0.0, 1.0, 0.0, 0.0)" width="56.0" xlink:href="#sprite44"/>
    </g>
    <g id="sprite44" transform="matrix(1.0, 0.0, 0.0, 1.0, 0.0, 0.0)">
      <use ffdec:characterId="5" ffdec:characterName="49_fla.Symbole12_46" height="56.0" id="back" transform="matrix(1.0, 0.0, 0.0, 1.0, 0.0, 0.0)" width="56.0" xlink:href="#sprite45"/>
    </g>
    <g id="sprite45" transform="matrix(1.0, 0.0, 0.0, 1.0, 0.0, 0.0)">
      <use ffdec:characterId="4" ffdec:characterName="49_fla.Symbole9_47" height="56.0" id="back" transform="matrix(1.0, 0.0, 0.0, 1.0, 0.0, 0.0)" width="56.0" xlink:href="#sprite46"/>
    </g>
    <g id="sprite46" transform="matrix(1.0, 0.0, 0.0, 1.0, 0.0, 0.0)">
      <use ffdec:characterId="3" ffdec:characterName="49_fla.Symbole6_48" height="56.0" id="back" transform="matrix(1.0, 0.0, 0.0, 1.0, 0.0, 0.0)" width="56.0" xlink:href="#sprite47"/>
    </g>
    <g id="sprite47" transform="matrix(1.0, 0.0, 0.0, 1.0, 0.0, 0.0)">
      <use ffdec:characterId="2" height="56.0" id="back" transform="matrix(1.0, 0.0, 0.0, 1.0, 0.0, 0.0)" width="56.0" xlink:href="#sprite48"/>
    </g>
    <g id="sprite48" transform="matrix(1.0, 0.0, 0.0, 1.0, 0.0, 0.0)">
      <use ffdec:characterId="1" height="56.0" transform="matrix(1.0, 0.0, 0.0, 1.0, 0.0, 0.0)" width="56.0" xlink:href="#shape0"/>
    </g>
    <g id="shape0" transform="matrix(1.0, 0.0, 0.0, 1.0, 0.0, 0.0)">
      <path d="M56.0 56.0 L0.0 56.0 0.0 0.0 56.0 0.0 56.0 56.0" fill="#010101" fill-opacity="0.0" fill-rule="evenodd" stroke="none"/>
    </g>
    <g id="sprite49" transform="matrix(1.0, 0.0, 0.0, 1.0, 0.75, 0.75)">
      <use ffdec:characterId="51" height="54.45" transform="matrix(1.0, 0.0, 0.0, 1.0, -0.75, -0.75)" width="55.4" xlink:href="#shape1"/>
    </g>
    <g id="shape1" transform="matrix(1.0, 0.0, 0.0, 1.0, 0.75, 0.75)">
      <path d="M46.25 9.7 Q46.5 10.3 46.25 10.8 46.05 11.35 45.5 11.35 44.1 11.4 44.1 12.45 43.95 13.15 44.75 13.75 L47.85 15.3 Q49.35 16.15 50.65 17.65 L51.5 18.7 Q53.25 21.1 53.8 24.8 L53.9 26.5 Q53.8 29.6 53.05 32.1 51.5 36.45 46.9 39.8 44.6 41.4 41.15 43.15 L35.3 45.8 Q29.45 48.55 26.95 52.95 24.35 48.55 18.55 45.8 L12.7 43.15 Q9.2 41.4 7.05 39.8 2.35 36.45 0.8 32.1 0.0 29.6 0.0 26.5 L0.1 24.8 Q0.55 21.1 2.25 18.7 L3.2 17.65 Q4.5 16.15 6.0 15.3 L9.2 13.75 Q9.8 13.15 9.8 12.45 9.65 11.4 8.35 11.35 7.9 11.35 7.65 10.8 7.3 10.3 7.65 9.7 7.95 8.85 9.05 8.75 10.25 8.55 11.15 9.3 12.2 10.05 12.25 11.35 12.4 12.3 11.4 13.85 13.3 13.55 15.2 14.25 17.8 15.15 19.4 17.65 20.7 19.4 20.85 21.75 20.85 24.2 19.6 26.5 L17.8 28.75 15.65 30.45 13.15 31.75 Q12.2 32.35 11.6 33.25 11.1 34.15 11.85 35.85 12.0 36.3 11.6 36.45 11.1 36.45 10.8 36.05 9.25 34.4 10.1 31.75 10.5 30.6 11.75 29.5 L13.75 27.45 14.35 26.5 Q14.6 25.4 14.0 24.65 13.5 23.75 11.75 23.9 11.4 23.9 11.4 23.5 11.3 22.25 10.25 21.4 9.2 20.55 7.95 20.7 6.45 20.85 5.1 22.45 3.85 23.75 3.4 26.5 2.95 29.5 4.1 32.8 5.6 36.75 9.9 39.8 12.6 41.45 19.15 44.3 17.35 41.45 16.7 39.8 L16.35 38.25 Q15.9 35.8 16.8 33.7 17.8 31.5 20.15 31.05 L22.35 31.1 Q23.25 31.5 23.9 32.55 24.8 33.85 24.25 35.6 L23.65 36.45 Q23.05 36.9 22.6 36.65 21.9 36.05 21.65 36.05 20.6 35.85 19.85 36.65 19.15 37.35 19.1 38.5 18.95 39.1 19.1 39.8 19.15 40.85 19.75 41.9 21.05 44.75 25.4 48.4 24.8 46.8 24.8 43.35 24.7 40.1 25.2 38.2 26.4 33.05 26.0 26.5 25.4 17.05 21.15 13.85 19.15 12.45 17.0 12.3 L15.75 12.25 Q15.05 11.85 15.5 10.75 16.05 9.05 17.25 8.15 18.95 6.6 21.65 7.0 23.05 7.25 23.25 8.15 L23.25 9.2 23.25 10.15 Q23.4 10.95 24.05 11.2 24.7 11.55 25.35 11.2 26.3 10.6 25.8 9.3 L24.8 8.4 Q23.9 8.15 23.8 7.9 23.2 7.1 23.8 4.9 24.8 1.85 26.95 0.0 29.05 1.85 30.1 4.9 30.75 7.1 30.1 7.9 L29.05 8.4 Q28.35 8.75 28.15 9.3 27.5 10.6 28.6 11.2 29.2 11.55 29.9 11.2 30.5 10.95 30.6 10.15 L30.6 9.2 30.6 8.15 Q30.75 7.25 32.25 7.0 34.9 6.6 36.6 8.15 37.85 9.05 38.35 10.75 38.7 11.85 38.1 12.25 L36.85 12.3 Q34.6 12.45 32.75 13.85 28.45 17.05 27.9 26.5 27.5 33.05 28.65 38.2 29.05 40.1 29.05 43.35 29.05 46.8 28.45 48.4 32.85 44.75 34.15 41.9 34.7 40.85 34.85 39.8 L34.85 38.5 Q34.6 37.35 34.05 36.65 33.3 35.85 32.25 36.05 L31.25 36.65 Q30.75 36.9 30.3 36.45 L29.65 35.6 Q29.0 33.85 29.9 32.55 30.5 31.5 31.6 31.1 L33.75 31.05 Q36.0 31.5 37.05 33.7 37.9 35.8 37.5 38.25 L37.2 39.8 Q36.6 41.45 34.7 44.3 41.3 41.45 43.95 39.8 48.2 36.9 49.75 32.8 51.0 29.5 50.45 26.5 49.9 23.65 48.85 22.45 47.4 20.85 45.9 20.7 44.75 20.55 43.65 21.4 42.45 22.25 42.45 23.5 42.45 23.9 42.15 23.9 40.45 23.75 39.85 24.65 39.2 25.4 39.55 26.5 39.65 27.0 40.1 27.45 40.65 28.25 42.15 29.5 43.3 30.6 43.75 31.75 44.5 34.4 43.0 36.05 L42.25 36.45 Q41.95 36.3 42.0 35.85 42.85 34.15 42.25 33.25 L40.7 31.75 38.25 30.45 36.15 28.75 34.25 26.5 Q32.95 24.2 33.1 21.75 33.15 19.4 34.45 17.65 36.0 15.15 38.7 14.25 40.65 13.55 42.45 13.85 41.55 12.3 41.6 11.35 41.6 10.05 42.7 9.3 43.65 8.55 44.8 8.75 45.8 8.85 46.25 9.7 Z" fill="none" stroke="#000000" stroke-linecap="round" stroke-linejoin="round" stroke-opacity="0.2" stroke-width="1.5"/>
    </g>
    <g id="sprite50" transform="matrix(1.0, 0.0, 0.0, 1.0, 0.0, 0.0)">
      <use ffdec:characterId="53" height="52.95" transform="matrix(1.0, 0.0, 0.0, 1.0, 0.0, 0.0)" width="53.9" xlink:href="#shape2"/>
    </g>
    <g id="shape2" transform="matrix(1.0, 0.0, 0.0, 1.0, 0.0, 0.0)">
      <path d="M46.25 9.7 Q46.5 10.3 46.25 10.8 46.05 11.35 45.5 11.35 44.1 11.4 44.1 12.45 43.95 13.15 44.75 13.75 L47.85 15.3 Q49.35 16.15 50.65 17.65 L51.5 18.7 Q53.25 21.1 53.8 24.8 L53.9 26.5 Q53.8 29.6 53.05 32.1 51.5 36.45 46.9 39.8 44.6 41.4 41.15 43.15 L35.3 45.8 Q29.45 48.55 26.95 52.95 24.35 48.55 18.55 45.8 L12.7 43.15 Q9.2 41.4 7.05 39.8 2.35 36.45 0.8 32.1 0.0 29.6 0.0 26.5 L0.1 24.8 Q0.55 21.1 2.25 18.7 L3.2 17.65 Q4.5 16.15 6.0 15.3 L9.2 13.75 Q9.8 13.15 9.8 12.45 9.65 11.4 8.35 11.35 7.9 11.35 7.65 10.8 7.3 10.3 7.65 9.7 7.95 8.85 9.05 8.75 10.25 8.55 11.15 9.3 12.2 10.05 12.25 11.35 12.4 12.3 11.4 13.85 13.3 13.55 15.2 14.25 17.8 15.15 19.4 17.65 20.7 19.4 20.85 21.75 20.85 24.2 19.6 26.5 L17.8 28.75 15.65 30.45 13.15 31.75 Q12.2 32.35 11.6 33.25 11.1 34.15 11.85 35.85 12.0 36.3 11.6 36.45 11.1 36.45 10.8 36.05 9.25 34.4 10.1 31.75 10.5 30.6 11.75 29.5 L13.75 27.45 14.35 26.5 Q14.6 25.4 14.0 24.65 13.5 23.75 11.75 23.9 11.4 23.9 11.4 23.5 11.3 22.25 10.25 21.4 9.2 20.55 7.95 20.7 6.45 20.85 5.1 22.45 3.85 23.75 3.4 26.5 2.95 29.5 4.1 32.8 5.6 36.75 9.9 39.8 12.6 41.45 19.15 44.3 17.35 41.45 16.7 39.8 L16.35 38.25 Q15.9 35.8 16.8 33.7 17.8 31.5 20.15 31.05 L22.35 31.1 Q23.25 31.5 23.9 32.55 24.8 33.85 24.25 35.6 L23.65 36.45 Q23.05 36.9 22.6 36.65 21.9 36.05 21.65 36.05 20.6 35.85 19.85 36.65 19.15 37.35 19.1 38.5 18.95 39.1 19.1 39.8 19.15 40.85 19.75 41.9 21.05 44.75 25.4 48.4 24.8 46.8 24.8 43.35 24.7 40.1 25.2 38.2 26.4 33.05 26.0 26.5 25.4 17.05 21.15 13.85 19.15 12.45 17.0 12.3 L15.75 12.25 Q15.05 11.85 15.5 10.75 16.05 9.05 17.25 8.15 18.95 6.6 21.65 7.0 23.05 7.25 23.25 8.15 L23.25 9.2 23.25 10.15 Q23.4 10.95 24.05 11.2 24.7 11.55 25.35 11.2 26.3 10.6 25.8 9.3 L24.8 8.4 Q23.9 8.15 23.8 7.9 23.2 7.1 23.8 4.9 24.8 1.85 26.95 0.0 29.05 1.85 30.1 4.9 30.75 7.1 30.1 7.9 L29.05 8.4 Q28.35 8.75 28.15 9.3 27.5 10.6 28.6 11.2 29.2 11.55 29.9 11.2 30.5 10.95 30.6 10.15 L30.6 9.2 30.6 8.15 Q30.75 7.25 32.25 7.0 34.9 6.6 36.6 8.15 37.85 9.05 38.35 10.75 38.7 11.85 38.1 12.25 L36.85 12.3 Q34.6 12.45 32.75 13.85 28.45 17.05 27.9 26.5 27.5 33.05 28.65 38.2 29.05 40.1 29.05 43.35 29.05 46.8 28.45 48.4 32.85 44.75 34.15 41.9 34.7 40.85 34.85 39.8 L34.85 38.5 Q34.6 37.35 34.05 36.65 33.3 35.85 32.25 36.05 L31.25 36.65 Q30.75 36.9 30.3 36.45 L29.65 35.6 Q29.0 33.85 29.9 32.55 30.5 31.5 31.6 31.1 L33.75 31.05 Q36.0 31.5 37.05 33.7 37.9 35.8 37.5 38.25 L37.2 39.8 Q36.6 41.45 34.7 44.3 41.3 41.45 43.95 39.8 48.2 36.9 49.75 32.8 51.0 29.5 50.45 26.5 49.9 23.65 48.85 22.45 47.4 20.85 45.9 20.7 44.75 20.55 43.65 21.4 42.45 22.25 42.45 23.5 42.45 23.9 42.15 23.9 40.45 23.75 39.85 24.65 39.2 25.4 39.55 26.5 39.65 27.0 40.1 27.45 40.65 28.25 42.15 29.5 43.3 30.6 43.75 31.75 44.5 34.4 43.0 36.05 L42.25 36.45 Q41.95 36.3 42.0 35.85 42.85 34.15 42.25 33.25 L40.7 31.75 38.25 30.45 36.15 28.75 34.25 26.5 Q32.95 24.2 33.1 21.75 33.15 19.4 34.45 17.65 36.0 15.15 38.7 14.25 40.65 13.55 42.45 13.85 41.55 12.3 41.6 11.35 41.6 10.05 42.7 9.3 43.65 8.55 44.8 8.75 45.8 8.85 46.25 9.7" fill="#000000" fill-rule="evenodd" stroke="none"/>
    </g>
  </defs>
</svg>
