<?xml version="1.0" encoding="UTF-8" standalone="no"?>
<svg xmlns:ffdec="https://www.free-decompiler.com/flash" xmlns:xlink="http://www.w3.org/1999/xlink" ffdec:objectType="frame" height="56.0px" width="56.0px" xmlns="http://www.w3.org/2000/svg">
  <g transform="matrix(1.0, 0.0, 0.0, 1.0, 0.0, 0.0)">
    <use ffdec:characterId="2" height="56.0" id="back" transform="matrix(1.0, 0.0, 0.0, 1.0, 0.0, 0.0)" width="56.0" xlink:href="#sprite0"/>
    <use ffdec:characterId="3" height="47.5" transform="matrix(1.0, 0.0, 0.0, 1.0, 5.65, 4.15)" width="45.8" xlink:href="#shape1"/>
  </g>
  <defs>
    <g id="sprite0" transform="matrix(1.0, 0.0, 0.0, 1.0, 0.0, 0.0)">
      <use ffdec:characterId="1" height="56.0" transform="matrix(1.0, 0.0, 0.0, 1.0, 0.0, 0.0)" width="56.0" xlink:href="#shape0"/>
    </g>
    <g id="shape0" transform="matrix(1.0, 0.0, 0.0, 1.0, 0.0, 0.0)">
      <path d="M56.0 56.0 L0.0 56.0 0.0 0.0 56.0 0.0 56.0 56.0" fill="#010101" fill-opacity="0.0" fill-rule="evenodd" stroke="none"/>
    </g>
    <g id="shape1" transform="matrix(1.0, 0.0, 0.0, 1.0, -5.65, -4.15)">
      <path d="M47.6 37.15 L38.85 37.15 40.45 28.0 40.45 27.75 38.8 18.2 47.55 18.2 50.95 27.8 47.6 37.15 M38.1 15.95 L31.0 4.65 45.65 15.95 38.1 15.95 M19.15 27.8 L20.8 18.2 36.5 18.2 38.15 27.8 36.55 37.15 20.8 37.15 19.15 27.8 M6.15 27.8 L9.75 18.2 18.4 18.2 16.8 27.65 16.8 28.0 18.4 37.15 9.6 37.15 6.15 27.8 M11.5 15.95 L26.15 4.65 19.2 15.95 11.5 15.95 M19.15 39.45 L26.15 51.15 11.15 39.45 19.15 39.45 M35.6 39.45 L28.6 50.9 21.7 39.45 35.6 39.45 M45.95 39.45 L31.0 51.15 38.15 39.45 45.95 39.45 M21.75 15.95 L28.6 4.75 35.45 15.95 21.75 15.95" fill="#000000" fill-rule="evenodd" stroke="none"/>
      <path d="M47.6 37.15 L38.85 37.15 40.45 28.0 40.45 27.75 38.8 18.2 47.55 18.2 50.95 27.8 47.6 37.15 M38.1 15.95 L31.0 4.65 45.65 15.95 38.1 15.95 M19.15 27.8 L20.8 18.2 36.5 18.2 38.15 27.8 36.55 37.15 20.8 37.15 19.15 27.8 M6.15 27.8 L9.75 18.2 18.4 18.2 16.8 27.65 16.8 28.0 18.4 37.15 9.6 37.15 6.15 27.8 M11.5 15.95 L26.15 4.65 19.2 15.95 11.5 15.95 M19.15 39.45 L26.15 51.15 11.15 39.45 19.15 39.45 M35.6 39.45 L28.6 50.9 21.7 39.45 35.6 39.45 M45.95 39.45 L31.0 51.15 38.15 39.45 45.95 39.45 M21.75 15.95 L28.6 4.75 35.45 15.95 21.75 15.95 Z" fill="none" stroke="#000000" stroke-linecap="round" stroke-linejoin="round" stroke-opacity="0.2" stroke-width="1.0"/>
      <path d="M47.6 37.15 L38.8 37.15 40.4 28.0 40.4 27.75 38.7 18.2 47.5 18.2 50.95 27.8 47.6 37.15 M21.7 15.95 L28.55 4.75 35.45 15.95 21.7 15.95 M19.1 27.8 L20.8 18.2 36.5 18.2 38.15 27.8 36.55 37.15 20.8 37.15 19.1 27.8 M35.55 39.4 L28.55 50.9 21.65 39.4 35.55 39.4 M45.9 39.4 L30.95 51.2 38.15 39.4 45.9 39.4 M38.05 15.95 L30.95 4.65 45.65 15.95 38.05 15.95 M11.45 15.95 L26.1 4.65 19.2 15.95 11.45 15.95 M6.1 27.8 L9.7 18.2 18.35 18.2 16.75 27.65 16.75 28.0 18.35 37.15 9.55 37.15 6.1 27.8 M19.1 39.4 L26.1 51.2 11.15 39.4 19.1 39.4" fill="#000000" fill-rule="evenodd" stroke="none"/>
    </g>
  </defs>
</svg>
