<?xml version="1.0" encoding="UTF-8" standalone="no"?>
<svg xmlns:ffdec="https://www.free-decompiler.com/flash" xmlns:xlink="http://www.w3.org/1999/xlink" ffdec:objectType="frame" height="56.0px" width="56.0px" xmlns="http://www.w3.org/2000/svg">
  <g transform="matrix(1.0, 0.0, 0.0, 1.0, 0.0, 0.0)">
    <use ffdec:characterId="2" height="56.0" id="back" transform="matrix(1.0, 0.0, 0.0, 1.0, 0.0, 0.0)" width="56.0" xlink:href="#sprite0"/>
    <use ffdec:characterId="3" height="46.65" transform="matrix(1.0, 0.0, 0.0, 1.0, 6.7, 2.95)" width="44.75" xlink:href="#shape1"/>
  </g>
  <defs>
    <g id="sprite0" transform="matrix(1.0, 0.0, 0.0, 1.0, 0.0, 0.0)">
      <use ffdec:characterId="1" height="56.0" transform="matrix(1.0, 0.0, 0.0, 1.0, 0.0, 0.0)" width="56.0" xlink:href="#shape0"/>
    </g>
    <g id="shape0" transform="matrix(1.0, 0.0, 0.0, 1.0, 0.0, 0.0)">
      <path d="M56.0 56.0 L0.0 56.0 0.0 0.0 56.0 0.0 56.0 56.0" fill="#010101" fill-opacity="0.0" fill-rule="evenodd" stroke="none"/>
    </g>
    <g id="shape1" transform="matrix(1.0, 0.0, 0.0, 1.0, -6.7, -2.95)">
      <path d="M50.4 24.8 Q50.4 33.35 44.6 39.5 L50.95 39.5 50.95 49.1 32.25 49.1 32.25 39.5 32.4 39.5 Q35.65 38.8 39.35 35.25 43.85 30.95 43.85 24.8 43.85 18.6 39.45 14.2 35.05 9.85 28.85 9.85 22.65 9.85 18.3 14.2 13.9 18.6 13.9 24.8 13.9 30.95 18.3 35.35 21.6 38.65 25.9 39.5 L25.9 49.1 7.2 49.1 7.2 39.5 13.5 39.5 Q7.7 33.35 7.7 24.8 7.7 15.95 13.95 9.7 20.2 3.45 29.05 3.45 37.9 3.45 44.15 9.7 50.4 15.95 50.4 24.8" fill="#000000" fill-rule="evenodd" stroke="none"/>
      <path d="M50.4 24.8 Q50.4 33.35 44.6 39.5 L50.95 39.5 50.95 49.1 32.25 49.1 32.25 39.5 32.4 39.5 Q35.65 38.8 39.35 35.25 43.85 30.95 43.85 24.8 43.85 18.6 39.45 14.2 35.05 9.85 28.85 9.85 22.65 9.85 18.3 14.2 13.9 18.6 13.9 24.8 13.9 30.95 18.3 35.35 21.6 38.65 25.9 39.5 L25.9 49.1 7.2 49.1 7.2 39.5 13.5 39.5 Q7.7 33.35 7.7 24.8 7.7 15.95 13.95 9.7 20.2 3.45 29.05 3.45 37.9 3.45 44.15 9.7 50.4 15.95 50.4 24.8 Z" fill="none" stroke="#000000" stroke-linecap="round" stroke-linejoin="round" stroke-opacity="0.2" stroke-width="1.0"/>
      <path d="M50.4 24.8 Q50.4 33.35 44.6 39.5 L50.95 39.5 50.95 49.1 32.25 49.1 32.25 39.5 32.4 39.5 Q35.65 38.8 39.35 35.25 43.85 30.95 43.85 24.8 43.85 18.6 39.45 14.2 35.05 9.85 28.85 9.85 22.65 9.85 18.3 14.2 13.9 18.6 13.9 24.8 13.9 30.95 18.3 35.35 21.6 38.65 25.9 39.5 L25.9 49.1 7.2 49.1 7.2 39.5 13.5 39.5 Q7.7 33.35 7.7 24.8 7.7 15.95 13.95 9.7 20.2 3.45 29.05 3.45 37.9 3.45 44.15 9.7 50.4 15.95 50.4 24.8" fill="#000000" fill-rule="evenodd" stroke="none"/>
    </g>
  </defs>
</svg>
