<?xml version="1.0" encoding="UTF-8" standalone="no"?>
<svg xmlns:ffdec="https://www.free-decompiler.com/flash" xmlns:xlink="http://www.w3.org/1999/xlink" ffdec:objectType="frame" height="56.0px" width="56.0px" xmlns="http://www.w3.org/2000/svg">
  <g transform="matrix(1.0, 0.0, 0.0, 1.0, 0.0, 0.0)">
    <use ffdec:characterId="2" height="56.0" id="back" transform="matrix(1.0, 0.0, 0.0, 1.0, 0.0, 0.0)" width="56.0" xlink:href="#sprite0"/>
    <use ffdec:characterId="3" height="38.1" transform="matrix(1.0, 0.0, 0.0, 1.0, 2.45, 9.7)" width="51.45" xlink:href="#shape1"/>
  </g>
  <defs>
    <g id="sprite0" transform="matrix(1.0, 0.0, 0.0, 1.0, 0.0, 0.0)">
      <use ffdec:characterId="1" height="56.0" transform="matrix(1.0, 0.0, 0.0, 1.0, 0.0, 0.0)" width="56.0" xlink:href="#shape0"/>
    </g>
    <g id="shape0" transform="matrix(1.0, 0.0, 0.0, 1.0, 0.0, 0.0)">
      <path d="M56.0 56.0 L0.0 56.0 0.0 0.0 56.0 0.0 56.0 56.0" fill="#010101" fill-opacity="0.0" fill-rule="evenodd" stroke="none"/>
    </g>
    <g id="shape1" transform="matrix(1.0, 0.0, 0.0, 1.0, -2.45, -9.7)">
      <path d="M27.95 12.55 L28.15 12.55 28.4 12.55 28.5 12.5 28.55 12.55 Q33.8 12.4 37.95 14.05 L37.95 13.65 Q42.05 10.5 46.25 10.2 47.0 10.05 47.3 11.05 48.0 12.75 47.2 16.35 46.85 19.1 45.85 20.35 L46.5 21.2 48.35 21.2 51.2 19.15 Q53.3 18.75 52.7 23.05 54.45 26.5 51.9 33.7 49.8 39.0 44.75 42.95 L44.1 43.4 44.0 43.4 Q38.85 46.75 28.15 47.3 17.5 46.75 12.35 43.4 L12.25 43.4 11.65 42.95 Q6.6 39.0 4.5 33.7 1.95 26.5 3.65 23.05 3.1 18.75 5.2 19.15 L8.0 21.2 9.85 21.2 10.5 20.35 Q9.55 19.1 9.15 16.35 8.4 12.75 9.05 11.05 9.35 10.05 10.1 10.2 14.3 10.5 18.4 13.65 L18.4 14.05 Q22.55 12.4 27.85 12.55 L27.85 12.5 27.9 12.55 27.95 12.55 M43.0 15.15 L42.45 16.7 Q42.3 19.55 45.0 19.2 47.3 16.0 46.6 11.6 45.4 11.35 43.0 15.15 M28.2 41.4 L31.45 40.95 Q33.3 40.55 35.05 39.6 L38.15 37.55 39.15 36.7 40.8 35.0 42.45 32.4 43.6 29.2 Q44.0 27.45 43.85 25.8 43.7 23.85 42.65 22.35 41.5 20.75 39.6 20.75 L37.35 21.2 Q35.6 21.65 33.95 22.25 L30.25 23.05 28.35 23.05 28.2 23.05 28.05 23.05 26.1 23.05 22.4 22.25 19.0 21.2 16.75 20.75 Q14.85 20.75 13.75 22.35 12.65 23.85 12.5 25.8 12.35 27.45 12.8 29.2 13.1 30.8 13.95 32.4 14.55 33.75 15.6 35.0 L17.2 36.7 18.2 37.55 Q19.7 38.75 21.35 39.6 23.05 40.55 24.9 40.95 L28.2 41.4 M21.9 24.75 L25.5 25.6 27.85 25.8 28.2 25.8 28.5 25.8 30.9 25.6 34.45 24.75 35.0 24.65 Q35.5 25.7 36.25 26.35 37.1 27.2 37.5 26.75 38.85 25.6 38.95 24.5 40.0 24.9 40.6 26.15 41.4 27.75 41.05 29.55 40.7 31.35 39.65 32.85 38.65 34.45 37.15 35.6 35.6 36.8 33.9 37.5 32.25 38.2 30.4 38.55 L28.2 38.75 25.95 38.55 Q24.1 38.2 22.45 37.5 L19.25 35.6 Q17.7 34.45 16.7 32.85 15.65 31.35 15.3 29.55 14.95 27.75 15.75 26.15 16.35 24.9 17.45 24.5 17.5 25.6 18.85 26.75 19.3 27.2 20.1 26.35 20.9 25.7 21.4 24.65 L21.9 24.75 M21.95 19.3 Q22.05 20.5 22.9 21.3 23.75 22.1 24.95 22.1 26.05 22.05 26.9 21.2 27.7 20.4 27.7 19.25 27.7 18.1 26.8 17.25 25.95 16.45 24.8 16.55 23.55 16.5 22.75 17.35 21.95 18.2 21.95 19.3 M34.4 19.3 Q34.4 18.2 33.65 17.35 32.8 16.5 31.55 16.55 30.4 16.45 29.55 17.25 28.65 18.1 28.65 19.25 28.65 20.4 29.5 21.2 30.3 22.05 31.4 22.1 32.6 22.1 33.45 21.3 34.35 20.5 34.4 19.3 M13.35 15.15 Q11.0 11.35 9.75 11.6 9.1 16.0 11.35 19.2 14.05 19.55 13.95 16.7 L13.35 15.15" fill="#000000" fill-rule="evenodd" stroke="none"/>
      <path d="M27.95 12.55 L27.9 12.55 27.85 12.5 27.85 12.55 Q22.55 12.4 18.4 14.05 L18.4 13.65 Q14.3 10.5 10.1 10.2 9.35 10.05 9.05 11.05 8.4 12.75 9.15 16.35 9.55 19.1 10.5 20.35 L9.85 21.2 8.0 21.2 5.2 19.15 Q3.1 18.75 3.65 23.05 1.95 26.5 4.5 33.7 6.6 39.0 11.65 42.95 L12.25 43.4 12.35 43.4 Q17.5 46.75 28.15 47.3 38.85 46.75 44.0 43.4 L44.1 43.4 44.75 42.95 Q49.8 39.0 51.9 33.7 54.45 26.5 52.7 23.05 53.3 18.75 51.2 19.15 L48.35 21.2 46.5 21.2 45.85 20.35 Q46.85 19.1 47.2 16.35 48.0 12.75 47.3 11.05 47.0 10.05 46.25 10.2 42.05 10.5 37.95 13.65 L37.95 14.05 Q33.8 12.4 28.55 12.55 L28.5 12.5 28.4 12.55 28.15 12.55 27.95 12.55 M43.0 15.15 L42.45 16.7 Q42.3 19.55 45.0 19.2 47.3 16.0 46.6 11.6 45.4 11.35 43.0 15.15 M28.2 41.4 L24.9 40.95 Q23.05 40.55 21.35 39.6 19.7 38.75 18.2 37.55 L17.2 36.7 15.6 35.0 Q14.55 33.75 13.95 32.4 13.1 30.8 12.8 29.2 12.35 27.45 12.5 25.8 12.65 23.85 13.75 22.35 14.85 20.75 16.75 20.75 L19.0 21.2 22.4 22.25 26.1 23.05 28.05 23.05 28.2 23.05 28.35 23.05 30.25 23.05 33.95 22.25 Q35.6 21.65 37.35 21.2 L39.6 20.75 Q41.5 20.75 42.65 22.35 43.7 23.85 43.85 25.8 44.0 27.45 43.6 29.2 L42.45 32.4 40.8 35.0 39.15 36.7 38.15 37.55 35.05 39.6 Q33.3 40.55 31.45 40.95 L28.2 41.4 M21.9 24.75 L25.5 25.6 27.85 25.8 28.2 25.8 28.5 25.8 30.9 25.6 34.45 24.75 35.0 24.65 Q35.5 25.7 36.25 26.35 37.1 27.2 37.5 26.75 38.85 25.6 38.95 24.5 40.0 24.9 40.6 26.15 41.4 27.75 41.05 29.55 40.7 31.35 39.65 32.85 38.65 34.45 37.15 35.6 35.6 36.8 33.9 37.5 32.25 38.2 30.4 38.55 L28.2 38.75 25.95 38.55 Q24.1 38.2 22.45 37.5 L19.25 35.6 Q17.7 34.45 16.7 32.85 15.65 31.35 15.3 29.55 14.95 27.75 15.75 26.15 16.35 24.9 17.45 24.5 17.5 25.6 18.85 26.75 19.3 27.2 20.1 26.35 20.9 25.7 21.4 24.65 L21.9 24.75 M21.95 19.3 Q21.95 18.2 22.75 17.35 23.55 16.5 24.8 16.55 25.95 16.45 26.8 17.25 27.7 18.1 27.7 19.25 27.7 20.4 26.9 21.2 26.05 22.05 24.95 22.1 23.75 22.1 22.9 21.3 22.05 20.5 21.95 19.3 M34.4 19.3 Q34.4 18.2 33.65 17.35 32.8 16.5 31.55 16.55 30.4 16.45 29.55 17.25 28.65 18.1 28.65 19.25 28.65 20.4 29.5 21.2 30.3 22.05 31.4 22.1 32.6 22.1 33.45 21.3 34.35 20.5 34.4 19.3 M13.35 15.15 L13.95 16.7 Q14.05 19.55 11.35 19.2 9.1 16.0 9.75 11.6 11.0 11.35 13.35 15.15 Z" fill="none" stroke="#000000" stroke-linecap="round" stroke-linejoin="round" stroke-opacity="0.2" stroke-width="1.0"/>
      <path d="M21.95 19.3 Q22.05 20.5 22.9 21.3 23.75 22.1 24.95 22.1 26.05 22.05 26.9 21.2 27.7 20.4 27.7 19.25 27.7 18.1 26.8 17.25 25.95 16.45 24.8 16.55 23.55 16.5 22.75 17.35 21.95 18.2 21.95 19.3 M13.35 15.15 Q11.0 11.35 9.75 11.6 9.1 16.0 11.35 19.2 14.05 19.55 13.95 16.7 L13.35 15.15 M28.2 41.4 L31.45 40.95 Q33.3 40.55 35.05 39.6 L38.15 37.55 39.15 36.7 40.8 35.0 42.45 32.4 43.6 29.2 Q44.0 27.45 43.85 25.8 43.7 23.85 42.65 22.35 41.5 20.75 39.6 20.75 L37.35 21.2 Q35.6 21.65 33.95 22.25 L30.25 23.05 28.35 23.05 28.2 23.05 28.05 23.05 26.1 23.05 22.4 22.25 19.0 21.2 16.75 20.75 Q14.85 20.75 13.75 22.35 12.65 23.85 12.5 25.8 12.35 27.45 12.8 29.2 13.1 30.8 13.95 32.4 14.55 33.75 15.6 35.0 L17.2 36.7 18.2 37.55 Q19.7 38.75 21.35 39.6 23.05 40.55 24.9 40.95 L28.2 41.4 M27.95 12.55 L28.15 12.55 28.4 12.55 28.5 12.5 28.55 12.55 Q33.8 12.4 37.95 14.05 L37.95 13.65 Q42.05 10.5 46.25 10.2 47.0 10.05 47.3 11.05 48.0 12.75 47.2 16.35 46.85 19.1 45.85 20.35 L46.5 21.2 48.35 21.2 51.2 19.15 Q53.3 18.75 52.7 23.05 54.45 26.5 51.9 33.7 49.8 39.0 44.75 42.95 L44.1 43.4 44.0 43.4 Q38.85 46.75 28.15 47.3 17.5 46.75 12.35 43.4 L12.25 43.4 11.65 42.95 Q6.6 39.0 4.5 33.7 1.95 26.5 3.65 23.05 3.1 18.75 5.2 19.15 L8.0 21.2 9.85 21.2 10.5 20.35 Q9.55 19.1 9.15 16.35 8.4 12.75 9.05 11.05 9.35 10.05 10.1 10.2 14.3 10.5 18.4 13.65 L18.4 14.05 Q22.55 12.4 27.85 12.55 L27.85 12.5 27.9 12.55 27.95 12.55 M34.4 19.3 Q34.4 18.2 33.65 17.35 32.8 16.5 31.55 16.55 30.4 16.45 29.55 17.25 28.65 18.1 28.65 19.25 28.65 20.4 29.5 21.2 30.3 22.05 31.4 22.1 32.6 22.1 33.45 21.3 34.35 20.5 34.4 19.3 M43.0 15.15 L42.45 16.7 Q42.3 19.55 45.0 19.2 47.3 16.0 46.6 11.6 45.4 11.35 43.0 15.15 M21.9 24.75 L25.5 25.6 27.85 25.8 28.2 25.8 28.5 25.8 30.9 25.6 34.45 24.75 35.0 24.65 Q35.5 25.7 36.25 26.35 37.1 27.2 37.5 26.75 38.85 25.6 38.95 24.5 40.0 24.9 40.6 26.15 41.4 27.75 41.05 29.55 40.7 31.35 39.65 32.85 38.65 34.45 37.15 35.6 35.6 36.8 33.9 37.5 32.25 38.2 30.4 38.55 L28.2 38.75 25.95 38.55 Q24.1 38.2 22.45 37.5 L19.25 35.6 Q17.7 34.45 16.7 32.85 15.65 31.35 15.3 29.55 14.95 27.75 15.75 26.15 16.35 24.9 17.45 24.5 17.5 25.6 18.85 26.75 19.3 27.2 20.1 26.35 20.9 25.7 21.4 24.65 L21.9 24.75" fill="#000000" fill-rule="evenodd" stroke="none"/>
    </g>
  </defs>
</svg>
