<?xml version="1.0" encoding="UTF-8" standalone="no"?>
<svg xmlns:ffdec="https://www.free-decompiler.com/flash" xmlns:xlink="http://www.w3.org/1999/xlink" ffdec:objectType="frame" height="56.0px" width="56.0px" xmlns="http://www.w3.org/2000/svg">
  <g transform="matrix(1.0, 0.0, 0.0, 1.0, 0.0, 0.0)">
    <use ffdec:characterId="2" height="56.0" id="back" transform="matrix(1.0, 0.0, 0.0, 1.0, 0.0, 0.0)" width="56.0" xlink:href="#sprite0"/>
    <use ffdec:characterId="3" height="53.1" transform="matrix(1.0, 0.0, 0.0, 1.0, 12.2, 1.1)" width="34.6" xlink:href="#shape1"/>
  </g>
  <defs>
    <g id="sprite0" transform="matrix(1.0, 0.0, 0.0, 1.0, 0.0, 0.0)">
      <use ffdec:characterId="1" height="56.0" transform="matrix(1.0, 0.0, 0.0, 1.0, 0.0, 0.0)" width="56.0" xlink:href="#shape0"/>
    </g>
    <g id="shape0" transform="matrix(1.0, 0.0, 0.0, 1.0, 0.0, 0.0)">
      <path d="M56.0 56.0 L0.0 56.0 0.0 0.0 56.0 0.0 56.0 56.0" fill="#010101" fill-opacity="0.0" fill-rule="evenodd" stroke="none"/>
    </g>
    <g id="shape1" transform="matrix(1.0, 0.0, 0.0, 1.0, -12.2, -1.1)">
      <path d="M13.05 28.6 L28.1 2.6 Q28.7 1.9 29.2 1.7 L29.5 1.6 Q30.1 1.7 30.85 2.5 L30.9 2.6 45.95 28.6 Q46.65 30.7 44.85 31.3 L41.15 31.3 45.9 39.3 Q47.15 41.95 44.4 42.4 L33.85 42.4 33.85 53.7 25.15 53.7 25.15 42.4 14.55 42.4 Q11.85 41.95 13.1 39.3 L17.85 31.3 14.15 31.3 Q12.35 30.7 13.05 28.6" fill="#000000" fill-rule="evenodd" stroke="none"/>
      <path d="M13.05 28.6 L28.1 2.6 Q28.7 1.9 29.2 1.7 L29.5 1.6 Q30.1 1.7 30.85 2.5 L30.9 2.6 45.95 28.6 Q46.65 30.7 44.85 31.3 L41.15 31.3 45.9 39.3 Q47.15 41.95 44.4 42.4 L33.85 42.4 33.85 53.7 25.15 53.7 25.15 42.4 14.55 42.4 Q11.85 41.95 13.1 39.3 L17.85 31.3 14.15 31.3 Q12.35 30.7 13.05 28.6 Z" fill="none" stroke="#000000" stroke-linecap="round" stroke-linejoin="round" stroke-opacity="0.2" stroke-width="1.0"/>
    </g>
  </defs>
</svg>
