<?xml version="1.0" encoding="UTF-8" standalone="no"?>
<svg xmlns:ffdec="https://www.free-decompiler.com/flash" xmlns:xlink="http://www.w3.org/1999/xlink" ffdec:objectType="frame" height="56.0px" width="56.0px" xmlns="http://www.w3.org/2000/svg">
  <g transform="matrix(1.0, 0.0, 0.0, 1.0, 0.0, 0.0)">
    <use ffdec:characterId="2" height="56.0" id="back" transform="matrix(1.0, 0.0, 0.0, 1.0, 0.0, 0.0)" width="56.0" xlink:href="#sprite0"/>
    <use ffdec:characterId="3" height="51.75" transform="matrix(1.0, 0.0, 0.0, 1.0, 3.35, 2.1)" width="49.8" xlink:href="#shape1"/>
  </g>
  <defs>
    <g id="sprite0" transform="matrix(1.0, 0.0, 0.0, 1.0, 0.0, 0.0)">
      <use ffdec:characterId="1" height="56.0" transform="matrix(1.0, 0.0, 0.0, 1.0, 0.0, 0.0)" width="56.0" xlink:href="#shape0"/>
    </g>
    <g id="shape0" transform="matrix(1.0, 0.0, 0.0, 1.0, 0.0, 0.0)">
      <path d="M56.0 56.0 L0.0 56.0 0.0 0.0 56.0 0.0 56.0 56.0" fill="#010101" fill-opacity="0.0" fill-rule="evenodd" stroke="none"/>
    </g>
    <g id="shape1" transform="matrix(1.0, 0.0, 0.0, 1.0, -3.35, -2.1)">
      <path d="M41.3 28.0 Q41.3 33.35 37.5 37.15 33.7 40.9 28.35 40.9 23.0 40.9 19.25 37.15 15.45 33.35 15.45 28.0 15.45 22.7 19.25 18.85 23.0 15.1 28.35 15.1 33.7 15.1 37.5 18.85 41.3 22.7 41.3 28.0 M44.55 28.0 Q44.55 21.35 39.8 16.6 35.1 11.9 28.35 11.9 21.7 11.9 17.0 16.6 12.25 21.35 12.25 28.0 12.25 34.7 17.0 39.4 21.7 44.2 28.35 44.2 35.1 44.2 39.8 39.4 44.55 34.7 44.55 28.0 M22.7 10.4 L28.15 2.6 33.85 10.4 43.15 7.05 43.15 16.85 52.65 19.9 46.9 27.95 52.6 35.8 43.35 38.9 43.35 48.65 33.95 45.6 28.25 53.35 22.6 45.6 13.2 48.65 13.2 38.9 3.95 35.8 9.65 27.95 3.85 19.9 13.35 16.85 13.35 7.05 22.7 10.4" fill="#000000" fill-rule="evenodd" stroke="none"/>
      <path d="M41.3 28.0 Q41.3 33.35 37.5 37.15 33.7 40.9 28.35 40.9 23.0 40.9 19.25 37.15 15.45 33.35 15.45 28.0 15.45 22.7 19.25 18.85 23.0 15.1 28.35 15.1 33.7 15.1 37.5 18.85 41.3 22.7 41.3 28.0 M44.55 28.0 Q44.55 34.7 39.8 39.4 35.1 44.2 28.35 44.2 21.7 44.2 17.0 39.4 12.25 34.7 12.25 28.0 12.25 21.35 17.0 16.6 21.7 11.9 28.35 11.9 35.1 11.9 39.8 16.6 44.55 21.35 44.55 28.0 M22.7 10.4 L28.15 2.6 33.85 10.4 43.15 7.05 43.15 16.85 52.65 19.9 46.9 27.95 52.6 35.8 43.35 38.9 43.35 48.65 33.95 45.6 28.25 53.35 22.6 45.6 13.2 48.65 13.2 38.9 3.95 35.8 9.65 27.95 3.85 19.9 13.35 16.85 13.35 7.05 22.7 10.4 Z" fill="none" stroke="#000000" stroke-linecap="round" stroke-linejoin="round" stroke-opacity="0.2" stroke-width="1.0"/>
      <path d="M22.7 10.4 L28.15 2.6 33.85 10.4 43.15 7.05 43.15 16.85 52.65 19.9 46.9 27.95 52.6 35.8 43.35 38.9 43.35 48.65 33.95 45.6 28.25 53.35 22.6 45.6 13.2 48.65 13.2 38.9 3.95 35.8 9.65 27.95 3.85 19.9 13.35 16.85 13.35 7.05 22.7 10.4 M44.55 28.0 Q44.55 21.35 39.8 16.6 35.1 11.9 28.35 11.9 21.7 11.9 17.0 16.6 12.25 21.35 12.25 28.0 12.25 34.7 17.0 39.4 21.7 44.2 28.35 44.2 35.1 44.2 39.8 39.4 44.55 34.7 44.55 28.0 M41.3 28.0 Q41.3 33.35 37.5 37.15 33.7 40.9 28.35 40.9 23.0 40.9 19.25 37.15 15.45 33.35 15.45 28.0 15.45 22.7 19.25 18.85 23.0 15.1 28.35 15.1 33.7 15.1 37.5 18.85 41.3 22.7 41.3 28.0" fill="#000000" fill-rule="evenodd" stroke="none"/>
    </g>
  </defs>
</svg>
