<?xml version="1.0" encoding="UTF-8" standalone="no"?>
<svg xmlns:ffdec="https://www.free-decompiler.com/flash" xmlns:xlink="http://www.w3.org/1999/xlink" ffdec:objectType="frame" height="56.0px" width="56.0px" xmlns="http://www.w3.org/2000/svg">
  <g transform="matrix(1.0, 0.0, 0.0, 1.0, 0.0, 0.0)">
    <use ffdec:characterId="2" height="56.0" id="back" transform="matrix(1.0, 0.0, 0.0, 1.0, 0.0, 0.0)" width="56.0" xlink:href="#sprite0"/>
    <use ffdec:characterId="3" height="50.25" transform="matrix(1.0, 0.0, 0.0, 1.0, 4.7, 3.1)" width="48.9" xlink:href="#shape1"/>
  </g>
  <defs>
    <g id="sprite0" transform="matrix(1.0, 0.0, 0.0, 1.0, 0.0, 0.0)">
      <use ffdec:characterId="1" height="56.0" transform="matrix(1.0, 0.0, 0.0, 1.0, 0.0, 0.0)" width="56.0" xlink:href="#shape0"/>
    </g>
    <g id="shape0" transform="matrix(1.0, 0.0, 0.0, 1.0, 0.0, 0.0)">
      <path d="M56.0 56.0 L0.0 56.0 0.0 0.0 56.0 0.0 56.0 56.0" fill="#010101" fill-opacity="0.0" fill-rule="evenodd" stroke="none"/>
    </g>
    <g id="shape1" transform="matrix(1.0, 0.0, 0.0, 1.0, -4.7, -3.1)">
      <path d="M50.55 5.8 L50.55 5.9 Q50.9 6.15 50.9 6.6 50.9 7.1 50.55 7.4 L47.3 10.7 Q47.0 11.0 46.55 11.0 46.1 11.0 45.75 10.7 45.45 10.35 45.45 9.85 45.45 9.4 45.75 9.15 L49.0 5.8 Q49.35 5.5 49.8 5.5 50.25 5.5 50.55 5.8 M40.7 3.6 Q41.15 3.6 41.45 3.95 41.8 4.3 41.8 4.7 L41.8 9.35 Q41.8 9.8 41.45 10.1 41.15 10.45 40.7 10.45 40.2 10.45 39.95 10.1 39.6 9.8 39.6 9.35 L39.6 4.7 Q39.6 4.3 39.95 3.95 40.2 3.6 40.7 3.6 M53.05 15.0 L53.05 15.05 52.95 15.85 52.25 16.35 47.8 17.55 47.0 17.45 46.45 16.75 Q46.3 16.3 46.55 15.9 L47.25 15.4 51.65 14.2 52.5 14.3 53.05 15.0 M44.95 33.0 Q44.95 41.2 39.1 47.0 33.3 52.85 25.05 52.85 16.85 52.85 11.0 47.0 5.2 41.2 5.2 33.0 5.2 24.75 11.0 18.95 16.85 13.1 25.05 13.1 29.05 13.1 32.55 14.55 32.65 13.55 33.3 12.85 34.15 12.0 35.25 12.0 36.35 12.0 37.1 12.85 L39.05 14.7 42.35 11.4 Q42.7 11.0 43.35 11.15 L44.55 11.9 Q45.15 12.45 45.25 13.1 45.45 13.75 45.05 14.15 L41.75 17.45 43.4 19.1 Q44.15 19.9 44.25 21.0 44.15 22.1 43.4 22.9 L42.55 23.45 Q44.95 27.7 44.95 33.0 M27.45 25.9 Q27.45 27.0 26.7 27.7 26.0 28.5 24.75 28.55 23.7 28.6 22.9 27.75 22.05 27.0 22.05 25.85 22.1 24.7 22.9 23.9 23.65 23.2 24.75 23.2 26.0 23.15 26.75 23.9 27.6 24.75 27.45 25.9 M19.75 26.55 L19.75 26.95 16.55 26.75 17.15 31.9 20.4 30.7 Q21.35 32.7 23.15 34.55 25.1 36.45 27.25 37.4 L25.8 40.85 31.0 41.45 30.85 37.95 Q32.75 37.8 34.1 36.45 35.85 34.65 35.4 31.4 34.8 28.2 32.15 25.55 29.45 22.85 26.2 22.25 22.95 21.75 21.15 23.55 19.9 24.8 19.75 26.55 M34.7 33.1 Q34.75 34.3 34.05 35.05 33.25 35.8 32.0 35.75 30.95 35.85 30.1 35.05 29.4 34.25 29.4 33.15 29.4 31.9 30.1 31.2 30.9 30.4 32.05 30.45 33.25 30.4 34.05 31.2 34.8 32.0 34.7 33.1" fill="#000000" fill-rule="evenodd" stroke="none"/>
      <path d="M50.55 5.8 L50.55 5.9 Q50.9 6.15 50.9 6.6 50.9 7.1 50.55 7.4 L47.3 10.7 Q47.0 11.0 46.55 11.0 46.1 11.0 45.75 10.7 45.45 10.35 45.45 9.85 45.45 9.4 45.75 9.15 L49.0 5.8 Q49.35 5.5 49.8 5.5 50.25 5.5 50.55 5.8 M40.7 3.6 Q41.15 3.6 41.45 3.95 41.8 4.3 41.8 4.7 L41.8 9.35 Q41.8 9.8 41.45 10.1 41.15 10.45 40.7 10.45 40.2 10.45 39.95 10.1 39.6 9.8 39.6 9.35 L39.6 4.7 Q39.6 4.3 39.95 3.95 40.2 3.6 40.7 3.6 M53.05 15.0 L53.05 15.05 52.95 15.85 52.25 16.35 47.8 17.55 47.0 17.45 46.45 16.75 Q46.3 16.3 46.55 15.9 L47.25 15.4 51.65 14.2 52.5 14.3 53.05 15.0 M44.95 33.0 Q44.95 41.2 39.1 47.0 33.3 52.85 25.05 52.85 16.85 52.85 11.0 47.0 5.2 41.2 5.2 33.0 5.2 24.75 11.0 18.95 16.85 13.1 25.05 13.1 29.05 13.1 32.55 14.55 32.65 13.55 33.3 12.85 34.15 12.0 35.25 12.0 36.35 12.0 37.1 12.85 L39.05 14.7 42.35 11.4 Q42.7 11.0 43.35 11.15 L44.55 11.9 Q45.15 12.45 45.25 13.1 45.45 13.75 45.05 14.15 L41.75 17.45 43.4 19.1 Q44.15 19.9 44.25 21.0 44.15 22.1 43.4 22.9 L42.55 23.45 Q44.95 27.7 44.95 33.0 M27.45 25.9 Q27.45 27.0 26.7 27.7 26.0 28.5 24.75 28.55 23.7 28.6 22.9 27.75 22.05 27.0 22.05 25.85 22.1 24.7 22.9 23.9 23.65 23.2 24.75 23.2 26.0 23.15 26.75 23.9 27.6 24.75 27.45 25.9 M19.75 26.55 Q19.9 24.8 21.15 23.55 22.95 21.75 26.2 22.25 29.45 22.85 32.15 25.55 34.8 28.2 35.4 31.4 35.85 34.65 34.1 36.45 32.75 37.8 30.85 37.95 L31.0 41.45 25.8 40.85 27.25 37.4 Q25.1 36.45 23.15 34.55 21.35 32.7 20.4 30.7 L17.15 31.9 16.55 26.75 19.75 26.95 19.75 26.55 M34.7 33.1 Q34.75 34.3 34.05 35.05 33.25 35.8 32.0 35.75 30.95 35.85 30.1 35.05 29.4 34.25 29.4 33.15 29.4 31.9 30.1 31.2 30.9 30.4 32.05 30.45 33.25 30.4 34.05 31.2 34.8 32.0 34.7 33.1 Z" fill="none" stroke="#000000" stroke-linecap="round" stroke-linejoin="round" stroke-opacity="0.2" stroke-width="1.0"/>
      <path d="M50.55 5.8 L50.55 5.9 Q50.9 6.15 50.9 6.6 50.9 7.1 50.55 7.4 L47.3 10.7 Q47.0 11.0 46.55 11.0 46.1 11.0 45.75 10.7 45.45 10.35 45.45 9.85 45.45 9.4 45.75 9.15 L49.0 5.8 Q49.35 5.5 49.8 5.5 50.25 5.5 50.55 5.8 M40.7 3.6 Q41.15 3.6 41.45 3.95 41.8 4.3 41.8 4.7 L41.8 9.35 Q41.8 9.8 41.45 10.1 41.15 10.45 40.7 10.45 40.2 10.45 39.95 10.1 39.6 9.8 39.6 9.35 L39.6 4.7 Q39.6 4.3 39.95 3.95 40.2 3.6 40.7 3.6 M53.05 15.0 L53.05 15.05 52.95 15.85 52.25 16.35 47.8 17.55 47.0 17.45 46.45 16.75 Q46.3 16.3 46.55 15.9 L47.25 15.4 51.65 14.2 52.5 14.3 53.05 15.0 M44.95 33.0 Q44.95 41.2 39.1 47.0 33.3 52.85 25.05 52.85 16.85 52.85 11.0 47.0 5.2 41.2 5.2 33.0 5.2 24.75 11.0 18.95 16.85 13.1 25.05 13.1 29.05 13.1 32.55 14.55 32.65 13.55 33.3 12.85 34.15 12.0 35.25 12.0 36.35 12.0 37.1 12.85 L39.05 14.7 42.35 11.4 Q42.7 11.0 43.35 11.15 L44.55 11.9 Q45.15 12.45 45.25 13.1 45.45 13.75 45.05 14.15 L41.75 17.45 43.4 19.1 Q44.15 19.9 44.25 21.0 44.15 22.1 43.4 22.9 L42.55 23.45 Q44.95 27.7 44.95 33.0 M27.45 25.9 Q27.45 27.0 26.7 27.7 26.0 28.5 24.75 28.55 23.7 28.6 22.9 27.75 22.05 27.0 22.05 25.85 22.1 24.7 22.9 23.9 23.65 23.2 24.75 23.2 26.0 23.15 26.75 23.9 27.6 24.75 27.45 25.9 M19.75 26.55 L19.75 26.95 16.55 26.75 17.15 31.9 20.4 30.7 Q21.35 32.7 23.15 34.55 25.1 36.45 27.25 37.4 L25.8 40.85 31.0 41.45 30.85 37.95 Q32.75 37.8 34.1 36.45 35.85 34.65 35.4 31.4 34.8 28.2 32.15 25.55 29.45 22.85 26.2 22.25 22.95 21.75 21.15 23.55 19.9 24.8 19.75 26.55 M34.7 33.1 Q34.75 34.3 34.05 35.05 33.25 35.8 32.0 35.75 30.95 35.85 30.1 35.05 29.4 34.25 29.4 33.15 29.4 31.9 30.1 31.2 30.9 30.4 32.05 30.45 33.25 30.4 34.05 31.2 34.8 32.0 34.7 33.1" fill="#000000" fill-rule="evenodd" stroke="none"/>
    </g>
  </defs>
</svg>
