<?xml version="1.0" encoding="UTF-8" standalone="no"?>
<svg xmlns:ffdec="https://www.free-decompiler.com/flash" xmlns:xlink="http://www.w3.org/1999/xlink" ffdec:objectType="frame" height="56.0px" width="56.0px" xmlns="http://www.w3.org/2000/svg">
  <g transform="matrix(1.0, 0.0, 0.0, 1.0, 0.0, 0.0)">
    <use ffdec:characterId="2" height="56.0" id="back" transform="matrix(1.0, 0.0, 0.0, 1.0, 0.0, 0.0)" width="56.0" xlink:href="#sprite0"/>
    <use ffdec:characterId="3" height="47.9" transform="matrix(1.0, 0.0, 0.0, 1.0, 0.7, 4.3)" width="53.8" xlink:href="#shape1"/>
  </g>
  <defs>
    <g id="sprite0" transform="matrix(1.0, 0.0, 0.0, 1.0, 0.0, 0.0)">
      <use ffdec:characterId="1" height="56.0" transform="matrix(1.0, 0.0, 0.0, 1.0, 0.0, 0.0)" width="56.0" xlink:href="#shape0"/>
    </g>
    <g id="shape0" transform="matrix(1.0, 0.0, 0.0, 1.0, 0.0, 0.0)">
      <path d="M56.0 56.0 L0.0 56.0 0.0 0.0 56.0 0.0 56.0 56.0" fill="#010101" fill-opacity="0.0" fill-rule="evenodd" stroke="none"/>
    </g>
    <g id="shape1" transform="matrix(1.0, 0.0, 0.0, 1.0, -0.7, -4.3)">
      <path d="M6.7 51.45 L19.15 27.7 13.9 27.7 17.35 12.75 Q25.65 6.05 32.15 5.3 47.35 3.85 51.4 10.9 56.15 21.0 51.2 30.4 45.6 40.65 36.05 42.5 L35.55 38.15 6.7 51.45 M49.2 21.1 Q49.2 15.95 45.55 12.3 41.9 8.7 36.75 8.7 31.65 8.7 28.0 12.3 24.35 15.95 24.35 21.1 24.35 26.2 28.0 29.8 31.65 33.45 36.75 33.45 41.9 33.45 45.55 29.8 49.2 26.2 49.2 21.1 M36.55 15.0 Q36.55 16.35 35.6 17.3 34.7 18.25 33.3 18.25 31.95 18.25 31.0 17.3 30.05 16.35 30.05 15.0 30.05 13.65 31.0 12.65 31.95 11.75 33.3 11.75 34.7 11.75 35.6 12.65 36.55 13.65 36.55 15.0 M5.25 32.0 L7.25 24.8 13.35 22.45 11.2 29.85 5.25 32.0 M1.45 47.25 L3.8 42.75 7.45 41.6 5.95 45.6 1.45 47.25 M33.7 27.15 Q33.7 28.0 33.1 28.55 32.55 29.1 31.75 29.1 30.9 29.1 30.35 28.55 29.8 28.0 29.8 27.15 29.8 26.35 30.35 25.75 30.9 25.2 31.75 25.2 32.55 25.2 33.1 25.75 33.7 26.35 33.7 27.15 M25.65 48.5 L27.05 44.3 31.3 42.9 30.15 46.45 25.65 48.5" fill="#000000" fill-rule="evenodd" stroke="none"/>
      <path d="M49.2 21.1 Q49.2 26.2 45.55 29.8 41.9 33.45 36.75 33.45 31.65 33.45 28.0 29.8 24.35 26.2 24.35 21.1 24.35 15.95 28.0 12.3 31.65 8.7 36.75 8.7 41.9 8.7 45.55 12.3 49.2 15.95 49.2 21.1 M6.7 51.45 L35.55 38.15 36.05 42.5 Q45.6 40.65 51.2 30.4 56.15 21.0 51.4 10.9 47.35 3.85 32.15 5.3 25.65 6.05 17.35 12.75 L13.9 27.7 19.15 27.7 6.7 51.45 M36.55 15.0 Q36.55 16.35 35.6 17.3 34.7 18.25 33.3 18.25 31.95 18.25 31.0 17.3 30.05 16.35 30.05 15.0 30.05 13.65 31.0 12.65 31.95 11.75 33.3 11.75 34.7 11.75 35.6 12.65 36.55 13.65 36.55 15.0 M5.25 32.0 L7.25 24.8 13.35 22.45 11.2 29.85 5.25 32.0 M1.45 47.25 L3.8 42.75 7.45 41.6 5.95 45.6 1.45 47.25 M33.7 27.15 Q33.7 28.0 33.1 28.55 32.55 29.1 31.75 29.1 30.9 29.1 30.35 28.55 29.8 28.0 29.8 27.15 29.8 26.35 30.35 25.75 30.9 25.2 31.75 25.2 32.55 25.2 33.1 25.75 33.7 26.35 33.7 27.15 M25.65 48.5 L27.05 44.3 31.3 42.9 30.15 46.45 25.65 48.5 Z" fill="none" stroke="#000000" stroke-linecap="round" stroke-linejoin="round" stroke-opacity="0.2" stroke-width="1.5"/>
      <path d="M6.7 51.45 L19.15 27.7 13.95 27.7 17.35 12.75 Q25.7 6.05 32.15 5.3 47.4 3.85 51.4 10.9 56.2 21.0 51.2 30.4 45.65 40.65 36.1 42.5 L35.55 38.15 6.7 51.45 M5.3 32.0 L7.25 24.8 13.4 22.45 11.2 29.85 5.3 32.0 M36.6 15.0 Q36.6 16.35 35.65 17.3 34.7 18.25 33.35 18.25 31.95 18.25 31.0 17.3 30.1 16.35 30.1 15.0 30.1 13.65 31.0 12.65 31.95 11.75 33.35 11.75 34.7 11.75 35.65 12.65 36.6 13.65 36.6 15.0 M33.75 27.15 Q33.75 28.0 33.15 28.55 32.55 29.1 31.8 29.1 30.95 29.1 30.35 28.55 29.8 28.0 29.8 27.15 29.8 26.35 30.35 25.75 30.95 25.2 31.8 25.2 32.55 25.2 33.15 25.75 33.75 26.35 33.75 27.15 M49.2 21.1 Q49.2 15.95 45.55 12.3 41.9 8.7 36.8 8.7 31.65 8.7 28.0 12.3 24.4 15.95 24.4 21.1 24.4 26.2 28.0 29.8 31.65 33.45 36.8 33.45 41.9 33.45 45.55 29.8 49.2 26.2 49.2 21.1 M25.7 48.5 L27.1 44.3 31.35 42.9 30.15 46.45 25.7 48.5 M1.5 47.25 L3.8 42.75 7.45 41.6 5.95 45.6 1.5 47.25" fill="#000000" fill-rule="evenodd" stroke="none"/>
    </g>
  </defs>
</svg>
