<?xml version="1.0" encoding="UTF-8" standalone="no"?>
<svg xmlns:ffdec="https://www.free-decompiler.com/flash" xmlns:xlink="http://www.w3.org/1999/xlink" ffdec:objectType="frame" height="56.0px" width="56.0px" xmlns="http://www.w3.org/2000/svg">
  <g transform="matrix(1.0, 0.0, 0.0, 1.0, 0.0, 0.0)">
    <use ffdec:characterId="2" height="56.0" id="back" transform="matrix(1.0, 0.0, 0.0, 1.0, 0.0, 0.0)" width="56.0" xlink:href="#sprite0"/>
    <use ffdec:characterId="3" height="52.35" transform="matrix(1.0, 0.0, 0.0, 1.0, 11.2, 1.8)" width="33.75" xlink:href="#shape1"/>
  </g>
  <defs>
    <g id="sprite0" transform="matrix(1.0, 0.0, 0.0, 1.0, 0.0, 0.0)">
      <use ffdec:characterId="1" height="56.0" transform="matrix(1.0, 0.0, 0.0, 1.0, 0.0, 0.0)" width="56.0" xlink:href="#shape0"/>
    </g>
    <g id="shape0" transform="matrix(1.0, 0.0, 0.0, 1.0, 0.0, 0.0)">
      <path d="M56.0 56.0 L0.0 56.0 0.0 0.0 56.0 0.0 56.0 56.0" fill="#010101" fill-opacity="0.0" fill-rule="evenodd" stroke="none"/>
    </g>
    <g id="shape1" transform="matrix(1.0, 0.0, 0.0, 1.0, -11.2, -1.8)">
      <path d="M42.15 29.8 L43.05 35.35 Q43.05 35.85 42.5 35.35 L39.1 32.3 42.15 29.8 M44.2 37.4 L42.8 44.2 Q42.3 44.65 41.65 44.2 L39.85 42.1 44.2 37.4 M34.85 5.6 L34.6 10.7 32.5 12.0 31.15 8.35 34.85 5.6 M21.2 5.6 L24.9 8.35 23.55 12.0 21.45 10.7 21.2 5.6 M15.9 8.85 L23.6 13.45 21.0 16.5 18.55 15.85 Q18.25 12.0 15.9 8.85 M13.8 16.0 L21.65 17.6 28.0 9.55 34.4 17.6 42.3 16.0 Q38.1 18.5 35.95 22.75 L35.85 22.95 35.55 22.75 Q34.75 22.2 33.95 21.8 L32.4 19.85 31.55 20.8 29.15 20.3 28.05 18.8 26.9 20.3 24.5 20.8 23.65 19.85 22.15 21.8 Q21.35 22.2 20.5 22.75 L20.2 22.95 20.1 22.75 Q17.95 18.5 13.8 16.0 M25.95 22.8 L28.0 20.8 30.25 22.9 29.65 23.1 Q27.95 23.7 26.55 23.1 L25.95 22.8 M40.15 8.85 Q37.8 12.0 37.5 15.85 L35.05 16.5 32.45 13.45 40.15 8.85 M26.35 24.1 L24.2 26.15 Q23.6 26.6 22.75 26.15 L20.85 25.1 23.7 21.75 26.35 24.1 M24.3 12.8 L28.05 2.55 31.75 12.8 28.05 8.15 24.3 12.8 M29.8 24.1 Q31.15 22.95 32.45 21.75 L35.3 25.1 33.4 26.15 Q32.55 26.6 31.9 26.15 L29.8 24.1 M18.1 25.25 L21.9 27.9 19.05 30.25 Q18.1 31.0 17.1 30.25 L15.8 29.15 18.1 25.25 M14.0 29.8 L17.05 32.3 13.65 35.35 Q13.15 35.85 13.15 35.35 L14.0 29.8 M37.25 32.25 L34.85 34.65 Q33.95 35.25 32.9 34.65 L29.55 31.85 33.25 28.05 37.25 32.25 M37.85 25.25 L40.15 29.15 38.85 30.25 Q37.85 31.0 36.9 30.25 L34.05 27.9 37.85 25.25 M17.05 43.85 L20.6 47.05 18.9 48.55 Q17.95 49.35 16.95 48.55 L14.1 46.2 17.05 43.85 M11.95 37.4 L16.35 42.1 14.5 44.2 Q13.85 44.65 13.4 44.2 L11.95 37.4 M21.25 37.3 L17.9 40.45 Q17.05 41.2 16.35 40.45 L13.75 37.45 17.95 33.05 21.25 37.3 M24.15 27.5 L27.95 24.1 32.15 27.5 29.15 29.65 Q28.1 30.6 26.75 29.65 L24.15 27.5 M19.0 32.25 L23.0 28.05 26.7 31.85 23.35 34.65 Q22.3 35.25 21.4 34.65 L19.0 32.25 M17.35 43.3 L22.35 37.8 27.35 43.05 23.2 46.05 Q22.25 46.8 21.1 46.05 L17.35 43.3 M23.5 37.25 L28.1 32.45 32.6 37.1 29.3 40.1 Q28.1 41.15 26.7 40.1 L23.5 37.25 M32.95 47.4 L29.3 50.95 Q28.75 51.4 28.15 51.45 L28.1 51.45 Q27.5 51.4 26.95 50.95 L23.3 47.4 28.1 43.75 32.95 47.4 M34.9 37.3 L38.15 33.05 42.4 37.45 39.75 40.45 Q39.1 41.2 38.2 40.45 L34.9 37.3 M38.7 43.3 L34.95 46.05 Q33.8 46.8 32.9 46.05 L28.7 43.05 33.7 37.8 38.7 43.3 M39.3 43.85 L42.25 46.2 39.4 48.55 Q38.45 49.35 37.45 48.55 L35.75 47.05 39.3 43.85 M34.7 47.8 L37.1 50.3 Q36.85 51.35 35.05 52.3 30.55 54.4 28.85 52.55 L34.7 47.8 M21.7 47.8 L27.55 52.55 Q25.85 54.4 21.35 52.3 19.55 51.35 19.35 50.3 L21.7 47.8" fill="#000000" fill-rule="evenodd" stroke="none"/>
      <path d="M42.15 29.8 L39.1 32.3 42.5 35.35 Q43.05 35.85 43.05 35.35 L42.15 29.8 M44.2 37.4 L42.8 44.2 Q42.3 44.65 41.65 44.2 L39.85 42.1 44.2 37.4 M34.85 5.6 L31.15 8.35 32.5 12.0 34.6 10.7 34.85 5.6 M21.2 5.6 L24.9 8.35 23.55 12.0 21.45 10.7 21.2 5.6 M15.9 8.85 L23.6 13.45 21.0 16.5 18.55 15.85 Q18.25 12.0 15.9 8.85 M13.8 16.0 Q17.95 18.5 20.1 22.75 L20.2 22.95 20.5 22.75 Q21.35 22.2 22.15 21.8 L23.65 19.85 24.5 20.8 26.9 20.3 28.05 18.8 29.15 20.3 31.55 20.8 32.4 19.85 33.95 21.8 Q34.75 22.2 35.55 22.75 L35.85 22.95 35.95 22.75 Q38.1 18.5 42.3 16.0 L34.4 17.6 28.0 9.55 21.65 17.6 13.8 16.0 M25.95 22.8 L28.0 20.8 30.25 22.9 29.65 23.1 Q27.95 23.7 26.55 23.1 L25.95 22.8 M26.35 24.1 L23.7 21.75 20.85 25.1 22.75 26.15 Q23.6 26.6 24.2 26.15 L26.35 24.1 M40.15 8.85 L32.45 13.45 35.05 16.5 37.5 15.85 Q37.8 12.0 40.15 8.85 M24.3 12.8 L28.05 2.55 31.75 12.8 28.05 8.15 24.3 12.8 M29.8 24.1 Q31.15 22.95 32.45 21.75 L35.3 25.1 33.4 26.15 Q32.55 26.6 31.9 26.15 L29.8 24.1 M18.1 25.25 L21.9 27.9 19.05 30.25 Q18.1 31.0 17.1 30.25 L15.8 29.15 18.1 25.25 M14.0 29.8 L17.05 32.3 13.65 35.35 Q13.15 35.85 13.15 35.35 L14.0 29.8 M21.25 37.3 L17.95 33.05 13.75 37.45 16.35 40.45 Q17.05 41.2 17.9 40.45 L21.25 37.3 M11.95 37.4 L13.4 44.2 Q13.85 44.65 14.5 44.2 L16.35 42.1 11.95 37.4 M17.05 43.85 L14.1 46.2 16.95 48.55 Q17.95 49.35 18.9 48.55 L20.6 47.05 17.05 43.85 M37.85 25.25 L34.05 27.9 36.9 30.25 Q37.85 31.0 38.85 30.25 L40.15 29.15 37.85 25.25 M37.25 32.25 L33.25 28.05 29.55 31.85 32.9 34.65 Q33.95 35.25 34.85 34.65 L37.25 32.25 M24.15 27.5 L27.95 24.1 32.15 27.5 29.15 29.65 Q28.1 30.6 26.75 29.65 L24.15 27.5 M19.0 32.25 L23.0 28.05 26.7 31.85 23.35 34.65 Q22.3 35.25 21.4 34.65 L19.0 32.25 M17.35 43.3 L22.35 37.8 27.35 43.05 23.2 46.05 Q22.25 46.8 21.1 46.05 L17.35 43.3 M23.5 37.25 L28.1 32.45 32.6 37.1 29.3 40.1 Q28.1 41.15 26.7 40.1 L23.5 37.25 M32.95 47.4 L29.3 50.95 Q28.75 51.4 28.15 51.45 L28.1 51.45 Q27.5 51.4 26.95 50.95 L23.3 47.4 28.1 43.75 32.95 47.4 M34.9 37.3 L38.15 33.05 42.4 37.45 39.75 40.45 Q39.1 41.2 38.2 40.45 L34.9 37.3 M38.7 43.3 L33.7 37.8 28.7 43.05 32.9 46.05 Q33.8 46.8 34.95 46.05 L38.7 43.3 M39.3 43.85 L42.25 46.2 39.4 48.55 Q38.45 49.35 37.45 48.55 L35.75 47.05 39.3 43.85 M34.7 47.8 L28.85 52.55 Q30.55 54.4 35.05 52.3 36.85 51.35 37.1 50.3 L34.7 47.8 M21.7 47.8 L27.55 52.55 Q25.85 54.4 21.35 52.3 19.55 51.35 19.35 50.3 L21.7 47.8 Z" fill="none" stroke="#000000" stroke-linecap="round" stroke-linejoin="round" stroke-opacity="0.2" stroke-width="1.5"/>
      <path d="M42.15 29.8 L43.05 35.35 Q43.05 35.85 42.5 35.35 L39.1 32.3 42.15 29.8 M44.2 37.4 L42.8 44.2 Q42.3 44.65 41.65 44.2 L39.85 42.1 44.2 37.4 M34.85 5.6 L34.6 10.7 32.5 12.0 31.15 8.35 34.85 5.6 M21.2 5.6 L24.9 8.35 23.55 12.0 21.45 10.7 21.2 5.6 M15.9 8.85 L23.6 13.45 21.0 16.5 18.55 15.85 Q18.25 12.0 15.9 8.85 M13.8 16.0 L21.65 17.6 28.0 9.55 34.4 17.6 42.3 16.0 Q38.1 18.5 35.95 22.75 L35.85 22.95 35.55 22.75 Q34.75 22.2 33.95 21.8 L32.4 19.85 31.55 20.8 29.15 20.3 28.05 18.8 26.9 20.3 24.5 20.8 23.65 19.85 22.15 21.8 Q21.35 22.2 20.5 22.75 L20.2 22.95 20.1 22.75 Q17.95 18.5 13.8 16.0 M25.95 22.8 L28.0 20.8 30.25 22.9 29.65 23.1 Q27.95 23.7 26.55 23.1 L25.95 22.8 M40.15 8.85 Q37.8 12.0 37.5 15.85 L35.05 16.5 32.45 13.45 40.15 8.85 M26.35 24.1 L24.2 26.15 Q23.6 26.6 22.75 26.15 L20.85 25.1 23.7 21.75 26.35 24.1 M24.3 12.8 L28.05 2.55 31.75 12.8 28.05 8.15 24.3 12.8 M29.8 24.1 Q31.15 22.95 32.45 21.75 L35.3 25.1 33.4 26.15 Q32.55 26.6 31.9 26.15 L29.8 24.1 M18.1 25.25 L21.9 27.9 19.05 30.25 Q18.1 31.0 17.1 30.25 L15.8 29.15 18.1 25.25 M14.0 29.8 L17.05 32.3 13.65 35.35 Q13.15 35.85 13.15 35.35 L14.0 29.8 M37.25 32.25 L34.85 34.65 Q33.95 35.25 32.9 34.65 L29.55 31.85 33.25 28.05 37.25 32.25 M37.85 25.25 L40.15 29.15 38.85 30.25 Q37.85 31.0 36.9 30.25 L34.05 27.9 37.85 25.25 M17.05 43.85 L20.6 47.05 18.9 48.55 Q17.95 49.35 16.95 48.55 L14.1 46.2 17.05 43.85 M11.95 37.4 L16.35 42.1 14.5 44.2 Q13.85 44.65 13.4 44.2 L11.95 37.4 M21.25 37.3 L17.9 40.45 Q17.05 41.2 16.35 40.45 L13.75 37.45 17.95 33.05 21.25 37.3 M24.15 27.5 L27.95 24.1 32.15 27.5 29.15 29.65 Q28.1 30.6 26.75 29.65 L24.15 27.5 M19.0 32.25 L23.0 28.05 26.7 31.85 23.35 34.65 Q22.3 35.25 21.4 34.65 L19.0 32.25 M17.35 43.3 L22.35 37.8 27.35 43.05 23.2 46.05 Q22.25 46.8 21.1 46.05 L17.35 43.3 M23.5 37.25 L28.1 32.45 32.6 37.1 29.3 40.1 Q28.1 41.15 26.7 40.1 L23.5 37.25 M32.95 47.4 L29.3 50.95 Q28.75 51.4 28.15 51.45 L28.1 51.45 Q27.5 51.4 26.95 50.95 L23.3 47.4 28.1 43.75 32.95 47.4 M34.9 37.3 L38.15 33.05 42.4 37.45 39.75 40.45 Q39.1 41.2 38.2 40.45 L34.9 37.3 M38.7 43.3 L34.95 46.05 Q33.8 46.8 32.9 46.05 L28.7 43.05 33.7 37.8 38.7 43.3 M39.3 43.85 L42.25 46.2 39.4 48.55 Q38.45 49.35 37.45 48.55 L35.75 47.05 39.3 43.85 M34.7 47.8 L37.1 50.3 Q36.85 51.35 35.05 52.3 30.55 54.4 28.85 52.55 L34.7 47.8 M21.7 47.8 L27.55 52.55 Q25.85 54.4 21.35 52.3 19.55 51.35 19.35 50.3 L21.7 47.8" fill="#000000" fill-rule="evenodd" stroke="none"/>
    </g>
  </defs>
</svg>
