<?xml version="1.0" encoding="UTF-8" standalone="no"?>
<svg xmlns:ffdec="https://www.free-decompiler.com/flash" xmlns:xlink="http://www.w3.org/1999/xlink" ffdec:objectType="frame" height="56.0px" width="56.0px" xmlns="http://www.w3.org/2000/svg">
  <g transform="matrix(1.0, 0.0, 0.0, 1.0, 0.0, 0.0)">
    <use ffdec:characterId="2" height="56.0" id="back" transform="matrix(1.0, 0.0, 0.0, 1.0, 0.0, 0.0)" width="56.0" xlink:href="#sprite0"/>
    <use ffdec:characterId="4" height="333.45" transform="matrix(0.1501, 0.0, 0.0, 0.1501, 4.75, 3.3)" width="305.7" xlink:href="#sprite1"/>
  </g>
  <defs>
    <g id="sprite0" transform="matrix(1.0, 0.0, 0.0, 1.0, 0.0, 0.0)">
      <use ffdec:characterId="1" height="56.0" transform="matrix(1.0, 0.0, 0.0, 1.0, 0.0, 0.0)" width="56.0" xlink:href="#shape0"/>
    </g>
    <g id="shape0" transform="matrix(1.0, 0.0, 0.0, 1.0, 0.0, 0.0)">
      <path d="M56.0 56.0 L0.0 56.0 0.0 0.0 56.0 0.0 56.0 56.0" fill="#010101" fill-opacity="0.0" fill-rule="evenodd" stroke="none"/>
    </g>
    <g id="sprite1" transform="matrix(1.0, 0.0, 0.0, 1.0, 0.0, 0.0)">
      <use ffdec:characterId="3" height="333.45" transform="matrix(1.0, 0.0, 0.0, 1.0, 0.0, 0.0)" width="305.7" xlink:href="#shape1"/>
    </g>
    <g id="shape1" transform="matrix(1.0, 0.0, 0.0, 1.0, 0.0, 0.0)">
      <path d="M83.1 56.05 Q120.1 23.15 145.1 13.5 L145.7 13.3 146.6 12.95 145.7 16.8 Q121.3 26.5 85.3 58.5 47.2 92.2 33.4 121.65 L32.75 122.4 Q15.4 132.35 3.4 157.35 9.1 180.45 27.75 194.2 L28.25 194.75 28.4 195.5 Q29.8 273.85 94.0 305.55 L94.65 306.1 Q105.7 322.35 136.95 330.15 L168.8 330.15 Q200.0 322.35 211.15 306.1 L211.8 305.55 Q275.95 273.85 277.3 195.5 L277.5 194.75 278.0 194.2 Q296.65 180.45 302.3 157.35 290.35 132.35 273.05 122.4 272.55 122.1 272.35 121.65 258.5 92.2 220.45 58.5 183.25 25.45 159.4 16.15 L158.4 12.7 Q183.95 21.7 222.65 56.05 261.0 90.05 275.15 119.8 293.15 130.3 305.55 156.45 305.8 156.95 305.65 157.55 299.9 181.8 280.6 196.35 278.8 275.85 213.65 308.3 201.95 325.3 169.4 333.4 L169.0 333.45 136.75 333.45 136.35 333.4 Q103.75 325.3 92.1 308.3 26.95 275.85 25.15 196.35 5.85 181.8 0.05 157.55 -0.1 156.95 0.15 156.45 12.6 130.3 30.65 119.8 44.7 90.05 83.1 56.05" fill="#000000" fill-rule="evenodd" stroke="none"/>
      <path d="M162.35 44.2 Q167.7 66.7 173.95 88.85 L174.3 90.2 Q175.4 102.05 155.85 111.75 149.05 115.2 143.2 116.9 L142.45 117.1 136.05 118.35 135.9 118.35 Q128.8 119.1 123.55 116.6 131.55 89.65 139.2 61.05 L143.55 60.2 144.95 59.8 148.1 58.8 148.35 58.7 Q160.1 54.25 162.35 44.2 M122.4 119.45 Q128.05 122.4 135.2 122.35 L135.5 122.35 141.95 121.7 142.9 121.55 Q149.55 120.2 157.2 116.8 172.5 109.2 177.25 100.5 183.8 122.8 191.2 144.75 L192.45 148.5 Q194.2 160.55 160.3 176.75 150.2 181.55 140.8 184.05 L134.35 185.45 125.9 186.5 121.9 186.6 Q110.65 186.6 100.65 182.6 111.9 152.85 122.4 119.45 M100.2 185.9 Q110.0 190.7 120.5 191.9 L124.9 192.25 Q129.1 192.45 133.45 192.05 L140.8 191.0 Q149.85 189.2 159.4 185.0 191.5 170.8 196.55 160.2 204.2 182.0 212.8 203.4 219.95 238.0 143.3 252.6 L138.4 253.5 123.75 252.2 123.8 252.25 122.0 251.95 111.8 249.85 Q104.0 248.0 96.2 245.45 89.75 243.3 83.3 240.75 76.45 238.05 74.0 234.9 71.95 232.15 73.55 229.05 81.7 221.95 92.9 201.25 94.9 197.6 100.2 185.9 M160.7 37.25 Q159.3 50.95 148.6 56.25 L148.35 56.4 145.25 57.65 143.8 58.1 139.45 59.0 Q143.9 41.2 147.9 23.1 L152.7 0.0 153.45 3.65 154.2 7.25 Q157.2 22.3 160.7 37.25 M239.65 242.65 Q239.55 249.65 231.55 256.75 209.6 272.2 174.5 275.7 L163.65 276.45 152.4 276.65 142.15 276.45 131.2 275.75 Q95.85 272.25 73.85 256.75 66.3 250.1 65.75 243.45 65.45 238.3 69.4 233.15 69.8 235.15 71.25 237.05 L71.3 237.1 Q74.0 240.85 82.0 244.0 87.7 246.25 93.45 248.2 102.05 251.05 110.65 253.15 L121.05 255.35 121.1 255.35 123.2 255.7 123.25 255.7 135.45 257.25 138.5 257.55 138.55 257.55 143.6 257.85 152.2 258.05 Q186.7 258.05 222.05 244.0 230.15 240.75 232.75 236.4 234.25 233.95 234.3 231.25 239.55 236.95 239.65 242.65 M217.25 210.65 Q224.1 221.1 229.8 225.9 231.8 231.15 229.8 234.5 227.5 238.05 220.75 240.75 186.05 254.55 152.2 254.55 L143.45 254.4 143.15 254.35 143.45 254.3 Q222.6 241.0 217.25 210.65 M133.35 279.25 Q152.05 281.05 171.0 279.15 170.5 280.1 169.45 284.45 L168.8 284.5 Q160.05 287.6 159.2 312.9 158.1 318.15 152.2 319.85 146.3 318.15 145.2 312.9 144.35 287.7 135.7 284.35 L135.0 284.3 Q133.9 280.0 133.35 279.25 M137.55 324.9 Q137.9 298.95 135.55 286.75 142.25 290.85 143.0 313.0 L143.05 313.15 Q144.25 319.9 151.7 321.95 L152.2 322.0 152.7 321.95 Q160.15 319.9 161.4 313.15 L161.4 313.0 Q162.15 290.75 168.9 286.9 166.55 298.95 166.9 324.9 155.0 334.8 137.55 324.9 M159.85 292.55 L159.85 291.8 Q159.6 289.15 157.65 287.2 155.45 285.0 152.3 285.0 149.15 285.0 146.95 287.2 145.0 289.15 144.8 291.8 L144.75 292.55 Q144.75 295.7 146.95 297.9 149.15 300.1 152.3 300.1 155.45 300.1 157.65 297.9 159.85 295.7 159.85 292.55" fill="#000000" fill-rule="evenodd" stroke="none"/>
      <path d="M283.15 159.3 L296.35 159.3 Q290.75 181.7 272.6 195.1 L248.7 200.05 Q272.3 188.65 283.15 159.3 M267.3 128.8 L250.8 128.8 Q268.1 131.8 278.4 136.4 L276.4 134.05 Q273.7 130.75 267.3 128.8 M237.7 127.15 Q253.95 123.65 268.75 124.75 L269.05 124.9 Q285.1 134.75 296.3 158.15 L282.15 158.15 Q269.35 143.9 250.45 133.45 244.4 130.1 237.7 127.15 M244.1 118.95 Q237.95 108.15 232.6 99.55 L231.8 99.65 230.6 99.5 229.95 99.35 244.1 118.95 M193.25 52.35 Q189.6 46.55 186.6 46.3 L181.35 46.05 Q180.45 45.95 179.8 46.4 178.95 46.95 179.05 48.3 179.2 49.4 180.1 50.55 L181.8 52.45 183.55 54.45 Q185.1 55.75 186.95 55.55 188.8 55.35 199.05 62.6 205.85 67.45 223.7 91.0 L223.85 90.9 Q225.1 90.25 226.6 90.25 215.95 74.3 209.0 68.4 196.85 58.15 193.25 52.35 M217.9 63.4 Q254.45 95.8 267.15 122.7 251.75 122.15 233.95 125.55 202.6 76.1 166.85 50.65 L160.6 23.7 Q183.85 33.2 217.9 63.4 M257.65 206.85 Q264.85 227.7 248.8 260.35 265.15 238.95 267.1 204.35 L257.65 206.85 M210.45 300.7 L205.9 293.5 Q258.8 270.65 248.95 201.65 261.4 200.3 272.6 195.5 271.1 270.7 209.5 301.2 L210.45 300.7 M169.75 318.05 L169.75 317.1 Q194.75 309.6 204.35 294.4 L209.15 301.35 209.2 301.4 Q198.65 316.8 169.8 324.4 L169.75 318.05" fill="#000000" fill-rule="evenodd" stroke="none"/>
      <path d="M100.9 294.4 Q110.3 309.25 134.4 316.8 L134.55 316.85 134.55 324.2 134.4 324.15 Q106.4 316.5 96.05 301.4 L96.1 301.35 100.9 294.4" fill="#000000" fill-rule="evenodd" stroke="none"/>
      <path d="M126.5 39.8 Q112.35 51.0 78.4 90.25 79.9 90.25 81.15 90.9 L81.3 91.0 Q99.15 67.45 120.95 49.6 123.1 47.8 130.8 50.05 140.65 28.55 126.5 39.8 M87.1 63.4 Q121.15 33.2 144.4 23.7 L138.15 50.65 Q102.4 76.1 71.05 125.55 53.25 122.15 37.85 122.55 50.55 95.8 87.1 63.4 M60.9 118.95 L75.05 99.35 74.4 99.5 73.2 99.65 72.4 99.55 Q62.95 108.15 60.9 118.95 M67.3 127.15 Q62.55 129.25 58.1 131.55 L54.55 133.45 Q35.65 143.9 22.85 158.15 L8.7 158.15 Q19.9 134.75 35.95 124.9 L36.25 124.75 Q51.05 123.65 67.3 127.15 M36.7 128.3 Q31.3 131.05 29.2 133.5 L26.6 136.4 Q33.45 137.25 37.35 140.2 43.5 135.3 54.4 130.3 48.85 127.55 36.7 128.3 M21.85 159.3 Q32.7 188.65 56.3 200.05 L32.4 195.1 Q14.25 181.7 8.65 159.3 L21.85 159.3 M47.35 206.85 L37.9 204.35 Q39.85 238.95 56.2 260.35 40.15 227.7 47.35 206.85 M94.6 300.75 Q33.9 270.15 32.4 195.5 43.6 200.3 56.05 201.65 46.2 270.65 99.5 293.5 L94.6 300.75" fill="#000000" fill-rule="evenodd" stroke="none"/>
      <path d="M237.9 151.15 Q237.75 163.0 234.4 174.9 L235.1 176.0 Q237.2 179.8 242.5 185.25 260.5 168.55 264.75 147.65 264.35 150.95 262.25 159.6 260.25 168.2 253.95 177.05 248.7 184.45 242.65 190.3 234.55 180.55 234.0 176.2 232.1 181.95 229.2 186.65 L224.55 193.65 223.3 195.2 214.8 188.2 Q212.1 185.5 210.0 181.65 215.0 185.85 222.3 190.5 229.45 184.9 233.3 174.3 L233.35 174.25 233.35 174.0 Q237.3 162.75 237.9 151.15 M234.0 174.2 L234.4 174.8 234.45 174.8 Q234.05 173.85 234.0 174.2" fill="#000000" fill-rule="evenodd" stroke="none"/>
      <path d="M191.9 121.4 L191.9 121.2 Q191.9 121.1 192.05 121.1 L192.2 121.1 192.25 121.2 Q198.35 136.25 212.15 139.45 220.85 127.8 213.5 109.85 L213.5 109.7 Q213.5 109.55 213.65 109.55 L213.8 109.55 213.85 109.7 Q220.85 126.75 214.75 142.25 L213.85 144.45 213.8 144.5 213.75 144.55 213.65 144.5 209.85 142.45 Q197.3 134.75 191.9 121.4" fill="#000000" fill-rule="evenodd" stroke="none"/>
      <path d="M186.4 305.85 Q178.95 310.4 177.85 310.4 177.65 310.6 175.5 305.1 173.3 299.55 173.8 290.4 175.1 296.25 179.15 305.1 192.95 301.9 199.05 286.85 L199.4 286.4 196.85 293.65 Q193.95 301.25 186.4 305.85" fill="#000000" fill-rule="evenodd" stroke="none"/>
      <path d="M66.05 150.7 Q66.2 162.6 69.5 174.45 L68.85 175.55 Q66.75 179.35 61.45 184.8 43.45 168.1 39.2 147.25 39.6 150.5 41.65 159.15 43.7 167.75 50.0 176.6 55.25 184.0 61.3 189.85 69.4 180.15 69.95 175.75 71.85 181.55 74.75 186.25 77.55 191.0 79.35 193.2 L80.65 194.8 89.15 187.8 Q91.85 185.1 93.95 181.2 88.95 185.4 81.65 190.1 74.5 184.45 70.65 173.9 L70.6 173.8 70.6 173.6 Q66.65 162.3 66.05 150.7 M69.95 173.8 L69.55 174.4 69.5 174.4 Q69.9 173.45 69.95 173.8" fill="#000000" fill-rule="evenodd" stroke="none"/>
      <path d="M111.5 121.4 L111.5 121.2 111.35 121.1 111.2 121.1 111.15 121.2 Q105.05 136.25 91.25 139.45 82.55 127.8 89.9 109.85 L89.9 109.7 89.75 109.55 89.6 109.55 89.55 109.7 Q82.55 126.75 88.65 142.25 L89.55 144.45 89.6 144.5 89.65 144.55 89.75 144.5 93.55 142.45 Q106.1 134.75 111.5 121.4" fill="#000000" fill-rule="evenodd" stroke="none"/>
      <path d="M117.35 305.85 Q124.8 310.4 125.9 310.4 126.1 310.6 128.25 305.1 130.45 299.55 129.95 290.4 128.65 296.25 124.6 305.1 110.8 301.9 104.7 286.85 L104.35 286.4 Q104.05 286.05 106.9 293.65 109.8 301.25 117.35 305.85" fill="#000000" fill-rule="evenodd" stroke="none"/>
      <path d="M223.1 206.4 L223.1 206.3 223.2 206.2 223.3 206.2 223.35 206.3 Q227.75 217.1 238.15 220.25 242.2 213.55 240.55 207.35 L239.5 203.9 241.15 207.95 Q242.75 212.25 241.6 217.4 240.45 222.55 239.6 223.3 L238.9 223.0 Q236.85 222.1 236.0 221.6 227.0 216.05 223.1 206.4" fill="#000000" fill-rule="evenodd" stroke="none"/>
      <path d="M82.1 206.4 L82.1 206.3 82.0 206.2 81.9 206.2 81.85 206.3 Q77.45 217.1 67.05 220.25 63.0 213.55 64.65 207.35 65.1 205.55 65.7 203.9 L64.05 207.95 Q62.45 212.25 63.6 217.4 64.75 222.55 65.6 223.3 L66.3 223.0 69.2 221.6 Q78.2 216.05 82.1 206.4" fill="#000000" fill-rule="evenodd" stroke="none"/>
      <path d="M173.75 76.3 L173.75 76.2 173.85 76.1 173.95 76.1 174.0 76.2 Q178.4 87.0 188.8 90.15 192.85 83.45 191.2 77.25 L190.15 73.8 191.8 77.85 Q193.4 82.15 192.25 87.3 191.1 92.45 190.25 93.2 L189.55 92.9 186.65 91.5 Q177.65 85.95 173.75 76.3" fill="#000000" fill-rule="evenodd" stroke="none"/>
      <path d="M129.95 76.3 L129.95 76.2 129.85 76.1 129.75 76.1 129.7 76.2 Q125.3 87.0 114.9 90.15 110.85 83.45 112.5 77.25 112.95 75.45 113.55 73.8 L111.9 77.85 Q110.3 82.15 111.45 87.3 112.6 92.45 113.45 93.2 L114.15 92.9 117.05 91.5 Q126.05 85.95 129.95 76.3" fill="#000000" fill-rule="evenodd" stroke="none"/>
    </g>
  </defs>
</svg>
