<?xml version="1.0" encoding="UTF-8" standalone="no"?>
<svg xmlns:ffdec="https://www.free-decompiler.com/flash" xmlns:xlink="http://www.w3.org/1999/xlink" ffdec:objectType="frame" height="56.0px" width="56.0px" xmlns="http://www.w3.org/2000/svg">
  <g transform="matrix(1.0, 0.0, 0.0, 1.0, 0.0, 0.0)">
    <use ffdec:characterId="6" ffdec:characterName="5_fla.Symbole15_1" height="56.0" id="back" transform="matrix(1.0, 0.0, 0.0, 1.0, 0.0, 0.0)" width="56.0" xlink:href="#sprite0"/>
    <use ffdec:characterId="8" height="55.55" id="back" transform="matrix(1.0, 0.0, 0.0, 1.0, 0.4, 0.45)" width="55.4" xlink:href="#sprite5"/>
    <use ffdec:characterId="10" height="54.05" id="up" transform="matrix(1.0, 0.0, 0.0, 1.0, 1.15, 1.2)" width="53.9" xlink:href="#sprite6"/>
  </g>
  <defs>
    <g id="sprite0" transform="matrix(1.0, 0.0, 0.0, 1.0, 0.0, 0.0)">
      <use ffdec:characterId="5" ffdec:characterName="5_fla.Symbole12_2" height="56.0" id="back" transform="matrix(1.0, 0.0, 0.0, 1.0, 0.0, 0.0)" width="56.0" xlink:href="#sprite1"/>
    </g>
    <g id="sprite1" transform="matrix(1.0, 0.0, 0.0, 1.0, 0.0, 0.0)">
      <use ffdec:characterId="4" ffdec:characterName="5_fla.Symbole9_3" height="56.0" id="back" transform="matrix(1.0, 0.0, 0.0, 1.0, 0.0, 0.0)" width="56.0" xlink:href="#sprite2"/>
    </g>
    <g id="sprite2" transform="matrix(1.0, 0.0, 0.0, 1.0, 0.0, 0.0)">
      <use ffdec:characterId="3" ffdec:characterName="5_fla.Symbole6_4" height="56.0" id="back" transform="matrix(1.0, 0.0, 0.0, 1.0, 0.0, 0.0)" width="56.0" xlink:href="#sprite3"/>
    </g>
    <g id="sprite3" transform="matrix(1.0, 0.0, 0.0, 1.0, 0.0, 0.0)">
      <use ffdec:characterId="2" height="56.0" id="back" transform="matrix(1.0, 0.0, 0.0, 1.0, 0.0, 0.0)" width="56.0" xlink:href="#sprite4"/>
    </g>
    <g id="sprite4" transform="matrix(1.0, 0.0, 0.0, 1.0, 0.0, 0.0)">
      <use ffdec:characterId="1" height="56.0" transform="matrix(1.0, 0.0, 0.0, 1.0, 0.0, 0.0)" width="56.0" xlink:href="#shape0"/>
    </g>
    <g id="shape0" transform="matrix(1.0, 0.0, 0.0, 1.0, 0.0, 0.0)">
      <path d="M56.0 56.0 L0.0 56.0 0.0 0.0 56.0 0.0 56.0 56.0" fill="#010101" fill-opacity="0.0" fill-rule="evenodd" stroke="none"/>
    </g>
    <g id="sprite5" transform="matrix(1.0, 0.0, 0.0, 1.0, 0.75, 0.75)">
      <use ffdec:characterId="7" height="55.55" transform="matrix(1.0, 0.0, 0.0, 1.0, -0.75, -0.75)" width="55.4" xlink:href="#shape1"/>
    </g>
    <g id="shape1" transform="matrix(1.0, 0.0, 0.0, 1.0, 0.75, 0.75)">
      <path d="M47.75 14.75 L47.5 12.35 Q44.85 17.2 40.15 20.4 35.35 23.5 29.75 24.3 30.4 18.55 33.6 13.75 36.6 9.1 41.45 6.25 L39.2 6.15 Q35.1 6.15 31.2 7.55 29.75 3.35 26.95 0.0 24.1 3.35 22.6 7.55 18.7 6.15 14.75 6.15 L12.35 6.25 Q17.15 9.1 20.2 13.75 23.4 18.55 24.1 24.3 18.45 23.5 13.7 20.4 9.1 17.2 6.3 12.35 6.15 13.45 6.15 14.75 6.15 18.7 7.6 22.65 3.3 24.05 0.0 26.95 3.3 29.95 7.6 31.3 6.15 35.2 6.15 39.25 6.15 40.55 6.3 41.7 9.1 36.75 13.7 33.65 18.5 30.45 24.1 29.8 23.4 35.45 20.2 40.25 17.15 44.9 12.35 47.75 L14.75 47.8 Q18.85 47.8 22.6 46.45 24.1 50.65 26.95 54.05 29.75 50.55 31.2 46.45 35.1 47.8 39.2 47.8 L41.45 47.75 Q36.6 44.9 33.6 40.25 30.4 35.45 29.75 29.8 35.35 30.45 40.15 33.65 44.85 36.75 47.5 41.7 L47.75 39.25 Q47.65 35.15 46.35 31.3 50.5 29.95 53.9 26.95 50.5 24.05 46.35 22.65 47.65 18.7 47.75 14.75 Z" fill="none" stroke="#000000" stroke-linecap="round" stroke-linejoin="round" stroke-opacity="0.2" stroke-width="1.5"/>
    </g>
    <g id="sprite6" transform="matrix(1.0, 0.0, 0.0, 1.0, 0.0, 0.0)">
      <use ffdec:characterId="9" height="54.05" transform="matrix(1.0, 0.0, 0.0, 1.0, 0.0, 0.0)" width="53.9" xlink:href="#shape2"/>
    </g>
    <g id="shape2" transform="matrix(1.0, 0.0, 0.0, 1.0, 0.0, 0.0)">
      <path d="M47.75 14.75 Q47.65 18.7 46.35 22.65 50.5 24.05 53.9 26.95 50.5 29.95 46.35 31.3 47.65 35.15 47.75 39.25 L47.5 41.7 Q44.85 36.75 40.15 33.65 35.35 30.45 29.75 29.8 30.4 35.45 33.6 40.25 36.6 44.9 41.45 47.75 L39.2 47.8 Q35.1 47.8 31.2 46.45 29.75 50.55 26.95 54.05 24.1 50.65 22.6 46.45 18.85 47.8 14.75 47.8 L12.35 47.75 Q17.15 44.9 20.2 40.25 23.4 35.45 24.1 29.8 18.5 30.45 13.7 33.65 9.1 36.75 6.3 41.7 6.15 40.55 6.15 39.25 6.15 35.2 7.6 31.3 3.3 29.95 0.0 26.95 3.3 24.05 7.6 22.65 6.15 18.7 6.15 14.75 6.15 13.45 6.3 12.35 9.1 17.2 13.7 20.4 18.45 23.5 24.1 24.3 23.4 18.55 20.2 13.75 17.15 9.1 12.35 6.25 L14.75 6.15 Q18.7 6.15 22.6 7.55 24.1 3.35 26.95 0.0 29.75 3.35 31.2 7.55 35.1 6.15 39.2 6.15 L41.45 6.25 Q36.6 9.1 33.6 13.75 30.4 18.55 29.75 24.3 35.35 23.5 40.15 20.4 44.85 17.2 47.5 12.35 L47.75 14.75" fill="#000000" fill-rule="evenodd" stroke="none"/>
    </g>
  </defs>
</svg>
