<?xml version="1.0" encoding="UTF-8" standalone="no"?>
<svg xmlns:ffdec="https://www.free-decompiler.com/flash" xmlns:xlink="http://www.w3.org/1999/xlink" ffdec:objectType="frame" height="56.0px" width="56.0px" xmlns="http://www.w3.org/2000/svg">
  <g transform="matrix(1.0, 0.0, 0.0, 1.0, 0.0, 0.0)">
    <use ffdec:characterId="51" ffdec:characterName="50_fla.Symbole150_1" height="56.0" id="back" transform="matrix(1.0, 0.0, 0.0, 1.0, 0.0, 0.0)" width="56.0" xlink:href="#sprite0"/>
    <use ffdec:characterId="53" height="46.0" id="back" transform="matrix(1.0, 0.0, 0.0, 1.0, 0.4, 4.65)" width="55.4" xlink:href="#sprite50"/>
    <use ffdec:characterId="55" height="44.45" id="up" transform="matrix(1.0, 0.0, 0.0, 1.0, 1.1, 5.45)" width="53.9" xlink:href="#sprite51"/>
  </g>
  <defs>
    <g id="sprite0" transform="matrix(1.0, 0.0, 0.0, 1.0, 0.0, 0.0)">
      <use ffdec:characterId="50" ffdec:characterName="50_fla.Symbole147_2" height="56.0" id="back" transform="matrix(1.0, 0.0, 0.0, 1.0, 0.0, 0.0)" width="56.0" xlink:href="#sprite1"/>
    </g>
    <g id="sprite1" transform="matrix(1.0, 0.0, 0.0, 1.0, 0.0, 0.0)">
      <use ffdec:characterId="49" ffdec:characterName="50_fla.Symbole144_3" height="56.0" id="back" transform="matrix(1.0, 0.0, 0.0, 1.0, 0.0, 0.0)" width="56.0" xlink:href="#sprite2"/>
    </g>
    <g id="sprite2" transform="matrix(1.0, 0.0, 0.0, 1.0, 0.0, 0.0)">
      <use ffdec:characterId="48" ffdec:characterName="50_fla.Symbole141_4" height="56.0" id="back" transform="matrix(1.0, 0.0, 0.0, 1.0, 0.0, 0.0)" width="56.0" xlink:href="#sprite3"/>
    </g>
    <g id="sprite3" transform="matrix(1.0, 0.0, 0.0, 1.0, 0.0, 0.0)">
      <use ffdec:characterId="47" ffdec:characterName="50_fla.Symbole138_5" height="56.0" id="back" transform="matrix(1.0, 0.0, 0.0, 1.0, 0.0, 0.0)" width="56.0" xlink:href="#sprite4"/>
    </g>
    <g id="sprite4" transform="matrix(1.0, 0.0, 0.0, 1.0, 0.0, 0.0)">
      <use ffdec:characterId="46" ffdec:characterName="50_fla.Symbole135_6" height="56.0" id="back" transform="matrix(1.0, 0.0, 0.0, 1.0, 0.0, 0.0)" width="56.0" xlink:href="#sprite5"/>
    </g>
    <g id="sprite5" transform="matrix(1.0, 0.0, 0.0, 1.0, 0.0, 0.0)">
      <use ffdec:characterId="45" ffdec:characterName="50_fla.Symbole132_7" height="56.0" id="back" transform="matrix(1.0, 0.0, 0.0, 1.0, 0.0, 0.0)" width="56.0" xlink:href="#sprite6"/>
    </g>
    <g id="sprite6" transform="matrix(1.0, 0.0, 0.0, 1.0, 0.0, 0.0)">
      <use ffdec:characterId="44" ffdec:characterName="50_fla.Symbole129_8" height="56.0" id="back" transform="matrix(1.0, 0.0, 0.0, 1.0, 0.0, 0.0)" width="56.0" xlink:href="#sprite7"/>
    </g>
    <g id="sprite7" transform="matrix(1.0, 0.0, 0.0, 1.0, 0.0, 0.0)">
      <use ffdec:characterId="43" ffdec:characterName="50_fla.Symbole126_9" height="56.0" id="back" transform="matrix(1.0, 0.0, 0.0, 1.0, 0.0, 0.0)" width="56.0" xlink:href="#sprite8"/>
    </g>
    <g id="sprite8" transform="matrix(1.0, 0.0, 0.0, 1.0, 0.0, 0.0)">
      <use ffdec:characterId="42" ffdec:characterName="50_fla.Symbole123_10" height="56.0" id="back" transform="matrix(1.0, 0.0, 0.0, 1.0, 0.0, 0.0)" width="56.0" xlink:href="#sprite9"/>
    </g>
    <g id="sprite9" transform="matrix(1.0, 0.0, 0.0, 1.0, 0.0, 0.0)">
      <use ffdec:characterId="41" ffdec:characterName="50_fla.Symbole120_11" height="56.0" id="back" transform="matrix(1.0, 0.0, 0.0, 1.0, 0.0, 0.0)" width="56.0" xlink:href="#sprite10"/>
    </g>
    <g id="sprite10" transform="matrix(1.0, 0.0, 0.0, 1.0, 0.0, 0.0)">
      <use ffdec:characterId="40" ffdec:characterName="50_fla.Symbole117_12" height="56.0" id="back" transform="matrix(1.0, 0.0, 0.0, 1.0, 0.0, 0.0)" width="56.0" xlink:href="#sprite11"/>
    </g>
    <g id="sprite11" transform="matrix(1.0, 0.0, 0.0, 1.0, 0.0, 0.0)">
      <use ffdec:characterId="39" ffdec:characterName="50_fla.Symbole114_13" height="56.0" id="back" transform="matrix(1.0, 0.0, 0.0, 1.0, 0.0, 0.0)" width="56.0" xlink:href="#sprite12"/>
    </g>
    <g id="sprite12" transform="matrix(1.0, 0.0, 0.0, 1.0, 0.0, 0.0)">
      <use ffdec:characterId="38" ffdec:characterName="50_fla.Symbole111_14" height="56.0" id="back" transform="matrix(1.0, 0.0, 0.0, 1.0, 0.0, 0.0)" width="56.0" xlink:href="#sprite13"/>
    </g>
    <g id="sprite13" transform="matrix(1.0, 0.0, 0.0, 1.0, 0.0, 0.0)">
      <use ffdec:characterId="37" ffdec:characterName="50_fla.Symbole108_15" height="56.0" id="back" transform="matrix(1.0, 0.0, 0.0, 1.0, 0.0, 0.0)" width="56.0" xlink:href="#sprite14"/>
    </g>
    <g id="sprite14" transform="matrix(1.0, 0.0, 0.0, 1.0, 0.0, 0.0)">
      <use ffdec:characterId="36" ffdec:characterName="50_fla.Symbole105_16" height="56.0" id="back" transform="matrix(1.0, 0.0, 0.0, 1.0, 0.0, 0.0)" width="56.0" xlink:href="#sprite15"/>
    </g>
    <g id="sprite15" transform="matrix(1.0, 0.0, 0.0, 1.0, 0.0, 0.0)">
      <use ffdec:characterId="35" ffdec:characterName="50_fla.Symbole102_17" height="56.0" id="back" transform="matrix(1.0, 0.0, 0.0, 1.0, 0.0, 0.0)" width="56.0" xlink:href="#sprite16"/>
    </g>
    <g id="sprite16" transform="matrix(1.0, 0.0, 0.0, 1.0, 0.0, 0.0)">
      <use ffdec:characterId="34" ffdec:characterName="50_fla.Symbole99_18" height="56.0" id="back" transform="matrix(1.0, 0.0, 0.0, 1.0, 0.0, 0.0)" width="56.0" xlink:href="#sprite17"/>
    </g>
    <g id="sprite17" transform="matrix(1.0, 0.0, 0.0, 1.0, 0.0, 0.0)">
      <use ffdec:characterId="33" ffdec:characterName="50_fla.Symbole96_19" height="56.0" id="back" transform="matrix(1.0, 0.0, 0.0, 1.0, 0.0, 0.0)" width="56.0" xlink:href="#sprite18"/>
    </g>
    <g id="sprite18" transform="matrix(1.0, 0.0, 0.0, 1.0, 0.0, 0.0)">
      <use ffdec:characterId="32" ffdec:characterName="50_fla.Symbole93_20" height="56.0" id="back" transform="matrix(1.0, 0.0, 0.0, 1.0, 0.0, 0.0)" width="56.0" xlink:href="#sprite19"/>
    </g>
    <g id="sprite19" transform="matrix(1.0, 0.0, 0.0, 1.0, 0.0, 0.0)">
      <use ffdec:characterId="31" ffdec:characterName="50_fla.Symbole90_21" height="56.0" id="back" transform="matrix(1.0, 0.0, 0.0, 1.0, 0.0, 0.0)" width="56.0" xlink:href="#sprite20"/>
    </g>
    <g id="sprite20" transform="matrix(1.0, 0.0, 0.0, 1.0, 0.0, 0.0)">
      <use ffdec:characterId="30" ffdec:characterName="50_fla.Symbole87_22" height="56.0" id="back" transform="matrix(1.0, 0.0, 0.0, 1.0, 0.0, 0.0)" width="56.0" xlink:href="#sprite21"/>
    </g>
    <g id="sprite21" transform="matrix(1.0, 0.0, 0.0, 1.0, 0.0, 0.0)">
      <use ffdec:characterId="29" ffdec:characterName="50_fla.Symbole84_23" height="56.0" id="back" transform="matrix(1.0, 0.0, 0.0, 1.0, 0.0, 0.0)" width="56.0" xlink:href="#sprite22"/>
    </g>
    <g id="sprite22" transform="matrix(1.0, 0.0, 0.0, 1.0, 0.0, 0.0)">
      <use ffdec:characterId="28" ffdec:characterName="50_fla.Symbole81_24" height="56.0" id="back" transform="matrix(1.0, 0.0, 0.0, 1.0, 0.0, 0.0)" width="56.0" xlink:href="#sprite23"/>
    </g>
    <g id="sprite23" transform="matrix(1.0, 0.0, 0.0, 1.0, 0.0, 0.0)">
      <use ffdec:characterId="27" ffdec:characterName="50_fla.Symbole78_25" height="56.0" id="back" transform="matrix(1.0, 0.0, 0.0, 1.0, 0.0, 0.0)" width="56.0" xlink:href="#sprite24"/>
    </g>
    <g id="sprite24" transform="matrix(1.0, 0.0, 0.0, 1.0, 0.0, 0.0)">
      <use ffdec:characterId="26" ffdec:characterName="50_fla.Symbole75_26" height="56.0" id="back" transform="matrix(1.0, 0.0, 0.0, 1.0, 0.0, 0.0)" width="56.0" xlink:href="#sprite25"/>
    </g>
    <g id="sprite25" transform="matrix(1.0, 0.0, 0.0, 1.0, 0.0, 0.0)">
      <use ffdec:characterId="25" ffdec:characterName="50_fla.Symbole72_27" height="56.0" id="back" transform="matrix(1.0, 0.0, 0.0, 1.0, 0.0, 0.0)" width="56.0" xlink:href="#sprite26"/>
    </g>
    <g id="sprite26" transform="matrix(1.0, 0.0, 0.0, 1.0, 0.0, 0.0)">
      <use ffdec:characterId="24" ffdec:characterName="50_fla.Symbole69_28" height="56.0" id="back" transform="matrix(1.0, 0.0, 0.0, 1.0, 0.0, 0.0)" width="56.0" xlink:href="#sprite27"/>
    </g>
    <g id="sprite27" transform="matrix(1.0, 0.0, 0.0, 1.0, 0.0, 0.0)">
      <use ffdec:characterId="23" ffdec:characterName="50_fla.Symbole66_29" height="56.0" id="back" transform="matrix(1.0, 0.0, 0.0, 1.0, 0.0, 0.0)" width="56.0" xlink:href="#sprite28"/>
    </g>
    <g id="sprite28" transform="matrix(1.0, 0.0, 0.0, 1.0, 0.0, 0.0)">
      <use ffdec:characterId="22" ffdec:characterName="50_fla.Symbole63_30" height="56.0" id="back" transform="matrix(1.0, 0.0, 0.0, 1.0, 0.0, 0.0)" width="56.0" xlink:href="#sprite29"/>
    </g>
    <g id="sprite29" transform="matrix(1.0, 0.0, 0.0, 1.0, 0.0, 0.0)">
      <use ffdec:characterId="21" ffdec:characterName="50_fla.Symbole60_31" height="56.0" id="back" transform="matrix(1.0, 0.0, 0.0, 1.0, 0.0, 0.0)" width="56.0" xlink:href="#sprite30"/>
    </g>
    <g id="sprite30" transform="matrix(1.0, 0.0, 0.0, 1.0, 0.0, 0.0)">
      <use ffdec:characterId="20" ffdec:characterName="50_fla.Symbole57_32" height="56.0" id="back" transform="matrix(1.0, 0.0, 0.0, 1.0, 0.0, 0.0)" width="56.0" xlink:href="#sprite31"/>
    </g>
    <g id="sprite31" transform="matrix(1.0, 0.0, 0.0, 1.0, 0.0, 0.0)">
      <use ffdec:characterId="19" ffdec:characterName="50_fla.Symbole54_33" height="56.0" id="back" transform="matrix(1.0, 0.0, 0.0, 1.0, 0.0, 0.0)" width="56.0" xlink:href="#sprite32"/>
    </g>
    <g id="sprite32" transform="matrix(1.0, 0.0, 0.0, 1.0, 0.0, 0.0)">
      <use ffdec:characterId="18" ffdec:characterName="50_fla.Symbole51_34" height="56.0" id="back" transform="matrix(1.0, 0.0, 0.0, 1.0, 0.0, 0.0)" width="56.0" xlink:href="#sprite33"/>
    </g>
    <g id="sprite33" transform="matrix(1.0, 0.0, 0.0, 1.0, 0.0, 0.0)">
      <use ffdec:characterId="17" ffdec:characterName="50_fla.Symbole48_35" height="56.0" id="back" transform="matrix(1.0, 0.0, 0.0, 1.0, 0.0, 0.0)" width="56.0" xlink:href="#sprite34"/>
    </g>
    <g id="sprite34" transform="matrix(1.0, 0.0, 0.0, 1.0, 0.0, 0.0)">
      <use ffdec:characterId="16" ffdec:characterName="50_fla.Symbole45_36" height="56.0" id="back" transform="matrix(1.0, 0.0, 0.0, 1.0, 0.0, 0.0)" width="56.0" xlink:href="#sprite35"/>
    </g>
    <g id="sprite35" transform="matrix(1.0, 0.0, 0.0, 1.0, 0.0, 0.0)">
      <use ffdec:characterId="15" ffdec:characterName="50_fla.Symbole42_37" height="56.0" id="back" transform="matrix(1.0, 0.0, 0.0, 1.0, 0.0, 0.0)" width="56.0" xlink:href="#sprite36"/>
    </g>
    <g id="sprite36" transform="matrix(1.0, 0.0, 0.0, 1.0, 0.0, 0.0)">
      <use ffdec:characterId="14" ffdec:characterName="50_fla.Symbole39_38" height="56.0" id="back" transform="matrix(1.0, 0.0, 0.0, 1.0, 0.0, 0.0)" width="56.0" xlink:href="#sprite37"/>
    </g>
    <g id="sprite37" transform="matrix(1.0, 0.0, 0.0, 1.0, 0.0, 0.0)">
      <use ffdec:characterId="13" ffdec:characterName="50_fla.Symbole36_39" height="56.0" id="back" transform="matrix(1.0, 0.0, 0.0, 1.0, 0.0, 0.0)" width="56.0" xlink:href="#sprite38"/>
    </g>
    <g id="sprite38" transform="matrix(1.0, 0.0, 0.0, 1.0, 0.0, 0.0)">
      <use ffdec:characterId="12" ffdec:characterName="50_fla.Symbole33_40" height="56.0" id="back" transform="matrix(1.0, 0.0, 0.0, 1.0, 0.0, 0.0)" width="56.0" xlink:href="#sprite39"/>
    </g>
    <g id="sprite39" transform="matrix(1.0, 0.0, 0.0, 1.0, 0.0, 0.0)">
      <use ffdec:characterId="11" ffdec:characterName="50_fla.Symbole30_41" height="56.0" id="back" transform="matrix(1.0, 0.0, 0.0, 1.0, 0.0, 0.0)" width="56.0" xlink:href="#sprite40"/>
    </g>
    <g id="sprite40" transform="matrix(1.0, 0.0, 0.0, 1.0, 0.0, 0.0)">
      <use ffdec:characterId="10" ffdec:characterName="50_fla.Symbole27_42" height="56.0" id="back" transform="matrix(1.0, 0.0, 0.0, 1.0, 0.0, 0.0)" width="56.0" xlink:href="#sprite41"/>
    </g>
    <g id="sprite41" transform="matrix(1.0, 0.0, 0.0, 1.0, 0.0, 0.0)">
      <use ffdec:characterId="9" ffdec:characterName="50_fla.Symbole24_43" height="56.0" id="back" transform="matrix(1.0, 0.0, 0.0, 1.0, 0.0, 0.0)" width="56.0" xlink:href="#sprite42"/>
    </g>
    <g id="sprite42" transform="matrix(1.0, 0.0, 0.0, 1.0, 0.0, 0.0)">
      <use ffdec:characterId="8" ffdec:characterName="50_fla.Symbole21_44" height="56.0" id="back" transform="matrix(1.0, 0.0, 0.0, 1.0, 0.0, 0.0)" width="56.0" xlink:href="#sprite43"/>
    </g>
    <g id="sprite43" transform="matrix(1.0, 0.0, 0.0, 1.0, 0.0, 0.0)">
      <use ffdec:characterId="7" ffdec:characterName="50_fla.Symbole18_45" height="56.0" id="back" transform="matrix(1.0, 0.0, 0.0, 1.0, 0.0, 0.0)" width="56.0" xlink:href="#sprite44"/>
    </g>
    <g id="sprite44" transform="matrix(1.0, 0.0, 0.0, 1.0, 0.0, 0.0)">
      <use ffdec:characterId="6" ffdec:characterName="50_fla.Symbole15_46" height="56.0" id="back" transform="matrix(1.0, 0.0, 0.0, 1.0, 0.0, 0.0)" width="56.0" xlink:href="#sprite45"/>
    </g>
    <g id="sprite45" transform="matrix(1.0, 0.0, 0.0, 1.0, 0.0, 0.0)">
      <use ffdec:characterId="5" ffdec:characterName="50_fla.Symbole12_47" height="56.0" id="back" transform="matrix(1.0, 0.0, 0.0, 1.0, 0.0, 0.0)" width="56.0" xlink:href="#sprite46"/>
    </g>
    <g id="sprite46" transform="matrix(1.0, 0.0, 0.0, 1.0, 0.0, 0.0)">
      <use ffdec:characterId="4" ffdec:characterName="50_fla.Symbole9_48" height="56.0" id="back" transform="matrix(1.0, 0.0, 0.0, 1.0, 0.0, 0.0)" width="56.0" xlink:href="#sprite47"/>
    </g>
    <g id="sprite47" transform="matrix(1.0, 0.0, 0.0, 1.0, 0.0, 0.0)">
      <use ffdec:characterId="3" ffdec:characterName="50_fla.Symbole6_49" height="56.0" id="back" transform="matrix(1.0, 0.0, 0.0, 1.0, 0.0, 0.0)" width="56.0" xlink:href="#sprite48"/>
    </g>
    <g id="sprite48" transform="matrix(1.0, 0.0, 0.0, 1.0, 0.0, 0.0)">
      <use ffdec:characterId="2" height="56.0" id="back" transform="matrix(1.0, 0.0, 0.0, 1.0, 0.0, 0.0)" width="56.0" xlink:href="#sprite49"/>
    </g>
    <g id="sprite49" transform="matrix(1.0, 0.0, 0.0, 1.0, 0.0, 0.0)">
      <use ffdec:characterId="1" height="56.0" transform="matrix(1.0, 0.0, 0.0, 1.0, 0.0, 0.0)" width="56.0" xlink:href="#shape0"/>
    </g>
    <g id="shape0" transform="matrix(1.0, 0.0, 0.0, 1.0, 0.0, 0.0)">
      <path d="M56.0 56.0 L0.0 56.0 0.0 0.0 56.0 0.0 56.0 56.0" fill="#010101" fill-opacity="0.0" fill-rule="evenodd" stroke="none"/>
    </g>
    <g id="sprite50" transform="matrix(1.0, 0.0, 0.0, 1.0, 0.75, 0.75)">
      <use ffdec:characterId="52" height="46.0" transform="matrix(1.0, 0.0, 0.0, 1.0, -0.75, -0.75)" width="55.4" xlink:href="#shape1"/>
    </g>
    <g id="shape1" transform="matrix(1.0, 0.0, 0.0, 1.0, 0.75, 0.75)">
      <path d="M53.25 7.7 Q54.4 11.6 53.5 15.15 52.8 18.4 50.7 20.45 48.7 22.4 45.95 23.5 L42.5 24.6 Q41.6 24.85 39.4 26.9 35.6 30.4 33.6 33.5 29.8 39.1 29.5 43.5 28.85 44.2 27.6 44.05 L27.55 43.75 Q28.5 38.2 31.25 34.5 35.1 28.85 41.0 24.3 L41.6 23.5 41.65 23.25 42.0 21.6 Q42.5 15.9 44.25 12.7 45.0 11.2 46.6 9.45 L49.35 6.4 51.25 2.85 51.95 4.35 53.25 7.7 M44.25 41.25 Q42.05 41.85 39.4 41.15 37.8 40.7 34.9 38.65 L32.4 36.6 Q34.75 33.9 36.8 32.8 39.7 31.45 43.35 32.35 47.9 33.6 50.8 32.8 52.35 32.35 53.0 31.75 53.0 32.3 51.25 34.95 49.4 37.9 47.9 39.2 46.1 40.7 44.25 41.25 M21.75 6.65 L19.35 8.85 Q18.6 9.3 18.15 10.1 17.6 10.95 17.6 11.5 L17.6 11.65 Q17.7 12.35 18.15 12.75 18.75 13.3 19.6 13.15 L21.2 12.75 22.8 12.55 Q25.05 12.55 26.3 14.7 26.9 15.75 26.9 17.1 26.9 18.55 26.15 20.0 25.25 21.35 23.85 22.2 L23.25 22.5 Q22.05 22.8 20.9 22.5 L20.5 22.4 Q19.35 21.95 18.5 20.65 17.9 19.85 17.3 18.3 L16.4 17.1 Q16.2 16.85 15.8 16.8 15.5 16.65 15.35 17.1 L16.35 22.5 16.75 26.6 17.05 32.5 Q17.3 36.6 17.7 38.55 18.35 41.7 18.75 42.75 19.15 43.35 18.9 44.05 18.7 44.5 18.15 44.5 L17.3 43.95 Q15.8 40.95 15.5 34.25 L15.35 26.35 15.05 22.5 Q14.65 18.3 14.2 17.7 L13.35 17.65 Q12.75 18.1 12.75 19.25 L12.95 22.5 13.1 23.95 Q12.9 26.15 10.6 27.15 9.25 27.8 7.35 27.15 5.45 26.35 4.55 24.75 3.85 23.55 4.05 22.2 4.15 20.75 5.35 19.85 L7.1 18.7 9.0 17.5 Q9.3 17.25 9.55 17.1 9.95 16.35 9.65 15.5 L8.8 14.6 5.8 14.3 Q3.05 14.3 1.3 12.55 L0.65 11.6 Q-0.65 9.45 0.65 6.7 1.75 4.5 3.45 3.85 L6.25 3.7 7.7 4.6 8.85 6.2 9.45 7.95 Q9.7 9.05 10.1 9.75 10.55 10.6 11.45 11.05 12.5 11.4 13.2 10.6 13.95 9.75 13.6 8.25 L12.75 6.0 Q12.3 4.75 12.3 3.85 12.5 2.0 14.25 0.9 16.2 -0.4 18.7 0.2 20.95 0.65 21.8 2.55 22.85 4.9 21.75 6.65 M34.05 11.4 L35.6 13.3 Q37.8 17.0 36.65 20.45 36.2 22.5 34.05 26.35 32.75 29.1 32.15 32.1 29.95 31.3 29.1 27.65 28.65 25.3 29.35 23.05 L30.8 19.25 32.1 15.35 Q32.75 12.25 32.55 10.3 L34.05 11.4 M11.65 12.05 Q10.85 12.75 10.85 13.85 10.85 15.05 11.65 15.75 12.45 16.55 13.5 16.55 14.7 16.55 15.5 15.75 16.2 15.05 16.2 13.85 16.2 12.75 15.5 12.05 14.7 11.2 13.5 11.2 12.45 11.2 11.65 12.05 M7.35 30.6 Q9.1 30.85 10.6 31.9 12.3 33.2 13.2 35.55 L14.4 40.1 Q14.9 41.85 15.7 43.1 11.9 43.2 9.55 41.4 7.95 40.15 6.85 37.6 L5.35 33.05 4.55 31.9 4.05 31.2 Q5.6 30.45 7.35 30.6 M27.0 31.2 Q27.15 34.9 25.05 36.9 22.85 39.2 18.9 39.65 L19.15 37.3 19.35 34.7 Q19.65 33.2 20.45 31.75 21.35 30.25 23.25 28.7 L26.45 25.4 Q26.45 27.35 27.0 31.2 Z" fill="none" stroke="#000000" stroke-linecap="round" stroke-linejoin="round" stroke-opacity="0.2" stroke-width="1.5"/>
    </g>
    <g id="sprite51" transform="matrix(1.0, 0.0, 0.0, 1.0, 0.0, 0.0)">
      <use ffdec:characterId="54" height="44.45" transform="matrix(1.0, 0.0, 0.0, 1.0, 0.0, 0.0)" width="53.9" xlink:href="#shape2"/>
    </g>
    <g id="shape2" transform="matrix(1.0, 0.0, 0.0, 1.0, 0.0, 0.0)">
      <path d="M53.25 7.7 Q54.4 11.6 53.5 15.1 52.8 18.35 50.7 20.45 48.7 22.35 45.95 23.45 L42.5 24.6 Q41.6 24.8 39.45 26.9 35.6 30.35 33.6 33.45 29.8 39.05 29.5 43.5 28.85 44.15 27.65 44.0 L27.6 43.75 Q28.5 38.2 31.25 34.45 35.1 28.85 41.0 24.3 L41.6 23.45 41.65 23.25 42.0 21.6 Q42.5 15.9 44.25 12.65 45.05 11.15 46.6 9.45 L49.35 6.4 51.3 2.8 51.95 4.35 53.25 7.7 M44.25 41.2 Q42.1 41.8 39.45 41.15 37.8 40.7 34.9 38.6 L32.4 36.6 Q34.75 33.9 36.85 32.8 39.7 31.45 43.4 32.35 47.9 33.6 50.85 32.8 52.35 32.35 53.0 31.7 53.0 32.3 51.3 34.95 49.4 37.9 47.9 39.2 46.1 40.7 44.25 41.2 M21.75 6.65 L19.4 8.8 Q18.6 9.3 18.15 10.1 17.65 10.95 17.65 11.45 L17.65 11.65 Q17.75 12.3 18.15 12.75 18.8 13.3 19.6 13.15 L21.2 12.75 22.85 12.5 Q25.05 12.5 26.3 14.7 26.95 15.75 26.95 17.05 26.95 18.55 26.15 20.0 25.3 21.35 23.9 22.15 L23.25 22.45 Q22.05 22.8 20.9 22.45 L20.55 22.35 Q19.4 21.95 18.5 20.65 17.95 19.85 17.3 18.3 L16.45 17.05 15.8 16.75 Q15.5 16.6 15.35 17.05 L16.35 22.45 16.8 26.55 17.1 32.5 Q17.3 36.6 17.75 38.55 18.4 41.65 18.8 42.7 19.15 43.35 18.95 44.0 18.75 44.45 18.15 44.45 17.65 44.4 17.3 43.95 15.8 40.9 15.5 34.25 L15.35 26.35 15.05 22.45 Q14.65 18.3 14.2 17.7 L13.35 17.65 Q12.75 18.05 12.75 19.2 L13.0 22.45 13.15 23.95 Q12.9 26.1 10.6 27.1 9.25 27.75 7.4 27.1 5.45 26.35 4.6 24.75 3.85 23.55 4.05 22.15 4.15 20.7 5.35 19.8 L7.15 18.7 9.05 17.5 9.55 17.05 Q9.95 16.35 9.7 15.45 L8.8 14.6 5.8 14.25 Q3.05 14.25 1.35 12.5 L0.7 11.6 Q-0.65 9.45 0.7 6.7 1.75 4.45 3.5 3.8 L6.3 3.7 Q7.15 4.05 7.75 4.55 L8.9 6.2 9.45 7.9 10.1 9.7 Q10.55 10.6 11.5 11.0 12.55 11.35 13.2 10.6 14.0 9.7 13.65 8.2 L12.75 6.0 Q12.35 4.7 12.35 3.8 12.55 1.95 14.3 0.9 16.2 -0.4 18.75 0.15 20.95 0.65 21.85 2.55 22.9 4.9 21.75 6.65 M35.6 13.3 Q37.8 17.0 36.7 20.45 36.2 22.45 34.05 26.35 32.75 29.05 32.15 32.1 29.95 31.3 29.15 27.6 28.65 25.25 29.35 23.0 L30.8 19.2 Q31.75 17.0 32.1 15.35 32.75 12.25 32.55 10.3 L34.05 11.35 35.6 13.3 M11.7 12.0 Q10.85 12.75 10.85 13.8 10.85 15.05 11.7 15.75 12.5 16.55 13.55 16.55 14.7 16.55 15.5 15.75 16.2 15.05 16.2 13.8 16.2 12.75 15.5 12.0 14.7 11.15 13.55 11.15 12.5 11.15 11.7 12.0 M7.4 30.55 Q9.1 30.8 10.6 31.85 12.35 33.15 13.2 35.55 13.8 37.05 14.4 40.05 14.95 41.8 15.7 43.1 11.9 43.15 9.55 41.35 7.95 40.15 6.9 37.55 L5.35 33.0 4.6 31.85 4.05 31.2 Q5.6 30.45 7.4 30.55 M26.5 25.4 Q26.5 27.35 27.0 31.2 27.15 34.9 25.05 36.9 22.9 39.2 18.95 39.65 L19.15 37.25 19.4 34.65 Q19.65 33.15 20.45 31.7 21.4 30.2 23.25 28.7 L26.5 25.4" fill="#000000" fill-rule="evenodd" stroke="none"/>
    </g>
  </defs>
</svg>
