<?xml version="1.0" encoding="UTF-8" standalone="no"?>
<svg xmlns:ffdec="https://www.free-decompiler.com/flash" xmlns:xlink="http://www.w3.org/1999/xlink" ffdec:objectType="frame" height="56.0px" width="56.0px" xmlns="http://www.w3.org/2000/svg">
  <g transform="matrix(1.0, 0.0, 0.0, 1.0, 0.0, 0.0)">
    <use ffdec:characterId="52" ffdec:characterName="51_fla.Symbole153_1" height="56.0" id="back" transform="matrix(1.0, 0.0, 0.0, 1.0, 0.0, 0.0)" width="56.0" xlink:href="#sprite0"/>
    <use ffdec:characterId="54" height="50.65" id="back" transform="matrix(1.0, 0.0, 0.0, 1.0, 0.4, 2.6)" width="55.4" xlink:href="#sprite51"/>
    <use ffdec:characterId="56" height="49.1" id="up" transform="matrix(1.0, 0.0, 0.0, 1.0, 1.15, 3.4)" width="53.9" xlink:href="#sprite52"/>
  </g>
  <defs>
    <g id="sprite0" transform="matrix(1.0, 0.0, 0.0, 1.0, 0.0, 0.0)">
      <use ffdec:characterId="51" ffdec:characterName="51_fla.Symbole150_2" height="56.0" id="back" transform="matrix(1.0, 0.0, 0.0, 1.0, 0.0, 0.0)" width="56.0" xlink:href="#sprite1"/>
    </g>
    <g id="sprite1" transform="matrix(1.0, 0.0, 0.0, 1.0, 0.0, 0.0)">
      <use ffdec:characterId="50" ffdec:characterName="51_fla.Symbole147_3" height="56.0" id="back" transform="matrix(1.0, 0.0, 0.0, 1.0, 0.0, 0.0)" width="56.0" xlink:href="#sprite2"/>
    </g>
    <g id="sprite2" transform="matrix(1.0, 0.0, 0.0, 1.0, 0.0, 0.0)">
      <use ffdec:characterId="49" ffdec:characterName="51_fla.Symbole144_4" height="56.0" id="back" transform="matrix(1.0, 0.0, 0.0, 1.0, 0.0, 0.0)" width="56.0" xlink:href="#sprite3"/>
    </g>
    <g id="sprite3" transform="matrix(1.0, 0.0, 0.0, 1.0, 0.0, 0.0)">
      <use ffdec:characterId="48" ffdec:characterName="51_fla.Symbole141_5" height="56.0" id="back" transform="matrix(1.0, 0.0, 0.0, 1.0, 0.0, 0.0)" width="56.0" xlink:href="#sprite4"/>
    </g>
    <g id="sprite4" transform="matrix(1.0, 0.0, 0.0, 1.0, 0.0, 0.0)">
      <use ffdec:characterId="47" ffdec:characterName="51_fla.Symbole138_6" height="56.0" id="back" transform="matrix(1.0, 0.0, 0.0, 1.0, 0.0, 0.0)" width="56.0" xlink:href="#sprite5"/>
    </g>
    <g id="sprite5" transform="matrix(1.0, 0.0, 0.0, 1.0, 0.0, 0.0)">
      <use ffdec:characterId="46" ffdec:characterName="51_fla.Symbole135_7" height="56.0" id="back" transform="matrix(1.0, 0.0, 0.0, 1.0, 0.0, 0.0)" width="56.0" xlink:href="#sprite6"/>
    </g>
    <g id="sprite6" transform="matrix(1.0, 0.0, 0.0, 1.0, 0.0, 0.0)">
      <use ffdec:characterId="45" ffdec:characterName="51_fla.Symbole132_8" height="56.0" id="back" transform="matrix(1.0, 0.0, 0.0, 1.0, 0.0, 0.0)" width="56.0" xlink:href="#sprite7"/>
    </g>
    <g id="sprite7" transform="matrix(1.0, 0.0, 0.0, 1.0, 0.0, 0.0)">
      <use ffdec:characterId="44" ffdec:characterName="51_fla.Symbole129_9" height="56.0" id="back" transform="matrix(1.0, 0.0, 0.0, 1.0, 0.0, 0.0)" width="56.0" xlink:href="#sprite8"/>
    </g>
    <g id="sprite8" transform="matrix(1.0, 0.0, 0.0, 1.0, 0.0, 0.0)">
      <use ffdec:characterId="43" ffdec:characterName="51_fla.Symbole126_10" height="56.0" id="back" transform="matrix(1.0, 0.0, 0.0, 1.0, 0.0, 0.0)" width="56.0" xlink:href="#sprite9"/>
    </g>
    <g id="sprite9" transform="matrix(1.0, 0.0, 0.0, 1.0, 0.0, 0.0)">
      <use ffdec:characterId="42" ffdec:characterName="51_fla.Symbole123_11" height="56.0" id="back" transform="matrix(1.0, 0.0, 0.0, 1.0, 0.0, 0.0)" width="56.0" xlink:href="#sprite10"/>
    </g>
    <g id="sprite10" transform="matrix(1.0, 0.0, 0.0, 1.0, 0.0, 0.0)">
      <use ffdec:characterId="41" ffdec:characterName="51_fla.Symbole120_12" height="56.0" id="back" transform="matrix(1.0, 0.0, 0.0, 1.0, 0.0, 0.0)" width="56.0" xlink:href="#sprite11"/>
    </g>
    <g id="sprite11" transform="matrix(1.0, 0.0, 0.0, 1.0, 0.0, 0.0)">
      <use ffdec:characterId="40" ffdec:characterName="51_fla.Symbole117_13" height="56.0" id="back" transform="matrix(1.0, 0.0, 0.0, 1.0, 0.0, 0.0)" width="56.0" xlink:href="#sprite12"/>
    </g>
    <g id="sprite12" transform="matrix(1.0, 0.0, 0.0, 1.0, 0.0, 0.0)">
      <use ffdec:characterId="39" ffdec:characterName="51_fla.Symbole114_14" height="56.0" id="back" transform="matrix(1.0, 0.0, 0.0, 1.0, 0.0, 0.0)" width="56.0" xlink:href="#sprite13"/>
    </g>
    <g id="sprite13" transform="matrix(1.0, 0.0, 0.0, 1.0, 0.0, 0.0)">
      <use ffdec:characterId="38" ffdec:characterName="51_fla.Symbole111_15" height="56.0" id="back" transform="matrix(1.0, 0.0, 0.0, 1.0, 0.0, 0.0)" width="56.0" xlink:href="#sprite14"/>
    </g>
    <g id="sprite14" transform="matrix(1.0, 0.0, 0.0, 1.0, 0.0, 0.0)">
      <use ffdec:characterId="37" ffdec:characterName="51_fla.Symbole108_16" height="56.0" id="back" transform="matrix(1.0, 0.0, 0.0, 1.0, 0.0, 0.0)" width="56.0" xlink:href="#sprite15"/>
    </g>
    <g id="sprite15" transform="matrix(1.0, 0.0, 0.0, 1.0, 0.0, 0.0)">
      <use ffdec:characterId="36" ffdec:characterName="51_fla.Symbole105_17" height="56.0" id="back" transform="matrix(1.0, 0.0, 0.0, 1.0, 0.0, 0.0)" width="56.0" xlink:href="#sprite16"/>
    </g>
    <g id="sprite16" transform="matrix(1.0, 0.0, 0.0, 1.0, 0.0, 0.0)">
      <use ffdec:characterId="35" ffdec:characterName="51_fla.Symbole102_18" height="56.0" id="back" transform="matrix(1.0, 0.0, 0.0, 1.0, 0.0, 0.0)" width="56.0" xlink:href="#sprite17"/>
    </g>
    <g id="sprite17" transform="matrix(1.0, 0.0, 0.0, 1.0, 0.0, 0.0)">
      <use ffdec:characterId="34" ffdec:characterName="51_fla.Symbole99_19" height="56.0" id="back" transform="matrix(1.0, 0.0, 0.0, 1.0, 0.0, 0.0)" width="56.0" xlink:href="#sprite18"/>
    </g>
    <g id="sprite18" transform="matrix(1.0, 0.0, 0.0, 1.0, 0.0, 0.0)">
      <use ffdec:characterId="33" ffdec:characterName="51_fla.Symbole96_20" height="56.0" id="back" transform="matrix(1.0, 0.0, 0.0, 1.0, 0.0, 0.0)" width="56.0" xlink:href="#sprite19"/>
    </g>
    <g id="sprite19" transform="matrix(1.0, 0.0, 0.0, 1.0, 0.0, 0.0)">
      <use ffdec:characterId="32" ffdec:characterName="51_fla.Symbole93_21" height="56.0" id="back" transform="matrix(1.0, 0.0, 0.0, 1.0, 0.0, 0.0)" width="56.0" xlink:href="#sprite20"/>
    </g>
    <g id="sprite20" transform="matrix(1.0, 0.0, 0.0, 1.0, 0.0, 0.0)">
      <use ffdec:characterId="31" ffdec:characterName="51_fla.Symbole90_22" height="56.0" id="back" transform="matrix(1.0, 0.0, 0.0, 1.0, 0.0, 0.0)" width="56.0" xlink:href="#sprite21"/>
    </g>
    <g id="sprite21" transform="matrix(1.0, 0.0, 0.0, 1.0, 0.0, 0.0)">
      <use ffdec:characterId="30" ffdec:characterName="51_fla.Symbole87_23" height="56.0" id="back" transform="matrix(1.0, 0.0, 0.0, 1.0, 0.0, 0.0)" width="56.0" xlink:href="#sprite22"/>
    </g>
    <g id="sprite22" transform="matrix(1.0, 0.0, 0.0, 1.0, 0.0, 0.0)">
      <use ffdec:characterId="29" ffdec:characterName="51_fla.Symbole84_24" height="56.0" id="back" transform="matrix(1.0, 0.0, 0.0, 1.0, 0.0, 0.0)" width="56.0" xlink:href="#sprite23"/>
    </g>
    <g id="sprite23" transform="matrix(1.0, 0.0, 0.0, 1.0, 0.0, 0.0)">
      <use ffdec:characterId="28" ffdec:characterName="51_fla.Symbole81_25" height="56.0" id="back" transform="matrix(1.0, 0.0, 0.0, 1.0, 0.0, 0.0)" width="56.0" xlink:href="#sprite24"/>
    </g>
    <g id="sprite24" transform="matrix(1.0, 0.0, 0.0, 1.0, 0.0, 0.0)">
      <use ffdec:characterId="27" ffdec:characterName="51_fla.Symbole78_26" height="56.0" id="back" transform="matrix(1.0, 0.0, 0.0, 1.0, 0.0, 0.0)" width="56.0" xlink:href="#sprite25"/>
    </g>
    <g id="sprite25" transform="matrix(1.0, 0.0, 0.0, 1.0, 0.0, 0.0)">
      <use ffdec:characterId="26" ffdec:characterName="51_fla.Symbole75_27" height="56.0" id="back" transform="matrix(1.0, 0.0, 0.0, 1.0, 0.0, 0.0)" width="56.0" xlink:href="#sprite26"/>
    </g>
    <g id="sprite26" transform="matrix(1.0, 0.0, 0.0, 1.0, 0.0, 0.0)">
      <use ffdec:characterId="25" ffdec:characterName="51_fla.Symbole72_28" height="56.0" id="back" transform="matrix(1.0, 0.0, 0.0, 1.0, 0.0, 0.0)" width="56.0" xlink:href="#sprite27"/>
    </g>
    <g id="sprite27" transform="matrix(1.0, 0.0, 0.0, 1.0, 0.0, 0.0)">
      <use ffdec:characterId="24" ffdec:characterName="51_fla.Symbole69_29" height="56.0" id="back" transform="matrix(1.0, 0.0, 0.0, 1.0, 0.0, 0.0)" width="56.0" xlink:href="#sprite28"/>
    </g>
    <g id="sprite28" transform="matrix(1.0, 0.0, 0.0, 1.0, 0.0, 0.0)">
      <use ffdec:characterId="23" ffdec:characterName="51_fla.Symbole66_30" height="56.0" id="back" transform="matrix(1.0, 0.0, 0.0, 1.0, 0.0, 0.0)" width="56.0" xlink:href="#sprite29"/>
    </g>
    <g id="sprite29" transform="matrix(1.0, 0.0, 0.0, 1.0, 0.0, 0.0)">
      <use ffdec:characterId="22" ffdec:characterName="51_fla.Symbole63_31" height="56.0" id="back" transform="matrix(1.0, 0.0, 0.0, 1.0, 0.0, 0.0)" width="56.0" xlink:href="#sprite30"/>
    </g>
    <g id="sprite30" transform="matrix(1.0, 0.0, 0.0, 1.0, 0.0, 0.0)">
      <use ffdec:characterId="21" ffdec:characterName="51_fla.Symbole60_32" height="56.0" id="back" transform="matrix(1.0, 0.0, 0.0, 1.0, 0.0, 0.0)" width="56.0" xlink:href="#sprite31"/>
    </g>
    <g id="sprite31" transform="matrix(1.0, 0.0, 0.0, 1.0, 0.0, 0.0)">
      <use ffdec:characterId="20" ffdec:characterName="51_fla.Symbole57_33" height="56.0" id="back" transform="matrix(1.0, 0.0, 0.0, 1.0, 0.0, 0.0)" width="56.0" xlink:href="#sprite32"/>
    </g>
    <g id="sprite32" transform="matrix(1.0, 0.0, 0.0, 1.0, 0.0, 0.0)">
      <use ffdec:characterId="19" ffdec:characterName="51_fla.Symbole54_34" height="56.0" id="back" transform="matrix(1.0, 0.0, 0.0, 1.0, 0.0, 0.0)" width="56.0" xlink:href="#sprite33"/>
    </g>
    <g id="sprite33" transform="matrix(1.0, 0.0, 0.0, 1.0, 0.0, 0.0)">
      <use ffdec:characterId="18" ffdec:characterName="51_fla.Symbole51_35" height="56.0" id="back" transform="matrix(1.0, 0.0, 0.0, 1.0, 0.0, 0.0)" width="56.0" xlink:href="#sprite34"/>
    </g>
    <g id="sprite34" transform="matrix(1.0, 0.0, 0.0, 1.0, 0.0, 0.0)">
      <use ffdec:characterId="17" ffdec:characterName="51_fla.Symbole48_36" height="56.0" id="back" transform="matrix(1.0, 0.0, 0.0, 1.0, 0.0, 0.0)" width="56.0" xlink:href="#sprite35"/>
    </g>
    <g id="sprite35" transform="matrix(1.0, 0.0, 0.0, 1.0, 0.0, 0.0)">
      <use ffdec:characterId="16" ffdec:characterName="51_fla.Symbole45_37" height="56.0" id="back" transform="matrix(1.0, 0.0, 0.0, 1.0, 0.0, 0.0)" width="56.0" xlink:href="#sprite36"/>
    </g>
    <g id="sprite36" transform="matrix(1.0, 0.0, 0.0, 1.0, 0.0, 0.0)">
      <use ffdec:characterId="15" ffdec:characterName="51_fla.Symbole42_38" height="56.0" id="back" transform="matrix(1.0, 0.0, 0.0, 1.0, 0.0, 0.0)" width="56.0" xlink:href="#sprite37"/>
    </g>
    <g id="sprite37" transform="matrix(1.0, 0.0, 0.0, 1.0, 0.0, 0.0)">
      <use ffdec:characterId="14" ffdec:characterName="51_fla.Symbole39_39" height="56.0" id="back" transform="matrix(1.0, 0.0, 0.0, 1.0, 0.0, 0.0)" width="56.0" xlink:href="#sprite38"/>
    </g>
    <g id="sprite38" transform="matrix(1.0, 0.0, 0.0, 1.0, 0.0, 0.0)">
      <use ffdec:characterId="13" ffdec:characterName="51_fla.Symbole36_40" height="56.0" id="back" transform="matrix(1.0, 0.0, 0.0, 1.0, 0.0, 0.0)" width="56.0" xlink:href="#sprite39"/>
    </g>
    <g id="sprite39" transform="matrix(1.0, 0.0, 0.0, 1.0, 0.0, 0.0)">
      <use ffdec:characterId="12" ffdec:characterName="51_fla.Symbole33_41" height="56.0" id="back" transform="matrix(1.0, 0.0, 0.0, 1.0, 0.0, 0.0)" width="56.0" xlink:href="#sprite40"/>
    </g>
    <g id="sprite40" transform="matrix(1.0, 0.0, 0.0, 1.0, 0.0, 0.0)">
      <use ffdec:characterId="11" ffdec:characterName="51_fla.Symbole30_42" height="56.0" id="back" transform="matrix(1.0, 0.0, 0.0, 1.0, 0.0, 0.0)" width="56.0" xlink:href="#sprite41"/>
    </g>
    <g id="sprite41" transform="matrix(1.0, 0.0, 0.0, 1.0, 0.0, 0.0)">
      <use ffdec:characterId="10" ffdec:characterName="51_fla.Symbole27_43" height="56.0" id="back" transform="matrix(1.0, 0.0, 0.0, 1.0, 0.0, 0.0)" width="56.0" xlink:href="#sprite42"/>
    </g>
    <g id="sprite42" transform="matrix(1.0, 0.0, 0.0, 1.0, 0.0, 0.0)">
      <use ffdec:characterId="9" ffdec:characterName="51_fla.Symbole24_44" height="56.0" id="back" transform="matrix(1.0, 0.0, 0.0, 1.0, 0.0, 0.0)" width="56.0" xlink:href="#sprite43"/>
    </g>
    <g id="sprite43" transform="matrix(1.0, 0.0, 0.0, 1.0, 0.0, 0.0)">
      <use ffdec:characterId="8" ffdec:characterName="51_fla.Symbole21_45" height="56.0" id="back" transform="matrix(1.0, 0.0, 0.0, 1.0, 0.0, 0.0)" width="56.0" xlink:href="#sprite44"/>
    </g>
    <g id="sprite44" transform="matrix(1.0, 0.0, 0.0, 1.0, 0.0, 0.0)">
      <use ffdec:characterId="7" ffdec:characterName="51_fla.Symbole18_46" height="56.0" id="back" transform="matrix(1.0, 0.0, 0.0, 1.0, 0.0, 0.0)" width="56.0" xlink:href="#sprite45"/>
    </g>
    <g id="sprite45" transform="matrix(1.0, 0.0, 0.0, 1.0, 0.0, 0.0)">
      <use ffdec:characterId="6" ffdec:characterName="51_fla.Symbole15_47" height="56.0" id="back" transform="matrix(1.0, 0.0, 0.0, 1.0, 0.0, 0.0)" width="56.0" xlink:href="#sprite46"/>
    </g>
    <g id="sprite46" transform="matrix(1.0, 0.0, 0.0, 1.0, 0.0, 0.0)">
      <use ffdec:characterId="5" ffdec:characterName="51_fla.Symbole12_48" height="56.0" id="back" transform="matrix(1.0, 0.0, 0.0, 1.0, 0.0, 0.0)" width="56.0" xlink:href="#sprite47"/>
    </g>
    <g id="sprite47" transform="matrix(1.0, 0.0, 0.0, 1.0, 0.0, 0.0)">
      <use ffdec:characterId="4" ffdec:characterName="51_fla.Symbole9_49" height="56.0" id="back" transform="matrix(1.0, 0.0, 0.0, 1.0, 0.0, 0.0)" width="56.0" xlink:href="#sprite48"/>
    </g>
    <g id="sprite48" transform="matrix(1.0, 0.0, 0.0, 1.0, 0.0, 0.0)">
      <use ffdec:characterId="3" ffdec:characterName="51_fla.Symbole6_50" height="56.0" id="back" transform="matrix(1.0, 0.0, 0.0, 1.0, 0.0, 0.0)" width="56.0" xlink:href="#sprite49"/>
    </g>
    <g id="sprite49" transform="matrix(1.0, 0.0, 0.0, 1.0, 0.0, 0.0)">
      <use ffdec:characterId="2" height="56.0" id="back" transform="matrix(1.0, 0.0, 0.0, 1.0, 0.0, 0.0)" width="56.0" xlink:href="#sprite50"/>
    </g>
    <g id="sprite50" transform="matrix(1.0, 0.0, 0.0, 1.0, 0.0, 0.0)">
      <use ffdec:characterId="1" height="56.0" transform="matrix(1.0, 0.0, 0.0, 1.0, 0.0, 0.0)" width="56.0" xlink:href="#shape0"/>
    </g>
    <g id="shape0" transform="matrix(1.0, 0.0, 0.0, 1.0, 0.0, 0.0)">
      <path d="M56.0 56.0 L0.0 56.0 0.0 0.0 56.0 0.0 56.0 56.0" fill="#010101" fill-opacity="0.0" fill-rule="evenodd" stroke="none"/>
    </g>
    <g id="sprite51" transform="matrix(1.0, 0.0, 0.0, 1.0, 0.75, 0.75)">
      <use ffdec:characterId="53" height="50.65" transform="matrix(1.0, 0.0, 0.0, 1.0, -0.75, -0.75)" width="55.4" xlink:href="#shape1"/>
    </g>
    <g id="shape1" transform="matrix(1.0, 0.0, 0.0, 1.0, 0.75, 0.75)">
      <path d="M43.0 18.65 Q43.7 17.65 44.95 17.65 45.85 17.6 46.5 18.2 47.95 19.5 48.05 18.3 48.15 17.6 49.25 17.0 L51.5 17.15 Q52.55 17.85 52.75 18.75 L53.0 19.8 Q53.2 20.8 52.55 21.55 52.25 21.9 52.3 22.3 L52.9 23.0 Q54.45 24.7 53.6 26.85 52.9 28.85 50.75 29.75 L49.95 30.15 Q49.9 30.3 50.35 30.75 52.0 32.8 50.8 34.95 49.9 36.65 47.5 37.3 46.05 37.65 46.45 38.8 46.9 40.9 44.95 42.05 43.2 43.05 40.8 42.7 39.8 42.5 39.6 42.7 39.3 42.85 39.3 43.5 L38.5 45.25 36.95 46.4 Q34.55 47.45 32.4 45.65 31.2 44.6 33.35 42.6 L42.8 33.1 Q47.6 27.5 49.35 23.4 49.9 22.1 49.65 21.7 49.45 21.25 48.65 22.75 46.2 26.85 42.35 31.2 L32.65 41.0 Q31.8 41.75 31.45 41.75 31.0 41.75 30.7 41.3 29.9 40.25 30.25 38.2 30.55 36.15 31.6 35.9 32.8 35.6 33.25 35.15 L33.8 34.25 Q33.8 32.9 34.4 31.65 35.1 30.15 36.15 29.9 37.25 29.45 37.6 29.0 37.85 28.45 37.4 27.7 36.55 25.85 37.6 24.9 L38.45 23.85 Q38.65 23.05 39.5 22.75 L40.9 22.85 Q41.5 23.4 41.9 23.2 42.4 23.0 42.35 22.3 41.95 20.8 42.1 20.2 42.2 19.5 43.0 18.65 M31.95 1.8 Q32.4 2.55 32.2 3.4 31.6 4.85 32.5 4.9 34.35 5.05 34.85 6.65 35.3 8.1 34.55 10.0 34.2 10.65 34.35 10.9 L34.85 11.3 Q37.0 12.05 36.7 14.8 36.3 17.2 34.35 18.65 33.8 18.95 33.95 19.35 L34.4 19.8 Q35.3 20.05 35.65 21.3 L35.95 23.05 Q36.15 24.15 34.55 25.65 34.0 26.0 32.5 27.1 31.6 27.7 32.25 28.45 32.9 29.0 33.1 30.3 33.25 31.65 32.25 32.8 30.25 34.7 28.1 34.25 27.3 34.0 27.55 32.55 L27.7 24.3 27.85 13.25 Q27.85 11.35 27.45 11.8 27.0 12.2 27.0 13.35 L26.4 23.25 26.0 32.95 Q26.0 34.65 23.45 33.85 19.95 32.9 19.45 29.7 19.1 27.95 20.6 27.55 L21.05 27.1 Q21.2 26.5 20.55 26.2 17.1 24.5 17.6 22.55 17.8 21.3 18.6 20.85 19.0 20.45 20.3 20.2 20.85 19.95 20.85 19.15 20.75 18.2 19.9 18.0 18.8 17.65 17.95 16.3 16.9 14.65 17.2 13.1 17.35 11.6 18.45 10.65 19.45 9.8 20.15 10.1 21.4 10.45 20.55 9.0 19.95 8.15 19.95 6.95 19.9 5.45 20.75 4.6 22.3 2.95 23.75 3.3 24.95 3.6 25.25 2.85 25.5 2.0 26.15 1.25 27.0 0.15 27.7 0.05 28.95 -0.1 30.55 0.6 31.45 0.95 31.95 1.8 M2.5 21.25 Q2.85 22.15 2.05 22.3 1.2 22.4 0.65 23.0 0.1 23.45 0.05 24.35 -0.4 26.4 1.95 27.8 L2.25 28.45 Q2.25 28.85 1.85 29.1 0.5 29.45 0.25 30.95 -0.1 32.1 0.55 32.95 1.2 34.1 2.4 34.4 3.35 34.7 4.4 34.4 L5.5 34.5 Q5.75 34.95 5.3 35.6 4.45 36.45 4.4 37.5 4.0 38.95 4.85 39.9 6.6 41.75 9.1 41.15 9.8 41.0 10.2 41.4 10.5 41.75 10.2 42.3 9.75 42.85 9.95 43.8 10.2 44.9 10.9 45.4 11.75 46.1 13.05 46.15 14.3 46.15 15.35 45.5 16.3 45.0 16.5 46.1 16.9 47.4 18.4 47.85 19.95 48.25 21.2 46.95 21.45 46.4 21.05 45.95 15.35 39.5 12.15 34.95 8.75 30.3 5.75 24.15 5.45 23.45 5.75 23.25 6.05 23.05 6.35 23.85 9.2 28.85 13.9 35.5 19.25 42.6 21.6 44.0 L22.3 43.9 22.55 42.85 Q22.9 37.65 22.05 35.6 21.2 33.85 18.85 33.65 17.95 33.55 17.75 33.2 17.35 32.9 17.6 32.05 18.25 29.0 17.5 27.1 16.65 24.75 14.35 24.35 13.6 24.3 13.45 23.9 13.05 23.6 13.05 23.0 13.05 20.05 11.75 18.5 10.5 17.0 8.9 17.75 L7.8 18.0 7.35 17.2 Q6.95 16.3 5.65 15.7 4.15 15.2 3.15 16.05 1.8 17.0 1.8 18.3 1.8 18.95 2.5 21.25 M26.65 35.7 Q27.1 35.7 27.3 37.2 L27.3 46.1 Q27.25 46.8 27.65 47.25 28.1 47.6 28.55 47.0 L30.25 44.65 30.75 44.6 Q31.0 44.8 30.7 45.25 29.9 46.15 29.15 48.25 L28.85 49.0 28.15 49.0 25.05 49.15 24.2 48.9 23.85 48.3 Q23.0 46.8 22.55 46.55 22.15 46.1 22.3 45.85 22.35 45.5 23.15 46.15 L25.05 47.9 Q25.35 48.3 25.7 48.1 L26.0 47.15 26.25 37.0 Q26.15 35.7 26.65 35.7 Z" fill="none" stroke="#000000" stroke-linecap="round" stroke-linejoin="round" stroke-opacity="0.2" stroke-width="1.5"/>
    </g>
    <g id="sprite52" transform="matrix(1.0, 0.0, 0.0, 1.0, 0.0, 0.0)">
      <use ffdec:characterId="55" height="49.1" transform="matrix(1.0, 0.0, 0.0, 1.0, 0.0, 0.0)" width="53.9" xlink:href="#shape2"/>
    </g>
    <g id="shape2" transform="matrix(1.0, 0.0, 0.0, 1.0, 0.0, 0.0)">
      <path d="M52.75 18.7 L53.0 19.75 Q53.2 20.8 52.55 21.5 52.25 21.85 52.35 22.3 L52.9 22.95 Q54.4 24.65 53.65 26.85 52.9 28.85 50.75 29.7 50.1 29.9 49.95 30.15 L50.3 30.7 Q52.05 32.75 50.85 34.9 49.9 36.6 47.5 37.25 46.1 37.65 46.45 38.8 46.95 40.85 44.95 42.0 43.2 43.05 40.85 42.65 39.8 42.45 39.6 42.65 39.3 42.8 39.3 43.45 L38.55 45.2 36.95 46.35 Q34.55 47.4 32.4 45.6 31.2 44.55 33.35 42.6 L42.75 33.1 Q47.6 27.45 49.3 23.35 49.9 22.05 49.7 21.65 49.45 21.2 48.65 22.7 46.2 26.85 42.35 31.15 L32.65 40.95 Q31.85 41.75 31.4 41.75 30.95 41.75 30.7 41.3 29.9 40.2 30.25 38.15 30.55 36.1 31.6 35.9 32.85 35.55 33.25 35.1 33.7 34.8 33.8 34.15 33.8 32.85 34.45 31.65 35.05 30.15 36.15 29.85 37.25 29.4 37.6 29.0 37.8 28.4 37.35 27.7 36.5 25.8 37.6 24.9 L38.45 23.8 Q38.65 23.0 39.55 22.7 L40.9 22.8 Q41.5 23.35 41.9 23.15 42.4 22.95 42.35 22.3 42.0 20.8 42.1 20.15 42.2 19.5 43.0 18.6 43.7 17.6 44.95 17.6 45.85 17.55 46.5 18.2 L48.0 18.25 Q48.15 17.55 49.25 16.95 50.4 16.3 51.45 17.1 52.55 17.8 52.75 18.7 M32.0 1.75 Q32.4 2.5 32.2 3.35 31.6 4.8 32.5 4.85 34.35 5.0 34.85 6.6 35.3 8.05 34.55 9.95 34.2 10.6 34.35 10.85 L34.85 11.25 Q37.0 12.0 36.75 14.75 36.3 17.2 34.35 18.6 33.8 18.9 33.9 19.35 L34.45 19.75 Q35.3 20.0 35.65 21.3 L35.95 23.0 Q36.15 24.1 34.55 25.6 34.0 25.95 32.5 27.05 31.6 27.7 32.25 28.4 32.9 29.0 33.15 30.3 33.25 31.65 32.25 32.75 30.25 34.65 28.1 34.15 27.3 33.95 27.5 32.5 L27.75 24.25 27.9 13.2 Q27.9 11.35 27.45 11.75 27.0 12.15 27.0 13.3 L26.45 23.2 26.0 32.95 Q26.0 34.6 23.4 33.8 19.95 32.85 19.45 29.65 19.1 27.9 20.6 27.55 L21.05 27.05 Q21.2 26.45 20.55 26.2 17.1 24.45 17.6 22.5 17.8 21.3 18.6 20.85 19.05 20.4 20.35 20.15 20.85 19.9 20.85 19.1 20.75 18.2 19.9 17.95 18.8 17.6 17.95 16.25 16.85 14.6 17.15 13.05 17.4 11.55 18.45 10.6 19.45 9.75 20.2 10.05 21.4 10.4 20.55 8.95 19.95 8.1 19.95 6.95 19.9 5.45 20.75 4.55 22.25 2.9 23.8 3.3 24.95 3.55 25.3 2.85 25.5 2.0 26.15 1.2 27.0 0.1 27.75 0.05 28.95 -0.2 30.55 0.55 31.4 0.9 32.0 1.75 M1.75 18.25 Q1.75 16.95 3.15 16.0 4.15 15.15 5.65 15.65 6.95 16.25 7.4 17.2 L7.8 17.95 8.9 17.75 Q10.45 16.95 11.75 18.45 13.05 20.0 13.05 22.95 13.05 23.6 13.4 23.85 13.65 24.25 14.35 24.3 16.65 24.75 17.5 27.05 18.25 29.0 17.6 32.0 17.4 32.85 17.75 33.15 17.95 33.5 18.9 33.6 21.2 33.8 22.05 35.55 22.9 37.65 22.55 42.8 L22.25 43.9 21.6 43.95 Q19.25 42.6 13.9 35.45 9.2 28.85 6.35 23.8 6.1 23.0 5.7 23.2 5.45 23.45 5.7 24.1 8.75 30.3 12.15 34.9 15.35 39.45 21.05 45.9 21.5 46.35 21.2 46.9 19.95 48.2 18.4 47.8 16.85 47.35 16.5 46.05 16.3 44.95 15.35 45.5 14.3 46.1 13.05 46.1 11.75 46.05 10.9 45.4 10.2 44.85 9.95 43.75 9.75 42.8 10.2 42.25 10.45 41.75 10.2 41.35 9.8 40.95 9.1 41.15 6.6 41.75 4.85 39.85 4.0 38.9 4.35 37.5 4.45 36.4 5.3 35.55 5.7 34.9 5.5 34.45 L4.35 34.4 Q3.35 34.65 2.4 34.4 1.2 34.05 0.55 32.95 -0.1 32.1 0.25 30.95 0.45 29.4 1.85 29.05 2.25 28.85 2.25 28.4 L2.0 27.75 Q-0.4 26.4 0.05 24.3 0.1 23.45 0.7 22.95 1.2 22.35 2.05 22.3 2.85 22.15 2.5 21.2 1.75 18.9 1.75 18.25 M26.65 35.7 Q27.1 35.7 27.3 37.2 L27.3 46.05 Q27.25 46.75 27.65 47.2 28.1 47.55 28.55 47.0 L30.25 44.6 30.75 44.55 30.7 45.2 Q29.9 46.1 29.15 48.2 L28.8 48.95 28.15 48.95 25.05 49.1 24.2 48.85 23.85 48.3 Q23.0 46.75 22.55 46.5 22.15 46.05 22.25 45.85 22.35 45.5 23.15 46.1 L25.05 47.85 Q25.35 48.3 25.7 48.05 L26.0 47.15 26.25 37.0 Q26.15 35.7 26.65 35.7" fill="#000000" fill-rule="evenodd" stroke="none"/>
    </g>
  </defs>
</svg>
