<?xml version="1.0" encoding="UTF-8" standalone="no"?>
<svg xmlns:ffdec="https://www.free-decompiler.com/flash" xmlns:xlink="http://www.w3.org/1999/xlink" ffdec:objectType="frame" height="56.0px" width="56.0px" xmlns="http://www.w3.org/2000/svg">
  <g transform="matrix(1.0, 0.0, 0.0, 1.0, 0.0, 0.0)">
    <use ffdec:characterId="55" ffdec:characterName="54_fla.Symbole162_1" height="56.0" id="back" transform="matrix(1.0, 0.0, 0.0, 1.0, 0.0, 0.0)" width="56.0" xlink:href="#sprite0"/>
    <use ffdec:characterId="57" height="55.55" id="back" transform="matrix(1.0, 0.0, 0.0, 1.0, 4.0, 0.45)" width="48.1" xlink:href="#sprite54"/>
    <use ffdec:characterId="59" height="54.05" id="up" transform="matrix(1.0, 0.0, 0.0, 1.0, 4.7, 1.15)" width="46.6" xlink:href="#sprite55"/>
  </g>
  <defs>
    <g id="sprite0" transform="matrix(1.0, 0.0, 0.0, 1.0, 0.0, 0.0)">
      <use ffdec:characterId="54" ffdec:characterName="54_fla.Symbole159_2" height="56.0" id="back" transform="matrix(1.0, 0.0, 0.0, 1.0, 0.0, 0.0)" width="56.0" xlink:href="#sprite1"/>
    </g>
    <g id="sprite1" transform="matrix(1.0, 0.0, 0.0, 1.0, 0.0, 0.0)">
      <use ffdec:characterId="53" ffdec:characterName="54_fla.Symbole156_3" height="56.0" id="back" transform="matrix(1.0, 0.0, 0.0, 1.0, 0.0, 0.0)" width="56.0" xlink:href="#sprite2"/>
    </g>
    <g id="sprite2" transform="matrix(1.0, 0.0, 0.0, 1.0, 0.0, 0.0)">
      <use ffdec:characterId="52" ffdec:characterName="54_fla.Symbole153_4" height="56.0" id="back" transform="matrix(1.0, 0.0, 0.0, 1.0, 0.0, 0.0)" width="56.0" xlink:href="#sprite3"/>
    </g>
    <g id="sprite3" transform="matrix(1.0, 0.0, 0.0, 1.0, 0.0, 0.0)">
      <use ffdec:characterId="51" ffdec:characterName="54_fla.Symbole150_5" height="56.0" id="back" transform="matrix(1.0, 0.0, 0.0, 1.0, 0.0, 0.0)" width="56.0" xlink:href="#sprite4"/>
    </g>
    <g id="sprite4" transform="matrix(1.0, 0.0, 0.0, 1.0, 0.0, 0.0)">
      <use ffdec:characterId="50" ffdec:characterName="54_fla.Symbole147_6" height="56.0" id="back" transform="matrix(1.0, 0.0, 0.0, 1.0, 0.0, 0.0)" width="56.0" xlink:href="#sprite5"/>
    </g>
    <g id="sprite5" transform="matrix(1.0, 0.0, 0.0, 1.0, 0.0, 0.0)">
      <use ffdec:characterId="49" ffdec:characterName="54_fla.Symbole144_7" height="56.0" id="back" transform="matrix(1.0, 0.0, 0.0, 1.0, 0.0, 0.0)" width="56.0" xlink:href="#sprite6"/>
    </g>
    <g id="sprite6" transform="matrix(1.0, 0.0, 0.0, 1.0, 0.0, 0.0)">
      <use ffdec:characterId="48" ffdec:characterName="54_fla.Symbole141_8" height="56.0" id="back" transform="matrix(1.0, 0.0, 0.0, 1.0, 0.0, 0.0)" width="56.0" xlink:href="#sprite7"/>
    </g>
    <g id="sprite7" transform="matrix(1.0, 0.0, 0.0, 1.0, 0.0, 0.0)">
      <use ffdec:characterId="47" ffdec:characterName="54_fla.Symbole138_9" height="56.0" id="back" transform="matrix(1.0, 0.0, 0.0, 1.0, 0.0, 0.0)" width="56.0" xlink:href="#sprite8"/>
    </g>
    <g id="sprite8" transform="matrix(1.0, 0.0, 0.0, 1.0, 0.0, 0.0)">
      <use ffdec:characterId="46" ffdec:characterName="54_fla.Symbole135_10" height="56.0" id="back" transform="matrix(1.0, 0.0, 0.0, 1.0, 0.0, 0.0)" width="56.0" xlink:href="#sprite9"/>
    </g>
    <g id="sprite9" transform="matrix(1.0, 0.0, 0.0, 1.0, 0.0, 0.0)">
      <use ffdec:characterId="45" ffdec:characterName="54_fla.Symbole132_11" height="56.0" id="back" transform="matrix(1.0, 0.0, 0.0, 1.0, 0.0, 0.0)" width="56.0" xlink:href="#sprite10"/>
    </g>
    <g id="sprite10" transform="matrix(1.0, 0.0, 0.0, 1.0, 0.0, 0.0)">
      <use ffdec:characterId="44" ffdec:characterName="54_fla.Symbole129_12" height="56.0" id="back" transform="matrix(1.0, 0.0, 0.0, 1.0, 0.0, 0.0)" width="56.0" xlink:href="#sprite11"/>
    </g>
    <g id="sprite11" transform="matrix(1.0, 0.0, 0.0, 1.0, 0.0, 0.0)">
      <use ffdec:characterId="43" ffdec:characterName="54_fla.Symbole126_13" height="56.0" id="back" transform="matrix(1.0, 0.0, 0.0, 1.0, 0.0, 0.0)" width="56.0" xlink:href="#sprite12"/>
    </g>
    <g id="sprite12" transform="matrix(1.0, 0.0, 0.0, 1.0, 0.0, 0.0)">
      <use ffdec:characterId="42" ffdec:characterName="54_fla.Symbole123_14" height="56.0" id="back" transform="matrix(1.0, 0.0, 0.0, 1.0, 0.0, 0.0)" width="56.0" xlink:href="#sprite13"/>
    </g>
    <g id="sprite13" transform="matrix(1.0, 0.0, 0.0, 1.0, 0.0, 0.0)">
      <use ffdec:characterId="41" ffdec:characterName="54_fla.Symbole120_15" height="56.0" id="back" transform="matrix(1.0, 0.0, 0.0, 1.0, 0.0, 0.0)" width="56.0" xlink:href="#sprite14"/>
    </g>
    <g id="sprite14" transform="matrix(1.0, 0.0, 0.0, 1.0, 0.0, 0.0)">
      <use ffdec:characterId="40" ffdec:characterName="54_fla.Symbole117_16" height="56.0" id="back" transform="matrix(1.0, 0.0, 0.0, 1.0, 0.0, 0.0)" width="56.0" xlink:href="#sprite15"/>
    </g>
    <g id="sprite15" transform="matrix(1.0, 0.0, 0.0, 1.0, 0.0, 0.0)">
      <use ffdec:characterId="39" ffdec:characterName="54_fla.Symbole114_17" height="56.0" id="back" transform="matrix(1.0, 0.0, 0.0, 1.0, 0.0, 0.0)" width="56.0" xlink:href="#sprite16"/>
    </g>
    <g id="sprite16" transform="matrix(1.0, 0.0, 0.0, 1.0, 0.0, 0.0)">
      <use ffdec:characterId="38" ffdec:characterName="54_fla.Symbole111_18" height="56.0" id="back" transform="matrix(1.0, 0.0, 0.0, 1.0, 0.0, 0.0)" width="56.0" xlink:href="#sprite17"/>
    </g>
    <g id="sprite17" transform="matrix(1.0, 0.0, 0.0, 1.0, 0.0, 0.0)">
      <use ffdec:characterId="37" ffdec:characterName="54_fla.Symbole108_19" height="56.0" id="back" transform="matrix(1.0, 0.0, 0.0, 1.0, 0.0, 0.0)" width="56.0" xlink:href="#sprite18"/>
    </g>
    <g id="sprite18" transform="matrix(1.0, 0.0, 0.0, 1.0, 0.0, 0.0)">
      <use ffdec:characterId="36" ffdec:characterName="54_fla.Symbole105_20" height="56.0" id="back" transform="matrix(1.0, 0.0, 0.0, 1.0, 0.0, 0.0)" width="56.0" xlink:href="#sprite19"/>
    </g>
    <g id="sprite19" transform="matrix(1.0, 0.0, 0.0, 1.0, 0.0, 0.0)">
      <use ffdec:characterId="35" ffdec:characterName="54_fla.Symbole102_21" height="56.0" id="back" transform="matrix(1.0, 0.0, 0.0, 1.0, 0.0, 0.0)" width="56.0" xlink:href="#sprite20"/>
    </g>
    <g id="sprite20" transform="matrix(1.0, 0.0, 0.0, 1.0, 0.0, 0.0)">
      <use ffdec:characterId="34" ffdec:characterName="54_fla.Symbole99_22" height="56.0" id="back" transform="matrix(1.0, 0.0, 0.0, 1.0, 0.0, 0.0)" width="56.0" xlink:href="#sprite21"/>
    </g>
    <g id="sprite21" transform="matrix(1.0, 0.0, 0.0, 1.0, 0.0, 0.0)">
      <use ffdec:characterId="33" ffdec:characterName="54_fla.Symbole96_23" height="56.0" id="back" transform="matrix(1.0, 0.0, 0.0, 1.0, 0.0, 0.0)" width="56.0" xlink:href="#sprite22"/>
    </g>
    <g id="sprite22" transform="matrix(1.0, 0.0, 0.0, 1.0, 0.0, 0.0)">
      <use ffdec:characterId="32" ffdec:characterName="54_fla.Symbole93_24" height="56.0" id="back" transform="matrix(1.0, 0.0, 0.0, 1.0, 0.0, 0.0)" width="56.0" xlink:href="#sprite23"/>
    </g>
    <g id="sprite23" transform="matrix(1.0, 0.0, 0.0, 1.0, 0.0, 0.0)">
      <use ffdec:characterId="31" ffdec:characterName="54_fla.Symbole90_25" height="56.0" id="back" transform="matrix(1.0, 0.0, 0.0, 1.0, 0.0, 0.0)" width="56.0" xlink:href="#sprite24"/>
    </g>
    <g id="sprite24" transform="matrix(1.0, 0.0, 0.0, 1.0, 0.0, 0.0)">
      <use ffdec:characterId="30" ffdec:characterName="54_fla.Symbole87_26" height="56.0" id="back" transform="matrix(1.0, 0.0, 0.0, 1.0, 0.0, 0.0)" width="56.0" xlink:href="#sprite25"/>
    </g>
    <g id="sprite25" transform="matrix(1.0, 0.0, 0.0, 1.0, 0.0, 0.0)">
      <use ffdec:characterId="29" ffdec:characterName="54_fla.Symbole84_27" height="56.0" id="back" transform="matrix(1.0, 0.0, 0.0, 1.0, 0.0, 0.0)" width="56.0" xlink:href="#sprite26"/>
    </g>
    <g id="sprite26" transform="matrix(1.0, 0.0, 0.0, 1.0, 0.0, 0.0)">
      <use ffdec:characterId="28" ffdec:characterName="54_fla.Symbole81_28" height="56.0" id="back" transform="matrix(1.0, 0.0, 0.0, 1.0, 0.0, 0.0)" width="56.0" xlink:href="#sprite27"/>
    </g>
    <g id="sprite27" transform="matrix(1.0, 0.0, 0.0, 1.0, 0.0, 0.0)">
      <use ffdec:characterId="27" ffdec:characterName="54_fla.Symbole78_29" height="56.0" id="back" transform="matrix(1.0, 0.0, 0.0, 1.0, 0.0, 0.0)" width="56.0" xlink:href="#sprite28"/>
    </g>
    <g id="sprite28" transform="matrix(1.0, 0.0, 0.0, 1.0, 0.0, 0.0)">
      <use ffdec:characterId="26" ffdec:characterName="54_fla.Symbole75_30" height="56.0" id="back" transform="matrix(1.0, 0.0, 0.0, 1.0, 0.0, 0.0)" width="56.0" xlink:href="#sprite29"/>
    </g>
    <g id="sprite29" transform="matrix(1.0, 0.0, 0.0, 1.0, 0.0, 0.0)">
      <use ffdec:characterId="25" ffdec:characterName="54_fla.Symbole72_31" height="56.0" id="back" transform="matrix(1.0, 0.0, 0.0, 1.0, 0.0, 0.0)" width="56.0" xlink:href="#sprite30"/>
    </g>
    <g id="sprite30" transform="matrix(1.0, 0.0, 0.0, 1.0, 0.0, 0.0)">
      <use ffdec:characterId="24" ffdec:characterName="54_fla.Symbole69_32" height="56.0" id="back" transform="matrix(1.0, 0.0, 0.0, 1.0, 0.0, 0.0)" width="56.0" xlink:href="#sprite31"/>
    </g>
    <g id="sprite31" transform="matrix(1.0, 0.0, 0.0, 1.0, 0.0, 0.0)">
      <use ffdec:characterId="23" ffdec:characterName="54_fla.Symbole66_33" height="56.0" id="back" transform="matrix(1.0, 0.0, 0.0, 1.0, 0.0, 0.0)" width="56.0" xlink:href="#sprite32"/>
    </g>
    <g id="sprite32" transform="matrix(1.0, 0.0, 0.0, 1.0, 0.0, 0.0)">
      <use ffdec:characterId="22" ffdec:characterName="54_fla.Symbole63_34" height="56.0" id="back" transform="matrix(1.0, 0.0, 0.0, 1.0, 0.0, 0.0)" width="56.0" xlink:href="#sprite33"/>
    </g>
    <g id="sprite33" transform="matrix(1.0, 0.0, 0.0, 1.0, 0.0, 0.0)">
      <use ffdec:characterId="21" ffdec:characterName="54_fla.Symbole60_35" height="56.0" id="back" transform="matrix(1.0, 0.0, 0.0, 1.0, 0.0, 0.0)" width="56.0" xlink:href="#sprite34"/>
    </g>
    <g id="sprite34" transform="matrix(1.0, 0.0, 0.0, 1.0, 0.0, 0.0)">
      <use ffdec:characterId="20" ffdec:characterName="54_fla.Symbole57_36" height="56.0" id="back" transform="matrix(1.0, 0.0, 0.0, 1.0, 0.0, 0.0)" width="56.0" xlink:href="#sprite35"/>
    </g>
    <g id="sprite35" transform="matrix(1.0, 0.0, 0.0, 1.0, 0.0, 0.0)">
      <use ffdec:characterId="19" ffdec:characterName="54_fla.Symbole54_37" height="56.0" id="back" transform="matrix(1.0, 0.0, 0.0, 1.0, 0.0, 0.0)" width="56.0" xlink:href="#sprite36"/>
    </g>
    <g id="sprite36" transform="matrix(1.0, 0.0, 0.0, 1.0, 0.0, 0.0)">
      <use ffdec:characterId="18" ffdec:characterName="54_fla.Symbole51_38" height="56.0" id="back" transform="matrix(1.0, 0.0, 0.0, 1.0, 0.0, 0.0)" width="56.0" xlink:href="#sprite37"/>
    </g>
    <g id="sprite37" transform="matrix(1.0, 0.0, 0.0, 1.0, 0.0, 0.0)">
      <use ffdec:characterId="17" ffdec:characterName="54_fla.Symbole48_39" height="56.0" id="back" transform="matrix(1.0, 0.0, 0.0, 1.0, 0.0, 0.0)" width="56.0" xlink:href="#sprite38"/>
    </g>
    <g id="sprite38" transform="matrix(1.0, 0.0, 0.0, 1.0, 0.0, 0.0)">
      <use ffdec:characterId="16" ffdec:characterName="54_fla.Symbole45_40" height="56.0" id="back" transform="matrix(1.0, 0.0, 0.0, 1.0, 0.0, 0.0)" width="56.0" xlink:href="#sprite39"/>
    </g>
    <g id="sprite39" transform="matrix(1.0, 0.0, 0.0, 1.0, 0.0, 0.0)">
      <use ffdec:characterId="15" ffdec:characterName="54_fla.Symbole42_41" height="56.0" id="back" transform="matrix(1.0, 0.0, 0.0, 1.0, 0.0, 0.0)" width="56.0" xlink:href="#sprite40"/>
    </g>
    <g id="sprite40" transform="matrix(1.0, 0.0, 0.0, 1.0, 0.0, 0.0)">
      <use ffdec:characterId="14" ffdec:characterName="54_fla.Symbole39_42" height="56.0" id="back" transform="matrix(1.0, 0.0, 0.0, 1.0, 0.0, 0.0)" width="56.0" xlink:href="#sprite41"/>
    </g>
    <g id="sprite41" transform="matrix(1.0, 0.0, 0.0, 1.0, 0.0, 0.0)">
      <use ffdec:characterId="13" ffdec:characterName="54_fla.Symbole36_43" height="56.0" id="back" transform="matrix(1.0, 0.0, 0.0, 1.0, 0.0, 0.0)" width="56.0" xlink:href="#sprite42"/>
    </g>
    <g id="sprite42" transform="matrix(1.0, 0.0, 0.0, 1.0, 0.0, 0.0)">
      <use ffdec:characterId="12" ffdec:characterName="54_fla.Symbole33_44" height="56.0" id="back" transform="matrix(1.0, 0.0, 0.0, 1.0, 0.0, 0.0)" width="56.0" xlink:href="#sprite43"/>
    </g>
    <g id="sprite43" transform="matrix(1.0, 0.0, 0.0, 1.0, 0.0, 0.0)">
      <use ffdec:characterId="11" ffdec:characterName="54_fla.Symbole30_45" height="56.0" id="back" transform="matrix(1.0, 0.0, 0.0, 1.0, 0.0, 0.0)" width="56.0" xlink:href="#sprite44"/>
    </g>
    <g id="sprite44" transform="matrix(1.0, 0.0, 0.0, 1.0, 0.0, 0.0)">
      <use ffdec:characterId="10" ffdec:characterName="54_fla.Symbole27_46" height="56.0" id="back" transform="matrix(1.0, 0.0, 0.0, 1.0, 0.0, 0.0)" width="56.0" xlink:href="#sprite45"/>
    </g>
    <g id="sprite45" transform="matrix(1.0, 0.0, 0.0, 1.0, 0.0, 0.0)">
      <use ffdec:characterId="9" ffdec:characterName="54_fla.Symbole24_47" height="56.0" id="back" transform="matrix(1.0, 0.0, 0.0, 1.0, 0.0, 0.0)" width="56.0" xlink:href="#sprite46"/>
    </g>
    <g id="sprite46" transform="matrix(1.0, 0.0, 0.0, 1.0, 0.0, 0.0)">
      <use ffdec:characterId="8" ffdec:characterName="54_fla.Symbole21_48" height="56.0" id="back" transform="matrix(1.0, 0.0, 0.0, 1.0, 0.0, 0.0)" width="56.0" xlink:href="#sprite47"/>
    </g>
    <g id="sprite47" transform="matrix(1.0, 0.0, 0.0, 1.0, 0.0, 0.0)">
      <use ffdec:characterId="7" ffdec:characterName="54_fla.Symbole18_49" height="56.0" id="back" transform="matrix(1.0, 0.0, 0.0, 1.0, 0.0, 0.0)" width="56.0" xlink:href="#sprite48"/>
    </g>
    <g id="sprite48" transform="matrix(1.0, 0.0, 0.0, 1.0, 0.0, 0.0)">
      <use ffdec:characterId="6" ffdec:characterName="54_fla.Symbole15_50" height="56.0" id="back" transform="matrix(1.0, 0.0, 0.0, 1.0, 0.0, 0.0)" width="56.0" xlink:href="#sprite49"/>
    </g>
    <g id="sprite49" transform="matrix(1.0, 0.0, 0.0, 1.0, 0.0, 0.0)">
      <use ffdec:characterId="5" ffdec:characterName="54_fla.Symbole12_51" height="56.0" id="back" transform="matrix(1.0, 0.0, 0.0, 1.0, 0.0, 0.0)" width="56.0" xlink:href="#sprite50"/>
    </g>
    <g id="sprite50" transform="matrix(1.0, 0.0, 0.0, 1.0, 0.0, 0.0)">
      <use ffdec:characterId="4" ffdec:characterName="54_fla.Symbole9_52" height="56.0" id="back" transform="matrix(1.0, 0.0, 0.0, 1.0, 0.0, 0.0)" width="56.0" xlink:href="#sprite51"/>
    </g>
    <g id="sprite51" transform="matrix(1.0, 0.0, 0.0, 1.0, 0.0, 0.0)">
      <use ffdec:characterId="3" ffdec:characterName="54_fla.Symbole6_53" height="56.0" id="back" transform="matrix(1.0, 0.0, 0.0, 1.0, 0.0, 0.0)" width="56.0" xlink:href="#sprite52"/>
    </g>
    <g id="sprite52" transform="matrix(1.0, 0.0, 0.0, 1.0, 0.0, 0.0)">
      <use ffdec:characterId="2" height="56.0" id="back" transform="matrix(1.0, 0.0, 0.0, 1.0, 0.0, 0.0)" width="56.0" xlink:href="#sprite53"/>
    </g>
    <g id="sprite53" transform="matrix(1.0, 0.0, 0.0, 1.0, 0.0, 0.0)">
      <use ffdec:characterId="1" height="56.0" transform="matrix(1.0, 0.0, 0.0, 1.0, 0.0, 0.0)" width="56.0" xlink:href="#shape0"/>
    </g>
    <g id="shape0" transform="matrix(1.0, 0.0, 0.0, 1.0, 0.0, 0.0)">
      <path d="M56.0 56.0 L0.0 56.0 0.0 0.0 56.0 0.0 56.0 56.0" fill="#010101" fill-opacity="0.0" fill-rule="evenodd" stroke="none"/>
    </g>
    <g id="sprite54" transform="matrix(1.0, 0.0, 0.0, 1.0, 0.75, 0.75)">
      <use ffdec:characterId="56" height="55.55" transform="matrix(1.0, 0.0, 0.0, 1.0, -0.75, -0.75)" width="48.1" xlink:href="#shape1"/>
    </g>
    <g id="shape1" transform="matrix(1.0, 0.0, 0.0, 1.0, 0.75, 0.75)">
      <path d="M40.75 4.75 Q41.5 6.0 41.2 7.55 40.95 8.55 40.1 9.2 L38.05 9.65 Q37.05 9.4 36.5 8.65 35.85 7.9 35.85 7.05 33.85 9.05 33.95 13.3 33.95 15.25 34.5 17.45 35.8 22.65 39.25 26.9 42.1 30.45 46.35 32.55 L46.6 33.0 Q46.6 34.95 45.15 37.6 44.45 39.1 43.15 40.55 L39.75 43.0 Q35.15 45.6 30.3 44.3 26.8 43.35 24.8 41.7 L25.25 43.55 Q25.7 45.8 26.95 47.65 28.3 50.15 31.25 52.05 L32.8 52.9 33.7 53.5 33.7 53.8 33.4 54.05 13.15 54.05 12.8 53.8 Q12.7 53.6 12.9 53.5 L13.75 52.9 15.3 52.05 Q18.1 50.15 19.6 47.65 20.7 45.8 21.45 43.55 L21.75 41.7 Q19.6 43.35 16.25 44.3 11.4 45.6 6.9 43.0 4.95 41.9 3.45 40.55 2.15 39.1 1.35 37.6 0.0 34.95 0.0 33.0 0.0 32.6 0.2 32.55 4.4 30.45 7.35 26.9 10.85 22.6 12.1 17.45 L12.55 13.3 Q12.55 8.95 10.65 7.05 10.65 7.9 10.1 8.65 9.5 9.4 8.5 9.65 7.35 9.7 6.55 9.2 5.6 8.55 5.4 7.55 5.0 6.0 5.85 4.75 6.7 3.45 8.2 3.15 9.9 2.55 11.5 3.8 14.5 5.75 15.05 10.55 L15.3 10.8 21.6 10.8 21.75 10.55 21.85 8.2 21.35 8.35 Q20.25 8.35 19.6 7.65 18.95 6.9 18.95 6.0 18.95 4.95 19.6 4.3 20.25 3.65 21.35 3.65 L21.45 3.65 Q21.0 3.0 21.0 2.35 20.9 1.25 21.6 0.65 22.3 0.0 23.3 0.0 24.2 0.0 24.85 0.65 25.5 1.25 25.65 2.35 L25.25 3.65 25.3 3.65 Q26.15 3.65 26.95 4.3 27.6 4.95 27.6 6.0 27.6 6.9 26.95 7.65 26.15 8.35 25.3 8.35 L24.8 8.2 24.8 10.55 24.85 10.8 31.25 10.8 31.5 10.55 Q31.95 5.75 35.0 3.8 36.65 2.55 38.45 3.15 39.9 3.45 40.75 4.75 M42.1 34.8 Q38.8 32.55 36.2 28.85 L35.0 27.15 Q32.65 23.0 31.75 18.05 31.55 16.55 31.5 14.9 L31.25 13.3 31.05 13.15 24.85 13.15 24.8 13.3 24.8 28.5 Q27.25 27.85 29.3 29.4 31.1 30.85 30.65 32.55 30.0 31.75 29.3 31.55 28.0 30.9 26.6 31.75 25.7 32.3 25.4 33.65 25.0 34.8 25.3 35.85 26.4 34.25 28.1 34.5 29.3 34.55 30.0 35.8 30.3 36.5 30.05 37.55 29.75 38.8 28.0 39.45 29.15 40.6 31.95 40.95 35.8 41.25 38.9 38.8 41.2 36.95 42.1 34.8 M21.6 13.15 L15.5 13.15 Q15.3 13.15 15.3 13.3 15.15 13.5 15.15 14.9 L14.75 18.05 Q13.85 23.0 11.5 27.15 L10.35 28.85 Q7.6 32.55 4.4 34.8 5.4 36.95 7.6 38.8 10.8 41.25 14.5 40.95 17.35 40.6 18.55 39.45 16.8 38.8 16.45 37.55 16.2 36.5 16.6 35.8 17.25 34.55 18.4 34.5 20.05 34.25 21.2 35.85 21.55 34.8 21.2 33.65 20.75 32.3 19.9 31.75 18.55 30.9 17.25 31.55 16.05 32.3 15.8 32.55 15.35 30.85 17.35 29.4 19.25 27.85 21.75 28.5 L21.75 13.3 21.6 13.15 Z" fill="none" stroke="#000000" stroke-linecap="round" stroke-linejoin="round" stroke-opacity="0.2" stroke-width="1.5"/>
    </g>
    <g id="sprite55" transform="matrix(1.0, 0.0, 0.0, 1.0, 0.0, 0.0)">
      <use ffdec:characterId="58" height="54.05" transform="matrix(1.0, 0.0, 0.0, 1.0, 0.0, 0.0)" width="46.6" xlink:href="#shape2"/>
    </g>
    <g id="shape2" transform="matrix(1.0, 0.0, 0.0, 1.0, 0.0, 0.0)">
      <path d="M40.8 4.8 Q41.5 6.0 41.2 7.6 41.0 8.6 40.15 9.25 39.15 9.75 38.05 9.7 37.1 9.45 36.55 8.65 35.9 7.95 35.9 7.1 33.9 9.1 33.95 13.35 33.95 15.3 34.55 17.55 35.8 22.7 39.25 26.95 42.15 30.5 46.4 32.6 L46.6 33.0 Q46.6 34.95 45.15 37.65 44.45 39.15 43.15 40.6 L39.75 43.05 Q35.15 45.65 30.3 44.35 26.85 43.4 24.8 41.75 L25.25 43.6 Q25.75 45.85 27.0 47.7 28.35 50.15 31.3 52.1 L32.8 52.95 33.75 53.55 33.75 53.85 33.45 54.05 13.15 54.05 12.8 53.85 Q12.75 53.6 12.95 53.55 L13.8 52.95 15.35 52.1 Q18.15 50.15 19.65 47.7 20.7 45.85 21.45 43.6 L21.8 41.75 Q19.65 43.4 16.25 44.35 11.45 45.65 6.9 43.05 5.0 41.95 3.45 40.6 2.15 39.15 1.4 37.65 0.0 34.95 0.0 33.0 0.0 32.65 0.25 32.6 4.4 30.5 7.4 26.95 10.85 22.65 12.1 17.55 12.55 15.3 12.6 13.35 12.6 9.05 10.65 7.1 10.65 7.95 10.15 8.65 9.5 9.45 8.5 9.7 7.4 9.75 6.55 9.25 5.6 8.6 5.4 7.6 5.05 6.0 5.85 4.8 6.7 3.5 8.2 3.2 9.95 2.6 11.5 3.85 14.55 5.8 15.1 10.6 L15.35 10.85 21.65 10.85 21.8 10.6 21.85 8.25 21.35 8.4 Q20.3 8.4 19.65 7.75 19.0 6.95 19.0 6.0 19.0 5.0 19.65 4.35 20.3 3.7 21.35 3.7 L21.45 3.7 Q21.0 3.05 21.0 2.4 20.95 1.3 21.65 0.65 22.3 0.0 23.3 0.0 24.25 0.0 24.9 0.65 25.55 1.3 25.7 2.4 L25.25 3.7 25.3 3.7 Q26.2 3.7 27.0 4.35 27.6 5.0 27.6 6.0 27.6 6.95 27.0 7.75 26.2 8.4 25.3 8.4 L24.8 8.25 24.8 10.6 24.9 10.85 31.3 10.85 31.5 10.6 Q32.0 5.8 35.05 3.85 36.7 2.6 38.5 3.2 39.9 3.5 40.8 4.8 M36.25 28.9 L35.05 27.2 Q32.65 23.1 31.8 18.1 L31.5 14.95 31.3 13.35 Q31.3 13.2 31.05 13.2 L24.9 13.2 Q24.8 13.2 24.8 13.35 L24.8 28.55 Q27.25 27.9 29.35 29.4 31.15 30.85 30.7 32.6 L29.35 31.6 Q28.05 30.95 26.6 31.8 25.75 32.35 25.45 33.65 25.05 34.8 25.3 35.9 26.4 34.3 28.15 34.55 29.35 34.6 30.0 35.85 30.3 36.55 30.05 37.55 29.8 38.85 28.05 39.5 29.2 40.65 32.0 41.0 35.8 41.3 38.9 38.85 41.2 37.0 42.15 34.8 38.85 32.6 36.25 28.9 M15.55 13.2 L15.35 13.35 Q15.2 13.55 15.2 14.95 L14.75 18.1 Q13.9 23.1 11.5 27.2 L10.35 28.9 Q7.65 32.6 4.4 34.8 5.4 37.0 7.65 38.85 10.8 41.3 14.55 41.0 17.35 40.65 18.55 39.5 16.85 38.85 16.5 37.55 16.2 36.55 16.6 35.85 17.25 34.6 18.4 34.55 20.1 34.3 21.25 35.9 21.6 34.8 21.25 33.65 20.8 32.35 19.95 31.8 18.55 30.95 17.25 31.6 L15.85 32.6 Q15.4 30.85 17.35 29.4 19.3 27.9 21.8 28.55 L21.8 13.35 21.65 13.2 15.55 13.2" fill="#000000" fill-rule="evenodd" stroke="none"/>
    </g>
  </defs>
</svg>
