<?xml version="1.0" encoding="UTF-8" standalone="no"?>
<svg xmlns:ffdec="https://www.free-decompiler.com/flash" xmlns:xlink="http://www.w3.org/1999/xlink" ffdec:objectType="frame" height="56.0px" width="56.0px" xmlns="http://www.w3.org/2000/svg">
  <g transform="matrix(1.0, 0.0, 0.0, 1.0, 0.0, 0.0)">
    <use ffdec:characterId="7" ffdec:characterName="6_fla.Symbole18_1" height="56.0" id="back" transform="matrix(1.0, 0.0, 0.0, 1.0, 0.0, 0.0)" width="56.0" xlink:href="#sprite0"/>
    <use ffdec:characterId="9" height="55.55" id="back" transform="matrix(1.0, 0.0, 0.0, 1.0, 0.4, 0.45)" width="55.4" xlink:href="#sprite6"/>
    <use ffdec:characterId="11" height="54.05" id="up" transform="matrix(1.0, 0.0, 0.0, 1.0, 1.15, 1.2)" width="53.9" xlink:href="#sprite7"/>
  </g>
  <defs>
    <g id="sprite0" transform="matrix(1.0, 0.0, 0.0, 1.0, 0.0, 0.0)">
      <use ffdec:characterId="6" ffdec:characterName="6_fla.Symbole15_2" height="56.0" id="back" transform="matrix(1.0, 0.0, 0.0, 1.0, 0.0, 0.0)" width="56.0" xlink:href="#sprite1"/>
    </g>
    <g id="sprite1" transform="matrix(1.0, 0.0, 0.0, 1.0, 0.0, 0.0)">
      <use ffdec:characterId="5" ffdec:characterName="6_fla.Symbole12_3" height="56.0" id="back" transform="matrix(1.0, 0.0, 0.0, 1.0, 0.0, 0.0)" width="56.0" xlink:href="#sprite2"/>
    </g>
    <g id="sprite2" transform="matrix(1.0, 0.0, 0.0, 1.0, 0.0, 0.0)">
      <use ffdec:characterId="4" ffdec:characterName="6_fla.Symbole9_4" height="56.0" id="back" transform="matrix(1.0, 0.0, 0.0, 1.0, 0.0, 0.0)" width="56.0" xlink:href="#sprite3"/>
    </g>
    <g id="sprite3" transform="matrix(1.0, 0.0, 0.0, 1.0, 0.0, 0.0)">
      <use ffdec:characterId="3" ffdec:characterName="6_fla.Symbole6_5" height="56.0" id="back" transform="matrix(1.0, 0.0, 0.0, 1.0, 0.0, 0.0)" width="56.0" xlink:href="#sprite4"/>
    </g>
    <g id="sprite4" transform="matrix(1.0, 0.0, 0.0, 1.0, 0.0, 0.0)">
      <use ffdec:characterId="2" height="56.0" id="back" transform="matrix(1.0, 0.0, 0.0, 1.0, 0.0, 0.0)" width="56.0" xlink:href="#sprite5"/>
    </g>
    <g id="sprite5" transform="matrix(1.0, 0.0, 0.0, 1.0, 0.0, 0.0)">
      <use ffdec:characterId="1" height="56.0" transform="matrix(1.0, 0.0, 0.0, 1.0, 0.0, 0.0)" width="56.0" xlink:href="#shape0"/>
    </g>
    <g id="shape0" transform="matrix(1.0, 0.0, 0.0, 1.0, 0.0, 0.0)">
      <path d="M56.0 56.0 L0.0 56.0 0.0 0.0 56.0 0.0 56.0 56.0" fill="#010101" fill-opacity="0.0" fill-rule="evenodd" stroke="none"/>
    </g>
    <g id="sprite6" transform="matrix(1.0, 0.0, 0.0, 1.0, 0.75, 0.75)">
      <use ffdec:characterId="8" height="55.55" transform="matrix(1.0, 0.0, 0.0, 1.0, -0.75, -0.75)" width="55.4" xlink:href="#shape1"/>
    </g>
    <g id="shape1" transform="matrix(1.0, 0.0, 0.0, 1.0, 0.75, 0.75)">
      <path d="M42.95 21.6 Q36.8 23.25 30.4 23.55 30.8 17.2 32.35 11.0 L33.8 6.05 28.4 6.05 Q29.55 5.75 30.4 4.85 31.25 4.1 31.3 3.15 31.25 1.75 30.0 0.85 28.7 0.0 26.95 0.0 25.25 0.0 23.95 0.85 22.8 1.75 22.8 3.15 22.8 4.1 23.55 4.85 24.3 5.75 25.6 6.05 L20.2 6.05 21.7 11.0 Q23.25 17.2 23.55 23.55 17.2 23.25 11.0 21.6 7.95 20.9 6.05 20.05 L6.05 25.6 Q5.8 24.3 4.95 23.55 4.15 22.65 3.2 22.65 1.9 22.65 0.85 24.0 0.0 25.2 0.0 27.0 0.0 28.75 0.85 30.0 1.9 31.25 3.2 31.25 4.15 31.25 4.95 30.45 5.8 29.55 6.05 28.45 L6.05 33.85 Q7.95 33.05 11.0 32.3 17.2 30.85 23.55 30.45 23.25 36.85 21.7 43.0 L20.2 47.95 25.6 47.95 Q24.3 48.35 23.55 49.05 22.8 49.85 22.8 50.95 22.65 52.2 23.95 53.05 25.15 53.95 26.95 54.05 28.7 53.95 30.0 53.05 31.25 52.2 31.25 50.95 31.25 49.85 30.4 49.05 29.55 48.2 28.4 47.95 L33.8 47.95 32.35 43.0 Q30.8 36.85 30.4 30.45 36.8 30.85 42.95 32.3 46.1 33.05 47.9 33.85 L47.9 28.45 Q48.2 29.55 48.95 30.45 49.8 31.25 50.8 31.25 52.1 31.25 53.1 30.0 53.9 28.75 53.9 27.0 53.9 25.2 53.1 24.0 52.1 22.65 50.8 22.8 49.8 22.8 48.95 23.55 48.2 24.3 47.9 25.6 L47.9 20.05 Q46.1 20.9 42.95 21.6 Z" fill="none" stroke="#000000" stroke-linecap="round" stroke-linejoin="round" stroke-opacity="0.2" stroke-width="1.5"/>
    </g>
    <g id="sprite7" transform="matrix(1.0, 0.0, 0.0, 1.0, 0.0, 0.0)">
      <use ffdec:characterId="10" height="54.05" transform="matrix(1.0, 0.0, 0.0, 1.0, 0.0, 0.0)" width="53.9" xlink:href="#shape2"/>
    </g>
    <g id="shape2" transform="matrix(1.0, 0.0, 0.0, 1.0, 0.0, 0.0)">
      <path d="M42.95 21.6 Q46.1 20.9 47.9 20.05 L47.9 25.6 Q48.2 24.3 48.95 23.55 49.8 22.8 50.8 22.8 52.1 22.65 53.1 24.0 53.9 25.2 53.9 27.0 53.9 28.75 53.1 30.0 52.1 31.25 50.8 31.25 49.8 31.25 48.95 30.45 48.2 29.55 47.9 28.45 L47.9 33.85 Q46.1 33.05 42.95 32.3 36.8 30.85 30.4 30.45 30.8 36.85 32.35 43.0 L33.8 47.95 28.4 47.95 Q29.55 48.2 30.4 49.05 31.25 49.85 31.25 50.95 31.25 52.2 30.0 53.05 28.7 53.95 26.95 54.05 25.15 53.95 23.95 53.05 22.65 52.2 22.8 50.95 22.8 49.85 23.55 49.05 24.3 48.35 25.6 47.95 L20.2 47.95 21.7 43.0 Q23.25 36.85 23.55 30.45 17.2 30.85 11.0 32.3 7.95 33.05 6.05 33.85 L6.05 28.45 Q5.8 29.55 4.95 30.45 4.15 31.25 3.2 31.25 1.9 31.25 0.85 30.0 0.0 28.75 0.0 27.0 0.0 25.2 0.85 24.0 1.9 22.65 3.2 22.65 4.15 22.65 4.95 23.55 5.8 24.3 6.05 25.6 L6.05 20.05 Q7.95 20.9 11.0 21.6 17.2 23.25 23.55 23.55 23.25 17.2 21.7 11.0 L20.2 6.05 25.6 6.05 Q24.3 5.75 23.55 4.85 22.8 4.1 22.8 3.15 22.8 1.75 23.95 0.85 25.25 0.0 26.95 0.0 28.7 0.0 30.0 0.85 31.25 1.75 31.3 3.15 31.25 4.1 30.4 4.85 29.55 5.75 28.4 6.05 L33.8 6.05 32.35 11.0 Q30.8 17.2 30.4 23.55 36.8 23.25 42.95 21.6" fill="#000000" fill-rule="evenodd" stroke="none"/>
    </g>
  </defs>
</svg>
