<?xml version="1.0" encoding="UTF-8" standalone="no"?>
<svg xmlns:ffdec="https://www.free-decompiler.com/flash" xmlns:xlink="http://www.w3.org/1999/xlink" ffdec:objectType="frame" height="56.0px" width="56.0px" xmlns="http://www.w3.org/2000/svg">
  <g transform="matrix(1.0, 0.0, 0.0, 1.0, 0.0, 0.0)">
    <use ffdec:characterId="8" ffdec:characterName="7_fla.Symbole21_1" height="56.0" id="back" transform="matrix(1.0, 0.0, 0.0, 1.0, 0.0, 0.0)" width="56.0" xlink:href="#sprite0"/>
    <use ffdec:characterId="10" height="55.55" id="back" transform="matrix(1.0, 0.0, 0.0, 1.0, 4.25, 0.45)" width="48.2" xlink:href="#sprite7"/>
    <use ffdec:characterId="12" height="54.05" id="up" transform="matrix(1.0, 0.0, 0.0, 1.0, 5.0, 1.2)" width="46.7" xlink:href="#sprite8"/>
  </g>
  <defs>
    <g id="sprite0" transform="matrix(1.0, 0.0, 0.0, 1.0, 0.0, 0.0)">
      <use ffdec:characterId="7" ffdec:characterName="7_fla.Symbole18_2" height="56.0" id="back" transform="matrix(1.0, 0.0, 0.0, 1.0, 0.0, 0.0)" width="56.0" xlink:href="#sprite1"/>
    </g>
    <g id="sprite1" transform="matrix(1.0, 0.0, 0.0, 1.0, 0.0, 0.0)">
      <use ffdec:characterId="6" ffdec:characterName="7_fla.Symbole15_3" height="56.0" id="back" transform="matrix(1.0, 0.0, 0.0, 1.0, 0.0, 0.0)" width="56.0" xlink:href="#sprite2"/>
    </g>
    <g id="sprite2" transform="matrix(1.0, 0.0, 0.0, 1.0, 0.0, 0.0)">
      <use ffdec:characterId="5" ffdec:characterName="7_fla.Symbole12_4" height="56.0" id="back" transform="matrix(1.0, 0.0, 0.0, 1.0, 0.0, 0.0)" width="56.0" xlink:href="#sprite3"/>
    </g>
    <g id="sprite3" transform="matrix(1.0, 0.0, 0.0, 1.0, 0.0, 0.0)">
      <use ffdec:characterId="4" ffdec:characterName="7_fla.Symbole9_5" height="56.0" id="back" transform="matrix(1.0, 0.0, 0.0, 1.0, 0.0, 0.0)" width="56.0" xlink:href="#sprite4"/>
    </g>
    <g id="sprite4" transform="matrix(1.0, 0.0, 0.0, 1.0, 0.0, 0.0)">
      <use ffdec:characterId="3" ffdec:characterName="7_fla.Symbole6_6" height="56.0" id="back" transform="matrix(1.0, 0.0, 0.0, 1.0, 0.0, 0.0)" width="56.0" xlink:href="#sprite5"/>
    </g>
    <g id="sprite5" transform="matrix(1.0, 0.0, 0.0, 1.0, 0.0, 0.0)">
      <use ffdec:characterId="2" height="56.0" id="back" transform="matrix(1.0, 0.0, 0.0, 1.0, 0.0, 0.0)" width="56.0" xlink:href="#sprite6"/>
    </g>
    <g id="sprite6" transform="matrix(1.0, 0.0, 0.0, 1.0, 0.0, 0.0)">
      <use ffdec:characterId="1" height="56.0" transform="matrix(1.0, 0.0, 0.0, 1.0, 0.0, 0.0)" width="56.0" xlink:href="#shape0"/>
    </g>
    <g id="shape0" transform="matrix(1.0, 0.0, 0.0, 1.0, 0.0, 0.0)">
      <path d="M56.0 56.0 L0.0 56.0 0.0 0.0 56.0 0.0 56.0 56.0" fill="#010101" fill-opacity="0.0" fill-rule="evenodd" stroke="none"/>
    </g>
    <g id="sprite7" transform="matrix(1.0, 0.0, 0.0, 1.0, 0.75, 0.75)">
      <use ffdec:characterId="9" height="55.55" transform="matrix(1.0, 0.0, 0.0, 1.0, -0.75, -0.75)" width="48.2" xlink:href="#shape1"/>
    </g>
    <g id="shape1" transform="matrix(1.0, 0.0, 0.0, 1.0, 0.75, 0.75)">
      <path d="M39.3 27.7 L36.2 33.15 37.15 35.05 19.55 35.05 22.75 40.55 46.7 40.45 39.3 27.7 M23.9 13.45 L0.0 13.45 7.4 26.15 10.45 20.65 9.5 18.9 27.1 18.9 23.9 13.45 M23.4 0.0 L16.05 12.7 22.4 12.7 23.4 10.95 32.15 26.15 35.3 20.75 23.4 0.0 M35.2 18.9 L37.3 18.9 28.4 34.2 34.7 34.2 46.7 13.45 32.1 13.45 35.2 18.9 M11.45 33.3 L23.4 54.05 30.75 41.2 24.35 41.2 23.4 43.1 14.6 27.85 11.45 33.3 M9.5 35.05 L18.25 19.65 11.95 19.65 0.0 40.45 14.75 40.45 11.5 35.05 9.5 35.05 Z" fill="none" stroke="#000000" stroke-linecap="round" stroke-linejoin="round" stroke-opacity="0.2" stroke-width="1.5"/>
    </g>
    <g id="sprite8" transform="matrix(1.0, 0.0, 0.0, 1.0, 0.0, 0.0)">
      <use ffdec:characterId="11" height="54.05" transform="matrix(1.0, 0.0, 0.0, 1.0, 0.0, 0.0)" width="46.7" xlink:href="#shape2"/>
    </g>
    <g id="shape2" transform="matrix(1.0, 0.0, 0.0, 1.0, 0.0, 0.0)">
      <path d="M11.5 35.05 L14.75 40.45 0.0 40.45 11.95 19.65 18.25 19.65 9.5 35.05 11.5 35.05 M11.45 33.3 L14.6 27.85 23.4 43.1 24.35 41.2 30.75 41.2 23.4 54.05 11.45 33.3 M35.2 18.9 L32.1 13.45 46.7 13.45 34.7 34.2 28.4 34.2 37.3 18.9 35.2 18.9 M23.9 13.45 L27.1 18.9 9.5 18.9 10.45 20.65 7.4 26.15 0.0 13.45 23.9 13.45 M22.4 12.7 L16.05 12.7 23.4 0.0 35.3 20.75 32.15 26.15 23.4 10.95 22.4 12.7 M39.3 27.7 L46.7 40.45 22.75 40.55 19.55 35.05 37.15 35.05 36.2 33.15 39.3 27.7" fill="#000000" fill-rule="evenodd" stroke="none"/>
    </g>
  </defs>
</svg>
