<?xml version="1.0" encoding="UTF-8" standalone="no"?>
<svg xmlns:ffdec="https://www.free-decompiler.com/flash" xmlns:xlink="http://www.w3.org/1999/xlink" ffdec:objectType="frame" height="56.0px" width="56.0px" xmlns="http://www.w3.org/2000/svg">
  <g transform="matrix(1.0, 0.0, 0.0, 1.0, 0.0, 0.0)">
    <use ffdec:characterId="9" ffdec:characterName="8_fla.Symbole24_1" height="56.0" id="back" transform="matrix(1.0, 0.0, 0.0, 1.0, 0.0, 0.0)" width="56.0" xlink:href="#sprite0"/>
    <use ffdec:characterId="11" height="55.45" id="back" transform="matrix(1.0, 0.0, 0.0, 1.0, 0.4, 0.45)" width="55.4" xlink:href="#sprite8"/>
    <use ffdec:characterId="13" height="53.95" id="up" transform="matrix(1.0, 0.0, 0.0, 1.0, 1.15, 1.2)" width="53.9" xlink:href="#sprite9"/>
  </g>
  <defs>
    <g id="sprite0" transform="matrix(1.0, 0.0, 0.0, 1.0, 0.0, 0.0)">
      <use ffdec:characterId="8" ffdec:characterName="8_fla.Symbole21_2" height="56.0" id="back" transform="matrix(1.0, 0.0, 0.0, 1.0, 0.0, 0.0)" width="56.0" xlink:href="#sprite1"/>
    </g>
    <g id="sprite1" transform="matrix(1.0, 0.0, 0.0, 1.0, 0.0, 0.0)">
      <use ffdec:characterId="7" ffdec:characterName="8_fla.Symbole18_3" height="56.0" id="back" transform="matrix(1.0, 0.0, 0.0, 1.0, 0.0, 0.0)" width="56.0" xlink:href="#sprite2"/>
    </g>
    <g id="sprite2" transform="matrix(1.0, 0.0, 0.0, 1.0, 0.0, 0.0)">
      <use ffdec:characterId="6" ffdec:characterName="8_fla.Symbole15_4" height="56.0" id="back" transform="matrix(1.0, 0.0, 0.0, 1.0, 0.0, 0.0)" width="56.0" xlink:href="#sprite3"/>
    </g>
    <g id="sprite3" transform="matrix(1.0, 0.0, 0.0, 1.0, 0.0, 0.0)">
      <use ffdec:characterId="5" ffdec:characterName="8_fla.Symbole12_5" height="56.0" id="back" transform="matrix(1.0, 0.0, 0.0, 1.0, 0.0, 0.0)" width="56.0" xlink:href="#sprite4"/>
    </g>
    <g id="sprite4" transform="matrix(1.0, 0.0, 0.0, 1.0, 0.0, 0.0)">
      <use ffdec:characterId="4" ffdec:characterName="8_fla.Symbole9_6" height="56.0" id="back" transform="matrix(1.0, 0.0, 0.0, 1.0, 0.0, 0.0)" width="56.0" xlink:href="#sprite5"/>
    </g>
    <g id="sprite5" transform="matrix(1.0, 0.0, 0.0, 1.0, 0.0, 0.0)">
      <use ffdec:characterId="3" ffdec:characterName="8_fla.Symbole6_7" height="56.0" id="back" transform="matrix(1.0, 0.0, 0.0, 1.0, 0.0, 0.0)" width="56.0" xlink:href="#sprite6"/>
    </g>
    <g id="sprite6" transform="matrix(1.0, 0.0, 0.0, 1.0, 0.0, 0.0)">
      <use ffdec:characterId="2" height="56.0" id="back" transform="matrix(1.0, 0.0, 0.0, 1.0, 0.0, 0.0)" width="56.0" xlink:href="#sprite7"/>
    </g>
    <g id="sprite7" transform="matrix(1.0, 0.0, 0.0, 1.0, 0.0, 0.0)">
      <use ffdec:characterId="1" height="56.0" transform="matrix(1.0, 0.0, 0.0, 1.0, 0.0, 0.0)" width="56.0" xlink:href="#shape0"/>
    </g>
    <g id="shape0" transform="matrix(1.0, 0.0, 0.0, 1.0, 0.0, 0.0)">
      <path d="M56.0 56.0 L0.0 56.0 0.0 0.0 56.0 0.0 56.0 56.0" fill="#010101" fill-opacity="0.0" fill-rule="evenodd" stroke="none"/>
    </g>
    <g id="sprite8" transform="matrix(1.0, 0.0, 0.0, 1.0, 0.75, 0.75)">
      <use ffdec:characterId="10" height="55.45" transform="matrix(1.0, 0.0, 0.0, 1.0, -0.75, -0.75)" width="55.4" xlink:href="#shape1"/>
    </g>
    <g id="shape1" transform="matrix(1.0, 0.0, 0.0, 1.0, 0.75, 0.75)">
      <path d="M41.7 8.2 Q38.75 9.95 37.85 13.0 37.6 13.85 37.0 14.15 L35.95 14.05 Q35.65 13.85 35.65 13.4 35.65 12.75 36.15 12.1 36.95 11.0 37.0 9.15 37.15 6.9 36.1 5.45 35.1 4.35 35.1 5.7 35.1 7.2 34.45 8.2 33.95 8.95 32.85 9.35 31.45 10.05 31.0 11.3 L30.5 11.95 Q30.15 12.1 29.95 11.7 29.5 11.45 29.65 10.55 29.65 9.6 30.25 8.65 31.35 6.75 30.8 4.2 30.25 1.75 28.8 0.45 27.95 -0.2 27.9 0.1 27.65 0.25 27.75 0.9 27.9 3.05 27.5 4.35 27.05 5.4 25.75 6.55 24.3 7.85 24.0 9.05 23.8 9.8 24.25 11.0 24.45 11.7 23.85 11.7 23.45 11.85 23.4 11.0 23.0 9.6 21.7 8.45 20.45 7.35 20.9 5.2 21.05 4.4 20.8 4.4 20.45 4.35 20.0 4.8 19.3 5.25 18.85 6.3 18.2 7.6 18.3 8.95 18.45 10.65 19.75 12.1 20.35 12.85 19.8 13.4 L18.85 13.25 18.05 12.4 Q17.55 10.65 16.7 10.05 15.7 9.3 13.65 9.05 10.25 8.75 8.55 5.7 8.1 4.8 7.65 4.95 7.2 5.05 7.0 6.05 6.35 9.15 8.3 11.95 9.85 14.55 13.05 15.95 13.75 16.25 14.1 16.85 14.35 17.35 14.1 17.95 13.5 18.8 12.05 17.8 11.1 17.1 9.25 16.95 7.0 16.7 5.5 17.8 4.3 18.8 5.75 18.8 8.5 18.8 9.4 21.05 10.1 22.9 11.3 23.2 12.2 23.4 11.95 24.0 11.75 24.5 10.95 24.2 L9.0 24.05 Q7.85 24.25 6.65 25.75 L4.3 27.5 1.05 27.9 Q0.2 27.75 0.1 27.9 -0.25 28.1 0.4 28.8 1.7 30.3 4.2 30.9 6.8 31.3 8.55 30.3 9.6 29.65 10.55 29.65 11.3 29.6 11.75 30.0 12.05 30.25 11.95 30.55 L11.3 30.75 Q9.85 30.75 8.35 32.3 7.2 33.5 5.3 33.05 4.5 32.9 4.45 33.3 4.3 33.5 4.7 33.9 5.3 34.65 6.35 35.05 7.65 35.65 8.95 35.65 10.9 35.5 12.05 34.35 12.35 34.0 12.65 34.0 13.1 33.9 13.5 34.35 13.65 34.65 13.25 35.2 12.9 35.65 12.35 35.85 10.7 36.4 10.0 37.4 9.25 38.25 9.0 40.25 8.7 43.7 5.8 45.35 4.9 45.8 5.05 46.3 5.05 46.75 6.0 46.95 9.15 47.5 11.95 45.65 14.55 43.95 15.95 40.9 16.25 40.2 16.75 39.95 17.35 39.6 17.85 39.95 18.7 40.4 17.75 41.9 17.0 42.85 16.9 44.75 16.7 46.95 17.85 48.5 18.7 49.7 18.7 48.25 18.7 46.75 19.35 45.9 19.9 45.15 21.05 44.6 22.55 43.7 22.95 42.4 23.0 41.9 23.4 41.9 23.7 41.9 24.0 42.2 24.3 42.55 24.25 43.4 L23.6 45.35 Q22.5 47.1 23.0 49.75 23.45 52.3 25.1 53.6 25.75 54.1 26.05 53.9 L26.2 53.0 Q26.0 50.85 26.35 49.7 26.8 48.65 28.1 47.4 29.65 46.05 29.95 44.9 30.15 44.1 29.7 43.0 29.4 42.35 29.95 42.2 30.35 42.1 30.55 43.0 31.0 44.9 32.2 45.8 33.5 46.65 32.9 48.8 32.75 49.45 33.15 49.55 33.35 49.7 33.95 49.25 L35.1 47.6 Q35.65 46.3 35.5 45.0 35.45 43.1 34.2 41.9 33.8 41.55 33.8 41.1 33.8 40.8 34.15 40.65 L35.1 40.8 35.75 41.55 Q36.3 43.25 37.25 43.95 38.1 44.6 40.2 44.9 43.65 45.2 45.4 48.25 45.8 49.05 46.2 49.05 46.65 48.9 46.85 47.95 47.5 44.7 45.65 41.8 43.85 39.0 40.9 37.8 39.0 37.0 39.6 36.1 39.85 35.65 40.45 35.65 41.05 35.65 41.75 36.15 42.8 36.95 44.7 37.0 46.85 37.25 48.35 36.15 49.5 35.2 48.15 35.2 45.4 35.05 44.5 32.9 L43.85 31.6 Q43.4 30.95 42.65 30.7 41.75 30.3 41.95 30.0 41.95 29.6 42.85 29.8 44.1 30.0 45.0 29.8 L47.3 28.15 Q48.45 26.85 49.5 26.45 L52.9 26.15 53.85 26.15 Q54.05 25.75 53.4 25.15 52.1 23.55 49.65 23.1 47.05 22.55 45.25 23.65 L43.25 24.25 42.1 24.0 Q41.75 23.65 41.9 23.4 L42.65 23.2 Q44.15 23.2 45.4 21.9 45.85 21.25 46.85 20.95 47.8 20.6 48.65 20.95 49.35 21.2 49.45 20.8 L49.25 20.05 Q48.6 19.3 47.5 18.85 46.2 18.25 45.0 18.4 43.0 18.45 41.75 19.75 L40.9 19.9 Q40.3 19.9 40.45 19.45 40.45 18.45 41.55 18.15 43.2 17.5 43.85 16.65 44.55 15.65 44.8 13.7 45.15 10.25 48.15 8.65 48.9 8.05 48.9 7.6 48.8 7.2 47.8 7.0 44.55 6.3 41.7 8.2 M19.15 19.1 Q15.85 22.35 15.95 27.0 15.85 31.6 19.15 34.85 22.4 38.1 26.9 38.1 31.55 38.1 34.8 34.85 38.0 31.6 38.0 27.0 38.0 22.35 34.8 19.1 31.55 15.8 26.9 15.8 22.3 15.8 19.15 19.1 M36.1 17.8 Q39.85 21.6 39.85 27.0 39.85 32.4 36.1 36.15 32.3 39.95 26.9 39.95 21.5 39.95 17.75 36.15 13.95 32.4 13.95 27.0 13.95 21.6 17.75 17.8 21.5 14.05 26.9 14.05 32.3 14.05 36.1 17.8 Z" fill="none" stroke="#000000" stroke-linecap="round" stroke-linejoin="round" stroke-opacity="0.2" stroke-width="1.5"/>
    </g>
    <g id="sprite9" transform="matrix(1.0, 0.0, 0.0, 1.0, 0.0, 0.0)">
      <use ffdec:characterId="12" height="53.95" transform="matrix(1.0, 0.0, 0.0, 1.0, 0.0, 0.0)" width="53.9" xlink:href="#shape2"/>
    </g>
    <g id="shape2" transform="matrix(1.0, 0.0, 0.0, 1.0, 0.0, 0.0)">
      <path d="M36.1 17.8 Q32.3 14.05 26.9 14.05 21.5 14.05 17.75 17.8 13.95 21.6 13.95 27.0 13.95 32.4 17.75 36.15 21.5 39.95 26.9 39.95 32.3 39.95 36.1 36.15 39.85 32.4 39.85 27.0 39.85 21.6 36.1 17.8 M19.15 19.1 Q22.3 15.8 26.9 15.8 31.55 15.8 34.8 19.1 38.0 22.35 38.0 27.0 38.0 31.6 34.8 34.85 31.55 38.1 26.9 38.1 22.4 38.1 19.15 34.85 15.85 31.6 15.95 27.0 15.85 22.35 19.15 19.1 M41.7 8.2 Q44.55 6.3 47.8 7.0 48.8 7.2 48.9 7.6 48.9 8.05 48.15 8.65 45.15 10.25 44.8 13.7 44.55 15.65 43.85 16.65 43.2 17.5 41.55 18.15 40.45 18.45 40.45 19.45 40.3 19.9 40.9 19.9 L41.75 19.75 Q43.0 18.45 45.0 18.4 46.2 18.25 47.5 18.85 48.6 19.3 49.25 20.05 L49.45 20.8 Q49.35 21.2 48.65 20.95 47.8 20.6 46.85 20.95 45.85 21.25 45.4 21.9 44.15 23.2 42.65 23.2 L41.9 23.4 Q41.75 23.65 42.1 24.0 L43.25 24.25 45.25 23.65 Q47.05 22.55 49.65 23.1 52.1 23.55 53.4 25.15 54.05 25.75 53.85 26.15 L52.9 26.15 49.5 26.45 Q48.45 26.85 47.3 28.15 L45.0 29.8 Q44.1 30.0 42.85 29.8 41.95 29.6 41.95 30.0 41.75 30.3 42.65 30.7 43.4 30.95 43.85 31.6 L44.5 32.9 Q45.4 35.05 48.15 35.2 49.5 35.2 48.35 36.15 46.85 37.25 44.7 37.0 42.8 36.95 41.75 36.15 41.05 35.65 40.45 35.65 39.85 35.65 39.6 36.1 39.0 37.0 40.9 37.8 43.85 39.0 45.65 41.8 47.5 44.7 46.85 47.95 46.65 48.9 46.2 49.05 45.8 49.05 45.4 48.25 43.65 45.2 40.2 44.9 38.1 44.6 37.25 43.95 36.3 43.25 35.75 41.55 L35.1 40.8 34.15 40.65 Q33.8 40.8 33.8 41.1 33.8 41.55 34.2 41.9 35.45 43.1 35.5 45.0 35.65 46.3 35.1 47.6 L33.95 49.25 Q33.35 49.7 33.15 49.55 32.75 49.45 32.9 48.8 33.5 46.65 32.2 45.8 31.0 44.9 30.55 43.0 30.35 42.1 29.95 42.2 29.4 42.35 29.7 43.0 30.15 44.1 29.95 44.9 29.65 46.05 28.1 47.4 26.8 48.65 26.35 49.7 26.0 50.85 26.2 53.0 L26.05 53.9 Q25.75 54.1 25.1 53.6 23.45 52.3 23.0 49.75 22.5 47.1 23.6 45.35 L24.25 43.4 Q24.3 42.55 24.0 42.2 23.7 41.9 23.4 41.9 23.0 41.9 22.95 42.4 22.55 43.7 21.05 44.6 19.9 45.15 19.35 45.9 18.7 46.75 18.7 48.25 18.7 49.7 17.85 48.5 16.7 46.95 16.9 44.75 17.0 42.85 17.75 41.9 18.7 40.4 17.85 39.95 17.35 39.6 16.75 39.95 16.25 40.2 15.95 40.9 14.55 43.95 11.95 45.65 9.15 47.5 6.0 46.95 5.05 46.75 5.05 46.3 4.9 45.8 5.8 45.35 8.7 43.7 9.0 40.25 9.25 38.25 10.0 37.4 10.7 36.4 12.35 35.85 12.9 35.65 13.25 35.2 13.65 34.65 13.5 34.35 13.1 33.9 12.65 34.0 12.35 34.0 12.05 34.35 10.9 35.5 8.95 35.65 7.65 35.65 6.35 35.05 5.3 34.65 4.7 33.9 4.3 33.5 4.45 33.3 4.5 32.9 5.3 33.05 7.2 33.5 8.35 32.3 9.85 30.75 11.3 30.75 L11.95 30.55 Q12.05 30.25 11.75 30.0 11.3 29.6 10.55 29.65 9.6 29.65 8.55 30.3 6.8 31.3 4.2 30.9 1.7 30.3 0.4 28.8 -0.25 28.1 0.1 27.9 0.2 27.75 1.05 27.9 L4.3 27.5 6.65 25.75 Q7.85 24.25 9.0 24.05 L10.95 24.2 Q11.75 24.5 11.95 24.0 12.2 23.4 11.3 23.2 10.1 22.9 9.4 21.05 8.5 18.8 5.75 18.8 4.3 18.8 5.5 17.8 7.0 16.7 9.25 16.95 11.1 17.1 12.05 17.8 13.5 18.8 14.1 17.95 14.35 17.35 14.1 16.85 13.75 16.25 13.05 15.95 9.85 14.55 8.3 11.95 6.35 9.15 7.0 6.05 7.2 5.05 7.65 4.95 8.1 4.8 8.55 5.7 10.25 8.75 13.65 9.05 15.7 9.3 16.7 10.05 17.55 10.65 18.05 12.4 L18.85 13.25 19.8 13.4 Q20.35 12.85 19.75 12.1 18.45 10.65 18.3 8.95 18.2 7.6 18.85 6.3 19.3 5.25 20.0 4.8 20.45 4.35 20.8 4.4 21.05 4.4 20.9 5.2 20.45 7.35 21.7 8.45 23.0 9.6 23.4 11.0 23.45 11.85 23.85 11.7 24.45 11.7 24.25 11.0 23.8 9.8 24.0 9.05 24.3 7.85 25.75 6.55 27.05 5.4 27.5 4.35 27.9 3.05 27.75 0.9 27.65 0.25 27.9 0.1 27.95 -0.2 28.8 0.45 30.25 1.75 30.8 4.2 31.35 6.75 30.25 8.65 29.65 9.6 29.65 10.55 29.5 11.45 29.95 11.7 30.15 12.1 30.5 11.95 L31.0 11.3 Q31.45 10.05 32.85 9.35 33.95 8.95 34.45 8.2 35.1 7.2 35.1 5.7 35.1 4.35 36.1 5.45 37.15 6.9 37.0 9.15 36.95 11.0 36.15 12.1 35.65 12.75 35.65 13.4 35.65 13.85 35.95 14.05 L37.0 14.15 Q37.6 13.85 37.85 13.0 38.75 9.95 41.7 8.2" fill="#000000" fill-rule="evenodd" stroke="none"/>
    </g>
  </defs>
</svg>
