<?xml version="1.0" encoding="UTF-8" standalone="no"?>
<svg xmlns:ffdec="https://www.free-decompiler.com/flash" xmlns:xlink="http://www.w3.org/1999/xlink" ffdec:objectType="frame" height="56.0px" width="56.0px" xmlns="http://www.w3.org/2000/svg">
  <g transform="matrix(1.0, 0.0, 0.0, 1.0, 0.0, 0.0)">
    <use ffdec:characterId="10" ffdec:characterName="9_fla.Symbole27_1" height="56.0" id="back" transform="matrix(1.0, 0.0, 0.0, 1.0, 0.0, 0.0)" width="56.0" xlink:href="#sprite0"/>
    <use ffdec:characterId="12" height="55.45" id="back" transform="matrix(1.0, 0.0, 0.0, 1.0, 0.4, 0.45)" width="55.4" xlink:href="#sprite9"/>
    <use ffdec:characterId="14" height="53.95" id="up" transform="matrix(1.0, 0.0, 0.0, 1.0, 1.15, 1.2)" width="53.9" xlink:href="#sprite10"/>
  </g>
  <defs>
    <g id="sprite0" transform="matrix(1.0, 0.0, 0.0, 1.0, 0.0, 0.0)">
      <use ffdec:characterId="9" ffdec:characterName="9_fla.Symbole24_2" height="56.0" id="back" transform="matrix(1.0, 0.0, 0.0, 1.0, 0.0, 0.0)" width="56.0" xlink:href="#sprite1"/>
    </g>
    <g id="sprite1" transform="matrix(1.0, 0.0, 0.0, 1.0, 0.0, 0.0)">
      <use ffdec:characterId="8" ffdec:characterName="9_fla.Symbole21_3" height="56.0" id="back" transform="matrix(1.0, 0.0, 0.0, 1.0, 0.0, 0.0)" width="56.0" xlink:href="#sprite2"/>
    </g>
    <g id="sprite2" transform="matrix(1.0, 0.0, 0.0, 1.0, 0.0, 0.0)">
      <use ffdec:characterId="7" ffdec:characterName="9_fla.Symbole18_4" height="56.0" id="back" transform="matrix(1.0, 0.0, 0.0, 1.0, 0.0, 0.0)" width="56.0" xlink:href="#sprite3"/>
    </g>
    <g id="sprite3" transform="matrix(1.0, 0.0, 0.0, 1.0, 0.0, 0.0)">
      <use ffdec:characterId="6" ffdec:characterName="9_fla.Symbole15_5" height="56.0" id="back" transform="matrix(1.0, 0.0, 0.0, 1.0, 0.0, 0.0)" width="56.0" xlink:href="#sprite4"/>
    </g>
    <g id="sprite4" transform="matrix(1.0, 0.0, 0.0, 1.0, 0.0, 0.0)">
      <use ffdec:characterId="5" ffdec:characterName="9_fla.Symbole12_6" height="56.0" id="back" transform="matrix(1.0, 0.0, 0.0, 1.0, 0.0, 0.0)" width="56.0" xlink:href="#sprite5"/>
    </g>
    <g id="sprite5" transform="matrix(1.0, 0.0, 0.0, 1.0, 0.0, 0.0)">
      <use ffdec:characterId="4" ffdec:characterName="9_fla.Symbole9_7" height="56.0" id="back" transform="matrix(1.0, 0.0, 0.0, 1.0, 0.0, 0.0)" width="56.0" xlink:href="#sprite6"/>
    </g>
    <g id="sprite6" transform="matrix(1.0, 0.0, 0.0, 1.0, 0.0, 0.0)">
      <use ffdec:characterId="3" ffdec:characterName="9_fla.Symbole6_8" height="56.0" id="back" transform="matrix(1.0, 0.0, 0.0, 1.0, 0.0, 0.0)" width="56.0" xlink:href="#sprite7"/>
    </g>
    <g id="sprite7" transform="matrix(1.0, 0.0, 0.0, 1.0, 0.0, 0.0)">
      <use ffdec:characterId="2" height="56.0" id="back" transform="matrix(1.0, 0.0, 0.0, 1.0, 0.0, 0.0)" width="56.0" xlink:href="#sprite8"/>
    </g>
    <g id="sprite8" transform="matrix(1.0, 0.0, 0.0, 1.0, 0.0, 0.0)">
      <use ffdec:characterId="1" height="56.0" transform="matrix(1.0, 0.0, 0.0, 1.0, 0.0, 0.0)" width="56.0" xlink:href="#shape0"/>
    </g>
    <g id="shape0" transform="matrix(1.0, 0.0, 0.0, 1.0, 0.0, 0.0)">
      <path d="M56.0 56.0 L0.0 56.0 0.0 0.0 56.0 0.0 56.0 56.0" fill="#010101" fill-opacity="0.0" fill-rule="evenodd" stroke="none"/>
    </g>
    <g id="sprite9" transform="matrix(1.0, 0.0, 0.0, 1.0, 0.75, 0.75)">
      <use ffdec:characterId="11" height="55.45" transform="matrix(1.0, 0.0, 0.0, 1.0, -0.75, -0.75)" width="55.4" xlink:href="#shape1"/>
    </g>
    <g id="shape1" transform="matrix(1.0, 0.0, 0.0, 1.0, 0.75, 0.75)">
      <path d="M53.55 0.3 Q54.2 0.85 52.25 2.9 42.25 13.25 41.05 14.9 39.3 17.2 40.2 18.25 L41.2 19.05 42.7 19.05 45.05 18.5 47.0 17.8 Q47.9 17.6 48.1 18.2 48.15 18.6 47.5 19.1 L45.7 20.1 43.75 21.3 42.7 22.5 Q42.35 23.0 42.5 23.8 42.55 24.95 45.5 25.5 L51.1 26.05 53.05 26.25 Q53.9 26.5 53.9 27.05 53.9 27.5 53.05 27.7 L51.1 27.9 45.5 28.4 Q42.7 29.0 42.5 30.3 42.35 30.9 42.7 31.45 L43.75 32.65 Q44.2 33.1 45.7 33.8 47.2 34.65 47.5 34.85 48.15 35.25 48.1 35.75 47.9 36.2 47.0 36.15 L45.05 35.45 42.7 34.9 Q41.7 34.7 41.2 34.9 40.6 35.05 40.2 35.7 39.45 36.6 41.05 39.05 L46.6 45.0 52.25 50.9 53.55 52.6 Q53.9 53.2 53.55 53.65 53.05 54.3 50.85 52.35 L39.05 41.1 Q36.6 39.45 35.6 40.25 35.0 40.65 34.95 41.2 34.7 41.75 34.95 42.7 35.0 43.9 35.4 45.05 L36.05 47.05 Q36.2 47.9 35.75 48.1 35.25 48.25 34.8 47.6 L33.85 45.75 32.65 43.75 31.45 42.7 30.2 42.45 Q28.9 42.6 28.45 45.5 28.05 47.4 27.85 51.15 L27.65 53.05 Q27.45 53.95 27.0 53.95 26.5 53.95 26.3 53.05 L26.1 51.15 25.5 45.5 Q25.0 42.6 23.75 42.45 L22.45 42.7 21.3 43.75 Q20.75 44.2 20.05 45.75 L19.15 47.6 Q18.6 48.25 18.15 48.1 17.65 47.9 17.85 47.05 L18.55 45.05 19.0 42.7 19.0 41.2 18.3 40.25 Q17.25 39.35 14.9 41.1 L9.0 46.6 3.0 52.35 1.45 53.65 Q0.65 53.95 0.4 53.65 -0.3 53.05 1.7 50.9 L12.75 39.05 Q14.5 36.6 13.75 35.7 12.9 34.5 11.25 34.9 L8.85 35.45 6.95 36.15 Q6.05 36.2 5.8 35.75 5.65 35.25 6.4 34.85 6.65 34.65 8.25 33.8 L10.15 32.65 11.25 31.45 Q11.6 30.9 11.45 30.3 11.25 29.0 8.4 28.4 L5.8 28.15 2.85 27.9 0.85 27.7 Q-0.05 27.5 0.0 27.05 -0.05 26.5 0.85 26.25 L2.85 26.05 5.8 25.8 8.4 25.5 Q11.25 24.95 11.45 23.8 11.45 23.0 11.15 22.5 L10.15 21.3 Q9.65 20.8 8.25 20.1 L6.4 19.1 Q5.65 18.6 5.8 18.2 6.05 17.6 6.95 17.8 L8.85 18.5 11.25 19.05 12.75 19.05 13.75 18.25 Q14.5 17.2 12.75 14.9 L7.35 8.95 1.7 2.9 0.4 1.35 Q-0.05 0.7 0.4 0.3 0.85 -0.35 3.0 1.6 L9.0 7.4 14.9 12.8 Q17.25 14.45 18.3 13.7 L19.0 12.8 19.0 11.25 18.55 8.9 17.85 6.95 Q17.65 6.1 18.15 5.85 18.6 5.65 19.15 6.35 L20.05 8.2 Q20.75 9.6 21.3 10.2 L22.45 11.1 Q23.05 11.5 23.75 11.5 25.0 11.25 25.5 8.45 L25.85 5.7 26.1 2.8 26.3 0.85 Q26.5 -0.15 27.0 0.0 27.45 -0.15 27.65 0.85 L27.85 2.8 28.45 8.45 Q28.9 11.25 30.2 11.5 30.9 11.5 31.45 11.1 L32.65 10.2 33.85 8.2 Q34.55 6.55 34.8 6.35 35.25 5.65 35.75 5.85 36.2 6.1 36.05 6.95 L35.4 8.9 Q35.0 9.95 34.95 11.25 34.7 12.2 34.95 12.8 35.0 13.25 35.6 13.7 36.6 14.45 39.05 12.8 L44.9 7.4 50.85 1.6 52.45 0.3 Q53.15 -0.15 53.55 0.3 M27.0 15.65 Q22.25 15.6 19.0 18.9 15.7 22.3 15.7 26.9 15.7 31.6 19.0 34.9 22.25 38.15 27.0 38.3 31.65 38.15 35.0 34.9 38.2 31.6 38.2 26.9 38.2 22.3 35.0 18.9 31.65 15.6 27.0 15.65 Z" fill="none" stroke="#000000" stroke-linecap="round" stroke-linejoin="round" stroke-opacity="0.2" stroke-width="1.5"/>
    </g>
    <g id="sprite10" transform="matrix(1.0, 0.0, 0.0, 1.0, 0.0, 0.0)">
      <use ffdec:characterId="13" height="53.95" transform="matrix(1.0, 0.0, 0.0, 1.0, 0.0, 0.0)" width="53.9" xlink:href="#shape2"/>
    </g>
    <g id="shape2" transform="matrix(1.0, 0.0, 0.0, 1.0, 0.0, 0.0)">
      <path d="M53.55 0.3 Q54.2 0.85 52.25 2.9 42.25 13.25 41.05 14.9 39.3 17.2 40.2 18.25 L41.2 19.05 42.7 19.05 45.05 18.5 47.0 17.8 Q47.9 17.6 48.1 18.2 48.15 18.6 47.5 19.1 L45.7 20.1 43.75 21.3 42.7 22.5 Q42.35 23.0 42.5 23.8 42.55 24.95 45.5 25.5 L51.1 26.05 53.05 26.25 Q53.9 26.5 53.9 27.05 53.9 27.5 53.05 27.7 L51.1 27.9 45.5 28.4 Q42.7 29.0 42.5 30.3 42.35 30.9 42.7 31.45 L43.75 32.65 Q44.2 33.1 45.7 33.8 47.2 34.65 47.5 34.85 48.15 35.25 48.1 35.75 47.9 36.2 47.0 36.15 L45.05 35.45 42.7 34.9 Q41.7 34.7 41.2 34.9 40.6 35.05 40.2 35.7 39.45 36.6 41.05 39.05 L46.6 45.0 52.25 50.9 53.55 52.6 Q53.9 53.2 53.55 53.65 53.05 54.3 50.85 52.35 L39.05 41.1 Q36.6 39.45 35.6 40.25 35.0 40.65 34.95 41.2 34.7 41.75 34.95 42.7 35.0 43.9 35.4 45.05 L36.05 47.05 Q36.2 47.9 35.75 48.1 35.25 48.25 34.8 47.6 L33.85 45.75 32.65 43.75 31.45 42.7 30.2 42.45 Q28.9 42.6 28.45 45.5 28.05 47.4 27.85 51.15 L27.65 53.05 Q27.45 53.95 27.0 53.95 26.5 53.95 26.3 53.05 L26.1 51.15 25.5 45.5 Q25.0 42.6 23.75 42.45 L22.45 42.7 21.3 43.75 Q20.75 44.2 20.05 45.75 L19.15 47.6 Q18.6 48.25 18.15 48.1 17.65 47.9 17.85 47.05 L18.55 45.05 19.0 42.7 19.0 41.2 18.3 40.25 Q17.25 39.35 14.9 41.1 L9.0 46.6 3.0 52.35 1.45 53.65 Q0.65 53.95 0.4 53.65 -0.3 53.05 1.7 50.9 L12.75 39.05 Q14.5 36.6 13.75 35.7 12.9 34.5 11.25 34.9 L8.85 35.45 6.95 36.15 Q6.05 36.2 5.8 35.75 5.65 35.25 6.4 34.85 6.65 34.65 8.25 33.8 L10.15 32.65 11.25 31.45 Q11.6 30.9 11.45 30.3 11.25 29.0 8.4 28.4 L5.8 28.15 2.85 27.9 0.85 27.7 Q-0.05 27.5 0.0 27.05 -0.05 26.5 0.85 26.25 L2.85 26.05 5.8 25.8 8.4 25.5 Q11.25 24.95 11.45 23.8 11.45 23.0 11.15 22.5 L10.15 21.3 Q9.65 20.8 8.25 20.1 L6.4 19.1 Q5.65 18.6 5.8 18.2 6.05 17.6 6.95 17.8 L8.85 18.5 11.25 19.05 12.75 19.05 13.75 18.25 Q14.5 17.2 12.75 14.9 L7.35 8.95 1.7 2.9 0.4 1.35 Q-0.05 0.7 0.4 0.3 0.85 -0.35 3.0 1.6 L9.0 7.4 14.9 12.8 Q17.25 14.45 18.3 13.7 L19.0 12.8 19.0 11.25 18.55 8.9 17.85 6.95 Q17.65 6.1 18.15 5.85 18.6 5.65 19.15 6.35 L20.05 8.2 Q20.75 9.6 21.3 10.2 L22.45 11.1 Q23.05 11.5 23.75 11.5 25.0 11.25 25.5 8.45 L25.85 5.7 26.1 2.8 26.3 0.85 Q26.5 -0.15 27.0 0.0 27.45 -0.15 27.65 0.85 L27.85 2.8 28.45 8.45 Q28.9 11.25 30.2 11.5 30.9 11.5 31.45 11.1 L32.65 10.2 33.85 8.2 Q34.55 6.55 34.8 6.35 35.25 5.65 35.75 5.85 36.2 6.1 36.05 6.95 L35.4 8.9 Q35.0 9.95 34.95 11.25 34.7 12.2 34.95 12.8 35.0 13.25 35.6 13.7 36.6 14.45 39.05 12.8 L44.9 7.4 50.85 1.6 52.45 0.3 Q53.15 -0.15 53.55 0.3 M27.0 15.65 Q22.25 15.6 19.0 18.9 15.7 22.3 15.7 26.9 15.7 31.6 19.0 34.9 22.25 38.15 27.0 38.3 31.65 38.15 35.0 34.9 38.2 31.6 38.2 26.9 38.2 22.3 35.0 18.9 31.65 15.6 27.0 15.65" fill="#000000" fill-rule="evenodd" stroke="none"/>
    </g>
  </defs>
</svg>
