<?xml version="1.0" encoding="UTF-8" standalone="no"?>
<svg xmlns:ffdec="https://www.free-decompiler.com/flash" xmlns:xlink="http://www.w3.org/1999/xlink" ffdec:objectType="frame" height="56.0px" width="56.0px" xmlns="http://www.w3.org/2000/svg">
  <g transform="matrix(1.0, 0.0, 0.0, 1.0, 0.0, 0.0)">
    <use ffdec:characterId="1" height="0.0" id="back" transform="matrix(1.0, 0.0, 0.0, 1.0, 0.0, 0.0)" width="0.0" xlink:href="#sprite0"/>
    <use ffdec:characterId="3" height="55.55" id="back" transform="matrix(1.0, 0.0, 0.0, 1.0, 0.4, 0.1)" width="55.2" xlink:href="#sprite1"/>
    <use ffdec:characterId="5" height="54.05" id="up" transform="matrix(1.0, 0.0, 0.0, 1.0, 1.2, 0.85)" width="53.65" xlink:href="#sprite2"/>
  </g>
  <defs>
    <g id="sprite1" transform="matrix(1.0, 0.0, 0.0, 1.0, 0.75, 0.75)">
      <use ffdec:characterId="2" height="55.55" transform="matrix(1.0, 0.0, 0.0, 1.0, -0.75, -0.75)" width="55.2" xlink:href="#shape0"/>
    </g>
    <g id="shape0" transform="matrix(1.0, 0.0, 0.0, 1.0, 0.75, 0.75)">
      <path d="M50.6 21.8 Q48.6 22.95 46.75 22.95 44.8 22.95 44.0 21.65 43.2 20.45 44.0 18.8 44.85 17.05 46.8 15.9 48.65 14.8 50.6 14.8 52.45 14.8 53.3 16.0 54.1 17.3 53.25 18.95 52.45 20.65 50.6 21.8 M44.95 29.9 Q44.95 22.25 39.55 16.9 36.85 14.2 33.6 12.9 30.85 8.45 30.5 4.4 L29.95 10.4 Q27.0 7.7 26.85 0.0 26.65 7.7 23.75 10.4 L23.15 4.4 Q22.85 8.45 20.15 12.9 16.8 14.2 14.15 16.9 8.7 22.25 8.7 29.9 8.7 37.45 14.15 42.75 L15.2 43.85 Q17.35 45.75 19.9 46.85 L26.85 49.9 33.75 46.85 Q36.3 45.75 38.45 43.85 L39.55 42.75 Q44.95 37.45 44.95 29.9 M0.5 18.95 Q1.2 20.65 3.15 21.8 5.05 22.95 7.0 22.95 8.85 22.95 9.65 21.65 10.45 20.45 9.7 18.8 8.8 17.05 6.95 15.9 5.0 14.8 3.15 14.8 1.2 14.8 0.45 16.0 -0.45 17.3 0.5 18.95 M13.0 34.4 Q13.0 37.2 14.75 39.4 16.5 41.55 18.85 41.55 21.25 41.55 22.95 39.4 L23.75 38.2 Q22.7 39.75 21.2 39.75 19.75 39.75 18.6 38.2 17.55 36.7 17.55 34.5 17.55 32.3 18.6 30.75 19.75 29.2 21.2 29.2 22.7 29.2 23.75 30.75 L24.3 31.75 Q23.85 30.4 22.95 29.3 21.25 27.15 18.85 27.15 16.5 27.15 14.75 29.3 13.0 31.4 13.0 34.4 M11.85 48.55 Q10.0 49.9 9.3 51.5 8.55 53.0 9.45 53.6 10.2 54.3 12.1 53.85 14.0 53.35 15.9 51.95 17.65 50.65 18.35 49.15 19.05 47.65 18.3 46.9 L15.6 46.8 Q13.6 47.25 11.85 48.55 M38.95 29.3 Q40.65 31.4 40.65 34.4 40.65 37.2 38.95 39.4 37.2 41.55 34.85 41.55 32.45 41.55 30.7 39.4 L29.95 38.2 Q30.95 39.75 32.5 39.75 34.05 39.75 35.0 38.2 36.1 36.7 36.1 34.5 36.1 32.3 35.0 30.75 34.05 29.2 32.5 29.2 30.95 29.2 29.95 30.75 L29.35 31.75 Q29.8 30.4 30.7 29.3 32.45 27.15 34.85 27.15 37.2 27.15 38.95 29.3 M38.15 46.8 Q40.0 47.25 41.75 48.55 43.65 49.9 44.4 51.5 45.15 53.0 44.3 53.6 43.5 54.3 41.6 53.85 39.65 53.35 37.9 51.95 36.0 50.65 35.35 49.15 34.6 47.65 35.35 46.9 L38.15 46.8 Z" fill="none" stroke="#000000" stroke-linecap="round" stroke-linejoin="round" stroke-opacity="0.2" stroke-width="1.5"/>
    </g>
    <g id="sprite2" transform="matrix(1.0, 0.0, 0.0, 1.0, 0.0, 0.0)">
      <use ffdec:characterId="4" height="54.05" transform="matrix(1.0, 0.0, 0.0, 1.0, 0.0, 0.0)" width="53.65" xlink:href="#shape1"/>
    </g>
    <g id="shape1" transform="matrix(1.0, 0.0, 0.0, 1.0, 0.0, 0.0)">
      <path d="M44.0 21.65 Q43.2 20.45 44.0 18.8 44.85 17.1 46.8 15.95 48.65 14.8 50.55 14.8 52.4 14.8 53.3 16.0 54.05 17.3 53.2 18.95 52.4 20.65 50.55 21.8 48.55 22.95 46.7 22.95 44.8 22.95 44.0 21.65 M3.1 14.8 Q5.0 14.8 6.9 15.95 8.75 17.1 9.7 18.8 10.4 20.45 9.6 21.65 8.85 22.95 7.0 22.95 5.05 22.95 3.1 21.8 1.2 20.65 0.5 18.95 -0.45 17.3 0.4 16.0 1.2 14.8 3.1 14.8 M44.9 29.9 Q44.9 37.5 39.55 42.8 L38.4 43.85 Q36.25 45.8 33.7 46.85 L26.85 49.95 19.9 46.85 Q17.35 45.8 15.2 43.85 L14.1 42.8 Q8.7 37.5 8.7 29.9 8.7 22.3 14.1 16.95 16.75 14.25 20.15 12.95 22.85 8.5 23.15 4.4 L23.75 10.45 Q26.65 7.7 26.85 0.0 27.0 7.7 29.9 10.45 L30.5 4.4 Q30.85 8.5 33.55 12.95 36.85 14.25 39.55 16.95 44.9 22.3 44.9 29.9 M14.7 29.35 Q13.0 31.4 13.0 34.4 13.0 37.2 14.7 39.4 16.5 41.55 18.85 41.55 21.25 41.55 22.9 39.4 L23.7 38.2 Q22.7 39.8 21.2 39.8 19.7 39.8 18.65 38.2 17.55 36.7 17.55 34.5 17.55 32.35 18.65 30.75 19.7 29.25 21.2 29.25 22.7 29.25 23.7 30.75 L24.25 31.75 Q23.85 30.4 22.9 29.35 21.25 27.2 18.85 27.2 16.5 27.2 14.7 29.35 M38.9 29.35 Q37.2 27.2 34.85 27.2 32.4 27.2 30.7 29.35 29.75 30.4 29.35 31.75 L29.9 30.75 Q30.9 29.25 32.5 29.25 34.0 29.25 35.0 30.75 36.05 32.35 36.05 34.5 36.05 36.7 35.0 38.2 34.0 39.8 32.5 39.8 30.9 39.8 29.9 38.2 L30.7 39.4 Q32.4 41.55 34.85 41.55 37.2 41.55 38.9 39.4 40.65 37.2 40.65 34.4 40.65 31.4 38.9 29.35 M11.85 48.6 Q13.6 47.3 15.55 46.8 L18.25 46.95 Q19.05 47.65 18.35 49.15 17.65 50.65 15.85 51.95 14.0 53.4 12.05 53.9 10.2 54.3 9.4 53.6 8.55 53.0 9.25 51.5 10.0 49.95 11.85 48.6 M38.15 46.8 Q40.0 47.3 41.8 48.6 43.65 49.95 44.4 51.5 45.15 53.0 44.3 53.6 43.5 54.3 41.55 53.9 39.65 53.4 37.85 51.95 36.0 50.65 35.35 49.15 34.55 47.65 35.35 46.95 L38.15 46.8" fill="#000000" fill-rule="evenodd" stroke="none"/>
    </g>
  </defs>
</svg>
