<?xml version="1.0" encoding="UTF-8" standalone="no"?>
<svg xmlns:ffdec="https://www.free-decompiler.com/flash" xmlns:xlink="http://www.w3.org/1999/xlink" ffdec:objectType="frame" height="56.0px" width="56.0px" xmlns="http://www.w3.org/2000/svg">
  <g transform="matrix(1.0, 0.0, 0.0, 1.0, 0.0, 0.0)">
    <use ffdec:characterId="2" height="41.05" id="back" transform="matrix(1.0, 0.0, 0.0, 1.0, 0.4, 7.25)" width="55.4" xlink:href="#sprite0"/>
    <use ffdec:characterId="5" ffdec:characterName="93_fla.Symbole6_2" height="56.0" id="back" transform="matrix(1.0, 0.0, 0.0, 1.0, 0.0, 0.0)" width="56.0" xlink:href="#sprite1"/>
    <use ffdec:characterId="7" height="39.6" id="up" transform="matrix(1.0, 0.0, 0.0, 1.0, 1.1, 7.95)" width="53.95" xlink:href="#sprite3"/>
  </g>
  <defs>
    <g id="sprite0" transform="matrix(1.0, 0.0, 0.0, 1.0, 0.75, 0.75)">
      <use ffdec:characterId="1" height="41.05" transform="matrix(1.0, 0.0, 0.0, 1.0, -0.75, -0.75)" width="55.4" xlink:href="#shape0"/>
    </g>
    <g id="shape0" transform="matrix(1.0, 0.0, 0.0, 1.0, 0.75, 0.75)">
      <path d="M45.5 16.35 Q45.5 17.85 44.65 19.0 L43.95 19.9 Q43.15 20.7 42.2 21.05 43.35 22.4 43.35 24.1 43.35 25.65 42.6 26.85 L41.85 27.75 41.75 27.9 42.3 34.15 36.65 34.15 34.95 34.6 33.45 34.8 33.05 34.8 32.5 34.8 31.55 34.5 29.95 35.6 29.5 35.8 28.05 36.05 27.6 36.05 26.95 35.95 26.25 36.05 25.8 36.05 24.35 35.8 23.95 35.6 22.3 34.5 21.35 34.8 20.8 34.8 20.4 34.8 18.9 34.6 17.2 34.15 11.55 34.15 12.15 27.9 12.0 27.75 11.25 26.85 Q10.5 25.65 10.5 24.1 10.5 22.4 11.65 21.05 L9.9 19.9 9.2 19.0 Q8.4 17.85 8.4 16.35 8.4 14.35 9.9 12.85 11.05 11.7 12.55 11.4 12.1 10.4 12.1 9.2 12.1 7.35 13.3 6.0 L13.55 5.7 Q15.0 4.25 17.1 4.25 L18.75 4.55 19.25 4.2 Q19.55 2.65 20.7 1.5 22.15 0.0 24.25 0.0 25.75 0.0 26.95 0.85 28.1 0.0 29.65 0.0 31.7 0.0 33.15 1.5 34.3 2.65 34.6 4.2 L35.1 4.55 36.75 4.25 Q38.85 4.25 40.3 5.7 L40.55 6.0 Q41.75 7.35 41.75 9.2 41.75 10.4 41.3 11.4 42.8 11.7 43.95 12.85 45.5 14.35 45.5 16.35 M42.2 6.0 L49.55 6.0 Q51.45 4.4 52.0 2.1 L53.9 8.15 Q53.8 11.45 50.85 13.7 L46.55 13.6 Q45.55 11.3 43.15 10.55 43.95 8.3 42.2 6.0 M39.55 17.4 L38.2 17.7 38.25 18.65 Q38.25 20.0 37.55 21.2 36.9 22.4 35.95 22.65 35.05 22.75 34.3 21.9 33.75 21.05 33.75 19.7 L33.8 18.65 33.5 18.7 33.5 20.0 Q33.45 22.1 34.3 23.4 35.3 24.8 36.55 24.5 37.85 24.1 38.7 22.5 39.65 20.85 39.65 18.65 L39.55 17.4 M42.15 39.55 L38.85 39.55 37.4 36.35 35.95 39.55 32.5 39.55 32.5 35.6 42.35 35.6 42.15 39.55 M3.0 13.7 L7.3 13.6 Q8.35 11.3 10.7 10.55 9.9 8.3 11.65 6.0 L4.3 6.0 Q2.4 4.4 1.85 2.1 L0.0 8.15 Q0.05 11.45 3.0 13.7 M15.6 18.65 Q15.6 20.0 16.3 21.2 16.95 22.4 17.9 22.65 18.8 22.75 19.55 21.9 20.1 21.05 20.1 19.7 L20.05 18.65 20.35 18.7 20.35 20.0 Q20.4 22.1 19.55 23.4 18.55 24.8 17.35 24.5 16.05 24.1 15.15 22.5 14.25 20.85 14.25 18.65 L14.3 17.4 15.7 17.7 15.6 18.65 M11.7 39.55 L15.0 39.55 16.45 36.35 17.9 39.55 21.35 39.55 21.35 35.6 11.5 35.6 11.7 39.55 Z" fill="none" stroke="#000000" stroke-linecap="round" stroke-linejoin="round" stroke-opacity="0.2" stroke-width="1.5"/>
    </g>
    <g id="sprite1" transform="matrix(1.0, 0.0, 0.0, 1.0, 0.0, 0.0)">
      <use ffdec:characterId="4" height="56.0" id="back" transform="matrix(1.0, 0.0, 0.0, 1.0, 0.0, 0.0)" width="56.0" xlink:href="#sprite2"/>
    </g>
    <g id="sprite2" transform="matrix(1.0, 0.0, 0.0, 1.0, 0.0, 0.0)">
      <use ffdec:characterId="3" height="56.0" transform="matrix(1.0, 0.0, 0.0, 1.0, 0.0, 0.0)" width="56.0" xlink:href="#shape1"/>
    </g>
    <g id="shape1" transform="matrix(1.0, 0.0, 0.0, 1.0, 0.0, 0.0)">
      <path d="M56.0 56.0 L0.0 56.0 0.0 0.0 56.0 0.0 56.0 56.0" fill="#010101" fill-opacity="0.0" fill-rule="evenodd" stroke="none"/>
    </g>
    <g id="sprite3" transform="matrix(1.0, 0.0, 0.0, 1.0, 0.0, 0.0)">
      <use ffdec:characterId="6" height="39.6" transform="matrix(1.0, 0.0, 0.0, 1.0, 0.0, 0.0)" width="53.95" xlink:href="#shape2"/>
    </g>
    <g id="shape2" transform="matrix(1.0, 0.0, 0.0, 1.0, 0.0, 0.0)">
      <path d="M40.6 6.0 Q41.85 7.35 41.85 9.25 41.85 10.4 41.35 11.4 42.85 11.7 44.0 12.85 45.5 14.35 45.5 16.4 45.5 17.9 44.7 19.05 L44.0 19.9 42.25 21.05 Q43.4 22.45 43.4 24.15 43.4 25.65 42.65 26.9 L41.9 27.75 41.75 27.9 42.35 34.2 36.75 34.2 35.0 34.6 33.5 34.85 33.15 34.85 32.55 34.85 31.6 34.55 Q30.85 35.25 29.95 35.6 L29.55 35.85 28.1 36.05 27.65 36.05 27.0 36.0 26.3 36.05 25.85 36.05 24.4 35.85 24.0 35.6 Q23.1 35.25 22.35 34.55 L21.4 34.85 20.8 34.85 20.45 34.85 18.95 34.6 17.2 34.2 11.6 34.2 12.2 27.9 12.05 27.75 11.3 26.9 Q10.55 25.65 10.55 24.15 10.55 22.45 11.7 21.05 10.75 20.7 9.95 19.9 L9.25 19.05 Q8.45 17.9 8.45 16.4 8.45 14.35 9.95 12.85 11.1 11.7 12.6 11.4 12.1 10.4 12.1 9.25 12.1 7.35 13.35 6.0 L13.65 5.7 Q15.05 4.25 17.15 4.25 L18.8 4.55 19.3 4.2 Q19.6 2.7 20.75 1.55 22.2 0.0 24.3 0.0 25.8 0.0 27.0 0.9 28.15 0.0 29.65 0.0 31.75 0.0 33.2 1.55 34.35 2.7 34.65 4.2 L35.15 4.55 36.8 4.25 Q38.9 4.25 40.3 5.7 L40.6 6.0 M42.25 6.0 L49.6 6.0 Q51.5 4.4 52.05 2.1 L53.95 8.15 Q53.85 11.5 50.9 13.7 L46.6 13.65 Q45.6 11.35 43.2 10.6 44.0 8.3 42.25 6.0 M39.6 17.45 L38.25 17.75 38.3 18.7 Q38.3 20.05 37.6 21.2 36.95 22.45 36.0 22.65 35.05 22.8 34.35 21.95 33.8 21.05 33.8 19.7 L33.85 18.7 33.55 18.75 33.55 20.05 Q33.5 22.15 34.35 23.45 35.35 24.8 36.6 24.5 37.9 24.15 38.75 22.5 39.7 20.85 39.7 18.7 L39.6 17.45 M42.2 39.6 L38.9 39.6 37.45 36.35 36.0 39.6 32.55 39.6 32.55 35.6 42.4 35.6 42.2 39.6 M11.75 39.6 L11.55 35.6 21.4 35.6 21.4 39.6 17.95 39.6 16.5 36.35 15.05 39.6 11.75 39.6 M17.95 22.65 Q17.0 22.45 16.35 21.2 15.65 20.05 15.65 18.7 L15.7 17.75 14.35 17.45 14.25 18.7 Q14.25 20.85 15.2 22.5 16.05 24.15 17.35 24.5 18.6 24.8 19.6 23.45 20.45 22.15 20.4 20.05 L20.4 18.75 20.1 18.7 20.15 19.7 Q20.15 21.05 19.6 21.95 18.9 22.8 17.95 22.65 M3.05 13.7 Q0.1 11.5 0.0 8.15 L1.9 2.1 Q2.45 4.4 4.35 6.0 L11.7 6.0 Q9.95 8.3 10.75 10.6 8.35 11.35 7.35 13.65 L3.05 13.7" fill="#000000" fill-rule="evenodd" stroke="none"/>
    </g>
  </defs>
</svg>
