<?xml version="1.0" encoding="UTF-8" standalone="no"?>
<svg xmlns:ffdec="https://www.free-decompiler.com/flash" xmlns:xlink="http://www.w3.org/1999/xlink" ffdec:objectType="frame" height="56.0px" width="56.0px" xmlns="http://www.w3.org/2000/svg">
  <g transform="matrix(1.0, 0.0, 0.0, 1.0, 0.0, 0.0)">
    <use ffdec:characterId="3" ffdec:characterName="94_fla.Symbole6_1" height="56.0" id="back" transform="matrix(1.0, 0.0, 0.0, 1.0, 0.0, 0.0)" width="56.0" xlink:href="#sprite0"/>
    <use ffdec:characterId="5" height="48.5" id="back" transform="matrix(1.0, 0.0, 0.0, 1.0, 0.4, 4.05)" width="55.4" xlink:href="#sprite2"/>
    <use ffdec:characterId="7" height="46.95" id="up" transform="matrix(1.0, 0.0, 0.0, 1.0, 1.15, 4.8)" width="53.9" xlink:href="#sprite3"/>
  </g>
  <defs>
    <g id="sprite0" transform="matrix(1.0, 0.0, 0.0, 1.0, 0.0, 0.0)">
      <use ffdec:characterId="2" height="56.0" id="back" transform="matrix(1.0, 0.0, 0.0, 1.0, 0.0, 0.0)" width="56.0" xlink:href="#sprite1"/>
    </g>
    <g id="sprite1" transform="matrix(1.0, 0.0, 0.0, 1.0, 0.0, 0.0)">
      <use ffdec:characterId="1" height="56.0" transform="matrix(1.0, 0.0, 0.0, 1.0, 0.0, 0.0)" width="56.0" xlink:href="#shape0"/>
    </g>
    <g id="shape0" transform="matrix(1.0, 0.0, 0.0, 1.0, 0.0, 0.0)">
      <path d="M56.0 56.0 L0.0 56.0 0.0 0.0 56.0 0.0 56.0 56.0" fill="#010101" fill-opacity="0.0" fill-rule="evenodd" stroke="none"/>
    </g>
    <g id="sprite2" transform="matrix(1.0, 0.0, 0.0, 1.0, 0.75, 0.75)">
      <use ffdec:characterId="4" height="48.5" transform="matrix(1.0, 0.0, 0.0, 1.0, -0.75, -0.75)" width="55.4" xlink:href="#shape1"/>
    </g>
    <g id="shape1" transform="matrix(1.0, 0.0, 0.0, 1.0, 0.75, 0.75)">
      <path d="M43.6 7.65 L43.45 7.75 21.7 26.05 22.8 27.4 44.6 9.05 44.65 8.95 43.6 7.65 M46.85 5.95 L39.15 4.4 53.9 0.0 47.0 13.8 46.85 5.95 M0.0 37.6 L8.5 37.3 20.65 27.15 12.1 27.25 0.0 37.6 M12.85 42.95 L7.9 47.0 9.55 38.6 21.7 28.4 20.5 36.45 14.8 41.3 13.15 38.75 12.85 42.95 Z" fill="none" stroke="#000000" stroke-linecap="round" stroke-linejoin="round" stroke-opacity="0.2" stroke-width="1.5"/>
    </g>
    <g id="sprite3" transform="matrix(1.0, 0.0, 0.0, 1.0, 0.0, 0.0)">
      <use ffdec:characterId="6" height="46.95" transform="matrix(1.0, 0.0, 0.0, 1.0, 0.0, 0.0)" width="53.9" xlink:href="#shape2"/>
    </g>
    <g id="shape2" transform="matrix(1.0, 0.0, 0.0, 1.0, 0.0, 0.0)">
      <path d="M46.85 5.9 L39.15 4.4 53.9 0.0 47.05 13.75 46.85 5.9 M43.6 7.65 L44.7 8.95 44.6 9.0 22.8 27.4 21.75 26.05 43.45 7.7 43.6 7.65 M13.15 38.75 L12.9 42.9 7.9 46.95 9.55 38.6 21.75 28.35 20.5 36.45 14.8 41.25 13.15 38.75 M0.0 37.6 L12.1 27.2 20.65 27.1 8.55 37.3 0.0 37.6" fill="#000000" fill-rule="evenodd" stroke="none"/>
    </g>
  </defs>
</svg>
