<?xml version="1.0" encoding="UTF-8" standalone="no"?>
<svg xmlns:ffdec="https://www.free-decompiler.com/flash" xmlns:xlink="http://www.w3.org/1999/xlink" ffdec:objectType="frame" height="56.0px" width="56.0px" xmlns="http://www.w3.org/2000/svg">
  <g transform="matrix(1.0, 0.0, 0.0, 1.0, 0.0, 0.0)">
    <use ffdec:characterId="4" ffdec:characterName="95_fla.Symbole9_1" height="56.0" id="back" transform="matrix(1.0, 0.0, 0.0, 1.0, 0.0, 0.0)" width="56.0" xlink:href="#sprite0"/>
    <use ffdec:characterId="6" height="55.55" id="back" transform="matrix(1.0, 0.0, 0.0, 1.0, 0.6, 0.45)" width="54.7" xlink:href="#sprite3"/>
    <use ffdec:characterId="8" height="54.05" id="up" transform="matrix(1.0, 0.0, 0.0, 1.0, 1.35, 1.2)" width="53.2" xlink:href="#sprite4"/>
  </g>
  <defs>
    <g id="sprite0" transform="matrix(1.0, 0.0, 0.0, 1.0, 0.0, 0.0)">
      <use ffdec:characterId="3" ffdec:characterName="95_fla.Symbole6_2" height="56.0" id="back" transform="matrix(1.0, 0.0, 0.0, 1.0, 0.0, 0.0)" width="56.0" xlink:href="#sprite1"/>
    </g>
    <g id="sprite1" transform="matrix(1.0, 0.0, 0.0, 1.0, 0.0, 0.0)">
      <use ffdec:characterId="2" height="56.0" id="back" transform="matrix(1.0, 0.0, 0.0, 1.0, 0.0, 0.0)" width="56.0" xlink:href="#sprite2"/>
    </g>
    <g id="sprite2" transform="matrix(1.0, 0.0, 0.0, 1.0, 0.0, 0.0)">
      <use ffdec:characterId="1" height="56.0" transform="matrix(1.0, 0.0, 0.0, 1.0, 0.0, 0.0)" width="56.0" xlink:href="#shape0"/>
    </g>
    <g id="shape0" transform="matrix(1.0, 0.0, 0.0, 1.0, 0.0, 0.0)">
      <path d="M56.0 56.0 L0.0 56.0 0.0 0.0 56.0 0.0 56.0 56.0" fill="#010101" fill-opacity="0.0" fill-rule="evenodd" stroke="none"/>
    </g>
    <g id="sprite3" transform="matrix(1.0, 0.0, 0.0, 1.0, 0.75, 0.75)">
      <use ffdec:characterId="5" height="55.55" transform="matrix(1.0, 0.0, 0.0, 1.0, -0.75, -0.75)" width="54.7" xlink:href="#shape1"/>
    </g>
    <g id="shape1" transform="matrix(1.0, 0.0, 0.0, 1.0, 0.75, 0.75)">
      <path d="M45.7 22.75 L29.9 46.45 34.0 49.25 30.85 54.05 Q13.85 46.25 0.0 33.15 L3.1 28.35 6.15 30.5 22.1 6.75 19.0 4.8 22.25 0.0 Q39.8 7.7 53.2 20.9 L49.95 25.65 45.7 22.75 M42.35 22.35 L42.45 22.25 43.2 21.15 36.2 18.1 Q38.25 19.75 39.95 21.85 L39.8 21.95 37.35 24.8 Q35.6 26.1 33.45 26.8 L27.55 26.55 26.75 27.75 25.85 29.05 Q26.6 29.65 27.15 30.65 28.15 32.15 28.35 34.3 28.7 38.4 26.25 42.15 L26.15 42.3 Q19.7 35.75 11.25 32.25 L11.3 32.0 12.4 30.7 Q14.6 28.1 17.8 27.15 20.95 26.25 23.65 27.5 L24.55 26.15 25.35 25.1 Q24.1 23.95 23.5 22.25 22.95 21.15 22.8 19.7 22.6 17.35 23.25 15.3 23.8 13.45 24.9 11.85 L24.95 11.7 Q27.6 12.6 29.9 13.85 26.9 11.4 24.7 8.5 L8.75 32.15 Q19.6 37.4 27.35 44.7 L27.7 44.25 27.9 43.65 41.9 22.8 42.35 22.35 M17.35 28.3 Q18.25 27.9 19.1 28.05 19.95 28.2 20.3 28.95 20.75 29.6 20.4 30.25 L19.15 31.5 17.4 31.8 Q16.55 31.55 16.1 30.9 15.8 30.1 16.05 29.5 16.4 28.75 17.35 28.3 Z" fill="none" stroke="#000000" stroke-linecap="round" stroke-linejoin="round" stroke-opacity="0.2" stroke-width="1.5"/>
    </g>
    <g id="sprite4" transform="matrix(1.0, 0.0, 0.0, 1.0, 0.0, 0.0)">
      <use ffdec:characterId="7" height="54.05" transform="matrix(1.0, 0.0, 0.0, 1.0, 0.0, 0.0)" width="53.2" xlink:href="#shape2"/>
    </g>
    <g id="shape2" transform="matrix(1.0, 0.0, 0.0, 1.0, 0.0, 0.0)">
      <path d="M42.35 22.35 L42.45 22.25 43.2 21.15 36.2 18.1 Q38.25 19.75 39.95 21.85 L39.8 21.95 37.35 24.8 Q35.6 26.1 33.45 26.8 L27.55 26.55 26.75 27.75 25.85 29.05 Q26.6 29.65 27.15 30.65 28.15 32.15 28.35 34.3 28.7 38.4 26.25 42.15 L26.15 42.3 Q19.7 35.75 11.25 32.25 L11.3 32.0 12.4 30.7 Q14.6 28.1 17.8 27.15 20.95 26.25 23.65 27.5 L24.55 26.15 25.35 25.1 Q24.1 23.95 23.5 22.25 22.95 21.15 22.8 19.7 22.6 17.35 23.25 15.3 23.8 13.45 24.9 11.85 L24.95 11.7 Q27.6 12.6 29.9 13.85 26.9 11.4 24.7 8.5 L8.75 32.15 Q19.6 37.4 27.35 44.7 L27.7 44.25 27.9 43.65 41.9 22.8 42.35 22.35 M45.7 22.75 L29.9 46.45 34.0 49.25 30.85 54.05 Q13.85 46.25 0.0 33.15 L3.1 28.35 6.15 30.5 22.1 6.75 19.0 4.8 22.25 0.0 Q39.8 7.7 53.2 20.9 L49.95 25.65 45.7 22.75 M17.35 28.3 Q16.4 28.75 16.05 29.5 15.8 30.1 16.1 30.9 16.55 31.55 17.4 31.8 L19.15 31.5 20.4 30.25 Q20.75 29.6 20.3 28.95 19.95 28.2 19.1 28.05 18.25 27.9 17.35 28.3" fill="#000000" fill-rule="evenodd" stroke="none"/>
    </g>
  </defs>
</svg>
