<?xml version="1.0" encoding="UTF-8" standalone="no"?>
<svg xmlns:ffdec="https://www.free-decompiler.com/flash" xmlns:xlink="http://www.w3.org/1999/xlink" ffdec:objectType="frame" height="56.0px" width="56.0px" xmlns="http://www.w3.org/2000/svg">
  <g transform="matrix(1.0, 0.0, 0.0, 1.0, 0.0, 0.0)">
    <use ffdec:characterId="5" ffdec:characterName="96_fla.Symbole12_1" height="56.0" id="back" transform="matrix(1.0, 0.0, 0.0, 1.0, 0.0, 0.0)" width="56.0" xlink:href="#sprite0"/>
    <use ffdec:characterId="7" height="54.1" id="back" transform="matrix(1.0, 0.0, 0.0, 1.0, 0.4, 1.0)" width="55.4" xlink:href="#sprite4"/>
    <use ffdec:characterId="9" height="52.6" id="up" transform="matrix(1.0, 0.0, 0.0, 1.0, 1.1, 1.8)" width="53.95" xlink:href="#sprite5"/>
  </g>
  <defs>
    <g id="sprite0" transform="matrix(1.0, 0.0, 0.0, 1.0, 0.0, 0.0)">
      <use ffdec:characterId="4" ffdec:characterName="96_fla.Symbole9_2" height="56.0" id="back" transform="matrix(1.0, 0.0, 0.0, 1.0, 0.0, 0.0)" width="56.0" xlink:href="#sprite1"/>
    </g>
    <g id="sprite1" transform="matrix(1.0, 0.0, 0.0, 1.0, 0.0, 0.0)">
      <use ffdec:characterId="3" ffdec:characterName="96_fla.Symbole6_3" height="56.0" id="back" transform="matrix(1.0, 0.0, 0.0, 1.0, 0.0, 0.0)" width="56.0" xlink:href="#sprite2"/>
    </g>
    <g id="sprite2" transform="matrix(1.0, 0.0, 0.0, 1.0, 0.0, 0.0)">
      <use ffdec:characterId="2" height="56.0" id="back" transform="matrix(1.0, 0.0, 0.0, 1.0, 0.0, 0.0)" width="56.0" xlink:href="#sprite3"/>
    </g>
    <g id="sprite3" transform="matrix(1.0, 0.0, 0.0, 1.0, 0.0, 0.0)">
      <use ffdec:characterId="1" height="56.0" transform="matrix(1.0, 0.0, 0.0, 1.0, 0.0, 0.0)" width="56.0" xlink:href="#shape0"/>
    </g>
    <g id="shape0" transform="matrix(1.0, 0.0, 0.0, 1.0, 0.0, 0.0)">
      <path d="M56.0 56.0 L0.0 56.0 0.0 0.0 56.0 0.0 56.0 56.0" fill="#010101" fill-opacity="0.0" fill-rule="evenodd" stroke="none"/>
    </g>
    <g id="sprite4" transform="matrix(1.0, 0.0, 0.0, 1.0, 0.75, 0.75)">
      <use ffdec:characterId="6" height="54.1" transform="matrix(1.0, 0.0, 0.0, 1.0, -0.75, -0.75)" width="55.4" xlink:href="#shape1"/>
    </g>
    <g id="shape1" transform="matrix(1.0, 0.0, 0.0, 1.0, 0.75, 0.75)">
      <path d="M50.55 9.8 L50.4 9.6 Q49.9 7.35 45.0 6.35 L44.85 6.25 44.7 6.25 23.75 2.25 Q17.2 1.1 14.95 2.45 L10.65 5.65 10.5 5.65 10.45 5.8 Q7.2 8.0 5.8 12.6 8.4 9.3 14.55 10.55 L14.45 10.4 33.5 13.9 33.65 14.05 Q39.7 18.1 41.05 25.45 43.55 16.45 47.15 12.35 L50.55 9.85 50.55 9.8 M45.0 4.6 L24.05 0.55 Q16.55 -0.75 14.0 1.15 L13.95 1.15 9.85 4.2 9.5 4.45 Q4.4 7.7 3.2 16.7 L0.1 39.7 Q-0.75 46.4 6.7 48.45 L27.5 52.45 27.8 52.45 27.9 52.35 Q36.25 53.2 41.35 51.3 L41.5 51.3 42.05 51.05 46.35 48.0 Q49.25 45.8 50.2 43.15 L50.2 43.0 50.65 39.9 53.9 15.8 53.9 15.65 Q53.6 12.0 52.0 9.25 51.55 5.95 45.35 4.65 L45.0 4.6 M49.35 28.2 Q49.05 29.75 48.35 30.7 47.8 31.75 47.3 31.7 46.65 31.45 46.35 30.3 46.05 29.15 46.35 27.6 46.5 26.05 47.15 25.0 47.65 23.95 48.2 24.1 48.9 24.25 49.25 25.4 L49.35 28.2 M42.2 35.8 Q42.8 34.7 43.35 34.85 44.1 34.9 44.35 36.2 44.65 37.35 44.4 38.9 44.25 40.45 43.55 41.45 43.0 42.45 42.4 42.35 41.75 42.3 41.5 41.05 41.2 39.9 41.4 38.35 41.65 36.8 42.2 35.8 M31.7 8.7 L28.95 8.8 Q27.5 8.5 26.45 7.65 25.45 6.95 25.5 6.1 25.6 5.2 26.75 4.8 L29.55 4.75 Q31.05 5.05 32.05 5.8 33.05 6.55 33.0 7.5 32.85 8.3 31.7 8.7 M35.7 22.5 Q35.5 24.1 34.35 24.95 33.05 25.85 31.55 25.45 30.0 25.25 28.95 23.85 28.1 22.55 28.35 21.05 28.5 19.45 29.75 18.55 31.0 17.6 32.65 18.0 34.05 18.3 35.0 19.55 35.85 20.85 35.7 22.5 M12.6 34.5 Q14.1 34.7 15.1 35.9 16.05 37.25 15.75 38.8 15.6 40.4 14.4 41.3 13.0 42.2 11.5 42.0 10.0 41.6 9.15 40.3 8.15 38.95 8.35 37.45 8.6 35.85 9.85 34.9 11.0 34.05 12.6 34.5 M18.3 27.6 Q18.5 26.0 19.7 25.1 20.85 24.25 22.45 24.55 24.0 24.85 24.95 26.15 25.9 27.45 25.6 29.0 25.45 30.55 24.2 31.4 22.95 32.3 21.35 32.0 19.85 31.75 18.95 30.4 18.0 29.05 18.3 27.6 M38.1 46.85 Q38.0 49.5 39.05 50.3 L32.3 51.0 Q35.8 49.85 37.85 46.65 L38.1 46.85 Z" fill="none" stroke="#000000" stroke-linecap="round" stroke-linejoin="round" stroke-opacity="0.2" stroke-width="1.5"/>
    </g>
    <g id="sprite5" transform="matrix(1.0, 0.0, 0.0, 1.0, 0.0, 0.0)">
      <use ffdec:characterId="8" height="52.6" transform="matrix(1.0, 0.0, 0.0, 1.0, 0.0, 0.0)" width="53.95" xlink:href="#shape2"/>
    </g>
    <g id="shape2" transform="matrix(1.0, 0.0, 0.0, 1.0, 0.0, 0.0)">
      <path d="M50.55 9.8 L50.45 9.55 Q49.95 7.35 45.05 6.3 L44.9 6.25 44.75 6.25 23.75 2.2 Q17.25 1.05 15.0 2.4 L10.7 5.6 10.6 5.65 10.55 5.65 10.45 5.8 Q7.25 8.0 5.85 12.6 8.45 9.25 14.55 10.5 L14.5 10.35 33.55 13.9 33.7 14.05 Q39.7 18.1 41.1 25.45 43.6 16.4 47.2 12.3 L50.55 9.85 50.55 9.8 M43.6 41.45 Q44.25 40.45 44.45 38.85 44.7 37.35 44.4 36.2 44.1 34.9 43.4 34.8 42.8 34.7 42.25 35.75 41.65 36.75 41.45 38.3 41.25 39.85 41.5 41.05 41.8 42.25 42.45 42.35 43.05 42.4 43.6 41.45 M48.25 24.05 Q47.7 23.9 47.2 25.0 46.55 26.0 46.4 27.6 46.1 29.1 46.4 30.3 46.7 31.45 47.35 31.65 47.85 31.7 48.4 30.7 49.05 29.7 49.35 28.2 49.5 26.5 49.3 25.35 48.9 24.2 48.25 24.05 M45.05 4.6 L45.4 4.65 Q51.6 5.95 52.0 9.2 53.65 11.95 53.95 15.6 L53.95 15.75 50.65 39.85 50.2 43.0 50.2 43.1 Q49.3 45.8 46.4 47.95 L42.1 51.05 41.5 51.3 41.35 51.3 Q36.25 53.15 27.95 52.35 L27.85 52.45 27.5 52.45 6.75 48.45 Q-0.75 46.35 0.1 39.65 L3.3 16.7 Q4.45 7.7 9.55 4.45 L9.9 4.15 14.0 1.1 14.05 1.1 Q16.6 -0.75 24.1 0.55 L45.05 4.6 M33.05 7.45 Q32.9 8.25 31.75 8.7 L29.0 8.75 Q27.5 8.5 26.5 7.6 25.5 6.9 25.55 6.1 25.65 5.15 26.8 4.8 L29.6 4.75 Q31.1 5.0 32.1 5.8 33.1 6.55 33.05 7.45 M38.15 46.8 L37.85 46.6 Q35.85 49.85 32.3 51.0 L39.05 50.25 Q38.05 49.45 38.15 46.8 M18.3 27.55 Q18.0 29.05 19.0 30.4 19.9 31.7 21.4 32.0 22.95 32.3 24.25 31.35 25.5 30.55 25.65 29.0 25.9 27.4 25.0 26.1 24.05 24.8 22.45 24.5 20.9 24.2 19.75 25.1 18.5 25.95 18.3 27.55 M12.65 34.45 Q11.05 34.05 9.9 34.9 8.65 35.85 8.4 37.4 8.15 38.95 9.2 40.3 10.05 41.6 11.55 41.95 13.05 42.2 14.4 41.25 15.65 40.4 15.8 38.8 16.1 37.2 15.15 35.9 14.15 34.7 12.65 34.45 M35.75 22.5 Q35.9 20.8 35.05 19.5 34.1 18.3 32.7 18.0 31.0 17.55 29.8 18.5 28.5 19.45 28.35 21.05 28.15 22.55 29.0 23.85 30.0 25.2 31.6 25.45 33.1 25.8 34.4 24.95 35.55 24.05 35.75 22.5" fill="#000000" fill-rule="evenodd" stroke="none"/>
    </g>
  </defs>
</svg>
