<?xml version="1.0" encoding="UTF-8" standalone="no"?>
<svg xmlns:ffdec="https://www.free-decompiler.com/flash" xmlns:xlink="http://www.w3.org/1999/xlink" ffdec:objectType="frame" height="56.0px" width="56.0px" xmlns="http://www.w3.org/2000/svg">
  <g transform="matrix(1.0, 0.0, 0.0, 1.0, 0.0, 0.0)">
    <use ffdec:characterId="6" ffdec:characterName="97_fla.Symbole15_1" height="56.0" id="back" transform="matrix(1.0, 0.0, 0.0, 1.0, 0.0, 0.0)" width="56.0" xlink:href="#sprite0"/>
    <use ffdec:characterId="8" height="55.55" id="back" transform="matrix(1.0, 0.0, 0.0, 1.0, 2.75, 0.45)" width="50.35" xlink:href="#sprite5"/>
    <use ffdec:characterId="10" height="54.05" id="up" transform="matrix(1.0, 0.0, 0.0, 1.0, 3.45, 1.25)" width="48.85" xlink:href="#sprite6"/>
  </g>
  <defs>
    <g id="sprite0" transform="matrix(1.0, 0.0, 0.0, 1.0, 0.0, 0.0)">
      <use ffdec:characterId="5" ffdec:characterName="97_fla.Symbole12_2" height="56.0" id="back" transform="matrix(1.0, 0.0, 0.0, 1.0, 0.0, 0.0)" width="56.0" xlink:href="#sprite1"/>
    </g>
    <g id="sprite1" transform="matrix(1.0, 0.0, 0.0, 1.0, 0.0, 0.0)">
      <use ffdec:characterId="4" ffdec:characterName="97_fla.Symbole9_3" height="56.0" id="back" transform="matrix(1.0, 0.0, 0.0, 1.0, 0.0, 0.0)" width="56.0" xlink:href="#sprite2"/>
    </g>
    <g id="sprite2" transform="matrix(1.0, 0.0, 0.0, 1.0, 0.0, 0.0)">
      <use ffdec:characterId="3" ffdec:characterName="97_fla.Symbole6_4" height="56.0" id="back" transform="matrix(1.0, 0.0, 0.0, 1.0, 0.0, 0.0)" width="56.0" xlink:href="#sprite3"/>
    </g>
    <g id="sprite3" transform="matrix(1.0, 0.0, 0.0, 1.0, 0.0, 0.0)">
      <use ffdec:characterId="2" height="56.0" id="back" transform="matrix(1.0, 0.0, 0.0, 1.0, 0.0, 0.0)" width="56.0" xlink:href="#sprite4"/>
    </g>
    <g id="sprite4" transform="matrix(1.0, 0.0, 0.0, 1.0, 0.0, 0.0)">
      <use ffdec:characterId="1" height="56.0" transform="matrix(1.0, 0.0, 0.0, 1.0, 0.0, 0.0)" width="56.0" xlink:href="#shape0"/>
    </g>
    <g id="shape0" transform="matrix(1.0, 0.0, 0.0, 1.0, 0.0, 0.0)">
      <path d="M56.0 56.0 L0.0 56.0 0.0 0.0 56.0 0.0 56.0 56.0" fill="#010101" fill-opacity="0.0" fill-rule="evenodd" stroke="none"/>
    </g>
    <g id="sprite5" transform="matrix(1.0, 0.0, 0.0, 1.0, 0.75, 0.75)">
      <use ffdec:characterId="7" height="55.55" transform="matrix(1.0, 0.0, 0.0, 1.0, -0.75, -0.75)" width="50.35" xlink:href="#shape1"/>
    </g>
    <g id="shape1" transform="matrix(1.0, 0.0, 0.0, 1.0, 0.75, 0.75)">
      <path d="M48.85 0.0 L16.15 29.6 11.95 30.3 9.45 27.6 7.55 29.35 13.35 35.15 12.6 37.9 11.9 38.55 11.95 38.65 11.45 39.0 11.95 39.55 4.0 47.55 3.15 46.4 0.45 48.85 Q-0.45 51.2 0.4 52.4 0.7 52.95 1.6 53.4 2.9 54.0 5.05 54.05 L7.5 51.9 6.85 51.05 15.25 43.05 15.55 43.3 16.6 42.4 19.1 41.6 25.65 48.45 27.4 46.65 24.8 43.8 25.2 40.0 30.9 34.9 30.55 34.0 33.2 32.85 41.45 26.55 41.3 25.05 42.3 25.8 43.3 24.9 42.6 21.75 44.95 23.5 48.8 19.95 48.85 0.0 M47.5 10.9 L47.5 2.85 16.7 30.6 13.5 31.3 18.85 36.6 48.65 10.2 47.5 10.9 Z" fill="none" stroke="#000000" stroke-linecap="round" stroke-linejoin="round" stroke-opacity="0.2" stroke-width="1.5"/>
    </g>
    <g id="sprite6" transform="matrix(1.0, 0.0, 0.0, 1.0, 0.0, 0.0)">
      <use ffdec:characterId="9" height="54.05" transform="matrix(1.0, 0.0, 0.0, 1.0, 0.0, 0.0)" width="48.85" xlink:href="#shape2"/>
    </g>
    <g id="shape2" transform="matrix(1.0, 0.0, 0.0, 1.0, 0.0, 0.0)">
      <path d="M47.5 2.8 L16.7 30.55 13.45 31.25 18.85 36.6 48.65 10.15 47.5 10.9 47.5 2.8 M15.55 43.35 L15.45 43.35 15.55 43.3 15.55 43.35 M48.85 0.0 L48.8 19.95 45.0 23.5 42.6 21.75 43.35 24.85 42.35 25.8 41.3 25.0 41.45 26.5 33.2 32.85 30.55 34.0 30.9 34.85 25.15 40.0 24.8 43.8 27.4 46.6 25.65 48.4 19.15 41.55 16.6 42.35 15.55 43.3 15.25 43.0 6.85 51.0 7.5 51.85 5.05 54.05 1.6 53.4 Q0.7 52.95 0.4 52.4 -0.45 51.15 0.45 48.85 L3.1 46.4 4.0 47.55 11.95 39.55 11.45 38.95 11.95 38.6 11.9 38.55 12.6 37.9 13.3 35.15 7.6 29.3 9.45 27.6 11.95 30.25 16.1 29.6 48.85 0.0" fill="#000000" fill-rule="evenodd" stroke="none"/>
    </g>
  </defs>
</svg>
