<?xml version="1.0" encoding="UTF-8" standalone="no"?>
<svg xmlns:ffdec="https://www.free-decompiler.com/flash" xmlns:xlink="http://www.w3.org/1999/xlink" ffdec:objectType="frame" height="56.0px" width="56.0px" xmlns="http://www.w3.org/2000/svg">
  <g transform="matrix(1.0, 0.0, 0.0, 1.0, 0.0, 0.0)">
    <use ffdec:characterId="7" ffdec:characterName="98_fla.Symbole18_1" height="56.0" id="back" transform="matrix(1.0, 0.0, 0.0, 1.0, 0.0, 0.0)" width="56.0" xlink:href="#sprite0"/>
    <use ffdec:characterId="9" height="55.55" id="back" transform="matrix(1.0, 0.0, 0.0, 1.0, 9.5, 0.45)" width="37.2" xlink:href="#sprite6"/>
    <use ffdec:characterId="11" height="54.05" id="up" transform="matrix(1.0, 0.0, 0.0, 1.0, 10.2, 1.15)" width="35.7" xlink:href="#sprite7"/>
  </g>
  <defs>
    <g id="sprite0" transform="matrix(1.0, 0.0, 0.0, 1.0, 0.0, 0.0)">
      <use ffdec:characterId="6" ffdec:characterName="98_fla.Symbole15_2" height="56.0" id="back" transform="matrix(1.0, 0.0, 0.0, 1.0, 0.0, 0.0)" width="56.0" xlink:href="#sprite1"/>
    </g>
    <g id="sprite1" transform="matrix(1.0, 0.0, 0.0, 1.0, 0.0, 0.0)">
      <use ffdec:characterId="5" ffdec:characterName="98_fla.Symbole12_3" height="56.0" id="back" transform="matrix(1.0, 0.0, 0.0, 1.0, 0.0, 0.0)" width="56.0" xlink:href="#sprite2"/>
    </g>
    <g id="sprite2" transform="matrix(1.0, 0.0, 0.0, 1.0, 0.0, 0.0)">
      <use ffdec:characterId="4" ffdec:characterName="98_fla.Symbole9_4" height="56.0" id="back" transform="matrix(1.0, 0.0, 0.0, 1.0, 0.0, 0.0)" width="56.0" xlink:href="#sprite3"/>
    </g>
    <g id="sprite3" transform="matrix(1.0, 0.0, 0.0, 1.0, 0.0, 0.0)">
      <use ffdec:characterId="3" ffdec:characterName="98_fla.Symbole6_5" height="56.0" id="back" transform="matrix(1.0, 0.0, 0.0, 1.0, 0.0, 0.0)" width="56.0" xlink:href="#sprite4"/>
    </g>
    <g id="sprite4" transform="matrix(1.0, 0.0, 0.0, 1.0, 0.0, 0.0)">
      <use ffdec:characterId="2" height="56.0" id="back" transform="matrix(1.0, 0.0, 0.0, 1.0, 0.0, 0.0)" width="56.0" xlink:href="#sprite5"/>
    </g>
    <g id="sprite5" transform="matrix(1.0, 0.0, 0.0, 1.0, 0.0, 0.0)">
      <use ffdec:characterId="1" height="56.0" transform="matrix(1.0, 0.0, 0.0, 1.0, 0.0, 0.0)" width="56.0" xlink:href="#shape0"/>
    </g>
    <g id="shape0" transform="matrix(1.0, 0.0, 0.0, 1.0, 0.0, 0.0)">
      <path d="M56.0 56.0 L0.0 56.0 0.0 0.0 56.0 0.0 56.0 56.0" fill="#010101" fill-opacity="0.0" fill-rule="evenodd" stroke="none"/>
    </g>
    <g id="sprite6" transform="matrix(1.0, 0.0, 0.0, 1.0, 0.75, 0.75)">
      <use ffdec:characterId="8" height="55.55" transform="matrix(1.0, 0.0, 0.0, 1.0, -0.75, -0.75)" width="37.2" xlink:href="#shape1"/>
    </g>
    <g id="shape1" transform="matrix(1.0, 0.0, 0.0, 1.0, 0.75, 0.75)">
      <path d="M31.0 26.5 L31.15 26.9 Q34.4 34.65 35.7 42.85 35.7 47.05 32.55 50.0 L31.75 50.65 Q29.8 52.2 27.05 52.95 L25.0 53.45 25.3 53.65 24.2 53.6 16.5 54.05 12.35 53.65 Q6.2 52.95 3.1 50.0 -0.1 47.05 0.0 42.85 L0.0 42.65 0.0 42.35 4.4 27.45 6.45 22.6 6.7 22.4 Q5.05 21.15 5.05 19.6 5.05 17.2 8.55 15.5 L8.95 17.3 8.95 15.5 Q8.7 14.45 8.7 13.4 8.55 9.7 11.35 7.05 12.85 5.4 14.85 4.7 L15.4 4.65 Q14.8 3.85 14.85 3.0 14.85 1.75 15.7 0.95 16.5 0.0 17.75 0.0 19.05 0.0 19.9 0.95 20.75 1.75 20.75 3.0 L20.3 4.7 Q22.4 5.2 24.25 7.05 26.9 9.7 26.9 13.4 L26.7 15.5 26.85 15.5 Q30.5 17.2 30.5 19.6 30.5 21.0 28.95 22.25 L29.15 22.6 29.3 22.8 29.55 23.2 30.35 24.8 31.0 26.5 M32.1 44.05 Q31.95 46.55 30.25 46.75 29.3 46.75 29.3 45.05 L28.75 39.55 27.45 32.15 Q26.9 30.0 27.7 29.7 28.45 29.5 29.15 31.0 30.95 34.25 31.6 37.85 32.2 41.55 32.1 44.05 M25.0 10.9 Q25.0 11.8 24.25 12.4 23.75 13.05 22.8 13.05 22.0 13.05 21.55 12.55 L21.3 12.4 Q20.75 11.8 20.75 10.9 20.75 10.0 21.3 9.4 L21.75 9.05 22.8 8.9 Q23.75 8.9 24.25 9.4 25.0 10.0 25.0 10.9 M27.85 17.5 Q27.3 17.3 26.85 17.65 18.35 22.45 8.15 17.5 7.7 17.3 7.25 17.5 6.7 17.65 6.45 18.3 6.2 18.7 6.45 19.15 6.55 19.6 7.1 19.95 18.65 25.45 28.15 19.85 28.7 19.6 28.75 19.15 L28.7 18.15 27.85 17.5 Z" fill="none" stroke="#000000" stroke-linecap="round" stroke-linejoin="round" stroke-opacity="0.2" stroke-width="1.5"/>
    </g>
    <g id="sprite7" transform="matrix(1.0, 0.0, 0.0, 1.0, 0.0, 0.0)">
      <use ffdec:characterId="10" height="54.05" transform="matrix(1.0, 0.0, 0.0, 1.0, 0.0, 0.0)" width="35.7" xlink:href="#shape2"/>
    </g>
    <g id="shape2" transform="matrix(1.0, 0.0, 0.0, 1.0, 0.0, 0.0)">
      <path d="M32.15 44.05 Q32.2 41.55 31.6 37.9 30.95 34.3 29.2 31.1 28.45 29.55 27.75 29.75 26.9 30.05 27.45 32.2 L28.75 39.6 29.35 45.1 Q29.35 46.8 30.3 46.8 32.0 46.55 32.15 44.05 M16.5 54.05 L12.4 53.7 Q6.25 53.05 3.15 50.0 -0.05 47.1 0.0 42.9 L0.0 42.7 0.0 42.4 4.4 27.5 6.45 22.65 6.7 22.4 Q5.05 21.15 5.05 19.6 5.05 17.25 8.6 15.5 L8.95 17.35 8.95 15.5 8.75 13.45 Q8.6 9.7 11.4 7.05 12.85 5.45 14.9 4.7 L15.4 4.65 Q14.8 3.9 14.9 3.05 14.9 1.8 15.7 1.0 16.5 0.0 17.75 0.0 19.1 0.0 19.95 1.0 20.75 1.8 20.75 3.05 L20.3 4.7 Q22.45 5.25 24.3 7.05 26.9 9.7 26.9 13.45 L26.7 15.5 26.85 15.5 Q30.5 17.25 30.5 19.6 30.5 21.0 29.0 22.25 L29.2 22.65 29.35 22.85 29.55 23.2 30.35 24.85 31.05 26.5 31.2 26.95 Q34.4 34.65 35.7 42.9 35.7 47.1 32.55 50.0 L31.75 50.7 Q29.8 52.2 27.05 53.05 L25.0 53.45 25.3 53.7 24.2 53.6 16.5 54.05 M25.0 10.95 Q25.0 10.0 24.3 9.4 23.75 8.9 22.8 8.9 L21.8 9.1 Q21.55 9.2 21.35 9.4 20.75 10.0 20.75 10.95 20.75 11.85 21.35 12.45 L21.55 12.55 Q22.0 13.1 22.8 13.1 23.75 13.1 24.3 12.45 25.0 11.85 25.0 10.95 M27.9 17.55 Q27.3 17.35 26.85 17.7 18.35 22.5 8.15 17.55 7.7 17.35 7.25 17.55 6.7 17.7 6.45 18.3 6.25 18.75 6.45 19.2 6.55 19.6 7.1 20.0 18.7 25.5 28.15 19.85 L28.75 19.2 Q28.9 18.6 28.7 18.15 28.3 17.7 27.9 17.55" fill="#000000" fill-rule="evenodd" stroke="none"/>
      <path d="M24.2 53.6 L23.25 53.7 17.75 54.05 16.5 54.05 24.2 53.6" fill="#666600" fill-rule="evenodd" stroke="none"/>
    </g>
  </defs>
</svg>
