<?xml version="1.0" encoding="UTF-8" standalone="no"?>
<svg xmlns:ffdec="https://www.free-decompiler.com/flash" xmlns:xlink="http://www.w3.org/1999/xlink" ffdec:objectType="frame" height="56.0px" width="56.0px" xmlns="http://www.w3.org/2000/svg">
  <g transform="matrix(1.0, 0.0, 0.0, 1.0, 0.0, 0.0)">
    <use ffdec:characterId="8" ffdec:characterName="99_fla.Symbole21_1" height="56.0" id="back" transform="matrix(1.0, 0.0, 0.0, 1.0, 0.0, 0.0)" width="56.0" xlink:href="#sprite0"/>
    <use ffdec:characterId="10" height="51.45" id="back" transform="matrix(1.0, 0.0, 0.0, 1.0, 0.4, 2.2)" width="55.4" xlink:href="#sprite7"/>
    <use ffdec:characterId="12" height="50.0" id="up" transform="matrix(1.0, 0.0, 0.0, 1.0, 1.15, 2.95)" width="53.9" xlink:href="#sprite8"/>
  </g>
  <defs>
    <g id="sprite0" transform="matrix(1.0, 0.0, 0.0, 1.0, 0.0, 0.0)">
      <use ffdec:characterId="7" ffdec:characterName="99_fla.Symbole18_2" height="56.0" id="back" transform="matrix(1.0, 0.0, 0.0, 1.0, 0.0, 0.0)" width="56.0" xlink:href="#sprite1"/>
    </g>
    <g id="sprite1" transform="matrix(1.0, 0.0, 0.0, 1.0, 0.0, 0.0)">
      <use ffdec:characterId="6" ffdec:characterName="99_fla.Symbole15_3" height="56.0" id="back" transform="matrix(1.0, 0.0, 0.0, 1.0, 0.0, 0.0)" width="56.0" xlink:href="#sprite2"/>
    </g>
    <g id="sprite2" transform="matrix(1.0, 0.0, 0.0, 1.0, 0.0, 0.0)">
      <use ffdec:characterId="5" ffdec:characterName="99_fla.Symbole12_4" height="56.0" id="back" transform="matrix(1.0, 0.0, 0.0, 1.0, 0.0, 0.0)" width="56.0" xlink:href="#sprite3"/>
    </g>
    <g id="sprite3" transform="matrix(1.0, 0.0, 0.0, 1.0, 0.0, 0.0)">
      <use ffdec:characterId="4" ffdec:characterName="99_fla.Symbole9_5" height="56.0" id="back" transform="matrix(1.0, 0.0, 0.0, 1.0, 0.0, 0.0)" width="56.0" xlink:href="#sprite4"/>
    </g>
    <g id="sprite4" transform="matrix(1.0, 0.0, 0.0, 1.0, 0.0, 0.0)">
      <use ffdec:characterId="3" ffdec:characterName="99_fla.Symbole6_6" height="56.0" id="back" transform="matrix(1.0, 0.0, 0.0, 1.0, 0.0, 0.0)" width="56.0" xlink:href="#sprite5"/>
    </g>
    <g id="sprite5" transform="matrix(1.0, 0.0, 0.0, 1.0, 0.0, 0.0)">
      <use ffdec:characterId="2" height="56.0" id="back" transform="matrix(1.0, 0.0, 0.0, 1.0, 0.0, 0.0)" width="56.0" xlink:href="#sprite6"/>
    </g>
    <g id="sprite6" transform="matrix(1.0, 0.0, 0.0, 1.0, 0.0, 0.0)">
      <use ffdec:characterId="1" height="56.0" transform="matrix(1.0, 0.0, 0.0, 1.0, 0.0, 0.0)" width="56.0" xlink:href="#shape0"/>
    </g>
    <g id="shape0" transform="matrix(1.0, 0.0, 0.0, 1.0, 0.0, 0.0)">
      <path d="M56.0 56.0 L0.0 56.0 0.0 0.0 56.0 0.0 56.0 56.0" fill="#010101" fill-opacity="0.0" fill-rule="evenodd" stroke="none"/>
    </g>
    <g id="sprite7" transform="matrix(1.0, 0.0, 0.0, 1.0, 0.75, 0.75)">
      <use ffdec:characterId="9" height="51.45" transform="matrix(1.0, 0.0, 0.0, 1.0, -0.75, -0.75)" width="55.4" xlink:href="#shape1"/>
    </g>
    <g id="shape1" transform="matrix(1.0, 0.0, 0.0, 1.0, 0.75, 0.75)">
      <path d="M45.4 5.55 L41.15 2.35 43.2 7.95 39.4 13.75 38.35 12.85 Q34.85 10.1 30.3 9.45 L32.1 2.65 32.85 2.9 33.2 1.05 29.95 0.45 29.95 2.1 30.25 2.2 29.4 9.3 26.6 9.15 25.9 9.15 25.9 9.35 Q19.9 9.65 15.55 13.0 L14.6 13.9 10.7 8.1 12.75 2.5 8.5 5.7 6.05 0.15 6.2 5.85 0.65 7.2 5.65 8.85 0.0 13.45 8.2 11.15 13.65 14.7 Q10.7 17.9 10.7 22.0 L10.9 24.05 Q11.75 28.0 15.55 30.9 L19.15 33.05 Q18.0 33.1 16.9 33.6 15.35 34.15 14.65 35.2 14.0 36.2 14.6 37.0 15.2 37.8 16.75 37.9 18.3 37.95 19.9 37.35 L20.4 37.15 20.2 37.55 19.95 38.2 14.0 40.4 13.8 39.8 12.15 40.5 13.55 43.55 15.05 42.55 14.75 42.25 19.8 39.5 Q19.75 41.0 20.5 42.35 L19.5 42.65 Q17.9 43.4 16.75 44.9 15.7 46.45 15.8 47.85 15.95 49.25 17.05 49.75 L19.9 49.55 Q21.55 48.75 22.55 47.25 23.4 46.15 23.6 45.15 25.25 45.85 27.4 45.85 L27.55 45.85 28.0 45.65 30.3 45.0 Q30.55 46.0 31.35 47.1 32.4 48.6 34.0 49.4 L36.85 49.6 Q38.0 49.1 38.15 47.7 38.2 46.3 37.15 44.75 36.05 43.25 34.4 42.5 L33.5 42.2 Q34.7 39.95 33.7 37.4 L33.5 37.0 34.0 37.2 37.15 37.75 Q38.7 37.65 39.3 36.85 39.9 36.05 39.25 35.05 38.55 34.0 37.0 33.45 35.9 33.0 34.85 32.9 L38.35 30.75 39.25 30.1 44.55 34.3 44.15 34.85 45.6 35.95 47.45 33.2 45.95 32.4 45.75 32.75 40.05 29.35 Q42.35 26.95 43.0 23.95 L43.2 21.85 Q43.2 17.75 40.25 14.55 L45.75 11.0 53.9 13.3 48.25 8.7 53.3 7.1 47.7 5.8 47.85 0.0 45.4 5.55 M39.55 19.55 L38.95 19.25 Q38.4 18.8 37.6 18.95 36.8 19.0 36.2 19.55 L34.7 20.9 Q32.45 19.55 31.85 19.6 31.1 19.7 30.45 20.3 L29.95 20.85 Q29.35 21.4 29.35 22.05 29.35 22.6 29.95 23.05 L31.4 24.0 29.95 25.35 Q29.35 25.9 29.35 26.45 29.35 27.1 29.95 27.55 L30.45 27.95 31.85 28.15 33.3 27.55 34.7 26.2 36.55 27.4 37.6 27.4 Q38.3 27.4 38.95 26.8 L39.55 26.3 40.05 25.4 40.15 25.05 Q40.15 24.45 39.55 24.0 L38.05 23.1 39.55 21.85 Q40.15 21.25 40.15 20.55 40.15 19.9 39.55 19.55 M23.45 20.4 L24.0 20.95 Q24.55 21.55 24.55 22.2 24.55 22.75 24.0 23.15 L22.5 24.15 24.0 25.5 Q24.55 26.05 24.55 26.6 24.55 27.25 24.0 27.7 L23.45 28.1 22.05 28.3 Q21.2 28.15 20.65 27.7 L19.2 26.35 17.35 27.55 16.3 27.55 Q15.65 27.55 15.0 26.95 L14.35 26.4 13.85 25.55 13.8 25.2 Q13.8 24.6 14.35 24.15 L15.85 23.25 14.35 22.0 Q13.8 21.4 13.8 20.7 13.8 20.05 14.35 19.7 L15.0 19.4 Q15.5 18.95 16.3 19.1 17.1 19.15 17.75 19.7 L19.2 21.05 Q21.45 19.7 22.05 19.75 22.8 19.85 23.45 20.4 M17.05 29.15 L16.75 29.35 Q16.6 29.55 16.7 29.8 L17.0 30.15 Q21.05 32.6 26.6 32.85 L26.8 32.7 Q32.7 32.6 36.95 30.0 L37.25 29.65 37.15 29.2 36.85 29.05 Q36.6 28.9 36.4 29.05 32.75 31.2 28.0 31.55 L28.0 31.7 27.1 31.7 Q21.6 31.65 17.5 29.15 L17.05 29.15 Z" fill="none" stroke="#000000" stroke-linecap="round" stroke-linejoin="round" stroke-opacity="0.2" stroke-width="1.5"/>
    </g>
    <g id="sprite8" transform="matrix(1.0, 0.0, 0.0, 1.0, 0.0, 0.0)">
      <use ffdec:characterId="11" height="50.0" transform="matrix(1.0, 0.0, 0.0, 1.0, 0.0, 0.0)" width="53.9" xlink:href="#shape2"/>
    </g>
    <g id="shape2" transform="matrix(1.0, 0.0, 0.0, 1.0, 0.0, 0.0)">
      <path d="M45.4 5.6 L47.85 0.0 47.7 5.8 53.25 7.15 48.3 8.75 53.9 13.35 45.75 11.0 40.25 14.6 Q43.2 17.75 43.2 21.85 L43.0 23.95 Q42.35 27.0 40.05 29.4 L45.75 32.8 45.95 32.45 47.45 33.2 45.6 35.95 44.1 34.9 44.55 34.35 39.25 30.1 38.35 30.8 34.85 32.95 Q35.9 33.0 37.0 33.5 38.55 34.05 39.25 35.1 39.9 36.1 39.35 36.9 38.7 37.7 37.15 37.8 L34.0 37.25 33.5 37.0 33.7 37.45 Q34.7 40.0 33.5 42.25 L34.4 42.5 Q36.05 43.3 37.15 44.75 38.2 46.3 38.15 47.75 38.0 49.15 36.9 49.65 L34.0 49.4 Q32.35 48.65 31.3 47.15 30.55 46.05 30.35 45.05 L28.0 45.7 27.5 45.9 27.4 45.9 Q25.25 45.9 23.6 45.2 L22.6 47.3 Q21.55 48.8 19.9 49.55 L17.05 49.8 Q15.9 49.3 15.75 47.85 15.7 46.45 16.75 44.9 17.9 43.45 19.5 42.65 L20.5 42.35 Q19.7 41.05 19.8 39.55 L14.8 42.3 15.05 42.6 13.6 43.55 12.1 40.55 13.8 39.85 14.0 40.45 20.0 38.2 20.2 37.6 20.4 37.15 19.9 37.35 Q18.3 38.0 16.75 37.95 15.2 37.85 14.55 37.0 14.0 36.25 14.65 35.25 15.35 34.2 16.9 33.65 L19.15 33.05 Q17.15 32.2 15.55 30.95 11.75 28.05 10.9 24.1 L10.7 22.0 Q10.7 17.9 13.65 14.75 L8.15 11.15 0.0 13.45 5.65 8.9 0.65 7.25 6.2 5.95 6.05 0.15 8.5 5.7 12.75 2.55 10.7 8.1 14.55 13.9 15.55 13.05 Q19.9 9.65 25.9 9.4 L25.9 9.15 26.6 9.15 29.4 9.3 30.25 2.25 29.9 2.1 29.9 0.5 33.2 1.05 32.85 2.9 32.1 2.7 30.35 9.45 Q34.85 10.15 38.35 12.9 L39.4 13.75 43.2 7.95 41.15 2.4 45.4 5.6 M39.55 19.6 L38.9 19.25 Q38.4 18.85 37.6 18.95 36.8 19.05 36.15 19.6 L34.7 20.95 Q32.45 19.6 31.9 19.65 31.1 19.75 30.45 20.3 L29.9 20.85 Q29.35 21.45 29.35 22.05 29.35 22.65 29.9 23.05 L31.4 24.05 29.9 25.4 Q29.35 25.95 29.35 26.5 29.35 27.15 29.9 27.55 L30.45 28.0 31.9 28.2 Q32.7 28.05 33.3 27.55 L34.7 26.25 36.5 27.45 37.6 27.45 Q38.3 27.45 38.9 26.85 L39.55 26.3 40.05 25.45 40.1 25.1 Q40.1 24.45 39.55 24.05 L38.05 23.15 39.55 21.85 Q40.1 21.3 40.1 20.6 40.1 19.95 39.55 19.6 M24.0 21.0 L23.45 20.45 Q22.8 19.9 22.05 19.8 21.45 19.75 19.2 21.1 L17.75 19.75 Q17.1 19.2 16.35 19.1 15.5 18.95 15.0 19.4 L14.35 19.75 Q13.8 20.1 13.8 20.75 13.8 21.45 14.35 22.0 L15.85 23.25 14.35 24.2 Q13.8 24.6 13.8 25.25 L13.85 25.6 14.35 26.45 15.0 27.0 Q15.6 27.55 16.35 27.55 L17.4 27.55 19.2 26.35 20.6 27.7 Q21.2 28.2 22.05 28.35 L23.45 28.15 24.0 27.7 Q24.55 27.3 24.55 26.65 24.55 26.1 24.0 25.55 L22.5 24.2 24.0 23.2 Q24.55 22.8 24.55 22.2 24.55 21.6 24.0 21.0 M16.7 29.85 L16.95 30.2 Q21.05 32.65 26.6 32.85 L26.8 32.7 Q32.65 32.65 36.95 30.05 L37.25 29.7 37.15 29.25 36.9 29.05 Q36.6 28.9 36.4 29.05 32.7 31.25 28.0 31.6 L28.0 31.75 27.1 31.75 Q21.6 31.65 17.5 29.2 17.3 29.05 17.05 29.2 L16.75 29.4 Q16.6 29.6 16.7 29.85" fill="#000000" fill-rule="evenodd" stroke="none"/>
    </g>
  </defs>
</svg>
