<?xml version="1.0" encoding="UTF-8" standalone="no"?>
<svg xmlns:ffdec="https://www.free-decompiler.com/flash" xmlns:xlink="http://www.w3.org/1999/xlink" ffdec:objectType="shape" height="40.0px" width="39.85px" xmlns="http://www.w3.org/2000/svg">
  <g transform="matrix(1.0, 0.0, 0.0, 1.0, -6.35, -1.9)">
    <path d="M45.2 1.9 L45.85 2.15 46.2 2.8 46.05 3.45 41.85 9.75 41.8 9.85 41.8 26.3 41.8 26.4 41.45 28.65 41.35 29.05 Q40.4 33.1 38.0 35.05 36.75 36.05 34.85 36.95 L34.65 37.05 33.45 37.55 31.6 38.3 29.8 39.15 29.75 39.15 29.7 39.15 Q29.3 39.35 28.95 39.65 L28.85 39.7 Q27.65 40.45 27.15 41.4 L26.6 41.85 25.9 41.85 25.35 41.35 25.0 40.8 Q23.8 39.45 21.0 38.3 L17.75 37.0 17.7 36.95 17.05 36.65 17.0 36.65 16.95 36.6 16.9 36.6 14.5 35.05 14.6 35.1 14.25 34.8 14.2 34.75 13.4 33.95 Q11.85 32.05 11.15 28.95 L10.75 26.4 10.75 26.3 10.7 9.9 8.25 6.1 8.2 6.0 6.55 3.45 Q6.3 3.15 6.35 2.8 6.4 2.4 6.7 2.15 7.0 1.9 7.35 1.9 L45.2 1.9 M40.0 9.05 L40.2 8.7 40.4 8.45 14.7 8.45 19.1 15.15 19.15 31.85 19.5 34.25 19.85 35.7 21.75 36.45 Q24.8 37.75 26.25 39.25 26.85 38.6 27.75 38.05 L27.7 38.05 Q28.2 37.65 28.85 37.4 L28.9 37.35 30.8 36.45 30.85 36.45 32.7 35.7 32.65 35.7 34.15 35.1 36.75 33.5 Q38.65 31.85 39.45 28.5 L39.45 28.35 39.5 28.3 39.8 26.2 39.8 9.6 40.0 9.05 39.8 9.6 39.8 26.2 39.5 28.3 39.45 28.35 39.45 28.5 Q38.65 31.85 36.75 33.5 L34.15 35.1 32.65 35.7 32.7 35.7 30.85 36.45 30.8 36.45 28.9 37.35 28.85 37.4 Q28.2 37.65 27.7 38.05 L27.75 38.05 Q26.85 38.6 26.25 39.25 24.8 37.75 21.75 36.45 L19.85 35.7 19.5 34.25 19.15 31.85 19.1 15.15 14.7 8.45 40.4 8.45 40.2 8.7 40.0 9.05" fill="#f3efba" fill-rule="evenodd" stroke="none"/>
  </g>
</svg>
