<?xml version="1.0" encoding="UTF-8" standalone="no"?>
<svg xmlns:ffdec="https://www.free-decompiler.com/flash" xmlns:xlink="http://www.w3.org/1999/xlink" ffdec:objectType="shape" height="40.0px" width="39.85px" xmlns="http://www.w3.org/2000/svg">
  <g transform="matrix(1.0, 0.0, 0.0, 1.0, 1.0, 1.0)">
    <path d="M38.0 0.1 L34.55 5.35 7.55 5.35 11.9 12.1 11.9 27.8 11.95 28.75 12.35 31.15 Q12.7 33.05 13.5 34.4 L10.8 33.25 7.85 31.5 Q5.6 29.7 4.8 25.95 L4.4 23.55 4.35 22.6 4.35 6.85 0.0 0.1 38.0 0.1" fill="#000000" fill-opacity="0.12156863" fill-rule="evenodd" stroke="none"/>
    <path d="M32.85 5.8 L32.75 5.95 32.85 5.8 M7.25 32.2 L7.15 32.15 7.25 32.2" fill="#959595" fill-rule="evenodd" stroke="none"/>
    <path d="M32.75 5.95 Q32.6 6.2 32.7 6.55 L32.5 6.5 Q32.5 6.3 32.65 6.15 L32.75 5.95 M20.4 35.15 L20.35 35.15 20.4 35.1 20.4 35.15" fill="#666666" fill-rule="evenodd" stroke="none"/>
    <path d="M35.15 -1.0 Q35.5 -1.0 35.8 -0.7 L36.1 0.0 35.8 0.7 Q35.5 1.0 35.15 1.0 L1.85 1.0 2.5 2.0 2.6 2.1 2.75 2.85 2.3 3.5 1.55 3.65 0.95 3.2 0.85 3.1 -0.8 0.55 -1.0 -0.1 -0.65 -0.75 0.0 -1.0 35.15 -1.0" fill="#dddddd" fill-rule="evenodd" stroke="none"/>
    <path d="M35.15 -1.0 L37.85 -1.0 38.5 -0.75 38.85 -0.1 38.7 0.55 34.5 6.85 34.5 6.9 33.85 7.35 33.1 7.2 Q32.75 6.95 32.7 6.55 32.6 6.2 32.75 5.95 L32.85 5.8 36.0 1.0 35.15 1.0 Q35.5 1.0 35.8 0.7 L36.1 0.0 35.8 -0.7 Q35.5 -1.0 35.15 -1.0 M9.7 33.75 L9.65 33.75 9.6 33.7 9.55 33.7 Q8.15 32.95 7.25 32.2 L6.9 31.9 6.85 31.85 6.05 31.05 Q4.5 29.15 3.8 26.05 L3.4 23.5 3.4 23.4 3.35 7.0 0.9 3.2 0.85 3.1 0.95 3.2 1.55 3.65 2.3 3.5 2.75 2.85 2.6 2.1 2.5 2.0 2.6 2.15 5.2 6.2 5.35 6.7 5.4 23.35 5.75 25.6 Q6.3 28.15 7.55 29.75 L7.6 29.8 8.2 30.4 8.25 30.45 8.35 30.55 8.45 30.6 10.45 31.9 10.5 31.9 11.0 32.5 10.95 33.25 10.35 33.75 9.7 33.75" fill="#b7b7b7" fill-rule="evenodd" stroke="none"/>
    <path d="M32.7 6.55 Q32.75 6.95 33.1 7.2 L33.85 7.35 34.5 6.9 34.45 6.95 34.45 20.55 34.15 21.2 33.45 21.5 Q33.05 21.5 32.75 21.2 L32.45 20.55 32.45 6.7 32.5 6.5 32.7 6.55 M22.45 36.25 L22.4 36.25 22.35 36.25 21.6 36.75 21.5 36.8 Q20.3 37.55 19.8 38.5 L19.25 38.95 18.55 38.95 Q18.15 38.8 18.0 38.45 L17.65 37.9 Q16.45 36.55 13.65 35.4 L10.4 34.1 10.35 34.05 9.7 33.75 10.35 33.75 10.95 33.25 11.0 32.5 10.5 31.9 11.2 32.25 11.25 32.25 14.4 33.55 Q17.45 34.85 18.9 36.35 L20.4 35.15 20.4 35.1 Q20.9 34.75 21.5 34.5 L21.55 34.45 Q21.9 34.3 22.3 34.45 22.7 34.55 22.85 34.95 L22.9 35.7 22.45 36.25" fill="#949494" fill-rule="evenodd" stroke="none"/>
    <path d="M34.45 20.55 L34.45 23.4 34.45 23.5 34.1 25.75 34.0 26.15 Q33.05 30.2 30.65 32.15 L27.5 34.05 27.3 34.15 26.1 34.65 Q25.3 34.95 24.25 35.4 L22.45 36.25 22.9 35.7 22.85 34.95 Q22.7 34.55 22.3 34.45 21.9 34.3 21.55 34.45 L23.45 33.55 23.5 33.55 Q24.6 33.05 25.35 32.8 L25.3 32.8 26.8 32.2 29.4 30.6 Q31.3 28.95 32.1 25.6 L32.1 25.45 32.15 25.4 32.45 23.3 32.45 20.55 32.75 21.2 Q33.05 21.5 33.45 21.5 L34.15 21.2 34.45 20.55" fill="#808080" fill-rule="evenodd" stroke="none"/>
  </g>
</svg>
