<?xml version="1.0" encoding="UTF-8" standalone="no"?>
<svg xmlns:ffdec="https://www.free-decompiler.com/flash" xmlns:xlink="http://www.w3.org/1999/xlink" ffdec:objectType="shape" height="39.25px" width="37.5px" xmlns="http://www.w3.org/2000/svg">
  <g transform="matrix(1.0, 0.0, 0.0, 1.0, -2.0, -0.6)">
    <path d="M10.1 0.6 L30.6 0.6 31.05 0.75 31.3 0.9 31.6 1.6 31.6 1.65 31.65 2.5 Q31.9 4.7 33.7 6.45 35.45 8.25 37.05 8.75 L39.05 9.05 39.15 9.0 39.1 9.05 39.5 10.35 39.35 15.25 39.35 15.3 39.35 15.45 Q38.3 23.45 35.3 28.6 L35.25 28.7 34.8 29.4 Q32.85 32.3 29.95 34.75 26.65 37.45 22.0 39.5 L21.5 39.7 21.35 39.75 20.7 39.85 20.6 39.85 20.65 39.75 Q14.2 36.9 11.3 34.5 L11.35 34.5 Q8.5 32.15 6.65 29.35 3.2 23.95 2.15 15.4 L2.15 15.3 Q2.0 12.45 2.0 9.45 L2.0 9.35 Q2.0 9.0 2.25 8.75 L2.25 8.7 2.65 8.45 2.85 8.35 2.9 8.35 3.9 8.25 Q5.7 7.85 7.15 6.45 L7.15 6.4 Q8.75 4.7 9.05 2.5 L9.1 1.65 9.1 1.6 9.35 0.95 9.4 0.9 Q9.7 0.6 10.1 0.6 M39.2 8.95 L39.3 8.9 39.35 8.9 39.2 8.95" fill="#f2eeba" fill-rule="evenodd" stroke="none"/>
    <path d="M31.85 1.4 L31.85 1.25 31.85 1.4" fill="#e3dfbd" fill-rule="evenodd" stroke="none"/>
  </g>
</svg>
