<?xml version="1.0" encoding="UTF-8" standalone="no"?>
<svg xmlns:ffdec="https://www.free-decompiler.com/flash" xmlns:xlink="http://www.w3.org/1999/xlink" ffdec:objectType="shape" height="39.25px" width="37.5px" xmlns="http://www.w3.org/2000/svg">
  <g transform="matrix(1.0, 0.0, 0.0, 1.0, -1.5, 0.1)">
    <path d="M30.9 5.35 L14.85 5.35 Q14.85 8.45 12.65 10.6 10.6 12.6 7.85 12.8 7.85 15.7 8.0 18.45 9.0 26.4 12.3 31.45 L14.8 34.4 Q9.6 31.45 6.7 27.25 3.35 22.15 2.4 14.25 2.25 11.5 2.25 8.6 5.0 8.4 7.05 6.4 9.25 4.2 9.25 1.15 L29.55 1.15 Q29.55 3.5 30.9 5.35" fill="#000000" fill-opacity="0.12156863" fill-rule="evenodd" stroke="none"/>
    <path d="M10.5 1.95 L10.55 1.9 10.55 2.0 10.5 1.95" fill="#cccccc" fill-rule="evenodd" stroke="none"/>
    <path d="M38.55 8.35 L38.65 8.3 38.6 8.35 38.55 8.35 M20.2 39.15 L20.15 39.15 20.1 39.15 20.15 39.05 20.2 39.05 20.2 39.15 M38.85 8.2 L38.7 8.25 38.8 8.2 38.85 8.2" fill="#959595" fill-rule="evenodd" stroke="none"/>
    <path d="M20.15 37.1 L20.25 37.1 20.15 37.1 M20.2 39.05 L20.2 39.15 20.2 39.05" fill="#454545" fill-rule="evenodd" stroke="none"/>
    <path d="M8.85 0.25 L8.9 0.2 9.6 -0.1 30.1 -0.1 30.55 0.05 29.15 1.95 29.15 1.9 10.55 1.9 10.5 1.95 8.85 0.25" fill="#dddddd" fill-rule="evenodd" stroke="none"/>
    <path d="M29.15 1.95 L30.55 0.05 30.8 0.2 31.1 0.9 31.1 0.95 31.15 1.8 Q31.4 4.0 33.2 5.75 34.95 7.55 36.55 8.05 L38.55 8.35 38.6 8.35 37.05 9.75 37.0 9.75 Q33.85 9.3 31.7 7.1 29.5 4.9 29.15 2.05 L29.15 2.0 29.15 1.95 M20.15 39.05 Q13.7 36.2 10.8 33.8 L10.85 33.8 Q8.0 31.45 6.15 28.65 2.7 23.25 1.65 14.7 L1.65 14.6 Q1.5 11.75 1.5 8.75 L1.5 8.65 Q1.5 8.3 1.75 8.05 L1.75 8.0 3.4 9.55 3.5 9.55 3.5 9.65 3.65 14.45 Q4.6 22.45 7.85 27.55 9.5 30.15 12.1 32.25 14.95 34.65 18.9 36.45 L19.3 36.7 20.15 37.1 20.2 39.05 20.15 39.05" fill="#b7b7b7" fill-rule="evenodd" stroke="none"/>
    <path d="M8.85 0.25 L10.5 1.95 10.55 2.0 10.55 2.05 Q10.2 4.9 8.1 7.1 L8.05 7.1 Q6.15 9.0 3.7 9.55 L3.6 9.55 3.5 9.55 3.4 9.55 1.75 8.0 2.15 7.75 2.35 7.65 2.4 7.65 3.4 7.55 Q5.2 7.15 6.65 5.75 L6.65 5.7 Q8.25 4.0 8.55 1.8 L8.6 0.95 8.6 0.9 Q8.6 0.55 8.85 0.25 M38.6 8.35 L39.0 9.65 38.85 14.55 38.85 14.6 38.85 14.75 Q37.8 22.75 34.8 27.9 L34.7 28.05 Q34.5 28.4 34.1 28.5 L33.35 28.35 32.9 27.75 Q32.8 27.35 33.0 27.0 L33.1 26.9 Q35.9 22.05 36.85 14.5 L37.0 10.05 37.0 9.8 37.0 9.75 37.05 9.75 38.6 8.35" fill="#949494" fill-rule="evenodd" stroke="none"/>
    <path d="M34.8 27.9 L34.75 28.0 34.3 28.7 Q32.35 31.6 29.45 34.05 26.15 36.75 21.5 38.8 L21.0 39.0 20.85 39.05 20.2 39.15 20.2 39.05 20.15 37.1 20.25 37.1 20.25 37.15 20.4 37.05 20.75 36.95 20.7 36.95 Q25.05 35.05 28.15 32.5 L28.2 32.5 Q30.85 30.3 32.65 27.6 L33.0 27.0 33.1 26.9 33.0 27.0 Q32.8 27.35 32.9 27.75 L33.35 28.35 34.1 28.5 Q34.5 28.4 34.7 28.05 L34.8 27.9" fill="#808080" fill-rule="evenodd" stroke="none"/>
  </g>
</svg>
