<?xml version="1.0" encoding="UTF-8" standalone="no"?>
<svg xmlns:ffdec="https://www.free-decompiler.com/flash" xmlns:xlink="http://www.w3.org/1999/xlink" ffdec:objectType="shape" height="40.0px" width="41.0px" xmlns="http://www.w3.org/2000/svg">
  <g transform="matrix(1.0, 0.0, 0.0, 1.0, -13.0, -8.25)">
    <path d="M49.55 40.15 L49.5 40.15 49.5 40.2 49.55 40.15 M53.4 11.7 L53.85 12.1 54.0 12.7 53.75 13.25 Q52.25 15.0 51.3 17.9 49.4 23.6 52.25 29.1 L52.35 29.35 Q53.6 31.95 53.4 35.1 L53.0 37.6 52.95 37.75 Q52.3 39.65 51.1 41.35 48.75 44.5 44.6 46.3 L44.65 46.25 42.15 47.2 41.95 47.2 Q38.2 48.25 33.5 48.25 L32.2 48.2 32.15 48.2 Q26.5 48.0 22.45 46.3 18.2 44.5 15.95 41.35 13.8 38.5 13.6 35.1 13.35 31.85 14.8 29.15 L14.75 29.15 Q17.6 23.6 15.7 17.9 L15.7 17.85 Q14.8 15.15 13.45 13.45 L13.4 13.4 Q13.15 13.25 13.05 12.95 12.9 12.55 13.1 12.2 L13.65 11.7 Q16.7 10.4 22.25 9.4 28.35 8.2 33.5 8.25 L36.5 8.3 36.55 8.3 44.8 9.4 Q50.25 10.4 53.4 11.7" fill="#f3efba" fill-rule="evenodd" stroke="none"/>
  </g>
</svg>
