<?xml version="1.0" encoding="UTF-8" standalone="no"?>
<svg xmlns:ffdec="https://www.free-decompiler.com/flash" xmlns:xlink="http://www.w3.org/1999/xlink" ffdec:objectType="shape" height="40.0px" width="41.0px" xmlns="http://www.w3.org/2000/svg">
  <g transform="matrix(1.0, 0.0, 0.0, 1.0, 1.0, 1.0)">
    <path d="M27.3 5.85 Q22.4 5.85 16.5 7.0 11.25 8.0 8.35 9.25 L8.5 9.4 Q10.0 11.25 10.9 14.15 12.85 20.3 9.9 26.25 8.65 28.7 8.85 31.65 9.1 34.5 10.65 36.9 L9.55 36.5 Q5.75 34.85 3.65 31.9 1.75 29.25 1.55 26.15 1.35 23.2 2.6 20.7 5.55 14.8 3.6 8.65 2.65 5.75 1.2 3.9 L1.05 3.7 Q3.9 2.5 9.2 1.5 15.1 0.35 20.0 0.35 L22.85 0.45 30.8 1.5 Q36.05 2.5 39.05 3.7 37.9 5.0 37.15 6.8 L30.2 5.95 27.3 5.85" fill="#000000" fill-opacity="0.12156863" fill-rule="evenodd" stroke="none"/>
    <path d="M36.4 20.65 L36.45 20.75 36.5 20.8 36.45 20.8 36.4 20.65" fill="#666666" fill-rule="evenodd" stroke="none"/>
    <path d="M38.9 28.55 L38.95 28.5 38.9 28.55" fill="#454545" fill-rule="evenodd" stroke="none"/>
    <path d="M22.55 -0.95 L23.2 -0.6 23.45 0.15 23.1 0.8 22.4 1.05 22.35 1.05 19.55 1.0 19.5 1.0 Q14.55 0.95 8.6 2.1 4.35 2.85 1.65 3.8 L1.1 4.0 0.75 4.4 0.0 4.55 -0.55 4.2 -0.6 4.15 -0.95 3.7 Q-1.1 3.3 -0.9 2.95 L-0.35 2.45 Q2.7 1.15 8.25 0.15 14.35 -1.05 19.5 -1.0 L22.5 -0.95 22.55 -0.95" fill="#dddddd" fill-rule="evenodd" stroke="none"/>
    <path d="M22.4 1.05 L23.1 0.8 23.45 0.15 23.2 -0.6 22.55 -0.95 30.8 0.15 Q36.25 1.15 39.4 2.45 L39.85 2.85 40.0 3.45 39.75 4.0 Q38.25 5.75 37.3 8.65 35.4 14.35 38.25 19.85 L38.35 20.1 38.3 20.6 37.8 21.2 37.05 21.25 36.5 20.8 36.45 20.75 36.4 20.65 Q33.25 14.4 35.4 8.0 36.25 5.55 37.4 3.85 34.65 2.85 30.45 2.1 L22.4 1.05 M-0.6 4.15 L-0.55 4.2 0.0 4.55 0.75 4.4 1.1 4.0 1.65 3.8 Q2.8 5.55 3.6 8.0 5.8 14.45 2.55 20.8 L2.55 20.85 Q1.35 23.05 1.6 25.7 1.8 28.55 3.55 30.9 L3.6 30.95 Q5.5 33.65 9.2 35.2 12.95 36.75 18.2 36.95 L18.3 36.95 18.95 37.3 19.2 38.0 18.9 38.7 18.2 38.95 18.15 38.95 Q12.5 38.75 8.45 37.05 4.2 35.25 1.95 32.1 -0.2 29.25 -0.4 25.85 -0.65 22.6 0.8 19.9 L0.75 19.9 Q3.6 14.35 1.7 8.65 L1.7 8.6 Q0.8 5.9 -0.55 4.2 L-0.6 4.15" fill="#b7b7b7" fill-rule="evenodd" stroke="none"/>
    <path d="M36.5 20.8 L37.05 21.25 37.8 21.2 38.3 20.6 38.35 20.1 Q39.6 22.7 39.4 25.85 L39.0 28.35 38.95 28.5 38.9 28.55 38.5 28.95 37.75 29.1 37.15 28.6 37.0 27.95 37.05 27.85 37.4 25.7 Q37.6 23.0 36.45 20.8 L36.5 20.8 M18.2 38.95 L18.9 38.7 19.2 38.0 18.95 37.3 18.3 36.95 19.5 37.0 Q23.9 37.0 27.6 36.0 L28.35 36.1 28.8 36.7 28.75 37.45 28.3 37.85 28.15 37.9 27.95 37.95 Q24.2 39.0 19.5 39.0 L18.2 38.95" fill="#949494" fill-rule="evenodd" stroke="none"/>
    <path d="M37.0 27.95 L37.15 28.6 37.75 29.1 38.5 28.95 38.9 28.55 38.95 28.5 Q38.15 30.65 37.1 32.1 34.75 35.25 30.6 37.05 L30.65 37.0 28.5 37.75 28.3 37.85 28.75 37.45 28.8 36.7 28.35 36.1 27.6 36.0 29.8 35.2 Q33.45 33.65 35.5 30.9 L35.5 30.95 Q36.5 29.5 37.0 27.95" fill="#808080" fill-rule="evenodd" stroke="none"/>
  </g>
</svg>
