<?xml version="1.0" encoding="UTF-8" standalone="no"?>
<svg xmlns:ffdec="https://www.free-decompiler.com/flash" xmlns:xlink="http://www.w3.org/1999/xlink" ffdec:objectType="shape" height="40.7px" width="35.1px" xmlns="http://www.w3.org/2000/svg">
  <g transform="matrix(1.0, 0.0, 0.0, 1.0, -2.1, 0.3)">
    <path d="M7.75 -0.15 L8.5 -0.25 Q19.8 2.7 31.15 -0.25 L31.7 -0.25 31.75 -0.25 32.25 0.15 32.4 0.7 32.4 0.9 Q32.4 2.3 33.35 3.25 34.35 4.25 35.8 4.25 L36.2 4.25 Q36.55 4.25 36.85 4.5 L36.9 4.55 37.2 5.25 37.2 34.15 37.2 34.3 37.2 34.35 37.2 34.45 36.95 35.05 36.9 35.1 36.85 35.1 36.1 35.3 35.4 35.25 34.15 35.45 Q33.5 35.65 33.05 36.15 L32.65 36.6 32.65 36.65 Q32.0 37.5 32.0 38.6 L32.05 39.3 31.85 40.05 31.6 40.3 31.2 40.4 30.9 40.4 30.8 40.4 30.7 40.35 Q19.4 37.4 8.2 40.35 L7.7 40.4 7.2 40.2 7.0 40.05 Q6.75 39.7 6.8 39.3 L6.85 38.6 Q6.85 37.2 5.85 36.2 L5.85 36.25 Q4.85 35.25 3.5 35.25 L3.45 35.25 3.15 35.25 3.1 35.25 2.45 35.0 2.4 34.95 Q2.1 34.65 2.1 34.25 L2.1 5.6 2.1 5.45 2.1 5.3 2.4 4.8 2.4 4.75 2.5 4.65 Q2.85 4.4 3.25 4.45 L3.85 4.5 3.9 4.5 Q5.25 4.5 6.25 3.5 7.25 2.5 7.25 1.1 L7.25 0.85 7.3 0.45 Q7.4 0.05 7.75 -0.15" fill="#f3efba" fill-rule="evenodd" stroke="none"/>
  </g>
</svg>
