<?xml version="1.0" encoding="UTF-8" standalone="no"?>
<svg xmlns:ffdec="https://www.free-decompiler.com/flash" xmlns:xlink="http://www.w3.org/1999/xlink" ffdec:objectType="shape" height="40.7px" width="35.1px" xmlns="http://www.w3.org/2000/svg">
  <g transform="matrix(1.0, 0.0, 0.0, 1.0, -0.9, 1.35)">
    <path d="M19.9 7.1 L13.9 6.65 13.9 6.7 12.65 6.4 12.65 6.75 Q12.65 8.55 11.35 9.9 10.05 11.2 8.3 11.2 L8.25 11.2 7.45 11.15 7.45 38.45 6.15 38.8 6.2 37.95 Q6.2 36.1 4.9 34.8 3.6 33.55 1.85 33.55 L1.8 33.55 1.45 33.55 1.45 4.45 2.15 4.5 2.2 4.5 Q3.95 4.5 5.3 3.2 6.6 1.85 6.6 0.05 L6.6 -0.35 Q18.15 2.75 29.75 -0.35 L29.75 -0.2 Q29.75 1.7 31.0 2.95 32.25 4.25 34.15 4.25 L34.55 4.25 34.55 6.45 19.9 7.1" fill="#000000" fill-opacity="0.12156863" fill-rule="evenodd" stroke="none"/>
    <path d="M7.6 36.8 L7.65 37.05 7.5 36.95 7.6 36.8" fill="#575757" fill-rule="evenodd" stroke="none"/>
    <path d="M7.95 0.9 L8.0 0.95 8.0 1.0 7.95 0.9 M29.3 0.9 L29.4 0.9 29.35 1.05 29.3 0.9 M0.9 4.55 L0.9 4.25 1.2 3.75 Q0.9 4.0 0.9 4.4 L0.9 4.55 M33.9 5.15 L33.95 5.15 34.0 5.2 33.9 5.15 M3.0 5.45 L2.9 5.45 2.9 5.35 3.0 5.45" fill="#666666" fill-rule="evenodd" stroke="none"/>
    <path d="M2.9 32.15 L2.9 32.25 2.85 32.15 2.9 32.15" fill="#959595" fill-rule="evenodd" stroke="none"/>
    <path d="M36.0 33.1 L36.0 33.4 35.75 34.0 35.65 34.05 35.7 33.95 36.0 33.25 36.0 33.1 M30.4 39.25 L30.0 39.35 29.5 39.3 29.6 39.35 30.35 39.2 30.4 39.25" fill="#363636" fill-rule="evenodd" stroke="none"/>
    <path d="M6.55 -1.2 L7.3 -1.3 Q18.6 1.65 29.95 -1.3 L30.5 -1.3 29.4 0.9 29.3 0.9 Q18.6 3.45 8.0 0.95 L7.95 0.9 6.55 -1.2" fill="#dddddd" fill-rule="evenodd" stroke="none"/>
    <path d="M29.4 0.9 L30.5 -1.3 30.55 -1.3 31.05 -0.9 31.2 -0.35 31.2 -0.15 Q31.2 1.25 32.15 2.2 33.15 3.2 34.6 3.2 L35.0 3.2 35.65 3.45 33.95 5.15 33.9 5.15 33.7 5.15 Q32.0 4.85 30.75 3.6 29.65 2.5 29.35 1.05 L29.4 0.9 M1.25 33.95 L1.2 33.9 Q0.9 33.6 0.9 33.2 L0.9 4.55 0.9 4.4 Q0.9 4.0 1.2 3.75 L2.9 5.35 2.9 5.45 2.9 32.15 2.85 32.15 1.25 33.95" fill="#b7b7b7" fill-rule="evenodd" stroke="none"/>
    <path d="M6.55 -1.2 L7.95 0.9 8.0 1.0 Q7.7 2.6 6.45 3.85 4.95 5.35 3.0 5.45 L2.9 5.35 1.2 3.75 1.2 3.7 1.3 3.6 Q1.65 3.35 2.05 3.4 L2.65 3.45 2.7 3.45 Q4.05 3.45 5.05 2.45 6.05 1.45 6.05 0.05 L6.05 -0.2 6.1 -0.6 Q6.2 -1.0 6.55 -1.2 M35.65 3.45 L35.7 3.5 36.0 4.2 36.0 33.1 36.0 33.25 35.7 33.95 34.0 32.2 34.0 5.2 33.95 5.15 35.65 3.45 M29.5 39.3 Q18.2 36.35 7.0 39.3 L6.5 39.35 6.0 39.15 7.5 36.95 7.65 37.05 Q18.2 34.6 28.85 37.05 L30.35 39.2 29.6 39.35 29.5 39.3" fill="#949494" fill-rule="evenodd" stroke="none"/>
    <path d="M35.65 34.05 L34.9 34.25 34.2 34.2 32.95 34.4 31.85 35.1 31.45 35.55 31.45 35.6 Q30.8 36.45 30.8 37.55 L30.85 38.25 30.65 39.0 30.4 39.25 30.35 39.2 28.85 37.05 28.9 36.65 Q29.1 35.4 29.85 34.35 L29.9 34.35 30.3 33.85 30.35 33.75 Q31.2 32.9 32.3 32.5 L34.0 32.2 35.7 33.95 35.65 34.05 M6.0 39.15 L5.8 39.0 Q5.55 38.65 5.6 38.25 L5.65 37.55 Q5.65 36.15 4.65 35.15 L4.65 35.2 Q3.65 34.2 2.3 34.2 L2.25 34.2 1.95 34.2 1.9 34.2 1.25 33.95 2.85 32.15 2.9 32.25 Q4.7 32.4 6.05 33.75 7.3 35.0 7.6 36.6 L7.6 36.8 7.5 36.95 6.0 39.15" fill="#808080" fill-rule="evenodd" stroke="none"/>
  </g>
</svg>
