<?xml version="1.0" encoding="UTF-8" standalone="no"?>
<svg xmlns:ffdec="https://www.free-decompiler.com/flash" xmlns:xlink="http://www.w3.org/1999/xlink" ffdec:objectType="shape" height="41.4px" width="40.15px" xmlns="http://www.w3.org/2000/svg">
  <g transform="matrix(1.0, 0.0, 0.0, 1.0, -2.2, -0.55)">
    <path d="M41.85 19.25 L42.0 19.4 42.1 19.55 42.2 20.0 42.3 22.7 42.3 23.4 42.3 23.45 42.25 24.2 41.65 24.65 Q40.9 24.85 40.25 25.25 L40.2 25.25 Q38.8 25.9 37.7 26.85 L37.7 26.9 Q36.65 27.7 36.05 28.85 L36.05 28.9 Q35.35 30.1 34.9 31.5 L34.2 33.55 33.7 34.1 33.5 34.2 33.1 34.2 Q31.1 34.55 29.95 35.1 28.8 35.6 27.85 36.35 26.65 37.3 26.1 38.65 L26.1 38.6 25.2 41.05 25.0 41.4 Q24.75 41.65 24.35 41.7 L24.2 41.7 20.55 41.95 19.95 41.85 19.55 41.4 19.45 41.2 19.4 40.95 Q18.85 38.05 16.55 36.15 L16.55 36.1 Q15.3 35.05 13.85 34.6 L11.35 34.15 11.15 34.15 10.85 34.0 10.8 34.0 10.65 33.9 10.55 33.75 10.5 33.7 10.45 33.6 10.05 32.7 10.0 32.65 9.35 30.3 Q9.0 28.85 8.2 27.8 6.95 26.15 5.35 25.35 L4.85 25.1 2.95 24.65 2.5 24.35 2.45 24.3 2.25 23.85 2.2 23.75 2.2 23.65 2.2 23.55 2.2 20.05 Q2.2 19.8 2.35 19.6 L2.5 19.35 2.55 19.3 2.75 19.2 2.9 19.1 3.0 19.1 3.2 19.05 4.35 18.75 Q6.55 18.2 7.9 16.35 L8.85 14.4 8.9 14.35 10.15 10.5 10.45 10.0 10.5 9.95 10.6 9.9 10.8 9.85 11.1 9.75 13.3 9.3 13.35 9.3 Q15.25 8.9 16.75 7.55 L16.7 7.55 Q17.95 6.3 18.65 4.75 L18.65 4.8 19.35 2.8 Q19.4 2.5 19.6 2.3 L19.75 2.2 Q19.95 1.95 20.3 1.95 L24.05 1.75 24.65 1.9 24.8 2.0 25.05 2.4 26.1 5.0 26.85 6.3 26.8 6.25 Q27.8 7.6 29.5 8.45 L29.55 8.5 Q30.35 8.9 31.25 9.1 L31.4 9.1 33.45 9.65 Q33.85 9.7 34.1 10.05 L34.15 10.1 34.25 10.15 34.7 10.8 35.3 13.6 35.7 14.65 35.75 14.65 Q36.4 15.85 37.4 16.85 L37.4 16.8 39.5 18.2 39.6 18.25 41.45 19.05 41.5 19.05 41.65 19.15 41.8 19.25 41.85 19.25 M32.8 11.55 L30.75 11.0 28.6 10.25 Q26.5 9.2 25.2 7.45 L25.15 7.4 24.3 5.85 23.5 3.95 23.45 3.8 21.1 3.95 20.5 5.55 Q19.65 7.5 18.1 9.0 16.15 10.75 13.7 11.25 L11.9 11.6 11.9 11.7 10.75 15.05 9.55 17.45 9.55 17.5 Q7.75 20.0 4.8 20.7 L4.75 20.7 4.2 20.8 4.2 22.9 4.25 22.9 4.4 22.95 5.45 23.2 5.65 23.25 6.25 23.55 Q8.25 24.55 9.8 26.6 10.8 27.95 11.3 29.8 L11.9 32.05 12.0 32.25 14.35 32.7 14.45 32.7 Q16.3 33.25 17.85 34.6 20.4 36.75 21.2 39.9 L23.55 39.75 24.25 37.9 Q24.95 36.0 26.65 34.75 27.8 33.9 29.1 33.3 30.55 32.6 32.1 32.35 L32.5 32.35 32.5 32.3 33.0 30.85 34.3 27.95 34.25 27.95 Q35.05 26.4 36.4 25.35 L36.45 25.35 Q37.7 24.2 39.3 23.5 L39.35 23.45 40.15 23.1 40.35 23.0 40.3 22.75 40.25 20.75 40.2 20.75 38.65 20.0 38.7 20.05 Q37.2 19.35 36.05 18.3 L36.0 18.25 Q34.8 17.05 34.0 15.65 L34.0 15.7 Q33.5 14.85 33.35 14.0 L32.8 11.55 33.35 14.0 Q33.5 14.85 34.0 15.7 L34.0 15.65 Q34.8 17.05 36.0 18.25 L36.05 18.3 Q37.2 19.35 38.7 20.05 L38.65 20.0 40.2 20.75 40.25 20.75 40.3 22.75 40.35 23.0 40.15 23.1 39.35 23.45 39.3 23.5 Q37.7 24.2 36.45 25.35 L36.4 25.35 Q35.05 26.4 34.25 27.95 L34.3 27.95 33.0 30.85 32.5 32.3 32.5 32.35 32.1 32.35 Q30.55 32.6 29.1 33.3 27.8 33.9 26.65 34.75 24.95 36.0 24.25 37.9 L23.55 39.75 21.2 39.9 Q20.4 36.75 17.85 34.6 16.3 33.25 14.45 32.7 L14.35 32.7 12.0 32.25 11.9 32.05 11.3 29.8 Q10.8 27.95 9.8 26.6 8.25 24.55 6.25 23.55 L5.65 23.25 5.45 23.2 4.4 22.95 4.25 22.9 4.2 22.9 4.2 20.8 4.75 20.7 4.8 20.7 Q7.75 20.0 9.55 17.5 L9.55 17.45 10.75 15.05 11.9 11.7 11.9 11.6 13.7 11.25 Q16.15 10.75 18.1 9.0 19.65 7.5 20.5 5.55 L21.1 3.95 23.45 3.8 23.5 3.95 24.3 5.85 25.15 7.4 25.2 7.45 Q26.5 9.2 28.6 10.25 L30.75 11.0 32.8 11.55" fill="#f3efba" fill-rule="evenodd" stroke="none"/>
    <path d="M31.35 0.7 L31.35 0.55 31.35 0.7" fill="#e3dfbd" fill-rule="evenodd" stroke="none"/>
  </g>
</svg>
