<?xml version="1.0" encoding="UTF-8" standalone="no"?>
<svg xmlns:ffdec="https://www.free-decompiler.com/flash" xmlns:xlink="http://www.w3.org/1999/xlink" ffdec:objectType="shape" height="40.2px" width="40.15px" xmlns="http://www.w3.org/2000/svg">
  <g transform="matrix(1.0, 0.0, 0.0, 1.0, -1.8, -1.05)">
    <path d="M23.95 2.95 L23.95 2.9 24.65 4.85 25.25 5.95 24.65 7.55 24.7 7.55 23.65 9.2 23.6 9.2 21.55 11.05 21.3 11.25 20.0 11.8 19.85 11.9 17.4 12.55 16.8 12.55 Q16.45 12.6 16.25 12.8 L16.0 13.3 15.95 14.0 15.65 15.75 15.6 15.75 15.5 15.95 15.5 16.05 15.45 16.35 15.35 16.6 14.7 17.9 14.65 18.0 14.45 18.25 14.2 18.65 Q13.25 20.1 11.8 20.95 L11.65 21.0 Q11.3 21.1 11.0 21.35 L10.95 21.4 10.35 21.5 10.35 21.55 8.5 22.2 8.4 22.2 8.3 22.25 8.3 25.75 8.4 25.85 8.5 25.85 10.35 26.45 10.35 26.5 10.95 26.6 11.0 26.65 11.65 26.95 11.8 27.05 Q13.25 27.9 14.2 29.35 L14.45 29.75 14.65 30.05 14.7 30.15 15.35 31.45 15.45 31.65 15.5 31.95 15.5 32.05 15.6 32.25 15.65 32.25 15.95 34.05 15.95 34.3 15.8 34.2 14.45 33.6 14.3 33.5 11.9 32.9 11.3 32.9 10.7 32.65 Q10.5 32.35 10.45 32.05 L10.4 31.45 10.05 29.6 10.05 29.65 9.95 29.45 9.95 29.35 9.9 29.05 9.8 28.85 9.2 27.55 9.15 27.45 8.95 27.2 8.7 26.75 Q7.7 25.3 6.25 24.5 L6.1 24.35 5.45 24.05 5.4 24.0 4.85 23.9 4.85 23.85 3.0 23.25 2.9 23.25 2.8 23.2 2.8 19.65 2.9 19.6 3.0 19.6 4.85 18.95 4.85 18.9 5.4 18.8 5.45 18.75 6.1 18.4 6.25 18.35 Q7.7 17.5 8.7 16.05 L8.95 15.65 9.15 15.4 9.2 15.3 9.8 14.0 9.9 13.75 9.95 13.45 9.95 13.35 10.05 13.15 10.05 13.2 10.4 11.4 10.45 10.7 10.7 10.2 Q10.95 10.0 11.3 9.95 L11.9 9.95 14.3 9.3 14.45 9.2 15.8 8.65 Q15.95 8.55 16.05 8.5 L18.1 6.6 18.15 6.6 19.15 4.9 19.1 4.95 19.85 2.9 19.95 2.35 20.0 2.3 20.1 2.1 23.7 2.1 23.85 2.35 23.95 2.95" fill="#000000" fill-opacity="0.12156863" fill-rule="evenodd" stroke="none"/>
    <path d="M41.4 18.55 L41.45 18.55 41.45 18.6 41.4 18.55 M18.95 2.1 Q19.0 1.8 19.2 1.6 L19.35 1.5 Q19.1 1.65 19.0 1.95 L18.95 2.1 M3.8 20.1 L3.8 20.15 3.8 20.1" fill="#a8a8a8" fill-rule="evenodd" stroke="none"/>
    <path d="M41.45 18.6 L41.45 18.55 41.5 18.6 41.45 18.6 M2.6 18.4 L2.8 18.35 2.6 18.4 M10.05 9.3 L10.1 9.25 10.2 9.2 10.7 9.05 10.5 9.1 Q10.25 9.1 10.1 9.3 L10.05 9.3 M11.5 10.9 L11.5 11.0 11.4 10.95 11.5 10.9 M3.8 22.2 L3.85 22.2 3.8 22.2" fill="#828282" fill-rule="evenodd" stroke="none"/>
    <path d="M10.4 33.3 L10.15 33.05 10.1 33.0 10.4 33.3 M39.85 20.0 L39.85 20.05 39.8 20.05 39.85 20.0 M32.1 31.6 L32.15 31.6 32.1 31.65 32.1 31.6 M17.45 33.9 L17.5 33.9 17.45 33.9" fill="#575757" fill-rule="evenodd" stroke="none"/>
    <path d="M10.7 9.05 L12.9 8.6 12.95 8.6 Q14.85 8.2 16.35 6.85 L16.3 6.85 Q17.55 5.6 18.25 4.05 L18.25 4.1 18.95 2.1 19.0 1.95 Q19.1 1.65 19.35 1.5 L20.7 3.2 20.7 3.25 20.1 4.85 Q19.25 6.8 17.7 8.3 15.75 10.05 13.3 10.55 L11.5 10.9 11.4 10.95 10.1 9.3 Q10.25 9.1 10.5 9.1 L10.7 9.05" fill="#dddddd" fill-rule="evenodd" stroke="none"/>
    <path d="M41.4 18.55 L41.45 18.6 39.85 20.0 39.8 20.05 38.25 19.3 38.3 19.35 Q36.8 18.65 35.65 17.6 L35.6 17.55 Q34.4 16.35 33.6 14.95 L33.6 15.0 Q33.1 14.15 32.95 13.3 L32.4 10.85 33.75 9.4 33.85 9.45 34.3 10.1 34.9 12.9 35.3 13.95 35.35 13.95 Q36.0 15.15 37.0 16.15 L37.0 16.1 39.1 17.5 39.2 17.55 41.05 18.35 41.1 18.35 41.25 18.45 41.4 18.55 M2.15 18.6 L2.35 18.5 2.5 18.4 2.6 18.4 2.8 18.35 3.95 18.05 Q6.15 17.5 7.5 15.65 L8.45 13.7 8.5 13.65 9.75 9.8 10.05 9.3 10.1 9.3 11.4 10.95 11.5 11.0 10.35 14.35 9.15 16.75 9.15 16.8 Q7.35 19.3 4.4 20.0 L4.35 20.0 3.8 20.1 3.8 20.15 2.15 18.6 M19.35 1.5 Q19.55 1.25 19.9 1.25 L23.65 1.05 24.25 1.2 23.15 3.1 23.05 3.1 20.7 3.25 20.7 3.2 19.35 1.5" fill="#b7b7b7" fill-rule="evenodd" stroke="none"/>
    <path d="M41.5 18.6 L41.6 18.7 41.7 18.85 41.8 19.3 41.9 22.0 41.9 22.7 41.9 22.75 41.85 23.5 41.25 23.95 Q40.5 24.15 39.85 24.55 L39.8 24.55 37.3 26.15 37.3 26.2 Q36.25 27.0 35.65 28.15 L35.65 28.2 Q34.95 29.4 34.5 30.8 L33.8 32.85 33.3 33.4 33.1 33.5 32.15 31.6 32.1 31.6 32.6 30.15 33.9 27.25 33.85 27.25 Q34.65 25.7 36.0 24.65 L36.05 24.65 Q37.3 23.5 38.9 22.8 L38.95 22.75 Q39.3 22.55 39.75 22.4 L39.95 22.3 39.9 22.05 39.85 20.05 39.85 20.0 41.45 18.6 41.5 18.6 M10.45 33.3 L10.4 33.3 10.1 33.0 10.05 32.9 9.65 32.0 9.6 31.95 8.95 29.6 Q8.6 28.15 7.8 27.1 6.55 25.45 4.95 24.65 L4.45 24.4 2.55 23.95 2.1 23.65 2.05 23.6 1.85 23.15 1.8 23.05 1.8 22.95 1.8 22.85 1.8 19.35 Q1.8 19.1 1.95 18.9 L2.1 18.65 2.15 18.6 3.8 20.15 3.8 22.2 3.85 22.2 4.0 22.25 5.05 22.5 5.25 22.55 5.85 22.85 Q7.85 23.85 9.4 25.9 10.4 27.25 10.9 29.1 L11.5 31.35 11.6 31.55 10.45 33.3 M24.25 1.2 L24.4 1.3 24.65 1.7 25.7 4.3 26.45 5.6 26.4 5.55 Q27.4 6.9 29.1 7.75 L29.15 7.8 30.85 8.4 31.0 8.4 33.05 8.95 Q33.45 9.0 33.7 9.35 L33.75 9.4 32.4 10.85 30.35 10.3 28.2 9.55 Q26.1 8.5 24.8 6.75 L24.75 6.7 23.9 5.15 23.1 3.25 23.05 3.1 23.15 3.1 24.25 1.2" fill="#949494" fill-rule="evenodd" stroke="none"/>
    <path d="M33.1 33.5 L32.7 33.5 Q30.7 33.85 29.55 34.4 28.4 34.9 27.45 35.65 26.25 36.6 25.7 37.95 L25.7 37.9 24.8 40.35 24.6 40.7 23.95 41.0 23.9 41.0 23.85 41.0 23.8 41.0 20.15 41.25 19.55 41.15 19.15 40.7 19.05 40.5 19.0 40.25 Q18.45 37.35 16.15 35.45 L16.15 35.4 Q14.9 34.35 13.45 33.9 L10.95 33.45 10.75 33.45 10.45 33.3 11.6 31.55 13.95 32.0 14.05 32.0 Q15.9 32.55 17.45 33.9 L17.5 33.9 Q20.0 36.05 20.8 39.2 L23.15 39.05 23.85 37.2 Q24.55 35.3 26.25 34.05 27.4 33.2 28.7 32.6 30.15 31.9 31.7 31.65 L32.1 31.65 32.15 31.6 33.1 33.5" fill="#808080" fill-rule="evenodd" stroke="none"/>
  </g>
</svg>
