<?xml version="1.0" encoding="UTF-8" standalone="no"?>
<svg xmlns:ffdec="https://www.free-decompiler.com/flash" xmlns:xlink="http://www.w3.org/1999/xlink" ffdec:objectType="shape" height="40.0px" width="39.4px" xmlns="http://www.w3.org/2000/svg">
  <g transform="matrix(1.0, 0.0, 0.0, 1.0, 1.0, 1.0)">
    <path d="M6.3 5.1 L6.3 32.7 -0.1 29.95 -0.1 0.0 37.85 0.0 37.85 5.1 6.3 5.1" fill="#000000" fill-opacity="0.12156863" fill-rule="evenodd" stroke="none"/>
    <path d="M-1.0 1.05 L-1.0 0.0 -0.7 -0.7 0.0 -1.0 37.4 -1.0 38.1 -0.7 38.4 0.0 38.4 1.05 38.1 1.7 37.4 2.0 Q37.0 2.0 36.7 1.7 L36.4 1.05 36.4 1.0 1.0 1.0 1.0 1.05 0.7 1.7 0.0 2.0 -0.7 1.7 -1.0 1.05" fill="#dddddd" fill-rule="evenodd" stroke="none"/>
    <path d="M-1.0 1.05 L-0.7 1.7 0.0 2.0 0.7 1.7 1.0 1.05 1.0 29.3 18.7 36.9 19.1 37.1 19.65 37.65 19.65 38.4 19.1 38.95 18.7 39.0 18.3 38.95 -0.4 30.9 -0.8 30.5 -1.0 29.95 -1.0 1.05" fill="#b7b7b7" fill-rule="evenodd" stroke="none"/>
    <path d="M38.35 30.35 L37.8 30.9 19.1 38.95 18.7 39.0 19.1 38.95 19.65 38.4 19.65 37.65 19.1 37.1 18.7 36.9 36.4 29.3 36.4 29.95 Q36.4 30.35 36.7 30.65 37.0 30.95 37.4 30.95 L38.1 30.65 38.35 30.35" fill="#808080" fill-rule="evenodd" stroke="none"/>
    <path d="M36.4 1.05 L36.7 1.7 Q37.0 2.0 37.4 2.0 L38.1 1.7 38.4 1.05 38.4 29.95 38.4 30.2 38.35 30.35 38.1 30.65 37.4 30.95 Q37.0 30.95 36.7 30.65 36.4 30.35 36.4 29.95 L36.4 29.3 36.4 1.05" fill="#949494" fill-rule="evenodd" stroke="none"/>
  </g>
</svg>
