<?xml version="1.0" standalone="no"?>
<!DOCTYPE svg PUBLIC "-//W3C//DTD SVG 20010904//EN"
 "http://www.w3.org/TR/2001/REC-SVG-20010904/DTD/svg10.dtd">
<svg version="1.0" xmlns="http://www.w3.org/2000/svg"
 width="512.000000pt" height="512.000000pt" viewBox="0 0 512.000000 512.000000"
 preserveAspectRatio="xMidYMid meet">
<metadata>
Created by potrace 1.14, written by Peter Selinger 2001-2017
</metadata>
<g transform="translate(0.000000,512.000000) scale(0.100000,-0.100000)"
fill="#000000" stroke="none">
<path d="M2783 3949 l2 -1174 1155 0 c635 0 1161 1 1168 3 9 3 11 33 7 125
-28 650 -359 1291 -880 1707 -300 239 -716 425 -1075 480 -41 6 -86 13 -100
16 -14 2 -82 7 -152 10 l-127 6 2 -1173z"/>
<path d="M2090 4674 c-384 -45 -719 -165 -1030 -368 -556 -365 -926 -940
-1036 -1611 -20 -119 -27 -503 -11 -620 82 -616 355 -1123 822 -1527 243 -209
593 -389 917 -473 202 -51 327 -67 558 -71 207 -3 308 4 444 32 11 2 35 7 51
9 17 3 82 19 145 36 701 186 1285 700 1565 1379 30 73 91 261 106 330 6 25 13
54 15 65 20 81 43 269 49 401 3 71 2 82 -13 86 -9 2 -536 3 -1169 2 l-1153 0
0 1173 0 1174 -77 -2 c-43 -2 -125 -9 -183 -15z"/>
</g>
</svg>
