<?xml version="1.0" encoding="UTF-8" standalone="no"?>
<svg xmlns:ffdec="https://www.free-decompiler.com/flash" xmlns:xlink="http://www.w3.org/1999/xlink" ffdec:objectType="shape" height="40.0px" width="40.0px" xmlns="http://www.w3.org/2000/svg">
  <g transform="matrix(1.0, 0.0, 0.0, 1.0, -6.7, 6.45)">
    <path d="M9.25 -2.55 L9.2 -3.25 9.65 -3.8 10.2 -3.95 10.45 -3.9 11.3 -3.8 14.85 -3.6 17.6 -3.85 17.6 -3.8 Q21.85 -4.35 26.3 -6.35 L26.9 -6.4 27.15 -6.35 27.2 -6.3 Q31.5 -4.4 35.7 -3.85 39.4 -3.35 43.0 -3.9 L43.7 -3.8 44.1 -3.25 44.1 -2.55 43.2 -0.35 43.1 -0.15 Q41.7 3.7 41.35 6.6 L41.35 6.7 44.0 8.9 45.2 10.55 45.25 10.55 Q46.7 13.15 46.7 16.25 L46.7 16.3 Q46.65 19.65 44.8 22.45 L44.7 22.6 44.6 22.75 43.75 23.75 43.7 23.75 41.1 25.8 41.0 25.9 39.2 26.7 39.1 26.75 35.45 27.7 32.1 28.9 32.15 28.85 30.2 30.0 30.15 30.0 30.1 30.05 30.05 30.1 Q29.75 30.25 29.45 30.55 L29.4 30.55 28.2 31.9 28.25 31.85 Q27.85 32.4 27.6 33.0 L27.1 33.5 26.35 33.5 25.8 33.0 Q24.5 30.3 21.25 28.9 L18.0 27.7 18.0 27.75 14.3 26.7 14.2 26.7 13.4 26.4 13.3 26.35 Q10.45 25.1 8.7 22.6 7.45 20.85 7.05 18.95 6.7 17.7 6.7 16.35 6.65 15.7 6.75 15.15 L7.05 13.35 Q7.35 11.9 8.15 10.55 8.65 9.65 9.35 8.9 L9.3 8.9 Q10.4 7.6 11.95 6.7 L11.95 6.6 Q11.6 3.7 10.2 -0.15 L10.1 -0.35 9.25 -2.55" fill="#f3efba" fill-rule="evenodd" stroke="none"/>
  </g>
</svg>
