<?xml version="1.0" encoding="UTF-8" standalone="no"?>
<svg xmlns:ffdec="https://www.free-decompiler.com/flash" xmlns:xlink="http://www.w3.org/1999/xlink" ffdec:objectType="shape" height="40.0px" width="40.0px" xmlns="http://www.w3.org/2000/svg">
  <g transform="matrix(1.0, 0.0, 0.0, 1.0, 1.0, 1.0)">
    <path d="M33.45 7.35 Q29.6 6.7 25.65 4.95 L25.55 4.9 Q17.1 8.75 9.1 7.4 L9.9 9.35 Q11.7 14.25 11.95 17.6 L11.5 17.85 Q9.2 19.2 7.9 21.4 7.2 22.6 6.85 23.9 L6.6 25.55 6.55 26.6 Q6.55 27.85 6.85 29.0 7.2 30.35 7.85 31.55 L6.6 31.2 Q3.45 30.15 1.6 27.45 0.5 25.9 0.05 24.1 L-0.2 21.7 -0.15 20.65 0.05 19.0 Q0.4 17.7 1.1 16.5 2.4 14.3 4.7 12.9 L5.15 12.7 Q4.9 9.35 3.1 4.45 L2.3 2.5 Q10.35 3.8 18.8 0.0 L18.9 0.05 Q27.25 3.8 35.2 2.5 L34.35 4.7 33.45 7.35" fill="#000000" fill-opacity="0.12156863" fill-rule="evenodd" stroke="none"/>
    <path d="M2.5 1.5 L2.75 1.55 3.6 1.65 2.6 1.55 2.5 1.5 M9.9 3.65 L8.45 3.8 9.9 3.65 M4.1 3.7 L4.25 4.2 4.3 4.4 4.05 3.7 4.1 3.7 M5.15 13.95 L5.55 13.75 5.45 13.85 5.2 14.0 4.55 14.4 4.55 14.35 5.15 13.95" fill="#cccccc" fill-rule="evenodd" stroke="none"/>
    <path d="M19.1 1.05 L19.1 1.15 19.0 1.1 19.1 1.05 M1.65 14.35 L1.6 14.35 1.65 14.35" fill="#959595" fill-rule="evenodd" stroke="none"/>
    <path d="M37.0 28.05 L36.9 28.2 36.85 28.15 37.0 28.05 M35.5 26.75 L35.45 26.8 35.3 27.05 35.25 27.0 35.45 26.75 35.5 26.75" fill="#666666" fill-rule="evenodd" stroke="none"/>
    <path d="M32.3 29.6 L32.45 29.55 32.35 29.6 32.3 29.6" fill="#454545" fill-rule="evenodd" stroke="none"/>
    <path d="M19.45 -0.9 L19.8 -0.65 20.1 0.05 19.8 0.75 19.1 1.05 19.0 1.1 Q14.35 3.15 9.9 3.65 L9.9 1.65 Q14.15 1.1 18.6 -0.9 L19.2 -0.95 19.45 -0.9 M-0.95 20.6 L-0.65 18.8 Q-0.35 17.35 0.45 16.0 L1.65 14.35 4.55 14.35 4.55 14.4 Q3.05 15.45 2.15 17.0 L2.2 17.0 Q1.55 18.05 1.3 19.25 1.1 19.95 1.05 20.7 L1.05 20.85 1.0 20.95 0.75 21.4 0.0 21.65 -0.7 21.35 -0.95 20.6" fill="#dddddd" fill-rule="evenodd" stroke="none"/>
    <path d="M33.55 4.6 L33.65 5.2 34.2 5.7 35.0 5.65 35.4 5.3 Q34.0 9.15 33.65 12.05 L33.45 11.35 32.8 10.95 Q32.35 10.9 32.05 11.15 31.7 11.4 31.65 11.8 32.0 8.75 33.55 4.6 M36.9 28.2 L36.05 29.2 36.0 29.2 33.4 31.25 33.3 31.35 32.5 31.4 31.95 30.95 Q31.75 30.55 31.85 30.15 31.95 29.75 32.35 29.6 L32.45 29.55 Q33.65 28.85 34.6 27.85 L34.6 27.8 35.25 27.05 35.25 27.0 35.3 27.05 35.3 27.55 Q35.35 27.95 35.7 28.2 L36.45 28.35 36.85 28.15 36.9 28.2 M22.5 35.45 L22.45 35.45 22.4 35.5 22.35 35.55 21.75 36.0 21.7 36.0 20.5 37.35 20.55 37.3 19.9 38.45 19.4 38.95 18.65 38.95 18.1 38.45 Q16.8 35.75 13.55 34.35 L10.3 33.15 10.3 33.2 6.6 32.15 6.5 32.15 5.7 31.85 5.6 31.8 5.75 31.85 6.5 31.85 7.05 31.3 7.05 30.55 6.5 30.0 6.4 29.95 6.5 30.0 7.15 30.25 7.2 30.3 10.8 31.25 10.85 31.25 14.35 32.5 Q17.35 33.8 19.0 36.05 L20.4 34.55 20.4 34.5 21.25 33.85 21.35 33.8 22.1 33.7 Q22.5 33.75 22.7 34.15 L22.85 34.9 22.5 35.45 M4.25 12.05 Q3.9 9.15 2.5 5.3 L2.95 5.65 3.7 5.7 4.25 5.2 4.35 4.6 Q5.9 8.75 6.25 11.8 L5.9 11.15 5.15 10.95 Q4.7 11.0 4.45 11.35 4.2 11.65 4.25 12.05" fill="#949494" fill-rule="evenodd" stroke="none"/>
    <path d="M19.45 -0.9 L19.5 -0.85 Q23.8 1.05 28.0 1.6 31.7 2.1 35.3 1.55 L36.0 1.65 36.4 2.2 36.4 2.9 35.5 5.1 35.4 5.3 35.0 5.65 34.2 5.7 33.65 5.2 33.55 4.6 33.6 4.4 33.85 3.7 Q30.95 4.0 28.0 3.65 23.6 3.1 19.1 1.15 L19.1 1.05 19.8 0.75 20.1 0.05 19.8 -0.65 19.45 -0.9 M33.65 12.05 L33.65 12.15 Q35.2 13.05 36.3 14.35 L37.5 16.0 37.55 16.0 Q39.0 18.6 39.0 21.7 L39.0 21.75 Q38.95 25.1 37.1 27.9 L37.0 28.05 36.85 28.15 36.45 28.35 35.7 28.2 Q35.35 27.95 35.3 27.55 L35.3 27.05 35.45 26.8 35.5 26.75 Q36.95 24.45 37.0 21.7 37.0 19.1 35.8 17.0 L35.8 17.05 Q34.85 15.45 33.35 14.35 L32.15 13.6 31.75 13.2 Q31.6 12.95 31.6 12.7 L31.65 11.85 31.65 11.8 Q31.7 11.4 32.05 11.15 32.35 10.9 32.8 10.95 L33.45 11.35 33.65 12.05 M5.6 31.8 Q2.75 30.55 1.0 28.05 -0.25 26.3 -0.65 24.4 L-1.0 21.8 -0.95 20.6 -0.7 21.35 0.0 21.65 0.75 21.4 1.0 20.95 1.0 21.6 1.0 21.7 Q1.0 22.8 1.3 23.9 L1.3 23.95 Q1.65 25.5 2.65 26.9 4.05 28.95 6.4 29.95 L6.5 30.0 7.05 30.55 7.05 31.3 6.5 31.85 5.75 31.85 5.6 31.8 M1.65 14.35 Q2.75 13.05 4.25 12.15 L4.25 12.05 Q4.2 11.65 4.45 11.35 4.7 11.0 5.15 10.95 L5.9 11.15 6.25 11.8 6.25 11.85 6.3 12.7 6.15 13.2 5.8 13.6 5.15 13.95 4.55 14.35 1.65 14.35 M2.5 5.3 L2.4 5.1 1.55 2.9 1.5 2.2 Q1.6 1.85 1.95 1.65 L2.5 1.5 2.6 1.55 3.6 1.65 7.15 1.85 9.9 1.6 9.9 1.65 9.9 3.65 8.45 3.8 4.1 3.7 4.05 3.7 4.3 4.4 4.35 4.6 4.25 5.2 3.7 5.7 2.95 5.65 2.5 5.3" fill="#b7b7b7" fill-rule="evenodd" stroke="none"/>
    <path d="M33.4 31.25 L33.3 31.35 31.5 32.15 31.4 32.2 27.75 33.15 24.4 34.35 24.45 34.3 22.5 35.45 22.85 34.9 22.7 34.15 Q22.5 33.75 22.1 33.7 L21.35 33.8 23.6 32.5 Q25.0 31.85 27.2 31.25 L30.85 30.25 30.9 30.25 32.3 29.6 32.35 29.6 Q31.95 29.75 31.85 30.15 31.75 30.55 31.95 30.95 L32.5 31.4 33.3 31.35 33.4 31.25" fill="#808080" fill-rule="evenodd" stroke="none"/>
  </g>
</svg>
