<?xml version="1.0" encoding="UTF-8" standalone="no"?>
<svg xmlns:ffdec="https://www.free-decompiler.com/flash" xmlns:xlink="http://www.w3.org/1999/xlink" ffdec:objectType="shape" height="38.4px" width="40.25px" xmlns="http://www.w3.org/2000/svg">
  <g transform="matrix(1.0, 0.0, 0.0, 1.0, -2.25, -3.25)">
    <path d="M37.8 11.9 L35.8 10.35 24.05 10.35 14.45 17.3 10.85 28.8 14.15 38.95 6.75 33.5 3.1 22.35 6.75 10.85 16.3 3.9 28.1 3.9 37.5 10.85 37.8 11.9" fill="#000000" fill-opacity="0.12156863" fill-rule="evenodd" stroke="none"/>
    <path d="M42.4 22.05 L42.5 22.45 42.45 22.2 42.4 22.05 M42.45 22.85 L42.45 22.95 42.4 22.95 42.45 22.85 M38.5 34.35 L38.3 34.5 38.4 34.4 38.5 34.35" fill="#262626" fill-rule="evenodd" stroke="none"/>
    <path d="M36.95 11.8 L37.0 11.8 36.95 11.8 M7.7 32.9 L7.7 33.0 7.65 32.9 7.7 32.9" fill="#8c8c8c" fill-rule="evenodd" stroke="none"/>
    <path d="M40.45 22.5 L40.5 22.55 40.45 22.5 M36.9 33.05 L36.95 33.0 36.95 33.05 36.9 33.05" fill="#757575" fill-rule="evenodd" stroke="none"/>
    <path d="M38.75 10.85 L38.8 11.0 38.75 10.85" fill="#373737" fill-rule="evenodd" stroke="none"/>
    <path d="M4.35 22.45 L4.3 22.5 4.3 22.45 4.35 22.45" fill="#b8b8b8" fill-rule="evenodd" stroke="none"/>
    <path d="M28.9 3.45 L29.05 3.55 29.0 3.55 28.9 3.45" fill="#5e5e5e" fill-rule="evenodd" stroke="none"/>
    <path d="M16.35 3.3 L16.5 3.25 16.7 3.25 16.7 3.3 16.35 3.3" fill="#828282" fill-rule="evenodd" stroke="none"/>
    <path d="M2.35 22.95 L2.3 22.8 2.25 22.55 2.35 22.05 2.3 22.2 2.25 22.55 2.4 22.95 2.35 22.95" fill="#484848" fill-rule="evenodd" stroke="none"/>
    <path d="M16.65 41.65 L16.5 41.65 16.3 41.65 16.65 41.65" fill="#000000" fill-rule="evenodd" stroke="none"/>
    <path d="M38.5 34.35 L38.4 34.4 38.45 34.35 38.5 34.35" fill="#5c5c5c" fill-rule="evenodd" stroke="none"/>
    <path d="M6.0 10.7 Q6.1 10.45 6.3 10.35 L15.95 3.45 Q16.1 3.3 16.35 3.3 L16.95 5.15 16.85 5.25 7.7 11.8 7.55 11.9 6.0 10.7" fill="#dddddd" fill-rule="evenodd" stroke="none"/>
    <path d="M2.35 22.05 L5.9 10.85 5.95 10.8 6.0 10.7 7.55 11.9 7.7 11.8 4.35 22.45 4.3 22.45 2.25 22.55 2.3 22.2 2.35 22.05 M16.7 3.25 L28.3 3.25 28.75 3.35 27.95 5.25 16.85 5.25 16.95 5.15 16.35 3.3 16.7 3.3 16.7 3.25" fill="#b7b7b7" fill-rule="evenodd" stroke="none"/>
    <path d="M42.4 22.05 L42.45 22.2 42.5 22.45 40.5 22.55 40.45 22.5 36.95 11.8 37.0 11.8 36.95 11.8 28.0 5.25 27.95 5.25 28.75 3.35 28.9 3.45 29.0 3.55 29.05 3.55 38.25 10.25 38.35 10.3 38.4 10.35 38.55 10.5 38.75 10.85 38.8 11.0 42.4 22.05 M16.3 41.65 L16.05 41.55 15.9 41.45 6.25 34.4 6.15 34.3 6.1 34.25 5.9 33.9 2.35 22.95 2.4 22.95 2.25 22.55 4.3 22.45 4.3 22.5 7.7 32.9 7.65 32.9 7.7 33.0 16.8 39.65 16.85 39.65 16.8 39.65 16.3 41.65" fill="#949494" fill-rule="evenodd" stroke="none"/>
    <path d="M42.5 22.45 L42.5 22.55 42.45 22.85 42.4 22.95 42.45 22.95 38.75 33.95 38.65 34.2 38.5 34.35 38.45 34.35 38.4 34.4 38.3 34.5 28.9 41.45 28.65 41.6 28.15 41.65 16.65 41.65 16.3 41.65 16.8 39.65 16.85 39.65 28.0 39.65 36.85 33.05 36.9 33.05 36.95 33.05 36.95 33.0 40.45 22.55 40.45 22.5 40.5 22.55 42.5 22.45" fill="#808080" fill-rule="evenodd" stroke="none"/>
  </g>
</svg>
