<?xml version="1.0" encoding="UTF-8" standalone="no"?>
<svg xmlns:ffdec="https://www.free-decompiler.com/flash" xmlns:xlink="http://www.w3.org/1999/xlink" ffdec:objectType="shape" height="41.35px" width="35.95px" xmlns="http://www.w3.org/2000/svg">
  <g transform="matrix(1.0, 0.0, 0.0, 1.0, -3.6, -0.55)">
    <path d="M39.55 11.3 L39.55 11.7 39.55 31.0 39.55 31.4 39.2 31.95 Q39.15 31.95 39.05 32.05 L22.1 41.8 21.85 41.9 21.7 41.9 21.55 41.9 21.35 41.9 21.1 41.8 4.15 32.05 3.85 31.75 3.7 31.4 3.65 31.3 3.65 31.0 3.65 11.7 3.7 11.3 3.8 11.05 4.15 10.7 21.05 0.9 21.1 0.85 21.35 0.75 21.6 0.7 21.85 0.75 22.1 0.85 22.2 0.9 39.05 10.7 39.45 11.05 39.55 11.3" fill="#f3efba" fill-rule="evenodd" stroke="none"/>
    <path d="M31.35 0.55 L31.35 0.7 31.35 0.55" fill="#e3dfbd" fill-rule="evenodd" stroke="none"/>
  </g>
</svg>
