<?xml version="1.0" encoding="UTF-8" standalone="no"?>
<svg xmlns:ffdec="https://www.free-decompiler.com/flash" xmlns:xlink="http://www.w3.org/1999/xlink" ffdec:objectType="shape" height="41.2px" width="35.9px" xmlns="http://www.w3.org/2000/svg">
  <g transform="matrix(1.0, 0.0, 0.0, 1.0, -3.25, 0.0)">
    <path d="M4.05 10.75 L21.35 1.05 28.55 5.1 11.1 15.1 11.1 33.95 4.05 30.05 4.05 10.75" fill="#000000" fill-opacity="0.12156863" fill-rule="evenodd" stroke="none"/>
    <path d="M5.25 11.45 L5.25 11.5 5.2 11.5 5.25 11.45" fill="#a8a8a8" fill-rule="evenodd" stroke="none"/>
    <path d="M37.2 11.45 L37.15 11.45 37.2 11.45 M5.25 29.7 L5.25 29.85 5.2 29.75 5.25 29.7 M3.25 30.3 L3.25 30.45 3.45 31.05 3.3 30.7 3.25 30.3" fill="#858585" fill-rule="evenodd" stroke="none"/>
    <path d="M37.15 29.9 L37.15 29.85 37.15 29.9 M38.85 31.15 L39.15 30.45 39.15 30.3 39.15 30.7 38.9 31.15 38.85 31.15" fill="#454545" fill-rule="evenodd" stroke="none"/>
    <path d="M21.2 2.2 L5.25 11.45 5.2 11.5 3.4 10.35 3.75 10.0 20.65 0.2 20.7 0.15 Q20.8 0.05 20.95 0.05 L21.2 0.0 21.2 2.2" fill="#dddddd" fill-rule="evenodd" stroke="none"/>
    <path d="M37.2 11.45 L37.15 11.45 21.2 2.2 21.2 0.0 21.45 0.05 21.7 0.15 21.8 0.2 38.65 10.0 39.05 10.35 37.2 11.45 M5.25 11.5 L5.25 29.7 5.2 29.75 3.45 31.05 3.25 30.45 3.25 30.3 3.25 11.0 3.3 10.6 3.4 10.35 5.2 11.5 5.25 11.5" fill="#b7b7b7" fill-rule="evenodd" stroke="none"/>
    <path d="M37.15 11.45 L37.2 11.45 39.05 10.35 39.15 10.6 39.15 11.0 39.15 30.3 39.15 30.45 38.85 31.15 38.8 31.2 37.15 29.9 37.15 29.85 37.15 11.45 M5.25 29.85 L21.2 39.05 21.1 41.2 20.95 41.2 20.7 41.1 3.75 31.35 3.45 31.05 5.2 29.75 5.25 29.85" fill="#949494" fill-rule="evenodd" stroke="none"/>
    <path d="M21.2 39.05 L37.15 29.9 38.8 31.2 38.85 31.15 38.9 31.15 38.8 31.25 38.65 31.35 21.7 41.1 21.45 41.2 21.3 41.2 21.15 41.2 21.1 41.2 21.2 39.05" fill="#808080" fill-rule="evenodd" stroke="none"/>
  </g>
</svg>
