<?xml version="1.0" encoding="UTF-8" standalone="no"?>
<svg xmlns:ffdec="https://www.free-decompiler.com/flash" xmlns:xlink="http://www.w3.org/1999/xlink" ffdec:objectType="shape" height="40.0px" width="39.95px" xmlns="http://www.w3.org/2000/svg">
  <g transform="matrix(1.0, 0.0, 0.0, 1.0, -2.4, 3.05)">
    <path d="M9.4 -2.7 L9.75 -2.95 10.15 -3.05 34.65 -3.05 35.1 -2.95 35.45 -2.7 39.95 2.65 40.15 3.2 40.05 3.75 39.7 4.15 Q37.6 5.5 37.0 6.45 L37.0 6.5 Q36.65 7.05 36.55 8.0 L36.55 8.1 36.55 8.15 Q36.45 8.75 36.5 9.45 L36.5 9.5 Q36.55 10.75 37.3 12.05 L39.25 14.5 39.3 14.5 41.35 17.5 Q42.35 19.4 42.35 21.65 L42.0 24.4 41.95 24.65 40.9 26.8 40.9 26.85 39.1 28.8 39.0 28.85 38.9 28.9 38.8 29.0 36.6 30.35 36.55 30.4 34.35 31.1 34.25 31.1 32.95 31.25 32.9 31.25 30.55 31.45 30.5 31.45 Q29.3 31.6 28.35 31.9 L28.25 31.95 28.0 32.0 Q26.6 32.5 25.45 33.6 L25.4 33.65 24.4 34.7 24.35 34.75 24.35 34.8 24.3 34.85 23.3 36.4 22.8 36.9 22.1 36.9 21.55 36.45 Q19.65 33.1 16.75 32.0 L14.3 31.45 11.9 31.25 11.8 31.25 11.25 31.2 10.95 31.15 10.5 31.1 Q8.05 30.6 6.0 29.0 L4.85 28.0 Q2.4 25.45 2.4 21.65 2.4 19.4 3.45 17.5 L3.4 17.5 Q4.05 16.2 5.55 14.5 L7.45 12.05 Q8.2 10.75 8.3 9.5 L8.3 9.45 Q8.35 7.5 7.75 6.5 L7.75 6.45 Q7.15 5.5 5.1 4.15 L4.75 3.7 4.65 3.15 Q4.7 2.85 4.9 2.65 L5.95 1.4 6.1 1.2 9.4 -2.7 M37.8 27.25 L39.25 25.7 40.05 24.0 40.1 23.9 40.35 21.65 Q40.35 19.9 39.6 18.45 L39.55 18.4 37.75 15.8 35.6 13.1 Q34.55 11.35 34.5 9.55 34.45 8.65 34.55 7.85 L34.55 7.8 Q34.7 6.35 35.3 5.45 35.85 4.45 37.7 3.15 L36.6 1.8 13.9 2.1 10.85 5.25 Q13.15 6.85 13.85 7.95 14.55 9.15 14.5 11.5 14.45 13.05 13.55 14.55 L11.5 17.1 Q10.1 18.75 9.5 19.9 8.6 21.65 8.65 23.65 8.6 26.85 10.55 29.05 L10.9 29.15 11.25 29.2 11.3 29.2 12.1 29.25 14.5 29.45 17.5 30.15 17.45 30.1 Q20.35 31.15 22.4 34.05 L22.75 33.55 22.8 33.55 Q23.4 32.7 24.1 32.1 L24.1 32.15 Q25.5 30.8 27.3 30.15 L27.35 30.1 27.7 30.0 27.75 30.0 Q28.85 29.6 30.3 29.45 L32.8 29.25 33.95 29.1 33.9 29.15 35.75 28.55 35.8 28.55 37.6 27.4 37.8 27.25 37.6 27.4 35.8 28.55 35.75 28.55 33.9 29.15 33.95 29.1 32.8 29.25 30.3 29.45 Q28.85 29.6 27.75 30.0 L27.7 30.0 27.35 30.1 27.3 30.15 Q25.5 30.8 24.1 32.15 L24.1 32.1 Q23.4 32.7 22.8 33.55 L22.75 33.55 22.4 34.05 Q20.35 31.15 17.45 30.1 L17.5 30.15 14.5 29.45 12.1 29.25 11.3 29.2 11.25 29.2 10.9 29.15 10.55 29.05 Q8.6 26.85 8.65 23.65 8.6 21.65 9.5 19.9 10.1 18.75 11.5 17.1 L13.55 14.55 Q14.45 13.05 14.5 11.5 14.55 9.15 13.85 7.95 13.15 6.85 10.85 5.25 L13.9 2.1 36.6 1.8 37.7 3.15 Q35.85 4.45 35.3 5.45 34.7 6.35 34.55 7.8 L34.55 7.85 Q34.45 8.65 34.5 9.55 34.55 11.35 35.6 13.1 L37.75 15.8 39.55 18.4 39.6 18.45 Q40.35 19.9 40.35 21.65 L40.1 23.9 40.05 24.0 39.25 25.7 37.8 27.25 37.9 27.2 37.8 27.25" fill="#f3efba" fill-rule="evenodd" stroke="none"/>
  </g>
</svg>
