<?xml version="1.0" encoding="UTF-8" standalone="no"?>
<svg xmlns:ffdec="https://www.free-decompiler.com/flash" xmlns:xlink="http://www.w3.org/1999/xlink" ffdec:objectType="shape" height="40.0px" width="39.95px" xmlns="http://www.w3.org/2000/svg">
  <g transform="matrix(1.0, 0.0, 0.0, 1.0, 1.0, 1.0)">
    <path d="M33.3 3.75 L10.3 4.05 7.25 7.2 Q9.55 8.75 10.25 9.9 11.0 11.1 10.9 13.45 10.85 15.0 9.95 16.45 L7.9 19.05 Q6.55 20.7 5.9 21.85 5.0 23.55 5.05 25.6 5.0 29.7 8.2 32.15 L8.25 32.2 Q5.5 31.9 3.25 30.15 0.05 27.7 0.1 23.6 0.05 21.6 0.95 19.85 1.6 18.7 2.95 17.1 L5.0 14.5 Q5.9 13.05 5.95 11.45 6.05 9.15 5.3 7.9 4.65 6.8 2.3 5.2 L6.8 -0.1 31.35 -0.1 33.3 3.75" fill="#000000" fill-opacity="0.12156863" fill-rule="evenodd" stroke="none"/>
    <path d="M14.1 32.15 L14.1 32.2 14.05 32.15 14.1 32.15 M8.05 31.25 L8.05 31.3 7.9 31.25 8.05 31.25" fill="#666666" fill-rule="evenodd" stroke="none"/>
    <path d="M38.6 26.45 L38.6 26.65 38.55 26.7 38.55 26.65 38.6 26.45 M36.7 25.95 L36.7 26.05 36.65 26.1 36.65 26.05 36.7 25.95 M20.7 34.2 L20.65 34.15 20.7 34.15 20.7 34.2" fill="#454545" fill-rule="evenodd" stroke="none"/>
    <path d="M2.55 3.45 L2.7 3.25 6.0 -0.65 6.35 -0.9 6.75 -1.0 30.8 -1.0 31.45 -0.7 31.75 0.0 31.45 0.7 30.8 1.0 7.25 1.0 4.25 4.55 4.1 4.7 3.55 4.9 2.8 4.7 2.45 4.0 2.55 3.45" fill="#dddddd" fill-rule="evenodd" stroke="none"/>
    <path d="M2.55 3.45 L2.45 4.0 2.8 4.7 3.55 4.9 4.1 4.7 3.7 5.15 Q5.5 6.5 6.05 7.5 6.95 8.85 6.9 11.6 L6.9 11.65 Q6.8 13.4 5.75 15.15 L3.7 17.85 3.65 17.85 Q2.35 19.35 1.8 20.45 L1.8 20.5 Q1.0 21.95 1.0 23.7 1.0 26.7 2.9 28.65 L2.85 28.65 3.8 29.45 3.85 29.5 Q5.5 30.75 7.5 31.2 L7.85 31.25 7.9 31.25 8.05 31.3 Q8.4 31.35 8.65 31.7 L8.85 32.45 8.45 33.05 7.7 33.25 7.55 33.2 7.1 33.15 Q4.65 32.65 2.6 31.05 L1.45 30.05 Q-1.0 27.5 -1.0 23.7 -1.0 21.45 0.05 19.55 L0.0 19.55 Q0.65 18.25 2.15 16.55 L4.05 14.1 Q4.8 12.8 4.9 11.55 L4.9 11.5 Q4.95 9.55 4.35 8.55 L4.35 8.5 Q3.75 7.55 1.7 6.2 L1.35 5.75 1.25 5.2 Q1.3 4.9 1.5 4.7 L2.55 3.45 M30.8 1.0 L31.45 0.7 31.75 0.0 31.45 -0.7 30.8 -1.0 31.25 -1.0 31.7 -0.9 32.05 -0.65 36.55 4.7 36.75 5.25 36.65 5.8 36.3 6.2 Q34.2 7.55 33.6 8.5 L33.6 8.55 Q33.25 9.1 33.15 10.05 L33.15 10.15 32.8 10.8 Q32.5 11.1 32.1 11.05 L31.4 10.7 Q31.1 10.4 31.15 10.0 L31.15 9.9 31.15 9.85 Q31.3 8.4 31.9 7.5 32.45 6.5 34.3 5.2 L30.8 1.0" fill="#b7b7b7" fill-rule="evenodd" stroke="none"/>
    <path d="M33.15 10.15 L33.15 10.2 Q33.05 10.8 33.1 11.5 L33.1 11.55 Q33.15 12.8 33.9 14.1 L35.85 16.55 35.9 16.55 37.95 19.55 Q38.95 21.45 38.95 23.7 L38.6 26.45 38.55 26.65 38.1 27.25 37.35 27.3 36.75 26.85 Q36.55 26.45 36.65 26.1 L36.7 26.05 36.7 25.95 36.95 23.7 Q36.95 21.95 36.2 20.5 L36.15 20.45 34.35 17.85 32.2 15.15 Q31.15 13.4 31.1 11.6 31.05 10.7 31.15 9.9 L31.15 10.0 Q31.1 10.4 31.4 10.7 L32.1 11.05 Q32.5 11.1 32.8 10.8 L33.15 10.15 M21.0 36.75 L20.95 36.8 20.95 36.85 20.9 36.9 Q20.35 37.6 19.9 38.45 L19.4 38.95 18.7 38.95 18.15 38.5 Q16.25 35.15 13.35 34.05 L10.9 33.5 8.5 33.3 8.4 33.3 7.85 33.25 7.55 33.2 7.7 33.25 8.45 33.05 8.85 32.45 8.65 31.7 Q8.4 31.35 8.05 31.3 L8.05 31.25 8.7 31.3 11.1 31.5 14.1 32.2 14.1 32.15 Q16.95 33.2 19.0 36.1 L19.35 35.6 19.4 35.6 Q19.65 35.25 20.05 35.2 20.45 35.15 20.8 35.45 L21.15 36.1 21.0 36.75" fill="#949494" fill-rule="evenodd" stroke="none"/>
    <path d="M38.55 26.7 L37.5 28.85 37.5 28.9 35.7 30.85 35.6 30.9 35.5 30.95 35.4 31.05 33.2 32.4 33.15 32.45 30.95 33.15 30.85 33.15 29.55 33.3 29.5 33.3 27.15 33.5 27.1 33.5 24.95 33.95 24.85 34.0 24.6 34.05 Q23.2 34.55 22.05 35.65 L22.0 35.7 21.0 36.75 21.15 36.1 20.8 35.45 Q20.45 35.15 20.05 35.2 19.65 35.25 19.4 35.6 19.95 34.75 20.65 34.15 L20.7 34.2 Q22.1 32.85 23.9 32.2 L23.95 32.15 24.3 32.05 24.35 32.05 Q25.45 31.65 26.9 31.5 L29.4 31.3 30.55 31.15 30.5 31.2 32.35 30.6 32.4 30.6 34.2 29.45 34.5 29.25 34.4 29.3 35.85 27.75 36.65 26.1 Q36.55 26.45 36.75 26.85 L37.35 27.3 38.1 27.25 38.55 26.65 38.55 26.7" fill="#808080" fill-rule="evenodd" stroke="none"/>
  </g>
</svg>
