<?xml version="1.0" encoding="UTF-8" standalone="no"?>
<svg xmlns:ffdec="https://www.free-decompiler.com/flash" xmlns:xlink="http://www.w3.org/1999/xlink" ffdec:objectType="shape" height="40.0px" width="39.7px" xmlns="http://www.w3.org/2000/svg">
  <g transform="matrix(1.0, 0.0, 0.0, 1.0, 8.5, -5.45)">
    <path d="M27.15 15.55 L29.1 16.0 29.2 35.4 Q29.0 37.1 28.15 38.25 27.1 39.55 25.3 40.1 L25.35 40.1 22.85 40.4 22.75 40.4 21.4 40.3 18.5 40.45 15.4 40.95 Q14.0 41.25 13.0 41.85 12.7 41.9 12.5 42.1 L12.55 42.05 11.4 42.95 Q8.55 40.3 1.3 40.3 L1.2 40.3 -0.2 40.4 -0.05 14.85 Q2.05 15.85 4.85 16.1 L10.15 15.55 Q14.55 14.1 17.05 13.7 L18.05 13.55 18.65 13.55 Q21.05 13.55 27.15 15.55 21.05 13.55 18.65 13.55 L18.05 13.55 17.05 13.7 Q14.55 14.1 10.15 15.55 L4.85 16.1 Q2.05 15.85 -0.05 14.85 L-0.2 40.4 1.2 40.3 1.3 40.3 Q8.55 40.3 11.4 42.95 L12.55 42.05 12.5 42.1 Q12.7 41.9 13.0 41.85 14.0 41.25 15.4 40.95 L18.5 40.45 21.4 40.3 22.75 40.4 22.85 40.4 25.35 40.1 25.3 40.1 Q27.1 39.55 28.15 38.25 29.0 37.1 29.2 35.4 L29.1 16.0 27.15 15.55 M30.85 7.2 L31.05 7.8 31.2 35.5 31.2 35.65 Q30.9 37.85 29.8 39.35 L29.8 39.4 29.75 39.45 29.75 39.5 Q28.35 41.25 25.9 42.0 L25.85 42.05 22.75 42.4 22.7 42.4 21.4 42.3 18.75 42.45 18.65 42.45 18.6 42.45 15.9 42.9 Q14.75 43.15 13.9 43.65 L13.65 43.75 13.6 43.75 Q12.7 44.3 12.15 45.05 L11.65 45.4 11.05 45.4 Q10.75 45.3 10.55 45.05 8.45 42.3 1.45 42.3 -0.25 42.5 -1.85 42.3 L-2.05 42.25 -3.1 42.05 Q-7.85 40.7 -8.5 35.65 L-8.5 35.5 -8.35 7.8 -8.1 7.2 Q-7.9 6.9 -7.55 6.85 L-6.9 6.9 Q-4.95 7.8 -2.3 8.0 L2.55 7.5 Q7.05 6.0 9.6 5.65 L10.65 5.45 10.75 5.45 10.85 5.45 11.35 5.45 Q13.85 5.45 20.15 7.5 L25.05 8.0 Q27.65 7.8 29.65 6.9 L30.3 6.85 30.85 7.2" fill="#f3efba" fill-rule="evenodd" stroke="none"/>
  </g>
</svg>
