<?xml version="1.0" encoding="UTF-8" standalone="no"?>
<svg xmlns:ffdec="https://www.free-decompiler.com/flash" xmlns:xlink="http://www.w3.org/1999/xlink" ffdec:objectType="shape" height="40.0px" width="39.7px" xmlns="http://www.w3.org/2000/svg">
  <g transform="matrix(1.0, 0.0, 0.0, 1.0, 1.0, 1.0)">
    <path d="M34.95 8.9 Q28.8 6.9 26.45 6.9 L25.8 6.9 24.75 7.05 Q22.25 7.45 17.85 8.9 L12.5 9.45 Q9.7 9.2 7.55 8.2 L7.45 34.9 4.5 34.55 Q0.4 33.4 -0.15 29.0 L-0.05 1.25 Q2.1 2.25 4.9 2.5 7.8 2.7 10.25 1.95 14.65 0.5 17.15 0.1 L18.2 0.0 18.85 -0.05 Q21.2 -0.05 27.35 1.95 L32.7 2.5 Q35.45 2.25 37.65 1.25 L37.7 9.4 34.95 8.9" fill="#000000" fill-opacity="0.12156863" fill-rule="evenodd" stroke="none"/>
    <path d="M18.8 -0.85 L18.35 -1.0 18.85 -1.0 18.8 -0.85 M0.8 5.9 L1.1 5.25 1.1 5.9 0.8 5.9 M18.35 1.0 L18.8 0.85 18.85 1.0 18.35 1.0" fill="#959595" fill-rule="evenodd" stroke="none"/>
    <path d="M36.65 22.0 L36.95 22.65 36.65 22.65 36.65 22.0 M5.8 33.85 L5.9 33.85 5.9 33.9 5.8 33.85 M5.45 35.8 L5.6 35.85 5.65 35.85 5.45 35.8" fill="#666666" fill-rule="evenodd" stroke="none"/>
    <path d="M36.6 33.4 L37.25 33.05 36.8 33.6 36.6 33.4" fill="#454545" fill-rule="evenodd" stroke="none"/>
    <path d="M18.8 -0.85 L18.9 -0.75 19.25 -0.1 19.05 0.65 18.8 0.85 18.35 1.0 17.45 1.15 17.4 1.15 10.7 2.95 10.65 2.95 Q8.1 3.75 5.05 3.55 L1.15 2.8 1.1 5.25 0.8 5.9 0.1 6.2 -0.6 5.9 -0.9 5.25 -0.85 1.35 -0.6 0.75 Q-0.4 0.45 -0.05 0.4 L0.6 0.45 Q2.55 1.35 5.2 1.55 L10.05 1.05 Q14.55 -0.45 17.1 -0.8 L18.15 -1.0 18.25 -1.0 18.35 -1.0 18.8 -0.85" fill="#dddddd" fill-rule="evenodd" stroke="none"/>
    <path d="M18.8 0.85 L19.05 0.65 19.25 -0.1 18.9 -0.75 18.8 -0.85 18.85 -1.0 Q21.35 -1.0 27.65 1.05 L32.55 1.55 Q35.15 1.35 37.15 0.45 L37.8 0.4 Q38.1 0.45 38.35 0.75 L38.55 1.35 38.65 22.0 38.35 22.65 37.65 22.95 Q37.25 22.95 36.95 22.65 L36.65 22.0 36.55 2.85 32.7 3.55 Q29.55 3.75 27.05 2.95 21.15 1.0 18.85 1.0 L18.8 0.85 M-0.9 5.25 L-0.6 5.9 0.1 6.2 0.8 5.9 1.1 5.9 1.0 28.95 Q1.45 32.65 4.95 33.65 L5.8 33.85 5.9 33.9 5.95 33.9 Q6.35 33.95 6.6 34.3 L6.75 35.05 6.35 35.7 5.65 35.85 5.6 35.85 5.45 35.8 4.4 35.6 Q-0.35 34.25 -1.0 29.2 L-1.0 29.05 -0.9 5.25" fill="#b7b7b7" fill-rule="evenodd" stroke="none"/>
    <path d="M36.95 22.65 Q37.25 22.95 37.65 22.95 L38.35 22.65 38.65 22.0 38.7 29.05 38.7 29.2 Q38.4 31.4 37.3 32.9 L37.3 32.95 37.25 33.0 37.25 33.05 36.6 33.4 35.85 33.2 Q35.5 32.95 35.45 32.55 35.4 32.15 35.65 31.8 36.5 30.65 36.7 28.95 L36.65 22.65 36.95 22.65 M5.9 33.85 Q7.25 34.05 8.7 33.85 L8.8 33.85 Q16.05 33.85 18.9 36.5 L20.05 35.6 20.0 35.65 Q20.2 35.45 20.5 35.4 21.5 34.8 22.9 34.5 L26.0 34.0 26.05 34.0 26.8 34.25 27.1 34.95 26.85 35.7 26.15 36.0 26.1 36.0 23.4 36.45 21.4 37.2 21.15 37.3 21.1 37.3 Q20.2 37.85 19.65 38.6 L19.15 38.95 18.55 38.95 Q18.25 38.85 18.05 38.6 15.95 35.85 8.95 35.85 7.25 36.05 5.65 35.85 L6.35 35.7 6.75 35.05 6.6 34.3 Q6.35 33.95 5.95 33.9 L5.9 33.9 5.9 33.85" fill="#949494" fill-rule="evenodd" stroke="none"/>
    <path d="M35.65 31.8 Q35.4 32.15 35.45 32.55 35.5 32.95 35.85 33.2 L36.6 33.4 36.8 33.6 Q35.45 34.9 33.4 35.55 L33.35 35.6 30.25 35.95 30.2 35.95 28.9 35.85 26.25 36.0 26.15 36.0 26.85 35.7 27.1 34.95 26.8 34.25 26.05 34.0 26.0 34.0 28.9 33.85 30.25 33.95 30.35 33.95 32.85 33.65 32.8 33.65 Q34.6 33.1 35.65 31.8" fill="#808080" fill-rule="evenodd" stroke="none"/>
  </g>
</svg>
