<?xml version="1.0" encoding="UTF-8" standalone="no"?>
<svg xmlns:ffdec="https://www.free-decompiler.com/flash" xmlns:xlink="http://www.w3.org/1999/xlink" ffdec:objectType="shape" height="40.0px" width="39.6px" xmlns="http://www.w3.org/2000/svg">
  <g transform="matrix(1.0, 0.0, 0.0, 1.0, -1.55, -7.0)">
    <path d="M40.75 25.5 Q41.6 28.8 40.75 32.05 40.2 35.2 37.55 37.7 L37.45 37.85 35.35 39.5 35.3 39.5 33.95 40.35 33.8 40.4 29.25 42.5 29.2 42.5 29.15 42.5 27.1 43.25 Q25.55 43.8 24.25 44.75 L24.1 44.85 22.1 46.65 21.65 46.95 21.1 46.95 20.6 46.65 Q18.55 44.25 15.7 43.25 L15.65 43.25 Q10.1 41.25 7.45 39.5 2.7 36.35 2.0 32.05 1.1 28.8 2.05 25.5 2.6 23.4 4.6 19.9 L4.6 19.95 7.15 14.7 7.7 12.8 Q8.05 10.9 7.75 9.1 7.65 8.7 7.9 8.35 8.1 8.0 8.5 7.95 L9.25 8.05 9.8 8.45 9.75 8.4 11.65 9.3 11.6 9.3 13.5 9.75 13.55 9.75 16.3 9.6 16.6 9.5 Q18.6 8.95 20.3 7.65 L20.75 7.25 Q21.0 7.0 21.35 7.0 L21.95 7.2 22.4 7.6 23.95 8.65 23.9 8.6 24.1 8.7 24.15 8.75 26.0 9.5 26.05 9.5 26.15 9.5 26.45 9.6 26.9 9.7 30.25 9.55 30.4 9.5 31.25 9.25 31.1 9.3 31.7 9.0 31.75 9.0 33.45 8.1 Q33.75 7.85 34.2 7.95 34.55 8.0 34.8 8.35 L35.0 9.1 Q34.75 10.45 34.95 11.9 L34.95 12.0 35.0 12.1 35.0 12.25 Q35.15 13.4 35.6 14.6 L35.6 14.65 35.95 15.5 35.95 15.55 38.2 19.85 38.2 19.9 Q40.1 23.4 40.7 25.5 L40.75 25.5" fill="#f3efba" fill-rule="evenodd" stroke="none"/>
  </g>
</svg>
