<?xml version="1.0" encoding="UTF-8" standalone="no"?>
<svg xmlns:ffdec="https://www.free-decompiler.com/flash" xmlns:xlink="http://www.w3.org/1999/xlink" ffdec:objectType="shape" height="40.0px" width="39.6px" xmlns="http://www.w3.org/2000/svg">
  <g transform="matrix(1.0, 0.0, 0.0, 1.0, 1.0, 1.0)">
    <path d="M29.35 2.55 L30.0 2.25 31.9 1.25 Q31.6 2.95 31.9 4.75 32.05 6.0 32.55 7.35 L32.9 8.25 Q31.25 8.6 29.4 8.3 L28.8 8.2 26.35 7.25 24.05 5.65 23.55 6.05 Q21.65 7.6 19.3 8.2 L19.25 8.2 Q16.35 8.85 13.85 7.8 12.6 7.35 11.8 6.9 L11.25 6.55 Q11.75 9.5 10.65 12.6 L8.0 18.05 Q6.05 21.4 5.5 23.4 4.6 26.5 5.45 29.5 5.6 30.4 6.0 31.3 L5.6 31.05 Q1.2 28.2 0.5 24.25 -0.35 21.2 0.55 18.1 1.1 16.15 3.05 12.75 L5.7 7.35 Q6.8 4.2 6.3 1.25 L6.85 1.65 8.9 2.55 Q11.4 3.6 14.3 2.9 L14.35 2.9 Q16.7 2.3 18.6 0.8 L19.15 0.35 Q20.2 1.3 21.4 1.95 22.55 2.6 23.85 2.9 L24.45 3.0 Q27.05 3.5 29.35 2.55" fill="#000000" fill-opacity="0.12156863" fill-rule="evenodd" stroke="none"/>
    <path d="M14.05 1.5 L14.2 1.5 14.05 1.5" fill="#959595" fill-rule="evenodd" stroke="none"/>
    <path d="M35.0 29.7 L34.9 29.85 35.0 29.7 M26.7 34.5 L26.65 34.5 26.6 34.5 26.7 34.5 M21.7 36.75 L21.55 36.85 21.65 36.8 21.7 36.75 M33.65 28.25 L33.55 28.4 33.55 28.35 33.65 28.25" fill="#666666" fill-rule="evenodd" stroke="none"/>
    <path d="M14.2 1.5 Q14.6 1.5 14.9 1.8 L15.2 2.5 14.9 3.2 14.6 3.45 14.55 3.45 14.2 3.55 10.8 3.75 10.7 3.75 10.05 3.35 Q9.8 3.05 9.85 2.65 9.9 2.2 10.25 1.95 10.55 1.7 10.95 1.75 L11.0 1.75 13.75 1.6 14.05 1.5 14.2 1.5 M22.95 3.4 L22.35 2.9 Q22.15 2.5 22.3 2.15 L22.8 1.55 23.45 1.5 23.5 1.5 23.6 1.5 23.9 1.6 24.35 1.7 27.7 1.55 27.85 1.5 28.45 1.65 28.95 2.25 28.85 3.0 28.4 3.4 28.2 3.5 24.0 3.65 23.4 3.55 23.25 3.5 23.0 3.45 22.95 3.4" fill="#dddddd" fill-rule="evenodd" stroke="none"/>
    <path d="M14.2 1.5 Q16.1 0.9 17.75 -0.35 L18.2 -0.75 Q18.45 -1.0 18.8 -1.0 L19.4 -0.8 19.85 -0.4 21.4 0.65 21.35 0.6 21.55 0.7 21.6 0.75 Q22.45 1.2 23.45 1.5 L22.8 1.55 22.3 2.15 Q22.15 2.5 22.35 2.9 L22.95 3.4 Q21.7 3.05 20.65 2.5 L20.45 2.4 18.8 1.3 Q16.85 2.8 14.55 3.45 L14.6 3.45 14.9 3.2 15.2 2.5 14.9 1.8 Q14.6 1.5 14.2 1.5 M27.85 1.5 L28.7 1.25 28.55 1.3 29.15 1.0 29.2 1.0 30.9 0.1 31.65 -0.05 Q32.0 0.0 32.25 0.35 L32.45 1.1 Q32.2 2.45 32.4 3.9 L32.4 4.0 32.45 4.1 32.45 4.25 32.3 4.85 31.7 5.35 30.95 5.2 30.5 4.6 30.45 4.5 30.4 4.15 30.3 2.7 30.05 2.8 30.0 2.85 Q29.7 2.95 29.35 3.15 L29.25 3.15 28.4 3.4 28.85 3.0 28.95 2.25 28.45 1.65 27.85 1.5 M33.4 7.5 L33.4 7.55 35.65 11.85 35.65 11.9 Q37.55 15.4 38.15 17.5 L38.2 17.5 Q39.05 20.8 38.2 24.05 37.65 27.2 35.0 29.7 L34.9 29.85 34.15 30.1 Q33.75 30.1 33.5 29.8 33.2 29.45 33.2 29.05 33.2 28.65 33.55 28.4 L33.65 28.25 Q35.8 26.25 36.25 23.7 L36.25 23.6 Q37.0 20.85 36.25 18.05 35.65 16.1 33.9 12.85 32.25 10.0 31.55 8.3 L31.5 8.25 31.55 7.55 Q31.65 7.15 32.05 7.0 32.45 6.8 32.85 7.0 L33.4 7.5 M21.55 36.85 Q20.45 37.6 19.55 38.65 L19.1 38.95 18.55 38.95 18.05 38.65 Q16.0 36.25 13.15 35.25 L13.1 35.25 Q7.55 33.25 4.9 31.5 0.15 28.35 -0.55 24.05 -1.45 20.8 -0.5 17.5 0.05 15.4 2.05 11.9 L2.05 11.95 4.6 6.7 5.15 4.8 Q5.5 2.9 5.2 1.1 5.1 0.7 5.35 0.35 5.55 0.0 5.95 -0.05 L6.7 0.05 7.25 0.45 7.2 0.4 9.1 1.3 9.05 1.3 10.95 1.75 Q10.55 1.7 10.25 1.95 9.9 2.2 9.85 2.65 9.8 3.05 10.05 3.35 L10.7 3.75 8.35 3.15 7.3 2.7 7.1 5.2 6.5 7.35 6.5 7.4 3.8 12.9 Q1.95 16.1 1.45 18.05 L1.4 18.05 Q0.6 20.85 1.35 23.6 L1.4 23.7 Q2.05 27.25 6.0 29.85 8.55 31.45 13.8 33.35 16.6 34.35 18.8 36.55 19.55 35.8 20.45 35.25 L20.55 35.15 21.3 35.0 Q21.7 35.05 21.95 35.4 L22.1 36.15 21.65 36.8 21.55 36.85" fill="#b7b7b7" fill-rule="evenodd" stroke="none"/>
    <path d="M32.45 4.25 Q32.6 5.4 33.05 6.6 L33.05 6.65 33.4 7.5 32.85 7.0 Q32.45 6.8 32.05 7.0 31.65 7.15 31.55 7.55 L31.5 8.25 31.2 7.4 31.15 7.35 Q30.6 5.9 30.45 4.5 L30.5 4.6 30.95 5.2 31.7 5.35 32.3 4.85 32.45 4.25 M34.9 29.85 L32.8 31.5 32.75 31.5 31.4 32.35 31.25 32.4 30.65 32.45 30.05 31.95 Q29.8 31.6 29.95 31.2 L30.3 30.65 30.4 30.6 31.65 29.85 33.55 28.35 33.55 28.4 Q33.2 28.65 33.2 29.05 33.2 29.45 33.5 29.8 33.75 30.1 34.15 30.1 L34.9 29.85 M26.6 34.5 L24.55 35.25 Q23.0 35.8 21.7 36.75 L21.65 36.8 22.1 36.15 21.95 35.4 Q21.7 35.05 21.3 35.0 L20.55 35.15 20.45 35.25 20.5 35.15 Q22.0 34.0 23.9 33.35 L23.85 33.35 26.0 32.6 26.05 32.6 26.75 32.65 27.25 33.25 27.2 34.0 26.7 34.5 26.6 34.5" fill="#949494" fill-rule="evenodd" stroke="none"/>
    <path d="M31.25 32.4 L26.7 34.5 27.2 34.0 27.25 33.25 26.75 32.65 26.05 32.6 30.3 30.65 29.95 31.2 Q29.8 31.6 30.05 31.95 L30.65 32.45 31.25 32.4" fill="#808080" fill-rule="evenodd" stroke="none"/>
  </g>
</svg>
