<?xml version="1.0" encoding="UTF-8" standalone="no"?>
<svg xmlns:ffdec="https://www.free-decompiler.com/flash" xmlns:xlink="http://www.w3.org/1999/xlink" ffdec:objectType="shape" height="40.0px" width="40.0px" xmlns="http://www.w3.org/2000/svg">
  <g transform="matrix(1.0, 0.0, 0.0, 1.0, -24.8, -5.6)">
    <path d="M63.75 5.6 L63.8 5.6 64.2 5.7 64.45 5.85 64.5 5.9 64.8 6.55 64.8 6.6 64.75 6.95 64.55 7.25 64.5 7.3 61.05 11.3 61.05 34.6 60.95 35.05 60.65 35.45 59.6 36.1 59.45 36.15 51.7 41.25 51.65 41.3 51.6 41.3 45.4 45.45 45.05 45.6 44.9 45.6 44.65 45.6 44.3 45.45 44.25 45.4 29.05 35.45 28.75 35.1 Q28.6 34.85 28.6 34.6 L28.6 11.35 25.1 7.3 25.05 7.25 24.85 6.85 24.8 6.6 24.8 6.55 Q24.85 6.15 25.1 5.9 L25.15 5.85 25.8 5.6 25.9 5.6 63.75 5.6" fill="#f3efba" fill-rule="evenodd" stroke="none"/>
  </g>
</svg>
