<?xml version="1.0" encoding="UTF-8" standalone="no"?>
<svg xmlns:ffdec="https://www.free-decompiler.com/flash" xmlns:xlink="http://www.w3.org/1999/xlink" ffdec:objectType="shape" height="40.0px" width="40.0px" xmlns="http://www.w3.org/2000/svg">
  <g transform="matrix(1.0, 0.0, 0.0, 1.0, 1.0, 1.0)">
    <path d="M34.25 7.5 L8.25 7.5 12.05 11.9 12.05 33.6 3.8 28.2 3.8 4.55 0.0 0.2 38.0 0.2 34.25 4.5 34.25 7.5" fill="#000000" fill-opacity="0.12156863" fill-rule="evenodd" stroke="none"/>
    <path d="M19.95 38.65 L19.7 38.8 19.9 38.55 19.95 38.65 M24.75 33.05 L24.8 33.0 24.75 33.05" fill="#666666" fill-rule="evenodd" stroke="none"/>
    <path d="M-0.7 0.7 L-0.75 0.65 -0.95 0.25 -1.0 0.0 -1.0 -0.05 -0.7 -0.7 -0.65 -0.75 0.0 -1.0 0.1 -1.0 37.95 -1.0 38.0 -1.0 38.4 -0.9 38.65 -0.75 38.7 -0.7 39.0 -0.05 39.0 0.0 38.95 0.35 38.75 0.65 38.7 0.7 38.0 1.0 35.8 1.0 2.2 1.0 0.0 1.0 -0.7 0.7" fill="#dddddd" fill-rule="evenodd" stroke="none"/>
    <path d="M-0.7 0.7 L0.0 1.0 2.2 1.0 4.55 3.7 4.8 4.35 4.8 27.5 19.05 36.85 19.6 37.2 20.05 37.8 19.9 38.55 19.7 38.8 19.6 38.85 19.25 39.0 19.1 39.0 18.85 39.0 18.5 38.85 18.45 38.8 3.25 28.85 2.95 28.5 Q2.8 28.25 2.8 28.0 L2.8 4.75 -0.7 0.7 M35.8 1.0 L38.0 1.0 38.7 0.7 35.25 4.7 35.25 28.0 35.15 28.45 34.95 28.7 34.25 29.0 Q33.85 29.0 33.55 28.7 33.25 28.4 33.25 28.0 L33.25 27.45 33.25 4.3 33.5 3.65 35.8 1.0" fill="#b7b7b7" fill-rule="evenodd" stroke="none"/>
    <path d="M35.15 28.45 L34.85 28.85 33.8 29.5 33.65 29.55 33.05 29.65 Q32.6 29.55 32.4 29.25 32.15 28.9 32.25 28.5 L32.55 27.9 32.65 27.85 33.25 27.45 33.25 28.0 Q33.25 28.4 33.55 28.7 33.85 29.0 34.25 29.0 L34.95 28.7 35.15 28.45 M25.9 34.65 L25.85 34.7 25.8 34.7 19.95 38.65 19.9 38.55 20.05 37.8 19.6 37.2 19.05 36.85 24.75 33.05 24.8 33.0 25.5 32.9 Q25.9 32.95 26.15 33.3 L26.3 34.05 25.9 34.65" fill="#949494" fill-rule="evenodd" stroke="none"/>
    <path d="M33.65 29.55 L25.9 34.65 26.3 34.05 26.15 33.3 Q25.9 32.95 25.5 32.9 L24.8 33.0 32.55 27.9 32.25 28.5 Q32.15 28.9 32.4 29.25 32.6 29.55 33.05 29.65 L33.65 29.55" fill="#808080" fill-rule="evenodd" stroke="none"/>
  </g>
</svg>
