<?xml version="1.0" encoding="UTF-8" standalone="no"?>
<svg xmlns:ffdec="https://www.free-decompiler.com/flash" xmlns:xlink="http://www.w3.org/1999/xlink" ffdec:objectType="shape" height="40.8px" width="36.15px" xmlns="http://www.w3.org/2000/svg">
  <g transform="matrix(1.0, 0.0, 0.0, 1.0, -2.7, 0.45)">
    <path d="M20.0 -0.4 L20.2 -0.45 Q20.5 -0.45 21.2 0.1 L20.95 -0.15 Q24.85 3.45 28.95 0.75 L29.15 0.65 29.4 0.6 29.5 0.6 29.55 0.6 29.6 0.6 29.7 0.6 29.95 0.65 30.0 0.7 31.25 1.5 31.3 1.55 31.75 2.0 31.7 2.0 34.2 5.05 34.4 5.4 36.0 7.95 36.0 7.9 37.4 11.0 37.4 11.05 37.8 12.3 37.75 12.3 Q38.45 14.55 38.65 17.1 L38.8 18.8 38.85 20.15 38.85 20.85 38.85 21.35 38.8 21.7 38.75 23.1 38.75 23.25 38.7 23.55 38.65 23.9 38.55 24.55 38.45 25.05 Q37.5 30.75 34.25 35.1 L33.65 35.85 32.9 36.8 32.15 37.75 32.05 37.85 31.7 38.2 31.65 38.25 30.8 38.9 30.85 38.85 30.2 39.2 30.0 39.25 29.8 39.25 29.4 39.25 29.25 39.25 29.05 39.2 28.4 38.85 28.35 38.85 28.25 38.75 28.0 38.65 27.85 38.55 27.45 38.45 27.0 38.3 25.3 38.35 24.9 38.4 24.6 38.45 23.55 38.95 23.35 39.1 22.45 39.65 22.15 39.95 21.85 40.2 21.1 40.35 21.05 40.35 20.95 40.35 20.9 40.35 18.85 39.15 18.75 39.1 17.25 38.45 17.0 38.35 15.4 38.35 15.3 38.35 15.2 38.35 14.3 38.5 13.15 39.1 12.8 39.2 12.5 39.2 11.65 39.0 10.9 38.6 10.8 38.55 10.65 38.45 11.1 38.7 9.75 37.85 9.6 37.75 7.95 35.9 7.9 35.85 Q3.45 30.35 2.85 22.7 L2.75 21.1 2.7 20.15 Q2.7 18.9 2.85 17.7 L2.85 17.45 2.85 17.35 Q3.4 10.95 8.05 4.15 9.25 2.35 10.5 0.9 L10.45 0.85 11.2 0.9 Q16.85 3.55 19.4 0.0 19.6 -0.35 20.0 -0.4" fill="#f2eeba" fill-rule="evenodd" stroke="none"/>
    <path d="M31.75 1.4 L31.75 1.25 31.75 1.4" fill="#e3dfbd" fill-rule="evenodd" stroke="none"/>
  </g>
</svg>
