<?xml version="1.0" encoding="UTF-8" standalone="no"?>
<svg xmlns:ffdec="https://www.free-decompiler.com/flash" xmlns:xlink="http://www.w3.org/1999/xlink" ffdec:objectType="shape" height="40.8px" width="36.15px" xmlns="http://www.w3.org/2000/svg">
  <g transform="matrix(1.0, 0.0, 0.0, 1.0, -2.3, 1.15)">
    <path d="M32.5 5.35 L33.25 6.35 32.75 6.6 32.25 6.9 31.7 7.0 31.6 7.05 29.1 7.15 28.7 7.1 28.55 7.0 28.45 7.0 27.05 6.45 27.0 6.4 26.8 6.4 26.65 6.2 25.7 5.55 25.4 5.25 24.95 5.15 24.45 5.3 24.15 5.6 23.25 6.2 21.35 7.0 21.1 7.1 19.0 7.2 18.95 7.2 17.65 6.9 16.35 6.25 Q15.5 6.4 14.7 7.0 L11.95 10.6 11.8 10.95 11.6 11.15 Q8.3 15.8 7.8 21.85 L7.8 22.2 7.65 24.5 7.7 25.3 7.8 26.85 Q8.2 32.35 10.85 36.75 L11.4 37.5 10.05 36.9 9.25 36.35 7.65 34.7 Q3.25 29.5 2.7 22.25 L2.6 20.65 2.55 19.9 Q2.55 18.7 2.7 17.55 L2.7 17.2 Q3.25 11.15 6.5 6.55 L6.7 6.35 6.85 5.95 9.6 2.35 Q10.4 1.75 11.25 1.65 L12.55 2.25 13.85 2.6 13.9 2.6 16.0 2.45 16.25 2.35 Q17.2 2.15 18.15 1.6 L19.05 1.0 19.4 0.7 Q19.55 0.5 19.85 0.5 L20.3 0.6 20.6 0.95 21.6 1.6 21.7 1.75 21.9 1.75 21.95 1.8 23.35 2.35 23.45 2.35 23.6 2.45 24.0 2.5 26.5 2.4 26.6 2.35 27.15 2.25 27.65 1.95 28.35 1.6 28.8 1.6 30.05 2.35 32.9 5.7 32.5 5.35" fill="#000000" fill-opacity="0.12156863" fill-rule="evenodd" stroke="none"/>
    <path d="M19.8 -1.1 L19.6 -1.1 19.8 -1.15 19.8 -1.1 M10.1 0.15 L10.1 0.2 10.05 0.15 10.1 0.15" fill="#cccccc" fill-rule="evenodd" stroke="none"/>
    <path d="M20.85 -0.6 L20.8 -0.6 20.55 -0.85 20.85 -0.6 M37.35 11.6 L37.4 11.6 37.35 11.6 M20.6 37.45 L20.65 37.45 20.6 37.45" fill="#666666" fill-rule="evenodd" stroke="none"/>
    <path d="M31.3 1.3 L31.3 1.25 31.35 1.3 31.3 1.3 M10.7 38.0 L10.7 38.05 10.5 37.9 10.4 37.85 10.25 37.75 10.7 38.0" fill="#959595" fill-rule="evenodd" stroke="none"/>
    <path d="M11.4 36.15 L11.35 36.1 11.4 36.15" fill="#000000" fill-rule="evenodd" stroke="none"/>
    <path d="M29.2 36.55 L29.15 36.6 29.15 36.55 29.2 36.55" fill="#4a4a4a" fill-rule="evenodd" stroke="none"/>
    <path d="M19.6 -1.1 L19.8 -1.1 19.95 1.35 19.9 1.4 Q16.8 4.85 10.9 2.45 L10.85 2.4 10.1 0.2 10.1 0.15 10.8 0.2 Q16.45 2.85 19.0 -0.7 L19.6 -1.1" fill="#dddddd" fill-rule="evenodd" stroke="none"/>
    <path d="M10.1 0.2 L10.85 2.4 9.3 4.6 9.3 4.55 Q5.0 10.85 4.45 16.85 L4.45 17.1 4.45 17.25 Q4.3 18.3 4.3 19.45 L4.35 20.15 4.35 20.25 4.45 21.75 4.45 21.8 Q4.95 28.85 9.1 33.95 L10.45 35.5 11.15 35.95 11.2 35.95 11.35 36.1 11.4 36.15 11.55 36.2 12.15 36.45 12.4 38.5 12.1 38.5 11.25 38.3 10.7 38.05 10.7 38.0 9.35 37.15 9.2 37.05 7.55 35.2 7.5 35.15 Q3.05 29.65 2.45 22.0 L2.35 20.4 2.3 19.45 Q2.3 18.2 2.45 17.0 L2.45 16.75 2.45 16.65 Q3.0 10.25 7.65 3.45 L10.1 0.2 M29.15 -0.1 L29.2 -0.1 29.3 -0.1 29.55 -0.05 29.6 0.0 Q30.2 0.25 30.85 0.8 L30.9 0.85 31.3 1.25 31.3 1.3 33.8 4.35 34.0 4.7 35.6 7.25 35.6 7.2 37.0 10.3 37.0 10.35 37.0 10.4 37.0 11.1 36.45 11.65 35.7 11.65 35.15 11.1 35.1 11.05 33.85 8.2 31.9 5.25 31.7 4.95 29.85 2.65 29.8 2.6 29.55 2.3 29.15 2.0 29.05 1.95 29.15 -0.1" fill="#b7b7b7" fill-rule="evenodd" stroke="none"/>
    <path d="M19.8 -1.1 L19.8 -1.15 20.8 -0.6 20.85 -0.6 Q24.6 2.65 28.55 0.05 L28.75 -0.05 29.0 -0.1 29.1 -0.1 29.15 -0.1 29.05 1.95 29.15 2.0 Q24.35 4.9 19.9 1.4 L19.95 1.35 19.8 -1.1 M35.1 11.05 L35.15 11.1 35.7 11.65 36.45 11.65 37.0 11.1 37.0 10.4 37.4 11.6 37.35 11.6 Q38.05 13.85 38.25 16.4 L38.4 18.1 38.45 19.45 38.45 20.15 38.45 20.65 38.4 21.0 38.35 22.4 38.35 22.55 38.3 22.85 38.25 23.2 38.15 23.85 38.05 24.35 Q37.1 30.05 33.85 34.4 L33.25 35.15 32.5 36.1 31.75 37.05 31.65 37.15 31.3 37.5 31.25 37.55 30.4 38.2 30.45 38.15 29.8 38.5 29.6 38.55 29.4 38.55 29.3 38.55 29.0 38.5 28.9 38.4 29.15 36.6 29.2 36.55 29.4 36.45 29.95 36.05 30.15 35.85 30.95 34.8 31.0 34.75 31.65 33.95 31.7 33.9 32.25 33.2 Q35.25 29.15 36.15 23.8 L36.15 23.65 36.15 23.55 36.25 22.85 36.35 22.55 36.35 22.3 36.45 20.55 36.45 20.15 36.45 19.45 36.4 18.25 36.4 18.2 36.25 16.65 36.25 16.6 Q36.05 14.25 35.45 12.15 L35.45 12.1 35.1 11.05 M12.4 38.5 L12.15 36.45 12.2 36.4 12.8 36.15 Q12.9 36.0 13.1 35.95 L14.75 35.65 17.1 35.75 17.25 35.75 17.35 35.8 19.45 36.7 20.4 37.3 20.6 37.4 20.6 37.45 20.7 39.65 20.65 39.65 20.55 39.65 20.5 39.65 18.45 38.45 18.35 38.4 Q17.65 37.95 16.85 37.75 L16.6 37.65 15.0 37.65 14.9 37.65 14.8 37.65 13.9 37.8 12.75 38.4 12.4 38.5" fill="#949494" fill-rule="evenodd" stroke="none"/>
    <path d="M29.15 36.6 L28.9 38.4 29.0 38.5 29.3 38.55 29.0 38.55 28.85 38.55 28.65 38.5 28.0 38.15 27.95 38.15 27.85 38.05 27.6 37.95 27.45 37.85 27.05 37.75 26.6 37.6 24.9 37.65 24.5 37.7 24.2 37.75 23.15 38.25 22.95 38.4 22.05 38.95 21.75 39.25 21.45 39.5 20.7 39.65 20.6 37.45 20.65 37.45 20.9 37.25 21.1 37.15 21.7 36.85 Q21.85 36.65 22.1 36.5 L21.85 36.7 21.95 36.65 22.2 36.5 23.7 35.8 23.95 35.75 24.35 35.7 24.5 35.7 27.45 35.75 28.55 36.25 28.0 35.95 28.85 36.35 29.05 36.5 29.05 36.45 29.15 36.55 29.15 36.6" fill="#808080" fill-rule="evenodd" stroke="none"/>
  </g>
</svg>
