<?xml version="1.0" encoding="UTF-8" standalone="no"?>
<svg xmlns:ffdec="https://www.free-decompiler.com/flash" xmlns:xlink="http://www.w3.org/1999/xlink" ffdec:objectType="shape" height="40.0px" width="40.0px" xmlns="http://www.w3.org/2000/svg">
  <g transform="matrix(1.0, 0.0, 0.0, 1.0, -0.6, -0.15)">
    <path d="M40.5 17.9 L40.6 20.15 Q40.6 26.2 37.5 30.9 L37.5 30.95 37.45 31.0 34.8 34.3 34.75 34.3 Q30.25 38.75 24.35 39.85 L24.1 39.9 20.6 40.15 18.45 40.05 Q14.55 39.65 11.3 37.85 L11.25 37.85 11.2 37.85 Q8.65 36.45 6.45 34.35 L6.45 34.3 Q0.6 28.4 0.6 20.15 0.6 16.95 1.5 14.1 L1.55 14.05 Q2.4 11.15 4.2 8.7 L4.2 8.65 Q5.2 7.25 6.45 6.0 L8.25 4.4 Q9.55 3.3 11.05 2.55 15.2 0.2 20.25 0.15 L20.3 0.15 20.6 0.15 Q28.85 0.1 34.75 6.0 39.75 11.0 40.5 17.85 L40.5 17.9" fill="#f3efba" fill-rule="evenodd" stroke="none"/>
  </g>
</svg>
