<?xml version="1.0" encoding="UTF-8" standalone="no"?>
<svg xmlns:ffdec="https://www.free-decompiler.com/flash" xmlns:xlink="http://www.w3.org/1999/xlink" ffdec:objectType="shape" height="40.0px" width="40.0px" xmlns="http://www.w3.org/2000/svg">
  <g transform="matrix(1.0, 0.0, 0.0, 1.0, 1.0, 1.0)">
    <path d="M31.95 5.3 Q29.35 4.5 26.45 4.55 L26.05 4.55 Q18.4 4.65 13.0 10.1 9.6 13.5 8.25 17.8 7.4 20.5 7.45 23.55 7.4 31.4 13.0 37.0 L13.25 37.2 Q11.45 36.65 9.75 35.8 7.35 34.45 5.3 32.45 -0.3 26.8 -0.25 19.0 -0.3 15.95 0.55 13.25 1.9 8.95 5.3 5.55 10.7 0.1 18.35 0.0 L18.75 0.0 Q26.45 -0.05 31.95 5.3" fill="#000000" fill-opacity="0.12156863" fill-rule="evenodd" stroke="none"/>
    <path d="M19.0 -1.0 L19.0 -0.95 18.7 -1.0 19.0 -1.0 M19.0 0.95 L19.0 1.0 18.7 1.0 19.0 0.95 M1.8 13.55 L1.85 13.45 1.8 13.55" fill="#959595" fill-rule="evenodd" stroke="none"/>
    <path d="M18.7 -1.0 L19.0 -0.95 19.35 -0.7 19.65 0.0 19.4 0.7 19.0 0.95 18.7 1.0 18.65 1.0 Q14.1 1.05 10.4 3.15 8.15 4.3 6.3 6.25 L6.25 6.25 Q5.1 7.4 4.25 8.7 L4.2 8.7 Q2.6 10.9 1.85 13.45 L1.8 13.55 1.35 14.15 0.6 14.2 0.0 13.75 -0.1 13.0 -0.05 12.9 Q0.8 10.0 2.6 7.55 L2.6 7.5 Q3.6 6.1 4.85 4.85 6.95 2.7 9.45 1.4 13.6 -0.95 18.65 -1.0 L18.7 -1.0" fill="#dddddd" fill-rule="evenodd" stroke="none"/>
    <path d="M19.0 -0.95 L19.0 -1.0 Q27.25 -1.05 33.15 4.85 38.15 9.85 38.9 16.7 L38.9 16.75 38.7 17.45 38.0 17.8 37.3 17.6 Q36.95 17.3 36.9 16.9 36.25 10.75 31.75 6.25 26.45 0.95 19.0 1.0 L19.0 0.95 19.4 0.7 19.65 0.0 19.35 -0.7 19.0 -0.95 M-0.05 12.9 L-0.1 13.0 0.0 13.75 0.6 14.2 1.35 14.15 1.8 13.55 Q1.0 16.1 1.0 19.0 1.0 26.45 6.25 31.75 8.25 33.65 10.5 34.9 L10.55 34.95 11.0 35.55 10.95 36.3 10.35 36.75 9.7 36.7 9.65 36.7 9.6 36.7 Q7.05 35.3 4.85 33.2 L4.85 33.15 Q-1.0 27.25 -1.0 19.0 -1.0 15.8 -0.1 12.95 L-0.05 12.9" fill="#b7b7b7" fill-rule="evenodd" stroke="none"/>
    <path d="M36.9 16.9 Q36.95 17.3 37.3 17.6 L38.0 17.8 38.7 17.45 38.9 16.75 39.0 19.0 Q39.0 25.05 35.9 29.75 L35.9 29.8 35.85 29.85 35.25 30.25 34.5 30.1 Q34.15 29.85 34.1 29.45 34.0 29.05 34.25 28.7 37.0 24.4 37.0 19.0 L36.9 16.9 M10.55 34.95 Q14.35 37.0 19.0 37.0 L22.2 36.75 22.4 36.75 22.95 36.95 23.35 37.6 23.15 38.35 22.75 38.7 22.5 38.75 19.0 39.0 Q13.85 39.0 9.7 36.7 L10.35 36.75 10.95 36.3 11.0 35.55 10.55 34.95" fill="#949494" fill-rule="evenodd" stroke="none"/>
    <path d="M34.25 28.7 Q34.0 29.05 34.1 29.45 34.15 29.85 34.5 30.1 L35.25 30.25 35.85 29.85 33.2 33.15 33.15 33.15 Q28.65 37.6 22.75 38.7 L23.15 38.35 23.35 37.6 22.95 36.95 22.4 36.75 Q27.7 35.75 31.75 31.75 L34.25 28.7" fill="#808080" fill-rule="evenodd" stroke="none"/>
  </g>
</svg>
