<?xml version="1.0" encoding="UTF-8" standalone="no"?>
<svg xmlns:ffdec="https://www.free-decompiler.com/flash" xmlns:xlink="http://www.w3.org/1999/xlink" ffdec:objectType="shape" height="40.0px" width="39.8px" xmlns="http://www.w3.org/2000/svg">
  <g transform="matrix(1.0, 0.0, 0.0, 1.0, -1.25, -0.15)">
    <path d="M41.05 1.15 L41.05 18.05 41.05 22.55 41.05 22.6 40.55 27.15 40.5 27.3 40.4 27.75 40.4 27.85 40.35 27.95 Q39.15 32.45 35.65 35.25 L35.65 35.3 Q32.85 37.65 28.95 38.9 L29.0 38.9 27.15 39.45 27.1 39.45 21.2 40.15 21.15 40.15 17.45 39.9 17.4 39.9 13.35 38.9 Q9.45 37.65 6.7 35.3 L6.65 35.25 Q2.8 32.2 1.8 27.15 1.25 24.7 1.25 18.05 L1.25 1.15 1.35 0.75 Q1.5 0.35 1.9 0.25 L2.25 0.15 2.65 0.25 Q5.35 1.4 6.6 1.6 L6.65 1.65 11.7 1.25 13.35 0.9 13.4 0.9 13.45 0.85 16.3 0.5 Q19.35 0.75 21.15 2.4 22.9 0.7 25.95 0.5 L27.05 0.55 28.3 0.75 28.2 0.75 29.75 1.05 30.8 1.3 35.75 1.65 35.75 1.6 37.35 1.2 37.45 1.15 39.7 0.25 40.35 0.2 40.85 0.55 41.05 1.15 M35.2 8.35 L33.3 8.15 Q29.95 8.4 28.35 10.6 26.7 8.4 23.4 8.15 L19.1 8.9 13.65 9.3 Q12.3 9.1 9.45 7.8 L9.45 24.7 Q9.45 31.25 9.95 33.6 L10.45 35.5 Q12.05 36.4 13.95 37.0 L14.0 37.0 17.7 37.9 17.75 37.9 21.15 38.15 26.65 37.5 26.75 37.5 28.35 37.0 Q31.85 35.85 34.35 33.75 L34.4 33.75 Q37.35 31.3 38.4 27.45 L38.6 26.65 39.05 22.55 39.05 22.5 39.05 18.05 39.05 9.2 37.65 8.9 36.8 8.7 35.2 8.35 36.8 8.7 37.65 8.9 39.05 9.2 39.05 18.05 39.05 22.5 39.05 22.55 38.6 26.65 38.4 27.45 Q37.35 31.3 34.4 33.75 L34.35 33.75 Q31.85 35.85 28.35 37.0 L26.75 37.5 26.65 37.5 21.15 38.15 17.75 37.9 17.7 37.9 14.0 37.0 13.95 37.0 Q12.05 36.4 10.45 35.5 L9.95 33.6 Q9.45 31.25 9.45 24.7 L9.45 7.8 Q12.3 9.1 13.65 9.3 L19.1 8.9 23.4 8.15 Q26.7 8.4 28.35 10.6 29.95 8.4 33.3 8.15 L35.2 8.35" fill="#f3efba" fill-rule="evenodd" stroke="none"/>
  </g>
</svg>
