<?xml version="1.0" encoding="UTF-8" standalone="no"?>
<svg xmlns:ffdec="https://www.free-decompiler.com/flash" xmlns:xlink="http://www.w3.org/1999/xlink" ffdec:objectType="shape" height="40.0px" width="39.8px" xmlns="http://www.w3.org/2000/svg">
  <g transform="matrix(1.0, 0.0, 0.0, 1.0, 1.0, 1.0)">
    <path d="M33.35 1.35 L35.2 0.85 37.5 -0.1 37.5 7.15 35.35 6.75 34.5 6.6 32.95 6.2 31.0 6.0 Q27.65 6.25 26.05 8.45 24.4 6.25 21.05 6.0 L16.75 6.7 11.25 7.15 Q9.9 6.95 7.05 5.65 L7.05 22.55 Q7.05 29.1 7.55 31.45 8.1 34.1 9.45 36.1 6.7 35.0 4.6 33.2 1.05 30.35 0.05 25.65 -0.45 23.3 -0.45 16.75 L-0.45 -0.1 Q2.45 1.15 3.75 1.35 L9.25 0.9 13.55 0.2 Q16.9 0.45 18.55 2.65 20.15 0.45 23.5 0.2 L25.45 0.4 27.05 0.8 27.9 0.95 33.35 1.35" fill="#000000" fill-opacity="0.12156863" fill-rule="evenodd" stroke="none"/>
    <path d="M33.85 2.45 L33.8 2.45 33.85 2.45" fill="#cccccc" fill-rule="evenodd" stroke="none"/>
    <path d="M-1.0 0.05 L-0.9 0.4 -1.0 0.4 -1.0 0.05 M25.95 -0.45 Q25.95 -0.45 26.05 -0.4 L25.95 -0.4 25.95 -0.45" fill="#959595" fill-rule="evenodd" stroke="none"/>
    <path d="M-1.0 0.05 L-1.0 0.0 -0.9 -0.4 -0.35 -0.9 0.0 -1.0 0.4 -0.9 Q3.1 0.25 4.35 0.45 L4.4 0.5 9.45 0.1 11.1 -0.25 11.15 -0.25 11.2 -0.3 11.85 -0.1 12.3 0.5 12.15 1.25 11.5 1.7 11.45 1.7 9.9 2.05 4.05 2.45 Q2.95 2.3 1.0 1.55 L-0.4 0.95 -0.9 0.4 -1.0 0.05 M27.5 -0.1 L28.55 0.15 33.5 0.5 33.5 0.45 35.1 0.05 35.2 0.0 35.95 0.05 36.45 0.65 36.4 1.4 35.95 1.9 35.9 1.9 35.85 1.9 35.75 1.9 33.85 2.45 28.0 2.1 27.9 2.05 27.25 1.9 27.15 1.9 27.0 1.85 26.55 1.55 Q26.3 1.2 26.35 0.8 26.4 0.35 26.75 0.1 L27.5 -0.1" fill="#dddddd" fill-rule="evenodd" stroke="none"/>
    <path d="M-0.9 0.4 L-0.4 0.95 1.0 1.55 1.0 16.9 Q1.0 23.25 1.5 25.6 2.35 29.95 5.7 32.6 8.2 34.7 11.7 35.85 L11.75 35.85 15.45 36.75 15.5 36.75 Q15.85 36.8 16.1 37.15 L16.3 37.9 15.9 38.55 15.2 38.75 15.15 38.75 Q13.05 38.45 11.1 37.75 7.2 36.5 4.45 34.15 L4.4 34.1 Q0.55 31.05 -0.45 26.0 -1.0 23.55 -1.0 16.9 L-1.0 0.4 -0.9 0.4 M11.5 1.7 L12.15 1.25 12.3 0.5 11.85 -0.1 11.2 -0.3 14.05 -0.65 Q17.1 -0.4 18.9 1.25 20.65 -0.45 23.7 -0.65 L24.8 -0.6 25.95 -0.45 25.95 -0.4 27.5 -0.1 26.75 0.1 Q26.4 0.35 26.35 0.8 26.3 1.2 26.55 1.55 L27.0 1.85 25.6 1.55 25.5 1.55 24.75 1.4 24.6 1.4 24.0 1.35 23.9 1.35 Q21.05 1.5 19.7 3.35 L19.25 3.7 18.6 3.7 18.1 3.35 Q16.7 1.55 13.9 1.35 L13.85 1.35 11.5 1.7 M35.2 0.0 L37.45 -0.9 38.1 -0.95 38.6 -0.6 38.8 0.0 38.8 16.4 38.5 17.05 37.8 17.35 37.1 17.05 Q36.8 16.75 36.8 16.4 L36.8 1.5 35.95 1.9 36.4 1.4 36.45 0.65 35.95 0.05 35.2 0.0" fill="#b7b7b7" fill-rule="evenodd" stroke="none"/>
    <path d="M38.8 16.4 L38.8 16.9 38.8 21.4 38.8 21.45 38.3 26.0 38.25 26.15 38.15 26.6 38.15 26.7 38.1 26.8 37.75 27.25 37.0 27.45 36.35 27.05 Q36.1 26.7 36.15 26.3 L36.35 25.5 36.8 21.4 36.8 21.35 36.8 16.9 36.8 16.4 Q36.8 16.75 37.1 17.05 L37.8 17.35 38.5 17.05 38.8 16.4 M24.9 38.3 L24.85 38.3 18.95 39.0 18.9 39.0 15.2 38.75 15.9 38.55 16.3 37.9 16.1 37.15 Q15.85 36.8 15.5 36.75 L18.9 37.0 24.4 36.35 24.5 36.35 25.2 36.45 25.65 37.1 25.5 37.85 24.9 38.3" fill="#949494" fill-rule="evenodd" stroke="none"/>
    <path d="M38.1 26.8 Q36.9 31.3 33.4 34.1 L33.4 34.15 Q30.6 36.5 26.7 37.75 L26.75 37.75 24.9 38.3 25.5 37.85 25.65 37.1 25.2 36.45 24.5 36.35 26.1 35.85 Q29.6 34.7 32.1 32.6 L32.15 32.6 Q35.1 30.15 36.15 26.3 36.1 26.7 36.35 27.05 L37.0 27.45 37.75 27.25 38.1 26.8" fill="#808080" fill-rule="evenodd" stroke="none"/>
  </g>
</svg>
