<svg width="179" height="221" viewBox="0 0 179 221" fill="none" xmlns="http://www.w3.org/2000/svg">
<path d="M150.515 196.46C118.915 227.72 64.205 228.91 31.3146 199.08C24.5446 192.94 18.0546 185.51 13.2046 177.52C2.80457 160.373 -1.45213 141.593 0.434569 121.18C1.19457 112.993 2.59117 104.56 4.62457 95.88C6.48457 87.91 9.04457 80.65 12.2546 73.11C23.1446 47.5898 39.2046 23.9298 61.605 9.14983C72.311 2.08323 83.428 -0.890166 94.955 0.229834C111.495 1.82983 124.335 12.2698 135.655 24.1498C149.061 38.2098 159.735 55.4398 167.675 75.84C176.395 98.23 180.565 121.03 177.205 143.68C174.131 164.307 165.235 181.9 150.515 196.46ZM18.6846 135.06L44.0746 132.71C44.4012 132.677 44.7112 132.74 45.0046 132.9C49.9646 135.55 54.355 139.5 58.975 142.76C61.095 144.333 63.321 145.677 65.655 146.79C67.061 147.463 68.641 147.76 70.395 147.68C77.775 147.34 85.148 146.846 92.515 146.2L121.515 144.17C121.997 144.136 122.462 143.974 122.861 143.7C123.26 143.426 123.579 143.049 123.785 142.61C129.098 131.223 134.888 118.787 141.155 105.3C141.668 104.193 142.265 103.186 142.945 102.28C143.002 102.202 143.077 102.139 143.163 102.096C143.25 102.052 143.345 102.03 143.442 102.031C143.539 102.032 143.634 102.056 143.72 102.101C143.805 102.146 143.879 102.211 143.935 102.29L147.355 107.03C147.389 107.077 147.433 107.115 147.485 107.141C147.537 107.167 147.594 107.18 147.652 107.179C147.71 107.178 147.767 107.163 147.818 107.135C147.869 107.107 147.912 107.068 147.945 107.02C151.211 102.107 154.195 97.217 156.895 92.35C157.501 91.257 157.631 90.167 157.285 89.08C152.851 75.167 146.738 62.1932 138.945 50.1598C137.338 47.6732 135.511 45.1865 133.465 42.6998C131.291 40.0532 129.158 37.5298 127.065 35.1298C122.711 30.1432 117.535 25.2598 111.535 20.4798C106.701 16.6265 100.605 14.2598 93.245 13.3798C91.751 13.1598 90.948 13.1832 90.835 13.4498C87.548 12.9432 84.448 13.1032 81.535 13.9298C69.755 17.2798 59.895 24.5498 51.6946 33.6798C42.5346 43.8598 34.8946 54.2698 28.8746 66.6298C22.4946 79.75 17.7746 93.33 14.7146 107.37C12.9279 115.583 12.3212 124.733 12.8946 134.82C12.9017 134.955 12.9366 135.087 12.9971 135.207C13.0576 135.328 13.1424 135.434 13.2459 135.52C13.3495 135.606 13.4695 135.669 13.5985 135.705C13.7274 135.741 13.8623 135.749 13.9946 135.73L18.6846 135.06ZM162.065 129.29C163.278 126.717 163.868 123.967 163.835 121.04C163.775 115.527 163.125 109.833 161.885 103.96C161.565 102.44 161.021 102.357 160.255 103.71L153.915 114.94C153.836 115.075 153.786 115.225 153.769 115.38C153.752 115.535 153.767 115.692 153.815 115.84C155.421 120.9 157.688 125.617 160.615 129.99C160.68 130.082 160.769 130.157 160.875 130.21C161.435 130.463 161.771 130.333 161.885 129.82C161.925 129.64 161.985 129.463 162.065 129.29ZM121.775 153.19C120.301 153.077 119.225 153.65 118.545 154.91C110.198 170.343 101.785 185.88 93.305 201.52C92.291 202.493 91.548 203.797 91.075 205.43C90.935 205.73 90.875 205.943 90.895 206.07C90.91 206.184 90.949 206.294 91.009 206.393C91.069 206.492 91.149 206.578 91.245 206.646C91.34 206.713 91.449 206.76 91.564 206.785C91.679 206.81 91.798 206.812 91.915 206.79C94.968 206.217 98.058 205.763 101.185 205.43C111.075 204.38 121.465 199.93 129.625 194.51C142.478 185.97 152.165 174.54 158.685 160.22C160.998 155.14 163.061 149.78 164.875 144.14C165.115 143.4 165.228 142.65 165.215 141.89C165.208 140.85 164.898 140.753 164.285 141.6L158.425 149.71C157.565 149.73 157.051 149.557 156.885 149.19C153.065 140.903 149.078 132.073 144.925 122.7C144.86 122.557 144.756 122.435 144.624 122.35C144.493 122.264 144.34 122.218 144.183 122.217C144.026 122.216 143.872 122.26 143.739 122.344C143.607 122.428 143.501 122.548 143.435 122.69L130.635 150.87C130.499 151.171 130.292 151.434 130.032 151.635C129.772 151.836 129.467 151.968 129.145 152.02L121.775 153.19ZM32.7446 181.44C32.9712 182 33.5512 182.753 34.4846 183.7C39.7512 189.04 45.5212 193.49 51.7946 197.05C60.225 201.84 70.205 204.44 79.675 206.12C79.951 206.167 80.234 206.125 80.484 206.001C80.734 205.877 80.937 205.677 81.065 205.43C82.305 203.017 83.595 200.537 84.935 197.99C88.025 192.11 91.535 186.44 94.745 180.69C96.625 177.33 98.581 174.04 100.615 170.82C103.441 166.367 105.958 161.683 108.165 156.77C108.194 156.706 108.208 156.636 108.204 156.565C108.2 156.495 108.178 156.427 108.142 156.366C108.105 156.306 108.055 156.256 107.994 156.22C107.933 156.184 107.865 156.163 107.795 156.16C105.055 156.013 102.648 156.31 100.575 157.05C90.148 157.323 79.968 157.753 70.035 158.34C68.135 158.45 66.285 159.38 64.525 158.26C56.851 153.413 49.2146 148.23 41.6146 142.71C41.2351 142.433 40.7689 142.305 40.3046 142.35L15.1046 144.78C14.999 144.79 14.8968 144.822 14.8049 144.875C14.7129 144.928 14.6335 145 14.5718 145.086C14.5102 145.173 14.4678 145.271 14.4476 145.375C14.4273 145.479 14.4297 145.587 14.4546 145.69C17.6412 159.123 23.7379 171.04 32.7446 181.44Z" fill="#06011D"/>
<path d="M90.8349 13.4499C88.9679 14.0966 87.1349 14.6633 85.3349 15.1499C83.1679 15.7299 81.3909 16.3933 80.0049 17.1399C77.6649 18.3899 75.1649 19.4899 73.0449 21.1199C69.0109 24.2266 64.9709 27.5633 60.9249 31.1299C60.8179 31.2262 60.7389 31.3498 60.6959 31.4873C60.6539 31.6247 60.6489 31.7708 60.6829 31.9098C60.7169 32.0488 60.7879 32.1754 60.8889 32.2759C60.9899 32.3764 61.1159 32.4469 61.2549 32.4799C64.2349 33.2133 66.9809 34.5466 69.4949 36.4799C77.7349 42.8266 80.7579 51.1166 78.5649 61.3499C74.2949 81.2301 49.2745 84.4901 35.9045 71.8799C35.4711 71.4666 35.1245 71.5266 34.8645 72.0599C28.0311 86.0201 23.2211 100.71 20.4345 116.13C19.3011 122.403 18.7178 128.713 18.6845 135.06L13.9945 135.73C13.8622 135.749 13.7273 135.741 13.5984 135.705C13.4695 135.669 13.3494 135.606 13.2458 135.52C13.1423 135.434 13.0575 135.328 12.997 135.207C12.9365 135.087 12.9016 134.955 12.8945 134.82C12.3211 124.733 12.9278 115.583 14.7145 107.37C17.7745 93.3301 22.4945 79.7501 28.8745 66.6299C34.8945 54.2699 42.5345 43.8599 51.6945 33.6799C59.8949 24.5499 69.7549 17.2799 81.5349 13.9299C84.4479 13.1033 87.5479 12.9433 90.8349 13.4499Z" fill="white"/>
<path d="M90.835 13.4499C90.948 13.1833 91.751 13.1599 93.245 13.3799C98.138 16.5999 101.945 20.5699 104.665 25.2899C107.498 30.2033 110.191 35.7199 112.745 41.8399C114.445 50.6933 114.968 59.5233 114.315 68.3299C114.155 70.4299 113.625 72.4599 113.065 74.5301C112.765 75.6301 112.628 76.6971 112.655 77.7301C112.681 78.9101 112.458 80.0231 111.985 81.0701C111.415 82.3401 111.495 83.4701 111.095 84.7401C109.228 90.6601 107.155 95.6931 104.875 99.8401C101.645 105.72 98.055 111.42 93.645 116.69C92.158 118.477 90.728 120.3 89.355 122.16C87.421 124.773 83.401 128.227 77.295 132.52C74.395 134.553 70.655 136.946 66.075 139.7C63.875 141.026 61.508 142.047 58.975 142.76C54.355 139.5 49.9646 135.55 45.0046 132.9C44.7112 132.74 44.4012 132.677 44.0746 132.71L18.6846 135.06C18.7179 128.713 19.3012 122.403 20.4346 116.13C23.2212 100.71 28.0312 86.0201 34.8646 72.0599C35.1246 71.5266 35.4712 71.4666 35.9046 71.8799C49.2746 84.4901 74.295 81.2301 78.565 61.3499C80.758 51.1166 77.735 42.8266 69.495 36.4799C66.981 34.5466 64.235 33.2133 61.255 32.4799C61.116 32.4469 60.99 32.3764 60.889 32.2759C60.788 32.1754 60.717 32.0488 60.683 31.9098C60.649 31.7708 60.654 31.6247 60.696 31.4873C60.739 31.3498 60.818 31.2262 60.925 31.1299C64.971 27.5633 69.011 24.2266 73.045 21.1199C75.165 19.4899 77.665 18.3899 80.005 17.1399C81.391 16.3933 83.168 15.7299 85.335 15.1499C87.135 14.6633 88.968 14.0966 90.835 13.4499ZM52.285 94.9801C52.285 92.9161 51.4649 90.9381 50.0059 89.4791C48.5468 88.0201 46.568 87.2001 44.5046 87.2001C42.4412 87.2001 40.4623 88.0201 39.0033 89.4791C37.5442 90.9381 36.7246 92.9161 36.7246 94.9801C36.7246 97.0431 37.5442 99.0221 39.0033 100.481C40.4623 101.94 42.4412 102.76 44.5046 102.76C46.568 102.76 48.5468 101.94 50.0059 100.481C51.4649 99.0221 52.285 97.0431 52.285 94.9801Z" fill="#FFB700"/>
<path d="M93.245 13.3799C100.605 14.2599 106.701 16.6266 111.535 20.4799C117.535 25.2599 122.711 30.1433 127.065 35.1299C129.158 37.5299 131.291 40.0533 133.465 42.6999C135.511 45.1866 137.338 47.6733 138.945 50.1599C146.738 62.1933 152.851 75.1671 157.285 89.0801C157.631 90.1671 157.501 91.2571 156.895 92.3501C154.195 97.2171 151.211 102.107 147.945 107.02C147.912 107.068 147.869 107.107 147.818 107.135C147.767 107.163 147.71 107.178 147.652 107.179C147.594 107.18 147.537 107.167 147.485 107.141C147.433 107.115 147.389 107.077 147.355 107.03L143.935 102.29C143.879 102.211 143.805 102.146 143.72 102.101C143.634 102.056 143.539 102.032 143.442 102.031C143.345 102.03 143.25 102.052 143.163 102.096C143.077 102.139 143.002 102.202 142.945 102.28C142.265 103.186 141.668 104.193 141.155 105.3C134.888 118.787 129.098 131.223 123.785 142.61C123.579 143.049 123.26 143.426 122.861 143.7C122.462 143.974 121.997 144.136 121.515 144.17L92.515 146.2C91.775 146.333 91.261 146.296 90.975 146.09C90.735 145.91 90.761 145.803 91.055 145.77C95.381 145.263 99.788 145.073 104.275 145.2C106.845 145.28 107.665 141.96 108.845 140.24C110.711 137.54 112.531 134.893 114.305 132.3C116.185 129.56 117.005 126.76 118.535 123.96C119.721 121.787 120.755 119.53 121.635 117.19C125.941 105.783 127.571 94.2731 126.525 82.6601C125.595 72.3199 122.015 61.4299 118.165 51.8199C116.791 48.3799 114.985 45.0533 112.745 41.8399C110.191 35.7199 107.498 30.2033 104.665 25.2899C101.945 20.5699 98.138 16.5999 93.245 13.3799Z" fill="#D73800"/>
<path d="M112.745 41.8398C114.985 45.0532 116.791 48.3798 118.165 51.8198C122.015 61.4298 125.595 72.3198 126.525 82.66C127.571 94.273 125.941 105.783 121.635 117.19C120.755 119.53 119.721 121.787 118.535 123.96C117.005 126.76 116.185 129.56 114.305 132.3C112.531 134.893 110.711 137.54 108.845 140.24C107.665 141.96 106.845 145.28 104.275 145.2C99.7881 145.073 95.3811 145.263 91.0551 145.77C90.7611 145.803 90.7351 145.91 90.9751 146.09C91.2611 146.296 91.7751 146.333 92.5151 146.2C85.1481 146.846 77.7751 147.34 70.3951 147.68C68.6411 147.76 67.0611 147.463 65.6551 146.79C63.3211 145.677 61.0951 144.333 58.9751 142.76C61.5081 142.047 63.8751 141.026 66.0751 139.7C70.6551 136.946 74.3951 134.553 77.2951 132.52C83.4011 128.227 87.4211 124.773 89.3551 122.16C90.7281 120.3 92.1581 118.477 93.6451 116.69C98.0551 111.42 101.645 105.72 104.875 99.84C107.155 95.693 109.228 90.66 111.095 84.74C111.495 83.47 111.415 82.34 111.985 81.07C112.458 80.023 112.681 78.91 112.655 77.73C112.628 76.697 112.765 75.63 113.065 74.53C113.625 72.4598 114.155 70.4298 114.315 68.3298C114.968 59.5232 114.445 50.6932 112.745 41.8398Z" fill="#FE5F00"/>
<path d="M44.5046 102.76C48.8014 102.76 52.2851 99.277 52.2851 94.98C52.2851 90.683 48.8014 87.2 44.5046 87.2C40.2079 87.2 36.7246 90.683 36.7246 94.98C36.7246 99.277 40.2079 102.76 44.5046 102.76Z" fill="white"/>
<path d="M161.885 129.82C161.771 130.333 161.435 130.463 160.875 130.21C160.769 130.157 160.68 130.082 160.615 129.99C157.688 125.616 155.421 120.9 153.815 115.84C153.767 115.692 153.752 115.535 153.769 115.38C153.786 115.225 153.836 115.075 153.915 114.94L160.255 103.71C161.021 102.356 161.565 102.44 161.885 103.96C163.125 109.833 163.775 115.527 163.835 121.04C163.868 123.967 163.278 126.717 162.065 129.29C161.985 129.463 161.925 129.64 161.885 129.82Z" fill="#0285B1"/>
<path d="M158.425 149.71C154.378 156.863 150.075 163.34 145.515 169.14C143.321 171.933 140.725 174.877 137.725 177.97C135.725 180.04 133.365 181.55 131.375 183.61C130.188 184.837 128.885 185.953 127.465 186.96C120.071 192.22 112.278 196.647 104.085 200.24C103.071 200.687 101.828 201.473 100.355 202.6C99.2479 203.44 97.938 204.033 96.425 204.38C94.665 204.773 92.881 205.123 91.075 205.43C91.548 203.797 92.2909 202.493 93.3049 201.52C95.8049 198.527 97.965 195.4 99.785 192.14C101.955 188.25 104.545 184.36 106.535 180.61C111.395 171.47 116.475 162.33 121.775 153.19L129.145 152.02C129.467 151.968 129.772 151.836 130.032 151.635C130.292 151.434 130.499 151.171 130.635 150.87L143.435 122.69C143.501 122.548 143.607 122.428 143.739 122.344C143.872 122.26 144.026 122.216 144.183 122.217C144.34 122.218 144.493 122.264 144.624 122.35C144.756 122.435 144.86 122.557 144.925 122.7C149.078 132.073 153.065 140.903 156.885 149.19C157.051 149.557 157.565 149.73 158.425 149.71Z" fill="#CD0561"/>
<path d="M91.0751 205.43C92.8811 205.123 94.6651 204.773 96.4251 204.38C97.9381 204.033 99.2481 203.44 100.355 202.6C101.828 201.473 103.071 200.687 104.085 200.24C112.278 196.647 120.071 192.22 127.465 186.96C128.885 185.953 130.188 184.836 131.375 183.61C133.365 181.55 135.725 180.04 137.725 177.97C140.725 174.877 143.321 171.933 145.515 169.14C150.075 163.34 154.378 156.863 158.425 149.71L164.285 141.6C164.898 140.753 165.208 140.85 165.215 141.89C165.228 142.65 165.115 143.4 164.875 144.14C163.061 149.78 160.998 155.14 158.685 160.22C152.165 174.54 142.478 185.97 129.625 194.51C121.465 199.93 111.075 204.38 101.185 205.43C98.0581 205.763 94.9681 206.217 91.9151 206.79C91.7981 206.812 91.6791 206.81 91.5641 206.785C91.4491 206.76 91.3401 206.713 91.2451 206.646C91.1491 206.578 91.0691 206.492 91.0091 206.393C90.9491 206.294 90.9101 206.184 90.8951 206.07C90.8751 205.943 90.9351 205.73 91.0751 205.43Z" fill="#FD2E7C"/>
<path d="M100.575 157.05C97.4411 158.396 94.1211 159.173 90.6151 159.38L66.1851 160.77C65.3381 160.815 64.4971 160.599 63.7751 160.15C57.5811 156.243 51.208 152.516 44.6547 148.97C43.0247 148.09 41.6247 148 39.8347 148.08C35.5413 148.266 31.4147 148.74 27.4547 149.5C26.6347 149.653 25.8213 149.667 25.0147 149.54C23.4213 149.273 21.788 149.283 20.1147 149.57C19.7413 149.636 19.598 149.857 19.6847 150.23C21.2447 156.977 23.388 163.52 26.1147 169.86L32.7447 181.44C23.738 171.04 17.6413 159.123 14.4547 145.69C14.4298 145.587 14.4274 145.479 14.4477 145.375C14.4679 145.271 14.5103 145.173 14.5719 145.086C14.6336 145 14.713 144.928 14.805 144.875C14.8969 144.822 14.9991 144.79 15.1047 144.78L40.3047 142.35C40.769 142.305 41.2352 142.433 41.6147 142.71C49.2147 148.23 56.8511 153.413 64.5251 158.26C66.2851 159.38 68.1351 158.45 70.0351 158.34C79.9681 157.753 90.1481 157.323 100.575 157.05Z" fill="white"/>
<path d="M90.6151 159.38C88.4881 161.02 85.8881 162.32 82.8151 163.28C76.9011 165.126 71.2751 166.7 65.9351 168C60.1551 169.413 54.8451 170.316 50.0047 170.71C45.0047 171.123 39.6813 171.153 34.0347 170.8C32.5747 170.706 31.2947 170.306 30.1947 169.6C29.588 169.2 28.928 168.95 28.2147 168.85C26.628 168.61 25.928 168.946 26.1147 169.86C23.388 163.52 21.2447 156.977 19.6847 150.23C19.598 149.857 19.7413 149.636 20.1147 149.57C21.788 149.283 23.4213 149.273 25.0147 149.54C25.8213 149.667 26.6347 149.653 27.4547 149.5C31.4147 148.74 35.5413 148.266 39.8347 148.08C41.6247 148 43.0247 148.09 44.6547 148.97C51.208 152.516 57.5811 156.243 63.7751 160.15C64.4971 160.599 65.3381 160.815 66.1851 160.77L90.6151 159.38Z" fill="#0CE8C5"/>
<path d="M121.775 153.19C116.475 162.33 111.395 171.47 106.535 180.61C104.545 184.36 101.955 188.25 99.7849 192.14C97.9649 195.4 95.8049 198.527 93.3049 201.52C101.785 185.88 110.198 170.343 118.545 154.91C119.225 153.65 120.301 153.077 121.775 153.19Z" fill="white"/>
<path d="M32.7447 181.44L26.1147 169.86C25.928 168.946 26.628 168.61 28.2147 168.85C28.928 168.95 29.588 169.2 30.1947 169.6C31.2947 170.307 32.5747 170.707 34.0347 170.8C39.6813 171.153 45.0047 171.123 50.0047 170.71C54.8451 170.317 60.1551 169.413 65.9351 168C71.2751 166.7 76.9011 165.126 82.8151 163.28C85.8881 162.32 88.4881 161.02 90.6151 159.38C94.1211 159.173 97.4411 158.397 100.575 157.05C102.648 156.31 105.055 156.013 107.795 156.16C107.865 156.163 107.933 156.184 107.994 156.22C108.055 156.256 108.105 156.306 108.142 156.366C108.178 156.427 108.2 156.495 108.204 156.565C108.208 156.636 108.194 156.706 108.165 156.77C105.958 161.683 103.441 166.367 100.615 170.82C98.5811 174.04 96.6251 177.33 94.7451 180.69C91.5351 186.44 88.0251 192.11 84.9351 197.99C83.5951 200.537 82.3051 203.017 81.0651 205.43C80.9371 205.677 80.7341 205.877 80.4841 206.001C80.2341 206.125 79.9511 206.167 79.6751 206.12C70.2051 204.44 60.2251 201.84 51.7947 197.05C45.5213 193.49 39.7513 189.04 34.4847 183.7C33.5513 182.753 32.9713 182 32.7447 181.44Z" fill="#0285B1"/>
</svg>
