<?xml version="1.0" encoding="UTF-8" standalone="no"?>
<svg xmlns:ffdec="https://www.free-decompiler.com/flash" xmlns:xlink="http://www.w3.org/1999/xlink" ffdec:objectType="shape" height="39.1px" width="40.9px" xmlns="http://www.w3.org/2000/svg">
  <g transform="matrix(1.0, 0.0, 0.0, 1.0, 0.1, 0.0)">
    <path d="M20.4 0.0 L23.15 0.4 23.2 0.4 23.4 0.45 Q27.25 1.3 30.35 4.85 32.85 7.95 33.85 11.95 L34.2 14.0 34.25 14.25 34.3 14.3 34.6 15.05 35.25 15.35 37.35 15.35 38.25 15.3 Q39.3 15.3 39.85 15.8 L39.95 15.8 40.0 15.9 40.45 16.3 Q40.9 17.05 40.75 18.55 40.5 22.7 39.05 26.4 37.6 30.2 34.95 33.45 L34.9 33.45 32.3 36.05 30.7 37.35 30.6 37.45 30.2 37.7 29.8 37.9 29.4 37.9 29.35 37.9 28.75 37.8 28.05 37.55 27.9 37.45 27.65 37.3 27.05 37.1 26.9 37.05 24.85 36.9 24.8 36.95 24.6 37.0 24.0 37.1 23.85 37.15 23.8 37.2 Q23.3 37.35 22.95 37.65 L22.8 37.7 22.7 37.75 22.6 37.8 22.55 37.85 21.75 38.45 21.75 38.4 21.7 38.45 21.3 38.75 21.15 38.85 20.7 39.1 20.45 39.1 20.3 39.1 20.2 39.1 19.9 39.0 19.65 38.9 19.3 38.7 18.8 38.35 18.05 37.8 16.5 37.1 16.1 37.0 14.35 36.9 13.35 37.2 13.0 37.25 11.35 37.75 11.1 37.8 11.05 37.8 10.8 37.75 10.65 37.7 10.45 37.65 10.2 37.35 7.95 35.65 5.8 33.45 Q4.1 31.5 3.0 29.4 L2.9 29.2 1.75 26.5 1.7 26.4 0.2 20.75 0.15 20.65 -0.05 18.6 -0.05 17.55 0.1 16.95 Q0.3 16.45 0.65 16.05 1.15 15.45 2.15 15.35 L2.25 15.35 5.9 15.35 Q6.25 15.35 6.4 15.15 L6.45 15.1 6.55 14.3 Q6.65 12.9 7.0 11.7 L7.0 11.65 Q7.9 7.9 10.45 4.85 14.5 0.0 20.4 0.0" fill="#f3efba" fill-rule="evenodd" stroke="none"/>
  </g>
</svg>
