<?xml version="1.0" encoding="UTF-8" standalone="no"?>
<svg xmlns:ffdec="https://www.free-decompiler.com/flash" xmlns:xlink="http://www.w3.org/1999/xlink" ffdec:objectType="shape" height="40.25px" width="42.15px" xmlns="http://www.w3.org/2000/svg">
  <g transform="matrix(1.0, 0.0, 0.0, 1.0, -0.85, -0.6)">
    <path d="M29.65 6.15 L29.65 6.25 28.0 6.15 Q22.65 6.15 18.95 10.85 16.6 13.85 15.75 17.5 L15.35 20.15 Q15.3 22.2 13.75 22.2 L10.2 22.2 Q8.75 22.35 8.95 24.45 L9.05 26.55 10.5 32.35 Q11.65 35.5 13.55 38.2 L13.1 38.35 13.15 38.35 11.9 38.95 11.5 38.85 11.1 38.6 9.05 36.9 7.0 34.65 Q4.5 31.5 3.1 27.65 L1.7 21.85 1.55 19.75 Q1.35 17.65 2.8 17.5 L6.35 17.5 Q7.9 17.5 8.0 15.45 L8.4 12.8 Q9.2 9.15 11.6 6.15 15.3 1.45 20.65 1.45 25.95 1.45 29.65 6.15" fill="#000000" fill-opacity="0.12156863" fill-rule="evenodd" stroke="none"/>
    <path d="M7.55 16.15 L7.6 16.1 7.6 16.15 7.55 16.15" fill="#b3b3b3" fill-rule="evenodd" stroke="none"/>
    <path d="M24.2 39.55 L24.15 39.6 24.05 39.5 24.2 39.5 24.2 39.55 M23.75 37.55 L23.65 37.6 23.8 37.5 23.75 37.55" fill="#787878" fill-rule="evenodd" stroke="none"/>
    <path d="M24.4 39.45 L24.3 39.5 24.2 39.55 24.2 39.5 24.25 39.5 24.3 39.45 24.4 39.45 M12.05 39.5 L11.9 39.45 12.05 39.5" fill="#242424" fill-rule="evenodd" stroke="none"/>
    <path d="M7.6 16.1 L7.7 15.35 Q7.8 13.9 8.15 12.6 L8.15 12.55 Q9.1 8.7 11.7 5.6 15.9 0.6 21.95 0.6 L24.8 0.95 24.85 0.95 25.45 1.4 25.6 2.15 25.15 2.75 24.45 2.9 24.4 2.9 24.35 2.85 24.3 2.85 21.95 2.6 Q16.8 2.6 13.25 6.9 10.95 9.6 10.1 13.05 L9.7 15.5 9.55 16.65 9.5 16.8 9.45 16.9 9.2 17.35 9.05 17.25 8.95 17.3 7.6 16.15 7.6 16.1" fill="#dddddd" fill-rule="evenodd" stroke="none"/>
    <path d="M36.6 16.05 Q36.85 16.3 37.25 16.4 L39.4 16.4 40.35 16.35 Q41.45 16.35 42.05 16.85 L42.1 16.85 40.85 18.45 40.35 18.35 39.6 18.4 39.5 18.4 37.1 18.4 36.95 18.4 Q36.0 18.3 35.4 17.75 L36.6 16.05 M1.6 17.15 Q2.15 16.5 3.15 16.4 L3.25 16.4 7.0 16.4 7.55 16.15 7.6 16.15 8.95 17.3 9.05 17.25 9.2 17.35 9.15 17.4 9.1 17.45 Q8.4 18.4 7.0 18.4 L3.35 18.4 3.15 18.45 1.6 17.15" fill="#b7b7b7" fill-rule="evenodd" stroke="none"/>
    <path d="M36.6 16.05 L35.4 17.75 Q34.6 17.1 34.3 15.9 L34.3 15.85 34.25 15.8 34.2 15.35 34.15 15.3 33.85 13.35 Q33.0 9.7 30.65 6.9 27.95 3.7 24.45 2.9 L25.15 2.75 25.6 2.15 25.45 1.4 24.85 0.95 Q29.0 1.85 32.2 5.6 34.8 8.8 35.8 12.9 L36.15 15.0 36.15 14.95 36.2 15.25 36.25 15.35 Q36.35 15.8 36.6 16.05 M40.85 18.45 L42.1 16.85 42.15 16.95 42.6 17.4 Q43.1 18.15 42.95 19.7 42.65 24.0 41.2 27.75 39.65 31.7 36.95 35.05 L36.9 35.05 34.25 37.7 32.55 39.1 32.45 39.15 32.0 39.45 31.6 39.65 31.15 37.6 31.4 37.45 31.45 37.4 32.95 36.2 35.4 33.75 Q37.95 30.7 39.35 27.05 40.65 23.55 40.95 19.55 L40.95 19.5 40.85 18.45 M11.9 39.45 L11.7 39.35 11.4 39.1 9.15 37.35 6.9 35.05 Q5.2 33.05 4.05 30.85 L3.95 30.7 2.7 27.9 2.65 27.75 1.15 22.0 1.1 21.85 0.9 19.75 0.9 18.7 1.05 18.05 1.6 17.15 3.15 18.45 2.95 18.7 2.95 18.75 Q2.85 19.05 2.9 19.55 L3.1 21.6 4.6 27.25 5.75 29.8 5.8 29.95 Q6.9 31.95 8.45 33.75 L8.4 33.75 10.5 35.85 10.45 35.85 12.5 37.4 12.55 37.45 12.45 37.5 12.05 39.5 11.9 39.45" fill="#949494" fill-rule="evenodd" stroke="none"/>
    <path d="M31.6 39.65 L31.25 39.65 31.2 39.65 30.55 39.55 29.9 39.25 29.7 39.15 29.45 39.05 28.85 38.85 28.65 38.8 26.55 38.65 26.5 38.7 26.55 38.7 26.5 38.7 26.3 38.75 25.7 38.85 25.55 38.9 25.45 38.95 Q24.95 39.1 24.6 39.35 L24.4 39.45 24.3 39.45 24.25 39.5 24.2 39.5 24.05 39.5 24.15 39.6 23.35 40.2 23.4 40.1 23.35 40.15 23.3 40.2 22.9 40.55 22.75 40.65 22.25 40.85 22.0 40.85 21.85 40.85 21.75 40.85 21.45 40.8 21.15 40.7 20.8 40.5 20.35 40.1 19.55 39.55 17.95 38.85 17.5 38.75 15.7 38.65 14.7 38.95 14.3 39.0 12.65 39.5 12.35 39.55 12.3 39.55 12.05 39.5 12.45 37.5 12.55 37.45 14.0 37.05 15.4 36.65 15.5 36.65 15.55 36.65 15.6 36.65 18.05 36.85 18.15 36.85 18.35 36.9 20.5 37.8 Q21.15 38.15 21.7 38.6 L21.8 38.75 21.9 38.8 21.95 38.75 22.0 38.7 22.1 38.6 23.1 37.9 Q23.25 37.75 23.55 37.65 L23.6 37.6 23.75 37.55 23.8 37.5 24.75 37.05 25.35 36.9 25.55 36.85 25.65 36.85 26.05 36.75 26.15 36.75 29.1 36.85 29.65 37.0 29.85 37.05 30.1 37.15 30.45 37.3 30.65 37.35 31.15 37.6 31.6 39.65 M24.2 39.5 L24.2 39.45 24.2 39.5" fill="#808080" fill-rule="evenodd" stroke="none"/>
  </g>
</svg>
