<?xml version="1.0" encoding="UTF-8" standalone="no"?>
<svg xmlns:ffdec="https://www.free-decompiler.com/flash" xmlns:xlink="http://www.w3.org/1999/xlink" ffdec:objectType="shape" height="41.2px" width="41.5px" xmlns="http://www.w3.org/2000/svg">
  <g transform="matrix(1.0, 0.0, 0.0, 1.0, 0.0, 0.0)">
    <path d="M14.25 0.1 L14.4 0.05 14.5 0.05 14.8 0.0 15.25 0.2 Q20.5 2.65 26.45 0.1 L26.75 0.0 26.95 0.0 27.25 0.1 27.4 0.2 27.45 0.2 27.5 0.25 37.2 7.7 37.4 7.9 37.6 8.35 37.6 8.6 Q37.65 15.4 41.3 20.05 L41.5 20.65 41.5 20.75 41.5 20.85 41.4 21.05 41.2 21.3 41.15 21.4 40.65 22.1 40.6 22.2 Q37.55 27.1 37.6 32.5 L37.6 32.8 37.5 33.2 37.4 33.3 37.35 33.35 37.25 33.45 27.5 41.0 26.95 41.2 26.65 41.2 26.4 41.1 26.3 41.05 Q20.45 38.2 15.25 41.05 L14.8 41.2 14.6 41.2 Q14.35 41.2 14.1 41.0 L4.25 33.55 4.0 33.35 3.95 33.15 3.8 32.8 3.8 32.45 Q4.1 26.2 1.15 22.25 L0.4 21.4 0.0 20.8 0.0 20.7 0.0 20.65 0.25 20.05 Q4.5 14.65 3.8 8.6 L3.8 8.3 3.9 8.0 4.0 7.9 4.15 7.75 4.15 7.7 4.25 7.65 14.1 0.25 14.25 0.1 M31.35 0.55 L31.35 0.7 31.35 0.55" fill="#e3dfbd" fill-rule="evenodd" stroke="none"/>
    <path d="M14.25 0.1 L14.1 0.25 14.1 0.2 14.25 0.1" fill="#f2eeba" fill-rule="evenodd" stroke="none"/>
  </g>
</svg>
