<?xml version="1.0" encoding="UTF-8" standalone="no"?>
<svg xmlns:ffdec="https://www.free-decompiler.com/flash" xmlns:xlink="http://www.w3.org/1999/xlink" ffdec:objectType="shape" height="42.15px" width="42.5px" xmlns="http://www.w3.org/2000/svg">
  <g transform="matrix(1.0, 0.0, 0.0, 1.0, -1.45, -1.7)">
    <path d="M37.0 9.0 Q30.7 11.5 25.05 8.8 L14.95 16.4 Q15.75 23.0 11.15 28.75 L12.05 29.85 Q15.35 34.2 14.95 41.05 L16.9 42.55 16.45 42.75 6.35 35.05 Q6.75 28.2 3.5 23.85 L2.55 22.8 Q7.2 17.0 6.35 10.4 L16.45 2.8 Q22.3 5.6 28.9 2.8 L37.0 9.0" fill="#000000" fill-opacity="0.12156863" fill-rule="evenodd" stroke="none"/>
    <path d="M7.35 34.7 L7.35 34.65 7.4 34.7 7.35 34.7 M5.45 35.6 L5.7 35.9 5.8 36.0 5.55 35.8 5.45 35.6" fill="#5e5e5e" fill-rule="evenodd" stroke="none"/>
    <path d="M37.95 34.6 L37.95 34.65 37.9 34.65 37.95 34.6 M7.3 10.85 L7.35 10.8 7.35 10.85 7.3 10.85" fill="#828282" fill-rule="evenodd" stroke="none"/>
    <path d="M39.95 35.25 L39.95 35.1 39.95 34.95 39.95 35.25" fill="#000000" fill-rule="evenodd" stroke="none"/>
    <path d="M39.75 9.75 L37.95 10.85 28.8 3.85 28.7 3.8 29.05 1.7 29.35 1.8 29.5 1.9 29.55 1.9 29.65 1.95 39.55 9.55 39.75 9.75 M16.25 1.75 L16.7 3.8 16.6 3.85 7.35 10.8 7.3 10.85 5.4 9.9 5.55 9.75 5.7 9.6 5.7 9.55 5.8 9.5 15.85 1.95 15.85 1.9 16.0 1.8 16.15 1.75 16.25 1.75" fill="#dddddd" fill-rule="evenodd" stroke="none"/>
    <path d="M16.35 43.85 L16.55 41.7 Q22.35 38.75 28.85 41.7 L28.95 41.75 28.95 43.85 28.85 43.85 28.75 43.85 28.5 43.75 28.4 43.7 Q22.4 40.8 17.05 43.7 L16.6 43.85 16.35 43.85" fill="#808080" fill-rule="evenodd" stroke="none"/>
    <path d="M43.95 22.8 L41.7 22.8 Q38.1 17.85 37.95 10.85 L39.75 9.75 39.95 10.25 39.95 10.5 Q40.0 17.45 43.75 22.2 L43.95 22.8 M37.95 34.65 L39.85 35.65 39.75 35.75 39.7 35.8 39.6 35.9 29.6 43.65 Q29.3 43.85 29.05 43.85 L28.95 43.85 28.95 41.75 28.85 41.7 37.9 34.65 37.95 34.65 M29.05 1.7 L28.7 3.8 28.8 3.85 Q22.4 6.4 16.6 3.85 L16.7 3.8 16.25 1.75 16.6 1.7 17.05 1.9 Q22.45 4.4 28.55 1.8 L28.85 1.7 29.05 1.7 M5.4 9.9 L7.3 10.85 7.35 10.85 Q7.9 17.1 3.75 22.75 L3.7 22.8 1.45 22.85 1.45 22.8 Q1.45 22.45 1.7 22.2 6.05 16.7 5.3 10.5 L5.3 10.2 5.4 9.9 M5.45 35.6 L7.35 34.7 7.4 34.7 16.55 41.7 16.35 43.85 15.85 43.65 5.8 36.0 5.7 35.9 5.45 35.6" fill="#b7b7b7" fill-rule="evenodd" stroke="none"/>
    <path d="M41.7 22.8 L43.95 22.8 43.95 22.9 43.95 23.0 43.95 23.05 43.85 23.25 43.65 23.5 43.6 23.6 43.1 24.3 43.05 24.4 Q39.9 29.4 39.95 34.95 L39.95 35.1 39.95 35.25 39.85 35.65 37.95 34.65 37.95 34.6 Q38.0 28.75 41.3 23.4 L41.65 22.8 41.7 22.8 M1.45 22.85 L3.7 22.8 3.75 22.75 3.85 22.8 4.2 23.2 4.2 23.25 Q7.6 27.7 7.35 34.65 L7.35 34.7 5.45 35.6 5.3 35.25 5.3 34.9 Q5.65 28.5 2.6 24.45 L2.65 24.5 1.85 23.6 Q1.5 23.35 1.45 22.95 L1.45 22.85" fill="#949494" fill-rule="evenodd" stroke="none"/>
  </g>
</svg>
