<?xml version="1.0" encoding="UTF-8" standalone="no"?>
<svg xmlns:ffdec="https://www.free-decompiler.com/flash" xmlns:xlink="http://www.w3.org/1999/xlink" ffdec:objectType="shape" height="34.4px" width="38.4px" xmlns="http://www.w3.org/2000/svg">
  <g transform="matrix(1.0, 0.0, 0.0, 1.0, -2.95, -4.85)">
    <path d="M41.35 39.25 L13.25 39.25 13.15 39.1 12.95 38.45 12.9 38.45 12.75 38.05 12.6 37.6 12.55 37.55 11.15 36.05 10.85 35.9 10.75 35.85 10.65 35.75 9.5 35.25 9.35 35.25 9.25 35.2 8.2 35.0 7.9 35.0 7.55 34.8 7.35 34.5 7.35 34.1 7.15 33.15 6.6 31.7 6.5 31.5 5.3 30.2 4.35 29.6 3.3 29.25 2.95 28.75 2.95 4.85 31.75 4.85 32.15 5.8 32.1 5.75 32.7 6.7 33.95 7.9 34.1 7.95 35.7 8.6 36.6 8.75 37.0 8.75 37.35 8.85 37.5 9.25 37.6 9.6 37.7 10.65 37.7 10.7 37.75 10.9 38.2 12.05 38.25 12.1 38.4 12.3 38.55 12.5 Q39.15 13.35 40.05 13.9 L40.1 13.95 40.5 14.2 40.95 14.3 41.35 14.45 41.35 39.25" fill="#f3efba" fill-rule="evenodd" stroke="none"/>
  </g>
</svg>
