<?xml version="1.0" encoding="UTF-8" standalone="no"?>
<svg xmlns:ffdec="https://www.free-decompiler.com/flash" xmlns:xlink="http://www.w3.org/1999/xlink" ffdec:objectType="shape" height="36.4px" width="40.4px" xmlns="http://www.w3.org/2000/svg">
  <g transform="matrix(1.0, 0.0, 0.0, 1.0, -1.95, -3.85)">
    <path d="M37.95 10.1 L10.5 10.1 10.3 35.6 9.4 35.3 9.2 35.25 8.1 35.05 7.8 35.05 7.4 34.8 7.2 34.55 7.2 34.1 7.0 33.15 6.45 31.7 6.35 31.5 5.15 30.2 4.15 29.55 3.05 29.2 2.7 28.7 2.7 4.7 32.15 4.7 32.55 5.65 32.5 5.6 33.45 7.2 Q34.1 8.25 35.8 9.45 L37.95 10.1" fill="#000000" fill-opacity="0.12156863" fill-rule="evenodd" stroke="none"/>
    <path d="M2.3 29.55 L2.25 29.5 2.25 29.45 2.3 29.5 2.3 29.55 M2.15 29.25 L2.1 29.15 2.15 29.25 M12.4 40.2 L12.35 40.15 12.4 40.15 12.4 40.2" fill="#787878" fill-rule="evenodd" stroke="none"/>
    <path d="M3.95 5.85 L4.0 5.85 3.95 5.85" fill="#a3a3a3" fill-rule="evenodd" stroke="none"/>
    <path d="M32.3 4.0 L32.6 4.3 32.45 4.15 32.3 4.0 M32.75 4.7 L32.8 4.85 32.75 4.85 32.75 4.7" fill="#828282" fill-rule="evenodd" stroke="none"/>
    <path d="M2.2 4.2 L2.25 4.15 Q2.55 3.85 2.95 3.85 L31.75 3.85 32.25 4.0 32.3 4.0 30.95 5.8 31.05 5.85 4.0 5.85 2.2 4.2" fill="#dddddd" fill-rule="evenodd" stroke="none"/>
    <path d="M2.25 29.45 L2.15 29.35 2.15 29.25 1.95 4.85 2.2 4.2 4.0 5.85 3.95 5.85 3.95 28.4 3.9 28.3 2.35 29.5 2.3 29.5 2.25 29.45 M32.6 4.3 L32.75 4.7 32.75 4.85 32.8 4.85 Q33.85 7.8 38.5 8.65 L38.6 8.75 Q38.55 12.55 42.3 14.15 L42.3 14.25 40.5 15.3 40.0 15.1 Q36.6 13.6 36.75 10.25 L36.7 10.25 Q32.4 9.4 31.05 5.85 L30.95 5.8 32.3 4.0 32.45 4.15 32.6 4.3" fill="#b7b7b7" fill-rule="evenodd" stroke="none"/>
    <path d="M42.0 40.0 L40.35 38.35 40.35 38.25 40.35 15.25 40.0 15.1 40.5 15.3 42.3 14.25 42.35 39.25 42.05 39.95 42.0 40.0 M13.5 37.9 L12.45 40.05 Q10.9 35.9 6.65 35.6 L6.35 34.1 6.25 33.55 6.2 33.4 5.7 32.15 5.65 32.05 4.75 31.05 3.95 30.55 3.0 30.2 2.3 29.55 2.3 29.5 2.35 29.5 3.9 28.3 3.95 28.4 4.7 28.65 4.9 28.8 5.85 29.35 5.95 29.45 7.3 30.9 7.35 30.95 7.55 31.3 8.1 32.8 8.3 33.45 8.35 33.8 8.35 33.9 Q11.95 33.9 13.5 37.9" fill="#949494" fill-rule="evenodd" stroke="none"/>
    <path d="M42.0 40.0 L41.35 40.25 12.45 40.1 12.45 40.05 13.5 37.9 13.6 38.1 40.35 38.25 40.35 38.35 42.0 40.0" fill="#808080" fill-rule="evenodd" stroke="none"/>
  </g>
</svg>
