<?xml version="1.0" encoding="UTF-8" standalone="no"?>
<svg xmlns:ffdec="https://www.free-decompiler.com/flash" xmlns:xlink="http://www.w3.org/1999/xlink" ffdec:objectType="shape" height="40.0px" width="40.1px" xmlns="http://www.w3.org/2000/svg">
  <g transform="matrix(1.0, 0.0, 0.0, 1.0, 11.6, -15.1)">
    <path d="M12.7 52.2 L12.7 52.15 12.65 52.2 12.7 52.2 M22.05 19.6 L24.55 20.75 24.55 20.7 27.7 21.6 28.25 21.9 28.5 22.5 28.35 23.1 27.75 24.0 27.7 24.05 Q26.15 26.65 25.0 29.6 L25.0 29.55 Q24.25 31.45 23.85 33.1 L23.8 33.3 23.3 35.5 23.3 35.55 Q22.7 38.85 23.25 42.55 L23.25 42.6 24.55 48.5 24.5 49.05 24.2 49.5 23.7 49.75 22.4 50.05 22.3 50.05 20.1 50.9 20.05 50.95 16.95 52.45 17.0 52.4 13.5 54.0 13.4 54.05 Q10.95 54.95 9.1 55.05 L9.05 55.05 8.95 55.05 8.7 55.1 8.5 55.1 Q6.4 55.1 3.6 54.05 L3.55 54.0 0.05 52.4 0.0 52.4 -3.05 50.9 Q-5.1 50.0 -6.7 49.75 L-7.2 49.55 -7.5 49.05 -7.5 48.55 -6.25 42.55 Q-5.75 38.9 -6.25 35.5 L-6.2 35.55 Q-6.65 32.9 -7.95 29.6 -9.05 26.95 -10.35 24.7 L-10.5 24.5 -10.55 24.35 -10.65 24.2 -10.8 24.05 -10.8 24.0 -11.4 23.1 -11.6 22.5 -11.35 21.9 -10.8 21.6 -7.65 20.7 -7.65 20.75 -5.1 19.6 -2.65 18.45 -2.7 18.45 0.6 16.95 0.65 16.95 Q5.25 15.05 8.4 15.1 L8.5 15.1 Q11.65 15.05 16.3 16.95 L19.6 18.45 22.05 19.6" fill="#f3efba" fill-rule="evenodd" stroke="none"/>
  </g>
</svg>
