<?xml version="1.0" encoding="UTF-8" standalone="no"?>
<svg xmlns:ffdec="https://www.free-decompiler.com/flash" xmlns:xlink="http://www.w3.org/1999/xlink" ffdec:objectType="shape" height="40.0px" width="40.1px" xmlns="http://www.w3.org/2000/svg">
  <g transform="matrix(1.0, 0.0, 0.0, 1.0, 1.15, 1.0)">
    <path d="M26.5 1.75 L29.8 3.2 32.2 4.35 34.8 5.55 38.05 6.4 37.5 7.35 37.4 7.55 35.2 6.6 Q30.8 4.8 27.85 4.85 L24.75 5.25 20.45 6.6 Q20.2 6.7 14.85 9.25 L12.2 10.4 8.95 11.25 9.8 12.7 12.35 17.95 Q13.7 21.35 14.15 24.1 14.65 27.65 14.15 31.5 L13.15 36.35 11.1 35.4 8.05 33.9 Q5.8 32.9 4.15 32.65 L5.45 26.6 Q5.95 22.8 5.45 19.25 5.0 16.5 3.65 13.1 L1.1 7.8 0.25 6.4 3.5 5.55 6.15 4.35 11.8 1.75 Q14.1 0.8 16.05 0.4 L19.15 0.0 Q22.15 -0.05 26.5 1.75" fill="#000000" fill-opacity="0.12156863" fill-rule="evenodd" stroke="none"/>
    <path d="M21.4 1.35 L21.45 1.25 21.7 1.4 21.4 1.35 M7.8 2.35 L7.75 2.35 7.8 2.35" fill="#cccccc" fill-rule="evenodd" stroke="none"/>
    <path d="M1.7 7.35 L1.65 7.25 1.75 7.35 1.7 7.35" fill="#959595" fill-rule="evenodd" stroke="none"/>
    <path d="M27.45 36.35 L27.4 36.35 27.45 36.3 27.45 36.35 M32.2 32.05 L32.3 32.0 32.35 32.0 32.2 32.05" fill="#666666" fill-rule="evenodd" stroke="none"/>
    <path d="M31.75 19.1 L31.8 19.1 31.75 19.15 31.75 19.1" fill="#454545" fill-rule="evenodd" stroke="none"/>
    <path d="M21.35 -0.75 L21.45 -0.7 22.1 -0.55 21.4 -0.4 Q21.05 -0.2 21.0 0.2 20.9 0.6 21.15 0.95 L21.45 1.25 21.4 1.35 19.0 1.0 18.3 1.05 16.4 1.25 16.15 1.3 Q14.2 1.7 11.85 2.7 10.45 3.25 8.65 4.15 L6.2 5.3 3.5 6.5 1.55 7.1 1.65 7.25 1.7 7.35 1.85 8.1 Q1.7 8.5 1.35 8.7 L0.8 8.85 0.55 8.85 0.1 8.6 -0.05 8.4 -0.1 8.25 -0.2 8.1 -0.35 7.95 -0.35 7.9 -0.95 7.0 -1.15 6.4 -0.9 5.8 -0.35 5.5 2.8 4.6 2.8 4.65 2.85 4.65 5.35 3.5 7.8 2.4 7.8 2.35 Q9.65 1.45 11.05 0.85 L11.1 0.85 Q15.7 -1.05 18.85 -1.0 L19.7 -0.95 21.35 -0.75" fill="#dddddd" fill-rule="evenodd" stroke="none"/>
    <path d="M21.45 1.25 L21.15 0.95 Q20.9 0.6 21.0 0.2 21.05 -0.2 21.4 -0.4 L22.1 -0.55 21.45 -0.7 21.35 -0.75 Q23.75 -0.4 26.75 0.85 L30.05 2.35 32.5 3.5 35.0 4.65 35.0 4.6 38.15 5.5 Q38.5 5.55 38.7 5.8 L38.95 6.4 38.8 7.0 38.2 7.9 38.15 7.95 37.55 8.35 36.8 8.2 Q36.45 7.95 36.4 7.55 L36.4 7.15 36.35 7.15 34.3 6.5 31.65 5.3 29.2 4.15 25.95 2.7 26.0 2.7 Q23.45 1.65 21.45 1.25 M0.1 8.6 L0.55 8.85 0.8 8.85 1.35 8.7 Q1.7 8.5 1.85 8.1 L1.7 7.35 1.75 7.35 4.35 12.75 Q5.7 16.3 6.2 19.1 6.7 22.8 6.2 26.75 L5.15 31.9 8.25 33.0 11.35 34.5 14.85 36.1 Q17.15 37.0 18.9 37.0 L19.4 36.95 19.45 36.95 Q19.85 36.95 20.15 37.25 L20.45 37.95 20.15 38.65 19.4 38.95 19.15 39.0 18.95 39.0 Q16.85 39.0 14.05 37.95 L14.0 37.9 10.5 36.3 10.45 36.3 7.4 34.8 Q5.35 33.9 3.75 33.65 L3.25 33.45 2.95 32.95 2.95 32.45 4.2 26.45 Q4.7 22.8 4.2 19.4 L4.25 19.45 4.25 19.4 Q3.8 16.75 2.5 13.5 1.5 11.05 0.3 8.95 L0.1 8.6" fill="#b7b7b7" fill-rule="evenodd" stroke="none"/>
    <path d="M36.35 7.15 L36.4 7.15 36.4 7.55 Q36.45 7.95 36.8 8.2 L37.55 8.35 38.15 7.95 Q36.6 10.55 35.45 13.5 L35.45 13.45 35.45 13.5 Q34.7 15.35 34.3 17.0 L34.25 17.2 33.8 17.65 33.05 17.75 32.45 17.25 32.3 16.6 32.35 16.5 Q32.8 14.75 33.6 12.75 34.8 9.75 36.35 7.15 M32.75 33.95 L30.55 34.8 30.5 34.85 27.45 36.35 27.45 36.3 23.95 37.9 23.85 37.95 Q21.8 38.7 19.4 38.95 L20.15 38.65 20.45 37.95 20.15 37.25 Q19.85 36.95 19.45 36.95 L23.15 36.05 23.1 36.1 26.6 34.5 29.65 33.0 29.7 33.0 Q31.05 32.4 32.2 32.05 L32.35 32.0 32.4 32.0 32.8 31.9 32.8 32.0 33.1 32.1 33.55 32.65 33.5 33.45 Q33.3 33.8 32.9 33.9 L32.75 33.95" fill="#949494" fill-rule="evenodd" stroke="none"/>
    <path d="M34.25 17.2 L33.75 19.4 33.75 19.45 Q33.15 22.75 33.7 26.45 L33.7 26.5 35.0 32.4 34.95 32.95 34.65 33.4 34.15 33.65 32.85 33.95 32.75 33.95 32.9 33.9 Q33.3 33.8 33.5 33.45 L33.55 32.65 33.1 32.1 32.8 32.0 32.8 31.9 31.7 26.75 Q31.15 22.7 31.8 19.1 L31.75 19.1 32.15 17.2 32.3 16.6 32.45 17.25 33.05 17.75 33.8 17.65 34.25 17.2" fill="#808080" fill-rule="evenodd" stroke="none"/>
  </g>
</svg>
