<?xml version="1.0" encoding="UTF-8" standalone="no"?>
<svg xmlns:ffdec="https://www.free-decompiler.com/flash" xmlns:xlink="http://www.w3.org/1999/xlink" ffdec:objectType="shape" height="39.3px" width="35.9px" xmlns="http://www.w3.org/2000/svg">
  <g transform="matrix(1.0, 0.0, 0.0, 1.0, -2.2, -1.25)">
    <path d="M31.8 1.25 L31.8 1.4 31.8 1.25" fill="#e3dfbd" fill-rule="evenodd" stroke="none"/>
    <path d="M37.85 9.95 L38.05 10.25 38.1 10.45 38.1 10.65 38.1 10.7 38.1 10.75 37.55 15.0 37.5 15.15 37.45 15.3 37.45 15.6 37.2 16.55 36.75 18.5 36.7 18.65 36.45 19.35 36.45 19.4 36.35 19.8 36.3 19.9 35.85 21.15 35.8 21.25 35.0 23.45 Q30.65 33.65 20.9 40.35 L20.7 40.45 20.2 40.55 20.15 40.55 20.1 40.55 20.05 40.55 19.6 40.4 Q4.25 30.05 2.2 10.7 L2.2 10.65 2.25 10.4 2.25 10.3 Q2.3 10.05 2.5 9.9 L9.7 2.3 9.9 2.15 Q10.1 2.0 10.35 2.0 L10.4 2.0 10.75 2.05 Q19.75 5.3 29.75 2.1 L30.2 2.0 30.25 2.0 30.45 2.05 30.5 2.05 30.65 2.1 30.95 2.35 37.85 9.95" fill="#f2eeba" fill-rule="evenodd" stroke="none"/>
  </g>
</svg>
