<?xml version="1.0" encoding="UTF-8" standalone="no"?>
<svg xmlns:ffdec="https://www.free-decompiler.com/flash" xmlns:xlink="http://www.w3.org/1999/xlink" ffdec:objectType="shape" height="38.55px" width="35.9px" xmlns="http://www.w3.org/2000/svg">
  <g transform="matrix(1.0, 0.0, 0.0, 1.0, -1.75, -1.3)">
    <path d="M14.6 6.95 L7.35 14.5 Q8.7 27.15 15.9 35.85 4.35 26.15 2.6 9.75 L9.85 2.2 Q19.35 5.6 29.85 2.2 L34.3 7.05 Q23.95 10.3 14.6 6.95" fill="#000000" fill-opacity="0.12156863" fill-rule="evenodd" stroke="none"/>
    <path d="M35.65 10.3 L35.6 10.3 35.6 10.25 35.65 10.3 M1.8 9.7 L1.8 9.6 1.85 9.6 1.8 9.7 M3.8 10.25 L3.8 10.35 3.85 10.4 3.75 10.35 3.7 10.35 3.8 10.25" fill="#666666" fill-rule="evenodd" stroke="none"/>
    <path d="M9.45 1.45 Q9.65 1.3 9.9 1.3 L9.55 1.4 9.45 1.45 M29.3 1.4 L29.75 1.3 29.45 1.35 29.3 1.4 M29.45 3.5 L29.45 3.45 29.45 3.5 M10.25 3.5 L10.2 3.55 10.2 3.45 10.25 3.5" fill="#959595" fill-rule="evenodd" stroke="none"/>
    <path d="M19.65 37.6 L19.75 37.65 19.65 37.65 19.65 37.6" fill="#454545" fill-rule="evenodd" stroke="none"/>
    <path d="M20.25 39.75 L19.75 39.85 19.9 39.85 20.1 39.8 20.25 39.75" fill="#363636" fill-rule="evenodd" stroke="none"/>
    <path d="M9.9 1.3 L9.95 1.3 10.3 1.35 Q19.3 4.6 29.3 1.4 L29.45 1.35 29.75 1.3 29.8 1.3 30.0 1.35 29.45 3.45 Q19.35 6.55 10.25 3.5 L10.2 3.45 9.45 1.45 9.55 1.4 9.9 1.3" fill="#dddddd" fill-rule="evenodd" stroke="none"/>
    <path d="M37.6 9.55 L35.65 10.3 35.6 10.25 29.45 3.5 29.45 3.45 30.0 1.35 30.05 1.35 30.2 1.4 30.5 1.65 37.4 9.25 37.6 9.55 M1.8 9.6 Q1.85 9.35 2.05 9.2 L9.25 1.6 9.45 1.45 10.2 3.45 10.2 3.55 3.8 10.25 3.7 10.35 1.85 9.6 1.8 9.6" fill="#b7b7b7" fill-rule="evenodd" stroke="none"/>
    <path d="M37.6 9.55 L37.65 9.75 37.65 9.95 37.65 10.0 37.65 10.05 37.1 14.3 37.05 14.45 37.0 14.6 37.0 14.9 36.75 15.85 36.3 17.8 36.25 17.95 36.0 18.65 36.0 18.7 35.9 19.1 35.85 19.2 35.4 20.45 35.35 20.55 34.9 21.0 34.15 21.05 33.55 20.55 33.5 19.9 33.5 19.8 34.0 18.5 33.95 18.6 34.1 18.05 34.1 18.1 34.35 17.4 Q34.5 16.4 34.8 15.35 L35.0 14.4 35.15 13.8 35.6 10.3 35.65 10.3 37.6 9.55 M19.65 39.85 L19.6 39.85 19.15 39.7 Q3.8 29.35 1.75 10.0 L1.75 9.95 1.8 9.7 1.85 9.6 3.7 10.35 3.75 10.35 3.85 10.4 Q5.85 27.9 19.5 37.5 L19.65 37.6 19.65 37.65 19.65 39.85" fill="#949494" fill-rule="evenodd" stroke="none"/>
    <path d="M33.5 19.9 L33.55 20.55 34.15 21.05 34.9 21.0 35.35 20.55 34.55 22.75 Q30.2 32.95 20.45 39.65 L20.25 39.75 20.1 39.8 19.9 39.85 19.75 39.85 19.7 39.85 19.65 39.85 19.65 37.65 19.75 37.65 Q28.7 31.4 32.7 21.95 L33.5 19.9" fill="#808080" fill-rule="evenodd" stroke="none"/>
  </g>
</svg>
