<?xml version="1.0" encoding="UTF-8" standalone="no"?>
<svg xmlns:ffdec="https://www.free-decompiler.com/flash" xmlns:xlink="http://www.w3.org/1999/xlink" ffdec:objectType="shape" height="40.0px" width="39.65px" xmlns="http://www.w3.org/2000/svg">
  <g transform="matrix(1.0, 0.0, 0.0, 1.0, -0.1, -3.3)">
    <path d="M37.75 23.45 L37.75 11.95 11.3 11.95 11.3 31.1 Q11.3 34.9 12.8 38.45 L13.6 40.15 17.1 41.05 17.3 41.1 19.9 41.3 Q23.5 41.25 26.8 39.9 L27.4 39.65 27.45 39.65 Q30.3 38.3 32.55 36.05 34.2 34.4 35.4 32.35 L35.45 32.25 36.4 30.4 Q37.75 27.05 37.75 23.45 37.75 27.05 36.4 30.4 L35.45 32.25 35.4 32.35 Q34.2 34.4 32.55 36.05 30.3 38.3 27.45 39.65 L27.4 39.65 26.8 39.9 Q23.5 41.25 19.9 41.3 L17.3 41.1 17.1 41.05 13.6 40.15 12.8 38.45 Q11.3 34.9 11.3 31.1 L11.3 11.95 37.75 11.95 37.75 23.45 M39.45 3.6 L39.75 4.3 39.75 23.45 Q39.75 27.45 38.25 31.15 L37.2 33.25 37.15 33.35 Q35.8 35.6 33.95 37.45 31.45 39.95 28.3 41.45 L28.25 41.45 28.2 41.5 27.7 41.7 27.65 41.75 Q23.95 43.25 19.95 43.3 L19.9 43.3 17.0 43.05 16.8 43.05 Q14.4 42.7 12.2 41.75 8.65 40.2 5.9 37.45 3.15 34.7 1.7 31.15 0.1 27.45 0.1 23.45 L0.1 4.3 Q0.1 3.9 0.4 3.6 0.7 3.3 1.1 3.3 L38.75 3.3 Q39.15 3.3 39.45 3.6" fill="#f3efba" fill-rule="evenodd" stroke="none"/>
  </g>
</svg>
