<?xml version="1.0" encoding="UTF-8" standalone="no"?>
<svg xmlns:ffdec="https://www.free-decompiler.com/flash" xmlns:xlink="http://www.w3.org/1999/xlink" ffdec:objectType="shape" height="40.0px" width="39.65px" xmlns="http://www.w3.org/2000/svg">
  <g transform="matrix(1.0, 0.0, 0.0, 1.0, 1.0, 1.0)">
    <path d="M37.8 7.55 L9.75 7.55 9.75 26.7 Q9.7 30.5 11.25 34.05 12.0 35.85 13.1 37.45 L11.35 36.8 Q7.95 35.35 5.35 32.75 2.7 30.15 1.25 26.75 -0.25 23.25 -0.2 19.45 L-0.2 0.3 37.8 0.3 37.8 7.55" fill="#000000" fill-opacity="0.12156863" fill-rule="evenodd" stroke="none"/>
    <path d="M34.35 27.95 L34.3 28.05 34.35 27.95" fill="#454545" fill-rule="evenodd" stroke="none"/>
    <path d="M-1.0 0.05 L-0.7 0.7 0.0 1.0 1.0 1.0 1.0 19.15 Q1.0 22.75 2.45 26.05 L2.45 26.1 Q3.75 29.3 6.2 31.75 8.65 34.2 11.9 35.6 L16.0 36.75 16.2 36.8 16.65 37.15 16.85 37.9 16.45 38.55 15.9 38.75 15.7 38.75 Q13.3 38.4 11.1 37.45 7.55 35.9 4.8 33.15 2.05 30.4 0.6 26.85 -1.0 23.15 -1.0 19.15 L-1.0 0.05 M36.65 1.0 L37.65 1.0 38.35 0.7 38.65 0.05 38.65 15.95 38.35 16.6 37.65 16.9 Q37.25 16.9 36.95 16.6 L36.65 15.95 36.65 1.0" fill="#b7b7b7" fill-rule="evenodd" stroke="none"/>
    <path d="M-1.0 0.05 L-1.0 0.0 -0.7 -0.7 0.0 -1.0 37.65 -1.0 38.35 -0.7 38.65 0.0 38.65 0.05 38.35 0.7 37.65 1.0 36.65 1.0 1.0 1.0 0.0 1.0 -0.7 0.7 -1.0 0.05" fill="#dddddd" fill-rule="evenodd" stroke="none"/>
    <path d="M38.65 15.95 L38.65 19.15 Q38.65 23.15 37.15 26.85 L36.1 28.95 36.0 29.1 35.4 29.55 34.65 29.4 34.2 28.8 Q34.1 28.4 34.3 28.05 L34.35 27.95 35.3 26.1 Q36.65 22.75 36.65 19.15 L36.65 15.95 36.95 16.6 Q37.25 16.9 37.65 16.9 L38.35 16.6 38.65 15.95 M27.2 37.15 L27.15 37.15 27.1 37.2 26.6 37.4 26.55 37.45 Q22.85 38.95 18.85 39.0 L18.8 39.0 15.9 38.75 16.45 38.55 16.85 37.9 16.65 37.15 16.2 36.8 18.8 37.0 Q22.4 36.95 25.7 35.6 L26.3 35.35 26.35 35.35 Q26.7 35.15 27.1 35.35 L27.65 35.9 27.65 36.65 27.2 37.15" fill="#949494" fill-rule="evenodd" stroke="none"/>
    <path d="M36.1 28.95 L36.05 29.05 Q34.7 31.3 32.85 33.15 30.35 35.65 27.2 37.15 L27.65 36.65 27.65 35.9 27.1 35.35 Q26.7 35.15 26.35 35.35 29.2 34.0 31.45 31.75 33.1 30.1 34.3 28.05 34.1 28.4 34.2 28.8 L34.65 29.4 35.4 29.55 36.0 29.1 36.1 28.95" fill="#808080" fill-rule="evenodd" stroke="none"/>
  </g>
</svg>
