<?xml version="1.0" encoding="UTF-8" standalone="no"?>
<svg xmlns:ffdec="https://www.free-decompiler.com/flash" xmlns:xlink="http://www.w3.org/1999/xlink" ffdec:objectType="shape" height="41.9px" width="35.65px" xmlns="http://www.w3.org/2000/svg">
  <g transform="matrix(1.0, 0.0, 0.0, 1.0, -1.55, 1.3)">
    <path d="M27.25 -0.25 L27.3 -0.25 28.25 0.0 30.25 0.5 31.6 1.3 31.65 1.35 31.75 1.4 32.2 2.6 Q32.65 3.85 33.35 4.55 L33.75 4.9 33.85 4.95 35.05 5.5 35.85 5.55 35.95 5.55 36.2 5.55 36.8 5.8 36.9 5.85 37.2 6.55 37.2 32.45 37.2 32.7 36.9 33.15 36.9 33.2 36.5 33.4 36.25 33.45 36.2 33.45 35.95 33.45 35.4 33.35 35.25 33.35 35.2 33.35 34.1 33.6 33.0 34.3 32.65 34.75 32.55 34.85 Q31.95 35.6 31.9 36.65 L31.9 36.8 31.95 37.2 31.95 37.25 32.0 37.55 32.0 37.6 31.95 37.9 31.95 38.0 31.9 38.05 31.9 38.1 31.8 38.3 31.7 38.35 31.35 38.55 Q20.0 42.65 7.2 38.6 L7.1 38.55 7.05 38.55 6.7 38.35 6.65 38.3 6.55 38.2 6.35 37.65 6.35 37.6 6.35 36.8 6.35 36.65 6.35 36.6 Q6.3 35.3 5.35 34.35 4.6 33.6 3.7 33.45 L3.6 33.4 3.55 33.4 3.4 33.4 2.95 33.35 2.9 33.35 2.55 33.4 2.4 33.4 2.1 33.3 2.0 33.25 1.85 33.1 1.6 32.75 1.55 32.4 1.55 6.75 Q1.55 6.35 1.85 6.05 L1.95 6.0 Q2.2 5.75 2.55 5.75 L2.65 5.75 3.3 5.75 3.45 5.75 3.55 5.75 4.05 5.7 4.1 5.7 Q5.05 5.5 5.75 4.75 6.6 3.9 6.75 2.8 L6.75 2.3 6.8 2.15 Q6.7 1.8 6.85 1.55 L6.85 1.5 Q6.95 1.15 7.35 1.0 16.2 -2.85 27.25 -0.25" fill="#f3efba" fill-rule="evenodd" stroke="none"/>
  </g>
</svg>
