<?xml version="1.0" encoding="UTF-8" standalone="no"?>
<svg xmlns:ffdec="https://www.free-decompiler.com/flash" xmlns:xlink="http://www.w3.org/1999/xlink" ffdec:objectType="shape" height="41.9px" width="35.65px" xmlns="http://www.w3.org/2000/svg">
  <g transform="matrix(1.0, 0.0, 0.0, 1.0, -0.35, 2.25)">
    <path d="M30.0 1.7 L30.0 1.85 Q30.0 3.55 31.2 4.7 21.4 3.0 13.5 6.25 L13.5 6.65 Q13.5 8.4 12.15 9.65 10.9 10.9 9.05 10.9 L9.0 10.9 8.25 10.9 8.25 35.35 8.6 35.3 8.65 35.3 Q10.45 35.3 11.75 36.55 L12.35 37.25 Q9.2 36.8 5.9 35.8 L5.9 35.0 Q5.9 33.25 4.6 32.0 3.25 30.75 1.45 30.75 L1.4 30.75 1.05 30.8 1.05 6.35 1.8 6.35 1.85 6.35 Q3.75 6.35 5.0 5.1 6.3 3.85 6.3 2.1 L6.3 1.7 Q16.65 -2.55 30.0 1.7" fill="#000000" fill-opacity="0.12156863" fill-rule="evenodd" stroke="none"/>
    <path d="M30.4 0.45 L30.4 0.35 30.45 0.4 30.55 0.45 30.4 0.45 M29.35 1.65 L29.45 1.7 29.35 1.65" fill="#cccccc" fill-rule="evenodd" stroke="none"/>
    <path d="M35.7 32.25 L35.3 32.45 35.5 32.35 35.7 32.25 M30.75 36.3 L30.8 36.65 30.75 36.4 30.75 36.3 M7.15 35.85 L7.15 35.95 7.1 35.85 7.15 35.8 7.15 35.85" fill="#454545" fill-rule="evenodd" stroke="none"/>
    <path d="M30.3 0.55 L30.2 0.5 30.3 0.5 30.3 0.55" fill="#959595" fill-rule="evenodd" stroke="none"/>
    <path d="M5.95 5.2 L6.0 5.2 6.0 5.25 5.95 5.2 M7.15 35.8 L7.15 35.85 7.15 35.8 M1.35 5.8 L1.4 5.8 1.35 5.8" fill="#666666" fill-rule="evenodd" stroke="none"/>
    <path d="M34.15 30.4 L34.2 30.4 34.15 30.45 34.15 30.4 M32.2 30.8 L32.25 30.75 32.2 30.8 M28.7 35.65 L28.75 35.65 28.7 35.65" fill="#363636" fill-rule="evenodd" stroke="none"/>
    <path d="M30.6 37.35 L30.5 37.4 30.55 37.3 30.6 37.35" fill="#e66516" fill-rule="evenodd" stroke="none"/>
    <path d="M5.65 0.6 L5.65 0.55 Q5.75 0.2 6.15 0.05 15.0 -3.8 26.05 -1.2 L26.1 -1.2 27.05 -0.95 29.05 -0.45 30.4 0.35 30.4 0.45 30.35 0.5 30.3 0.5 30.2 0.5 30.3 0.55 29.35 1.65 29.25 1.8 29.2 1.75 29.2 1.65 28.7 1.5 28.45 1.45 26.65 1.0 26.6 0.95 25.65 0.75 Q15.65 -1.6 7.55 1.65 L7.55 1.95 7.55 2.0 5.8 0.7 5.7 0.6 5.65 0.6" fill="#dddddd" fill-rule="evenodd" stroke="none"/>
    <path d="M5.65 0.6 L5.7 0.6 5.8 0.7 7.55 2.0 7.55 2.1 Q7.3 3.85 5.95 5.2 L6.0 5.25 Q4.85 6.35 3.3 6.7 L2.35 6.8 2.35 30.45 3.05 30.55 Q4.45 30.9 5.55 32.0 7.1 33.55 7.15 35.65 L7.15 35.8 7.1 35.85 5.35 37.25 5.15 36.7 5.15 36.65 5.15 35.85 5.15 35.7 5.15 35.65 Q5.1 34.35 4.15 33.4 3.4 32.65 2.5 32.5 L2.4 32.45 2.35 32.45 2.2 32.45 1.75 32.4 1.7 32.4 1.35 32.45 1.2 32.45 0.9 32.35 0.8 32.3 0.65 32.15 0.4 31.8 0.35 31.45 0.35 5.8 Q0.35 5.4 0.65 5.1 L0.75 5.05 Q1.0 4.8 1.35 4.8 L1.45 4.8 2.1 4.8 2.25 4.8 2.35 4.8 2.85 4.75 2.9 4.75 4.55 3.8 Q5.4 2.95 5.55 1.85 L5.55 1.35 5.6 1.2 Q5.5 0.85 5.65 0.6 M29.2 1.75 L29.25 1.8 29.35 1.65 30.3 0.55 30.3 0.5 30.35 0.5 30.4 0.45 30.55 0.45 31.0 1.65 Q31.45 2.9 32.15 3.6 L32.55 3.95 32.65 4.0 33.85 4.55 34.65 4.6 34.75 4.6 35.0 4.6 Q35.35 4.6 35.6 4.85 L34.0 6.55 33.45 6.5 Q32.3 6.25 31.45 5.6 L31.4 5.55 30.75 5.0 Q29.65 3.9 29.35 2.5 L29.35 2.45 29.25 1.95 29.2 1.8 29.2 1.75 M29.35 1.65 L29.45 1.7 29.35 1.65 M1.35 5.8 L1.4 5.8 1.35 5.8" fill="#b7b7b7" fill-rule="evenodd" stroke="none"/>
    <path d="M35.6 4.85 L35.7 4.9 36.0 5.6 36.0 31.5 36.0 31.75 35.7 32.2 35.65 32.25 34.15 30.45 34.2 30.4 34.15 30.4 34.0 30.4 34.0 6.55 35.6 4.85 M30.5 37.4 L30.15 37.6 Q18.8 41.7 6.0 37.65 L5.9 37.6 5.85 37.6 5.5 37.4 5.45 37.35 5.35 37.25 7.1 35.85 7.15 35.95 Q18.55 39.35 28.7 35.95 L28.7 35.85 28.7 35.65 28.75 35.65 30.55 37.3 30.5 37.4" fill="#949494" fill-rule="evenodd" stroke="none"/>
    <path d="M35.7 32.2 L35.7 32.25 35.5 32.35 35.3 32.45 35.05 32.5 35.0 32.5 34.75 32.5 34.2 32.4 34.05 32.4 34.0 32.4 32.9 32.65 Q32.25 32.85 31.8 33.35 L31.45 33.8 31.35 33.9 Q30.75 34.65 30.7 35.7 L30.7 35.85 30.75 36.25 30.75 36.3 30.75 36.4 30.8 36.65 30.75 36.95 30.75 37.05 30.7 37.1 30.7 37.15 30.6 37.35 30.55 37.3 28.75 35.65 28.7 35.65 28.7 35.45 Q28.8 33.8 29.8 32.65 L30.25 32.1 30.3 32.0 Q31.1 31.2 32.2 30.8 L33.95 30.4 34.0 30.4 34.15 30.4 34.15 30.45 35.65 32.25 35.7 32.2" fill="#808080" fill-rule="evenodd" stroke="none"/>
  </g>
</svg>
