<?xml version="1.0" encoding="UTF-8" standalone="no"?>
<svg xmlns:ffdec="https://www.free-decompiler.com/flash" xmlns:xlink="http://www.w3.org/1999/xlink" ffdec:objectType="shape" height="40.5px" width="36.5px" xmlns="http://www.w3.org/2000/svg">
  <g transform="matrix(1.0, 0.0, 0.0, 1.0, -2.8, -0.55)">
    <path d="M37.1 11.6 L37.1 11.55 Q29.25 8.25 22.75 3.05 L22.4 2.9 22.25 2.85 19.55 3.05 19.5 3.1 19.3 3.3 Q13.2 8.6 5.35 11.5 L4.95 11.65 5.35 14.1 Q6.5 22.2 4.95 30.35 L5.0 30.35 5.15 30.45 18.95 38.45 19.0 38.45 Q19.95 39.05 21.05 39.05 L21.2 39.05 23.25 38.45 23.2 38.45 37.1 30.4 37.15 30.4 Q34.7 20.95 37.1 11.6 34.7 20.95 37.15 30.4 L37.1 30.4 23.2 38.45 23.25 38.45 21.2 39.05 21.05 39.05 Q19.95 39.05 19.0 38.45 L18.95 38.45 5.15 30.45 5.0 30.35 4.95 30.35 Q6.5 22.2 5.35 14.1 L4.95 11.65 5.35 11.5 Q13.2 8.6 19.3 3.3 L19.5 3.1 19.55 3.05 22.25 2.85 22.4 2.9 22.75 3.05 Q29.25 8.25 37.1 11.55 L37.1 11.6 M38.7 10.05 L39.2 10.5 39.25 10.65 39.3 10.7 39.3 11.25 Q36.6 20.9 39.3 30.6 L39.25 31.25 39.15 31.4 38.8 31.75 24.2 40.2 Q22.55 41.05 21.05 41.05 L20.95 41.05 Q19.35 41.05 17.95 40.15 L17.95 40.2 3.35 31.75 3.3 31.75 2.9 31.25 2.8 30.9 2.85 30.65 Q4.6 21.95 3.25 13.3 L2.85 11.15 Q2.75 10.8 2.95 10.5 L2.95 10.45 3.5 10.0 Q11.9 7.15 18.3 1.45 L18.5 1.3 18.6 1.25 18.7 1.2 Q20.95 0.1 22.95 0.9 L23.15 1.0 23.8 1.35 23.9 1.45 Q30.55 6.8 38.7 10.05" fill="#f3efba" fill-rule="evenodd" stroke="none"/>
    <path d="M31.35 0.55 L31.35 0.7 31.35 0.55" fill="#e3dfbd" fill-rule="evenodd" stroke="none"/>
  </g>
</svg>
