<?xml version="1.0" encoding="UTF-8" standalone="no"?>
<svg xmlns:ffdec="https://www.free-decompiler.com/flash" xmlns:xlink="http://www.w3.org/1999/xlink" ffdec:objectType="shape" height="40.5px" width="36.55px" xmlns="http://www.w3.org/2000/svg">
  <g transform="matrix(1.0, 0.0, 0.0, 1.0, -2.4, 0.15)">
    <path d="M29.8 5.45 Q28.2 5.1 26.4 6.0 19.25 11.9 9.7 14.8 11.85 24.65 9.8 34.5 L2.4 30.6 Q4.6 20.55 2.4 10.45 11.9 7.5 19.1 1.6 21.7 0.4 23.9 1.6 L29.8 5.45" fill="#000000" fill-opacity="0.12156863" fill-rule="evenodd" stroke="none"/>
    <path d="M36.8 10.9 L36.75 10.9 36.75 10.85 36.8 10.9 M4.6 29.65 L4.65 29.65 4.6 29.65" fill="#a8a8a8" fill-rule="evenodd" stroke="none"/>
    <path d="M38.9 10.0 L38.85 10.0 38.9 9.95 38.9 10.0 M20.8 38.35 L20.85 38.35 20.8 38.4 20.8 38.35" fill="#666666" fill-rule="evenodd" stroke="none"/>
    <path d="M20.7 40.35 L20.6 40.35 20.7 40.35" fill="#171717" fill-rule="evenodd" stroke="none"/>
    <path d="M22.6 0.2 L21.9 1.65 21.9 2.15 19.2 2.35 19.15 2.4 18.95 2.6 Q12.85 7.9 5.0 10.8 3.7 10.55 2.6 9.8 L2.6 9.75 Q2.75 9.4 3.15 9.3 11.55 6.45 17.95 0.75 L18.15 0.6 18.25 0.55 18.35 0.5 Q20.6 -0.6 22.6 0.2" fill="#dddddd" fill-rule="evenodd" stroke="none"/>
    <path d="M36.8 10.9 L36.75 10.85 Q28.9 7.55 22.4 2.35 L22.05 2.2 21.9 2.15 21.9 1.65 22.6 0.2 22.8 0.3 23.45 0.65 23.55 0.75 Q30.2 6.1 38.35 9.35 L38.85 9.8 38.9 9.95 38.85 10.0 36.8 10.9 M2.6 9.8 Q3.7 10.55 5.0 10.8 L4.6 10.95 5.0 13.4 Q6.15 21.5 4.6 29.65 L3.0 30.2 2.6 30.2 2.45 30.2 2.5 29.95 Q4.25 21.25 2.9 12.6 L2.5 10.45 Q2.4 10.1 2.6 9.8" fill="#b7b7b7" fill-rule="evenodd" stroke="none"/>
    <path d="M36.75 10.9 L36.8 10.9 38.85 10.0 38.9 10.0 38.95 10.0 38.95 10.55 Q36.25 20.2 38.95 29.9 L38.9 30.55 38.8 30.7 37.45 30.2 36.75 29.7 36.8 29.7 Q34.35 20.25 36.75 10.9 M4.65 29.65 L4.8 29.75 18.6 37.75 18.65 37.75 Q19.6 38.35 20.7 38.35 L20.8 38.35 20.8 38.4 20.6 40.35 Q19.0 40.35 17.6 39.45 L17.6 39.5 3.0 31.05 2.95 31.05 2.55 30.55 2.45 30.2 2.6 30.2 3.0 30.2 4.6 29.65 4.65 29.65" fill="#949494" fill-rule="evenodd" stroke="none"/>
    <path d="M36.75 29.7 L37.45 30.2 38.8 30.7 38.45 31.05 23.85 39.5 Q22.2 40.35 20.7 40.35 L20.6 40.35 20.8 38.4 20.85 38.35 22.9 37.75 22.85 37.75 36.75 29.7" fill="#808080" fill-rule="evenodd" stroke="none"/>
  </g>
</svg>
