<?xml version="1.0" encoding="UTF-8" standalone="no"?>
<svg xmlns:ffdec="https://www.free-decompiler.com/flash" xmlns:xlink="http://www.w3.org/1999/xlink" ffdec:objectType="shape" height="40.15px" width="38.8px" xmlns="http://www.w3.org/2000/svg">
  <g transform="matrix(1.0, 0.0, 0.0, 1.0, -1.25, -0.2)">
    <path d="M22.9 1.65 L23.0 1.65 22.75 1.6 22.9 1.65 M30.4 1.5 L32.0 2.5 32.05 2.55 Q33.3 3.6 34.15 5.7 L34.15 5.75 40.0 25.0 40.05 25.05 40.0 25.7 39.55 26.2 Q29.4 32.0 21.4 40.05 L20.75 40.35 20.7 40.35 20.5 40.35 20.0 40.1 Q16.95 37.1 13.55 34.4 L11.95 33.15 Q7.15 29.45 1.75 26.15 L1.35 25.65 1.3 25.05 1.3 25.0 7.2 5.9 7.25 5.85 Q8.1 3.55 9.5 2.5 10.2 1.9 10.95 1.65 L11.05 1.65 11.7 1.5 11.8 1.5 12.25 1.6 13.55 2.2 14.6 2.5 14.7 2.5 16.4 2.4 16.85 2.3 Q17.6 2.05 18.4 1.6 L19.2 1.05 19.65 0.6 Q20.1 0.2 20.65 0.2 L20.7 0.2 20.9 0.2 21.75 0.5 21.9 0.65 22.25 1.0 22.2 0.9 23.05 1.55 23.15 1.65 23.2 1.7 23.4 1.8 23.9 2.05 24.55 2.3 25.05 2.4 25.1 2.45 25.2 2.45 27.45 2.35 27.6 2.3 27.9 2.2 28.1 2.15 28.25 2.05 28.45 1.95 29.15 1.6 29.65 1.45 30.05 1.45 30.25 1.5 30.4 1.5" fill="#f3efba" fill-rule="evenodd" stroke="none"/>
  </g>
</svg>
