<?xml version="1.0" encoding="UTF-8" standalone="no"?>
<svg xmlns:ffdec="https://www.free-decompiler.com/flash" xmlns:xlink="http://www.w3.org/1999/xlink" ffdec:objectType="shape" height="40.15px" width="38.8px" xmlns="http://www.w3.org/2000/svg">
  <g transform="matrix(1.0, 0.0, 0.0, 1.0, -0.8, 0.55)">
    <path d="M33.9 8.35 L31.45 8.45 31.1 8.35 30.9 8.3 30.7 8.3 29.3 7.65 29.15 7.6 28.95 7.45 27.9 6.7 27.55 6.4 27.1 6.25 26.6 6.45 26.25 6.75 25.25 7.45 23.35 8.3 23.1 8.35 20.95 8.5 20.9 8.5 19.4 8.1 19.45 8.1 18.1 7.5 Q17.25 7.6 16.4 8.25 15.2 9.15 14.45 11.15 L8.9 28.9 7.6 28.05 1.85 24.4 7.8 5.65 Q8.5 3.6 9.75 2.7 10.55 2.05 11.45 1.95 L12.8 2.55 12.7 2.55 14.2 2.95 14.25 2.95 16.4 2.8 16.65 2.75 18.55 1.9 19.6 1.2 19.95 0.9 20.4 0.7 20.9 0.85 21.25 1.15 22.25 1.9 22.45 2.05 22.6 2.1 Q23.3 2.5 24.05 2.75 L24.2 2.75 24.4 2.8 24.8 2.9 27.45 2.75 27.55 2.75 28.15 2.55 28.55 2.3 29.4 1.9 29.8 1.9 Q30.5 2.15 31.1 2.7 32.2 3.6 33.0 5.5 L33.9 8.35" fill="#000000" fill-opacity="0.12156863" fill-rule="evenodd" stroke="none"/>
    <path d="M39.55 24.25 L39.6 24.3 39.55 24.3 39.55 24.25" fill="#666666" fill-rule="evenodd" stroke="none"/>
    <path d="M20.2 1.55 L20.3 1.55 20.25 1.6 20.2 1.65 20.2 1.55 M0.85 24.3 L0.85 24.25 0.85 24.3" fill="#cccccc" fill-rule="evenodd" stroke="none"/>
    <path d="M20.25 37.2 L20.3 37.15 20.3 37.2 20.25 37.2" fill="#575757" fill-rule="evenodd" stroke="none"/>
    <path d="M23.45 3.45 L23.45 1.3 24.1 1.55 24.6 1.65 24.65 1.7 24.75 1.7 27.0 1.6 27.15 1.55 27.45 1.45 27.65 1.4 27.8 1.3 28.0 1.2 28.7 0.85 29.2 0.7 29.6 0.7 29.8 0.75 29.8 2.9 29.45 2.75 28.85 3.0 28.35 3.3 28.15 3.35 27.8 3.45 27.45 3.55 27.4 3.55 24.45 3.7 24.35 3.7 23.95 3.55 23.9 3.55 23.6 3.5 23.45 3.45 M5.7 8.55 L6.75 5.15 6.8 5.1 Q7.65 2.8 9.05 1.75 L10.5 0.9 10.6 0.9 11.25 0.75 11.35 0.75 11.35 2.85 11.25 2.8 Q10.9 2.85 10.6 3.05 L10.5 3.1 10.3 3.3 Q9.3 4.1 8.65 5.75 L7.8 8.55 5.7 8.55" fill="#dddddd" fill-rule="evenodd" stroke="none"/>
    <path d="M20.2 -0.55 L20.25 -0.55 20.45 -0.55 Q20.85 -0.5 21.3 -0.25 L21.45 -0.1 21.8 0.25 21.75 0.15 22.6 0.8 22.7 0.9 22.75 0.95 22.95 1.05 23.45 1.3 23.45 3.45 22.25 2.95 22.05 2.85 21.85 2.75 21.5 2.5 21.45 2.5 20.5 1.75 20.45 1.75 20.4 1.65 20.3 1.55 20.2 1.55 20.2 -0.55 M0.85 24.25 L5.7 8.55 7.8 8.55 3.0 24.1 3.3 24.3 0.85 24.3 0.85 24.25 M22.45 0.9 L22.55 0.9 22.3 0.85 22.45 0.9 M22.3 2.85 L22.25 2.85 22.45 2.9 22.3 2.85" fill="#b7b7b7" fill-rule="evenodd" stroke="none"/>
    <path d="M20.2 -0.55 L20.2 1.55 20.2 1.65 20.1 1.8 19.0 2.55 18.95 2.6 Q17.9 3.2 16.85 3.5 L16.65 3.55 16.55 3.6 14.15 3.75 14.1 3.75 13.9 3.75 12.3 3.3 12.0 3.15 11.35 2.85 11.35 0.75 11.8 0.85 13.1 1.45 14.15 1.75 14.2 1.75 14.25 1.75 15.95 1.65 16.4 1.55 Q17.15 1.3 17.95 0.85 L18.75 0.3 19.2 -0.15 Q19.65 -0.55 20.2 -0.55 M29.8 0.75 L29.95 0.75 Q30.8 1.05 31.55 1.75 L31.6 1.8 Q32.85 2.85 33.7 4.95 L33.7 5.0 39.55 24.25 39.55 24.3 37.05 24.3 37.45 24.1 31.8 5.6 Q31.15 4.05 30.25 3.25 L29.8 2.9 29.8 0.75 M20.3 39.6 L20.25 39.6 20.05 39.6 Q19.75 39.55 19.55 39.35 L13.1 33.65 11.5 32.4 Q6.7 28.7 1.3 25.4 L0.9 24.9 0.85 24.3 3.3 24.3 Q7.6 26.95 11.5 29.85 L13.1 31.1 Q16.75 33.9 20.05 37.0 L20.25 37.2 20.3 37.2 20.3 39.6" fill="#949494" fill-rule="evenodd" stroke="none"/>
    <path d="M39.6 24.3 L39.55 24.95 39.1 25.45 Q28.95 31.25 20.95 39.3 20.7 39.6 20.3 39.6 L20.3 37.2 20.3 37.15 Q27.8 29.8 37.05 24.3 L39.55 24.3 39.6 24.3" fill="#808080" fill-rule="evenodd" stroke="none"/>
  </g>
</svg>
