<?xml version="1.0" encoding="UTF-8" standalone="no"?>
<svg xmlns:ffdec="https://www.free-decompiler.com/flash" xmlns:xlink="http://www.w3.org/1999/xlink" ffdec:objectType="shape" height="56.0px" width="56.0px" xmlns="http://www.w3.org/2000/svg">
  <g transform="matrix(1.0, 0.0, 0.0, 1.0, 0.0, 0.0)">
    <path d="M54.7 0.85 L54.7 8.3 10.4 8.3 10.4 54.25 1.1 54.25 1.1 0.85 54.7 0.85" fill="#000000" fill-opacity="0.12156863" fill-rule="evenodd" stroke="none"/>
    <path d="M53.6 2.35 L53.6 2.15 2.6 2.15 1.55 3.15 Q1.1 3.55 0.5 3.55 L0.0 3.5 0.0 0.0 56.0 0.0 56.0 3.4 55.1 3.55 54.6 3.5 54.05 3.15 Q53.6 2.7 53.6 2.35" fill="#dddddd" fill-rule="evenodd" stroke="none"/>
    <path d="M0.0 3.5 L0.5 3.55 Q1.1 3.55 1.55 3.15 L2.6 2.15 2.6 53.3 Q2.65 55.95 0.1 56.0 L0.0 56.0 0.0 3.5" fill="#b7b7b7" fill-rule="evenodd" stroke="none"/>
    <path d="M53.6 2.35 Q53.6 2.7 54.05 3.15 L54.6 3.5 55.1 3.55 56.0 3.4 56.0 44.65 55.1 44.8 54.6 44.75 54.05 44.4 53.6 43.8 53.6 43.4 53.6 2.35 M2.6 53.3 L27.8 53.3 28.35 53.6 29.0 54.1 29.1 54.5 29.15 54.95 29.3 56.0 0.1 56.0 Q2.65 55.95 2.6 53.3" fill="#949494" fill-rule="evenodd" stroke="none"/>
    <path d="M27.8 53.3 Q37.35 53.6 53.6 53.15 L53.6 43.8 54.05 44.4 54.6 44.75 55.1 44.8 56.0 44.65 56.0 56.0 29.3 56.0 29.15 54.95 29.1 54.5 29.0 54.1 28.35 53.6 27.8 53.3" fill="#808080" fill-rule="evenodd" stroke="none"/>
  </g>
</svg>
