<?xml version="1.0" encoding="UTF-8" standalone="no"?>
<svg xmlns:ffdec="https://www.free-decompiler.com/flash" xmlns:xlink="http://www.w3.org/1999/xlink" ffdec:objectType="shape" height="40.0px" width="39.75px" xmlns="http://www.w3.org/2000/svg">
  <g transform="matrix(1.0, 0.0, 0.0, 1.0, 4.45, -2.35)">
    <path d="M31.3 7.15 L31.25 7.15 Q33.55 8.2 35.05 9.8 L35.3 10.5 35.0 11.15 Q34.5 11.65 34.1 12.7 33.05 15.05 33.3 18.25 L33.6 22.5 33.6 22.65 33.6 23.05 33.6 23.1 33.5 27.05 33.5 27.1 32.9 29.95 32.85 30.2 Q31.85 33.1 29.7 35.15 28.2 36.5 26.0 37.5 L25.8 37.55 22.8 38.65 22.55 38.75 22.35 38.8 22.25 38.85 Q19.65 39.75 17.9 40.85 L17.75 40.95 16.15 42.1 15.5 42.35 14.8 42.1 Q12.8 40.35 8.6 38.85 L4.9 37.5 4.85 37.5 Q2.6 36.5 1.2 35.15 L1.25 35.15 Q-2.05 32.15 -2.6 27.05 L-2.7 22.65 -2.7 22.6 -2.4 18.25 Q-2.15 15.05 -3.15 12.7 L-3.8 11.55 -3.85 11.5 -4.2 11.1 -4.45 10.4 -4.25 9.9 -4.1 9.7 Q-2.65 8.2 -0.4 7.15 L0.3 6.85 0.45 6.8 Q2.75 5.9 5.3 5.8 7.0 4.25 9.6 3.35 L9.55 3.4 Q11.95 2.45 14.7 2.35 L14.75 2.35 15.45 2.35 Q18.6 2.3 21.35 3.4 L21.35 3.35 Q23.85 4.25 25.6 5.8 28.6 5.9 31.3 7.15" fill="#f3efba" fill-rule="evenodd" stroke="none"/>
  </g>
</svg>
