<?xml version="1.0" encoding="UTF-8" standalone="no"?>
<svg xmlns:ffdec="https://www.free-decompiler.com/flash" xmlns:xlink="http://www.w3.org/1999/xlink" ffdec:objectType="shape" height="40.0px" width="39.75px" xmlns="http://www.w3.org/2000/svg">
  <g transform="matrix(1.0, 0.0, 0.0, 1.0, 1.0, 1.0)">
    <path d="M19.3 0.0 Q22.3 0.0 24.9 0.95 27.4 1.85 29.15 3.5 32.15 3.5 34.85 4.75 36.95 5.7 38.3 7.1 37.65 7.7 37.15 8.95 L36.8 9.7 34.75 9.55 Q33.0 7.9 30.5 6.95 27.9 6.0 24.9 6.0 L24.15 6.05 Q21.6 6.1 19.3 6.95 16.95 7.85 15.3 9.3 L15.05 9.55 Q12.4 9.55 10.05 10.5 L9.35 10.75 Q7.25 11.7 5.95 13.1 L5.9 13.15 6.25 13.6 7.05 15.0 Q8.2 17.55 7.95 21.05 L7.65 25.35 Q7.55 27.85 7.75 29.65 7.9 31.45 8.45 32.95 L5.65 31.1 Q2.6 28.35 2.15 23.6 1.95 21.8 2.05 19.3 L2.35 15.0 Q2.6 11.55 1.45 8.95 L0.7 7.55 0.3 7.1 0.35 7.05 Q1.65 5.7 3.75 4.75 L4.45 4.45 Q6.8 3.5 9.45 3.5 L9.75 3.25 Q11.35 1.8 13.7 0.95 16.0 0.1 18.55 0.05 L19.3 0.0" fill="#000000" fill-opacity="0.12156863" fill-rule="evenodd" stroke="none"/>
    <path d="M13.0 0.0 L13.05 0.0 13.0 0.05 13.0 0.0" fill="#cccccc" fill-rule="evenodd" stroke="none"/>
    <path d="M4.7 31.8 L4.65 31.8 4.7 31.8 M-0.7 7.85 L-0.75 7.75 -1.0 7.1 -1.0 7.05 -0.8 6.55 -0.95 7.1 -0.65 7.8 -0.7 7.85 M8.7 2.45 L8.75 2.45 8.7 2.5 8.7 2.45 M9.3 4.25 L9.85 4.15 9.95 4.1 9.85 4.15 9.4 4.45 9.3 4.25" fill="#959595" fill-rule="evenodd" stroke="none"/>
    <path d="M36.35 26.6 L36.3 26.85 36.3 26.8 36.35 26.6 M34.45 26.05 L34.45 26.2 34.4 26.25 34.4 26.2 34.45 26.05" fill="#454545" fill-rule="evenodd" stroke="none"/>
    <path d="M18.2 -1.0 L18.9 -0.7 19.2 0.0 18.95 0.7 Q18.65 1.0 18.25 1.0 L18.2 1.0 Q15.8 1.1 13.7 1.9 11.5 2.7 10.05 4.0 L9.95 4.1 9.85 4.15 9.3 4.25 Q8.9 4.25 8.6 3.95 L8.35 3.2 Q8.35 2.8 8.7 2.5 L8.75 2.45 Q10.45 0.9 13.0 0.0 L13.0 0.05 13.05 0.05 Q15.4 -0.9 18.15 -1.0 L18.2 -1.0 M-0.8 6.55 L-0.65 6.35 Q0.8 4.85 3.05 3.8 L3.75 3.5 3.9 3.45 4.55 3.5 5.1 4.0 5.1 4.8 4.65 5.3 4.55 5.35 3.85 5.65 3.9 5.6 Q2.45 6.25 1.4 7.2 L0.8 7.75 0.1 8.05 -0.65 7.8 -0.95 7.1 -0.8 6.55" fill="#dddddd" fill-rule="evenodd" stroke="none"/>
    <path d="M18.2 -1.0 L18.9 -1.0 Q22.05 -1.05 24.8 0.05 L24.8 0.0 Q27.3 0.9 29.05 2.45 32.05 2.55 34.75 3.8 L34.7 3.8 Q37.0 4.85 38.5 6.45 L38.75 7.15 38.45 7.8 Q37.95 8.3 37.55 9.35 36.5 11.7 36.75 14.9 L37.05 19.15 37.05 19.3 37.05 19.7 37.05 19.75 36.75 20.45 36.05 20.75 Q35.65 20.75 35.35 20.45 35.05 20.15 35.05 19.8 L35.05 19.75 35.05 19.45 34.75 15.05 34.75 15.0 Q34.5 11.3 35.7 8.55 L36.4 7.2 Q35.35 6.25 33.9 5.6 31.4 4.45 28.65 4.45 L28.0 4.2 Q26.4 2.7 24.1 1.9 21.7 0.95 18.95 1.0 L18.9 1.0 18.25 1.0 Q18.65 1.0 18.95 0.7 L19.2 0.0 18.9 -0.7 18.2 -1.0 M21.35 37.5 L21.2 37.6 Q20.25 38.1 19.6 38.75 L18.95 39.0 18.25 38.75 Q16.25 37.0 12.05 35.5 L8.35 34.15 8.3 34.15 Q6.1 33.15 4.7 31.8 1.4 28.8 0.85 23.7 0.65 21.8 0.75 19.3 L0.75 19.25 1.05 14.9 Q1.3 11.7 0.3 9.35 L-0.35 8.2 -0.7 7.85 -0.65 7.8 0.1 8.05 0.8 7.75 1.4 7.2 2.15 8.55 Q3.3 11.3 3.05 15.05 L2.75 19.3 2.75 19.35 Q2.65 21.7 2.85 23.5 3.3 27.8 6.05 30.35 7.25 31.45 9.1 32.3 L12.75 33.6 Q16.7 35.05 18.9 36.7 L20.2 35.85 20.3 35.8 21.0 35.75 21.6 36.2 21.7 37.0 21.35 37.5 M3.9 3.45 Q6.15 2.55 8.7 2.45 L8.7 2.5 Q8.35 2.8 8.35 3.2 L8.6 3.95 Q8.9 4.25 9.3 4.25 L9.4 4.45 9.15 4.45 Q6.75 4.45 4.65 5.3 L5.1 4.8 5.1 4.0 4.55 3.5 3.9 3.45" fill="#b7b7b7" fill-rule="evenodd" stroke="none"/>
    <path d="M35.05 19.8 Q35.05 20.15 35.35 20.45 35.65 20.75 36.05 20.75 L36.75 20.45 37.05 19.75 36.95 23.7 36.95 23.75 36.35 26.6 36.3 26.8 35.85 27.4 35.1 27.45 34.5 27.0 Q34.3 26.6 34.4 26.25 L34.45 26.2 34.45 26.05 34.95 23.5 35.05 19.8 M26.25 35.3 L26.0 35.4 25.8 35.45 25.7 35.5 Q23.1 36.4 21.35 37.5 L21.7 37.0 21.6 36.2 21.0 35.75 20.3 35.8 Q22.15 34.65 24.95 33.65 L25.5 33.45 25.6 33.4 26.25 33.55 26.75 34.15 26.6 34.9 26.25 35.3" fill="#949494" fill-rule="evenodd" stroke="none"/>
    <path d="M36.3 26.85 Q35.3 29.75 33.15 31.8 31.65 33.15 29.45 34.15 L29.25 34.2 26.25 35.3 26.6 34.9 26.75 34.15 26.25 33.55 25.6 33.4 28.65 32.3 Q30.55 31.45 31.8 30.35 33.55 28.65 34.4 26.25 34.3 26.6 34.5 27.0 L35.1 27.45 35.85 27.4 36.3 26.8 36.3 26.85" fill="#808080" fill-rule="evenodd" stroke="none"/>
  </g>
</svg>
